  0
SECTION
  2
HEADER
  9
$ACADVER
  1
AC1015
  9
$ACADMAINTVER
 70
     6
  9
$DWGCODEPAGE
  3
ANSI_1252
  9
$INSBASE
 10
0.0
 20
0.0
 30
0.0
  9
$EXTMIN
 10
533.7273180681388
 20
111.7001002517667
 30
0.0
  9
$EXTMAX
 10
1129.43596115035
 20
866.6858203570331
 30
0.0
  9
$LIMMIN
 10
0.0
 20
0.0
  9
$LIMMAX
 10
12.0
 20
9.0
  9
$ORTHOMODE
 70
     1
  9
$REGENMODE
 70
     1
  9
$FILLMODE
 70
     1
  9
$QTEXTMODE
 70
     0
  9
$MIRRTEXT
 70
     1
  9
$LTSCALE
 40
1.0
  9
$ATTMODE
 70
     1
  9
$TEXTSIZE
 40
0.0
  9
$TRACEWID
 40
0.05
  9
$TEXTSTYLE
  7
STANDARD
  9
$CLAYER
  8
0
  9
$CELTYPE
  6
CONTINUOUS
  9
$CECOLOR
 62
   256
  9
$CELTSCALE
 40
1.0
  9
$DISPSILH
 70
     0
  9
$DIMSCALE
 40
1.0
  9
$DIMASZ
 40
0.18
  9
$DIMEXO
 40
0.0625
  9
$DIMDLI
 40
0.38
  9
$DIMRND
 40
0.0
  9
$DIMDLE
 40
0.0
  9
$DIMEXE
 40
0.18
  9
$DIMTP
 40
0.0
  9
$DIMTM
 40
0.0
  9
$DIMTXT
 40
0.18
  9
$DIMCEN
 40
0.09
  9
$DIMTSZ
 40
0.0
  9
$DIMTOL
 70
     0
  9
$DIMLIM
 70
     0
  9
$DIMTIH
 70
     1
  9
$DIMTOH
 70
     1
  9
$DIMSE1
 70
     0
  9
$DIMSE2
 70
     0
  9
$DIMTAD
 70
     0
  9
$DIMZIN
 70
     0
  9
$DIMBLK
  1

  9
$DIMASO
 70
     1
  9
$DIMSHO
 70
     1
  9
$DIMPOST
  1

  9
$DIMAPOST
  1

  9
$DIMALT
 70
     0
  9
$DIMALTD
 70
     2
  9
$DIMALTF
 40
25.4
  9
$DIMLFAC
 40
1.0
  9
$DIMTOFL
 70
     0
  9
$DIMTVP
 40
0.0
  9
$DIMTIX
 70
     0
  9
$DIMSOXD
 70
     0
  9
$DIMSAH
 70
     0
  9
$DIMBLK1
  1

  9
$DIMBLK2
  1

  9
$DIMSTYLE
  2
STANDARD
  9
$DIMCLRD
 70
     0
  9
$DIMCLRE
 70
     0
  9
$DIMCLRT
 70
     0
  9
$DIMTFAC
 40
1.0
  9
$DIMGAP
 40
0.09
  9
$DIMJUST
 70
     0
  9
$DIMSD1
 70
     0
  9
$DIMSD2
 70
     0
  9
$DIMTOLJ
 70
     1
  9
$DIMTZIN
 70
     0
  9
$DIMALTZ
 70
     0
  9
$DIMALTTZ
 70
     0
  9
$DIMUPT
 70
     0
  9
$DIMDEC
 70
     4
  9
$DIMTDEC
 70
     4
  9
$DIMALTU
 70
     2
  9
$DIMALTTD
 70
     2
  9
$DIMTXSTY
  7
STANDARD
  9
$DIMAUNIT
 70
     0
  9
$DIMADEC
 70
     0
  9
$DIMALTRND
 40
0.0
  9
$DIMAZIN
 70
     0
  9
$DIMDSEP
 70
    46
  9
$DIMATFIT
 70
     3
  9
$DIMFRAC
 70
     0
  9
$DIMLDRBLK
  1

  9
$DIMLUNIT
 70
     2
  9
$DIMLWD
 70
    -2
  9
$DIMLWE
 70
    -2
  9
$DIMTMOVE
 70
     0
  9
$LUNITS
 70
     2
  9
$LUPREC
 70
     4
  9
$SKETCHINC
 40
0.1
  9
$FILLETRAD
 40
0.0
  9
$AUNITS
 70
     0
  9
$AUPREC
 70
     0
  9
$MENU
  1
acad
  9
$ELEVATION
 40
0.0
  9
$PELEVATION
 40
0.0
  9
$THICKNESS
 40
0.0
  9
$LIMCHECK
 70
     0
  9
$CHAMFERA
 40
0.0
  9
$CHAMFERB
 40
0.0
  9
$CHAMFERC
 40
0.0
  9
$CHAMFERD
 40
0.0
  9
$SKPOLY
 70
     0
  9
$TDCREATE
 40
2453238.928356481
  9
$TDUCREATE
 40
2453238.886689814
  9
$TDUPDATE
 40
2459018.650843750
  9
$TDUUPDATE
 40
2459018.609177083
  9
$TDINDWG
 40
0.1272518403
  9
$TDUSRTIMER
 40
0.1272490741
  9
$USRTIMER
 70
     1
  9
$ANGBASE
 50
0.0
  9
$ANGDIR
 70
     0
  9
$PDMODE
 70
     0
  9
$PDSIZE
 40
0.0
  9
$PLINEWID
 40
0.0
  9
$SPLFRAME
 70
     0
  9
$SPLINETYPE
 70
     6
  9
$SPLINESEGS
 70
    10
  9
$HANDSEED
  5
1425
  9
$SURFTAB1
 70
     6
  9
$SURFTAB2
 70
     6
  9
$SURFTYPE
 70
     6
  9
$SURFU
 70
     6
  9
$SURFV
 70
     6
  9
$UCSBASE
  2

  9
$UCSNAME
  2

  9
$UCSORG
 10
0.0
 20
0.0
 30
0.0
  9
$UCSXDIR
 10
1.0
 20
0.0
 30
0.0
  9
$UCSYDIR
 10
0.0
 20
1.0
 30
0.0
  9
$UCSORTHOREF
  2

  9
$UCSORTHOVIEW
 70
     0
  9
$UCSORGTOP
 10
0.0
 20
0.0
 30
0.0
  9
$UCSORGBOTTOM
 10
0.0
 20
0.0
 30
0.0
  9
$UCSORGLEFT
 10
0.0
 20
0.0
 30
0.0
  9
$UCSORGRIGHT
 10
0.0
 20
0.0
 30
0.0
  9
$UCSORGFRONT
 10
0.0
 20
0.0
 30
0.0
  9
$UCSORGBACK
 10
0.0
 20
0.0
 30
0.0
  9
$PUCSBASE
  2

  9
$PUCSNAME
  2

  9
$PUCSORG
 10
0.0
 20
0.0
 30
0.0
  9
$PUCSXDIR
 10
1.0
 20
0.0
 30
0.0
  9
$PUCSYDIR
 10
0.0
 20
1.0
 30
0.0
  9
$PUCSORTHOREF
  2

  9
$PUCSORTHOVIEW
 70
     0
  9
$PUCSORGTOP
 10
0.0
 20
0.0
 30
0.0
  9
$PUCSORGBOTTOM
 10
0.0
 20
0.0
 30
0.0
  9
$PUCSORGLEFT
 10
0.0
 20
0.0
 30
0.0
  9
$PUCSORGRIGHT
 10
0.0
 20
0.0
 30
0.0
  9
$PUCSORGFRONT
 10
0.0
 20
0.0
 30
0.0
  9
$PUCSORGBACK
 10
0.0
 20
0.0
 30
0.0
  9
$USERI1
 70
     0
  9
$USERI2
 70
     0
  9
$USERI3
 70
     0
  9
$USERI4
 70
     0
  9
$USERI5
 70
     0
  9
$USERR1
 40
0.0
  9
$USERR2
 40
0.0
  9
$USERR3
 40
0.0
  9
$USERR4
 40
0.0
  9
$USERR5
 40
0.0
  9
$WORLDVIEW
 70
     1
  9
$SHADEDGE
 70
     3
  9
$SHADEDIF
 70
    70
  9
$TILEMODE
 70
     1
  9
$MAXACTVP
 70
    16
  9
$PINSBASE
 10
0.0
 20
0.0
 30
0.0
  9
$PLIMCHECK
 70
     0
  9
$PEXTMIN
 10
-1.000000000000000E+20
 20
-1.000000000000000E+20
 30
-1.000000000000000E+20
  9
$PEXTMAX
 10
-1.000000000000000E+20
 20
-1.000000000000000E+20
 30
-1.000000000000000E+20
  9
$PLIMMIN
 10
0.0
 20
0.0
  9
$PLIMMAX
 10
12.0
 20
9.0
  9
$UNITMODE
 70
     0
  9
$VISRETAIN
 70
     0
  9
$PLINEGEN
 70
     1
  9
$PSLTSCALE
 70
     0
  9
$TREEDEPTH
 70
  3020
  9
$CMLSTYLE
  2
Standard
  9
$CMLJUST
 70
     0
  9
$CMLSCALE
 40
1.0
  9
$PROXYGRAPHICS
 70
     1
  9
$MEASUREMENT
 70
     0
  9
$CELWEIGHT
370
    -1
  9
$ENDCAPS
280
     0
  9
$JOINSTYLE
280
     0
  9
$LWDISPLAY
290
     0
  9
$INSUNITS
 70
     0
  9
$HYPERLINKBASE
  1

  9
$STYLESHEET
  1

  9
$XEDIT
290
     1
  9
$CEPSNTYPE
380
     0
  9
$PSTYLEMODE
290
     1
  9
$FINGERPRINTGUID
  2
{7785CE37-03E3-401E-A247-AE1453CCA13D}
  9
$VERSIONGUID
  2
{A856E9D2-0AF2-4DD7-9BE7-24F2BACF2F9F}
  9
$EXTNAMES
290
     1
  9
$PSVPSCALE
 40
0.0
  9
$OLESTARTUP
290
     0
  0
ENDSEC
  0
SECTION
  2
CLASSES
  0
CLASS
  1
ACDBDICTIONARYWDFLT
  2
AcDbDictionaryWithDefault
  3
AutoCAD 2000
 90
        0
280
     0
281
     0
  0
CLASS
  1
ACDBPLACEHOLDER
  2
AcDbPlaceHolder
  3
AutoCAD 2000
 90
        0
280
     0
281
     0
  0
CLASS
  1
LAYOUT
  2
AcDbLayout
  3
AutoCAD 2000
 90
        0
280
     0
281
     0
  0
CLASS
  1
MATERIAL
  2
AcDbMaterial
  3
ObjectDBX Classes
 90
     1153
280
     0
281
     0
  0
CLASS
  1
VISUALSTYLE
  2
AcDbVisualStyle
  3
ObjectDBX Classes
 90
     4095
280
     0
281
     0
  0
CLASS
  1
TABLESTYLE
  2
AcDbTableStyle
  3
ObjectDBX Classes
 90
     4095
280
     0
281
     0
  0
CLASS
  1
SCALE
  2
AcDbScale
  3
ObjectDBX Classes
 90
     1153
280
     0
281
     0
  0
CLASS
  1
MLEADERSTYLE
  2
AcDbMLeaderStyle
  3
ACDB_MLEADERSTYLE_CLASS
 90
     4095
280
     0
281
     0
  0
CLASS
  1
DICTIONARYVAR
  2
AcDbDictionaryVar
  3
AutoCAD 2000
 90
        0
280
     0
281
     0
  0
CLASS
  1
CELLSTYLEMAP
  2
AcDbCellStyleMap
  3
ObjectDBX Classes
 90
     1152
280
     0
281
     0
  0
CLASS
  1
EXACXREFPANELOBJECT
  2
ExAcXREFPanelObject
  3
EXAC_ESW
 90
    33793
280
     0
281
     0
  0
CLASS
  1
NPOCOLLECTION
  2
AcDbImpNonPersistentObjectsCollection
  3
ObjectDBX Classes
 90
    33921
280
     0
281
     0
  0
CLASS
  1
EXACTERMXREFMAP
  2
ExAcTermXrefMap
  3
EXAC_SERVICE
 90
    33793
280
     0
281
     0
  0
CLASS
  1
SORTENTSTABLE
  2
AcDbSortentsTable
  3
AutoCAD 2000
 90
        0
280
     0
281
     0
  0
ENDSEC
  0
SECTION
  2
TABLES
  0
TABLE
  2
VPORT
  5
296
330
0
100
AcDbSymbolTable
 70
     2
  0
VPORT
  5
1424
330
296
100
AcDbSymbolTableRecord
100
AcDbViewportTableRecord
  2
*Active
 70
     0
 10
0.0
 20
0.0
 11
1.0
 21
1.0
 12
145.8906885871545
 22
60.78238706956461
 13
0.0
 23
0.0
 14
0.0
 24
0.0
 15
0.0
 25
0.0
 16
0.0
 26
0.0
 36
1.0
 17
726.9502909999999
 27
587.2124999999997
 37
0.0
 40
1280.42757842553
 41
1.911917098445595
 42
50.0
 43
0.025
 44
0.0
 50
0.0
 51
0.0
 71
     0
 72
   100
 73
     1
 74
     0
 75
     0
 76
     0
 77
     0
 78
     0
281
     0
 65
     0
110
0.0
120
0.0
130
0.0
111
1.0
121
0.0
131
0.0
112
0.0
122
1.0
132
0.0
 79
     0
146
0.0
  0
ENDTAB
  0
TABLE
  2
LTYPE
  5
293
330
0
100
AcDbSymbolTable
 70
     1
  0
LTYPE
  5
2A1
330
293
100
AcDbSymbolTableRecord
100
AcDbLinetypeTableRecord
  2
ByBlock
 70
     0
  3

 72
    65
 73
     0
 40
0.0
  0
LTYPE
  5
2A2
330
293
100
AcDbSymbolTableRecord
100
AcDbLinetypeTableRecord
  2
ByLayer
 70
     0
  3

 72
    65
 73
     0
 40
0.0
  0
LTYPE
  5
2A3
330
293
100
AcDbSymbolTableRecord
100
AcDbLinetypeTableRecord
  2
CONTINUOUS
 70
     0
  3
Solid line
 72
    65
 73
     0
 40
0.0
  0
ENDTAB
  0
TABLE
  2
LAYER
  5
290
330
0
100
AcDbSymbolTable
 70
     2
  0
LAYER
  5
29E
102
{ACAD_XDICTIONARY
360
5D4
102
}
330
290
100
AcDbSymbolTableRecord
100
AcDbLayerTableRecord
  2
0
 70
     0
 62
     7
  6
CONTINUOUS
370
    -3
390
29D
  0
LAYER
  5
2B9
102
{ACAD_XDICTIONARY
360
5DA
102
}
330
290
100
AcDbSymbolTableRecord
100
AcDbLayerTableRecord
  2
1
 70
     0
 62
     7
  6
CONTINUOUS
370
    -3
390
29D
  0
ENDTAB
  0
TABLE
  2
STYLE
  5
291
330
0
100
AcDbSymbolTable
 70
     1
  0
STYLE
  5
29F
330
291
100
AcDbSymbolTableRecord
100
AcDbTextStyleTableRecord
  2
STANDARD
 70
     0
 40
0.0
 41
1.0
 50
0.0
 71
     0
 42
0.0
  3
txt
  4

  0
ENDTAB
  0
TABLE
  2
VIEW
  5
294
330
0
100
AcDbSymbolTable
 70
     0
  0
ENDTAB
  0
TABLE
  2
UCS
  5
295
330
0
100
AcDbSymbolTable
 70
     0
  0
ENDTAB
  0
TABLE
  2
APPID
  5
297
330
0
100
AcDbSymbolTable
 70
     3
  0
APPID
  5
2A0
330
297
100
AcDbSymbolTableRecord
100
AcDbRegAppTableRecord
  2
ACAD
 70
     0
  0
APPID
  5
5BF
330
297
100
AcDbSymbolTableRecord
100
AcDbRegAppTableRecord
  2
ACAD_EXEMPT_FROM_CAD_STANDARDS
 70
     0
  0
APPID
  5
616
330
297
100
AcDbSymbolTableRecord
100
AcDbRegAppTableRecord
  2
ACAD_MLEADERVER
 70
     0
  0
ENDTAB
  0
TABLE
  2
DIMSTYLE
  5
298
330
0
100
AcDbSymbolTable
 70
     1
100
AcDbDimStyleTable
 71
     1
340
2BB
  0
DIMSTYLE
105
2BB
330
298
100
AcDbSymbolTableRecord
100
AcDbDimStyleTableRecord
  2
STANDARD
 70
     0
279
     2
340
29F
  0
ENDTAB
  0
TABLE
  2
BLOCK_RECORD
  5
28F
330
0
100
AcDbSymbolTable
 70
     0
  0
BLOCK_RECORD
  5
2AC
102
{ACAD_XDICTIONARY
360
6CD
102
}
330
28F
100
AcDbSymbolTableRecord
100
AcDbBlockTableRecord
  2
*Model_Space
340
2AF
  0
BLOCK_RECORD
  5
2A8
330
28F
100
AcDbSymbolTableRecord
100
AcDbBlockTableRecord
  2
*Paper_Space
340
2AB
  0
ENDTAB
  0
ENDSEC
  0
SECTION
  2
BLOCKS
  0
BLOCK
  5
2AD
330
2AC
100
AcDbEntity
  8
0
100
AcDbBlockBegin
  2
*Model_Space
 70
     0
 10
0.0
 20
0.0
 30
0.0
  3
*Model_Space
  1

  0
ENDBLK
  5
2AE
330
2AC
100
AcDbEntity
  8
0
100
AcDbBlockEnd
  0
BLOCK
  5
2A9
330
2A8
100
AcDbEntity
 67
     1
  8
0
100
AcDbBlockBegin
  2
*Paper_Space
 70
     0
 10
0.0
 20
0.0
 30
0.0
  3
*Paper_Space
  1

  0
ENDBLK
  5
2AA
330
2A8
100
AcDbEntity
 67
     1
  8
0
100
AcDbBlockEnd
  0
ENDSEC
  0
SECTION
  2
ENTITIES
  0
LINE
  5
392
330
2AC
100
AcDbEntity
  8
1
  6
Continuous
 62
     7
100
AcDbLine
 10
956.063125
 20
728.0720703570327
 30
0.0
 11
967.4796874999996
 21
728.0720703570327
 31
0.0
  0
LINE
  5
393
330
2AC
100
AcDbEntity
  8
1
  6
Continuous
 62
     7
100
AcDbLine
 10
956.063125
 20
657.6037499999999
 30
0.0
 11
956.063125
 21
728.0720703570327
 31
0.0
  0
LINE
  5
39E
330
2AC
100
AcDbEntity
  8
1
  6
Continuous
 62
     7
100
AcDbLine
 10
978.9015624999999
 20
728.0720703570327
 30
0.0
 11
967.4796874999996
 21
728.0720703570327
 31
0.0
  0
LINE
  5
3A1
330
2AC
100
AcDbEntity
  8
1
  6
Continuous
 62
     7
100
AcDbLine
 10
978.9015624999999
 20
728.0720703570327
 30
0.0
 11
988.5756249999998
 21
728.0720703570327
 31
0.0
  0
LINE
  5
3A2
330
2AC
100
AcDbEntity
  8
1
  6
Continuous
 62
     7
100
AcDbLine
 10
978.9015624999999
 20
698.6464976010907
 30
0.0
 11
988.5756249999998
 21
698.6464976010907
 31
0.0
  0
LINE
  5
3A3
330
2AC
100
AcDbEntity
  8
1
  6
Continuous
 62
     7
100
AcDbLine
 10
956.063125
 20
699.6186851010906
 30
0.0
 11
902.5981249999999
 21
702.258997601091
 31
0.0
  0
LINE
  5
3A4
330
2AC
100
AcDbEntity
  8
1
  6
Continuous
 62
     7
100
AcDbLine
 10
902.5981249999999
 20
702.258997601091
 30
0.0
 11
902.5981249999999
 21
728.0720703570327
 31
0.0
  0
LINE
  5
3A5
330
2AC
100
AcDbEntity
  8
1
  6
Continuous
 62
     7
100
AcDbLine
 10
956.063125
 20
728.0720703570327
 30
0.0
 11
902.5981249999999
 21
728.0720703570327
 31
0.0
  0
LINE
  5
3A6
330
2AC
100
AcDbEntity
  8
1
  6
Continuous
 62
     7
100
AcDbLine
 10
902.5981249999999
 20
725.1820703570329
 30
0.0
 11
601.0562633956361
 21
725.1820703570329
 31
0.0
  0
LINE
  5
3A7
330
2AC
100
AcDbEntity
  8
1
  6
Continuous
 62
     7
100
AcDbLine
 10
902.5981249999999
 20
704.4264976010906
 30
0.0
 11
601.0562633956361
 21
704.4264976010906
 31
0.0
  0
LINE
  5
3A8
330
2AC
100
AcDbEntity
  8
1
  6
Continuous
 62
     7
100
AcDbLine
 10
982.0731249999999
 20
719.4020703570329
 30
0.0
 11
992.910625
 21
719.4020703570329
 31
0.0
  0
LINE
  5
3A9
330
2AC
100
AcDbEntity
  8
1
  6
Continuous
 62
     7
100
AcDbLine
 10
992.910625
 20
719.4020703570329
 30
0.0
 11
992.910625
 21
707.3164976010906
 31
0.0
  0
LINE
  5
3AA
330
2AC
100
AcDbEntity
  8
1
  6
Continuous
 62
     7
100
AcDbLine
 10
992.910625
 20
707.3164976010906
 30
0.0
 11
982.0731249999999
 21
707.3164976010906
 31
0.0
  0
LINE
  5
3AB
330
2AC
100
AcDbEntity
  8
1
  6
Continuous
 62
     7
100
AcDbLine
 10
982.0731249999999
 20
707.3164976010906
 30
0.0
 11
982.0731249999999
 21
719.4020703570329
 31
0.0
  0
LINE
  5
3AC
330
2AC
100
AcDbEntity
  8
1
  6
Continuous
 62
     7
100
AcDbLine
 10
982.0731249999999
 20
728.0720703570327
 30
0.0
 11
982.0731249999999
 21
698.6464976010907
 31
0.0
  0
LINE
  5
3AD
330
2AC
100
AcDbEntity
  8
1
  6
Continuous
 62
     7
100
AcDbLine
 10
984.9631249999999
 20
719.4020703570329
 30
0.0
 11
984.9631249999999
 21
728.0720703570327
 31
0.0
  0
LINE
  5
3AE
330
2AC
100
AcDbEntity
  8
1
  6
Continuous
 62
     7
100
AcDbLine
 10
987.1306249999999
 20
719.4020703570329
 30
0.0
 11
987.1306249999999
 21
728.0720703570327
 31
0.0
  0
LINE
  5
3AF
330
2AC
100
AcDbEntity
  8
1
  6
Continuous
 62
     7
100
AcDbLine
 10
988.5756249999998
 20
719.4020703570329
 30
0.0
 11
988.5756249999998
 21
728.0720703570327
 31
0.0
  0
LINE
  5
3B0
330
2AC
100
AcDbEntity
  8
1
  6
Continuous
 62
     7
100
AcDbLine
 10
988.5756249999998
 20
698.6464976010907
 30
0.0
 11
988.5756249999998
 21
707.3164976010906
 31
0.0
  0
LINE
  5
3B1
330
2AC
100
AcDbEntity
  8
1
  6
Continuous
 62
     7
100
AcDbLine
 10
987.1306249999999
 20
698.6464976010907
 30
0.0
 11
987.1306249999999
 21
707.3164976010906
 31
0.0
  0
LINE
  5
3B2
330
2AC
100
AcDbEntity
  8
1
  6
Continuous
 62
     7
100
AcDbLine
 10
984.9631249999999
 20
698.6464976010907
 30
0.0
 11
984.9631249999999
 21
707.3164976010906
 31
0.0
  0
LINE
  5
3B5
330
2AC
100
AcDbEntity
  8
1
  6
Continuous
 62
     7
100
AcDbLine
 10
601.0562633956361
 20
725.1820703570329
 30
0.0
 11
601.0562633956361
 21
704.4264976010906
 31
0.0
  0
LINE
  5
43A
330
2AC
100
AcDbEntity
  8
1
  6
Continuous
 62
     3
100
AcDbLine
 10
550.8425035748416
 20
728.0720703570327
 30
0.0
 11
897.2431249999997
 21
728.0720703570327
 31
0.0
  0
LINE
  5
43B
330
2AC
100
AcDbEntity
  8
1
  6
Continuous
 62
     3
100
AcDbLine
 10
550.6990660748415
 20
544.8937499999998
 30
0.0
 11
783.9230807438988
 21
544.8937499999998
 31
0.0
  0
LINE
  5
43E
330
2AC
100
AcDbEntity
  8
1
  6
Continuous
 62
     3
100
AcDbLine
 10
966.9749999999996
 20
747.9123357646698
 30
0.0
 11
966.9749999999996
 21
857.245507857033
 31
0.0
  0
LINE
  5
43F
330
2AC
100
AcDbEntity
  8
1
  6
Continuous
 62
     3
100
AcDbLine
 10
601.0403258956362
 20
732.4336328570328
 30
0.0
 11
601.0403258956362
 21
857.245507857033
 31
0.0
  0
LINE
  5
440
330
2AC
100
AcDbEntity
  8
1
  6
Continuous
 62
     3
100
AcDbLine
 10
946.8193749999997
 20
849.6858203570329
 30
0.0
 11
621.1959508956365
 21
849.6858203570329
 31
0.0
  0
LINE
  5
441
330
2AC
100
AcDbEntity
  8
1
  6
Continuous
 62
     3
100
AcDbLine
 10
946.8193749999997
 20
855.2586328570329
 30
0.0
 11
946.8193749999997
 21
844.113007857033
 31
0.0
  0
LINE
  5
442
330
2AC
100
AcDbEntity
  8
1
  6
Continuous
 62
     3
100
AcDbLine
 10
966.9749999999996
 20
849.6858203570329
 30
0.0
 11
946.8193749999997
 21
844.113007857033
 31
0.0
  0
LINE
  5
443
330
2AC
100
AcDbEntity
  8
1
  6
Continuous
 62
     3
100
AcDbLine
 10
966.9749999999996
 20
849.6858203570329
 30
0.0
 11
946.8193749999997
 21
855.2586328570329
 31
0.0
  0
LINE
  5
444
330
2AC
100
AcDbEntity
  8
1
  6
Continuous
 62
     3
100
AcDbLine
 10
946.8193749999997
 20
855.2586328570329
 30
0.0
 11
946.8193749999997
 21
844.113007857033
 31
0.0
  0
LINE
  5
445
330
2AC
100
AcDbEntity
  8
1
  6
Continuous
 62
     3
100
AcDbLine
 10
621.1959508956365
 20
844.113007857033
 30
0.0
 11
621.1959508956365
 21
855.2586328570329
 31
0.0
  0
LINE
  5
446
330
2AC
100
AcDbEntity
  8
1
  6
Continuous
 62
     3
100
AcDbLine
 10
601.0403258956362
 20
849.6858203570329
 30
0.0
 11
621.1959508956365
 21
855.2586328570329
 31
0.0
  0
LINE
  5
447
330
2AC
100
AcDbEntity
  8
1
  6
Continuous
 62
     3
100
AcDbLine
 10
601.0403258956362
 20
849.6858203570329
 30
0.0
 11
621.1959508956365
 21
844.113007857033
 31
0.0
  0
LINE
  5
448
330
2AC
100
AcDbEntity
  8
1
  6
Continuous
 62
     3
100
AcDbLine
 10
621.1959508956365
 20
844.113007857033
 30
0.0
 11
621.1959508956365
 21
855.2586328570329
 31
0.0
  0
LINE
  5
449
330
2AC
100
AcDbEntity
  8
1
  6
Continuous
 62
     3
100
AcDbLine
 10
803.4554131802739
 20
470.3157152267444
 30
0.0
 11
803.4554131802739
 21
342.8883410610573
 31
0.0
  0
LINE
  5
44C
330
2AC
100
AcDbEntity
  8
1
  6
Continuous
 62
     3
100
AcDbLine
 10
1108.968647851914
 20
354.8648445706887
 30
0.0
 11
1108.968647851914
 21
343.7192195706888
 31
0.0
  0
LINE
  5
44D
330
2AC
100
AcDbEntity
  8
1
  6
Continuous
 62
     3
100
AcDbLine
 10
1129.124272851915
 20
349.2920320706887
 30
0.0
 11
1108.968647851914
 21
343.7192195706888
 31
0.0
  0
LINE
  5
44E
330
2AC
100
AcDbEntity
  8
1
  6
Continuous
 62
     3
100
AcDbLine
 10
1129.124272851915
 20
349.2920320706887
 30
0.0
 11
1108.968647851914
 21
354.8648445706887
 31
0.0
  0
LINE
  5
44F
330
2AC
100
AcDbEntity
  8
1
  6
Continuous
 62
     3
100
AcDbLine
 10
1108.968647851914
 20
354.8648445706887
 30
0.0
 11
1108.968647851914
 21
343.7192195706888
 31
0.0
  0
LINE
  5
450
330
2AC
100
AcDbEntity
  8
1
  6
Continuous
 62
     3
100
AcDbLine
 10
823.3029131802746
 20
343.8658410610575
 30
0.0
 11
823.3029131802746
 21
355.0114660610574
 31
0.0
  0
LINE
  5
451
330
2AC
100
AcDbEntity
  8
1
  6
Continuous
 62
     3
100
AcDbLine
 10
803.1472881802741
 20
349.4386535610572
 30
0.0
 11
823.3029131802746
 21
355.0114660610574
 31
0.0
  0
LINE
  5
452
330
2AC
100
AcDbEntity
  8
1
  6
Continuous
 62
     3
100
AcDbLine
 10
803.1472881802741
 20
349.4386535610572
 30
0.0
 11
823.3029131802746
 21
343.8658410610575
 31
0.0
  0
LINE
  5
453
330
2AC
100
AcDbEntity
  8
1
  6
Continuous
 62
     3
100
AcDbLine
 10
823.3029131802746
 20
343.8658410610575
 30
0.0
 11
823.3029131802746
 21
355.0114660610574
 31
0.0
  0
LINE
  5
4D1
330
2AC
100
AcDbEntity
  8
1
  6
Continuous
 62
     3
100
AcDbLine
 10
556.1390660748416
 20
701.6108726010907
 30
0.0
 11
567.2846910748416
 21
701.6108726010907
 31
0.0
  0
LINE
  5
4D2
330
2AC
100
AcDbEntity
  8
1
  6
Continuous
 62
     3
100
AcDbLine
 10
561.7118785748413
 20
728.0720703570327
 30
0.0
 11
567.2846910748416
 21
701.6108726010907
 31
0.0
  0
LINE
  5
4D3
330
2AC
100
AcDbEntity
  8
1
  6
Continuous
 62
     3
100
AcDbLine
 10
561.7118785748413
 20
728.0720703570327
 30
0.0
 11
556.1390660748416
 21
701.6108726010907
 31
0.0
  0
LINE
  5
4D4
330
2AC
100
AcDbEntity
  8
1
  6
Continuous
 62
     3
100
AcDbLine
 10
556.1390660748416
 20
701.6108726010907
 30
0.0
 11
567.2846910748416
 21
701.6108726010907
 31
0.0
  0
LINE
  5
4D5
330
2AC
100
AcDbEntity
  8
1
  6
Continuous
 62
     3
100
AcDbLine
 10
567.2846910748416
 20
565.049375
 30
0.0
 11
556.1390660748416
 21
565.049375
 31
0.0
  0
LINE
  5
4D6
330
2AC
100
AcDbEntity
  8
1
  6
Continuous
 62
     3
100
AcDbLine
 10
561.7118785748413
 20
544.8937499999998
 30
0.0
 11
556.1390660748416
 21
565.049375
 31
0.0
  0
LINE
  5
4D7
330
2AC
100
AcDbEntity
  8
1
  6
Continuous
 62
     3
100
AcDbLine
 10
561.7118785748413
 20
544.8937499999998
 30
0.0
 11
567.2846910748416
 21
565.049375
 31
0.0
  0
LINE
  5
4D8
330
2AC
100
AcDbEntity
  8
1
  6
Continuous
 62
     3
100
AcDbLine
 10
567.2846910748416
 20
565.049375
 30
0.0
 11
556.1390660748416
 21
565.049375
 31
0.0
  0
LINE
  5
4D9
330
2AC
100
AcDbEntity
  8
1
  6
Continuous
 62
     3
100
AcDbLine
 10
561.7118785748413
 20
701.6108726010907
 30
0.0
 11
561.7118785748413
 21
650.8056776873537
 31
0.0
  0
LINE
  5
4DA
330
2AC
100
AcDbEntity
  8
1
  6
Continuous
 62
     3
100
AcDbLine
 10
561.7118785748413
 20
616.8056776873537
 30
0.0
 11
561.7118785748413
 21
565.049375
 31
0.0
  0
LINE
  5
507
330
2AC
100
AcDbEntity
  8
1
  6
Continuous
 62
     5
100
AcDbLine
 10
561.7118785748413
 20
633.8056776873537
 30
0.0
 11
567.7118785748412
 21
633.8056776873537
 31
0.0
  0
LINE
  5
508
330
2AC
100
AcDbEntity
  8
1
  6
Continuous
 62
     5
100
AcDbLine
 10
785.4756361970117
 20
866.6858203570331
 30
0.0
 11
792.4756361970117
 21
866.6858203570331
 31
0.0
  0
LINE
  5
51B
330
2AC
100
AcDbEntity
  8
1
  6
Continuous
 62
     3
100
AcDbLine
 10
782.991663180274
 20
355.0114660610574
 30
0.0
 11
782.991663180274
 21
343.8658410610575
 31
0.0
  0
LINE
  5
51C
330
2AC
100
AcDbEntity
  8
1
  6
Continuous
 62
     3
100
AcDbLine
 10
803.1472881802741
 20
349.4386535610572
 30
0.0
 11
782.991663180274
 21
343.8658410610575
 31
0.0
  0
LINE
  5
51D
330
2AC
100
AcDbEntity
  8
1
  6
Continuous
 62
     3
100
AcDbLine
 10
803.1472881802741
 20
349.4386535610572
 30
0.0
 11
782.991663180274
 21
355.0114660610574
 31
0.0
  0
LINE
  5
51E
330
2AC
100
AcDbEntity
  8
1
  6
Continuous
 62
     3
100
AcDbLine
 10
782.991663180274
 20
355.0114660610574
 30
0.0
 11
782.991663180274
 21
343.8658410610575
 31
0.0
  0
LINE
  5
51F
330
2AC
100
AcDbEntity
  8
1
  6
Continuous
 62
     3
100
AcDbLine
 10
782.991663180274
 20
349.4386535610572
 30
0.0
 11
533.7273180681388
 21
349.4386535610572
 31
0.0
  0
LINE
  5
5BC
330
2AC
100
AcDbEntity
  8
1
  6
Continuous
 62
     7
100
AcDbLine
 10
966.975
 20
544.8937499999998
 30
0.0
 11
966.9749999999996
 21
586.1984374999997
 31
0.0
  0
LINE
  5
665
330
2AC
100
AcDbEntity
  8
1
  6
Continuous
 62
     7
100
AcDbLine
 10
978.9015624999999
 20
657.6037499999999
 30
0.0
 11
978.9015624999999
 21
728.0720703570327
 31
0.0
  0
LINE
  5
78D
330
2AC
100
AcDbEntity
  8
1
  6
Continuous
 62
     4
100
AcDbLine
 10
966.975
 20
544.8937499999998
 30
0.0
 11
1112.056466191074
 21
544.8937499999998
 31
0.0
  0
LINE
  5
7BD
330
2AC
100
AcDbEntity
  8
1
  6
Continuous
 62
     3
100
AcDbLine
 10
1129.195192919077
 20
464.4574970588672
 30
0.0
 11
1129.331004262218
 21
341.2231462509448
 31
0.0
  0
LINE
  5
7EC
330
2AC
100
AcDbEntity
  8
1
  6
Continuous
 62
     4
100
AcDbLine
 10
966.9749999999996
 20
739.640736737531
 30
0.0
 11
966.9749999999996
 21
743.4005543326581
 31
0.0
  0
LINE
  5
81B
330
2AC
100
AcDbEntity
  8
1
  6
Continuous
 62
     4
100
AcDbLine
 10
966.9749999999996
 20
650.9090294138721
 30
0.0
 11
966.9749999999996
 21
737.0088633084336
 31
0.0
  0
LINE
  5
BC3
330
2AC
100
AcDbEntity
  8
1
  6
Continuous
 62
     5
100
AcDbLine
 10
966.4067905448483
 20
369.984887891643
 30
0.0
 11
969.4067905448484
 21
369.984887891643
 31
0.0
  0
LINE
  5
BC4
330
2AC
100
AcDbEntity
  8
1
  6
Continuous
 62
     5
100
AcDbLine
 10
966.4067905448483
 20
322.6562844893936
 30
0.0
 11
980.4067905448484
 21
322.6562844893936
 31
0.0
  0
LINE
  5
FC7
330
2AC
100
AcDbEntity
  8
1
  6
Continuous
 62
     4
100
AcDbLine
 10
966.975
 20
544.8937499999998
 30
0.0
 11
1104.1065625
 21
544.8937499999998
 31
0.0
  0
LINE
  5
FC9
330
2AC
100
AcDbEntity
  8
1
  6
Continuous
 62
     4
100
AcDbLine
 10
940.0406249999999
 20
650.0812499999997
 30
0.0
 11
951.4359374999999
 21
638.6859374999994
 31
0.0
  0
LINE
  5
FCA
330
2AC
100
AcDbEntity
  8
1
  6
Continuous
 62
     4
100
AcDbLine
 10
925.4732798880846
 20
646.6123399118092
 30
0.0
 11
948.434375
 21
623.6462500000002
 31
0.0
  0
LINE
  5
FCB
330
2AC
100
AcDbEntity
  8
1
  6
Continuous
 62
     4
100
AcDbLine
 10
909.2955127118647
 20
635.7444872881357
 30
0.0
 11
938.22375
 21
606.8162499999997
 31
0.0
  0
LINE
  5
FCC
330
2AC
100
AcDbEntity
  8
1
  6
Continuous
 62
     4
100
AcDbLine
 10
904.7873295587379
 20
631.2373579412626
 30
0.0
 11
932.6775000000003
 21
603.3471875000001
 31
0.0
  0
LINE
  5
FCD
330
2AC
100
AcDbEntity
  8
1
  6
Continuous
 62
     4
100
AcDbLine
 10
900.2791464056118
 20
626.7302285943896
 30
0.0
 11
927.13125
 21
599.8781249999997
 31
0.0
  0
LINE
  5
FCE
330
2AC
100
AcDbEntity
  8
1
  6
Continuous
 62
     4
100
AcDbLine
 10
895.7694120871734
 20
622.2215484447972
 30
0.0
 11
921.5850000000003
 21
596.4143749999998
 31
0.0
  0
LINE
  5
FCF
330
2AC
100
AcDbEntity
  8
1
  6
Continuous
 62
     4
100
AcDbLine
 10
890.7314561319989
 20
618.2472938680017
 30
0.0
 11
914.2324999999997
 21
594.7462500000001
 31
0.0
  0
LINE
  5
FD0
330
2AC
100
AcDbEntity
  8
1
  6
Continuous
 62
     4
100
AcDbLine
 10
885.0475329203254
 20
614.9169772418282
 30
0.0
 11
905.2118750000003
 21
594.7462500000001
 31
0.0
  0
LINE
  5
FD1
330
2AC
100
AcDbEntity
  8
1
  6
Continuous
 62
     4
100
AcDbLine
 10
878.7877913899841
 20
612.1603336100161
 30
0.0
 11
897.0625
 21
593.8856249999997
 31
0.0
  0
LINE
  5
FD2
330
2AC
100
AcDbEntity
  8
1
  6
Continuous
 62
     4
100
AcDbLine
 10
871.8333774933919
 20
610.0993750000001
 30
0.0
 11
895.7890483856372
 21
586.13794553302
 31
0.0
  0
LINE
  5
FD3
330
2AC
100
AcDbEntity
  8
1
  6
Continuous
 62
     4
100
AcDbLine
 10
807.6584375000003
 20
618.3284374999998
 30
0.0
 11
836.6879354909594
 21
589.2989395090411
 31
0.0
  0
LINE
  5
FD4
330
2AC
100
AcDbEntity
  8
1
  6
Continuous
 62
     4
100
AcDbLine
 10
804.0475
 20
612.91875
 30
0.0
 11
827.163597163182
 21
589.802652836818
 31
0.0
  0
LINE
  5
FD5
330
2AC
100
AcDbEntity
  8
1
  6
Continuous
 62
     4
100
AcDbLine
 10
803.4089394208224
 20
604.5473105791777
 30
0.0
 11
817.6504771373224
 21
590.3057728626777
 31
0.0
  0
LINE
  5
FD6
330
2AC
100
AcDbEntity
  8
1
  6
Continuous
 62
     4
100
AcDbLine
 10
803.4089394208224
 20
595.5266855791775
 30
0.0
 11
808.126138809545
 21
590.8094861904547
 31
0.0
  0
LINE
  5
FD7
330
2AC
100
AcDbEntity
  8
1
  6
Continuous
 62
     4
100
AcDbLine
 10
807.6584375000003
 20
645.3743750000001
 30
0.0
 11
837.4241186444454
 21
615.6086938555547
 31
0.0
  0
LINE
  5
FD8
330
2AC
100
AcDbEntity
  8
1
  6
Continuous
 62
     4
100
AcDbLine
 10
807.6584375000003
 20
654.3894731306177
 30
0.0
 11
836.5584375000002
 21
625.495
 31
0.0
  0
LINE
  5
FD9
330
2AC
100
AcDbEntity
  8
1
  6
Continuous
 62
     4
100
AcDbLine
 10
814.7946874999997
 20
656.2687499999996
 30
0.0
 11
836.5584375000002
 21
634.5050000000001
 31
0.0
  0
LINE
  5
FDA
330
2AC
100
AcDbEntity
  8
1
  6
Continuous
 62
     4
100
AcDbLine
 10
823.808364231189
 20
656.2687499999997
 30
0.0
 11
836.5584375000002
 21
643.5256249999997
 31
0.0
  0
LINE
  5
FDB
330
2AC
100
AcDbEntity
  8
1
  6
Continuous
 62
     4
100
AcDbLine
 10
918.3443750000003
 20
495.0412499999996
 30
0.0
 11
966.975
 21
446.4106249999995
 31
0.0
  0
LINE
  5
FDC
330
2AC
100
AcDbEntity
  8
1
  6
Continuous
 62
     4
100
AcDbLine
 10
909.3237500000004
 20
495.0412499999996
 30
0.0
 11
964.6481250000006
 21
439.7168750000001
 31
0.0
  0
LINE
  5
FDD
330
2AC
100
AcDbEntity
  8
1
  6
Continuous
 62
     4
100
AcDbLine
 10
883.3765932009381
 20
502.9577817990616
 30
0.0
 11
946.6175000000003
 21
439.7168750000001
 31
0.0
  0
LINE
  5
FDE
330
2AC
100
AcDbEntity
  8
1
  6
Continuous
 62
     4
100
AcDbLine
 10
900.3084375000003
 20
495.0412499999996
 30
0.0
 11
955.6328124999991
 21
439.7168750000001
 31
0.0
  0
LINE
  5
FDF
330
2AC
100
AcDbEntity
  8
1
  6
Continuous
 62
     4
100
AcDbLine
 10
874.8090780565169
 20
502.5046719434834
 30
0.0
 11
937.5968750000007
 21
439.7168750000001
 31
0.0
  0
LINE
  5
FE0
330
2AC
100
AcDbEntity
  8
1
  6
Continuous
 62
     4
100
AcDbLine
 10
866.2464989915529
 20
502.0518231421566
 30
0.0
 11
924.8437912227124
 21
443.4678333609933
 31
0.0
  0
LINE
  5
FE1
330
2AC
100
AcDbEntity
  8
1
  6
Continuous
 62
     4
100
AcDbLine
 10
857.7393750000004
 20
501.5437499999999
 30
0.0
 11
883.8723006405324
 21
475.4169330377386
 31
0.0
  0
LINE
  5
FE2
330
2AC
100
AcDbEntity
  8
1
  6
Continuous
 62
     4
100
AcDbLine
 10
822.6503830752534
 20
499.7461569771586
 30
0.0
 11
843.2179236113052
 21
479.1786164411065
 31
0.0
  0
LINE
  5
FE3
330
2AC
100
AcDbEntity
  8
1
  6
Continuous
 62
     4
100
AcDbLine
 10
813.1113106413579
 20
499.2416644072579
 30
0.0
 11
837.7332654031965
 21
474.6247894792883
 31
0.0
  0
LINE
  5
FE4
330
2AC
100
AcDbEntity
  8
1
  6
Continuous
 62
     4
100
AcDbLine
 10
804.5483899610662
 20
498.7887975389338
 30
0.0
 11
836.5584375000002
 21
466.7787499999998
 31
0.0
  0
LINE
  5
FE5
330
2AC
100
AcDbEntity
  8
1
  6
Continuous
 62
     4
100
AcDbLine
 10
803.4089394208224
 20
490.9182480791772
 30
0.0
 11
836.5584375000002
 21
457.7687499999998
 31
0.0
  0
LINE
  5
FE6
330
2AC
100
AcDbEntity
  8
1
  6
Continuous
 62
     4
100
AcDbLine
 10
803.4089394208224
 20
481.897623079178
 30
0.0
 11
836.5584375000002
 21
448.748125
 31
0.0
  0
LINE
  5
FE7
330
2AC
100
AcDbEntity
  8
1
  6
Continuous
 62
     4
100
AcDbLine
 10
807.6584375000003
 20
468.6381249999998
 30
0.0
 11
836.5584375000002
 21
439.7381249999998
 31
0.0
  0
LINE
  5
FE8
330
2AC
100
AcDbEntity
  8
1
  6
Continuous
 62
     4
100
AcDbLine
 10
807.6584375000003
 20
459.6175
 30
0.0
 11
833.7571875000003
 21
433.5187499999998
 31
0.0
  0
LINE
  5
FE9
330
2AC
100
AcDbEntity
  8
1
  6
Continuous
 62
     4
100
AcDbLine
 10
807.6584375000003
 20
450.6075000000001
 30
0.0
 11
824.7407437782809
 21
433.5187499999998
 31
0.0
  0
LINE
  5
FEA
330
2AC
100
AcDbEntity
  8
1
  6
Continuous
 62
     4
100
AcDbLine
 10
807.6584375000003
 20
441.5868749999996
 30
0.0
 11
815.7265624999997
 21
433.5187499999998
 31
0.0
  0
LINE
  5
FEB
330
2AC
100
AcDbEntity
  8
1
  6
Continuous
 62
     4
100
AcDbLine
 10
939.2216352249716
 20
603.3620449248786
 30
0.0
 11
922.0416170422856
 21
586.1762324696177
 31
0.0
  0
LINE
  5
FEC
330
2AC
100
AcDbEntity
  8
1
  6
Continuous
 62
     4
100
AcDbLine
 10
952.974248597488
 20
608.0942485974873
 30
0.0
 11
931.0562324696183
 21
586.1762324696178
 31
0.0
  0
LINE
  5
FED
330
2AC
100
AcDbEntity
  8
1
  6
Continuous
 62
     4
100
AcDbLine
 10
963.4200472314946
 20
609.5194222314927
 30
0.0
 11
940.0768574696181
 21
586.1762324696179
 31
0.0
  0
LINE
  5
FEE
330
2AC
100
AcDbEntity
  8
1
  6
Continuous
 62
     4
100
AcDbLine
 10
966.9749999999996
 20
604.0643749999986
 30
0.0
 11
949.0868574696193
 21
586.1762324696179
 31
0.0
  0
LINE
  5
FEF
330
2AC
100
AcDbEntity
  8
1
  6
Continuous
 62
     4
100
AcDbLine
 10
925.7775175303818
 20
503.6112675303816
 30
0.0
 11
921.0378125000003
 21
498.8715624999996
 31
0.0
  0
LINE
  5
FF0
330
2AC
100
AcDbEntity
  8
1
  6
Continuous
 62
     4
100
AcDbLine
 10
934.7997219937351
 20
503.6112675303816
 30
0.0
 11
925.9207244856815
 21
494.73904788302
 31
0.0
  0
LINE
  5
FF1
330
2AC
100
AcDbEntity
  8
1
  6
Continuous
 62
     4
100
AcDbLine
 10
943.8144735119236
 20
503.6112675303813
 30
0.0
 11
931.1273527183086
 21
490.9303934727557
 31
0.0
  0
LINE
  5
FF2
330
2AC
100
AcDbEntity
  8
1
  6
Continuous
 62
     4
100
AcDbLine
 10
952.8295439169877
 20
503.6112675303813
 30
0.0
 11
936.7751631532634
 21
487.5629131858631
 31
0.0
  0
LINE
  5
FF3
330
2AC
100
AcDbEntity
  8
1
  6
Continuous
 62
     4
100
AcDbLine
 10
961.8447261296095
 20
503.6112675303813
 30
0.0
 11
942.9292110918384
 21
484.7016617444181
 31
0.0
  0
LINE
  5
FF5
330
2AC
100
AcDbEntity
  8
1
  6
Continuous
 62
     4
100
AcDbLine
 10
932.2659545598863
 20
648.8352954401131
 30
0.0
 11
951.4359374999999
 21
629.6653125
 31
0.0
  0
LINE
  5
FF6
330
2AC
100
AcDbEntity
  8
1
  6
Continuous
 62
     4
100
AcDbLine
 10
803.4089394208224
 20
544.8937499999998
 30
0.0
 11
948.0717774691903
 21
544.8937499999998
 31
0.0
  0
LINE
  5
FF8
330
2AC
100
AcDbEntity
  8
1
  6
Continuous
 62
     4
100
AcDbLine
 10
966.9749999999996
 20
595.4641891016926
 30
0.0
 11
957.6870433679248
 21
586.1762324696181
 31
0.0
  0
LINE
  5
FF9
330
2AC
100
AcDbEntity
  8
1
  6
Continuous
 62
     4
100
AcDbLine
 10
966.975
 20
499.8819106949461
 30
0.0
 11
949.6020608201304
 21
482.514398862524
 31
0.0
  0
LINE
  5
FFA
330
2AC
100
AcDbEntity
  8
1
  6
Continuous
 62
     4
100
AcDbLine
 10
966.975
 20
490.2422902196918
 30
0.0
 11
957.3166752517645
 21
480.5869827550392
 31
0.0
  0
LINE
  5
FFD
330
2AC
100
AcDbEntity
  8
1
  6
Continuous
 62
     4
100
AcDbLine
 10
862.8180049867832
 20
610.0993750000001
 30
0.0
 11
886.2331054112202
 21
586.6786459456526
 31
0.0
  0
LINE
  5
FFE
330
2AC
100
AcDbEntity
  8
1
  6
Continuous
 62
     4
100
AcDbLine
 10
853.8026324801746
 20
610.0993750000001
 30
0.0
 11
876.71444061649
 21
587.1820592174977
 31
0.0
  0
LINE
  5
FFF
330
2AC
100
AcDbEntity
  8
1
  6
Continuous
 62
     4
100
AcDbLine
 10
844.5123860975796
 20
610.3743149514372
 30
0.0
 11
867.1957758217596
 21
587.685472489343
 31
0.0
  0
LINE
  5
1000
330
2AC
100
AcDbEntity
  8
1
  6
Continuous
 62
     4
100
AcDbLine
 10
807.6584375000003
 20
637.2368110443864
 30
0.0
 11
856.6397241966232
 21
588.2437499999997
 31
0.0
  0
LINE
  5
1001
330
2AC
100
AcDbEntity
  8
1
  6
Continuous
 62
     4
100
AcDbLine
 10
807.6584375000003
 20
627.4804129531587
 30
0.0
 11
846.3411409355323
 21
588.7884107908392
 31
0.0
  0
LINE
  5
1002
330
2AC
100
AcDbEntity
  8
1
  6
Continuous
 62
     4
100
AcDbLine
 10
849.7456439114815
 20
501.1791430317379
 30
0.0
 11
871.5371378256492
 21
479.3927429684162
 31
0.0
  0
LINE
  5
1003
330
2AC
100
AcDbEntity
  8
1
  6
Continuous
 62
     4
100
AcDbLine
 10
840.3415970408568
 20
500.6817915537925
 30
0.0
 11
861.3295446132498
 21
479.6987500000001
 31
0.0
  0
LINE
  5
1004
330
2AC
100
AcDbEntity
  8
1
  6
Continuous
 62
     4
100
AcDbLine
 10
831.4260669597016
 20
500.2102762451671
 30
0.0
 11
851.9423889790676
 21
479.6987500000001
 31
0.0
  0
LINE
  5
1005
330
2AC
100
AcDbEntity
  8
1
  6
Continuous
 62
     7
100
AcDbLine
 10
1125.781562499999
 20
656.2687499999997
 30
0.0
 11
1100.536562499998
 21
656.2687499999997
 31
0.0
  0
LINE
  5
1007
330
2AC
100
AcDbEntity
  8
1
  6
Continuous
 62
     7
100
AcDbLine
 10
1125.781562499999
 20
656.2687499999997
 30
0.0
 11
1096.881562499999
 21
656.2687499999997
 31
0.0
  0
LINE
  5
100A
330
2AC
100
AcDbEntity
  8
1
  6
Continuous
 62
     7
100
AcDbLine
 10
1125.781562499999
 20
433.5187499999998
 30
0.0
 11
1100.536562499998
 21
433.5187499999998
 31
0.0
  0
LINE
  5
100B
330
2AC
100
AcDbEntity
  8
1
  6
Continuous
 62
     7
100
AcDbLine
 10
1129.43596115035
 20
612.9942817110817
 30
0.0
 11
1129.43596115035
 21
474.2711858173481
 31
0.0
  0
LINE
  5
100C
330
2AC
100
AcDbEntity
  8
1
  6
Continuous
 62
     7
100
AcDbLine
 10
1129.43596115035
 20
474.2711858173481
 30
0.0
 11
1125.781562499999
 21
474.2711858173481
 31
0.0
  0
LINE
  5
100D
330
2AC
100
AcDbEntity
  8
1
  6
Continuous
 62
     7
100
AcDbLine
 10
1125.781562499999
 20
433.5187499999998
 30
0.0
 11
1096.881562499999
 21
433.5187499999998
 31
0.0
  0
LINE
  5
1010
330
2AC
100
AcDbEntity
  8
1
  6
Continuous
 62
     7
100
AcDbLine
 10
966.9749999999996
 20
650.0812499999997
 30
0.0
 11
1010.324999999997
 21
650.0812499999997
 31
0.0
  0
LINE
  5
1011
330
2AC
100
AcDbEntity
  8
1
  6
Continuous
 62
     7
100
AcDbLine
 10
947.8234374999997
 20
657.5984374999998
 30
0.0
 11
985.3615624999994
 21
657.5984374999998
 31
0.0
  0
LINE
  5
1012
330
2AC
100
AcDbEntity
  8
1
  6
Continuous
 62
     7
100
AcDbLine
 10
985.3615624999994
 20
657.5984374999998
 30
0.0
 11
985.3615624999994
 21
650.0812499999997
 31
0.0
  0
LINE
  5
1014
330
2AC
100
AcDbEntity
  8
1
  6
Continuous
 62
     7
100
AcDbLine
 10
1096.881562499999
 20
656.2687499999997
 30
0.0
 11
1096.881562499999
 21
433.5187499999998
 31
0.0
  0
LINE
  5
1015
330
2AC
100
AcDbEntity
  8
1
  6
Continuous
 62
     7
100
AcDbLine
 10
1125.781562499999
 20
433.5187499999998
 30
0.0
 11
1125.781562499999
 21
656.2687499999997
 31
0.0
  0
LINE
  5
1017
330
2AC
100
AcDbEntity
  8
1
  6
Continuous
 62
     7
100
AcDbLine
 10
1010.324999999997
 20
574.0859374999997
 30
0.0
 11
1010.324999999997
 21
439.7168750000001
 31
0.0
  0
LINE
  5
1018
330
2AC
100
AcDbEntity
  8
1
  6
Continuous
 62
     7
100
AcDbLine
 10
895.8512500000002
 20
588.2437499999997
 30
0.0
 11
897.2484374999996
 21
594.7462500000001
 31
0.0
  0
LINE
  5
1019
330
2AC
100
AcDbEntity
  8
1
  6
Continuous
 62
     7
100
AcDbLine
 10
897.2484374999996
 20
594.7462500000001
 30
0.0
 11
918.9234374999998
 21
594.7462500000001
 31
0.0
  0
LINE
  5
101A
330
2AC
100
AcDbEntity
  8
1
  6
Continuous
 62
     7
100
AcDbLine
 10
918.9234374999998
 20
594.7462500000001
 30
0.0
 11
954.7594375000008
 21
617.1437499999997
 31
0.0
  0
LINE
  5
101B
330
2AC
100
AcDbEntity
  8
1
  6
Continuous
 62
     7
100
AcDbLine
 10
895.8512500000002
 20
501.5437499999999
 30
0.0
 11
897.2484374999996
 21
495.0412499999996
 31
0.0
  0
LINE
  5
101C
330
2AC
100
AcDbEntity
  8
1
  6
Continuous
 62
     7
100
AcDbLine
 10
897.2484374999996
 20
495.0412499999996
 30
0.0
 11
918.9234374999998
 21
495.0412499999996
 31
0.0
  0
LINE
  5
101E
330
2AC
100
AcDbEntity
  8
1
  6
Continuous
 62
     7
100
AcDbLine
 10
917.4784374999997
 20
592.5787499999997
 30
0.0
 11
909.5309375000006
 21
592.5787499999997
 31
0.0
  0
LINE
  5
101F
330
2AC
100
AcDbEntity
  8
1
  6
Continuous
 62
     7
100
AcDbLine
 10
909.5309375000006
 20
592.5787499999997
 30
0.0
 11
909.5309375000006
 21
589.68875
 31
0.0
  0
LINE
  5
1020
330
2AC
100
AcDbEntity
  8
1
  6
Continuous
 62
     7
100
AcDbLine
 10
909.5309375000006
 20
589.68875
 30
0.0
 11
916.0334375000003
 21
589.68875
 31
0.0
  0
LINE
  5
1021
330
2AC
100
AcDbEntity
  8
1
  6
Continuous
 62
     7
100
AcDbLine
 10
917.6749999999996
 20
594.7462500000001
 30
0.0
 11
917.4784374999997
 21
592.5787499999997
 31
0.0
  0
LINE
  5
1022
330
2AC
100
AcDbEntity
  8
1
  6
Continuous
 62
     7
100
AcDbLine
 10
916.0334375000003
 20
589.68875
 30
0.0
 11
914.9496875000004
 21
588.2437499999997
 31
0.0
  0
LINE
  5
1023
330
2AC
100
AcDbEntity
  8
1
  6
Continuous
 62
     7
100
AcDbLine
 10
917.4784374999997
 20
497.2087499999998
 30
0.0
 11
909.5309375000006
 21
497.2087499999998
 31
0.0
  0
LINE
  5
1024
330
2AC
100
AcDbEntity
  8
1
  6
Continuous
 62
     7
100
AcDbLine
 10
909.5309375000006
 20
497.2087499999998
 30
0.0
 11
909.5309375000006
 21
500.0987499999998
 31
0.0
  0
LINE
  5
1025
330
2AC
100
AcDbEntity
  8
1
  6
Continuous
 62
     7
100
AcDbLine
 10
909.5309375000006
 20
500.0987499999998
 30
0.0
 11
916.0334375000003
 21
500.0987499999998
 31
0.0
  0
LINE
  5
1026
330
2AC
100
AcDbEntity
  8
1
  6
Continuous
 62
     7
100
AcDbLine
 10
917.6749999999996
 20
495.0412499999996
 30
0.0
 11
917.4784374999997
 21
497.2087499999998
 31
0.0
  0
LINE
  5
1027
330
2AC
100
AcDbEntity
  8
1
  6
Continuous
 62
     7
100
AcDbLine
 10
916.0334375000003
 20
500.0987499999998
 30
0.0
 11
914.9496875000004
 21
501.5437499999999
 31
0.0
  0
LINE
  5
1028
330
2AC
100
AcDbEntity
  8
1
  6
Continuous
 62
     7
100
AcDbLine
 10
899.4159374999997
 20
495.0412499999996
 30
0.0
 11
899.4159374999997
 21
594.7462500000001
 31
0.0
  0
LINE
  5
1029
330
2AC
100
AcDbEntity
  8
1
  6
Continuous
 62
     7
100
AcDbLine
 10
895.8512500000002
 20
501.5437499999999
 30
0.0
 11
895.7874999999997
 21
588.2437499999997
 31
0.0
  0
LINE
  5
102A
330
2AC
100
AcDbEntity
  8
1
  6
Continuous
 62
     7
100
AcDbLine
 10
917.1755548985201
 20
586.1762324696177
 30
0.0
 11
917.1755548985201
 21
503.6112675303816
 31
0.0
  0
LINE
  5
102C
330
2AC
100
AcDbEntity
  8
1
  6
Continuous
 62
     7
100
AcDbLine
 10
803.4089394208224
 20
612.9187500000001
 30
0.0
 11
807.6584375000003
 21
612.9187500000001
 31
0.0
  0
LINE
  5
1030
330
2AC
100
AcDbEntity
  8
1
  6
Continuous
 62
     7
100
AcDbLine
 10
803.4089394208224
 20
476.8687499999998
 30
0.0
 11
807.6584375000003
 21
476.8687499999996
 31
0.0
  0
LINE
  5
1031
330
2AC
100
AcDbEntity
  8
1
  6
Continuous
 62
     7
100
AcDbLine
 10
807.6584375000003
 20
433.5187499999998
 30
0.0
 11
836.5584375000002
 21
433.5187499999998
 31
0.0
  0
LINE
  5
1032
330
2AC
100
AcDbEntity
  8
1
  6
Continuous
 62
     7
100
AcDbLine
 10
1040.389602712763
 20
446.4189664744098
 30
0.0
 11
1040.389602712763
 21
475.3189664744095
 31
0.0
  0
LINE
  5
1033
330
2AC
100
AcDbEntity
  8
1
  6
Continuous
 62
     7
100
AcDbLine
 10
1040.389602712763
 20
475.3189664744095
 30
0.0
 11
1052.672102712761
 21
475.3189664744095
 31
0.0
  0
LINE
  5
1034
330
2AC
100
AcDbEntity
  8
1
  6
Continuous
 62
     7
100
AcDbLine
 10
1052.672102712761
 20
475.3189664744095
 30
0.0
 11
1052.672102712761
 21
446.4189664744098
 31
0.0
  0
LINE
  5
1035
330
2AC
100
AcDbEntity
  8
1
  6
Continuous
 62
     7
100
AcDbLine
 10
1052.672102712761
 20
446.4189664744098
 30
0.0
 11
1040.389602712763
 21
446.4189664744098
 31
0.0
  0
LINE
  5
1036
330
2AC
100
AcDbEntity
  8
1
  6
Continuous
 62
     7
100
AcDbLine
 10
1052.672102712761
 20
469.5389664744097
 30
0.0
 11
1040.389602712763
 21
469.5389664744097
 31
0.0
  0
LINE
  5
1037
330
2AC
100
AcDbEntity
  8
1
  6
Continuous
 62
     7
100
AcDbLine
 10
1052.672102712761
 20
452.1989664744098
 30
0.0
 11
1040.389602712763
 21
452.1989664744098
 31
0.0
  0
LINE
  5
1038
330
2AC
100
AcDbEntity
  8
1
  6
Continuous
 62
     7
100
AcDbLine
 10
917.4784374999997
 20
592.5787499999997
 30
0.0
 11
921.3794848161423
 21
592.5787499999997
 31
0.0
  0
LINE
  5
1039
330
2AC
100
AcDbEntity
  8
1
  6
Continuous
 62
     7
100
AcDbLine
 10
916.0334375000003
 20
589.68875
 30
0.0
 11
918.4919767419341
 21
589.6887500000001
 31
0.0
  0
LINE
  5
103A
330
2AC
100
AcDbEntity
  8
1
  6
Continuous
 62
     7
100
AcDbLine
 10
916.0334375000003
 20
500.0987499999998
 30
0.0
 11
918.5538002537219
 21
500.0987499999998
 31
0.0
  0
LINE
  5
103B
330
2AC
100
AcDbEntity
  8
1
  6
Continuous
 62
     7
100
AcDbLine
 10
917.4784374999997
 20
497.2087499999998
 30
0.0
 11
921.4413083279307
 21
497.2087499999997
 31
0.0
  0
LINE
  5
103F
330
2AC
100
AcDbEntity
  8
1
  6
Continuous
 62
     7
100
AcDbLine
 10
946.5590625000006
 20
612.0185156249997
 30
0.0
 11
946.5590625000006
 21
623.6462500000002
 31
0.0
  0
LINE
  5
1040
330
2AC
100
AcDbEntity
  8
1
  6
Continuous
 62
     7
100
AcDbLine
 10
951.4359374999996
 20
630.1487499999998
 30
0.0
 11
952.8809375000006
 21
630.1487499999998
 31
0.0
  0
LINE
  5
1041
330
2AC
100
AcDbEntity
  8
1
  6
Continuous
 62
     7
100
AcDbLine
 10
952.8809375000006
 20
630.1487499999998
 30
0.0
 11
952.8809375000006
 21
635.2062499999997
 31
0.0
  0
LINE
  5
1042
330
2AC
100
AcDbEntity
  8
1
  6
Continuous
 62
     7
100
AcDbLine
 10
952.8809375000006
 20
635.2062499999997
 30
0.0
 11
951.4359374999996
 21
635.2062499999997
 31
0.0
  0
LINE
  5
1043
330
2AC
100
AcDbEntity
  8
1
  6
Continuous
 62
     7
100
AcDbLine
 10
951.4359374999996
 20
635.2062499999997
 30
0.0
 11
951.4359374999996
 21
657.5984374999998
 31
0.0
  0
LINE
  5
1044
330
2AC
100
AcDbEntity
  8
1
  6
Continuous
 62
     7
100
AcDbLine
 10
952.8809375000006
 20
635.2062499999997
 30
0.0
 11
966.4703124999997
 21
635.2062499999997
 31
0.0
  0
LINE
  5
1045
330
2AC
100
AcDbEntity
  8
1
  6
Continuous
 62
     7
100
AcDbLine
 10
952.8809375000006
 20
630.1487499999998
 30
0.0
 11
966.4703124999997
 21
630.1487499999998
 31
0.0
  0
LINE
  5
1046
330
2AC
100
AcDbEntity
  8
1
  6
Continuous
 62
     7
100
AcDbLine
 10
946.5590625000006
 20
623.6462500000002
 30
0.0
 11
966.4703124999997
 21
623.6462500000002
 31
0.0
  0
LINE
  5
1047
330
2AC
100
AcDbEntity
  8
1
  6
Continuous
 62
     7
100
AcDbLine
 10
954.7594375000008
 20
617.1437499999997
 30
0.0
 11
966.4703124999997
 21
617.1437499999997
 31
0.0
  0
LINE
  5
1048
330
2AC
100
AcDbEntity
  8
1
  6
Continuous
 62
     7
100
AcDbLine
 10
951.4359374999996
 20
623.6462500000002
 30
0.0
 11
951.4359374999996
 21
630.1487499999998
 31
0.0
  0
LINE
  5
1049
330
2AC
100
AcDbEntity
  8
1
  6
Continuous
 62
     7
100
AcDbLine
 10
947.8234374999997
 20
642.4312499999997
 30
0.0
 11
947.8234374999997
 21
651.1012499999998
 31
0.0
  0
LINE
  5
104A
330
2AC
100
AcDbEntity
  8
1
  6
Continuous
 62
     7
100
AcDbLine
 10
947.8234374999997
 20
651.1012499999998
 30
0.0
 11
949.2684375000006
 21
651.1012499999998
 31
0.0
  0
LINE
  5
104B
330
2AC
100
AcDbEntity
  8
1
  6
Continuous
 62
     7
100
AcDbLine
 10
949.2684375000006
 20
651.1012499999998
 30
0.0
 11
949.2684375000006
 21
653.9912499999998
 31
0.0
  0
LINE
  5
104C
330
2AC
100
AcDbEntity
  8
1
  6
Continuous
 62
     7
100
AcDbLine
 10
949.2684375000006
 20
653.9912499999998
 30
0.0
 11
947.8234374999997
 21
653.9912499999998
 31
0.0
  0
LINE
  5
104D
330
2AC
100
AcDbEntity
  8
1
  6
Continuous
 62
     7
100
AcDbLine
 10
947.8234374999997
 20
653.9912499999998
 30
0.0
 11
947.8234374999997
 21
657.5984374999998
 31
0.0
  0
LINE
  5
104E
330
2AC
100
AcDbEntity
  8
1
  6
Continuous
 62
     7
100
AcDbLine
 10
949.2684375000006
 20
653.9912499999998
 30
0.0
 11
951.4359374999996
 21
653.9912499999998
 31
0.0
  0
LINE
  5
104F
330
2AC
100
AcDbEntity
  8
1
  6
Continuous
 62
     7
100
AcDbLine
 10
947.8234374999997
 20
646.0437499999998
 30
0.0
 11
951.4359374999996
 21
646.0437499999998
 31
0.0
  0
LINE
  5
1050
330
2AC
100
AcDbEntity
  8
1
  6
Continuous
 62
     7
100
AcDbLine
 10
951.4359374999996
 20
642.4312499999997
 30
0.0
 11
947.8234374999997
 21
642.4312499999997
 31
0.0
  0
LINE
  5
1056
330
2AC
100
AcDbEntity
  8
1
  6
Continuous
 62
     7
100
AcDbLine
 10
947.8234374999997
 20
648.9337500000001
 30
0.0
 11
951.4359374999996
 21
648.9337500000001
 31
0.0
  0
LINE
  5
105C
330
2AC
100
AcDbEntity
  8
1
  6
Continuous
 62
     7
100
AcDbLine
 10
966.9749999999996
 20
439.7168749999996
 30
0.0
 11
966.9749999999996
 21
590.4071945010213
 31
0.0
  0
LINE
  5
1060
330
2AC
100
AcDbEntity
  8
1
  6
Continuous
 62
     7
100
AcDbLine
 10
966.9749999999996
 20
439.7168750000001
 30
0.0
 11
966.9749999999996
 21
650.0812499999997
 31
0.0
  0
LINE
  5
1063
330
2AC
100
AcDbEntity
  8
1
  6
Continuous
 62
     7
100
AcDbLine
 10
803.4089394208224
 20
612.9187500000001
 30
0.0
 11
803.4089394208224
 21
476.8687499999998
 31
0.0
  0
LINE
  5
1064
330
2AC
100
AcDbEntity
  8
1
  6
Continuous
 62
     7
100
AcDbLine
 10
836.5584375000002
 20
656.2687499999997
 30
0.0
 11
807.6584375000003
 21
656.2687499999996
 31
0.0
  0
LINE
  5
1065
330
2AC
100
AcDbEntity
  8
1
  6
Continuous
 62
     7
100
AcDbLine
 10
807.6584375000003
 20
612.9187500000001
 30
0.0
 11
807.6584375000003
 21
656.2687499999996
 31
0.0
  0
LINE
  5
1066
330
2AC
100
AcDbEntity
  8
1
  6
Continuous
 62
     7
100
AcDbLine
 10
807.6584375000003
 20
433.5187499999998
 30
0.0
 11
807.6584375000003
 21
476.8687499999996
 31
0.0
  0
LINE
  5
106B
330
2AC
100
AcDbEntity
  8
1
  6
Continuous
 62
     7
100
AcDbLine
 10
1010.324999999997
 20
650.0812499999997
 30
0.0
 11
1039.224999999998
 21
650.0812499999997
 31
0.0
  0
LINE
  5
106D
330
2AC
100
AcDbEntity
  8
1
  6
Continuous
 62
     7
100
AcDbLine
 10
1010.324999999997
 20
439.7168750000001
 30
0.0
 11
1035.569999999998
 21
439.7168750000001
 31
0.0
  0
LINE
  5
106E
330
2AC
100
AcDbEntity
  8
1
  6
Continuous
 62
     7
100
AcDbLine
 10
1010.324999999997
 20
439.7168750000001
 30
0.0
 11
1039.224999999998
 21
439.7168750000001
 31
0.0
  0
LINE
  5
1070
330
2AC
100
AcDbEntity
  8
1
  6
Continuous
 62
     7
100
AcDbLine
 10
1039.224999999998
 20
650.0812499999997
 30
0.0
 11
1039.224999999998
 21
439.7168750000001
 31
0.0
  0
LINE
  5
1071
330
2AC
100
AcDbEntity
  8
1
  6
Continuous
 62
     7
100
AcDbLine
 10
1010.324999999997
 20
439.7168750000001
 30
0.0
 11
1010.324999999997
 21
650.0812499999997
 31
0.0
  0
LINE
  5
1077
330
2AC
100
AcDbEntity
  8
1
  6
Continuous
 62
     7
100
AcDbLine
 10
1039.224999999998
 20
610.0993750000001
 30
0.0
 11
1087.38507648103
 21
610.0993750000001
 31
0.0
  0
LINE
  5
1078
330
2AC
100
AcDbEntity
  8
1
  6
Continuous
 62
     7
100
AcDbLine
 10
1039.224999999998
 20
479.6987500000001
 30
0.0
 11
1087.355015949387
 21
479.69875
 31
0.0
  0
LINE
  5
107D
330
2AC
100
AcDbEntity
  8
1
  6
Continuous
 62
     7
100
AcDbLine
 10
954.7594375000008
 20
608.7642036594044
 30
0.0
 11
954.7594375000008
 21
617.1437499999997
 31
0.0
  0
LINE
  5
107F
330
2AC
100
AcDbEntity
  8
1
  6
Continuous
 62
     4
100
AcDbLine
 10
913.7712058263366
 20
639.6784214029172
 30
0.0
 11
943.3994341810496
 21
610.0437479256555
 31
0.0
  0
LINE
  5
1080
330
2AC
100
AcDbEntity
  8
1
  6
Continuous
 62
     4
100
AcDbLine
 10
919.9343853762055
 20
644.037096744335
 30
0.0
 11
946.3291273272735
 21
617.6366130612779
 31
0.0
  0
LINE
  5
1083
330
2AC
100
AcDbEntity
  8
1
  6
Continuous
 62
     7
100
AcDbLine
 10
1125.781562499999
 20
612.9942817110817
 30
0.0
 11
1129.43596115035
 21
612.9942817110817
 31
0.0
  0
LINE
  5
108A
330
2AC
100
AcDbEntity
  8
1
  6
Continuous
 62
     3
100
AcDbLine
 10
1108.825920960984
 20
349.4386535610572
 30
0.0
 11
823.3029131802746
 21
349.4386535610572
 31
0.0
  0
LINE
  5
10A5
330
2AC
100
AcDbEntity
  8
1
  6
Continuous
 62
     7
100
AcDbLine
 10
918.5045688629992
 20
588.2454884709988
 30
0.0
 11
923.6205024127157
 21
593.3658370825715
 31
0.0
  0
LINE
  5
10A6
330
2AC
100
AcDbEntity
  8
1
  6
Continuous
 62
     7
100
AcDbLine
 10
923.6205024127157
 20
593.3658370825715
 30
0.0
 11
933.9094264658307
 21
600.8921966037315
 31
0.0
  0
LINE
  5
10A7
330
2AC
100
AcDbEntity
  8
1
  6
Continuous
 62
     7
100
AcDbLine
 10
933.9094264658307
 20
600.8921966037315
 30
0.0
 11
945.4689716309053
 21
606.2666697303865
 31
0.0
  0
LINE
  5
10A8
330
2AC
100
AcDbEntity
  8
1
  6
Continuous
 62
     7
100
AcDbLine
 10
945.4689716309053
 20
606.2666697303865
 30
0.0
 11
957.8549110699125
 21
609.2827184743177
 31
0.0
  0
LINE
  5
10A9
330
2AC
100
AcDbEntity
  8
1
  6
Continuous
 62
     7
100
AcDbLine
 10
957.8549110699125
 20
609.2827184743177
 30
0.0
 11
966.9731697476436
 21
609.6705483539911
 31
0.0
  0
LINE
  5
10AA
330
2AC
100
AcDbEntity
  8
1
  6
Continuous
 62
     7
100
AcDbLine
 10
918.5045688629992
 20
501.5420115290007
 30
0.0
 11
923.6205024127157
 21
496.421662917428
 31
0.0
  0
LINE
  5
10AB
330
2AC
100
AcDbEntity
  8
1
  6
Continuous
 62
     7
100
AcDbLine
 10
923.6205024127157
 20
496.421662917428
 30
0.0
 11
933.9094264658307
 21
488.8953033962677
 31
0.0
  0
LINE
  5
10AC
330
2AC
100
AcDbEntity
  8
1
  6
Continuous
 62
     7
100
AcDbLine
 10
933.9094264658307
 20
488.8953033962677
 30
0.0
 11
945.4689716309053
 21
483.520830269613
 31
0.0
  0
LINE
  5
10AD
330
2AC
100
AcDbEntity
  8
1
  6
Continuous
 62
     7
100
AcDbLine
 10
945.4689716309053
 20
483.520830269613
 30
0.0
 11
957.8549110699125
 21
480.5047815256815
 31
0.0
  0
LINE
  5
10AE
330
2AC
100
AcDbEntity
  8
1
  6
Continuous
 62
     7
100
AcDbLine
 10
957.8549110699125
 20
480.5047815256815
 30
0.0
 11
966.9731697476436
 21
480.1169516460085
 31
0.0
  0
LINE
  5
10DE
330
2AC
100
AcDbEntity
  8
1
  6
Continuous
 62
     4
100
AcDbLine
 10
941.819807809783
 20
480.7310185563852
 30
0.0
 11
966.9749999999996
 21
455.5758263661688
 31
0.0
  0
LINE
  5
10DF
330
2AC
100
AcDbEntity
  8
1
  6
Continuous
 62
     4
100
AcDbLine
 10
956.4133817720275
 20
475.5337499999998
 30
0.0
 11
966.9749999999996
 21
464.9721317720276
 31
0.0
  0
LINE
  5
1143
330
2AC
100
AcDbEntity
  8
1
  6
Continuous
 62
     2
100
AcDbLine
 10
649.0913974424472
 20
373.8716733868326
 30
0.0
 11
668.0913974424472
 21
373.8716733868326
 31
0.0
  0
LINE
  5
1144
330
2AC
100
AcDbEntity
  8
1
  6
Continuous
 62
     2
100
AcDbLine
 10
647.6363391810212
 20
323.9687933652199
 30
0.0
 11
667.6363391810212
 21
323.9687933652199
 31
0.0
  0
LINE
  5
12EA
330
2AC
100
AcDbEntity
  8
1
  6
Continuous
 62
     7
100
AcDbLine
 10
918.9234374999998
 20
495.0412499999996
 30
0.0
 11
950.1354375
 21
475.5337499999998
 31
0.0
  0
LINE
  5
1347
330
2AC
100
AcDbEntity
  8
1
  6
Continuous
 62
     7
100
AcDbLine
 10
966.9749999999996
 20
475.5337499999998
 30
0.0
 11
950.1354375
 21
475.5337499999998
 31
0.0
  0
LINE
  5
13A2
330
2AC
100
AcDbEntity
  8
1
  6
Continuous
 62
     7
100
AcDbLine
 10
1010.324999999997
 20
439.7168749999998
 30
0.0
 11
937.3390546371821
 21
439.7168750000001
 31
0.0
  0
LINE
  5
13A3
330
2AC
100
AcDbEntity
  8
1
  6
Continuous
 62
     7
100
AcDbLine
 10
836.5584375000002
 20
433.5187499999998
 30
0.0
 11
836.5584375000002
 21
470.43762360069
 31
0.0
  0
LINE
  5
13A4
330
2AC
100
AcDbEntity
  8
1
  6
Continuous
 62
     7
100
AcDbLine
 10
894.6921787650856
 20
468.6429330695936
 30
0.0
 11
911.7556147329727
 21
451.5834857496661
 31
0.0
  0
LINE
  5
13A5
330
2AC
100
AcDbEntity
  8
1
  6
Continuous
 62
     7
100
AcDbLine
 10
846.0882709571988
 20
479.69875
 30
0.0
 11
870.2804656419733
 21
479.69875
 31
0.0
  0
LINE
  5
13A6
330
2AC
100
AcDbEntity
  8
1
  6
Continuous
 62
     7
100
AcDbLine
 10
894.6921787650856
 20
468.6429330695936
 30
0.0
 11
888.1517880624754
 21
473.4272362272985
 31
0.0
  0
LINE
  5
13A7
330
2AC
100
AcDbEntity
  8
1
  6
Continuous
 62
     7
100
AcDbLine
 10
888.1517880624754
 20
473.4272362272985
 30
0.0
 11
879.4821291886695
 21
477.4580910722895
 31
0.0
  0
LINE
  5
13A8
330
2AC
100
AcDbEntity
  8
1
  6
Continuous
 62
     7
100
AcDbLine
 10
879.4821291886695
 20
477.4580910722895
 30
0.0
 11
870.2804656419733
 21
479.69875
 31
0.0
  0
LINE
  5
13A9
330
2AC
100
AcDbEntity
  8
1
  6
Continuous
 62
     7
100
AcDbLine
 10
911.7556147329727
 20
451.5834857496661
 30
0.0
 11
919.3728017080008
 21
446.0115049071596
 31
0.0
  0
LINE
  5
13AA
330
2AC
100
AcDbEntity
  8
1
  6
Continuous
 62
     7
100
AcDbLine
 10
919.3728017080008
 20
446.0115049071596
 30
0.0
 11
928.0424605818073
 21
441.9806500621686
 31
0.0
  0
LINE
  5
13AB
330
2AC
100
AcDbEntity
  8
1
  6
Continuous
 62
     7
100
AcDbLine
 10
928.0424605818073
 20
441.9806500621686
 30
0.0
 11
937.3390546371821
 21
439.7168750000001
 31
0.0
  0
LINE
  5
13AC
330
2AC
100
AcDbEntity
  8
1
  6
Continuous
 62
     7
100
AcDbLine
 10
846.0882709571988
 20
479.69875
 30
0.0
 11
842.5030261621957
 21
479.0490703933151
 31
0.0
  0
LINE
  5
13AD
330
2AC
100
AcDbEntity
  8
1
  6
Continuous
 62
     7
100
AcDbLine
 10
842.5030261621957
 20
479.0490703933151
 30
0.0
 11
839.4278613984472
 21
477.0694587238508
 31
0.0
  0
LINE
  5
13AE
330
2AC
100
AcDbEntity
  8
1
  6
Continuous
 62
     7
100
AcDbLine
 10
839.4278613984472
 20
477.0694587238508
 30
0.0
 11
837.3443442025411
 21
474.0637214132328
 31
0.0
  0
LINE
  5
13AF
330
2AC
100
AcDbEntity
  8
1
  6
Continuous
 62
     7
100
AcDbLine
 10
837.3443442025411
 20
474.0637214132328
 30
0.0
 11
836.5584375000002
 21
470.43762360069
 31
0.0
  0
LINE
  5
13B0
330
2AC
100
AcDbEntity
  8
1
  6
Continuous
 62
     7
100
AcDbLine
 10
1010.324999999997
 20
650.0706249999995
 30
0.0
 11
937.3390546371821
 21
650.0706249999993
 31
0.0
  0
LINE
  5
13B1
330
2AC
100
AcDbEntity
  8
1
  6
Continuous
 62
     7
100
AcDbLine
 10
836.5584375000002
 20
656.2687499999997
 30
0.0
 11
836.5584375000002
 21
619.3498763993091
 31
0.0
  0
LINE
  5
13B2
330
2AC
100
AcDbEntity
  8
1
  6
Continuous
 62
     7
100
AcDbLine
 10
894.6921787650856
 20
621.1445669304055
 30
0.0
 11
911.7556147329727
 21
638.2040142503334
 31
0.0
  0
LINE
  5
13B3
330
2AC
100
AcDbEntity
  8
1
  6
Continuous
 62
     7
100
AcDbLine
 10
846.0882709571988
 20
610.0887499999994
 30
0.0
 11
870.2804656419733
 21
610.0887499999994
 31
0.0
  0
LINE
  5
13B4
330
2AC
100
AcDbEntity
  8
1
  6
Continuous
 62
     7
100
AcDbLine
 10
894.6921787650856
 20
621.1445669304055
 30
0.0
 11
888.1517880624754
 21
616.360263772701
 31
0.0
  0
LINE
  5
13B5
330
2AC
100
AcDbEntity
  8
1
  6
Continuous
 62
     7
100
AcDbLine
 10
888.1517880624754
 20
616.360263772701
 30
0.0
 11
879.4821291886695
 21
612.3294089277101
 31
0.0
  0
LINE
  5
13B6
330
2AC
100
AcDbEntity
  8
1
  6
Continuous
 62
     7
100
AcDbLine
 10
879.4821291886695
 20
612.3294089277101
 30
0.0
 11
870.2804656419733
 21
610.0887499999994
 31
0.0
  0
LINE
  5
13B7
330
2AC
100
AcDbEntity
  8
1
  6
Continuous
 62
     7
100
AcDbLine
 10
911.7556147329727
 20
638.2040142503334
 30
0.0
 11
919.3728017080008
 21
643.7759950928397
 31
0.0
  0
LINE
  5
13B8
330
2AC
100
AcDbEntity
  8
1
  6
Continuous
 62
     7
100
AcDbLine
 10
919.3728017080008
 20
643.7759950928397
 30
0.0
 11
928.0424605818073
 21
647.8068499378307
 31
0.0
  0
LINE
  5
13B9
330
2AC
100
AcDbEntity
  8
1
  6
Continuous
 62
     7
100
AcDbLine
 10
928.0424605818073
 20
647.8068499378307
 30
0.0
 11
937.3390546371821
 21
650.0706249999993
 31
0.0
  0
LINE
  5
13BA
330
2AC
100
AcDbEntity
  8
1
  6
Continuous
 62
     7
100
AcDbLine
 10
846.0882709571988
 20
610.0887499999994
 30
0.0
 11
842.5030261621957
 21
610.738429606684
 31
0.0
  0
LINE
  5
13BB
330
2AC
100
AcDbEntity
  8
1
  6
Continuous
 62
     7
100
AcDbLine
 10
842.5030261621957
 20
610.738429606684
 30
0.0
 11
839.4278613984472
 21
612.7180412761487
 31
0.0
  0
LINE
  5
13BC
330
2AC
100
AcDbEntity
  8
1
  6
Continuous
 62
     7
100
AcDbLine
 10
839.4278613984472
 20
612.7180412761487
 30
0.0
 11
837.3443442025411
 21
615.7237785867667
 31
0.0
  0
LINE
  5
13BD
330
2AC
100
AcDbEntity
  8
1
  6
Continuous
 62
     7
100
AcDbLine
 10
837.3443442025411
 20
615.7237785867667
 30
0.0
 11
836.5584375000002
 21
619.3498763993091
 31
0.0
  0
LINE
  5
13BF
330
2AC
100
AcDbEntity
  8
1
  6
Continuous
 62
     7
100
AcDbLine
 10
1087.355015949387
 20
479.69875
 30
0.0
 11
1090.94026074439
 21
479.0490703933151
 31
0.0
  0
LINE
  5
13C0
330
2AC
100
AcDbEntity
  8
1
  6
Continuous
 62
     7
100
AcDbLine
 10
1090.94026074439
 20
479.0490703933151
 30
0.0
 11
1094.015425508138
 21
477.0694587238508
 31
0.0
  0
LINE
  5
13C1
330
2AC
100
AcDbEntity
  8
1
  6
Continuous
 62
     7
100
AcDbLine
 10
1094.015425508138
 20
477.0694587238508
 30
0.0
 11
1096.098942704043
 21
474.0637214132328
 31
0.0
  0
LINE
  5
13C2
330
2AC
100
AcDbEntity
  8
1
  6
Continuous
 62
     7
100
AcDbLine
 10
1096.098942704043
 20
474.0637214132328
 30
0.0
 11
1096.884849406585
 21
470.43762360069
 31
0.0
  0
LINE
  5
13C3
330
2AC
100
AcDbEntity
  8
1
  6
Continuous
 62
     7
100
AcDbLine
 10
1087.38507648103
 20
610.0993750000001
 30
0.0
 11
1090.911687411652
 21
610.738429606684
 31
0.0
  0
LINE
  5
13C4
330
2AC
100
AcDbEntity
  8
1
  6
Continuous
 62
     7
100
AcDbLine
 10
1090.911687411652
 20
610.738429606684
 30
0.0
 11
1093.986852175399
 21
612.7180412761487
 31
0.0
  0
LINE
  5
13C5
330
2AC
100
AcDbEntity
  8
1
  6
Continuous
 62
     7
100
AcDbLine
 10
1093.986852175399
 20
612.7180412761487
 30
0.0
 11
1096.070369371307
 21
615.7237785867667
 31
0.0
  0
LINE
  5
13C6
330
2AC
100
AcDbEntity
  8
1
  6
Continuous
 62
     7
100
AcDbLine
 10
1096.070369371307
 20
615.7237785867667
 30
0.0
 11
1096.856276073848
 21
619.3498763993091
 31
0.0
  0
LINE
  5
140F
330
2AC
100
AcDbEntity
  8
1
  6
Continuous
 62
     7
100
AcDbLine
 10
916.0334375000003
 20
589.68875
 30
0.0
 11
913.3990493522142
 21
586.1762324696177
 31
0.0
  0
LINE
  5
1410
330
2AC
100
AcDbEntity
  8
1
  6
Continuous
 62
     7
100
AcDbLine
 10
916.0334375000003
 20
500.0987499999998
 30
0.0
 11
913.3990493522141
 21
503.6112675303813
 31
0.0
  0
LINE
  5
1411
330
2AC
100
AcDbEntity
  8
1
  6
Continuous
 62
     7
100
AcDbLine
 10
895.7328658152372
 20
586.1762324696177
 30
0.0
 11
803.4832276906112
 21
591.0550356585442
 31
0.0
  0
LINE
  5
1412
330
2AC
100
AcDbEntity
  8
1
  6
Continuous
 62
     7
100
AcDbLine
 10
918.5045688629992
 20
588.2454884709988
 30
0.0
 11
917.1755548985201
 21
586.1762324696177
 31
0.0
  0
LINE
  5
1413
330
2AC
100
AcDbEntity
  8
1
  6
Continuous
 62
     7
100
AcDbLine
 10
899.4159374999997
 20
586.1762324696177
 30
0.0
 11
913.3990493522142
 21
586.1762324696177
 31
0.0
  0
LINE
  5
1414
330
2AC
100
AcDbEntity
  8
1
  6
Continuous
 62
     7
100
AcDbLine
 10
917.1194004802792
 20
586.1762324696177
 30
0.0
 11
966.9749999999996
 21
586.1762324696184
 31
0.0
  0
LINE
  5
1415
330
2AC
100
AcDbEntity
  8
1
  6
Continuous
 62
     7
100
AcDbLine
 10
895.7328658152372
 20
503.6112675303817
 30
0.0
 11
803.4832276906112
 21
498.7324643414551
 31
0.0
  0
LINE
  5
1416
330
2AC
100
AcDbEntity
  8
1
  6
Continuous
 62
     7
100
AcDbLine
 10
918.5045688629992
 20
501.5420115290007
 30
0.0
 11
917.1755548985201
 21
503.6112675303816
 31
0.0
  0
LINE
  5
1417
330
2AC
100
AcDbEntity
  8
1
  6
Continuous
 62
     7
100
AcDbLine
 10
899.4159374999997
 20
503.6112675303817
 30
0.0
 11
913.3990493522141
 21
503.6112675303813
 31
0.0
  0
LINE
  5
1418
330
2AC
100
AcDbEntity
  8
1
  6
Continuous
 62
     7
100
AcDbLine
 10
917.1755548985201
 20
503.6112675303816
 30
0.0
 11
966.9749999999996
 21
503.6112675303813
 31
0.0
  0
LINE
  5
141B
330
2AC
100
AcDbEntity
  8
1
  6
Continuous
 62
     7
100
AcDbLine
 10
918.4919767419341
 20
589.6887500000001
 30
0.0
 11
921.3794848161423
 21
592.5787499999997
 31
0.0
  0
LINE
  5
141C
330
2AC
100
AcDbEntity
  8
1
  6
Continuous
 62
     7
100
AcDbLine
 10
918.5538002537219
 20
500.0987499999998
 30
0.0
 11
921.4413083279307
 21
497.2087499999997
 31
0.0
  0
LINE
  5
141E
330
2AC
100
AcDbEntity
  8
1
  6
Continuous
 62
     4
100
AcDbLine
 10
832.0750194900663
 20
656.2687499999997
 30
0.0
 11
836.5584375000002
 21
651.7877752696351
 31
0.0
  0
ENDSEC
  0
SECTION
  2
OBJECTS
  0
DICTIONARY
  5
29A
330
0
100
AcDbDictionary
281
     1
  3
ACAD_COLOR
350
575
  3
ACAD_GROUP
350
29B
  3
ACAD_LAYOUT
350
2A7
  3
ACAD_MATERIAL
350
548
  3
ACAD_MLEADERSTYLE
350
59A
  3
ACAD_MLINESTYLE
350
2A4
  3
ACAD_PLOTSETTINGS
350
2A6
  3
ACAD_PLOTSTYLENAME
350
29C
  3
ACAD_SCALELIST
350
578
  3
ACAD_TABLESTYLE
350
576
  3
ACAD_VISUALSTYLE
350
561
  3
ACDB_RECOMPOSE_DATA
350
1349
  3
AcDbVariableDictionary
350
5DC
  3
DWGPROPS
350
134A
  0
DICTIONARY
  5
5D4
330
29E
100
AcDbDictionary
280
     1
281
     1
  3
ADSK_XREC_LAYER_RECONCILED
360
5D5
  0
DICTIONARY
  5
5DA
330
2B9
100
AcDbDictionary
280
     1
281
     1
  3
ADSK_XREC_LAYER_RECONCILED
360
5DB
  0
DICTIONARY
  5
6CD
330
2AC
100
AcDbDictionary
280
     1
281
     1
  3
ACAD_SORTENTS
360
6CE
  0
DICTIONARY
  5
575
102
{ACAD_REACTORS
330
29A
102
}
330
29A
100
AcDbDictionary
281
     1
  0
DICTIONARY
  5
29B
102
{ACAD_REACTORS
330
29A
102
}
330
29A
100
AcDbDictionary
281
     1
  0
DICTIONARY
  5
2A7
102
{ACAD_REACTORS
330
29A
102
}
330
29A
100
AcDbDictionary
281
     1
  3
Layout1
350
2AB
  3
Model
350
2AF
  0
DICTIONARY
  5
548
102
{ACAD_REACTORS
330
29A
102
}
330
29A
100
AcDbDictionary
281
     1
  3
ByBlock
350
551
  3
ByLayer
350
549
  3
Global
350
559
  0
DICTIONARY
  5
59A
102
{ACAD_REACTORS
330
29A
102
}
330
29A
100
AcDbDictionary
281
     1
  3
Standard
350
59B
  0
DICTIONARY
  5
2A4
102
{ACAD_REACTORS
330
29A
102
}
330
29A
100
AcDbDictionary
281
     1
  3
Standard
350
2A5
  0
DICTIONARY
  5
2A6
102
{ACAD_REACTORS
330
29A
102
}
330
29A
100
AcDbDictionary
281
     1
  0
ACDBDICTIONARYWDFLT
  5
29C
102
{ACAD_REACTORS
330
29A
102
}
330
29A
100
AcDbDictionary
281
     1
  3
Normal
350
29D
100
AcDbDictionaryWithDefault
340
29D
  0
DICTIONARY
  5
578
102
{ACAD_REACTORS
330
29A
102
}
330
29A
100
AcDbDictionary
281
     1
  3
A0
350
579
  3
A1
350
57A
  3
A2
350
57B
  3
A3
350
57C
  3
A4
350
57D
  3
A5
350
57E
  3
A6
350
57F
  3
A7
350
580
  3
A8
350
581
  3
A9
350
582
  3
B0
350
583
  3
B1
350
584
  3
B2
350
585
  3
B3
350
586
  3
B4
350
587
  3
B5
350
588
  3
B6
350
589
  3
B7
350
58A
  3
B8
350
58B
  3
B9
350
58C
  3
C0
350
58D
  3
C1
350
58E
  3
C2
350
58F
  3
C3
350
590
  3
C4
350
591
  3
C5
350
592
  3
C6
350
593
  3
C7
350
594
  3
C8
350
595
  3
C9
350
596
  3
D0
350
597
  3
D1
350
598
  3
D2
350
599
  0
DICTIONARY
  5
576
102
{ACAD_REACTORS
330
29A
102
}
330
29A
100
AcDbDictionary
281
     1
  3
Standard
350
577
  0
DICTIONARY
  5
561
102
{ACAD_REACTORS
330
29A
102
}
330
29A
100
AcDbDictionary
281
     1
  3
2dWireframe
350
567
  3
3D Hidden
350
569
  3
3dWireframe
350
568
  3
Basic
350
566
  3
Brighten
350
56D
  3
ColorChange
350
571
  3
Conceptual
350
56A
  3
Dim
350
56C
  3
EdgeColorOff
350
574
  3
Facepattern
350
570
  3
Flat
350
562
  3
FlatWithEdges
350
563
  3
Gouraud
350
564
  3
GouraudWithEdges
350
565
  3
JitterOff
350
572
  3
Linepattern
350
56F
  3
OverhangOff
350
573
  3
Realistic
350
56B
  3
Thicken
350
56E
  0
XRECORD
  5
1349
102
{ACAD_REACTORS
330
29A
102
}
330
29A
100
AcDbXrecord
280
     1
 90
        1
330
577
  0
DICTIONARY
  5
5DC
102
{ACAD_REACTORS
330
29A
102
}
330
29A
100
AcDbDictionary
281
     1
  3
CANNOSCALE
350
5DF
  3
CMLEADERSTYLE
350
5DE
  3
CTABLESTYLE
350
5DD
  3
DIMASSOC
350
5E2
  3
INDEXCTL
350
5E1
  3
SORTENTS
350
5E0
  3
XCLIPFRAME
350
1113
  0
XRECORD
  5
134A
102
{ACAD_REACTORS
330
29A
102
}
330
29A
100
AcDbXrecord
280
     1
  1
DWGPROPS COOKIE
  2

  3

  4

  6

  7

  8
John
  9

300
=
301
=
302
=
303
=
304
=
305
=
306
=
307
=
308
=
309
=
 40
0.0970715393518519
 41
2453238.886689815
 42
2456695.397015197
  1

 90
        0
  0
XRECORD
  5
5D5
102
{ACAD_REACTORS
330
5D4
102
}
330
5D4
100
AcDbXrecord
280
     1
290
     1
  0
XRECORD
  5
5DB
102
{ACAD_REACTORS
330
5DA
102
}
330
5DA
100
AcDbXrecord
280
     1
290
     1
  0
SORTENTSTABLE
  5
6CE
102
{ACAD_REACTORS
330
6CD
102
}
330
6CD
100
AcDbSortentsTable
330
2AC
331
440
  5
444
331
1057
  5
1057
331
5B4
  5
5BB
331
3EB
  5
3EB
331
665
  5
6CF
331
3D9
  5
3D9
331
3AA
  5
3AA
331
1041
  5
1041
331
2E7
  5
2E7
331
1000
  5
1000
331
376
  5
376
331
10A6
  5
10A9
331
104D
  5
104D
331
34B
  5
34B
331
5AB
  5
5AF
331
51B
  5
51F
331
FEA
  5
FEA
331
1080
  5
1080
331
1037
  5
1037
331
FF6
  5
FF6
331
991
  5
992
331
453
  5
4D4
331
5A1
  5
5A7
331
40F
  5
40F
331
FE0
  5
FE0
331
4D7
  5
507
331
1076
  5
1076
331
42D
  5
42F
331
3D4
  5
3D4
331
102D
  5
102D
331
413
  5
413
331
FCA
  5
FCA
331
449
  5
44E
331
1060
  5
1060
331
37E
  5
37E
331
101F
  5
101F
331
FD6
  5
FD6
331
38D
  5
38D
331
31A
  5
31A
331
5B9
  5
5C8
331
43F
  5
443
331
1056
  5
1056
331
1015
  5
1015
331
3EA
  5
3EA
331
3D8
  5
3D8
331
3A9
  5
3A9
331
1040
  5
1040
331
2E6
  5
2E6
331
FFF
  5
FFF
331
375
  5
375
331
10A5
  5
10A8
331
104C
  5
104C
331
34A
  5
34A
331
512
  5
51D
331
5AA
  5
5AE
331
393
  5
393
331
FE9
  5
FE9
331
336
  5
336
331
107F
  5
107F
331
1036
  5
1036
331
FF5
  5
FF5
331
452
  5
4D3
331
5A0
  5
5A6
331
508
  5
512
331
40E
  5
40E
331
FDF
  5
FDF
331
4D6
  5
4DA
331
1075
  5
1075
331
102C
  5
102C
331
412
  5
412
331
FC9
  5
FC9
331
448
  5
44D
331
37D
  5
37D
331
101E
  5
101E
331
38C
  5
38C
331
FD5
  5
FD5
331
106B
  5
106B
331
321
  5
321
331
3B2
  5
3B2
331
5B8
  5
5BE
331
386
  5
386
331
10AE
  5
10A7
331
43E
  5
442
331
32C
  5
32C
331
C53
  5
C52
331
1014
  5
1014
331
5B2
  5
5B9
331
3E9
  5
3E9
331
347
  5
347
331
3A8
  5
3A8
331
103F
  5
103F
331
2E5
  5
2E5
331
FFE
  5
FFE
331
374
  5
374
331
10A4
  5
10AE
331
104B
  5
104B
331
349
  5
349
331
511
  5
51B
331
962
  5
991
331
392
  5
392
331
5A9
  5
5AD
331
357
  5
357
331
41F
  5
41F
331
FE8
  5
FE8
331
335
  5
335
331
39E
  5
39E
331
1035
  5
1035
331
9C3
  5
A4E
331
108A
  5
108A
331
451
  5
4D2
331
1027
  5
1027
331
33D
  5
33D
331
40D
  5
40D
331
FDE
  5
FDE
331
4D5
  5
4D9
331
1074
  5
1074
331
102B
  5
102B
331
411
  5
411
331
447
  5
44C
331
105E
  5
105E
331
37C
  5
37C
331
FD4
  5
FD4
331
38B
  5
38B
331
3B1
  5
3B1
331
1007
  5
1007
331
3E6
  5
3E6
331
385
  5
385
331
10AD
  5
10A6
331
43D
  5
43F
331
C52
  5
CDE
331
5B1
  5
5B8
331
3E8
  5
3E8
331
346
  5
346
331
3A7
  5
3A7
331
78E
  5
72E
331
2E4
  5
2E4
331
FFD
  5
FFD
331
373
  5
373
331
10A3
  5
10AD
331
104A
  5
104A
331
510
  5
518
331
348
  5
348
331
5A8
  5
5AC
331
391
  5
391
331
FE7
  5
FE7
331
41E
  5
41E
331
107D
  5
107D
331
1034
  5
1034
331
FF3
  5
FF3
331
450
  5
4D1
331
1067
  5
1067
331
6CF
  5
78E
331
1026
  5
1026
331
33C
  5
33C
331
40C
  5
40C
331
FDD
  5
FDD
331
4D4
  5
4D8
331
42A
  5
42A
331
102A
  5
102A
331
410
  5
410
331
407
  5
407
331
FC7
  5
FC7
331
A7D
  5
AAC
331
446
  5
44B
331
37B
  5
37B
331
101C
  5
101C
331
38A
  5
38A
331
FD3
  5
FD3
331
95F
  5
962
331
3DF
  5
3DF
331
3B0
  5
3B0
331
1047
  5
1047
331
3E5
  5
3E5
331
384
  5
384
331
10AC
  5
10A5
331
32A
  5
32A
331
C51
  5
C53
331
1012
  5
1012
331
5B0
  5
5B5
331
2DF
  5
2DF
331
507
  5
511
331
345
  5
345
331
3A6
  5
3A6
331
78D
  5
78B
331
2E3
  5
2E3
331
372
  5
372
331
81B
  5
440
331
1049
  5
1049
331
5A7
  5
5AB
331
390
  5
390
331
50F
  5
515
331
355
  5
355
331
41D
  5
41D
331
FE6
  5
FE6
331
333
  5
333
331
1033
  5
1033
331
FF2
  5
FF2
331
A4E
  5
A7D
331
44F
  5
453
331
1066
  5
1066
331
1025
  5
1025
331
33B
  5
33B
331
40B
  5
40B
331
FDC
  5
FDC
331
4D3
  5
4D7
331
1029
  5
1029
331
100F
  5
100F
331
445
  5
449
331
5CB
  5
6CC
331
105C
  5
105C
331
37A
  5
37A
331
101B
  5
101B
331
FD2
  5
FD2
331
389
  5
389
331
1068
  5
1068
331
3DE
  5
3DE
331
3AF
  5
3AF
331
1046
  5
1046
331
1005
  5
1005
331
3E4
  5
3E4
331
383
  5
383
331
BC4
  5
C4F
331
10AB
  5
10A4
331
43B
  5
43E
331
1011
  5
1011
331
2DE
  5
2DE
331
FEF
  5
FEF
331
3A5
  5
3A5
331
344
  5
344
331
2E2
  5
2E2
331
371
  5
371
331
36F
  5
36F
331
1048
  5
1048
331
72E
  5
81B
331
5A6
  5
5AA
331
FE5
  5
FE5
331
41C
  5
41C
331
354
  5
354
331
1032
  5
1032
331
FF1
  5
FF1
331
FCF
  5
FCF
331
2D4
  5
2D4
331
44E
  5
452
331
1065
  5
1065
331
1024
  5
1024
331
33A
  5
33A
331
40A
  5
40A
331
FDB
  5
FDB
331
4D2
  5
4D6
331
1071
  5
1071
331
1028
  5
1028
331
405
  5
405
331
5BE
  5
5CB
331
444
  5
448
331
5CA
  5
6CB
331
105B
  5
105B
331
101A
  5
101A
331
379
  5
379
331
FD1
  5
FD1
331
3DD
  5
3DD
331
3AE
  5
3AE
331
1045
  5
1045
331
7BD
  5
902
331
3E3
  5
3E3
331
1004
  5
1004
331
382
  5
382
331
BC3
  5
BC4
331
10AA
  5
10A3
331
43A
  5
43D
331
34F
  5
34F
331
1010
  5
1010
331
5AF
  5
5B4
331
2DD
  5
2DD
331
51F
  5
5A3
331
FEE
  5
FEE
331
3A4
  5
3A4
331
103B
  5
103B
331
78B
  5
72D
331
2E1
  5
2E1
331
FFA
  5
FFA
331
36E
  5
36E
331
72D
  5
7EC
331
353
  5
353
331
41B
  5
41B
331
FE4
  5
FE4
331
331
  5
331
331
1031
  5
1031
331
417
  5
417
331
FF0
  5
FF0
331
59E
  5
5A4
331
FCE
  5
FCE
331
2D3
  5
2D3
331
44D
  5
451
331
1064
  5
1064
331
6CC
  5
42D
331
1023
  5
1023
331
409
  5
409
331
FDA
  5
FDA
331
2E8
  5
2E8
331
4D1
  5
4D5
331
1070
  5
1070
331
326
  5
326
331
404
  5
404
331
100D
  5
100D
331
443
  5
447
331
5C9
  5
6CA
331
105A
  5
105A
331
378
  5
378
331
1019
  5
1019
331
FD0
  5
FD0
331
3DC
  5
3DC
331
3AD
  5
3AD
331
1044
  5
1044
331
3E2
  5
3E2
331
1003
  5
1003
331
381
  5
381
331
10A9
  5
10AC
331
439
  5
43B
331
1050
  5
1050
331
34E
  5
34E
331
5AE
  5
5B2
331
51E
  5
5A1
331
FED
  5
FED
331
3A3
  5
3A3
331
902
  5
95F
331
342
  5
342
331
1083
  5
1083
331
103A
  5
103A
331
2E0
  5
2E0
331
FF9
  5
FF9
331
2CF
  5
2CF
331
994
  5
9C3
331
72C
  5
7BD
331
5A4
  5
5A9
331
FE3
  5
FE3
331
41A
  5
41A
331
352
  5
352
331
4DA
  5
510
331
330
  5
330
331
1079
  5
1079
331
1030
  5
1030
331
3D7
  5
3D7
331
416
  5
416
331
FCD
  5
FCD
331
2D2
  5
2D2
331
44C
  5
450
331
1063
  5
1063
331
6CB
  5
78D
331
1022
  5
1022
331
338
  5
338
331
FD9
  5
FD9
331
317
  5
317
331
403
  5
403
331
100C
  5
100C
331
5BC
  5
5CA
331
2F2
  5
2F2
331
442
  5
446
331
5C8
  5
665
331
1059
  5
1059
331
1018
  5
1018
331
3DB
  5
3DB
331
3AC
  5
3AC
331
1043
  5
1043
331
3E1
  5
3E1
331
1002
  5
1002
331
380
  5
380
331
10A8
  5
10AB
331
438
  5
43A
331
104F
  5
104F
331
34D
  5
34D
331
5AD
  5
5B1
331
51D
  5
5A0
331
FEC
  5
FEC
331
431
  5
439
331
341
  5
341
331
3A2
  5
3A2
331
1039
  5
1039
331
FF8
  5
FF8
331
2CE
  5
2CE
331
993
  5
994
331
5A3
  5
5A8
331
351
  5
351
331
419
  5
419
331
FE2
  5
FE2
331
4D9
  5
50F
331
42F
  5
431
331
1078
  5
1078
331
398
  5
398
331
EAE
  5
42E
331
3D6
  5
3D6
331
102F
  5
102F
331
415
  5
415
331
FCC
  5
FCC
331
44B
  5
44F
331
2D1
  5
2D1
331
421
  5
421
331
1062
  5
1062
331
6CA
  5
72C
331
1021
  5
1021
331
38F
  5
38F
331
FD8
  5
FD8
331
106E
  5
106E
331
324
  5
324
331
3B5
  5
3B5
331
7EC
  5
441
331
100B
  5
100B
331
5BB
  5
5C9
331
2F1
  5
2F1
331
441
  5
445
331
1058
  5
1058
331
CDE
  5
EAE
331
1017
  5
1017
331
5B5
  5
5BC
331
3DA
  5
3DA
331
3AB
  5
3AB
331
1042
  5
1042
331
3E0
  5
3E0
331
1001
  5
1001
331
377
  5
377
331
10A7
  5
10AA
331
104E
  5
104E
331
34C
  5
34C
331
5AC
  5
5B0
331
395
  5
395
331
51C
  5
59E
331
FEB
  5
FEB
331
430
  5
438
331
340
  5
340
331
3A1
  5
3A1
331
C4F
  5
C51
331
1038
  5
1038
331
992
  5
993
331
350
  5
350
331
418
  5
418
331
FE1
  5
FE1
331
4D8
  5
508
331
42E
  5
430
331
1077
  5
1077
331
3D5
  5
3D5
331
414
  5
414
331
FCB
  5
FCB
331
2D0
  5
2D0
331
420
  5
420
331
37F
  5
37F
331
1020
  5
1020
331
38E
  5
38E
331
FD7
  5
FD7
331
106D
  5
106D
331
100A
  5
100A
  0
LAYOUT
  5
2AB
102
{ACAD_XDICTIONARY
360
134B
102
}
102
{ACAD_REACTORS
330
2A7
102
}
330
2A7
100
AcDbPlotSettings
  1

  2
HP DeskJet 840C/841C/842C/843C
  4

  6

 40
0.0
 41
0.0
 42
0.0
 43
0.0
 44
0.0
 45
0.0
 46
0.0
 47
0.0
 48
0.0
 49
0.0
140
0.0
141
0.0
142
1.0
143
1.0
 70
   688
 72
     0
 73
     0
 74
     5
  7

 75
    16
147
1.0
148
0.0
149
0.0
100
AcDbLayout
  1
Layout1
 70
     0
 71
     1
 10
0.0
 20
0.0
 11
12.0
 21
9.0
 12
0.0
 22
0.0
 32
0.0
 14
-1.000000000000000E+20
 24
-1.000000000000000E+20
 34
-1.000000000000000E+20
 15
-1.000000000000000E+20
 25
-1.000000000000000E+20
 35
-1.000000000000000E+20
146
0.0
 13
0.0
 23
0.0
 33
0.0
 16
1.0
 26
0.0
 36
0.0
 17
0.0
 27
1.0
 37
0.0
 76
     0
330
2A8
  0
LAYOUT
  5
2AF
102
{ACAD_XDICTIONARY
360
134D
102
}
102
{ACAD_REACTORS
330
2A7
102
}
330
2A7
100
AcDbPlotSettings
  1

  2
HP DeskJet 840C/841C/842C/843C
  4

  6

 40
0.0
 41
0.0
 42
0.0
 43
0.0
 44
0.0
 45
0.0
 46
0.0
 47
0.0
 48
0.0
 49
0.0
140
0.0
141
0.0
142
1.0
143
1.0
 70
  1712
 72
     0
 73
     0
 74
     0
  7

 75
     0
147
1.0
148
0.0
149
0.0
100
AcDbLayout
  1
Model
 70
     1
 71
     0
 10
0.0
 20
0.0
 11
12.0
 21
9.0
 12
0.0
 22
0.0
 32
0.0
 14
0.0
 24
0.0
 34
0.0
 15
0.0
 25
0.0
 35
0.0
146
0.0
 13
0.0
 23
0.0
 33
0.0
 16
1.0
 26
0.0
 36
0.0
 17
0.0
 27
1.0
 37
0.0
 76
     0
330
2AC
331
1092
  0
MATERIAL
  5
551
102
{ACAD_XDICTIONARY
360
552
102
}
102
{ACAD_REACTORS
330
548
102
}
330
548
100
AcDbMaterial
  1
ByBlock
 72
     0
 43
0.0208333333333333
 43
0.0
 43
0.0
 43
0.0
 43
0.0
 43
0.0208333333333333
 43
0.0
 43
0.0
 43
0.0
 43
0.0
 43
1.0
 43
0.0
 43
0.0
 43
0.0
 43
0.0
 43
1.0
 77
     0
 47
0.0208333333333333
 47
0.0
 47
0.0
 47
0.0
 47
0.0
 47
0.0208333333333333
 47
0.0
 47
0.0
 47
0.0
 47
0.0
 47
1.0
 47
0.0
 47
0.0
 47
0.0
 47
0.0
 47
1.0
171
     0
 49
0.0208333333333333
 49
0.0
 49
0.0
 49
0.0
 49
0.0
 49
0.0208333333333333
 49
0.0
 49
0.0
 49
0.0
 49
0.0
 49
1.0
 49
0.0
 49
0.0
 49
0.0
 49
0.0
 49
1.0
175
     0
142
0.0208333333333333
142
0.0
142
0.0
142
0.0
142
0.0
142
0.0208333333333333
142
0.0
142
0.0
142
0.0
142
0.0
142
1.0
142
0.0
142
0.0
142
0.0
142
0.0
142
1.0
179
     0
144
0.0208333333333333
144
0.0
144
0.0
144
0.0
144
0.0
144
0.0208333333333333
144
0.0
144
0.0
144
0.0
144
0.0
144
1.0
144
0.0
144
0.0
144
0.0
144
0.0
144
1.0
147
0.0208333333333333
147
0.0
147
0.0
147
0.0
147
0.0
147
0.0208333333333333
147
0.0
147
0.0
147
0.0
147
0.0
147
1.0
147
0.0
147
0.0
147
0.0
147
0.0
147
1.0
  0
MATERIAL
  5
549
102
{ACAD_XDICTIONARY
360
54A
102
}
102
{ACAD_REACTORS
330
548
102
}
330
548
100
AcDbMaterial
  1
ByLayer
 72
     0
 43
0.0208333333333333
 43
0.0
 43
0.0
 43
0.0
 43
0.0
 43
0.0208333333333333
 43
0.0
 43
0.0
 43
0.0
 43
0.0
 43
1.0
 43
0.0
 43
0.0
 43
0.0
 43
0.0
 43
1.0
 77
     0
 47
0.0208333333333333
 47
0.0
 47
0.0
 47
0.0
 47
0.0
 47
0.0208333333333333
 47
0.0
 47
0.0
 47
0.0
 47
0.0
 47
1.0
 47
0.0
 47
0.0
 47
0.0
 47
0.0
 47
1.0
171
     0
 49
0.0208333333333333
 49
0.0
 49
0.0
 49
0.0
 49
0.0
 49
0.0208333333333333
 49
0.0
 49
0.0
 49
0.0
 49
0.0
 49
1.0
 49
0.0
 49
0.0
 49
0.0
 49
0.0
 49
1.0
175
     0
142
0.0208333333333333
142
0.0
142
0.0
142
0.0
142
0.0
142
0.0208333333333333
142
0.0
142
0.0
142
0.0
142
0.0
142
1.0
142
0.0
142
0.0
142
0.0
142
0.0
142
1.0
179
     0
144
0.0208333333333333
144
0.0
144
0.0
144
0.0
144
0.0
144
0.0208333333333333
144
0.0
144
0.0
144
0.0
144
0.0
144
1.0
144
0.0
144
0.0
144
0.0
144
0.0
144
1.0
147
0.0208333333333333
147
0.0
147
0.0
147
0.0
147
0.0
147
0.0208333333333333
147
0.0
147
0.0
147
0.0
147
0.0
147
1.0
147
0.0
147
0.0
147
0.0
147
0.0
147
1.0
  0
MATERIAL
  5
559
102
{ACAD_XDICTIONARY
360
55A
102
}
102
{ACAD_REACTORS
330
548
102
}
330
548
100
AcDbMaterial
  1
Global
 72
     0
 43
0.0208333333333333
 43
0.0
 43
0.0
 43
0.0
 43
0.0
 43
0.0208333333333333
 43
0.0
 43
0.0
 43
0.0
 43
0.0
 43
1.0
 43
0.0
 43
0.0
 43
0.0
 43
0.0
 43
1.0
 77
     0
 47
0.0208333333333333
 47
0.0
 47
0.0
 47
0.0
 47
0.0
 47
0.0208333333333333
 47
0.0
 47
0.0
 47
0.0
 47
0.0
 47
1.0
 47
0.0
 47
0.0
 47
0.0
 47
0.0
 47
1.0
171
     0
 49
0.0208333333333333
 49
0.0
 49
0.0
 49
0.0
 49
0.0
 49
0.0208333333333333
 49
0.0
 49
0.0
 49
0.0
 49
0.0
 49
1.0
 49
0.0
 49
0.0
 49
0.0
 49
0.0
 49
1.0
175
     0
142
0.0208333333333333
142
0.0
142
0.0
142
0.0
142
0.0
142
0.0208333333333333
142
0.0
142
0.0
142
0.0
142
0.0
142
1.0
142
0.0
142
0.0
142
0.0
142
0.0
142
1.0
179
     0
144
0.0208333333333333
144
0.0
144
0.0
144
0.0
144
0.0
144
0.0208333333333333
144
0.0
144
0.0
144
0.0
144
0.0
144
1.0
144
0.0
144
0.0
144
0.0
144
0.0
144
1.0
147
0.0208333333333333
147
0.0
147
0.0
147
0.0
147
0.0
147
0.0208333333333333
147
0.0
147
0.0
147
0.0
147
0.0
147
1.0
147
0.0
147
0.0
147
0.0
147
0.0
147
1.0
  0
MLEADERSTYLE
  5
59B
102
{ACAD_REACTORS
330
59A
102
}
330
59A
100
AcDbMLeaderStyle
170
     2
171
     1
172
     0
 90
        2
 40
0.0
 41
0.0
173
     1
 91
-1056964608
340
2A1
 92
       -2
290
     1
 42
0.09
291
     1
 43
0.36
  3
Standard
 44
0.18
300

342
29F
174
     1
178
     6
175
     1
176
     0
 93
-1056964608
 45
0.18
292
     0
297
     0
 46
0.18
 94
-1056964608
 47
1.0
 49
1.0
140
1.0
293
     1
141
0.0
294
     1
177
     0
142
1.0
295
     0
296
     0
143
0.125
1001
ACAD_MLEADERVER
1070
     2
  0
MLINESTYLE
  5
2A5
102
{ACAD_REACTORS
330
2A4
102
}
330
2A4
100
AcDbMlineStyle
  2
STANDARD
 70
     0
  3

 62
   256
 51
90.0
 52
90.0
 71
     2
 49
0.5
 62
   256
  6
BYLAYER
 49
-0.5
 62
   256
  6
BYLAYER
  0
ACDBPLACEHOLDER
  5
29D
102
{ACAD_REACTORS
330
29C
102
}
330
29C
  0
SCALE
  5
579
102
{ACAD_REACTORS
330
578
102
}
330
578
100
AcDbScale
 70
     0
300
1:1
140
1.0
141
1.0
290
     1
  0
SCALE
  5
57A
102
{ACAD_REACTORS
330
578
102
}
330
578
100
AcDbScale
 70
     0
300
1:2
140
1.0
141
2.0
290
     0
  0
SCALE
  5
57B
102
{ACAD_REACTORS
330
578
102
}
330
578
100
AcDbScale
 70
     0
300
1:4
140
1.0
141
4.0
290
     0
  0
SCALE
  5
57C
102
{ACAD_REACTORS
330
578
102
}
330
578
100
AcDbScale
 70
     0
300
1:5
140
1.0
141
5.0
290
     0
  0
SCALE
  5
57D
102
{ACAD_REACTORS
330
578
102
}
330
578
100
AcDbScale
 70
     0
300
1:8
140
1.0
141
8.0
290
     0
  0
SCALE
  5
57E
102
{ACAD_REACTORS
330
578
102
}
330
578
100
AcDbScale
 70
     0
300
1:10
140
1.0
141
10.0
290
     0
  0
SCALE
  5
57F
102
{ACAD_REACTORS
330
578
102
}
330
578
100
AcDbScale
 70
     0
300
1:16
140
1.0
141
16.0
290
     0
  0
SCALE
  5
580
102
{ACAD_REACTORS
330
578
102
}
330
578
100
AcDbScale
 70
     0
300
1:20
140
1.0
141
20.0
290
     0
  0
SCALE
  5
581
102
{ACAD_REACTORS
330
578
102
}
330
578
100
AcDbScale
 70
     0
300
1:30
140
1.0
141
30.0
290
     0
  0
SCALE
  5
582
102
{ACAD_REACTORS
330
578
102
}
330
578
100
AcDbScale
 70
     0
300
1:40
140
1.0
141
40.0
290
     0
  0
SCALE
  5
583
102
{ACAD_REACTORS
330
578
102
}
330
578
100
AcDbScale
 70
     0
300
1:50
140
1.0
141
50.0
290
     0
  0
SCALE
  5
584
102
{ACAD_REACTORS
330
578
102
}
330
578
100
AcDbScale
 70
     0
300
1:100
140
1.0
141
100.0
290
     0
  0
SCALE
  5
585
102
{ACAD_REACTORS
330
578
102
}
330
578
100
AcDbScale
 70
     0
300
2:1
140
2.0
141
1.0
290
     0
  0
SCALE
  5
586
102
{ACAD_REACTORS
330
578
102
}
330
578
100
AcDbScale
 70
     0
300
4:1
140
4.0
141
1.0
290
     0
  0
SCALE
  5
587
102
{ACAD_REACTORS
330
578
102
}
330
578
100
AcDbScale
 70
     0
300
8:1
140
8.0
141
1.0
290
     0
  0
SCALE
  5
588
102
{ACAD_REACTORS
330
578
102
}
330
578
100
AcDbScale
 70
     0
300
10:1
140
10.0
141
1.0
290
     0
  0
SCALE
  5
589
102
{ACAD_REACTORS
330
578
102
}
330
578
100
AcDbScale
 70
     0
300
100:1
140
100.0
141
1.0
290
     0
  0
SCALE
  5
58A
102
{ACAD_REACTORS
330
578
102
}
330
578
100
AcDbScale
 70
     0
300
1/128 = 1'-0
140
0.0078125
141
12.0
290
     0
  0
SCALE
  5
58B
102
{ACAD_REACTORS
330
578
102
}
330
578
100
AcDbScale
 70
     0
300
1/64 = 1'-0
140
0.015625
141
12.0
290
     0
  0
SCALE
  5
58C
102
{ACAD_REACTORS
330
578
102
}
330
578
100
AcDbScale
 70
     0
300
1/32 = 1'-0
140
0.03125
141
12.0
290
     0
  0
SCALE
  5
58D
102
{ACAD_REACTORS
330
578
102
}
330
578
100
AcDbScale
 70
     0
300
1/16 = 1'-0
140
0.0625
141
12.0
290
     0
  0
SCALE
  5
58E
102
{ACAD_REACTORS
330
578
102
}
330
578
100
AcDbScale
 70
     0
300
3/32 = 1'-0
140
0.09375
141
12.0
290
     0
  0
SCALE
  5
58F
102
{ACAD_REACTORS
330
578
102
}
330
578
100
AcDbScale
 70
     0
300
1/8 = 1'-0
140
0.125
141
12.0
290
     0
  0
SCALE
  5
590
102
{ACAD_REACTORS
330
578
102
}
330
578
100
AcDbScale
 70
     0
300
3/16 = 1'-0
140
0.1875
141
12.0
290
     0
  0
SCALE
  5
591
102
{ACAD_REACTORS
330
578
102
}
330
578
100
AcDbScale
 70
     0
300
1/4 = 1'-0
140
0.25
141
12.0
290
     0
  0
SCALE
  5
592
102
{ACAD_REACTORS
330
578
102
}
330
578
100
AcDbScale
 70
     0
300
3/8 = 1'-0
140
0.375
141
12.0
290
     0
  0
SCALE
  5
593
102
{ACAD_REACTORS
330
578
102
}
330
578
100
AcDbScale
 70
     0
300
1/2 = 1'-0
140
0.5
141
12.0
290
     0
  0
SCALE
  5
594
102
{ACAD_REACTORS
330
578
102
}
330
578
100
AcDbScale
 70
     0
300
3/4 = 1'-0
140
0.75
141
12.0
290
     0
  0
SCALE
  5
595
102
{ACAD_REACTORS
330
578
102
}
330
578
100
AcDbScale
 70
     0
300
1 = 1'-0
140
1.0
141
12.0
290
     0
  0
SCALE
  5
596
102
{ACAD_REACTORS
330
578
102
}
330
578
100
AcDbScale
 70
     0
300
1-1/2 = 1'-0
140
1.5
141
12.0
290
     0
  0
SCALE
  5
597
102
{ACAD_REACTORS
330
578
102
}
330
578
100
AcDbScale
 70
     0
300
3 = 1'-0
140
3.0
141
12.0
290
     0
  0
SCALE
  5
598
102
{ACAD_REACTORS
330
578
102
}
330
578
100
AcDbScale
 70
     0
300
6 = 1'-0
140
6.0
141
12.0
290
     0
  0
SCALE
  5
599
102
{ACAD_REACTORS
330
578
102
}
330
578
100
AcDbScale
 70
     0
300
1'-0 = 1'-0
140
12.0
141
12.0
290
     0
  0
TABLESTYLE
  5
577
102
{ACAD_XDICTIONARY
360
5E4
102
}
102
{ACAD_REACTORS
330
576
102
}
330
576
100
AcDbTableStyle
  3
Standard
 70
     0
 71
     0
 40
0.06
 41
0.06
280
     0
281
     0
  7
STANDARD
140
0.18
170
     2
 62
     0
 63
     7
283
     0
274
    -2
284
     1
 64
     0
275
    -2
285
     1
 65
     0
276
    -2
286
     1
 66
     0
277
    -2
287
     1
 67
     0
278
    -2
288
     1
 68
     0
279
    -2
289
     1
 69
     0
  7
STANDARD
140
0.25
170
     5
 62
     0
 63
     7
283
     0
274
    -2
284
     1
 64
     0
275
    -2
285
     1
 65
     0
276
    -2
286
     1
 66
     0
277
    -2
287
     1
 67
     0
278
    -2
288
     1
 68
     0
279
    -2
289
     1
 69
     0
  7
STANDARD
140
0.18
170
     5
 62
     0
 63
     7
283
     0
274
    -2
284
     1
 64
     0
275
    -2
285
     1
 65
     0
276
    -2
286
     1
 66
     0
277
    -2
287
     1
 67
     0
278
    -2
288
     1
 68
     0
279
    -2
289
     1
 69
     0
  0
VISUALSTYLE
  5
567
102
{ACAD_XDICTIONARY
360
1359
102
}
102
{ACAD_REACTORS
330
561
102
}
330
561
100
AcDbVisualStyle
  2

 70
     4
 71
     0
 72
     2
 73
     0
 90
        0
 40
-0.6
 41
-30.0
 62
     5
 63
     7
 74
     1
 91
        4
 64
     7
 65
   257
 75
     1
175
     1
 42
1.0
 92
        0
 66
   257
 43
1.0
 76
     1
 77
     6
 78
     2
 67
     7
 79
     5
170
     0
171
     0
290
     0
174
     0
 93
        1
 44
0.0
173
     0
291
     0
 45
0.0
1001
ACAD
1000
AcDbSavedByObjectVersion
1070
     0
  0
VISUALSTYLE
  5
569
102
{ACAD_XDICTIONARY
360
135D
102
}
102
{ACAD_REACTORS
330
561
102
}
330
561
100
AcDbVisualStyle
  2

 70
     6
 71
     1
 72
     2
 73
     2
 90
        0
 40
-0.6
 41
-30.0
 62
     5
 63
     7
 74
     2
 91
        2
 64
     7
 65
   257
 75
     2
175
     1
 42
179.0
 92
        0
 66
   257
 43
1.0
 76
     1
 77
     6
 78
     2
 67
     7
 79
     3
170
     0
171
     0
290
     0
174
     0
 93
        1
 44
0.0
173
     0
291
     0
 45
0.0
1001
ACAD
1000
AcDbSavedByObjectVersion
1070
     0
  0
VISUALSTYLE
  5
568
102
{ACAD_XDICTIONARY
360
135B
102
}
102
{ACAD_REACTORS
330
561
102
}
330
561
100
AcDbVisualStyle
  2

 70
     5
 71
     0
 72
     2
 73
     0
 90
        0
 40
-0.6
 41
-30.0
 62
     5
 63
     7
 74
     1
 91
        4
 64
     7
 65
   257
 75
     1
175
     1
 42
1.0
 92
        0
 66
   257
 43
1.0
 76
     1
 77
     6
 78
     2
 67
     7
 79
     5
170
     0
171
     0
290
     0
174
     0
 93
        1
 44
0.0
173
     0
291
     0
 45
0.0
1001
ACAD
1000
AcDbSavedByObjectVersion
1070
     0
  0
VISUALSTYLE
  5
566
102
{ACAD_XDICTIONARY
360
1357
102
}
102
{ACAD_REACTORS
330
561
102
}
330
561
100
AcDbVisualStyle
  2

 70
     7
 71
     1
 72
     0
 73
     1
 90
        0
 40
-0.6
 41
-30.0
 62
     5
 63
     7
 74
     0
 91
        4
 64
     7
 65
   257
 75
     1
175
     1
 42
1.0
 92
        8
 66
     7
 43
1.0
 76
     1
 77
     6
 78
     2
 67
     7
 79
     5
170
     0
171
     0
290
     0
174
     0
 93
        1
 44
0.0
173
     0
291
     1
 45
0.0
1001
ACAD
1000
AcDbSavedByObjectVersion
1070
     0
  0
VISUALSTYLE
  5
56D
102
{ACAD_XDICTIONARY
360
1365
102
}
102
{ACAD_REACTORS
330
561
102
}
330
561
100
AcDbVisualStyle
  2

 70
    12
 71
     2
 72
     2
 73
     0
 90
        0
 40
-0.6
 41
-30.0
 62
     5
 63
     7
 74
     1
 91
        4
 64
     7
 65
   257
 75
     1
175
     1
 42
1.0
 92
        8
 66
     7
 43
1.0
 76
     1
 77
     6
 78
     2
 67
     7
 79
     5
170
     0
171
     0
290
     0
174
     0
 93
        1
 44
50.0
173
     0
291
     1
 45
0.0
1001
ACAD
1000
AcDbSavedByObjectVersion
1070
     0
  0
VISUALSTYLE
  5
571
102
{ACAD_XDICTIONARY
360
136D
102
}
102
{ACAD_REACTORS
330
561
102
}
330
561
100
AcDbVisualStyle
  2

 70
    16
 71
     2
 72
     2
 73
     3
 90
        0
 40
-0.6
 41
-30.0
 62
     5
 63
     8
 74
     1
 91
        4
 64
     7
 65
   257
 75
     1
175
     1
 42
1.0
 92
        8
 66
     8
 43
1.0
 76
     1
 77
     6
 78
     2
 67
     7
 79
     5
170
     0
171
     0
290
     0
174
     0
 93
        1
 44
0.0
173
     0
291
     1
 45
0.0
1001
ACAD
1000
AcDbSavedByObjectVersion
1070
     0
  0
VISUALSTYLE
  5
56A
102
{ACAD_XDICTIONARY
360
135F
102
}
102
{ACAD_REACTORS
330
561
102
}
330
561
100
AcDbVisualStyle
  2

 70
     9
 71
     3
 72
     2
 73
     0
 90
        0
 40
-0.6
 41
-30.0
 62
     5
 63
     7
 74
     2
 91
        2
 64
     7
 65
   257
 75
     1
175
     1
 42
179.0
 92
        8
 66
     7
 43
1.0
 76
     1
 77
     6
 78
     2
 67
     7
 79
     3
170
     0
171
     0
290
     0
174
     0
 93
        1
 44
0.0
173
     0
291
     0
 45
0.0
1001
ACAD
1000
AcDbSavedByObjectVersion
1070
     0
  0
VISUALSTYLE
  5
56C
102
{ACAD_XDICTIONARY
360
1363
102
}
102
{ACAD_REACTORS
330
561
102
}
330
561
100
AcDbVisualStyle
  2

 70
    11
 71
     2
 72
     2
 73
     0
 90
        0
 40
-0.6
 41
-30.0
 62
     5
 63
     7
 74
     1
 91
        4
 64
     7
 65
   257
 75
     1
175
     1
 42
1.0
 92
        8
 66
     7
 43
1.0
 76
     1
 77
     6
 78
     2
 67
     7
 79
     5
170
     0
171
     0
290
     0
174
     0
 93
        1
 44
-50.0
173
     0
291
     1
 45
0.0
1001
ACAD
1000
AcDbSavedByObjectVersion
1070
     0
  0
VISUALSTYLE
  5
574
102
{ACAD_XDICTIONARY
360
1373
102
}
102
{ACAD_REACTORS
330
561
102
}
330
561
100
AcDbVisualStyle
  2

 70
    22
 71
     2
 72
     2
 73
     0
 90
        0
 40
-0.6
 41
-30.0
 62
     5
 63
     7
 74
     1
 91
        4
 64
     7
 65
   257
 75
     1
175
     1
 42
1.0
 92
        8
 66
     7
 43
1.0
 76
     1
 77
     6
 78
     2
 67
     7
 79
     5
170
     0
171
     0
290
     0
174
     0
 93
        1
 44
0.0
173
     0
291
     1
 45
0.0
1001
ACAD
1000
AcDbSavedByObjectVersion
1070
     0
  0
VISUALSTYLE
  5
570
102
{ACAD_XDICTIONARY
360
136B
102
}
102
{ACAD_REACTORS
330
561
102
}
330
561
100
AcDbVisualStyle
  2

 70
    15
 71
     2
 72
     2
 73
     0
 90
        0
 40
-0.6
 41
-30.0
 62
     5
 63
     7
 74
     1
 91
        4
 64
     7
 65
   257
 75
     1
175
     1
 42
1.0
 92
        8
 66
     7
 43
1.0
 76
     1
 77
     6
 78
     2
 67
     7
 79
     5
170
     0
171
     0
290
     0
174
     0
 93
        1
 44
0.0
173
     0
291
     1
 45
0.0
1001
ACAD
1000
AcDbSavedByObjectVersion
1070
     0
  0
VISUALSTYLE
  5
562
102
{ACAD_XDICTIONARY
360
134F
102
}
102
{ACAD_REACTORS
330
561
102
}
330
561
100
AcDbVisualStyle
  2

 70
     0
 71
     2
 72
     1
 73
     1
 90
        2
 40
-0.6
 41
30.0
 62
     5
 63
     7
 74
     0
 91
        4
 64
     7
 65
   257
 75
     1
175
     1
 42
1.0
 92
        8
 66
     7
 43
1.0
 76
     1
 77
     6
 78
     2
 67
     7
 79
     5
170
     0
171
     0
290
     0
174
     0
 93
       13
 44
0.0
173
     0
291
     1
 45
0.0
1001
ACAD
1000
AcDbSavedByObjectVersion
1070
     0
  0
VISUALSTYLE
  5
563
102
{ACAD_XDICTIONARY
360
1351
102
}
102
{ACAD_REACTORS
330
561
102
}
330
561
100
AcDbVisualStyle
  2

 70
     1
 71
     2
 72
     1
 73
     1
 90
        2
 40
-0.6
 41
30.0
 62
     5
 63
     7
 74
     1
 91
        4
 64
     7
 65
   257
 75
     1
175
     1
 42
1.0
 92
        0
 66
   257
 43
1.0
 76
     1
 77
     6
 78
     2
 67
     7
 79
     5
170
     0
171
     0
290
     0
174
     0
 93
       13
 44
0.0
173
     0
291
     1
 45
0.0
1001
ACAD
1000
AcDbSavedByObjectVersion
1070
     0
  0
VISUALSTYLE
  5
564
102
{ACAD_XDICTIONARY
360
1353
102
}
102
{ACAD_REACTORS
330
561
102
}
330
561
100
AcDbVisualStyle
  2

 70
     2
 71
     2
 72
     2
 73
     1
 90
        2
 40
-0.6
 41
30.0
 62
     5
 63
     7
 74
     0
 91
        4
 64
     7
 65
   257
 75
     1
175
     1
 42
1.0
 92
        0
 66
     7
 43
1.0
 76
     1
 77
     6
 78
     2
 67
     7
 79
     5
170
     0
171
     0
290
     0
174
     0
 93
       13
 44
0.0
173
     0
291
     1
 45
0.0
1001
ACAD
1000
AcDbSavedByObjectVersion
1070
     0
  0
VISUALSTYLE
  5
565
102
{ACAD_XDICTIONARY
360
1355
102
}
102
{ACAD_REACTORS
330
561
102
}
330
561
100
AcDbVisualStyle
  2

 70
     3
 71
     2
 72
     2
 73
     1
 90
        2
 40
-0.6
 41
30.0
 62
     5
 63
     7
 74
     1
 91
        4
 64
     7
 65
   257
 75
     1
175
     1
 42
1.0
 92
        0
 66
   257
 43
1.0
 76
     1
 77
     6
 78
     2
 67
     7
 79
     5
170
     0
171
     0
290
     0
174
     0
 93
       13
 44
0.0
173
     0
291
     1
 45
0.0
1001
ACAD
1000
AcDbSavedByObjectVersion
1070
     0
  0
VISUALSTYLE
  5
572
102
{ACAD_XDICTIONARY
360
136F
102
}
102
{ACAD_REACTORS
330
561
102
}
330
561
100
AcDbVisualStyle
  2

 70
    20
 71
     2
 72
     2
 73
     0
 90
        0
 40
-0.6
 41
-30.0
 62
     5
 63
     7
 74
     1
 91
        4
 64
     7
 65
   257
 75
     1
175
     1
 42
1.0
 92
       10
 66
     7
 43
1.0
 76
     1
 77
     6
 78
     2
 67
     7
 79
     5
170
     0
171
     0
290
     0
174
     0
 93
        1
 44
0.0
173
     0
291
     1
 45
0.0
1001
ACAD
1000
AcDbSavedByObjectVersion
1070
     0
  0
VISUALSTYLE
  5
56F
102
{ACAD_XDICTIONARY
360
1369
102
}
102
{ACAD_REACTORS
330
561
102
}
330
561
100
AcDbVisualStyle
  2

 70
    14
 71
     2
 72
     2
 73
     0
 90
        0
 40
-0.6
 41
-30.0
 62
     5
 63
     7
 74
     1
 91
        4
 64
     7
 65
   257
 75
     7
175
     7
 42
1.0
 92
        8
 66
     7
 43
1.0
 76
     1
 77
     6
 78
     2
 67
     7
 79
     5
170
     0
171
     0
290
     0
174
     0
 93
        1
 44
0.0
173
     0
291
     1
 45
0.0
1001
ACAD
1000
AcDbSavedByObjectVersion
1070
     0
  0
VISUALSTYLE
  5
573
102
{ACAD_XDICTIONARY
360
1371
102
}
102
{ACAD_REACTORS
330
561
102
}
330
561
100
AcDbVisualStyle
  2

 70
    21
 71
     2
 72
     2
 73
     0
 90
        0
 40
-0.6
 41
-30.0
 62
     5
 63
     7
 74
     1
 91
        4
 64
     7
 65
   257
 75
     1
175
     1
 42
1.0
 92
        9
 66
     7
 43
1.0
 76
     1
 77
     6
 78
     2
 67
     7
 79
     5
170
     0
171
     0
290
     0
174
     0
 93
        1
 44
0.0
173
     0
291
     1
 45
0.0
1001
ACAD
1000
AcDbSavedByObjectVersion
1070
     0
  0
VISUALSTYLE
  5
56B
102
{ACAD_XDICTIONARY
360
1361
102
}
102
{ACAD_REACTORS
330
561
102
}
330
561
100
AcDbVisualStyle
  2

 70
     8
 71
     2
 72
     2
 73
     0
 90
        0
 40
-0.6
 41
-30.0
 62
     5
 63
     7
 74
     1
 91
        0
 64
     7
 65
   257
 75
     1
175
     1
 42
1.0
 92
        8
 66
     8
 43
1.0
 76
     1
 77
     6
 78
     2
 67
     7
 79
     5
170
     0
171
     0
290
     0
174
     0
 93
       13
 44
0.0
173
     0
291
     0
 45
0.0
1001
ACAD
1000
AcDbSavedByObjectVersion
1070
     0
  0
VISUALSTYLE
  5
56E
102
{ACAD_XDICTIONARY
360
1367
102
}
102
{ACAD_REACTORS
330
561
102
}
330
561
100
AcDbVisualStyle
  2

 70
    13
 71
     2
 72
     2
 73
     0
 90
        0
 40
-0.6
 41
-30.0
 62
     5
 63
     7
 74
     1
 91
        4
 64
     7
 65
   257
 75
     1
175
     1
 42
1.0
 92
       12
 66
     7
 43
1.0
 76
     1
 77
     6
 78
     2
 67
     7
 79
     5
170
     0
171
     0
290
     0
174
     0
 93
        1
 44
0.0
173
     0
291
     1
 45
0.0
1001
ACAD
1000
AcDbSavedByObjectVersion
1070
     0
  0
DICTIONARYVAR
  5
5DF
102
{ACAD_REACTORS
330
5DC
102
}
330
5DC
100
DictionaryVariables
280
     0
  1
1:1
  0
DICTIONARYVAR
  5
5DE
102
{ACAD_REACTORS
330
5DC
102
}
330
5DC
100
DictionaryVariables
280
     0
  1
STANDARD
  0
DICTIONARYVAR
  5
5DD
102
{ACAD_REACTORS
330
5DC
102
}
330
5DC
100
DictionaryVariables
280
     0
  1
STANDARD
  0
DICTIONARYVAR
  5
5E2
102
{ACAD_REACTORS
330
5DC
102
}
330
5DC
100
DictionaryVariables
280
     0
  1
1
  0
DICTIONARYVAR
  5
5E1
102
{ACAD_REACTORS
330
5DC
102
}
330
5DC
100
DictionaryVariables
280
     0
  1
0
  0
DICTIONARYVAR
  5
5E0
102
{ACAD_REACTORS
330
5DC
102
}
330
5DC
100
DictionaryVariables
280
     0
  1
127
  0
DICTIONARYVAR
  5
1113
102
{ACAD_REACTORS
330
5DC
102
}
330
5DC
100
DictionaryVariables
280
     0
  1
2
  0
DICTIONARY
  5
134B
330
2AB
100
AcDbDictionary
280
     1
281
     1
  3
ACAD_XREC_ROUNDTRIP
360
134C
  0
DICTIONARY
  5
134D
330
2AF
100
AcDbDictionary
280
     1
281
     1
  3
ACAD_XREC_ROUNDTRIP
360
134E
  0
DICTIONARY
  5
552
330
551
100
AcDbDictionary
280
     1
281
     1
  3
ACAD_XREC_ROUNDTRIP
360
5ED
  3
BUMPTILE
360
554
  3
DIFFUSETILE
360
553
  3
OPACITYTILE
360
557
  3
REFLECTIONTILE
360
556
  3
REFRACTIONTILE
360
558
  3
SPECULARTILE
360
555
  0
DICTIONARY
  5
54A
330
549
100
AcDbDictionary
280
     1
281
     1
  3
ACAD_XREC_ROUNDTRIP
360
5EC
  3
BUMPTILE
360
54C
  3
DIFFUSETILE
360
54B
  3
OPACITYTILE
360
54F
  3
REFLECTIONTILE
360
54E
  3
REFRACTIONTILE
360
550
  3
SPECULARTILE
360
54D
  0
DICTIONARY
  5
55A
330
559
100
AcDbDictionary
280
     1
281
     1
  3
ACAD_XREC_ROUNDTRIP
360
5EE
  3
BUMPTILE
360
55C
  3
DIFFUSETILE
360
55B
  3
OPACITYTILE
360
55F
  3
REFLECTIONTILE
360
55E
  3
REFRACTIONTILE
360
560
  3
SPECULARTILE
360
55D
  0
DICTIONARY
  5
5E4
330
577
100
AcDbDictionary
280
     1
281
     1
  3
ACAD_ROUNDTRIP_2008_TABLESTYLE_CELLSTYLEMAP
360
1348
  3
ACAD_XREC_ROUNDTRIP
360
1375
  0
DICTIONARY
  5
1359
330
567
100
AcDbDictionary
280
     1
281
     1
  3
ACAD_XREC_ROUNDTRIP
360
135A
  0
DICTIONARY
  5
135D
330
569
100
AcDbDictionary
280
     1
281
     1
  3
ACAD_XREC_ROUNDTRIP
360
135E
  0
DICTIONARY
  5
135B
330
568
100
AcDbDictionary
280
     1
281
     1
  3
ACAD_XREC_ROUNDTRIP
360
135C
  0
DICTIONARY
  5
1357
330
566
100
AcDbDictionary
280
     1
281
     1
  3
ACAD_XREC_ROUNDTRIP
360
1358
  0
DICTIONARY
  5
1365
330
56D
100
AcDbDictionary
280
     1
281
     1
  3
ACAD_XREC_ROUNDTRIP
360
1366
  0
DICTIONARY
  5
136D
330
571
100
AcDbDictionary
280
     1
281
     1
  3
ACAD_XREC_ROUNDTRIP
360
136E
  0
DICTIONARY
  5
135F
330
56A
100
AcDbDictionary
280
     1
281
     1
  3
ACAD_XREC_ROUNDTRIP
360
1360
  0
DICTIONARY
  5
1363
330
56C
100
AcDbDictionary
280
     1
281
     1
  3
ACAD_XREC_ROUNDTRIP
360
1364
  0
DICTIONARY
  5
1373
330
574
100
AcDbDictionary
280
     1
281
     1
  3
ACAD_XREC_ROUNDTRIP
360
1374
  0
DICTIONARY
  5
136B
330
570
100
AcDbDictionary
280
     1
281
     1
  3
ACAD_XREC_ROUNDTRIP
360
136C
  0
DICTIONARY
  5
134F
330
562
100
AcDbDictionary
280
     1
281
     1
  3
ACAD_XREC_ROUNDTRIP
360
1350
  0
DICTIONARY
  5
1351
330
563
100
AcDbDictionary
280
     1
281
     1
  3
ACAD_XREC_ROUNDTRIP
360
1352
  0
DICTIONARY
  5
1353
330
564
100
AcDbDictionary
280
     1
281
     1
  3
ACAD_XREC_ROUNDTRIP
360
1354
  0
DICTIONARY
  5
1355
330
565
100
AcDbDictionary
280
     1
281
     1
  3
ACAD_XREC_ROUNDTRIP
360
1356
  0
DICTIONARY
  5
136F
330
572
100
AcDbDictionary
280
     1
281
     1
  3
ACAD_XREC_ROUNDTRIP
360
1370
  0
DICTIONARY
  5
1369
330
56F
100
AcDbDictionary
280
     1
281
     1
  3
ACAD_XREC_ROUNDTRIP
360
136A
  0
DICTIONARY
  5
1371
330
573
100
AcDbDictionary
280
     1
281
     1
  3
ACAD_XREC_ROUNDTRIP
360
1372
  0
DICTIONARY
  5
1361
330
56B
100
AcDbDictionary
280
     1
281
     1
  3
ACAD_XREC_ROUNDTRIP
360
1362
  0
DICTIONARY
  5
1367
330
56E
100
AcDbDictionary
280
     1
281
     1
  3
ACAD_XREC_ROUNDTRIP
360
1368
  0
XRECORD
  5
134C
102
{ACAD_REACTORS
330
134B
102
}
330
134B
100
AcDbXrecord
280
     1
102
SHADEPLOT
 70
     0
102
SHADEPLOTRESLEVEL
 70
     2
102
SHADEPLOTCUSTOMDPI
 70
   300
  0
XRECORD
  5
134E
102
{ACAD_REACTORS
330
134D
102
}
330
134D
100
AcDbXrecord
280
     1
102
SHADEPLOT
 70
     0
102
SHADEPLOTRESLEVEL
 70
     2
102
SHADEPLOTCUSTOMDPI
 70
   300
  0
XRECORD
  5
5ED
102
{ACAD_REACTORS
330
552
102
}
330
552
100
AcDbXrecord
280
     1
102
MATERIAL
148
0.0
149
0.0
149
0.0
 93
        0
 94
      127
282
     0
 72
     0
 77
     0
171
     0
175
     0
179
     0
273
     0
  0
XRECORD
  5
554
102
{ACAD_REACTORS
330
552
102
}
330
552
100
AcDbXrecord
280
     1
270
     1
271
     1
  0
XRECORD
  5
553
102
{ACAD_REACTORS
330
552
102
}
330
552
100
AcDbXrecord
280
     1
270
     1
271
     1
  0
XRECORD
  5
557
102
{ACAD_REACTORS
330
552
102
}
330
552
100
AcDbXrecord
280
     1
270
     1
271
     1
  0
XRECORD
  5
556
102
{ACAD_REACTORS
330
552
102
}
330
552
100
AcDbXrecord
280
     1
270
     1
271
     1
  0
XRECORD
  5
558
102
{ACAD_REACTORS
330
552
102
}
330
552
100
AcDbXrecord
280
     1
270
     1
271
     1
  0
XRECORD
  5
555
102
{ACAD_REACTORS
330
552
102
}
330
552
100
AcDbXrecord
280
     1
270
     1
271
     1
  0
XRECORD
  5
5EC
102
{ACAD_REACTORS
330
54A
102
}
330
54A
100
AcDbXrecord
280
     1
102
MATERIAL
148
0.0
149
0.0
149
0.0
 93
        0
 94
      127
282
     0
 72
     0
 77
     0
171
     0
175
     0
179
     0
273
     0
  0
XRECORD
  5
54C
102
{ACAD_REACTORS
330
54A
102
}
330
54A
100
AcDbXrecord
280
     1
270
     1
271
     1
  0
XRECORD
  5
54B
102
{ACAD_REACTORS
330
54A
102
}
330
54A
100
AcDbXrecord
280
     1
270
     1
271
     1
  0
XRECORD
  5
54F
102
{ACAD_REACTORS
330
54A
102
}
330
54A
100
AcDbXrecord
280
     1
270
     1
271
     1
  0
XRECORD
  5
54E
102
{ACAD_REACTORS
330
54A
102
}
330
54A
100
AcDbXrecord
280
     1
270
     1
271
     1
  0
XRECORD
  5
550
102
{ACAD_REACTORS
330
54A
102
}
330
54A
100
AcDbXrecord
280
     1
270
     1
271
     1
  0
XRECORD
  5
54D
102
{ACAD_REACTORS
330
54A
102
}
330
54A
100
AcDbXrecord
280
     1
270
     1
271
     1
  0
XRECORD
  5
5EE
102
{ACAD_REACTORS
330
55A
102
}
330
55A
100
AcDbXrecord
280
     1
102
MATERIAL
148
0.0
149
0.0
149
0.0
 93
        0
 94
      127
282
     0
 72
     0
 77
     0
171
     0
175
     0
179
     0
273
     0
  0
XRECORD
  5
55C
102
{ACAD_REACTORS
330
55A
102
}
330
55A
100
AcDbXrecord
280
     1
270
     1
271
     1
  0
XRECORD
  5
55B
102
{ACAD_REACTORS
330
55A
102
}
330
55A
100
AcDbXrecord
280
     1
270
     1
271
     1
  0
XRECORD
  5
55F
102
{ACAD_REACTORS
330
55A
102
}
330
55A
100
AcDbXrecord
280
     1
270
     1
271
     1
  0
XRECORD
  5
55E
102
{ACAD_REACTORS
330
55A
102
}
330
55A
100
AcDbXrecord
280
     1
270
     1
271
     1
  0
XRECORD
  5
560
102
{ACAD_REACTORS
330
55A
102
}
330
55A
100
AcDbXrecord
280
     1
270
     1
271
     1
  0
XRECORD
  5
55D
102
{ACAD_REACTORS
330
55A
102
}
330
55A
100
AcDbXrecord
280
     1
270
     1
271
     1
  0
CELLSTYLEMAP
  5
1348
102
{ACAD_REACTORS
330
5E4
102
}
330
5E4
100
AcDbCellStyleMap
 90
        3
300
CELLSTYLE
  1
TABLEFORMAT_BEGIN
 90
        5
170
     1
 91
        0
 92
    32768
 62
   257
 93
        1
300
CONTENTFORMAT
  1
CONTENTFORMAT_BEGIN
 90
        0
 91
        0
 92
      512
 93
        0
300

 40
0.0
140
1.0
 94
        5
 62
     0
340
29F
144
0.25
309
CONTENTFORMAT_END
171
     1
301
MARGIN
  1
CELLMARGIN_BEGIN
 40
0.06
 40
0.06
 40
0.06
 40
0.06
 40
0.18
 40
0.18
309
CELLMARGIN_END
 94
        6
 95
        1
302
GRIDFORMAT
  1
GRIDFORMAT_BEGIN
 90
        0
 91
        1
 62
     0
 92
       -2
340
0
 93
        0
 40
0.045
309
GRIDFORMAT_END
 95
        2
302
GRIDFORMAT
  1
GRIDFORMAT_BEGIN
 90
        0
 91
        1
 62
     0
 92
       -2
340
0
 93
        0
 40
0.045
309
GRIDFORMAT_END
 95
        4
302
GRIDFORMAT
  1
GRIDFORMAT_BEGIN
 90
        0
 91
        1
 62
     0
 92
       -2
340
0
 93
        0
 40
0.045
309
GRIDFORMAT_END
 95
        8
302
GRIDFORMAT
  1
GRIDFORMAT_BEGIN
 90
        0
 91
        1
 62
     0
 92
       -2
340
0
 93
        0
 40
0.045
309
GRIDFORMAT_END
 95
       16
302
GRIDFORMAT
  1
GRIDFORMAT_BEGIN
 90
        0
 91
        1
 62
     0
 92
       -2
340
0
 93
        0
 40
0.045
309
GRIDFORMAT_END
 95
       32
302
GRIDFORMAT
  1
GRIDFORMAT_BEGIN
 90
        0
 91
        1
 62
     0
 92
       -2
340
0
 93
        0
 40
0.045
309
GRIDFORMAT_END
309
TABLEFORMAT_END
  1
CELLSTYLE_BEGIN
 90
        1
 91
        1
300
_TITLE
309
CELLSTYLE_END
300
CELLSTYLE
  1
TABLEFORMAT_BEGIN
 90
        5
170
     1
 91
        0
 92
        0
 62
   257
 93
        1
300
CONTENTFORMAT
  1
CONTENTFORMAT_BEGIN
 90
        0
 91
        0
 92
      512
 93
        0
300

 40
0.0
140
1.0
 94
        5
 62
     0
340
29F
144
0.18
309
CONTENTFORMAT_END
171
     1
301
MARGIN
  1
CELLMARGIN_BEGIN
 40
0.06
 40
0.06
 40
0.06
 40
0.06
 40
0.18
 40
0.18
309
CELLMARGIN_END
 94
        6
 95
        1
302
GRIDFORMAT
  1
GRIDFORMAT_BEGIN
 90
        0
 91
        1
 62
     0
 92
       -2
340
0
 93
        0
 40
0.045
309
GRIDFORMAT_END
 95
        2
302
GRIDFORMAT
  1
GRIDFORMAT_BEGIN
 90
        0
 91
        1
 62
     0
 92
       -2
340
0
 93
        0
 40
0.045
309
GRIDFORMAT_END
 95
        4
302
GRIDFORMAT
  1
GRIDFORMAT_BEGIN
 90
        0
 91
        1
 62
     0
 92
       -2
340
0
 93
        0
 40
0.045
309
GRIDFORMAT_END
 95
        8
302
GRIDFORMAT
  1
GRIDFORMAT_BEGIN
 90
        0
 91
        1
 62
     0
 92
       -2
340
0
 93
        0
 40
0.045
309
GRIDFORMAT_END
 95
       16
302
GRIDFORMAT
  1
GRIDFORMAT_BEGIN
 90
        0
 91
        1
 62
     0
 92
       -2
340
0
 93
        0
 40
0.045
309
GRIDFORMAT_END
 95
       32
302
GRIDFORMAT
  1
GRIDFORMAT_BEGIN
 90
        0
 91
        1
 62
     0
 92
       -2
340
0
 93
        0
 40
0.045
309
GRIDFORMAT_END
309
TABLEFORMAT_END
  1
CELLSTYLE_BEGIN
 90
        2
 91
        1
300
_HEADER
309
CELLSTYLE_END
300
CELLSTYLE
  1
TABLEFORMAT_BEGIN
 90
        5
170
     1
 91
        0
 92
        0
 62
   257
 93
        1
300
CONTENTFORMAT
  1
CONTENTFORMAT_BEGIN
 90
        0
 91
        0
 92
      512
 93
        0
300

 40
0.0
140
1.0
 94
        2
 62
     0
340
29F
144
0.18
309
CONTENTFORMAT_END
171
     1
301
MARGIN
  1
CELLMARGIN_BEGIN
 40
0.06
 40
0.06
 40
0.06
 40
0.06
 40
0.18
 40
0.18
309
CELLMARGIN_END
 94
        6
 95
        1
302
GRIDFORMAT
  1
GRIDFORMAT_BEGIN
 90
        0
 91
        1
 62
     0
 92
       -2
340
0
 93
        0
 40
0.045
309
GRIDFORMAT_END
 95
        2
302
GRIDFORMAT
  1
GRIDFORMAT_BEGIN
 90
        0
 91
        1
 62
     0
 92
       -2
340
0
 93
        0
 40
0.045
309
GRIDFORMAT_END
 95
        4
302
GRIDFORMAT
  1
GRIDFORMAT_BEGIN
 90
        0
 91
        1
 62
     0
 92
       -2
340
0
 93
        0
 40
0.045
309
GRIDFORMAT_END
 95
        8
302
GRIDFORMAT
  1
GRIDFORMAT_BEGIN
 90
        0
 91
        1
 62
     0
 92
       -2
340
0
 93
        0
 40
0.045
309
GRIDFORMAT_END
 95
       16
302
GRIDFORMAT
  1
GRIDFORMAT_BEGIN
 90
        0
 91
        1
 62
     0
 92
       -2
340
0
 93
        0
 40
0.045
309
GRIDFORMAT_END
 95
       32
302
GRIDFORMAT
  1
GRIDFORMAT_BEGIN
 90
        0
 91
        1
 62
     0
 92
       -2
340
0
 93
        0
 40
0.045
309
GRIDFORMAT_END
309
TABLEFORMAT_END
  1
CELLSTYLE_BEGIN
 90
        3
 91
        2
300
_DATA
309
CELLSTYLE_END
  0
XRECORD
  5
1375
102
{ACAD_REACTORS
330
5E4
102
}
330
5E4
100
AcDbXrecord
280
     1
102
ACAD_ROUNDTRIP_PRE2007_TABLESTYLE
 90
      512
 91
        0
  1

 92
      512
 93
        0
  2

 94
      512
 95
        0
  3

  0
XRECORD
  5
135A
102
{ACAD_REACTORS
330
1359
102
}
330
1359
100
AcDbXrecord
280
     1
102
RTVSPropertyOp0
 70
     1
102
RTVSPropertyOp1
 70
     1
102
RTVSPropertyOp2
 70
     1
102
RTVSPropertyOp3
 70
     1
102
RTVSPropertyOp4
 70
     1
102
RTVSPropertyOp5
 70
     1
102
RTVSPropertyOp6
 70
     1
102
RTVSPropertyOp7
 70
     1
102
RTVSPropertyOp8
 70
     1
102
RTVSPropertyOp9
 70
     1
102
RTVSPropertyOp10
 70
     1
102
RTVSPropertyOp11
 70
     1
102
RTVSPropertyOp12
 70
     1
102
RTVSPropertyOp13
 70
     1
102
RTVSPropertyOp14
 70
     1
102
RTVSPropertyOp15
 70
     1
102
RTVSPropertyOp16
 70
     1
102
RTVSPropertyOp17
 70
     1
102
RTVSPropertyOp18
 70
     1
102
RTVSPropertyOp19
 70
     1
102
RTVSPropertyOp20
 70
     1
102
RTVSPropertyOp21
 70
     1
102
RTVSPropertyOp22
 70
     1
102
RTVSPropertyOp23
 70
     1
102
RTVSPropertyOp24
 70
     1
102
RTVSPropertyOp25
 70
     1
102
RTVSPropertyOp26
 70
     1
102
RTVSPropertyOp27
 70
     1
  0
XRECORD
  5
135E
102
{ACAD_REACTORS
330
135D
102
}
330
135D
100
AcDbXrecord
280
     1
102
RTVSPropertyOp0
 70
     1
102
RTVSPropertyOp1
 70
     1
102
RTVSPropertyOp2
 70
     1
102
RTVSPropertyOp3
 70
     1
102
RTVSPropertyOp4
 70
     1
102
RTVSPropertyOp5
 70
     1
102
RTVSPropertyOp6
 70
     1
102
RTVSPropertyOp7
 70
     1
102
RTVSPropertyOp8
 70
     1
102
RTVSPropertyOp9
 70
     1
102
RTVSPropertyOp10
 70
     1
102
RTVSPropertyOp11
 70
     1
102
RTVSPropertyOp12
 70
     1
102
RTVSPropertyOp13
 70
     1
102
RTVSPropertyOp14
 70
     1
102
RTVSPropertyOp15
 70
     1
102
RTVSPropertyOp16
 70
     1
102
RTVSPropertyOp17
 70
     1
102
RTVSPropertyOp18
 70
     1
102
RTVSPropertyOp19
 70
     1
102
RTVSPropertyOp20
 70
     1
102
RTVSPropertyOp21
 70
     1
102
RTVSPropertyOp22
 70
     1
102
RTVSPropertyOp23
 70
     1
102
RTVSPropertyOp24
 70
     1
102
RTVSPropertyOp25
 70
     1
102
RTVSPropertyOp26
 70
     1
102
RTVSPropertyOp27
 70
     1
  0
XRECORD
  5
135C
102
{ACAD_REACTORS
330
135B
102
}
330
135B
100
AcDbXrecord
280
     1
102
RTVSPropertyOp0
 70
     1
102
RTVSPropertyOp1
 70
     1
102
RTVSPropertyOp2
 70
     1
102
RTVSPropertyOp3
 70
     1
102
RTVSPropertyOp4
 70
     1
102
RTVSPropertyOp5
 70
     1
102
RTVSPropertyOp6
 70
     1
102
RTVSPropertyOp7
 70
     1
102
RTVSPropertyOp8
 70
     1
102
RTVSPropertyOp9
 70
     1
102
RTVSPropertyOp10
 70
     1
102
RTVSPropertyOp11
 70
     1
102
RTVSPropertyOp12
 70
     1
102
RTVSPropertyOp13
 70
     1
102
RTVSPropertyOp14
 70
     1
102
RTVSPropertyOp15
 70
     1
102
RTVSPropertyOp16
 70
     1
102
RTVSPropertyOp17
 70
     1
102
RTVSPropertyOp18
 70
     1
102
RTVSPropertyOp19
 70
     1
102
RTVSPropertyOp20
 70
     1
102
RTVSPropertyOp21
 70
     1
102
RTVSPropertyOp22
 70
     1
102
RTVSPropertyOp23
 70
     1
102
RTVSPropertyOp24
 70
     1
102
RTVSPropertyOp25
 70
     1
102
RTVSPropertyOp26
 70
     1
102
RTVSPropertyOp27
 70
     1
  0
XRECORD
  5
1358
102
{ACAD_REACTORS
330
1357
102
}
330
1357
100
AcDbXrecord
280
     1
102
RTVSPropertyOp0
 70
     1
102
RTVSPropertyOp1
 70
     1
102
RTVSPropertyOp2
 70
     1
102
RTVSPropertyOp3
 70
     1
102
RTVSPropertyOp4
 70
     1
102
RTVSPropertyOp5
 70
     1
102
RTVSPropertyOp6
 70
     1
102
RTVSPropertyOp7
 70
     1
102
RTVSPropertyOp8
 70
     1
102
RTVSPropertyOp9
 70
     1
102
RTVSPropertyOp10
 70
     1
102
RTVSPropertyOp11
 70
     1
102
RTVSPropertyOp12
 70
     1
102
RTVSPropertyOp13
 70
     1
102
RTVSPropertyOp14
 70
     1
102
RTVSPropertyOp15
 70
     1
102
RTVSPropertyOp16
 70
     1
102
RTVSPropertyOp17
 70
     1
102
RTVSPropertyOp18
 70
     1
102
RTVSPropertyOp19
 70
     1
102
RTVSPropertyOp20
 70
     1
102
RTVSPropertyOp21
 70
     1
102
RTVSPropertyOp22
 70
     1
102
RTVSPropertyOp23
 70
     1
102
RTVSPropertyOp24
 70
     1
102
RTVSPropertyOp25
 70
     1
102
RTVSPropertyOp26
 70
     1
102
RTVSPropertyOp27
 70
     1
  0
XRECORD
  5
1366
102
{ACAD_REACTORS
330
1365
102
}
330
1365
100
AcDbXrecord
280
     1
102
RTVSPropertyOp0
 70
     1
102
RTVSPropertyOp1
 70
     1
102
RTVSPropertyOp2
 70
     1
102
RTVSPropertyOp3
 70
     1
102
RTVSPropertyOp4
 70
     1
102
RTVSPropertyOp5
 70
     1
102
RTVSPropertyOp6
 70
     1
102
RTVSPropertyOp7
 70
     1
102
RTVSPropertyOp8
 70
     1
102
RTVSPropertyOp9
 70
     1
102
RTVSPropertyOp10
 70
     1
102
RTVSPropertyOp11
 70
     1
102
RTVSPropertyOp12
 70
     1
102
RTVSPropertyOp13
 70
     1
102
RTVSPropertyOp14
 70
     1
102
RTVSPropertyOp15
 70
     1
102
RTVSPropertyOp16
 70
     1
102
RTVSPropertyOp17
 70
     1
102
RTVSPropertyOp18
 70
     1
102
RTVSPropertyOp19
 70
     1
102
RTVSPropertyOp20
 70
     1
102
RTVSPropertyOp21
 70
     1
102
RTVSPropertyOp22
 70
     1
102
RTVSPropertyOp23
 70
     1
102
RTVSPropertyOp24
 70
     1
102
RTVSPropertyOp25
 70
     1
102
RTVSPropertyOp26
 70
     1
102
RTVSPropertyOp27
 70
     1
  0
XRECORD
  5
136E
102
{ACAD_REACTORS
330
136D
102
}
330
136D
100
AcDbXrecord
280
     1
102
RTVSPropertyOp0
 70
     1
102
RTVSPropertyOp1
 70
     1
102
RTVSPropertyOp2
 70
     1
102
RTVSPropertyOp3
 70
     1
102
RTVSPropertyOp4
 70
     1
102
RTVSPropertyOp5
 70
     1
102
RTVSPropertyOp6
 70
     1
102
RTVSPropertyOp7
 70
     1
102
RTVSPropertyOp8
 70
     1
102
RTVSPropertyOp9
 70
     1
102
RTVSPropertyOp10
 70
     1
102
RTVSPropertyOp11
 70
     1
102
RTVSPropertyOp12
 70
     1
102
RTVSPropertyOp13
 70
     1
102
RTVSPropertyOp14
 70
     1
102
RTVSPropertyOp15
 70
     1
102
RTVSPropertyOp16
 70
     1
102
RTVSPropertyOp17
 70
     1
102
RTVSPropertyOp18
 70
     1
102
RTVSPropertyOp19
 70
     1
102
RTVSPropertyOp20
 70
     1
102
RTVSPropertyOp21
 70
     1
102
RTVSPropertyOp22
 70
     1
102
RTVSPropertyOp23
 70
     1
102
RTVSPropertyOp24
 70
     1
102
RTVSPropertyOp25
 70
     1
102
RTVSPropertyOp26
 70
     1
102
RTVSPropertyOp27
 70
     1
  0
XRECORD
  5
1360
102
{ACAD_REACTORS
330
135F
102
}
330
135F
100
AcDbXrecord
280
     1
102
RTVSPropertyOp0
 70
     1
102
RTVSPropertyOp1
 70
     1
102
RTVSPropertyOp2
 70
     1
102
RTVSPropertyOp3
 70
     1
102
RTVSPropertyOp4
 70
     1
102
RTVSPropertyOp5
 70
     1
102
RTVSPropertyOp6
 70
     1
102
RTVSPropertyOp7
 70
     1
102
RTVSPropertyOp8
 70
     1
102
RTVSPropertyOp9
 70
     1
102
RTVSPropertyOp10
 70
     1
102
RTVSPropertyOp11
 70
     1
102
RTVSPropertyOp12
 70
     1
102
RTVSPropertyOp13
 70
     1
102
RTVSPropertyOp14
 70
     1
102
RTVSPropertyOp15
 70
     1
102
RTVSPropertyOp16
 70
     1
102
RTVSPropertyOp17
 70
     1
102
RTVSPropertyOp18
 70
     1
102
RTVSPropertyOp19
 70
     1
102
RTVSPropertyOp20
 70
     1
102
RTVSPropertyOp21
 70
     1
102
RTVSPropertyOp22
 70
     1
102
RTVSPropertyOp23
 70
     1
102
RTVSPropertyOp24
 70
     1
102
RTVSPropertyOp25
 70
     1
102
RTVSPropertyOp26
 70
     1
102
RTVSPropertyOp27
 70
     1
  0
XRECORD
  5
1364
102
{ACAD_REACTORS
330
1363
102
}
330
1363
100
AcDbXrecord
280
     1
102
RTVSPropertyOp0
 70
     1
102
RTVSPropertyOp1
 70
     1
102
RTVSPropertyOp2
 70
     1
102
RTVSPropertyOp3
 70
     1
102
RTVSPropertyOp4
 70
     1
102
RTVSPropertyOp5
 70
     1
102
RTVSPropertyOp6
 70
     1
102
RTVSPropertyOp7
 70
     1
102
RTVSPropertyOp8
 70
     1
102
RTVSPropertyOp9
 70
     1
102
RTVSPropertyOp10
 70
     1
102
RTVSPropertyOp11
 70
     1
102
RTVSPropertyOp12
 70
     1
102
RTVSPropertyOp13
 70
     1
102
RTVSPropertyOp14
 70
     1
102
RTVSPropertyOp15
 70
     1
102
RTVSPropertyOp16
 70
     1
102
RTVSPropertyOp17
 70
     1
102
RTVSPropertyOp18
 70
     1
102
RTVSPropertyOp19
 70
     1
102
RTVSPropertyOp20
 70
     1
102
RTVSPropertyOp21
 70
     1
102
RTVSPropertyOp22
 70
     1
102
RTVSPropertyOp23
 70
     1
102
RTVSPropertyOp24
 70
     1
102
RTVSPropertyOp25
 70
     1
102
RTVSPropertyOp26
 70
     1
102
RTVSPropertyOp27
 70
     1
  0
XRECORD
  5
1374
102
{ACAD_REACTORS
330
1373
102
}
330
1373
100
AcDbXrecord
280
     1
102
RTVSPropertyOp0
 70
     0
102
RTVSPropertyOp1
 70
     0
102
RTVSPropertyOp2
 70
     0
102
RTVSPropertyOp3
 70
     0
102
RTVSPropertyOp4
 70
     0
102
RTVSPropertyOp5
 70
     0
102
RTVSPropertyOp6
 70
     0
102
RTVSPropertyOp7
 70
     0
102
RTVSPropertyOp8
 70
     0
102
RTVSPropertyOp9
 70
     0
102
RTVSPropertyOp10
 70
     0
102
RTVSPropertyOp11
 70
     0
102
RTVSPropertyOp12
 70
     0
102
RTVSPropertyOp13
 70
     0
102
RTVSPropertyOp14
 70
     2
102
RTVSPropertyOp15
 70
     0
102
RTVSPropertyOp16
 70
     0
102
RTVSPropertyOp17
 70
     0
102
RTVSPropertyOp18
 70
     0
102
RTVSPropertyOp19
 70
     0
102
RTVSPropertyOp20
 70
     0
102
RTVSPropertyOp21
 70
     0
102
RTVSPropertyOp22
 70
     0
102
RTVSPropertyOp23
 70
     0
102
RTVSPropertyOp24
 70
     0
102
RTVSPropertyOp25
 70
     0
102
RTVSPropertyOp26
 70
     0
102
RTVSPropertyOp27
 70
     0
  0
XRECORD
  5
136C
102
{ACAD_REACTORS
330
136B
102
}
330
136B
100
AcDbXrecord
280
     1
102
RTVSPropertyOp0
 70
     1
102
RTVSPropertyOp1
 70
     1
102
RTVSPropertyOp2
 70
     1
102
RTVSPropertyOp3
 70
     1
102
RTVSPropertyOp4
 70
     1
102
RTVSPropertyOp5
 70
     1
102
RTVSPropertyOp6
 70
     1
102
RTVSPropertyOp7
 70
     1
102
RTVSPropertyOp8
 70
     1
102
RTVSPropertyOp9
 70
     1
102
RTVSPropertyOp10
 70
     1
102
RTVSPropertyOp11
 70
     1
102
RTVSPropertyOp12
 70
     1
102
RTVSPropertyOp13
 70
     1
102
RTVSPropertyOp14
 70
     1
102
RTVSPropertyOp15
 70
     1
102
RTVSPropertyOp16
 70
     1
102
RTVSPropertyOp17
 70
     1
102
RTVSPropertyOp18
 70
     1
102
RTVSPropertyOp19
 70
     1
102
RTVSPropertyOp20
 70
     1
102
RTVSPropertyOp21
 70
     1
102
RTVSPropertyOp22
 70
     1
102
RTVSPropertyOp23
 70
     1
102
RTVSPropertyOp24
 70
     1
102
RTVSPropertyOp25
 70
     1
102
RTVSPropertyOp26
 70
     1
102
RTVSPropertyOp27
 70
     1
  0
XRECORD
  5
1350
102
{ACAD_REACTORS
330
134F
102
}
330
134F
100
AcDbXrecord
280
     1
102
RTVSPropertyOp0
 70
     1
102
RTVSPropertyOp1
 70
     1
102
RTVSPropertyOp2
 70
     1
102
RTVSPropertyOp3
 70
     1
102
RTVSPropertyOp4
 70
     1
102
RTVSPropertyOp5
 70
     1
102
RTVSPropertyOp6
 70
     1
102
RTVSPropertyOp7
 70
     1
102
RTVSPropertyOp8
 70
     1
102
RTVSPropertyOp9
 70
     1
102
RTVSPropertyOp10
 70
     1
102
RTVSPropertyOp11
 70
     1
102
RTVSPropertyOp12
 70
     1
102
RTVSPropertyOp13
 70
     1
102
RTVSPropertyOp14
 70
     1
102
RTVSPropertyOp15
 70
     1
102
RTVSPropertyOp16
 70
     1
102
RTVSPropertyOp17
 70
     1
102
RTVSPropertyOp18
 70
     1
102
RTVSPropertyOp19
 70
     1
102
RTVSPropertyOp20
 70
     1
102
RTVSPropertyOp21
 70
     1
102
RTVSPropertyOp22
 70
     1
102
RTVSPropertyOp23
 70
     1
102
RTVSPropertyOp24
 70
     1
102
RTVSPropertyOp25
 70
     1
102
RTVSPropertyOp26
 70
     1
102
RTVSPropertyOp27
 70
     1
  0
XRECORD
  5
1352
102
{ACAD_REACTORS
330
1351
102
}
330
1351
100
AcDbXrecord
280
     1
102
RTVSPropertyOp0
 70
     1
102
RTVSPropertyOp1
 70
     1
102
RTVSPropertyOp2
 70
     1
102
RTVSPropertyOp3
 70
     1
102
RTVSPropertyOp4
 70
     1
102
RTVSPropertyOp5
 70
     1
102
RTVSPropertyOp6
 70
     1
102
RTVSPropertyOp7
 70
     1
102
RTVSPropertyOp8
 70
     1
102
RTVSPropertyOp9
 70
     1
102
RTVSPropertyOp10
 70
     1
102
RTVSPropertyOp11
 70
     1
102
RTVSPropertyOp12
 70
     1
102
RTVSPropertyOp13
 70
     1
102
RTVSPropertyOp14
 70
     1
102
RTVSPropertyOp15
 70
     1
102
RTVSPropertyOp16
 70
     1
102
RTVSPropertyOp17
 70
     1
102
RTVSPropertyOp18
 70
     1
102
RTVSPropertyOp19
 70
     1
102
RTVSPropertyOp20
 70
     1
102
RTVSPropertyOp21
 70
     1
102
RTVSPropertyOp22
 70
     1
102
RTVSPropertyOp23
 70
     1
102
RTVSPropertyOp24
 70
     1
102
RTVSPropertyOp25
 70
     1
102
RTVSPropertyOp26
 70
     1
102
RTVSPropertyOp27
 70
     1
  0
XRECORD
  5
1354
102
{ACAD_REACTORS
330
1353
102
}
330
1353
100
AcDbXrecord
280
     1
102
RTVSPropertyOp0
 70
     1
102
RTVSPropertyOp1
 70
     1
102
RTVSPropertyOp2
 70
     1
102
RTVSPropertyOp3
 70
     1
102
RTVSPropertyOp4
 70
     1
102
RTVSPropertyOp5
 70
     1
102
RTVSPropertyOp6
 70
     1
102
RTVSPropertyOp7
 70
     1
102
RTVSPropertyOp8
 70
     1
102
RTVSPropertyOp9
 70
     1
102
RTVSPropertyOp10
 70
     1
102
RTVSPropertyOp11
 70
     1
102
RTVSPropertyOp12
 70
     1
102
RTVSPropertyOp13
 70
     1
102
RTVSPropertyOp14
 70
     1
102
RTVSPropertyOp15
 70
     1
102
RTVSPropertyOp16
 70
     1
102
RTVSPropertyOp17
 70
     1
102
RTVSPropertyOp18
 70
     1
102
RTVSPropertyOp19
 70
     1
102
RTVSPropertyOp20
 70
     1
102
RTVSPropertyOp21
 70
     1
102
RTVSPropertyOp22
 70
     1
102
RTVSPropertyOp23
 70
     1
102
RTVSPropertyOp24
 70
     1
102
RTVSPropertyOp25
 70
     1
102
RTVSPropertyOp26
 70
     1
102
RTVSPropertyOp27
 70
     1
  0
XRECORD
  5
1356
102
{ACAD_REACTORS
330
1355
102
}
330
1355
100
AcDbXrecord
280
     1
102
RTVSPropertyOp0
 70
     1
102
RTVSPropertyOp1
 70
     1
102
RTVSPropertyOp2
 70
     1
102
RTVSPropertyOp3
 70
     1
102
RTVSPropertyOp4
 70
     1
102
RTVSPropertyOp5
 70
     1
102
RTVSPropertyOp6
 70
     1
102
RTVSPropertyOp7
 70
     1
102
RTVSPropertyOp8
 70
     1
102
RTVSPropertyOp9
 70
     1
102
RTVSPropertyOp10
 70
     1
102
RTVSPropertyOp11
 70
     1
102
RTVSPropertyOp12
 70
     1
102
RTVSPropertyOp13
 70
     1
102
RTVSPropertyOp14
 70
     1
102
RTVSPropertyOp15
 70
     1
102
RTVSPropertyOp16
 70
     1
102
RTVSPropertyOp17
 70
     1
102
RTVSPropertyOp18
 70
     1
102
RTVSPropertyOp19
 70
     1
102
RTVSPropertyOp20
 70
     1
102
RTVSPropertyOp21
 70
     1
102
RTVSPropertyOp22
 70
     1
102
RTVSPropertyOp23
 70
     1
102
RTVSPropertyOp24
 70
     1
102
RTVSPropertyOp25
 70
     1
102
RTVSPropertyOp26
 70
     1
102
RTVSPropertyOp27
 70
     1
  0
XRECORD
  5
1370
102
{ACAD_REACTORS
330
136F
102
}
330
136F
100
AcDbXrecord
280
     1
102
RTVSPropertyOp0
 70
     0
102
RTVSPropertyOp1
 70
     0
102
RTVSPropertyOp2
 70
     0
102
RTVSPropertyOp3
 70
     0
102
RTVSPropertyOp4
 70
     0
102
RTVSPropertyOp5
 70
     0
102
RTVSPropertyOp6
 70
     0
102
RTVSPropertyOp7
 70
     0
102
RTVSPropertyOp8
 70
     0
102
RTVSPropertyOp9
 70
     0
102
RTVSPropertyOp10
 70
     0
102
RTVSPropertyOp11
 70
     0
102
RTVSPropertyOp12
 70
     0
102
RTVSPropertyOp13
 70
     0
102
RTVSPropertyOp14
 70
     2
102
RTVSPropertyOp15
 70
     0
102
RTVSPropertyOp16
 70
     0
102
RTVSPropertyOp17
 70
     0
102
RTVSPropertyOp18
 70
     0
102
RTVSPropertyOp19
 70
     0
102
RTVSPropertyOp20
 70
     0
102
RTVSPropertyOp21
 70
     0
102
RTVSPropertyOp22
 70
     0
102
RTVSPropertyOp23
 70
     0
102
RTVSPropertyOp24
 70
     0
102
RTVSPropertyOp25
 70
     0
102
RTVSPropertyOp26
 70
     0
102
RTVSPropertyOp27
 70
     0
  0
XRECORD
  5
136A
102
{ACAD_REACTORS
330
1369
102
}
330
1369
100
AcDbXrecord
280
     1
102
RTVSPropertyOp0
 70
     1
102
RTVSPropertyOp1
 70
     1
102
RTVSPropertyOp2
 70
     1
102
RTVSPropertyOp3
 70
     1
102
RTVSPropertyOp4
 70
     1
102
RTVSPropertyOp5
 70
     1
102
RTVSPropertyOp6
 70
     1
102
RTVSPropertyOp7
 70
     1
102
RTVSPropertyOp8
 70
     1
102
RTVSPropertyOp9
 70
     1
102
RTVSPropertyOp10
 70
     1
102
RTVSPropertyOp11
 70
     1
102
RTVSPropertyOp12
 70
     1
102
RTVSPropertyOp13
 70
     1
102
RTVSPropertyOp14
 70
     1
102
RTVSPropertyOp15
 70
     1
102
RTVSPropertyOp16
 70
     1
102
RTVSPropertyOp17
 70
     1
102
RTVSPropertyOp18
 70
     1
102
RTVSPropertyOp19
 70
     1
102
RTVSPropertyOp20
 70
     1
102
RTVSPropertyOp21
 70
     1
102
RTVSPropertyOp22
 70
     1
102
RTVSPropertyOp23
 70
     1
102
RTVSPropertyOp24
 70
     1
102
RTVSPropertyOp25
 70
     1
102
RTVSPropertyOp26
 70
     1
102
RTVSPropertyOp27
 70
     1
  0
XRECORD
  5
1372
102
{ACAD_REACTORS
330
1371
102
}
330
1371
100
AcDbXrecord
280
     1
102
RTVSPropertyOp0
 70
     0
102
RTVSPropertyOp1
 70
     0
102
RTVSPropertyOp2
 70
     0
102
RTVSPropertyOp3
 70
     0
102
RTVSPropertyOp4
 70
     0
102
RTVSPropertyOp5
 70
     0
102
RTVSPropertyOp6
 70
     0
102
RTVSPropertyOp7
 70
     0
102
RTVSPropertyOp8
 70
     0
102
RTVSPropertyOp9
 70
     0
102
RTVSPropertyOp10
 70
     0
102
RTVSPropertyOp11
 70
     0
102
RTVSPropertyOp12
 70
     0
102
RTVSPropertyOp13
 70
     0
102
RTVSPropertyOp14
 70
     2
102
RTVSPropertyOp15
 70
     0
102
RTVSPropertyOp16
 70
     0
102
RTVSPropertyOp17
 70
     0
102
RTVSPropertyOp18
 70
     0
102
RTVSPropertyOp19
 70
     0
102
RTVSPropertyOp20
 70
     0
102
RTVSPropertyOp21
 70
     0
102
RTVSPropertyOp22
 70
     0
102
RTVSPropertyOp23
 70
     0
102
RTVSPropertyOp24
 70
     0
102
RTVSPropertyOp25
 70
     0
102
RTVSPropertyOp26
 70
     0
102
RTVSPropertyOp27
 70
     0
  0
XRECORD
  5
1362
102
{ACAD_REACTORS
330
1361
102
}
330
1361
100
AcDbXrecord
280
     1
102
RTVSPropertyOp0
 70
     1
102
RTVSPropertyOp1
 70
     1
102
RTVSPropertyOp2
 70
     1
102
RTVSPropertyOp3
 70
     1
102
RTVSPropertyOp4
 70
     1
102
RTVSPropertyOp5
 70
     1
102
RTVSPropertyOp6
 70
     1
102
RTVSPropertyOp7
 70
     1
102
RTVSPropertyOp8
 70
     1
102
RTVSPropertyOp9
 70
     1
102
RTVSPropertyOp10
 70
     1
102
RTVSPropertyOp11
 70
     1
102
RTVSPropertyOp12
 70
     1
102
RTVSPropertyOp13
 70
     1
102
RTVSPropertyOp14
 70
     1
102
RTVSPropertyOp15
 70
     1
102
RTVSPropertyOp16
 70
     1
102
RTVSPropertyOp17
 70
     1
102
RTVSPropertyOp18
 70
     1
102
RTVSPropertyOp19
 70
     1
102
RTVSPropertyOp20
 70
     1
102
RTVSPropertyOp21
 70
     1
102
RTVSPropertyOp22
 70
     1
102
RTVSPropertyOp23
 70
     1
102
RTVSPropertyOp24
 70
     1
102
RTVSPropertyOp25
 70
     1
102
RTVSPropertyOp26
 70
     1
102
RTVSPropertyOp27
 70
     1
  0
XRECORD
  5
1368
102
{ACAD_REACTORS
330
1367
102
}
330
1367
100
AcDbXrecord
280
     1
102
RTVSPropertyOp0
 70
     1
102
RTVSPropertyOp1
 70
     1
102
RTVSPropertyOp2
 70
     1
102
RTVSPropertyOp3
 70
     1
102
RTVSPropertyOp4
 70
     1
102
RTVSPropertyOp5
 70
     1
102
RTVSPropertyOp6
 70
     1
102
RTVSPropertyOp7
 70
     1
102
RTVSPropertyOp8
 70
     1
102
RTVSPropertyOp9
 70
     1
102
RTVSPropertyOp10
 70
     1
102
RTVSPropertyOp11
 70
     1
102
RTVSPropertyOp12
 70
     1
102
RTVSPropertyOp13
 70
     1
102
RTVSPropertyOp14
 70
     1
102
RTVSPropertyOp15
 70
     1
102
RTVSPropertyOp16
 70
     1
102
RTVSPropertyOp17
 70
     1
102
RTVSPropertyOp18
 70
     1
102
RTVSPropertyOp19
 70
     1
102
RTVSPropertyOp20
 70
     1
102
RTVSPropertyOp21
 70
     1
102
RTVSPropertyOp22
 70
     1
102
RTVSPropertyOp23
 70
     1
102
RTVSPropertyOp24
 70
     1
102
RTVSPropertyOp25
 70
     1
102
RTVSPropertyOp26
 70
     1
102
RTVSPropertyOp27
 70
     1
  0
ENDSEC
  0
EOF
