  0
SECTION
  2
HEADER
  9
$ACADVER
  1
AC1015
  9
$ACADMAINTVER
 70
     6
  9
$DWGCODEPAGE
  3
ANSI_1252
  9
$INSBASE
 10
0.0
 20
0.0
 30
0.0
  9
$EXTMIN
 10
721.9110647356411
 20
120.142350595428
 30
0.0
  9
$EXTMAX
 10
1294.7125
 20
1046.309974420446
 30
0.0
  9
$LIMMIN
 10
0.0
 20
0.0
  9
$LIMMAX
 10
12.0
 20
9.0
  9
$ORTHOMODE
 70
     1
  9
$REGENMODE
 70
     1
  9
$FILLMODE
 70
     1
  9
$QTEXTMODE
 70
     0
  9
$MIRRTEXT
 70
     1
  9
$LTSCALE
 40
1.0
  9
$ATTMODE
 70
     1
  9
$TEXTSIZE
 40
0.0
  9
$TRACEWID
 40
0.05
  9
$TEXTSTYLE
  7
STANDARD
  9
$CLAYER
  8
0
  9
$CELTYPE
  6
CONTINUOUS
  9
$CECOLOR
 62
   256
  9
$CELTSCALE
 40
1.0
  9
$DISPSILH
 70
     0
  9
$DIMSCALE
 40
1.0
  9
$DIMASZ
 40
0.18
  9
$DIMEXO
 40
0.0625
  9
$DIMDLI
 40
0.38
  9
$DIMRND
 40
0.0
  9
$DIMDLE
 40
0.0
  9
$DIMEXE
 40
0.18
  9
$DIMTP
 40
0.0
  9
$DIMTM
 40
0.0
  9
$DIMTXT
 40
0.18
  9
$DIMCEN
 40
0.09
  9
$DIMTSZ
 40
0.0
  9
$DIMTOL
 70
     0
  9
$DIMLIM
 70
     0
  9
$DIMTIH
 70
     1
  9
$DIMTOH
 70
     1
  9
$DIMSE1
 70
     0
  9
$DIMSE2
 70
     0
  9
$DIMTAD
 70
     0
  9
$DIMZIN
 70
     0
  9
$DIMBLK
  1

  9
$DIMASO
 70
     1
  9
$DIMSHO
 70
     1
  9
$DIMPOST
  1

  9
$DIMAPOST
  1

  9
$DIMALT
 70
     0
  9
$DIMALTD
 70
     2
  9
$DIMALTF
 40
25.4
  9
$DIMLFAC
 40
1.0
  9
$DIMTOFL
 70
     0
  9
$DIMTVP
 40
0.0
  9
$DIMTIX
 70
     0
  9
$DIMSOXD
 70
     0
  9
$DIMSAH
 70
     0
  9
$DIMBLK1
  1

  9
$DIMBLK2
  1

  9
$DIMSTYLE
  2
STANDARD
  9
$DIMCLRD
 70
     0
  9
$DIMCLRE
 70
     0
  9
$DIMCLRT
 70
     0
  9
$DIMTFAC
 40
1.0
  9
$DIMGAP
 40
0.09
  9
$DIMJUST
 70
     0
  9
$DIMSD1
 70
     0
  9
$DIMSD2
 70
     0
  9
$DIMTOLJ
 70
     1
  9
$DIMTZIN
 70
     0
  9
$DIMALTZ
 70
     0
  9
$DIMALTTZ
 70
     0
  9
$DIMUPT
 70
     0
  9
$DIMDEC
 70
     4
  9
$DIMTDEC
 70
     4
  9
$DIMALTU
 70
     2
  9
$DIMALTTD
 70
     2
  9
$DIMTXSTY
  7
STANDARD
  9
$DIMAUNIT
 70
     0
  9
$DIMADEC
 70
     0
  9
$DIMALTRND
 40
0.0
  9
$DIMAZIN
 70
     0
  9
$DIMDSEP
 70
    46
  9
$DIMATFIT
 70
     3
  9
$DIMFRAC
 70
     0
  9
$DIMLDRBLK
  1

  9
$DIMLUNIT
 70
     2
  9
$DIMLWD
 70
    -2
  9
$DIMLWE
 70
    -2
  9
$DIMTMOVE
 70
     0
  9
$LUNITS
 70
     2
  9
$LUPREC
 70
     4
  9
$SKETCHINC
 40
0.1
  9
$FILLETRAD
 40
0.0
  9
$AUNITS
 70
     0
  9
$AUPREC
 70
     0
  9
$MENU
  1
acad
  9
$ELEVATION
 40
0.0
  9
$PELEVATION
 40
0.0
  9
$THICKNESS
 40
0.0
  9
$LIMCHECK
 70
     0
  9
$CHAMFERA
 40
0.0
  9
$CHAMFERB
 40
0.0
  9
$CHAMFERC
 40
0.0
  9
$CHAMFERD
 40
0.0
  9
$SKPOLY
 70
     0
  9
$TDCREATE
 40
2453238.886134259
  9
$TDUCREATE
 40
2453238.886134259
  9
$TDUPDATE
 40
2456694.200117442
  9
$TDUUPDATE
 40
2456694.200117442
  9
$TDINDWG
 40
0.1464993634
  9
$TDUSRTIMER
 40
0.1464977199
  9
$USRTIMER
 70
     1
  9
$ANGBASE
 50
0.0
  9
$ANGDIR
 70
     0
  9
$PDMODE
 70
     0
  9
$PDSIZE
 40
0.0
  9
$PLINEWID
 40
0.0
  9
$SPLFRAME
 70
     0
  9
$SPLINETYPE
 70
     6
  9
$SPLINESEGS
 70
    10
  9
$HANDSEED
  5
1168
  9
$SURFTAB1
 70
     6
  9
$SURFTAB2
 70
     6
  9
$SURFTYPE
 70
     6
  9
$SURFU
 70
     6
  9
$SURFV
 70
     6
  9
$UCSBASE
  2

  9
$UCSNAME
  2

  9
$UCSORG
 10
0.0
 20
0.0
 30
0.0
  9
$UCSXDIR
 10
1.0
 20
0.0
 30
0.0
  9
$UCSYDIR
 10
0.0
 20
1.0
 30
0.0
  9
$UCSORTHOREF
  2

  9
$UCSORTHOVIEW
 70
     0
  9
$UCSORGTOP
 10
0.0
 20
0.0
 30
0.0
  9
$UCSORGBOTTOM
 10
0.0
 20
0.0
 30
0.0
  9
$UCSORGLEFT
 10
0.0
 20
0.0
 30
0.0
  9
$UCSORGRIGHT
 10
0.0
 20
0.0
 30
0.0
  9
$UCSORGFRONT
 10
0.0
 20
0.0
 30
0.0
  9
$UCSORGBACK
 10
0.0
 20
0.0
 30
0.0
  9
$PUCSBASE
  2

  9
$PUCSNAME
  2

  9
$PUCSORG
 10
0.0
 20
0.0
 30
0.0
  9
$PUCSXDIR
 10
1.0
 20
0.0
 30
0.0
  9
$PUCSYDIR
 10
0.0
 20
1.0
 30
0.0
  9
$PUCSORTHOREF
  2

  9
$PUCSORTHOVIEW
 70
     0
  9
$PUCSORGTOP
 10
0.0
 20
0.0
 30
0.0
  9
$PUCSORGBOTTOM
 10
0.0
 20
0.0
 30
0.0
  9
$PUCSORGLEFT
 10
0.0
 20
0.0
 30
0.0
  9
$PUCSORGRIGHT
 10
0.0
 20
0.0
 30
0.0
  9
$PUCSORGFRONT
 10
0.0
 20
0.0
 30
0.0
  9
$PUCSORGBACK
 10
0.0
 20
0.0
 30
0.0
  9
$USERI1
 70
     0
  9
$USERI2
 70
     0
  9
$USERI3
 70
     0
  9
$USERI4
 70
     0
  9
$USERI5
 70
     0
  9
$USERR1
 40
0.0
  9
$USERR2
 40
0.0
  9
$USERR3
 40
0.0
  9
$USERR4
 40
0.0
  9
$USERR5
 40
0.0
  9
$WORLDVIEW
 70
     1
  9
$SHADEDGE
 70
     3
  9
$SHADEDIF
 70
    70
  9
$TILEMODE
 70
     1
  9
$MAXACTVP
 70
    16
  9
$PINSBASE
 10
0.0
 20
0.0
 30
0.0
  9
$PLIMCHECK
 70
     0
  9
$PEXTMIN
 10
-1.000000000000000E+20
 20
-1.000000000000000E+20
 30
-1.000000000000000E+20
  9
$PEXTMAX
 10
-1.000000000000000E+20
 20
-1.000000000000000E+20
 30
-1.000000000000000E+20
  9
$PLIMMIN
 10
0.0
 20
0.0
  9
$PLIMMAX
 10
12.0
 20
9.0
  9
$UNITMODE
 70
     0
  9
$VISRETAIN
 70
     0
  9
$PLINEGEN
 70
     1
  9
$PSLTSCALE
 70
     0
  9
$TREEDEPTH
 70
  3020
  9
$CMLSTYLE
  2
Standard
  9
$CMLJUST
 70
     0
  9
$CMLSCALE
 40
1.0
  9
$PROXYGRAPHICS
 70
     1
  9
$MEASUREMENT
 70
     0
  9
$CELWEIGHT
370
    -1
  9
$ENDCAPS
280
     0
  9
$JOINSTYLE
280
     0
  9
$LWDISPLAY
290
     0
  9
$INSUNITS
 70
     0
  9
$HYPERLINKBASE
  1

  9
$STYLESHEET
  1

  9
$XEDIT
290
     1
  9
$CEPSNTYPE
380
     0
  9
$PSTYLEMODE
290
     1
  9
$FINGERPRINTGUID
  2
{A7188DD5-4314-4268-86B3-E05450767BE0}
  9
$VERSIONGUID
  2
{F87AD2A2-9B72-41D5-90D9-C7BF614FA2E0}
  9
$EXTNAMES
290
     1
  9
$PSVPSCALE
 40
0.0
  9
$OLESTARTUP
290
     0
  0
ENDSEC
  0
SECTION
  2
CLASSES
  0
CLASS
  1
ACDBDICTIONARYWDFLT
  2
AcDbDictionaryWithDefault
  3
AutoCAD 2000
 90
        0
280
     0
281
     0
  0
CLASS
  1
ACDBPLACEHOLDER
  2
AcDbPlaceHolder
  3
AutoCAD 2000
 90
        0
280
     0
281
     0
  0
CLASS
  1
LAYOUT
  2
AcDbLayout
  3
AutoCAD 2000
 90
        0
280
     0
281
     0
  0
CLASS
  1
DICTIONARYVAR
  2
AcDbDictionaryVar
  3
AutoCAD 2000
 90
        0
280
     0
281
     0
  0
CLASS
  1
MATERIAL
  2
AcDbMaterial
  3
ObjectDBX Classes
 90
     1153
280
     0
281
     0
  0
CLASS
  1
VISUALSTYLE
  2
AcDbVisualStyle
  3
ObjectDBX Classes
 90
     4095
280
     0
281
     0
  0
CLASS
  1
TABLESTYLE
  2
AcDbTableStyle
  3
ObjectDBX Classes
 90
     4095
280
     0
281
     0
  0
CLASS
  1
SCALE
  2
AcDbScale
  3
ObjectDBX Classes
 90
     1153
280
     0
281
     0
  0
CLASS
  1
MLEADERSTYLE
  2
AcDbMLeaderStyle
  3
ACDB_MLEADERSTYLE_CLASS
 90
     4095
280
     0
281
     0
  0
CLASS
  1
CELLSTYLEMAP
  2
AcDbCellStyleMap
  3
ObjectDBX Classes
 90
     1152
280
     0
281
     0
  0
CLASS
  1
SORTENTSTABLE
  2
AcDbSortentsTable
  3
AutoCAD 2000
 90
        0
280
     0
281
     0
  0
ENDSEC
  0
SECTION
  2
TABLES
  0
TABLE
  2
VPORT
  5
1D1
330
0
100
AcDbSymbolTable
 70
     4
  0
VPORT
  5
1167
330
1D1
100
AcDbSymbolTableRecord
100
AcDbViewportTableRecord
  2
*Active
 70
     0
 10
0.0
 20
0.0
 11
1.0
 21
1.0
 12
113.1431346039589
 22
-325.2997725038544
 13
0.0
 23
0.0
 14
0.0
 24
0.0
 15
0.0
 25
0.0
 16
0.0
 26
0.0
 36
1.0
 17
814.1719189999999
 27
575.871875
 37
0.0
 40
286.5225296846574
 41
2.249379652605459
 42
50.0
 43
0.025
 44
0.0
 50
0.0
 51
0.0
 71
     0
 72
   100
 73
     1
 74
     0
 75
     0
 76
     0
 77
     0
 78
     0
281
     0
 65
     0
110
0.0
120
0.0
130
0.0
111
1.0
121
0.0
131
0.0
112
0.0
122
1.0
132
0.0
 79
     0
146
0.0
  0
ENDTAB
  0
TABLE
  2
LTYPE
  5
1CE
330
0
100
AcDbSymbolTable
 70
     7
  0
LTYPE
  5
1DC
330
1CE
100
AcDbSymbolTableRecord
100
AcDbLinetypeTableRecord
  2
ByBlock
 70
     0
  3

 72
    65
 73
     0
 40
0.0
  0
LTYPE
  5
1DD
330
1CE
100
AcDbSymbolTableRecord
100
AcDbLinetypeTableRecord
  2
ByLayer
 70
     0
  3

 72
    65
 73
     0
 40
0.0
  0
LTYPE
  5
1DE
330
1CE
100
AcDbSymbolTableRecord
100
AcDbLinetypeTableRecord
  2
CONTINUOUS
 70
     0
  3
Solid line
 72
    65
 73
     0
 40
0.0
  0
LTYPE
  5
1EC
330
1CE
100
AcDbSymbolTableRecord
100
AcDbLinetypeTableRecord
  2
DOT
 70
     0
  3
. . . . . . . . . . . . . . . . . . . . . . . . . . . . . . . . .
 72
    65
 73
     2
 40
0.25
 49
0.0
 74
     0
 49
-0.25
 74
     0
  0
LTYPE
  5
1ED
330
1CE
100
AcDbSymbolTableRecord
100
AcDbLinetypeTableRecord
  2
HIDDEN
 70
     0
  3
__ __ __ __ __ __ __ __ __ __ __ __ __ __ __ __ __ __ __ __ __ 
 72
    65
 73
     2
 40
0.375
 49
0.25
 74
     0
 49
-0.125
 74
     0
  0
LTYPE
  5
1EE
330
1CE
100
AcDbSymbolTableRecord
100
AcDbLinetypeTableRecord
  2
DASHED
 70
     0
  3
__ __ __ __ __ __ __ __ __ __ __ __ __ __ __ __ __ __ __ __ __
 72
    65
 73
     2
 40
0.75
 49
0.5
 74
     0
 49
-0.25
 74
     0
  0
LTYPE
  5
1EF
330
1CE
100
AcDbSymbolTableRecord
100
AcDbLinetypeTableRecord
  2
DASHDOT
 70
     0
  3
__ . __ . __ . __ . __ . __ . __ . __ . __ . __ . __ . __ . _
 72
    65
 73
     4
 40
1.0
 49
0.5
 74
     0
 49
-0.25
 74
     0
 49
0.0
 74
     0
 49
-0.25
 74
     0
  0
LTYPE
  5
1F0
330
1CE
100
AcDbSymbolTableRecord
100
AcDbLinetypeTableRecord
  2
DIVIDE
 70
     0
  3
____ . . ____ . . ____ . . ____ . . ____ . . ____ . . ____ . .
 72
    65
 73
     6
 40
1.25
 49
0.5
 74
     0
 49
-0.25
 74
     0
 49
0.0
 74
     0
 49
-0.25
 74
     0
 49
0.0
 74
     0
 49
-0.25
 74
     0
  0
LTYPE
  5
1F1
330
1CE
100
AcDbSymbolTableRecord
100
AcDbLinetypeTableRecord
  2
CENTER
 70
     0
  3
____ _ ____ _ ____ _ ____ _ ____ _ ____ _ ____ _ ____ _ ____ _
 72
    65
 73
     4
 40
2.0
 49
1.25
 74
     0
 49
-0.25
 74
     0
 49
0.25
 74
     0
 49
-0.25
 74
     0
  0
ENDTAB
  0
TABLE
  2
LAYER
  5
1CB
330
0
100
AcDbSymbolTable
 70
     5
  0
LAYER
  5
1D9
102
{ACAD_XDICTIONARY
360
972
102
}
330
1CB
100
AcDbSymbolTableRecord
100
AcDbLayerTableRecord
  2
0
 70
     0
 62
     7
  6
CONTINUOUS
370
    -3
390
1D8
  0
LAYER
  5
1F2
102
{ACAD_XDICTIONARY
360
974
102
}
330
1CB
100
AcDbSymbolTableRecord
100
AcDbLayerTableRecord
  2
CONSTRUCTION_CLASS
 70
     0
 62
     7
  6
CONTINUOUS
370
    -3
390
1D8
  0
LAYER
  5
1F3
102
{ACAD_XDICTIONARY
360
976
102
}
330
1CB
100
AcDbSymbolTableRecord
100
AcDbLayerTableRecord
  2
PATTERN_CLASS
 70
     0
 62
     7
  6
CONTINUOUS
370
    -3
390
1D8
  0
LAYER
  5
1F4
102
{ACAD_XDICTIONARY
360
978
102
}
330
1CB
100
AcDbSymbolTableRecord
100
AcDbLayerTableRecord
  2
1
 70
     0
 62
     7
  6
CONTINUOUS
370
    -3
390
1D8
  0
LAYER
  5
A7A
330
1CB
100
AcDbSymbolTableRecord
100
AcDbLayerTableRecord
  2
Defpoints
 70
     0
 62
     7
  6
CONTINUOUS
290
     0
370
    -3
390
1D8
  0
ENDTAB
  0
TABLE
  2
STYLE
  5
1CC
330
0
100
AcDbSymbolTable
 70
     1
  0
STYLE
  5
1DA
330
1CC
100
AcDbSymbolTableRecord
100
AcDbTextStyleTableRecord
  2
STANDARD
 70
     0
 40
0.0
 41
1.0
 50
0.0
 71
     0
 42
0.0
  3
txt
  4

  0
ENDTAB
  0
TABLE
  2
VIEW
  5
1CF
330
0
100
AcDbSymbolTable
 70
     0
  0
ENDTAB
  0
TABLE
  2
UCS
  5
1D0
330
0
100
AcDbSymbolTable
 70
     0
  0
ENDTAB
  0
TABLE
  2
APPID
  5
1D2
330
0
100
AcDbSymbolTable
 70
     3
  0
APPID
  5
1DB
330
1D2
100
AcDbSymbolTableRecord
100
AcDbRegAppTableRecord
  2
ACAD
 70
     0
  0
APPID
  5
9E5
330
1D2
100
AcDbSymbolTableRecord
100
AcDbRegAppTableRecord
  2
ACAD_MLEADERVER
 70
     0
  0
APPID
  5
BBE
330
1D2
100
AcDbSymbolTableRecord
100
AcDbRegAppTableRecord
  2
ACAD_EXEMPT_FROM_CAD_STANDARDS
 70
     0
  0
ENDTAB
  0
TABLE
  2
DIMSTYLE
  5
1D3
330
0
100
AcDbSymbolTable
 70
     1
100
AcDbDimStyleTable
 71
     1
340
1F5
  0
DIMSTYLE
105
1F5
330
1D3
100
AcDbSymbolTableRecord
100
AcDbDimStyleTableRecord
  2
STANDARD
 70
     0
279
     2
340
1DA
  0
ENDTAB
  0
TABLE
  2
BLOCK_RECORD
  5
1CA
330
0
100
AcDbSymbolTable
 70
     2
  0
BLOCK_RECORD
  5
1E7
102
{ACAD_XDICTIONARY
360
B2E
102
}
330
1CA
100
AcDbSymbolTableRecord
100
AcDbBlockTableRecord
  2
*Model_Space
340
1EA
  0
BLOCK_RECORD
  5
1E3
330
1CA
100
AcDbSymbolTableRecord
100
AcDbBlockTableRecord
  2
*Paper_Space
340
1E6
  0
BLOCK_RECORD
  5
A7B
330
1CA
100
AcDbSymbolTableRecord
100
AcDbBlockTableRecord
  2
*D0
340
0
  0
BLOCK_RECORD
  5
A89
330
1CA
100
AcDbSymbolTableRecord
100
AcDbBlockTableRecord
  2
*D1
340
0
  0
ENDTAB
  0
ENDSEC
  0
SECTION
  2
BLOCKS
  0
BLOCK
  5
1E8
330
1E7
100
AcDbEntity
  8
0
100
AcDbBlockBegin
  2
*Model_Space
 70
     0
 10
0.0
 20
0.0
 30
0.0
  3
*Model_Space
  1

  0
ENDBLK
  5
1E9
330
1E7
100
AcDbEntity
  8
0
100
AcDbBlockEnd
  0
BLOCK
  5
1E4
330
1E3
100
AcDbEntity
 67
     1
  8
0
100
AcDbBlockBegin
  2
*Paper_Space
 70
     0
 10
0.0
 20
0.0
 30
0.0
  3
*Paper_Space
  1

  0
ENDBLK
  5
1E5
330
1E3
100
AcDbEntity
 67
     1
  8
0
100
AcDbBlockEnd
  0
BLOCK
  5
A7C
330
A7B
100
AcDbEntity
  8
0
100
AcDbBlockBegin
  2
*D0
 70
     1
 10
0.0
 20
0.0
 30
0.0
  3
*D0
  1

  0
LINE
  5
A7E
330
A7B
100
AcDbEntity
  8
0
  6
Continuous
 62
     0
370
    -2
100
AcDbLine
 10
885.0187499999996
 20
1005.20625
 30
0.0
 11
462.676536145729
 21
1005.20625
 31
0.0
  0
LINE
  5
A7F
330
A7B
100
AcDbEntity
  8
0
  6
Continuous
 62
     0
370
    -2
100
AcDbLine
 10
759.6812499999997
 20
985.20625
 30
0.0
 11
462.676536145729
 21
985.20625
 31
0.0
  0
LINE
  5
A80
330
A7B
100
AcDbEntity
  8
0
  6
Continuous
 62
     0
370
    -2
100
AcDbLine
 10
462.8565361457289
 20
1005.02625
 30
0.0
 11
462.8565361457289
 21
995.3862499999999
 31
0.0
  0
LINE
  5
A81
330
A7B
100
AcDbEntity
  8
0
  6
Continuous
 62
     0
370
    -2
100
AcDbLine
 10
462.8565361457289
 20
985.3862499999999
 30
0.0
 11
462.8565361457289
 21
995.02625
 31
0.0
  0
SOLID
  5
A82
330
A7B
100
AcDbEntity
  8
0
  6
Continuous
 62
     0
100
AcDbTrace
 10
462.8265361457289
 20
1005.02625
 30
0.0
 11
462.886536145729
 21
1005.02625
 31
0.0
 12
462.8565361457289
 22
1005.20625
 32
0.0
 13
462.8565361457289
 23
1005.20625
 33
0.0
  0
SOLID
  5
A83
330
A7B
100
AcDbEntity
  8
0
  6
Continuous
 62
     0
100
AcDbTrace
 10
462.8265361457289
 20
985.3862499999999
 30
0.0
 11
462.886536145729
 21
985.3862499999999
 31
0.0
 12
462.8565361457289
 22
985.20625
 32
0.0
 13
462.8565361457289
 23
985.20625
 33
0.0
  0
MTEXT
  5
A84
330
A7B
100
AcDbEntity
  8
0
  6
Continuous
 62
     0
100
AcDbMText
 10
462.8565361457289
 20
995.2062500000003
 30
0.0
 40
0.18
 41
0.0
 71
     5
 72
     1
  1
\A1;20.0000
 73
     1
 44
1.0
1001
ACAD
1000
MTEXTBEGIN
1070
    73
1070
     1
1070
    44
1040
1.0
1070
    74
1070
     0
1000
MTEXTEND
  0
POINT
  5
A85
330
A7B
100
AcDbEntity
  8
Defpoints
  6
Continuous
 62
     0
100
AcDbPoint
 10
885.0812499999998
 20
1005.20625
 30
0.0
  0
POINT
  5
A86
330
A7B
100
AcDbEntity
  8
Defpoints
  6
Continuous
 62
     0
100
AcDbPoint
 10
759.7437499999998
 20
985.20625
 30
0.0
  0
POINT
  5
A87
330
A7B
100
AcDbEntity
  8
Defpoints
  6
Continuous
 62
     0
100
AcDbPoint
 10
462.8565361457289
 20
985.20625
 30
0.0
  0
ENDBLK
  5
A7D
330
A7B
100
AcDbEntity
  8
0
100
AcDbBlockEnd
  0
BLOCK
  5
A8A
330
A89
100
AcDbEntity
  8
0
100
AcDbBlockBegin
  2
*D1
 70
     1
 10
0.0
 20
0.0
 30
0.0
  3
*D1
  1

  0
LINE
  5
A8C
330
A89
100
AcDbEntity
  8
0
  6
Continuous
 62
     0
370
    -2
100
AcDbLine
 10
878.3527087436358
 20
153.376571635906
 30
0.0
 11
704.5274767690405
 21
153.376571635906
 31
0.0
  0
LINE
  5
A8D
330
A89
100
AcDbEntity
  8
0
  6
Continuous
 62
     0
370
    -2
100
AcDbLine
 10
778.3687499999997
 20
116.0937499999997
 30
0.0
 11
704.5274767690405
 21
116.0937499999997
 31
0.0
  0
LINE
  5
A8E
330
A89
100
AcDbEntity
  8
0
  6
Continuous
 62
     0
370
    -2
100
AcDbLine
 10
704.7074767690405
 20
153.196571635906
 30
0.0
 11
704.7074767690405
 21
134.9151608179529
 31
0.0
  0
LINE
  5
A8F
330
A89
100
AcDbEntity
  8
0
  6
Continuous
 62
     0
370
    -2
100
AcDbLine
 10
704.7074767690405
 20
116.2737499999996
 30
0.0
 11
704.7074767690405
 21
134.5551608179528
 31
0.0
  0
SOLID
  5
A90
330
A89
100
AcDbEntity
  8
0
  6
Continuous
 62
     0
100
AcDbTrace
 10
704.6774767690407
 20
153.196571635906
 30
0.0
 11
704.7374767690405
 21
153.196571635906
 31
0.0
 12
704.7074767690405
 22
153.376571635906
 32
0.0
 13
704.7074767690405
 23
153.376571635906
 33
0.0
  0
SOLID
  5
A91
330
A89
100
AcDbEntity
  8
0
  6
Continuous
 62
     0
100
AcDbTrace
 10
704.6774767690407
 20
116.2737499999996
 30
0.0
 11
704.7374767690405
 21
116.2737499999996
 31
0.0
 12
704.7074767690405
 22
116.0937499999997
 32
0.0
 13
704.7074767690405
 23
116.0937499999997
 33
0.0
  0
MTEXT
  5
A92
330
A89
100
AcDbEntity
  8
0
  6
Continuous
 62
     0
100
AcDbMText
 10
704.7074767690405
 20
134.7351608179529
 30
0.0
 40
0.18
 41
0.0
 71
     5
 72
     1
  1
\A1;37.2828
 73
     1
 44
1.0
1001
ACAD
1000
MTEXTBEGIN
1070
    73
1070
     1
1070
    44
1040
1.0
1070
    74
1070
     0
1000
MTEXTEND
  0
POINT
  5
A93
330
A89
100
AcDbEntity
  8
Defpoints
  6
Continuous
 62
     0
100
AcDbPoint
 10
878.4152087436359
 20
153.376571635906
 30
0.0
  0
POINT
  5
A94
330
A89
100
AcDbEntity
  8
Defpoints
  6
Continuous
 62
     0
100
AcDbPoint
 10
778.4312499999997
 20
116.0937499999997
 30
0.0
  0
POINT
  5
A95
330
A89
100
AcDbEntity
  8
Defpoints
  6
Continuous
 62
     0
100
AcDbPoint
 10
704.7074767690405
 20
116.0937499999997
 30
0.0
  0
ENDBLK
  5
A8B
330
A89
100
AcDbEntity
  8
0
100
AcDbBlockEnd
  0
ENDSEC
  0
SECTION
  2
ENTITIES
  0
LINE
  5
655
330
1E7
100
AcDbEntity
  8
1
  6
Continuous
 62
     4
100
AcDbLine
 10
851.2937500000001
 20
475.1136772719759
 30
0.0
 11
837.7028451842825
 21
488.6977249207824
 31
0.0
  0
LINE
  5
656
330
1E7
100
AcDbEntity
  8
1
  6
Continuous
 62
     4
100
AcDbLine
 10
851.2937500000001
 20
464.5097509486066
 30
0.0
 11
839.1803003580353
 21
476.6170888601761
 31
0.0
  0
LINE
  5
657
330
1E7
100
AcDbEntity
  8
1
  6
Continuous
 62
     4
100
AcDbLine
 10
758.8750000000003
 20
387.2298505954281
 30
0.0
 11
755.0687499999995
 21
391.0361005954288
 31
0.0
  0
LINE
  5
658
330
1E7
100
AcDbEntity
  8
1
  6
Continuous
 62
     4
100
AcDbLine
 10
769.4816017177982
 20
387.2298505954283
 30
0.0
 11
755.0687499999995
 21
401.6427023132264
 31
0.0
  0
LINE
  5
659
330
1E7
100
AcDbEntity
  8
1
  6
Continuous
 62
     4
100
AcDbLine
 10
786.7433238405981
 20
241.7177767548301
 30
0.0
 11
755.0687499999995
 21
273.392350595428
 31
0.0
  0
LINE
  5
65A
330
1E7
100
AcDbEntity
  8
1
  6
Continuous
 62
     4
100
AcDbLine
 10
784.0355635833798
 20
233.8189352942499
 30
0.0
 11
755.0687499999995
 21
262.7857488776299
 31
0.0
  0
LINE
  5
65B
330
1E7
100
AcDbEntity
  8
1
  6
Continuous
 62
     4
100
AcDbLine
 10
783.5812499999997
 20
223.6673505954285
 30
0.0
 11
755.0687499999995
 21
252.1798505954283
 31
0.0
  0
LINE
  5
65F
330
1E7
100
AcDbEntity
  8
1
  6
Continuous
 62
     4
100
AcDbLine
 10
885.1499999999999
 20
228.1611005954284
 30
0.0
 11
828.3812500000001
 21
284.9298505954283
 31
0.0
  0
LINE
  5
660
330
1E7
100
AcDbEntity
  8
1
  6
Continuous
 62
     4
100
AcDbLine
 10
860.1610259877208
 20
231.937574607707
 30
0.0
 11
807.1687499999995
 21
284.9298505954283
 31
0.0
  0
LINE
  5
661
330
1E7
100
AcDbEntity
  8
1
  6
Continuous
 62
     4
100
AcDbLine
 10
840.4155312346311
 20
241.0771710785954
 30
0.0
 11
796.5628517177981
 21
284.9298505954283
 31
0.0
  0
LINE
  5
662
330
1E7
100
AcDbEntity
  8
1
  6
Continuous
 62
     4
100
AcDbLine
 10
814.7232687873128
 20
256.1628318081145
 30
0.0
 11
785.9562499999992
 21
284.9298505954283
 31
0.0
  0
LINE
  5
663
330
1E7
100
AcDbEntity
  8
1
  6
Continuous
 62
     4
100
AcDbLine
 10
804.6443627908965
 20
255.6358395223296
 30
0.0
 11
775.3503517177985
 21
284.9298505954283
 31
0.0
  0
LINE
  5
664
330
1E7
100
AcDbEntity
  8
1
  6
Continuous
 62
     4
100
AcDbLine
 10
797.0994858573422
 20
252.5741147380855
 30
0.0
 11
764.7437500000003
 21
284.9298505954283
 31
0.0
  0
LINE
  5
665
330
1E7
100
AcDbEntity
  8
1
  6
Continuous
 62
     4
100
AcDbLine
 10
791.1864117216107
 20
247.8812905916154
 30
0.0
 11
755.0687499999995
 21
283.9989523132268
 31
0.0
  0
LINE
  5
666
330
1E7
100
AcDbEntity
  8
1
  6
Continuous
 62
     4
100
AcDbLine
 10
873.8466737241548
 20
228.858528589071
 30
0.0
 11
817.7753517177983
 21
284.9298505954283
 31
0.0
  0
LINE
  5
667
330
1E7
100
AcDbEntity
  8
1
  6
Continuous
 62
     4
100
AcDbLine
 10
885.1499999999997
 20
238.7677023132261
 30
0.0
 11
858.8617505133877
 21
265.0559517998389
 31
0.0
  0
LINE
  5
668
330
1E7
100
AcDbEntity
  8
1
  6
Continuous
 62
     4
100
AcDbLine
 10
848.699587155963
 20
403.4677634394649
 30
0.0
 11
831.7536180025458
 21
420.4137325928821
 31
0.0
  0
LINE
  5
669
330
1E7
100
AcDbEntity
  8
1
  6
Continuous
 62
     4
100
AcDbLine
 10
839.3780728859182
 20
402.1833794273081
 30
0.0
 11
826.0790984373262
 21
415.4823538759003
 31
0.0
  0
LINE
  5
66A
330
1E7
100
AcDbEntity
  8
1
  6
Continuous
 62
     4
100
AcDbLine
 10
838.2557824140118
 20
392.699068181416
 30
0.0
 11
818.8120100936661
 21
412.1428405017617
 31
0.0
  0
LINE
  5
66B
330
1E7
100
AcDbEntity
  8
1
  6
Continuous
 62
     4
100
AcDbLine
 10
822.5124999999996
 20
387.2298505954283
 30
0.0
 11
758.1874999999999
 21
451.5548505954267
 31
0.0
  0
LINE
  5
66C
330
1E7
100
AcDbEntity
  8
1
  6
Continuous
 62
     4
100
AcDbLine
 10
811.906601717798
 20
387.2298505954281
 30
0.0
 11
758.1874999999996
 21
440.9489523132271
 31
0.0
  0
LINE
  5
66D
330
1E7
100
AcDbEntity
  8
1
  6
Continuous
 62
     4
100
AcDbLine
 10
780.0874999999997
 20
387.2298505954281
 30
0.0
 11
755.0687499999995
 21
412.2486005954271
 31
0.0
  0
LINE
  5
66E
330
1E7
100
AcDbEntity
  8
1
  6
Continuous
 62
     4
100
AcDbLine
 10
790.6941017177981
 20
387.2298505954283
 30
0.0
 11
755.3128517177981
 21
422.6111005954281
 31
0.0
  0
LINE
  5
66F
330
1E7
100
AcDbEntity
  8
1
  6
Continuous
 62
     4
100
AcDbLine
 10
801.3000000000001
 20
387.2298505954283
 30
0.0
 11
758.1874999999999
 21
430.3423505954286
 31
0.0
  0
LINE
  5
670
330
1E7
100
AcDbEntity
  8
1
  6
Continuous
 62
     4
100
AcDbLine
 10
833.1191017177976
 20
387.2298505954283
 30
0.0
 11
809.2321567385122
 21
411.1167955747133
 31
0.0
  0
LINE
  5
671
330
1E7
100
AcDbEntity
  8
1
  6
Continuous
 62
     4
100
AcDbLine
 10
852.1884997942747
 20
431.7979525189513
 30
0.0
 11
838.6000000000001
 21
445.3864523132266
 31
0.0
  0
LINE
  5
672
330
1E7
100
AcDbEntity
  8
1
  6
Continuous
 62
     4
100
AcDbLine
 10
856.7258571801547
 20
406.0480951330712
 30
0.0
 11
835.9509336488374
 21
426.8230186643893
 31
0.0
  0
LINE
  5
673
330
1E7
100
AcDbEntity
  8
1
  6
Continuous
 62
     4
100
AcDbLine
 10
856.3451668765745
 20
417.0346837188541
 30
0.0
 11
838.6000000000001
 21
434.7798505954282
 31
0.0
  0
LINE
  5
674
330
1E7
100
AcDbEntity
  8
1
  6
Continuous
 62
     4
100
AcDbLine
 10
851.2937500000001
 20
443.2986005954282
 30
0.0
 11
838.6000000000001
 21
455.9923505954281
 31
0.0
  0
LINE
  5
675
330
1E7
100
AcDbEntity
  8
1
  6
Continuous
 62
     4
100
AcDbLine
 10
851.2937500000001
 20
453.9052023132263
 30
0.0
 11
838.6000000000001
 21
466.5989523132266
 31
0.0
  0
LINE
  5
677
330
1E7
100
AcDbEntity
  8
1
  6
Continuous
 62
     4
100
AcDbLine
 10
863.9937499999998
 20
651.8486005954281
 30
0.0
 11
843.8420824943367
 21
631.6969330897652
 31
0.0
  0
LINE
  5
678
330
1E7
100
AcDbEntity
  8
1
  6
Continuous
 62
     4
100
AcDbLine
 10
863.9937499999998
 20
641.2419988776301
 30
0.0
 11
842.8916797227444
 21
620.1399286003741
 31
0.0
  0
LINE
  5
679
330
1E7
100
AcDbEntity
  8
1
  6
Continuous
 62
     4
100
AcDbLine
 10
851.2937500000001
 20
564.8919988776302
 30
0.0
 11
829.6253517177982
 21
543.2236005954281
 31
0.0
  0
LINE
  5
67A
330
1E7
100
AcDbEntity
  8
1
  6
Continuous
 62
     4
100
AcDbLine
 10
801.9812500000002
 20
568.6173505954282
 30
0.0
 11
783.5812499999997
 21
550.2173505954283
 31
0.0
  0
LINE
  5
67B
330
1E7
100
AcDbEntity
  8
1
  6
Continuous
 62
     4
100
AcDbLine
 10
823.1937499999995
 20
568.6173505954282
 30
0.0
 11
797.8000000000003
 21
543.2236005954281
 31
0.0
  0
LINE
  5
67C
330
1E7
100
AcDbEntity
  8
1
  6
Continuous
 62
     4
100
AcDbLine
 10
812.5878517177987
 20
568.6173505954282
 30
0.0
 11
787.1941017177983
 21
543.2236005954281
 31
0.0
  0
LINE
  5
67D
330
1E7
100
AcDbEntity
  8
1
  6
Continuous
 62
     4
100
AcDbLine
 10
851.2937500000001
 20
575.4986005954282
 30
0.0
 11
819.0187500000003
 21
543.2236005954281
 31
0.0
  0
LINE
  5
67E
330
1E7
100
AcDbEntity
  8
1
  6
Continuous
 62
     4
100
AcDbLine
 10
851.2937500000001
 20
586.1107488776311
 30
0.0
 11
808.4066017177981
 21
543.2236005954281
 31
0.0
  0
LINE
  5
67F
330
1E7
100
AcDbEntity
  8
1
  6
Continuous
 62
     4
100
AcDbLine
 10
851.2937500000001
 20
485.723600595428
 30
0.0
 11
835.1514560361888
 21
501.8658945592399
 31
0.0
  0
LINE
  5
680
330
1E7
100
AcDbEntity
  8
1
  6
Continuous
 62
     4
100
AcDbLine
 10
851.2937500000001
 20
496.3302023132258
 30
0.0
 11
810.7441017177986
 21
536.8798505954281
 31
0.0
  0
LINE
  5
681
330
1E7
100
AcDbEntity
  8
1
  6
Continuous
 62
     4
100
AcDbLine
 10
814.9253517177978
 20
511.4861005954281
 30
0.0
 11
789.5316017177981
 21
536.8798505954281
 31
0.0
  0
LINE
  5
682
330
1E7
100
AcDbEntity
  8
1
  6
Continuous
 62
     4
100
AcDbLine
 10
804.3187499999996
 20
511.4861005954281
 30
0.0
 11
783.5812499999997
 21
532.2236005954281
 31
0.0
  0
LINE
  5
683
330
1E7
100
AcDbEntity
  8
1
  6
Continuous
 62
     4
100
AcDbLine
 10
793.7128517177983
 20
511.4861005954281
 30
0.0
 11
783.5812499999997
 21
521.6177023132265
 31
0.0
  0
LINE
  5
685
330
1E7
100
AcDbEntity
  8
1
  6
Continuous
 62
     4
100
AcDbLine
 10
851.2937500000001
 20
517.5427023132256
 30
0.0
 11
831.956601717799
 21
536.8798505954281
 31
0.0
  0
LINE
  5
686
330
1E7
100
AcDbEntity
  8
1
  6
Continuous
 62
     4
100
AcDbLine
 10
851.2937500000001
 20
506.9361005954282
 30
0.0
 11
821.3500000000001
 21
536.8798505954281
 31
0.0
  0
LINE
  5
687
330
1E7
100
AcDbEntity
  8
1
  6
Continuous
 62
     4
100
AcDbLine
 10
851.2937500000001
 20
543.6794988776304
 30
0.0
 11
850.8378517177984
 21
543.2236005954283
 31
0.0
  0
LINE
  5
688
330
1E7
100
AcDbEntity
  8
1
  6
Continuous
 62
     4
100
AcDbLine
 10
851.2937500000001
 20
554.2861005954281
 30
0.0
 11
840.2312500000002
 21
543.2236005954281
 31
0.0
  0
LINE
  5
68A
330
1E7
100
AcDbEntity
  8
1
  6
Continuous
 62
     4
100
AcDbLine
 10
859.871990647205
 20
615.9077395248353
 30
0.0
 11
834.3687499999997
 21
590.4044988776298
 31
0.0
  0
LINE
  5
68B
330
1E7
100
AcDbEntity
  8
1
  6
Continuous
 62
     4
100
AcDbLine
 10
851.2937500000001
 20
596.7173505954282
 30
0.0
 11
834.3687499999997
 21
579.792350595428
 31
0.0
  0
LINE
  5
68C
330
1E7
100
AcDbEntity
  8
1
  6
Continuous
 62
     4
100
AcDbLine
 10
851.2937500000001
 20
586.11074887763
 30
0.0
 11
836.1500000000003
 21
570.9669988776297
 31
0.0
  0
LINE
  5
68D
330
1E7
100
AcDbEntity
  8
1
  6
Continuous
 62
     4
100
AcDbLine
 10
863.9937499999998
 20
630.6361005954284
 30
0.0
 11
834.3687499999997
 21
601.0111005954285
 31
0.0
  0
LINE
  5
68E
330
1E7
100
AcDbEntity
  8
1
  6
Continuous
 62
     4
100
AcDbLine
 10
818.8812499999995
 20
659.7614523132261
 30
0.0
 11
808.9749999999995
 21
649.8552023132257
 31
0.0
  0
LINE
  5
68F
330
1E7
100
AcDbEntity
  8
1
  6
Continuous
 62
     4
100
AcDbLine
 10
818.8812499999995
 20
649.1548505954279
 30
0.0
 11
816.6437500000002
 21
646.917350595428
 31
0.0
  0
LINE
  5
690
330
1E7
100
AcDbEntity
  8
1
  6
Continuous
 62
     4
100
AcDbLine
 10
818.8812499999995
 20
670.3736005954278
 30
0.0
 11
808.9749999999995
 21
660.4673505954282
 31
0.0
  0
LINE
  5
691
330
1E7
100
AcDbEntity
  8
1
  6
Continuous
 62
     4
100
AcDbLine
 10
863.6562499999994
 20
693.936100595428
 30
0.0
 11
832.9125000000001
 21
663.192350595428
 31
0.0
  0
LINE
  5
692
330
1E7
100
AcDbEntity
  8
1
  6
Continuous
 62
     4
100
AcDbLine
 10
863.9937500000003
 20
683.6677023132266
 30
0.0
 11
832.9125000000001
 21
652.5864523132262
 31
0.0
  0
LINE
  5
693
330
1E7
100
AcDbEntity
  8
1
  6
Continuous
 62
     4
100
AcDbLine
 10
863.9937499999998
 20
662.455202313226
 30
0.0
 11
844.7924852659291
 21
643.2539375791552
 31
0.0
  0
LINE
  5
694
330
1E7
100
AcDbEntity
  8
1
  6
Continuous
 62
     4
100
AcDbLine
 10
863.9937499999998
 20
673.0611005954282
 30
0.0
 11
837.8499999999997
 21
646.917350595428
 31
0.0
  0
LINE
  5
695
330
1E7
100
AcDbEntity
  8
1
  6
Continuous
 62
     4
100
AcDbLine
 10
844.0708605422113
 20
684.9573128554384
 30
0.0
 11
832.9125000000001
 21
673.7989523132264
 31
0.0
  0
LINE
  5
696
330
1E7
100
AcDbEntity
  8
1
  6
Continuous
 62
     4
100
AcDbLine
 10
818.8812499999997
 20
753.6739523132261
 30
0.0
 11
807.1378517177977
 21
765.4173505954283
 31
0.0
  0
LINE
  5
697
330
1E7
100
AcDbEntity
  8
1
  6
Continuous
 62
     4
100
AcDbLine
 10
814.8267530487796
 20
747.1218475466471
 30
0.0
 11
800.5062500000001
 21
761.4423505954277
 31
0.0
  0
LINE
  5
698
330
1E7
100
AcDbEntity
  8
1
  6
Continuous
 62
     4
100
AcDbLine
 10
867.8749999999999
 20
736.4986005954285
 30
0.0
 11
838.9562499999996
 21
765.4173505954283
 31
0.0
  0
LINE
  5
699
330
1E7
100
AcDbEntity
  8
1
  6
Continuous
 62
     4
100
AcDbLine
 10
867.8749999999997
 20
757.711100595428
 30
0.0
 11
860.1687499999997
 21
765.4173505954283
 31
0.0
  0
LINE
  5
69A
330
1E7
100
AcDbEntity
  8
1
  6
Continuous
 62
     4
100
AcDbLine
 10
867.8749999999999
 20
747.1044988776299
 30
0.0
 11
849.5621482822016
 21
765.4173505954283
 31
0.0
  0
LINE
  5
69B
330
1E7
100
AcDbEntity
  8
1
  6
Continuous
 62
     4
100
AcDbLine
 10
867.8749999999999
 20
725.8919988776303
 30
0.0
 11
832.9125000000001
 21
760.8544988776292
 31
0.0
  0
LINE
  5
69C
330
1E7
100
AcDbEntity
  8
1
  6
Continuous
 62
     4
100
AcDbLine
 10
845.6323871467963
 20
737.528713448632
 30
0.0
 11
832.9125000000001
 21
750.2486005954281
 31
0.0
  0
LINE
  5
69D
330
1E7
100
AcDbEntity
  8
1
  6
Continuous
 62
     4
100
AcDbLine
 10
856.5972286014025
 20
831.3048505954283
 30
0.0
 11
846.1733568674357
 21
820.4423505954283
 31
0.0
  0
LINE
  5
69E
330
1E7
100
AcDbEntity
  8
1
  6
Continuous
 62
     4
100
AcDbLine
 10
846.2025682897865
 20
831.3048505954281
 30
0.0
 11
836.9807843210596
 21
821.6950212616815
 31
0.0
  0
LINE
  5
69F
330
1E7
100
AcDbEntity
  8
1
  6
Continuous
 62
     4
100
AcDbLine
 10
835.8079079781697
 20
831.3048505954281
 30
0.0
 11
831.0150322185906
 21
826.3102944202231
 31
0.0
  0
LINE
  5
6A0
330
1E7
100
AcDbEntity
  8
1
  6
Continuous
 62
     4
100
AcDbLine
 10
866.0937500000001
 20
830.3673505954282
 30
0.0
 11
856.5657499999995
 21
820.4423505954283
 31
0.0
  0
LINE
  5
6A1
330
1E7
100
AcDbEntity
  8
1
  6
Continuous
 62
     4
100
AcDbLine
 10
854.96875
 20
862.0971641232271
 30
0.0
 11
837.0460588124762
 21
843.4236005954282
 31
0.0
  0
LINE
  5
6A2
330
1E7
100
AcDbEntity
  8
1
  6
Continuous
 62
     4
100
AcDbLine
 10
853.3381434464711
 20
871.2236005954283
 30
0.0
 11
837.0950947673751
 21
854.303317313426
 31
0.0
  0
LINE
  5
6A3
330
1E7
100
AcDbEntity
  8
1
  6
Continuous
 62
     4
100
AcDbLine
 10
842.941639305816
 20
871.2236005954283
 30
0.0
 11
836.7874999999996
 21
864.8128717680673
 31
0.0
  0
LINE
  5
7F4
330
1E7
100
AcDbEntity
  8
1
  6
Continuous
 62
     4
100
AcDbLine
 10
806.8624999999995
 20
490.9236005954282
 30
0.0
 11
806.8624999999995
 21
589.1861005954281
 31
0.0
  0
LINE
  5
7F7
330
1E7
100
AcDbEntity
  8
1
  6
Continuous
 62
     4
100
AcDbLine
 10
721.9110647356411
 20
333.7298505954283
 30
0.0
 11
726.5428590362427
 21
333.7298505954283
 31
0.0
  0
LINE
  5
853
330
1E7
100
AcDbEntity
  8
1
  6
Continuous
 62
     4
100
AcDbLine
 10
825.8999999999996
 20
628.3673505954277
 30
0.0
 11
825.8999999999996
 21
788.1673505954283
 31
0.0
  0
LINE
  5
908
330
1E7
100
AcDbEntity
  8
1
  6
Continuous
 62
     4
100
AcDbLine
 10
825.5312500000004
 20
511.486100595428
 30
0.0
 11
800.1375000000001
 21
536.8798505954281
 31
0.0
  0
LINE
  5
909
330
1E7
100
AcDbEntity
  8
1
  6
Continuous
 62
     4
100
AcDbLine
 10
851.2937500000001
 20
528.0103508645768
 30
0.0
 11
842.4242502691495
 21
536.8798505954281
 31
0.0
  0
LINE
  5
90B
330
1E7
100
AcDbEntity
  8
1
  6
Continuous
 62
     4
100
AcDbLine
 10
783.4434980102327
 20
436.760763612058
 30
0.0
 11
758.1874999999996
 21
462.0167616222913
 31
0.0
  0
LINE
  5
90C
330
1E7
100
AcDbEntity
  8
1
  6
Continuous
 62
     4
100
AcDbLine
 10
783.5812499999997
 20
458.511916202003
 30
0.0
 11
772.9320656065747
 21
469.161100595428
 31
0.0
  0
LINE
  5
90D
330
1E7
100
AcDbEntity
  8
1
  6
Continuous
 62
     4
100
AcDbLine
 10
783.5812499999997
 20
448.05000517514
 30
0.0
 11
762.4701545797119
 21
469.161100595428
 31
0.0
  0
LINE
  5
910
330
1E7
100
AcDbEntity
  8
1
  6
Continuous
 62
     4
100
AcDbLine
 10
783.5812499999997
 20
212.984258233067
 30
0.0
 11
758.1874999999999
 21
238.3780082330668
 31
0.0
  0
LINE
  5
911
330
1E7
100
AcDbEntity
  8
1
  6
Continuous
 62
     4
100
AcDbLine
 10
777.2591212039515
 20
198.2986005954282
 30
0.0
 11
758.1874999999999
 21
217.3702217993801
 31
0.0
  0
LINE
  5
912
330
1E7
100
AcDbEntity
  8
1
  6
Continuous
 62
     4
100
AcDbLine
 10
783.5812499999997
 20
202.5823700815819
 30
0.0
 11
758.1874999999996
 21
227.9761200815817
 31
0.0
  0
LINE
  5
913
330
1E7
100
AcDbEntity
  8
1
  6
Continuous
 62
     4
100
AcDbLine
 10
766.5760288415903
 20
198.2986005954282
 30
0.0
 11
758.1874999999999
 21
206.6871294370187
 31
0.0
  0
LINE
  5
914
330
1E7
100
AcDbEntity
  8
1
  6
Continuous
 62
     4
100
AcDbLine
 10
855.4503437997405
 20
267.9561051606285
 30
0.0
 11
838.4765983649412
 21
284.9298505954283
 31
0.0
  0
LINE
  5
915
330
1E7
100
AcDbEntity
  8
1
  6
Continuous
 62
     4
100
AcDbLine
 10
885.1499999999997
 20
249.2688138399511
 30
0.0
 11
868.090834372219
 21
266.3279794677328
 31
0.0
  0
LINE
  5
916
330
1E7
100
AcDbEntity
  8
1
  6
Continuous
 62
     4
100
AcDbLine
 10
885.1499999999997
 20
259.4400242421979
 30
0.0
 11
876.8276505795782
 21
267.76237366262
 31
0.0
  0
LINE
  5
BC6
330
1E7
100
AcDbEntity
  8
1
  6
Continuous
 62
     4
100
AcDbLine
 10
729.6307155235609
 20
333.7298505954283
 30
0.0
 11
890.1994123578445
 21
333.7298505954283
 31
0.0
  0
LINE
  5
BC7
330
1E7
100
AcDbEntity
  8
1
  6
Continuous
 62
     4
100
AcDbLine
 10
1036.872739049822
 20
333.7298505954283
 30
0.0
 11
1041.504533350424
 21
333.7298505954283
 31
0.0
  0
LINE
  5
BC9
330
1E7
100
AcDbEntity
  8
1
  6
Continuous
 62
     4
100
AcDbLine
 10
911.8144269083201
 20
333.7298505954283
 30
0.0
 11
1029.925057168544
 21
333.7298505954283
 31
0.0
  0
LINE
  5
E35
330
1E7
100
AcDbEntity
  8
1
  6
Continuous
 62
     3
100
AcDbLine
 10
1283.543749999997
 20
931.0798505954283
 30
0.0
 11
1283.543749999997
 21
678.404850595428
 31
0.0
  0
LINE
  5
E36
330
1E7
100
AcDbEntity
  8
1
  6
Continuous
 62
     7
100
AcDbLine
 10
935.9437499999996
 20
833.1361005954283
 30
0.0
 11
935.9437499999996
 21
871.2236005954283
 31
0.0
  0
LINE
  5
E37
330
1E7
100
AcDbEntity
  8
1
  6
Continuous
 62
     7
100
AcDbLine
 10
854.96875
 20
846.9548505954277
 30
0.0
 11
854.96875
 21
871.2236005954283
 31
0.0
  0
LINE
  5
E38
330
1E7
100
AcDbEntity
  8
1
  6
Continuous
 62
     7
100
AcDbLine
 10
856.75
 20
846.9548505954277
 30
0.0
 11
856.75
 21
871.2236005954283
 31
0.0
  0
LINE
  5
E39
330
1E7
100
AcDbEntity
  8
1
  6
Continuous
 62
     7
100
AcDbLine
 10
860.5
 20
846.9548505954277
 30
0.0
 11
860.5
 21
891.6548505954281
 31
0.0
  0
LINE
  5
E3A
330
1E7
100
AcDbEntity
  8
1
  6
Continuous
 62
     7
100
AcDbLine
 10
836.7874999999996
 20
854.5986005954283
 30
0.0
 11
830.4
 21
847.9486005954282
 31
0.0
  0
LINE
  5
E3B
330
1E7
100
AcDbEntity
  8
1
  6
Continuous
 62
     7
100
AcDbLine
 10
885.1500000000001
 20
228.1478636434944
 30
0.0
 11
885.1499999999999
 21
953.9861005954282
 31
0.0
  0
LINE
  5
E3C
330
1E7
100
AcDbEntity
  8
1
  6
Continuous
 62
     7
100
AcDbLine
 10
870.3437499999999
 20
464.4361005954281
 30
0.0
 11
870.3437499999999
 21
949.7548505954283
 31
0.0
  0
LINE
  5
E3D
330
1E7
100
AcDbEntity
  8
1
  6
Continuous
 62
     3
100
AcDbLine
 10
1294.7125
 20
333.7298505954283
 30
0.0
 11
1046.908283798166
 21
333.7298505954283
 31
0.0
  0
LINE
  5
E3E
330
1E7
100
AcDbEntity
  8
1
  6
Continuous
 62
     7
100
AcDbLine
 10
758.1875
 20
198.2986005954282
 30
0.0
 11
758.1875
 21
244.854850595428
 31
0.0
  0
LINE
  5
E3F
330
1E7
100
AcDbEntity
  8
1
  6
Continuous
 62
     7
100
AcDbLine
 10
1012.118749999997
 20
198.2986005954282
 30
0.0
 11
1012.118749999997
 21
469.1611005954277
 31
0.0
  0
LINE
  5
E40
330
1E7
100
AcDbEntity
  8
1
  6
Continuous
 62
     7
100
AcDbLine
 10
783.5812499999997
 20
198.2986005954282
 30
0.0
 11
783.5812499999997
 21
233.2109543369091
 31
0.0
  0
LINE
  5
E41
330
1E7
100
AcDbEntity
  8
1
  6
Continuous
 62
     7
100
AcDbLine
 10
986.7312499999997
 20
198.2986005954282
 30
0.0
 11
986.7312499999997
 21
231.0788441640373
 31
0.0
  0
LINE
  5
E42
330
1E7
100
AcDbEntity
  8
1
  6
Continuous
 62
     3
100
AcDbLine
 10
754.9062499999995
 20
234.9361005954281
 30
0.0
 11
754.9062499999995
 21
122.379850595428
 31
0.0
  0
LINE
  5
E43
330
1E7
100
AcDbEntity
  8
1
  6
Continuous
 62
     3
100
AcDbLine
 10
1015.268749999999
 20
120.142350595428
 30
0.0
 11
1015.268749999999
 21
234.9361005954281
 31
0.0
  0
LINE
  5
E44
330
1E7
100
AcDbEntity
  8
1
  6
Continuous
 62
     3
100
AcDbLine
 10
778.4312499999997
 20
131.3173505954279
 30
0.0
 11
991.2437499999999
 21
131.3173505954279
 31
0.0
  0
LINE
  5
E45
330
1E7
100
AcDbEntity
  8
1
  6
Continuous
 62
     3
100
AcDbLine
 10
755.90625
 20
131.3173505954279
 30
0.0
 11
778.4312499999997
 21
137.5486005954281
 31
0.0
  0
LINE
  5
E46
330
1E7
100
AcDbEntity
  8
1
  6
Continuous
 62
     3
100
AcDbLine
 10
755.90625
 20
131.3173505954279
 30
0.0
 11
778.4312499999997
 21
125.086100595428
 31
0.0
  0
LINE
  5
E47
330
1E7
100
AcDbEntity
  8
1
  6
Continuous
 62
     3
100
AcDbLine
 10
778.4312499999997
 20
137.5486005954281
 30
0.0
 11
778.4312499999997
 21
125.086100595428
 31
0.0
  0
LINE
  5
E48
330
1E7
100
AcDbEntity
  8
1
  6
Continuous
 62
     3
100
AcDbLine
 10
778.4312499999997
 20
137.5486005954281
 30
0.0
 11
778.4312499999997
 21
125.086100595428
 31
0.0
  0
LINE
  5
E49
330
1E7
100
AcDbEntity
  8
1
  6
Continuous
 62
     7
100
AcDbLine
 10
783.5812499999997
 20
198.2986005954282
 30
0.0
 11
758.1875
 21
198.2986005954282
 31
0.0
  0
LINE
  5
E4A
330
1E7
100
AcDbEntity
  8
1
  6
Continuous
 62
     3
100
AcDbLine
 10
1013.76875
 20
131.3173505954279
 30
0.0
 11
991.2437499999999
 21
137.5486005954281
 31
0.0
  0
LINE
  5
E4B
330
1E7
100
AcDbEntity
  8
1
  6
Continuous
 62
     3
100
AcDbLine
 10
1013.76875
 20
131.3173505954279
 30
0.0
 11
991.2437499999999
 21
125.086100595428
 31
0.0
  0
LINE
  5
E4C
330
1E7
100
AcDbEntity
  8
1
  6
Continuous
 62
     3
100
AcDbLine
 10
991.2437499999999
 20
125.086100595428
 30
0.0
 11
991.2437499999999
 21
137.5486005954281
 31
0.0
  0
LINE
  5
E4D
330
1E7
100
AcDbEntity
  8
1
  6
Continuous
 62
     3
100
AcDbLine
 10
991.2437499999999
 20
125.086100595428
 30
0.0
 11
991.2437499999999
 21
137.5486005954281
 31
0.0
  0
LINE
  5
E4E
330
1E7
100
AcDbEntity
  8
1
  6
Continuous
 62
     7
100
AcDbLine
 10
986.7312499999997
 20
198.2986005954282
 30
0.0
 11
1012.118749999997
 21
198.2986005954282
 31
0.0
  0
LINE
  5
E4F
330
1E7
100
AcDbEntity
  8
1
  6
Continuous
 62
     7
100
AcDbLine
 10
783.5812499999997
 20
515.7173505954281
 30
0.0
 11
783.5812499999997
 21
536.8798505954281
 31
0.0
  0
LINE
  5
E50
330
1E7
100
AcDbEntity
  8
1
  6
Continuous
 62
     7
100
AcDbLine
 10
986.7312499999997
 20
515.7173505954281
 30
0.0
 11
986.7312499999997
 21
536.8798505954281
 31
0.0
  0
LINE
  5
E51
330
1E7
100
AcDbEntity
  8
1
  6
Continuous
 62
     7
100
AcDbLine
 10
851.2937500000003
 20
433.3236005954281
 30
0.0
 11
851.2937500000003
 21
536.8798505954281
 31
0.0
  0
LINE
  5
E52
330
1E7
100
AcDbEntity
  8
1
  6
Continuous
 62
     1
100
AcDbLine
 10
885.1499999999999
 20
382.0173505954281
 30
0.0
 11
878.80625
 21
375.6673505954283
 31
0.0
  0
LINE
  5
E53
330
1E7
100
AcDbEntity
  8
1
  6
Continuous
 62
     1
100
AcDbLine
 10
859.6312499999996
 20
392.5423505954283
 30
0.0
 11
878.80625
 21
374.8486005954281
 31
0.0
  0
LINE
  5
E54
330
1E7
100
AcDbEntity
  8
1
  6
Continuous
 62
     3
100
AcDbLine
 10
876.8562499999998
 20
267.5548505954282
 30
0.0
 11
857.9500000000003
 21
404.7423505954283
 31
0.0
  0
LINE
  5
E55
330
1E7
100
AcDbEntity
  8
1
  6
Continuous
 62
     7
100
AcDbLine
 10
755.0687499999996
 20
244.854850595428
 30
0.0
 11
755.0687499999996
 21
422.6111005954281
 31
0.0
  0
LINE
  5
E56
330
1E7
100
AcDbEntity
  8
1
  6
Continuous
 62
     3
100
AcDbLine
 10
855.9062499999999
 20
264.6486005954283
 30
0.0
 11
836.99375
 21
401.8548505954282
 31
0.0
  0
LINE
  5
E57
330
1E7
100
AcDbEntity
  8
1
  6
Continuous
 62
     7
100
AcDbLine
 10
853.1124999999997
 20
284.9298505954283
 30
0.0
 11
755.0687499999996
 21
284.9298505954283
 31
0.0
  0
LINE
  5
E58
330
1E7
100
AcDbEntity
  8
1
  6
Continuous
 62
     7
100
AcDbLine
 10
755.0687499999996
 20
244.854850595428
 30
0.0
 11
758.1875
 21
244.854850595428
 31
0.0
  0
LINE
  5
E59
330
1E7
100
AcDbEntity
  8
1
  6
Continuous
 62
     1
100
AcDbLine
 10
878.80625
 20
285.7111005954283
 30
0.0
 11
878.80625
 21
374.8486005954281
 31
0.0
  0
LINE
  5
E5A
330
1E7
100
AcDbEntity
  8
1
  6
Continuous
 62
     1
100
AcDbLine
 10
885.1499999999999
 20
296.0298505954281
 30
0.0
 11
878.80625
 21
289.6798505954283
 31
0.0
  0
LINE
  5
E5B
330
1E7
100
AcDbEntity
  8
1
  6
Continuous
 62
     1
100
AcDbLine
 10
876.8562499999998
 20
267.5548505954282
 30
0.0
 11
885.61875
 21
265.673600595428
 31
0.0
  0
LINE
  5
E5C
330
1E7
100
AcDbEntity
  8
1
  6
Continuous
 62
     1
100
AcDbLine
 10
885.1499999999999
 20
274.5361005954283
 30
0.0
 11
877.9374999999999
 21
267.3236005954282
 31
0.0
  0
LINE
  5
E5D
330
1E7
100
AcDbEntity
  8
1
  6
Continuous
 62
     1
100
AcDbLine
 10
885.1499999999999
 20
285.2798505954281
 30
0.0
 11
875.71875
 21
275.8486005954281
 31
0.0
  0
LINE
  5
E5E
330
1E7
100
AcDbEntity
  8
1
  6
Continuous
 62
     3
100
AcDbLine
 10
875.9937499999999
 20
273.829850595428
 30
0.0
 11
855.0374999999997
 21
270.9486005954282
 31
0.0
  0
LINE
  5
E5F
330
1E7
100
AcDbEntity
  8
1
  6
Continuous
 62
     3
100
AcDbLine
 10
867.8875000000003
 20
266.2986005954282
 30
0.0
 11
862.2437500000001
 21
271.9423505954281
 31
0.0
  0
LINE
  5
E60
330
1E7
100
AcDbEntity
  8
1
  6
Continuous
 62
     3
100
AcDbLine
 10
876.8562499999998
 20
267.536100595428
 30
0.0
 11
855.9062499999999
 21
264.6486005954283
 31
0.0
  0
LINE
  5
E61
330
1E7
100
AcDbEntity
  8
1
  6
Continuous
 62
     3
100
AcDbLine
 10
858.4374999999999
 20
264.998600595428
 30
0.0
 11
855.4437499999997
 21
267.998600595428
 31
0.0
  0
LINE
  5
E62
330
1E7
100
AcDbEntity
  8
1
  6
Continuous
 62
     3
100
AcDbLine
 10
876.7749999999999
 20
268.173600595428
 30
0.0
 11
871.7062499999997
 21
273.2423505954283
 31
0.0
  0
LINE
  5
E63
330
1E7
100
AcDbEntity
  8
1
  6
Continuous
 62
     1
100
AcDbLine
 10
878.80625
 20
285.7111005954283
 30
0.0
 11
874.8312499999997
 21
282.2298505954283
 31
0.0
  0
LINE
  5
E64
330
1E7
100
AcDbEntity
  8
1
  6
Continuous
 62
     1
100
AcDbLine
 10
885.1499999999999
 20
371.2673505954281
 30
0.0
 11
878.80625
 21
364.9236005954282
 31
0.0
  0
LINE
  5
E65
330
1E7
100
AcDbEntity
  8
1
  6
Continuous
 62
     1
100
AcDbLine
 10
885.1499999999999
 20
360.5236005954281
 30
0.0
 11
878.80625
 21
354.1736005954281
 31
0.0
  0
LINE
  5
E66
330
1E7
100
AcDbEntity
  8
1
  6
Continuous
 62
     1
100
AcDbLine
 10
885.1499999999999
 20
349.7736005954283
 30
0.0
 11
878.80625
 21
343.4298505954282
 31
0.0
  0
LINE
  5
E67
330
1E7
100
AcDbEntity
  8
1
  6
Continuous
 62
     1
100
AcDbLine
 10
885.1499999999999
 20
339.0298505954281
 30
0.0
 11
878.80625
 21
332.6798505954283
 31
0.0
  0
LINE
  5
E68
330
1E7
100
AcDbEntity
  8
1
  6
Continuous
 62
     1
100
AcDbLine
 10
885.1499999999999
 20
328.2798505954281
 30
0.0
 11
878.80625
 21
321.9361005954281
 31
0.0
  0
LINE
  5
E69
330
1E7
100
AcDbEntity
  8
1
  6
Continuous
 62
     1
100
AcDbLine
 10
885.1499999999999
 20
317.5361005954282
 30
0.0
 11
878.80625
 21
311.1861005954281
 31
0.0
  0
LINE
  5
E6A
330
1E7
100
AcDbEntity
  8
1
  6
Continuous
 62
     1
100
AcDbLine
 10
885.1499999999999
 20
306.7736005954283
 30
0.0
 11
878.80625
 21
300.4298505954283
 31
0.0
  0
LINE
  5
E6B
330
1E7
100
AcDbEntity
  8
1
  6
Continuous
 62
     7
100
AcDbLine
 10
833.2874999999997
 20
511.4861005954281
 30
0.0
 11
787.8124999999995
 21
511.4861005954281
 31
0.0
  0
LINE
  5
E6C
330
1E7
100
AcDbEntity
  8
1
  6
Continuous
 62
     7
100
AcDbLine
 10
839.0062499999997
 20
387.2298505954283
 30
0.0
 11
755.0687499999996
 21
387.2298505954283
 31
0.0
  0
LINE
  5
E6D
330
1E7
100
AcDbEntity
  8
1
  6
Continuous
 62
     7
100
AcDbLine
 10
758.1875
 20
422.6111005954281
 30
0.0
 11
758.1875
 21
469.161100595428
 31
0.0
  0
LINE
  5
E6E
330
1E7
100
AcDbEntity
  8
1
  6
Continuous
 62
     7
100
AcDbLine
 10
783.5812499999997
 20
438.5378413622176
 30
0.0
 11
783.5812499999997
 21
469.161100595428
 31
0.0
  0
LINE
  5
E6F
330
1E7
100
AcDbEntity
  8
1
  6
Continuous
 62
     7
100
AcDbLine
 10
755.0687499999996
 20
422.6111005954281
 30
0.0
 11
758.1875
 21
422.6111005954281
 31
0.0
  0
LINE
  5
E70
330
1E7
100
AcDbEntity
  8
1
  6
Continuous
 62
     7
100
AcDbLine
 10
783.5812499999997
 20
469.161100595428
 30
0.0
 11
758.1875
 21
469.161100595428
 31
0.0
  0
LINE
  5
E71
330
1E7
100
AcDbEntity
  8
1
  6
Continuous
 62
     7
100
AcDbLine
 10
813.7062499999997
 20
497.773600595428
 30
0.0
 11
813.7062499999997
 21
490.9236005954282
 31
0.0
  0
LINE
  5
E72
330
1E7
100
AcDbEntity
  8
1
  6
Continuous
 62
     7
100
AcDbLine
 10
799.9937499999997
 20
497.773600595428
 30
0.0
 11
799.9937499999997
 21
490.9236005954282
 31
0.0
  0
LINE
  5
E73
330
1E7
100
AcDbEntity
  8
1
  6
Continuous
 62
     7
100
AcDbLine
 10
799.9937499999997
 20
490.9236005954282
 30
0.0
 11
813.7062499999997
 21
490.9236005954282
 31
0.0
  0
LINE
  5
E74
330
1E7
100
AcDbEntity
  8
1
  6
Continuous
 62
     7
100
AcDbLine
 10
793.1437499999997
 20
497.773600595428
 30
0.0
 11
820.575
 21
497.773600595428
 31
0.0
  0
LINE
  5
E75
330
1E7
100
AcDbEntity
  8
1
  6
Continuous
 62
     7
100
AcDbLine
 10
783.5812499999997
 20
515.7173505954281
 30
0.0
 11
787.8124999999995
 21
511.4861005954281
 31
0.0
  0
LINE
  5
E76
330
1E7
100
AcDbEntity
  8
1
  6
Continuous
 62
     7
100
AcDbLine
 10
799.9937499999997
 20
510.461100595428
 30
0.0
 11
799.9937499999997
 21
498.7986005954281
 31
0.0
  0
LINE
  5
E77
330
1E7
100
AcDbEntity
  8
1
  6
Continuous
 62
     7
100
AcDbLine
 10
799.9937499999997
 20
511.4861005954281
 30
0.0
 11
799.9937499999997
 21
497.773600595428
 31
0.0
  0
LINE
  5
E78
330
1E7
100
AcDbEntity
  8
1
  6
Continuous
 62
     7
100
AcDbLine
 10
793.1437499999997
 20
511.4861005954281
 30
0.0
 11
793.1437499999997
 21
497.773600595428
 31
0.0
  0
LINE
  5
E79
330
1E7
100
AcDbEntity
  8
1
  6
Continuous
 62
     7
100
AcDbLine
 10
813.7062499999997
 20
510.461100595428
 30
0.0
 11
813.7062499999997
 21
498.7986005954281
 31
0.0
  0
LINE
  5
E7A
330
1E7
100
AcDbEntity
  8
1
  6
Continuous
 62
     7
100
AcDbLine
 10
813.7062499999997
 20
511.4861005954281
 30
0.0
 11
813.7062499999997
 21
497.773600595428
 31
0.0
  0
LINE
  5
E7B
330
1E7
100
AcDbEntity
  8
1
  6
Continuous
 62
     7
100
AcDbLine
 10
820.575
 20
511.4861005954281
 30
0.0
 11
820.575
 21
497.773600595428
 31
0.0
  0
LINE
  5
E7C
330
1E7
100
AcDbEntity
  8
1
  6
Continuous
 62
     7
100
AcDbLine
 10
866.4749999999996
 20
454.0986005954279
 30
0.0
 11
870.875
 21
459.1861005954282
 31
0.0
  0
LINE
  5
E7D
330
1E7
100
AcDbEntity
  8
1
  6
Continuous
 62
     7
100
AcDbLine
 10
838.6000000000001
 20
438.4106196895968
 30
0.0
 11
838.6000000000001
 21
484.0673505954281
 31
0.0
  0
LINE
  5
E7E
330
1E7
100
AcDbEntity
  8
1
  6
Continuous
 62
     7
100
AcDbLine
 10
885.1499999999999
 20
454.0986005954279
 30
0.0
 11
866.4749999999996
 21
454.0986005954279
 31
0.0
  0
LINE
  5
E7F
330
1E7
100
AcDbEntity
  8
1
  6
Continuous
 62
     1
100
AcDbLine
 10
885.1499999999999
 20
415.3923505954281
 30
0.0
 11
856.3937499999997
 21
415.3923505954281
 31
0.0
  0
LINE
  5
E80
330
1E7
100
AcDbEntity
  8
1
  6
Continuous
 62
     1
100
AcDbLine
 10
885.1499999999999
 20
392.7611005954283
 30
0.0
 11
872.7874999999997
 21
380.3986005954281
 31
0.0
  0
LINE
  5
E81
330
1E7
100
AcDbEntity
  8
1
  6
Continuous
 62
     1
100
AcDbLine
 10
885.4499999999998
 20
414.5548505954281
 30
0.0
 11
861.2874999999997
 21
390.3923505954281
 31
0.0
  0
LINE
  5
E82
330
1E7
100
AcDbEntity
  8
1
  6
Continuous
 62
     1
100
AcDbLine
 10
885.1499999999999
 20
403.5111005954282
 30
0.0
 11
867.2062499999997
 21
385.5611005954281
 31
0.0
  0
LINE
  5
E83
330
1E7
100
AcDbEntity
  8
1
  6
Continuous
 62
     7
100
AcDbLine
 10
856.7750000000001
 20
404.6298505954281
 30
0.0
 11
856.0624999999999
 21
425.1923505954279
 31
0.0
  0
LINE
  5
E84
330
1E7
100
AcDbEntity
  8
1
  6
Continuous
 62
     7
100
AcDbLine
 10
866.4749999999996
 20
415.3923505954281
 30
0.0
 11
866.4749999999996
 21
454.0986005954279
 31
0.0
  0
LINE
  5
E85
330
1E7
100
AcDbEntity
  8
1
  6
Continuous
 62
     3
100
AcDbLine
 10
858.45
 20
398.4048505954281
 30
0.0
 11
852.8249999999996
 21
404.0298505954281
 31
0.0
  0
LINE
  5
E86
330
1E7
100
AcDbEntity
  8
1
  6
Continuous
 62
     3
100
AcDbLine
 10
857.9500000000003
 20
404.7423505954283
 30
0.0
 11
836.99375
 21
401.8548505954282
 31
0.0
  0
LINE
  5
E87
330
1E7
100
AcDbEntity
  8
1
  6
Continuous
 62
     3
100
AcDbLine
 10
858.45
 20
398.4048505954281
 30
0.0
 11
837.8687499999998
 21
395.5673505954281
 31
0.0
  0
LINE
  5
E88
330
1E7
100
AcDbEntity
  8
1
  6
Continuous
 62
     3
100
AcDbLine
 10
839.55
 20
395.7986005954282
 30
0.0
 11
837.5499999999997
 21
397.7986005954281
 31
0.0
  0
LINE
  5
E89
330
1E7
100
AcDbEntity
  8
1
  6
Continuous
 62
     3
100
AcDbLine
 10
849.0
 20
397.0986005954283
 30
0.0
 11
843.3624999999997
 21
402.7298505954282
 31
0.0
  0
LINE
  5
E8A
330
1E7
100
AcDbEntity
  8
1
  6
Continuous
 62
     1
100
AcDbLine
 10
875.53125
 20
415.3923505954281
 30
0.0
 11
858.7874999999996
 21
398.6486005954283
 31
0.0
  0
LINE
  5
E8B
330
1E7
100
AcDbEntity
  8
1
  6
Continuous
 62
     1
100
AcDbLine
 10
864.78125
 20
415.3923505954281
 30
0.0
 11
856.6812499999999
 21
407.2923505954283
 31
0.0
  0
LINE
  5
E8C
330
1E7
100
AcDbEntity
  8
1
  6
Continuous
 62
     7
100
AcDbLine
 10
851.2937500000003
 20
433.3236005954281
 30
0.0
 11
856.0624999999999
 21
425.1923505954279
 31
0.0
  0
LINE
  5
E8D
330
1E7
100
AcDbEntity
  8
1
  6
Continuous
 62
     7
100
AcDbLine
 10
885.1499999999999
 20
459.1861005954282
 30
0.0
 11
870.875
 21
459.1861005954282
 31
0.0
  0
LINE
  5
E8E
330
1E7
100
AcDbEntity
  8
1
  6
Continuous
 62
     7
100
AcDbLine
 10
885.1499999999999
 20
464.4361005954281
 30
0.0
 11
870.3437499999999
 21
464.4361005954281
 31
0.0
  0
LINE
  5
E8F
330
1E7
100
AcDbEntity
  8
1
  6
Continuous
 62
     7
100
AcDbLine
 10
838.6000000000001
 20
484.0673505954281
 30
0.0
 11
833.2874999999997
 21
511.4861005954281
 31
0.0
  0
LINE
  5
E90
330
1E7
100
AcDbEntity
  8
1
  6
Continuous
 62
     7
100
AcDbLine
 10
873.6499999999999
 20
459.1861005954282
 30
0.0
 11
873.6499999999999
 21
464.4361005954281
 31
0.0
  0
LINE
  5
E91
330
1E7
100
AcDbEntity
  8
1
  6
Continuous
 62
     7
100
AcDbLine
 10
1015.237499999999
 20
244.854850595428
 30
0.0
 11
1015.237499999999
 21
422.6111005954281
 31
0.0
  0
LINE
  5
E92
330
1E7
100
AcDbEntity
  8
1
  6
Continuous
 62
     7
100
AcDbLine
 10
1015.237499999999
 20
244.854850595428
 30
0.0
 11
1012.118749999997
 21
244.854850595428
 31
0.0
  0
LINE
  5
E93
330
1E7
100
AcDbEntity
  8
1
  6
Continuous
 62
     7
100
AcDbLine
 10
986.7312499999997
 20
438.53784136223
 30
0.0
 11
986.7312499999997
 21
469.161100595428
 31
0.0
  0
LINE
  5
E94
330
1E7
100
AcDbEntity
  8
1
  6
Continuous
 62
     7
100
AcDbLine
 10
931.7062500000004
 20
438.5378413622176
 30
0.0
 11
931.7062500000004
 21
484.0673505954281
 31
0.0
  0
LINE
  5
E95
330
1E7
100
AcDbEntity
  8
1
  6
Continuous
 62
     7
100
AcDbLine
 10
1015.237499999999
 20
422.6111005954281
 30
0.0
 11
1012.118749999997
 21
422.6111005954281
 31
0.0
  0
LINE
  5
E96
330
1E7
100
AcDbEntity
  8
1
  6
Continuous
 62
     7
100
AcDbLine
 10
937.01875
 20
511.4861005954281
 30
0.0
 11
982.5000000000001
 21
511.4861005954281
 31
0.0
  0
LINE
  5
E97
330
1E7
100
AcDbEntity
  8
1
  6
Continuous
 62
     7
100
AcDbLine
 10
931.7062500000004
 20
484.0673505954281
 30
0.0
 11
937.01875
 21
511.4861005954281
 31
0.0
  0
LINE
  5
E98
330
1E7
100
AcDbEntity
  8
1
  6
Continuous
 62
     7
100
AcDbLine
 10
986.7312499999997
 20
469.161100595428
 30
0.0
 11
1012.118749999997
 21
469.1611005954277
 31
0.0
  0
LINE
  5
E99
330
1E7
100
AcDbEntity
  8
1
  6
Continuous
 62
     7
100
AcDbLine
 10
986.7312499999997
 20
515.7173505954281
 30
0.0
 11
982.5000000000001
 21
511.4861005954281
 31
0.0
  0
LINE
  5
E9A
330
1E7
100
AcDbEntity
  8
1
  6
Continuous
 62
     7
100
AcDbLine
 10
933.4625
 20
741.3548505954282
 30
0.0
 11
918.3937499999997
 21
733.5673505954283
 31
0.0
  0
LINE
  5
E9B
330
1E7
100
AcDbEntity
  8
1
  6
Continuous
 62
     7
100
AcDbLine
 10
923.2499999999999
 20
685.4673505954282
 30
0.0
 11
950.7562499999997
 21
680.7736005954279
 31
0.0
  0
LINE
  5
E9C
330
1E7
100
AcDbEntity
  8
1
  6
Continuous
 62
     7
100
AcDbLine
 10
906.3124999999999
 20
765.4173505954283
 30
0.0
 11
969.8000000000003
 21
765.4173505954283
 31
0.0
  0
LINE
  5
E9D
330
1E7
100
AcDbEntity
  8
1
  6
Continuous
 62
     7
100
AcDbLine
 10
935.9437499999996
 20
603.2423505954279
 30
0.0
 11
927.4437500000001
 21
619.8298505954282
 31
0.0
  0
LINE
  5
E9E
330
1E7
100
AcDbEntity
  8
1
  6
Continuous
 62
     7
100
AcDbLine
 10
925.1999999999997
 20
646.9173505954282
 30
0.0
 11
961.3374999999999
 21
646.9173505954282
 31
0.0
  0
LINE
  5
E9F
330
1E7
100
AcDbEntity
  8
1
  6
Continuous
 62
     7
100
AcDbLine
 10
935.9437499999996
 20
833.1361005954283
 30
0.0
 11
923.2499999999999
 21
820.4423505954283
 31
0.0
  0
LINE
  5
EA0
330
1E7
100
AcDbEntity
  8
1
  6
Continuous
 62
     7
100
AcDbLine
 10
923.2499999999999
 20
685.4673505954282
 30
0.0
 11
923.2499999999999
 21
693.936100595428
 31
0.0
  0
LINE
  5
EA1
330
1E7
100
AcDbEntity
  8
1
  6
Continuous
 62
     7
100
AcDbLine
 10
863.99375
 20
622.6673505954282
 30
0.0
 11
863.99375
 21
715.0986005954283
 31
0.0
  0
LINE
  5
EA2
330
1E7
100
AcDbEntity
  8
1
  6
Continuous
 62
     7
100
AcDbLine
 10
847.0625
 20
685.4673505954282
 30
0.0
 11
847.0625
 21
693.936100595428
 31
0.0
  0
LINE
  5
EA3
330
1E7
100
AcDbEntity
  8
1
  6
Continuous
 62
     7
100
AcDbLine
 10
819.73125
 20
646.9173505954282
 30
0.0
 11
819.73125
 21
769.6548505954283
 31
0.0
  0
LINE
  5
EA4
330
1E7
100
AcDbEntity
  8
1
  6
Continuous
 62
     7
100
AcDbLine
 10
832.06875
 20
769.6548505954283
 30
0.0
 11
832.06875
 21
646.9173505954282
 31
0.0
  0
LINE
  5
EA5
330
1E7
100
AcDbEntity
  8
1
  6
Continuous
 62
     7
100
AcDbLine
 10
845.09375
 20
646.9173505954282
 30
0.0
 11
808.9749999999996
 21
646.9173505954282
 31
0.0
  0
LINE
  5
EA6
330
1E7
100
AcDbEntity
  8
1
  6
Continuous
 62
     7
100
AcDbLine
 10
813.55625
 20
634.5486005954281
 30
0.0
 11
838.2437499999998
 21
634.5486005954281
 31
0.0
  0
LINE
  5
EA7
330
1E7
100
AcDbEntity
  8
1
  6
Continuous
 62
     7
100
AcDbLine
 10
819.73125
 20
628.3673505954277
 30
0.0
 11
832.06875
 21
628.3673505954277
 31
0.0
  0
LINE
  5
EA8
330
1E7
100
AcDbEntity
  8
1
  6
Continuous
 62
     7
100
AcDbLine
 10
834.3687499999997
 20
579.1986005954282
 30
0.0
 11
823.7874999999997
 21
568.6173505954282
 31
0.0
  0
LINE
  5
EA9
330
1E7
100
AcDbEntity
  8
1
  6
Continuous
 62
     7
100
AcDbLine
 10
870.3437499999999
 20
543.2236005954281
 30
0.0
 11
783.5812499999997
 21
543.2236005954281
 31
0.0
  0
LINE
  5
EAA
330
1E7
100
AcDbEntity
  8
1
  6
Continuous
 62
     7
100
AcDbLine
 10
870.3437499999999
 20
536.8798505954281
 30
0.0
 11
783.5812499999997
 21
536.8798505954281
 31
0.0
  0
LINE
  5
EAB
330
1E7
100
AcDbEntity
  8
1
  6
Continuous
 62
     7
100
AcDbLine
 10
820.575
 20
568.6173505954282
 30
0.0
 11
820.575
 21
582.3361005954279
 31
0.0
  0
LINE
  5
EAC
330
1E7
100
AcDbEntity
  8
1
  6
Continuous
 62
     7
100
AcDbLine
 10
799.9937499999997
 20
568.6173505954282
 30
0.0
 11
799.9937499999997
 21
582.3361005954279
 31
0.0
  0
LINE
  5
EAD
330
1E7
100
AcDbEntity
  8
1
  6
Continuous
 62
     7
100
AcDbLine
 10
799.9937499999997
 20
569.6486005954279
 30
0.0
 11
799.9937499999997
 21
581.3173505954282
 31
0.0
  0
LINE
  5
EAE
330
1E7
100
AcDbEntity
  8
1
  6
Continuous
 62
     7
100
AcDbLine
 10
813.7062499999997
 20
568.6173505954282
 30
0.0
 11
813.7062499999997
 21
582.3361005954279
 31
0.0
  0
LINE
  5
EAF
330
1E7
100
AcDbEntity
  8
1
  6
Continuous
 62
     7
100
AcDbLine
 10
813.7062499999997
 20
569.6486005954279
 30
0.0
 11
813.7062499999997
 21
581.3173505954282
 31
0.0
  0
LINE
  5
EB0
330
1E7
100
AcDbEntity
  8
1
  6
Continuous
 62
     7
100
AcDbLine
 10
793.1437499999997
 20
568.6173505954282
 30
0.0
 11
793.1437499999997
 21
582.3361005954279
 31
0.0
  0
LINE
  5
EB1
330
1E7
100
AcDbEntity
  8
1
  6
Continuous
 62
     7
100
AcDbLine
 10
823.7874999999997
 20
568.6173505954282
 30
0.0
 11
787.8124999999995
 21
568.6173505954282
 31
0.0
  0
LINE
  5
EB2
330
1E7
100
AcDbEntity
  8
1
  6
Continuous
 62
     7
100
AcDbLine
 10
783.5812499999997
 20
543.2236005954281
 30
0.0
 11
783.5812499999997
 21
564.386100595428
 31
0.0
  0
LINE
  5
EB3
330
1E7
100
AcDbEntity
  8
1
  6
Continuous
 62
     7
100
AcDbLine
 10
799.9749999999997
 20
542.5048505954281
 30
0.0
 11
799.9749999999997
 21
537.6736005954283
 31
0.0
  0
LINE
  5
EB4
330
1E7
100
AcDbEntity
  8
1
  6
Continuous
 62
     7
100
AcDbLine
 10
783.5812499999997
 20
564.386100595428
 30
0.0
 11
787.8124999999995
 21
568.6173505954282
 31
0.0
  0
LINE
  5
EB5
330
1E7
100
AcDbEntity
  8
1
  6
Continuous
 62
     7
100
AcDbLine
 10
813.775
 20
542.1611005954281
 30
0.0
 11
813.775
 21
537.6736005954283
 31
0.0
  0
LINE
  5
EB6
330
1E7
100
AcDbEntity
  8
1
  6
Continuous
 62
     7
100
AcDbLine
 10
799.9937499999997
 20
589.1861005954281
 30
0.0
 11
813.7062499999997
 21
589.1861005954281
 31
0.0
  0
LINE
  5
EB7
330
1E7
100
AcDbEntity
  8
1
  6
Continuous
 62
     7
100
AcDbLine
 10
793.1437499999997
 20
582.3361005954279
 30
0.0
 11
820.575
 21
582.3361005954279
 31
0.0
  0
LINE
  5
EB8
330
1E7
100
AcDbEntity
  8
1
  6
Continuous
 62
     7
100
AcDbLine
 10
799.9937499999997
 20
582.3361005954279
 30
0.0
 11
799.9937499999997
 21
589.1861005954281
 31
0.0
  0
LINE
  5
EB9
330
1E7
100
AcDbEntity
  8
1
  6
Continuous
 62
     7
100
AcDbLine
 10
813.7062499999997
 20
582.3361005954279
 30
0.0
 11
813.7062499999997
 21
589.1861005954281
 31
0.0
  0
LINE
  5
EBA
330
1E7
100
AcDbEntity
  8
1
  6
Continuous
 62
     7
100
AcDbLine
 10
808.9749999999996
 20
646.9173505954282
 30
0.0
 11
808.9749999999996
 21
670.1923505954282
 31
0.0
  0
LINE
  5
EBB
330
1E7
100
AcDbEntity
  8
1
  6
Continuous
 62
     7
100
AcDbLine
 10
818.8812499999997
 20
646.9173505954282
 30
0.0
 11
818.8812499999997
 21
680.7548505954281
 31
0.0
  0
LINE
  5
EBC
330
1E7
100
AcDbEntity
  8
1
  6
Continuous
 62
     7
100
AcDbLine
 10
819.73125
 20
634.5486005954281
 30
0.0
 11
819.73125
 21
628.3673505954277
 31
0.0
  0
LINE
  5
EBD
330
1E7
100
AcDbEntity
  8
1
  6
Continuous
 62
     7
100
AcDbLine
 10
813.55625
 20
646.9173505954282
 30
0.0
 11
813.55625
 21
634.5486005954281
 31
0.0
  0
LINE
  5
EBE
330
1E7
100
AcDbEntity
  8
1
  6
Continuous
 62
     7
100
AcDbLine
 10
819.73125
 20
646.9173505954282
 30
0.0
 11
819.73125
 21
634.5486005954281
 31
0.0
  0
LINE
  5
EBF
330
1E7
100
AcDbEntity
  8
1
  6
Continuous
 62
     7
100
AcDbLine
 10
819.73125
 20
645.9611005954277
 30
0.0
 11
819.73125
 21
635.4673505954282
 31
0.0
  0
ARC
  5
EC0
330
1E7
100
AcDbEntity
  8
1
  6
Continuous
 62
     7
100
AcDbCircle
 10
819.6235730000003
 20
670.1300275954282
 30
0.0
 40
10.649734
100
AcDbArc
 50
89.41228099999669
 51
179.1466609999995
  0
LINE
  5
EC1
330
1E7
100
AcDbEntity
  8
1
  6
Continuous
 62
     7
100
AcDbLine
 10
851.2937500000003
 20
599.1486005954278
 30
0.0
 11
861.1437499999997
 21
618.3923505954282
 31
0.0
  0
LINE
  5
EC2
330
1E7
100
AcDbEntity
  8
1
  6
Continuous
 62
     7
100
AcDbLine
 10
861.9374999999999
 20
607.4611005954277
 30
0.0
 11
861.9374999999999
 21
618.3923505954282
 31
0.0
  0
LINE
  5
EC3
330
1E7
100
AcDbEntity
  8
1
  6
Continuous
 62
     7
100
AcDbLine
 10
834.3687499999997
 20
603.2548505954282
 30
0.0
 11
842.86875
 21
619.8611005954282
 31
0.0
  0
LINE
  5
EC4
330
1E7
100
AcDbEntity
  8
1
  6
Continuous
 62
     7
100
AcDbLine
 10
851.2937500000003
 20
543.2236005954281
 30
0.0
 11
851.2937500000003
 21
599.1486005954278
 31
0.0
  0
LINE
  5
EC5
330
1E7
100
AcDbEntity
  8
1
  6
Continuous
 62
     7
100
AcDbLine
 10
834.3687499999997
 20
579.1986005954282
 30
0.0
 11
834.3687499999997
 21
603.2548505954282
 31
0.0
  0
LINE
  5
EC6
330
1E7
100
AcDbEntity
  8
1
  6
Continuous
 62
     7
100
AcDbLine
 10
870.3437499999999
 20
607.4611005954277
 30
0.0
 11
861.9374999999999
 21
607.4611005954277
 31
0.0
  0
LINE
  5
EC7
330
1E7
100
AcDbEntity
  8
1
  6
Continuous
 62
     7
100
AcDbLine
 10
832.9125000000001
 20
683.0548505954277
 30
0.0
 11
832.9125000000001
 21
646.9173505954282
 31
0.0
  0
LINE
  5
EC8
330
1E7
100
AcDbEntity
  8
1
  6
Continuous
 62
     7
100
AcDbLine
 10
832.06875
 20
634.5486005954281
 30
0.0
 11
832.06875
 21
628.3673505954277
 31
0.0
  0
LINE
  5
EC9
330
1E7
100
AcDbEntity
  8
1
  6
Continuous
 62
     7
100
AcDbLine
 10
842.86875
 20
619.8611005954282
 30
0.0
 11
845.09375
 21
646.9173505954282
 31
0.0
  0
LINE
  5
ECA
330
1E7
100
AcDbEntity
  8
1
  6
Continuous
 62
     7
100
AcDbLine
 10
838.2437499999998
 20
646.9173505954282
 30
0.0
 11
838.2437499999998
 21
634.5486005954281
 31
0.0
  0
LINE
  5
ECB
330
1E7
100
AcDbEntity
  8
1
  6
Continuous
 62
     7
100
AcDbLine
 10
832.06875
 20
646.9173505954282
 30
0.0
 11
832.06875
 21
634.5486005954281
 31
0.0
  0
LINE
  5
ECC
330
1E7
100
AcDbEntity
  8
1
  6
Continuous
 62
     7
100
AcDbLine
 10
832.06875
 20
645.9611005954277
 30
0.0
 11
832.06875
 21
635.4673505954282
 31
0.0
  0
LINE
  5
ECD
330
1E7
100
AcDbEntity
  8
1
  6
Continuous
 62
     7
100
AcDbLine
 10
863.99375
 20
627.2736005954278
 30
0.0
 11
870.3437499999999
 21
627.2736005954278
 31
0.0
  0
LINE
  5
ECE
330
1E7
100
AcDbEntity
  8
1
  6
Continuous
 62
     7
100
AcDbLine
 10
859.5562499999997
 20
618.3923505954282
 30
0.0
 11
861.9374999999999
 21
618.3923505954282
 31
0.0
  0
LINE
  5
ECF
330
1E7
100
AcDbEntity
  8
1
  6
Continuous
 62
     7
100
AcDbLine
 10
859.5562499999997
 20
622.6673505954282
 30
0.0
 11
859.5562499999997
 21
618.3923505954282
 31
0.0
  0
LINE
  5
ED0
330
1E7
100
AcDbEntity
  8
1
  6
Continuous
 62
     7
100
AcDbLine
 10
863.99375
 20
622.6673505954282
 30
0.0
 11
859.5562499999997
 21
622.6673505954282
 31
0.0
  0
LINE
  5
ED1
330
1E7
100
AcDbEntity
  8
1
  6
Continuous
 62
     7
100
AcDbLine
 10
863.99375
 20
637.8486005954282
 30
0.0
 11
870.3437499999999
 21
637.8486005954282
 31
0.0
  0
LINE
  5
ED2
330
1E7
100
AcDbEntity
  8
1
  6
Continuous
 62
     7
100
AcDbLine
 10
863.99375
 20
648.429850595428
 30
0.0
 11
870.3437499999999
 21
648.429850595428
 31
0.0
  0
LINE
  5
ED3
330
1E7
100
AcDbEntity
  8
1
  6
Continuous
 62
     7
100
AcDbLine
 10
847.0625
 20
685.4673505954282
 30
0.0
 11
832.06875
 21
682.9111005954281
 31
0.0
  0
LINE
  5
ED4
330
1E7
100
AcDbEntity
  8
1
  6
Continuous
 62
     7
100
AcDbLine
 10
863.99375
 20
659.0111005954282
 30
0.0
 11
870.3437499999999
 21
659.0111005954282
 31
0.0
  0
LINE
  5
ED5
330
1E7
100
AcDbEntity
  8
1
  6
Continuous
 62
     7
100
AcDbLine
 10
863.99375
 20
669.5923505954278
 30
0.0
 11
870.3437499999999
 21
669.5923505954278
 31
0.0
  0
LINE
  5
ED6
330
1E7
100
AcDbEntity
  8
1
  6
Continuous
 62
     7
100
AcDbLine
 10
863.99375
 20
680.1736005954282
 30
0.0
 11
870.3437499999999
 21
680.1736005954282
 31
0.0
  0
LINE
  5
ED7
330
1E7
100
AcDbEntity
  8
1
  6
Continuous
 62
     7
100
AcDbLine
 10
863.99375
 20
690.7548505954284
 30
0.0
 11
870.3437499999999
 21
690.7548505954284
 31
0.0
  0
LINE
  5
ED8
330
1E7
100
AcDbEntity
  8
1
  6
Continuous
 62
     7
100
AcDbLine
 10
927.4437500000001
 20
619.8298505954282
 30
0.0
 11
925.1999999999997
 21
646.9173505954282
 31
0.0
  0
LINE
  5
ED9
330
1E7
100
AcDbEntity
  8
1
  6
Continuous
 62
     7
100
AcDbLine
 10
827.8187499999997
 20
847.9486005954282
 30
0.0
 11
830.4
 21
847.9486005954282
 31
0.0
  0
LINE
  5
EDA
330
1E7
100
AcDbEntity
  8
1
  6
Continuous
 62
     7
100
AcDbLine
 10
827.8187499999997
 20
845.1798505954283
 30
0.0
 11
830.4
 21
845.1798505954283
 31
0.0
  0
LINE
  5
EDB
330
1E7
100
AcDbEntity
  8
1
  6
Continuous
 62
     7
100
AcDbLine
 10
827.8187499999997
 20
826.7861005954284
 30
0.0
 11
830.4
 21
826.7861005954284
 31
0.0
  0
LINE
  5
EDC
330
1E7
100
AcDbEntity
  8
1
  6
Continuous
 62
     7
100
AcDbLine
 10
827.8187499999997
 20
829.5548505954283
 30
0.0
 11
830.4
 21
829.5548505954283
 31
0.0
  0
LINE
  5
EDD
330
1E7
100
AcDbEntity
  8
1
  6
Continuous
 62
     7
100
AcDbLine
 10
819.73125
 20
788.1673505954283
 30
0.0
 11
832.06875
 21
788.1673505954283
 31
0.0
  0
LINE
  5
EDE
330
1E7
100
AcDbEntity
  8
1
  6
Continuous
 62
     7
100
AcDbLine
 10
813.55625
 20
781.9923505954277
 30
0.0
 11
838.2437499999998
 21
781.9923505954277
 31
0.0
  0
LINE
  5
EDF
330
1E7
100
AcDbEntity
  8
1
  6
Continuous
 62
     7
100
AcDbLine
 10
842.83125
 20
769.6548505954283
 30
0.0
 11
808.9749999999996
 21
769.6548505954283
 31
0.0
  0
LINE
  5
EE0
330
1E7
100
AcDbEntity
  8
1
  6
Continuous
 62
     7
100
AcDbLine
 10
813.55625
 20
769.6548505954283
 30
0.0
 11
813.55625
 21
781.9923505954277
 31
0.0
  0
LINE
  5
EE1
330
1E7
100
AcDbEntity
  8
1
  6
Continuous
 62
     7
100
AcDbLine
 10
819.73125
 20
769.6548505954283
 30
0.0
 11
819.73125
 21
781.9923505954277
 31
0.0
  0
LINE
  5
EE2
330
1E7
100
AcDbEntity
  8
1
  6
Continuous
 62
     7
100
AcDbLine
 10
819.73125
 20
765.4173505954283
 30
0.0
 11
800.5062500000001
 21
765.4173505954283
 31
0.0
  0
LINE
  5
EE3
330
1E7
100
AcDbEntity
  8
1
  6
Continuous
 62
     7
100
AcDbLine
 10
800.5062500000001
 20
750.5653475387405
 30
0.0
 11
818.8812499999997
 21
746.1469055231791
 31
0.0
  0
LINE
  5
EE4
330
1E7
100
AcDbEntity
  8
1
  6
Continuous
 62
     7
100
AcDbLine
 10
800.5062500000001
 20
750.5653475387405
 30
0.0
 11
800.5062500000001
 21
765.4173505954283
 31
0.0
  0
LINE
  5
EE5
330
1E7
100
AcDbEntity
  8
1
  6
Continuous
 62
     7
100
AcDbLine
 10
818.8812499999997
 20
746.1469055231791
 30
0.0
 11
818.8812499999997
 21
765.4173505954283
 31
0.0
  0
LINE
  5
EE6
330
1E7
100
AcDbEntity
  8
1
  6
Continuous
 62
     7
100
AcDbLine
 10
808.9749999999996
 20
765.4173505954283
 30
0.0
 11
808.9749999999996
 21
769.6548505954283
 31
0.0
  0
LINE
  5
EE7
330
1E7
100
AcDbEntity
  8
1
  6
Continuous
 62
     7
100
AcDbLine
 10
819.73125
 20
781.9923505954277
 30
0.0
 11
819.73125
 21
788.1673505954283
 31
0.0
  0
LINE
  5
EE8
330
1E7
100
AcDbEntity
  8
1
  6
Continuous
 62
     7
100
AcDbLine
 10
819.73125
 20
770.5736005954283
 30
0.0
 11
819.73125
 21
781.0673505954277
 31
0.0
  0
LINE
  5
EE9
330
1E7
100
AcDbEntity
  8
1
  6
Continuous
 62
     7
100
AcDbLine
 10
827.8187499999997
 20
826.7861005954284
 30
0.0
 11
827.8187499999997
 21
847.9486005954282
 31
0.0
  0
LWPOLYLINE
  5
EEA
330
1E7
100
AcDbEntity
  8
1
  6
Continuous
 62
     7
100
AcDbPolyline
 90
       17
 70
     0
 43
0.0
 10
825.685043
 20
844.0199325954282
 42
0.181667
 10
825.685095
 20
843.9644995954282
 42
0.087732
 10
825.725601
 20
843.8937135954283
 42
0.043527
 10
825.8050059999996
 20
843.8102945954282
 42
0.026108
 10
825.9202589999999
 20
843.7174465954281
 42
0.018199
 10
826.0669299999998
 20
843.6187395954283
 42
0.014216
 10
826.239383
 20
843.5179655954282
 42
0.012175
 10
826.43099
 20
843.4189975954279
 42
0.011297
 10
826.6343879999999
 20
843.3256395954284
 42
0.011297
 10
826.8417610000001
 20
843.2414785954279
 42
0.012175
 10
827.0451400000002
 20
843.1697485954284
 42
0.014216
 10
827.2367079999996
 20
843.1132075954282
 42
0.018199
 10
827.4091039999998
 20
843.0740265954282
 42
0.026108
 10
827.5557029999996
 20
843.0537115954281
 42
0.043527
 10
827.6708699999996
 20
843.0530445954284
 42
0.087732
 10
827.7501809999996
 20
843.072050595428
 42
0.181667
 10
827.7905879999996
 20
843.1099985954283
 42
0.181667
  0
LINE
  5
EEB
330
1E7
100
AcDbEntity
  8
1
  6
Continuous
 62
     7
100
AcDbLine
 10
822.7062499999997
 20
833.4298505954278
 30
0.0
 11
822.7062499999997
 21
841.3048505954282
 31
0.0
  0
LINE
  5
EEC
330
1E7
100
AcDbEntity
  8
1
  6
Continuous
 62
     7
100
AcDbLine
 10
820.7124999999999
 20
833.554850595428
 30
0.0
 11
820.7124999999999
 21
841.1548505954282
 31
0.0
  0
LINE
  5
EED
330
1E7
100
AcDbEntity
  8
1
  6
Continuous
 62
     7
100
AcDbLine
 10
827.8187499999997
 20
841.3048505954282
 30
0.0
 11
822.7062499999997
 21
841.3048505954282
 31
0.0
  0
LINE
  5
EEE
330
1E7
100
AcDbEntity
  8
1
  6
Continuous
 62
     7
100
AcDbLine
 10
827.8187499999997
 20
833.4298505954278
 30
0.0
 11
822.7062499999997
 21
833.4298505954278
 31
0.0
  0
LWPOLYLINE
  5
EEF
330
1E7
100
AcDbEntity
  8
1
  6
Continuous
 62
     7
100
AcDbPolyline
 90
       15
 70
     0
 43
0.0
 10
820.7073249999996
 20
841.1589875954279
 42
-0.051729
 10
820.7549959999999
 20
841.5968785954277
 42
-0.04396
 10
820.8956650000001
 20
842.0536415954282
 42
-0.038152
 10
821.1242889999999
 20
842.5129035954283
 42
-0.034218
 10
821.4326719999997
 20
842.9582025954283
 42
-0.031891
 10
821.8097609999999
 20
843.3735745954283
 42
-0.030959
 10
822.2420379999999
 20
843.7441315954284
 42
-0.031326
 10
822.714009
 20
844.0565915954277
 42
-0.033031
 10
823.2087549999999
 20
844.2997525954282
 42
-0.036239
 10
823.708541
 20
844.4648985954279
 42
-0.041209
 10
824.195452
 20
844.5461105954281
 42
-0.048151
 10
824.6520349999999
 20
844.5404765954283
 42
-0.056819
 10
825.0619230000001
 20
844.4481995954282
 42
-0.065743
 10
825.4104230000002
 20
844.2725865954283
 42
-0.07178
 10
825.685043
 20
844.0199325954282
 42
-0.07178
  0
LWPOLYLINE
  5
EF0
330
1E7
100
AcDbEntity
  8
1
  6
Continuous
 62
     7
100
AcDbPolyline
 90
       17
 70
     0
 43
0.0
 10
825.685043
 20
830.7200865954284
 42
-0.181667
 10
825.685095
 20
830.7755185954283
 42
-0.087732
 10
825.725601
 20
830.8463045954281
 42
-0.043527
 10
825.8050059999996
 20
830.9297245954283
 42
-0.026108
 10
825.9202589999999
 20
831.0225725954277
 42
-0.018199
 10
826.0669299999998
 20
831.1212795954283
 42
-0.014216
 10
826.239383
 20
831.2220535954283
 42
-0.012175
 10
826.43099
 20
831.3210205954282
 42
-0.011297
 10
826.6343879999999
 20
831.4143795954283
 42
-0.011297
 10
826.8417610000001
 20
831.4985405954283
 42
-0.012175
 10
827.0451400000002
 20
831.5702695954279
 42
-0.014216
 10
827.2367079999996
 20
831.6268115954283
 42
-0.018199
 10
827.4091039999998
 20
831.6659925954283
 42
-0.026108
 10
827.5557029999996
 20
831.6863065954276
 42
-0.043527
 10
827.6708699999996
 20
831.6869735954282
 42
-0.087732
 10
827.7501809999996
 20
831.667968595428
 42
-0.181667
 10
827.7905879999996
 20
831.6300205954282
 42
-0.181667
  0
LWPOLYLINE
  5
EF1
330
1E7
100
AcDbEntity
  8
1
  6
Continuous
 62
     7
100
AcDbPolyline
 90
       14
 70
     0
 43
0.0
 10
820.7075139999997
 20
833.5556945954284
 42
0.054607
 10
820.768319
 20
833.0835515954277
 42
0.04596
 10
820.9354639999997
 20
832.592172595428
 42
0.039738
 10
821.2020629999997
 20
832.1018025954284
 42
0.035752
 10
821.5571300000002
 20
831.6326445954283
 42
0.033655
 10
821.9860389999999
 20
831.2040285954283
 42
0.033217
 10
822.4711160000001
 20
830.8336135954283
 42
0.034385
 10
822.992378
 20
830.5366595954279
 42
0.037296
 10
823.5283480000003
 20
830.3254025954277
 42
0.042246
 10
824.0569439999998
 20
830.2085455954282
 42
0.049567
 10
824.556388
 20
830.1909035954283
 42
0.059172
 10
825.0061030000001
 20
830.2732035954283
 42
0.069535
 10
825.38756
 20
830.4520535954283
 42
0.076814
 10
825.685043
 20
830.7200865954284
 42
0.076814
  0
LINE
  5
EF2
330
1E7
100
AcDbEntity
  8
1
  6
Continuous
 62
     7
100
AcDbLine
 10
906.3124999999999
 20
765.4173505954283
 30
0.0
 11
906.3124999999999
 21
820.4423505954283
 31
0.0
  0
LINE
  5
EF3
330
1E7
100
AcDbEntity
  8
1
  6
Continuous
 62
     7
100
AcDbLine
 10
863.99375
 20
765.4173505954283
 30
0.0
 11
863.99375
 21
820.4423505954283
 31
0.0
  0
LINE
  5
EF4
330
1E7
100
AcDbEntity
  8
1
  6
Continuous
 62
     7
100
AcDbLine
 10
838.2437499999998
 20
769.6548505954283
 30
0.0
 11
838.2437499999998
 21
781.9923505954277
 31
0.0
  0
LINE
  5
EF5
330
1E7
100
AcDbEntity
  8
1
  6
Continuous
 62
     7
100
AcDbLine
 10
832.06875
 20
769.6548505954283
 30
0.0
 11
832.06875
 21
781.9923505954277
 31
0.0
  0
LINE
  5
EF6
330
1E7
100
AcDbEntity
  8
1
  6
Continuous
 62
     7
100
AcDbLine
 10
870.3437499999999
 20
725.5611005954277
 30
0.0
 11
885.1499999999999
 21
725.5611005954277
 31
0.0
  0
LINE
  5
EF7
330
1E7
100
AcDbEntity
  8
1
  6
Continuous
 62
     7
100
AcDbLine
 10
877.0999999999999
 20
693.936100595428
 30
0.0
 11
896.6624999999996
 21
693.936100595428
 31
0.0
  0
LINE
  5
EF8
330
1E7
100
AcDbEntity
  8
1
  6
Continuous
 62
     7
100
AcDbLine
 10
859.7749999999999
 20
719.523600595428
 30
0.0
 11
850.0499999999997
 21
735.5548505954281
 31
0.0
  0
LINE
  5
EF9
330
1E7
100
AcDbEntity
  8
1
  6
Continuous
 62
     7
100
AcDbLine
 10
867.875
 20
724.1486005954278
 30
0.0
 11
867.875
 21
765.4173505954283
 31
0.0
  0
LINE
  5
EFA
330
1E7
100
AcDbEntity
  8
1
  6
Continuous
 62
     7
100
AcDbLine
 10
847.0625
 20
693.936100595428
 30
0.0
 11
863.99375
 21
693.936100595428
 31
0.0
  0
LINE
  5
EFB
330
1E7
100
AcDbEntity
  8
1
  6
Continuous
 62
     7
100
AcDbLine
 10
859.7625
 20
719.5173505954283
 30
0.0
 11
870.3437499999999
 21
725.5611005954277
 31
0.0
  0
LINE
  5
EFC
330
1E7
100
AcDbEntity
  8
1
  6
Continuous
 62
     7
100
AcDbLine
 10
859.7625
 20
715.0986005954283
 30
0.0
 11
859.7625
 21
719.5173505954283
 31
0.0
  0
LINE
  5
EFD
330
1E7
100
AcDbEntity
  8
1
  6
Continuous
 62
     7
100
AcDbLine
 10
859.7625
 20
715.0986005954283
 30
0.0
 11
863.99375
 21
715.0986005954283
 31
0.0
  0
LINE
  5
EFE
330
1E7
100
AcDbEntity
  8
1
  6
Continuous
 62
     7
100
AcDbLine
 10
870.3437499999999
 20
765.4173505954283
 30
0.0
 11
832.06875
 21
765.4173505954283
 31
0.0
  0
LINE
  5
EFF
330
1E7
100
AcDbEntity
  8
1
  6
Continuous
 62
     7
100
AcDbLine
 10
832.9125000000001
 20
765.4173505954283
 30
0.0
 11
832.9125000000001
 21
743.2121704581803
 31
0.0
  0
LINE
  5
F00
330
1E7
100
AcDbEntity
  8
1
  6
Continuous
 62
     7
100
AcDbLine
 10
850.0499999999997
 20
735.5548505954281
 30
0.0
 11
832.9125000000001
 21
743.2121704581803
 31
0.0
  0
LINE
  5
F01
330
1E7
100
AcDbEntity
  8
1
  6
Continuous
 62
     7
100
AcDbLine
 10
842.83125
 20
765.4173505954283
 30
0.0
 11
842.83125
 21
769.6548505954283
 31
0.0
  0
LINE
  5
F02
330
1E7
100
AcDbEntity
  8
1
  6
Continuous
 62
     7
100
AcDbLine
 10
918.3937499999997
 20
733.5673505954283
 30
0.0
 11
910.54375
 21
719.5173505954283
 31
0.0
  0
LINE
  5
F03
330
1E7
100
AcDbEntity
  8
1
  6
Continuous
 62
     7
100
AcDbLine
 10
923.2499999999999
 20
693.936100595428
 30
0.0
 11
885.1499999999999
 21
693.936100595428
 31
0.0
  0
LINE
  5
F04
330
1E7
100
AcDbEntity
  8
1
  6
Continuous
 62
     7
100
AcDbLine
 10
906.3124999999999
 20
693.936100595428
 30
0.0
 11
906.3124999999999
 21
715.0986005954283
 31
0.0
  0
LINE
  5
F05
330
1E7
100
AcDbEntity
  8
1
  6
Continuous
 62
     7
100
AcDbLine
 10
910.54375
 20
715.0986005954283
 30
0.0
 11
906.3124999999999
 21
715.0986005954283
 31
0.0
  0
LINE
  5
F06
330
1E7
100
AcDbEntity
  8
1
  6
Continuous
 62
     7
100
AcDbLine
 10
910.54375
 20
715.0986005954283
 30
0.0
 11
910.54375
 21
719.5173505954283
 31
0.0
  0
LINE
  5
F07
330
1E7
100
AcDbEntity
  8
1
  6
Continuous
 62
     7
100
AcDbLine
 10
923.2499999999999
 20
820.4423505954283
 30
0.0
 11
863.99375
 21
820.4423505954283
 31
0.0
  0
LINE
  5
F08
330
1E7
100
AcDbEntity
  8
1
  6
Continuous
 62
     7
100
AcDbLine
 10
832.06875
 20
781.9923505954277
 30
0.0
 11
832.06875
 21
788.1673505954283
 31
0.0
  0
LINE
  5
F09
330
1E7
100
AcDbEntity
  8
1
  6
Continuous
 62
     7
100
AcDbLine
 10
832.06875
 20
781.061100595428
 30
0.0
 11
832.06875
 21
770.5736005954283
 31
0.0
  0
LINE
  5
F0A
330
1E7
100
AcDbEntity
  8
1
  6
Continuous
 62
     7
100
AcDbLine
 10
860.5
 20
846.9548505954277
 30
0.0
 11
852.41875
 21
846.9548505954277
 31
0.0
  0
LINE
  5
F0B
330
1E7
100
AcDbEntity
  8
1
  6
Continuous
 62
     7
100
AcDbLine
 10
870.3437499999999
 20
831.3048505954281
 30
0.0
 11
830.4
 21
831.3048505954281
 31
0.0
  0
LINE
  5
F0C
330
1E7
100
AcDbEntity
  8
1
  6
Continuous
 62
     7
100
AcDbLine
 10
866.0937500000001
 20
820.4423505954283
 30
0.0
 11
838.6000000000001
 21
820.4423505954283
 31
0.0
  0
LINE
  5
F0D
330
1E7
100
AcDbEntity
  8
1
  6
Continuous
 62
     7
100
AcDbLine
 10
830.4
 20
826.7861005954284
 30
0.0
 11
830.4
 21
847.9486005954282
 31
0.0
  0
LINE
  5
F0E
330
1E7
100
AcDbEntity
  8
1
  6
Continuous
 62
     7
100
AcDbLine
 10
838.6000000000001
 20
820.4423505954283
 30
0.0
 11
830.4
 21
826.7861005954284
 31
0.0
  0
LINE
  5
F0F
330
1E7
100
AcDbEntity
  8
1
  6
Continuous
 62
     7
100
AcDbLine
 10
852.41875
 20
843.4236005954282
 30
0.0
 11
830.4
 21
843.4236005954282
 31
0.0
  0
LINE
  5
F10
330
1E7
100
AcDbEntity
  8
1
  6
Continuous
 62
     7
100
AcDbLine
 10
852.41875
 20
841.3048505954282
 30
0.0
 11
830.4
 21
841.3048505954282
 31
0.0
  0
LINE
  5
F11
330
1E7
100
AcDbEntity
  8
1
  6
Continuous
 62
     7
100
AcDbLine
 10
852.41875
 20
833.4298505954278
 30
0.0
 11
830.4
 21
833.4298505954278
 31
0.0
  0
LINE
  5
F12
330
1E7
100
AcDbEntity
  8
1
  6
Continuous
 62
     7
100
AcDbLine
 10
852.41875
 20
831.6111005954283
 30
0.0
 11
852.41875
 21
846.9548505954277
 31
0.0
  0
LINE
  5
F13
330
1E7
100
AcDbEntity
  8
1
  6
Continuous
 62
     7
100
AcDbLine
 10
866.0937499999999
 20
820.4423505954283
 30
0.0
 11
866.0937500000001
 21
831.3048505954281
 31
0.0
  0
LINE
  5
F14
330
1E7
100
AcDbEntity
  8
1
  6
Continuous
 62
     7
100
AcDbLine
 10
986.7312499999997
 20
543.2236005954281
 30
0.0
 11
976.6187499999999
 21
543.2236005954281
 31
0.0
  0
LINE
  5
F15
330
1E7
100
AcDbEntity
  8
1
  6
Continuous
 62
     7
100
AcDbLine
 10
986.7312499999997
 20
536.8798505954281
 30
0.0
 11
976.6187499999999
 21
536.8798505954281
 31
0.0
  0
LINE
  5
F16
330
1E7
100
AcDbEntity
  8
1
  6
Continuous
 62
     7
100
AcDbLine
 10
946.5249999999999
 20
568.6173505954282
 30
0.0
 11
982.5000000000001
 21
568.6173505954282
 31
0.0
  0
LINE
  5
F17
330
1E7
100
AcDbEntity
  8
1
  6
Continuous
 62
     7
100
AcDbLine
 10
935.9437499999996
 20
579.1986005954282
 30
0.0
 11
946.5249999999999
 21
568.6173505954282
 31
0.0
  0
LINE
  5
F18
330
1E7
100
AcDbEntity
  8
1
  6
Continuous
 62
     7
100
AcDbLine
 10
976.6187499999999
 20
536.8798505954281
 30
0.0
 11
976.6187499999999
 21
543.2236005954281
 31
0.0
  0
LINE
  5
F19
330
1E7
100
AcDbEntity
  8
1
  6
Continuous
 62
     7
100
AcDbLine
 10
935.9437499999996
 20
579.1986005954282
 30
0.0
 11
935.9437499999996
 21
603.2423505954279
 31
0.0
  0
LINE
  5
F1A
330
1E7
100
AcDbEntity
  8
1
  6
Continuous
 62
     7
100
AcDbLine
 10
986.7312499999997
 20
543.2236005954281
 30
0.0
 11
986.7312499999997
 21
564.386100595428
 31
0.0
  0
LINE
  5
F1B
330
1E7
100
AcDbEntity
  8
1
  6
Continuous
 62
     7
100
AcDbLine
 10
986.7312499999997
 20
564.386100595428
 30
0.0
 11
982.5000000000001
 21
568.6173505954282
 31
0.0
  0
LINE
  5
F1C
330
1E7
100
AcDbEntity
  8
1
  6
Continuous
 62
     7
100
AcDbLine
 10
961.3374999999999
 20
646.9173505954282
 30
0.0
 11
961.3374999999999
 21
670.1923505954282
 31
0.0
  0
ARC
  5
F1D
330
1E7
100
AcDbEntity
  8
1
  6
Continuous
 62
     7
100
AcDbCircle
 10
950.7867189999997
 20
670.2240695954282
 30
0.0
 40
10.549577
100
AcDbArc
 50
359.8310280000001
 51
90.16887499999254
  0
LINE
  5
F1E
330
1E7
100
AcDbEntity
  8
1
  6
Continuous
 62
     7
100
AcDbLine
 10
969.8000000000003
 20
750.6111005954283
 30
0.0
 11
933.4625
 21
741.3548505954282
 31
0.0
  0
LINE
  5
F1F
330
1E7
100
AcDbEntity
  8
1
  6
Continuous
 62
     7
100
AcDbLine
 10
969.8000000000003
 20
750.6111005954283
 30
0.0
 11
969.8000000000003
 21
765.4173505954283
 31
0.0
  0
LINE
  5
F20
330
1E7
100
AcDbEntity
  8
1
  6
Continuous
 62
     3
100
AcDbLine
 10
1283.543749999997
 20
640.4048505954277
 30
0.0
 11
1283.543749999997
 21
356.2611005954283
 31
0.0
  0
LINE
  5
F21
330
1E7
100
AcDbEntity
  8
1
  6
Continuous
 62
     3
100
AcDbLine
 10
1283.543749999997
 20
333.7298505954283
 30
0.0
 11
1289.76875
 21
356.2611005954283
 31
0.0
  0
LINE
  5
F22
330
1E7
100
AcDbEntity
  8
1
  6
Continuous
 62
     3
100
AcDbLine
 10
1277.3125
 20
356.2611005954283
 30
0.0
 11
1289.76875
 21
356.2611005954283
 31
0.0
  0
LINE
  5
F23
330
1E7
100
AcDbEntity
  8
1
  6
Continuous
 62
     3
100
AcDbLine
 10
1277.3125
 20
356.2611005954283
 30
0.0
 11
1289.76875
 21
356.2611005954283
 31
0.0
  0
LINE
  5
F24
330
1E7
100
AcDbEntity
  8
1
  6
Continuous
 62
     3
100
AcDbLine
 10
1283.543749999997
 20
333.7298505954283
 30
0.0
 11
1277.3125
 21
356.2611005954283
 31
0.0
  0
LINE
  5
F25
330
1E7
100
AcDbEntity
  8
1
  6
Continuous
 62
     5
100
AcDbLine
 10
1283.543749999997
 20
659.4048505954282
 30
0.0
 11
1289.543749999999
 21
659.4048505954282
 31
0.0
  0
LINE
  5
F26
330
1E7
100
AcDbEntity
  8
1
  6
Continuous
 62
     3
100
AcDbLine
 10
902.125
 20
953.6048505954282
 30
0.0
 11
1292.481249999998
 21
953.6048505954282
 31
0.0
  0
LINE
  5
F27
330
1E7
100
AcDbEntity
  8
1
  6
Continuous
 62
     7
100
AcDbLine
 10
927.475
 20
871.2236005954283
 30
0.0
 11
935.9437499999996
 21
871.2236005954283
 31
0.0
  0
LINE
  5
F28
330
1E7
100
AcDbEntity
  8
1
  6
Continuous
 62
     7
100
AcDbLine
 10
911.3062499999999
 20
926.2486005954283
 30
0.0
 11
1033.28125
 21
926.2486005954283
 31
0.0
  0
LINE
  5
F29
330
1E7
100
AcDbEntity
  8
1
  6
Continuous
 62
     7
100
AcDbLine
 10
917.0124999999996
 20
909.3173505954283
 30
0.0
 11
1033.28125
 21
909.3173505954283
 31
0.0
  0
LINE
  5
F2A
330
1E7
100
AcDbEntity
  8
1
  6
Continuous
 62
     3
100
AcDbLine
 10
759.7437499999998
 20
1026.309974420446
 30
0.0
 11
1010.418749999999
 21
1026.309974420446
 31
0.0
  0
LINE
  5
F2B
330
1E7
100
AcDbEntity
  8
1
  6
Continuous
 62
     3
100
AcDbLine
 10
759.7437499999998
 20
1032.541224420446
 30
0.0
 11
759.7437499999998
 21
1020.084974420446
 31
0.0
  0
LINE
  5
F2C
330
1E7
100
AcDbEntity
  8
1
  6
Continuous
 62
     3
100
AcDbLine
 10
759.7437499999998
 20
1032.541224420446
 30
0.0
 11
759.7437499999998
 21
1020.084974420446
 31
0.0
  0
LINE
  5
F2D
330
1E7
100
AcDbEntity
  8
1
  6
Continuous
 62
     3
100
AcDbLine
 10
737.2187499999999
 20
1026.309974420446
 30
0.0
 11
759.7437499999998
 21
1032.541224420446
 31
0.0
  0
LINE
  5
F2E
330
1E7
100
AcDbEntity
  8
1
  6
Continuous
 62
     3
100
AcDbLine
 10
737.2187499999999
 20
930.5986005954283
 30
0.0
 11
737.2187499999999
 21
1035.247474420446
 31
0.0
  0
LINE
  5
F2F
330
1E7
100
AcDbEntity
  8
1
  6
Continuous
 62
     7
100
AcDbLine
 10
859.0
 20
926.2486005954283
 30
0.0
 11
737.0249999999997
 21
926.2486005954283
 31
0.0
  0
LINE
  5
F30
330
1E7
100
AcDbEntity
  8
1
  6
Continuous
 62
     7
100
AcDbLine
 10
853.2874999999997
 20
909.3173505954283
 30
0.0
 11
737.0249999999997
 21
909.3173505954283
 31
0.0
  0
LINE
  5
F31
330
1E7
100
AcDbEntity
  8
1
  6
Continuous
 62
     7
100
AcDbLine
 10
737.0249999999997
 20
909.3173505954283
 30
0.0
 11
737.0249999999997
 21
926.2486005954283
 31
0.0
  0
LINE
  5
F32
330
1E7
100
AcDbEntity
  8
1
  6
Continuous
 62
     3
100
AcDbLine
 10
737.2187499999999
 20
1026.309974420446
 30
0.0
 11
759.7437499999998
 21
1020.084974420446
 31
0.0
  0
LINE
  5
F33
330
1E7
100
AcDbEntity
  8
1
  6
Continuous
 62
     7
100
AcDbLine
 10
911.3062499999999
 20
926.2486005954283
 30
0.0
 11
911.3062499999999
 21
932.5923505954284
 31
0.0
  0
LINE
  5
F34
330
1E7
100
AcDbEntity
  8
1
  6
Continuous
 62
     7
100
AcDbLine
 10
859.0
 20
926.2486005954283
 30
0.0
 11
859.0
 21
932.5923505954284
 31
0.0
  0
LINE
  5
F35
330
1E7
100
AcDbEntity
  8
1
  6
Continuous
 62
     7
100
AcDbLine
 10
864.475
 20
891.6548505954281
 30
0.0
 11
864.475
 21
939.1736005954284
 31
0.0
  0
LINE
  5
F36
330
1E7
100
AcDbEntity
  8
1
  6
Continuous
 62
     7
100
AcDbLine
 10
856.75
 20
871.2236005954283
 30
0.0
 11
836.7874999999996
 21
871.2236005954283
 31
0.0
  0
LINE
  5
F37
330
1E7
100
AcDbEntity
  8
1
  6
Continuous
 62
     7
100
AcDbLine
 10
860.5
 20
883.9236005954283
 30
0.0
 11
842.83125
 21
883.9236005954283
 31
0.0
  0
LINE
  5
F38
330
1E7
100
AcDbEntity
  8
1
  6
Continuous
 62
     7
100
AcDbLine
 10
836.7874999999996
 20
854.5986005954283
 30
0.0
 11
836.7874999999996
 21
871.2236005954283
 31
0.0
  0
LINE
  5
F39
330
1E7
100
AcDbEntity
  8
1
  6
Continuous
 62
     7
100
AcDbLine
 10
842.83125
 20
871.2236005954283
 30
0.0
 11
842.83125
 21
883.9236005954283
 31
0.0
  0
LINE
  5
F3A
330
1E7
100
AcDbEntity
  8
1
  6
Continuous
 62
     7
100
AcDbLine
 10
864.475
 20
891.6548505954281
 30
0.0
 11
853.2874999999997
 21
891.6548505954281
 31
0.0
  0
LINE
  5
F3B
330
1E7
100
AcDbEntity
  8
1
  6
Continuous
 62
     7
100
AcDbLine
 10
853.2874999999997
 20
891.6548505954281
 30
0.0
 11
853.2874999999997
 21
909.3173505954283
 31
0.0
  0
LINE
  5
F3C
330
1E7
100
AcDbEntity
  8
1
  6
Continuous
 62
     7
100
AcDbLine
 10
909.8124999999999
 20
883.9236005954283
 30
0.0
 11
909.8124999999999
 21
891.6548505954281
 31
0.0
  0
LINE
  5
F3D
330
1E7
100
AcDbEntity
  8
1
  6
Continuous
 62
     7
100
AcDbLine
 10
909.8124999999999
 20
883.9236005954283
 30
0.0
 11
927.475
 21
883.9236005954283
 31
0.0
  0
LINE
  5
F3E
330
1E7
100
AcDbEntity
  8
1
  6
Continuous
 62
     7
100
AcDbLine
 10
927.475
 20
871.2236005954283
 30
0.0
 11
927.475
 21
883.9236005954283
 31
0.0
  0
LINE
  5
F3F
330
1E7
100
AcDbEntity
  8
1
  6
Continuous
 62
     7
100
AcDbLine
 10
917.0124999999996
 20
891.6548505954281
 30
0.0
 11
917.0124999999996
 21
909.3173505954283
 31
0.0
  0
LINE
  5
F40
330
1E7
100
AcDbEntity
  8
1
  6
Continuous
 62
     7
100
AcDbLine
 10
909.8124999999999
 20
891.6548505954281
 30
0.0
 11
917.0124999999996
 21
891.6548505954281
 31
0.0
  0
LINE
  5
F41
330
1E7
100
AcDbEntity
  8
1
  6
Continuous
 62
     7
100
AcDbLine
 10
885.1499999999999
 20
953.9861005954282
 30
0.0
 11
874.5687499999997
 21
953.9861005954282
 31
0.0
  0
LINE
  5
F42
330
1E7
100
AcDbEntity
  8
1
  6
Continuous
 62
     7
100
AcDbLine
 10
869.95
 20
939.1736005954284
 30
0.0
 11
864.475
 21
939.1736005954284
 31
0.0
  0
LINE
  5
F43
330
1E7
100
AcDbEntity
  8
1
  6
Continuous
 62
     7
100
AcDbLine
 10
864.475
 20
932.5923505954284
 30
0.0
 11
859.0
 21
932.5923505954284
 31
0.0
  0
LINE
  5
F44
330
1E7
100
AcDbEntity
  8
1
  6
Continuous
 62
     7
100
AcDbLine
 10
870.3437499999999
 20
949.7548505954283
 30
0.0
 11
874.5687499999997
 21
953.9861005954282
 31
0.0
  0
LINE
  5
F45
330
1E7
100
AcDbEntity
  8
1
  6
Continuous
 62
     7
100
AcDbLine
 10
899.96875
 20
939.1736005954284
 30
0.0
 11
905.8312499999999
 21
939.1736005954284
 31
0.0
  0
LINE
  5
F46
330
1E7
100
AcDbEntity
  8
1
  6
Continuous
 62
     7
100
AcDbLine
 10
899.96875
 20
949.7548505954283
 30
0.0
 11
899.96875
 21
939.1736005954284
 31
0.0
  0
LINE
  5
F47
330
1E7
100
AcDbEntity
  8
1
  6
Continuous
 62
     7
100
AcDbLine
 10
885.1499999999999
 20
953.9861005954282
 30
0.0
 11
895.73125
 21
953.9861005954282
 31
0.0
  0
LINE
  5
F48
330
1E7
100
AcDbEntity
  8
1
  6
Continuous
 62
     7
100
AcDbLine
 10
899.96875
 20
949.7548505954283
 30
0.0
 11
895.73125
 21
953.9861005954282
 31
0.0
  0
LINE
  5
F49
330
1E7
100
AcDbEntity
  8
1
  6
Continuous
 62
     7
100
AcDbLine
 10
905.8312499999999
 20
932.5923505954284
 30
0.0
 11
905.8312499999999
 21
939.1736005954284
 31
0.0
  0
LINE
  5
F4A
330
1E7
100
AcDbEntity
  8
1
  6
Continuous
 62
     7
100
AcDbLine
 10
905.8312499999999
 20
932.5923505954284
 30
0.0
 11
911.3062499999999
 21
932.5923505954284
 31
0.0
  0
LINE
  5
F4B
330
1E7
100
AcDbEntity
  8
1
  6
Continuous
 62
     5
100
AcDbLine
 10
885.0812499999998
 20
1046.309974420446
 30
0.0
 11
892.08125
 21
1046.309974420446
 31
0.0
  0
LINE
  5
F4C
330
1E7
100
AcDbEntity
  8
1
  6
Continuous
 62
     3
100
AcDbLine
 10
1010.418749999999
 20
1020.084974420446
 30
0.0
 11
1010.418749999999
 21
1032.541224420446
 31
0.0
  0
LINE
  5
F4D
330
1E7
100
AcDbEntity
  8
1
  6
Continuous
 62
     3
100
AcDbLine
 10
1010.418749999999
 20
1020.084974420446
 30
0.0
 11
1010.418749999999
 21
1032.541224420446
 31
0.0
  0
LINE
  5
F4E
330
1E7
100
AcDbEntity
  8
1
  6
Continuous
 62
     3
100
AcDbLine
 10
1032.949999999998
 20
1026.309974420446
 30
0.0
 11
1010.418749999999
 21
1032.541224420446
 31
0.0
  0
LINE
  5
F4F
330
1E7
100
AcDbEntity
  8
1
  6
Continuous
 62
     3
100
AcDbLine
 10
1032.949999999998
 20
1033.016224420445
 30
0.0
 11
1032.949999999998
 21
929.8798505954284
 31
0.0
  0
LINE
  5
F50
330
1E7
100
AcDbEntity
  8
1
  6
Continuous
 62
     3
100
AcDbLine
 10
1032.949999999998
 20
1026.309974420446
 30
0.0
 11
1010.418749999999
 21
1020.084974420446
 31
0.0
  0
LINE
  5
F51
330
1E7
100
AcDbEntity
  8
1
  6
Continuous
 62
     7
100
AcDbLine
 10
1033.28125
 20
909.3173505954283
 30
0.0
 11
1033.28125
 21
926.2486005954283
 31
0.0
  0
LINE
  5
F52
330
1E7
100
AcDbEntity
  8
1
  6
Continuous
 62
     3
100
AcDbLine
 10
1289.76875
 20
931.0798505954283
 30
0.0
 11
1277.3125
 21
931.0798505954283
 31
0.0
  0
LINE
  5
F53
330
1E7
100
AcDbEntity
  8
1
  6
Continuous
 62
     3
100
AcDbLine
 10
1289.76875
 20
931.0798505954283
 30
0.0
 11
1277.3125
 21
931.0798505954283
 31
0.0
  0
LINE
  5
F54
330
1E7
100
AcDbEntity
  8
1
  6
Continuous
 62
     3
100
AcDbLine
 10
1283.543749999997
 20
953.6048505954282
 30
0.0
 11
1289.76875
 21
931.0798505954283
 31
0.0
  0
LINE
  5
F55
330
1E7
100
AcDbEntity
  8
1
  6
Continuous
 62
     3
100
AcDbLine
 10
1283.543749999997
 20
953.6048505954282
 30
0.0
 11
1277.3125
 21
931.0798505954283
 31
0.0
  0
LINE
  5
F56
330
1E7
100
AcDbEntity
  8
1
  6
Continuous
 62
     5
100
AcDbLine
 10
878.4152087436359
 20
151.6001722313343
 30
0.0
 11
881.4152087436355
 21
151.6001722313343
 31
0.0
  0
LINE
  5
F57
330
1E7
100
AcDbEntity
  8
1
  6
Continuous
 62
     7
100
AcDbLine
 10
783.5812499999997
 20
438.5378413622176
 30
0.0
 11
783.7137302074307
 21
435.841144788907
 31
0.0
  0
LINE
  5
F58
330
1E7
100
AcDbEntity
  8
1
  6
Continuous
 62
     7
100
AcDbLine
 10
783.7137302074307
 20
435.841144788907
 30
0.0
 11
784.1098949729057
 21
433.1704188777552
 31
0.0
  0
LINE
  5
F59
330
1E7
100
AcDbEntity
  8
1
  6
Continuous
 62
     7
100
AcDbLine
 10
784.1098949729057
 20
433.1704188777552
 30
0.0
 11
784.7659290131672
 21
430.5513841792607
 31
0.0
  0
LINE
  5
F5A
330
1E7
100
AcDbEntity
  8
1
  6
Continuous
 62
     7
100
AcDbLine
 10
784.7659290131672
 20
430.5513841792607
 30
0.0
 11
785.6755143617826
 21
428.0092634292794
 31
0.0
  0
LINE
  5
F5B
330
1E7
100
AcDbEntity
  8
1
  6
Continuous
 62
     7
100
AcDbLine
 10
785.6755143617826
 20
428.0092634292794
 30
0.0
 11
786.8298912146156
 21
425.5685386402988
 31
0.0
  0
LINE
  5
F5C
330
1E7
100
AcDbEntity
  8
1
  6
Continuous
 62
     7
100
AcDbLine
 10
786.8298912146156
 20
425.5685386402988
 30
0.0
 11
788.2179422915259
 21
423.2527153262721
 31
0.0
  0
LINE
  5
F5D
330
1E7
100
AcDbEntity
  8
1
  6
Continuous
 62
     7
100
AcDbLine
 10
788.2179422915259
 20
423.2527153262721
 30
0.0
 11
789.8262999018572
 21
421.0840961316718
 31
0.0
  0
LINE
  5
F5E
330
1E7
100
AcDbEntity
  8
1
  6
Continuous
 62
     7
100
AcDbLine
 10
789.8262999018572
 20
421.0840961316718
 30
0.0
 11
791.6394746826047
 21
419.0835660448293
 31
0.0
  0
LINE
  5
F5F
330
1E7
100
AcDbEntity
  8
1
  6
Continuous
 62
     7
100
AcDbLine
 10
791.6394746826047
 20
419.0835660448293
 30
0.0
 11
793.6400047694471
 21
417.2703912640818
 31
0.0
  0
LINE
  5
F60
330
1E7
100
AcDbEntity
  8
1
  6
Continuous
 62
     7
100
AcDbLine
 10
793.6400047694471
 20
417.2703912640818
 30
0.0
 11
795.8086239640477
 21
415.6620336537501
 31
0.0
  0
LINE
  5
F61
330
1E7
100
AcDbEntity
  8
1
  6
Continuous
 62
     7
100
AcDbLine
 10
795.8086239640477
 20
415.6620336537501
 30
0.0
 11
798.1244472780745
 21
414.27398257684
 31
0.0
  0
LINE
  5
F62
330
1E7
100
AcDbEntity
  8
1
  6
Continuous
 62
     7
100
AcDbLine
 10
798.1244472780745
 20
414.27398257684
 30
0.0
 11
800.5651720670552
 21
413.1196057240073
 31
0.0
  0
LINE
  5
F63
330
1E7
100
AcDbEntity
  8
1
  6
Continuous
 62
     7
100
AcDbLine
 10
800.5651720670552
 20
413.1196057240073
 30
0.0
 11
803.1072928170363
 21
412.2100203753918
 31
0.0
  0
LINE
  5
F64
330
1E7
100
AcDbEntity
  8
1
  6
Continuous
 62
     7
100
AcDbLine
 10
803.1072928170363
 20
412.2100203753918
 30
0.0
 11
805.726327515531
 21
411.5539863351304
 31
0.0
  0
LINE
  5
F65
330
1E7
100
AcDbEntity
  8
1
  6
Continuous
 62
     7
100
AcDbLine
 10
805.726327515531
 20
411.5539863351304
 30
0.0
 11
808.3970534266823
 21
411.1578215696551
 31
0.0
  0
LINE
  5
F66
330
1E7
100
AcDbEntity
  8
1
  6
Continuous
 62
     7
100
AcDbLine
 10
808.3970534266823
 20
411.1578215696551
 30
0.0
 11
811.0937499999995
 21
411.0253413622244
 31
0.0
  0
LINE
  5
F67
330
1E7
100
AcDbEntity
  8
1
  6
Continuous
 62
     7
100
AcDbLine
 10
811.0937499999995
 20
411.0253413622244
 30
0.0
 11
813.7904465733166
 21
411.1578215696551
 31
0.0
  0
LINE
  5
F68
330
1E7
100
AcDbEntity
  8
1
  6
Continuous
 62
     7
100
AcDbLine
 10
813.7904465733166
 20
411.1578215696551
 30
0.0
 11
816.4611724844681
 21
411.5539863351304
 31
0.0
  0
LINE
  5
F69
330
1E7
100
AcDbEntity
  8
1
  6
Continuous
 62
     7
100
AcDbLine
 10
816.4611724844681
 20
411.5539863351304
 30
0.0
 11
819.0802071829628
 21
412.2100203753918
 31
0.0
  0
LINE
  5
F6A
330
1E7
100
AcDbEntity
  8
1
  6
Continuous
 62
     7
100
AcDbLine
 10
819.0802071829628
 20
412.2100203753918
 30
0.0
 11
821.622327932944
 21
413.1196057240073
 31
0.0
  0
LINE
  5
F6B
330
1E7
100
AcDbEntity
  8
1
  6
Continuous
 62
     7
100
AcDbLine
 10
821.622327932944
 20
413.1196057240073
 30
0.0
 11
824.0630527219245
 21
414.27398257684
 31
0.0
  0
LINE
  5
F6C
330
1E7
100
AcDbEntity
  8
1
  6
Continuous
 62
     7
100
AcDbLine
 10
824.0630527219245
 20
414.27398257684
 30
0.0
 11
826.3788760359512
 21
415.6620336537501
 31
0.0
  0
LINE
  5
F6D
330
1E7
100
AcDbEntity
  8
1
  6
Continuous
 62
     7
100
AcDbLine
 10
826.3788760359512
 20
415.6620336537501
 30
0.0
 11
828.5474952305516
 21
417.2703912640818
 31
0.0
  0
LINE
  5
F6E
330
1E7
100
AcDbEntity
  8
1
  6
Continuous
 62
     7
100
AcDbLine
 10
828.5474952305516
 20
417.2703912640818
 30
0.0
 11
830.5480253173941
 21
419.0835660448293
 31
0.0
  0
LINE
  5
F6F
330
1E7
100
AcDbEntity
  8
1
  6
Continuous
 62
     7
100
AcDbLine
 10
830.5480253173941
 20
419.0835660448293
 30
0.0
 11
832.3612000981416
 21
421.0840961316718
 31
0.0
  0
LINE
  5
F70
330
1E7
100
AcDbEntity
  8
1
  6
Continuous
 62
     7
100
AcDbLine
 10
832.3612000981416
 20
421.0840961316718
 30
0.0
 11
833.969557708473
 21
423.2527153262721
 31
0.0
  0
LINE
  5
F71
330
1E7
100
AcDbEntity
  8
1
  6
Continuous
 62
     7
100
AcDbLine
 10
833.969557708473
 20
423.2527153262721
 30
0.0
 11
835.3576087853832
 21
425.5685386402988
 31
0.0
  0
LINE
  5
F72
330
1E7
100
AcDbEntity
  8
1
  6
Continuous
 62
     7
100
AcDbLine
 10
835.3576087853832
 20
425.5685386402988
 30
0.0
 11
836.5119856382161
 21
428.0092634292794
 31
0.0
  0
LINE
  5
F73
330
1E7
100
AcDbEntity
  8
1
  6
Continuous
 62
     7
100
AcDbLine
 10
836.5119856382161
 20
428.0092634292794
 30
0.0
 11
837.4215709868318
 21
430.5513841792607
 31
0.0
  0
LINE
  5
F74
330
1E7
100
AcDbEntity
  8
1
  6
Continuous
 62
     7
100
AcDbLine
 10
837.4215709868318
 20
430.5513841792607
 30
0.0
 11
838.0776050270933
 21
433.1704188777552
 31
0.0
  0
LINE
  5
F75
330
1E7
100
AcDbEntity
  8
1
  6
Continuous
 62
     7
100
AcDbLine
 10
838.0776050270933
 20
433.1704188777552
 30
0.0
 11
838.4737697925682
 21
435.841144788907
 31
0.0
  0
LINE
  5
F76
330
1E7
100
AcDbEntity
  8
1
  6
Continuous
 62
     7
100
AcDbLine
 10
838.4737697925682
 20
435.841144788907
 30
0.0
 11
838.6000000000001
 21
438.4106196895968
 31
0.0
  0
LINE
  5
F77
330
1E7
100
AcDbEntity
  8
1
  6
Continuous
 62
     7
100
AcDbLine
 10
931.7062500000004
 20
438.5378413622174
 30
0.0
 11
931.8387302074311
 21
435.8411447889066
 31
0.0
  0
LINE
  5
F78
330
1E7
100
AcDbEntity
  8
1
  6
Continuous
 62
     7
100
AcDbLine
 10
931.8387302074311
 20
435.8411447889066
 30
0.0
 11
932.2348949729061
 21
433.1704188777549
 31
0.0
  0
LINE
  5
F79
330
1E7
100
AcDbEntity
  8
1
  6
Continuous
 62
     7
100
AcDbLine
 10
932.2348949729061
 20
433.1704188777549
 30
0.0
 11
932.8909290131676
 21
430.5513841792603
 31
0.0
  0
LINE
  5
F7A
330
1E7
100
AcDbEntity
  8
1
  6
Continuous
 62
     7
100
AcDbLine
 10
932.8909290131676
 20
430.5513841792603
 30
0.0
 11
933.8005143617833
 21
428.0092634292792
 31
0.0
  0
LINE
  5
F7B
330
1E7
100
AcDbEntity
  8
1
  6
Continuous
 62
     7
100
AcDbLine
 10
933.8005143617833
 20
428.0092634292792
 30
0.0
 11
934.9548912146159
 21
425.5685386402983
 31
0.0
  0
LINE
  5
F7C
330
1E7
100
AcDbEntity
  8
1
  6
Continuous
 62
     7
100
AcDbLine
 10
934.9548912146159
 20
425.5685386402983
 30
0.0
 11
936.3429422915263
 21
423.2527153262719
 31
0.0
  0
LINE
  5
F7D
330
1E7
100
AcDbEntity
  8
1
  6
Continuous
 62
     7
100
AcDbLine
 10
936.3429422915263
 20
423.2527153262719
 30
0.0
 11
937.9512999018581
 21
421.0840961316715
 31
0.0
  0
LINE
  5
F7E
330
1E7
100
AcDbEntity
  8
1
  6
Continuous
 62
     7
100
AcDbLine
 10
937.9512999018581
 20
421.0840961316715
 30
0.0
 11
939.7644746826054
 21
419.0835660448287
 31
0.0
  0
LINE
  5
F7F
330
1E7
100
AcDbEntity
  8
1
  6
Continuous
 62
     7
100
AcDbLine
 10
939.7644746826054
 20
419.0835660448287
 30
0.0
 11
941.7650047694476
 21
417.2703912640815
 31
0.0
  0
LINE
  5
F80
330
1E7
100
AcDbEntity
  8
1
  6
Continuous
 62
     7
100
AcDbLine
 10
941.7650047694476
 20
417.2703912640815
 30
0.0
 11
943.9336239640484
 21
415.6620336537501
 31
0.0
  0
LINE
  5
F81
330
1E7
100
AcDbEntity
  8
1
  6
Continuous
 62
     7
100
AcDbLine
 10
943.9336239640484
 20
415.6620336537501
 30
0.0
 11
946.2494472780749
 21
414.2739825768396
 31
0.0
  0
LINE
  5
F82
330
1E7
100
AcDbEntity
  8
1
  6
Continuous
 62
     7
100
AcDbLine
 10
946.2494472780749
 20
414.2739825768396
 30
0.0
 11
948.6901720670557
 21
413.1196057240071
 31
0.0
  0
LINE
  5
F83
330
1E7
100
AcDbEntity
  8
1
  6
Continuous
 62
     7
100
AcDbLine
 10
948.6901720670557
 20
413.1196057240071
 30
0.0
 11
951.2322928170368
 21
412.2100203753911
 31
0.0
  0
LINE
  5
F84
330
1E7
100
AcDbEntity
  8
1
  6
Continuous
 62
     7
100
AcDbLine
 10
951.2322928170368
 20
412.2100203753911
 30
0.0
 11
953.8513275155315
 21
411.5539863351298
 31
0.0
  0
LINE
  5
F85
330
1E7
100
AcDbEntity
  8
1
  6
Continuous
 62
     7
100
AcDbLine
 10
953.8513275155315
 20
411.5539863351298
 30
0.0
 11
956.5220534266828
 21
411.1578215696551
 31
0.0
  0
LINE
  5
F86
330
1E7
100
AcDbEntity
  8
1
  6
Continuous
 62
     7
100
AcDbLine
 10
956.5220534266828
 20
411.1578215696551
 30
0.0
 11
959.2187499999999
 21
411.0253413622237
 31
0.0
  0
LINE
  5
F87
330
1E7
100
AcDbEntity
  8
1
  6
Continuous
 62
     7
100
AcDbLine
 10
959.2187499999999
 20
411.0253413622237
 30
0.0
 11
961.9154465733172
 21
411.1578215696551
 31
0.0
  0
LINE
  5
F88
330
1E7
100
AcDbEntity
  8
1
  6
Continuous
 62
     7
100
AcDbLine
 10
961.9154465733172
 20
411.1578215696551
 30
0.0
 11
964.5861724844683
 21
411.5539863351298
 31
0.0
  0
LINE
  5
F89
330
1E7
100
AcDbEntity
  8
1
  6
Continuous
 62
     7
100
AcDbLine
 10
964.5861724844683
 20
411.5539863351298
 30
0.0
 11
967.2052071829634
 21
412.2100203753911
 31
0.0
  0
LINE
  5
F8A
330
1E7
100
AcDbEntity
  8
1
  6
Continuous
 62
     7
100
AcDbLine
 10
967.2052071829634
 20
412.2100203753911
 30
0.0
 11
969.7473279329443
 21
413.1196057240071
 31
0.0
  0
LINE
  5
F8B
330
1E7
100
AcDbEntity
  8
1
  6
Continuous
 62
     7
100
AcDbLine
 10
969.7473279329443
 20
413.1196057240071
 30
0.0
 11
972.188052721925
 21
414.2739825768398
 31
0.0
  0
LINE
  5
F8C
330
1E7
100
AcDbEntity
  8
1
  6
Continuous
 62
     7
100
AcDbLine
 10
972.188052721925
 20
414.2739825768398
 30
0.0
 11
974.5038760359516
 21
415.6620336537501
 31
0.0
  0
LINE
  5
F8D
330
1E7
100
AcDbEntity
  8
1
  6
Continuous
 62
     7
100
AcDbLine
 10
974.5038760359516
 20
415.6620336537501
 30
0.0
 11
976.6724952305521
 21
417.2703912640815
 31
0.0
  0
LINE
  5
F8E
330
1E7
100
AcDbEntity
  8
1
  6
Continuous
 62
     7
100
AcDbLine
 10
976.6724952305521
 20
417.2703912640815
 30
0.0
 11
978.6730253173946
 21
419.0835660448287
 31
0.0
  0
LINE
  5
F8F
330
1E7
100
AcDbEntity
  8
1
  6
Continuous
 62
     7
100
AcDbLine
 10
978.6730253173946
 20
419.0835660448287
 30
0.0
 11
980.4862000981419
 21
421.0840961316715
 31
0.0
  0
LINE
  5
F90
330
1E7
100
AcDbEntity
  8
1
  6
Continuous
 62
     7
100
AcDbLine
 10
980.4862000981419
 20
421.0840961316715
 30
0.0
 11
982.0945577084737
 21
423.2527153262719
 31
0.0
  0
LINE
  5
F91
330
1E7
100
AcDbEntity
  8
1
  6
Continuous
 62
     7
100
AcDbLine
 10
982.0945577084737
 20
423.2527153262719
 30
0.0
 11
983.4826087853841
 21
425.5685386402983
 31
0.0
  0
LINE
  5
F92
330
1E7
100
AcDbEntity
  8
1
  6
Continuous
 62
     7
100
AcDbLine
 10
983.4826087853841
 20
425.5685386402983
 30
0.0
 11
984.6369856382166
 21
428.0092634292792
 31
0.0
  0
LINE
  5
F93
330
1E7
100
AcDbEntity
  8
1
  6
Continuous
 62
     7
100
AcDbLine
 10
984.6369856382166
 20
428.0092634292792
 30
0.0
 11
985.5465709868322
 21
430.5513841792603
 31
0.0
  0
LINE
  5
F94
330
1E7
100
AcDbEntity
  8
1
  6
Continuous
 62
     7
100
AcDbLine
 10
985.5465709868322
 20
430.5513841792603
 30
0.0
 11
986.2026050270937
 21
433.1704188777549
 31
0.0
  0
LINE
  5
F95
330
1E7
100
AcDbEntity
  8
1
  6
Continuous
 62
     7
100
AcDbLine
 10
986.2026050270937
 20
433.1704188777549
 30
0.0
 11
986.5987697925689
 21
435.8411447889066
 31
0.0
  0
LINE
  5
F96
330
1E7
100
AcDbEntity
  8
1
  6
Continuous
 62
     7
100
AcDbLine
 10
986.5987697925689
 20
435.8411447889066
 30
0.0
 11
986.7312499999997
 21
438.53784136223
 31
0.0
  0
LINE
  5
F97
330
1E7
100
AcDbEntity
  8
0
  6
Continuous
100
AcDbLine
 10
885.1539689999999
 20
312.1152085954282
 30
0.0
 11
1222.0567640511
 21
312.1152085954282
 31
0.0
  0
LINE
  5
F98
330
1E7
100
AcDbEntity
  8
1
  6
Continuous
 62
     7
100
AcDbLine
 10
939.4737280004344
 20
248.0553456162434
 30
0.0
 11
939.7644746826054
 21
248.3761351460278
 31
0.0
  0
LINE
  5
F99
330
1E7
100
AcDbEntity
  8
1
  6
Continuous
 62
     7
100
AcDbLine
 10
939.7644746826054
 20
248.3761351460278
 30
0.0
 11
941.7650047694476
 21
250.189309926775
 31
0.0
  0
LINE
  5
F9A
330
1E7
100
AcDbEntity
  8
1
  6
Continuous
 62
     7
100
AcDbLine
 10
941.7650047694476
 20
250.189309926775
 30
0.0
 11
943.9336239640484
 21
251.7976675371065
 31
0.0
  0
LINE
  5
F9B
330
1E7
100
AcDbEntity
  8
1
  6
Continuous
 62
     7
100
AcDbLine
 10
943.9336239640484
 20
251.7976675371065
 30
0.0
 11
946.2494472780749
 21
253.1857186140169
 31
0.0
  0
LINE
  5
F9C
330
1E7
100
AcDbEntity
  8
1
  6
Continuous
 62
     7
100
AcDbLine
 10
946.2494472780749
 20
253.1857186140169
 30
0.0
 11
948.6901720670557
 21
254.3400954668495
 31
0.0
  0
LINE
  5
F9D
330
1E7
100
AcDbEntity
  8
1
  6
Continuous
 62
     7
100
AcDbLine
 10
948.6901720670557
 20
254.3400954668495
 30
0.0
 11
951.2322928170368
 21
255.2496808154652
 31
0.0
  0
LINE
  5
F9E
330
1E7
100
AcDbEntity
  8
1
  6
Continuous
 62
     7
100
AcDbLine
 10
951.2322928170368
 20
255.2496808154652
 30
0.0
 11
953.8513275155315
 21
255.9057148557264
 31
0.0
  0
LINE
  5
F9F
330
1E7
100
AcDbEntity
  8
1
  6
Continuous
 62
     7
100
AcDbLine
 10
953.8513275155315
 20
255.9057148557264
 30
0.0
 11
956.5220534266828
 21
256.3018796212015
 31
0.0
  0
LINE
  5
FA0
330
1E7
100
AcDbEntity
  8
1
  6
Continuous
 62
     7
100
AcDbLine
 10
956.5220534266828
 20
256.3018796212015
 30
0.0
 11
959.2187499999999
 21
256.4343598286328
 31
0.0
  0
LINE
  5
FA1
330
1E7
100
AcDbEntity
  8
1
  6
Continuous
 62
     7
100
AcDbLine
 10
959.2187499999999
 20
256.4343598286328
 30
0.0
 11
961.9154465733172
 21
256.3018796212015
 31
0.0
  0
LINE
  5
FA2
330
1E7
100
AcDbEntity
  8
1
  6
Continuous
 62
     7
100
AcDbLine
 10
961.9154465733172
 20
256.3018796212015
 30
0.0
 11
964.5861724844683
 21
255.9057148557264
 31
0.0
  0
LINE
  5
FA3
330
1E7
100
AcDbEntity
  8
1
  6
Continuous
 62
     7
100
AcDbLine
 10
964.5861724844683
 20
255.9057148557264
 30
0.0
 11
967.2052071829634
 21
255.2496808154652
 31
0.0
  0
LINE
  5
FA4
330
1E7
100
AcDbEntity
  8
1
  6
Continuous
 62
     7
100
AcDbLine
 10
967.2052071829634
 20
255.2496808154652
 30
0.0
 11
969.7473279329443
 21
254.3400954668495
 31
0.0
  0
LINE
  5
FA5
330
1E7
100
AcDbEntity
  8
1
  6
Continuous
 62
     7
100
AcDbLine
 10
969.7473279329443
 20
254.3400954668495
 30
0.0
 11
972.188052721925
 21
253.1857186140169
 31
0.0
  0
LINE
  5
FA6
330
1E7
100
AcDbEntity
  8
1
  6
Continuous
 62
     7
100
AcDbLine
 10
972.188052721925
 20
253.1857186140169
 30
0.0
 11
974.5038760359516
 21
251.7976675371065
 31
0.0
  0
LINE
  5
FA7
330
1E7
100
AcDbEntity
  8
1
  6
Continuous
 62
     7
100
AcDbLine
 10
974.5038760359516
 20
251.7976675371065
 30
0.0
 11
976.6724952305521
 21
250.189309926775
 31
0.0
  0
LINE
  5
FA8
330
1E7
100
AcDbEntity
  8
1
  6
Continuous
 62
     7
100
AcDbLine
 10
976.6724952305521
 20
250.189309926775
 30
0.0
 11
978.6730253173946
 21
248.3761351460275
 31
0.0
  0
LINE
  5
FA9
330
1E7
100
AcDbEntity
  8
1
  6
Continuous
 62
     7
100
AcDbLine
 10
978.6730253173946
 20
248.3761351460275
 30
0.0
 11
980.4862000981419
 21
246.375605059185
 31
0.0
  0
LINE
  5
FAA
330
1E7
100
AcDbEntity
  8
1
  6
Continuous
 62
     7
100
AcDbLine
 10
980.4862000981419
 20
246.375605059185
 30
0.0
 11
982.0945577084737
 21
244.2069858645845
 31
0.0
  0
LINE
  5
FAB
330
1E7
100
AcDbEntity
  8
1
  6
Continuous
 62
     7
100
AcDbLine
 10
982.0945577084737
 20
244.2069858645845
 30
0.0
 11
983.4826087853841
 21
241.8911625505582
 31
0.0
  0
LINE
  5
FAC
330
1E7
100
AcDbEntity
  8
1
  6
Continuous
 62
     7
100
AcDbLine
 10
983.4826087853841
 20
241.8911625505582
 30
0.0
 11
984.6369856382166
 21
239.4504377615775
 31
0.0
  0
LINE
  5
FAD
330
1E7
100
AcDbEntity
  8
1
  6
Continuous
 62
     7
100
AcDbLine
 10
984.6369856382166
 20
239.4504377615775
 30
0.0
 11
985.5465709868322
 21
236.9083170115962
 31
0.0
  0
LINE
  5
FAE
330
1E7
100
AcDbEntity
  8
1
  6
Continuous
 62
     7
100
AcDbLine
 10
985.5465709868322
 20
236.9083170115962
 30
0.0
 11
986.2026050270937
 21
234.2892823131017
 31
0.0
  0
LINE
  5
FAF
330
1E7
100
AcDbEntity
  8
1
  6
Continuous
 62
     7
100
AcDbLine
 10
986.2026050270937
 20
234.2892823131017
 30
0.0
 11
986.5987697925689
 21
231.6185564019501
 31
0.0
  0
LINE
  5
FB0
330
1E7
100
AcDbEntity
  8
1
  6
Continuous
 62
     7
100
AcDbLine
 10
986.5987697925689
 20
231.6185564019501
 30
0.0
 11
986.8241620604939
 21
227.030591389257
 31
0.0
  0
LINE
  5
FB1
330
1E7
100
AcDbEntity
  8
1
  6
Continuous
 62
     7
100
AcDbLine
 10
986.7312499999997
 20
198.2986005954284
 30
0.0
 11
1012.118749999997
 21
198.2986005954288
 31
0.0
  0
LINE
  5
FB2
330
1E7
100
AcDbEntity
  8
1
  6
Continuous
 62
     7
100
AcDbLine
 10
830.4891626540994
 20
248.3071667460689
 30
0.0
 11
836.462489351391
 21
243.6042071015943
 31
0.0
  0
LINE
  5
FB3
330
1E7
100
AcDbEntity
  8
1
  6
Continuous
 62
     7
100
AcDbLine
 10
836.462489351391
 20
243.6042071015943
 30
0.0
 11
843.4122045821741
 21
239.161506706177
 31
0.0
  0
LINE
  5
FB4
330
1E7
100
AcDbEntity
  8
1
  6
Continuous
 62
     7
100
AcDbLine
 10
843.4122045821741
 20
239.161506706177
 30
0.0
 11
850.7639158226705
 21
235.4213903405034
 31
0.0
  0
LINE
  5
FB5
330
1E7
100
AcDbEntity
  8
1
  6
Continuous
 62
     7
100
AcDbLine
 10
850.7639158226705
 20
235.4213903405034
 30
0.0
 11
858.4468220747796
 21
232.4198773697303
 31
0.0
  0
LINE
  5
FB6
330
1E7
100
AcDbEntity
  8
1
  6
Continuous
 62
     7
100
AcDbLine
 10
858.4468220747796
 20
232.4198773697303
 30
0.0
 11
866.3869327513904
 21
230.1858740045604
 31
0.0
  0
LINE
  5
FB7
330
1E7
100
AcDbEntity
  8
1
  6
Continuous
 62
     7
100
AcDbLine
 10
866.3869327513904
 20
230.1858740045604
 30
0.0
 11
874.507780246181
 21
228.7408949186306
 31
0.0
  0
LINE
  5
FB8
330
1E7
100
AcDbEntity
  8
1
  6
Continuous
 62
     7
100
AcDbLine
 10
874.507780246181
 20
228.7408949186306
 30
0.0
 11
882.7311563584695
 21
228.0988560504443
 31
0.0
  0
LINE
  5
FB9
330
1E7
100
AcDbEntity
  8
1
  6
Continuous
 62
     7
100
AcDbLine
 10
882.7311563584695
 20
228.0988560504443
 30
0.0
 11
890.9778654809398
 21
228.2659405852763
 31
0.0
  0
LINE
  5
FBA
330
1E7
100
AcDbEntity
  8
1
  6
Continuous
 62
     7
100
AcDbLine
 10
890.9778654809398
 20
228.2659405852763
 30
0.0
 11
899.1684872966335
 21
229.2405394077186
 31
0.0
  0
LINE
  5
FBB
330
1E7
100
AcDbEntity
  8
1
  6
Continuous
 62
     7
100
AcDbLine
 10
899.1684872966335
 20
229.2405394077186
 30
0.0
 11
907.2241416400151
 21
231.0132665983409
 31
0.0
  0
LINE
  5
FBC
330
1E7
100
AcDbEntity
  8
1
  6
Continuous
 62
     7
100
AcDbLine
 10
907.2241416400151
 20
231.0132665983409
 30
0.0
 11
915.0672481560899
 21
233.5670498252266
 31
0.0
  0
LINE
  5
FBD
330
1E7
100
AcDbEntity
  8
1
  6
Continuous
 62
     7
100
AcDbLine
 10
915.0672481560899
 20
233.5670498252266
 30
0.0
 11
922.62227344163
 21
236.8772947598606
 31
0.0
  0
LINE
  5
FBE
330
1E7
100
AcDbEntity
  8
1
  6
Continuous
 62
     7
100
AcDbLine
 10
922.62227344163
 20
236.8772947598606
 30
0.0
 11
929.8164584731384
 21
240.9121219339585
 31
0.0
  0
LINE
  5
FBF
330
1E7
100
AcDbEntity
  8
1
  6
Continuous
 62
     7
100
AcDbLine
 10
929.8164584731384
 20
240.9121219339585
 30
0.0
 11
936.5805193160204
 21
245.6326737561728
 31
0.0
  0
LINE
  5
FC0
330
1E7
100
AcDbEntity
  8
1
  6
Continuous
 62
     7
100
AcDbLine
 10
936.5805193160204
 20
245.6326737561728
 30
0.0
 11
939.9744262414486
 21
248.5350029797269
 31
0.0
  0
LINE
  5
FC1
330
1E7
100
AcDbEntity
  8
1
  6
Continuous
 62
     7
100
AcDbLine
 10
831.3468994737718
 20
247.4896799511088
 30
0.0
 11
830.5434633173954
 21
248.3761351460269
 31
0.0
  0
LINE
  5
FC2
330
1E7
100
AcDbEntity
  8
1
  6
Continuous
 62
     7
100
AcDbLine
 10
830.5434633173954
 20
248.3761351460269
 30
0.0
 11
828.5429332305529
 21
250.1893099267743
 31
0.0
  0
LINE
  5
FC3
330
1E7
100
AcDbEntity
  8
1
  6
Continuous
 62
     7
100
AcDbLine
 10
828.5429332305529
 20
250.1893099267743
 30
0.0
 11
826.3743140359522
 21
251.7976675371055
 31
0.0
  0
LINE
  5
FC4
330
1E7
100
AcDbEntity
  8
1
  6
Continuous
 62
     7
100
AcDbLine
 10
826.3743140359522
 20
251.7976675371055
 30
0.0
 11
824.0584907219256
 21
253.185718614016
 31
0.0
  0
LINE
  5
FC5
330
1E7
100
AcDbEntity
  8
1
  6
Continuous
 62
     7
100
AcDbLine
 10
824.0584907219256
 20
253.185718614016
 30
0.0
 11
821.6177659329447
 21
254.3400954668486
 31
0.0
  0
LINE
  5
FC6
330
1E7
100
AcDbEntity
  8
1
  6
Continuous
 62
     7
100
AcDbLine
 10
821.6177659329447
 20
254.3400954668486
 30
0.0
 11
819.0756451829637
 21
255.2496808154641
 31
0.0
  0
LINE
  5
FC7
330
1E7
100
AcDbEntity
  8
1
  6
Continuous
 62
     7
100
AcDbLine
 10
819.0756451829637
 20
255.2496808154641
 30
0.0
 11
816.4566104844691
 21
255.9057148557255
 31
0.0
  0
LINE
  5
FC8
330
1E7
100
AcDbEntity
  8
1
  6
Continuous
 62
     7
100
AcDbLine
 10
816.4566104844691
 20
255.9057148557255
 30
0.0
 11
813.7858845733175
 21
256.3018796212002
 31
0.0
  0
LINE
  5
FC9
330
1E7
100
AcDbEntity
  8
1
  6
Continuous
 62
     7
100
AcDbLine
 10
813.7858845733175
 20
256.3018796212002
 30
0.0
 11
811.0891880000002
 21
256.4343598286316
 31
0.0
  0
LINE
  5
FCA
330
1E7
100
AcDbEntity
  8
1
  6
Continuous
 62
     7
100
AcDbLine
 10
811.0891880000002
 20
256.4343598286316
 30
0.0
 11
808.3924914266837
 21
256.3018796212002
 31
0.0
  0
LINE
  5
FCB
330
1E7
100
AcDbEntity
  8
1
  6
Continuous
 62
     7
100
AcDbLine
 10
808.3924914266837
 20
256.3018796212002
 30
0.0
 11
805.7217655155318
 21
255.9057148557254
 31
0.0
  0
LINE
  5
FCC
330
1E7
100
AcDbEntity
  8
1
  6
Continuous
 62
     7
100
AcDbLine
 10
805.7217655155318
 20
255.9057148557254
 30
0.0
 11
803.102730817037
 21
255.2496808154639
 31
0.0
  0
LINE
  5
FCD
330
1E7
100
AcDbEntity
  8
1
  6
Continuous
 62
     7
100
AcDbLine
 10
803.102730817037
 20
255.2496808154639
 30
0.0
 11
800.5606100670561
 21
254.3400954668483
 31
0.0
  0
LINE
  5
FCE
330
1E7
100
AcDbEntity
  8
1
  6
Continuous
 62
     7
100
AcDbLine
 10
800.5606100670561
 20
254.3400954668483
 30
0.0
 11
798.1198852780752
 21
253.1857186140155
 31
0.0
  0
LINE
  5
FCF
330
1E7
100
AcDbEntity
  8
1
  6
Continuous
 62
     7
100
AcDbLine
 10
798.1198852780752
 20
253.1857186140155
 30
0.0
 11
795.8040619640489
 21
251.7976675371051
 31
0.0
  0
LINE
  5
FD0
330
1E7
100
AcDbEntity
  8
1
  6
Continuous
 62
     7
100
AcDbLine
 10
795.8040619640489
 20
251.7976675371051
 30
0.0
 11
793.6354427694484
 21
250.1893099267737
 31
0.0
  0
LINE
  5
FD1
330
1E7
100
AcDbEntity
  8
1
  6
Continuous
 62
     7
100
AcDbLine
 10
824.10300280008
 20
250.1893099267737
 30
0.0
 11
822.1024727132373
 21
248.3761351460263
 31
0.0
  0
LINE
  5
FD2
330
1E7
100
AcDbEntity
  8
1
  6
Continuous
 62
     7
100
AcDbLine
 10
791.6349126826057
 20
248.3761351460263
 30
0.0
 11
789.8217379018582
 21
246.3756050591836
 31
0.0
  0
LINE
  5
FD3
330
1E7
100
AcDbEntity
  8
1
  6
Continuous
 62
     7
100
AcDbLine
 10
789.8217379018582
 20
246.3756050591836
 30
0.0
 11
788.2133802915273
 21
244.2069858645832
 31
0.0
  0
LINE
  5
FD4
330
1E7
100
AcDbEntity
  8
1
  6
Continuous
 62
     7
100
AcDbLine
 10
788.2133802915273
 20
244.2069858645832
 30
0.0
 11
786.8253292146166
 21
241.8911625505566
 31
0.0
  0
LINE
  5
FD5
330
1E7
100
AcDbEntity
  8
1
  6
Continuous
 62
     7
100
AcDbLine
 10
786.8253292146166
 20
241.8911625505566
 30
0.0
 11
785.6709523617841
 21
239.4504377615759
 31
0.0
  0
LINE
  5
FD6
330
1E7
100
AcDbEntity
  8
1
  6
Continuous
 62
     7
100
AcDbLine
 10
785.6709523617841
 20
239.4504377615759
 30
0.0
 11
784.7613670131686
 21
236.9083170115948
 31
0.0
  0
LINE
  5
FD7
330
1E7
100
AcDbEntity
  8
1
  6
Continuous
 62
     7
100
AcDbLine
 10
784.7613670131686
 20
236.9083170115948
 30
0.0
 11
784.1053329729068
 21
234.2892823131002
 31
0.0
  0
LINE
  5
FD8
330
1E7
100
AcDbEntity
  8
1
  6
Continuous
 62
     7
100
AcDbLine
 10
784.1053329729068
 20
234.2892823131002
 30
0.0
 11
783.7091682074323
 21
231.6185564019483
 31
0.0
  0
LINE
  5
FD9
330
1E7
100
AcDbEntity
  8
1
  6
Continuous
 62
     7
100
AcDbLine
 10
783.7091682074323
 20
231.6185564019483
 30
0.0
 11
783.3821007862134
 21
224.960946098109
 31
0.0
  0
LINE
  5
1121
330
1E7
100
AcDbEntity
  8
1
  6
Continuous
 62
     4
100
AcDbLine
 10
866.0937500000001
 20
821.4261571183463
 30
0.0
 11
865.1492957379984
 21
820.4423505954283
 31
0.0
  0
LINE
  5
1164
330
1E7
100
AcDbEntity
  8
1
  6
Continuous
 62
     7
100
AcDbLine
 10
793.6354427694484
 20
214.0023139412935
 30
0.0
 11
791.6349126826057
 21
212.1891391605461
 31
0.0
  0
ENDSEC
  0
SECTION
  2
OBJECTS
  0
DICTIONARY
  5
1D5
330
0
100
AcDbDictionary
281
     1
  3
ACAD_COLOR
350
948
  3
ACAD_GROUP
350
1D6
  3
ACAD_LAYOUT
350
1E2
  3
ACAD_MATERIAL
350
91B
  3
ACAD_MLEADERSTYLE
350
96D
  3
ACAD_MLINESTYLE
350
1DF
  3
ACAD_PLOTSETTINGS
350
1E1
  3
ACAD_PLOTSTYLENAME
350
1D7
  3
ACAD_SCALELIST
350
94B
  3
ACAD_TABLESTYLE
350
949
  3
ACAD_VISUALSTYLE
350
934
  3
ACDB_RECOMPOSE_DATA
350
1124
  3
AcDbVariableDictionary
350
39B
  3
DWGPROPS
350
1125
  0
DICTIONARY
  5
972
330
1D9
100
AcDbDictionary
280
     1
281
     1
  3
ADSK_XREC_LAYER_RECONCILED
360
973
  0
DICTIONARY
  5
974
330
1F2
100
AcDbDictionary
280
     1
281
     1
  3
ADSK_XREC_LAYER_RECONCILED
360
975
  0
DICTIONARY
  5
976
330
1F3
100
AcDbDictionary
280
     1
281
     1
  3
ADSK_XREC_LAYER_RECONCILED
360
977
  0
DICTIONARY
  5
978
330
1F4
100
AcDbDictionary
280
     1
281
     1
  3
ADSK_XREC_LAYER_RECONCILED
360
979
  0
DICTIONARY
  5
B2E
330
1E7
100
AcDbDictionary
280
     1
281
     1
  3
ACAD_SORTENTS
360
B2F
  0
DICTIONARY
  5
948
102
{ACAD_REACTORS
330
1D5
102
}
330
1D5
100
AcDbDictionary
281
     1
  0
DICTIONARY
  5
1D6
102
{ACAD_REACTORS
330
1D5
102
}
330
1D5
100
AcDbDictionary
281
     1
  0
DICTIONARY
  5
1E2
102
{ACAD_REACTORS
330
1D5
102
}
330
1D5
100
AcDbDictionary
281
     1
  3
Layout1
350
1E6
  3
Model
350
1EA
  0
DICTIONARY
  5
91B
102
{ACAD_REACTORS
330
1D5
102
}
330
1D5
100
AcDbDictionary
281
     1
  3
ByBlock
350
924
  3
ByLayer
350
91C
  3
Global
350
92C
  0
DICTIONARY
  5
96D
102
{ACAD_REACTORS
330
1D5
102
}
330
1D5
100
AcDbDictionary
281
     1
  3
Standard
350
96E
  0
DICTIONARY
  5
1DF
102
{ACAD_REACTORS
330
1D5
102
}
330
1D5
100
AcDbDictionary
281
     1
  3
Standard
350
1E0
  0
DICTIONARY
  5
1E1
102
{ACAD_REACTORS
330
1D5
102
}
330
1D5
100
AcDbDictionary
281
     1
  0
ACDBDICTIONARYWDFLT
  5
1D7
102
{ACAD_REACTORS
330
1D5
102
}
330
1D5
100
AcDbDictionary
281
     1
  3
Normal
350
1D8
100
AcDbDictionaryWithDefault
340
1D8
  0
DICTIONARY
  5
94B
102
{ACAD_REACTORS
330
1D5
102
}
330
1D5
100
AcDbDictionary
281
     1
  3
A0
350
94C
  3
A1
350
94D
  3
A2
350
94E
  3
A3
350
94F
  3
A4
350
950
  3
A5
350
951
  3
A6
350
952
  3
A7
350
953
  3
A8
350
954
  3
A9
350
955
  3
B0
350
956
  3
B1
350
957
  3
B2
350
958
  3
B3
350
959
  3
B4
350
95A
  3
B5
350
95B
  3
B6
350
95C
  3
B7
350
95D
  3
B8
350
95E
  3
B9
350
95F
  3
C0
350
960
  3
C1
350
961
  3
C2
350
962
  3
C3
350
963
  3
C4
350
964
  3
C5
350
965
  3
C6
350
966
  3
C7
350
967
  3
C8
350
968
  3
C9
350
969
  3
D0
350
96A
  3
D1
350
96B
  3
D2
350
96C
  0
DICTIONARY
  5
949
102
{ACAD_REACTORS
330
1D5
102
}
330
1D5
100
AcDbDictionary
281
     1
  3
Standard
350
94A
  0
DICTIONARY
  5
934
102
{ACAD_REACTORS
330
1D5
102
}
330
1D5
100
AcDbDictionary
281
     1
  3
2dWireframe
350
93A
  3
3D Hidden
350
93C
  3
3dWireframe
350
93B
  3
Basic
350
939
  3
Brighten
350
940
  3
ColorChange
350
944
  3
Conceptual
350
93D
  3
Dim
350
93F
  3
EdgeColorOff
350
947
  3
Facepattern
350
943
  3
Flat
350
935
  3
FlatWithEdges
350
936
  3
Gouraud
350
937
  3
GouraudWithEdges
350
938
  3
JitterOff
350
945
  3
Linepattern
350
942
  3
OverhangOff
350
946
  3
Realistic
350
93E
  3
Thicken
350
941
  0
XRECORD
  5
1124
102
{ACAD_REACTORS
330
1D5
102
}
330
1D5
100
AcDbXrecord
280
     1
 90
        1
330
94A
  0
DICTIONARY
  5
39B
102
{ACAD_REACTORS
330
1D5
102
}
330
1D5
100
AcDbDictionary
281
     1
  3
CANNOSCALE
350
97C
  3
CMLEADERSTYLE
350
97B
  3
CTABLESTYLE
350
97A
  3
DIMASSOC
350
97E
  3
INDEXCTL
350
97D
  3
SORTENTS
350
39C
  3
XCLIPFRAME
350
1122
  0
XRECORD
  5
1125
102
{ACAD_REACTORS
330
1D5
102
}
330
1D5
100
AcDbXrecord
280
     1
  1
DWGPROPS COOKIE
  2

  3

  4

  6

  7

  8
XPS
  9

300
=
301
=
302
=
303
=
304
=
305
=
306
=
307
=
308
=
309
=
 40
0.1345709490740741
 41
2453238.927800926
 42
2456123.519241887
  1

 90
        0
  0
XRECORD
  5
973
102
{ACAD_REACTORS
330
972
102
}
330
972
100
AcDbXrecord
280
     1
290
     1
  0
XRECORD
  5
975
102
{ACAD_REACTORS
330
974
102
}
330
974
100
AcDbXrecord
280
     1
290
     1
  0
XRECORD
  5
977
102
{ACAD_REACTORS
330
976
102
}
330
976
100
AcDbXrecord
280
     1
290
     1
  0
XRECORD
  5
979
102
{ACAD_REACTORS
330
978
102
}
330
978
100
AcDbXrecord
280
     1
290
     1
  0
SORTENTSTABLE
  5
B2F
102
{ACAD_REACTORS
330
B2E
102
}
330
B2E
100
AcDbSortentsTable
330
1E7
331
696
  5
696
331
678
  5
678
331
65A
  5
65A
331
912
  5
B32
331
68B
  5
68B
331
66D
  5
66D
331
BC6
  5
7FB
331
666
  5
666
331
6A2
  5
6A2
331
697
  5
697
331
679
  5
679
331
65B
  5
65B
331
913
  5
B61
331
68C
  5
68C
331
66E
  5
66E
331
6A3
  5
6A3
331
685
  5
685
331
667
  5
667
331
BC7
  5
7FF
331
698
  5
698
331
67A
  5
67A
331
914
  5
BC6
331
68D
  5
68D
331
66F
  5
66F
331
686
  5
686
331
699
  5
699
331
67B
  5
67B
331
915
  5
BC7
331
7F4
  5
7F7
331
68E
  5
68E
331
670
  5
670
331
687
  5
687
331
BC9
  5
7FE
331
908
  5
913
331
69A
  5
69A
331
67C
  5
67C
331
916
  5
BC8
331
68F
  5
68F
331
671
  5
671
331
909
  5
914
331
69B
  5
69B
331
67D
  5
67D
331
65F
  5
65F
331
690
  5
690
331
672
  5
672
331
69C
  5
69C
331
67E
  5
67E
331
660
  5
660
331
7F7
  5
7FA
331
673
  5
673
331
655
  5
655
331
691
  5
691
331
668
  5
668
331
90B
  5
916
331
69D
  5
69D
331
67F
  5
67F
331
661
  5
661
331
692
  5
692
331
674
  5
674
331
656
  5
656
331
669
  5
669
331
90C
  5
971
331
69E
  5
69E
331
662
  5
662
331
680
  5
680
331
675
  5
675
331
657
  5
657
331
693
  5
693
331
688
  5
688
331
66A
  5
66A
331
90D
  5
B2D
331
69F
  5
69F
331
681
  5
681
331
663
  5
663
331
694
  5
694
331
658
  5
658
331
910
  5
B30
331
66B
  5
66B
331
6A0
  5
6A0
331
664
  5
664
331
682
  5
682
331
911
  5
B31
331
695
  5
695
331
677
  5
677
331
659
  5
659
331
853
  5
85C
331
68A
  5
68A
331
66C
  5
66C
331
6A1
  5
6A1
331
683
  5
683
331
665
  5
665
  0
LAYOUT
  5
1E6
102
{ACAD_XDICTIONARY
360
1126
102
}
102
{ACAD_REACTORS
330
1E2
102
}
330
1E2
100
AcDbPlotSettings
  1

  2
HP DeskJet 840C/841C/842C/843C
  4

  6

 40
0.0
 41
0.0
 42
0.0
 43
0.0
 44
0.0
 45
0.0
 46
0.0
 47
0.0
 48
0.0
 49
0.0
140
0.0
141
0.0
142
1.0
143
1.0
 70
   688
 72
     0
 73
     0
 74
     5
  7

 75
    16
147
1.0
148
0.0
149
0.0
100
AcDbLayout
  1
Layout1
 70
     0
 71
     1
 10
0.0
 20
0.0
 11
12.0
 21
9.0
 12
0.0
 22
0.0
 32
0.0
 14
-1.000000000000000E+20
 24
-1.000000000000000E+20
 34
-1.000000000000000E+20
 15
-1.000000000000000E+20
 25
-1.000000000000000E+20
 35
-1.000000000000000E+20
146
0.0
 13
0.0
 23
0.0
 33
0.0
 16
1.0
 26
0.0
 36
0.0
 17
0.0
 27
1.0
 37
0.0
 76
     0
330
1E3
  0
LAYOUT
  5
1EA
102
{ACAD_XDICTIONARY
360
1128
102
}
102
{ACAD_REACTORS
330
1E2
102
}
330
1E2
100
AcDbPlotSettings
  1

  2
HP DeskJet 840C/841C/842C/843C
  4

  6

 40
0.0
 41
0.0
 42
0.0
 43
0.0
 44
0.0
 45
0.0
 46
0.0
 47
0.0
 48
0.0
 49
0.0
140
0.0
141
0.0
142
1.0
143
1.0
 70
  1712
 72
     0
 73
     0
 74
     0
  7

 75
     0
147
1.0
148
0.0
149
0.0
100
AcDbLayout
  1
Model
 70
     1
 71
     0
 10
0.0
 20
0.0
 11
12.0
 21
9.0
 12
0.0
 22
0.0
 32
0.0
 14
0.0
 24
0.0
 34
0.0
 15
0.0
 25
0.0
 35
0.0
146
0.0
 13
0.0
 23
0.0
 33
0.0
 16
1.0
 26
0.0
 36
0.0
 17
0.0
 27
1.0
 37
0.0
 76
     0
330
1E7
331
918
  0
MATERIAL
  5
924
102
{ACAD_XDICTIONARY
360
925
102
}
102
{ACAD_REACTORS
330
91B
102
}
330
91B
100
AcDbMaterial
  1
ByBlock
 72
     0
 43
0.0208333333333333
 43
0.0
 43
0.0
 43
0.0
 43
0.0
 43
0.0208333333333333
 43
0.0
 43
0.0
 43
0.0
 43
0.0
 43
1.0
 43
0.0
 43
0.0
 43
0.0
 43
0.0
 43
1.0
 77
     0
 47
0.0208333333333333
 47
0.0
 47
0.0
 47
0.0
 47
0.0
 47
0.0208333333333333
 47
0.0
 47
0.0
 47
0.0
 47
0.0
 47
1.0
 47
0.0
 47
0.0
 47
0.0
 47
0.0
 47
1.0
171
     0
 49
0.0208333333333333
 49
0.0
 49
0.0
 49
0.0
 49
0.0
 49
0.0208333333333333
 49
0.0
 49
0.0
 49
0.0
 49
0.0
 49
1.0
 49
0.0
 49
0.0
 49
0.0
 49
0.0
 49
1.0
175
     0
142
0.0208333333333333
142
0.0
142
0.0
142
0.0
142
0.0
142
0.0208333333333333
142
0.0
142
0.0
142
0.0
142
0.0
142
1.0
142
0.0
142
0.0
142
0.0
142
0.0
142
1.0
179
     0
144
0.0208333333333333
144
0.0
144
0.0
144
0.0
144
0.0
144
0.0208333333333333
144
0.0
144
0.0
144
0.0
144
0.0
144
1.0
144
0.0
144
0.0
144
0.0
144
0.0
144
1.0
147
0.0208333333333333
147
0.0
147
0.0
147
0.0
147
0.0
147
0.0208333333333333
147
0.0
147
0.0
147
0.0
147
0.0
147
1.0
147
0.0
147
0.0
147
0.0
147
0.0
147
1.0
  0
MATERIAL
  5
91C
102
{ACAD_XDICTIONARY
360
91D
102
}
102
{ACAD_REACTORS
330
91B
102
}
330
91B
100
AcDbMaterial
  1
ByLayer
 72
     0
 43
0.0208333333333333
 43
0.0
 43
0.0
 43
0.0
 43
0.0
 43
0.0208333333333333
 43
0.0
 43
0.0
 43
0.0
 43
0.0
 43
1.0
 43
0.0
 43
0.0
 43
0.0
 43
0.0
 43
1.0
 77
     0
 47
0.0208333333333333
 47
0.0
 47
0.0
 47
0.0
 47
0.0
 47
0.0208333333333333
 47
0.0
 47
0.0
 47
0.0
 47
0.0
 47
1.0
 47
0.0
 47
0.0
 47
0.0
 47
0.0
 47
1.0
171
     0
 49
0.0208333333333333
 49
0.0
 49
0.0
 49
0.0
 49
0.0
 49
0.0208333333333333
 49
0.0
 49
0.0
 49
0.0
 49
0.0
 49
1.0
 49
0.0
 49
0.0
 49
0.0
 49
0.0
 49
1.0
175
     0
142
0.0208333333333333
142
0.0
142
0.0
142
0.0
142
0.0
142
0.0208333333333333
142
0.0
142
0.0
142
0.0
142
0.0
142
1.0
142
0.0
142
0.0
142
0.0
142
0.0
142
1.0
179
     0
144
0.0208333333333333
144
0.0
144
0.0
144
0.0
144
0.0
144
0.0208333333333333
144
0.0
144
0.0
144
0.0
144
0.0
144
1.0
144
0.0
144
0.0
144
0.0
144
0.0
144
1.0
147
0.0208333333333333
147
0.0
147
0.0
147
0.0
147
0.0
147
0.0208333333333333
147
0.0
147
0.0
147
0.0
147
0.0
147
1.0
147
0.0
147
0.0
147
0.0
147
0.0
147
1.0
  0
MATERIAL
  5
92C
102
{ACAD_XDICTIONARY
360
92D
102
}
102
{ACAD_REACTORS
330
91B
102
}
330
91B
100
AcDbMaterial
  1
Global
 72
     0
 43
0.0208333333333333
 43
0.0
 43
0.0
 43
0.0
 43
0.0
 43
0.0208333333333333
 43
0.0
 43
0.0
 43
0.0
 43
0.0
 43
1.0
 43
0.0
 43
0.0
 43
0.0
 43
0.0
 43
1.0
 77
     0
 47
0.0208333333333333
 47
0.0
 47
0.0
 47
0.0
 47
0.0
 47
0.0208333333333333
 47
0.0
 47
0.0
 47
0.0
 47
0.0
 47
1.0
 47
0.0
 47
0.0
 47
0.0
 47
0.0
 47
1.0
171
     0
 49
0.0208333333333333
 49
0.0
 49
0.0
 49
0.0
 49
0.0
 49
0.0208333333333333
 49
0.0
 49
0.0
 49
0.0
 49
0.0
 49
1.0
 49
0.0
 49
0.0
 49
0.0
 49
0.0
 49
1.0
175
     0
142
0.0208333333333333
142
0.0
142
0.0
142
0.0
142
0.0
142
0.0208333333333333
142
0.0
142
0.0
142
0.0
142
0.0
142
1.0
142
0.0
142
0.0
142
0.0
142
0.0
142
1.0
179
     0
144
0.0208333333333333
144
0.0
144
0.0
144
0.0
144
0.0
144
0.0208333333333333
144
0.0
144
0.0
144
0.0
144
0.0
144
1.0
144
0.0
144
0.0
144
0.0
144
0.0
144
1.0
147
0.0208333333333333
147
0.0
147
0.0
147
0.0
147
0.0
147
0.0208333333333333
147
0.0
147
0.0
147
0.0
147
0.0
147
1.0
147
0.0
147
0.0
147
0.0
147
0.0
147
1.0
  0
MLEADERSTYLE
  5
96E
102
{ACAD_REACTORS
330
96D
102
}
330
96D
100
AcDbMLeaderStyle
170
     2
171
     1
172
     0
 90
        2
 40
0.0
 41
0.0
173
     1
 91
-1056964608
340
1DC
 92
       -2
290
     1
 42
0.09
291
     1
 43
0.36
  3
Standard
 44
0.18
300

342
1DA
174
     1
178
     6
175
     1
176
     0
 93
-1056964608
 45
0.18
292
     0
297
     0
 46
0.18
 94
-1056964608
 47
1.0
 49
1.0
140
1.0
293
     1
141
0.0
294
     1
177
     0
142
1.0
295
     0
296
     0
143
0.125
1001
ACAD_MLEADERVER
1070
     2
  0
MLINESTYLE
  5
1E0
102
{ACAD_REACTORS
330
1DF
102
}
330
1DF
100
AcDbMlineStyle
  2
STANDARD
 70
     0
  3

 62
   256
 51
90.0
 52
90.0
 71
     2
 49
0.5
 62
   256
  6
BYLAYER
 49
-0.5
 62
   256
  6
BYLAYER
  0
ACDBPLACEHOLDER
  5
1D8
102
{ACAD_REACTORS
330
1D7
102
}
330
1D7
  0
SCALE
  5
94C
102
{ACAD_REACTORS
330
94B
102
}
330
94B
100
AcDbScale
 70
     0
300
1:1
140
1.0
141
1.0
290
     1
  0
SCALE
  5
94D
102
{ACAD_REACTORS
330
94B
102
}
330
94B
100
AcDbScale
 70
     0
300
1:2
140
1.0
141
2.0
290
     0
  0
SCALE
  5
94E
102
{ACAD_REACTORS
330
94B
102
}
330
94B
100
AcDbScale
 70
     0
300
1:4
140
1.0
141
4.0
290
     0
  0
SCALE
  5
94F
102
{ACAD_REACTORS
330
94B
102
}
330
94B
100
AcDbScale
 70
     0
300
1:5
140
1.0
141
5.0
290
     0
  0
SCALE
  5
950
102
{ACAD_REACTORS
330
94B
102
}
330
94B
100
AcDbScale
 70
     0
300
1:8
140
1.0
141
8.0
290
     0
  0
SCALE
  5
951
102
{ACAD_REACTORS
330
94B
102
}
330
94B
100
AcDbScale
 70
     0
300
1:10
140
1.0
141
10.0
290
     0
  0
SCALE
  5
952
102
{ACAD_REACTORS
330
94B
102
}
330
94B
100
AcDbScale
 70
     0
300
1:16
140
1.0
141
16.0
290
     0
  0
SCALE
  5
953
102
{ACAD_REACTORS
330
94B
102
}
330
94B
100
AcDbScale
 70
     0
300
1:20
140
1.0
141
20.0
290
     0
  0
SCALE
  5
954
102
{ACAD_REACTORS
330
94B
102
}
330
94B
100
AcDbScale
 70
     0
300
1:30
140
1.0
141
30.0
290
     0
  0
SCALE
  5
955
102
{ACAD_REACTORS
330
94B
102
}
330
94B
100
AcDbScale
 70
     0
300
1:40
140
1.0
141
40.0
290
     0
  0
SCALE
  5
956
102
{ACAD_REACTORS
330
94B
102
}
330
94B
100
AcDbScale
 70
     0
300
1:50
140
1.0
141
50.0
290
     0
  0
SCALE
  5
957
102
{ACAD_REACTORS
330
94B
102
}
330
94B
100
AcDbScale
 70
     0
300
1:100
140
1.0
141
100.0
290
     0
  0
SCALE
  5
958
102
{ACAD_REACTORS
330
94B
102
}
330
94B
100
AcDbScale
 70
     0
300
2:1
140
2.0
141
1.0
290
     0
  0
SCALE
  5
959
102
{ACAD_REACTORS
330
94B
102
}
330
94B
100
AcDbScale
 70
     0
300
4:1
140
4.0
141
1.0
290
     0
  0
SCALE
  5
95A
102
{ACAD_REACTORS
330
94B
102
}
330
94B
100
AcDbScale
 70
     0
300
8:1
140
8.0
141
1.0
290
     0
  0
SCALE
  5
95B
102
{ACAD_REACTORS
330
94B
102
}
330
94B
100
AcDbScale
 70
     0
300
10:1
140
10.0
141
1.0
290
     0
  0
SCALE
  5
95C
102
{ACAD_REACTORS
330
94B
102
}
330
94B
100
AcDbScale
 70
     0
300
100:1
140
100.0
141
1.0
290
     0
  0
SCALE
  5
95D
102
{ACAD_REACTORS
330
94B
102
}
330
94B
100
AcDbScale
 70
     0
300
1/128 = 1'-0
140
0.0078125
141
12.0
290
     0
  0
SCALE
  5
95E
102
{ACAD_REACTORS
330
94B
102
}
330
94B
100
AcDbScale
 70
     0
300
1/64 = 1'-0
140
0.015625
141
12.0
290
     0
  0
SCALE
  5
95F
102
{ACAD_REACTORS
330
94B
102
}
330
94B
100
AcDbScale
 70
     0
300
1/32 = 1'-0
140
0.03125
141
12.0
290
     0
  0
SCALE
  5
960
102
{ACAD_REACTORS
330
94B
102
}
330
94B
100
AcDbScale
 70
     0
300
1/16 = 1'-0
140
0.0625
141
12.0
290
     0
  0
SCALE
  5
961
102
{ACAD_REACTORS
330
94B
102
}
330
94B
100
AcDbScale
 70
     0
300
3/32 = 1'-0
140
0.09375
141
12.0
290
     0
  0
SCALE
  5
962
102
{ACAD_REACTORS
330
94B
102
}
330
94B
100
AcDbScale
 70
     0
300
1/8 = 1'-0
140
0.125
141
12.0
290
     0
  0
SCALE
  5
963
102
{ACAD_REACTORS
330
94B
102
}
330
94B
100
AcDbScale
 70
     0
300
3/16 = 1'-0
140
0.1875
141
12.0
290
     0
  0
SCALE
  5
964
102
{ACAD_REACTORS
330
94B
102
}
330
94B
100
AcDbScale
 70
     0
300
1/4 = 1'-0
140
0.25
141
12.0
290
     0
  0
SCALE
  5
965
102
{ACAD_REACTORS
330
94B
102
}
330
94B
100
AcDbScale
 70
     0
300
3/8 = 1'-0
140
0.375
141
12.0
290
     0
  0
SCALE
  5
966
102
{ACAD_REACTORS
330
94B
102
}
330
94B
100
AcDbScale
 70
     0
300
1/2 = 1'-0
140
0.5
141
12.0
290
     0
  0
SCALE
  5
967
102
{ACAD_REACTORS
330
94B
102
}
330
94B
100
AcDbScale
 70
     0
300
3/4 = 1'-0
140
0.75
141
12.0
290
     0
  0
SCALE
  5
968
102
{ACAD_REACTORS
330
94B
102
}
330
94B
100
AcDbScale
 70
     0
300
1 = 1'-0
140
1.0
141
12.0
290
     0
  0
SCALE
  5
969
102
{ACAD_REACTORS
330
94B
102
}
330
94B
100
AcDbScale
 70
     0
300
1-1/2 = 1'-0
140
1.5
141
12.0
290
     0
  0
SCALE
  5
96A
102
{ACAD_REACTORS
330
94B
102
}
330
94B
100
AcDbScale
 70
     0
300
3 = 1'-0
140
3.0
141
12.0
290
     0
  0
SCALE
  5
96B
102
{ACAD_REACTORS
330
94B
102
}
330
94B
100
AcDbScale
 70
     0
300
6 = 1'-0
140
6.0
141
12.0
290
     0
  0
SCALE
  5
96C
102
{ACAD_REACTORS
330
94B
102
}
330
94B
100
AcDbScale
 70
     0
300
1'-0 = 1'-0
140
12.0
141
12.0
290
     0
  0
TABLESTYLE
  5
94A
102
{ACAD_XDICTIONARY
360
9B3
102
}
102
{ACAD_REACTORS
330
949
102
}
330
949
100
AcDbTableStyle
  3
Standard
 70
     0
 71
     0
 40
0.06
 41
0.06
280
     0
281
     0
  7
STANDARD
140
0.18
170
     2
 62
     0
 63
     7
283
     0
274
    -2
284
     1
 64
     0
275
    -2
285
     1
 65
     0
276
    -2
286
     1
 66
     0
277
    -2
287
     1
 67
     0
278
    -2
288
     1
 68
     0
279
    -2
289
     1
 69
     0
  7
STANDARD
140
0.25
170
     5
 62
     0
 63
     7
283
     0
274
    -2
284
     1
 64
     0
275
    -2
285
     1
 65
     0
276
    -2
286
     1
 66
     0
277
    -2
287
     1
 67
     0
278
    -2
288
     1
 68
     0
279
    -2
289
     1
 69
     0
  7
STANDARD
140
0.18
170
     5
 62
     0
 63
     7
283
     0
274
    -2
284
     1
 64
     0
275
    -2
285
     1
 65
     0
276
    -2
286
     1
 66
     0
277
    -2
287
     1
 67
     0
278
    -2
288
     1
 68
     0
279
    -2
289
     1
 69
     0
  0
VISUALSTYLE
  5
93A
102
{ACAD_XDICTIONARY
360
1134
102
}
102
{ACAD_REACTORS
330
934
102
}
330
934
100
AcDbVisualStyle
  2

 70
     4
 71
     0
 72
     2
 73
     0
 90
        0
 40
-0.6
 41
-30.0
 62
     5
 63
     7
 74
     1
 91
        4
 64
     7
 65
   257
 75
     1
175
     1
 42
1.0
 92
        0
 66
   257
 43
1.0
 76
     1
 77
     6
 78
     2
 67
     7
 79
     5
170
     0
171
     0
290
     0
174
     0
 93
        1
 44
0.0
173
     0
291
     0
 45
0.0
1001
ACAD
1000
AcDbSavedByObjectVersion
1070
     0
  0
VISUALSTYLE
  5
93C
102
{ACAD_XDICTIONARY
360
1138
102
}
102
{ACAD_REACTORS
330
934
102
}
330
934
100
AcDbVisualStyle
  2

 70
     6
 71
     1
 72
     2
 73
     2
 90
        0
 40
-0.6
 41
-30.0
 62
     5
 63
     7
 74
     2
 91
        2
 64
     7
 65
   257
 75
     2
175
     1
 42
179.0
 92
        0
 66
   257
 43
1.0
 76
     1
 77
     6
 78
     2
 67
     7
 79
     3
170
     0
171
     0
290
     0
174
     0
 93
        1
 44
0.0
173
     0
291
     0
 45
0.0
1001
ACAD
1000
AcDbSavedByObjectVersion
1070
     0
  0
VISUALSTYLE
  5
93B
102
{ACAD_XDICTIONARY
360
1136
102
}
102
{ACAD_REACTORS
330
934
102
}
330
934
100
AcDbVisualStyle
  2

 70
     5
 71
     0
 72
     2
 73
     0
 90
        0
 40
-0.6
 41
-30.0
 62
     5
 63
     7
 74
     1
 91
        4
 64
     7
 65
   257
 75
     1
175
     1
 42
1.0
 92
        0
 66
   257
 43
1.0
 76
     1
 77
     6
 78
     2
 67
     7
 79
     5
170
     0
171
     0
290
     0
174
     0
 93
        1
 44
0.0
173
     0
291
     0
 45
0.0
1001
ACAD
1000
AcDbSavedByObjectVersion
1070
     0
  0
VISUALSTYLE
  5
939
102
{ACAD_XDICTIONARY
360
1132
102
}
102
{ACAD_REACTORS
330
934
102
}
330
934
100
AcDbVisualStyle
  2

 70
     7
 71
     1
 72
     0
 73
     1
 90
        0
 40
-0.6
 41
-30.0
 62
     5
 63
     7
 74
     0
 91
        4
 64
     7
 65
   257
 75
     1
175
     1
 42
1.0
 92
        8
 66
     7
 43
1.0
 76
     1
 77
     6
 78
     2
 67
     7
 79
     5
170
     0
171
     0
290
     0
174
     0
 93
        1
 44
0.0
173
     0
291
     1
 45
0.0
1001
ACAD
1000
AcDbSavedByObjectVersion
1070
     0
  0
VISUALSTYLE
  5
940
102
{ACAD_XDICTIONARY
360
1140
102
}
102
{ACAD_REACTORS
330
934
102
}
330
934
100
AcDbVisualStyle
  2

 70
    12
 71
     2
 72
     2
 73
     0
 90
        0
 40
-0.6
 41
-30.0
 62
     5
 63
     7
 74
     1
 91
        4
 64
     7
 65
   257
 75
     1
175
     1
 42
1.0
 92
        8
 66
     7
 43
1.0
 76
     1
 77
     6
 78
     2
 67
     7
 79
     5
170
     0
171
     0
290
     0
174
     0
 93
        1
 44
50.0
173
     0
291
     1
 45
0.0
1001
ACAD
1000
AcDbSavedByObjectVersion
1070
     0
  0
VISUALSTYLE
  5
944
102
{ACAD_XDICTIONARY
360
1148
102
}
102
{ACAD_REACTORS
330
934
102
}
330
934
100
AcDbVisualStyle
  2

 70
    16
 71
     2
 72
     2
 73
     3
 90
        0
 40
-0.6
 41
-30.0
 62
     5
 63
     8
 74
     1
 91
        4
 64
     7
 65
   257
 75
     1
175
     1
 42
1.0
 92
        8
 66
     8
 43
1.0
 76
     1
 77
     6
 78
     2
 67
     7
 79
     5
170
     0
171
     0
290
     0
174
     0
 93
        1
 44
0.0
173
     0
291
     1
 45
0.0
1001
ACAD
1000
AcDbSavedByObjectVersion
1070
     0
  0
VISUALSTYLE
  5
93D
102
{ACAD_XDICTIONARY
360
113A
102
}
102
{ACAD_REACTORS
330
934
102
}
330
934
100
AcDbVisualStyle
  2

 70
     9
 71
     3
 72
     2
 73
     0
 90
        0
 40
-0.6
 41
-30.0
 62
     5
 63
     7
 74
     2
 91
        2
 64
     7
 65
   257
 75
     1
175
     1
 42
179.0
 92
        8
 66
     7
 43
1.0
 76
     1
 77
     6
 78
     2
 67
     7
 79
     3
170
     0
171
     0
290
     0
174
     0
 93
        1
 44
0.0
173
     0
291
     0
 45
0.0
1001
ACAD
1000
AcDbSavedByObjectVersion
1070
     0
  0
VISUALSTYLE
  5
93F
102
{ACAD_XDICTIONARY
360
113E
102
}
102
{ACAD_REACTORS
330
934
102
}
330
934
100
AcDbVisualStyle
  2

 70
    11
 71
     2
 72
     2
 73
     0
 90
        0
 40
-0.6
 41
-30.0
 62
     5
 63
     7
 74
     1
 91
        4
 64
     7
 65
   257
 75
     1
175
     1
 42
1.0
 92
        8
 66
     7
 43
1.0
 76
     1
 77
     6
 78
     2
 67
     7
 79
     5
170
     0
171
     0
290
     0
174
     0
 93
        1
 44
-50.0
173
     0
291
     1
 45
0.0
1001
ACAD
1000
AcDbSavedByObjectVersion
1070
     0
  0
VISUALSTYLE
  5
947
102
{ACAD_XDICTIONARY
360
114E
102
}
102
{ACAD_REACTORS
330
934
102
}
330
934
100
AcDbVisualStyle
  2

 70
    22
 71
     2
 72
     2
 73
     0
 90
        0
 40
-0.6
 41
-30.0
 62
     5
 63
     7
 74
     1
 91
        4
 64
     7
 65
   257
 75
     1
175
     1
 42
1.0
 92
        8
 66
     7
 43
1.0
 76
     1
 77
     6
 78
     2
 67
     7
 79
     5
170
     0
171
     0
290
     0
174
     0
 93
        1
 44
0.0
173
     0
291
     1
 45
0.0
1001
ACAD
1000
AcDbSavedByObjectVersion
1070
     0
  0
VISUALSTYLE
  5
943
102
{ACAD_XDICTIONARY
360
1146
102
}
102
{ACAD_REACTORS
330
934
102
}
330
934
100
AcDbVisualStyle
  2

 70
    15
 71
     2
 72
     2
 73
     0
 90
        0
 40
-0.6
 41
-30.0
 62
     5
 63
     7
 74
     1
 91
        4
 64
     7
 65
   257
 75
     1
175
     1
 42
1.0
 92
        8
 66
     7
 43
1.0
 76
     1
 77
     6
 78
     2
 67
     7
 79
     5
170
     0
171
     0
290
     0
174
     0
 93
        1
 44
0.0
173
     0
291
     1
 45
0.0
1001
ACAD
1000
AcDbSavedByObjectVersion
1070
     0
  0
VISUALSTYLE
  5
935
102
{ACAD_XDICTIONARY
360
112A
102
}
102
{ACAD_REACTORS
330
934
102
}
330
934
100
AcDbVisualStyle
  2

 70
     0
 71
     2
 72
     1
 73
     1
 90
        2
 40
-0.6
 41
30.0
 62
     5
 63
     7
 74
     0
 91
        4
 64
     7
 65
   257
 75
     1
175
     1
 42
1.0
 92
        8
 66
     7
 43
1.0
 76
     1
 77
     6
 78
     2
 67
     7
 79
     5
170
     0
171
     0
290
     0
174
     0
 93
       13
 44
0.0
173
     0
291
     1
 45
0.0
1001
ACAD
1000
AcDbSavedByObjectVersion
1070
     0
  0
VISUALSTYLE
  5
936
102
{ACAD_XDICTIONARY
360
112C
102
}
102
{ACAD_REACTORS
330
934
102
}
330
934
100
AcDbVisualStyle
  2

 70
     1
 71
     2
 72
     1
 73
     1
 90
        2
 40
-0.6
 41
30.0
 62
     5
 63
     7
 74
     1
 91
        4
 64
     7
 65
   257
 75
     1
175
     1
 42
1.0
 92
        0
 66
   257
 43
1.0
 76
     1
 77
     6
 78
     2
 67
     7
 79
     5
170
     0
171
     0
290
     0
174
     0
 93
       13
 44
0.0
173
     0
291
     1
 45
0.0
1001
ACAD
1000
AcDbSavedByObjectVersion
1070
     0
  0
VISUALSTYLE
  5
937
102
{ACAD_XDICTIONARY
360
112E
102
}
102
{ACAD_REACTORS
330
934
102
}
330
934
100
AcDbVisualStyle
  2

 70
     2
 71
     2
 72
     2
 73
     1
 90
        2
 40
-0.6
 41
30.0
 62
     5
 63
     7
 74
     0
 91
        4
 64
     7
 65
   257
 75
     1
175
     1
 42
1.0
 92
        0
 66
     7
 43
1.0
 76
     1
 77
     6
 78
     2
 67
     7
 79
     5
170
     0
171
     0
290
     0
174
     0
 93
       13
 44
0.0
173
     0
291
     1
 45
0.0
1001
ACAD
1000
AcDbSavedByObjectVersion
1070
     0
  0
VISUALSTYLE
  5
938
102
{ACAD_XDICTIONARY
360
1130
102
}
102
{ACAD_REACTORS
330
934
102
}
330
934
100
AcDbVisualStyle
  2

 70
     3
 71
     2
 72
     2
 73
     1
 90
        2
 40
-0.6
 41
30.0
 62
     5
 63
     7
 74
     1
 91
        4
 64
     7
 65
   257
 75
     1
175
     1
 42
1.0
 92
        0
 66
   257
 43
1.0
 76
     1
 77
     6
 78
     2
 67
     7
 79
     5
170
     0
171
     0
290
     0
174
     0
 93
       13
 44
0.0
173
     0
291
     1
 45
0.0
1001
ACAD
1000
AcDbSavedByObjectVersion
1070
     0
  0
VISUALSTYLE
  5
945
102
{ACAD_XDICTIONARY
360
114A
102
}
102
{ACAD_REACTORS
330
934
102
}
330
934
100
AcDbVisualStyle
  2

 70
    20
 71
     2
 72
     2
 73
     0
 90
        0
 40
-0.6
 41
-30.0
 62
     5
 63
     7
 74
     1
 91
        4
 64
     7
 65
   257
 75
     1
175
     1
 42
1.0
 92
       10
 66
     7
 43
1.0
 76
     1
 77
     6
 78
     2
 67
     7
 79
     5
170
     0
171
     0
290
     0
174
     0
 93
        1
 44
0.0
173
     0
291
     1
 45
0.0
1001
ACAD
1000
AcDbSavedByObjectVersion
1070
     0
  0
VISUALSTYLE
  5
942
102
{ACAD_XDICTIONARY
360
1144
102
}
102
{ACAD_REACTORS
330
934
102
}
330
934
100
AcDbVisualStyle
  2

 70
    14
 71
     2
 72
     2
 73
     0
 90
        0
 40
-0.6
 41
-30.0
 62
     5
 63
     7
 74
     1
 91
        4
 64
     7
 65
   257
 75
     7
175
     7
 42
1.0
 92
        8
 66
     7
 43
1.0
 76
     1
 77
     6
 78
     2
 67
     7
 79
     5
170
     0
171
     0
290
     0
174
     0
 93
        1
 44
0.0
173
     0
291
     1
 45
0.0
1001
ACAD
1000
AcDbSavedByObjectVersion
1070
     0
  0
VISUALSTYLE
  5
946
102
{ACAD_XDICTIONARY
360
114C
102
}
102
{ACAD_REACTORS
330
934
102
}
330
934
100
AcDbVisualStyle
  2

 70
    21
 71
     2
 72
     2
 73
     0
 90
        0
 40
-0.6
 41
-30.0
 62
     5
 63
     7
 74
     1
 91
        4
 64
     7
 65
   257
 75
     1
175
     1
 42
1.0
 92
        9
 66
     7
 43
1.0
 76
     1
 77
     6
 78
     2
 67
     7
 79
     5
170
     0
171
     0
290
     0
174
     0
 93
        1
 44
0.0
173
     0
291
     1
 45
0.0
1001
ACAD
1000
AcDbSavedByObjectVersion
1070
     0
  0
VISUALSTYLE
  5
93E
102
{ACAD_XDICTIONARY
360
113C
102
}
102
{ACAD_REACTORS
330
934
102
}
330
934
100
AcDbVisualStyle
  2

 70
     8
 71
     2
 72
     2
 73
     0
 90
        0
 40
-0.6
 41
-30.0
 62
     5
 63
     7
 74
     1
 91
        0
 64
     7
 65
   257
 75
     1
175
     1
 42
1.0
 92
        8
 66
     8
 43
1.0
 76
     1
 77
     6
 78
     2
 67
     7
 79
     5
170
     0
171
     0
290
     0
174
     0
 93
       13
 44
0.0
173
     0
291
     0
 45
0.0
1001
ACAD
1000
AcDbSavedByObjectVersion
1070
     0
  0
VISUALSTYLE
  5
941
102
{ACAD_XDICTIONARY
360
1142
102
}
102
{ACAD_REACTORS
330
934
102
}
330
934
100
AcDbVisualStyle
  2

 70
    13
 71
     2
 72
     2
 73
     0
 90
        0
 40
-0.6
 41
-30.0
 62
     5
 63
     7
 74
     1
 91
        4
 64
     7
 65
   257
 75
     1
175
     1
 42
1.0
 92
       12
 66
     7
 43
1.0
 76
     1
 77
     6
 78
     2
 67
     7
 79
     5
170
     0
171
     0
290
     0
174
     0
 93
        1
 44
0.0
173
     0
291
     1
 45
0.0
1001
ACAD
1000
AcDbSavedByObjectVersion
1070
     0
  0
DICTIONARYVAR
  5
97C
102
{ACAD_REACTORS
330
39B
102
}
330
39B
100
DictionaryVariables
280
     0
  1
1:1
  0
DICTIONARYVAR
  5
97B
102
{ACAD_REACTORS
330
39B
102
}
330
39B
100
DictionaryVariables
280
     0
  1
STANDARD
  0
DICTIONARYVAR
  5
97A
102
{ACAD_REACTORS
330
39B
102
}
330
39B
100
DictionaryVariables
280
     0
  1
STANDARD
  0
DICTIONARYVAR
  5
97E
102
{ACAD_REACTORS
330
39B
102
}
330
39B
100
DictionaryVariables
280
     0
  1
1
  0
DICTIONARYVAR
  5
97D
102
{ACAD_REACTORS
330
39B
102
}
330
39B
100
DictionaryVariables
280
     0
  1
0
  0
DICTIONARYVAR
  5
39C
102
{ACAD_REACTORS
330
39B
102
}
330
39B
100
DictionaryVariables
280
     0
  1
96
  0
DICTIONARYVAR
  5
1122
102
{ACAD_REACTORS
330
39B
102
}
330
39B
100
DictionaryVariables
280
     0
  1
2
  0
DICTIONARY
  5
1126
330
1E6
100
AcDbDictionary
280
     1
281
     1
  3
ACAD_XREC_ROUNDTRIP
360
1127
  0
DICTIONARY
  5
1128
330
1EA
100
AcDbDictionary
280
     1
281
     1
  3
ACAD_XREC_ROUNDTRIP
360
1129
  0
DICTIONARY
  5
925
330
924
100
AcDbDictionary
280
     1
281
     1
  3
ACAD_XREC_ROUNDTRIP
360
9BC
  3
BUMPTILE
360
927
  3
DIFFUSETILE
360
926
  3
OPACITYTILE
360
92A
  3
REFLECTIONTILE
360
929
  3
REFRACTIONTILE
360
92B
  3
SPECULARTILE
360
928
  0
DICTIONARY
  5
91D
330
91C
100
AcDbDictionary
280
     1
281
     1
  3
ACAD_XREC_ROUNDTRIP
360
9BB
  3
BUMPTILE
360
91F
  3
DIFFUSETILE
360
91E
  3
OPACITYTILE
360
922
  3
REFLECTIONTILE
360
921
  3
REFRACTIONTILE
360
923
  3
SPECULARTILE
360
920
  0
DICTIONARY
  5
92D
330
92C
100
AcDbDictionary
280
     1
281
     1
  3
ACAD_XREC_ROUNDTRIP
360
9BD
  3
BUMPTILE
360
92F
  3
DIFFUSETILE
360
92E
  3
OPACITYTILE
360
932
  3
REFLECTIONTILE
360
931
  3
REFRACTIONTILE
360
933
  3
SPECULARTILE
360
930
  0
DICTIONARY
  5
9B3
330
94A
100
AcDbDictionary
280
     1
281
     1
  3
ACAD_ROUNDTRIP_2008_TABLESTYLE_CELLSTYLEMAP
360
1123
  3
ACAD_XREC_ROUNDTRIP
360
1150
  0
DICTIONARY
  5
1134
330
93A
100
AcDbDictionary
280
     1
281
     1
  3
ACAD_XREC_ROUNDTRIP
360
1135
  0
DICTIONARY
  5
1138
330
93C
100
AcDbDictionary
280
     1
281
     1
  3
ACAD_XREC_ROUNDTRIP
360
1139
  0
DICTIONARY
  5
1136
330
93B
100
AcDbDictionary
280
     1
281
     1
  3
ACAD_XREC_ROUNDTRIP
360
1137
  0
DICTIONARY
  5
1132
330
939
100
AcDbDictionary
280
     1
281
     1
  3
ACAD_XREC_ROUNDTRIP
360
1133
  0
DICTIONARY
  5
1140
330
940
100
AcDbDictionary
280
     1
281
     1
  3
ACAD_XREC_ROUNDTRIP
360
1141
  0
DICTIONARY
  5
1148
330
944
100
AcDbDictionary
280
     1
281
     1
  3
ACAD_XREC_ROUNDTRIP
360
1149
  0
DICTIONARY
  5
113A
330
93D
100
AcDbDictionary
280
     1
281
     1
  3
ACAD_XREC_ROUNDTRIP
360
113B
  0
DICTIONARY
  5
113E
330
93F
100
AcDbDictionary
280
     1
281
     1
  3
ACAD_XREC_ROUNDTRIP
360
113F
  0
DICTIONARY
  5
114E
330
947
100
AcDbDictionary
280
     1
281
     1
  3
ACAD_XREC_ROUNDTRIP
360
114F
  0
DICTIONARY
  5
1146
330
943
100
AcDbDictionary
280
     1
281
     1
  3
ACAD_XREC_ROUNDTRIP
360
1147
  0
DICTIONARY
  5
112A
330
935
100
AcDbDictionary
280
     1
281
     1
  3
ACAD_XREC_ROUNDTRIP
360
112B
  0
DICTIONARY
  5
112C
330
936
100
AcDbDictionary
280
     1
281
     1
  3
ACAD_XREC_ROUNDTRIP
360
112D
  0
DICTIONARY
  5
112E
330
937
100
AcDbDictionary
280
     1
281
     1
  3
ACAD_XREC_ROUNDTRIP
360
112F
  0
DICTIONARY
  5
1130
330
938
100
AcDbDictionary
280
     1
281
     1
  3
ACAD_XREC_ROUNDTRIP
360
1131
  0
DICTIONARY
  5
114A
330
945
100
AcDbDictionary
280
     1
281
     1
  3
ACAD_XREC_ROUNDTRIP
360
114B
  0
DICTIONARY
  5
1144
330
942
100
AcDbDictionary
280
     1
281
     1
  3
ACAD_XREC_ROUNDTRIP
360
1145
  0
DICTIONARY
  5
114C
330
946
100
AcDbDictionary
280
     1
281
     1
  3
ACAD_XREC_ROUNDTRIP
360
114D
  0
DICTIONARY
  5
113C
330
93E
100
AcDbDictionary
280
     1
281
     1
  3
ACAD_XREC_ROUNDTRIP
360
113D
  0
DICTIONARY
  5
1142
330
941
100
AcDbDictionary
280
     1
281
     1
  3
ACAD_XREC_ROUNDTRIP
360
1143
  0
XRECORD
  5
1127
102
{ACAD_REACTORS
330
1126
102
}
330
1126
100
AcDbXrecord
280
     1
102
SHADEPLOT
 70
     0
102
SHADEPLOTRESLEVEL
 70
     2
102
SHADEPLOTCUSTOMDPI
 70
   300
  0
XRECORD
  5
1129
102
{ACAD_REACTORS
330
1128
102
}
330
1128
100
AcDbXrecord
280
     1
102
SHADEPLOT
 70
     0
102
SHADEPLOTRESLEVEL
 70
     2
102
SHADEPLOTCUSTOMDPI
 70
   300
  0
XRECORD
  5
9BC
102
{ACAD_REACTORS
330
925
102
}
330
925
100
AcDbXrecord
280
     1
102
MATERIAL
148
0.0
149
0.0
149
0.0
 93
        0
 94
      127
282
     0
 72
     0
 77
     0
171
     0
175
     0
179
     0
273
     0
  0
XRECORD
  5
927
102
{ACAD_REACTORS
330
925
102
}
330
925
100
AcDbXrecord
280
     1
270
     1
271
     1
  0
XRECORD
  5
926
102
{ACAD_REACTORS
330
925
102
}
330
925
100
AcDbXrecord
280
     1
270
     1
271
     1
  0
XRECORD
  5
92A
102
{ACAD_REACTORS
330
925
102
}
330
925
100
AcDbXrecord
280
     1
270
     1
271
     1
  0
XRECORD
  5
929
102
{ACAD_REACTORS
330
925
102
}
330
925
100
AcDbXrecord
280
     1
270
     1
271
     1
  0
XRECORD
  5
92B
102
{ACAD_REACTORS
330
925
102
}
330
925
100
AcDbXrecord
280
     1
270
     1
271
     1
  0
XRECORD
  5
928
102
{ACAD_REACTORS
330
925
102
}
330
925
100
AcDbXrecord
280
     1
270
     1
271
     1
  0
XRECORD
  5
9BB
102
{ACAD_REACTORS
330
91D
102
}
330
91D
100
AcDbXrecord
280
     1
102
MATERIAL
148
0.0
149
0.0
149
0.0
 93
        0
 94
      127
282
     0
 72
     0
 77
     0
171
     0
175
     0
179
     0
273
     0
  0
XRECORD
  5
91F
102
{ACAD_REACTORS
330
91D
102
}
330
91D
100
AcDbXrecord
280
     1
270
     1
271
     1
  0
XRECORD
  5
91E
102
{ACAD_REACTORS
330
91D
102
}
330
91D
100
AcDbXrecord
280
     1
270
     1
271
     1
  0
XRECORD
  5
922
102
{ACAD_REACTORS
330
91D
102
}
330
91D
100
AcDbXrecord
280
     1
270
     1
271
     1
  0
XRECORD
  5
921
102
{ACAD_REACTORS
330
91D
102
}
330
91D
100
AcDbXrecord
280
     1
270
     1
271
     1
  0
XRECORD
  5
923
102
{ACAD_REACTORS
330
91D
102
}
330
91D
100
AcDbXrecord
280
     1
270
     1
271
     1
  0
XRECORD
  5
920
102
{ACAD_REACTORS
330
91D
102
}
330
91D
100
AcDbXrecord
280
     1
270
     1
271
     1
  0
XRECORD
  5
9BD
102
{ACAD_REACTORS
330
92D
102
}
330
92D
100
AcDbXrecord
280
     1
102
MATERIAL
148
0.0
149
0.0
149
0.0
 93
        0
 94
      127
282
     0
 72
     0
 77
     0
171
     0
175
     0
179
     0
273
     0
  0
XRECORD
  5
92F
102
{ACAD_REACTORS
330
92D
102
}
330
92D
100
AcDbXrecord
280
     1
270
     1
271
     1
  0
XRECORD
  5
92E
102
{ACAD_REACTORS
330
92D
102
}
330
92D
100
AcDbXrecord
280
     1
270
     1
271
     1
  0
XRECORD
  5
932
102
{ACAD_REACTORS
330
92D
102
}
330
92D
100
AcDbXrecord
280
     1
270
     1
271
     1
  0
XRECORD
  5
931
102
{ACAD_REACTORS
330
92D
102
}
330
92D
100
AcDbXrecord
280
     1
270
     1
271
     1
  0
XRECORD
  5
933
102
{ACAD_REACTORS
330
92D
102
}
330
92D
100
AcDbXrecord
280
     1
270
     1
271
     1
  0
XRECORD
  5
930
102
{ACAD_REACTORS
330
92D
102
}
330
92D
100
AcDbXrecord
280
     1
270
     1
271
     1
  0
CELLSTYLEMAP
  5
1123
102
{ACAD_REACTORS
330
9B3
102
}
330
9B3
100
AcDbCellStyleMap
 90
        3
300
CELLSTYLE
  1
TABLEFORMAT_BEGIN
 90
        5
170
     1
 91
        0
 92
    32768
 62
   257
 93
        1
300
CONTENTFORMAT
  1
CONTENTFORMAT_BEGIN
 90
        0
 91
        0
 92
      512
 93
        0
300

 40
0.0
140
1.0
 94
        5
 62
     0
340
1DA
144
0.25
309
CONTENTFORMAT_END
171
     1
301
MARGIN
  1
CELLMARGIN_BEGIN
 40
0.06
 40
0.06
 40
0.06
 40
0.06
 40
0.18
 40
0.18
309
CELLMARGIN_END
 94
        6
 95
        1
302
GRIDFORMAT
  1
GRIDFORMAT_BEGIN
 90
        0
 91
        1
 62
     0
 92
       -2
340
0
 93
        0
 40
0.045
309
GRIDFORMAT_END
 95
        2
302
GRIDFORMAT
  1
GRIDFORMAT_BEGIN
 90
        0
 91
        1
 62
     0
 92
       -2
340
0
 93
        0
 40
0.045
309
GRIDFORMAT_END
 95
        4
302
GRIDFORMAT
  1
GRIDFORMAT_BEGIN
 90
        0
 91
        1
 62
     0
 92
       -2
340
0
 93
        0
 40
0.045
309
GRIDFORMAT_END
 95
        8
302
GRIDFORMAT
  1
GRIDFORMAT_BEGIN
 90
        0
 91
        1
 62
     0
 92
       -2
340
0
 93
        0
 40
0.045
309
GRIDFORMAT_END
 95
       16
302
GRIDFORMAT
  1
GRIDFORMAT_BEGIN
 90
        0
 91
        1
 62
     0
 92
       -2
340
0
 93
        0
 40
0.045
309
GRIDFORMAT_END
 95
       32
302
GRIDFORMAT
  1
GRIDFORMAT_BEGIN
 90
        0
 91
        1
 62
     0
 92
       -2
340
0
 93
        0
 40
0.045
309
GRIDFORMAT_END
309
TABLEFORMAT_END
  1
CELLSTYLE_BEGIN
 90
        1
 91
        1
300
_TITLE
309
CELLSTYLE_END
300
CELLSTYLE
  1
TABLEFORMAT_BEGIN
 90
        5
170
     1
 91
        0
 92
        0
 62
   257
 93
        1
300
CONTENTFORMAT
  1
CONTENTFORMAT_BEGIN
 90
        0
 91
        0
 92
      512
 93
        0
300

 40
0.0
140
1.0
 94
        5
 62
     0
340
1DA
144
0.18
309
CONTENTFORMAT_END
171
     1
301
MARGIN
  1
CELLMARGIN_BEGIN
 40
0.06
 40
0.06
 40
0.06
 40
0.06
 40
0.18
 40
0.18
309
CELLMARGIN_END
 94
        6
 95
        1
302
GRIDFORMAT
  1
GRIDFORMAT_BEGIN
 90
        0
 91
        1
 62
     0
 92
       -2
340
0
 93
        0
 40
0.045
309
GRIDFORMAT_END
 95
        2
302
GRIDFORMAT
  1
GRIDFORMAT_BEGIN
 90
        0
 91
        1
 62
     0
 92
       -2
340
0
 93
        0
 40
0.045
309
GRIDFORMAT_END
 95
        4
302
GRIDFORMAT
  1
GRIDFORMAT_BEGIN
 90
        0
 91
        1
 62
     0
 92
       -2
340
0
 93
        0
 40
0.045
309
GRIDFORMAT_END
 95
        8
302
GRIDFORMAT
  1
GRIDFORMAT_BEGIN
 90
        0
 91
        1
 62
     0
 92
       -2
340
0
 93
        0
 40
0.045
309
GRIDFORMAT_END
 95
       16
302
GRIDFORMAT
  1
GRIDFORMAT_BEGIN
 90
        0
 91
        1
 62
     0
 92
       -2
340
0
 93
        0
 40
0.045
309
GRIDFORMAT_END
 95
       32
302
GRIDFORMAT
  1
GRIDFORMAT_BEGIN
 90
        0
 91
        1
 62
     0
 92
       -2
340
0
 93
        0
 40
0.045
309
GRIDFORMAT_END
309
TABLEFORMAT_END
  1
CELLSTYLE_BEGIN
 90
        2
 91
        1
300
_HEADER
309
CELLSTYLE_END
300
CELLSTYLE
  1
TABLEFORMAT_BEGIN
 90
        5
170
     1
 91
        0
 92
        0
 62
   257
 93
        1
300
CONTENTFORMAT
  1
CONTENTFORMAT_BEGIN
 90
        0
 91
        0
 92
      512
 93
        0
300

 40
0.0
140
1.0
 94
        2
 62
     0
340
1DA
144
0.18
309
CONTENTFORMAT_END
171
     1
301
MARGIN
  1
CELLMARGIN_BEGIN
 40
0.06
 40
0.06
 40
0.06
 40
0.06
 40
0.18
 40
0.18
309
CELLMARGIN_END
 94
        6
 95
        1
302
GRIDFORMAT
  1
GRIDFORMAT_BEGIN
 90
        0
 91
        1
 62
     0
 92
       -2
340
0
 93
        0
 40
0.045
309
GRIDFORMAT_END
 95
        2
302
GRIDFORMAT
  1
GRIDFORMAT_BEGIN
 90
        0
 91
        1
 62
     0
 92
       -2
340
0
 93
        0
 40
0.045
309
GRIDFORMAT_END
 95
        4
302
GRIDFORMAT
  1
GRIDFORMAT_BEGIN
 90
        0
 91
        1
 62
     0
 92
       -2
340
0
 93
        0
 40
0.045
309
GRIDFORMAT_END
 95
        8
302
GRIDFORMAT
  1
GRIDFORMAT_BEGIN
 90
        0
 91
        1
 62
     0
 92
       -2
340
0
 93
        0
 40
0.045
309
GRIDFORMAT_END
 95
       16
302
GRIDFORMAT
  1
GRIDFORMAT_BEGIN
 90
        0
 91
        1
 62
     0
 92
       -2
340
0
 93
        0
 40
0.045
309
GRIDFORMAT_END
 95
       32
302
GRIDFORMAT
  1
GRIDFORMAT_BEGIN
 90
        0
 91
        1
 62
     0
 92
       -2
340
0
 93
        0
 40
0.045
309
GRIDFORMAT_END
309
TABLEFORMAT_END
  1
CELLSTYLE_BEGIN
 90
        3
 91
        2
300
_DATA
309
CELLSTYLE_END
  0
XRECORD
  5
1150
102
{ACAD_REACTORS
330
9B3
102
}
330
9B3
100
AcDbXrecord
280
     1
102
ACAD_ROUNDTRIP_PRE2007_TABLESTYLE
 90
      512
 91
        0
  1

 92
      512
 93
        0
  2

 94
      512
 95
        0
  3

  0
XRECORD
  5
1135
102
{ACAD_REACTORS
330
1134
102
}
330
1134
100
AcDbXrecord
280
     1
102
RTVSPropertyOp0
 70
     1
102
RTVSPropertyOp1
 70
     1
102
RTVSPropertyOp2
 70
     1
102
RTVSPropertyOp3
 70
     1
102
RTVSPropertyOp4
 70
     1
102
RTVSPropertyOp5
 70
     1
102
RTVSPropertyOp6
 70
     1
102
RTVSPropertyOp7
 70
     1
102
RTVSPropertyOp8
 70
     1
102
RTVSPropertyOp9
 70
     1
102
RTVSPropertyOp10
 70
     1
102
RTVSPropertyOp11
 70
     1
102
RTVSPropertyOp12
 70
     1
102
RTVSPropertyOp13
 70
     1
102
RTVSPropertyOp14
 70
     1
102
RTVSPropertyOp15
 70
     1
102
RTVSPropertyOp16
 70
     1
102
RTVSPropertyOp17
 70
     1
102
RTVSPropertyOp18
 70
     1
102
RTVSPropertyOp19
 70
     1
102
RTVSPropertyOp20
 70
     1
102
RTVSPropertyOp21
 70
     1
102
RTVSPropertyOp22
 70
     1
102
RTVSPropertyOp23
 70
     1
102
RTVSPropertyOp24
 70
     1
102
RTVSPropertyOp25
 70
     1
102
RTVSPropertyOp26
 70
     1
102
RTVSPropertyOp27
 70
     1
  0
XRECORD
  5
1139
102
{ACAD_REACTORS
330
1138
102
}
330
1138
100
AcDbXrecord
280
     1
102
RTVSPropertyOp0
 70
     1
102
RTVSPropertyOp1
 70
     1
102
RTVSPropertyOp2
 70
     1
102
RTVSPropertyOp3
 70
     1
102
RTVSPropertyOp4
 70
     1
102
RTVSPropertyOp5
 70
     1
102
RTVSPropertyOp6
 70
     1
102
RTVSPropertyOp7
 70
     1
102
RTVSPropertyOp8
 70
     1
102
RTVSPropertyOp9
 70
     1
102
RTVSPropertyOp10
 70
     1
102
RTVSPropertyOp11
 70
     1
102
RTVSPropertyOp12
 70
     1
102
RTVSPropertyOp13
 70
     1
102
RTVSPropertyOp14
 70
     1
102
RTVSPropertyOp15
 70
     1
102
RTVSPropertyOp16
 70
     1
102
RTVSPropertyOp17
 70
     1
102
RTVSPropertyOp18
 70
     1
102
RTVSPropertyOp19
 70
     1
102
RTVSPropertyOp20
 70
     1
102
RTVSPropertyOp21
 70
     1
102
RTVSPropertyOp22
 70
     1
102
RTVSPropertyOp23
 70
     1
102
RTVSPropertyOp24
 70
     1
102
RTVSPropertyOp25
 70
     1
102
RTVSPropertyOp26
 70
     1
102
RTVSPropertyOp27
 70
     1
  0
XRECORD
  5
1137
102
{ACAD_REACTORS
330
1136
102
}
330
1136
100
AcDbXrecord
280
     1
102
RTVSPropertyOp0
 70
     1
102
RTVSPropertyOp1
 70
     1
102
RTVSPropertyOp2
 70
     1
102
RTVSPropertyOp3
 70
     1
102
RTVSPropertyOp4
 70
     1
102
RTVSPropertyOp5
 70
     1
102
RTVSPropertyOp6
 70
     1
102
RTVSPropertyOp7
 70
     1
102
RTVSPropertyOp8
 70
     1
102
RTVSPropertyOp9
 70
     1
102
RTVSPropertyOp10
 70
     1
102
RTVSPropertyOp11
 70
     1
102
RTVSPropertyOp12
 70
     1
102
RTVSPropertyOp13
 70
     1
102
RTVSPropertyOp14
 70
     1
102
RTVSPropertyOp15
 70
     1
102
RTVSPropertyOp16
 70
     1
102
RTVSPropertyOp17
 70
     1
102
RTVSPropertyOp18
 70
     1
102
RTVSPropertyOp19
 70
     1
102
RTVSPropertyOp20
 70
     1
102
RTVSPropertyOp21
 70
     1
102
RTVSPropertyOp22
 70
     1
102
RTVSPropertyOp23
 70
     1
102
RTVSPropertyOp24
 70
     1
102
RTVSPropertyOp25
 70
     1
102
RTVSPropertyOp26
 70
     1
102
RTVSPropertyOp27
 70
     1
  0
XRECORD
  5
1133
102
{ACAD_REACTORS
330
1132
102
}
330
1132
100
AcDbXrecord
280
     1
102
RTVSPropertyOp0
 70
     1
102
RTVSPropertyOp1
 70
     1
102
RTVSPropertyOp2
 70
     1
102
RTVSPropertyOp3
 70
     1
102
RTVSPropertyOp4
 70
     1
102
RTVSPropertyOp5
 70
     1
102
RTVSPropertyOp6
 70
     1
102
RTVSPropertyOp7
 70
     1
102
RTVSPropertyOp8
 70
     1
102
RTVSPropertyOp9
 70
     1
102
RTVSPropertyOp10
 70
     1
102
RTVSPropertyOp11
 70
     1
102
RTVSPropertyOp12
 70
     1
102
RTVSPropertyOp13
 70
     1
102
RTVSPropertyOp14
 70
     1
102
RTVSPropertyOp15
 70
     1
102
RTVSPropertyOp16
 70
     1
102
RTVSPropertyOp17
 70
     1
102
RTVSPropertyOp18
 70
     1
102
RTVSPropertyOp19
 70
     1
102
RTVSPropertyOp20
 70
     1
102
RTVSPropertyOp21
 70
     1
102
RTVSPropertyOp22
 70
     1
102
RTVSPropertyOp23
 70
     1
102
RTVSPropertyOp24
 70
     1
102
RTVSPropertyOp25
 70
     1
102
RTVSPropertyOp26
 70
     1
102
RTVSPropertyOp27
 70
     1
  0
XRECORD
  5
1141
102
{ACAD_REACTORS
330
1140
102
}
330
1140
100
AcDbXrecord
280
     1
102
RTVSPropertyOp0
 70
     1
102
RTVSPropertyOp1
 70
     1
102
RTVSPropertyOp2
 70
     1
102
RTVSPropertyOp3
 70
     1
102
RTVSPropertyOp4
 70
     1
102
RTVSPropertyOp5
 70
     1
102
RTVSPropertyOp6
 70
     1
102
RTVSPropertyOp7
 70
     1
102
RTVSPropertyOp8
 70
     1
102
RTVSPropertyOp9
 70
     1
102
RTVSPropertyOp10
 70
     1
102
RTVSPropertyOp11
 70
     1
102
RTVSPropertyOp12
 70
     1
102
RTVSPropertyOp13
 70
     1
102
RTVSPropertyOp14
 70
     1
102
RTVSPropertyOp15
 70
     1
102
RTVSPropertyOp16
 70
     1
102
RTVSPropertyOp17
 70
     1
102
RTVSPropertyOp18
 70
     1
102
RTVSPropertyOp19
 70
     1
102
RTVSPropertyOp20
 70
     1
102
RTVSPropertyOp21
 70
     1
102
RTVSPropertyOp22
 70
     1
102
RTVSPropertyOp23
 70
     1
102
RTVSPropertyOp24
 70
     1
102
RTVSPropertyOp25
 70
     1
102
RTVSPropertyOp26
 70
     1
102
RTVSPropertyOp27
 70
     1
  0
XRECORD
  5
1149
102
{ACAD_REACTORS
330
1148
102
}
330
1148
100
AcDbXrecord
280
     1
102
RTVSPropertyOp0
 70
     1
102
RTVSPropertyOp1
 70
     1
102
RTVSPropertyOp2
 70
     1
102
RTVSPropertyOp3
 70
     1
102
RTVSPropertyOp4
 70
     1
102
RTVSPropertyOp5
 70
     1
102
RTVSPropertyOp6
 70
     1
102
RTVSPropertyOp7
 70
     1
102
RTVSPropertyOp8
 70
     1
102
RTVSPropertyOp9
 70
     1
102
RTVSPropertyOp10
 70
     1
102
RTVSPropertyOp11
 70
     1
102
RTVSPropertyOp12
 70
     1
102
RTVSPropertyOp13
 70
     1
102
RTVSPropertyOp14
 70
     1
102
RTVSPropertyOp15
 70
     1
102
RTVSPropertyOp16
 70
     1
102
RTVSPropertyOp17
 70
     1
102
RTVSPropertyOp18
 70
     1
102
RTVSPropertyOp19
 70
     1
102
RTVSPropertyOp20
 70
     1
102
RTVSPropertyOp21
 70
     1
102
RTVSPropertyOp22
 70
     1
102
RTVSPropertyOp23
 70
     1
102
RTVSPropertyOp24
 70
     1
102
RTVSPropertyOp25
 70
     1
102
RTVSPropertyOp26
 70
     1
102
RTVSPropertyOp27
 70
     1
  0
XRECORD
  5
113B
102
{ACAD_REACTORS
330
113A
102
}
330
113A
100
AcDbXrecord
280
     1
102
RTVSPropertyOp0
 70
     1
102
RTVSPropertyOp1
 70
     1
102
RTVSPropertyOp2
 70
     1
102
RTVSPropertyOp3
 70
     1
102
RTVSPropertyOp4
 70
     1
102
RTVSPropertyOp5
 70
     1
102
RTVSPropertyOp6
 70
     1
102
RTVSPropertyOp7
 70
     1
102
RTVSPropertyOp8
 70
     1
102
RTVSPropertyOp9
 70
     1
102
RTVSPropertyOp10
 70
     1
102
RTVSPropertyOp11
 70
     1
102
RTVSPropertyOp12
 70
     1
102
RTVSPropertyOp13
 70
     1
102
RTVSPropertyOp14
 70
     1
102
RTVSPropertyOp15
 70
     1
102
RTVSPropertyOp16
 70
     1
102
RTVSPropertyOp17
 70
     1
102
RTVSPropertyOp18
 70
     1
102
RTVSPropertyOp19
 70
     1
102
RTVSPropertyOp20
 70
     1
102
RTVSPropertyOp21
 70
     1
102
RTVSPropertyOp22
 70
     1
102
RTVSPropertyOp23
 70
     1
102
RTVSPropertyOp24
 70
     1
102
RTVSPropertyOp25
 70
     1
102
RTVSPropertyOp26
 70
     1
102
RTVSPropertyOp27
 70
     1
  0
XRECORD
  5
113F
102
{ACAD_REACTORS
330
113E
102
}
330
113E
100
AcDbXrecord
280
     1
102
RTVSPropertyOp0
 70
     1
102
RTVSPropertyOp1
 70
     1
102
RTVSPropertyOp2
 70
     1
102
RTVSPropertyOp3
 70
     1
102
RTVSPropertyOp4
 70
     1
102
RTVSPropertyOp5
 70
     1
102
RTVSPropertyOp6
 70
     1
102
RTVSPropertyOp7
 70
     1
102
RTVSPropertyOp8
 70
     1
102
RTVSPropertyOp9
 70
     1
102
RTVSPropertyOp10
 70
     1
102
RTVSPropertyOp11
 70
     1
102
RTVSPropertyOp12
 70
     1
102
RTVSPropertyOp13
 70
     1
102
RTVSPropertyOp14
 70
     1
102
RTVSPropertyOp15
 70
     1
102
RTVSPropertyOp16
 70
     1
102
RTVSPropertyOp17
 70
     1
102
RTVSPropertyOp18
 70
     1
102
RTVSPropertyOp19
 70
     1
102
RTVSPropertyOp20
 70
     1
102
RTVSPropertyOp21
 70
     1
102
RTVSPropertyOp22
 70
     1
102
RTVSPropertyOp23
 70
     1
102
RTVSPropertyOp24
 70
     1
102
RTVSPropertyOp25
 70
     1
102
RTVSPropertyOp26
 70
     1
102
RTVSPropertyOp27
 70
     1
  0
XRECORD
  5
114F
102
{ACAD_REACTORS
330
114E
102
}
330
114E
100
AcDbXrecord
280
     1
102
RTVSPropertyOp0
 70
     0
102
RTVSPropertyOp1
 70
     0
102
RTVSPropertyOp2
 70
     0
102
RTVSPropertyOp3
 70
     0
102
RTVSPropertyOp4
 70
     0
102
RTVSPropertyOp5
 70
     0
102
RTVSPropertyOp6
 70
     0
102
RTVSPropertyOp7
 70
     0
102
RTVSPropertyOp8
 70
     0
102
RTVSPropertyOp9
 70
     0
102
RTVSPropertyOp10
 70
     0
102
RTVSPropertyOp11
 70
     0
102
RTVSPropertyOp12
 70
     0
102
RTVSPropertyOp13
 70
     0
102
RTVSPropertyOp14
 70
     2
102
RTVSPropertyOp15
 70
     0
102
RTVSPropertyOp16
 70
     0
102
RTVSPropertyOp17
 70
     0
102
RTVSPropertyOp18
 70
     0
102
RTVSPropertyOp19
 70
     0
102
RTVSPropertyOp20
 70
     0
102
RTVSPropertyOp21
 70
     0
102
RTVSPropertyOp22
 70
     0
102
RTVSPropertyOp23
 70
     0
102
RTVSPropertyOp24
 70
     0
102
RTVSPropertyOp25
 70
     0
102
RTVSPropertyOp26
 70
     0
102
RTVSPropertyOp27
 70
     0
  0
XRECORD
  5
1147
102
{ACAD_REACTORS
330
1146
102
}
330
1146
100
AcDbXrecord
280
     1
102
RTVSPropertyOp0
 70
     1
102
RTVSPropertyOp1
 70
     1
102
RTVSPropertyOp2
 70
     1
102
RTVSPropertyOp3
 70
     1
102
RTVSPropertyOp4
 70
     1
102
RTVSPropertyOp5
 70
     1
102
RTVSPropertyOp6
 70
     1
102
RTVSPropertyOp7
 70
     1
102
RTVSPropertyOp8
 70
     1
102
RTVSPropertyOp9
 70
     1
102
RTVSPropertyOp10
 70
     1
102
RTVSPropertyOp11
 70
     1
102
RTVSPropertyOp12
 70
     1
102
RTVSPropertyOp13
 70
     1
102
RTVSPropertyOp14
 70
     1
102
RTVSPropertyOp15
 70
     1
102
RTVSPropertyOp16
 70
     1
102
RTVSPropertyOp17
 70
     1
102
RTVSPropertyOp18
 70
     1
102
RTVSPropertyOp19
 70
     1
102
RTVSPropertyOp20
 70
     1
102
RTVSPropertyOp21
 70
     1
102
RTVSPropertyOp22
 70
     1
102
RTVSPropertyOp23
 70
     1
102
RTVSPropertyOp24
 70
     1
102
RTVSPropertyOp25
 70
     1
102
RTVSPropertyOp26
 70
     1
102
RTVSPropertyOp27
 70
     1
  0
XRECORD
  5
112B
102
{ACAD_REACTORS
330
112A
102
}
330
112A
100
AcDbXrecord
280
     1
102
RTVSPropertyOp0
 70
     1
102
RTVSPropertyOp1
 70
     1
102
RTVSPropertyOp2
 70
     1
102
RTVSPropertyOp3
 70
     1
102
RTVSPropertyOp4
 70
     1
102
RTVSPropertyOp5
 70
     1
102
RTVSPropertyOp6
 70
     1
102
RTVSPropertyOp7
 70
     1
102
RTVSPropertyOp8
 70
     1
102
RTVSPropertyOp9
 70
     1
102
RTVSPropertyOp10
 70
     1
102
RTVSPropertyOp11
 70
     1
102
RTVSPropertyOp12
 70
     1
102
RTVSPropertyOp13
 70
     1
102
RTVSPropertyOp14
 70
     1
102
RTVSPropertyOp15
 70
     1
102
RTVSPropertyOp16
 70
     1
102
RTVSPropertyOp17
 70
     1
102
RTVSPropertyOp18
 70
     1
102
RTVSPropertyOp19
 70
     1
102
RTVSPropertyOp20
 70
     1
102
RTVSPropertyOp21
 70
     1
102
RTVSPropertyOp22
 70
     1
102
RTVSPropertyOp23
 70
     1
102
RTVSPropertyOp24
 70
     1
102
RTVSPropertyOp25
 70
     1
102
RTVSPropertyOp26
 70
     1
102
RTVSPropertyOp27
 70
     1
  0
XRECORD
  5
112D
102
{ACAD_REACTORS
330
112C
102
}
330
112C
100
AcDbXrecord
280
     1
102
RTVSPropertyOp0
 70
     1
102
RTVSPropertyOp1
 70
     1
102
RTVSPropertyOp2
 70
     1
102
RTVSPropertyOp3
 70
     1
102
RTVSPropertyOp4
 70
     1
102
RTVSPropertyOp5
 70
     1
102
RTVSPropertyOp6
 70
     1
102
RTVSPropertyOp7
 70
     1
102
RTVSPropertyOp8
 70
     1
102
RTVSPropertyOp9
 70
     1
102
RTVSPropertyOp10
 70
     1
102
RTVSPropertyOp11
 70
     1
102
RTVSPropertyOp12
 70
     1
102
RTVSPropertyOp13
 70
     1
102
RTVSPropertyOp14
 70
     1
102
RTVSPropertyOp15
 70
     1
102
RTVSPropertyOp16
 70
     1
102
RTVSPropertyOp17
 70
     1
102
RTVSPropertyOp18
 70
     1
102
RTVSPropertyOp19
 70
     1
102
RTVSPropertyOp20
 70
     1
102
RTVSPropertyOp21
 70
     1
102
RTVSPropertyOp22
 70
     1
102
RTVSPropertyOp23
 70
     1
102
RTVSPropertyOp24
 70
     1
102
RTVSPropertyOp25
 70
     1
102
RTVSPropertyOp26
 70
     1
102
RTVSPropertyOp27
 70
     1
  0
XRECORD
  5
112F
102
{ACAD_REACTORS
330
112E
102
}
330
112E
100
AcDbXrecord
280
     1
102
RTVSPropertyOp0
 70
     1
102
RTVSPropertyOp1
 70
     1
102
RTVSPropertyOp2
 70
     1
102
RTVSPropertyOp3
 70
     1
102
RTVSPropertyOp4
 70
     1
102
RTVSPropertyOp5
 70
     1
102
RTVSPropertyOp6
 70
     1
102
RTVSPropertyOp7
 70
     1
102
RTVSPropertyOp8
 70
     1
102
RTVSPropertyOp9
 70
     1
102
RTVSPropertyOp10
 70
     1
102
RTVSPropertyOp11
 70
     1
102
RTVSPropertyOp12
 70
     1
102
RTVSPropertyOp13
 70
     1
102
RTVSPropertyOp14
 70
     1
102
RTVSPropertyOp15
 70
     1
102
RTVSPropertyOp16
 70
     1
102
RTVSPropertyOp17
 70
     1
102
RTVSPropertyOp18
 70
     1
102
RTVSPropertyOp19
 70
     1
102
RTVSPropertyOp20
 70
     1
102
RTVSPropertyOp21
 70
     1
102
RTVSPropertyOp22
 70
     1
102
RTVSPropertyOp23
 70
     1
102
RTVSPropertyOp24
 70
     1
102
RTVSPropertyOp25
 70
     1
102
RTVSPropertyOp26
 70
     1
102
RTVSPropertyOp27
 70
     1
  0
XRECORD
  5
1131
102
{ACAD_REACTORS
330
1130
102
}
330
1130
100
AcDbXrecord
280
     1
102
RTVSPropertyOp0
 70
     1
102
RTVSPropertyOp1
 70
     1
102
RTVSPropertyOp2
 70
     1
102
RTVSPropertyOp3
 70
     1
102
RTVSPropertyOp4
 70
     1
102
RTVSPropertyOp5
 70
     1
102
RTVSPropertyOp6
 70
     1
102
RTVSPropertyOp7
 70
     1
102
RTVSPropertyOp8
 70
     1
102
RTVSPropertyOp9
 70
     1
102
RTVSPropertyOp10
 70
     1
102
RTVSPropertyOp11
 70
     1
102
RTVSPropertyOp12
 70
     1
102
RTVSPropertyOp13
 70
     1
102
RTVSPropertyOp14
 70
     1
102
RTVSPropertyOp15
 70
     1
102
RTVSPropertyOp16
 70
     1
102
RTVSPropertyOp17
 70
     1
102
RTVSPropertyOp18
 70
     1
102
RTVSPropertyOp19
 70
     1
102
RTVSPropertyOp20
 70
     1
102
RTVSPropertyOp21
 70
     1
102
RTVSPropertyOp22
 70
     1
102
RTVSPropertyOp23
 70
     1
102
RTVSPropertyOp24
 70
     1
102
RTVSPropertyOp25
 70
     1
102
RTVSPropertyOp26
 70
     1
102
RTVSPropertyOp27
 70
     1
  0
XRECORD
  5
114B
102
{ACAD_REACTORS
330
114A
102
}
330
114A
100
AcDbXrecord
280
     1
102
RTVSPropertyOp0
 70
     0
102
RTVSPropertyOp1
 70
     0
102
RTVSPropertyOp2
 70
     0
102
RTVSPropertyOp3
 70
     0
102
RTVSPropertyOp4
 70
     0
102
RTVSPropertyOp5
 70
     0
102
RTVSPropertyOp6
 70
     0
102
RTVSPropertyOp7
 70
     0
102
RTVSPropertyOp8
 70
     0
102
RTVSPropertyOp9
 70
     0
102
RTVSPropertyOp10
 70
     0
102
RTVSPropertyOp11
 70
     0
102
RTVSPropertyOp12
 70
     0
102
RTVSPropertyOp13
 70
     0
102
RTVSPropertyOp14
 70
     2
102
RTVSPropertyOp15
 70
     0
102
RTVSPropertyOp16
 70
     0
102
RTVSPropertyOp17
 70
     0
102
RTVSPropertyOp18
 70
     0
102
RTVSPropertyOp19
 70
     0
102
RTVSPropertyOp20
 70
     0
102
RTVSPropertyOp21
 70
     0
102
RTVSPropertyOp22
 70
     0
102
RTVSPropertyOp23
 70
     0
102
RTVSPropertyOp24
 70
     0
102
RTVSPropertyOp25
 70
     0
102
RTVSPropertyOp26
 70
     0
102
RTVSPropertyOp27
 70
     0
  0
XRECORD
  5
1145
102
{ACAD_REACTORS
330
1144
102
}
330
1144
100
AcDbXrecord
280
     1
102
RTVSPropertyOp0
 70
     1
102
RTVSPropertyOp1
 70
     1
102
RTVSPropertyOp2
 70
     1
102
RTVSPropertyOp3
 70
     1
102
RTVSPropertyOp4
 70
     1
102
RTVSPropertyOp5
 70
     1
102
RTVSPropertyOp6
 70
     1
102
RTVSPropertyOp7
 70
     1
102
RTVSPropertyOp8
 70
     1
102
RTVSPropertyOp9
 70
     1
102
RTVSPropertyOp10
 70
     1
102
RTVSPropertyOp11
 70
     1
102
RTVSPropertyOp12
 70
     1
102
RTVSPropertyOp13
 70
     1
102
RTVSPropertyOp14
 70
     1
102
RTVSPropertyOp15
 70
     1
102
RTVSPropertyOp16
 70
     1
102
RTVSPropertyOp17
 70
     1
102
RTVSPropertyOp18
 70
     1
102
RTVSPropertyOp19
 70
     1
102
RTVSPropertyOp20
 70
     1
102
RTVSPropertyOp21
 70
     1
102
RTVSPropertyOp22
 70
     1
102
RTVSPropertyOp23
 70
     1
102
RTVSPropertyOp24
 70
     1
102
RTVSPropertyOp25
 70
     1
102
RTVSPropertyOp26
 70
     1
102
RTVSPropertyOp27
 70
     1
  0
XRECORD
  5
114D
102
{ACAD_REACTORS
330
114C
102
}
330
114C
100
AcDbXrecord
280
     1
102
RTVSPropertyOp0
 70
     0
102
RTVSPropertyOp1
 70
     0
102
RTVSPropertyOp2
 70
     0
102
RTVSPropertyOp3
 70
     0
102
RTVSPropertyOp4
 70
     0
102
RTVSPropertyOp5
 70
     0
102
RTVSPropertyOp6
 70
     0
102
RTVSPropertyOp7
 70
     0
102
RTVSPropertyOp8
 70
     0
102
RTVSPropertyOp9
 70
     0
102
RTVSPropertyOp10
 70
     0
102
RTVSPropertyOp11
 70
     0
102
RTVSPropertyOp12
 70
     0
102
RTVSPropertyOp13
 70
     0
102
RTVSPropertyOp14
 70
     2
102
RTVSPropertyOp15
 70
     0
102
RTVSPropertyOp16
 70
     0
102
RTVSPropertyOp17
 70
     0
102
RTVSPropertyOp18
 70
     0
102
RTVSPropertyOp19
 70
     0
102
RTVSPropertyOp20
 70
     0
102
RTVSPropertyOp21
 70
     0
102
RTVSPropertyOp22
 70
     0
102
RTVSPropertyOp23
 70
     0
102
RTVSPropertyOp24
 70
     0
102
RTVSPropertyOp25
 70
     0
102
RTVSPropertyOp26
 70
     0
102
RTVSPropertyOp27
 70
     0
  0
XRECORD
  5
113D
102
{ACAD_REACTORS
330
113C
102
}
330
113C
100
AcDbXrecord
280
     1
102
RTVSPropertyOp0
 70
     1
102
RTVSPropertyOp1
 70
     1
102
RTVSPropertyOp2
 70
     1
102
RTVSPropertyOp3
 70
     1
102
RTVSPropertyOp4
 70
     1
102
RTVSPropertyOp5
 70
     1
102
RTVSPropertyOp6
 70
     1
102
RTVSPropertyOp7
 70
     1
102
RTVSPropertyOp8
 70
     1
102
RTVSPropertyOp9
 70
     1
102
RTVSPropertyOp10
 70
     1
102
RTVSPropertyOp11
 70
     1
102
RTVSPropertyOp12
 70
     1
102
RTVSPropertyOp13
 70
     1
102
RTVSPropertyOp14
 70
     1
102
RTVSPropertyOp15
 70
     1
102
RTVSPropertyOp16
 70
     1
102
RTVSPropertyOp17
 70
     1
102
RTVSPropertyOp18
 70
     1
102
RTVSPropertyOp19
 70
     1
102
RTVSPropertyOp20
 70
     1
102
RTVSPropertyOp21
 70
     1
102
RTVSPropertyOp22
 70
     1
102
RTVSPropertyOp23
 70
     1
102
RTVSPropertyOp24
 70
     1
102
RTVSPropertyOp25
 70
     1
102
RTVSPropertyOp26
 70
     1
102
RTVSPropertyOp27
 70
     1
  0
XRECORD
  5
1143
102
{ACAD_REACTORS
330
1142
102
}
330
1142
100
AcDbXrecord
280
     1
102
RTVSPropertyOp0
 70
     1
102
RTVSPropertyOp1
 70
     1
102
RTVSPropertyOp2
 70
     1
102
RTVSPropertyOp3
 70
     1
102
RTVSPropertyOp4
 70
     1
102
RTVSPropertyOp5
 70
     1
102
RTVSPropertyOp6
 70
     1
102
RTVSPropertyOp7
 70
     1
102
RTVSPropertyOp8
 70
     1
102
RTVSPropertyOp9
 70
     1
102
RTVSPropertyOp10
 70
     1
102
RTVSPropertyOp11
 70
     1
102
RTVSPropertyOp12
 70
     1
102
RTVSPropertyOp13
 70
     1
102
RTVSPropertyOp14
 70
     1
102
RTVSPropertyOp15
 70
     1
102
RTVSPropertyOp16
 70
     1
102
RTVSPropertyOp17
 70
     1
102
RTVSPropertyOp18
 70
     1
102
RTVSPropertyOp19
 70
     1
102
RTVSPropertyOp20
 70
     1
102
RTVSPropertyOp21
 70
     1
102
RTVSPropertyOp22
 70
     1
102
RTVSPropertyOp23
 70
     1
102
RTVSPropertyOp24
 70
     1
102
RTVSPropertyOp25
 70
     1
102
RTVSPropertyOp26
 70
     1
102
RTVSPropertyOp27
 70
     1
  0
ENDSEC
  0
EOF
