  0
SECTION
  2
HEADER
  9
$ACADVER
  1
AC1015
  9
$ACADMAINTVER
 70
     6
  9
$DWGCODEPAGE
  3
ANSI_1252
  9
$INSBASE
 10
0.0
 20
0.0
 30
0.0
  9
$EXTMIN
 10
738.234958262077
 20
166.5011005954278
 30
0.0
  9
$EXTMAX
 10
1253.75625
 20
1000.051962037943
 30
0.0
  9
$LIMMIN
 10
0.0
 20
0.0
  9
$LIMMAX
 10
12.0
 20
9.0
  9
$ORTHOMODE
 70
     1
  9
$REGENMODE
 70
     1
  9
$FILLMODE
 70
     1
  9
$QTEXTMODE
 70
     0
  9
$MIRRTEXT
 70
     1
  9
$LTSCALE
 40
1.0
  9
$ATTMODE
 70
     1
  9
$TEXTSIZE
 40
0.0
  9
$TRACEWID
 40
0.05
  9
$TEXTSTYLE
  7
STANDARD
  9
$CLAYER
  8
0
  9
$CELTYPE
  6
CONTINUOUS
  9
$CECOLOR
 62
   256
  9
$CELTSCALE
 40
1.0
  9
$DISPSILH
 70
     0
  9
$DIMSCALE
 40
1.0
  9
$DIMASZ
 40
0.18
  9
$DIMEXO
 40
0.0625
  9
$DIMDLI
 40
0.38
  9
$DIMRND
 40
0.0
  9
$DIMDLE
 40
0.0
  9
$DIMEXE
 40
0.18
  9
$DIMTP
 40
0.0
  9
$DIMTM
 40
0.0
  9
$DIMTXT
 40
0.18
  9
$DIMCEN
 40
0.09
  9
$DIMTSZ
 40
0.0
  9
$DIMTOL
 70
     0
  9
$DIMLIM
 70
     0
  9
$DIMTIH
 70
     1
  9
$DIMTOH
 70
     1
  9
$DIMSE1
 70
     0
  9
$DIMSE2
 70
     0
  9
$DIMTAD
 70
     0
  9
$DIMZIN
 70
     0
  9
$DIMBLK
  1

  9
$DIMASO
 70
     1
  9
$DIMSHO
 70
     1
  9
$DIMPOST
  1

  9
$DIMAPOST
  1

  9
$DIMALT
 70
     0
  9
$DIMALTD
 70
     2
  9
$DIMALTF
 40
25.4
  9
$DIMLFAC
 40
1.0
  9
$DIMTOFL
 70
     0
  9
$DIMTVP
 40
0.0
  9
$DIMTIX
 70
     0
  9
$DIMSOXD
 70
     0
  9
$DIMSAH
 70
     0
  9
$DIMBLK1
  1

  9
$DIMBLK2
  1

  9
$DIMSTYLE
  2
STANDARD
  9
$DIMCLRD
 70
     0
  9
$DIMCLRE
 70
     0
  9
$DIMCLRT
 70
     0
  9
$DIMTFAC
 40
1.0
  9
$DIMGAP
 40
0.09
  9
$DIMJUST
 70
     0
  9
$DIMSD1
 70
     0
  9
$DIMSD2
 70
     0
  9
$DIMTOLJ
 70
     1
  9
$DIMTZIN
 70
     0
  9
$DIMALTZ
 70
     0
  9
$DIMALTTZ
 70
     0
  9
$DIMUPT
 70
     0
  9
$DIMDEC
 70
     4
  9
$DIMTDEC
 70
     4
  9
$DIMALTU
 70
     2
  9
$DIMALTTD
 70
     2
  9
$DIMTXSTY
  7
STANDARD
  9
$DIMAUNIT
 70
     0
  9
$DIMADEC
 70
     0
  9
$DIMALTRND
 40
0.0
  9
$DIMAZIN
 70
     0
  9
$DIMDSEP
 70
    46
  9
$DIMATFIT
 70
     3
  9
$DIMFRAC
 70
     0
  9
$DIMLDRBLK
  1

  9
$DIMLUNIT
 70
     2
  9
$DIMLWD
 70
    -2
  9
$DIMLWE
 70
    -2
  9
$DIMTMOVE
 70
     0
  9
$LUNITS
 70
     2
  9
$LUPREC
 70
     4
  9
$SKETCHINC
 40
0.1
  9
$FILLETRAD
 40
0.0
  9
$AUNITS
 70
     0
  9
$AUPREC
 70
     0
  9
$MENU
  1
acad
  9
$ELEVATION
 40
0.0
  9
$PELEVATION
 40
0.0
  9
$THICKNESS
 40
0.0
  9
$LIMCHECK
 70
     0
  9
$CHAMFERA
 40
0.0
  9
$CHAMFERB
 40
0.0
  9
$CHAMFERC
 40
0.0
  9
$CHAMFERD
 40
0.0
  9
$SKPOLY
 70
     0
  9
$TDCREATE
 40
2453238.927800926
  9
$TDUCREATE
 40
2453238.886134259
  9
$TDUPDATE
 40
2458340.626148519
  9
$TDUUPDATE
 40
2458340.584481851
  9
$TDINDWG
 40
0.1649689699
  9
$TDUSRTIMER
 40
0.1649649769
  9
$USRTIMER
 70
     1
  9
$ANGBASE
 50
0.0
  9
$ANGDIR
 70
     0
  9
$PDMODE
 70
     0
  9
$PDSIZE
 40
0.0
  9
$PLINEWID
 40
0.0
  9
$SPLFRAME
 70
     0
  9
$SPLINETYPE
 70
     6
  9
$SPLINESEGS
 70
    10
  9
$HANDSEED
  5
1385
  9
$SURFTAB1
 70
     6
  9
$SURFTAB2
 70
     6
  9
$SURFTYPE
 70
     6
  9
$SURFU
 70
     6
  9
$SURFV
 70
     6
  9
$UCSBASE
  2

  9
$UCSNAME
  2

  9
$UCSORG
 10
0.0
 20
0.0
 30
0.0
  9
$UCSXDIR
 10
1.0
 20
0.0
 30
0.0
  9
$UCSYDIR
 10
0.0
 20
1.0
 30
0.0
  9
$UCSORTHOREF
  2

  9
$UCSORTHOVIEW
 70
     0
  9
$UCSORGTOP
 10
0.0
 20
0.0
 30
0.0
  9
$UCSORGBOTTOM
 10
0.0
 20
0.0
 30
0.0
  9
$UCSORGLEFT
 10
0.0
 20
0.0
 30
0.0
  9
$UCSORGRIGHT
 10
0.0
 20
0.0
 30
0.0
  9
$UCSORGFRONT
 10
0.0
 20
0.0
 30
0.0
  9
$UCSORGBACK
 10
0.0
 20
0.0
 30
0.0
  9
$PUCSBASE
  2

  9
$PUCSNAME
  2

  9
$PUCSORG
 10
0.0
 20
0.0
 30
0.0
  9
$PUCSXDIR
 10
1.0
 20
0.0
 30
0.0
  9
$PUCSYDIR
 10
0.0
 20
1.0
 30
0.0
  9
$PUCSORTHOREF
  2

  9
$PUCSORTHOVIEW
 70
     0
  9
$PUCSORGTOP
 10
0.0
 20
0.0
 30
0.0
  9
$PUCSORGBOTTOM
 10
0.0
 20
0.0
 30
0.0
  9
$PUCSORGLEFT
 10
0.0
 20
0.0
 30
0.0
  9
$PUCSORGRIGHT
 10
0.0
 20
0.0
 30
0.0
  9
$PUCSORGFRONT
 10
0.0
 20
0.0
 30
0.0
  9
$PUCSORGBACK
 10
0.0
 20
0.0
 30
0.0
  9
$USERI1
 70
     0
  9
$USERI2
 70
     0
  9
$USERI3
 70
     0
  9
$USERI4
 70
     0
  9
$USERI5
 70
     0
  9
$USERR1
 40
0.0
  9
$USERR2
 40
0.0
  9
$USERR3
 40
0.0
  9
$USERR4
 40
0.0
  9
$USERR5
 40
0.0
  9
$WORLDVIEW
 70
     1
  9
$SHADEDGE
 70
     3
  9
$SHADEDIF
 70
    70
  9
$TILEMODE
 70
     1
  9
$MAXACTVP
 70
    16
  9
$PINSBASE
 10
0.0
 20
0.0
 30
0.0
  9
$PLIMCHECK
 70
     0
  9
$PEXTMIN
 10
-1.000000000000000E+20
 20
-1.000000000000000E+20
 30
-1.000000000000000E+20
  9
$PEXTMAX
 10
-1.000000000000000E+20
 20
-1.000000000000000E+20
 30
-1.000000000000000E+20
  9
$PLIMMIN
 10
0.0
 20
0.0
  9
$PLIMMAX
 10
12.0
 20
9.0
  9
$UNITMODE
 70
     0
  9
$VISRETAIN
 70
     0
  9
$PLINEGEN
 70
     1
  9
$PSLTSCALE
 70
     0
  9
$TREEDEPTH
 70
  3020
  9
$CMLSTYLE
  2
Standard
  9
$CMLJUST
 70
     0
  9
$CMLSCALE
 40
1.0
  9
$PROXYGRAPHICS
 70
     1
  9
$MEASUREMENT
 70
     0
  9
$CELWEIGHT
370
    -1
  9
$ENDCAPS
280
     0
  9
$JOINSTYLE
280
     0
  9
$LWDISPLAY
290
     0
  9
$INSUNITS
 70
     0
  9
$HYPERLINKBASE
  1

  9
$STYLESHEET
  1

  9
$XEDIT
290
     1
  9
$CEPSNTYPE
380
     0
  9
$PSTYLEMODE
290
     1
  9
$FINGERPRINTGUID
  2
{A7188DD5-4314-4268-86B3-E05450767BE0}
  9
$VERSIONGUID
  2
{A765EC7B-F831-499E-9363-F0B431234FD8}
  9
$EXTNAMES
290
     1
  9
$PSVPSCALE
 40
0.0
  9
$OLESTARTUP
290
     0
  0
ENDSEC
  0
SECTION
  2
CLASSES
  0
CLASS
  1
ACDBDICTIONARYWDFLT
  2
AcDbDictionaryWithDefault
  3
AutoCAD 2000
 90
        0
280
     0
281
     0
  0
CLASS
  1
ACDBPLACEHOLDER
  2
AcDbPlaceHolder
  3
AutoCAD 2000
 90
        0
280
     0
281
     0
  0
CLASS
  1
LAYOUT
  2
AcDbLayout
  3
AutoCAD 2000
 90
        0
280
     0
281
     0
  0
CLASS
  1
DICTIONARYVAR
  2
AcDbDictionaryVar
  3
AutoCAD 2000
 90
        0
280
     0
281
     0
  0
CLASS
  1
MATERIAL
  2
AcDbMaterial
  3
ObjectDBX Classes
 90
     1153
280
     0
281
     0
  0
CLASS
  1
VISUALSTYLE
  2
AcDbVisualStyle
  3
ObjectDBX Classes
 90
     4095
280
     0
281
     0
  0
CLASS
  1
TABLESTYLE
  2
AcDbTableStyle
  3
ObjectDBX Classes
 90
     4095
280
     0
281
     0
  0
CLASS
  1
SCALE
  2
AcDbScale
  3
ObjectDBX Classes
 90
     1153
280
     0
281
     0
  0
CLASS
  1
MLEADERSTYLE
  2
AcDbMLeaderStyle
  3
ACDB_MLEADERSTYLE_CLASS
 90
     4095
280
     0
281
     0
  0
CLASS
  1
CELLSTYLEMAP
  2
AcDbCellStyleMap
  3
ObjectDBX Classes
 90
     1152
280
     0
281
     0
  0
CLASS
  1
SORTENTSTABLE
  2
AcDbSortentsTable
  3
AutoCAD 2000
 90
        0
280
     0
281
     0
  0
ENDSEC
  0
SECTION
  2
TABLES
  0
TABLE
  2
VPORT
  5
1D1
330
0
100
AcDbSymbolTable
 70
     2
  0
VPORT
  5
1384
330
1D1
100
AcDbSymbolTableRecord
100
AcDbViewportTableRecord
  2
*Active
 70
     0
 10
0.0
 20
0.0
 11
1.0
 21
1.0
 12
319.7135251973327
 22
-278.6343363476573
 13
0.0
 23
0.0
 14
0.0
 24
0.0
 15
0.0
 25
0.0
 16
0.0
 26
0.0
 36
1.0
 17
814.1719189999999
 27
575.871875
 37
0.0
 40
842.8145492413658
 41
2.127294981640146
 42
50.0
 43
0.025
 44
0.0
 50
0.0
 51
0.0
 71
     0
 72
   100
 73
     1
 74
     0
 75
     0
 76
     0
 77
     0
 78
     0
281
     0
 65
     0
110
0.0
120
0.0
130
0.0
111
1.0
121
0.0
131
0.0
112
0.0
122
1.0
132
0.0
 79
     0
146
0.0
  0
ENDTAB
  0
TABLE
  2
LTYPE
  5
1CE
330
0
100
AcDbSymbolTable
 70
     1
  0
LTYPE
  5
1DC
330
1CE
100
AcDbSymbolTableRecord
100
AcDbLinetypeTableRecord
  2
ByBlock
 70
     0
  3

 72
    65
 73
     0
 40
0.0
  0
LTYPE
  5
1DD
330
1CE
100
AcDbSymbolTableRecord
100
AcDbLinetypeTableRecord
  2
ByLayer
 70
     0
  3

 72
    65
 73
     0
 40
0.0
  0
LTYPE
  5
1DE
330
1CE
100
AcDbSymbolTableRecord
100
AcDbLinetypeTableRecord
  2
CONTINUOUS
 70
     0
  3
Solid line
 72
    65
 73
     0
 40
0.0
  0
ENDTAB
  0
TABLE
  2
LAYER
  5
1CB
330
0
100
AcDbSymbolTable
 70
     2
  0
LAYER
  5
1D9
102
{ACAD_XDICTIONARY
360
972
102
}
330
1CB
100
AcDbSymbolTableRecord
100
AcDbLayerTableRecord
  2
0
 70
     0
 62
     7
  6
CONTINUOUS
370
    -3
390
1D8
  0
LAYER
  5
1F4
102
{ACAD_XDICTIONARY
360
978
102
}
330
1CB
100
AcDbSymbolTableRecord
100
AcDbLayerTableRecord
  2
1
 70
     0
 62
     7
  6
CONTINUOUS
370
    -3
390
1D8
  0
ENDTAB
  0
TABLE
  2
STYLE
  5
1CC
330
0
100
AcDbSymbolTable
 70
     1
  0
STYLE
  5
1DA
330
1CC
100
AcDbSymbolTableRecord
100
AcDbTextStyleTableRecord
  2
STANDARD
 70
     0
 40
0.0
 41
1.0
 50
0.0
 71
     0
 42
0.0
  3
txt
  4

  0
ENDTAB
  0
TABLE
  2
VIEW
  5
1CF
330
0
100
AcDbSymbolTable
 70
     0
  0
ENDTAB
  0
TABLE
  2
UCS
  5
1D0
330
0
100
AcDbSymbolTable
 70
     0
  0
ENDTAB
  0
TABLE
  2
APPID
  5
1D2
330
0
100
AcDbSymbolTable
 70
     3
  0
APPID
  5
1DB
330
1D2
100
AcDbSymbolTableRecord
100
AcDbRegAppTableRecord
  2
ACAD
 70
     0
  0
APPID
  5
9E5
330
1D2
100
AcDbSymbolTableRecord
100
AcDbRegAppTableRecord
  2
ACAD_MLEADERVER
 70
     0
  0
APPID
  5
BBE
330
1D2
100
AcDbSymbolTableRecord
100
AcDbRegAppTableRecord
  2
ACAD_EXEMPT_FROM_CAD_STANDARDS
 70
     0
  0
ENDTAB
  0
TABLE
  2
DIMSTYLE
  5
1D3
330
0
100
AcDbSymbolTable
 70
     1
100
AcDbDimStyleTable
 71
     1
340
1F5
  0
DIMSTYLE
105
1F5
330
1D3
100
AcDbSymbolTableRecord
100
AcDbDimStyleTableRecord
  2
STANDARD
 70
     0
279
     2
340
1DA
  0
ENDTAB
  0
TABLE
  2
BLOCK_RECORD
  5
1CA
330
0
100
AcDbSymbolTable
 70
     0
  0
BLOCK_RECORD
  5
1E7
102
{ACAD_XDICTIONARY
360
B2E
102
}
330
1CA
100
AcDbSymbolTableRecord
100
AcDbBlockTableRecord
  2
*Model_Space
340
1EA
  0
BLOCK_RECORD
  5
1E3
330
1CA
100
AcDbSymbolTableRecord
100
AcDbBlockTableRecord
  2
*Paper_Space
340
1E6
  0
ENDTAB
  0
ENDSEC
  0
SECTION
  2
BLOCKS
  0
BLOCK
  5
1E8
330
1E7
100
AcDbEntity
  8
0
100
AcDbBlockBegin
  2
*Model_Space
 70
     0
 10
0.0
 20
0.0
 30
0.0
  3
*Model_Space
  1

  0
ENDBLK
  5
1E9
330
1E7
100
AcDbEntity
  8
0
100
AcDbBlockEnd
  0
BLOCK
  5
1E4
330
1E3
100
AcDbEntity
 67
     1
  8
0
100
AcDbBlockBegin
  2
*Paper_Space
 70
     0
 10
0.0
 20
0.0
 30
0.0
  3
*Paper_Space
  1

  0
ENDBLK
  5
1E5
330
1E3
100
AcDbEntity
 67
     1
  8
0
100
AcDbBlockEnd
  0
ENDSEC
  0
SECTION
  2
ENTITIES
  0
LINE
  5
655
330
1E7
100
AcDbEntity
  8
1
  6
Continuous
 62
     4
100
AcDbLine
 10
854.6793750000002
 20
485.975294604321
 30
0.0
 11
842.4475606658543
 21
498.2009374882468
 31
0.0
  0
LINE
  5
656
330
1E7
100
AcDbEntity
  8
1
  6
Continuous
 62
     4
100
AcDbLine
 10
854.6793750000002
 20
476.4317609132888
 30
0.0
 11
843.7772703222318
 21
487.3283650337014
 31
0.0
  0
LINE
  5
657
330
1E7
100
AcDbEntity
  8
1
  6
Continuous
 62
     4
100
AcDbLine
 10
771.5025000000003
 20
406.8798505954281
 30
0.0
 11
768.0768749999997
 21
410.3054755954286
 31
0.0
  0
LINE
  5
658
330
1E7
100
AcDbEntity
  8
1
  6
Continuous
 62
     4
100
AcDbLine
 10
781.0484415460186
 20
406.8798505954283
 30
0.0
 11
768.0768749999997
 21
419.8514171414466
 31
0.0
  0
LINE
  5
659
330
1E7
100
AcDbEntity
  8
1
  6
Continuous
 62
     4
100
AcDbLine
 10
796.5839914565382
 20
275.9189841388898
 30
0.0
 11
768.0768749999997
 21
304.426100595428
 31
0.0
  0
LINE
  5
65A
330
1E7
100
AcDbEntity
  8
1
  6
Continuous
 62
     4
100
AcDbLine
 10
794.1470072250417
 20
268.8100268243676
 30
0.0
 11
768.0768749999997
 21
294.8801590494093
 31
0.0
  0
LINE
  5
65B
330
1E7
100
AcDbEntity
  8
1
  6
Continuous
 62
     4
100
AcDbLine
 10
793.7381249999997
 20
259.6736005954283
 30
0.0
 11
768.0768749999997
 21
285.3348505954281
 31
0.0
  0
LINE
  5
65F
330
1E7
100
AcDbEntity
  8
1
  6
Continuous
 62
     4
100
AcDbLine
 10
885.1499999999999
 20
263.7179755954282
 30
0.0
 11
834.0581250000001
 21
314.8098505954283
 31
0.0
  0
LINE
  5
660
330
1E7
100
AcDbEntity
  8
1
  6
Continuous
 62
     4
100
AcDbLine
 10
862.6599233889489
 20
267.1168022064791
 30
0.0
 11
814.9668749999998
 21
314.8098505954283
 31
0.0
  0
LINE
  5
661
330
1E7
100
AcDbEntity
  8
1
  6
Continuous
 62
     4
100
AcDbLine
 10
844.8889781111681
 20
275.3424390302785
 30
0.0
 11
805.4215665460182
 21
314.8098505954283
 31
0.0
  0
LINE
  5
662
330
1E7
100
AcDbEntity
  8
1
  6
Continuous
 62
     4
100
AcDbLine
 10
821.7659419085816
 20
288.9195336868457
 30
0.0
 11
795.8756249999992
 21
314.8098505954283
 31
0.0
  0
LINE
  5
663
330
1E7
100
AcDbEntity
  8
1
  6
Continuous
 62
     4
100
AcDbLine
 10
812.6949265118069
 20
288.4452406296395
 30
0.0
 11
786.3303165460187
 21
314.8098505954283
 31
0.0
  0
LINE
  5
664
330
1E7
100
AcDbEntity
  8
1
  6
Continuous
 62
     4
100
AcDbLine
 10
805.9045372716079
 20
285.6896883238198
 30
0.0
 11
776.7843750000003
 21
314.8098505954283
 31
0.0
  0
LINE
  5
665
330
1E7
100
AcDbEntity
  8
1
  6
Continuous
 62
     4
100
AcDbLine
 10
800.5827705494496
 20
281.4661465919966
 30
0.0
 11
768.0768749999997
 21
313.972042141447
 31
0.0
  0
LINE
  5
666
330
1E7
100
AcDbEntity
  8
1
  6
Continuous
 62
     4
100
AcDbLine
 10
874.9770063517392
 20
264.3456607897066
 30
0.0
 11
824.5128165460185
 21
314.8098505954283
 31
0.0
  0
LINE
  5
667
330
1E7
100
AcDbEntity
  8
1
  6
Continuous
 62
     4
100
AcDbLine
 10
885.1499999999997
 20
273.2639171414463
 30
0.0
 11
861.4905754620489
 21
296.9233416793978
 31
0.0
  0
LINE
  5
668
330
1E7
100
AcDbEntity
  8
1
  6
Continuous
 62
     4
100
AcDbLine
 10
852.3446284403666
 20
421.4939721550612
 30
0.0
 11
837.0932562022911
 21
436.7453443931368
 31
0.0
  0
LINE
  5
669
330
1E7
100
AcDbEntity
  8
1
  6
Continuous
 62
     4
100
AcDbLine
 10
843.9552655973265
 20
420.3380265441201
 30
0.0
 11
831.9861885935932
 21
432.3071035478529
 31
0.0
  0
LINE
  5
66A
330
1E7
100
AcDbEntity
  8
1
  6
Continuous
 62
     4
100
AcDbLine
 10
842.9452041726106
 20
411.8021464228168
 30
0.0
 11
825.4458090842993
 21
429.3015415111283
 31
0.0
  0
LINE
  5
66B
330
1E7
100
AcDbEntity
  8
1
  6
Continuous
 62
     4
100
AcDbLine
 10
828.7762499999995
 20
406.8798505954283
 30
0.0
 11
770.8837499999997
 21
464.7723505954266
 31
0.0
  0
LINE
  5
66C
330
1E7
100
AcDbEntity
  8
1
  6
Continuous
 62
     4
100
AcDbLine
 10
819.2309415460183
 20
406.8798505954281
 30
0.0
 11
770.8837499999997
 21
455.2270421414473
 31
0.0
  0
LINE
  5
66D
330
1E7
100
AcDbEntity
  8
1
  6
Continuous
 62
     4
100
AcDbLine
 10
790.5937499999996
 20
406.8798505954281
 30
0.0
 11
768.0768749999997
 21
429.396725595427
 31
0.0
  0
LINE
  5
66E
330
1E7
100
AcDbEntity
  8
1
  6
Continuous
 62
     4
100
AcDbLine
 10
800.1396915460182
 20
406.8798505954283
 30
0.0
 11
768.2965665460182
 21
438.7229755954281
 31
0.0
  0
LINE
  5
66F
330
1E7
100
AcDbEntity
  8
1
  6
Continuous
 62
     4
100
AcDbLine
 10
809.6850000000001
 20
406.8798505954283
 30
0.0
 11
770.8837499999997
 21
445.6811005954286
 31
0.0
  0
LINE
  5
670
330
1E7
100
AcDbEntity
  8
1
  6
Continuous
 62
     4
100
AcDbLine
 10
838.3221915460179
 20
406.8798505954283
 30
0.0
 11
816.8239410646609
 21
428.3781010767848
 31
0.0
  0
LINE
  5
671
330
1E7
100
AcDbEntity
  8
1
  6
Continuous
 62
     4
100
AcDbLine
 10
855.4846498148473
 20
446.9911423265989
 30
0.0
 11
843.255
 21
459.2207921414468
 31
0.0
  0
LINE
  5
672
330
1E7
100
AcDbEntity
  8
1
  6
Continuous
 62
     4
100
AcDbLine
 10
859.5682714621393
 20
423.8162706793067
 30
0.0
 11
840.8708402839533
 21
442.5137018574932
 31
0.0
  0
LINE
  5
673
330
1E7
100
AcDbEntity
  8
1
  6
Continuous
 62
     4
100
AcDbLine
 10
859.2256501889171
 20
433.7042004065115
 30
0.0
 11
843.255
 21
449.6748505954281
 31
0.0
  0
LINE
  5
674
330
1E7
100
AcDbEntity
  8
1
  6
Continuous
 62
     4
100
AcDbLine
 10
854.6793750000002
 20
457.3417255954281
 30
0.0
 11
843.255
 21
468.7661005954281
 31
0.0
  0
LINE
  5
675
330
1E7
100
AcDbEntity
  8
1
  6
Continuous
 62
     4
100
AcDbLine
 10
854.6793750000002
 20
466.8876671414465
 30
0.0
 11
843.255
 21
478.3120421414468
 31
0.0
  0
LINE
  5
677
330
1E7
100
AcDbEntity
  8
1
  6
Continuous
 62
     4
100
AcDbLine
 10
866.1093749999997
 20
645.0367255954281
 30
0.0
 11
847.9728742449031
 21
626.9002248403316
 31
0.0
  0
LINE
  5
678
330
1E7
100
AcDbEntity
  8
1
  6
Continuous
 62
     4
100
AcDbLine
 10
866.1093749999997
 20
635.4907840494099
 30
0.0
 11
847.1175117504698
 21
616.4989207998795
 31
0.0
  0
LINE
  5
679
330
1E7
100
AcDbEntity
  8
1
  6
Continuous
 62
     4
100
AcDbLine
 10
854.6793750000002
 20
566.7757840494097
 30
0.0
 11
835.1778165460185
 21
547.2742255954281
 31
0.0
  0
LINE
  5
67A
330
1E7
100
AcDbEntity
  8
1
  6
Continuous
 62
     4
100
AcDbLine
 10
810.2981250000002
 20
570.1286005954281
 30
0.0
 11
793.7381249999997
 21
553.5686005954281
 31
0.0
  0
LINE
  5
67B
330
1E7
100
AcDbEntity
  8
1
  6
Continuous
 62
     4
100
AcDbLine
 10
829.3893749999996
 20
570.1286005954281
 30
0.0
 11
806.5350000000004
 21
547.2742255954281
 31
0.0
  0
LINE
  5
67C
330
1E7
100
AcDbEntity
  8
1
  6
Continuous
 62
     4
100
AcDbLine
 10
819.8440665460186
 20
570.1286005954281
 30
0.0
 11
796.9896915460182
 21
547.2742255954281
 31
0.0
  0
LINE
  5
67D
330
1E7
100
AcDbEntity
  8
1
  6
Continuous
 62
     4
100
AcDbLine
 10
854.6793750000002
 20
576.321725595428
 30
0.0
 11
825.6318750000001
 21
547.2742255954281
 31
0.0
  0
LINE
  5
67E
330
1E7
100
AcDbEntity
  8
1
  6
Continuous
 62
     4
100
AcDbLine
 10
854.6793750000002
 20
585.8726590494109
 30
0.0
 11
816.0809415460184
 21
547.2742255954281
 31
0.0
  0
LINE
  5
67F
330
1E7
100
AcDbEntity
  8
1
  6
Continuous
 62
     4
100
AcDbLine
 10
854.6793750000002
 20
495.5242255954281
 30
0.0
 11
840.1513104325697
 21
510.0522901628586
 31
0.0
  0
LINE
  5
680
330
1E7
100
AcDbEntity
  8
1
  6
Continuous
 62
     4
100
AcDbLine
 10
854.6793750000002
 20
505.0701671414458
 30
0.0
 11
818.1846915460187
 21
541.5648505954282
 31
0.0
  0
LINE
  5
681
330
1E7
100
AcDbEntity
  8
1
  6
Continuous
 62
     4
100
AcDbLine
 10
821.9478165460179
 20
518.7104755954281
 30
0.0
 11
799.0934415460182
 21
541.5648505954282
 31
0.0
  0
LINE
  5
682
330
1E7
100
AcDbEntity
  8
1
  6
Continuous
 62
     4
100
AcDbLine
 10
812.4018749999997
 20
518.7104755954281
 30
0.0
 11
793.7381249999997
 21
537.3742255954281
 31
0.0
  0
LINE
  5
683
330
1E7
100
AcDbEntity
  8
1
  6
Continuous
 62
     4
100
AcDbLine
 10
802.8565665460185
 20
518.7104755954281
 30
0.0
 11
793.7381249999997
 21
527.8289171414463
 31
0.0
  0
LINE
  5
685
330
1E7
100
AcDbEntity
  8
1
  6
Continuous
 62
     4
100
AcDbLine
 10
854.6793750000002
 20
524.1614171414457
 30
0.0
 11
837.2759415460192
 21
541.5648505954282
 31
0.0
  0
LINE
  5
686
330
1E7
100
AcDbEntity
  8
1
  6
Continuous
 62
     4
100
AcDbLine
 10
854.6793750000002
 20
514.6154755954281
 30
0.0
 11
827.7300000000003
 21
541.5648505954282
 31
0.0
  0
LINE
  5
687
330
1E7
100
AcDbEntity
  8
1
  6
Continuous
 62
     4
100
AcDbLine
 10
854.6793750000002
 20
547.6845340494102
 30
0.0
 11
854.2690665460185
 21
547.2742255954281
 31
0.0
  0
LINE
  5
688
330
1E7
100
AcDbEntity
  8
1
  6
Continuous
 62
     4
100
AcDbLine
 10
854.6793750000002
 20
557.2304755954283
 30
0.0
 11
844.7231250000001
 21
547.2742255954281
 31
0.0
  0
LINE
  5
68A
330
1E7
100
AcDbEntity
  8
1
  6
Continuous
 62
     4
100
AcDbLine
 10
862.3997915824846
 20
612.6899506318942
 30
0.0
 11
839.4468749999997
 21
589.7370340494096
 31
0.0
  0
LINE
  5
68B
330
1E7
100
AcDbEntity
  8
1
  6
Continuous
 62
     4
100
AcDbLine
 10
854.6793750000002
 20
595.4186005954282
 30
0.0
 11
839.4468749999997
 21
580.1861005954281
 31
0.0
  0
LINE
  5
68C
330
1E7
100
AcDbEntity
  8
1
  6
Continuous
 62
     4
100
AcDbLine
 10
854.6793750000002
 20
585.8726590494097
 30
0.0
 11
841.0500000000002
 21
572.2432840494096
 31
0.0
  0
LINE
  5
68D
330
1E7
100
AcDbEntity
  8
1
  6
Continuous
 62
     4
100
AcDbLine
 10
866.1093749999997
 20
625.9454755954284
 30
0.0
 11
839.4468749999997
 21
599.2829755954284
 31
0.0
  0
LINE
  5
68E
330
1E7
100
AcDbEntity
  8
1
  6
Continuous
 62
     4
100
AcDbLine
 10
825.5081249999998
 20
652.1582921414464
 30
0.0
 11
816.5924999999997
 21
643.2426671414457
 31
0.0
  0
LINE
  5
68F
330
1E7
100
AcDbEntity
  8
1
  6
Continuous
 62
     4
100
AcDbLine
 10
825.5081249999998
 20
642.6123505954278
 30
0.0
 11
823.4943750000002
 21
640.598600595428
 31
0.0
  0
LINE
  5
690
330
1E7
100
AcDbEntity
  8
1
  6
Continuous
 62
     4
100
AcDbLine
 10
825.5081249999998
 20
661.7092255954275
 30
0.0
 11
816.5924999999997
 21
652.7936005954281
 31
0.0
  0
LINE
  5
691
330
1E7
100
AcDbEntity
  8
1
  6
Continuous
 62
     4
100
AcDbLine
 10
865.8056249999997
 20
682.915475595428
 30
0.0
 11
838.1362500000001
 21
655.246100595428
 31
0.0
  0
LINE
  5
692
330
1E7
100
AcDbEntity
  8
1
  6
Continuous
 62
     4
100
AcDbLine
 10
866.1093750000004
 20
673.6739171414467
 30
0.0
 11
838.1362500000001
 21
645.7007921414465
 31
0.0
  0
LINE
  5
693
330
1E7
100
AcDbEntity
  8
1
  6
Continuous
 62
     4
100
AcDbLine
 10
866.1093749999997
 20
654.5826671414462
 30
0.0
 11
848.8282367393363
 21
637.3015288807826
 31
0.0
  0
LINE
  5
694
330
1E7
100
AcDbEntity
  8
1
  6
Continuous
 62
     4
100
AcDbLine
 10
866.1093749999997
 20
664.1279755954282
 30
0.0
 11
842.5799999999997
 21
640.598600595428
 31
0.0
  0
LINE
  5
695
330
1E7
100
AcDbEntity
  8
1
  6
Continuous
 62
     4
100
AcDbLine
 10
848.1787744879902
 20
674.8345666294373
 30
0.0
 11
838.1362500000001
 21
664.7920421414466
 31
0.0
  0
LINE
  5
696
330
1E7
100
AcDbEntity
  8
1
  6
Continuous
 62
     4
100
AcDbLine
 10
825.5081249999998
 20
736.6795421414462
 30
0.0
 11
814.9390665460179
 21
747.2486005954283
 31
0.0
  0
LINE
  5
697
330
1E7
100
AcDbEntity
  8
1
  6
Continuous
 62
     4
100
AcDbLine
 10
821.8590777439015
 20
730.7826478515252
 30
0.0
 11
808.9706250000002
 21
743.6711005954276
 31
0.0
  0
LINE
  5
698
330
1E7
100
AcDbEntity
  8
1
  6
Continuous
 62
     4
100
AcDbLine
 10
869.6025
 20
721.2217255954283
 30
0.0
 11
843.5756249999997
 21
747.2486005954283
 31
0.0
  0
LINE
  5
699
330
1E7
100
AcDbEntity
  8
1
  6
Continuous
 62
     4
100
AcDbLine
 10
869.6024999999997
 20
740.3129755954275
 30
0.0
 11
862.6668749999996
 21
747.2486005954283
 31
0.0
  0
LINE
  5
69A
330
1E7
100
AcDbEntity
  8
1
  6
Continuous
 62
     4
100
AcDbLine
 10
869.6025
 20
730.7670340494097
 30
0.0
 11
853.1209334539816
 21
747.2486005954283
 31
0.0
  0
LINE
  5
69B
330
1E7
100
AcDbEntity
  8
1
  6
Continuous
 62
     4
100
AcDbLine
 10
869.6025
 20
711.6757840494101
 30
0.0
 11
838.1362500000001
 21
743.1420340494091
 31
0.0
  0
LINE
  5
69C
330
1E7
100
AcDbEntity
  8
1
  6
Continuous
 62
     4
100
AcDbLine
 10
849.5841484321166
 20
722.1488271633115
 30
0.0
 11
838.1362500000001
 21
733.5967255954281
 31
0.0
  0
LINE
  5
69D
330
1E7
100
AcDbEntity
  8
1
  6
Continuous
 62
     4
100
AcDbLine
 10
859.4525057412623
 20
806.5473505954283
 30
0.0
 11
850.0710211806921
 21
796.7711005954281
 31
0.0
  0
LINE
  5
69E
330
1E7
100
AcDbEntity
  8
1
  6
Continuous
 62
     4
100
AcDbLine
 10
850.0973114608077
 20
806.5473505954283
 30
0.0
 11
841.7977058889535
 21
797.8985041950561
 31
0.0
  0
LINE
  5
69F
330
1E7
100
AcDbEntity
  8
1
  6
Continuous
 62
     4
100
AcDbLine
 10
840.7421171803528
 20
806.5473505954283
 30
0.0
 11
836.4285289967314
 21
802.0522500377435
 31
0.0
  0
LINE
  5
6A0
330
1E7
100
AcDbEntity
  8
1
  6
Continuous
 62
     4
100
AcDbLine
 10
867.9993750000001
 20
805.7036005954282
 30
0.0
 11
859.4241749999994
 21
796.7711005954281
 31
0.0
  0
LINE
  5
6A1
330
1E7
100
AcDbEntity
  8
1
  6
Continuous
 62
     4
100
AcDbLine
 10
857.9868750000001
 20
834.2604327704473
 30
0.0
 11
841.8564529312286
 21
817.4542255954282
 31
0.0
  0
LINE
  5
6A2
330
1E7
100
AcDbEntity
  8
1
  6
Continuous
 62
     4
100
AcDbLine
 10
856.5193291018241
 20
842.4742255954281
 30
0.0
 11
841.9005852906376
 21
827.2459706416263
 31
0.0
  0
LINE
  5
6A3
330
1E7
100
AcDbEntity
  8
1
  6
Continuous
 62
     4
100
AcDbLine
 10
847.1624753752344
 20
842.4742255954281
 30
0.0
 11
841.6237499999997
 21
836.7045696508034
 31
0.0
  0
LINE
  5
7F4
330
1E7
100
AcDbEntity
  8
1
  6
Continuous
 62
     4
100
AcDbLine
 10
814.6912499999995
 20
500.2042255954282
 30
0.0
 11
814.6912499999995
 21
588.6404755954281
 31
0.0
  0
LINE
  5
7F7
330
1E7
100
AcDbEntity
  8
1
  6
Continuous
 62
     4
100
AcDbLine
 10
738.234958262077
 20
358.7298505954283
 30
0.0
 11
742.4035731326186
 21
358.7298505954283
 31
0.0
  0
LINE
  5
853
330
1E7
100
AcDbEntity
  8
1
  6
Continuous
 62
     4
100
AcDbLine
 10
831.8249999999999
 20
623.9036005954277
 30
0.0
 11
831.8249999999999
 21
767.7236005954283
 31
0.0
  0
LINE
  5
908
330
1E7
100
AcDbEntity
  8
1
  6
Continuous
 62
     4
100
AcDbLine
 10
831.4931250000002
 20
518.7104755954281
 30
0.0
 11
808.6387500000002
 21
541.5648505954282
 31
0.0
  0
LINE
  5
909
330
1E7
100
AcDbEntity
  8
1
  6
Continuous
 62
     4
100
AcDbLine
 10
854.6793750000002
 20
533.5823008376618
 30
0.0
 11
846.6968252422342
 21
541.5648505954282
 31
0.0
  0
LINE
  5
90B
330
1E7
100
AcDbEntity
  8
1
  6
Continuous
 62
     4
100
AcDbLine
 10
793.6141482092095
 20
451.4576723103949
 30
0.0
 11
770.8837499999997
 21
474.188070519605
 31
0.0
  0
LINE
  5
90C
330
1E7
100
AcDbEntity
  8
1
  6
Continuous
 62
     4
100
AcDbLine
 10
793.7381249999997
 20
471.0337096413453
 30
0.0
 11
784.1538590459172
 21
480.6179755954278
 31
0.0
  0
LINE
  5
90D
330
1E7
100
AcDbEntity
  8
1
  6
Continuous
 62
     4
100
AcDbLine
 10
793.7381249999997
 20
461.6179897171688
 30
0.0
 11
774.7381391217405
 21
480.6179755954278
 31
0.0
  0
LINE
  5
910
330
1E7
100
AcDbEntity
  8
1
  6
Continuous
 62
     4
100
AcDbLine
 10
793.7381249999997
 20
250.0588174693028
 30
0.0
 11
770.8837499999997
 21
272.9131924693028
 31
0.0
  0
LINE
  5
911
330
1E7
100
AcDbEntity
  8
1
  6
Continuous
 62
     4
100
AcDbLine
 10
788.0482090835562
 20
236.8417255954279
 30
0.0
 11
770.8837499999997
 21
254.0061846789849
 31
0.0
  0
LINE
  5
912
330
1E7
100
AcDbEntity
  8
1
  6
Continuous
 62
     4
100
AcDbLine
 10
793.7381249999997
 20
240.6971181329664
 30
0.0
 11
770.8837499999997
 21
263.551493132966
 31
0.0
  0
LINE
  5
913
330
1E7
100
AcDbEntity
  8
1
  6
Continuous
 62
     4
100
AcDbLine
 10
778.4334259574311
 20
236.8417255954279
 30
0.0
 11
770.8837499999997
 21
244.3914015528596
 31
0.0
  0
LINE
  5
914
330
1E7
100
AcDbEntity
  8
1
  6
Continuous
 62
     4
100
AcDbLine
 10
858.4203094197665
 20
299.5334797041085
 30
0.0
 11
843.1439385284473
 21
314.8098505954283
 31
0.0
  0
LINE
  5
915
330
1E7
100
AcDbEntity
  8
1
  6
Continuous
 62
     4
100
AcDbLine
 10
885.1499999999997
 20
282.7149175154988
 30
0.0
 11
869.7967509349972
 21
298.0681665805021
 31
0.0
  0
LINE
  5
916
330
1E7
100
AcDbEntity
  8
1
  6
Continuous
 62
     4
100
AcDbLine
 10
885.1499999999997
 20
291.8690068775207
 30
0.0
 11
877.6598855216205
 21
299.3591213559008
 31
0.0
  0
LINE
  5
BC6
330
1E7
100
AcDbEntity
  8
1
  6
Continuous
 62
     4
100
AcDbLine
 10
745.1826439712046
 20
358.7298505954283
 30
0.0
 11
889.6944711220598
 21
358.7298505954283
 31
0.0
  0
LINE
  5
BC7
330
1E7
100
AcDbEntity
  8
1
  6
Continuous
 62
     4
100
AcDbLine
 10
1021.700465144838
 20
358.7298505954283
 30
0.0
 11
1025.869080015381
 21
358.7298505954283
 31
0.0
  0
LINE
  5
BC9
330
1E7
100
AcDbEntity
  8
1
  6
Continuous
 62
     4
100
AcDbLine
 10
909.147984217488
 20
358.7298505954283
 30
0.0
 11
1015.447551451689
 21
358.7298505954283
 31
0.0
  0
LINE
  5
E35
330
1E7
100
AcDbEntity
  8
1
  6
Continuous
 62
     3
100
AcDbLine
 10
1243.704374999996
 20
896.3448505954282
 30
0.0
 11
1243.704374999996
 21
668.937350595428
 31
0.0
  0
LINE
  5
E36
330
1E7
100
AcDbEntity
  8
1
  6
Continuous
 62
     7
100
AcDbLine
 10
930.8643749999996
 20
808.1954755954281
 30
0.0
 11
930.8643749999996
 21
842.4742255954281
 31
0.0
  0
LINE
  5
E37
330
1E7
100
AcDbEntity
  8
1
  6
Continuous
 62
     7
100
AcDbLine
 10
857.9868750000001
 20
820.6323505954275
 30
0.0
 11
857.9868750000001
 21
842.4742255954281
 31
0.0
  0
LINE
  5
E38
330
1E7
100
AcDbEntity
  8
1
  6
Continuous
 62
     7
100
AcDbLine
 10
859.59
 20
820.6323505954275
 30
0.0
 11
859.59
 21
842.4742255954281
 31
0.0
  0
LINE
  5
E39
330
1E7
100
AcDbEntity
  8
1
  6
Continuous
 62
     7
100
AcDbLine
 10
862.9649999999996
 20
820.6323505954275
 30
0.0
 11
862.9649999999996
 21
860.8623505954279
 31
0.0
  0
LINE
  5
E3A
330
1E7
100
AcDbEntity
  8
1
  6
Continuous
 62
     7
100
AcDbLine
 10
841.6237499999997
 20
827.5117255954283
 30
0.0
 11
835.875
 21
821.5267255954282
 31
0.0
  0
LINE
  5
E3C
330
1E7
100
AcDbEntity
  8
1
  6
Continuous
 62
     7
100
AcDbLine
 10
871.8243749999997
 20
476.3654755954282
 30
0.0
 11
871.8243749999997
 21
913.1523505954286
 31
0.0
  0
LINE
  5
E3D
330
1E7
100
AcDbEntity
  8
1
  6
Continuous
 62
     3
100
AcDbLine
 10
1253.75625
 20
358.7298505954283
 30
0.0
 11
1030.732455418349
 21
358.7298505954283
 31
0.0
  0
LINE
  5
E3E
330
1E7
100
AcDbEntity
  8
1
  6
Continuous
 62
     7
100
AcDbLine
 10
770.8837499999997
 20
236.8417255954279
 30
0.0
 11
770.8837499999997
 21
278.7423505954278
 31
0.0
  0
LINE
  5
E3F
330
1E7
100
AcDbEntity
  8
1
  6
Continuous
 62
     7
100
AcDbLine
 10
999.4218749999973
 20
236.8417255954279
 30
0.0
 11
999.4218749999973
 21
480.6179755954278
 31
0.0
  0
LINE
  5
E40
330
1E7
100
AcDbEntity
  8
1
  6
Continuous
 62
     7
100
AcDbLine
 10
793.7381249999997
 20
236.8417255954279
 30
0.0
 11
793.7381249999997
 21
268.262843962761
 31
0.0
  0
LINE
  5
E41
330
1E7
100
AcDbEntity
  8
1
  6
Continuous
 62
     7
100
AcDbLine
 10
976.5731249999996
 20
236.8417255954279
 30
0.0
 11
976.5731249999996
 21
266.3439448071763
 31
0.0
  0
LINE
  5
E42
330
1E7
100
AcDbEntity
  8
1
  6
Continuous
 62
     3
100
AcDbLine
 10
767.9306249999997
 20
269.8154755954281
 30
0.0
 11
767.9306249999997
 21
168.514850595428
 31
0.0
  0
LINE
  5
E43
330
1E7
100
AcDbEntity
  8
1
  6
Continuous
 62
     3
100
AcDbLine
 10
1002.256874999998
 20
166.5011005954278
 30
0.0
 11
1002.256874999998
 21
269.8154755954281
 31
0.0
  0
LINE
  5
E44
330
1E7
100
AcDbEntity
  8
1
  6
Continuous
 62
     3
100
AcDbLine
 10
789.1031249999997
 20
176.5586005954278
 30
0.0
 11
980.6343749999999
 21
176.5586005954278
 31
0.0
  0
LINE
  5
E45
330
1E7
100
AcDbEntity
  8
1
  6
Continuous
 62
     3
100
AcDbLine
 10
768.8306250000001
 20
176.5586005954278
 30
0.0
 11
789.1031249999997
 21
182.1667255954281
 31
0.0
  0
LINE
  5
E46
330
1E7
100
AcDbEntity
  8
1
  6
Continuous
 62
     3
100
AcDbLine
 10
768.8306250000001
 20
176.5586005954278
 30
0.0
 11
789.1031249999997
 21
170.9504755954278
 31
0.0
  0
LINE
  5
E47
330
1E7
100
AcDbEntity
  8
1
  6
Continuous
 62
     3
100
AcDbLine
 10
789.1031249999997
 20
182.1667255954281
 30
0.0
 11
789.1031249999997
 21
170.9504755954278
 31
0.0
  0
LINE
  5
E48
330
1E7
100
AcDbEntity
  8
1
  6
Continuous
 62
     3
100
AcDbLine
 10
789.1031249999997
 20
182.1667255954281
 30
0.0
 11
789.1031249999997
 21
170.9504755954278
 31
0.0
  0
LINE
  5
E49
330
1E7
100
AcDbEntity
  8
1
  6
Continuous
 62
     7
100
AcDbLine
 10
793.7381249999997
 20
236.8417255954279
 30
0.0
 11
770.8837499999997
 21
236.8417255954279
 31
0.0
  0
LINE
  5
E4A
330
1E7
100
AcDbEntity
  8
1
  6
Continuous
 62
     3
100
AcDbLine
 10
1000.906875
 20
176.5586005954278
 30
0.0
 11
980.6343749999999
 21
182.1667255954281
 31
0.0
  0
LINE
  5
E4B
330
1E7
100
AcDbEntity
  8
1
  6
Continuous
 62
     3
100
AcDbLine
 10
1000.906875
 20
176.5586005954278
 30
0.0
 11
980.6343749999999
 21
170.9504755954278
 31
0.0
  0
LINE
  5
E4C
330
1E7
100
AcDbEntity
  8
1
  6
Continuous
 62
     3
100
AcDbLine
 10
980.6343749999999
 20
170.9504755954278
 30
0.0
 11
980.6343749999999
 21
182.1667255954281
 31
0.0
  0
LINE
  5
E4D
330
1E7
100
AcDbEntity
  8
1
  6
Continuous
 62
     3
100
AcDbLine
 10
980.6343749999999
 20
170.9504755954278
 30
0.0
 11
980.6343749999999
 21
182.1667255954281
 31
0.0
  0
LINE
  5
E4E
330
1E7
100
AcDbEntity
  8
1
  6
Continuous
 62
     7
100
AcDbLine
 10
976.5731249999996
 20
236.8417255954279
 30
0.0
 11
999.4218749999973
 21
236.8417255954279
 31
0.0
  0
LINE
  5
E4F
330
1E7
100
AcDbEntity
  8
1
  6
Continuous
 62
     7
100
AcDbLine
 10
793.7381249999997
 20
522.5186005954282
 30
0.0
 11
793.7381249999997
 21
541.5648505954282
 31
0.0
  0
LINE
  5
E50
330
1E7
100
AcDbEntity
  8
1
  6
Continuous
 62
     7
100
AcDbLine
 10
976.5731249999996
 20
522.5186005954282
 30
0.0
 11
976.5731249999996
 21
541.5648505954282
 31
0.0
  0
LINE
  5
E51
330
1E7
100
AcDbEntity
  8
1
  6
Continuous
 62
     7
100
AcDbLine
 10
854.6793750000002
 20
448.3642255954281
 30
0.0
 11
854.6793750000002
 21
541.5648505954282
 31
0.0
  0
LINE
  5
E52
330
1E7
100
AcDbEntity
  8
1
  6
Continuous
 62
     4
100
AcDbLine
 10
885.1499999999999
 20
402.1886005954281
 30
0.0
 11
879.4406249999997
 21
396.4736005954283
 31
0.0
  0
LINE
  5
E54
330
1E7
100
AcDbEntity
  8
1
  6
Continuous
 62
     7
100
AcDbLine
 10
877.6856249999998
 20
299.1723505954282
 30
0.0
 11
875.8652058558572
 21
312.3816729801968
 31
0.0
  0
LINE
  5
E55
330
1E7
100
AcDbEntity
  8
1
  6
Continuous
 62
     7
100
AcDbLine
 10
768.0768749999997
 20
278.7423505954278
 30
0.0
 11
768.0768749999997
 21
438.7229755954281
 31
0.0
  0
LINE
  5
E56
330
1E7
100
AcDbEntity
  8
1
  6
Continuous
 62
     7
100
AcDbLine
 10
858.830625
 20
296.5567255954283
 30
0.0
 11
856.314615513825
 21
314.8098505954283
 31
0.0
  0
LINE
  5
E57
330
1E7
100
AcDbEntity
  8
1
  6
Continuous
 62
     7
100
AcDbLine
 10
856.3146155138252
 20
314.8098505954282
 30
0.0
 11
768.0768749999997
 21
314.8098505954283
 31
0.0
  0
LINE
  5
E58
330
1E7
100
AcDbEntity
  8
1
  6
Continuous
 62
     7
100
AcDbLine
 10
768.0768749999997
 20
278.7423505954278
 30
0.0
 11
770.8837499999997
 21
278.7423505954278
 31
0.0
  0
LINE
  5
E5A
330
1E7
100
AcDbEntity
  8
1
  6
Continuous
 62
     4
100
AcDbLine
 10
885.1499999999999
 20
324.7998505954281
 30
0.0
 11
879.4406249999997
 21
319.0848505954281
 31
0.0
  0
LINE
  5
E5C
330
1E7
100
AcDbEntity
  8
1
  6
Continuous
 62
     4
100
AcDbLine
 10
885.1499999999999
 20
305.4554755954283
 30
0.0
 11
878.6587499999997
 21
298.9642255954282
 31
0.0
  0
LINE
  5
E5D
330
1E7
100
AcDbEntity
  8
1
  6
Continuous
 62
     4
100
AcDbLine
 10
885.1499999999999
 20
315.1248505954281
 30
0.0
 11
876.6618750000001
 21
306.6367255954281
 31
0.0
  0
LINE
  5
E5E
330
1E7
100
AcDbEntity
  8
1
  6
Continuous
 62
     3
100
AcDbLine
 10
876.9093749999997
 20
304.819850595428
 30
0.0
 11
858.0487499999996
 21
302.2267255954282
 31
0.0
  0
LINE
  5
E5F
330
1E7
100
AcDbEntity
  8
1
  6
Continuous
 62
     3
100
AcDbLine
 10
869.6137500000004
 20
298.0417255954282
 30
0.0
 11
864.5343750000003
 21
303.121100595428
 31
0.0
  0
LINE
  5
E60
330
1E7
100
AcDbEntity
  8
1
  6
Continuous
 62
     7
100
AcDbLine
 10
877.6856249999998
 20
299.155475595428
 30
0.0
 11
858.830625
 21
296.5567255954283
 31
0.0
  0
LINE
  5
E61
330
1E7
100
AcDbEntity
  8
1
  6
Continuous
 62
     3
100
AcDbLine
 10
861.1087499999996
 20
296.871725595428
 30
0.0
 11
858.4143749999997
 21
299.5717255954278
 31
0.0
  0
LINE
  5
E62
330
1E7
100
AcDbEntity
  8
1
  6
Continuous
 62
     3
100
AcDbLine
 10
877.6124999999996
 20
299.729225595428
 30
0.0
 11
873.0506249999997
 21
304.2911005954282
 31
0.0
  0
LINE
  5
E63
330
1E7
100
AcDbEntity
  8
1
  6
Continuous
 62
     7
100
AcDbLine
 10
879.4406249999997
 20
315.5129755954283
 30
0.0
 11
875.8652058558572
 21
312.3816729801968
 31
0.0
  0
LINE
  5
E64
330
1E7
100
AcDbEntity
  8
1
  6
Continuous
 62
     4
100
AcDbLine
 10
885.1499999999999
 20
392.5136005954281
 30
0.0
 11
879.4406249999997
 21
386.8042255954281
 31
0.0
  0
LINE
  5
E65
330
1E7
100
AcDbEntity
  8
1
  6
Continuous
 62
     4
100
AcDbLine
 10
885.1499999999999
 20
382.8442255954281
 30
0.0
 11
879.4406249999997
 21
377.1292255954282
 31
0.0
  0
LINE
  5
E66
330
1E7
100
AcDbEntity
  8
1
  6
Continuous
 62
     4
100
AcDbLine
 10
885.1499999999999
 20
373.1692255954283
 30
0.0
 11
879.4406249999997
 21
367.4598505954282
 31
0.0
  0
LINE
  5
E67
330
1E7
100
AcDbEntity
  8
1
  6
Continuous
 62
     4
100
AcDbLine
 10
885.1499999999999
 20
363.4998505954281
 30
0.0
 11
879.4406249999997
 21
357.7848505954283
 31
0.0
  0
LINE
  5
E68
330
1E7
100
AcDbEntity
  8
1
  6
Continuous
 62
     4
100
AcDbLine
 10
885.1499999999999
 20
353.8248505954281
 30
0.0
 11
879.4406249999997
 21
348.1154755954281
 31
0.0
  0
LINE
  5
E69
330
1E7
100
AcDbEntity
  8
1
  6
Continuous
 62
     4
100
AcDbLine
 10
885.1499999999999
 20
344.1554755954281
 30
0.0
 11
879.4406249999997
 21
338.440475595428
 31
0.0
  0
LINE
  5
E6A
330
1E7
100
AcDbEntity
  8
1
  6
Continuous
 62
     4
100
AcDbLine
 10
885.1499999999999
 20
334.4692255954283
 30
0.0
 11
879.4406249999997
 21
328.7598505954281
 31
0.0
  0
LINE
  5
E6B
330
1E7
100
AcDbEntity
  8
1
  6
Continuous
 62
     7
100
AcDbLine
 10
838.4737499999996
 20
518.7104755954281
 30
0.0
 11
797.5462499999996
 21
518.7104755954281
 31
0.0
  0
LINE
  5
E6C
330
1E7
100
AcDbEntity
  8
1
  6
Continuous
 62
     7
100
AcDbLine
 10
843.623693088644
 20
406.8798505954283
 30
0.0
 11
768.0768749999997
 21
406.8798505954283
 31
0.0
  0
LINE
  5
E6D
330
1E7
100
AcDbEntity
  8
1
  6
Continuous
 62
     7
100
AcDbLine
 10
770.8837499999997
 20
438.7229755954281
 30
0.0
 11
770.8837499999997
 21
480.6179755954278
 31
0.0
  0
LINE
  5
E6E
330
1E7
100
AcDbEntity
  8
1
  6
Continuous
 62
     7
100
AcDbLine
 10
793.7381249999997
 20
453.0570422855387
 30
0.0
 11
793.7381249999997
 21
480.6179755954278
 31
0.0
  0
LINE
  5
E6F
330
1E7
100
AcDbEntity
  8
1
  6
Continuous
 62
     7
100
AcDbLine
 10
768.0768749999997
 20
438.7229755954281
 30
0.0
 11
770.8837499999997
 21
438.7229755954281
 31
0.0
  0
LINE
  5
E70
330
1E7
100
AcDbEntity
  8
1
  6
Continuous
 62
     7
100
AcDbLine
 10
793.7381249999997
 20
480.6179755954278
 30
0.0
 11
770.8837499999997
 21
480.6179755954278
 31
0.0
  0
LINE
  5
E71
330
1E7
100
AcDbEntity
  8
1
  6
Continuous
 62
     7
100
AcDbLine
 10
820.8506249999997
 20
506.3692255954276
 30
0.0
 11
820.8506249999997
 21
500.2042255954282
 31
0.0
  0
LINE
  5
E72
330
1E7
100
AcDbEntity
  8
1
  6
Continuous
 62
     7
100
AcDbLine
 10
808.5093749999996
 20
506.3692255954276
 30
0.0
 11
808.5093749999996
 21
500.2042255954282
 31
0.0
  0
LINE
  5
E73
330
1E7
100
AcDbEntity
  8
1
  6
Continuous
 62
     7
100
AcDbLine
 10
808.5093749999996
 20
500.2042255954282
 30
0.0
 11
820.8506249999997
 21
500.2042255954282
 31
0.0
  0
LINE
  5
E74
330
1E7
100
AcDbEntity
  8
1
  6
Continuous
 62
     7
100
AcDbLine
 10
802.3443749999996
 20
506.3692255954276
 30
0.0
 11
827.0324999999996
 21
506.3692255954276
 31
0.0
  0
LINE
  5
E75
330
1E7
100
AcDbEntity
  8
1
  6
Continuous
 62
     7
100
AcDbLine
 10
793.7381249999997
 20
522.5186005954282
 30
0.0
 11
797.5462499999996
 21
518.7104755954281
 31
0.0
  0
LINE
  5
E76
330
1E7
100
AcDbEntity
  8
1
  6
Continuous
 62
     7
100
AcDbLine
 10
808.5093749999996
 20
517.7879755954277
 30
0.0
 11
808.5093749999996
 21
507.2917255954281
 31
0.0
  0
LINE
  5
E77
330
1E7
100
AcDbEntity
  8
1
  6
Continuous
 62
     7
100
AcDbLine
 10
808.5093749999996
 20
518.7104755954281
 30
0.0
 11
808.5093749999996
 21
506.3692255954276
 31
0.0
  0
LINE
  5
E78
330
1E7
100
AcDbEntity
  8
1
  6
Continuous
 62
     7
100
AcDbLine
 10
802.3443749999996
 20
518.7104755954281
 30
0.0
 11
802.3443749999996
 21
506.3692255954276
 31
0.0
  0
LINE
  5
E79
330
1E7
100
AcDbEntity
  8
1
  6
Continuous
 62
     7
100
AcDbLine
 10
820.8506249999997
 20
517.7879755954277
 30
0.0
 11
820.8506249999997
 21
507.2917255954281
 31
0.0
  0
LINE
  5
E7A
330
1E7
100
AcDbEntity
  8
1
  6
Continuous
 62
     7
100
AcDbLine
 10
820.8506249999997
 20
518.7104755954281
 30
0.0
 11
820.8506249999997
 21
506.3692255954276
 31
0.0
  0
LINE
  5
E7B
330
1E7
100
AcDbEntity
  8
1
  6
Continuous
 62
     7
100
AcDbLine
 10
827.0324999999996
 20
518.7104755954281
 30
0.0
 11
827.0324999999996
 21
506.3692255954276
 31
0.0
  0
LINE
  5
E7C
330
1E7
100
AcDbEntity
  8
1
  6
Continuous
 62
     7
100
AcDbLine
 10
868.3424999999997
 20
467.0617255954278
 30
0.0
 11
872.3024999999999
 21
471.6404755954281
 31
0.0
  0
LINE
  5
E7D
330
1E7
100
AcDbEntity
  8
1
  6
Continuous
 62
     7
100
AcDbLine
 10
843.255
 20
452.94254278018
 30
0.0
 11
843.255
 21
494.0336005954281
 31
0.0
  0
LINE
  5
E7E
330
1E7
100
AcDbEntity
  8
1
  6
Continuous
 62
     7
100
AcDbLine
 10
885.1499999999999
 20
467.0617255954278
 30
0.0
 11
868.3424999999997
 21
467.0617255954278
 31
0.0
  0
LINE
  5
E7F
330
1E7
100
AcDbEntity
  8
1
  6
Continuous
 62
     7
100
AcDbLine
 10
885.1499999999999
 20
432.2261005954281
 30
0.0
 11
859.2693749999996
 21
432.2261005954281
 31
0.0
  0
LINE
  5
E80
330
1E7
100
AcDbEntity
  8
1
  6
Continuous
 62
     4
100
AcDbLine
 10
885.1499999999999
 20
411.8579755954281
 30
0.0
 11
874.0237499999997
 21
400.7317255954281
 31
0.0
  0
LINE
  5
E81
330
1E7
100
AcDbEntity
  8
1
  6
Continuous
 62
     4
100
AcDbLine
 10
885.4199999999996
 20
431.4723505954281
 30
0.0
 11
863.6737499999997
 21
409.7261005954281
 31
0.0
  0
LINE
  5
E82
330
1E7
100
AcDbEntity
  8
1
  6
Continuous
 62
     4
100
AcDbLine
 10
885.1499999999999
 20
421.5329755954281
 30
0.0
 11
869.0006249999996
 21
405.3779755954281
 31
0.0
  0
LINE
  5
E83
330
1E7
100
AcDbEntity
  8
1
  6
Continuous
 62
     7
100
AcDbLine
 10
859.6140332325189
 20
422.495602042915
 30
0.0
 11
858.9712499999999
 21
441.0461005954277
 31
0.0
  0
LINE
  5
E84
330
1E7
100
AcDbEntity
  8
1
  6
Continuous
 62
     7
100
AcDbLine
 10
868.3424999999997
 20
432.2261005954281
 30
0.0
 11
868.3424999999997
 21
467.0617255954278
 31
0.0
  0
LINE
  5
E85
330
1E7
100
AcDbEntity
  8
1
  6
Continuous
 62
     3
100
AcDbLine
 10
861.12
 20
416.9373505954281
 30
0.0
 11
856.0574999999996
 21
421.9998505954281
 31
0.0
  0
LINE
  5
E86
330
1E7
100
AcDbEntity
  8
1
  6
Continuous
 62
     7
100
AcDbLine
 10
860.6700000000003
 20
422.6411005954281
 30
0.0
 11
859.6207336565937
 21
422.4965252746248
 31
0.0
  0
LINE
  5
E87
330
1E7
100
AcDbEntity
  8
1
  6
Continuous
 62
     3
100
AcDbLine
 10
861.12
 20
416.9373505954281
 30
0.0
 11
842.5968749999997
 21
414.3836005954281
 31
0.0
  0
LINE
  5
E88
330
1E7
100
AcDbEntity
  8
1
  6
Continuous
 62
     3
100
AcDbLine
 10
844.11
 20
414.5917255954281
 30
0.0
 11
842.3099999999998
 21
416.3917255954281
 31
0.0
  0
LINE
  5
E89
330
1E7
100
AcDbEntity
  8
1
  6
Continuous
 62
     3
100
AcDbLine
 10
852.6149999999999
 20
415.7617255954281
 30
0.0
 11
847.5412499999997
 21
420.8298505954282
 31
0.0
  0
LINE
  5
E8A
330
1E7
100
AcDbEntity
  8
1
  6
Continuous
 62
     4
100
AcDbLine
 10
876.493125
 20
432.2261005954281
 30
0.0
 11
861.4237499999997
 21
417.1567255954283
 31
0.0
  0
LINE
  5
E8B
330
1E7
100
AcDbEntity
  8
1
  6
Continuous
 62
     4
100
AcDbLine
 10
866.8181249999999
 20
432.2261005954281
 30
0.0
 11
859.5281249999997
 21
424.9361005954281
 31
0.0
  0
LINE
  5
E8C
330
1E7
100
AcDbEntity
  8
1
  6
Continuous
 62
     7
100
AcDbLine
 10
854.6793750000002
 20
448.3642255954281
 30
0.0
 11
858.9712499999999
 21
441.0461005954277
 31
0.0
  0
LINE
  5
E8D
330
1E7
100
AcDbEntity
  8
1
  6
Continuous
 62
     7
100
AcDbLine
 10
885.1499999999999
 20
471.6404755954281
 30
0.0
 11
872.3024999999999
 21
471.6404755954281
 31
0.0
  0
LINE
  5
E8E
330
1E7
100
AcDbEntity
  8
1
  6
Continuous
 62
     7
100
AcDbLine
 10
885.1499999999999
 20
476.3654755954282
 30
0.0
 11
871.8243749999997
 21
476.3654755954282
 31
0.0
  0
LINE
  5
E8F
330
1E7
100
AcDbEntity
  8
1
  6
Continuous
 62
     7
100
AcDbLine
 10
843.255
 20
494.0336005954281
 30
0.0
 11
838.4737499999996
 21
518.7104755954281
 31
0.0
  0
LINE
  5
E90
330
1E7
100
AcDbEntity
  8
1
  6
Continuous
 62
     7
100
AcDbLine
 10
874.7999999999999
 20
471.6404755954281
 30
0.0
 11
874.7999999999999
 21
476.3654755954282
 31
0.0
  0
LINE
  5
E91
330
1E7
100
AcDbEntity
  8
1
  6
Continuous
 62
     7
100
AcDbLine
 10
1002.228749999999
 20
278.7423505954278
 30
0.0
 11
1002.228749999999
 21
438.7229755954281
 31
0.0
  0
LINE
  5
E92
330
1E7
100
AcDbEntity
  8
1
  6
Continuous
 62
     7
100
AcDbLine
 10
1002.228749999999
 20
278.7423505954278
 30
0.0
 11
999.4218749999973
 21
278.7423505954278
 31
0.0
  0
LINE
  5
E93
330
1E7
100
AcDbEntity
  8
1
  6
Continuous
 62
     7
100
AcDbLine
 10
976.5731249999996
 20
453.0570422855499
 30
0.0
 11
976.5731249999996
 21
480.6179755954278
 31
0.0
  0
LINE
  5
E94
330
1E7
100
AcDbEntity
  8
1
  6
Continuous
 62
     7
100
AcDbLine
 10
927.0506250000003
 20
453.0570422855387
 30
0.0
 11
927.0506250000003
 21
494.0336005954281
 31
0.0
  0
LINE
  5
E95
330
1E7
100
AcDbEntity
  8
1
  6
Continuous
 62
     7
100
AcDbLine
 10
1002.228749999999
 20
438.7229755954281
 30
0.0
 11
999.4218749999973
 21
438.7229755954281
 31
0.0
  0
LINE
  5
E96
330
1E7
100
AcDbEntity
  8
1
  6
Continuous
 62
     7
100
AcDbLine
 10
931.8318749999999
 20
518.7104755954281
 30
0.0
 11
972.765
 21
518.7104755954281
 31
0.0
  0
LINE
  5
E97
330
1E7
100
AcDbEntity
  8
1
  6
Continuous
 62
     7
100
AcDbLine
 10
927.0506250000003
 20
494.0336005954281
 30
0.0
 11
931.8318749999999
 21
518.7104755954281
 31
0.0
  0
LINE
  5
E98
330
1E7
100
AcDbEntity
  8
1
  6
Continuous
 62
     7
100
AcDbLine
 10
976.5731249999996
 20
480.6179755954278
 30
0.0
 11
999.4218749999973
 21
480.6179755954278
 31
0.0
  0
LINE
  5
E99
330
1E7
100
AcDbEntity
  8
1
  6
Continuous
 62
     7
100
AcDbLine
 10
976.5731249999996
 20
522.5186005954282
 30
0.0
 11
972.765
 21
518.7104755954281
 31
0.0
  0
LINE
  5
E9A
330
1E7
100
AcDbEntity
  8
1
  6
Continuous
 62
     7
100
AcDbLine
 10
928.6312500000001
 20
725.5923505954283
 30
0.0
 11
915.0693749999996
 21
718.5836005954282
 31
0.0
  0
LINE
  5
E9B
330
1E7
100
AcDbEntity
  8
1
  6
Continuous
 62
     7
100
AcDbLine
 10
919.4399999999999
 20
675.2936005954282
 30
0.0
 11
944.1956249999996
 21
671.0692255954277
 31
0.0
  0
LINE
  5
E9C
330
1E7
100
AcDbEntity
  8
1
  6
Continuous
 62
     7
100
AcDbLine
 10
904.19625
 20
747.2486005954283
 30
0.0
 11
961.3350000000002
 21
747.2486005954283
 31
0.0
  0
LINE
  5
E9D
330
1E7
100
AcDbEntity
  8
1
  6
Continuous
 62
     7
100
AcDbLine
 10
930.8643749999996
 20
601.2911005954277
 30
0.0
 11
923.214375
 21
616.2198505954282
 31
0.0
  0
LINE
  5
E9E
330
1E7
100
AcDbEntity
  8
1
  6
Continuous
 62
     7
100
AcDbLine
 10
921.1949999999998
 20
640.5986005954282
 30
0.0
 11
953.7187499999999
 21
640.5986005954282
 31
0.0
  0
LINE
  5
E9F
330
1E7
100
AcDbEntity
  8
1
  6
Continuous
 62
     7
100
AcDbLine
 10
930.8643749999996
 20
808.1954755954281
 30
0.0
 11
919.4399999999999
 21
796.7711005954281
 31
0.0
  0
LINE
  5
EA0
330
1E7
100
AcDbEntity
  8
1
  6
Continuous
 62
     7
100
AcDbLine
 10
919.4399999999999
 20
675.2936005954282
 30
0.0
 11
919.4399999999999
 21
682.915475595428
 31
0.0
  0
LINE
  5
EA1
330
1E7
100
AcDbEntity
  8
1
  6
Continuous
 62
     7
100
AcDbLine
 10
866.109375
 20
618.7736005954282
 30
0.0
 11
866.109375
 21
701.9617255954281
 31
0.0
  0
LINE
  5
EA2
330
1E7
100
AcDbEntity
  8
1
  6
Continuous
 62
     7
100
AcDbLine
 10
850.8712499999997
 20
675.2936005954282
 30
0.0
 11
850.8712499999997
 21
682.915475595428
 31
0.0
  0
LINE
  5
EA3
330
1E7
100
AcDbEntity
  8
1
  6
Continuous
 62
     7
100
AcDbLine
 10
826.2731249999998
 20
640.5986005954282
 30
0.0
 11
826.2731249999998
 21
751.0623505954283
 31
0.0
  0
LINE
  5
EA4
330
1E7
100
AcDbEntity
  8
1
  6
Continuous
 62
     7
100
AcDbLine
 10
837.3768749999996
 20
751.0623505954283
 30
0.0
 11
837.3768749999996
 21
640.5986005954282
 31
0.0
  0
LINE
  5
EA5
330
1E7
100
AcDbEntity
  8
1
  6
Continuous
 62
     7
100
AcDbLine
 10
849.0993749999999
 20
640.5986005954282
 30
0.0
 11
816.5924999999997
 21
640.5986005954282
 31
0.0
  0
LINE
  5
EA6
330
1E7
100
AcDbEntity
  8
1
  6
Continuous
 62
     7
100
AcDbLine
 10
820.715625
 20
629.4667255954282
 30
0.0
 11
842.9343749999997
 21
629.4667255954282
 31
0.0
  0
LINE
  5
EA7
330
1E7
100
AcDbEntity
  8
1
  6
Continuous
 62
     7
100
AcDbLine
 10
826.2731249999998
 20
623.9036005954277
 30
0.0
 11
837.3768749999996
 21
623.9036005954277
 31
0.0
  0
LINE
  5
EA8
330
1E7
100
AcDbEntity
  8
1
  6
Continuous
 62
     7
100
AcDbLine
 10
839.4468749999997
 20
579.6517255954283
 30
0.0
 11
829.9237499999996
 21
570.1286005954281
 31
0.0
  0
LINE
  5
EA9
330
1E7
100
AcDbEntity
  8
1
  6
Continuous
 62
     7
100
AcDbLine
 10
871.8243749999997
 20
547.2742255954281
 30
0.0
 11
793.7381249999997
 21
547.2742255954281
 31
0.0
  0
LINE
  5
EAA
330
1E7
100
AcDbEntity
  8
1
  6
Continuous
 62
     7
100
AcDbLine
 10
871.8243749999997
 20
541.5648505954282
 30
0.0
 11
793.7381249999997
 21
541.5648505954282
 31
0.0
  0
LINE
  5
EAB
330
1E7
100
AcDbEntity
  8
1
  6
Continuous
 62
     7
100
AcDbLine
 10
827.0324999999996
 20
570.1286005954281
 30
0.0
 11
827.0324999999996
 21
582.475475595428
 31
0.0
  0
LINE
  5
EAC
330
1E7
100
AcDbEntity
  8
1
  6
Continuous
 62
     7
100
AcDbLine
 10
808.5093749999996
 20
570.1286005954281
 30
0.0
 11
808.5093749999996
 21
582.475475595428
 31
0.0
  0
LINE
  5
EAD
330
1E7
100
AcDbEntity
  8
1
  6
Continuous
 62
     7
100
AcDbLine
 10
808.5093749999996
 20
571.0567255954279
 30
0.0
 11
808.5093749999996
 21
581.5586005954282
 31
0.0
  0
LINE
  5
EAE
330
1E7
100
AcDbEntity
  8
1
  6
Continuous
 62
     7
100
AcDbLine
 10
820.8506249999997
 20
570.1286005954281
 30
0.0
 11
820.8506249999997
 21
582.475475595428
 31
0.0
  0
LINE
  5
EAF
330
1E7
100
AcDbEntity
  8
1
  6
Continuous
 62
     7
100
AcDbLine
 10
820.8506249999997
 20
571.0567255954279
 30
0.0
 11
820.8506249999997
 21
581.5586005954282
 31
0.0
  0
LINE
  5
EB0
330
1E7
100
AcDbEntity
  8
1
  6
Continuous
 62
     7
100
AcDbLine
 10
802.3443749999996
 20
570.1286005954281
 30
0.0
 11
802.3443749999996
 21
582.475475595428
 31
0.0
  0
LINE
  5
EB1
330
1E7
100
AcDbEntity
  8
1
  6
Continuous
 62
     7
100
AcDbLine
 10
829.9237499999996
 20
570.1286005954281
 30
0.0
 11
797.5462499999996
 21
570.1286005954281
 31
0.0
  0
LINE
  5
EB2
330
1E7
100
AcDbEntity
  8
1
  6
Continuous
 62
     7
100
AcDbLine
 10
793.7381249999997
 20
547.2742255954281
 30
0.0
 11
793.7381249999997
 21
566.3204755954279
 31
0.0
  0
LINE
  5
EB3
330
1E7
100
AcDbEntity
  8
1
  6
Continuous
 62
     7
100
AcDbLine
 10
808.4924999999996
 20
546.6273505954282
 30
0.0
 11
808.4924999999996
 21
542.2792255954282
 31
0.0
  0
LINE
  5
EB4
330
1E7
100
AcDbEntity
  8
1
  6
Continuous
 62
     7
100
AcDbLine
 10
793.7381249999997
 20
566.3204755954279
 30
0.0
 11
797.5462499999996
 21
570.1286005954281
 31
0.0
  0
LINE
  5
EB5
330
1E7
100
AcDbEntity
  8
1
  6
Continuous
 62
     7
100
AcDbLine
 10
820.9125
 20
546.3179755954281
 30
0.0
 11
820.9125
 21
542.2792255954282
 31
0.0
  0
LINE
  5
EB6
330
1E7
100
AcDbEntity
  8
1
  6
Continuous
 62
     7
100
AcDbLine
 10
808.5093749999996
 20
588.6404755954281
 30
0.0
 11
820.8506249999997
 21
588.6404755954281
 31
0.0
  0
LINE
  5
EB7
330
1E7
100
AcDbEntity
  8
1
  6
Continuous
 62
     7
100
AcDbLine
 10
802.3443749999996
 20
582.475475595428
 30
0.0
 11
827.0324999999996
 21
582.475475595428
 31
0.0
  0
LINE
  5
EB8
330
1E7
100
AcDbEntity
  8
1
  6
Continuous
 62
     7
100
AcDbLine
 10
808.5093749999996
 20
582.475475595428
 30
0.0
 11
808.5093749999996
 21
588.6404755954281
 31
0.0
  0
LINE
  5
EB9
330
1E7
100
AcDbEntity
  8
1
  6
Continuous
 62
     7
100
AcDbLine
 10
820.8506249999997
 20
582.475475595428
 30
0.0
 11
820.8506249999997
 21
588.6404755954281
 31
0.0
  0
LINE
  5
EBA
330
1E7
100
AcDbEntity
  8
1
  6
Continuous
 62
     7
100
AcDbLine
 10
816.5924999999997
 20
640.5986005954282
 30
0.0
 11
816.5924999999997
 21
661.5461005954282
 31
0.0
  0
LINE
  5
EBB
330
1E7
100
AcDbEntity
  8
1
  6
Continuous
 62
     7
100
AcDbLine
 10
825.5081249999998
 20
640.5986005954282
 30
0.0
 11
825.5081249999998
 21
671.0523505954281
 31
0.0
  0
LINE
  5
EBC
330
1E7
100
AcDbEntity
  8
1
  6
Continuous
 62
     7
100
AcDbLine
 10
826.2731249999998
 20
629.4667255954282
 30
0.0
 11
826.2731249999998
 21
623.9036005954277
 31
0.0
  0
LINE
  5
EBD
330
1E7
100
AcDbEntity
  8
1
  6
Continuous
 62
     7
100
AcDbLine
 10
820.715625
 20
640.5986005954282
 30
0.0
 11
820.715625
 21
629.4667255954282
 31
0.0
  0
LINE
  5
EBE
330
1E7
100
AcDbEntity
  8
1
  6
Continuous
 62
     7
100
AcDbLine
 10
826.2731249999998
 20
640.5986005954282
 30
0.0
 11
826.2731249999998
 21
629.4667255954282
 31
0.0
  0
LINE
  5
EBF
330
1E7
100
AcDbEntity
  8
1
  6
Continuous
 62
     7
100
AcDbLine
 10
826.2731249999998
 20
639.7379755954277
 30
0.0
 11
826.2731249999998
 21
630.2936005954282
 31
0.0
  0
LINE
  5
EC1
330
1E7
100
AcDbEntity
  8
1
  6
Continuous
 62
     7
100
AcDbLine
 10
854.6793750000002
 20
597.6067255954277
 30
0.0
 11
863.5443749999996
 21
614.9261005954281
 31
0.0
  0
LINE
  5
EC2
330
1E7
100
AcDbEntity
  8
1
  6
Continuous
 62
     7
100
AcDbLine
 10
864.2587499999999
 20
605.0879755954277
 30
0.0
 11
864.2587499999999
 21
614.9261005954281
 31
0.0
  0
LINE
  5
EC3
330
1E7
100
AcDbEntity
  8
1
  6
Continuous
 62
     7
100
AcDbLine
 10
839.4468749999997
 20
601.3023505954282
 30
0.0
 11
847.0968749999999
 21
616.2479755954282
 31
0.0
  0
LINE
  5
EC4
330
1E7
100
AcDbEntity
  8
1
  6
Continuous
 62
     7
100
AcDbLine
 10
854.6793750000002
 20
547.2742255954281
 30
0.0
 11
854.6793750000002
 21
597.6067255954277
 31
0.0
  0
LINE
  5
EC5
330
1E7
100
AcDbEntity
  8
1
  6
Continuous
 62
     7
100
AcDbLine
 10
839.4468749999997
 20
579.6517255954283
 30
0.0
 11
839.4468749999997
 21
601.3023505954282
 31
0.0
  0
LINE
  5
EC6
330
1E7
100
AcDbEntity
  8
1
  6
Continuous
 62
     7
100
AcDbLine
 10
871.8243749999997
 20
605.0879755954277
 30
0.0
 11
864.2587499999999
 21
605.0879755954277
 31
0.0
  0
LINE
  5
EC7
330
1E7
100
AcDbEntity
  8
1
  6
Continuous
 62
     7
100
AcDbLine
 10
838.1362500000001
 20
673.1223505954277
 30
0.0
 11
838.1362500000001
 21
640.5986005954282
 31
0.0
  0
LINE
  5
EC8
330
1E7
100
AcDbEntity
  8
1
  6
Continuous
 62
     7
100
AcDbLine
 10
837.3768749999996
 20
629.4667255954282
 30
0.0
 11
837.3768749999996
 21
623.9036005954277
 31
0.0
  0
LINE
  5
EC9
330
1E7
100
AcDbEntity
  8
1
  6
Continuous
 62
     7
100
AcDbLine
 10
847.0968749999999
 20
616.2479755954282
 30
0.0
 11
849.0993749999999
 21
640.5986005954282
 31
0.0
  0
LINE
  5
ECA
330
1E7
100
AcDbEntity
  8
1
  6
Continuous
 62
     7
100
AcDbLine
 10
842.9343749999997
 20
640.5986005954282
 30
0.0
 11
842.9343749999997
 21
629.4667255954282
 31
0.0
  0
LINE
  5
ECB
330
1E7
100
AcDbEntity
  8
1
  6
Continuous
 62
     7
100
AcDbLine
 10
837.3768749999996
 20
640.5986005954282
 30
0.0
 11
837.3768749999996
 21
629.4667255954282
 31
0.0
  0
LINE
  5
ECC
330
1E7
100
AcDbEntity
  8
1
  6
Continuous
 62
     7
100
AcDbLine
 10
837.3768749999996
 20
639.7379755954277
 30
0.0
 11
837.3768749999996
 21
630.2936005954282
 31
0.0
  0
LINE
  5
ECD
330
1E7
100
AcDbEntity
  8
1
  6
Continuous
 62
     7
100
AcDbLine
 10
866.109375
 20
622.9192255954277
 30
0.0
 11
871.8243749999997
 21
622.9192255954277
 31
0.0
  0
LINE
  5
ECE
330
1E7
100
AcDbEntity
  8
1
  6
Continuous
 62
     7
100
AcDbLine
 10
862.1156249999996
 20
614.9261005954281
 30
0.0
 11
864.2587499999999
 21
614.9261005954281
 31
0.0
  0
LINE
  5
ECF
330
1E7
100
AcDbEntity
  8
1
  6
Continuous
 62
     7
100
AcDbLine
 10
862.1156249999996
 20
618.7736005954282
 30
0.0
 11
862.1156249999996
 21
614.9261005954281
 31
0.0
  0
LINE
  5
ED0
330
1E7
100
AcDbEntity
  8
1
  6
Continuous
 62
     7
100
AcDbLine
 10
866.109375
 20
618.7736005954282
 30
0.0
 11
862.1156249999996
 21
618.7736005954282
 31
0.0
  0
LINE
  5
ED1
330
1E7
100
AcDbEntity
  8
1
  6
Continuous
 62
     7
100
AcDbLine
 10
866.109375
 20
632.4367255954282
 30
0.0
 11
871.8243749999997
 21
632.4367255954282
 31
0.0
  0
LINE
  5
ED2
330
1E7
100
AcDbEntity
  8
1
  6
Continuous
 62
     7
100
AcDbLine
 10
866.109375
 20
641.9598505954277
 30
0.0
 11
871.8243749999997
 21
641.9598505954277
 31
0.0
  0
LINE
  5
ED3
330
1E7
100
AcDbEntity
  8
1
  6
Continuous
 62
     7
100
AcDbLine
 10
850.8712499999997
 20
675.2936005954282
 30
0.0
 11
837.3768749999996
 21
672.9929755954279
 31
0.0
  0
LINE
  5
ED4
330
1E7
100
AcDbEntity
  8
1
  6
Continuous
 62
     7
100
AcDbLine
 10
866.109375
 20
651.4829755954282
 30
0.0
 11
871.8243749999997
 21
651.4829755954282
 31
0.0
  0
LINE
  5
ED5
330
1E7
100
AcDbEntity
  8
1
  6
Continuous
 62
     7
100
AcDbLine
 10
866.109375
 20
661.0061005954278
 30
0.0
 11
871.8243749999997
 21
661.0061005954278
 31
0.0
  0
LINE
  5
ED6
330
1E7
100
AcDbEntity
  8
1
  6
Continuous
 62
     7
100
AcDbLine
 10
866.109375
 20
670.5292255954282
 30
0.0
 11
871.8243749999997
 21
670.5292255954282
 31
0.0
  0
LINE
  5
ED7
330
1E7
100
AcDbEntity
  8
1
  6
Continuous
 62
     7
100
AcDbLine
 10
866.109375
 20
680.0523505954283
 30
0.0
 11
871.8243749999997
 21
680.0523505954283
 31
0.0
  0
LINE
  5
ED8
330
1E7
100
AcDbEntity
  8
1
  6
Continuous
 62
     7
100
AcDbLine
 10
923.214375
 20
616.2198505954282
 30
0.0
 11
921.1949999999998
 21
640.5986005954282
 31
0.0
  0
LINE
  5
ED9
330
1E7
100
AcDbEntity
  8
1
  6
Continuous
 62
     7
100
AcDbLine
 10
833.5518749999996
 20
821.5267255954282
 30
0.0
 11
835.875
 21
821.5267255954282
 31
0.0
  0
LINE
  5
EDA
330
1E7
100
AcDbEntity
  8
1
  6
Continuous
 62
     7
100
AcDbLine
 10
833.5518749999996
 20
819.0348505954283
 30
0.0
 11
835.875
 21
819.0348505954283
 31
0.0
  0
LINE
  5
EDB
330
1E7
100
AcDbEntity
  8
1
  6
Continuous
 62
     7
100
AcDbLine
 10
833.5518749999996
 20
802.4804755954283
 30
0.0
 11
835.875
 21
802.4804755954283
 31
0.0
  0
LINE
  5
EDC
330
1E7
100
AcDbEntity
  8
1
  6
Continuous
 62
     7
100
AcDbLine
 10
833.5518749999996
 20
804.9723505954283
 30
0.0
 11
835.875
 21
804.9723505954283
 31
0.0
  0
LINE
  5
EDD
330
1E7
100
AcDbEntity
  8
1
  6
Continuous
 62
     7
100
AcDbLine
 10
826.2731249999998
 20
767.7236005954283
 30
0.0
 11
837.3768749999996
 21
767.7236005954283
 31
0.0
  0
LINE
  5
EDE
330
1E7
100
AcDbEntity
  8
1
  6
Continuous
 62
     7
100
AcDbLine
 10
820.715625
 20
762.1661005954275
 30
0.0
 11
842.9343749999997
 21
762.1661005954275
 31
0.0
  0
LINE
  5
EDF
330
1E7
100
AcDbEntity
  8
1
  6
Continuous
 62
     7
100
AcDbLine
 10
847.063125
 20
751.0623505954283
 30
0.0
 11
816.5924999999997
 21
751.0623505954283
 31
0.0
  0
LINE
  5
EE0
330
1E7
100
AcDbEntity
  8
1
  6
Continuous
 62
     7
100
AcDbLine
 10
820.715625
 20
751.0623505954283
 30
0.0
 11
820.715625
 21
762.1661005954275
 31
0.0
  0
LINE
  5
EE1
330
1E7
100
AcDbEntity
  8
1
  6
Continuous
 62
     7
100
AcDbLine
 10
826.2731249999998
 20
751.0623505954283
 30
0.0
 11
826.2731249999998
 21
762.1661005954275
 31
0.0
  0
LINE
  5
EE2
330
1E7
100
AcDbEntity
  8
1
  6
Continuous
 62
     7
100
AcDbLine
 10
826.2731249999998
 20
747.2486005954283
 30
0.0
 11
808.9706250000002
 21
747.2486005954283
 31
0.0
  0
LINE
  5
EE3
330
1E7
100
AcDbEntity
  8
1
  6
Continuous
 62
     7
100
AcDbLine
 10
808.9706250000002
 20
733.8817978444092
 30
0.0
 11
825.5081249999998
 21
729.905200030404
 31
0.0
  0
LINE
  5
EE4
330
1E7
100
AcDbEntity
  8
1
  6
Continuous
 62
     7
100
AcDbLine
 10
808.9706250000002
 20
733.8817978444092
 30
0.0
 11
808.9706250000002
 21
747.2486005954283
 31
0.0
  0
LINE
  5
EE5
330
1E7
100
AcDbEntity
  8
1
  6
Continuous
 62
     7
100
AcDbLine
 10
825.5081249999998
 20
729.905200030404
 30
0.0
 11
825.5081249999998
 21
747.2486005954283
 31
0.0
  0
LINE
  5
EE6
330
1E7
100
AcDbEntity
  8
1
  6
Continuous
 62
     7
100
AcDbLine
 10
816.5924999999997
 20
747.2486005954283
 30
0.0
 11
816.5924999999997
 21
751.0623505954283
 31
0.0
  0
LINE
  5
EE7
330
1E7
100
AcDbEntity
  8
1
  6
Continuous
 62
     7
100
AcDbLine
 10
826.2731249999998
 20
762.1661005954275
 30
0.0
 11
826.2731249999998
 21
767.7236005954283
 31
0.0
  0
LINE
  5
EE8
330
1E7
100
AcDbEntity
  8
1
  6
Continuous
 62
     7
100
AcDbLine
 10
826.2731249999998
 20
751.8892255954283
 30
0.0
 11
826.2731249999998
 21
761.3336005954277
 31
0.0
  0
LINE
  5
EE9
330
1E7
100
AcDbEntity
  8
1
  6
Continuous
 62
     7
100
AcDbLine
 10
833.5518749999996
 20
802.4804755954283
 30
0.0
 11
833.5518749999996
 21
821.5267255954282
 31
0.0
  0
LWPOLYLINE
  5
EEA
330
1E7
100
AcDbEntity
  8
1
  6
Continuous
 62
     7
100
AcDbPolyline
 90
       17
 70
     0
 43
0.0
 10
831.6315386999999
 20
817.9909243954282
 42
0.181667
 10
831.6315855
 20
817.9410346954282
 42
0.087732
 10
831.6680408999996
 20
817.8773272954284
 42
0.043527
 10
831.7395053999996
 20
817.8022501954282
 42
0.026108
 10
831.8432330999996
 20
817.7186869954283
 42
0.018199
 10
831.9752369999996
 20
817.6298506954283
 42
0.014216
 10
832.1304446999999
 20
817.5391540954283
 42
0.012175
 10
832.3028910000001
 20
817.4500828954277
 42
0.011297
 10
832.4859491999998
 20
817.3660606954284
 42
0.011297
 10
832.6725849000002
 20
817.2903157954277
 42
0.012175
 10
832.8556260000002
 20
817.2257587954282
 42
0.014216
 10
833.0280371999997
 20
817.1748718954283
 42
0.018199
 10
833.1831935999996
 20
817.1396089954281
 42
0.026108
 10
833.3151326999997
 20
817.1213254954283
 42
0.043527
 10
833.4187829999997
 20
817.1207251954283
 42
0.087732
 10
833.4901628999997
 20
817.1378305954281
 42
0.181667
 10
833.5265291999997
 20
817.1719837954283
 42
0.181667
  0
LINE
  5
EEB
330
1E7
100
AcDbEntity
  8
1
  6
Continuous
 62
     7
100
AcDbLine
 10
828.9506249999996
 20
808.4598505954277
 30
0.0
 11
828.9506249999996
 21
815.5473505954283
 31
0.0
  0
LINE
  5
EEC
330
1E7
100
AcDbEntity
  8
1
  6
Continuous
 62
     7
100
AcDbLine
 10
827.1562499999996
 20
808.572350595428
 30
0.0
 11
827.1562499999996
 21
815.4123505954283
 31
0.0
  0
LINE
  5
EED
330
1E7
100
AcDbEntity
  8
1
  6
Continuous
 62
     7
100
AcDbLine
 10
833.5518749999996
 20
815.5473505954283
 30
0.0
 11
828.9506249999996
 21
815.5473505954283
 31
0.0
  0
LINE
  5
EEE
330
1E7
100
AcDbEntity
  8
1
  6
Continuous
 62
     7
100
AcDbLine
 10
833.5518749999996
 20
808.4598505954277
 30
0.0
 11
828.9506249999996
 21
808.4598505954277
 31
0.0
  0
LWPOLYLINE
  5
EEF
330
1E7
100
AcDbEntity
  8
1
  6
Continuous
 62
     7
100
AcDbPolyline
 90
       15
 70
     0
 43
0.0
 10
827.1515924999997
 20
815.4160738954278
 42
-0.051729
 10
827.1944963999997
 20
815.8101757954275
 42
-0.04396
 10
827.3210985
 20
816.2212624954282
 42
-0.038152
 10
827.5268600999996
 20
816.6345982954283
 42
-0.034218
 10
827.8044047999996
 20
817.0353673954283
 42
-0.031891
 10
828.1437848999999
 20
817.4092021954283
 42
-0.030959
 10
828.5328341999996
 20
817.7427034954282
 42
-0.031326
 10
828.9576080999999
 20
818.0239174954277
 42
-0.033031
 10
829.4028794999999
 20
818.2427623954282
 42
-0.036239
 10
829.8526868999996
 20
818.3913937954276
 42
-0.041209
 10
830.2909067999999
 20
818.4644845954283
 42
-0.048151
 10
830.7018314999996
 20
818.4594139954283
 42
-0.056819
 10
831.0707307000003
 20
818.3763646954282
 42
-0.065743
 10
831.3843807000003
 20
818.2183129954282
 42
-0.07178
 10
831.6315386999999
 20
817.9909243954282
 42
-0.07178
  0
LWPOLYLINE
  5
EF0
330
1E7
100
AcDbEntity
  8
1
  6
Continuous
 62
     7
100
AcDbPolyline
 90
       17
 70
     0
 43
0.0
 10
831.6315386999999
 20
806.0210629954283
 42
-0.181667
 10
831.6315855
 20
806.0709517954283
 42
-0.087732
 10
831.6680408999996
 20
806.1346591954283
 42
-0.043527
 10
831.7395053999996
 20
806.2097371954282
 42
-0.026108
 10
831.8432330999996
 20
806.2933003954276
 42
-0.018199
 10
831.9752369999996
 20
806.3821366954282
 42
-0.014216
 10
832.1304446999999
 20
806.4728332954283
 42
-0.012175
 10
832.3028910000001
 20
806.5619035954282
 42
-0.011297
 10
832.4859491999998
 20
806.6459266954282
 42
-0.011297
 10
832.6725849000002
 20
806.7216715954284
 42
-0.012175
 10
832.8556260000002
 20
806.7862276954276
 42
-0.014216
 10
833.0280371999997
 20
806.8371154954283
 42
-0.018199
 10
833.1831935999996
 20
806.8723783954283
 42
-0.026108
 10
833.3151326999997
 20
806.8906609954275
 42
-0.043527
 10
833.4187829999997
 20
806.8912612954283
 42
-0.087732
 10
833.4901628999997
 20
806.874156795428
 42
-0.181667
 10
833.5265291999997
 20
806.8400035954283
 42
-0.181667
  0
LWPOLYLINE
  5
EF1
330
1E7
100
AcDbEntity
  8
1
  6
Continuous
 62
     7
100
AcDbPolyline
 90
       14
 70
     0
 43
0.0
 10
827.1517625999996
 20
808.5731101954282
 42
0.054607
 10
827.2064870999999
 20
808.1481814954276
 42
0.04596
 10
827.3569175999996
 20
807.705940395428
 42
0.039738
 10
827.5968566999996
 20
807.2646073954283
 42
0.035752
 10
827.9164170000003
 20
806.8423651954283
 42
0.033655
 10
828.3024350999996
 20
806.4566107954282
 42
0.033217
 10
828.7390044000003
 20
806.1232372954282
 42
0.034385
 10
829.2081402
 20
805.8559786954274
 42
0.037296
 10
829.6905132000002
 20
805.6658473954277
 42
0.042246
 10
830.1662495999996
 20
805.5606760954283
 42
0.049567
 10
830.6157492
 20
805.5447982954284
 42
0.059172
 10
831.0204927000002
 20
805.6188682954283
 42
0.069535
 10
831.3638039999997
 20
805.7798332954282
 42
0.076814
 10
831.6315386999999
 20
806.0210629954283
 42
0.076814
  0
LINE
  5
EF2
330
1E7
100
AcDbEntity
  8
1
  6
Continuous
 62
     7
100
AcDbLine
 10
904.19625
 20
747.2486005954283
 30
0.0
 11
904.19625
 21
796.7711005954281
 31
0.0
  0
LINE
  5
EF3
330
1E7
100
AcDbEntity
  8
1
  6
Continuous
 62
     7
100
AcDbLine
 10
866.109375
 20
747.2486005954283
 30
0.0
 11
866.109375
 21
796.7711005954281
 31
0.0
  0
LINE
  5
EF4
330
1E7
100
AcDbEntity
  8
1
  6
Continuous
 62
     7
100
AcDbLine
 10
842.9343749999997
 20
751.0623505954283
 30
0.0
 11
842.9343749999997
 21
762.1661005954275
 31
0.0
  0
LINE
  5
EF5
330
1E7
100
AcDbEntity
  8
1
  6
Continuous
 62
     7
100
AcDbLine
 10
837.3768749999996
 20
751.0623505954283
 30
0.0
 11
837.3768749999996
 21
762.1661005954275
 31
0.0
  0
LINE
  5
EF6
330
1E7
100
AcDbEntity
  8
1
  6
Continuous
 62
     7
100
AcDbLine
 10
871.8243749999997
 20
711.3779755954277
 30
0.0
 11
885.1499999999999
 21
711.3779755954277
 31
0.0
  0
LINE
  5
EF7
330
1E7
100
AcDbEntity
  8
1
  6
Continuous
 62
     7
100
AcDbLine
 10
877.9049999999998
 20
682.915475595428
 30
0.0
 11
895.5112499999996
 21
682.915475595428
 31
0.0
  0
LINE
  5
EF8
330
1E7
100
AcDbEntity
  8
1
  6
Continuous
 62
     7
100
AcDbLine
 10
862.3124999999999
 20
705.9442255954277
 30
0.0
 11
853.5599999999996
 21
720.3723505954283
 31
0.0
  0
LINE
  5
EF9
330
1E7
100
AcDbEntity
  8
1
  6
Continuous
 62
     7
100
AcDbLine
 10
869.6025
 20
710.1067255954277
 30
0.0
 11
869.6025
 21
747.2486005954283
 31
0.0
  0
LINE
  5
EFA
330
1E7
100
AcDbEntity
  8
1
  6
Continuous
 62
     7
100
AcDbLine
 10
850.8712499999997
 20
682.915475595428
 30
0.0
 11
866.109375
 21
682.915475595428
 31
0.0
  0
LINE
  5
EFB
330
1E7
100
AcDbEntity
  8
1
  6
Continuous
 62
     7
100
AcDbLine
 10
862.3012500000001
 20
705.9386005954283
 30
0.0
 11
871.8243749999997
 21
711.3779755954277
 31
0.0
  0
LINE
  5
EFC
330
1E7
100
AcDbEntity
  8
1
  6
Continuous
 62
     7
100
AcDbLine
 10
862.3012500000001
 20
701.9617255954281
 30
0.0
 11
862.3012500000001
 21
705.9386005954283
 31
0.0
  0
LINE
  5
EFD
330
1E7
100
AcDbEntity
  8
1
  6
Continuous
 62
     7
100
AcDbLine
 10
862.3012500000001
 20
701.9617255954281
 30
0.0
 11
866.109375
 21
701.9617255954281
 31
0.0
  0
LINE
  5
EFE
330
1E7
100
AcDbEntity
  8
1
  6
Continuous
 62
     7
100
AcDbLine
 10
871.8243749999997
 20
747.2486005954283
 30
0.0
 11
837.3768749999996
 21
747.2486005954283
 31
0.0
  0
LINE
  5
EFF
330
1E7
100
AcDbEntity
  8
1
  6
Continuous
 62
     7
100
AcDbLine
 10
838.1362500000001
 20
747.2486005954283
 30
0.0
 11
838.1362500000001
 21
727.263938471905
 31
0.0
  0
LINE
  5
F00
330
1E7
100
AcDbEntity
  8
1
  6
Continuous
 62
     7
100
AcDbLine
 10
853.5599999999996
 20
720.3723505954283
 30
0.0
 11
838.1362500000001
 21
727.263938471905
 31
0.0
  0
LINE
  5
F01
330
1E7
100
AcDbEntity
  8
1
  6
Continuous
 62
     7
100
AcDbLine
 10
847.063125
 20
747.2486005954283
 30
0.0
 11
847.063125
 21
751.0623505954283
 31
0.0
  0
LINE
  5
F02
330
1E7
100
AcDbEntity
  8
1
  6
Continuous
 62
     7
100
AcDbLine
 10
915.0693749999996
 20
718.5836005954282
 30
0.0
 11
908.0043749999999
 21
705.9386005954283
 31
0.0
  0
LINE
  5
F03
330
1E7
100
AcDbEntity
  8
1
  6
Continuous
 62
     7
100
AcDbLine
 10
919.4399999999999
 20
682.915475595428
 30
0.0
 11
885.1499999999999
 21
682.915475595428
 31
0.0
  0
LINE
  5
F04
330
1E7
100
AcDbEntity
  8
1
  6
Continuous
 62
     7
100
AcDbLine
 10
904.19625
 20
682.915475595428
 30
0.0
 11
904.19625
 21
701.9617255954281
 31
0.0
  0
LINE
  5
F05
330
1E7
100
AcDbEntity
  8
1
  6
Continuous
 62
     7
100
AcDbLine
 10
908.0043749999999
 20
701.9617255954281
 30
0.0
 11
904.19625
 21
701.9617255954281
 31
0.0
  0
LINE
  5
F06
330
1E7
100
AcDbEntity
  8
1
  6
Continuous
 62
     7
100
AcDbLine
 10
908.0043749999999
 20
701.9617255954281
 30
0.0
 11
908.0043749999999
 21
705.9386005954283
 31
0.0
  0
LINE
  5
F07
330
1E7
100
AcDbEntity
  8
1
  6
Continuous
 62
     7
100
AcDbLine
 10
919.4399999999999
 20
796.7711005954281
 30
0.0
 11
866.109375
 21
796.7711005954281
 31
0.0
  0
LINE
  5
F08
330
1E7
100
AcDbEntity
  8
1
  6
Continuous
 62
     7
100
AcDbLine
 10
837.3768749999996
 20
762.1661005954275
 30
0.0
 11
837.3768749999996
 21
767.7236005954283
 31
0.0
  0
LINE
  5
F09
330
1E7
100
AcDbEntity
  8
1
  6
Continuous
 62
     7
100
AcDbLine
 10
837.3768749999996
 20
761.327975595428
 30
0.0
 11
837.3768749999996
 21
751.8892255954283
 31
0.0
  0
LINE
  5
F0A
330
1E7
100
AcDbEntity
  8
1
  6
Continuous
 62
     7
100
AcDbLine
 10
862.9649999999996
 20
820.6323505954275
 30
0.0
 11
855.6918750000003
 21
820.6323505954275
 31
0.0
  0
LINE
  5
F0B
330
1E7
100
AcDbEntity
  8
1
  6
Continuous
 62
     7
100
AcDbLine
 10
871.8243749999997
 20
806.5473505954283
 30
0.0
 11
835.875
 21
806.5473505954283
 31
0.0
  0
LINE
  5
F0C
330
1E7
100
AcDbEntity
  8
1
  6
Continuous
 62
     7
100
AcDbLine
 10
867.9993750000001
 20
796.7711005954281
 30
0.0
 11
843.255
 21
796.7711005954281
 31
0.0
  0
LINE
  5
F0D
330
1E7
100
AcDbEntity
  8
1
  6
Continuous
 62
     7
100
AcDbLine
 10
835.875
 20
802.4804755954283
 30
0.0
 11
835.875
 21
821.5267255954282
 31
0.0
  0
LINE
  5
F0E
330
1E7
100
AcDbEntity
  8
1
  6
Continuous
 62
     7
100
AcDbLine
 10
843.255
 20
796.7711005954281
 30
0.0
 11
835.875
 21
802.4804755954283
 31
0.0
  0
LINE
  5
F0F
330
1E7
100
AcDbEntity
  8
1
  6
Continuous
 62
     7
100
AcDbLine
 10
855.6918750000003
 20
817.4542255954282
 30
0.0
 11
835.875
 21
817.4542255954282
 31
0.0
  0
LINE
  5
F10
330
1E7
100
AcDbEntity
  8
1
  6
Continuous
 62
     7
100
AcDbLine
 10
855.6918750000003
 20
815.5473505954283
 30
0.0
 11
835.875
 21
815.5473505954283
 31
0.0
  0
LINE
  5
F11
330
1E7
100
AcDbEntity
  8
1
  6
Continuous
 62
     7
100
AcDbLine
 10
855.6918750000003
 20
808.4598505954277
 30
0.0
 11
835.875
 21
808.4598505954277
 31
0.0
  0
LINE
  5
F12
330
1E7
100
AcDbEntity
  8
1
  6
Continuous
 62
     7
100
AcDbLine
 10
855.6918750000003
 20
806.8229755954282
 30
0.0
 11
855.6918750000003
 21
820.6323505954275
 31
0.0
  0
LINE
  5
F13
330
1E7
100
AcDbEntity
  8
1
  6
Continuous
 62
     7
100
AcDbLine
 10
867.9993749999999
 20
796.7711005954281
 30
0.0
 11
867.9993750000001
 21
806.5473505954283
 31
0.0
  0
LINE
  5
F14
330
1E7
100
AcDbEntity
  8
1
  6
Continuous
 62
     7
100
AcDbLine
 10
976.5731249999996
 20
547.2742255954281
 30
0.0
 11
967.471875
 21
547.2742255954281
 31
0.0
  0
LINE
  5
F15
330
1E7
100
AcDbEntity
  8
1
  6
Continuous
 62
     7
100
AcDbLine
 10
976.5731249999996
 20
541.5648505954282
 30
0.0
 11
967.471875
 21
541.5648505954282
 31
0.0
  0
LINE
  5
F16
330
1E7
100
AcDbEntity
  8
1
  6
Continuous
 62
     7
100
AcDbLine
 10
940.3875000000001
 20
570.1286005954281
 30
0.0
 11
972.765
 21
570.1286005954281
 31
0.0
  0
LINE
  5
F17
330
1E7
100
AcDbEntity
  8
1
  6
Continuous
 62
     7
100
AcDbLine
 10
930.8643749999996
 20
579.6517255954283
 30
0.0
 11
940.3875000000001
 21
570.1286005954281
 31
0.0
  0
LINE
  5
F18
330
1E7
100
AcDbEntity
  8
1
  6
Continuous
 62
     7
100
AcDbLine
 10
967.471875
 20
541.5648505954282
 30
0.0
 11
967.471875
 21
547.2742255954281
 31
0.0
  0
LINE
  5
F19
330
1E7
100
AcDbEntity
  8
1
  6
Continuous
 62
     7
100
AcDbLine
 10
930.8643749999996
 20
579.6517255954283
 30
0.0
 11
930.8643749999996
 21
601.2911005954277
 31
0.0
  0
LINE
  5
F1A
330
1E7
100
AcDbEntity
  8
1
  6
Continuous
 62
     7
100
AcDbLine
 10
976.5731249999996
 20
547.2742255954281
 30
0.0
 11
976.5731249999996
 21
566.3204755954279
 31
0.0
  0
LINE
  5
F1B
330
1E7
100
AcDbEntity
  8
1
  6
Continuous
 62
     7
100
AcDbLine
 10
976.5731249999996
 20
566.3204755954279
 30
0.0
 11
972.765
 21
570.1286005954281
 31
0.0
  0
LINE
  5
F1C
330
1E7
100
AcDbEntity
  8
1
  6
Continuous
 62
     7
100
AcDbLine
 10
953.7187499999999
 20
640.5986005954282
 30
0.0
 11
953.7187499999999
 21
661.5461005954282
 31
0.0
  0
LINE
  5
F1E
330
1E7
100
AcDbEntity
  8
1
  6
Continuous
 62
     7
100
AcDbLine
 10
961.3350000000002
 20
733.9229755954282
 30
0.0
 11
928.6312500000001
 21
725.5923505954283
 31
0.0
  0
LINE
  5
F1F
330
1E7
100
AcDbEntity
  8
1
  6
Continuous
 62
     7
100
AcDbLine
 10
961.3350000000002
 20
733.9229755954282
 30
0.0
 11
961.3350000000002
 21
747.2486005954283
 31
0.0
  0
LINE
  5
F20
330
1E7
100
AcDbEntity
  8
1
  6
Continuous
 62
     3
100
AcDbLine
 10
1243.704374999996
 20
634.7373505954277
 30
0.0
 11
1243.704374999996
 21
379.0079755954283
 31
0.0
  0
LINE
  5
F21
330
1E7
100
AcDbEntity
  8
1
  6
Continuous
 62
     3
100
AcDbLine
 10
1243.704374999996
 20
358.7298505954283
 30
0.0
 11
1249.306875
 21
379.0079755954283
 31
0.0
  0
LINE
  5
F22
330
1E7
100
AcDbEntity
  8
1
  6
Continuous
 62
     3
100
AcDbLine
 10
1238.09625
 20
379.0079755954283
 30
0.0
 11
1249.306875
 21
379.0079755954283
 31
0.0
  0
LINE
  5
F23
330
1E7
100
AcDbEntity
  8
1
  6
Continuous
 62
     3
100
AcDbLine
 10
1238.09625
 20
379.0079755954283
 30
0.0
 11
1249.306875
 21
379.0079755954283
 31
0.0
  0
LINE
  5
F24
330
1E7
100
AcDbEntity
  8
1
  6
Continuous
 62
     3
100
AcDbLine
 10
1243.704374999996
 20
358.7298505954283
 30
0.0
 11
1238.09625
 21
379.0079755954283
 31
0.0
  0
LINE
  5
F25
330
1E7
100
AcDbEntity
  8
1
  6
Continuous
 62
     5
100
AcDbLine
 10
1243.704374999996
 20
651.8373505954282
 30
0.0
 11
1249.704374999996
 21
651.8373505954282
 31
0.0
  0
LINE
  5
F26
330
1E7
100
AcDbEntity
  8
1
  6
Continuous
 62
     3
100
AcDbLine
 10
900.4274999999999
 20
916.6173505954279
 30
0.0
 11
1251.748124999997
 21
916.6173505954279
 31
0.0
  0
LINE
  5
F27
330
1E7
100
AcDbEntity
  8
1
  6
Continuous
 62
     7
100
AcDbLine
 10
923.2424999999999
 20
842.4742255954281
 30
0.0
 11
930.8643749999996
 21
842.4742255954281
 31
0.0
  0
LINE
  5
F28
330
1E7
100
AcDbEntity
  8
1
  6
Continuous
 62
     7
100
AcDbLine
 10
908.690625
 20
891.9967255954283
 30
0.0
 11
1018.468125
 21
891.9967255954283
 31
0.0
  0
LINE
  5
F29
330
1E7
100
AcDbEntity
  8
1
  6
Continuous
 62
     7
100
AcDbLine
 10
913.8262499999997
 20
876.7586005954283
 30
0.0
 11
1018.468125
 21
876.7586005954283
 31
0.0
  0
LINE
  5
F2A
330
1E7
100
AcDbEntity
  8
1
  6
Continuous
 62
     3
100
AcDbLine
 10
772.2843749999997
 20
982.0519620379441
 30
0.0
 11
997.8918749999987
 21
982.0519620379441
 31
0.0
  0
LINE
  5
F2B
330
1E7
100
AcDbEntity
  8
1
  6
Continuous
 62
     3
100
AcDbLine
 10
772.2843749999997
 20
987.6600870379439
 30
0.0
 11
772.2843749999997
 21
976.4494620379441
 31
0.0
  0
LINE
  5
F2C
330
1E7
100
AcDbEntity
  8
1
  6
Continuous
 62
     3
100
AcDbLine
 10
772.2843749999997
 20
987.6600870379439
 30
0.0
 11
772.2843749999997
 21
976.4494620379441
 31
0.0
  0
LINE
  5
F2D
330
1E7
100
AcDbEntity
  8
1
  6
Continuous
 62
     3
100
AcDbLine
 10
752.0118749999997
 20
982.0519620379441
 30
0.0
 11
772.2843749999997
 21
987.6600870379439
 31
0.0
  0
LINE
  5
F2E
330
1E7
100
AcDbEntity
  8
1
  6
Continuous
 62
     3
100
AcDbLine
 10
752.0118749999997
 20
895.9117255954282
 30
0.0
 11
752.0118749999997
 21
990.0957120379441
 31
0.0
  0
LINE
  5
F2F
330
1E7
100
AcDbEntity
  8
1
  6
Continuous
 62
     7
100
AcDbLine
 10
861.6150000000001
 20
891.9967255954283
 30
0.0
 11
751.8374999999998
 21
891.9967255954283
 31
0.0
  0
LINE
  5
F30
330
1E7
100
AcDbEntity
  8
1
  6
Continuous
 62
     7
100
AcDbLine
 10
856.4737499999996
 20
876.7586005954283
 30
0.0
 11
751.8374999999998
 21
876.7586005954283
 31
0.0
  0
LINE
  5
F31
330
1E7
100
AcDbEntity
  8
1
  6
Continuous
 62
     7
100
AcDbLine
 10
751.8374999999998
 20
876.7586005954283
 30
0.0
 11
751.8374999999998
 21
891.9967255954283
 31
0.0
  0
LINE
  5
F32
330
1E7
100
AcDbEntity
  8
1
  6
Continuous
 62
     3
100
AcDbLine
 10
752.0118749999997
 20
982.0519620379441
 30
0.0
 11
772.2843749999997
 21
976.4494620379441
 31
0.0
  0
LINE
  5
F33
330
1E7
100
AcDbEntity
  8
1
  6
Continuous
 62
     7
100
AcDbLine
 10
908.690625
 20
891.9967255954283
 30
0.0
 11
908.690625
 21
897.7061005954283
 31
0.0
  0
LINE
  5
F34
330
1E7
100
AcDbEntity
  8
1
  6
Continuous
 62
     7
100
AcDbLine
 10
861.6150000000001
 20
891.9967255954283
 30
0.0
 11
861.6150000000001
 21
897.7061005954283
 31
0.0
  0
LINE
  5
F35
330
1E7
100
AcDbEntity
  8
1
  6
Continuous
 62
     7
100
AcDbLine
 10
866.5425
 20
860.8623505954279
 30
0.0
 11
866.5425
 21
903.6292255954283
 31
0.0
  0
LINE
  5
F36
330
1E7
100
AcDbEntity
  8
1
  6
Continuous
 62
     7
100
AcDbLine
 10
859.59
 20
842.4742255954281
 30
0.0
 11
841.6237499999997
 21
842.4742255954281
 31
0.0
  0
LINE
  5
F37
330
1E7
100
AcDbEntity
  8
1
  6
Continuous
 62
     7
100
AcDbLine
 10
862.9649999999996
 20
853.9042255954283
 30
0.0
 11
847.063125
 21
853.9042255954283
 31
0.0
  0
LINE
  5
F38
330
1E7
100
AcDbEntity
  8
1
  6
Continuous
 62
     7
100
AcDbLine
 10
841.6237499999997
 20
827.5117255954283
 30
0.0
 11
841.6237499999997
 21
842.4742255954281
 31
0.0
  0
LINE
  5
F39
330
1E7
100
AcDbEntity
  8
1
  6
Continuous
 62
     7
100
AcDbLine
 10
847.063125
 20
842.4742255954281
 30
0.0
 11
847.063125
 21
853.9042255954283
 31
0.0
  0
LINE
  5
F3A
330
1E7
100
AcDbEntity
  8
1
  6
Continuous
 62
     7
100
AcDbLine
 10
866.5425
 20
860.8623505954279
 30
0.0
 11
856.4737499999996
 21
860.8623505954279
 31
0.0
  0
LINE
  5
F3B
330
1E7
100
AcDbEntity
  8
1
  6
Continuous
 62
     7
100
AcDbLine
 10
856.4737499999996
 20
860.8623505954279
 30
0.0
 11
856.4737499999996
 21
876.7586005954283
 31
0.0
  0
LINE
  5
F3C
330
1E7
100
AcDbEntity
  8
1
  6
Continuous
 62
     7
100
AcDbLine
 10
907.3462500000001
 20
853.9042255954283
 30
0.0
 11
907.3462500000001
 21
860.8623505954279
 31
0.0
  0
LINE
  5
F3D
330
1E7
100
AcDbEntity
  8
1
  6
Continuous
 62
     7
100
AcDbLine
 10
907.3462500000001
 20
853.9042255954283
 30
0.0
 11
923.2424999999999
 21
853.9042255954283
 31
0.0
  0
LINE
  5
F3E
330
1E7
100
AcDbEntity
  8
1
  6
Continuous
 62
     7
100
AcDbLine
 10
923.2424999999999
 20
842.4742255954281
 30
0.0
 11
923.2424999999999
 21
853.9042255954283
 31
0.0
  0
LINE
  5
F3F
330
1E7
100
AcDbEntity
  8
1
  6
Continuous
 62
     7
100
AcDbLine
 10
913.8262499999997
 20
860.8623505954279
 30
0.0
 11
913.8262499999997
 21
876.7586005954283
 31
0.0
  0
LINE
  5
F40
330
1E7
100
AcDbEntity
  8
1
  6
Continuous
 62
     7
100
AcDbLine
 10
907.3462500000001
 20
860.8623505954279
 30
0.0
 11
913.8262499999997
 21
860.8623505954279
 31
0.0
  0
LINE
  5
F41
330
1E7
100
AcDbEntity
  8
1
  6
Continuous
 62
     7
100
AcDbLine
 10
885.1499999999999
 20
916.9604755954278
 30
0.0
 11
875.6268749999996
 21
916.9604755954278
 31
0.0
  0
LINE
  5
F42
330
1E7
100
AcDbEntity
  8
1
  6
Continuous
 62
     7
100
AcDbLine
 10
871.47
 20
903.6292255954283
 30
0.0
 11
866.5425
 21
903.6292255954283
 31
0.0
  0
LINE
  5
F43
330
1E7
100
AcDbEntity
  8
1
  6
Continuous
 62
     7
100
AcDbLine
 10
866.5425
 20
897.7061005954283
 30
0.0
 11
861.6150000000001
 21
897.7061005954283
 31
0.0
  0
LINE
  5
F45
330
1E7
100
AcDbEntity
  8
1
  6
Continuous
 62
     7
100
AcDbLine
 10
898.486875
 20
903.6292255954283
 30
0.0
 11
903.763125
 21
903.6292255954283
 31
0.0
  0
LINE
  5
F46
330
1E7
100
AcDbEntity
  8
1
  6
Continuous
 62
     7
100
AcDbLine
 10
898.486875
 20
913.1523505954286
 30
0.0
 11
898.486875
 21
903.6292255954283
 31
0.0
  0
LINE
  5
F47
330
1E7
100
AcDbEntity
  8
1
  6
Continuous
 62
     7
100
AcDbLine
 10
885.1499999999999
 20
916.9604755954278
 30
0.0
 11
894.673125
 21
916.9604755954278
 31
0.0
  0
LINE
  5
F49
330
1E7
100
AcDbEntity
  8
1
  6
Continuous
 62
     7
100
AcDbLine
 10
903.763125
 20
897.7061005954283
 30
0.0
 11
903.763125
 21
903.6292255954283
 31
0.0
  0
LINE
  5
F4A
330
1E7
100
AcDbEntity
  8
1
  6
Continuous
 62
     7
100
AcDbLine
 10
903.763125
 20
897.7061005954283
 30
0.0
 11
908.690625
 21
897.7061005954283
 31
0.0
  0
LINE
  5
F4B
330
1E7
100
AcDbEntity
  8
1
  6
Continuous
 62
     5
100
AcDbLine
 10
885.0881249999996
 20
1000.051962037943
 30
0.0
 11
892.0881249999997
 21
1000.051962037943
 31
0.0
  0
LINE
  5
F4C
330
1E7
100
AcDbEntity
  8
1
  6
Continuous
 62
     3
100
AcDbLine
 10
997.8918749999987
 20
976.4494620379441
 30
0.0
 11
997.8918749999987
 21
987.6600870379439
 31
0.0
  0
LINE
  5
F4D
330
1E7
100
AcDbEntity
  8
1
  6
Continuous
 62
     3
100
AcDbLine
 10
997.8918749999987
 20
976.4494620379441
 30
0.0
 11
997.8918749999987
 21
987.6600870379439
 31
0.0
  0
LINE
  5
F4E
330
1E7
100
AcDbEntity
  8
1
  6
Continuous
 62
     3
100
AcDbLine
 10
1018.169999999998
 20
982.0519620379441
 30
0.0
 11
997.8918749999987
 21
987.6600870379439
 31
0.0
  0
LINE
  5
F4F
330
1E7
100
AcDbEntity
  8
1
  6
Continuous
 62
     3
100
AcDbLine
 10
1018.169999999998
 20
988.0875870379421
 30
0.0
 11
1018.169999999998
 21
895.2648505954284
 31
0.0
  0
LINE
  5
F50
330
1E7
100
AcDbEntity
  8
1
  6
Continuous
 62
     3
100
AcDbLine
 10
1018.169999999998
 20
982.0519620379441
 30
0.0
 11
997.8918749999987
 21
976.4494620379441
 31
0.0
  0
LINE
  5
F51
330
1E7
100
AcDbEntity
  8
1
  6
Continuous
 62
     7
100
AcDbLine
 10
1018.468125
 20
876.7586005954283
 30
0.0
 11
1018.468125
 21
891.9967255954283
 31
0.0
  0
LINE
  5
F52
330
1E7
100
AcDbEntity
  8
1
  6
Continuous
 62
     3
100
AcDbLine
 10
1249.306875
 20
896.3448505954282
 30
0.0
 11
1238.09625
 21
896.3448505954282
 31
0.0
  0
LINE
  5
F53
330
1E7
100
AcDbEntity
  8
1
  6
Continuous
 62
     3
100
AcDbLine
 10
1249.306875
 20
896.3448505954282
 30
0.0
 11
1238.09625
 21
896.3448505954282
 31
0.0
  0
LINE
  5
F54
330
1E7
100
AcDbEntity
  8
1
  6
Continuous
 62
     3
100
AcDbLine
 10
1243.704374999996
 20
916.6173505954279
 30
0.0
 11
1249.306875
 21
896.3448505954282
 31
0.0
  0
LINE
  5
F55
330
1E7
100
AcDbEntity
  8
1
  6
Continuous
 62
     3
100
AcDbLine
 10
1243.704374999996
 20
916.6173505954279
 30
0.0
 11
1238.09625
 21
896.3448505954282
 31
0.0
  0
LINE
  5
F56
330
1E7
100
AcDbEntity
  8
1
  6
Continuous
 62
     5
100
AcDbLine
 10
879.0886878692724
 20
194.8131400677434
 30
0.0
 11
882.0886878692723
 21
194.8131400677434
 31
0.0
  0
LINE
  5
F57
330
1E7
100
AcDbEntity
  8
1
  6
Continuous
 62
     7
100
AcDbLine
 10
793.7381249999997
 20
453.0570422855387
 30
0.0
 11
793.8573571866876
 21
450.630015369559
 31
0.0
  0
LINE
  5
F58
330
1E7
100
AcDbEntity
  8
1
  6
Continuous
 62
     7
100
AcDbLine
 10
793.8573571866876
 20
450.630015369559
 30
0.0
 11
794.2139054756152
 21
448.2263620495223
 31
0.0
  0
LINE
  5
F59
330
1E7
100
AcDbEntity
  8
1
  6
Continuous
 62
     7
100
AcDbLine
 10
794.2139054756152
 20
448.2263620495223
 30
0.0
 11
794.8043361118505
 21
445.8692308208775
 31
0.0
  0
LINE
  5
F5A
330
1E7
100
AcDbEntity
  8
1
  6
Continuous
 62
     7
100
AcDbLine
 10
794.8043361118505
 20
445.8692308208775
 30
0.0
 11
795.6229629256044
 21
443.5813221458943
 31
0.0
  0
LINE
  5
F5B
330
1E7
100
AcDbEntity
  8
1
  6
Continuous
 62
     7
100
AcDbLine
 10
795.6229629256044
 20
443.5813221458943
 30
0.0
 11
796.661902093154
 21
441.3846698358118
 31
0.0
  0
LINE
  5
F5C
330
1E7
100
AcDbEntity
  8
1
  6
Continuous
 62
     7
100
AcDbLine
 10
796.661902093154
 20
441.3846698358118
 30
0.0
 11
797.9111480623731
 21
439.3004288531876
 31
0.0
  0
LINE
  5
F5D
330
1E7
100
AcDbEntity
  8
1
  6
Continuous
 62
     7
100
AcDbLine
 10
797.9111480623731
 20
439.3004288531876
 30
0.0
 11
799.3586699116714
 21
437.3486715780473
 31
0.0
  0
LINE
  5
F5E
330
1E7
100
AcDbEntity
  8
1
  6
Continuous
 62
     7
100
AcDbLine
 10
799.3586699116714
 20
437.3486715780473
 30
0.0
 11
800.9905272143441
 21
435.5481944998892
 31
0.0
  0
LINE
  5
F5F
330
1E7
100
AcDbEntity
  8
1
  6
Continuous
 62
     7
100
AcDbLine
 10
800.9905272143441
 20
435.5481944998892
 30
0.0
 11
802.7910042925023
 21
433.9163371972165
 31
0.0
  0
LINE
  5
F60
330
1E7
100
AcDbEntity
  8
1
  6
Continuous
 62
     7
100
AcDbLine
 10
802.7910042925023
 20
433.9163371972165
 30
0.0
 11
804.7427615676427
 21
432.4688153479177
 31
0.0
  0
LINE
  5
F61
330
1E7
100
AcDbEntity
  8
1
  6
Continuous
 62
     7
100
AcDbLine
 10
804.7427615676427
 20
432.4688153479177
 30
0.0
 11
806.827002550267
 21
431.2195693786986
 31
0.0
  0
LINE
  5
F62
330
1E7
100
AcDbEntity
  8
1
  6
Continuous
 62
     7
100
AcDbLine
 10
806.827002550267
 20
431.2195693786986
 30
0.0
 11
809.0236548603494
 21
430.1806302111494
 31
0.0
  0
LINE
  5
F63
330
1E7
100
AcDbEntity
  8
1
  6
Continuous
 62
     7
100
AcDbLine
 10
809.0236548603494
 20
430.1806302111494
 30
0.0
 11
811.3115635353326
 21
429.3620033973954
 31
0.0
  0
LINE
  5
F64
330
1E7
100
AcDbEntity
  8
1
  6
Continuous
 62
     7
100
AcDbLine
 10
811.3115635353326
 20
429.3620033973954
 30
0.0
 11
813.6686947639777
 21
428.7715727611602
 31
0.0
  0
LINE
  5
F65
330
1E7
100
AcDbEntity
  8
1
  6
Continuous
 62
     7
100
AcDbLine
 10
813.6686947639777
 20
428.7715727611602
 30
0.0
 11
816.072348084014
 21
428.4150244722322
 31
0.0
  0
LINE
  5
F66
330
1E7
100
AcDbEntity
  8
1
  6
Continuous
 62
     7
100
AcDbLine
 10
816.072348084014
 20
428.4150244722322
 30
0.0
 11
818.4993749999996
 21
428.2957922855446
 31
0.0
  0
LINE
  5
F67
330
1E7
100
AcDbEntity
  8
1
  6
Continuous
 62
     7
100
AcDbLine
 10
818.4993749999996
 20
428.2957922855446
 30
0.0
 11
820.9264019159848
 21
428.4150244722322
 31
0.0
  0
LINE
  5
F68
330
1E7
100
AcDbEntity
  8
1
  6
Continuous
 62
     7
100
AcDbLine
 10
820.9264019159848
 20
428.4150244722322
 30
0.0
 11
823.3300552360212
 21
428.7715727611602
 31
0.0
  0
LINE
  5
F69
330
1E7
100
AcDbEntity
  8
1
  6
Continuous
 62
     7
100
AcDbLine
 10
823.3300552360212
 20
428.7715727611602
 30
0.0
 11
825.6871864646663
 21
429.3620033973954
 31
0.0
  0
LINE
  5
F6A
330
1E7
100
AcDbEntity
  8
1
  6
Continuous
 62
     7
100
AcDbLine
 10
825.6871864646663
 20
429.3620033973954
 30
0.0
 11
827.9750951396495
 21
430.1806302111494
 31
0.0
  0
LINE
  5
F6B
330
1E7
100
AcDbEntity
  8
1
  6
Continuous
 62
     7
100
AcDbLine
 10
827.9750951396495
 20
430.1806302111494
 30
0.0
 11
830.1717474497319
 21
431.2195693786986
 31
0.0
  0
LINE
  5
F6C
330
1E7
100
AcDbEntity
  8
1
  6
Continuous
 62
     7
100
AcDbLine
 10
830.1717474497319
 20
431.2195693786986
 30
0.0
 11
832.255988432356
 21
432.4688153479177
 31
0.0
  0
LINE
  5
F6D
330
1E7
100
AcDbEntity
  8
1
  6
Continuous
 62
     7
100
AcDbLine
 10
832.255988432356
 20
432.4688153479177
 30
0.0
 11
834.2077457074962
 21
433.9163371972165
 31
0.0
  0
LINE
  5
F6E
330
1E7
100
AcDbEntity
  8
1
  6
Continuous
 62
     7
100
AcDbLine
 10
834.2077457074962
 20
433.9163371972165
 30
0.0
 11
836.0082227856548
 21
435.5481944998892
 31
0.0
  0
LINE
  5
F6F
330
1E7
100
AcDbEntity
  8
1
  6
Continuous
 62
     7
100
AcDbLine
 10
836.0082227856548
 20
435.5481944998892
 30
0.0
 11
837.6400800883271
 21
437.3486715780473
 31
0.0
  0
LINE
  5
F70
330
1E7
100
AcDbEntity
  8
1
  6
Continuous
 62
     7
100
AcDbLine
 10
837.6400800883271
 20
437.3486715780473
 30
0.0
 11
839.0876019376257
 21
439.3004288531876
 31
0.0
  0
LINE
  5
F71
330
1E7
100
AcDbEntity
  8
1
  6
Continuous
 62
     7
100
AcDbLine
 10
839.0876019376257
 20
439.3004288531876
 30
0.0
 11
840.3368479068449
 21
441.3846698358118
 31
0.0
  0
LINE
  5
F72
330
1E7
100
AcDbEntity
  8
1
  6
Continuous
 62
     7
100
AcDbLine
 10
840.3368479068449
 20
441.3846698358118
 30
0.0
 11
841.3757870743943
 21
443.5813221458943
 31
0.0
  0
LINE
  5
F73
330
1E7
100
AcDbEntity
  8
1
  6
Continuous
 62
     7
100
AcDbLine
 10
841.3757870743943
 20
443.5813221458943
 30
0.0
 11
842.1944138881487
 21
445.8692308208775
 31
0.0
  0
LINE
  5
F74
330
1E7
100
AcDbEntity
  8
1
  6
Continuous
 62
     7
100
AcDbLine
 10
842.1944138881487
 20
445.8692308208775
 30
0.0
 11
842.7848445243839
 21
448.2263620495223
 31
0.0
  0
LINE
  5
F75
330
1E7
100
AcDbEntity
  8
1
  6
Continuous
 62
     7
100
AcDbLine
 10
842.7848445243839
 20
448.2263620495223
 30
0.0
 11
843.1413928133112
 21
450.630015369559
 31
0.0
  0
LINE
  5
F76
330
1E7
100
AcDbEntity
  8
1
  6
Continuous
 62
     7
100
AcDbLine
 10
843.1413928133112
 20
450.630015369559
 30
0.0
 11
843.255
 21
452.94254278018
 31
0.0
  0
LINE
  5
F77
330
1E7
100
AcDbEntity
  8
1
  6
Continuous
 62
     7
100
AcDbLine
 10
927.0506250000003
 20
453.0570422855385
 30
0.0
 11
927.1698571866879
 21
450.6300153695588
 31
0.0
  0
LINE
  5
F78
330
1E7
100
AcDbEntity
  8
1
  6
Continuous
 62
     7
100
AcDbLine
 10
927.1698571866879
 20
450.6300153695588
 30
0.0
 11
927.5264054756156
 21
448.2263620495221
 31
0.0
  0
LINE
  5
F79
330
1E7
100
AcDbEntity
  8
1
  6
Continuous
 62
     7
100
AcDbLine
 10
927.5264054756156
 20
448.2263620495221
 30
0.0
 11
928.1168361118506
 21
445.8692308208771
 31
0.0
  0
LINE
  5
F7A
330
1E7
100
AcDbEntity
  8
1
  6
Continuous
 62
     7
100
AcDbLine
 10
928.1168361118506
 20
445.8692308208771
 30
0.0
 11
928.9354629256047
 21
443.5813221458941
 31
0.0
  0
LINE
  5
F7B
330
1E7
100
AcDbEntity
  8
1
  6
Continuous
 62
     7
100
AcDbLine
 10
928.9354629256047
 20
443.5813221458941
 30
0.0
 11
929.9744020931544
 21
441.3846698358113
 31
0.0
  0
LINE
  5
F7C
330
1E7
100
AcDbEntity
  8
1
  6
Continuous
 62
     7
100
AcDbLine
 10
929.9744020931544
 20
441.3846698358113
 30
0.0
 11
931.2236480623736
 21
439.3004288531875
 31
0.0
  0
LINE
  5
F7D
330
1E7
100
AcDbEntity
  8
1
  6
Continuous
 62
     7
100
AcDbLine
 10
931.2236480623736
 20
439.3004288531875
 30
0.0
 11
932.6711699116723
 21
437.3486715780471
 31
0.0
  0
LINE
  5
F7E
330
1E7
100
AcDbEntity
  8
1
  6
Continuous
 62
     7
100
AcDbLine
 10
932.6711699116723
 20
437.3486715780471
 30
0.0
 11
934.3030272143447
 21
435.5481944998886
 31
0.0
  0
LINE
  5
F7F
330
1E7
100
AcDbEntity
  8
1
  6
Continuous
 62
     7
100
AcDbLine
 10
934.3030272143447
 20
435.5481944998886
 30
0.0
 11
936.1035042925028
 21
433.9163371972161
 31
0.0
  0
LINE
  5
F80
330
1E7
100
AcDbEntity
  8
1
  6
Continuous
 62
     7
100
AcDbLine
 10
936.1035042925028
 20
433.9163371972161
 30
0.0
 11
938.0552615676435
 21
432.4688153479177
 31
0.0
  0
LINE
  5
F81
330
1E7
100
AcDbEntity
  8
1
  6
Continuous
 62
     7
100
AcDbLine
 10
938.0552615676435
 20
432.4688153479177
 30
0.0
 11
940.1395025502674
 21
431.2195693786985
 31
0.0
  0
LINE
  5
F82
330
1E7
100
AcDbEntity
  8
1
  6
Continuous
 62
     7
100
AcDbLine
 10
940.1395025502674
 20
431.2195693786985
 30
0.0
 11
942.3361548603502
 21
430.1806302111492
 31
0.0
  0
LINE
  5
F83
330
1E7
100
AcDbEntity
  8
1
  6
Continuous
 62
     7
100
AcDbLine
 10
942.3361548603502
 20
430.1806302111492
 30
0.0
 11
944.6240635353332
 21
429.3620033973946
 31
0.0
  0
LINE
  5
F84
330
1E7
100
AcDbEntity
  8
1
  6
Continuous
 62
     7
100
AcDbLine
 10
944.6240635353332
 20
429.3620033973946
 30
0.0
 11
946.9811947639785
 21
428.7715727611596
 31
0.0
  0
LINE
  5
F85
330
1E7
100
AcDbEntity
  8
1
  6
Continuous
 62
     7
100
AcDbLine
 10
946.9811947639785
 20
428.7715727611596
 30
0.0
 11
949.3848480840144
 21
428.4150244722322
 31
0.0
  0
LINE
  5
F86
330
1E7
100
AcDbEntity
  8
1
  6
Continuous
 62
     7
100
AcDbLine
 10
949.3848480840144
 20
428.4150244722322
 30
0.0
 11
951.8118749999999
 21
428.2957922855441
 31
0.0
  0
LINE
  5
F87
330
1E7
100
AcDbEntity
  8
1
  6
Continuous
 62
     7
100
AcDbLine
 10
951.8118749999999
 20
428.2957922855441
 30
0.0
 11
954.2389019159854
 21
428.4150244722322
 31
0.0
  0
LINE
  5
F88
330
1E7
100
AcDbEntity
  8
1
  6
Continuous
 62
     7
100
AcDbLine
 10
954.2389019159854
 20
428.4150244722322
 30
0.0
 11
956.6425552360216
 21
428.7715727611596
 31
0.0
  0
LINE
  5
F89
330
1E7
100
AcDbEntity
  8
1
  6
Continuous
 62
     7
100
AcDbLine
 10
956.6425552360216
 20
428.7715727611596
 30
0.0
 11
958.9996864646671
 21
429.3620033973946
 31
0.0
  0
LINE
  5
F8A
330
1E7
100
AcDbEntity
  8
1
  6
Continuous
 62
     7
100
AcDbLine
 10
958.9996864646671
 20
429.3620033973946
 30
0.0
 11
961.28759513965
 21
430.1806302111492
 31
0.0
  0
LINE
  5
F8B
330
1E7
100
AcDbEntity
  8
1
  6
Continuous
 62
     7
100
AcDbLine
 10
961.28759513965
 20
430.1806302111492
 30
0.0
 11
963.4842474497324
 21
431.2195693786986
 31
0.0
  0
LINE
  5
F8C
330
1E7
100
AcDbEntity
  8
1
  6
Continuous
 62
     7
100
AcDbLine
 10
963.4842474497324
 20
431.2195693786986
 30
0.0
 11
965.5684884323564
 21
432.4688153479177
 31
0.0
  0
LINE
  5
F8D
330
1E7
100
AcDbEntity
  8
1
  6
Continuous
 62
     7
100
AcDbLine
 10
965.5684884323564
 20
432.4688153479177
 30
0.0
 11
967.5202457074968
 21
433.9163371972161
 31
0.0
  0
LINE
  5
F8E
330
1E7
100
AcDbEntity
  8
1
  6
Continuous
 62
     7
100
AcDbLine
 10
967.5202457074968
 20
433.9163371972161
 30
0.0
 11
969.320722785655
 21
435.5481944998886
 31
0.0
  0
LINE
  5
F8F
330
1E7
100
AcDbEntity
  8
1
  6
Continuous
 62
     7
100
AcDbLine
 10
969.320722785655
 20
435.5481944998886
 30
0.0
 11
970.9525800883277
 21
437.3486715780471
 31
0.0
  0
LINE
  5
F90
330
1E7
100
AcDbEntity
  8
1
  6
Continuous
 62
     7
100
AcDbLine
 10
970.9525800883277
 20
437.3486715780471
 30
0.0
 11
972.400101937626
 21
439.3004288531875
 31
0.0
  0
LINE
  5
F91
330
1E7
100
AcDbEntity
  8
1
  6
Continuous
 62
     7
100
AcDbLine
 10
972.400101937626
 20
439.3004288531875
 30
0.0
 11
973.6493479068455
 21
441.3846698358113
 31
0.0
  0
LINE
  5
F92
330
1E7
100
AcDbEntity
  8
1
  6
Continuous
 62
     7
100
AcDbLine
 10
973.6493479068455
 20
441.3846698358113
 30
0.0
 11
974.6882870743947
 21
443.5813221458941
 31
0.0
  0
LINE
  5
F93
330
1E7
100
AcDbEntity
  8
1
  6
Continuous
 62
     7
100
AcDbLine
 10
974.6882870743947
 20
443.5813221458941
 30
0.0
 11
975.506913888149
 21
445.8692308208771
 31
0.0
  0
LINE
  5
F94
330
1E7
100
AcDbEntity
  8
1
  6
Continuous
 62
     7
100
AcDbLine
 10
975.506913888149
 20
445.8692308208771
 30
0.0
 11
976.0973445243843
 21
448.2263620495221
 31
0.0
  0
LINE
  5
F95
330
1E7
100
AcDbEntity
  8
1
  6
Continuous
 62
     7
100
AcDbLine
 10
976.0973445243843
 20
448.2263620495221
 30
0.0
 11
976.453892813312
 21
450.6300153695588
 31
0.0
  0
LINE
  5
F96
330
1E7
100
AcDbEntity
  8
1
  6
Continuous
 62
     7
100
AcDbLine
 10
976.453892813312
 20
450.6300153695588
 30
0.0
 11
976.5731249999996
 21
453.0570422855499
 31
0.0
  0
LINE
  5
F98
330
1E7
100
AcDbEntity
  8
1
  6
Continuous
 62
     7
100
AcDbLine
 10
934.0413552003907
 20
281.6227961141618
 30
0.0
 11
934.3030272143447
 21
281.9115066909676
 31
0.0
  0
LINE
  5
F99
330
1E7
100
AcDbEntity
  8
1
  6
Continuous
 62
     7
100
AcDbLine
 10
934.3030272143447
 20
281.9115066909676
 30
0.0
 11
936.1035042925028
 21
283.5433639936403
 31
0.0
  0
LINE
  5
F9A
330
1E7
100
AcDbEntity
  8
1
  6
Continuous
 62
     7
100
AcDbLine
 10
936.1035042925028
 20
283.5433639936403
 30
0.0
 11
938.0552615676435
 21
284.9908858429385
 31
0.0
  0
LINE
  5
F9B
330
1E7
100
AcDbEntity
  8
1
  6
Continuous
 62
     7
100
AcDbLine
 10
938.0552615676435
 20
284.9908858429385
 30
0.0
 11
940.1395025502674
 21
286.2401318121578
 31
0.0
  0
LINE
  5
F9C
330
1E7
100
AcDbEntity
  8
1
  6
Continuous
 62
     7
100
AcDbLine
 10
940.1395025502674
 20
286.2401318121578
 30
0.0
 11
942.3361548603502
 21
287.2790709797074
 31
0.0
  0
LINE
  5
F9D
330
1E7
100
AcDbEntity
  8
1
  6
Continuous
 62
     7
100
AcDbLine
 10
942.3361548603502
 20
287.2790709797074
 30
0.0
 11
944.6240635353332
 21
288.0976977934615
 31
0.0
  0
LINE
  5
F9E
330
1E7
100
AcDbEntity
  8
1
  6
Continuous
 62
     7
100
AcDbLine
 10
944.6240635353332
 20
288.0976977934615
 30
0.0
 11
946.9811947639785
 21
288.6881284296967
 31
0.0
  0
LINE
  5
F9F
330
1E7
100
AcDbEntity
  8
1
  6
Continuous
 62
     7
100
AcDbLine
 10
946.9811947639785
 20
288.6881284296967
 30
0.0
 11
949.3848480840144
 21
289.0446767186239
 31
0.0
  0
LINE
  5
FA0
330
1E7
100
AcDbEntity
  8
1
  6
Continuous
 62
     7
100
AcDbLine
 10
949.3848480840144
 20
289.0446767186239
 30
0.0
 11
951.8118749999999
 21
289.1639089053123
 31
0.0
  0
LINE
  5
FA1
330
1E7
100
AcDbEntity
  8
1
  6
Continuous
 62
     7
100
AcDbLine
 10
951.8118749999999
 20
289.1639089053123
 30
0.0
 11
954.2389019159854
 21
289.0446767186239
 31
0.0
  0
LINE
  5
FA2
330
1E7
100
AcDbEntity
  8
1
  6
Continuous
 62
     7
100
AcDbLine
 10
954.2389019159854
 20
289.0446767186239
 30
0.0
 11
956.6425552360216
 21
288.6881284296967
 31
0.0
  0
LINE
  5
FA3
330
1E7
100
AcDbEntity
  8
1
  6
Continuous
 62
     7
100
AcDbLine
 10
956.6425552360216
 20
288.6881284296967
 30
0.0
 11
958.9996864646671
 21
288.0976977934615
 31
0.0
  0
LINE
  5
FA4
330
1E7
100
AcDbEntity
  8
1
  6
Continuous
 62
     7
100
AcDbLine
 10
958.9996864646671
 20
288.0976977934615
 30
0.0
 11
961.28759513965
 21
287.2790709797074
 31
0.0
  0
LINE
  5
FA5
330
1E7
100
AcDbEntity
  8
1
  6
Continuous
 62
     7
100
AcDbLine
 10
961.28759513965
 20
287.2790709797074
 30
0.0
 11
963.4842474497324
 21
286.2401318121578
 31
0.0
  0
LINE
  5
FA6
330
1E7
100
AcDbEntity
  8
1
  6
Continuous
 62
     7
100
AcDbLine
 10
963.4842474497324
 20
286.2401318121578
 30
0.0
 11
965.5684884323564
 21
284.9908858429385
 31
0.0
  0
LINE
  5
FA7
330
1E7
100
AcDbEntity
  8
1
  6
Continuous
 62
     7
100
AcDbLine
 10
965.5684884323564
 20
284.9908858429385
 30
0.0
 11
967.5202457074968
 21
283.5433639936403
 31
0.0
  0
LINE
  5
FA8
330
1E7
100
AcDbEntity
  8
1
  6
Continuous
 62
     7
100
AcDbLine
 10
967.5202457074968
 20
283.5433639936403
 30
0.0
 11
969.320722785655
 21
281.9115066909673
 31
0.0
  0
LINE
  5
FA9
330
1E7
100
AcDbEntity
  8
1
  6
Continuous
 62
     7
100
AcDbLine
 10
969.320722785655
 20
281.9115066909673
 30
0.0
 11
970.9525800883277
 21
280.1110296128092
 31
0.0
  0
LINE
  5
FAA
330
1E7
100
AcDbEntity
  8
1
  6
Continuous
 62
     7
100
AcDbLine
 10
970.9525800883277
 20
280.1110296128092
 30
0.0
 11
972.400101937626
 21
278.1592723376689
 31
0.0
  0
LINE
  5
FAB
330
1E7
100
AcDbEntity
  8
1
  6
Continuous
 62
     7
100
AcDbLine
 10
972.400101937626
 20
278.1592723376689
 30
0.0
 11
973.6493479068455
 21
276.0750313550452
 31
0.0
  0
LINE
  5
FAC
330
1E7
100
AcDbEntity
  8
1
  6
Continuous
 62
     7
100
AcDbLine
 10
973.6493479068455
 20
276.0750313550452
 30
0.0
 11
974.6882870743947
 21
273.8783790449625
 31
0.0
  0
LINE
  5
FAD
330
1E7
100
AcDbEntity
  8
1
  6
Continuous
 62
     7
100
AcDbLine
 10
974.6882870743947
 20
273.8783790449625
 30
0.0
 11
975.506913888149
 21
271.5904703699793
 31
0.0
  0
LINE
  5
FAE
330
1E7
100
AcDbEntity
  8
1
  6
Continuous
 62
     7
100
AcDbLine
 10
975.506913888149
 20
271.5904703699793
 30
0.0
 11
976.0973445243843
 21
269.2333391413341
 31
0.0
  0
LINE
  5
FAF
330
1E7
100
AcDbEntity
  8
1
  6
Continuous
 62
     7
100
AcDbLine
 10
976.0973445243843
 20
269.2333391413341
 30
0.0
 11
976.453892813312
 21
266.8296858212978
 31
0.0
  0
LINE
  5
FB0
330
1E7
100
AcDbEntity
  8
1
  6
Continuous
 62
     7
100
AcDbLine
 10
976.453892813312
 20
266.8296858212978
 30
0.0
 11
976.6567458544445
 21
262.7005173098738
 31
0.0
  0
LINE
  5
FB1
330
1E7
100
AcDbEntity
  8
1
  6
Continuous
 62
     7
100
AcDbLine
 10
976.5731249999996
 20
236.8417255954283
 30
0.0
 11
999.4218749999973
 21
236.8417255954284
 31
0.0
  0
LINE
  5
FB2
330
1E7
100
AcDbEntity
  8
1
  6
Continuous
 62
     7
100
AcDbLine
 10
835.9552463886895
 20
281.8494351310048
 30
0.0
 11
841.3312404162518
 21
277.6167714509775
 31
0.0
  0
LINE
  5
FB3
330
1E7
100
AcDbEntity
  8
1
  6
Continuous
 62
     7
100
AcDbLine
 10
841.3312404162518
 20
277.6167714509775
 30
0.0
 11
847.5859841239563
 21
273.6183410951018
 31
0.0
  0
LINE
  5
FB4
330
1E7
100
AcDbEntity
  8
1
  6
Continuous
 62
     7
100
AcDbLine
 10
847.5859841239563
 20
273.6183410951018
 30
0.0
 11
854.2025242404035
 21
270.2522363659958
 31
0.0
  0
LINE
  5
FB5
330
1E7
100
AcDbEntity
  8
1
  6
Continuous
 62
     7
100
AcDbLine
 10
854.2025242404035
 20
270.2522363659958
 30
0.0
 11
861.1171398673016
 21
267.5508746923
 31
0.0
  0
LINE
  5
FB6
330
1E7
100
AcDbEntity
  8
1
  6
Continuous
 62
     7
100
AcDbLine
 10
861.1171398673016
 20
267.5508746923
 30
0.0
 11
868.2632394762514
 21
265.5402716636468
 31
0.0
  0
LINE
  5
FB7
330
1E7
100
AcDbEntity
  8
1
  6
Continuous
 62
     7
100
AcDbLine
 10
868.2632394762514
 20
265.5402716636468
 30
0.0
 11
875.5720022215628
 21
264.2397904863102
 31
0.0
  0
LINE
  5
FB8
330
1E7
100
AcDbEntity
  8
1
  6
Continuous
 62
     7
100
AcDbLine
 10
875.5720022215628
 20
264.2397904863102
 30
0.0
 11
882.9730407226225
 21
263.6619555049425
 31
0.0
  0
LINE
  5
FB9
330
1E7
100
AcDbEntity
  8
1
  6
Continuous
 62
     7
100
AcDbLine
 10
882.9730407226225
 20
263.6619555049425
 30
0.0
 11
890.3950789328458
 21
263.8123315862915
 31
0.0
  0
LINE
  5
FBA
330
1E7
100
AcDbEntity
  8
1
  6
Continuous
 62
     7
100
AcDbLine
 10
890.3950789328458
 20
263.8123315862915
 30
0.0
 11
897.7666385669701
 21
264.6894705264892
 31
0.0
  0
LINE
  5
FBB
330
1E7
100
AcDbEntity
  8
1
  6
Continuous
 62
     7
100
AcDbLine
 10
897.7666385669701
 20
264.6894705264892
 30
0.0
 11
905.0167274760136
 21
266.2849249980495
 31
0.0
  0
LINE
  5
FBC
330
1E7
100
AcDbEntity
  8
1
  6
Continuous
 62
     7
100
AcDbLine
 10
905.0167274760136
 20
266.2849249980495
 30
0.0
 11
912.0755233404807
 21
268.5833299022466
 31
0.0
  0
LINE
  5
FBD
330
1E7
100
AcDbEntity
  8
1
  6
Continuous
 62
     7
100
AcDbLine
 10
912.0755233404807
 20
268.5833299022466
 30
0.0
 11
918.8750460974672
 21
271.5625503434173
 31
0.0
  0
LINE
  5
FBE
330
1E7
100
AcDbEntity
  8
1
  6
Continuous
 62
     7
100
AcDbLine
 10
918.8750460974672
 20
271.5625503434173
 30
0.0
 11
925.3498126258246
 21
275.1938948001053
 31
0.0
  0
LINE
  5
FBF
330
1E7
100
AcDbEntity
  8
1
  6
Continuous
 62
     7
100
AcDbLine
 10
925.3498126258246
 20
275.1938948001053
 30
0.0
 11
931.4374673844183
 21
279.4423914400983
 31
0.0
  0
LINE
  5
FC0
330
1E7
100
AcDbEntity
  8
1
  6
Continuous
 62
     7
100
AcDbLine
 10
931.4374673844183
 20
279.4423914400983
 30
0.0
 11
934.4919836173039
 21
282.0544877412966
 31
0.0
  0
LINE
  5
FC1
330
1E7
100
AcDbEntity
  8
1
  6
Continuous
 62
     7
100
AcDbLine
 10
836.7272095263945
 20
281.1136970155406
 30
0.0
 11
836.0041169856557
 21
281.9115066909668
 31
0.0
  0
LINE
  5
FC2
330
1E7
100
AcDbEntity
  8
1
  6
Continuous
 62
     7
100
AcDbLine
 10
836.0041169856557
 20
281.9115066909668
 30
0.0
 11
834.2036399074975
 21
283.5433639936396
 31
0.0
  0
LINE
  5
FC3
330
1E7
100
AcDbEntity
  8
1
  6
Continuous
 62
     7
100
AcDbLine
 10
834.2036399074975
 20
283.5433639936396
 30
0.0
 11
832.2518826323571
 21
284.9908858429376
 31
0.0
  0
LINE
  5
FC4
330
1E7
100
AcDbEntity
  8
1
  6
Continuous
 62
     7
100
AcDbLine
 10
832.2518826323571
 20
284.9908858429376
 30
0.0
 11
830.1676416497331
 21
286.2401318121568
 31
0.0
  0
LINE
  5
FC5
330
1E7
100
AcDbEntity
  8
1
  6
Continuous
 62
     7
100
AcDbLine
 10
830.1676416497331
 20
286.2401318121568
 30
0.0
 11
827.9709893396502
 21
287.2790709797066
 31
0.0
  0
LINE
  5
FC6
330
1E7
100
AcDbEntity
  8
1
  6
Continuous
 62
     7
100
AcDbLine
 10
827.9709893396502
 20
287.2790709797066
 30
0.0
 11
825.6830806646672
 21
288.0976977934603
 31
0.0
  0
LINE
  5
FC7
330
1E7
100
AcDbEntity
  8
1
  6
Continuous
 62
     7
100
AcDbLine
 10
825.6830806646672
 20
288.0976977934603
 30
0.0
 11
823.3259494360222
 21
288.6881284296956
 31
0.0
  0
LINE
  5
FC8
330
1E7
100
AcDbEntity
  8
1
  6
Continuous
 62
     7
100
AcDbLine
 10
823.3259494360222
 20
288.6881284296956
 30
0.0
 11
820.9222961159859
 21
289.0446767186228
 31
0.0
  0
LINE
  5
FC9
330
1E7
100
AcDbEntity
  8
1
  6
Continuous
 62
     7
100
AcDbLine
 10
820.9222961159859
 20
289.0446767186228
 30
0.0
 11
818.4952692000003
 21
289.1639089053112
 31
0.0
  0
LINE
  5
FCA
330
1E7
100
AcDbEntity
  8
1
  6
Continuous
 62
     7
100
AcDbLine
 10
818.4952692000003
 20
289.1639089053112
 30
0.0
 11
816.0682422840155
 21
289.0446767186228
 31
0.0
  0
LINE
  5
FCB
330
1E7
100
AcDbEntity
  8
1
  6
Continuous
 62
     7
100
AcDbLine
 10
816.0682422840155
 20
289.0446767186228
 30
0.0
 11
813.6645889639783
 21
288.6881284296956
 31
0.0
  0
LINE
  5
FCC
330
1E7
100
AcDbEntity
  8
1
  6
Continuous
 62
     7
100
AcDbLine
 10
813.6645889639783
 20
288.6881284296956
 30
0.0
 11
811.3074577353332
 21
288.0976977934602
 31
0.0
  0
LINE
  5
FCD
330
1E7
100
AcDbEntity
  8
1
  6
Continuous
 62
     7
100
AcDbLine
 10
811.3074577353332
 20
288.0976977934602
 30
0.0
 11
809.0195490603505
 21
287.2790709797063
 31
0.0
  0
LINE
  5
FCE
330
1E7
100
AcDbEntity
  8
1
  6
Continuous
 62
     7
100
AcDbLine
 10
809.0195490603505
 20
287.2790709797063
 30
0.0
 11
806.8228967502678
 21
286.2401318121566
 31
0.0
  0
LINE
  5
FCF
330
1E7
100
AcDbEntity
  8
1
  6
Continuous
 62
     7
100
AcDbLine
 10
806.8228967502678
 20
286.2401318121566
 30
0.0
 11
804.7386557676443
 21
284.9908858429374
 31
0.0
  0
LINE
  5
FD0
330
1E7
100
AcDbEntity
  8
1
  6
Continuous
 62
     7
100
AcDbLine
 10
804.7386557676443
 20
284.9908858429374
 30
0.0
 11
802.7868984925035
 21
283.5433639936391
 31
0.0
  0
LINE
  5
FD1
330
1E7
100
AcDbEntity
  8
1
  6
Continuous
 62
     7
100
AcDbLine
 10
802.7868984925035
 20
283.5433639936391
 30
0.0
 11
800.9864214143449
 21
281.9115066909665
 31
0.0
  0
LINE
  5
FD2
330
1E7
100
AcDbEntity
  8
1
  6
Continuous
 62
     7
100
AcDbLine
 10
800.9864214143449
 20
281.9115066909665
 30
0.0
 11
799.3545641116724
 21
280.111029612808
 31
0.0
  0
LINE
  5
FD3
330
1E7
100
AcDbEntity
  8
1
  6
Continuous
 62
     7
100
AcDbLine
 10
799.3545641116724
 20
280.111029612808
 30
0.0
 11
797.9070422623745
 21
278.1592723376677
 31
0.0
  0
LINE
  5
FD4
330
1E7
100
AcDbEntity
  8
1
  6
Continuous
 62
     7
100
AcDbLine
 10
797.9070422623745
 20
278.1592723376677
 30
0.0
 11
796.6577962931551
 21
276.0750313550436
 31
0.0
  0
LINE
  5
FD5
330
1E7
100
AcDbEntity
  8
1
  6
Continuous
 62
     7
100
AcDbLine
 10
796.6577962931551
 20
276.0750313550436
 30
0.0
 11
795.6188571256058
 21
273.8783790449608
 31
0.0
  0
LINE
  5
FD6
330
1E7
100
AcDbEntity
  8
1
  6
Continuous
 62
     7
100
AcDbLine
 10
795.6188571256058
 20
273.8783790449608
 30
0.0
 11
794.8002303118518
 21
271.5904703699781
 31
0.0
  0
LINE
  5
FD7
330
1E7
100
AcDbEntity
  8
1
  6
Continuous
 62
     7
100
AcDbLine
 10
794.8002303118518
 20
271.5904703699781
 30
0.0
 11
794.2097996756161
 21
269.2333391413329
 31
0.0
  0
LINE
  5
FD8
330
1E7
100
AcDbEntity
  8
1
  6
Continuous
 62
     7
100
AcDbLine
 10
794.2097996756161
 20
269.2333391413329
 30
0.0
 11
793.8532513866887
 21
266.8296858212963
 31
0.0
  0
LINE
  5
FD9
330
1E7
100
AcDbEntity
  8
1
  6
Continuous
 62
     7
100
AcDbLine
 10
793.8532513866887
 20
266.8296858212963
 30
0.0
 11
793.5588907075921
 21
260.8378365478407
 31
0.0
  0
LINE
  5
1121
330
1E7
100
AcDbEntity
  8
1
  6
Continuous
 62
     4
100
AcDbLine
 10
867.9993750000001
 20
797.6565264660544
 30
0.0
 11
867.1493661641985
 21
796.7711005954281
 31
0.0
  0
LINE
  5
1170
330
1E7
100
AcDbEntity
  8
1
  6
Continuous
 62
     7
100
AcDbLine
 10
953.7187499999999
 20
661.5461005954282
 30
0.0
 11
952.466258381805
 21
666.2855466413705
 31
0.0
  0
LINE
  5
1171
330
1E7
100
AcDbEntity
  8
1
  6
Continuous
 62
     7
100
AcDbLine
 10
952.466258381805
 20
666.2855466413705
 30
0.0
 11
948.9458445779753
 21
669.8244135254912
 31
0.0
  0
LINE
  5
1172
330
1E7
100
AcDbEntity
  8
1
  6
Continuous
 62
     7
100
AcDbLine
 10
948.9458445779753
 20
669.8244135254912
 30
0.0
 11
944.1950624643718
 21
671.0692257540942
 31
0.0
  0
LINE
  5
1173
330
1E7
100
AcDbEntity
  8
1
  6
Continuous
 62
     7
100
AcDbLine
 10
816.5812499999997
 20
661.546100595428
 30
0.0
 11
817.8337416181943
 21
666.2855466413702
 31
0.0
  0
LINE
  5
1174
330
1E7
100
AcDbEntity
  8
1
  6
Continuous
 62
     7
100
AcDbLine
 10
817.8337416181943
 20
666.2855466413702
 30
0.0
 11
821.3541554220237
 21
669.8244135254907
 31
0.0
  0
LINE
  5
1175
330
1E7
100
AcDbEntity
  8
1
  6
Continuous
 62
     7
100
AcDbLine
 10
821.3541554220237
 20
669.8244135254907
 30
0.0
 11
826.1049375356273
 21
671.0692257540937
 31
0.0
  0
LINE
  5
1237
330
1E7
100
AcDbEntity
  8
1
  6
Continuous
 62
     7
100
AcDbLine
 10
862.1831984001575
 20
411.6610328653607
 30
0.0
 11
879.4406249999997
 21
395.7367255954281
 31
0.0
  0
LINE
  5
1238
330
1E7
100
AcDbEntity
  8
1
  6
Continuous
 62
     7
100
AcDbLine
 10
879.4406249999997
 20
315.5129755954283
 30
0.0
 11
879.4406249999997
 21
395.7367255954281
 31
0.0
  0
LINE
  5
1268
330
1E7
100
AcDbEntity
  8
1
  6
Continuous
 62
     7
100
AcDbLine
 10
885.1500000000001
 20
263.7060623386878
 30
0.0
 11
885.1499999999997
 21
916.9604755954278
 31
0.0
  0
LINE
  5
12CB
330
1E7
100
AcDbEntity
  8
1
  6
Continuous
 62
     7
100
AcDbLine
 10
894.673125
 20
916.9604755954278
 30
0.0
 11
898.486875
 21
913.1523505954286
 31
0.0
  0
LINE
  5
12CC
330
1E7
100
AcDbEntity
  8
1
  6
Continuous
 62
     7
100
AcDbLine
 10
875.6268749999996
 20
916.9604755954278
 30
0.0
 11
871.8243749999997
 21
913.1523505954286
 31
0.0
  0
LINE
  5
137F
330
1E7
100
AcDbEntity
  8
1
  6
Continuous
 62
     7
100
AcDbLine
 10
843.623693088644
 20
406.8798505954283
 30
0.0
 11
841.809375
 21
420.0423505954281
 31
0.0
  0
LINE
  5
1380
330
1E7
100
AcDbEntity
  8
1
  6
Continuous
 62
     7
100
AcDbLine
 10
859.6140332325189
 20
422.495602042915
 30
0.0
 11
841.809375
 21
420.0423505954281
 31
0.0
  0
LINE
  5
1381
330
1E7
100
AcDbEntity
  8
1
  6
Continuous
 62
     3
100
AcDbLine
 10
856.3146155138252
 20
314.8098505954282
 30
0.0
 11
843.6236930886439
 21
406.8798505954283
 31
0.0
  0
LINE
  5
1382
330
1E7
100
AcDbEntity
  8
1
  6
Continuous
 62
     7
100
AcDbLine
 10
862.1831984001575
 20
411.6610328653607
 30
0.0
 11
860.6700000000003
 21
422.6411005954281
 31
0.0
  0
LINE
  5
1383
330
1E7
100
AcDbEntity
  8
1
  6
Continuous
 62
     3
100
AcDbLine
 10
875.8652058558572
 20
312.3816729801967
 30
0.0
 11
862.1831984001573
 21
411.6610328653609
 31
0.0
  0
ENDSEC
  0
SECTION
  2
OBJECTS
  0
DICTIONARY
  5
1D5
330
0
100
AcDbDictionary
281
     1
  3
ACAD_COLOR
350
948
  3
ACAD_GROUP
350
1D6
  3
ACAD_LAYOUT
350
1E2
  3
ACAD_MATERIAL
350
91B
  3
ACAD_MLEADERSTYLE
350
96D
  3
ACAD_MLINESTYLE
350
1DF
  3
ACAD_PLOTSETTINGS
350
1E1
  3
ACAD_PLOTSTYLENAME
350
1D7
  3
ACAD_SCALELIST
350
94B
  3
ACAD_TABLESTYLE
350
949
  3
ACAD_VISUALSTYLE
350
934
  3
ACDB_RECOMPOSE_DATA
350
1339
  3
AcDbVariableDictionary
350
39B
  3
DWGPROPS
350
133A
  0
DICTIONARY
  5
972
330
1D9
100
AcDbDictionary
280
     1
281
     1
  3
ADSK_XREC_LAYER_RECONCILED
360
973
  0
DICTIONARY
  5
978
330
1F4
100
AcDbDictionary
280
     1
281
     1
  3
ADSK_XREC_LAYER_RECONCILED
360
979
  0
DICTIONARY
  5
B2E
330
1E7
100
AcDbDictionary
280
     1
281
     1
  3
ACAD_SORTENTS
360
B2F
  0
DICTIONARY
  5
948
102
{ACAD_REACTORS
330
1D5
102
}
330
1D5
100
AcDbDictionary
281
     1
  0
DICTIONARY
  5
1D6
102
{ACAD_REACTORS
330
1D5
102
}
330
1D5
100
AcDbDictionary
281
     1
  0
DICTIONARY
  5
1E2
102
{ACAD_REACTORS
330
1D5
102
}
330
1D5
100
AcDbDictionary
281
     1
  3
Layout1
350
1E6
  3
Model
350
1EA
  0
DICTIONARY
  5
91B
102
{ACAD_REACTORS
330
1D5
102
}
330
1D5
100
AcDbDictionary
281
     1
  3
ByBlock
350
924
  3
ByLayer
350
91C
  3
Global
350
92C
  0
DICTIONARY
  5
96D
102
{ACAD_REACTORS
330
1D5
102
}
330
1D5
100
AcDbDictionary
281
     1
  3
Standard
350
96E
  0
DICTIONARY
  5
1DF
102
{ACAD_REACTORS
330
1D5
102
}
330
1D5
100
AcDbDictionary
281
     1
  3
Standard
350
1E0
  0
DICTIONARY
  5
1E1
102
{ACAD_REACTORS
330
1D5
102
}
330
1D5
100
AcDbDictionary
281
     1
  0
ACDBDICTIONARYWDFLT
  5
1D7
102
{ACAD_REACTORS
330
1D5
102
}
330
1D5
100
AcDbDictionary
281
     1
  3
Normal
350
1D8
100
AcDbDictionaryWithDefault
340
1D8
  0
DICTIONARY
  5
94B
102
{ACAD_REACTORS
330
1D5
102
}
330
1D5
100
AcDbDictionary
281
     1
  3
A0
350
94C
  3
A1
350
94D
  3
A2
350
94E
  3
A3
350
94F
  3
A4
350
950
  3
A5
350
951
  3
A6
350
952
  3
A7
350
953
  3
A8
350
954
  3
A9
350
955
  3
B0
350
956
  3
B1
350
957
  3
B2
350
958
  3
B3
350
959
  3
B4
350
95A
  3
B5
350
95B
  3
B6
350
95C
  3
B7
350
95D
  3
B8
350
95E
  3
B9
350
95F
  3
C0
350
960
  3
C1
350
961
  3
C2
350
962
  3
C3
350
963
  3
C4
350
964
  3
C5
350
965
  3
C6
350
966
  3
C7
350
967
  3
C8
350
968
  3
C9
350
969
  3
D0
350
96A
  3
D1
350
96B
  3
D2
350
96C
  0
DICTIONARY
  5
949
102
{ACAD_REACTORS
330
1D5
102
}
330
1D5
100
AcDbDictionary
281
     1
  3
Standard
350
94A
  0
DICTIONARY
  5
934
102
{ACAD_REACTORS
330
1D5
102
}
330
1D5
100
AcDbDictionary
281
     1
  3
2dWireframe
350
93A
  3
3D Hidden
350
93C
  3
3dWireframe
350
93B
  3
Basic
350
939
  3
Brighten
350
940
  3
ColorChange
350
944
  3
Conceptual
350
93D
  3
Dim
350
93F
  3
EdgeColorOff
350
947
  3
Facepattern
350
943
  3
Flat
350
935
  3
FlatWithEdges
350
936
  3
Gouraud
350
937
  3
GouraudWithEdges
350
938
  3
JitterOff
350
945
  3
Linepattern
350
942
  3
OverhangOff
350
946
  3
Realistic
350
93E
  3
Thicken
350
941
  0
XRECORD
  5
1339
102
{ACAD_REACTORS
330
1D5
102
}
330
1D5
100
AcDbXrecord
280
     1
 90
        1
330
94A
  0
DICTIONARY
  5
39B
102
{ACAD_REACTORS
330
1D5
102
}
330
1D5
100
AcDbDictionary
281
     1
  3
CANNOSCALE
350
97C
  3
CMLEADERSTYLE
350
97B
  3
CTABLESTYLE
350
97A
  3
DIMASSOC
350
97E
  3
INDEXCTL
350
97D
  3
SORTENTS
350
39C
  3
XCLIPFRAME
350
1337
  0
XRECORD
  5
133A
102
{ACAD_REACTORS
330
1D5
102
}
330
1D5
100
AcDbXrecord
280
     1
  1
DWGPROPS COOKIE
  2

  3

  4

  6

  7

  8
johnb_000
  9

300
=
301
=
302
=
303
=
304
=
305
=
306
=
307
=
308
=
309
=
 40
0.1604417476851852
 41
2453238.927800926
 42
2457597.32161265
  1

 90
        0
  0
XRECORD
  5
973
102
{ACAD_REACTORS
330
972
102
}
330
972
100
AcDbXrecord
280
     1
290
     1
  0
XRECORD
  5
979
102
{ACAD_REACTORS
330
978
102
}
330
978
100
AcDbXrecord
280
     1
290
     1
  0
SORTENTSTABLE
  5
B2F
102
{ACAD_REACTORS
330
B2E
102
}
330
B2E
100
AcDbSortentsTable
330
1E7
331
66B
  5
66B
331
915
  5
BC7
331
69C
  5
69C
331
67E
  5
67E
331
660
  5
660
331
677
  5
677
331
659
  5
659
331
691
  5
691
331
916
  5
BC8
331
68A
  5
68A
331
66C
  5
66C
331
90B
  5
916
331
69D
  5
69D
331
67F
  5
67F
331
661
  5
661
331
65A
  5
65A
331
692
  5
692
331
68B
  5
68B
331
66D
  5
66D
331
90C
  5
971
331
69E
  5
69E
331
680
  5
680
331
662
  5
662
331
65B
  5
65B
331
693
  5
693
331
68C
  5
68C
331
66E
  5
66E
331
663
  5
663
331
90D
  5
B2D
331
69F
  5
69F
331
681
  5
681
331
694
  5
694
331
68D
  5
68D
331
66F
  5
66F
331
6A0
  5
6A0
331
682
  5
682
331
664
  5
664
331
BC9
  5
7FE
331
853
  5
85C
331
695
  5
695
331
7F4
  5
7F7
331
68E
  5
68E
331
670
  5
670
331
665
  5
665
331
6A1
  5
6A1
331
683
  5
683
331
678
  5
678
331
696
  5
696
331
68F
  5
68F
331
671
  5
671
331
910
  5
B30
331
6A2
  5
6A2
331
666
  5
666
331
65F
  5
65F
331
697
  5
697
331
679
  5
679
331
672
  5
672
331
667
  5
667
331
911
  5
B31
331
6A3
  5
6A3
331
685
  5
685
331
698
  5
698
331
67A
  5
67A
331
673
  5
673
331
7F7
  5
7FA
331
655
  5
655
331
912
  5
B32
331
686
  5
686
331
668
  5
668
331
699
  5
699
331
67B
  5
67B
331
674
  5
674
331
656
  5
656
331
BC6
  5
7FB
331
669
  5
669
331
687
  5
687
331
913
  5
B61
331
69A
  5
69A
331
67C
  5
67C
331
908
  5
913
331
675
  5
675
331
BC7
  5
7FF
331
657
  5
657
331
914
  5
BC6
331
688
  5
688
331
66A
  5
66A
331
909
  5
914
331
69B
  5
69B
331
67D
  5
67D
331
658
  5
658
331
690
  5
690
  0
LAYOUT
  5
1E6
102
{ACAD_XDICTIONARY
360
133B
102
}
102
{ACAD_REACTORS
330
1E2
102
}
330
1E2
100
AcDbPlotSettings
  1

  2
HP DeskJet 840C/841C/842C/843C
  4

  6

 40
0.0
 41
0.0
 42
0.0
 43
0.0
 44
0.0
 45
0.0
 46
0.0
 47
0.0
 48
0.0
 49
0.0
140
0.0
141
0.0
142
1.0
143
1.0
 70
   688
 72
     0
 73
     0
 74
     5
  7

 75
    16
147
1.0
148
0.0
149
0.0
100
AcDbLayout
  1
Layout1
 70
     0
 71
     1
 10
0.0
 20
0.0
 11
12.0
 21
9.0
 12
0.0
 22
0.0
 32
0.0
 14
-1.000000000000000E+20
 24
-1.000000000000000E+20
 34
-1.000000000000000E+20
 15
-1.000000000000000E+20
 25
-1.000000000000000E+20
 35
-1.000000000000000E+20
146
0.0
 13
0.0
 23
0.0
 33
0.0
 16
1.0
 26
0.0
 36
0.0
 17
0.0
 27
1.0
 37
0.0
 76
     0
330
1E3
  0
LAYOUT
  5
1EA
102
{ACAD_XDICTIONARY
360
133D
102
}
102
{ACAD_REACTORS
330
1E2
102
}
330
1E2
100
AcDbPlotSettings
  1

  2
HP DeskJet 840C/841C/842C/843C
  4

  6

 40
0.0
 41
0.0
 42
0.0
 43
0.0
 44
0.0
 45
0.0
 46
0.0
 47
0.0
 48
0.0
 49
0.0
140
0.0
141
0.0
142
1.0
143
1.0
 70
  1712
 72
     0
 73
     0
 74
     0
  7

 75
     0
147
1.0
148
0.0
149
0.0
100
AcDbLayout
  1
Model
 70
     1
 71
     0
 10
0.0
 20
0.0
 11
12.0
 21
9.0
 12
0.0
 22
0.0
 32
0.0
 14
0.0
 24
0.0
 34
0.0
 15
0.0
 25
0.0
 35
0.0
146
0.0
 13
0.0
 23
0.0
 33
0.0
 16
1.0
 26
0.0
 36
0.0
 17
0.0
 27
1.0
 37
0.0
 76
     0
330
1E7
331
1332
  0
MATERIAL
  5
924
102
{ACAD_XDICTIONARY
360
925
102
}
102
{ACAD_REACTORS
330
91B
102
}
330
91B
100
AcDbMaterial
  1
ByBlock
 72
     0
 43
0.0208333333333333
 43
0.0
 43
0.0
 43
0.0
 43
0.0
 43
0.0208333333333333
 43
0.0
 43
0.0
 43
0.0
 43
0.0
 43
1.0
 43
0.0
 43
0.0
 43
0.0
 43
0.0
 43
1.0
 77
     0
 47
0.0208333333333333
 47
0.0
 47
0.0
 47
0.0
 47
0.0
 47
0.0208333333333333
 47
0.0
 47
0.0
 47
0.0
 47
0.0
 47
1.0
 47
0.0
 47
0.0
 47
0.0
 47
0.0
 47
1.0
171
     0
 49
0.0208333333333333
 49
0.0
 49
0.0
 49
0.0
 49
0.0
 49
0.0208333333333333
 49
0.0
 49
0.0
 49
0.0
 49
0.0
 49
1.0
 49
0.0
 49
0.0
 49
0.0
 49
0.0
 49
1.0
175
     0
142
0.0208333333333333
142
0.0
142
0.0
142
0.0
142
0.0
142
0.0208333333333333
142
0.0
142
0.0
142
0.0
142
0.0
142
1.0
142
0.0
142
0.0
142
0.0
142
0.0
142
1.0
179
     0
144
0.0208333333333333
144
0.0
144
0.0
144
0.0
144
0.0
144
0.0208333333333333
144
0.0
144
0.0
144
0.0
144
0.0
144
1.0
144
0.0
144
0.0
144
0.0
144
0.0
144
1.0
147
0.0208333333333333
147
0.0
147
0.0
147
0.0
147
0.0
147
0.0208333333333333
147
0.0
147
0.0
147
0.0
147
0.0
147
1.0
147
0.0
147
0.0
147
0.0
147
0.0
147
1.0
  0
MATERIAL
  5
91C
102
{ACAD_XDICTIONARY
360
91D
102
}
102
{ACAD_REACTORS
330
91B
102
}
330
91B
100
AcDbMaterial
  1
ByLayer
 72
     0
 43
0.0208333333333333
 43
0.0
 43
0.0
 43
0.0
 43
0.0
 43
0.0208333333333333
 43
0.0
 43
0.0
 43
0.0
 43
0.0
 43
1.0
 43
0.0
 43
0.0
 43
0.0
 43
0.0
 43
1.0
 77
     0
 47
0.0208333333333333
 47
0.0
 47
0.0
 47
0.0
 47
0.0
 47
0.0208333333333333
 47
0.0
 47
0.0
 47
0.0
 47
0.0
 47
1.0
 47
0.0
 47
0.0
 47
0.0
 47
0.0
 47
1.0
171
     0
 49
0.0208333333333333
 49
0.0
 49
0.0
 49
0.0
 49
0.0
 49
0.0208333333333333
 49
0.0
 49
0.0
 49
0.0
 49
0.0
 49
1.0
 49
0.0
 49
0.0
 49
0.0
 49
0.0
 49
1.0
175
     0
142
0.0208333333333333
142
0.0
142
0.0
142
0.0
142
0.0
142
0.0208333333333333
142
0.0
142
0.0
142
0.0
142
0.0
142
1.0
142
0.0
142
0.0
142
0.0
142
0.0
142
1.0
179
     0
144
0.0208333333333333
144
0.0
144
0.0
144
0.0
144
0.0
144
0.0208333333333333
144
0.0
144
0.0
144
0.0
144
0.0
144
1.0
144
0.0
144
0.0
144
0.0
144
0.0
144
1.0
147
0.0208333333333333
147
0.0
147
0.0
147
0.0
147
0.0
147
0.0208333333333333
147
0.0
147
0.0
147
0.0
147
0.0
147
1.0
147
0.0
147
0.0
147
0.0
147
0.0
147
1.0
  0
MATERIAL
  5
92C
102
{ACAD_XDICTIONARY
360
92D
102
}
102
{ACAD_REACTORS
330
91B
102
}
330
91B
100
AcDbMaterial
  1
Global
 72
     0
 43
0.0208333333333333
 43
0.0
 43
0.0
 43
0.0
 43
0.0
 43
0.0208333333333333
 43
0.0
 43
0.0
 43
0.0
 43
0.0
 43
1.0
 43
0.0
 43
0.0
 43
0.0
 43
0.0
 43
1.0
 77
     0
 47
0.0208333333333333
 47
0.0
 47
0.0
 47
0.0
 47
0.0
 47
0.0208333333333333
 47
0.0
 47
0.0
 47
0.0
 47
0.0
 47
1.0
 47
0.0
 47
0.0
 47
0.0
 47
0.0
 47
1.0
171
     0
 49
0.0208333333333333
 49
0.0
 49
0.0
 49
0.0
 49
0.0
 49
0.0208333333333333
 49
0.0
 49
0.0
 49
0.0
 49
0.0
 49
1.0
 49
0.0
 49
0.0
 49
0.0
 49
0.0
 49
1.0
175
     0
142
0.0208333333333333
142
0.0
142
0.0
142
0.0
142
0.0
142
0.0208333333333333
142
0.0
142
0.0
142
0.0
142
0.0
142
1.0
142
0.0
142
0.0
142
0.0
142
0.0
142
1.0
179
     0
144
0.0208333333333333
144
0.0
144
0.0
144
0.0
144
0.0
144
0.0208333333333333
144
0.0
144
0.0
144
0.0
144
0.0
144
1.0
144
0.0
144
0.0
144
0.0
144
0.0
144
1.0
147
0.0208333333333333
147
0.0
147
0.0
147
0.0
147
0.0
147
0.0208333333333333
147
0.0
147
0.0
147
0.0
147
0.0
147
1.0
147
0.0
147
0.0
147
0.0
147
0.0
147
1.0
  0
MLEADERSTYLE
  5
96E
102
{ACAD_REACTORS
330
96D
102
}
330
96D
100
AcDbMLeaderStyle
170
     2
171
     1
172
     0
 90
        2
 40
0.0
 41
0.0
173
     1
 91
-1056964608
340
1DC
 92
       -2
290
     1
 42
0.09
291
     1
 43
0.36
  3
Standard
 44
0.18
300

342
1DA
174
     1
178
     6
175
     1
176
     0
 93
-1056964608
 45
0.18
292
     0
297
     0
 46
0.18
 94
-1056964608
 47
1.0
 49
1.0
140
1.0
293
     1
141
0.0
294
     1
177
     0
142
1.0
295
     0
296
     0
143
0.125
1001
ACAD_MLEADERVER
1070
     2
  0
MLINESTYLE
  5
1E0
102
{ACAD_REACTORS
330
1DF
102
}
330
1DF
100
AcDbMlineStyle
  2
STANDARD
 70
     0
  3

 62
   256
 51
90.0
 52
90.0
 71
     2
 49
0.5
 62
   256
  6
BYLAYER
 49
-0.5
 62
   256
  6
BYLAYER
  0
ACDBPLACEHOLDER
  5
1D8
102
{ACAD_REACTORS
330
1D7
102
}
330
1D7
  0
SCALE
  5
94C
102
{ACAD_REACTORS
330
94B
102
}
330
94B
100
AcDbScale
 70
     0
300
1:1
140
1.0
141
1.0
290
     1
  0
SCALE
  5
94D
102
{ACAD_REACTORS
330
94B
102
}
330
94B
100
AcDbScale
 70
     0
300
1:2
140
1.0
141
2.0
290
     0
  0
SCALE
  5
94E
102
{ACAD_REACTORS
330
94B
102
}
330
94B
100
AcDbScale
 70
     0
300
1:4
140
1.0
141
4.0
290
     0
  0
SCALE
  5
94F
102
{ACAD_REACTORS
330
94B
102
}
330
94B
100
AcDbScale
 70
     0
300
1:5
140
1.0
141
5.0
290
     0
  0
SCALE
  5
950
102
{ACAD_REACTORS
330
94B
102
}
330
94B
100
AcDbScale
 70
     0
300
1:8
140
1.0
141
8.0
290
     0
  0
SCALE
  5
951
102
{ACAD_REACTORS
330
94B
102
}
330
94B
100
AcDbScale
 70
     0
300
1:10
140
1.0
141
10.0
290
     0
  0
SCALE
  5
952
102
{ACAD_REACTORS
330
94B
102
}
330
94B
100
AcDbScale
 70
     0
300
1:16
140
1.0
141
16.0
290
     0
  0
SCALE
  5
953
102
{ACAD_REACTORS
330
94B
102
}
330
94B
100
AcDbScale
 70
     0
300
1:20
140
1.0
141
20.0
290
     0
  0
SCALE
  5
954
102
{ACAD_REACTORS
330
94B
102
}
330
94B
100
AcDbScale
 70
     0
300
1:30
140
1.0
141
30.0
290
     0
  0
SCALE
  5
955
102
{ACAD_REACTORS
330
94B
102
}
330
94B
100
AcDbScale
 70
     0
300
1:40
140
1.0
141
40.0
290
     0
  0
SCALE
  5
956
102
{ACAD_REACTORS
330
94B
102
}
330
94B
100
AcDbScale
 70
     0
300
1:50
140
1.0
141
50.0
290
     0
  0
SCALE
  5
957
102
{ACAD_REACTORS
330
94B
102
}
330
94B
100
AcDbScale
 70
     0
300
1:100
140
1.0
141
100.0
290
     0
  0
SCALE
  5
958
102
{ACAD_REACTORS
330
94B
102
}
330
94B
100
AcDbScale
 70
     0
300
2:1
140
2.0
141
1.0
290
     0
  0
SCALE
  5
959
102
{ACAD_REACTORS
330
94B
102
}
330
94B
100
AcDbScale
 70
     0
300
4:1
140
4.0
141
1.0
290
     0
  0
SCALE
  5
95A
102
{ACAD_REACTORS
330
94B
102
}
330
94B
100
AcDbScale
 70
     0
300
8:1
140
8.0
141
1.0
290
     0
  0
SCALE
  5
95B
102
{ACAD_REACTORS
330
94B
102
}
330
94B
100
AcDbScale
 70
     0
300
10:1
140
10.0
141
1.0
290
     0
  0
SCALE
  5
95C
102
{ACAD_REACTORS
330
94B
102
}
330
94B
100
AcDbScale
 70
     0
300
100:1
140
100.0
141
1.0
290
     0
  0
SCALE
  5
95D
102
{ACAD_REACTORS
330
94B
102
}
330
94B
100
AcDbScale
 70
     0
300
1/128 = 1'-0
140
0.0078125
141
12.0
290
     0
  0
SCALE
  5
95E
102
{ACAD_REACTORS
330
94B
102
}
330
94B
100
AcDbScale
 70
     0
300
1/64 = 1'-0
140
0.015625
141
12.0
290
     0
  0
SCALE
  5
95F
102
{ACAD_REACTORS
330
94B
102
}
330
94B
100
AcDbScale
 70
     0
300
1/32 = 1'-0
140
0.03125
141
12.0
290
     0
  0
SCALE
  5
960
102
{ACAD_REACTORS
330
94B
102
}
330
94B
100
AcDbScale
 70
     0
300
1/16 = 1'-0
140
0.0625
141
12.0
290
     0
  0
SCALE
  5
961
102
{ACAD_REACTORS
330
94B
102
}
330
94B
100
AcDbScale
 70
     0
300
3/32 = 1'-0
140
0.09375
141
12.0
290
     0
  0
SCALE
  5
962
102
{ACAD_REACTORS
330
94B
102
}
330
94B
100
AcDbScale
 70
     0
300
1/8 = 1'-0
140
0.125
141
12.0
290
     0
  0
SCALE
  5
963
102
{ACAD_REACTORS
330
94B
102
}
330
94B
100
AcDbScale
 70
     0
300
3/16 = 1'-0
140
0.1875
141
12.0
290
     0
  0
SCALE
  5
964
102
{ACAD_REACTORS
330
94B
102
}
330
94B
100
AcDbScale
 70
     0
300
1/4 = 1'-0
140
0.25
141
12.0
290
     0
  0
SCALE
  5
965
102
{ACAD_REACTORS
330
94B
102
}
330
94B
100
AcDbScale
 70
     0
300
3/8 = 1'-0
140
0.375
141
12.0
290
     0
  0
SCALE
  5
966
102
{ACAD_REACTORS
330
94B
102
}
330
94B
100
AcDbScale
 70
     0
300
1/2 = 1'-0
140
0.5
141
12.0
290
     0
  0
SCALE
  5
967
102
{ACAD_REACTORS
330
94B
102
}
330
94B
100
AcDbScale
 70
     0
300
3/4 = 1'-0
140
0.75
141
12.0
290
     0
  0
SCALE
  5
968
102
{ACAD_REACTORS
330
94B
102
}
330
94B
100
AcDbScale
 70
     0
300
1 = 1'-0
140
1.0
141
12.0
290
     0
  0
SCALE
  5
969
102
{ACAD_REACTORS
330
94B
102
}
330
94B
100
AcDbScale
 70
     0
300
1-1/2 = 1'-0
140
1.5
141
12.0
290
     0
  0
SCALE
  5
96A
102
{ACAD_REACTORS
330
94B
102
}
330
94B
100
AcDbScale
 70
     0
300
3 = 1'-0
140
3.0
141
12.0
290
     0
  0
SCALE
  5
96B
102
{ACAD_REACTORS
330
94B
102
}
330
94B
100
AcDbScale
 70
     0
300
6 = 1'-0
140
6.0
141
12.0
290
     0
  0
SCALE
  5
96C
102
{ACAD_REACTORS
330
94B
102
}
330
94B
100
AcDbScale
 70
     0
300
1'-0 = 1'-0
140
12.0
141
12.0
290
     0
  0
TABLESTYLE
  5
94A
102
{ACAD_XDICTIONARY
360
9B3
102
}
102
{ACAD_REACTORS
330
949
102
}
330
949
100
AcDbTableStyle
  3
Standard
 70
     0
 71
     0
 40
0.06
 41
0.06
280
     0
281
     0
  7
STANDARD
140
0.18
170
     2
 62
     0
 63
     7
283
     0
274
    -2
284
     1
 64
     0
275
    -2
285
     1
 65
     0
276
    -2
286
     1
 66
     0
277
    -2
287
     1
 67
     0
278
    -2
288
     1
 68
     0
279
    -2
289
     1
 69
     0
  7
STANDARD
140
0.25
170
     5
 62
     0
 63
     7
283
     0
274
    -2
284
     1
 64
     0
275
    -2
285
     1
 65
     0
276
    -2
286
     1
 66
     0
277
    -2
287
     1
 67
     0
278
    -2
288
     1
 68
     0
279
    -2
289
     1
 69
     0
  7
STANDARD
140
0.18
170
     5
 62
     0
 63
     7
283
     0
274
    -2
284
     1
 64
     0
275
    -2
285
     1
 65
     0
276
    -2
286
     1
 66
     0
277
    -2
287
     1
 67
     0
278
    -2
288
     1
 68
     0
279
    -2
289
     1
 69
     0
  0
VISUALSTYLE
  5
93A
102
{ACAD_XDICTIONARY
360
1349
102
}
102
{ACAD_REACTORS
330
934
102
}
330
934
100
AcDbVisualStyle
  2

 70
     4
 71
     0
 72
     2
 73
     0
 90
        0
 40
-0.6
 41
-30.0
 62
     5
 63
     7
 74
     1
 91
        4
 64
     7
 65
   257
 75
     1
175
     1
 42
1.0
 92
        0
 66
   257
 43
1.0
 76
     1
 77
     6
 78
     2
 67
     7
 79
     5
170
     0
171
     0
290
     0
174
     0
 93
        1
 44
0.0
173
     0
291
     0
 45
0.0
1001
ACAD
1000
AcDbSavedByObjectVersion
1070
     0
  0
VISUALSTYLE
  5
93C
102
{ACAD_XDICTIONARY
360
134D
102
}
102
{ACAD_REACTORS
330
934
102
}
330
934
100
AcDbVisualStyle
  2

 70
     6
 71
     1
 72
     2
 73
     2
 90
        0
 40
-0.6
 41
-30.0
 62
     5
 63
     7
 74
     2
 91
        2
 64
     7
 65
   257
 75
     2
175
     1
 42
179.0
 92
        0
 66
   257
 43
1.0
 76
     1
 77
     6
 78
     2
 67
     7
 79
     3
170
     0
171
     0
290
     0
174
     0
 93
        1
 44
0.0
173
     0
291
     0
 45
0.0
1001
ACAD
1000
AcDbSavedByObjectVersion
1070
     0
  0
VISUALSTYLE
  5
93B
102
{ACAD_XDICTIONARY
360
134B
102
}
102
{ACAD_REACTORS
330
934
102
}
330
934
100
AcDbVisualStyle
  2

 70
     5
 71
     0
 72
     2
 73
     0
 90
        0
 40
-0.6
 41
-30.0
 62
     5
 63
     7
 74
     1
 91
        4
 64
     7
 65
   257
 75
     1
175
     1
 42
1.0
 92
        0
 66
   257
 43
1.0
 76
     1
 77
     6
 78
     2
 67
     7
 79
     5
170
     0
171
     0
290
     0
174
     0
 93
        1
 44
0.0
173
     0
291
     0
 45
0.0
1001
ACAD
1000
AcDbSavedByObjectVersion
1070
     0
  0
VISUALSTYLE
  5
939
102
{ACAD_XDICTIONARY
360
1347
102
}
102
{ACAD_REACTORS
330
934
102
}
330
934
100
AcDbVisualStyle
  2

 70
     7
 71
     1
 72
     0
 73
     1
 90
        0
 40
-0.6
 41
-30.0
 62
     5
 63
     7
 74
     0
 91
        4
 64
     7
 65
   257
 75
     1
175
     1
 42
1.0
 92
        8
 66
     7
 43
1.0
 76
     1
 77
     6
 78
     2
 67
     7
 79
     5
170
     0
171
     0
290
     0
174
     0
 93
        1
 44
0.0
173
     0
291
     1
 45
0.0
1001
ACAD
1000
AcDbSavedByObjectVersion
1070
     0
  0
VISUALSTYLE
  5
940
102
{ACAD_XDICTIONARY
360
1355
102
}
102
{ACAD_REACTORS
330
934
102
}
330
934
100
AcDbVisualStyle
  2

 70
    12
 71
     2
 72
     2
 73
     0
 90
        0
 40
-0.6
 41
-30.0
 62
     5
 63
     7
 74
     1
 91
        4
 64
     7
 65
   257
 75
     1
175
     1
 42
1.0
 92
        8
 66
     7
 43
1.0
 76
     1
 77
     6
 78
     2
 67
     7
 79
     5
170
     0
171
     0
290
     0
174
     0
 93
        1
 44
50.0
173
     0
291
     1
 45
0.0
1001
ACAD
1000
AcDbSavedByObjectVersion
1070
     0
  0
VISUALSTYLE
  5
944
102
{ACAD_XDICTIONARY
360
135D
102
}
102
{ACAD_REACTORS
330
934
102
}
330
934
100
AcDbVisualStyle
  2

 70
    16
 71
     2
 72
     2
 73
     3
 90
        0
 40
-0.6
 41
-30.0
 62
     5
 63
     8
 74
     1
 91
        4
 64
     7
 65
   257
 75
     1
175
     1
 42
1.0
 92
        8
 66
     8
 43
1.0
 76
     1
 77
     6
 78
     2
 67
     7
 79
     5
170
     0
171
     0
290
     0
174
     0
 93
        1
 44
0.0
173
     0
291
     1
 45
0.0
1001
ACAD
1000
AcDbSavedByObjectVersion
1070
     0
  0
VISUALSTYLE
  5
93D
102
{ACAD_XDICTIONARY
360
134F
102
}
102
{ACAD_REACTORS
330
934
102
}
330
934
100
AcDbVisualStyle
  2

 70
     9
 71
     3
 72
     2
 73
     0
 90
        0
 40
-0.6
 41
-30.0
 62
     5
 63
     7
 74
     2
 91
        2
 64
     7
 65
   257
 75
     1
175
     1
 42
179.0
 92
        8
 66
     7
 43
1.0
 76
     1
 77
     6
 78
     2
 67
     7
 79
     3
170
     0
171
     0
290
     0
174
     0
 93
        1
 44
0.0
173
     0
291
     0
 45
0.0
1001
ACAD
1000
AcDbSavedByObjectVersion
1070
     0
  0
VISUALSTYLE
  5
93F
102
{ACAD_XDICTIONARY
360
1353
102
}
102
{ACAD_REACTORS
330
934
102
}
330
934
100
AcDbVisualStyle
  2

 70
    11
 71
     2
 72
     2
 73
     0
 90
        0
 40
-0.6
 41
-30.0
 62
     5
 63
     7
 74
     1
 91
        4
 64
     7
 65
   257
 75
     1
175
     1
 42
1.0
 92
        8
 66
     7
 43
1.0
 76
     1
 77
     6
 78
     2
 67
     7
 79
     5
170
     0
171
     0
290
     0
174
     0
 93
        1
 44
-50.0
173
     0
291
     1
 45
0.0
1001
ACAD
1000
AcDbSavedByObjectVersion
1070
     0
  0
VISUALSTYLE
  5
947
102
{ACAD_XDICTIONARY
360
1363
102
}
102
{ACAD_REACTORS
330
934
102
}
330
934
100
AcDbVisualStyle
  2

 70
    22
 71
     2
 72
     2
 73
     0
 90
        0
 40
-0.6
 41
-30.0
 62
     5
 63
     7
 74
     1
 91
        4
 64
     7
 65
   257
 75
     1
175
     1
 42
1.0
 92
        8
 66
     7
 43
1.0
 76
     1
 77
     6
 78
     2
 67
     7
 79
     5
170
     0
171
     0
290
     0
174
     0
 93
        1
 44
0.0
173
     0
291
     1
 45
0.0
1001
ACAD
1000
AcDbSavedByObjectVersion
1070
     0
  0
VISUALSTYLE
  5
943
102
{ACAD_XDICTIONARY
360
135B
102
}
102
{ACAD_REACTORS
330
934
102
}
330
934
100
AcDbVisualStyle
  2

 70
    15
 71
     2
 72
     2
 73
     0
 90
        0
 40
-0.6
 41
-30.0
 62
     5
 63
     7
 74
     1
 91
        4
 64
     7
 65
   257
 75
     1
175
     1
 42
1.0
 92
        8
 66
     7
 43
1.0
 76
     1
 77
     6
 78
     2
 67
     7
 79
     5
170
     0
171
     0
290
     0
174
     0
 93
        1
 44
0.0
173
     0
291
     1
 45
0.0
1001
ACAD
1000
AcDbSavedByObjectVersion
1070
     0
  0
VISUALSTYLE
  5
935
102
{ACAD_XDICTIONARY
360
133F
102
}
102
{ACAD_REACTORS
330
934
102
}
330
934
100
AcDbVisualStyle
  2

 70
     0
 71
     2
 72
     1
 73
     1
 90
        2
 40
-0.6
 41
30.0
 62
     5
 63
     7
 74
     0
 91
        4
 64
     7
 65
   257
 75
     1
175
     1
 42
1.0
 92
        8
 66
     7
 43
1.0
 76
     1
 77
     6
 78
     2
 67
     7
 79
     5
170
     0
171
     0
290
     0
174
     0
 93
       13
 44
0.0
173
     0
291
     1
 45
0.0
1001
ACAD
1000
AcDbSavedByObjectVersion
1070
     0
  0
VISUALSTYLE
  5
936
102
{ACAD_XDICTIONARY
360
1341
102
}
102
{ACAD_REACTORS
330
934
102
}
330
934
100
AcDbVisualStyle
  2

 70
     1
 71
     2
 72
     1
 73
     1
 90
        2
 40
-0.6
 41
30.0
 62
     5
 63
     7
 74
     1
 91
        4
 64
     7
 65
   257
 75
     1
175
     1
 42
1.0
 92
        0
 66
   257
 43
1.0
 76
     1
 77
     6
 78
     2
 67
     7
 79
     5
170
     0
171
     0
290
     0
174
     0
 93
       13
 44
0.0
173
     0
291
     1
 45
0.0
1001
ACAD
1000
AcDbSavedByObjectVersion
1070
     0
  0
VISUALSTYLE
  5
937
102
{ACAD_XDICTIONARY
360
1343
102
}
102
{ACAD_REACTORS
330
934
102
}
330
934
100
AcDbVisualStyle
  2

 70
     2
 71
     2
 72
     2
 73
     1
 90
        2
 40
-0.6
 41
30.0
 62
     5
 63
     7
 74
     0
 91
        4
 64
     7
 65
   257
 75
     1
175
     1
 42
1.0
 92
        0
 66
     7
 43
1.0
 76
     1
 77
     6
 78
     2
 67
     7
 79
     5
170
     0
171
     0
290
     0
174
     0
 93
       13
 44
0.0
173
     0
291
     1
 45
0.0
1001
ACAD
1000
AcDbSavedByObjectVersion
1070
     0
  0
VISUALSTYLE
  5
938
102
{ACAD_XDICTIONARY
360
1345
102
}
102
{ACAD_REACTORS
330
934
102
}
330
934
100
AcDbVisualStyle
  2

 70
     3
 71
     2
 72
     2
 73
     1
 90
        2
 40
-0.6
 41
30.0
 62
     5
 63
     7
 74
     1
 91
        4
 64
     7
 65
   257
 75
     1
175
     1
 42
1.0
 92
        0
 66
   257
 43
1.0
 76
     1
 77
     6
 78
     2
 67
     7
 79
     5
170
     0
171
     0
290
     0
174
     0
 93
       13
 44
0.0
173
     0
291
     1
 45
0.0
1001
ACAD
1000
AcDbSavedByObjectVersion
1070
     0
  0
VISUALSTYLE
  5
945
102
{ACAD_XDICTIONARY
360
135F
102
}
102
{ACAD_REACTORS
330
934
102
}
330
934
100
AcDbVisualStyle
  2

 70
    20
 71
     2
 72
     2
 73
     0
 90
        0
 40
-0.6
 41
-30.0
 62
     5
 63
     7
 74
     1
 91
        4
 64
     7
 65
   257
 75
     1
175
     1
 42
1.0
 92
       10
 66
     7
 43
1.0
 76
     1
 77
     6
 78
     2
 67
     7
 79
     5
170
     0
171
     0
290
     0
174
     0
 93
        1
 44
0.0
173
     0
291
     1
 45
0.0
1001
ACAD
1000
AcDbSavedByObjectVersion
1070
     0
  0
VISUALSTYLE
  5
942
102
{ACAD_XDICTIONARY
360
1359
102
}
102
{ACAD_REACTORS
330
934
102
}
330
934
100
AcDbVisualStyle
  2

 70
    14
 71
     2
 72
     2
 73
     0
 90
        0
 40
-0.6
 41
-30.0
 62
     5
 63
     7
 74
     1
 91
        4
 64
     7
 65
   257
 75
     7
175
     7
 42
1.0
 92
        8
 66
     7
 43
1.0
 76
     1
 77
     6
 78
     2
 67
     7
 79
     5
170
     0
171
     0
290
     0
174
     0
 93
        1
 44
0.0
173
     0
291
     1
 45
0.0
1001
ACAD
1000
AcDbSavedByObjectVersion
1070
     0
  0
VISUALSTYLE
  5
946
102
{ACAD_XDICTIONARY
360
1361
102
}
102
{ACAD_REACTORS
330
934
102
}
330
934
100
AcDbVisualStyle
  2

 70
    21
 71
     2
 72
     2
 73
     0
 90
        0
 40
-0.6
 41
-30.0
 62
     5
 63
     7
 74
     1
 91
        4
 64
     7
 65
   257
 75
     1
175
     1
 42
1.0
 92
        9
 66
     7
 43
1.0
 76
     1
 77
     6
 78
     2
 67
     7
 79
     5
170
     0
171
     0
290
     0
174
     0
 93
        1
 44
0.0
173
     0
291
     1
 45
0.0
1001
ACAD
1000
AcDbSavedByObjectVersion
1070
     0
  0
VISUALSTYLE
  5
93E
102
{ACAD_XDICTIONARY
360
1351
102
}
102
{ACAD_REACTORS
330
934
102
}
330
934
100
AcDbVisualStyle
  2

 70
     8
 71
     2
 72
     2
 73
     0
 90
        0
 40
-0.6
 41
-30.0
 62
     5
 63
     7
 74
     1
 91
        0
 64
     7
 65
   257
 75
     1
175
     1
 42
1.0
 92
        8
 66
     8
 43
1.0
 76
     1
 77
     6
 78
     2
 67
     7
 79
     5
170
     0
171
     0
290
     0
174
     0
 93
       13
 44
0.0
173
     0
291
     0
 45
0.0
1001
ACAD
1000
AcDbSavedByObjectVersion
1070
     0
  0
VISUALSTYLE
  5
941
102
{ACAD_XDICTIONARY
360
1357
102
}
102
{ACAD_REACTORS
330
934
102
}
330
934
100
AcDbVisualStyle
  2

 70
    13
 71
     2
 72
     2
 73
     0
 90
        0
 40
-0.6
 41
-30.0
 62
     5
 63
     7
 74
     1
 91
        4
 64
     7
 65
   257
 75
     1
175
     1
 42
1.0
 92
       12
 66
     7
 43
1.0
 76
     1
 77
     6
 78
     2
 67
     7
 79
     5
170
     0
171
     0
290
     0
174
     0
 93
        1
 44
0.0
173
     0
291
     1
 45
0.0
1001
ACAD
1000
AcDbSavedByObjectVersion
1070
     0
  0
DICTIONARYVAR
  5
97C
102
{ACAD_REACTORS
330
39B
102
}
330
39B
100
DictionaryVariables
280
     0
  1
1:1
  0
DICTIONARYVAR
  5
97B
102
{ACAD_REACTORS
330
39B
102
}
330
39B
100
DictionaryVariables
280
     0
  1
STANDARD
  0
DICTIONARYVAR
  5
97A
102
{ACAD_REACTORS
330
39B
102
}
330
39B
100
DictionaryVariables
280
     0
  1
STANDARD
  0
DICTIONARYVAR
  5
97E
102
{ACAD_REACTORS
330
39B
102
}
330
39B
100
DictionaryVariables
280
     0
  1
1
  0
DICTIONARYVAR
  5
97D
102
{ACAD_REACTORS
330
39B
102
}
330
39B
100
DictionaryVariables
280
     0
  1
0
  0
DICTIONARYVAR
  5
39C
102
{ACAD_REACTORS
330
39B
102
}
330
39B
100
DictionaryVariables
280
     0
  1
96
  0
DICTIONARYVAR
  5
1337
102
{ACAD_REACTORS
330
39B
102
}
330
39B
100
DictionaryVariables
280
     0
  1
2
  0
DICTIONARY
  5
133B
330
1E6
100
AcDbDictionary
280
     1
281
     1
  3
ACAD_XREC_ROUNDTRIP
360
133C
  0
DICTIONARY
  5
133D
330
1EA
100
AcDbDictionary
280
     1
281
     1
  3
ACAD_XREC_ROUNDTRIP
360
133E
  0
DICTIONARY
  5
925
330
924
100
AcDbDictionary
280
     1
281
     1
  3
ACAD_XREC_ROUNDTRIP
360
9BC
  3
BUMPTILE
360
927
  3
DIFFUSETILE
360
926
  3
OPACITYTILE
360
92A
  3
REFLECTIONTILE
360
929
  3
REFRACTIONTILE
360
92B
  3
SPECULARTILE
360
928
  0
DICTIONARY
  5
91D
330
91C
100
AcDbDictionary
280
     1
281
     1
  3
ACAD_XREC_ROUNDTRIP
360
9BB
  3
BUMPTILE
360
91F
  3
DIFFUSETILE
360
91E
  3
OPACITYTILE
360
922
  3
REFLECTIONTILE
360
921
  3
REFRACTIONTILE
360
923
  3
SPECULARTILE
360
920
  0
DICTIONARY
  5
92D
330
92C
100
AcDbDictionary
280
     1
281
     1
  3
ACAD_XREC_ROUNDTRIP
360
9BD
  3
BUMPTILE
360
92F
  3
DIFFUSETILE
360
92E
  3
OPACITYTILE
360
932
  3
REFLECTIONTILE
360
931
  3
REFRACTIONTILE
360
933
  3
SPECULARTILE
360
930
  0
DICTIONARY
  5
9B3
330
94A
100
AcDbDictionary
280
     1
281
     1
  3
ACAD_ROUNDTRIP_2008_TABLESTYLE_CELLSTYLEMAP
360
1338
  3
ACAD_XREC_ROUNDTRIP
360
1365
  0
DICTIONARY
  5
1349
330
93A
100
AcDbDictionary
280
     1
281
     1
  3
ACAD_XREC_ROUNDTRIP
360
134A
  0
DICTIONARY
  5
134D
330
93C
100
AcDbDictionary
280
     1
281
     1
  3
ACAD_XREC_ROUNDTRIP
360
134E
  0
DICTIONARY
  5
134B
330
93B
100
AcDbDictionary
280
     1
281
     1
  3
ACAD_XREC_ROUNDTRIP
360
134C
  0
DICTIONARY
  5
1347
330
939
100
AcDbDictionary
280
     1
281
     1
  3
ACAD_XREC_ROUNDTRIP
360
1348
  0
DICTIONARY
  5
1355
330
940
100
AcDbDictionary
280
     1
281
     1
  3
ACAD_XREC_ROUNDTRIP
360
1356
  0
DICTIONARY
  5
135D
330
944
100
AcDbDictionary
280
     1
281
     1
  3
ACAD_XREC_ROUNDTRIP
360
135E
  0
DICTIONARY
  5
134F
330
93D
100
AcDbDictionary
280
     1
281
     1
  3
ACAD_XREC_ROUNDTRIP
360
1350
  0
DICTIONARY
  5
1353
330
93F
100
AcDbDictionary
280
     1
281
     1
  3
ACAD_XREC_ROUNDTRIP
360
1354
  0
DICTIONARY
  5
1363
330
947
100
AcDbDictionary
280
     1
281
     1
  3
ACAD_XREC_ROUNDTRIP
360
1364
  0
DICTIONARY
  5
135B
330
943
100
AcDbDictionary
280
     1
281
     1
  3
ACAD_XREC_ROUNDTRIP
360
135C
  0
DICTIONARY
  5
133F
330
935
100
AcDbDictionary
280
     1
281
     1
  3
ACAD_XREC_ROUNDTRIP
360
1340
  0
DICTIONARY
  5
1341
330
936
100
AcDbDictionary
280
     1
281
     1
  3
ACAD_XREC_ROUNDTRIP
360
1342
  0
DICTIONARY
  5
1343
330
937
100
AcDbDictionary
280
     1
281
     1
  3
ACAD_XREC_ROUNDTRIP
360
1344
  0
DICTIONARY
  5
1345
330
938
100
AcDbDictionary
280
     1
281
     1
  3
ACAD_XREC_ROUNDTRIP
360
1346
  0
DICTIONARY
  5
135F
330
945
100
AcDbDictionary
280
     1
281
     1
  3
ACAD_XREC_ROUNDTRIP
360
1360
  0
DICTIONARY
  5
1359
330
942
100
AcDbDictionary
280
     1
281
     1
  3
ACAD_XREC_ROUNDTRIP
360
135A
  0
DICTIONARY
  5
1361
330
946
100
AcDbDictionary
280
     1
281
     1
  3
ACAD_XREC_ROUNDTRIP
360
1362
  0
DICTIONARY
  5
1351
330
93E
100
AcDbDictionary
280
     1
281
     1
  3
ACAD_XREC_ROUNDTRIP
360
1352
  0
DICTIONARY
  5
1357
330
941
100
AcDbDictionary
280
     1
281
     1
  3
ACAD_XREC_ROUNDTRIP
360
1358
  0
XRECORD
  5
133C
102
{ACAD_REACTORS
330
133B
102
}
330
133B
100
AcDbXrecord
280
     1
102
SHADEPLOT
 70
     0
102
SHADEPLOTRESLEVEL
 70
     2
102
SHADEPLOTCUSTOMDPI
 70
   300
  0
XRECORD
  5
133E
102
{ACAD_REACTORS
330
133D
102
}
330
133D
100
AcDbXrecord
280
     1
102
SHADEPLOT
 70
     0
102
SHADEPLOTRESLEVEL
 70
     2
102
SHADEPLOTCUSTOMDPI
 70
   300
  0
XRECORD
  5
9BC
102
{ACAD_REACTORS
330
925
102
}
330
925
100
AcDbXrecord
280
     1
102
MATERIAL
148
0.0
149
0.0
149
0.0
 93
        0
 94
      127
282
     0
 72
     0
 77
     0
171
     0
175
     0
179
     0
273
     0
  0
XRECORD
  5
927
102
{ACAD_REACTORS
330
925
102
}
330
925
100
AcDbXrecord
280
     1
270
     1
271
     1
  0
XRECORD
  5
926
102
{ACAD_REACTORS
330
925
102
}
330
925
100
AcDbXrecord
280
     1
270
     1
271
     1
  0
XRECORD
  5
92A
102
{ACAD_REACTORS
330
925
102
}
330
925
100
AcDbXrecord
280
     1
270
     1
271
     1
  0
XRECORD
  5
929
102
{ACAD_REACTORS
330
925
102
}
330
925
100
AcDbXrecord
280
     1
270
     1
271
     1
  0
XRECORD
  5
92B
102
{ACAD_REACTORS
330
925
102
}
330
925
100
AcDbXrecord
280
     1
270
     1
271
     1
  0
XRECORD
  5
928
102
{ACAD_REACTORS
330
925
102
}
330
925
100
AcDbXrecord
280
     1
270
     1
271
     1
  0
XRECORD
  5
9BB
102
{ACAD_REACTORS
330
91D
102
}
330
91D
100
AcDbXrecord
280
     1
102
MATERIAL
148
0.0
149
0.0
149
0.0
 93
        0
 94
      127
282
     0
 72
     0
 77
     0
171
     0
175
     0
179
     0
273
     0
  0
XRECORD
  5
91F
102
{ACAD_REACTORS
330
91D
102
}
330
91D
100
AcDbXrecord
280
     1
270
     1
271
     1
  0
XRECORD
  5
91E
102
{ACAD_REACTORS
330
91D
102
}
330
91D
100
AcDbXrecord
280
     1
270
     1
271
     1
  0
XRECORD
  5
922
102
{ACAD_REACTORS
330
91D
102
}
330
91D
100
AcDbXrecord
280
     1
270
     1
271
     1
  0
XRECORD
  5
921
102
{ACAD_REACTORS
330
91D
102
}
330
91D
100
AcDbXrecord
280
     1
270
     1
271
     1
  0
XRECORD
  5
923
102
{ACAD_REACTORS
330
91D
102
}
330
91D
100
AcDbXrecord
280
     1
270
     1
271
     1
  0
XRECORD
  5
920
102
{ACAD_REACTORS
330
91D
102
}
330
91D
100
AcDbXrecord
280
     1
270
     1
271
     1
  0
XRECORD
  5
9BD
102
{ACAD_REACTORS
330
92D
102
}
330
92D
100
AcDbXrecord
280
     1
102
MATERIAL
148
0.0
149
0.0
149
0.0
 93
        0
 94
      127
282
     0
 72
     0
 77
     0
171
     0
175
     0
179
     0
273
     0
  0
XRECORD
  5
92F
102
{ACAD_REACTORS
330
92D
102
}
330
92D
100
AcDbXrecord
280
     1
270
     1
271
     1
  0
XRECORD
  5
92E
102
{ACAD_REACTORS
330
92D
102
}
330
92D
100
AcDbXrecord
280
     1
270
     1
271
     1
  0
XRECORD
  5
932
102
{ACAD_REACTORS
330
92D
102
}
330
92D
100
AcDbXrecord
280
     1
270
     1
271
     1
  0
XRECORD
  5
931
102
{ACAD_REACTORS
330
92D
102
}
330
92D
100
AcDbXrecord
280
     1
270
     1
271
     1
  0
XRECORD
  5
933
102
{ACAD_REACTORS
330
92D
102
}
330
92D
100
AcDbXrecord
280
     1
270
     1
271
     1
  0
XRECORD
  5
930
102
{ACAD_REACTORS
330
92D
102
}
330
92D
100
AcDbXrecord
280
     1
270
     1
271
     1
  0
CELLSTYLEMAP
  5
1338
102
{ACAD_REACTORS
330
9B3
102
}
330
9B3
100
AcDbCellStyleMap
 90
        3
300
CELLSTYLE
  1
TABLEFORMAT_BEGIN
 90
        5
170
     1
 91
        0
 92
    32768
 62
   257
 93
        1
300
CONTENTFORMAT
  1
CONTENTFORMAT_BEGIN
 90
        0
 91
        0
 92
      512
 93
        0
300

 40
0.0
140
1.0
 94
        5
 62
     0
340
1DA
144
0.25
309
CONTENTFORMAT_END
171
     1
301
MARGIN
  1
CELLMARGIN_BEGIN
 40
0.06
 40
0.06
 40
0.06
 40
0.06
 40
0.18
 40
0.18
309
CELLMARGIN_END
 94
        6
 95
        1
302
GRIDFORMAT
  1
GRIDFORMAT_BEGIN
 90
        0
 91
        1
 62
     0
 92
       -2
340
0
 93
        0
 40
0.045
309
GRIDFORMAT_END
 95
        2
302
GRIDFORMAT
  1
GRIDFORMAT_BEGIN
 90
        0
 91
        1
 62
     0
 92
       -2
340
0
 93
        0
 40
0.045
309
GRIDFORMAT_END
 95
        4
302
GRIDFORMAT
  1
GRIDFORMAT_BEGIN
 90
        0
 91
        1
 62
     0
 92
       -2
340
0
 93
        0
 40
0.045
309
GRIDFORMAT_END
 95
        8
302
GRIDFORMAT
  1
GRIDFORMAT_BEGIN
 90
        0
 91
        1
 62
     0
 92
       -2
340
0
 93
        0
 40
0.045
309
GRIDFORMAT_END
 95
       16
302
GRIDFORMAT
  1
GRIDFORMAT_BEGIN
 90
        0
 91
        1
 62
     0
 92
       -2
340
0
 93
        0
 40
0.045
309
GRIDFORMAT_END
 95
       32
302
GRIDFORMAT
  1
GRIDFORMAT_BEGIN
 90
        0
 91
        1
 62
     0
 92
       -2
340
0
 93
        0
 40
0.045
309
GRIDFORMAT_END
309
TABLEFORMAT_END
  1
CELLSTYLE_BEGIN
 90
        1
 91
        1
300
_TITLE
309
CELLSTYLE_END
300
CELLSTYLE
  1
TABLEFORMAT_BEGIN
 90
        5
170
     1
 91
        0
 92
        0
 62
   257
 93
        1
300
CONTENTFORMAT
  1
CONTENTFORMAT_BEGIN
 90
        0
 91
        0
 92
      512
 93
        0
300

 40
0.0
140
1.0
 94
        5
 62
     0
340
1DA
144
0.18
309
CONTENTFORMAT_END
171
     1
301
MARGIN
  1
CELLMARGIN_BEGIN
 40
0.06
 40
0.06
 40
0.06
 40
0.06
 40
0.18
 40
0.18
309
CELLMARGIN_END
 94
        6
 95
        1
302
GRIDFORMAT
  1
GRIDFORMAT_BEGIN
 90
        0
 91
        1
 62
     0
 92
       -2
340
0
 93
        0
 40
0.045
309
GRIDFORMAT_END
 95
        2
302
GRIDFORMAT
  1
GRIDFORMAT_BEGIN
 90
        0
 91
        1
 62
     0
 92
       -2
340
0
 93
        0
 40
0.045
309
GRIDFORMAT_END
 95
        4
302
GRIDFORMAT
  1
GRIDFORMAT_BEGIN
 90
        0
 91
        1
 62
     0
 92
       -2
340
0
 93
        0
 40
0.045
309
GRIDFORMAT_END
 95
        8
302
GRIDFORMAT
  1
GRIDFORMAT_BEGIN
 90
        0
 91
        1
 62
     0
 92
       -2
340
0
 93
        0
 40
0.045
309
GRIDFORMAT_END
 95
       16
302
GRIDFORMAT
  1
GRIDFORMAT_BEGIN
 90
        0
 91
        1
 62
     0
 92
       -2
340
0
 93
        0
 40
0.045
309
GRIDFORMAT_END
 95
       32
302
GRIDFORMAT
  1
GRIDFORMAT_BEGIN
 90
        0
 91
        1
 62
     0
 92
       -2
340
0
 93
        0
 40
0.045
309
GRIDFORMAT_END
309
TABLEFORMAT_END
  1
CELLSTYLE_BEGIN
 90
        2
 91
        1
300
_HEADER
309
CELLSTYLE_END
300
CELLSTYLE
  1
TABLEFORMAT_BEGIN
 90
        5
170
     1
 91
        0
 92
        0
 62
   257
 93
        1
300
CONTENTFORMAT
  1
CONTENTFORMAT_BEGIN
 90
        0
 91
        0
 92
      512
 93
        0
300

 40
0.0
140
1.0
 94
        2
 62
     0
340
1DA
144
0.18
309
CONTENTFORMAT_END
171
     1
301
MARGIN
  1
CELLMARGIN_BEGIN
 40
0.06
 40
0.06
 40
0.06
 40
0.06
 40
0.18
 40
0.18
309
CELLMARGIN_END
 94
        6
 95
        1
302
GRIDFORMAT
  1
GRIDFORMAT_BEGIN
 90
        0
 91
        1
 62
     0
 92
       -2
340
0
 93
        0
 40
0.045
309
GRIDFORMAT_END
 95
        2
302
GRIDFORMAT
  1
GRIDFORMAT_BEGIN
 90
        0
 91
        1
 62
     0
 92
       -2
340
0
 93
        0
 40
0.045
309
GRIDFORMAT_END
 95
        4
302
GRIDFORMAT
  1
GRIDFORMAT_BEGIN
 90
        0
 91
        1
 62
     0
 92
       -2
340
0
 93
        0
 40
0.045
309
GRIDFORMAT_END
 95
        8
302
GRIDFORMAT
  1
GRIDFORMAT_BEGIN
 90
        0
 91
        1
 62
     0
 92
       -2
340
0
 93
        0
 40
0.045
309
GRIDFORMAT_END
 95
       16
302
GRIDFORMAT
  1
GRIDFORMAT_BEGIN
 90
        0
 91
        1
 62
     0
 92
       -2
340
0
 93
        0
 40
0.045
309
GRIDFORMAT_END
 95
       32
302
GRIDFORMAT
  1
GRIDFORMAT_BEGIN
 90
        0
 91
        1
 62
     0
 92
       -2
340
0
 93
        0
 40
0.045
309
GRIDFORMAT_END
309
TABLEFORMAT_END
  1
CELLSTYLE_BEGIN
 90
        3
 91
        2
300
_DATA
309
CELLSTYLE_END
  0
XRECORD
  5
1365
102
{ACAD_REACTORS
330
9B3
102
}
330
9B3
100
AcDbXrecord
280
     1
102
ACAD_ROUNDTRIP_PRE2007_TABLESTYLE
 90
      512
 91
        0
  1

 92
      512
 93
        0
  2

 94
      512
 95
        0
  3

  0
XRECORD
  5
134A
102
{ACAD_REACTORS
330
1349
102
}
330
1349
100
AcDbXrecord
280
     1
102
RTVSPropertyOp0
 70
     1
102
RTVSPropertyOp1
 70
     1
102
RTVSPropertyOp2
 70
     1
102
RTVSPropertyOp3
 70
     1
102
RTVSPropertyOp4
 70
     1
102
RTVSPropertyOp5
 70
     1
102
RTVSPropertyOp6
 70
     1
102
RTVSPropertyOp7
 70
     1
102
RTVSPropertyOp8
 70
     1
102
RTVSPropertyOp9
 70
     1
102
RTVSPropertyOp10
 70
     1
102
RTVSPropertyOp11
 70
     1
102
RTVSPropertyOp12
 70
     1
102
RTVSPropertyOp13
 70
     1
102
RTVSPropertyOp14
 70
     1
102
RTVSPropertyOp15
 70
     1
102
RTVSPropertyOp16
 70
     1
102
RTVSPropertyOp17
 70
     1
102
RTVSPropertyOp18
 70
     1
102
RTVSPropertyOp19
 70
     1
102
RTVSPropertyOp20
 70
     1
102
RTVSPropertyOp21
 70
     1
102
RTVSPropertyOp22
 70
     1
102
RTVSPropertyOp23
 70
     1
102
RTVSPropertyOp24
 70
     1
102
RTVSPropertyOp25
 70
     1
102
RTVSPropertyOp26
 70
     1
102
RTVSPropertyOp27
 70
     1
  0
XRECORD
  5
134E
102
{ACAD_REACTORS
330
134D
102
}
330
134D
100
AcDbXrecord
280
     1
102
RTVSPropertyOp0
 70
     1
102
RTVSPropertyOp1
 70
     1
102
RTVSPropertyOp2
 70
     1
102
RTVSPropertyOp3
 70
     1
102
RTVSPropertyOp4
 70
     1
102
RTVSPropertyOp5
 70
     1
102
RTVSPropertyOp6
 70
     1
102
RTVSPropertyOp7
 70
     1
102
RTVSPropertyOp8
 70
     1
102
RTVSPropertyOp9
 70
     1
102
RTVSPropertyOp10
 70
     1
102
RTVSPropertyOp11
 70
     1
102
RTVSPropertyOp12
 70
     1
102
RTVSPropertyOp13
 70
     1
102
RTVSPropertyOp14
 70
     1
102
RTVSPropertyOp15
 70
     1
102
RTVSPropertyOp16
 70
     1
102
RTVSPropertyOp17
 70
     1
102
RTVSPropertyOp18
 70
     1
102
RTVSPropertyOp19
 70
     1
102
RTVSPropertyOp20
 70
     1
102
RTVSPropertyOp21
 70
     1
102
RTVSPropertyOp22
 70
     1
102
RTVSPropertyOp23
 70
     1
102
RTVSPropertyOp24
 70
     1
102
RTVSPropertyOp25
 70
     1
102
RTVSPropertyOp26
 70
     1
102
RTVSPropertyOp27
 70
     1
  0
XRECORD
  5
134C
102
{ACAD_REACTORS
330
134B
102
}
330
134B
100
AcDbXrecord
280
     1
102
RTVSPropertyOp0
 70
     1
102
RTVSPropertyOp1
 70
     1
102
RTVSPropertyOp2
 70
     1
102
RTVSPropertyOp3
 70
     1
102
RTVSPropertyOp4
 70
     1
102
RTVSPropertyOp5
 70
     1
102
RTVSPropertyOp6
 70
     1
102
RTVSPropertyOp7
 70
     1
102
RTVSPropertyOp8
 70
     1
102
RTVSPropertyOp9
 70
     1
102
RTVSPropertyOp10
 70
     1
102
RTVSPropertyOp11
 70
     1
102
RTVSPropertyOp12
 70
     1
102
RTVSPropertyOp13
 70
     1
102
RTVSPropertyOp14
 70
     1
102
RTVSPropertyOp15
 70
     1
102
RTVSPropertyOp16
 70
     1
102
RTVSPropertyOp17
 70
     1
102
RTVSPropertyOp18
 70
     1
102
RTVSPropertyOp19
 70
     1
102
RTVSPropertyOp20
 70
     1
102
RTVSPropertyOp21
 70
     1
102
RTVSPropertyOp22
 70
     1
102
RTVSPropertyOp23
 70
     1
102
RTVSPropertyOp24
 70
     1
102
RTVSPropertyOp25
 70
     1
102
RTVSPropertyOp26
 70
     1
102
RTVSPropertyOp27
 70
     1
  0
XRECORD
  5
1348
102
{ACAD_REACTORS
330
1347
102
}
330
1347
100
AcDbXrecord
280
     1
102
RTVSPropertyOp0
 70
     1
102
RTVSPropertyOp1
 70
     1
102
RTVSPropertyOp2
 70
     1
102
RTVSPropertyOp3
 70
     1
102
RTVSPropertyOp4
 70
     1
102
RTVSPropertyOp5
 70
     1
102
RTVSPropertyOp6
 70
     1
102
RTVSPropertyOp7
 70
     1
102
RTVSPropertyOp8
 70
     1
102
RTVSPropertyOp9
 70
     1
102
RTVSPropertyOp10
 70
     1
102
RTVSPropertyOp11
 70
     1
102
RTVSPropertyOp12
 70
     1
102
RTVSPropertyOp13
 70
     1
102
RTVSPropertyOp14
 70
     1
102
RTVSPropertyOp15
 70
     1
102
RTVSPropertyOp16
 70
     1
102
RTVSPropertyOp17
 70
     1
102
RTVSPropertyOp18
 70
     1
102
RTVSPropertyOp19
 70
     1
102
RTVSPropertyOp20
 70
     1
102
RTVSPropertyOp21
 70
     1
102
RTVSPropertyOp22
 70
     1
102
RTVSPropertyOp23
 70
     1
102
RTVSPropertyOp24
 70
     1
102
RTVSPropertyOp25
 70
     1
102
RTVSPropertyOp26
 70
     1
102
RTVSPropertyOp27
 70
     1
  0
XRECORD
  5
1356
102
{ACAD_REACTORS
330
1355
102
}
330
1355
100
AcDbXrecord
280
     1
102
RTVSPropertyOp0
 70
     1
102
RTVSPropertyOp1
 70
     1
102
RTVSPropertyOp2
 70
     1
102
RTVSPropertyOp3
 70
     1
102
RTVSPropertyOp4
 70
     1
102
RTVSPropertyOp5
 70
     1
102
RTVSPropertyOp6
 70
     1
102
RTVSPropertyOp7
 70
     1
102
RTVSPropertyOp8
 70
     1
102
RTVSPropertyOp9
 70
     1
102
RTVSPropertyOp10
 70
     1
102
RTVSPropertyOp11
 70
     1
102
RTVSPropertyOp12
 70
     1
102
RTVSPropertyOp13
 70
     1
102
RTVSPropertyOp14
 70
     1
102
RTVSPropertyOp15
 70
     1
102
RTVSPropertyOp16
 70
     1
102
RTVSPropertyOp17
 70
     1
102
RTVSPropertyOp18
 70
     1
102
RTVSPropertyOp19
 70
     1
102
RTVSPropertyOp20
 70
     1
102
RTVSPropertyOp21
 70
     1
102
RTVSPropertyOp22
 70
     1
102
RTVSPropertyOp23
 70
     1
102
RTVSPropertyOp24
 70
     1
102
RTVSPropertyOp25
 70
     1
102
RTVSPropertyOp26
 70
     1
102
RTVSPropertyOp27
 70
     1
  0
XRECORD
  5
135E
102
{ACAD_REACTORS
330
135D
102
}
330
135D
100
AcDbXrecord
280
     1
102
RTVSPropertyOp0
 70
     1
102
RTVSPropertyOp1
 70
     1
102
RTVSPropertyOp2
 70
     1
102
RTVSPropertyOp3
 70
     1
102
RTVSPropertyOp4
 70
     1
102
RTVSPropertyOp5
 70
     1
102
RTVSPropertyOp6
 70
     1
102
RTVSPropertyOp7
 70
     1
102
RTVSPropertyOp8
 70
     1
102
RTVSPropertyOp9
 70
     1
102
RTVSPropertyOp10
 70
     1
102
RTVSPropertyOp11
 70
     1
102
RTVSPropertyOp12
 70
     1
102
RTVSPropertyOp13
 70
     1
102
RTVSPropertyOp14
 70
     1
102
RTVSPropertyOp15
 70
     1
102
RTVSPropertyOp16
 70
     1
102
RTVSPropertyOp17
 70
     1
102
RTVSPropertyOp18
 70
     1
102
RTVSPropertyOp19
 70
     1
102
RTVSPropertyOp20
 70
     1
102
RTVSPropertyOp21
 70
     1
102
RTVSPropertyOp22
 70
     1
102
RTVSPropertyOp23
 70
     1
102
RTVSPropertyOp24
 70
     1
102
RTVSPropertyOp25
 70
     1
102
RTVSPropertyOp26
 70
     1
102
RTVSPropertyOp27
 70
     1
  0
XRECORD
  5
1350
102
{ACAD_REACTORS
330
134F
102
}
330
134F
100
AcDbXrecord
280
     1
102
RTVSPropertyOp0
 70
     1
102
RTVSPropertyOp1
 70
     1
102
RTVSPropertyOp2
 70
     1
102
RTVSPropertyOp3
 70
     1
102
RTVSPropertyOp4
 70
     1
102
RTVSPropertyOp5
 70
     1
102
RTVSPropertyOp6
 70
     1
102
RTVSPropertyOp7
 70
     1
102
RTVSPropertyOp8
 70
     1
102
RTVSPropertyOp9
 70
     1
102
RTVSPropertyOp10
 70
     1
102
RTVSPropertyOp11
 70
     1
102
RTVSPropertyOp12
 70
     1
102
RTVSPropertyOp13
 70
     1
102
RTVSPropertyOp14
 70
     1
102
RTVSPropertyOp15
 70
     1
102
RTVSPropertyOp16
 70
     1
102
RTVSPropertyOp17
 70
     1
102
RTVSPropertyOp18
 70
     1
102
RTVSPropertyOp19
 70
     1
102
RTVSPropertyOp20
 70
     1
102
RTVSPropertyOp21
 70
     1
102
RTVSPropertyOp22
 70
     1
102
RTVSPropertyOp23
 70
     1
102
RTVSPropertyOp24
 70
     1
102
RTVSPropertyOp25
 70
     1
102
RTVSPropertyOp26
 70
     1
102
RTVSPropertyOp27
 70
     1
  0
XRECORD
  5
1354
102
{ACAD_REACTORS
330
1353
102
}
330
1353
100
AcDbXrecord
280
     1
102
RTVSPropertyOp0
 70
     1
102
RTVSPropertyOp1
 70
     1
102
RTVSPropertyOp2
 70
     1
102
RTVSPropertyOp3
 70
     1
102
RTVSPropertyOp4
 70
     1
102
RTVSPropertyOp5
 70
     1
102
RTVSPropertyOp6
 70
     1
102
RTVSPropertyOp7
 70
     1
102
RTVSPropertyOp8
 70
     1
102
RTVSPropertyOp9
 70
     1
102
RTVSPropertyOp10
 70
     1
102
RTVSPropertyOp11
 70
     1
102
RTVSPropertyOp12
 70
     1
102
RTVSPropertyOp13
 70
     1
102
RTVSPropertyOp14
 70
     1
102
RTVSPropertyOp15
 70
     1
102
RTVSPropertyOp16
 70
     1
102
RTVSPropertyOp17
 70
     1
102
RTVSPropertyOp18
 70
     1
102
RTVSPropertyOp19
 70
     1
102
RTVSPropertyOp20
 70
     1
102
RTVSPropertyOp21
 70
     1
102
RTVSPropertyOp22
 70
     1
102
RTVSPropertyOp23
 70
     1
102
RTVSPropertyOp24
 70
     1
102
RTVSPropertyOp25
 70
     1
102
RTVSPropertyOp26
 70
     1
102
RTVSPropertyOp27
 70
     1
  0
XRECORD
  5
1364
102
{ACAD_REACTORS
330
1363
102
}
330
1363
100
AcDbXrecord
280
     1
102
RTVSPropertyOp0
 70
     0
102
RTVSPropertyOp1
 70
     0
102
RTVSPropertyOp2
 70
     0
102
RTVSPropertyOp3
 70
     0
102
RTVSPropertyOp4
 70
     0
102
RTVSPropertyOp5
 70
     0
102
RTVSPropertyOp6
 70
     0
102
RTVSPropertyOp7
 70
     0
102
RTVSPropertyOp8
 70
     0
102
RTVSPropertyOp9
 70
     0
102
RTVSPropertyOp10
 70
     0
102
RTVSPropertyOp11
 70
     0
102
RTVSPropertyOp12
 70
     0
102
RTVSPropertyOp13
 70
     0
102
RTVSPropertyOp14
 70
     2
102
RTVSPropertyOp15
 70
     0
102
RTVSPropertyOp16
 70
     0
102
RTVSPropertyOp17
 70
     0
102
RTVSPropertyOp18
 70
     0
102
RTVSPropertyOp19
 70
     0
102
RTVSPropertyOp20
 70
     0
102
RTVSPropertyOp21
 70
     0
102
RTVSPropertyOp22
 70
     0
102
RTVSPropertyOp23
 70
     0
102
RTVSPropertyOp24
 70
     0
102
RTVSPropertyOp25
 70
     0
102
RTVSPropertyOp26
 70
     0
102
RTVSPropertyOp27
 70
     0
  0
XRECORD
  5
135C
102
{ACAD_REACTORS
330
135B
102
}
330
135B
100
AcDbXrecord
280
     1
102
RTVSPropertyOp0
 70
     1
102
RTVSPropertyOp1
 70
     1
102
RTVSPropertyOp2
 70
     1
102
RTVSPropertyOp3
 70
     1
102
RTVSPropertyOp4
 70
     1
102
RTVSPropertyOp5
 70
     1
102
RTVSPropertyOp6
 70
     1
102
RTVSPropertyOp7
 70
     1
102
RTVSPropertyOp8
 70
     1
102
RTVSPropertyOp9
 70
     1
102
RTVSPropertyOp10
 70
     1
102
RTVSPropertyOp11
 70
     1
102
RTVSPropertyOp12
 70
     1
102
RTVSPropertyOp13
 70
     1
102
RTVSPropertyOp14
 70
     1
102
RTVSPropertyOp15
 70
     1
102
RTVSPropertyOp16
 70
     1
102
RTVSPropertyOp17
 70
     1
102
RTVSPropertyOp18
 70
     1
102
RTVSPropertyOp19
 70
     1
102
RTVSPropertyOp20
 70
     1
102
RTVSPropertyOp21
 70
     1
102
RTVSPropertyOp22
 70
     1
102
RTVSPropertyOp23
 70
     1
102
RTVSPropertyOp24
 70
     1
102
RTVSPropertyOp25
 70
     1
102
RTVSPropertyOp26
 70
     1
102
RTVSPropertyOp27
 70
     1
  0
XRECORD
  5
1340
102
{ACAD_REACTORS
330
133F
102
}
330
133F
100
AcDbXrecord
280
     1
102
RTVSPropertyOp0
 70
     1
102
RTVSPropertyOp1
 70
     1
102
RTVSPropertyOp2
 70
     1
102
RTVSPropertyOp3
 70
     1
102
RTVSPropertyOp4
 70
     1
102
RTVSPropertyOp5
 70
     1
102
RTVSPropertyOp6
 70
     1
102
RTVSPropertyOp7
 70
     1
102
RTVSPropertyOp8
 70
     1
102
RTVSPropertyOp9
 70
     1
102
RTVSPropertyOp10
 70
     1
102
RTVSPropertyOp11
 70
     1
102
RTVSPropertyOp12
 70
     1
102
RTVSPropertyOp13
 70
     1
102
RTVSPropertyOp14
 70
     1
102
RTVSPropertyOp15
 70
     1
102
RTVSPropertyOp16
 70
     1
102
RTVSPropertyOp17
 70
     1
102
RTVSPropertyOp18
 70
     1
102
RTVSPropertyOp19
 70
     1
102
RTVSPropertyOp20
 70
     1
102
RTVSPropertyOp21
 70
     1
102
RTVSPropertyOp22
 70
     1
102
RTVSPropertyOp23
 70
     1
102
RTVSPropertyOp24
 70
     1
102
RTVSPropertyOp25
 70
     1
102
RTVSPropertyOp26
 70
     1
102
RTVSPropertyOp27
 70
     1
  0
XRECORD
  5
1342
102
{ACAD_REACTORS
330
1341
102
}
330
1341
100
AcDbXrecord
280
     1
102
RTVSPropertyOp0
 70
     1
102
RTVSPropertyOp1
 70
     1
102
RTVSPropertyOp2
 70
     1
102
RTVSPropertyOp3
 70
     1
102
RTVSPropertyOp4
 70
     1
102
RTVSPropertyOp5
 70
     1
102
RTVSPropertyOp6
 70
     1
102
RTVSPropertyOp7
 70
     1
102
RTVSPropertyOp8
 70
     1
102
RTVSPropertyOp9
 70
     1
102
RTVSPropertyOp10
 70
     1
102
RTVSPropertyOp11
 70
     1
102
RTVSPropertyOp12
 70
     1
102
RTVSPropertyOp13
 70
     1
102
RTVSPropertyOp14
 70
     1
102
RTVSPropertyOp15
 70
     1
102
RTVSPropertyOp16
 70
     1
102
RTVSPropertyOp17
 70
     1
102
RTVSPropertyOp18
 70
     1
102
RTVSPropertyOp19
 70
     1
102
RTVSPropertyOp20
 70
     1
102
RTVSPropertyOp21
 70
     1
102
RTVSPropertyOp22
 70
     1
102
RTVSPropertyOp23
 70
     1
102
RTVSPropertyOp24
 70
     1
102
RTVSPropertyOp25
 70
     1
102
RTVSPropertyOp26
 70
     1
102
RTVSPropertyOp27
 70
     1
  0
XRECORD
  5
1344
102
{ACAD_REACTORS
330
1343
102
}
330
1343
100
AcDbXrecord
280
     1
102
RTVSPropertyOp0
 70
     1
102
RTVSPropertyOp1
 70
     1
102
RTVSPropertyOp2
 70
     1
102
RTVSPropertyOp3
 70
     1
102
RTVSPropertyOp4
 70
     1
102
RTVSPropertyOp5
 70
     1
102
RTVSPropertyOp6
 70
     1
102
RTVSPropertyOp7
 70
     1
102
RTVSPropertyOp8
 70
     1
102
RTVSPropertyOp9
 70
     1
102
RTVSPropertyOp10
 70
     1
102
RTVSPropertyOp11
 70
     1
102
RTVSPropertyOp12
 70
     1
102
RTVSPropertyOp13
 70
     1
102
RTVSPropertyOp14
 70
     1
102
RTVSPropertyOp15
 70
     1
102
RTVSPropertyOp16
 70
     1
102
RTVSPropertyOp17
 70
     1
102
RTVSPropertyOp18
 70
     1
102
RTVSPropertyOp19
 70
     1
102
RTVSPropertyOp20
 70
     1
102
RTVSPropertyOp21
 70
     1
102
RTVSPropertyOp22
 70
     1
102
RTVSPropertyOp23
 70
     1
102
RTVSPropertyOp24
 70
     1
102
RTVSPropertyOp25
 70
     1
102
RTVSPropertyOp26
 70
     1
102
RTVSPropertyOp27
 70
     1
  0
XRECORD
  5
1346
102
{ACAD_REACTORS
330
1345
102
}
330
1345
100
AcDbXrecord
280
     1
102
RTVSPropertyOp0
 70
     1
102
RTVSPropertyOp1
 70
     1
102
RTVSPropertyOp2
 70
     1
102
RTVSPropertyOp3
 70
     1
102
RTVSPropertyOp4
 70
     1
102
RTVSPropertyOp5
 70
     1
102
RTVSPropertyOp6
 70
     1
102
RTVSPropertyOp7
 70
     1
102
RTVSPropertyOp8
 70
     1
102
RTVSPropertyOp9
 70
     1
102
RTVSPropertyOp10
 70
     1
102
RTVSPropertyOp11
 70
     1
102
RTVSPropertyOp12
 70
     1
102
RTVSPropertyOp13
 70
     1
102
RTVSPropertyOp14
 70
     1
102
RTVSPropertyOp15
 70
     1
102
RTVSPropertyOp16
 70
     1
102
RTVSPropertyOp17
 70
     1
102
RTVSPropertyOp18
 70
     1
102
RTVSPropertyOp19
 70
     1
102
RTVSPropertyOp20
 70
     1
102
RTVSPropertyOp21
 70
     1
102
RTVSPropertyOp22
 70
     1
102
RTVSPropertyOp23
 70
     1
102
RTVSPropertyOp24
 70
     1
102
RTVSPropertyOp25
 70
     1
102
RTVSPropertyOp26
 70
     1
102
RTVSPropertyOp27
 70
     1
  0
XRECORD
  5
1360
102
{ACAD_REACTORS
330
135F
102
}
330
135F
100
AcDbXrecord
280
     1
102
RTVSPropertyOp0
 70
     0
102
RTVSPropertyOp1
 70
     0
102
RTVSPropertyOp2
 70
     0
102
RTVSPropertyOp3
 70
     0
102
RTVSPropertyOp4
 70
     0
102
RTVSPropertyOp5
 70
     0
102
RTVSPropertyOp6
 70
     0
102
RTVSPropertyOp7
 70
     0
102
RTVSPropertyOp8
 70
     0
102
RTVSPropertyOp9
 70
     0
102
RTVSPropertyOp10
 70
     0
102
RTVSPropertyOp11
 70
     0
102
RTVSPropertyOp12
 70
     0
102
RTVSPropertyOp13
 70
     0
102
RTVSPropertyOp14
 70
     2
102
RTVSPropertyOp15
 70
     0
102
RTVSPropertyOp16
 70
     0
102
RTVSPropertyOp17
 70
     0
102
RTVSPropertyOp18
 70
     0
102
RTVSPropertyOp19
 70
     0
102
RTVSPropertyOp20
 70
     0
102
RTVSPropertyOp21
 70
     0
102
RTVSPropertyOp22
 70
     0
102
RTVSPropertyOp23
 70
     0
102
RTVSPropertyOp24
 70
     0
102
RTVSPropertyOp25
 70
     0
102
RTVSPropertyOp26
 70
     0
102
RTVSPropertyOp27
 70
     0
  0
XRECORD
  5
135A
102
{ACAD_REACTORS
330
1359
102
}
330
1359
100
AcDbXrecord
280
     1
102
RTVSPropertyOp0
 70
     1
102
RTVSPropertyOp1
 70
     1
102
RTVSPropertyOp2
 70
     1
102
RTVSPropertyOp3
 70
     1
102
RTVSPropertyOp4
 70
     1
102
RTVSPropertyOp5
 70
     1
102
RTVSPropertyOp6
 70
     1
102
RTVSPropertyOp7
 70
     1
102
RTVSPropertyOp8
 70
     1
102
RTVSPropertyOp9
 70
     1
102
RTVSPropertyOp10
 70
     1
102
RTVSPropertyOp11
 70
     1
102
RTVSPropertyOp12
 70
     1
102
RTVSPropertyOp13
 70
     1
102
RTVSPropertyOp14
 70
     1
102
RTVSPropertyOp15
 70
     1
102
RTVSPropertyOp16
 70
     1
102
RTVSPropertyOp17
 70
     1
102
RTVSPropertyOp18
 70
     1
102
RTVSPropertyOp19
 70
     1
102
RTVSPropertyOp20
 70
     1
102
RTVSPropertyOp21
 70
     1
102
RTVSPropertyOp22
 70
     1
102
RTVSPropertyOp23
 70
     1
102
RTVSPropertyOp24
 70
     1
102
RTVSPropertyOp25
 70
     1
102
RTVSPropertyOp26
 70
     1
102
RTVSPropertyOp27
 70
     1
  0
XRECORD
  5
1362
102
{ACAD_REACTORS
330
1361
102
}
330
1361
100
AcDbXrecord
280
     1
102
RTVSPropertyOp0
 70
     0
102
RTVSPropertyOp1
 70
     0
102
RTVSPropertyOp2
 70
     0
102
RTVSPropertyOp3
 70
     0
102
RTVSPropertyOp4
 70
     0
102
RTVSPropertyOp5
 70
     0
102
RTVSPropertyOp6
 70
     0
102
RTVSPropertyOp7
 70
     0
102
RTVSPropertyOp8
 70
     0
102
RTVSPropertyOp9
 70
     0
102
RTVSPropertyOp10
 70
     0
102
RTVSPropertyOp11
 70
     0
102
RTVSPropertyOp12
 70
     0
102
RTVSPropertyOp13
 70
     0
102
RTVSPropertyOp14
 70
     2
102
RTVSPropertyOp15
 70
     0
102
RTVSPropertyOp16
 70
     0
102
RTVSPropertyOp17
 70
     0
102
RTVSPropertyOp18
 70
     0
102
RTVSPropertyOp19
 70
     0
102
RTVSPropertyOp20
 70
     0
102
RTVSPropertyOp21
 70
     0
102
RTVSPropertyOp22
 70
     0
102
RTVSPropertyOp23
 70
     0
102
RTVSPropertyOp24
 70
     0
102
RTVSPropertyOp25
 70
     0
102
RTVSPropertyOp26
 70
     0
102
RTVSPropertyOp27
 70
     0
  0
XRECORD
  5
1352
102
{ACAD_REACTORS
330
1351
102
}
330
1351
100
AcDbXrecord
280
     1
102
RTVSPropertyOp0
 70
     1
102
RTVSPropertyOp1
 70
     1
102
RTVSPropertyOp2
 70
     1
102
RTVSPropertyOp3
 70
     1
102
RTVSPropertyOp4
 70
     1
102
RTVSPropertyOp5
 70
     1
102
RTVSPropertyOp6
 70
     1
102
RTVSPropertyOp7
 70
     1
102
RTVSPropertyOp8
 70
     1
102
RTVSPropertyOp9
 70
     1
102
RTVSPropertyOp10
 70
     1
102
RTVSPropertyOp11
 70
     1
102
RTVSPropertyOp12
 70
     1
102
RTVSPropertyOp13
 70
     1
102
RTVSPropertyOp14
 70
     1
102
RTVSPropertyOp15
 70
     1
102
RTVSPropertyOp16
 70
     1
102
RTVSPropertyOp17
 70
     1
102
RTVSPropertyOp18
 70
     1
102
RTVSPropertyOp19
 70
     1
102
RTVSPropertyOp20
 70
     1
102
RTVSPropertyOp21
 70
     1
102
RTVSPropertyOp22
 70
     1
102
RTVSPropertyOp23
 70
     1
102
RTVSPropertyOp24
 70
     1
102
RTVSPropertyOp25
 70
     1
102
RTVSPropertyOp26
 70
     1
102
RTVSPropertyOp27
 70
     1
  0
XRECORD
  5
1358
102
{ACAD_REACTORS
330
1357
102
}
330
1357
100
AcDbXrecord
280
     1
102
RTVSPropertyOp0
 70
     1
102
RTVSPropertyOp1
 70
     1
102
RTVSPropertyOp2
 70
     1
102
RTVSPropertyOp3
 70
     1
102
RTVSPropertyOp4
 70
     1
102
RTVSPropertyOp5
 70
     1
102
RTVSPropertyOp6
 70
     1
102
RTVSPropertyOp7
 70
     1
102
RTVSPropertyOp8
 70
     1
102
RTVSPropertyOp9
 70
     1
102
RTVSPropertyOp10
 70
     1
102
RTVSPropertyOp11
 70
     1
102
RTVSPropertyOp12
 70
     1
102
RTVSPropertyOp13
 70
     1
102
RTVSPropertyOp14
 70
     1
102
RTVSPropertyOp15
 70
     1
102
RTVSPropertyOp16
 70
     1
102
RTVSPropertyOp17
 70
     1
102
RTVSPropertyOp18
 70
     1
102
RTVSPropertyOp19
 70
     1
102
RTVSPropertyOp20
 70
     1
102
RTVSPropertyOp21
 70
     1
102
RTVSPropertyOp22
 70
     1
102
RTVSPropertyOp23
 70
     1
102
RTVSPropertyOp24
 70
     1
102
RTVSPropertyOp25
 70
     1
102
RTVSPropertyOp26
 70
     1
102
RTVSPropertyOp27
 70
     1
  0
ENDSEC
  0
EOF
