  0
SECTION
  2
HEADER
  9
$ACADVER
  1
AC1015
  9
$ACADMAINTVER
 70
     6
  9
$DWGCODEPAGE
  3
ANSI_1252
  9
$INSBASE
 10
0.0
 20
0.0
 30
0.0
  9
$EXTMIN
 10
599.2162329220152
 20
261.9827609943393
 30
0.0
  9
$EXTMAX
 10
1366.562862962636
 20
899.4666155550127
 30
0.0
  9
$LIMMIN
 10
0.0
 20
0.0
  9
$LIMMAX
 10
12.0
 20
9.0
  9
$ORTHOMODE
 70
     0
  9
$REGENMODE
 70
     1
  9
$FILLMODE
 70
     1
  9
$QTEXTMODE
 70
     0
  9
$MIRRTEXT
 70
     1
  9
$LTSCALE
 40
1.0
  9
$ATTMODE
 70
     1
  9
$TEXTSIZE
 40
0.0
  9
$TRACEWID
 40
0.05
  9
$TEXTSTYLE
  7
STANDARD
  9
$CLAYER
  8
0
  9
$CELTYPE
  6
CONTINUOUS
  9
$CECOLOR
 62
     3
  9
$CELTSCALE
 40
1.0
  9
$DISPSILH
 70
     0
  9
$DIMSCALE
 40
1.0
  9
$DIMASZ
 40
0.18
  9
$DIMEXO
 40
0.0625
  9
$DIMDLI
 40
0.38
  9
$DIMRND
 40
0.0
  9
$DIMDLE
 40
0.0
  9
$DIMEXE
 40
0.18
  9
$DIMTP
 40
0.0
  9
$DIMTM
 40
0.0
  9
$DIMTXT
 40
0.18
  9
$DIMCEN
 40
0.09
  9
$DIMTSZ
 40
0.0
  9
$DIMTOL
 70
     0
  9
$DIMLIM
 70
     0
  9
$DIMTIH
 70
     1
  9
$DIMTOH
 70
     1
  9
$DIMSE1
 70
     0
  9
$DIMSE2
 70
     0
  9
$DIMTAD
 70
     0
  9
$DIMZIN
 70
     0
  9
$DIMBLK
  1

  9
$DIMASO
 70
     1
  9
$DIMSHO
 70
     1
  9
$DIMPOST
  1

  9
$DIMAPOST
  1

  9
$DIMALT
 70
     0
  9
$DIMALTD
 70
     2
  9
$DIMALTF
 40
25.4
  9
$DIMLFAC
 40
1.0
  9
$DIMTOFL
 70
     0
  9
$DIMTVP
 40
0.0
  9
$DIMTIX
 70
     0
  9
$DIMSOXD
 70
     0
  9
$DIMSAH
 70
     0
  9
$DIMBLK1
  1

  9
$DIMBLK2
  1

  9
$DIMSTYLE
  2
STANDARD
  9
$DIMCLRD
 70
     0
  9
$DIMCLRE
 70
     0
  9
$DIMCLRT
 70
     0
  9
$DIMTFAC
 40
1.0
  9
$DIMGAP
 40
0.09
  9
$DIMJUST
 70
     0
  9
$DIMSD1
 70
     0
  9
$DIMSD2
 70
     0
  9
$DIMTOLJ
 70
     1
  9
$DIMTZIN
 70
     0
  9
$DIMALTZ
 70
     0
  9
$DIMALTTZ
 70
     0
  9
$DIMUPT
 70
     0
  9
$DIMDEC
 70
     4
  9
$DIMTDEC
 70
     4
  9
$DIMALTU
 70
     2
  9
$DIMALTTD
 70
     2
  9
$DIMTXSTY
  7
STANDARD
  9
$DIMAUNIT
 70
     0
  9
$DIMADEC
 70
     0
  9
$DIMALTRND
 40
0.0
  9
$DIMAZIN
 70
     0
  9
$DIMDSEP
 70
    46
  9
$DIMATFIT
 70
     3
  9
$DIMFRAC
 70
     0
  9
$DIMLDRBLK
  1

  9
$DIMLUNIT
 70
     2
  9
$DIMLWD
 70
    -2
  9
$DIMLWE
 70
    -2
  9
$DIMTMOVE
 70
     0
  9
$LUNITS
 70
     2
  9
$LUPREC
 70
     4
  9
$SKETCHINC
 40
0.1
  9
$FILLETRAD
 40
0.0
  9
$AUNITS
 70
     0
  9
$AUPREC
 70
     0
  9
$MENU
  1
acad
  9
$ELEVATION
 40
0.0
  9
$PELEVATION
 40
0.0
  9
$THICKNESS
 40
0.0
  9
$LIMCHECK
 70
     0
  9
$CHAMFERA
 40
0.0
  9
$CHAMFERB
 40
0.0
  9
$CHAMFERC
 40
0.0
  9
$CHAMFERD
 40
0.0
  9
$SKPOLY
 70
     0
  9
$TDCREATE
 40
2453238.886944444
  9
$TDUCREATE
 40
2453238.886944444
  9
$TDUPDATE
 40
2457748.794170902
  9
$TDUUPDATE
 40
2457748.794170902
  9
$TDINDWG
 40
0.0503335880
  9
$TDUSRTIMER
 40
0.0503331250
  9
$USRTIMER
 70
     1
  9
$ANGBASE
 50
0.0
  9
$ANGDIR
 70
     0
  9
$PDMODE
 70
     0
  9
$PDSIZE
 40
0.0
  9
$PLINEWID
 40
0.0
  9
$SPLFRAME
 70
     0
  9
$SPLINETYPE
 70
     6
  9
$SPLINESEGS
 70
    10
  9
$HANDSEED
  5
C0A
  9
$SURFTAB1
 70
     6
  9
$SURFTAB2
 70
     6
  9
$SURFTYPE
 70
     6
  9
$SURFU
 70
     6
  9
$SURFV
 70
     6
  9
$UCSBASE
  2

  9
$UCSNAME
  2

  9
$UCSORG
 10
0.0
 20
0.0
 30
0.0
  9
$UCSXDIR
 10
1.0
 20
0.0
 30
0.0
  9
$UCSYDIR
 10
0.0
 20
1.0
 30
0.0
  9
$UCSORTHOREF
  2

  9
$UCSORTHOVIEW
 70
     0
  9
$UCSORGTOP
 10
0.0
 20
0.0
 30
0.0
  9
$UCSORGBOTTOM
 10
0.0
 20
0.0
 30
0.0
  9
$UCSORGLEFT
 10
0.0
 20
0.0
 30
0.0
  9
$UCSORGRIGHT
 10
0.0
 20
0.0
 30
0.0
  9
$UCSORGFRONT
 10
0.0
 20
0.0
 30
0.0
  9
$UCSORGBACK
 10
0.0
 20
0.0
 30
0.0
  9
$PUCSBASE
  2

  9
$PUCSNAME
  2

  9
$PUCSORG
 10
0.0
 20
0.0
 30
0.0
  9
$PUCSXDIR
 10
1.0
 20
0.0
 30
0.0
  9
$PUCSYDIR
 10
0.0
 20
1.0
 30
0.0
  9
$PUCSORTHOREF
  2

  9
$PUCSORTHOVIEW
 70
     0
  9
$PUCSORGTOP
 10
0.0
 20
0.0
 30
0.0
  9
$PUCSORGBOTTOM
 10
0.0
 20
0.0
 30
0.0
  9
$PUCSORGLEFT
 10
0.0
 20
0.0
 30
0.0
  9
$PUCSORGRIGHT
 10
0.0
 20
0.0
 30
0.0
  9
$PUCSORGFRONT
 10
0.0
 20
0.0
 30
0.0
  9
$PUCSORGBACK
 10
0.0
 20
0.0
 30
0.0
  9
$USERI1
 70
     0
  9
$USERI2
 70
     0
  9
$USERI3
 70
     0
  9
$USERI4
 70
     0
  9
$USERI5
 70
     0
  9
$USERR1
 40
0.0
  9
$USERR2
 40
0.0
  9
$USERR3
 40
0.0
  9
$USERR4
 40
0.0
  9
$USERR5
 40
0.0
  9
$WORLDVIEW
 70
     1
  9
$SHADEDGE
 70
     3
  9
$SHADEDIF
 70
    70
  9
$TILEMODE
 70
     1
  9
$MAXACTVP
 70
    16
  9
$PINSBASE
 10
0.0
 20
0.0
 30
0.0
  9
$PLIMCHECK
 70
     0
  9
$PEXTMIN
 10
-1.000000000000000E+20
 20
-1.000000000000000E+20
 30
-1.000000000000000E+20
  9
$PEXTMAX
 10
-1.000000000000000E+20
 20
-1.000000000000000E+20
 30
-1.000000000000000E+20
  9
$PLIMMIN
 10
0.0
 20
0.0
  9
$PLIMMAX
 10
12.0
 20
9.0
  9
$UNITMODE
 70
     0
  9
$VISRETAIN
 70
     0
  9
$PLINEGEN
 70
     1
  9
$PSLTSCALE
 70
     0
  9
$TREEDEPTH
 70
  3020
  9
$CMLSTYLE
  2
Standard
  9
$CMLJUST
 70
     0
  9
$CMLSCALE
 40
1.0
  9
$PROXYGRAPHICS
 70
     1
  9
$MEASUREMENT
 70
     0
  9
$CELWEIGHT
370
    -1
  9
$ENDCAPS
280
     0
  9
$JOINSTYLE
280
     0
  9
$LWDISPLAY
290
     0
  9
$INSUNITS
 70
     0
  9
$HYPERLINKBASE
  1

  9
$STYLESHEET
  1

  9
$XEDIT
290
     1
  9
$CEPSNTYPE
380
     0
  9
$PSTYLEMODE
290
     1
  9
$FINGERPRINTGUID
  2
{2DD00680-FBF1-47C1-9305-47F949F18526}
  9
$VERSIONGUID
  2
{26B8C101-FA62-4BE1-938A-001194F457C9}
  9
$EXTNAMES
290
     1
  9
$PSVPSCALE
 40
0.0
  9
$OLESTARTUP
290
     0
  0
ENDSEC
  0
SECTION
  2
CLASSES
  0
CLASS
  1
ACDBDICTIONARYWDFLT
  2
AcDbDictionaryWithDefault
  3
AutoCAD 2000
 90
        0
280
     0
281
     0
  0
CLASS
  1
ACDBPLACEHOLDER
  2
AcDbPlaceHolder
  3
AutoCAD 2000
 90
        0
280
     0
281
     0
  0
CLASS
  1
LAYOUT
  2
AcDbLayout
  3
AutoCAD 2000
 90
        0
280
     0
281
     0
  0
CLASS
  1
MATERIAL
  2
AcDbMaterial
  3
ObjectDBX Classes
 90
     1153
280
     0
281
     0
  0
CLASS
  1
VISUALSTYLE
  2
AcDbVisualStyle
  3
ObjectDBX Classes
 90
     4095
280
     0
281
     0
  0
CLASS
  1
TABLESTYLE
  2
AcDbTableStyle
  3
ObjectDBX Classes
 90
     4095
280
     0
281
     0
  0
CLASS
  1
SCALE
  2
AcDbScale
  3
ObjectDBX Classes
 90
     1153
280
     0
281
     0
  0
CLASS
  1
MLEADERSTYLE
  2
AcDbMLeaderStyle
  3
ACDB_MLEADERSTYLE_CLASS
 90
     4095
280
     0
281
     0
  0
CLASS
  1
DICTIONARYVAR
  2
AcDbDictionaryVar
  3
AutoCAD 2000
 90
        0
280
     0
281
     0
  0
CLASS
  1
CELLSTYLEMAP
  2
AcDbCellStyleMap
  3
ObjectDBX Classes
 90
     1152
280
     0
281
     0
  0
CLASS
  1
SORTENTSTABLE
  2
AcDbSortentsTable
  3
AutoCAD 2000
 90
        0
280
     0
281
     0
  0
ENDSEC
  0
SECTION
  2
TABLES
  0
TABLE
  2
VPORT
  5
10E
330
0
100
AcDbSymbolTable
 70
     2
  0
VPORT
  5
C09
330
10E
100
AcDbSymbolTableRecord
100
AcDbViewportTableRecord
  2
*Active
 70
     0
 10
0.0
 20
0.0
 11
1.0
 21
1.0
 12
241.0102290111503
 22
-348.2902012695087
 13
0.0
 23
0.0
 14
0.0
 24
0.0
 15
0.0
 25
0.0
 16
0.0
 26
0.0
 36
1.0
 17
878.0869909999999
 27
622.9375
 37
0.0
 40
24.42300557029511
 41
1.94776119402985
 42
50.0
 43
0.025
 44
0.0
 50
0.0
 51
0.0
 71
     0
 72
   100
 73
     1
 74
     0
 75
     0
 76
     0
 77
     0
 78
     0
281
     0
 65
     0
110
0.0
120
0.0
130
0.0
111
1.0
121
0.0
131
0.0
112
0.0
122
1.0
132
0.0
 79
     0
146
0.0
  0
ENDTAB
  0
TABLE
  2
LTYPE
  5
10B
330
0
100
AcDbSymbolTable
 70
     7
  0
LTYPE
  5
119
330
10B
100
AcDbSymbolTableRecord
100
AcDbLinetypeTableRecord
  2
ByBlock
 70
     0
  3

 72
    65
 73
     0
 40
0.0
  0
LTYPE
  5
11A
330
10B
100
AcDbSymbolTableRecord
100
AcDbLinetypeTableRecord
  2
ByLayer
 70
     0
  3

 72
    65
 73
     0
 40
0.0
  0
LTYPE
  5
11B
330
10B
100
AcDbSymbolTableRecord
100
AcDbLinetypeTableRecord
  2
CONTINUOUS
 70
     0
  3
Solid line
 72
    65
 73
     0
 40
0.0
  0
LTYPE
  5
129
330
10B
100
AcDbSymbolTableRecord
100
AcDbLinetypeTableRecord
  2
DOT
 70
     0
  3
. . . . . . . . . . . . . . . . . . . . . . . . . . . . . . . . .
 72
    65
 73
     2
 40
0.25
 49
0.0
 74
     0
 49
-0.25
 74
     0
  0
LTYPE
  5
12A
330
10B
100
AcDbSymbolTableRecord
100
AcDbLinetypeTableRecord
  2
HIDDEN
 70
     0
  3
__ __ __ __ __ __ __ __ __ __ __ __ __ __ __ __ __ __ __ __ __ 
 72
    65
 73
     2
 40
0.375
 49
0.25
 74
     0
 49
-0.125
 74
     0
  0
LTYPE
  5
12B
330
10B
100
AcDbSymbolTableRecord
100
AcDbLinetypeTableRecord
  2
DASHED
 70
     0
  3
__ __ __ __ __ __ __ __ __ __ __ __ __ __ __ __ __ __ __ __ __
 72
    65
 73
     2
 40
0.75
 49
0.5
 74
     0
 49
-0.25
 74
     0
  0
LTYPE
  5
12C
330
10B
100
AcDbSymbolTableRecord
100
AcDbLinetypeTableRecord
  2
DASHDOT
 70
     0
  3
__ . __ . __ . __ . __ . __ . __ . __ . __ . __ . __ . __ . _
 72
    65
 73
     4
 40
1.0
 49
0.5
 74
     0
 49
-0.25
 74
     0
 49
0.0
 74
     0
 49
-0.25
 74
     0
  0
LTYPE
  5
12D
330
10B
100
AcDbSymbolTableRecord
100
AcDbLinetypeTableRecord
  2
DIVIDE
 70
     0
  3
____ . . ____ . . ____ . . ____ . . ____ . . ____ . . ____ . .
 72
    65
 73
     6
 40
1.25
 49
0.5
 74
     0
 49
-0.25
 74
     0
 49
0.0
 74
     0
 49
-0.25
 74
     0
 49
0.0
 74
     0
 49
-0.25
 74
     0
  0
LTYPE
  5
12E
330
10B
100
AcDbSymbolTableRecord
100
AcDbLinetypeTableRecord
  2
CENTER
 70
     0
  3
____ _ ____ _ ____ _ ____ _ ____ _ ____ _ ____ _ ____ _ ____ _
 72
    65
 73
     4
 40
2.0
 49
1.25
 74
     0
 49
-0.25
 74
     0
 49
0.25
 74
     0
 49
-0.25
 74
     0
  0
ENDTAB
  0
TABLE
  2
LAYER
  5
108
330
0
100
AcDbSymbolTable
 70
     4
  0
LAYER
  5
116
102
{ACAD_XDICTIONARY
360
26A
102
}
330
108
100
AcDbSymbolTableRecord
100
AcDbLayerTableRecord
  2
0
 70
     0
 62
     7
  6
CONTINUOUS
370
    -3
390
115
  0
LAYER
  5
12F
102
{ACAD_XDICTIONARY
360
26C
102
}
330
108
100
AcDbSymbolTableRecord
100
AcDbLayerTableRecord
  2
CONSTRUCTION_CLASS
 70
     0
 62
     7
  6
CONTINUOUS
370
    -3
390
115
  0
LAYER
  5
130
102
{ACAD_XDICTIONARY
360
26E
102
}
330
108
100
AcDbSymbolTableRecord
100
AcDbLayerTableRecord
  2
PATTERN_CLASS
 70
     0
 62
     7
  6
CONTINUOUS
370
    -3
390
115
  0
LAYER
  5
131
102
{ACAD_XDICTIONARY
360
270
102
}
330
108
100
AcDbSymbolTableRecord
100
AcDbLayerTableRecord
  2
1
 70
     0
 62
     7
  6
CONTINUOUS
370
    -3
390
115
  0
ENDTAB
  0
TABLE
  2
STYLE
  5
109
330
0
100
AcDbSymbolTable
 70
     1
  0
STYLE
  5
117
330
109
100
AcDbSymbolTableRecord
100
AcDbTextStyleTableRecord
  2
STANDARD
 70
     0
 40
0.0
 41
1.0
 50
0.0
 71
     0
 42
0.0
  3
txt
  4

  0
ENDTAB
  0
TABLE
  2
VIEW
  5
10C
330
0
100
AcDbSymbolTable
 70
     0
  0
ENDTAB
  0
TABLE
  2
UCS
  5
10D
330
0
100
AcDbSymbolTable
 70
     0
  0
ENDTAB
  0
TABLE
  2
APPID
  5
10F
330
0
100
AcDbSymbolTable
 70
     3
  0
APPID
  5
118
330
10F
100
AcDbSymbolTableRecord
100
AcDbRegAppTableRecord
  2
ACAD
 70
     0
  0
APPID
  5
2AC
330
10F
100
AcDbSymbolTableRecord
100
AcDbRegAppTableRecord
  2
ACAD_MLEADERVER
 70
     0
  0
APPID
  5
335
330
10F
100
AcDbSymbolTableRecord
100
AcDbRegAppTableRecord
  2
ACAD_EXEMPT_FROM_CAD_STANDARDS
 70
     0
  0
ENDTAB
  0
TABLE
  2
DIMSTYLE
  5
110
330
0
100
AcDbSymbolTable
 70
     1
100
AcDbDimStyleTable
 71
     1
340
132
  0
DIMSTYLE
105
132
330
110
100
AcDbSymbolTableRecord
100
AcDbDimStyleTableRecord
  2
STANDARD
 70
     0
279
     2
340
117
  0
ENDTAB
  0
TABLE
  2
BLOCK_RECORD
  5
107
330
0
100
AcDbSymbolTable
 70
     0
  0
BLOCK_RECORD
  5
124
102
{ACAD_XDICTIONARY
360
316
102
}
330
107
100
AcDbSymbolTableRecord
100
AcDbBlockTableRecord
  2
*Model_Space
340
127
  0
BLOCK_RECORD
  5
120
330
107
100
AcDbSymbolTableRecord
100
AcDbBlockTableRecord
  2
*Paper_Space
340
123
  0
ENDTAB
  0
ENDSEC
  0
SECTION
  2
BLOCKS
  0
BLOCK
  5
125
330
124
100
AcDbEntity
  8
0
100
AcDbBlockBegin
  2
*Model_Space
 70
     0
 10
0.0
 20
0.0
 30
0.0
  3
*Model_Space
  1

  0
ENDBLK
  5
126
330
124
100
AcDbEntity
  8
0
100
AcDbBlockEnd
  0
BLOCK
  5
121
330
120
100
AcDbEntity
 67
     1
  8
0
100
AcDbBlockBegin
  2
*Paper_Space
 70
     0
 10
0.0
 20
0.0
 30
0.0
  3
*Paper_Space
  1

  0
ENDBLK
  5
122
330
120
100
AcDbEntity
 67
     1
  8
0
100
AcDbBlockEnd
  0
ENDSEC
  0
SECTION
  2
ENTITIES
  0
LINE
  5
713
330
124
100
AcDbEntity
  8
1
  6
Continuous
 62
     4
100
AcDbLine
 10
757.0128629626363
 20
714.8064024349405
 30
0.0
 11
757.0128629626363
 21
738.3314024349406
 31
0.0
  0
LINE
  5
714
330
124
100
AcDbEntity
  8
1
  6
Continuous
 62
     4
100
AcDbLine
 10
768.0503629626366
 20
726.2189024349402
 30
0.0
 11
746.0878629626365
 21
726.2189024349402
 31
0.0
  0
LINE
  5
715
330
124
100
AcDbEntity
  8
1
  6
Continuous
 62
     4
100
AcDbLine
 10
774.9628629626365
 20
609.0189024349403
 30
0.0
 11
788.3203805752335
 21
621.7460330883446
 31
0.0
  0
LINE
  5
716
330
124
100
AcDbEntity
  8
1
  6
Continuous
 62
     4
100
AcDbLine
 10
840.8378629626366
 20
603.0689024349404
 30
0.0
 11
764.5003629626367
 21
595.6876524349402
 31
0.0
  0
LINE
  5
717
330
124
100
AcDbEntity
  8
1
  6
Continuous
 62
     4
100
AcDbLine
 10
709.7691129626363
 20
748.945261653444
 30
0.0
 11
709.7691129626363
 21
897.4214880020559
 31
0.0
  0
LINE
  5
718
330
124
100
AcDbEntity
  8
1
  6
Continuous
 62
     4
100
AcDbLine
 10
1054.769112962635
 20
749.7633132816995
 30
0.0
 11
1054.769112962635
 21
899.4666155550127
 31
0.0
  0
LINE
  5
719
330
124
100
AcDbEntity
  8
1
  6
Continuous
 62
     4
100
AcDbLine
 10
599.2162329220152
 20
591.6564024349402
 30
0.0
 11
1159.45921133719
 21
591.6564024349402
 31
0.0
  0
LINE
  5
71A
330
124
100
AcDbEntity
  8
1
  6
Continuous
 62
     4
100
AcDbLine
 10
754.6253629626362
 20
689.4876524349406
 30
0.0
 11
763.8566129626362
 21
698.7189024349405
 31
0.0
  0
LINE
  5
71B
330
124
100
AcDbEntity
  8
1
  6
Continuous
 62
     4
100
AcDbLine
 10
755.5316129626366
 20
679.0751524349404
 30
0.0
 11
767.3066129626366
 21
690.8501524349405
 31
0.0
  0
LINE
  5
71C
330
124
100
AcDbEntity
  8
1
  6
Continuous
 62
     4
100
AcDbLine
 10
758.6816129626365
 20
670.9126524349406
 30
0.0
 11
770.5878629626365
 21
682.8189024349406
 31
0.0
  0
LINE
  5
71D
330
124
100
AcDbEntity
  8
1
  6
Continuous
 62
     4
100
AcDbLine
 10
761.6503629626362
 20
662.5689024349402
 30
0.0
 11
773.6941129626362
 21
674.6126524349406
 31
0.0
  0
LINE
  5
71E
330
124
100
AcDbEntity
  8
1
  6
Continuous
 62
     4
100
AcDbLine
 10
764.4191129626364
 20
654.0251524349403
 30
0.0
 11
776.6316129626362
 21
666.2376524349406
 31
0.0
  0
LINE
  5
71F
330
124
100
AcDbEntity
  8
1
  6
Continuous
 62
     4
100
AcDbLine
 10
766.9941129626366
 20
645.2876524349402
 30
0.0
 11
779.3816129626366
 21
657.6751524349406
 31
0.0
  0
LINE
  5
720
330
124
100
AcDbEntity
  8
1
  6
Continuous
 62
     4
100
AcDbLine
 10
769.3628629626365
 20
636.3439024349402
 30
0.0
 11
781.9378629626362
 21
648.9189024349406
 31
0.0
  0
LINE
  5
721
330
124
100
AcDbEntity
  8
1
  6
Continuous
 62
     4
100
AcDbLine
 10
771.5128629626365
 20
627.1814024349403
 30
0.0
 11
784.3003629626365
 21
639.9689024349402
 31
0.0
  0
LINE
  5
722
330
124
100
AcDbEntity
  8
1
  6
Continuous
 62
     4
100
AcDbLine
 10
773.4316129626365
 20
617.7876524349406
 30
0.0
 11
786.4503629626365
 21
630.8064024349403
 31
0.0
  0
LINE
  5
723
330
124
100
AcDbEntity
  8
1
  6
Continuous
 62
     4
100
AcDbLine
 10
776.3753629626362
 20
599.3189024349407
 30
0.0
 11
790.0003629626366
 21
612.3001524349406
 31
0.0
  0
LINE
  5
724
330
124
100
AcDbEntity
  8
1
  6
Continuous
 62
     4
100
AcDbLine
 10
777.5253629626365
 20
589.3626524349406
 30
0.0
 11
791.4441129626363
 21
602.6251524349405
 31
0.0
  0
LINE
  5
725
330
124
100
AcDbEntity
  8
1
  6
Continuous
 62
     4
100
AcDbLine
 10
778.3816129626362
 20
579.1251524349402
 30
0.0
 11
792.6316129626362
 21
592.7001524349406
 31
0.0
  0
LINE
  5
726
330
124
100
AcDbEntity
  8
1
  6
Continuous
 62
     4
100
AcDbLine
 10
778.9316129626362
 20
568.6064024349406
 30
0.0
 11
793.5441129626362
 21
582.5314024349402
 31
0.0
  0
LINE
  5
727
330
124
100
AcDbEntity
  8
1
  6
Continuous
 62
     4
100
AcDbLine
 10
779.1441129626365
 20
557.7564024349404
 30
0.0
 11
794.1691129626365
 21
572.0751524349402
 31
0.0
  0
LINE
  5
728
330
124
100
AcDbEntity
  8
1
  6
Continuous
 62
     4
100
AcDbLine
 10
778.9816129626363
 20
546.55015243494
 30
0.0
 11
794.4816129626364
 21
561.3189024349403
 31
0.0
  0
LINE
  5
729
330
124
100
AcDbEntity
  8
1
  6
Continuous
 62
     4
100
AcDbLine
 10
778.4191129626365
 20
534.9689024349403
 30
0.0
 11
794.4503629626365
 21
550.2439024349405
 31
0.0
  0
LINE
  5
72A
330
124
100
AcDbEntity
  8
1
  6
Continuous
 62
     4
100
AcDbLine
 10
777.4003629626365
 20
522.9501524349403
 30
0.0
 11
794.0441129626365
 21
538.8064024349405
 31
0.0
  0
LINE
  5
72B
330
124
100
AcDbEntity
  8
1
  6
Continuous
 62
     4
100
AcDbLine
 10
775.8566129626363
 20
510.4314024349402
 30
0.0
 11
793.2191129626366
 21
526.9751524349405
 31
0.0
  0
LINE
  5
72C
330
124
100
AcDbEntity
  8
1
  6
Continuous
 62
     4
100
AcDbLine
 10
774.7503629626367
 20
498.3189024349406
 30
0.0
 11
791.9253629626365
 21
514.6876524349403
 31
0.0
  0
LINE
  5
72D
330
124
100
AcDbEntity
  8
1
  6
Continuous
 62
     4
100
AcDbLine
 10
778.5503629626365
 20
490.9001524349402
 30
0.0
 11
790.1066129626364
 21
501.9126524349403
 31
0.0
  0
LINE
  5
72E
330
124
100
AcDbEntity
  8
1
  6
Continuous
 62
     4
100
AcDbLine
 10
753.3316129626363
 20
689.2751524349401
 30
0.0
 11
745.3316129626365
 21
697.6751524349406
 31
0.0
  0
LINE
  5
72F
330
124
100
AcDbEntity
  8
1
  6
Continuous
 62
     4
100
AcDbLine
 10
774.9441129626363
 20
490.2251524349406
 30
0.0
 11
766.8503629626362
 21
498.7189024349403
 31
0.0
  0
LINE
  5
730
330
124
100
AcDbEntity
  8
1
  6
Continuous
 62
     4
100
AcDbLine
 10
743.2878629626363
 20
688.2189024349401
 30
0.0
 11
735.2878629626363
 21
696.6189024349402
 31
0.0
  0
LINE
  5
731
330
124
100
AcDbEntity
  8
1
  6
Continuous
 62
     4
100
AcDbLine
 10
733.2503629626367
 20
687.1626524349402
 30
0.0
 11
726.4691129626362
 21
694.2814024349402
 31
0.0
  0
LINE
  5
732
330
124
100
AcDbEntity
  8
1
  6
Continuous
 62
     4
100
AcDbLine
 10
764.9003629626365
 20
489.1689024349406
 30
0.0
 11
756.8128629626365
 21
497.6626524349406
 31
0.0
  0
LINE
  5
733
330
124
100
AcDbEntity
  8
1
  6
Continuous
 62
     4
100
AcDbLine
 10
754.8566129626363
 20
488.1126524349403
 30
0.0
 11
747.3378629626365
 21
496.0064024349403
 31
0.0
  0
LINE
  5
734
330
124
100
AcDbEntity
  8
1
  6
Continuous
 62
     4
100
AcDbLine
 10
624.2691129626363
 20
483.2221757655918
 30
0.0
 11
643.6941129626363
 21
501.7251524349403
 31
0.0
  0
LINE
  5
735
330
124
100
AcDbEntity
  8
1
  6
Continuous
 62
     4
100
AcDbLine
 10
624.2691129626363
 20
493.5801112721589
 30
0.0
 11
632.8200303320087
 21
501.7251524349403
 31
0.0
  0
LINE
  5
736
330
124
100
AcDbEntity
  8
1
  6
Continuous
 62
     4
100
AcDbLine
 10
624.2691129626363
 20
462.5046206681155
 30
0.0
 11
665.4378629626362
 21
501.7251524349403
 31
0.0
  0
LINE
  5
737
330
124
100
AcDbEntity
  8
1
  6
Continuous
 62
     4
100
AcDbLine
 10
624.2691129626363
 20
472.8632962531566
 30
0.0
 11
654.5646364590533
 21
501.7251524349403
 31
0.0
  0
LINE
  5
738
330
124
100
AcDbEntity
  8
1
  6
Continuous
 62
     4
100
AcDbLine
 10
629.7691129626363
 20
447.0251524349403
 30
0.0
 11
687.1816129626362
 21
501.7251524349403
 31
0.0
  0
LINE
  5
739
330
124
100
AcDbEntity
  8
1
  6
Continuous
 62
     4
100
AcDbLine
 10
629.0051975607029
 20
456.6564024349403
 30
0.0
 11
676.3088467266083
 21
501.7251524349403
 31
0.0
  0
LINE
  5
73A
330
124
100
AcDbEntity
  8
1
  6
Continuous
 62
     4
100
AcDbLine
 10
629.7691129626363
 20
426.3064024349406
 30
0.0
 11
657.2691129626363
 21
452.5064024349403
 31
0.0
  0
LINE
  5
73B
330
124
100
AcDbEntity
  8
1
  6
Continuous
 62
     4
100
AcDbLine
 10
629.7691129626363
 20
436.6653367749757
 30
0.0
 11
657.2691129626365
 21
462.8653367749753
 31
0.0
  0
LINE
  5
73C
330
124
100
AcDbEntity
  8
1
  6
Continuous
 62
     4
100
AcDbLine
 10
641.3816129626362
 20
416.6564024349403
 30
0.0
 11
657.2691129626363
 21
431.7939024349406
 31
0.0
  0
LINE
  5
73D
330
124
100
AcDbEntity
  8
1
  6
Continuous
 62
     4
100
AcDbLine
 10
630.5090793223671
 20
416.6564024349403
 30
0.0
 11
657.2691129626363
 21
442.1531772094221
 31
0.0
  0
LINE
  5
73E
330
124
100
AcDbEntity
  8
1
  6
Continuous
 62
     4
100
AcDbLine
 10
692.2628629626363
 20
485.8501524349403
 30
0.0
 11
708.9253629626365
 21
501.7251524349403
 31
0.0
  0
LINE
  5
73F
330
124
100
AcDbEntity
  8
1
  6
Continuous
 62
     4
100
AcDbLine
 10
679.9068681309965
 20
484.4371151421886
 30
0.0
 11
698.0525009744908
 21
501.7251524349403
 31
0.0
  0
LINE
  5
740
330
124
100
AcDbEntity
  8
1
  6
Continuous
 62
     4
100
AcDbLine
 10
710.1255778005052
 20
482.151601561088
 30
0.0
 11
730.6691129626365
 21
501.7251524349403
 31
0.0
  0
LINE
  5
741
330
124
100
AcDbEntity
  8
1
  6
Continuous
 62
     4
100
AcDbLine
 10
701.9528854988119
 20
484.7240190234622
 30
0.0
 11
719.7965248203494
 21
501.7251524349403
 31
0.0
  0
LINE
  5
742
330
124
100
AcDbEntity
  8
1
  6
Continuous
 62
     4
100
AcDbLine
 10
724.1691129626364
 20
474.8126524349403
 30
0.0
 11
747.1441129626365
 21
496.7064024349403
 31
0.0
  0
LINE
  5
743
330
124
100
AcDbEntity
  8
1
  6
Continuous
 62
     4
100
AcDbLine
 10
717.1663369118727
 20
478.4994656541203
 30
0.0
 11
739.4781962538035
 21
499.761283737576
 31
0.0
  0
LINE
  5
744
330
124
100
AcDbEntity
  8
1
  6
Continuous
 62
     4
100
AcDbLine
 10
738.5941129626362
 20
467.8376524349403
 30
0.0
 11
760.4941129626365
 21
488.7001524349407
 31
0.0
  0
LINE
  5
745
330
124
100
AcDbEntity
  8
1
  6
Continuous
 62
     4
100
AcDbLine
 10
731.3104942384807
 20
471.2574992004258
 30
0.0
 11
748.2721498358881
 21
487.4156060452166
 31
0.0
  0
LINE
  5
746
330
124
100
AcDbEntity
  8
1
  6
Continuous
 62
     4
100
AcDbLine
 10
753.6066129626362
 20
461.4314024349406
 30
0.0
 11
778.1253629626363
 21
484.7876524349405
 31
0.0
  0
LINE
  5
747
330
124
100
AcDbEntity
  8
1
  6
Continuous
 62
     4
100
AcDbLine
 10
746.0214521716769
 20
464.5640848164641
 30
0.0
 11
772.9523615863734
 21
490.2181272540682
 31
0.0
  0
LINE
  5
748
330
124
100
AcDbEntity
  8
1
  6
Continuous
 62
     4
100
AcDbLine
 10
769.2566129626363
 20
455.6126524349403
 30
0.0
 11
784.7441129626365
 21
470.3689024349403
 31
0.0
  0
LINE
  5
749
330
124
100
AcDbEntity
  8
1
  6
Continuous
 62
     4
100
AcDbLine
 10
761.3536276502314
 20
458.4420409198985
 30
0.0
 11
779.5705502421806
 21
475.7988424693706
 31
0.0
  0
LINE
  5
74A
330
124
100
AcDbEntity
  8
1
  6
Continuous
 62
     4
100
AcDbLine
 10
785.5628629626362
 20
450.4376524349403
 30
0.0
 11
799.8378629626365
 21
464.0376524349403
 31
0.0
  0
LINE
  5
74B
330
124
100
AcDbEntity
  8
1
  6
Continuous
 62
     4
100
AcDbLine
 10
777.3188257527062
 20
452.9423067980991
 30
0.0
 11
791.3803664377403
 21
466.3389410059075
 31
0.0
  0
LINE
  5
74C
330
124
100
AcDbEntity
  8
1
  6
Continuous
 62
     4
100
AcDbLine
 10
802.6066129626361
 20
445.9564024349403
 30
0.0
 11
817.3691129626366
 21
460.0189024349403
 31
0.0
  0
LINE
  5
74D
330
124
100
AcDbEntity
  8
1
  6
Continuous
 62
     4
100
AcDbLine
 10
793.9890939405907
 20
448.1056898269155
 30
0.0
 11
808.4979190792418
 21
461.9265435788051
 31
0.0
  0
LINE
  5
74E
330
124
100
AcDbEntity
  8
1
  6
Continuous
 62
     4
100
AcDbLine
 10
820.4503629626364
 20
442.2376524349403
 30
0.0
 11
835.8003629626363
 21
456.8626524349403
 31
0.0
  0
LINE
  5
74F
330
124
100
AcDbEntity
  8
1
  6
Continuous
 62
     4
100
AcDbLine
 10
811.4227077706154
 20
443.99553368167
 30
0.0
 11
826.4647970627965
 21
458.3271659877383
 31
0.0
  0
LINE
  5
750
330
124
100
AcDbEntity
  8
1
  6
Continuous
 62
     4
100
AcDbLine
 10
839.1816129626365
 20
439.3689024349406
 30
0.0
 11
855.2503629626363
 21
454.6814024349406
 31
0.0
  0
LINE
  5
751
330
124
100
AcDbEntity
  8
1
  6
Continuous
 62
     4
100
AcDbLine
 10
829.6966388442385
 20
440.6903407811856
 30
0.0
 11
845.3864716471812
 21
455.6417567155341
 31
0.0
  0
LINE
  5
752
330
124
100
AcDbEntity
  8
1
  6
Continuous
 62
     4
100
AcDbLine
 10
858.9316129626363
 20
437.4689024349403
 30
0.0
 11
875.9003629626365
 21
453.6376524349406
 31
0.0
  0
LINE
  5
753
330
124
100
AcDbEntity
  8
1
  6
Continuous
 62
     4
100
AcDbLine
 10
869.2359308329621
 20
436.9278255879051
 30
0.0
 11
881.0741249290726
 21
448.2079022459671
 31
0.0
  0
LINE
  5
754
330
124
100
AcDbEntity
  8
1
  6
Continuous
 62
     4
100
AcDbLine
 10
848.9209279442956
 20
438.2897686698525
 30
0.0
 11
865.4133961564177
 21
454.0046914193036
 31
0.0
  0
LINE
  5
755
330
124
100
AcDbEntity
  8
1
  6
Continuous
 62
     4
100
AcDbLine
 10
645.5753629626363
 20
680.0314024349402
 30
0.0
 11
624.2691129626363
 21
702.3924172864253
 31
0.0
  0
LINE
  5
756
330
124
100
AcDbEntity
  8
1
  6
Continuous
 62
     4
100
AcDbLine
 10
635.2158961821599
 20
680.0314024349402
 30
0.0
 11
624.2691129626363
 21
691.5201056158264
 31
0.0
  0
LINE
  5
757
330
124
100
AcDbEntity
  8
1
  6
Continuous
 62
     4
100
AcDbLine
 10
655.9348297431125
 20
680.0314024349402
 30
0.0
 11
624.2691129626363
 21
713.2647289570241
 31
0.0
  0
LINE
  5
758
330
124
100
AcDbEntity
  8
1
  6
Continuous
 62
     4
100
AcDbLine
 10
666.2941129626362
 20
680.0314024349402
 30
0.0
 11
624.2691129626363
 21
724.1293844977207
 31
0.0
  0
LINE
  5
759
330
124
100
AcDbEntity
  8
1
  6
Continuous
 62
     4
100
AcDbLine
 10
676.6544141121182
 20
680.0314024349402
 30
0.0
 11
629.6984918183672
 21
729.3035361422846
 31
0.0
  0
LINE
  5
75A
330
124
100
AcDbEntity
  8
1
  6
Continuous
 62
     4
100
AcDbLine
 10
687.0191129626363
 20
680.0314024349402
 30
0.0
 11
629.7691129626363
 21
740.1064024349405
 31
0.0
  0
LINE
  5
75B
330
124
100
AcDbEntity
  8
1
  6
Continuous
 62
     4
100
AcDbLine
 10
697.3793312969052
 20
680.0314024349402
 30
0.0
 11
677.7947958509007
 21
700.5823363549177
 31
0.0
  0
LINE
  5
75C
330
124
100
AcDbEntity
  8
1
  6
Continuous
 62
     4
100
AcDbLine
 10
657.2691129626363
 20
722.1208586171449
 30
0.0
 11
629.7691129626363
 21
750.9778455167085
 31
0.0
  0
LINE
  5
75D
330
124
100
AcDbEntity
  8
1
  6
Continuous
 62
     4
100
AcDbLine
 10
657.2691129626363
 20
732.9876524349406
 30
0.0
 11
629.7691129626363
 21
761.8439024349402
 31
0.0
  0
LINE
  5
75E
330
124
100
AcDbEntity
  8
1
  6
Continuous
 62
     4
100
AcDbLine
 10
657.2691129626363
 20
743.8589500289054
 30
0.0
 11
635.1984692301015
 21
767.0180777818857
 31
0.0
  0
LINE
  5
75F
330
124
100
AcDbEntity
  8
1
  6
Continuous
 62
     4
100
AcDbLine
 10
657.2691129626363
 20
754.7314024349406
 30
0.0
 11
645.9066129626362
 21
766.6564024349402
 31
0.0
  0
LINE
  5
760
330
124
100
AcDbEntity
  8
1
  6
Continuous
 62
     4
100
AcDbLine
 10
707.7316129626365
 20
680.0314024349402
 30
0.0
 11
689.3503629626366
 21
699.3189024349407
 31
0.0
  0
LINE
  5
761
330
124
100
AcDbEntity
  8
1
  6
Continuous
 62
     4
100
AcDbLine
 10
718.0920287557674
 20
680.0314024349402
 30
0.0
 11
698.6275271165087
 21
700.4555615844656
 31
0.0
  0
LINE
  5
762
330
124
100
AcDbEntity
  8
1
  6
Continuous
 62
     4
100
AcDbLine
 10
724.3128629626362
 20
684.3626524349406
 30
0.0
 11
706.5253629626365
 21
703.0314024349402
 31
0.0
  0
LINE
  5
763
330
124
100
AcDbEntity
  8
1
  6
Continuous
 62
     4
100
AcDbLine
 10
726.6203949198321
 20
692.8133173785899
 30
0.0
 11
713.4779796971048
 21
706.6068501510028
 31
0.0
  0
LINE
  5
764
330
124
100
AcDbEntity
  8
1
  6
Continuous
 62
     4
100
AcDbLine
 10
733.5316129626362
 20
696.4376524349402
 30
0.0
 11
717.9816129626365
 21
712.7501524349402
 31
0.0
  0
LINE
  5
765
330
124
100
AcDbEntity
  8
1
  6
Continuous
 62
     4
100
AcDbLine
 10
752.3691129626362
 20
698.4189024349404
 30
0.0
 11
718.6253629626365
 21
733.8251524349406
 31
0.0
  0
LINE
  5
766
330
124
100
AcDbEntity
  8
1
  6
Continuous
 62
     4
100
AcDbLine
 10
742.9533607219092
 20
697.4275263419388
 30
0.0
 11
718.0136687633902
 21
723.5959565966172
 31
0.0
  0
LINE
  5
767
330
124
100
AcDbEntity
  8
1
  6
Continuous
 62
     4
100
AcDbLine
 10
738.7941129626365
 20
734.3939024349407
 30
0.0
 11
723.6316129626366
 21
750.3064024349401
 31
0.0
  0
LINE
  5
768
330
124
100
AcDbEntity
  8
1
  6
Continuous
 62
     4
100
AcDbLine
 10
737.0673736177742
 20
725.3339633828929
 30
0.0
 11
720.6249194260298
 21
742.5897294060503
 31
0.0
  0
LINE
  5
769
330
124
100
AcDbEntity
  8
1
  6
Continuous
 62
     4
100
AcDbLine
 10
746.5191129626365
 20
748.0376524349408
 30
0.0
 11
732.0066129626362
 21
763.2626524349404
 31
0.0
  0
LINE
  5
76A
330
124
100
AcDbEntity
  8
1
  6
Continuous
 62
     4
100
AcDbLine
 10
742.3745761018525
 20
741.51557863135
 30
0.0
 11
727.458810522503
 21
757.1636427791942
 31
0.0
  0
LINE
  5
76B
330
124
100
AcDbEntity
  8
1
  6
Continuous
 62
     4
100
AcDbLine
 10
755.4628629626365
 20
760.4001524349402
 30
0.0
 11
738.6566129626364
 21
778.0314024349402
 31
0.0
  0
LINE
  5
76C
330
124
100
AcDbEntity
  8
1
  6
Continuous
 62
     4
100
AcDbLine
 10
751.1136296442971
 20
754.0928320476101
 30
0.0
 11
737.1003411073811
 21
768.7940172326753
 31
0.0
  0
LINE
  5
76D
330
124
100
AcDbEntity
  8
1
  6
Continuous
 62
     4
100
AcDbLine
 10
759.4753629626366
 20
777.9314024349401
 30
0.0
 11
722.5660458759052
 21
816.6564024349401
 31
0.0
  0
LINE
  5
76E
330
124
100
AcDbEntity
  8
1
  6
Continuous
 62
     4
100
AcDbLine
 10
763.6597811855867
 20
784.4117581799647
 30
0.0
 11
732.926978108615
 21
816.6564024349401
 31
0.0
  0
LINE
  5
76F
330
124
100
AcDbEntity
  8
1
  6
Continuous
 62
     4
100
AcDbLine
 10
767.3672684763237
 20
791.3912395973842
 30
0.0
 11
743.2862884174623
 21
816.6564024349401
 31
0.0
  0
LINE
  5
770
330
124
100
AcDbEntity
  8
1
  6
Continuous
 62
     4
100
AcDbLine
 10
771.0751773228807
 20
798.3715146091667
 30
0.0
 11
748.7152921016202
 21
821.8309477287217
 31
0.0
  0
LINE
  5
771
330
124
100
AcDbEntity
  8
1
  6
Continuous
 62
     4
100
AcDbLine
 10
730.4316129626365
 20
786.6564024349401
 30
0.0
 11
701.8416129626365
 21
816.6564024349401
 31
0.0
  0
LINE
  5
772
330
124
100
AcDbEntity
  8
1
  6
Continuous
 62
     4
100
AcDbLine
 10
758.1760480911128
 20
768.41496512605
 30
0.0
 11
712.2019583357402
 21
816.6564024349401
 31
0.0
  0
LINE
  5
773
330
124
100
AcDbEntity
  8
1
  6
Continuous
 62
     4
100
AcDbLine
 10
709.7128629626365
 20
786.6564024349401
 30
0.0
 11
685.8816129626363
 21
811.6564024349402
 31
0.0
  0
LINE
  5
774
330
124
100
AcDbEntity
  8
1
  6
Continuous
 62
     4
100
AcDbLine
 10
699.3512239566381
 20
786.6564024349401
 30
0.0
 11
684.7691129626363
 21
801.9536602309035
 31
0.0
  0
LINE
  5
775
330
124
100
AcDbEntity
  8
1
  6
Continuous
 62
     4
100
AcDbLine
 10
720.0745019686348
 20
786.6564024349401
 30
0.0
 11
691.3102907970442
 21
816.8312895805897
 31
0.0
  0
LINE
  5
776
330
124
100
AcDbEntity
  8
1
  6
Continuous
 62
     4
100
AcDbLine
 10
684.7691129626363
 20
852.9002656329613
 30
0.0
 11
693.3503629626366
 21
861.0752656329609
 31
0.0
  0
LINE
  5
777
330
124
100
AcDbEntity
  8
1
  6
Continuous
 62
     4
100
AcDbLine
 10
684.7691129626365
 20
842.5416875290309
 30
0.0
 11
704.2237022108752
 21
861.0752656329609
 31
0.0
  0
LINE
  5
778
330
124
100
AcDbEntity
  8
1
  6
Continuous
 62
     4
100
AcDbLine
 10
684.7691129626363
 20
832.1815156329613
 30
0.0
 11
715.1003629626362
 21
861.0752656329609
 31
0.0
  0
LINE
  5
779
330
124
100
AcDbEntity
  8
1
  6
Continuous
 62
     4
100
AcDbLine
 10
694.4814747217264
 20
831.0752656329613
 30
0.0
 11
725.974012035159
 21
861.0752656329609
 31
0.0
  0
LINE
  5
77A
330
124
100
AcDbEntity
  8
1
  6
Continuous
 62
     4
100
AcDbLine
 10
705.3628629626364
 20
831.0752656329613
 30
0.0
 11
736.8503629626363
 21
861.0752656329609
 31
0.0
  0
LINE
  5
77B
330
124
100
AcDbEntity
  8
1
  6
Continuous
 62
     4
100
AcDbLine
 10
716.2356002451988
 20
831.0752656329613
 30
0.0
 11
747.7231002451987
 21
861.0752656329609
 31
0.0
  0
LINE
  5
77C
330
124
100
AcDbEntity
  8
1
  6
Continuous
 62
     4
100
AcDbLine
 10
727.1003629626362
 20
831.0752656329613
 30
0.0
 11
758.5878629626365
 21
861.0752656329609
 31
0.0
  0
LINE
  5
77D
330
124
100
AcDbEntity
  8
1
  6
Continuous
 62
     4
100
AcDbLine
 10
737.973100245199
 20
831.0752656329613
 30
0.0
 11
769.460600245199
 21
861.0752656329609
 31
0.0
  0
LINE
  5
77E
330
124
100
AcDbEntity
  8
1
  6
Continuous
 62
     4
100
AcDbLine
 10
744.7691129626365
 20
827.1877656329614
 30
0.0
 11
780.3441129626365
 21
861.0752656329609
 31
0.0
  0
LINE
  5
77F
330
124
100
AcDbEntity
  8
1
  6
Continuous
 62
     4
100
AcDbLine
 10
754.4137603273335
 20
826.0168242898101
 30
0.0
 11
791.2180111803799
 21
861.0752656329612
 31
0.0
  0
LINE
  5
780
330
124
100
AcDbEntity
  8
1
  6
Continuous
 62
     4
100
AcDbLine
 10
765.3495296293028
 20
826.0752656329609
 30
0.0
 11
802.0878629626364
 21
861.0752656329609
 31
0.0
  0
LINE
  5
781
330
124
100
AcDbEntity
  8
1
  6
Continuous
 62
     4
100
AcDbLine
 10
776.161375491311
 20
826.01682428981
 30
0.0
 11
812.9610527545052
 21
861.0752656329609
 31
0.0
  0
LINE
  5
782
330
124
100
AcDbEntity
  8
1
  6
Continuous
 62
     4
100
AcDbLine
 10
787.0932796293028
 20
826.0752656329609
 30
0.0
 11
823.8316129626365
 21
861.0752656329609
 31
0.0
  0
LINE
  5
783
330
124
100
AcDbEntity
  8
1
  6
Continuous
 62
     4
100
AcDbLine
 10
797.9051254913112
 20
826.01682428981
 30
0.0
 11
834.7048027545053
 21
861.0752656329609
 31
0.0
  0
LINE
  5
784
330
124
100
AcDbEntity
  8
1
  6
Continuous
 62
     4
100
AcDbLine
 10
808.8432796293028
 20
826.0752656329609
 30
0.0
 11
845.5816129626365
 21
861.0752656329609
 31
0.0
  0
LINE
  5
785
330
124
100
AcDbEntity
  8
1
  6
Continuous
 62
     4
100
AcDbLine
 10
819.655125491311
 20
826.01682428981
 30
0.0
 11
856.4548027545056
 21
861.0752656329609
 31
0.0
  0
LINE
  5
786
330
124
100
AcDbEntity
  8
1
  6
Continuous
 62
     4
100
AcDbLine
 10
830.5870296293033
 20
826.0752656329609
 30
0.0
 11
867.3253629626364
 21
861.0752656329609
 31
0.0
  0
LINE
  5
787
330
124
100
AcDbEntity
  8
1
  6
Continuous
 62
     4
100
AcDbLine
 10
841.3988754913111
 20
826.01682428981
 30
0.0
 11
878.1985527545051
 21
861.0752656329609
 31
0.0
  0
LINE
  5
788
330
124
100
AcDbEntity
  8
1
  6
Continuous
 62
     4
100
AcDbLine
 10
852.3310336759145
 20
826.0752656329609
 30
0.0
 11
882.2691129626363
 21
854.5940156329614
 31
0.0
  0
LINE
  5
789
330
124
100
AcDbEntity
  8
1
  6
Continuous
 62
     4
100
AcDbLine
 10
863.1434254229109
 20
826.01682428981
 30
0.0
 11
882.2691129626363
 21
844.2357853761167
 31
0.0
  0
LINE
  5
78A
330
124
100
AcDbEntity
  8
1
  6
Continuous
 62
     4
100
AcDbLine
 10
874.0810061665197
 20
826.0752656329609
 30
0.0
 11
882.2691129626363
 21
833.8752656329614
 31
0.0
  0
LINE
  5
78B
330
124
100
AcDbEntity
  8
1
  6
Continuous
 62
     4
100
AcDbLine
 10
773.8625797830499
 20
806.7842693752913
 30
0.0
 11
759.6875063055994
 21
821.6564024349407
 31
0.0
  0
LINE
  5
78C
330
124
100
AcDbEntity
  8
1
  6
Continuous
 62
     4
100
AcDbLine
 10
773.8625797830499
 20
817.6547897411293
 30
0.0
 11
770.0485234042122
 21
821.6564024349406
 31
0.0
  0
LINE
  5
78D
330
124
100
AcDbEntity
  8
1
  6
Continuous
 62
     4
100
AcDbLine
 10
882.2691129626363
 20
861.0752656329609
 30
0.0
 11
882.2691129626363
 21
893.115734250839
 31
0.0
  0
LINE
  5
78E
330
124
100
AcDbEntity
  8
1
  6
Continuous
 62
     4
100
AcDbLine
 10
882.2691129626363
 20
394.6159338170624
 30
0.0
 11
882.2691129626363
 21
426.6564024349403
 31
0.0
  0
LINE
  5
78F
330
124
100
AcDbEntity
  8
1
  6
Continuous
 62
     7
100
AcDbLine
 10
1079.769112962636
 20
786.6564024349401
 30
0.0
 11
1079.769112962636
 21
816.6564024349401
 31
0.0
  0
LINE
  5
790
330
124
100
AcDbEntity
  8
1
  6
Continuous
 62
     7
100
AcDbLine
 10
882.2691129626363
 20
816.6564024349401
 30
0.0
 11
1079.769112962636
 21
816.6564024349401
 31
0.0
  0
LINE
  5
791
330
124
100
AcDbEntity
  8
1
  6
Continuous
 62
     7
100
AcDbLine
 10
1019.769112962636
 20
816.6564024349401
 30
0.0
 11
1019.769112962636
 21
821.6564024349406
 31
0.0
  0
LINE
  5
792
330
124
100
AcDbEntity
  8
1
  6
Continuous
 62
     7
100
AcDbLine
 10
1140.269112962636
 20
456.6564024349403
 30
0.0
 11
1140.269112962636
 21
726.6564024349402
 31
0.0
  0
LINE
  5
793
330
124
100
AcDbEntity
  8
1
  6
Continuous
 62
     7
100
AcDbLine
 10
1107.269112962635
 20
766.6564024349402
 30
0.0
 11
1134.769112962636
 21
766.6564024349402
 31
0.0
  0
LINE
  5
794
330
124
100
AcDbEntity
  8
1
  6
Continuous
 62
     7
100
AcDbLine
 10
1134.769112962636
 20
726.6564024349402
 30
0.0
 11
1140.269112962636
 21
726.6564024349402
 31
0.0
  0
LINE
  5
795
330
124
100
AcDbEntity
  8
1
  6
Continuous
 62
     7
100
AcDbLine
 10
1134.769112962636
 20
456.6564024349403
 30
0.0
 11
1140.269112962636
 21
456.6564024349403
 31
0.0
  0
LINE
  5
796
330
124
100
AcDbEntity
  8
1
  6
Continuous
 62
     7
100
AcDbLine
 10
1134.769112962636
 20
766.6564024349402
 30
0.0
 11
1134.769112962636
 21
416.6564024349403
 31
0.0
  0
LINE
  5
797
330
124
100
AcDbEntity
  8
1
  6
Continuous
 62
     7
100
AcDbLine
 10
1107.269112962637
 20
416.6564024349403
 30
0.0
 11
1134.769112962636
 21
416.6564024349403
 31
0.0
  0
LINE
  5
798
330
124
100
AcDbEntity
  8
1
  6
Continuous
 62
     7
100
AcDbLine
 10
1107.269112962635
 20
766.6564024349402
 30
0.0
 11
1107.269112962637
 21
416.6564024349403
 31
0.0
  0
LINE
  5
799
330
124
100
AcDbEntity
  8
1
  6
Continuous
 62
     7
100
AcDbLine
 10
902.2691129626364
 20
426.6564024349403
 30
0.0
 11
913.7378629626367
 21
438.6376524349405
 31
0.0
  0
LINE
  5
79A
330
124
100
AcDbEntity
  8
1
  6
Continuous
 62
     7
100
AcDbLine
 10
684.7691129626363
 20
786.6564024349401
 30
0.0
 11
684.7691129626363
 21
816.6564024349401
 31
0.0
  0
LINE
  5
79B
330
124
100
AcDbEntity
  8
1
  6
Continuous
 62
     7
100
AcDbLine
 10
744.7691129626365
 20
816.6564024349401
 30
0.0
 11
684.7691129626363
 21
816.6564024349401
 31
0.0
  0
LINE
  5
79C
330
124
100
AcDbEntity
  8
1
  6
Continuous
 62
     7
100
AcDbLine
 10
734.7691129626364
 20
786.6564024349401
 30
0.0
 11
684.7691129626363
 21
786.6564024349401
 31
0.0
  0
LINE
  5
79D
330
124
100
AcDbEntity
  8
1
  6
Continuous
 62
     7
100
AcDbLine
 10
744.7691129626365
 20
816.6564024349401
 30
0.0
 11
744.7691129626365
 21
821.6564024349406
 31
0.0
  0
LINE
  5
79E
330
124
100
AcDbEntity
  8
1
  6
Continuous
 62
     7
100
AcDbLine
 10
624.2691129626363
 20
456.6564024349403
 30
0.0
 11
624.2691129626366
 21
726.6564024349402
 31
0.0
  0
LINE
  5
79F
330
124
100
AcDbEntity
  8
1
  6
Continuous
 62
     7
100
AcDbLine
 10
657.2691129626363
 20
766.6564024349402
 30
0.0
 11
629.7691129626363
 21
766.6564024349402
 31
0.0
  0
LINE
  5
7A0
330
124
100
AcDbEntity
  8
1
  6
Continuous
 62
     7
100
AcDbLine
 10
629.7691129626363
 20
726.6564024349402
 30
0.0
 11
629.7691129626363
 21
766.6564024349402
 31
0.0
  0
LINE
  5
7A1
330
124
100
AcDbEntity
  8
1
  6
Continuous
 62
     7
100
AcDbLine
 10
629.7691129626363
 20
726.6564024349402
 30
0.0
 11
624.2691129626366
 21
726.6564024349402
 31
0.0
  0
LINE
  5
7A2
330
124
100
AcDbEntity
  8
1
  6
Continuous
 62
     7
100
AcDbLine
 10
629.7691129626363
 20
456.6564024349403
 30
0.0
 11
624.2691129626363
 21
456.6564024349403
 31
0.0
  0
LINE
  5
7A3
330
124
100
AcDbEntity
  8
1
  6
Continuous
 62
     7
100
AcDbLine
 10
629.7691129626363
 20
456.6564024349403
 30
0.0
 11
629.7691129626363
 21
416.6564024349403
 31
0.0
  0
LINE
  5
7A4
330
124
100
AcDbEntity
  8
1
  6
Continuous
 62
     7
100
AcDbLine
 10
657.2691129626363
 20
416.6564024349403
 30
0.0
 11
629.7691129626363
 21
416.6564024349403
 31
0.0
  0
LINE
  5
7A5
330
124
100
AcDbEntity
  8
1
  6
Continuous
 62
     7
100
AcDbLine
 10
657.2691129626363
 20
471.6564024349403
 30
0.0
 11
657.2691129626363
 21
416.6564024349403
 31
0.0
  0
LINE
  5
7A6
330
124
100
AcDbEntity
  8
1
  6
Continuous
 62
     7
100
AcDbLine
 10
862.2691129626369
 20
426.6564024349403
 30
0.0
 11
851.3441129626363
 21
438.0626524349403
 31
0.0
  0
LINE
  5
7A7
330
124
100
AcDbEntity
  8
1
  6
Continuous
 62
     7
100
AcDbLine
 10
748.2441129626367
 20
487.4126524349403
 30
0.0
 11
726.3191129626366
 21
695.6751524349406
 31
0.0
  0
LINE
  5
7A8
330
124
100
AcDbEntity
  8
1
  6
Continuous
 62
     7
100
AcDbLine
 10
775.5941129626367
 20
490.2939024349405
 30
0.0
 11
753.6691129626365
 21
698.5564024349401
 31
0.0
  0
LINE
  5
7A9
330
124
100
AcDbEntity
  8
1
  6
Continuous
 62
     7
100
AcDbLine
 10
774.6191129626367
 20
499.5376524349405
 30
0.0
 11
747.2691129626364
 21
496.6564024349403
 31
0.0
  0
LINE
  5
7AA
330
124
100
AcDbEntity
  8
1
  6
Continuous
 62
     7
100
AcDbLine
 10
775.5941129626367
 20
490.2939024349405
 30
0.0
 11
748.2441129626367
 21
487.4126524349403
 31
0.0
  0
LINE
  5
7AB
330
124
100
AcDbEntity
  8
1
  6
Continuous
 62
     7
100
AcDbLine
 10
792.4441129626362
 20
625.6751524349406
 30
0.0
 11
789.2878629626363
 21
683.7126524349403
 31
0.0
  0
LINE
  5
7AC
330
124
100
AcDbEntity
  8
1
  6
Continuous
 62
     7
100
AcDbLine
 10
822.2566129626367
 20
576.9251524349402
 30
0.0
 11
817.8941129626364
 21
621.8189024349404
 31
0.0
  0
LINE
  5
7AD
330
124
100
AcDbEntity
  8
1
  6
Continuous
 62
     7
100
AcDbLine
 10
818.7878629626364
 20
612.6064024349406
 30
0.0
 11
790.3941129626367
 21
609.8501524349402
 31
0.0
  0
LINE
  5
7AE
330
124
100
AcDbEntity
  8
1
  6
Continuous
 62
     7
100
AcDbLine
 10
813.4128629626365
 20
628.5564024349403
 30
0.0
 11
811.8441129626367
 21
682.1189024349402
 31
0.0
  0
LINE
  5
7AF
330
124
100
AcDbEntity
  8
1
  6
Continuous
 62
     7
100
AcDbLine
 10
822.2566129626367
 20
576.9251524349402
 30
0.0
 11
794.0691129626364
 21
574.1876524349402
 31
0.0
  0
LINE
  5
7B0
330
124
100
AcDbEntity
  8
1
  6
Continuous
 62
     7
100
AcDbLine
 10
821.0441129626365
 20
589.4001524349405
 30
0.0
 11
793.2066129626365
 21
586.7001524349404
 31
0.0
  0
LINE
  5
7B1
330
124
100
AcDbEntity
  8
1
  6
Continuous
 62
     7
100
AcDbLine
 10
824.1316129626365
 20
583.7501524349402
 30
0.0
 11
820.7128629626366
 21
618.9751524349405
 31
0.0
  0
LINE
  5
7B4
330
124
100
AcDbEntity
  8
1
  6
Continuous
 62
     7
100
AcDbLine
 10
820.8941129626365
 20
616.9626524349405
 30
0.0
 11
821.6128629626364
 21
609.5001524349402
 31
0.0
  0
LINE
  5
7B5
330
124
100
AcDbEntity
  8
1
  6
Continuous
 62
     7
100
AcDbLine
 10
840.6441129626363
 20
594.8001524349402
 30
0.0
 11
838.1566129626367
 21
594.5626524349401
 31
0.0
  0
LINE
  5
7B6
330
124
100
AcDbEntity
  8
1
  6
Continuous
 62
     7
100
AcDbLine
 10
838.1566129626367
 20
594.5564024349405
 30
0.0
 11
823.2191129626363
 21
593.1189024349405
 31
0.0
  0
LINE
  5
7B7
330
124
100
AcDbEntity
  8
1
  6
Continuous
 62
     7
100
AcDbLine
 10
839.0503629626365
 20
611.1876524349402
 30
0.0
 11
836.5628629626367
 21
610.9501524349406
 31
0.0
  0
LINE
  5
7B8
330
124
100
AcDbEntity
  8
1
  6
Continuous
 62
     7
100
AcDbLine
 10
836.5628629626367
 20
610.9439024349406
 30
0.0
 11
821.6316129626365
 21
609.5001524349402
 31
0.0
  0
LINE
  5
7B9
330
124
100
AcDbEntity
  8
1
  6
Continuous
 62
     7
100
AcDbLine
 10
840.6441129626363
 20
594.8001524349402
 30
0.0
 11
839.0503629626365
 21
611.1876524349402
 31
0.0
  0
LINE
  5
7BA
330
124
100
AcDbEntity
  8
1
  6
Continuous
 62
     7
100
AcDbLine
 10
841.5378629626365
 20
595.8876524349403
 30
0.0
 11
840.1378629626364
 21
610.2876524349404
 31
0.0
  0
LINE
  5
7BB
330
124
100
AcDbEntity
  8
1
  6
Continuous
 62
     7
100
AcDbLine
 10
840.1378629626364
 20
610.2876524349404
 30
0.0
 11
839.0503629626365
 21
611.1876524349402
 31
0.0
  0
LINE
  5
7BC
330
124
100
AcDbEntity
  8
1
  6
Continuous
 62
     7
100
AcDbLine
 10
840.6441129626363
 20
594.8001524349402
 30
0.0
 11
841.5378629626365
 21
595.8876524349403
 31
0.0
  0
LINE
  5
7BD
330
124
100
AcDbEntity
  8
1
  6
Continuous
 62
     7
100
AcDbLine
 10
840.1378629626364
 20
610.2876524349404
 30
0.0
 11
836.6566129626367
 21
609.9564024349406
 31
0.0
  0
LINE
  5
7BE
330
124
100
AcDbEntity
  8
1
  6
Continuous
 62
     7
100
AcDbLine
 10
841.5378629626365
 20
595.8876524349403
 30
0.0
 11
838.0566129626362
 21
595.5564024349405
 31
0.0
  0
LINE
  5
7C0
330
124
100
AcDbEntity
  8
1
  6
Continuous
 62
     7
100
AcDbLine
 10
882.2691129626369
 20
786.6564024349401
 30
0.0
 11
1079.769112962636
 21
786.6564024349401
 31
0.0
  0
LINE
  5
7C1
330
124
100
AcDbEntity
  8
1
  6
Continuous
 62
     7
100
AcDbLine
 10
835.8378629626367
 20
618.4064024349402
 30
0.0
 11
820.9066129626366
 21
616.9626524349405
 31
0.0
  0
LINE
  5
7C2
330
124
100
AcDbEntity
  8
1
  6
Continuous
 62
     7
100
AcDbLine
 10
838.8816129626363
 20
587.0939024349402
 30
0.0
 11
835.8378629626367
 21
618.4064024349402
 31
0.0
  0
LINE
  5
7C3
330
124
100
AcDbEntity
  8
1
  6
Continuous
 62
     7
100
AcDbLine
 10
838.8816129626363
 20
587.0939024349402
 30
0.0
 11
823.9441129626365
 21
585.6564024349402
 31
0.0
  0
LINE
  5
7C4
330
124
100
AcDbEntity
  8
1
  6
Continuous
 62
     7
100
AcDbLine
 10
699.7691129626367
 20
816.6564024349401
 30
0.0
 11
699.7691129626367
 21
831.0752656329613
 31
0.0
  0
LINE
  5
7C5
330
124
100
AcDbEntity
  8
1
  6
Continuous
 62
     7
100
AcDbLine
 10
719.7691129626365
 20
816.6564024349401
 30
0.0
 11
719.7691129626365
 21
831.0752656329613
 31
0.0
  0
LINE
  5
7C6
330
124
100
AcDbEntity
  8
1
  6
Continuous
 62
     7
100
AcDbLine
 10
729.7691129626365
 20
786.6564024349401
 30
0.0
 11
729.7691129626365
 21
766.6564024349402
 31
0.0
  0
LINE
  5
7C7
330
124
100
AcDbEntity
  8
1
  6
Continuous
 62
     7
100
AcDbLine
 10
689.7691129626365
 20
786.6564024349401
 30
0.0
 11
689.7691129626365
 21
766.6564024349402
 31
0.0
  0
LINE
  5
7C8
330
124
100
AcDbEntity
  8
1
  6
Continuous
 62
     7
100
AcDbLine
 10
699.7691129626367
 20
756.6564024349402
 30
0.0
 11
719.7691129626365
 21
756.6564024349402
 31
0.0
  0
LINE
  5
7C9
330
124
100
AcDbEntity
  8
1
  6
Continuous
 62
     7
100
AcDbLine
 10
699.7691129626367
 20
786.6564024349401
 30
0.0
 11
699.7691129626367
 21
756.6564024349402
 31
0.0
  0
LINE
  5
7CA
330
124
100
AcDbEntity
  8
1
  6
Continuous
 62
     7
100
AcDbLine
 10
719.7691129626365
 20
786.6564024349401
 30
0.0
 11
719.7691129626365
 21
756.6564024349402
 31
0.0
  0
LINE
  5
7CB
330
124
100
AcDbEntity
  8
1
  6
Continuous
 62
     3
100
AcDbLine
 10
624.2691129626363
 20
448.0947500123707
 30
0.0
 11
624.2691129626363
 21
265.7760118824726
 31
0.0
  0
LINE
  5
7CC
330
124
100
AcDbEntity
  8
1
  6
Continuous
 62
     3
100
AcDbLine
 10
648.4003629626366
 20
274.9314024349406
 30
0.0
 11
1115.394112962635
 21
274.9314024349406
 31
0.0
  0
LINE
  5
7CD
330
124
100
AcDbEntity
  8
1
  6
Continuous
 62
     3
100
AcDbLine
 10
1140.269112962636
 20
261.9827609943393
 30
0.0
 11
1140.269112962636
 21
443.3565268193992
 31
0.0
  0
LINE
  5
7CE
330
124
100
AcDbEntity
  8
1
  6
Continuous
 62
     3
100
AcDbLine
 10
1115.394112962635
 20
268.3751524349403
 30
0.0
 11
1115.394112962635
 21
281.4876524349405
 31
0.0
  0
LINE
  5
7CF
330
124
100
AcDbEntity
  8
1
  6
Continuous
 62
     3
100
AcDbLine
 10
1139.106612962636
 20
274.9314024349406
 30
0.0
 11
1115.394112962635
 21
281.4876524349405
 31
0.0
  0
LINE
  5
7D0
330
124
100
AcDbEntity
  8
1
  6
Continuous
 62
     3
100
AcDbLine
 10
1139.106612962636
 20
274.9314024349406
 30
0.0
 11
1115.394112962635
 21
268.3751524349403
 31
0.0
  0
LINE
  5
7D1
330
124
100
AcDbEntity
  8
1
  6
Continuous
 62
     3
100
AcDbLine
 10
1115.394112962635
 20
268.3751524349403
 30
0.0
 11
1115.394112962635
 21
281.4876524349405
 31
0.0
  0
LINE
  5
7D2
330
124
100
AcDbEntity
  8
1
  6
Continuous
 62
     3
100
AcDbLine
 10
624.6878629626364
 20
274.9314024349406
 30
0.0
 11
648.4003629626366
 21
268.3751524349403
 31
0.0
  0
LINE
  5
7D3
330
124
100
AcDbEntity
  8
1
  6
Continuous
 62
     3
100
AcDbLine
 10
624.6878629626364
 20
274.9314024349406
 30
0.0
 11
648.4003629626366
 21
268.3751524349403
 31
0.0
  0
LINE
  5
7D4
330
124
100
AcDbEntity
  8
1
  6
Continuous
 62
     3
100
AcDbLine
 10
624.6878629626364
 20
274.9314024349406
 30
0.0
 11
624.6878629626364
 21
274.9314024349406
 31
0.0
  0
LINE
  5
7D5
330
124
100
AcDbEntity
  8
1
  6
Continuous
 62
     3
100
AcDbLine
 10
624.6878629626364
 20
274.9314024349406
 30
0.0
 11
648.4003629626366
 21
268.3751524349403
 31
0.0
  0
LINE
  5
7D9
330
124
100
AcDbEntity
  8
1
  6
Continuous
 62
     7
100
AcDbLine
 10
775.5941129626367
 20
490.2939024349405
 30
0.0
 11
785.8441129626367
 21
467.9814024349406
 31
0.0
  0
LINE
  5
7DA
330
124
100
AcDbEntity
  8
1
  6
Continuous
 62
     7
100
AcDbLine
 10
747.2691129626364
 20
496.6564024349403
 30
0.0
 11
734.5503629626365
 21
501.7251524349403
 31
0.0
  0
LINE
  5
7DB
330
124
100
AcDbEntity
  8
1
  6
Continuous
 62
     7
100
AcDbLine
 10
734.5503629626365
 20
501.7251524349403
 30
0.0
 11
624.2691129626363
 21
501.7251524349403
 31
0.0
  0
LINE
  5
7DC
330
124
100
AcDbEntity
  8
1
  6
Continuous
 62
     7
100
AcDbLine
 10
862.2691129626369
 20
426.6564024349403
 30
0.0
 11
882.2691129626363
 21
426.6564024349403
 31
0.0
  0
LINE
  5
7E1
330
124
100
AcDbEntity
  8
1
  6
Continuous
 62
     7
100
AcDbLine
 10
788.3003629626365
 20
491.7501524349403
 30
0.0
 11
775.5566129626367
 21
490.6376524349406
 31
0.0
  0
LINE
  5
7E2
330
124
100
AcDbEntity
  8
1
  6
Continuous
 62
     7
100
AcDbLine
 10
754.6191129626362
 20
689.4126524349402
 30
0.0
 11
727.2691129626365
 21
686.5314024349402
 31
0.0
  0
LINE
  5
7E3
330
124
100
AcDbEntity
  8
1
  6
Continuous
 62
     7
100
AcDbLine
 10
763.4628629626367
 20
699.5876524349402
 30
0.0
 11
753.6691129626365
 21
698.5564024349401
 31
0.0
  0
LINE
  5
7E4
330
124
100
AcDbEntity
  8
1
  6
Continuous
 62
     7
100
AcDbLine
 10
753.6691129626365
 20
698.5564024349401
 30
0.0
 11
726.3191129626366
 21
695.6751524349406
 31
0.0
  0
LINE
  5
7E6
330
124
100
AcDbEntity
  8
1
  6
Continuous
 62
     7
100
AcDbLine
 10
769.3878629626365
 20
737.7439024349402
 30
0.0
 11
797.4628629626367
 21
714.1251524349402
 31
0.0
  0
LINE
  5
7E9
330
124
100
AcDbEntity
  8
1
  6
Continuous
 62
     7
100
AcDbLine
 10
773.8625797830502
 20
803.2640927604971
 30
0.0
 11
773.8625797830499
 21
821.3015927604976
 31
0.0
  0
LINE
  5
7EF
330
124
100
AcDbEntity
  8
1
  6
Continuous
 62
     7
100
AcDbLine
 10
657.2691129626363
 20
766.6564024349402
 30
0.0
 11
657.2691129626361
 21
716.3301038773156
 31
0.0
  0
LINE
  5
7F6
330
124
100
AcDbEntity
  8
1
  6
Continuous
 62
     7
100
AcDbLine
 10
773.8625797830502
 20
803.6189024349402
 30
0.0
 11
758.9691129626365
 21
775.5814024349406
 31
0.0
  0
LINE
  5
7F7
330
124
100
AcDbEntity
  8
1
  6
Continuous
 62
     7
100
AcDbLine
 10
718.4066129626367
 20
680.0314024349402
 30
0.0
 11
624.2691129626363
 21
680.0314024349402
 31
0.0
  0
LINE
  5
7F8
330
124
100
AcDbEntity
  8
1
  6
Continuous
 62
     7
100
AcDbLine
 10
727.2691129626365
 20
686.5314024349402
 30
0.0
 11
718.4066129626367
 21
680.0314024349402
 31
0.0
  0
LINE
  5
7FA
330
124
100
AcDbEntity
  8
1
  6
Continuous
 62
     7
100
AcDbLine
 10
882.2691129626363
 20
426.6564024349403
 30
0.0
 11
902.2691129626364
 21
426.6564024349403
 31
0.0
  0
LINE
  5
7FB
330
124
100
AcDbEntity
  8
1
  6
Continuous
 62
     7
100
AcDbLine
 10
688.9816129626365
 20
786.6564024349401
 30
0.0
 11
684.7691129626363
 21
791.0751524349405
 31
0.0
  0
LINE
  5
7FE
330
124
100
AcDbEntity
  8
1
  6
Continuous
 62
     7
100
AcDbLine
 10
689.7691129626365
 20
766.6564024349402
 30
0.0
 11
729.7691129626365
 21
766.6564024349402
 31
0.0
  0
LINE
  5
7FF
330
124
100
AcDbEntity
  8
1
  6
Continuous
 62
     3
100
AcDbLine
 10
1351.050362962636
 20
615.3689024349405
 30
0.0
 11
1364.162862962635
 21
615.3689024349405
 31
0.0
  0
LINE
  5
800
330
124
100
AcDbEntity
  8
1
  6
Continuous
 62
     3
100
AcDbLine
 10
1357.606612962636
 20
591.6564024349402
 30
0.0
 11
1364.162862962635
 21
615.3689024349405
 31
0.0
  0
LINE
  5
801
330
124
100
AcDbEntity
  8
1
  6
Continuous
 62
     3
100
AcDbLine
 10
1357.606612962636
 20
591.6564024349402
 30
0.0
 11
1351.050362962636
 21
615.3689024349405
 31
0.0
  0
LINE
  5
802
330
124
100
AcDbEntity
  8
1
  6
Continuous
 62
     3
100
AcDbLine
 10
1351.050362962636
 20
615.3689024349405
 30
0.0
 11
1364.162862962635
 21
615.3689024349405
 31
0.0
  0
LINE
  5
803
330
124
100
AcDbEntity
  8
1
  6
Continuous
 62
     3
100
AcDbLine
 10
1364.162862962635
 20
837.3439024349407
 30
0.0
 11
1351.050362962636
 21
837.3439024349407
 31
0.0
  0
LINE
  5
804
330
124
100
AcDbEntity
  8
1
  6
Continuous
 62
     3
100
AcDbLine
 10
1357.606612962636
 20
861.0564024349402
 30
0.0
 11
1351.050362962636
 21
837.3439024349407
 31
0.0
  0
LINE
  5
805
330
124
100
AcDbEntity
  8
1
  6
Continuous
 62
     3
100
AcDbLine
 10
1357.606612962636
 20
861.0564024349402
 30
0.0
 11
1364.162862962635
 21
837.3439024349407
 31
0.0
  0
LINE
  5
806
330
124
100
AcDbEntity
  8
1
  6
Continuous
 62
     3
100
AcDbLine
 10
1364.162862962635
 20
837.3439024349407
 30
0.0
 11
1351.050362962636
 21
837.3439024349407
 31
0.0
  0
LINE
  5
807
330
124
100
AcDbEntity
  8
1
  6
Continuous
 62
     3
100
AcDbLine
 10
1174.451630310753
 20
591.6564024349402
 30
0.0
 11
1366.562862962636
 21
591.6564024349402
 31
0.0
  0
LINE
  5
808
330
124
100
AcDbEntity
  8
1
  6
Continuous
 62
     3
100
AcDbLine
 10
1100.431612962635
 20
861.0564024349402
 30
0.0
 11
1365.631612962636
 21
861.0564024349402
 31
0.0
  0
LINE
  5
809
330
124
100
AcDbEntity
  8
1
  6
Continuous
 62
     5
100
AcDbLine
 10
1357.606612962636
 20
726.3884668759923
 30
0.0
 11
1364.606612962636
 21
726.3884668759923
 31
0.0
  0
LINE
  5
80A
330
124
100
AcDbEntity
  8
1
  6
Continuous
 62
     3
100
AcDbLine
 10
1357.606612962636
 20
615.3689024349405
 30
0.0
 11
1357.606612962636
 21
706.388466875992
 31
0.0
  0
LINE
  5
80B
330
124
100
AcDbEntity
  8
1
  6
Continuous
 62
     3
100
AcDbLine
 10
1357.606612962636
 20
751.2134668759918
 30
0.0
 11
1357.606612962636
 21
837.3439024349407
 31
0.0
  0
LINE
  5
80C
330
124
100
AcDbEntity
  8
1
  6
Continuous
 62
     7
100
AcDbLine
 10
1079.769112962636
 20
831.0752656329613
 30
0.0
 11
1079.769112962636
 21
861.0752656329609
 31
0.0
  0
LINE
  5
80D
330
124
100
AcDbEntity
  8
1
  6
Continuous
 62
     7
100
AcDbLine
 10
882.2691129626363
 20
826.0752656329609
 30
0.0
 11
1019.769112962636
 21
826.0752656329611
 31
0.0
  0
LINE
  5
80E
330
124
100
AcDbEntity
  8
1
  6
Continuous
 62
     7
100
AcDbLine
 10
1019.769112962636
 20
826.0752656329611
 30
0.0
 11
1019.769112962636
 21
831.0752656329613
 31
0.0
  0
LINE
  5
80F
330
124
100
AcDbEntity
  8
1
  6
Continuous
 62
     7
100
AcDbLine
 10
744.7691129626364
 20
831.0752656329613
 30
0.0
 11
684.7691129626363
 21
831.0752656329613
 31
0.0
  0
LINE
  5
810
330
124
100
AcDbEntity
  8
1
  6
Continuous
 62
     7
100
AcDbLine
 10
684.7691129626363
 20
831.0752656329613
 30
0.0
 11
684.7691129626363
 21
861.0752656329609
 31
0.0
  0
LINE
  5
811
330
124
100
AcDbEntity
  8
1
  6
Continuous
 62
     7
100
AcDbLine
 10
882.2691129626363
 20
826.0752656329609
 30
0.0
 11
744.7691129626364
 21
826.0752656329609
 31
0.0
  0
LINE
  5
812
330
124
100
AcDbEntity
  8
1
  6
Continuous
 62
     7
100
AcDbLine
 10
729.7691129626365
 20
861.0752656329609
 30
0.0
 11
729.7691129626365
 21
881.0752656329613
 31
0.0
  0
LINE
  5
813
330
124
100
AcDbEntity
  8
1
  6
Continuous
 62
     7
100
AcDbLine
 10
689.7691129626365
 20
861.0752656329609
 30
0.0
 11
689.7691129626365
 21
881.0752656329613
 31
0.0
  0
LINE
  5
814
330
124
100
AcDbEntity
  8
1
  6
Continuous
 62
     7
100
AcDbLine
 10
699.7691129626367
 20
891.0752656329608
 30
0.0
 11
719.7691129626365
 21
891.0752656329608
 31
0.0
  0
LINE
  5
815
330
124
100
AcDbEntity
  8
1
  6
Continuous
 62
     7
100
AcDbLine
 10
699.7691129626367
 20
861.0752656329609
 30
0.0
 11
699.7691129626367
 21
891.0752656329608
 31
0.0
  0
LINE
  5
816
330
124
100
AcDbEntity
  8
1
  6
Continuous
 62
     7
100
AcDbLine
 10
719.7691129626365
 20
861.0752656329609
 30
0.0
 11
719.7691129626365
 21
891.0752656329608
 31
0.0
  0
LINE
  5
817
330
124
100
AcDbEntity
  8
1
  6
Continuous
 62
     7
100
AcDbLine
 10
684.7691129626363
 20
861.0752656329609
 30
0.0
 11
889.0691129626363
 21
861.0752656329609
 31
0.0
  0
LINE
  5
818
330
124
100
AcDbEntity
  8
1
  6
Continuous
 62
     7
100
AcDbLine
 10
882.2691129626363
 20
861.0752656329609
 30
0.0
 11
1079.769112962636
 21
861.0752656329609
 31
0.0
  0
LINE
  5
819
330
124
100
AcDbEntity
  8
1
  6
Continuous
 62
     7
100
AcDbLine
 10
689.7691129626365
 20
881.0752656329613
 30
0.0
 11
729.7691129626365
 21
881.0752656329613
 31
0.0
  0
LINE
  5
81A
330
124
100
AcDbEntity
  8
1
  6
Continuous
 62
     7
100
AcDbLine
 10
1019.769112962636
 20
821.6564024349406
 30
0.0
 11
744.7691129626365
 21
821.6564024349406
 31
0.0
  0
LINE
  5
81B
330
124
100
AcDbEntity
  8
1
  6
Continuous
 62
     7
100
AcDbLine
 10
744.7691129626364
 20
826.0752656329609
 30
0.0
 11
744.7691129626364
 21
831.0752656329613
 31
0.0
  0
LINE
  5
81C
330
124
100
AcDbEntity
  8
1
  6
Continuous
 62
     7
100
AcDbLine
 10
882.2691129626363
 20
831.0752656329613
 30
0.0
 11
1079.769112962636
 21
831.0752656329613
 31
0.0
  0
LINE
  5
81D
330
124
100
AcDbEntity
  8
1
  6
Continuous
 62
     7
100
AcDbLine
 10
747.8735428800099
 20
821.6564024349407
 30
0.0
 11
747.8735428800099
 21
826.01682428981
 31
0.0
  0
LINE
  5
81E
330
124
100
AcDbEntity
  8
1
  6
Continuous
 62
     7
100
AcDbLine
 10
771.6577922536957
 20
821.6564024349407
 30
0.0
 11
771.6577922536957
 21
826.01682428981
 31
0.0
  0
LINE
  5
81F
330
124
100
AcDbEntity
  8
1
  6
Continuous
 62
     7
100
AcDbLine
 10
882.2691129626363
 20
822.7852635169599
 30
0.0
 11
771.6577922536957
 21
822.7852635169599
 31
0.0
  0
LINE
  5
820
330
124
100
AcDbEntity
  8
1
  6
Continuous
 62
     7
100
AcDbLine
 10
747.8735428800105
 20
822.7852635169599
 30
0.0
 11
721.1916505406263
 21
822.7852635169599
 31
0.0
  0
LINE
  5
821
330
124
100
AcDbEntity
  8
1
  6
Continuous
 62
     7
100
AcDbLine
 10
882.2691129626363
 20
824.978553622307
 30
0.0
 11
771.6577922536957
 21
824.9785536223081
 31
0.0
  0
LINE
  5
822
330
124
100
AcDbEntity
  8
1
  6
Continuous
 62
     7
100
AcDbLine
 10
747.8735428800105
 20
824.9785536223081
 30
0.0
 11
721.191650540626
 21
824.9785536223079
 31
0.0
  0
LINE
  5
823
330
124
100
AcDbEntity
  8
1
  6
Continuous
 62
     7
100
AcDbLine
 10
882.2691129626363
 20
826.01682428981
 30
0.0
 11
747.8735428800099
 21
826.01682428981
 31
0.0
  0
LINE
  5
824
330
124
100
AcDbEntity
  8
1
  6
Continuous
 62
     7
100
AcDbLine
 10
721.1916505406263
 20
822.7852635169599
 30
0.0
 11
721.191650540626
 21
824.9785536223079
 31
0.0
  0
LINE
  5
825
330
124
100
AcDbEntity
  8
0
  6
Continuous
100
AcDbLine
 10
773.8357371667216
 20
822.7852635169599
 30
0.0
 11
773.8357371667216
 21
824.9785536223079
 31
0.0
  0
LINE
  5
826
330
124
100
AcDbEntity
  8
1
  6
Continuous
 62
     7
100
AcDbLine
 10
744.7691129626369
 20
821.6564024349406
 30
0.0
 11
1019.769112962636
 21
821.6564024349406
 31
0.0
  0
LINE
  5
827
330
124
100
AcDbEntity
  8
1
  6
Continuous
 62
     7
100
AcDbLine
 10
1016.664683045263
 20
821.6564024349407
 30
0.0
 11
1016.664683045263
 21
822.7852635169599
 31
0.0
  0
LINE
  5
828
330
124
100
AcDbEntity
  8
1
  6
Continuous
 62
     7
100
AcDbLine
 10
1016.664683045262
 20
824.9785536223081
 30
0.0
 11
1016.664683045263
 21
826.01682428981
 31
0.0
  0
LINE
  5
829
330
124
100
AcDbEntity
  8
1
  6
Continuous
 62
     7
100
AcDbLine
 10
882.2691129626363
 20
822.7852635169599
 30
0.0
 11
1043.346575384647
 21
822.7852635169599
 31
0.0
  0
LINE
  5
82A
330
124
100
AcDbEntity
  8
1
  6
Continuous
 62
     7
100
AcDbLine
 10
882.2691129626363
 20
824.9785536223093
 30
0.0
 11
1043.346575384647
 21
824.9785536223079
 31
0.0
  0
LINE
  5
82B
330
124
100
AcDbEntity
  8
1
  6
Continuous
 62
     7
100
AcDbLine
 10
1043.346575384647
 20
822.7852635169599
 30
0.0
 11
1043.346575384647
 21
824.9785536223079
 31
0.0
  0
LINE
  5
82C
330
124
100
AcDbEntity
  8
1
  6
Continuous
 62
     7
100
AcDbLine
 10
1074.769112962635
 20
861.0752656329609
 30
0.0
 11
1074.769112962635
 21
881.0752656329613
 31
0.0
  0
LINE
  5
82D
330
124
100
AcDbEntity
  8
1
  6
Continuous
 62
     7
100
AcDbLine
 10
1034.769112962637
 20
861.0752656329609
 30
0.0
 11
1034.769112962637
 21
881.0752656329613
 31
0.0
  0
LINE
  5
82E
330
124
100
AcDbEntity
  8
1
  6
Continuous
 62
     7
100
AcDbLine
 10
1044.769112962637
 20
891.0752656329608
 30
0.0
 11
1064.769112962635
 21
891.0752656329608
 31
0.0
  0
LINE
  5
82F
330
124
100
AcDbEntity
  8
1
  6
Continuous
 62
     7
100
AcDbLine
 10
1044.769112962637
 20
861.0752656329609
 30
0.0
 11
1044.769112962637
 21
891.0752656329608
 31
0.0
  0
LINE
  5
830
330
124
100
AcDbEntity
  8
1
  6
Continuous
 62
     7
100
AcDbLine
 10
1064.769112962635
 20
861.0752656329609
 30
0.0
 11
1064.769112962635
 21
891.0752656329608
 31
0.0
  0
LINE
  5
831
330
124
100
AcDbEntity
  8
1
  6
Continuous
 62
     7
100
AcDbLine
 10
1034.769112962637
 20
881.0752656329613
 30
0.0
 11
1074.769112962635
 21
881.0752656329613
 31
0.0
  0
LINE
  5
832
330
124
100
AcDbEntity
  8
1
  6
Continuous
 62
     7
100
AcDbLine
 10
1044.769112962637
 20
816.6564024349401
 30
0.0
 11
1044.769112962637
 21
831.0752656329613
 31
0.0
  0
LINE
  5
833
330
124
100
AcDbEntity
  8
1
  6
Continuous
 62
     7
100
AcDbLine
 10
1064.769112962635
 20
816.6564024349401
 30
0.0
 11
1064.769112962635
 21
831.0752656329613
 31
0.0
  0
LINE
  5
834
330
124
100
AcDbEntity
  8
1
  6
Continuous
 62
     7
100
AcDbLine
 10
1074.769112962635
 20
786.6564024349401
 30
0.0
 11
1074.769112962635
 21
766.6564024349402
 31
0.0
  0
LINE
  5
835
330
124
100
AcDbEntity
  8
1
  6
Continuous
 62
     7
100
AcDbLine
 10
1034.769112962637
 20
786.6564024349401
 30
0.0
 11
1034.769112962637
 21
766.6564024349402
 31
0.0
  0
LINE
  5
836
330
124
100
AcDbEntity
  8
1
  6
Continuous
 62
     7
100
AcDbLine
 10
1044.769112962637
 20
756.6564024349402
 30
0.0
 11
1064.769112962635
 21
756.6564024349402
 31
0.0
  0
LINE
  5
837
330
124
100
AcDbEntity
  8
1
  6
Continuous
 62
     7
100
AcDbLine
 10
1044.769112962637
 20
786.6564024349401
 30
0.0
 11
1044.769112962637
 21
756.6564024349402
 31
0.0
  0
LINE
  5
838
330
124
100
AcDbEntity
  8
1
  6
Continuous
 62
     7
100
AcDbLine
 10
1064.769112962635
 20
786.6564024349401
 30
0.0
 11
1064.769112962635
 21
756.6564024349402
 31
0.0
  0
LINE
  5
839
330
124
100
AcDbEntity
  8
1
  6
Continuous
 62
     7
100
AcDbLine
 10
1034.769112962637
 20
766.6564024349402
 30
0.0
 11
1074.769112962635
 21
766.6564024349402
 31
0.0
  0
LINE
  5
83A
330
124
100
AcDbEntity
  8
1
  6
Continuous
 62
     7
100
AcDbLine
 10
882.2691129626363
 20
426.6564024349403
 30
0.0
 11
882.2691129626363
 21
861.0752656329609
 31
0.0
  0
LINE
  5
89B
330
124
100
AcDbEntity
  8
1
  6
Continuous
 62
     5
100
AcDbLine
 10
881.8972379626364
 20
294.9314024349407
 30
0.0
 11
884.8972379626362
 21
294.9314024349407
 31
0.0
  0
LINE
  5
915
330
124
100
AcDbEntity
  8
0
  6
Continuous
 62
     7
100
AcDbLine
 10
657.2691129626361
 20
716.3301038773156
 30
0.0
 11
660.340416084158
 21
708.9870774134793
 31
0.0
  0
LINE
  5
916
330
124
100
AcDbEntity
  8
0
  6
Continuous
 62
     7
100
AcDbLine
 10
660.340416084158
 20
708.9870774134793
 30
0.0
 11
668.3963085189332
 21
704.2062998317868
 31
0.0
  0
LINE
  5
918
330
124
100
AcDbEntity
  8
0
  6
Continuous
 62
     7
100
AcDbLine
 10
675.0675929281502
 20
701.4384791776835
 30
0.0
 11
688.4101731410817
 21
699.425519247837
 31
0.0
  0
LINE
  5
919
330
124
100
AcDbEntity
  8
0
  6
Continuous
 62
     7
100
AcDbLine
 10
688.4101731410817
 20
699.425519247837
 30
0.0
 11
701.3751283220206
 21
701.1868599370171
 31
0.0
  0
LINE
  5
91A
330
124
100
AcDbEntity
  8
0
  6
Continuous
 62
     7
100
AcDbLine
 10
701.3751283220206
 20
701.1868599370171
 30
0.0
 11
714.214208492295
 21
707.4773559649652
 31
0.0
  0
LINE
  5
91B
330
124
100
AcDbEntity
  8
0
  6
Continuous
 62
     7
100
AcDbLine
 10
714.214208492295
 20
707.4773559649652
 30
0.0
 11
717.7386632128997
 21
712.8871846505806
 31
0.0
  0
LINE
  5
91C
330
124
100
AcDbEntity
  8
0
  6
Continuous
 62
     7
100
AcDbLine
 10
717.7386632128997
 20
712.8871846505806
 30
0.0
 11
719.2491405518738
 21
736.5394533183737
 31
0.0
  0
LINE
  5
91D
330
124
100
AcDbEntity
  8
0
  6
Continuous
 62
     7
100
AcDbLine
 10
719.2491405518738
 20
736.5394533183737
 30
0.0
 11
725.5428113235962
 21
754.2786548192188
 31
0.0
  0
LINE
  5
91E
330
124
100
AcDbEntity
  8
0
  6
Continuous
 62
     7
100
AcDbLine
 10
725.5428113235962
 20
754.2786548192188
 30
0.0
 11
736.3679198094894
 21
767.9919394626286
 31
0.0
  0
LINE
  5
91F
330
124
100
AcDbEntity
  8
0
  6
Continuous
 62
     7
100
AcDbLine
 10
736.3679198094894
 20
767.9919394626286
 30
0.0
 11
738.6336358179503
 21
777.6793042463455
 31
0.0
  0
LINE
  5
920
330
124
100
AcDbEntity
  8
0
  6
Continuous
 62
     7
100
AcDbLine
 10
738.6336358179503
 20
777.6793042463455
 30
0.0
 11
734.7315617626025
 21
786.7376179261388
 31
0.0
  0
LINE
  5
921
330
124
100
AcDbEntity
  8
0
  6
Continuous
 62
     7
100
AcDbLine
 10
668.3963085189332
 20
704.2062998317868
 30
0.0
 11
675.0675929281502
 21
701.4384791776835
 31
0.0
  0
LINE
  5
951
330
124
100
AcDbEntity
  8
0
  6
Continuous
 62
     7
100
AcDbLine
 10
769.3857917243291
 20
737.7411661405881
 30
0.0
 11
762.3694901643116
 21
742.1524448009812
 31
0.0
  0
LINE
  5
952
330
124
100
AcDbEntity
  8
0
  6
Continuous
 62
     7
100
AcDbLine
 10
762.3694901643116
 20
742.1524448009812
 30
0.0
 11
754.1649565134489
 21
742.685804936551
 31
0.0
  0
LINE
  5
953
330
124
100
AcDbEntity
  8
0
  6
Continuous
 62
     7
100
AcDbLine
 10
754.1649565134489
 20
742.685804936551
 30
0.0
 11
746.5607590397707
 21
739.4856501276489
 31
0.0
  0
LINE
  5
954
330
124
100
AcDbEntity
  8
0
  6
Continuous
 62
     7
100
AcDbLine
 10
746.5607590397707
 20
739.4856501276489
 30
0.0
 11
741.7581095030397
 21
733.2853509359662
 31
0.0
  0
LINE
  5
955
330
124
100
AcDbEntity
  8
0
  6
Continuous
 62
     7
100
AcDbLine
 10
741.7581095030397
 20
733.2853509359662
 30
0.0
 11
740.2906292992818
 21
725.4183031970387
 31
0.0
  0
LINE
  5
956
330
124
100
AcDbEntity
  8
0
  6
Continuous
 62
     7
100
AcDbLine
 10
740.2906292992818
 20
725.4183031970387
 30
0.0
 11
742.8920670762504
 21
717.0178953225422
 31
0.0
  0
LINE
  5
957
330
124
100
AcDbEntity
  8
0
  6
Continuous
 62
     7
100
AcDbLine
 10
742.8920670762504
 20
717.0178953225422
 30
0.0
 11
748.4951572528959
 21
711.3509562664289
 31
0.0
  0
LINE
  5
958
330
124
100
AcDbEntity
  8
0
  6
Continuous
 62
     7
100
AcDbLine
 10
748.4951572528959
 20
711.3509562664289
 30
0.0
 11
756.6329875170993
 21
709.2175187264079
 31
0.0
  0
LINE
  5
959
330
124
100
AcDbEntity
  8
0
  6
Continuous
 62
     7
100
AcDbLine
 10
756.6329875170993
 20
709.2175187264079
 30
0.0
 11
773.9006779303363
 21
706.5312954791457
 31
0.0
  0
LINE
  5
988
330
124
100
AcDbEntity
  8
0
  6
Continuous
 62
     7
100
AcDbLine
 10
773.9006779303363
 20
706.5312954791457
 30
0.0
 11
783.5672259546941
 21
696.2094975055511
 31
0.0
  0
LINE
  5
989
330
124
100
AcDbEntity
  8
0
  6
Continuous
 62
     7
100
AcDbLine
 10
783.5672259546941
 20
696.2094975055511
 30
0.0
 11
788.0681150218486
 21
690.6911912348769
 31
0.0
  0
LINE
  5
98A
330
124
100
AcDbEntity
  8
0
  6
Continuous
 62
     7
100
AcDbLine
 10
788.0681150218486
 20
690.6911912348769
 30
0.0
 11
789.3283635048718
 21
682.6536572747295
 31
0.0
  0
LINE
  5
9B9
330
124
100
AcDbEntity
  8
0
  6
Continuous
 62
     7
100
AcDbLine
 10
797.6249931794234
 20
714.1096290404902
 30
0.0
 11
805.7668855818818
 21
705.1968167910713
 31
0.0
  0
LINE
  5
9BA
330
124
100
AcDbEntity
  8
0
  6
Continuous
 62
     7
100
AcDbLine
 10
805.7668855818818
 20
705.1968167910713
 30
0.0
 11
810.6778626035762
 21
694.2172651647459
 31
0.0
  0
LINE
  5
9BB
330
124
100
AcDbEntity
  8
0
  6
Continuous
 62
     7
100
AcDbLine
 10
810.6778626035762
 20
694.2172651647459
 30
0.0
 11
811.905608283312
 21
681.0418020122527
 31
0.0
  0
LINE
  5
9BC
330
124
100
AcDbEntity
  8
0
  6
Continuous
 62
     7
100
AcDbLine
 10
811.905608283312
 20
681.0418020122527
 30
0.0
 11
812.0994628643227
 21
670.1268349594301
 31
0.0
  0
LINE
  5
9EB
330
124
100
AcDbEntity
  8
0
  6
Continuous
 62
     7
100
AcDbLine
 10
792.4441129626362
 20
625.6751524349406
 30
0.0
 11
788.3203805752335
 21
621.7460330883446
 31
0.0
  0
LINE
  5
9EC
330
124
100
AcDbEntity
  8
0
  6
Continuous
 62
     7
100
AcDbLine
 10
813.4128629626365
 20
628.5564024349403
 30
0.0
 11
817.8941129626364
 21
621.8189024349404
 31
0.0
  0
LINE
  5
A49
330
124
100
AcDbEntity
  8
1
  6
Continuous
 62
     7
100
AcDbLine
 10
820.7128629626366
 20
618.9751524349405
 30
0.0
 11
818.1941174541838
 21
618.7316069295187
 31
0.0
  0
LINE
  5
A4A
330
124
100
AcDbEntity
  8
1
  6
Continuous
 62
     7
100
AcDbLine
 10
824.1316129626365
 20
583.7501524349402
 30
0.0
 11
821.6169172924722
 21
583.5081524332088
 31
0.0
  0
LINE
  5
A79
330
124
100
AcDbEntity
  8
0
  6
Continuous
 62
     7
100
AcDbLine
 10
763.4628629626367
 20
699.5876524349402
 30
0.0
 11
770.5878629626365
 21
682.8189024349406
 31
0.0
  0
LINE
  5
A7A
330
124
100
AcDbEntity
  8
0
  6
Continuous
 62
     7
100
AcDbLine
 10
770.5878629626365
 20
682.8189024349406
 30
0.0
 11
776.6316129626362
 21
666.2376524349406
 31
0.0
  0
LINE
  5
A7B
330
124
100
AcDbEntity
  8
0
  6
Continuous
 62
     7
100
AcDbLine
 10
776.6316129626362
 20
666.2376524349406
 30
0.0
 11
782.675362962636
 21
649.6564024349402
 31
0.0
  0
LINE
  5
A7C
330
124
100
AcDbEntity
  8
0
  6
Continuous
 62
     7
100
AcDbLine
 10
782.675362962636
 20
649.6564024349402
 30
0.0
 11
786.4503629626365
 21
630.8064024349403
 31
0.0
  0
LINE
  5
A7D
330
124
100
AcDbEntity
  8
0
  6
Continuous
 62
     7
100
AcDbLine
 10
786.4503629626365
 20
630.8064024349403
 30
0.0
 11
790.1315003516637
 21
612.4250938831103
 31
0.0
  0
LINE
  5
A7E
330
124
100
AcDbEntity
  8
0
  6
Continuous
 62
     7
100
AcDbLine
 10
790.1315003516637
 20
612.4250938831103
 30
0.0
 11
792.6316129626362
 21
592.7001524349406
 31
0.0
  0
LINE
  5
A7F
330
124
100
AcDbEntity
  8
0
  6
Continuous
 62
     7
100
AcDbLine
 10
792.6316129626362
 20
592.7001524349406
 30
0.0
 11
794.1691129626365
 21
572.0751524349402
 31
0.0
  0
LINE
  5
A80
330
124
100
AcDbEntity
  8
0
  6
Continuous
 62
     7
100
AcDbLine
 10
794.1691129626365
 20
572.0751524349402
 30
0.0
 11
794.4503629626365
 21
550.2439024349405
 31
0.0
  0
LINE
  5
A81
330
124
100
AcDbEntity
  8
0
  6
Continuous
 62
     7
100
AcDbLine
 10
794.4503629626365
 20
550.2439024349405
 30
0.0
 11
793.2191129626366
 21
526.9751524349405
 31
0.0
  0
LINE
  5
A82
330
124
100
AcDbEntity
  8
0
  6
Continuous
 62
     7
100
AcDbLine
 10
793.2191129626366
 20
526.9751524349405
 30
0.0
 11
790.1066129626364
 21
501.9126524349403
 31
0.0
  0
LINE
  5
A83
330
124
100
AcDbEntity
  8
0
  6
Continuous
 62
     7
100
AcDbLine
 10
790.1066129626364
 20
501.9126524349403
 30
0.0
 11
788.3003629626365
 21
491.7501524349403
 31
0.0
  0
LINE
  5
AB2
330
124
100
AcDbEntity
  8
0
  6
Continuous
 62
     7
100
AcDbLine
 10
755.7020718276922
 20
679.245611299996
 30
0.0
 11
761.6503629626362
 21
662.5689024349402
 31
0.0
  0
LINE
  5
AB3
330
124
100
AcDbEntity
  8
0
  6
Continuous
 62
     7
100
AcDbLine
 10
761.6503629626362
 20
662.5689024349402
 30
0.0
 11
767.5986540975802
 21
645.892193569884
 31
0.0
  0
LINE
  5
AB4
330
124
100
AcDbEntity
  8
0
  6
Continuous
 62
     7
100
AcDbLine
 10
767.5986540975802
 20
645.892193569884
 30
0.0
 11
771.5128629626365
 21
627.1814024349403
 31
0.0
  0
LINE
  5
AB5
330
124
100
AcDbEntity
  8
0
  6
Continuous
 62
     7
100
AcDbLine
 10
771.5128629626365
 20
627.1814024349403
 30
0.0
 11
775.2542849291444
 21
609.2965712017416
 31
0.0
  0
LINE
  5
AB6
330
124
100
AcDbEntity
  8
0
  6
Continuous
 62
     7
100
AcDbLine
 10
774.9628629626365
 20
609.0189024349403
 30
0.0
 11
777.5253629626365
 21
589.3626524349406
 31
0.0
  0
LINE
  5
AB7
330
124
100
AcDbEntity
  8
0
  6
Continuous
 62
     7
100
AcDbLine
 10
777.5253629626365
 20
589.3626524349406
 30
0.0
 11
778.9316129626362
 21
568.6064024349406
 31
0.0
  0
LINE
  5
ABA
330
124
100
AcDbEntity
  8
0
  6
Continuous
 62
     7
100
AcDbLine
 10
778.9316129626362
 20
568.6064024349406
 30
0.0
 11
778.9816129626363
 21
546.55015243494
 31
0.0
  0
LINE
  5
ABB
330
124
100
AcDbEntity
  8
0
  6
Continuous
 62
     7
100
AcDbLine
 10
778.9816129626363
 20
546.55015243494
 30
0.0
 11
777.4003629626365
 21
522.9501524349403
 31
0.0
  0
LINE
  5
ABC
330
124
100
AcDbEntity
  8
0
  6
Continuous
 62
     7
100
AcDbLine
 10
777.4003629626365
 20
522.9501524349403
 30
0.0
 11
774.6191129626367
 21
499.5376524349405
 31
0.0
  0
LINE
  5
AEB
330
124
100
AcDbEntity
  8
0
  6
Continuous
 62
     7
100
AcDbLine
 10
758.9691129626365
 20
775.5814024349406
 30
0.0
 11
758.1760480911128
 21
768.41496512605
 31
0.0
  0
LINE
  5
AEC
330
124
100
AcDbEntity
  8
0
  6
Continuous
 62
     7
100
AcDbLine
 10
758.1760480911128
 20
768.41496512605
 30
0.0
 11
751.1136296442971
 21
754.0928320476101
 31
0.0
  0
LINE
  5
AED
330
124
100
AcDbEntity
  8
0
  6
Continuous
 62
     7
100
AcDbLine
 10
751.1136296442971
 20
754.0928320476101
 30
0.0
 11
742.3745761018525
 21
741.51557863135
 31
0.0
  0
LINE
  5
AEE
330
124
100
AcDbEntity
  8
0
  6
Continuous
 62
     7
100
AcDbLine
 10
742.3745761018525
 20
741.51557863135
 30
0.0
 11
738.7941129626365
 21
734.3939024349407
 31
0.0
  0
LINE
  5
AEF
330
124
100
AcDbEntity
  8
0
  6
Continuous
 62
     7
100
AcDbLine
 10
738.7941129626365
 20
734.3939024349407
 30
0.0
 11
737.0673736177742
 21
725.3339633828929
 31
0.0
  0
LINE
  5
AF1
330
124
100
AcDbEntity
  8
0
  6
Continuous
 62
     7
100
AcDbLine
 10
737.0673736177742
 20
725.3339633828929
 30
0.0
 11
739.4958232382373
 21
716.2009989418016
 31
0.0
  0
LINE
  5
AF2
330
124
100
AcDbEntity
  8
0
  6
Continuous
 62
     7
100
AcDbLine
 10
739.4958232382373
 20
716.2009989418016
 30
0.0
 11
745.1049297094091
 21
710.0197190543735
 31
0.0
  0
LINE
  5
AF3
330
124
100
AcDbEntity
  8
0
  6
Continuous
 62
     7
100
AcDbLine
 10
745.1049297094091
 20
710.0197190543735
 30
0.0
 11
751.5769699404361
 21
706.2822021000247
 31
0.0
  0
LINE
  5
AF4
330
124
100
AcDbEntity
  8
0
  6
Continuous
 62
     7
100
AcDbLine
 10
751.5769699404361
 20
706.2822021000247
 30
0.0
 11
753.8781399269616
 21
698.6634140750927
 31
0.0
  0
LINE
  5
B23
330
124
100
AcDbEntity
  8
0
  6
Continuous
 62
     7
100
AcDbLine
 10
785.8441129626367
 20
467.9814024349406
 30
0.0
 11
808.4979190792418
 21
461.9265435788051
 31
0.0
  0
LINE
  5
B24
330
124
100
AcDbEntity
  8
0
  6
Continuous
 62
     7
100
AcDbLine
 10
808.4979190792418
 20
461.9265435788051
 30
0.0
 11
826.4647970627965
 21
458.3271659877383
 31
0.0
  0
LINE
  5
B25
330
124
100
AcDbEntity
  8
0
  6
Continuous
 62
     7
100
AcDbLine
 10
826.4647970627965
 20
458.3271659877383
 30
0.0
 11
845.3864716471812
 21
455.6417567155341
 31
0.0
  0
LINE
  5
B26
330
124
100
AcDbEntity
  8
0
  6
Continuous
 62
     7
100
AcDbLine
 10
845.3864716471812
 20
455.6417567155341
 30
0.0
 11
865.4133961564177
 21
454.0046914193036
 31
0.0
  0
LINE
  5
B27
330
124
100
AcDbEntity
  8
0
  6
Continuous
 62
     7
100
AcDbLine
 10
865.4133961564177
 20
454.0046914193036
 30
0.0
 11
882.2691129626363
 21
453.6654211049649
 31
0.0
  0
LINE
  5
B28
330
124
100
AcDbEntity
  8
0
  6
Continuous
 62
     7
100
AcDbLine
 10
657.2691129626363
 20
471.6564024349403
 30
0.0
 11
669.4018672003493
 21
480.5843666996175
 31
0.0
  0
LINE
  5
B29
330
124
100
AcDbEntity
  8
0
  6
Continuous
 62
     7
100
AcDbLine
 10
669.4018672003493
 20
480.5843666996175
 30
0.0
 11
684.0753816597377
 21
485.3271447021527
 31
0.0
  0
LINE
  5
B2A
330
124
100
AcDbEntity
  8
0
  6
Continuous
 62
     7
100
AcDbLine
 10
684.0753816597377
 20
485.3271447021527
 30
0.0
 11
699.7709369407536
 21
485.3271447021527
 31
0.0
  0
LINE
  5
B2B
330
124
100
AcDbEntity
  8
0
  6
Continuous
 62
     7
100
AcDbLine
 10
699.7709369407536
 20
485.3271447021527
 30
0.0
 11
717.2915602341777
 21
478.614291022649
 31
0.0
  0
LINE
  5
B5A
330
124
100
AcDbEntity
  8
0
  6
Continuous
 62
     7
100
AcDbLine
 10
717.1663369118727
 20
478.4994656541203
 30
0.0
 11
738.5941129626362
 21
467.8376524349403
 31
0.0
  0
LINE
  5
B5B
330
124
100
AcDbEntity
  8
0
  6
Continuous
 62
     7
100
AcDbLine
 10
738.5941129626362
 20
467.8376524349403
 30
0.0
 11
761.3536276502314
 21
458.4420409198985
 31
0.0
  0
LINE
  5
B5C
330
124
100
AcDbEntity
  8
0
  6
Continuous
 62
     7
100
AcDbLine
 10
761.3536276502314
 20
458.4420409198985
 30
0.0
 11
785.5628629626362
 21
450.4376524349403
 31
0.0
  0
LINE
  5
B5D
330
124
100
AcDbEntity
  8
0
  6
Continuous
 62
     7
100
AcDbLine
 10
785.5628629626362
 20
450.4376524349403
 30
0.0
 11
811.4227077706154
 21
443.99553368167
 31
0.0
  0
LINE
  5
B5E
330
124
100
AcDbEntity
  8
0
  6
Continuous
 62
     7
100
AcDbLine
 10
811.4227077706154
 20
443.99553368167
 30
0.0
 11
839.1816129626365
 21
439.3689024349406
 31
0.0
  0
LINE
  5
B5F
330
124
100
AcDbEntity
  8
0
  6
Continuous
 62
     7
100
AcDbLine
 10
839.1816129626365
 20
439.3689024349406
 30
0.0
 11
882.2691129626363
 21
436.6828674349401
 31
0.0
  0
LINE
  5
B8E
330
124
100
AcDbEntity
  8
0
  6
Continuous
 62
     7
100
AcDbLine
 10
882.2691129626344
 20
436.6828674349401
 30
0.0
 11
927.1430989144446
 21
439.5979830620205
 31
0.0
  0
LINE
  5
B8F
330
124
100
AcDbEntity
  8
0
  6
Continuous
 62
     7
100
AcDbLine
 10
927.1430989144446
 20
439.5979830620205
 30
0.0
 11
970.8260345233577
 21
448.1786907819902
 31
0.0
  0
LINE
  5
B90
330
124
100
AcDbEntity
  8
0
  6
Continuous
 62
     7
100
AcDbLine
 10
970.8260345233577
 20
448.1786907819902
 30
0.0
 11
1014.644490162303
 21
463.4959886775122
 31
0.0
  0
LINE
  5
B91
330
124
100
AcDbEntity
  8
0
  6
Continuous
 62
     7
100
AcDbLine
 10
1014.644490162303
 20
463.4959886775122
 30
0.0
 11
1050.008300045248
 21
480.0417219300526
 31
0.0
  0
LINE
  5
B92
330
124
100
AcDbEntity
  8
0
  6
Continuous
 62
     7
100
AcDbLine
 10
1050.008300045248
 20
480.0417219300526
 30
0.0
 11
1063.420806115684
 21
486.0226537885536
 31
0.0
  0
LINE
  5
B93
330
124
100
AcDbEntity
  8
0
  6
Continuous
 62
     7
100
AcDbLine
 10
1063.420806115684
 20
486.0226537885536
 30
0.0
 11
1081.249388485167
 21
485.6864339204831
 31
0.0
  0
LINE
  5
B94
330
124
100
AcDbEntity
  8
0
  6
Continuous
 62
     7
100
AcDbLine
 10
1081.249388485167
 20
485.6864339204831
 30
0.0
 11
1096.723252428492
 21
480.6431509107174
 31
0.0
  0
LINE
  5
B95
330
124
100
AcDbEntity
  8
0
  6
Continuous
 62
     7
100
AcDbLine
 10
1096.723252428492
 20
480.6431509107174
 30
0.0
 11
1107.151291172906
 21
471.5652414931382
 31
0.0
  0
LINE
  5
BC4
330
124
100
AcDbEntity
  8
0
  6
Continuous
 62
     7
100
AcDbLine
 10
1028.651118883562
 20
786.4447356518999
 30
0.0
 11
1023.347151350389
 21
769.5256999907273
 31
0.0
  0
LINE
  5
BC5
330
124
100
AcDbEntity
  8
0
  6
Continuous
 62
     7
100
AcDbLine
 10
1023.347151350389
 20
769.5256999907273
 30
0.0
 11
1023.572853551097
 21
751.3659361885937
 31
0.0
  0
LINE
  5
BC6
330
124
100
AcDbEntity
  8
0
  6
Continuous
 62
     7
100
AcDbLine
 10
1023.572853551097
 20
751.3659361885937
 30
0.0
 11
1028.989672184625
 21
734.6724871892087
 31
0.0
  0
LINE
  5
BC7
330
124
100
AcDbEntity
  8
0
  6
Continuous
 62
     7
100
AcDbLine
 10
1028.989672184625
 20
734.6724871892087
 30
0.0
 11
1039.823315148926
 21
720.1221159801944
 31
0.0
  0
LINE
  5
BC8
330
124
100
AcDbEntity
  8
0
  6
Continuous
 62
     7
100
AcDbLine
 10
1039.823315148926
 20
720.1221159801944
 30
0.0
 11
1054.832420340104
 21
709.8579003519197
 31
0.0
  0
LINE
  5
BC9
330
124
100
AcDbEntity
  8
0
  6
Continuous
 62
     7
100
AcDbLine
 10
1054.832420340104
 20
709.8579003519197
 30
0.0
 11
1071.759982842813
 21
705.2333632773692
 31
0.0
  0
LINE
  5
BCA
330
124
100
AcDbEntity
  8
0
  6
Continuous
 62
     7
100
AcDbLine
 10
1071.759982842813
 20
705.2333632773692
 30
0.0
 11
1090.606002657052
 21
705.6845396032026
 31
0.0
  0
LINE
  5
BCB
330
124
100
AcDbEntity
  8
0
  6
Continuous
 62
     7
100
AcDbLine
 10
1090.606002657052
 20
705.6845396032026
 30
0.0
 11
1107.082166455588
 21
712.5649462978875
 31
0.0
  0
LINE
  5
C03
330
124
100
AcDbEntity
  8
1
  6
Continuous
 62
     3
100
AcDbLine
 10
624.6878629626364
 20
274.9314024349406
 30
0.0
 11
648.4003629626366
 21
281.4876524349409
 31
0.0
  0
LINE
  5
C04
330
124
100
AcDbEntity
  8
1
  6
Continuous
 62
     3
100
AcDbLine
 10
624.6878629626364
 20
274.9314024349406
 30
0.0
 11
648.4003629626366
 21
281.4876524349409
 31
0.0
  0
LINE
  5
C05
330
124
100
AcDbEntity
  8
1
  6
Continuous
 62
     3
100
AcDbLine
 10
624.6878629626364
 20
274.9314024349406
 30
0.0
 11
624.6878629626364
 21
274.9314024349406
 31
0.0
  0
LINE
  5
C06
330
124
100
AcDbEntity
  8
1
  6
Continuous
 62
     3
100
AcDbLine
 10
624.6878629626364
 20
274.9314024349406
 30
0.0
 11
648.4003629626366
 21
281.4876524349409
 31
0.0
  0
LINE
  5
C07
330
124
100
AcDbEntity
  8
1
  6
Continuous
 62
     3
100
AcDbLine
 10
648.4003629626366
 20
268.3751524349407
 30
0.0
 11
648.4003629626366
 21
281.4876524349409
 31
0.0
  0
LINE
  5
C08
330
124
100
AcDbEntity
  8
1
  6
Continuous
 62
     3
100
AcDbLine
 10
648.4003629626366
 20
268.3751524349407
 30
0.0
 11
648.4003629626366
 21
281.4876524349409
 31
0.0
  0
ENDSEC
  0
SECTION
  2
OBJECTS
  0
DICTIONARY
  5
112
330
0
100
AcDbDictionary
281
     1
  3
ACAD_COLOR
350
241
  3
ACAD_GROUP
350
113
  3
ACAD_LAYOUT
350
11F
  3
ACAD_MATERIAL
350
214
  3
ACAD_MLEADERSTYLE
350
266
  3
ACAD_MLINESTYLE
350
11C
  3
ACAD_PLOTSETTINGS
350
11E
  3
ACAD_PLOTSTYLENAME
350
114
  3
ACAD_SCALELIST
350
244
  3
ACAD_TABLESTYLE
350
242
  3
ACAD_VISUALSTYLE
350
22D
  3
ACDB_RECOMPOSE_DATA
350
BCD
  3
AcDbVariableDictionary
350
272
  3
DWGPROPS
350
BCE
  0
DICTIONARY
  5
26A
330
116
100
AcDbDictionary
280
     1
281
     1
  3
ADSK_XREC_LAYER_RECONCILED
360
26B
  0
DICTIONARY
  5
26C
330
12F
100
AcDbDictionary
280
     1
281
     1
  3
ADSK_XREC_LAYER_RECONCILED
360
26D
  0
DICTIONARY
  5
26E
330
130
100
AcDbDictionary
280
     1
281
     1
  3
ADSK_XREC_LAYER_RECONCILED
360
26F
  0
DICTIONARY
  5
270
330
131
100
AcDbDictionary
280
     1
281
     1
  3
ADSK_XREC_LAYER_RECONCILED
360
271
  0
DICTIONARY
  5
316
330
124
100
AcDbDictionary
280
     1
281
     1
  3
ACAD_SORTENTS
360
317
  0
DICTIONARY
  5
241
102
{ACAD_REACTORS
330
112
102
}
330
112
100
AcDbDictionary
281
     1
  0
DICTIONARY
  5
113
102
{ACAD_REACTORS
330
112
102
}
330
112
100
AcDbDictionary
281
     1
  0
DICTIONARY
  5
11F
102
{ACAD_REACTORS
330
112
102
}
330
112
100
AcDbDictionary
281
     1
  3
Layout1
350
123
  3
Model
350
127
  0
DICTIONARY
  5
214
102
{ACAD_REACTORS
330
112
102
}
330
112
100
AcDbDictionary
281
     1
  3
ByBlock
350
21D
  3
ByLayer
350
215
  3
Global
350
225
  0
DICTIONARY
  5
266
102
{ACAD_REACTORS
330
112
102
}
330
112
100
AcDbDictionary
281
     1
  3
Standard
350
267
  0
DICTIONARY
  5
11C
102
{ACAD_REACTORS
330
112
102
}
330
112
100
AcDbDictionary
281
     1
  3
Standard
350
11D
  0
DICTIONARY
  5
11E
102
{ACAD_REACTORS
330
112
102
}
330
112
100
AcDbDictionary
281
     1
  0
ACDBDICTIONARYWDFLT
  5
114
102
{ACAD_REACTORS
330
112
102
}
330
112
100
AcDbDictionary
281
     1
  3
Normal
350
115
100
AcDbDictionaryWithDefault
340
115
  0
DICTIONARY
  5
244
102
{ACAD_REACTORS
330
112
102
}
330
112
100
AcDbDictionary
281
     1
  3
A0
350
245
  3
A1
350
246
  3
A2
350
247
  3
A3
350
248
  3
A4
350
249
  3
A5
350
24A
  3
A6
350
24B
  3
A7
350
24C
  3
A8
350
24D
  3
A9
350
24E
  3
B0
350
24F
  3
B1
350
250
  3
B2
350
251
  3
B3
350
252
  3
B4
350
253
  3
B5
350
254
  3
B6
350
255
  3
B7
350
256
  3
B8
350
257
  3
B9
350
258
  3
C0
350
259
  3
C1
350
25A
  3
C2
350
25B
  3
C3
350
25C
  3
C4
350
25D
  3
C5
350
25E
  3
C6
350
25F
  3
C7
350
260
  3
C8
350
261
  3
C9
350
262
  3
D0
350
263
  3
D1
350
264
  3
D2
350
265
  0
DICTIONARY
  5
242
102
{ACAD_REACTORS
330
112
102
}
330
112
100
AcDbDictionary
281
     1
  3
Standard
350
243
  0
DICTIONARY
  5
22D
102
{ACAD_REACTORS
330
112
102
}
330
112
100
AcDbDictionary
281
     1
  3
2dWireframe
350
233
  3
3D Hidden
350
235
  3
3dWireframe
350
234
  3
Basic
350
232
  3
Brighten
350
239
  3
ColorChange
350
23D
  3
Conceptual
350
236
  3
Dim
350
238
  3
EdgeColorOff
350
240
  3
Facepattern
350
23C
  3
Flat
350
22E
  3
FlatWithEdges
350
22F
  3
Gouraud
350
230
  3
GouraudWithEdges
350
231
  3
JitterOff
350
23E
  3
Linepattern
350
23B
  3
OverhangOff
350
23F
  3
Realistic
350
237
  3
Thicken
350
23A
  0
XRECORD
  5
BCD
102
{ACAD_REACTORS
330
112
102
}
330
112
100
AcDbXrecord
280
     1
 90
        1
330
243
  0
DICTIONARY
  5
272
102
{ACAD_REACTORS
330
112
102
}
330
112
100
AcDbDictionary
281
     1
  3
CANNOSCALE
350
275
  3
CMLEADERSTYLE
350
274
  3
CTABLESTYLE
350
273
  3
DIMASSOC
350
278
  3
INDEXCTL
350
277
  3
SORTENTS
350
276
  3
XCLIPFRAME
350
922
  0
XRECORD
  5
BCE
102
{ACAD_REACTORS
330
112
102
}
330
112
100
AcDbXrecord
280
     1
  1
DWGPROPS COOKIE
  2

  3

  4

  6

  7

  8
John
  9

300
=
301
=
302
=
303
=
304
=
305
=
306
=
307
=
308
=
309
=
 40
0.0468944791666667
 41
2453238.886944443
 42
2456695.430719109
  1

 90
        0
  0
XRECORD
  5
26B
102
{ACAD_REACTORS
330
26A
102
}
330
26A
100
AcDbXrecord
280
     1
290
     1
  0
XRECORD
  5
26D
102
{ACAD_REACTORS
330
26C
102
}
330
26C
100
AcDbXrecord
280
     1
290
     1
  0
XRECORD
  5
26F
102
{ACAD_REACTORS
330
26E
102
}
330
26E
100
AcDbXrecord
280
     1
290
     1
  0
XRECORD
  5
271
102
{ACAD_REACTORS
330
270
102
}
330
270
100
AcDbXrecord
280
     1
290
     1
  0
SORTENTSTABLE
  5
317
102
{ACAD_REACTORS
330
316
102
}
330
316
100
AcDbSortentsTable
330
124
  0
LAYOUT
  5
123
102
{ACAD_XDICTIONARY
360
BCF
102
}
102
{ACAD_REACTORS
330
11F
102
}
330
11F
100
AcDbPlotSettings
  1

  2
HP DeskJet 840C/841C/842C/843C
  4

  6

 40
0.0
 41
0.0
 42
0.0
 43
0.0
 44
0.0
 45
0.0
 46
0.0
 47
0.0
 48
0.0
 49
0.0
140
0.0
141
0.0
142
1.0
143
1.0
 70
   688
 72
     0
 73
     0
 74
     5
  7

 75
    16
147
1.0
148
0.0
149
0.0
100
AcDbLayout
  1
Layout1
 70
     0
 71
     1
 10
0.0
 20
0.0
 11
12.0
 21
9.0
 12
0.0
 22
0.0
 32
0.0
 14
-1.000000000000000E+20
 24
-1.000000000000000E+20
 34
-1.000000000000000E+20
 15
-1.000000000000000E+20
 25
-1.000000000000000E+20
 35
-1.000000000000000E+20
146
0.0
 13
0.0
 23
0.0
 33
0.0
 16
1.0
 26
0.0
 36
0.0
 17
0.0
 27
1.0
 37
0.0
 76
     0
330
120
  0
LAYOUT
  5
127
102
{ACAD_XDICTIONARY
360
BD1
102
}
102
{ACAD_REACTORS
330
11F
102
}
330
11F
100
AcDbPlotSettings
  1

  2
HP DeskJet 840C/841C/842C/843C
  4

  6

 40
0.0
 41
0.0
 42
0.0
 43
0.0
 44
0.0
 45
0.0
 46
0.0
 47
0.0
 48
0.0
 49
0.0
140
0.0
141
0.0
142
1.0
143
1.0
 70
  1712
 72
     0
 73
     0
 74
     0
  7

 75
     0
147
1.0
148
0.0
149
0.0
100
AcDbLayout
  1
Model
 70
     1
 71
     0
 10
0.0
 20
0.0
 11
12.0
 21
9.0
 12
0.0
 22
0.0
 32
0.0
 14
0.0
 24
0.0
 34
0.0
 15
0.0
 25
0.0
 35
0.0
146
0.0
 13
0.0
 23
0.0
 33
0.0
 16
1.0
 26
0.0
 36
0.0
 17
0.0
 27
1.0
 37
0.0
 76
     0
330
124
331
902
  0
MATERIAL
  5
21D
102
{ACAD_XDICTIONARY
360
21E
102
}
102
{ACAD_REACTORS
330
214
102
}
330
214
100
AcDbMaterial
  1
ByBlock
 72
     0
 43
0.0208333333333333
 43
0.0
 43
0.0
 43
0.0
 43
0.0
 43
0.0208333333333333
 43
0.0
 43
0.0
 43
0.0
 43
0.0
 43
1.0
 43
0.0
 43
0.0
 43
0.0
 43
0.0
 43
1.0
 77
     0
 47
0.0208333333333333
 47
0.0
 47
0.0
 47
0.0
 47
0.0
 47
0.0208333333333333
 47
0.0
 47
0.0
 47
0.0
 47
0.0
 47
1.0
 47
0.0
 47
0.0
 47
0.0
 47
0.0
 47
1.0
171
     0
 49
0.0208333333333333
 49
0.0
 49
0.0
 49
0.0
 49
0.0
 49
0.0208333333333333
 49
0.0
 49
0.0
 49
0.0
 49
0.0
 49
1.0
 49
0.0
 49
0.0
 49
0.0
 49
0.0
 49
1.0
175
     0
142
0.0208333333333333
142
0.0
142
0.0
142
0.0
142
0.0
142
0.0208333333333333
142
0.0
142
0.0
142
0.0
142
0.0
142
1.0
142
0.0
142
0.0
142
0.0
142
0.0
142
1.0
179
     0
144
0.0208333333333333
144
0.0
144
0.0
144
0.0
144
0.0
144
0.0208333333333333
144
0.0
144
0.0
144
0.0
144
0.0
144
1.0
144
0.0
144
0.0
144
0.0
144
0.0
144
1.0
147
0.0208333333333333
147
0.0
147
0.0
147
0.0
147
0.0
147
0.0208333333333333
147
0.0
147
0.0
147
0.0
147
0.0
147
1.0
147
0.0
147
0.0
147
0.0
147
0.0
147
1.0
  0
MATERIAL
  5
215
102
{ACAD_XDICTIONARY
360
216
102
}
102
{ACAD_REACTORS
330
214
102
}
330
214
100
AcDbMaterial
  1
ByLayer
 72
     0
 43
0.0208333333333333
 43
0.0
 43
0.0
 43
0.0
 43
0.0
 43
0.0208333333333333
 43
0.0
 43
0.0
 43
0.0
 43
0.0
 43
1.0
 43
0.0
 43
0.0
 43
0.0
 43
0.0
 43
1.0
 77
     0
 47
0.0208333333333333
 47
0.0
 47
0.0
 47
0.0
 47
0.0
 47
0.0208333333333333
 47
0.0
 47
0.0
 47
0.0
 47
0.0
 47
1.0
 47
0.0
 47
0.0
 47
0.0
 47
0.0
 47
1.0
171
     0
 49
0.0208333333333333
 49
0.0
 49
0.0
 49
0.0
 49
0.0
 49
0.0208333333333333
 49
0.0
 49
0.0
 49
0.0
 49
0.0
 49
1.0
 49
0.0
 49
0.0
 49
0.0
 49
0.0
 49
1.0
175
     0
142
0.0208333333333333
142
0.0
142
0.0
142
0.0
142
0.0
142
0.0208333333333333
142
0.0
142
0.0
142
0.0
142
0.0
142
1.0
142
0.0
142
0.0
142
0.0
142
0.0
142
1.0
179
     0
144
0.0208333333333333
144
0.0
144
0.0
144
0.0
144
0.0
144
0.0208333333333333
144
0.0
144
0.0
144
0.0
144
0.0
144
1.0
144
0.0
144
0.0
144
0.0
144
0.0
144
1.0
147
0.0208333333333333
147
0.0
147
0.0
147
0.0
147
0.0
147
0.0208333333333333
147
0.0
147
0.0
147
0.0
147
0.0
147
1.0
147
0.0
147
0.0
147
0.0
147
0.0
147
1.0
  0
MATERIAL
  5
225
102
{ACAD_XDICTIONARY
360
226
102
}
102
{ACAD_REACTORS
330
214
102
}
330
214
100
AcDbMaterial
  1
Global
 72
     0
 43
0.0208333333333333
 43
0.0
 43
0.0
 43
0.0
 43
0.0
 43
0.0208333333333333
 43
0.0
 43
0.0
 43
0.0
 43
0.0
 43
1.0
 43
0.0
 43
0.0
 43
0.0
 43
0.0
 43
1.0
 77
     0
 47
0.0208333333333333
 47
0.0
 47
0.0
 47
0.0
 47
0.0
 47
0.0208333333333333
 47
0.0
 47
0.0
 47
0.0
 47
0.0
 47
1.0
 47
0.0
 47
0.0
 47
0.0
 47
0.0
 47
1.0
171
     0
 49
0.0208333333333333
 49
0.0
 49
0.0
 49
0.0
 49
0.0
 49
0.0208333333333333
 49
0.0
 49
0.0
 49
0.0
 49
0.0
 49
1.0
 49
0.0
 49
0.0
 49
0.0
 49
0.0
 49
1.0
175
     0
142
0.0208333333333333
142
0.0
142
0.0
142
0.0
142
0.0
142
0.0208333333333333
142
0.0
142
0.0
142
0.0
142
0.0
142
1.0
142
0.0
142
0.0
142
0.0
142
0.0
142
1.0
179
     0
144
0.0208333333333333
144
0.0
144
0.0
144
0.0
144
0.0
144
0.0208333333333333
144
0.0
144
0.0
144
0.0
144
0.0
144
1.0
144
0.0
144
0.0
144
0.0
144
0.0
144
1.0
147
0.0208333333333333
147
0.0
147
0.0
147
0.0
147
0.0
147
0.0208333333333333
147
0.0
147
0.0
147
0.0
147
0.0
147
1.0
147
0.0
147
0.0
147
0.0
147
0.0
147
1.0
  0
MLEADERSTYLE
  5
267
102
{ACAD_REACTORS
330
266
102
}
330
266
100
AcDbMLeaderStyle
170
     2
171
     1
172
     0
 90
        2
 40
0.0
 41
0.0
173
     1
 91
-1056964608
340
119
 92
       -2
290
     1
 42
0.09
291
     1
 43
0.36
  3
Standard
 44
0.18
300

342
117
174
     1
178
     6
175
     1
176
     0
 93
-1056964608
 45
0.18
292
     0
297
     0
 46
0.18
 94
-1056964608
 47
1.0
 49
1.0
140
1.0
293
     1
141
0.0
294
     1
177
     0
142
1.0
295
     0
296
     0
143
0.125
1001
ACAD_MLEADERVER
1070
     2
  0
MLINESTYLE
  5
11D
102
{ACAD_REACTORS
330
11C
102
}
330
11C
100
AcDbMlineStyle
  2
STANDARD
 70
     0
  3

 62
   256
 51
90.0
 52
90.0
 71
     2
 49
0.5
 62
   256
  6
BYLAYER
 49
-0.5
 62
   256
  6
BYLAYER
  0
ACDBPLACEHOLDER
  5
115
102
{ACAD_REACTORS
330
114
102
}
330
114
  0
SCALE
  5
245
102
{ACAD_REACTORS
330
244
102
}
330
244
100
AcDbScale
 70
     0
300
1:1
140
1.0
141
1.0
290
     1
  0
SCALE
  5
246
102
{ACAD_REACTORS
330
244
102
}
330
244
100
AcDbScale
 70
     0
300
1:2
140
1.0
141
2.0
290
     0
  0
SCALE
  5
247
102
{ACAD_REACTORS
330
244
102
}
330
244
100
AcDbScale
 70
     0
300
1:4
140
1.0
141
4.0
290
     0
  0
SCALE
  5
248
102
{ACAD_REACTORS
330
244
102
}
330
244
100
AcDbScale
 70
     0
300
1:5
140
1.0
141
5.0
290
     0
  0
SCALE
  5
249
102
{ACAD_REACTORS
330
244
102
}
330
244
100
AcDbScale
 70
     0
300
1:8
140
1.0
141
8.0
290
     0
  0
SCALE
  5
24A
102
{ACAD_REACTORS
330
244
102
}
330
244
100
AcDbScale
 70
     0
300
1:10
140
1.0
141
10.0
290
     0
  0
SCALE
  5
24B
102
{ACAD_REACTORS
330
244
102
}
330
244
100
AcDbScale
 70
     0
300
1:16
140
1.0
141
16.0
290
     0
  0
SCALE
  5
24C
102
{ACAD_REACTORS
330
244
102
}
330
244
100
AcDbScale
 70
     0
300
1:20
140
1.0
141
20.0
290
     0
  0
SCALE
  5
24D
102
{ACAD_REACTORS
330
244
102
}
330
244
100
AcDbScale
 70
     0
300
1:30
140
1.0
141
30.0
290
     0
  0
SCALE
  5
24E
102
{ACAD_REACTORS
330
244
102
}
330
244
100
AcDbScale
 70
     0
300
1:40
140
1.0
141
40.0
290
     0
  0
SCALE
  5
24F
102
{ACAD_REACTORS
330
244
102
}
330
244
100
AcDbScale
 70
     0
300
1:50
140
1.0
141
50.0
290
     0
  0
SCALE
  5
250
102
{ACAD_REACTORS
330
244
102
}
330
244
100
AcDbScale
 70
     0
300
1:100
140
1.0
141
100.0
290
     0
  0
SCALE
  5
251
102
{ACAD_REACTORS
330
244
102
}
330
244
100
AcDbScale
 70
     0
300
2:1
140
2.0
141
1.0
290
     0
  0
SCALE
  5
252
102
{ACAD_REACTORS
330
244
102
}
330
244
100
AcDbScale
 70
     0
300
4:1
140
4.0
141
1.0
290
     0
  0
SCALE
  5
253
102
{ACAD_REACTORS
330
244
102
}
330
244
100
AcDbScale
 70
     0
300
8:1
140
8.0
141
1.0
290
     0
  0
SCALE
  5
254
102
{ACAD_REACTORS
330
244
102
}
330
244
100
AcDbScale
 70
     0
300
10:1
140
10.0
141
1.0
290
     0
  0
SCALE
  5
255
102
{ACAD_REACTORS
330
244
102
}
330
244
100
AcDbScale
 70
     0
300
100:1
140
100.0
141
1.0
290
     0
  0
SCALE
  5
256
102
{ACAD_REACTORS
330
244
102
}
330
244
100
AcDbScale
 70
     0
300
1/128 = 1'-0
140
0.0078125
141
12.0
290
     0
  0
SCALE
  5
257
102
{ACAD_REACTORS
330
244
102
}
330
244
100
AcDbScale
 70
     0
300
1/64 = 1'-0
140
0.015625
141
12.0
290
     0
  0
SCALE
  5
258
102
{ACAD_REACTORS
330
244
102
}
330
244
100
AcDbScale
 70
     0
300
1/32 = 1'-0
140
0.03125
141
12.0
290
     0
  0
SCALE
  5
259
102
{ACAD_REACTORS
330
244
102
}
330
244
100
AcDbScale
 70
     0
300
1/16 = 1'-0
140
0.0625
141
12.0
290
     0
  0
SCALE
  5
25A
102
{ACAD_REACTORS
330
244
102
}
330
244
100
AcDbScale
 70
     0
300
3/32 = 1'-0
140
0.09375
141
12.0
290
     0
  0
SCALE
  5
25B
102
{ACAD_REACTORS
330
244
102
}
330
244
100
AcDbScale
 70
     0
300
1/8 = 1'-0
140
0.125
141
12.0
290
     0
  0
SCALE
  5
25C
102
{ACAD_REACTORS
330
244
102
}
330
244
100
AcDbScale
 70
     0
300
3/16 = 1'-0
140
0.1875
141
12.0
290
     0
  0
SCALE
  5
25D
102
{ACAD_REACTORS
330
244
102
}
330
244
100
AcDbScale
 70
     0
300
1/4 = 1'-0
140
0.25
141
12.0
290
     0
  0
SCALE
  5
25E
102
{ACAD_REACTORS
330
244
102
}
330
244
100
AcDbScale
 70
     0
300
3/8 = 1'-0
140
0.375
141
12.0
290
     0
  0
SCALE
  5
25F
102
{ACAD_REACTORS
330
244
102
}
330
244
100
AcDbScale
 70
     0
300
1/2 = 1'-0
140
0.5
141
12.0
290
     0
  0
SCALE
  5
260
102
{ACAD_REACTORS
330
244
102
}
330
244
100
AcDbScale
 70
     0
300
3/4 = 1'-0
140
0.75
141
12.0
290
     0
  0
SCALE
  5
261
102
{ACAD_REACTORS
330
244
102
}
330
244
100
AcDbScale
 70
     0
300
1 = 1'-0
140
1.0
141
12.0
290
     0
  0
SCALE
  5
262
102
{ACAD_REACTORS
330
244
102
}
330
244
100
AcDbScale
 70
     0
300
1-1/2 = 1'-0
140
1.5
141
12.0
290
     0
  0
SCALE
  5
263
102
{ACAD_REACTORS
330
244
102
}
330
244
100
AcDbScale
 70
     0
300
3 = 1'-0
140
3.0
141
12.0
290
     0
  0
SCALE
  5
264
102
{ACAD_REACTORS
330
244
102
}
330
244
100
AcDbScale
 70
     0
300
6 = 1'-0
140
6.0
141
12.0
290
     0
  0
SCALE
  5
265
102
{ACAD_REACTORS
330
244
102
}
330
244
100
AcDbScale
 70
     0
300
1'-0 = 1'-0
140
12.0
141
12.0
290
     0
  0
TABLESTYLE
  5
243
102
{ACAD_XDICTIONARY
360
27A
102
}
102
{ACAD_REACTORS
330
242
102
}
330
242
100
AcDbTableStyle
  3
Standard
 70
     0
 71
     0
 40
0.06
 41
0.06
280
     0
281
     0
  7
STANDARD
140
0.18
170
     2
 62
     0
 63
     7
283
     0
274
    -2
284
     1
 64
     0
275
    -2
285
     1
 65
     0
276
    -2
286
     1
 66
     0
277
    -2
287
     1
 67
     0
278
    -2
288
     1
 68
     0
279
    -2
289
     1
 69
     0
  7
STANDARD
140
0.25
170
     5
 62
     0
 63
     7
283
     0
274
    -2
284
     1
 64
     0
275
    -2
285
     1
 65
     0
276
    -2
286
     1
 66
     0
277
    -2
287
     1
 67
     0
278
    -2
288
     1
 68
     0
279
    -2
289
     1
 69
     0
  7
STANDARD
140
0.18
170
     5
 62
     0
 63
     7
283
     0
274
    -2
284
     1
 64
     0
275
    -2
285
     1
 65
     0
276
    -2
286
     1
 66
     0
277
    -2
287
     1
 67
     0
278
    -2
288
     1
 68
     0
279
    -2
289
     1
 69
     0
  0
VISUALSTYLE
  5
233
102
{ACAD_XDICTIONARY
360
BDD
102
}
102
{ACAD_REACTORS
330
22D
102
}
330
22D
100
AcDbVisualStyle
  2

 70
     4
 71
     0
 72
     2
 73
     0
 90
        0
 40
-0.6
 41
-30.0
 62
     5
 63
     7
 74
     1
 91
        4
 64
     7
 65
   257
 75
     1
175
     1
 42
1.0
 92
        0
 66
   257
 43
1.0
 76
     1
 77
     6
 78
     2
 67
     7
 79
     5
170
     0
171
     0
290
     0
174
     0
 93
        1
 44
0.0
173
     0
291
     0
 45
0.0
1001
ACAD
1000
AcDbSavedByObjectVersion
1070
     0
  0
VISUALSTYLE
  5
235
102
{ACAD_XDICTIONARY
360
BE1
102
}
102
{ACAD_REACTORS
330
22D
102
}
330
22D
100
AcDbVisualStyle
  2

 70
     6
 71
     1
 72
     2
 73
     2
 90
        0
 40
-0.6
 41
-30.0
 62
     5
 63
     7
 74
     2
 91
        2
 64
     7
 65
   257
 75
     2
175
     1
 42
179.0
 92
        0
 66
   257
 43
1.0
 76
     1
 77
     6
 78
     2
 67
     7
 79
     3
170
     0
171
     0
290
     0
174
     0
 93
        1
 44
0.0
173
     0
291
     0
 45
0.0
1001
ACAD
1000
AcDbSavedByObjectVersion
1070
     0
  0
VISUALSTYLE
  5
234
102
{ACAD_XDICTIONARY
360
BDF
102
}
102
{ACAD_REACTORS
330
22D
102
}
330
22D
100
AcDbVisualStyle
  2

 70
     5
 71
     0
 72
     2
 73
     0
 90
        0
 40
-0.6
 41
-30.0
 62
     5
 63
     7
 74
     1
 91
        4
 64
     7
 65
   257
 75
     1
175
     1
 42
1.0
 92
        0
 66
   257
 43
1.0
 76
     1
 77
     6
 78
     2
 67
     7
 79
     5
170
     0
171
     0
290
     0
174
     0
 93
        1
 44
0.0
173
     0
291
     0
 45
0.0
1001
ACAD
1000
AcDbSavedByObjectVersion
1070
     0
  0
VISUALSTYLE
  5
232
102
{ACAD_XDICTIONARY
360
BDB
102
}
102
{ACAD_REACTORS
330
22D
102
}
330
22D
100
AcDbVisualStyle
  2

 70
     7
 71
     1
 72
     0
 73
     1
 90
        0
 40
-0.6
 41
-30.0
 62
     5
 63
     7
 74
     0
 91
        4
 64
     7
 65
   257
 75
     1
175
     1
 42
1.0
 92
        8
 66
     7
 43
1.0
 76
     1
 77
     6
 78
     2
 67
     7
 79
     5
170
     0
171
     0
290
     0
174
     0
 93
        1
 44
0.0
173
     0
291
     1
 45
0.0
1001
ACAD
1000
AcDbSavedByObjectVersion
1070
     0
  0
VISUALSTYLE
  5
239
102
{ACAD_XDICTIONARY
360
BE9
102
}
102
{ACAD_REACTORS
330
22D
102
}
330
22D
100
AcDbVisualStyle
  2

 70
    12
 71
     2
 72
     2
 73
     0
 90
        0
 40
-0.6
 41
-30.0
 62
     5
 63
     7
 74
     1
 91
        4
 64
     7
 65
   257
 75
     1
175
     1
 42
1.0
 92
        8
 66
     7
 43
1.0
 76
     1
 77
     6
 78
     2
 67
     7
 79
     5
170
     0
171
     0
290
     0
174
     0
 93
        1
 44
50.0
173
     0
291
     1
 45
0.0
1001
ACAD
1000
AcDbSavedByObjectVersion
1070
     0
  0
VISUALSTYLE
  5
23D
102
{ACAD_XDICTIONARY
360
BF1
102
}
102
{ACAD_REACTORS
330
22D
102
}
330
22D
100
AcDbVisualStyle
  2

 70
    16
 71
     2
 72
     2
 73
     3
 90
        0
 40
-0.6
 41
-30.0
 62
     5
 63
     8
 74
     1
 91
        4
 64
     7
 65
   257
 75
     1
175
     1
 42
1.0
 92
        8
 66
     8
 43
1.0
 76
     1
 77
     6
 78
     2
 67
     7
 79
     5
170
     0
171
     0
290
     0
174
     0
 93
        1
 44
0.0
173
     0
291
     1
 45
0.0
1001
ACAD
1000
AcDbSavedByObjectVersion
1070
     0
  0
VISUALSTYLE
  5
236
102
{ACAD_XDICTIONARY
360
BE3
102
}
102
{ACAD_REACTORS
330
22D
102
}
330
22D
100
AcDbVisualStyle
  2

 70
     9
 71
     3
 72
     2
 73
     0
 90
        0
 40
-0.6
 41
-30.0
 62
     5
 63
     7
 74
     2
 91
        2
 64
     7
 65
   257
 75
     1
175
     1
 42
179.0
 92
        8
 66
     7
 43
1.0
 76
     1
 77
     6
 78
     2
 67
     7
 79
     3
170
     0
171
     0
290
     0
174
     0
 93
        1
 44
0.0
173
     0
291
     0
 45
0.0
1001
ACAD
1000
AcDbSavedByObjectVersion
1070
     0
  0
VISUALSTYLE
  5
238
102
{ACAD_XDICTIONARY
360
BE7
102
}
102
{ACAD_REACTORS
330
22D
102
}
330
22D
100
AcDbVisualStyle
  2

 70
    11
 71
     2
 72
     2
 73
     0
 90
        0
 40
-0.6
 41
-30.0
 62
     5
 63
     7
 74
     1
 91
        4
 64
     7
 65
   257
 75
     1
175
     1
 42
1.0
 92
        8
 66
     7
 43
1.0
 76
     1
 77
     6
 78
     2
 67
     7
 79
     5
170
     0
171
     0
290
     0
174
     0
 93
        1
 44
-50.0
173
     0
291
     1
 45
0.0
1001
ACAD
1000
AcDbSavedByObjectVersion
1070
     0
  0
VISUALSTYLE
  5
240
102
{ACAD_XDICTIONARY
360
BF7
102
}
102
{ACAD_REACTORS
330
22D
102
}
330
22D
100
AcDbVisualStyle
  2

 70
    22
 71
     2
 72
     2
 73
     0
 90
        0
 40
-0.6
 41
-30.0
 62
     5
 63
     7
 74
     1
 91
        4
 64
     7
 65
   257
 75
     1
175
     1
 42
1.0
 92
        8
 66
     7
 43
1.0
 76
     1
 77
     6
 78
     2
 67
     7
 79
     5
170
     0
171
     0
290
     0
174
     0
 93
        1
 44
0.0
173
     0
291
     1
 45
0.0
1001
ACAD
1000
AcDbSavedByObjectVersion
1070
     0
  0
VISUALSTYLE
  5
23C
102
{ACAD_XDICTIONARY
360
BEF
102
}
102
{ACAD_REACTORS
330
22D
102
}
330
22D
100
AcDbVisualStyle
  2

 70
    15
 71
     2
 72
     2
 73
     0
 90
        0
 40
-0.6
 41
-30.0
 62
     5
 63
     7
 74
     1
 91
        4
 64
     7
 65
   257
 75
     1
175
     1
 42
1.0
 92
        8
 66
     7
 43
1.0
 76
     1
 77
     6
 78
     2
 67
     7
 79
     5
170
     0
171
     0
290
     0
174
     0
 93
        1
 44
0.0
173
     0
291
     1
 45
0.0
1001
ACAD
1000
AcDbSavedByObjectVersion
1070
     0
  0
VISUALSTYLE
  5
22E
102
{ACAD_XDICTIONARY
360
BD3
102
}
102
{ACAD_REACTORS
330
22D
102
}
330
22D
100
AcDbVisualStyle
  2

 70
     0
 71
     2
 72
     1
 73
     1
 90
        2
 40
-0.6
 41
30.0
 62
     5
 63
     7
 74
     0
 91
        4
 64
     7
 65
   257
 75
     1
175
     1
 42
1.0
 92
        8
 66
     7
 43
1.0
 76
     1
 77
     6
 78
     2
 67
     7
 79
     5
170
     0
171
     0
290
     0
174
     0
 93
       13
 44
0.0
173
     0
291
     1
 45
0.0
1001
ACAD
1000
AcDbSavedByObjectVersion
1070
     0
  0
VISUALSTYLE
  5
22F
102
{ACAD_XDICTIONARY
360
BD5
102
}
102
{ACAD_REACTORS
330
22D
102
}
330
22D
100
AcDbVisualStyle
  2

 70
     1
 71
     2
 72
     1
 73
     1
 90
        2
 40
-0.6
 41
30.0
 62
     5
 63
     7
 74
     1
 91
        4
 64
     7
 65
   257
 75
     1
175
     1
 42
1.0
 92
        0
 66
   257
 43
1.0
 76
     1
 77
     6
 78
     2
 67
     7
 79
     5
170
     0
171
     0
290
     0
174
     0
 93
       13
 44
0.0
173
     0
291
     1
 45
0.0
1001
ACAD
1000
AcDbSavedByObjectVersion
1070
     0
  0
VISUALSTYLE
  5
230
102
{ACAD_XDICTIONARY
360
BD7
102
}
102
{ACAD_REACTORS
330
22D
102
}
330
22D
100
AcDbVisualStyle
  2

 70
     2
 71
     2
 72
     2
 73
     1
 90
        2
 40
-0.6
 41
30.0
 62
     5
 63
     7
 74
     0
 91
        4
 64
     7
 65
   257
 75
     1
175
     1
 42
1.0
 92
        0
 66
     7
 43
1.0
 76
     1
 77
     6
 78
     2
 67
     7
 79
     5
170
     0
171
     0
290
     0
174
     0
 93
       13
 44
0.0
173
     0
291
     1
 45
0.0
1001
ACAD
1000
AcDbSavedByObjectVersion
1070
     0
  0
VISUALSTYLE
  5
231
102
{ACAD_XDICTIONARY
360
BD9
102
}
102
{ACAD_REACTORS
330
22D
102
}
330
22D
100
AcDbVisualStyle
  2

 70
     3
 71
     2
 72
     2
 73
     1
 90
        2
 40
-0.6
 41
30.0
 62
     5
 63
     7
 74
     1
 91
        4
 64
     7
 65
   257
 75
     1
175
     1
 42
1.0
 92
        0
 66
   257
 43
1.0
 76
     1
 77
     6
 78
     2
 67
     7
 79
     5
170
     0
171
     0
290
     0
174
     0
 93
       13
 44
0.0
173
     0
291
     1
 45
0.0
1001
ACAD
1000
AcDbSavedByObjectVersion
1070
     0
  0
VISUALSTYLE
  5
23E
102
{ACAD_XDICTIONARY
360
BF3
102
}
102
{ACAD_REACTORS
330
22D
102
}
330
22D
100
AcDbVisualStyle
  2

 70
    20
 71
     2
 72
     2
 73
     0
 90
        0
 40
-0.6
 41
-30.0
 62
     5
 63
     7
 74
     1
 91
        4
 64
     7
 65
   257
 75
     1
175
     1
 42
1.0
 92
       10
 66
     7
 43
1.0
 76
     1
 77
     6
 78
     2
 67
     7
 79
     5
170
     0
171
     0
290
     0
174
     0
 93
        1
 44
0.0
173
     0
291
     1
 45
0.0
1001
ACAD
1000
AcDbSavedByObjectVersion
1070
     0
  0
VISUALSTYLE
  5
23B
102
{ACAD_XDICTIONARY
360
BED
102
}
102
{ACAD_REACTORS
330
22D
102
}
330
22D
100
AcDbVisualStyle
  2

 70
    14
 71
     2
 72
     2
 73
     0
 90
        0
 40
-0.6
 41
-30.0
 62
     5
 63
     7
 74
     1
 91
        4
 64
     7
 65
   257
 75
     7
175
     7
 42
1.0
 92
        8
 66
     7
 43
1.0
 76
     1
 77
     6
 78
     2
 67
     7
 79
     5
170
     0
171
     0
290
     0
174
     0
 93
        1
 44
0.0
173
     0
291
     1
 45
0.0
1001
ACAD
1000
AcDbSavedByObjectVersion
1070
     0
  0
VISUALSTYLE
  5
23F
102
{ACAD_XDICTIONARY
360
BF5
102
}
102
{ACAD_REACTORS
330
22D
102
}
330
22D
100
AcDbVisualStyle
  2

 70
    21
 71
     2
 72
     2
 73
     0
 90
        0
 40
-0.6
 41
-30.0
 62
     5
 63
     7
 74
     1
 91
        4
 64
     7
 65
   257
 75
     1
175
     1
 42
1.0
 92
        9
 66
     7
 43
1.0
 76
     1
 77
     6
 78
     2
 67
     7
 79
     5
170
     0
171
     0
290
     0
174
     0
 93
        1
 44
0.0
173
     0
291
     1
 45
0.0
1001
ACAD
1000
AcDbSavedByObjectVersion
1070
     0
  0
VISUALSTYLE
  5
237
102
{ACAD_XDICTIONARY
360
BE5
102
}
102
{ACAD_REACTORS
330
22D
102
}
330
22D
100
AcDbVisualStyle
  2

 70
     8
 71
     2
 72
     2
 73
     0
 90
        0
 40
-0.6
 41
-30.0
 62
     5
 63
     7
 74
     1
 91
        0
 64
     7
 65
   257
 75
     1
175
     1
 42
1.0
 92
        8
 66
     8
 43
1.0
 76
     1
 77
     6
 78
     2
 67
     7
 79
     5
170
     0
171
     0
290
     0
174
     0
 93
       13
 44
0.0
173
     0
291
     0
 45
0.0
1001
ACAD
1000
AcDbSavedByObjectVersion
1070
     0
  0
VISUALSTYLE
  5
23A
102
{ACAD_XDICTIONARY
360
BEB
102
}
102
{ACAD_REACTORS
330
22D
102
}
330
22D
100
AcDbVisualStyle
  2

 70
    13
 71
     2
 72
     2
 73
     0
 90
        0
 40
-0.6
 41
-30.0
 62
     5
 63
     7
 74
     1
 91
        4
 64
     7
 65
   257
 75
     1
175
     1
 42
1.0
 92
       12
 66
     7
 43
1.0
 76
     1
 77
     6
 78
     2
 67
     7
 79
     5
170
     0
171
     0
290
     0
174
     0
 93
        1
 44
0.0
173
     0
291
     1
 45
0.0
1001
ACAD
1000
AcDbSavedByObjectVersion
1070
     0
  0
DICTIONARYVAR
  5
275
102
{ACAD_REACTORS
330
272
102
}
330
272
100
DictionaryVariables
280
     0
  1
1:1
  0
DICTIONARYVAR
  5
274
102
{ACAD_REACTORS
330
272
102
}
330
272
100
DictionaryVariables
280
     0
  1
STANDARD
  0
DICTIONARYVAR
  5
273
102
{ACAD_REACTORS
330
272
102
}
330
272
100
DictionaryVariables
280
     0
  1
STANDARD
  0
DICTIONARYVAR
  5
278
102
{ACAD_REACTORS
330
272
102
}
330
272
100
DictionaryVariables
280
     0
  1
1
  0
DICTIONARYVAR
  5
277
102
{ACAD_REACTORS
330
272
102
}
330
272
100
DictionaryVariables
280
     0
  1
0
  0
DICTIONARYVAR
  5
276
102
{ACAD_REACTORS
330
272
102
}
330
272
100
DictionaryVariables
280
     0
  1
127
  0
DICTIONARYVAR
  5
922
102
{ACAD_REACTORS
330
272
102
}
330
272
100
DictionaryVariables
280
     0
  1
2
  0
DICTIONARY
  5
BCF
330
123
100
AcDbDictionary
280
     1
281
     1
  3
ACAD_XREC_ROUNDTRIP
360
BD0
  0
DICTIONARY
  5
BD1
330
127
100
AcDbDictionary
280
     1
281
     1
  3
ACAD_XREC_ROUNDTRIP
360
BD2
  0
DICTIONARY
  5
21E
330
21D
100
AcDbDictionary
280
     1
281
     1
  3
ACAD_XREC_ROUNDTRIP
360
283
  3
BUMPTILE
360
220
  3
DIFFUSETILE
360
21F
  3
OPACITYTILE
360
223
  3
REFLECTIONTILE
360
222
  3
REFRACTIONTILE
360
224
  3
SPECULARTILE
360
221
  0
DICTIONARY
  5
216
330
215
100
AcDbDictionary
280
     1
281
     1
  3
ACAD_XREC_ROUNDTRIP
360
282
  3
BUMPTILE
360
218
  3
DIFFUSETILE
360
217
  3
OPACITYTILE
360
21B
  3
REFLECTIONTILE
360
21A
  3
REFRACTIONTILE
360
21C
  3
SPECULARTILE
360
219
  0
DICTIONARY
  5
226
330
225
100
AcDbDictionary
280
     1
281
     1
  3
ACAD_XREC_ROUNDTRIP
360
284
  3
BUMPTILE
360
228
  3
DIFFUSETILE
360
227
  3
OPACITYTILE
360
22B
  3
REFLECTIONTILE
360
22A
  3
REFRACTIONTILE
360
22C
  3
SPECULARTILE
360
229
  0
DICTIONARY
  5
27A
330
243
100
AcDbDictionary
280
     1
281
     1
  3
ACAD_ROUNDTRIP_2008_TABLESTYLE_CELLSTYLEMAP
360
BCC
  3
ACAD_XREC_ROUNDTRIP
360
BF9
  0
DICTIONARY
  5
BDD
330
233
100
AcDbDictionary
280
     1
281
     1
  3
ACAD_XREC_ROUNDTRIP
360
BDE
  0
DICTIONARY
  5
BE1
330
235
100
AcDbDictionary
280
     1
281
     1
  3
ACAD_XREC_ROUNDTRIP
360
BE2
  0
DICTIONARY
  5
BDF
330
234
100
AcDbDictionary
280
     1
281
     1
  3
ACAD_XREC_ROUNDTRIP
360
BE0
  0
DICTIONARY
  5
BDB
330
232
100
AcDbDictionary
280
     1
281
     1
  3
ACAD_XREC_ROUNDTRIP
360
BDC
  0
DICTIONARY
  5
BE9
330
239
100
AcDbDictionary
280
     1
281
     1
  3
ACAD_XREC_ROUNDTRIP
360
BEA
  0
DICTIONARY
  5
BF1
330
23D
100
AcDbDictionary
280
     1
281
     1
  3
ACAD_XREC_ROUNDTRIP
360
BF2
  0
DICTIONARY
  5
BE3
330
236
100
AcDbDictionary
280
     1
281
     1
  3
ACAD_XREC_ROUNDTRIP
360
BE4
  0
DICTIONARY
  5
BE7
330
238
100
AcDbDictionary
280
     1
281
     1
  3
ACAD_XREC_ROUNDTRIP
360
BE8
  0
DICTIONARY
  5
BF7
330
240
100
AcDbDictionary
280
     1
281
     1
  3
ACAD_XREC_ROUNDTRIP
360
BF8
  0
DICTIONARY
  5
BEF
330
23C
100
AcDbDictionary
280
     1
281
     1
  3
ACAD_XREC_ROUNDTRIP
360
BF0
  0
DICTIONARY
  5
BD3
330
22E
100
AcDbDictionary
280
     1
281
     1
  3
ACAD_XREC_ROUNDTRIP
360
BD4
  0
DICTIONARY
  5
BD5
330
22F
100
AcDbDictionary
280
     1
281
     1
  3
ACAD_XREC_ROUNDTRIP
360
BD6
  0
DICTIONARY
  5
BD7
330
230
100
AcDbDictionary
280
     1
281
     1
  3
ACAD_XREC_ROUNDTRIP
360
BD8
  0
DICTIONARY
  5
BD9
330
231
100
AcDbDictionary
280
     1
281
     1
  3
ACAD_XREC_ROUNDTRIP
360
BDA
  0
DICTIONARY
  5
BF3
330
23E
100
AcDbDictionary
280
     1
281
     1
  3
ACAD_XREC_ROUNDTRIP
360
BF4
  0
DICTIONARY
  5
BED
330
23B
100
AcDbDictionary
280
     1
281
     1
  3
ACAD_XREC_ROUNDTRIP
360
BEE
  0
DICTIONARY
  5
BF5
330
23F
100
AcDbDictionary
280
     1
281
     1
  3
ACAD_XREC_ROUNDTRIP
360
BF6
  0
DICTIONARY
  5
BE5
330
237
100
AcDbDictionary
280
     1
281
     1
  3
ACAD_XREC_ROUNDTRIP
360
BE6
  0
DICTIONARY
  5
BEB
330
23A
100
AcDbDictionary
280
     1
281
     1
  3
ACAD_XREC_ROUNDTRIP
360
BEC
  0
XRECORD
  5
BD0
102
{ACAD_REACTORS
330
BCF
102
}
330
BCF
100
AcDbXrecord
280
     1
102
SHADEPLOT
 70
     0
102
SHADEPLOTRESLEVEL
 70
     2
102
SHADEPLOTCUSTOMDPI
 70
   300
  0
XRECORD
  5
BD2
102
{ACAD_REACTORS
330
BD1
102
}
330
BD1
100
AcDbXrecord
280
     1
102
SHADEPLOT
 70
     0
102
SHADEPLOTRESLEVEL
 70
     2
102
SHADEPLOTCUSTOMDPI
 70
   300
  0
XRECORD
  5
283
102
{ACAD_REACTORS
330
21E
102
}
330
21E
100
AcDbXrecord
280
     1
102
MATERIAL
148
0.0
149
0.0
149
0.0
 93
        0
 94
      127
282
     0
 72
     0
 77
     0
171
     0
175
     0
179
     0
273
     0
  0
XRECORD
  5
220
102
{ACAD_REACTORS
330
21E
102
}
330
21E
100
AcDbXrecord
280
     1
270
     1
271
     1
  0
XRECORD
  5
21F
102
{ACAD_REACTORS
330
21E
102
}
330
21E
100
AcDbXrecord
280
     1
270
     1
271
     1
  0
XRECORD
  5
223
102
{ACAD_REACTORS
330
21E
102
}
330
21E
100
AcDbXrecord
280
     1
270
     1
271
     1
  0
XRECORD
  5
222
102
{ACAD_REACTORS
330
21E
102
}
330
21E
100
AcDbXrecord
280
     1
270
     1
271
     1
  0
XRECORD
  5
224
102
{ACAD_REACTORS
330
21E
102
}
330
21E
100
AcDbXrecord
280
     1
270
     1
271
     1
  0
XRECORD
  5
221
102
{ACAD_REACTORS
330
21E
102
}
330
21E
100
AcDbXrecord
280
     1
270
     1
271
     1
  0
XRECORD
  5
282
102
{ACAD_REACTORS
330
216
102
}
330
216
100
AcDbXrecord
280
     1
102
MATERIAL
148
0.0
149
0.0
149
0.0
 93
        0
 94
      127
282
     0
 72
     0
 77
     0
171
     0
175
     0
179
     0
273
     0
  0
XRECORD
  5
218
102
{ACAD_REACTORS
330
216
102
}
330
216
100
AcDbXrecord
280
     1
270
     1
271
     1
  0
XRECORD
  5
217
102
{ACAD_REACTORS
330
216
102
}
330
216
100
AcDbXrecord
280
     1
270
     1
271
     1
  0
XRECORD
  5
21B
102
{ACAD_REACTORS
330
216
102
}
330
216
100
AcDbXrecord
280
     1
270
     1
271
     1
  0
XRECORD
  5
21A
102
{ACAD_REACTORS
330
216
102
}
330
216
100
AcDbXrecord
280
     1
270
     1
271
     1
  0
XRECORD
  5
21C
102
{ACAD_REACTORS
330
216
102
}
330
216
100
AcDbXrecord
280
     1
270
     1
271
     1
  0
XRECORD
  5
219
102
{ACAD_REACTORS
330
216
102
}
330
216
100
AcDbXrecord
280
     1
270
     1
271
     1
  0
XRECORD
  5
284
102
{ACAD_REACTORS
330
226
102
}
330
226
100
AcDbXrecord
280
     1
102
MATERIAL
148
0.0
149
0.0
149
0.0
 93
        0
 94
      127
282
     0
 72
     0
 77
     0
171
     0
175
     0
179
     0
273
     0
  0
XRECORD
  5
228
102
{ACAD_REACTORS
330
226
102
}
330
226
100
AcDbXrecord
280
     1
270
     1
271
     1
  0
XRECORD
  5
227
102
{ACAD_REACTORS
330
226
102
}
330
226
100
AcDbXrecord
280
     1
270
     1
271
     1
  0
XRECORD
  5
22B
102
{ACAD_REACTORS
330
226
102
}
330
226
100
AcDbXrecord
280
     1
270
     1
271
     1
  0
XRECORD
  5
22A
102
{ACAD_REACTORS
330
226
102
}
330
226
100
AcDbXrecord
280
     1
270
     1
271
     1
  0
XRECORD
  5
22C
102
{ACAD_REACTORS
330
226
102
}
330
226
100
AcDbXrecord
280
     1
270
     1
271
     1
  0
XRECORD
  5
229
102
{ACAD_REACTORS
330
226
102
}
330
226
100
AcDbXrecord
280
     1
270
     1
271
     1
  0
CELLSTYLEMAP
  5
BCC
102
{ACAD_REACTORS
330
27A
102
}
330
27A
100
AcDbCellStyleMap
 90
        3
300
CELLSTYLE
  1
TABLEFORMAT_BEGIN
 90
        5
170
     1
 91
        0
 92
    32768
 62
   257
 93
        1
300
CONTENTFORMAT
  1
CONTENTFORMAT_BEGIN
 90
        0
 91
        0
 92
      512
 93
        0
300

 40
0.0
140
1.0
 94
        5
 62
     0
340
117
144
0.25
309
CONTENTFORMAT_END
171
     1
301
MARGIN
  1
CELLMARGIN_BEGIN
 40
0.06
 40
0.06
 40
0.06
 40
0.06
 40
0.18
 40
0.18
309
CELLMARGIN_END
 94
        6
 95
        1
302
GRIDFORMAT
  1
GRIDFORMAT_BEGIN
 90
        0
 91
        1
 62
     0
 92
       -2
340
0
 93
        0
 40
0.045
309
GRIDFORMAT_END
 95
        2
302
GRIDFORMAT
  1
GRIDFORMAT_BEGIN
 90
        0
 91
        1
 62
     0
 92
       -2
340
0
 93
        0
 40
0.045
309
GRIDFORMAT_END
 95
        4
302
GRIDFORMAT
  1
GRIDFORMAT_BEGIN
 90
        0
 91
        1
 62
     0
 92
       -2
340
0
 93
        0
 40
0.045
309
GRIDFORMAT_END
 95
        8
302
GRIDFORMAT
  1
GRIDFORMAT_BEGIN
 90
        0
 91
        1
 62
     0
 92
       -2
340
0
 93
        0
 40
0.045
309
GRIDFORMAT_END
 95
       16
302
GRIDFORMAT
  1
GRIDFORMAT_BEGIN
 90
        0
 91
        1
 62
     0
 92
       -2
340
0
 93
        0
 40
0.045
309
GRIDFORMAT_END
 95
       32
302
GRIDFORMAT
  1
GRIDFORMAT_BEGIN
 90
        0
 91
        1
 62
     0
 92
       -2
340
0
 93
        0
 40
0.045
309
GRIDFORMAT_END
309
TABLEFORMAT_END
  1
CELLSTYLE_BEGIN
 90
        1
 91
        1
300
_TITLE
309
CELLSTYLE_END
300
CELLSTYLE
  1
TABLEFORMAT_BEGIN
 90
        5
170
     1
 91
        0
 92
        0
 62
   257
 93
        1
300
CONTENTFORMAT
  1
CONTENTFORMAT_BEGIN
 90
        0
 91
        0
 92
      512
 93
        0
300

 40
0.0
140
1.0
 94
        5
 62
     0
340
117
144
0.18
309
CONTENTFORMAT_END
171
     1
301
MARGIN
  1
CELLMARGIN_BEGIN
 40
0.06
 40
0.06
 40
0.06
 40
0.06
 40
0.18
 40
0.18
309
CELLMARGIN_END
 94
        6
 95
        1
302
GRIDFORMAT
  1
GRIDFORMAT_BEGIN
 90
        0
 91
        1
 62
     0
 92
       -2
340
0
 93
        0
 40
0.045
309
GRIDFORMAT_END
 95
        2
302
GRIDFORMAT
  1
GRIDFORMAT_BEGIN
 90
        0
 91
        1
 62
     0
 92
       -2
340
0
 93
        0
 40
0.045
309
GRIDFORMAT_END
 95
        4
302
GRIDFORMAT
  1
GRIDFORMAT_BEGIN
 90
        0
 91
        1
 62
     0
 92
       -2
340
0
 93
        0
 40
0.045
309
GRIDFORMAT_END
 95
        8
302
GRIDFORMAT
  1
GRIDFORMAT_BEGIN
 90
        0
 91
        1
 62
     0
 92
       -2
340
0
 93
        0
 40
0.045
309
GRIDFORMAT_END
 95
       16
302
GRIDFORMAT
  1
GRIDFORMAT_BEGIN
 90
        0
 91
        1
 62
     0
 92
       -2
340
0
 93
        0
 40
0.045
309
GRIDFORMAT_END
 95
       32
302
GRIDFORMAT
  1
GRIDFORMAT_BEGIN
 90
        0
 91
        1
 62
     0
 92
       -2
340
0
 93
        0
 40
0.045
309
GRIDFORMAT_END
309
TABLEFORMAT_END
  1
CELLSTYLE_BEGIN
 90
        2
 91
        1
300
_HEADER
309
CELLSTYLE_END
300
CELLSTYLE
  1
TABLEFORMAT_BEGIN
 90
        5
170
     1
 91
        0
 92
        0
 62
   257
 93
        1
300
CONTENTFORMAT
  1
CONTENTFORMAT_BEGIN
 90
        0
 91
        0
 92
      512
 93
        0
300

 40
0.0
140
1.0
 94
        2
 62
     0
340
117
144
0.18
309
CONTENTFORMAT_END
171
     1
301
MARGIN
  1
CELLMARGIN_BEGIN
 40
0.06
 40
0.06
 40
0.06
 40
0.06
 40
0.18
 40
0.18
309
CELLMARGIN_END
 94
        6
 95
        1
302
GRIDFORMAT
  1
GRIDFORMAT_BEGIN
 90
        0
 91
        1
 62
     0
 92
       -2
340
0
 93
        0
 40
0.045
309
GRIDFORMAT_END
 95
        2
302
GRIDFORMAT
  1
GRIDFORMAT_BEGIN
 90
        0
 91
        1
 62
     0
 92
       -2
340
0
 93
        0
 40
0.045
309
GRIDFORMAT_END
 95
        4
302
GRIDFORMAT
  1
GRIDFORMAT_BEGIN
 90
        0
 91
        1
 62
     0
 92
       -2
340
0
 93
        0
 40
0.045
309
GRIDFORMAT_END
 95
        8
302
GRIDFORMAT
  1
GRIDFORMAT_BEGIN
 90
        0
 91
        1
 62
     0
 92
       -2
340
0
 93
        0
 40
0.045
309
GRIDFORMAT_END
 95
       16
302
GRIDFORMAT
  1
GRIDFORMAT_BEGIN
 90
        0
 91
        1
 62
     0
 92
       -2
340
0
 93
        0
 40
0.045
309
GRIDFORMAT_END
 95
       32
302
GRIDFORMAT
  1
GRIDFORMAT_BEGIN
 90
        0
 91
        1
 62
     0
 92
       -2
340
0
 93
        0
 40
0.045
309
GRIDFORMAT_END
309
TABLEFORMAT_END
  1
CELLSTYLE_BEGIN
 90
        3
 91
        2
300
_DATA
309
CELLSTYLE_END
  0
XRECORD
  5
BF9
102
{ACAD_REACTORS
330
27A
102
}
330
27A
100
AcDbXrecord
280
     1
102
ACAD_ROUNDTRIP_PRE2007_TABLESTYLE
 90
      512
 91
        0
  1

 92
      512
 93
        0
  2

 94
      512
 95
        0
  3

  0
XRECORD
  5
BDE
102
{ACAD_REACTORS
330
BDD
102
}
330
BDD
100
AcDbXrecord
280
     1
102
RTVSPropertyOp0
 70
     1
102
RTVSPropertyOp1
 70
     1
102
RTVSPropertyOp2
 70
     1
102
RTVSPropertyOp3
 70
     1
102
RTVSPropertyOp4
 70
     1
102
RTVSPropertyOp5
 70
     1
102
RTVSPropertyOp6
 70
     1
102
RTVSPropertyOp7
 70
     1
102
RTVSPropertyOp8
 70
     1
102
RTVSPropertyOp9
 70
     1
102
RTVSPropertyOp10
 70
     1
102
RTVSPropertyOp11
 70
     1
102
RTVSPropertyOp12
 70
     1
102
RTVSPropertyOp13
 70
     1
102
RTVSPropertyOp14
 70
     1
102
RTVSPropertyOp15
 70
     1
102
RTVSPropertyOp16
 70
     1
102
RTVSPropertyOp17
 70
     1
102
RTVSPropertyOp18
 70
     1
102
RTVSPropertyOp19
 70
     1
102
RTVSPropertyOp20
 70
     1
102
RTVSPropertyOp21
 70
     1
102
RTVSPropertyOp22
 70
     1
102
RTVSPropertyOp23
 70
     1
102
RTVSPropertyOp24
 70
     1
102
RTVSPropertyOp25
 70
     1
102
RTVSPropertyOp26
 70
     1
102
RTVSPropertyOp27
 70
     1
  0
XRECORD
  5
BE2
102
{ACAD_REACTORS
330
BE1
102
}
330
BE1
100
AcDbXrecord
280
     1
102
RTVSPropertyOp0
 70
     1
102
RTVSPropertyOp1
 70
     1
102
RTVSPropertyOp2
 70
     1
102
RTVSPropertyOp3
 70
     1
102
RTVSPropertyOp4
 70
     1
102
RTVSPropertyOp5
 70
     1
102
RTVSPropertyOp6
 70
     1
102
RTVSPropertyOp7
 70
     1
102
RTVSPropertyOp8
 70
     1
102
RTVSPropertyOp9
 70
     1
102
RTVSPropertyOp10
 70
     1
102
RTVSPropertyOp11
 70
     1
102
RTVSPropertyOp12
 70
     1
102
RTVSPropertyOp13
 70
     1
102
RTVSPropertyOp14
 70
     1
102
RTVSPropertyOp15
 70
     1
102
RTVSPropertyOp16
 70
     1
102
RTVSPropertyOp17
 70
     1
102
RTVSPropertyOp18
 70
     1
102
RTVSPropertyOp19
 70
     1
102
RTVSPropertyOp20
 70
     1
102
RTVSPropertyOp21
 70
     1
102
RTVSPropertyOp22
 70
     1
102
RTVSPropertyOp23
 70
     1
102
RTVSPropertyOp24
 70
     1
102
RTVSPropertyOp25
 70
     1
102
RTVSPropertyOp26
 70
     1
102
RTVSPropertyOp27
 70
     1
  0
XRECORD
  5
BE0
102
{ACAD_REACTORS
330
BDF
102
}
330
BDF
100
AcDbXrecord
280
     1
102
RTVSPropertyOp0
 70
     1
102
RTVSPropertyOp1
 70
     1
102
RTVSPropertyOp2
 70
     1
102
RTVSPropertyOp3
 70
     1
102
RTVSPropertyOp4
 70
     1
102
RTVSPropertyOp5
 70
     1
102
RTVSPropertyOp6
 70
     1
102
RTVSPropertyOp7
 70
     1
102
RTVSPropertyOp8
 70
     1
102
RTVSPropertyOp9
 70
     1
102
RTVSPropertyOp10
 70
     1
102
RTVSPropertyOp11
 70
     1
102
RTVSPropertyOp12
 70
     1
102
RTVSPropertyOp13
 70
     1
102
RTVSPropertyOp14
 70
     1
102
RTVSPropertyOp15
 70
     1
102
RTVSPropertyOp16
 70
     1
102
RTVSPropertyOp17
 70
     1
102
RTVSPropertyOp18
 70
     1
102
RTVSPropertyOp19
 70
     1
102
RTVSPropertyOp20
 70
     1
102
RTVSPropertyOp21
 70
     1
102
RTVSPropertyOp22
 70
     1
102
RTVSPropertyOp23
 70
     1
102
RTVSPropertyOp24
 70
     1
102
RTVSPropertyOp25
 70
     1
102
RTVSPropertyOp26
 70
     1
102
RTVSPropertyOp27
 70
     1
  0
XRECORD
  5
BDC
102
{ACAD_REACTORS
330
BDB
102
}
330
BDB
100
AcDbXrecord
280
     1
102
RTVSPropertyOp0
 70
     1
102
RTVSPropertyOp1
 70
     1
102
RTVSPropertyOp2
 70
     1
102
RTVSPropertyOp3
 70
     1
102
RTVSPropertyOp4
 70
     1
102
RTVSPropertyOp5
 70
     1
102
RTVSPropertyOp6
 70
     1
102
RTVSPropertyOp7
 70
     1
102
RTVSPropertyOp8
 70
     1
102
RTVSPropertyOp9
 70
     1
102
RTVSPropertyOp10
 70
     1
102
RTVSPropertyOp11
 70
     1
102
RTVSPropertyOp12
 70
     1
102
RTVSPropertyOp13
 70
     1
102
RTVSPropertyOp14
 70
     1
102
RTVSPropertyOp15
 70
     1
102
RTVSPropertyOp16
 70
     1
102
RTVSPropertyOp17
 70
     1
102
RTVSPropertyOp18
 70
     1
102
RTVSPropertyOp19
 70
     1
102
RTVSPropertyOp20
 70
     1
102
RTVSPropertyOp21
 70
     1
102
RTVSPropertyOp22
 70
     1
102
RTVSPropertyOp23
 70
     1
102
RTVSPropertyOp24
 70
     1
102
RTVSPropertyOp25
 70
     1
102
RTVSPropertyOp26
 70
     1
102
RTVSPropertyOp27
 70
     1
  0
XRECORD
  5
BEA
102
{ACAD_REACTORS
330
BE9
102
}
330
BE9
100
AcDbXrecord
280
     1
102
RTVSPropertyOp0
 70
     1
102
RTVSPropertyOp1
 70
     1
102
RTVSPropertyOp2
 70
     1
102
RTVSPropertyOp3
 70
     1
102
RTVSPropertyOp4
 70
     1
102
RTVSPropertyOp5
 70
     1
102
RTVSPropertyOp6
 70
     1
102
RTVSPropertyOp7
 70
     1
102
RTVSPropertyOp8
 70
     1
102
RTVSPropertyOp9
 70
     1
102
RTVSPropertyOp10
 70
     1
102
RTVSPropertyOp11
 70
     1
102
RTVSPropertyOp12
 70
     1
102
RTVSPropertyOp13
 70
     1
102
RTVSPropertyOp14
 70
     1
102
RTVSPropertyOp15
 70
     1
102
RTVSPropertyOp16
 70
     1
102
RTVSPropertyOp17
 70
     1
102
RTVSPropertyOp18
 70
     1
102
RTVSPropertyOp19
 70
     1
102
RTVSPropertyOp20
 70
     1
102
RTVSPropertyOp21
 70
     1
102
RTVSPropertyOp22
 70
     1
102
RTVSPropertyOp23
 70
     1
102
RTVSPropertyOp24
 70
     1
102
RTVSPropertyOp25
 70
     1
102
RTVSPropertyOp26
 70
     1
102
RTVSPropertyOp27
 70
     1
  0
XRECORD
  5
BF2
102
{ACAD_REACTORS
330
BF1
102
}
330
BF1
100
AcDbXrecord
280
     1
102
RTVSPropertyOp0
 70
     1
102
RTVSPropertyOp1
 70
     1
102
RTVSPropertyOp2
 70
     1
102
RTVSPropertyOp3
 70
     1
102
RTVSPropertyOp4
 70
     1
102
RTVSPropertyOp5
 70
     1
102
RTVSPropertyOp6
 70
     1
102
RTVSPropertyOp7
 70
     1
102
RTVSPropertyOp8
 70
     1
102
RTVSPropertyOp9
 70
     1
102
RTVSPropertyOp10
 70
     1
102
RTVSPropertyOp11
 70
     1
102
RTVSPropertyOp12
 70
     1
102
RTVSPropertyOp13
 70
     1
102
RTVSPropertyOp14
 70
     1
102
RTVSPropertyOp15
 70
     1
102
RTVSPropertyOp16
 70
     1
102
RTVSPropertyOp17
 70
     1
102
RTVSPropertyOp18
 70
     1
102
RTVSPropertyOp19
 70
     1
102
RTVSPropertyOp20
 70
     1
102
RTVSPropertyOp21
 70
     1
102
RTVSPropertyOp22
 70
     1
102
RTVSPropertyOp23
 70
     1
102
RTVSPropertyOp24
 70
     1
102
RTVSPropertyOp25
 70
     1
102
RTVSPropertyOp26
 70
     1
102
RTVSPropertyOp27
 70
     1
  0
XRECORD
  5
BE4
102
{ACAD_REACTORS
330
BE3
102
}
330
BE3
100
AcDbXrecord
280
     1
102
RTVSPropertyOp0
 70
     1
102
RTVSPropertyOp1
 70
     1
102
RTVSPropertyOp2
 70
     1
102
RTVSPropertyOp3
 70
     1
102
RTVSPropertyOp4
 70
     1
102
RTVSPropertyOp5
 70
     1
102
RTVSPropertyOp6
 70
     1
102
RTVSPropertyOp7
 70
     1
102
RTVSPropertyOp8
 70
     1
102
RTVSPropertyOp9
 70
     1
102
RTVSPropertyOp10
 70
     1
102
RTVSPropertyOp11
 70
     1
102
RTVSPropertyOp12
 70
     1
102
RTVSPropertyOp13
 70
     1
102
RTVSPropertyOp14
 70
     1
102
RTVSPropertyOp15
 70
     1
102
RTVSPropertyOp16
 70
     1
102
RTVSPropertyOp17
 70
     1
102
RTVSPropertyOp18
 70
     1
102
RTVSPropertyOp19
 70
     1
102
RTVSPropertyOp20
 70
     1
102
RTVSPropertyOp21
 70
     1
102
RTVSPropertyOp22
 70
     1
102
RTVSPropertyOp23
 70
     1
102
RTVSPropertyOp24
 70
     1
102
RTVSPropertyOp25
 70
     1
102
RTVSPropertyOp26
 70
     1
102
RTVSPropertyOp27
 70
     1
  0
XRECORD
  5
BE8
102
{ACAD_REACTORS
330
BE7
102
}
330
BE7
100
AcDbXrecord
280
     1
102
RTVSPropertyOp0
 70
     1
102
RTVSPropertyOp1
 70
     1
102
RTVSPropertyOp2
 70
     1
102
RTVSPropertyOp3
 70
     1
102
RTVSPropertyOp4
 70
     1
102
RTVSPropertyOp5
 70
     1
102
RTVSPropertyOp6
 70
     1
102
RTVSPropertyOp7
 70
     1
102
RTVSPropertyOp8
 70
     1
102
RTVSPropertyOp9
 70
     1
102
RTVSPropertyOp10
 70
     1
102
RTVSPropertyOp11
 70
     1
102
RTVSPropertyOp12
 70
     1
102
RTVSPropertyOp13
 70
     1
102
RTVSPropertyOp14
 70
     1
102
RTVSPropertyOp15
 70
     1
102
RTVSPropertyOp16
 70
     1
102
RTVSPropertyOp17
 70
     1
102
RTVSPropertyOp18
 70
     1
102
RTVSPropertyOp19
 70
     1
102
RTVSPropertyOp20
 70
     1
102
RTVSPropertyOp21
 70
     1
102
RTVSPropertyOp22
 70
     1
102
RTVSPropertyOp23
 70
     1
102
RTVSPropertyOp24
 70
     1
102
RTVSPropertyOp25
 70
     1
102
RTVSPropertyOp26
 70
     1
102
RTVSPropertyOp27
 70
     1
  0
XRECORD
  5
BF8
102
{ACAD_REACTORS
330
BF7
102
}
330
BF7
100
AcDbXrecord
280
     1
102
RTVSPropertyOp0
 70
     0
102
RTVSPropertyOp1
 70
     0
102
RTVSPropertyOp2
 70
     0
102
RTVSPropertyOp3
 70
     0
102
RTVSPropertyOp4
 70
     0
102
RTVSPropertyOp5
 70
     0
102
RTVSPropertyOp6
 70
     0
102
RTVSPropertyOp7
 70
     0
102
RTVSPropertyOp8
 70
     0
102
RTVSPropertyOp9
 70
     0
102
RTVSPropertyOp10
 70
     0
102
RTVSPropertyOp11
 70
     0
102
RTVSPropertyOp12
 70
     0
102
RTVSPropertyOp13
 70
     0
102
RTVSPropertyOp14
 70
     2
102
RTVSPropertyOp15
 70
     0
102
RTVSPropertyOp16
 70
     0
102
RTVSPropertyOp17
 70
     0
102
RTVSPropertyOp18
 70
     0
102
RTVSPropertyOp19
 70
     0
102
RTVSPropertyOp20
 70
     0
102
RTVSPropertyOp21
 70
     0
102
RTVSPropertyOp22
 70
     0
102
RTVSPropertyOp23
 70
     0
102
RTVSPropertyOp24
 70
     0
102
RTVSPropertyOp25
 70
     0
102
RTVSPropertyOp26
 70
     0
102
RTVSPropertyOp27
 70
     0
  0
XRECORD
  5
BF0
102
{ACAD_REACTORS
330
BEF
102
}
330
BEF
100
AcDbXrecord
280
     1
102
RTVSPropertyOp0
 70
     1
102
RTVSPropertyOp1
 70
     1
102
RTVSPropertyOp2
 70
     1
102
RTVSPropertyOp3
 70
     1
102
RTVSPropertyOp4
 70
     1
102
RTVSPropertyOp5
 70
     1
102
RTVSPropertyOp6
 70
     1
102
RTVSPropertyOp7
 70
     1
102
RTVSPropertyOp8
 70
     1
102
RTVSPropertyOp9
 70
     1
102
RTVSPropertyOp10
 70
     1
102
RTVSPropertyOp11
 70
     1
102
RTVSPropertyOp12
 70
     1
102
RTVSPropertyOp13
 70
     1
102
RTVSPropertyOp14
 70
     1
102
RTVSPropertyOp15
 70
     1
102
RTVSPropertyOp16
 70
     1
102
RTVSPropertyOp17
 70
     1
102
RTVSPropertyOp18
 70
     1
102
RTVSPropertyOp19
 70
     1
102
RTVSPropertyOp20
 70
     1
102
RTVSPropertyOp21
 70
     1
102
RTVSPropertyOp22
 70
     1
102
RTVSPropertyOp23
 70
     1
102
RTVSPropertyOp24
 70
     1
102
RTVSPropertyOp25
 70
     1
102
RTVSPropertyOp26
 70
     1
102
RTVSPropertyOp27
 70
     1
  0
XRECORD
  5
BD4
102
{ACAD_REACTORS
330
BD3
102
}
330
BD3
100
AcDbXrecord
280
     1
102
RTVSPropertyOp0
 70
     1
102
RTVSPropertyOp1
 70
     1
102
RTVSPropertyOp2
 70
     1
102
RTVSPropertyOp3
 70
     1
102
RTVSPropertyOp4
 70
     1
102
RTVSPropertyOp5
 70
     1
102
RTVSPropertyOp6
 70
     1
102
RTVSPropertyOp7
 70
     1
102
RTVSPropertyOp8
 70
     1
102
RTVSPropertyOp9
 70
     1
102
RTVSPropertyOp10
 70
     1
102
RTVSPropertyOp11
 70
     1
102
RTVSPropertyOp12
 70
     1
102
RTVSPropertyOp13
 70
     1
102
RTVSPropertyOp14
 70
     1
102
RTVSPropertyOp15
 70
     1
102
RTVSPropertyOp16
 70
     1
102
RTVSPropertyOp17
 70
     1
102
RTVSPropertyOp18
 70
     1
102
RTVSPropertyOp19
 70
     1
102
RTVSPropertyOp20
 70
     1
102
RTVSPropertyOp21
 70
     1
102
RTVSPropertyOp22
 70
     1
102
RTVSPropertyOp23
 70
     1
102
RTVSPropertyOp24
 70
     1
102
RTVSPropertyOp25
 70
     1
102
RTVSPropertyOp26
 70
     1
102
RTVSPropertyOp27
 70
     1
  0
XRECORD
  5
BD6
102
{ACAD_REACTORS
330
BD5
102
}
330
BD5
100
AcDbXrecord
280
     1
102
RTVSPropertyOp0
 70
     1
102
RTVSPropertyOp1
 70
     1
102
RTVSPropertyOp2
 70
     1
102
RTVSPropertyOp3
 70
     1
102
RTVSPropertyOp4
 70
     1
102
RTVSPropertyOp5
 70
     1
102
RTVSPropertyOp6
 70
     1
102
RTVSPropertyOp7
 70
     1
102
RTVSPropertyOp8
 70
     1
102
RTVSPropertyOp9
 70
     1
102
RTVSPropertyOp10
 70
     1
102
RTVSPropertyOp11
 70
     1
102
RTVSPropertyOp12
 70
     1
102
RTVSPropertyOp13
 70
     1
102
RTVSPropertyOp14
 70
     1
102
RTVSPropertyOp15
 70
     1
102
RTVSPropertyOp16
 70
     1
102
RTVSPropertyOp17
 70
     1
102
RTVSPropertyOp18
 70
     1
102
RTVSPropertyOp19
 70
     1
102
RTVSPropertyOp20
 70
     1
102
RTVSPropertyOp21
 70
     1
102
RTVSPropertyOp22
 70
     1
102
RTVSPropertyOp23
 70
     1
102
RTVSPropertyOp24
 70
     1
102
RTVSPropertyOp25
 70
     1
102
RTVSPropertyOp26
 70
     1
102
RTVSPropertyOp27
 70
     1
  0
XRECORD
  5
BD8
102
{ACAD_REACTORS
330
BD7
102
}
330
BD7
100
AcDbXrecord
280
     1
102
RTVSPropertyOp0
 70
     1
102
RTVSPropertyOp1
 70
     1
102
RTVSPropertyOp2
 70
     1
102
RTVSPropertyOp3
 70
     1
102
RTVSPropertyOp4
 70
     1
102
RTVSPropertyOp5
 70
     1
102
RTVSPropertyOp6
 70
     1
102
RTVSPropertyOp7
 70
     1
102
RTVSPropertyOp8
 70
     1
102
RTVSPropertyOp9
 70
     1
102
RTVSPropertyOp10
 70
     1
102
RTVSPropertyOp11
 70
     1
102
RTVSPropertyOp12
 70
     1
102
RTVSPropertyOp13
 70
     1
102
RTVSPropertyOp14
 70
     1
102
RTVSPropertyOp15
 70
     1
102
RTVSPropertyOp16
 70
     1
102
RTVSPropertyOp17
 70
     1
102
RTVSPropertyOp18
 70
     1
102
RTVSPropertyOp19
 70
     1
102
RTVSPropertyOp20
 70
     1
102
RTVSPropertyOp21
 70
     1
102
RTVSPropertyOp22
 70
     1
102
RTVSPropertyOp23
 70
     1
102
RTVSPropertyOp24
 70
     1
102
RTVSPropertyOp25
 70
     1
102
RTVSPropertyOp26
 70
     1
102
RTVSPropertyOp27
 70
     1
  0
XRECORD
  5
BDA
102
{ACAD_REACTORS
330
BD9
102
}
330
BD9
100
AcDbXrecord
280
     1
102
RTVSPropertyOp0
 70
     1
102
RTVSPropertyOp1
 70
     1
102
RTVSPropertyOp2
 70
     1
102
RTVSPropertyOp3
 70
     1
102
RTVSPropertyOp4
 70
     1
102
RTVSPropertyOp5
 70
     1
102
RTVSPropertyOp6
 70
     1
102
RTVSPropertyOp7
 70
     1
102
RTVSPropertyOp8
 70
     1
102
RTVSPropertyOp9
 70
     1
102
RTVSPropertyOp10
 70
     1
102
RTVSPropertyOp11
 70
     1
102
RTVSPropertyOp12
 70
     1
102
RTVSPropertyOp13
 70
     1
102
RTVSPropertyOp14
 70
     1
102
RTVSPropertyOp15
 70
     1
102
RTVSPropertyOp16
 70
     1
102
RTVSPropertyOp17
 70
     1
102
RTVSPropertyOp18
 70
     1
102
RTVSPropertyOp19
 70
     1
102
RTVSPropertyOp20
 70
     1
102
RTVSPropertyOp21
 70
     1
102
RTVSPropertyOp22
 70
     1
102
RTVSPropertyOp23
 70
     1
102
RTVSPropertyOp24
 70
     1
102
RTVSPropertyOp25
 70
     1
102
RTVSPropertyOp26
 70
     1
102
RTVSPropertyOp27
 70
     1
  0
XRECORD
  5
BF4
102
{ACAD_REACTORS
330
BF3
102
}
330
BF3
100
AcDbXrecord
280
     1
102
RTVSPropertyOp0
 70
     0
102
RTVSPropertyOp1
 70
     0
102
RTVSPropertyOp2
 70
     0
102
RTVSPropertyOp3
 70
     0
102
RTVSPropertyOp4
 70
     0
102
RTVSPropertyOp5
 70
     0
102
RTVSPropertyOp6
 70
     0
102
RTVSPropertyOp7
 70
     0
102
RTVSPropertyOp8
 70
     0
102
RTVSPropertyOp9
 70
     0
102
RTVSPropertyOp10
 70
     0
102
RTVSPropertyOp11
 70
     0
102
RTVSPropertyOp12
 70
     0
102
RTVSPropertyOp13
 70
     0
102
RTVSPropertyOp14
 70
     2
102
RTVSPropertyOp15
 70
     0
102
RTVSPropertyOp16
 70
     0
102
RTVSPropertyOp17
 70
     0
102
RTVSPropertyOp18
 70
     0
102
RTVSPropertyOp19
 70
     0
102
RTVSPropertyOp20
 70
     0
102
RTVSPropertyOp21
 70
     0
102
RTVSPropertyOp22
 70
     0
102
RTVSPropertyOp23
 70
     0
102
RTVSPropertyOp24
 70
     0
102
RTVSPropertyOp25
 70
     0
102
RTVSPropertyOp26
 70
     0
102
RTVSPropertyOp27
 70
     0
  0
XRECORD
  5
BEE
102
{ACAD_REACTORS
330
BED
102
}
330
BED
100
AcDbXrecord
280
     1
102
RTVSPropertyOp0
 70
     1
102
RTVSPropertyOp1
 70
     1
102
RTVSPropertyOp2
 70
     1
102
RTVSPropertyOp3
 70
     1
102
RTVSPropertyOp4
 70
     1
102
RTVSPropertyOp5
 70
     1
102
RTVSPropertyOp6
 70
     1
102
RTVSPropertyOp7
 70
     1
102
RTVSPropertyOp8
 70
     1
102
RTVSPropertyOp9
 70
     1
102
RTVSPropertyOp10
 70
     1
102
RTVSPropertyOp11
 70
     1
102
RTVSPropertyOp12
 70
     1
102
RTVSPropertyOp13
 70
     1
102
RTVSPropertyOp14
 70
     1
102
RTVSPropertyOp15
 70
     1
102
RTVSPropertyOp16
 70
     1
102
RTVSPropertyOp17
 70
     1
102
RTVSPropertyOp18
 70
     1
102
RTVSPropertyOp19
 70
     1
102
RTVSPropertyOp20
 70
     1
102
RTVSPropertyOp21
 70
     1
102
RTVSPropertyOp22
 70
     1
102
RTVSPropertyOp23
 70
     1
102
RTVSPropertyOp24
 70
     1
102
RTVSPropertyOp25
 70
     1
102
RTVSPropertyOp26
 70
     1
102
RTVSPropertyOp27
 70
     1
  0
XRECORD
  5
BF6
102
{ACAD_REACTORS
330
BF5
102
}
330
BF5
100
AcDbXrecord
280
     1
102
RTVSPropertyOp0
 70
     0
102
RTVSPropertyOp1
 70
     0
102
RTVSPropertyOp2
 70
     0
102
RTVSPropertyOp3
 70
     0
102
RTVSPropertyOp4
 70
     0
102
RTVSPropertyOp5
 70
     0
102
RTVSPropertyOp6
 70
     0
102
RTVSPropertyOp7
 70
     0
102
RTVSPropertyOp8
 70
     0
102
RTVSPropertyOp9
 70
     0
102
RTVSPropertyOp10
 70
     0
102
RTVSPropertyOp11
 70
     0
102
RTVSPropertyOp12
 70
     0
102
RTVSPropertyOp13
 70
     0
102
RTVSPropertyOp14
 70
     2
102
RTVSPropertyOp15
 70
     0
102
RTVSPropertyOp16
 70
     0
102
RTVSPropertyOp17
 70
     0
102
RTVSPropertyOp18
 70
     0
102
RTVSPropertyOp19
 70
     0
102
RTVSPropertyOp20
 70
     0
102
RTVSPropertyOp21
 70
     0
102
RTVSPropertyOp22
 70
     0
102
RTVSPropertyOp23
 70
     0
102
RTVSPropertyOp24
 70
     0
102
RTVSPropertyOp25
 70
     0
102
RTVSPropertyOp26
 70
     0
102
RTVSPropertyOp27
 70
     0
  0
XRECORD
  5
BE6
102
{ACAD_REACTORS
330
BE5
102
}
330
BE5
100
AcDbXrecord
280
     1
102
RTVSPropertyOp0
 70
     1
102
RTVSPropertyOp1
 70
     1
102
RTVSPropertyOp2
 70
     1
102
RTVSPropertyOp3
 70
     1
102
RTVSPropertyOp4
 70
     1
102
RTVSPropertyOp5
 70
     1
102
RTVSPropertyOp6
 70
     1
102
RTVSPropertyOp7
 70
     1
102
RTVSPropertyOp8
 70
     1
102
RTVSPropertyOp9
 70
     1
102
RTVSPropertyOp10
 70
     1
102
RTVSPropertyOp11
 70
     1
102
RTVSPropertyOp12
 70
     1
102
RTVSPropertyOp13
 70
     1
102
RTVSPropertyOp14
 70
     1
102
RTVSPropertyOp15
 70
     1
102
RTVSPropertyOp16
 70
     1
102
RTVSPropertyOp17
 70
     1
102
RTVSPropertyOp18
 70
     1
102
RTVSPropertyOp19
 70
     1
102
RTVSPropertyOp20
 70
     1
102
RTVSPropertyOp21
 70
     1
102
RTVSPropertyOp22
 70
     1
102
RTVSPropertyOp23
 70
     1
102
RTVSPropertyOp24
 70
     1
102
RTVSPropertyOp25
 70
     1
102
RTVSPropertyOp26
 70
     1
102
RTVSPropertyOp27
 70
     1
  0
XRECORD
  5
BEC
102
{ACAD_REACTORS
330
BEB
102
}
330
BEB
100
AcDbXrecord
280
     1
102
RTVSPropertyOp0
 70
     1
102
RTVSPropertyOp1
 70
     1
102
RTVSPropertyOp2
 70
     1
102
RTVSPropertyOp3
 70
     1
102
RTVSPropertyOp4
 70
     1
102
RTVSPropertyOp5
 70
     1
102
RTVSPropertyOp6
 70
     1
102
RTVSPropertyOp7
 70
     1
102
RTVSPropertyOp8
 70
     1
102
RTVSPropertyOp9
 70
     1
102
RTVSPropertyOp10
 70
     1
102
RTVSPropertyOp11
 70
     1
102
RTVSPropertyOp12
 70
     1
102
RTVSPropertyOp13
 70
     1
102
RTVSPropertyOp14
 70
     1
102
RTVSPropertyOp15
 70
     1
102
RTVSPropertyOp16
 70
     1
102
RTVSPropertyOp17
 70
     1
102
RTVSPropertyOp18
 70
     1
102
RTVSPropertyOp19
 70
     1
102
RTVSPropertyOp20
 70
     1
102
RTVSPropertyOp21
 70
     1
102
RTVSPropertyOp22
 70
     1
102
RTVSPropertyOp23
 70
     1
102
RTVSPropertyOp24
 70
     1
102
RTVSPropertyOp25
 70
     1
102
RTVSPropertyOp26
 70
     1
102
RTVSPropertyOp27
 70
     1
  0
ENDSEC
  0
EOF
