  0
SECTION
  2
HEADER
  9
$ACADVER
  1
AC1015
  9
$ACADMAINTVER
 70
     6
  9
$DWGCODEPAGE
  3
ANSI_1252
  9
$INSBASE
 10
0.0
 20
0.0
 30
0.0
  9
$EXTMIN
 10
317.5881069999998
 20
155.015508
 30
0.0
  9
$EXTMAX
 10
1420.822674666665
 20
977.2278919999999
 30
0.0
  9
$LIMMIN
 10
0.0
 20
0.0
  9
$LIMMAX
 10
12.0
 20
9.0
  9
$ORTHOMODE
 70
     1
  9
$REGENMODE
 70
     1
  9
$FILLMODE
 70
     1
  9
$QTEXTMODE
 70
     0
  9
$MIRRTEXT
 70
     1
  9
$LTSCALE
 40
1.0
  9
$ATTMODE
 70
     1
  9
$TEXTSIZE
 40
0.2
  9
$TRACEWID
 40
0.05
  9
$TEXTSTYLE
  7
STANDARD
  9
$CLAYER
  8
0
  9
$CELTYPE
  6
CONTINUOUS
  9
$CECOLOR
 62
     6
  9
$CELTSCALE
 40
1.0
  9
$DISPSILH
 70
     0
  9
$DIMSCALE
 40
1.0
  9
$DIMASZ
 40
0.18
  9
$DIMEXO
 40
0.0625
  9
$DIMDLI
 40
0.38
  9
$DIMRND
 40
0.0
  9
$DIMDLE
 40
0.0
  9
$DIMEXE
 40
0.18
  9
$DIMTP
 40
0.0
  9
$DIMTM
 40
0.0
  9
$DIMTXT
 40
0.18
  9
$DIMCEN
 40
0.09
  9
$DIMTSZ
 40
0.0
  9
$DIMTOL
 70
     0
  9
$DIMLIM
 70
     0
  9
$DIMTIH
 70
     1
  9
$DIMTOH
 70
     1
  9
$DIMSE1
 70
     0
  9
$DIMSE2
 70
     0
  9
$DIMTAD
 70
     0
  9
$DIMZIN
 70
     0
  9
$DIMBLK
  1

  9
$DIMASO
 70
     1
  9
$DIMSHO
 70
     1
  9
$DIMPOST
  1

  9
$DIMAPOST
  1

  9
$DIMALT
 70
     0
  9
$DIMALTD
 70
     2
  9
$DIMALTF
 40
25.4
  9
$DIMLFAC
 40
1.0
  9
$DIMTOFL
 70
     0
  9
$DIMTVP
 40
0.0
  9
$DIMTIX
 70
     0
  9
$DIMSOXD
 70
     0
  9
$DIMSAH
 70
     0
  9
$DIMBLK1
  1

  9
$DIMBLK2
  1

  9
$DIMSTYLE
  2
STANDARD
  9
$DIMCLRD
 70
     0
  9
$DIMCLRE
 70
     0
  9
$DIMCLRT
 70
     0
  9
$DIMTFAC
 40
1.0
  9
$DIMGAP
 40
0.09
  9
$DIMJUST
 70
     0
  9
$DIMSD1
 70
     0
  9
$DIMSD2
 70
     0
  9
$DIMTOLJ
 70
     1
  9
$DIMTZIN
 70
     0
  9
$DIMALTZ
 70
     0
  9
$DIMALTTZ
 70
     0
  9
$DIMUPT
 70
     0
  9
$DIMDEC
 70
     4
  9
$DIMTDEC
 70
     4
  9
$DIMALTU
 70
     2
  9
$DIMALTTD
 70
     2
  9
$DIMTXSTY
  7
STANDARD
  9
$DIMAUNIT
 70
     0
  9
$DIMADEC
 70
     0
  9
$DIMALTRND
 40
0.0
  9
$DIMAZIN
 70
     0
  9
$DIMDSEP
 70
    46
  9
$DIMATFIT
 70
     3
  9
$DIMFRAC
 70
     0
  9
$DIMLDRBLK
  1

  9
$DIMLUNIT
 70
     2
  9
$DIMLWD
 70
    -2
  9
$DIMLWE
 70
    -2
  9
$DIMTMOVE
 70
     0
  9
$LUNITS
 70
     2
  9
$LUPREC
 70
     4
  9
$SKETCHINC
 40
0.1
  9
$FILLETRAD
 40
0.0
  9
$AUNITS
 70
     0
  9
$AUPREC
 70
     0
  9
$MENU
  1
acad
  9
$ELEVATION
 40
0.0
  9
$PELEVATION
 40
0.0
  9
$THICKNESS
 40
0.0
  9
$LIMCHECK
 70
     0
  9
$CHAMFERA
 40
0.0
  9
$CHAMFERB
 40
0.0
  9
$CHAMFERC
 40
0.0
  9
$CHAMFERD
 40
0.0
  9
$SKPOLY
 70
     0
  9
$TDCREATE
 40
2451288.347424652
  9
$TDUCREATE
 40
2451288.347424652
  9
$TDUPDATE
 40
2457356.660547986
  9
$TDUUPDATE
 40
2457356.660547986
  9
$TDINDWG
 40
1.0207069329
  9
$TDUSRTIMER
 40
1.0207033681
  9
$USRTIMER
 70
     1
  9
$ANGBASE
 50
0.0
  9
$ANGDIR
 70
     0
  9
$PDMODE
 70
     0
  9
$PDSIZE
 40
0.0
  9
$PLINEWID
 40
1.0
  9
$SPLFRAME
 70
     0
  9
$SPLINETYPE
 70
     6
  9
$SPLINESEGS
 70
    10
  9
$HANDSEED
  5
CA5
  9
$SURFTAB1
 70
     6
  9
$SURFTAB2
 70
     6
  9
$SURFTYPE
 70
     6
  9
$SURFU
 70
    10
  9
$SURFV
 70
    10
  9
$UCSBASE
  2

  9
$UCSNAME
  2

  9
$UCSORG
 10
0.0
 20
0.0
 30
0.0
  9
$UCSXDIR
 10
1.0
 20
0.0
 30
0.0
  9
$UCSYDIR
 10
0.0
 20
1.0
 30
0.0
  9
$UCSORTHOREF
  2

  9
$UCSORTHOVIEW
 70
     0
  9
$UCSORGTOP
 10
0.0
 20
0.0
 30
0.0
  9
$UCSORGBOTTOM
 10
0.0
 20
0.0
 30
0.0
  9
$UCSORGLEFT
 10
0.0
 20
0.0
 30
0.0
  9
$UCSORGRIGHT
 10
0.0
 20
0.0
 30
0.0
  9
$UCSORGFRONT
 10
0.0
 20
0.0
 30
0.0
  9
$UCSORGBACK
 10
0.0
 20
0.0
 30
0.0
  9
$PUCSBASE
  2

  9
$PUCSNAME
  2

  9
$PUCSORG
 10
0.0
 20
0.0
 30
0.0
  9
$PUCSXDIR
 10
1.0
 20
0.0
 30
0.0
  9
$PUCSYDIR
 10
0.0
 20
1.0
 30
0.0
  9
$PUCSORTHOREF
  2

  9
$PUCSORTHOVIEW
 70
     0
  9
$PUCSORGTOP
 10
0.0
 20
0.0
 30
0.0
  9
$PUCSORGBOTTOM
 10
0.0
 20
0.0
 30
0.0
  9
$PUCSORGLEFT
 10
0.0
 20
0.0
 30
0.0
  9
$PUCSORGRIGHT
 10
0.0
 20
0.0
 30
0.0
  9
$PUCSORGFRONT
 10
0.0
 20
0.0
 30
0.0
  9
$PUCSORGBACK
 10
0.0
 20
0.0
 30
0.0
  9
$USERI1
 70
     0
  9
$USERI2
 70
     0
  9
$USERI3
 70
     0
  9
$USERI4
 70
     0
  9
$USERI5
 70
     0
  9
$USERR1
 40
0.0
  9
$USERR2
 40
0.0
  9
$USERR3
 40
0.0
  9
$USERR4
 40
0.0
  9
$USERR5
 40
0.0
  9
$WORLDVIEW
 70
     1
  9
$SHADEDGE
 70
     3
  9
$SHADEDIF
 70
    70
  9
$TILEMODE
 70
     1
  9
$MAXACTVP
 70
    16
  9
$PINSBASE
 10
0.0
 20
0.0
 30
0.0
  9
$PLIMCHECK
 70
     0
  9
$PEXTMIN
 10
-1.000000000000000E+20
 20
-1.000000000000000E+20
 30
-1.000000000000000E+20
  9
$PEXTMAX
 10
-1.000000000000000E+20
 20
-1.000000000000000E+20
 30
-1.000000000000000E+20
  9
$PLIMMIN
 10
0.0
 20
0.0
  9
$PLIMMAX
 10
12.0
 20
9.0
  9
$UNITMODE
 70
     0
  9
$VISRETAIN
 70
     0
  9
$PLINEGEN
 70
     0
  9
$PSLTSCALE
 70
     1
  9
$TREEDEPTH
 70
  3020
  9
$CMLSTYLE
  2
STANDARD
  9
$CMLJUST
 70
     0
  9
$CMLSCALE
 40
1.0
  9
$PROXYGRAPHICS
 70
     1
  9
$MEASUREMENT
 70
     0
  9
$CELWEIGHT
370
    -1
  9
$ENDCAPS
280
     0
  9
$JOINSTYLE
280
     0
  9
$LWDISPLAY
290
     0
  9
$INSUNITS
 70
     0
  9
$HYPERLINKBASE
  1

  9
$STYLESHEET
  1

  9
$XEDIT
290
     1
  9
$CEPSNTYPE
380
     0
  9
$PSTYLEMODE
290
     1
  9
$FINGERPRINTGUID
  2
{A49C991E-5D07-4364-B29C-F2D70506E621}
  9
$VERSIONGUID
  2
{8A73443B-0072-47B4-9C75-A75612444C27}
  9
$EXTNAMES
290
     1
  9
$PSVPSCALE
 40
0.0
  9
$OLESTARTUP
290
     0
  0
ENDSEC
  0
SECTION
  2
CLASSES
  0
CLASS
  1
IDBUFFER
  2
AcDbIdBuffer
  3
AutoCAD 2000
 90
    32768
280
     0
281
     0
  0
CLASS
  1
ACDBDICTIONARYWDFLT
  2
AcDbDictionaryWithDefault
  3
AutoCAD 2000
 90
        0
280
     0
281
     0
  0
CLASS
  1
ACDBPLACEHOLDER
  2
AcDbPlaceHolder
  3
AutoCAD 2000
 90
        0
280
     0
281
     0
  0
CLASS
  1
LAYOUT
  2
AcDbLayout
  3
AutoCAD 2000
 90
        0
280
     0
281
     0
  0
CLASS
  1
MATERIAL
  2
AcDbMaterial
  3
ObjectDBX Classes
 90
     1153
280
     0
281
     0
  0
CLASS
  1
VISUALSTYLE
  2
AcDbVisualStyle
  3
ObjectDBX Classes
 90
     4095
280
     0
281
     0
  0
CLASS
  1
TABLESTYLE
  2
AcDbTableStyle
  3
ObjectDBX Classes
 90
     4095
280
     0
281
     0
  0
CLASS
  1
SCALE
  2
AcDbScale
  3
ObjectDBX Classes
 90
     1153
280
     0
281
     0
  0
CLASS
  1
MLEADERSTYLE
  2
AcDbMLeaderStyle
  3
ACDB_MLEADERSTYLE_CLASS
 90
     4095
280
     0
281
     0
  0
CLASS
  1
SORTENTSTABLE
  2
AcDbSortentsTable
  3
AutoCAD 2000
 90
        0
280
     0
281
     0
  0
CLASS
  1
DICTIONARYVAR
  2
AcDbDictionaryVar
  3
AutoCAD 2000
 90
        0
280
     0
281
     0
  0
CLASS
  1
CELLSTYLEMAP
  2
AcDbCellStyleMap
  3
ObjectDBX Classes
 90
     1152
280
     0
281
     0
  0
ENDSEC
  0
SECTION
  2
TABLES
  0
TABLE
  2
VPORT
  5
17B
330
0
100
AcDbSymbolTable
 70
    21
  0
VPORT
  5
CA4
330
17B
100
AcDbSymbolTableRecord
100
AcDbViewportTableRecord
  2
*Active
 70
     0
 10
0.0
 20
0.0
 11
1.0
 21
1.0
 12
-1113.559446491779
 22
642.3419186698111
 13
0.0
 23
0.0
 14
0.0
 24
0.0
 15
0.0
 25
0.0
 16
0.0
 26
0.0
 36
1.0
 17
662.702334
 27
588.79375
 37
0.0
 40
2213.263500896567
 41
2.220101781170483
 42
50.0
 43
0.0
 44
0.0
 50
0.0
 51
0.0
 71
     0
 72
   100
 73
     1
 74
     0
 75
     0
 76
     0
 77
     0
 78
     0
281
     0
 65
     1
110
0.0
120
0.0
130
0.0
111
1.0
121
0.0
131
0.0
112
0.0
122
1.0
132
0.0
 79
     0
146
0.0
  0
ENDTAB
  0
TABLE
  2
LTYPE
  5
178
330
0
100
AcDbSymbolTable
 70
     1
  0
LTYPE
  5
185
330
178
100
AcDbSymbolTableRecord
100
AcDbLinetypeTableRecord
  2
BYBLOCK
 70
     0
  3

 72
    65
 73
     0
 40
0.0
  0
LTYPE
  5
186
330
178
100
AcDbSymbolTableRecord
100
AcDbLinetypeTableRecord
  2
BYLAYER
 70
     0
  3

 72
    65
 73
     0
 40
0.0
  0
LTYPE
  5
187
330
178
100
AcDbSymbolTableRecord
100
AcDbLinetypeTableRecord
  2
CONTINUOUS
 70
     0
  3
Solid line
 72
    65
 73
     0
 40
0.0
  0
ENDTAB
  0
TABLE
  2
LAYER
  5
175
330
0
100
AcDbSymbolTable
 70
     7
  0
LAYER
  5
181
102
{ACAD_XDICTIONARY
360
A25
102
}
330
175
100
AcDbSymbolTableRecord
100
AcDbLayerTableRecord
  2
0
 70
     0
 62
     7
  6
CONTINUOUS
370
    -3
390
8FA
  0
LAYER
  5
19A
102
{ACAD_XDICTIONARY
360
A27
102
}
330
175
100
AcDbSymbolTableRecord
100
AcDbLayerTableRecord
  2
1
 70
     0
 62
     7
  6
CONTINUOUS
370
    -3
390
8FA
  0
LAYER
  5
19B
102
{ACAD_XDICTIONARY
360
A29
102
}
330
175
100
AcDbSymbolTableRecord
100
AcDbLayerTableRecord
  2
-1
 70
     0
 62
     7
  6
CONTINUOUS
370
    -3
390
8FA
  0
LAYER
  5
894
102
{ACAD_XDICTIONARY
360
A2B
102
}
330
175
100
AcDbSymbolTableRecord
100
AcDbLayerTableRecord
  2
COMPONENT
 70
     0
 62
     7
  6
CONTINUOUS
370
    -3
390
8FA
  0
LAYER
  5
AD9
102
{ACAD_XDICTIONARY
360
ADA
102
}
330
175
100
AcDbSymbolTableRecord
100
AcDbLayerTableRecord
  2
2
 70
     0
 62
     7
  6
CONTINUOUS
370
    -3
390
8FA
  0
LAYER
  5
ADC
102
{ACAD_XDICTIONARY
360
ADD
102
}
330
175
100
AcDbSymbolTableRecord
100
AcDbLayerTableRecord
  2
3
 70
     0
 62
     7
  6
CONTINUOUS
370
    -3
390
8FA
  0
LAYER
  5
ADF
102
{ACAD_XDICTIONARY
360
AE0
102
}
330
175
100
AcDbSymbolTableRecord
100
AcDbLayerTableRecord
  2
FLAN1$0$1
 70
     0
 62
     7
  6
CONTINUOUS
370
    -3
390
8FA
  0
ENDTAB
  0
TABLE
  2
STYLE
  5
176
330
0
100
AcDbSymbolTable
 70
     1
  0
STYLE
  5
182
330
176
100
AcDbSymbolTableRecord
100
AcDbTextStyleTableRecord
  2
STANDARD
 70
     0
 40
0.0
 41
1.0
 50
0.0
 71
     0
 42
0.2
  3
txt
  4

  0
ENDTAB
  0
TABLE
  2
VIEW
  5
179
330
0
100
AcDbSymbolTable
 70
     0
  0
ENDTAB
  0
TABLE
  2
UCS
  5
17A
330
0
100
AcDbSymbolTable
 70
     0
  0
ENDTAB
  0
TABLE
  2
APPID
  5
17C
330
0
100
AcDbSymbolTable
 70
     3
  0
APPID
  5
183
330
17C
100
AcDbSymbolTableRecord
100
AcDbRegAppTableRecord
  2
ACAD
 70
     0
  0
APPID
  5
9B9
330
17C
100
AcDbSymbolTableRecord
100
AcDbRegAppTableRecord
  2
ACAD_EXEMPT_FROM_CAD_STANDARDS
 70
     0
  0
APPID
  5
AD4
330
17C
100
AcDbSymbolTableRecord
100
AcDbRegAppTableRecord
  2
ACAD_MLEADERVER
 70
     0
  0
ENDTAB
  0
TABLE
  2
DIMSTYLE
  5
17D
330
0
100
AcDbSymbolTable
 70
     1
100
AcDbDimStyleTable
 71
     1
340
19E
  0
DIMSTYLE
105
19E
330
17D
100
AcDbSymbolTableRecord
100
AcDbDimStyleTableRecord
  2
STANDARD
 70
     0
340
182
  0
ENDTAB
  0
TABLE
  2
BLOCK_RECORD
  5
174
330
0
100
AcDbSymbolTable
 70
     0
  0
BLOCK_RECORD
  5
18B
102
{ACAD_XDICTIONARY
360
8EE
102
}
330
174
100
AcDbSymbolTableRecord
100
AcDbBlockTableRecord
  2
*MODEL_SPACE
340
935
  0
BLOCK_RECORD
  5
188
102
{ACAD_XDICTIONARY
360
8EC
102
}
330
174
100
AcDbSymbolTableRecord
100
AcDbBlockTableRecord
  2
*PAPER_SPACE
340
936
  0
ENDTAB
  0
ENDSEC
  0
SECTION
  2
BLOCKS
  0
BLOCK
  5
18C
330
18B
100
AcDbEntity
  8
0
100
AcDbBlockBegin
  2
*MODEL_SPACE
 70
     0
 10
0.0
 20
0.0
 30
0.0
  3
*MODEL_SPACE
  1

  0
ENDBLK
  5
18D
330
18B
100
AcDbEntity
  8
0
100
AcDbBlockEnd
  0
BLOCK
  5
189
330
188
100
AcDbEntity
 67
     1
  8
0
100
AcDbBlockBegin
  2
*PAPER_SPACE
 70
     0
 10
0.0
 20
0.0
 30
0.0
  3
*PAPER_SPACE
  1

  0
ENDBLK
  5
18A
330
188
100
AcDbEntity
 67
     1
  8
0
100
AcDbBlockEnd
  0
ENDSEC
  0
SECTION
  2
ENTITIES
  0
LINE
  5
79C
330
18B
100
AcDbEntity
  8
1
  6
Continuous
 62
     4
100
AcDbLine
 10
1157.219486058648
 20
596.5618461393868
 30
0.0
 11
1151.409369796704
 21
596.5618461393868
 31
0.0
  0
LINE
  5
944
330
18B
100
AcDbEntity
  8
1
  6
Continuous
 62
     4
100
AcDbLine
 10
857.5388748101287
 20
596.5618461393868
 30
0.0
 11
705.7783480193746
 21
596.5618461393868
 31
0.0
  0
LINE
  5
945
330
18B
100
AcDbEntity
  8
1
  6
Continuous
 62
     4
100
AcDbLine
 10
875.414720186432
 20
596.5618461393868
 30
0.0
 11
864.029090019814
 21
596.5618461393868
 31
0.0
  0
LINE
  5
946
330
18B
100
AcDbEntity
  8
1
  6
Continuous
 62
     4
100
AcDbLine
 10
920.9131856468601
 20
659.9361569761185
 30
0.0
 11
920.9131856468601
 21
813.7645458441545
 31
0.0
  0
LINE
  5
947
330
18B
100
AcDbEntity
  8
1
  6
Continuous
 62
     4
100
AcDbLine
 10
920.9131856468601
 20
642.0603115998151
 30
0.0
 11
920.9131856468601
 21
653.4459417664331
 31
0.0
  0
LINE
  5
948
330
18B
100
AcDbEntity
  8
1
  6
Continuous
 62
     4
100
AcDbLine
 10
961.0308395211646
 20
596.5618461393868
 30
0.0
 11
880.7955317725561
 21
596.5618461393868
 31
0.0
  0
LINE
  5
949
330
18B
100
AcDbEntity
  8
1
  6
Continuous
 62
     4
100
AcDbLine
 10
977.7972812739065
 20
596.5618461393868
 30
0.0
 11
966.4116511072888
 21
596.5618461393868
 31
0.0
  0
LINE
  5
94A
330
18B
100
AcDbEntity
  8
1
  6
Continuous
 62
     4
100
AcDbLine
 10
920.9131856468601
 20
556.4441922650823
 30
0.0
 11
920.9131856468601
 21
636.6795000136911
 31
0.0
  0
LINE
  5
94B
330
18B
100
AcDbEntity
  8
1
  6
Continuous
 62
     4
100
AcDbLine
 10
920.9131856468601
 20
539.6777505123403
 30
0.0
 11
920.9131856468601
 21
551.0633806789585
 31
0.0
  0
LINE
  5
94E
330
18B
100
AcDbEntity
  8
1
  6
Continuous
 62
     4
100
AcDbLine
 10
700.3438218696937
 20
596.5618461393868
 30
0.0
 11
691.9553990199451
 21
596.5618461393868
 31
0.0
  0
LINE
  5
94F
330
18B
100
AcDbEntity
  8
1
  6
Continuous
 62
     4
100
AcDbLine
 10
1145.371010920615
 20
596.5618461393868
 30
0.0
 11
984.2874964835916
 21
596.5618461393868
 31
0.0
  0
LINE
  5
950
330
18B
100
AcDbEntity
  8
1
  6
Continuous
 62
     4
100
AcDbLine
 10
920.9131856468601
 20
383.1001711010665
 30
0.0
 11
920.9131856468601
 21
533.1875353026552
 31
0.0
  0
LINE
  5
951
330
18B
100
AcDbEntity
  8
1
  6
Continuous
 62
     4
100
AcDbLine
 10
920.9131856468601
 20
817.9886381356103
 30
0.0
 11
920.9131856468601
 21
823.8984839953056
 31
0.0
  0
LINE
  5
9C2
330
18B
100
AcDbEntity
  8
1
  6
Continuous
 62
     4
100
AcDbLine
 10
761.6016188923969
 20
709.8669898924622
 30
0.0
 11
807.6080418937847
 21
755.8734128938497
 31
0.0
1001
ACAD
1010
0.0
1020
0.0
1030
0.0
  0
LINE
  5
9C3
330
18B
100
AcDbEntity
  8
1
  6
Continuous
 62
     4
100
AcDbLine
 10
745.7856746756554
 20
683.4444439579224
 30
0.0
 11
834.0305878283245
 21
771.6893571105917
 31
0.0
1001
ACAD
1010
0.0
1020
0.0
1030
0.0
  0
LINE
  5
9C4
330
18B
100
AcDbEntity
  8
1
  6
Continuous
 62
     4
100
AcDbLine
 10
737.6946118813648
 20
664.7467794458338
 30
0.0
 11
852.7282523404137
 21
779.7804199048822
 31
0.0
1001
ACAD
1010
0.0
1020
0.0
1030
0.0
  0
LINE
  5
9C5
330
18B
100
AcDbEntity
  8
1
  6
Continuous
 62
     4
100
AcDbLine
 10
732.5932485609484
 20
649.0388144076189
 30
0.0
 11
783.12762126224
 21
699.5731871089104
 31
0.0
1001
ACAD
1010
0.0
1020
0.0
1030
0.0
  0
LINE
  5
9C6
330
18B
100
AcDbEntity
  8
1
  6
Continuous
 62
     4
100
AcDbLine
 10
817.9018446773365
 20
734.3474105240071
 30
0.0
 11
868.4362173786286
 21
784.8817832252986
 31
0.0
1001
ACAD
1010
0.0
1020
0.0
1030
0.0
  0
LINE
  5
9C7
330
18B
100
AcDbEntity
  8
1
  6
Continuous
 62
     4
100
AcDbLine
 10
729.2528884994636
 20
635.0918526283359
 30
0.0
 11
766.4326927927685
 21
672.2716569216406
 31
0.0
1001
ACAD
1010
0.0
1020
0.0
1030
0.0
  0
LINE
  5
9C8
330
18B
100
AcDbEntity
  8
1
  6
Continuous
 62
     4
100
AcDbLine
 10
845.2033748646064
 20
751.0423389934787
 30
0.0
 11
882.3831791579117
 21
788.2221432867837
 31
0.0
1001
ACAD
1010
0.0
1020
0.0
1030
0.0
  0
LINE
  5
9C9
330
18B
100
AcDbEntity
  8
1
  6
Continuous
 62
     4
100
AcDbLine
 10
727.1280914220112
 20
622.3604538330855
 30
0.0
 11
758.7395771426116
 21
653.9719395536858
 31
0.0
1001
ACAD
1010
0.0
1020
0.0
1030
0.0
  0
LINE
  5
9CA
330
18B
100
AcDbEntity
  8
1
  6
Continuous
 62
     4
100
AcDbLine
 10
863.5030922325611
 20
758.7354546436353
 30
0.0
 11
895.1145779531614
 21
790.3469403642355
 31
0.0
1001
ACAD
1010
0.0
1020
0.0
1030
0.0
  0
LINE
  5
9CB
330
18B
100
AcDbEntity
  8
1
  6
Continuous
 62
     4
100
AcDbLine
 10
725.9190647275854
 20
610.5448254208613
 30
0.0
 11
754.1330473624826
 21
638.7588080557584
 31
0.0
1001
ACAD
1010
0.0
1020
0.0
1030
0.0
  0
LINE
  5
9CC
330
18B
100
AcDbEntity
  8
1
  6
Continuous
 62
     4
100
AcDbLine
 10
878.7162237304881
 20
763.3419844237643
 30
0.0
 11
906.9302063653855
 21
791.5559670586613
 31
0.0
1001
ACAD
1010
0.0
1020
0.0
1030
0.0
  0
LINE
  5
9CD
330
18B
100
AcDbEntity
  8
1
  6
Continuous
 62
     4
100
AcDbLine
 10
725.4398178016867
 20
599.4589767771643
 30
0.0
 11
751.2979329021171
 21
625.3170918775944
 31
0.0
1001
ACAD
1010
0.0
1020
0.0
1030
0.0
  0
LINE
  5
9CE
330
18B
100
AcDbEntity
  8
1
  6
Continuous
 62
     4
100
AcDbLine
 10
892.1579399086521
 20
766.1770988841298
 30
0.0
 11
918.0160550090828
 21
792.0352139845602
 31
0.0
1001
ACAD
1010
0.0
1020
0.0
1030
0.0
  0
LINE
  5
9CF
330
18B
100
AcDbEntity
  8
1
  6
Continuous
 62
     4
100
AcDbLine
 10
725.5655030520649
 20
588.9780603097444
 30
0.0
 11
749.6731166275001
 21
613.0856738851797
 31
0.0
1001
ACAD
1010
0.0
1020
0.0
1030
0.0
  0
LINE
  5
9D0
330
18B
100
AcDbEntity
  8
1
  6
Continuous
 62
     4
100
AcDbLine
 10
904.3893579010674
 20
767.8019151587467
 30
0.0
 11
928.4969714765031
 21
791.9095287341822
 31
0.0
1001
ACAD
1010
0.0
1020
0.0
1030
0.0
  0
LINE
  5
9D1
330
18B
100
AcDbEntity
  8
1
  6
Continuous
 62
     4
100
AcDbLine
 10
726.2075450714171
 20
579.0135006112985
 30
0.0
 11
748.9563499476171
 21
601.7623054874983
 31
0.0
1001
ACAD
1010
0.0
1020
0.0
1030
0.0
  0
LINE
  5
9D2
330
18B
100
AcDbEntity
  8
1
  6
Continuous
 62
     4
100
AcDbLine
 10
915.7127262987486
 20
768.5186818386299
 30
0.0
 11
938.4615311749486
 21
791.2674867148299
 31
0.0
1001
ACAD
1010
0.0
1020
0.0
1030
0.0
  0
LINE
  5
9D3
330
18B
100
AcDbEntity
  8
1
  6
Continuous
 62
     4
100
AcDbLine
 10
727.3004831627838
 20
569.4998369848669
 30
0.0
 11
748.9625002546492
 21
591.1618540767318
 31
0.0
1001
ACAD
1010
0.0
1020
0.0
1030
0.0
  0
LINE
  5
9D4
330
18B
100
AcDbEntity
  8
1
  6
Continuous
 62
     4
100
AcDbLine
 10
926.3131777095146
 20
768.5125315315977
 30
0.0
 11
947.9751948013802
 21
790.1745486234633
 31
0.0
1001
ACAD
1010
0.0
1020
0.0
1030
0.0
  0
LINE
  5
9D5
330
18B
100
AcDbEntity
  8
1
  6
Continuous
 62
     4
100
AcDbLine
 10
728.7944117924761
 20
560.3871638967611
 30
0.0
 11
749.5684504001716
 21
581.1612025044563
 31
0.0
1001
ACAD
1010
0.0
1020
0.0
1030
0.0
  0
LINE
  5
9D6
330
18B
100
AcDbEntity
  8
1
  6
Continuous
 62
     4
100
AcDbLine
 10
936.3138292817902
 20
767.9065813860749
 30
0.0
 11
957.087867889486
 21
788.6806199937709
 31
0.0
1001
ACAD
1010
0.0
1020
0.0
1030
0.0
  0
LINE
  5
9D7
330
18B
100
AcDbEntity
  8
1
  6
Continuous
 62
     4
100
AcDbLine
 10
730.6503551378751
 20
551.6365055243618
 30
0.0
 11
750.6875210662903
 21
571.6736714527768
 31
0.0
1001
ACAD
1010
0.0
1020
0.0
1030
0.0
  0
LINE
  5
9D8
330
18B
100
AcDbEntity
  8
1
  6
Continuous
 62
     4
100
AcDbLine
 10
945.8013603334698
 20
766.7875107199566
 30
0.0
 11
965.8385262618855
 21
786.8246766483721
 31
0.0
1001
ACAD
1010
0.0
1020
0.0
1030
0.0
  0
LINE
  5
9D9
330
18B
100
AcDbEntity
  8
1
  6
Continuous
 62
     4
100
AcDbLine
 10
732.8372929880401
 20
543.2168416567286
 30
0.0
 11
752.2561031902565
 21
562.6356518589448
 31
0.0
1001
ACAD
1010
0.0
1020
0.0
1030
0.0
  0
LINE
  5
9DA
330
18B
100
AcDbEntity
  8
1
  6
Continuous
 62
     4
100
AcDbLine
 10
954.8393799273016
 20
765.2189285959904
 30
0.0
 11
974.2581901295183
 21
784.6377387982069
 31
0.0
1001
ACAD
1010
0.0
1020
0.0
1030
0.0
  0
LINE
  5
9DB
330
18B
100
AcDbEntity
  8
1
  6
Continuous
 62
     4
100
AcDbLine
 10
735.3301703792496
 20
535.1031173301397
 30
0.0
 11
754.2260480885771
 21
553.9989950394673
 31
0.0
1001
ACAD
1010
0.0
1020
0.0
1030
0.0
  0
LINE
  5
9DC
330
18B
100
AcDbEntity
  8
1
  6
Continuous
 62
     4
100
AcDbLine
 10
963.4760367467794
 20
763.2489836976695
 30
0.0
 11
982.3719144561072
 21
782.1448614069976
 31
0.0
1001
ACAD
1010
0.0
1020
0.0
1030
0.0
  0
LINE
  5
9DD
330
18B
100
AcDbEntity
  8
1
  6
Continuous
 62
     4
100
AcDbLine
 10
738.1085211954041
 20
527.2748664284962
 30
0.0
 11
756.5600456890689
 21
545.7263909221608
 31
0.0
1001
ACAD
1010
0.0
1020
0.0
1030
0.0
  0
LINE
  5
9DE
330
18B
100
AcDbEntity
  8
1
  6
Continuous
 62
     4
100
AcDbLine
 10
971.748640864086
 20
760.9149860971777
 30
0.0
 11
990.200165357751
 21
779.3665105908428
 31
0.0
1001
ACAD
1010
0.0
1020
0.0
1030
0.0
  0
LINE
  5
9DF
330
18B
100
AcDbEntity
  8
1
  6
Continuous
 62
     4
100
AcDbLine
 10
741.1554902209624
 20
519.715233736256
 30
0.0
 11
759.2286719533218
 21
537.7884154686158
 31
0.0
1001
ACAD
1010
0.0
1020
0.0
1030
0.0
  0
LINE
  5
9E0
330
18B
100
AcDbEntity
  8
1
  6
Continuous
 62
     4
100
AcDbLine
 10
979.6866163176309
 20
758.2463598329249
 30
0.0
 11
997.7597980499908
 21
776.3195415652847
 31
0.0
1001
ACAD
1010
0.0
1020
0.0
1030
0.0
  0
LINE
  5
9E1
330
18B
100
AcDbEntity
  8
1
  6
Continuous
 62
     4
100
AcDbLine
 10
744.4571225865559
 20
512.4102643840518
 30
0.0
 11
762.2084250611501
 21
530.1615668586459
 31
0.0
1001
ACAD
1010
0.0
1020
0.0
1030
0.0
  0
LINE
  5
9E2
330
18B
100
AcDbEntity
  8
1
  6
Continuous
 62
     4
100
AcDbLine
 10
987.3134649276011
 20
755.2666067250965
 30
0.0
 11
1005.064767402195
 21
773.017909199691
 31
0.0
1001
ACAD
1010
0.0
1020
0.0
1030
0.0
  0
LINE
  5
9E3
330
18B
100
AcDbEntity
  8
1
  6
Continuous
 62
     4
100
AcDbLine
 10
748.0018379959537
 20
505.348378075651
 30
0.0
 11
765.4803762279909
 21
522.8269163076885
 31
0.0
1001
ACAD
1010
0.0
1020
0.0
1030
0.0
  0
LINE
  5
9E4
330
18B
100
AcDbEntity
  8
1
  6
Continuous
 62
     4
100
AcDbLine
 10
994.6481154785582
 20
751.9946555582556
 30
0.0
 11
1012.126653710596
 21
769.4731937902935
 31
0.0
1001
ACAD
1010
0.0
1020
0.0
1030
0.0
  0
LINE
  5
9E5
330
18B
100
AcDbEntity
  8
1
  6
Continuous
 62
     4
100
AcDbLine
 10
751.7800360532118
 20
498.5199744151108
 30
0.0
 11
769.029218491037
 21
515.7691568529363
 31
0.0
1001
ACAD
1010
0.0
1020
0.0
1030
0.0
  0
LINE
  5
9E6
330
18B
100
AcDbEntity
  8
1
  6
Continuous
 62
     4
100
AcDbLine
 10
1001.70587493331
 20
748.4458132952093
 30
0.0
 11
1018.955057371136
 21
765.6949957330351
 31
0.0
1001
ACAD
1010
0.0
1020
0.0
1030
0.0
  0
LINE
  5
9E7
330
18B
100
AcDbEntity
  8
1
  6
Continuous
 62
     4
100
AcDbLine
 10
755.783796898878
 20
491.9171335429792
 30
0.0
 11
772.842582505878
 21
508.9759191499793
 31
0.0
1001
ACAD
1010
0.0
1020
0.0
1030
0.0
  0
LINE
  5
9E8
330
18B
100
AcDbEntity
  8
1
  6
Continuous
 62
     4
100
AcDbLine
 10
1008.499112636267
 20
744.6324492803685
 30
0.0
 11
1025.557898243267
 21
761.6912348873689
 31
0.0
1001
ACAD
1010
0.0
1020
0.0
1030
0.0
  0
LINE
  5
9E9
330
18B
100
AcDbEntity
  8
1
  6
Continuous
 62
     4
100
AcDbLine
 10
760.006652777415
 20
485.5333877037179
 30
0.0
 11
776.9105373506055
 21
502.4372722769084
 31
0.0
1001
ACAD
1010
0.0
1020
0.0
1030
0.0
  0
LINE
  5
9EA
330
18B
100
AcDbEntity
  8
1
  6
Continuous
 62
     4
100
AcDbLine
 10
1015.037759509338
 20
740.5644944356411
 30
0.0
 11
1031.941644082529
 21
757.4683790088319
 31
0.0
1001
ACAD
1010
0.0
1020
0.0
1030
0.0
  0
LINE
  5
9EB
330
18B
100
AcDbEntity
  8
1
  6
Continuous
 62
     4
100
AcDbLine
 10
764.4434136507562
 20
479.3635468592603
 30
0.0
 11
781.2252234942466
 21
496.1453567027509
 31
0.0
1001
ACAD
1010
0.0
1020
0.0
1030
0.0
  0
LINE
  5
9EC
330
18B
100
AcDbEntity
  8
1
  6
Continuous
 62
     4
100
AcDbLine
 10
1021.329675083495
 20
736.2498082920001
 30
0.0
 11
1038.111484926986
 21
753.0316181354909
 31
0.0
1001
ACAD
1010
0.0
1020
0.0
1030
0.0
  0
LINE
  5
9ED
330
18B
100
AcDbEntity
  8
1
  6
Continuous
 62
     4
100
AcDbLine
 10
769.0900350285383
 20
473.4035665192445
 30
0.0
 11
785.780583122934
 21
490.0941146136402
 31
0.0
1001
ACAD
1010
0.0
1020
0.0
1030
0.0
  0
LINE
  5
9EE
330
18B
100
AcDbEntity
  8
1
  6
Continuous
 62
     4
100
AcDbLine
 10
1027.380917172606
 20
731.6944486633131
 30
0.0
 11
1044.071465267002
 21
748.3849967577087
 31
0.0
1001
ACAD
1010
0.0
1020
0.0
1030
0.0
  0
LINE
  5
9EF
330
18B
100
AcDbEntity
  8
1
  6
Continuous
 62
     4
100
AcDbLine
 10
773.9435196934159
 20
467.6504494663239
 30
0.0
 11
790.5721645807577
 21
484.2790943536658
 31
0.0
1001
ACAD
1010
0.0
1020
0.0
1030
0.0
  0
LINE
  5
9F0
330
18B
100
AcDbEntity
  8
1
  6
Continuous
 62
     4
100
AcDbLine
 10
1033.19593743258
 20
726.9028672054887
 30
0.0
 11
1049.824582319923
 21
743.5315120928311
 31
0.0
1001
ACAD
1010
0.0
1020
0.0
1030
0.0
  0
LINE
  5
9F1
330
18B
100
AcDbEntity
  8
1
  6
Continuous
 62
     4
100
AcDbLine
 10
779.0018475101276
 20
462.1021755652375
 30
0.0
 11
795.5969853754631
 21
478.6973134305729
 31
0.0
1001
ACAD
1010
0.0
1020
0.0
1030
0.0
  0
LINE
  5
9F2
330
18B
100
AcDbEntity
  8
1
  6
Continuous
 62
     4
100
AcDbLine
 10
1038.777718355674
 20
721.8780464107839
 30
0.0
 11
1055.372856221009
 21
738.4731842761194
 31
0.0
1001
ACAD
1010
0.0
1020
0.0
1030
0.0
  0
LINE
  5
9F3
330
18B
100
AcDbEntity
  8
1
  6
Continuous
 62
     4
100
AcDbLine
 10
784.2639293713022
 20
456.7576557086137
 30
0.0
 11
800.853443540012
 21
473.3471698773236
 31
0.0
1001
ACAD
1010
0.0
1020
0.0
1030
0.0
  0
LINE
  5
9F4
330
18B
100
AcDbEntity
  8
1
  6
Continuous
 62
     4
100
AcDbLine
 10
1044.127861908923
 20
716.6215882462347
 30
0.0
 11
1060.717376077633
 21
733.2111024149447
 31
0.0
1001
ACAD
1010
0.0
1020
0.0
1030
0.0
  0
LINE
  5
9F5
330
18B
100
AcDbEntity
  8
1
  6
Continuous
 62
     4
100
AcDbLine
 10
789.7295827850416
 20
451.6167074045553
 30
0.0
 11
806.3412710556928
 21
468.2283956752065
 31
0.0
1001
ACAD
1010
0.0
1020
0.0
1030
0.0
  0
LINE
  5
9F6
330
18B
100
AcDbEntity
  8
1
  6
Continuous
 62
     4
100
AcDbLine
 10
1049.24663611104
 20
711.1337607305538
 30
0.0
 11
1065.858324381692
 21
727.7454490012051
 31
0.0
1001
ACAD
1010
0.0
1020
0.0
1030
0.0
  0
LINE
  5
9F7
330
18B
100
AcDbEntity
  8
1
  6
Continuous
 62
     4
100
AcDbLine
 10
795.3995278128031
 20
446.6800507145185
 30
0.0
 11
812.0615261297016
 21
463.3420490314172
 31
0.0
1001
ACAD
1010
0.0
1020
0.0
1030
0.0
  0
LINE
  5
9F8
330
18B
100
AcDbEntity
  8
1
  6
Continuous
 62
     4
100
AcDbLine
 10
1054.132982754829
 20
705.4135056565451
 30
0.0
 11
1070.794981071728
 21
722.0755039734436
 31
0.0
1001
ACAD
1010
0.0
1020
0.0
1030
0.0
  0
LINE
  5
9F9
330
18B
100
AcDbEntity
  8
1
  6
Continuous
 62
     4
100
AcDbLine
 10
801.2754031447967
 20
441.9493243287138
 30
0.0
 11
818.0166238022406
 21
458.6905449861577
 31
0.0
1001
ACAD
1010
0.0
1020
0.0
1030
0.0
  0
LINE
  5
9FA
330
18B
100
AcDbEntity
  8
1
  6
Continuous
 62
     4
100
AcDbLine
 10
1058.784486800089
 20
699.4584079840058
 30
0.0
 11
1075.525707457533
 21
716.1996286414504
 31
0.0
1001
ACAD
1010
0.0
1020
0.0
1030
0.0
  0
LINE
  5
9FB
330
18B
100
AcDbEntity
  8
1
  6
Continuous
 62
     4
100
AcDbLine
 10
807.3598031585047
 20
437.4271226246236
 30
0.0
 11
824.2104069750874
 21
454.2777264412062
 31
0.0
1001
ACAD
1010
0.0
1020
0.0
1030
0.0
  0
LINE
  5
9FC
330
18B
100
AcDbEntity
  8
1
  6
Continuous
 62
     4
100
AcDbLine
 10
1063.19730534504
 20
693.2646248111592
 30
0.0
 11
1080.047909161623
 21
710.1152286277423
 31
0.0
1001
ACAD
1010
0.0
1020
0.0
1030
0.0
  0
LINE
  5
9FD
330
18B
100
AcDbEntity
  8
1
  6
Continuous
 62
     4
100
AcDbLine
 10
813.656337945428
 20
433.1170556937486
 30
0.0
 11
830.6482628322251
 21
450.1089805805456
 31
0.0
1001
ACAD
1010
0.0
1020
0.0
1030
0.0
  0
LINE
  5
9FE
330
18B
100
AcDbEntity
  8
1
  6
Continuous
 62
     4
100
AcDbLine
 10
1067.3660512057
 20
686.8267689540216
 30
0.0
 11
1084.357976092498
 21
703.8186938408192
 31
0.0
1001
ACAD
1010
0.0
1020
0.0
1030
0.0
  0
LINE
  5
9FF
330
18B
100
AcDbEntity
  8
1
  6
Continuous
 62
     4
100
AcDbLine
 10
820.1697196256004
 20
429.0238356561229
 30
0.0
 11
837.3372931429868
 21
446.1914091735089
 31
0.0
1001
ACAD
1010
0.0
1020
0.0
1030
0.0
  0
LINE
  5
A00
330
18B
100
AcDbEntity
  8
1
  6
Continuous
 62
     4
100
AcDbLine
 10
1071.283622612737
 20
680.1377386432598
 30
0.0
 11
1088.451196130124
 21
697.3053121606463
 31
0.0
1001
ACAD
1010
0.0
1020
0.0
1030
0.0
  0
LINE
  5
A01
330
18B
100
AcDbEntity
  8
1
  6
Continuous
 62
     4
100
AcDbLine
 10
826.9058799433505
 20
425.1533942560747
 30
0.0
 11
844.2865516125218
 21
442.5340659252462
 31
0.0
1001
ACAD
1010
0.0
1020
0.0
1030
0.0
  0
LINE
  5
A02
330
18B
100
AcDbEntity
  8
1
  6
Continuous
 62
     4
100
AcDbLine
 10
1074.940965861
 20
673.1884801737249
 30
0.0
 11
1092.321637530172
 21
690.5691518428966
 31
0.0
1001
ACAD
1010
0.0
1020
0.0
1030
0.0
  0
LINE
  5
A03
330
18B
100
AcDbEntity
  8
1
  6
Continuous
 62
     4
100
AcDbLine
 10
833.8721263520147
 20
421.5130389469408
 30
0.0
 11
851.5073680430331
 21
439.1482806379591
 31
0.0
1001
ACAD
1010
0.0
1020
0.0
1030
0.0
  0
LINE
  5
A04
330
18B
100
AcDbEntity
  8
1
  6
Continuous
 62
     4
100
AcDbLine
 10
1078.326751148287
 20
665.9676637432137
 30
0.0
 11
1095.961992839306
 21
683.6029054342319
 31
0.0
1001
ACAD
1010
0.0
1020
0.0
1030
0.0
  0
LINE
  5
A05
330
18B
100
AcDbEntity
  8
1
  6
Continuous
 62
     4
100
AcDbLine
 10
841.0773468463258
 20
418.1116577234536
 30
0.0
 11
859.0137888274881
 21
436.048099704616
 31
0.0
1001
ACAD
1010
0.0
1020
0.0
1030
0.0
  0
LINE
  5
A06
330
18B
100
AcDbEntity
  8
1
  6
Continuous
 62
     4
100
AcDbLine
 10
1081.42693208163
 20
658.4612429587584
 30
0.0
 11
1099.363374062793
 21
676.3976849399211
 31
0.0
1001
ACAD
1010
0.0
1020
0.0
1030
0.0
  0
LINE
  5
A07
330
18B
100
AcDbEntity
  8
1
  6
Continuous
 62
     4
100
AcDbLine
 10
848.5322781459331
 20
414.9599873052627
 30
0.0
 11
866.8231782969064
 21
433.2508874562357
 31
0.0
1001
ACAD
1010
0.0
1020
0.0
1030
0.0
  0
LINE
  5
A08
330
18B
100
AcDbEntity
  8
1
  6
Continuous
 62
     4
100
AcDbLine
 10
1084.224144330011
 20
650.6518534893407
 30
0.0
 11
1102.515044480984
 21
668.9427536403139
 31
0.0
1001
ACAD
1010
0.0
1020
0.0
1030
0.0
  0
LINE
  5
A09
330
18B
100
AcDbEntity
  8
1
  6
Continuous
 62
     4
100
AcDbLine
 10
856.2498582014189
 20
412.0709656429498
 30
0.0
 11
874.95704934054
 21
430.7781567820709
 31
0.0
1001
ACAD
1010
0.0
1020
0.0
1030
0.0
  0
LINE
  5
A0A
330
18B
100
AcDbEntity
  8
1
  6
Continuous
 62
     4
100
AcDbLine
 10
1086.696875004175
 20
642.5179824457067
 30
0.0
 11
1105.404066143297
 21
661.2251735848284
 31
0.0
1001
ACAD
1010
0.0
1020
0.0
1030
0.0
  0
LINE
  5
A0B
330
18B
100
AcDbEntity
  8
1
  6
Continuous
 62
     4
100
AcDbLine
 10
864.2456935863471
 20
409.4601993100802
 30
0.0
 11
883.4422312164361
 21
428.6567369401693
 31
0.0
1001
ACAD
1010
0.0
1020
0.0
1030
0.0
  0
LINE
  5
A0C
330
18B
100
AcDbEntity
  8
1
  6
Continuous
 62
     4
100
AcDbLine
 10
1088.818294846077
 20
634.0328005698104
 30
0.0
 11
1108.014832476167
 21
653.2293381998997
 31
0.0
1001
ACAD
1010
0.0
1020
0.0
1030
0.0
  0
LINE
  5
A0D
330
18B
100
AcDbEntity
  8
1
  6
Continuous
 62
     4
100
AcDbLine
 10
872.5386871975251
 20
407.1465912034597
 30
0.0
 11
892.3125504117495
 21
426.9204544176842
 31
0.0
1001
ACAD
1010
0.0
1020
0.0
1030
0.0
  0
LINE
  5
A0E
330
18B
100
AcDbEntity
  8
1
  6
Continuous
 62
     4
100
AcDbLine
 10
1090.554577368562
 20
625.1624813744975
 30
0.0
 11
1110.328440582787
 21
644.9363445887221
 31
0.0
1001
ACAD
1010
0.0
1020
0.0
1030
0.0
  0
LINE
  5
A0F
330
18B
100
AcDbEntity
  8
1
  6
Continuous
 62
     4
100
AcDbLine
 10
881.1518954029468
 20
405.1531976910834
 30
0.0
 11
901.6113227113281
 21
425.6126249994649
 31
0.0
1001
ACAD
1010
0.0
1020
0.0
1030
0.0
  0
LINE
  5
A10
330
18B
100
AcDbEntity
  8
1
  6
Continuous
 62
     4
100
AcDbLine
 10
1091.862406786782
 20
615.8637090749183
 30
0.0
 11
1112.321834095163
 21
636.3231363833003
 31
0.0
1001
ACAD
1010
0.0
1020
0.0
1030
0.0
  0
LINE
  5
A11
330
18B
100
AcDbEntity
  8
1
  6
Continuous
 62
     4
100
AcDbLine
 10
890.1137229157752
 20
403.5084234861134
 30
0.0
 11
911.3951868007626
 21
424.7898873711007
 31
0.0
1001
ACAD
1010
0.0
1020
0.0
1030
0.0
  0
LINE
  5
A12
330
18B
100
AcDbEntity
  8
1
  6
Continuous
 62
     4
100
AcDbLine
 10
1092.685144415145
 20
606.0798449854843
 30
0.0
 11
1113.966608300133
 21
627.3613088704721
 31
0.0
1001
ACAD
1010
0.0
1020
0.0
1030
0.0
  0
LINE
  5
A13
330
18B
100
AcDbEntity
  8
1
  6
Continuous
 62
     4
100
AcDbLine
 10
899.4596307512537
 20
402.2477296037934
 30
0.0
 11
921.740279505496
 21
424.5283783580362
 31
0.0
1001
ACAD
1010
0.0
1020
0.0
1030
0.0
  0
LINE
  5
A14
330
18B
100
AcDbEntity
  8
1
  6
Continuous
 62
     4
100
AcDbLine
 10
1092.94665342821
 20
595.7347522807508
 30
0.0
 11
1115.227302182453
 21
618.0154010349938
 31
0.0
1001
ACAD
1010
0.0
1020
0.0
1030
0.0
  0
LINE
  5
A15
330
18B
100
AcDbEntity
  8
1
  6
Continuous
 62
     4
100
AcDbLine
 10
909.2346527371056
 20
401.4161498718475
 30
0.0
 11
932.7527809880686
 21
424.9342781228107
 31
0.0
1001
ACAD
1010
0.0
1020
0.0
1030
0.0
  0
LINE
  5
A16
330
18B
100
AcDbEntity
  8
1
  6
Continuous
 62
     4
100
AcDbLine
 10
1092.540753663436
 20
584.7222507981782
 30
0.0
 11
1116.058881914399
 21
608.2403790491415
 31
0.0
1001
ACAD
1010
0.0
1020
0.0
1030
0.0
  0
LINE
  5
A17
330
18B
100
AcDbEntity
  8
1
  6
Continuous
 62
     4
100
AcDbLine
 10
919.4972425335798
 20
401.0721379505238
 30
0.0
 11
944.5883445959101
 21
426.1632400128541
 31
0.0
1001
ACAD
1010
0.0
1020
0.0
1030
0.0
  0
LINE
  5
A18
330
18B
100
AcDbEntity
  8
1
  6
Continuous
 62
     4
100
AcDbLine
 10
1091.311791773392
 20
572.8866871903367
 30
0.0
 11
1116.402893835723
 21
597.9777892526673
 31
0.0
1001
ACAD
1010
0.0
1020
0.0
1030
0.0
  0
LINE
  5
A19
330
18B
100
AcDbEntity
  8
1
  6
Continuous
 62
     4
100
AcDbLine
 10
930.3254275315104
 20
401.2937212306558
 30
0.0
 11
957.4917850990031
 21
428.4600787981486
 31
0.0
1001
ACAD
1010
0.0
1020
0.0
1030
0.0
  0
LINE
  5
A1A
330
18B
100
AcDbEntity
  8
1
  6
Continuous
 62
     4
100
AcDbLine
 10
1089.014952988098
 20
559.9832466872437
 30
0.0
 11
1116.181310555591
 21
587.1496042547367
 31
0.0
1001
ACAD
1010
0.0
1020
0.0
1030
0.0
  0
LINE
  5
A1B
330
18B
100
AcDbEntity
  8
1
  6
Continuous
 62
     4
100
AcDbLine
 10
941.8272299835265
 20
402.1889219648739
 30
0.0
 11
971.8911657762122
 21
432.2528577575596
 31
0.0
1001
ACAD
1010
0.0
1020
0.0
1030
0.0
  0
LINE
  5
A1C
330
18B
100
AcDbEntity
  8
1
  6
Continuous
 62
     4
100
AcDbLine
 10
1085.222174028687
 20
545.5838660100348
 30
0.0
 11
1115.286109821372
 21
575.6478018027202
 31
0.0
1001
ACAD
1010
0.0
1020
0.0
1030
0.0
  0
LINE
  5
A1D
330
18B
100
AcDbEntity
  8
1
  6
Continuous
 62
     4
100
AcDbLine
 10
954.1596622071471
 20
403.9147524706963
 30
0.0
 11
988.6811837826623
 21
438.4362740462115
 31
0.0
1001
ACAD
1010
0.0
1020
0.0
1030
0.0
  0
LINE
  5
A1E
330
18B
100
AcDbEntity
  8
1
  6
Continuous
 62
     4
100
AcDbLine
 10
1079.038757740035
 20
528.7938480035843
 30
0.0
 11
1113.56027931555
 21
563.3153695790999
 31
0.0
1001
ACAD
1010
0.0
1020
0.0
1030
0.0
  0
LINE
  5
A1F
330
18B
100
AcDbEntity
  8
1
  6
Continuous
 62
     4
100
AcDbLine
 10
967.5669545458351
 20
406.7154430915862
 30
0.0
 11
1010.614782556018
 21
449.76327110177
 31
0.0
1001
ACAD
1010
0.0
1020
0.0
1030
0.0
  0
LINE
  5
A20
330
18B
100
AcDbEntity
  8
1
  6
Continuous
 62
     4
100
AcDbLine
 10
1067.711760684477
 20
506.860249230228
 30
0.0
 11
1110.75958869466
 21
549.9080772404117
 31
0.0
1001
ACAD
1010
0.0
1020
0.0
1030
0.0
  0
LINE
  5
A21
330
18B
100
AcDbEntity
  8
1
  6
Continuous
 62
     4
100
AcDbLine
 10
982.4691850051193
 20
411.0110718330722
 30
0.0
 11
1106.463959953174
 21
535.0058467811273
 31
0.0
1001
ACAD
1010
0.0
1020
0.0
1030
0.0
  0
LINE
  5
A22
330
18B
100
AcDbEntity
  8
1
  6
Continuous
 62
     4
100
AcDbLine
 10
999.7192041258404
 20
417.6544892359952
 30
0.0
 11
1099.820542550251
 21
517.7558276604059
 31
0.0
1001
ACAD
1010
0.0
1020
0.0
1030
0.0
  0
LINE
  5
A23
330
18B
100
AcDbEntity
  8
1
  6
Continuous
 62
     4
100
AcDbLine
 10
1021.753316400512
 20
429.0819997928692
 30
0.0
 11
1088.393031993377
 21
495.7217153857341
 31
0.0
1001
ACAD
1010
0.0
1020
0.0
1030
0.0
  0
LINE
  5
A68
330
18B
100
AcDbEntity
  8
-1
  6
Continuous
 62
     3
100
AcDbLine
 10
966.8841802392256
 20
401.0670101393871
 30
0.0
 11
1224.70220664686
 21
401.0670101393871
 31
0.0
  0
LINE
  5
A69
330
18B
100
AcDbEntity
  8
-1
  6
Continuous
 62
     3
100
AcDbLine
 10
1167.793669495756
 20
596.5618461393868
 30
0.0
 11
1224.70220664686
 21
596.5618461393868
 31
0.0
  0
LINE
  5
A6A
330
18B
100
AcDbEntity
  8
1
  6
Continuous
 62
     3
100
AcDbLine
 10
1209.70220664686
 20
424.7795101393871
 30
0.0
 11
1209.70220664686
 21
472.8490791109646
 31
0.0
  0
LINE
  5
A6B
330
18B
100
AcDbEntity
  8
1
  6
Continuous
 62
     3
100
AcDbLine
 10
725.4183496468604
 20
643.1979911625809
 30
0.0
 11
725.4183496468604
 21
775.2889951803298
 31
0.0
  0
LINE
  5
A6C
330
18B
100
AcDbEntity
  8
1
  6
Continuous
 62
     3
100
AcDbLine
 10
1116.40802264686
 20
645.311447365749
 30
0.0
 11
1116.40802264686
 21
905.067003139387
 31
0.0
  0
LINE
  5
A6D
330
18B
100
AcDbEntity
  8
-1
  6
Continuous
 62
     3
100
AcDbLine
 10
749.1308496468605
 20
890.067003139387
 30
0.0
 11
1092.69552264686
 21
890.067003139387
 31
0.0
  0
LINE
  5
A6E
330
18B
100
AcDbEntity
  8
1
  6
Continuous
 62
     3
100
AcDbLine
 10
748.8777306468605
 20
297.404795139387
 30
0.0
 11
748.8777306468605
 21
556.5462926195265
 31
0.0
  0
LINE
  5
A6F
330
18B
100
AcDbEntity
  8
1
  6
Continuous
 62
     3
100
AcDbLine
 10
1092.94864164686
 20
297.404795139387
 30
0.0
 11
1092.94864164686
 21
559.7164778887502
 31
0.0
  0
LINE
  5
A70
330
18B
100
AcDbEntity
  8
-1
  6
Continuous
 62
     3
100
AcDbLine
 10
772.5902306468603
 20
312.4047951393869
 30
0.0
 11
1069.23614164686
 21
312.4047951393869
 31
0.0
  0
LINE
  5
A71
330
18B
100
AcDbEntity
  8
-1
  6
Continuous
 62
     3
100
AcDbLine
 10
832.8814196468604
 20
684.593613139387
 30
0.0
 11
816.0330186468604
 21
701.4420141393871
 31
0.0
  0
LINE
  5
A72
330
18B
100
AcDbEntity
  8
-1
  6
Continuous
 62
     3
100
AcDbLine
 10
765.9101926468601
 20
751.5648401393869
 30
0.0
 11
666.36620167139
 21
851.1088311148574
 31
0.0
  0
LINE
  5
A73
330
18B
100
AcDbEntity
  8
1
  6
Continuous
 62
     3
100
AcDbLine
 10
761.2742236468601
 20
746.9288711393868
 30
0.0
 11
770.5461606468601
 21
756.2008091393871
 31
0.0
  0
LINE
  5
A74
330
18B
100
AcDbEntity
  8
1
  6
Continuous
 62
     3
100
AcDbLine
 10
761.2742236468601
 20
746.9288711393868
 30
0.0
 11
770.5461606468601
 21
756.2008091393871
 31
0.0
  0
LINE
  5
A75
330
18B
100
AcDbEntity
  8
1
  6
Continuous
 62
     3
100
AcDbLine
 10
782.6774616468601
 20
734.7975711393868
 30
0.0
 11
770.5461606468601
 21
756.2008091393871
 31
0.0
  0
LINE
  5
A76
330
18B
100
AcDbEntity
  8
1
  6
Continuous
 62
     3
100
AcDbLine
 10
782.6774616468601
 20
734.7975711393868
 30
0.0
 11
761.2742236468601
 21
746.9288711393868
 31
0.0
  0
LINE
  5
A77
330
18B
100
AcDbEntity
  8
1
  6
Continuous
 62
     3
100
AcDbLine
 10
799.2657486468601
 20
718.2092841393871
 30
0.0
 11
820.6689876468601
 21
706.0779831393871
 31
0.0
  0
LINE
  5
A78
330
18B
100
AcDbEntity
  8
1
  6
Continuous
 62
     3
100
AcDbLine
 10
799.2657486468601
 20
718.2092841393871
 30
0.0
 11
811.3970496468605
 21
696.8060451393871
 31
0.0
  0
LINE
  5
A79
330
18B
100
AcDbEntity
  8
1
  6
Continuous
 62
     3
100
AcDbLine
 10
820.6689876468601
 20
706.0779831393871
 30
0.0
 11
811.3970496468605
 21
696.8060451393871
 31
0.0
  0
LINE
  5
A7A
330
18B
100
AcDbEntity
  8
1
  6
Continuous
 62
     3
100
AcDbLine
 10
820.6689876468601
 20
706.0779831393871
 30
0.0
 11
811.3970496468605
 21
696.8060451393871
 31
0.0
  0
LINE
  5
A7C
330
18B
100
AcDbEntity
  8
1
  6
Continuous
 62
     3
100
AcDbLine
 10
725.4183496468604
 20
890.067003139387
 30
0.0
 11
749.1308496468605
 21
896.623253139387
 31
0.0
  0
LINE
  5
A7D
330
18B
100
AcDbEntity
  8
1
  6
Continuous
 62
     3
100
AcDbLine
 10
725.4183496468604
 20
890.067003139387
 30
0.0
 11
749.1308496468605
 21
883.5107531393871
 31
0.0
  0
LINE
  5
A7E
330
18B
100
AcDbEntity
  8
1
  6
Continuous
 62
     3
100
AcDbLine
 10
749.1308496468605
 20
883.5107531393871
 30
0.0
 11
749.1308496468605
 21
896.623253139387
 31
0.0
  0
LINE
  5
A7F
330
18B
100
AcDbEntity
  8
1
  6
Continuous
 62
     3
100
AcDbLine
 10
749.1308496468605
 20
883.5107531393871
 30
0.0
 11
749.1308496468605
 21
896.623253139387
 31
0.0
  0
LINE
  5
A80
330
18B
100
AcDbEntity
  8
1
  6
Continuous
 62
     3
100
AcDbLine
 10
748.8777306468605
 20
312.4047951393869
 30
0.0
 11
772.5902306468603
 21
318.9610451393871
 31
0.0
  0
LINE
  5
A81
330
18B
100
AcDbEntity
  8
1
  6
Continuous
 62
     3
100
AcDbLine
 10
748.8777306468605
 20
312.4047951393869
 30
0.0
 11
772.5902306468603
 21
305.8485451393869
 31
0.0
  0
LINE
  5
A82
330
18B
100
AcDbEntity
  8
1
  6
Continuous
 62
     3
100
AcDbLine
 10
772.5902306468603
 20
305.8485451393869
 30
0.0
 11
772.5902306468603
 21
318.9610451393871
 31
0.0
  0
LINE
  5
A83
330
18B
100
AcDbEntity
  8
1
  6
Continuous
 62
     3
100
AcDbLine
 10
772.5902306468603
 20
305.8485451393869
 30
0.0
 11
772.5902306468603
 21
318.9610451393871
 31
0.0
  0
LINE
  5
A84
330
18B
100
AcDbEntity
  8
1
  6
Continuous
 62
     3
100
AcDbLine
 10
1116.40802264686
 20
890.067003139387
 30
0.0
 11
1092.69552264686
 21
883.5107531393871
 31
0.0
  0
LINE
  5
A85
330
18B
100
AcDbEntity
  8
1
  6
Continuous
 62
     3
100
AcDbLine
 10
1116.40802264686
 20
890.067003139387
 30
0.0
 11
1092.69552264686
 21
896.623253139387
 31
0.0
  0
LINE
  5
A86
330
18B
100
AcDbEntity
  8
1
  6
Continuous
 62
     3
100
AcDbLine
 10
1092.69552264686
 20
883.5107531393871
 30
0.0
 11
1092.69552264686
 21
896.623253139387
 31
0.0
  0
LINE
  5
A87
330
18B
100
AcDbEntity
  8
1
  6
Continuous
 62
     3
100
AcDbLine
 10
1092.94864164686
 20
312.4047951393869
 30
0.0
 11
1069.23614164686
 21
305.8485451393869
 31
0.0
  0
LINE
  5
A88
330
18B
100
AcDbEntity
  8
1
  6
Continuous
 62
     3
100
AcDbLine
 10
1092.94864164686
 20
312.4047951393869
 30
0.0
 11
1069.23614164686
 21
318.9610451393871
 31
0.0
  0
LINE
  5
A89
330
18B
100
AcDbEntity
  8
1
  6
Continuous
 62
     3
100
AcDbLine
 10
1069.23614164686
 20
305.8485451393869
 30
0.0
 11
1069.23614164686
 21
318.9610451393871
 31
0.0
  0
LINE
  5
A8A
330
18B
100
AcDbEntity
  8
1
  6
Continuous
 62
     3
100
AcDbLine
 10
1209.70220664686
 20
401.0670101393871
 30
0.0
 11
1216.258456646857
 21
424.7795101393871
 31
0.0
  0
LINE
  5
A8B
330
18B
100
AcDbEntity
  8
1
  6
Continuous
 62
     3
100
AcDbLine
 10
1203.14595664686
 20
424.7795101393871
 30
0.0
 11
1216.258456646857
 21
424.7795101393871
 31
0.0
  0
LINE
  5
A8C
330
18B
100
AcDbEntity
  8
1
  6
Continuous
 62
     3
100
AcDbLine
 10
1209.70220664686
 20
401.0670101393871
 30
0.0
 11
1203.14595664686
 21
424.7795101393871
 31
0.0
  0
LINE
  5
A8D
330
18B
100
AcDbEntity
  8
1
  6
Continuous
 62
     3
100
AcDbLine
 10
1209.70220664686
 20
596.5618461393868
 30
0.0
 11
1203.14595664686
 21
572.849346139387
 31
0.0
  0
LINE
  5
A8E
330
18B
100
AcDbEntity
  8
1
  6
Continuous
 62
     3
100
AcDbLine
 10
1216.258456646857
 20
572.849346139387
 30
0.0
 11
1203.14595664686
 21
572.849346139387
 31
0.0
  0
LINE
  5
A8F
330
18B
100
AcDbEntity
  8
1
  6
Continuous
 62
     3
100
AcDbLine
 10
1209.70220664686
 20
596.5618461393868
 30
0.0
 11
1216.258456646857
 21
572.849346139387
 31
0.0
  0
LINE
  5
A90
330
18B
100
AcDbEntity
  8
0
  6
Continuous
 62
     5
100
AcDbLine
 10
920.9131856468601
 20
910.0670031393871
 30
0.0
 11
923.9131856468603
 21
910.0670031393871
 31
0.0
  0
LINE
  5
A91
330
18B
100
AcDbEntity
  8
0
  6
Continuous
 62
     5
100
AcDbLine
 10
627.5258379603078
 20
874.9490884735529
 30
0.0
 11
631.5258379603078
 21
874.9490884735529
 31
0.0
  0
LINE
  5
A92
330
18B
100
AcDbEntity
  8
0
  6
Continuous
 62
     5
100
AcDbLine
 10
1208.772746166788
 20
500.7603739693431
 30
0.0
 11
1217.772746166788
 21
500.7603739693431
 31
0.0
  0
LINE
  5
A93
330
18B
100
AcDbEntity
  8
0
  6
Continuous
 62
     5
100
AcDbLine
 10
920.9131856468601
 20
332.4047951393869
 30
0.0
 11
928.9131856468602
 21
332.4047951393869
 31
0.0
  0
LINE
  5
AA1
330
18B
100
AcDbEntity
  8
1
  6
Continuous
 62
     3
100
AcDbLine
 10
725.4183496468604
 20
808.0475634360178
 30
0.0
 11
725.4183496468604
 21
905.067003139387
 31
0.0
  0
LINE
  5
C45
330
18B
100
AcDbEntity
  8
FLAN1$0$1
  6
Continuous
 62
     7
100
AcDbLine
 10
1070.794981071728
 20
722.0755039734436
 30
0.0
 11
1043.42854447571
 21
748.9042819663907
 31
0.0
  0
LINE
  5
C46
330
18B
100
AcDbEntity
  8
FLAN1$0$1
  6
Continuous
 62
     7
100
AcDbLine
 10
1043.42854447571
 20
748.9042819663907
 30
0.0
 11
1011.353911347305
 21
769.8786255851278
 31
0.0
  0
LINE
  5
C47
330
18B
100
AcDbEntity
  8
FLAN1$0$1
  6
Continuous
 62
     7
100
AcDbLine
 10
1011.353911347305
 20
769.8786255851278
 30
0.0
 11
975.8036918499751
 21
784.1925025669352
 31
0.0
  0
LINE
  5
C48
330
18B
100
AcDbEntity
  8
FLAN1$0$1
  6
Continuous
 62
     7
100
AcDbLine
 10
975.8036918499751
 20
784.1925025669352
 30
0.0
 11
938.1440609822096
 21
791.2958386467159
 31
0.0
  0
LINE
  5
C49
330
18B
100
AcDbEntity
  8
FLAN1$0$1
  6
Continuous
 62
     7
100
AcDbLine
 10
938.1440609822096
 20
791.2958386467159
 30
0.0
 11
899.822257238493
 21
790.9156566025212
 31
0.0
  0
LINE
  5
C4A
330
18B
100
AcDbEntity
  8
FLAN1$0$1
  6
Continuous
 62
     7
100
AcDbLine
 10
899.822257238493
 20
790.9156566025212
 30
0.0
 11
862.3109660455806
 21
783.0665666171009
 31
0.0
  0
LINE
  5
C4B
330
18B
100
AcDbEntity
  8
FLAN1$0$1
  6
Continuous
 62
     7
100
AcDbLine
 10
862.3109660455806
 20
783.0665666171009
 30
0.0
 11
827.0517252874425
 21
768.0502048167743
 31
0.0
  0
LINE
  5
C4C
330
18B
100
AcDbEntity
  8
FLAN1$0$1
  6
Continuous
 62
     7
100
AcDbLine
 10
827.0517252874425
 20
768.0502048167743
 30
0.0
 11
795.3995278128031
 21
746.4436415642551
 31
0.0
  0
LINE
  5
C4D
330
18B
100
AcDbEntity
  8
FLAN1$0$1
  6
Continuous
 62
     7
100
AcDbLine
 10
795.3995278128031
 20
746.4436415642551
 30
0.0
 11
768.5707498198564
 21
719.0772049682376
 31
0.0
  0
LINE
  5
C4E
330
18B
100
AcDbEntity
  8
FLAN1$0$1
  6
Continuous
 62
     7
100
AcDbLine
 10
768.5707498198564
 20
719.0772049682376
 30
0.0
 11
747.5964062011191
 21
687.002571839832
 31
0.0
  0
LINE
  5
C4F
330
18B
100
AcDbEntity
  8
FLAN1$0$1
  6
Continuous
 62
     7
100
AcDbLine
 10
747.5964062011191
 20
687.002571839832
 30
0.0
 11
733.282529219312
 21
651.4523523425017
 31
0.0
  0
LINE
  5
C50
330
18B
100
AcDbEntity
  8
FLAN1$0$1
  6
Continuous
 62
     7
100
AcDbLine
 10
733.282529219312
 20
651.4523523425017
 30
0.0
 11
726.1791931395309
 21
613.7927214747358
 31
0.0
  0
LINE
  5
C51
330
18B
100
AcDbEntity
  8
FLAN1$0$1
  6
Continuous
 62
     7
100
AcDbLine
 10
726.1791931395309
 20
613.7927214747358
 30
0.0
 11
726.5593751837258
 21
575.4709177310193
 31
0.0
  0
LINE
  5
C52
330
18B
100
AcDbEntity
  8
FLAN1$0$1
  6
Continuous
 62
     7
100
AcDbLine
 10
726.5593751837258
 20
575.4709177310193
 30
0.0
 11
734.4084651691462
 21
537.9596265381072
 31
0.0
  0
LINE
  5
C53
330
18B
100
AcDbEntity
  8
FLAN1$0$1
  6
Continuous
 62
     7
100
AcDbLine
 10
734.4084651691462
 20
537.9596265381072
 30
0.0
 11
749.4248269694726
 21
502.7003857799686
 31
0.0
  0
LINE
  5
C54
330
18B
100
AcDbEntity
  8
FLAN1$0$1
  6
Continuous
 62
     7
100
AcDbLine
 10
749.4248269694726
 20
502.7003857799686
 30
0.0
 11
771.0313902219921
 21
471.0481883053295
 31
0.0
  0
LINE
  5
C55
330
18B
100
AcDbEntity
  8
FLAN1$0$1
  6
Continuous
 62
     7
100
AcDbLine
 10
771.0313902219921
 20
471.0481883053295
 30
0.0
 11
798.3978268180096
 21
444.2194103123826
 31
0.0
  0
LINE
  5
C56
330
18B
100
AcDbEntity
  8
FLAN1$0$1
  6
Continuous
 62
     7
100
AcDbLine
 10
798.3978268180096
 20
444.2194103123826
 30
0.0
 11
830.4724599464151
 21
423.2450666936454
 31
0.0
  0
LINE
  5
C57
330
18B
100
AcDbEntity
  8
FLAN1$0$1
  6
Continuous
 62
     7
100
AcDbLine
 10
830.4724599464151
 20
423.2450666936454
 30
0.0
 11
866.0226794437457
 21
408.9311897118384
 31
0.0
  0
LINE
  5
C58
330
18B
100
AcDbEntity
  8
FLAN1$0$1
  6
Continuous
 62
     7
100
AcDbLine
 10
866.0226794437457
 20
408.9311897118384
 30
0.0
 11
903.6823103115112
 21
401.8278536320575
 31
0.0
  0
LINE
  5
C59
330
18B
100
AcDbEntity
  8
FLAN1$0$1
  6
Continuous
 62
     7
100
AcDbLine
 10
903.6823103115112
 20
401.8278536320575
 30
0.0
 11
942.0041140552283
 21
402.2080356762522
 31
0.0
  0
LINE
  5
C5A
330
18B
100
AcDbEntity
  8
FLAN1$0$1
  6
Continuous
 62
     7
100
AcDbLine
 10
942.0041140552283
 20
402.2080356762522
 30
0.0
 11
979.5154052481402
 21
410.0571256616727
 31
0.0
  0
LINE
  5
C5B
330
18B
100
AcDbEntity
  8
FLAN1$0$1
  6
Continuous
 62
     7
100
AcDbLine
 10
979.5154052481402
 20
410.0571256616727
 30
0.0
 11
1014.774646006278
 21
425.0734874619994
 31
0.0
  0
LINE
  5
C5C
330
18B
100
AcDbEntity
  8
FLAN1$0$1
  6
Continuous
 62
     7
100
AcDbLine
 10
1014.774646006278
 20
425.0734874619994
 30
0.0
 11
1046.426843480917
 21
446.6800507145187
 31
0.0
  0
LINE
  5
C5D
330
18B
100
AcDbEntity
  8
FLAN1$0$1
  6
Continuous
 62
     7
100
AcDbLine
 10
1046.426843480917
 20
446.6800507145187
 30
0.0
 11
1073.255621473864
 21
474.0464873105366
 31
0.0
  0
LINE
  5
C5E
330
18B
100
AcDbEntity
  8
FLAN1$0$1
  6
Continuous
 62
     7
100
AcDbLine
 10
1073.255621473864
 20
474.0464873105366
 30
0.0
 11
1094.229965092601
 21
506.1211204389422
 31
0.0
  0
LINE
  5
C5F
330
18B
100
AcDbEntity
  8
FLAN1$0$1
  6
Continuous
 62
     7
100
AcDbLine
 10
1094.229965092601
 20
506.1211204389422
 30
0.0
 11
1108.543842074408
 21
541.6713399362723
 31
0.0
  0
LINE
  5
C60
330
18B
100
AcDbEntity
  8
FLAN1$0$1
  6
Continuous
 62
     7
100
AcDbLine
 10
1108.543842074408
 20
541.6713399362723
 30
0.0
 11
1115.647178154189
 21
579.3309708040381
 31
0.0
  0
LINE
  5
C61
330
18B
100
AcDbEntity
  8
FLAN1$0$1
  6
Continuous
 62
     7
100
AcDbLine
 10
1115.647178154189
 20
579.3309708040381
 30
0.0
 11
1115.266996109994
 21
617.6527745477549
 31
0.0
  0
LINE
  5
C62
330
18B
100
AcDbEntity
  8
FLAN1$0$1
  6
Continuous
 62
     7
100
AcDbLine
 10
1115.266996109994
 20
617.6527745477549
 30
0.0
 11
1107.417906124574
 21
655.1640657406672
 31
0.0
  0
LINE
  5
C63
330
18B
100
AcDbEntity
  8
FLAN1$0$1
  6
Continuous
 62
     7
100
AcDbLine
 10
1107.417906124574
 20
655.1640657406672
 30
0.0
 11
1092.401544324247
 21
690.4233064988053
 31
0.0
  0
LINE
  5
C64
330
18B
100
AcDbEntity
  8
FLAN1$0$1
  6
Continuous
 62
     7
100
AcDbLine
 10
1092.401544324247
 20
690.4233064988053
 30
0.0
 11
1070.794981071728
 21
722.0755039734436
 31
0.0
  0
LINE
  5
C65
330
18B
100
AcDbEntity
  8
FLAN1$0$1
  6
Continuous
 62
     7
100
AcDbLine
 10
994.6481154785582
 20
751.9946555582556
 30
0.0
 11
962.9078826359561
 21
763.3930289138365
 31
0.0
  0
LINE
  5
C66
330
18B
100
AcDbEntity
  8
FLAN1$0$1
  6
Continuous
 62
     7
100
AcDbLine
 10
962.9078826359561
 20
763.3930289138365
 30
0.0
 11
929.5538171389601
 21
768.3801734754003
 31
0.0
  0
LINE
  5
C67
330
18B
100
AcDbEntity
  8
FLAN1$0$1
  6
Continuous
 62
     7
100
AcDbLine
 10
929.5538171389601
 20
768.3801734754003
 30
0.0
 11
895.8676970194451
 21
766.7644360742691
 31
0.0
  0
LINE
  5
C68
330
18B
100
AcDbEntity
  8
FLAN1$0$1
  6
Continuous
 62
     7
100
AcDbLine
 10
895.8676970194451
 20
766.7644360742691
 30
0.0
 11
863.1440609822096
 21
758.6079085926528
 31
0.0
  0
LINE
  5
C69
330
18B
100
AcDbEntity
  8
FLAN1$0$1
  6
Continuous
 62
     7
100
AcDbLine
 10
863.1440609822096
 20
758.6079085926528
 30
0.0
 11
832.6404600085384
 21
744.2240418074363
 31
0.0
  0
LINE
  5
C6A
330
18B
100
AcDbEntity
  8
FLAN1$0$1
  6
Continuous
 62
     7
100
AcDbLine
 10
832.6404600085384
 20
744.2240418074363
 30
0.0
 11
805.5291303772326
 21
724.1655996526098
 31
0.0
  0
LINE
  5
C6B
330
18B
100
AcDbEntity
  8
FLAN1$0$1
  6
Continuous
 62
     7
100
AcDbLine
 10
805.5291303772326
 20
724.1655996526098
 30
0.0
 11
782.8519452818156
 21
699.2034168112797
 31
0.0
  0
LINE
  5
C6C
330
18B
100
AcDbEntity
  8
FLAN1$0$1
  6
Continuous
 62
     7
100
AcDbLine
 10
782.8519452818156
 20
699.2034168112797
 30
0.0
 11
765.4803762279914
 21
670.2967759710847
 31
0.0
  0
LINE
  5
C6D
330
18B
100
AcDbEntity
  8
FLAN1$0$1
  6
Continuous
 62
     7
100
AcDbLine
 10
765.4803762279914
 20
670.2967759710847
 30
0.0
 11
754.0820028724105
 21
638.5565431284824
 31
0.0
  0
LINE
  5
C6E
330
18B
100
AcDbEntity
  8
FLAN1$0$1
  6
Continuous
 62
     7
100
AcDbLine
 10
754.0820028724105
 20
638.5565431284824
 30
0.0
 11
749.0948583108466
 21
605.2024776314867
 31
0.0
  0
LINE
  5
C6F
330
18B
100
AcDbEntity
  8
FLAN1$0$1
  6
Continuous
 62
     7
100
AcDbLine
 10
749.0948583108466
 20
605.2024776314867
 30
0.0
 11
750.7105957119774
 21
571.5163575119714
 31
0.0
  0
LINE
  5
C70
330
18B
100
AcDbEntity
  8
FLAN1$0$1
  6
Continuous
 62
     7
100
AcDbLine
 10
750.7105957119774
 20
571.5163575119714
 30
0.0
 11
758.867123193594
 21
538.7927214747358
 31
0.0
  0
LINE
  5
C71
330
18B
100
AcDbEntity
  8
FLAN1$0$1
  6
Continuous
 62
     7
100
AcDbLine
 10
758.867123193594
 20
538.7927214747358
 30
0.0
 11
773.2509899788108
 21
508.2891205010647
 31
0.0
  0
LINE
  5
C72
330
18B
100
AcDbEntity
  8
FLAN1$0$1
  6
Continuous
 62
     7
100
AcDbLine
 10
773.2509899788108
 20
508.2891205010647
 30
0.0
 11
793.3094321336373
 21
481.1777908697592
 31
0.0
  0
LINE
  5
C73
330
18B
100
AcDbEntity
  8
FLAN1$0$1
  6
Continuous
 62
     7
100
AcDbLine
 10
793.3094321336373
 20
481.1777908697592
 30
0.0
 11
818.2716149749674
 21
458.500605774342
 31
0.0
  0
LINE
  5
C74
330
18B
100
AcDbEntity
  8
FLAN1$0$1
  6
Continuous
 62
     7
100
AcDbLine
 10
818.2716149749674
 20
458.500605774342
 30
0.0
 11
847.1782558151627
 21
441.1290367205176
 31
0.0
  0
LINE
  5
C75
330
18B
100
AcDbEntity
  8
FLAN1$0$1
  6
Continuous
 62
     7
100
AcDbLine
 10
847.1782558151627
 20
441.1290367205176
 30
0.0
 11
878.9184886577649
 21
429.7306633649369
 31
0.0
  0
LINE
  5
C76
330
18B
100
AcDbEntity
  8
FLAN1$0$1
  6
Continuous
 62
     7
100
AcDbLine
 10
878.9184886577649
 20
429.7306633649369
 30
0.0
 11
912.2725541547607
 21
424.7435188033731
 31
0.0
  0
LINE
  5
C77
330
18B
100
AcDbEntity
  8
FLAN1$0$1
  6
Continuous
 62
     7
100
AcDbLine
 10
912.2725541547607
 20
424.7435188033731
 30
0.0
 11
945.9586742742757
 21
426.3592562045041
 31
0.0
  0
LINE
  5
C78
330
18B
100
AcDbEntity
  8
FLAN1$0$1
  6
Continuous
 62
     7
100
AcDbLine
 10
945.9586742742757
 20
426.3592562045041
 30
0.0
 11
978.6823103115111
 21
434.5157836861205
 31
0.0
  0
LINE
  5
C79
330
18B
100
AcDbEntity
  8
FLAN1$0$1
  6
Continuous
 62
     7
100
AcDbLine
 10
978.6823103115111
 20
434.5157836861205
 30
0.0
 11
1009.185911285182
 21
448.8996504713375
 31
0.0
  0
LINE
  5
C7A
330
18B
100
AcDbEntity
  8
FLAN1$0$1
  6
Continuous
 62
     7
100
AcDbLine
 10
1009.185911285182
 20
448.8996504713375
 30
0.0
 11
1036.297240916488
 21
468.958092626164
 31
0.0
  0
LINE
  5
C7B
330
18B
100
AcDbEntity
  8
FLAN1$0$1
  6
Continuous
 62
     7
100
AcDbLine
 10
1036.297240916488
 20
468.958092626164
 30
0.0
 11
1058.974426011905
 21
493.9202754674941
 31
0.0
  0
LINE
  5
C7C
330
18B
100
AcDbEntity
  8
FLAN1$0$1
  6
Continuous
 62
     7
100
AcDbLine
 10
1058.974426011905
 20
493.9202754674941
 30
0.0
 11
1076.345995065729
 21
522.8269163076895
 31
0.0
  0
LINE
  5
C7D
330
18B
100
AcDbEntity
  8
FLAN1$0$1
  6
Continuous
 62
     7
100
AcDbLine
 10
1076.345995065729
 20
522.8269163076895
 30
0.0
 11
1087.744368421309
 21
554.5671491502919
 31
0.0
  0
LINE
  5
C7E
330
18B
100
AcDbEntity
  8
FLAN1$0$1
  6
Continuous
 62
     7
100
AcDbLine
 10
1087.744368421309
 20
554.5671491502919
 30
0.0
 11
1092.731512982874
 21
587.9212146472873
 31
0.0
  0
LINE
  5
C7F
330
18B
100
AcDbEntity
  8
FLAN1$0$1
  6
Continuous
 62
     7
100
AcDbLine
 10
1092.731512982874
 20
587.9212146472873
 30
0.0
 11
1091.115775581742
 21
621.6073347668027
 31
0.0
  0
LINE
  5
C80
330
18B
100
AcDbEntity
  8
FLAN1$0$1
  6
Continuous
 62
     7
100
AcDbLine
 10
1091.115775581742
 20
621.6073347668027
 30
0.0
 11
1082.959248100126
 21
654.3309708040382
 31
0.0
  0
LINE
  5
C81
330
18B
100
AcDbEntity
  8
FLAN1$0$1
  6
Continuous
 62
     7
100
AcDbLine
 10
1082.959248100126
 20
654.3309708040382
 30
0.0
 11
1068.575381314909
 21
684.8345717777093
 31
0.0
  0
LINE
  5
C82
330
18B
100
AcDbEntity
  8
FLAN1$0$1
  6
Continuous
 62
     7
100
AcDbLine
 10
1068.575381314909
 20
684.8345717777093
 30
0.0
 11
1048.516939160082
 21
711.9459014090148
 31
0.0
  0
LINE
  5
C83
330
18B
100
AcDbEntity
  8
FLAN1$0$1
  6
Continuous
 62
     7
100
AcDbLine
 10
1048.516939160082
 20
711.9459014090148
 30
0.0
 11
1023.554756318752
 21
734.6230865044319
 31
0.0
  0
LINE
  5
C84
330
18B
100
AcDbEntity
  8
FLAN1$0$1
  6
Continuous
 62
     7
100
AcDbLine
 10
1023.554756318752
 20
734.6230865044319
 30
0.0
 11
994.6481154785582
 21
751.9946555582556
 31
0.0
  0
LINE
  5
C9D
330
18B
100
AcDbEntity
  8
1
  6
Continuous
 62
     3
100
AcDbLine
 10
1209.70220664686
 20
524.862958985093
 30
0.0
 11
1209.70220664686
 21
572.849346139387
 31
0.0
  0
ENDSEC
  0
SECTION
  2
OBJECTS
  0
DICTIONARY
  5
17F
330
0
100
AcDbDictionary
281
     1
  3
ACAD_COLOR
350
985
  3
ACAD_GROUP
350
180
  3
ACAD_LAYOUT
350
887
  3
ACAD_MATERIAL
350
958
  3
ACAD_MLEADERSTYLE
350
9AA
  3
ACAD_MLINESTYLE
350
18E
  3
ACAD_PLOTSETTINGS
350
888
  3
ACAD_PLOTSTYLENAME
350
8F9
  3
ACAD_SCALELIST
350
988
  3
ACAD_TABLESTYLE
350
986
  3
ACAD_VISUALSTYLE
350
971
  3
ACDB_RECOMPOSE_DATA
350
AA4
  3
AcDbVariableDictionary
350
A2D
  3
DWGPROPS
350
AA5
  0
DICTIONARY
  5
A25
330
181
100
AcDbDictionary
280
     1
281
     1
  3
ADSK_XREC_LAYER_RECONCILED
360
A26
  0
DICTIONARY
  5
A27
330
19A
100
AcDbDictionary
280
     1
281
     1
  3
ADSK_XREC_LAYER_RECONCILED
360
A28
  0
DICTIONARY
  5
A29
330
19B
100
AcDbDictionary
280
     1
281
     1
  3
ADSK_XREC_LAYER_RECONCILED
360
A2A
  0
DICTIONARY
  5
A2B
330
894
100
AcDbDictionary
280
     1
281
     1
  3
ADSK_XREC_LAYER_RECONCILED
360
A2C
  0
DICTIONARY
  5
ADA
330
AD9
100
AcDbDictionary
280
     1
281
     1
  3
ADSK_XREC_LAYER_RECONCILED
360
ADB
  0
DICTIONARY
  5
ADD
330
ADC
100
AcDbDictionary
280
     1
281
     1
  3
ADSK_XREC_LAYER_RECONCILED
360
ADE
  0
DICTIONARY
  5
AE0
330
ADF
100
AcDbDictionary
280
     1
281
     1
  0
DICTIONARY
  5
8EE
330
18B
100
AcDbDictionary
281
     1
  3
ACAD_LAYOUTSELFREF
350
931
  3
ACAD_SORTENTS
350
A24
  0
DICTIONARY
  5
8EC
330
188
100
AcDbDictionary
281
     1
  3
ACAD_LAYOUTSELFREF
350
930
  0
DICTIONARY
  5
985
102
{ACAD_REACTORS
330
17F
102
}
330
17F
100
AcDbDictionary
281
     1
  0
DICTIONARY
  5
180
102
{ACAD_REACTORS
330
17F
102
}
330
17F
100
AcDbDictionary
281
     1
  0
DICTIONARY
  5
887
102
{ACAD_REACTORS
330
17F
102
}
330
17F
100
AcDbDictionary
281
     1
  3
Layout1
350
936
  3
Model
350
935
  0
DICTIONARY
  5
958
102
{ACAD_REACTORS
330
17F
102
}
330
17F
100
AcDbDictionary
281
     1
  3
ByBlock
350
961
  3
ByLayer
350
959
  3
Global
350
969
  0
DICTIONARY
  5
9AA
102
{ACAD_REACTORS
330
17F
102
}
330
17F
100
AcDbDictionary
281
     1
  3
Standard
350
9AB
  0
DICTIONARY
  5
18E
102
{ACAD_REACTORS
330
17F
102
}
330
17F
100
AcDbDictionary
281
     1
  3
STANDARD
350
18F
  0
DICTIONARY
  5
888
102
{ACAD_REACTORS
330
17F
102
}
330
17F
100
AcDbDictionary
281
     1
  0
ACDBDICTIONARYWDFLT
  5
8F9
102
{ACAD_REACTORS
330
17F
102
}
330
17F
100
AcDbDictionary
281
     1
  3
Normal
350
8FA
100
AcDbDictionaryWithDefault
340
8FA
  0
DICTIONARY
  5
988
102
{ACAD_REACTORS
330
17F
102
}
330
17F
100
AcDbDictionary
281
     1
  3
A0
350
989
  3
A1
350
98A
  3
A2
350
98B
  3
A3
350
98C
  3
A4
350
98D
  3
A5
350
98E
  3
A6
350
98F
  3
A7
350
990
  3
A8
350
991
  3
A9
350
992
  3
B0
350
993
  3
B1
350
994
  3
B2
350
995
  3
B3
350
996
  3
B4
350
997
  3
B5
350
998
  3
B6
350
999
  3
B7
350
99A
  3
B8
350
99B
  3
B9
350
99C
  3
C0
350
99D
  3
C1
350
99E
  3
C2
350
99F
  3
C3
350
9A0
  3
C4
350
9A1
  3
C5
350
9A2
  3
C6
350
9A3
  3
C7
350
9A4
  3
C8
350
9A5
  3
C9
350
9A6
  3
D0
350
9A7
  3
D1
350
9A8
  3
D2
350
9A9
  0
DICTIONARY
  5
986
102
{ACAD_REACTORS
330
17F
102
}
330
17F
100
AcDbDictionary
281
     1
  3
Standard
350
987
  0
DICTIONARY
  5
971
102
{ACAD_REACTORS
330
17F
102
}
330
17F
100
AcDbDictionary
281
     1
  3
2dWireframe
350
977
  3
3D Hidden
350
979
  3
3dWireframe
350
978
  3
Basic
350
976
  3
Brighten
350
97D
  3
ColorChange
350
981
  3
Conceptual
350
97A
  3
Dim
350
97C
  3
EdgeColorOff
350
984
  3
Facepattern
350
980
  3
Flat
350
972
  3
FlatWithEdges
350
973
  3
Gouraud
350
974
  3
GouraudWithEdges
350
975
  3
JitterOff
350
982
  3
Linepattern
350
97F
  3
OverhangOff
350
983
  3
Realistic
350
97B
  3
Thicken
350
97E
  0
XRECORD
  5
AA4
102
{ACAD_REACTORS
330
17F
102
}
330
17F
100
AcDbXrecord
280
     1
 90
        1
330
987
  0
DICTIONARY
  5
A2D
102
{ACAD_REACTORS
330
17F
102
}
330
17F
100
AcDbDictionary
281
     1
  3
CANNOSCALE
350
A30
  3
CMLEADERSTYLE
350
A2F
  3
CTABLESTYLE
350
A2E
  3
DIMASSOC
350
A33
  3
INDEXCTL
350
A32
  3
SORTENTS
350
A31
  3
XCLIPFRAME
350
A34
  0
XRECORD
  5
AA5
102
{ACAD_REACTORS
330
17F
102
}
330
17F
100
AcDbXrecord
280
     1
  1
DWGPROPS COOKIE
  2

  3

  4

  6

  7

  8
John
  9

300
=
301
=
302
=
303
=
304
=
305
=
306
=
307
=
308
=
309
=
 40
0.8894762615740742
 41
2451288.389091319
 42
2456120.78545919
  1

 90
        0
  0
XRECORD
  5
A26
102
{ACAD_REACTORS
330
A25
102
}
330
A25
100
AcDbXrecord
280
     1
290
     1
  0
XRECORD
  5
A28
102
{ACAD_REACTORS
330
A27
102
}
330
A27
100
AcDbXrecord
280
     1
290
     1
  0
XRECORD
  5
A2A
102
{ACAD_REACTORS
330
A29
102
}
330
A29
100
AcDbXrecord
280
     1
290
     1
  0
XRECORD
  5
A2C
102
{ACAD_REACTORS
330
A2B
102
}
330
A2B
100
AcDbXrecord
280
     1
290
     1
  0
XRECORD
  5
ADB
102
{ACAD_REACTORS
330
ADA
102
}
330
ADA
100
AcDbXrecord
280
     1
290
     1
  0
XRECORD
  5
ADE
102
{ACAD_REACTORS
330
ADD
102
}
330
ADD
100
AcDbXrecord
280
     1
290
     1
  0
XRECORD
  5
931
102
{ACAD_REACTORS
330
8EE
102
}
330
8EE
100
AcDbXrecord
280
     1
340
18B
  0
SORTENTSTABLE
  5
A24
102
{ACAD_REACTORS
330
8EE
102
}
330
8EE
100
AcDbSortentsTable
330
18B
331
A21
  5
A1E
331
A11
  5
A0E
331
9CE
  5
9CB
331
9F3
  5
9F0
331
948
  5
948
331
79C
  5
79C
331
9D5
  5
9D2
331
9E1
  5
9DE
331
9FA
  5
9F7
331
A06
  5
A03
331
9C3
  5
9B8
331
94F
  5
94F
331
9DC
  5
9D9
331
9E8
  5
9E5
331
A0D
  5
A0A
331
9CA
  5
9C7
331
A1E
  5
A1B
331
9EF
  5
9EC
331
A14
  5
A11
331
9D1
  5
9CE
331
9F6
  5
9F3
331
A02
  5
9FF
331
94B
  5
94B
331
9D8
  5
9D5
331
9E4
  5
9E1
331
A09
  5
A06
331
9FD
  5
9FA
331
9C6
  5
9C3
331
A1A
  5
A17
331
9EB
  5
9E8
331
946
  5
946
331
9DF
  5
9DC
331
A20
  5
A1D
331
A10
  5
A0D
331
9CD
  5
9CA
331
9F2
  5
9EF
331
A17
  5
A14
331
9D4
  5
9D1
331
9E0
  5
9DD
331
A05
  5
A02
331
9F9
  5
9F6
331
94E
  5
94E
331
9C2
  5
9B7
331
9E7
  5
9E4
331
9DB
  5
9D8
331
A0C
  5
A09
331
9C9
  5
9C6
331
A1D
  5
A1A
331
9EE
  5
9EB
331
A23
  5
A20
331
A13
  5
A10
331
9D0
  5
9CD
331
9F5
  5
9F2
331
A01
  5
9FE
331
94A
  5
94A
331
9E3
  5
9E0
331
9D7
  5
9D4
331
9FC
  5
9F9
331
A08
  5
A05
331
9C5
  5
9C2
331
951
  5
951
331
A19
  5
A16
331
945
  5
945
331
9DE
  5
9DB
331
9EA
  5
9E7
331
A0F
  5
A0C
331
9CC
  5
9C9
331
9F1
  5
9EE
331
A16
  5
A13
331
9D3
  5
9D0
331
9F8
  5
9F5
331
A04
  5
A01
331
9DA
  5
9D7
331
9E6
  5
9E3
331
A0B
  5
A08
331
9FF
  5
9FC
331
9C8
  5
9C5
331
A1C
  5
A19
331
9ED
  5
9EA
331
A22
  5
A1F
331
A12
  5
A0F
331
9CF
  5
9CC
331
9F4
  5
9F1
331
A00
  5
9FD
331
949
  5
949
331
9D6
  5
9D3
331
9E2
  5
9DF
331
A07
  5
A04
331
9FB
  5
9F8
331
950
  5
950
331
9C4
  5
9C1
331
A18
  5
A15
331
9E9
  5
9E6
331
944
  5
944
331
9DD
  5
9DA
331
A0E
  5
A0B
331
9CB
  5
9C8
331
A1F
  5
A1C
331
9F0
  5
9ED
331
A15
  5
A12
331
9D2
  5
9CF
331
9F7
  5
9F4
331
A03
  5
A00
331
9E5
  5
9E2
331
9D9
  5
9D6
331
9FE
  5
9FB
331
A0A
  5
A07
331
9C7
  5
9C4
331
A1B
  5
A18
331
947
  5
947
331
9EC
  5
9E9
  0
XRECORD
  5
930
102
{ACAD_REACTORS
330
8EC
102
}
330
8EC
100
AcDbXrecord
280
     1
340
188
  0
LAYOUT
  5
936
102
{ACAD_XDICTIONARY
360
AA8
102
}
102
{ACAD_REACTORS
330
887
102
}
330
887
100
AcDbPlotSettings
  1

  2
docuPrinter
  4

  6

 40
0.0
 41
0.0
 42
0.0
 43
0.0
 44
0.0
 45
0.0
 46
0.0
 47
0.0
 48
0.0
 49
0.0
140
0.0
141
0.0
142
1.0
143
1.0
 70
   688
 72
     0
 73
     0
 74
     5
  7

 75
    16
147
1.0
148
0.0
149
0.0
100
AcDbLayout
  1
Layout1
 70
     1
 71
     1
 10
0.0
 20
0.0
 11
12.0
 21
9.0
 12
0.0
 22
0.0
 32
0.0
 14
-1.000000000000000E+20
 24
-1.000000000000000E+20
 34
-1.000000000000000E+20
 15
-1.000000000000000E+20
 25
-1.000000000000000E+20
 35
-1.000000000000000E+20
146
0.0
 13
0.0
 23
0.0
 33
0.0
 16
1.0
 26
0.0
 36
0.0
 17
0.0
 27
1.0
 37
0.0
 76
     0
330
188
  0
LAYOUT
  5
935
102
{ACAD_XDICTIONARY
360
AA6
102
}
102
{ACAD_REACTORS
330
887
102
}
330
887
100
AcDbPlotSettings
  1

  2
docuPrinter
  4

  6

 40
0.0
 41
0.0
 42
0.0
 43
0.0
 44
0.0
 45
0.0
 46
0.0
 47
0.0
 48
0.0
 49
0.0
140
0.0
141
0.0
142
1.0
143
1.0
 70
  1712
 72
     0
 73
     0
 74
     0
  7

 75
     0
147
1.0
148
0.0
149
0.0
100
AcDbLayout
  1
Model
 70
     1
 71
     0
 10
0.0
 20
0.0
 11
12.0
 21
9.0
 12
0.0
 22
0.0
 32
0.0
 14
0.0
 24
0.0
 34
0.0
 15
0.0
 25
0.0
 35
0.0
146
0.0
 13
0.0
 23
0.0
 33
0.0
 16
1.0
 26
0.0
 36
0.0
 17
0.0
 27
1.0
 37
0.0
 76
     0
330
18B
331
954
  0
MATERIAL
  5
961
102
{ACAD_XDICTIONARY
360
962
102
}
102
{ACAD_REACTORS
330
958
102
}
330
958
100
AcDbMaterial
  1
ByBlock
 72
     0
 43
0.0208333333333333
 43
0.0
 43
0.0
 43
0.0
 43
0.0
 43
0.0208333333333333
 43
0.0
 43
0.0
 43
0.0
 43
0.0
 43
1.0
 43
0.0
 43
0.0
 43
0.0
 43
0.0
 43
1.0
 77
     0
 47
0.0208333333333333
 47
0.0
 47
0.0
 47
0.0
 47
0.0
 47
0.0208333333333333
 47
0.0
 47
0.0
 47
0.0
 47
0.0
 47
1.0
 47
0.0
 47
0.0
 47
0.0
 47
0.0
 47
1.0
171
     0
 49
0.0208333333333333
 49
0.0
 49
0.0
 49
0.0
 49
0.0
 49
0.0208333333333333
 49
0.0
 49
0.0
 49
0.0
 49
0.0
 49
1.0
 49
0.0
 49
0.0
 49
0.0
 49
0.0
 49
1.0
175
     0
142
0.0208333333333333
142
0.0
142
0.0
142
0.0
142
0.0
142
0.0208333333333333
142
0.0
142
0.0
142
0.0
142
0.0
142
1.0
142
0.0
142
0.0
142
0.0
142
0.0
142
1.0
179
     0
144
0.0208333333333333
144
0.0
144
0.0
144
0.0
144
0.0
144
0.0208333333333333
144
0.0
144
0.0
144
0.0
144
0.0
144
1.0
144
0.0
144
0.0
144
0.0
144
0.0
144
1.0
147
0.0208333333333333
147
0.0
147
0.0
147
0.0
147
0.0
147
0.0208333333333333
147
0.0
147
0.0
147
0.0
147
0.0
147
1.0
147
0.0
147
0.0
147
0.0
147
0.0
147
1.0
  0
MATERIAL
  5
959
102
{ACAD_XDICTIONARY
360
95A
102
}
102
{ACAD_REACTORS
330
958
102
}
330
958
100
AcDbMaterial
  1
ByLayer
 72
     0
 43
0.0208333333333333
 43
0.0
 43
0.0
 43
0.0
 43
0.0
 43
0.0208333333333333
 43
0.0
 43
0.0
 43
0.0
 43
0.0
 43
1.0
 43
0.0
 43
0.0
 43
0.0
 43
0.0
 43
1.0
 77
     0
 47
0.0208333333333333
 47
0.0
 47
0.0
 47
0.0
 47
0.0
 47
0.0208333333333333
 47
0.0
 47
0.0
 47
0.0
 47
0.0
 47
1.0
 47
0.0
 47
0.0
 47
0.0
 47
0.0
 47
1.0
171
     0
 49
0.0208333333333333
 49
0.0
 49
0.0
 49
0.0
 49
0.0
 49
0.0208333333333333
 49
0.0
 49
0.0
 49
0.0
 49
0.0
 49
1.0
 49
0.0
 49
0.0
 49
0.0
 49
0.0
 49
1.0
175
     0
142
0.0208333333333333
142
0.0
142
0.0
142
0.0
142
0.0
142
0.0208333333333333
142
0.0
142
0.0
142
0.0
142
0.0
142
1.0
142
0.0
142
0.0
142
0.0
142
0.0
142
1.0
179
     0
144
0.0208333333333333
144
0.0
144
0.0
144
0.0
144
0.0
144
0.0208333333333333
144
0.0
144
0.0
144
0.0
144
0.0
144
1.0
144
0.0
144
0.0
144
0.0
144
0.0
144
1.0
147
0.0208333333333333
147
0.0
147
0.0
147
0.0
147
0.0
147
0.0208333333333333
147
0.0
147
0.0
147
0.0
147
0.0
147
1.0
147
0.0
147
0.0
147
0.0
147
0.0
147
1.0
  0
MATERIAL
  5
969
102
{ACAD_XDICTIONARY
360
96A
102
}
102
{ACAD_REACTORS
330
958
102
}
330
958
100
AcDbMaterial
  1
Global
 72
     0
 43
0.0208333333333333
 43
0.0
 43
0.0
 43
0.0
 43
0.0
 43
0.0208333333333333
 43
0.0
 43
0.0
 43
0.0
 43
0.0
 43
1.0
 43
0.0
 43
0.0
 43
0.0
 43
0.0
 43
1.0
 77
     0
 47
0.0208333333333333
 47
0.0
 47
0.0
 47
0.0
 47
0.0
 47
0.0208333333333333
 47
0.0
 47
0.0
 47
0.0
 47
0.0
 47
1.0
 47
0.0
 47
0.0
 47
0.0
 47
0.0
 47
1.0
171
     0
 49
0.0208333333333333
 49
0.0
 49
0.0
 49
0.0
 49
0.0
 49
0.0208333333333333
 49
0.0
 49
0.0
 49
0.0
 49
0.0
 49
1.0
 49
0.0
 49
0.0
 49
0.0
 49
0.0
 49
1.0
175
     0
142
0.0208333333333333
142
0.0
142
0.0
142
0.0
142
0.0
142
0.0208333333333333
142
0.0
142
0.0
142
0.0
142
0.0
142
1.0
142
0.0
142
0.0
142
0.0
142
0.0
142
1.0
179
     0
144
0.0208333333333333
144
0.0
144
0.0
144
0.0
144
0.0
144
0.0208333333333333
144
0.0
144
0.0
144
0.0
144
0.0
144
1.0
144
0.0
144
0.0
144
0.0
144
0.0
144
1.0
147
0.0208333333333333
147
0.0
147
0.0
147
0.0
147
0.0
147
0.0208333333333333
147
0.0
147
0.0
147
0.0
147
0.0
147
1.0
147
0.0
147
0.0
147
0.0
147
0.0
147
1.0
  0
MLEADERSTYLE
  5
9AB
102
{ACAD_REACTORS
330
9AA
102
}
330
9AA
100
AcDbMLeaderStyle
170
     2
171
     1
172
     0
 90
        2
 40
0.0
 41
0.0
173
     1
 91
-1056964608
340
185
 92
       -2
290
     1
 42
0.09
291
     1
 43
0.36
  3
Standard
 44
0.18
300

342
182
174
     1
178
     6
175
     1
176
     0
 93
-1056964608
 45
0.18
292
     0
297
     0
 46
0.18
 94
-1056964608
 47
1.0
 49
1.0
140
1.0
293
     1
141
0.0
294
     1
177
     0
142
1.0
295
     0
296
     0
143
0.125
1001
ACAD_MLEADERVER
1070
     2
  0
MLINESTYLE
  5
18F
102
{ACAD_REACTORS
330
18E
102
}
330
18E
100
AcDbMlineStyle
  2
STANDARD
 70
     0
  3

 62
   256
 51
90.0
 52
90.0
 71
     2
 49
0.5
 62
   256
  6
BYLAYER
 49
-0.5
 62
   256
  6
BYLAYER
  0
ACDBPLACEHOLDER
  5
8FA
102
{ACAD_REACTORS
330
8F9
102
}
330
8F9
  0
SCALE
  5
989
102
{ACAD_REACTORS
330
988
102
}
330
988
100
AcDbScale
 70
     0
300
1:1
140
1.0
141
1.0
290
     1
  0
SCALE
  5
98A
102
{ACAD_REACTORS
330
988
102
}
330
988
100
AcDbScale
 70
     0
300
1:2
140
1.0
141
2.0
290
     0
  0
SCALE
  5
98B
102
{ACAD_REACTORS
330
988
102
}
330
988
100
AcDbScale
 70
     0
300
1:4
140
1.0
141
4.0
290
     0
  0
SCALE
  5
98C
102
{ACAD_REACTORS
330
988
102
}
330
988
100
AcDbScale
 70
     0
300
1:5
140
1.0
141
5.0
290
     0
  0
SCALE
  5
98D
102
{ACAD_REACTORS
330
988
102
}
330
988
100
AcDbScale
 70
     0
300
1:8
140
1.0
141
8.0
290
     0
  0
SCALE
  5
98E
102
{ACAD_REACTORS
330
988
102
}
330
988
100
AcDbScale
 70
     0
300
1:10
140
1.0
141
10.0
290
     0
  0
SCALE
  5
98F
102
{ACAD_REACTORS
330
988
102
}
330
988
100
AcDbScale
 70
     0
300
1:16
140
1.0
141
16.0
290
     0
  0
SCALE
  5
990
102
{ACAD_REACTORS
330
988
102
}
330
988
100
AcDbScale
 70
     0
300
1:20
140
1.0
141
20.0
290
     0
  0
SCALE
  5
991
102
{ACAD_REACTORS
330
988
102
}
330
988
100
AcDbScale
 70
     0
300
1:30
140
1.0
141
30.0
290
     0
  0
SCALE
  5
992
102
{ACAD_REACTORS
330
988
102
}
330
988
100
AcDbScale
 70
     0
300
1:40
140
1.0
141
40.0
290
     0
  0
SCALE
  5
993
102
{ACAD_REACTORS
330
988
102
}
330
988
100
AcDbScale
 70
     0
300
1:50
140
1.0
141
50.0
290
     0
  0
SCALE
  5
994
102
{ACAD_REACTORS
330
988
102
}
330
988
100
AcDbScale
 70
     0
300
1:100
140
1.0
141
100.0
290
     0
  0
SCALE
  5
995
102
{ACAD_REACTORS
330
988
102
}
330
988
100
AcDbScale
 70
     0
300
2:1
140
2.0
141
1.0
290
     0
  0
SCALE
  5
996
102
{ACAD_REACTORS
330
988
102
}
330
988
100
AcDbScale
 70
     0
300
4:1
140
4.0
141
1.0
290
     0
  0
SCALE
  5
997
102
{ACAD_REACTORS
330
988
102
}
330
988
100
AcDbScale
 70
     0
300
8:1
140
8.0
141
1.0
290
     0
  0
SCALE
  5
998
102
{ACAD_REACTORS
330
988
102
}
330
988
100
AcDbScale
 70
     0
300
10:1
140
10.0
141
1.0
290
     0
  0
SCALE
  5
999
102
{ACAD_REACTORS
330
988
102
}
330
988
100
AcDbScale
 70
     0
300
100:1
140
100.0
141
1.0
290
     0
  0
SCALE
  5
99A
102
{ACAD_REACTORS
330
988
102
}
330
988
100
AcDbScale
 70
     0
300
1/128" = 1'-0"
140
0.0078125
141
12.0
290
     0
  0
SCALE
  5
99B
102
{ACAD_REACTORS
330
988
102
}
330
988
100
AcDbScale
 70
     0
300
1/64" = 1'-0"
140
0.015625
141
12.0
290
     0
  0
SCALE
  5
99C
102
{ACAD_REACTORS
330
988
102
}
330
988
100
AcDbScale
 70
     0
300
1/32" = 1'-0"
140
0.03125
141
12.0
290
     0
  0
SCALE
  5
99D
102
{ACAD_REACTORS
330
988
102
}
330
988
100
AcDbScale
 70
     0
300
1/16" = 1'-0"
140
0.0625
141
12.0
290
     0
  0
SCALE
  5
99E
102
{ACAD_REACTORS
330
988
102
}
330
988
100
AcDbScale
 70
     0
300
3/32" = 1'-0"
140
0.09375
141
12.0
290
     0
  0
SCALE
  5
99F
102
{ACAD_REACTORS
330
988
102
}
330
988
100
AcDbScale
 70
     0
300
1/8" = 1'-0"
140
0.125
141
12.0
290
     0
  0
SCALE
  5
9A0
102
{ACAD_REACTORS
330
988
102
}
330
988
100
AcDbScale
 70
     0
300
3/16" = 1'-0"
140
0.1875
141
12.0
290
     0
  0
SCALE
  5
9A1
102
{ACAD_REACTORS
330
988
102
}
330
988
100
AcDbScale
 70
     0
300
1/4" = 1'-0"
140
0.25
141
12.0
290
     0
  0
SCALE
  5
9A2
102
{ACAD_REACTORS
330
988
102
}
330
988
100
AcDbScale
 70
     0
300
3/8" = 1'-0"
140
0.375
141
12.0
290
     0
  0
SCALE
  5
9A3
102
{ACAD_REACTORS
330
988
102
}
330
988
100
AcDbScale
 70
     0
300
1/2" = 1'-0"
140
0.5
141
12.0
290
     0
  0
SCALE
  5
9A4
102
{ACAD_REACTORS
330
988
102
}
330
988
100
AcDbScale
 70
     0
300
3/4" = 1'-0"
140
0.75
141
12.0
290
     0
  0
SCALE
  5
9A5
102
{ACAD_REACTORS
330
988
102
}
330
988
100
AcDbScale
 70
     0
300
1" = 1'-0"
140
1.0
141
12.0
290
     0
  0
SCALE
  5
9A6
102
{ACAD_REACTORS
330
988
102
}
330
988
100
AcDbScale
 70
     0
300
1-1/2" = 1'-0"
140
1.5
141
12.0
290
     0
  0
SCALE
  5
9A7
102
{ACAD_REACTORS
330
988
102
}
330
988
100
AcDbScale
 70
     0
300
3" = 1'-0"
140
3.0
141
12.0
290
     0
  0
SCALE
  5
9A8
102
{ACAD_REACTORS
330
988
102
}
330
988
100
AcDbScale
 70
     0
300
6" = 1'-0"
140
6.0
141
12.0
290
     0
  0
SCALE
  5
9A9
102
{ACAD_REACTORS
330
988
102
}
330
988
100
AcDbScale
 70
     0
300
1'-0" = 1'-0"
140
12.0
141
12.0
290
     0
  0
TABLESTYLE
  5
987
102
{ACAD_XDICTIONARY
360
AA2
102
}
102
{ACAD_REACTORS
330
986
102
}
330
986
100
AcDbTableStyle
  3
Standard
 70
     0
 71
     0
 40
0.06
 41
0.06
280
     0
281
     0
  7
STANDARD
140
0.18
170
     2
 62
     0
 63
     7
283
     0
274
    -2
284
     1
 64
     0
275
    -2
285
     1
 65
     0
276
    -2
286
     1
 66
     0
277
    -2
287
     1
 67
     0
278
    -2
288
     1
 68
     0
279
    -2
289
     1
 69
     0
  7
STANDARD
140
0.25
170
     5
 62
     0
 63
     7
283
     0
274
    -2
284
     1
 64
     0
275
    -2
285
     1
 65
     0
276
    -2
286
     1
 66
     0
277
    -2
287
     1
 67
     0
278
    -2
288
     1
 68
     0
279
    -2
289
     1
 69
     0
  7
STANDARD
140
0.18
170
     5
 62
     0
 63
     7
283
     0
274
    -2
284
     1
 64
     0
275
    -2
285
     1
 65
     0
276
    -2
286
     1
 66
     0
277
    -2
287
     1
 67
     0
278
    -2
288
     1
 68
     0
279
    -2
289
     1
 69
     0
  0
VISUALSTYLE
  5
977
102
{ACAD_XDICTIONARY
360
AB7
102
}
102
{ACAD_REACTORS
330
971
102
}
330
971
100
AcDbVisualStyle
  2
2dWireframe
 70
     4
 71
     0
 72
     2
 73
     0
 90
        0
 40
-0.6
 41
-30.0
 62
     5
 63
     7
 74
     1
 91
        4
 64
     7
 65
   257
 75
     1
175
     1
 42
1.0
 92
        0
 66
   257
 43
1.0
 76
     1
 77
     6
 78
     2
 67
     7
 79
     5
170
     0
171
     0
290
     0
174
     0
 93
        1
 44
0.0
173
     0
291
     0
 45
0.0
1001
ACAD
1000
AcDbSavedByObjectVersion
1070
     0
  0
VISUALSTYLE
  5
979
102
{ACAD_XDICTIONARY
360
ABB
102
}
102
{ACAD_REACTORS
330
971
102
}
330
971
100
AcDbVisualStyle
  2
3D Hidden
 70
     6
 71
     1
 72
     2
 73
     2
 90
        0
 40
-0.6
 41
-30.0
 62
     5
 63
     7
 74
     2
 91
        2
 64
     7
 65
   257
 75
     2
175
     1
 42
179.0
 92
        0
 66
   257
 43
1.0
 76
     1
 77
     6
 78
     2
 67
     7
 79
     3
170
     0
171
     0
290
     0
174
     0
 93
        1
 44
0.0
173
     0
291
     0
 45
0.0
1001
ACAD
1000
AcDbSavedByObjectVersion
1070
     0
  0
VISUALSTYLE
  5
978
102
{ACAD_XDICTIONARY
360
AB9
102
}
102
{ACAD_REACTORS
330
971
102
}
330
971
100
AcDbVisualStyle
  2
3dWireframe
 70
     5
 71
     0
 72
     2
 73
     0
 90
        0
 40
-0.6
 41
-30.0
 62
     5
 63
     7
 74
     1
 91
        4
 64
     7
 65
   257
 75
     1
175
     1
 42
1.0
 92
        0
 66
   257
 43
1.0
 76
     1
 77
     6
 78
     2
 67
     7
 79
     5
170
     0
171
     0
290
     0
174
     0
 93
        1
 44
0.0
173
     0
291
     0
 45
0.0
1001
ACAD
1000
AcDbSavedByObjectVersion
1070
     0
  0
VISUALSTYLE
  5
976
102
{ACAD_XDICTIONARY
360
AB5
102
}
102
{ACAD_REACTORS
330
971
102
}
330
971
100
AcDbVisualStyle
  2
Basic
 70
     7
 71
     1
 72
     0
 73
     1
 90
        0
 40
-0.6
 41
-30.0
 62
     5
 63
     7
 74
     0
 91
        4
 64
     7
 65
   257
 75
     1
175
     1
 42
1.0
 92
        8
 66
     7
 43
1.0
 76
     1
 77
     6
 78
     2
 67
     7
 79
     5
170
     0
171
     0
290
     0
174
     0
 93
        1
 44
0.0
173
     0
291
     1
 45
0.0
1001
ACAD
1000
AcDbSavedByObjectVersion
1070
     0
  0
VISUALSTYLE
  5
97D
102
{ACAD_XDICTIONARY
360
AC3
102
}
102
{ACAD_REACTORS
330
971
102
}
330
971
100
AcDbVisualStyle
  2
Brighten
 70
    12
 71
     2
 72
     2
 73
     0
 90
        0
 40
-0.6
 41
-30.0
 62
     5
 63
     7
 74
     1
 91
        4
 64
     7
 65
   257
 75
     1
175
     1
 42
1.0
 92
        8
 66
     7
 43
1.0
 76
     1
 77
     6
 78
     2
 67
     7
 79
     5
170
     0
171
     0
290
     0
174
     0
 93
        1
 44
50.0
173
     0
291
     1
 45
0.0
1001
ACAD
1000
AcDbSavedByObjectVersion
1070
     0
  0
VISUALSTYLE
  5
981
102
{ACAD_XDICTIONARY
360
ACB
102
}
102
{ACAD_REACTORS
330
971
102
}
330
971
100
AcDbVisualStyle
  2
ColorChange
 70
    16
 71
     2
 72
     2
 73
     3
 90
        0
 40
-0.6
 41
-30.0
 62
     5
 63
     8
 74
     1
 91
        4
 64
     7
 65
   257
 75
     1
175
     1
 42
1.0
 92
        8
 66
     8
 43
1.0
 76
     1
 77
     6
 78
     2
 67
     7
 79
     5
170
     0
171
     0
290
     0
174
     0
 93
        1
 44
0.0
173
     0
291
     1
 45
0.0
1001
ACAD
1000
AcDbSavedByObjectVersion
1070
     0
  0
VISUALSTYLE
  5
97A
102
{ACAD_XDICTIONARY
360
ABD
102
}
102
{ACAD_REACTORS
330
971
102
}
330
971
100
AcDbVisualStyle
  2
Conceptual
 70
     9
 71
     3
 72
     2
 73
     0
 90
        0
 40
-0.6
 41
-30.0
 62
     5
 63
     7
 74
     2
 91
        2
 64
     7
 65
   257
 75
     1
175
     1
 42
179.0
 92
        8
 66
     7
 43
1.0
 76
     1
 77
     6
 78
     2
 67
     7
 79
     3
170
     0
171
     0
290
     0
174
     0
 93
        1
 44
0.0
173
     0
291
     0
 45
0.0
1001
ACAD
1000
AcDbSavedByObjectVersion
1070
     0
  0
VISUALSTYLE
  5
97C
102
{ACAD_XDICTIONARY
360
AC1
102
}
102
{ACAD_REACTORS
330
971
102
}
330
971
100
AcDbVisualStyle
  2
Dim
 70
    11
 71
     2
 72
     2
 73
     0
 90
        0
 40
-0.6
 41
-30.0
 62
     5
 63
     7
 74
     1
 91
        4
 64
     7
 65
   257
 75
     1
175
     1
 42
1.0
 92
        8
 66
     7
 43
1.0
 76
     1
 77
     6
 78
     2
 67
     7
 79
     5
170
     0
171
     0
290
     0
174
     0
 93
        1
 44
-50.0
173
     0
291
     1
 45
0.0
1001
ACAD
1000
AcDbSavedByObjectVersion
1070
     0
  0
VISUALSTYLE
  5
984
102
{ACAD_XDICTIONARY
360
AD1
102
}
102
{ACAD_REACTORS
330
971
102
}
330
971
100
AcDbVisualStyle
  2
EdgeColorOff
 70
    22
 71
     2
 72
     2
 73
     0
 90
        0
 40
-0.6
 41
-30.0
 62
     5
 63
     7
 74
     1
 91
        4
 64
     7
 65
   257
 75
     1
175
     1
 42
1.0
 92
        8
 66
     7
 43
1.0
 76
     1
 77
     6
 78
     2
 67
     7
 79
     5
170
     0
171
     0
290
     0
174
     0
 93
        1
 44
0.0
173
     0
291
     1
 45
0.0
1001
ACAD
1000
AcDbSavedByObjectVersion
1070
     0
  0
VISUALSTYLE
  5
980
102
{ACAD_XDICTIONARY
360
AC9
102
}
102
{ACAD_REACTORS
330
971
102
}
330
971
100
AcDbVisualStyle
  2
Facepattern
 70
    15
 71
     2
 72
     2
 73
     0
 90
        0
 40
-0.6
 41
-30.0
 62
     5
 63
     7
 74
     1
 91
        4
 64
     7
 65
   257
 75
     1
175
     1
 42
1.0
 92
        8
 66
     7
 43
1.0
 76
     1
 77
     6
 78
     2
 67
     7
 79
     5
170
     0
171
     0
290
     0
174
     0
 93
        1
 44
0.0
173
     0
291
     1
 45
0.0
1001
ACAD
1000
AcDbSavedByObjectVersion
1070
     0
  0
VISUALSTYLE
  5
972
102
{ACAD_XDICTIONARY
360
AAD
102
}
102
{ACAD_REACTORS
330
971
102
}
330
971
100
AcDbVisualStyle
  2
Flat
 70
     0
 71
     2
 72
     1
 73
     1
 90
        2
 40
-0.6
 41
30.0
 62
     5
 63
     7
 74
     0
 91
        4
 64
     7
 65
   257
 75
     1
175
     1
 42
1.0
 92
        8
 66
     7
 43
1.0
 76
     1
 77
     6
 78
     2
 67
     7
 79
     5
170
     0
171
     0
290
     0
174
     0
 93
       13
 44
0.0
173
     0
291
     1
 45
0.0
1001
ACAD
1000
AcDbSavedByObjectVersion
1070
     0
  0
VISUALSTYLE
  5
973
102
{ACAD_XDICTIONARY
360
AAF
102
}
102
{ACAD_REACTORS
330
971
102
}
330
971
100
AcDbVisualStyle
  2
FlatWithEdges
 70
     1
 71
     2
 72
     1
 73
     1
 90
        2
 40
-0.6
 41
30.0
 62
     5
 63
     7
 74
     1
 91
        4
 64
     7
 65
   257
 75
     1
175
     1
 42
1.0
 92
        0
 66
   257
 43
1.0
 76
     1
 77
     6
 78
     2
 67
     7
 79
     5
170
     0
171
     0
290
     0
174
     0
 93
       13
 44
0.0
173
     0
291
     1
 45
0.0
1001
ACAD
1000
AcDbSavedByObjectVersion
1070
     0
  0
VISUALSTYLE
  5
974
102
{ACAD_XDICTIONARY
360
AB1
102
}
102
{ACAD_REACTORS
330
971
102
}
330
971
100
AcDbVisualStyle
  2
Gouraud
 70
     2
 71
     2
 72
     2
 73
     1
 90
        2
 40
-0.6
 41
30.0
 62
     5
 63
     7
 74
     0
 91
        4
 64
     7
 65
   257
 75
     1
175
     1
 42
1.0
 92
        0
 66
     7
 43
1.0
 76
     1
 77
     6
 78
     2
 67
     7
 79
     5
170
     0
171
     0
290
     0
174
     0
 93
       13
 44
0.0
173
     0
291
     1
 45
0.0
1001
ACAD
1000
AcDbSavedByObjectVersion
1070
     0
  0
VISUALSTYLE
  5
975
102
{ACAD_XDICTIONARY
360
AB3
102
}
102
{ACAD_REACTORS
330
971
102
}
330
971
100
AcDbVisualStyle
  2
GouraudWithEdges
 70
     3
 71
     2
 72
     2
 73
     1
 90
        2
 40
-0.6
 41
30.0
 62
     5
 63
     7
 74
     1
 91
        4
 64
     7
 65
   257
 75
     1
175
     1
 42
1.0
 92
        0
 66
   257
 43
1.0
 76
     1
 77
     6
 78
     2
 67
     7
 79
     5
170
     0
171
     0
290
     0
174
     0
 93
       13
 44
0.0
173
     0
291
     1
 45
0.0
1001
ACAD
1000
AcDbSavedByObjectVersion
1070
     0
  0
VISUALSTYLE
  5
982
102
{ACAD_XDICTIONARY
360
ACD
102
}
102
{ACAD_REACTORS
330
971
102
}
330
971
100
AcDbVisualStyle
  2
JitterOff
 70
    20
 71
     2
 72
     2
 73
     0
 90
        0
 40
-0.6
 41
-30.0
 62
     5
 63
     7
 74
     1
 91
        4
 64
     7
 65
   257
 75
     1
175
     1
 42
1.0
 92
       10
 66
     7
 43
1.0
 76
     1
 77
     6
 78
     2
 67
     7
 79
     5
170
     0
171
     0
290
     0
174
     0
 93
        1
 44
0.0
173
     0
291
     1
 45
0.0
1001
ACAD
1000
AcDbSavedByObjectVersion
1070
     0
  0
VISUALSTYLE
  5
97F
102
{ACAD_XDICTIONARY
360
AC7
102
}
102
{ACAD_REACTORS
330
971
102
}
330
971
100
AcDbVisualStyle
  2
Linepattern
 70
    14
 71
     2
 72
     2
 73
     0
 90
        0
 40
-0.6
 41
-30.0
 62
     5
 63
     7
 74
     1
 91
        4
 64
     7
 65
   257
 75
     7
175
     7
 42
1.0
 92
        8
 66
     7
 43
1.0
 76
     1
 77
     6
 78
     2
 67
     7
 79
     5
170
     0
171
     0
290
     0
174
     0
 93
        1
 44
0.0
173
     0
291
     1
 45
0.0
1001
ACAD
1000
AcDbSavedByObjectVersion
1070
     0
  0
VISUALSTYLE
  5
983
102
{ACAD_XDICTIONARY
360
ACF
102
}
102
{ACAD_REACTORS
330
971
102
}
330
971
100
AcDbVisualStyle
  2
OverhangOff
 70
    21
 71
     2
 72
     2
 73
     0
 90
        0
 40
-0.6
 41
-30.0
 62
     5
 63
     7
 74
     1
 91
        4
 64
     7
 65
   257
 75
     1
175
     1
 42
1.0
 92
        9
 66
     7
 43
1.0
 76
     1
 77
     6
 78
     2
 67
     7
 79
     5
170
     0
171
     0
290
     0
174
     0
 93
        1
 44
0.0
173
     0
291
     1
 45
0.0
1001
ACAD
1000
AcDbSavedByObjectVersion
1070
     0
  0
VISUALSTYLE
  5
97B
102
{ACAD_XDICTIONARY
360
ABF
102
}
102
{ACAD_REACTORS
330
971
102
}
330
971
100
AcDbVisualStyle
  2
Realistic
 70
     8
 71
     2
 72
     2
 73
     0
 90
        0
 40
-0.6
 41
-30.0
 62
     5
 63
     7
 74
     1
 91
        0
 64
     7
 65
   257
 75
     1
175
     1
 42
1.0
 92
        8
 66
     8
 43
1.0
 76
     1
 77
     6
 78
     2
 67
     7
 79
     5
170
     0
171
     0
290
     0
174
     0
 93
       13
 44
0.0
173
     0
291
     0
 45
0.0
1001
ACAD
1000
AcDbSavedByObjectVersion
1070
     0
  0
VISUALSTYLE
  5
97E
102
{ACAD_XDICTIONARY
360
AC5
102
}
102
{ACAD_REACTORS
330
971
102
}
330
971
100
AcDbVisualStyle
  2
Thicken
 70
    13
 71
     2
 72
     2
 73
     0
 90
        0
 40
-0.6
 41
-30.0
 62
     5
 63
     7
 74
     1
 91
        4
 64
     7
 65
   257
 75
     1
175
     1
 42
1.0
 92
       12
 66
     7
 43
1.0
 76
     1
 77
     6
 78
     2
 67
     7
 79
     5
170
     0
171
     0
290
     0
174
     0
 93
        1
 44
0.0
173
     0
291
     1
 45
0.0
1001
ACAD
1000
AcDbSavedByObjectVersion
1070
     0
  0
DICTIONARYVAR
  5
A30
102
{ACAD_REACTORS
330
A2D
102
}
330
A2D
100
DictionaryVariables
280
     0
  1
1:1
  0
DICTIONARYVAR
  5
A2F
102
{ACAD_REACTORS
330
A2D
102
}
330
A2D
100
DictionaryVariables
280
     0
  1
STANDARD
  0
DICTIONARYVAR
  5
A2E
102
{ACAD_REACTORS
330
A2D
102
}
330
A2D
100
DictionaryVariables
280
     0
  1
STANDARD
  0
DICTIONARYVAR
  5
A33
102
{ACAD_REACTORS
330
A2D
102
}
330
A2D
100
DictionaryVariables
280
     0
  1
1
  0
DICTIONARYVAR
  5
A32
102
{ACAD_REACTORS
330
A2D
102
}
330
A2D
100
DictionaryVariables
280
     0
  1
0
  0
DICTIONARYVAR
  5
A31
102
{ACAD_REACTORS
330
A2D
102
}
330
A2D
100
DictionaryVariables
280
     0
  1
127
  0
DICTIONARYVAR
  5
A34
102
{ACAD_REACTORS
330
A2D
102
}
330
A2D
100
DictionaryVariables
280
     0
  1
2
  0
DICTIONARY
  5
AA8
330
936
100
AcDbDictionary
280
     1
281
     1
  3
ACAD_XREC_ROUNDTRIP
360
AA9
  0
DICTIONARY
  5
AA6
330
935
100
AcDbDictionary
280
     1
281
     1
  3
ACAD_XREC_ROUNDTRIP
360
AA7
  0
DICTIONARY
  5
962
330
961
100
AcDbDictionary
280
     1
281
     1
  3
ACAD_XREC_ROUNDTRIP
360
AAB
  3
BUMPTILE
360
964
  3
DIFFUSETILE
360
963
  3
OPACITYTILE
360
967
  3
REFLECTIONTILE
360
966
  3
REFRACTIONTILE
360
968
  3
SPECULARTILE
360
965
  0
DICTIONARY
  5
95A
330
959
100
AcDbDictionary
280
     1
281
     1
  3
ACAD_XREC_ROUNDTRIP
360
AAA
  3
BUMPTILE
360
95C
  3
DIFFUSETILE
360
95B
  3
OPACITYTILE
360
95F
  3
REFLECTIONTILE
360
95E
  3
REFRACTIONTILE
360
960
  3
SPECULARTILE
360
95D
  0
DICTIONARY
  5
96A
330
969
100
AcDbDictionary
280
     1
281
     1
  3
ACAD_XREC_ROUNDTRIP
360
AAC
  3
BUMPTILE
360
96C
  3
DIFFUSETILE
360
96B
  3
OPACITYTILE
360
96F
  3
REFLECTIONTILE
360
96E
  3
REFRACTIONTILE
360
970
  3
SPECULARTILE
360
96D
  0
DICTIONARY
  5
AA2
330
987
100
AcDbDictionary
280
     1
281
     1
  3
ACAD_ROUNDTRIP_2008_TABLESTYLE_CELLSTYLEMAP
360
AA3
  3
ACAD_XREC_ROUNDTRIP
360
AD3
  0
DICTIONARY
  5
AB7
330
977
100
AcDbDictionary
280
     1
281
     1
  3
ACAD_XREC_ROUNDTRIP
360
AB8
  0
DICTIONARY
  5
ABB
330
979
100
AcDbDictionary
280
     1
281
     1
  3
ACAD_XREC_ROUNDTRIP
360
ABC
  0
DICTIONARY
  5
AB9
330
978
100
AcDbDictionary
280
     1
281
     1
  3
ACAD_XREC_ROUNDTRIP
360
ABA
  0
DICTIONARY
  5
AB5
330
976
100
AcDbDictionary
280
     1
281
     1
  3
ACAD_XREC_ROUNDTRIP
360
AB6
  0
DICTIONARY
  5
AC3
330
97D
100
AcDbDictionary
280
     1
281
     1
  3
ACAD_XREC_ROUNDTRIP
360
AC4
  0
DICTIONARY
  5
ACB
330
981
100
AcDbDictionary
280
     1
281
     1
  3
ACAD_XREC_ROUNDTRIP
360
ACC
  0
DICTIONARY
  5
ABD
330
97A
100
AcDbDictionary
280
     1
281
     1
  3
ACAD_XREC_ROUNDTRIP
360
ABE
  0
DICTIONARY
  5
AC1
330
97C
100
AcDbDictionary
280
     1
281
     1
  3
ACAD_XREC_ROUNDTRIP
360
AC2
  0
DICTIONARY
  5
AD1
330
984
100
AcDbDictionary
280
     1
281
     1
  3
ACAD_XREC_ROUNDTRIP
360
AD2
  0
DICTIONARY
  5
AC9
330
980
100
AcDbDictionary
280
     1
281
     1
  3
ACAD_XREC_ROUNDTRIP
360
ACA
  0
DICTIONARY
  5
AAD
330
972
100
AcDbDictionary
280
     1
281
     1
  3
ACAD_XREC_ROUNDTRIP
360
AAE
  0
DICTIONARY
  5
AAF
330
973
100
AcDbDictionary
280
     1
281
     1
  3
ACAD_XREC_ROUNDTRIP
360
AB0
  0
DICTIONARY
  5
AB1
330
974
100
AcDbDictionary
280
     1
281
     1
  3
ACAD_XREC_ROUNDTRIP
360
AB2
  0
DICTIONARY
  5
AB3
330
975
100
AcDbDictionary
280
     1
281
     1
  3
ACAD_XREC_ROUNDTRIP
360
AB4
  0
DICTIONARY
  5
ACD
330
982
100
AcDbDictionary
280
     1
281
     1
  3
ACAD_XREC_ROUNDTRIP
360
ACE
  0
DICTIONARY
  5
AC7
330
97F
100
AcDbDictionary
280
     1
281
     1
  3
ACAD_XREC_ROUNDTRIP
360
AC8
  0
DICTIONARY
  5
ACF
330
983
100
AcDbDictionary
280
     1
281
     1
  3
ACAD_XREC_ROUNDTRIP
360
AD0
  0
DICTIONARY
  5
ABF
330
97B
100
AcDbDictionary
280
     1
281
     1
  3
ACAD_XREC_ROUNDTRIP
360
AC0
  0
DICTIONARY
  5
AC5
330
97E
100
AcDbDictionary
280
     1
281
     1
  3
ACAD_XREC_ROUNDTRIP
360
AC6
  0
XRECORD
  5
AA9
102
{ACAD_REACTORS
330
AA8
102
}
330
AA8
100
AcDbXrecord
280
     1
102
SHADEPLOT
 70
     0
102
SHADEPLOTRESLEVEL
 70
     2
102
SHADEPLOTCUSTOMDPI
 70
   300
  0
XRECORD
  5
AA7
102
{ACAD_REACTORS
330
AA6
102
}
330
AA6
100
AcDbXrecord
280
     1
102
SHADEPLOT
 70
     0
102
SHADEPLOTRESLEVEL
 70
     2
102
SHADEPLOTCUSTOMDPI
 70
   300
  0
XRECORD
  5
AAB
102
{ACAD_REACTORS
330
962
102
}
330
962
100
AcDbXrecord
280
     1
102
MATERIAL
148
0.0
149
0.0
149
0.0
 93
        0
 94
      127
282
     0
 72
     0
 77
     0
171
     0
175
     0
179
     0
273
     0
  0
XRECORD
  5
964
102
{ACAD_REACTORS
330
962
102
}
330
962
100
AcDbXrecord
280
     1
270
     1
271
     1
  0
XRECORD
  5
963
102
{ACAD_REACTORS
330
962
102
}
330
962
100
AcDbXrecord
280
     1
270
     1
271
     1
  0
XRECORD
  5
967
102
{ACAD_REACTORS
330
962
102
}
330
962
100
AcDbXrecord
280
     1
270
     1
271
     1
  0
XRECORD
  5
966
102
{ACAD_REACTORS
330
962
102
}
330
962
100
AcDbXrecord
280
     1
270
     1
271
     1
  0
XRECORD
  5
968
102
{ACAD_REACTORS
330
962
102
}
330
962
100
AcDbXrecord
280
     1
270
     1
271
     1
  0
XRECORD
  5
965
102
{ACAD_REACTORS
330
962
102
}
330
962
100
AcDbXrecord
280
     1
270
     1
271
     1
  0
XRECORD
  5
AAA
102
{ACAD_REACTORS
330
95A
102
}
330
95A
100
AcDbXrecord
280
     1
102
MATERIAL
148
0.0
149
0.0
149
0.0
 93
        0
 94
      127
282
     0
 72
     0
 77
     0
171
     0
175
     0
179
     0
273
     0
  0
XRECORD
  5
95C
102
{ACAD_REACTORS
330
95A
102
}
330
95A
100
AcDbXrecord
280
     1
270
     1
271
     1
  0
XRECORD
  5
95B
102
{ACAD_REACTORS
330
95A
102
}
330
95A
100
AcDbXrecord
280
     1
270
     1
271
     1
  0
XRECORD
  5
95F
102
{ACAD_REACTORS
330
95A
102
}
330
95A
100
AcDbXrecord
280
     1
270
     1
271
     1
  0
XRECORD
  5
95E
102
{ACAD_REACTORS
330
95A
102
}
330
95A
100
AcDbXrecord
280
     1
270
     1
271
     1
  0
XRECORD
  5
960
102
{ACAD_REACTORS
330
95A
102
}
330
95A
100
AcDbXrecord
280
     1
270
     1
271
     1
  0
XRECORD
  5
95D
102
{ACAD_REACTORS
330
95A
102
}
330
95A
100
AcDbXrecord
280
     1
270
     1
271
     1
  0
XRECORD
  5
AAC
102
{ACAD_REACTORS
330
96A
102
}
330
96A
100
AcDbXrecord
280
     1
102
MATERIAL
148
0.0
149
0.0
149
0.0
 93
        0
 94
      127
282
     0
 72
     0
 77
     0
171
     0
175
     0
179
     0
273
     0
  0
XRECORD
  5
96C
102
{ACAD_REACTORS
330
96A
102
}
330
96A
100
AcDbXrecord
280
     1
270
     1
271
     1
  0
XRECORD
  5
96B
102
{ACAD_REACTORS
330
96A
102
}
330
96A
100
AcDbXrecord
280
     1
270
     1
271
     1
  0
XRECORD
  5
96F
102
{ACAD_REACTORS
330
96A
102
}
330
96A
100
AcDbXrecord
280
     1
270
     1
271
     1
  0
XRECORD
  5
96E
102
{ACAD_REACTORS
330
96A
102
}
330
96A
100
AcDbXrecord
280
     1
270
     1
271
     1
  0
XRECORD
  5
970
102
{ACAD_REACTORS
330
96A
102
}
330
96A
100
AcDbXrecord
280
     1
270
     1
271
     1
  0
XRECORD
  5
96D
102
{ACAD_REACTORS
330
96A
102
}
330
96A
100
AcDbXrecord
280
     1
270
     1
271
     1
  0
CELLSTYLEMAP
  5
AA3
102
{ACAD_REACTORS
330
AA2
102
}
330
AA2
100
AcDbCellStyleMap
 90
        3
300
CELLSTYLE
  1
TABLEFORMAT_BEGIN
 90
        5
170
     1
 91
        0
 92
    32768
 62
   257
 93
        1
300
CONTENTFORMAT
  1
CONTENTFORMAT_BEGIN
 90
        0
 91
        0
 92
      512
 93
        0
300

 40
0.0
140
1.0
 94
        5
 62
     0
340
182
144
0.25
309
CONTENTFORMAT_END
171
     0
 94
        0
309
TABLEFORMAT_END
  1
CELLSTYLE_BEGIN
 90
        1
 91
        1
300
_TITLE
309
CELLSTYLE_END
300
CELLSTYLE
  1
TABLEFORMAT_BEGIN
 90
        5
170
     1
 91
        0
 92
        0
 62
   257
 93
        1
300
CONTENTFORMAT
  1
CONTENTFORMAT_BEGIN
 90
        0
 91
        0
 92
      512
 93
        0
300

 40
0.0
140
1.0
 94
        5
 62
     0
340
182
144
0.18
309
CONTENTFORMAT_END
171
     0
 94
        0
309
TABLEFORMAT_END
  1
CELLSTYLE_BEGIN
 90
        2
 91
        1
300
_HEADER
309
CELLSTYLE_END
300
CELLSTYLE
  1
TABLEFORMAT_BEGIN
 90
        5
170
     1
 91
        0
 92
        0
 62
   257
 93
        1
300
CONTENTFORMAT
  1
CONTENTFORMAT_BEGIN
 90
        0
 91
        0
 92
      512
 93
        0
300

 40
0.0
140
1.0
 94
        2
 62
     0
340
182
144
0.18
309
CONTENTFORMAT_END
171
     0
 94
        0
309
TABLEFORMAT_END
  1
CELLSTYLE_BEGIN
 90
        3
 91
        2
300
_DATA
309
CELLSTYLE_END
  0
XRECORD
  5
AD3
102
{ACAD_REACTORS
330
AA2
102
}
330
AA2
100
AcDbXrecord
280
     1
102
ACAD_ROUNDTRIP_PRE2007_TABLESTYLE
 90
      512
 91
        0
  1

 92
      512
 93
        0
  2

 94
      512
 95
        0
  3

  0
XRECORD
  5
AB8
102
{ACAD_REACTORS
330
AB7
102
}
330
AB7
100
AcDbXrecord
280
     1
102
RTVSPropertyOp0
 70
     1
102
RTVSPropertyOp1
 70
     1
102
RTVSPropertyOp2
 70
     1
102
RTVSPropertyOp3
 70
     1
102
RTVSPropertyOp4
 70
     1
102
RTVSPropertyOp5
 70
     1
102
RTVSPropertyOp6
 70
     1
102
RTVSPropertyOp7
 70
     1
102
RTVSPropertyOp8
 70
     1
102
RTVSPropertyOp9
 70
     1
102
RTVSPropertyOp10
 70
     1
102
RTVSPropertyOp11
 70
     1
102
RTVSPropertyOp12
 70
     1
102
RTVSPropertyOp13
 70
     1
102
RTVSPropertyOp14
 70
     1
102
RTVSPropertyOp15
 70
     1
102
RTVSPropertyOp16
 70
     1
102
RTVSPropertyOp17
 70
     1
102
RTVSPropertyOp18
 70
     1
102
RTVSPropertyOp19
 70
     1
102
RTVSPropertyOp20
 70
     1
102
RTVSPropertyOp21
 70
     1
102
RTVSPropertyOp22
 70
     1
102
RTVSPropertyOp23
 70
     1
102
RTVSPropertyOp24
 70
     1
102
RTVSPropertyOp25
 70
     1
102
RTVSPropertyOp26
 70
     1
102
RTVSPropertyOp27
 70
     1
  0
XRECORD
  5
ABC
102
{ACAD_REACTORS
330
ABB
102
}
330
ABB
100
AcDbXrecord
280
     1
102
RTVSPropertyOp0
 70
     1
102
RTVSPropertyOp1
 70
     1
102
RTVSPropertyOp2
 70
     1
102
RTVSPropertyOp3
 70
     1
102
RTVSPropertyOp4
 70
     1
102
RTVSPropertyOp5
 70
     1
102
RTVSPropertyOp6
 70
     1
102
RTVSPropertyOp7
 70
     1
102
RTVSPropertyOp8
 70
     1
102
RTVSPropertyOp9
 70
     1
102
RTVSPropertyOp10
 70
     1
102
RTVSPropertyOp11
 70
     1
102
RTVSPropertyOp12
 70
     1
102
RTVSPropertyOp13
 70
     1
102
RTVSPropertyOp14
 70
     1
102
RTVSPropertyOp15
 70
     1
102
RTVSPropertyOp16
 70
     1
102
RTVSPropertyOp17
 70
     1
102
RTVSPropertyOp18
 70
     1
102
RTVSPropertyOp19
 70
     1
102
RTVSPropertyOp20
 70
     1
102
RTVSPropertyOp21
 70
     1
102
RTVSPropertyOp22
 70
     1
102
RTVSPropertyOp23
 70
     1
102
RTVSPropertyOp24
 70
     1
102
RTVSPropertyOp25
 70
     1
102
RTVSPropertyOp26
 70
     1
102
RTVSPropertyOp27
 70
     1
  0
XRECORD
  5
ABA
102
{ACAD_REACTORS
330
AB9
102
}
330
AB9
100
AcDbXrecord
280
     1
102
RTVSPropertyOp0
 70
     1
102
RTVSPropertyOp1
 70
     1
102
RTVSPropertyOp2
 70
     1
102
RTVSPropertyOp3
 70
     1
102
RTVSPropertyOp4
 70
     1
102
RTVSPropertyOp5
 70
     1
102
RTVSPropertyOp6
 70
     1
102
RTVSPropertyOp7
 70
     1
102
RTVSPropertyOp8
 70
     1
102
RTVSPropertyOp9
 70
     1
102
RTVSPropertyOp10
 70
     1
102
RTVSPropertyOp11
 70
     1
102
RTVSPropertyOp12
 70
     1
102
RTVSPropertyOp13
 70
     1
102
RTVSPropertyOp14
 70
     1
102
RTVSPropertyOp15
 70
     1
102
RTVSPropertyOp16
 70
     1
102
RTVSPropertyOp17
 70
     1
102
RTVSPropertyOp18
 70
     1
102
RTVSPropertyOp19
 70
     1
102
RTVSPropertyOp20
 70
     1
102
RTVSPropertyOp21
 70
     1
102
RTVSPropertyOp22
 70
     1
102
RTVSPropertyOp23
 70
     1
102
RTVSPropertyOp24
 70
     1
102
RTVSPropertyOp25
 70
     1
102
RTVSPropertyOp26
 70
     1
102
RTVSPropertyOp27
 70
     1
  0
XRECORD
  5
AB6
102
{ACAD_REACTORS
330
AB5
102
}
330
AB5
100
AcDbXrecord
280
     1
102
RTVSPropertyOp0
 70
     1
102
RTVSPropertyOp1
 70
     1
102
RTVSPropertyOp2
 70
     1
102
RTVSPropertyOp3
 70
     1
102
RTVSPropertyOp4
 70
     1
102
RTVSPropertyOp5
 70
     1
102
RTVSPropertyOp6
 70
     1
102
RTVSPropertyOp7
 70
     1
102
RTVSPropertyOp8
 70
     1
102
RTVSPropertyOp9
 70
     1
102
RTVSPropertyOp10
 70
     1
102
RTVSPropertyOp11
 70
     1
102
RTVSPropertyOp12
 70
     1
102
RTVSPropertyOp13
 70
     1
102
RTVSPropertyOp14
 70
     1
102
RTVSPropertyOp15
 70
     1
102
RTVSPropertyOp16
 70
     1
102
RTVSPropertyOp17
 70
     1
102
RTVSPropertyOp18
 70
     1
102
RTVSPropertyOp19
 70
     1
102
RTVSPropertyOp20
 70
     1
102
RTVSPropertyOp21
 70
     1
102
RTVSPropertyOp22
 70
     1
102
RTVSPropertyOp23
 70
     1
102
RTVSPropertyOp24
 70
     1
102
RTVSPropertyOp25
 70
     1
102
RTVSPropertyOp26
 70
     1
102
RTVSPropertyOp27
 70
     1
  0
XRECORD
  5
AC4
102
{ACAD_REACTORS
330
AC3
102
}
330
AC3
100
AcDbXrecord
280
     1
102
RTVSPropertyOp0
 70
     1
102
RTVSPropertyOp1
 70
     1
102
RTVSPropertyOp2
 70
     1
102
RTVSPropertyOp3
 70
     1
102
RTVSPropertyOp4
 70
     1
102
RTVSPropertyOp5
 70
     1
102
RTVSPropertyOp6
 70
     1
102
RTVSPropertyOp7
 70
     1
102
RTVSPropertyOp8
 70
     1
102
RTVSPropertyOp9
 70
     1
102
RTVSPropertyOp10
 70
     1
102
RTVSPropertyOp11
 70
     1
102
RTVSPropertyOp12
 70
     1
102
RTVSPropertyOp13
 70
     1
102
RTVSPropertyOp14
 70
     1
102
RTVSPropertyOp15
 70
     1
102
RTVSPropertyOp16
 70
     1
102
RTVSPropertyOp17
 70
     1
102
RTVSPropertyOp18
 70
     1
102
RTVSPropertyOp19
 70
     1
102
RTVSPropertyOp20
 70
     1
102
RTVSPropertyOp21
 70
     1
102
RTVSPropertyOp22
 70
     1
102
RTVSPropertyOp23
 70
     1
102
RTVSPropertyOp24
 70
     1
102
RTVSPropertyOp25
 70
     1
102
RTVSPropertyOp26
 70
     1
102
RTVSPropertyOp27
 70
     1
  0
XRECORD
  5
ACC
102
{ACAD_REACTORS
330
ACB
102
}
330
ACB
100
AcDbXrecord
280
     1
102
RTVSPropertyOp0
 70
     1
102
RTVSPropertyOp1
 70
     1
102
RTVSPropertyOp2
 70
     1
102
RTVSPropertyOp3
 70
     1
102
RTVSPropertyOp4
 70
     1
102
RTVSPropertyOp5
 70
     1
102
RTVSPropertyOp6
 70
     1
102
RTVSPropertyOp7
 70
     1
102
RTVSPropertyOp8
 70
     1
102
RTVSPropertyOp9
 70
     1
102
RTVSPropertyOp10
 70
     1
102
RTVSPropertyOp11
 70
     1
102
RTVSPropertyOp12
 70
     1
102
RTVSPropertyOp13
 70
     1
102
RTVSPropertyOp14
 70
     1
102
RTVSPropertyOp15
 70
     1
102
RTVSPropertyOp16
 70
     1
102
RTVSPropertyOp17
 70
     1
102
RTVSPropertyOp18
 70
     1
102
RTVSPropertyOp19
 70
     1
102
RTVSPropertyOp20
 70
     1
102
RTVSPropertyOp21
 70
     1
102
RTVSPropertyOp22
 70
     1
102
RTVSPropertyOp23
 70
     1
102
RTVSPropertyOp24
 70
     1
102
RTVSPropertyOp25
 70
     1
102
RTVSPropertyOp26
 70
     1
102
RTVSPropertyOp27
 70
     1
  0
XRECORD
  5
ABE
102
{ACAD_REACTORS
330
ABD
102
}
330
ABD
100
AcDbXrecord
280
     1
102
RTVSPropertyOp0
 70
     1
102
RTVSPropertyOp1
 70
     1
102
RTVSPropertyOp2
 70
     1
102
RTVSPropertyOp3
 70
     1
102
RTVSPropertyOp4
 70
     1
102
RTVSPropertyOp5
 70
     1
102
RTVSPropertyOp6
 70
     1
102
RTVSPropertyOp7
 70
     1
102
RTVSPropertyOp8
 70
     1
102
RTVSPropertyOp9
 70
     1
102
RTVSPropertyOp10
 70
     1
102
RTVSPropertyOp11
 70
     1
102
RTVSPropertyOp12
 70
     1
102
RTVSPropertyOp13
 70
     1
102
RTVSPropertyOp14
 70
     1
102
RTVSPropertyOp15
 70
     1
102
RTVSPropertyOp16
 70
     1
102
RTVSPropertyOp17
 70
     1
102
RTVSPropertyOp18
 70
     1
102
RTVSPropertyOp19
 70
     1
102
RTVSPropertyOp20
 70
     1
102
RTVSPropertyOp21
 70
     1
102
RTVSPropertyOp22
 70
     1
102
RTVSPropertyOp23
 70
     1
102
RTVSPropertyOp24
 70
     1
102
RTVSPropertyOp25
 70
     1
102
RTVSPropertyOp26
 70
     1
102
RTVSPropertyOp27
 70
     1
  0
XRECORD
  5
AC2
102
{ACAD_REACTORS
330
AC1
102
}
330
AC1
100
AcDbXrecord
280
     1
102
RTVSPropertyOp0
 70
     1
102
RTVSPropertyOp1
 70
     1
102
RTVSPropertyOp2
 70
     1
102
RTVSPropertyOp3
 70
     1
102
RTVSPropertyOp4
 70
     1
102
RTVSPropertyOp5
 70
     1
102
RTVSPropertyOp6
 70
     1
102
RTVSPropertyOp7
 70
     1
102
RTVSPropertyOp8
 70
     1
102
RTVSPropertyOp9
 70
     1
102
RTVSPropertyOp10
 70
     1
102
RTVSPropertyOp11
 70
     1
102
RTVSPropertyOp12
 70
     1
102
RTVSPropertyOp13
 70
     1
102
RTVSPropertyOp14
 70
     1
102
RTVSPropertyOp15
 70
     1
102
RTVSPropertyOp16
 70
     1
102
RTVSPropertyOp17
 70
     1
102
RTVSPropertyOp18
 70
     1
102
RTVSPropertyOp19
 70
     1
102
RTVSPropertyOp20
 70
     1
102
RTVSPropertyOp21
 70
     1
102
RTVSPropertyOp22
 70
     1
102
RTVSPropertyOp23
 70
     1
102
RTVSPropertyOp24
 70
     1
102
RTVSPropertyOp25
 70
     1
102
RTVSPropertyOp26
 70
     1
102
RTVSPropertyOp27
 70
     1
  0
XRECORD
  5
AD2
102
{ACAD_REACTORS
330
AD1
102
}
330
AD1
100
AcDbXrecord
280
     1
102
RTVSPropertyOp0
 70
     0
102
RTVSPropertyOp1
 70
     0
102
RTVSPropertyOp2
 70
     0
102
RTVSPropertyOp3
 70
     0
102
RTVSPropertyOp4
 70
     0
102
RTVSPropertyOp5
 70
     0
102
RTVSPropertyOp6
 70
     0
102
RTVSPropertyOp7
 70
     0
102
RTVSPropertyOp8
 70
     0
102
RTVSPropertyOp9
 70
     0
102
RTVSPropertyOp10
 70
     0
102
RTVSPropertyOp11
 70
     0
102
RTVSPropertyOp12
 70
     0
102
RTVSPropertyOp13
 70
     0
102
RTVSPropertyOp14
 70
     2
102
RTVSPropertyOp15
 70
     0
102
RTVSPropertyOp16
 70
     0
102
RTVSPropertyOp17
 70
     0
102
RTVSPropertyOp18
 70
     0
102
RTVSPropertyOp19
 70
     0
102
RTVSPropertyOp20
 70
     0
102
RTVSPropertyOp21
 70
     0
102
RTVSPropertyOp22
 70
     0
102
RTVSPropertyOp23
 70
     0
102
RTVSPropertyOp24
 70
     0
102
RTVSPropertyOp25
 70
     0
102
RTVSPropertyOp26
 70
     0
102
RTVSPropertyOp27
 70
     0
  0
XRECORD
  5
ACA
102
{ACAD_REACTORS
330
AC9
102
}
330
AC9
100
AcDbXrecord
280
     1
102
RTVSPropertyOp0
 70
     1
102
RTVSPropertyOp1
 70
     1
102
RTVSPropertyOp2
 70
     1
102
RTVSPropertyOp3
 70
     1
102
RTVSPropertyOp4
 70
     1
102
RTVSPropertyOp5
 70
     1
102
RTVSPropertyOp6
 70
     1
102
RTVSPropertyOp7
 70
     1
102
RTVSPropertyOp8
 70
     1
102
RTVSPropertyOp9
 70
     1
102
RTVSPropertyOp10
 70
     1
102
RTVSPropertyOp11
 70
     1
102
RTVSPropertyOp12
 70
     1
102
RTVSPropertyOp13
 70
     1
102
RTVSPropertyOp14
 70
     1
102
RTVSPropertyOp15
 70
     1
102
RTVSPropertyOp16
 70
     1
102
RTVSPropertyOp17
 70
     1
102
RTVSPropertyOp18
 70
     1
102
RTVSPropertyOp19
 70
     1
102
RTVSPropertyOp20
 70
     1
102
RTVSPropertyOp21
 70
     1
102
RTVSPropertyOp22
 70
     1
102
RTVSPropertyOp23
 70
     1
102
RTVSPropertyOp24
 70
     1
102
RTVSPropertyOp25
 70
     1
102
RTVSPropertyOp26
 70
     1
102
RTVSPropertyOp27
 70
     1
  0
XRECORD
  5
AAE
102
{ACAD_REACTORS
330
AAD
102
}
330
AAD
100
AcDbXrecord
280
     1
102
RTVSPropertyOp0
 70
     1
102
RTVSPropertyOp1
 70
     1
102
RTVSPropertyOp2
 70
     1
102
RTVSPropertyOp3
 70
     1
102
RTVSPropertyOp4
 70
     1
102
RTVSPropertyOp5
 70
     1
102
RTVSPropertyOp6
 70
     1
102
RTVSPropertyOp7
 70
     1
102
RTVSPropertyOp8
 70
     1
102
RTVSPropertyOp9
 70
     1
102
RTVSPropertyOp10
 70
     1
102
RTVSPropertyOp11
 70
     1
102
RTVSPropertyOp12
 70
     1
102
RTVSPropertyOp13
 70
     1
102
RTVSPropertyOp14
 70
     1
102
RTVSPropertyOp15
 70
     1
102
RTVSPropertyOp16
 70
     1
102
RTVSPropertyOp17
 70
     1
102
RTVSPropertyOp18
 70
     1
102
RTVSPropertyOp19
 70
     1
102
RTVSPropertyOp20
 70
     1
102
RTVSPropertyOp21
 70
     1
102
RTVSPropertyOp22
 70
     1
102
RTVSPropertyOp23
 70
     1
102
RTVSPropertyOp24
 70
     1
102
RTVSPropertyOp25
 70
     1
102
RTVSPropertyOp26
 70
     1
102
RTVSPropertyOp27
 70
     1
  0
XRECORD
  5
AB0
102
{ACAD_REACTORS
330
AAF
102
}
330
AAF
100
AcDbXrecord
280
     1
102
RTVSPropertyOp0
 70
     1
102
RTVSPropertyOp1
 70
     1
102
RTVSPropertyOp2
 70
     1
102
RTVSPropertyOp3
 70
     1
102
RTVSPropertyOp4
 70
     1
102
RTVSPropertyOp5
 70
     1
102
RTVSPropertyOp6
 70
     1
102
RTVSPropertyOp7
 70
     1
102
RTVSPropertyOp8
 70
     1
102
RTVSPropertyOp9
 70
     1
102
RTVSPropertyOp10
 70
     1
102
RTVSPropertyOp11
 70
     1
102
RTVSPropertyOp12
 70
     1
102
RTVSPropertyOp13
 70
     1
102
RTVSPropertyOp14
 70
     1
102
RTVSPropertyOp15
 70
     1
102
RTVSPropertyOp16
 70
     1
102
RTVSPropertyOp17
 70
     1
102
RTVSPropertyOp18
 70
     1
102
RTVSPropertyOp19
 70
     1
102
RTVSPropertyOp20
 70
     1
102
RTVSPropertyOp21
 70
     1
102
RTVSPropertyOp22
 70
     1
102
RTVSPropertyOp23
 70
     1
102
RTVSPropertyOp24
 70
     1
102
RTVSPropertyOp25
 70
     1
102
RTVSPropertyOp26
 70
     1
102
RTVSPropertyOp27
 70
     1
  0
XRECORD
  5
AB2
102
{ACAD_REACTORS
330
AB1
102
}
330
AB1
100
AcDbXrecord
280
     1
102
RTVSPropertyOp0
 70
     1
102
RTVSPropertyOp1
 70
     1
102
RTVSPropertyOp2
 70
     1
102
RTVSPropertyOp3
 70
     1
102
RTVSPropertyOp4
 70
     1
102
RTVSPropertyOp5
 70
     1
102
RTVSPropertyOp6
 70
     1
102
RTVSPropertyOp7
 70
     1
102
RTVSPropertyOp8
 70
     1
102
RTVSPropertyOp9
 70
     1
102
RTVSPropertyOp10
 70
     1
102
RTVSPropertyOp11
 70
     1
102
RTVSPropertyOp12
 70
     1
102
RTVSPropertyOp13
 70
     1
102
RTVSPropertyOp14
 70
     1
102
RTVSPropertyOp15
 70
     1
102
RTVSPropertyOp16
 70
     1
102
RTVSPropertyOp17
 70
     1
102
RTVSPropertyOp18
 70
     1
102
RTVSPropertyOp19
 70
     1
102
RTVSPropertyOp20
 70
     1
102
RTVSPropertyOp21
 70
     1
102
RTVSPropertyOp22
 70
     1
102
RTVSPropertyOp23
 70
     1
102
RTVSPropertyOp24
 70
     1
102
RTVSPropertyOp25
 70
     1
102
RTVSPropertyOp26
 70
     1
102
RTVSPropertyOp27
 70
     1
  0
XRECORD
  5
AB4
102
{ACAD_REACTORS
330
AB3
102
}
330
AB3
100
AcDbXrecord
280
     1
102
RTVSPropertyOp0
 70
     1
102
RTVSPropertyOp1
 70
     1
102
RTVSPropertyOp2
 70
     1
102
RTVSPropertyOp3
 70
     1
102
RTVSPropertyOp4
 70
     1
102
RTVSPropertyOp5
 70
     1
102
RTVSPropertyOp6
 70
     1
102
RTVSPropertyOp7
 70
     1
102
RTVSPropertyOp8
 70
     1
102
RTVSPropertyOp9
 70
     1
102
RTVSPropertyOp10
 70
     1
102
RTVSPropertyOp11
 70
     1
102
RTVSPropertyOp12
 70
     1
102
RTVSPropertyOp13
 70
     1
102
RTVSPropertyOp14
 70
     1
102
RTVSPropertyOp15
 70
     1
102
RTVSPropertyOp16
 70
     1
102
RTVSPropertyOp17
 70
     1
102
RTVSPropertyOp18
 70
     1
102
RTVSPropertyOp19
 70
     1
102
RTVSPropertyOp20
 70
     1
102
RTVSPropertyOp21
 70
     1
102
RTVSPropertyOp22
 70
     1
102
RTVSPropertyOp23
 70
     1
102
RTVSPropertyOp24
 70
     1
102
RTVSPropertyOp25
 70
     1
102
RTVSPropertyOp26
 70
     1
102
RTVSPropertyOp27
 70
     1
  0
XRECORD
  5
ACE
102
{ACAD_REACTORS
330
ACD
102
}
330
ACD
100
AcDbXrecord
280
     1
102
RTVSPropertyOp0
 70
     0
102
RTVSPropertyOp1
 70
     0
102
RTVSPropertyOp2
 70
     0
102
RTVSPropertyOp3
 70
     0
102
RTVSPropertyOp4
 70
     0
102
RTVSPropertyOp5
 70
     0
102
RTVSPropertyOp6
 70
     0
102
RTVSPropertyOp7
 70
     0
102
RTVSPropertyOp8
 70
     0
102
RTVSPropertyOp9
 70
     0
102
RTVSPropertyOp10
 70
     0
102
RTVSPropertyOp11
 70
     0
102
RTVSPropertyOp12
 70
     0
102
RTVSPropertyOp13
 70
     0
102
RTVSPropertyOp14
 70
     2
102
RTVSPropertyOp15
 70
     0
102
RTVSPropertyOp16
 70
     0
102
RTVSPropertyOp17
 70
     0
102
RTVSPropertyOp18
 70
     0
102
RTVSPropertyOp19
 70
     0
102
RTVSPropertyOp20
 70
     0
102
RTVSPropertyOp21
 70
     0
102
RTVSPropertyOp22
 70
     0
102
RTVSPropertyOp23
 70
     0
102
RTVSPropertyOp24
 70
     0
102
RTVSPropertyOp25
 70
     0
102
RTVSPropertyOp26
 70
     0
102
RTVSPropertyOp27
 70
     0
  0
XRECORD
  5
AC8
102
{ACAD_REACTORS
330
AC7
102
}
330
AC7
100
AcDbXrecord
280
     1
102
RTVSPropertyOp0
 70
     1
102
RTVSPropertyOp1
 70
     1
102
RTVSPropertyOp2
 70
     1
102
RTVSPropertyOp3
 70
     1
102
RTVSPropertyOp4
 70
     1
102
RTVSPropertyOp5
 70
     1
102
RTVSPropertyOp6
 70
     1
102
RTVSPropertyOp7
 70
     1
102
RTVSPropertyOp8
 70
     1
102
RTVSPropertyOp9
 70
     1
102
RTVSPropertyOp10
 70
     1
102
RTVSPropertyOp11
 70
     1
102
RTVSPropertyOp12
 70
     1
102
RTVSPropertyOp13
 70
     1
102
RTVSPropertyOp14
 70
     1
102
RTVSPropertyOp15
 70
     1
102
RTVSPropertyOp16
 70
     1
102
RTVSPropertyOp17
 70
     1
102
RTVSPropertyOp18
 70
     1
102
RTVSPropertyOp19
 70
     1
102
RTVSPropertyOp20
 70
     1
102
RTVSPropertyOp21
 70
     1
102
RTVSPropertyOp22
 70
     1
102
RTVSPropertyOp23
 70
     1
102
RTVSPropertyOp24
 70
     1
102
RTVSPropertyOp25
 70
     1
102
RTVSPropertyOp26
 70
     1
102
RTVSPropertyOp27
 70
     1
  0
XRECORD
  5
AD0
102
{ACAD_REACTORS
330
ACF
102
}
330
ACF
100
AcDbXrecord
280
     1
102
RTVSPropertyOp0
 70
     0
102
RTVSPropertyOp1
 70
     0
102
RTVSPropertyOp2
 70
     0
102
RTVSPropertyOp3
 70
     0
102
RTVSPropertyOp4
 70
     0
102
RTVSPropertyOp5
 70
     0
102
RTVSPropertyOp6
 70
     0
102
RTVSPropertyOp7
 70
     0
102
RTVSPropertyOp8
 70
     0
102
RTVSPropertyOp9
 70
     0
102
RTVSPropertyOp10
 70
     0
102
RTVSPropertyOp11
 70
     0
102
RTVSPropertyOp12
 70
     0
102
RTVSPropertyOp13
 70
     0
102
RTVSPropertyOp14
 70
     2
102
RTVSPropertyOp15
 70
     0
102
RTVSPropertyOp16
 70
     0
102
RTVSPropertyOp17
 70
     0
102
RTVSPropertyOp18
 70
     0
102
RTVSPropertyOp19
 70
     0
102
RTVSPropertyOp20
 70
     0
102
RTVSPropertyOp21
 70
     0
102
RTVSPropertyOp22
 70
     0
102
RTVSPropertyOp23
 70
     0
102
RTVSPropertyOp24
 70
     0
102
RTVSPropertyOp25
 70
     0
102
RTVSPropertyOp26
 70
     0
102
RTVSPropertyOp27
 70
     0
  0
XRECORD
  5
AC0
102
{ACAD_REACTORS
330
ABF
102
}
330
ABF
100
AcDbXrecord
280
     1
102
RTVSPropertyOp0
 70
     1
102
RTVSPropertyOp1
 70
     1
102
RTVSPropertyOp2
 70
     1
102
RTVSPropertyOp3
 70
     1
102
RTVSPropertyOp4
 70
     1
102
RTVSPropertyOp5
 70
     1
102
RTVSPropertyOp6
 70
     1
102
RTVSPropertyOp7
 70
     1
102
RTVSPropertyOp8
 70
     1
102
RTVSPropertyOp9
 70
     1
102
RTVSPropertyOp10
 70
     1
102
RTVSPropertyOp11
 70
     1
102
RTVSPropertyOp12
 70
     1
102
RTVSPropertyOp13
 70
     1
102
RTVSPropertyOp14
 70
     1
102
RTVSPropertyOp15
 70
     1
102
RTVSPropertyOp16
 70
     1
102
RTVSPropertyOp17
 70
     1
102
RTVSPropertyOp18
 70
     1
102
RTVSPropertyOp19
 70
     1
102
RTVSPropertyOp20
 70
     1
102
RTVSPropertyOp21
 70
     1
102
RTVSPropertyOp22
 70
     1
102
RTVSPropertyOp23
 70
     1
102
RTVSPropertyOp24
 70
     1
102
RTVSPropertyOp25
 70
     1
102
RTVSPropertyOp26
 70
     1
102
RTVSPropertyOp27
 70
     1
  0
XRECORD
  5
AC6
102
{ACAD_REACTORS
330
AC5
102
}
330
AC5
100
AcDbXrecord
280
     1
102
RTVSPropertyOp0
 70
     1
102
RTVSPropertyOp1
 70
     1
102
RTVSPropertyOp2
 70
     1
102
RTVSPropertyOp3
 70
     1
102
RTVSPropertyOp4
 70
     1
102
RTVSPropertyOp5
 70
     1
102
RTVSPropertyOp6
 70
     1
102
RTVSPropertyOp7
 70
     1
102
RTVSPropertyOp8
 70
     1
102
RTVSPropertyOp9
 70
     1
102
RTVSPropertyOp10
 70
     1
102
RTVSPropertyOp11
 70
     1
102
RTVSPropertyOp12
 70
     1
102
RTVSPropertyOp13
 70
     1
102
RTVSPropertyOp14
 70
     1
102
RTVSPropertyOp15
 70
     1
102
RTVSPropertyOp16
 70
     1
102
RTVSPropertyOp17
 70
     1
102
RTVSPropertyOp18
 70
     1
102
RTVSPropertyOp19
 70
     1
102
RTVSPropertyOp20
 70
     1
102
RTVSPropertyOp21
 70
     1
102
RTVSPropertyOp22
 70
     1
102
RTVSPropertyOp23
 70
     1
102
RTVSPropertyOp24
 70
     1
102
RTVSPropertyOp25
 70
     1
102
RTVSPropertyOp26
 70
     1
102
RTVSPropertyOp27
 70
     1
  0
ENDSEC
  0
EOF
