  0
SECTION
  2
HEADER
  9
$ACADVER
  1
AC1015
  9
$ACADMAINTVER
 70
     6
  9
$DWGCODEPAGE
  3
ANSI_1252
  9
$INSBASE
 10
0.0
 20
0.0
 30
0.0
  9
$EXTMIN
 10
335.1343879781952
 20
242.9454787729066
 30
0.0
  9
$EXTMAX
 10
1568.562225153837
 20
1043.560136633381
 30
0.0
  9
$LIMMIN
 10
0.0
 20
0.0
  9
$LIMMAX
 10
12.0
 20
9.0
  9
$ORTHOMODE
 70
     1
  9
$REGENMODE
 70
     1
  9
$FILLMODE
 70
     1
  9
$QTEXTMODE
 70
     0
  9
$MIRRTEXT
 70
     1
  9
$LTSCALE
 40
1.0
  9
$ATTMODE
 70
     1
  9
$TEXTSIZE
 40
0.0
  9
$TRACEWID
 40
0.05
  9
$TEXTSTYLE
  7
STANDARD
  9
$CLAYER
  8
0
  9
$CELTYPE
  6
CONTINUOUS
  9
$CECOLOR
 62
   256
  9
$CELTSCALE
 40
1.0
  9
$DISPSILH
 70
     0
  9
$DIMSCALE
 40
1.0
  9
$DIMASZ
 40
0.18
  9
$DIMEXO
 40
0.0625
  9
$DIMDLI
 40
0.38
  9
$DIMRND
 40
0.0
  9
$DIMDLE
 40
0.0
  9
$DIMEXE
 40
0.18
  9
$DIMTP
 40
0.0
  9
$DIMTM
 40
0.0
  9
$DIMTXT
 40
0.18
  9
$DIMCEN
 40
0.09
  9
$DIMTSZ
 40
0.0
  9
$DIMTOL
 70
     0
  9
$DIMLIM
 70
     0
  9
$DIMTIH
 70
     1
  9
$DIMTOH
 70
     1
  9
$DIMSE1
 70
     0
  9
$DIMSE2
 70
     0
  9
$DIMTAD
 70
     0
  9
$DIMZIN
 70
     0
  9
$DIMBLK
  1

  9
$DIMASO
 70
     1
  9
$DIMSHO
 70
     1
  9
$DIMPOST
  1

  9
$DIMAPOST
  1

  9
$DIMALT
 70
     0
  9
$DIMALTD
 70
     2
  9
$DIMALTF
 40
25.4
  9
$DIMLFAC
 40
1.0
  9
$DIMTOFL
 70
     0
  9
$DIMTVP
 40
0.0
  9
$DIMTIX
 70
     0
  9
$DIMSOXD
 70
     0
  9
$DIMSAH
 70
     0
  9
$DIMBLK1
  1

  9
$DIMBLK2
  1

  9
$DIMSTYLE
  2
STANDARD
  9
$DIMCLRD
 70
     0
  9
$DIMCLRE
 70
     0
  9
$DIMCLRT
 70
     0
  9
$DIMTFAC
 40
1.0
  9
$DIMGAP
 40
0.09
  9
$DIMJUST
 70
     0
  9
$DIMSD1
 70
     0
  9
$DIMSD2
 70
     0
  9
$DIMTOLJ
 70
     1
  9
$DIMTZIN
 70
     0
  9
$DIMALTZ
 70
     0
  9
$DIMALTTZ
 70
     0
  9
$DIMUPT
 70
     0
  9
$DIMDEC
 70
     4
  9
$DIMTDEC
 70
     4
  9
$DIMALTU
 70
     2
  9
$DIMALTTD
 70
     2
  9
$DIMTXSTY
  7
STANDARD
  9
$DIMAUNIT
 70
     0
  9
$DIMADEC
 70
     0
  9
$DIMALTRND
 40
0.0
  9
$DIMAZIN
 70
     0
  9
$DIMDSEP
 70
    46
  9
$DIMATFIT
 70
     3
  9
$DIMFRAC
 70
     0
  9
$DIMLDRBLK
  1

  9
$DIMLUNIT
 70
     2
  9
$DIMLWD
 70
    -2
  9
$DIMLWE
 70
    -2
  9
$DIMTMOVE
 70
     0
  9
$LUNITS
 70
     2
  9
$LUPREC
 70
     4
  9
$SKETCHINC
 40
0.1
  9
$FILLETRAD
 40
0.0
  9
$AUNITS
 70
     0
  9
$AUPREC
 70
     0
  9
$MENU
  1
acad
  9
$ELEVATION
 40
0.0
  9
$PELEVATION
 40
0.0
  9
$THICKNESS
 40
0.0
  9
$LIMCHECK
 70
     0
  9
$CHAMFERA
 40
0.0
  9
$CHAMFERB
 40
0.0
  9
$CHAMFERC
 40
0.0
  9
$CHAMFERD
 40
0.0
  9
$SKPOLY
 70
     0
  9
$TDCREATE
 40
2453238.761990740
  9
$TDUCREATE
 40
2453238.720324073
  9
$TDUPDATE
 40
2458587.288579826
  9
$TDUUPDATE
 40
2458587.246913159
  9
$TDINDWG
 40
0.1510373380
  9
$TDUSRTIMER
 40
0.1510344329
  9
$USRTIMER
 70
     1
  9
$ANGBASE
 50
0.0
  9
$ANGDIR
 70
     0
  9
$PDMODE
 70
     0
  9
$PDSIZE
 40
0.0
  9
$PLINEWID
 40
0.0
  9
$SPLFRAME
 70
     0
  9
$SPLINETYPE
 70
     6
  9
$SPLINESEGS
 70
    10
  9
$HANDSEED
  5
A88
  9
$SURFTAB1
 70
     6
  9
$SURFTAB2
 70
     6
  9
$SURFTYPE
 70
     6
  9
$SURFU
 70
     6
  9
$SURFV
 70
     6
  9
$UCSBASE
  2

  9
$UCSNAME
  2

  9
$UCSORG
 10
0.0
 20
0.0
 30
0.0
  9
$UCSXDIR
 10
1.0
 20
0.0
 30
0.0
  9
$UCSYDIR
 10
0.0
 20
1.0
 30
0.0
  9
$UCSORTHOREF
  2

  9
$UCSORTHOVIEW
 70
     0
  9
$UCSORGTOP
 10
0.0
 20
0.0
 30
0.0
  9
$UCSORGBOTTOM
 10
0.0
 20
0.0
 30
0.0
  9
$UCSORGLEFT
 10
0.0
 20
0.0
 30
0.0
  9
$UCSORGRIGHT
 10
0.0
 20
0.0
 30
0.0
  9
$UCSORGFRONT
 10
0.0
 20
0.0
 30
0.0
  9
$UCSORGBACK
 10
0.0
 20
0.0
 30
0.0
  9
$PUCSBASE
  2

  9
$PUCSNAME
  2

  9
$PUCSORG
 10
0.0
 20
0.0
 30
0.0
  9
$PUCSXDIR
 10
1.0
 20
0.0
 30
0.0
  9
$PUCSYDIR
 10
0.0
 20
1.0
 30
0.0
  9
$PUCSORTHOREF
  2

  9
$PUCSORTHOVIEW
 70
     0
  9
$PUCSORGTOP
 10
0.0
 20
0.0
 30
0.0
  9
$PUCSORGBOTTOM
 10
0.0
 20
0.0
 30
0.0
  9
$PUCSORGLEFT
 10
0.0
 20
0.0
 30
0.0
  9
$PUCSORGRIGHT
 10
0.0
 20
0.0
 30
0.0
  9
$PUCSORGFRONT
 10
0.0
 20
0.0
 30
0.0
  9
$PUCSORGBACK
 10
0.0
 20
0.0
 30
0.0
  9
$USERI1
 70
     0
  9
$USERI2
 70
     0
  9
$USERI3
 70
     0
  9
$USERI4
 70
     0
  9
$USERI5
 70
     0
  9
$USERR1
 40
0.0
  9
$USERR2
 40
0.0
  9
$USERR3
 40
0.0
  9
$USERR4
 40
0.0
  9
$USERR5
 40
0.0
  9
$WORLDVIEW
 70
     1
  9
$SHADEDGE
 70
     3
  9
$SHADEDIF
 70
    70
  9
$TILEMODE
 70
     1
  9
$MAXACTVP
 70
    16
  9
$PINSBASE
 10
0.0
 20
0.0
 30
0.0
  9
$PLIMCHECK
 70
     0
  9
$PEXTMIN
 10
-1.000000000000000E+20
 20
-1.000000000000000E+20
 30
-1.000000000000000E+20
  9
$PEXTMAX
 10
-1.000000000000000E+20
 20
-1.000000000000000E+20
 30
-1.000000000000000E+20
  9
$PLIMMIN
 10
0.0
 20
0.0
  9
$PLIMMAX
 10
12.0
 20
9.0
  9
$UNITMODE
 70
     0
  9
$VISRETAIN
 70
     0
  9
$PLINEGEN
 70
     1
  9
$PSLTSCALE
 70
     0
  9
$TREEDEPTH
 70
  3020
  9
$CMLSTYLE
  2
STANDARD
  9
$CMLJUST
 70
     0
  9
$CMLSCALE
 40
1.0
  9
$PROXYGRAPHICS
 70
     1
  9
$MEASUREMENT
 70
     0
  9
$CELWEIGHT
370
    -1
  9
$ENDCAPS
280
     0
  9
$JOINSTYLE
280
     0
  9
$LWDISPLAY
290
     0
  9
$INSUNITS
 70
     0
  9
$HYPERLINKBASE
  1

  9
$STYLESHEET
  1

  9
$XEDIT
290
     1
  9
$CEPSNTYPE
380
     0
  9
$PSTYLEMODE
290
     1
  9
$FINGERPRINTGUID
  2
{EA4155E0-C538-473A-ADEA-611A4435FDAE}
  9
$VERSIONGUID
  2
{912CBE31-523E-4031-BD81-78A31A796468}
  9
$EXTNAMES
290
     1
  9
$PSVPSCALE
 40
0.0
  9
$OLESTARTUP
290
     0
  0
ENDSEC
  0
SECTION
  2
CLASSES
  0
CLASS
  1
ACDBDICTIONARYWDFLT
  2
AcDbDictionaryWithDefault
  3
AutoCAD 2000
 90
        0
280
     0
281
     0
  0
CLASS
  1
ACDBPLACEHOLDER
  2
AcDbPlaceHolder
  3
AutoCAD 2000
 90
        0
280
     0
281
     0
  0
CLASS
  1
LAYOUT
  2
AcDbLayout
  3
AutoCAD 2000
 90
        0
280
     0
281
     0
  0
CLASS
  1
IDBUFFER
  2
AcDbIdBuffer
  3
AutoCAD 2000
 90
    32768
280
     0
281
     0
  0
CLASS
  1
MATERIAL
  2
AcDbMaterial
  3
ObjectDBX Classes
 90
     1153
280
     0
281
     0
  0
CLASS
  1
VISUALSTYLE
  2
AcDbVisualStyle
  3
ObjectDBX Classes
 90
     4095
280
     0
281
     0
  0
CLASS
  1
TABLESTYLE
  2
AcDbTableStyle
  3
ObjectDBX Classes
 90
     4095
280
     0
281
     0
  0
CLASS
  1
SCALE
  2
AcDbScale
  3
ObjectDBX Classes
 90
     1153
280
     0
281
     0
  0
CLASS
  1
MLEADERSTYLE
  2
AcDbMLeaderStyle
  3
ACDB_MLEADERSTYLE_CLASS
 90
     4095
280
     0
281
     0
  0
CLASS
  1
EXACXREFPANELOBJECT
  2
ExAcXREFPanelObject
  3
EXAC_ESW
 90
    33793
280
     0
281
     0
  0
CLASS
  1
NPOCOLLECTION
  2
AcDbImpNonPersistentObjectsCollection
  3
ObjectDBX Classes
 90
    33921
280
     0
281
     0
  0
CLASS
  1
SORTENTSTABLE
  2
AcDbSortentsTable
  3
AutoCAD 2000
 90
        0
280
     0
281
     0
  0
CLASS
  1
DICTIONARYVAR
  2
AcDbDictionaryVar
  3
AutoCAD 2000
 90
        0
280
     0
281
     0
  0
CLASS
  1
CELLSTYLEMAP
  2
AcDbCellStyleMap
  3
ObjectDBX Classes
 90
     1152
280
     0
281
     0
  0
ENDSEC
  0
SECTION
  2
TABLES
  0
TABLE
  2
VPORT
  5
15A
330
0
100
AcDbSymbolTable
 70
     2
  0
VPORT
  5
A87
330
15A
100
AcDbSymbolTableRecord
100
AcDbViewportTableRecord
  2
*Active
 70
     0
 10
0.0
 20
0.0
 11
1.0
 21
1.0
 12
378.7085925834789
 22
363.3165800560516
 13
0.0
 23
0.0
 14
0.0
 24
0.0
 15
0.0
 25
0.0
 16
0.0
 26
0.0
 36
1.0
 17
790.8627849999996
 27
536.590625
 37
0.0
 40
1838.128243108394
 41
2.389645776566757
 42
50.0
 43
0.025
 44
0.0
 50
0.0
 51
0.0
 71
     0
 72
   100
 73
     1
 74
     0
 75
     0
 76
     0
 77
     0
 78
     0
281
     0
 65
     1
110
0.0
120
0.0
130
0.0
111
1.0
121
0.0
131
0.0
112
0.0
122
1.0
132
0.0
 79
     0
146
0.0
  0
ENDTAB
  0
TABLE
  2
LTYPE
  5
157
330
0
100
AcDbSymbolTable
 70
     1
  0
LTYPE
  5
165
330
157
100
AcDbSymbolTableRecord
100
AcDbLinetypeTableRecord
  2
BYBLOCK
 70
     0
  3

 72
    65
 73
     0
 40
0.0
  0
LTYPE
  5
166
330
157
100
AcDbSymbolTableRecord
100
AcDbLinetypeTableRecord
  2
BYLAYER
 70
     0
  3

 72
    65
 73
     0
 40
0.0
  0
LTYPE
  5
167
330
157
100
AcDbSymbolTableRecord
100
AcDbLinetypeTableRecord
  2
CONTINUOUS
 70
     0
  3
Solid line
 72
    65
 73
     0
 40
0.0
  0
ENDTAB
  0
TABLE
  2
LAYER
  5
154
330
0
100
AcDbSymbolTable
 70
     3
  0
LAYER
  5
162
102
{ACAD_XDICTIONARY
360
645
102
}
330
154
100
AcDbSymbolTableRecord
100
AcDbLayerTableRecord
  2
0
 70
     0
 62
     7
  6
CONTINUOUS
370
    -3
390
161
  0
LAYER
  5
17D
102
{ACAD_XDICTIONARY
360
64B
102
}
330
154
100
AcDbSymbolTableRecord
100
AcDbLayerTableRecord
  2
1
 70
     0
 62
     7
  6
CONTINUOUS
370
    -3
390
161
  0
LAYER
  5
17E
102
{ACAD_XDICTIONARY
360
64D
102
}
330
154
100
AcDbSymbolTableRecord
100
AcDbLayerTableRecord
  2
-1
 70
     0
 62
     7
  6
CONTINUOUS
370
    -3
390
161
  0
ENDTAB
  0
TABLE
  2
STYLE
  5
155
330
0
100
AcDbSymbolTable
 70
     1
  0
STYLE
  5
163
330
155
100
AcDbSymbolTableRecord
100
AcDbTextStyleTableRecord
  2
STANDARD
 70
     0
 40
0.0
 41
1.0
 50
0.0
 71
     0
 42
0.0
  3
txt
  4

  0
ENDTAB
  0
TABLE
  2
VIEW
  5
158
330
0
100
AcDbSymbolTable
 70
     0
  0
ENDTAB
  0
TABLE
  2
UCS
  5
159
330
0
100
AcDbSymbolTable
 70
     0
  0
ENDTAB
  0
TABLE
  2
APPID
  5
15B
330
0
100
AcDbSymbolTable
 70
     3
  0
APPID
  5
164
330
15B
100
AcDbSymbolTableRecord
100
AcDbRegAppTableRecord
  2
ACAD
 70
     0
  0
APPID
  5
613
330
15B
100
AcDbSymbolTableRecord
100
AcDbRegAppTableRecord
  2
ACAD_EXEMPT_FROM_CAD_STANDARDS
 70
     0
  0
APPID
  5
6B8
330
15B
100
AcDbSymbolTableRecord
100
AcDbRegAppTableRecord
  2
ACAD_MLEADERVER
 70
     0
  0
ENDTAB
  0
TABLE
  2
DIMSTYLE
  5
15C
330
0
100
AcDbSymbolTable
 70
     1
100
AcDbDimStyleTable
 71
     1
340
180
  0
DIMSTYLE
105
180
330
15C
100
AcDbSymbolTableRecord
100
AcDbDimStyleTableRecord
  2
STANDARD
 70
     0
340
163
  0
ENDTAB
  0
TABLE
  2
BLOCK_RECORD
  5
153
330
0
100
AcDbSymbolTable
 70
     0
  0
BLOCK_RECORD
  5
170
102
{ACAD_XDICTIONARY
360
5B3
102
}
330
153
100
AcDbSymbolTableRecord
100
AcDbBlockTableRecord
  2
*MODEL_SPACE
340
60F
  0
BLOCK_RECORD
  5
16C
102
{ACAD_XDICTIONARY
360
5B1
102
}
330
153
100
AcDbSymbolTableRecord
100
AcDbBlockTableRecord
  2
*PAPER_SPACE
340
610
  0
ENDTAB
  0
ENDSEC
  0
SECTION
  2
BLOCKS
  0
BLOCK
  5
171
330
170
100
AcDbEntity
  8
0
100
AcDbBlockBegin
  2
*MODEL_SPACE
 70
     0
 10
0.0
 20
0.0
 30
0.0
  3
*MODEL_SPACE
  1

  0
ENDBLK
  5
172
330
170
100
AcDbEntity
  8
0
100
AcDbBlockEnd
  0
BLOCK
  5
16D
330
16C
100
AcDbEntity
 67
     1
  8
0
100
AcDbBlockBegin
  2
*PAPER_SPACE
 70
     0
 10
0.0
 20
0.0
 30
0.0
  3
*PAPER_SPACE
  1

  0
ENDBLK
  5
16E
330
16C
100
AcDbEntity
 67
     1
  8
0
100
AcDbBlockEnd
  0
ENDSEC
  0
SECTION
  2
ENTITIES
  0
LINE
  5
3BE
330
170
100
AcDbEntity
  8
1
  6
Continuous
 62
     4
100
AcDbLine
 10
1216.525323482687
 20
663.8680238239913
 30
0.0
 11
574.1222474761785
 21
663.8676008053185
 31
0.0
  0
LINE
  5
3DE
330
170
100
AcDbEntity
  8
1
  6
Continuous
 62
     4
100
AcDbLine
 10
491.1222459571368
 20
623.4377484841143
 30
0.0
 11
491.1222459571368
 21
544.639152287285
 31
0.0
  0
LINE
  5
3F7
330
170
100
AcDbEntity
  8
1
  6
Continuous
 62
     4
100
AcDbLine
 10
574.1222474761789
 20
663.8676008053181
 30
0.0
 11
574.1223105337467
 21
759.6278551610386
 31
0.0
  0
LINE
  5
3F8
330
170
100
AcDbEntity
  8
1
  6
Continuous
 62
     4
100
AcDbLine
 10
564.1222497957146
 20
669.6973524667472
 30
0.0
 11
564.1223061768405
 21
755.3186525278818
 31
0.0
  0
LINE
  5
400
330
170
100
AcDbEntity
  8
1
  6
Continuous
 62
     4
100
AcDbLine
 10
571.7191684315857
 20
663.8680238239913
 30
0.0
 11
564.1222497957146
 21
669.6973524667472
 31
0.0
  0
LINE
  5
401
330
170
100
AcDbEntity
  8
1
  6
Continuous
 62
     4
100
AcDbLine
 10
571.7191684315857
 20
663.8680238239913
 30
0.0
 11
574.1222459571368
 21
663.8680222415788
 31
0.0
  0
LINE
  5
402
330
170
100
AcDbEntity
  8
1
  6
Continuous
 62
     4
100
AcDbLine
 10
571.7191684315849
 20
663.8680222415788
 30
0.0
 11
574.1222474764563
 21
663.8680222415788
 31
0.0
  0
LINE
  5
417
330
170
100
AcDbEntity
  8
1
  6
Continuous
 62
     4
100
AcDbLine
 10
894.1222459571362
 20
769.2617060024545
 30
0.0
 11
894.1222459571362
 21
540.5607586981828
 31
0.0
  0
LINE
  5
43E
330
170
100
AcDbEntity
  8
1
  6
Continuous
 62
     4
100
AcDbLine
 10
1297.122245957136
 20
623.4377484841143
 30
0.0
 11
1297.122245957136
 21
544.6949174474719
 31
0.0
  0
LINE
  5
451
330
170
100
AcDbEntity
  8
1
  6
Continuous
 62
     4
100
AcDbLine
 10
1224.122242118559
 20
669.6973524667472
 30
0.0
 11
1224.122169369562
 21
780.1751691749851
 31
0.0
  0
LINE
  5
452
330
170
100
AcDbEntity
  8
1
  6
Continuous
 62
     4
100
AcDbLine
 10
1214.122244437817
 20
663.8680222415788
 30
0.0
 11
1214.122170790119
 21
775.7106216586244
 31
0.0
  0
LINE
  5
45A
330
170
100
AcDbEntity
  8
1
  6
Continuous
 62
     4
100
AcDbLine
 10
1216.525323482687
 20
663.8680238239913
 30
0.0
 11
1224.122242118559
 21
669.6973524667472
 31
0.0
  0
LINE
  5
6CE
330
170
100
AcDbEntity
  8
0
  6
Continuous
 62
     4
100
AcDbLine
 10
1304.824827856124
 20
1023.632683145961
 30
0.0
 11
1316.631462201343
 21
1035.439317491178
 31
0.0
1001
ACAD
1010
0.0
1020
0.0
1030
0.0
  0
LINE
  5
6CF
330
170
100
AcDbEntity
  8
0
  6
Continuous
 62
     4
100
AcDbLine
 10
1305.735617372102
 20
1013.936870944137
 30
0.0
 11
1328.619995958843
 21
1036.821249530879
 31
0.0
1001
ACAD
1010
0.0
1020
0.0
1030
0.0
  0
LINE
  5
6D2
330
170
100
AcDbEntity
  8
0
  6
Continuous
 62
     4
100
AcDbLine
 10
1304.896673474631
 20
1002.491325328867
 30
0.0
 11
1337.686688334005
 21
1035.281340188242
 31
0.0
1001
ACAD
1010
0.0
1020
0.0
1030
0.0
  0
LINE
  5
6D3
330
170
100
AcDbEntity
  8
0
  6
Continuous
 62
     4
100
AcDbLine
 10
1301.657421960715
 20
988.6454720971533
 30
0.0
 11
1346.753380709166
 21
1033.741430845605
 31
0.0
1001
ACAD
1010
0.0
1020
0.0
1030
0.0
  0
LINE
  5
6D4
330
170
100
AcDbEntity
  8
0
  6
Continuous
 62
     4
100
AcDbLine
 10
1302.100534524837
 20
978.4819829434765
 30
0.0
 11
1355.820073084325
 21
1032.201521502966
 31
0.0
1001
ACAD
1010
0.0
1020
0.0
1030
0.0
  0
LINE
  5
6D5
330
170
100
AcDbEntity
  8
0
  6
Continuous
 62
     4
100
AcDbLine
 10
1302.543647088961
 20
968.3184937898005
 30
0.0
 11
1364.886765459488
 21
1030.661612160328
 31
0.0
1001
ACAD
1010
0.0
1020
0.0
1030
0.0
  0
LINE
  5
6D6
330
170
100
AcDbEntity
  8
0
  6
Continuous
 62
     4
100
AcDbLine
 10
1305.554391650342
 20
960.7226366333826
 30
0.0
 11
1377.683779894419
 21
1032.852024877461
 31
0.0
1001
ACAD
1010
0.0
1020
0.0
1030
0.0
  0
LINE
  5
6D7
330
170
100
AcDbEntity
  8
0
  6
Continuous
 62
     4
100
AcDbLine
 10
1316.160993368141
 20
960.7226366333826
 30
0.0
 11
1392.089423148453
 21
1036.651066413697
 31
0.0
1001
ACAD
1010
0.0
1020
0.0
1030
0.0
  0
LINE
  5
6D8
330
170
100
AcDbEntity
  8
0
  6
Continuous
 62
     4
100
AcDbLine
 10
1326.767595085939
 20
960.7226366333826
 30
0.0
 11
1406.011113276101
 21
1039.966154823549
 31
0.0
1001
ACAD
1010
0.0
1020
0.0
1030
0.0
  0
LINE
  5
6D9
330
170
100
AcDbEntity
  8
0
  6
Continuous
 62
     4
100
AcDbLine
 10
1337.374196803738
 20
960.7226366333826
 30
0.0
 11
1418.17794709879
 21
1041.526386928434
 31
0.0
1001
ACAD
1010
0.0
1020
0.0
1030
0.0
  0
LINE
  5
6DA
330
170
100
AcDbEntity
  8
0
  6
Continuous
 62
     4
100
AcDbLine
 10
1347.980798521537
 20
960.7226366333826
 30
0.0
 11
1374.178904902155
 21
986.9207430140006
 31
0.0
1001
ACAD
1010
0.0
1020
0.0
1030
0.0
  0
LINE
  5
6DB
330
170
100
AcDbEntity
  8
0
  6
Continuous
 62
     4
100
AcDbLine
 10
1358.587400239334
 20
960.7226366333826
 30
0.0
 11
1366.330183060902
 21
968.4654194549484
 31
0.0
1001
ACAD
1010
0.0
1020
0.0
1030
0.0
  0
LINE
  5
6DC
330
170
100
AcDbEntity
  8
0
  6
Continuous
 62
     4
100
AcDbLine
 10
1386.895892523758
 20
989.0311289178074
 30
0.0
 11
1439.355953371278
 21
1041.491189765326
 31
0.0
1001
ACAD
1010
0.0
1020
0.0
1030
0.0
  0
LINE
  5
6DD
330
170
100
AcDbEntity
  8
0
  6
Continuous
 62
     4
100
AcDbLine
 10
1376.399632566355
 20
989.1414706782004
 30
0.0
 11
1430.344780921473
 21
1043.086619033322
 31
0.0
1001
ACAD
1010
0.0
1020
0.0
1030
0.0
  0
LINE
  5
6DE
330
170
100
AcDbEntity
  8
0
  6
Continuous
 62
     4
100
AcDbLine
 10
1395.192584448277
 20
986.7212191245254
 30
0.0
 11
1446.992099359905
 21
1038.520734036152
 31
0.0
1001
ACAD
1010
0.0
1020
0.0
1030
0.0
  0
LINE
  5
6DF
330
170
100
AcDbEntity
  8
0
  6
Continuous
 62
     4
100
AcDbLine
 10
1398.356274878318
 20
979.2783078367673
 30
0.0
 11
1454.628245348525
 21
1035.550278306982
 31
0.0
1001
ACAD
1010
0.0
1020
0.0
1030
0.0
  0
LINE
  5
6E0
330
170
100
AcDbEntity
  8
0
  6
Continuous
 62
     4
100
AcDbLine
 10
1401.519965308359
 20
971.8353965490097
 30
0.0
 11
1462.264391337155
 21
1032.579822577806
 31
0.0
1001
ACAD
1010
0.0
1020
0.0
1030
0.0
  0
LINE
  5
6E1
330
170
100
AcDbEntity
  8
0
  6
Continuous
 62
     4
100
AcDbLine
 10
1404.683655738399
 20
964.3924852612515
 30
0.0
 11
1470.177886311241
 21
1029.886715834098
 31
0.0
1001
ACAD
1010
0.0
1020
0.0
1030
0.0
  0
LINE
  5
6E2
330
170
100
AcDbEntity
  8
0
  6
Continuous
 62
     4
100
AcDbLine
 10
1411.62040882833
 20
960.7226366333826
 30
0.0
 11
1478.093824233047
 21
1027.1960520381
 31
0.0
1001
ACAD
1010
0.0
1020
0.0
1030
0.0
  0
LINE
  5
6E3
330
170
100
AcDbEntity
  8
0
  6
Continuous
 62
     4
100
AcDbLine
 10
1422.227010546128
 20
960.7226366333826
 30
0.0
 11
1480.302365224545
 21
1018.797991311801
 31
0.0
1001
ACAD
1010
0.0
1020
0.0
1030
0.0
  0
LINE
  5
6E4
330
170
100
AcDbEntity
  8
0
  6
Continuous
 62
     4
100
AcDbLine
 10
1432.833612263928
 20
960.7226366333826
 30
0.0
 11
1476.479059383575
 21
1004.368083753031
 31
0.0
1001
ACAD
1010
0.0
1020
0.0
1030
0.0
  0
LINE
  5
6E5
330
170
100
AcDbEntity
  8
0
  6
Continuous
 62
     4
100
AcDbLine
 10
1443.440213981723
 20
960.7226366333826
 30
0.0
 11
1457.324685656725
 21
974.6071083083837
 31
0.0
1001
ACAD
1010
0.0
1020
0.0
1030
0.0
  0
LINE
  5
6E6
330
170
100
AcDbEntity
  8
0
  6
Continuous
 62
     4
100
AcDbLine
 10
456.1222459571365
 20
598.3707921843599
 30
0.0
 11
466.3122124709594
 21
608.5607586981825
 31
0.0
1001
ACAD
1010
0.0
1020
0.0
1030
0.0
  0
LINE
  5
6E7
330
170
100
AcDbEntity
  8
0
  6
Continuous
 62
     4
100
AcDbLine
 10
456.1222459571365
 20
587.7641904665606
 30
0.0
 11
473.6222459571368
 21
605.2641904665612
 31
0.0
1001
ACAD
1010
0.0
1020
0.0
1030
0.0
  0
LINE
  5
6E8
330
170
100
AcDbEntity
  8
0
  6
Continuous
 62
     4
100
AcDbLine
 10
456.1222459571365
 20
577.1575887487615
 30
0.0
 11
473.6222459571368
 21
594.657588748762
 31
0.0
1001
ACAD
1010
0.0
1020
0.0
1030
0.0
  0
LINE
  5
6E9
330
170
100
AcDbEntity
  8
0
  6
Continuous
 62
     4
100
AcDbLine
 10
456.1222459571365
 20
566.5509870309628
 30
0.0
 11
473.6222459571368
 21
584.0509870309631
 31
0.0
1001
ACAD
1010
0.0
1020
0.0
1030
0.0
  0
LINE
  5
6EA
330
170
100
AcDbEntity
  8
0
  6
Continuous
 62
     4
100
AcDbLine
 10
456.1222459571365
 20
555.9443853131641
 30
0.0
 11
473.6222459571368
 21
573.4443853131643
 31
0.0
1001
ACAD
1010
0.0
1020
0.0
1030
0.0
  0
LINE
  5
6EB
330
170
100
AcDbEntity
  8
0
  6
Continuous
 62
     4
100
AcDbLine
 10
462.2493386085039
 20
551.4648762467325
 30
0.0
 11
473.6222459571368
 21
562.8377835953651
 31
0.0
1001
ACAD
1010
0.0
1020
0.0
1030
0.0
  0
LINE
  5
6EC
330
170
100
AcDbEntity
  8
0
  6
Continuous
 62
     4
100
AcDbLine
 10
472.8559403263025
 20
551.4648762467325
 30
0.0
 11
473.6222459571368
 21
552.2311818775661
 31
0.0
1001
ACAD
1010
0.0
1020
0.0
1030
0.0
  0
LINE
  5
6ED
330
170
100
AcDbEntity
  8
0
  6
Continuous
 62
     4
100
AcDbLine
 10
508.6222459571366
 20
598.3707921843599
 30
0.0
 11
518.8122124709598
 21
608.5607586981825
 31
0.0
1001
ACAD
1010
0.0
1020
0.0
1030
0.0
  0
LINE
  5
6EE
330
170
100
AcDbEntity
  8
0
  6
Continuous
 62
     4
100
AcDbLine
 10
508.6222459571366
 20
587.7641904665609
 30
0.0
 11
529.4188141887584
 21
608.5607586981825
 31
0.0
1001
ACAD
1010
0.0
1020
0.0
1030
0.0
  0
LINE
  5
6EF
330
170
100
AcDbEntity
  8
0
  6
Continuous
 62
     4
100
AcDbLine
 10
508.6222459571366
 20
577.1575887487615
 30
0.0
 11
540.0254159065569
 21
608.5607586981825
 31
0.0
1001
ACAD
1010
0.0
1020
0.0
1030
0.0
  0
LINE
  5
6F0
330
170
100
AcDbEntity
  8
0
  6
Continuous
 62
     4
100
AcDbLine
 10
508.6222459571366
 20
566.5509870309628
 30
0.0
 11
550.6320176243561
 21
608.5607586981825
 31
0.0
1001
ACAD
1010
0.0
1020
0.0
1030
0.0
  0
LINE
  5
6F1
330
170
100
AcDbEntity
  8
0
  6
Continuous
 62
     4
100
AcDbLine
 10
508.6222459571366
 20
555.9443853131638
 30
0.0
 11
574.1222459571368
 21
621.4443853131645
 31
0.0
1001
ACAD
1010
0.0
1020
0.0
1030
0.0
  0
LINE
  5
6F2
330
170
100
AcDbEntity
  8
0
  6
Continuous
 62
     4
100
AcDbLine
 10
514.7493386085043
 20
551.4648762467325
 30
0.0
 11
574.1222459571368
 21
610.8377835953652
 31
0.0
1001
ACAD
1010
0.0
1020
0.0
1030
0.0
  0
LINE
  5
6F3
330
170
100
AcDbEntity
  8
0
  6
Continuous
 62
     4
100
AcDbLine
 10
522.6222459571365
 20
548.731181877566
 30
0.0
 11
574.1222459571368
 21
600.2311818775662
 31
0.0
1001
ACAD
1010
0.0
1020
0.0
1030
0.0
  0
LINE
  5
6F4
330
170
100
AcDbEntity
  8
0
  6
Continuous
 62
     4
100
AcDbLine
 10
525.0584244955526
 20
540.5607586981825
 30
0.0
 11
574.1222459571368
 21
589.6245801597673
 31
0.0
1001
ACAD
1010
0.0
1020
0.0
1030
0.0
  0
LINE
  5
6F5
330
170
100
AcDbEntity
  8
0
  6
Continuous
 62
     4
100
AcDbLine
 10
535.6650262133512
 20
540.5607586981825
 30
0.0
 11
574.1222459571368
 21
579.0179784419684
 31
0.0
1001
ACAD
1010
0.0
1020
0.0
1030
0.0
  0
LINE
  5
6F6
330
170
100
AcDbEntity
  8
0
  6
Continuous
 62
     4
100
AcDbLine
 10
554.0548596706742
 20
548.3439904377065
 30
0.0
 11
574.1222459571368
 21
568.4113767241691
 31
0.0
1001
ACAD
1010
0.0
1020
0.0
1030
0.0
  0
LINE
  5
6F7
330
170
100
AcDbEntity
  8
0
  6
Continuous
 62
     4
100
AcDbLine
 10
557.2186484008157
 20
540.9011774500493
 30
0.0
 11
574.1222459571368
 21
557.8047750063701
 31
0.0
1001
ACAD
1010
0.0
1020
0.0
1030
0.0
  0
LINE
  5
6F8
330
170
100
AcDbEntity
  8
0
  6
Continuous
 62
     4
100
AcDbLine
 10
567.484831366748
 20
540.5607586981825
 30
0.0
 11
574.1222459571368
 21
547.1981732885711
 31
0.0
1001
ACAD
1010
0.0
1020
0.0
1030
0.0
  0
LINE
  5
6F9
330
170
100
AcDbEntity
  8
0
  6
Continuous
 62
     4
100
AcDbLine
 10
557.7933077862248
 20
615.7220488600512
 30
0.0
 11
574.1222459571368
 21
632.0509870309632
 31
0.0
1001
ACAD
1010
0.0
1020
0.0
1030
0.0
  0
LINE
  5
6FA
330
170
100
AcDbEntity
  8
0
  6
Continuous
 62
     4
100
AcDbLine
 10
564.1222459571367
 20
643.2641904665619
 30
0.0
 11
574.1222459571368
 21
653.2641904665618
 31
0.0
1001
ACAD
1010
0.0
1020
0.0
1030
0.0
  0
LINE
  5
6FB
330
170
100
AcDbEntity
  8
0
  6
Continuous
 62
     4
100
AcDbLine
 10
561.0216411437159
 20
629.5569839353415
 30
0.0
 11
574.1222459571368
 21
642.6575887487624
 31
0.0
1001
ACAD
1010
0.0
1020
0.0
1030
0.0
  0
LINE
  5
6FC
330
170
100
AcDbEntity
  8
0
  6
Continuous
 62
     4
100
AcDbLine
 10
564.1222459571367
 20
653.8707921843602
 30
0.0
 11
571.8122139921015
 21
661.5607602193254
 31
0.0
1001
ACAD
1010
0.0
1020
0.0
1030
0.0
  0
LINE
  5
6FD
330
170
100
AcDbEntity
  8
0
  6
Continuous
 62
     4
100
AcDbLine
 10
1214.121750875013
 20
651.3705814663918
 30
0.0
 11
1220.930876356523
 21
658.1797069479019
 31
0.0
1001
ACAD
1010
0.0
1020
0.0
1030
0.0
  0
LINE
  5
6FE
330
170
100
AcDbEntity
  8
0
  6
Continuous
 62
     4
100
AcDbLine
 10
1214.121750875013
 20
640.7639797485928
 30
0.0
 11
1224.121795050061
 21
650.7640239236408
 31
0.0
1001
ACAD
1010
0.0
1020
0.0
1030
0.0
  0
LINE
  5
6FF
330
170
100
AcDbEntity
  8
0
  6
Continuous
 62
     4
100
AcDbLine
 10
1214.121879363426
 20
630.157506519207
 30
0.0
 11
1224.630194013315
 21
640.6658211690977
 31
0.0
1001
ACAD
1010
0.0
1020
0.0
1030
0.0
  0
LINE
  5
700
330
170
100
AcDbEntity
  8
0
  6
Continuous
 62
     4
100
AcDbLine
 10
1214.121922761129
 20
619.5509481991104
 30
0.0
 11
1226.63697012348
 21
632.0659955614616
 31
0.0
1001
ACAD
1010
0.0
1020
0.0
1030
0.0
  0
LINE
  5
701
330
170
100
AcDbEntity
  8
0
  6
Continuous
 62
     4
100
AcDbLine
 10
1214.121966158831
 20
608.9443898790133
 30
0.0
 11
1228.643746233643
 21
623.4661699538265
 31
0.0
1001
ACAD
1010
0.0
1020
0.0
1030
0.0
  0
LINE
  5
702
330
170
100
AcDbEntity
  8
0
  6
Continuous
 62
     4
100
AcDbLine
 10
1214.122009556533
 20
598.3378315589171
 30
0.0
 11
1230.650522343807
 21
614.8663443461908
 31
0.0
1001
ACAD
1010
0.0
1020
0.0
1030
0.0
  0
LINE
  5
703
330
170
100
AcDbEntity
  8
0
  6
Continuous
 62
     4
100
AcDbLine
 10
1214.122052954236
 20
587.7312732388206
 30
0.0
 11
1234.951412921652
 21
608.5606332062365
 31
0.0
1001
ACAD
1010
0.0
1020
0.0
1030
0.0
  0
LINE
  5
704
330
170
100
AcDbEntity
  8
0
  6
Continuous
 62
     4
100
AcDbLine
 10
1214.122096351938
 20
577.1247149187238
 30
0.0
 11
1245.558058037508
 21
608.560676604294
 31
0.0
1001
ACAD
1010
0.0
1020
0.0
1030
0.0
  0
LINE
  5
705
330
170
100
AcDbEntity
  8
0
  6
Continuous
 62
     4
100
AcDbLine
 10
1214.122139749641
 20
566.5181565986273
 30
0.0
 11
1256.164703153365
 21
608.5607200023513
 31
0.0
1001
ACAD
1010
0.0
1020
0.0
1030
0.0
  0
LINE
  5
706
330
170
100
AcDbEntity
  8
0
  6
Continuous
 62
     4
100
AcDbLine
 10
1214.122183147343
 20
555.9115982785304
 30
0.0
 11
1266.771348269222
 21
608.5607634004091
 31
0.0
1001
ACAD
1010
0.0
1020
0.0
1030
0.0
  0
LINE
  5
707
330
170
100
AcDbEntity
  8
0
  6
Continuous
 62
     4
100
AcDbLine
 10
1214.122226545045
 20
545.305039958434
 30
0.0
 11
1277.377993385078
 21
608.5608067984665
 31
0.0
1001
ACAD
1010
0.0
1020
0.0
1030
0.0
  0
LINE
  5
708
330
170
100
AcDbEntity
  8
0
  6
Continuous
 62
     4
100
AcDbLine
 10
1219.984547002593
 20
540.560758698183
 30
0.0
 11
1279.622245957135
 21
600.1984576527243
 31
0.0
1001
ACAD
1010
0.0
1020
0.0
1030
0.0
  0
LINE
  5
709
330
170
100
AcDbEntity
  8
0
  6
Continuous
 62
     4
100
AcDbLine
 10
1230.591148720393
 20
540.560758698183
 30
0.0
 11
1231.095548534717
 21
541.0651585125072
 31
0.0
1001
ACAD
1010
0.0
1020
0.0
1030
0.0
  0
LINE
  5
70A
330
170
100
AcDbEntity
  8
0
  6
Continuous
 62
     4
100
AcDbLine
 10
1244.063125593338
 20
543.4261338533312
 30
0.0
 11
1279.622245957135
 21
578.9852542171262
 31
0.0
1001
ACAD
1010
0.0
1020
0.0
1030
0.0
  0
LINE
  5
70B
330
170
100
AcDbEntity
  8
0
  6
Continuous
 62
     4
100
AcDbLine
 10
1251.80435215599
 20
540.5607586981828
 30
0.0
 11
1279.622245957135
 21
568.3786524993276
 31
0.0
1001
ACAD
1010
0.0
1020
0.0
1030
0.0
  0
LINE
  5
70C
330
170
100
AcDbEntity
  8
0
  6
Continuous
 62
     4
100
AcDbLine
 10
1240.001148720334
 20
549.9707586981243
 30
0.0
 11
1279.622245957135
 21
589.5918559349253
 31
0.0
1001
ACAD
1010
0.0
1020
0.0
1030
0.0
  0
LINE
  5
70D
330
170
100
AcDbEntity
  8
0
  6
Continuous
 62
     4
100
AcDbLine
 10
1262.410953873789
 20
540.5607586981828
 30
0.0
 11
1265.622232817894
 21
543.7720376422873
 31
0.0
1001
ACAD
1010
0.0
1020
0.0
1030
0.0
  0
LINE
  5
70E
330
170
100
AcDbEntity
  8
0
  6
Continuous
 62
     4
100
AcDbLine
 10
1273.315102898457
 20
551.4649077228508
 30
0.0
 11
1279.622245957136
 21
557.7720507815286
 31
0.0
1001
ACAD
1010
0.0
1020
0.0
1030
0.0
  0
LINE
  5
70F
330
170
100
AcDbEntity
  8
0
  6
Continuous
 62
     4
100
AcDbLine
 10
1314.622245957135
 20
598.3707921843455
 30
0.0
 11
1324.812454653688
 21
608.5610008808987
 31
0.0
1001
ACAD
1010
0.0
1020
0.0
1030
0.0
  0
LINE
  5
710
330
170
100
AcDbEntity
  8
0
  6
Continuous
 62
     4
100
AcDbLine
 10
1314.622245957135
 20
587.7641904665467
 30
0.0
 11
1332.122245957136
 21
605.2641904665472
 31
0.0
1001
ACAD
1010
0.0
1020
0.0
1030
0.0
  0
LINE
  5
711
330
170
100
AcDbEntity
  8
0
  6
Continuous
 62
     4
100
AcDbLine
 10
1314.622245957135
 20
577.1575887487478
 30
0.0
 11
1332.122245957135
 21
594.6575887487484
 31
0.0
1001
ACAD
1010
0.0
1020
0.0
1030
0.0
  0
LINE
  5
712
330
170
100
AcDbEntity
  8
0
  6
Continuous
 62
     4
100
AcDbLine
 10
1314.622245957135
 20
566.5509870309488
 30
0.0
 11
1332.122245957135
 21
584.0509870309495
 31
0.0
1001
ACAD
1010
0.0
1020
0.0
1030
0.0
  0
LINE
  5
713
330
170
100
AcDbEntity
  8
0
  6
Continuous
 62
     4
100
AcDbLine
 10
1314.622245957134
 20
555.9443853131498
 30
0.0
 11
1332.122245957135
 21
573.4443853131506
 31
0.0
1001
ACAD
1010
0.0
1020
0.0
1030
0.0
  0
LINE
  5
714
330
170
100
AcDbEntity
  8
0
  6
Continuous
 62
     4
100
AcDbLine
 10
1320.749564167067
 20
551.4651018052827
 30
0.0
 11
1332.122245957135
 21
562.8377835953515
 31
0.0
1001
ACAD
1010
0.0
1020
0.0
1030
0.0
  0
LINE
  5
715
330
170
100
AcDbEntity
  8
0
  6
Continuous
 62
     4
100
AcDbLine
 10
1331.356209282922
 20
551.4651452033403
 30
0.0
 11
1332.122245957134
 21
552.2311818775526
 31
0.0
1001
ACAD
1010
0.0
1020
0.0
1030
0.0
  0
LINE
  5
716
330
170
100
AcDbEntity
  8
1
  6
Continuous
 62
     4
100
AcDbLine
 10
564.1223061768405
 20
745.1286860140592
 30
0.0
 11
574.1223075710709
 21
755.1286874082899
 31
0.0
1001
ACAD
1010
0.0
1020
0.0
1030
0.0
  0
LINE
  5
717
330
170
100
AcDbEntity
  8
1
  6
Continuous
 62
     4
100
AcDbLine
 10
564.1223061768405
 20
734.52208429626
 30
0.0
 11
574.1223005866813
 21
744.5220787061011
 31
0.0
1001
ACAD
1010
0.0
1020
0.0
1030
0.0
  0
LINE
  5
718
330
170
100
AcDbEntity
  8
1
  6
Continuous
 62
     4
100
AcDbLine
 10
564.1223128868782
 20
723.9154892884987
 30
0.0
 11
574.1223072967191
 21
733.9154836983397
 31
0.0
1001
ACAD
1010
0.0
1020
0.0
1030
0.0
  0
LINE
  5
719
330
170
100
AcDbEntity
  8
0
  6
Continuous
 62
     4
100
AcDbLine
 10
564.122319596916
 20
713.3088942807376
 30
0.0
 11
574.1223140067567
 21
723.3088886905788
 31
0.0
1001
ACAD
1010
0.0
1020
0.0
1030
0.0
  0
LINE
  5
71A
330
170
100
AcDbEntity
  8
0
  6
Continuous
 62
     4
100
AcDbLine
 10
564.1223263069536
 20
702.7022992729763
 30
0.0
 11
574.122320716795
 21
712.7022936828175
 31
0.0
1001
ACAD
1010
0.0
1020
0.0
1030
0.0
  0
LINE
  5
71B
330
170
100
AcDbEntity
  8
0
  6
Continuous
 62
     4
100
AcDbLine
 10
564.1223330169914
 20
692.095704265215
 30
0.0
 11
574.1223274268327
 21
702.0956986750562
 31
0.0
1001
ACAD
1010
0.0
1020
0.0
1030
0.0
  0
LINE
  5
71C
330
170
100
AcDbEntity
  8
0
  6
Continuous
 62
     4
100
AcDbLine
 10
564.1223397270294
 20
681.4891092574538
 30
0.0
 11
574.12233413687
 21
691.4891036672949
 31
0.0
1001
ACAD
1010
0.0
1020
0.0
1030
0.0
  0
LINE
  5
71D
330
170
100
AcDbEntity
  8
0
  6
Continuous
 62
     4
100
AcDbLine
 10
564.1223464370673
 20
670.8825142496923
 30
0.0
 11
574.1223408469081
 21
680.8825086595337
 31
0.0
1001
ACAD
1010
0.0
1020
0.0
1030
0.0
  0
LINE
  5
71E
330
170
100
AcDbEntity
  8
0
  6
Continuous
 62
     4
100
AcDbLine
 10
569.4531993387236
 20
665.6067654335496
 30
0.0
 11
574.1223475569459
 21
670.2759136517723
 31
0.0
1001
ACAD
1010
0.0
1020
0.0
1030
0.0
  0
LINE
  5
71F
330
170
100
AcDbEntity
  8
1
  6
Continuous
 62
     4
100
AcDbLine
 10
1214.122170790119
 20
765.5206551448017
 30
0.0
 11
1224.122172434531
 21
775.5206567892133
 31
0.0
1001
ACAD
1010
0.0
1020
0.0
1030
0.0
  0
LINE
  5
720
330
170
100
AcDbEntity
  8
1
  6
Continuous
 62
     4
100
AcDbLine
 10
1214.122170790119
 20
754.9140534270024
 30
0.0
 11
1224.122179418912
 21
764.9140620557954
 31
0.0
1001
ACAD
1010
0.0
1020
0.0
1030
0.0
  0
LINE
  5
721
330
170
100
AcDbEntity
  8
1
  6
Continuous
 62
     4
100
AcDbLine
 10
1214.122170790119
 20
744.3074517092031
 30
0.0
 11
1224.122179418912
 21
754.3074603379963
 31
0.0
1001
ACAD
1010
0.0
1020
0.0
1030
0.0
  0
LINE
  5
722
330
170
100
AcDbEntity
  8
1
  6
Continuous
 62
     4
100
AcDbLine
 10
1214.122170790119
 20
733.7008499914045
 30
0.0
 11
1224.122179418912
 21
743.7008586201971
 31
0.0
1001
ACAD
1010
0.0
1020
0.0
1030
0.0
  0
LINE
  5
723
330
170
100
AcDbEntity
  8
1
  6
Continuous
 62
     4
100
AcDbLine
 10
1214.122170790119
 20
723.0942482736053
 30
0.0
 11
1224.122179418912
 21
733.0942569023982
 31
0.0
1001
ACAD
1010
0.0
1020
0.0
1030
0.0
  0
LINE
  5
724
330
170
100
AcDbEntity
  8
0
  6
Continuous
 62
     4
100
AcDbLine
 10
1214.122207613968
 20
712.4876097319567
 30
0.0
 11
1224.12221624276
 21
722.4876183607502
 31
0.0
1001
ACAD
1010
0.0
1020
0.0
1030
0.0
  0
LINE
  5
725
330
170
100
AcDbEntity
  8
0
  6
Continuous
 62
     4
100
AcDbLine
 10
1214.122207613968
 20
701.881008014158
 30
0.0
 11
1224.12221624276
 21
711.8810166429508
 31
0.0
1001
ACAD
1010
0.0
1020
0.0
1030
0.0
  0
LINE
  5
726
330
170
100
AcDbEntity
  8
0
  6
Continuous
 62
     4
100
AcDbLine
 10
1214.122207613968
 20
691.2744062963586
 30
0.0
 11
1224.12221624276
 21
701.274414925152
 31
0.0
1001
ACAD
1010
0.0
1020
0.0
1030
0.0
  0
LINE
  5
727
330
170
100
AcDbEntity
  8
0
  6
Continuous
 62
     4
100
AcDbLine
 10
1214.122207613968
 20
680.6678045785599
 30
0.0
 11
1224.12221624276
 21
690.6678132073529
 31
0.0
1001
ACAD
1010
0.0
1020
0.0
1030
0.0
  0
LINE
  5
728
330
170
100
AcDbEntity
  8
0
  6
Continuous
 62
     4
100
AcDbLine
 10
1214.122207613968
 20
670.0612028607606
 30
0.0
 11
1224.12221624276
 21
680.0612114895539
 31
0.0
1001
ACAD
1010
0.0
1020
0.0
1030
0.0
  0
LINE
  5
729
330
170
100
AcDbEntity
  8
-1
  6
Continuous
 62
     7
100
AcDbLine
 10
1406.243564829724
 20
960.7226366333826
 30
0.0
 11
1394.243564829722
 21
988.9538866333818
 31
0.0
  0
LINE
  5
72A
330
170
100
AcDbEntity
  8
-1
  6
Continuous
 62
     7
100
AcDbLine
 10
1394.243564829722
 20
988.9538866333818
 30
0.0
 11
1375.218564829723
 21
989.1538866333824
 31
0.0
  0
LINE
  5
72B
330
170
100
AcDbEntity
  8
-1
  6
Continuous
 62
     7
100
AcDbLine
 10
1406.243564829724
 20
960.7226366333826
 30
0.0
 11
1450.674814829723
 21
960.7226366333826
 31
0.0
  0
LINE
  5
72C
330
170
100
AcDbEntity
  8
-1
  6
Continuous
 62
     7
100
AcDbLine
 10
1363.043564829722
 20
960.7226366333826
 30
0.0
 11
1302.874814829724
 21
960.7226366333826
 31
0.0
  0
LINE
  5
72D
330
170
100
AcDbEntity
  8
-1
  6
Continuous
 62
     7
100
AcDbLine
 10
1302.874814829724
 20
960.7226366333826
 30
0.0
 11
1301.593564829723
 21
990.1101366333817
 31
0.0
  0
LINE
  5
72E
330
170
100
AcDbEntity
  8
-1
  6
Continuous
 62
     7
100
AcDbLine
 10
1301.593564829723
 20
990.1101366333817
 30
0.0
 11
1306.312314829717
 21
1007.797636633381
 31
0.0
  0
LINE
  5
72F
330
170
100
AcDbEntity
  8
-1
  6
Continuous
 62
     7
100
AcDbLine
 10
1306.312314829717
 20
1007.797636633381
 30
0.0
 11
1303.949814829723
 21
1032.947636633382
 31
0.0
  0
LINE
  5
730
330
170
100
AcDbEntity
  8
-1
  6
Continuous
 62
     7
100
AcDbLine
 10
1303.949814829723
 20
1032.947636633382
 30
0.0
 11
1325.962314829723
 21
1037.27263663338
 31
0.0
  0
LINE
  5
731
330
170
100
AcDbEntity
  8
-1
  6
Continuous
 62
     7
100
AcDbLine
 10
1325.962314829723
 20
1037.27263663338
 30
0.0
 11
1367.61856482972
 21
1030.197636633382
 31
0.0
  0
LINE
  5
732
330
170
100
AcDbEntity
  8
-1
  6
Continuous
 62
     7
100
AcDbLine
 10
1367.61856482972
 20
1030.197636633382
 30
0.0
 11
1403.381064829724
 21
1039.628886633379
 31
0.0
  0
LINE
  5
733
330
170
100
AcDbEntity
  8
-1
  6
Continuous
 62
     7
100
AcDbLine
 10
1403.381064829724
 20
1039.628886633379
 30
0.0
 11
1434.037314829724
 21
1043.560136633381
 31
0.0
  0
LINE
  5
734
330
170
100
AcDbEntity
  8
-1
  6
Continuous
 62
     7
100
AcDbLine
 10
1434.037314829724
 20
1043.560136633381
 30
0.0
 11
1462.331064829724
 21
1032.553886633381
 31
0.0
  0
LINE
  5
735
330
170
100
AcDbEntity
  8
-1
  6
Continuous
 62
     7
100
AcDbLine
 10
1462.331064829724
 20
1032.553886633381
 30
0.0
 11
1481.987314829724
 21
1025.872636633381
 31
0.0
  0
LINE
  5
736
330
170
100
AcDbEntity
  8
-1
  6
Continuous
 62
     7
100
AcDbLine
 10
1481.987314829724
 20
1025.872636633381
 30
0.0
 11
1474.124814829723
 21
992.8601366333818
 31
0.0
  0
LINE
  5
737
330
170
100
AcDbEntity
  8
-1
  6
Continuous
 62
     7
100
AcDbLine
 10
1474.124814829723
 20
992.8601366333818
 30
0.0
 11
1461.549814829724
 21
983.4288866333825
 31
0.0
  0
LINE
  5
738
330
170
100
AcDbEntity
  8
-1
  6
Continuous
 62
     7
100
AcDbLine
 10
1461.549814829724
 20
983.4288866333825
 30
0.0
 11
1450.674814829723
 21
960.7226366333826
 31
0.0
  0
LINE
  5
739
330
170
100
AcDbEntity
  8
-1
  6
Continuous
 62
     3
100
AcDbLine
 10
1402.243564829722
 20
988.9538866333818
 30
0.0
 11
1539.568475153838
 21
988.9538866333818
 31
0.0
  0
LINE
  5
73A
330
170
100
AcDbEntity
  8
-1
  6
Continuous
 62
     3
100
AcDbLine
 10
1458.674814829723
 20
960.7226366333826
 30
0.0
 11
1539.568475153838
 21
960.7226366333826
 31
0.0
  0
LINE
  5
73B
330
170
100
AcDbEntity
  8
-1
  6
Continuous
 62
     3
100
AcDbLine
 10
1363.043564829722
 20
952.7226366333826
 30
0.0
 11
1363.043564829722
 21
879.0288866333829
 31
0.0
  0
LINE
  5
73C
330
170
100
AcDbEntity
  8
-1
  6
Continuous
 62
     3
100
AcDbLine
 10
1406.243564829724
 20
952.7226366333826
 30
0.0
 11
1406.243564829724
 21
879.0288866333829
 31
0.0
  0
LINE
  5
73D
330
170
100
AcDbEntity
  8
-1
  6
Continuous
 62
     3
100
AcDbLine
 10
1330.856064829724
 20
885.0101366333825
 30
0.0
 11
1359.331064829723
 21
951.9851366333817
 31
0.0
  0
LINE
  5
73E
330
170
100
AcDbEntity
  8
-1
  6
Continuous
 62
     7
100
AcDbLine
 10
1363.037314829724
 20
960.7226366333826
 30
0.0
 11
1375.043564829725
 21
988.9538866333818
 31
0.0
  0
LINE
  5
73F
330
170
100
AcDbEntity
  8
-1
  6
Continuous
 62
     3
100
AcDbLine
 10
1382.531064829723
 20
886.8663866333825
 30
0.0
 11
1386.756064829723
 21
886.8663866333825
 31
0.0
  0
ARC
  5
740
330
170
100
AcDbEntity
  8
-1
  6
Continuous
 62
     3
100
AcDbCircle
 10
1363.043564829722
 20
960.7226366333826
 30
0.0
 40
73.85625
100
AcDbArc
 50
246.9712559999955
 51
270.0
  0
LINE
  5
741
330
170
100
AcDbEntity
  8
-1
  6
Continuous
 62
     3
100
AcDbLine
 10
1531.568475153838
 20
1012.666386633381
 30
0.0
 11
1531.568475153838
 21
1023.803886633381
 31
0.0
  0
LINE
  5
742
330
170
100
AcDbEntity
  8
-1
  6
Continuous
 62
     3
100
AcDbLine
 10
1316.912314829723
 20
901.8476366333828
 30
0.0
 11
1312.137314829723
 21
904.366386633383
 31
0.0
  0
LINE
  5
743
330
170
100
AcDbEntity
  8
-1
  6
Continuous
 62
     3
100
AcDbLine
 10
1312.137314829723
 20
904.366386633383
 30
0.0
 11
1302.818564829723
 21
904.366386633383
 31
0.0
  0
LINE
  5
744
330
170
100
AcDbEntity
  8
-1
  6
Continuous
 62
     5
100
AcDbLine
 10
1388.637314829717
 20
857.8351366333825
 30
0.0
 11
1426.637314829724
 21
857.8351366333825
 31
0.0
  0
LINE
  5
745
330
170
100
AcDbEntity
  8
-1
  6
Continuous
 62
     5
100
AcDbLine
 10
1531.562225153838
 20
905.972636633383
 30
0.0
 11
1568.562225153837
 21
905.972636633383
 31
0.0
  0
LINE
  5
746
330
170
100
AcDbEntity
  8
-1
  6
Continuous
 62
     3
100
AcDbLine
 10
1363.043564829722
 20
886.8663866333825
 30
0.0
 11
1382.531064829723
 21
892.253886633383
 31
0.0
  0
LINE
  5
747
330
170
100
AcDbEntity
  8
-1
  6
Continuous
 62
     3
100
AcDbLine
 10
1363.043564829722
 20
886.8663866333825
 30
0.0
 11
1382.531064829723
 21
881.4788866333829
 31
0.0
  0
LINE
  5
748
330
170
100
AcDbEntity
  8
-1
  6
Continuous
 62
     3
100
AcDbLine
 10
1386.756064829723
 20
881.4788866333829
 30
0.0
 11
1386.756064829723
 21
892.253886633383
 31
0.0
  0
LINE
  5
749
330
170
100
AcDbEntity
  8
-1
  6
Continuous
 62
     3
100
AcDbLine
 10
1406.243564829724
 20
886.8663866333825
 30
0.0
 11
1386.756064829723
 21
892.253886633383
 31
0.0
  0
LINE
  5
74A
330
170
100
AcDbEntity
  8
-1
  6
Continuous
 62
     3
100
AcDbLine
 10
1406.243564829724
 20
886.8663866333825
 30
0.0
 11
1386.756064829723
 21
881.4788866333829
 31
0.0
  0
LINE
  5
74B
330
170
100
AcDbEntity
  8
-1
  6
Continuous
 62
     3
100
AcDbLine
 10
1382.531064829723
 20
881.4788866333829
 30
0.0
 11
1382.531064829723
 21
892.253886633383
 31
0.0
  0
LINE
  5
74C
330
170
100
AcDbEntity
  8
-1
  6
Continuous
 62
     3
100
AcDbLine
 10
1314.331064829723
 20
896.741386633383
 30
0.0
 11
1319.199814829723
 21
906.3601366333825
 31
0.0
  0
LINE
  5
74D
330
170
100
AcDbEntity
  8
-1
  6
Continuous
 62
     3
100
AcDbLine
 10
1334.149814829723
 20
892.7538866333829
 30
0.0
 11
1319.199814829723
 21
906.3601366333825
 31
0.0
  0
LINE
  5
74E
330
170
100
AcDbEntity
  8
-1
  6
Continuous
 62
     3
100
AcDbLine
 10
1334.149814829723
 20
892.7538866333829
 30
0.0
 11
1314.331064829723
 21
896.741386633383
 31
0.0
  0
LINE
  5
74F
330
170
100
AcDbEntity
  8
-1
  6
Continuous
 62
     3
100
AcDbLine
 10
1531.568475153838
 20
988.9538866333818
 30
0.0
 11
1525.012225153838
 21
1012.666386633381
 31
0.0
  0
LINE
  5
750
330
170
100
AcDbEntity
  8
-1
  6
Continuous
 62
     3
100
AcDbLine
 10
1531.568475153838
 20
988.9538866333818
 30
0.0
 11
1538.124725153839
 21
1012.666386633381
 31
0.0
  0
LINE
  5
751
330
170
100
AcDbEntity
  8
-1
  6
Continuous
 62
     3
100
AcDbLine
 10
1538.124725153839
 20
1012.666386633381
 30
0.0
 11
1525.012225153838
 21
1012.666386633381
 31
0.0
  0
LINE
  5
752
330
170
100
AcDbEntity
  8
-1
  6
Continuous
 62
     3
100
AcDbLine
 10
1538.124725153839
 20
937.0101366333827
 30
0.0
 11
1531.568475153838
 21
960.7226366333826
 31
0.0
  0
LINE
  5
753
330
170
100
AcDbEntity
  8
-1
  6
Continuous
 62
     3
100
AcDbLine
 10
1525.012225153838
 20
937.0101366333827
 30
0.0
 11
1531.568475153838
 21
960.7226366333826
 31
0.0
  0
LINE
  5
754
330
170
100
AcDbEntity
  8
-1
  6
Continuous
 62
     3
100
AcDbLine
 10
1525.012225153838
 20
937.0101366333827
 30
0.0
 11
1538.124725153839
 21
937.0101366333827
 31
0.0
  0
LINE
  5
755
330
170
100
AcDbEntity
  8
-1
  6
Continuous
 62
     3
100
AcDbLine
 10
1531.568475153838
 20
937.0101366333827
 30
0.0
 11
1531.568475153838
 21
924.2851366333828
 31
0.0
  0
LINE
  5
757
330
170
100
AcDbEntity
  8
-1
  6
Continuous
 62
     3
100
AcDbLine
 10
406.3714829042749
 20
486.0794632506713
 30
0.0
 11
406.3714829042749
 21
516.8482586981826
 31
0.0
  0
LINE
  5
758
330
170
100
AcDbEntity
  8
-1
  6
Continuous
 62
     3
100
AcDbLine
 10
1265.622245957136
 20
534.6543257758535
 30
0.0
 11
1265.622245957136
 21
384.6020484712206
 31
0.0
  0
LINE
  5
759
330
170
100
AcDbEntity
  8
-1
  6
Continuous
 62
     3
100
AcDbLine
 10
1332.122201341386
 20
543.8631194192011
 30
0.0
 11
1332.122201341386
 21
541.9565742643032
 31
0.0
  0
LINE
  5
75A
330
170
100
AcDbEntity
  8
-1
  6
Continuous
 62
     3
100
AcDbLine
 10
1297.122245957136
 20
535.1107163063816
 30
0.0
 11
1297.122245957137
 21
331.8457984712204
 31
0.0
  0
LINE
  5
75B
330
170
100
AcDbEntity
  8
-1
  6
Continuous
 62
     3
100
AcDbLine
 10
522.6222459571365
 20
535.2552100994216
 30
0.0
 11
522.6222459571365
 21
384.6020484712202
 31
0.0
  0
LINE
  5
75C
330
170
100
AcDbEntity
  8
-1
  6
Continuous
 62
     3
100
AcDbLine
 10
491.1222459571368
 20
535.7020642846266
 30
0.0
 11
491.1222459571368
 21
331.8457984712204
 31
0.0
  0
LINE
  5
75D
330
170
100
AcDbEntity
  8
-1
  6
Continuous
 62
     3
100
AcDbLine
 10
456.1222459571365
 20
543.8628473284668
 30
0.0
 11
456.1222459571365
 21
542.1814531940174
 31
0.0
  0
LINE
  5
75E
330
170
100
AcDbEntity
  8
-1
  6
Continuous
 62
     3
100
AcDbLine
 10
479.8347459571361
 20
288.4582984712202
 30
0.0
 11
1308.409701341385
 21
288.4582984712202
 31
0.0
  0
LINE
  5
75F
330
170
100
AcDbEntity
  8
-1
  6
Continuous
 62
     3
100
AcDbLine
 10
514.8347459571368
 20
339.8457984712204
 30
0.0
 11
1273.409745957136
 21
339.8457984712204
 31
0.0
  0
LINE
  5
760
330
170
100
AcDbEntity
  8
-1
  6
Continuous
 62
     3
100
AcDbLine
 10
546.3347459571369
 20
392.6020484712204
 30
0.0
 11
1241.909745957133
 21
392.6020484712204
 31
0.0
  0
LINE
  5
761
330
170
100
AcDbEntity
  8
-1
  6
Continuous
 62
     3
100
AcDbLine
 10
514.8347459571368
 20
333.2895484712202
 30
0.0
 11
514.8347459571368
 21
346.4020484712203
 31
0.0
  0
LINE
  5
762
330
170
100
AcDbEntity
  8
-1
  6
Continuous
 62
     3
100
AcDbLine
 10
491.1222459571368
 20
339.8457984712204
 30
0.0
 11
514.8347459571368
 21
333.2895484712202
 31
0.0
  0
LINE
  5
763
330
170
100
AcDbEntity
  8
-1
  6
Continuous
 62
     3
100
AcDbLine
 10
456.1222459571365
 20
288.4582984712202
 30
0.0
 11
479.8347459571361
 21
281.9020484712203
 31
0.0
  0
LINE
  5
764
330
170
100
AcDbEntity
  8
-1
  6
Continuous
 62
     3
100
AcDbLine
 10
456.1222459571365
 20
288.4582984712202
 30
0.0
 11
479.8347459571361
 21
295.0145484712206
 31
0.0
  0
LINE
  5
765
330
170
100
AcDbEntity
  8
-1
  6
Continuous
 62
     3
100
AcDbLine
 10
479.8347459571361
 20
281.9020484712203
 30
0.0
 11
479.8347459571361
 21
295.0145484712206
 31
0.0
  0
LINE
  5
766
330
170
100
AcDbEntity
  8
-1
  6
Continuous
 62
     3
100
AcDbLine
 10
406.3714829042749
 20
486.0794632506713
 30
0.0
 11
335.1343879781952
 21
486.0794632506713
 31
0.0
  0
LINE
  5
767
330
170
100
AcDbEntity
  8
-1
  6
Continuous
 62
     3
100
AcDbLine
 10
491.1222459571368
 20
339.8457984712204
 30
0.0
 11
514.8347459571368
 21
346.4020484712203
 31
0.0
  0
LINE
  5
768
330
170
100
AcDbEntity
  8
-1
  6
Continuous
 62
     3
100
AcDbLine
 10
546.3347459571369
 20
386.0457984712205
 30
0.0
 11
546.3347459571369
 21
399.1582984712203
 31
0.0
  0
LINE
  5
769
330
170
100
AcDbEntity
  8
-1
  6
Continuous
 62
     3
100
AcDbLine
 10
522.6222459571365
 20
392.6020484712203
 30
0.0
 11
546.3347459571369
 21
399.1582984712203
 31
0.0
  0
LINE
  5
76A
330
170
100
AcDbEntity
  8
-1
  6
Continuous
 62
     3
100
AcDbLine
 10
522.6222459571365
 20
392.6020484712203
 30
0.0
 11
546.3347459571369
 21
386.0457984712205
 31
0.0
  0
LINE
  5
76B
330
170
100
AcDbEntity
  8
-1
  6
Continuous
 62
     5
100
AcDbLine
 10
894.5653732316987
 20
308.4582984712205
 30
0.0
 11
897.5653732316983
 21
308.4582984712205
 31
0.0
  0
LINE
  5
76C
330
170
100
AcDbEntity
  8
-1
  6
Continuous
 62
     5
100
AcDbLine
 10
894.5403732316981
 20
359.8457984712205
 30
0.0
 11
913.5403732316982
 21
359.8457984712205
 31
0.0
  0
LINE
  5
76D
330
170
100
AcDbEntity
  8
-1
  6
Continuous
 62
     5
100
AcDbLine
 10
894.5278732316987
 20
412.6020484712204
 30
0.0
 11
907.5278732316988
 21
412.6020484712204
 31
0.0
  0
LINE
  5
76E
330
170
100
AcDbEntity
  8
-1
  6
Continuous
 62
     3
100
AcDbLine
 10
1273.409745957136
 20
346.4020484712203
 30
0.0
 11
1273.409745957136
 21
333.2895484712202
 31
0.0
  0
LINE
  5
76F
330
170
100
AcDbEntity
  8
-1
  6
Continuous
 62
     3
100
AcDbLine
 10
1297.122245957137
 20
339.8457984712204
 30
0.0
 11
1273.409745957136
 21
333.2895484712202
 31
0.0
  0
LINE
  5
770
330
170
100
AcDbEntity
  8
-1
  6
Continuous
 62
     3
100
AcDbLine
 10
1308.409701341387
 20
295.0145484712206
 30
0.0
 11
1308.409701341387
 21
281.9020484712203
 31
0.0
  0
LINE
  5
771
330
170
100
AcDbEntity
  8
-1
  6
Continuous
 62
     3
100
AcDbLine
 10
1332.122201341386
 20
288.4582984712202
 30
0.0
 11
1308.409701341387
 21
295.0145484712206
 31
0.0
  0
LINE
  5
772
330
170
100
AcDbEntity
  8
-1
  6
Continuous
 62
     3
100
AcDbLine
 10
1332.122201341386
 20
288.4582984712202
 30
0.0
 11
1308.409701341387
 21
281.9020484712203
 31
0.0
  0
LINE
  5
773
330
170
100
AcDbEntity
  8
-1
  6
Continuous
 62
     3
100
AcDbLine
 10
1297.122245957137
 20
339.8457984712204
 30
0.0
 11
1273.409745957136
 21
346.4020484712203
 31
0.0
  0
LINE
  5
774
330
170
100
AcDbEntity
  8
-1
  6
Continuous
 62
     3
100
AcDbLine
 10
1265.622245957136
 20
392.6020484712204
 30
0.0
 11
1241.909745957133
 21
399.1582984712205
 31
0.0
  0
LINE
  5
775
330
170
100
AcDbEntity
  8
-1
  6
Continuous
 62
     3
100
AcDbLine
 10
1265.622245957136
 20
392.6020484712204
 30
0.0
 11
1241.909745957133
 21
386.0457984712205
 31
0.0
  0
LINE
  5
776
330
170
100
AcDbEntity
  8
-1
  6
Continuous
 62
     3
100
AcDbLine
 10
1241.909745957133
 20
399.1582984712205
 30
0.0
 11
1241.909745957133
 21
386.0457984712205
 31
0.0
  0
LINE
  5
778
330
170
100
AcDbEntity
  8
-1
  6
Continuous
 62
     3
100
AcDbLine
 10
587.8348224424152
 20
831.3697040201915
 30
0.0
 11
1200.409669369562
 21
831.3697040201915
 31
0.0
  0
LINE
  5
779
330
170
100
AcDbEntity
  8
1
  6
Continuous
 62
     7
100
AcDbLine
 10
574.1222459571368
 20
661.5607586981826
 30
0.0
 11
1216.524566599171
 21
661.5607586981826
 31
0.0
  0
LINE
  5
77A
330
170
100
AcDbEntity
  8
-1
  6
Continuous
 62
     7
100
AcDbLine
 10
522.6222459571365
 20
540.5607586981825
 30
0.0
 11
542.9633535025659
 21
540.5607586981825
 31
0.0
  0
LINE
  5
77B
330
170
100
AcDbEntity
  8
-1
  6
Continuous
 62
     3
100
AcDbLine
 10
579.8347459571364
 20
884.8759540201923
 30
0.0
 11
1208.409467729206
 21
884.8759540201918
 31
0.0
  0
LINE
  5
77D
330
170
100
AcDbEntity
  8
1
  6
Continuous
 62
     3
100
AcDbLine
 10
564.1223224424147
 20
763.318659775236
 30
0.0
 11
564.1223224424147
 21
839.3697040201917
 31
0.0
  0
LINE
  5
77E
330
170
100
AcDbEntity
  8
1
  6
Continuous
 62
     3
100
AcDbLine
 10
556.1222459571363
 20
892.8759540201918
 30
0.0
 11
556.1222459571363
 21
616.5607586981827
 31
0.0
  0
LINE
  5
781
330
170
100
AcDbEntity
  8
-1
  6
Continuous
 62
     7
100
AcDbLine
 10
574.1222459571368
 20
661.5607586981826
 30
0.0
 11
574.1222459571368
 21
540.5607586981825
 31
0.0
  0
LINE
  5
782
330
170
100
AcDbEntity
  8
-1
  6
Continuous
 62
     7
100
AcDbLine
 10
564.1222459571367
 20
642.8445417980612
 30
0.0
 11
556.1222459571363
 21
608.5607586981825
 31
0.0
  0
LINE
  5
783
330
170
100
AcDbEntity
  8
-1
  6
Continuous
 62
     3
100
AcDbLine
 10
406.3714829042749
 20
551.4648762467325
 30
0.0
 11
412.9277329042752
 21
575.1773762467324
 31
0.0
  0
LINE
  5
784
330
170
100
AcDbEntity
  8
-1
  6
Continuous
 62
     3
100
AcDbLine
 10
406.3714829042749
 20
551.4648762467325
 30
0.0
 11
399.815232904275
 21
575.1773762467324
 31
0.0
  0
LINE
  5
785
330
170
100
AcDbEntity
  8
-1
  6
Continuous
 62
     3
100
AcDbLine
 10
406.3714829042749
 20
540.5607586981825
 30
0.0
 11
412.9277329042752
 21
516.8482586981826
 31
0.0
  0
LINE
  5
786
330
170
100
AcDbEntity
  8
-1
  6
Continuous
 62
     3
100
AcDbLine
 10
406.3714829042749
 20
540.5607586981825
 30
0.0
 11
399.815232904275
 21
516.8482586981826
 31
0.0
  0
LINE
  5
787
330
170
100
AcDbEntity
  8
-1
  6
Continuous
 62
     5
100
AcDbLine
 10
351.1554251196816
 20
506.1982132506711
 30
0.0
 11
365.1554251196817
 21
506.1982132506711
 31
0.0
  0
LINE
  5
788
330
170
100
AcDbEntity
  8
-1
  6
Continuous
 62
     3
100
AcDbLine
 10
399.815232904275
 20
516.8482586981826
 30
0.0
 11
412.9277329042752
 21
516.8482586981826
 31
0.0
  0
LINE
  5
789
330
170
100
AcDbEntity
  8
-1
  6
Continuous
 62
     3
100
AcDbLine
 10
516.4556766278588
 20
540.5607586981825
 30
0.0
 11
398.3714829042751
 21
540.5607586981825
 31
0.0
  0
LINE
  5
78A
330
170
100
AcDbEntity
  8
-1
  6
Continuous
 62
     3
100
AcDbLine
 10
448.1222459571368
 20
551.4648762467325
 30
0.0
 11
398.3714829042751
 21
551.4648762467325
 31
0.0
  0
LINE
  5
78B
330
170
100
AcDbEntity
  8
-1
  6
Continuous
 62
     3
100
AcDbLine
 10
406.3714829042749
 20
575.1773762467324
 30
0.0
 11
406.3714829042749
 21
599.4169632506713
 31
0.0
  0
LINE
  5
78C
330
170
100
AcDbEntity
  8
-1
  6
Continuous
 62
     3
100
AcDbLine
 10
412.9277329042752
 20
575.1773762467324
 30
0.0
 11
399.815232904275
 21
575.1773762467324
 31
0.0
  0
LINE
  5
78D
330
170
100
AcDbEntity
  8
-1
  6
Continuous
 62
     7
100
AcDbLine
 10
508.6222459571366
 20
608.5607586981825
 30
0.0
 11
508.6222459571366
 21
551.4648762467325
 31
0.0
  0
LINE
  5
78E
330
170
100
AcDbEntity
  8
-1
  6
Continuous
 62
     7
100
AcDbLine
 10
473.6222459571368
 20
608.5607586981825
 30
0.0
 11
473.6222459571368
 21
551.4648762467325
 31
0.0
  0
LINE
  5
78F
330
170
100
AcDbEntity
  8
1
  6
Continuous
 62
     7
100
AcDbLine
 10
456.1222459571365
 20
608.5607586981825
 30
0.0
 11
456.1222459571365
 21
551.4648762467325
 31
0.0
  0
LINE
  5
790
330
170
100
AcDbEntity
  8
-1
  6
Continuous
 62
     7
100
AcDbLine
 10
456.1222459571365
 20
551.4648762467325
 30
0.0
 11
522.6222459571365
 21
551.4648762467325
 31
0.0
  0
LINE
  5
791
330
170
100
AcDbEntity
  8
1
  6
Continuous
 62
     7
100
AcDbLine
 10
522.6222459571365
 20
551.4648762467325
 30
0.0
 11
522.6222459571365
 21
540.5607586981825
 31
0.0
  0
LINE
  5
792
330
170
100
AcDbEntity
  8
-1
  6
Continuous
 62
     7
100
AcDbLine
 10
456.1222459571365
 20
608.5607586981825
 30
0.0
 11
556.1222459571363
 21
608.5607586981825
 31
0.0
  0
LINE
  5
797
330
170
100
AcDbEntity
  8
-1
  6
Continuous
 62
     7
100
AcDbLine
 10
571.7191684315849
 20
661.5607586981826
 30
0.0
 11
564.1222459571367
 21
655.7314350579543
 31
0.0
  0
LINE
  5
798
330
170
100
AcDbEntity
  8
-1
  6
Continuous
 62
     7
100
AcDbLine
 10
564.1222459571367
 20
655.7314350579543
 30
0.0
 11
564.1222459571367
 21
642.8445417980612
 31
0.0
  0
LINE
  5
799
330
170
100
AcDbEntity
  8
-1
  6
Continuous
 62
     7
100
AcDbLine
 10
571.7191684315857
 20
661.5607602805953
 30
0.0
 11
574.1222459571368
 21
661.5607586981826
 31
0.0
  0
LINE
  5
79A
330
170
100
AcDbEntity
  8
-1
  6
Continuous
 62
     7
100
AcDbLine
 10
571.7191684315849
 20
661.5607586981826
 30
0.0
 11
574.1222459571368
 21
661.5607586981826
 31
0.0
  0
LINE
  5
7AC
330
170
100
AcDbEntity
  8
-1
  6
Continuous
 62
     3
100
AcDbLine
 10
587.8348224424152
 20
837.9259540201914
 30
0.0
 11
587.8348224424152
 21
824.8134540201913
 31
0.0
  0
LINE
  5
7AD
330
170
100
AcDbEntity
  8
-1
  6
Continuous
 62
     3
100
AcDbLine
 10
564.1223224424147
 20
831.3697040201915
 30
0.0
 11
587.8348224424152
 21
837.9259540201914
 31
0.0
  0
LINE
  5
7AE
330
170
100
AcDbEntity
  8
1
  6
Continuous
 62
     3
100
AcDbLine
 10
587.8348224424152
 20
837.9259540201914
 30
0.0
 11
587.8348224424152
 21
824.8134540201913
 31
0.0
  0
LINE
  5
7AF
330
170
100
AcDbEntity
  8
-1
  6
Continuous
 62
     3
100
AcDbLine
 10
564.1223224424147
 20
831.3697040201915
 30
0.0
 11
587.8348224424152
 21
824.8134540201913
 31
0.0
  0
LINE
  5
7B0
330
170
100
AcDbEntity
  8
1
  6
Continuous
 62
     3
100
AcDbLine
 10
556.1222459571363
 20
884.5447040201916
 30
0.0
 11
579.8347459571364
 21
891.1009540201918
 31
0.0
  0
LINE
  5
7B1
330
170
100
AcDbEntity
  8
1
  6
Continuous
 62
     3
100
AcDbLine
 10
556.1222459571363
 20
884.5447040201916
 30
0.0
 11
579.8347459571364
 21
877.9884540201917
 31
0.0
  0
LINE
  5
7B2
330
170
100
AcDbEntity
  8
1
  6
Continuous
 62
     3
100
AcDbLine
 10
579.8347459571364
 20
891.1009540201918
 30
0.0
 11
579.8347459571364
 21
877.9884540201917
 31
0.0
  0
LINE
  5
7B3
330
170
100
AcDbEntity
  8
1
  6
Continuous
 62
     3
100
AcDbLine
 10
579.8347459571364
 20
891.1009540201918
 30
0.0
 11
579.8347459571364
 21
877.9884540201917
 31
0.0
  0
LINE
  5
7B4
330
170
100
AcDbEntity
  8
-1
  6
Continuous
 62
     5
100
AcDbLine
 10
896.1141409803513
 20
851.3697040201916
 30
0.0
 11
902.1141409803513
 21
851.3697040201916
 31
0.0
  0
LINE
  5
7B5
330
170
100
AcDbEntity
  8
-1
  6
Continuous
 62
     5
100
AcDbLine
 10
895.9266409803513
 20
904.8759540201917
 30
0.0
 11
900.9266409803514
 21
904.8759540201917
 31
0.0
  0
LINE
  5
7B6
330
170
100
AcDbEntity
  8
1
  6
Continuous
 62
     3
100
AcDbLine
 10
1232.121967729203
 20
894.7846833281275
 30
0.0
 11
1232.121967729203
 21
616.560621629303
 31
0.0
  0
LINE
  5
7B8
330
170
100
AcDbEntity
  8
1
  6
Continuous
 62
     3
100
AcDbLine
 10
1224.122169369562
 20
839.3697040201917
 30
0.0
 11
1224.122169369562
 21
788.1751691749851
 31
0.0
  0
LINE
  5
7B9
330
170
100
AcDbEntity
  8
1
  6
Continuous
 62
     7
100
AcDbLine
 10
1214.121750875013
 20
661.5605479802147
 30
0.0
 11
1214.122245957568
 21
540.5605479812276
 31
0.0
  0
LINE
  5
7BA
330
170
100
AcDbEntity
  8
1
  6
Continuous
 62
     7
100
AcDbLine
 10
1224.12182745404
 20
642.8443719961637
 30
0.0
 11
1232.121967729203
 21
608.560621629303
 31
0.0
  0
LINE
  5
7BB
330
170
100
AcDbEntity
  8
-1
  6
Continuous
 62
     7
100
AcDbLine
 10
1332.121967728367
 20
608.5610307884392
 30
0.0
 11
1232.121967729203
 21
608.560621629303
 31
0.0
  0
LINE
  5
7BC
330
170
100
AcDbEntity
  8
-1
  6
Continuous
 62
     7
100
AcDbLine
 10
1279.622245957136
 20
608.5607586981825
 30
0.0
 11
1279.622245957136
 21
551.4648762467325
 31
0.0
  0
LINE
  5
7BD
330
170
100
AcDbEntity
  8
-1
  6
Continuous
 62
     7
100
AcDbLine
 10
1314.622245957135
 20
608.5607586981825
 30
0.0
 11
1314.622245957135
 21
551.4648762467325
 31
0.0
  0
LINE
  5
7BE
330
170
100
AcDbEntity
  8
1
  6
Continuous
 62
     7
100
AcDbLine
 10
1332.121967728367
 20
608.5610307884392
 30
0.0
 11
1332.122201341386
 21
551.4651483374666
 31
0.0
  0
LINE
  5
7BF
330
170
100
AcDbEntity
  8
-1
  6
Continuous
 62
     7
100
AcDbLine
 10
1332.122201341386
 20
551.4651483374666
 30
0.0
 11
1265.622201341942
 21
551.4648762466413
 31
0.0
  0
LINE
  5
7C0
330
170
100
AcDbEntity
  8
1
  6
Continuous
 62
     7
100
AcDbLine
 10
1265.622201341942
 20
551.4648762466413
 30
0.0
 11
1265.622245957136
 21
540.5607586981828
 31
0.0
  0
LINE
  5
7C1
330
170
100
AcDbEntity
  8
1
  6
Continuous
 62
     7
100
AcDbLine
 10
1216.524566599171
 20
661.5607586981826
 30
0.0
 11
1224.121774726139
 21
655.7312652559489
 31
0.0
  0
LINE
  5
7C2
330
170
100
AcDbEntity
  8
1
  6
Continuous
 62
     7
100
AcDbLine
 10
1224.121774726139
 20
655.7312652559489
 30
0.0
 11
1224.12182745404
 21
642.8443719961637
 31
0.0
  0
LINE
  5
7C3
330
170
100
AcDbEntity
  8
1
  6
Continuous
 62
     7
100
AcDbLine
 10
1216.524828400543
 20
661.5605578126256
 30
0.0
 11
1214.121750875013
 21
661.5605479802147
 31
0.0
  0
LINE
  5
7CD
330
170
100
AcDbEntity
  8
-1
  6
Continuous
 62
     3
100
AcDbLine
 10
1200.409669369562
 20
837.9259540201914
 30
0.0
 11
1200.409669369562
 21
824.8134540201913
 31
0.0
  0
LINE
  5
7CE
330
170
100
AcDbEntity
  8
-1
  6
Continuous
 62
     3
100
AcDbLine
 10
1224.122169369562
 20
831.3697040201915
 30
0.0
 11
1200.409669369562
 21
837.9259540201914
 31
0.0
  0
LINE
  5
7CF
330
170
100
AcDbEntity
  8
-1
  6
Continuous
 62
     3
100
AcDbLine
 10
1224.122169369562
 20
831.3697040201915
 30
0.0
 11
1200.409669369562
 21
824.8134540201913
 31
0.0
  0
LINE
  5
7D0
330
170
100
AcDbEntity
  8
1
  6
Continuous
 62
     3
100
AcDbLine
 10
1208.409467729206
 20
891.4322040201918
 30
0.0
 11
1208.409467729206
 21
878.3197040201919
 31
0.0
  0
LINE
  5
7D1
330
170
100
AcDbEntity
  8
1
  6
Continuous
 62
     3
100
AcDbLine
 10
1232.121967729203
 20
884.8759540201918
 30
0.0
 11
1208.409467729206
 21
891.4322040201918
 31
0.0
  0
LINE
  5
7D2
330
170
100
AcDbEntity
  8
1
  6
Continuous
 62
     3
100
AcDbLine
 10
1232.121967729203
 20
884.8759540201918
 30
0.0
 11
1208.409467729206
 21
878.3197040201919
 31
0.0
  0
LINE
  5
7D3
330
170
100
AcDbEntity
  8
-1
  6
Continuous
 62
     3
100
AcDbLine
 10
1332.122201341386
 20
534.197933096048
 30
0.0
 11
1332.122201341386
 21
280.4582984712203
 31
0.0
  0
LINE
  5
7D4
330
170
100
AcDbEntity
  8
-1
  6
Continuous
 62
     3
100
AcDbLine
 10
456.1222459571365
 20
536.1489184698321
 30
0.0
 11
456.1222459571365
 21
280.4582984712203
 31
0.0
  0
LINE
  5
7D5
330
170
100
AcDbEntity
  8
-1
  6
Continuous
 62
     3
100
AcDbLine
 10
550.1633535025657
 20
448.0170813242701
 30
0.0
 11
573.8758535025663
 21
454.5733313242705
 31
0.0
  0
LINE
  5
7D6
330
170
100
AcDbEntity
  8
-1
  6
Continuous
 62
     3
100
AcDbLine
 10
550.1633535025657
 20
448.0170813242701
 30
0.0
 11
573.8758535025663
 21
441.46083132427
 31
0.0
  0
LINE
  5
7D7
330
170
100
AcDbEntity
  8
-1
  6
Continuous
 62
     3
100
AcDbLine
 10
550.1633535025657
 20
540.5607586981825
 30
0.0
 11
550.1633535025657
 21
440.0170813242701
 31
0.0
  0
LINE
  5
7D8
330
170
100
AcDbEntity
  8
-1
  6
Continuous
 62
     7
100
AcDbLine
 10
542.9633535025659
 20
540.5607586981825
 30
0.0
 11
546.9633535025659
 21
549.9707586981822
 31
0.0
  0
LINE
  5
7D9
330
170
100
AcDbEntity
  8
-1
  6
Continuous
 62
     7
100
AcDbLine
 10
557.3633535025655
 20
540.5607586981825
 30
0.0
 11
553.3633535025655
 21
549.9707586981822
 31
0.0
  0
LINE
  5
7DA
330
170
100
AcDbEntity
  8
-1
  6
Continuous
 62
     7
100
AcDbLine
 10
546.9633535025659
 20
549.9707586981822
 30
0.0
 11
553.3633535025655
 21
549.9707586981822
 31
0.0
  0
LINE
  5
7DB
330
170
100
AcDbEntity
  8
-1
  6
Continuous
 62
     3
100
AcDbLine
 10
573.8758535025663
 20
441.46083132427
 30
0.0
 11
573.8758535025663
 21
454.5733313242705
 31
0.0
  0
LINE
  5
7DC
330
170
100
AcDbEntity
  8
-1
  6
Continuous
 62
     7
100
AcDbLine
 10
557.3633535025655
 20
540.5607586981825
 30
0.0
 11
1230.881138411731
 21
540.5607586981828
 31
0.0
  0
LINE
  5
7DD
330
170
100
AcDbEntity
  8
-1
  6
Continuous
 62
     3
100
AcDbLine
 10
1238.081138411706
 20
540.5607586981245
 30
0.0
 11
1238.08113841169
 21
440.0170813242123
 31
0.0
  0
LINE
  5
7DE
330
170
100
AcDbEntity
  8
-1
  6
Continuous
 62
     7
100
AcDbLine
 10
1230.881138411707
 20
540.5607586981257
 30
0.0
 11
1234.881138411709
 21
549.9707586981251
 31
0.0
  0
LINE
  5
7DF
330
170
100
AcDbEntity
  8
-1
  6
Continuous
 62
     7
100
AcDbLine
 10
1245.281138411707
 20
540.5607586981234
 30
0.0
 11
1241.281138411708
 21
549.9707586981241
 31
0.0
  0
LINE
  5
7E0
330
170
100
AcDbEntity
  8
-1
  6
Continuous
 62
     7
100
AcDbLine
 10
1241.281138411708
 20
549.9707586981241
 30
0.0
 11
1234.881138411709
 21
549.9707586981251
 31
0.0
  0
LINE
  5
7E1
330
170
100
AcDbEntity
  8
-1
  6
Continuous
 62
     3
100
AcDbLine
 10
1238.081138411691
 20
448.0170813242123
 30
0.0
 11
1214.368638411692
 21
454.5733313242165
 31
0.0
  0
LINE
  5
7E2
330
170
100
AcDbEntity
  8
-1
  6
Continuous
 62
     3
100
AcDbLine
 10
1214.36863841169
 20
441.4608313242165
 30
0.0
 11
1214.368638411692
 21
454.5733313242165
 31
0.0
  0
LINE
  5
7E3
330
170
100
AcDbEntity
  8
-1
  6
Continuous
 62
     3
100
AcDbLine
 10
1238.081138411691
 20
448.0170813242123
 30
0.0
 11
1214.36863841169
 21
441.4608313242165
 31
0.0
  0
LINE
  5
7E4
330
170
100
AcDbEntity
  8
-1
  6
Continuous
 62
     7
100
AcDbLine
 10
1245.281138411707
 20
540.5607586981828
 30
0.0
 11
1265.622245957136
 21
540.5607586981828
 31
0.0
  0
LINE
  5
7E5
330
170
100
AcDbEntity
  8
-1
  6
Continuous
 62
     3
100
AcDbLine
 10
573.8758535025659
 20
448.0170813242706
 30
0.0
 11
1214.36863841169
 21
448.0170813242706
 31
0.0
  0
LINE
  5
7E6
330
170
100
AcDbEntity
  8
-1
  6
Continuous
 62
     5
100
AcDbLine
 10
894.3256497375937
 20
472.0115699733465
 30
0.0
 11
930.3256497375937
 21
472.0115699733465
 31
0.0
  0
LINE
  5
851
330
170
100
AcDbEntity
  8
1
  6
Continuous
 62
     4
100
AcDbLine
 10
894.1222459571362
 20
767.7830448332884
 30
0.0
 11
882.8917028593178
 21
772.0904414312293
 31
0.0
  0
LINE
  5
852
330
170
100
AcDbEntity
  8
1
  6
Continuous
 62
     4
100
AcDbLine
 10
882.8917028593178
 20
772.0904414312293
 30
0.0
 11
840.9000279457577
 21
783.6245288006292
 31
0.0
  0
LINE
  5
853
330
170
100
AcDbEntity
  8
1
  6
Continuous
 62
     4
100
AcDbLine
 10
840.9000279457577
 20
783.6245288006292
 30
0.0
 11
797.980016164139
 21
790.9871724940832
 31
0.0
  0
LINE
  5
854
330
170
100
AcDbEntity
  8
1
  6
Continuous
 62
     4
100
AcDbLine
 10
797.980016164139
 20
790.9871724940832
 30
0.0
 11
754.5450106903831
 21
794.1074662279929
 31
0.0
  0
LINE
  5
855
330
170
100
AcDbEntity
  8
1
  6
Continuous
 62
     4
100
AcDbLine
 10
754.5450106903831
 20
794.1074662279929
 30
0.0
 11
711.0133143711919
 21
792.9553598679744
 31
0.0
  0
LINE
  5
856
330
170
100
AcDbEntity
  8
1
  6
Continuous
 62
     4
100
AcDbLine
 10
711.0133143711919
 20
792.9553598679744
 30
0.0
 11
667.8041612389652
 21
787.5419488280795
 31
0.0
  0
LINE
  5
857
330
170
100
AcDbEntity
  8
1
  6
Continuous
 62
     4
100
AcDbLine
 10
667.8041612389652
 20
787.5419488280795
 30
0.0
 11
625.3336790588918
 21
777.9193672158954
 31
0.0
  0
LINE
  5
858
330
170
100
AcDbEntity
  8
1
  6
Continuous
 62
     4
100
AcDbLine
 10
625.3336790588918
 20
777.9193672158954
 30
0.0
 11
584.0108817910934
 21
764.1802857525841
 31
0.0
  0
LINE
  5
859
330
170
100
AcDbEntity
  8
1
  6
Continuous
 62
     4
100
AcDbLine
 10
584.0108817910934
 20
764.1802857525841
 30
0.0
 11
564.1223061768405
 21
755.3186525278818
 31
0.0
  0
LINE
  5
85A
330
170
100
AcDbEntity
  8
1
  6
Continuous
 62
     4
100
AcDbLine
 10
894.1222459571362
 20
767.7830448332884
 30
0.0
 11
914.611976214161
 21
760.4328205924688
 31
0.0
  0
LINE
  5
85B
330
170
100
AcDbEntity
  8
1
  6
Continuous
 62
     4
100
AcDbLine
 10
914.611976214161
 20
760.4328205924688
 30
0.0
 11
956.8350053467419
 21
749.8198483201454
 31
0.0
  0
LINE
  5
85C
330
170
100
AcDbEntity
  8
1
  6
Continuous
 62
     4
100
AcDbLine
 10
956.8350053467419
 20
749.8198483201454
 30
0.0
 11
999.8949722458521
 21
743.3965609817611
 31
0.0
  0
LINE
  5
85D
330
170
100
AcDbEntity
  8
1
  6
Continuous
 62
     4
100
AcDbLine
 10
999.8949722458521
 20
743.3965609817611
 30
0.0
 11
1043.37718589128
 21
741.2248183457104
 31
0.0
  0
LINE
  5
85E
330
170
100
AcDbEntity
  8
1
  6
Continuous
 62
     4
100
AcDbLine
 10
1043.37718589128
 20
741.2248183457104
 30
0.0
 11
1086.862888795825
 21
743.3255354807737
 31
0.0
  0
LINE
  5
85F
330
170
100
AcDbEntity
  8
1
  6
Continuous
 62
     4
100
AcDbLine
 10
1086.862888795825
 20
743.3255354807737
 30
0.0
 11
1129.933289868813
 21
749.678481332572
 31
0.0
  0
LINE
  5
860
330
170
100
AcDbEntity
  8
1
  6
Continuous
 62
     4
100
AcDbLine
 10
1129.933289868813
 20
749.678481332572
 30
0.0
 11
1172.173597603234
 21
760.2224735596786
 31
0.0
  0
LINE
  5
861
330
170
100
AcDbEntity
  8
1
  6
Continuous
 62
     4
100
AcDbLine
 10
1172.173597603234
 20
760.2224735596786
 30
0.0
 11
1213.177014744705
 21
774.8559677530138
 31
0.0
  0
LINE
  5
862
330
170
100
AcDbEntity
  8
1
  6
Continuous
 62
     4
100
AcDbLine
 10
1213.177014744705
 20
774.8559677530138
 30
0.0
 11
1224.122169470616
 21
780.0217063098259
 31
0.0
  0
LINE
  5
914
330
170
100
AcDbEntity
  8
1
  6
Continuous
 62
     3
100
AcDbLine
 10
1224.524828400543
 20
661.5605578126256
 30
0.0
 11
1540.632050472264
 21
661.5605578126256
 31
0.0
  0
LINE
  5
915
330
170
100
AcDbEntity
  8
1
  6
Continuous
 62
     3
100
AcDbLine
 10
1339.879151418488
 20
551.4651483374669
 30
0.0
 11
1540.632050472264
 21
551.4651483374665
 31
0.0
  0
LINE
  5
916
330
170
100
AcDbEntity
  8
1
  6
Continuous
 62
     3
100
AcDbLine
 10
1532.632050472264
 20
551.4651483374665
 30
0.0
 11
1526.075800472263
 21
575.1776483374662
 31
0.0
  0
LINE
  5
917
330
170
100
AcDbEntity
  8
1
  6
Continuous
 62
     3
100
AcDbLine
 10
1532.632050472264
 20
551.4651483374665
 30
0.0
 11
1539.188300472264
 21
575.1776483374662
 31
0.0
  0
LINE
  5
918
330
170
100
AcDbEntity
  8
1
  6
Continuous
 62
     3
100
AcDbLine
 10
1539.188300472264
 20
575.1776483374662
 30
0.0
 11
1526.075800472263
 21
575.1776483374662
 31
0.0
  0
LINE
  5
919
330
170
100
AcDbEntity
  8
1
  6
Continuous
 62
     3
100
AcDbLine
 10
1532.632050472264
 20
661.5605578126256
 30
0.0
 11
1539.188300472264
 21
637.8480578126258
 31
0.0
  0
LINE
  5
91A
330
170
100
AcDbEntity
  8
1
  6
Continuous
 62
     3
100
AcDbLine
 10
1532.632050472264
 20
661.5605578126256
 30
0.0
 11
1526.075800472263
 21
637.8480578126258
 31
0.0
  0
LINE
  5
91B
330
170
100
AcDbEntity
  8
1
  6
Continuous
 62
     3
100
AcDbLine
 10
1526.075800472263
 20
637.8480578126258
 30
0.0
 11
1539.188300472264
 21
637.8480578126258
 31
0.0
  0
LINE
  5
91C
330
170
100
AcDbEntity
  8
1
  6
Continuous
 62
     3
100
AcDbLine
 10
1532.632050472264
 20
637.8480578126258
 30
0.0
 11
1532.632050472264
 21
575.1776483374662
 31
0.0
  0
LINE
  5
91D
330
170
100
AcDbEntity
  8
-1
  6
Continuous
 62
     3
100
AcDbLine
 10
1340.121967728366
 20
608.5610307884393
 30
0.0
 11
1458.144550472264
 21
608.5610307884393
 31
0.0
  0
LINE
  5
91E
330
170
100
AcDbEntity
  8
-1
  6
Continuous
 62
     5
100
AcDbLine
 10
1526.826169456606
 20
727.9363912749336
 30
0.0
 11
1535.826169456607
 21
727.9363912749336
 31
0.0
  0
LINE
  5
91F
330
170
100
AcDbEntity
  8
-1
  6
Continuous
 62
     5
100
AcDbLine
 10
1448.874507291083
 20
485.9001927300008
 30
0.0
 11
1452.874507291085
 21
485.9001927300008
 31
0.0
  0
LINE
  5
920
330
170
100
AcDbEntity
  8
1
  6
Continuous
 62
     3
100
AcDbLine
 10
1450.144550472264
 20
608.5610307884393
 30
0.0
 11
1456.700800472263
 21
584.8485307884393
 31
0.0
  0
LINE
  5
921
330
170
100
AcDbEntity
  8
1
  6
Continuous
 62
     3
100
AcDbLine
 10
1450.144550472264
 20
608.5610307884393
 30
0.0
 11
1443.588300472263
 21
584.8485307884393
 31
0.0
  0
LINE
  5
922
330
170
100
AcDbEntity
  8
1
  6
Continuous
 62
     3
100
AcDbLine
 10
1443.588300472263
 20
584.8485307884393
 30
0.0
 11
1456.700800472263
 21
584.8485307884393
 31
0.0
  0
LINE
  5
923
330
170
100
AcDbEntity
  8
1
  6
Continuous
 62
     3
100
AcDbLine
 10
1450.144550472264
 20
527.7526483374665
 30
0.0
 11
1450.144550472264
 21
505.0242750596368
 31
0.0
  0
LINE
  5
924
330
170
100
AcDbEntity
  8
1
  6
Continuous
 62
     3
100
AcDbLine
 10
1450.144550472264
 20
551.4651483374665
 30
0.0
 11
1443.588300472263
 21
575.1776483374662
 31
0.0
  0
LINE
  5
925
330
170
100
AcDbEntity
  8
1
  6
Continuous
 62
     3
100
AcDbLine
 10
1450.144550472264
 20
551.4651483374665
 30
0.0
 11
1456.700800472263
 21
575.1776483374662
 31
0.0
  0
LINE
  5
926
330
170
100
AcDbEntity
  8
1
  6
Continuous
 62
     3
100
AcDbLine
 10
1456.700800472263
 20
575.1776483374662
 30
0.0
 11
1443.588300472263
 21
575.1776483374662
 31
0.0
  0
LINE
  5
927
330
170
100
AcDbEntity
  8
1
  6
Continuous
 62
     3
100
AcDbLine
 10
1532.632050472264
 20
702.571142206488
 30
0.0
 11
1532.632050472264
 21
685.2730578126251
 31
0.0
  0
LINE
  5
928
330
170
100
AcDbEntity
  8
1
  6
Continuous
 62
     3
100
AcDbLine
 10
1450.144550472264
 20
584.8485307884393
 30
0.0
 11
1450.144550472264
 21
575.1776483374662
 31
0.0
  0
LINE
  5
929
330
170
100
AcDbEntity
  8
1
  6
Continuous
 62
     3
100
AcDbLine
 10
1532.632050472264
 20
661.5605578126256
 30
0.0
 11
1526.075800472263
 21
685.2730578126251
 31
0.0
  0
LINE
  5
92A
330
170
100
AcDbEntity
  8
1
  6
Continuous
 62
     3
100
AcDbLine
 10
1532.632050472264
 20
661.5605578126256
 30
0.0
 11
1539.188300472264
 21
685.2730578126251
 31
0.0
  0
LINE
  5
92B
330
170
100
AcDbEntity
  8
1
  6
Continuous
 62
     3
100
AcDbLine
 10
1539.188300472264
 20
685.2730578126251
 30
0.0
 11
1526.075800472263
 21
685.2730578126251
 31
0.0
  0
LINE
  5
92C
330
170
100
AcDbEntity
  8
1
  6
Continuous
 62
     3
100
AcDbLine
 10
1450.144550472264
 20
551.4651483374665
 30
0.0
 11
1456.700800472263
 21
527.7526483374665
 31
0.0
  0
LINE
  5
92D
330
170
100
AcDbEntity
  8
1
  6
Continuous
 62
     3
100
AcDbLine
 10
1450.144550472264
 20
551.4651483374665
 30
0.0
 11
1443.588300472263
 21
527.7526483374665
 31
0.0
  0
LINE
  5
92E
330
170
100
AcDbEntity
  8
1
  6
Continuous
 62
     3
100
AcDbLine
 10
1443.588300472263
 20
527.7526483374665
 30
0.0
 11
1456.700800472263
 21
527.7526483374665
 31
0.0
  0
LINE
  5
93E
330
170
100
AcDbEntity
  8
-1
  6
Continuous
 62
     2
100
AcDbLine
 10
1270.208170918124
 20
927.8632995517689
 30
0.0
 11
1319.208170918122
 21
927.8632995517689
 31
0.0
  0
LINE
  5
A5A
330
170
100
AcDbEntity
  8
-1
  6
Continuous
 62
     2
100
AcDbLine
 10
406.9310864004481
 20
709.3867149599419
 30
0.0
 11
467.931086400448
 21
709.3867149599419
 31
0.0
  0
LINE
  5
A5C
330
170
100
AcDbEntity
  8
-1
  6
Continuous
 62
     3
100
AcDbLine
 10
479.4063129434168
 20
644.0537512457561
 30
0.0
 11
454.8857421154194
 21
687.2015018615232
 31
0.0
  0
LINE
  5
A5D
330
170
100
AcDbEntity
  8
-1
  6
Continuous
 62
     3
100
AcDbLine
 10
491.1222459571368
 20
623.4377484841143
 30
0.0
 11
485.1064149194219
 21
647.2930801153907
 31
0.0
  0
LINE
  5
A5E
330
170
100
AcDbEntity
  8
-1
  6
Continuous
 62
     3
100
AcDbLine
 10
491.1222459571368
 20
623.4377484841143
 30
0.0
 11
473.7062109674123
 21
640.8144223761222
 31
0.0
  0
LINE
  5
A5F
330
170
100
AcDbEntity
  8
-1
  6
Continuous
 62
     3
100
AcDbLine
 10
485.1064149194219
 20
647.2930801153907
 30
0.0
 11
473.7062109674123
 21
640.8144223761222
 31
0.0
  0
LINE
  5
A60
330
170
100
AcDbEntity
  8
1
  6
Continuous
 62
     4
100
AcDbLine
 10
491.1222459571368
 20
643.074374927238
 30
0.0
 11
491.1222459571368
 21
633.2560617056761
 31
0.0
  0
LINE
  5
A6D
330
170
100
AcDbEntity
  8
-1
  6
Continuous
 62
     2
100
AcDbLine
 10
402.062320981513
 20
750.3465595209564
 30
0.0
 11
462.062320981513
 21
750.3465595209564
 31
0.0
  0
ENDSEC
  0
SECTION
  2
OBJECTS
  0
DICTIONARY
  5
15E
330
0
100
AcDbDictionary
281
     1
  3
ACAD_COLOR
350
5E8
  3
ACAD_GROUP
350
15F
  3
ACAD_LAYOUT
350
16B
  3
ACAD_MATERIAL
350
5BB
  3
ACAD_MLEADERSTYLE
350
60D
  3
ACAD_MLINESTYLE
350
168
  3
ACAD_PLOTSETTINGS
350
16A
  3
ACAD_PLOTSTYLENAME
350
160
  3
ACAD_SCALELIST
350
5EB
  3
ACAD_TABLESTYLE
350
5E9
  3
ACAD_VISUALSTYLE
350
5D4
  3
ACDB_RECOMPOSE_DATA
350
A09
  3
AcDbVariableDictionary
350
64F
  3
DWGPROPS
350
A0A
  0
DICTIONARY
  5
645
330
162
100
AcDbDictionary
280
     1
281
     1
  3
ADSK_XREC_LAYER_RECONCILED
360
646
  0
DICTIONARY
  5
64B
330
17D
100
AcDbDictionary
280
     1
281
     1
  3
ADSK_XREC_LAYER_RECONCILED
360
64C
  0
DICTIONARY
  5
64D
330
17E
100
AcDbDictionary
280
     1
281
     1
  3
ADSK_XREC_LAYER_RECONCILED
360
64E
  0
DICTIONARY
  5
5B3
330
170
100
AcDbDictionary
280
     1
281
     1
  3
ACAD_LAYOUTSELFREF
360
5B4
  3
ACAD_SORTENTS
360
6D1
  0
DICTIONARY
  5
5B1
330
16C
100
AcDbDictionary
280
     1
281
     1
  3
ACAD_LAYOUTSELFREF
360
5B2
  0
DICTIONARY
  5
5E8
102
{ACAD_REACTORS
330
15E
102
}
330
15E
100
AcDbDictionary
281
     1
  0
DICTIONARY
  5
15F
102
{ACAD_REACTORS
330
15E
102
}
330
15E
100
AcDbDictionary
281
     1
  0
DICTIONARY
  5
16B
102
{ACAD_REACTORS
330
15E
102
}
330
15E
100
AcDbDictionary
281
     1
  3
Layout1
350
610
  3
Model
350
60F
  0
DICTIONARY
  5
5BB
102
{ACAD_REACTORS
330
15E
102
}
330
15E
100
AcDbDictionary
281
     1
  3
ByBlock
350
5C4
  3
ByLayer
350
5BC
  3
Global
350
5CC
  0
DICTIONARY
  5
60D
102
{ACAD_REACTORS
330
15E
102
}
330
15E
100
AcDbDictionary
281
     1
  3
Standard
350
60E
  0
DICTIONARY
  5
168
102
{ACAD_REACTORS
330
15E
102
}
330
15E
100
AcDbDictionary
281
     1
  3
STANDARD
350
169
  0
DICTIONARY
  5
16A
102
{ACAD_REACTORS
330
15E
102
}
330
15E
100
AcDbDictionary
281
     1
  0
ACDBDICTIONARYWDFLT
  5
160
102
{ACAD_REACTORS
330
15E
102
}
330
15E
100
AcDbDictionary
281
     1
  3
Normal
350
161
100
AcDbDictionaryWithDefault
340
161
  0
DICTIONARY
  5
5EB
102
{ACAD_REACTORS
330
15E
102
}
330
15E
100
AcDbDictionary
281
     1
  3
A0
350
5EC
  3
A1
350
5ED
  3
A2
350
5EE
  3
A3
350
5EF
  3
A4
350
5F0
  3
A5
350
5F1
  3
A6
350
5F2
  3
A7
350
5F3
  3
A8
350
5F4
  3
A9
350
5F5
  3
B0
350
5F6
  3
B1
350
5F7
  3
B2
350
5F8
  3
B3
350
5F9
  3
B4
350
5FA
  3
B5
350
5FB
  3
B6
350
5FC
  3
B7
350
5FD
  3
B8
350
5FE
  3
B9
350
5FF
  3
C0
350
600
  3
C1
350
601
  3
C2
350
602
  3
C3
350
603
  3
C4
350
604
  3
C5
350
605
  3
C6
350
606
  3
C7
350
607
  3
C8
350
608
  3
C9
350
609
  3
D0
350
60A
  3
D1
350
60B
  3
D2
350
60C
  0
DICTIONARY
  5
5E9
102
{ACAD_REACTORS
330
15E
102
}
330
15E
100
AcDbDictionary
281
     1
  3
Standard
350
5EA
  0
DICTIONARY
  5
5D4
102
{ACAD_REACTORS
330
15E
102
}
330
15E
100
AcDbDictionary
281
     1
  3
2dWireframe
350
5DA
  3
3D Hidden
350
5DC
  3
3dWireframe
350
5DB
  3
Basic
350
5D9
  3
Brighten
350
5E0
  3
ColorChange
350
5E4
  3
Conceptual
350
5DD
  3
Dim
350
5DF
  3
EdgeColorOff
350
5E7
  3
Facepattern
350
5E3
  3
Flat
350
5D5
  3
FlatWithEdges
350
5D6
  3
Gouraud
350
5D7
  3
GouraudWithEdges
350
5D8
  3
JitterOff
350
5E5
  3
Linepattern
350
5E2
  3
OverhangOff
350
5E6
  3
Realistic
350
5DE
  3
Thicken
350
5E1
  0
XRECORD
  5
A09
102
{ACAD_REACTORS
330
15E
102
}
330
15E
100
AcDbXrecord
280
     1
 90
        1
330
5EA
  0
DICTIONARY
  5
64F
102
{ACAD_REACTORS
330
15E
102
}
330
15E
100
AcDbDictionary
281
     1
  3
CANNOSCALE
350
652
  3
CMLEADERSTYLE
350
651
  3
CTABLESTYLE
350
650
  3
DIMASSOC
350
655
  3
INDEXCTL
350
654
  3
SORTENTS
350
653
  3
XCLIPFRAME
350
94F
  0
XRECORD
  5
A0A
102
{ACAD_REACTORS
330
15E
102
}
330
15E
100
AcDbXrecord
280
     1
  1
DWGPROPS COOKIE
  2

  3

  4

  6

  7

  8
jbennett
  9

300
=
301
=
302
=
303
=
304
=
305
=
306
=
307
=
308
=
309
=
 40
0.144070462962963
 41
2453238.76199074
 42
2456849.286233218
  1

 90
        0
  0
XRECORD
  5
646
102
{ACAD_REACTORS
330
645
102
}
330
645
100
AcDbXrecord
280
     1
290
     1
  0
XRECORD
  5
64C
102
{ACAD_REACTORS
330
64B
102
}
330
64B
100
AcDbXrecord
280
     1
290
     1
  0
XRECORD
  5
64E
102
{ACAD_REACTORS
330
64D
102
}
330
64D
100
AcDbXrecord
280
     1
290
     1
  0
XRECORD
  5
5B4
102
{ACAD_REACTORS
330
5B3
102
}
330
5B3
100
AcDbXrecord
280
     1
340
170
  0
SORTENTSTABLE
  5
6D1
102
{ACAD_REACTORS
330
5B3
102
}
330
5B3
100
AcDbSortentsTable
330
170
331
6DB
  5
217
331
7AF
  5
7AF
331
780
  5
780
331
702
  5
3AE
331
7D6
  5
7D6
331
7AB
  5
7AB
331
861
  5
861
331
6FE
  5
3AA
331
7D2
  5
7D2
331
6D7
  5
212
331
85D
  5
85D
331
6FA
  5
39B
331
7CE
  5
7CE
331
6D3
  5
20E
331
7EC
  5
7EC
331
859
  5
858
331
6F6
  5
3A6
331
7CA
  5
7CA
331
855
  5
854
331
6F2
  5
3A2
331
7F7
  5
7F7
331
7E8
  5
7E8
331
7F3
  5
7F3
331
7A4
  5
7A4
331
851
  5
84F
331
725
  5
3D2
331
7A0
  5
7A0
331
721
  5
3CE
331
3DE
  5
1FB
331
744
  5
744
331
71D
  5
3CA
331
767
  5
767
331
740
  5
740
331
719
  5
3C5
331
3BE
  5
1F3
331
763
  5
763
331
73C
  5
73C
331
715
  5
3C1
331
738
  5
738
331
711
  5
3BD
331
75F
  5
75F
331
734
  5
734
331
70D
  5
3B9
331
75B
  5
75B
331
730
  5
730
331
709
  5
3B5
331
77E
  5
77E
331
757
  5
757
331
79D
  5
79D
331
77A
  5
77A
331
753
  5
753
331
799
  5
799
331
72C
  5
72C
331
776
  5
776
331
74F
  5
74F
331
728
  5
3DE
331
7C4
  5
7C4
331
795
  5
795
331
402
  5
200
331
74B
  5
74B
331
6EC
  5
227
331
7C0
  5
7C0
331
791
  5
791
331
7E7
  5
7E7
331
772
  5
772
331
7BC
  5
7BC
331
78D
  5
78D
331
76E
  5
76E
331
7E3
  5
7E3
331
6E8
  5
223
331
7B8
  5
7B8
331
789
  5
789
331
76A
  5
76A
331
7DF
  5
7DF
331
6E4
  5
21F
331
451
  5
203
331
785
  5
785
331
707
  5
3B3
331
7DB
  5
7DB
331
6E0
  5
21B
331
7B4
  5
7B4
331
781
  5
781
331
703
  5
3AF
331
7D7
  5
7D7
331
6DC
  5
218
331
7B0
  5
7B0
331
6FF
  5
3AB
331
7D3
  5
7D3
331
6D8
  5
213
331
7AC
  5
7AC
331
862
  5
862
331
7CF
  5
7CF
331
6D4
  5
20F
331
7A8
  5
7A8
331
85E
  5
85E
331
6FB
  5
39E
331
7CB
  5
7CB
331
7ED
  5
7ED
331
85A
  5
85A
331
6F7
  5
3A7
331
7E9
  5
7E9
331
856
  5
855
331
6F3
  5
3A3
331
7F4
  5
7F4
331
7A5
  5
7A5
331
852
  5
851
331
7A1
  5
7A1
331
3F7
  5
1FC
331
726
  5
3D3
331
7F0
  5
7F0
331
722
  5
3CF
331
745
  5
745
331
71E
  5
3CB
331
4B8
  5
206
331
741
  5
741
331
71A
  5
3C7
331
716
  5
3C2
331
764
  5
764
331
73D
  5
73D
331
712
  5
3BE
331
760
  5
760
331
739
  5
739
331
70E
  5
3BA
331
75C
  5
75C
331
735
  5
735
331
417
  5
201
331
758
  5
758
331
731
  5
731
331
79E
  5
79E
331
77F
  5
77F
331
70A
  5
3B7
331
754
  5
754
331
72D
  5
72D
331
6CE
  5
207
331
79A
  5
79A
331
77B
  5
77B
331
729
  5
729
331
777
  5
777
331
7C5
  5
7C5
331
750
  5
750
331
792
  5
792
331
773
  5
773
331
6ED
  5
228
331
7C1
  5
7C1
331
74C
  5
74C
331
78E
  5
78E
331
76F
  5
76F
331
748
  5
748
331
7E4
  5
7E4
331
6E9
  5
224
331
7BD
  5
7BD
331
45A
  5
205
331
76B
  5
76B
331
7E0
  5
7E0
331
6E5
  5
220
331
7B9
  5
7B9
331
78A
  5
78A
331
7DC
  5
7DC
331
6E1
  5
21C
331
7B5
  5
7B5
331
452
  5
204
331
786
  5
786
331
6DD
  5
216
331
7B1
  5
7B1
331
43E
  5
202
331
782
  5
782
331
704
  5
3B0
331
7D8
  5
7D8
331
7AD
  5
7AD
331
700
  5
3AC
331
7D4
  5
7D4
331
6D9
  5
214
331
7A9
  5
7A9
331
85F
  5
85F
331
6FC
  5
39C
331
7D0
  5
7D0
331
6D5
  5
210
331
7EE
  5
7EE
331
85B
  5
85B
331
6F8
  5
3A8
331
7CC
  5
7CC
331
7EA
  5
7EA
331
857
  5
856
331
6F4
  5
3A4
331
7C8
  5
7C8
331
853
  5
852
331
6F0
  5
39F
331
7F5
  5
7F5
331
7A6
  5
7A6
331
727
  5
3D4
331
7F1
  5
7F1
331
7A2
  5
7A2
331
723
  5
3D0
331
71F
  5
3CC
331
746
  5
746
331
742
  5
742
331
71B
  5
3C8
331
765
  5
765
331
73E
  5
73E
331
717
  5
3C3
331
73A
  5
73A
331
713
  5
3BF
331
761
  5
761
331
736
  5
736
331
70F
  5
3BB
331
75D
  5
75D
331
732
  5
732
331
70B
  5
3B8
331
79F
  5
79F
331
759
  5
759
331
77C
  5
77C
331
755
  5
755
331
6CF
  5
20C
331
79B
  5
79B
331
72E
  5
72E
331
778
  5
778
331
751
  5
751
331
7C6
  5
7C6
331
797
  5
797
331
72A
  5
72A
331
774
  5
774
331
74D
  5
74D
331
6EE
  5
29B
331
7C2
  5
7C2
331
793
  5
793
331
400
  5
1FE
331
749
  5
749
331
7BE
  5
7BE
331
78F
  5
78F
331
770
  5
770
331
7E5
  5
7E5
331
6EA
  5
225
331
7BA
  5
7BA
331
78B
  5
78B
331
3F8
  5
1FD
331
76C
  5
76C
331
7E1
  5
7E1
331
6E6
  5
221
331
787
  5
787
331
768
  5
768
331
7DD
  5
7DD
331
6E2
  5
21D
331
7B6
  5
7B6
331
783
  5
783
331
705
  5
3B1
331
7D9
  5
7D9
331
6DE
  5
219
331
7B2
  5
7B2
331
701
  5
3AD
331
7D5
  5
7D5
331
6DA
  5
215
331
7AE
  5
7AE
331
6FD
  5
3A9
331
7D1
  5
7D1
331
6D6
  5
211
331
7AA
  5
7AA
331
860
  5
860
331
7CD
  5
7CD
331
6D2
  5
20D
331
7EF
  5
7EF
331
85C
  5
85C
331
6F9
  5
3A0
331
7C9
  5
7C9
331
7EB
  5
7EB
331
858
  5
857
331
6F5
  5
3A5
331
7F6
  5
7F6
331
7A7
  5
7A7
331
854
  5
853
331
6F1
  5
3A1
331
7A3
  5
7A3
331
7F2
  5
7F2
331
724
  5
3D1
331
747
  5
747
331
720
  5
3CD
331
743
  5
743
331
71C
  5
3C9
331
718
  5
3C4
331
766
  5
766
331
73F
  5
73F
331
714
  5
3C0
331
762
  5
762
331
73B
  5
73B
331
710
  5
3BC
331
75E
  5
75E
331
737
  5
737
331
75A
  5
75A
331
733
  5
733
331
70C
  5
3B6
331
72F
  5
72F
331
79C
  5
79C
331
77D
  5
77D
331
708
  5
3B4
331
752
  5
752
331
72B
  5
72B
331
798
  5
798
331
779
  5
779
331
7C7
  5
7C7
331
401
  5
1FF
331
775
  5
775
331
6EF
  5
39D
331
7C3
  5
7C3
331
74E
  5
74E
331
790
  5
790
331
771
  5
771
331
7E6
  5
7E6
331
6EB
  5
226
331
7BF
  5
7BF
331
74A
  5
74A
331
76D
  5
76D
331
7E2
  5
7E2
331
6E7
  5
222
331
7BB
  5
7BB
331
78C
  5
78C
331
769
  5
769
331
7DE
  5
7DE
331
6E3
  5
21E
331
7B7
  5
7B7
331
788
  5
788
331
7DA
  5
7DA
331
6DF
  5
21A
331
7B3
  5
7B3
331
784
  5
784
331
706
  5
3B2
  0
XRECORD
  5
5B2
102
{ACAD_REACTORS
330
5B1
102
}
330
5B1
100
AcDbXrecord
280
     1
340
16C
  0
LAYOUT
  5
610
102
{ACAD_XDICTIONARY
360
A34
102
}
102
{ACAD_REACTORS
330
16B
102
}
330
16B
100
AcDbPlotSettings
  1

  2
Lexmark 3600-4600 Series
  4

  6

 40
0.0
 41
0.0
 42
0.0
 43
0.0
 44
0.0
 45
0.0
 46
0.0
 47
0.0
 48
0.0
 49
0.0
140
0.0
141
0.0
142
1.0
143
1.0
 70
   688
 72
     0
 73
     0
 74
     5
  7

 75
    16
147
1.0
148
0.0
149
0.0
100
AcDbLayout
  1
Layout1
 70
     0
 71
     1
 10
0.0
 20
0.0
 11
12.0
 21
9.0
 12
0.0
 22
0.0
 32
0.0
 14
-1.000000000000000E+20
 24
-1.000000000000000E+20
 34
-1.000000000000000E+20
 15
-1.000000000000000E+20
 25
-1.000000000000000E+20
 35
-1.000000000000000E+20
146
0.0
 13
0.0
 23
0.0
 33
0.0
 16
1.0
 26
0.0
 36
0.0
 17
0.0
 27
1.0
 37
0.0
 76
     0
330
16C
  0
LAYOUT
  5
60F
102
{ACAD_XDICTIONARY
360
A32
102
}
102
{ACAD_REACTORS
330
16B
102
}
330
16B
100
AcDbPlotSettings
  1

  2
Lexmark 3600-4600 Series
  4

  6

 40
0.0
 41
0.0
 42
0.0
 43
0.0
 44
0.0
 45
0.0
 46
0.0
 47
0.0
 48
0.0
 49
0.0
140
0.0
141
0.0
142
1.0
143
1.0
 70
  1712
 72
     0
 73
     0
 74
     0
  7

 75
     0
147
1.0
148
0.0
149
0.0
100
AcDbLayout
  1
Model
 70
     1
 71
     0
 10
0.0
 20
0.0
 11
12.0
 21
9.0
 12
0.0
 22
0.0
 32
0.0
 14
0.0
 24
0.0
 34
0.0
 15
0.0
 25
0.0
 35
0.0
146
0.0
 13
0.0
 23
0.0
 33
0.0
 16
1.0
 26
0.0
 36
0.0
 17
0.0
 27
1.0
 37
0.0
 76
     0
330
170
331
92F
  0
MATERIAL
  5
5C4
102
{ACAD_XDICTIONARY
360
5C5
102
}
102
{ACAD_REACTORS
330
5BB
102
}
330
5BB
100
AcDbMaterial
  1
ByBlock
 72
     0
 43
0.0208333333333333
 43
0.0
 43
0.0
 43
0.0
 43
0.0
 43
0.0208333333333333
 43
0.0
 43
0.0
 43
0.0
 43
0.0
 43
1.0
 43
0.0
 43
0.0
 43
0.0
 43
0.0
 43
1.0
 77
     0
 47
0.0208333333333333
 47
0.0
 47
0.0
 47
0.0
 47
0.0
 47
0.0208333333333333
 47
0.0
 47
0.0
 47
0.0
 47
0.0
 47
1.0
 47
0.0
 47
0.0
 47
0.0
 47
0.0
 47
1.0
171
     0
 49
0.0208333333333333
 49
0.0
 49
0.0
 49
0.0
 49
0.0
 49
0.0208333333333333
 49
0.0
 49
0.0
 49
0.0
 49
0.0
 49
1.0
 49
0.0
 49
0.0
 49
0.0
 49
0.0
 49
1.0
175
     0
142
0.0208333333333333
142
0.0
142
0.0
142
0.0
142
0.0
142
0.0208333333333333
142
0.0
142
0.0
142
0.0
142
0.0
142
1.0
142
0.0
142
0.0
142
0.0
142
0.0
142
1.0
179
     0
144
0.0208333333333333
144
0.0
144
0.0
144
0.0
144
0.0
144
0.0208333333333333
144
0.0
144
0.0
144
0.0
144
0.0
144
1.0
144
0.0
144
0.0
144
0.0
144
0.0
144
1.0
147
0.0208333333333333
147
0.0
147
0.0
147
0.0
147
0.0
147
0.0208333333333333
147
0.0
147
0.0
147
0.0
147
0.0
147
1.0
147
0.0
147
0.0
147
0.0
147
0.0
147
1.0
  0
MATERIAL
  5
5BC
102
{ACAD_XDICTIONARY
360
5BD
102
}
102
{ACAD_REACTORS
330
5BB
102
}
330
5BB
100
AcDbMaterial
  1
ByLayer
 72
     0
 43
0.0208333333333333
 43
0.0
 43
0.0
 43
0.0
 43
0.0
 43
0.0208333333333333
 43
0.0
 43
0.0
 43
0.0
 43
0.0
 43
1.0
 43
0.0
 43
0.0
 43
0.0
 43
0.0
 43
1.0
 77
     0
 47
0.0208333333333333
 47
0.0
 47
0.0
 47
0.0
 47
0.0
 47
0.0208333333333333
 47
0.0
 47
0.0
 47
0.0
 47
0.0
 47
1.0
 47
0.0
 47
0.0
 47
0.0
 47
0.0
 47
1.0
171
     0
 49
0.0208333333333333
 49
0.0
 49
0.0
 49
0.0
 49
0.0
 49
0.0208333333333333
 49
0.0
 49
0.0
 49
0.0
 49
0.0
 49
1.0
 49
0.0
 49
0.0
 49
0.0
 49
0.0
 49
1.0
175
     0
142
0.0208333333333333
142
0.0
142
0.0
142
0.0
142
0.0
142
0.0208333333333333
142
0.0
142
0.0
142
0.0
142
0.0
142
1.0
142
0.0
142
0.0
142
0.0
142
0.0
142
1.0
179
     0
144
0.0208333333333333
144
0.0
144
0.0
144
0.0
144
0.0
144
0.0208333333333333
144
0.0
144
0.0
144
0.0
144
0.0
144
1.0
144
0.0
144
0.0
144
0.0
144
0.0
144
1.0
147
0.0208333333333333
147
0.0
147
0.0
147
0.0
147
0.0
147
0.0208333333333333
147
0.0
147
0.0
147
0.0
147
0.0
147
1.0
147
0.0
147
0.0
147
0.0
147
0.0
147
1.0
  0
MATERIAL
  5
5CC
102
{ACAD_XDICTIONARY
360
5CD
102
}
102
{ACAD_REACTORS
330
5BB
102
}
330
5BB
100
AcDbMaterial
  1
Global
 72
     0
 43
0.0208333333333333
 43
0.0
 43
0.0
 43
0.0
 43
0.0
 43
0.0208333333333333
 43
0.0
 43
0.0
 43
0.0
 43
0.0
 43
1.0
 43
0.0
 43
0.0
 43
0.0
 43
0.0
 43
1.0
 77
     0
 47
0.0208333333333333
 47
0.0
 47
0.0
 47
0.0
 47
0.0
 47
0.0208333333333333
 47
0.0
 47
0.0
 47
0.0
 47
0.0
 47
1.0
 47
0.0
 47
0.0
 47
0.0
 47
0.0
 47
1.0
171
     0
 49
0.0208333333333333
 49
0.0
 49
0.0
 49
0.0
 49
0.0
 49
0.0208333333333333
 49
0.0
 49
0.0
 49
0.0
 49
0.0
 49
1.0
 49
0.0
 49
0.0
 49
0.0
 49
0.0
 49
1.0
175
     0
142
0.0208333333333333
142
0.0
142
0.0
142
0.0
142
0.0
142
0.0208333333333333
142
0.0
142
0.0
142
0.0
142
0.0
142
1.0
142
0.0
142
0.0
142
0.0
142
0.0
142
1.0
179
     0
144
0.0208333333333333
144
0.0
144
0.0
144
0.0
144
0.0
144
0.0208333333333333
144
0.0
144
0.0
144
0.0
144
0.0
144
1.0
144
0.0
144
0.0
144
0.0
144
0.0
144
1.0
147
0.0208333333333333
147
0.0
147
0.0
147
0.0
147
0.0
147
0.0208333333333333
147
0.0
147
0.0
147
0.0
147
0.0
147
1.0
147
0.0
147
0.0
147
0.0
147
0.0
147
1.0
  0
MLEADERSTYLE
  5
60E
102
{ACAD_REACTORS
330
60D
102
}
330
60D
100
AcDbMLeaderStyle
170
     2
171
     1
172
     0
 90
        2
 40
0.0
 41
0.0
173
     1
 91
-1056964608
340
165
 92
       -2
290
     1
 42
0.09
291
     1
 43
0.36
  3
Standard
 44
0.18
300

342
163
174
     1
178
     6
175
     1
176
     0
 93
-1056964608
 45
0.18
292
     0
297
     0
 46
0.18
 94
-1056964608
 47
1.0
 49
1.0
140
1.0
293
     1
141
0.0
294
     1
177
     0
142
1.0
295
     0
296
     0
143
0.125
1001
ACAD
1000
AcRTDxfName
1000
MLEADERSTYLE
1001
ACAD_MLEADERVER
1070
     2
  0
MLINESTYLE
  5
169
102
{ACAD_REACTORS
330
168
102
}
330
168
100
AcDbMlineStyle
  2
STANDARD
 70
     0
  3

 62
   256
 51
90.0
 52
90.0
 71
     2
 49
0.5
 62
   256
  6
BYLAYER
 49
-0.5
 62
   256
  6
BYLAYER
  0
ACDBPLACEHOLDER
  5
161
102
{ACAD_REACTORS
330
160
102
}
330
160
  0
SCALE
  5
5EC
102
{ACAD_REACTORS
330
5EB
102
}
330
5EB
100
AcDbScale
 70
     0
300
1:1
140
1.0
141
1.0
290
     1
1001
ACAD
1000
AcRTDxfName
1000
SCALE
  0
SCALE
  5
5ED
102
{ACAD_REACTORS
330
5EB
102
}
330
5EB
100
AcDbScale
 70
     0
300
1:2
140
1.0
141
2.0
290
     0
1001
ACAD
1000
AcRTDxfName
1000
SCALE
  0
SCALE
  5
5EE
102
{ACAD_REACTORS
330
5EB
102
}
330
5EB
100
AcDbScale
 70
     0
300
1:4
140
1.0
141
4.0
290
     0
1001
ACAD
1000
AcRTDxfName
1000
SCALE
  0
SCALE
  5
5EF
102
{ACAD_REACTORS
330
5EB
102
}
330
5EB
100
AcDbScale
 70
     0
300
1:5
140
1.0
141
5.0
290
     0
1001
ACAD
1000
AcRTDxfName
1000
SCALE
  0
SCALE
  5
5F0
102
{ACAD_REACTORS
330
5EB
102
}
330
5EB
100
AcDbScale
 70
     0
300
1:8
140
1.0
141
8.0
290
     0
1001
ACAD
1000
AcRTDxfName
1000
SCALE
  0
SCALE
  5
5F1
102
{ACAD_REACTORS
330
5EB
102
}
330
5EB
100
AcDbScale
 70
     0
300
1:10
140
1.0
141
10.0
290
     0
1001
ACAD
1000
AcRTDxfName
1000
SCALE
  0
SCALE
  5
5F2
102
{ACAD_REACTORS
330
5EB
102
}
330
5EB
100
AcDbScale
 70
     0
300
1:16
140
1.0
141
16.0
290
     0
1001
ACAD
1000
AcRTDxfName
1000
SCALE
  0
SCALE
  5
5F3
102
{ACAD_REACTORS
330
5EB
102
}
330
5EB
100
AcDbScale
 70
     0
300
1:20
140
1.0
141
20.0
290
     0
1001
ACAD
1000
AcRTDxfName
1000
SCALE
  0
SCALE
  5
5F4
102
{ACAD_REACTORS
330
5EB
102
}
330
5EB
100
AcDbScale
 70
     0
300
1:30
140
1.0
141
30.0
290
     0
1001
ACAD
1000
AcRTDxfName
1000
SCALE
  0
SCALE
  5
5F5
102
{ACAD_REACTORS
330
5EB
102
}
330
5EB
100
AcDbScale
 70
     0
300
1:40
140
1.0
141
40.0
290
     0
1001
ACAD
1000
AcRTDxfName
1000
SCALE
  0
SCALE
  5
5F6
102
{ACAD_REACTORS
330
5EB
102
}
330
5EB
100
AcDbScale
 70
     0
300
1:50
140
1.0
141
50.0
290
     0
1001
ACAD
1000
AcRTDxfName
1000
SCALE
  0
SCALE
  5
5F7
102
{ACAD_REACTORS
330
5EB
102
}
330
5EB
100
AcDbScale
 70
     0
300
1:100
140
1.0
141
100.0
290
     0
1001
ACAD
1000
AcRTDxfName
1000
SCALE
  0
SCALE
  5
5F8
102
{ACAD_REACTORS
330
5EB
102
}
330
5EB
100
AcDbScale
 70
     0
300
2:1
140
2.0
141
1.0
290
     0
1001
ACAD
1000
AcRTDxfName
1000
SCALE
  0
SCALE
  5
5F9
102
{ACAD_REACTORS
330
5EB
102
}
330
5EB
100
AcDbScale
 70
     0
300
4:1
140
4.0
141
1.0
290
     0
1001
ACAD
1000
AcRTDxfName
1000
SCALE
  0
SCALE
  5
5FA
102
{ACAD_REACTORS
330
5EB
102
}
330
5EB
100
AcDbScale
 70
     0
300
8:1
140
8.0
141
1.0
290
     0
1001
ACAD
1000
AcRTDxfName
1000
SCALE
  0
SCALE
  5
5FB
102
{ACAD_REACTORS
330
5EB
102
}
330
5EB
100
AcDbScale
 70
     0
300
10:1
140
10.0
141
1.0
290
     0
1001
ACAD
1000
AcRTDxfName
1000
SCALE
  0
SCALE
  5
5FC
102
{ACAD_REACTORS
330
5EB
102
}
330
5EB
100
AcDbScale
 70
     0
300
100:1
140
100.0
141
1.0
290
     0
1001
ACAD
1000
AcRTDxfName
1000
SCALE
  0
SCALE
  5
5FD
102
{ACAD_REACTORS
330
5EB
102
}
330
5EB
100
AcDbScale
 70
     0
300
1/128" = 1'-0"
140
0.0078125
141
12.0
290
     0
1001
ACAD
1000
AcRTDxfName
1000
SCALE
  0
SCALE
  5
5FE
102
{ACAD_REACTORS
330
5EB
102
}
330
5EB
100
AcDbScale
 70
     0
300
1/64" = 1'-0"
140
0.015625
141
12.0
290
     0
1001
ACAD
1000
AcRTDxfName
1000
SCALE
  0
SCALE
  5
5FF
102
{ACAD_REACTORS
330
5EB
102
}
330
5EB
100
AcDbScale
 70
     0
300
1/32" = 1'-0"
140
0.03125
141
12.0
290
     0
1001
ACAD
1000
AcRTDxfName
1000
SCALE
  0
SCALE
  5
600
102
{ACAD_REACTORS
330
5EB
102
}
330
5EB
100
AcDbScale
 70
     0
300
1/16" = 1'-0"
140
0.0625
141
12.0
290
     0
1001
ACAD
1000
AcRTDxfName
1000
SCALE
  0
SCALE
  5
601
102
{ACAD_REACTORS
330
5EB
102
}
330
5EB
100
AcDbScale
 70
     0
300
3/32" = 1'-0"
140
0.09375
141
12.0
290
     0
1001
ACAD
1000
AcRTDxfName
1000
SCALE
  0
SCALE
  5
602
102
{ACAD_REACTORS
330
5EB
102
}
330
5EB
100
AcDbScale
 70
     0
300
1/8" = 1'-0"
140
0.125
141
12.0
290
     0
1001
ACAD
1000
AcRTDxfName
1000
SCALE
  0
SCALE
  5
603
102
{ACAD_REACTORS
330
5EB
102
}
330
5EB
100
AcDbScale
 70
     0
300
3/16" = 1'-0"
140
0.1875
141
12.0
290
     0
1001
ACAD
1000
AcRTDxfName
1000
SCALE
  0
SCALE
  5
604
102
{ACAD_REACTORS
330
5EB
102
}
330
5EB
100
AcDbScale
 70
     0
300
1/4" = 1'-0"
140
0.25
141
12.0
290
     0
1001
ACAD
1000
AcRTDxfName
1000
SCALE
  0
SCALE
  5
605
102
{ACAD_REACTORS
330
5EB
102
}
330
5EB
100
AcDbScale
 70
     0
300
3/8" = 1'-0"
140
0.375
141
12.0
290
     0
1001
ACAD
1000
AcRTDxfName
1000
SCALE
  0
SCALE
  5
606
102
{ACAD_REACTORS
330
5EB
102
}
330
5EB
100
AcDbScale
 70
     0
300
1/2" = 1'-0"
140
0.5
141
12.0
290
     0
1001
ACAD
1000
AcRTDxfName
1000
SCALE
  0
SCALE
  5
607
102
{ACAD_REACTORS
330
5EB
102
}
330
5EB
100
AcDbScale
 70
     0
300
3/4" = 1'-0"
140
0.75
141
12.0
290
     0
1001
ACAD
1000
AcRTDxfName
1000
SCALE
  0
SCALE
  5
608
102
{ACAD_REACTORS
330
5EB
102
}
330
5EB
100
AcDbScale
 70
     0
300
1" = 1'-0"
140
1.0
141
12.0
290
     0
1001
ACAD
1000
AcRTDxfName
1000
SCALE
  0
SCALE
  5
609
102
{ACAD_REACTORS
330
5EB
102
}
330
5EB
100
AcDbScale
 70
     0
300
1-1/2" = 1'-0"
140
1.5
141
12.0
290
     0
1001
ACAD
1000
AcRTDxfName
1000
SCALE
  0
SCALE
  5
60A
102
{ACAD_REACTORS
330
5EB
102
}
330
5EB
100
AcDbScale
 70
     0
300
3" = 1'-0"
140
3.0
141
12.0
290
     0
1001
ACAD
1000
AcRTDxfName
1000
SCALE
  0
SCALE
  5
60B
102
{ACAD_REACTORS
330
5EB
102
}
330
5EB
100
AcDbScale
 70
     0
300
6" = 1'-0"
140
6.0
141
12.0
290
     0
1001
ACAD
1000
AcRTDxfName
1000
SCALE
  0
SCALE
  5
60C
102
{ACAD_REACTORS
330
5EB
102
}
330
5EB
100
AcDbScale
 70
     0
300
1'-0" = 1'-0"
140
12.0
141
12.0
290
     0
1001
ACAD
1000
AcRTDxfName
1000
SCALE
  0
TABLESTYLE
  5
5EA
102
{ACAD_XDICTIONARY
360
68A
102
}
102
{ACAD_REACTORS
330
5E9
102
}
330
5E9
100
AcDbTableStyle
  3
Standard
 70
     0
 71
     0
 40
0.06
 41
0.06
280
     0
281
     0
  7
STANDARD
140
0.18
170
     2
 62
     0
 63
     7
283
     0
274
    -2
284
     1
 64
     0
275
    -2
285
     1
 65
     0
276
    -2
286
     1
 66
     0
277
    -2
287
     1
 67
     0
278
    -2
288
     1
 68
     0
279
    -2
289
     1
 69
     0
  7
STANDARD
140
0.25
170
     5
 62
     0
 63
     7
283
     0
274
    -2
284
     1
 64
     0
275
    -2
285
     1
 65
     0
276
    -2
286
     1
 66
     0
277
    -2
287
     1
 67
     0
278
    -2
288
     1
 68
     0
279
    -2
289
     1
 69
     0
  7
STANDARD
140
0.18
170
     5
 62
     0
 63
     7
283
     0
274
    -2
284
     1
 64
     0
275
    -2
285
     1
 65
     0
276
    -2
286
     1
 66
     0
277
    -2
287
     1
 67
     0
278
    -2
288
     1
 68
     0
279
    -2
289
     1
 69
     0
  0
VISUALSTYLE
  5
5DA
102
{ACAD_XDICTIONARY
360
A15
102
}
102
{ACAD_REACTORS
330
5D4
102
}
330
5D4
100
AcDbVisualStyle
  2

 70
     4
 71
     0
 72
     2
 73
     0
 90
        0
 40
-0.6
 41
-30.0
 62
     5
 63
     7
 74
     1
 91
        4
 64
     7
 65
   257
 75
     1
175
     1
 42
1.0
 92
        0
 66
   257
 43
1.0
 76
     1
 77
     6
 78
     2
 67
     7
 79
     5
170
     0
171
     0
290
     0
174
     0
 93
        1
 44
0.0
173
     0
291
     0
 45
0.0
1001
ACAD
1000
AcDbSavedByObjectVersion
1070
     0
  0
VISUALSTYLE
  5
5DC
102
{ACAD_XDICTIONARY
360
A19
102
}
102
{ACAD_REACTORS
330
5D4
102
}
330
5D4
100
AcDbVisualStyle
  2

 70
     6
 71
     1
 72
     2
 73
     2
 90
        0
 40
-0.6
 41
-30.0
 62
     5
 63
     7
 74
     2
 91
        2
 64
     7
 65
   257
 75
     2
175
     1
 42
179.0
 92
        0
 66
   257
 43
1.0
 76
     1
 77
     6
 78
     2
 67
     7
 79
     3
170
     0
171
     0
290
     0
174
     0
 93
        1
 44
0.0
173
     0
291
     0
 45
0.0
1001
ACAD
1000
AcDbSavedByObjectVersion
1070
     0
  0
VISUALSTYLE
  5
5DB
102
{ACAD_XDICTIONARY
360
A17
102
}
102
{ACAD_REACTORS
330
5D4
102
}
330
5D4
100
AcDbVisualStyle
  2

 70
     5
 71
     0
 72
     2
 73
     0
 90
        0
 40
-0.6
 41
-30.0
 62
     5
 63
     7
 74
     1
 91
        4
 64
     7
 65
   257
 75
     1
175
     1
 42
1.0
 92
        0
 66
   257
 43
1.0
 76
     1
 77
     6
 78
     2
 67
     7
 79
     5
170
     0
171
     0
290
     0
174
     0
 93
        1
 44
0.0
173
     0
291
     0
 45
0.0
1001
ACAD
1000
AcDbSavedByObjectVersion
1070
     0
  0
VISUALSTYLE
  5
5D9
102
{ACAD_XDICTIONARY
360
A13
102
}
102
{ACAD_REACTORS
330
5D4
102
}
330
5D4
100
AcDbVisualStyle
  2

 70
     7
 71
     1
 72
     0
 73
     1
 90
        0
 40
-0.6
 41
-30.0
 62
     5
 63
     7
 74
     0
 91
        4
 64
     7
 65
   257
 75
     1
175
     1
 42
1.0
 92
        8
 66
     7
 43
1.0
 76
     1
 77
     6
 78
     2
 67
     7
 79
     5
170
     0
171
     0
290
     0
174
     0
 93
        1
 44
0.0
173
     0
291
     1
 45
0.0
1001
ACAD
1000
AcDbSavedByObjectVersion
1070
     0
  0
VISUALSTYLE
  5
5E0
102
{ACAD_XDICTIONARY
360
A21
102
}
102
{ACAD_REACTORS
330
5D4
102
}
330
5D4
100
AcDbVisualStyle
  2

 70
    12
 71
     2
 72
     2
 73
     0
 90
        0
 40
-0.6
 41
-30.0
 62
     5
 63
     7
 74
     1
 91
        4
 64
     7
 65
   257
 75
     1
175
     1
 42
1.0
 92
        8
 66
     7
 43
1.0
 76
     1
 77
     6
 78
     2
 67
     7
 79
     5
170
     0
171
     0
290
     0
174
     0
 93
        1
 44
50.0
173
     0
291
     1
 45
0.0
1001
ACAD
1000
AcDbSavedByObjectVersion
1070
     0
  0
VISUALSTYLE
  5
5E4
102
{ACAD_XDICTIONARY
360
A29
102
}
102
{ACAD_REACTORS
330
5D4
102
}
330
5D4
100
AcDbVisualStyle
  2

 70
    16
 71
     2
 72
     2
 73
     3
 90
        0
 40
-0.6
 41
-30.0
 62
     5
 63
     8
 74
     1
 91
        4
 64
     7
 65
   257
 75
     1
175
     1
 42
1.0
 92
        8
 66
     8
 43
1.0
 76
     1
 77
     6
 78
     2
 67
     7
 79
     5
170
     0
171
     0
290
     0
174
     0
 93
        1
 44
0.0
173
     0
291
     1
 45
0.0
1001
ACAD
1000
AcDbSavedByObjectVersion
1070
     0
  0
VISUALSTYLE
  5
5DD
102
{ACAD_XDICTIONARY
360
A1B
102
}
102
{ACAD_REACTORS
330
5D4
102
}
330
5D4
100
AcDbVisualStyle
  2

 70
     9
 71
     3
 72
     2
 73
     0
 90
        0
 40
-0.6
 41
-30.0
 62
     5
 63
     7
 74
     2
 91
        2
 64
     7
 65
   257
 75
     1
175
     1
 42
179.0
 92
        8
 66
     7
 43
1.0
 76
     1
 77
     6
 78
     2
 67
     7
 79
     3
170
     0
171
     0
290
     0
174
     0
 93
        1
 44
0.0
173
     0
291
     0
 45
0.0
1001
ACAD
1000
AcDbSavedByObjectVersion
1070
     0
  0
VISUALSTYLE
  5
5DF
102
{ACAD_XDICTIONARY
360
A1F
102
}
102
{ACAD_REACTORS
330
5D4
102
}
330
5D4
100
AcDbVisualStyle
  2

 70
    11
 71
     2
 72
     2
 73
     0
 90
        0
 40
-0.6
 41
-30.0
 62
     5
 63
     7
 74
     1
 91
        4
 64
     7
 65
   257
 75
     1
175
     1
 42
1.0
 92
        8
 66
     7
 43
1.0
 76
     1
 77
     6
 78
     2
 67
     7
 79
     5
170
     0
171
     0
290
     0
174
     0
 93
        1
 44
-50.0
173
     0
291
     1
 45
0.0
1001
ACAD
1000
AcDbSavedByObjectVersion
1070
     0
  0
VISUALSTYLE
  5
5E7
102
{ACAD_XDICTIONARY
360
A2F
102
}
102
{ACAD_REACTORS
330
5D4
102
}
330
5D4
100
AcDbVisualStyle
  2

 70
    22
 71
     2
 72
     2
 73
     0
 90
        0
 40
-0.6
 41
-30.0
 62
     5
 63
     7
 74
     1
 91
        4
 64
     7
 65
   257
 75
     1
175
     1
 42
1.0
 92
        8
 66
     7
 43
1.0
 76
     1
 77
     6
 78
     2
 67
     7
 79
     5
170
     0
171
     0
290
     0
174
     0
 93
        1
 44
0.0
173
     0
291
     1
 45
0.0
1001
ACAD
1000
AcDbSavedByObjectVersion
1070
     0
  0
VISUALSTYLE
  5
5E3
102
{ACAD_XDICTIONARY
360
A27
102
}
102
{ACAD_REACTORS
330
5D4
102
}
330
5D4
100
AcDbVisualStyle
  2

 70
    15
 71
     2
 72
     2
 73
     0
 90
        0
 40
-0.6
 41
-30.0
 62
     5
 63
     7
 74
     1
 91
        4
 64
     7
 65
   257
 75
     1
175
     1
 42
1.0
 92
        8
 66
     7
 43
1.0
 76
     1
 77
     6
 78
     2
 67
     7
 79
     5
170
     0
171
     0
290
     0
174
     0
 93
        1
 44
0.0
173
     0
291
     1
 45
0.0
1001
ACAD
1000
AcDbSavedByObjectVersion
1070
     0
  0
VISUALSTYLE
  5
5D5
102
{ACAD_XDICTIONARY
360
A0B
102
}
102
{ACAD_REACTORS
330
5D4
102
}
330
5D4
100
AcDbVisualStyle
  2

 70
     0
 71
     2
 72
     1
 73
     1
 90
        2
 40
-0.6
 41
30.0
 62
     5
 63
     7
 74
     0
 91
        4
 64
     7
 65
   257
 75
     1
175
     1
 42
1.0
 92
        8
 66
     7
 43
1.0
 76
     1
 77
     6
 78
     2
 67
     7
 79
     5
170
     0
171
     0
290
     0
174
     0
 93
       13
 44
0.0
173
     0
291
     1
 45
0.0
1001
ACAD
1000
AcDbSavedByObjectVersion
1070
     0
  0
VISUALSTYLE
  5
5D6
102
{ACAD_XDICTIONARY
360
A0D
102
}
102
{ACAD_REACTORS
330
5D4
102
}
330
5D4
100
AcDbVisualStyle
  2

 70
     1
 71
     2
 72
     1
 73
     1
 90
        2
 40
-0.6
 41
30.0
 62
     5
 63
     7
 74
     1
 91
        4
 64
     7
 65
   257
 75
     1
175
     1
 42
1.0
 92
        0
 66
   257
 43
1.0
 76
     1
 77
     6
 78
     2
 67
     7
 79
     5
170
     0
171
     0
290
     0
174
     0
 93
       13
 44
0.0
173
     0
291
     1
 45
0.0
1001
ACAD
1000
AcDbSavedByObjectVersion
1070
     0
  0
VISUALSTYLE
  5
5D7
102
{ACAD_XDICTIONARY
360
A0F
102
}
102
{ACAD_REACTORS
330
5D4
102
}
330
5D4
100
AcDbVisualStyle
  2

 70
     2
 71
     2
 72
     2
 73
     1
 90
        2
 40
-0.6
 41
30.0
 62
     5
 63
     7
 74
     0
 91
        4
 64
     7
 65
   257
 75
     1
175
     1
 42
1.0
 92
        0
 66
     7
 43
1.0
 76
     1
 77
     6
 78
     2
 67
     7
 79
     5
170
     0
171
     0
290
     0
174
     0
 93
       13
 44
0.0
173
     0
291
     1
 45
0.0
1001
ACAD
1000
AcDbSavedByObjectVersion
1070
     0
  0
VISUALSTYLE
  5
5D8
102
{ACAD_XDICTIONARY
360
A11
102
}
102
{ACAD_REACTORS
330
5D4
102
}
330
5D4
100
AcDbVisualStyle
  2

 70
     3
 71
     2
 72
     2
 73
     1
 90
        2
 40
-0.6
 41
30.0
 62
     5
 63
     7
 74
     1
 91
        4
 64
     7
 65
   257
 75
     1
175
     1
 42
1.0
 92
        0
 66
   257
 43
1.0
 76
     1
 77
     6
 78
     2
 67
     7
 79
     5
170
     0
171
     0
290
     0
174
     0
 93
       13
 44
0.0
173
     0
291
     1
 45
0.0
1001
ACAD
1000
AcDbSavedByObjectVersion
1070
     0
  0
VISUALSTYLE
  5
5E5
102
{ACAD_XDICTIONARY
360
A2B
102
}
102
{ACAD_REACTORS
330
5D4
102
}
330
5D4
100
AcDbVisualStyle
  2

 70
    20
 71
     2
 72
     2
 73
     0
 90
        0
 40
-0.6
 41
-30.0
 62
     5
 63
     7
 74
     1
 91
        4
 64
     7
 65
   257
 75
     1
175
     1
 42
1.0
 92
       10
 66
     7
 43
1.0
 76
     1
 77
     6
 78
     2
 67
     7
 79
     5
170
     0
171
     0
290
     0
174
     0
 93
        1
 44
0.0
173
     0
291
     1
 45
0.0
1001
ACAD
1000
AcDbSavedByObjectVersion
1070
     0
  0
VISUALSTYLE
  5
5E2
102
{ACAD_XDICTIONARY
360
A25
102
}
102
{ACAD_REACTORS
330
5D4
102
}
330
5D4
100
AcDbVisualStyle
  2

 70
    14
 71
     2
 72
     2
 73
     0
 90
        0
 40
-0.6
 41
-30.0
 62
     5
 63
     7
 74
     1
 91
        4
 64
     7
 65
   257
 75
     7
175
     7
 42
1.0
 92
        8
 66
     7
 43
1.0
 76
     1
 77
     6
 78
     2
 67
     7
 79
     5
170
     0
171
     0
290
     0
174
     0
 93
        1
 44
0.0
173
     0
291
     1
 45
0.0
1001
ACAD
1000
AcDbSavedByObjectVersion
1070
     0
  0
VISUALSTYLE
  5
5E6
102
{ACAD_XDICTIONARY
360
A2D
102
}
102
{ACAD_REACTORS
330
5D4
102
}
330
5D4
100
AcDbVisualStyle
  2

 70
    21
 71
     2
 72
     2
 73
     0
 90
        0
 40
-0.6
 41
-30.0
 62
     5
 63
     7
 74
     1
 91
        4
 64
     7
 65
   257
 75
     1
175
     1
 42
1.0
 92
        9
 66
     7
 43
1.0
 76
     1
 77
     6
 78
     2
 67
     7
 79
     5
170
     0
171
     0
290
     0
174
     0
 93
        1
 44
0.0
173
     0
291
     1
 45
0.0
1001
ACAD
1000
AcDbSavedByObjectVersion
1070
     0
  0
VISUALSTYLE
  5
5DE
102
{ACAD_XDICTIONARY
360
A1D
102
}
102
{ACAD_REACTORS
330
5D4
102
}
330
5D4
100
AcDbVisualStyle
  2

 70
     8
 71
     2
 72
     2
 73
     0
 90
        0
 40
-0.6
 41
-30.0
 62
     5
 63
     7
 74
     1
 91
        0
 64
     7
 65
   257
 75
     1
175
     1
 42
1.0
 92
        8
 66
     8
 43
1.0
 76
     1
 77
     6
 78
     2
 67
     7
 79
     5
170
     0
171
     0
290
     0
174
     0
 93
       13
 44
0.0
173
     0
291
     0
 45
0.0
1001
ACAD
1000
AcDbSavedByObjectVersion
1070
     0
  0
VISUALSTYLE
  5
5E1
102
{ACAD_XDICTIONARY
360
A23
102
}
102
{ACAD_REACTORS
330
5D4
102
}
330
5D4
100
AcDbVisualStyle
  2

 70
    13
 71
     2
 72
     2
 73
     0
 90
        0
 40
-0.6
 41
-30.0
 62
     5
 63
     7
 74
     1
 91
        4
 64
     7
 65
   257
 75
     1
175
     1
 42
1.0
 92
       12
 66
     7
 43
1.0
 76
     1
 77
     6
 78
     2
 67
     7
 79
     5
170
     0
171
     0
290
     0
174
     0
 93
        1
 44
0.0
173
     0
291
     1
 45
0.0
1001
ACAD
1000
AcDbSavedByObjectVersion
1070
     0
  0
DICTIONARYVAR
  5
652
102
{ACAD_REACTORS
330
64F
102
}
330
64F
100
DictionaryVariables
280
     0
  1
1:1
  0
DICTIONARYVAR
  5
651
102
{ACAD_REACTORS
330
64F
102
}
330
64F
100
DictionaryVariables
280
     0
  1
STANDARD
  0
DICTIONARYVAR
  5
650
102
{ACAD_REACTORS
330
64F
102
}
330
64F
100
DictionaryVariables
280
     0
  1
STANDARD
  0
DICTIONARYVAR
  5
655
102
{ACAD_REACTORS
330
64F
102
}
330
64F
100
DictionaryVariables
280
     0
  1
1
  0
DICTIONARYVAR
  5
654
102
{ACAD_REACTORS
330
64F
102
}
330
64F
100
DictionaryVariables
280
     0
  1
0
  0
DICTIONARYVAR
  5
653
102
{ACAD_REACTORS
330
64F
102
}
330
64F
100
DictionaryVariables
280
     0
  1
127
  0
DICTIONARYVAR
  5
94F
102
{ACAD_REACTORS
330
64F
102
}
330
64F
100
DictionaryVariables
280
     0
  1
2
  0
DICTIONARY
  5
A34
330
610
100
AcDbDictionary
280
     1
281
     1
  3
ACAD_XREC_ROUNDTRIP
360
A35
  0
DICTIONARY
  5
A32
330
60F
100
AcDbDictionary
280
     1
281
     1
  3
ACAD_XREC_ROUNDTRIP
360
A33
  0
DICTIONARY
  5
5C5
330
5C4
100
AcDbDictionary
280
     1
281
     1
  3
ACAD_XREC_ROUNDTRIP
360
68F
  3
BUMPTILE
360
5C7
  3
DIFFUSETILE
360
5C6
  3
OPACITYTILE
360
5CA
  3
REFLECTIONTILE
360
5C9
  3
REFRACTIONTILE
360
5CB
  3
SPECULARTILE
360
5C8
  0
DICTIONARY
  5
5BD
330
5BC
100
AcDbDictionary
280
     1
281
     1
  3
ACAD_XREC_ROUNDTRIP
360
68E
  3
BUMPTILE
360
5BF
  3
DIFFUSETILE
360
5BE
  3
OPACITYTILE
360
5C2
  3
REFLECTIONTILE
360
5C1
  3
REFRACTIONTILE
360
5C3
  3
SPECULARTILE
360
5C0
  0
DICTIONARY
  5
5CD
330
5CC
100
AcDbDictionary
280
     1
281
     1
  3
ACAD_XREC_ROUNDTRIP
360
690
  3
BUMPTILE
360
5CF
  3
DIFFUSETILE
360
5CE
  3
OPACITYTILE
360
5D2
  3
REFLECTIONTILE
360
5D1
  3
REFRACTIONTILE
360
5D3
  3
SPECULARTILE
360
5D0
  0
DICTIONARY
  5
68A
330
5EA
100
AcDbDictionary
280
     1
281
     1
  3
ACAD_ROUNDTRIP_2008_TABLESTYLE_CELLSTYLEMAP
360
A08
  3
ACAD_XREC_ROUNDTRIP
360
A31
  0
DICTIONARY
  5
A15
330
5DA
100
AcDbDictionary
280
     1
281
     1
  3
ACAD_XREC_ROUNDTRIP
360
A16
  0
DICTIONARY
  5
A19
330
5DC
100
AcDbDictionary
280
     1
281
     1
  3
ACAD_XREC_ROUNDTRIP
360
A1A
  0
DICTIONARY
  5
A17
330
5DB
100
AcDbDictionary
280
     1
281
     1
  3
ACAD_XREC_ROUNDTRIP
360
A18
  0
DICTIONARY
  5
A13
330
5D9
100
AcDbDictionary
280
     1
281
     1
  3
ACAD_XREC_ROUNDTRIP
360
A14
  0
DICTIONARY
  5
A21
330
5E0
100
AcDbDictionary
280
     1
281
     1
  3
ACAD_XREC_ROUNDTRIP
360
A22
  0
DICTIONARY
  5
A29
330
5E4
100
AcDbDictionary
280
     1
281
     1
  3
ACAD_XREC_ROUNDTRIP
360
A2A
  0
DICTIONARY
  5
A1B
330
5DD
100
AcDbDictionary
280
     1
281
     1
  3
ACAD_XREC_ROUNDTRIP
360
A1C
  0
DICTIONARY
  5
A1F
330
5DF
100
AcDbDictionary
280
     1
281
     1
  3
ACAD_XREC_ROUNDTRIP
360
A20
  0
DICTIONARY
  5
A2F
330
5E7
100
AcDbDictionary
280
     1
281
     1
  3
ACAD_XREC_ROUNDTRIP
360
A30
  0
DICTIONARY
  5
A27
330
5E3
100
AcDbDictionary
280
     1
281
     1
  3
ACAD_XREC_ROUNDTRIP
360
A28
  0
DICTIONARY
  5
A0B
330
5D5
100
AcDbDictionary
280
     1
281
     1
  3
ACAD_XREC_ROUNDTRIP
360
A0C
  0
DICTIONARY
  5
A0D
330
5D6
100
AcDbDictionary
280
     1
281
     1
  3
ACAD_XREC_ROUNDTRIP
360
A0E
  0
DICTIONARY
  5
A0F
330
5D7
100
AcDbDictionary
280
     1
281
     1
  3
ACAD_XREC_ROUNDTRIP
360
A10
  0
DICTIONARY
  5
A11
330
5D8
100
AcDbDictionary
280
     1
281
     1
  3
ACAD_XREC_ROUNDTRIP
360
A12
  0
DICTIONARY
  5
A2B
330
5E5
100
AcDbDictionary
280
     1
281
     1
  3
ACAD_XREC_ROUNDTRIP
360
A2C
  0
DICTIONARY
  5
A25
330
5E2
100
AcDbDictionary
280
     1
281
     1
  3
ACAD_XREC_ROUNDTRIP
360
A26
  0
DICTIONARY
  5
A2D
330
5E6
100
AcDbDictionary
280
     1
281
     1
  3
ACAD_XREC_ROUNDTRIP
360
A2E
  0
DICTIONARY
  5
A1D
330
5DE
100
AcDbDictionary
280
     1
281
     1
  3
ACAD_XREC_ROUNDTRIP
360
A1E
  0
DICTIONARY
  5
A23
330
5E1
100
AcDbDictionary
280
     1
281
     1
  3
ACAD_XREC_ROUNDTRIP
360
A24
  0
XRECORD
  5
A35
102
{ACAD_REACTORS
330
A34
102
}
330
A34
100
AcDbXrecord
280
     1
102
SHADEPLOT
 70
     0
102
SHADEPLOTRESLEVEL
 70
     2
102
SHADEPLOTCUSTOMDPI
 70
   300
  0
XRECORD
  5
A33
102
{ACAD_REACTORS
330
A32
102
}
330
A32
100
AcDbXrecord
280
     1
102
SHADEPLOT
 70
     0
102
SHADEPLOTRESLEVEL
 70
     2
102
SHADEPLOTCUSTOMDPI
 70
   300
  0
XRECORD
  5
68F
102
{ACAD_REACTORS
330
5C5
102
}
330
5C5
100
AcDbXrecord
280
     1
102
MATERIAL
148
0.0
149
0.0
149
0.0
 93
        0
 94
      127
282
     0
 72
     0
 77
     0
171
     0
175
     0
179
     0
273
     0
  0
XRECORD
  5
5C7
102
{ACAD_REACTORS
330
5C5
102
}
330
5C5
100
AcDbXrecord
280
     1
270
     1
271
     1
  0
XRECORD
  5
5C6
102
{ACAD_REACTORS
330
5C5
102
}
330
5C5
100
AcDbXrecord
280
     1
270
     1
271
     1
  0
XRECORD
  5
5CA
102
{ACAD_REACTORS
330
5C5
102
}
330
5C5
100
AcDbXrecord
280
     1
270
     1
271
     1
  0
XRECORD
  5
5C9
102
{ACAD_REACTORS
330
5C5
102
}
330
5C5
100
AcDbXrecord
280
     1
270
     1
271
     1
  0
XRECORD
  5
5CB
102
{ACAD_REACTORS
330
5C5
102
}
330
5C5
100
AcDbXrecord
280
     1
270
     1
271
     1
  0
XRECORD
  5
5C8
102
{ACAD_REACTORS
330
5C5
102
}
330
5C5
100
AcDbXrecord
280
     1
270
     1
271
     1
  0
XRECORD
  5
68E
102
{ACAD_REACTORS
330
5BD
102
}
330
5BD
100
AcDbXrecord
280
     1
102
MATERIAL
148
0.0
149
0.0
149
0.0
 93
        0
 94
      127
282
     0
 72
     0
 77
     0
171
     0
175
     0
179
     0
273
     0
  0
XRECORD
  5
5BF
102
{ACAD_REACTORS
330
5BD
102
}
330
5BD
100
AcDbXrecord
280
     1
270
     1
271
     1
  0
XRECORD
  5
5BE
102
{ACAD_REACTORS
330
5BD
102
}
330
5BD
100
AcDbXrecord
280
     1
270
     1
271
     1
  0
XRECORD
  5
5C2
102
{ACAD_REACTORS
330
5BD
102
}
330
5BD
100
AcDbXrecord
280
     1
270
     1
271
     1
  0
XRECORD
  5
5C1
102
{ACAD_REACTORS
330
5BD
102
}
330
5BD
100
AcDbXrecord
280
     1
270
     1
271
     1
  0
XRECORD
  5
5C3
102
{ACAD_REACTORS
330
5BD
102
}
330
5BD
100
AcDbXrecord
280
     1
270
     1
271
     1
  0
XRECORD
  5
5C0
102
{ACAD_REACTORS
330
5BD
102
}
330
5BD
100
AcDbXrecord
280
     1
270
     1
271
     1
  0
XRECORD
  5
690
102
{ACAD_REACTORS
330
5CD
102
}
330
5CD
100
AcDbXrecord
280
     1
102
MATERIAL
148
0.0
149
0.0
149
0.0
 93
        0
 94
      127
282
     0
 72
     0
 77
     0
171
     0
175
     0
179
     0
273
     0
  0
XRECORD
  5
5CF
102
{ACAD_REACTORS
330
5CD
102
}
330
5CD
100
AcDbXrecord
280
     1
270
     1
271
     1
  0
XRECORD
  5
5CE
102
{ACAD_REACTORS
330
5CD
102
}
330
5CD
100
AcDbXrecord
280
     1
270
     1
271
     1
  0
XRECORD
  5
5D2
102
{ACAD_REACTORS
330
5CD
102
}
330
5CD
100
AcDbXrecord
280
     1
270
     1
271
     1
  0
XRECORD
  5
5D1
102
{ACAD_REACTORS
330
5CD
102
}
330
5CD
100
AcDbXrecord
280
     1
270
     1
271
     1
  0
XRECORD
  5
5D3
102
{ACAD_REACTORS
330
5CD
102
}
330
5CD
100
AcDbXrecord
280
     1
270
     1
271
     1
  0
XRECORD
  5
5D0
102
{ACAD_REACTORS
330
5CD
102
}
330
5CD
100
AcDbXrecord
280
     1
270
     1
271
     1
  0
CELLSTYLEMAP
  5
A08
102
{ACAD_REACTORS
330
68A
102
}
330
68A
100
AcDbCellStyleMap
 90
        3
300
CELLSTYLE
  1
TABLEFORMAT_BEGIN
 90
        5
170
     1
 91
        0
 92
    32768
 62
   257
 93
        1
300
CONTENTFORMAT
  1
CONTENTFORMAT_BEGIN
 90
        0
 91
        0
 92
      512
 93
        0
300

 40
0.0
140
1.0
 94
        5
 62
     0
340
163
144
0.25
309
CONTENTFORMAT_END
171
     1
301
MARGIN
  1
CELLMARGIN_BEGIN
 40
0.06
 40
0.06
 40
0.06
 40
0.06
 40
0.18
 40
0.18
309
CELLMARGIN_END
 94
        6
 95
        1
302
GRIDFORMAT
  1
GRIDFORMAT_BEGIN
 90
        0
 91
        1
 62
     0
 92
       -2
340
0
 93
        0
 40
0.045
309
GRIDFORMAT_END
 95
        2
302
GRIDFORMAT
  1
GRIDFORMAT_BEGIN
 90
        0
 91
        1
 62
     0
 92
       -2
340
0
 93
        0
 40
0.045
309
GRIDFORMAT_END
 95
        4
302
GRIDFORMAT
  1
GRIDFORMAT_BEGIN
 90
        0
 91
        1
 62
     0
 92
       -2
340
0
 93
        0
 40
0.045
309
GRIDFORMAT_END
 95
        8
302
GRIDFORMAT
  1
GRIDFORMAT_BEGIN
 90
        0
 91
        1
 62
     0
 92
       -2
340
0
 93
        0
 40
0.045
309
GRIDFORMAT_END
 95
       16
302
GRIDFORMAT
  1
GRIDFORMAT_BEGIN
 90
        0
 91
        1
 62
     0
 92
       -2
340
0
 93
        0
 40
0.045
309
GRIDFORMAT_END
 95
       32
302
GRIDFORMAT
  1
GRIDFORMAT_BEGIN
 90
        0
 91
        1
 62
     0
 92
       -2
340
0
 93
        0
 40
0.045
309
GRIDFORMAT_END
309
TABLEFORMAT_END
  1
CELLSTYLE_BEGIN
 90
        1
 91
        1
300
_TITLE
309
CELLSTYLE_END
300
CELLSTYLE
  1
TABLEFORMAT_BEGIN
 90
        5
170
     1
 91
        0
 92
        0
 62
   257
 93
        1
300
CONTENTFORMAT
  1
CONTENTFORMAT_BEGIN
 90
        0
 91
        0
 92
      512
 93
        0
300

 40
0.0
140
1.0
 94
        5
 62
     0
340
163
144
0.18
309
CONTENTFORMAT_END
171
     1
301
MARGIN
  1
CELLMARGIN_BEGIN
 40
0.06
 40
0.06
 40
0.06
 40
0.06
 40
0.18
 40
0.18
309
CELLMARGIN_END
 94
        6
 95
        1
302
GRIDFORMAT
  1
GRIDFORMAT_BEGIN
 90
        0
 91
        1
 62
     0
 92
       -2
340
0
 93
        0
 40
0.045
309
GRIDFORMAT_END
 95
        2
302
GRIDFORMAT
  1
GRIDFORMAT_BEGIN
 90
        0
 91
        1
 62
     0
 92
       -2
340
0
 93
        0
 40
0.045
309
GRIDFORMAT_END
 95
        4
302
GRIDFORMAT
  1
GRIDFORMAT_BEGIN
 90
        0
 91
        1
 62
     0
 92
       -2
340
0
 93
        0
 40
0.045
309
GRIDFORMAT_END
 95
        8
302
GRIDFORMAT
  1
GRIDFORMAT_BEGIN
 90
        0
 91
        1
 62
     0
 92
       -2
340
0
 93
        0
 40
0.045
309
GRIDFORMAT_END
 95
       16
302
GRIDFORMAT
  1
GRIDFORMAT_BEGIN
 90
        0
 91
        1
 62
     0
 92
       -2
340
0
 93
        0
 40
0.045
309
GRIDFORMAT_END
 95
       32
302
GRIDFORMAT
  1
GRIDFORMAT_BEGIN
 90
        0
 91
        1
 62
     0
 92
       -2
340
0
 93
        0
 40
0.045
309
GRIDFORMAT_END
309
TABLEFORMAT_END
  1
CELLSTYLE_BEGIN
 90
        2
 91
        1
300
_HEADER
309
CELLSTYLE_END
300
CELLSTYLE
  1
TABLEFORMAT_BEGIN
 90
        5
170
     1
 91
        0
 92
        0
 62
   257
 93
        1
300
CONTENTFORMAT
  1
CONTENTFORMAT_BEGIN
 90
        0
 91
        0
 92
      512
 93
        0
300

 40
0.0
140
1.0
 94
        2
 62
     0
340
163
144
0.18
309
CONTENTFORMAT_END
171
     1
301
MARGIN
  1
CELLMARGIN_BEGIN
 40
0.06
 40
0.06
 40
0.06
 40
0.06
 40
0.18
 40
0.18
309
CELLMARGIN_END
 94
        6
 95
        1
302
GRIDFORMAT
  1
GRIDFORMAT_BEGIN
 90
        0
 91
        1
 62
     0
 92
       -2
340
0
 93
        0
 40
0.045
309
GRIDFORMAT_END
 95
        2
302
GRIDFORMAT
  1
GRIDFORMAT_BEGIN
 90
        0
 91
        1
 62
     0
 92
       -2
340
0
 93
        0
 40
0.045
309
GRIDFORMAT_END
 95
        4
302
GRIDFORMAT
  1
GRIDFORMAT_BEGIN
 90
        0
 91
        1
 62
     0
 92
       -2
340
0
 93
        0
 40
0.045
309
GRIDFORMAT_END
 95
        8
302
GRIDFORMAT
  1
GRIDFORMAT_BEGIN
 90
        0
 91
        1
 62
     0
 92
       -2
340
0
 93
        0
 40
0.045
309
GRIDFORMAT_END
 95
       16
302
GRIDFORMAT
  1
GRIDFORMAT_BEGIN
 90
        0
 91
        1
 62
     0
 92
       -2
340
0
 93
        0
 40
0.045
309
GRIDFORMAT_END
 95
       32
302
GRIDFORMAT
  1
GRIDFORMAT_BEGIN
 90
        0
 91
        1
 62
     0
 92
       -2
340
0
 93
        0
 40
0.045
309
GRIDFORMAT_END
309
TABLEFORMAT_END
  1
CELLSTYLE_BEGIN
 90
        3
 91
        2
300
_DATA
309
CELLSTYLE_END
  0
XRECORD
  5
A31
102
{ACAD_REACTORS
330
68A
102
}
330
68A
100
AcDbXrecord
280
     1
102
ACAD_ROUNDTRIP_PRE2007_TABLESTYLE
 90
      512
 91
        0
  1

 92
      512
 93
        0
  2

 94
      512
 95
        0
  3

  0
XRECORD
  5
A16
102
{ACAD_REACTORS
330
A15
102
}
330
A15
100
AcDbXrecord
280
     1
102
RTVSPropertyOp0
 70
     1
102
RTVSPropertyOp1
 70
     1
102
RTVSPropertyOp2
 70
     1
102
RTVSPropertyOp3
 70
     1
102
RTVSPropertyOp4
 70
     1
102
RTVSPropertyOp5
 70
     1
102
RTVSPropertyOp6
 70
     1
102
RTVSPropertyOp7
 70
     1
102
RTVSPropertyOp8
 70
     1
102
RTVSPropertyOp9
 70
     1
102
RTVSPropertyOp10
 70
     1
102
RTVSPropertyOp11
 70
     1
102
RTVSPropertyOp12
 70
     1
102
RTVSPropertyOp13
 70
     1
102
RTVSPropertyOp14
 70
     1
102
RTVSPropertyOp15
 70
     1
102
RTVSPropertyOp16
 70
     1
102
RTVSPropertyOp17
 70
     1
102
RTVSPropertyOp18
 70
     1
102
RTVSPropertyOp19
 70
     1
102
RTVSPropertyOp20
 70
     1
102
RTVSPropertyOp21
 70
     1
102
RTVSPropertyOp22
 70
     1
102
RTVSPropertyOp23
 70
     1
102
RTVSPropertyOp24
 70
     1
102
RTVSPropertyOp25
 70
     1
102
RTVSPropertyOp26
 70
     1
102
RTVSPropertyOp27
 70
     1
  0
XRECORD
  5
A1A
102
{ACAD_REACTORS
330
A19
102
}
330
A19
100
AcDbXrecord
280
     1
102
RTVSPropertyOp0
 70
     1
102
RTVSPropertyOp1
 70
     1
102
RTVSPropertyOp2
 70
     1
102
RTVSPropertyOp3
 70
     1
102
RTVSPropertyOp4
 70
     1
102
RTVSPropertyOp5
 70
     1
102
RTVSPropertyOp6
 70
     1
102
RTVSPropertyOp7
 70
     1
102
RTVSPropertyOp8
 70
     1
102
RTVSPropertyOp9
 70
     1
102
RTVSPropertyOp10
 70
     1
102
RTVSPropertyOp11
 70
     1
102
RTVSPropertyOp12
 70
     1
102
RTVSPropertyOp13
 70
     1
102
RTVSPropertyOp14
 70
     1
102
RTVSPropertyOp15
 70
     1
102
RTVSPropertyOp16
 70
     1
102
RTVSPropertyOp17
 70
     1
102
RTVSPropertyOp18
 70
     1
102
RTVSPropertyOp19
 70
     1
102
RTVSPropertyOp20
 70
     1
102
RTVSPropertyOp21
 70
     1
102
RTVSPropertyOp22
 70
     1
102
RTVSPropertyOp23
 70
     1
102
RTVSPropertyOp24
 70
     1
102
RTVSPropertyOp25
 70
     1
102
RTVSPropertyOp26
 70
     1
102
RTVSPropertyOp27
 70
     1
  0
XRECORD
  5
A18
102
{ACAD_REACTORS
330
A17
102
}
330
A17
100
AcDbXrecord
280
     1
102
RTVSPropertyOp0
 70
     1
102
RTVSPropertyOp1
 70
     1
102
RTVSPropertyOp2
 70
     1
102
RTVSPropertyOp3
 70
     1
102
RTVSPropertyOp4
 70
     1
102
RTVSPropertyOp5
 70
     1
102
RTVSPropertyOp6
 70
     1
102
RTVSPropertyOp7
 70
     1
102
RTVSPropertyOp8
 70
     1
102
RTVSPropertyOp9
 70
     1
102
RTVSPropertyOp10
 70
     1
102
RTVSPropertyOp11
 70
     1
102
RTVSPropertyOp12
 70
     1
102
RTVSPropertyOp13
 70
     1
102
RTVSPropertyOp14
 70
     1
102
RTVSPropertyOp15
 70
     1
102
RTVSPropertyOp16
 70
     1
102
RTVSPropertyOp17
 70
     1
102
RTVSPropertyOp18
 70
     1
102
RTVSPropertyOp19
 70
     1
102
RTVSPropertyOp20
 70
     1
102
RTVSPropertyOp21
 70
     1
102
RTVSPropertyOp22
 70
     1
102
RTVSPropertyOp23
 70
     1
102
RTVSPropertyOp24
 70
     1
102
RTVSPropertyOp25
 70
     1
102
RTVSPropertyOp26
 70
     1
102
RTVSPropertyOp27
 70
     1
  0
XRECORD
  5
A14
102
{ACAD_REACTORS
330
A13
102
}
330
A13
100
AcDbXrecord
280
     1
102
RTVSPropertyOp0
 70
     1
102
RTVSPropertyOp1
 70
     1
102
RTVSPropertyOp2
 70
     1
102
RTVSPropertyOp3
 70
     1
102
RTVSPropertyOp4
 70
     1
102
RTVSPropertyOp5
 70
     1
102
RTVSPropertyOp6
 70
     1
102
RTVSPropertyOp7
 70
     1
102
RTVSPropertyOp8
 70
     1
102
RTVSPropertyOp9
 70
     1
102
RTVSPropertyOp10
 70
     1
102
RTVSPropertyOp11
 70
     1
102
RTVSPropertyOp12
 70
     1
102
RTVSPropertyOp13
 70
     1
102
RTVSPropertyOp14
 70
     1
102
RTVSPropertyOp15
 70
     1
102
RTVSPropertyOp16
 70
     1
102
RTVSPropertyOp17
 70
     1
102
RTVSPropertyOp18
 70
     1
102
RTVSPropertyOp19
 70
     1
102
RTVSPropertyOp20
 70
     1
102
RTVSPropertyOp21
 70
     1
102
RTVSPropertyOp22
 70
     1
102
RTVSPropertyOp23
 70
     1
102
RTVSPropertyOp24
 70
     1
102
RTVSPropertyOp25
 70
     1
102
RTVSPropertyOp26
 70
     1
102
RTVSPropertyOp27
 70
     1
  0
XRECORD
  5
A22
102
{ACAD_REACTORS
330
A21
102
}
330
A21
100
AcDbXrecord
280
     1
102
RTVSPropertyOp0
 70
     1
102
RTVSPropertyOp1
 70
     1
102
RTVSPropertyOp2
 70
     1
102
RTVSPropertyOp3
 70
     1
102
RTVSPropertyOp4
 70
     1
102
RTVSPropertyOp5
 70
     1
102
RTVSPropertyOp6
 70
     1
102
RTVSPropertyOp7
 70
     1
102
RTVSPropertyOp8
 70
     1
102
RTVSPropertyOp9
 70
     1
102
RTVSPropertyOp10
 70
     1
102
RTVSPropertyOp11
 70
     1
102
RTVSPropertyOp12
 70
     1
102
RTVSPropertyOp13
 70
     1
102
RTVSPropertyOp14
 70
     1
102
RTVSPropertyOp15
 70
     1
102
RTVSPropertyOp16
 70
     1
102
RTVSPropertyOp17
 70
     1
102
RTVSPropertyOp18
 70
     1
102
RTVSPropertyOp19
 70
     1
102
RTVSPropertyOp20
 70
     1
102
RTVSPropertyOp21
 70
     1
102
RTVSPropertyOp22
 70
     1
102
RTVSPropertyOp23
 70
     1
102
RTVSPropertyOp24
 70
     1
102
RTVSPropertyOp25
 70
     1
102
RTVSPropertyOp26
 70
     1
102
RTVSPropertyOp27
 70
     1
  0
XRECORD
  5
A2A
102
{ACAD_REACTORS
330
A29
102
}
330
A29
100
AcDbXrecord
280
     1
102
RTVSPropertyOp0
 70
     1
102
RTVSPropertyOp1
 70
     1
102
RTVSPropertyOp2
 70
     1
102
RTVSPropertyOp3
 70
     1
102
RTVSPropertyOp4
 70
     1
102
RTVSPropertyOp5
 70
     1
102
RTVSPropertyOp6
 70
     1
102
RTVSPropertyOp7
 70
     1
102
RTVSPropertyOp8
 70
     1
102
RTVSPropertyOp9
 70
     1
102
RTVSPropertyOp10
 70
     1
102
RTVSPropertyOp11
 70
     1
102
RTVSPropertyOp12
 70
     1
102
RTVSPropertyOp13
 70
     1
102
RTVSPropertyOp14
 70
     1
102
RTVSPropertyOp15
 70
     1
102
RTVSPropertyOp16
 70
     1
102
RTVSPropertyOp17
 70
     1
102
RTVSPropertyOp18
 70
     1
102
RTVSPropertyOp19
 70
     1
102
RTVSPropertyOp20
 70
     1
102
RTVSPropertyOp21
 70
     1
102
RTVSPropertyOp22
 70
     1
102
RTVSPropertyOp23
 70
     1
102
RTVSPropertyOp24
 70
     1
102
RTVSPropertyOp25
 70
     1
102
RTVSPropertyOp26
 70
     1
102
RTVSPropertyOp27
 70
     1
  0
XRECORD
  5
A1C
102
{ACAD_REACTORS
330
A1B
102
}
330
A1B
100
AcDbXrecord
280
     1
102
RTVSPropertyOp0
 70
     1
102
RTVSPropertyOp1
 70
     1
102
RTVSPropertyOp2
 70
     1
102
RTVSPropertyOp3
 70
     1
102
RTVSPropertyOp4
 70
     1
102
RTVSPropertyOp5
 70
     1
102
RTVSPropertyOp6
 70
     1
102
RTVSPropertyOp7
 70
     1
102
RTVSPropertyOp8
 70
     1
102
RTVSPropertyOp9
 70
     1
102
RTVSPropertyOp10
 70
     1
102
RTVSPropertyOp11
 70
     1
102
RTVSPropertyOp12
 70
     1
102
RTVSPropertyOp13
 70
     1
102
RTVSPropertyOp14
 70
     1
102
RTVSPropertyOp15
 70
     1
102
RTVSPropertyOp16
 70
     1
102
RTVSPropertyOp17
 70
     1
102
RTVSPropertyOp18
 70
     1
102
RTVSPropertyOp19
 70
     1
102
RTVSPropertyOp20
 70
     1
102
RTVSPropertyOp21
 70
     1
102
RTVSPropertyOp22
 70
     1
102
RTVSPropertyOp23
 70
     1
102
RTVSPropertyOp24
 70
     1
102
RTVSPropertyOp25
 70
     1
102
RTVSPropertyOp26
 70
     1
102
RTVSPropertyOp27
 70
     1
  0
XRECORD
  5
A20
102
{ACAD_REACTORS
330
A1F
102
}
330
A1F
100
AcDbXrecord
280
     1
102
RTVSPropertyOp0
 70
     1
102
RTVSPropertyOp1
 70
     1
102
RTVSPropertyOp2
 70
     1
102
RTVSPropertyOp3
 70
     1
102
RTVSPropertyOp4
 70
     1
102
RTVSPropertyOp5
 70
     1
102
RTVSPropertyOp6
 70
     1
102
RTVSPropertyOp7
 70
     1
102
RTVSPropertyOp8
 70
     1
102
RTVSPropertyOp9
 70
     1
102
RTVSPropertyOp10
 70
     1
102
RTVSPropertyOp11
 70
     1
102
RTVSPropertyOp12
 70
     1
102
RTVSPropertyOp13
 70
     1
102
RTVSPropertyOp14
 70
     1
102
RTVSPropertyOp15
 70
     1
102
RTVSPropertyOp16
 70
     1
102
RTVSPropertyOp17
 70
     1
102
RTVSPropertyOp18
 70
     1
102
RTVSPropertyOp19
 70
     1
102
RTVSPropertyOp20
 70
     1
102
RTVSPropertyOp21
 70
     1
102
RTVSPropertyOp22
 70
     1
102
RTVSPropertyOp23
 70
     1
102
RTVSPropertyOp24
 70
     1
102
RTVSPropertyOp25
 70
     1
102
RTVSPropertyOp26
 70
     1
102
RTVSPropertyOp27
 70
     1
  0
XRECORD
  5
A30
102
{ACAD_REACTORS
330
A2F
102
}
330
A2F
100
AcDbXrecord
280
     1
102
RTVSPropertyOp0
 70
     0
102
RTVSPropertyOp1
 70
     0
102
RTVSPropertyOp2
 70
     0
102
RTVSPropertyOp3
 70
     0
102
RTVSPropertyOp4
 70
     0
102
RTVSPropertyOp5
 70
     0
102
RTVSPropertyOp6
 70
     0
102
RTVSPropertyOp7
 70
     0
102
RTVSPropertyOp8
 70
     0
102
RTVSPropertyOp9
 70
     0
102
RTVSPropertyOp10
 70
     0
102
RTVSPropertyOp11
 70
     0
102
RTVSPropertyOp12
 70
     0
102
RTVSPropertyOp13
 70
     0
102
RTVSPropertyOp14
 70
     2
102
RTVSPropertyOp15
 70
     0
102
RTVSPropertyOp16
 70
     0
102
RTVSPropertyOp17
 70
     0
102
RTVSPropertyOp18
 70
     0
102
RTVSPropertyOp19
 70
     0
102
RTVSPropertyOp20
 70
     0
102
RTVSPropertyOp21
 70
     0
102
RTVSPropertyOp22
 70
     0
102
RTVSPropertyOp23
 70
     0
102
RTVSPropertyOp24
 70
     0
102
RTVSPropertyOp25
 70
     0
102
RTVSPropertyOp26
 70
     0
102
RTVSPropertyOp27
 70
     0
  0
XRECORD
  5
A28
102
{ACAD_REACTORS
330
A27
102
}
330
A27
100
AcDbXrecord
280
     1
102
RTVSPropertyOp0
 70
     1
102
RTVSPropertyOp1
 70
     1
102
RTVSPropertyOp2
 70
     1
102
RTVSPropertyOp3
 70
     1
102
RTVSPropertyOp4
 70
     1
102
RTVSPropertyOp5
 70
     1
102
RTVSPropertyOp6
 70
     1
102
RTVSPropertyOp7
 70
     1
102
RTVSPropertyOp8
 70
     1
102
RTVSPropertyOp9
 70
     1
102
RTVSPropertyOp10
 70
     1
102
RTVSPropertyOp11
 70
     1
102
RTVSPropertyOp12
 70
     1
102
RTVSPropertyOp13
 70
     1
102
RTVSPropertyOp14
 70
     1
102
RTVSPropertyOp15
 70
     1
102
RTVSPropertyOp16
 70
     1
102
RTVSPropertyOp17
 70
     1
102
RTVSPropertyOp18
 70
     1
102
RTVSPropertyOp19
 70
     1
102
RTVSPropertyOp20
 70
     1
102
RTVSPropertyOp21
 70
     1
102
RTVSPropertyOp22
 70
     1
102
RTVSPropertyOp23
 70
     1
102
RTVSPropertyOp24
 70
     1
102
RTVSPropertyOp25
 70
     1
102
RTVSPropertyOp26
 70
     1
102
RTVSPropertyOp27
 70
     1
  0
XRECORD
  5
A0C
102
{ACAD_REACTORS
330
A0B
102
}
330
A0B
100
AcDbXrecord
280
     1
102
RTVSPropertyOp0
 70
     1
102
RTVSPropertyOp1
 70
     1
102
RTVSPropertyOp2
 70
     1
102
RTVSPropertyOp3
 70
     1
102
RTVSPropertyOp4
 70
     1
102
RTVSPropertyOp5
 70
     1
102
RTVSPropertyOp6
 70
     1
102
RTVSPropertyOp7
 70
     1
102
RTVSPropertyOp8
 70
     1
102
RTVSPropertyOp9
 70
     1
102
RTVSPropertyOp10
 70
     1
102
RTVSPropertyOp11
 70
     1
102
RTVSPropertyOp12
 70
     1
102
RTVSPropertyOp13
 70
     1
102
RTVSPropertyOp14
 70
     1
102
RTVSPropertyOp15
 70
     1
102
RTVSPropertyOp16
 70
     1
102
RTVSPropertyOp17
 70
     1
102
RTVSPropertyOp18
 70
     1
102
RTVSPropertyOp19
 70
     1
102
RTVSPropertyOp20
 70
     1
102
RTVSPropertyOp21
 70
     1
102
RTVSPropertyOp22
 70
     1
102
RTVSPropertyOp23
 70
     1
102
RTVSPropertyOp24
 70
     1
102
RTVSPropertyOp25
 70
     1
102
RTVSPropertyOp26
 70
     1
102
RTVSPropertyOp27
 70
     1
  0
XRECORD
  5
A0E
102
{ACAD_REACTORS
330
A0D
102
}
330
A0D
100
AcDbXrecord
280
     1
102
RTVSPropertyOp0
 70
     1
102
RTVSPropertyOp1
 70
     1
102
RTVSPropertyOp2
 70
     1
102
RTVSPropertyOp3
 70
     1
102
RTVSPropertyOp4
 70
     1
102
RTVSPropertyOp5
 70
     1
102
RTVSPropertyOp6
 70
     1
102
RTVSPropertyOp7
 70
     1
102
RTVSPropertyOp8
 70
     1
102
RTVSPropertyOp9
 70
     1
102
RTVSPropertyOp10
 70
     1
102
RTVSPropertyOp11
 70
     1
102
RTVSPropertyOp12
 70
     1
102
RTVSPropertyOp13
 70
     1
102
RTVSPropertyOp14
 70
     1
102
RTVSPropertyOp15
 70
     1
102
RTVSPropertyOp16
 70
     1
102
RTVSPropertyOp17
 70
     1
102
RTVSPropertyOp18
 70
     1
102
RTVSPropertyOp19
 70
     1
102
RTVSPropertyOp20
 70
     1
102
RTVSPropertyOp21
 70
     1
102
RTVSPropertyOp22
 70
     1
102
RTVSPropertyOp23
 70
     1
102
RTVSPropertyOp24
 70
     1
102
RTVSPropertyOp25
 70
     1
102
RTVSPropertyOp26
 70
     1
102
RTVSPropertyOp27
 70
     1
  0
XRECORD
  5
A10
102
{ACAD_REACTORS
330
A0F
102
}
330
A0F
100
AcDbXrecord
280
     1
102
RTVSPropertyOp0
 70
     1
102
RTVSPropertyOp1
 70
     1
102
RTVSPropertyOp2
 70
     1
102
RTVSPropertyOp3
 70
     1
102
RTVSPropertyOp4
 70
     1
102
RTVSPropertyOp5
 70
     1
102
RTVSPropertyOp6
 70
     1
102
RTVSPropertyOp7
 70
     1
102
RTVSPropertyOp8
 70
     1
102
RTVSPropertyOp9
 70
     1
102
RTVSPropertyOp10
 70
     1
102
RTVSPropertyOp11
 70
     1
102
RTVSPropertyOp12
 70
     1
102
RTVSPropertyOp13
 70
     1
102
RTVSPropertyOp14
 70
     1
102
RTVSPropertyOp15
 70
     1
102
RTVSPropertyOp16
 70
     1
102
RTVSPropertyOp17
 70
     1
102
RTVSPropertyOp18
 70
     1
102
RTVSPropertyOp19
 70
     1
102
RTVSPropertyOp20
 70
     1
102
RTVSPropertyOp21
 70
     1
102
RTVSPropertyOp22
 70
     1
102
RTVSPropertyOp23
 70
     1
102
RTVSPropertyOp24
 70
     1
102
RTVSPropertyOp25
 70
     1
102
RTVSPropertyOp26
 70
     1
102
RTVSPropertyOp27
 70
     1
  0
XRECORD
  5
A12
102
{ACAD_REACTORS
330
A11
102
}
330
A11
100
AcDbXrecord
280
     1
102
RTVSPropertyOp0
 70
     1
102
RTVSPropertyOp1
 70
     1
102
RTVSPropertyOp2
 70
     1
102
RTVSPropertyOp3
 70
     1
102
RTVSPropertyOp4
 70
     1
102
RTVSPropertyOp5
 70
     1
102
RTVSPropertyOp6
 70
     1
102
RTVSPropertyOp7
 70
     1
102
RTVSPropertyOp8
 70
     1
102
RTVSPropertyOp9
 70
     1
102
RTVSPropertyOp10
 70
     1
102
RTVSPropertyOp11
 70
     1
102
RTVSPropertyOp12
 70
     1
102
RTVSPropertyOp13
 70
     1
102
RTVSPropertyOp14
 70
     1
102
RTVSPropertyOp15
 70
     1
102
RTVSPropertyOp16
 70
     1
102
RTVSPropertyOp17
 70
     1
102
RTVSPropertyOp18
 70
     1
102
RTVSPropertyOp19
 70
     1
102
RTVSPropertyOp20
 70
     1
102
RTVSPropertyOp21
 70
     1
102
RTVSPropertyOp22
 70
     1
102
RTVSPropertyOp23
 70
     1
102
RTVSPropertyOp24
 70
     1
102
RTVSPropertyOp25
 70
     1
102
RTVSPropertyOp26
 70
     1
102
RTVSPropertyOp27
 70
     1
  0
XRECORD
  5
A2C
102
{ACAD_REACTORS
330
A2B
102
}
330
A2B
100
AcDbXrecord
280
     1
102
RTVSPropertyOp0
 70
     0
102
RTVSPropertyOp1
 70
     0
102
RTVSPropertyOp2
 70
     0
102
RTVSPropertyOp3
 70
     0
102
RTVSPropertyOp4
 70
     0
102
RTVSPropertyOp5
 70
     0
102
RTVSPropertyOp6
 70
     0
102
RTVSPropertyOp7
 70
     0
102
RTVSPropertyOp8
 70
     0
102
RTVSPropertyOp9
 70
     0
102
RTVSPropertyOp10
 70
     0
102
RTVSPropertyOp11
 70
     0
102
RTVSPropertyOp12
 70
     0
102
RTVSPropertyOp13
 70
     0
102
RTVSPropertyOp14
 70
     2
102
RTVSPropertyOp15
 70
     0
102
RTVSPropertyOp16
 70
     0
102
RTVSPropertyOp17
 70
     0
102
RTVSPropertyOp18
 70
     0
102
RTVSPropertyOp19
 70
     0
102
RTVSPropertyOp20
 70
     0
102
RTVSPropertyOp21
 70
     0
102
RTVSPropertyOp22
 70
     0
102
RTVSPropertyOp23
 70
     0
102
RTVSPropertyOp24
 70
     0
102
RTVSPropertyOp25
 70
     0
102
RTVSPropertyOp26
 70
     0
102
RTVSPropertyOp27
 70
     0
  0
XRECORD
  5
A26
102
{ACAD_REACTORS
330
A25
102
}
330
A25
100
AcDbXrecord
280
     1
102
RTVSPropertyOp0
 70
     1
102
RTVSPropertyOp1
 70
     1
102
RTVSPropertyOp2
 70
     1
102
RTVSPropertyOp3
 70
     1
102
RTVSPropertyOp4
 70
     1
102
RTVSPropertyOp5
 70
     1
102
RTVSPropertyOp6
 70
     1
102
RTVSPropertyOp7
 70
     1
102
RTVSPropertyOp8
 70
     1
102
RTVSPropertyOp9
 70
     1
102
RTVSPropertyOp10
 70
     1
102
RTVSPropertyOp11
 70
     1
102
RTVSPropertyOp12
 70
     1
102
RTVSPropertyOp13
 70
     1
102
RTVSPropertyOp14
 70
     1
102
RTVSPropertyOp15
 70
     1
102
RTVSPropertyOp16
 70
     1
102
RTVSPropertyOp17
 70
     1
102
RTVSPropertyOp18
 70
     1
102
RTVSPropertyOp19
 70
     1
102
RTVSPropertyOp20
 70
     1
102
RTVSPropertyOp21
 70
     1
102
RTVSPropertyOp22
 70
     1
102
RTVSPropertyOp23
 70
     1
102
RTVSPropertyOp24
 70
     1
102
RTVSPropertyOp25
 70
     1
102
RTVSPropertyOp26
 70
     1
102
RTVSPropertyOp27
 70
     1
  0
XRECORD
  5
A2E
102
{ACAD_REACTORS
330
A2D
102
}
330
A2D
100
AcDbXrecord
280
     1
102
RTVSPropertyOp0
 70
     0
102
RTVSPropertyOp1
 70
     0
102
RTVSPropertyOp2
 70
     0
102
RTVSPropertyOp3
 70
     0
102
RTVSPropertyOp4
 70
     0
102
RTVSPropertyOp5
 70
     0
102
RTVSPropertyOp6
 70
     0
102
RTVSPropertyOp7
 70
     0
102
RTVSPropertyOp8
 70
     0
102
RTVSPropertyOp9
 70
     0
102
RTVSPropertyOp10
 70
     0
102
RTVSPropertyOp11
 70
     0
102
RTVSPropertyOp12
 70
     0
102
RTVSPropertyOp13
 70
     0
102
RTVSPropertyOp14
 70
     2
102
RTVSPropertyOp15
 70
     0
102
RTVSPropertyOp16
 70
     0
102
RTVSPropertyOp17
 70
     0
102
RTVSPropertyOp18
 70
     0
102
RTVSPropertyOp19
 70
     0
102
RTVSPropertyOp20
 70
     0
102
RTVSPropertyOp21
 70
     0
102
RTVSPropertyOp22
 70
     0
102
RTVSPropertyOp23
 70
     0
102
RTVSPropertyOp24
 70
     0
102
RTVSPropertyOp25
 70
     0
102
RTVSPropertyOp26
 70
     0
102
RTVSPropertyOp27
 70
     0
  0
XRECORD
  5
A1E
102
{ACAD_REACTORS
330
A1D
102
}
330
A1D
100
AcDbXrecord
280
     1
102
RTVSPropertyOp0
 70
     1
102
RTVSPropertyOp1
 70
     1
102
RTVSPropertyOp2
 70
     1
102
RTVSPropertyOp3
 70
     1
102
RTVSPropertyOp4
 70
     1
102
RTVSPropertyOp5
 70
     1
102
RTVSPropertyOp6
 70
     1
102
RTVSPropertyOp7
 70
     1
102
RTVSPropertyOp8
 70
     1
102
RTVSPropertyOp9
 70
     1
102
RTVSPropertyOp10
 70
     1
102
RTVSPropertyOp11
 70
     1
102
RTVSPropertyOp12
 70
     1
102
RTVSPropertyOp13
 70
     1
102
RTVSPropertyOp14
 70
     1
102
RTVSPropertyOp15
 70
     1
102
RTVSPropertyOp16
 70
     1
102
RTVSPropertyOp17
 70
     1
102
RTVSPropertyOp18
 70
     1
102
RTVSPropertyOp19
 70
     1
102
RTVSPropertyOp20
 70
     1
102
RTVSPropertyOp21
 70
     1
102
RTVSPropertyOp22
 70
     1
102
RTVSPropertyOp23
 70
     1
102
RTVSPropertyOp24
 70
     1
102
RTVSPropertyOp25
 70
     1
102
RTVSPropertyOp26
 70
     1
102
RTVSPropertyOp27
 70
     1
  0
XRECORD
  5
A24
102
{ACAD_REACTORS
330
A23
102
}
330
A23
100
AcDbXrecord
280
     1
102
RTVSPropertyOp0
 70
     1
102
RTVSPropertyOp1
 70
     1
102
RTVSPropertyOp2
 70
     1
102
RTVSPropertyOp3
 70
     1
102
RTVSPropertyOp4
 70
     1
102
RTVSPropertyOp5
 70
     1
102
RTVSPropertyOp6
 70
     1
102
RTVSPropertyOp7
 70
     1
102
RTVSPropertyOp8
 70
     1
102
RTVSPropertyOp9
 70
     1
102
RTVSPropertyOp10
 70
     1
102
RTVSPropertyOp11
 70
     1
102
RTVSPropertyOp12
 70
     1
102
RTVSPropertyOp13
 70
     1
102
RTVSPropertyOp14
 70
     1
102
RTVSPropertyOp15
 70
     1
102
RTVSPropertyOp16
 70
     1
102
RTVSPropertyOp17
 70
     1
102
RTVSPropertyOp18
 70
     1
102
RTVSPropertyOp19
 70
     1
102
RTVSPropertyOp20
 70
     1
102
RTVSPropertyOp21
 70
     1
102
RTVSPropertyOp22
 70
     1
102
RTVSPropertyOp23
 70
     1
102
RTVSPropertyOp24
 70
     1
102
RTVSPropertyOp25
 70
     1
102
RTVSPropertyOp26
 70
     1
102
RTVSPropertyOp27
 70
     1
  0
ENDSEC
  0
EOF
