  0
SECTION
  2
HEADER
  9
$ACADVER
  1
AC1015
  9
$ACADMAINTVER
 70
     6
  9
$DWGCODEPAGE
  3
ANSI_1252
  9
$INSBASE
 10
0.0
 20
0.0
 30
0.0
  9
$EXTMIN
 10
342.5630952380952
 20
214.13125
 30
0.0
  9
$EXTMAX
 10
1490.69375
 20
1060.224999999999
 30
0.0
  9
$LIMMIN
 10
0.0
 20
0.0
  9
$LIMMAX
 10
12.0
 20
9.0
  9
$ORTHOMODE
 70
     1
  9
$REGENMODE
 70
     1
  9
$FILLMODE
 70
     1
  9
$QTEXTMODE
 70
     0
  9
$MIRRTEXT
 70
     1
  9
$LTSCALE
 40
1.0
  9
$ATTMODE
 70
     1
  9
$TEXTSIZE
 40
0.0
  9
$TRACEWID
 40
0.05
  9
$TEXTSTYLE
  7
STANDARD
  9
$CLAYER
  8
0
  9
$CELTYPE
  6
CONTINUOUS
  9
$CECOLOR
 62
   256
  9
$CELTSCALE
 40
1.0
  9
$DISPSILH
 70
     0
  9
$DIMSCALE
 40
1.0
  9
$DIMASZ
 40
0.18
  9
$DIMEXO
 40
0.0625
  9
$DIMDLI
 40
0.38
  9
$DIMRND
 40
0.0
  9
$DIMDLE
 40
0.0
  9
$DIMEXE
 40
0.18
  9
$DIMTP
 40
0.0
  9
$DIMTM
 40
0.0
  9
$DIMTXT
 40
0.18
  9
$DIMCEN
 40
0.09
  9
$DIMTSZ
 40
0.0
  9
$DIMTOL
 70
     0
  9
$DIMLIM
 70
     0
  9
$DIMTIH
 70
     1
  9
$DIMTOH
 70
     1
  9
$DIMSE1
 70
     0
  9
$DIMSE2
 70
     0
  9
$DIMTAD
 70
     0
  9
$DIMZIN
 70
     0
  9
$DIMBLK
  1

  9
$DIMASO
 70
     1
  9
$DIMSHO
 70
     1
  9
$DIMPOST
  1

  9
$DIMAPOST
  1

  9
$DIMALT
 70
     0
  9
$DIMALTD
 70
     2
  9
$DIMALTF
 40
25.4
  9
$DIMLFAC
 40
1.0
  9
$DIMTOFL
 70
     0
  9
$DIMTVP
 40
0.0
  9
$DIMTIX
 70
     0
  9
$DIMSOXD
 70
     0
  9
$DIMSAH
 70
     0
  9
$DIMBLK1
  1

  9
$DIMBLK2
  1

  9
$DIMSTYLE
  2
STANDARD
  9
$DIMCLRD
 70
     0
  9
$DIMCLRE
 70
     0
  9
$DIMCLRT
 70
     0
  9
$DIMTFAC
 40
1.0
  9
$DIMGAP
 40
0.09
  9
$DIMJUST
 70
     0
  9
$DIMSD1
 70
     0
  9
$DIMSD2
 70
     0
  9
$DIMTOLJ
 70
     1
  9
$DIMTZIN
 70
     0
  9
$DIMALTZ
 70
     0
  9
$DIMALTTZ
 70
     0
  9
$DIMUPT
 70
     0
  9
$DIMDEC
 70
     4
  9
$DIMTDEC
 70
     4
  9
$DIMALTU
 70
     2
  9
$DIMALTTD
 70
     2
  9
$DIMTXSTY
  7
STANDARD
  9
$DIMAUNIT
 70
     0
  9
$DIMADEC
 70
     0
  9
$DIMALTRND
 40
0.0
  9
$DIMAZIN
 70
     0
  9
$DIMDSEP
 70
    46
  9
$DIMATFIT
 70
     3
  9
$DIMFRAC
 70
     0
  9
$DIMLDRBLK
  1

  9
$DIMLUNIT
 70
     2
  9
$DIMLWD
 70
    -2
  9
$DIMLWE
 70
    -2
  9
$DIMTMOVE
 70
     0
  9
$LUNITS
 70
     2
  9
$LUPREC
 70
     4
  9
$SKETCHINC
 40
0.1
  9
$FILLETRAD
 40
0.0
  9
$AUNITS
 70
     0
  9
$AUPREC
 70
     0
  9
$MENU
  1
acad
  9
$ELEVATION
 40
0.0
  9
$PELEVATION
 40
0.0
  9
$THICKNESS
 40
0.0
  9
$LIMCHECK
 70
     0
  9
$CHAMFERA
 40
0.0
  9
$CHAMFERB
 40
0.0
  9
$CHAMFERC
 40
0.0
  9
$CHAMFERD
 40
0.0
  9
$SKPOLY
 70
     0
  9
$TDCREATE
 40
2453238.720798611
  9
$TDUCREATE
 40
2453238.679131944
  9
$TDUPDATE
 40
2453253.393097789
  9
$TDUUPDATE
 40
2453253.351431122
  9
$TDINDWG
 40
0.0005507986
  9
$TDUSRTIMER
 40
0.0005506829
  9
$USRTIMER
 70
     1
  9
$ANGBASE
 50
0.0
  9
$ANGDIR
 70
     0
  9
$PDMODE
 70
     0
  9
$PDSIZE
 40
0.0
  9
$PLINEWID
 40
0.0
  9
$SPLFRAME
 70
     0
  9
$SPLINETYPE
 70
     6
  9
$SPLINESEGS
 70
    10
  9
$HANDSEED
  5
1D2
  9
$SURFTAB1
 70
     6
  9
$SURFTAB2
 70
     6
  9
$SURFTYPE
 70
     6
  9
$SURFU
 70
     6
  9
$SURFV
 70
     6
  9
$UCSBASE
  2

  9
$UCSNAME
  2

  9
$UCSORG
 10
0.0
 20
0.0
 30
0.0
  9
$UCSXDIR
 10
1.0
 20
0.0
 30
0.0
  9
$UCSYDIR
 10
0.0
 20
1.0
 30
0.0
  9
$UCSORTHOREF
  2

  9
$UCSORTHOVIEW
 70
     0
  9
$UCSORGTOP
 10
0.0
 20
0.0
 30
0.0
  9
$UCSORGBOTTOM
 10
0.0
 20
0.0
 30
0.0
  9
$UCSORGLEFT
 10
0.0
 20
0.0
 30
0.0
  9
$UCSORGRIGHT
 10
0.0
 20
0.0
 30
0.0
  9
$UCSORGFRONT
 10
0.0
 20
0.0
 30
0.0
  9
$UCSORGBACK
 10
0.0
 20
0.0
 30
0.0
  9
$PUCSBASE
  2

  9
$PUCSNAME
  2

  9
$PUCSORG
 10
0.0
 20
0.0
 30
0.0
  9
$PUCSXDIR
 10
1.0
 20
0.0
 30
0.0
  9
$PUCSYDIR
 10
0.0
 20
1.0
 30
0.0
  9
$PUCSORTHOREF
  2

  9
$PUCSORTHOVIEW
 70
     0
  9
$PUCSORGTOP
 10
0.0
 20
0.0
 30
0.0
  9
$PUCSORGBOTTOM
 10
0.0
 20
0.0
 30
0.0
  9
$PUCSORGLEFT
 10
0.0
 20
0.0
 30
0.0
  9
$PUCSORGRIGHT
 10
0.0
 20
0.0
 30
0.0
  9
$PUCSORGFRONT
 10
0.0
 20
0.0
 30
0.0
  9
$PUCSORGBACK
 10
0.0
 20
0.0
 30
0.0
  9
$USERI1
 70
     0
  9
$USERI2
 70
     0
  9
$USERI3
 70
     0
  9
$USERI4
 70
     0
  9
$USERI5
 70
     0
  9
$USERR1
 40
0.0
  9
$USERR2
 40
0.0
  9
$USERR3
 40
0.0
  9
$USERR4
 40
0.0
  9
$USERR5
 40
0.0
  9
$WORLDVIEW
 70
     1
  9
$SHADEDGE
 70
     3
  9
$SHADEDIF
 70
    70
  9
$TILEMODE
 70
     1
  9
$MAXACTVP
 70
    16
  9
$PINSBASE
 10
0.0
 20
0.0
 30
0.0
  9
$PLIMCHECK
 70
     0
  9
$PEXTMIN
 10
-1.000000000000000E+20
 20
-1.000000000000000E+20
 30
-1.000000000000000E+20
  9
$PEXTMAX
 10
-1.000000000000000E+20
 20
-1.000000000000000E+20
 30
-1.000000000000000E+20
  9
$PLIMMIN
 10
0.0
 20
0.0
  9
$PLIMMAX
 10
12.0
 20
9.0
  9
$UNITMODE
 70
     0
  9
$VISRETAIN
 70
     0
  9
$PLINEGEN
 70
     1
  9
$PSLTSCALE
 70
     0
  9
$TREEDEPTH
 70
  3020
  9
$CMLSTYLE
  2
Standard
  9
$CMLJUST
 70
     0
  9
$CMLSCALE
 40
1.0
  9
$PROXYGRAPHICS
 70
     1
  9
$MEASUREMENT
 70
     0
  9
$CELWEIGHT
370
    -1
  9
$ENDCAPS
280
     0
  9
$JOINSTYLE
280
     0
  9
$LWDISPLAY
290
     0
  9
$INSUNITS
 70
     0
  9
$HYPERLINKBASE
  1

  9
$STYLESHEET
  1

  9
$XEDIT
290
     1
  9
$CEPSNTYPE
380
     0
  9
$PSTYLEMODE
290
     1
  9
$FINGERPRINTGUID
  2
{E4D4D467-CC56-4939-A1EF-FD51AA07F4EC}
  9
$VERSIONGUID
  2
{BEC98A0E-E589-4B61-B2CB-CC2B84FA11B0}
  9
$EXTNAMES
290
     1
  9
$PSVPSCALE
 40
0.0
  9
$OLESTARTUP
290
     0
  0
ENDSEC
  0
SECTION
  2
CLASSES
  0
CLASS
  1
ACDBDICTIONARYWDFLT
  2
AcDbDictionaryWithDefault
  3
AutoCAD 2000
 90
        0
280
     0
281
     0
  0
CLASS
  1
ACDBPLACEHOLDER
  2
AcDbPlaceHolder
  3
AutoCAD 2000
 90
        0
280
     0
281
     0
  0
CLASS
  1
LAYOUT
  2
AcDbLayout
  3
AutoCAD 2000
 90
        0
280
     0
281
     0
  0
ENDSEC
  0
SECTION
  2
TABLES
  0
TABLE
  2
VPORT
  5
EB
330
0
100
AcDbSymbolTable
 70
     2
  0
VPORT
  5
1D1
330
EB
100
AcDbSymbolTableRecord
100
AcDbViewportTableRecord
  2
*Active
 70
     0
 10
0.0
 20
0.0
 11
1.0
 21
1.0
 12
529.2865599345836
 22
430.0883464881835
 13
0.0
 23
0.0
 14
0.0
 24
0.0
 15
0.0
 25
0.0
 16
0.0
 26
0.0
 36
1.0
 17
379.7575169999998
 27
393.4968749999999
 37
0.0
 40
890.3091039768579
 41
1.345483359746434
 42
50.0
 43
0.025
 44
0.0
 50
0.0
 51
0.0
 71
     0
 72
   100
 73
     1
 74
     0
 75
     0
 76
     0
 77
     0
 78
     0
281
     0
 65
     0
110
0.0
120
0.0
130
0.0
111
1.0
121
0.0
131
0.0
112
0.0
122
1.0
132
0.0
 79
     0
146
0.0
  0
ENDTAB
  0
TABLE
  2
LTYPE
  5
E8
330
0
100
AcDbSymbolTable
 70
     7
  0
LTYPE
  5
F6
330
E8
100
AcDbSymbolTableRecord
100
AcDbLinetypeTableRecord
  2
ByBlock
 70
     0
  3

 72
    65
 73
     0
 40
0.0
  0
LTYPE
  5
F7
330
E8
100
AcDbSymbolTableRecord
100
AcDbLinetypeTableRecord
  2
ByLayer
 70
     0
  3

 72
    65
 73
     0
 40
0.0
  0
LTYPE
  5
F8
330
E8
100
AcDbSymbolTableRecord
100
AcDbLinetypeTableRecord
  2
CONTINUOUS
 70
     0
  3
Solid line
 72
    65
 73
     0
 40
0.0
  0
LTYPE
  5
106
330
E8
100
AcDbSymbolTableRecord
100
AcDbLinetypeTableRecord
  2
DOT
 70
     0
  3
. . . . . . . . . . . . . . . . . . . . . . . . . . . . . . . . .
 72
    65
 73
     2
 40
0.25
 49
0.0
 74
     0
 49
-0.25
 74
     0
  0
LTYPE
  5
107
330
E8
100
AcDbSymbolTableRecord
100
AcDbLinetypeTableRecord
  2
HIDDEN
 70
     0
  3
__ __ __ __ __ __ __ __ __ __ __ __ __ __ __ __ __ __ __ __ __ 
 72
    65
 73
     2
 40
0.375
 49
0.25
 74
     0
 49
-0.125
 74
     0
  0
LTYPE
  5
108
330
E8
100
AcDbSymbolTableRecord
100
AcDbLinetypeTableRecord
  2
DASHED
 70
     0
  3
__ __ __ __ __ __ __ __ __ __ __ __ __ __ __ __ __ __ __ __ __
 72
    65
 73
     2
 40
0.75
 49
0.5
 74
     0
 49
-0.25
 74
     0
  0
LTYPE
  5
109
330
E8
100
AcDbSymbolTableRecord
100
AcDbLinetypeTableRecord
  2
DASHDOT
 70
     0
  3
__ . __ . __ . __ . __ . __ . __ . __ . __ . __ . __ . __ . _
 72
    65
 73
     4
 40
1.0
 49
0.5
 74
     0
 49
-0.25
 74
     0
 49
0.0
 74
     0
 49
-0.25
 74
     0
  0
LTYPE
  5
10A
330
E8
100
AcDbSymbolTableRecord
100
AcDbLinetypeTableRecord
  2
DIVIDE
 70
     0
  3
____ . . ____ . . ____ . . ____ . . ____ . . ____ . . ____ . .
 72
    65
 73
     6
 40
1.25
 49
0.5
 74
     0
 49
-0.25
 74
     0
 49
0.0
 74
     0
 49
-0.25
 74
     0
 49
0.0
 74
     0
 49
-0.25
 74
     0
  0
LTYPE
  5
10B
330
E8
100
AcDbSymbolTableRecord
100
AcDbLinetypeTableRecord
  2
CENTER
 70
     0
  3
____ _ ____ _ ____ _ ____ _ ____ _ ____ _ ____ _ ____ _ ____ _
 72
    65
 73
     4
 40
2.0
 49
1.25
 74
     0
 49
-0.25
 74
     0
 49
0.25
 74
     0
 49
-0.25
 74
     0
  0
ENDTAB
  0
TABLE
  2
LAYER
  5
E5
330
0
100
AcDbSymbolTable
 70
     4
  0
LAYER
  5
F3
330
E5
100
AcDbSymbolTableRecord
100
AcDbLayerTableRecord
  2
0
 70
     0
 62
     7
  6
CONTINUOUS
370
    -3
390
F2
  0
LAYER
  5
10C
330
E5
100
AcDbSymbolTableRecord
100
AcDbLayerTableRecord
  2
CONSTRUCTION_CLASS
 70
     0
 62
     7
  6
CONTINUOUS
370
    -3
390
F2
  0
LAYER
  5
10D
330
E5
100
AcDbSymbolTableRecord
100
AcDbLayerTableRecord
  2
PATTERN_CLASS
 70
     0
 62
     7
  6
CONTINUOUS
370
    -3
390
F2
  0
LAYER
  5
10E
330
E5
100
AcDbSymbolTableRecord
100
AcDbLayerTableRecord
  2
1
 70
     0
 62
     7
  6
CONTINUOUS
370
    -3
390
F2
  0
ENDTAB
  0
TABLE
  2
STYLE
  5
E6
330
0
100
AcDbSymbolTable
 70
     2
  0
STYLE
  5
F4
330
E6
100
AcDbSymbolTableRecord
100
AcDbTextStyleTableRecord
  2
STANDARD
 70
     0
 40
0.0
 41
1.0
 50
0.0
 71
     0
 42
0.0
  3
txt
  4

  0
STYLE
  5
10F
330
E6
100
AcDbSymbolTableRecord
100
AcDbTextStyleTableRecord
  2
ROMANS
 70
     0
 40
0.2
 41
1.0
 50
0.0
 71
     0
 42
0.2
  3
ROMANS
  4

  0
ENDTAB
  0
TABLE
  2
VIEW
  5
E9
330
0
100
AcDbSymbolTable
 70
     0
  0
ENDTAB
  0
TABLE
  2
UCS
  5
EA
330
0
100
AcDbSymbolTable
 70
     0
  0
ENDTAB
  0
TABLE
  2
APPID
  5
EC
330
0
100
AcDbSymbolTable
 70
     1
  0
APPID
  5
F5
330
EC
100
AcDbSymbolTableRecord
100
AcDbRegAppTableRecord
  2
ACAD
 70
     0
  0
ENDTAB
  0
TABLE
  2
DIMSTYLE
  5
ED
330
0
100
AcDbSymbolTable
 70
     1
100
AcDbDimStyleTable
 71
     0
  0
DIMSTYLE
105
110
330
ED
100
AcDbSymbolTableRecord
100
AcDbDimStyleTableRecord
  2
STANDARD
 70
     0
279
     2
340
F4
  0
ENDTAB
  0
TABLE
  2
BLOCK_RECORD
  5
E4
330
0
100
AcDbSymbolTable
 70
     0
  0
BLOCK_RECORD
  5
101
330
E4
100
AcDbSymbolTableRecord
100
AcDbBlockTableRecord
  2
*Model_Space
340
104
  0
BLOCK_RECORD
  5
FD
330
E4
100
AcDbSymbolTableRecord
100
AcDbBlockTableRecord
  2
*Paper_Space
340
100
  0
ENDTAB
  0
ENDSEC
  0
SECTION
  2
BLOCKS
  0
BLOCK
  5
102
330
101
100
AcDbEntity
  8
0
100
AcDbBlockBegin
  2
*Model_Space
 70
     0
 10
0.0
 20
0.0
 30
0.0
  3
*Model_Space
  1

  0
ENDBLK
  5
103
330
101
100
AcDbEntity
  8
0
100
AcDbBlockEnd
  0
BLOCK
  5
FE
330
FD
100
AcDbEntity
 67
     1
  8
0
100
AcDbBlockBegin
  2
*Paper_Space
 70
     0
 10
0.0
 20
0.0
 30
0.0
  3
*Paper_Space
  1

  0
ENDBLK
  5
FF
330
FD
100
AcDbEntity
 67
     1
  8
0
100
AcDbBlockEnd
  0
ENDSEC
  0
SECTION
  2
ENTITIES
  0
LINE
  5
113
330
101
100
AcDbEntity
  8
1
  6
Continuous
 62
     7
100
AcDbLine
 10
1304.3375
 20
1047.575
 30
0.0
 11
1240.65625
 21
983.89375
 31
0.0
  0
LINE
  5
114
330
101
100
AcDbEntity
  8
1
  6
Continuous
 62
     7
100
AcDbLine
 10
1243.41875
 20
977.3875
 30
0.0
 11
1231.41875
 21
1005.61875
 31
0.0
  0
LINE
  5
115
330
101
100
AcDbEntity
  8
1
  6
Continuous
 62
     7
100
AcDbLine
 10
1231.41875
 20
1005.61875
 30
0.0
 11
1212.39375
 21
1005.81875
 31
0.0
  0
LINE
  5
116
330
101
100
AcDbEntity
  8
1
  6
Continuous
 62
     7
100
AcDbLine
 10
1243.41875
 20
977.3875
 30
0.0
 11
1287.849999999999
 21
977.3875
 31
0.0
  0
LINE
  5
117
330
101
100
AcDbEntity
  8
1
  6
Continuous
 62
     7
100
AcDbLine
 10
1318.80625
 20
1041.04375
 30
0.0
 11
1255.15
 21
977.3875
 31
0.0
  0
LINE
  5
118
330
101
100
AcDbEntity
  8
1
  6
Continuous
 62
     7
100
AcDbLine
 10
1312.24375
 20
1013.48125
 30
0.0
 11
1276.15
 21
977.3875
 31
0.0
  0
LINE
  5
119
330
101
100
AcDbEntity
  8
1
  6
Continuous
 62
     7
100
AcDbLine
 10
1289.05
 20
1053.287499999999
 30
0.0
 11
1234.3875
 21
998.625
 31
0.0
  0
LINE
  5
11A
330
101
100
AcDbEntity
  8
1
  6
Continuous
 62
     7
100
AcDbLine
 10
1251.45625
 20
1057.69375
 30
0.0
 11
1171.15
 21
977.3875
 31
0.0
  0
LINE
  5
11B
330
101
100
AcDbEntity
  8
1
  6
Continuous
 62
     7
100
AcDbLine
 10
1224.9375
 20
1052.174999999998
 30
0.0
 11
1150.15
 21
977.3875
 31
0.0
  0
LINE
  5
11C
330
101
100
AcDbEntity
  8
1
  6
Continuous
 62
     7
100
AcDbLine
 10
1199.518749999999
 20
1047.756249999999
 30
0.0
 11
1139.59375
 21
987.8312499999999
 31
0.0
  0
LINE
  5
11D
330
101
100
AcDbEntity
  8
1
  6
Continuous
 62
     7
100
AcDbLine
 10
1200.21875
 20
977.3875
 30
0.0
 11
1140.05
 21
977.3875
 31
0.0
  0
LINE
  5
11E
330
101
100
AcDbEntity
  8
1
  6
Continuous
 62
     7
100
AcDbLine
 10
1140.05
 20
977.3875
 30
0.0
 11
1138.76875
 21
1006.774999999999
 31
0.0
  0
LINE
  5
11F
330
101
100
AcDbEntity
  8
1
  6
Continuous
 62
     7
100
AcDbLine
 10
1138.76875
 20
1006.774999999999
 30
0.0
 11
1143.487499999999
 21
1024.4625
 31
0.0
  0
LINE
  5
120
330
101
100
AcDbEntity
  8
1
  6
Continuous
 62
     7
100
AcDbLine
 10
1143.487499999999
 20
1024.4625
 30
0.0
 11
1141.125
 21
1049.6125
 31
0.0
  0
LINE
  5
121
330
101
100
AcDbEntity
  8
1
  6
Continuous
 62
     7
100
AcDbLine
 10
1141.125
 20
1049.6125
 30
0.0
 11
1163.1375
 21
1053.937499999998
 31
0.0
  0
LINE
  5
122
330
101
100
AcDbEntity
  8
1
  6
Continuous
 62
     7
100
AcDbLine
 10
1163.1375
 20
1053.937499999998
 30
0.0
 11
1204.79375
 21
1046.8625
 31
0.0
  0
LINE
  5
123
330
101
100
AcDbEntity
  8
1
  6
Continuous
 62
     7
100
AcDbLine
 10
1204.79375
 20
1046.8625
 30
0.0
 11
1240.55625
 21
1056.29375
 31
0.0
  0
LINE
  5
124
330
101
100
AcDbEntity
  8
1
  6
Continuous
 62
     7
100
AcDbLine
 10
1240.55625
 20
1056.29375
 30
0.0
 11
1271.2125
 21
1060.224999999999
 31
0.0
  0
LINE
  5
125
330
101
100
AcDbEntity
  8
1
  6
Continuous
 62
     7
100
AcDbLine
 10
1271.2125
 20
1060.224999999999
 30
0.0
 11
1299.50625
 21
1049.21875
 31
0.0
  0
LINE
  5
126
330
101
100
AcDbEntity
  8
1
  6
Continuous
 62
     7
100
AcDbLine
 10
1299.50625
 20
1049.21875
 30
0.0
 11
1319.1625
 21
1042.537499999999
 31
0.0
  0
LINE
  5
127
330
101
100
AcDbEntity
  8
1
  6
Continuous
 62
     7
100
AcDbLine
 10
1319.1625
 20
1042.537499999999
 30
0.0
 11
1311.3
 21
1009.525
 31
0.0
  0
LINE
  5
128
330
101
100
AcDbEntity
  8
1
  6
Continuous
 62
     7
100
AcDbLine
 10
1311.3
 20
1009.525
 30
0.0
 11
1298.725
 21
1000.09375
 31
0.0
  0
LINE
  5
129
330
101
100
AcDbEntity
  8
1
  6
Continuous
 62
     7
100
AcDbLine
 10
1298.725
 20
1000.09375
 30
0.0
 11
1287.849999999999
 21
977.3875
 31
0.0
  0
LINE
  5
12A
330
101
100
AcDbEntity
  8
1
  6
Continuous
 62
     7
100
AcDbLine
 10
1181.56875
 20
1050.80625
 30
0.0
 11
1139.21875
 21
1008.45625
 31
0.0
  0
LINE
  5
12B
330
101
100
AcDbEntity
  8
1
  6
Continuous
 62
     7
100
AcDbLine
 10
1163.61875
 20
1053.85625
 30
0.0
 11
1142.69375
 21
1032.93125
 31
0.0
  0
LINE
  5
12C
330
101
100
AcDbEntity
  8
1
  6
Continuous
 62
     7
100
AcDbLine
 10
1273.93125
 20
1059.16875
 30
0.0
 11
1220.374999999998
 21
1005.61875
 31
0.0
  0
LINE
  5
12D
330
101
100
AcDbEntity
  8
1
  6
Continuous
 62
     7
100
AcDbLine
 10
1206.1875
 20
991.4312499999999
 30
0.0
 11
1192.15625
 21
977.3875
 31
0.0
  0
LINE
  5
12E
330
101
100
AcDbEntity
  8
1
  6
Continuous
 62
     3
100
AcDbLine
 10
1239.41875
 20
1005.61875
 30
0.0
 11
1461.7
 21
1005.61875
 31
0.0
  0
LINE
  5
12F
330
101
100
AcDbEntity
  8
1
  6
Continuous
 62
     3
100
AcDbLine
 10
1295.849999999999
 20
977.3875
 30
0.0
 11
1461.7
 21
977.3875
 31
0.0
  0
LINE
  5
130
330
101
100
AcDbEntity
  8
1
  6
Continuous
 62
     3
100
AcDbLine
 10
1200.21875
 20
969.3875
 30
0.0
 11
1200.21875
 21
895.69375
 31
0.0
  0
LINE
  5
131
330
101
100
AcDbEntity
  8
1
  6
Continuous
 62
     3
100
AcDbLine
 10
1243.41875
 20
969.3875
 30
0.0
 11
1243.41875
 21
895.69375
 31
0.0
  0
LINE
  5
132
330
101
100
AcDbEntity
  8
1
  6
Continuous
 62
     3
100
AcDbLine
 10
1168.03125
 20
901.675
 30
0.0
 11
1196.50625
 21
968.65
 31
0.0
  0
LINE
  5
133
330
101
100
AcDbEntity
  8
1
  6
Continuous
 62
     7
100
AcDbLine
 10
1200.2125
 20
977.3875
 30
0.0
 11
1212.21875
 21
1005.61875
 31
0.0
  0
LINE
  5
134
330
101
100
AcDbEntity
  8
1
  6
Continuous
 62
     3
100
AcDbLine
 10
1219.706249999999
 20
903.5312499999999
 30
0.0
 11
1223.93125
 21
903.5312499999999
 31
0.0
  0
ARC
  5
135
330
101
100
AcDbEntity
  8
1
  6
Continuous
 62
     3
100
AcDbCircle
 10
1200.21875
 20
977.3875
 30
0.0
 40
73.85625
100
AcDbArc
 50
246.971256
 51
270.0
  0
LINE
  5
136
330
101
100
AcDbEntity
  8
1
  6
Continuous
 62
     3
100
AcDbLine
 10
1453.7
 20
1029.33125
 30
0.0
 11
1453.7
 21
1040.46875
 31
0.0
  0
LINE
  5
137
330
101
100
AcDbEntity
  8
1
  6
Continuous
 62
     3
100
AcDbLine
 10
1154.0875
 20
918.5125000000001
 30
0.0
 11
1149.3125
 21
921.03125
 31
0.0
  0
LINE
  5
138
330
101
100
AcDbEntity
  8
1
  6
Continuous
 62
     3
100
AcDbLine
 10
1149.3125
 20
921.03125
 30
0.0
 11
1139.99375
 21
921.03125
 31
0.0
  0
LINE
  5
139
330
101
100
AcDbEntity
  8
1
  6
Continuous
 62
     5
100
AcDbLine
 10
1225.812499999999
 20
874.5
 30
0.0
 11
1263.8125
 21
874.5
 31
0.0
  0
LINE
  5
13A
330
101
100
AcDbEntity
  8
1
  6
Continuous
 62
     5
100
AcDbLine
 10
1453.69375
 20
922.6375
 30
0.0
 11
1490.69375
 21
922.6375
 31
0.0
  0
LINE
  5
13B
330
101
100
AcDbEntity
  8
1
  6
Continuous
 62
     3
100
AcDbLine
 10
1200.21875
 20
903.5312499999999
 30
0.0
 11
1219.706249999999
 21
908.9187500000001
 31
0.0
  0
LINE
  5
13C
330
101
100
AcDbEntity
  8
1
  6
Continuous
 62
     3
100
AcDbLine
 10
1200.21875
 20
903.5312499999999
 30
0.0
 11
1219.706249999999
 21
898.14375
 31
0.0
  0
LINE
  5
13D
330
101
100
AcDbEntity
  8
1
  6
Continuous
 62
     3
100
AcDbLine
 10
1223.93125
 20
898.14375
 30
0.0
 11
1223.93125
 21
908.9187500000001
 31
0.0
  0
LINE
  5
13E
330
101
100
AcDbEntity
  8
1
  6
Continuous
 62
     3
100
AcDbLine
 10
1243.41875
 20
903.5312499999999
 30
0.0
 11
1223.93125
 21
908.9187500000001
 31
0.0
  0
LINE
  5
13F
330
101
100
AcDbEntity
  8
1
  6
Continuous
 62
     3
100
AcDbLine
 10
1243.41875
 20
903.5312499999999
 30
0.0
 11
1223.93125
 21
898.14375
 31
0.0
  0
LINE
  5
140
330
101
100
AcDbEntity
  8
1
  6
Continuous
 62
     3
100
AcDbLine
 10
1219.706249999999
 20
898.14375
 30
0.0
 11
1219.706249999999
 21
908.9187500000001
 31
0.0
  0
LINE
  5
141
330
101
100
AcDbEntity
  8
1
  6
Continuous
 62
     3
100
AcDbLine
 10
1151.506249999999
 20
913.40625
 30
0.0
 11
1156.375
 21
923.0249999999999
 31
0.0
  0
LINE
  5
142
330
101
100
AcDbEntity
  8
1
  6
Continuous
 62
     3
100
AcDbLine
 10
1171.325
 20
909.41875
 30
0.0
 11
1156.375
 21
923.0249999999999
 31
0.0
  0
LINE
  5
143
330
101
100
AcDbEntity
  8
1
  6
Continuous
 62
     3
100
AcDbLine
 10
1171.325
 20
909.41875
 30
0.0
 11
1151.506249999999
 21
913.40625
 31
0.0
  0
LINE
  5
144
330
101
100
AcDbEntity
  8
1
  6
Continuous
 62
     3
100
AcDbLine
 10
1453.7
 20
1005.61875
 30
0.0
 11
1447.14375
 21
1029.33125
 31
0.0
  0
LINE
  5
145
330
101
100
AcDbEntity
  8
1
  6
Continuous
 62
     3
100
AcDbLine
 10
1453.7
 20
1005.61875
 30
0.0
 11
1460.25625
 21
1029.33125
 31
0.0
  0
LINE
  5
146
330
101
100
AcDbEntity
  8
1
  6
Continuous
 62
     3
100
AcDbLine
 10
1460.25625
 20
1029.33125
 30
0.0
 11
1447.14375
 21
1029.33125
 31
0.0
  0
LINE
  5
147
330
101
100
AcDbEntity
  8
1
  6
Continuous
 62
     3
100
AcDbLine
 10
1460.25625
 20
953.6749999999999
 30
0.0
 11
1453.7
 21
977.3875
 31
0.0
  0
LINE
  5
148
330
101
100
AcDbEntity
  8
1
  6
Continuous
 62
     3
100
AcDbLine
 10
1447.14375
 20
953.6749999999999
 30
0.0
 11
1453.7
 21
977.3875
 31
0.0
  0
LINE
  5
149
330
101
100
AcDbEntity
  8
1
  6
Continuous
 62
     3
100
AcDbLine
 10
1447.14375
 20
953.6749999999999
 30
0.0
 11
1460.25625
 21
953.6749999999999
 31
0.0
  0
LINE
  5
14A
330
101
100
AcDbEntity
  8
1
  6
Continuous
 62
     3
100
AcDbLine
 10
1453.7
 20
953.6749999999999
 30
0.0
 11
1453.7
 21
940.9500000000001
 31
0.0
  0
LINE
  5
14B
330
101
100
AcDbEntity
  8
1
  6
Continuous
 62
     7
100
AcDbLine
 10
593.31875
 20
510.85
 30
0.0
 11
593.31875
 21
462.4624999999999
 31
0.0
  0
LINE
  5
14C
330
101
100
AcDbEntity
  8
1
  6
Continuous
 62
     7
100
AcDbLine
 10
1122.8875
 20
510.85
 30
0.0
 11
1122.8875
 21
462.4624999999999
 31
0.0
  0
LINE
  5
14D
330
101
100
AcDbEntity
  8
1
  6
Continuous
 62
     7
100
AcDbLine
 10
1017.625
 20
520.8124999999999
 30
0.0
 11
1112.924999999999
 21
520.8124999999999
 31
0.0
  0
LINE
  5
14E
330
101
100
AcDbEntity
  8
1
  6
Continuous
 62
     7
100
AcDbLine
 10
695.56875
 20
462.4624999999999
 30
0.0
 11
695.56875
 21
447.95625
 31
0.0
  0
LINE
  5
14F
330
101
100
AcDbEntity
  8
1
  6
Continuous
 62
     7
100
AcDbLine
 10
1020.59375
 20
462.4624999999999
 30
0.0
 11
1020.59375
 21
447.95625
 31
0.0
  0
LINE
  5
150
330
101
100
AcDbEntity
  8
1
  6
Continuous
 62
     7
100
AcDbLine
 10
593.31875
 20
462.4624999999999
 30
0.0
 11
695.56875
 21
462.4624999999999
 31
0.0
  0
LINE
  5
151
330
101
100
AcDbEntity
  8
1
  6
Continuous
 62
     7
100
AcDbLine
 10
1020.59375
 20
462.4624999999999
 30
0.0
 11
1122.8875
 21
462.4624999999999
 31
0.0
  0
LINE
  5
152
330
101
100
AcDbEntity
  8
1
  6
Continuous
 62
     4
100
AcDbLine
 10
648.91875
 20
520.8124999999999
 30
0.0
 11
648.91875
 21
462.4624999999999
 31
0.0
  0
LINE
  5
153
330
101
100
AcDbEntity
  8
1
  6
Continuous
 62
     4
100
AcDbLine
 10
1067.24375
 20
520.8124999999999
 30
0.0
 11
1067.24375
 21
462.4624999999999
 31
0.0
  0
LINE
  5
154
330
101
100
AcDbEntity
  8
1
  6
Continuous
 62
     7
100
AcDbLine
 10
614.0625
 20
520.8124999999999
 30
0.0
 11
614.0625
 21
462.4624999999999
 31
0.0
  0
LINE
  5
155
330
101
100
AcDbEntity
  8
1
  6
Continuous
 62
     7
100
AcDbLine
 10
683.78125
 20
520.8124999999999
 30
0.0
 11
683.78125
 21
462.4624999999999
 31
0.0
  0
LINE
  5
156
330
101
100
AcDbEntity
  8
1
  6
Continuous
 62
     7
100
AcDbLine
 10
1032.38125
 20
520.8124999999999
 30
0.0
 11
1032.38125
 21
462.4624999999999
 31
0.0
  0
LINE
  5
157
330
101
100
AcDbEntity
  8
1
  6
Continuous
 62
     7
100
AcDbLine
 10
1102.099999999998
 20
520.8124999999999
 30
0.0
 11
1102.099999999998
 21
462.4624999999999
 31
0.0
  0
LINE
  5
158
330
101
100
AcDbEntity
  8
1
  6
Continuous
 62
     7
100
AcDbLine
 10
606.2437499999998
 20
520.8062499999998
 30
0.0
 11
593.31875
 21
507.875
 31
0.0
  0
LINE
  5
159
330
101
100
AcDbEntity
  8
1
  6
Continuous
 62
     7
100
AcDbLine
 10
614.0625
 20
507.4875
 30
0.0
 11
593.31875
 21
486.74375
 31
0.0
  0
LINE
  5
15A
330
101
100
AcDbEntity
  8
1
  6
Continuous
 62
     7
100
AcDbLine
 10
614.0625
 20
486.3562499999998
 30
0.0
 11
593.31875
 21
465.6187499999998
 31
0.0
  0
LINE
  5
15B
330
101
100
AcDbEntity
  8
1
  6
Continuous
 62
     7
100
AcDbLine
 10
1113.325
 20
520.8062499999998
 30
0.0
 11
1102.099999999998
 21
509.58125
 31
0.0
  0
LINE
  5
15C
330
101
100
AcDbEntity
  8
1
  6
Continuous
 62
     7
100
AcDbLine
 10
1122.8875
 20
509.23125
 30
0.0
 11
1102.099999999998
 21
488.44375
 31
0.0
  0
LINE
  5
15D
330
101
100
AcDbEntity
  8
1
  6
Continuous
 62
     7
100
AcDbLine
 10
1122.8875
 20
488.1062499999998
 30
0.0
 11
1102.099999999998
 21
467.31875
 31
0.0
  0
ARC
  5
15E
330
101
100
AcDbEntity
  8
1
  6
Continuous
 62
     7
100
AcDbCircle
 10
603.2816249999998
 20
510.8494999999998
 30
0.0
 40
9.96
100
AcDbArc
 50
61.767356
 51
61.78281099999999
  0
ARC
  5
15F
330
101
100
AcDbEntity
  8
1
  6
Continuous
 62
     7
100
AcDbCircle
 10
603.2816249999998
 20
510.8494999999998
 30
0.0
 40
9.96
100
AcDbArc
 50
90.000064
 51
180.0
  0
ARC
  5
160
330
101
100
AcDbEntity
  8
1
  6
Continuous
 62
     7
100
AcDbCircle
 10
1112.927562
 20
510.8494999999998
 30
0.0
 40
9.96
100
AcDbArc
 50
359.999986
 51
90.00000300000001
  0
LINE
  5
161
330
101
100
AcDbEntity
  8
1
  6
Continuous
 62
     7
100
AcDbLine
 10
1122.8875
 20
466.9812499999999
 30
0.0
 11
1118.36875
 21
462.4624999999999
 31
0.0
  0
LINE
  5
162
330
101
100
AcDbEntity
  8
1
  6
Continuous
 62
     3
100
AcDbLine
 10
590.35
 20
747.7625
 30
0.0
 11
492.0
 21
747.7625
 31
0.0
  0
LINE
  5
163
330
101
100
AcDbEntity
  8
1
  6
Continuous
 62
     3
100
AcDbLine
 10
585.0187499999998
 20
462.4624999999999
 30
0.0
 11
450.54375
 21
462.4624999999999
 31
0.0
  0
LINE
  5
164
330
101
100
AcDbEntity
  8
1
  6
Continuous
 62
     3
100
AcDbLine
 10
687.2687499999998
 20
447.95625
 30
0.0
 11
450.54375
 21
447.95625
 31
0.0
  0
LINE
  5
165
330
101
100
AcDbEntity
  8
1
  6
Continuous
 62
     3
100
AcDbLine
 10
458.84375
 20
486.1749999999998
 30
0.0
 11
458.84375
 21
511.875
 31
0.0
  0
LINE
  5
166
330
101
100
AcDbEntity
  8
1
  6
Continuous
 62
     3
100
AcDbLine
 10
458.84375
 20
398.5375
 30
0.0
 11
458.84375
 21
424.2437499999998
 31
0.0
  0
LINE
  5
167
330
101
100
AcDbEntity
  8
1
  6
Continuous
 62
     3
100
AcDbLine
 10
458.84375
 20
398.5375
 30
0.0
 11
353.0
 21
398.5375
 31
0.0
  0
LINE
  5
168
330
101
100
AcDbEntity
  8
1
  6
Continuous
 62
     3
100
AcDbLine
 10
593.31875
 20
454.1625
 30
0.0
 11
593.31875
 21
214.13125
 31
0.0
  0
LINE
  5
169
330
101
100
AcDbEntity
  8
1
  6
Continuous
 62
     3
100
AcDbLine
 10
648.91875
 20
428.5437499999998
 30
0.0
 11
648.91875
 21
265.51875
 31
0.0
  0
LINE
  5
16A
330
101
100
AcDbEntity
  8
1
  6
Continuous
 62
     3
100
AcDbLine
 10
695.56875
 20
439.6562499999998
 30
0.0
 11
695.56875
 21
318.2749999999998
 31
0.0
  0
LINE
  5
16B
330
101
100
AcDbEntity
  8
1
  6
Continuous
 62
     3
100
AcDbLine
 10
1020.59375
 20
439.6562499999998
 30
0.0
 11
1020.59375
 21
318.2749999999998
 31
0.0
  0
LINE
  5
16C
330
101
100
AcDbEntity
  8
1
  6
Continuous
 62
     3
100
AcDbLine
 10
1067.24375
 20
429.9937499999998
 30
0.0
 11
1067.24375
 21
265.51875
 31
0.0
  0
LINE
  5
16D
330
101
100
AcDbEntity
  8
1
  6
Continuous
 62
     3
100
AcDbLine
 10
1122.8875
 20
454.1625
 30
0.0
 11
1122.8875
 21
214.13125
 31
0.0
  0
LINE
  5
16E
330
101
100
AcDbEntity
  8
1
  6
Continuous
 62
     3
100
AcDbLine
 10
1120.924999999999
 20
520.8124999999999
 30
0.0
 11
1261.1875
 21
520.8124999999999
 31
0.0
  0
LINE
  5
16F
330
101
100
AcDbEntity
  8
1
  6
Continuous
 62
     7
100
AcDbLine
 10
732.0812499999998
 20
447.95625
 30
0.0
 11
727.0812499999998
 21
459.71875
 31
0.0
  0
LINE
  5
170
330
101
100
AcDbEntity
  8
1
  6
Continuous
 62
     7
100
AcDbLine
 10
714.08125
 20
447.95625
 30
0.0
 11
719.0812499999998
 21
459.71875
 31
0.0
  0
LINE
  5
171
330
101
100
AcDbEntity
  8
1
  6
Continuous
 62
     7
100
AcDbLine
 10
719.0812499999998
 20
459.71875
 30
0.0
 11
727.0812499999998
 21
459.71875
 31
0.0
  0
LINE
  5
172
330
101
100
AcDbEntity
  8
1
  6
Continuous
 62
     7
100
AcDbLine
 10
695.56875
 20
447.95625
 30
0.0
 11
714.08125
 21
447.95625
 31
0.0
  0
LINE
  5
173
330
101
100
AcDbEntity
  8
1
  6
Continuous
 62
     7
100
AcDbLine
 10
984.08125
 20
447.95625
 30
0.0
 11
989.0812499999999
 21
459.71875
 31
0.0
  0
LINE
  5
174
330
101
100
AcDbEntity
  8
1
  6
Continuous
 62
     7
100
AcDbLine
 10
1002.08125
 20
447.95625
 30
0.0
 11
997.0812499999999
 21
459.71875
 31
0.0
  0
LINE
  5
175
330
101
100
AcDbEntity
  8
1
  6
Continuous
 62
     7
100
AcDbLine
 10
997.0812499999999
 20
459.71875
 30
0.0
 11
989.0812499999999
 21
459.71875
 31
0.0
  0
LINE
  5
176
330
101
100
AcDbEntity
  8
1
  6
Continuous
 62
     7
100
AcDbLine
 10
732.0812499999998
 20
447.95625
 30
0.0
 11
984.08125
 21
447.95625
 31
0.0
  0
LINE
  5
177
330
101
100
AcDbEntity
  8
1
  6
Continuous
 62
     7
100
AcDbLine
 10
1002.08125
 20
447.95625
 30
0.0
 11
1020.59375
 21
447.95625
 31
0.0
  0
LINE
  5
178
330
101
100
AcDbEntity
  8
1
  6
Continuous
 62
     3
100
AcDbLine
 10
723.0812499999998
 20
451.71875
 30
0.0
 11
723.0812499999998
 21
371.5749999999998
 31
0.0
  0
LINE
  5
179
330
101
100
AcDbEntity
  8
1
  6
Continuous
 62
     3
100
AcDbLine
 10
993.08125
 20
451.71875
 30
0.0
 11
993.08125
 21
371.5749999999998
 31
0.0
  0
LINE
  5
17A
330
101
100
AcDbEntity
  8
1
  6
Continuous
 62
     7
100
AcDbLine
 10
1020.59375
 20
449.33125
 30
0.0
 11
1019.21875
 21
447.95625
 31
0.0
  0
LINE
  5
17B
330
101
100
AcDbEntity
  8
1
  6
Continuous
 62
     3
100
AcDbLine
 10
1253.1875
 20
447.95625
 30
0.0
 11
1248.0125
 21
466.66875
 31
0.0
  0
LINE
  5
17C
330
101
100
AcDbEntity
  8
1
  6
Continuous
 62
     3
100
AcDbLine
 10
1253.1875
 20
447.95625
 30
0.0
 11
1258.3625
 21
466.66875
 31
0.0
  0
LINE
  5
17D
330
101
100
AcDbEntity
  8
1
  6
Continuous
 62
     3
100
AcDbLine
 10
1258.3625
 20
466.66875
 30
0.0
 11
1248.0125
 21
466.66875
 31
0.0
  0
LINE
  5
17E
330
101
100
AcDbEntity
  8
1
  6
Continuous
 62
     3
100
AcDbLine
 10
1253.1875
 20
520.8124999999999
 30
0.0
 11
1258.3625
 21
502.0999999999999
 31
0.0
  0
LINE
  5
17F
330
101
100
AcDbEntity
  8
1
  6
Continuous
 62
     3
100
AcDbLine
 10
1253.1875
 20
520.8124999999999
 30
0.0
 11
1248.0125
 21
502.0999999999999
 31
0.0
  0
LINE
  5
180
330
101
100
AcDbEntity
  8
1
  6
Continuous
 62
     3
100
AcDbLine
 10
1248.0125
 20
502.0999999999999
 30
0.0
 11
1258.3625
 21
502.0999999999999
 31
0.0
  0
LINE
  5
181
330
101
100
AcDbEntity
  8
1
  6
Continuous
 62
     3
100
AcDbLine
 10
723.0812499999998
 20
379.5749999999998
 30
0.0
 11
746.79375
 21
373.0187499999998
 31
0.0
  0
LINE
  5
182
330
101
100
AcDbEntity
  8
1
  6
Continuous
 62
     3
100
AcDbLine
 10
746.79375
 20
373.0187499999998
 30
0.0
 11
746.79375
 21
386.13125
 31
0.0
  0
LINE
  5
183
330
101
100
AcDbEntity
  8
1
  6
Continuous
 62
     3
100
AcDbLine
 10
695.56875
 20
326.575
 30
0.0
 11
719.28125
 21
333.13125
 31
0.0
  0
LINE
  5
184
330
101
100
AcDbEntity
  8
1
  6
Continuous
 62
     3
100
AcDbLine
 10
695.56875
 20
326.575
 30
0.0
 11
719.28125
 21
320.01875
 31
0.0
  0
LINE
  5
185
330
101
100
AcDbEntity
  8
1
  6
Continuous
 62
     3
100
AcDbLine
 10
719.28125
 20
320.01875
 30
0.0
 11
719.28125
 21
333.13125
 31
0.0
  0
LINE
  5
186
330
101
100
AcDbEntity
  8
1
  6
Continuous
 62
     3
100
AcDbLine
 10
648.91875
 20
273.81875
 30
0.0
 11
672.63125
 21
280.3749999999999
 31
0.0
  0
LINE
  5
187
330
101
100
AcDbEntity
  8
1
  6
Continuous
 62
     3
100
AcDbLine
 10
648.91875
 20
273.81875
 30
0.0
 11
672.63125
 21
267.2625
 31
0.0
  0
LINE
  5
188
330
101
100
AcDbEntity
  8
1
  6
Continuous
 62
     3
100
AcDbLine
 10
672.63125
 20
267.2625
 30
0.0
 11
672.63125
 21
280.3749999999999
 31
0.0
  0
LINE
  5
189
330
101
100
AcDbEntity
  8
1
  6
Continuous
 62
     3
100
AcDbLine
 10
593.31875
 20
222.4312499999999
 30
0.0
 11
617.03125
 21
228.9875
 31
0.0
  0
LINE
  5
18A
330
101
100
AcDbEntity
  8
1
  6
Continuous
 62
     3
100
AcDbLine
 10
593.31875
 20
221.43125
 30
0.0
 11
617.03125
 21
214.875
 31
0.0
  0
LINE
  5
18B
330
101
100
AcDbEntity
  8
1
  6
Continuous
 62
     3
100
AcDbLine
 10
617.03125
 20
215.8749999999999
 30
0.0
 11
617.03125
 21
228.9875
 31
0.0
  0
LINE
  5
18C
330
101
100
AcDbEntity
  8
1
  6
Continuous
 62
     3
100
AcDbLine
 10
993.08125
 20
379.5749999999998
 30
0.0
 11
969.3687499999999
 21
373.0187499999998
 31
0.0
  0
LINE
  5
18D
330
101
100
AcDbEntity
  8
1
  6
Continuous
 62
     3
100
AcDbLine
 10
993.08125
 20
379.5749999999998
 30
0.0
 11
969.3687499999999
 21
386.13125
 31
0.0
  0
LINE
  5
18E
330
101
100
AcDbEntity
  8
1
  6
Continuous
 62
     3
100
AcDbLine
 10
969.3687499999999
 20
386.13125
 30
0.0
 11
969.3687499999999
 21
373.0187499999998
 31
0.0
  0
LINE
  5
18F
330
101
100
AcDbEntity
  8
1
  6
Continuous
 62
     3
100
AcDbLine
 10
1020.59375
 20
326.575
 30
0.0
 11
996.88125
 21
320.01875
 31
0.0
  0
LINE
  5
190
330
101
100
AcDbEntity
  8
1
  6
Continuous
 62
     3
100
AcDbLine
 10
1020.59375
 20
326.575
 30
0.0
 11
996.88125
 21
333.13125
 31
0.0
  0
LINE
  5
191
330
101
100
AcDbEntity
  8
1
  6
Continuous
 62
     3
100
AcDbLine
 10
996.88125
 20
333.13125
 30
0.0
 11
996.88125
 21
320.01875
 31
0.0
  0
LINE
  5
192
330
101
100
AcDbEntity
  8
1
  6
Continuous
 62
     3
100
AcDbLine
 10
1067.24375
 20
273.81875
 30
0.0
 11
1043.53125
 21
267.2625
 31
0.0
  0
LINE
  5
193
330
101
100
AcDbEntity
  8
1
  6
Continuous
 62
     3
100
AcDbLine
 10
1067.24375
 20
273.81875
 30
0.0
 11
1043.53125
 21
280.3749999999999
 31
0.0
  0
LINE
  5
194
330
101
100
AcDbEntity
  8
1
  6
Continuous
 62
     3
100
AcDbLine
 10
1043.53125
 20
280.3749999999999
 30
0.0
 11
1043.53125
 21
267.2625
 31
0.0
  0
LINE
  5
195
330
101
100
AcDbEntity
  8
1
  6
Continuous
 62
     3
100
AcDbLine
 10
1122.8875
 20
222.4312499999999
 30
0.0
 11
1099.175
 21
215.8749999999999
 31
0.0
  0
LINE
  5
196
330
101
100
AcDbEntity
  8
1
  6
Continuous
 62
     3
100
AcDbLine
 10
1122.8875
 20
222.4312499999999
 30
0.0
 11
1099.175
 21
228.9875
 31
0.0
  0
LINE
  5
197
330
101
100
AcDbEntity
  8
1
  6
Continuous
 62
     3
100
AcDbLine
 10
1099.175
 20
228.9875
 30
0.0
 11
1099.175
 21
215.8749999999999
 31
0.0
  0
LINE
  5
198
330
101
100
AcDbEntity
  8
1
  6
Continuous
 62
     3
100
AcDbLine
 10
614.0625
 20
747.7625
 30
0.0
 11
590.35
 21
741.2062499999998
 31
0.0
  0
LINE
  5
199
330
101
100
AcDbEntity
  8
1
  6
Continuous
 62
     3
100
AcDbLine
 10
614.0625
 20
747.7625
 30
0.0
 11
590.35
 21
754.31875
 31
0.0
  0
LINE
  5
19A
330
101
100
AcDbEntity
  8
1
  6
Continuous
 62
     3
100
AcDbLine
 10
590.35
 20
754.31875
 30
0.0
 11
590.35
 21
741.2062499999998
 31
0.0
  0
LINE
  5
19B
330
101
100
AcDbEntity
  8
1
  6
Continuous
 62
     3
100
AcDbLine
 10
683.78125
 20
747.7625
 30
0.0
 11
660.06875
 21
741.2062499999998
 31
0.0
  0
LINE
  5
19C
330
101
100
AcDbEntity
  8
1
  6
Continuous
 62
     3
100
AcDbLine
 10
683.78125
 20
747.7625
 30
0.0
 11
660.06875
 21
754.31875
 31
0.0
  0
LINE
  5
19D
330
101
100
AcDbEntity
  8
1
  6
Continuous
 62
     3
100
AcDbLine
 10
660.06875
 20
754.31875
 30
0.0
 11
660.06875
 21
741.2062499999998
 31
0.0
  0
LINE
  5
19E
330
101
100
AcDbEntity
  8
1
  6
Continuous
 62
     3
100
AcDbLine
 10
458.84375
 20
447.95625
 30
0.0
 11
465.3999999999999
 21
424.2437499999998
 31
0.0
  0
LINE
  5
19F
330
101
100
AcDbEntity
  8
1
  6
Continuous
 62
     3
100
AcDbLine
 10
458.84375
 20
447.95625
 30
0.0
 11
452.2874999999998
 21
424.2437499999998
 31
0.0
  0
LINE
  5
1A0
330
101
100
AcDbEntity
  8
1
  6
Continuous
 62
     3
100
AcDbLine
 10
452.2874999999998
 20
424.2437499999998
 30
0.0
 11
465.3999999999999
 21
424.2437499999998
 31
0.0
  0
LINE
  5
1A1
330
101
100
AcDbEntity
  8
1
  6
Continuous
 62
     3
100
AcDbLine
 10
458.84375
 20
462.4624999999999
 30
0.0
 11
452.2874999999998
 21
486.1749999999998
 31
0.0
  0
LINE
  5
1A2
330
101
100
AcDbEntity
  8
1
  6
Continuous
 62
     3
100
AcDbLine
 10
458.84375
 20
462.4624999999999
 30
0.0
 11
465.3999999999999
 21
486.1749999999998
 31
0.0
  0
LINE
  5
1A3
330
101
100
AcDbEntity
  8
1
  6
Continuous
 62
     3
100
AcDbLine
 10
465.3999999999999
 20
486.1749999999998
 30
0.0
 11
452.2874999999998
 21
486.1749999999998
 31
0.0
  0
LINE
  5
1A4
330
101
100
AcDbEntity
  8
1
  6
Continuous
 62
     3
100
AcDbLine
 10
614.0625
 20
747.7625
 30
0.0
 11
637.7749999999998
 21
754.31875
 31
0.0
  0
LINE
  5
1A5
330
101
100
AcDbEntity
  8
1
  6
Continuous
 62
     3
100
AcDbLine
 10
614.0625
 20
747.7625
 30
0.0
 11
637.7749999999998
 21
741.2062499999998
 31
0.0
  0
LINE
  5
1A6
330
101
100
AcDbEntity
  8
1
  6
Continuous
 62
     3
100
AcDbLine
 10
637.7749999999998
 20
741.2062499999998
 30
0.0
 11
637.7749999999998
 21
754.31875
 31
0.0
  0
LINE
  5
1A7
330
101
100
AcDbEntity
  8
1
  6
Continuous
 62
     3
100
AcDbLine
 10
637.7749999999998
 20
747.7625
 30
0.0
 11
660.06875
 21
747.7625
 31
0.0
  0
LINE
  5
1A8
330
101
100
AcDbEntity
  8
1
  6
Continuous
 62
     3
100
AcDbLine
 10
683.78125
 20
532.0
 30
0.0
 11
683.78125
 21
756.0624999999999
 31
0.0
  0
LINE
  5
1A9
330
101
100
AcDbEntity
  8
1
  6
Continuous
 62
     3
100
AcDbLine
 10
614.0625
 20
532.0
 30
0.0
 11
614.0625
 21
756.0624999999999
 31
0.0
  0
LINE
  5
1AA
330
101
100
AcDbEntity
  8
1
  6
Continuous
 62
     7
100
AcDbLine
 10
603.28125
 20
520.8124999999999
 30
0.0
 11
698.88125
 21
520.8124999999999
 31
0.0
  0
LINE
  5
1AB
330
101
100
AcDbEntity
  8
1
  6
Continuous
 62
     5
100
AcDbLine
 10
858.1125
 20
242.43125
 30
0.0
 11
861.1124999999999
 21
242.43125
 31
0.0
  0
LINE
  5
1AC
330
101
100
AcDbEntity
  8
1
  6
Continuous
 62
     5
100
AcDbLine
 10
858.0875
 20
293.81875
 30
0.0
 11
877.0875
 21
293.81875
 31
0.0
  0
LINE
  5
1AD
330
101
100
AcDbEntity
  8
1
  6
Continuous
 62
     5
100
AcDbLine
 10
858.075
 20
346.5749999999998
 30
0.0
 11
871.075
 21
346.5749999999998
 31
0.0
  0
LINE
  5
1AE
330
101
100
AcDbEntity
  8
1
  6
Continuous
 62
     5
100
AcDbLine
 10
857.0
 20
403.0
 30
0.0
 11
893.0
 21
403.0
 31
0.0
  0
LINE
  5
1AF
330
101
100
AcDbEntity
  8
1
  6
Continuous
 62
     5
100
AcDbLine
 10
650.1875
 20
776.54375
 30
0.0
 11
675.1875
 21
776.54375
 31
0.0
  0
LINE
  5
1B0
330
101
100
AcDbEntity
  8
1
  6
Continuous
 62
     2
100
AcDbLine
 10
517.25625
 20
776.5062499999998
 30
0.0
 11
537.2562499999998
 21
776.5062499999998
 31
0.0
  0
LINE
  5
1B1
330
101
100
AcDbEntity
  8
1
  6
Continuous
 62
     5
100
AcDbLine
 10
374.6999999999998
 20
418.6562499999998
 30
0.0
 11
388.7
 21
418.6562499999998
 31
0.0
  0
TEXT
  5
1B2
330
101
100
AcDbEntity
  8
1
  6
Continuous
 62
     7
100
AcDbText
 10
634.2091769874348
 20
710.0531249999999
 30
0.0
 40
15.81875
  1
dia
  7
ROMANS
 11
634.2091769874348
 21
717.9624999999998
 31
0.0
100
AcDbText
 73
     2
  0
TEXT
  5
1B3
330
101
100
AcDbEntity
  8
1
  6
Continuous
 62
     7
100
AcDbText
 10
497.3904269874349
 20
712.0531249999999
 30
0.0
 40
15.81875
  1
holes
  7
ROMANS
 11
497.3904269874349
 21
719.9625
 31
0.0
100
AcDbText
 73
     2
  0
LINE
  5
1B4
330
101
100
AcDbEntity
  8
1
  6
Continuous
 62
     3
100
AcDbLine
 10
723.0812499999998
 20
379.5749999999998
 30
0.0
 11
746.79375
 21
386.13125
 31
0.0
  0
LINE
  5
1B5
330
101
100
AcDbEntity
  8
1
  6
Continuous
 62
     3
100
AcDbLine
 10
746.79375
 20
379.5749999999998
 30
0.0
 11
969.3687499999999
 21
379.5749999999998
 31
0.0
  0
LINE
  5
1B6
330
101
100
AcDbEntity
  8
1
  6
Continuous
 62
     3
100
AcDbLine
 10
719.28125
 20
326.575
 30
0.0
 11
996.88125
 21
326.575
 31
0.0
  0
LINE
  5
1B7
330
101
100
AcDbEntity
  8
1
  6
Continuous
 62
     3
100
AcDbLine
 10
672.63125
 20
273.81875
 30
0.0
 11
1043.53125
 21
273.81875
 31
0.0
  0
LINE
  5
1B8
330
101
100
AcDbEntity
  8
1
  6
Continuous
 62
     3
100
AcDbLine
 10
617.03125
 20
222.4312499999999
 30
0.0
 11
1099.175
 21
222.4312499999999
 31
0.0
  0
LINE
  5
1B9
330
101
100
AcDbEntity
  8
1
  6
Continuous
 62
     3
100
AcDbLine
 10
1029.0
 20
447.95625
 30
0.0
 11
1119.0
 21
447.95625
 31
0.0
  0
LINE
  5
1BA
330
101
100
AcDbEntity
  8
1
  6
Continuous
 62
     3
100
AcDbLine
 10
1127.0
 20
447.95625
 30
0.0
 11
1262.0
 21
447.95625
 31
0.0
  0
LINE
  5
1BB
330
101
100
AcDbEntity
  8
1
  6
Continuous
 62
     7
100
AcDbLine
 10
1032.38125
 20
481.6
 30
0.0
 11
1001.08125
 21
450.3
 31
0.0
  0
LINE
  5
1BC
330
101
100
AcDbEntity
  8
1
  6
Continuous
 62
     7
100
AcDbLine
 10
694.59375
 20
520.8124999999999
 30
0.0
 11
683.78125
 21
510.0
 31
0.0
  0
TEXT
  5
1BD
330
101
100
AcDbEntity
  8
1
  6
Continuous
 62
     7
100
AcDbText
 10
1085.402926987435
 20
907.2968749999999
 30
0.0
 40
15.81875
  1
23*
  7
ROMANS
 11
1085.402926987435
 21
915.2062499999999
 31
0.0
100
AcDbText
 73
     2
  0
LINE
  5
1BE
330
101
100
AcDbEntity
  8
1
  6
Continuous
 62
     3
100
AcDbLine
 10
969.4124999999999
 20
840.0
 30
0.0
 11
969.4124999999999
 21
901.2937500000001
 31
0.0
  0
LINE
  5
1BF
330
101
100
AcDbEntity
  8
1
  6
Continuous
 62
     3
100
AcDbLine
 10
969.4124999999999
 20
890.625
 30
0.0
 11
945.7
 21
884.0687499999997
 31
0.0
  0
LINE
  5
1C0
330
101
100
AcDbEntity
  8
1
  6
Continuous
 62
     3
100
AcDbLine
 10
969.4124999999999
 20
890.625
 30
0.0
 11
945.7
 21
897.18125
 31
0.0
  0
LINE
  5
1C1
330
101
100
AcDbEntity
  8
1
  6
Continuous
 62
     3
100
AcDbLine
 10
945.7
 20
897.18125
 30
0.0
 11
945.7
 21
884.0687499999997
 31
0.0
  0
LINE
  5
1C2
330
101
100
AcDbEntity
  8
1
  6
Continuous
 62
     3
100
AcDbLine
 10
746.75
 20
890.625
 30
0.0
 11
770.4625
 21
884.0687499999997
 31
0.0
  0
LINE
  5
1C3
330
101
100
AcDbEntity
  8
1
  6
Continuous
 62
     3
100
AcDbLine
 10
746.75
 20
890.625
 30
0.0
 11
770.4625
 21
897.18125
 31
0.0
  0
LINE
  5
1C4
330
101
100
AcDbEntity
  8
1
  6
Continuous
 62
     3
100
AcDbLine
 10
770.4625
 20
897.18125
 30
0.0
 11
770.4625
 21
884.0687499999997
 31
0.0
  0
LINE
  5
1C5
330
101
100
AcDbEntity
  8
1
  6
Continuous
 62
     3
100
AcDbLine
 10
746.75
 20
842.8812500000001
 30
0.0
 11
746.75
 21
903.9687499999999
 31
0.0
  0
LINE
  5
1C6
330
101
100
AcDbEntity
  8
1
  6
Continuous
 62
     5
100
AcDbLine
 10
858.08125
 20
910.6250000000001
 30
0.0
 11
864.0812499999999
 21
910.6250000000001
 31
0.0
  0
LINE
  5
1C7
330
101
100
AcDbEntity
  8
1
  6
Continuous
 62
     5
100
AcDbLine
 10
857.89375
 20
964.1312499999999
 30
0.0
 11
862.8937499999999
 21
964.1312499999999
 31
0.0
  0
LINE
  5
1C8
330
101
100
AcDbEntity
  8
1
  6
Continuous
 62
     3
100
AcDbLine
 10
746.0
 20
944.13125
 30
0.0
 11
971.0
 21
944.13125
 31
0.0
  0
LINE
  5
1C9
330
101
100
AcDbEntity
  8
1
  6
Continuous
 62
     3
100
AcDbLine
 10
770.4625
 20
890.625
 30
0.0
 11
945.7
 21
890.625
 31
0.0
  0
ENDSEC
  0
SECTION
  2
OBJECTS
  0
DICTIONARY
  5
EF
330
0
100
AcDbDictionary
281
     1
  3
ACAD_GROUP
350
F0
  3
ACAD_PLOTSTYLENAME
350
F1
  3
ACAD_MLINESTYLE
350
F9
  3
ACAD_PLOTSETTINGS
350
FB
  3
ACAD_LAYOUT
350
FC
  0
DICTIONARY
  5
F0
102
{ACAD_REACTORS
330
EF
102
}
330
EF
100
AcDbDictionary
281
     1
  0
ACDBDICTIONARYWDFLT
  5
F1
102
{ACAD_REACTORS
330
EF
102
}
330
EF
100
AcDbDictionary
281
     1
  3
Normal
350
F2
100
AcDbDictionaryWithDefault
340
F2
  0
DICTIONARY
  5
F9
102
{ACAD_REACTORS
330
EF
102
}
330
EF
100
AcDbDictionary
281
     1
  3
Standard
350
FA
  0
DICTIONARY
  5
FB
102
{ACAD_REACTORS
330
EF
102
}
330
EF
100
AcDbDictionary
281
     1
  0
DICTIONARY
  5
FC
102
{ACAD_REACTORS
330
EF
102
}
330
EF
100
AcDbDictionary
281
     1
  3
Layout1
350
100
  3
Model
350
104
  0
ACDBPLACEHOLDER
  5
F2
102
{ACAD_REACTORS
330
F1
102
}
330
F1
  0
MLINESTYLE
  5
FA
102
{ACAD_REACTORS
330
F9
102
}
330
F9
100
AcDbMlineStyle
  2
STANDARD
 70
     0
  3

 62
   256
 51
90.0
 52
90.0
 71
     2
 49
0.5
 62
   256
  6
BYLAYER
 49
-0.5
 62
   256
  6
BYLAYER
  0
LAYOUT
  5
100
102
{ACAD_REACTORS
330
FC
102
}
330
FC
100
AcDbPlotSettings
  1

  2
HP DeskJet 840C/841C/842C/843C
  4

  6

 40
0.0
 41
0.0
 42
0.0
 43
0.0
 44
0.0
 45
0.0
 46
0.0
 47
0.0
 48
0.0
 49
0.0
140
0.0
141
0.0
142
1.0
143
1.0
 70
   688
 72
     0
 73
     0
 74
     5
  7

 75
    16
147
1.0
148
0.0
149
0.0
100
AcDbLayout
  1
Layout1
 70
     0
 71
     1
 10
0.0
 20
0.0
 11
12.0
 21
9.0
 12
0.0
 22
0.0
 32
0.0
 14
-1.000000000000000E+20
 24
-1.000000000000000E+20
 34
-1.000000000000000E+20
 15
-1.000000000000000E+20
 25
-1.000000000000000E+20
 35
-1.000000000000000E+20
146
0.0
 13
0.0
 23
0.0
 33
0.0
 16
1.0
 26
0.0
 36
0.0
 17
0.0
 27
1.0
 37
0.0
 76
     0
330
FD
  0
LAYOUT
  5
104
102
{ACAD_REACTORS
330
FC
102
}
330
FC
100
AcDbPlotSettings
  1

  2
HP DeskJet 840C/841C/842C/843C
  4

  6

 40
0.0
 41
0.0
 42
0.0
 43
0.0
 44
0.0
 45
0.0
 46
0.0
 47
0.0
 48
0.0
 49
0.0
140
0.0
141
0.0
142
1.0
143
1.0
 70
  1712
 72
     0
 73
     0
 74
     0
  7

 75
     0
147
1.0
148
0.0
149
0.0
100
AcDbLayout
  1
Model
 70
     1
 71
     0
 10
0.0
 20
0.0
 11
12.0
 21
9.0
 12
0.0
 22
0.0
 32
0.0
 14
0.0
 24
0.0
 34
0.0
 15
0.0
 25
0.0
 35
0.0
146
0.0
 13
0.0
 23
0.0
 33
0.0
 16
1.0
 26
0.0
 36
0.0
 17
0.0
 27
1.0
 37
0.0
 76
     0
330
101
  0
ENDSEC
  0
EOF
