  0
SECTION
  2
HEADER
  9
$ACADVER
  1
AC1015
  9
$ACADMAINTVER
 70
     6
  9
$DWGCODEPAGE
  3
ANSI_1252
  9
$INSBASE
 10
0.0
 20
0.0
 30
0.0
  9
$EXTMIN
 10
432.8775632483078
 20
181.9016819273725
 30
0.0
  9
$EXTMAX
 10
1252.017347059474
 20
957.1436551018727
 30
0.0
  9
$LIMMIN
 10
0.0
 20
0.0
  9
$LIMMAX
 10
12.0
 20
9.0
  9
$ORTHOMODE
 70
     1
  9
$REGENMODE
 70
     1
  9
$FILLMODE
 70
     1
  9
$QTEXTMODE
 70
     0
  9
$MIRRTEXT
 70
     1
  9
$LTSCALE
 40
1.0
  9
$ATTMODE
 70
     1
  9
$TEXTSIZE
 40
0.0
  9
$TRACEWID
 40
0.05
  9
$TEXTSTYLE
  7
STANDARD
  9
$CLAYER
  8
0
  9
$CELTYPE
  6
CONTINUOUS
  9
$CECOLOR
 62
   256
  9
$CELTSCALE
 40
1.0
  9
$DISPSILH
 70
     0
  9
$DIMSCALE
 40
1.0
  9
$DIMASZ
 40
0.18
  9
$DIMEXO
 40
0.0625
  9
$DIMDLI
 40
0.38
  9
$DIMRND
 40
0.0
  9
$DIMDLE
 40
0.0
  9
$DIMEXE
 40
0.18
  9
$DIMTP
 40
0.0
  9
$DIMTM
 40
0.0
  9
$DIMTXT
 40
0.18
  9
$DIMCEN
 40
0.09
  9
$DIMTSZ
 40
0.0
  9
$DIMTOL
 70
     0
  9
$DIMLIM
 70
     0
  9
$DIMTIH
 70
     1
  9
$DIMTOH
 70
     1
  9
$DIMSE1
 70
     0
  9
$DIMSE2
 70
     0
  9
$DIMTAD
 70
     0
  9
$DIMZIN
 70
     0
  9
$DIMBLK
  1

  9
$DIMASO
 70
     1
  9
$DIMSHO
 70
     1
  9
$DIMPOST
  1

  9
$DIMAPOST
  1

  9
$DIMALT
 70
     0
  9
$DIMALTD
 70
     2
  9
$DIMALTF
 40
25.4
  9
$DIMLFAC
 40
1.0
  9
$DIMTOFL
 70
     0
  9
$DIMTVP
 40
0.0
  9
$DIMTIX
 70
     0
  9
$DIMSOXD
 70
     0
  9
$DIMSAH
 70
     0
  9
$DIMBLK1
  1

  9
$DIMBLK2
  1

  9
$DIMSTYLE
  2
STANDARD
  9
$DIMCLRD
 70
     0
  9
$DIMCLRE
 70
     0
  9
$DIMCLRT
 70
     0
  9
$DIMTFAC
 40
1.0
  9
$DIMGAP
 40
0.09
  9
$DIMJUST
 70
     0
  9
$DIMSD1
 70
     0
  9
$DIMSD2
 70
     0
  9
$DIMTOLJ
 70
     1
  9
$DIMTZIN
 70
     0
  9
$DIMALTZ
 70
     0
  9
$DIMALTTZ
 70
     0
  9
$DIMUPT
 70
     0
  9
$DIMDEC
 70
     4
  9
$DIMTDEC
 70
     4
  9
$DIMALTU
 70
     2
  9
$DIMALTTD
 70
     2
  9
$DIMTXSTY
  7
STANDARD
  9
$DIMAUNIT
 70
     0
  9
$DIMADEC
 70
     0
  9
$DIMALTRND
 40
0.0
  9
$DIMAZIN
 70
     0
  9
$DIMDSEP
 70
    46
  9
$DIMATFIT
 70
     3
  9
$DIMFRAC
 70
     0
  9
$DIMLDRBLK
  1

  9
$DIMLUNIT
 70
     2
  9
$DIMLWD
 70
    -2
  9
$DIMLWE
 70
    -2
  9
$DIMTMOVE
 70
     0
  9
$LUNITS
 70
     2
  9
$LUPREC
 70
     4
  9
$SKETCHINC
 40
0.1
  9
$FILLETRAD
 40
0.0
  9
$AUNITS
 70
     0
  9
$AUPREC
 70
     0
  9
$MENU
  1
acad
  9
$ELEVATION
 40
0.0
  9
$PELEVATION
 40
0.0
  9
$THICKNESS
 40
0.0
  9
$LIMCHECK
 70
     0
  9
$CHAMFERA
 40
0.0
  9
$CHAMFERB
 40
0.0
  9
$CHAMFERC
 40
0.0
  9
$CHAMFERD
 40
0.0
  9
$SKPOLY
 70
     0
  9
$TDCREATE
 40
2453375.510428240
  9
$TDUCREATE
 40
2453375.468761574
  9
$TDUPDATE
 40
2457618.393241423
  9
$TDUUPDATE
 40
2457618.351574757
  9
$TDINDWG
 40
0.1205756713
  9
$TDUSRTIMER
 40
0.1205750347
  9
$USRTIMER
 70
     1
  9
$ANGBASE
 50
0.0
  9
$ANGDIR
 70
     0
  9
$PDMODE
 70
     0
  9
$PDSIZE
 40
0.0
  9
$PLINEWID
 40
0.0
  9
$SPLFRAME
 70
     0
  9
$SPLINETYPE
 70
     6
  9
$SPLINESEGS
 70
    10
  9
$HANDSEED
  5
AC8
  9
$SURFTAB1
 70
     6
  9
$SURFTAB2
 70
     6
  9
$SURFTYPE
 70
     6
  9
$SURFU
 70
     6
  9
$SURFV
 70
     6
  9
$UCSBASE
  2

  9
$UCSNAME
  2

  9
$UCSORG
 10
0.0
 20
0.0
 30
0.0
  9
$UCSXDIR
 10
1.0
 20
0.0
 30
0.0
  9
$UCSYDIR
 10
0.0
 20
1.0
 30
0.0
  9
$UCSORTHOREF
  2

  9
$UCSORTHOVIEW
 70
     0
  9
$UCSORGTOP
 10
0.0
 20
0.0
 30
0.0
  9
$UCSORGBOTTOM
 10
0.0
 20
0.0
 30
0.0
  9
$UCSORGLEFT
 10
0.0
 20
0.0
 30
0.0
  9
$UCSORGRIGHT
 10
0.0
 20
0.0
 30
0.0
  9
$UCSORGFRONT
 10
0.0
 20
0.0
 30
0.0
  9
$UCSORGBACK
 10
0.0
 20
0.0
 30
0.0
  9
$PUCSBASE
  2

  9
$PUCSNAME
  2

  9
$PUCSORG
 10
0.0
 20
0.0
 30
0.0
  9
$PUCSXDIR
 10
1.0
 20
0.0
 30
0.0
  9
$PUCSYDIR
 10
0.0
 20
1.0
 30
0.0
  9
$PUCSORTHOREF
  2

  9
$PUCSORTHOVIEW
 70
     0
  9
$PUCSORGTOP
 10
0.0
 20
0.0
 30
0.0
  9
$PUCSORGBOTTOM
 10
0.0
 20
0.0
 30
0.0
  9
$PUCSORGLEFT
 10
0.0
 20
0.0
 30
0.0
  9
$PUCSORGRIGHT
 10
0.0
 20
0.0
 30
0.0
  9
$PUCSORGFRONT
 10
0.0
 20
0.0
 30
0.0
  9
$PUCSORGBACK
 10
0.0
 20
0.0
 30
0.0
  9
$USERI1
 70
     0
  9
$USERI2
 70
     0
  9
$USERI3
 70
     0
  9
$USERI4
 70
     0
  9
$USERI5
 70
     0
  9
$USERR1
 40
0.0
  9
$USERR2
 40
0.0
  9
$USERR3
 40
0.0
  9
$USERR4
 40
0.0
  9
$USERR5
 40
0.0
  9
$WORLDVIEW
 70
     1
  9
$SHADEDGE
 70
     3
  9
$SHADEDIF
 70
    70
  9
$TILEMODE
 70
     1
  9
$MAXACTVP
 70
    16
  9
$PINSBASE
 10
0.0
 20
0.0
 30
0.0
  9
$PLIMCHECK
 70
     0
  9
$PEXTMIN
 10
-1.000000000000000E+20
 20
-1.000000000000000E+20
 30
-1.000000000000000E+20
  9
$PEXTMAX
 10
-1.000000000000000E+20
 20
-1.000000000000000E+20
 30
-1.000000000000000E+20
  9
$PLIMMIN
 10
0.0
 20
0.0
  9
$PLIMMAX
 10
12.0
 20
9.0
  9
$UNITMODE
 70
     0
  9
$VISRETAIN
 70
     0
  9
$PLINEGEN
 70
     1
  9
$PSLTSCALE
 70
     0
  9
$TREEDEPTH
 70
  3020
  9
$CMLSTYLE
  2
Standard
  9
$CMLJUST
 70
     0
  9
$CMLSCALE
 40
1.0
  9
$PROXYGRAPHICS
 70
     1
  9
$MEASUREMENT
 70
     0
  9
$CELWEIGHT
370
    -1
  9
$ENDCAPS
280
     0
  9
$JOINSTYLE
280
     0
  9
$LWDISPLAY
290
     0
  9
$INSUNITS
 70
     0
  9
$HYPERLINKBASE
  1

  9
$STYLESHEET
  1

  9
$XEDIT
290
     1
  9
$CEPSNTYPE
380
     0
  9
$PSTYLEMODE
290
     1
  9
$FINGERPRINTGUID
  2
{90F47713-D64A-4B9C-B5FE-88B63D796F68}
  9
$VERSIONGUID
  2
{513BE0E4-0FA1-47F9-9F19-11565D38E07C}
  9
$EXTNAMES
290
     1
  9
$PSVPSCALE
 40
0.0
  9
$OLESTARTUP
290
     0
  0
ENDSEC
  0
SECTION
  2
CLASSES
  0
CLASS
  1
ACDBDICTIONARYWDFLT
  2
AcDbDictionaryWithDefault
  3
AutoCAD 2000
 90
        0
280
     0
281
     0
  0
CLASS
  1
ACDBPLACEHOLDER
  2
AcDbPlaceHolder
  3
AutoCAD 2000
 90
        0
280
     0
281
     0
  0
CLASS
  1
LAYOUT
  2
AcDbLayout
  3
AutoCAD 2000
 90
        0
280
     0
281
     0
  0
CLASS
  1
DICTIONARYVAR
  2
AcDbDictionaryVar
  3
AutoCAD 2000
 90
        0
280
     0
281
     0
  0
CLASS
  1
MATERIAL
  2
AcDbMaterial
  3
ObjectDBX Classes
 90
     1153
280
     0
281
     0
  0
CLASS
  1
VISUALSTYLE
  2
AcDbVisualStyle
  3
ObjectDBX Classes
 90
     4095
280
     0
281
     0
  0
CLASS
  1
TABLESTYLE
  2
AcDbTableStyle
  3
ObjectDBX Classes
 90
     4095
280
     0
281
     0
  0
CLASS
  1
SCALE
  2
AcDbScale
  3
ObjectDBX Classes
 90
     1153
280
     0
281
     0
  0
CLASS
  1
MLEADERSTYLE
  2
AcDbMLeaderStyle
  3
ACDB_MLEADERSTYLE_CLASS
 90
     4095
280
     0
281
     0
  0
CLASS
  1
SORTENTSTABLE
  2
AcDbSortentsTable
  3
AutoCAD 2000
 90
        0
280
     0
281
     0
  0
CLASS
  1
CELLSTYLEMAP
  2
AcDbCellStyleMap
  3
ObjectDBX Classes
 90
     1152
280
     0
281
     0
  0
ENDSEC
  0
SECTION
  2
TABLES
  0
TABLE
  2
VPORT
  5
106
330
0
100
AcDbSymbolTable
 70
     2
  0
VPORT
  5
AC7
330
106
100
AcDbSymbolTableRecord
100
AcDbViewportTableRecord
  2
*Active
 70
     0
 10
0.0
 20
0.0
 11
1.0
 21
1.0
 12
-40.39431024795128
 22
373.3536581412294
 13
0.0
 23
0.0
 14
0.0
 24
0.0
 15
0.0
 25
0.0
 16
0.0
 26
0.0
 36
1.0
 17
890.261596
 27
575.871875
 37
0.0
 40
49.40324871373906
 41
1.714599341383095
 42
50.0
 43
0.025
 44
0.0
 50
0.0
 51
0.0
 71
     0
 72
   100
 73
     1
 74
     0
 75
     0
 76
     0
 77
     0
 78
     0
281
     0
 65
     0
110
0.0
120
0.0
130
0.0
111
1.0
121
0.0
131
0.0
112
0.0
122
1.0
132
0.0
 79
     0
146
0.0
  0
ENDTAB
  0
TABLE
  2
LTYPE
  5
103
330
0
100
AcDbSymbolTable
 70
     7
  0
LTYPE
  5
111
330
103
100
AcDbSymbolTableRecord
100
AcDbLinetypeTableRecord
  2
ByBlock
 70
     0
  3

 72
    65
 73
     0
 40
0.0
  0
LTYPE
  5
112
330
103
100
AcDbSymbolTableRecord
100
AcDbLinetypeTableRecord
  2
ByLayer
 70
     0
  3

 72
    65
 73
     0
 40
0.0
  0
LTYPE
  5
113
330
103
100
AcDbSymbolTableRecord
100
AcDbLinetypeTableRecord
  2
CONTINUOUS
 70
     0
  3
Solid line
 72
    65
 73
     0
 40
0.0
  0
LTYPE
  5
121
330
103
100
AcDbSymbolTableRecord
100
AcDbLinetypeTableRecord
  2
DOT
 70
     0
  3
. . . . . . . . . . . . . . . . . . . . . . . . . . . . . . . . .
 72
    65
 73
     2
 40
0.25
 49
0.0
 74
     0
 49
-0.25
 74
     0
  0
LTYPE
  5
122
330
103
100
AcDbSymbolTableRecord
100
AcDbLinetypeTableRecord
  2
HIDDEN
 70
     0
  3
__ __ __ __ __ __ __ __ __ __ __ __ __ __ __ __ __ __ __ __ __ 
 72
    65
 73
     2
 40
0.375
 49
0.25
 74
     0
 49
-0.125
 74
     0
  0
LTYPE
  5
123
330
103
100
AcDbSymbolTableRecord
100
AcDbLinetypeTableRecord
  2
DASHED
 70
     0
  3
__ __ __ __ __ __ __ __ __ __ __ __ __ __ __ __ __ __ __ __ __
 72
    65
 73
     2
 40
0.75
 49
0.5
 74
     0
 49
-0.25
 74
     0
  0
LTYPE
  5
124
330
103
100
AcDbSymbolTableRecord
100
AcDbLinetypeTableRecord
  2
DASHDOT
 70
     0
  3
__ . __ . __ . __ . __ . __ . __ . __ . __ . __ . __ . __ . _
 72
    65
 73
     4
 40
1.0
 49
0.5
 74
     0
 49
-0.25
 74
     0
 49
0.0
 74
     0
 49
-0.25
 74
     0
  0
LTYPE
  5
125
330
103
100
AcDbSymbolTableRecord
100
AcDbLinetypeTableRecord
  2
DIVIDE
 70
     0
  3
____ . . ____ . . ____ . . ____ . . ____ . . ____ . . ____ . .
 72
    65
 73
     6
 40
1.25
 49
0.5
 74
     0
 49
-0.25
 74
     0
 49
0.0
 74
     0
 49
-0.25
 74
     0
 49
0.0
 74
     0
 49
-0.25
 74
     0
  0
LTYPE
  5
126
330
103
100
AcDbSymbolTableRecord
100
AcDbLinetypeTableRecord
  2
CENTER
 70
     0
  3
____ _ ____ _ ____ _ ____ _ ____ _ ____ _ ____ _ ____ _ ____ _
 72
    65
 73
     4
 40
2.0
 49
1.25
 74
     0
 49
-0.25
 74
     0
 49
0.25
 74
     0
 49
-0.25
 74
     0
  0
ENDTAB
  0
TABLE
  2
LAYER
  5
100
330
0
100
AcDbSymbolTable
 70
     5
  0
LAYER
  5
10E
102
{ACAD_XDICTIONARY
360
5E6
102
}
330
100
100
AcDbSymbolTableRecord
100
AcDbLayerTableRecord
  2
0
 70
     0
 62
     7
  6
CONTINUOUS
370
    -3
390
10D
  0
LAYER
  5
127
102
{ACAD_XDICTIONARY
360
5E8
102
}
330
100
100
AcDbSymbolTableRecord
100
AcDbLayerTableRecord
  2
CONSTRUCTION_CLASS
 70
     0
 62
     7
  6
CONTINUOUS
370
    -3
390
10D
  0
LAYER
  5
128
102
{ACAD_XDICTIONARY
360
5EA
102
}
330
100
100
AcDbSymbolTableRecord
100
AcDbLayerTableRecord
  2
PATTERN_CLASS
 70
     0
 62
     7
  6
CONTINUOUS
370
    -3
390
10D
  0
LAYER
  5
129
102
{ACAD_XDICTIONARY
360
5EC
102
}
330
100
100
AcDbSymbolTableRecord
100
AcDbLayerTableRecord
  2
1
 70
     0
 62
     7
  6
CONTINUOUS
370
    -3
390
10D
  0
LAYER
  5
55E
102
{ACAD_XDICTIONARY
360
55F
102
}
330
100
100
AcDbSymbolTableRecord
100
AcDbLayerTableRecord
  2
-1
 70
     0
 62
     7
  6
CONTINUOUS
370
    -3
390
10D
  0
ENDTAB
  0
TABLE
  2
STYLE
  5
101
330
0
100
AcDbSymbolTable
 70
     2
  0
STYLE
  5
10F
330
101
100
AcDbSymbolTableRecord
100
AcDbTextStyleTableRecord
  2
STANDARD
 70
     0
 40
0.0
 41
1.0
 50
0.0
 71
     0
 42
0.0
  3
txt
  4

  0
STYLE
  5
12A
330
101
100
AcDbSymbolTableRecord
100
AcDbTextStyleTableRecord
  2
ROMANS
 70
     0
 40
0.2
 41
1.0
 50
0.0
 71
     0
 42
0.2
  3
ROMANS
  4

  0
ENDTAB
  0
TABLE
  2
VIEW
  5
104
330
0
100
AcDbSymbolTable
 70
     0
  0
ENDTAB
  0
TABLE
  2
UCS
  5
105
330
0
100
AcDbSymbolTable
 70
     0
  0
ENDTAB
  0
TABLE
  2
APPID
  5
107
330
0
100
AcDbSymbolTable
 70
     2
  0
APPID
  5
110
330
107
100
AcDbSymbolTableRecord
100
AcDbRegAppTableRecord
  2
ACAD
 70
     0
  0
APPID
  5
AA0
330
107
100
AcDbSymbolTableRecord
100
AcDbRegAppTableRecord
  2
ACAD_MLEADERVER
 70
     0
  0
ENDTAB
  0
TABLE
  2
DIMSTYLE
  5
108
330
0
100
AcDbSymbolTable
 70
     1
100
AcDbDimStyleTable
 71
     0
  0
DIMSTYLE
105
12B
330
108
100
AcDbSymbolTableRecord
100
AcDbDimStyleTableRecord
  2
STANDARD
 70
     0
279
     2
340
10F
  0
ENDTAB
  0
TABLE
  2
BLOCK_RECORD
  5
FF
330
0
100
AcDbSymbolTable
 70
     0
  0
BLOCK_RECORD
  5
11C
102
{ACAD_XDICTIONARY
360
599
102
}
330
FF
100
AcDbSymbolTableRecord
100
AcDbBlockTableRecord
  2
*Model_Space
340
11F
  0
BLOCK_RECORD
  5
118
330
FF
100
AcDbSymbolTableRecord
100
AcDbBlockTableRecord
  2
*Paper_Space
340
11B
  0
ENDTAB
  0
ENDSEC
  0
SECTION
  2
BLOCKS
  0
BLOCK
  5
11D
330
11C
100
AcDbEntity
  8
0
100
AcDbBlockBegin
  2
*Model_Space
 70
     0
 10
0.0
 20
0.0
 30
0.0
  3
*Model_Space
  1

  0
ENDBLK
  5
11E
330
11C
100
AcDbEntity
  8
0
100
AcDbBlockEnd
  0
BLOCK
  5
119
330
118
100
AcDbEntity
 67
     1
  8
0
100
AcDbBlockBegin
  2
*Paper_Space
 70
     0
 10
0.0
 20
0.0
 30
0.0
  3
*Paper_Space
  1

  0
ENDBLK
  5
11A
330
118
100
AcDbEntity
 67
     1
  8
0
100
AcDbBlockEnd
  0
ENDSEC
  0
SECTION
  2
ENTITIES
  0
ARC
  5
3B6
330
11C
100
AcDbEntity
  8
1
  6
Continuous
 62
     4
100
AcDbCircle
 10
484.8368906292823
 20
237.0303050338143
 30
0.0
 40
453.9391874999998
100
AcDbArc
 50
353.0249524494145
 51
354.3992949548287
  0
LINE
  5
3DC
330
11C
100
AcDbEntity
  8
1
  6
Continuous
 62
     4
100
AcDbLine
 10
1140.23708416328
 20
690.9399143794144
 30
0.0
 11
913.2649012316246
 21
690.9399143794144
 31
0.0
  0
LINE
  5
3EE
330
11C
100
AcDbEntity
  8
1
  6
Continuous
 62
     4
100
AcDbLine
 10
1085.473008126482
 20
565.1724143794141
 30
0.0
 11
1044.161167680411
 21
514.0502100554308
 31
0.0
  0
LINE
  5
3F5
330
11C
100
AcDbEntity
  8
1
  6
Continuous
 62
     4
100
AcDbLine
 10
861.6320832224825
 20
801.3641784515577
 30
0.0
 11
799.3598993267596
 21
776.1582598616461
 31
0.0
  0
LINE
  5
439
330
11C
100
AcDbEntity
  8
1
  6
Continuous
 62
     4
100
AcDbLine
 10
1252.017347059474
 20
690.9399143794144
 30
0.0
 11
1239.65295711335
 21
690.9399143794144
 31
0.0
  0
LINE
  5
49F
330
11C
100
AcDbEntity
  8
1
  6
Continuous
 62
     4
100
AcDbLine
 10
991.3598939129654
 20
601.746800165899
 30
0.0
 11
996.9155298380172
 21
606.1654291077712
 31
0.0
  0
LINE
  5
5B5
330
11C
100
AcDbEntity
  8
1
  6
Continuous
 62
     4
100
AcDbLine
 10
445.2419531944356
 20
690.939914379414
 30
0.0
 11
432.8775632483078
 21
690.939914379414
 31
0.0
  0
LINE
  5
5B6
330
11C
100
AcDbEntity
  8
1
  6
Continuous
 62
     4
100
AcDbLine
 10
1224.197508989985
 20
690.9399143794144
 30
0.0
 11
873.7612707896547
 21
690.939914379414
 31
0.0
  0
ARC
  5
5B7
330
11C
100
AcDbEntity
  8
1
  6
Continuous
 62
     4
100
AcDbCircle
 10
484.8368906292823
 20
237.0303050338143
 30
0.0
 40
453.9391874999998
100
AcDbArc
 50
356.2490778908223
 51
40.69101817231969
  0
ARC
  5
5B8
330
11C
100
AcDbEntity
  8
1
  6
Continuous
 62
     4
100
AcDbCircle
 10
484.8368906292823
 20
237.0303050338143
 30
0.0
 40
453.9391874999998
100
AcDbArc
 50
48.7045450122426
 51
89.93666100000012
  0
ARC
  5
5B9
330
11C
100
AcDbEntity
  8
1
  6
Continuous
 62
     4
100
AcDbCircle
 10
484.8368906292823
 20
237.0303050338143
 30
0.0
 40
453.9391874999998
100
AcDbArc
 50
42.90641111883918
 51
46.31266902096675
  0
LINE
  5
628
330
11C
100
AcDbEntity
  8
1
  6
Continuous
 62
     4
100
AcDbLine
 10
484.7962216632866
 20
845.4206800684259
 30
0.0
 11
500.3787039827741
 21
861.0031623879134
 31
0.0
1001
ACAD
1010
0.0
1020
0.0
1030
0.0
  0
LINE
  5
629
330
11C
100
AcDbEntity
  8
1
  6
Continuous
 62
     4
100
AcDbLine
 10
484.7962216632866
 20
834.8140783506277
 30
0.0
 11
510.6450436419934
 21
860.6629003293347
 31
0.0
1001
ACAD
1010
0.0
1020
0.0
1030
0.0
  0
LINE
  5
62A
330
11C
100
AcDbEntity
  8
1
  6
Continuous
 62
     4
100
AcDbLine
 10
490.1714219467378
 20
829.5826769162808
 30
0.0
 11
520.7513219760933
 21
860.1625769456362
 31
0.0
1001
ACAD
1010
0.0
1020
0.0
1030
0.0
  0
LINE
  5
62B
330
11C
100
AcDbEntity
  8
1
  6
Continuous
 62
     4
100
AcDbLine
 10
500.5925399209261
 20
829.3971931726709
 30
0.0
 11
530.704440606284
 21
859.5090938580289
 31
0.0
1001
ACAD
1010
0.0
1020
0.0
1030
0.0
  0
LINE
  5
62C
330
11C
100
AcDbEntity
  8
1
  6
Continuous
 62
     4
100
AcDbLine
 10
510.83792643303
 20
829.0359779669765
 30
0.0
 11
540.5107079606206
 21
858.7087594945673
 31
0.0
1001
ACAD
1010
0.0
1020
0.0
1030
0.0
  0
LINE
  5
62D
330
11C
100
AcDbEntity
  8
1
  6
Continuous
 62
     4
100
AcDbLine
 10
520.9158850422111
 20
828.5073348583594
 30
0.0
 11
550.1759071175065
 21
857.7673569336548
 31
0.0
1001
ACAD
1010
0.0
1020
0.0
1030
0.0
  0
LINE
  5
62E
330
11C
100
AcDbEntity
  8
1
  6
Continuous
 62
     4
100
AcDbLine
 10
530.8339481467038
 20
827.8187962450537
 30
0.0
 11
559.7053538844038
 21
856.6902019827539
 31
0.0
1001
ACAD
1010
0.0
1020
0.0
1030
0.0
  0
LINE
  5
62F
330
11C
100
AcDbEntity
  8
1
  6
Continuous
 62
     4
100
AcDbLine
 10
540.5989722801388
 20
826.9772186606909
 30
0.0
 11
569.1039467779501
 21
855.4821931585022
 31
0.0
1001
ACAD
1010
0.0
1020
0.0
1030
0.0
  0
LINE
  5
630
330
11C
100
AcDbEntity
  8
1
  6
Continuous
 62
     4
100
AcDbLine
 10
550.2172186391573
 20
825.9888633019109
 30
0.0
 11
578.3762102452592
 21
854.1478549080126
 31
0.0
1001
ACAD
1010
0.0
1020
0.0
1030
0.0
  0
LINE
  5
631
330
11C
100
AcDbEntity
  8
1
  6
Continuous
 62
     4
100
AcDbLine
 10
559.6944215496801
 20
824.8594644946352
 30
0.0
 11
587.5263322114516
 21
852.691375156407
 31
0.0
1001
ACAD
1010
0.0
1020
0.0
1030
0.0
  0
LINE
  5
632
330
11C
100
AcDbEntity
  8
1
  6
Continuous
 62
     4
100
AcDbLine
 10
569.0358470107009
 20
823.594288237858
 30
0.0
 11
596.5581968380623
 21
851.1166380652195
 31
0.0
1001
ACAD
1010
0.0
1020
0.0
1030
0.0
  0
LINE
  5
633
330
11C
100
AcDbEntity
  8
1
  6
Continuous
 62
     4
100
AcDbLine
 10
578.2463430195132
 20
822.1981825288722
 30
0.0
 11
605.4754132181328
 21
849.4272527274921
 31
0.0
1001
ACAD
1010
0.0
1020
0.0
1030
0.0
  0
LINE
  5
634
330
11C
100
AcDbEntity
  8
1
  6
Continuous
 62
     4
100
AcDbLine
 10
587.330383046352
 20
820.6756208379129
 30
0.0
 11
614.2813406070025
 21
847.6265783985631
 31
0.0
1001
ACAD
1010
0.0
1020
0.0
1030
0.0
  0
LINE
  5
635
330
11C
100
AcDbEntity
  8
1
  6
Continuous
 62
     4
100
AcDbLine
 10
596.2921037647381
 20
819.0307398385009
 30
0.0
 11
622.9791106859165
 21
845.7177467596793
 31
0.0
1001
ACAD
1010
0.0
1020
0.0
1030
0.0
  0
LINE
  5
636
330
11C
100
AcDbEntity
  8
1
  6
Continuous
 62
     4
100
AcDbLine
 10
605.135337938261
 20
817.2673722942255
 30
0.0
 11
631.5716472732002
 21
843.7036816291648
 31
0.0
1001
ACAD
1010
0.0
1020
0.0
1030
0.0
  0
LINE
  5
637
330
11C
100
AcDbEntity
  8
1
  6
Continuous
 62
     4
100
AcDbLine
 10
613.8636432018716
 20
815.3890758400375
 30
0.0
 11
640.0616838307094
 21
841.5871164688754
 31
0.0
1001
ACAD
1010
0.0
1020
0.0
1030
0.0
  0
LINE
  5
638
330
11C
100
AcDbEntity
  8
1
  6
Continuous
 62
     4
100
AcDbLine
 10
622.4803273460812
 20
813.3991582664489
 30
0.0
 11
648.4517790584662
 21
839.3706099788342
 31
0.0
1001
ACAD
1010
0.0
1020
0.0
1030
0.0
  0
LINE
  5
639
330
11C
100
AcDbEntity
  8
1
  6
Continuous
 62
     4
100
AcDbLine
 10
630.9884706084081
 20
811.3006998109778
 30
0.0
 11
656.7443308253099
 21
837.0565600278796
 31
0.0
1001
ACAD
1010
0.0
1020
0.0
1030
0.0
  0
LINE
  5
63A
330
11C
100
AcDbEntity
  8
1
  6
Continuous
 62
     4
100
AcDbLine
 10
639.3909453923762
 20
809.0965728771475
 30
0.0
 11
664.9415886461237
 21
834.6472161308952
 31
0.0
1001
ACAD
1010
0.0
1020
0.0
1030
0.0
  0
LINE
  5
63B
330
11C
100
AcDbEntity
  8
1
  6
Continuous
 62
     4
100
AcDbLine
 10
647.6904337660918
 20
806.7894595330651
 30
0.0
 11
673.0456648852779
 21
832.1446906522512
 31
0.0
1001
ACAD
1010
0.0
1020
0.0
1030
0.0
  0
LINE
  5
63C
330
11C
100
AcDbEntity
  8
1
  6
Continuous
 62
     4
100
AcDbLine
 10
655.8894430366377
 20
804.3818670858126
 30
0.0
 11
681.0585448401051
 21
829.5509688892803
 31
0.0
1001
ACAD
1010
0.0
1020
0.0
1030
0.0
  0
LINE
  5
63D
330
11C
100
AcDbEntity
  8
1
  6
Continuous
 62
     4
100
AcDbLine
 10
663.9903196506991
 20
801.8761419820757
 30
0.0
 11
688.9820958366063
 21
826.8679181679829
 31
0.0
1001
ACAD
1010
0.0
1020
0.0
1030
0.0
  0
LINE
  5
63E
330
11C
100
AcDbEntity
  8
1
  6
Continuous
 62
     4
100
AcDbLine
 10
671.9952616339942
 20
799.2744822475729
 30
0.0
 11
696.8180754513871
 21
824.0972960649658
 31
0.0
1001
ACAD
1010
0.0
1020
0.0
1030
0.0
  0
LINE
  5
63F
330
11C
100
AcDbEntity
  8
1
  6
Continuous
 62
     4
100
AcDbLine
 10
679.9063297506966
 20
796.5789486464768
 30
0.0
 11
704.5681389584648
 21
821.2407578542453
 31
0.0
1001
ACAD
1010
0.0
1020
0.0
1030
0.0
  0
LINE
  5
640
330
11C
100
AcDbEntity
  8
1
  6
Continuous
 62
     4
100
AcDbLine
 10
687.7254575378586
 20
793.7914747158408
 30
0.0
 11
712.2338460865407
 21
818.2998632645231
 31
0.0
1001
ACAD
1010
0.0
1020
0.0
1030
0.0
  0
LINE
  5
641
330
11C
100
AcDbEntity
  8
1
  6
Continuous
 62
     4
100
AcDbLine
 10
695.4544603479534
 20
790.913875808137
 30
0.0
 11
719.8166671612683
 21
815.2760826214521
 31
0.0
1001
ACAD
1010
0.0
1020
0.0
1030
0.0
  0
LINE
  5
642
330
11C
100
AcDbEntity
  8
1
  6
Continuous
 62
     4
100
AcDbLine
 10
703.0950435142308
 20
787.9478572566167
 30
0.0
 11
727.31798869755
 21
812.170802439936
 31
0.0
1001
ACAD
1010
0.0
1020
0.0
1030
0.0
  0
LINE
  5
643
330
11C
100
AcDbEntity
  8
1
  6
Continuous
 62
     4
100
AcDbLine
 10
710.648809738034
 20
784.8950217626218
 30
0.0
 11
734.7391184988164
 21
808.985330523404
 31
0.0
1001
ACAD
1010
0.0
1020
0.0
1030
0.0
  0
LINE
  5
644
330
11C
100
AcDbEntity
  8
1
  6
Continuous
 62
     4
100
AcDbLine
 10
718.117265784063
 20
781.7568760908526
 30
0.0
 11
742.0812903132339
 21
805.7209006200231
 31
0.0
1001
ACAD
1010
0.0
1020
0.0
1030
0.0
  0
LINE
  5
645
330
11C
100
AcDbEntity
  8
1
  6
Continuous
 62
     4
100
AcDbLine
 10
725.501828558364
 20
778.5348371473554
 30
0.0
 11
749.3456680908058
 21
802.378676679797
 31
0.0
1001
ACAD
1010
0.0
1020
0.0
1030
0.0
  0
LINE
  5
646
330
11C
100
AcDbEntity
  8
1
  6
Continuous
 62
     4
100
AcDbLine
 10
732.8038306342635
 20
775.2302375054564
 30
0.0
 11
756.5333498801095
 21
798.9597567513028
 31
0.0
1001
ACAD
1010
0.0
1020
0.0
1030
0.0
  0
LINE
  5
647
330
11C
100
AcDbEntity
  8
1
  6
Continuous
 62
     4
100
AcDbLine
 10
740.0245252832801
 20
771.8443304366748
 30
0.0
 11
763.6453713989177
 21
795.4651765523123
 31
0.0
1001
ACAD
1010
0.0
1020
0.0
1030
0.0
  0
LINE
  5
648
330
11C
100
AcDbEntity
  8
1
  6
Continuous
 62
     4
100
AcDbLine
 10
747.1650910610186
 20
768.3782944966151
 30
0.0
 11
770.6827093090116
 21
791.8959127446083
 31
0.0
1001
ACAD
1010
0.0
1020
0.0
1030
0.0
  0
LINE
  5
649
330
11C
100
AcDbEntity
  8
1
  6
Continuous
 62
     4
100
AcDbLine
 10
754.2266359919714
 20
764.8332377097696
 30
0.0
 11
777.6462842220976
 21
788.2528859398959
 31
0.0
1001
ACAD
1010
0.0
1020
0.0
1030
0.0
  0
LINE
  5
64A
330
11C
100
AcDbEntity
  8
1
  6
Continuous
 62
     4
100
AcDbLine
 10
761.2102013919312
 20
761.2102013919312
 30
0.0
 11
784.5369634607131
 21
784.5369634607131
 31
0.0
1001
ACAD
1010
0.0
1020
0.0
1030
0.0
  0
LINE
  5
64B
330
11C
100
AcDbEntity
  8
1
  6
Continuous
 62
     4
100
AcDbLine
 10
768.1167653621496
 20
757.5101636443512
 30
0.0
 11
791.3555635954184
 21
780.7489618776204
 31
0.0
1001
ACAD
1010
0.0
1020
0.0
1030
0.0
  0
LINE
  5
64C
330
11C
100
AcDbEntity
  8
1
  6
Continuous
 62
     4
100
AcDbLine
 10
774.9472459854422
 20
753.7340425498462
 30
0.0
 11
798.1028527772332
 21
776.8896493416371
 31
0.0
1001
ACAD
1010
0.0
1020
0.0
1030
0.0
  0
LINE
  5
64D
330
11C
100
AcDbEntity
  8
1
  6
Continuous
 62
     4
100
AcDbLine
 10
781.7025042509709
 20
749.8826990975762
 30
0.0
 11
804.7795528822613
 21
772.9597477288672
 31
0.0
1001
ACAD
1010
0.0
1020
0.0
1030
0.0
  0
LINE
  5
64E
330
11C
100
AcDbEntity
  8
1
  6
Continuous
 62
     4
100
AcDbLine
 10
789.4235712506073
 20
746.9971643794145
 30
0.0
 11
811.3863414836457
 21
768.959934612453
 31
0.0
1001
ACAD
1010
0.0
1020
0.0
1030
0.0
  0
LINE
  5
64F
330
11C
100
AcDbEntity
  8
1
  6
Continuous
 62
     4
100
AcDbLine
 10
800.0301729684055
 20
746.9971643794145
 30
0.0
 11
817.9238536643953
 21
764.890845075404
 31
0.0
1001
ACAD
1010
0.0
1020
0.0
1030
0.0
  0
LINE
  5
650
330
11C
100
AcDbEntity
  8
1
  6
Continuous
 62
     4
100
AcDbLine
 10
810.6367746862037
 20
746.9971643794147
 30
0.0
 11
824.3926836832267
 21
760.7530733764372
 31
0.0
1001
ACAD
1010
0.0
1020
0.0
1030
0.0
  0
LINE
  5
651
330
11C
100
AcDbEntity
  8
1
  6
Continuous
 62
     4
100
AcDbLine
 10
821.2433764040019
 20
746.9971643794147
 30
0.0
 11
830.7933865042805
 21
756.5471744796931
 31
0.0
1001
ACAD
1010
0.0
1020
0.0
1030
0.0
  0
LINE
  5
652
330
11C
100
AcDbEntity
  8
1
  6
Continuous
 62
     4
100
AcDbLine
 10
831.8499781218001
 20
746.9971643794147
 30
0.0
 11
837.1264792004716
 21
752.2736654580859
 31
0.0
1001
ACAD
1010
0.0
1020
0.0
1030
0.0
  0
LINE
  5
653
330
11C
100
AcDbEntity
  8
1
  6
Continuous
 62
     4
100
AcDbLine
 10
842.4565798395983
 20
746.9971643794147
 30
0.0
 11
843.3924422392037
 21
747.9330267790198
 31
0.0
1001
ACAD
1010
0.0
1020
0.0
1030
0.0
  0
LINE
  5
654
330
11C
100
AcDbEntity
  8
1
  6
Continuous
 62
     4
100
AcDbLine
 10
484.7962216632866
 20
548.4358319700759
 30
0.0
 11
488.6693949531649
 21
552.3090052599543
 31
0.0
1001
ACAD
1010
0.0
1020
0.0
1030
0.0
  0
LINE
  5
655
330
11C
100
AcDbEntity
  8
1
  6
Continuous
 62
     4
100
AcDbLine
 10
484.7962216632866
 20
537.8292302522776
 30
0.0
 11
498.9818470402586
 21
552.0148556292498
 31
0.0
1001
ACAD
1010
0.0
1020
0.0
1030
0.0
  0
LINE
  5
656
330
11C
100
AcDbEntity
  8
1
  6
Continuous
 62
     4
100
AcDbLine
 10
487.8436960738588
 20
530.2701029450521
 30
0.0
 11
508.9801828095033
 21
551.4065896806961
 31
0.0
1001
ACAD
1010
0.0
1020
0.0
1030
0.0
  0
LINE
  5
657
330
11C
100
AcDbEntity
  8
1
  6
Continuous
 62
     4
100
AcDbLine
 10
492.1264879346726
 20
523.9462930880677
 30
0.0
 11
518.6898803687917
 21
550.5096855221863
 31
0.0
1001
ACAD
1010
0.0
1020
0.0
1030
0.0
  0
LINE
  5
658
330
11C
100
AcDbEntity
  8
1
  6
Continuous
 62
     4
100
AcDbLine
 10
499.1669632448354
 20
520.380166680432
 30
0.0
 11
528.1324002224521
 21
549.3456036580486
 31
0.0
1001
ACAD
1010
0.0
1020
0.0
1030
0.0
  0
LINE
  5
659
330
11C
100
AcDbEntity
  8
1
  6
Continuous
 62
     4
100
AcDbLine
 10
509.0965919491418
 20
519.7031936669401
 30
0.0
 11
537.3260030542406
 21
547.9326047720388
 31
0.0
1001
ACAD
1010
0.0
1020
0.0
1030
0.0
  0
LINE
  5
65A
330
11C
100
AcDbEntity
  8
1
  6
Continuous
 62
     4
100
AcDbLine
 10
518.7126255001238
 20
518.7126255001242
 30
0.0
 11
546.2863628142088
 21
546.2863628142089
 31
0.0
1001
ACAD
1010
0.0
1020
0.0
1030
0.0
  0
LINE
  5
65B
330
11C
100
AcDbEntity
  8
1
  6
Continuous
 62
     4
100
AcDbLine
 10
528.0401417057544
 20
517.4335399879563
 30
0.0
 11
555.0270344628088
 21
544.4204327450108
 31
0.0
1001
ACAD
1010
0.0
1020
0.0
1030
0.0
  0
LINE
  5
65C
330
11C
100
AcDbEntity
  8
1
  6
Continuous
 62
     4
100
AcDbLine
 10
537.1001806090813
 20
515.8869771734851
 30
0.0
 11
563.5598163679827
 21
542.3466129323867
 31
0.0
1001
ACAD
1010
0.0
1020
0.0
1030
0.0
  0
LINE
  5
65D
330
11C
100
AcDbEntity
  8
1
  6
Continuous
 62
     4
100
AcDbLine
 10
545.9105735086251
 20
514.0907683552303
 30
0.0
 11
571.8950349354193
 21
540.075229782025
 31
0.0
1001
ACAD
1010
0.0
1020
0.0
1030
0.0
  0
LINE
  5
65E
330
11C
100
AcDbEntity
  8
1
  6
Continuous
 62
     4
100
AcDbLine
 10
554.4865618708962
 20
512.0601549997036
 30
0.0
 11
580.0417708839456
 21
537.6153640127528
 31
0.0
1001
ACAD
1010
0.0
1020
0.0
1030
0.0
  0
LINE
  5
65F
330
11C
100
AcDbEntity
  8
1
  6
Continuous
 62
     4
100
AcDbLine
 10
562.8412677051223
 20
509.8082591161313
 30
0.0
 11
588.00804108101
 21
534.9750324920188
 31
0.0
1001
ACAD
1010
0.0
1020
0.0
1030
0.0
  0
LINE
  5
660
330
11C
100
AcDbEntity
  8
1
  6
Continuous
 62
     4
100
AcDbLine
 10
570.9860566750482
 20
507.3464463682589
 30
0.0
 11
595.800946077917
 21
532.1613357711278
 31
0.0
1001
ACAD
1010
0.0
1020
0.0
1030
0.0
  0
LINE
  5
661
330
11C
100
AcDbEntity
  8
1
  6
Continuous
 62
     4
100
AcDbLine
 10
860.2007775493659
 20
796.5611672425767
 30
0.0
 11
867.6857513146917
 21
804.0461410079027
 31
0.0
1001
ACAD
1010
0.0
1020
0.0
1030
0.0
  0
LINE
  5
662
330
11C
100
AcDbEntity
  8
1
  6
Continuous
 62
     4
100
AcDbLine
 10
578.9308222788637
 20
504.6846102542764
 30
0.0
 11
603.4267908436836
 21
529.1805788190962
 31
0.0
1001
ACAD
1010
0.0
1020
0.0
1030
0.0
  0
LINE
  5
663
330
11C
100
AcDbEntity
  8
1
  6
Continuous
 62
     4
100
AcDbLine
 10
855.698222670332
 20
781.4520106457446
 30
0.0
 11
886.7291836971533
 21
812.4829716725658
 31
0.0
1001
ACAD
1010
0.0
1020
0.0
1030
0.0
  0
LINE
  5
664
330
11C
100
AcDbEntity
  8
1
  6
Continuous
 62
     4
100
AcDbLine
 10
586.684210954604
 20
501.8313972122184
 30
0.0
 11
610.8911843181227
 21
526.0383705757373
 31
0.0
1001
ACAD
1010
0.0
1020
0.0
1030
0.0
  0
LINE
  5
665
330
11C
100
AcDbEntity
  8
1
  6
Continuous
 62
     4
100
AcDbLine
 10
851.1956677912976
 20
766.3428540489121
 30
0.0
 11
905.7726160796148
 21
820.9198023372293
 31
0.0
1001
ACAD
1010
0.0
1020
0.0
1030
0.0
  0
LINE
  5
666
330
11C
100
AcDbEntity
  8
1
  6
Continuous
 62
     4
100
AcDbLine
 10
594.2538022906076
 20
498.7943868304238
 30
0.0
 11
618.1991220484192
 21
522.7397065882354
 31
0.0
1001
ACAD
1010
0.0
1020
0.0
1030
0.0
  0
LINE
  5
667
330
11C
100
AcDbEntity
  8
1
  6
Continuous
 62
     4
100
AcDbLine
 10
848.6591817864711
 20
753.1997663262875
 30
0.0
 11
924.8160484620765
 21
829.3566330018926
 31
0.0
1001
ACAD
1010
0.0
1020
0.0
1030
0.0
  0
LINE
  5
668
330
11C
100
AcDbEntity
  8
1
  6
Continuous
 62
     4
100
AcDbLine
 10
601.6462546361467
 20
495.5802374581649
 30
0.0
 11
625.3550551801875
 21
519.2890380022055
 31
0.0
1001
ACAD
1010
0.0
1020
0.0
1030
0.0
  0
LINE
  5
669
330
11C
100
AcDbEntity
  8
1
  6
Continuous
 62
     4
100
AcDbLine
 10
854.9377786177641
 20
748.871761439782
 30
0.0
 11
943.859480844538
 21
837.7934636665559
 31
0.0
1001
ACAD
1010
0.0
1020
0.0
1030
0.0
  0
LINE
  5
66A
330
11C
100
AcDbEntity
  8
1
  6
Continuous
 62
     4
100
AcDbLine
 10
608.8674236992573
 20
492.1948048034771
 30
0.0
 11
632.3629483371877
 21
515.6903294414076
 31
0.0
1001
ACAD
1010
0.0
1020
0.0
1030
0.0
  0
LINE
  5
66B
330
11C
100
AcDbEntity
  8
1
  6
Continuous
 62
     4
100
AcDbLine
 10
863.6697832751949
 20
746.9971643794147
 30
0.0
 11
957.8293313606613
 21
841.156712464881
 31
0.0
1001
ACAD
1010
0.0
1020
0.0
1030
0.0
  0
LINE
  5
66C
330
11C
100
AcDbEntity
  8
1
  6
Continuous
 62
     4
100
AcDbLine
 10
615.9224597982088
 20
488.6432391846303
 30
0.0
 11
639.2263283706532
 21
511.9471077570748
 31
0.0
1001
ACAD
1010
0.0
1020
0.0
1030
0.0
  0
LINE
  5
66D
330
11C
100
AcDbEntity
  8
1
  6
Continuous
 62
     4
100
AcDbLine
 10
874.2763849929934
 20
746.9971643794147
 30
0.0
 11
966.3362186649084
 21
839.0569980513301
 31
0.0
1001
ACAD
1010
0.0
1020
0.0
1030
0.0
  0
LINE
  5
66E
330
11C
100
AcDbEntity
  8
1
  6
Continuous
 62
     4
100
AcDbLine
 10
622.8158880493681
 20
484.9300657179916
 30
0.0
 11
645.9483255390946
 21
508.0625032077178
 31
0.0
1001
ACAD
1010
0.0
1020
0.0
1030
0.0
  0
LINE
  5
66F
330
11C
100
AcDbEntity
  8
1
  6
Continuous
 62
     4
100
AcDbLine
 10
884.8829867107916
 20
746.9971643794147
 30
0.0
 11
974.8431059691558
 21
836.9572836377789
 31
0.0
1001
ACAD
1010
0.0
1020
0.0
1030
0.0
  0
LINE
  5
670
330
11C
100
AcDbEntity
  8
1
  6
Continuous
 62
     4
100
AcDbLine
 10
629.5516747626891
 20
481.0592507135138
 30
0.0
 11
652.5317083569944
 21
504.0392843078197
 31
0.0
1001
ACAD
1010
0.0
1020
0.0
1030
0.0
  0
LINE
  5
671
330
11C
100
AcDbEntity
  8
1
  6
Continuous
 62
     4
100
AcDbLine
 10
895.4895884285898
 20
746.9971643794147
 30
0.0
 11
983.349993273403
 21
834.8575692242281
 31
0.0
1001
ACAD
1010
0.0
1020
0.0
1030
0.0
  0
LINE
  5
672
330
11C
100
AcDbEntity
  8
1
  6
Continuous
 62
     4
100
AcDbLine
 10
636.1332825664304
 20
477.0342567994576
 30
0.0
 11
658.9789131007029
 21
499.8798873337299
 31
0.0
1001
ACAD
1010
0.0
1020
0.0
1030
0.0
  0
LINE
  5
673
330
11C
100
AcDbEntity
  8
1
  6
Continuous
 62
     4
100
AcDbLine
 10
906.096190146388
 20
746.9971643794147
 30
0.0
 11
991.8568805776502
 21
832.7578548106771
 31
0.0
1001
ACAD
1010
0.0
1020
0.0
1030
0.0
  0
LINE
  5
674
330
11C
100
AcDbEntity
  8
1
  6
Continuous
 62
     4
100
AcDbLine
 10
642.5637162198458
 20
472.8580887350743
 30
0.0
 11
665.2920687638713
 21
495.5864412790996
 31
0.0
1001
ACAD
1010
0.0
1020
0.0
1030
0.0
  0
LINE
  5
675
330
11C
100
AcDbEntity
  8
1
  6
Continuous
 62
     4
100
AcDbLine
 10
916.7027918641862
 20
746.9971643794147
 30
0.0
 11
1000.363767881897
 21
830.6581403971261
 31
0.0
1001
ACAD
1010
0.0
1020
0.0
1030
0.0
  0
LINE
  5
676
330
11C
100
AcDbEntity
  8
1
  6
Continuous
 62
     4
100
AcDbLine
 10
648.8455606445592
 20
468.5333314419898
 30
0.0
 11
671.4730180996087
 21
491.1607888970393
 31
0.0
1001
ACAD
1010
0.0
1020
0.0
1030
0.0
  0
LINE
  5
677
330
11C
100
AcDbEntity
  8
1
  6
Continuous
 62
     4
100
AcDbLine
 10
927.3093935819844
 20
746.9971643794147
 30
0.0
 11
1008.870655186145
 21
828.5584259835754
 31
0.0
1001
ACAD
1010
0.0
1020
0.0
1030
0.0
  0
LINE
  5
678
330
11C
100
AcDbEntity
  8
1
  6
Continuous
 62
     4
100
AcDbLine
 10
654.9810123756863
 20
464.0621814553187
 30
0.0
 11
677.5233352623854
 21
486.6045043420179
 31
0.0
1001
ACAD
1010
0.0
1020
0.0
1030
0.0
  0
LINE
  5
679
330
11C
100
AcDbEntity
  8
1
  6
Continuous
 62
     4
100
AcDbLine
 10
937.9159952997826
 20
746.9971643794147
 30
0.0
 11
1017.377542490392
 21
826.4587115700242
 31
0.0
1001
ACAD
1010
0.0
1020
0.0
1030
0.0
  0
LINE
  5
67A
330
11C
100
AcDbEntity
  8
1
  6
Continuous
 62
     4
100
AcDbLine
 10
660.9719053764457
 20
459.4464727382797
 30
0.0
 11
683.4443404621953
 21
481.9189078240293
 31
0.0
1001
ACAD
1010
0.0
1020
0.0
1030
0.0
  0
LINE
  5
67B
330
11C
100
AcDbEntity
  8
1
  6
Continuous
 62
     4
100
AcDbLine
 10
948.5225970175806
 20
746.9971643794147
 30
0.0
 11
1025.884429794639
 21
824.3589971564734
 31
0.0
1001
ACAD
1010
0.0
1020
0.0
1030
0.0
  0
LINE
  5
67C
330
11C
100
AcDbEntity
  8
1
  6
Continuous
 62
     4
100
AcDbLine
 10
666.8197319563162
 20
454.6876976003521
 30
0.0
 11
689.2371119611099
 21
477.1050776051461
 31
0.0
1001
ACAD
1010
0.0
1020
0.0
1030
0.0
  0
LINE
  5
67D
330
11C
100
AcDbEntity
  8
1
  6
Continuous
 62
     4
100
AcDbLine
 10
959.1291987353788
 20
746.9971643794147
 30
0.0
 11
1034.391317098886
 21
822.2592827429222
 31
0.0
1001
ACAD
1010
0.0
1020
0.0
1030
0.0
  0
LINE
  5
67E
330
11C
100
AcDbEntity
  8
1
  6
Continuous
 62
     4
100
AcDbLine
 10
672.5256593689032
 20
449.7870232951408
 30
0.0
 11
694.9024956738116
 21
472.1638596000492
 31
0.0
1001
ACAD
1010
0.0
1020
0.0
1030
0.0
  0
LINE
  5
67F
330
11C
100
AcDbEntity
  8
1
  6
Continuous
 62
     4
100
AcDbLine
 10
969.7358004531771
 20
746.9971643794147
 30
0.0
 11
1042.898204403134
 21
820.1595683293714
 31
0.0
1001
ACAD
1010
0.0
1020
0.0
1030
0.0
  0
LINE
  5
680
330
11C
100
AcDbEntity
  8
1
  6
Continuous
 62
     4
100
AcDbLine
 10
678.0905425313322
 20
444.7453047397713
 30
0.0
 11
700.4411125757167
 21
467.0958747841563
 31
0.0
1001
ACAD
1010
0.0
1020
0.0
1030
0.0
  0
LINE
  5
681
330
11C
100
AcDbEntity
  8
1
  6
Continuous
 62
     4
100
AcDbLine
 10
980.3424021709757
 20
746.9971643794147
 30
0.0
 11
1051.40509170738
 21
818.0598539158204
 31
0.0
1001
ACAD
1010
0.0
1020
0.0
1030
0.0
  0
LINE
  5
682
330
11C
100
AcDbEntity
  8
1
  6
Continuous
 62
     4
100
AcDbLine
 10
683.5149331943689
 20
439.5630936850102
 30
0.0
 11
705.8533640722687
 21
461.9015245629098
 31
0.0
1001
ACAD
1010
0.0
1020
0.0
1030
0.0
  0
LINE
  5
683
330
11C
100
AcDbEntity
  8
1
  6
Continuous
 62
     4
100
AcDbLine
 10
990.9490038887737
 20
746.9971643794147
 30
0.0
 11
1059.911979011626
 21
815.9601395022692
 31
0.0
1001
ACAD
1010
0.0
1020
0.0
1030
0.0
  0
LINE
  5
684
330
11C
100
AcDbEntity
  8
1
  6
Continuous
 62
     4
100
AcDbLine
 10
688.7990857954727
 20
434.2406445683156
 30
0.0
 11
711.139435438748
 21
456.580994211591
 31
0.0
1001
ACAD
1010
0.0
1020
0.0
1030
0.0
  0
LINE
  5
685
330
11C
100
AcDbEntity
  8
1
  6
Continuous
 62
     4
100
AcDbLine
 10
1001.555605606571
 20
746.9971643794147
 30
0.0
 11
1068.418866315875
 21
813.8604250887182
 31
0.0
1001
ACAD
1010
0.0
1020
0.0
1030
0.0
  0
LINE
  5
686
330
11C
100
AcDbEntity
  8
1
  6
Continuous
 62
     4
100
AcDbLine
 10
693.9429601407104
 20
428.7779171957553
 30
0.0
 11
716.2992973997922
 21
451.134254454837
 31
0.0
1001
ACAD
1010
0.0
1020
0.0
1030
0.0
  0
LINE
  5
687
330
11C
100
AcDbEntity
  8
1
  6
Continuous
 62
     4
100
AcDbLine
 10
1012.162207324369
 20
746.9971643794147
 30
0.0
 11
1076.925753620123
 21
811.7607106751675
 31
0.0
1001
ACAD
1010
0.0
1020
0.0
1030
0.0
  0
LINE
  5
688
330
11C
100
AcDbEntity
  8
1
  6
Continuous
 62
     4
100
AcDbLine
 10
698.9462209818132
 20
423.1745763190598
 30
0.0
 11
721.3327058801586
 21
445.5610612174053
 31
0.0
1001
ACAD
1010
0.0
1020
0.0
1030
0.0
  0
LINE
  5
689
330
11C
100
AcDbEntity
  8
1
  6
Continuous
 62
     4
100
AcDbLine
 10
1022.768809042168
 20
746.9971643794147
 30
0.0
 11
1085.432640924369
 21
809.6609962616165
 31
0.0
1001
ACAD
1010
0.0
1020
0.0
1030
0.0
  0
LINE
  5
68A
330
11C
100
AcDbEntity
  8
1
  6
Continuous
 62
     4
100
AcDbLine
 10
703.808234477939
 20
417.4299880973872
 30
0.0
 11
726.2391999217665
 21
439.8609535412147
 31
0.0
1001
ACAD
1010
0.0
1020
0.0
1030
0.0
  0
LINE
  5
68B
330
11C
100
AcDbEntity
  8
1
  6
Continuous
 62
     4
100
AcDbLine
 10
1033.375410759965
 20
746.9971643794145
 30
0.0
 11
1093.939528228615
 21
807.5612818480658
 31
0.0
1001
ACAD
1010
0.0
1020
0.0
1030
0.0
  0
LINE
  5
68C
330
11C
100
AcDbEntity
  8
1
  6
Continuous
 62
     4
100
AcDbLine
 10
708.5280614545597
 20
411.54321335621
 30
0.0
 11
731.0180977253658
 21
434.0332496270161
 31
0.0
1001
ACAD
1010
0.0
1020
0.0
1030
0.0
  0
LINE
  5
68D
330
11C
100
AcDbEntity
  8
1
  6
Continuous
 62
     4
100
AcDbLine
 10
1043.982012477763
 20
746.9971643794145
 30
0.0
 11
1102.446415532864
 21
805.4615674345143
 31
0.0
1001
ACAD
1010
0.0
1020
0.0
1030
0.0
  0
LINE
  5
68E
330
11C
100
AcDbEntity
  8
1
  6
Continuous
 62
     4
100
AcDbLine
 10
713.104447290789
 20
405.512997474641
 30
0.0
 11
735.6684907369857
 21
428.0770409208376
 31
0.0
1001
ACAD
1010
0.0
1020
0.0
1030
0.0
  0
LINE
  5
68F
330
11C
100
AcDbEntity
  8
1
  6
Continuous
 62
     4
100
AcDbLine
 10
1054.588614195562
 20
746.9971643794145
 30
0.0
 11
1110.953302837111
 21
803.3618530209636
 31
0.0
1001
ACAD
1010
0.0
1020
0.0
1030
0.0
  0
LINE
  5
690
330
11C
100
AcDbEntity
  8
1
  6
Continuous
 62
     4
100
AcDbLine
 10
717.5358081777078
 20
399.3377566437616
 30
0.0
 11
740.1892356582016
 21
421.9911841242551
 31
0.0
1001
ACAD
1010
0.0
1020
0.0
1030
0.0
  0
LINE
  5
691
330
11C
100
AcDbEntity
  8
1
  6
Continuous
 62
     4
100
AcDbLine
 10
1065.195215913361
 20
746.9971643794145
 30
0.0
 11
1119.460190141359
 21
801.2621386074126
 31
0.0
1001
ACAD
1010
0.0
1020
0.0
1030
0.0
  0
LINE
  5
692
330
11C
100
AcDbEntity
  8
1
  6
Continuous
 62
     4
100
AcDbLine
 10
721.8202133895117
 20
393.0155601377673
 30
0.0
 11
744.5789442136392
 21
415.7742909618948
 31
0.0
1001
ACAD
1010
0.0
1020
0.0
1030
0.0
  0
LINE
  5
693
330
11C
100
AcDbEntity
  8
1
  6
Continuous
 62
     4
100
AcDbLine
 10
1075.801817631159
 20
746.9971643794147
 30
0.0
 11
1127.967077445606
 21
799.1624241938617
 31
0.0
1001
ACAD
1010
0.0
1020
0.0
1030
0.0
  0
LINE
  5
694
330
11C
100
AcDbEntity
  8
1
  6
Continuous
 62
     4
100
AcDbLine
 10
725.9553630914117
 20
386.5441081218692
 30
0.0
 11
748.8359704571561
 21
409.4247154876133
 31
0.0
1001
ACAD
1010
0.0
1020
0.0
1030
0.0
  0
LINE
  5
695
330
11C
100
AcDbEntity
  8
1
  6
Continuous
 62
     4
100
AcDbLine
 10
1086.408419348957
 20
746.9971643794147
 30
0.0
 11
1136.473964749853
 21
797.0627097803105
 31
0.0
1001
ACAD
1010
0.0
1020
0.0
1030
0.0
  0
LINE
  5
696
330
11C
100
AcDbEntity
  8
1
  6
Continuous
 62
     4
100
AcDbLine
 10
729.9385610666775
 20
379.9207043793367
 30
0.0
 11
752.9583953375552
 21
402.9405386502142
 31
0.0
1001
ACAD
1010
0.0
1020
0.0
1030
0.0
  0
LINE
  5
697
330
11C
100
AcDbEntity
  8
1
  6
Continuous
 62
     4
100
AcDbLine
 10
1097.015021066755
 20
746.9971643794147
 30
0.0
 11
1144.9808520541
 21
794.9629953667597
 31
0.0
1001
ACAD
1010
0.0
1020
0.0
1030
0.0
  0
LINE
  5
698
330
11C
100
AcDbEntity
  8
1
  6
Continuous
 62
     4
100
AcDbLine
 10
733.766681571587
 20
373.1422231664482
 30
0.0
 11
756.9440081727487
 21
396.3195497676098
 31
0.0
1001
ACAD
1010
0.0
1020
0.0
1030
0.0
  0
LINE
  5
699
330
11C
100
AcDbEntity
  8
1
  6
Continuous
 62
     4
100
AcDbLine
 10
1107.621622784553
 20
746.9971643794147
 30
0.0
 11
1153.487739358346
 21
792.8632809532087
 31
0.0
1001
ACAD
1010
0.0
1020
0.0
1030
0.0
  0
LINE
  5
69A
330
11C
100
AcDbEntity
  8
1
  6
Continuous
 62
     4
100
AcDbLine
 10
737.4361293102603
 20
366.2050691873231
 30
0.0
 11
760.7902845943916
 21
389.5592244714543
 31
0.0
1001
ACAD
1010
0.0
1020
0.0
1030
0.0
  0
LINE
  5
69B
330
11C
100
AcDbEntity
  8
1
  6
Continuous
 62
     4
100
AcDbLine
 10
1118.228224502352
 20
746.9971643794145
 30
0.0
 11
1161.994626662595
 21
790.7635665396577
 31
0.0
1001
ACAD
1010
0.0
1020
0.0
1030
0.0
  0
LINE
  5
69C
330
11C
100
AcDbEntity
  8
1
  6
Continuous
 62
     4
100
AcDbLine
 10
740.9427912464018
 20
359.1051294056662
 30
0.0
 11
764.494360418679
 21
382.6566985779436
 31
0.0
1001
ACAD
1010
0.0
1020
0.0
1030
0.0
  0
LINE
  5
69D
330
11C
100
AcDbEntity
  8
1
  6
Continuous
 62
     4
100
AcDbLine
 10
1128.83482622015
 20
746.9971643794145
 30
0.0
 11
1168.484792173315
 21
786.6471303325791
 31
0.0
1001
ACAD
1010
0.0
1020
0.0
1030
0.0
  0
LINE
  5
69E
330
11C
100
AcDbEntity
  8
1
  6
Continuous
 62
     4
100
AcDbLine
 10
744.2819786153984
 20
351.8377150568646
 30
0.0
 11
768.0530007671808
 21
375.6087372086471
 31
0.0
1001
ACAD
1010
0.0
1020
0.0
1030
0.0
  0
LINE
  5
69F
330
11C
100
AcDbEntity
  8
1
  6
Continuous
 62
     4
100
AcDbLine
 10
1139.441427937948
 20
746.9971643794145
 30
0.0
 11
1173.788093032213
 21
781.3438294736804
 31
0.0
1001
ACAD
1010
0.0
1020
0.0
1030
0.0
  0
LINE
  5
6A0
330
11C
100
AcDbEntity
  8
1
  6
Continuous
 62
     4
100
AcDbLine
 10
969.8824804427912
 20
577.4382168842577
 30
0.0
 11
992.5427102003133
 21
600.0984466417796
 31
0.0
1001
ACAD
1010
0.0
1020
0.0
1030
0.0
  0
LINE
  5
6A1
330
11C
100
AcDbEntity
  8
1
  6
Continuous
 62
     4
100
AcDbLine
 10
747.4483570395317
 20
344.3974917631998
 30
0.0
 11
771.4625635963837
 21
368.411698320052
 31
0.0
1001
ACAD
1010
0.0
1020
0.0
1030
0.0
  0
LINE
  5
6A2
330
11C
100
AcDbEntity
  8
1
  6
Continuous
 62
     4
100
AcDbLine
 10
1150.048029655746
 20
746.9971643794145
 30
0.0
 11
1179.091393891112
 21
776.0405286147815
 31
0.0
1001
ACAD
1010
0.0
1020
0.0
1030
0.0
  0
LINE
  5
6A3
330
11C
100
AcDbEntity
  8
1
  6
Continuous
 62
     4
100
AcDbLine
 10
974.2213268623652
 20
571.1704615860333
 30
0.0
 11
996.931861317708
 21
593.880996041376
 31
0.0
1001
ACAD
1010
0.0
1020
0.0
1030
0.0
  0
LINE
  5
6A4
330
11C
100
AcDbEntity
  8
1
  6
Continuous
 62
     4
100
AcDbLine
 10
750.4358620411498
 20
336.7783950470196
 30
0.0
 11
774.7189565853568
 21
361.0614895912266
 31
0.0
1001
ACAD
1010
0.0
1020
0.0
1030
0.0
  0
LINE
  5
6A5
330
11C
100
AcDbEntity
  8
1
  6
Continuous
 62
     4
100
AcDbLine
 10
1160.654631373545
 20
746.9971643794147
 30
0.0
 11
1184.394694750013
 21
770.7372277558826
 31
0.0
1001
ACAD
1010
0.0
1020
0.0
1030
0.0
  0
LINE
  5
6A6
330
11C
100
AcDbEntity
  8
1
  6
Continuous
 62
     4
100
AcDbLine
 10
978.4894385528366
 20
564.8319715587065
 30
0.0
 11
1001.254209710779
 21
587.5967427166492
 31
0.0
1001
ACAD
1010
0.0
1020
0.0
1030
0.0
  0
LINE
  5
6A7
330
11C
100
AcDbEntity
  8
1
  6
Continuous
 62
     4
100
AcDbLine
 10
753.2375964361526
 20
328.9735277242243
 30
0.0
 11
777.8175860631461
 21
353.5535173512176
 31
0.0
1001
ACAD
1010
0.0
1020
0.0
1030
0.0
  0
LINE
  5
6A8
330
11C
100
AcDbEntity
  8
1
  6
Continuous
 62
     4
100
AcDbLine
 10
1171.261233091343
 20
746.9971643794147
 30
0.0
 11
1189.697995608912
 21
765.4339268969835
 31
0.0
1001
ACAD
1010
0.0
1020
0.0
1030
0.0
  0
LINE
  5
6A9
330
11C
100
AcDbEntity
  8
1
  6
Continuous
 62
     4
100
AcDbLine
 10
982.6862792342744
 20
558.4222105223458
 30
0.0
 11
1005.509300775142
 21
581.245232063214
 31
0.0
1001
ACAD
1010
0.0
1020
0.0
1030
0.0
  0
LINE
  5
6AA
330
11C
100
AcDbEntity
  8
1
  6
Continuous
 62
     4
100
AcDbLine
 10
755.8457049897915
 20
320.9750345600651
 30
0.0
 11
780.7532963112617
 21
345.8826258815351
 31
0.0
1001
ACAD
1010
0.0
1020
0.0
1030
0.0
  0
LINE
  5
6AB
330
11C
100
AcDbEntity
  8
1
  6
Continuous
 62
     4
100
AcDbLine
 10
1181.867834809141
 20
746.9971643794147
 30
0.0
 11
1193.513133126481
 21
758.6424626967542
 31
0.0
1001
ACAD
1010
0.0
1020
0.0
1030
0.0
  0
LINE
  5
6AC
330
11C
100
AcDbEntity
  8
1
  6
Continuous
 62
     4
100
AcDbLine
 10
986.8112696928928
 20
551.9405992631659
 30
0.0
 11
1009.696644166109
 21
574.8259737363826
 31
0.0
1001
ACAD
1010
0.0
1020
0.0
1030
0.0
  0
LINE
  5
6AD
330
11C
100
AcDbEntity
  8
1
  6
Continuous
 62
     4
100
AcDbLine
 10
758.2512202057006
 20
312.7739480581761
 30
0.0
 11
783.5202971242172
 21
338.0430249766927
 31
0.0
1001
ACAD
1010
0.0
1020
0.0
1030
0.0
  0
LINE
  5
6AE
330
11C
100
AcDbEntity
  8
1
  6
Continuous
 62
     4
100
AcDbLine
 10
1192.474436526936
 20
746.9971643794147
 30
0.0
 11
1193.513133126481
 21
748.035860978956
 31
0.0
1001
ACAD
1010
0.0
1020
0.0
1030
0.0
  0
LINE
  5
6AF
330
11C
100
AcDbEntity
  8
1
  6
Continuous
 62
     4
100
AcDbLine
 10
990.8637861795034
 20
545.3865140319785
 30
0.0
 11
1013.815712593511
 21
568.3384404459867
 31
0.0
1001
ACAD
1010
0.0
1020
0.0
1030
0.0
  0
LINE
  5
6B0
330
11C
100
AcDbEntity
  8
1
  6
Continuous
 62
     4
100
AcDbLine
 10
760.4438710129211
 20
304.359997147598
 30
0.0
 11
786.1120769134964
 21
330.0282030481731
 31
0.0
1001
ACAD
1010
0.0
1020
0.0
1030
0.0
  0
LINE
  5
6B1
330
11C
100
AcDbEntity
  8
1
  6
Continuous
 62
     4
100
AcDbLine
 10
994.8431586536939
 20
538.7592847883706
 30
0.0
 11
1017.865940504669
 21
561.7820666393463
 31
0.0
1001
ACAD
1010
0.0
1020
0.0
1030
0.0
  0
LINE
  5
6B2
330
11C
100
AcDbEntity
  8
1
  6
Continuous
 62
     4
100
AcDbLine
 10
762.411843132433
 20
295.7213675493118
 30
0.0
 11
788.5212978418698
 21
321.8308222587485
 31
0.0
1001
ACAD
1010
0.0
1020
0.0
1030
0.0
  0
LINE
  5
6B3
330
11C
100
AcDbEntity
  8
1
  6
Continuous
 62
     4
100
AcDbLine
 10
998.748668861541
 20
532.0581932784198
 30
0.0
 11
1021.846722647433
 21
555.1562470643118
 31
0.0
1001
ACAD
1010
0.0
1020
0.0
1030
0.0
  0
LINE
  5
6B4
330
11C
100
AcDbEntity
  8
1
  6
Continuous
 62
     4
100
AcDbLine
 10
764.1414756042824
 20
286.844398303363
 30
0.0
 11
790.7396683949201
 21
313.4425910940008
 31
0.0
1001
ACAD
1010
0.0
1020
0.0
1030
0.0
  0
LINE
  5
6B5
330
11C
100
AcDbEntity
  8
1
  6
Continuous
 62
     4
100
AcDbLine
 10
1002.579548233192
 20
525.282470932274
 30
0.0
 11
1025.757412504294
 21
548.4603352033778
 31
0.0
1001
ACAD
1010
0.0
1020
0.0
1030
0.0
  0
LINE
  5
6B6
330
11C
100
AcDbEntity
  8
1
  6
Continuous
 62
     4
100
AcDbLine
 10
765.6168716360972
 20
277.7131926173796
 30
0.0
 11
792.7577873162703
 21
304.8541082975526
 31
0.0
1001
ACAD
1010
0.0
1020
0.0
1030
0.0
  0
LINE
  5
6B7
330
11C
100
AcDbEntity
  8
1
  6
Continuous
 62
     4
100
AcDbLine
 10
1006.334975584985
 20
518.4312965662677
 30
0.0
 11
1029.597320587543
 21
541.6936415688251
 31
0.0
1001
ACAD
1010
0.0
1020
0.0
1030
0.0
  0
LINE
  5
6B8
330
11C
100
AcDbEntity
  8
1
  6
Continuous
 62
     4
100
AcDbLine
 10
766.8193924435345
 20
268.3091117070186
 30
0.0
 11
794.5649507747873
 21
296.0546700382712
 31
0.0
1001
ACAD
1010
0.0
1020
0.0
1030
0.0
  0
LINE
  5
6B9
330
11C
100
AcDbEntity
  8
1
  6
Continuous
 62
     4
100
AcDbLine
 10
1010.01407460886
 20
511.5037938723441
 30
0.0
 11
1033.365712584203
 21
534.8554318476881
 31
0.0
1001
ACAD
1010
0.0
1020
0.0
1030
0.0
  0
LINE
  5
6BA
330
11C
100
AcDbEntity
  8
1
  6
Continuous
 62
     4
100
AcDbLine
 10
767.7269881572867
 20
258.6101057029726
 30
0.0
 11
796.1489117254378
 21
287.0320292711237
 31
0.0
1001
ACAD
1010
0.0
1020
0.0
1030
0.0
  0
LINE
  5
6BB
330
11C
100
AcDbEntity
  8
1
  6
Continuous
 62
     4
100
AcDbLine
 10
1013.615911129751
 20
504.4990286754369
 30
0.0
 11
1037.061807338359
 21
527.9449248840468
 31
0.0
1001
ACAD
1010
0.0
1020
0.0
1030
0.0
  0
LINE
  5
6BC
330
11C
100
AcDbEntity
  8
1
  6
Continuous
 62
     4
100
AcDbLine
 10
770.2146018352769
 20
250.4911176631646
 30
0.0
 11
797.4955762500812
 21
277.7720920779691
 31
0.0
1001
ACAD
1010
0.0
1020
0.0
1030
0.0
  0
LINE
  5
6BD
330
11C
100
AcDbEntity
  8
1
  6
Continuous
 62
     4
100
AcDbLine
 10
1017.139490109165
 20
497.4160059370545
 30
0.0
 11
1040.684774656787
 21
520.9612904846765
 31
0.0
1001
ACAD
1010
0.0
1020
0.0
1030
0.0
  0
LINE
  5
6BE
330
11C
100
AcDbEntity
  8
1
  6
Continuous
 62
     4
100
AcDbLine
 10
774.7708290079653
 20
244.4407431180549
 30
0.0
 11
798.5886155523798
 21
268.2585296624694
 31
0.0
1001
ACAD
1010
0.0
1020
0.0
1030
0.0
  0
LINE
  5
6BF
330
11C
100
AcDbEntity
  8
1
  6
Continuous
 62
     4
100
AcDbLine
 10
1020.583752370465
 20
490.2536664805555
 30
0.0
 11
1044.233732922356
 21
513.9036470324461
 31
0.0
1001
ACAD
1010
0.0
1020
0.0
1030
0.0
  0
LINE
  5
6C0
330
11C
100
AcDbEntity
  8
1
  6
Continuous
 62
     4
100
AcDbLine
 10
779.3270561806536
 20
238.3903685729449
 30
0.0
 11
799.4089631446593
 21
258.4722755369506
 31
0.0
1001
ACAD
1010
0.0
1020
0.0
1030
0.0
  0
LINE
  5
6C1
330
11C
100
AcDbEntity
  8
1
  6
Continuous
 62
     4
100
AcDbLine
 10
1023.947571018192
 20
483.0108834104833
 30
0.0
 11
1047.707746497706
 21
506.7710588899974
 31
0.0
1001
ACAD
1010
0.0
1020
0.0
1030
0.0
  0
LINE
  5
6C2
330
11C
100
AcDbEntity
  8
1
  6
Continuous
 62
     4
100
AcDbLine
 10
788.5440162049207
 20
237.0007268794139
 30
0.0
 11
799.9341527848538
 21
248.3908634593471
 31
0.0
1001
ACAD
1010
0.0
1020
0.0
1030
0.0
  0
LINE
  5
6C3
330
11C
100
AcDbEntity
  8
1
  6
Continuous
 62
     4
100
AcDbLine
 10
1027.229747520246
 20
475.68645819474
 30
0.0
 11
1051.105822899638
 21
499.5625335741309
 31
0.0
1001
ACAD
1010
0.0
1020
0.0
1030
0.0
  0
LINE
  5
6C4
330
11C
100
AcDbEntity
  8
1
  6
Continuous
 62
     4
100
AcDbLine
 10
799.1506179227191
 20
237.0007268794139
 30
0.0
 11
800.1374307611328
 21
237.9875397178278
 31
0.0
1001
ACAD
1010
0.0
1020
0.0
1030
0.0
  0
LINE
  5
6C5
330
11C
100
AcDbEntity
  8
1
  6
Continuous
 62
     4
100
AcDbLine
 10
1030.429007417581
 20
468.2791163742765
 30
0.0
 11
1054.426909722242
 21
492.2770186789373
 31
0.0
1001
ACAD
1010
0.0
1020
0.0
1030
0.0
  0
LINE
  5
6C6
330
11C
100
AcDbEntity
  8
1
  6
Continuous
 62
     4
100
AcDbLine
 10
1033.54399562135
 20
460.7875028602468
 30
0.0
 11
1057.669891284091
 21
484.9133985229875
 31
0.0
1001
ACAD
1010
0.0
1020
0.0
1030
0.0
  0
LINE
  5
6C7
330
11C
100
AcDbEntity
  8
1
  6
Continuous
 62
     4
100
AcDbLine
 10
1036.573271252029
 20
453.2101767731271
 30
0.0
 11
1060.833584971706
 21
477.470490492805
 31
0.0
1001
ACAD
1010
0.0
1020
0.0
1030
0.0
  0
LINE
  5
6C8
330
11C
100
AcDbEntity
  8
1
  6
Continuous
 62
     4
100
AcDbLine
 10
1039.515301968672
 20
445.5456057719722
 30
0.0
 11
1063.916737247974
 21
469.9470410512738
 31
0.0
1001
ACAD
1010
0.0
1020
0.0
1030
0.0
  0
LINE
  5
6C9
330
11C
100
AcDbEntity
  8
1
  6
Continuous
 62
     4
100
AcDbLine
 10
1042.368457729174
 20
437.7921598146768
 30
0.0
 11
1066.918019290075
 21
462.3417213755771
 31
0.0
1001
ACAD
1010
0.0
1020
0.0
1030
0.0
  0
LINE
  5
6CA
330
11C
100
AcDbEntity
  8
1
  6
Continuous
 62
     4
100
AcDbLine
 10
1045.131003913837
 20
429.9481042815422
 30
0.0
 11
1069.836022216864
 21
454.6531225845683
 31
0.0
1001
ACAD
1010
0.0
1020
0.0
1030
0.0
  0
LINE
  5
6CB
330
11C
100
AcDbEntity
  8
1
  6
Continuous
 62
     4
100
AcDbLine
 10
1047.801093734592
 20
422.0115923844985
 30
0.0
 11
1072.669251860155
 21
446.8797505100623
 31
0.0
1001
ACAD
1010
0.0
1020
0.0
1030
0.0
  0
LINE
  5
6CC
330
11C
100
AcDbEntity
  8
1
  6
Continuous
 62
     4
100
AcDbLine
 10
1050.376759840492
 20
413.9806567726006
 30
0.0
 11
1075.416123028182
 21
439.0200199602905
 31
0.0
1001
ACAD
1010
0.0
1020
0.0
1030
0.0
  0
LINE
  5
6CD
330
11C
100
AcDbEntity
  8
1
  6
Continuous
 62
     4
100
AcDbLine
 10
1052.855905016359
 20
405.853200230668
 30
0.0
 11
1078.074953202169
 21
431.0722484164786
 31
0.0
1001
ACAD
1010
0.0
1020
0.0
1030
0.0
  0
LINE
  5
6CE
330
11C
100
AcDbEntity
  8
1
  6
Continuous
 62
     4
100
AcDbLine
 10
1055.236291855131
 20
397.6269853516423
 30
0.0
 11
1080.643955598554
 21
423.0346490950648
 31
0.0
1001
ACAD
1010
0.0
1020
0.0
1030
0.0
  0
LINE
  5
6CF
330
11C
100
AcDbEntity
  8
1
  6
Continuous
 62
     4
100
AcDbLine
 10
1057.515531265235
 20
389.2996230439477
 30
0.0
 11
1083.121231519468
 21
414.9053232981818
 31
0.0
1001
ACAD
1010
0.0
1020
0.0
1030
0.0
  0
LINE
  5
6D0
330
11C
100
AcDbEntity
  8
1
  6
Continuous
 62
     4
100
AcDbLine
 10
1059.691069651235
 20
380.8685597121502
 30
0.0
 11
1085.504761902533
 21
406.6822519634476
 31
0.0
1001
ACAD
1010
0.0
1020
0.0
1030
0.0
  0
LINE
  5
6D1
330
11C
100
AcDbEntity
  8
1
  6
Continuous
 62
     4
100
AcDbLine
 10
1061.760174578605
 20
372.3310629217218
 30
0.0
 11
1087.792397967373
 21
398.3632863104891
 31
0.0
1001
ACAD
1010
0.0
1020
0.0
1030
0.0
  0
LINE
  5
6D2
330
11C
100
AcDbEntity
  8
1
  6
Continuous
 62
     4
100
AcDbLine
 10
1063.719918700382
 20
363.684205325701
 30
0.0
 11
1089.981850840199
 21
389.9461374655181
 31
0.0
1001
ACAD
1010
0.0
1020
0.0
1030
0.0
  0
LINE
  5
6D3
330
11C
100
AcDbEntity
  8
1
  6
Continuous
 62
     4
100
AcDbLine
 10
1065.567161683661
 20
354.9248465911809
 30
0.0
 11
1092.070680018721
 21
381.4283649262408
 31
0.0
1001
ACAD
1010
0.0
1020
0.0
1030
0.0
  0
LINE
  5
6D4
330
11C
100
AcDbEntity
  8
1
  6
Continuous
 62
     4
100
AcDbLine
 10
1067.298529825515
 20
346.049613015239
 30
0.0
 11
1094.05628051695
 21
372.8073637066713
 31
0.0
1001
ACAD
1010
0.0
1020
0.0
1030
0.0
  0
LINE
  5
6D5
330
11C
100
AcDbEntity
  8
1
  6
Continuous
 62
     4
100
AcDbLine
 10
1068.910392989064
 20
337.0548744609878
 30
0.0
 11
1095.935868502398
 21
364.0803499743232
 31
0.0
1001
ACAD
1010
0.0
1020
0.0
1030
0.0
  0
LINE
  5
6D6
330
11C
100
AcDbEntity
  8
1
  6
Continuous
 62
     4
100
AcDbLine
 10
1070.398838418091
 20
327.9367181722165
 30
0.0
 11
1097.706465205595
 21
355.24434495972
 31
0.0
1001
ACAD
1010
0.0
1020
0.0
1030
0.0
  0
LINE
  5
6D7
330
11C
100
AcDbEntity
  8
1
  6
Continuous
 62
     4
100
AcDbLine
 10
1071.759640899726
 20
318.6909189360541
 30
0.0
 11
1099.364878842606
 21
346.2961568789328
 31
0.0
1001
ACAD
1010
0.0
1020
0.0
1030
0.0
  0
LINE
  5
6D8
330
11C
100
AcDbEntity
  8
1
  6
Continuous
 62
     4
100
AcDbLine
 10
1072.988228634125
 20
309.3129049526538
 30
0.0
 11
1100.907684243795
 21
337.2323605623236
 31
0.0
1001
ACAD
1010
0.0
1020
0.0
1030
0.0
  0
LINE
  5
6D9
330
11C
100
AcDbEntity
  8
1
  6
Continuous
 62
     4
100
AcDbLine
 10
1074.079644032307
 20
299.7977186330376
 30
0.0
 11
1102.331199824075
 21
328.0492744248066
 31
0.0
1001
ACAD
1010
0.0
1020
0.0
1030
0.0
  0
LINE
  5
6DA
330
11C
100
AcDbEntity
  8
1
  6
Continuous
 62
     4
100
AcDbLine
 10
1075.028498490032
 20
290.1399713729651
 30
0.0
 11
1103.631461459124
 21
318.7429343420564
 31
0.0
1001
ACAD
1010
0.0
1020
0.0
1030
0.0
  0
LINE
  5
6DB
330
11C
100
AcDbEntity
  8
1
  6
Continuous
 62
     4
100
AcDbLine
 10
1075.828919966158
 20
280.3337911312928
 30
0.0
 11
1104.804192744718
 21
309.3090639098535
 31
0.0
1001
ACAD
1010
0.0
1020
0.0
1030
0.0
  0
LINE
  5
6DC
330
11C
100
AcDbEntity
  8
1
  6
Continuous
 62
     4
100
AcDbLine
 10
1076.474491914021
 20
270.3727613613572
 30
0.0
 11
1105.844771008319
 21
299.7430404556553
 31
0.0
1001
ACAD
1010
0.0
1020
0.0
1030
0.0
  0
LINE
  5
6DD
330
11C
100
AcDbEntity
  8
1
  6
Continuous
 62
     4
100
AcDbLine
 10
1076.958181754209
 20
260.2498494837476
 30
0.0
 11
1106.748188307193
 21
290.039856036731
 31
0.0
1001
ACAD
1010
0.0
1020
0.0
1030
0.0
  0
LINE
  5
6DE
330
11C
100
AcDbEntity
  8
1
  6
Continuous
 62
     4
100
AcDbLine
 10
1077.272256609576
 20
249.9573226213168
 30
0.0
 11
1107.509006478335
 21
280.1940724900743
 31
0.0
1001
ACAD
1010
0.0
1020
0.0
1030
0.0
  0
LINE
  5
6DF
330
11C
100
AcDbEntity
  8
1
  6
Continuous
 62
     4
100
AcDbLine
 10
1077.408183410663
 20
239.4866477046047
 30
0.0
 11
1108.121305091553
 21
270.1997693854951
 31
0.0
1001
ACAD
1010
0.0
1020
0.0
1030
0.0
  0
LINE
  5
6E0
330
11C
100
AcDbEntity
  8
1
  6
Continuous
 62
     4
100
AcDbLine
 10
1085.528864303271
 20
237.0007268794139
 30
0.0
 11
1108.57862088479
 21
260.0504834609355
 31
0.0
1001
ACAD
1010
0.0
1020
0.0
1030
0.0
  0
LINE
  5
6E1
330
11C
100
AcDbEntity
  8
1
  6
Continuous
 62
     4
100
AcDbLine
 10
1102.337271892575
 20
243.2025327509204
 30
0.0
 11
1108.873876910908
 21
249.739137769255
 31
0.0
1001
ACAD
1010
0.0
1020
0.0
1030
0.0
  0
LINE
  5
998
330
11C
100
AcDbEntity
  8
1
  6
Continuous
 62
     4
100
AcDbLine
 10
997.6187782981089
 20
605.174514739575
 30
0.0
 11
1002.017464683706
 21
609.5732011251725
 31
0.0
1001
ACAD
1010
0.0
1020
0.0
1030
0.0
  0
LINE
  5
999
330
11C
100
AcDbEntity
  8
1
  6
Continuous
 62
     4
100
AcDbLine
 10
1002.297428867634
 20
599.2465635913019
 30
0.0
 11
1033.959017168988
 21
630.9081518926576
 31
0.0
1001
ACAD
1010
0.0
1020
0.0
1030
0.0
  0
LINE
  5
99A
330
11C
100
AcDbEntity
  8
1
  6
Continuous
 62
     4
100
AcDbLine
 10
1009.82162745941
 20
596.1641604652808
 30
0.0
 11
1048.540131373544
 21
634.8826643794142
 31
0.0
1001
ACAD
1010
0.0
1020
0.0
1030
0.0
  0
LINE
  5
99B
330
11C
100
AcDbEntity
  8
1
  6
Continuous
 62
     4
100
AcDbLine
 10
1017.345826051188
 20
593.0817573392597
 30
0.0
 11
1059.146733091341
 21
634.8826643794142
 31
0.0
1001
ACAD
1010
0.0
1020
0.0
1030
0.0
  0
LINE
  5
99C
330
11C
100
AcDbEntity
  8
1
  6
Continuous
 62
     4
100
AcDbLine
 10
1024.870024642962
 20
589.9993542132385
 30
0.0
 11
1069.753334809139
 21
634.8826643794142
 31
0.0
1001
ACAD
1010
0.0
1020
0.0
1030
0.0
  0
LINE
  5
99D
330
11C
100
AcDbEntity
  8
1
  6
Continuous
 62
     4
100
AcDbLine
 10
1032.394223234742
 20
586.9169510872175
 30
0.0
 11
1080.359936526938
 21
634.8826643794142
 31
0.0
1001
ACAD
1010
0.0
1020
0.0
1030
0.0
  0
LINE
  5
99E
330
11C
100
AcDbEntity
  8
1
  6
Continuous
 62
     4
100
AcDbLine
 10
1039.918421826519
 20
583.8345479611962
 30
0.0
 11
1090.966538244737
 21
634.8826643794142
 31
0.0
1001
ACAD
1010
0.0
1020
0.0
1030
0.0
  0
LINE
  5
99F
330
11C
100
AcDbEntity
  8
1
  6
Continuous
 62
     4
100
AcDbLine
 10
1047.442620418296
 20
580.7521448351754
 30
0.0
 11
1101.573139962535
 21
634.8826643794142
 31
0.0
1001
ACAD
1010
0.0
1020
0.0
1030
0.0
  0
LINE
  5
9A0
330
11C
100
AcDbEntity
  8
1
  6
Continuous
 62
     4
100
AcDbLine
 10
1054.966819010072
 20
577.6697417091537
 30
0.0
 11
1112.179741680334
 21
634.8826643794141
 31
0.0
1001
ACAD
1010
0.0
1020
0.0
1030
0.0
  0
LINE
  5
9A1
330
11C
100
AcDbEntity
  8
1
  6
Continuous
 62
     4
100
AcDbLine
 10
1062.49101760185
 20
574.5873385831328
 30
0.0
 11
1122.786343398129
 21
634.8826643794141
 31
0.0
1001
ACAD
1010
0.0
1020
0.0
1030
0.0
  0
LINE
  5
9A2
330
11C
100
AcDbEntity
  8
1
  6
Continuous
 62
     4
100
AcDbLine
 10
1070.015216193628
 20
571.5049354571117
 30
0.0
 11
1133.392945115929
 21
634.8826643794142
 31
0.0
1001
ACAD
1010
0.0
1020
0.0
1030
0.0
  0
LINE
  5
9A3
330
11C
100
AcDbEntity
  8
1
  6
Continuous
 62
     4
100
AcDbLine
 10
1077.539414785404
 20
568.4225323310908
 30
0.0
 11
1143.999546833728
 21
634.8826643794142
 31
0.0
1001
ACAD
1010
0.0
1020
0.0
1030
0.0
  0
LINE
  5
9A4
330
11C
100
AcDbEntity
  8
1
  6
Continuous
 62
     4
100
AcDbLine
 10
1085.063613377182
 20
565.3401292050696
 30
0.0
 11
1154.606148551526
 21
634.8826643794142
 31
0.0
1001
ACAD
1010
0.0
1020
0.0
1030
0.0
  0
LINE
  5
9A5
330
11C
100
AcDbEntity
  8
1
  6
Continuous
 62
     4
100
AcDbLine
 10
1099.850000736222
 20
569.5199148463117
 30
0.0
 11
1165.212750269325
 21
634.8826643794142
 31
0.0
1001
ACAD
1010
0.0
1020
0.0
1030
0.0
  0
LINE
  5
9A6
330
11C
100
AcDbEntity
  8
1
  6
Continuous
 62
     4
100
AcDbLine
 10
1115.054263558248
 20
574.1175759505412
 30
0.0
 11
1175.819351987122
 21
634.8826643794142
 31
0.0
1001
ACAD
1010
0.0
1020
0.0
1030
0.0
  0
LINE
  5
9A7
330
11C
100
AcDbEntity
  8
1
  6
Continuous
 62
     4
100
AcDbLine
 10
1130.258526380278
 20
578.7152370547707
 30
0.0
 11
1186.425953704919
 21
634.8826643794142
 31
0.0
1001
ACAD
1010
0.0
1020
0.0
1030
0.0
  0
LINE
  5
9A8
330
11C
100
AcDbEntity
  8
1
  6
Continuous
 62
     4
100
AcDbLine
 10
1145.462789202305
 20
583.3128981590005
 30
0.0
 11
1193.513133126481
 21
631.3632420831757
 31
0.0
1001
ACAD
1010
0.0
1020
0.0
1030
0.0
  0
LINE
  5
9A9
330
11C
100
AcDbEntity
  8
1
  6
Continuous
 62
     4
100
AcDbLine
 10
1160.667052024333
 20
587.9105592632297
 30
0.0
 11
1193.513133126481
 21
620.7566403653774
 31
0.0
1001
ACAD
1010
0.0
1020
0.0
1030
0.0
  0
LINE
  5
9DD
330
11C
100
AcDbEntity
  8
1
  6
Continuous
 62
     3
100
AcDbLine
 10
1193.513133126482
 20
945.5339798291671
 30
0.0
 11
1193.513133126481
 21
782.8183289412002
 31
0.0
  0
LINE
  5
9DE
330
11C
100
AcDbEntity
  8
1
  6
Continuous
 62
     7
100
AcDbLine
 10
484.7962216632866
 20
534.7698893794142
 30
0.0
 11
484.7962216632866
 21
829.6232782240615
 31
0.0
  0
LINE
  5
9E0
330
11C
100
AcDbEntity
  8
1
  6
Continuous
 62
     7
100
AcDbLine
 10
1094.581636663286
 20
237.0007268794139
 30
0.0
 11
780.3735241632821
 21
237.0007268794139
 31
0.0
  0
LINE
  5
9E1
330
11C
100
AcDbEntity
  8
1
  6
Continuous
 62
     7
100
AcDbLine
 10
780.3735241632821
 20
237.0007268794139
 30
0.0
 11
768.0692191632847
 21
253.3400468794143
 31
0.0
  0
LINE
  5
9E2
330
11C
100
AcDbEntity
  8
1
  6
Continuous
 62
     7
100
AcDbLine
 10
1094.581636663286
 20
237.0007268794139
 30
0.0
 11
1108.176955343019
 21
247.8722447783689
 31
0.0
  0
LINE
  5
9E3
330
11C
100
AcDbEntity
  8
1
  6
Continuous
 62
     7
100
AcDbLine
 10
484.7962216632866
 20
534.7698893794142
 30
0.0
 11
494.4635015486428
 21
520.4955464236896
 31
0.0
  0
LINE
  5
9E4
330
11C
100
AcDbEntity
  8
1
  6
Continuous
 62
     3
100
AcDbLine
 10
508.4636040641728
 20
930.788484642637
 30
0.0
 11
1169.800633126482
 21
930.7884846426372
 31
0.0
  0
LINE
  5
9E5
330
11C
100
AcDbEntity
  8
1
  6
Continuous
 62
     3
100
AcDbLine
 10
484.7511040641728
 20
867.2656946073177
 30
0.0
 11
484.7511040641728
 21
950.683209587299
 31
0.0
  0
LINE
  5
9E6
330
11C
100
AcDbEntity
  8
0
  6
Continuous
100
AcDbLine
 10
484.7962216632866
 20
552.3322955947876
 30
0.0
 11
484.7962216632867
 21
237.0007268794139
 31
0.0
  0
LINE
  5
9E7
330
11C
100
AcDbEntity
  8
0
  6
Continuous
100
AcDbLine
 10
800.1388824257338
 20
237.0007268794139
 30
0.0
 11
484.7962216632867
 21
237.0007268794139
 31
0.0
  0
LINE
  5
9E8
330
11C
100
AcDbEntity
  8
1
  6
Continuous
 62
     7
100
AcDbLine
 10
1165.146258126479
 20
789.9856643794145
 30
0.0
 11
953.7330750598126
 21
842.1677718675601
 31
0.0
  0
LINE
  5
9E9
330
11C
100
AcDbEntity
  8
1
  6
Continuous
 62
     7
100
AcDbLine
 10
1193.513133126481
 20
617.6319143794142
 30
0.0
 11
1193.513133126481
 21
761.6187893794148
 31
0.0
  0
LINE
  5
9EA
330
11C
100
AcDbEntity
  8
1
  6
Continuous
 62
     7
100
AcDbLine
 10
1001.632506168204
 20
599.5189593530946
 30
0.0
 11
996.9155298380169
 21
606.1654291077712
 31
0.0
  0
LINE
  5
9EB
330
11C
100
AcDbEntity
  8
1
  6
Continuous
 62
     7
100
AcDbLine
 10
1165.146258126479
 20
589.2650393794132
 30
0.0
 11
1193.513133126481
 21
617.6319143794142
 31
0.0
  0
LINE
  5
9EC
330
11C
100
AcDbEntity
  8
1
  6
Continuous
 62
     7
100
AcDbLine
 10
1193.513133126481
 20
634.8826643794142
 30
0.0
 11
1039.909445673968
 21
634.8826643794142
 31
0.0
  0
LINE
  5
9ED
330
11C
100
AcDbEntity
  8
1
  6
Continuous
 62
     7
100
AcDbLine
 10
1193.513133126481
 20
761.6187893794148
 30
0.0
 11
1165.146258126479
 21
789.9856643794145
 31
0.0
  0
LINE
  5
9EE
330
11C
100
AcDbEntity
  8
1
  6
Continuous
 62
     7
100
AcDbLine
 10
953.7330750598126
 20
842.1677718675601
 30
0.0
 11
861.6320832224827
 21
801.3641784515579
 31
0.0
  0
LINE
  5
9EF
330
11C
100
AcDbEntity
  8
1
  6
Continuous
 62
     7
100
AcDbLine
 10
996.9155298380169
 20
606.1654291077712
 30
0.0
 11
1039.909445673968
 21
634.8826643794142
 31
0.0
  0
LINE
  5
9F0
330
11C
100
AcDbEntity
  8
1
  6
Continuous
 62
     7
100
AcDbLine
 10
861.6320832224827
 20
801.3641784515579
 30
0.0
 11
847.453525172488
 21
753.7854015904079
 31
0.0
  0
LINE
  5
9F1
330
11C
100
AcDbEntity
  8
1
  6
Continuous
 62
     7
100
AcDbLine
 10
857.6572393096576
 20
746.9971643794147
 30
0.0
 11
847.5142063575585
 21
753.9890285427376
 31
0.0
  0
LINE
  5
9F2
330
11C
100
AcDbEntity
  8
1
  6
Continuous
 62
     7
100
AcDbLine
 10
1193.513133126482
 20
746.9971643794145
 30
0.0
 11
857.6572393096576
 21
746.9971643794147
 31
0.0
  0
LINE
  5
9F3
330
11C
100
AcDbEntity
  8
1
  6
Continuous
 62
     7
100
AcDbLine
 10
1001.632506168204
 20
599.5189593530946
 30
0.0
 11
1085.473008126481
 21
565.1724143794141
 31
0.0
  0
LINE
  5
9F4
330
11C
100
AcDbEntity
  8
1
  6
Continuous
 62
     7
100
AcDbLine
 10
1165.146258126479
 20
589.2650393794132
 30
0.0
 11
1085.473008126481
 21
565.1724143794141
 31
0.0
  0
LINE
  5
9F5
330
11C
100
AcDbEntity
  8
-1
  6
Continuous
 62
     3
100
AcDbLine
 10
508.4636040641728
 20
937.3447346426376
 30
0.0
 11
508.4636040641728
 21
924.2322346426377
 31
0.0
  0
LINE
  5
9F6
330
11C
100
AcDbEntity
  8
-1
  6
Continuous
 62
     3
100
AcDbLine
 10
484.7511040641728
 20
930.7884846426379
 30
0.0
 11
508.4636040641728
 21
937.3447346426376
 31
0.0
  0
LINE
  5
9F7
330
11C
100
AcDbEntity
  8
1
  6
Continuous
 62
     3
100
AcDbLine
 10
508.4636040641728
 20
937.3447346426376
 30
0.0
 11
508.4636040641728
 21
924.2322346426377
 31
0.0
  0
LINE
  5
9F8
330
11C
100
AcDbEntity
  8
-1
  6
Continuous
 62
     3
100
AcDbLine
 10
484.7511040641728
 20
930.7884846426379
 30
0.0
 11
508.4636040641728
 21
924.2322346426377
 31
0.0
  0
LINE
  5
9F9
330
11C
100
AcDbEntity
  8
1
  6
Continuous
 62
     3
100
AcDbLine
 10
1193.513133126482
 20
930.7884846426366
 30
0.0
 11
1169.800633126482
 21
937.3446846426366
 31
0.0
  0
LINE
  5
9FA
330
11C
100
AcDbEntity
  8
1
  6
Continuous
 62
     3
100
AcDbLine
 10
1193.513133126482
 20
930.7884846426366
 30
0.0
 11
1169.800633126482
 21
924.2321846426364
 31
0.0
  0
LINE
  5
9FB
330
11C
100
AcDbEntity
  8
1
  6
Continuous
 62
     3
100
AcDbLine
 10
1169.800633126482
 20
937.3446846426366
 30
0.0
 11
1169.800633126482
 21
924.2321846426364
 31
0.0
  0
LINE
  5
9FC
330
11C
100
AcDbEntity
  8
-1
  6
Continuous
 62
     3
100
AcDbLine
 10
484.7511040641728
 20
930.7884846426379
 30
0.0
 11
508.4636040641728
 21
924.2322346426377
 31
0.0
  0
LINE
  5
9FD
330
11C
100
AcDbEntity
  8
-1
  6
Continuous
 62
     3
100
AcDbLine
 10
484.7511040641728
 20
930.7884846426379
 30
0.0
 11
508.4636040641728
 21
937.3447346426376
 31
0.0
  0
LINE
  5
9FE
330
11C
100
AcDbEntity
  8
1
  6
Continuous
 62
     3
100
AcDbLine
 10
508.4636040641728
 20
937.3447346426376
 30
0.0
 11
508.4636040641728
 21
924.2322346426377
 31
0.0
  0
LINE
  5
9FF
330
11C
100
AcDbEntity
  8
-1
  6
Continuous
 62
     3
100
AcDbLine
 10
508.4636040641728
 20
937.3447346426376
 30
0.0
 11
508.4636040641728
 21
924.2322346426377
 31
0.0
  0
LINE
  5
A00
330
11C
100
AcDbEntity
  8
1
  6
Continuous
 62
     7
100
AcDbLine
 10
768.0692191632847
 20
253.3400468794143
 30
0.0
 11
765.1036488326061
 21
281.0269777351559
 31
0.0
  0
LINE
  5
A01
330
11C
100
AcDbEntity
  8
1
  6
Continuous
 62
     7
100
AcDbLine
 10
765.1036488326061
 20
281.0269777351559
 30
0.0
 11
759.438564746661
 21
308.2899117279607
 31
0.0
  0
LINE
  5
A02
330
11C
100
AcDbEntity
  8
1
  6
Continuous
 62
     7
100
AcDbLine
 10
759.438564746661
 20
308.2899117279607
 30
0.0
 11
751.1285247620462
 21
334.8662919000411
 31
0.0
  0
LINE
  5
A03
330
11C
100
AcDbEntity
  8
1
  6
Continuous
 62
     7
100
AcDbLine
 10
751.1285247620462
 20
334.8662919000411
 30
0.0
 11
740.2535591065437
 21
360.5001731822129
 31
0.0
  0
LINE
  5
A04
330
11C
100
AcDbEntity
  8
1
  6
Continuous
 62
     7
100
AcDbLine
 10
740.2535591065437
 20
360.5001731822129
 30
0.0
 11
726.9183996442775
 21
384.9446872848242
 31
0.0
  0
LINE
  5
A05
330
11C
100
AcDbEntity
  8
1
  6
Continuous
 62
     7
100
AcDbLine
 10
726.9183996442775
 20
384.9446872848242
 30
0.0
 11
711.2514712506079
 21
407.9644201743361
 31
0.0
  0
LINE
  5
A06
330
11C
100
AcDbEntity
  8
1
  6
Continuous
 62
     7
100
AcDbLine
 10
711.2514712506079
 20
407.9644201743361
 30
0.0
 11
693.4036550103805
 21
429.3376792391565
 31
0.0
  0
LINE
  5
A07
330
11C
100
AcDbEntity
  8
1
  6
Continuous
 62
     7
100
AcDbLine
 10
693.4036550103805
 20
429.3376792391565
 30
0.0
 11
673.5468351505979
 21
448.8586283106791
 31
0.0
  0
LINE
  5
A08
330
11C
100
AcDbEntity
  8
1
  6
Continuous
 62
     7
100
AcDbLine
 10
673.5468351505979
 20
448.8586283106791
 30
0.0
 11
651.8722437013516
 21
466.3392699781091
 31
0.0
  0
LINE
  5
A09
330
11C
100
AcDbEntity
  8
1
  6
Continuous
 62
     7
100
AcDbLine
 10
651.8722437013516
 20
466.3392699781091
 30
0.0
 11
628.5886188268346
 21
481.6112561062985
 31
0.0
  0
LINE
  5
A0A
330
11C
100
AcDbEntity
  8
1
  6
Continuous
 62
     7
100
AcDbLine
 10
628.5886188268346
 20
481.6112561062985
 30
0.0
 11
603.9201945627122
 21
494.527509120316
 31
0.0
  0
LINE
  5
A0B
330
11C
100
AcDbEntity
  8
1
  6
Continuous
 62
     7
100
AcDbLine
 10
603.9201945627122
 20
494.527509120316
 30
0.0
 11
578.1045413197812
 21
504.9636384428942
 31
0.0
  0
LINE
  5
A0C
330
11C
100
AcDbEntity
  8
1
  6
Continuous
 62
     7
100
AcDbLine
 10
578.1045413197812
 20
504.9636384428942
 30
0.0
 11
551.3902779510417
 21
512.8191384436878
 31
0.0
  0
LINE
  5
A0D
330
11C
100
AcDbEntity
  8
1
  6
Continuous
 62
     7
100
AcDbLine
 10
551.3902779510417
 20
512.8191384436878
 30
0.0
 11
524.0346774162372
 21
518.0183563634368
 31
0.0
  0
LINE
  5
A0E
330
11C
100
AcDbEntity
  8
1
  6
Continuous
 62
     7
100
AcDbLine
 10
524.0346774162372
 20
518.0183563634368
 30
0.0
 11
496.3011891026097
 21
520.5112208913925
 31
0.0
  0
LINE
  5
A0F
330
11C
100
AcDbEntity
  8
1
  6
Continuous
 62
     7
100
AcDbLine
 10
496.3011891026097
 20
520.5112208913925
 30
0.0
 11
494.4635015486428
 21
520.4955464236896
 31
0.0
  0
LINE
  5
A10
330
11C
100
AcDbEntity
  8
1
  6
Continuous
 62
     7
100
AcDbLine
 10
800.1277903786608
 20
237.000726879389
 30
0.0
 11
798.6093826864137
 21
267.9086255005041
 31
0.0
  0
LINE
  5
A11
330
11C
100
AcDbEntity
  8
1
  6
Continuous
 62
     7
100
AcDbLine
 10
798.6093826864137
 20
267.9086255005041
 30
0.0
 11
794.0687827057902
 21
298.5188641619221
 31
0.0
  0
LINE
  5
A12
330
11C
100
AcDbEntity
  8
1
  6
Continuous
 62
     7
100
AcDbLine
 10
794.0687827057902
 20
298.5188641619221
 30
0.0
 11
786.5497188967482
 21
328.5366495320753
 31
0.0
  0
LINE
  5
A13
330
11C
100
AcDbEntity
  8
1
  6
Continuous
 62
     7
100
AcDbLine
 10
786.5497188967482
 20
328.5366495320753
 30
0.0
 11
776.1246039541068
 21
357.6728939284577
 31
0.0
  0
LINE
  5
A14
330
11C
100
AcDbEntity
  8
1
  6
Continuous
 62
     7
100
AcDbLine
 10
776.1246039541068
 20
357.6728939284577
 30
0.0
 11
762.8938374337117
 21
385.6469993900415
 31
0.0
  0
LINE
  5
A15
330
11C
100
AcDbEntity
  8
1
  6
Continuous
 62
     7
100
AcDbLine
 10
762.8938374337117
 20
385.6469993900415
 30
0.0
 11
746.9848388498262
 21
412.1895599890295
 31
0.0
  0
LINE
  5
A16
330
11C
100
AcDbEntity
  8
1
  6
Continuous
 62
     7
100
AcDbLine
 10
746.9848388498262
 20
412.1895599890295
 30
0.0
 11
728.5508205555576
 21
437.0449563572141
 31
0.0
  0
LINE
  5
A17
330
11C
100
AcDbEntity
  8
1
  6
Continuous
 62
     7
100
AcDbLine
 10
728.5508205555576
 20
437.0449563572141
 30
0.0
 11
707.7693122241377
 21
459.9738174402282
 31
0.0
  0
LINE
  5
A18
330
11C
100
AcDbEntity
  8
1
  6
Continuous
 62
     7
100
AcDbLine
 10
707.7693122241377
 20
459.9738174402282
 30
0.0
 11
684.8404511411272
 21
480.7553257716515
 31
0.0
  0
LINE
  5
A19
330
11C
100
AcDbEntity
  8
1
  6
Continuous
 62
     7
100
AcDbLine
 10
684.8404511411272
 20
480.7553257716515
 30
0.0
 11
659.9850547729456
 21
499.1893440659246
 31
0.0
  0
LINE
  5
A1A
330
11C
100
AcDbEntity
  8
1
  6
Continuous
 62
     7
100
AcDbLine
 10
659.9850547729456
 20
499.1893440659246
 30
0.0
 11
633.4424941739601
 21
515.0983426498141
 31
0.0
  0
LINE
  5
A1B
330
11C
100
AcDbEntity
  8
1
  6
Continuous
 62
     7
100
AcDbLine
 10
633.4424941739601
 20
515.0983426498141
 30
0.0
 11
605.4683887123787
 21
528.3291091702141
 31
0.0
  0
LINE
  5
A1C
330
11C
100
AcDbEntity
  8
1
  6
Continuous
 62
     7
100
AcDbLine
 10
605.4683887123787
 20
528.3291091702141
 30
0.0
 11
576.332144315998
 21
538.7542241128601
 31
0.0
  0
LINE
  5
A1D
330
11C
100
AcDbEntity
  8
1
  6
Continuous
 62
     7
100
AcDbLine
 10
576.332144315998
 20
538.7542241128601
 30
0.0
 11
546.3143589458461
 21
546.2732879219071
 31
0.0
  0
LINE
  5
A1E
330
11C
100
AcDbEntity
  8
1
  6
Continuous
 62
     7
100
AcDbLine
 10
546.3143589458461
 20
546.2732879219071
 30
0.0
 11
515.7041202844289
 21
550.8138879025356
 31
0.0
  0
LINE
  5
A1F
330
11C
100
AcDbEntity
  8
1
  6
Continuous
 62
     7
100
AcDbLine
 10
515.7041202844289
 20
550.8138879025356
 30
0.0
 11
484.7962216633099
 21
552.3322955947876
 31
0.0
  0
LINE
  5
A20
330
11C
100
AcDbEntity
  8
1
  6
Continuous
 62
     7
100
AcDbLine
 10
1077.418773007932
 20
237.0007268794096
 30
0.0
 11
1074.56513344299
 21
295.08789465702
 31
0.0
  0
LINE
  5
A21
330
11C
100
AcDbEntity
  8
1
  6
Continuous
 62
     7
100
AcDbLine
 10
1074.56513344299
 20
295.08789465702
 30
0.0
 11
1066.031696857126
 21
352.6156512552561
 31
0.0
  0
LINE
  5
A22
330
11C
100
AcDbEntity
  8
1
  6
Continuous
 62
     7
100
AcDbLine
 10
1066.031696857126
 20
352.6156512552561
 30
0.0
 11
1051.900644909514
 21
409.0299729302063
 31
0.0
  0
LINE
  5
A23
330
11C
100
AcDbEntity
  8
1
  6
Continuous
 62
     7
100
AcDbLine
 10
1051.900644909514
 20
409.0299729302063
 30
0.0
 11
1032.308067355228
 21
463.7875589249355
 31
0.0
  0
LINE
  5
A24
330
11C
100
AcDbEntity
  8
1
  6
Continuous
 62
     7
100
AcDbLine
 10
1032.308067355228
 20
463.7875589249355
 30
0.0
 11
1007.442651426509
 21
516.3610637527732
 31
0.0
  0
LINE
  5
A25
330
11C
100
AcDbEntity
  8
1
  6
Continuous
 62
     7
100
AcDbLine
 10
1007.442651426509
 20
516.3610637527732
 30
0.0
 11
977.5438646715697
 21
566.2441758226263
 31
0.0
  0
LINE
  5
A26
330
11C
100
AcDbEntity
  8
1
  6
Continuous
 62
     7
100
AcDbLine
 10
977.5438646715697
 20
566.2441758226263
 30
0.0
 11
968.3090183710216
 21
578.6959246239554
 31
0.0
  0
LINE
  5
A27
330
11C
100
AcDbEntity
  8
1
  6
Continuous
 62
     7
100
AcDbLine
 10
968.3090183710216
 20
578.6959246239554
 30
0.0
 11
991.3598939129657
 21
601.746800165899
 31
0.0
  0
LINE
  5
A28
330
11C
100
AcDbEntity
  8
1
  6
Continuous
 62
     7
100
AcDbLine
 10
845.1823194273663
 20
746.9971643794145
 30
0.0
 11
788.3223337260867
 21
782.4021370467066
 31
0.0
  0
LINE
  5
A29
330
11C
100
AcDbEntity
  8
1
  6
Continuous
 62
     7
100
AcDbLine
 10
788.3223337260867
 20
782.4021370467066
 30
0.0
 11
733.4020859780714
 21
809.526641703127
 31
0.0
  0
LINE
  5
A2A
330
11C
100
AcDbEntity
  8
1
  6
Continuous
 62
     7
100
AcDbLine
 10
733.4020859780714
 20
809.526641703127
 30
0.0
 11
676.0876278549154
 21
831.1374088252941
 31
0.0
  0
LINE
  5
A2B
330
11C
100
AcDbEntity
  8
1
  6
Continuous
 62
     7
100
AcDbLine
 10
676.0876278549154
 20
831.1374088252941
 30
0.0
 11
616.930928919614
 21
847.0263149121745
 31
0.0
  0
LINE
  5
A2C
330
11C
100
AcDbEntity
  8
1
  6
Continuous
 62
     7
100
AcDbLine
 10
616.930928919614
 20
847.0263149121745
 30
0.0
 11
556.5017005212562
 21
857.0403411123917
 31
0.0
  0
LINE
  5
A2D
330
11C
100
AcDbEntity
  8
1
  6
Continuous
 62
     7
100
AcDbLine
 10
556.5017005212562
 20
857.0403411123917
 30
0.0
 11
495.3819091632865
 21
861.0830468794144
 31
0.0
  0
LINE
  5
A2E
330
11C
100
AcDbEntity
  8
1
  6
Continuous
 62
     7
100
AcDbLine
 10
495.3819091632865
 20
861.0830468794144
 30
0.0
 11
495.3819091632865
 21
861.0830468794144
 31
0.0
  0
LINE
  5
A2F
330
11C
100
AcDbEntity
  8
1
  6
Continuous
 62
     7
100
AcDbLine
 10
495.3819091632865
 20
861.0830468794144
 30
0.0
 11
484.7962216632866
 21
848.6542043794141
 31
0.0
  0
LINE
  5
A30
330
11C
100
AcDbEntity
  8
1
  6
Continuous
 62
     7
100
AcDbLine
 10
484.7962216632866
 20
848.6542043794141
 30
0.0
 11
484.7962216632866
 21
829.6232782240608
 31
0.0
  0
LINE
  5
A31
330
11C
100
AcDbEntity
  8
1
  6
Continuous
 62
     7
100
AcDbLine
 10
484.7962216632866
 20
829.6232782240608
 30
0.0
 11
484.7962216632947
 21
829.6232782240613
 31
0.0
  0
LINE
  5
A32
330
11C
100
AcDbEntity
  8
1
  6
Continuous
 62
     7
100
AcDbLine
 10
484.7962216632947
 20
829.6232782240613
 30
0.0
 11
542.8833894409051
 21
826.7696386591159
 31
0.0
  0
LINE
  5
A33
330
11C
100
AcDbEntity
  8
1
  6
Continuous
 62
     7
100
AcDbLine
 10
542.8833894409051
 20
826.7696386591159
 30
0.0
 11
600.4111460391408
 21
818.2362020732504
 31
0.0
  0
LINE
  5
A34
330
11C
100
AcDbEntity
  8
1
  6
Continuous
 62
     7
100
AcDbLine
 10
600.4111460391408
 20
818.2362020732504
 30
0.0
 11
656.8254677140906
 21
804.1051501256371
 31
0.0
  0
LINE
  5
A35
330
11C
100
AcDbEntity
  8
1
  6
Continuous
 62
     7
100
AcDbLine
 10
656.8254677140906
 20
804.1051501256371
 30
0.0
 11
711.5830537088197
 21
784.5125725713502
 31
0.0
  0
LINE
  5
A36
330
11C
100
AcDbEntity
  8
1
  6
Continuous
 62
     7
100
AcDbLine
 10
711.5830537088197
 20
784.5125725713502
 30
0.0
 11
764.1565585366568
 21
759.6471566426303
 31
0.0
  0
LINE
  5
A37
330
11C
100
AcDbEntity
  8
1
  6
Continuous
 62
     7
100
AcDbLine
 10
764.1565585366568
 20
759.6471566426303
 30
0.0
 11
785.2617955792433
 21
746.9971643794145
 31
0.0
  0
LINE
  5
A38
330
11C
100
AcDbEntity
  8
1
  6
Continuous
 62
     7
100
AcDbLine
 10
785.2617955792433
 20
746.9971643794145
 30
0.0
 11
845.1823194273663
 21
746.9971643794145
 31
0.0
  0
LINE
  5
A6C
330
11C
100
AcDbEntity
  8
1
  6
Continuous
 62
     4
100
AcDbLine
 10
862.0510185542569
 20
690.939914379414
 30
0.0
 11
848.8769750766714
 21
690.939914379414
 31
0.0
  0
LINE
  5
A6D
330
11C
100
AcDbEntity
  8
1
  6
Continuous
 62
     4
100
AcDbLine
 10
837.166722841275
 20
690.939914379414
 30
0.0
 11
457.6063206781068
 21
690.939914379414
 31
0.0
  0
LINE
  5
AAB
330
11C
100
AcDbEntity
  8
1
  6
Continuous
 62
     5
100
AcDbLine
 10
833.8793163751741
 20
957.1436551018727
 30
0.0
 11
843.8793163751741
 21
957.1436551018727
 31
0.0
  0
LINE
  5
AB2
330
11C
100
AcDbEntity
  8
1
  6
Continuous
 62
     7
100
AcDbLine
 10
1108.176955343019
 20
247.8722447783689
 30
0.0
 11
1107.988918895075
 21
272.405956817013
 31
0.0
  0
LINE
  5
AB3
330
11C
100
AcDbEntity
  8
1
  6
Continuous
 62
     7
100
AcDbLine
 10
1107.988918895075
 20
272.405956817013
 30
0.0
 11
1101.517756330818
 21
333.3190370145551
 31
0.0
  0
LINE
  5
AB4
330
11C
100
AcDbEntity
  8
1
  6
Continuous
 62
     7
100
AcDbLine
 10
1101.517756330818
 20
333.3190370145551
 30
0.0
 11
1089.107228253431
 21
393.3045192325516
 31
0.0
  0
LINE
  5
AB5
330
11C
100
AcDbEntity
  8
1
  6
Continuous
 62
     7
100
AcDbLine
 10
1089.107228253431
 20
393.3045192325516
 30
0.0
 11
1070.876854832579
 21
451.784710485843
 31
0.0
  0
LINE
  5
AB6
330
11C
100
AcDbEntity
  8
1
  6
Continuous
 62
     7
100
AcDbLine
 10
1070.876854832579
 20
451.784710485843
 30
0.0
 11
1047.002204530044
 21
508.1964145641356
 31
0.0
  0
LINE
  5
AB7
330
11C
100
AcDbEntity
  8
1
  6
Continuous
 62
     7
100
AcDbLine
 10
1047.002204530044
 20
508.1964145641356
 30
0.0
 11
1017.713203279448
 21
561.9963559193815
 31
0.0
  0
LINE
  5
AB8
330
11C
100
AcDbEntity
  8
1
  6
Continuous
 62
     7
100
AcDbLine
 10
1017.713203279448
 20
561.9963559193815
 30
0.0
 11
990.9728082278352
 21
601.3597144807683
 31
0.0
  0
ENDSEC
  0
SECTION
  2
OBJECTS
  0
DICTIONARY
  5
10A
330
0
100
AcDbDictionary
281
     1
  3
ACAD_COLOR
350
534
  3
ACAD_GROUP
350
10B
  3
ACAD_LAYOUT
350
117
  3
ACAD_MATERIAL
350
507
  3
ACAD_MLEADERSTYLE
350
559
  3
ACAD_MLINESTYLE
350
114
  3
ACAD_PLOTSETTINGS
350
116
  3
ACAD_PLOTSTYLENAME
350
10C
  3
ACAD_SCALELIST
350
537
  3
ACAD_TABLESTYLE
350
535
  3
ACAD_VISUALSTYLE
350
520
  3
ACDB_RECOMPOSE_DATA
350
A70
  3
AcDbVariableDictionary
350
421
  3
DWGPROPS
350
A71
  0
DICTIONARY
  5
5E6
330
10E
100
AcDbDictionary
280
     1
281
     1
  3
ADSK_XREC_LAYER_RECONCILED
360
5E7
  0
DICTIONARY
  5
5E8
330
127
100
AcDbDictionary
280
     1
281
     1
  3
ADSK_XREC_LAYER_RECONCILED
360
5E9
  0
DICTIONARY
  5
5EA
330
128
100
AcDbDictionary
280
     1
281
     1
  3
ADSK_XREC_LAYER_RECONCILED
360
5EB
  0
DICTIONARY
  5
5EC
330
129
100
AcDbDictionary
280
     1
281
     1
  3
ADSK_XREC_LAYER_RECONCILED
360
5ED
  0
DICTIONARY
  5
55F
330
55E
100
AcDbDictionary
280
     1
281
     1
  3
ADSK_XREC_LAYER_RECONCILED
360
5EE
  0
DICTIONARY
  5
599
330
11C
100
AcDbDictionary
280
     1
281
     1
  3
ACAD_SORTENTS
360
59A
  0
DICTIONARY
  5
534
102
{ACAD_REACTORS
330
10A
102
}
330
10A
100
AcDbDictionary
281
     1
  0
DICTIONARY
  5
10B
102
{ACAD_REACTORS
330
10A
102
}
330
10A
100
AcDbDictionary
281
     1
  0
DICTIONARY
  5
117
102
{ACAD_REACTORS
330
10A
102
}
330
10A
100
AcDbDictionary
281
     1
  3
Layout1
350
11B
  3
Model
350
11F
  0
DICTIONARY
  5
507
102
{ACAD_REACTORS
330
10A
102
}
330
10A
100
AcDbDictionary
281
     1
  3
ByBlock
350
510
  3
ByLayer
350
508
  3
Global
350
518
  0
DICTIONARY
  5
559
102
{ACAD_REACTORS
330
10A
102
}
330
10A
100
AcDbDictionary
281
     1
  3
Standard
350
55A
  0
DICTIONARY
  5
114
102
{ACAD_REACTORS
330
10A
102
}
330
10A
100
AcDbDictionary
281
     1
  3
Standard
350
115
  0
DICTIONARY
  5
116
102
{ACAD_REACTORS
330
10A
102
}
330
10A
100
AcDbDictionary
281
     1
  0
ACDBDICTIONARYWDFLT
  5
10C
102
{ACAD_REACTORS
330
10A
102
}
330
10A
100
AcDbDictionary
281
     1
  3
Normal
350
10D
100
AcDbDictionaryWithDefault
340
10D
  0
DICTIONARY
  5
537
102
{ACAD_REACTORS
330
10A
102
}
330
10A
100
AcDbDictionary
281
     1
  3
A0
350
538
  3
A1
350
539
  3
A2
350
53A
  3
A3
350
53B
  3
A4
350
53C
  3
A5
350
53D
  3
A6
350
53E
  3
A7
350
53F
  3
A8
350
540
  3
A9
350
541
  3
B0
350
542
  3
B1
350
543
  3
B2
350
544
  3
B3
350
545
  3
B4
350
546
  3
B5
350
547
  3
B6
350
548
  3
B7
350
549
  3
B8
350
54A
  3
B9
350
54B
  3
C0
350
54C
  3
C1
350
54D
  3
C2
350
54E
  3
C3
350
54F
  3
C4
350
550
  3
C5
350
551
  3
C6
350
552
  3
C7
350
553
  3
C8
350
554
  3
C9
350
555
  3
D0
350
556
  3
D1
350
557
  3
D2
350
558
  0
DICTIONARY
  5
535
102
{ACAD_REACTORS
330
10A
102
}
330
10A
100
AcDbDictionary
281
     1
  3
Standard
350
536
  0
DICTIONARY
  5
520
102
{ACAD_REACTORS
330
10A
102
}
330
10A
100
AcDbDictionary
281
     1
  3
2dWireframe
350
526
  3
3D Hidden
350
528
  3
3dWireframe
350
527
  3
Basic
350
525
  3
Brighten
350
52C
  3
ColorChange
350
530
  3
Conceptual
350
529
  3
Dim
350
52B
  3
EdgeColorOff
350
533
  3
Facepattern
350
52F
  3
Flat
350
521
  3
FlatWithEdges
350
522
  3
Gouraud
350
523
  3
GouraudWithEdges
350
524
  3
JitterOff
350
531
  3
Linepattern
350
52E
  3
OverhangOff
350
532
  3
Realistic
350
52A
  3
Thicken
350
52D
  0
XRECORD
  5
A70
102
{ACAD_REACTORS
330
10A
102
}
330
10A
100
AcDbXrecord
280
     1
 90
        1
330
536
  0
DICTIONARY
  5
421
102
{ACAD_REACTORS
330
10A
102
}
330
10A
100
AcDbDictionary
281
     1
  3
CANNOSCALE
350
5F1
  3
CMLEADERSTYLE
350
5F0
  3
CTABLESTYLE
350
5EF
  3
DIMASSOC
350
5F3
  3
INDEXCTL
350
5F2
  3
SORTENTS
350
422
  3
XCLIPFRAME
350
5F4
  0
XRECORD
  5
A71
102
{ACAD_REACTORS
330
10A
102
}
330
10A
100
AcDbXrecord
280
     1
  1
DWGPROPS COOKIE
  2

  3

  4

  6

  7

  8
John
  9

300
=
301
=
302
=
303
=
304
=
305
=
306
=
307
=
308
=
309
=
 40
0.0634224305555556
 41
2453375.510428241
 42
2456138.373685081
  1

 90
        0
  0
XRECORD
  5
5E7
102
{ACAD_REACTORS
330
5E6
102
}
330
5E6
100
AcDbXrecord
280
     1
290
     1
  0
XRECORD
  5
5E9
102
{ACAD_REACTORS
330
5E8
102
}
330
5E8
100
AcDbXrecord
280
     1
290
     1
  0
XRECORD
  5
5EB
102
{ACAD_REACTORS
330
5EA
102
}
330
5EA
100
AcDbXrecord
280
     1
290
     1
  0
XRECORD
  5
5ED
102
{ACAD_REACTORS
330
5EC
102
}
330
5EC
100
AcDbXrecord
280
     1
290
     1
  0
XRECORD
  5
5EE
102
{ACAD_REACTORS
330
55F
102
}
330
55F
100
AcDbXrecord
280
     1
290
     1
  0
SORTENTSTABLE
  5
59A
102
{ACAD_REACTORS
330
599
102
}
330
599
100
AcDbSortentsTable
330
11C
331
6D0
  5
699
331
5B8
  5
6AE
331
9F0
  5
9F2
331
648
  5
5CE
331
698
  5
661
331
A03
  5
A05
331
65B
  5
5E2
331
6AB
  5
674
331
9A3
  5
738
331
9DE
  5
9E0
331
686
  5
64F
331
A2E
  5
A30
331
999
  5
72C
331
A09
  5
A0B
331
639
  5
5BF
331
661
  5
62A
331
A1C
  5
A1E
331
6C4
  5
68D
331
674
  5
63D
331
6D7
  5
6A0
331
9F7
  5
9F9
331
64F
  5
5D5
331
69F
  5
668
331
6B2
  5
67B
331
67A
  5
643
331
9E5
  5
9E7
331
68D
  5
656
331
A35
  5
A37
331
6DD
  5
6A6
331
640
  5
5C6
331
A10
  5
A12
331
668
  5
631
331
6B8
  5
681
331
A23
  5
A25
331
6CB
  5
694
331
9EB
  5
9ED
331
9FE
  5
A00
331
62E
  5
418
331
6A6
  5
66F
331
656
  5
5DD
331
439
  5
6B2
331
A29
  5
A2B
331
681
  5
64A
331
694
  5
65D
331
634
  5
5BA
331
647
  5
5CD
331
A17
  5
A19
331
66F
  5
638
331
6BF
  5
688
331
6D2
  5
69B
331
9F2
  5
9F4
331
64A
  5
5D0
331
69A
  5
663
331
A05
  5
A07
331
6AD
  5
676
331
65D
  5
5E4
331
9A5
  5
73A
331
9E0
  5
9E2
331
688
  5
651
331
A30
  5
A32
331
6D8
  5
6A1
331
99B
  5
730
331
A0B
  5
A0D
331
63B
  5
5C1
331
663
  5
62C
331
A1E
  5
A20
331
6C6
  5
68F
331
676
  5
63F
331
629
  5
3C9
331
9F9
  5
9FB
331
651
  5
5D7
331
6A1
  5
66A
331
6B4
  5
67D
331
67C
  5
645
331
9E7
  5
9E9
331
68F
  5
658
331
A37
  5
A6C
331
6DF
  5
6A8
331
642
  5
5C8
331
A12
  5
A14
331
66A
  5
633
331
6BA
  5
683
331
A25
  5
A27
331
6CD
  5
696
331
9ED
  5
9EF
331
5B5
  5
729
331
A00
  5
A02
331
658
  5
5DF
331
6A8
  5
671
331
9A0
  5
735
331
A2B
  5
A2D
331
683
  5
64C
331
696
  5
65F
331
636
  5
5BC
331
A19
  5
A1B
331
671
  5
63A
331
6C1
  5
68A
331
6D4
  5
69D
331
9F4
  5
9F6
331
69C
  5
665
331
64C
  5
5D2
331
A07
  5
A09
331
6AF
  5
678
331
65F
  5
628
331
9A7
  5
73C
331
9E2
  5
9E4
331
68A
  5
653
331
A32
  5
A34
331
6DA
  5
6A3
331
99D
  5
732
331
A0D
  5
A0F
331
63D
  5
5C3
331
665
  5
62E
331
A20
  5
A22
331
6C8
  5
691
331
9E8
  5
9EA
331
62B
  5
3E0
331
9FB
  5
9FD
331
653
  5
5D9
331
6A3
  5
66C
331
6B6
  5
67F
331
67E
  5
647
331
691
  5
65A
331
6E1
  5
6AA
331
631
  5
4AC
331
644
  5
5CA
331
A14
  5
A16
331
66C
  5
635
331
6BC
  5
685
331
A27
  5
A29
331
6CF
  5
698
331
5B7
  5
6AC
331
9EF
  5
9F1
331
A02
  5
A04
331
65A
  5
5E1
331
6AA
  5
673
331
9A2
  5
737
331
9DD
  5
9DF
331
A2D
  5
A2F
331
685
  5
64E
331
998
  5
72B
331
638
  5
5BE
331
A08
  5
A0A
331
660
  5
629
331
A1B
  5
A1D
331
673
  5
63C
331
6C3
  5
68C
331
6D6
  5
69F
331
9F6
  5
9F8
331
69E
  5
667
331
64E
  5
5D4
331
6B1
  5
67A
331
9A9
  5
9DE
331
679
  5
642
331
9E4
  5
9E6
331
68C
  5
655
331
A34
  5
A36
331
6DC
  5
6A5
331
99F
  5
734
331
A0F
  5
A11
331
63F
  5
5C5
331
667
  5
630
331
A22
  5
A24
331
6CA
  5
693
331
9EA
  5
9EC
331
62D
  5
410
331
9FD
  5
9FF
331
A6D
  5
6B5
331
655
  5
5DC
331
6A5
  5
66E
331
680
  5
649
331
A28
  5
A2A
331
693
  5
65C
331
633
  5
57C
331
A16
  5
A18
331
646
  5
5CC
331
6BE
  5
687
331
66E
  5
637
331
6D1
  5
69A
331
5B9
  5
6AD
331
9F1
  5
9F3
331
649
  5
5CF
331
699
  5
662
331
A04
  5
A06
331
65C
  5
5E3
331
6AC
  5
675
331
9A4
  5
739
331
9DF
  5
9E1
331
A2F
  5
A31
331
687
  5
650
331
99A
  5
72D
331
63A
  5
5C0
331
A0A
  5
A0C
331
662
  5
62B
331
A1D
  5
A1F
331
675
  5
63E
331
6C5
  5
68E
331
9F8
  5
9FA
331
628
  5
3B4
331
6A0
  5
669
331
650
  5
5D6
331
6B3
  5
67C
331
67B
  5
644
331
9E6
  5
9E8
331
68E
  5
657
331
A36
  5
A38
331
6DE
  5
6A7
331
641
  5
5C7
331
A11
  5
A13
331
669
  5
632
331
6B9
  5
682
331
A24
  5
A26
331
6CC
  5
695
331
9EC
  5
9EE
331
62F
  5
419
331
9FF
  5
A01
331
657
  5
5DE
331
6A7
  5
670
331
682
  5
64B
331
A2A
  5
A2C
331
695
  5
65E
331
635
  5
5BB
331
A18
  5
A1A
331
6C0
  5
689
331
670
  5
639
331
6D3
  5
69C
331
9F3
  5
9F5
331
64B
  5
5D1
331
69B
  5
664
331
A06
  5
A08
331
65E
  5
5E5
331
6AE
  5
677
331
3EE
  5
6B0
331
9A6
  5
73B
331
9E1
  5
9E3
331
A31
  5
A33
331
689
  5
652
331
6D9
  5
6A2
331
99C
  5
731
331
63C
  5
5C2
331
A0C
  5
A0E
331
664
  5
62D
331
A1F
  5
A21
331
677
  5
640
331
6C7
  5
690
331
49F
  5
72A
331
9FA
  5
9FC
331
62A
  5
3DC
331
6A2
  5
66B
331
652
  5
5D8
331
6B5
  5
67E
331
3F5
  5
6B1
331
67D
  5
646
331
A38
  5
A6D
331
690
  5
659
331
6E0
  5
6A9
331
630
  5
49F
331
643
  5
5C9
331
A13
  5
A15
331
66B
  5
634
331
6BB
  5
684
331
A26
  5
A28
331
6CE
  5
697
331
5B6
  5
6B3
331
9EE
  5
9F0
331
A01
  5
A03
331
659
  5
5E0
331
6A9
  5
672
331
9A1
  5
736
331
684
  5
64D
331
A2C
  5
A2E
331
697
  5
660
331
637
  5
5BD
331
A1A
  5
A1C
331
6C2
  5
68B
331
672
  5
63B
331
6D5
  5
69E
331
9F5
  5
9F7
331
64D
  5
5D3
331
69D
  5
666
331
6B0
  5
679
331
9A8
  5
9DD
331
678
  5
641
331
9E3
  5
9E5
331
68B
  5
654
331
A33
  5
A35
331
6DB
  5
6A4
331
3B6
  5
6AB
331
99E
  5
733
331
63E
  5
5C4
331
A0E
  5
A10
331
666
  5
62F
331
A21
  5
A23
331
6C9
  5
692
331
9E9
  5
9EB
331
9FC
  5
9FE
331
62C
  5
3EE
331
6A4
  5
66D
331
A6C
  5
6B4
331
654
  5
5DB
331
3DC
  5
6AF
331
6B7
  5
680
331
67F
  5
648
331
692
  5
65B
331
632
  5
4AD
331
645
  5
5CB
331
A15
  5
A17
331
66D
  5
636
331
6BD
  5
686
  0
LAYOUT
  5
11B
102
{ACAD_XDICTIONARY
360
A72
102
}
102
{ACAD_REACTORS
330
117
102
}
330
117
100
AcDbPlotSettings
  1

  2
HP DeskJet 840C/841C/842C/843C
  4

  6

 40
0.0
 41
0.0
 42
0.0
 43
0.0
 44
0.0
 45
0.0
 46
0.0
 47
0.0
 48
0.0
 49
0.0
140
0.0
141
0.0
142
1.0
143
1.0
 70
   688
 72
     0
 73
     0
 74
     5
  7

 75
    16
147
1.0
148
0.0
149
0.0
100
AcDbLayout
  1
Layout1
 70
     0
 71
     1
 10
0.0
 20
0.0
 11
12.0
 21
9.0
 12
0.0
 22
0.0
 32
0.0
 14
-1.000000000000000E+20
 24
-1.000000000000000E+20
 34
-1.000000000000000E+20
 15
-1.000000000000000E+20
 25
-1.000000000000000E+20
 35
-1.000000000000000E+20
146
0.0
 13
0.0
 23
0.0
 33
0.0
 16
1.0
 26
0.0
 36
0.0
 17
0.0
 27
1.0
 37
0.0
 76
     0
330
118
  0
LAYOUT
  5
11F
102
{ACAD_XDICTIONARY
360
A74
102
}
102
{ACAD_REACTORS
330
117
102
}
330
117
100
AcDbPlotSettings
  1

  2
HP DeskJet 840C/841C/842C/843C
  4

  6

 40
0.0
 41
0.0
 42
0.0
 43
0.0
 44
0.0
 45
0.0
 46
0.0
 47
0.0
 48
0.0
 49
0.0
140
0.0
141
0.0
142
1.0
143
1.0
 70
  1712
 72
     0
 73
     0
 74
     0
  7

 75
     0
147
1.0
148
0.0
149
0.0
100
AcDbLayout
  1
Model
 70
     1
 71
     0
 10
0.0
 20
0.0
 11
12.0
 21
9.0
 12
0.0
 22
0.0
 32
0.0
 14
0.0
 24
0.0
 34
0.0
 15
0.0
 25
0.0
 35
0.0
146
0.0
 13
0.0
 23
0.0
 33
0.0
 16
1.0
 26
0.0
 36
0.0
 17
0.0
 27
1.0
 37
0.0
 76
     0
330
11C
331
504
  0
MATERIAL
  5
510
102
{ACAD_XDICTIONARY
360
511
102
}
102
{ACAD_REACTORS
330
507
102
}
330
507
100
AcDbMaterial
  1
ByBlock
 72
     0
 43
0.0208333333333333
 43
0.0
 43
0.0
 43
0.0
 43
0.0
 43
0.0208333333333333
 43
0.0
 43
0.0
 43
0.0
 43
0.0
 43
1.0
 43
0.0
 43
0.0
 43
0.0
 43
0.0
 43
1.0
 77
     0
 47
0.0208333333333333
 47
0.0
 47
0.0
 47
0.0
 47
0.0
 47
0.0208333333333333
 47
0.0
 47
0.0
 47
0.0
 47
0.0
 47
1.0
 47
0.0
 47
0.0
 47
0.0
 47
0.0
 47
1.0
171
     0
 49
0.0208333333333333
 49
0.0
 49
0.0
 49
0.0
 49
0.0
 49
0.0208333333333333
 49
0.0
 49
0.0
 49
0.0
 49
0.0
 49
1.0
 49
0.0
 49
0.0
 49
0.0
 49
0.0
 49
1.0
175
     0
142
0.0208333333333333
142
0.0
142
0.0
142
0.0
142
0.0
142
0.0208333333333333
142
0.0
142
0.0
142
0.0
142
0.0
142
1.0
142
0.0
142
0.0
142
0.0
142
0.0
142
1.0
179
     0
144
0.0208333333333333
144
0.0
144
0.0
144
0.0
144
0.0
144
0.0208333333333333
144
0.0
144
0.0
144
0.0
144
0.0
144
1.0
144
0.0
144
0.0
144
0.0
144
0.0
144
1.0
147
0.0208333333333333
147
0.0
147
0.0
147
0.0
147
0.0
147
0.0208333333333333
147
0.0
147
0.0
147
0.0
147
0.0
147
1.0
147
0.0
147
0.0
147
0.0
147
0.0
147
1.0
  0
MATERIAL
  5
508
102
{ACAD_XDICTIONARY
360
509
102
}
102
{ACAD_REACTORS
330
507
102
}
330
507
100
AcDbMaterial
  1
ByLayer
 72
     0
 43
0.0208333333333333
 43
0.0
 43
0.0
 43
0.0
 43
0.0
 43
0.0208333333333333
 43
0.0
 43
0.0
 43
0.0
 43
0.0
 43
1.0
 43
0.0
 43
0.0
 43
0.0
 43
0.0
 43
1.0
 77
     0
 47
0.0208333333333333
 47
0.0
 47
0.0
 47
0.0
 47
0.0
 47
0.0208333333333333
 47
0.0
 47
0.0
 47
0.0
 47
0.0
 47
1.0
 47
0.0
 47
0.0
 47
0.0
 47
0.0
 47
1.0
171
     0
 49
0.0208333333333333
 49
0.0
 49
0.0
 49
0.0
 49
0.0
 49
0.0208333333333333
 49
0.0
 49
0.0
 49
0.0
 49
0.0
 49
1.0
 49
0.0
 49
0.0
 49
0.0
 49
0.0
 49
1.0
175
     0
142
0.0208333333333333
142
0.0
142
0.0
142
0.0
142
0.0
142
0.0208333333333333
142
0.0
142
0.0
142
0.0
142
0.0
142
1.0
142
0.0
142
0.0
142
0.0
142
0.0
142
1.0
179
     0
144
0.0208333333333333
144
0.0
144
0.0
144
0.0
144
0.0
144
0.0208333333333333
144
0.0
144
0.0
144
0.0
144
0.0
144
1.0
144
0.0
144
0.0
144
0.0
144
0.0
144
1.0
147
0.0208333333333333
147
0.0
147
0.0
147
0.0
147
0.0
147
0.0208333333333333
147
0.0
147
0.0
147
0.0
147
0.0
147
1.0
147
0.0
147
0.0
147
0.0
147
0.0
147
1.0
  0
MATERIAL
  5
518
102
{ACAD_XDICTIONARY
360
519
102
}
102
{ACAD_REACTORS
330
507
102
}
330
507
100
AcDbMaterial
  1
Global
 72
     0
 43
0.0208333333333333
 43
0.0
 43
0.0
 43
0.0
 43
0.0
 43
0.0208333333333333
 43
0.0
 43
0.0
 43
0.0
 43
0.0
 43
1.0
 43
0.0
 43
0.0
 43
0.0
 43
0.0
 43
1.0
 77
     0
 47
0.0208333333333333
 47
0.0
 47
0.0
 47
0.0
 47
0.0
 47
0.0208333333333333
 47
0.0
 47
0.0
 47
0.0
 47
0.0
 47
1.0
 47
0.0
 47
0.0
 47
0.0
 47
0.0
 47
1.0
171
     0
 49
0.0208333333333333
 49
0.0
 49
0.0
 49
0.0
 49
0.0
 49
0.0208333333333333
 49
0.0
 49
0.0
 49
0.0
 49
0.0
 49
1.0
 49
0.0
 49
0.0
 49
0.0
 49
0.0
 49
1.0
175
     0
142
0.0208333333333333
142
0.0
142
0.0
142
0.0
142
0.0
142
0.0208333333333333
142
0.0
142
0.0
142
0.0
142
0.0
142
1.0
142
0.0
142
0.0
142
0.0
142
0.0
142
1.0
179
     0
144
0.0208333333333333
144
0.0
144
0.0
144
0.0
144
0.0
144
0.0208333333333333
144
0.0
144
0.0
144
0.0
144
0.0
144
1.0
144
0.0
144
0.0
144
0.0
144
0.0
144
1.0
147
0.0208333333333333
147
0.0
147
0.0
147
0.0
147
0.0
147
0.0208333333333333
147
0.0
147
0.0
147
0.0
147
0.0
147
1.0
147
0.0
147
0.0
147
0.0
147
0.0
147
1.0
  0
MLEADERSTYLE
  5
55A
102
{ACAD_REACTORS
330
559
102
}
330
559
100
AcDbMLeaderStyle
170
     2
171
     1
172
     0
 90
        2
 40
0.0
 41
0.0
173
     1
 91
-1056964608
340
111
 92
       -2
290
     1
 42
0.09
291
     1
 43
0.36
  3
Standard
 44
0.18
300

342
10F
174
     1
178
     6
175
     1
176
     0
 93
-1056964608
 45
0.18
292
     0
297
     0
 46
0.18
 94
-1056964608
 47
1.0
 49
1.0
140
1.0
293
     1
141
0.0
294
     1
177
     0
142
1.0
295
     0
296
     0
143
0.125
1001
ACAD_MLEADERVER
1070
     2
  0
MLINESTYLE
  5
115
102
{ACAD_REACTORS
330
114
102
}
330
114
100
AcDbMlineStyle
  2
STANDARD
 70
     0
  3

 62
   256
 51
90.0
 52
90.0
 71
     2
 49
0.5
 62
   256
  6
BYLAYER
 49
-0.5
 62
   256
  6
BYLAYER
  0
ACDBPLACEHOLDER
  5
10D
102
{ACAD_REACTORS
330
10C
102
}
330
10C
  0
SCALE
  5
538
102
{ACAD_REACTORS
330
537
102
}
330
537
100
AcDbScale
 70
     0
300
1:1
140
1.0
141
1.0
290
     1
  0
SCALE
  5
539
102
{ACAD_REACTORS
330
537
102
}
330
537
100
AcDbScale
 70
     0
300
1:2
140
1.0
141
2.0
290
     0
  0
SCALE
  5
53A
102
{ACAD_REACTORS
330
537
102
}
330
537
100
AcDbScale
 70
     0
300
1:4
140
1.0
141
4.0
290
     0
  0
SCALE
  5
53B
102
{ACAD_REACTORS
330
537
102
}
330
537
100
AcDbScale
 70
     0
300
1:5
140
1.0
141
5.0
290
     0
  0
SCALE
  5
53C
102
{ACAD_REACTORS
330
537
102
}
330
537
100
AcDbScale
 70
     0
300
1:8
140
1.0
141
8.0
290
     0
  0
SCALE
  5
53D
102
{ACAD_REACTORS
330
537
102
}
330
537
100
AcDbScale
 70
     0
300
1:10
140
1.0
141
10.0
290
     0
  0
SCALE
  5
53E
102
{ACAD_REACTORS
330
537
102
}
330
537
100
AcDbScale
 70
     0
300
1:16
140
1.0
141
16.0
290
     0
  0
SCALE
  5
53F
102
{ACAD_REACTORS
330
537
102
}
330
537
100
AcDbScale
 70
     0
300
1:20
140
1.0
141
20.0
290
     0
  0
SCALE
  5
540
102
{ACAD_REACTORS
330
537
102
}
330
537
100
AcDbScale
 70
     0
300
1:30
140
1.0
141
30.0
290
     0
  0
SCALE
  5
541
102
{ACAD_REACTORS
330
537
102
}
330
537
100
AcDbScale
 70
     0
300
1:40
140
1.0
141
40.0
290
     0
  0
SCALE
  5
542
102
{ACAD_REACTORS
330
537
102
}
330
537
100
AcDbScale
 70
     0
300
1:50
140
1.0
141
50.0
290
     0
  0
SCALE
  5
543
102
{ACAD_REACTORS
330
537
102
}
330
537
100
AcDbScale
 70
     0
300
1:100
140
1.0
141
100.0
290
     0
  0
SCALE
  5
544
102
{ACAD_REACTORS
330
537
102
}
330
537
100
AcDbScale
 70
     0
300
2:1
140
2.0
141
1.0
290
     0
  0
SCALE
  5
545
102
{ACAD_REACTORS
330
537
102
}
330
537
100
AcDbScale
 70
     0
300
4:1
140
4.0
141
1.0
290
     0
  0
SCALE
  5
546
102
{ACAD_REACTORS
330
537
102
}
330
537
100
AcDbScale
 70
     0
300
8:1
140
8.0
141
1.0
290
     0
  0
SCALE
  5
547
102
{ACAD_REACTORS
330
537
102
}
330
537
100
AcDbScale
 70
     0
300
10:1
140
10.0
141
1.0
290
     0
  0
SCALE
  5
548
102
{ACAD_REACTORS
330
537
102
}
330
537
100
AcDbScale
 70
     0
300
100:1
140
100.0
141
1.0
290
     0
  0
SCALE
  5
549
102
{ACAD_REACTORS
330
537
102
}
330
537
100
AcDbScale
 70
     0
300
1/128" = 1'-0"
140
0.0078125
141
12.0
290
     0
  0
SCALE
  5
54A
102
{ACAD_REACTORS
330
537
102
}
330
537
100
AcDbScale
 70
     0
300
1/64" = 1'-0"
140
0.015625
141
12.0
290
     0
  0
SCALE
  5
54B
102
{ACAD_REACTORS
330
537
102
}
330
537
100
AcDbScale
 70
     0
300
1/32" = 1'-0"
140
0.03125
141
12.0
290
     0
  0
SCALE
  5
54C
102
{ACAD_REACTORS
330
537
102
}
330
537
100
AcDbScale
 70
     0
300
1/16" = 1'-0"
140
0.0625
141
12.0
290
     0
  0
SCALE
  5
54D
102
{ACAD_REACTORS
330
537
102
}
330
537
100
AcDbScale
 70
     0
300
3/32" = 1'-0"
140
0.09375
141
12.0
290
     0
  0
SCALE
  5
54E
102
{ACAD_REACTORS
330
537
102
}
330
537
100
AcDbScale
 70
     0
300
1/8" = 1'-0"
140
0.125
141
12.0
290
     0
  0
SCALE
  5
54F
102
{ACAD_REACTORS
330
537
102
}
330
537
100
AcDbScale
 70
     0
300
3/16" = 1'-0"
140
0.1875
141
12.0
290
     0
  0
SCALE
  5
550
102
{ACAD_REACTORS
330
537
102
}
330
537
100
AcDbScale
 70
     0
300
1/4" = 1'-0"
140
0.25
141
12.0
290
     0
  0
SCALE
  5
551
102
{ACAD_REACTORS
330
537
102
}
330
537
100
AcDbScale
 70
     0
300
3/8" = 1'-0"
140
0.375
141
12.0
290
     0
  0
SCALE
  5
552
102
{ACAD_REACTORS
330
537
102
}
330
537
100
AcDbScale
 70
     0
300
1/2" = 1'-0"
140
0.5
141
12.0
290
     0
  0
SCALE
  5
553
102
{ACAD_REACTORS
330
537
102
}
330
537
100
AcDbScale
 70
     0
300
3/4" = 1'-0"
140
0.75
141
12.0
290
     0
  0
SCALE
  5
554
102
{ACAD_REACTORS
330
537
102
}
330
537
100
AcDbScale
 70
     0
300
1" = 1'-0"
140
1.0
141
12.0
290
     0
  0
SCALE
  5
555
102
{ACAD_REACTORS
330
537
102
}
330
537
100
AcDbScale
 70
     0
300
1-1/2" = 1'-0"
140
1.5
141
12.0
290
     0
  0
SCALE
  5
556
102
{ACAD_REACTORS
330
537
102
}
330
537
100
AcDbScale
 70
     0
300
3" = 1'-0"
140
3.0
141
12.0
290
     0
  0
SCALE
  5
557
102
{ACAD_REACTORS
330
537
102
}
330
537
100
AcDbScale
 70
     0
300
6" = 1'-0"
140
6.0
141
12.0
290
     0
  0
SCALE
  5
558
102
{ACAD_REACTORS
330
537
102
}
330
537
100
AcDbScale
 70
     0
300
1'-0" = 1'-0"
140
12.0
141
12.0
290
     0
  0
TABLESTYLE
  5
536
102
{ACAD_XDICTIONARY
360
A6E
102
}
102
{ACAD_REACTORS
330
535
102
}
330
535
100
AcDbTableStyle
  3
Standard
 70
     0
 71
     0
 40
0.06
 41
0.06
280
     0
281
     0
  7
STANDARD
140
0.18
170
     2
 62
     0
 63
     7
283
     0
274
    -2
284
     1
 64
     0
275
    -2
285
     1
 65
     0
276
    -2
286
     1
 66
     0
277
    -2
287
     1
 67
     0
278
    -2
288
     1
 68
     0
279
    -2
289
     1
 69
     0
  7
STANDARD
140
0.25
170
     5
 62
     0
 63
     7
283
     0
274
    -2
284
     1
 64
     0
275
    -2
285
     1
 65
     0
276
    -2
286
     1
 66
     0
277
    -2
287
     1
 67
     0
278
    -2
288
     1
 68
     0
279
    -2
289
     1
 69
     0
  7
STANDARD
140
0.18
170
     5
 62
     0
 63
     7
283
     0
274
    -2
284
     1
 64
     0
275
    -2
285
     1
 65
     0
276
    -2
286
     1
 66
     0
277
    -2
287
     1
 67
     0
278
    -2
288
     1
 68
     0
279
    -2
289
     1
 69
     0
  0
VISUALSTYLE
  5
526
102
{ACAD_XDICTIONARY
360
A83
102
}
102
{ACAD_REACTORS
330
520
102
}
330
520
100
AcDbVisualStyle
  2
2dWireframe
 70
     4
 71
     0
 72
     2
 73
     0
 90
        0
 40
-0.6
 41
-30.0
 62
     5
 63
     7
 74
     1
 91
        4
 64
     7
 65
   257
 75
     1
175
     1
 42
1.0
 92
        0
 66
   257
 43
1.0
 76
     1
 77
     6
 78
     2
 67
     7
 79
     5
170
     0
171
     0
290
     0
174
     0
 93
        1
 44
0.0
173
     0
291
     0
 45
0.0
1001
ACAD
1000
AcDbSavedByObjectVersion
1070
     0
  0
VISUALSTYLE
  5
528
102
{ACAD_XDICTIONARY
360
A87
102
}
102
{ACAD_REACTORS
330
520
102
}
330
520
100
AcDbVisualStyle
  2
3D Hidden
 70
     6
 71
     1
 72
     2
 73
     2
 90
        0
 40
-0.6
 41
-30.0
 62
     5
 63
     7
 74
     2
 91
        2
 64
     7
 65
   257
 75
     2
175
     1
 42
179.0
 92
        0
 66
   257
 43
1.0
 76
     1
 77
     6
 78
     2
 67
     7
 79
     3
170
     0
171
     0
290
     0
174
     0
 93
        1
 44
0.0
173
     0
291
     0
 45
0.0
1001
ACAD
1000
AcDbSavedByObjectVersion
1070
     0
  0
VISUALSTYLE
  5
527
102
{ACAD_XDICTIONARY
360
A85
102
}
102
{ACAD_REACTORS
330
520
102
}
330
520
100
AcDbVisualStyle
  2
3dWireframe
 70
     5
 71
     0
 72
     2
 73
     0
 90
        0
 40
-0.6
 41
-30.0
 62
     5
 63
     7
 74
     1
 91
        4
 64
     7
 65
   257
 75
     1
175
     1
 42
1.0
 92
        0
 66
   257
 43
1.0
 76
     1
 77
     6
 78
     2
 67
     7
 79
     5
170
     0
171
     0
290
     0
174
     0
 93
        1
 44
0.0
173
     0
291
     0
 45
0.0
1001
ACAD
1000
AcDbSavedByObjectVersion
1070
     0
  0
VISUALSTYLE
  5
525
102
{ACAD_XDICTIONARY
360
A81
102
}
102
{ACAD_REACTORS
330
520
102
}
330
520
100
AcDbVisualStyle
  2
Basic
 70
     7
 71
     1
 72
     0
 73
     1
 90
        0
 40
-0.6
 41
-30.0
 62
     5
 63
     7
 74
     0
 91
        4
 64
     7
 65
   257
 75
     1
175
     1
 42
1.0
 92
        8
 66
     7
 43
1.0
 76
     1
 77
     6
 78
     2
 67
     7
 79
     5
170
     0
171
     0
290
     0
174
     0
 93
        1
 44
0.0
173
     0
291
     1
 45
0.0
1001
ACAD
1000
AcDbSavedByObjectVersion
1070
     0
  0
VISUALSTYLE
  5
52C
102
{ACAD_XDICTIONARY
360
A8F
102
}
102
{ACAD_REACTORS
330
520
102
}
330
520
100
AcDbVisualStyle
  2
Brighten
 70
    12
 71
     2
 72
     2
 73
     0
 90
        0
 40
-0.6
 41
-30.0
 62
     5
 63
     7
 74
     1
 91
        4
 64
     7
 65
   257
 75
     1
175
     1
 42
1.0
 92
        8
 66
     7
 43
1.0
 76
     1
 77
     6
 78
     2
 67
     7
 79
     5
170
     0
171
     0
290
     0
174
     0
 93
        1
 44
50.0
173
     0
291
     1
 45
0.0
1001
ACAD
1000
AcDbSavedByObjectVersion
1070
     0
  0
VISUALSTYLE
  5
530
102
{ACAD_XDICTIONARY
360
A97
102
}
102
{ACAD_REACTORS
330
520
102
}
330
520
100
AcDbVisualStyle
  2
ColorChange
 70
    16
 71
     2
 72
     2
 73
     3
 90
        0
 40
-0.6
 41
-30.0
 62
     5
 63
     8
 74
     1
 91
        4
 64
     7
 65
   257
 75
     1
175
     1
 42
1.0
 92
        8
 66
     8
 43
1.0
 76
     1
 77
     6
 78
     2
 67
     7
 79
     5
170
     0
171
     0
290
     0
174
     0
 93
        1
 44
0.0
173
     0
291
     1
 45
0.0
1001
ACAD
1000
AcDbSavedByObjectVersion
1070
     0
  0
VISUALSTYLE
  5
529
102
{ACAD_XDICTIONARY
360
A89
102
}
102
{ACAD_REACTORS
330
520
102
}
330
520
100
AcDbVisualStyle
  2
Conceptual
 70
     9
 71
     3
 72
     2
 73
     0
 90
        0
 40
-0.6
 41
-30.0
 62
     5
 63
     7
 74
     2
 91
        2
 64
     7
 65
   257
 75
     1
175
     1
 42
179.0
 92
        8
 66
     7
 43
1.0
 76
     1
 77
     6
 78
     2
 67
     7
 79
     3
170
     0
171
     0
290
     0
174
     0
 93
        1
 44
0.0
173
     0
291
     0
 45
0.0
1001
ACAD
1000
AcDbSavedByObjectVersion
1070
     0
  0
VISUALSTYLE
  5
52B
102
{ACAD_XDICTIONARY
360
A8D
102
}
102
{ACAD_REACTORS
330
520
102
}
330
520
100
AcDbVisualStyle
  2
Dim
 70
    11
 71
     2
 72
     2
 73
     0
 90
        0
 40
-0.6
 41
-30.0
 62
     5
 63
     7
 74
     1
 91
        4
 64
     7
 65
   257
 75
     1
175
     1
 42
1.0
 92
        8
 66
     7
 43
1.0
 76
     1
 77
     6
 78
     2
 67
     7
 79
     5
170
     0
171
     0
290
     0
174
     0
 93
        1
 44
-50.0
173
     0
291
     1
 45
0.0
1001
ACAD
1000
AcDbSavedByObjectVersion
1070
     0
  0
VISUALSTYLE
  5
533
102
{ACAD_XDICTIONARY
360
A9D
102
}
102
{ACAD_REACTORS
330
520
102
}
330
520
100
AcDbVisualStyle
  2
EdgeColorOff
 70
    22
 71
     2
 72
     2
 73
     0
 90
        0
 40
-0.6
 41
-30.0
 62
     5
 63
     7
 74
     1
 91
        4
 64
     7
 65
   257
 75
     1
175
     1
 42
1.0
 92
        8
 66
     7
 43
1.0
 76
     1
 77
     6
 78
     2
 67
     7
 79
     5
170
     0
171
     0
290
     0
174
     0
 93
        1
 44
0.0
173
     0
291
     1
 45
0.0
1001
ACAD
1000
AcDbSavedByObjectVersion
1070
     0
  0
VISUALSTYLE
  5
52F
102
{ACAD_XDICTIONARY
360
A95
102
}
102
{ACAD_REACTORS
330
520
102
}
330
520
100
AcDbVisualStyle
  2
Facepattern
 70
    15
 71
     2
 72
     2
 73
     0
 90
        0
 40
-0.6
 41
-30.0
 62
     5
 63
     7
 74
     1
 91
        4
 64
     7
 65
   257
 75
     1
175
     1
 42
1.0
 92
        8
 66
     7
 43
1.0
 76
     1
 77
     6
 78
     2
 67
     7
 79
     5
170
     0
171
     0
290
     0
174
     0
 93
        1
 44
0.0
173
     0
291
     1
 45
0.0
1001
ACAD
1000
AcDbSavedByObjectVersion
1070
     0
  0
VISUALSTYLE
  5
521
102
{ACAD_XDICTIONARY
360
A79
102
}
102
{ACAD_REACTORS
330
520
102
}
330
520
100
AcDbVisualStyle
  2
Flat
 70
     0
 71
     2
 72
     1
 73
     1
 90
        2
 40
-0.6
 41
30.0
 62
     5
 63
     7
 74
     0
 91
        4
 64
     7
 65
   257
 75
     1
175
     1
 42
1.0
 92
        8
 66
     7
 43
1.0
 76
     1
 77
     6
 78
     2
 67
     7
 79
     5
170
     0
171
     0
290
     0
174
     0
 93
       13
 44
0.0
173
     0
291
     1
 45
0.0
1001
ACAD
1000
AcDbSavedByObjectVersion
1070
     0
  0
VISUALSTYLE
  5
522
102
{ACAD_XDICTIONARY
360
A7B
102
}
102
{ACAD_REACTORS
330
520
102
}
330
520
100
AcDbVisualStyle
  2
FlatWithEdges
 70
     1
 71
     2
 72
     1
 73
     1
 90
        2
 40
-0.6
 41
30.0
 62
     5
 63
     7
 74
     1
 91
        4
 64
     7
 65
   257
 75
     1
175
     1
 42
1.0
 92
        0
 66
   257
 43
1.0
 76
     1
 77
     6
 78
     2
 67
     7
 79
     5
170
     0
171
     0
290
     0
174
     0
 93
       13
 44
0.0
173
     0
291
     1
 45
0.0
1001
ACAD
1000
AcDbSavedByObjectVersion
1070
     0
  0
VISUALSTYLE
  5
523
102
{ACAD_XDICTIONARY
360
A7D
102
}
102
{ACAD_REACTORS
330
520
102
}
330
520
100
AcDbVisualStyle
  2
Gouraud
 70
     2
 71
     2
 72
     2
 73
     1
 90
        2
 40
-0.6
 41
30.0
 62
     5
 63
     7
 74
     0
 91
        4
 64
     7
 65
   257
 75
     1
175
     1
 42
1.0
 92
        0
 66
     7
 43
1.0
 76
     1
 77
     6
 78
     2
 67
     7
 79
     5
170
     0
171
     0
290
     0
174
     0
 93
       13
 44
0.0
173
     0
291
     1
 45
0.0
1001
ACAD
1000
AcDbSavedByObjectVersion
1070
     0
  0
VISUALSTYLE
  5
524
102
{ACAD_XDICTIONARY
360
A7F
102
}
102
{ACAD_REACTORS
330
520
102
}
330
520
100
AcDbVisualStyle
  2
GouraudWithEdges
 70
     3
 71
     2
 72
     2
 73
     1
 90
        2
 40
-0.6
 41
30.0
 62
     5
 63
     7
 74
     1
 91
        4
 64
     7
 65
   257
 75
     1
175
     1
 42
1.0
 92
        0
 66
   257
 43
1.0
 76
     1
 77
     6
 78
     2
 67
     7
 79
     5
170
     0
171
     0
290
     0
174
     0
 93
       13
 44
0.0
173
     0
291
     1
 45
0.0
1001
ACAD
1000
AcDbSavedByObjectVersion
1070
     0
  0
VISUALSTYLE
  5
531
102
{ACAD_XDICTIONARY
360
A99
102
}
102
{ACAD_REACTORS
330
520
102
}
330
520
100
AcDbVisualStyle
  2
JitterOff
 70
    20
 71
     2
 72
     2
 73
     0
 90
        0
 40
-0.6
 41
-30.0
 62
     5
 63
     7
 74
     1
 91
        4
 64
     7
 65
   257
 75
     1
175
     1
 42
1.0
 92
       10
 66
     7
 43
1.0
 76
     1
 77
     6
 78
     2
 67
     7
 79
     5
170
     0
171
     0
290
     0
174
     0
 93
        1
 44
0.0
173
     0
291
     1
 45
0.0
1001
ACAD
1000
AcDbSavedByObjectVersion
1070
     0
  0
VISUALSTYLE
  5
52E
102
{ACAD_XDICTIONARY
360
A93
102
}
102
{ACAD_REACTORS
330
520
102
}
330
520
100
AcDbVisualStyle
  2
Linepattern
 70
    14
 71
     2
 72
     2
 73
     0
 90
        0
 40
-0.6
 41
-30.0
 62
     5
 63
     7
 74
     1
 91
        4
 64
     7
 65
   257
 75
     7
175
     7
 42
1.0
 92
        8
 66
     7
 43
1.0
 76
     1
 77
     6
 78
     2
 67
     7
 79
     5
170
     0
171
     0
290
     0
174
     0
 93
        1
 44
0.0
173
     0
291
     1
 45
0.0
1001
ACAD
1000
AcDbSavedByObjectVersion
1070
     0
  0
VISUALSTYLE
  5
532
102
{ACAD_XDICTIONARY
360
A9B
102
}
102
{ACAD_REACTORS
330
520
102
}
330
520
100
AcDbVisualStyle
  2
OverhangOff
 70
    21
 71
     2
 72
     2
 73
     0
 90
        0
 40
-0.6
 41
-30.0
 62
     5
 63
     7
 74
     1
 91
        4
 64
     7
 65
   257
 75
     1
175
     1
 42
1.0
 92
        9
 66
     7
 43
1.0
 76
     1
 77
     6
 78
     2
 67
     7
 79
     5
170
     0
171
     0
290
     0
174
     0
 93
        1
 44
0.0
173
     0
291
     1
 45
0.0
1001
ACAD
1000
AcDbSavedByObjectVersion
1070
     0
  0
VISUALSTYLE
  5
52A
102
{ACAD_XDICTIONARY
360
A8B
102
}
102
{ACAD_REACTORS
330
520
102
}
330
520
100
AcDbVisualStyle
  2
Realistic
 70
     8
 71
     2
 72
     2
 73
     0
 90
        0
 40
-0.6
 41
-30.0
 62
     5
 63
     7
 74
     1
 91
        0
 64
     7
 65
   257
 75
     1
175
     1
 42
1.0
 92
        8
 66
     8
 43
1.0
 76
     1
 77
     6
 78
     2
 67
     7
 79
     5
170
     0
171
     0
290
     0
174
     0
 93
       13
 44
0.0
173
     0
291
     0
 45
0.0
1001
ACAD
1000
AcDbSavedByObjectVersion
1070
     0
  0
VISUALSTYLE
  5
52D
102
{ACAD_XDICTIONARY
360
A91
102
}
102
{ACAD_REACTORS
330
520
102
}
330
520
100
AcDbVisualStyle
  2
Thicken
 70
    13
 71
     2
 72
     2
 73
     0
 90
        0
 40
-0.6
 41
-30.0
 62
     5
 63
     7
 74
     1
 91
        4
 64
     7
 65
   257
 75
     1
175
     1
 42
1.0
 92
       12
 66
     7
 43
1.0
 76
     1
 77
     6
 78
     2
 67
     7
 79
     5
170
     0
171
     0
290
     0
174
     0
 93
        1
 44
0.0
173
     0
291
     1
 45
0.0
1001
ACAD
1000
AcDbSavedByObjectVersion
1070
     0
  0
DICTIONARYVAR
  5
5F1
102
{ACAD_REACTORS
330
421
102
}
330
421
100
DictionaryVariables
280
     0
  1
1:1
  0
DICTIONARYVAR
  5
5F0
102
{ACAD_REACTORS
330
421
102
}
330
421
100
DictionaryVariables
280
     0
  1
STANDARD
  0
DICTIONARYVAR
  5
5EF
102
{ACAD_REACTORS
330
421
102
}
330
421
100
DictionaryVariables
280
     0
  1
STANDARD
  0
DICTIONARYVAR
  5
5F3
102
{ACAD_REACTORS
330
421
102
}
330
421
100
DictionaryVariables
280
     0
  1
1
  0
DICTIONARYVAR
  5
5F2
102
{ACAD_REACTORS
330
421
102
}
330
421
100
DictionaryVariables
280
     0
  1
0
  0
DICTIONARYVAR
  5
422
102
{ACAD_REACTORS
330
421
102
}
330
421
100
DictionaryVariables
280
     0
  1
96
  0
DICTIONARYVAR
  5
5F4
102
{ACAD_REACTORS
330
421
102
}
330
421
100
DictionaryVariables
280
     0
  1
2
  0
DICTIONARY
  5
A72
330
11B
100
AcDbDictionary
280
     1
281
     1
  3
ACAD_XREC_ROUNDTRIP
360
A73
  0
DICTIONARY
  5
A74
330
11F
100
AcDbDictionary
280
     1
281
     1
  3
ACAD_XREC_ROUNDTRIP
360
A75
  0
DICTIONARY
  5
511
330
510
100
AcDbDictionary
280
     1
281
     1
  3
ACAD_XREC_ROUNDTRIP
360
A77
  3
BUMPTILE
360
513
  3
DIFFUSETILE
360
512
  3
OPACITYTILE
360
516
  3
REFLECTIONTILE
360
515
  3
REFRACTIONTILE
360
517
  3
SPECULARTILE
360
514
  0
DICTIONARY
  5
509
330
508
100
AcDbDictionary
280
     1
281
     1
  3
ACAD_XREC_ROUNDTRIP
360
A76
  3
BUMPTILE
360
50B
  3
DIFFUSETILE
360
50A
  3
OPACITYTILE
360
50E
  3
REFLECTIONTILE
360
50D
  3
REFRACTIONTILE
360
50F
  3
SPECULARTILE
360
50C
  0
DICTIONARY
  5
519
330
518
100
AcDbDictionary
280
     1
281
     1
  3
ACAD_XREC_ROUNDTRIP
360
A78
  3
BUMPTILE
360
51B
  3
DIFFUSETILE
360
51A
  3
OPACITYTILE
360
51E
  3
REFLECTIONTILE
360
51D
  3
REFRACTIONTILE
360
51F
  3
SPECULARTILE
360
51C
  0
DICTIONARY
  5
A6E
330
536
100
AcDbDictionary
280
     1
281
     1
  3
ACAD_ROUNDTRIP_2008_TABLESTYLE_CELLSTYLEMAP
360
A6F
  3
ACAD_XREC_ROUNDTRIP
360
A9F
  0
DICTIONARY
  5
A83
330
526
100
AcDbDictionary
280
     1
281
     1
  3
ACAD_XREC_ROUNDTRIP
360
A84
  0
DICTIONARY
  5
A87
330
528
100
AcDbDictionary
280
     1
281
     1
  3
ACAD_XREC_ROUNDTRIP
360
A88
  0
DICTIONARY
  5
A85
330
527
100
AcDbDictionary
280
     1
281
     1
  3
ACAD_XREC_ROUNDTRIP
360
A86
  0
DICTIONARY
  5
A81
330
525
100
AcDbDictionary
280
     1
281
     1
  3
ACAD_XREC_ROUNDTRIP
360
A82
  0
DICTIONARY
  5
A8F
330
52C
100
AcDbDictionary
280
     1
281
     1
  3
ACAD_XREC_ROUNDTRIP
360
A90
  0
DICTIONARY
  5
A97
330
530
100
AcDbDictionary
280
     1
281
     1
  3
ACAD_XREC_ROUNDTRIP
360
A98
  0
DICTIONARY
  5
A89
330
529
100
AcDbDictionary
280
     1
281
     1
  3
ACAD_XREC_ROUNDTRIP
360
A8A
  0
DICTIONARY
  5
A8D
330
52B
100
AcDbDictionary
280
     1
281
     1
  3
ACAD_XREC_ROUNDTRIP
360
A8E
  0
DICTIONARY
  5
A9D
330
533
100
AcDbDictionary
280
     1
281
     1
  3
ACAD_XREC_ROUNDTRIP
360
A9E
  0
DICTIONARY
  5
A95
330
52F
100
AcDbDictionary
280
     1
281
     1
  3
ACAD_XREC_ROUNDTRIP
360
A96
  0
DICTIONARY
  5
A79
330
521
100
AcDbDictionary
280
     1
281
     1
  3
ACAD_XREC_ROUNDTRIP
360
A7A
  0
DICTIONARY
  5
A7B
330
522
100
AcDbDictionary
280
     1
281
     1
  3
ACAD_XREC_ROUNDTRIP
360
A7C
  0
DICTIONARY
  5
A7D
330
523
100
AcDbDictionary
280
     1
281
     1
  3
ACAD_XREC_ROUNDTRIP
360
A7E
  0
DICTIONARY
  5
A7F
330
524
100
AcDbDictionary
280
     1
281
     1
  3
ACAD_XREC_ROUNDTRIP
360
A80
  0
DICTIONARY
  5
A99
330
531
100
AcDbDictionary
280
     1
281
     1
  3
ACAD_XREC_ROUNDTRIP
360
A9A
  0
DICTIONARY
  5
A93
330
52E
100
AcDbDictionary
280
     1
281
     1
  3
ACAD_XREC_ROUNDTRIP
360
A94
  0
DICTIONARY
  5
A9B
330
532
100
AcDbDictionary
280
     1
281
     1
  3
ACAD_XREC_ROUNDTRIP
360
A9C
  0
DICTIONARY
  5
A8B
330
52A
100
AcDbDictionary
280
     1
281
     1
  3
ACAD_XREC_ROUNDTRIP
360
A8C
  0
DICTIONARY
  5
A91
330
52D
100
AcDbDictionary
280
     1
281
     1
  3
ACAD_XREC_ROUNDTRIP
360
A92
  0
XRECORD
  5
A73
102
{ACAD_REACTORS
330
A72
102
}
330
A72
100
AcDbXrecord
280
     1
102
SHADEPLOT
 70
     0
102
SHADEPLOTRESLEVEL
 70
     2
102
SHADEPLOTCUSTOMDPI
 70
   300
  0
XRECORD
  5
A75
102
{ACAD_REACTORS
330
A74
102
}
330
A74
100
AcDbXrecord
280
     1
102
SHADEPLOT
 70
     0
102
SHADEPLOTRESLEVEL
 70
     2
102
SHADEPLOTCUSTOMDPI
 70
   300
  0
XRECORD
  5
A77
102
{ACAD_REACTORS
330
511
102
}
330
511
100
AcDbXrecord
280
     1
102
MATERIAL
148
0.0
149
0.0
149
0.0
 93
        0
 94
      127
282
     0
 72
     0
 77
     0
171
     0
175
     0
179
     0
273
     0
  0
XRECORD
  5
513
102
{ACAD_REACTORS
330
511
102
}
330
511
100
AcDbXrecord
280
     1
270
     1
271
     1
  0
XRECORD
  5
512
102
{ACAD_REACTORS
330
511
102
}
330
511
100
AcDbXrecord
280
     1
270
     1
271
     1
  0
XRECORD
  5
516
102
{ACAD_REACTORS
330
511
102
}
330
511
100
AcDbXrecord
280
     1
270
     1
271
     1
  0
XRECORD
  5
515
102
{ACAD_REACTORS
330
511
102
}
330
511
100
AcDbXrecord
280
     1
270
     1
271
     1
  0
XRECORD
  5
517
102
{ACAD_REACTORS
330
511
102
}
330
511
100
AcDbXrecord
280
     1
270
     1
271
     1
  0
XRECORD
  5
514
102
{ACAD_REACTORS
330
511
102
}
330
511
100
AcDbXrecord
280
     1
270
     1
271
     1
  0
XRECORD
  5
A76
102
{ACAD_REACTORS
330
509
102
}
330
509
100
AcDbXrecord
280
     1
102
MATERIAL
148
0.0
149
0.0
149
0.0
 93
        0
 94
      127
282
     0
 72
     0
 77
     0
171
     0
175
     0
179
     0
273
     0
  0
XRECORD
  5
50B
102
{ACAD_REACTORS
330
509
102
}
330
509
100
AcDbXrecord
280
     1
270
     1
271
     1
  0
XRECORD
  5
50A
102
{ACAD_REACTORS
330
509
102
}
330
509
100
AcDbXrecord
280
     1
270
     1
271
     1
  0
XRECORD
  5
50E
102
{ACAD_REACTORS
330
509
102
}
330
509
100
AcDbXrecord
280
     1
270
     1
271
     1
  0
XRECORD
  5
50D
102
{ACAD_REACTORS
330
509
102
}
330
509
100
AcDbXrecord
280
     1
270
     1
271
     1
  0
XRECORD
  5
50F
102
{ACAD_REACTORS
330
509
102
}
330
509
100
AcDbXrecord
280
     1
270
     1
271
     1
  0
XRECORD
  5
50C
102
{ACAD_REACTORS
330
509
102
}
330
509
100
AcDbXrecord
280
     1
270
     1
271
     1
  0
XRECORD
  5
A78
102
{ACAD_REACTORS
330
519
102
}
330
519
100
AcDbXrecord
280
     1
102
MATERIAL
148
0.0
149
0.0
149
0.0
 93
        0
 94
      127
282
     0
 72
     0
 77
     0
171
     0
175
     0
179
     0
273
     0
  0
XRECORD
  5
51B
102
{ACAD_REACTORS
330
519
102
}
330
519
100
AcDbXrecord
280
     1
270
     1
271
     1
  0
XRECORD
  5
51A
102
{ACAD_REACTORS
330
519
102
}
330
519
100
AcDbXrecord
280
     1
270
     1
271
     1
  0
XRECORD
  5
51E
102
{ACAD_REACTORS
330
519
102
}
330
519
100
AcDbXrecord
280
     1
270
     1
271
     1
  0
XRECORD
  5
51D
102
{ACAD_REACTORS
330
519
102
}
330
519
100
AcDbXrecord
280
     1
270
     1
271
     1
  0
XRECORD
  5
51F
102
{ACAD_REACTORS
330
519
102
}
330
519
100
AcDbXrecord
280
     1
270
     1
271
     1
  0
XRECORD
  5
51C
102
{ACAD_REACTORS
330
519
102
}
330
519
100
AcDbXrecord
280
     1
270
     1
271
     1
  0
CELLSTYLEMAP
  5
A6F
102
{ACAD_REACTORS
330
A6E
102
}
330
A6E
100
AcDbCellStyleMap
 90
        3
300
CELLSTYLE
  1
TABLEFORMAT_BEGIN
 90
        5
170
     1
 91
        0
 92
    32768
 62
   257
 93
        1
300
CONTENTFORMAT
  1
CONTENTFORMAT_BEGIN
 90
        0
 91
        0
 92
      512
 93
        0
300

 40
0.0
140
1.0
 94
        5
 62
     0
340
10F
144
0.25
309
CONTENTFORMAT_END
171
     0
 94
        0
309
TABLEFORMAT_END
  1
CELLSTYLE_BEGIN
 90
        1
 91
        1
300
_TITLE
309
CELLSTYLE_END
300
CELLSTYLE
  1
TABLEFORMAT_BEGIN
 90
        5
170
     1
 91
        0
 92
        0
 62
   257
 93
        1
300
CONTENTFORMAT
  1
CONTENTFORMAT_BEGIN
 90
        0
 91
        0
 92
      512
 93
        0
300

 40
0.0
140
1.0
 94
        5
 62
     0
340
10F
144
0.18
309
CONTENTFORMAT_END
171
     0
 94
        0
309
TABLEFORMAT_END
  1
CELLSTYLE_BEGIN
 90
        2
 91
        1
300
_HEADER
309
CELLSTYLE_END
300
CELLSTYLE
  1
TABLEFORMAT_BEGIN
 90
        5
170
     1
 91
        0
 92
        0
 62
   257
 93
        1
300
CONTENTFORMAT
  1
CONTENTFORMAT_BEGIN
 90
        0
 91
        0
 92
      512
 93
        0
300

 40
0.0
140
1.0
 94
        2
 62
     0
340
10F
144
0.18
309
CONTENTFORMAT_END
171
     0
 94
        0
309
TABLEFORMAT_END
  1
CELLSTYLE_BEGIN
 90
        3
 91
        2
300
_DATA
309
CELLSTYLE_END
  0
XRECORD
  5
A9F
102
{ACAD_REACTORS
330
A6E
102
}
330
A6E
100
AcDbXrecord
280
     1
102
ACAD_ROUNDTRIP_PRE2007_TABLESTYLE
 90
      512
 91
        0
  1

 92
      512
 93
        0
  2

 94
      512
 95
        0
  3

  0
XRECORD
  5
A84
102
{ACAD_REACTORS
330
A83
102
}
330
A83
100
AcDbXrecord
280
     1
102
RTVSPropertyOp0
 70
     1
102
RTVSPropertyOp1
 70
     1
102
RTVSPropertyOp2
 70
     1
102
RTVSPropertyOp3
 70
     1
102
RTVSPropertyOp4
 70
     1
102
RTVSPropertyOp5
 70
     1
102
RTVSPropertyOp6
 70
     1
102
RTVSPropertyOp7
 70
     1
102
RTVSPropertyOp8
 70
     1
102
RTVSPropertyOp9
 70
     1
102
RTVSPropertyOp10
 70
     1
102
RTVSPropertyOp11
 70
     1
102
RTVSPropertyOp12
 70
     1
102
RTVSPropertyOp13
 70
     1
102
RTVSPropertyOp14
 70
     1
102
RTVSPropertyOp15
 70
     1
102
RTVSPropertyOp16
 70
     1
102
RTVSPropertyOp17
 70
     1
102
RTVSPropertyOp18
 70
     1
102
RTVSPropertyOp19
 70
     1
102
RTVSPropertyOp20
 70
     1
102
RTVSPropertyOp21
 70
     1
102
RTVSPropertyOp22
 70
     1
102
RTVSPropertyOp23
 70
     1
102
RTVSPropertyOp24
 70
     1
102
RTVSPropertyOp25
 70
     1
102
RTVSPropertyOp26
 70
     1
102
RTVSPropertyOp27
 70
     1
  0
XRECORD
  5
A88
102
{ACAD_REACTORS
330
A87
102
}
330
A87
100
AcDbXrecord
280
     1
102
RTVSPropertyOp0
 70
     1
102
RTVSPropertyOp1
 70
     1
102
RTVSPropertyOp2
 70
     1
102
RTVSPropertyOp3
 70
     1
102
RTVSPropertyOp4
 70
     1
102
RTVSPropertyOp5
 70
     1
102
RTVSPropertyOp6
 70
     1
102
RTVSPropertyOp7
 70
     1
102
RTVSPropertyOp8
 70
     1
102
RTVSPropertyOp9
 70
     1
102
RTVSPropertyOp10
 70
     1
102
RTVSPropertyOp11
 70
     1
102
RTVSPropertyOp12
 70
     1
102
RTVSPropertyOp13
 70
     1
102
RTVSPropertyOp14
 70
     1
102
RTVSPropertyOp15
 70
     1
102
RTVSPropertyOp16
 70
     1
102
RTVSPropertyOp17
 70
     1
102
RTVSPropertyOp18
 70
     1
102
RTVSPropertyOp19
 70
     1
102
RTVSPropertyOp20
 70
     1
102
RTVSPropertyOp21
 70
     1
102
RTVSPropertyOp22
 70
     1
102
RTVSPropertyOp23
 70
     1
102
RTVSPropertyOp24
 70
     1
102
RTVSPropertyOp25
 70
     1
102
RTVSPropertyOp26
 70
     1
102
RTVSPropertyOp27
 70
     1
  0
XRECORD
  5
A86
102
{ACAD_REACTORS
330
A85
102
}
330
A85
100
AcDbXrecord
280
     1
102
RTVSPropertyOp0
 70
     1
102
RTVSPropertyOp1
 70
     1
102
RTVSPropertyOp2
 70
     1
102
RTVSPropertyOp3
 70
     1
102
RTVSPropertyOp4
 70
     1
102
RTVSPropertyOp5
 70
     1
102
RTVSPropertyOp6
 70
     1
102
RTVSPropertyOp7
 70
     1
102
RTVSPropertyOp8
 70
     1
102
RTVSPropertyOp9
 70
     1
102
RTVSPropertyOp10
 70
     1
102
RTVSPropertyOp11
 70
     1
102
RTVSPropertyOp12
 70
     1
102
RTVSPropertyOp13
 70
     1
102
RTVSPropertyOp14
 70
     1
102
RTVSPropertyOp15
 70
     1
102
RTVSPropertyOp16
 70
     1
102
RTVSPropertyOp17
 70
     1
102
RTVSPropertyOp18
 70
     1
102
RTVSPropertyOp19
 70
     1
102
RTVSPropertyOp20
 70
     1
102
RTVSPropertyOp21
 70
     1
102
RTVSPropertyOp22
 70
     1
102
RTVSPropertyOp23
 70
     1
102
RTVSPropertyOp24
 70
     1
102
RTVSPropertyOp25
 70
     1
102
RTVSPropertyOp26
 70
     1
102
RTVSPropertyOp27
 70
     1
  0
XRECORD
  5
A82
102
{ACAD_REACTORS
330
A81
102
}
330
A81
100
AcDbXrecord
280
     1
102
RTVSPropertyOp0
 70
     1
102
RTVSPropertyOp1
 70
     1
102
RTVSPropertyOp2
 70
     1
102
RTVSPropertyOp3
 70
     1
102
RTVSPropertyOp4
 70
     1
102
RTVSPropertyOp5
 70
     1
102
RTVSPropertyOp6
 70
     1
102
RTVSPropertyOp7
 70
     1
102
RTVSPropertyOp8
 70
     1
102
RTVSPropertyOp9
 70
     1
102
RTVSPropertyOp10
 70
     1
102
RTVSPropertyOp11
 70
     1
102
RTVSPropertyOp12
 70
     1
102
RTVSPropertyOp13
 70
     1
102
RTVSPropertyOp14
 70
     1
102
RTVSPropertyOp15
 70
     1
102
RTVSPropertyOp16
 70
     1
102
RTVSPropertyOp17
 70
     1
102
RTVSPropertyOp18
 70
     1
102
RTVSPropertyOp19
 70
     1
102
RTVSPropertyOp20
 70
     1
102
RTVSPropertyOp21
 70
     1
102
RTVSPropertyOp22
 70
     1
102
RTVSPropertyOp23
 70
     1
102
RTVSPropertyOp24
 70
     1
102
RTVSPropertyOp25
 70
     1
102
RTVSPropertyOp26
 70
     1
102
RTVSPropertyOp27
 70
     1
  0
XRECORD
  5
A90
102
{ACAD_REACTORS
330
A8F
102
}
330
A8F
100
AcDbXrecord
280
     1
102
RTVSPropertyOp0
 70
     1
102
RTVSPropertyOp1
 70
     1
102
RTVSPropertyOp2
 70
     1
102
RTVSPropertyOp3
 70
     1
102
RTVSPropertyOp4
 70
     1
102
RTVSPropertyOp5
 70
     1
102
RTVSPropertyOp6
 70
     1
102
RTVSPropertyOp7
 70
     1
102
RTVSPropertyOp8
 70
     1
102
RTVSPropertyOp9
 70
     1
102
RTVSPropertyOp10
 70
     1
102
RTVSPropertyOp11
 70
     1
102
RTVSPropertyOp12
 70
     1
102
RTVSPropertyOp13
 70
     1
102
RTVSPropertyOp14
 70
     1
102
RTVSPropertyOp15
 70
     1
102
RTVSPropertyOp16
 70
     1
102
RTVSPropertyOp17
 70
     1
102
RTVSPropertyOp18
 70
     1
102
RTVSPropertyOp19
 70
     1
102
RTVSPropertyOp20
 70
     1
102
RTVSPropertyOp21
 70
     1
102
RTVSPropertyOp22
 70
     1
102
RTVSPropertyOp23
 70
     1
102
RTVSPropertyOp24
 70
     1
102
RTVSPropertyOp25
 70
     1
102
RTVSPropertyOp26
 70
     1
102
RTVSPropertyOp27
 70
     1
  0
XRECORD
  5
A98
102
{ACAD_REACTORS
330
A97
102
}
330
A97
100
AcDbXrecord
280
     1
102
RTVSPropertyOp0
 70
     1
102
RTVSPropertyOp1
 70
     1
102
RTVSPropertyOp2
 70
     1
102
RTVSPropertyOp3
 70
     1
102
RTVSPropertyOp4
 70
     1
102
RTVSPropertyOp5
 70
     1
102
RTVSPropertyOp6
 70
     1
102
RTVSPropertyOp7
 70
     1
102
RTVSPropertyOp8
 70
     1
102
RTVSPropertyOp9
 70
     1
102
RTVSPropertyOp10
 70
     1
102
RTVSPropertyOp11
 70
     1
102
RTVSPropertyOp12
 70
     1
102
RTVSPropertyOp13
 70
     1
102
RTVSPropertyOp14
 70
     1
102
RTVSPropertyOp15
 70
     1
102
RTVSPropertyOp16
 70
     1
102
RTVSPropertyOp17
 70
     1
102
RTVSPropertyOp18
 70
     1
102
RTVSPropertyOp19
 70
     1
102
RTVSPropertyOp20
 70
     1
102
RTVSPropertyOp21
 70
     1
102
RTVSPropertyOp22
 70
     1
102
RTVSPropertyOp23
 70
     1
102
RTVSPropertyOp24
 70
     1
102
RTVSPropertyOp25
 70
     1
102
RTVSPropertyOp26
 70
     1
102
RTVSPropertyOp27
 70
     1
  0
XRECORD
  5
A8A
102
{ACAD_REACTORS
330
A89
102
}
330
A89
100
AcDbXrecord
280
     1
102
RTVSPropertyOp0
 70
     1
102
RTVSPropertyOp1
 70
     1
102
RTVSPropertyOp2
 70
     1
102
RTVSPropertyOp3
 70
     1
102
RTVSPropertyOp4
 70
     1
102
RTVSPropertyOp5
 70
     1
102
RTVSPropertyOp6
 70
     1
102
RTVSPropertyOp7
 70
     1
102
RTVSPropertyOp8
 70
     1
102
RTVSPropertyOp9
 70
     1
102
RTVSPropertyOp10
 70
     1
102
RTVSPropertyOp11
 70
     1
102
RTVSPropertyOp12
 70
     1
102
RTVSPropertyOp13
 70
     1
102
RTVSPropertyOp14
 70
     1
102
RTVSPropertyOp15
 70
     1
102
RTVSPropertyOp16
 70
     1
102
RTVSPropertyOp17
 70
     1
102
RTVSPropertyOp18
 70
     1
102
RTVSPropertyOp19
 70
     1
102
RTVSPropertyOp20
 70
     1
102
RTVSPropertyOp21
 70
     1
102
RTVSPropertyOp22
 70
     1
102
RTVSPropertyOp23
 70
     1
102
RTVSPropertyOp24
 70
     1
102
RTVSPropertyOp25
 70
     1
102
RTVSPropertyOp26
 70
     1
102
RTVSPropertyOp27
 70
     1
  0
XRECORD
  5
A8E
102
{ACAD_REACTORS
330
A8D
102
}
330
A8D
100
AcDbXrecord
280
     1
102
RTVSPropertyOp0
 70
     1
102
RTVSPropertyOp1
 70
     1
102
RTVSPropertyOp2
 70
     1
102
RTVSPropertyOp3
 70
     1
102
RTVSPropertyOp4
 70
     1
102
RTVSPropertyOp5
 70
     1
102
RTVSPropertyOp6
 70
     1
102
RTVSPropertyOp7
 70
     1
102
RTVSPropertyOp8
 70
     1
102
RTVSPropertyOp9
 70
     1
102
RTVSPropertyOp10
 70
     1
102
RTVSPropertyOp11
 70
     1
102
RTVSPropertyOp12
 70
     1
102
RTVSPropertyOp13
 70
     1
102
RTVSPropertyOp14
 70
     1
102
RTVSPropertyOp15
 70
     1
102
RTVSPropertyOp16
 70
     1
102
RTVSPropertyOp17
 70
     1
102
RTVSPropertyOp18
 70
     1
102
RTVSPropertyOp19
 70
     1
102
RTVSPropertyOp20
 70
     1
102
RTVSPropertyOp21
 70
     1
102
RTVSPropertyOp22
 70
     1
102
RTVSPropertyOp23
 70
     1
102
RTVSPropertyOp24
 70
     1
102
RTVSPropertyOp25
 70
     1
102
RTVSPropertyOp26
 70
     1
102
RTVSPropertyOp27
 70
     1
  0
XRECORD
  5
A9E
102
{ACAD_REACTORS
330
A9D
102
}
330
A9D
100
AcDbXrecord
280
     1
102
RTVSPropertyOp0
 70
     0
102
RTVSPropertyOp1
 70
     0
102
RTVSPropertyOp2
 70
     0
102
RTVSPropertyOp3
 70
     0
102
RTVSPropertyOp4
 70
     0
102
RTVSPropertyOp5
 70
     0
102
RTVSPropertyOp6
 70
     0
102
RTVSPropertyOp7
 70
     0
102
RTVSPropertyOp8
 70
     0
102
RTVSPropertyOp9
 70
     0
102
RTVSPropertyOp10
 70
     0
102
RTVSPropertyOp11
 70
     0
102
RTVSPropertyOp12
 70
     0
102
RTVSPropertyOp13
 70
     0
102
RTVSPropertyOp14
 70
     2
102
RTVSPropertyOp15
 70
     0
102
RTVSPropertyOp16
 70
     0
102
RTVSPropertyOp17
 70
     0
102
RTVSPropertyOp18
 70
     0
102
RTVSPropertyOp19
 70
     0
102
RTVSPropertyOp20
 70
     0
102
RTVSPropertyOp21
 70
     0
102
RTVSPropertyOp22
 70
     0
102
RTVSPropertyOp23
 70
     0
102
RTVSPropertyOp24
 70
     0
102
RTVSPropertyOp25
 70
     0
102
RTVSPropertyOp26
 70
     0
102
RTVSPropertyOp27
 70
     0
  0
XRECORD
  5
A96
102
{ACAD_REACTORS
330
A95
102
}
330
A95
100
AcDbXrecord
280
     1
102
RTVSPropertyOp0
 70
     1
102
RTVSPropertyOp1
 70
     1
102
RTVSPropertyOp2
 70
     1
102
RTVSPropertyOp3
 70
     1
102
RTVSPropertyOp4
 70
     1
102
RTVSPropertyOp5
 70
     1
102
RTVSPropertyOp6
 70
     1
102
RTVSPropertyOp7
 70
     1
102
RTVSPropertyOp8
 70
     1
102
RTVSPropertyOp9
 70
     1
102
RTVSPropertyOp10
 70
     1
102
RTVSPropertyOp11
 70
     1
102
RTVSPropertyOp12
 70
     1
102
RTVSPropertyOp13
 70
     1
102
RTVSPropertyOp14
 70
     1
102
RTVSPropertyOp15
 70
     1
102
RTVSPropertyOp16
 70
     1
102
RTVSPropertyOp17
 70
     1
102
RTVSPropertyOp18
 70
     1
102
RTVSPropertyOp19
 70
     1
102
RTVSPropertyOp20
 70
     1
102
RTVSPropertyOp21
 70
     1
102
RTVSPropertyOp22
 70
     1
102
RTVSPropertyOp23
 70
     1
102
RTVSPropertyOp24
 70
     1
102
RTVSPropertyOp25
 70
     1
102
RTVSPropertyOp26
 70
     1
102
RTVSPropertyOp27
 70
     1
  0
XRECORD
  5
A7A
102
{ACAD_REACTORS
330
A79
102
}
330
A79
100
AcDbXrecord
280
     1
102
RTVSPropertyOp0
 70
     1
102
RTVSPropertyOp1
 70
     1
102
RTVSPropertyOp2
 70
     1
102
RTVSPropertyOp3
 70
     1
102
RTVSPropertyOp4
 70
     1
102
RTVSPropertyOp5
 70
     1
102
RTVSPropertyOp6
 70
     1
102
RTVSPropertyOp7
 70
     1
102
RTVSPropertyOp8
 70
     1
102
RTVSPropertyOp9
 70
     1
102
RTVSPropertyOp10
 70
     1
102
RTVSPropertyOp11
 70
     1
102
RTVSPropertyOp12
 70
     1
102
RTVSPropertyOp13
 70
     1
102
RTVSPropertyOp14
 70
     1
102
RTVSPropertyOp15
 70
     1
102
RTVSPropertyOp16
 70
     1
102
RTVSPropertyOp17
 70
     1
102
RTVSPropertyOp18
 70
     1
102
RTVSPropertyOp19
 70
     1
102
RTVSPropertyOp20
 70
     1
102
RTVSPropertyOp21
 70
     1
102
RTVSPropertyOp22
 70
     1
102
RTVSPropertyOp23
 70
     1
102
RTVSPropertyOp24
 70
     1
102
RTVSPropertyOp25
 70
     1
102
RTVSPropertyOp26
 70
     1
102
RTVSPropertyOp27
 70
     1
  0
XRECORD
  5
A7C
102
{ACAD_REACTORS
330
A7B
102
}
330
A7B
100
AcDbXrecord
280
     1
102
RTVSPropertyOp0
 70
     1
102
RTVSPropertyOp1
 70
     1
102
RTVSPropertyOp2
 70
     1
102
RTVSPropertyOp3
 70
     1
102
RTVSPropertyOp4
 70
     1
102
RTVSPropertyOp5
 70
     1
102
RTVSPropertyOp6
 70
     1
102
RTVSPropertyOp7
 70
     1
102
RTVSPropertyOp8
 70
     1
102
RTVSPropertyOp9
 70
     1
102
RTVSPropertyOp10
 70
     1
102
RTVSPropertyOp11
 70
     1
102
RTVSPropertyOp12
 70
     1
102
RTVSPropertyOp13
 70
     1
102
RTVSPropertyOp14
 70
     1
102
RTVSPropertyOp15
 70
     1
102
RTVSPropertyOp16
 70
     1
102
RTVSPropertyOp17
 70
     1
102
RTVSPropertyOp18
 70
     1
102
RTVSPropertyOp19
 70
     1
102
RTVSPropertyOp20
 70
     1
102
RTVSPropertyOp21
 70
     1
102
RTVSPropertyOp22
 70
     1
102
RTVSPropertyOp23
 70
     1
102
RTVSPropertyOp24
 70
     1
102
RTVSPropertyOp25
 70
     1
102
RTVSPropertyOp26
 70
     1
102
RTVSPropertyOp27
 70
     1
  0
XRECORD
  5
A7E
102
{ACAD_REACTORS
330
A7D
102
}
330
A7D
100
AcDbXrecord
280
     1
102
RTVSPropertyOp0
 70
     1
102
RTVSPropertyOp1
 70
     1
102
RTVSPropertyOp2
 70
     1
102
RTVSPropertyOp3
 70
     1
102
RTVSPropertyOp4
 70
     1
102
RTVSPropertyOp5
 70
     1
102
RTVSPropertyOp6
 70
     1
102
RTVSPropertyOp7
 70
     1
102
RTVSPropertyOp8
 70
     1
102
RTVSPropertyOp9
 70
     1
102
RTVSPropertyOp10
 70
     1
102
RTVSPropertyOp11
 70
     1
102
RTVSPropertyOp12
 70
     1
102
RTVSPropertyOp13
 70
     1
102
RTVSPropertyOp14
 70
     1
102
RTVSPropertyOp15
 70
     1
102
RTVSPropertyOp16
 70
     1
102
RTVSPropertyOp17
 70
     1
102
RTVSPropertyOp18
 70
     1
102
RTVSPropertyOp19
 70
     1
102
RTVSPropertyOp20
 70
     1
102
RTVSPropertyOp21
 70
     1
102
RTVSPropertyOp22
 70
     1
102
RTVSPropertyOp23
 70
     1
102
RTVSPropertyOp24
 70
     1
102
RTVSPropertyOp25
 70
     1
102
RTVSPropertyOp26
 70
     1
102
RTVSPropertyOp27
 70
     1
  0
XRECORD
  5
A80
102
{ACAD_REACTORS
330
A7F
102
}
330
A7F
100
AcDbXrecord
280
     1
102
RTVSPropertyOp0
 70
     1
102
RTVSPropertyOp1
 70
     1
102
RTVSPropertyOp2
 70
     1
102
RTVSPropertyOp3
 70
     1
102
RTVSPropertyOp4
 70
     1
102
RTVSPropertyOp5
 70
     1
102
RTVSPropertyOp6
 70
     1
102
RTVSPropertyOp7
 70
     1
102
RTVSPropertyOp8
 70
     1
102
RTVSPropertyOp9
 70
     1
102
RTVSPropertyOp10
 70
     1
102
RTVSPropertyOp11
 70
     1
102
RTVSPropertyOp12
 70
     1
102
RTVSPropertyOp13
 70
     1
102
RTVSPropertyOp14
 70
     1
102
RTVSPropertyOp15
 70
     1
102
RTVSPropertyOp16
 70
     1
102
RTVSPropertyOp17
 70
     1
102
RTVSPropertyOp18
 70
     1
102
RTVSPropertyOp19
 70
     1
102
RTVSPropertyOp20
 70
     1
102
RTVSPropertyOp21
 70
     1
102
RTVSPropertyOp22
 70
     1
102
RTVSPropertyOp23
 70
     1
102
RTVSPropertyOp24
 70
     1
102
RTVSPropertyOp25
 70
     1
102
RTVSPropertyOp26
 70
     1
102
RTVSPropertyOp27
 70
     1
  0
XRECORD
  5
A9A
102
{ACAD_REACTORS
330
A99
102
}
330
A99
100
AcDbXrecord
280
     1
102
RTVSPropertyOp0
 70
     0
102
RTVSPropertyOp1
 70
     0
102
RTVSPropertyOp2
 70
     0
102
RTVSPropertyOp3
 70
     0
102
RTVSPropertyOp4
 70
     0
102
RTVSPropertyOp5
 70
     0
102
RTVSPropertyOp6
 70
     0
102
RTVSPropertyOp7
 70
     0
102
RTVSPropertyOp8
 70
     0
102
RTVSPropertyOp9
 70
     0
102
RTVSPropertyOp10
 70
     0
102
RTVSPropertyOp11
 70
     0
102
RTVSPropertyOp12
 70
     0
102
RTVSPropertyOp13
 70
     0
102
RTVSPropertyOp14
 70
     2
102
RTVSPropertyOp15
 70
     0
102
RTVSPropertyOp16
 70
     0
102
RTVSPropertyOp17
 70
     0
102
RTVSPropertyOp18
 70
     0
102
RTVSPropertyOp19
 70
     0
102
RTVSPropertyOp20
 70
     0
102
RTVSPropertyOp21
 70
     0
102
RTVSPropertyOp22
 70
     0
102
RTVSPropertyOp23
 70
     0
102
RTVSPropertyOp24
 70
     0
102
RTVSPropertyOp25
 70
     0
102
RTVSPropertyOp26
 70
     0
102
RTVSPropertyOp27
 70
     0
  0
XRECORD
  5
A94
102
{ACAD_REACTORS
330
A93
102
}
330
A93
100
AcDbXrecord
280
     1
102
RTVSPropertyOp0
 70
     1
102
RTVSPropertyOp1
 70
     1
102
RTVSPropertyOp2
 70
     1
102
RTVSPropertyOp3
 70
     1
102
RTVSPropertyOp4
 70
     1
102
RTVSPropertyOp5
 70
     1
102
RTVSPropertyOp6
 70
     1
102
RTVSPropertyOp7
 70
     1
102
RTVSPropertyOp8
 70
     1
102
RTVSPropertyOp9
 70
     1
102
RTVSPropertyOp10
 70
     1
102
RTVSPropertyOp11
 70
     1
102
RTVSPropertyOp12
 70
     1
102
RTVSPropertyOp13
 70
     1
102
RTVSPropertyOp14
 70
     1
102
RTVSPropertyOp15
 70
     1
102
RTVSPropertyOp16
 70
     1
102
RTVSPropertyOp17
 70
     1
102
RTVSPropertyOp18
 70
     1
102
RTVSPropertyOp19
 70
     1
102
RTVSPropertyOp20
 70
     1
102
RTVSPropertyOp21
 70
     1
102
RTVSPropertyOp22
 70
     1
102
RTVSPropertyOp23
 70
     1
102
RTVSPropertyOp24
 70
     1
102
RTVSPropertyOp25
 70
     1
102
RTVSPropertyOp26
 70
     1
102
RTVSPropertyOp27
 70
     1
  0
XRECORD
  5
A9C
102
{ACAD_REACTORS
330
A9B
102
}
330
A9B
100
AcDbXrecord
280
     1
102
RTVSPropertyOp0
 70
     0
102
RTVSPropertyOp1
 70
     0
102
RTVSPropertyOp2
 70
     0
102
RTVSPropertyOp3
 70
     0
102
RTVSPropertyOp4
 70
     0
102
RTVSPropertyOp5
 70
     0
102
RTVSPropertyOp6
 70
     0
102
RTVSPropertyOp7
 70
     0
102
RTVSPropertyOp8
 70
     0
102
RTVSPropertyOp9
 70
     0
102
RTVSPropertyOp10
 70
     0
102
RTVSPropertyOp11
 70
     0
102
RTVSPropertyOp12
 70
     0
102
RTVSPropertyOp13
 70
     0
102
RTVSPropertyOp14
 70
     2
102
RTVSPropertyOp15
 70
     0
102
RTVSPropertyOp16
 70
     0
102
RTVSPropertyOp17
 70
     0
102
RTVSPropertyOp18
 70
     0
102
RTVSPropertyOp19
 70
     0
102
RTVSPropertyOp20
 70
     0
102
RTVSPropertyOp21
 70
     0
102
RTVSPropertyOp22
 70
     0
102
RTVSPropertyOp23
 70
     0
102
RTVSPropertyOp24
 70
     0
102
RTVSPropertyOp25
 70
     0
102
RTVSPropertyOp26
 70
     0
102
RTVSPropertyOp27
 70
     0
  0
XRECORD
  5
A8C
102
{ACAD_REACTORS
330
A8B
102
}
330
A8B
100
AcDbXrecord
280
     1
102
RTVSPropertyOp0
 70
     1
102
RTVSPropertyOp1
 70
     1
102
RTVSPropertyOp2
 70
     1
102
RTVSPropertyOp3
 70
     1
102
RTVSPropertyOp4
 70
     1
102
RTVSPropertyOp5
 70
     1
102
RTVSPropertyOp6
 70
     1
102
RTVSPropertyOp7
 70
     1
102
RTVSPropertyOp8
 70
     1
102
RTVSPropertyOp9
 70
     1
102
RTVSPropertyOp10
 70
     1
102
RTVSPropertyOp11
 70
     1
102
RTVSPropertyOp12
 70
     1
102
RTVSPropertyOp13
 70
     1
102
RTVSPropertyOp14
 70
     1
102
RTVSPropertyOp15
 70
     1
102
RTVSPropertyOp16
 70
     1
102
RTVSPropertyOp17
 70
     1
102
RTVSPropertyOp18
 70
     1
102
RTVSPropertyOp19
 70
     1
102
RTVSPropertyOp20
 70
     1
102
RTVSPropertyOp21
 70
     1
102
RTVSPropertyOp22
 70
     1
102
RTVSPropertyOp23
 70
     1
102
RTVSPropertyOp24
 70
     1
102
RTVSPropertyOp25
 70
     1
102
RTVSPropertyOp26
 70
     1
102
RTVSPropertyOp27
 70
     1
  0
XRECORD
  5
A92
102
{ACAD_REACTORS
330
A91
102
}
330
A91
100
AcDbXrecord
280
     1
102
RTVSPropertyOp0
 70
     1
102
RTVSPropertyOp1
 70
     1
102
RTVSPropertyOp2
 70
     1
102
RTVSPropertyOp3
 70
     1
102
RTVSPropertyOp4
 70
     1
102
RTVSPropertyOp5
 70
     1
102
RTVSPropertyOp6
 70
     1
102
RTVSPropertyOp7
 70
     1
102
RTVSPropertyOp8
 70
     1
102
RTVSPropertyOp9
 70
     1
102
RTVSPropertyOp10
 70
     1
102
RTVSPropertyOp11
 70
     1
102
RTVSPropertyOp12
 70
     1
102
RTVSPropertyOp13
 70
     1
102
RTVSPropertyOp14
 70
     1
102
RTVSPropertyOp15
 70
     1
102
RTVSPropertyOp16
 70
     1
102
RTVSPropertyOp17
 70
     1
102
RTVSPropertyOp18
 70
     1
102
RTVSPropertyOp19
 70
     1
102
RTVSPropertyOp20
 70
     1
102
RTVSPropertyOp21
 70
     1
102
RTVSPropertyOp22
 70
     1
102
RTVSPropertyOp23
 70
     1
102
RTVSPropertyOp24
 70
     1
102
RTVSPropertyOp25
 70
     1
102
RTVSPropertyOp26
 70
     1
102
RTVSPropertyOp27
 70
     1
  0
ENDSEC
  0
EOF
