  0
SECTION
  2
HEADER
  9
$ACADVER
  1
AC1015
  9
$ACADMAINTVER
 70
     6
  9
$DWGCODEPAGE
  3
ANSI_1252
  9
$INSBASE
 10
0.0
 20
0.0
 30
0.0
  9
$EXTMIN
 10
564.6671324324455
 20
106.3888673492358
 30
0.0
  9
$EXTMAX
 10
1392.136313914303
 20
982.4831347941694
 30
0.0
  9
$LIMMIN
 10
0.0
 20
0.0
  9
$LIMMAX
 10
12.0
 20
9.0
  9
$ORTHOMODE
 70
     0
  9
$REGENMODE
 70
     1
  9
$FILLMODE
 70
     1
  9
$QTEXTMODE
 70
     0
  9
$MIRRTEXT
 70
     1
  9
$LTSCALE
 40
1.0
  9
$ATTMODE
 70
     1
  9
$TEXTSIZE
 40
0.2
  9
$TRACEWID
 40
0.05
  9
$TEXTSTYLE
  7
STANDARD
  9
$CLAYER
  8
0
  9
$CELTYPE
  6
CONTINUOUS
  9
$CECOLOR
 62
     0
  9
$CELTSCALE
 40
1.0
  9
$DISPSILH
 70
     0
  9
$DIMSCALE
 40
1.0
  9
$DIMASZ
 40
0.18
  9
$DIMEXO
 40
0.0625
  9
$DIMDLI
 40
0.38
  9
$DIMRND
 40
0.0
  9
$DIMDLE
 40
0.0
  9
$DIMEXE
 40
0.18
  9
$DIMTP
 40
0.0
  9
$DIMTM
 40
0.0
  9
$DIMTXT
 40
0.18
  9
$DIMCEN
 40
0.09
  9
$DIMTSZ
 40
0.0
  9
$DIMTOL
 70
     0
  9
$DIMLIM
 70
     0
  9
$DIMTIH
 70
     1
  9
$DIMTOH
 70
     1
  9
$DIMSE1
 70
     0
  9
$DIMSE2
 70
     0
  9
$DIMTAD
 70
     0
  9
$DIMZIN
 70
     0
  9
$DIMBLK
  1

  9
$DIMASO
 70
     1
  9
$DIMSHO
 70
     1
  9
$DIMPOST
  1

  9
$DIMAPOST
  1

  9
$DIMALT
 70
     0
  9
$DIMALTD
 70
     2
  9
$DIMALTF
 40
25.4
  9
$DIMLFAC
 40
1.0
  9
$DIMTOFL
 70
     0
  9
$DIMTVP
 40
0.0
  9
$DIMTIX
 70
     0
  9
$DIMSOXD
 70
     0
  9
$DIMSAH
 70
     0
  9
$DIMBLK1
  1

  9
$DIMBLK2
  1

  9
$DIMSTYLE
  2
STANDARD
  9
$DIMCLRD
 70
     0
  9
$DIMCLRE
 70
     0
  9
$DIMCLRT
 70
     0
  9
$DIMTFAC
 40
1.0
  9
$DIMGAP
 40
0.09
  9
$DIMJUST
 70
     0
  9
$DIMSD1
 70
     0
  9
$DIMSD2
 70
     0
  9
$DIMTOLJ
 70
     1
  9
$DIMTZIN
 70
     0
  9
$DIMALTZ
 70
     0
  9
$DIMALTTZ
 70
     0
  9
$DIMUPT
 70
     0
  9
$DIMDEC
 70
     4
  9
$DIMTDEC
 70
     4
  9
$DIMALTU
 70
     2
  9
$DIMALTTD
 70
     2
  9
$DIMTXSTY
  7
STANDARD
  9
$DIMAUNIT
 70
     0
  9
$DIMADEC
 70
     0
  9
$DIMALTRND
 40
0.0
  9
$DIMAZIN
 70
     0
  9
$DIMDSEP
 70
    46
  9
$DIMATFIT
 70
     3
  9
$DIMFRAC
 70
     0
  9
$DIMLDRBLK
  1

  9
$DIMLUNIT
 70
     2
  9
$DIMLWD
 70
    -2
  9
$DIMLWE
 70
    -2
  9
$DIMTMOVE
 70
     0
  9
$LUNITS
 70
     2
  9
$LUPREC
 70
     4
  9
$SKETCHINC
 40
0.1
  9
$FILLETRAD
 40
8.0
  9
$AUNITS
 70
     0
  9
$AUPREC
 70
     0
  9
$MENU
  1
acad
  9
$ELEVATION
 40
0.0
  9
$PELEVATION
 40
0.0
  9
$THICKNESS
 40
0.0
  9
$LIMCHECK
 70
     0
  9
$CHAMFERA
 40
0.0
  9
$CHAMFERB
 40
0.0
  9
$CHAMFERC
 40
0.0
  9
$CHAMFERD
 40
0.0
  9
$SKPOLY
 70
     0
  9
$TDCREATE
 40
2451288.347424652
  9
$TDUCREATE
 40
2451288.305757986
  9
$TDUPDATE
 40
2457618.880954363
  9
$TDUUPDATE
 40
2457618.839287696
  9
$TDINDWG
 40
0.9439348380
  9
$TDUSRTIMER
 40
0.9439316551
  9
$USRTIMER
 70
     1
  9
$ANGBASE
 50
0.0
  9
$ANGDIR
 70
     0
  9
$PDMODE
 70
     0
  9
$PDSIZE
 40
0.0
  9
$PLINEWID
 40
1.0
  9
$SPLFRAME
 70
     0
  9
$SPLINETYPE
 70
     6
  9
$SPLINESEGS
 70
    10
  9
$HANDSEED
  5
18B1
  9
$SURFTAB1
 70
     6
  9
$SURFTAB2
 70
     6
  9
$SURFTYPE
 70
     6
  9
$SURFU
 70
    10
  9
$SURFV
 70
    10
  9
$UCSBASE
  2

  9
$UCSNAME
  2

  9
$UCSORG
 10
0.0
 20
0.0
 30
0.0
  9
$UCSXDIR
 10
1.0
 20
0.0
 30
0.0
  9
$UCSYDIR
 10
0.0
 20
1.0
 30
0.0
  9
$UCSORTHOREF
  2

  9
$UCSORTHOVIEW
 70
     0
  9
$UCSORGTOP
 10
0.0
 20
0.0
 30
0.0
  9
$UCSORGBOTTOM
 10
0.0
 20
0.0
 30
0.0
  9
$UCSORGLEFT
 10
0.0
 20
0.0
 30
0.0
  9
$UCSORGRIGHT
 10
0.0
 20
0.0
 30
0.0
  9
$UCSORGFRONT
 10
0.0
 20
0.0
 30
0.0
  9
$UCSORGBACK
 10
0.0
 20
0.0
 30
0.0
  9
$PUCSBASE
  2

  9
$PUCSNAME
  2

  9
$PUCSORG
 10
0.0
 20
0.0
 30
0.0
  9
$PUCSXDIR
 10
1.0
 20
0.0
 30
0.0
  9
$PUCSYDIR
 10
0.0
 20
1.0
 30
0.0
  9
$PUCSORTHOREF
  2

  9
$PUCSORTHOVIEW
 70
     0
  9
$PUCSORGTOP
 10
0.0
 20
0.0
 30
0.0
  9
$PUCSORGBOTTOM
 10
0.0
 20
0.0
 30
0.0
  9
$PUCSORGLEFT
 10
0.0
 20
0.0
 30
0.0
  9
$PUCSORGRIGHT
 10
0.0
 20
0.0
 30
0.0
  9
$PUCSORGFRONT
 10
0.0
 20
0.0
 30
0.0
  9
$PUCSORGBACK
 10
0.0
 20
0.0
 30
0.0
  9
$USERI1
 70
     0
  9
$USERI2
 70
     0
  9
$USERI3
 70
     0
  9
$USERI4
 70
     0
  9
$USERI5
 70
     0
  9
$USERR1
 40
0.0
  9
$USERR2
 40
0.0
  9
$USERR3
 40
0.0
  9
$USERR4
 40
0.0
  9
$USERR5
 40
0.0
  9
$WORLDVIEW
 70
     1
  9
$SHADEDGE
 70
     3
  9
$SHADEDIF
 70
    70
  9
$TILEMODE
 70
     1
  9
$MAXACTVP
 70
    16
  9
$PINSBASE
 10
0.0
 20
0.0
 30
0.0
  9
$PLIMCHECK
 70
     0
  9
$PEXTMIN
 10
-1.000000000000000E+20
 20
-1.000000000000000E+20
 30
-1.000000000000000E+20
  9
$PEXTMAX
 10
-1.000000000000000E+20
 20
-1.000000000000000E+20
 30
-1.000000000000000E+20
  9
$PLIMMIN
 10
0.0
 20
0.0
  9
$PLIMMAX
 10
12.0
 20
9.0
  9
$UNITMODE
 70
     0
  9
$VISRETAIN
 70
     0
  9
$PLINEGEN
 70
     0
  9
$PSLTSCALE
 70
     1
  9
$TREEDEPTH
 70
  3020
  9
$CMLSTYLE
  2
STANDARD
  9
$CMLJUST
 70
     0
  9
$CMLSCALE
 40
1.0
  9
$PROXYGRAPHICS
 70
     1
  9
$MEASUREMENT
 70
     0
  9
$CELWEIGHT
370
    -1
  9
$ENDCAPS
280
     0
  9
$JOINSTYLE
280
     0
  9
$LWDISPLAY
290
     0
  9
$INSUNITS
 70
     0
  9
$HYPERLINKBASE
  1

  9
$STYLESHEET
  1

  9
$XEDIT
290
     1
  9
$CEPSNTYPE
380
     0
  9
$PSTYLEMODE
290
     1
  9
$FINGERPRINTGUID
  2
{81C46E06-4207-4721-BCC6-8C733CC7CBFC}
  9
$VERSIONGUID
  2
{5902F0FF-7F45-44AE-BE55-0BA09858A56C}
  9
$EXTNAMES
290
     1
  9
$PSVPSCALE
 40
0.0
  9
$OLESTARTUP
290
     0
  0
ENDSEC
  0
SECTION
  2
CLASSES
  0
CLASS
  1
IDBUFFER
  2
AcDbIdBuffer
  3
AutoCAD 2000
 90
    32768
280
     0
281
     0
  0
CLASS
  1
ACDBDICTIONARYWDFLT
  2
AcDbDictionaryWithDefault
  3
AutoCAD 2000
 90
        0
280
     0
281
     0
  0
CLASS
  1
ACDBPLACEHOLDER
  2
AcDbPlaceHolder
  3
AutoCAD 2000
 90
        0
280
     0
281
     0
  0
CLASS
  1
LAYOUT
  2
AcDbLayout
  3
AutoCAD 2000
 90
        0
280
     0
281
     0
  0
CLASS
  1
MATERIAL
  2
AcDbMaterial
  3
ObjectDBX Classes
 90
     1024
280
     0
281
     0
  0
CLASS
  1
VISUALSTYLE
  2
AcDbVisualStyle
  3
ObjectDBX Classes
 90
     4095
280
     0
281
     0
  0
CLASS
  1
TABLESTYLE
  2
AcDbTableStyle
  3
ObjectDBX Classes
 90
     4095
280
     0
281
     0
  0
CLASS
  1
SORTENTSTABLE
  2
AcDbSortentsTable
  3
AutoCAD 2000
 90
        0
280
     0
281
     0
  0
CLASS
  1
DICTIONARYVAR
  2
AcDbDictionaryVar
  3
AutoCAD 2000
 90
        0
280
     0
281
     0
  0
CLASS
  1
SCALE
  2
AcDbScale
  3
ObjectDBX Classes
 90
     1153
280
     0
281
     0
  0
CLASS
  1
MLEADERSTYLE
  2
AcDbMLeaderStyle
  3
ACDB_MLEADERSTYLE_CLASS
 90
     4095
280
     0
281
     0
  0
CLASS
  1
CELLSTYLEMAP
  2
AcDbCellStyleMap
  3
ObjectDBX Classes
 90
     1152
280
     0
281
     0
  0
ENDSEC
  0
SECTION
  2
TABLES
  0
TABLE
  2
VPORT
  5
17B
330
0
100
AcDbSymbolTable
 70
     2
  0
VPORT
  5
18B0
330
17B
100
AcDbSymbolTableRecord
100
AcDbViewportTableRecord
  2
*Active
 70
     0
 10
0.0
 20
0.0
 11
1.0
 21
1.0
 12
825.191123811888
 22
152.9696130605493
 13
0.0
 23
0.0
 14
0.0
 24
0.0
 15
0.0
 25
0.0
 16
0.0
 26
0.0
 36
1.0
 17
662.702334
 27
588.79375
 37
0.0
 40
1030.475756608813
 41
1.94776119402985
 42
50.0
 43
0.0
 44
0.0
 50
0.0
 51
0.0
 71
     0
 72
   100
 73
     1
 74
     0
 75
     0
 76
     0
 77
     0
 78
     0
281
     0
 65
     1
110
0.0
120
0.0
130
0.0
111
1.0
121
0.0
131
0.0
112
0.0
122
1.0
132
0.0
 79
     0
146
0.0
  0
ENDTAB
  0
TABLE
  2
LTYPE
  5
178
330
0
100
AcDbSymbolTable
 70
     1
  0
LTYPE
  5
185
330
178
100
AcDbSymbolTableRecord
100
AcDbLinetypeTableRecord
  2
BYBLOCK
 70
     0
  3

 72
    65
 73
     0
 40
0.0
  0
LTYPE
  5
186
330
178
100
AcDbSymbolTableRecord
100
AcDbLinetypeTableRecord
  2
BYLAYER
 70
     0
  3

 72
    65
 73
     0
 40
0.0
  0
LTYPE
  5
187
330
178
100
AcDbSymbolTableRecord
100
AcDbLinetypeTableRecord
  2
CONTINUOUS
 70
     0
  3
Solid line
 72
    65
 73
     0
 40
0.0
  0
ENDTAB
  0
TABLE
  2
LAYER
  5
175
330
0
100
AcDbSymbolTable
 70
     5
  0
LAYER
  5
181
102
{ACAD_XDICTIONARY
360
150E
102
}
330
175
100
AcDbSymbolTableRecord
100
AcDbLayerTableRecord
  2
0
 70
     0
 62
     7
  6
CONTINUOUS
370
    -3
390
993
  0
LAYER
  5
19A
102
{ACAD_XDICTIONARY
360
1510
102
}
330
175
100
AcDbSymbolTableRecord
100
AcDbLayerTableRecord
  2
1
 70
     0
 62
     7
  6
CONTINUOUS
370
    -3
390
993
  0
LAYER
  5
19B
102
{ACAD_XDICTIONARY
360
1512
102
}
330
175
100
AcDbSymbolTableRecord
100
AcDbLayerTableRecord
  2
-1
 70
     0
 62
     7
  6
CONTINUOUS
370
    -3
390
993
  0
LAYER
  5
349
102
{ACAD_XDICTIONARY
360
1514
102
}
330
175
100
AcDbSymbolTableRecord
100
AcDbLayerTableRecord
  2
NUTS1$0$1
 70
     0
 62
     7
  6
CONTINUOUS
370
    -3
390
993
  0
LAYER
  5
158F
102
{ACAD_XDICTIONARY
360
1590
102
}
330
175
100
AcDbSymbolTableRecord
100
AcDbLayerTableRecord
  2
FLAN1$0$1
 70
     0
 62
     7
  6
CONTINUOUS
370
    -3
390
993
  0
ENDTAB
  0
TABLE
  2
STYLE
  5
176
330
0
100
AcDbSymbolTable
 70
     2
  0
STYLE
  5
182
330
176
100
AcDbSymbolTableRecord
100
AcDbTextStyleTableRecord
  2
STANDARD
 70
     0
 40
0.0
 41
1.0
 50
0.0
 71
     0
 42
0.2
  3
txt
  4

  0
STYLE
  5
1591
330
176
100
AcDbSymbolTableRecord
100
AcDbTextStyleTableRecord
  2
ROMANS
 70
     0
 40
0.2
 41
1.0
 50
0.0
 71
     0
 42
0.2
  3
ROMANS
  4

  0
ENDTAB
  0
TABLE
  2
VIEW
  5
179
330
0
100
AcDbSymbolTable
 70
     0
  0
ENDTAB
  0
TABLE
  2
UCS
  5
17A
330
0
100
AcDbSymbolTable
 70
     0
  0
ENDTAB
  0
TABLE
  2
APPID
  5
17C
330
0
100
AcDbSymbolTable
 70
     3
  0
APPID
  5
183
330
17C
100
AcDbSymbolTableRecord
100
AcDbRegAppTableRecord
  2
ACAD
 70
     0
  0
APPID
  5
1578
330
17C
100
AcDbSymbolTableRecord
100
AcDbRegAppTableRecord
  2
ACAD_MLEADERVER
 70
     0
  0
APPID
  5
1846
330
17C
100
AcDbSymbolTableRecord
100
AcDbRegAppTableRecord
  2
ACAD_EXEMPT_FROM_CAD_STANDARDS
 70
     0
  0
ENDTAB
  0
TABLE
  2
DIMSTYLE
  5
17D
330
0
100
AcDbSymbolTable
 70
     1
100
AcDbDimStyleTable
 71
     1
340
19E
  0
DIMSTYLE
105
19E
330
17D
100
AcDbSymbolTableRecord
100
AcDbDimStyleTableRecord
  2
STANDARD
 70
     0
340
182
  0
ENDTAB
  0
TABLE
  2
BLOCK_RECORD
  5
174
330
0
100
AcDbSymbolTable
 70
     2
  0
BLOCK_RECORD
  5
18B
102
{ACAD_XDICTIONARY
360
B62
102
}
330
174
100
AcDbSymbolTableRecord
100
AcDbBlockTableRecord
  2
*MODEL_SPACE
340
BF2
  0
BLOCK_RECORD
  5
188
102
{ACAD_XDICTIONARY
360
B60
102
}
330
174
100
AcDbSymbolTableRecord
100
AcDbBlockTableRecord
  2
*PAPER_SPACE
340
BF3
  0
BLOCK_RECORD
  5
5EE
102
{ACAD_XDICTIONARY
360
5F7
102
}
330
174
100
AcDbSymbolTableRecord
100
AcDbBlockTableRecord
  2
GASK3
340
0
102
{BLKREFS
331
5F6
102
}
  0
ENDTAB
  0
ENDSEC
  0
SECTION
  2
BLOCKS
  0
BLOCK
  5
18C
330
18B
100
AcDbEntity
  8
0
100
AcDbBlockBegin
  2
*MODEL_SPACE
 70
     0
 10
0.0
 20
0.0
 30
0.0
  3
*MODEL_SPACE
  1

  0
ENDBLK
  5
18D
330
18B
100
AcDbEntity
  8
0
100
AcDbBlockEnd
  0
BLOCK
  5
189
330
188
100
AcDbEntity
 67
     1
  8
0
100
AcDbBlockBegin
  2
*PAPER_SPACE
 70
     0
 10
0.0
 20
0.0
 30
0.0
  3
*PAPER_SPACE
  1

  0
ENDBLK
  5
18A
330
188
100
AcDbEntity
 67
     1
  8
0
100
AcDbBlockEnd
  0
BLOCK
  5
5EF
330
5EE
100
AcDbEntity
  8
0
 62
     3
100
AcDbBlockBegin
  2
GASK3
 70
     4
 71
     1
 10
0.0
 20
0.0
 30
0.0
  3
GASK3
  1
C:\Active\ZPL\Avris\PipeData.4-5\source\dgn\GASK\Gask3.dwg
  0
ENDBLK
  5
5F0
330
5EE
100
AcDbEntity
  8
0
 62
     3
100
AcDbBlockEnd
  0
ENDSEC
  0
SECTION
  2
ENTITIES
  0
INSERT
  5
5F6
330
18B
100
AcDbEntity
  8
0
  6
Continuous
 62
     3
100
AcDbBlockReference
  2
GASK3
 10
0.0
 20
0.0
 30
0.0
  0
LINE
  5
137B
330
18B
100
AcDbEntity
  8
0
  6
Continuous
 62
     4
100
AcDbLine
 10
1002.460437139745
 20
928.4831347941693
 30
0.0
 11
1026.039410502985
 21
952.0621081574084
 31
0.0
1001
ACAD
1010
0.0
1020
0.0
1030
0.0
  0
LINE
  5
137C
330
18B
100
AcDbEntity
  8
0
  6
Continuous
 62
     4
100
AcDbLine
 10
991.8538354219467
 20
928.4831347941693
 30
0.0
 11
1026.039410502985
 21
962.668709875207
 31
0.0
1001
ACAD
1010
0.0
1020
0.0
1030
0.0
  0
LINE
  5
137D
330
18B
100
AcDbEntity
  8
0
  6
Continuous
 62
     4
100
AcDbLine
 10
981.2472337041477
 20
928.4831347941693
 30
0.0
 11
1026.039410502985
 21
973.2753115930051
 31
0.0
1001
ACAD
1010
0.0
1020
0.0
1030
0.0
  0
LINE
  5
137E
330
18B
100
AcDbEntity
  8
0
  6
Continuous
 62
     4
100
AcDbLine
 10
970.6406319863488
 20
928.4831347941693
 30
0.0
 11
1015.64063198635
 21
973.4831347941693
 31
0.0
1001
ACAD
1010
0.0
1020
0.0
1030
0.0
  0
LINE
  5
137F
330
18B
100
AcDbEntity
  8
0
  6
Continuous
 62
     4
100
AcDbLine
 10
960.0340302685504
 20
928.4831347941693
 30
0.0
 11
1005.034030268552
 21
973.4831347941693
 31
0.0
1001
ACAD
1010
0.0
1020
0.0
1030
0.0
  0
LINE
  5
1380
330
18B
100
AcDbEntity
  8
0
  6
Continuous
 62
     4
100
AcDbLine
 10
949.4274285507511
 20
928.4831347941693
 30
0.0
 11
994.4274285507527
 21
973.4831347941693
 31
0.0
1001
ACAD
1010
0.0
1020
0.0
1030
0.0
  0
LINE
  5
1381
330
18B
100
AcDbEntity
  8
0
  6
Continuous
 62
     4
100
AcDbLine
 10
938.8208268329526
 20
928.4831347941693
 30
0.0
 11
983.8208268329539
 21
973.4831347941693
 31
0.0
1001
ACAD
1010
0.0
1020
0.0
1030
0.0
  0
LINE
  5
1382
330
18B
100
AcDbEntity
  8
0
  6
Continuous
 62
     4
100
AcDbLine
 10
877.5394105029873
 20
877.8083201820042
 30
0.0
 11
915.8274940979641
 21
916.0964037769796
 31
0.0
1001
ACAD
1010
0.0
1020
0.0
1030
0.0
  0
LINE
  5
1383
330
18B
100
AcDbEntity
  8
0
  6
Continuous
 62
     4
100
AcDbLine
 10
877.5394105029873
 20
867.2017184642061
 30
0.0
 11
913.521711166029
 21
903.184019127247
 31
0.0
1001
ACAD
1010
0.0
1020
0.0
1030
0.0
  0
LINE
  5
1384
330
18B
100
AcDbEntity
  8
0
  6
Continuous
 62
     4
100
AcDbLine
 10
877.5394105029873
 20
856.595116746408
 30
0.0
 11
911.2159282340943
 21
890.2716344775141
 31
0.0
1001
ACAD
1010
0.0
1020
0.0
1030
0.0
  0
LINE
  5
1385
330
18B
100
AcDbEntity
  8
0
  6
Continuous
 62
     4
100
AcDbLine
 10
877.5394105029873
 20
845.9885150286098
 30
0.0
 11
908.9101453021603
 21
877.359249827781
 31
0.0
1001
ACAD
1010
0.0
1020
0.0
1030
0.0
  0
LINE
  5
1386
330
18B
100
AcDbEntity
  8
0
  6
Continuous
 62
     4
100
AcDbLine
 10
877.5394105029873
 20
835.3819133108119
 30
0.0
 11
906.6043623702256
 21
864.4468651780487
 31
0.0
1001
ACAD
1010
0.0
1020
0.0
1030
0.0
  0
LINE
  5
1387
330
18B
100
AcDbEntity
  8
0
  6
Continuous
 62
     4
100
AcDbLine
 10
877.5394105029873
 20
824.7753115930139
 30
0.0
 11
904.2985794382913
 21
851.5344805283167
 31
0.0
1001
ACAD
1010
0.0
1020
0.0
1030
0.0
  0
LINE
  5
1388
330
18B
100
AcDbEntity
  8
0
  6
Continuous
 62
     4
100
AcDbLine
 10
877.5394105029873
 20
814.1687098752161
 30
0.0
 11
901.9927965063564
 21
838.6220958785843
 31
0.0
1001
ACAD
1010
0.0
1020
0.0
1030
0.0
  0
LINE
  5
1389
330
18B
100
AcDbEntity
  8
0
  6
Continuous
 62
     4
100
AcDbLine
 10
877.5394105029873
 20
803.5621081574181
 30
0.0
 11
899.687013574422
 21
825.7097112288519
 31
0.0
1001
ACAD
1010
0.0
1020
0.0
1030
0.0
  0
LINE
  5
138A
330
18B
100
AcDbEntity
  8
0
  6
Continuous
 62
     4
100
AcDbLine
 10
877.5394105029873
 20
792.95550643962
 30
0.0
 11
897.9176404793902
 21
813.3337364160219
 31
0.0
1001
ACAD
1010
0.0
1020
0.0
1030
0.0
  0
LINE
  5
138B
330
18B
100
AcDbEntity
  8
0
  6
Continuous
 62
     4
100
AcDbLine
 10
877.5394105029873
 20
782.3489047218222
 30
0.0
 11
896.8986070216395
 21
801.7081012404732
 31
0.0
1001
ACAD
1010
0.0
1020
0.0
1030
0.0
  0
LINE
  5
138C
330
18B
100
AcDbEntity
  8
0
  6
Continuous
 62
     4
100
AcDbLine
 10
877.5394105029873
 20
771.7423030040241
 30
0.0
 11
895.879573563889
 21
790.0824660649249
 31
0.0
1001
ACAD
1010
0.0
1020
0.0
1030
0.0
  0
LINE
  5
138D
330
18B
100
AcDbEntity
  8
0
  6
Continuous
 62
     4
100
AcDbLine
 10
877.5394105029873
 20
761.1357012862262
 30
0.0
 11
895.5394105029872
 21
779.1357012862248
 31
0.0
1001
ACAD
1010
0.0
1020
0.0
1030
0.0
  0
LINE
  5
138E
330
18B
100
AcDbEntity
  8
0
  6
Continuous
 62
     4
100
AcDbLine
 10
877.5394105029873
 20
750.5290995684281
 30
0.0
 11
895.5394105029867
 21
768.5290995684272
 31
0.0
1001
ACAD
1010
0.0
1020
0.0
1030
0.0
  0
LINE
  5
138F
330
18B
100
AcDbEntity
  8
0
  6
Continuous
 62
     4
100
AcDbLine
 10
877.5394105029873
 20
739.9224978506306
 30
0.0
 11
895.5394105029872
 21
757.9224978506292
 31
0.0
1001
ACAD
1010
0.0
1020
0.0
1030
0.0
  0
LINE
  5
1390
330
18B
100
AcDbEntity
  8
0
  6
Continuous
 62
     4
100
AcDbLine
 10
877.5394105029873
 20
729.3158961328322
 30
0.0
 11
895.5394105029872
 21
747.3158961328314
 31
0.0
1001
ACAD
1010
0.0
1020
0.0
1030
0.0
  0
LINE
  5
1391
330
18B
100
AcDbEntity
  8
0
  6
Continuous
 62
     4
100
AcDbLine
 10
928.2142251151544
 20
928.4831347941693
 30
0.0
 11
973.2142251151554
 21
973.4831347941693
 31
0.0
1001
ACAD
1010
0.0
1020
0.0
1030
0.0
  0
LINE
  5
1392
330
18B
100
AcDbEntity
  8
0
  6
Continuous
 62
     4
100
AcDbLine
 10
877.5394105029873
 20
888.4149218998029
 30
0.0
 11
962.6076233973563
 21
973.4831347941693
 31
0.0
1001
ACAD
1010
0.0
1020
0.0
1030
0.0
  0
LINE
  5
1393
330
18B
100
AcDbEntity
  8
0
  6
Continuous
 62
     4
100
AcDbLine
 10
877.5394105029873
 20
899.0215236176013
 30
0.0
 11
952.0010216795579
 21
973.4831347941693
 31
0.0
1001
ACAD
1010
0.0
1020
0.0
1030
0.0
  0
LINE
  5
1394
330
18B
100
AcDbEntity
  8
0
  6
Continuous
 62
     4
100
AcDbLine
 10
877.5394105029873
 20
909.6281253353993
 30
0.0
 11
941.3944199617594
 21
973.4831347941693
 31
0.0
1001
ACAD
1010
0.0
1020
0.0
1030
0.0
  0
LINE
  5
1395
330
18B
100
AcDbEntity
  8
0
  6
Continuous
 62
     4
100
AcDbLine
 10
877.5394105029873
 20
920.2347270531976
 30
0.0
 11
930.7878182439607
 21
973.4831347941693
 31
0.0
1001
ACAD
1010
0.0
1020
0.0
1030
0.0
  0
LINE
  5
1396
330
18B
100
AcDbEntity
  8
0
  6
Continuous
 62
     4
100
AcDbLine
 10
877.5394105029873
 20
930.8413287709958
 30
0.0
 11
920.1812165261625
 21
973.4831347941693
 31
0.0
1001
ACAD
1010
0.0
1020
0.0
1030
0.0
  0
LINE
  5
1397
330
18B
100
AcDbEntity
  8
0
  6
Continuous
 62
     4
100
AcDbLine
 10
877.5394105029873
 20
941.4479304887942
 30
0.0
 11
918.0394105029865
 21
981.9479304887918
 31
0.0
1001
ACAD
1010
0.0
1020
0.0
1030
0.0
  0
LINE
  5
1398
330
18B
100
AcDbEntity
  8
0
  6
Continuous
 62
     4
100
AcDbLine
 10
877.5394105029873
 20
952.0545322065922
 30
0.0
 11
907.9680130905654
 21
982.4831347941694
 31
0.0
1001
ACAD
1010
0.0
1020
0.0
1030
0.0
  0
LINE
  5
1399
330
18B
100
AcDbEntity
  8
0
  6
Continuous
 62
     4
100
AcDbLine
 10
877.5394105029873
 20
962.6611339243906
 30
0.0
 11
897.3614113727666
 21
982.4831347941694
 31
0.0
1001
ACAD
1010
0.0
1020
0.0
1030
0.0
  0
LINE
  5
139A
330
18B
100
AcDbEntity
  8
0
  6
Continuous
 62
     4
100
AcDbLine
 10
877.5394105029873
 20
973.2677356421888
 30
0.0
 11
886.7548096549681
 21
982.4831347941694
 31
0.0
1001
ACAD
1010
0.0
1020
0.0
1030
0.0
  0
LINE
  5
139B
330
18B
100
AcDbEntity
  8
0
  6
Continuous
 62
     4
100
AcDbLine
 10
1013.067038857544
 20
928.4831347941693
 30
0.0
 11
1026.039410502985
 21
941.4555064396104
 31
0.0
1001
ACAD
1010
0.0
1020
0.0
1030
0.0
  0
LINE
  5
139C
330
18B
100
AcDbEntity
  8
0
  6
Continuous
 62
     4
100
AcDbLine
 10
1023.673640575343
 20
928.4831347941693
 30
0.0
 11
1026.039410502985
 21
930.8489047218124
 31
0.0
1001
ACAD
1010
0.0
1020
0.0
1030
0.0
  0
LINE
  5
139D
330
18B
100
AcDbEntity
  8
0
  6
Continuous
 62
     4
100
AcDbLine
 10
877.5394105029873
 20
718.6455212850552
 30
0.0
 11
895.5394105029872
 21
736.645521285054
 31
0.0
1001
ACAD
1010
0.0
1020
0.0
1030
0.0
  0
LINE
  5
139E
330
18B
100
AcDbEntity
  8
0
  6
Continuous
 62
     4
100
AcDbLine
 10
877.5394105029873
 20
708.0389195672572
 30
0.0
 11
895.5394105029872
 21
726.0389195672561
 31
0.0
1001
ACAD
1010
0.0
1020
0.0
1030
0.0
  0
LINE
  5
139F
330
18B
100
AcDbEntity
  8
0
  6
Continuous
 62
     4
100
AcDbLine
 10
877.5394105029873
 20
697.3685447194797
 30
0.0
 11
895.5394105029872
 21
715.3685447194788
 31
0.0
1001
ACAD
1010
0.0
1020
0.0
1030
0.0
  0
LINE
  5
13A0
330
18B
100
AcDbEntity
  8
0
  6
Continuous
 62
     4
100
AcDbLine
 10
877.5394105029873
 20
686.7619430016817
 30
0.0
 11
895.5394105029872
 21
704.7619430016807
 31
0.0
1001
ACAD
1010
0.0
1020
0.0
1030
0.0
  0
LINE
  5
13A1
330
18B
100
AcDbEntity
  8
0
  6
Continuous
 62
     4
100
AcDbLine
 10
877.5394105029873
 20
676.0915681539047
 30
0.0
 11
895.5394105029872
 21
694.0915681539031
 31
0.0
1001
ACAD
1010
0.0
1020
0.0
1030
0.0
  0
LINE
  5
13A2
330
18B
100
AcDbEntity
  8
0
  6
Continuous
 62
     4
100
AcDbLine
 10
877.5394105029873
 20
665.4849664361067
 30
0.0
 11
895.5394105029872
 21
683.4849664361055
 31
0.0
1001
ACAD
1010
0.0
1020
0.0
1030
0.0
  0
LINE
  5
13A3
330
18B
100
AcDbEntity
  8
0
  6
Continuous
 62
     4
100
AcDbLine
 10
877.5394105029873
 20
654.8145915883292
 30
0.0
 11
895.5394105029872
 21
672.8145915883279
 31
0.0
1001
ACAD
1010
0.0
1020
0.0
1030
0.0
  0
LINE
  5
13A4
330
18B
100
AcDbEntity
  8
0
  6
Continuous
 62
     4
100
AcDbLine
 10
877.5394105029873
 20
644.2079898705314
 30
0.0
 11
895.5394105029872
 21
662.2079898705302
 31
0.0
1001
ACAD
1010
0.0
1020
0.0
1030
0.0
  0
LINE
  5
13A5
330
18B
100
AcDbEntity
  8
0
  6
Continuous
 62
     4
100
AcDbLine
 10
877.5394105029873
 20
633.5376150227542
 30
0.0
 11
895.5394105029872
 21
651.5376150227528
 31
0.0
1001
ACAD
1010
0.0
1020
0.0
1030
0.0
  0
LINE
  5
13A6
330
18B
100
AcDbEntity
  8
0
  6
Continuous
 62
     4
100
AcDbLine
 10
877.5394105029873
 20
622.9310133049563
 30
0.0
 11
895.5394105029872
 21
640.9310133049549
 31
0.0
1001
ACAD
1010
0.0
1020
0.0
1030
0.0
  0
LINE
  5
13A7
330
18B
100
AcDbEntity
  8
0
  6
Continuous
 62
     4
100
AcDbLine
 10
877.5394105029873
 20
612.2606384571787
 30
0.0
 11
895.5394105029872
 21
630.2606384571775
 31
0.0
1001
ACAD
1010
0.0
1020
0.0
1030
0.0
  0
LINE
  5
13A8
330
18B
100
AcDbEntity
  8
0
  6
Continuous
 62
     4
100
AcDbLine
 10
877.5394105029873
 20
601.6540367393806
 30
0.0
 11
895.5394105029872
 21
619.6540367393796
 31
0.0
1001
ACAD
1010
0.0
1020
0.0
1030
0.0
  0
LINE
  5
13A9
330
18B
100
AcDbEntity
  8
0
  6
Continuous
 62
     4
100
AcDbLine
 10
877.5394105029873
 20
590.9836618916036
 30
0.0
 11
895.5394105029872
 21
608.9836618916022
 31
0.0
1001
ACAD
1010
0.0
1020
0.0
1030
0.0
  0
LINE
  5
13AA
330
18B
100
AcDbEntity
  8
0
  6
Continuous
 62
     4
100
AcDbLine
 10
877.5394105029873
 20
580.3770601738055
 30
0.0
 11
895.5394105029872
 21
598.3770601738044
 31
0.0
1001
ACAD
1010
0.0
1020
0.0
1030
0.0
  0
LINE
  5
13AB
330
18B
100
AcDbEntity
  8
0
  6
Continuous
 62
     4
100
AcDbLine
 10
877.5394105029873
 20
569.7066853260284
 30
0.0
 11
895.5394105029872
 21
587.706685326027
 31
0.0
1001
ACAD
1010
0.0
1020
0.0
1030
0.0
  0
LINE
  5
13AC
330
18B
100
AcDbEntity
  8
0
  6
Continuous
 62
     4
100
AcDbLine
 10
877.5394105029873
 20
559.1000836082303
 30
0.0
 11
898.3306988324562
 21
579.8913719376984
 31
0.0
1001
ACAD
1010
0.0
1020
0.0
1030
0.0
  0
LINE
  5
13AD
330
18B
100
AcDbEntity
  8
0
  6
Continuous
 62
     4
100
AcDbLine
 10
877.5394105029873
 20
548.4297087604528
 30
0.0
 11
900.5895846456537
 21
571.4798829031183
 31
0.0
1001
ACAD
1010
0.0
1020
0.0
1030
0.0
  0
LINE
  5
13AE
330
18B
100
AcDbEntity
  8
0
  6
Continuous
 62
     4
100
AcDbLine
 10
877.5394105029873
 20
537.8231070426549
 30
0.0
 11
902.8349698817283
 21
563.1186664213942
 31
0.0
1001
ACAD
1010
0.0
1020
0.0
1030
0.0
  0
LINE
  5
13AF
330
18B
100
AcDbEntity
  8
0
  6
Continuous
 62
     4
100
AcDbLine
 10
877.5394105029873
 20
527.1527321948776
 30
0.0
 11
905.0938556949256
 21
554.7071773868139
 31
0.0
1001
ACAD
1010
0.0
1020
0.0
1030
0.0
  0
LINE
  5
13B0
330
18B
100
AcDbEntity
  8
0
  6
Continuous
 62
     4
100
AcDbLine
 10
877.5394105029873
 20
516.5461304770794
 30
0.0
 11
907.339240930999
 21
546.3459609050901
 31
0.0
1001
ACAD
1010
0.0
1020
0.0
1030
0.0
  0
LINE
  5
13B1
330
18B
100
AcDbEntity
  8
0
  6
Continuous
 62
     4
100
AcDbLine
 10
877.5394105029873
 20
505.8757556293024
 30
0.0
 11
909.5981267441967
 21
537.9344718705096
 31
0.0
1001
ACAD
1010
0.0
1020
0.0
1030
0.0
  0
LINE
  5
13B2
330
18B
100
AcDbEntity
  8
0
  6
Continuous
 62
     4
100
AcDbLine
 10
877.5394105029873
 20
495.2691539115043
 30
0.0
 11
911.8435119802702
 21
529.5732553887858
 31
0.0
1001
ACAD
1010
0.0
1020
0.0
1030
0.0
  0
LINE
  5
13B3
330
18B
100
AcDbEntity
  8
0
  6
Continuous
 62
     4
100
AcDbLine
 10
877.5394105029873
 20
484.5987790637271
 30
0.0
 11
914.1023977934676
 21
521.1617663542056
 31
0.0
1001
ACAD
1010
0.0
1020
0.0
1030
0.0
  0
LINE
  5
13B4
330
18B
100
AcDbEntity
  8
0
  6
Continuous
 62
     4
100
AcDbLine
 10
877.5394105029873
 20
473.992177345929
 30
0.0
 11
916.3477830295418
 21
512.8005498724818
 31
0.0
1001
ACAD
1010
0.0
1020
0.0
1030
0.0
  0
LINE
  5
13B5
330
18B
100
AcDbEntity
  8
0
  6
Continuous
 62
     4
100
AcDbLine
 10
877.5394105029873
 20
463.3218024981517
 30
0.0
 11
918.60666884274
 21
504.3890608379013
 31
0.0
1001
ACAD
1010
0.0
1020
0.0
1030
0.0
  0
LINE
  5
13B6
330
18B
100
AcDbEntity
  8
0
  6
Continuous
 62
     4
100
AcDbLine
 10
877.5394105029873
 20
452.7152007803537
 30
0.0
 11
920.852054078813
 21
496.0278443561777
 31
0.0
1001
ACAD
1010
0.0
1020
0.0
1030
0.0
  0
LINE
  5
13B7
330
18B
100
AcDbEntity
  8
0
  6
Continuous
 62
     4
100
AcDbLine
 10
877.5394105029873
 20
442.0448259325763
 30
0.0
 11
923.1109398920109
 21
487.6163553215972
 31
0.0
1001
ACAD
1010
0.0
1020
0.0
1030
0.0
  0
LINE
  5
13B8
330
18B
100
AcDbEntity
  8
0
  6
Continuous
 62
     4
100
AcDbLine
 10
877.5394105029873
 20
431.4382242147781
 30
0.0
 11
925.3563251280846
 21
479.2551388398733
 31
0.0
1001
ACAD
1010
0.0
1020
0.0
1030
0.0
  0
LINE
  5
13B9
330
18B
100
AcDbEntity
  8
0
  6
Continuous
 62
     4
100
AcDbLine
 10
878.6021335246331
 20
421.8943455186261
 30
0.0
 11
927.0394105029872
 21
470.3316224969776
 31
0.0
1001
ACAD
1010
0.0
1020
0.0
1030
0.0
  0
LINE
  5
13BA
330
18B
100
AcDbEntity
  8
0
  6
Continuous
 62
     4
100
AcDbLine
 10
879.7174662061552
 20
412.4030764823498
 30
0.0
 11
927.0394105029872
 21
459.7250207791795
 31
0.0
1001
ACAD
1010
0.0
1020
0.0
1030
0.0
  0
LINE
  5
13BB
330
18B
100
AcDbEntity
  8
0
  6
Continuous
 62
     4
100
AcDbLine
 10
880.8327988876767
 20
402.9118074460734
 30
0.0
 11
927.0394105029872
 21
449.1184190613813
 31
0.0
1001
ACAD
1010
0.0
1020
0.0
1030
0.0
  0
LINE
  5
13BC
330
18B
100
AcDbEntity
  8
0
  6
Continuous
 62
     4
100
AcDbLine
 10
881.9481315691987
 20
393.4205384097971
 30
0.0
 11
927.0394105029872
 21
438.5118173435831
 31
0.0
1001
ACAD
1010
0.0
1020
0.0
1030
0.0
  0
LINE
  5
13BD
330
18B
100
AcDbEntity
  8
0
  6
Continuous
 62
     4
100
AcDbLine
 10
905.1680154481481
 20
406.0338205709467
 30
0.0
 11
927.0394105029872
 21
427.9052156257845
 31
0.0
1001
ACAD
1010
0.0
1020
0.0
1030
0.0
  0
LINE
  5
13BE
330
18B
100
AcDbEntity
  8
0
  6
Continuous
 62
     4
100
AcDbLine
 10
666.0394105029868
 20
963.2931682803466
 30
0.0
 11
676.2293770168097
 21
973.4831347941693
 31
0.0
1001
ACAD
1010
0.0
1020
0.0
1030
0.0
  0
LINE
  5
13BF
330
18B
100
AcDbEntity
  8
0
  6
Continuous
 62
     4
100
AcDbLine
 10
666.0394105029872
 20
952.6865665625487
 30
0.0
 11
686.8359787346076
 21
973.4831347941693
 31
0.0
1001
ACAD
1010
0.0
1020
0.0
1030
0.0
  0
LINE
  5
13C0
330
18B
100
AcDbEntity
  8
0
  6
Continuous
 62
     4
100
AcDbLine
 10
666.0394105029872
 20
942.0799648447506
 30
0.0
 11
697.4425804524063
 21
973.4831347941693
 31
0.0
1001
ACAD
1010
0.0
1020
0.0
1030
0.0
  0
LINE
  5
13C1
330
18B
100
AcDbEntity
  8
0
  6
Continuous
 62
     4
100
AcDbLine
 10
666.0394105029868
 20
931.4733631269517
 30
0.0
 11
708.0491821702042
 21
973.4831347941693
 31
0.0
1001
ACAD
1010
0.0
1020
0.0
1030
0.0
  0
LINE
  5
13C2
330
18B
100
AcDbEntity
  8
0
  6
Continuous
 62
     4
100
AcDbLine
 10
673.6557838880026
 20
928.4831347941693
 30
0.0
 11
718.6557838880035
 21
973.4831347941693
 31
0.0
1001
ACAD
1010
0.0
1020
0.0
1030
0.0
  0
LINE
  5
13C3
330
18B
100
AcDbEntity
  8
0
  6
Continuous
 62
     4
100
AcDbLine
 10
684.2623856058012
 20
928.4831347941693
 30
0.0
 11
729.2623856058012
 21
973.4831347941693
 31
0.0
1001
ACAD
1010
0.0
1020
0.0
1030
0.0
  0
LINE
  5
13C4
330
18B
100
AcDbEntity
  8
0
  6
Continuous
 62
     4
100
AcDbLine
 10
694.8689873235998
 20
928.4831347941693
 30
0.0
 11
739.8689873235999
 21
973.4831347941693
 31
0.0
1001
ACAD
1010
0.0
1020
0.0
1030
0.0
  0
LINE
  5
13C5
330
18B
100
AcDbEntity
  8
0
  6
Continuous
 62
     4
100
AcDbLine
 10
705.475589041398
 20
928.4831347941693
 30
0.0
 11
750.4755890413981
 21
973.4831347941693
 31
0.0
1001
ACAD
1010
0.0
1020
0.0
1030
0.0
  0
LINE
  5
13C6
330
18B
100
AcDbEntity
  8
0
  6
Continuous
 62
     4
100
AcDbLine
 10
716.0821907591968
 20
928.4831347941693
 30
0.0
 11
761.0821907591968
 21
973.4831347941693
 31
0.0
1001
ACAD
1010
0.0
1020
0.0
1030
0.0
  0
LINE
  5
13C7
330
18B
100
AcDbEntity
  8
0
  6
Continuous
 62
     4
100
AcDbLine
 10
726.688792476995
 20
928.4831347941693
 30
0.0
 11
771.688792476995
 21
973.4831347941693
 31
0.0
1001
ACAD
1010
0.0
1020
0.0
1030
0.0
  0
LINE
  5
13C8
330
18B
100
AcDbEntity
  8
0
  6
Continuous
 62
     4
100
AcDbLine
 10
774.0394105029868
 20
975.8337528201616
 30
0.0
 11
780.688792476995
 21
982.4831347941694
 31
0.0
1001
ACAD
1010
0.0
1020
0.0
1030
0.0
  0
LINE
  5
13C9
330
18B
100
AcDbEntity
  8
0
  6
Continuous
 62
     4
100
AcDbLine
 10
737.2953941947935
 20
928.4831347941693
 30
0.0
 11
791.2953941947935
 21
982.4831347941694
 31
0.0
1001
ACAD
1010
0.0
1020
0.0
1030
0.0
  0
LINE
  5
13CA
330
18B
100
AcDbEntity
  8
0
  6
Continuous
 62
     4
100
AcDbLine
 10
747.9019959125917
 20
928.4831347941693
 30
0.0
 11
801.9019959125916
 21
982.4831347941694
 31
0.0
1001
ACAD
1010
0.0
1020
0.0
1030
0.0
  0
LINE
  5
13CB
330
18B
100
AcDbEntity
  8
0
  6
Continuous
 62
     4
100
AcDbLine
 10
758.5085976303899
 20
928.4831347941693
 30
0.0
 11
812.5085976303894
 21
982.4831347941694
 31
0.0
1001
ACAD
1010
0.0
1020
0.0
1030
0.0
  0
LINE
  5
13CC
330
18B
100
AcDbEntity
  8
0
  6
Continuous
 62
     4
100
AcDbLine
 10
766.8951828757284
 20
926.263118321709
 30
0.0
 11
814.5394105029872
 21
973.9073459489675
 31
0.0
1001
ACAD
1010
0.0
1020
0.0
1030
0.0
  0
LINE
  5
13CD
330
18B
100
AcDbEntity
  8
0
  6
Continuous
 62
     4
100
AcDbLine
 10
772.6682769441026
 20
921.4296106722848
 30
0.0
 11
814.5394105029872
 21
963.3007442311694
 31
0.0
1001
ACAD
1010
0.0
1020
0.0
1030
0.0
  0
LINE
  5
13CE
330
18B
100
AcDbEntity
  8
0
  6
Continuous
 62
     4
100
AcDbLine
 10
776.5074397614857
 20
914.6621717718693
 30
0.0
 11
814.5394105029872
 21
952.694142513371
 31
0.0
1001
ACAD
1010
0.0
1020
0.0
1030
0.0
  0
LINE
  5
13CF
330
18B
100
AcDbEntity
  8
0
  6
Continuous
 62
     4
100
AcDbLine
 10
778.1145006034358
 20
905.6626308960206
 30
0.0
 11
814.5394105029872
 21
942.0875407955724
 31
0.0
1001
ACAD
1010
0.0
1020
0.0
1030
0.0
  0
LINE
  5
13D0
330
18B
100
AcDbEntity
  8
0
  6
Continuous
 62
     4
100
AcDbLine
 10
779.7215614453853
 20
896.6630900201721
 30
0.0
 11
814.5394105029872
 21
931.4809390777742
 31
0.0
1001
ACAD
1010
0.0
1020
0.0
1030
0.0
  0
LINE
  5
13D1
330
18B
100
AcDbEntity
  8
0
  6
Continuous
 62
     4
100
AcDbLine
 10
781.3286222873352
 20
887.6635491443234
 30
0.0
 11
814.5394105029872
 21
920.8743373599755
 31
0.0
1001
ACAD
1010
0.0
1020
0.0
1030
0.0
  0
LINE
  5
13D2
330
18B
100
AcDbEntity
  8
0
  6
Continuous
 62
     4
100
AcDbLine
 10
782.9356831292848
 20
878.6640082684748
 30
0.0
 11
814.5394105029868
 21
910.2677356421773
 31
0.0
1001
ACAD
1010
0.0
1020
0.0
1030
0.0
  0
LINE
  5
13D3
330
18B
100
AcDbEntity
  8
0
  6
Continuous
 62
     4
100
AcDbLine
 10
784.5427439712342
 20
869.6644673926261
 30
0.0
 11
814.5394105029872
 21
899.661133924379
 31
0.0
1001
ACAD
1010
0.0
1020
0.0
1030
0.0
  0
LINE
  5
13D4
330
18B
100
AcDbEntity
  8
0
  6
Continuous
 62
     4
100
AcDbLine
 10
786.1498048131842
 20
860.6649265167773
 30
0.0
 11
814.5394105029868
 21
889.0545322065806
 31
0.0
1001
ACAD
1010
0.0
1020
0.0
1030
0.0
  0
LINE
  5
13D5
330
18B
100
AcDbEntity
  8
0
  6
Continuous
 62
     4
100
AcDbLine
 10
787.7568656551337
 20
851.6653856409288
 30
0.0
 11
814.5394105029872
 21
878.447930488782
 31
0.0
1001
ACAD
1010
0.0
1020
0.0
1030
0.0
  0
LINE
  5
13D6
330
18B
100
AcDbEntity
  8
0
  6
Continuous
 62
     4
100
AcDbLine
 10
789.3639264970834
 20
842.6658447650801
 30
0.0
 11
814.5394105029872
 21
867.8413287709837
 31
0.0
1001
ACAD
1010
0.0
1020
0.0
1030
0.0
  0
LINE
  5
13D7
330
18B
100
AcDbEntity
  8
0
  6
Continuous
 62
     4
100
AcDbLine
 10
790.9709873390334
 20
833.6663038892313
 30
0.0
 11
814.5394105029872
 21
857.2347270531851
 31
0.0
1001
ACAD
1010
0.0
1020
0.0
1030
0.0
  0
LINE
  5
13D8
330
18B
100
AcDbEntity
  8
0
  6
Continuous
 62
     4
100
AcDbLine
 10
792.5780481809834
 20
824.6667630133826
 30
0.0
 11
814.5394105029872
 21
846.6281253353868
 31
0.0
1001
ACAD
1010
0.0
1020
0.0
1030
0.0
  0
LINE
  5
13D9
330
18B
100
AcDbEntity
  8
0
  6
Continuous
 62
     4
100
AcDbLine
 10
793.9750533805678
 20
815.4571664951689
 30
0.0
 11
814.5394105029868
 21
836.0215236175882
 31
0.0
1001
ACAD
1010
0.0
1020
0.0
1030
0.0
  0
LINE
  5
13DA
330
18B
100
AcDbEntity
  8
0
  6
Continuous
 62
     4
100
AcDbLine
 10
794.8298390880403
 20
805.7053504848433
 30
0.0
 11
814.5394105029872
 21
825.41492189979
 31
0.0
1001
ACAD
1010
0.0
1020
0.0
1030
0.0
  0
LINE
  5
13DB
330
18B
100
AcDbEntity
  8
0
  6
Continuous
 62
     4
100
AcDbLine
 10
795.6846247955128
 20
795.953534474517
 30
0.0
 11
814.5394105029872
 21
814.8083201819915
 31
0.0
1001
ACAD
1010
0.0
1020
0.0
1030
0.0
  0
LINE
  5
13DC
330
18B
100
AcDbEntity
  8
0
  6
Continuous
 62
     4
100
AcDbLine
 10
796.5394105029868
 20
786.2017184641928
 30
0.0
 11
814.5394105029868
 21
804.2017184641931
 31
0.0
1001
ACAD
1010
0.0
1020
0.0
1030
0.0
  0
LINE
  5
13DD
330
18B
100
AcDbEntity
  8
0
  6
Continuous
 62
     4
100
AcDbLine
 10
796.5394105029868
 20
775.5951167463946
 30
0.0
 11
814.5394105029868
 21
793.5951167463947
 31
0.0
1001
ACAD
1010
0.0
1020
0.0
1030
0.0
  0
LINE
  5
13DE
330
18B
100
AcDbEntity
  8
0
  6
Continuous
 62
     4
100
AcDbLine
 10
796.5394105029868
 20
764.9885150285962
 30
0.0
 11
814.5394105029868
 21
782.9885150285962
 31
0.0
1001
ACAD
1010
0.0
1020
0.0
1030
0.0
  0
LINE
  5
13DF
330
18B
100
AcDbEntity
  8
0
  6
Continuous
 62
     4
100
AcDbLine
 10
796.5394105029868
 20
754.381913310798
 30
0.0
 11
814.5394105029868
 21
772.3819133107981
 31
0.0
1001
ACAD
1010
0.0
1020
0.0
1030
0.0
  0
LINE
  5
13E0
330
18B
100
AcDbEntity
  8
0
  6
Continuous
 62
     4
100
AcDbLine
 10
796.5394105029868
 20
743.7753115929996
 30
0.0
 11
814.5394105029868
 21
761.7753115929997
 31
0.0
1001
ACAD
1010
0.0
1020
0.0
1030
0.0
  0
LINE
  5
13E1
330
18B
100
AcDbEntity
  8
0
  6
Continuous
 62
     4
100
AcDbLine
 10
796.5394105029868
 20
733.1687098752012
 30
0.0
 11
814.5394105029868
 21
751.1687098752014
 31
0.0
1001
ACAD
1010
0.0
1020
0.0
1030
0.0
  0
LINE
  5
13E2
330
18B
100
AcDbEntity
  8
0
  6
Continuous
 62
     4
100
AcDbLine
 10
796.5394105029868
 20
722.5621081574027
 30
0.0
 11
814.5394105029868
 21
740.5621081574031
 31
0.0
1001
ACAD
1010
0.0
1020
0.0
1030
0.0
  0
LINE
  5
13E3
330
18B
100
AcDbEntity
  8
0
  6
Continuous
 62
     4
100
AcDbLine
 10
796.5394105029868
 20
711.9555064396048
 30
0.0
 11
814.5394105029868
 21
729.955506439605
 31
0.0
1001
ACAD
1010
0.0
1020
0.0
1030
0.0
  0
LINE
  5
13E4
330
18B
100
AcDbEntity
  8
0
  6
Continuous
 62
     4
100
AcDbLine
 10
796.5394105029868
 20
701.3489047218062
 30
0.0
 11
814.5394105029868
 21
719.3489047218066
 31
0.0
1001
ACAD
1010
0.0
1020
0.0
1030
0.0
  0
LINE
  5
13E5
330
18B
100
AcDbEntity
  8
0
  6
Continuous
 62
     4
100
AcDbLine
 10
796.5394105029868
 20
690.7423030040081
 30
0.0
 11
814.5394105029868
 21
708.7423030040081
 31
0.0
1001
ACAD
1010
0.0
1020
0.0
1030
0.0
  0
LINE
  5
13E6
330
18B
100
AcDbEntity
  8
0
  6
Continuous
 62
     4
100
AcDbLine
 10
796.5394105029868
 20
680.1357012862097
 30
0.0
 11
814.5394105029868
 21
698.13570128621
 31
0.0
1001
ACAD
1010
0.0
1020
0.0
1030
0.0
  0
LINE
  5
13E7
330
18B
100
AcDbEntity
  8
0
  6
Continuous
 62
     4
100
AcDbLine
 10
796.5394105029868
 20
669.5290995684116
 30
0.0
 11
814.5394105029868
 21
687.5290995684117
 31
0.0
1001
ACAD
1010
0.0
1020
0.0
1030
0.0
  0
LINE
  5
13E8
330
18B
100
AcDbEntity
  8
0
  6
Continuous
 62
     4
100
AcDbLine
 10
796.5394105029868
 20
658.9224978506132
 30
0.0
 11
814.5394105029868
 21
676.9224978506135
 31
0.0
1001
ACAD
1010
0.0
1020
0.0
1030
0.0
  0
LINE
  5
13E9
330
18B
100
AcDbEntity
  8
0
  6
Continuous
 62
     4
100
AcDbLine
 10
796.5394105029868
 20
648.315896132815
 30
0.0
 11
814.5394105029868
 21
666.315896132815
 31
0.0
1001
ACAD
1010
0.0
1020
0.0
1030
0.0
  0
LINE
  5
13EA
330
18B
100
AcDbEntity
  8
0
  6
Continuous
 62
     4
100
AcDbLine
 10
796.5394105029868
 20
637.7092944150168
 30
0.0
 11
814.5394105029868
 21
655.7092944150167
 31
0.0
1001
ACAD
1010
0.0
1020
0.0
1030
0.0
  0
LINE
  5
13EB
330
18B
100
AcDbEntity
  8
0
  6
Continuous
 62
     4
100
AcDbLine
 10
796.5394105029868
 20
627.1026926972182
 30
0.0
 11
814.5394105029868
 21
645.1026926972182
 31
0.0
1001
ACAD
1010
0.0
1020
0.0
1030
0.0
  0
LINE
  5
13EC
330
18B
100
AcDbEntity
  8
0
  6
Continuous
 62
     4
100
AcDbLine
 10
796.5394105029868
 20
616.49609097942
 30
0.0
 11
814.5394105029868
 21
634.4960909794203
 31
0.0
1001
ACAD
1010
0.0
1020
0.0
1030
0.0
  0
LINE
  5
13ED
330
18B
100
AcDbEntity
  8
0
  6
Continuous
 62
     4
100
AcDbLine
 10
796.5394105029868
 20
605.8894892616217
 30
0.0
 11
814.5394105029868
 21
623.889489261622
 31
0.0
1001
ACAD
1010
0.0
1020
0.0
1030
0.0
  0
LINE
  5
13EE
330
18B
100
AcDbEntity
  8
0
  6
Continuous
 62
     4
100
AcDbLine
 10
796.5394105029868
 20
595.2828875438235
 30
0.0
 11
814.5394105029868
 21
613.2828875438236
 31
0.0
1001
ACAD
1010
0.0
1020
0.0
1030
0.0
  0
LINE
  5
13EF
330
18B
100
AcDbEntity
  8
0
  6
Continuous
 62
     4
100
AcDbLine
 10
794.4800680393064
 20
582.6169433623447
 30
0.0
 11
814.5394105029868
 21
602.6762858260252
 31
0.0
1001
ACAD
1010
0.0
1020
0.0
1030
0.0
  0
LINE
  5
13F0
330
18B
100
AcDbEntity
  8
0
  6
Continuous
 62
     4
100
AcDbLine
 10
790.5859274154959
 20
568.1162010207357
 30
0.0
 11
814.5394105029868
 21
592.069684108227
 31
0.0
1001
ACAD
1010
0.0
1020
0.0
1030
0.0
  0
LINE
  5
13F1
330
18B
100
AcDbEntity
  8
0
  6
Continuous
 62
     4
100
AcDbLine
 10
786.691786791685
 20
553.6154586791268
 30
0.0
 11
814.5394105029868
 21
581.4630823904288
 31
0.0
1001
ACAD
1010
0.0
1020
0.0
1030
0.0
  0
LINE
  5
13F2
330
18B
100
AcDbEntity
  8
0
  6
Continuous
 62
     4
100
AcDbLine
 10
782.7976461678744
 20
539.1147163375177
 30
0.0
 11
814.5394105029868
 21
570.8564806726302
 31
0.0
1001
ACAD
1010
0.0
1020
0.0
1030
0.0
  0
LINE
  5
13F3
330
18B
100
AcDbEntity
  8
0
  6
Continuous
 62
     4
100
AcDbLine
 10
778.903505544064
 20
524.6139739959088
 30
0.0
 11
814.5394105029868
 21
560.2498789548318
 31
0.0
1001
ACAD
1010
0.0
1020
0.0
1030
0.0
  0
LINE
  5
13F4
330
18B
100
AcDbEntity
  8
0
  6
Continuous
 62
     4
100
AcDbLine
 10
775.0093649202531
 20
510.1132316543
 30
0.0
 11
814.5394105029868
 21
549.6432772370337
 31
0.0
1001
ACAD
1010
0.0
1020
0.0
1030
0.0
  0
LINE
  5
13F5
330
18B
100
AcDbEntity
  8
0
  6
Continuous
 62
     4
100
AcDbLine
 10
771.1152242964425
 20
495.6124893126911
 30
0.0
 11
814.5394105029868
 21
539.0366755192355
 31
0.0
1001
ACAD
1010
0.0
1020
0.0
1030
0.0
  0
LINE
  5
13F6
330
18B
100
AcDbEntity
  8
0
  6
Continuous
 62
     4
100
AcDbLine
 10
767.2210836726321
 20
481.1117469710821
 30
0.0
 11
814.5394105029868
 21
528.4300738014373
 31
0.0
1001
ACAD
1010
0.0
1020
0.0
1030
0.0
  0
LINE
  5
13F7
330
18B
100
AcDbEntity
  8
0
  6
Continuous
 62
     4
100
AcDbLine
 10
765.0394105029873
 20
468.3234720836388
 30
0.0
 11
814.5394105029868
 21
517.823472083639
 31
0.0
1001
ACAD
1010
0.0
1020
0.0
1030
0.0
  0
LINE
  5
13F8
330
18B
100
AcDbEntity
  8
0
  6
Continuous
 62
     4
100
AcDbLine
 10
765.0394105029873
 20
457.7168703658405
 30
0.0
 11
814.5394105029868
 21
507.2168703658406
 31
0.0
1001
ACAD
1010
0.0
1020
0.0
1030
0.0
  0
LINE
  5
13F9
330
18B
100
AcDbEntity
  8
0
  6
Continuous
 62
     4
100
AcDbLine
 10
765.0394105029873
 20
447.1102686480421
 30
0.0
 11
814.5394105029868
 21
496.6102686480422
 31
0.0
1001
ACAD
1010
0.0
1020
0.0
1030
0.0
  0
LINE
  5
13FA
330
18B
100
AcDbEntity
  8
0
  6
Continuous
 62
     4
100
AcDbLine
 10
765.0394105029873
 20
436.503666930244
 30
0.0
 11
814.5394105029868
 21
486.0036669302441
 31
0.0
1001
ACAD
1010
0.0
1020
0.0
1030
0.0
  0
LINE
  5
13FB
330
18B
100
AcDbEntity
  8
0
  6
Continuous
 62
     4
100
AcDbLine
 10
765.0394105029873
 20
425.8970652124455
 30
0.0
 11
814.5394105029868
 21
475.3970652124458
 31
0.0
1001
ACAD
1010
0.0
1020
0.0
1030
0.0
  0
LINE
  5
13FC
330
18B
100
AcDbEntity
  8
0
  6
Continuous
 62
     4
100
AcDbLine
 10
769.4208170361867
 20
419.6718700278472
 30
0.0
 11
814.5394105029868
 21
464.7904634946475
 31
0.0
1001
ACAD
1010
0.0
1020
0.0
1030
0.0
  0
LINE
  5
13FD
330
18B
100
AcDbEntity
  8
0
  6
Continuous
 62
     4
100
AcDbLine
 10
775.380374860737
 20
415.0248261345987
 30
0.0
 11
814.5394105029868
 21
454.1838617768491
 31
0.0
1001
ACAD
1010
0.0
1020
0.0
1030
0.0
  0
LINE
  5
13FE
330
18B
100
AcDbEntity
  8
0
  6
Continuous
 62
     4
100
AcDbLine
 10
781.3399326852867
 20
410.3777822413504
 30
0.0
 11
814.5394105029868
 21
443.5772600590508
 31
0.0
1001
ACAD
1010
0.0
1020
0.0
1030
0.0
  0
LINE
  5
13FF
330
18B
100
AcDbEntity
  8
0
  6
Continuous
 62
     4
100
AcDbLine
 10
787.2994905098367
 20
405.730738348102
 30
0.0
 11
814.5394105029868
 21
432.9706583412526
 31
0.0
1001
ACAD
1010
0.0
1020
0.0
1030
0.0
  0
LINE
  5
1400
330
18B
100
AcDbEntity
  8
0
  6
Continuous
 62
     4
100
AcDbLine
 10
793.2590483343862
 20
401.0836944548533
 30
0.0
 11
813.3129293858377
 21
421.1375755063051
 31
0.0
1001
ACAD
1010
0.0
1020
0.0
1030
0.0
  0
LINE
  5
1401
330
18B
100
AcDbEntity
  8
0
  6
Continuous
 62
     4
100
AcDbLine
 10
799.2186061589363
 20
396.4366505616053
 30
0.0
 11
811.9316023765559
 21
409.1496467792246
 31
0.0
1001
ACAD
1010
0.0
1020
0.0
1030
0.0
  0
LINE
  5
1402
330
18B
100
AcDbEntity
  8
0
  6
Continuous
 62
     4
100
AcDbLine
 10
805.1781639834862
 20
391.7896066683567
 30
0.0
 11
810.5502753672739
 21
397.1617180521444
 31
0.0
1001
ACAD
1010
0.0
1020
0.0
1030
0.0
  0
LINE
  5
1403
330
18B
100
AcDbEntity
  8
0
  6
Continuous
 62
     4
100
AcDbLine
 10
579.0071324324448
 20
383.7553677953281
 30
0.0
 11
583.6406319863522
 21
388.3888673492354
 31
0.0
1001
ACAD
1010
0.0
1020
0.0
1030
0.0
  0
LINE
  5
1404
330
18B
100
AcDbEntity
  8
0
  6
Continuous
 62
     4
100
AcDbLine
 10
579.0071324324452
 20
373.1487660775298
 30
0.0
 11
594.2472337041507
 21
388.3888673492354
 31
0.0
1001
ACAD
1010
0.0
1020
0.0
1030
0.0
  0
LINE
  5
1405
330
18B
100
AcDbEntity
  8
0
  6
Continuous
 62
     4
100
AcDbLine
 10
579.0071324324452
 20
362.5421643597316
 30
0.0
 11
604.8538354219486
 21
388.3888673492354
 31
0.0
1001
ACAD
1010
0.0
1020
0.0
1030
0.0
  0
LINE
  5
1406
330
18B
100
AcDbEntity
  8
0
  6
Continuous
 62
     4
100
AcDbLine
 10
582.9604371397472
 20
355.8888673492353
 30
0.0
 11
615.4604371397472
 21
388.3888673492354
 31
0.0
1001
ACAD
1010
0.0
1020
0.0
1030
0.0
  0
LINE
  5
1407
330
18B
100
AcDbEntity
  8
0
  6
Continuous
 62
     4
100
AcDbLine
 10
593.5670388575454
 20
355.8888673492356
 30
0.0
 11
626.0670388575454
 21
388.3888673492354
 31
0.0
1001
ACAD
1010
0.0
1020
0.0
1030
0.0
  0
LINE
  5
1408
330
18B
100
AcDbEntity
  8
0
  6
Continuous
 62
     4
100
AcDbLine
 10
604.1736405753436
 20
355.8888673492356
 30
0.0
 11
636.6736405753431
 21
388.3888673492354
 31
0.0
1001
ACAD
1010
0.0
1020
0.0
1030
0.0
  0
LINE
  5
1409
330
18B
100
AcDbEntity
  8
0
  6
Continuous
 62
     4
100
AcDbLine
 10
614.7802422931418
 20
355.8888673492353
 30
0.0
 11
647.2802422931412
 21
388.3888673492354
 31
0.0
1001
ACAD
1010
0.0
1020
0.0
1030
0.0
  0
LINE
  5
140A
330
18B
100
AcDbEntity
  8
0
  6
Continuous
 62
     4
100
AcDbLine
 10
625.38684401094
 20
355.8888673492356
 30
0.0
 11
657.8868440109395
 21
388.3888673492354
 31
0.0
1001
ACAD
1010
0.0
1020
0.0
1030
0.0
  0
LINE
  5
140B
330
18B
100
AcDbEntity
  8
0
  6
Continuous
 62
     4
100
AcDbLine
 10
635.9934457287381
 20
355.8888673492356
 30
0.0
 11
668.4934457287377
 21
388.3888673492354
 31
0.0
1001
ACAD
1010
0.0
1020
0.0
1030
0.0
  0
LINE
  5
140C
330
18B
100
AcDbEntity
  8
0
  6
Continuous
 62
     4
100
AcDbLine
 10
646.6000474465362
 20
355.8888673492353
 30
0.0
 11
679.1000474465362
 21
388.3888673492354
 31
0.0
1001
ACAD
1010
0.0
1020
0.0
1030
0.0
  0
LINE
  5
140D
330
18B
100
AcDbEntity
  8
0
  6
Continuous
 62
     4
100
AcDbLine
 10
657.2066491643345
 20
355.8888673492356
 30
0.0
 11
689.7066491643345
 21
388.3888673492354
 31
0.0
1001
ACAD
1010
0.0
1020
0.0
1030
0.0
  0
LINE
  5
140E
330
18B
100
AcDbEntity
  8
0
  6
Continuous
 62
     4
100
AcDbLine
 10
667.8132508821327
 20
355.8888673492356
 30
0.0
 11
700.3132508821322
 21
388.3888673492354
 31
0.0
1001
ACAD
1010
0.0
1020
0.0
1030
0.0
  0
LINE
  5
140F
330
18B
100
AcDbEntity
  8
0
  6
Continuous
 62
     4
100
AcDbLine
 10
678.4198525999303
 20
355.8888673492353
 30
0.0
 11
710.9198525999309
 21
388.3888673492354
 31
0.0
1001
ACAD
1010
0.0
1020
0.0
1030
0.0
  0
LINE
  5
1410
330
18B
100
AcDbEntity
  8
0
  6
Continuous
 62
     4
100
AcDbLine
 10
689.026454317729
 20
355.8888673492356
 30
0.0
 11
721.5264543177286
 21
388.3888673492354
 31
0.0
1001
ACAD
1010
0.0
1020
0.0
1030
0.0
  0
LINE
  5
1411
330
18B
100
AcDbEntity
  8
0
  6
Continuous
 62
     4
100
AcDbLine
 10
699.6330560355271
 20
355.8888673492356
 30
0.0
 11
732.1330560355264
 21
388.3888673492354
 31
0.0
1001
ACAD
1010
0.0
1020
0.0
1030
0.0
  0
LINE
  5
1412
330
18B
100
AcDbEntity
  8
0
  6
Continuous
 62
     4
100
AcDbLine
 10
710.239657753325
 20
355.8888673492353
 30
0.0
 11
742.739657753325
 21
388.3888673492354
 31
0.0
1001
ACAD
1010
0.0
1020
0.0
1030
0.0
  0
LINE
  5
1413
330
18B
100
AcDbEntity
  8
0
  6
Continuous
 62
     4
100
AcDbLine
 10
720.8462594711236
 20
355.8888673492356
 30
0.0
 11
753.3462594711231
 21
388.3888673492354
 31
0.0
1001
ACAD
1010
0.0
1020
0.0
1030
0.0
  0
LINE
  5
1414
330
18B
100
AcDbEntity
  8
0
  6
Continuous
 62
     4
100
AcDbLine
 10
731.4528611889218
 20
355.8888673492356
 30
0.0
 11
763.9528611889218
 21
388.3888673492354
 31
0.0
1001
ACAD
1010
0.0
1020
0.0
1030
0.0
  0
LINE
  5
1415
330
18B
100
AcDbEntity
  8
0
  6
Continuous
 62
     4
100
AcDbLine
 10
742.0594629067196
 20
355.8888673492353
 30
0.0
 11
774.5594629067195
 21
388.3888673492354
 31
0.0
1001
ACAD
1010
0.0
1020
0.0
1030
0.0
  0
LINE
  5
1416
330
18B
100
AcDbEntity
  8
0
  6
Continuous
 62
     4
100
AcDbLine
 10
752.6660646245183
 20
355.8888673492356
 30
0.0
 11
785.1660646245171
 21
388.3888673492354
 31
0.0
1001
ACAD
1010
0.0
1020
0.0
1030
0.0
  0
LINE
  5
1417
330
18B
100
AcDbEntity
  8
0
  6
Continuous
 62
     4
100
AcDbLine
 10
763.2726663423166
 20
355.8888673492356
 30
0.0
 11
795.7726663423162
 21
388.3888673492354
 31
0.0
1001
ACAD
1010
0.0
1020
0.0
1030
0.0
  0
LINE
  5
1418
330
18B
100
AcDbEntity
  8
0
  6
Continuous
 62
     4
100
AcDbLine
 10
773.879268060114
 20
355.8888673492353
 30
0.0
 11
806.3792680601141
 21
388.3888673492354
 31
0.0
1001
ACAD
1010
0.0
1020
0.0
1030
0.0
  0
LINE
  5
1419
330
18B
100
AcDbEntity
  8
0
  6
Continuous
 62
     4
100
AcDbLine
 10
784.4858697779127
 20
355.8888673492355
 30
0.0
 11
809.5394103674552
 21
380.9424079387778
 31
0.0
1001
ACAD
1010
0.0
1020
0.0
1030
0.0
  0
LINE
  5
141A
330
18B
100
AcDbEntity
  8
0
  6
Continuous
 62
     4
100
AcDbLine
 10
795.0924714957112
 20
355.8888673492356
 30
0.0
 11
809.5394101744059
 21
370.3358060279305
 31
0.0
1001
ACAD
1010
0.0
1020
0.0
1030
0.0
  0
LINE
  5
141B
330
18B
100
AcDbEntity
  8
0
  6
Continuous
 62
     4
100
AcDbLine
 10
805.6990732135096
 20
355.8888673492356
 30
0.0
 11
809.5394099813573
 21
359.7292041170832
 31
0.0
1001
ACAD
1010
0.0
1020
0.0
1030
0.0
  0
LINE
  5
141C
330
18B
100
AcDbEntity
  8
0
  6
Continuous
 62
     4
100
AcDbLine
 10
882.5394231372372
 20
383.7553774143373
 30
0.0
 11
887.1729226911446
 21
388.3888769682446
 31
0.0
1001
ACAD
1010
0.0
1020
0.0
1030
0.0
  0
LINE
  5
141D
330
18B
100
AcDbEntity
  8
0
  6
Continuous
 62
     4
100
AcDbLine
 10
882.5394231372372
 20
373.1487756965391
 30
0.0
 11
897.7795244089428
 21
388.3888769682446
 31
0.0
1001
ACAD
1010
0.0
1020
0.0
1030
0.0
  0
LINE
  5
141E
330
18B
100
AcDbEntity
  8
0
  6
Continuous
 62
     4
100
AcDbLine
 10
882.5394231372372
 20
362.5421739787408
 30
0.0
 11
908.3861261267411
 21
388.3888769682446
 31
0.0
1001
ACAD
1010
0.0
1020
0.0
1030
0.0
  0
LINE
  5
141F
330
18B
100
AcDbEntity
  8
0
  6
Continuous
 62
     4
100
AcDbLine
 10
886.4927278445392
 20
355.8888769682447
 30
0.0
 11
918.9927278445392
 21
388.3888769682446
 31
0.0
1001
ACAD
1010
0.0
1020
0.0
1030
0.0
  0
LINE
  5
1420
330
18B
100
AcDbEntity
  8
0
  6
Continuous
 62
     4
100
AcDbLine
 10
897.0993295623371
 20
355.8888769682448
 30
0.0
 11
929.5993295623375
 21
388.3888769682446
 31
0.0
1001
ACAD
1010
0.0
1020
0.0
1030
0.0
  0
LINE
  5
1421
330
18B
100
AcDbEntity
  8
0
  6
Continuous
 62
     4
100
AcDbLine
 10
907.7059312801356
 20
355.8888769682448
 30
0.0
 11
940.2059312801357
 21
388.3888769682446
 31
0.0
1001
ACAD
1010
0.0
1020
0.0
1030
0.0
  0
LINE
  5
1422
330
18B
100
AcDbEntity
  8
0
  6
Continuous
 62
     4
100
AcDbLine
 10
918.3125329979338
 20
355.8888769682447
 30
0.0
 11
950.8125329979339
 21
388.3888769682446
 31
0.0
1001
ACAD
1010
0.0
1020
0.0
1030
0.0
  0
LINE
  5
1423
330
18B
100
AcDbEntity
  8
0
  6
Continuous
 62
     4
100
AcDbLine
 10
928.9191347157327
 20
355.8888769682448
 30
0.0
 11
961.4191347157319
 21
388.3888769682446
 31
0.0
1001
ACAD
1010
0.0
1020
0.0
1030
0.0
  0
LINE
  5
1424
330
18B
100
AcDbEntity
  8
0
  6
Continuous
 62
     4
100
AcDbLine
 10
939.5257364335302
 20
355.8888769682448
 30
0.0
 11
972.0257364335305
 21
388.3888769682446
 31
0.0
1001
ACAD
1010
0.0
1020
0.0
1030
0.0
  0
LINE
  5
1425
330
18B
100
AcDbEntity
  8
0
  6
Continuous
 62
     4
100
AcDbLine
 10
950.1323381513284
 20
355.8888769682447
 30
0.0
 11
982.6323381513285
 21
388.3888769682446
 31
0.0
1001
ACAD
1010
0.0
1020
0.0
1030
0.0
  0
LINE
  5
1426
330
18B
100
AcDbEntity
  8
0
  6
Continuous
 62
     4
100
AcDbLine
 10
960.7389398691271
 20
355.8888769682448
 30
0.0
 11
993.2389398691267
 21
388.3888769682446
 31
0.0
1001
ACAD
1010
0.0
1020
0.0
1030
0.0
  0
LINE
  5
1427
330
18B
100
AcDbEntity
  8
0
  6
Continuous
 62
     4
100
AcDbLine
 10
971.3455415869246
 20
355.8888769682448
 30
0.0
 11
1003.845541586924
 21
388.3888769682446
 31
0.0
1001
ACAD
1010
0.0
1020
0.0
1030
0.0
  0
LINE
  5
1428
330
18B
100
AcDbEntity
  8
0
  6
Continuous
 62
     4
100
AcDbLine
 10
981.9521433047231
 20
355.8888769682447
 30
0.0
 11
1014.452143304721
 21
388.3888769682446
 31
0.0
1001
ACAD
1010
0.0
1020
0.0
1030
0.0
  0
LINE
  5
1429
330
18B
100
AcDbEntity
  8
0
  6
Continuous
 62
     4
100
AcDbLine
 10
992.5587450225211
 20
355.8888769682448
 30
0.0
 11
1025.058745022521
 21
388.3888769682446
 31
0.0
1001
ACAD
1010
0.0
1020
0.0
1030
0.0
  0
LINE
  5
142A
330
18B
100
AcDbEntity
  8
0
  6
Continuous
 62
     4
100
AcDbLine
 10
1003.165346740318
 20
355.8888769682448
 30
0.0
 11
1035.665346740319
 21
388.3888769682446
 31
0.0
1001
ACAD
1010
0.0
1020
0.0
1030
0.0
  0
LINE
  5
142B
330
18B
100
AcDbEntity
  8
0
  6
Continuous
 62
     4
100
AcDbLine
 10
1013.771948458117
 20
355.8888769682447
 30
0.0
 11
1046.271948458117
 21
388.3888769682446
 31
0.0
1001
ACAD
1010
0.0
1020
0.0
1030
0.0
  0
LINE
  5
142C
330
18B
100
AcDbEntity
  8
0
  6
Continuous
 62
     4
100
AcDbLine
 10
1024.378550175915
 20
355.8888769682448
 30
0.0
 11
1056.878550175915
 21
388.3888769682446
 31
0.0
1001
ACAD
1010
0.0
1020
0.0
1030
0.0
  0
LINE
  5
142D
330
18B
100
AcDbEntity
  8
0
  6
Continuous
 62
     4
100
AcDbLine
 10
1034.985151893714
 20
355.8888769682448
 30
0.0
 11
1067.485151893712
 21
388.3888769682446
 31
0.0
1001
ACAD
1010
0.0
1020
0.0
1030
0.0
  0
LINE
  5
142E
330
18B
100
AcDbEntity
  8
0
  6
Continuous
 62
     4
100
AcDbLine
 10
1045.59175361151
 20
355.8888769682447
 30
0.0
 11
1078.091753611511
 21
388.3888769682446
 31
0.0
1001
ACAD
1010
0.0
1020
0.0
1030
0.0
  0
LINE
  5
142F
330
18B
100
AcDbEntity
  8
0
  6
Continuous
 62
     4
100
AcDbLine
 10
1056.19835532931
 20
355.8888769682448
 30
0.0
 11
1088.69835532931
 21
388.3888769682446
 31
0.0
1001
ACAD
1010
0.0
1020
0.0
1030
0.0
  0
LINE
  5
1430
330
18B
100
AcDbEntity
  8
0
  6
Continuous
 62
     4
100
AcDbLine
 10
1066.804957047108
 20
355.8888769682448
 30
0.0
 11
1099.304957047108
 21
388.3888769682446
 31
0.0
1001
ACAD
1010
0.0
1020
0.0
1030
0.0
  0
LINE
  5
1431
330
18B
100
AcDbEntity
  8
0
  6
Continuous
 62
     4
100
AcDbLine
 10
1077.411558764906
 20
355.8888769682447
 30
0.0
 11
1109.911558764903
 21
388.3888769682446
 31
0.0
1001
ACAD
1010
0.0
1020
0.0
1030
0.0
  0
LINE
  5
1432
330
18B
100
AcDbEntity
  8
0
  6
Continuous
 62
     4
100
AcDbLine
 10
1088.018160482704
 20
355.8888769682448
 30
0.0
 11
1117.966543820313
 21
385.8372603058533
 31
0.0
1001
ACAD
1010
0.0
1020
0.0
1030
0.0
  0
LINE
  5
1433
330
18B
100
AcDbEntity
  8
0
  6
Continuous
 62
     4
100
AcDbLine
 10
1098.624762200502
 20
355.8888769682448
 30
0.0
 11
1117.966543820313
 21
375.2306585880551
 31
0.0
1001
ACAD
1010
0.0
1020
0.0
1030
0.0
  0
LINE
  5
1434
330
18B
100
AcDbEntity
  8
0
  6
Continuous
 62
     4
100
AcDbLine
 10
1109.2313639183
 20
355.8888769682447
 30
0.0
 11
1117.966543820313
 21
364.624056870257
 31
0.0
1001
ACAD
1010
0.0
1020
0.0
1030
0.0
  0
LINE
  5
1435
330
18B
100
AcDbEntity
  8
0
  6
Continuous
 62
     4
100
AcDbLine
 10
579.0071324324442
 20
134.2553677953286
 30
0.0
 11
583.6406319863522
 21
138.8888673492359
 31
0.0
1001
ACAD
1010
0.0
1020
0.0
1030
0.0
  0
LINE
  5
1436
330
18B
100
AcDbEntity
  8
0
  6
Continuous
 62
     4
100
AcDbLine
 10
579.0071324324448
 20
123.6487660775302
 30
0.0
 11
594.2472337041504
 21
138.8888673492359
 31
0.0
1001
ACAD
1010
0.0
1020
0.0
1030
0.0
  0
LINE
  5
1437
330
18B
100
AcDbEntity
  8
0
  6
Continuous
 62
     4
100
AcDbLine
 10
579.0071324324448
 20
113.0421643597321
 30
0.0
 11
604.8538354219486
 21
138.8888673492359
 31
0.0
1001
ACAD
1010
0.0
1020
0.0
1030
0.0
  0
LINE
  5
1438
330
18B
100
AcDbEntity
  8
0
  6
Continuous
 62
     4
100
AcDbLine
 10
582.9604371397468
 20
106.3888673492358
 30
0.0
 11
615.4604371397468
 21
138.8888673492359
 31
0.0
1001
ACAD
1010
0.0
1020
0.0
1030
0.0
  0
LINE
  5
1439
330
18B
100
AcDbEntity
  8
0
  6
Continuous
 62
     4
100
AcDbLine
 10
593.5670388575454
 20
106.388867349236
 30
0.0
 11
626.0670388575447
 21
138.8888673492359
 31
0.0
1001
ACAD
1010
0.0
1020
0.0
1030
0.0
  0
LINE
  5
143A
330
18B
100
AcDbEntity
  8
0
  6
Continuous
 62
     4
100
AcDbLine
 10
604.1736405753431
 20
106.388867349236
 30
0.0
 11
636.6736405753431
 21
138.8888673492359
 31
0.0
1001
ACAD
1010
0.0
1020
0.0
1030
0.0
  0
LINE
  5
143B
330
18B
100
AcDbEntity
  8
0
  6
Continuous
 62
     4
100
AcDbLine
 10
614.7802422931412
 20
106.3888673492358
 30
0.0
 11
647.2802422931412
 21
138.8888673492359
 31
0.0
1001
ACAD
1010
0.0
1020
0.0
1030
0.0
  0
LINE
  5
143C
330
18B
100
AcDbEntity
  8
0
  6
Continuous
 62
     4
100
AcDbLine
 10
625.38684401094
 20
106.388867349236
 30
0.0
 11
657.886844010939
 21
138.8888673492359
 31
0.0
1001
ACAD
1010
0.0
1020
0.0
1030
0.0
  0
LINE
  5
143D
330
18B
100
AcDbEntity
  8
0
  6
Continuous
 62
     4
100
AcDbLine
 10
635.9934457287376
 20
106.388867349236
 30
0.0
 11
668.4934457287377
 21
138.8888673492359
 31
0.0
1001
ACAD
1010
0.0
1020
0.0
1030
0.0
  0
LINE
  5
143E
330
18B
100
AcDbEntity
  8
0
  6
Continuous
 62
     4
100
AcDbLine
 10
646.6000474465357
 20
106.3888673492358
 30
0.0
 11
679.1000474465358
 21
138.8888673492359
 31
0.0
1001
ACAD
1010
0.0
1020
0.0
1030
0.0
  0
LINE
  5
143F
330
18B
100
AcDbEntity
  8
0
  6
Continuous
 62
     4
100
AcDbLine
 10
657.206649164334
 20
106.388867349236
 30
0.0
 11
689.7066491643336
 21
138.8888673492359
 31
0.0
1001
ACAD
1010
0.0
1020
0.0
1030
0.0
  0
LINE
  5
1440
330
18B
100
AcDbEntity
  8
0
  6
Continuous
 62
     4
100
AcDbLine
 10
667.8132508821327
 20
106.388867349236
 30
0.0
 11
700.3132508821322
 21
138.8888673492359
 31
0.0
1001
ACAD
1010
0.0
1020
0.0
1030
0.0
  0
LINE
  5
1441
330
18B
100
AcDbEntity
  8
0
  6
Continuous
 62
     4
100
AcDbLine
 10
678.4198525999303
 20
106.3888673492358
 30
0.0
 11
710.9198525999304
 21
138.8888673492359
 31
0.0
1001
ACAD
1010
0.0
1020
0.0
1030
0.0
  0
LINE
  5
1442
330
18B
100
AcDbEntity
  8
0
  6
Continuous
 62
     4
100
AcDbLine
 10
689.0264543177286
 20
106.388867349236
 30
0.0
 11
721.5264543177283
 21
138.8888673492359
 31
0.0
1001
ACAD
1010
0.0
1020
0.0
1030
0.0
  0
LINE
  5
1443
330
18B
100
AcDbEntity
  8
0
  6
Continuous
 62
     4
100
AcDbLine
 10
699.6330560355267
 20
106.388867349236
 30
0.0
 11
732.1330560355264
 21
138.8888673492359
 31
0.0
1001
ACAD
1010
0.0
1020
0.0
1030
0.0
  0
LINE
  5
1444
330
18B
100
AcDbEntity
  8
0
  6
Continuous
 62
     4
100
AcDbLine
 10
710.239657753325
 20
106.3888673492358
 30
0.0
 11
742.739657753325
 21
138.8888673492359
 31
0.0
1001
ACAD
1010
0.0
1020
0.0
1030
0.0
  0
LINE
  5
1445
330
18B
100
AcDbEntity
  8
0
  6
Continuous
 62
     4
100
AcDbLine
 10
720.8462594711232
 20
106.388867349236
 30
0.0
 11
753.3462594711231
 21
138.8888673492359
 31
0.0
1001
ACAD
1010
0.0
1020
0.0
1030
0.0
  0
LINE
  5
1446
330
18B
100
AcDbEntity
  8
0
  6
Continuous
 62
     4
100
AcDbLine
 10
731.4528611889218
 20
106.388867349236
 30
0.0
 11
763.9528611889212
 21
138.8888673492359
 31
0.0
1001
ACAD
1010
0.0
1020
0.0
1030
0.0
  0
LINE
  5
1447
330
18B
100
AcDbEntity
  8
0
  6
Continuous
 62
     4
100
AcDbLine
 10
742.059462906719
 20
106.3888673492358
 30
0.0
 11
774.5594629067195
 21
138.8888673492359
 31
0.0
1001
ACAD
1010
0.0
1020
0.0
1030
0.0
  0
LINE
  5
1448
330
18B
100
AcDbEntity
  8
0
  6
Continuous
 62
     4
100
AcDbLine
 10
752.6660646245183
 20
106.388867349236
 30
0.0
 11
785.1660646245171
 21
138.8888673492359
 31
0.0
1001
ACAD
1010
0.0
1020
0.0
1030
0.0
  0
LINE
  5
1449
330
18B
100
AcDbEntity
  8
0
  6
Continuous
 62
     4
100
AcDbLine
 10
763.2726663423162
 20
106.388867349236
 30
0.0
 11
795.7726663423157
 21
138.8888673492359
 31
0.0
1001
ACAD
1010
0.0
1020
0.0
1030
0.0
  0
LINE
  5
144A
330
18B
100
AcDbEntity
  8
0
  6
Continuous
 62
     4
100
AcDbLine
 10
773.879268060114
 20
106.3888673492358
 30
0.0
 11
806.3792680601135
 21
138.8888673492359
 31
0.0
1001
ACAD
1010
0.0
1020
0.0
1030
0.0
  0
LINE
  5
144B
330
18B
100
AcDbEntity
  8
0
  6
Continuous
 62
     4
100
AcDbLine
 10
784.4858697779122
 20
106.3888673492358
 30
0.0
 11
816.9858697779122
 21
138.8888673492359
 31
0.0
1001
ACAD
1010
0.0
1020
0.0
1030
0.0
  0
LINE
  5
144C
330
18B
100
AcDbEntity
  8
0
  6
Continuous
 62
     4
100
AcDbLine
 10
795.0924714957104
 20
106.388867349236
 30
0.0
 11
827.5924714957096
 21
138.8888673492359
 31
0.0
1001
ACAD
1010
0.0
1020
0.0
1030
0.0
  0
LINE
  5
144D
330
18B
100
AcDbEntity
  8
0
  6
Continuous
 62
     4
100
AcDbLine
 10
805.6990732135087
 20
106.388867349236
 30
0.0
 11
838.1990732135086
 21
138.8888673492359
 31
0.0
1001
ACAD
1010
0.0
1020
0.0
1030
0.0
  0
LINE
  5
144E
330
18B
100
AcDbEntity
  8
0
  6
Continuous
 62
     4
100
AcDbLine
 10
816.3056749313067
 20
106.3888673492358
 30
0.0
 11
848.8056749313066
 21
138.8888673492359
 31
0.0
1001
ACAD
1010
0.0
1020
0.0
1030
0.0
  0
LINE
  5
144F
330
18B
100
AcDbEntity
  8
0
  6
Continuous
 62
     4
100
AcDbLine
 10
826.9122766491053
 20
106.388867349236
 30
0.0
 11
859.4122766491054
 21
138.8888673492359
 31
0.0
1001
ACAD
1010
0.0
1020
0.0
1030
0.0
  0
LINE
  5
1450
330
18B
100
AcDbEntity
  8
0
  6
Continuous
 62
     4
100
AcDbLine
 10
837.5188783669031
 20
106.388867349236
 30
0.0
 11
870.0188783669032
 21
138.8888673492359
 31
0.0
1001
ACAD
1010
0.0
1020
0.0
1030
0.0
  0
LINE
  5
1451
330
18B
100
AcDbEntity
  8
0
  6
Continuous
 62
     4
100
AcDbLine
 10
848.1254800847013
 20
106.3888673492358
 30
0.0
 11
880.6254800847014
 21
138.8888673492359
 31
0.0
1001
ACAD
1010
0.0
1020
0.0
1030
0.0
  0
LINE
  5
1452
330
18B
100
AcDbEntity
  8
0
  6
Continuous
 62
     4
100
AcDbLine
 10
858.7320818024995
 20
106.388867349236
 30
0.0
 11
891.2320818024996
 21
138.8888673492359
 31
0.0
1001
ACAD
1010
0.0
1020
0.0
1030
0.0
  0
LINE
  5
1453
330
18B
100
AcDbEntity
  8
0
  6
Continuous
 62
     4
100
AcDbLine
 10
869.3386835202984
 20
106.388867349236
 30
0.0
 11
901.8386835202976
 21
138.8888673492359
 31
0.0
1001
ACAD
1010
0.0
1020
0.0
1030
0.0
  0
LINE
  5
1454
330
18B
100
AcDbEntity
  8
0
  6
Continuous
 62
     4
100
AcDbLine
 10
879.9452852380959
 20
106.3888673492358
 30
0.0
 11
912.445285238096
 21
138.8888673492359
 31
0.0
1001
ACAD
1010
0.0
1020
0.0
1030
0.0
  0
LINE
  5
1455
330
18B
100
AcDbEntity
  8
0
  6
Continuous
 62
     4
100
AcDbLine
 10
890.5518869558941
 20
106.3888673492358
 30
0.0
 11
923.0518869558943
 21
138.8888673492359
 31
0.0
1001
ACAD
1010
0.0
1020
0.0
1030
0.0
  0
LINE
  5
1456
330
18B
100
AcDbEntity
  8
0
  6
Continuous
 62
     4
100
AcDbLine
 10
901.1584886736928
 20
106.388867349236
 30
0.0
 11
933.6584886736915
 21
138.8888673492359
 31
0.0
1001
ACAD
1010
0.0
1020
0.0
1030
0.0
  0
LINE
  5
1457
330
18B
100
AcDbEntity
  8
0
  6
Continuous
 62
     4
100
AcDbLine
 10
911.7650903914903
 20
106.388867349236
 30
0.0
 11
944.26509039149
 21
138.8888673492359
 31
0.0
1001
ACAD
1010
0.0
1020
0.0
1030
0.0
  0
LINE
  5
1458
330
18B
100
AcDbEntity
  8
0
  6
Continuous
 62
     4
100
AcDbLine
 10
922.3716921092886
 20
106.3888673492358
 30
0.0
 11
954.8716921092887
 21
138.8888673492359
 31
0.0
1001
ACAD
1010
0.0
1020
0.0
1030
0.0
  0
LINE
  5
1459
330
18B
100
AcDbEntity
  8
0
  6
Continuous
 62
     4
100
AcDbLine
 10
932.9782938270867
 20
106.388867349236
 30
0.0
 11
965.4782938270871
 21
138.8888673492359
 31
0.0
1001
ACAD
1010
0.0
1020
0.0
1030
0.0
  0
LINE
  5
145A
330
18B
100
AcDbEntity
  8
0
  6
Continuous
 62
     4
100
AcDbLine
 10
943.5848955448856
 20
106.388867349236
 30
0.0
 11
976.0848955448855
 21
138.8888673492359
 31
0.0
1001
ACAD
1010
0.0
1020
0.0
1030
0.0
  0
LINE
  5
145B
330
18B
100
AcDbEntity
  8
0
  6
Continuous
 62
     4
100
AcDbLine
 10
954.1914972626827
 20
106.3888673492358
 30
0.0
 11
986.6914972626831
 21
138.8888673492359
 31
0.0
1001
ACAD
1010
0.0
1020
0.0
1030
0.0
  0
LINE
  5
145C
330
18B
100
AcDbEntity
  8
0
  6
Continuous
 62
     4
100
AcDbLine
 10
964.7980989804819
 20
106.388867349236
 30
0.0
 11
997.2980989804813
 21
138.8888673492359
 31
0.0
1001
ACAD
1010
0.0
1020
0.0
1030
0.0
  0
LINE
  5
145D
330
18B
100
AcDbEntity
  8
0
  6
Continuous
 62
     4
100
AcDbLine
 10
975.40470069828
 20
106.388867349236
 30
0.0
 11
1007.904700698277
 21
138.8888673492359
 31
0.0
1001
ACAD
1010
0.0
1020
0.0
1030
0.0
  0
LINE
  5
145E
330
18B
100
AcDbEntity
  8
0
  6
Continuous
 62
     4
100
AcDbLine
 10
986.0113024160776
 20
106.3888673492358
 30
0.0
 11
1018.511302416077
 21
138.8888673492359
 31
0.0
1001
ACAD
1010
0.0
1020
0.0
1030
0.0
  0
LINE
  5
145F
330
18B
100
AcDbEntity
  8
0
  6
Continuous
 62
     4
100
AcDbLine
 10
996.617904133876
 20
106.3888673492358
 30
0.0
 11
1029.117904133875
 21
138.8888673492359
 31
0.0
1001
ACAD
1010
0.0
1020
0.0
1030
0.0
  0
LINE
  5
1460
330
18B
100
AcDbEntity
  8
0
  6
Continuous
 62
     4
100
AcDbLine
 10
1007.224505851674
 20
106.388867349236
 30
0.0
 11
1039.724505851673
 21
138.8888673492359
 31
0.0
1001
ACAD
1010
0.0
1020
0.0
1030
0.0
  0
LINE
  5
1461
330
18B
100
AcDbEntity
  8
0
  6
Continuous
 62
     4
100
AcDbLine
 10
1017.831107569472
 20
106.388867349236
 30
0.0
 11
1050.331107569471
 21
138.8888673492359
 31
0.0
1001
ACAD
1010
0.0
1020
0.0
1030
0.0
  0
LINE
  5
1462
330
18B
100
AcDbEntity
  8
0
  6
Continuous
 62
     4
100
AcDbLine
 10
1028.437709287268
 20
106.3888673492358
 30
0.0
 11
1060.937709287268
 21
138.8888673492359
 31
0.0
1001
ACAD
1010
0.0
1020
0.0
1030
0.0
  0
LINE
  5
1463
330
18B
100
AcDbEntity
  8
0
  6
Continuous
 62
     4
100
AcDbLine
 10
1039.044311005068
 20
106.388867349236
 30
0.0
 11
1071.544311005067
 21
138.8888673492359
 31
0.0
1001
ACAD
1010
0.0
1020
0.0
1030
0.0
  0
LINE
  5
1464
330
18B
100
AcDbEntity
  8
0
  6
Continuous
 62
     4
100
AcDbLine
 10
1049.650912722866
 20
106.388867349236
 30
0.0
 11
1082.150912722866
 21
138.8888673492359
 31
0.0
1001
ACAD
1010
0.0
1020
0.0
1030
0.0
  0
LINE
  5
1465
330
18B
100
AcDbEntity
  8
0
  6
Continuous
 62
     4
100
AcDbLine
 10
1060.257514440664
 20
106.3888673492358
 30
0.0
 11
1092.757514440664
 21
138.8888673492359
 31
0.0
1001
ACAD
1010
0.0
1020
0.0
1030
0.0
  0
LINE
  5
1466
330
18B
100
AcDbEntity
  8
0
  6
Continuous
 62
     4
100
AcDbLine
 10
1070.864116158463
 20
106.388867349236
 30
0.0
 11
1103.364116158463
 21
138.8888673492359
 31
0.0
1001
ACAD
1010
0.0
1020
0.0
1030
0.0
  0
LINE
  5
1467
330
18B
100
AcDbEntity
  8
0
  6
Continuous
 62
     4
100
AcDbLine
 10
1081.470717876261
 20
106.388867349236
 30
0.0
 11
1113.970717876261
 21
138.8888673492359
 31
0.0
1001
ACAD
1010
0.0
1020
0.0
1030
0.0
  0
LINE
  5
1468
330
18B
100
AcDbEntity
  8
0
  6
Continuous
 62
     4
100
AcDbLine
 10
1092.077319594059
 20
106.3888673492358
 30
0.0
 11
1117.966543820313
 21
132.27809157549
 31
0.0
1001
ACAD
1010
0.0
1020
0.0
1030
0.0
  0
LINE
  5
1469
330
18B
100
AcDbEntity
  8
0
  6
Continuous
 62
     4
100
AcDbLine
 10
1102.683921311855
 20
106.3888673492358
 30
0.0
 11
1117.966543820313
 21
121.6714898576918
 31
0.0
1001
ACAD
1010
0.0
1020
0.0
1030
0.0
  0
LINE
  5
146A
330
18B
100
AcDbEntity
  8
0
  6
Continuous
 62
     4
100
AcDbLine
 10
1113.290523029655
 20
106.3888673492358
 30
0.0
 11
1117.966543820313
 21
111.0648881398935
 31
0.0
1001
ACAD
1010
0.0
1020
0.0
1030
0.0
  0
LINE
  5
146B
330
18B
100
AcDbEntity
  8
0
  6
Continuous
 62
     4
100
AcDbLine
 10
846.0394105029868
 20
982.4831347941694
 30
0.0
 11
846.0394105029868
 21
766.5248588374443
 31
0.0
  0
LINE
  5
1477
330
18B
100
AcDbEntity
  8
0
  6
Continuous
 62
     4
100
AcDbLine
 10
1117.966543820313
 20
247.3888673492353
 30
0.0
 11
577.9670395029866
 21
247.3888673492353
 31
0.0
  0
LINE
  5
184C
330
18B
100
AcDbEntity
  8
-1
  6
Continuous
 62
     3
100
AcDbLine
 10
927.0394105029852
 20
982.4831347941694
 30
0.0
 11
1172.425390002983
 21
982.4831347941694
 31
0.0
  0
LINE
  5
184D
330
18B
100
AcDbEntity
  8
-1
  6
Continuous
 62
     3
100
AcDbLine
 10
1163.425390002983
 20
271.1013673492352
 30
0.0
 11
1163.425390002983
 21
592.4360009553456
 31
0.0
  0
LINE
  5
184E
330
18B
100
AcDbEntity
  8
-1
  6
Continuous
 62
     3
100
AcDbLine
 10
1126.966543820313
 20
247.3888673492353
 30
0.0
 11
1172.425390002983
 21
247.3888673492353
 31
0.0
  0
LINE
  5
184F
330
18B
100
AcDbEntity
  8
-1
  6
Continuous
 62
     3
100
AcDbLine
 10
1163.425390002983
 20
652.4360009553451
 30
0.0
 11
1163.425390002983
 21
958.7706347941692
 31
0.0
  0
LINE
  5
1850
330
18B
100
AcDbEntity
  8
0
  6
Continuous
 62
     7
100
AcDbLine
 10
564.6671324324455
 20
204.5624177551772
 30
0.0
 11
579.0071324324434
 21
200.2624177551767
 31
0.0
  0
LINE
  5
1851
330
18B
100
AcDbEntity
  8
0
  6
Continuous
 62
     7
100
AcDbLine
 10
591.8671324324462
 20
214.1624177551768
 30
0.0
 11
564.6671324324455
 21
204.5624177551772
 31
0.0
  0
LINE
  5
1852
330
18B
100
AcDbEntity
  8
0
  6
Continuous
 62
     7
100
AcDbLine
 10
579.007132432444
 20
219.6724177551768
 30
0.0
 11
591.8671324324462
 21
214.1624177551768
 31
0.0
  0
LINE
  5
1853
330
18B
100
AcDbEntity
  8
0
  6
Continuous
 62
     7
100
AcDbLine
 10
1130.826543820314
 20
323.171301452708
 30
0.0
 11
1103.626543820314
 21
313.5713014527083
 31
0.0
  0
LINE
  5
1854
330
18B
100
AcDbEntity
  8
0
  6
Continuous
 62
     7
100
AcDbLine
 10
1103.626543820314
 20
313.5713014527083
 30
0.0
 11
1117.966543820313
 21
309.2713014527077
 31
0.0
  0
LINE
  5
1855
330
18B
100
AcDbEntity
  8
1
  6
Continuous
 62
     7
100
AcDbLine
 10
1117.966543820313
 20
328.6813014527079
 30
0.0
 11
1130.826543820314
 21
323.171301452708
 31
0.0
  0
ARC
  5
1856
330
18B
100
AcDbEntity
  8
0
  6
Continuous
 62
     7
100
AcDbCircle
 10
846.0394105029862
 20
828.2771851247867
 30
0.0
 40
441.4000252755512
100
AcDbArc
 50
265.2567137156021
 51
274.7432862843977
  0
ARC
  5
1857
330
18B
100
AcDbEntity
  8
0
  6
Continuous
 62
     7
100
AcDbCircle
 10
846.0394105029862
 20
795.7771851247867
 30
0.0
 40
441.4000252755513
100
AcDbArc
 50
265.2567137156021
 51
274.7432862843977
  0
LINE
  5
1858
330
18B
100
AcDbEntity
  8
0
  6
Continuous
 62
     7
100
AcDbLine
 10
814.442188311229
 20
430.9379163532246
 30
0.0
 11
809.5394105029857
 21
388.3888671165212
 31
0.0
  0
LINE
  5
1859
330
18B
100
AcDbEntity
  8
0
  6
Continuous
 62
     7
100
AcDbLine
 10
877.5394105029864
 20
430.9379163532246
 30
0.0
 11
814.442188311229
 21
430.9379163532246
 31
0.0
  0
LINE
  5
185A
330
18B
100
AcDbEntity
  8
0
  6
Continuous
 62
     7
100
AcDbLine
 10
666.0394105029857
 20
973.4831347941693
 30
0.0
 11
666.0394105029857
 21
928.4831347941693
 31
0.0
  0
LINE
  5
185B
330
18B
100
AcDbEntity
  8
0
  6
Continuous
 62
     7
100
AcDbLine
 10
1026.039410502984
 20
973.4831347941693
 30
0.0
 11
1026.039410502984
 21
928.4831347941693
 31
0.0
  0
LINE
  5
185C
330
18B
100
AcDbEntity
  8
0
  6
Continuous
 62
     7
100
AcDbLine
 10
774.0394105029857
 20
982.4831347941694
 30
0.0
 11
918.0394105029852
 21
982.4831347941694
 31
0.0
  0
LINE
  5
185D
330
18B
100
AcDbEntity
  8
0
  6
Continuous
 62
     7
100
AcDbLine
 10
666.0394105029857
 20
973.4831347941693
 30
0.0
 11
774.0394105029857
 21
973.4831347941693
 31
0.0
  0
LINE
  5
185E
330
18B
100
AcDbEntity
  8
0
  6
Continuous
 62
     7
100
AcDbLine
 10
666.0394105029857
 20
928.4831347941693
 30
0.0
 11
764.2436170029857
 21
928.4831347941693
 31
0.0
  0
LINE
  5
185F
330
18B
100
AcDbEntity
  8
0
  6
Continuous
 62
     7
100
AcDbLine
 10
774.0394105029857
 20
982.4831347941694
 30
0.0
 11
774.0394105029857
 21
973.4831347941693
 31
0.0
  0
LINE
  5
1860
330
18B
100
AcDbEntity
  8
0
  6
Continuous
 62
     7
100
AcDbLine
 10
918.0394105029852
 20
982.4831347941694
 30
0.0
 11
918.0394105029852
 21
973.4831347941693
 31
0.0
  0
LINE
  5
1861
330
18B
100
AcDbEntity
  8
0
  6
Continuous
 62
     7
100
AcDbLine
 10
796.5394105029856
 20
786.5378242941694
 30
0.0
 11
796.5394105029856
 21
590.2853861187187
 31
0.0
  0
LINE
  5
1862
330
18B
100
AcDbEntity
  8
0
  6
Continuous
 62
     7
100
AcDbLine
 10
895.5394105029856
 20
786.5378242941694
 30
0.0
 11
895.5394105029856
 21
590.2853861187187
 31
0.0
  0
LINE
  5
1863
330
18B
100
AcDbEntity
  8
0
  6
Continuous
 62
     7
100
AcDbLine
 10
775.761419502986
 20
918.8398852941682
 30
0.0
 11
793.736374002986
 21
818.1801382941682
 31
0.0
  0
LINE
  5
1864
330
18B
100
AcDbEntity
  8
0
  6
Continuous
 62
     7
100
AcDbLine
 10
916.3174015029857
 20
918.8398852941682
 30
0.0
 11
898.3424470029856
 21
818.1801382941682
 31
0.0
  0
LINE
  5
1865
330
18B
100
AcDbEntity
  8
0
  6
Continuous
 62
     7
100
AcDbLine
 10
814.5394105029856
 20
982.4831347941694
 30
0.0
 11
814.5394105029856
 21
430.9379163532246
 31
0.0
  0
LINE
  5
1866
330
18B
100
AcDbEntity
  8
0
  6
Continuous
 62
     7
100
AcDbLine
 10
877.5394105029864
 20
982.4831347941694
 30
0.0
 11
877.5394105029864
 21
430.9379163532247
 31
0.0
  0
LINE
  5
1867
330
18B
100
AcDbEntity
  8
0
  6
Continuous
 62
     7
100
AcDbLine
 10
927.8352040029856
 20
928.4831347941693
 30
0.0
 11
1026.039410502984
 21
928.4831347941693
 31
0.0
  0
LINE
  5
186C
330
18B
100
AcDbEntity
  8
0
  6
Continuous
 62
     7
100
AcDbLine
 10
882.5394105029863
 20
388.3888671165212
 30
0.0
 11
927.0394105029859
 21
423.0883296165218
 31
0.0
  0
LINE
  5
186D
330
18B
100
AcDbEntity
  8
0
  6
Continuous
 62
     7
100
AcDbLine
 10
765.0394105029862
 20
423.0883296165218
 30
0.0
 11
809.5394105029857
 21
388.3888671165212
 31
0.0
  0
LINE
  5
186E
330
18B
100
AcDbEntity
  8
0
  6
Continuous
 62
     7
100
AcDbLine
 10
895.5394105029856
 20
590.2853861187187
 30
0.0
 11
927.0394105029859
 21
472.987777252786
 31
0.0
  0
LINE
  5
186F
330
18B
100
AcDbEntity
  8
0
  6
Continuous
 62
     7
100
AcDbLine
 10
765.0394105029862
 20
472.987777252786
 30
0.0
 11
765.0394105029862
 21
423.0883296165218
 31
0.0
  0
LINE
  5
1870
330
18B
100
AcDbEntity
  8
0
  6
Continuous
 62
     7
100
AcDbLine
 10
927.0394105029859
 20
472.987777252786
 30
0.0
 11
927.0394105029859
 21
423.0883296165218
 31
0.0
  0
LINE
  5
1871
330
18B
100
AcDbEntity
  8
0
  6
Continuous
 62
     7
100
AcDbLine
 10
796.5394105029856
 20
590.2853861187187
 30
0.0
 11
765.0394105029862
 21
472.987777252786
 31
0.0
  0
LINE
  5
1872
330
18B
100
AcDbEntity
  8
0
  6
Continuous
 62
     7
100
AcDbLine
 10
918.0394105029852
 20
973.4831347941693
 30
0.0
 11
1026.039410502984
 21
973.4831347941693
 31
0.0
  0
LINE
  5
1873
330
18B
100
AcDbEntity
  8
0
  6
Continuous
 62
     7
100
AcDbLine
 10
809.5394105029857
 20
388.3888673492354
 30
0.0
 11
579.007132432444
 21
388.3888673492354
 31
0.0
  0
LINE
  5
1874
330
18B
100
AcDbEntity
  8
0
  6
Continuous
 62
     7
100
AcDbLine
 10
1117.966543820313
 20
138.8888673492359
 30
0.0
 11
579.0071324324434
 21
138.8888673492359
 31
0.0
  0
LINE
  5
1875
330
18B
100
AcDbEntity
  8
0
  6
Continuous
 62
     7
100
AcDbLine
 10
809.5394105029857
 20
355.8888673492355
 30
0.0
 11
579.007132432444
 21
355.8888673492355
 31
0.0
  0
LINE
  5
1876
330
18B
100
AcDbEntity
  8
0
  6
Continuous
 62
     7
100
AcDbLine
 10
1117.966543820313
 20
106.3888673492358
 30
0.0
 11
579.0071324324434
 21
106.3888673492358
 31
0.0
  0
LINE
  5
1877
330
18B
100
AcDbEntity
  8
0
  6
Continuous
 62
     7
100
AcDbLine
 10
579.007132432444
 20
388.3888673492354
 30
0.0
 11
579.007132432444
 21
219.6724177551768
 31
0.0
  0
LINE
  5
1878
330
18B
100
AcDbEntity
  8
0
  6
Continuous
 62
     7
100
AcDbLine
 10
579.007132432444
 20
199.6371325259433
 30
0.0
 11
579.0071324324434
 21
106.3888673492358
 31
0.0
  0
LINE
  5
1879
330
18B
100
AcDbEntity
  8
0
  6
Continuous
 62
     7
100
AcDbLine
 10
1117.966543820313
 20
388.3888673492356
 30
0.0
 11
1117.966543820313
 21
328.6813014527079
 31
0.0
  0
LINE
  5
187A
330
18B
100
AcDbEntity
  8
0
  6
Continuous
 62
     7
100
AcDbLine
 10
1117.966543820313
 20
309.2713014527077
 30
0.0
 11
1117.966543820313
 21
106.3888673492358
 31
0.0
  0
LINE
  5
187B
330
18B
100
AcDbEntity
  8
0
  6
Continuous
 62
     7
100
AcDbLine
 10
882.5394105029863
 20
388.3888681726803
 30
0.0
 11
1117.966543820313
 21
388.3888681726803
 31
0.0
  0
LINE
  5
187C
330
18B
100
AcDbEntity
  8
0
  6
Continuous
 62
     7
100
AcDbLine
 10
1117.966543820313
 20
355.8888673492357
 30
0.0
 11
882.5394105029863
 21
355.8888673492355
 31
0.0
  0
LINE
  5
187D
330
18B
100
AcDbEntity
  8
0
  6
Continuous
 62
     7
100
AcDbLine
 10
877.5394105029864
 20
430.9379163532246
 30
0.0
 11
882.5394105029863
 21
388.3888671165212
 31
0.0
  0
LINE
  5
187E
330
18B
100
AcDbEntity
  8
0
  6
Continuous
 62
     7
100
AcDbLine
 10
809.5394105029857
 20
388.3888671165212
 30
0.0
 11
809.5394099114587
 21
355.8888671734279
 31
0.0
  0
LINE
  5
187F
330
18B
100
AcDbEntity
  8
0
  6
Continuous
 62
     7
100
AcDbLine
 10
882.5394231372339
 20
388.3888681726803
 30
0.0
 11
882.5394132132988
 21
355.8888673492355
 31
0.0
  0
LINE
  5
1880
330
18B
100
AcDbEntity
  8
1
  6
Continuous
 62
     3
100
AcDbLine
 10
1163.425390002983
 20
982.4831347941694
 30
0.0
 11
1169.981640002984
 21
958.7706347941692
 31
0.0
  0
LINE
  5
1881
330
18B
100
AcDbEntity
  8
1
  6
Continuous
 62
     3
100
AcDbLine
 10
1163.425390002983
 20
982.4831347941694
 30
0.0
 11
1156.869140002982
 21
958.7706347941692
 31
0.0
  0
LINE
  5
1882
330
18B
100
AcDbEntity
  8
1
  6
Continuous
 62
     3
100
AcDbLine
 10
1156.869140002982
 20
958.7706347941692
 30
0.0
 11
1169.981640002984
 21
958.7706347941692
 31
0.0
  0
LINE
  5
1883
330
18B
100
AcDbEntity
  8
1
  6
Continuous
 62
     3
100
AcDbLine
 10
1163.425390002983
 20
247.3888673492354
 30
0.0
 11
1156.869140002982
 21
271.1013673492352
 31
0.0
  0
LINE
  5
1884
330
18B
100
AcDbEntity
  8
1
  6
Continuous
 62
     3
100
AcDbLine
 10
1163.425390002983
 20
247.3888673492354
 30
0.0
 11
1169.981640002984
 21
271.1013673492352
 31
0.0
  0
LINE
  5
1885
330
18B
100
AcDbEntity
  8
1
  6
Continuous
 62
     3
100
AcDbLine
 10
1169.981640002984
 20
271.1013673492352
 30
0.0
 11
1156.869140002982
 21
271.1013673492352
 31
0.0
  0
LINE
  5
1891
330
18B
100
AcDbEntity
  8
0
  6
Continuous
 62
     7
100
AcDbLine
 10
764.2436170029857
 20
928.4831347941693
 30
0.0
 11
775.761419502986
 21
918.8398852941682
 31
0.0
  0
LINE
  5
1892
330
18B
100
AcDbEntity
  8
0
  6
Continuous
 62
     7
100
AcDbLine
 10
793.736374002986
 20
818.1801382941682
 30
0.0
 11
796.5394105029856
 21
786.2017184641915
 31
0.0
  0
LINE
  5
1893
330
18B
100
AcDbEntity
  8
0
  6
Continuous
 62
     4
100
AcDbLine
 10
846.0394105029868
 20
753.2986043840167
 30
0.0
 11
846.0394105029868
 21
136.3888671165217
 31
0.0
  0
LINE
  5
1894
330
18B
100
AcDbEntity
  8
0
  6
Continuous
 62
     7
100
AcDbLine
 10
927.8352040029878
 20
928.4831347941693
 30
0.0
 11
916.3174015029877
 21
918.8398852941682
 31
0.0
  0
LINE
  5
1895
330
18B
100
AcDbEntity
  8
0
  6
Continuous
 62
     7
100
AcDbLine
 10
898.3424470029877
 20
818.1801382941682
 30
0.0
 11
895.5394105029878
 21
786.2017184641915
 31
0.0
  0
LINE
  5
189C
330
18B
100
AcDbEntity
  8
0
  6
Continuous
 62
     4
100
AcDbLine
 10
765.0394101545332
 20
423.0883304083524
 30
0.0
 11
759.347744314766
 21
412.9910186934169
 31
0.0
  0
LINE
  5
189D
330
18B
100
AcDbEntity
  8
0
  6
Continuous
 62
     4
100
AcDbLine
 10
759.347744314766
 20
412.9910186934169
 30
0.0
 11
756.4523206734508
 21
405.3082029627781
 31
0.0
  0
LINE
  5
189E
330
18B
100
AcDbEntity
  8
0
  6
Continuous
 62
     4
100
AcDbLine
 10
756.4523206734508
 20
405.3082029627781
 30
0.0
 11
754.3465604790425
 21
394.520687445126
 31
0.0
  0
LINE
  5
189F
330
18B
100
AcDbEntity
  8
0
  6
Continuous
 62
     4
100
AcDbLine
 10
754.3465604790425
 20
394.520687445126
 30
0.0
 11
754.0885810029871
 21
388.3888671165212
 31
0.0
  0
LINE
  5
18A0
330
18B
100
AcDbEntity
  8
0
  6
Continuous
 62
     4
100
AcDbLine
 10
927.0394108514402
 20
423.0883304083524
 30
0.0
 11
932.7310766912075
 21
412.9910186934169
 31
0.0
  0
LINE
  5
18A1
330
18B
100
AcDbEntity
  8
0
  6
Continuous
 62
     4
100
AcDbLine
 10
932.7310766912075
 20
412.9910186934169
 30
0.0
 11
935.6265003325226
 21
405.3082029627781
 31
0.0
  0
LINE
  5
18A2
330
18B
100
AcDbEntity
  8
0
  6
Continuous
 62
     4
100
AcDbLine
 10
935.6265003325226
 20
405.3082029627781
 30
0.0
 11
937.7322605269313
 21
394.520687445126
 31
0.0
  0
LINE
  5
18A3
330
18B
100
AcDbEntity
  8
0
  6
Continuous
 62
     4
100
AcDbLine
 10
937.7322605269313
 20
394.520687445126
 30
0.0
 11
937.9902400029862
 21
388.3888671165212
 31
0.0
  0
LINE
  5
18AF
330
18B
100
AcDbEntity
  8
-1
  6
Continuous
 62
     5
100
AcDbLine
 10
1163.438223318545
 20
628.7292818936141
 30
0.0
 11
1173.438223318545
 21
628.7292818936141
 31
0.0
  0
ENDSEC
  0
SECTION
  2
OBJECTS
  0
DICTIONARY
  5
17F
330
0
100
AcDbDictionary
281
     1
  3
ACAD_COLOR
350
BEE
  3
ACAD_GROUP
350
180
  3
ACAD_LAYOUT
350
BF1
  3
ACAD_MATERIAL
350
BD9
  3
ACAD_MLEADERSTYLE
350
14D6
  3
ACAD_MLINESTYLE
350
18E
  3
ACAD_PLOTSETTINGS
350
995
  3
ACAD_PLOTSTYLENAME
350
992
  3
ACAD_SCALELIST
350
14B4
  3
ACAD_TABLESTYLE
350
BEF
  3
ACAD_VISUALSTYLE
350
BDD
  3
ACDB_RECOMPOSE_DATA
350
154B
  3
AcDbVariableDictionary
350
106F
  3
DWGPROPS
350
1886
  0
DICTIONARY
  5
150E
330
181
100
AcDbDictionary
280
     1
281
     1
  3
ADSK_XREC_LAYER_RECONCILED
360
150F
  0
DICTIONARY
  5
1510
330
19A
100
AcDbDictionary
280
     1
281
     1
  3
ADSK_XREC_LAYER_RECONCILED
360
1511
  0
DICTIONARY
  5
1512
330
19B
100
AcDbDictionary
280
     1
281
     1
  3
ADSK_XREC_LAYER_RECONCILED
360
1513
  0
DICTIONARY
  5
1514
330
349
100
AcDbDictionary
280
     1
281
     1
  3
ADSK_XREC_LAYER_RECONCILED
360
1515
  0
DICTIONARY
  5
1590
330
158F
100
AcDbDictionary
280
     1
281
     1
  0
DICTIONARY
  5
B62
330
18B
100
AcDbDictionary
280
     1
281
     1
  3
ACAD_LAYOUTSELFREF
360
BD3
  3
ACAD_SORTENTS
360
1065
  0
DICTIONARY
  5
B60
330
188
100
AcDbDictionary
280
     1
281
     1
  3
ACAD_LAYOUTSELFREF
360
BD2
  0
DICTIONARY
  5
5F7
330
5EE
100
AcDbDictionary
280
     1
281
     1
  0
DICTIONARY
  5
BEE
102
{ACAD_REACTORS
330
17F
102
}
330
17F
100
AcDbDictionary
281
     1
  0
DICTIONARY
  5
180
102
{ACAD_REACTORS
330
17F
102
}
330
17F
100
AcDbDictionary
281
     1
  0
DICTIONARY
  5
BF1
102
{ACAD_REACTORS
330
17F
102
}
330
17F
100
AcDbDictionary
281
     1
  3
Layout1
350
BF3
  3
Model
350
BF2
  0
DICTIONARY
  5
BD9
102
{ACAD_REACTORS
330
17F
102
}
330
17F
100
AcDbDictionary
281
     1
  3
ByBlock
350
BDB
  3
ByLayer
350
BDA
  3
Global
350
BDC
  0
DICTIONARY
  5
14D6
102
{ACAD_REACTORS
330
17F
102
}
330
17F
100
AcDbDictionary
281
     1
  3
Standard
350
14D7
  0
DICTIONARY
  5
18E
102
{ACAD_REACTORS
330
17F
102
}
330
17F
100
AcDbDictionary
281
     1
  3
STANDARD
350
18F
  0
DICTIONARY
  5
995
102
{ACAD_REACTORS
330
17F
102
}
330
17F
100
AcDbDictionary
281
     1
  0
ACDBDICTIONARYWDFLT
  5
992
102
{ACAD_REACTORS
330
17F
102
}
330
17F
100
AcDbDictionary
281
     1
  3
Normal
350
993
100
AcDbDictionaryWithDefault
340
993
  0
DICTIONARY
  5
14B4
102
{ACAD_REACTORS
330
17F
102
}
330
17F
100
AcDbDictionary
281
     1
  3
A0
350
14B5
  3
A1
350
14B6
  3
A2
350
14B7
  3
A3
350
14B8
  3
A4
350
14B9
  3
A5
350
14BA
  3
A6
350
14BB
  3
A7
350
14BC
  3
A8
350
14BD
  3
A9
350
14BE
  3
B0
350
14BF
  3
B1
350
14C0
  3
B2
350
14C1
  3
B3
350
14C2
  3
B4
350
14C3
  3
B5
350
14C4
  3
B6
350
14C5
  3
B7
350
14C6
  3
B8
350
14C7
  3
B9
350
14C8
  3
C0
350
14C9
  3
C1
350
14CA
  3
C2
350
14CB
  3
C3
350
14CC
  3
C4
350
14CD
  3
C5
350
14CE
  3
C6
350
14CF
  3
C7
350
14D0
  3
C8
350
14D1
  3
C9
350
14D2
  3
D0
350
14D3
  3
D1
350
14D4
  3
D2
350
14D5
  0
DICTIONARY
  5
BEF
102
{ACAD_REACTORS
330
17F
102
}
330
17F
100
AcDbDictionary
281
     1
  3
Standard
350
BF0
  0
DICTIONARY
  5
BDD
102
{ACAD_REACTORS
330
17F
102
}
330
17F
100
AcDbDictionary
281
     1
  3
2dWireframe
350
BE3
  3
3D Hidden
350
BE5
  3
3dWireframe
350
BE4
  3
Basic
350
BE2
  3
Brighten
350
BE9
  3
ColorChange
350
BED
  3
Conceptual
350
BE6
  3
Dim
350
BE8
  3
EdgeColorOff
350
14B3
  3
Facepattern
350
BEC
  3
Flat
350
BDE
  3
FlatWithEdges
350
BDF
  3
Gouraud
350
BE0
  3
GouraudWithEdges
350
BE1
  3
JitterOff
350
14B1
  3
Linepattern
350
BEB
  3
OverhangOff
350
14B2
  3
Realistic
350
BE7
  3
Thicken
350
BEA
  0
XRECORD
  5
154B
102
{ACAD_REACTORS
330
17F
102
}
330
17F
100
AcDbXrecord
280
     1
 90
        1
330
BF0
  0
DICTIONARY
  5
106F
102
{ACAD_REACTORS
330
17F
102
}
330
17F
100
AcDbDictionary
281
     1
  3
CANNOSCALE
350
1517
  3
CMLEADERSTYLE
350
1516
  3
CTABLESTYLE
350
1070
  3
DIMASSOC
350
117F
  3
INDEXCTL
350
117E
  3
SORTENTS
350
117D
  3
XCLIPFRAME
350
1518
  0
XRECORD
  5
1886
102
{ACAD_REACTORS
330
17F
102
}
330
17F
100
AcDbXrecord
280
     1
  1
DWGPROPS COOKIE
  2

  3

  4

  6

  7

  8
Horia
  9

300
=
301
=
302
=
303
=
304
=
305
=
306
=
307
=
308
=
309
=
 40
0.9406174189814814
 41
2451288.389091319
 42
2456342.978011598
  1

 90
        0
  0
XRECORD
  5
150F
102
{ACAD_REACTORS
330
150E
102
}
330
150E
100
AcDbXrecord
280
     1
290
     1
  0
XRECORD
  5
1511
102
{ACAD_REACTORS
330
1510
102
}
330
1510
100
AcDbXrecord
280
     1
290
     1
  0
XRECORD
  5
1513
102
{ACAD_REACTORS
330
1512
102
}
330
1512
100
AcDbXrecord
280
     1
290
     1
  0
XRECORD
  5
1515
102
{ACAD_REACTORS
330
1514
102
}
330
1514
100
AcDbXrecord
280
     1
290
     1
  0
XRECORD
  5
BD3
102
{ACAD_REACTORS
330
B62
102
}
330
B62
100
AcDbXrecord
280
     1
340
18B
  0
SORTENTSTABLE
  5
1065
102
{ACAD_REACTORS
330
B62
102
}
330
B62
100
AcDbSortentsTable
330
18B
331
5F6
  5
5F6
  0
XRECORD
  5
BD2
102
{ACAD_REACTORS
330
B60
102
}
330
B60
100
AcDbXrecord
280
     1
340
188
  0
LAYOUT
  5
BF3
102
{ACAD_XDICTIONARY
360
188A
102
}
102
{ACAD_REACTORS
330
BF1
102
}
330
BF1
100
AcDbPlotSettings
  1

  2
Microsoft XPS Document Writer
  4

  6

 40
0.0
 41
0.0
 42
0.0
 43
0.0
 44
0.0
 45
0.0
 46
0.0
 47
0.0
 48
0.0
 49
0.0
140
0.0
141
0.0
142
1.0
143
1.0
 70
   688
 72
     0
 73
     0
 74
     5
  7

 75
    16
147
1.0
148
0.0
149
0.0
100
AcDbLayout
  1
Layout1
 70
     1
 71
     1
 10
0.0
 20
0.0
 11
12.0
 21
9.0
 12
0.0
 22
0.0
 32
0.0
 14
-1.000000000000000E+20
 24
-1.000000000000000E+20
 34
-1.000000000000000E+20
 15
-1.000000000000000E+20
 25
-1.000000000000000E+20
 35
-1.000000000000000E+20
146
0.0
 13
0.0
 23
0.0
 33
0.0
 16
1.0
 26
0.0
 36
0.0
 17
0.0
 27
1.0
 37
0.0
 76
     0
330
188
  0
LAYOUT
  5
BF2
102
{ACAD_XDICTIONARY
360
1888
102
}
102
{ACAD_REACTORS
330
BF1
102
}
330
BF1
100
AcDbPlotSettings
  1

  2
Microsoft XPS Document Writer
  4

  6

 40
0.0
 41
0.0
 42
0.0
 43
0.0
 44
0.0
 45
0.0
 46
0.0
 47
0.0
 48
0.0
 49
0.0
140
0.0
141
0.0
142
1.0
143
1.0
 70
  1712
 72
     0
 73
     0
 74
     0
  7

 75
     0
147
1.0
148
0.0
149
0.0
100
AcDbLayout
  1
Model
 70
     1
 71
     0
 10
0.0
 20
0.0
 11
12.0
 21
9.0
 12
0.0
 22
0.0
 32
0.0
 14
0.0
 24
0.0
 34
0.0
 15
0.0
 25
0.0
 35
0.0
146
0.0
 13
0.0
 23
0.0
 33
0.0
 16
1.0
 26
0.0
 36
0.0
 17
0.0
 27
1.0
 37
0.0
 76
     0
330
18B
331
BB1
  0
MATERIAL
  5
BDB
102
{ACAD_XDICTIONARY
360
1183
102
}
102
{ACAD_REACTORS
330
BD9
102
}
330
BD9
100
AcDbMaterial
  1
ByBlock
  0
MATERIAL
  5
BDA
102
{ACAD_XDICTIONARY
360
1181
102
}
102
{ACAD_REACTORS
330
BD9
102
}
330
BD9
100
AcDbMaterial
  1
ByLayer
  0
MATERIAL
  5
BDC
102
{ACAD_XDICTIONARY
360
1185
102
}
102
{ACAD_REACTORS
330
BD9
102
}
330
BD9
100
AcDbMaterial
  1
Global
  0
MLEADERSTYLE
  5
14D7
102
{ACAD_REACTORS
330
14D6
102
}
330
14D6
100
AcDbMLeaderStyle
170
     2
171
     1
172
     0
 90
        2
 40
0.0
 41
0.0
173
     1
 91
-1056964608
340
185
 92
       -2
290
     1
 42
0.09
291
     1
 43
0.36
  3
Standard
 44
0.18
300

342
182
174
     1
178
     6
175
     1
176
     0
 93
-1056964608
 45
0.18
292
     0
297
     0
 46
0.18
 94
-1056964608
 47
1.0
 49
1.0
140
1.0
293
     1
141
0.0
294
     1
177
     0
142
1.0
295
     0
296
     0
143
0.125
1001
ACAD_MLEADERVER
1070
     2
1001
ACAD
1000
AcRTDxfName
1000
MLEADERSTYLE
  0
MLINESTYLE
  5
18F
102
{ACAD_REACTORS
330
18E
102
}
330
18E
100
AcDbMlineStyle
  2
STANDARD
 70
     0
  3

 62
   256
 51
90.0
 52
90.0
 71
     2
 49
0.5
 62
   256
  6
BYLAYER
 49
-0.5
 62
   256
  6
BYLAYER
  0
ACDBPLACEHOLDER
  5
993
102
{ACAD_REACTORS
330
992
102
}
330
992
  0
SCALE
  5
14B5
102
{ACAD_REACTORS
330
14B4
102
}
330
14B4
100
AcDbScale
 70
     0
300
1:1
140
1.0
141
1.0
290
     1
1001
ACAD
1000
AcRTDxfName
1000
SCALE
  0
SCALE
  5
14B6
102
{ACAD_REACTORS
330
14B4
102
}
330
14B4
100
AcDbScale
 70
     0
300
1:2
140
1.0
141
2.0
290
     0
1001
ACAD
1000
AcRTDxfName
1000
SCALE
  0
SCALE
  5
14B7
102
{ACAD_REACTORS
330
14B4
102
}
330
14B4
100
AcDbScale
 70
     0
300
1:4
140
1.0
141
4.0
290
     0
1001
ACAD
1000
AcRTDxfName
1000
SCALE
  0
SCALE
  5
14B8
102
{ACAD_REACTORS
330
14B4
102
}
330
14B4
100
AcDbScale
 70
     0
300
1:5
140
1.0
141
5.0
290
     0
1001
ACAD
1000
AcRTDxfName
1000
SCALE
  0
SCALE
  5
14B9
102
{ACAD_REACTORS
330
14B4
102
}
330
14B4
100
AcDbScale
 70
     0
300
1:8
140
1.0
141
8.0
290
     0
1001
ACAD
1000
AcRTDxfName
1000
SCALE
  0
SCALE
  5
14BA
102
{ACAD_REACTORS
330
14B4
102
}
330
14B4
100
AcDbScale
 70
     0
300
1:10
140
1.0
141
10.0
290
     0
1001
ACAD
1000
AcRTDxfName
1000
SCALE
  0
SCALE
  5
14BB
102
{ACAD_REACTORS
330
14B4
102
}
330
14B4
100
AcDbScale
 70
     0
300
1:16
140
1.0
141
16.0
290
     0
1001
ACAD
1000
AcRTDxfName
1000
SCALE
  0
SCALE
  5
14BC
102
{ACAD_REACTORS
330
14B4
102
}
330
14B4
100
AcDbScale
 70
     0
300
1:20
140
1.0
141
20.0
290
     0
1001
ACAD
1000
AcRTDxfName
1000
SCALE
  0
SCALE
  5
14BD
102
{ACAD_REACTORS
330
14B4
102
}
330
14B4
100
AcDbScale
 70
     0
300
1:30
140
1.0
141
30.0
290
     0
1001
ACAD
1000
AcRTDxfName
1000
SCALE
  0
SCALE
  5
14BE
102
{ACAD_REACTORS
330
14B4
102
}
330
14B4
100
AcDbScale
 70
     0
300
1:40
140
1.0
141
40.0
290
     0
1001
ACAD
1000
AcRTDxfName
1000
SCALE
  0
SCALE
  5
14BF
102
{ACAD_REACTORS
330
14B4
102
}
330
14B4
100
AcDbScale
 70
     0
300
1:50
140
1.0
141
50.0
290
     0
1001
ACAD
1000
AcRTDxfName
1000
SCALE
  0
SCALE
  5
14C0
102
{ACAD_REACTORS
330
14B4
102
}
330
14B4
100
AcDbScale
 70
     0
300
1:100
140
1.0
141
100.0
290
     0
1001
ACAD
1000
AcRTDxfName
1000
SCALE
  0
SCALE
  5
14C1
102
{ACAD_REACTORS
330
14B4
102
}
330
14B4
100
AcDbScale
 70
     0
300
2:1
140
2.0
141
1.0
290
     0
1001
ACAD
1000
AcRTDxfName
1000
SCALE
  0
SCALE
  5
14C2
102
{ACAD_REACTORS
330
14B4
102
}
330
14B4
100
AcDbScale
 70
     0
300
4:1
140
4.0
141
1.0
290
     0
1001
ACAD
1000
AcRTDxfName
1000
SCALE
  0
SCALE
  5
14C3
102
{ACAD_REACTORS
330
14B4
102
}
330
14B4
100
AcDbScale
 70
     0
300
8:1
140
8.0
141
1.0
290
     0
1001
ACAD
1000
AcRTDxfName
1000
SCALE
  0
SCALE
  5
14C4
102
{ACAD_REACTORS
330
14B4
102
}
330
14B4
100
AcDbScale
 70
     0
300
10:1
140
10.0
141
1.0
290
     0
1001
ACAD
1000
AcRTDxfName
1000
SCALE
  0
SCALE
  5
14C5
102
{ACAD_REACTORS
330
14B4
102
}
330
14B4
100
AcDbScale
 70
     0
300
100:1
140
100.0
141
1.0
290
     0
1001
ACAD
1000
AcRTDxfName
1000
SCALE
  0
SCALE
  5
14C6
102
{ACAD_REACTORS
330
14B4
102
}
330
14B4
100
AcDbScale
 70
     0
300
1/128" = 1'-0"
140
0.0078125
141
12.0
290
     0
1001
ACAD
1000
AcRTDxfName
1000
SCALE
  0
SCALE
  5
14C7
102
{ACAD_REACTORS
330
14B4
102
}
330
14B4
100
AcDbScale
 70
     0
300
1/64" = 1'-0"
140
0.015625
141
12.0
290
     0
1001
ACAD
1000
AcRTDxfName
1000
SCALE
  0
SCALE
  5
14C8
102
{ACAD_REACTORS
330
14B4
102
}
330
14B4
100
AcDbScale
 70
     0
300
1/32" = 1'-0"
140
0.03125
141
12.0
290
     0
1001
ACAD
1000
AcRTDxfName
1000
SCALE
  0
SCALE
  5
14C9
102
{ACAD_REACTORS
330
14B4
102
}
330
14B4
100
AcDbScale
 70
     0
300
1/16" = 1'-0"
140
0.0625
141
12.0
290
     0
1001
ACAD
1000
AcRTDxfName
1000
SCALE
  0
SCALE
  5
14CA
102
{ACAD_REACTORS
330
14B4
102
}
330
14B4
100
AcDbScale
 70
     0
300
3/32" = 1'-0"
140
0.09375
141
12.0
290
     0
1001
ACAD
1000
AcRTDxfName
1000
SCALE
  0
SCALE
  5
14CB
102
{ACAD_REACTORS
330
14B4
102
}
330
14B4
100
AcDbScale
 70
     0
300
1/8" = 1'-0"
140
0.125
141
12.0
290
     0
1001
ACAD
1000
AcRTDxfName
1000
SCALE
  0
SCALE
  5
14CC
102
{ACAD_REACTORS
330
14B4
102
}
330
14B4
100
AcDbScale
 70
     0
300
3/16" = 1'-0"
140
0.1875
141
12.0
290
     0
1001
ACAD
1000
AcRTDxfName
1000
SCALE
  0
SCALE
  5
14CD
102
{ACAD_REACTORS
330
14B4
102
}
330
14B4
100
AcDbScale
 70
     0
300
1/4" = 1'-0"
140
0.25
141
12.0
290
     0
1001
ACAD
1000
AcRTDxfName
1000
SCALE
  0
SCALE
  5
14CE
102
{ACAD_REACTORS
330
14B4
102
}
330
14B4
100
AcDbScale
 70
     0
300
3/8" = 1'-0"
140
0.375
141
12.0
290
     0
1001
ACAD
1000
AcRTDxfName
1000
SCALE
  0
SCALE
  5
14CF
102
{ACAD_REACTORS
330
14B4
102
}
330
14B4
100
AcDbScale
 70
     0
300
1/2" = 1'-0"
140
0.5
141
12.0
290
     0
1001
ACAD
1000
AcRTDxfName
1000
SCALE
  0
SCALE
  5
14D0
102
{ACAD_REACTORS
330
14B4
102
}
330
14B4
100
AcDbScale
 70
     0
300
3/4" = 1'-0"
140
0.75
141
12.0
290
     0
1001
ACAD
1000
AcRTDxfName
1000
SCALE
  0
SCALE
  5
14D1
102
{ACAD_REACTORS
330
14B4
102
}
330
14B4
100
AcDbScale
 70
     0
300
1" = 1'-0"
140
1.0
141
12.0
290
     0
1001
ACAD
1000
AcRTDxfName
1000
SCALE
  0
SCALE
  5
14D2
102
{ACAD_REACTORS
330
14B4
102
}
330
14B4
100
AcDbScale
 70
     0
300
1-1/2" = 1'-0"
140
1.5
141
12.0
290
     0
1001
ACAD
1000
AcRTDxfName
1000
SCALE
  0
SCALE
  5
14D3
102
{ACAD_REACTORS
330
14B4
102
}
330
14B4
100
AcDbScale
 70
     0
300
3" = 1'-0"
140
3.0
141
12.0
290
     0
1001
ACAD
1000
AcRTDxfName
1000
SCALE
  0
SCALE
  5
14D4
102
{ACAD_REACTORS
330
14B4
102
}
330
14B4
100
AcDbScale
 70
     0
300
6" = 1'-0"
140
6.0
141
12.0
290
     0
1001
ACAD
1000
AcRTDxfName
1000
SCALE
  0
SCALE
  5
14D5
102
{ACAD_REACTORS
330
14B4
102
}
330
14B4
100
AcDbScale
 70
     0
300
1'-0" = 1'-0"
140
12.0
141
12.0
290
     0
1001
ACAD
1000
AcRTDxfName
1000
SCALE
  0
TABLESTYLE
  5
BF0
102
{ACAD_XDICTIONARY
360
1549
102
}
102
{ACAD_REACTORS
330
BEF
102
}
330
BEF
100
AcDbTableStyle
  3
Standard
 70
     0
 71
     0
 40
0.06
 41
0.06
280
     0
281
     0
  7
STANDARD
140
0.18
170
     2
 62
     0
 63
     7
283
     0
274
    -2
284
     1
 64
     0
275
    -2
285
     1
 65
     0
276
    -2
286
     1
 66
     0
277
    -2
287
     1
 67
     0
278
    -2
288
     1
 68
     0
279
    -2
289
     1
 69
     0
  7
STANDARD
140
0.25
170
     5
 62
     0
 63
     7
283
     0
274
    -2
284
     1
 64
     0
275
    -2
285
     1
 65
     0
276
    -2
286
     1
 66
     0
277
    -2
287
     1
 67
     0
278
    -2
288
     1
 68
     0
279
    -2
289
     1
 69
     0
  7
STANDARD
140
0.18
170
     5
 62
     0
 63
     7
283
     0
274
    -2
284
     1
 64
     0
275
    -2
285
     1
 65
     0
276
    -2
286
     1
 66
     0
277
    -2
287
     1
 67
     0
278
    -2
288
     1
 68
     0
279
    -2
289
     1
 69
     0
  0
VISUALSTYLE
  5
BE3
102
{ACAD_XDICTIONARY
360
1557
102
}
102
{ACAD_REACTORS
330
BDD
102
}
330
BDD
100
AcDbVisualStyle
  2

 70
     4
 71
     0
 72
     2
 73
     0
 90
        0
 40
-0.6
 41
-30.0
 62
     5
 63
     7
 74
     1
 91
        4
 64
     7
 65
   257
 75
     1
175
     1
 42
1.0
 92
        0
 66
   257
 43
1.0
 76
     1
 77
     6
 78
     2
 67
     7
 79
     5
170
     0
171
     0
290
     0
174
     0
 93
        1
 44
0.0
173
     0
291
     0
 45
0.0
1001
ACAD
1000
AcDbSavedByObjectVersion
1070
     0
1000
AcDbSavedByObjectVersion
1070
     0
  0
VISUALSTYLE
  5
BE5
102
{ACAD_XDICTIONARY
360
155B
102
}
102
{ACAD_REACTORS
330
BDD
102
}
330
BDD
100
AcDbVisualStyle
  2

 70
     6
 71
     1
 72
     2
 73
     2
 90
        0
 40
-0.6
 41
-30.0
 62
     5
 63
     7
 74
     2
 91
        2
 64
     7
 65
   257
 75
     2
175
     1
 42
40.0
 92
        0
 66
   257
 43
1.0
 76
     1
 77
     6
 78
     2
 67
     7
 79
     3
170
     0
171
     0
290
     0
174
     0
 93
        1
 44
0.0
173
     0
291
     0
 45
0.0
1001
ACAD
1000
AcDbSavedByObjectVersion
1070
     0
1000
AcDbSavedByObjectVersion
1070
     0
  0
VISUALSTYLE
  5
BE4
102
{ACAD_XDICTIONARY
360
1559
102
}
102
{ACAD_REACTORS
330
BDD
102
}
330
BDD
100
AcDbVisualStyle
  2

 70
     5
 71
     0
 72
     2
 73
     0
 90
        0
 40
-0.6
 41
-30.0
 62
     5
 63
     7
 74
     1
 91
        4
 64
     7
 65
   257
 75
     1
175
     1
 42
1.0
 92
        0
 66
   257
 43
1.0
 76
     1
 77
     6
 78
     2
 67
     7
 79
     5
170
     0
171
     0
290
     0
174
     0
 93
        1
 44
0.0
173
     0
291
     0
 45
0.0
1001
ACAD
1000
AcDbSavedByObjectVersion
1070
     0
1000
AcDbSavedByObjectVersion
1070
     0
  0
VISUALSTYLE
  5
BE2
102
{ACAD_XDICTIONARY
360
1555
102
}
102
{ACAD_REACTORS
330
BDD
102
}
330
BDD
100
AcDbVisualStyle
  2

 70
     7
 71
     1
 72
     0
 73
     1
 90
        0
 40
-0.6
 41
-30.0
 62
     5
 63
     7
 74
     0
 91
        4
 64
     7
 65
   257
 75
     1
175
     1
 42
1.0
 92
        8
 66
     7
 43
1.0
 76
     1
 77
     6
 78
     2
 67
     7
 79
     5
170
     0
171
     0
290
     0
174
     0
 93
        1
 44
0.0
173
     0
291
     1
 45
0.0
1001
ACAD
1000
AcDbSavedByObjectVersion
1070
     0
1000
AcDbSavedByObjectVersion
1070
     0
  0
VISUALSTYLE
  5
BE9
102
{ACAD_XDICTIONARY
360
1563
102
}
102
{ACAD_REACTORS
330
BDD
102
}
330
BDD
100
AcDbVisualStyle
  2

 70
    12
 71
     2
 72
     2
 73
     0
 90
        0
 40
-0.6
 41
-30.0
 62
     5
 63
     7
 74
     1
 91
        4
 64
     7
 65
   257
 75
     1
175
     1
 42
1.0
 92
        8
 66
     7
 43
1.0
 76
     1
 77
     6
 78
     2
 67
     7
 79
     5
170
     0
171
     0
290
     0
174
     0
 93
        1
 44
50.0
173
     0
291
     1
 45
0.0
1001
ACAD
1000
AcDbSavedByObjectVersion
1070
     0
1000
AcDbSavedByObjectVersion
1070
     0
  0
VISUALSTYLE
  5
BED
102
{ACAD_XDICTIONARY
360
156B
102
}
102
{ACAD_REACTORS
330
BDD
102
}
330
BDD
100
AcDbVisualStyle
  2

 70
    16
 71
     2
 72
     2
 73
     3
 90
        0
 40
-0.6
 41
-30.0
 62
     5
 63
     8
 74
     1
 91
        4
 64
     7
 65
   257
 75
     1
175
     1
 42
1.0
 92
        8
 66
     8
 43
1.0
 76
     1
 77
     6
 78
     2
 67
     7
 79
     5
170
     0
171
     0
290
     0
174
     0
 93
        1
 44
0.0
173
     0
291
     1
 45
0.0
1001
ACAD
1000
AcDbSavedByObjectVersion
1070
     0
1000
AcDbSavedByObjectVersion
1070
     0
  0
VISUALSTYLE
  5
BE6
102
{ACAD_XDICTIONARY
360
155D
102
}
102
{ACAD_REACTORS
330
BDD
102
}
330
BDD
100
AcDbVisualStyle
  2

 70
     9
 71
     3
 72
     2
 73
     0
 90
        0
 40
-0.6
 41
-30.0
 62
     5
 63
     7
 74
     2
 91
        2
 64
     7
 65
   257
 75
     1
175
     1
 42
40.0
 92
        8
 66
     7
 43
1.0
 76
     1
 77
     6
 78
     2
 67
     7
 79
     3
170
     0
171
     0
290
     0
174
     0
 93
        1
 44
0.0
173
     0
291
     0
 45
0.0
1001
ACAD
1000
AcDbSavedByObjectVersion
1070
     0
1000
AcDbSavedByObjectVersion
1070
     0
  0
VISUALSTYLE
  5
BE8
102
{ACAD_XDICTIONARY
360
1561
102
}
102
{ACAD_REACTORS
330
BDD
102
}
330
BDD
100
AcDbVisualStyle
  2

 70
    11
 71
     2
 72
     2
 73
     0
 90
        0
 40
-0.6
 41
-30.0
 62
     5
 63
     7
 74
     1
 91
        4
 64
     7
 65
   257
 75
     1
175
     1
 42
1.0
 92
        8
 66
     7
 43
1.0
 76
     1
 77
     6
 78
     2
 67
     7
 79
     5
170
     0
171
     0
290
     0
174
     0
 93
        1
 44
-50.0
173
     0
291
     1
 45
0.0
1001
ACAD
1000
AcDbSavedByObjectVersion
1070
     0
1000
AcDbSavedByObjectVersion
1070
     0
  0
VISUALSTYLE
  5
14B3
102
{ACAD_XDICTIONARY
360
1576
102
}
102
{ACAD_REACTORS
330
BDD
102
}
330
BDD
100
AcDbVisualStyle
  2
EdgeColorOff
 70
    22
 71
     2
 72
     2
 73
     0
 90
        0
 40
-0.6
 41
-30.0
 62
     5
 63
     7
 74
     1
 91
        4
 64
     7
 65
   257
 75
     1
175
     1
 42
1.0
 92
        8
 66
     7
 43
1.0
 76
     1
 77
     6
 78
     2
 67
     7
 79
     5
170
     0
171
     0
290
     0
174
     0
 93
        1
 44
0.0
173
     0
291
     1
 45
0.0
1001
ACAD
1000
AcDbSavedByObjectVersion
1070
     0
1000
AcDbSavedByObjectVersion
1070
     0
  0
VISUALSTYLE
  5
BEC
102
{ACAD_XDICTIONARY
360
1569
102
}
102
{ACAD_REACTORS
330
BDD
102
}
330
BDD
100
AcDbVisualStyle
  2

 70
    15
 71
     2
 72
     2
 73
     0
 90
        0
 40
-0.6
 41
-30.0
 62
     5
 63
     7
 74
     1
 91
        4
 64
     7
 65
   257
 75
     1
175
     1
 42
1.0
 92
        8
 66
     7
 43
1.0
 76
     1
 77
     6
 78
     2
 67
     7
 79
     5
170
     0
171
     0
290
     0
174
     0
 93
        1
 44
0.0
173
     0
291
     1
 45
0.0
1001
ACAD
1000
AcDbSavedByObjectVersion
1070
     0
1000
AcDbSavedByObjectVersion
1070
     0
  0
VISUALSTYLE
  5
BDE
102
{ACAD_XDICTIONARY
360
154D
102
}
102
{ACAD_REACTORS
330
BDD
102
}
330
BDD
100
AcDbVisualStyle
  2

 70
     0
 71
     2
 72
     1
 73
     1
 90
        2
 40
-0.6
 41
30.0
 62
     5
 63
     7
 74
     0
 91
        4
 64
     7
 65
   257
 75
     1
175
     1
 42
1.0
 92
        8
 66
     7
 43
1.0
 76
     1
 77
     6
 78
     2
 67
     7
 79
     5
170
     0
171
     0
290
     0
174
     0
 93
       13
 44
0.0
173
     0
291
     1
 45
0.0
1001
ACAD
1000
AcDbSavedByObjectVersion
1070
     0
1000
AcDbSavedByObjectVersion
1070
     0
  0
VISUALSTYLE
  5
BDF
102
{ACAD_XDICTIONARY
360
154F
102
}
102
{ACAD_REACTORS
330
BDD
102
}
330
BDD
100
AcDbVisualStyle
  2

 70
     1
 71
     2
 72
     1
 73
     1
 90
        2
 40
-0.6
 41
30.0
 62
     5
 63
     7
 74
     1
 91
        4
 64
     7
 65
   257
 75
     1
175
     1
 42
1.0
 92
        0
 66
   257
 43
1.0
 76
     1
 77
     6
 78
     2
 67
     7
 79
     5
170
     0
171
     0
290
     0
174
     0
 93
       13
 44
0.0
173
     0
291
     1
 45
0.0
1001
ACAD
1000
AcDbSavedByObjectVersion
1070
     0
1000
AcDbSavedByObjectVersion
1070
     0
  0
VISUALSTYLE
  5
BE0
102
{ACAD_XDICTIONARY
360
1551
102
}
102
{ACAD_REACTORS
330
BDD
102
}
330
BDD
100
AcDbVisualStyle
  2

 70
     2
 71
     2
 72
     2
 73
     1
 90
        2
 40
-0.6
 41
30.0
 62
     5
 63
     7
 74
     0
 91
        4
 64
     7
 65
   257
 75
     1
175
     1
 42
1.0
 92
        0
 66
     7
 43
1.0
 76
     1
 77
     6
 78
     2
 67
     7
 79
     5
170
     0
171
     0
290
     0
174
     0
 93
       13
 44
0.0
173
     0
291
     1
 45
0.0
1001
ACAD
1000
AcDbSavedByObjectVersion
1070
     0
1000
AcDbSavedByObjectVersion
1070
     0
  0
VISUALSTYLE
  5
BE1
102
{ACAD_XDICTIONARY
360
1553
102
}
102
{ACAD_REACTORS
330
BDD
102
}
330
BDD
100
AcDbVisualStyle
  2

 70
     3
 71
     2
 72
     2
 73
     1
 90
        2
 40
-0.6
 41
30.0
 62
     5
 63
     7
 74
     1
 91
        4
 64
     7
 65
   257
 75
     1
175
     1
 42
1.0
 92
        0
 66
   257
 43
1.0
 76
     1
 77
     6
 78
     2
 67
     7
 79
     5
170
     0
171
     0
290
     0
174
     0
 93
       13
 44
0.0
173
     0
291
     1
 45
0.0
1001
ACAD
1000
AcDbSavedByObjectVersion
1070
     0
1000
AcDbSavedByObjectVersion
1070
     0
  0
VISUALSTYLE
  5
14B1
102
{ACAD_XDICTIONARY
360
1572
102
}
102
{ACAD_REACTORS
330
BDD
102
}
330
BDD
100
AcDbVisualStyle
  2
JitterOff
 70
    20
 71
     2
 72
     2
 73
     0
 90
        0
 40
-0.6
 41
-30.0
 62
     5
 63
     7
 74
     1
 91
        4
 64
     7
 65
   257
 75
     1
175
     1
 42
1.0
 92
       10
 66
     7
 43
1.0
 76
     1
 77
     6
 78
     2
 67
     7
 79
     5
170
     0
171
     0
290
     0
174
     0
 93
        1
 44
0.0
173
     0
291
     1
 45
0.0
1001
ACAD
1000
AcDbSavedByObjectVersion
1070
     0
1000
AcDbSavedByObjectVersion
1070
     0
  0
VISUALSTYLE
  5
BEB
102
{ACAD_XDICTIONARY
360
1567
102
}
102
{ACAD_REACTORS
330
BDD
102
}
330
BDD
100
AcDbVisualStyle
  2

 70
    14
 71
     2
 72
     2
 73
     0
 90
        0
 40
-0.6
 41
-30.0
 62
     5
 63
     7
 74
     1
 91
        4
 64
     7
 65
   257
 75
     7
175
     7
 42
1.0
 92
        8
 66
     7
 43
1.0
 76
     1
 77
     6
 78
     2
 67
     7
 79
     5
170
     0
171
     0
290
     0
174
     0
 93
        1
 44
0.0
173
     0
291
     1
 45
0.0
1001
ACAD
1000
AcDbSavedByObjectVersion
1070
     0
1000
AcDbSavedByObjectVersion
1070
     0
  0
VISUALSTYLE
  5
14B2
102
{ACAD_XDICTIONARY
360
1574
102
}
102
{ACAD_REACTORS
330
BDD
102
}
330
BDD
100
AcDbVisualStyle
  2
OverhangOff
 70
    21
 71
     2
 72
     2
 73
     0
 90
        0
 40
-0.6
 41
-30.0
 62
     5
 63
     7
 74
     1
 91
        4
 64
     7
 65
   257
 75
     1
175
     1
 42
1.0
 92
        9
 66
     7
 43
1.0
 76
     1
 77
     6
 78
     2
 67
     7
 79
     5
170
     0
171
     0
290
     0
174
     0
 93
        1
 44
0.0
173
     0
291
     1
 45
0.0
1001
ACAD
1000
AcDbSavedByObjectVersion
1070
     0
1000
AcDbSavedByObjectVersion
1070
     0
  0
VISUALSTYLE
  5
BE7
102
{ACAD_XDICTIONARY
360
155F
102
}
102
{ACAD_REACTORS
330
BDD
102
}
330
BDD
100
AcDbVisualStyle
  2

 70
     8
 71
     2
 72
     2
 73
     0
 90
        0
 40
-0.6
 41
-30.0
 62
     5
 63
     7
 74
     1
 91
        0
 64
     7
 65
   257
 75
     1
175
     1
 42
1.0
 92
        8
 66
     8
 43
1.0
 76
     1
 77
     6
 78
     2
 67
     7
 79
     5
170
     0
171
     0
290
     0
174
     0
 93
       13
 44
0.0
173
     0
291
     0
 45
0.0
1001
ACAD
1000
AcDbSavedByObjectVersion
1070
     0
1000
AcDbSavedByObjectVersion
1070
     0
  0
VISUALSTYLE
  5
BEA
102
{ACAD_XDICTIONARY
360
1565
102
}
102
{ACAD_REACTORS
330
BDD
102
}
330
BDD
100
AcDbVisualStyle
  2

 70
    13
 71
     2
 72
     2
 73
     0
 90
        0
 40
-0.6
 41
-30.0
 62
     5
 63
     7
 74
     1
 91
        4
 64
     7
 65
   257
 75
     1
175
     1
 42
1.0
 92
       12
 66
     7
 43
1.0
 76
     1
 77
     6
 78
     2
 67
     7
 79
     5
170
     0
171
     0
290
     0
174
     0
 93
        1
 44
0.0
173
     0
291
     1
 45
0.0
1001
ACAD
1000
AcDbSavedByObjectVersion
1070
     0
1000
AcDbSavedByObjectVersion
1070
     0
  0
DICTIONARYVAR
  5
1517
102
{ACAD_REACTORS
330
106F
102
}
330
106F
100
DictionaryVariables
280
     0
  1
1:1
  0
DICTIONARYVAR
  5
1516
102
{ACAD_REACTORS
330
106F
102
}
330
106F
100
DictionaryVariables
280
     0
  1
STANDARD
  0
DICTIONARYVAR
  5
1070
102
{ACAD_REACTORS
330
106F
102
}
330
106F
100
DictionaryVariables
280
     0
  1
STANDARD
  0
DICTIONARYVAR
  5
117F
102
{ACAD_REACTORS
330
106F
102
}
330
106F
100
DictionaryVariables
280
     0
  1
1
  0
DICTIONARYVAR
  5
117E
102
{ACAD_REACTORS
330
106F
102
}
330
106F
100
DictionaryVariables
280
     0
  1
0
  0
DICTIONARYVAR
  5
117D
102
{ACAD_REACTORS
330
106F
102
}
330
106F
100
DictionaryVariables
280
     0
  1
127
  0
DICTIONARYVAR
  5
1518
102
{ACAD_REACTORS
330
106F
102
}
330
106F
100
DictionaryVariables
280
     0
  1
0
  0
DICTIONARY
  5
188A
330
BF3
100
AcDbDictionary
280
     1
281
     1
  3
ACAD_XREC_ROUNDTRIP
360
188B
  0
DICTIONARY
  5
1888
330
BF2
100
AcDbDictionary
280
     1
281
     1
  3
ACAD_XREC_ROUNDTRIP
360
1889
  0
DICTIONARY
  5
1183
330
BDB
100
AcDbDictionary
280
     1
281
     1
  3
ACAD_XREC_ROUNDTRIP
360
1184
  0
DICTIONARY
  5
1181
330
BDA
100
AcDbDictionary
280
     1
281
     1
  3
ACAD_XREC_ROUNDTRIP
360
1182
  0
DICTIONARY
  5
1185
330
BDC
100
AcDbDictionary
280
     1
281
     1
  3
ACAD_XREC_ROUNDTRIP
360
1186
  0
DICTIONARY
  5
1549
330
BF0
100
AcDbDictionary
280
     1
281
     1
  3
ACAD_ROUNDTRIP_2008_TABLESTYLE_CELLSTYLEMAP
360
154A
  3
ACAD_XREC_ROUNDTRIP
360
1887
  0
DICTIONARY
  5
1557
330
BE3
100
AcDbDictionary
280
     1
281
     1
  3
ACAD_XREC_ROUNDTRIP
360
1558
  0
DICTIONARY
  5
155B
330
BE5
100
AcDbDictionary
280
     1
281
     1
  3
ACAD_XREC_ROUNDTRIP
360
155C
  0
DICTIONARY
  5
1559
330
BE4
100
AcDbDictionary
280
     1
281
     1
  3
ACAD_XREC_ROUNDTRIP
360
155A
  0
DICTIONARY
  5
1555
330
BE2
100
AcDbDictionary
280
     1
281
     1
  3
ACAD_XREC_ROUNDTRIP
360
1556
  0
DICTIONARY
  5
1563
330
BE9
100
AcDbDictionary
280
     1
281
     1
  3
ACAD_XREC_ROUNDTRIP
360
1564
  0
DICTIONARY
  5
156B
330
BED
100
AcDbDictionary
280
     1
281
     1
  3
ACAD_XREC_ROUNDTRIP
360
156C
  0
DICTIONARY
  5
155D
330
BE6
100
AcDbDictionary
280
     1
281
     1
  3
ACAD_XREC_ROUNDTRIP
360
155E
  0
DICTIONARY
  5
1561
330
BE8
100
AcDbDictionary
280
     1
281
     1
  3
ACAD_XREC_ROUNDTRIP
360
1562
  0
DICTIONARY
  5
1576
330
14B3
100
AcDbDictionary
280
     1
281
     1
  3
ACAD_XREC_ROUNDTRIP
360
1577
  0
DICTIONARY
  5
1569
330
BEC
100
AcDbDictionary
280
     1
281
     1
  3
ACAD_XREC_ROUNDTRIP
360
156A
  0
DICTIONARY
  5
154D
330
BDE
100
AcDbDictionary
280
     1
281
     1
  3
ACAD_XREC_ROUNDTRIP
360
154E
  0
DICTIONARY
  5
154F
330
BDF
100
AcDbDictionary
280
     1
281
     1
  3
ACAD_XREC_ROUNDTRIP
360
1550
  0
DICTIONARY
  5
1551
330
BE0
100
AcDbDictionary
280
     1
281
     1
  3
ACAD_XREC_ROUNDTRIP
360
1552
  0
DICTIONARY
  5
1553
330
BE1
100
AcDbDictionary
280
     1
281
     1
  3
ACAD_XREC_ROUNDTRIP
360
1554
  0
DICTIONARY
  5
1572
330
14B1
100
AcDbDictionary
280
     1
281
     1
  3
ACAD_XREC_ROUNDTRIP
360
1573
  0
DICTIONARY
  5
1567
330
BEB
100
AcDbDictionary
280
     1
281
     1
  3
ACAD_XREC_ROUNDTRIP
360
1568
  0
DICTIONARY
  5
1574
330
14B2
100
AcDbDictionary
280
     1
281
     1
  3
ACAD_XREC_ROUNDTRIP
360
1575
  0
DICTIONARY
  5
155F
330
BE7
100
AcDbDictionary
280
     1
281
     1
  3
ACAD_XREC_ROUNDTRIP
360
1560
  0
DICTIONARY
  5
1565
330
BEA
100
AcDbDictionary
280
     1
281
     1
  3
ACAD_XREC_ROUNDTRIP
360
1566
  0
XRECORD
  5
188B
102
{ACAD_REACTORS
330
188A
102
}
330
188A
100
AcDbXrecord
280
     1
102
SHADEPLOT
 70
     0
102
SHADEPLOTRESLEVEL
 70
     2
102
SHADEPLOTCUSTOMDPI
 70
   300
  0
XRECORD
  5
1889
102
{ACAD_REACTORS
330
1888
102
}
330
1888
100
AcDbXrecord
280
     1
102
SHADEPLOT
 70
     0
102
SHADEPLOTRESLEVEL
 70
     2
102
SHADEPLOTCUSTOMDPI
 70
   300
  0
XRECORD
  5
1184
102
{ACAD_REACTORS
330
1183
102
}
330
1183
100
AcDbXrecord
280
     1
102
MATERIAL
148
0.0
149
0.0
149
0.0
 93
        0
 94
       63
282
     0
 72
     1
 77
     1
171
     1
175
     1
179
     1
273
     0
  0
XRECORD
  5
1182
102
{ACAD_REACTORS
330
1181
102
}
330
1181
100
AcDbXrecord
280
     1
102
MATERIAL
148
0.0
149
0.0
149
0.0
 93
        0
 94
       63
282
     0
 72
     1
 77
     1
171
     1
175
     1
179
     1
273
     0
  0
XRECORD
  5
1186
102
{ACAD_REACTORS
330
1185
102
}
330
1185
100
AcDbXrecord
280
     1
102
MATERIAL
148
0.0
149
0.0
149
0.0
 93
        0
 94
       63
282
     0
 72
     1
 77
     1
171
     1
175
     1
179
     1
273
     0
  0
CELLSTYLEMAP
  5
154A
102
{ACAD_REACTORS
330
1549
102
}
330
1549
100
AcDbCellStyleMap
 90
        3
300
CELLSTYLE
  1
TABLEFORMAT_BEGIN
 90
        5
170
     1
 91
        0
 92
    32768
 62
   257
 93
        1
300
CONTENTFORMAT
  1
CONTENTFORMAT_BEGIN
 90
        0
 91
        0
 92
      512
 93
        0
300

 40
0.0
140
1.0
 94
        5
 62
     0
340
182
144
0.25
309
CONTENTFORMAT_END
171
     0
 94
        6
 95
        1
302
GRIDFORMAT
  1
GRIDFORMAT_BEGIN
 90
        0
 91
        1
 62
     0
 92
       -2
340
0
 93
        0
 40
0.045
309
GRIDFORMAT_END
 95
        2
302
GRIDFORMAT
  1
GRIDFORMAT_BEGIN
 90
        0
 91
        1
 62
     0
 92
       -2
340
0
 93
        0
 40
0.045
309
GRIDFORMAT_END
 95
        4
302
GRIDFORMAT
  1
GRIDFORMAT_BEGIN
 90
        0
 91
        1
 62
     0
 92
       -2
340
0
 93
        0
 40
0.045
309
GRIDFORMAT_END
 95
        8
302
GRIDFORMAT
  1
GRIDFORMAT_BEGIN
 90
        0
 91
        1
 62
     0
 92
       -2
340
0
 93
        0
 40
0.045
309
GRIDFORMAT_END
 95
       16
302
GRIDFORMAT
  1
GRIDFORMAT_BEGIN
 90
        0
 91
        1
 62
     0
 92
       -2
340
0
 93
        0
 40
0.045
309
GRIDFORMAT_END
 95
       32
302
GRIDFORMAT
  1
GRIDFORMAT_BEGIN
 90
        0
 91
        1
 62
     0
 92
       -2
340
0
 93
        0
 40
0.045
309
GRIDFORMAT_END
309
TABLEFORMAT_END
  1
CELLSTYLE_BEGIN
 90
        1
 91
        1
300
_TITLE
309
CELLSTYLE_END
300
CELLSTYLE
  1
TABLEFORMAT_BEGIN
 90
        5
170
     1
 91
        0
 92
        0
 62
   257
 93
        1
300
CONTENTFORMAT
  1
CONTENTFORMAT_BEGIN
 90
        0
 91
        0
 92
      512
 93
        0
300

 40
0.0
140
1.0
 94
        5
 62
     0
340
182
144
0.18
309
CONTENTFORMAT_END
171
     0
 94
        6
 95
        1
302
GRIDFORMAT
  1
GRIDFORMAT_BEGIN
 90
        0
 91
        1
 62
     0
 92
       -2
340
0
 93
        0
 40
0.045
309
GRIDFORMAT_END
 95
        2
302
GRIDFORMAT
  1
GRIDFORMAT_BEGIN
 90
        0
 91
        1
 62
     0
 92
       -2
340
0
 93
        0
 40
0.045
309
GRIDFORMAT_END
 95
        4
302
GRIDFORMAT
  1
GRIDFORMAT_BEGIN
 90
        0
 91
        1
 62
     0
 92
       -2
340
0
 93
        0
 40
0.045
309
GRIDFORMAT_END
 95
        8
302
GRIDFORMAT
  1
GRIDFORMAT_BEGIN
 90
        0
 91
        1
 62
     0
 92
       -2
340
0
 93
        0
 40
0.045
309
GRIDFORMAT_END
 95
       16
302
GRIDFORMAT
  1
GRIDFORMAT_BEGIN
 90
        0
 91
        1
 62
     0
 92
       -2
340
0
 93
        0
 40
0.045
309
GRIDFORMAT_END
 95
       32
302
GRIDFORMAT
  1
GRIDFORMAT_BEGIN
 90
        0
 91
        1
 62
     0
 92
       -2
340
0
 93
        0
 40
0.045
309
GRIDFORMAT_END
309
TABLEFORMAT_END
  1
CELLSTYLE_BEGIN
 90
        2
 91
        1
300
_HEADER
309
CELLSTYLE_END
300
CELLSTYLE
  1
TABLEFORMAT_BEGIN
 90
        5
170
     1
 91
        0
 92
        0
 62
   257
 93
        1
300
CONTENTFORMAT
  1
CONTENTFORMAT_BEGIN
 90
        0
 91
        0
 92
      512
 93
        0
300

 40
0.0
140
1.0
 94
        2
 62
     0
340
182
144
0.18
309
CONTENTFORMAT_END
171
     0
 94
        6
 95
        1
302
GRIDFORMAT
  1
GRIDFORMAT_BEGIN
 90
        0
 91
        1
 62
     0
 92
       -2
340
0
 93
        0
 40
0.045
309
GRIDFORMAT_END
 95
        2
302
GRIDFORMAT
  1
GRIDFORMAT_BEGIN
 90
        0
 91
        1
 62
     0
 92
       -2
340
0
 93
        0
 40
0.045
309
GRIDFORMAT_END
 95
        4
302
GRIDFORMAT
  1
GRIDFORMAT_BEGIN
 90
        0
 91
        1
 62
     0
 92
       -2
340
0
 93
        0
 40
0.045
309
GRIDFORMAT_END
 95
        8
302
GRIDFORMAT
  1
GRIDFORMAT_BEGIN
 90
        0
 91
        1
 62
     0
 92
       -2
340
0
 93
        0
 40
0.045
309
GRIDFORMAT_END
 95
       16
302
GRIDFORMAT
  1
GRIDFORMAT_BEGIN
 90
        0
 91
        1
 62
     0
 92
       -2
340
0
 93
        0
 40
0.045
309
GRIDFORMAT_END
 95
       32
302
GRIDFORMAT
  1
GRIDFORMAT_BEGIN
 90
        0
 91
        1
 62
     0
 92
       -2
340
0
 93
        0
 40
0.045
309
GRIDFORMAT_END
309
TABLEFORMAT_END
  1
CELLSTYLE_BEGIN
 90
        3
 91
        2
300
_DATA
309
CELLSTYLE_END
1001
ACAD
1000
AcRTDxfName
1000
CELLSTYLEMAP
  0
XRECORD
  5
1887
102
{ACAD_REACTORS
330
1549
102
}
330
1549
100
AcDbXrecord
280
     1
102
ACAD_ROUNDTRIP_PRE2007_TABLESTYLE
 90
      512
 91
        0
  1

 92
      512
 93
        0
  2

 94
      512
 95
        0
  3

  0
XRECORD
  5
1558
102
{ACAD_REACTORS
330
1557
102
}
330
1557
100
AcDbXrecord
280
     1
102
RTVSPropertyOp0
 70
     1
102
RTVSPropertyOp1
 70
     1
102
RTVSPropertyOp2
 70
     1
102
RTVSPropertyOp3
 70
     1
102
RTVSPropertyOp4
 70
     1
102
RTVSPropertyOp5
 70
     1
102
RTVSPropertyOp6
 70
     1
102
RTVSPropertyOp7
 70
     1
102
RTVSPropertyOp8
 70
     1
102
RTVSPropertyOp9
 70
     1
102
RTVSPropertyOp10
 70
     1
102
RTVSPropertyOp11
 70
     1
102
RTVSPropertyOp12
 70
     1
102
RTVSPropertyOp13
 70
     1
102
RTVSPropertyOp14
 70
     1
102
RTVSPropertyOp15
 70
     1
102
RTVSPropertyOp16
 70
     1
102
RTVSPropertyOp17
 70
     1
102
RTVSPropertyOp18
 70
     1
102
RTVSPropertyOp19
 70
     1
102
RTVSPropertyOp20
 70
     1
102
RTVSPropertyOp21
 70
     1
102
RTVSPropertyOp22
 70
     1
102
RTVSPropertyOp23
 70
     1
102
RTVSPropertyOp24
 70
     1
102
RTVSPropertyOp25
 70
     1
102
RTVSPropertyOp26
 70
     1
102
RTVSPropertyOp27
 70
     1
  0
XRECORD
  5
155C
102
{ACAD_REACTORS
330
155B
102
}
330
155B
100
AcDbXrecord
280
     1
102
RTVSPropertyOp0
 70
     1
102
RTVSPropertyOp1
 70
     1
102
RTVSPropertyOp2
 70
     1
102
RTVSPropertyOp3
 70
     1
102
RTVSPropertyOp4
 70
     1
102
RTVSPropertyOp5
 70
     1
102
RTVSPropertyOp6
 70
     1
102
RTVSPropertyOp7
 70
     1
102
RTVSPropertyOp8
 70
     1
102
RTVSPropertyOp9
 70
     1
102
RTVSPropertyOp10
 70
     1
102
RTVSPropertyOp11
 70
     1
102
RTVSPropertyOp12
 70
     1
102
RTVSPropertyOp13
 70
     1
102
RTVSPropertyOp14
 70
     1
102
RTVSPropertyOp15
 70
     1
102
RTVSPropertyOp16
 70
     1
102
RTVSPropertyOp17
 70
     1
102
RTVSPropertyOp18
 70
     1
102
RTVSPropertyOp19
 70
     1
102
RTVSPropertyOp20
 70
     1
102
RTVSPropertyOp21
 70
     1
102
RTVSPropertyOp22
 70
     1
102
RTVSPropertyOp23
 70
     1
102
RTVSPropertyOp24
 70
     1
102
RTVSPropertyOp25
 70
     1
102
RTVSPropertyOp26
 70
     1
102
RTVSPropertyOp27
 70
     1
  0
XRECORD
  5
155A
102
{ACAD_REACTORS
330
1559
102
}
330
1559
100
AcDbXrecord
280
     1
102
RTVSPropertyOp0
 70
     1
102
RTVSPropertyOp1
 70
     1
102
RTVSPropertyOp2
 70
     1
102
RTVSPropertyOp3
 70
     1
102
RTVSPropertyOp4
 70
     1
102
RTVSPropertyOp5
 70
     1
102
RTVSPropertyOp6
 70
     1
102
RTVSPropertyOp7
 70
     1
102
RTVSPropertyOp8
 70
     1
102
RTVSPropertyOp9
 70
     1
102
RTVSPropertyOp10
 70
     1
102
RTVSPropertyOp11
 70
     1
102
RTVSPropertyOp12
 70
     1
102
RTVSPropertyOp13
 70
     1
102
RTVSPropertyOp14
 70
     1
102
RTVSPropertyOp15
 70
     1
102
RTVSPropertyOp16
 70
     1
102
RTVSPropertyOp17
 70
     1
102
RTVSPropertyOp18
 70
     1
102
RTVSPropertyOp19
 70
     1
102
RTVSPropertyOp20
 70
     1
102
RTVSPropertyOp21
 70
     1
102
RTVSPropertyOp22
 70
     1
102
RTVSPropertyOp23
 70
     1
102
RTVSPropertyOp24
 70
     1
102
RTVSPropertyOp25
 70
     1
102
RTVSPropertyOp26
 70
     1
102
RTVSPropertyOp27
 70
     1
  0
XRECORD
  5
1556
102
{ACAD_REACTORS
330
1555
102
}
330
1555
100
AcDbXrecord
280
     1
102
RTVSPropertyOp0
 70
     1
102
RTVSPropertyOp1
 70
     1
102
RTVSPropertyOp2
 70
     1
102
RTVSPropertyOp3
 70
     1
102
RTVSPropertyOp4
 70
     1
102
RTVSPropertyOp5
 70
     1
102
RTVSPropertyOp6
 70
     1
102
RTVSPropertyOp7
 70
     1
102
RTVSPropertyOp8
 70
     1
102
RTVSPropertyOp9
 70
     1
102
RTVSPropertyOp10
 70
     1
102
RTVSPropertyOp11
 70
     1
102
RTVSPropertyOp12
 70
     1
102
RTVSPropertyOp13
 70
     1
102
RTVSPropertyOp14
 70
     1
102
RTVSPropertyOp15
 70
     1
102
RTVSPropertyOp16
 70
     1
102
RTVSPropertyOp17
 70
     1
102
RTVSPropertyOp18
 70
     1
102
RTVSPropertyOp19
 70
     1
102
RTVSPropertyOp20
 70
     1
102
RTVSPropertyOp21
 70
     1
102
RTVSPropertyOp22
 70
     1
102
RTVSPropertyOp23
 70
     1
102
RTVSPropertyOp24
 70
     1
102
RTVSPropertyOp25
 70
     1
102
RTVSPropertyOp26
 70
     1
102
RTVSPropertyOp27
 70
     1
  0
XRECORD
  5
1564
102
{ACAD_REACTORS
330
1563
102
}
330
1563
100
AcDbXrecord
280
     1
102
RTVSPropertyOp0
 70
     1
102
RTVSPropertyOp1
 70
     1
102
RTVSPropertyOp2
 70
     1
102
RTVSPropertyOp3
 70
     1
102
RTVSPropertyOp4
 70
     1
102
RTVSPropertyOp5
 70
     1
102
RTVSPropertyOp6
 70
     1
102
RTVSPropertyOp7
 70
     1
102
RTVSPropertyOp8
 70
     1
102
RTVSPropertyOp9
 70
     1
102
RTVSPropertyOp10
 70
     1
102
RTVSPropertyOp11
 70
     1
102
RTVSPropertyOp12
 70
     1
102
RTVSPropertyOp13
 70
     1
102
RTVSPropertyOp14
 70
     1
102
RTVSPropertyOp15
 70
     1
102
RTVSPropertyOp16
 70
     1
102
RTVSPropertyOp17
 70
     1
102
RTVSPropertyOp18
 70
     1
102
RTVSPropertyOp19
 70
     1
102
RTVSPropertyOp20
 70
     1
102
RTVSPropertyOp21
 70
     1
102
RTVSPropertyOp22
 70
     1
102
RTVSPropertyOp23
 70
     1
102
RTVSPropertyOp24
 70
     1
102
RTVSPropertyOp25
 70
     1
102
RTVSPropertyOp26
 70
     1
102
RTVSPropertyOp27
 70
     1
  0
XRECORD
  5
156C
102
{ACAD_REACTORS
330
156B
102
}
330
156B
100
AcDbXrecord
280
     1
102
RTVSPropertyOp0
 70
     1
102
RTVSPropertyOp1
 70
     1
102
RTVSPropertyOp2
 70
     1
102
RTVSPropertyOp3
 70
     1
102
RTVSPropertyOp4
 70
     1
102
RTVSPropertyOp5
 70
     1
102
RTVSPropertyOp6
 70
     1
102
RTVSPropertyOp7
 70
     1
102
RTVSPropertyOp8
 70
     1
102
RTVSPropertyOp9
 70
     1
102
RTVSPropertyOp10
 70
     1
102
RTVSPropertyOp11
 70
     1
102
RTVSPropertyOp12
 70
     1
102
RTVSPropertyOp13
 70
     1
102
RTVSPropertyOp14
 70
     1
102
RTVSPropertyOp15
 70
     1
102
RTVSPropertyOp16
 70
     1
102
RTVSPropertyOp17
 70
     1
102
RTVSPropertyOp18
 70
     1
102
RTVSPropertyOp19
 70
     1
102
RTVSPropertyOp20
 70
     1
102
RTVSPropertyOp21
 70
     1
102
RTVSPropertyOp22
 70
     1
102
RTVSPropertyOp23
 70
     1
102
RTVSPropertyOp24
 70
     1
102
RTVSPropertyOp25
 70
     1
102
RTVSPropertyOp26
 70
     1
102
RTVSPropertyOp27
 70
     1
  0
XRECORD
  5
155E
102
{ACAD_REACTORS
330
155D
102
}
330
155D
100
AcDbXrecord
280
     1
102
RTVSPropertyOp0
 70
     1
102
RTVSPropertyOp1
 70
     1
102
RTVSPropertyOp2
 70
     1
102
RTVSPropertyOp3
 70
     1
102
RTVSPropertyOp4
 70
     1
102
RTVSPropertyOp5
 70
     1
102
RTVSPropertyOp6
 70
     1
102
RTVSPropertyOp7
 70
     1
102
RTVSPropertyOp8
 70
     1
102
RTVSPropertyOp9
 70
     1
102
RTVSPropertyOp10
 70
     1
102
RTVSPropertyOp11
 70
     1
102
RTVSPropertyOp12
 70
     1
102
RTVSPropertyOp13
 70
     1
102
RTVSPropertyOp14
 70
     1
102
RTVSPropertyOp15
 70
     1
102
RTVSPropertyOp16
 70
     1
102
RTVSPropertyOp17
 70
     1
102
RTVSPropertyOp18
 70
     1
102
RTVSPropertyOp19
 70
     1
102
RTVSPropertyOp20
 70
     1
102
RTVSPropertyOp21
 70
     1
102
RTVSPropertyOp22
 70
     1
102
RTVSPropertyOp23
 70
     1
102
RTVSPropertyOp24
 70
     1
102
RTVSPropertyOp25
 70
     1
102
RTVSPropertyOp26
 70
     1
102
RTVSPropertyOp27
 70
     1
  0
XRECORD
  5
1562
102
{ACAD_REACTORS
330
1561
102
}
330
1561
100
AcDbXrecord
280
     1
102
RTVSPropertyOp0
 70
     1
102
RTVSPropertyOp1
 70
     1
102
RTVSPropertyOp2
 70
     1
102
RTVSPropertyOp3
 70
     1
102
RTVSPropertyOp4
 70
     1
102
RTVSPropertyOp5
 70
     1
102
RTVSPropertyOp6
 70
     1
102
RTVSPropertyOp7
 70
     1
102
RTVSPropertyOp8
 70
     1
102
RTVSPropertyOp9
 70
     1
102
RTVSPropertyOp10
 70
     1
102
RTVSPropertyOp11
 70
     1
102
RTVSPropertyOp12
 70
     1
102
RTVSPropertyOp13
 70
     1
102
RTVSPropertyOp14
 70
     1
102
RTVSPropertyOp15
 70
     1
102
RTVSPropertyOp16
 70
     1
102
RTVSPropertyOp17
 70
     1
102
RTVSPropertyOp18
 70
     1
102
RTVSPropertyOp19
 70
     1
102
RTVSPropertyOp20
 70
     1
102
RTVSPropertyOp21
 70
     1
102
RTVSPropertyOp22
 70
     1
102
RTVSPropertyOp23
 70
     1
102
RTVSPropertyOp24
 70
     1
102
RTVSPropertyOp25
 70
     1
102
RTVSPropertyOp26
 70
     1
102
RTVSPropertyOp27
 70
     1
  0
XRECORD
  5
1577
102
{ACAD_REACTORS
330
1576
102
}
330
1576
100
AcDbXrecord
280
     1
102
RTVSPropertyOp0
 70
     0
102
RTVSPropertyOp1
 70
     0
102
RTVSPropertyOp2
 70
     0
102
RTVSPropertyOp3
 70
     0
102
RTVSPropertyOp4
 70
     0
102
RTVSPropertyOp5
 70
     0
102
RTVSPropertyOp6
 70
     0
102
RTVSPropertyOp7
 70
     0
102
RTVSPropertyOp8
 70
     0
102
RTVSPropertyOp9
 70
     0
102
RTVSPropertyOp10
 70
     0
102
RTVSPropertyOp11
 70
     0
102
RTVSPropertyOp12
 70
     0
102
RTVSPropertyOp13
 70
     0
102
RTVSPropertyOp14
 70
     2
102
RTVSPropertyOp15
 70
     0
102
RTVSPropertyOp16
 70
     0
102
RTVSPropertyOp17
 70
     0
102
RTVSPropertyOp18
 70
     0
102
RTVSPropertyOp19
 70
     0
102
RTVSPropertyOp20
 70
     0
102
RTVSPropertyOp21
 70
     0
102
RTVSPropertyOp22
 70
     0
102
RTVSPropertyOp23
 70
     0
102
RTVSPropertyOp24
 70
     0
102
RTVSPropertyOp25
 70
     0
102
RTVSPropertyOp26
 70
     0
102
RTVSPropertyOp27
 70
     0
  0
XRECORD
  5
156A
102
{ACAD_REACTORS
330
1569
102
}
330
1569
100
AcDbXrecord
280
     1
102
RTVSPropertyOp0
 70
     1
102
RTVSPropertyOp1
 70
     1
102
RTVSPropertyOp2
 70
     1
102
RTVSPropertyOp3
 70
     1
102
RTVSPropertyOp4
 70
     1
102
RTVSPropertyOp5
 70
     1
102
RTVSPropertyOp6
 70
     1
102
RTVSPropertyOp7
 70
     1
102
RTVSPropertyOp8
 70
     1
102
RTVSPropertyOp9
 70
     1
102
RTVSPropertyOp10
 70
     1
102
RTVSPropertyOp11
 70
     1
102
RTVSPropertyOp12
 70
     1
102
RTVSPropertyOp13
 70
     1
102
RTVSPropertyOp14
 70
     1
102
RTVSPropertyOp15
 70
     1
102
RTVSPropertyOp16
 70
     1
102
RTVSPropertyOp17
 70
     1
102
RTVSPropertyOp18
 70
     1
102
RTVSPropertyOp19
 70
     1
102
RTVSPropertyOp20
 70
     1
102
RTVSPropertyOp21
 70
     1
102
RTVSPropertyOp22
 70
     1
102
RTVSPropertyOp23
 70
     1
102
RTVSPropertyOp24
 70
     1
102
RTVSPropertyOp25
 70
     1
102
RTVSPropertyOp26
 70
     1
102
RTVSPropertyOp27
 70
     1
  0
XRECORD
  5
154E
102
{ACAD_REACTORS
330
154D
102
}
330
154D
100
AcDbXrecord
280
     1
102
RTVSPropertyOp0
 70
     1
102
RTVSPropertyOp1
 70
     1
102
RTVSPropertyOp2
 70
     1
102
RTVSPropertyOp3
 70
     1
102
RTVSPropertyOp4
 70
     1
102
RTVSPropertyOp5
 70
     1
102
RTVSPropertyOp6
 70
     1
102
RTVSPropertyOp7
 70
     1
102
RTVSPropertyOp8
 70
     1
102
RTVSPropertyOp9
 70
     1
102
RTVSPropertyOp10
 70
     1
102
RTVSPropertyOp11
 70
     1
102
RTVSPropertyOp12
 70
     1
102
RTVSPropertyOp13
 70
     1
102
RTVSPropertyOp14
 70
     1
102
RTVSPropertyOp15
 70
     1
102
RTVSPropertyOp16
 70
     1
102
RTVSPropertyOp17
 70
     1
102
RTVSPropertyOp18
 70
     1
102
RTVSPropertyOp19
 70
     1
102
RTVSPropertyOp20
 70
     1
102
RTVSPropertyOp21
 70
     1
102
RTVSPropertyOp22
 70
     1
102
RTVSPropertyOp23
 70
     1
102
RTVSPropertyOp24
 70
     1
102
RTVSPropertyOp25
 70
     1
102
RTVSPropertyOp26
 70
     1
102
RTVSPropertyOp27
 70
     1
  0
XRECORD
  5
1550
102
{ACAD_REACTORS
330
154F
102
}
330
154F
100
AcDbXrecord
280
     1
102
RTVSPropertyOp0
 70
     1
102
RTVSPropertyOp1
 70
     1
102
RTVSPropertyOp2
 70
     1
102
RTVSPropertyOp3
 70
     1
102
RTVSPropertyOp4
 70
     1
102
RTVSPropertyOp5
 70
     1
102
RTVSPropertyOp6
 70
     1
102
RTVSPropertyOp7
 70
     1
102
RTVSPropertyOp8
 70
     1
102
RTVSPropertyOp9
 70
     1
102
RTVSPropertyOp10
 70
     1
102
RTVSPropertyOp11
 70
     1
102
RTVSPropertyOp12
 70
     1
102
RTVSPropertyOp13
 70
     1
102
RTVSPropertyOp14
 70
     1
102
RTVSPropertyOp15
 70
     1
102
RTVSPropertyOp16
 70
     1
102
RTVSPropertyOp17
 70
     1
102
RTVSPropertyOp18
 70
     1
102
RTVSPropertyOp19
 70
     1
102
RTVSPropertyOp20
 70
     1
102
RTVSPropertyOp21
 70
     1
102
RTVSPropertyOp22
 70
     1
102
RTVSPropertyOp23
 70
     1
102
RTVSPropertyOp24
 70
     1
102
RTVSPropertyOp25
 70
     1
102
RTVSPropertyOp26
 70
     1
102
RTVSPropertyOp27
 70
     1
  0
XRECORD
  5
1552
102
{ACAD_REACTORS
330
1551
102
}
330
1551
100
AcDbXrecord
280
     1
102
RTVSPropertyOp0
 70
     1
102
RTVSPropertyOp1
 70
     1
102
RTVSPropertyOp2
 70
     1
102
RTVSPropertyOp3
 70
     1
102
RTVSPropertyOp4
 70
     1
102
RTVSPropertyOp5
 70
     1
102
RTVSPropertyOp6
 70
     1
102
RTVSPropertyOp7
 70
     1
102
RTVSPropertyOp8
 70
     1
102
RTVSPropertyOp9
 70
     1
102
RTVSPropertyOp10
 70
     1
102
RTVSPropertyOp11
 70
     1
102
RTVSPropertyOp12
 70
     1
102
RTVSPropertyOp13
 70
     1
102
RTVSPropertyOp14
 70
     1
102
RTVSPropertyOp15
 70
     1
102
RTVSPropertyOp16
 70
     1
102
RTVSPropertyOp17
 70
     1
102
RTVSPropertyOp18
 70
     1
102
RTVSPropertyOp19
 70
     1
102
RTVSPropertyOp20
 70
     1
102
RTVSPropertyOp21
 70
     1
102
RTVSPropertyOp22
 70
     1
102
RTVSPropertyOp23
 70
     1
102
RTVSPropertyOp24
 70
     1
102
RTVSPropertyOp25
 70
     1
102
RTVSPropertyOp26
 70
     1
102
RTVSPropertyOp27
 70
     1
  0
XRECORD
  5
1554
102
{ACAD_REACTORS
330
1553
102
}
330
1553
100
AcDbXrecord
280
     1
102
RTVSPropertyOp0
 70
     1
102
RTVSPropertyOp1
 70
     1
102
RTVSPropertyOp2
 70
     1
102
RTVSPropertyOp3
 70
     1
102
RTVSPropertyOp4
 70
     1
102
RTVSPropertyOp5
 70
     1
102
RTVSPropertyOp6
 70
     1
102
RTVSPropertyOp7
 70
     1
102
RTVSPropertyOp8
 70
     1
102
RTVSPropertyOp9
 70
     1
102
RTVSPropertyOp10
 70
     1
102
RTVSPropertyOp11
 70
     1
102
RTVSPropertyOp12
 70
     1
102
RTVSPropertyOp13
 70
     1
102
RTVSPropertyOp14
 70
     1
102
RTVSPropertyOp15
 70
     1
102
RTVSPropertyOp16
 70
     1
102
RTVSPropertyOp17
 70
     1
102
RTVSPropertyOp18
 70
     1
102
RTVSPropertyOp19
 70
     1
102
RTVSPropertyOp20
 70
     1
102
RTVSPropertyOp21
 70
     1
102
RTVSPropertyOp22
 70
     1
102
RTVSPropertyOp23
 70
     1
102
RTVSPropertyOp24
 70
     1
102
RTVSPropertyOp25
 70
     1
102
RTVSPropertyOp26
 70
     1
102
RTVSPropertyOp27
 70
     1
  0
XRECORD
  5
1573
102
{ACAD_REACTORS
330
1572
102
}
330
1572
100
AcDbXrecord
280
     1
102
RTVSPropertyOp0
 70
     0
102
RTVSPropertyOp1
 70
     0
102
RTVSPropertyOp2
 70
     0
102
RTVSPropertyOp3
 70
     0
102
RTVSPropertyOp4
 70
     0
102
RTVSPropertyOp5
 70
     0
102
RTVSPropertyOp6
 70
     0
102
RTVSPropertyOp7
 70
     0
102
RTVSPropertyOp8
 70
     0
102
RTVSPropertyOp9
 70
     0
102
RTVSPropertyOp10
 70
     0
102
RTVSPropertyOp11
 70
     0
102
RTVSPropertyOp12
 70
     0
102
RTVSPropertyOp13
 70
     0
102
RTVSPropertyOp14
 70
     2
102
RTVSPropertyOp15
 70
     0
102
RTVSPropertyOp16
 70
     0
102
RTVSPropertyOp17
 70
     0
102
RTVSPropertyOp18
 70
     0
102
RTVSPropertyOp19
 70
     0
102
RTVSPropertyOp20
 70
     0
102
RTVSPropertyOp21
 70
     0
102
RTVSPropertyOp22
 70
     0
102
RTVSPropertyOp23
 70
     0
102
RTVSPropertyOp24
 70
     0
102
RTVSPropertyOp25
 70
     0
102
RTVSPropertyOp26
 70
     0
102
RTVSPropertyOp27
 70
     0
  0
XRECORD
  5
1568
102
{ACAD_REACTORS
330
1567
102
}
330
1567
100
AcDbXrecord
280
     1
102
RTVSPropertyOp0
 70
     1
102
RTVSPropertyOp1
 70
     1
102
RTVSPropertyOp2
 70
     1
102
RTVSPropertyOp3
 70
     1
102
RTVSPropertyOp4
 70
     1
102
RTVSPropertyOp5
 70
     1
102
RTVSPropertyOp6
 70
     1
102
RTVSPropertyOp7
 70
     1
102
RTVSPropertyOp8
 70
     1
102
RTVSPropertyOp9
 70
     1
102
RTVSPropertyOp10
 70
     1
102
RTVSPropertyOp11
 70
     1
102
RTVSPropertyOp12
 70
     1
102
RTVSPropertyOp13
 70
     1
102
RTVSPropertyOp14
 70
     1
102
RTVSPropertyOp15
 70
     1
102
RTVSPropertyOp16
 70
     1
102
RTVSPropertyOp17
 70
     1
102
RTVSPropertyOp18
 70
     1
102
RTVSPropertyOp19
 70
     1
102
RTVSPropertyOp20
 70
     1
102
RTVSPropertyOp21
 70
     1
102
RTVSPropertyOp22
 70
     1
102
RTVSPropertyOp23
 70
     1
102
RTVSPropertyOp24
 70
     1
102
RTVSPropertyOp25
 70
     1
102
RTVSPropertyOp26
 70
     1
102
RTVSPropertyOp27
 70
     1
  0
XRECORD
  5
1575
102
{ACAD_REACTORS
330
1574
102
}
330
1574
100
AcDbXrecord
280
     1
102
RTVSPropertyOp0
 70
     0
102
RTVSPropertyOp1
 70
     0
102
RTVSPropertyOp2
 70
     0
102
RTVSPropertyOp3
 70
     0
102
RTVSPropertyOp4
 70
     0
102
RTVSPropertyOp5
 70
     0
102
RTVSPropertyOp6
 70
     0
102
RTVSPropertyOp7
 70
     0
102
RTVSPropertyOp8
 70
     0
102
RTVSPropertyOp9
 70
     0
102
RTVSPropertyOp10
 70
     0
102
RTVSPropertyOp11
 70
     0
102
RTVSPropertyOp12
 70
     0
102
RTVSPropertyOp13
 70
     0
102
RTVSPropertyOp14
 70
     2
102
RTVSPropertyOp15
 70
     0
102
RTVSPropertyOp16
 70
     0
102
RTVSPropertyOp17
 70
     0
102
RTVSPropertyOp18
 70
     0
102
RTVSPropertyOp19
 70
     0
102
RTVSPropertyOp20
 70
     0
102
RTVSPropertyOp21
 70
     0
102
RTVSPropertyOp22
 70
     0
102
RTVSPropertyOp23
 70
     0
102
RTVSPropertyOp24
 70
     0
102
RTVSPropertyOp25
 70
     0
102
RTVSPropertyOp26
 70
     0
102
RTVSPropertyOp27
 70
     0
  0
XRECORD
  5
1560
102
{ACAD_REACTORS
330
155F
102
}
330
155F
100
AcDbXrecord
280
     1
102
RTVSPropertyOp0
 70
     1
102
RTVSPropertyOp1
 70
     1
102
RTVSPropertyOp2
 70
     1
102
RTVSPropertyOp3
 70
     1
102
RTVSPropertyOp4
 70
     1
102
RTVSPropertyOp5
 70
     1
102
RTVSPropertyOp6
 70
     1
102
RTVSPropertyOp7
 70
     1
102
RTVSPropertyOp8
 70
     1
102
RTVSPropertyOp9
 70
     1
102
RTVSPropertyOp10
 70
     1
102
RTVSPropertyOp11
 70
     1
102
RTVSPropertyOp12
 70
     1
102
RTVSPropertyOp13
 70
     1
102
RTVSPropertyOp14
 70
     1
102
RTVSPropertyOp15
 70
     1
102
RTVSPropertyOp16
 70
     1
102
RTVSPropertyOp17
 70
     1
102
RTVSPropertyOp18
 70
     1
102
RTVSPropertyOp19
 70
     1
102
RTVSPropertyOp20
 70
     1
102
RTVSPropertyOp21
 70
     1
102
RTVSPropertyOp22
 70
     1
102
RTVSPropertyOp23
 70
     1
102
RTVSPropertyOp24
 70
     1
102
RTVSPropertyOp25
 70
     1
102
RTVSPropertyOp26
 70
     1
102
RTVSPropertyOp27
 70
     1
  0
XRECORD
  5
1566
102
{ACAD_REACTORS
330
1565
102
}
330
1565
100
AcDbXrecord
280
     1
102
RTVSPropertyOp0
 70
     1
102
RTVSPropertyOp1
 70
     1
102
RTVSPropertyOp2
 70
     1
102
RTVSPropertyOp3
 70
     1
102
RTVSPropertyOp4
 70
     1
102
RTVSPropertyOp5
 70
     1
102
RTVSPropertyOp6
 70
     1
102
RTVSPropertyOp7
 70
     1
102
RTVSPropertyOp8
 70
     1
102
RTVSPropertyOp9
 70
     1
102
RTVSPropertyOp10
 70
     1
102
RTVSPropertyOp11
 70
     1
102
RTVSPropertyOp12
 70
     1
102
RTVSPropertyOp13
 70
     1
102
RTVSPropertyOp14
 70
     1
102
RTVSPropertyOp15
 70
     1
102
RTVSPropertyOp16
 70
     1
102
RTVSPropertyOp17
 70
     1
102
RTVSPropertyOp18
 70
     1
102
RTVSPropertyOp19
 70
     1
102
RTVSPropertyOp20
 70
     1
102
RTVSPropertyOp21
 70
     1
102
RTVSPropertyOp22
 70
     1
102
RTVSPropertyOp23
 70
     1
102
RTVSPropertyOp24
 70
     1
102
RTVSPropertyOp25
 70
     1
102
RTVSPropertyOp26
 70
     1
102
RTVSPropertyOp27
 70
     1
  0
ENDSEC
  0
EOF
