  0
SECTION
  2
HEADER
  9
$ACADVER
  1
AC1015
  9
$ACADMAINTVER
 70
     6
  9
$DWGCODEPAGE
  3
ANSI_1252
  9
$INSBASE
 10
0.0
 20
0.0
 30
0.0
  9
$EXTMIN
 10
492.650303880984
 20
248.8219974068915
 30
0.0
  9
$EXTMAX
 10
1435.3280077598
 20
1086.072420729882
 30
0.0
  9
$LIMMIN
 10
0.0
 20
0.0
  9
$LIMMAX
 10
12.0
 20
9.0
  9
$ORTHOMODE
 70
     0
  9
$REGENMODE
 70
     1
  9
$FILLMODE
 70
     1
  9
$QTEXTMODE
 70
     0
  9
$MIRRTEXT
 70
     1
  9
$LTSCALE
 40
1.0
  9
$ATTMODE
 70
     1
  9
$TEXTSIZE
 40
0.0
  9
$TRACEWID
 40
0.05
  9
$TEXTSTYLE
  7
STANDARD
  9
$CLAYER
  8
0
  9
$CELTYPE
  6
CONTINUOUS
  9
$CECOLOR
 62
   256
  9
$CELTSCALE
 40
1.0
  9
$DISPSILH
 70
     0
  9
$DIMSCALE
 40
1.0
  9
$DIMASZ
 40
0.18
  9
$DIMEXO
 40
0.0625
  9
$DIMDLI
 40
0.38
  9
$DIMRND
 40
0.0
  9
$DIMDLE
 40
0.0
  9
$DIMEXE
 40
0.18
  9
$DIMTP
 40
0.0
  9
$DIMTM
 40
0.0
  9
$DIMTXT
 40
0.18
  9
$DIMCEN
 40
0.09
  9
$DIMTSZ
 40
0.0
  9
$DIMTOL
 70
     0
  9
$DIMLIM
 70
     0
  9
$DIMTIH
 70
     1
  9
$DIMTOH
 70
     1
  9
$DIMSE1
 70
     0
  9
$DIMSE2
 70
     0
  9
$DIMTAD
 70
     0
  9
$DIMZIN
 70
     0
  9
$DIMBLK
  1

  9
$DIMASO
 70
     1
  9
$DIMSHO
 70
     1
  9
$DIMPOST
  1

  9
$DIMAPOST
  1

  9
$DIMALT
 70
     0
  9
$DIMALTD
 70
     2
  9
$DIMALTF
 40
25.4
  9
$DIMLFAC
 40
1.0
  9
$DIMTOFL
 70
     0
  9
$DIMTVP
 40
0.0
  9
$DIMTIX
 70
     0
  9
$DIMSOXD
 70
     0
  9
$DIMSAH
 70
     0
  9
$DIMBLK1
  1

  9
$DIMBLK2
  1

  9
$DIMSTYLE
  2
STANDARD
  9
$DIMCLRD
 70
     0
  9
$DIMCLRE
 70
     0
  9
$DIMCLRT
 70
     0
  9
$DIMTFAC
 40
1.0
  9
$DIMGAP
 40
0.09
  9
$DIMJUST
 70
     0
  9
$DIMSD1
 70
     0
  9
$DIMSD2
 70
     0
  9
$DIMTOLJ
 70
     1
  9
$DIMTZIN
 70
     0
  9
$DIMALTZ
 70
     0
  9
$DIMALTTZ
 70
     0
  9
$DIMUPT
 70
     0
  9
$DIMDEC
 70
     4
  9
$DIMTDEC
 70
     4
  9
$DIMALTU
 70
     2
  9
$DIMALTTD
 70
     2
  9
$DIMTXSTY
  7
STANDARD
  9
$DIMAUNIT
 70
     0
  9
$DIMADEC
 70
     0
  9
$DIMALTRND
 40
0.0
  9
$DIMAZIN
 70
     0
  9
$DIMDSEP
 70
    46
  9
$DIMATFIT
 70
     3
  9
$DIMFRAC
 70
     0
  9
$DIMLDRBLK
  1

  9
$DIMLUNIT
 70
     2
  9
$DIMLWD
 70
    -2
  9
$DIMLWE
 70
    -2
  9
$DIMTMOVE
 70
     0
  9
$LUNITS
 70
     2
  9
$LUPREC
 70
     4
  9
$SKETCHINC
 40
0.1
  9
$FILLETRAD
 40
0.0
  9
$AUNITS
 70
     0
  9
$AUPREC
 70
     0
  9
$MENU
  1
acad
  9
$ELEVATION
 40
0.0
  9
$PELEVATION
 40
0.0
  9
$THICKNESS
 40
0.0
  9
$LIMCHECK
 70
     0
  9
$CHAMFERA
 40
0.0
  9
$CHAMFERB
 40
0.0
  9
$CHAMFERC
 40
0.0
  9
$CHAMFERD
 40
0.0
  9
$SKPOLY
 70
     0
  9
$TDCREATE
 40
2453375.510428240
  9
$TDUCREATE
 40
2453375.468761574
  9
$TDUPDATE
 40
2457618.412211585
  9
$TDUUPDATE
 40
2457618.370544919
  9
$TDINDWG
 40
0.0231322338
  9
$TDUSRTIMER
 40
0.0231302083
  9
$USRTIMER
 70
     1
  9
$ANGBASE
 50
0.0
  9
$ANGDIR
 70
     0
  9
$PDMODE
 70
     0
  9
$PDSIZE
 40
0.0
  9
$PLINEWID
 40
0.0
  9
$SPLFRAME
 70
     0
  9
$SPLINETYPE
 70
     6
  9
$SPLINESEGS
 70
    10
  9
$HANDSEED
  5
AFE
  9
$SURFTAB1
 70
     6
  9
$SURFTAB2
 70
     6
  9
$SURFTYPE
 70
     6
  9
$SURFU
 70
     6
  9
$SURFV
 70
     6
  9
$UCSBASE
  2

  9
$UCSNAME
  2

  9
$UCSORG
 10
0.0
 20
0.0
 30
0.0
  9
$UCSXDIR
 10
1.0
 20
0.0
 30
0.0
  9
$UCSYDIR
 10
0.0
 20
1.0
 30
0.0
  9
$UCSORTHOREF
  2

  9
$UCSORTHOVIEW
 70
     0
  9
$UCSORGTOP
 10
0.0
 20
0.0
 30
0.0
  9
$UCSORGBOTTOM
 10
0.0
 20
0.0
 30
0.0
  9
$UCSORGLEFT
 10
0.0
 20
0.0
 30
0.0
  9
$UCSORGRIGHT
 10
0.0
 20
0.0
 30
0.0
  9
$UCSORGFRONT
 10
0.0
 20
0.0
 30
0.0
  9
$UCSORGBACK
 10
0.0
 20
0.0
 30
0.0
  9
$PUCSBASE
  2

  9
$PUCSNAME
  2

  9
$PUCSORG
 10
0.0
 20
0.0
 30
0.0
  9
$PUCSXDIR
 10
1.0
 20
0.0
 30
0.0
  9
$PUCSYDIR
 10
0.0
 20
1.0
 30
0.0
  9
$PUCSORTHOREF
  2

  9
$PUCSORTHOVIEW
 70
     0
  9
$PUCSORGTOP
 10
0.0
 20
0.0
 30
0.0
  9
$PUCSORGBOTTOM
 10
0.0
 20
0.0
 30
0.0
  9
$PUCSORGLEFT
 10
0.0
 20
0.0
 30
0.0
  9
$PUCSORGRIGHT
 10
0.0
 20
0.0
 30
0.0
  9
$PUCSORGFRONT
 10
0.0
 20
0.0
 30
0.0
  9
$PUCSORGBACK
 10
0.0
 20
0.0
 30
0.0
  9
$USERI1
 70
     0
  9
$USERI2
 70
     0
  9
$USERI3
 70
     0
  9
$USERI4
 70
     0
  9
$USERI5
 70
     0
  9
$USERR1
 40
0.0
  9
$USERR2
 40
0.0
  9
$USERR3
 40
0.0
  9
$USERR4
 40
0.0
  9
$USERR5
 40
0.0
  9
$WORLDVIEW
 70
     1
  9
$SHADEDGE
 70
     3
  9
$SHADEDIF
 70
    70
  9
$TILEMODE
 70
     1
  9
$MAXACTVP
 70
    16
  9
$PINSBASE
 10
0.0
 20
0.0
 30
0.0
  9
$PLIMCHECK
 70
     0
  9
$PEXTMIN
 10
-1.000000000000000E+20
 20
-1.000000000000000E+20
 30
-1.000000000000000E+20
  9
$PEXTMAX
 10
-1.000000000000000E+20
 20
-1.000000000000000E+20
 30
-1.000000000000000E+20
  9
$PLIMMIN
 10
0.0
 20
0.0
  9
$PLIMMAX
 10
12.0
 20
9.0
  9
$UNITMODE
 70
     0
  9
$VISRETAIN
 70
     0
  9
$PLINEGEN
 70
     1
  9
$PSLTSCALE
 70
     0
  9
$TREEDEPTH
 70
  3020
  9
$CMLSTYLE
  2
STANDARD
  9
$CMLJUST
 70
     0
  9
$CMLSCALE
 40
1.0
  9
$PROXYGRAPHICS
 70
     1
  9
$MEASUREMENT
 70
     0
  9
$CELWEIGHT
370
    -1
  9
$ENDCAPS
280
     0
  9
$JOINSTYLE
280
     0
  9
$LWDISPLAY
290
     0
  9
$INSUNITS
 70
     0
  9
$HYPERLINKBASE
  1

  9
$STYLESHEET
  1

  9
$XEDIT
290
     1
  9
$CEPSNTYPE
380
     0
  9
$PSTYLEMODE
290
     1
  9
$FINGERPRINTGUID
  2
{90F47713-D64A-4B9C-B5FE-88B63D796F68}
  9
$VERSIONGUID
  2
{8200F6B6-3270-4D85-A1ED-EF2888ABA6DB}
  9
$EXTNAMES
290
     1
  9
$PSVPSCALE
 40
0.0
  9
$OLESTARTUP
290
     0
  0
ENDSEC
  0
SECTION
  2
CLASSES
  0
CLASS
  1
ACDBDICTIONARYWDFLT
  2
AcDbDictionaryWithDefault
  3
AutoCAD 2000
 90
        0
280
     0
281
     0
  0
CLASS
  1
ACDBPLACEHOLDER
  2
AcDbPlaceHolder
  3
AutoCAD 2000
 90
        0
280
     0
281
     0
  0
CLASS
  1
LAYOUT
  2
AcDbLayout
  3
AutoCAD 2000
 90
        0
280
     0
281
     0
  0
CLASS
  1
MATERIAL
  2
AcDbMaterial
  3
ObjectDBX Classes
 90
     1024
280
     0
281
     0
  0
CLASS
  1
VISUALSTYLE
  2
AcDbVisualStyle
  3
ObjectDBX Classes
 90
     4095
280
     0
281
     0
  0
CLASS
  1
TABLESTYLE
  2
AcDbTableStyle
  3
ObjectDBX Classes
 90
     4095
280
     0
281
     0
  0
CLASS
  1
SCALE
  2
AcDbScale
  3
ObjectDBX Classes
 90
     1153
280
     0
281
     0
  0
CLASS
  1
MLEADERSTYLE
  2
AcDbMLeaderStyle
  3
ACDB_MLEADERSTYLE_CLASS
 90
     4095
280
     0
281
     0
  0
CLASS
  1
SORTENTSTABLE
  2
AcDbSortentsTable
  3
AutoCAD 2000
 90
        0
280
     0
281
     0
  0
CLASS
  1
DICTIONARYVAR
  2
AcDbDictionaryVar
  3
AutoCAD 2000
 90
        0
280
     0
281
     0
  0
CLASS
  1
CELLSTYLEMAP
  2
AcDbCellStyleMap
  3
ObjectDBX Classes
 90
     1152
280
     0
281
     0
  0
ENDSEC
  0
SECTION
  2
TABLES
  0
TABLE
  2
VPORT
  5
106
330
0
100
AcDbSymbolTable
 70
     2
  0
VPORT
  5
AFD
330
106
100
AcDbSymbolTableRecord
100
AcDbViewportTableRecord
  2
*Active
 70
     0
 10
0.0
 20
0.0
 11
1.0
 21
1.0
 12
246.8564845708838
 22
290.0608034145761
 13
0.0
 23
0.0
 14
0.0
 24
0.0
 15
0.0
 25
0.0
 16
0.0
 26
0.0
 36
1.0
 17
890.261596
 27
575.871875
 37
0.0
 40
515.4491526581177
 41
1.714599341383095
 42
50.0
 43
0.025
 44
0.0
 50
0.0
 51
0.0
 71
     0
 72
   100
 73
     1
 74
     0
 75
     0
 76
     0
 77
     0
 78
     0
281
     0
 65
     1
110
0.0
120
0.0
130
0.0
111
1.0
121
0.0
131
0.0
112
0.0
122
1.0
132
0.0
 79
     0
146
0.0
  0
ENDTAB
  0
TABLE
  2
LTYPE
  5
103
330
0
100
AcDbSymbolTable
 70
     7
  0
LTYPE
  5
111
330
103
100
AcDbSymbolTableRecord
100
AcDbLinetypeTableRecord
  2
BYBLOCK
 70
     0
  3

 72
    65
 73
     0
 40
0.0
  0
LTYPE
  5
112
330
103
100
AcDbSymbolTableRecord
100
AcDbLinetypeTableRecord
  2
BYLAYER
 70
     0
  3

 72
    65
 73
     0
 40
0.0
  0
LTYPE
  5
113
330
103
100
AcDbSymbolTableRecord
100
AcDbLinetypeTableRecord
  2
CONTINUOUS
 70
     0
  3
Solid line
 72
    65
 73
     0
 40
0.0
  0
LTYPE
  5
121
330
103
100
AcDbSymbolTableRecord
100
AcDbLinetypeTableRecord
  2
DOT
 70
     0
  3
. . . . . . . . . . . . . . . . . . . . . . . . . . . . . . . . .
 72
    65
 73
     2
 40
0.25
 49
0.0
 74
     0
 49
-0.25
 74
     0
  0
LTYPE
  5
122
330
103
100
AcDbSymbolTableRecord
100
AcDbLinetypeTableRecord
  2
HIDDEN
 70
     0
  3
__ __ __ __ __ __ __ __ __ __ __ __ __ __ __ __ __ __ __ __ __ 
 72
    65
 73
     2
 40
0.375
 49
0.25
 74
     0
 49
-0.125
 74
     0
  0
LTYPE
  5
123
330
103
100
AcDbSymbolTableRecord
100
AcDbLinetypeTableRecord
  2
DASHED
 70
     0
  3
__ __ __ __ __ __ __ __ __ __ __ __ __ __ __ __ __ __ __ __ __
 72
    65
 73
     2
 40
0.75
 49
0.5
 74
     0
 49
-0.25
 74
     0
  0
LTYPE
  5
124
330
103
100
AcDbSymbolTableRecord
100
AcDbLinetypeTableRecord
  2
DASHDOT
 70
     0
  3
__ . __ . __ . __ . __ . __ . __ . __ . __ . __ . __ . __ . _
 72
    65
 73
     4
 40
1.0
 49
0.5
 74
     0
 49
-0.25
 74
     0
 49
0.0
 74
     0
 49
-0.25
 74
     0
  0
LTYPE
  5
125
330
103
100
AcDbSymbolTableRecord
100
AcDbLinetypeTableRecord
  2
DIVIDE
 70
     0
  3
____ . . ____ . . ____ . . ____ . . ____ . . ____ . . ____ . .
 72
    65
 73
     6
 40
1.25
 49
0.5
 74
     0
 49
-0.25
 74
     0
 49
0.0
 74
     0
 49
-0.25
 74
     0
 49
0.0
 74
     0
 49
-0.25
 74
     0
  0
LTYPE
  5
126
330
103
100
AcDbSymbolTableRecord
100
AcDbLinetypeTableRecord
  2
CENTER
 70
     0
  3
____ _ ____ _ ____ _ ____ _ ____ _ ____ _ ____ _ ____ _ ____ _
 72
    65
 73
     4
 40
2.0
 49
1.25
 74
     0
 49
-0.25
 74
     0
 49
0.25
 74
     0
 49
-0.25
 74
     0
  0
ENDTAB
  0
TABLE
  2
LAYER
  5
100
330
0
100
AcDbSymbolTable
 70
     6
  0
LAYER
  5
10E
102
{ACAD_XDICTIONARY
360
6F2
102
}
330
100
100
AcDbSymbolTableRecord
100
AcDbLayerTableRecord
  2
0
 70
     0
 62
     7
  6
CONTINUOUS
370
    -3
390
10D
  0
LAYER
  5
127
102
{ACAD_XDICTIONARY
360
6F4
102
}
330
100
100
AcDbSymbolTableRecord
100
AcDbLayerTableRecord
  2
CONSTRUCTION_CLASS
 70
     0
 62
     7
  6
CONTINUOUS
370
    -3
390
10D
  0
LAYER
  5
128
102
{ACAD_XDICTIONARY
360
6F6
102
}
330
100
100
AcDbSymbolTableRecord
100
AcDbLayerTableRecord
  2
PATTERN_CLASS
 70
     0
 62
     7
  6
CONTINUOUS
370
    -3
390
10D
  0
LAYER
  5
129
102
{ACAD_XDICTIONARY
360
6F8
102
}
330
100
100
AcDbSymbolTableRecord
100
AcDbLayerTableRecord
  2
1
 70
     0
 62
     7
  6
CONTINUOUS
370
    -3
390
10D
  0
LAYER
  5
7A4
102
{ACAD_XDICTIONARY
360
7A5
102
}
330
100
100
AcDbSymbolTableRecord
100
AcDbLayerTableRecord
  2
-1
 70
     0
 62
     7
  6
CONTINUOUS
370
    -3
390
10D
  0
LAYER
  5
7A7
102
{ACAD_XDICTIONARY
360
7A8
102
}
330
100
100
AcDbSymbolTableRecord
100
AcDbLayerTableRecord
  2
FLAN1$0$1
 70
     0
 62
     7
  6
CONTINUOUS
370
    -3
390
10D
  0
ENDTAB
  0
TABLE
  2
STYLE
  5
101
330
0
100
AcDbSymbolTable
 70
     2
  0
STYLE
  5
10F
330
101
100
AcDbSymbolTableRecord
100
AcDbTextStyleTableRecord
  2
STANDARD
 70
     0
 40
0.0
 41
1.0
 50
0.0
 71
     0
 42
0.0
  3
txt
  4

  0
STYLE
  5
12A
330
101
100
AcDbSymbolTableRecord
100
AcDbTextStyleTableRecord
  2
ROMANS
 70
     0
 40
0.2
 41
1.0
 50
0.0
 71
     0
 42
0.2
  3
ROMANS
  4

  0
ENDTAB
  0
TABLE
  2
VIEW
  5
104
330
0
100
AcDbSymbolTable
 70
     0
  0
ENDTAB
  0
TABLE
  2
UCS
  5
105
330
0
100
AcDbSymbolTable
 70
     0
  0
ENDTAB
  0
TABLE
  2
APPID
  5
107
330
0
100
AcDbSymbolTable
 70
     3
  0
APPID
  5
110
330
107
100
AcDbSymbolTableRecord
100
AcDbRegAppTableRecord
  2
ACAD
 70
     0
  0
APPID
  5
79A
330
107
100
AcDbSymbolTableRecord
100
AcDbRegAppTableRecord
  2
ACAD_MLEADERVER
 70
     0
  0
APPID
  5
A56
330
107
100
AcDbSymbolTableRecord
100
AcDbRegAppTableRecord
  2
ACAD_EXEMPT_FROM_CAD_STANDARDS
 70
     0
  0
ENDTAB
  0
TABLE
  2
DIMSTYLE
  5
108
330
0
100
AcDbSymbolTable
 70
     1
100
AcDbDimStyleTable
 71
     1
340
12B
  0
DIMSTYLE
105
12B
330
108
100
AcDbSymbolTableRecord
100
AcDbDimStyleTableRecord
  2
STANDARD
 70
     0
340
10F
  0
ENDTAB
  0
TABLE
  2
BLOCK_RECORD
  5
FF
330
0
100
AcDbSymbolTable
 70
     0
  0
BLOCK_RECORD
  5
11C
102
{ACAD_XDICTIONARY
360
474
102
}
330
FF
100
AcDbSymbolTableRecord
100
AcDbBlockTableRecord
  2
*MODEL_SPACE
340
5B9
  0
BLOCK_RECORD
  5
118
102
{ACAD_XDICTIONARY
360
472
102
}
330
FF
100
AcDbSymbolTableRecord
100
AcDbBlockTableRecord
  2
*PAPER_SPACE
340
5BA
  0
ENDTAB
  0
ENDSEC
  0
SECTION
  2
BLOCKS
  0
BLOCK
  5
11D
330
11C
100
AcDbEntity
  8
0
100
AcDbBlockBegin
  2
*MODEL_SPACE
 70
     0
 10
0.0
 20
0.0
 30
0.0
  3
*MODEL_SPACE
  1

  0
ENDBLK
  5
11E
330
11C
100
AcDbEntity
  8
0
100
AcDbBlockEnd
  0
BLOCK
  5
119
330
118
100
AcDbEntity
 67
     1
  8
0
100
AcDbBlockBegin
  2
*PAPER_SPACE
 70
     0
 10
0.0
 20
0.0
 30
0.0
  3
*PAPER_SPACE
  1

  0
ENDBLK
  5
11A
330
118
100
AcDbEntity
 67
     1
  8
0
100
AcDbBlockEnd
  0
ENDSEC
  0
SECTION
  2
ENTITIES
  0
LINE
  5
29F
330
11C
100
AcDbEntity
  8
1
  6
Continuous
 62
     4
100
AcDbLine
 10
1170.992608299699
 20
460.1152512082935
 30
0.0
 11
506.8603038809833
 21
460.1152512082935
 31
0.0
  0
LINE
  5
2DF
330
11C
100
AcDbEntity
  8
1
  6
Continuous
 62
     4
100
AcDbLine
 10
828.7485090359096
 20
667.3500386146334
 30
0.0
 11
828.7485090359096
 21
870.9212562859198
 31
0.0
  0
LINE
  5
2E4
330
11C
100
AcDbEntity
  8
1
  6
Continuous
 62
     4
100
AcDbLine
 10
896.9583977832272
 20
669.1978223994737
 30
0.0
 11
896.9583977832272
 21
687.6710075288587
 31
0.0
  0
LINE
  5
2E5
330
11C
100
AcDbEntity
  8
1
  6
Continuous
 62
     4
100
AcDbLine
 10
760.5442683531857
 20
669.2080993760237
 30
0.0
 11
760.5442683531857
 21
687.6766874769409
 31
0.0
  0
LINE
  5
2E6
330
11C
100
AcDbEntity
  8
1
  6
Continuous
 62
     4
100
AcDbLine
 10
971.4359862246226
 20
728.5400873092985
 30
0.0
 11
1026.202923864083
 21
669.4946877310712
 31
0.0
  0
LINE
  5
2E7
330
11C
100
AcDbEntity
  8
1
  6
Continuous
 62
     4
100
AcDbLine
 10
686.0610318471972
 20
728.5400873092985
 30
0.0
 11
631.2940942077349
 21
669.4946877310712
 31
0.0
  0
LINE
  5
3A0
330
11C
100
AcDbEntity
  8
1
  6
Continuous
 62
     4
100
AcDbLine
 10
828.7485090359096
 20
856.6387354516832
 30
0.0
 11
898.2642683531851
 21
853.4789282099898
 31
0.0
  0
LINE
  5
3A6
330
11C
100
AcDbEntity
  8
1
  6
Continuous
 62
     4
100
AcDbLine
 10
828.7485090359096
 20
806.0787354516831
 30
0.0
 11
898.2642683531855
 21
802.9189282099899
 31
0.0
  0
LINE
  5
3A7
330
11C
100
AcDbEntity
  8
1
  6
Continuous
 62
     4
100
AcDbLine
 10
828.7485090359096
 20
818.7187354516831
 30
0.0
 11
898.2642683531855
 21
815.5589282099898
 31
0.0
  0
LINE
  5
3A8
330
11C
100
AcDbEntity
  8
1
  6
Continuous
 62
     4
100
AcDbLine
 10
828.7485090359096
 20
831.358735451683
 30
0.0
 11
898.2642683531851
 21
828.1989282099896
 31
0.0
  0
LINE
  5
3A9
330
11C
100
AcDbEntity
  8
1
  6
Continuous
 62
     4
100
AcDbLine
 10
828.7485090359096
 20
843.9987354516826
 30
0.0
 11
898.2642683531851
 21
840.83892820999
 31
0.0
  0
LINE
  5
3D3
330
11C
100
AcDbEntity
  8
1
  6
Continuous
 62
     4
100
AcDbLine
 10
828.7485090359096
 20
793.4387354516831
 30
0.0
 11
898.2642683531855
 21
790.2789282099899
 31
0.0
  0
LINE
  5
403
330
11C
100
AcDbEntity
  8
1
  6
Continuous
 62
     4
100
AcDbLine
 10
853.6923128412775
 20
868.1449261878032
 30
0.0
 11
898.2642683531846
 21
866.1189282099895
 31
0.0
  0
LINE
  5
607
330
11C
100
AcDbEntity
  8
1
  6
Continuous
 62
     4
100
AcDbLine
 10
506.8619189242538
 20
665.9609446912262
 30
0.0
 11
510.3956619640985
 21
669.4946877310712
 31
0.0
1001
ACAD
1010
0.0
1020
0.0
1030
0.0
  0
LINE
  5
608
330
11C
100
AcDbEntity
  8
1
  6
Continuous
 62
     4
100
AcDbLine
 10
506.8667642950241
 20
655.3591883441987
 30
0.0
 11
521.0022636818969
 21
669.4946877310712
 31
0.0
1001
ACAD
1010
0.0
1020
0.0
1030
0.0
  0
LINE
  5
609
330
11C
100
AcDbEntity
  8
1
  6
Continuous
 62
     4
100
AcDbLine
 10
506.8716096657952
 20
644.7574319971712
 30
0.0
 11
531.6088653996951
 21
669.4946877310712
 31
0.0
1001
ACAD
1010
0.0
1020
0.0
1030
0.0
  0
LINE
  5
60A
330
11C
100
AcDbEntity
  8
1
  6
Continuous
 62
     4
100
AcDbLine
 10
506.8764550365655
 20
634.1556756501436
 30
0.0
 11
542.2154671174933
 21
669.4946877310712
 31
0.0
1001
ACAD
1010
0.0
1020
0.0
1030
0.0
  0
LINE
  5
60B
330
11C
100
AcDbEntity
  8
1
  6
Continuous
 62
     4
100
AcDbLine
 10
514.0398898017719
 20
630.7125086975522
 30
0.0
 11
552.8220688352915
 21
669.4946877310711
 31
0.0
1001
ACAD
1010
0.0
1020
0.0
1030
0.0
  0
LINE
  5
60C
330
11C
100
AcDbEntity
  8
1
  6
Continuous
 62
     4
100
AcDbLine
 10
524.6464915195704
 20
630.7125086975522
 30
0.0
 11
563.4286705530895
 21
669.4946877310712
 31
0.0
1001
ACAD
1010
0.0
1020
0.0
1030
0.0
  0
LINE
  5
60D
330
11C
100
AcDbEntity
  8
1
  6
Continuous
 62
     4
100
AcDbLine
 10
535.2530932373686
 20
630.7125086975522
 30
0.0
 11
574.0352722708877
 21
669.4946877310711
 31
0.0
1001
ACAD
1010
0.0
1020
0.0
1030
0.0
  0
LINE
  5
60E
330
11C
100
AcDbEntity
  8
1
  6
Continuous
 62
     4
100
AcDbLine
 10
545.8596949551671
 20
630.7125086975522
 30
0.0
 11
584.641873988686
 21
669.4946877310712
 31
0.0
1001
ACAD
1010
0.0
1020
0.0
1030
0.0
  0
LINE
  5
60F
330
11C
100
AcDbEntity
  8
1
  6
Continuous
 62
     4
100
AcDbLine
 10
556.4662966729654
 20
630.7125086975522
 30
0.0
 11
595.2484757064842
 21
669.4946877310712
 31
0.0
1001
ACAD
1010
0.0
1020
0.0
1030
0.0
  0
LINE
  5
610
330
11C
100
AcDbEntity
  8
1
  6
Continuous
 62
     4
100
AcDbLine
 10
567.0728983907634
 20
630.7125086975522
 30
0.0
 11
605.8550774242822
 21
669.4946877310712
 31
0.0
1001
ACAD
1010
0.0
1020
0.0
1030
0.0
  0
LINE
  5
611
330
11C
100
AcDbEntity
  8
1
  6
Continuous
 62
     4
100
AcDbLine
 10
577.6795001085617
 20
630.7125086975522
 30
0.0
 11
616.4616791420805
 21
669.4946877310712
 31
0.0
1001
ACAD
1010
0.0
1020
0.0
1030
0.0
  0
LINE
  5
612
330
11C
100
AcDbEntity
  8
1
  6
Continuous
 62
     4
100
AcDbLine
 10
588.2861018263597
 20
630.7125086975522
 30
0.0
 11
627.0682808598792
 21
669.4946877310712
 31
0.0
1001
ACAD
1010
0.0
1020
0.0
1030
0.0
  0
LINE
  5
613
330
11C
100
AcDbEntity
  8
1
  6
Continuous
 62
     4
100
AcDbLine
 10
598.892703544158
 20
630.7125086975522
 30
0.0
 11
637.6748825776767
 21
669.4946877310712
 31
0.0
1001
ACAD
1010
0.0
1020
0.0
1030
0.0
  0
LINE
  5
614
330
11C
100
AcDbEntity
  8
1
  6
Continuous
 62
     4
100
AcDbLine
 10
609.4993052619562
 20
630.7125086975522
 30
0.0
 11
648.2814842954756
 21
669.4946877310712
 31
0.0
1001
ACAD
1010
0.0
1020
0.0
1030
0.0
  0
LINE
  5
615
330
11C
100
AcDbEntity
  8
1
  6
Continuous
 62
     4
100
AcDbLine
 10
620.1059069797545
 20
630.7125086975522
 30
0.0
 11
658.8880860132737
 21
669.4946877310712
 31
0.0
1001
ACAD
1010
0.0
1020
0.0
1030
0.0
  0
LINE
  5
616
330
11C
100
AcDbEntity
  8
1
  6
Continuous
 62
     4
100
AcDbLine
 10
630.7125086975527
 20
630.7125086975522
 30
0.0
 11
669.4946877310715
 21
669.4946877310712
 31
0.0
1001
ACAD
1010
0.0
1020
0.0
1030
0.0
  0
LINE
  5
617
330
11C
100
AcDbEntity
  8
1
  6
Continuous
 62
     4
100
AcDbLine
 10
641.3191104153512
 20
630.7125086975522
 30
0.0
 11
680.1012894488698
 21
669.4946877310712
 31
0.0
1001
ACAD
1010
0.0
1020
0.0
1030
0.0
  0
LINE
  5
618
330
11C
100
AcDbEntity
  8
1
  6
Continuous
 62
     4
100
AcDbLine
 10
651.9257121331491
 20
630.7125086975522
 30
0.0
 11
690.7078911666681
 21
669.4946877310712
 31
0.0
1001
ACAD
1010
0.0
1020
0.0
1030
0.0
  0
LINE
  5
619
330
11C
100
AcDbEntity
  8
1
  6
Continuous
 62
     4
100
AcDbLine
 10
662.5323138509477
 20
630.7125086975522
 30
0.0
 11
701.3144928844665
 21
669.4946877310712
 31
0.0
1001
ACAD
1010
0.0
1020
0.0
1030
0.0
  0
LINE
  5
61A
330
11C
100
AcDbEntity
  8
1
  6
Continuous
 62
     4
100
AcDbLine
 10
898.1015008582847
 20
866.2816957048892
 30
0.0
 11
902.7410614393147
 21
870.9212562859198
 31
0.0
1001
ACAD
1010
0.0
1020
0.0
1030
0.0
  0
LINE
  5
61B
330
11C
100
AcDbEntity
  8
1
  6
Continuous
 62
     4
100
AcDbLine
 10
673.1389155687459
 20
630.7125086975522
 30
0.0
 11
711.9210946022647
 21
669.4946877310712
 31
0.0
1001
ACAD
1010
0.0
1020
0.0
1030
0.0
  0
LINE
  5
61C
330
11C
100
AcDbEntity
  8
1
  6
Continuous
 62
     4
100
AcDbLine
 10
897.0848017171839
 20
854.6583948459906
 30
0.0
 11
913.3476631571131
 21
870.9212562859198
 31
0.0
1001
ACAD
1010
0.0
1020
0.0
1030
0.0
  0
LINE
  5
61D
330
11C
100
AcDbEntity
  8
1
  6
Continuous
 62
     4
100
AcDbLine
 10
683.7455172865441
 20
630.7125086975522
 30
0.0
 11
722.5276963200625
 21
669.4946877310712
 31
0.0
1001
ACAD
1010
0.0
1020
0.0
1030
0.0
  0
LINE
  5
61E
330
11C
100
AcDbEntity
  8
1
  6
Continuous
 62
     4
100
AcDbLine
 10
896.0681025760832
 20
843.0350939870915
 30
0.0
 11
920.5214750070195
 21
867.4884664180281
 31
0.0
1001
ACAD
1010
0.0
1020
0.0
1030
0.0
  0
LINE
  5
61F
330
11C
100
AcDbEntity
  8
1
  6
Continuous
 62
     4
100
AcDbLine
 10
694.3521190043421
 20
630.7125086975522
 30
0.0
 11
733.134298037861
 21
669.4946877310712
 31
0.0
1001
ACAD
1010
0.0
1020
0.0
1030
0.0
  0
LINE
  5
620
330
11C
100
AcDbEntity
  8
1
  6
Continuous
 62
     4
100
AcDbLine
 10
895.0514034349822
 20
831.4117931281924
 30
0.0
 11
926.461288878758
 21
862.8216785719684
 31
0.0
1001
ACAD
1010
0.0
1020
0.0
1030
0.0
  0
LINE
  5
621
330
11C
100
AcDbEntity
  8
1
  6
Continuous
 62
     4
100
AcDbLine
 10
704.9587207221405
 20
630.7125086975522
 30
0.0
 11
743.7408997556596
 21
669.4946877310712
 31
0.0
1001
ACAD
1010
0.0
1020
0.0
1030
0.0
  0
LINE
  5
622
330
11C
100
AcDbEntity
  8
1
  6
Continuous
 62
     4
100
AcDbLine
 10
894.0347042938816
 20
819.7884922692932
 30
0.0
 11
930.0591715164408
 21
855.8129594918529
 31
0.0
1001
ACAD
1010
0.0
1020
0.0
1030
0.0
  0
LINE
  5
623
330
11C
100
AcDbEntity
  8
1
  6
Continuous
 62
     4
100
AcDbLine
 10
715.5653224399388
 20
630.7125086975522
 30
0.0
 11
754.3475014734577
 21
669.4946877310712
 31
0.0
1001
ACAD
1010
0.0
1020
0.0
1030
0.0
  0
LINE
  5
624
330
11C
100
AcDbEntity
  8
1
  6
Continuous
 62
     4
100
AcDbLine
 10
893.0180051527807
 20
808.1651914103943
 30
0.0
 11
933.6570541541236
 21
848.8042404117372
 31
0.0
1001
ACAD
1010
0.0
1020
0.0
1030
0.0
  0
LINE
  5
625
330
11C
100
AcDbEntity
  8
1
  6
Continuous
 62
     4
100
AcDbLine
 10
726.1719241577368
 20
630.7125086975522
 30
0.0
 11
760.4085090359102
 21
664.9490935757259
 31
0.0
1001
ACAD
1010
0.0
1020
0.0
1030
0.0
  0
LINE
  5
626
330
11C
100
AcDbEntity
  8
1
  6
Continuous
 62
     4
100
AcDbLine
 10
892.0013060116801
 20
796.5418905514955
 30
0.0
 11
937.2549367918059
 21
841.7955213316215
 31
0.0
1001
ACAD
1010
0.0
1020
0.0
1030
0.0
  0
LINE
  5
627
330
11C
100
AcDbEntity
  8
1
  6
Continuous
 62
     4
100
AcDbLine
 10
736.778525875535
 20
630.7125086975522
 30
0.0
 11
760.4085090359102
 21
654.3424918579276
 31
0.0
1001
ACAD
1010
0.0
1020
0.0
1030
0.0
  0
LINE
  5
628
330
11C
100
AcDbEntity
  8
1
  6
Continuous
 62
     4
100
AcDbLine
 10
897.3046068705791
 20
791.2385896925964
 30
0.0
 11
940.8528194294884
 21
834.786802251506
 31
0.0
1001
ACAD
1010
0.0
1020
0.0
1030
0.0
  0
LINE
  5
629
330
11C
100
AcDbEntity
  8
1
  6
Continuous
 62
     4
100
AcDbLine
 10
747.3851275933331
 20
630.7125086975522
 30
0.0
 11
760.4085090359102
 21
643.7358901401294
 31
0.0
1001
ACAD
1010
0.0
1020
0.0
1030
0.0
  0
LINE
  5
62A
330
11C
100
AcDbEntity
  8
1
  6
Continuous
 62
     4
100
AcDbLine
 10
891.9527497186335
 20
775.2801308228529
 30
0.0
 11
944.4507020671712
 21
827.7780831713902
 31
0.0
1001
ACAD
1010
0.0
1020
0.0
1030
0.0
  0
LINE
  5
62B
330
11C
100
AcDbEntity
  8
1
  6
Continuous
 62
     4
100
AcDbLine
 10
757.9917293111313
 20
630.7125086975522
 30
0.0
 11
760.4085090359102
 21
633.1292884223312
 31
0.0
1001
ACAD
1010
0.0
1020
0.0
1030
0.0
  0
LINE
  5
62C
330
11C
100
AcDbEntity
  8
1
  6
Continuous
 62
     4
100
AcDbLine
 10
891.9527497186335
 20
764.6735291050547
 30
0.0
 11
948.0485847048536
 21
820.7693640912745
 31
0.0
1001
ACAD
1010
0.0
1020
0.0
1030
0.0
  0
LINE
  5
62D
330
11C
100
AcDbEntity
  8
1
  6
Continuous
 62
     4
100
AcDbLine
 10
891.9527497186335
 20
754.0669273872563
 30
0.0
 11
951.6464673425359
 21
813.7606450111587
 31
0.0
1001
ACAD
1010
0.0
1020
0.0
1030
0.0
  0
LINE
  5
62E
330
11C
100
AcDbEntity
  8
1
  6
Continuous
 62
     4
100
AcDbLine
 10
891.9527497186335
 20
743.4603256694582
 30
0.0
 11
955.244349980219
 21
806.7519259310433
 31
0.0
1001
ACAD
1010
0.0
1020
0.0
1030
0.0
  0
LINE
  5
62F
330
11C
100
AcDbEntity
  8
1
  6
Continuous
 62
     4
100
AcDbLine
 10
891.9527497186335
 20
732.8537239516601
 30
0.0
 11
958.8422326179015
 21
799.7432068509278
 31
0.0
1001
ACAD
1010
0.0
1020
0.0
1030
0.0
  0
LINE
  5
630
330
11C
100
AcDbEntity
  8
1
  6
Continuous
 62
     4
100
AcDbLine
 10
892.425163565367
 20
722.7195360805949
 30
0.0
 11
962.4401152555838
 21
792.7344877708122
 31
0.0
1001
ACAD
1010
0.0
1020
0.0
1030
0.0
  0
LINE
  5
631
330
11C
100
AcDbEntity
  8
1
  6
Continuous
 62
     4
100
AcDbLine
 10
893.6387540494171
 20
713.3265248468469
 30
0.0
 11
966.0379978932672
 21
785.7257686906965
 31
0.0
1001
ACAD
1010
0.0
1020
0.0
1030
0.0
  0
LINE
  5
632
330
11C
100
AcDbEntity
  8
1
  6
Continuous
 62
     4
100
AcDbLine
 10
894.852344533467
 20
703.9335136130986
 30
0.0
 11
969.6358805309493
 21
778.717049610581
 31
0.0
1001
ACAD
1010
0.0
1020
0.0
1030
0.0
  0
LINE
  5
633
330
11C
100
AcDbEntity
  8
1
  6
Continuous
 62
     4
100
AcDbLine
 10
896.0659350175166
 20
694.5405023793504
 30
0.0
 11
971.4359862246226
 21
769.9105535864559
 31
0.0
1001
ACAD
1010
0.0
1020
0.0
1030
0.0
  0
LINE
  5
634
330
11C
100
AcDbEntity
  8
1
  6
Continuous
 62
     4
100
AcDbLine
 10
899.7899839150347
 20
687.6579495590698
 30
0.0
 11
971.4359862246226
 21
759.3039518686572
 31
0.0
1001
ACAD
1010
0.0
1020
0.0
1030
0.0
  0
LINE
  5
635
330
11C
100
AcDbEntity
  8
1
  6
Continuous
 62
     4
100
AcDbLine
 10
507.0890930075371
 20
284.3504569337742
 30
0.0
 11
510.3538872820561
 21
287.6152512082932
 31
0.0
1001
ACAD
1010
0.0
1020
0.0
1030
0.0
  0
LINE
  5
636
330
11C
100
AcDbEntity
  8
1
  6
Continuous
 62
     4
100
AcDbLine
 10
910.3269961466867
 20
687.5883600729236
 30
0.0
 11
971.4359862246226
 21
748.697350150859
 31
0.0
1001
ACAD
1010
0.0
1020
0.0
1030
0.0
  0
LINE
  5
637
330
11C
100
AcDbEntity
  8
1
  6
Continuous
 62
     4
100
AcDbLine
 10
507.0993643610056
 20
273.7541265694445
 30
0.0
 11
520.9604889998542
 21
287.6152512082932
 31
0.0
1001
ACAD
1010
0.0
1020
0.0
1030
0.0
  0
LINE
  5
638
330
11C
100
AcDbEntity
  8
1
  6
Continuous
 62
     4
100
AcDbLine
 10
921.678899845908
 20
688.3336620543467
 30
0.0
 11
971.4359862246226
 21
738.0907484330609
 31
0.0
1001
ACAD
1010
0.0
1020
0.0
1030
0.0
  0
LINE
  5
639
330
11C
100
AcDbEntity
  8
1
  6
Continuous
 62
     4
100
AcDbLine
 10
507.1096357144745
 20
263.1577962051149
 30
0.0
 11
531.5670907176524
 21
287.6152512082932
 31
0.0
1001
ACAD
1010
0.0
1020
0.0
1030
0.0
  0
LINE
  5
63A
330
11C
100
AcDbEntity
  8
1
  6
Continuous
 62
     4
100
AcDbLine
 10
507.1199070679429
 20
252.5614658407853
 30
0.0
 11
542.1736924354505
 21
287.6152512082932
 31
0.0
1001
ACAD
1010
0.0
1020
0.0
1030
0.0
  0
LINE
  5
63B
330
11C
100
AcDbEntity
  8
1
  6
Continuous
 62
     4
100
AcDbLine
 10
513.9870403518473
 20
248.8219974068916
 30
0.0
 11
552.7802941532493
 21
287.6152512082932
 31
0.0
1001
ACAD
1010
0.0
1020
0.0
1030
0.0
  0
LINE
  5
63C
330
11C
100
AcDbEntity
  8
1
  6
Continuous
 62
     4
100
AcDbLine
 10
524.5936420696454
 20
248.8219974068915
 30
0.0
 11
563.3868958710469
 21
287.6152512082933
 31
0.0
1001
ACAD
1010
0.0
1020
0.0
1030
0.0
  0
LINE
  5
63D
330
11C
100
AcDbEntity
  8
1
  6
Continuous
 62
     4
100
AcDbLine
 10
535.2002437874435
 20
248.8219974068916
 30
0.0
 11
573.9934975888457
 21
287.6152512082933
 31
0.0
1001
ACAD
1010
0.0
1020
0.0
1030
0.0
  0
LINE
  5
63E
330
11C
100
AcDbEntity
  8
1
  6
Continuous
 62
     4
100
AcDbLine
 10
545.8068455052417
 20
248.8219974068916
 30
0.0
 11
584.6000993066438
 21
287.6152512082932
 31
0.0
1001
ACAD
1010
0.0
1020
0.0
1030
0.0
  0
LINE
  5
63F
330
11C
100
AcDbEntity
  8
1
  6
Continuous
 62
     4
100
AcDbLine
 10
556.4134472230398
 20
248.8219974068916
 30
0.0
 11
595.2067010244419
 21
287.6152512082933
 31
0.0
1001
ACAD
1010
0.0
1020
0.0
1030
0.0
  0
LINE
  5
640
330
11C
100
AcDbEntity
  8
1
  6
Continuous
 62
     4
100
AcDbLine
 10
567.0200489408382
 20
248.8219974068915
 30
0.0
 11
605.8133027422402
 21
287.6152512082933
 31
0.0
1001
ACAD
1010
0.0
1020
0.0
1030
0.0
  0
LINE
  5
641
330
11C
100
AcDbEntity
  8
1
  6
Continuous
 62
     4
100
AcDbLine
 10
577.6266506586364
 20
248.8219974068916
 30
0.0
 11
616.4199044600384
 21
287.6152512082933
 31
0.0
1001
ACAD
1010
0.0
1020
0.0
1030
0.0
  0
LINE
  5
642
330
11C
100
AcDbEntity
  8
1
  6
Continuous
 62
     4
100
AcDbLine
 10
588.233252376435
 20
248.8219974068916
 30
0.0
 11
627.0265061778366
 21
287.6152512082934
 31
0.0
1001
ACAD
1010
0.0
1020
0.0
1030
0.0
  0
LINE
  5
643
330
11C
100
AcDbEntity
  8
1
  6
Continuous
 62
     4
100
AcDbLine
 10
598.8398540942332
 20
248.8219974068916
 30
0.0
 11
637.6331078956347
 21
287.6152512082933
 31
0.0
1001
ACAD
1010
0.0
1020
0.0
1030
0.0
  0
LINE
  5
644
330
11C
100
AcDbEntity
  8
1
  6
Continuous
 62
     4
100
AcDbLine
 10
609.446455812031
 20
248.8219974068916
 30
0.0
 11
648.2397096134327
 21
287.6152512082933
 31
0.0
1001
ACAD
1010
0.0
1020
0.0
1030
0.0
  0
LINE
  5
645
330
11C
100
AcDbEntity
  8
1
  6
Continuous
 62
     4
100
AcDbLine
 10
620.0530575298296
 20
248.8219974068916
 30
0.0
 11
658.8463113312311
 21
287.6152512082933
 31
0.0
1001
ACAD
1010
0.0
1020
0.0
1030
0.0
  0
LINE
  5
646
330
11C
100
AcDbEntity
  8
1
  6
Continuous
 62
     4
100
AcDbLine
 10
630.6596592476275
 20
248.8219974068916
 30
0.0
 11
669.4529130490292
 21
287.6152512082934
 31
0.0
1001
ACAD
1010
0.0
1020
0.0
1030
0.0
  0
LINE
  5
647
330
11C
100
AcDbEntity
  8
1
  6
Continuous
 62
     4
100
AcDbLine
 10
641.266260965426
 20
248.8219974068917
 30
0.0
 11
680.0595147668274
 21
287.6152512082934
 31
0.0
1001
ACAD
1010
0.0
1020
0.0
1030
0.0
  0
LINE
  5
648
330
11C
100
AcDbEntity
  8
1
  6
Continuous
 62
     4
100
AcDbLine
 10
651.8728626832243
 20
248.8219974068917
 30
0.0
 11
690.6661164846261
 21
287.6152512082933
 31
0.0
1001
ACAD
1010
0.0
1020
0.0
1030
0.0
  0
LINE
  5
649
330
11C
100
AcDbEntity
  8
1
  6
Continuous
 62
     4
100
AcDbLine
 10
662.4794644010222
 20
248.8219974068917
 30
0.0
 11
701.2727182024239
 21
287.6152512082933
 31
0.0
1001
ACAD
1010
0.0
1020
0.0
1030
0.0
  0
LINE
  5
64A
330
11C
100
AcDbEntity
  8
1
  6
Continuous
 62
     4
100
AcDbLine
 10
673.0860661188203
 20
248.8219974068917
 30
0.0
 11
711.8793199202222
 21
287.6152512082934
 31
0.0
1001
ACAD
1010
0.0
1020
0.0
1030
0.0
  0
LINE
  5
64B
330
11C
100
AcDbEntity
  8
1
  6
Continuous
 62
     4
100
AcDbLine
 10
683.692667836619
 20
248.8219974068917
 30
0.0
 11
722.4859216380207
 21
287.6152512082935
 31
0.0
1001
ACAD
1010
0.0
1020
0.0
1030
0.0
  0
LINE
  5
64C
330
11C
100
AcDbEntity
  8
1
  6
Continuous
 62
     4
100
AcDbLine
 10
694.2992695544172
 20
248.8219974068917
 30
0.0
 11
733.0925233558189
 21
287.6152512082935
 31
0.0
1001
ACAD
1010
0.0
1020
0.0
1030
0.0
  0
LINE
  5
64D
330
11C
100
AcDbEntity
  8
1
  6
Continuous
 62
     4
100
AcDbLine
 10
704.9058712722151
 20
248.8219974068917
 30
0.0
 11
743.6991250736171
 21
287.6152512082934
 31
0.0
1001
ACAD
1010
0.0
1020
0.0
1030
0.0
  0
LINE
  5
64E
330
11C
100
AcDbEntity
  8
1
  6
Continuous
 62
     4
100
AcDbLine
 10
715.5124729900133
 20
248.8219974068917
 30
0.0
 11
754.3057267914153
 21
287.6152512082934
 31
0.0
1001
ACAD
1010
0.0
1020
0.0
1030
0.0
  0
LINE
  5
64F
330
11C
100
AcDbEntity
  8
1
  6
Continuous
 62
     4
100
AcDbLine
 10
726.1190747078119
 20
248.8219974068917
 30
0.0
 11
764.9123285092136
 21
287.6152512082935
 31
0.0
1001
ACAD
1010
0.0
1020
0.0
1030
0.0
  0
LINE
  5
650
330
11C
100
AcDbEntity
  8
1
  6
Continuous
 62
     4
100
AcDbLine
 10
736.7256764256102
 20
248.8219974068917
 30
0.0
 11
775.5189302270122
 21
287.6152512082935
 31
0.0
1001
ACAD
1010
0.0
1020
0.0
1030
0.0
  0
LINE
  5
651
330
11C
100
AcDbEntity
  8
1
  6
Continuous
 62
     4
100
AcDbLine
 10
747.3322781434082
 20
248.8219974068917
 30
0.0
 11
786.1255319448101
 21
287.6152512082935
 31
0.0
1001
ACAD
1010
0.0
1020
0.0
1030
0.0
  0
LINE
  5
652
330
11C
100
AcDbEntity
  8
1
  6
Continuous
 62
     4
100
AcDbLine
 10
757.9388798612065
 20
248.8219974068918
 30
0.0
 11
796.7321336626079
 21
287.6152512082935
 31
0.0
1001
ACAD
1010
0.0
1020
0.0
1030
0.0
  0
LINE
  5
653
330
11C
100
AcDbEntity
  8
1
  6
Continuous
 62
     4
100
AcDbLine
 10
768.5454815790047
 20
248.8219974068917
 30
0.0
 11
807.3387353804067
 21
287.6152512082935
 31
0.0
1001
ACAD
1010
0.0
1020
0.0
1030
0.0
  0
LINE
  5
654
330
11C
100
AcDbEntity
  8
1
  6
Continuous
 62
     4
100
AcDbLine
 10
779.1520832968028
 20
248.8219974068919
 30
0.0
 11
817.9453370982049
 21
287.6152512082935
 31
0.0
1001
ACAD
1010
0.0
1020
0.0
1030
0.0
  0
LINE
  5
655
330
11C
100
AcDbEntity
  8
1
  6
Continuous
 62
     4
100
AcDbLine
 10
789.7586850146008
 20
248.8219974068918
 30
0.0
 11
828.5519388160022
 21
287.6152512082935
 31
0.0
1001
ACAD
1010
0.0
1020
0.0
1030
0.0
  0
LINE
  5
656
330
11C
100
AcDbEntity
  8
1
  6
Continuous
 62
     4
100
AcDbLine
 10
800.3652867323992
 20
248.8219974068918
 30
0.0
 11
839.1585405338013
 21
287.6152512082935
 31
0.0
1001
ACAD
1010
0.0
1020
0.0
1030
0.0
  0
LINE
  5
657
330
11C
100
AcDbEntity
  8
1
  6
Continuous
 62
     4
100
AcDbLine
 10
810.9718884501974
 20
248.8219974068917
 30
0.0
 11
849.7651422515994
 21
287.6152512082936
 31
0.0
1001
ACAD
1010
0.0
1020
0.0
1030
0.0
  0
LINE
  5
658
330
11C
100
AcDbEntity
  8
1
  6
Continuous
 62
     4
100
AcDbLine
 10
821.5784901679956
 20
248.8219974068918
 30
0.0
 11
860.3717439693976
 21
287.6152512082935
 31
0.0
1001
ACAD
1010
0.0
1020
0.0
1030
0.0
  0
LINE
  5
659
330
11C
100
AcDbEntity
  8
1
  6
Continuous
 62
     4
100
AcDbLine
 10
832.1850918857938
 20
248.8219974068918
 30
0.0
 11
870.9783456871958
 21
287.6152512082935
 31
0.0
1001
ACAD
1010
0.0
1020
0.0
1030
0.0
  0
LINE
  5
65A
330
11C
100
AcDbEntity
  8
1
  6
Continuous
 62
     4
100
AcDbLine
 10
842.791693603592
 20
248.8219974068918
 30
0.0
 11
881.5849474049937
 21
287.6152512082935
 31
0.0
1001
ACAD
1010
0.0
1020
0.0
1030
0.0
  0
LINE
  5
65B
330
11C
100
AcDbEntity
  8
1
  6
Continuous
 62
     4
100
AcDbLine
 10
853.3982953213902
 20
248.8219974068918
 30
0.0
 11
892.191549122792
 21
287.6152512082935
 31
0.0
1001
ACAD
1010
0.0
1020
0.0
1030
0.0
  0
LINE
  5
65C
330
11C
100
AcDbEntity
  8
1
  6
Continuous
 62
     4
100
AcDbLine
 10
864.0048970391886
 20
248.8219974068919
 30
0.0
 11
902.7981508405902
 21
287.6152512082936
 31
0.0
1001
ACAD
1010
0.0
1020
0.0
1030
0.0
  0
LINE
  5
65D
330
11C
100
AcDbEntity
  8
1
  6
Continuous
 62
     4
100
AcDbLine
 10
874.6114987569868
 20
248.8219974068918
 30
0.0
 11
913.4047525583884
 21
287.6152512082936
 31
0.0
1001
ACAD
1010
0.0
1020
0.0
1030
0.0
  0
LINE
  5
65E
330
11C
100
AcDbEntity
  8
1
  6
Continuous
 62
     4
100
AcDbLine
 10
885.2181004747851
 20
248.8219974068918
 30
0.0
 11
924.0113542761866
 21
287.6152512082936
 31
0.0
1001
ACAD
1010
0.0
1020
0.0
1030
0.0
  0
LINE
  5
65F
330
11C
100
AcDbEntity
  8
1
  6
Continuous
 62
     4
100
AcDbLine
 10
895.8247021925826
 20
248.8219974068917
 30
0.0
 11
934.6179559939846
 21
287.6152512082936
 31
0.0
1001
ACAD
1010
0.0
1020
0.0
1030
0.0
  0
LINE
  5
660
330
11C
100
AcDbEntity
  8
1
  6
Continuous
 62
     4
100
AcDbLine
 10
906.4313039103817
 20
248.8219974068917
 30
0.0
 11
945.2245577117835
 21
287.6152512082936
 31
0.0
1001
ACAD
1010
0.0
1020
0.0
1030
0.0
  0
LINE
  5
661
330
11C
100
AcDbEntity
  8
1
  6
Continuous
 62
     4
100
AcDbLine
 10
917.0379056281795
 20
248.8219974068917
 30
0.0
 11
955.8311594295812
 21
287.6152512082935
 31
0.0
1001
ACAD
1010
0.0
1020
0.0
1030
0.0
  0
LINE
  5
662
330
11C
100
AcDbEntity
  8
1
  6
Continuous
 62
     4
100
AcDbLine
 10
927.6445073459779
 20
248.8219974068918
 30
0.0
 11
966.4377611473801
 21
287.6152512082936
 31
0.0
1001
ACAD
1010
0.0
1020
0.0
1030
0.0
  0
LINE
  5
663
330
11C
100
AcDbEntity
  8
1
  6
Continuous
 62
     4
100
AcDbLine
 10
938.2511090637759
 20
248.8219974068918
 30
0.0
 11
977.0443628651781
 21
287.6152512082936
 31
0.0
1001
ACAD
1010
0.0
1020
0.0
1030
0.0
  0
LINE
  5
664
330
11C
100
AcDbEntity
  8
1
  6
Continuous
 62
     4
100
AcDbLine
 10
948.8577107815736
 20
248.8219974068919
 30
0.0
 11
987.6509645829763
 21
287.6152512082936
 31
0.0
1001
ACAD
1010
0.0
1020
0.0
1030
0.0
  0
LINE
  5
665
330
11C
100
AcDbEntity
  8
1
  6
Continuous
 62
     4
100
AcDbLine
 10
959.4643124993725
 20
248.8219974068916
 30
0.0
 11
998.2575663007743
 21
287.6152512082936
 31
0.0
1001
ACAD
1010
0.0
1020
0.0
1030
0.0
  0
LINE
  5
666
330
11C
100
AcDbEntity
  8
1
  6
Continuous
 62
     4
100
AcDbLine
 10
970.0709142171699
 20
248.8219974068916
 30
0.0
 11
1008.864168018572
 21
287.6152512082936
 31
0.0
1001
ACAD
1010
0.0
1020
0.0
1030
0.0
  0
LINE
  5
667
330
11C
100
AcDbEntity
  8
1
  6
Continuous
 62
     4
100
AcDbLine
 10
980.6775159349687
 20
248.8219974068916
 30
0.0
 11
1019.470769736368
 21
287.6152512082936
 31
0.0
1001
ACAD
1010
0.0
1020
0.0
1030
0.0
  0
LINE
  5
668
330
11C
100
AcDbEntity
  8
1
  6
Continuous
 62
     4
100
AcDbLine
 10
991.284117652767
 20
248.8219974068917
 30
0.0
 11
1030.077371454168
 21
287.6152512082936
 31
0.0
1001
ACAD
1010
0.0
1020
0.0
1030
0.0
  0
LINE
  5
669
330
11C
100
AcDbEntity
  8
1
  6
Continuous
 62
     4
100
AcDbLine
 10
1001.890719370565
 20
248.8219974068917
 30
0.0
 11
1040.683973171967
 21
287.6152512082936
 31
0.0
1001
ACAD
1010
0.0
1020
0.0
1030
0.0
  0
LINE
  5
66A
330
11C
100
AcDbEntity
  8
1
  6
Continuous
 62
     4
100
AcDbLine
 10
1012.497321088363
 20
248.8219974068917
 30
0.0
 11
1051.290574889764
 21
287.6152512082936
 31
0.0
1001
ACAD
1010
0.0
1020
0.0
1030
0.0
  0
LINE
  5
66B
330
11C
100
AcDbEntity
  8
1
  6
Continuous
 62
     4
100
AcDbLine
 10
1023.10392280616
 20
248.8219974068917
 30
0.0
 11
1061.897176607563
 21
287.6152512082938
 31
0.0
1001
ACAD
1010
0.0
1020
0.0
1030
0.0
  0
LINE
  5
66C
330
11C
100
AcDbEntity
  8
1
  6
Continuous
 62
     4
100
AcDbLine
 10
1033.710524523959
 20
248.8219974068917
 30
0.0
 11
1072.503778325361
 21
287.6152512082938
 31
0.0
1001
ACAD
1010
0.0
1020
0.0
1030
0.0
  0
LINE
  5
66D
330
11C
100
AcDbEntity
  8
1
  6
Continuous
 62
     4
100
AcDbLine
 10
1044.317126241755
 20
248.8219974068916
 30
0.0
 11
1083.110380043158
 21
287.6152512082938
 31
0.0
1001
ACAD
1010
0.0
1020
0.0
1030
0.0
  0
LINE
  5
66E
330
11C
100
AcDbEntity
  8
1
  6
Continuous
 62
     4
100
AcDbLine
 10
1054.923727959556
 20
248.8219974068917
 30
0.0
 11
1093.716981760957
 21
287.6152512082938
 31
0.0
1001
ACAD
1010
0.0
1020
0.0
1030
0.0
  0
LINE
  5
66F
330
11C
100
AcDbEntity
  8
1
  6
Continuous
 62
     4
100
AcDbLine
 10
1065.530329677355
 20
248.8219974068917
 30
0.0
 11
1104.323583478757
 21
287.6152512082938
 31
0.0
1001
ACAD
1010
0.0
1020
0.0
1030
0.0
  0
LINE
  5
670
330
11C
100
AcDbEntity
  8
1
  6
Continuous
 62
     4
100
AcDbLine
 10
1076.136931395152
 20
248.8219974068917
 30
0.0
 11
1114.930185196554
 21
287.6152512082936
 31
0.0
1001
ACAD
1010
0.0
1020
0.0
1030
0.0
  0
LINE
  5
671
330
11C
100
AcDbEntity
  8
1
  6
Continuous
 62
     4
100
AcDbLine
 10
1086.74353311295
 20
248.8219974068917
 30
0.0
 11
1125.536786914353
 21
287.6152512082938
 31
0.0
1001
ACAD
1010
0.0
1020
0.0
1030
0.0
  0
LINE
  5
672
330
11C
100
AcDbEntity
  8
1
  6
Continuous
 62
     4
100
AcDbLine
 10
1097.350134830749
 20
248.8219974068917
 30
0.0
 11
1136.143388632151
 21
287.6152512082938
 31
0.0
1001
ACAD
1010
0.0
1020
0.0
1030
0.0
  0
LINE
  5
673
330
11C
100
AcDbEntity
  8
1
  6
Continuous
 62
     4
100
AcDbLine
 10
1107.956736548546
 20
248.8219974068917
 30
0.0
 11
1146.749990349949
 21
287.6152512082938
 31
0.0
1001
ACAD
1010
0.0
1020
0.0
1030
0.0
  0
LINE
  5
674
330
11C
100
AcDbEntity
  8
1
  6
Continuous
 62
     4
100
AcDbLine
 10
1118.563338266346
 20
248.8219974068917
 30
0.0
 11
1157.356592067747
 21
287.6152512082938
 31
0.0
1001
ACAD
1010
0.0
1020
0.0
1030
0.0
  0
LINE
  5
675
330
11C
100
AcDbEntity
  8
1
  6
Continuous
 62
     4
100
AcDbLine
 10
1129.169939984143
 20
248.8219974068916
 30
0.0
 11
1167.963193785545
 21
287.6152512082938
 31
0.0
1001
ACAD
1010
0.0
1020
0.0
1030
0.0
  0
LINE
  5
676
330
11C
100
AcDbEntity
  8
1
  6
Continuous
 62
     4
100
AcDbLine
 10
1139.776541701941
 20
248.8219974068916
 30
0.0
 11
1170.992608299699
 21
280.038064004649
 31
0.0
1001
ACAD
1010
0.0
1020
0.0
1030
0.0
  0
LINE
  5
677
330
11C
100
AcDbEntity
  8
1
  6
Continuous
 62
     4
100
AcDbLine
 10
1150.38314341974
 20
248.8219974068916
 30
0.0
 11
1170.992608299699
 21
269.4314622868508
 31
0.0
1001
ACAD
1010
0.0
1020
0.0
1030
0.0
  0
LINE
  5
678
330
11C
100
AcDbEntity
  8
1
  6
Continuous
 62
     4
100
AcDbLine
 10
1160.989745137537
 20
248.8219974068916
 30
0.0
 11
1170.992608299699
 21
258.8248605690525
 31
0.0
1001
ACAD
1010
0.0
1020
0.0
1030
0.0
  0
LINE
  5
679
330
11C
100
AcDbEntity
  8
1
  6
Continuous
 62
     4
100
AcDbLine
 10
897.1085076738994
 20
659.3781303920052
 30
0.0
 11
907.035863552341
 21
669.3054862704467
 31
0.0
1001
ACAD
1010
0.0
1020
0.0
1030
0.0
  0
LINE
  5
67A
330
11C
100
AcDbEntity
  8
1
  6
Continuous
 62
     4
100
AcDbLine
 10
897.1085076738994
 20
648.7715286742071
 30
0.0
 11
917.6424652701392
 21
669.3054862704467
 31
0.0
1001
ACAD
1010
0.0
1020
0.0
1030
0.0
  0
LINE
  5
67B
330
11C
100
AcDbEntity
  8
1
  6
Continuous
 62
     4
100
AcDbLine
 10
897.1085076738994
 20
638.1649269564087
 30
0.0
 11
928.2490669879374
 21
669.3054862704467
 31
0.0
1001
ACAD
1010
0.0
1020
0.0
1030
0.0
  0
LINE
  5
67C
330
11C
100
AcDbEntity
  8
1
  6
Continuous
 62
     4
100
AcDbLine
 10
899.765549572737
 20
630.2153671374481
 30
0.0
 11
938.8556687057356
 21
669.3054862704472
 31
0.0
1001
ACAD
1010
0.0
1020
0.0
1030
0.0
  0
LINE
  5
67D
330
11C
100
AcDbEntity
  8
1
  6
Continuous
 62
     4
100
AcDbLine
 10
910.3721512905352
 20
630.2153671374481
 30
0.0
 11
949.4622704235338
 21
669.3054862704472
 31
0.0
1001
ACAD
1010
0.0
1020
0.0
1030
0.0
  0
LINE
  5
67E
330
11C
100
AcDbEntity
  8
1
  6
Continuous
 62
     4
100
AcDbLine
 10
920.9787530083334
 20
630.2153671374477
 30
0.0
 11
960.0688721413318
 21
669.3054862704472
 31
0.0
1001
ACAD
1010
0.0
1020
0.0
1030
0.0
  0
LINE
  5
67F
330
11C
100
AcDbEntity
  8
1
  6
Continuous
 62
     4
100
AcDbLine
 10
931.5853547261315
 20
630.2153671374481
 30
0.0
 11
970.67547385913
 21
669.3054862704472
 31
0.0
1001
ACAD
1010
0.0
1020
0.0
1030
0.0
  0
LINE
  5
680
330
11C
100
AcDbEntity
  8
1
  6
Continuous
 62
     4
100
AcDbLine
 10
942.1919564439296
 20
630.2153671374481
 30
0.0
 11
981.2820755769287
 21
669.3054862704472
 31
0.0
1001
ACAD
1010
0.0
1020
0.0
1030
0.0
  0
LINE
  5
681
330
11C
100
AcDbEntity
  8
1
  6
Continuous
 62
     4
100
AcDbLine
 10
952.7985581617279
 20
630.2153671374481
 30
0.0
 11
991.8886772947272
 21
669.3054862704472
 31
0.0
1001
ACAD
1010
0.0
1020
0.0
1030
0.0
  0
LINE
  5
682
330
11C
100
AcDbEntity
  8
1
  6
Continuous
 62
     4
100
AcDbLine
 10
963.4051598795261
 20
630.2153671374481
 30
0.0
 11
1002.495279012523
 21
669.3054862704472
 31
0.0
1001
ACAD
1010
0.0
1020
0.0
1030
0.0
  0
LINE
  5
683
330
11C
100
AcDbEntity
  8
1
  6
Continuous
 62
     4
100
AcDbLine
 10
974.0117615973243
 20
630.2153671374481
 30
0.0
 11
1013.101880730324
 21
669.3054862704472
 31
0.0
1001
ACAD
1010
0.0
1020
0.0
1030
0.0
  0
LINE
  5
684
330
11C
100
AcDbEntity
  8
1
  6
Continuous
 62
     4
100
AcDbLine
 10
984.6183633151223
 20
630.2153671374481
 30
0.0
 11
1023.708482448121
 21
669.3054862704472
 31
0.0
1001
ACAD
1010
0.0
1020
0.0
1030
0.0
  0
LINE
  5
685
330
11C
100
AcDbEntity
  8
1
  6
Continuous
 62
     4
100
AcDbLine
 10
995.2249650329203
 20
630.2153671374483
 30
0.0
 11
1034.315084165918
 21
669.3054862704472
 31
0.0
1001
ACAD
1010
0.0
1020
0.0
1030
0.0
  0
LINE
  5
686
330
11C
100
AcDbEntity
  8
1
  6
Continuous
 62
     4
100
AcDbLine
 10
1005.831566750716
 20
630.2153671374483
 30
0.0
 11
1044.921685883717
 21
669.3054862704472
 31
0.0
1001
ACAD
1010
0.0
1020
0.0
1030
0.0
  0
LINE
  5
687
330
11C
100
AcDbEntity
  8
1
  6
Continuous
 62
     4
100
AcDbLine
 10
1016.438168468516
 20
630.2153671374483
 30
0.0
 11
1055.528287601515
 21
669.3054862704472
 31
0.0
1001
ACAD
1010
0.0
1020
0.0
1030
0.0
  0
LINE
  5
688
330
11C
100
AcDbEntity
  8
1
  6
Continuous
 62
     4
100
AcDbLine
 10
1027.044770186315
 20
630.2153671374483
 30
0.0
 11
1066.134889319312
 21
669.3054862704472
 31
0.0
1001
ACAD
1010
0.0
1020
0.0
1030
0.0
  0
LINE
  5
689
330
11C
100
AcDbEntity
  8
1
  6
Continuous
 62
     4
100
AcDbLine
 10
1037.651371904112
 20
630.2153671374481
 30
0.0
 11
1076.741491037112
 21
669.3054862704467
 31
0.0
1001
ACAD
1010
0.0
1020
0.0
1030
0.0
  0
LINE
  5
68A
330
11C
100
AcDbEntity
  8
1
  6
Continuous
 62
     4
100
AcDbLine
 10
1048.257973621911
 20
630.2153671374481
 30
0.0
 11
1087.348092754909
 21
669.3054862704467
 31
0.0
1001
ACAD
1010
0.0
1020
0.0
1030
0.0
  0
LINE
  5
68B
330
11C
100
AcDbEntity
  8
1
  6
Continuous
 62
     4
100
AcDbLine
 10
1058.864575339709
 20
630.2153671374481
 30
0.0
 11
1097.954694472708
 21
669.3054862704467
 31
0.0
1001
ACAD
1010
0.0
1020
0.0
1030
0.0
  0
LINE
  5
68C
330
11C
100
AcDbEntity
  8
1
  6
Continuous
 62
     4
100
AcDbLine
 10
1069.471177057508
 20
630.215367137448
 30
0.0
 11
1108.561296190506
 21
669.3054862704467
 31
0.0
1001
ACAD
1010
0.0
1020
0.0
1030
0.0
  0
LINE
  5
68D
330
11C
100
AcDbEntity
  8
1
  6
Continuous
 62
     4
100
AcDbLine
 10
1080.077778775305
 20
630.215367137448
 30
0.0
 11
1119.167897908305
 21
669.3054862704472
 31
0.0
1001
ACAD
1010
0.0
1020
0.0
1030
0.0
  0
LINE
  5
68E
330
11C
100
AcDbEntity
  8
1
  6
Continuous
 62
     4
100
AcDbLine
 10
1090.684380493103
 20
630.2153671374483
 30
0.0
 11
1129.774499626104
 21
669.3054862704472
 31
0.0
1001
ACAD
1010
0.0
1020
0.0
1030
0.0
  0
LINE
  5
68F
330
11C
100
AcDbEntity
  8
1
  6
Continuous
 62
     4
100
AcDbLine
 10
1101.290982210902
 20
630.2153671374483
 30
0.0
 11
1140.381101343902
 21
669.3054862704472
 31
0.0
1001
ACAD
1010
0.0
1020
0.0
1030
0.0
  0
LINE
  5
690
330
11C
100
AcDbEntity
  8
1
  6
Continuous
 62
     4
100
AcDbLine
 10
1111.897583928701
 20
630.2153671374483
 30
0.0
 11
1150.987703061699
 21
669.3054862704472
 31
0.0
1001
ACAD
1010
0.0
1020
0.0
1030
0.0
  0
LINE
  5
691
330
11C
100
AcDbEntity
  8
1
  6
Continuous
 62
     4
100
AcDbLine
 10
1122.504185646499
 20
630.2153671374481
 30
0.0
 11
1161.594304779498
 21
669.3054862704472
 31
0.0
1001
ACAD
1010
0.0
1020
0.0
1030
0.0
  0
LINE
  5
692
330
11C
100
AcDbEntity
  8
1
  6
Continuous
 62
     4
100
AcDbLine
 10
1133.110787364297
 20
630.2153671374481
 30
0.0
 11
1170.992606937687
 21
668.0971867108389
 31
0.0
1001
ACAD
1010
0.0
1020
0.0
1030
0.0
  0
LINE
  5
693
330
11C
100
AcDbEntity
  8
1
  6
Continuous
 62
     4
100
AcDbLine
 10
1143.717389082095
 20
630.2153671374481
 30
0.0
 11
1170.992606937687
 21
657.4905849930408
 31
0.0
1001
ACAD
1010
0.0
1020
0.0
1030
0.0
  0
LINE
  5
694
330
11C
100
AcDbEntity
  8
1
  6
Continuous
 62
     4
100
AcDbLine
 10
1154.323990799893
 20
630.2153671374481
 30
0.0
 11
1170.992606937687
 21
646.8839832752422
 31
0.0
1001
ACAD
1010
0.0
1020
0.0
1030
0.0
  0
LINE
  5
695
330
11C
100
AcDbEntity
  8
1
  6
Continuous
 62
     4
100
AcDbLine
 10
1164.930592517691
 20
630.2153671374481
 30
0.0
 11
1170.992606937687
 21
636.2773815574444
 31
0.0
1001
ACAD
1010
0.0
1020
0.0
1030
0.0
  0
LINE
  5
A74
330
11C
100
AcDbEntity
  8
1
  6
Continuous
 62
     7
100
AcDbLine
 10
506.8603038809833
 20
669.4946877310712
 30
0.0
 11
506.9903038809841
 21
385.0524045017033
 31
0.0
  0
LINE
  5
A75
330
11C
100
AcDbEntity
  8
1
  6
Continuous
 62
     7
100
AcDbLine
 10
1170.992608299699
 20
534.1519048646347
 30
0.0
 11
1170.992608299699
 21
248.821997406892
 31
0.0
  0
LINE
  5
A76
330
11C
100
AcDbEntity
  8
1
  6
Continuous
 62
     3
100
AcDbLine
 10
760.4085090359108
 20
621.7014339296697
 30
0.0
 11
760.4085090359108
 21
474.3346877310708
 31
0.0
  0
LINE
  5
A77
330
11C
100
AcDbEntity
  8
1
  6
Continuous
 62
     3
100
AcDbLine
 10
897.1085090359101
 20
621.2153671374481
 30
0.0
 11
897.1085090359101
 21
474.3346877310708
 31
0.0
  0
LINE
  5
A78
330
11C
100
AcDbEntity
  8
1
  6
Continuous
 62
     3
100
AcDbLine
 10
1355.677678404642
 20
635.0547412286104
 30
0.0
 11
1355.677678404642
 21
483.8277512082935
 31
0.0
  0
LINE
  5
A79
330
11C
100
AcDbEntity
  8
1
  6
Continuous
 62
     7
100
AcDbLine
 10
1170.992608299699
 20
287.6152512082938
 30
0.0
 11
506.8603038809833
 21
287.6152512082934
 31
0.0
  0
LINE
  5
A7A
330
11C
100
AcDbEntity
  8
1
  6
Continuous
 62
     7
100
AcDbLine
 10
507.0103038809836
 20
365.632404501703
 30
0.0
 11
507.123531851311
 21
248.8219974068916
 31
0.0
  0
LINE
  5
A7B
330
11C
100
AcDbEntity
  8
1
  6
Continuous
 62
     7
100
AcDbLine
 10
492.650303880984
 20
369.9424045017031
 30
0.0
 11
507.0103038809836
 21
365.632404501703
 31
0.0
  0
LINE
  5
A7C
330
11C
100
AcDbEntity
  8
1
  6
Continuous
 62
     7
100
AcDbLine
 10
519.8503038809832
 20
379.5424045017031
 30
0.0
 11
492.650303880984
 21
369.9424045017031
 31
0.0
  0
LINE
  5
A7D
330
11C
100
AcDbEntity
  8
1
  6
Continuous
 62
     7
100
AcDbLine
 10
506.9903038809841
 20
385.0524045017033
 30
0.0
 11
519.8503038809832
 21
379.5424045017031
 31
0.0
  0
LINE
  5
A7E
330
11C
100
AcDbEntity
  8
1
  6
Continuous
 62
     3
100
AcDbLine
 10
873.3960090359108
 20
483.3346877310709
 30
0.0
 11
784.1210090359107
 21
483.3346877310709
 31
0.0
  0
LINE
  5
A7F
330
11C
100
AcDbEntity
  8
1
  6
Continuous
 62
     3
100
AcDbLine
 10
1364.677678404642
 20
460.1152512082935
 30
0.0
 11
1179.992608299698
 21
460.1152512082935
 31
0.0
  0
LINE
  5
A80
330
11C
100
AcDbEntity
  8
1
  6
Continuous
 62
     7
100
AcDbLine
 10
760.4085090359108
 20
669.4946877310712
 30
0.0
 11
506.8603038809833
 21
669.4946877310712
 31
0.0
  0
LINE
  5
A81
330
11C
100
AcDbEntity
  8
1
  6
Continuous
 62
     7
100
AcDbLine
 10
896.9527497186339
 20
687.6766874769409
 30
0.0
 11
891.9527497186335
 21
726.3759495311476
 31
0.0
  0
LINE
  5
A82
330
11C
100
AcDbEntity
  8
1
  6
Continuous
 62
     7
100
AcDbLine
 10
971.4359862246226
 20
775.2104218542076
 30
0.0
 11
925.9634988461014
 21
863.7913796020219
 31
0.0
  0
LINE
  5
A83
330
11C
100
AcDbEntity
  8
1
  6
Continuous
 62
     7
100
AcDbLine
 10
686.0610318471972
 20
775.2104218542076
 30
0.0
 11
731.5335192257182
 21
863.7913796020219
 31
0.0
  0
ARC
  5
A84
330
11C
100
AcDbEntity
  8
1
  6
Continuous
 62
     7
100
AcDbCircle
 10
828.7555505164471
 20
788.9634230241215
 30
0.0
 40
122.113806803983
100
AcDbArc
 50
236.0418094394039
 51
303.9534192505537
  0
ARC
  5
A85
330
11C
100
AcDbEntity
  8
1
  6
Continuous
 62
     7
100
AcDbCircle
 10
828.7585090359099
 20
773.6127282309012
 30
0.0
 40
124.7065476998297
100
AcDbArc
 50
236.7641494969042
 51
303.2358505030958
  0
ARC
  5
A86
330
11C
100
AcDbEntity
  8
1
  6
Continuous
 62
     7
100
AcDbCircle
 10
828.7585090359099
 20
742.4107984986792
 30
0.0
 40
130.9607005690089
100
AcDbArc
 50
238.539385217025
 51
301.460614782975
  0
LINE
  5
A87
330
11C
100
AcDbEntity
  8
1
  6
Continuous
 62
     7
100
AcDbLine
 10
760.4085090359108
 20
630.7014339296697
 30
0.0
 11
760.4085090359108
 21
669.4946877310712
 31
0.0
  0
LINE
  5
A88
330
11C
100
AcDbEntity
  8
1
  6
Continuous
 62
     7
100
AcDbLine
 10
686.0610318471972
 20
728.5400873092985
 30
0.0
 11
828.7485090359096
 21
728.5400873092985
 31
0.0
  0
LINE
  5
A89
330
11C
100
AcDbEntity
  8
1
  6
Continuous
 62
     7
100
AcDbLine
 10
686.0610318471972
 20
775.2104218542076
 30
0.0
 11
828.7485090359096
 21
775.2104218542076
 31
0.0
  0
LINE
  5
A8A
330
11C
100
AcDbEntity
  8
1
  6
Continuous
 62
     7
100
AcDbLine
 10
765.5442683531857
 20
786.153805488594
 30
0.0
 11
765.5442683531857
 21
760.7641375227867
 31
0.0
  0
LINE
  5
A8B
330
11C
100
AcDbEntity
  8
1
  6
Continuous
 62
     7
100
AcDbLine
 10
686.0610318471972
 20
775.2104218542076
 30
0.0
 11
686.0610318471972
 21
728.5400873092985
 31
0.0
  0
LINE
  5
A8C
330
11C
100
AcDbEntity
  8
1
  6
Continuous
 62
     7
100
AcDbLine
 10
736.8250103212143
 20
687.5200386146332
 30
0.0
 11
686.0610318471972
 21
728.5400873092985
 31
0.0
  0
LINE
  5
A8D
330
11C
100
AcDbEntity
  8
1
  6
Continuous
 62
     7
100
AcDbLine
 10
765.5442683531857
 20
740.4524019543475
 30
0.0
 11
765.5442683531857
 21
726.3759495311453
 31
0.0
  0
LINE
  5
A8E
330
11C
100
AcDbEntity
  8
1
  6
Continuous
 62
     7
100
AcDbLine
 10
736.8250103212143
 20
687.5200386146332
 30
0.0
 11
760.5442683531857
 21
687.6766874769409
 31
0.0
  0
LINE
  5
A8F
330
11C
100
AcDbEntity
  8
1
  6
Continuous
 62
     7
100
AcDbLine
 10
971.4359862246226
 20
775.2104218542076
 30
0.0
 11
971.4359862246226
 21
728.5400873092985
 31
0.0
  0
LINE
  5
A90
330
11C
100
AcDbEntity
  8
1
  6
Continuous
 62
     7
100
AcDbLine
 10
920.6720077506059
 20
687.5200386146332
 30
0.0
 11
971.4359862246226
 21
728.5400873092985
 31
0.0
  0
LINE
  5
A91
330
11C
100
AcDbEntity
  8
1
  6
Continuous
 62
     7
100
AcDbLine
 10
920.6720077506059
 20
687.5200386146332
 30
0.0
 11
896.9527497186339
 21
687.6766874769409
 31
0.0
  0
LINE
  5
A92
330
11C
100
AcDbEntity
  8
1
  6
Continuous
 62
     7
100
AcDbLine
 10
1170.992608299699
 20
630.2153671374481
 30
0.0
 11
1170.992608299699
 21
553.561904864635
 31
0.0
  0
LINE
  5
A93
330
11C
100
AcDbEntity
  8
1
  6
Continuous
 62
     7
100
AcDbLine
 10
1183.8526082997
 20
548.0519048646351
 30
0.0
 11
1156.652608299697
 21
538.4519048646351
 31
0.0
  0
LINE
  5
A94
330
11C
100
AcDbEntity
  8
1
  6
Continuous
 62
     7
100
AcDbLine
 10
1156.652608299697
 20
538.4519048646351
 30
0.0
 11
1170.992608299699
 21
534.1519048646347
 31
0.0
  0
LINE
  5
A95
330
11C
100
AcDbEntity
  8
1
  6
Continuous
 62
     7
100
AcDbLine
 10
1170.992608299699
 20
553.561904864635
 30
0.0
 11
1183.8526082997
 21
548.0519048646351
 31
0.0
  0
LINE
  5
A96
330
11C
100
AcDbEntity
  8
1
  6
Continuous
 62
     3
100
AcDbLine
 10
1355.677678404641
 20
847.2087562859197
 30
0.0
 11
1355.677678404642
 21
699.0547412286105
 31
0.0
  0
LINE
  5
A97
330
11C
100
AcDbEntity
  8
1
  6
Continuous
 62
     3
100
AcDbLine
 10
924.4684899879102
 20
870.9212562859198
 30
0.0
 11
968.4359783393192
 21
870.9212562859198
 31
0.0
  0
LINE
  5
A98
330
11C
100
AcDbEntity
  8
1
  6
Continuous
 62
     3
100
AcDbLine
 10
974.4359783393193
 20
870.9212562859198
 30
0.0
 11
1364.677678404641
 21
870.9212562859198
 31
0.0
  0
LINE
  5
A99
330
11C
100
AcDbEntity
  8
1
  6
Continuous
 62
     7
100
AcDbLine
 10
828.7485090359096
 20
863.7913796020219
 30
0.0
 11
731.5335192257182
 21
863.7913796020219
 31
0.0
  0
LINE
  5
A9A
330
11C
100
AcDbEntity
  8
1
  6
Continuous
 62
     7
100
AcDbLine
 10
915.4684899879097
 20
870.9212562859198
 30
0.0
 11
742.0285280839091
 21
870.9212562859198
 31
0.0
  0
LINE
  5
A9B
330
11C
100
AcDbEntity
  8
1
  6
Continuous
 62
     7
100
AcDbLine
 10
742.0285280839091
 20
870.9212562859198
 30
0.0
 11
731.5335192257182
 21
863.7913796020219
 31
0.0
  0
LINE
  5
A9C
330
11C
100
AcDbEntity
  8
1
  6
Continuous
 62
     7
100
AcDbLine
 10
915.4684899879102
 20
870.9212562859198
 30
0.0
 11
925.9634988461014
 21
863.7913796020219
 31
0.0
  0
LINE
  5
A9D
330
11C
100
AcDbEntity
  8
1
  6
Continuous
 62
     7
100
AcDbLine
 10
898.2642683531851
 20
853.4789282099898
 30
0.0
 11
891.9442683531853
 21
859.7989282099897
 31
0.0
  0
LINE
  5
A9E
330
11C
100
AcDbEntity
  8
1
  6
Continuous
 62
     7
100
AcDbLine
 10
891.9442683531853
 20
796.5989282099894
 30
0.0
 11
828.7485090359096
 21
799.7587161758525
 31
0.0
  0
LINE
  5
A9F
330
11C
100
AcDbEntity
  8
1
  6
Continuous
 62
     7
100
AcDbLine
 10
828.7485090359096
 20
812.3987161758527
 30
0.0
 11
891.9442683531853
 21
809.2389282099897
 31
0.0
  0
LINE
  5
AA0
330
11C
100
AcDbEntity
  8
1
  6
Continuous
 62
     7
100
AcDbLine
 10
891.9442683531853
 20
821.8789282099896
 30
0.0
 11
828.7485090359096
 21
825.0387161758521
 31
0.0
  0
LINE
  5
AA1
330
11C
100
AcDbEntity
  8
1
  6
Continuous
 62
     7
100
AcDbLine
 10
828.7485090359096
 20
837.6787161758525
 30
0.0
 11
891.9442683531853
 21
834.5189282099893
 31
0.0
  0
LINE
  5
AA2
330
11C
100
AcDbEntity
  8
1
  6
Continuous
 62
     7
100
AcDbLine
 10
891.9442683531853
 20
847.1589282099895
 30
0.0
 11
828.7485090359096
 21
850.3187161758519
 31
0.0
  0
LINE
  5
AA3
330
11C
100
AcDbEntity
  8
1
  6
Continuous
 62
     7
100
AcDbLine
 10
891.9442683531853
 20
796.5989282099894
 30
0.0
 11
898.2642683531855
 21
802.9189282099899
 31
0.0
  0
LINE
  5
AA4
330
11C
100
AcDbEntity
  8
1
  6
Continuous
 62
     7
100
AcDbLine
 10
898.2642683531851
 20
828.1989282099896
 30
0.0
 11
891.9442683531853
 21
834.5189282099893
 31
0.0
  0
LINE
  5
AA5
330
11C
100
AcDbEntity
  8
1
  6
Continuous
 62
     7
100
AcDbLine
 10
891.9442683531853
 20
809.2389282099897
 30
0.0
 11
898.2642683531855
 21
815.5589282099898
 31
0.0
  0
LINE
  5
AA6
330
11C
100
AcDbEntity
  8
1
  6
Continuous
 62
     7
100
AcDbLine
 10
898.2642683531855
 20
802.9189282099899
 30
0.0
 11
891.9442683531853
 21
809.2389282099897
 31
0.0
  0
LINE
  5
AA7
330
11C
100
AcDbEntity
  8
1
  6
Continuous
 62
     7
100
AcDbLine
 10
898.2642683531855
 20
815.5589282099898
 30
0.0
 11
891.9442683531853
 21
821.8789282099896
 31
0.0
  0
LINE
  5
AA8
330
11C
100
AcDbEntity
  8
1
  6
Continuous
 62
     7
100
AcDbLine
 10
891.9442683531853
 20
821.8789282099896
 30
0.0
 11
898.2642683531851
 21
828.1989282099896
 31
0.0
  0
LINE
  5
AA9
330
11C
100
AcDbEntity
  8
1
  6
Continuous
 62
     7
100
AcDbLine
 10
891.9442683531853
 20
847.1589282099895
 30
0.0
 11
898.2642683531851
 21
853.4789282099898
 31
0.0
  0
LINE
  5
AAA
330
11C
100
AcDbEntity
  8
1
  6
Continuous
 62
     7
100
AcDbLine
 10
898.2642683531851
 20
840.83892820999
 30
0.0
 11
891.9442683531853
 21
847.1589282099895
 31
0.0
  0
LINE
  5
AAB
330
11C
100
AcDbEntity
  8
1
  6
Continuous
 62
     7
100
AcDbLine
 10
891.9442683531853
 20
834.5189282099893
 30
0.0
 11
898.2642683531851
 21
840.83892820999
 31
0.0
  0
LINE
  5
AAC
330
11C
100
AcDbEntity
  8
1
  6
Continuous
 62
     7
100
AcDbLine
 10
828.7485090359096
 20
862.9587161758522
 30
0.0
 11
891.9442683531853
 21
859.7989282099897
 31
0.0
  0
LINE
  5
AAD
330
11C
100
AcDbEntity
  8
1
  6
Continuous
 62
     7
100
AcDbLine
 10
898.2642683531846
 20
866.1189282099895
 30
0.0
 11
893.4619402772542
 21
870.9212562859198
 31
0.0
  0
LINE
  5
AAE
330
11C
100
AcDbEntity
  8
1
  6
Continuous
 62
     7
100
AcDbLine
 10
891.9442683531853
 20
859.7989282099897
 30
0.0
 11
898.2642683531846
 21
866.1189282099895
 31
0.0
  0
LINE
  5
AAF
330
11C
100
AcDbEntity
  8
1
  6
Continuous
 62
     7
100
AcDbLine
 10
891.9442683531853
 20
783.9589282099892
 30
0.0
 11
828.7485090359096
 21
787.1187161758528
 31
0.0
  0
LINE
  5
AB0
330
11C
100
AcDbEntity
  8
1
  6
Continuous
 62
     7
100
AcDbLine
 10
828.7485090359096
 20
799.7587161758527
 30
0.0
 11
891.9442683531853
 21
796.5989282099899
 31
0.0
  0
LINE
  5
AB1
330
11C
100
AcDbEntity
  8
1
  6
Continuous
 62
     7
100
AcDbLine
 10
891.9442683531853
 20
783.9589282099892
 30
0.0
 11
898.2642683531855
 21
790.2789282099899
 31
0.0
  0
LINE
  5
AB2
330
11C
100
AcDbEntity
  8
1
  6
Continuous
 62
     7
100
AcDbLine
 10
898.2642683531855
 20
790.2789282099899
 30
0.0
 11
891.9442683531853
 21
796.5989282099899
 31
0.0
  0
LINE
  5
AB3
330
11C
100
AcDbEntity
  8
1
  6
Continuous
 62
     7
100
AcDbLine
 10
891.9442683531853
 20
796.5989282099899
 30
0.0
 11
898.2642683531855
 21
802.9189282099899
 31
0.0
  0
LINE
  5
AB4
330
11C
100
AcDbEntity
  8
1
  6
Continuous
 62
     7
100
AcDbLine
 10
765.5442683531857
 20
870.7284762337447
 30
0.0
 11
765.5442683531857
 21
845.3388082679376
 31
0.0
  0
LINE
  5
AB5
330
11C
100
AcDbEntity
  8
1
  6
Continuous
 62
     7
100
AcDbLine
 10
765.5442683531857
 20
825.0270726994981
 30
0.0
 11
765.5442683531857
 21
803.4458550282117
 31
0.0
  0
LINE
  5
AB6
330
11C
100
AcDbEntity
  8
1
  6
Continuous
 62
     3
100
AcDbLine
 10
947.7234783393184
 20
988.60433530789
 30
0.0
 11
709.7735239618944
 21
988.6043353078903
 31
0.0
  0
LINE
  5
AB7
330
11C
100
AcDbEntity
  8
1
  6
Continuous
 62
     3
100
AcDbLine
 10
686.0610239618937
 20
997.60433530789
 30
0.0
 11
686.0610239618948
 21
784.2104260411304
 31
0.0
  0
LINE
  5
AB8
330
11C
100
AcDbEntity
  8
1
  6
Continuous
 62
     3
100
AcDbLine
 10
971.4359783393186
 20
997.60433530789
 30
0.0
 11
971.4359783393195
 21
784.2104260411304
 31
0.0
  0
LINE
  5
AB9
330
11C
100
AcDbEntity
  8
1
  6
Continuous
 62
     7
100
AcDbLine
 10
891.9527497186335
 20
726.3759495311476
 30
0.0
 11
891.9527497186335
 21
783.9589282099892
 31
0.0
  0
LINE
  5
ABA
330
11C
100
AcDbEntity
  8
1
  6
Continuous
 62
     7
100
AcDbLine
 10
891.9527497186335
 20
726.3759495311476
 30
0.0
 11
831.5618625013524
 21
726.3759495311476
 31
0.0
  0
LINE
  5
ABB
330
11C
100
AcDbEntity
  8
1
  6
Continuous
 62
     7
100
AcDbLine
 10
760.5442683531857
 20
687.6766874769409
 30
0.0
 11
764.0923534048115
 21
715.1383421176372
 31
0.0
  0
LINE
  5
ABC
330
11C
100
AcDbEntity
  8
1
  6
Continuous
 62
     7
100
AcDbLine
 10
760.4262338383452
 20
630.7125086975522
 30
0.0
 11
506.8780286834182
 21
630.7125086975522
 31
0.0
  0
LINE
  5
ABD
330
11C
100
AcDbEntity
  8
1
  6
Continuous
 62
     7
100
AcDbLine
 10
1170.992608299699
 20
248.821997406892
 30
0.0
 11
507.123531851311
 21
248.8219974068916
 31
0.0
  0
LINE
  5
ABE
330
11C
100
AcDbEntity
  8
1
  6
Continuous
 62
     7
100
AcDbLine
 10
897.1085076738994
 20
669.3054862704472
 30
0.0
 11
1170.992606937687
 21
669.3054862704472
 31
0.0
  0
LINE
  5
ABF
330
11C
100
AcDbEntity
  8
1
  6
Continuous
 62
     7
100
AcDbLine
 10
1170.992606937687
 20
669.3054862704472
 30
0.0
 11
1170.992606937687
 21
630.2153671374481
 31
0.0
  0
LINE
  5
AC0
330
11C
100
AcDbEntity
  8
1
  6
Continuous
 62
     7
100
AcDbLine
 10
1170.992606937687
 20
630.2153671374481
 30
0.0
 11
897.1085076738994
 21
630.2153671374481
 31
0.0
  0
LINE
  5
AC1
330
11C
100
AcDbEntity
  8
1
  6
Continuous
 62
     7
100
AcDbLine
 10
897.1085076738994
 20
630.2153671374481
 30
0.0
 11
897.1085076738994
 21
669.3054862704472
 31
0.0
  0
LINE
  5
AC2
330
11C
100
AcDbEntity
  8
1
  6
Continuous
 62
     3
100
AcDbLine
 10
709.7735239618939
 20
995.16058530789
 30
0.0
 11
709.7735239618939
 21
982.0480853078892
 31
0.0
  0
LINE
  5
AC3
330
11C
100
AcDbEntity
  8
-1
  6
Continuous
 62
     3
100
AcDbLine
 10
686.0610239618937
 20
988.6043353078898
 30
0.0
 11
709.7735239618939
 21
982.0480853078892
 31
0.0
  0
LINE
  5
AC4
330
11C
100
AcDbEntity
  8
-1
  6
Continuous
 62
     3
100
AcDbLine
 10
686.0610239618937
 20
988.6043353078898
 30
0.0
 11
709.7735239618939
 21
995.16058530789
 31
0.0
  0
LINE
  5
AC5
330
11C
100
AcDbEntity
  8
-1
  6
Continuous
 62
     3
100
AcDbLine
 10
709.7735239618939
 20
995.16058530789
 30
0.0
 11
709.7735239618939
 21
982.0480853078892
 31
0.0
  0
LINE
  5
AC6
330
11C
100
AcDbEntity
  8
1
  6
Continuous
 62
     3
100
AcDbLine
 10
784.1210090359107
 20
489.890937731071
 30
0.0
 11
784.1210090359107
 21
476.7784377310704
 31
0.0
  0
LINE
  5
AC7
330
11C
100
AcDbEntity
  8
-1
  6
Continuous
 62
     3
100
AcDbLine
 10
760.4085090359108
 20
483.3346877310709
 30
0.0
 11
784.1210090359107
 21
476.7784377310704
 31
0.0
  0
LINE
  5
AC8
330
11C
100
AcDbEntity
  8
-1
  6
Continuous
 62
     3
100
AcDbLine
 10
760.4085090359108
 20
483.3346877310709
 30
0.0
 11
784.1210090359107
 21
489.890937731071
 31
0.0
  0
LINE
  5
AC9
330
11C
100
AcDbEntity
  8
-1
  6
Continuous
 62
     3
100
AcDbLine
 10
784.1210090359107
 20
489.890937731071
 30
0.0
 11
784.1210090359107
 21
476.7784377310704
 31
0.0
  0
LINE
  5
ACA
330
11C
100
AcDbEntity
  8
1
  6
Continuous
 62
     3
100
AcDbLine
 10
873.3960090359108
 20
489.890937731071
 30
0.0
 11
873.3960090359108
 21
476.7784377310704
 31
0.0
  0
LINE
  5
ACB
330
11C
100
AcDbEntity
  8
-1
  6
Continuous
 62
     3
100
AcDbLine
 10
897.1085090359109
 20
483.3346877310709
 30
0.0
 11
873.3960090359108
 21
476.7784377310704
 31
0.0
  0
LINE
  5
ACC
330
11C
100
AcDbEntity
  8
-1
  6
Continuous
 62
     3
100
AcDbLine
 10
897.1085090359109
 20
483.3346877310709
 30
0.0
 11
873.3960090359108
 21
489.890937731071
 31
0.0
  0
LINE
  5
ACD
330
11C
100
AcDbEntity
  8
-1
  6
Continuous
 62
     3
100
AcDbLine
 10
873.3960090359108
 20
489.890937731071
 30
0.0
 11
873.3960090359108
 21
476.7784377310704
 31
0.0
  0
LINE
  5
ACE
330
11C
100
AcDbEntity
  8
1
  6
Continuous
 62
     3
100
AcDbLine
 10
947.7234783393184
 20
995.1605853078895
 30
0.0
 11
947.7234783393184
 21
982.0480853078887
 31
0.0
  0
LINE
  5
ACF
330
11C
100
AcDbEntity
  8
-1
  6
Continuous
 62
     3
100
AcDbLine
 10
971.4359783393186
 20
988.6043353078894
 30
0.0
 11
947.7234783393184
 21
982.0480853078887
 31
0.0
  0
LINE
  5
AD0
330
11C
100
AcDbEntity
  8
-1
  6
Continuous
 62
     3
100
AcDbLine
 10
971.4359783393186
 20
988.6043353078894
 30
0.0
 11
947.7234783393184
 21
995.1605853078895
 31
0.0
  0
LINE
  5
AD1
330
11C
100
AcDbEntity
  8
-1
  6
Continuous
 62
     3
100
AcDbLine
 10
947.7234783393184
 20
995.1605853078895
 30
0.0
 11
947.7234783393184
 21
982.0480853078887
 31
0.0
  0
LINE
  5
AD2
330
11C
100
AcDbEntity
  8
1
  6
Continuous
 62
     3
100
AcDbLine
 10
1355.677678404641
 20
870.9212562859198
 30
0.0
 11
1362.23392840464
 21
847.2087562859197
 31
0.0
  0
LINE
  5
AD3
330
11C
100
AcDbEntity
  8
1
  6
Continuous
 62
     3
100
AcDbLine
 10
1355.677678404641
 20
870.9212562859198
 30
0.0
 11
1349.121428404639
 21
847.2087562859197
 31
0.0
  0
LINE
  5
AD4
330
11C
100
AcDbEntity
  8
1
  6
Continuous
 62
     3
100
AcDbLine
 10
1349.121428404639
 20
847.2087562859197
 30
0.0
 11
1362.23392840464
 21
847.2087562859197
 31
0.0
  0
LINE
  5
AD5
330
11C
100
AcDbEntity
  8
1
  6
Continuous
 62
     3
100
AcDbLine
 10
1355.677678404641
 20
460.1152512082935
 30
0.0
 11
1362.23392840464
 21
483.8277512082935
 31
0.0
  0
LINE
  5
AD6
330
11C
100
AcDbEntity
  8
1
  6
Continuous
 62
     3
100
AcDbLine
 10
1355.677678404641
 20
460.1152512082935
 30
0.0
 11
1349.121428404639
 21
483.8277512082935
 31
0.0
  0
LINE
  5
AD7
330
11C
100
AcDbEntity
  8
1
  6
Continuous
 62
     3
100
AcDbLine
 10
1349.121428404639
 20
483.8277512082935
 30
0.0
 11
1362.23392840464
 21
483.8277512082935
 31
0.0
  0
LINE
  5
AE8
330
11C
100
AcDbEntity
  8
-1
  6
Continuous
 62
     5
100
AcDbLine
 10
1357.680840887905
 20
674.7690928919781
 30
0.0
 11
1364.680840887904
 21
674.7690928919781
 31
0.0
  0
LINE
  5
AEE
330
11C
100
AcDbEntity
  8
-1
  6
Continuous
 62
     5
100
AcDbLine
 10
824.9993891531351
 20
1018.377348850312
 30
0.0
 11
834.9993891531351
 21
1018.377348850312
 31
0.0
  0
LINE
  5
AF4
330
11C
100
AcDbEntity
  8
-1
  6
Continuous
 62
     5
100
AcDbLine
 10
829.6448747264559
 20
519.9906018581969
 30
0.0
 11
840.644874726456
 21
519.9906018581969
 31
0.0
  0
ENDSEC
  0
SECTION
  2
OBJECTS
  0
DICTIONARY
  5
10A
330
0
100
AcDbDictionary
281
     1
  3
ACAD_COLOR
350
592
  3
ACAD_GROUP
350
10B
  3
ACAD_LAYOUT
350
117
  3
ACAD_MATERIAL
350
565
  3
ACAD_MLEADERSTYLE
350
5B7
  3
ACAD_MLINESTYLE
350
114
  3
ACAD_PLOTSETTINGS
350
116
  3
ACAD_PLOTSTYLENAME
350
10C
  3
ACAD_SCALELIST
350
595
  3
ACAD_TABLESTYLE
350
593
  3
ACAD_VISUALSTYLE
350
57E
  3
ACDB_RECOMPOSE_DATA
350
76E
  3
AcDbVariableDictionary
350
6FA
  3
DWGPROPS
350
AD8
  0
DICTIONARY
  5
6F2
330
10E
100
AcDbDictionary
280
     1
281
     1
  3
ADSK_XREC_LAYER_RECONCILED
360
6F3
  0
DICTIONARY
  5
6F4
330
127
100
AcDbDictionary
280
     1
281
     1
  3
ADSK_XREC_LAYER_RECONCILED
360
6F5
  0
DICTIONARY
  5
6F6
330
128
100
AcDbDictionary
280
     1
281
     1
  3
ADSK_XREC_LAYER_RECONCILED
360
6F7
  0
DICTIONARY
  5
6F8
330
129
100
AcDbDictionary
280
     1
281
     1
  3
ADSK_XREC_LAYER_RECONCILED
360
6F9
  0
DICTIONARY
  5
7A5
330
7A4
100
AcDbDictionary
280
     1
281
     1
  3
ADSK_XREC_LAYER_RECONCILED
360
7A6
  0
DICTIONARY
  5
7A8
330
7A7
100
AcDbDictionary
280
     1
281
     1
  0
DICTIONARY
  5
474
330
11C
100
AcDbDictionary
280
     1
281
     1
  3
ACAD_LAYOUTSELFREF
360
562
  3
ACAD_SORTENTS
360
5E7
  0
DICTIONARY
  5
472
330
118
100
AcDbDictionary
280
     1
281
     1
  3
ACAD_LAYOUTSELFREF
360
561
  0
DICTIONARY
  5
592
102
{ACAD_REACTORS
330
10A
102
}
330
10A
100
AcDbDictionary
281
     1
  0
DICTIONARY
  5
10B
102
{ACAD_REACTORS
330
10A
102
}
330
10A
100
AcDbDictionary
281
     1
  0
DICTIONARY
  5
117
102
{ACAD_REACTORS
330
10A
102
}
330
10A
100
AcDbDictionary
281
     1
  3
Layout1
350
5BA
  3
Model
350
5B9
  0
DICTIONARY
  5
565
102
{ACAD_REACTORS
330
10A
102
}
330
10A
100
AcDbDictionary
281
     1
  3
ByBlock
350
56E
  3
ByLayer
350
566
  3
Global
350
576
  0
DICTIONARY
  5
5B7
102
{ACAD_REACTORS
330
10A
102
}
330
10A
100
AcDbDictionary
281
     1
  3
Standard
350
5B8
  0
DICTIONARY
  5
114
102
{ACAD_REACTORS
330
10A
102
}
330
10A
100
AcDbDictionary
281
     1
  3
STANDARD
350
115
  0
DICTIONARY
  5
116
102
{ACAD_REACTORS
330
10A
102
}
330
10A
100
AcDbDictionary
281
     1
  0
ACDBDICTIONARYWDFLT
  5
10C
102
{ACAD_REACTORS
330
10A
102
}
330
10A
100
AcDbDictionary
281
     1
  3
Normal
350
10D
100
AcDbDictionaryWithDefault
340
10D
  0
DICTIONARY
  5
595
102
{ACAD_REACTORS
330
10A
102
}
330
10A
100
AcDbDictionary
281
     1
  3
A0
350
596
  3
A1
350
597
  3
A2
350
598
  3
A3
350
599
  3
A4
350
59A
  3
A5
350
59B
  3
A6
350
59C
  3
A7
350
59D
  3
A8
350
59E
  3
A9
350
59F
  3
B0
350
5A0
  3
B1
350
5A1
  3
B2
350
5A2
  3
B3
350
5A3
  3
B4
350
5A4
  3
B5
350
5A5
  3
B6
350
5A6
  3
B7
350
5A7
  3
B8
350
5A8
  3
B9
350
5A9
  3
C0
350
5AA
  3
C1
350
5AB
  3
C2
350
5AC
  3
C3
350
5AD
  3
C4
350
5AE
  3
C5
350
5AF
  3
C6
350
5B0
  3
C7
350
5B1
  3
C8
350
5B2
  3
C9
350
5B3
  3
D0
350
5B4
  3
D1
350
5B5
  3
D2
350
5B6
  0
DICTIONARY
  5
593
102
{ACAD_REACTORS
330
10A
102
}
330
10A
100
AcDbDictionary
281
     1
  3
Standard
350
594
  0
DICTIONARY
  5
57E
102
{ACAD_REACTORS
330
10A
102
}
330
10A
100
AcDbDictionary
281
     1
  3
2dWireframe
350
584
  3
3D Hidden
350
586
  3
3dWireframe
350
585
  3
Basic
350
583
  3
Brighten
350
58A
  3
ColorChange
350
58E
  3
Conceptual
350
587
  3
Dim
350
589
  3
EdgeColorOff
350
591
  3
Facepattern
350
58D
  3
Flat
350
57F
  3
FlatWithEdges
350
580
  3
Gouraud
350
581
  3
GouraudWithEdges
350
582
  3
JitterOff
350
58F
  3
Linepattern
350
58C
  3
OverhangOff
350
590
  3
Realistic
350
588
  3
Thicken
350
58B
  0
XRECORD
  5
76E
102
{ACAD_REACTORS
330
10A
102
}
330
10A
100
AcDbXrecord
280
     1
 90
        1
330
594
  0
DICTIONARY
  5
6FA
102
{ACAD_REACTORS
330
10A
102
}
330
10A
100
AcDbDictionary
281
     1
  3
CANNOSCALE
350
6FD
  3
CMLEADERSTYLE
350
6FC
  3
CTABLESTYLE
350
6FB
  3
DIMASSOC
350
700
  3
INDEXCTL
350
6FF
  3
SORTENTS
350
6FE
  3
XCLIPFRAME
350
701
  0
XRECORD
  5
AD8
102
{ACAD_REACTORS
330
10A
102
}
330
10A
100
AcDbXrecord
280
     1
  1
DWGPROPS COOKIE
  2

  3

  4

  6

  7

  8
Horia
  9

300
=
301
=
302
=
303
=
304
=
305
=
306
=
307
=
308
=
309
=
 40
0.0216231944444445
 41
2453375.552094907
 42
2456342.893321609
  1

 90
        0
  0
XRECORD
  5
6F3
102
{ACAD_REACTORS
330
6F2
102
}
330
6F2
100
AcDbXrecord
280
     1
290
     1
  0
XRECORD
  5
6F5
102
{ACAD_REACTORS
330
6F4
102
}
330
6F4
100
AcDbXrecord
280
     1
290
     1
  0
XRECORD
  5
6F7
102
{ACAD_REACTORS
330
6F6
102
}
330
6F6
100
AcDbXrecord
280
     1
290
     1
  0
XRECORD
  5
6F9
102
{ACAD_REACTORS
330
6F8
102
}
330
6F8
100
AcDbXrecord
280
     1
290
     1
  0
XRECORD
  5
7A6
102
{ACAD_REACTORS
330
7A5
102
}
330
7A5
100
AcDbXrecord
280
     1
290
     1
  0
XRECORD
  5
562
102
{ACAD_REACTORS
330
474
102
}
330
474
100
AcDbXrecord
280
     1
340
11C
  0
SORTENTSTABLE
  5
5E7
102
{ACAD_REACTORS
330
474
102
}
330
474
100
AcDbSortentsTable
330
11C
331
67D
  5
67C
331
62A
  5
2F4
331
65F
  5
42A
331
66A
  5
4EB
331
64C
  5
3AD
331
616
  5
2C7
331
63E
  5
31E
331
620
  5
2DD
331
688
  5
687
331
67E
  5
67D
331
62B
  5
2FD
331
689
  5
688
331
66B
  5
4EC
331
64D
  5
3AE
331
63F
  5
320
331
621
  5
2DE
331
617
  5
2C8
331
67F
  5
67E
331
62C
  5
2FE
331
66C
  5
518
331
64E
  5
3AF
331
618
  5
2CE
331
2E4
  5
62C
331
622
  5
2DF
331
68A
  5
689
331
62D
  5
2FF
331
68B
  5
68A
331
66D
  5
53F
331
64F
  5
3B0
331
619
  5
2CF
331
2E5
  5
62D
331
623
  5
2E4
331
403
  5
666
331
62E
  5
300
331
3A8
  5
652
331
68C
  5
68B
331
66E
  5
5E1
331
650
  5
3B1
331
61A
  5
2D0
331
2E6
  5
62E
331
624
  5
2E5
331
3A9
  5
653
331
62F
  5
301
331
68D
  5
68C
331
66F
  5
5E2
331
651
  5
3B2
331
2E7
  5
62F
331
625
  5
2E6
331
61B
  5
2D1
331
630
  5
302
331
608
  5
299
331
68E
  5
68D
331
670
  5
5E8
331
652
  5
3B3
331
61C
  5
2D5
331
626
  5
2E7
331
3A0
  5
64A
331
609
  5
29A
331
631
  5
303
331
68F
  5
68E
331
671
  5
607
331
653
  5
3B4
331
627
  5
2E8
331
61D
  5
2D8
331
640
  5
39F
331
632
  5
306
331
60A
  5
29B
331
690
  5
68F
331
672
  5
608
331
654
  5
3C3
331
61E
  5
2DB
331
641
  5
3A0
331
60B
  5
29F
331
29F
  5
614
331
633
  5
30B
331
691
  5
690
331
673
  5
609
331
61F
  5
2DC
331
655
  5
3C7
331
660
  5
48A
331
642
  5
3A1
331
634
  5
30D
331
60C
  5
2A0
331
692
  5
691
331
674
  5
60A
331
656
  5
3C8
331
661
  5
48B
331
643
  5
3A2
331
60D
  5
2A1
331
635
  5
310
331
693
  5
692
331
675
  5
60B
331
657
  5
3D3
331
680
  5
67F
331
662
  5
48C
331
60E
  5
2A4
331
636
  5
311
331
644
  5
3A3
331
694
  5
693
331
676
  5
60C
331
658
  5
3D4
331
3A6
  5
650
331
681
  5
680
331
663
  5
48D
331
645
  5
3A4
331
637
  5
312
331
60F
  5
2A5
331
695
  5
694
331
659
  5
3D5
331
3A7
  5
651
331
677
  5
60D
331
682
  5
681
331
664
  5
48E
331
610
  5
2A6
331
638
  5
313
331
646
  5
3A5
331
678
  5
60E
331
65A
  5
3D9
331
683
  5
682
331
665
  5
48F
331
647
  5
3A6
331
611
  5
2C2
331
639
  5
319
331
3D3
  5
660
331
65B
  5
3DC
331
607
  5
298
331
679
  5
678
331
684
  5
683
331
648
  5
3A7
331
612
  5
2C3
331
63A
  5
31A
331
666
  5
490
331
67A
  5
679
331
65C
  5
3DD
331
685
  5
684
331
667
  5
491
331
649
  5
3A8
331
613
  5
2C4
331
63B
  5
31B
331
2DF
  5
62B
331
67B
  5
67A
331
628
  5
2E9
331
65D
  5
403
331
686
  5
685
331
64A
  5
3A9
331
614
  5
2C5
331
63C
  5
31C
331
668
  5
492
331
67C
  5
67B
331
629
  5
2EA
331
65E
  5
429
331
687
  5
686
331
669
  5
4E0
331
64B
  5
3AB
331
63D
  5
31D
331
615
  5
2C6
  0
XRECORD
  5
561
102
{ACAD_REACTORS
330
472
102
}
330
472
100
AcDbXrecord
280
     1
340
118
  0
LAYOUT
  5
5BA
102
{ACAD_XDICTIONARY
360
ADC
102
}
102
{ACAD_REACTORS
330
117
102
}
330
117
100
AcDbPlotSettings
  1

  2
Lexmark 3600-4600 Series
  4

  6

 40
0.0
 41
0.0
 42
0.0
 43
0.0
 44
0.0
 45
0.0
 46
0.0
 47
0.0
 48
0.0
 49
0.0
140
0.0
141
0.0
142
1.0
143
1.0
 70
   688
 72
     0
 73
     0
 74
     5
  7

 75
    16
147
1.0
148
0.0
149
0.0
100
AcDbLayout
  1
Layout1
 70
     0
 71
     1
 10
0.0
 20
0.0
 11
12.0
 21
9.0
 12
0.0
 22
0.0
 32
0.0
 14
-1.000000000000000E+20
 24
-1.000000000000000E+20
 34
-1.000000000000000E+20
 15
-1.000000000000000E+20
 25
-1.000000000000000E+20
 35
-1.000000000000000E+20
146
0.0
 13
0.0
 23
0.0
 33
0.0
 16
1.0
 26
0.0
 36
0.0
 17
0.0
 27
1.0
 37
0.0
 76
     0
330
118
  0
LAYOUT
  5
5B9
102
{ACAD_XDICTIONARY
360
ADA
102
}
102
{ACAD_REACTORS
330
117
102
}
330
117
100
AcDbPlotSettings
  1

  2
Lexmark 3600-4600 Series
  4

  6

 40
0.0
 41
0.0
 42
0.0
 43
0.0
 44
0.0
 45
0.0
 46
0.0
 47
0.0
 48
0.0
 49
0.0
140
0.0
141
0.0
142
1.0
143
1.0
 70
  1712
 72
     0
 73
     0
 74
     0
  7

 75
     0
147
1.0
148
0.0
149
0.0
100
AcDbLayout
  1
Model
 70
     1
 71
     0
 10
0.0
 20
0.0
 11
12.0
 21
9.0
 12
0.0
 22
0.0
 32
0.0
 14
0.0
 24
0.0
 34
0.0
 15
0.0
 25
0.0
 35
0.0
146
0.0
 13
0.0
 23
0.0
 33
0.0
 16
1.0
 26
0.0
 36
0.0
 17
0.0
 27
1.0
 37
0.0
 76
     0
330
11C
331
540
  0
MATERIAL
  5
56E
102
{ACAD_XDICTIONARY
360
56F
102
}
102
{ACAD_REACTORS
330
565
102
}
330
565
100
AcDbMaterial
  1
ByBlock
 72
     0
 43
0.0208333333333333
 43
0.0
 43
0.0
 43
0.0
 43
0.0
 43
0.0208333333333333
 43
0.0
 43
0.0
 43
0.0
 43
0.0
 43
1.0
 43
0.0
 43
0.0
 43
0.0
 43
0.0
 43
1.0
 77
     0
 47
0.0208333333333333
 47
0.0
 47
0.0
 47
0.0
 47
0.0
 47
0.0208333333333333
 47
0.0
 47
0.0
 47
0.0
 47
0.0
 47
1.0
 47
0.0
 47
0.0
 47
0.0
 47
0.0
 47
1.0
171
     0
 49
0.0208333333333333
 49
0.0
 49
0.0
 49
0.0
 49
0.0
 49
0.0208333333333333
 49
0.0
 49
0.0
 49
0.0
 49
0.0
 49
1.0
 49
0.0
 49
0.0
 49
0.0
 49
0.0
 49
1.0
175
     0
142
0.0208333333333333
142
0.0
142
0.0
142
0.0
142
0.0
142
0.0208333333333333
142
0.0
142
0.0
142
0.0
142
0.0
142
1.0
142
0.0
142
0.0
142
0.0
142
0.0
142
1.0
179
     0
144
0.0208333333333333
144
0.0
144
0.0
144
0.0
144
0.0
144
0.0208333333333333
144
0.0
144
0.0
144
0.0
144
0.0
144
1.0
144
0.0
144
0.0
144
0.0
144
0.0
144
1.0
147
0.0208333333333333
147
0.0
147
0.0
147
0.0
147
0.0
147
0.0208333333333333
147
0.0
147
0.0
147
0.0
147
0.0
147
1.0
147
0.0
147
0.0
147
0.0
147
0.0
147
1.0
  0
MATERIAL
  5
566
102
{ACAD_XDICTIONARY
360
567
102
}
102
{ACAD_REACTORS
330
565
102
}
330
565
100
AcDbMaterial
  1
ByLayer
 72
     0
 43
0.0208333333333333
 43
0.0
 43
0.0
 43
0.0
 43
0.0
 43
0.0208333333333333
 43
0.0
 43
0.0
 43
0.0
 43
0.0
 43
1.0
 43
0.0
 43
0.0
 43
0.0
 43
0.0
 43
1.0
 77
     0
 47
0.0208333333333333
 47
0.0
 47
0.0
 47
0.0
 47
0.0
 47
0.0208333333333333
 47
0.0
 47
0.0
 47
0.0
 47
0.0
 47
1.0
 47
0.0
 47
0.0
 47
0.0
 47
0.0
 47
1.0
171
     0
 49
0.0208333333333333
 49
0.0
 49
0.0
 49
0.0
 49
0.0
 49
0.0208333333333333
 49
0.0
 49
0.0
 49
0.0
 49
0.0
 49
1.0
 49
0.0
 49
0.0
 49
0.0
 49
0.0
 49
1.0
175
     0
142
0.0208333333333333
142
0.0
142
0.0
142
0.0
142
0.0
142
0.0208333333333333
142
0.0
142
0.0
142
0.0
142
0.0
142
1.0
142
0.0
142
0.0
142
0.0
142
0.0
142
1.0
179
     0
144
0.0208333333333333
144
0.0
144
0.0
144
0.0
144
0.0
144
0.0208333333333333
144
0.0
144
0.0
144
0.0
144
0.0
144
1.0
144
0.0
144
0.0
144
0.0
144
0.0
144
1.0
147
0.0208333333333333
147
0.0
147
0.0
147
0.0
147
0.0
147
0.0208333333333333
147
0.0
147
0.0
147
0.0
147
0.0
147
1.0
147
0.0
147
0.0
147
0.0
147
0.0
147
1.0
  0
MATERIAL
  5
576
102
{ACAD_XDICTIONARY
360
577
102
}
102
{ACAD_REACTORS
330
565
102
}
330
565
100
AcDbMaterial
  1
Global
 72
     0
 43
0.0208333333333333
 43
0.0
 43
0.0
 43
0.0
 43
0.0
 43
0.0208333333333333
 43
0.0
 43
0.0
 43
0.0
 43
0.0
 43
1.0
 43
0.0
 43
0.0
 43
0.0
 43
0.0
 43
1.0
 77
     0
 47
0.0208333333333333
 47
0.0
 47
0.0
 47
0.0
 47
0.0
 47
0.0208333333333333
 47
0.0
 47
0.0
 47
0.0
 47
0.0
 47
1.0
 47
0.0
 47
0.0
 47
0.0
 47
0.0
 47
1.0
171
     0
 49
0.0208333333333333
 49
0.0
 49
0.0
 49
0.0
 49
0.0
 49
0.0208333333333333
 49
0.0
 49
0.0
 49
0.0
 49
0.0
 49
1.0
 49
0.0
 49
0.0
 49
0.0
 49
0.0
 49
1.0
175
     0
142
0.0208333333333333
142
0.0
142
0.0
142
0.0
142
0.0
142
0.0208333333333333
142
0.0
142
0.0
142
0.0
142
0.0
142
1.0
142
0.0
142
0.0
142
0.0
142
0.0
142
1.0
179
     0
144
0.0208333333333333
144
0.0
144
0.0
144
0.0
144
0.0
144
0.0208333333333333
144
0.0
144
0.0
144
0.0
144
0.0
144
1.0
144
0.0
144
0.0
144
0.0
144
0.0
144
1.0
147
0.0208333333333333
147
0.0
147
0.0
147
0.0
147
0.0
147
0.0208333333333333
147
0.0
147
0.0
147
0.0
147
0.0
147
1.0
147
0.0
147
0.0
147
0.0
147
0.0
147
1.0
  0
MLEADERSTYLE
  5
5B8
102
{ACAD_REACTORS
330
5B7
102
}
330
5B7
100
AcDbMLeaderStyle
170
     2
171
     1
172
     0
 90
        2
 40
0.0
 41
0.0
173
     1
 91
-1056964608
340
111
 92
       -2
290
     1
 42
0.09
291
     1
 43
0.36
  3
Standard
 44
0.18
300

342
10F
174
     1
178
     6
175
     1
176
     0
 93
-1056964608
 45
0.18
292
     0
297
     0
 46
0.18
 94
-1056964608
 47
1.0
 49
1.0
140
1.0
293
     1
141
0.0
294
     1
177
     0
142
1.0
295
     0
296
     0
143
0.125
1001
ACAD_MLEADERVER
1070
     2
1001
ACAD
1000
AcRTDxfName
1000
MLEADERSTYLE
  0
MLINESTYLE
  5
115
102
{ACAD_REACTORS
330
114
102
}
330
114
100
AcDbMlineStyle
  2
STANDARD
 70
     0
  3

 62
   256
 51
90.0
 52
90.0
 71
     2
 49
0.5
 62
   256
  6
BYLAYER
 49
-0.5
 62
   256
  6
BYLAYER
  0
ACDBPLACEHOLDER
  5
10D
102
{ACAD_REACTORS
330
10C
102
}
330
10C
  0
SCALE
  5
596
102
{ACAD_REACTORS
330
595
102
}
330
595
100
AcDbScale
 70
     0
300
1:1
140
1.0
141
1.0
290
     1
1001
ACAD
1000
AcRTDxfName
1000
SCALE
  0
SCALE
  5
597
102
{ACAD_REACTORS
330
595
102
}
330
595
100
AcDbScale
 70
     0
300
1:2
140
1.0
141
2.0
290
     0
1001
ACAD
1000
AcRTDxfName
1000
SCALE
  0
SCALE
  5
598
102
{ACAD_REACTORS
330
595
102
}
330
595
100
AcDbScale
 70
     0
300
1:4
140
1.0
141
4.0
290
     0
1001
ACAD
1000
AcRTDxfName
1000
SCALE
  0
SCALE
  5
599
102
{ACAD_REACTORS
330
595
102
}
330
595
100
AcDbScale
 70
     0
300
1:5
140
1.0
141
5.0
290
     0
1001
ACAD
1000
AcRTDxfName
1000
SCALE
  0
SCALE
  5
59A
102
{ACAD_REACTORS
330
595
102
}
330
595
100
AcDbScale
 70
     0
300
1:8
140
1.0
141
8.0
290
     0
1001
ACAD
1000
AcRTDxfName
1000
SCALE
  0
SCALE
  5
59B
102
{ACAD_REACTORS
330
595
102
}
330
595
100
AcDbScale
 70
     0
300
1:10
140
1.0
141
10.0
290
     0
1001
ACAD
1000
AcRTDxfName
1000
SCALE
  0
SCALE
  5
59C
102
{ACAD_REACTORS
330
595
102
}
330
595
100
AcDbScale
 70
     0
300
1:16
140
1.0
141
16.0
290
     0
1001
ACAD
1000
AcRTDxfName
1000
SCALE
  0
SCALE
  5
59D
102
{ACAD_REACTORS
330
595
102
}
330
595
100
AcDbScale
 70
     0
300
1:20
140
1.0
141
20.0
290
     0
1001
ACAD
1000
AcRTDxfName
1000
SCALE
  0
SCALE
  5
59E
102
{ACAD_REACTORS
330
595
102
}
330
595
100
AcDbScale
 70
     0
300
1:30
140
1.0
141
30.0
290
     0
1001
ACAD
1000
AcRTDxfName
1000
SCALE
  0
SCALE
  5
59F
102
{ACAD_REACTORS
330
595
102
}
330
595
100
AcDbScale
 70
     0
300
1:40
140
1.0
141
40.0
290
     0
1001
ACAD
1000
AcRTDxfName
1000
SCALE
  0
SCALE
  5
5A0
102
{ACAD_REACTORS
330
595
102
}
330
595
100
AcDbScale
 70
     0
300
1:50
140
1.0
141
50.0
290
     0
1001
ACAD
1000
AcRTDxfName
1000
SCALE
  0
SCALE
  5
5A1
102
{ACAD_REACTORS
330
595
102
}
330
595
100
AcDbScale
 70
     0
300
1:100
140
1.0
141
100.0
290
     0
1001
ACAD
1000
AcRTDxfName
1000
SCALE
  0
SCALE
  5
5A2
102
{ACAD_REACTORS
330
595
102
}
330
595
100
AcDbScale
 70
     0
300
2:1
140
2.0
141
1.0
290
     0
1001
ACAD
1000
AcRTDxfName
1000
SCALE
  0
SCALE
  5
5A3
102
{ACAD_REACTORS
330
595
102
}
330
595
100
AcDbScale
 70
     0
300
4:1
140
4.0
141
1.0
290
     0
1001
ACAD
1000
AcRTDxfName
1000
SCALE
  0
SCALE
  5
5A4
102
{ACAD_REACTORS
330
595
102
}
330
595
100
AcDbScale
 70
     0
300
8:1
140
8.0
141
1.0
290
     0
1001
ACAD
1000
AcRTDxfName
1000
SCALE
  0
SCALE
  5
5A5
102
{ACAD_REACTORS
330
595
102
}
330
595
100
AcDbScale
 70
     0
300
10:1
140
10.0
141
1.0
290
     0
1001
ACAD
1000
AcRTDxfName
1000
SCALE
  0
SCALE
  5
5A6
102
{ACAD_REACTORS
330
595
102
}
330
595
100
AcDbScale
 70
     0
300
100:1
140
100.0
141
1.0
290
     0
1001
ACAD
1000
AcRTDxfName
1000
SCALE
  0
SCALE
  5
5A7
102
{ACAD_REACTORS
330
595
102
}
330
595
100
AcDbScale
 70
     0
300
1/128" = 1'-0"
140
0.0078125
141
12.0
290
     0
1001
ACAD
1000
AcRTDxfName
1000
SCALE
  0
SCALE
  5
5A8
102
{ACAD_REACTORS
330
595
102
}
330
595
100
AcDbScale
 70
     0
300
1/64" = 1'-0"
140
0.015625
141
12.0
290
     0
1001
ACAD
1000
AcRTDxfName
1000
SCALE
  0
SCALE
  5
5A9
102
{ACAD_REACTORS
330
595
102
}
330
595
100
AcDbScale
 70
     0
300
1/32" = 1'-0"
140
0.03125
141
12.0
290
     0
1001
ACAD
1000
AcRTDxfName
1000
SCALE
  0
SCALE
  5
5AA
102
{ACAD_REACTORS
330
595
102
}
330
595
100
AcDbScale
 70
     0
300
1/16" = 1'-0"
140
0.0625
141
12.0
290
     0
1001
ACAD
1000
AcRTDxfName
1000
SCALE
  0
SCALE
  5
5AB
102
{ACAD_REACTORS
330
595
102
}
330
595
100
AcDbScale
 70
     0
300
3/32" = 1'-0"
140
0.09375
141
12.0
290
     0
1001
ACAD
1000
AcRTDxfName
1000
SCALE
  0
SCALE
  5
5AC
102
{ACAD_REACTORS
330
595
102
}
330
595
100
AcDbScale
 70
     0
300
1/8" = 1'-0"
140
0.125
141
12.0
290
     0
1001
ACAD
1000
AcRTDxfName
1000
SCALE
  0
SCALE
  5
5AD
102
{ACAD_REACTORS
330
595
102
}
330
595
100
AcDbScale
 70
     0
300
3/16" = 1'-0"
140
0.1875
141
12.0
290
     0
1001
ACAD
1000
AcRTDxfName
1000
SCALE
  0
SCALE
  5
5AE
102
{ACAD_REACTORS
330
595
102
}
330
595
100
AcDbScale
 70
     0
300
1/4" = 1'-0"
140
0.25
141
12.0
290
     0
1001
ACAD
1000
AcRTDxfName
1000
SCALE
  0
SCALE
  5
5AF
102
{ACAD_REACTORS
330
595
102
}
330
595
100
AcDbScale
 70
     0
300
3/8" = 1'-0"
140
0.375
141
12.0
290
     0
1001
ACAD
1000
AcRTDxfName
1000
SCALE
  0
SCALE
  5
5B0
102
{ACAD_REACTORS
330
595
102
}
330
595
100
AcDbScale
 70
     0
300
1/2" = 1'-0"
140
0.5
141
12.0
290
     0
1001
ACAD
1000
AcRTDxfName
1000
SCALE
  0
SCALE
  5
5B1
102
{ACAD_REACTORS
330
595
102
}
330
595
100
AcDbScale
 70
     0
300
3/4" = 1'-0"
140
0.75
141
12.0
290
     0
1001
ACAD
1000
AcRTDxfName
1000
SCALE
  0
SCALE
  5
5B2
102
{ACAD_REACTORS
330
595
102
}
330
595
100
AcDbScale
 70
     0
300
1" = 1'-0"
140
1.0
141
12.0
290
     0
1001
ACAD
1000
AcRTDxfName
1000
SCALE
  0
SCALE
  5
5B3
102
{ACAD_REACTORS
330
595
102
}
330
595
100
AcDbScale
 70
     0
300
1-1/2" = 1'-0"
140
1.5
141
12.0
290
     0
1001
ACAD
1000
AcRTDxfName
1000
SCALE
  0
SCALE
  5
5B4
102
{ACAD_REACTORS
330
595
102
}
330
595
100
AcDbScale
 70
     0
300
3" = 1'-0"
140
3.0
141
12.0
290
     0
1001
ACAD
1000
AcRTDxfName
1000
SCALE
  0
SCALE
  5
5B5
102
{ACAD_REACTORS
330
595
102
}
330
595
100
AcDbScale
 70
     0
300
6" = 1'-0"
140
6.0
141
12.0
290
     0
1001
ACAD
1000
AcRTDxfName
1000
SCALE
  0
SCALE
  5
5B6
102
{ACAD_REACTORS
330
595
102
}
330
595
100
AcDbScale
 70
     0
300
1'-0" = 1'-0"
140
12.0
141
12.0
290
     0
1001
ACAD
1000
AcRTDxfName
1000
SCALE
  0
TABLESTYLE
  5
594
102
{ACAD_XDICTIONARY
360
76C
102
}
102
{ACAD_REACTORS
330
593
102
}
330
593
100
AcDbTableStyle
  3
Standard
 70
     0
 71
     0
 40
0.06
 41
0.06
280
     0
281
     0
  7
STANDARD
140
0.18
170
     2
 62
     0
 63
     7
283
     0
274
    -2
284
     1
 64
     0
275
    -2
285
     1
 65
     0
276
    -2
286
     1
 66
     0
277
    -2
287
     1
 67
     0
278
    -2
288
     1
 68
     0
279
    -2
289
     1
 69
     0
  7
STANDARD
140
0.25
170
     5
 62
     0
 63
     7
283
     0
274
    -2
284
     1
 64
     0
275
    -2
285
     1
 65
     0
276
    -2
286
     1
 66
     0
277
    -2
287
     1
 67
     0
278
    -2
288
     1
 68
     0
279
    -2
289
     1
 69
     0
  7
STANDARD
140
0.18
170
     5
 62
     0
 63
     7
283
     0
274
    -2
284
     1
 64
     0
275
    -2
285
     1
 65
     0
276
    -2
286
     1
 66
     0
277
    -2
287
     1
 67
     0
278
    -2
288
     1
 68
     0
279
    -2
289
     1
 69
     0
  0
VISUALSTYLE
  5
584
102
{ACAD_XDICTIONARY
360
77D
102
}
102
{ACAD_REACTORS
330
57E
102
}
330
57E
100
AcDbVisualStyle
  2
2dWireframe
 70
     4
 71
     0
 72
     2
 73
     0
 90
        0
 40
-0.6
 41
-30.0
 62
     5
 63
     7
 74
     1
 91
        4
 64
     7
 65
   257
 75
     1
175
     1
 42
1.0
 92
        0
 66
   257
 43
1.0
 76
     1
 77
     6
 78
     2
 67
     7
 79
     5
170
     0
171
     0
290
     0
174
     0
 93
        1
 44
0.0
173
     0
291
     0
 45
0.0
1001
ACAD
1000
AcDbSavedByObjectVersion
1070
     0
1000
AcDbSavedByObjectVersion
1070
     0
  0
VISUALSTYLE
  5
586
102
{ACAD_XDICTIONARY
360
781
102
}
102
{ACAD_REACTORS
330
57E
102
}
330
57E
100
AcDbVisualStyle
  2
3D Hidden
 70
     6
 71
     1
 72
     2
 73
     2
 90
        0
 40
-0.6
 41
-30.0
 62
     5
 63
     7
 74
     2
 91
        2
 64
     7
 65
   257
 75
     2
175
     1
 42
179.0
 92
        0
 66
   257
 43
1.0
 76
     1
 77
     6
 78
     2
 67
     7
 79
     3
170
     0
171
     0
290
     0
174
     0
 93
        1
 44
0.0
173
     0
291
     0
 45
0.0
1001
ACAD
1000
AcDbSavedByObjectVersion
1070
     0
1000
AcDbSavedByObjectVersion
1070
     0
  0
VISUALSTYLE
  5
585
102
{ACAD_XDICTIONARY
360
77F
102
}
102
{ACAD_REACTORS
330
57E
102
}
330
57E
100
AcDbVisualStyle
  2
3dWireframe
 70
     5
 71
     0
 72
     2
 73
     0
 90
        0
 40
-0.6
 41
-30.0
 62
     5
 63
     7
 74
     1
 91
        4
 64
     7
 65
   257
 75
     1
175
     1
 42
1.0
 92
        0
 66
   257
 43
1.0
 76
     1
 77
     6
 78
     2
 67
     7
 79
     5
170
     0
171
     0
290
     0
174
     0
 93
        1
 44
0.0
173
     0
291
     0
 45
0.0
1001
ACAD
1000
AcDbSavedByObjectVersion
1070
     0
1000
AcDbSavedByObjectVersion
1070
     0
  0
VISUALSTYLE
  5
583
102
{ACAD_XDICTIONARY
360
77B
102
}
102
{ACAD_REACTORS
330
57E
102
}
330
57E
100
AcDbVisualStyle
  2
Basic
 70
     7
 71
     1
 72
     0
 73
     1
 90
        0
 40
-0.6
 41
-30.0
 62
     5
 63
     7
 74
     0
 91
        4
 64
     7
 65
   257
 75
     1
175
     1
 42
1.0
 92
        8
 66
     7
 43
1.0
 76
     1
 77
     6
 78
     2
 67
     7
 79
     5
170
     0
171
     0
290
     0
174
     0
 93
        1
 44
0.0
173
     0
291
     1
 45
0.0
1001
ACAD
1000
AcDbSavedByObjectVersion
1070
     0
1000
AcDbSavedByObjectVersion
1070
     0
  0
VISUALSTYLE
  5
58A
102
{ACAD_XDICTIONARY
360
789
102
}
102
{ACAD_REACTORS
330
57E
102
}
330
57E
100
AcDbVisualStyle
  2
Brighten
 70
    12
 71
     2
 72
     2
 73
     0
 90
        0
 40
-0.6
 41
-30.0
 62
     5
 63
     7
 74
     1
 91
        4
 64
     7
 65
   257
 75
     1
175
     1
 42
1.0
 92
        8
 66
     7
 43
1.0
 76
     1
 77
     6
 78
     2
 67
     7
 79
     5
170
     0
171
     0
290
     0
174
     0
 93
        1
 44
50.0
173
     0
291
     1
 45
0.0
1001
ACAD
1000
AcDbSavedByObjectVersion
1070
     0
1000
AcDbSavedByObjectVersion
1070
     0
  0
VISUALSTYLE
  5
58E
102
{ACAD_XDICTIONARY
360
791
102
}
102
{ACAD_REACTORS
330
57E
102
}
330
57E
100
AcDbVisualStyle
  2
ColorChange
 70
    16
 71
     2
 72
     2
 73
     3
 90
        0
 40
-0.6
 41
-30.0
 62
     5
 63
     8
 74
     1
 91
        4
 64
     7
 65
   257
 75
     1
175
     1
 42
1.0
 92
        8
 66
     8
 43
1.0
 76
     1
 77
     6
 78
     2
 67
     7
 79
     5
170
     0
171
     0
290
     0
174
     0
 93
        1
 44
0.0
173
     0
291
     1
 45
0.0
1001
ACAD
1000
AcDbSavedByObjectVersion
1070
     0
1000
AcDbSavedByObjectVersion
1070
     0
  0
VISUALSTYLE
  5
587
102
{ACAD_XDICTIONARY
360
783
102
}
102
{ACAD_REACTORS
330
57E
102
}
330
57E
100
AcDbVisualStyle
  2
Conceptual
 70
     9
 71
     3
 72
     2
 73
     0
 90
        0
 40
-0.6
 41
-30.0
 62
     5
 63
     7
 74
     2
 91
        2
 64
     7
 65
   257
 75
     1
175
     1
 42
179.0
 92
        8
 66
     7
 43
1.0
 76
     1
 77
     6
 78
     2
 67
     7
 79
     3
170
     0
171
     0
290
     0
174
     0
 93
        1
 44
0.0
173
     0
291
     0
 45
0.0
1001
ACAD
1000
AcDbSavedByObjectVersion
1070
     0
1000
AcDbSavedByObjectVersion
1070
     0
  0
VISUALSTYLE
  5
589
102
{ACAD_XDICTIONARY
360
787
102
}
102
{ACAD_REACTORS
330
57E
102
}
330
57E
100
AcDbVisualStyle
  2
Dim
 70
    11
 71
     2
 72
     2
 73
     0
 90
        0
 40
-0.6
 41
-30.0
 62
     5
 63
     7
 74
     1
 91
        4
 64
     7
 65
   257
 75
     1
175
     1
 42
1.0
 92
        8
 66
     7
 43
1.0
 76
     1
 77
     6
 78
     2
 67
     7
 79
     5
170
     0
171
     0
290
     0
174
     0
 93
        1
 44
-50.0
173
     0
291
     1
 45
0.0
1001
ACAD
1000
AcDbSavedByObjectVersion
1070
     0
1000
AcDbSavedByObjectVersion
1070
     0
  0
VISUALSTYLE
  5
591
102
{ACAD_XDICTIONARY
360
797
102
}
102
{ACAD_REACTORS
330
57E
102
}
330
57E
100
AcDbVisualStyle
  2
EdgeColorOff
 70
    22
 71
     2
 72
     2
 73
     0
 90
        0
 40
-0.6
 41
-30.0
 62
     5
 63
     7
 74
     1
 91
        4
 64
     7
 65
   257
 75
     1
175
     1
 42
1.0
 92
        8
 66
     7
 43
1.0
 76
     1
 77
     6
 78
     2
 67
     7
 79
     5
170
     0
171
     0
290
     0
174
     0
 93
        1
 44
0.0
173
     0
291
     1
 45
0.0
1001
ACAD
1000
AcDbSavedByObjectVersion
1070
     0
1000
AcDbSavedByObjectVersion
1070
     0
  0
VISUALSTYLE
  5
58D
102
{ACAD_XDICTIONARY
360
78F
102
}
102
{ACAD_REACTORS
330
57E
102
}
330
57E
100
AcDbVisualStyle
  2
Facepattern
 70
    15
 71
     2
 72
     2
 73
     0
 90
        0
 40
-0.6
 41
-30.0
 62
     5
 63
     7
 74
     1
 91
        4
 64
     7
 65
   257
 75
     1
175
     1
 42
1.0
 92
        8
 66
     7
 43
1.0
 76
     1
 77
     6
 78
     2
 67
     7
 79
     5
170
     0
171
     0
290
     0
174
     0
 93
        1
 44
0.0
173
     0
291
     1
 45
0.0
1001
ACAD
1000
AcDbSavedByObjectVersion
1070
     0
1000
AcDbSavedByObjectVersion
1070
     0
  0
VISUALSTYLE
  5
57F
102
{ACAD_XDICTIONARY
360
773
102
}
102
{ACAD_REACTORS
330
57E
102
}
330
57E
100
AcDbVisualStyle
  2
Flat
 70
     0
 71
     2
 72
     1
 73
     1
 90
        2
 40
-0.6
 41
30.0
 62
     5
 63
     7
 74
     0
 91
        4
 64
     7
 65
   257
 75
     1
175
     1
 42
1.0
 92
        8
 66
     7
 43
1.0
 76
     1
 77
     6
 78
     2
 67
     7
 79
     5
170
     0
171
     0
290
     0
174
     0
 93
       13
 44
0.0
173
     0
291
     1
 45
0.0
1001
ACAD
1000
AcDbSavedByObjectVersion
1070
     0
1000
AcDbSavedByObjectVersion
1070
     0
  0
VISUALSTYLE
  5
580
102
{ACAD_XDICTIONARY
360
775
102
}
102
{ACAD_REACTORS
330
57E
102
}
330
57E
100
AcDbVisualStyle
  2
FlatWithEdges
 70
     1
 71
     2
 72
     1
 73
     1
 90
        2
 40
-0.6
 41
30.0
 62
     5
 63
     7
 74
     1
 91
        4
 64
     7
 65
   257
 75
     1
175
     1
 42
1.0
 92
        0
 66
   257
 43
1.0
 76
     1
 77
     6
 78
     2
 67
     7
 79
     5
170
     0
171
     0
290
     0
174
     0
 93
       13
 44
0.0
173
     0
291
     1
 45
0.0
1001
ACAD
1000
AcDbSavedByObjectVersion
1070
     0
1000
AcDbSavedByObjectVersion
1070
     0
  0
VISUALSTYLE
  5
581
102
{ACAD_XDICTIONARY
360
777
102
}
102
{ACAD_REACTORS
330
57E
102
}
330
57E
100
AcDbVisualStyle
  2
Gouraud
 70
     2
 71
     2
 72
     2
 73
     1
 90
        2
 40
-0.6
 41
30.0
 62
     5
 63
     7
 74
     0
 91
        4
 64
     7
 65
   257
 75
     1
175
     1
 42
1.0
 92
        0
 66
     7
 43
1.0
 76
     1
 77
     6
 78
     2
 67
     7
 79
     5
170
     0
171
     0
290
     0
174
     0
 93
       13
 44
0.0
173
     0
291
     1
 45
0.0
1001
ACAD
1000
AcDbSavedByObjectVersion
1070
     0
1000
AcDbSavedByObjectVersion
1070
     0
  0
VISUALSTYLE
  5
582
102
{ACAD_XDICTIONARY
360
779
102
}
102
{ACAD_REACTORS
330
57E
102
}
330
57E
100
AcDbVisualStyle
  2
GouraudWithEdges
 70
     3
 71
     2
 72
     2
 73
     1
 90
        2
 40
-0.6
 41
30.0
 62
     5
 63
     7
 74
     1
 91
        4
 64
     7
 65
   257
 75
     1
175
     1
 42
1.0
 92
        0
 66
   257
 43
1.0
 76
     1
 77
     6
 78
     2
 67
     7
 79
     5
170
     0
171
     0
290
     0
174
     0
 93
       13
 44
0.0
173
     0
291
     1
 45
0.0
1001
ACAD
1000
AcDbSavedByObjectVersion
1070
     0
1000
AcDbSavedByObjectVersion
1070
     0
  0
VISUALSTYLE
  5
58F
102
{ACAD_XDICTIONARY
360
793
102
}
102
{ACAD_REACTORS
330
57E
102
}
330
57E
100
AcDbVisualStyle
  2
JitterOff
 70
    20
 71
     2
 72
     2
 73
     0
 90
        0
 40
-0.6
 41
-30.0
 62
     5
 63
     7
 74
     1
 91
        4
 64
     7
 65
   257
 75
     1
175
     1
 42
1.0
 92
       10
 66
     7
 43
1.0
 76
     1
 77
     6
 78
     2
 67
     7
 79
     5
170
     0
171
     0
290
     0
174
     0
 93
        1
 44
0.0
173
     0
291
     1
 45
0.0
1001
ACAD
1000
AcDbSavedByObjectVersion
1070
     0
1000
AcDbSavedByObjectVersion
1070
     0
  0
VISUALSTYLE
  5
58C
102
{ACAD_XDICTIONARY
360
78D
102
}
102
{ACAD_REACTORS
330
57E
102
}
330
57E
100
AcDbVisualStyle
  2
Linepattern
 70
    14
 71
     2
 72
     2
 73
     0
 90
        0
 40
-0.6
 41
-30.0
 62
     5
 63
     7
 74
     1
 91
        4
 64
     7
 65
   257
 75
     7
175
     7
 42
1.0
 92
        8
 66
     7
 43
1.0
 76
     1
 77
     6
 78
     2
 67
     7
 79
     5
170
     0
171
     0
290
     0
174
     0
 93
        1
 44
0.0
173
     0
291
     1
 45
0.0
1001
ACAD
1000
AcDbSavedByObjectVersion
1070
     0
1000
AcDbSavedByObjectVersion
1070
     0
  0
VISUALSTYLE
  5
590
102
{ACAD_XDICTIONARY
360
795
102
}
102
{ACAD_REACTORS
330
57E
102
}
330
57E
100
AcDbVisualStyle
  2
OverhangOff
 70
    21
 71
     2
 72
     2
 73
     0
 90
        0
 40
-0.6
 41
-30.0
 62
     5
 63
     7
 74
     1
 91
        4
 64
     7
 65
   257
 75
     1
175
     1
 42
1.0
 92
        9
 66
     7
 43
1.0
 76
     1
 77
     6
 78
     2
 67
     7
 79
     5
170
     0
171
     0
290
     0
174
     0
 93
        1
 44
0.0
173
     0
291
     1
 45
0.0
1001
ACAD
1000
AcDbSavedByObjectVersion
1070
     0
1000
AcDbSavedByObjectVersion
1070
     0
  0
VISUALSTYLE
  5
588
102
{ACAD_XDICTIONARY
360
785
102
}
102
{ACAD_REACTORS
330
57E
102
}
330
57E
100
AcDbVisualStyle
  2
Realistic
 70
     8
 71
     2
 72
     2
 73
     0
 90
        0
 40
-0.6
 41
-30.0
 62
     5
 63
     7
 74
     1
 91
        0
 64
     7
 65
   257
 75
     1
175
     1
 42
1.0
 92
        8
 66
     8
 43
1.0
 76
     1
 77
     6
 78
     2
 67
     7
 79
     5
170
     0
171
     0
290
     0
174
     0
 93
       13
 44
0.0
173
     0
291
     0
 45
0.0
1001
ACAD
1000
AcDbSavedByObjectVersion
1070
     0
1000
AcDbSavedByObjectVersion
1070
     0
  0
VISUALSTYLE
  5
58B
102
{ACAD_XDICTIONARY
360
78B
102
}
102
{ACAD_REACTORS
330
57E
102
}
330
57E
100
AcDbVisualStyle
  2
Thicken
 70
    13
 71
     2
 72
     2
 73
     0
 90
        0
 40
-0.6
 41
-30.0
 62
     5
 63
     7
 74
     1
 91
        4
 64
     7
 65
   257
 75
     1
175
     1
 42
1.0
 92
       12
 66
     7
 43
1.0
 76
     1
 77
     6
 78
     2
 67
     7
 79
     5
170
     0
171
     0
290
     0
174
     0
 93
        1
 44
0.0
173
     0
291
     1
 45
0.0
1001
ACAD
1000
AcDbSavedByObjectVersion
1070
     0
1000
AcDbSavedByObjectVersion
1070
     0
  0
DICTIONARYVAR
  5
6FD
102
{ACAD_REACTORS
330
6FA
102
}
330
6FA
100
DictionaryVariables
280
     0
  1
1:1
  0
DICTIONARYVAR
  5
6FC
102
{ACAD_REACTORS
330
6FA
102
}
330
6FA
100
DictionaryVariables
280
     0
  1
STANDARD
  0
DICTIONARYVAR
  5
6FB
102
{ACAD_REACTORS
330
6FA
102
}
330
6FA
100
DictionaryVariables
280
     0
  1
STANDARD
  0
DICTIONARYVAR
  5
700
102
{ACAD_REACTORS
330
6FA
102
}
330
6FA
100
DictionaryVariables
280
     0
  1
1
  0
DICTIONARYVAR
  5
6FF
102
{ACAD_REACTORS
330
6FA
102
}
330
6FA
100
DictionaryVariables
280
     0
  1
0
  0
DICTIONARYVAR
  5
6FE
102
{ACAD_REACTORS
330
6FA
102
}
330
6FA
100
DictionaryVariables
280
     0
  1
127
  0
DICTIONARYVAR
  5
701
102
{ACAD_REACTORS
330
6FA
102
}
330
6FA
100
DictionaryVariables
280
     0
  1
0
  0
DICTIONARY
  5
ADC
330
5BA
100
AcDbDictionary
280
     1
281
     1
  3
ACAD_XREC_ROUNDTRIP
360
ADD
  0
DICTIONARY
  5
ADA
330
5B9
100
AcDbDictionary
280
     1
281
     1
  3
ACAD_XREC_ROUNDTRIP
360
ADB
  0
DICTIONARY
  5
56F
330
56E
100
AcDbDictionary
280
     1
281
     1
  3
ACAD_XREC_ROUNDTRIP
360
771
  3
BUMPTILE
360
571
  3
DIFFUSETILE
360
570
  3
OPACITYTILE
360
574
  3
REFLECTIONTILE
360
573
  3
REFRACTIONTILE
360
575
  3
SPECULARTILE
360
572
  0
DICTIONARY
  5
567
330
566
100
AcDbDictionary
280
     1
281
     1
  3
ACAD_XREC_ROUNDTRIP
360
770
  3
BUMPTILE
360
569
  3
DIFFUSETILE
360
568
  3
OPACITYTILE
360
56C
  3
REFLECTIONTILE
360
56B
  3
REFRACTIONTILE
360
56D
  3
SPECULARTILE
360
56A
  0
DICTIONARY
  5
577
330
576
100
AcDbDictionary
280
     1
281
     1
  3
ACAD_XREC_ROUNDTRIP
360
772
  3
BUMPTILE
360
579
  3
DIFFUSETILE
360
578
  3
OPACITYTILE
360
57C
  3
REFLECTIONTILE
360
57B
  3
REFRACTIONTILE
360
57D
  3
SPECULARTILE
360
57A
  0
DICTIONARY
  5
76C
330
594
100
AcDbDictionary
280
     1
281
     1
  3
ACAD_ROUNDTRIP_2008_TABLESTYLE_CELLSTYLEMAP
360
76D
  3
ACAD_XREC_ROUNDTRIP
360
AD9
  0
DICTIONARY
  5
77D
330
584
100
AcDbDictionary
280
     1
281
     1
  3
ACAD_XREC_ROUNDTRIP
360
77E
  0
DICTIONARY
  5
781
330
586
100
AcDbDictionary
280
     1
281
     1
  3
ACAD_XREC_ROUNDTRIP
360
782
  0
DICTIONARY
  5
77F
330
585
100
AcDbDictionary
280
     1
281
     1
  3
ACAD_XREC_ROUNDTRIP
360
780
  0
DICTIONARY
  5
77B
330
583
100
AcDbDictionary
280
     1
281
     1
  3
ACAD_XREC_ROUNDTRIP
360
77C
  0
DICTIONARY
  5
789
330
58A
100
AcDbDictionary
280
     1
281
     1
  3
ACAD_XREC_ROUNDTRIP
360
78A
  0
DICTIONARY
  5
791
330
58E
100
AcDbDictionary
280
     1
281
     1
  3
ACAD_XREC_ROUNDTRIP
360
792
  0
DICTIONARY
  5
783
330
587
100
AcDbDictionary
280
     1
281
     1
  3
ACAD_XREC_ROUNDTRIP
360
784
  0
DICTIONARY
  5
787
330
589
100
AcDbDictionary
280
     1
281
     1
  3
ACAD_XREC_ROUNDTRIP
360
788
  0
DICTIONARY
  5
797
330
591
100
AcDbDictionary
280
     1
281
     1
  3
ACAD_XREC_ROUNDTRIP
360
798
  0
DICTIONARY
  5
78F
330
58D
100
AcDbDictionary
280
     1
281
     1
  3
ACAD_XREC_ROUNDTRIP
360
790
  0
DICTIONARY
  5
773
330
57F
100
AcDbDictionary
280
     1
281
     1
  3
ACAD_XREC_ROUNDTRIP
360
774
  0
DICTIONARY
  5
775
330
580
100
AcDbDictionary
280
     1
281
     1
  3
ACAD_XREC_ROUNDTRIP
360
776
  0
DICTIONARY
  5
777
330
581
100
AcDbDictionary
280
     1
281
     1
  3
ACAD_XREC_ROUNDTRIP
360
778
  0
DICTIONARY
  5
779
330
582
100
AcDbDictionary
280
     1
281
     1
  3
ACAD_XREC_ROUNDTRIP
360
77A
  0
DICTIONARY
  5
793
330
58F
100
AcDbDictionary
280
     1
281
     1
  3
ACAD_XREC_ROUNDTRIP
360
794
  0
DICTIONARY
  5
78D
330
58C
100
AcDbDictionary
280
     1
281
     1
  3
ACAD_XREC_ROUNDTRIP
360
78E
  0
DICTIONARY
  5
795
330
590
100
AcDbDictionary
280
     1
281
     1
  3
ACAD_XREC_ROUNDTRIP
360
796
  0
DICTIONARY
  5
785
330
588
100
AcDbDictionary
280
     1
281
     1
  3
ACAD_XREC_ROUNDTRIP
360
786
  0
DICTIONARY
  5
78B
330
58B
100
AcDbDictionary
280
     1
281
     1
  3
ACAD_XREC_ROUNDTRIP
360
78C
  0
XRECORD
  5
ADD
102
{ACAD_REACTORS
330
ADC
102
}
330
ADC
100
AcDbXrecord
280
     1
102
SHADEPLOT
 70
     0
102
SHADEPLOTRESLEVEL
 70
     2
102
SHADEPLOTCUSTOMDPI
 70
   300
  0
XRECORD
  5
ADB
102
{ACAD_REACTORS
330
ADA
102
}
330
ADA
100
AcDbXrecord
280
     1
102
SHADEPLOT
 70
     0
102
SHADEPLOTRESLEVEL
 70
     2
102
SHADEPLOTCUSTOMDPI
 70
   300
  0
XRECORD
  5
771
102
{ACAD_REACTORS
330
56F
102
}
330
56F
100
AcDbXrecord
280
     1
102
MATERIAL
148
0.0
149
0.0
149
0.0
 93
        0
 94
       63
282
     0
 72
     0
 77
     0
171
     0
175
     0
179
     0
273
     0
  0
XRECORD
  5
571
102
{ACAD_REACTORS
330
56F
102
}
330
56F
100
AcDbXrecord
280
     1
270
     1
271
     1
  0
XRECORD
  5
570
102
{ACAD_REACTORS
330
56F
102
}
330
56F
100
AcDbXrecord
280
     1
270
     1
271
     1
  0
XRECORD
  5
574
102
{ACAD_REACTORS
330
56F
102
}
330
56F
100
AcDbXrecord
280
     1
270
     1
271
     1
  0
XRECORD
  5
573
102
{ACAD_REACTORS
330
56F
102
}
330
56F
100
AcDbXrecord
280
     1
270
     1
271
     1
  0
XRECORD
  5
575
102
{ACAD_REACTORS
330
56F
102
}
330
56F
100
AcDbXrecord
280
     1
270
     1
271
     1
  0
XRECORD
  5
572
102
{ACAD_REACTORS
330
56F
102
}
330
56F
100
AcDbXrecord
280
     1
270
     1
271
     1
  0
XRECORD
  5
770
102
{ACAD_REACTORS
330
567
102
}
330
567
100
AcDbXrecord
280
     1
102
MATERIAL
148
0.0
149
0.0
149
0.0
 93
        0
 94
       63
282
     0
 72
     0
 77
     0
171
     0
175
     0
179
     0
273
     0
  0
XRECORD
  5
569
102
{ACAD_REACTORS
330
567
102
}
330
567
100
AcDbXrecord
280
     1
270
     1
271
     1
  0
XRECORD
  5
568
102
{ACAD_REACTORS
330
567
102
}
330
567
100
AcDbXrecord
280
     1
270
     1
271
     1
  0
XRECORD
  5
56C
102
{ACAD_REACTORS
330
567
102
}
330
567
100
AcDbXrecord
280
     1
270
     1
271
     1
  0
XRECORD
  5
56B
102
{ACAD_REACTORS
330
567
102
}
330
567
100
AcDbXrecord
280
     1
270
     1
271
     1
  0
XRECORD
  5
56D
102
{ACAD_REACTORS
330
567
102
}
330
567
100
AcDbXrecord
280
     1
270
     1
271
     1
  0
XRECORD
  5
56A
102
{ACAD_REACTORS
330
567
102
}
330
567
100
AcDbXrecord
280
     1
270
     1
271
     1
  0
XRECORD
  5
772
102
{ACAD_REACTORS
330
577
102
}
330
577
100
AcDbXrecord
280
     1
102
MATERIAL
148
0.0
149
0.0
149
0.0
 93
        0
 94
       63
282
     0
 72
     0
 77
     0
171
     0
175
     0
179
     0
273
     0
  0
XRECORD
  5
579
102
{ACAD_REACTORS
330
577
102
}
330
577
100
AcDbXrecord
280
     1
270
     1
271
     1
  0
XRECORD
  5
578
102
{ACAD_REACTORS
330
577
102
}
330
577
100
AcDbXrecord
280
     1
270
     1
271
     1
  0
XRECORD
  5
57C
102
{ACAD_REACTORS
330
577
102
}
330
577
100
AcDbXrecord
280
     1
270
     1
271
     1
  0
XRECORD
  5
57B
102
{ACAD_REACTORS
330
577
102
}
330
577
100
AcDbXrecord
280
     1
270
     1
271
     1
  0
XRECORD
  5
57D
102
{ACAD_REACTORS
330
577
102
}
330
577
100
AcDbXrecord
280
     1
270
     1
271
     1
  0
XRECORD
  5
57A
102
{ACAD_REACTORS
330
577
102
}
330
577
100
AcDbXrecord
280
     1
270
     1
271
     1
  0
CELLSTYLEMAP
  5
76D
102
{ACAD_REACTORS
330
76C
102
}
330
76C
100
AcDbCellStyleMap
 90
        3
300
CELLSTYLE
  1
TABLEFORMAT_BEGIN
 90
        5
170
     1
 91
        0
 92
    32768
 62
   257
 93
        1
300
CONTENTFORMAT
  1
CONTENTFORMAT_BEGIN
 90
        0
 91
        0
 92
      512
 93
        0
300

 40
0.0
140
1.0
 94
        5
 62
     0
340
10F
144
0.25
309
CONTENTFORMAT_END
171
     0
 94
        0
309
TABLEFORMAT_END
  1
CELLSTYLE_BEGIN
 90
        1
 91
        1
300
_TITLE
309
CELLSTYLE_END
300
CELLSTYLE
  1
TABLEFORMAT_BEGIN
 90
        5
170
     1
 91
        0
 92
        0
 62
   257
 93
        1
300
CONTENTFORMAT
  1
CONTENTFORMAT_BEGIN
 90
        0
 91
        0
 92
      512
 93
        0
300

 40
0.0
140
1.0
 94
        5
 62
     0
340
10F
144
0.18
309
CONTENTFORMAT_END
171
     0
 94
        0
309
TABLEFORMAT_END
  1
CELLSTYLE_BEGIN
 90
        2
 91
        1
300
_HEADER
309
CELLSTYLE_END
300
CELLSTYLE
  1
TABLEFORMAT_BEGIN
 90
        5
170
     1
 91
        0
 92
        0
 62
   257
 93
        1
300
CONTENTFORMAT
  1
CONTENTFORMAT_BEGIN
 90
        0
 91
        0
 92
      512
 93
        0
300

 40
0.0
140
1.0
 94
        2
 62
     0
340
10F
144
0.18
309
CONTENTFORMAT_END
171
     0
 94
        0
309
TABLEFORMAT_END
  1
CELLSTYLE_BEGIN
 90
        3
 91
        2
300
_DATA
309
CELLSTYLE_END
1001
ACAD
1000
AcRTDxfName
1000
CELLSTYLEMAP
  0
XRECORD
  5
AD9
102
{ACAD_REACTORS
330
76C
102
}
330
76C
100
AcDbXrecord
280
     1
102
ACAD_ROUNDTRIP_PRE2007_TABLESTYLE
 90
      512
 91
        0
  1

 92
      512
 93
        0
  2

 94
      512
 95
        0
  3

  0
XRECORD
  5
77E
102
{ACAD_REACTORS
330
77D
102
}
330
77D
100
AcDbXrecord
280
     1
102
RTVSPropertyOp0
 70
     1
102
RTVSPropertyOp1
 70
     1
102
RTVSPropertyOp2
 70
     1
102
RTVSPropertyOp3
 70
     1
102
RTVSPropertyOp4
 70
     1
102
RTVSPropertyOp5
 70
     1
102
RTVSPropertyOp6
 70
     1
102
RTVSPropertyOp7
 70
     1
102
RTVSPropertyOp8
 70
     1
102
RTVSPropertyOp9
 70
     1
102
RTVSPropertyOp10
 70
     1
102
RTVSPropertyOp11
 70
     1
102
RTVSPropertyOp12
 70
     1
102
RTVSPropertyOp13
 70
     1
102
RTVSPropertyOp14
 70
     1
102
RTVSPropertyOp15
 70
     1
102
RTVSPropertyOp16
 70
     1
102
RTVSPropertyOp17
 70
     1
102
RTVSPropertyOp18
 70
     1
102
RTVSPropertyOp19
 70
     1
102
RTVSPropertyOp20
 70
     1
102
RTVSPropertyOp21
 70
     1
102
RTVSPropertyOp22
 70
     1
102
RTVSPropertyOp23
 70
     1
102
RTVSPropertyOp24
 70
     1
102
RTVSPropertyOp25
 70
     1
102
RTVSPropertyOp26
 70
     1
102
RTVSPropertyOp27
 70
     1
  0
XRECORD
  5
782
102
{ACAD_REACTORS
330
781
102
}
330
781
100
AcDbXrecord
280
     1
102
RTVSPropertyOp0
 70
     1
102
RTVSPropertyOp1
 70
     1
102
RTVSPropertyOp2
 70
     1
102
RTVSPropertyOp3
 70
     1
102
RTVSPropertyOp4
 70
     1
102
RTVSPropertyOp5
 70
     1
102
RTVSPropertyOp6
 70
     1
102
RTVSPropertyOp7
 70
     1
102
RTVSPropertyOp8
 70
     1
102
RTVSPropertyOp9
 70
     1
102
RTVSPropertyOp10
 70
     1
102
RTVSPropertyOp11
 70
     1
102
RTVSPropertyOp12
 70
     1
102
RTVSPropertyOp13
 70
     1
102
RTVSPropertyOp14
 70
     1
102
RTVSPropertyOp15
 70
     1
102
RTVSPropertyOp16
 70
     1
102
RTVSPropertyOp17
 70
     1
102
RTVSPropertyOp18
 70
     1
102
RTVSPropertyOp19
 70
     1
102
RTVSPropertyOp20
 70
     1
102
RTVSPropertyOp21
 70
     1
102
RTVSPropertyOp22
 70
     1
102
RTVSPropertyOp23
 70
     1
102
RTVSPropertyOp24
 70
     1
102
RTVSPropertyOp25
 70
     1
102
RTVSPropertyOp26
 70
     1
102
RTVSPropertyOp27
 70
     1
  0
XRECORD
  5
780
102
{ACAD_REACTORS
330
77F
102
}
330
77F
100
AcDbXrecord
280
     1
102
RTVSPropertyOp0
 70
     1
102
RTVSPropertyOp1
 70
     1
102
RTVSPropertyOp2
 70
     1
102
RTVSPropertyOp3
 70
     1
102
RTVSPropertyOp4
 70
     1
102
RTVSPropertyOp5
 70
     1
102
RTVSPropertyOp6
 70
     1
102
RTVSPropertyOp7
 70
     1
102
RTVSPropertyOp8
 70
     1
102
RTVSPropertyOp9
 70
     1
102
RTVSPropertyOp10
 70
     1
102
RTVSPropertyOp11
 70
     1
102
RTVSPropertyOp12
 70
     1
102
RTVSPropertyOp13
 70
     1
102
RTVSPropertyOp14
 70
     1
102
RTVSPropertyOp15
 70
     1
102
RTVSPropertyOp16
 70
     1
102
RTVSPropertyOp17
 70
     1
102
RTVSPropertyOp18
 70
     1
102
RTVSPropertyOp19
 70
     1
102
RTVSPropertyOp20
 70
     1
102
RTVSPropertyOp21
 70
     1
102
RTVSPropertyOp22
 70
     1
102
RTVSPropertyOp23
 70
     1
102
RTVSPropertyOp24
 70
     1
102
RTVSPropertyOp25
 70
     1
102
RTVSPropertyOp26
 70
     1
102
RTVSPropertyOp27
 70
     1
  0
XRECORD
  5
77C
102
{ACAD_REACTORS
330
77B
102
}
330
77B
100
AcDbXrecord
280
     1
102
RTVSPropertyOp0
 70
     1
102
RTVSPropertyOp1
 70
     1
102
RTVSPropertyOp2
 70
     1
102
RTVSPropertyOp3
 70
     1
102
RTVSPropertyOp4
 70
     1
102
RTVSPropertyOp5
 70
     1
102
RTVSPropertyOp6
 70
     1
102
RTVSPropertyOp7
 70
     1
102
RTVSPropertyOp8
 70
     1
102
RTVSPropertyOp9
 70
     1
102
RTVSPropertyOp10
 70
     1
102
RTVSPropertyOp11
 70
     1
102
RTVSPropertyOp12
 70
     1
102
RTVSPropertyOp13
 70
     1
102
RTVSPropertyOp14
 70
     1
102
RTVSPropertyOp15
 70
     1
102
RTVSPropertyOp16
 70
     1
102
RTVSPropertyOp17
 70
     1
102
RTVSPropertyOp18
 70
     1
102
RTVSPropertyOp19
 70
     1
102
RTVSPropertyOp20
 70
     1
102
RTVSPropertyOp21
 70
     1
102
RTVSPropertyOp22
 70
     1
102
RTVSPropertyOp23
 70
     1
102
RTVSPropertyOp24
 70
     1
102
RTVSPropertyOp25
 70
     1
102
RTVSPropertyOp26
 70
     1
102
RTVSPropertyOp27
 70
     1
  0
XRECORD
  5
78A
102
{ACAD_REACTORS
330
789
102
}
330
789
100
AcDbXrecord
280
     1
102
RTVSPropertyOp0
 70
     1
102
RTVSPropertyOp1
 70
     1
102
RTVSPropertyOp2
 70
     1
102
RTVSPropertyOp3
 70
     1
102
RTVSPropertyOp4
 70
     1
102
RTVSPropertyOp5
 70
     1
102
RTVSPropertyOp6
 70
     1
102
RTVSPropertyOp7
 70
     1
102
RTVSPropertyOp8
 70
     1
102
RTVSPropertyOp9
 70
     1
102
RTVSPropertyOp10
 70
     1
102
RTVSPropertyOp11
 70
     1
102
RTVSPropertyOp12
 70
     1
102
RTVSPropertyOp13
 70
     1
102
RTVSPropertyOp14
 70
     1
102
RTVSPropertyOp15
 70
     1
102
RTVSPropertyOp16
 70
     1
102
RTVSPropertyOp17
 70
     1
102
RTVSPropertyOp18
 70
     1
102
RTVSPropertyOp19
 70
     1
102
RTVSPropertyOp20
 70
     1
102
RTVSPropertyOp21
 70
     1
102
RTVSPropertyOp22
 70
     1
102
RTVSPropertyOp23
 70
     1
102
RTVSPropertyOp24
 70
     1
102
RTVSPropertyOp25
 70
     1
102
RTVSPropertyOp26
 70
     1
102
RTVSPropertyOp27
 70
     1
  0
XRECORD
  5
792
102
{ACAD_REACTORS
330
791
102
}
330
791
100
AcDbXrecord
280
     1
102
RTVSPropertyOp0
 70
     1
102
RTVSPropertyOp1
 70
     1
102
RTVSPropertyOp2
 70
     1
102
RTVSPropertyOp3
 70
     1
102
RTVSPropertyOp4
 70
     1
102
RTVSPropertyOp5
 70
     1
102
RTVSPropertyOp6
 70
     1
102
RTVSPropertyOp7
 70
     1
102
RTVSPropertyOp8
 70
     1
102
RTVSPropertyOp9
 70
     1
102
RTVSPropertyOp10
 70
     1
102
RTVSPropertyOp11
 70
     1
102
RTVSPropertyOp12
 70
     1
102
RTVSPropertyOp13
 70
     1
102
RTVSPropertyOp14
 70
     1
102
RTVSPropertyOp15
 70
     1
102
RTVSPropertyOp16
 70
     1
102
RTVSPropertyOp17
 70
     1
102
RTVSPropertyOp18
 70
     1
102
RTVSPropertyOp19
 70
     1
102
RTVSPropertyOp20
 70
     1
102
RTVSPropertyOp21
 70
     1
102
RTVSPropertyOp22
 70
     1
102
RTVSPropertyOp23
 70
     1
102
RTVSPropertyOp24
 70
     1
102
RTVSPropertyOp25
 70
     1
102
RTVSPropertyOp26
 70
     1
102
RTVSPropertyOp27
 70
     1
  0
XRECORD
  5
784
102
{ACAD_REACTORS
330
783
102
}
330
783
100
AcDbXrecord
280
     1
102
RTVSPropertyOp0
 70
     1
102
RTVSPropertyOp1
 70
     1
102
RTVSPropertyOp2
 70
     1
102
RTVSPropertyOp3
 70
     1
102
RTVSPropertyOp4
 70
     1
102
RTVSPropertyOp5
 70
     1
102
RTVSPropertyOp6
 70
     1
102
RTVSPropertyOp7
 70
     1
102
RTVSPropertyOp8
 70
     1
102
RTVSPropertyOp9
 70
     1
102
RTVSPropertyOp10
 70
     1
102
RTVSPropertyOp11
 70
     1
102
RTVSPropertyOp12
 70
     1
102
RTVSPropertyOp13
 70
     1
102
RTVSPropertyOp14
 70
     1
102
RTVSPropertyOp15
 70
     1
102
RTVSPropertyOp16
 70
     1
102
RTVSPropertyOp17
 70
     1
102
RTVSPropertyOp18
 70
     1
102
RTVSPropertyOp19
 70
     1
102
RTVSPropertyOp20
 70
     1
102
RTVSPropertyOp21
 70
     1
102
RTVSPropertyOp22
 70
     1
102
RTVSPropertyOp23
 70
     1
102
RTVSPropertyOp24
 70
     1
102
RTVSPropertyOp25
 70
     1
102
RTVSPropertyOp26
 70
     1
102
RTVSPropertyOp27
 70
     1
  0
XRECORD
  5
788
102
{ACAD_REACTORS
330
787
102
}
330
787
100
AcDbXrecord
280
     1
102
RTVSPropertyOp0
 70
     1
102
RTVSPropertyOp1
 70
     1
102
RTVSPropertyOp2
 70
     1
102
RTVSPropertyOp3
 70
     1
102
RTVSPropertyOp4
 70
     1
102
RTVSPropertyOp5
 70
     1
102
RTVSPropertyOp6
 70
     1
102
RTVSPropertyOp7
 70
     1
102
RTVSPropertyOp8
 70
     1
102
RTVSPropertyOp9
 70
     1
102
RTVSPropertyOp10
 70
     1
102
RTVSPropertyOp11
 70
     1
102
RTVSPropertyOp12
 70
     1
102
RTVSPropertyOp13
 70
     1
102
RTVSPropertyOp14
 70
     1
102
RTVSPropertyOp15
 70
     1
102
RTVSPropertyOp16
 70
     1
102
RTVSPropertyOp17
 70
     1
102
RTVSPropertyOp18
 70
     1
102
RTVSPropertyOp19
 70
     1
102
RTVSPropertyOp20
 70
     1
102
RTVSPropertyOp21
 70
     1
102
RTVSPropertyOp22
 70
     1
102
RTVSPropertyOp23
 70
     1
102
RTVSPropertyOp24
 70
     1
102
RTVSPropertyOp25
 70
     1
102
RTVSPropertyOp26
 70
     1
102
RTVSPropertyOp27
 70
     1
  0
XRECORD
  5
798
102
{ACAD_REACTORS
330
797
102
}
330
797
100
AcDbXrecord
280
     1
102
RTVSPropertyOp0
 70
     0
102
RTVSPropertyOp1
 70
     0
102
RTVSPropertyOp2
 70
     0
102
RTVSPropertyOp3
 70
     0
102
RTVSPropertyOp4
 70
     0
102
RTVSPropertyOp5
 70
     0
102
RTVSPropertyOp6
 70
     0
102
RTVSPropertyOp7
 70
     0
102
RTVSPropertyOp8
 70
     0
102
RTVSPropertyOp9
 70
     0
102
RTVSPropertyOp10
 70
     0
102
RTVSPropertyOp11
 70
     0
102
RTVSPropertyOp12
 70
     0
102
RTVSPropertyOp13
 70
     0
102
RTVSPropertyOp14
 70
     2
102
RTVSPropertyOp15
 70
     0
102
RTVSPropertyOp16
 70
     0
102
RTVSPropertyOp17
 70
     0
102
RTVSPropertyOp18
 70
     0
102
RTVSPropertyOp19
 70
     0
102
RTVSPropertyOp20
 70
     0
102
RTVSPropertyOp21
 70
     0
102
RTVSPropertyOp22
 70
     0
102
RTVSPropertyOp23
 70
     0
102
RTVSPropertyOp24
 70
     0
102
RTVSPropertyOp25
 70
     0
102
RTVSPropertyOp26
 70
     0
102
RTVSPropertyOp27
 70
     0
  0
XRECORD
  5
790
102
{ACAD_REACTORS
330
78F
102
}
330
78F
100
AcDbXrecord
280
     1
102
RTVSPropertyOp0
 70
     1
102
RTVSPropertyOp1
 70
     1
102
RTVSPropertyOp2
 70
     1
102
RTVSPropertyOp3
 70
     1
102
RTVSPropertyOp4
 70
     1
102
RTVSPropertyOp5
 70
     1
102
RTVSPropertyOp6
 70
     1
102
RTVSPropertyOp7
 70
     1
102
RTVSPropertyOp8
 70
     1
102
RTVSPropertyOp9
 70
     1
102
RTVSPropertyOp10
 70
     1
102
RTVSPropertyOp11
 70
     1
102
RTVSPropertyOp12
 70
     1
102
RTVSPropertyOp13
 70
     1
102
RTVSPropertyOp14
 70
     1
102
RTVSPropertyOp15
 70
     1
102
RTVSPropertyOp16
 70
     1
102
RTVSPropertyOp17
 70
     1
102
RTVSPropertyOp18
 70
     1
102
RTVSPropertyOp19
 70
     1
102
RTVSPropertyOp20
 70
     1
102
RTVSPropertyOp21
 70
     1
102
RTVSPropertyOp22
 70
     1
102
RTVSPropertyOp23
 70
     1
102
RTVSPropertyOp24
 70
     1
102
RTVSPropertyOp25
 70
     1
102
RTVSPropertyOp26
 70
     1
102
RTVSPropertyOp27
 70
     1
  0
XRECORD
  5
774
102
{ACAD_REACTORS
330
773
102
}
330
773
100
AcDbXrecord
280
     1
102
RTVSPropertyOp0
 70
     1
102
RTVSPropertyOp1
 70
     1
102
RTVSPropertyOp2
 70
     1
102
RTVSPropertyOp3
 70
     1
102
RTVSPropertyOp4
 70
     1
102
RTVSPropertyOp5
 70
     1
102
RTVSPropertyOp6
 70
     1
102
RTVSPropertyOp7
 70
     1
102
RTVSPropertyOp8
 70
     1
102
RTVSPropertyOp9
 70
     1
102
RTVSPropertyOp10
 70
     1
102
RTVSPropertyOp11
 70
     1
102
RTVSPropertyOp12
 70
     1
102
RTVSPropertyOp13
 70
     1
102
RTVSPropertyOp14
 70
     1
102
RTVSPropertyOp15
 70
     1
102
RTVSPropertyOp16
 70
     1
102
RTVSPropertyOp17
 70
     1
102
RTVSPropertyOp18
 70
     1
102
RTVSPropertyOp19
 70
     1
102
RTVSPropertyOp20
 70
     1
102
RTVSPropertyOp21
 70
     1
102
RTVSPropertyOp22
 70
     1
102
RTVSPropertyOp23
 70
     1
102
RTVSPropertyOp24
 70
     1
102
RTVSPropertyOp25
 70
     1
102
RTVSPropertyOp26
 70
     1
102
RTVSPropertyOp27
 70
     1
  0
XRECORD
  5
776
102
{ACAD_REACTORS
330
775
102
}
330
775
100
AcDbXrecord
280
     1
102
RTVSPropertyOp0
 70
     1
102
RTVSPropertyOp1
 70
     1
102
RTVSPropertyOp2
 70
     1
102
RTVSPropertyOp3
 70
     1
102
RTVSPropertyOp4
 70
     1
102
RTVSPropertyOp5
 70
     1
102
RTVSPropertyOp6
 70
     1
102
RTVSPropertyOp7
 70
     1
102
RTVSPropertyOp8
 70
     1
102
RTVSPropertyOp9
 70
     1
102
RTVSPropertyOp10
 70
     1
102
RTVSPropertyOp11
 70
     1
102
RTVSPropertyOp12
 70
     1
102
RTVSPropertyOp13
 70
     1
102
RTVSPropertyOp14
 70
     1
102
RTVSPropertyOp15
 70
     1
102
RTVSPropertyOp16
 70
     1
102
RTVSPropertyOp17
 70
     1
102
RTVSPropertyOp18
 70
     1
102
RTVSPropertyOp19
 70
     1
102
RTVSPropertyOp20
 70
     1
102
RTVSPropertyOp21
 70
     1
102
RTVSPropertyOp22
 70
     1
102
RTVSPropertyOp23
 70
     1
102
RTVSPropertyOp24
 70
     1
102
RTVSPropertyOp25
 70
     1
102
RTVSPropertyOp26
 70
     1
102
RTVSPropertyOp27
 70
     1
  0
XRECORD
  5
778
102
{ACAD_REACTORS
330
777
102
}
330
777
100
AcDbXrecord
280
     1
102
RTVSPropertyOp0
 70
     1
102
RTVSPropertyOp1
 70
     1
102
RTVSPropertyOp2
 70
     1
102
RTVSPropertyOp3
 70
     1
102
RTVSPropertyOp4
 70
     1
102
RTVSPropertyOp5
 70
     1
102
RTVSPropertyOp6
 70
     1
102
RTVSPropertyOp7
 70
     1
102
RTVSPropertyOp8
 70
     1
102
RTVSPropertyOp9
 70
     1
102
RTVSPropertyOp10
 70
     1
102
RTVSPropertyOp11
 70
     1
102
RTVSPropertyOp12
 70
     1
102
RTVSPropertyOp13
 70
     1
102
RTVSPropertyOp14
 70
     1
102
RTVSPropertyOp15
 70
     1
102
RTVSPropertyOp16
 70
     1
102
RTVSPropertyOp17
 70
     1
102
RTVSPropertyOp18
 70
     1
102
RTVSPropertyOp19
 70
     1
102
RTVSPropertyOp20
 70
     1
102
RTVSPropertyOp21
 70
     1
102
RTVSPropertyOp22
 70
     1
102
RTVSPropertyOp23
 70
     1
102
RTVSPropertyOp24
 70
     1
102
RTVSPropertyOp25
 70
     1
102
RTVSPropertyOp26
 70
     1
102
RTVSPropertyOp27
 70
     1
  0
XRECORD
  5
77A
102
{ACAD_REACTORS
330
779
102
}
330
779
100
AcDbXrecord
280
     1
102
RTVSPropertyOp0
 70
     1
102
RTVSPropertyOp1
 70
     1
102
RTVSPropertyOp2
 70
     1
102
RTVSPropertyOp3
 70
     1
102
RTVSPropertyOp4
 70
     1
102
RTVSPropertyOp5
 70
     1
102
RTVSPropertyOp6
 70
     1
102
RTVSPropertyOp7
 70
     1
102
RTVSPropertyOp8
 70
     1
102
RTVSPropertyOp9
 70
     1
102
RTVSPropertyOp10
 70
     1
102
RTVSPropertyOp11
 70
     1
102
RTVSPropertyOp12
 70
     1
102
RTVSPropertyOp13
 70
     1
102
RTVSPropertyOp14
 70
     1
102
RTVSPropertyOp15
 70
     1
102
RTVSPropertyOp16
 70
     1
102
RTVSPropertyOp17
 70
     1
102
RTVSPropertyOp18
 70
     1
102
RTVSPropertyOp19
 70
     1
102
RTVSPropertyOp20
 70
     1
102
RTVSPropertyOp21
 70
     1
102
RTVSPropertyOp22
 70
     1
102
RTVSPropertyOp23
 70
     1
102
RTVSPropertyOp24
 70
     1
102
RTVSPropertyOp25
 70
     1
102
RTVSPropertyOp26
 70
     1
102
RTVSPropertyOp27
 70
     1
  0
XRECORD
  5
794
102
{ACAD_REACTORS
330
793
102
}
330
793
100
AcDbXrecord
280
     1
102
RTVSPropertyOp0
 70
     0
102
RTVSPropertyOp1
 70
     0
102
RTVSPropertyOp2
 70
     0
102
RTVSPropertyOp3
 70
     0
102
RTVSPropertyOp4
 70
     0
102
RTVSPropertyOp5
 70
     0
102
RTVSPropertyOp6
 70
     0
102
RTVSPropertyOp7
 70
     0
102
RTVSPropertyOp8
 70
     0
102
RTVSPropertyOp9
 70
     0
102
RTVSPropertyOp10
 70
     0
102
RTVSPropertyOp11
 70
     0
102
RTVSPropertyOp12
 70
     0
102
RTVSPropertyOp13
 70
     0
102
RTVSPropertyOp14
 70
     2
102
RTVSPropertyOp15
 70
     0
102
RTVSPropertyOp16
 70
     0
102
RTVSPropertyOp17
 70
     0
102
RTVSPropertyOp18
 70
     0
102
RTVSPropertyOp19
 70
     0
102
RTVSPropertyOp20
 70
     0
102
RTVSPropertyOp21
 70
     0
102
RTVSPropertyOp22
 70
     0
102
RTVSPropertyOp23
 70
     0
102
RTVSPropertyOp24
 70
     0
102
RTVSPropertyOp25
 70
     0
102
RTVSPropertyOp26
 70
     0
102
RTVSPropertyOp27
 70
     0
  0
XRECORD
  5
78E
102
{ACAD_REACTORS
330
78D
102
}
330
78D
100
AcDbXrecord
280
     1
102
RTVSPropertyOp0
 70
     1
102
RTVSPropertyOp1
 70
     1
102
RTVSPropertyOp2
 70
     1
102
RTVSPropertyOp3
 70
     1
102
RTVSPropertyOp4
 70
     1
102
RTVSPropertyOp5
 70
     1
102
RTVSPropertyOp6
 70
     1
102
RTVSPropertyOp7
 70
     1
102
RTVSPropertyOp8
 70
     1
102
RTVSPropertyOp9
 70
     1
102
RTVSPropertyOp10
 70
     1
102
RTVSPropertyOp11
 70
     1
102
RTVSPropertyOp12
 70
     1
102
RTVSPropertyOp13
 70
     1
102
RTVSPropertyOp14
 70
     1
102
RTVSPropertyOp15
 70
     1
102
RTVSPropertyOp16
 70
     1
102
RTVSPropertyOp17
 70
     1
102
RTVSPropertyOp18
 70
     1
102
RTVSPropertyOp19
 70
     1
102
RTVSPropertyOp20
 70
     1
102
RTVSPropertyOp21
 70
     1
102
RTVSPropertyOp22
 70
     1
102
RTVSPropertyOp23
 70
     1
102
RTVSPropertyOp24
 70
     1
102
RTVSPropertyOp25
 70
     1
102
RTVSPropertyOp26
 70
     1
102
RTVSPropertyOp27
 70
     1
  0
XRECORD
  5
796
102
{ACAD_REACTORS
330
795
102
}
330
795
100
AcDbXrecord
280
     1
102
RTVSPropertyOp0
 70
     0
102
RTVSPropertyOp1
 70
     0
102
RTVSPropertyOp2
 70
     0
102
RTVSPropertyOp3
 70
     0
102
RTVSPropertyOp4
 70
     0
102
RTVSPropertyOp5
 70
     0
102
RTVSPropertyOp6
 70
     0
102
RTVSPropertyOp7
 70
     0
102
RTVSPropertyOp8
 70
     0
102
RTVSPropertyOp9
 70
     0
102
RTVSPropertyOp10
 70
     0
102
RTVSPropertyOp11
 70
     0
102
RTVSPropertyOp12
 70
     0
102
RTVSPropertyOp13
 70
     0
102
RTVSPropertyOp14
 70
     2
102
RTVSPropertyOp15
 70
     0
102
RTVSPropertyOp16
 70
     0
102
RTVSPropertyOp17
 70
     0
102
RTVSPropertyOp18
 70
     0
102
RTVSPropertyOp19
 70
     0
102
RTVSPropertyOp20
 70
     0
102
RTVSPropertyOp21
 70
     0
102
RTVSPropertyOp22
 70
     0
102
RTVSPropertyOp23
 70
     0
102
RTVSPropertyOp24
 70
     0
102
RTVSPropertyOp25
 70
     0
102
RTVSPropertyOp26
 70
     0
102
RTVSPropertyOp27
 70
     0
  0
XRECORD
  5
786
102
{ACAD_REACTORS
330
785
102
}
330
785
100
AcDbXrecord
280
     1
102
RTVSPropertyOp0
 70
     1
102
RTVSPropertyOp1
 70
     1
102
RTVSPropertyOp2
 70
     1
102
RTVSPropertyOp3
 70
     1
102
RTVSPropertyOp4
 70
     1
102
RTVSPropertyOp5
 70
     1
102
RTVSPropertyOp6
 70
     1
102
RTVSPropertyOp7
 70
     1
102
RTVSPropertyOp8
 70
     1
102
RTVSPropertyOp9
 70
     1
102
RTVSPropertyOp10
 70
     1
102
RTVSPropertyOp11
 70
     1
102
RTVSPropertyOp12
 70
     1
102
RTVSPropertyOp13
 70
     1
102
RTVSPropertyOp14
 70
     1
102
RTVSPropertyOp15
 70
     1
102
RTVSPropertyOp16
 70
     1
102
RTVSPropertyOp17
 70
     1
102
RTVSPropertyOp18
 70
     1
102
RTVSPropertyOp19
 70
     1
102
RTVSPropertyOp20
 70
     1
102
RTVSPropertyOp21
 70
     1
102
RTVSPropertyOp22
 70
     1
102
RTVSPropertyOp23
 70
     1
102
RTVSPropertyOp24
 70
     1
102
RTVSPropertyOp25
 70
     1
102
RTVSPropertyOp26
 70
     1
102
RTVSPropertyOp27
 70
     1
  0
XRECORD
  5
78C
102
{ACAD_REACTORS
330
78B
102
}
330
78B
100
AcDbXrecord
280
     1
102
RTVSPropertyOp0
 70
     1
102
RTVSPropertyOp1
 70
     1
102
RTVSPropertyOp2
 70
     1
102
RTVSPropertyOp3
 70
     1
102
RTVSPropertyOp4
 70
     1
102
RTVSPropertyOp5
 70
     1
102
RTVSPropertyOp6
 70
     1
102
RTVSPropertyOp7
 70
     1
102
RTVSPropertyOp8
 70
     1
102
RTVSPropertyOp9
 70
     1
102
RTVSPropertyOp10
 70
     1
102
RTVSPropertyOp11
 70
     1
102
RTVSPropertyOp12
 70
     1
102
RTVSPropertyOp13
 70
     1
102
RTVSPropertyOp14
 70
     1
102
RTVSPropertyOp15
 70
     1
102
RTVSPropertyOp16
 70
     1
102
RTVSPropertyOp17
 70
     1
102
RTVSPropertyOp18
 70
     1
102
RTVSPropertyOp19
 70
     1
102
RTVSPropertyOp20
 70
     1
102
RTVSPropertyOp21
 70
     1
102
RTVSPropertyOp22
 70
     1
102
RTVSPropertyOp23
 70
     1
102
RTVSPropertyOp24
 70
     1
102
RTVSPropertyOp25
 70
     1
102
RTVSPropertyOp26
 70
     1
102
RTVSPropertyOp27
 70
     1
  0
ENDSEC
  0
EOF
