  0
SECTION
  2
HEADER
  9
$ACADVER
  1
AC1015
  9
$ACADMAINTVER
 70
     6
  9
$DWGCODEPAGE
  3
ANSI_1252
  9
$INSBASE
 10
0.0
 20
0.0
 30
0.0
  9
$EXTMIN
 10
492.650303880984
 20
248.8219974068918
 30
0.0
  9
$EXTMAX
 10
1366.038277877539
 20
1011.220819902429
 30
0.0
  9
$LIMMIN
 10
0.0
 20
0.0
  9
$LIMMAX
 10
12.0
 20
9.0
  9
$ORTHOMODE
 70
     1
  9
$REGENMODE
 70
     1
  9
$FILLMODE
 70
     1
  9
$QTEXTMODE
 70
     0
  9
$MIRRTEXT
 70
     1
  9
$LTSCALE
 40
1.0
  9
$ATTMODE
 70
     1
  9
$TEXTSIZE
 40
0.0
  9
$TRACEWID
 40
0.05
  9
$TEXTSTYLE
  7
STANDARD
  9
$CLAYER
  8
0
  9
$CELTYPE
  6
CONTINUOUS
  9
$CECOLOR
 62
   256
  9
$CELTSCALE
 40
1.0
  9
$DISPSILH
 70
     0
  9
$DIMSCALE
 40
1.0
  9
$DIMASZ
 40
0.18
  9
$DIMEXO
 40
0.0625
  9
$DIMDLI
 40
0.38
  9
$DIMRND
 40
0.0
  9
$DIMDLE
 40
0.0
  9
$DIMEXE
 40
0.18
  9
$DIMTP
 40
0.0
  9
$DIMTM
 40
0.0
  9
$DIMTXT
 40
0.18
  9
$DIMCEN
 40
0.09
  9
$DIMTSZ
 40
0.0
  9
$DIMTOL
 70
     0
  9
$DIMLIM
 70
     0
  9
$DIMTIH
 70
     1
  9
$DIMTOH
 70
     1
  9
$DIMSE1
 70
     0
  9
$DIMSE2
 70
     0
  9
$DIMTAD
 70
     0
  9
$DIMZIN
 70
     0
  9
$DIMBLK
  1

  9
$DIMASO
 70
     1
  9
$DIMSHO
 70
     1
  9
$DIMPOST
  1

  9
$DIMAPOST
  1

  9
$DIMALT
 70
     0
  9
$DIMALTD
 70
     2
  9
$DIMALTF
 40
25.4
  9
$DIMLFAC
 40
1.0
  9
$DIMTOFL
 70
     0
  9
$DIMTVP
 40
0.0
  9
$DIMTIX
 70
     0
  9
$DIMSOXD
 70
     0
  9
$DIMSAH
 70
     0
  9
$DIMBLK1
  1

  9
$DIMBLK2
  1

  9
$DIMSTYLE
  2
STANDARD
  9
$DIMCLRD
 70
     0
  9
$DIMCLRE
 70
     0
  9
$DIMCLRT
 70
     0
  9
$DIMTFAC
 40
1.0
  9
$DIMGAP
 40
0.09
  9
$DIMJUST
 70
     0
  9
$DIMSD1
 70
     0
  9
$DIMSD2
 70
     0
  9
$DIMTOLJ
 70
     1
  9
$DIMTZIN
 70
     0
  9
$DIMALTZ
 70
     0
  9
$DIMALTTZ
 70
     0
  9
$DIMUPT
 70
     0
  9
$DIMDEC
 70
     4
  9
$DIMTDEC
 70
     4
  9
$DIMALTU
 70
     2
  9
$DIMALTTD
 70
     2
  9
$DIMTXSTY
  7
STANDARD
  9
$DIMAUNIT
 70
     0
  9
$DIMADEC
 70
     0
  9
$DIMALTRND
 40
0.0
  9
$DIMAZIN
 70
     0
  9
$DIMDSEP
 70
    46
  9
$DIMATFIT
 70
     3
  9
$DIMFRAC
 70
     0
  9
$DIMLDRBLK
  1

  9
$DIMLUNIT
 70
     2
  9
$DIMLWD
 70
    -2
  9
$DIMLWE
 70
    -2
  9
$DIMTMOVE
 70
     0
  9
$LUNITS
 70
     2
  9
$LUPREC
 70
     4
  9
$SKETCHINC
 40
0.1
  9
$FILLETRAD
 40
0.0
  9
$AUNITS
 70
     0
  9
$AUPREC
 70
     0
  9
$MENU
  1
acad
  9
$ELEVATION
 40
0.0
  9
$PELEVATION
 40
0.0
  9
$THICKNESS
 40
0.0
  9
$LIMCHECK
 70
     0
  9
$CHAMFERA
 40
0.0
  9
$CHAMFERB
 40
0.0
  9
$CHAMFERC
 40
0.0
  9
$CHAMFERD
 40
0.0
  9
$SKPOLY
 70
     0
  9
$TDCREATE
 40
2453375.510428240
  9
$TDUCREATE
 40
2453375.468761574
  9
$TDUPDATE
 40
2457618.724859305
  9
$TDUUPDATE
 40
2457618.683192638
  9
$TDINDWG
 40
0.0354473380
  9
$TDUSRTIMER
 40
0.0354444329
  9
$USRTIMER
 70
     1
  9
$ANGBASE
 50
0.0
  9
$ANGDIR
 70
     0
  9
$PDMODE
 70
     0
  9
$PDSIZE
 40
0.0
  9
$PLINEWID
 40
0.0
  9
$SPLFRAME
 70
     0
  9
$SPLINETYPE
 70
     6
  9
$SPLINESEGS
 70
    10
  9
$HANDSEED
  5
92E
  9
$SURFTAB1
 70
     6
  9
$SURFTAB2
 70
     6
  9
$SURFTYPE
 70
     6
  9
$SURFU
 70
     6
  9
$SURFV
 70
     6
  9
$UCSBASE
  2

  9
$UCSNAME
  2

  9
$UCSORG
 10
0.0
 20
0.0
 30
0.0
  9
$UCSXDIR
 10
1.0
 20
0.0
 30
0.0
  9
$UCSYDIR
 10
0.0
 20
1.0
 30
0.0
  9
$UCSORTHOREF
  2

  9
$UCSORTHOVIEW
 70
     0
  9
$UCSORGTOP
 10
0.0
 20
0.0
 30
0.0
  9
$UCSORGBOTTOM
 10
0.0
 20
0.0
 30
0.0
  9
$UCSORGLEFT
 10
0.0
 20
0.0
 30
0.0
  9
$UCSORGRIGHT
 10
0.0
 20
0.0
 30
0.0
  9
$UCSORGFRONT
 10
0.0
 20
0.0
 30
0.0
  9
$UCSORGBACK
 10
0.0
 20
0.0
 30
0.0
  9
$PUCSBASE
  2

  9
$PUCSNAME
  2

  9
$PUCSORG
 10
0.0
 20
0.0
 30
0.0
  9
$PUCSXDIR
 10
1.0
 20
0.0
 30
0.0
  9
$PUCSYDIR
 10
0.0
 20
1.0
 30
0.0
  9
$PUCSORTHOREF
  2

  9
$PUCSORTHOVIEW
 70
     0
  9
$PUCSORGTOP
 10
0.0
 20
0.0
 30
0.0
  9
$PUCSORGBOTTOM
 10
0.0
 20
0.0
 30
0.0
  9
$PUCSORGLEFT
 10
0.0
 20
0.0
 30
0.0
  9
$PUCSORGRIGHT
 10
0.0
 20
0.0
 30
0.0
  9
$PUCSORGFRONT
 10
0.0
 20
0.0
 30
0.0
  9
$PUCSORGBACK
 10
0.0
 20
0.0
 30
0.0
  9
$USERI1
 70
     0
  9
$USERI2
 70
     0
  9
$USERI3
 70
     0
  9
$USERI4
 70
     0
  9
$USERI5
 70
     0
  9
$USERR1
 40
0.0
  9
$USERR2
 40
0.0
  9
$USERR3
 40
0.0
  9
$USERR4
 40
0.0
  9
$USERR5
 40
0.0
  9
$WORLDVIEW
 70
     1
  9
$SHADEDGE
 70
     3
  9
$SHADEDIF
 70
    70
  9
$TILEMODE
 70
     1
  9
$MAXACTVP
 70
    16
  9
$PINSBASE
 10
0.0
 20
0.0
 30
0.0
  9
$PLIMCHECK
 70
     0
  9
$PEXTMIN
 10
-1.000000000000000E+20
 20
-1.000000000000000E+20
 30
-1.000000000000000E+20
  9
$PEXTMAX
 10
-1.000000000000000E+20
 20
-1.000000000000000E+20
 30
-1.000000000000000E+20
  9
$PLIMMIN
 10
0.0
 20
0.0
  9
$PLIMMAX
 10
12.0
 20
9.0
  9
$UNITMODE
 70
     0
  9
$VISRETAIN
 70
     0
  9
$PLINEGEN
 70
     1
  9
$PSLTSCALE
 70
     0
  9
$TREEDEPTH
 70
  3020
  9
$CMLSTYLE
  2
STANDARD
  9
$CMLJUST
 70
     0
  9
$CMLSCALE
 40
1.0
  9
$PROXYGRAPHICS
 70
     1
  9
$MEASUREMENT
 70
     0
  9
$CELWEIGHT
370
    -1
  9
$ENDCAPS
280
     0
  9
$JOINSTYLE
280
     0
  9
$LWDISPLAY
290
     0
  9
$INSUNITS
 70
     0
  9
$HYPERLINKBASE
  1

  9
$STYLESHEET
  1

  9
$XEDIT
290
     1
  9
$CEPSNTYPE
380
     0
  9
$PSTYLEMODE
290
     1
  9
$FINGERPRINTGUID
  2
{90F47713-D64A-4B9C-B5FE-88B63D796F68}
  9
$VERSIONGUID
  2
{29DDB989-425A-4F50-A4AC-9393675E0B02}
  9
$EXTNAMES
290
     1
  9
$PSVPSCALE
 40
0.0
  9
$OLESTARTUP
290
     0
  0
ENDSEC
  0
SECTION
  2
CLASSES
  0
CLASS
  1
ACDBDICTIONARYWDFLT
  2
AcDbDictionaryWithDefault
  3
AutoCAD 2000
 90
        0
280
     0
281
     0
  0
CLASS
  1
ACDBPLACEHOLDER
  2
AcDbPlaceHolder
  3
AutoCAD 2000
 90
        0
280
     0
281
     0
  0
CLASS
  1
LAYOUT
  2
AcDbLayout
  3
AutoCAD 2000
 90
        0
280
     0
281
     0
  0
CLASS
  1
MATERIAL
  2
AcDbMaterial
  3
ObjectDBX Classes
 90
     1024
280
     0
281
     0
  0
CLASS
  1
VISUALSTYLE
  2
AcDbVisualStyle
  3
ObjectDBX Classes
 90
     4095
280
     0
281
     0
  0
CLASS
  1
TABLESTYLE
  2
AcDbTableStyle
  3
ObjectDBX Classes
 90
     4095
280
     0
281
     0
  0
CLASS
  1
SCALE
  2
AcDbScale
  3
ObjectDBX Classes
 90
     1153
280
     0
281
     0
  0
CLASS
  1
MLEADERSTYLE
  2
AcDbMLeaderStyle
  3
ACDB_MLEADERSTYLE_CLASS
 90
     4095
280
     0
281
     0
  0
CLASS
  1
SORTENTSTABLE
  2
AcDbSortentsTable
  3
AutoCAD 2000
 90
        0
280
     0
281
     0
  0
CLASS
  1
DICTIONARYVAR
  2
AcDbDictionaryVar
  3
AutoCAD 2000
 90
        0
280
     0
281
     0
  0
CLASS
  1
CELLSTYLEMAP
  2
AcDbCellStyleMap
  3
ObjectDBX Classes
 90
     1152
280
     0
281
     0
  0
ENDSEC
  0
SECTION
  2
TABLES
  0
TABLE
  2
VPORT
  5
106
330
0
100
AcDbSymbolTable
 70
     2
  0
VPORT
  5
92D
330
106
100
AcDbSymbolTableRecord
100
AcDbViewportTableRecord
  2
*Active
 70
     0
 10
0.0
 20
0.0
 11
1.0
 21
1.0
 12
116.6920177976545
 22
67.88977365757273
 13
0.0
 23
0.0
 14
0.0
 24
0.0
 15
0.0
 25
0.0
 16
0.0
 26
0.0
 36
1.0
 17
890.261596
 27
575.871875
 37
0.0
 40
1292.083229149273
 41
1.689549180327868
 42
50.0
 43
0.025
 44
0.0
 50
0.0
 51
0.0
 71
     0
 72
   100
 73
     1
 74
     0
 75
     0
 76
     0
 77
     0
 78
     0
281
     0
 65
     1
110
0.0
120
0.0
130
0.0
111
1.0
121
0.0
131
0.0
112
0.0
122
1.0
132
0.0
 79
     0
146
0.0
  0
ENDTAB
  0
TABLE
  2
LTYPE
  5
103
330
0
100
AcDbSymbolTable
 70
     7
  0
LTYPE
  5
111
330
103
100
AcDbSymbolTableRecord
100
AcDbLinetypeTableRecord
  2
BYBLOCK
 70
     0
  3

 72
    65
 73
     0
 40
0.0
  0
LTYPE
  5
112
330
103
100
AcDbSymbolTableRecord
100
AcDbLinetypeTableRecord
  2
BYLAYER
 70
     0
  3

 72
    65
 73
     0
 40
0.0
  0
LTYPE
  5
113
330
103
100
AcDbSymbolTableRecord
100
AcDbLinetypeTableRecord
  2
CONTINUOUS
 70
     0
  3
Solid line
 72
    65
 73
     0
 40
0.0
  0
LTYPE
  5
121
330
103
100
AcDbSymbolTableRecord
100
AcDbLinetypeTableRecord
  2
DOT
 70
     0
  3
. . . . . . . . . . . . . . . . . . . . . . . . . . . . . . . . .
 72
    65
 73
     2
 40
0.25
 49
0.0
 74
     0
 49
-0.25
 74
     0
  0
LTYPE
  5
122
330
103
100
AcDbSymbolTableRecord
100
AcDbLinetypeTableRecord
  2
HIDDEN
 70
     0
  3
__ __ __ __ __ __ __ __ __ __ __ __ __ __ __ __ __ __ __ __ __ 
 72
    65
 73
     2
 40
0.375
 49
0.25
 74
     0
 49
-0.125
 74
     0
  0
LTYPE
  5
123
330
103
100
AcDbSymbolTableRecord
100
AcDbLinetypeTableRecord
  2
DASHED
 70
     0
  3
__ __ __ __ __ __ __ __ __ __ __ __ __ __ __ __ __ __ __ __ __
 72
    65
 73
     2
 40
0.75
 49
0.5
 74
     0
 49
-0.25
 74
     0
  0
LTYPE
  5
124
330
103
100
AcDbSymbolTableRecord
100
AcDbLinetypeTableRecord
  2
DASHDOT
 70
     0
  3
__ . __ . __ . __ . __ . __ . __ . __ . __ . __ . __ . __ . _
 72
    65
 73
     4
 40
1.0
 49
0.5
 74
     0
 49
-0.25
 74
     0
 49
0.0
 74
     0
 49
-0.25
 74
     0
  0
LTYPE
  5
125
330
103
100
AcDbSymbolTableRecord
100
AcDbLinetypeTableRecord
  2
DIVIDE
 70
     0
  3
____ . . ____ . . ____ . . ____ . . ____ . . ____ . . ____ . .
 72
    65
 73
     6
 40
1.25
 49
0.5
 74
     0
 49
-0.25
 74
     0
 49
0.0
 74
     0
 49
-0.25
 74
     0
 49
0.0
 74
     0
 49
-0.25
 74
     0
  0
LTYPE
  5
126
330
103
100
AcDbSymbolTableRecord
100
AcDbLinetypeTableRecord
  2
CENTER
 70
     0
  3
____ _ ____ _ ____ _ ____ _ ____ _ ____ _ ____ _ ____ _ ____ _
 72
    65
 73
     4
 40
2.0
 49
1.25
 74
     0
 49
-0.25
 74
     0
 49
0.25
 74
     0
 49
-0.25
 74
     0
  0
ENDTAB
  0
TABLE
  2
LAYER
  5
100
330
0
100
AcDbSymbolTable
 70
     6
  0
LAYER
  5
10E
102
{ACAD_XDICTIONARY
360
54E
102
}
330
100
100
AcDbSymbolTableRecord
100
AcDbLayerTableRecord
  2
0
 70
     0
 62
     7
  6
CONTINUOUS
370
    -3
390
10D
  0
LAYER
  5
127
102
{ACAD_XDICTIONARY
360
550
102
}
330
100
100
AcDbSymbolTableRecord
100
AcDbLayerTableRecord
  2
CONSTRUCTION_CLASS
 70
     0
 62
     7
  6
CONTINUOUS
370
    -3
390
10D
  0
LAYER
  5
128
102
{ACAD_XDICTIONARY
360
552
102
}
330
100
100
AcDbSymbolTableRecord
100
AcDbLayerTableRecord
  2
PATTERN_CLASS
 70
     0
 62
     7
  6
CONTINUOUS
370
    -3
390
10D
  0
LAYER
  5
129
102
{ACAD_XDICTIONARY
360
554
102
}
330
100
100
AcDbSymbolTableRecord
100
AcDbLayerTableRecord
  2
1
 70
     0
 62
     7
  6
CONTINUOUS
370
    -3
390
10D
  0
LAYER
  5
5FC
102
{ACAD_XDICTIONARY
360
5FD
102
}
330
100
100
AcDbSymbolTableRecord
100
AcDbLayerTableRecord
  2
-1
 70
     0
 62
     7
  6
CONTINUOUS
370
    -3
390
10D
  0
LAYER
  5
5FF
102
{ACAD_XDICTIONARY
360
600
102
}
330
100
100
AcDbSymbolTableRecord
100
AcDbLayerTableRecord
  2
FLAN1$0$1
 70
     0
 62
     7
  6
CONTINUOUS
370
    -3
390
10D
  0
ENDTAB
  0
TABLE
  2
STYLE
  5
101
330
0
100
AcDbSymbolTable
 70
     2
  0
STYLE
  5
10F
330
101
100
AcDbSymbolTableRecord
100
AcDbTextStyleTableRecord
  2
STANDARD
 70
     0
 40
0.0
 41
1.0
 50
0.0
 71
     0
 42
0.0
  3
txt
  4

  0
STYLE
  5
12A
330
101
100
AcDbSymbolTableRecord
100
AcDbTextStyleTableRecord
  2
ROMANS
 70
     0
 40
0.2
 41
1.0
 50
0.0
 71
     0
 42
0.2
  3
ROMANS
  4

  0
ENDTAB
  0
TABLE
  2
VIEW
  5
104
330
0
100
AcDbSymbolTable
 70
     0
  0
ENDTAB
  0
TABLE
  2
UCS
  5
105
330
0
100
AcDbSymbolTable
 70
     0
  0
ENDTAB
  0
TABLE
  2
APPID
  5
107
330
0
100
AcDbSymbolTable
 70
     3
  0
APPID
  5
110
330
107
100
AcDbSymbolTableRecord
100
AcDbRegAppTableRecord
  2
ACAD
 70
     0
  0
APPID
  5
466
330
107
100
AcDbSymbolTableRecord
100
AcDbRegAppTableRecord
  2
ACAD_EXEMPT_FROM_CAD_STANDARDS
 70
     0
  0
APPID
  5
5F2
330
107
100
AcDbSymbolTableRecord
100
AcDbRegAppTableRecord
  2
ACAD_MLEADERVER
 70
     0
  0
ENDTAB
  0
TABLE
  2
DIMSTYLE
  5
108
330
0
100
AcDbSymbolTable
 70
     1
100
AcDbDimStyleTable
 71
     1
340
12B
  0
DIMSTYLE
105
12B
330
108
100
AcDbSymbolTableRecord
100
AcDbDimStyleTableRecord
  2
STANDARD
 70
     0
340
10F
  0
ENDTAB
  0
TABLE
  2
BLOCK_RECORD
  5
FF
330
0
100
AcDbSymbolTable
 70
     1
  0
BLOCK_RECORD
  5
11C
102
{ACAD_XDICTIONARY
360
35B
102
}
330
FF
100
AcDbSymbolTableRecord
100
AcDbBlockTableRecord
  2
*MODEL_SPACE
340
42C
  0
BLOCK_RECORD
  5
118
102
{ACAD_XDICTIONARY
360
359
102
}
330
FF
100
AcDbSymbolTableRecord
100
AcDbBlockTableRecord
  2
*PAPER_SPACE
340
42D
  0
ENDTAB
  0
ENDSEC
  0
SECTION
  2
BLOCKS
  0
BLOCK
  5
11D
330
11C
100
AcDbEntity
  8
0
100
AcDbBlockBegin
  2
*MODEL_SPACE
 70
     0
 10
0.0
 20
0.0
 30
0.0
  3
*MODEL_SPACE
  1

  0
ENDBLK
  5
11E
330
11C
100
AcDbEntity
  8
0
100
AcDbBlockEnd
  0
BLOCK
  5
119
330
118
100
AcDbEntity
 67
     1
  8
0
100
AcDbBlockBegin
  2
*PAPER_SPACE
 70
     0
 10
0.0
 20
0.0
 30
0.0
  3
*PAPER_SPACE
  1

  0
ENDBLK
  5
11A
330
118
100
AcDbEntity
 67
     1
  8
0
100
AcDbBlockEnd
  0
ENDSEC
  0
SECTION
  2
ENTITIES
  0
LINE
  5
29F
330
11C
100
AcDbEntity
  8
1
  6
Continuous
 62
     4
100
AcDbLine
 10
1170.992608299699
 20
460.1152512082935
 30
0.0
 11
506.8603038809834
 21
460.1152512082935
 31
0.0
  0
LINE
  5
2DF
330
11C
100
AcDbEntity
  8
1
  6
Continuous
 62
     4
100
AcDbLine
 10
828.7485090359101
 20
667.3500386146334
 30
0.0
 11
828.7485090359101
 21
870.9212562859198
 31
0.0
  0
LINE
  5
2E4
330
11C
100
AcDbEntity
  8
1
  6
Continuous
 62
     4
100
AcDbLine
 10
896.9583977832279
 20
672.1489304641892
 30
0.0
 11
896.9583977832279
 21
687.6710075288587
 31
0.0
  0
LINE
  5
2E5
330
11C
100
AcDbEntity
  8
1
  6
Continuous
 62
     4
100
AcDbLine
 10
760.5442683531857
 20
669.2080993760237
 30
0.0
 11
760.5442683531857
 21
687.6766874769409
 31
0.0
  0
LINE
  5
2E6
330
11C
100
AcDbEntity
  8
1
  6
Continuous
 62
     4
100
AcDbLine
 10
971.4359862246226
 20
728.5400873092985
 30
0.0
 11
1026.202923864083
 21
669.4946877310712
 31
0.0
  0
LINE
  5
2E7
330
11C
100
AcDbEntity
  8
1
  6
Continuous
 62
     4
100
AcDbLine
 10
686.0610318471973
 20
728.5400873092985
 30
0.0
 11
631.2940942077349
 21
669.4946877310712
 31
0.0
  0
LINE
  5
31F
330
11C
100
AcDbEntity
  8
1
  6
Continuous
 62
     4
100
AcDbLine
 10
907.4527497186343
 20
868.5033148989086
 30
0.0
 11
909.8706911056448
 21
870.9212562859198
 31
0.0
  0
LINE
  5
473
330
11C
100
AcDbEntity
  8
1
  6
Continuous
 62
     4
100
AcDbLine
 10
897.1085090359101
 20
663.7632712443489
 30
0.0
 11
902.8399255226327
 21
669.4946877310712
 31
0.0
1001
ACAD
1010
0.0
1020
0.0
1030
0.0
  0
LINE
  5
474
330
11C
100
AcDbEntity
  8
1
  6
Continuous
 62
     4
100
AcDbLine
 10
897.1085090359101
 20
653.156669526551
 30
0.0
 11
913.4465272404312
 21
669.4946877310712
 31
0.0
1001
ACAD
1010
0.0
1020
0.0
1030
0.0
  0
LINE
  5
475
330
11C
100
AcDbEntity
  8
1
  6
Continuous
 62
     4
100
AcDbLine
 10
897.1085090359101
 20
642.5500678087527
 30
0.0
 11
924.0531289582291
 21
669.4946877310712
 31
0.0
1001
ACAD
1010
0.0
1020
0.0
1030
0.0
  0
LINE
  5
476
330
11C
100
AcDbEntity
  8
1
  6
Continuous
 62
     4
100
AcDbLine
 10
897.1085090359101
 20
631.9434660909546
 30
0.0
 11
934.659730676028
 21
669.4946877310712
 31
0.0
1001
ACAD
1010
0.0
1020
0.0
1030
0.0
  0
LINE
  5
477
330
11C
100
AcDbEntity
  8
1
  6
Continuous
 62
     4
100
AcDbLine
 10
906.1762132608267
 20
630.4045685980721
 30
0.0
 11
945.2663323938256
 21
669.4946877310712
 31
0.0
1001
ACAD
1010
0.0
1020
0.0
1030
0.0
  0
LINE
  5
478
330
11C
100
AcDbEntity
  8
1
  6
Continuous
 62
     4
100
AcDbLine
 10
916.7828149786247
 20
630.4045685980719
 30
0.0
 11
955.8729341116231
 21
669.4946877310712
 31
0.0
1001
ACAD
1010
0.0
1020
0.0
1030
0.0
  0
LINE
  5
479
330
11C
100
AcDbEntity
  8
1
  6
Continuous
 62
     4
100
AcDbLine
 10
927.3894166964231
 20
630.4045685980719
 30
0.0
 11
966.479535829422
 21
669.4946877310712
 31
0.0
1001
ACAD
1010
0.0
1020
0.0
1030
0.0
  0
LINE
  5
47A
330
11C
100
AcDbEntity
  8
1
  6
Continuous
 62
     4
100
AcDbLine
 10
937.9960184142213
 20
630.4045685980719
 30
0.0
 11
977.0861375472204
 21
669.4946877310712
 31
0.0
1001
ACAD
1010
0.0
1020
0.0
1030
0.0
  0
LINE
  5
47B
330
11C
100
AcDbEntity
  8
1
  6
Continuous
 62
     4
100
AcDbLine
 10
948.6026201320196
 20
630.4045685980721
 30
0.0
 11
987.6927392650188
 21
669.4946877310712
 31
0.0
1001
ACAD
1010
0.0
1020
0.0
1030
0.0
  0
LINE
  5
47C
330
11C
100
AcDbEntity
  8
1
  6
Continuous
 62
     4
100
AcDbLine
 10
959.2092218498176
 20
630.4045685980721
 30
0.0
 11
998.2993409828166
 21
669.4946877310712
 31
0.0
1001
ACAD
1010
0.0
1020
0.0
1030
0.0
  0
LINE
  5
47D
330
11C
100
AcDbEntity
  8
1
  6
Continuous
 62
     4
100
AcDbLine
 10
969.8158235676162
 20
630.4045685980723
 30
0.0
 11
1008.905942700613
 21
669.4946877310712
 31
0.0
1001
ACAD
1010
0.0
1020
0.0
1030
0.0
  0
LINE
  5
47E
330
11C
100
AcDbEntity
  8
1
  6
Continuous
 62
     4
100
AcDbLine
 10
980.4224252854139
 20
630.4045685980721
 30
0.0
 11
1019.512544418412
 21
669.4946877310712
 31
0.0
1001
ACAD
1010
0.0
1020
0.0
1030
0.0
  0
LINE
  5
47F
330
11C
100
AcDbEntity
  8
1
  6
Continuous
 62
     4
100
AcDbLine
 10
991.0290270032119
 20
630.4045685980721
 30
0.0
 11
1030.11914613621
 21
669.4946877310715
 31
0.0
1001
ACAD
1010
0.0
1020
0.0
1030
0.0
  0
LINE
  5
480
330
11C
100
AcDbEntity
  8
1
  6
Continuous
 62
     4
100
AcDbLine
 10
1001.635628721009
 20
630.4045685980723
 30
0.0
 11
1040.725747854008
 21
669.4946877310712
 31
0.0
1001
ACAD
1010
0.0
1020
0.0
1030
0.0
  0
LINE
  5
481
330
11C
100
AcDbEntity
  8
1
  6
Continuous
 62
     4
100
AcDbLine
 10
1012.242230438807
 20
630.4045685980723
 30
0.0
 11
1051.332349571806
 21
669.4946877310712
 31
0.0
1001
ACAD
1010
0.0
1020
0.0
1030
0.0
  0
LINE
  5
482
330
11C
100
AcDbEntity
  8
1
  6
Continuous
 62
     4
100
AcDbLine
 10
1022.848832156606
 20
630.4045685980719
 30
0.0
 11
1061.938951289605
 21
669.4946877310712
 31
0.0
1001
ACAD
1010
0.0
1020
0.0
1030
0.0
  0
LINE
  5
483
330
11C
100
AcDbEntity
  8
1
  6
Continuous
 62
     4
100
AcDbLine
 10
1033.455433874403
 20
630.4045685980721
 30
0.0
 11
1072.545553007403
 21
669.4946877310712
 31
0.0
1001
ACAD
1010
0.0
1020
0.0
1030
0.0
  0
LINE
  5
484
330
11C
100
AcDbEntity
  8
1
  6
Continuous
 62
     4
100
AcDbLine
 10
1044.062035592203
 20
630.4045685980723
 30
0.0
 11
1083.152154725202
 21
669.4946877310712
 31
0.0
1001
ACAD
1010
0.0
1020
0.0
1030
0.0
  0
LINE
  5
485
330
11C
100
AcDbEntity
  8
1
  6
Continuous
 62
     4
100
AcDbLine
 10
1054.668637310001
 20
630.4045685980723
 30
0.0
 11
1093.758756443
 21
669.4946877310712
 31
0.0
1001
ACAD
1010
0.0
1020
0.0
1030
0.0
  0
LINE
  5
486
330
11C
100
AcDbEntity
  8
1
  6
Continuous
 62
     4
100
AcDbLine
 10
1065.275239027799
 20
630.4045685980723
 30
0.0
 11
1104.365358160798
 21
669.4946877310712
 31
0.0
1001
ACAD
1010
0.0
1020
0.0
1030
0.0
  0
LINE
  5
487
330
11C
100
AcDbEntity
  8
1
  6
Continuous
 62
     4
100
AcDbLine
 10
1075.881840745597
 20
630.4045685980723
 30
0.0
 11
1114.971959878596
 21
669.4946877310712
 31
0.0
1001
ACAD
1010
0.0
1020
0.0
1030
0.0
  0
LINE
  5
488
330
11C
100
AcDbEntity
  8
1
  6
Continuous
 62
     4
100
AcDbLine
 10
1086.488442463396
 20
630.4045685980723
 30
0.0
 11
1125.578561596394
 21
669.4946877310712
 31
0.0
1001
ACAD
1010
0.0
1020
0.0
1030
0.0
  0
LINE
  5
489
330
11C
100
AcDbEntity
  8
1
  6
Continuous
 62
     4
100
AcDbLine
 10
1097.095044181193
 20
630.4045685980723
 30
0.0
 11
1136.185163314193
 21
669.4946877310712
 31
0.0
1001
ACAD
1010
0.0
1020
0.0
1030
0.0
  0
LINE
  5
48A
330
11C
100
AcDbEntity
  8
1
  6
Continuous
 62
     4
100
AcDbLine
 10
1107.701645898992
 20
630.4045685980719
 30
0.0
 11
1146.79176503199
 21
669.4946877310712
 31
0.0
1001
ACAD
1010
0.0
1020
0.0
1030
0.0
  0
LINE
  5
48B
330
11C
100
AcDbEntity
  8
1
  6
Continuous
 62
     4
100
AcDbLine
 10
1118.308247616789
 20
630.4045685980724
 30
0.0
 11
1157.398366749789
 21
669.4946877310711
 31
0.0
1001
ACAD
1010
0.0
1020
0.0
1030
0.0
  0
LINE
  5
48C
330
11C
100
AcDbEntity
  8
1
  6
Continuous
 62
     4
100
AcDbLine
 10
1128.914849334589
 20
630.4045685980724
 30
0.0
 11
1168.004968467586
 21
669.4946877310712
 31
0.0
1001
ACAD
1010
0.0
1020
0.0
1030
0.0
  0
LINE
  5
48D
330
11C
100
AcDbEntity
  8
1
  6
Continuous
 62
     4
100
AcDbLine
 10
1139.521451052387
 20
630.4045685980723
 30
0.0
 11
1170.992608299699
 21
661.8757258453846
 31
0.0
1001
ACAD
1010
0.0
1020
0.0
1030
0.0
  0
LINE
  5
48E
330
11C
100
AcDbEntity
  8
1
  6
Continuous
 62
     4
100
AcDbLine
 10
1150.128052770184
 20
630.4045685980723
 30
0.0
 11
1170.992608299699
 21
651.2691241275862
 31
0.0
1001
ACAD
1010
0.0
1020
0.0
1030
0.0
  0
LINE
  5
48F
330
11C
100
AcDbEntity
  8
1
  6
Continuous
 62
     4
100
AcDbLine
 10
1160.734654487983
 20
630.4045685980723
 30
0.0
 11
1170.992608299699
 21
640.6625224097882
 31
0.0
1001
ACAD
1010
0.0
1020
0.0
1030
0.0
  0
LINE
  5
490
330
11C
100
AcDbEntity
  8
1
  6
Continuous
 62
     4
100
AcDbLine
 10
907.4527497186338
 20
865.0263428474405
 30
0.0
 11
913.3476631571131
 21
870.9212562859198
 31
0.0
1001
ACAD
1010
0.0
1020
0.0
1030
0.0
  0
LINE
  5
491
330
11C
100
AcDbEntity
  8
1
  6
Continuous
 62
     4
100
AcDbLine
 10
907.4527497186343
 20
854.4197411296421
 30
0.0
 11
922.544148194563
 21
869.5111396055706
 31
0.0
1001
ACAD
1010
0.0
1020
0.0
1030
0.0
  0
LINE
  5
492
330
11C
100
AcDbEntity
  8
1
  6
Continuous
 62
     4
100
AcDbLine
 10
907.4527497186343
 20
843.8131394118441
 30
0.0
 11
928.8600121312539
 21
865.2204018244638
 31
0.0
1001
ACAD
1010
0.0
1020
0.0
1030
0.0
  0
LINE
  5
493
330
11C
100
AcDbEntity
  8
1
  6
Continuous
 62
     4
100
AcDbLine
 10
907.4527497186343
 20
833.2065376940459
 30
0.0
 11
933.1820070811462
 21
858.9357950565577
 31
0.0
1001
ACAD
1010
0.0
1020
0.0
1030
0.0
  0
LINE
  5
494
330
11C
100
AcDbEntity
  8
1
  6
Continuous
 62
     4
100
AcDbLine
 10
907.4527497186343
 20
822.5999359762477
 30
0.0
 11
936.5083464418068
 21
851.6555326994202
 31
0.0
1001
ACAD
1010
0.0
1020
0.0
1030
0.0
  0
LINE
  5
495
330
11C
100
AcDbEntity
  8
1
  6
Continuous
 62
     4
100
AcDbLine
 10
907.4527497186343
 20
811.9933342584495
 30
0.0
 11
939.8346858024671
 21
844.3752703422827
 31
0.0
1001
ACAD
1010
0.0
1020
0.0
1030
0.0
  0
LINE
  5
496
330
11C
100
AcDbEntity
  8
1
  6
Continuous
 62
     4
100
AcDbLine
 10
907.4527497186343
 20
801.3867325406511
 30
0.0
 11
943.1610251631282
 21
837.095007985145
 31
0.0
1001
ACAD
1010
0.0
1020
0.0
1030
0.0
  0
LINE
  5
497
330
11C
100
AcDbEntity
  8
1
  6
Continuous
 62
     4
100
AcDbLine
 10
891.9527497186336
 20
775.2801308228529
 30
0.0
 11
895.9002169032316
 21
779.2275980074505
 31
0.0
1001
ACAD
1010
0.0
1020
0.0
1030
0.0
  0
LINE
  5
498
330
11C
100
AcDbEntity
  8
1
  6
Continuous
 62
     4
100
AcDbLine
 10
907.4527497186338
 20
790.7801308228529
 30
0.0
 11
946.4873645237886
 21
829.8147456280075
 31
0.0
1001
ACAD
1010
0.0
1020
0.0
1030
0.0
  0
LINE
  5
499
330
11C
100
AcDbEntity
  8
1
  6
Continuous
 62
     4
100
AcDbLine
 10
891.9527497186336
 20
764.6735291050547
 30
0.0
 11
906.5068186210297
 21
779.2275980074505
 31
0.0
1001
ACAD
1010
0.0
1020
0.0
1030
0.0
  0
LINE
  5
49A
330
11C
100
AcDbEntity
  8
1
  6
Continuous
 62
     4
100
AcDbLine
 10
907.4527497186338
 20
780.1735291050547
 30
0.0
 11
949.813703884449
 21
822.5344832708699
 31
0.0
1001
ACAD
1010
0.0
1020
0.0
1030
0.0
  0
LINE
  5
49B
330
11C
100
AcDbEntity
  8
1
  6
Continuous
 62
     4
100
AcDbLine
 10
891.9527497186336
 20
754.0669273872563
 30
0.0
 11
953.1400432451103
 21
815.2542209137322
 31
0.0
1001
ACAD
1010
0.0
1020
0.0
1030
0.0
  0
LINE
  5
49C
330
11C
100
AcDbEntity
  8
1
  6
Continuous
 62
     4
100
AcDbLine
 10
891.9527497186336
 20
743.4603256694582
 30
0.0
 11
956.4663826057707
 21
807.9739585565945
 31
0.0
1001
ACAD
1010
0.0
1020
0.0
1030
0.0
  0
LINE
  5
49D
330
11C
100
AcDbEntity
  8
1
  6
Continuous
 62
     4
100
AcDbLine
 10
891.9527497186336
 20
732.8537239516601
 30
0.0
 11
959.792721966431
 21
800.6936961994567
 31
0.0
1001
ACAD
1010
0.0
1020
0.0
1030
0.0
  0
LINE
  5
49E
330
11C
100
AcDbEntity
  8
1
  6
Continuous
 62
     4
100
AcDbLine
 10
892.2062033198269
 20
722.5005758350548
 30
0.0
 11
963.1190613270916
 21
793.4134338423196
 31
0.0
1001
ACAD
1010
0.0
1020
0.0
1030
0.0
  0
LINE
  5
49F
330
11C
100
AcDbEntity
  8
1
  6
Continuous
 62
     4
100
AcDbLine
 10
893.4784846959722
 20
713.1662554934016
 30
0.0
 11
966.4454006877523
 21
786.1331714851822
 31
0.0
1001
ACAD
1010
0.0
1020
0.0
1030
0.0
  0
LINE
  5
4A0
330
11C
100
AcDbEntity
  8
1
  6
Continuous
 62
     4
100
AcDbLine
 10
894.7507660721173
 20
703.8319351517487
 30
0.0
 11
969.7717400484128
 21
778.8529091280444
 31
0.0
1001
ACAD
1010
0.0
1020
0.0
1030
0.0
  0
LINE
  5
4A1
330
11C
100
AcDbEntity
  8
1
  6
Continuous
 62
     4
100
AcDbLine
 10
896.0230474482626
 20
694.4976148100956
 30
0.0
 11
971.4359862246226
 21
769.9105535864559
 31
0.0
1001
ACAD
1010
0.0
1020
0.0
1030
0.0
  0
LINE
  5
4A2
330
11C
100
AcDbEntity
  8
1
  6
Continuous
 62
     4
100
AcDbLine
 10
899.7899839150347
 20
687.6579495590698
 30
0.0
 11
971.4359862246226
 21
759.3039518686577
 31
0.0
1001
ACAD
1010
0.0
1020
0.0
1030
0.0
  0
LINE
  5
4A3
330
11C
100
AcDbEntity
  8
1
  6
Continuous
 62
     4
100
AcDbLine
 10
910.3269961466867
 20
687.5883600729236
 30
0.0
 11
971.4359862246226
 21
748.6973501508595
 31
0.0
1001
ACAD
1010
0.0
1020
0.0
1030
0.0
  0
LINE
  5
4A4
330
11C
100
AcDbEntity
  8
1
  6
Continuous
 62
     4
100
AcDbLine
 10
921.6788998459083
 20
688.3336620543467
 30
0.0
 11
971.4359862246226
 21
738.0907484330612
 31
0.0
1001
ACAD
1010
0.0
1020
0.0
1030
0.0
  0
LINE
  5
4A5
330
11C
100
AcDbEntity
  8
1
  6
Continuous
 62
     4
100
AcDbLine
 10
507.0890930075377
 20
284.3504569337744
 30
0.0
 11
510.3538872820561
 21
287.615251208293
 31
0.0
1001
ACAD
1010
0.0
1020
0.0
1030
0.0
  0
LINE
  5
4A6
330
11C
100
AcDbEntity
  8
1
  6
Continuous
 62
     4
100
AcDbLine
 10
507.0993643610059
 20
273.7541265694448
 30
0.0
 11
520.9604889998546
 21
287.6152512082932
 31
0.0
1001
ACAD
1010
0.0
1020
0.0
1030
0.0
  0
LINE
  5
4A7
330
11C
100
AcDbEntity
  8
1
  6
Continuous
 62
     4
100
AcDbLine
 10
507.1096357144745
 20
263.157796205115
 30
0.0
 11
531.5670907176529
 21
287.6152512082932
 31
0.0
1001
ACAD
1010
0.0
1020
0.0
1030
0.0
  0
LINE
  5
4A8
330
11C
100
AcDbEntity
  8
1
  6
Continuous
 62
     4
100
AcDbLine
 10
507.1199070679433
 20
252.5614658407853
 30
0.0
 11
542.1736924354511
 21
287.615251208293
 31
0.0
1001
ACAD
1010
0.0
1020
0.0
1030
0.0
  0
LINE
  5
4A9
330
11C
100
AcDbEntity
  8
1
  6
Continuous
 62
     4
100
AcDbLine
 10
513.9870403518482
 20
248.821997406892
 30
0.0
 11
552.7802941532493
 21
287.6152512082932
 31
0.0
1001
ACAD
1010
0.0
1020
0.0
1030
0.0
  0
LINE
  5
4AA
330
11C
100
AcDbEntity
  8
1
  6
Continuous
 62
     4
100
AcDbLine
 10
524.5936420696464
 20
248.821997406892
 30
0.0
 11
563.3868958710475
 21
287.6152512082932
 31
0.0
1001
ACAD
1010
0.0
1020
0.0
1030
0.0
  0
LINE
  5
4AB
330
11C
100
AcDbEntity
  8
1
  6
Continuous
 62
     4
100
AcDbLine
 10
535.2002437874444
 20
248.8219974068921
 30
0.0
 11
573.9934975888457
 21
287.6152512082932
 31
0.0
1001
ACAD
1010
0.0
1020
0.0
1030
0.0
  0
LINE
  5
4AC
330
11C
100
AcDbEntity
  8
1
  6
Continuous
 62
     4
100
AcDbLine
 10
545.8068455052426
 20
248.8219974068921
 30
0.0
 11
584.6000993066438
 21
287.6152512082932
 31
0.0
1001
ACAD
1010
0.0
1020
0.0
1030
0.0
  0
LINE
  5
4AD
330
11C
100
AcDbEntity
  8
1
  6
Continuous
 62
     4
100
AcDbLine
 10
556.4134472230408
 20
248.821997406892
 30
0.0
 11
595.2067010244419
 21
287.6152512082932
 31
0.0
1001
ACAD
1010
0.0
1020
0.0
1030
0.0
  0
LINE
  5
4AE
330
11C
100
AcDbEntity
  8
1
  6
Continuous
 62
     4
100
AcDbLine
 10
567.0200489408391
 20
248.821997406892
 30
0.0
 11
605.8133027422402
 21
287.6152512082933
 31
0.0
1001
ACAD
1010
0.0
1020
0.0
1030
0.0
  0
LINE
  5
4AF
330
11C
100
AcDbEntity
  8
1
  6
Continuous
 62
     4
100
AcDbLine
 10
577.6266506586372
 20
248.821997406892
 30
0.0
 11
616.4199044600384
 21
287.6152512082932
 31
0.0
1001
ACAD
1010
0.0
1020
0.0
1030
0.0
  0
LINE
  5
4B0
330
11C
100
AcDbEntity
  8
1
  6
Continuous
 62
     4
100
AcDbLine
 10
588.2332523764354
 20
248.8219974068921
 30
0.0
 11
627.0265061778366
 21
287.6152512082933
 31
0.0
1001
ACAD
1010
0.0
1020
0.0
1030
0.0
  0
LINE
  5
4B1
330
11C
100
AcDbEntity
  8
1
  6
Continuous
 62
     4
100
AcDbLine
 10
598.8398540942338
 20
248.821997406892
 30
0.0
 11
637.6331078956347
 21
287.6152512082933
 31
0.0
1001
ACAD
1010
0.0
1020
0.0
1030
0.0
  0
LINE
  5
4B2
330
11C
100
AcDbEntity
  8
1
  6
Continuous
 62
     4
100
AcDbLine
 10
609.4464558120319
 20
248.8219974068921
 30
0.0
 11
648.2397096134328
 21
287.6152512082933
 31
0.0
1001
ACAD
1010
0.0
1020
0.0
1030
0.0
  0
LINE
  5
4B3
330
11C
100
AcDbEntity
  8
1
  6
Continuous
 62
     4
100
AcDbLine
 10
620.0530575298301
 20
248.8219974068921
 30
0.0
 11
658.8463113312315
 21
287.6152512082933
 31
0.0
1001
ACAD
1010
0.0
1020
0.0
1030
0.0
  0
LINE
  5
4B4
330
11C
100
AcDbEntity
  8
1
  6
Continuous
 62
     4
100
AcDbLine
 10
630.6596592476283
 20
248.8219974068921
 30
0.0
 11
669.4529130490297
 21
287.6152512082934
 31
0.0
1001
ACAD
1010
0.0
1020
0.0
1030
0.0
  0
LINE
  5
4B5
330
11C
100
AcDbEntity
  8
1
  6
Continuous
 62
     4
100
AcDbLine
 10
641.2662609654264
 20
248.821997406892
 30
0.0
 11
680.0595147668278
 21
287.6152512082934
 31
0.0
1001
ACAD
1010
0.0
1020
0.0
1030
0.0
  0
LINE
  5
4B6
330
11C
100
AcDbEntity
  8
1
  6
Continuous
 62
     4
100
AcDbLine
 10
651.8728626832246
 20
248.8219974068921
 30
0.0
 11
690.6661164846261
 21
287.6152512082933
 31
0.0
1001
ACAD
1010
0.0
1020
0.0
1030
0.0
  0
LINE
  5
4B7
330
11C
100
AcDbEntity
  8
1
  6
Continuous
 62
     4
100
AcDbLine
 10
662.4794644010226
 20
248.8219974068921
 30
0.0
 11
701.2727182024243
 21
287.6152512082933
 31
0.0
1001
ACAD
1010
0.0
1020
0.0
1030
0.0
  0
LINE
  5
4B8
330
11C
100
AcDbEntity
  8
1
  6
Continuous
 62
     4
100
AcDbLine
 10
673.0860661188208
 20
248.8219974068921
 30
0.0
 11
711.8793199202224
 21
287.6152512082934
 31
0.0
1001
ACAD
1010
0.0
1020
0.0
1030
0.0
  0
LINE
  5
4B9
330
11C
100
AcDbEntity
  8
1
  6
Continuous
 62
     4
100
AcDbLine
 10
683.6926678366197
 20
248.8219974068921
 30
0.0
 11
722.4859216380207
 21
287.6152512082934
 31
0.0
1001
ACAD
1010
0.0
1020
0.0
1030
0.0
  0
LINE
  5
4BA
330
11C
100
AcDbEntity
  8
1
  6
Continuous
 62
     4
100
AcDbLine
 10
694.2992695544177
 20
248.8219974068921
 30
0.0
 11
733.0925233558189
 21
287.6152512082933
 31
0.0
1001
ACAD
1010
0.0
1020
0.0
1030
0.0
  0
LINE
  5
4BB
330
11C
100
AcDbEntity
  8
1
  6
Continuous
 62
     4
100
AcDbLine
 10
704.905871272216
 20
248.8219974068921
 30
0.0
 11
743.6991250736171
 21
287.6152512082934
 31
0.0
1001
ACAD
1010
0.0
1020
0.0
1030
0.0
  0
LINE
  5
4BC
330
11C
100
AcDbEntity
  8
1
  6
Continuous
 62
     4
100
AcDbLine
 10
715.5124729900141
 20
248.8219974068921
 30
0.0
 11
754.3057267914153
 21
287.6152512082934
 31
0.0
1001
ACAD
1010
0.0
1020
0.0
1030
0.0
  0
LINE
  5
4BD
330
11C
100
AcDbEntity
  8
1
  6
Continuous
 62
     4
100
AcDbLine
 10
726.1190747078122
 20
248.8219974068921
 30
0.0
 11
764.9123285092139
 21
287.6152512082935
 31
0.0
1001
ACAD
1010
0.0
1020
0.0
1030
0.0
  0
LINE
  5
4BE
330
11C
100
AcDbEntity
  8
1
  6
Continuous
 62
     4
100
AcDbLine
 10
736.7256764256104
 20
248.8219974068921
 30
0.0
 11
775.5189302270122
 21
287.6152512082935
 31
0.0
1001
ACAD
1010
0.0
1020
0.0
1030
0.0
  0
LINE
  5
4BF
330
11C
100
AcDbEntity
  8
1
  6
Continuous
 62
     4
100
AcDbLine
 10
747.3322781434093
 20
248.8219974068921
 30
0.0
 11
786.1255319448101
 21
287.6152512082935
 31
0.0
1001
ACAD
1010
0.0
1020
0.0
1030
0.0
  0
LINE
  5
4C0
330
11C
100
AcDbEntity
  8
1
  6
Continuous
 62
     4
100
AcDbLine
 10
757.9388798612074
 20
248.8219974068921
 30
0.0
 11
796.7321336626085
 21
287.6152512082935
 31
0.0
1001
ACAD
1010
0.0
1020
0.0
1030
0.0
  0
LINE
  5
4C1
330
11C
100
AcDbEntity
  8
1
  6
Continuous
 62
     4
100
AcDbLine
 10
768.5454815790051
 20
248.8219974068921
 30
0.0
 11
807.3387353804067
 21
287.6152512082935
 31
0.0
1001
ACAD
1010
0.0
1020
0.0
1030
0.0
  0
LINE
  5
4C2
330
11C
100
AcDbEntity
  8
1
  6
Continuous
 62
     4
100
AcDbLine
 10
779.1520832968033
 20
248.8219974068921
 30
0.0
 11
817.9453370982049
 21
287.6152512082935
 31
0.0
1001
ACAD
1010
0.0
1020
0.0
1030
0.0
  0
LINE
  5
4C3
330
11C
100
AcDbEntity
  8
1
  6
Continuous
 62
     4
100
AcDbLine
 10
789.7586850146019
 20
248.8219974068921
 30
0.0
 11
828.5519388160031
 21
287.6152512082935
 31
0.0
1001
ACAD
1010
0.0
1020
0.0
1030
0.0
  0
LINE
  5
4C4
330
11C
100
AcDbEntity
  8
1
  6
Continuous
 62
     4
100
AcDbLine
 10
800.3652867323999
 20
248.8219974068921
 30
0.0
 11
839.1585405338013
 21
287.6152512082935
 31
0.0
1001
ACAD
1010
0.0
1020
0.0
1030
0.0
  0
LINE
  5
4C5
330
11C
100
AcDbEntity
  8
1
  6
Continuous
 62
     4
100
AcDbLine
 10
810.9718884501981
 20
248.8219974068921
 30
0.0
 11
849.7651422515994
 21
287.6152512082935
 31
0.0
1001
ACAD
1010
0.0
1020
0.0
1030
0.0
  0
LINE
  5
4C6
330
11C
100
AcDbEntity
  8
1
  6
Continuous
 62
     4
100
AcDbLine
 10
821.5784901679965
 20
248.8219974068921
 30
0.0
 11
860.3717439693976
 21
287.6152512082935
 31
0.0
1001
ACAD
1010
0.0
1020
0.0
1030
0.0
  0
LINE
  5
4C7
330
11C
100
AcDbEntity
  8
1
  6
Continuous
 62
     4
100
AcDbLine
 10
832.1850918857947
 20
248.8219974068921
 30
0.0
 11
870.9783456871958
 21
287.6152512082935
 31
0.0
1001
ACAD
1010
0.0
1020
0.0
1030
0.0
  0
LINE
  5
4C8
330
11C
100
AcDbEntity
  8
1
  6
Continuous
 62
     4
100
AcDbLine
 10
842.7916936035929
 20
248.8219974068921
 30
0.0
 11
881.5849474049937
 21
287.6152512082935
 31
0.0
1001
ACAD
1010
0.0
1020
0.0
1030
0.0
  0
LINE
  5
4C9
330
11C
100
AcDbEntity
  8
1
  6
Continuous
 62
     4
100
AcDbLine
 10
853.3982953213911
 20
248.8219974068921
 30
0.0
 11
892.191549122792
 21
287.6152512082935
 31
0.0
1001
ACAD
1010
0.0
1020
0.0
1030
0.0
  0
LINE
  5
4CA
330
11C
100
AcDbEntity
  8
1
  6
Continuous
 62
     4
100
AcDbLine
 10
864.0048970391893
 20
248.8219974068921
 30
0.0
 11
902.7981508405908
 21
287.6152512082935
 31
0.0
1001
ACAD
1010
0.0
1020
0.0
1030
0.0
  0
LINE
  5
4CB
330
11C
100
AcDbEntity
  8
1
  6
Continuous
 62
     4
100
AcDbLine
 10
874.6114987569875
 20
248.8219974068921
 30
0.0
 11
913.4047525583888
 21
287.6152512082936
 31
0.0
1001
ACAD
1010
0.0
1020
0.0
1030
0.0
  0
LINE
  5
4CC
330
11C
100
AcDbEntity
  8
1
  6
Continuous
 62
     4
100
AcDbLine
 10
885.2181004747857
 20
248.8219974068921
 30
0.0
 11
924.0113542761873
 21
287.6152512082935
 31
0.0
1001
ACAD
1010
0.0
1020
0.0
1030
0.0
  0
LINE
  5
4CD
330
11C
100
AcDbEntity
  8
1
  6
Continuous
 62
     4
100
AcDbLine
 10
895.8247021925838
 20
248.8219974068921
 30
0.0
 11
934.6179559939846
 21
287.6152512082936
 31
0.0
1001
ACAD
1010
0.0
1020
0.0
1030
0.0
  0
LINE
  5
4CE
330
11C
100
AcDbEntity
  8
1
  6
Continuous
 62
     4
100
AcDbLine
 10
906.4313039103819
 20
248.8219974068921
 30
0.0
 11
945.2245577117841
 21
287.6152512082936
 31
0.0
1001
ACAD
1010
0.0
1020
0.0
1030
0.0
  0
LINE
  5
4CF
330
11C
100
AcDbEntity
  8
1
  6
Continuous
 62
     4
100
AcDbLine
 10
917.0379056281799
 20
248.8219974068921
 30
0.0
 11
955.8311594295815
 21
287.6152512082936
 31
0.0
1001
ACAD
1010
0.0
1020
0.0
1030
0.0
  0
LINE
  5
4D0
330
11C
100
AcDbEntity
  8
1
  6
Continuous
 62
     4
100
AcDbLine
 10
927.6445073459782
 20
248.8219974068921
 30
0.0
 11
966.4377611473803
 21
287.6152512082936
 31
0.0
1001
ACAD
1010
0.0
1020
0.0
1030
0.0
  0
LINE
  5
4D1
330
11C
100
AcDbEntity
  8
1
  6
Continuous
 62
     4
100
AcDbLine
 10
938.251109063777
 20
248.8219974068921
 30
0.0
 11
977.0443628651781
 21
287.6152512082936
 31
0.0
1001
ACAD
1010
0.0
1020
0.0
1030
0.0
  0
LINE
  5
4D2
330
11C
100
AcDbEntity
  8
1
  6
Continuous
 62
     4
100
AcDbLine
 10
948.8577107815746
 20
248.8219974068921
 30
0.0
 11
987.6509645829766
 21
287.6152512082936
 31
0.0
1001
ACAD
1010
0.0
1020
0.0
1030
0.0
  0
LINE
  5
4D3
330
11C
100
AcDbEntity
  8
1
  6
Continuous
 62
     4
100
AcDbLine
 10
959.4643124993726
 20
248.8219974068921
 30
0.0
 11
998.2575663007743
 21
287.6152512082936
 31
0.0
1001
ACAD
1010
0.0
1020
0.0
1030
0.0
  0
LINE
  5
4D4
330
11C
100
AcDbEntity
  8
1
  6
Continuous
 62
     4
100
AcDbLine
 10
970.070914217171
 20
248.8219974068921
 30
0.0
 11
1008.864168018572
 21
287.6152512082936
 31
0.0
1001
ACAD
1010
0.0
1020
0.0
1030
0.0
  0
LINE
  5
4D5
330
11C
100
AcDbEntity
  8
1
  6
Continuous
 62
     4
100
AcDbLine
 10
980.6775159349692
 20
248.8219974068921
 30
0.0
 11
1019.470769736369
 21
287.6152512082936
 31
0.0
1001
ACAD
1010
0.0
1020
0.0
1030
0.0
  0
LINE
  5
4D6
330
11C
100
AcDbEntity
  8
1
  6
Continuous
 62
     4
100
AcDbLine
 10
991.2841176527674
 20
248.821997406892
 30
0.0
 11
1030.077371454168
 21
287.6152512082936
 31
0.0
1001
ACAD
1010
0.0
1020
0.0
1030
0.0
  0
LINE
  5
4D7
330
11C
100
AcDbEntity
  8
1
  6
Continuous
 62
     4
100
AcDbLine
 10
1001.890719370565
 20
248.821997406892
 30
0.0
 11
1040.683973171967
 21
287.6152512082936
 31
0.0
1001
ACAD
1010
0.0
1020
0.0
1030
0.0
  0
LINE
  5
4D8
330
11C
100
AcDbEntity
  8
1
  6
Continuous
 62
     4
100
AcDbLine
 10
1012.497321088363
 20
248.821997406892
 30
0.0
 11
1051.290574889764
 21
287.6152512082938
 31
0.0
1001
ACAD
1010
0.0
1020
0.0
1030
0.0
  0
LINE
  5
4D9
330
11C
100
AcDbEntity
  8
1
  6
Continuous
 62
     4
100
AcDbLine
 10
1023.103922806161
 20
248.821997406892
 30
0.0
 11
1061.897176607563
 21
287.6152512082938
 31
0.0
1001
ACAD
1010
0.0
1020
0.0
1030
0.0
  0
LINE
  5
4DA
330
11C
100
AcDbEntity
  8
1
  6
Continuous
 62
     4
100
AcDbLine
 10
1033.71052452396
 20
248.821997406892
 30
0.0
 11
1072.503778325361
 21
287.6152512082938
 31
0.0
1001
ACAD
1010
0.0
1020
0.0
1030
0.0
  0
LINE
  5
4DB
330
11C
100
AcDbEntity
  8
1
  6
Continuous
 62
     4
100
AcDbLine
 10
1044.317126241757
 20
248.821997406892
 30
0.0
 11
1083.110380043159
 21
287.6152512082936
 31
0.0
1001
ACAD
1010
0.0
1020
0.0
1030
0.0
  0
LINE
  5
4DC
330
11C
100
AcDbEntity
  8
1
  6
Continuous
 62
     4
100
AcDbLine
 10
1054.923727959556
 20
248.821997406892
 30
0.0
 11
1093.716981760957
 21
287.6152512082938
 31
0.0
1001
ACAD
1010
0.0
1020
0.0
1030
0.0
  0
LINE
  5
4DD
330
11C
100
AcDbEntity
  8
1
  6
Continuous
 62
     4
100
AcDbLine
 10
1065.530329677355
 20
248.821997406892
 30
0.0
 11
1104.323583478757
 21
287.6152512082938
 31
0.0
1001
ACAD
1010
0.0
1020
0.0
1030
0.0
  0
LINE
  5
4DE
330
11C
100
AcDbEntity
  8
1
  6
Continuous
 62
     4
100
AcDbLine
 10
1076.136931395152
 20
248.8219974068919
 30
0.0
 11
1114.930185196554
 21
287.6152512082936
 31
0.0
1001
ACAD
1010
0.0
1020
0.0
1030
0.0
  0
LINE
  5
4DF
330
11C
100
AcDbEntity
  8
1
  6
Continuous
 62
     4
100
AcDbLine
 10
1086.743533112951
 20
248.8219974068919
 30
0.0
 11
1125.536786914353
 21
287.6152512082936
 31
0.0
1001
ACAD
1010
0.0
1020
0.0
1030
0.0
  0
LINE
  5
4E0
330
11C
100
AcDbEntity
  8
1
  6
Continuous
 62
     4
100
AcDbLine
 10
1097.350134830749
 20
248.8219974068919
 30
0.0
 11
1136.143388632151
 21
287.6152512082938
 31
0.0
1001
ACAD
1010
0.0
1020
0.0
1030
0.0
  0
LINE
  5
4E1
330
11C
100
AcDbEntity
  8
1
  6
Continuous
 62
     4
100
AcDbLine
 10
1107.956736548546
 20
248.8219974068919
 30
0.0
 11
1146.749990349949
 21
287.6152512082938
 31
0.0
1001
ACAD
1010
0.0
1020
0.0
1030
0.0
  0
LINE
  5
4E2
330
11C
100
AcDbEntity
  8
1
  6
Continuous
 62
     4
100
AcDbLine
 10
1118.563338266346
 20
248.8219974068919
 30
0.0
 11
1157.356592067747
 21
287.6152512082938
 31
0.0
1001
ACAD
1010
0.0
1020
0.0
1030
0.0
  0
LINE
  5
4E3
330
11C
100
AcDbEntity
  8
1
  6
Continuous
 62
     4
100
AcDbLine
 10
1129.169939984145
 20
248.8219974068918
 30
0.0
 11
1167.963193785545
 21
287.6152512082938
 31
0.0
1001
ACAD
1010
0.0
1020
0.0
1030
0.0
  0
LINE
  5
4E4
330
11C
100
AcDbEntity
  8
1
  6
Continuous
 62
     4
100
AcDbLine
 10
1139.776541701942
 20
248.8219974068918
 30
0.0
 11
1170.992608299699
 21
280.038064004649
 31
0.0
1001
ACAD
1010
0.0
1020
0.0
1030
0.0
  0
LINE
  5
4E5
330
11C
100
AcDbEntity
  8
1
  6
Continuous
 62
     4
100
AcDbLine
 10
1150.38314341974
 20
248.8219974068918
 30
0.0
 11
1170.992608299699
 21
269.4314622868508
 31
0.0
1001
ACAD
1010
0.0
1020
0.0
1030
0.0
  0
LINE
  5
4E6
330
11C
100
AcDbEntity
  8
1
  6
Continuous
 62
     4
100
AcDbLine
 10
1160.989745137537
 20
248.8219974068918
 30
0.0
 11
1170.992608299699
 21
258.8248605690525
 31
0.0
1001
ACAD
1010
0.0
1020
0.0
1030
0.0
  0
LINE
  5
4E7
330
11C
100
AcDbEntity
  8
1
  6
Continuous
 62
     4
100
AcDbLine
 10
506.8619189242538
 20
665.9609446912261
 30
0.0
 11
510.3956619640986
 21
669.4946877310712
 31
0.0
1001
ACAD
1010
0.0
1020
0.0
1030
0.0
  0
LINE
  5
4E8
330
11C
100
AcDbEntity
  8
1
  6
Continuous
 62
     4
100
AcDbLine
 10
506.8667642950241
 20
655.3591883441987
 30
0.0
 11
521.0022636818969
 21
669.4946877310712
 31
0.0
1001
ACAD
1010
0.0
1020
0.0
1030
0.0
  0
LINE
  5
4E9
330
11C
100
AcDbEntity
  8
1
  6
Continuous
 62
     4
100
AcDbLine
 10
506.8716096657952
 20
644.7574319971712
 30
0.0
 11
531.6088653996951
 21
669.4946877310712
 31
0.0
1001
ACAD
1010
0.0
1020
0.0
1030
0.0
  0
LINE
  5
4EA
330
11C
100
AcDbEntity
  8
1
  6
Continuous
 62
     4
100
AcDbLine
 10
506.8764550365661
 20
634.1556756501436
 30
0.0
 11
542.2154671174933
 21
669.4946877310712
 31
0.0
1001
ACAD
1010
0.0
1020
0.0
1030
0.0
  0
LINE
  5
4EB
330
11C
100
AcDbEntity
  8
1
  6
Continuous
 62
     4
100
AcDbLine
 10
514.0288150338898
 20
630.7014339296696
 30
0.0
 11
552.8220688352915
 21
669.4946877310712
 31
0.0
1001
ACAD
1010
0.0
1020
0.0
1030
0.0
  0
LINE
  5
4EC
330
11C
100
AcDbEntity
  8
1
  6
Continuous
 62
     4
100
AcDbLine
 10
524.6354167516881
 20
630.7014339296696
 30
0.0
 11
563.4286705530895
 21
669.4946877310712
 31
0.0
1001
ACAD
1010
0.0
1020
0.0
1030
0.0
  0
LINE
  5
4ED
330
11C
100
AcDbEntity
  8
1
  6
Continuous
 62
     4
100
AcDbLine
 10
535.2420184694863
 20
630.7014339296697
 30
0.0
 11
574.0352722708881
 21
669.4946877310712
 31
0.0
1001
ACAD
1010
0.0
1020
0.0
1030
0.0
  0
LINE
  5
4EE
330
11C
100
AcDbEntity
  8
1
  6
Continuous
 62
     4
100
AcDbLine
 10
545.8486201872848
 20
630.7014339296697
 30
0.0
 11
584.6418739886863
 21
669.4946877310712
 31
0.0
1001
ACAD
1010
0.0
1020
0.0
1030
0.0
  0
LINE
  5
4EF
330
11C
100
AcDbEntity
  8
1
  6
Continuous
 62
     4
100
AcDbLine
 10
556.4552219050831
 20
630.7014339296697
 30
0.0
 11
595.2484757064845
 21
669.4946877310712
 31
0.0
1001
ACAD
1010
0.0
1020
0.0
1030
0.0
  0
LINE
  5
4F0
330
11C
100
AcDbEntity
  8
1
  6
Continuous
 62
     4
100
AcDbLine
 10
567.0618236228811
 20
630.7014339296697
 30
0.0
 11
605.8550774242822
 21
669.4946877310712
 31
0.0
1001
ACAD
1010
0.0
1020
0.0
1030
0.0
  0
LINE
  5
4F1
330
11C
100
AcDbEntity
  8
1
  6
Continuous
 62
     4
100
AcDbLine
 10
577.6684253406795
 20
630.7014339296697
 30
0.0
 11
616.461679142081
 21
669.4946877310712
 31
0.0
1001
ACAD
1010
0.0
1020
0.0
1030
0.0
  0
LINE
  5
4F2
330
11C
100
AcDbEntity
  8
1
  6
Continuous
 62
     4
100
AcDbLine
 10
588.2750270584778
 20
630.7014339296697
 30
0.0
 11
627.0682808598792
 21
669.4946877310712
 31
0.0
1001
ACAD
1010
0.0
1020
0.0
1030
0.0
  0
LINE
  5
4F3
330
11C
100
AcDbEntity
  8
1
  6
Continuous
 62
     4
100
AcDbLine
 10
598.8816287762759
 20
630.7014339296696
 30
0.0
 11
637.6748825776774
 21
669.4946877310712
 31
0.0
1001
ACAD
1010
0.0
1020
0.0
1030
0.0
  0
LINE
  5
4F4
330
11C
100
AcDbEntity
  8
1
  6
Continuous
 62
     4
100
AcDbLine
 10
609.488230494074
 20
630.7014339296696
 30
0.0
 11
648.2814842954756
 21
669.4946877310712
 31
0.0
1001
ACAD
1010
0.0
1020
0.0
1030
0.0
  0
LINE
  5
4F5
330
11C
100
AcDbEntity
  8
1
  6
Continuous
 62
     4
100
AcDbLine
 10
620.0948322118722
 20
630.7014339296697
 30
0.0
 11
658.8880860132737
 21
669.4946877310712
 31
0.0
1001
ACAD
1010
0.0
1020
0.0
1030
0.0
  0
LINE
  5
4F6
330
11C
100
AcDbEntity
  8
1
  6
Continuous
 62
     4
100
AcDbLine
 10
630.7014339296704
 20
630.7014339296697
 30
0.0
 11
669.4946877310719
 21
669.4946877310712
 31
0.0
1001
ACAD
1010
0.0
1020
0.0
1030
0.0
  0
LINE
  5
4F7
330
11C
100
AcDbEntity
  8
1
  6
Continuous
 62
     4
100
AcDbLine
 10
641.3080356474686
 20
630.7014339296697
 30
0.0
 11
680.1012894488701
 21
669.4946877310712
 31
0.0
1001
ACAD
1010
0.0
1020
0.0
1030
0.0
  0
LINE
  5
4F8
330
11C
100
AcDbEntity
  8
1
  6
Continuous
 62
     4
100
AcDbLine
 10
651.9146373652667
 20
630.7014339296697
 30
0.0
 11
690.7078911666681
 21
669.4946877310712
 31
0.0
1001
ACAD
1010
0.0
1020
0.0
1030
0.0
  0
LINE
  5
4F9
330
11C
100
AcDbEntity
  8
1
  6
Continuous
 62
     4
100
AcDbLine
 10
662.5212390830649
 20
630.7014339296697
 30
0.0
 11
701.314492884467
 21
669.4946877310712
 31
0.0
1001
ACAD
1010
0.0
1020
0.0
1030
0.0
  0
LINE
  5
4FA
330
11C
100
AcDbEntity
  8
1
  6
Continuous
 62
     4
100
AcDbLine
 10
673.1278408008631
 20
630.7014339296697
 30
0.0
 11
711.9210946022647
 21
669.4946877310712
 31
0.0
1001
ACAD
1010
0.0
1020
0.0
1030
0.0
  0
LINE
  5
4FB
330
11C
100
AcDbEntity
  8
1
  6
Continuous
 62
     4
100
AcDbLine
 10
683.7344425186612
 20
630.7014339296696
 30
0.0
 11
722.5276963200633
 21
669.4946877310712
 31
0.0
1001
ACAD
1010
0.0
1020
0.0
1030
0.0
  0
LINE
  5
4FC
330
11C
100
AcDbEntity
  8
1
  6
Continuous
 62
     4
100
AcDbLine
 10
694.3410442364595
 20
630.7014339296696
 30
0.0
 11
733.134298037861
 21
669.4946877310711
 31
0.0
1001
ACAD
1010
0.0
1020
0.0
1030
0.0
  0
LINE
  5
4FD
330
11C
100
AcDbEntity
  8
1
  6
Continuous
 62
     4
100
AcDbLine
 10
704.9476459542578
 20
630.7014339296697
 30
0.0
 11
743.7408997556596
 21
669.4946877310711
 31
0.0
1001
ACAD
1010
0.0
1020
0.0
1030
0.0
  0
LINE
  5
4FE
330
11C
100
AcDbEntity
  8
1
  6
Continuous
 62
     4
100
AcDbLine
 10
715.5542476720562
 20
630.7014339296697
 30
0.0
 11
754.3475014734577
 21
669.4946877310712
 31
0.0
1001
ACAD
1010
0.0
1020
0.0
1030
0.0
  0
LINE
  5
4FF
330
11C
100
AcDbEntity
  8
1
  6
Continuous
 62
     4
100
AcDbLine
 10
726.1608493898541
 20
630.7014339296697
 30
0.0
 11
760.4085090359107
 21
664.9490935757259
 31
0.0
1001
ACAD
1010
0.0
1020
0.0
1030
0.0
  0
LINE
  5
500
330
11C
100
AcDbEntity
  8
1
  6
Continuous
 62
     4
100
AcDbLine
 10
736.7674511076527
 20
630.7014339296697
 30
0.0
 11
760.4085090359107
 21
654.3424918579276
 31
0.0
1001
ACAD
1010
0.0
1020
0.0
1030
0.0
  0
LINE
  5
501
330
11C
100
AcDbEntity
  8
1
  6
Continuous
 62
     4
100
AcDbLine
 10
747.3740528254504
 20
630.7014339296697
 30
0.0
 11
760.4085090359107
 21
643.7358901401294
 31
0.0
1001
ACAD
1010
0.0
1020
0.0
1030
0.0
  0
LINE
  5
502
330
11C
100
AcDbEntity
  8
1
  6
Continuous
 62
     4
100
AcDbLine
 10
757.980654543249
 20
630.7014339296697
 30
0.0
 11
760.4085090359107
 21
633.1292884223312
 31
0.0
1001
ACAD
1010
0.0
1020
0.0
1030
0.0
  0
LINE
  5
8C9
330
11C
100
AcDbEntity
  8
1
  6
Continuous
 62
     7
100
AcDbLine
 10
506.8603038809839
 20
669.4946877310712
 30
0.0
 11
506.9903038809841
 21
385.0524045017033
 31
0.0
  0
LINE
  5
8CA
330
11C
100
AcDbEntity
  8
1
  6
Continuous
 62
     7
100
AcDbLine
 10
1170.992608299699
 20
534.1519048646347
 30
0.0
 11
1170.992608299699
 21
248.821997406892
 31
0.0
  0
LINE
  5
8CB
330
11C
100
AcDbEntity
  8
1
  6
Continuous
 62
     3
100
AcDbLine
 10
760.4085090359107
 20
621.7014339296697
 30
0.0
 11
760.4085090359107
 21
474.3346877310708
 31
0.0
  0
LINE
  5
8CC
330
11C
100
AcDbEntity
  8
1
  6
Continuous
 62
     3
100
AcDbLine
 10
897.1085090359101
 20
621.4045685980721
 30
0.0
 11
897.1085090359101
 21
474.3346877310708
 31
0.0
  0
LINE
  5
8CD
330
11C
100
AcDbEntity
  8
1
  6
Continuous
 62
     3
100
AcDbLine
 10
1355.677678404642
 20
635.0547412286104
 30
0.0
 11
1355.677678404642
 21
483.8277512082935
 31
0.0
  0
LINE
  5
8CE
330
11C
100
AcDbEntity
  8
1
  6
Continuous
 62
     7
100
AcDbLine
 10
1171.012115467215
 20
248.8219974068921
 30
0.0
 11
506.8798110485001
 21
248.821997406892
 31
0.0
  0
LINE
  5
8CF
330
11C
100
AcDbEntity
  8
1
  6
Continuous
 62
     7
100
AcDbLine
 10
1170.992608299699
 20
287.6152512082938
 30
0.0
 11
506.8603038809839
 21
287.6152512082934
 31
0.0
  0
LINE
  5
8D0
330
11C
100
AcDbEntity
  8
1
  6
Continuous
 62
     7
100
AcDbLine
 10
507.0103038809841
 20
365.632404501703
 30
0.0
 11
507.1235318513116
 21
248.821997406892
 31
0.0
  0
LINE
  5
8D1
330
11C
100
AcDbEntity
  8
1
  6
Continuous
 62
     7
100
AcDbLine
 10
492.650303880984
 20
369.9424045017031
 30
0.0
 11
507.0103038809841
 21
365.632404501703
 31
0.0
  0
LINE
  5
8D2
330
11C
100
AcDbEntity
  8
1
  6
Continuous
 62
     7
100
AcDbLine
 10
519.8503038809838
 20
379.5424045017031
 30
0.0
 11
492.650303880984
 21
369.9424045017031
 31
0.0
  0
LINE
  5
8D3
330
11C
100
AcDbEntity
  8
1
  6
Continuous
 62
     7
100
AcDbLine
 10
506.9903038809841
 20
385.0524045017033
 30
0.0
 11
519.8503038809838
 21
379.5424045017031
 31
0.0
  0
LINE
  5
8D4
330
11C
100
AcDbEntity
  8
1
  6
Continuous
 62
     3
100
AcDbLine
 10
873.3960090359111
 20
483.3346877310709
 30
0.0
 11
784.1210090359102
 21
483.3346877310709
 31
0.0
  0
LINE
  5
8D5
330
11C
100
AcDbEntity
  8
1
  6
Continuous
 62
     3
100
AcDbLine
 10
1364.677678404642
 20
460.1152512082935
 30
0.0
 11
1179.992608299698
 21
460.1152512082935
 31
0.0
  0
LINE
  5
8D6
330
11C
100
AcDbEntity
  8
1
  6
Continuous
 62
     7
100
AcDbLine
 10
760.4085090359107
 20
630.7014339296697
 30
0.0
 11
506.8889449702285
 21
630.7014339296697
 31
0.0
  0
LINE
  5
8D7
330
11C
100
AcDbEntity
  8
1
  6
Continuous
 62
     7
100
AcDbLine
 10
760.4085090359107
 20
669.4946877310712
 30
0.0
 11
506.8603038809839
 21
669.4946877310712
 31
0.0
  0
LINE
  5
8D8
330
11C
100
AcDbEntity
  8
1
  6
Continuous
 62
     7
100
AcDbLine
 10
896.9527497186339
 20
687.6766874769409
 30
0.0
 11
891.9527497186336
 21
724.3600836056141
 31
0.0
  0
LINE
  5
8D9
330
11C
100
AcDbEntity
  8
1
  6
Continuous
 62
     7
100
AcDbLine
 10
971.4359862246226
 20
775.2104218542076
 30
0.0
 11
930.9634988461011
 21
863.7913796020219
 31
0.0
  0
LINE
  5
8DA
330
11C
100
AcDbEntity
  8
1
  6
Continuous
 62
     7
100
AcDbLine
 10
686.0610318471973
 20
775.2104218542076
 30
0.0
 11
726.5335192257182
 21
863.7913796020219
 31
0.0
  0
LINE
  5
8DB
330
11C
100
AcDbEntity
  8
1
  6
Continuous
 62
     7
100
AcDbLine
 10
1170.992608299699
 20
630.4045685980723
 30
0.0
 11
897.1085090359101
 21
630.4045685980721
 31
0.0
  0
LINE
  5
8DC
330
11C
100
AcDbEntity
  8
1
  6
Continuous
 62
     7
100
AcDbLine
 10
1170.992608299699
 20
669.4946877310712
 30
0.0
 11
897.1085090359101
 21
669.4946877310712
 31
0.0
  0
ARC
  5
8DD
330
11C
100
AcDbEntity
  8
1
  6
Continuous
 62
     7
100
AcDbCircle
 10
828.7555505164474
 20
788.9634230241215
 30
0.0
 40
122.113806803983
100
AcDbArc
 50
236.0418094394039
 51
303.9534192505537
  0
ARC
  5
8DE
330
11C
100
AcDbEntity
  8
1
  6
Continuous
 62
     7
100
AcDbCircle
 10
828.7585090359099
 20
773.6127282309012
 30
0.0
 40
124.7065476998297
100
AcDbArc
 50
236.7641494969042
 51
302.2578875802211
  0
ARC
  5
8DF
330
11C
100
AcDbEntity
  8
1
  6
Continuous
 62
     7
100
AcDbCircle
 10
828.7585090359099
 20
742.4107984986792
 30
0.0
 40
130.9607005690089
100
AcDbArc
 50
238.539385217025
 51
300.5275641404027
  0
LINE
  5
8E0
330
11C
100
AcDbEntity
  8
1
  6
Continuous
 62
     7
100
AcDbLine
 10
760.4085090359107
 20
630.7014339296697
 30
0.0
 11
760.4085090359107
 21
669.4946877310712
 31
0.0
  0
LINE
  5
8E1
330
11C
100
AcDbEntity
  8
1
  6
Continuous
 62
     7
100
AcDbLine
 10
897.1085090359101
 20
630.4045685980721
 30
0.0
 11
897.1085090359101
 21
669.4946877310712
 31
0.0
  0
LINE
  5
8E2
330
11C
100
AcDbEntity
  8
1
  6
Continuous
 62
     7
100
AcDbLine
 10
686.0610318471973
 20
728.5400873092985
 30
0.0
 11
828.7485090359101
 21
728.5400873092985
 31
0.0
  0
LINE
  5
8E3
330
11C
100
AcDbEntity
  8
1
  6
Continuous
 62
     7
100
AcDbLine
 10
686.0610318471973
 20
775.2104218542076
 30
0.0
 11
828.7485090359101
 21
775.2104218542076
 31
0.0
  0
LINE
  5
8E4
330
11C
100
AcDbEntity
  8
1
  6
Continuous
 62
     7
100
AcDbLine
 10
765.5442683531857
 20
779.2275980074505
 30
0.0
 11
765.5442683531857
 21
760.7641375227867
 31
0.0
  0
LINE
  5
8E5
330
11C
100
AcDbEntity
  8
1
  6
Continuous
 62
     7
100
AcDbLine
 10
686.0610318471973
 20
775.2104218542076
 30
0.0
 11
686.0610318471973
 21
728.5400873092985
 31
0.0
  0
LINE
  5
8E6
330
11C
100
AcDbEntity
  8
1
  6
Continuous
 62
     7
100
AcDbLine
 10
736.8250103212143
 20
687.5200386146332
 30
0.0
 11
686.0610318471973
 21
728.5400873092985
 31
0.0
  0
LINE
  5
8E7
330
11C
100
AcDbEntity
  8
1
  6
Continuous
 62
     7
100
AcDbLine
 10
765.5442683531857
 20
740.4524019543475
 30
0.0
 11
765.5442683531857
 21
722.6341518839991
 31
0.0
  0
LINE
  5
8E8
330
11C
100
AcDbEntity
  8
1
  6
Continuous
 62
     7
100
AcDbLine
 10
736.8250103212143
 20
687.5200386146332
 30
0.0
 11
760.5442683531857
 21
687.6766874769409
 31
0.0
  0
LINE
  5
8E9
330
11C
100
AcDbEntity
  8
1
  6
Continuous
 62
     7
100
AcDbLine
 10
971.4359862246226
 20
775.2104218542076
 30
0.0
 11
971.4359862246226
 21
728.5400873092985
 31
0.0
  0
LINE
  5
8EA
330
11C
100
AcDbEntity
  8
1
  6
Continuous
 62
     7
100
AcDbLine
 10
920.6720077506062
 20
687.5200386146332
 30
0.0
 11
971.4359862246226
 21
728.5400873092985
 31
0.0
  0
LINE
  5
8EB
330
11C
100
AcDbEntity
  8
1
  6
Continuous
 62
     7
100
AcDbLine
 10
920.6720077506062
 20
687.5200386146332
 30
0.0
 11
896.9527497186339
 21
687.6766874769409
 31
0.0
  0
LINE
  5
8EC
330
11C
100
AcDbEntity
  8
1
  6
Continuous
 62
     7
100
AcDbLine
 10
1170.992608299699
 20
630.4045685980721
 30
0.0
 11
1170.992608299699
 21
553.561904864635
 31
0.0
  0
LINE
  5
8ED
330
11C
100
AcDbEntity
  8
1
  6
Continuous
 62
     7
100
AcDbLine
 10
1183.8526082997
 20
548.0519048646351
 30
0.0
 11
1156.652608299697
 21
538.4519048646351
 31
0.0
  0
LINE
  5
8EE
330
11C
100
AcDbEntity
  8
1
  6
Continuous
 62
     7
100
AcDbLine
 10
1156.652608299697
 20
538.4519048646351
 30
0.0
 11
1170.992608299699
 21
534.1519048646347
 31
0.0
  0
LINE
  5
8EF
330
11C
100
AcDbEntity
  8
1
  6
Continuous
 62
     7
100
AcDbLine
 10
1170.992608299699
 20
553.561904864635
 30
0.0
 11
1183.8526082997
 21
548.0519048646351
 31
0.0
  0
LINE
  5
8F0
330
11C
100
AcDbEntity
  8
1
  6
Continuous
 62
     3
100
AcDbLine
 10
1355.677678404641
 20
847.2087562859197
 30
0.0
 11
1355.677678404642
 21
699.0547412286105
 31
0.0
  0
LINE
  5
8F1
330
11C
100
AcDbEntity
  8
1
  6
Continuous
 62
     3
100
AcDbLine
 10
929.4684899879102
 20
870.9212562859198
 30
0.0
 11
968.4359883943919
 21
870.9212562859198
 31
0.0
  0
LINE
  5
8F2
330
11C
100
AcDbEntity
  8
1
  6
Continuous
 62
     3
100
AcDbLine
 10
974.4359883943918
 20
870.9212562859198
 30
0.0
 11
1364.677678404641
 21
870.9212562859198
 31
0.0
  0
LINE
  5
8F3
330
11C
100
AcDbEntity
  8
1
  6
Continuous
 62
     7
100
AcDbLine
 10
828.7485090359101
 20
863.7913796020219
 30
0.0
 11
726.5335192257182
 21
863.7913796020219
 31
0.0
  0
LINE
  5
8F4
330
11C
100
AcDbEntity
  8
1
  6
Continuous
 62
     7
100
AcDbLine
 10
920.4684899879099
 20
870.9212562859198
 30
0.0
 11
737.0285280839091
 21
870.9212562859198
 31
0.0
  0
LINE
  5
8F5
330
11C
100
AcDbEntity
  8
1
  6
Continuous
 62
     7
100
AcDbLine
 10
737.0285280839091
 20
870.9212562859198
 30
0.0
 11
726.5335192257182
 21
863.7913796020219
 31
0.0
  0
LINE
  5
8F6
330
11C
100
AcDbEntity
  8
1
  6
Continuous
 62
     7
100
AcDbLine
 10
920.4684899879103
 20
870.9212562859198
 30
0.0
 11
930.9634988461011
 21
863.7913796020219
 31
0.0
  0
LINE
  5
8F7
330
11C
100
AcDbEntity
  8
1
  6
Continuous
 62
     7
100
AcDbLine
 10
907.4527497186338
 20
779.2275980074505
 30
0.0
 11
907.4527497186338
 21
870.9212562859198
 31
0.0
  0
LINE
  5
8F8
330
11C
100
AcDbEntity
  8
1
  6
Continuous
 62
     7
100
AcDbLine
 10
907.4527497186338
 20
779.2275980074505
 30
0.0
 11
750.0442683531858
 21
779.2275980074505
 31
0.0
  0
LINE
  5
8F9
330
11C
100
AcDbEntity
  8
1
  6
Continuous
 62
     7
100
AcDbLine
 10
750.0442683531858
 20
870.9212562859198
 30
0.0
 11
750.0442683531858
 21
845.8195261050862
 31
0.0
  0
LINE
  5
8FA
330
11C
100
AcDbEntity
  8
1
  6
Continuous
 62
     7
100
AcDbLine
 10
750.0442683531858
 20
833.1246931186777
 30
0.0
 11
750.0442683531858
 21
807.7350231598812
 31
0.0
  0
LINE
  5
8FB
330
11C
100
AcDbEntity
  8
1
  6
Continuous
 62
     7
100
AcDbLine
 10
750.0442683531858
 20
786.153805488594
 30
0.0
 11
750.0442683531858
 21
779.2275980074505
 31
0.0
  0
LINE
  5
8FC
330
11C
100
AcDbEntity
  8
1
  6
Continuous
 62
     3
100
AcDbLine
 10
686.0610340169662
 20
997.6043307776613
 30
0.0
 11
686.0610340169671
 21
784.2104215109015
 31
0.0
  0
LINE
  5
8FD
330
11C
100
AcDbEntity
  8
1
  6
Continuous
 62
     3
100
AcDbLine
 10
947.7234883943919
 20
988.6043307776613
 30
0.0
 11
709.7735340169657
 21
988.6043307776613
 31
0.0
  0
LINE
  5
8FE
330
11C
100
AcDbEntity
  8
1
  6
Continuous
 62
     3
100
AcDbLine
 10
971.4359883943911
 20
997.6043307776613
 30
0.0
 11
971.4359883943924
 21
784.2104215109015
 31
0.0
  0
LINE
  5
8FF
330
11C
100
AcDbEntity
  8
1
  6
Continuous
 62
     7
100
AcDbLine
 10
891.9527497186336
 20
724.3600836056141
 30
0.0
 11
891.9527497186336
 21
779.2275980074505
 31
0.0
  0
LINE
  5
900
330
11C
100
AcDbEntity
  8
1
  6
Continuous
 62
     7
100
AcDbLine
 10
760.5442683531862
 20
687.6766874769409
 30
0.0
 11
763.388679084887
 21
708.5452166016672
 31
0.0
  0
LINE
  5
901
330
11C
100
AcDbEntity
  8
1
  6
Continuous
 62
     7
100
AcDbLine
 10
891.9527497186336
 20
724.3600836056141
 30
0.0
 11
839.2565132917209
 21
724.3600836056141
 31
0.0
  0
LINE
  5
902
330
11C
100
AcDbEntity
  8
1
  6
Continuous
 62
     7
100
AcDbLine
 10
1170.992608299699
 20
669.4946877310712
 30
0.0
 11
1170.992608299699
 21
630.4045685980723
 31
0.0
  0
LINE
  5
903
330
11C
100
AcDbEntity
  8
1
  6
Continuous
 62
     3
100
AcDbLine
 10
709.7735340169657
 20
995.1605807776614
 30
0.0
 11
709.7735340169657
 21
982.0480807776613
 31
0.0
  0
LINE
  5
904
330
11C
100
AcDbEntity
  8
1
  6
Continuous
 62
     3
100
AcDbLine
 10
686.0610340169662
 20
988.6043307776613
 30
0.0
 11
709.7735340169657
 21
982.0480807776613
 31
0.0
  0
LINE
  5
905
330
11C
100
AcDbEntity
  8
1
  6
Continuous
 62
     3
100
AcDbLine
 10
686.0610340169662
 20
988.6043307776613
 30
0.0
 11
709.7735340169657
 21
995.1605807776614
 31
0.0
  0
LINE
  5
906
330
11C
100
AcDbEntity
  8
1
  6
Continuous
 62
     3
100
AcDbLine
 10
709.7735340169657
 20
995.1605807776614
 30
0.0
 11
709.7735340169657
 21
982.0480807776613
 31
0.0
  0
LINE
  5
907
330
11C
100
AcDbEntity
  8
1
  6
Continuous
 62
     3
100
AcDbLine
 10
784.1210090359102
 20
489.890937731071
 30
0.0
 11
784.1210090359102
 21
476.7784377310707
 31
0.0
  0
LINE
  5
908
330
11C
100
AcDbEntity
  8
1
  6
Continuous
 62
     3
100
AcDbLine
 10
760.4085090359107
 20
483.3346877310709
 30
0.0
 11
784.1210090359102
 21
476.7784377310707
 31
0.0
  0
LINE
  5
909
330
11C
100
AcDbEntity
  8
1
  6
Continuous
 62
     3
100
AcDbLine
 10
760.4085090359107
 20
483.3346877310709
 30
0.0
 11
784.1210090359102
 21
489.890937731071
 31
0.0
  0
LINE
  5
90A
330
11C
100
AcDbEntity
  8
1
  6
Continuous
 62
     3
100
AcDbLine
 10
784.1210090359102
 20
489.890937731071
 30
0.0
 11
784.1210090359102
 21
476.7784377310707
 31
0.0
  0
LINE
  5
90B
330
11C
100
AcDbEntity
  8
1
  6
Continuous
 62
     3
100
AcDbLine
 10
971.4359883943911
 20
988.6043307776613
 30
0.0
 11
947.7234883943919
 21
982.0480807776613
 31
0.0
  0
LINE
  5
90C
330
11C
100
AcDbEntity
  8
1
  6
Continuous
 62
     3
100
AcDbLine
 10
971.4359883943911
 20
988.6043307776613
 30
0.0
 11
947.7234883943919
 21
995.1605807776614
 31
0.0
  0
LINE
  5
90D
330
11C
100
AcDbEntity
  8
1
  6
Continuous
 62
     3
100
AcDbLine
 10
947.7234883943919
 20
995.1605807776614
 30
0.0
 11
947.7234883943919
 21
982.0480807776613
 31
0.0
  0
LINE
  5
90E
330
11C
100
AcDbEntity
  8
1
  6
Continuous
 62
     3
100
AcDbLine
 10
873.3960090359111
 20
489.8909377310708
 30
0.0
 11
873.3960090359111
 21
476.7784377310706
 31
0.0
  0
LINE
  5
90F
330
11C
100
AcDbEntity
  8
1
  6
Continuous
 62
     3
100
AcDbLine
 10
897.1085090359101
 20
483.3346877310709
 30
0.0
 11
873.3960090359111
 21
476.7784377310706
 31
0.0
  0
LINE
  5
910
330
11C
100
AcDbEntity
  8
1
  6
Continuous
 62
     3
100
AcDbLine
 10
897.1085090359101
 20
483.3346877310709
 30
0.0
 11
873.3960090359111
 21
489.8909377310708
 31
0.0
  0
LINE
  5
911
330
11C
100
AcDbEntity
  8
1
  6
Continuous
 62
     3
100
AcDbLine
 10
873.3960090359111
 20
489.8909377310708
 30
0.0
 11
873.3960090359111
 21
476.7784377310706
 31
0.0
  0
LINE
  5
912
330
11C
100
AcDbEntity
  8
1
  6
Continuous
 62
     3
100
AcDbLine
 10
1355.677678404641
 20
870.9212562859198
 30
0.0
 11
1362.23392840464
 21
847.2087562859197
 31
0.0
  0
LINE
  5
913
330
11C
100
AcDbEntity
  8
1
  6
Continuous
 62
     3
100
AcDbLine
 10
1355.677678404641
 20
870.9212562859198
 30
0.0
 11
1349.121428404639
 21
847.2087562859197
 31
0.0
  0
LINE
  5
914
330
11C
100
AcDbEntity
  8
1
  6
Continuous
 62
     3
100
AcDbLine
 10
1349.121428404639
 20
847.2087562859197
 30
0.0
 11
1362.23392840464
 21
847.2087562859197
 31
0.0
  0
LINE
  5
915
330
11C
100
AcDbEntity
  8
1
  6
Continuous
 62
     3
100
AcDbLine
 10
1355.677678404642
 20
460.1152512082935
 30
0.0
 11
1362.233928404642
 21
483.8277512082935
 31
0.0
  0
LINE
  5
916
330
11C
100
AcDbEntity
  8
1
  6
Continuous
 62
     3
100
AcDbLine
 10
1355.677678404642
 20
460.1152512082935
 30
0.0
 11
1349.12142840464
 21
483.8277512082935
 31
0.0
  0
LINE
  5
917
330
11C
100
AcDbEntity
  8
1
  6
Continuous
 62
     3
100
AcDbLine
 10
1349.12142840464
 20
483.8277512082935
 30
0.0
 11
1362.233928404642
 21
483.8277512082935
 31
0.0
  0
LINE
  5
92A
330
11C
100
AcDbEntity
  8
-1
  6
Continuous
 62
     5
100
AcDbLine
 10
1359.03827787754
 20
667.6125639440953
 30
0.0
 11
1366.038277877539
 21
667.6125639440953
 31
0.0
  0
LINE
  5
92B
330
11C
100
AcDbEntity
  8
-1
  6
Continuous
 62
     5
100
AcDbLine
 10
826.3568261427705
 20
1011.220819902429
 30
0.0
 11
836.3568261427706
 21
1011.220819902429
 31
0.0
  0
LINE
  5
92C
330
11C
100
AcDbEntity
  8
-1
  6
Continuous
 62
     5
100
AcDbLine
 10
831.0023117160914
 20
512.834072910314
 30
0.0
 11
842.0023117160916
 21
512.834072910314
 31
0.0
  0
ENDSEC
  0
SECTION
  2
OBJECTS
  0
DICTIONARY
  5
10A
330
0
100
AcDbDictionary
281
     1
  3
ACAD_COLOR
350
405
  3
ACAD_GROUP
350
10B
  3
ACAD_LAYOUT
350
117
  3
ACAD_MATERIAL
350
3D8
  3
ACAD_MLEADERSTYLE
350
42A
  3
ACAD_MLINESTYLE
350
114
  3
ACAD_PLOTSETTINGS
350
116
  3
ACAD_PLOTSTYLENAME
350
10C
  3
ACAD_SCALELIST
350
408
  3
ACAD_TABLESTYLE
350
406
  3
ACAD_VISUALSTYLE
350
3F1
  3
ACDB_RECOMPOSE_DATA
350
5C6
  3
AcDbVariableDictionary
350
556
  3
DWGPROPS
350
918
  0
DICTIONARY
  5
54E
330
10E
100
AcDbDictionary
280
     1
281
     1
  3
ADSK_XREC_LAYER_RECONCILED
360
54F
  0
DICTIONARY
  5
550
330
127
100
AcDbDictionary
280
     1
281
     1
  3
ADSK_XREC_LAYER_RECONCILED
360
551
  0
DICTIONARY
  5
552
330
128
100
AcDbDictionary
280
     1
281
     1
  3
ADSK_XREC_LAYER_RECONCILED
360
553
  0
DICTIONARY
  5
554
330
129
100
AcDbDictionary
280
     1
281
     1
  3
ADSK_XREC_LAYER_RECONCILED
360
555
  0
DICTIONARY
  5
5FD
330
5FC
100
AcDbDictionary
280
     1
281
     1
  3
ADSK_XREC_LAYER_RECONCILED
360
5FE
  0
DICTIONARY
  5
600
330
5FF
100
AcDbDictionary
280
     1
281
     1
  0
DICTIONARY
  5
35B
330
11C
100
AcDbDictionary
280
     1
281
     1
  3
ACAD_LAYOUTSELFREF
360
3D5
  3
ACAD_SORTENTS
360
436
  0
DICTIONARY
  5
359
330
118
100
AcDbDictionary
280
     1
281
     1
  3
ACAD_LAYOUTSELFREF
360
3D4
  0
DICTIONARY
  5
405
102
{ACAD_REACTORS
330
10A
102
}
330
10A
100
AcDbDictionary
281
     1
  0
DICTIONARY
  5
10B
102
{ACAD_REACTORS
330
10A
102
}
330
10A
100
AcDbDictionary
281
     1
  0
DICTIONARY
  5
117
102
{ACAD_REACTORS
330
10A
102
}
330
10A
100
AcDbDictionary
281
     1
  3
Layout1
350
42D
  3
Model
350
42C
  0
DICTIONARY
  5
3D8
102
{ACAD_REACTORS
330
10A
102
}
330
10A
100
AcDbDictionary
281
     1
  3
ByBlock
350
3E1
  3
ByLayer
350
3D9
  3
Global
350
3E9
  0
DICTIONARY
  5
42A
102
{ACAD_REACTORS
330
10A
102
}
330
10A
100
AcDbDictionary
281
     1
  3
Standard
350
42B
  0
DICTIONARY
  5
114
102
{ACAD_REACTORS
330
10A
102
}
330
10A
100
AcDbDictionary
281
     1
  3
STANDARD
350
115
  0
DICTIONARY
  5
116
102
{ACAD_REACTORS
330
10A
102
}
330
10A
100
AcDbDictionary
281
     1
  0
ACDBDICTIONARYWDFLT
  5
10C
102
{ACAD_REACTORS
330
10A
102
}
330
10A
100
AcDbDictionary
281
     1
  3
Normal
350
10D
100
AcDbDictionaryWithDefault
340
10D
  0
DICTIONARY
  5
408
102
{ACAD_REACTORS
330
10A
102
}
330
10A
100
AcDbDictionary
281
     1
  3
A0
350
409
  3
A1
350
40A
  3
A2
350
40B
  3
A3
350
40C
  3
A4
350
40D
  3
A5
350
40E
  3
A6
350
40F
  3
A7
350
410
  3
A8
350
411
  3
A9
350
412
  3
B0
350
413
  3
B1
350
414
  3
B2
350
415
  3
B3
350
416
  3
B4
350
417
  3
B5
350
418
  3
B6
350
419
  3
B7
350
41A
  3
B8
350
41B
  3
B9
350
41C
  3
C0
350
41D
  3
C1
350
41E
  3
C2
350
41F
  3
C3
350
420
  3
C4
350
421
  3
C5
350
422
  3
C6
350
423
  3
C7
350
424
  3
C8
350
425
  3
C9
350
426
  3
D0
350
427
  3
D1
350
428
  3
D2
350
429
  0
DICTIONARY
  5
406
102
{ACAD_REACTORS
330
10A
102
}
330
10A
100
AcDbDictionary
281
     1
  3
Standard
350
407
  0
DICTIONARY
  5
3F1
102
{ACAD_REACTORS
330
10A
102
}
330
10A
100
AcDbDictionary
281
     1
  3
2dWireframe
350
3F7
  3
3D Hidden
350
3F9
  3
3dWireframe
350
3F8
  3
Basic
350
3F6
  3
Brighten
350
3FD
  3
ColorChange
350
401
  3
Conceptual
350
3FA
  3
Dim
350
3FC
  3
EdgeColorOff
350
404
  3
Facepattern
350
400
  3
Flat
350
3F2
  3
FlatWithEdges
350
3F3
  3
Gouraud
350
3F4
  3
GouraudWithEdges
350
3F5
  3
JitterOff
350
402
  3
Linepattern
350
3FF
  3
OverhangOff
350
403
  3
Realistic
350
3FB
  3
Thicken
350
3FE
  0
XRECORD
  5
5C6
102
{ACAD_REACTORS
330
10A
102
}
330
10A
100
AcDbXrecord
280
     1
 90
        1
330
407
  0
DICTIONARY
  5
556
102
{ACAD_REACTORS
330
10A
102
}
330
10A
100
AcDbDictionary
281
     1
  3
CANNOSCALE
350
559
  3
CMLEADERSTYLE
350
558
  3
CTABLESTYLE
350
557
  3
DIMASSOC
350
55C
  3
INDEXCTL
350
55B
  3
SORTENTS
350
55A
  3
XCLIPFRAME
350
55D
  0
XRECORD
  5
918
102
{ACAD_REACTORS
330
10A
102
}
330
10A
100
AcDbXrecord
280
     1
  1
DWGPROPS COOKIE
  2

  3

  4

  6

  7

  8
Horia
  9

300
=
301
=
302
=
303
=
304
=
305
=
306
=
307
=
308
=
309
=
 40
0.0351134027777778
 41
2453375.552094907
 42
2456342.899437628
  1

 90
        0
  0
XRECORD
  5
54F
102
{ACAD_REACTORS
330
54E
102
}
330
54E
100
AcDbXrecord
280
     1
290
     1
  0
XRECORD
  5
551
102
{ACAD_REACTORS
330
550
102
}
330
550
100
AcDbXrecord
280
     1
290
     1
  0
XRECORD
  5
553
102
{ACAD_REACTORS
330
552
102
}
330
552
100
AcDbXrecord
280
     1
290
     1
  0
XRECORD
  5
555
102
{ACAD_REACTORS
330
554
102
}
330
554
100
AcDbXrecord
280
     1
290
     1
  0
XRECORD
  5
5FE
102
{ACAD_REACTORS
330
5FD
102
}
330
5FD
100
AcDbXrecord
280
     1
290
     1
  0
XRECORD
  5
3D5
102
{ACAD_REACTORS
330
35B
102
}
330
35B
100
AcDbXrecord
280
     1
340
11C
  0
SORTENTSTABLE
  5
436
102
{ACAD_REACTORS
330
35B
102
}
330
35B
100
AcDbSortentsTable
330
11C
331
4D2
  5
37A
331
4E2
  5
47A
331
4DA
  5
46E
331
4EA
  5
29C
331
4F2
  5
2C3
331
502
  5
2DF
331
4FA
  5
2D0
331
4AB
  5
2EA
331
4B3
  5
302
331
4BB
  5
313
331
473
  5
4B2
331
47B
  5
4BA
331
493
  5
49A
331
483
  5
4C2
331
48B
  5
4CA
331
49B
  5
4A2
331
4C3
  5
320
331
4A3
  5
4AA
331
4CB
  5
373
331
4E3
  5
47B
331
4D3
  5
3A5
331
4EB
  5
29F
331
4DB
  5
473
331
4F3
  5
2C4
331
4FB
  5
2D1
331
4AC
  5
2F4
331
4B4
  5
303
331
4BC
  5
319
331
2E4
  5
4D1
331
474
  5
4B3
331
47C
  5
4BB
331
484
  5
4C3
331
494
  5
49B
331
49C
  5
4A3
331
48C
  5
4CB
331
4A4
  5
4AB
331
4C4
  5
332
331
4CC
  5
374
331
4D4
  5
3A6
331
4E4
  5
47C
331
4DC
  5
474
331
4EC
  5
2A0
331
4F4
  5
2C5
331
4FC
  5
2D2
331
4AD
  5
2F8
331
4B5
  5
306
331
4BD
  5
31A
331
475
  5
4B4
331
2E5
  5
4D2
331
47D
  5
4BC
331
495
  5
49C
331
485
  5
4C4
331
48D
  5
4CC
331
49D
  5
4A4
331
4C5
  5
334
331
4A5
  5
2E3
331
4CD
  5
375
331
4E5
  5
47D
331
4D5
  5
3B2
331
4ED
  5
2A1
331
4DD
  5
475
331
4F5
  5
2C6
331
4FD
  5
2D5
331
4AE
  5
2FD
331
4B6
  5
30B
331
4BE
  5
31B
331
2E6
  5
4D3
331
476
  5
4B5
331
47E
  5
4BD
331
486
  5
4C5
331
496
  5
49D
331
49E
  5
4A5
331
48E
  5
4CD
331
4A6
  5
2E4
331
4C6
  5
335
331
4CE
  5
376
331
4D6
  5
431
331
4E6
  5
47E
331
4DE
  5
476
331
4EE
  5
2A4
331
4F6
  5
2C7
331
4FE
  5
2D8
331
4AF
  5
2FE
331
4B7
  5
30D
331
4BF
  5
31C
331
29F
  5
484
331
2DF
  5
4B1
331
477
  5
4B6
331
2E7
  5
4D4
331
31F
  5
4EE
331
47F
  5
4BE
331
497
  5
49E
331
487
  5
4C6
331
48F
  5
4CE
331
49F
  5
4A6
331
4C7
  5
336
331
4A7
  5
2E6
331
4CF
  5
377
331
4E7
  5
298
331
4D7
  5
437
331
4DF
  5
477
331
4EF
  5
2A5
331
4F7
  5
2C8
331
4FF
  5
2DB
331
4A8
  5
2E7
331
4B0
  5
2FF
331
4B8
  5
310
331
478
  5
4B7
331
480
  5
4BF
331
490
  5
497
331
488
  5
4C7
331
498
  5
49F
331
4A0
  5
4A7
331
4C0
  5
31D
331
4C8
  5
337
331
4D0
  5
378
331
4E0
  5
478
331
4D8
  5
461
331
4E8
  5
29A
331
4F0
  5
2A6
331
500
  5
2DD
331
4F8
  5
2CE
331
4A9
  5
2E8
331
4B1
  5
300
331
4B9
  5
311
331
479
  5
4B8
331
491
  5
498
331
481
  5
4C0
331
499
  5
4A0
331
489
  5
4C8
331
4C1
  5
31E
331
4A1
  5
4A8
331
4C9
  5
364
331
4E1
  5
479
331
4D1
  5
379
331
4E9
  5
29B
331
4D9
  5
46D
331
501
  5
2DE
331
4F1
  5
2C2
331
4F9
  5
2CF
331
4AA
  5
2E9
331
4B2
  5
301
331
4BA
  5
312
331
47A
  5
4B9
331
482
  5
4C1
331
492
  5
499
331
48A
  5
4C9
331
49A
  5
4A1
331
4A2
  5
4A9
331
4C2
  5
31F
331
4CA
  5
372
  0
XRECORD
  5
3D4
102
{ACAD_REACTORS
330
359
102
}
330
359
100
AcDbXrecord
280
     1
340
118
  0
LAYOUT
  5
42D
102
{ACAD_XDICTIONARY
360
91C
102
}
102
{ACAD_REACTORS
330
117
102
}
330
117
100
AcDbPlotSettings
  1

  2
Lexmark 3600-4600 Series
  4

  6

 40
0.0
 41
0.0
 42
0.0
 43
0.0
 44
0.0
 45
0.0
 46
0.0
 47
0.0
 48
0.0
 49
0.0
140
0.0
141
0.0
142
1.0
143
1.0
 70
   688
 72
     0
 73
     0
 74
     5
  7

 75
    16
147
1.0
148
0.0
149
0.0
100
AcDbLayout
  1
Layout1
 70
     0
 71
     1
 10
0.0
 20
0.0
 11
12.0
 21
9.0
 12
0.0
 22
0.0
 32
0.0
 14
-1.000000000000000E+20
 24
-1.000000000000000E+20
 34
-1.000000000000000E+20
 15
-1.000000000000000E+20
 25
-1.000000000000000E+20
 35
-1.000000000000000E+20
146
0.0
 13
0.0
 23
0.0
 33
0.0
 16
1.0
 26
0.0
 36
0.0
 17
0.0
 27
1.0
 37
0.0
 76
     0
330
118
  0
LAYOUT
  5
42C
102
{ACAD_XDICTIONARY
360
91A
102
}
102
{ACAD_REACTORS
330
117
102
}
330
117
100
AcDbPlotSettings
  1

  2
Lexmark 3600-4600 Series
  4

  6

 40
0.0
 41
0.0
 42
0.0
 43
0.0
 44
0.0
 45
0.0
 46
0.0
 47
0.0
 48
0.0
 49
0.0
140
0.0
141
0.0
142
1.0
143
1.0
 70
  1712
 72
     0
 73
     0
 74
     0
  7

 75
     0
147
1.0
148
0.0
149
0.0
100
AcDbLayout
  1
Model
 70
     1
 71
     0
 10
0.0
 20
0.0
 11
12.0
 21
9.0
 12
0.0
 22
0.0
 32
0.0
 14
0.0
 24
0.0
 34
0.0
 15
0.0
 25
0.0
 35
0.0
146
0.0
 13
0.0
 23
0.0
 33
0.0
 16
1.0
 26
0.0
 36
0.0
 17
0.0
 27
1.0
 37
0.0
 76
     0
330
11C
331
3B3
  0
MATERIAL
  5
3E1
102
{ACAD_XDICTIONARY
360
3E2
102
}
102
{ACAD_REACTORS
330
3D8
102
}
330
3D8
100
AcDbMaterial
  1
ByBlock
 72
     0
 43
0.0208333333333333
 43
0.0
 43
0.0
 43
0.0
 43
0.0
 43
0.0208333333333333
 43
0.0
 43
0.0
 43
0.0
 43
0.0
 43
1.0
 43
0.0
 43
0.0
 43
0.0
 43
0.0
 43
1.0
 77
     0
 47
0.0208333333333333
 47
0.0
 47
0.0
 47
0.0
 47
0.0
 47
0.0208333333333333
 47
0.0
 47
0.0
 47
0.0
 47
0.0
 47
1.0
 47
0.0
 47
0.0
 47
0.0
 47
0.0
 47
1.0
171
     0
 49
0.0208333333333333
 49
0.0
 49
0.0
 49
0.0
 49
0.0
 49
0.0208333333333333
 49
0.0
 49
0.0
 49
0.0
 49
0.0
 49
1.0
 49
0.0
 49
0.0
 49
0.0
 49
0.0
 49
1.0
175
     0
142
0.0208333333333333
142
0.0
142
0.0
142
0.0
142
0.0
142
0.0208333333333333
142
0.0
142
0.0
142
0.0
142
0.0
142
1.0
142
0.0
142
0.0
142
0.0
142
0.0
142
1.0
179
     0
144
0.0208333333333333
144
0.0
144
0.0
144
0.0
144
0.0
144
0.0208333333333333
144
0.0
144
0.0
144
0.0
144
0.0
144
1.0
144
0.0
144
0.0
144
0.0
144
0.0
144
1.0
147
0.0208333333333333
147
0.0
147
0.0
147
0.0
147
0.0
147
0.0208333333333333
147
0.0
147
0.0
147
0.0
147
0.0
147
1.0
147
0.0
147
0.0
147
0.0
147
0.0
147
1.0
  0
MATERIAL
  5
3D9
102
{ACAD_XDICTIONARY
360
3DA
102
}
102
{ACAD_REACTORS
330
3D8
102
}
330
3D8
100
AcDbMaterial
  1
ByLayer
 72
     0
 43
0.0208333333333333
 43
0.0
 43
0.0
 43
0.0
 43
0.0
 43
0.0208333333333333
 43
0.0
 43
0.0
 43
0.0
 43
0.0
 43
1.0
 43
0.0
 43
0.0
 43
0.0
 43
0.0
 43
1.0
 77
     0
 47
0.0208333333333333
 47
0.0
 47
0.0
 47
0.0
 47
0.0
 47
0.0208333333333333
 47
0.0
 47
0.0
 47
0.0
 47
0.0
 47
1.0
 47
0.0
 47
0.0
 47
0.0
 47
0.0
 47
1.0
171
     0
 49
0.0208333333333333
 49
0.0
 49
0.0
 49
0.0
 49
0.0
 49
0.0208333333333333
 49
0.0
 49
0.0
 49
0.0
 49
0.0
 49
1.0
 49
0.0
 49
0.0
 49
0.0
 49
0.0
 49
1.0
175
     0
142
0.0208333333333333
142
0.0
142
0.0
142
0.0
142
0.0
142
0.0208333333333333
142
0.0
142
0.0
142
0.0
142
0.0
142
1.0
142
0.0
142
0.0
142
0.0
142
0.0
142
1.0
179
     0
144
0.0208333333333333
144
0.0
144
0.0
144
0.0
144
0.0
144
0.0208333333333333
144
0.0
144
0.0
144
0.0
144
0.0
144
1.0
144
0.0
144
0.0
144
0.0
144
0.0
144
1.0
147
0.0208333333333333
147
0.0
147
0.0
147
0.0
147
0.0
147
0.0208333333333333
147
0.0
147
0.0
147
0.0
147
0.0
147
1.0
147
0.0
147
0.0
147
0.0
147
0.0
147
1.0
  0
MATERIAL
  5
3E9
102
{ACAD_XDICTIONARY
360
3EA
102
}
102
{ACAD_REACTORS
330
3D8
102
}
330
3D8
100
AcDbMaterial
  1
Global
 72
     0
 43
0.0208333333333333
 43
0.0
 43
0.0
 43
0.0
 43
0.0
 43
0.0208333333333333
 43
0.0
 43
0.0
 43
0.0
 43
0.0
 43
1.0
 43
0.0
 43
0.0
 43
0.0
 43
0.0
 43
1.0
 77
     0
 47
0.0208333333333333
 47
0.0
 47
0.0
 47
0.0
 47
0.0
 47
0.0208333333333333
 47
0.0
 47
0.0
 47
0.0
 47
0.0
 47
1.0
 47
0.0
 47
0.0
 47
0.0
 47
0.0
 47
1.0
171
     0
 49
0.0208333333333333
 49
0.0
 49
0.0
 49
0.0
 49
0.0
 49
0.0208333333333333
 49
0.0
 49
0.0
 49
0.0
 49
0.0
 49
1.0
 49
0.0
 49
0.0
 49
0.0
 49
0.0
 49
1.0
175
     0
142
0.0208333333333333
142
0.0
142
0.0
142
0.0
142
0.0
142
0.0208333333333333
142
0.0
142
0.0
142
0.0
142
0.0
142
1.0
142
0.0
142
0.0
142
0.0
142
0.0
142
1.0
179
     0
144
0.0208333333333333
144
0.0
144
0.0
144
0.0
144
0.0
144
0.0208333333333333
144
0.0
144
0.0
144
0.0
144
0.0
144
1.0
144
0.0
144
0.0
144
0.0
144
0.0
144
1.0
147
0.0208333333333333
147
0.0
147
0.0
147
0.0
147
0.0
147
0.0208333333333333
147
0.0
147
0.0
147
0.0
147
0.0
147
1.0
147
0.0
147
0.0
147
0.0
147
0.0
147
1.0
  0
MLEADERSTYLE
  5
42B
102
{ACAD_REACTORS
330
42A
102
}
330
42A
100
AcDbMLeaderStyle
170
     2
171
     1
172
     0
 90
        2
 40
0.0
 41
0.0
173
     1
 91
-1056964608
340
111
 92
       -2
290
     1
 42
0.09
291
     1
 43
0.36
  3
Standard
 44
0.18
300

342
10F
174
     1
178
     6
175
     1
176
     0
 93
-1056964608
 45
0.18
292
     0
297
     0
 46
0.18
 94
-1056964608
 47
1.0
 49
1.0
140
1.0
293
     1
141
0.0
294
     1
177
     0
142
1.0
295
     0
296
     0
143
0.125
1001
ACAD_MLEADERVER
1070
     2
1001
ACAD
1000
AcRTDxfName
1000
MLEADERSTYLE
  0
MLINESTYLE
  5
115
102
{ACAD_REACTORS
330
114
102
}
330
114
100
AcDbMlineStyle
  2
STANDARD
 70
     0
  3

 62
   256
 51
90.0
 52
90.0
 71
     2
 49
0.5
 62
   256
  6
BYLAYER
 49
-0.5
 62
   256
  6
BYLAYER
  0
ACDBPLACEHOLDER
  5
10D
102
{ACAD_REACTORS
330
10C
102
}
330
10C
  0
SCALE
  5
409
102
{ACAD_REACTORS
330
408
102
}
330
408
100
AcDbScale
 70
     0
300
1:1
140
1.0
141
1.0
290
     1
1001
ACAD
1000
AcRTDxfName
1000
SCALE
  0
SCALE
  5
40A
102
{ACAD_REACTORS
330
408
102
}
330
408
100
AcDbScale
 70
     0
300
1:2
140
1.0
141
2.0
290
     0
1001
ACAD
1000
AcRTDxfName
1000
SCALE
  0
SCALE
  5
40B
102
{ACAD_REACTORS
330
408
102
}
330
408
100
AcDbScale
 70
     0
300
1:4
140
1.0
141
4.0
290
     0
1001
ACAD
1000
AcRTDxfName
1000
SCALE
  0
SCALE
  5
40C
102
{ACAD_REACTORS
330
408
102
}
330
408
100
AcDbScale
 70
     0
300
1:5
140
1.0
141
5.0
290
     0
1001
ACAD
1000
AcRTDxfName
1000
SCALE
  0
SCALE
  5
40D
102
{ACAD_REACTORS
330
408
102
}
330
408
100
AcDbScale
 70
     0
300
1:8
140
1.0
141
8.0
290
     0
1001
ACAD
1000
AcRTDxfName
1000
SCALE
  0
SCALE
  5
40E
102
{ACAD_REACTORS
330
408
102
}
330
408
100
AcDbScale
 70
     0
300
1:10
140
1.0
141
10.0
290
     0
1001
ACAD
1000
AcRTDxfName
1000
SCALE
  0
SCALE
  5
40F
102
{ACAD_REACTORS
330
408
102
}
330
408
100
AcDbScale
 70
     0
300
1:16
140
1.0
141
16.0
290
     0
1001
ACAD
1000
AcRTDxfName
1000
SCALE
  0
SCALE
  5
410
102
{ACAD_REACTORS
330
408
102
}
330
408
100
AcDbScale
 70
     0
300
1:20
140
1.0
141
20.0
290
     0
1001
ACAD
1000
AcRTDxfName
1000
SCALE
  0
SCALE
  5
411
102
{ACAD_REACTORS
330
408
102
}
330
408
100
AcDbScale
 70
     0
300
1:30
140
1.0
141
30.0
290
     0
1001
ACAD
1000
AcRTDxfName
1000
SCALE
  0
SCALE
  5
412
102
{ACAD_REACTORS
330
408
102
}
330
408
100
AcDbScale
 70
     0
300
1:40
140
1.0
141
40.0
290
     0
1001
ACAD
1000
AcRTDxfName
1000
SCALE
  0
SCALE
  5
413
102
{ACAD_REACTORS
330
408
102
}
330
408
100
AcDbScale
 70
     0
300
1:50
140
1.0
141
50.0
290
     0
1001
ACAD
1000
AcRTDxfName
1000
SCALE
  0
SCALE
  5
414
102
{ACAD_REACTORS
330
408
102
}
330
408
100
AcDbScale
 70
     0
300
1:100
140
1.0
141
100.0
290
     0
1001
ACAD
1000
AcRTDxfName
1000
SCALE
  0
SCALE
  5
415
102
{ACAD_REACTORS
330
408
102
}
330
408
100
AcDbScale
 70
     0
300
2:1
140
2.0
141
1.0
290
     0
1001
ACAD
1000
AcRTDxfName
1000
SCALE
  0
SCALE
  5
416
102
{ACAD_REACTORS
330
408
102
}
330
408
100
AcDbScale
 70
     0
300
4:1
140
4.0
141
1.0
290
     0
1001
ACAD
1000
AcRTDxfName
1000
SCALE
  0
SCALE
  5
417
102
{ACAD_REACTORS
330
408
102
}
330
408
100
AcDbScale
 70
     0
300
8:1
140
8.0
141
1.0
290
     0
1001
ACAD
1000
AcRTDxfName
1000
SCALE
  0
SCALE
  5
418
102
{ACAD_REACTORS
330
408
102
}
330
408
100
AcDbScale
 70
     0
300
10:1
140
10.0
141
1.0
290
     0
1001
ACAD
1000
AcRTDxfName
1000
SCALE
  0
SCALE
  5
419
102
{ACAD_REACTORS
330
408
102
}
330
408
100
AcDbScale
 70
     0
300
100:1
140
100.0
141
1.0
290
     0
1001
ACAD
1000
AcRTDxfName
1000
SCALE
  0
SCALE
  5
41A
102
{ACAD_REACTORS
330
408
102
}
330
408
100
AcDbScale
 70
     0
300
1/128" = 1'-0"
140
0.0078125
141
12.0
290
     0
1001
ACAD
1000
AcRTDxfName
1000
SCALE
  0
SCALE
  5
41B
102
{ACAD_REACTORS
330
408
102
}
330
408
100
AcDbScale
 70
     0
300
1/64" = 1'-0"
140
0.015625
141
12.0
290
     0
1001
ACAD
1000
AcRTDxfName
1000
SCALE
  0
SCALE
  5
41C
102
{ACAD_REACTORS
330
408
102
}
330
408
100
AcDbScale
 70
     0
300
1/32" = 1'-0"
140
0.03125
141
12.0
290
     0
1001
ACAD
1000
AcRTDxfName
1000
SCALE
  0
SCALE
  5
41D
102
{ACAD_REACTORS
330
408
102
}
330
408
100
AcDbScale
 70
     0
300
1/16" = 1'-0"
140
0.0625
141
12.0
290
     0
1001
ACAD
1000
AcRTDxfName
1000
SCALE
  0
SCALE
  5
41E
102
{ACAD_REACTORS
330
408
102
}
330
408
100
AcDbScale
 70
     0
300
3/32" = 1'-0"
140
0.09375
141
12.0
290
     0
1001
ACAD
1000
AcRTDxfName
1000
SCALE
  0
SCALE
  5
41F
102
{ACAD_REACTORS
330
408
102
}
330
408
100
AcDbScale
 70
     0
300
1/8" = 1'-0"
140
0.125
141
12.0
290
     0
1001
ACAD
1000
AcRTDxfName
1000
SCALE
  0
SCALE
  5
420
102
{ACAD_REACTORS
330
408
102
}
330
408
100
AcDbScale
 70
     0
300
3/16" = 1'-0"
140
0.1875
141
12.0
290
     0
1001
ACAD
1000
AcRTDxfName
1000
SCALE
  0
SCALE
  5
421
102
{ACAD_REACTORS
330
408
102
}
330
408
100
AcDbScale
 70
     0
300
1/4" = 1'-0"
140
0.25
141
12.0
290
     0
1001
ACAD
1000
AcRTDxfName
1000
SCALE
  0
SCALE
  5
422
102
{ACAD_REACTORS
330
408
102
}
330
408
100
AcDbScale
 70
     0
300
3/8" = 1'-0"
140
0.375
141
12.0
290
     0
1001
ACAD
1000
AcRTDxfName
1000
SCALE
  0
SCALE
  5
423
102
{ACAD_REACTORS
330
408
102
}
330
408
100
AcDbScale
 70
     0
300
1/2" = 1'-0"
140
0.5
141
12.0
290
     0
1001
ACAD
1000
AcRTDxfName
1000
SCALE
  0
SCALE
  5
424
102
{ACAD_REACTORS
330
408
102
}
330
408
100
AcDbScale
 70
     0
300
3/4" = 1'-0"
140
0.75
141
12.0
290
     0
1001
ACAD
1000
AcRTDxfName
1000
SCALE
  0
SCALE
  5
425
102
{ACAD_REACTORS
330
408
102
}
330
408
100
AcDbScale
 70
     0
300
1" = 1'-0"
140
1.0
141
12.0
290
     0
1001
ACAD
1000
AcRTDxfName
1000
SCALE
  0
SCALE
  5
426
102
{ACAD_REACTORS
330
408
102
}
330
408
100
AcDbScale
 70
     0
300
1-1/2" = 1'-0"
140
1.5
141
12.0
290
     0
1001
ACAD
1000
AcRTDxfName
1000
SCALE
  0
SCALE
  5
427
102
{ACAD_REACTORS
330
408
102
}
330
408
100
AcDbScale
 70
     0
300
3" = 1'-0"
140
3.0
141
12.0
290
     0
1001
ACAD
1000
AcRTDxfName
1000
SCALE
  0
SCALE
  5
428
102
{ACAD_REACTORS
330
408
102
}
330
408
100
AcDbScale
 70
     0
300
6" = 1'-0"
140
6.0
141
12.0
290
     0
1001
ACAD
1000
AcRTDxfName
1000
SCALE
  0
SCALE
  5
429
102
{ACAD_REACTORS
330
408
102
}
330
408
100
AcDbScale
 70
     0
300
1'-0" = 1'-0"
140
12.0
141
12.0
290
     0
1001
ACAD
1000
AcRTDxfName
1000
SCALE
  0
TABLESTYLE
  5
407
102
{ACAD_XDICTIONARY
360
5C4
102
}
102
{ACAD_REACTORS
330
406
102
}
330
406
100
AcDbTableStyle
  3
Standard
 70
     0
 71
     0
 40
0.06
 41
0.06
280
     0
281
     0
  7
STANDARD
140
0.18
170
     2
 62
     0
 63
     7
283
     0
274
    -2
284
     1
 64
     0
275
    -2
285
     1
 65
     0
276
    -2
286
     1
 66
     0
277
    -2
287
     1
 67
     0
278
    -2
288
     1
 68
     0
279
    -2
289
     1
 69
     0
  7
STANDARD
140
0.25
170
     5
 62
     0
 63
     7
283
     0
274
    -2
284
     1
 64
     0
275
    -2
285
     1
 65
     0
276
    -2
286
     1
 66
     0
277
    -2
287
     1
 67
     0
278
    -2
288
     1
 68
     0
279
    -2
289
     1
 69
     0
  7
STANDARD
140
0.18
170
     5
 62
     0
 63
     7
283
     0
274
    -2
284
     1
 64
     0
275
    -2
285
     1
 65
     0
276
    -2
286
     1
 66
     0
277
    -2
287
     1
 67
     0
278
    -2
288
     1
 68
     0
279
    -2
289
     1
 69
     0
  0
VISUALSTYLE
  5
3F7
102
{ACAD_XDICTIONARY
360
5D5
102
}
102
{ACAD_REACTORS
330
3F1
102
}
330
3F1
100
AcDbVisualStyle
  2
2dWireframe
 70
     4
 71
     0
 72
     2
 73
     0
 90
        0
 40
-0.6
 41
-30.0
 62
     5
 63
     7
 74
     1
 91
        4
 64
     7
 65
   257
 75
     1
175
     1
 42
1.0
 92
        0
 66
   257
 43
1.0
 76
     1
 77
     6
 78
     2
 67
     7
 79
     5
170
     0
171
     0
290
     0
174
     0
 93
        1
 44
0.0
173
     0
291
     0
 45
0.0
1001
ACAD
1000
AcDbSavedByObjectVersion
1070
     0
1000
AcDbSavedByObjectVersion
1070
     0
  0
VISUALSTYLE
  5
3F9
102
{ACAD_XDICTIONARY
360
5D9
102
}
102
{ACAD_REACTORS
330
3F1
102
}
330
3F1
100
AcDbVisualStyle
  2
3D Hidden
 70
     6
 71
     1
 72
     2
 73
     2
 90
        0
 40
-0.6
 41
-30.0
 62
     5
 63
     7
 74
     2
 91
        2
 64
     7
 65
   257
 75
     2
175
     1
 42
179.0
 92
        0
 66
   257
 43
1.0
 76
     1
 77
     6
 78
     2
 67
     7
 79
     3
170
     0
171
     0
290
     0
174
     0
 93
        1
 44
0.0
173
     0
291
     0
 45
0.0
1001
ACAD
1000
AcDbSavedByObjectVersion
1070
     0
1000
AcDbSavedByObjectVersion
1070
     0
  0
VISUALSTYLE
  5
3F8
102
{ACAD_XDICTIONARY
360
5D7
102
}
102
{ACAD_REACTORS
330
3F1
102
}
330
3F1
100
AcDbVisualStyle
  2
3dWireframe
 70
     5
 71
     0
 72
     2
 73
     0
 90
        0
 40
-0.6
 41
-30.0
 62
     5
 63
     7
 74
     1
 91
        4
 64
     7
 65
   257
 75
     1
175
     1
 42
1.0
 92
        0
 66
   257
 43
1.0
 76
     1
 77
     6
 78
     2
 67
     7
 79
     5
170
     0
171
     0
290
     0
174
     0
 93
        1
 44
0.0
173
     0
291
     0
 45
0.0
1001
ACAD
1000
AcDbSavedByObjectVersion
1070
     0
1000
AcDbSavedByObjectVersion
1070
     0
  0
VISUALSTYLE
  5
3F6
102
{ACAD_XDICTIONARY
360
5D3
102
}
102
{ACAD_REACTORS
330
3F1
102
}
330
3F1
100
AcDbVisualStyle
  2
Basic
 70
     7
 71
     1
 72
     0
 73
     1
 90
        0
 40
-0.6
 41
-30.0
 62
     5
 63
     7
 74
     0
 91
        4
 64
     7
 65
   257
 75
     1
175
     1
 42
1.0
 92
        8
 66
     7
 43
1.0
 76
     1
 77
     6
 78
     2
 67
     7
 79
     5
170
     0
171
     0
290
     0
174
     0
 93
        1
 44
0.0
173
     0
291
     1
 45
0.0
1001
ACAD
1000
AcDbSavedByObjectVersion
1070
     0
1000
AcDbSavedByObjectVersion
1070
     0
  0
VISUALSTYLE
  5
3FD
102
{ACAD_XDICTIONARY
360
5E1
102
}
102
{ACAD_REACTORS
330
3F1
102
}
330
3F1
100
AcDbVisualStyle
  2
Brighten
 70
    12
 71
     2
 72
     2
 73
     0
 90
        0
 40
-0.6
 41
-30.0
 62
     5
 63
     7
 74
     1
 91
        4
 64
     7
 65
   257
 75
     1
175
     1
 42
1.0
 92
        8
 66
     7
 43
1.0
 76
     1
 77
     6
 78
     2
 67
     7
 79
     5
170
     0
171
     0
290
     0
174
     0
 93
        1
 44
50.0
173
     0
291
     1
 45
0.0
1001
ACAD
1000
AcDbSavedByObjectVersion
1070
     0
1000
AcDbSavedByObjectVersion
1070
     0
  0
VISUALSTYLE
  5
401
102
{ACAD_XDICTIONARY
360
5E9
102
}
102
{ACAD_REACTORS
330
3F1
102
}
330
3F1
100
AcDbVisualStyle
  2
ColorChange
 70
    16
 71
     2
 72
     2
 73
     3
 90
        0
 40
-0.6
 41
-30.0
 62
     5
 63
     8
 74
     1
 91
        4
 64
     7
 65
   257
 75
     1
175
     1
 42
1.0
 92
        8
 66
     8
 43
1.0
 76
     1
 77
     6
 78
     2
 67
     7
 79
     5
170
     0
171
     0
290
     0
174
     0
 93
        1
 44
0.0
173
     0
291
     1
 45
0.0
1001
ACAD
1000
AcDbSavedByObjectVersion
1070
     0
1000
AcDbSavedByObjectVersion
1070
     0
  0
VISUALSTYLE
  5
3FA
102
{ACAD_XDICTIONARY
360
5DB
102
}
102
{ACAD_REACTORS
330
3F1
102
}
330
3F1
100
AcDbVisualStyle
  2
Conceptual
 70
     9
 71
     3
 72
     2
 73
     0
 90
        0
 40
-0.6
 41
-30.0
 62
     5
 63
     7
 74
     2
 91
        2
 64
     7
 65
   257
 75
     1
175
     1
 42
179.0
 92
        8
 66
     7
 43
1.0
 76
     1
 77
     6
 78
     2
 67
     7
 79
     3
170
     0
171
     0
290
     0
174
     0
 93
        1
 44
0.0
173
     0
291
     0
 45
0.0
1001
ACAD
1000
AcDbSavedByObjectVersion
1070
     0
1000
AcDbSavedByObjectVersion
1070
     0
  0
VISUALSTYLE
  5
3FC
102
{ACAD_XDICTIONARY
360
5DF
102
}
102
{ACAD_REACTORS
330
3F1
102
}
330
3F1
100
AcDbVisualStyle
  2
Dim
 70
    11
 71
     2
 72
     2
 73
     0
 90
        0
 40
-0.6
 41
-30.0
 62
     5
 63
     7
 74
     1
 91
        4
 64
     7
 65
   257
 75
     1
175
     1
 42
1.0
 92
        8
 66
     7
 43
1.0
 76
     1
 77
     6
 78
     2
 67
     7
 79
     5
170
     0
171
     0
290
     0
174
     0
 93
        1
 44
-50.0
173
     0
291
     1
 45
0.0
1001
ACAD
1000
AcDbSavedByObjectVersion
1070
     0
1000
AcDbSavedByObjectVersion
1070
     0
  0
VISUALSTYLE
  5
404
102
{ACAD_XDICTIONARY
360
5EF
102
}
102
{ACAD_REACTORS
330
3F1
102
}
330
3F1
100
AcDbVisualStyle
  2
EdgeColorOff
 70
    22
 71
     2
 72
     2
 73
     0
 90
        0
 40
-0.6
 41
-30.0
 62
     5
 63
     7
 74
     1
 91
        4
 64
     7
 65
   257
 75
     1
175
     1
 42
1.0
 92
        8
 66
     7
 43
1.0
 76
     1
 77
     6
 78
     2
 67
     7
 79
     5
170
     0
171
     0
290
     0
174
     0
 93
        1
 44
0.0
173
     0
291
     1
 45
0.0
1001
ACAD
1000
AcDbSavedByObjectVersion
1070
     0
1000
AcDbSavedByObjectVersion
1070
     0
  0
VISUALSTYLE
  5
400
102
{ACAD_XDICTIONARY
360
5E7
102
}
102
{ACAD_REACTORS
330
3F1
102
}
330
3F1
100
AcDbVisualStyle
  2
Facepattern
 70
    15
 71
     2
 72
     2
 73
     0
 90
        0
 40
-0.6
 41
-30.0
 62
     5
 63
     7
 74
     1
 91
        4
 64
     7
 65
   257
 75
     1
175
     1
 42
1.0
 92
        8
 66
     7
 43
1.0
 76
     1
 77
     6
 78
     2
 67
     7
 79
     5
170
     0
171
     0
290
     0
174
     0
 93
        1
 44
0.0
173
     0
291
     1
 45
0.0
1001
ACAD
1000
AcDbSavedByObjectVersion
1070
     0
1000
AcDbSavedByObjectVersion
1070
     0
  0
VISUALSTYLE
  5
3F2
102
{ACAD_XDICTIONARY
360
5CB
102
}
102
{ACAD_REACTORS
330
3F1
102
}
330
3F1
100
AcDbVisualStyle
  2
Flat
 70
     0
 71
     2
 72
     1
 73
     1
 90
        2
 40
-0.6
 41
30.0
 62
     5
 63
     7
 74
     0
 91
        4
 64
     7
 65
   257
 75
     1
175
     1
 42
1.0
 92
        8
 66
     7
 43
1.0
 76
     1
 77
     6
 78
     2
 67
     7
 79
     5
170
     0
171
     0
290
     0
174
     0
 93
       13
 44
0.0
173
     0
291
     1
 45
0.0
1001
ACAD
1000
AcDbSavedByObjectVersion
1070
     0
1000
AcDbSavedByObjectVersion
1070
     0
  0
VISUALSTYLE
  5
3F3
102
{ACAD_XDICTIONARY
360
5CD
102
}
102
{ACAD_REACTORS
330
3F1
102
}
330
3F1
100
AcDbVisualStyle
  2
FlatWithEdges
 70
     1
 71
     2
 72
     1
 73
     1
 90
        2
 40
-0.6
 41
30.0
 62
     5
 63
     7
 74
     1
 91
        4
 64
     7
 65
   257
 75
     1
175
     1
 42
1.0
 92
        0
 66
   257
 43
1.0
 76
     1
 77
     6
 78
     2
 67
     7
 79
     5
170
     0
171
     0
290
     0
174
     0
 93
       13
 44
0.0
173
     0
291
     1
 45
0.0
1001
ACAD
1000
AcDbSavedByObjectVersion
1070
     0
1000
AcDbSavedByObjectVersion
1070
     0
  0
VISUALSTYLE
  5
3F4
102
{ACAD_XDICTIONARY
360
5CF
102
}
102
{ACAD_REACTORS
330
3F1
102
}
330
3F1
100
AcDbVisualStyle
  2
Gouraud
 70
     2
 71
     2
 72
     2
 73
     1
 90
        2
 40
-0.6
 41
30.0
 62
     5
 63
     7
 74
     0
 91
        4
 64
     7
 65
   257
 75
     1
175
     1
 42
1.0
 92
        0
 66
     7
 43
1.0
 76
     1
 77
     6
 78
     2
 67
     7
 79
     5
170
     0
171
     0
290
     0
174
     0
 93
       13
 44
0.0
173
     0
291
     1
 45
0.0
1001
ACAD
1000
AcDbSavedByObjectVersion
1070
     0
1000
AcDbSavedByObjectVersion
1070
     0
  0
VISUALSTYLE
  5
3F5
102
{ACAD_XDICTIONARY
360
5D1
102
}
102
{ACAD_REACTORS
330
3F1
102
}
330
3F1
100
AcDbVisualStyle
  2
GouraudWithEdges
 70
     3
 71
     2
 72
     2
 73
     1
 90
        2
 40
-0.6
 41
30.0
 62
     5
 63
     7
 74
     1
 91
        4
 64
     7
 65
   257
 75
     1
175
     1
 42
1.0
 92
        0
 66
   257
 43
1.0
 76
     1
 77
     6
 78
     2
 67
     7
 79
     5
170
     0
171
     0
290
     0
174
     0
 93
       13
 44
0.0
173
     0
291
     1
 45
0.0
1001
ACAD
1000
AcDbSavedByObjectVersion
1070
     0
1000
AcDbSavedByObjectVersion
1070
     0
  0
VISUALSTYLE
  5
402
102
{ACAD_XDICTIONARY
360
5EB
102
}
102
{ACAD_REACTORS
330
3F1
102
}
330
3F1
100
AcDbVisualStyle
  2
JitterOff
 70
    20
 71
     2
 72
     2
 73
     0
 90
        0
 40
-0.6
 41
-30.0
 62
     5
 63
     7
 74
     1
 91
        4
 64
     7
 65
   257
 75
     1
175
     1
 42
1.0
 92
       10
 66
     7
 43
1.0
 76
     1
 77
     6
 78
     2
 67
     7
 79
     5
170
     0
171
     0
290
     0
174
     0
 93
        1
 44
0.0
173
     0
291
     1
 45
0.0
1001
ACAD
1000
AcDbSavedByObjectVersion
1070
     0
1000
AcDbSavedByObjectVersion
1070
     0
  0
VISUALSTYLE
  5
3FF
102
{ACAD_XDICTIONARY
360
5E5
102
}
102
{ACAD_REACTORS
330
3F1
102
}
330
3F1
100
AcDbVisualStyle
  2
Linepattern
 70
    14
 71
     2
 72
     2
 73
     0
 90
        0
 40
-0.6
 41
-30.0
 62
     5
 63
     7
 74
     1
 91
        4
 64
     7
 65
   257
 75
     7
175
     7
 42
1.0
 92
        8
 66
     7
 43
1.0
 76
     1
 77
     6
 78
     2
 67
     7
 79
     5
170
     0
171
     0
290
     0
174
     0
 93
        1
 44
0.0
173
     0
291
     1
 45
0.0
1001
ACAD
1000
AcDbSavedByObjectVersion
1070
     0
1000
AcDbSavedByObjectVersion
1070
     0
  0
VISUALSTYLE
  5
403
102
{ACAD_XDICTIONARY
360
5ED
102
}
102
{ACAD_REACTORS
330
3F1
102
}
330
3F1
100
AcDbVisualStyle
  2
OverhangOff
 70
    21
 71
     2
 72
     2
 73
     0
 90
        0
 40
-0.6
 41
-30.0
 62
     5
 63
     7
 74
     1
 91
        4
 64
     7
 65
   257
 75
     1
175
     1
 42
1.0
 92
        9
 66
     7
 43
1.0
 76
     1
 77
     6
 78
     2
 67
     7
 79
     5
170
     0
171
     0
290
     0
174
     0
 93
        1
 44
0.0
173
     0
291
     1
 45
0.0
1001
ACAD
1000
AcDbSavedByObjectVersion
1070
     0
1000
AcDbSavedByObjectVersion
1070
     0
  0
VISUALSTYLE
  5
3FB
102
{ACAD_XDICTIONARY
360
5DD
102
}
102
{ACAD_REACTORS
330
3F1
102
}
330
3F1
100
AcDbVisualStyle
  2
Realistic
 70
     8
 71
     2
 72
     2
 73
     0
 90
        0
 40
-0.6
 41
-30.0
 62
     5
 63
     7
 74
     1
 91
        0
 64
     7
 65
   257
 75
     1
175
     1
 42
1.0
 92
        8
 66
     8
 43
1.0
 76
     1
 77
     6
 78
     2
 67
     7
 79
     5
170
     0
171
     0
290
     0
174
     0
 93
       13
 44
0.0
173
     0
291
     0
 45
0.0
1001
ACAD
1000
AcDbSavedByObjectVersion
1070
     0
1000
AcDbSavedByObjectVersion
1070
     0
  0
VISUALSTYLE
  5
3FE
102
{ACAD_XDICTIONARY
360
5E3
102
}
102
{ACAD_REACTORS
330
3F1
102
}
330
3F1
100
AcDbVisualStyle
  2
Thicken
 70
    13
 71
     2
 72
     2
 73
     0
 90
        0
 40
-0.6
 41
-30.0
 62
     5
 63
     7
 74
     1
 91
        4
 64
     7
 65
   257
 75
     1
175
     1
 42
1.0
 92
       12
 66
     7
 43
1.0
 76
     1
 77
     6
 78
     2
 67
     7
 79
     5
170
     0
171
     0
290
     0
174
     0
 93
        1
 44
0.0
173
     0
291
     1
 45
0.0
1001
ACAD
1000
AcDbSavedByObjectVersion
1070
     0
1000
AcDbSavedByObjectVersion
1070
     0
  0
DICTIONARYVAR
  5
559
102
{ACAD_REACTORS
330
556
102
}
330
556
100
DictionaryVariables
280
     0
  1
1:1
  0
DICTIONARYVAR
  5
558
102
{ACAD_REACTORS
330
556
102
}
330
556
100
DictionaryVariables
280
     0
  1
STANDARD
  0
DICTIONARYVAR
  5
557
102
{ACAD_REACTORS
330
556
102
}
330
556
100
DictionaryVariables
280
     0
  1
STANDARD
  0
DICTIONARYVAR
  5
55C
102
{ACAD_REACTORS
330
556
102
}
330
556
100
DictionaryVariables
280
     0
  1
1
  0
DICTIONARYVAR
  5
55B
102
{ACAD_REACTORS
330
556
102
}
330
556
100
DictionaryVariables
280
     0
  1
0
  0
DICTIONARYVAR
  5
55A
102
{ACAD_REACTORS
330
556
102
}
330
556
100
DictionaryVariables
280
     0
  1
127
  0
DICTIONARYVAR
  5
55D
102
{ACAD_REACTORS
330
556
102
}
330
556
100
DictionaryVariables
280
     0
  1
0
  0
DICTIONARY
  5
91C
330
42D
100
AcDbDictionary
280
     1
281
     1
  3
ACAD_XREC_ROUNDTRIP
360
91D
  0
DICTIONARY
  5
91A
330
42C
100
AcDbDictionary
280
     1
281
     1
  3
ACAD_XREC_ROUNDTRIP
360
91B
  0
DICTIONARY
  5
3E2
330
3E1
100
AcDbDictionary
280
     1
281
     1
  3
ACAD_XREC_ROUNDTRIP
360
5C9
  3
BUMPTILE
360
3E4
  3
DIFFUSETILE
360
3E3
  3
OPACITYTILE
360
3E7
  3
REFLECTIONTILE
360
3E6
  3
REFRACTIONTILE
360
3E8
  3
SPECULARTILE
360
3E5
  0
DICTIONARY
  5
3DA
330
3D9
100
AcDbDictionary
280
     1
281
     1
  3
ACAD_XREC_ROUNDTRIP
360
5C8
  3
BUMPTILE
360
3DC
  3
DIFFUSETILE
360
3DB
  3
OPACITYTILE
360
3DF
  3
REFLECTIONTILE
360
3DE
  3
REFRACTIONTILE
360
3E0
  3
SPECULARTILE
360
3DD
  0
DICTIONARY
  5
3EA
330
3E9
100
AcDbDictionary
280
     1
281
     1
  3
ACAD_XREC_ROUNDTRIP
360
5CA
  3
BUMPTILE
360
3EC
  3
DIFFUSETILE
360
3EB
  3
OPACITYTILE
360
3EF
  3
REFLECTIONTILE
360
3EE
  3
REFRACTIONTILE
360
3F0
  3
SPECULARTILE
360
3ED
  0
DICTIONARY
  5
5C4
330
407
100
AcDbDictionary
280
     1
281
     1
  3
ACAD_ROUNDTRIP_2008_TABLESTYLE_CELLSTYLEMAP
360
5C5
  3
ACAD_XREC_ROUNDTRIP
360
919
  0
DICTIONARY
  5
5D5
330
3F7
100
AcDbDictionary
280
     1
281
     1
  3
ACAD_XREC_ROUNDTRIP
360
5D6
  0
DICTIONARY
  5
5D9
330
3F9
100
AcDbDictionary
280
     1
281
     1
  3
ACAD_XREC_ROUNDTRIP
360
5DA
  0
DICTIONARY
  5
5D7
330
3F8
100
AcDbDictionary
280
     1
281
     1
  3
ACAD_XREC_ROUNDTRIP
360
5D8
  0
DICTIONARY
  5
5D3
330
3F6
100
AcDbDictionary
280
     1
281
     1
  3
ACAD_XREC_ROUNDTRIP
360
5D4
  0
DICTIONARY
  5
5E1
330
3FD
100
AcDbDictionary
280
     1
281
     1
  3
ACAD_XREC_ROUNDTRIP
360
5E2
  0
DICTIONARY
  5
5E9
330
401
100
AcDbDictionary
280
     1
281
     1
  3
ACAD_XREC_ROUNDTRIP
360
5EA
  0
DICTIONARY
  5
5DB
330
3FA
100
AcDbDictionary
280
     1
281
     1
  3
ACAD_XREC_ROUNDTRIP
360
5DC
  0
DICTIONARY
  5
5DF
330
3FC
100
AcDbDictionary
280
     1
281
     1
  3
ACAD_XREC_ROUNDTRIP
360
5E0
  0
DICTIONARY
  5
5EF
330
404
100
AcDbDictionary
280
     1
281
     1
  3
ACAD_XREC_ROUNDTRIP
360
5F0
  0
DICTIONARY
  5
5E7
330
400
100
AcDbDictionary
280
     1
281
     1
  3
ACAD_XREC_ROUNDTRIP
360
5E8
  0
DICTIONARY
  5
5CB
330
3F2
100
AcDbDictionary
280
     1
281
     1
  3
ACAD_XREC_ROUNDTRIP
360
5CC
  0
DICTIONARY
  5
5CD
330
3F3
100
AcDbDictionary
280
     1
281
     1
  3
ACAD_XREC_ROUNDTRIP
360
5CE
  0
DICTIONARY
  5
5CF
330
3F4
100
AcDbDictionary
280
     1
281
     1
  3
ACAD_XREC_ROUNDTRIP
360
5D0
  0
DICTIONARY
  5
5D1
330
3F5
100
AcDbDictionary
280
     1
281
     1
  3
ACAD_XREC_ROUNDTRIP
360
5D2
  0
DICTIONARY
  5
5EB
330
402
100
AcDbDictionary
280
     1
281
     1
  3
ACAD_XREC_ROUNDTRIP
360
5EC
  0
DICTIONARY
  5
5E5
330
3FF
100
AcDbDictionary
280
     1
281
     1
  3
ACAD_XREC_ROUNDTRIP
360
5E6
  0
DICTIONARY
  5
5ED
330
403
100
AcDbDictionary
280
     1
281
     1
  3
ACAD_XREC_ROUNDTRIP
360
5EE
  0
DICTIONARY
  5
5DD
330
3FB
100
AcDbDictionary
280
     1
281
     1
  3
ACAD_XREC_ROUNDTRIP
360
5DE
  0
DICTIONARY
  5
5E3
330
3FE
100
AcDbDictionary
280
     1
281
     1
  3
ACAD_XREC_ROUNDTRIP
360
5E4
  0
XRECORD
  5
91D
102
{ACAD_REACTORS
330
91C
102
}
330
91C
100
AcDbXrecord
280
     1
102
SHADEPLOT
 70
     0
102
SHADEPLOTRESLEVEL
 70
     2
102
SHADEPLOTCUSTOMDPI
 70
   300
  0
XRECORD
  5
91B
102
{ACAD_REACTORS
330
91A
102
}
330
91A
100
AcDbXrecord
280
     1
102
SHADEPLOT
 70
     0
102
SHADEPLOTRESLEVEL
 70
     2
102
SHADEPLOTCUSTOMDPI
 70
   300
  0
XRECORD
  5
5C9
102
{ACAD_REACTORS
330
3E2
102
}
330
3E2
100
AcDbXrecord
280
     1
102
MATERIAL
148
0.0
149
0.0
149
0.0
 93
        0
 94
       63
282
     0
 72
     0
 77
     0
171
     0
175
     0
179
     0
273
     0
  0
XRECORD
  5
3E4
102
{ACAD_REACTORS
330
3E2
102
}
330
3E2
100
AcDbXrecord
280
     1
270
     1
271
     1
  0
XRECORD
  5
3E3
102
{ACAD_REACTORS
330
3E2
102
}
330
3E2
100
AcDbXrecord
280
     1
270
     1
271
     1
  0
XRECORD
  5
3E7
102
{ACAD_REACTORS
330
3E2
102
}
330
3E2
100
AcDbXrecord
280
     1
270
     1
271
     1
  0
XRECORD
  5
3E6
102
{ACAD_REACTORS
330
3E2
102
}
330
3E2
100
AcDbXrecord
280
     1
270
     1
271
     1
  0
XRECORD
  5
3E8
102
{ACAD_REACTORS
330
3E2
102
}
330
3E2
100
AcDbXrecord
280
     1
270
     1
271
     1
  0
XRECORD
  5
3E5
102
{ACAD_REACTORS
330
3E2
102
}
330
3E2
100
AcDbXrecord
280
     1
270
     1
271
     1
  0
XRECORD
  5
5C8
102
{ACAD_REACTORS
330
3DA
102
}
330
3DA
100
AcDbXrecord
280
     1
102
MATERIAL
148
0.0
149
0.0
149
0.0
 93
        0
 94
       63
282
     0
 72
     0
 77
     0
171
     0
175
     0
179
     0
273
     0
  0
XRECORD
  5
3DC
102
{ACAD_REACTORS
330
3DA
102
}
330
3DA
100
AcDbXrecord
280
     1
270
     1
271
     1
  0
XRECORD
  5
3DB
102
{ACAD_REACTORS
330
3DA
102
}
330
3DA
100
AcDbXrecord
280
     1
270
     1
271
     1
  0
XRECORD
  5
3DF
102
{ACAD_REACTORS
330
3DA
102
}
330
3DA
100
AcDbXrecord
280
     1
270
     1
271
     1
  0
XRECORD
  5
3DE
102
{ACAD_REACTORS
330
3DA
102
}
330
3DA
100
AcDbXrecord
280
     1
270
     1
271
     1
  0
XRECORD
  5
3E0
102
{ACAD_REACTORS
330
3DA
102
}
330
3DA
100
AcDbXrecord
280
     1
270
     1
271
     1
  0
XRECORD
  5
3DD
102
{ACAD_REACTORS
330
3DA
102
}
330
3DA
100
AcDbXrecord
280
     1
270
     1
271
     1
  0
XRECORD
  5
5CA
102
{ACAD_REACTORS
330
3EA
102
}
330
3EA
100
AcDbXrecord
280
     1
102
MATERIAL
148
0.0
149
0.0
149
0.0
 93
        0
 94
       63
282
     0
 72
     0
 77
     0
171
     0
175
     0
179
     0
273
     0
  0
XRECORD
  5
3EC
102
{ACAD_REACTORS
330
3EA
102
}
330
3EA
100
AcDbXrecord
280
     1
270
     1
271
     1
  0
XRECORD
  5
3EB
102
{ACAD_REACTORS
330
3EA
102
}
330
3EA
100
AcDbXrecord
280
     1
270
     1
271
     1
  0
XRECORD
  5
3EF
102
{ACAD_REACTORS
330
3EA
102
}
330
3EA
100
AcDbXrecord
280
     1
270
     1
271
     1
  0
XRECORD
  5
3EE
102
{ACAD_REACTORS
330
3EA
102
}
330
3EA
100
AcDbXrecord
280
     1
270
     1
271
     1
  0
XRECORD
  5
3F0
102
{ACAD_REACTORS
330
3EA
102
}
330
3EA
100
AcDbXrecord
280
     1
270
     1
271
     1
  0
XRECORD
  5
3ED
102
{ACAD_REACTORS
330
3EA
102
}
330
3EA
100
AcDbXrecord
280
     1
270
     1
271
     1
  0
CELLSTYLEMAP
  5
5C5
102
{ACAD_REACTORS
330
5C4
102
}
330
5C4
100
AcDbCellStyleMap
 90
        3
300
CELLSTYLE
  1
TABLEFORMAT_BEGIN
 90
        5
170
     1
 91
        0
 92
    32768
 62
   257
 93
        1
300
CONTENTFORMAT
  1
CONTENTFORMAT_BEGIN
 90
        0
 91
        0
 92
      512
 93
        0
300

 40
0.0
140
1.0
 94
        5
 62
     0
340
10F
144
0.25
309
CONTENTFORMAT_END
171
     0
 94
        0
309
TABLEFORMAT_END
  1
CELLSTYLE_BEGIN
 90
        1
 91
        1
300
_TITLE
309
CELLSTYLE_END
300
CELLSTYLE
  1
TABLEFORMAT_BEGIN
 90
        5
170
     1
 91
        0
 92
        0
 62
   257
 93
        1
300
CONTENTFORMAT
  1
CONTENTFORMAT_BEGIN
 90
        0
 91
        0
 92
      512
 93
        0
300

 40
0.0
140
1.0
 94
        5
 62
     0
340
10F
144
0.18
309
CONTENTFORMAT_END
171
     0
 94
        0
309
TABLEFORMAT_END
  1
CELLSTYLE_BEGIN
 90
        2
 91
        1
300
_HEADER
309
CELLSTYLE_END
300
CELLSTYLE
  1
TABLEFORMAT_BEGIN
 90
        5
170
     1
 91
        0
 92
        0
 62
   257
 93
        1
300
CONTENTFORMAT
  1
CONTENTFORMAT_BEGIN
 90
        0
 91
        0
 92
      512
 93
        0
300

 40
0.0
140
1.0
 94
        2
 62
     0
340
10F
144
0.18
309
CONTENTFORMAT_END
171
     0
 94
        0
309
TABLEFORMAT_END
  1
CELLSTYLE_BEGIN
 90
        3
 91
        2
300
_DATA
309
CELLSTYLE_END
1001
ACAD
1000
AcRTDxfName
1000
CELLSTYLEMAP
  0
XRECORD
  5
919
102
{ACAD_REACTORS
330
5C4
102
}
330
5C4
100
AcDbXrecord
280
     1
102
ACAD_ROUNDTRIP_PRE2007_TABLESTYLE
 90
      512
 91
        0
  1

 92
      512
 93
        0
  2

 94
      512
 95
        0
  3

  0
XRECORD
  5
5D6
102
{ACAD_REACTORS
330
5D5
102
}
330
5D5
100
AcDbXrecord
280
     1
102
RTVSPropertyOp0
 70
     1
102
RTVSPropertyOp1
 70
     1
102
RTVSPropertyOp2
 70
     1
102
RTVSPropertyOp3
 70
     1
102
RTVSPropertyOp4
 70
     1
102
RTVSPropertyOp5
 70
     1
102
RTVSPropertyOp6
 70
     1
102
RTVSPropertyOp7
 70
     1
102
RTVSPropertyOp8
 70
     1
102
RTVSPropertyOp9
 70
     1
102
RTVSPropertyOp10
 70
     1
102
RTVSPropertyOp11
 70
     1
102
RTVSPropertyOp12
 70
     1
102
RTVSPropertyOp13
 70
     1
102
RTVSPropertyOp14
 70
     1
102
RTVSPropertyOp15
 70
     1
102
RTVSPropertyOp16
 70
     1
102
RTVSPropertyOp17
 70
     1
102
RTVSPropertyOp18
 70
     1
102
RTVSPropertyOp19
 70
     1
102
RTVSPropertyOp20
 70
     1
102
RTVSPropertyOp21
 70
     1
102
RTVSPropertyOp22
 70
     1
102
RTVSPropertyOp23
 70
     1
102
RTVSPropertyOp24
 70
     1
102
RTVSPropertyOp25
 70
     1
102
RTVSPropertyOp26
 70
     1
102
RTVSPropertyOp27
 70
     1
  0
XRECORD
  5
5DA
102
{ACAD_REACTORS
330
5D9
102
}
330
5D9
100
AcDbXrecord
280
     1
102
RTVSPropertyOp0
 70
     1
102
RTVSPropertyOp1
 70
     1
102
RTVSPropertyOp2
 70
     1
102
RTVSPropertyOp3
 70
     1
102
RTVSPropertyOp4
 70
     1
102
RTVSPropertyOp5
 70
     1
102
RTVSPropertyOp6
 70
     1
102
RTVSPropertyOp7
 70
     1
102
RTVSPropertyOp8
 70
     1
102
RTVSPropertyOp9
 70
     1
102
RTVSPropertyOp10
 70
     1
102
RTVSPropertyOp11
 70
     1
102
RTVSPropertyOp12
 70
     1
102
RTVSPropertyOp13
 70
     1
102
RTVSPropertyOp14
 70
     1
102
RTVSPropertyOp15
 70
     1
102
RTVSPropertyOp16
 70
     1
102
RTVSPropertyOp17
 70
     1
102
RTVSPropertyOp18
 70
     1
102
RTVSPropertyOp19
 70
     1
102
RTVSPropertyOp20
 70
     1
102
RTVSPropertyOp21
 70
     1
102
RTVSPropertyOp22
 70
     1
102
RTVSPropertyOp23
 70
     1
102
RTVSPropertyOp24
 70
     1
102
RTVSPropertyOp25
 70
     1
102
RTVSPropertyOp26
 70
     1
102
RTVSPropertyOp27
 70
     1
  0
XRECORD
  5
5D8
102
{ACAD_REACTORS
330
5D7
102
}
330
5D7
100
AcDbXrecord
280
     1
102
RTVSPropertyOp0
 70
     1
102
RTVSPropertyOp1
 70
     1
102
RTVSPropertyOp2
 70
     1
102
RTVSPropertyOp3
 70
     1
102
RTVSPropertyOp4
 70
     1
102
RTVSPropertyOp5
 70
     1
102
RTVSPropertyOp6
 70
     1
102
RTVSPropertyOp7
 70
     1
102
RTVSPropertyOp8
 70
     1
102
RTVSPropertyOp9
 70
     1
102
RTVSPropertyOp10
 70
     1
102
RTVSPropertyOp11
 70
     1
102
RTVSPropertyOp12
 70
     1
102
RTVSPropertyOp13
 70
     1
102
RTVSPropertyOp14
 70
     1
102
RTVSPropertyOp15
 70
     1
102
RTVSPropertyOp16
 70
     1
102
RTVSPropertyOp17
 70
     1
102
RTVSPropertyOp18
 70
     1
102
RTVSPropertyOp19
 70
     1
102
RTVSPropertyOp20
 70
     1
102
RTVSPropertyOp21
 70
     1
102
RTVSPropertyOp22
 70
     1
102
RTVSPropertyOp23
 70
     1
102
RTVSPropertyOp24
 70
     1
102
RTVSPropertyOp25
 70
     1
102
RTVSPropertyOp26
 70
     1
102
RTVSPropertyOp27
 70
     1
  0
XRECORD
  5
5D4
102
{ACAD_REACTORS
330
5D3
102
}
330
5D3
100
AcDbXrecord
280
     1
102
RTVSPropertyOp0
 70
     1
102
RTVSPropertyOp1
 70
     1
102
RTVSPropertyOp2
 70
     1
102
RTVSPropertyOp3
 70
     1
102
RTVSPropertyOp4
 70
     1
102
RTVSPropertyOp5
 70
     1
102
RTVSPropertyOp6
 70
     1
102
RTVSPropertyOp7
 70
     1
102
RTVSPropertyOp8
 70
     1
102
RTVSPropertyOp9
 70
     1
102
RTVSPropertyOp10
 70
     1
102
RTVSPropertyOp11
 70
     1
102
RTVSPropertyOp12
 70
     1
102
RTVSPropertyOp13
 70
     1
102
RTVSPropertyOp14
 70
     1
102
RTVSPropertyOp15
 70
     1
102
RTVSPropertyOp16
 70
     1
102
RTVSPropertyOp17
 70
     1
102
RTVSPropertyOp18
 70
     1
102
RTVSPropertyOp19
 70
     1
102
RTVSPropertyOp20
 70
     1
102
RTVSPropertyOp21
 70
     1
102
RTVSPropertyOp22
 70
     1
102
RTVSPropertyOp23
 70
     1
102
RTVSPropertyOp24
 70
     1
102
RTVSPropertyOp25
 70
     1
102
RTVSPropertyOp26
 70
     1
102
RTVSPropertyOp27
 70
     1
  0
XRECORD
  5
5E2
102
{ACAD_REACTORS
330
5E1
102
}
330
5E1
100
AcDbXrecord
280
     1
102
RTVSPropertyOp0
 70
     1
102
RTVSPropertyOp1
 70
     1
102
RTVSPropertyOp2
 70
     1
102
RTVSPropertyOp3
 70
     1
102
RTVSPropertyOp4
 70
     1
102
RTVSPropertyOp5
 70
     1
102
RTVSPropertyOp6
 70
     1
102
RTVSPropertyOp7
 70
     1
102
RTVSPropertyOp8
 70
     1
102
RTVSPropertyOp9
 70
     1
102
RTVSPropertyOp10
 70
     1
102
RTVSPropertyOp11
 70
     1
102
RTVSPropertyOp12
 70
     1
102
RTVSPropertyOp13
 70
     1
102
RTVSPropertyOp14
 70
     1
102
RTVSPropertyOp15
 70
     1
102
RTVSPropertyOp16
 70
     1
102
RTVSPropertyOp17
 70
     1
102
RTVSPropertyOp18
 70
     1
102
RTVSPropertyOp19
 70
     1
102
RTVSPropertyOp20
 70
     1
102
RTVSPropertyOp21
 70
     1
102
RTVSPropertyOp22
 70
     1
102
RTVSPropertyOp23
 70
     1
102
RTVSPropertyOp24
 70
     1
102
RTVSPropertyOp25
 70
     1
102
RTVSPropertyOp26
 70
     1
102
RTVSPropertyOp27
 70
     1
  0
XRECORD
  5
5EA
102
{ACAD_REACTORS
330
5E9
102
}
330
5E9
100
AcDbXrecord
280
     1
102
RTVSPropertyOp0
 70
     1
102
RTVSPropertyOp1
 70
     1
102
RTVSPropertyOp2
 70
     1
102
RTVSPropertyOp3
 70
     1
102
RTVSPropertyOp4
 70
     1
102
RTVSPropertyOp5
 70
     1
102
RTVSPropertyOp6
 70
     1
102
RTVSPropertyOp7
 70
     1
102
RTVSPropertyOp8
 70
     1
102
RTVSPropertyOp9
 70
     1
102
RTVSPropertyOp10
 70
     1
102
RTVSPropertyOp11
 70
     1
102
RTVSPropertyOp12
 70
     1
102
RTVSPropertyOp13
 70
     1
102
RTVSPropertyOp14
 70
     1
102
RTVSPropertyOp15
 70
     1
102
RTVSPropertyOp16
 70
     1
102
RTVSPropertyOp17
 70
     1
102
RTVSPropertyOp18
 70
     1
102
RTVSPropertyOp19
 70
     1
102
RTVSPropertyOp20
 70
     1
102
RTVSPropertyOp21
 70
     1
102
RTVSPropertyOp22
 70
     1
102
RTVSPropertyOp23
 70
     1
102
RTVSPropertyOp24
 70
     1
102
RTVSPropertyOp25
 70
     1
102
RTVSPropertyOp26
 70
     1
102
RTVSPropertyOp27
 70
     1
  0
XRECORD
  5
5DC
102
{ACAD_REACTORS
330
5DB
102
}
330
5DB
100
AcDbXrecord
280
     1
102
RTVSPropertyOp0
 70
     1
102
RTVSPropertyOp1
 70
     1
102
RTVSPropertyOp2
 70
     1
102
RTVSPropertyOp3
 70
     1
102
RTVSPropertyOp4
 70
     1
102
RTVSPropertyOp5
 70
     1
102
RTVSPropertyOp6
 70
     1
102
RTVSPropertyOp7
 70
     1
102
RTVSPropertyOp8
 70
     1
102
RTVSPropertyOp9
 70
     1
102
RTVSPropertyOp10
 70
     1
102
RTVSPropertyOp11
 70
     1
102
RTVSPropertyOp12
 70
     1
102
RTVSPropertyOp13
 70
     1
102
RTVSPropertyOp14
 70
     1
102
RTVSPropertyOp15
 70
     1
102
RTVSPropertyOp16
 70
     1
102
RTVSPropertyOp17
 70
     1
102
RTVSPropertyOp18
 70
     1
102
RTVSPropertyOp19
 70
     1
102
RTVSPropertyOp20
 70
     1
102
RTVSPropertyOp21
 70
     1
102
RTVSPropertyOp22
 70
     1
102
RTVSPropertyOp23
 70
     1
102
RTVSPropertyOp24
 70
     1
102
RTVSPropertyOp25
 70
     1
102
RTVSPropertyOp26
 70
     1
102
RTVSPropertyOp27
 70
     1
  0
XRECORD
  5
5E0
102
{ACAD_REACTORS
330
5DF
102
}
330
5DF
100
AcDbXrecord
280
     1
102
RTVSPropertyOp0
 70
     1
102
RTVSPropertyOp1
 70
     1
102
RTVSPropertyOp2
 70
     1
102
RTVSPropertyOp3
 70
     1
102
RTVSPropertyOp4
 70
     1
102
RTVSPropertyOp5
 70
     1
102
RTVSPropertyOp6
 70
     1
102
RTVSPropertyOp7
 70
     1
102
RTVSPropertyOp8
 70
     1
102
RTVSPropertyOp9
 70
     1
102
RTVSPropertyOp10
 70
     1
102
RTVSPropertyOp11
 70
     1
102
RTVSPropertyOp12
 70
     1
102
RTVSPropertyOp13
 70
     1
102
RTVSPropertyOp14
 70
     1
102
RTVSPropertyOp15
 70
     1
102
RTVSPropertyOp16
 70
     1
102
RTVSPropertyOp17
 70
     1
102
RTVSPropertyOp18
 70
     1
102
RTVSPropertyOp19
 70
     1
102
RTVSPropertyOp20
 70
     1
102
RTVSPropertyOp21
 70
     1
102
RTVSPropertyOp22
 70
     1
102
RTVSPropertyOp23
 70
     1
102
RTVSPropertyOp24
 70
     1
102
RTVSPropertyOp25
 70
     1
102
RTVSPropertyOp26
 70
     1
102
RTVSPropertyOp27
 70
     1
  0
XRECORD
  5
5F0
102
{ACAD_REACTORS
330
5EF
102
}
330
5EF
100
AcDbXrecord
280
     1
102
RTVSPropertyOp0
 70
     0
102
RTVSPropertyOp1
 70
     0
102
RTVSPropertyOp2
 70
     0
102
RTVSPropertyOp3
 70
     0
102
RTVSPropertyOp4
 70
     0
102
RTVSPropertyOp5
 70
     0
102
RTVSPropertyOp6
 70
     0
102
RTVSPropertyOp7
 70
     0
102
RTVSPropertyOp8
 70
     0
102
RTVSPropertyOp9
 70
     0
102
RTVSPropertyOp10
 70
     0
102
RTVSPropertyOp11
 70
     0
102
RTVSPropertyOp12
 70
     0
102
RTVSPropertyOp13
 70
     0
102
RTVSPropertyOp14
 70
     2
102
RTVSPropertyOp15
 70
     0
102
RTVSPropertyOp16
 70
     0
102
RTVSPropertyOp17
 70
     0
102
RTVSPropertyOp18
 70
     0
102
RTVSPropertyOp19
 70
     0
102
RTVSPropertyOp20
 70
     0
102
RTVSPropertyOp21
 70
     0
102
RTVSPropertyOp22
 70
     0
102
RTVSPropertyOp23
 70
     0
102
RTVSPropertyOp24
 70
     0
102
RTVSPropertyOp25
 70
     0
102
RTVSPropertyOp26
 70
     0
102
RTVSPropertyOp27
 70
     0
  0
XRECORD
  5
5E8
102
{ACAD_REACTORS
330
5E7
102
}
330
5E7
100
AcDbXrecord
280
     1
102
RTVSPropertyOp0
 70
     1
102
RTVSPropertyOp1
 70
     1
102
RTVSPropertyOp2
 70
     1
102
RTVSPropertyOp3
 70
     1
102
RTVSPropertyOp4
 70
     1
102
RTVSPropertyOp5
 70
     1
102
RTVSPropertyOp6
 70
     1
102
RTVSPropertyOp7
 70
     1
102
RTVSPropertyOp8
 70
     1
102
RTVSPropertyOp9
 70
     1
102
RTVSPropertyOp10
 70
     1
102
RTVSPropertyOp11
 70
     1
102
RTVSPropertyOp12
 70
     1
102
RTVSPropertyOp13
 70
     1
102
RTVSPropertyOp14
 70
     1
102
RTVSPropertyOp15
 70
     1
102
RTVSPropertyOp16
 70
     1
102
RTVSPropertyOp17
 70
     1
102
RTVSPropertyOp18
 70
     1
102
RTVSPropertyOp19
 70
     1
102
RTVSPropertyOp20
 70
     1
102
RTVSPropertyOp21
 70
     1
102
RTVSPropertyOp22
 70
     1
102
RTVSPropertyOp23
 70
     1
102
RTVSPropertyOp24
 70
     1
102
RTVSPropertyOp25
 70
     1
102
RTVSPropertyOp26
 70
     1
102
RTVSPropertyOp27
 70
     1
  0
XRECORD
  5
5CC
102
{ACAD_REACTORS
330
5CB
102
}
330
5CB
100
AcDbXrecord
280
     1
102
RTVSPropertyOp0
 70
     1
102
RTVSPropertyOp1
 70
     1
102
RTVSPropertyOp2
 70
     1
102
RTVSPropertyOp3
 70
     1
102
RTVSPropertyOp4
 70
     1
102
RTVSPropertyOp5
 70
     1
102
RTVSPropertyOp6
 70
     1
102
RTVSPropertyOp7
 70
     1
102
RTVSPropertyOp8
 70
     1
102
RTVSPropertyOp9
 70
     1
102
RTVSPropertyOp10
 70
     1
102
RTVSPropertyOp11
 70
     1
102
RTVSPropertyOp12
 70
     1
102
RTVSPropertyOp13
 70
     1
102
RTVSPropertyOp14
 70
     1
102
RTVSPropertyOp15
 70
     1
102
RTVSPropertyOp16
 70
     1
102
RTVSPropertyOp17
 70
     1
102
RTVSPropertyOp18
 70
     1
102
RTVSPropertyOp19
 70
     1
102
RTVSPropertyOp20
 70
     1
102
RTVSPropertyOp21
 70
     1
102
RTVSPropertyOp22
 70
     1
102
RTVSPropertyOp23
 70
     1
102
RTVSPropertyOp24
 70
     1
102
RTVSPropertyOp25
 70
     1
102
RTVSPropertyOp26
 70
     1
102
RTVSPropertyOp27
 70
     1
  0
XRECORD
  5
5CE
102
{ACAD_REACTORS
330
5CD
102
}
330
5CD
100
AcDbXrecord
280
     1
102
RTVSPropertyOp0
 70
     1
102
RTVSPropertyOp1
 70
     1
102
RTVSPropertyOp2
 70
     1
102
RTVSPropertyOp3
 70
     1
102
RTVSPropertyOp4
 70
     1
102
RTVSPropertyOp5
 70
     1
102
RTVSPropertyOp6
 70
     1
102
RTVSPropertyOp7
 70
     1
102
RTVSPropertyOp8
 70
     1
102
RTVSPropertyOp9
 70
     1
102
RTVSPropertyOp10
 70
     1
102
RTVSPropertyOp11
 70
     1
102
RTVSPropertyOp12
 70
     1
102
RTVSPropertyOp13
 70
     1
102
RTVSPropertyOp14
 70
     1
102
RTVSPropertyOp15
 70
     1
102
RTVSPropertyOp16
 70
     1
102
RTVSPropertyOp17
 70
     1
102
RTVSPropertyOp18
 70
     1
102
RTVSPropertyOp19
 70
     1
102
RTVSPropertyOp20
 70
     1
102
RTVSPropertyOp21
 70
     1
102
RTVSPropertyOp22
 70
     1
102
RTVSPropertyOp23
 70
     1
102
RTVSPropertyOp24
 70
     1
102
RTVSPropertyOp25
 70
     1
102
RTVSPropertyOp26
 70
     1
102
RTVSPropertyOp27
 70
     1
  0
XRECORD
  5
5D0
102
{ACAD_REACTORS
330
5CF
102
}
330
5CF
100
AcDbXrecord
280
     1
102
RTVSPropertyOp0
 70
     1
102
RTVSPropertyOp1
 70
     1
102
RTVSPropertyOp2
 70
     1
102
RTVSPropertyOp3
 70
     1
102
RTVSPropertyOp4
 70
     1
102
RTVSPropertyOp5
 70
     1
102
RTVSPropertyOp6
 70
     1
102
RTVSPropertyOp7
 70
     1
102
RTVSPropertyOp8
 70
     1
102
RTVSPropertyOp9
 70
     1
102
RTVSPropertyOp10
 70
     1
102
RTVSPropertyOp11
 70
     1
102
RTVSPropertyOp12
 70
     1
102
RTVSPropertyOp13
 70
     1
102
RTVSPropertyOp14
 70
     1
102
RTVSPropertyOp15
 70
     1
102
RTVSPropertyOp16
 70
     1
102
RTVSPropertyOp17
 70
     1
102
RTVSPropertyOp18
 70
     1
102
RTVSPropertyOp19
 70
     1
102
RTVSPropertyOp20
 70
     1
102
RTVSPropertyOp21
 70
     1
102
RTVSPropertyOp22
 70
     1
102
RTVSPropertyOp23
 70
     1
102
RTVSPropertyOp24
 70
     1
102
RTVSPropertyOp25
 70
     1
102
RTVSPropertyOp26
 70
     1
102
RTVSPropertyOp27
 70
     1
  0
XRECORD
  5
5D2
102
{ACAD_REACTORS
330
5D1
102
}
330
5D1
100
AcDbXrecord
280
     1
102
RTVSPropertyOp0
 70
     1
102
RTVSPropertyOp1
 70
     1
102
RTVSPropertyOp2
 70
     1
102
RTVSPropertyOp3
 70
     1
102
RTVSPropertyOp4
 70
     1
102
RTVSPropertyOp5
 70
     1
102
RTVSPropertyOp6
 70
     1
102
RTVSPropertyOp7
 70
     1
102
RTVSPropertyOp8
 70
     1
102
RTVSPropertyOp9
 70
     1
102
RTVSPropertyOp10
 70
     1
102
RTVSPropertyOp11
 70
     1
102
RTVSPropertyOp12
 70
     1
102
RTVSPropertyOp13
 70
     1
102
RTVSPropertyOp14
 70
     1
102
RTVSPropertyOp15
 70
     1
102
RTVSPropertyOp16
 70
     1
102
RTVSPropertyOp17
 70
     1
102
RTVSPropertyOp18
 70
     1
102
RTVSPropertyOp19
 70
     1
102
RTVSPropertyOp20
 70
     1
102
RTVSPropertyOp21
 70
     1
102
RTVSPropertyOp22
 70
     1
102
RTVSPropertyOp23
 70
     1
102
RTVSPropertyOp24
 70
     1
102
RTVSPropertyOp25
 70
     1
102
RTVSPropertyOp26
 70
     1
102
RTVSPropertyOp27
 70
     1
  0
XRECORD
  5
5EC
102
{ACAD_REACTORS
330
5EB
102
}
330
5EB
100
AcDbXrecord
280
     1
102
RTVSPropertyOp0
 70
     0
102
RTVSPropertyOp1
 70
     0
102
RTVSPropertyOp2
 70
     0
102
RTVSPropertyOp3
 70
     0
102
RTVSPropertyOp4
 70
     0
102
RTVSPropertyOp5
 70
     0
102
RTVSPropertyOp6
 70
     0
102
RTVSPropertyOp7
 70
     0
102
RTVSPropertyOp8
 70
     0
102
RTVSPropertyOp9
 70
     0
102
RTVSPropertyOp10
 70
     0
102
RTVSPropertyOp11
 70
     0
102
RTVSPropertyOp12
 70
     0
102
RTVSPropertyOp13
 70
     0
102
RTVSPropertyOp14
 70
     2
102
RTVSPropertyOp15
 70
     0
102
RTVSPropertyOp16
 70
     0
102
RTVSPropertyOp17
 70
     0
102
RTVSPropertyOp18
 70
     0
102
RTVSPropertyOp19
 70
     0
102
RTVSPropertyOp20
 70
     0
102
RTVSPropertyOp21
 70
     0
102
RTVSPropertyOp22
 70
     0
102
RTVSPropertyOp23
 70
     0
102
RTVSPropertyOp24
 70
     0
102
RTVSPropertyOp25
 70
     0
102
RTVSPropertyOp26
 70
     0
102
RTVSPropertyOp27
 70
     0
  0
XRECORD
  5
5E6
102
{ACAD_REACTORS
330
5E5
102
}
330
5E5
100
AcDbXrecord
280
     1
102
RTVSPropertyOp0
 70
     1
102
RTVSPropertyOp1
 70
     1
102
RTVSPropertyOp2
 70
     1
102
RTVSPropertyOp3
 70
     1
102
RTVSPropertyOp4
 70
     1
102
RTVSPropertyOp5
 70
     1
102
RTVSPropertyOp6
 70
     1
102
RTVSPropertyOp7
 70
     1
102
RTVSPropertyOp8
 70
     1
102
RTVSPropertyOp9
 70
     1
102
RTVSPropertyOp10
 70
     1
102
RTVSPropertyOp11
 70
     1
102
RTVSPropertyOp12
 70
     1
102
RTVSPropertyOp13
 70
     1
102
RTVSPropertyOp14
 70
     1
102
RTVSPropertyOp15
 70
     1
102
RTVSPropertyOp16
 70
     1
102
RTVSPropertyOp17
 70
     1
102
RTVSPropertyOp18
 70
     1
102
RTVSPropertyOp19
 70
     1
102
RTVSPropertyOp20
 70
     1
102
RTVSPropertyOp21
 70
     1
102
RTVSPropertyOp22
 70
     1
102
RTVSPropertyOp23
 70
     1
102
RTVSPropertyOp24
 70
     1
102
RTVSPropertyOp25
 70
     1
102
RTVSPropertyOp26
 70
     1
102
RTVSPropertyOp27
 70
     1
  0
XRECORD
  5
5EE
102
{ACAD_REACTORS
330
5ED
102
}
330
5ED
100
AcDbXrecord
280
     1
102
RTVSPropertyOp0
 70
     0
102
RTVSPropertyOp1
 70
     0
102
RTVSPropertyOp2
 70
     0
102
RTVSPropertyOp3
 70
     0
102
RTVSPropertyOp4
 70
     0
102
RTVSPropertyOp5
 70
     0
102
RTVSPropertyOp6
 70
     0
102
RTVSPropertyOp7
 70
     0
102
RTVSPropertyOp8
 70
     0
102
RTVSPropertyOp9
 70
     0
102
RTVSPropertyOp10
 70
     0
102
RTVSPropertyOp11
 70
     0
102
RTVSPropertyOp12
 70
     0
102
RTVSPropertyOp13
 70
     0
102
RTVSPropertyOp14
 70
     2
102
RTVSPropertyOp15
 70
     0
102
RTVSPropertyOp16
 70
     0
102
RTVSPropertyOp17
 70
     0
102
RTVSPropertyOp18
 70
     0
102
RTVSPropertyOp19
 70
     0
102
RTVSPropertyOp20
 70
     0
102
RTVSPropertyOp21
 70
     0
102
RTVSPropertyOp22
 70
     0
102
RTVSPropertyOp23
 70
     0
102
RTVSPropertyOp24
 70
     0
102
RTVSPropertyOp25
 70
     0
102
RTVSPropertyOp26
 70
     0
102
RTVSPropertyOp27
 70
     0
  0
XRECORD
  5
5DE
102
{ACAD_REACTORS
330
5DD
102
}
330
5DD
100
AcDbXrecord
280
     1
102
RTVSPropertyOp0
 70
     1
102
RTVSPropertyOp1
 70
     1
102
RTVSPropertyOp2
 70
     1
102
RTVSPropertyOp3
 70
     1
102
RTVSPropertyOp4
 70
     1
102
RTVSPropertyOp5
 70
     1
102
RTVSPropertyOp6
 70
     1
102
RTVSPropertyOp7
 70
     1
102
RTVSPropertyOp8
 70
     1
102
RTVSPropertyOp9
 70
     1
102
RTVSPropertyOp10
 70
     1
102
RTVSPropertyOp11
 70
     1
102
RTVSPropertyOp12
 70
     1
102
RTVSPropertyOp13
 70
     1
102
RTVSPropertyOp14
 70
     1
102
RTVSPropertyOp15
 70
     1
102
RTVSPropertyOp16
 70
     1
102
RTVSPropertyOp17
 70
     1
102
RTVSPropertyOp18
 70
     1
102
RTVSPropertyOp19
 70
     1
102
RTVSPropertyOp20
 70
     1
102
RTVSPropertyOp21
 70
     1
102
RTVSPropertyOp22
 70
     1
102
RTVSPropertyOp23
 70
     1
102
RTVSPropertyOp24
 70
     1
102
RTVSPropertyOp25
 70
     1
102
RTVSPropertyOp26
 70
     1
102
RTVSPropertyOp27
 70
     1
  0
XRECORD
  5
5E4
102
{ACAD_REACTORS
330
5E3
102
}
330
5E3
100
AcDbXrecord
280
     1
102
RTVSPropertyOp0
 70
     1
102
RTVSPropertyOp1
 70
     1
102
RTVSPropertyOp2
 70
     1
102
RTVSPropertyOp3
 70
     1
102
RTVSPropertyOp4
 70
     1
102
RTVSPropertyOp5
 70
     1
102
RTVSPropertyOp6
 70
     1
102
RTVSPropertyOp7
 70
     1
102
RTVSPropertyOp8
 70
     1
102
RTVSPropertyOp9
 70
     1
102
RTVSPropertyOp10
 70
     1
102
RTVSPropertyOp11
 70
     1
102
RTVSPropertyOp12
 70
     1
102
RTVSPropertyOp13
 70
     1
102
RTVSPropertyOp14
 70
     1
102
RTVSPropertyOp15
 70
     1
102
RTVSPropertyOp16
 70
     1
102
RTVSPropertyOp17
 70
     1
102
RTVSPropertyOp18
 70
     1
102
RTVSPropertyOp19
 70
     1
102
RTVSPropertyOp20
 70
     1
102
RTVSPropertyOp21
 70
     1
102
RTVSPropertyOp22
 70
     1
102
RTVSPropertyOp23
 70
     1
102
RTVSPropertyOp24
 70
     1
102
RTVSPropertyOp25
 70
     1
102
RTVSPropertyOp26
 70
     1
102
RTVSPropertyOp27
 70
     1
  0
ENDSEC
  0
EOF
