  0
SECTION
  2
HEADER
  9
$ACADVER
  1
AC1015
  9
$ACADMAINTVER
 70
     6
  9
$DWGCODEPAGE
  3
ANSI_1252
  9
$INSBASE
 10
0.0
 20
0.0
 30
0.0
  9
$EXTMIN
 10
484.7511040641732
 20
237.0007268794139
 30
0.0
  9
$EXTMAX
 10
1193.513133126482
 20
967.5690969887853
 30
0.0
  9
$LIMMIN
 10
0.0
 20
0.0
  9
$LIMMAX
 10
12.0
 20
9.0
  9
$ORTHOMODE
 70
     1
  9
$REGENMODE
 70
     1
  9
$FILLMODE
 70
     1
  9
$QTEXTMODE
 70
     0
  9
$MIRRTEXT
 70
     1
  9
$LTSCALE
 40
1.0
  9
$ATTMODE
 70
     1
  9
$TEXTSIZE
 40
0.0
  9
$TRACEWID
 40
0.05
  9
$TEXTSTYLE
  7
STANDARD
  9
$CLAYER
  8
0
  9
$CELTYPE
  6
CONTINUOUS
  9
$CECOLOR
 62
   256
  9
$CELTSCALE
 40
1.0
  9
$DISPSILH
 70
     0
  9
$DIMSCALE
 40
1.0
  9
$DIMASZ
 40
0.18
  9
$DIMEXO
 40
0.0625
  9
$DIMDLI
 40
0.38
  9
$DIMRND
 40
0.0
  9
$DIMDLE
 40
0.0
  9
$DIMEXE
 40
0.18
  9
$DIMTP
 40
0.0
  9
$DIMTM
 40
0.0
  9
$DIMTXT
 40
0.18
  9
$DIMCEN
 40
0.09
  9
$DIMTSZ
 40
0.0
  9
$DIMTOL
 70
     0
  9
$DIMLIM
 70
     0
  9
$DIMTIH
 70
     1
  9
$DIMTOH
 70
     1
  9
$DIMSE1
 70
     0
  9
$DIMSE2
 70
     0
  9
$DIMTAD
 70
     0
  9
$DIMZIN
 70
     0
  9
$DIMBLK
  1

  9
$DIMASO
 70
     1
  9
$DIMSHO
 70
     1
  9
$DIMPOST
  1

  9
$DIMAPOST
  1

  9
$DIMALT
 70
     0
  9
$DIMALTD
 70
     2
  9
$DIMALTF
 40
25.4
  9
$DIMLFAC
 40
1.0
  9
$DIMTOFL
 70
     0
  9
$DIMTVP
 40
0.0
  9
$DIMTIX
 70
     0
  9
$DIMSOXD
 70
     0
  9
$DIMSAH
 70
     0
  9
$DIMBLK1
  1

  9
$DIMBLK2
  1

  9
$DIMSTYLE
  2
STANDARD
  9
$DIMCLRD
 70
     0
  9
$DIMCLRE
 70
     0
  9
$DIMCLRT
 70
     0
  9
$DIMTFAC
 40
1.0
  9
$DIMGAP
 40
0.09
  9
$DIMJUST
 70
     0
  9
$DIMSD1
 70
     0
  9
$DIMSD2
 70
     0
  9
$DIMTOLJ
 70
     1
  9
$DIMTZIN
 70
     0
  9
$DIMALTZ
 70
     0
  9
$DIMALTTZ
 70
     0
  9
$DIMUPT
 70
     0
  9
$DIMDEC
 70
     4
  9
$DIMTDEC
 70
     4
  9
$DIMALTU
 70
     2
  9
$DIMALTTD
 70
     2
  9
$DIMTXSTY
  7
STANDARD
  9
$DIMAUNIT
 70
     0
  9
$DIMADEC
 70
     0
  9
$DIMALTRND
 40
0.0
  9
$DIMAZIN
 70
     0
  9
$DIMDSEP
 70
    46
  9
$DIMATFIT
 70
     3
  9
$DIMFRAC
 70
     0
  9
$DIMLDRBLK
  1

  9
$DIMLUNIT
 70
     2
  9
$DIMLWD
 70
    -2
  9
$DIMLWE
 70
    -2
  9
$DIMTMOVE
 70
     0
  9
$LUNITS
 70
     2
  9
$LUPREC
 70
     4
  9
$SKETCHINC
 40
0.1
  9
$FILLETRAD
 40
0.0
  9
$AUNITS
 70
     0
  9
$AUPREC
 70
     0
  9
$MENU
  1
acad
  9
$ELEVATION
 40
0.0
  9
$PELEVATION
 40
0.0
  9
$THICKNESS
 40
0.0
  9
$LIMCHECK
 70
     0
  9
$CHAMFERA
 40
0.0
  9
$CHAMFERB
 40
0.0
  9
$CHAMFERC
 40
0.0
  9
$CHAMFERD
 40
0.0
  9
$SKPOLY
 70
     0
  9
$TDCREATE
 40
2453375.510428240
  9
$TDUCREATE
 40
2453375.468761574
  9
$TDUPDATE
 40
2457618.434700590
  9
$TDUUPDATE
 40
2457618.393033923
  9
$TDINDWG
 40
0.0708107639
  9
$TDUSRTIMER
 40
0.0708097454
  9
$USRTIMER
 70
     1
  9
$ANGBASE
 50
0.0
  9
$ANGDIR
 70
     0
  9
$PDMODE
 70
     0
  9
$PDSIZE
 40
0.0
  9
$PLINEWID
 40
0.0
  9
$SPLFRAME
 70
     0
  9
$SPLINETYPE
 70
     6
  9
$SPLINESEGS
 70
    10
  9
$HANDSEED
  5
E19
  9
$SURFTAB1
 70
     6
  9
$SURFTAB2
 70
     6
  9
$SURFTYPE
 70
     6
  9
$SURFU
 70
     6
  9
$SURFV
 70
     6
  9
$UCSBASE
  2

  9
$UCSNAME
  2

  9
$UCSORG
 10
0.0
 20
0.0
 30
0.0
  9
$UCSXDIR
 10
1.0
 20
0.0
 30
0.0
  9
$UCSYDIR
 10
0.0
 20
1.0
 30
0.0
  9
$UCSORTHOREF
  2

  9
$UCSORTHOVIEW
 70
     0
  9
$UCSORGTOP
 10
0.0
 20
0.0
 30
0.0
  9
$UCSORGBOTTOM
 10
0.0
 20
0.0
 30
0.0
  9
$UCSORGLEFT
 10
0.0
 20
0.0
 30
0.0
  9
$UCSORGRIGHT
 10
0.0
 20
0.0
 30
0.0
  9
$UCSORGFRONT
 10
0.0
 20
0.0
 30
0.0
  9
$UCSORGBACK
 10
0.0
 20
0.0
 30
0.0
  9
$PUCSBASE
  2

  9
$PUCSNAME
  2

  9
$PUCSORG
 10
0.0
 20
0.0
 30
0.0
  9
$PUCSXDIR
 10
1.0
 20
0.0
 30
0.0
  9
$PUCSYDIR
 10
0.0
 20
1.0
 30
0.0
  9
$PUCSORTHOREF
  2

  9
$PUCSORTHOVIEW
 70
     0
  9
$PUCSORGTOP
 10
0.0
 20
0.0
 30
0.0
  9
$PUCSORGBOTTOM
 10
0.0
 20
0.0
 30
0.0
  9
$PUCSORGLEFT
 10
0.0
 20
0.0
 30
0.0
  9
$PUCSORGRIGHT
 10
0.0
 20
0.0
 30
0.0
  9
$PUCSORGFRONT
 10
0.0
 20
0.0
 30
0.0
  9
$PUCSORGBACK
 10
0.0
 20
0.0
 30
0.0
  9
$USERI1
 70
     0
  9
$USERI2
 70
     0
  9
$USERI3
 70
     0
  9
$USERI4
 70
     0
  9
$USERI5
 70
     0
  9
$USERR1
 40
0.0
  9
$USERR2
 40
0.0
  9
$USERR3
 40
0.0
  9
$USERR4
 40
0.0
  9
$USERR5
 40
0.0
  9
$WORLDVIEW
 70
     1
  9
$SHADEDGE
 70
     3
  9
$SHADEDIF
 70
    70
  9
$TILEMODE
 70
     1
  9
$MAXACTVP
 70
    16
  9
$PINSBASE
 10
0.0
 20
0.0
 30
0.0
  9
$PLIMCHECK
 70
     0
  9
$PEXTMIN
 10
-1.000000000000000E+20
 20
-1.000000000000000E+20
 30
-1.000000000000000E+20
  9
$PEXTMAX
 10
-1.000000000000000E+20
 20
-1.000000000000000E+20
 30
-1.000000000000000E+20
  9
$PLIMMIN
 10
0.0
 20
0.0
  9
$PLIMMAX
 10
12.0
 20
9.0
  9
$UNITMODE
 70
     0
  9
$VISRETAIN
 70
     0
  9
$PLINEGEN
 70
     1
  9
$PSLTSCALE
 70
     0
  9
$TREEDEPTH
 70
  3020
  9
$CMLSTYLE
  2
STANDARD
  9
$CMLJUST
 70
     0
  9
$CMLSCALE
 40
1.0
  9
$PROXYGRAPHICS
 70
     1
  9
$MEASUREMENT
 70
     0
  9
$CELWEIGHT
370
    -1
  9
$ENDCAPS
280
     0
  9
$JOINSTYLE
280
     0
  9
$LWDISPLAY
290
     0
  9
$INSUNITS
 70
     0
  9
$HYPERLINKBASE
  1

  9
$STYLESHEET
  1

  9
$XEDIT
290
     1
  9
$CEPSNTYPE
380
     0
  9
$PSTYLEMODE
290
     1
  9
$FINGERPRINTGUID
  2
{90F47713-D64A-4B9C-B5FE-88B63D796F68}
  9
$VERSIONGUID
  2
{AF2B0D58-D1B0-4E12-9F8C-87AF75A5AE6C}
  9
$EXTNAMES
290
     1
  9
$PSVPSCALE
 40
0.0
  9
$OLESTARTUP
290
     0
  0
ENDSEC
  0
SECTION
  2
CLASSES
  0
CLASS
  1
ACDBDICTIONARYWDFLT
  2
AcDbDictionaryWithDefault
  3
AutoCAD 2000
 90
        0
280
     0
281
     0
  0
CLASS
  1
ACDBPLACEHOLDER
  2
AcDbPlaceHolder
  3
AutoCAD 2000
 90
        0
280
     0
281
     0
  0
CLASS
  1
LAYOUT
  2
AcDbLayout
  3
AutoCAD 2000
 90
        0
280
     0
281
     0
  0
CLASS
  1
DICTIONARYVAR
  2
AcDbDictionaryVar
  3
AutoCAD 2000
 90
        0
280
     0
281
     0
  0
CLASS
  1
MATERIAL
  2
AcDbMaterial
  3
ObjectDBX Classes
 90
     1024
280
     0
281
     0
  0
CLASS
  1
VISUALSTYLE
  2
AcDbVisualStyle
  3
ObjectDBX Classes
 90
     4095
280
     0
281
     0
  0
CLASS
  1
TABLESTYLE
  2
AcDbTableStyle
  3
ObjectDBX Classes
 90
     4095
280
     0
281
     0
  0
CLASS
  1
SCALE
  2
AcDbScale
  3
ObjectDBX Classes
 90
     1153
280
     0
281
     0
  0
CLASS
  1
MLEADERSTYLE
  2
AcDbMLeaderStyle
  3
ACDB_MLEADERSTYLE_CLASS
 90
     4095
280
     0
281
     0
  0
CLASS
  1
SORTENTSTABLE
  2
AcDbSortentsTable
  3
AutoCAD 2000
 90
        0
280
     0
281
     0
  0
CLASS
  1
CELLSTYLEMAP
  2
AcDbCellStyleMap
  3
ObjectDBX Classes
 90
     1152
280
     0
281
     0
  0
CLASS
  1
EXACXREFPANELOBJECT
  2
ExAcXREFPanelObject
  3
EXAC_ESW
 90
    33793
280
     0
281
     0
  0
CLASS
  1
NPOCOLLECTION
  2
AcDbImpNonPersistentObjectsCollection
  3
ObjectDBX Classes
 90
    33921
280
     0
281
     0
  0
ENDSEC
  0
SECTION
  2
TABLES
  0
TABLE
  2
VPORT
  5
106
330
0
100
AcDbSymbolTable
 70
     2
  0
VPORT
  5
E18
330
106
100
AcDbSymbolTableRecord
100
AcDbViewportTableRecord
  2
*Active
 70
     0
 10
0.0
 20
0.0
 11
1.0
 21
1.0
 12
170.4721500164078
 22
51.19608051122259
 13
0.0
 23
0.0
 14
0.0
 24
0.0
 15
0.0
 25
0.0
 16
0.0
 26
0.0
 36
1.0
 17
890.261596
 27
575.871875
 37
0.0
 40
966.9668262388412
 41
1.689549180327868
 42
50.0
 43
0.025
 44
0.0
 50
0.0
 51
0.0
 71
     0
 72
   100
 73
     1
 74
     0
 75
     0
 76
     0
 77
     0
 78
     0
281
     0
 65
     1
110
0.0
120
0.0
130
0.0
111
1.0
121
0.0
131
0.0
112
0.0
122
1.0
132
0.0
 79
     0
146
0.0
  0
ENDTAB
  0
TABLE
  2
LTYPE
  5
103
330
0
100
AcDbSymbolTable
 70
     7
  0
LTYPE
  5
111
330
103
100
AcDbSymbolTableRecord
100
AcDbLinetypeTableRecord
  2
BYBLOCK
 70
     0
  3

 72
    65
 73
     0
 40
0.0
  0
LTYPE
  5
112
330
103
100
AcDbSymbolTableRecord
100
AcDbLinetypeTableRecord
  2
BYLAYER
 70
     0
  3

 72
    65
 73
     0
 40
0.0
  0
LTYPE
  5
113
330
103
100
AcDbSymbolTableRecord
100
AcDbLinetypeTableRecord
  2
CONTINUOUS
 70
     0
  3
Solid line
 72
    65
 73
     0
 40
0.0
  0
LTYPE
  5
121
330
103
100
AcDbSymbolTableRecord
100
AcDbLinetypeTableRecord
  2
DOT
 70
     0
  3
. . . . . . . . . . . . . . . . . . . . . . . . . . . . . . . . .
 72
    65
 73
     2
 40
0.25
 49
0.0
 74
     0
 49
-0.25
 74
     0
  0
LTYPE
  5
122
330
103
100
AcDbSymbolTableRecord
100
AcDbLinetypeTableRecord
  2
HIDDEN
 70
     0
  3
__ __ __ __ __ __ __ __ __ __ __ __ __ __ __ __ __ __ __ __ __ 
 72
    65
 73
     2
 40
0.375
 49
0.25
 74
     0
 49
-0.125
 74
     0
  0
LTYPE
  5
123
330
103
100
AcDbSymbolTableRecord
100
AcDbLinetypeTableRecord
  2
DASHED
 70
     0
  3
__ __ __ __ __ __ __ __ __ __ __ __ __ __ __ __ __ __ __ __ __
 72
    65
 73
     2
 40
0.75
 49
0.5
 74
     0
 49
-0.25
 74
     0
  0
LTYPE
  5
124
330
103
100
AcDbSymbolTableRecord
100
AcDbLinetypeTableRecord
  2
DASHDOT
 70
     0
  3
__ . __ . __ . __ . __ . __ . __ . __ . __ . __ . __ . __ . _
 72
    65
 73
     4
 40
1.0
 49
0.5
 74
     0
 49
-0.25
 74
     0
 49
0.0
 74
     0
 49
-0.25
 74
     0
  0
LTYPE
  5
125
330
103
100
AcDbSymbolTableRecord
100
AcDbLinetypeTableRecord
  2
DIVIDE
 70
     0
  3
____ . . ____ . . ____ . . ____ . . ____ . . ____ . . ____ . .
 72
    65
 73
     6
 40
1.25
 49
0.5
 74
     0
 49
-0.25
 74
     0
 49
0.0
 74
     0
 49
-0.25
 74
     0
 49
0.0
 74
     0
 49
-0.25
 74
     0
  0
LTYPE
  5
126
330
103
100
AcDbSymbolTableRecord
100
AcDbLinetypeTableRecord
  2
CENTER
 70
     0
  3
____ _ ____ _ ____ _ ____ _ ____ _ ____ _ ____ _ ____ _ ____ _
 72
    65
 73
     4
 40
2.0
 49
1.25
 74
     0
 49
-0.25
 74
     0
 49
0.25
 74
     0
 49
-0.25
 74
     0
  0
ENDTAB
  0
TABLE
  2
LAYER
  5
100
330
0
100
AcDbSymbolTable
 70
     6
  0
LAYER
  5
10E
102
{ACAD_XDICTIONARY
360
930
102
}
330
100
100
AcDbSymbolTableRecord
100
AcDbLayerTableRecord
  2
0
 70
     0
 62
     7
  6
CONTINUOUS
370
    -3
390
10D
  0
LAYER
  5
127
102
{ACAD_XDICTIONARY
360
932
102
}
330
100
100
AcDbSymbolTableRecord
100
AcDbLayerTableRecord
  2
CONSTRUCTION_CLASS
 70
     0
 62
     7
  6
CONTINUOUS
370
    -3
390
10D
  0
LAYER
  5
128
102
{ACAD_XDICTIONARY
360
934
102
}
330
100
100
AcDbSymbolTableRecord
100
AcDbLayerTableRecord
  2
PATTERN_CLASS
 70
     0
 62
     7
  6
CONTINUOUS
370
    -3
390
10D
  0
LAYER
  5
129
102
{ACAD_XDICTIONARY
360
936
102
}
330
100
100
AcDbSymbolTableRecord
100
AcDbLayerTableRecord
  2
1
 70
     0
 62
     7
  6
CONTINUOUS
370
    -3
390
10D
  0
LAYER
  5
AB3
102
{ACAD_XDICTIONARY
360
AB4
102
}
330
100
100
AcDbSymbolTableRecord
100
AcDbLayerTableRecord
  2
-1
 70
     0
 62
     7
  6
CONTINUOUS
370
    -3
390
10D
  0
LAYER
  5
AB6
102
{ACAD_XDICTIONARY
360
AB7
102
}
330
100
100
AcDbSymbolTableRecord
100
AcDbLayerTableRecord
  2
FLAN1$0$1
 70
     0
 62
     7
  6
CONTINUOUS
370
    -3
390
10D
  0
ENDTAB
  0
TABLE
  2
STYLE
  5
101
330
0
100
AcDbSymbolTable
 70
     2
  0
STYLE
  5
10F
330
101
100
AcDbSymbolTableRecord
100
AcDbTextStyleTableRecord
  2
STANDARD
 70
     0
 40
0.0
 41
1.0
 50
0.0
 71
     0
 42
0.0
  3
txt
  4

  0
STYLE
  5
12A
330
101
100
AcDbSymbolTableRecord
100
AcDbTextStyleTableRecord
  2
ROMANS
 70
     0
 40
0.2
 41
1.0
 50
0.0
 71
     0
 42
0.2
  3
ROMANS
  4

  0
ENDTAB
  0
TABLE
  2
VIEW
  5
104
330
0
100
AcDbSymbolTable
 70
     0
  0
ENDTAB
  0
TABLE
  2
UCS
  5
105
330
0
100
AcDbSymbolTable
 70
     0
  0
ENDTAB
  0
TABLE
  2
APPID
  5
107
330
0
100
AcDbSymbolTable
 70
     3
  0
APPID
  5
110
330
107
100
AcDbSymbolTableRecord
100
AcDbRegAppTableRecord
  2
ACAD
 70
     0
  0
APPID
  5
A05
330
107
100
AcDbSymbolTableRecord
100
AcDbRegAppTableRecord
  2
ACAD_MLEADERVER
 70
     0
  0
APPID
  5
A18
330
107
100
AcDbSymbolTableRecord
100
AcDbRegAppTableRecord
  2
ACAD_EXEMPT_FROM_CAD_STANDARDS
 70
     0
  0
ENDTAB
  0
TABLE
  2
DIMSTYLE
  5
108
330
0
100
AcDbSymbolTable
 70
     1
100
AcDbDimStyleTable
 71
     1
340
12B
  0
DIMSTYLE
105
12B
330
108
100
AcDbSymbolTableRecord
100
AcDbDimStyleTableRecord
  2
STANDARD
 70
     0
340
10F
  0
ENDTAB
  0
TABLE
  2
BLOCK_RECORD
  5
FF
330
0
100
AcDbSymbolTable
 70
     0
  0
BLOCK_RECORD
  5
11C
102
{ACAD_XDICTIONARY
360
60A
102
}
330
FF
100
AcDbSymbolTableRecord
100
AcDbBlockTableRecord
  2
*MODEL_SPACE
340
722
  0
BLOCK_RECORD
  5
118
102
{ACAD_XDICTIONARY
360
608
102
}
330
FF
100
AcDbSymbolTableRecord
100
AcDbBlockTableRecord
  2
*PAPER_SPACE
340
723
  0
ENDTAB
  0
ENDSEC
  0
SECTION
  2
BLOCKS
  0
BLOCK
  5
11D
330
11C
100
AcDbEntity
  8
0
100
AcDbBlockBegin
  2
*MODEL_SPACE
 70
     0
 10
0.0
 20
0.0
 30
0.0
  3
*MODEL_SPACE
  1

  0
ENDBLK
  5
11E
330
11C
100
AcDbEntity
  8
0
100
AcDbBlockEnd
  0
BLOCK
  5
119
330
118
100
AcDbEntity
 67
     1
  8
0
100
AcDbBlockBegin
  2
*PAPER_SPACE
 70
     0
 10
0.0
 20
0.0
 30
0.0
  3
*PAPER_SPACE
  1

  0
ENDBLK
  5
11A
330
118
100
AcDbEntity
 67
     1
  8
0
100
AcDbBlockEnd
  0
ENDSEC
  0
SECTION
  2
ENTITIES
  0
ARC
  5
3B6
330
11C
100
AcDbEntity
  8
1
  6
Continuous
 62
     4
100
AcDbCircle
 10
484.8368906292828
 20
237.0303050338143
 30
0.0
 40
453.9391874999998
100
AcDbArc
 50
0.0098280000006478
 51
89.93666100000012
  0
LINE
  5
3DC
330
11C
100
AcDbEntity
  8
1
  6
Continuous
 62
     4
100
AcDbLine
 10
1140.237084163281
 20
690.9399143794144
 30
0.0
 11
913.2649012316248
 21
690.9399143794144
 31
0.0
  0
LINE
  5
3EE
330
11C
100
AcDbEntity
  8
1
  6
Continuous
 62
     4
100
AcDbLine
 10
1085.473008126482
 20
565.1724143794141
 30
0.0
 11
1044.161167680411
 21
514.0502100554308
 31
0.0
  0
LINE
  5
3F5
330
11C
100
AcDbEntity
  8
1
  6
Continuous
 62
     4
100
AcDbLine
 10
861.6320832224831
 20
801.3641784515579
 30
0.0
 11
799.35989932676
 21
776.158259861646
 31
0.0
  0
LINE
  5
439
330
11C
100
AcDbEntity
  8
1
  6
Continuous
 62
     4
100
AcDbLine
 10
1193.513133126481
 20
690.9399143794144
 30
0.0
 11
484.7962216632866
 21
690.939914379414
 31
0.0
  0
LINE
  5
49F
330
11C
100
AcDbEntity
  8
1
  6
Continuous
 62
     4
100
AcDbLine
 10
991.3598939129657
 20
601.746800165899
 30
0.0
 11
996.9155298380176
 21
606.1654291077712
 31
0.0
  0
LINE
  5
5A1
330
11C
100
AcDbEntity
  8
1
  6
Continuous
 62
     4
100
AcDbLine
 10
1182.311133126481
 20
752.503664379414
 30
0.0
 11
1176.710133126481
 21
629.2816643794139
 31
0.0
  0
LINE
  5
5A2
330
11C
100
AcDbEntity
  8
1
  6
Continuous
 62
     4
100
AcDbLine
 10
1171.109133126481
 20
752.503664379414
 30
0.0
 11
1165.508133126481
 21
629.2816643794139
 31
0.0
  0
LINE
  5
5B9
330
11C
100
AcDbEntity
  8
1
  6
Continuous
 62
     4
100
AcDbLine
 10
1159.907133126481
 20
752.503664379414
 30
0.0
 11
1154.306133126481
 21
629.2816643794139
 31
0.0
  0
LINE
  5
5BA
330
11C
100
AcDbEntity
  8
1
  6
Continuous
 62
     4
100
AcDbLine
 10
1148.705133126481
 20
752.503664379414
 30
0.0
 11
1143.104133126481
 21
629.2816643794139
 31
0.0
  0
LINE
  5
5BB
330
11C
100
AcDbEntity
  8
1
  6
Continuous
 62
     4
100
AcDbLine
 10
1137.503133126481
 20
752.503664379414
 30
0.0
 11
1131.902133126481
 21
629.2816643794139
 31
0.0
  0
LINE
  5
5BC
330
11C
100
AcDbEntity
  8
1
  6
Continuous
 62
     4
100
AcDbLine
 10
1126.301133126481
 20
752.503664379414
 30
0.0
 11
1120.70013312648
 21
629.2816643794139
 31
0.0
  0
LINE
  5
5BD
330
11C
100
AcDbEntity
  8
1
  6
Continuous
 62
     4
100
AcDbLine
 10
1115.099133126481
 20
752.503664379414
 30
0.0
 11
1109.498133126481
 21
629.2816643794139
 31
0.0
  0
LINE
  5
5DB
330
11C
100
AcDbEntity
  8
1
  6
Continuous
 62
     4
100
AcDbLine
 10
1103.89713312648
 20
752.503664379414
 30
0.0
 11
1098.29613312648
 21
629.2816643794139
 31
0.0
  0
LINE
  5
5DC
330
11C
100
AcDbEntity
  8
1
  6
Continuous
 62
     4
100
AcDbLine
 10
1092.69513312648
 20
752.503664379414
 30
0.0
 11
1087.09413312648
 21
629.2816643794139
 31
0.0
  0
LINE
  5
80B
330
11C
100
AcDbEntity
  8
1
  6
Continuous
 62
     4
100
AcDbLine
 10
484.7962216632866
 20
845.4206800684257
 30
0.0
 11
500.3787039827746
 21
861.0031623879136
 31
0.0
1001
ACAD
1010
0.0
1020
0.0
1030
0.0
  0
LINE
  5
80C
330
11C
100
AcDbEntity
  8
1
  6
Continuous
 62
     4
100
AcDbLine
 10
484.7962216632866
 20
834.8140783506275
 30
0.0
 11
510.6450436419939
 21
860.6629003293347
 31
0.0
1001
ACAD
1010
0.0
1020
0.0
1030
0.0
  0
LINE
  5
80D
330
11C
100
AcDbEntity
  8
1
  6
Continuous
 62
     4
100
AcDbLine
 10
490.1714219467383
 20
829.5826769162808
 30
0.0
 11
520.7513219760937
 21
860.1625769456365
 31
0.0
1001
ACAD
1010
0.0
1020
0.0
1030
0.0
  0
LINE
  5
80E
330
11C
100
AcDbEntity
  8
1
  6
Continuous
 62
     4
100
AcDbLine
 10
500.5925399209266
 20
829.3971931726709
 30
0.0
 11
530.7044406062844
 21
859.5090938580289
 31
0.0
1001
ACAD
1010
0.0
1020
0.0
1030
0.0
  0
LINE
  5
80F
330
11C
100
AcDbEntity
  8
1
  6
Continuous
 62
     4
100
AcDbLine
 10
510.8379264330298
 20
829.0359779669765
 30
0.0
 11
540.510707960621
 21
858.7087594945675
 31
0.0
1001
ACAD
1010
0.0
1020
0.0
1030
0.0
  0
LINE
  5
810
330
11C
100
AcDbEntity
  8
1
  6
Continuous
 62
     4
100
AcDbLine
 10
520.9158850422111
 20
828.5073348583594
 30
0.0
 11
550.1759071175071
 21
857.767356933655
 31
0.0
1001
ACAD
1010
0.0
1020
0.0
1030
0.0
  0
LINE
  5
811
330
11C
100
AcDbEntity
  8
1
  6
Continuous
 62
     4
100
AcDbLine
 10
530.8339481467038
 20
827.8187962450537
 30
0.0
 11
559.7053538844042
 21
856.6902019827539
 31
0.0
1001
ACAD
1010
0.0
1020
0.0
1030
0.0
  0
LINE
  5
812
330
11C
100
AcDbEntity
  8
1
  6
Continuous
 62
     4
100
AcDbLine
 10
540.5989722801388
 20
826.9772186606909
 30
0.0
 11
569.1039467779503
 21
855.4821931585022
 31
0.0
1001
ACAD
1010
0.0
1020
0.0
1030
0.0
  0
LINE
  5
813
330
11C
100
AcDbEntity
  8
1
  6
Continuous
 62
     4
100
AcDbLine
 10
550.2172186391577
 20
825.9888633019111
 30
0.0
 11
578.3762102452595
 21
854.1478549080126
 31
0.0
1001
ACAD
1010
0.0
1020
0.0
1030
0.0
  0
LINE
  5
814
330
11C
100
AcDbEntity
  8
1
  6
Continuous
 62
     4
100
AcDbLine
 10
559.6944215496803
 20
824.8594644946352
 30
0.0
 11
587.5263322114517
 21
852.691375156407
 31
0.0
1001
ACAD
1010
0.0
1020
0.0
1030
0.0
  0
LINE
  5
815
330
11C
100
AcDbEntity
  8
1
  6
Continuous
 62
     4
100
AcDbLine
 10
569.0358470107012
 20
823.5942882378582
 30
0.0
 11
596.5581968380623
 21
851.1166380652195
 31
0.0
1001
ACAD
1010
0.0
1020
0.0
1030
0.0
  0
LINE
  5
816
330
11C
100
AcDbEntity
  8
1
  6
Continuous
 62
     4
100
AcDbLine
 10
578.2463430195132
 20
822.1981825288722
 30
0.0
 11
605.4754132181336
 21
849.4272527274921
 31
0.0
1001
ACAD
1010
0.0
1020
0.0
1030
0.0
  0
LINE
  5
817
330
11C
100
AcDbEntity
  8
1
  6
Continuous
 62
     4
100
AcDbLine
 10
587.3303830463521
 20
820.6756208379129
 30
0.0
 11
614.2813406070029
 21
847.6265783985635
 31
0.0
1001
ACAD
1010
0.0
1020
0.0
1030
0.0
  0
LINE
  5
818
330
11C
100
AcDbEntity
  8
1
  6
Continuous
 62
     4
100
AcDbLine
 10
596.2921037647386
 20
819.0307398385009
 30
0.0
 11
622.9791106859172
 21
845.7177467596793
 31
0.0
1001
ACAD
1010
0.0
1020
0.0
1030
0.0
  0
LINE
  5
819
330
11C
100
AcDbEntity
  8
1
  6
Continuous
 62
     4
100
AcDbLine
 10
605.135337938261
 20
817.2673722942255
 30
0.0
 11
631.5716472732007
 21
843.7036816291648
 31
0.0
1001
ACAD
1010
0.0
1020
0.0
1030
0.0
  0
LINE
  5
81A
330
11C
100
AcDbEntity
  8
1
  6
Continuous
 62
     4
100
AcDbLine
 10
613.8636432018722
 20
815.3890758400375
 30
0.0
 11
640.0616838307097
 21
841.5871164688754
 31
0.0
1001
ACAD
1010
0.0
1020
0.0
1030
0.0
  0
LINE
  5
81B
330
11C
100
AcDbEntity
  8
1
  6
Continuous
 62
     4
100
AcDbLine
 10
622.4803273460812
 20
813.3991582664489
 30
0.0
 11
648.4517790584666
 21
839.3706099788342
 31
0.0
1001
ACAD
1010
0.0
1020
0.0
1030
0.0
  0
LINE
  5
81C
330
11C
100
AcDbEntity
  8
1
  6
Continuous
 62
     4
100
AcDbLine
 10
630.9884706084083
 20
811.3006998109776
 30
0.0
 11
656.7443308253102
 21
837.0565600278796
 31
0.0
1001
ACAD
1010
0.0
1020
0.0
1030
0.0
  0
LINE
  5
81D
330
11C
100
AcDbEntity
  8
1
  6
Continuous
 62
     4
100
AcDbLine
 10
639.3909453923762
 20
809.0965728771475
 30
0.0
 11
664.9415886461239
 21
834.6472161308952
 31
0.0
1001
ACAD
1010
0.0
1020
0.0
1030
0.0
  0
LINE
  5
81E
330
11C
100
AcDbEntity
  8
1
  6
Continuous
 62
     4
100
AcDbLine
 10
647.6904337660924
 20
806.7894595330651
 30
0.0
 11
673.045664885278
 21
832.1446906522512
 31
0.0
1001
ACAD
1010
0.0
1020
0.0
1030
0.0
  0
LINE
  5
81F
330
11C
100
AcDbEntity
  8
1
  6
Continuous
 62
     4
100
AcDbLine
 10
655.8894430366382
 20
804.3818670858126
 30
0.0
 11
681.0585448401052
 21
829.5509688892805
 31
0.0
1001
ACAD
1010
0.0
1020
0.0
1030
0.0
  0
LINE
  5
820
330
11C
100
AcDbEntity
  8
1
  6
Continuous
 62
     4
100
AcDbLine
 10
663.9903196506995
 20
801.8761419820757
 30
0.0
 11
688.9820958366064
 21
826.8679181679829
 31
0.0
1001
ACAD
1010
0.0
1020
0.0
1030
0.0
  0
LINE
  5
821
330
11C
100
AcDbEntity
  8
1
  6
Continuous
 62
     4
100
AcDbLine
 10
671.9952616339949
 20
799.2744822475729
 30
0.0
 11
696.8180754513879
 21
824.0972960649658
 31
0.0
1001
ACAD
1010
0.0
1020
0.0
1030
0.0
  0
LINE
  5
822
330
11C
100
AcDbEntity
  8
1
  6
Continuous
 62
     4
100
AcDbLine
 10
679.9063297506966
 20
796.5789486464768
 30
0.0
 11
704.5681389584654
 21
821.2407578542453
 31
0.0
1001
ACAD
1010
0.0
1020
0.0
1030
0.0
  0
LINE
  5
823
330
11C
100
AcDbEntity
  8
1
  6
Continuous
 62
     4
100
AcDbLine
 10
687.7254575378586
 20
793.7914747158408
 30
0.0
 11
712.2338460865414
 21
818.2998632645231
 31
0.0
1001
ACAD
1010
0.0
1020
0.0
1030
0.0
  0
LINE
  5
824
330
11C
100
AcDbEntity
  8
1
  6
Continuous
 62
     4
100
AcDbLine
 10
695.4544603479538
 20
790.913875808137
 30
0.0
 11
719.8166671612683
 21
815.2760826214519
 31
0.0
1001
ACAD
1010
0.0
1020
0.0
1030
0.0
  0
LINE
  5
825
330
11C
100
AcDbEntity
  8
1
  6
Continuous
 62
     4
100
AcDbLine
 10
703.0950435142315
 20
787.9478572566167
 30
0.0
 11
727.3179886975506
 21
812.170802439936
 31
0.0
1001
ACAD
1010
0.0
1020
0.0
1030
0.0
  0
LINE
  5
826
330
11C
100
AcDbEntity
  8
1
  6
Continuous
 62
     4
100
AcDbLine
 10
710.6488097380345
 20
784.8950217626218
 30
0.0
 11
734.7391184988167
 21
808.985330523404
 31
0.0
1001
ACAD
1010
0.0
1020
0.0
1030
0.0
  0
LINE
  5
827
330
11C
100
AcDbEntity
  8
1
  6
Continuous
 62
     4
100
AcDbLine
 10
484.7962216632866
 20
548.4358319700755
 30
0.0
 11
488.6693949531651
 21
552.3090052599542
 31
0.0
1001
ACAD
1010
0.0
1020
0.0
1030
0.0
  0
LINE
  5
828
330
11C
100
AcDbEntity
  8
1
  6
Continuous
 62
     4
100
AcDbLine
 10
718.1172657840635
 20
781.7568760908526
 30
0.0
 11
742.0812903132342
 21
805.7209006200231
 31
0.0
1001
ACAD
1010
0.0
1020
0.0
1030
0.0
  0
LINE
  5
829
330
11C
100
AcDbEntity
  8
1
  6
Continuous
 62
     4
100
AcDbLine
 10
484.7962216632866
 20
537.8292302522776
 30
0.0
 11
498.981847040259
 21
552.0148556292497
 31
0.0
1001
ACAD
1010
0.0
1020
0.0
1030
0.0
  0
LINE
  5
82A
330
11C
100
AcDbEntity
  8
1
  6
Continuous
 62
     4
100
AcDbLine
 10
725.5018285583644
 20
778.5348371473554
 30
0.0
 11
749.3456680908058
 21
802.378676679797
 31
0.0
1001
ACAD
1010
0.0
1020
0.0
1030
0.0
  0
LINE
  5
82B
330
11C
100
AcDbEntity
  8
1
  6
Continuous
 62
     4
100
AcDbLine
 10
487.8436960738593
 20
530.270102945052
 30
0.0
 11
508.9801828095033
 21
551.4065896806961
 31
0.0
1001
ACAD
1010
0.0
1020
0.0
1030
0.0
  0
LINE
  5
82C
330
11C
100
AcDbEntity
  8
1
  6
Continuous
 62
     4
100
AcDbLine
 10
732.8038306342639
 20
775.2302375054564
 30
0.0
 11
756.5333498801103
 21
798.9597567513028
 31
0.0
1001
ACAD
1010
0.0
1020
0.0
1030
0.0
  0
LINE
  5
82D
330
11C
100
AcDbEntity
  8
1
  6
Continuous
 62
     4
100
AcDbLine
 10
492.1264879346727
 20
523.9462930880677
 30
0.0
 11
518.689880368792
 21
550.5096855221863
 31
0.0
1001
ACAD
1010
0.0
1020
0.0
1030
0.0
  0
LINE
  5
82E
330
11C
100
AcDbEntity
  8
1
  6
Continuous
 62
     4
100
AcDbLine
 10
740.0245252832807
 20
771.8443304366748
 30
0.0
 11
763.6453713989183
 21
795.4651765523123
 31
0.0
1001
ACAD
1010
0.0
1020
0.0
1030
0.0
  0
LINE
  5
82F
330
11C
100
AcDbEntity
  8
1
  6
Continuous
 62
     4
100
AcDbLine
 10
499.1669632448358
 20
520.380166680432
 30
0.0
 11
528.1324002224521
 21
549.345603658048
 31
0.0
1001
ACAD
1010
0.0
1020
0.0
1030
0.0
  0
LINE
  5
830
330
11C
100
AcDbEntity
  8
1
  6
Continuous
 62
     4
100
AcDbLine
 10
747.165091061019
 20
768.3782944966151
 30
0.0
 11
770.6827093090126
 21
791.8959127446083
 31
0.0
1001
ACAD
1010
0.0
1020
0.0
1030
0.0
  0
LINE
  5
831
330
11C
100
AcDbEntity
  8
1
  6
Continuous
 62
     4
100
AcDbLine
 10
509.096591949142
 20
519.7031936669401
 30
0.0
 11
537.3260030542406
 21
547.9326047720388
 31
0.0
1001
ACAD
1010
0.0
1020
0.0
1030
0.0
  0
LINE
  5
832
330
11C
100
AcDbEntity
  8
1
  6
Continuous
 62
     4
100
AcDbLine
 10
754.2266359919714
 20
764.8332377097696
 30
0.0
 11
777.6462842220977
 21
788.2528859398959
 31
0.0
1001
ACAD
1010
0.0
1020
0.0
1030
0.0
  0
LINE
  5
833
330
11C
100
AcDbEntity
  8
1
  6
Continuous
 62
     4
100
AcDbLine
 10
518.7126255001242
 20
518.7126255001242
 30
0.0
 11
546.2863628142092
 21
546.2863628142089
 31
0.0
1001
ACAD
1010
0.0
1020
0.0
1030
0.0
  0
LINE
  5
834
330
11C
100
AcDbEntity
  8
1
  6
Continuous
 62
     4
100
AcDbLine
 10
761.2102013919312
 20
761.2102013919312
 30
0.0
 11
784.5369634607131
 21
784.5369634607131
 31
0.0
1001
ACAD
1010
0.0
1020
0.0
1030
0.0
  0
LINE
  5
835
330
11C
100
AcDbEntity
  8
1
  6
Continuous
 62
     4
100
AcDbLine
 10
528.0401417057546
 20
517.4335399879563
 30
0.0
 11
555.0270344628088
 21
544.4204327450108
 31
0.0
1001
ACAD
1010
0.0
1020
0.0
1030
0.0
  0
LINE
  5
836
330
11C
100
AcDbEntity
  8
1
  6
Continuous
 62
     4
100
AcDbLine
 10
768.1167653621498
 20
757.5101636443512
 30
0.0
 11
791.3555635954187
 21
780.7489618776204
 31
0.0
1001
ACAD
1010
0.0
1020
0.0
1030
0.0
  0
LINE
  5
837
330
11C
100
AcDbEntity
  8
1
  6
Continuous
 62
     4
100
AcDbLine
 10
537.1001806090819
 20
515.8869771734851
 30
0.0
 11
563.5598163679831
 21
542.3466129323867
 31
0.0
1001
ACAD
1010
0.0
1020
0.0
1030
0.0
  0
LINE
  5
838
330
11C
100
AcDbEntity
  8
1
  6
Continuous
 62
     4
100
AcDbLine
 10
774.9472459854423
 20
753.7340425498462
 30
0.0
 11
798.1028527772334
 21
776.8896493416371
 31
0.0
1001
ACAD
1010
0.0
1020
0.0
1030
0.0
  0
LINE
  5
839
330
11C
100
AcDbEntity
  8
1
  6
Continuous
 62
     4
100
AcDbLine
 10
545.9105735086251
 20
514.0907683552303
 30
0.0
 11
571.8950349354197
 21
540.075229782025
 31
0.0
1001
ACAD
1010
0.0
1020
0.0
1030
0.0
  0
LINE
  5
83A
330
11C
100
AcDbEntity
  8
1
  6
Continuous
 62
     4
100
AcDbLine
 10
781.702504250971
 20
749.8826990975762
 30
0.0
 11
804.7795528822618
 21
772.9597477288672
 31
0.0
1001
ACAD
1010
0.0
1020
0.0
1030
0.0
  0
LINE
  5
83B
330
11C
100
AcDbEntity
  8
1
  6
Continuous
 62
     4
100
AcDbLine
 10
554.4865618708966
 20
512.0601549997036
 30
0.0
 11
580.0417708839461
 21
537.6153640127528
 31
0.0
1001
ACAD
1010
0.0
1020
0.0
1030
0.0
  0
LINE
  5
83C
330
11C
100
AcDbEntity
  8
1
  6
Continuous
 62
     4
100
AcDbLine
 10
789.4235712506073
 20
746.9971643794145
 30
0.0
 11
811.3863414836457
 21
768.959934612453
 31
0.0
1001
ACAD
1010
0.0
1020
0.0
1030
0.0
  0
LINE
  5
83D
330
11C
100
AcDbEntity
  8
1
  6
Continuous
 62
     4
100
AcDbLine
 10
562.8412677051226
 20
509.8082591161313
 30
0.0
 11
588.0080410810099
 21
534.9750324920188
 31
0.0
1001
ACAD
1010
0.0
1020
0.0
1030
0.0
  0
LINE
  5
83E
330
11C
100
AcDbEntity
  8
1
  6
Continuous
 62
     4
100
AcDbLine
 10
800.0301729684059
 20
746.9971643794145
 30
0.0
 11
817.9238536643959
 21
764.890845075404
 31
0.0
1001
ACAD
1010
0.0
1020
0.0
1030
0.0
  0
LINE
  5
83F
330
11C
100
AcDbEntity
  8
1
  6
Continuous
 62
     4
100
AcDbLine
 10
570.9860566750487
 20
507.3464463682589
 30
0.0
 11
595.8009460779172
 21
532.1613357711278
 31
0.0
1001
ACAD
1010
0.0
1020
0.0
1030
0.0
  0
LINE
  5
840
330
11C
100
AcDbEntity
  8
1
  6
Continuous
 62
     4
100
AcDbLine
 10
860.2007775493662
 20
796.5611672425767
 30
0.0
 11
867.6857513146925
 21
804.0461410079027
 31
0.0
1001
ACAD
1010
0.0
1020
0.0
1030
0.0
  0
LINE
  5
841
330
11C
100
AcDbEntity
  8
1
  6
Continuous
 62
     4
100
AcDbLine
 10
810.6367746862041
 20
746.9971643794147
 30
0.0
 11
824.3926836832267
 21
760.7530733764372
 31
0.0
1001
ACAD
1010
0.0
1020
0.0
1030
0.0
  0
LINE
  5
842
330
11C
100
AcDbEntity
  8
1
  6
Continuous
 62
     4
100
AcDbLine
 10
578.9308222788641
 20
504.6846102542764
 30
0.0
 11
603.4267908436837
 21
529.1805788190962
 31
0.0
1001
ACAD
1010
0.0
1020
0.0
1030
0.0
  0
LINE
  5
843
330
11C
100
AcDbEntity
  8
1
  6
Continuous
 62
     4
100
AcDbLine
 10
855.6982226703324
 20
781.4520106457446
 30
0.0
 11
886.7291836971537
 21
812.4829716725662
 31
0.0
1001
ACAD
1010
0.0
1020
0.0
1030
0.0
  0
LINE
  5
844
330
11C
100
AcDbEntity
  8
1
  6
Continuous
 62
     4
100
AcDbLine
 10
821.2433764040023
 20
746.9971643794147
 30
0.0
 11
830.7933865042807
 21
756.5471744796931
 31
0.0
1001
ACAD
1010
0.0
1020
0.0
1030
0.0
  0
LINE
  5
845
330
11C
100
AcDbEntity
  8
1
  6
Continuous
 62
     4
100
AcDbLine
 10
586.6842109546044
 20
501.8313972122184
 30
0.0
 11
610.8911843181232
 21
526.0383705757371
 31
0.0
1001
ACAD
1010
0.0
1020
0.0
1030
0.0
  0
LINE
  5
846
330
11C
100
AcDbEntity
  8
1
  6
Continuous
 62
     4
100
AcDbLine
 10
851.1956677912976
 20
766.342854048912
 30
0.0
 11
905.7726160796153
 21
820.9198023372293
 31
0.0
1001
ACAD
1010
0.0
1020
0.0
1030
0.0
  0
LINE
  5
847
330
11C
100
AcDbEntity
  8
1
  6
Continuous
 62
     4
100
AcDbLine
 10
831.8499781218005
 20
746.9971643794147
 30
0.0
 11
837.1264792004716
 21
752.2736654580859
 31
0.0
1001
ACAD
1010
0.0
1020
0.0
1030
0.0
  0
LINE
  5
848
330
11C
100
AcDbEntity
  8
1
  6
Continuous
 62
     4
100
AcDbLine
 10
594.2538022906079
 20
498.7943868304238
 30
0.0
 11
618.1991220484192
 21
522.7397065882354
 31
0.0
1001
ACAD
1010
0.0
1020
0.0
1030
0.0
  0
LINE
  5
849
330
11C
100
AcDbEntity
  8
1
  6
Continuous
 62
     4
100
AcDbLine
 10
848.6591817864717
 20
753.1997663262875
 30
0.0
 11
924.8160484620767
 21
829.3566330018926
 31
0.0
1001
ACAD
1010
0.0
1020
0.0
1030
0.0
  0
LINE
  5
84A
330
11C
100
AcDbEntity
  8
1
  6
Continuous
 62
     4
100
AcDbLine
 10
842.4565798395985
 20
746.9971643794147
 30
0.0
 11
843.392442239204
 21
747.9330267790198
 31
0.0
1001
ACAD
1010
0.0
1020
0.0
1030
0.0
  0
LINE
  5
84B
330
11C
100
AcDbEntity
  8
1
  6
Continuous
 62
     4
100
AcDbLine
 10
601.6462546361474
 20
495.5802374581649
 30
0.0
 11
625.3550551801875
 21
519.2890380022055
 31
0.0
1001
ACAD
1010
0.0
1020
0.0
1030
0.0
  0
LINE
  5
84C
330
11C
100
AcDbEntity
  8
1
  6
Continuous
 62
     4
100
AcDbLine
 10
854.9377786177645
 20
748.871761439782
 30
0.0
 11
943.8594808445385
 21
837.7934636665559
 31
0.0
1001
ACAD
1010
0.0
1020
0.0
1030
0.0
  0
LINE
  5
84D
330
11C
100
AcDbEntity
  8
1
  6
Continuous
 62
     4
100
AcDbLine
 10
608.8674236992576
 20
492.1948048034771
 30
0.0
 11
632.362948337188
 21
515.6903294414076
 31
0.0
1001
ACAD
1010
0.0
1020
0.0
1030
0.0
  0
LINE
  5
84E
330
11C
100
AcDbEntity
  8
1
  6
Continuous
 62
     4
100
AcDbLine
 10
863.6697832751952
 20
746.9971643794147
 30
0.0
 11
957.8293313606616
 21
841.156712464881
 31
0.0
1001
ACAD
1010
0.0
1020
0.0
1030
0.0
  0
LINE
  5
84F
330
11C
100
AcDbEntity
  8
1
  6
Continuous
 62
     4
100
AcDbLine
 10
615.9224597982094
 20
488.6432391846303
 30
0.0
 11
639.2263283706536
 21
511.9471077570748
 31
0.0
1001
ACAD
1010
0.0
1020
0.0
1030
0.0
  0
LINE
  5
850
330
11C
100
AcDbEntity
  8
1
  6
Continuous
 62
     4
100
AcDbLine
 10
874.2763849929936
 20
746.9971643794147
 30
0.0
 11
966.3362186649084
 21
839.0569980513301
 31
0.0
1001
ACAD
1010
0.0
1020
0.0
1030
0.0
  0
LINE
  5
851
330
11C
100
AcDbEntity
  8
1
  6
Continuous
 62
     4
100
AcDbLine
 10
622.8158880493681
 20
484.9300657179916
 30
0.0
 11
645.9483255390948
 21
508.0625032077178
 31
0.0
1001
ACAD
1010
0.0
1020
0.0
1030
0.0
  0
LINE
  5
852
330
11C
100
AcDbEntity
  8
1
  6
Continuous
 62
     4
100
AcDbLine
 10
884.8829867107918
 20
746.9971643794147
 30
0.0
 11
974.8431059691558
 21
836.9572836377789
 31
0.0
1001
ACAD
1010
0.0
1020
0.0
1030
0.0
  0
LINE
  5
853
330
11C
100
AcDbEntity
  8
1
  6
Continuous
 62
     4
100
AcDbLine
 10
629.5516747626891
 20
481.0592507135138
 30
0.0
 11
652.5317083569944
 21
504.0392843078197
 31
0.0
1001
ACAD
1010
0.0
1020
0.0
1030
0.0
  0
LINE
  5
854
330
11C
100
AcDbEntity
  8
1
  6
Continuous
 62
     4
100
AcDbLine
 10
895.4895884285901
 20
746.9971643794147
 30
0.0
 11
983.3499932734033
 21
834.8575692242281
 31
0.0
1001
ACAD
1010
0.0
1020
0.0
1030
0.0
  0
LINE
  5
855
330
11C
100
AcDbEntity
  8
1
  6
Continuous
 62
     4
100
AcDbLine
 10
636.1332825664309
 20
477.0342567994576
 30
0.0
 11
658.9789131007029
 21
499.8798873337299
 31
0.0
1001
ACAD
1010
0.0
1020
0.0
1030
0.0
  0
LINE
  5
856
330
11C
100
AcDbEntity
  8
1
  6
Continuous
 62
     4
100
AcDbLine
 10
906.0961901463882
 20
746.9971643794147
 30
0.0
 11
991.8568805776502
 21
832.7578548106771
 31
0.0
1001
ACAD
1010
0.0
1020
0.0
1030
0.0
  0
LINE
  5
857
330
11C
100
AcDbEntity
  8
1
  6
Continuous
 62
     4
100
AcDbLine
 10
642.5637162198461
 20
472.8580887350743
 30
0.0
 11
665.2920687638713
 21
495.5864412790996
 31
0.0
1001
ACAD
1010
0.0
1020
0.0
1030
0.0
  0
LINE
  5
858
330
11C
100
AcDbEntity
  8
1
  6
Continuous
 62
     4
100
AcDbLine
 10
916.7027918641863
 20
746.9971643794147
 30
0.0
 11
1000.363767881898
 21
830.6581403971261
 31
0.0
1001
ACAD
1010
0.0
1020
0.0
1030
0.0
  0
LINE
  5
859
330
11C
100
AcDbEntity
  8
1
  6
Continuous
 62
     4
100
AcDbLine
 10
648.8455606445597
 20
468.5333314419898
 30
0.0
 11
671.4730180996091
 21
491.1607888970393
 31
0.0
1001
ACAD
1010
0.0
1020
0.0
1030
0.0
  0
LINE
  5
85A
330
11C
100
AcDbEntity
  8
1
  6
Continuous
 62
     4
100
AcDbLine
 10
927.3093935819844
 20
746.9971643794147
 30
0.0
 11
1008.870655186145
 21
828.5584259835751
 31
0.0
1001
ACAD
1010
0.0
1020
0.0
1030
0.0
  0
LINE
  5
85B
330
11C
100
AcDbEntity
  8
1
  6
Continuous
 62
     4
100
AcDbLine
 10
654.9810123756867
 20
464.0621814553187
 30
0.0
 11
677.5233352623858
 21
486.6045043420179
 31
0.0
1001
ACAD
1010
0.0
1020
0.0
1030
0.0
  0
LINE
  5
85C
330
11C
100
AcDbEntity
  8
1
  6
Continuous
 62
     4
100
AcDbLine
 10
937.9159952997827
 20
746.9971643794147
 30
0.0
 11
1017.377542490391
 21
826.4587115700242
 31
0.0
1001
ACAD
1010
0.0
1020
0.0
1030
0.0
  0
LINE
  5
85D
330
11C
100
AcDbEntity
  8
1
  6
Continuous
 62
     4
100
AcDbLine
 10
660.9719053764457
 20
459.4464727382797
 30
0.0
 11
683.4443404621953
 21
481.9189078240293
 31
0.0
1001
ACAD
1010
0.0
1020
0.0
1030
0.0
  0
LINE
  5
85E
330
11C
100
AcDbEntity
  8
1
  6
Continuous
 62
     4
100
AcDbLine
 10
948.5225970175813
 20
746.9971643794147
 30
0.0
 11
1025.88442979464
 21
824.3589971564734
 31
0.0
1001
ACAD
1010
0.0
1020
0.0
1030
0.0
  0
LINE
  5
85F
330
11C
100
AcDbEntity
  8
1
  6
Continuous
 62
     4
100
AcDbLine
 10
666.8197319563168
 20
454.6876976003521
 30
0.0
 11
689.2371119611099
 21
477.105077605146
 31
0.0
1001
ACAD
1010
0.0
1020
0.0
1030
0.0
  0
LINE
  5
860
330
11C
100
AcDbEntity
  8
1
  6
Continuous
 62
     4
100
AcDbLine
 10
959.1291987353791
 20
746.9971643794147
 30
0.0
 11
1034.391317098886
 21
822.2592827429222
 31
0.0
1001
ACAD
1010
0.0
1020
0.0
1030
0.0
  0
LINE
  5
861
330
11C
100
AcDbEntity
  8
1
  6
Continuous
 62
     4
100
AcDbLine
 10
672.5256593689032
 20
449.7870232951408
 30
0.0
 11
694.9024956738119
 21
472.1638596000492
 31
0.0
1001
ACAD
1010
0.0
1020
0.0
1030
0.0
  0
LINE
  5
862
330
11C
100
AcDbEntity
  8
1
  6
Continuous
 62
     4
100
AcDbLine
 10
969.7358004531777
 20
746.9971643794147
 30
0.0
 11
1042.898204403134
 21
820.1595683293712
 31
0.0
1001
ACAD
1010
0.0
1020
0.0
1030
0.0
  0
LINE
  5
863
330
11C
100
AcDbEntity
  8
1
  6
Continuous
 62
     4
100
AcDbLine
 10
678.0905425313322
 20
444.7453047397713
 30
0.0
 11
700.4411125757171
 21
467.0958747841563
 31
0.0
1001
ACAD
1010
0.0
1020
0.0
1030
0.0
  0
LINE
  5
864
330
11C
100
AcDbEntity
  8
1
  6
Continuous
 62
     4
100
AcDbLine
 10
980.3424021709759
 20
746.9971643794147
 30
0.0
 11
1051.40509170738
 21
818.0598539158204
 31
0.0
1001
ACAD
1010
0.0
1020
0.0
1030
0.0
  0
LINE
  5
865
330
11C
100
AcDbEntity
  8
1
  6
Continuous
 62
     4
100
AcDbLine
 10
683.5149331943696
 20
439.5630936850102
 30
0.0
 11
705.8533640722687
 21
461.9015245629098
 31
0.0
1001
ACAD
1010
0.0
1020
0.0
1030
0.0
  0
LINE
  5
866
330
11C
100
AcDbEntity
  8
1
  6
Continuous
 62
     4
100
AcDbLine
 10
990.9490038887739
 20
746.9971643794147
 30
0.0
 11
1059.911979011626
 21
815.9601395022692
 31
0.0
1001
ACAD
1010
0.0
1020
0.0
1030
0.0
  0
LINE
  5
867
330
11C
100
AcDbEntity
  8
1
  6
Continuous
 62
     4
100
AcDbLine
 10
688.799085795473
 20
434.2406445683156
 30
0.0
 11
711.1394354387483
 21
456.5809942115909
 31
0.0
1001
ACAD
1010
0.0
1020
0.0
1030
0.0
  0
LINE
  5
868
330
11C
100
AcDbEntity
  8
1
  6
Continuous
 62
     4
100
AcDbLine
 10
1001.555605606571
 20
746.9971643794147
 30
0.0
 11
1068.418866315876
 21
813.8604250887182
 31
0.0
1001
ACAD
1010
0.0
1020
0.0
1030
0.0
  0
LINE
  5
869
330
11C
100
AcDbEntity
  8
1
  6
Continuous
 62
     4
100
AcDbLine
 10
693.9429601407107
 20
428.7779171957553
 30
0.0
 11
716.2992973997927
 21
451.1342544548369
 31
0.0
1001
ACAD
1010
0.0
1020
0.0
1030
0.0
  0
LINE
  5
86A
330
11C
100
AcDbEntity
  8
1
  6
Continuous
 62
     4
100
AcDbLine
 10
1012.162207324369
 20
746.9971643794147
 30
0.0
 11
1076.925753620122
 21
811.760710675167
 31
0.0
1001
ACAD
1010
0.0
1020
0.0
1030
0.0
  0
LINE
  5
86B
330
11C
100
AcDbEntity
  8
1
  6
Continuous
 62
     4
100
AcDbLine
 10
698.9462209818136
 20
423.1745763190598
 30
0.0
 11
721.3327058801585
 21
445.5610612174051
 31
0.0
1001
ACAD
1010
0.0
1020
0.0
1030
0.0
  0
LINE
  5
86C
330
11C
100
AcDbEntity
  8
1
  6
Continuous
 62
     4
100
AcDbLine
 10
1022.768809042168
 20
746.9971643794147
 30
0.0
 11
1085.432640924369
 21
809.6609962616165
 31
0.0
1001
ACAD
1010
0.0
1020
0.0
1030
0.0
  0
LINE
  5
86D
330
11C
100
AcDbEntity
  8
1
  6
Continuous
 62
     4
100
AcDbLine
 10
703.8082344779393
 20
417.4299880973871
 30
0.0
 11
726.2391999217668
 21
439.8609535412147
 31
0.0
1001
ACAD
1010
0.0
1020
0.0
1030
0.0
  0
LINE
  5
86E
330
11C
100
AcDbEntity
  8
1
  6
Continuous
 62
     4
100
AcDbLine
 10
1033.375410759967
 20
746.9971643794147
 30
0.0
 11
1093.939528228615
 21
807.5612818480651
 31
0.0
1001
ACAD
1010
0.0
1020
0.0
1030
0.0
  0
LINE
  5
86F
330
11C
100
AcDbEntity
  8
1
  6
Continuous
 62
     4
100
AcDbLine
 10
708.5280614545601
 20
411.54321335621
 30
0.0
 11
731.018097725366
 21
434.0332496270161
 31
0.0
1001
ACAD
1010
0.0
1020
0.0
1030
0.0
  0
LINE
  5
870
330
11C
100
AcDbEntity
  8
1
  6
Continuous
 62
     4
100
AcDbLine
 10
1043.982012477765
 20
746.9971643794147
 30
0.0
 11
1102.446415532864
 21
805.4615674345143
 31
0.0
1001
ACAD
1010
0.0
1020
0.0
1030
0.0
  0
LINE
  5
871
330
11C
100
AcDbEntity
  8
1
  6
Continuous
 62
     4
100
AcDbLine
 10
713.1044472907895
 20
405.512997474641
 30
0.0
 11
735.6684907369859
 21
428.0770409208376
 31
0.0
1001
ACAD
1010
0.0
1020
0.0
1030
0.0
  0
LINE
  5
872
330
11C
100
AcDbEntity
  8
1
  6
Continuous
 62
     4
100
AcDbLine
 10
1054.588614195562
 20
746.9971643794147
 30
0.0
 11
1110.953302837111
 21
803.3618530209633
 31
0.0
1001
ACAD
1010
0.0
1020
0.0
1030
0.0
  0
LINE
  5
873
330
11C
100
AcDbEntity
  8
1
  6
Continuous
 62
     4
100
AcDbLine
 10
717.5358081777083
 20
399.3377566437616
 30
0.0
 11
740.1892356582017
 21
421.9911841242551
 31
0.0
1001
ACAD
1010
0.0
1020
0.0
1030
0.0
  0
LINE
  5
874
330
11C
100
AcDbEntity
  8
1
  6
Continuous
 62
     4
100
AcDbLine
 10
1065.195215913361
 20
746.9971643794147
 30
0.0
 11
1119.460190141359
 21
801.2621386074124
 31
0.0
1001
ACAD
1010
0.0
1020
0.0
1030
0.0
  0
LINE
  5
875
330
11C
100
AcDbEntity
  8
1
  6
Continuous
 62
     4
100
AcDbLine
 10
721.8202133895122
 20
393.0155601377673
 30
0.0
 11
744.5789442136392
 21
415.7742909618948
 31
0.0
1001
ACAD
1010
0.0
1020
0.0
1030
0.0
  0
LINE
  5
876
330
11C
100
AcDbEntity
  8
1
  6
Continuous
 62
     4
100
AcDbLine
 10
1075.80181763116
 20
746.9971643794147
 30
0.0
 11
1127.967077445606
 21
799.1624241938612
 31
0.0
1001
ACAD
1010
0.0
1020
0.0
1030
0.0
  0
LINE
  5
877
330
11C
100
AcDbEntity
  8
1
  6
Continuous
 62
     4
100
AcDbLine
 10
725.9553630914122
 20
386.5441081218692
 30
0.0
 11
748.8359704571561
 21
409.4247154876133
 31
0.0
1001
ACAD
1010
0.0
1020
0.0
1030
0.0
  0
LINE
  5
878
330
11C
100
AcDbEntity
  8
1
  6
Continuous
 62
     4
100
AcDbLine
 10
1086.408419348958
 20
746.9971643794147
 30
0.0
 11
1136.473964749853
 21
797.0627097803105
 31
0.0
1001
ACAD
1010
0.0
1020
0.0
1030
0.0
  0
LINE
  5
879
330
11C
100
AcDbEntity
  8
1
  6
Continuous
 62
     4
100
AcDbLine
 10
729.9385610666777
 20
379.9207043793367
 30
0.0
 11
752.9583953375556
 21
402.9405386502141
 31
0.0
1001
ACAD
1010
0.0
1020
0.0
1030
0.0
  0
LINE
  5
87A
330
11C
100
AcDbEntity
  8
1
  6
Continuous
 62
     4
100
AcDbLine
 10
1097.608327096618
 20
747.5904704092767
 30
0.0
 11
1144.980852054101
 21
794.9629953667595
 31
0.0
1001
ACAD
1010
0.0
1020
0.0
1030
0.0
  0
LINE
  5
87B
330
11C
100
AcDbEntity
  8
1
  6
Continuous
 62
     4
100
AcDbLine
 10
733.7666815715872
 20
373.1422231664482
 30
0.0
 11
756.9440081727491
 21
396.3195497676098
 31
0.0
1001
ACAD
1010
0.0
1020
0.0
1030
0.0
  0
LINE
  5
87C
330
11C
100
AcDbEntity
  8
1
  6
Continuous
 62
     4
100
AcDbLine
 10
1108.512627955517
 20
747.8881695503778
 30
0.0
 11
1153.487739358346
 21
792.8632809532086
 31
0.0
1001
ACAD
1010
0.0
1020
0.0
1030
0.0
  0
LINE
  5
87D
330
11C
100
AcDbEntity
  8
1
  6
Continuous
 62
     4
100
AcDbLine
 10
737.436129310261
 20
366.2050691873231
 30
0.0
 11
760.7902845943917
 21
389.5592244714543
 31
0.0
1001
ACAD
1010
0.0
1020
0.0
1030
0.0
  0
LINE
  5
87E
330
11C
100
AcDbEntity
  8
1
  6
Continuous
 62
     4
100
AcDbLine
 10
1119.416928814416
 20
748.1858686914782
 30
0.0
 11
1161.994626662595
 21
790.7635665396574
 31
0.0
1001
ACAD
1010
0.0
1020
0.0
1030
0.0
  0
LINE
  5
87F
330
11C
100
AcDbEntity
  8
1
  6
Continuous
 62
     4
100
AcDbLine
 10
740.9427912464018
 20
359.1051294056662
 30
0.0
 11
764.4943604186792
 21
382.6566985779433
 31
0.0
1001
ACAD
1010
0.0
1020
0.0
1030
0.0
  0
LINE
  5
880
330
11C
100
AcDbEntity
  8
1
  6
Continuous
 62
     4
100
AcDbLine
 10
1130.321229673315
 20
748.4835678325796
 30
0.0
 11
1168.484792173313
 21
786.647130332579
 31
0.0
1001
ACAD
1010
0.0
1020
0.0
1030
0.0
  0
LINE
  5
881
330
11C
100
AcDbEntity
  8
1
  6
Continuous
 62
     4
100
AcDbLine
 10
744.2819786153984
 20
351.8377150568646
 30
0.0
 11
768.0530007671808
 21
375.608737208647
 31
0.0
1001
ACAD
1010
0.0
1020
0.0
1030
0.0
  0
LINE
  5
882
330
11C
100
AcDbEntity
  8
1
  6
Continuous
 62
     4
100
AcDbLine
 10
1141.225530532212
 20
748.7812669736805
 30
0.0
 11
1173.788093032213
 21
781.3438294736802
 31
0.0
1001
ACAD
1010
0.0
1020
0.0
1030
0.0
  0
LINE
  5
883
330
11C
100
AcDbEntity
  8
1
  6
Continuous
 62
     4
100
AcDbLine
 10
969.8824804427916
 20
577.4382168842577
 30
0.0
 11
992.5427102003133
 21
600.0984466417796
 31
0.0
1001
ACAD
1010
0.0
1020
0.0
1030
0.0
  0
LINE
  5
884
330
11C
100
AcDbEntity
  8
1
  6
Continuous
 62
     4
100
AcDbLine
 10
997.6187782981094
 20
605.174514739575
 30
0.0
 11
1002.017464683706
 21
609.5732011251723
 31
0.0
1001
ACAD
1010
0.0
1020
0.0
1030
0.0
  0
LINE
  5
885
330
11C
100
AcDbEntity
  8
1
  6
Continuous
 62
     4
100
AcDbLine
 10
747.4483570395323
 20
344.3974917631998
 30
0.0
 11
771.4625635963841
 21
368.4116983200518
 31
0.0
1001
ACAD
1010
0.0
1020
0.0
1030
0.0
  0
LINE
  5
886
330
11C
100
AcDbEntity
  8
1
  6
Continuous
 62
     4
100
AcDbLine
 10
1152.129831391114
 20
749.0789661147812
 30
0.0
 11
1179.091393891112
 21
776.0405286147812
 31
0.0
1001
ACAD
1010
0.0
1020
0.0
1030
0.0
  0
LINE
  5
887
330
11C
100
AcDbEntity
  8
1
  6
Continuous
 62
     4
100
AcDbLine
 10
974.2213268623656
 20
571.1704615860333
 30
0.0
 11
996.9318613177085
 21
593.880996041376
 31
0.0
1001
ACAD
1010
0.0
1020
0.0
1030
0.0
  0
LINE
  5
888
330
11C
100
AcDbEntity
  8
1
  6
Continuous
 62
     4
100
AcDbLine
 10
1002.297428867634
 20
599.2465635913019
 30
0.0
 11
1033.959017168988
 21
630.9081518926576
 31
0.0
1001
ACAD
1010
0.0
1020
0.0
1030
0.0
  0
LINE
  5
889
330
11C
100
AcDbEntity
  8
1
  6
Continuous
 62
     4
100
AcDbLine
 10
750.43586204115
 20
336.7783950470196
 30
0.0
 11
774.718956585357
 21
361.0614895912267
 31
0.0
1001
ACAD
1010
0.0
1020
0.0
1030
0.0
  0
LINE
  5
88A
330
11C
100
AcDbEntity
  8
1
  6
Continuous
 62
     4
100
AcDbLine
 10
1163.034132250013
 20
749.3766652558822
 30
0.0
 11
1184.394694750013
 21
770.7372277558824
 31
0.0
1001
ACAD
1010
0.0
1020
0.0
1030
0.0
  0
LINE
  5
88B
330
11C
100
AcDbEntity
  8
1
  6
Continuous
 62
     4
100
AcDbLine
 10
978.4894385528366
 20
564.8319715587065
 30
0.0
 11
1001.25420971078
 21
587.5967427166492
 31
0.0
1001
ACAD
1010
0.0
1020
0.0
1030
0.0
  0
LINE
  5
88C
330
11C
100
AcDbEntity
  8
1
  6
Continuous
 62
     4
100
AcDbLine
 10
1009.82162745941
 20
596.1641604652808
 30
0.0
 11
1048.540131373544
 21
634.8826643794142
 31
0.0
1001
ACAD
1010
0.0
1020
0.0
1030
0.0
  0
LINE
  5
88D
330
11C
100
AcDbEntity
  8
1
  6
Continuous
 62
     4
100
AcDbLine
 10
753.2375964361527
 20
328.9735277242243
 30
0.0
 11
777.8175860631461
 21
353.5535173512175
 31
0.0
1001
ACAD
1010
0.0
1020
0.0
1030
0.0
  0
LINE
  5
88E
330
11C
100
AcDbEntity
  8
1
  6
Continuous
 62
     4
100
AcDbLine
 10
1173.938433108909
 20
749.6743643969831
 30
0.0
 11
1189.697995608912
 21
765.4339268969834
 31
0.0
1001
ACAD
1010
0.0
1020
0.0
1030
0.0
  0
LINE
  5
88F
330
11C
100
AcDbEntity
  8
1
  6
Continuous
 62
     4
100
AcDbLine
 10
982.6862792342748
 20
558.4222105223463
 30
0.0
 11
1005.509300775143
 21
581.245232063214
 31
0.0
1001
ACAD
1010
0.0
1020
0.0
1030
0.0
  0
LINE
  5
890
330
11C
100
AcDbEntity
  8
1
  6
Continuous
 62
     4
100
AcDbLine
 10
1017.345826051188
 20
593.0817573392597
 30
0.0
 11
1059.146733091343
 21
634.8826643794142
 31
0.0
1001
ACAD
1010
0.0
1020
0.0
1030
0.0
  0
LINE
  5
891
330
11C
100
AcDbEntity
  8
1
  6
Continuous
 62
     4
100
AcDbLine
 10
755.8457049897915
 20
320.9750345600651
 30
0.0
 11
780.7532963112619
 21
345.882625881535
 31
0.0
1001
ACAD
1010
0.0
1020
0.0
1030
0.0
  0
LINE
  5
892
330
11C
100
AcDbEntity
  8
1
  6
Continuous
 62
     4
100
AcDbLine
 10
1184.842733967811
 20
749.9720635380842
 30
0.0
 11
1193.513133126481
 21
758.6424626967542
 31
0.0
1001
ACAD
1010
0.0
1020
0.0
1030
0.0
  0
LINE
  5
893
330
11C
100
AcDbEntity
  8
1
  6
Continuous
 62
     4
100
AcDbLine
 10
986.811269692893
 20
551.9405992631659
 30
0.0
 11
1009.696644166109
 21
574.8259737363826
 31
0.0
1001
ACAD
1010
0.0
1020
0.0
1030
0.0
  0
LINE
  5
894
330
11C
100
AcDbEntity
  8
1
  6
Continuous
 62
     4
100
AcDbLine
 10
1024.870024642966
 20
589.9993542132385
 30
0.0
 11
1069.753334809139
 21
634.8826643794142
 31
0.0
1001
ACAD
1010
0.0
1020
0.0
1030
0.0
  0
LINE
  5
895
330
11C
100
AcDbEntity
  8
1
  6
Continuous
 62
     4
100
AcDbLine
 10
758.2512202057013
 20
312.7739480581761
 30
0.0
 11
783.5202971242177
 21
338.0430249766924
 31
0.0
1001
ACAD
1010
0.0
1020
0.0
1030
0.0
  0
LINE
  5
896
330
11C
100
AcDbEntity
  8
1
  6
Continuous
 62
     4
100
AcDbLine
 10
1032.394223234742
 20
586.9169510872175
 30
0.0
 11
1080.359936526938
 21
634.8826643794142
 31
0.0
1001
ACAD
1010
0.0
1020
0.0
1030
0.0
  0
LINE
  5
897
330
11C
100
AcDbEntity
  8
1
  6
Continuous
 62
     4
100
AcDbLine
 10
990.8637861795034
 20
545.3865140319785
 30
0.0
 11
1013.815712593512
 21
568.3384404459867
 31
0.0
1001
ACAD
1010
0.0
1020
0.0
1030
0.0
  0
LINE
  5
898
330
11C
100
AcDbEntity
  8
1
  6
Continuous
 62
     4
100
AcDbLine
 10
760.4438710129215
 20
304.359997147598
 30
0.0
 11
786.1120769134966
 21
330.0282030481731
 31
0.0
1001
ACAD
1010
0.0
1020
0.0
1030
0.0
  0
LINE
  5
899
330
11C
100
AcDbEntity
  8
1
  6
Continuous
 62
     4
100
AcDbLine
 10
1039.918421826519
 20
583.8345479611962
 30
0.0
 11
1086.229835685608
 21
630.1459618202852
 31
0.0
1001
ACAD
1010
0.0
1020
0.0
1030
0.0
  0
LINE
  5
89A
330
11C
100
AcDbEntity
  8
1
  6
Continuous
 62
     4
100
AcDbLine
 10
994.8431586536946
 20
538.7592847883711
 30
0.0
 11
1017.865940504669
 21
561.7820666393463
 31
0.0
1001
ACAD
1010
0.0
1020
0.0
1030
0.0
  0
LINE
  5
89B
330
11C
100
AcDbEntity
  8
1
  6
Continuous
 62
     4
100
AcDbLine
 10
762.4118431324333
 20
295.7213675493118
 30
0.0
 11
788.5212978418698
 21
321.8308222587485
 31
0.0
1001
ACAD
1010
0.0
1020
0.0
1030
0.0
  0
LINE
  5
89C
330
11C
100
AcDbEntity
  8
1
  6
Continuous
 62
     4
100
AcDbLine
 10
1047.442620418296
 20
580.7521448351754
 30
0.0
 11
1097.134136544507
 21
630.4436609613863
 31
0.0
1001
ACAD
1010
0.0
1020
0.0
1030
0.0
  0
LINE
  5
89D
330
11C
100
AcDbEntity
  8
1
  6
Continuous
 62
     4
100
AcDbLine
 10
998.7486688615415
 20
532.05819327842
 30
0.0
 11
1021.846722647433
 21
555.1562470643118
 31
0.0
1001
ACAD
1010
0.0
1020
0.0
1030
0.0
  0
LINE
  5
89E
330
11C
100
AcDbEntity
  8
1
  6
Continuous
 62
     4
100
AcDbLine
 10
764.1414756042824
 20
286.844398303363
 30
0.0
 11
790.7396683949201
 21
313.4425910940006
 31
0.0
1001
ACAD
1010
0.0
1020
0.0
1030
0.0
  0
LINE
  5
89F
330
11C
100
AcDbEntity
  8
1
  6
Continuous
 62
     4
100
AcDbLine
 10
1054.966819010074
 20
577.6697417091543
 30
0.0
 11
1108.038437403407
 21
630.7413601024875
 31
0.0
1001
ACAD
1010
0.0
1020
0.0
1030
0.0
  0
LINE
  5
8A0
330
11C
100
AcDbEntity
  8
1
  6
Continuous
 62
     4
100
AcDbLine
 10
1002.579548233194
 20
525.282470932274
 30
0.0
 11
1025.757412504295
 21
548.4603352033778
 31
0.0
1001
ACAD
1010
0.0
1020
0.0
1030
0.0
  0
LINE
  5
8A1
330
11C
100
AcDbEntity
  8
1
  6
Continuous
 62
     4
100
AcDbLine
 10
765.6168716360972
 20
277.7131926173796
 30
0.0
 11
792.7577873162703
 21
304.8541082975522
 31
0.0
1001
ACAD
1010
0.0
1020
0.0
1030
0.0
  0
LINE
  5
8A2
330
11C
100
AcDbEntity
  8
1
  6
Continuous
 62
     4
100
AcDbLine
 10
1062.491017601851
 20
574.587338583133
 30
0.0
 11
1118.942738262306
 21
631.0390592435878
 31
0.0
1001
ACAD
1010
0.0
1020
0.0
1030
0.0
  0
LINE
  5
8A3
330
11C
100
AcDbEntity
  8
1
  6
Continuous
 62
     4
100
AcDbLine
 10
1006.334975584985
 20
518.4312965662677
 30
0.0
 11
1029.597320587543
 21
541.6936415688251
 31
0.0
1001
ACAD
1010
0.0
1020
0.0
1030
0.0
  0
LINE
  5
8A4
330
11C
100
AcDbEntity
  8
1
  6
Continuous
 62
     4
100
AcDbLine
 10
766.8193924435347
 20
268.3091117070186
 30
0.0
 11
794.5649507747877
 21
296.0546700382713
 31
0.0
1001
ACAD
1010
0.0
1020
0.0
1030
0.0
  0
LINE
  5
8A5
330
11C
100
AcDbEntity
  8
1
  6
Continuous
 62
     4
100
AcDbLine
 10
1070.015216193628
 20
571.5049354571117
 30
0.0
 11
1129.847039121206
 21
631.3367583846894
 31
0.0
1001
ACAD
1010
0.0
1020
0.0
1030
0.0
  0
LINE
  5
8A6
330
11C
100
AcDbEntity
  8
1
  6
Continuous
 62
     4
100
AcDbLine
 10
1010.01407460886
 20
511.5037938723442
 30
0.0
 11
1033.365712584203
 21
534.8554318476881
 31
0.0
1001
ACAD
1010
0.0
1020
0.0
1030
0.0
  0
LINE
  5
8A7
330
11C
100
AcDbEntity
  8
1
  6
Continuous
 62
     4
100
AcDbLine
 10
767.7269881572873
 20
258.6101057029726
 30
0.0
 11
796.1489117254379
 21
287.0320292711235
 31
0.0
1001
ACAD
1010
0.0
1020
0.0
1030
0.0
  0
LINE
  5
8A8
330
11C
100
AcDbEntity
  8
1
  6
Continuous
 62
     4
100
AcDbLine
 10
1077.539414785404
 20
568.422532331091
 30
0.0
 11
1140.751339980105
 21
631.6344575257905
 31
0.0
1001
ACAD
1010
0.0
1020
0.0
1030
0.0
  0
LINE
  5
8A9
330
11C
100
AcDbEntity
  8
1
  6
Continuous
 62
     4
100
AcDbLine
 10
1013.615911129751
 20
504.4990286754369
 30
0.0
 11
1037.061807338359
 21
527.9449248840468
 31
0.0
1001
ACAD
1010
0.0
1020
0.0
1030
0.0
  0
LINE
  5
8AA
330
11C
100
AcDbEntity
  8
1
  6
Continuous
 62
     4
100
AcDbLine
 10
770.2146018352771
 20
250.4911176631643
 30
0.0
 11
797.4955762500812
 21
277.7720920779691
 31
0.0
1001
ACAD
1010
0.0
1020
0.0
1030
0.0
  0
LINE
  5
8AB
330
11C
100
AcDbEntity
  8
1
  6
Continuous
 62
     4
100
AcDbLine
 10
1085.063613377182
 20
565.3401292050696
 30
0.0
 11
1151.655640839001
 21
631.932156666891
 31
0.0
1001
ACAD
1010
0.0
1020
0.0
1030
0.0
  0
LINE
  5
8AC
330
11C
100
AcDbEntity
  8
1
  6
Continuous
 62
     4
100
AcDbLine
 10
1017.139490109167
 20
497.4160059370545
 30
0.0
 11
1040.684774656787
 21
520.9612904846765
 31
0.0
1001
ACAD
1010
0.0
1020
0.0
1030
0.0
  0
LINE
  5
8AD
330
11C
100
AcDbEntity
  8
1
  6
Continuous
 62
     4
100
AcDbLine
 10
774.7708290079657
 20
244.4407431180549
 30
0.0
 11
798.5886155523798
 21
268.2585296624694
 31
0.0
1001
ACAD
1010
0.0
1020
0.0
1030
0.0
  0
LINE
  5
8AE
330
11C
100
AcDbEntity
  8
1
  6
Continuous
 62
     4
100
AcDbLine
 10
1099.850000736222
 20
569.5199148463117
 30
0.0
 11
1162.559941697903
 21
632.229855807992
 31
0.0
1001
ACAD
1010
0.0
1020
0.0
1030
0.0
  0
LINE
  5
8AF
330
11C
100
AcDbEntity
  8
1
  6
Continuous
 62
     4
100
AcDbLine
 10
1020.583752370465
 20
490.2536664805555
 30
0.0
 11
1044.233732922356
 21
513.9036470324461
 31
0.0
1001
ACAD
1010
0.0
1020
0.0
1030
0.0
  0
LINE
  5
8B0
330
11C
100
AcDbEntity
  8
1
  6
Continuous
 62
     4
100
AcDbLine
 10
779.3270561806541
 20
238.3903685729449
 30
0.0
 11
799.4089631446597
 21
258.4722755369506
 31
0.0
1001
ACAD
1010
0.0
1020
0.0
1030
0.0
  0
LINE
  5
8B1
330
11C
100
AcDbEntity
  8
1
  6
Continuous
 62
     4
100
AcDbLine
 10
1115.054263558248
 20
574.1175759505412
 30
0.0
 11
1173.464242556802
 21
632.5275549490932
 31
0.0
1001
ACAD
1010
0.0
1020
0.0
1030
0.0
  0
LINE
  5
8B2
330
11C
100
AcDbEntity
  8
1
  6
Continuous
 62
     4
100
AcDbLine
 10
1023.947571018192
 20
483.0108834104835
 30
0.0
 11
1047.707746497706
 21
506.7710588899974
 31
0.0
1001
ACAD
1010
0.0
1020
0.0
1030
0.0
  0
LINE
  5
8B3
330
11C
100
AcDbEntity
  8
1
  6
Continuous
 62
     4
100
AcDbLine
 10
788.5440162049207
 20
237.0007268794139
 30
0.0
 11
799.9341527848542
 21
248.390863459347
 31
0.0
1001
ACAD
1010
0.0
1020
0.0
1030
0.0
  0
LINE
  5
8B4
330
11C
100
AcDbEntity
  8
1
  6
Continuous
 62
     4
100
AcDbLine
 10
1130.258526380278
 20
578.7152370547707
 30
0.0
 11
1184.3685434157
 21
632.825254090194
 31
0.0
1001
ACAD
1010
0.0
1020
0.0
1030
0.0
  0
LINE
  5
8B5
330
11C
100
AcDbEntity
  8
1
  6
Continuous
 62
     4
100
AcDbLine
 10
1027.229747520246
 20
475.6864581947403
 30
0.0
 11
1051.105822899638
 21
499.5625335741308
 31
0.0
1001
ACAD
1010
0.0
1020
0.0
1030
0.0
  0
LINE
  5
8B6
330
11C
100
AcDbEntity
  8
1
  6
Continuous
 62
     4
100
AcDbLine
 10
799.1506179227192
 20
237.0007268794139
 30
0.0
 11
800.1374307611332
 21
237.9875397178278
 31
0.0
1001
ACAD
1010
0.0
1020
0.0
1030
0.0
  0
LINE
  5
8B7
330
11C
100
AcDbEntity
  8
1
  6
Continuous
 62
     4
100
AcDbLine
 10
1145.462789202306
 20
583.3128981590005
 30
0.0
 11
1193.513133126481
 21
631.3632420831757
 31
0.0
1001
ACAD
1010
0.0
1020
0.0
1030
0.0
  0
LINE
  5
8B8
330
11C
100
AcDbEntity
  8
1
  6
Continuous
 62
     4
100
AcDbLine
 10
1030.429007417581
 20
468.2791163742765
 30
0.0
 11
1054.426909722242
 21
492.2770186789373
 31
0.0
1001
ACAD
1010
0.0
1020
0.0
1030
0.0
  0
LINE
  5
8B9
330
11C
100
AcDbEntity
  8
1
  6
Continuous
 62
     4
100
AcDbLine
 10
1033.543995621351
 20
460.7875028602473
 30
0.0
 11
1057.669891284091
 21
484.9133985229872
 31
0.0
1001
ACAD
1010
0.0
1020
0.0
1030
0.0
  0
LINE
  5
8BA
330
11C
100
AcDbEntity
  8
1
  6
Continuous
 62
     4
100
AcDbLine
 10
1160.667052024334
 20
587.9105592632297
 30
0.0
 11
1193.513133126481
 21
620.7566403653774
 31
0.0
1001
ACAD
1010
0.0
1020
0.0
1030
0.0
  0
LINE
  5
8BB
330
11C
100
AcDbEntity
  8
1
  6
Continuous
 62
     4
100
AcDbLine
 10
1036.573271252029
 20
453.2101767731273
 30
0.0
 11
1060.833584971706
 21
477.470490492805
 31
0.0
1001
ACAD
1010
0.0
1020
0.0
1030
0.0
  0
LINE
  5
8BC
330
11C
100
AcDbEntity
  8
1
  6
Continuous
 62
     4
100
AcDbLine
 10
1039.515301968672
 20
445.5456057719722
 30
0.0
 11
1063.916737247974
 21
469.9470410512738
 31
0.0
1001
ACAD
1010
0.0
1020
0.0
1030
0.0
  0
LINE
  5
8BD
330
11C
100
AcDbEntity
  8
1
  6
Continuous
 62
     4
100
AcDbLine
 10
1042.368457729174
 20
437.7921598146768
 30
0.0
 11
1066.918019290076
 21
462.3417213755771
 31
0.0
1001
ACAD
1010
0.0
1020
0.0
1030
0.0
  0
LINE
  5
8BE
330
11C
100
AcDbEntity
  8
1
  6
Continuous
 62
     4
100
AcDbLine
 10
1045.131003913839
 20
429.9481042815424
 30
0.0
 11
1069.836022216865
 21
454.6531225845683
 31
0.0
1001
ACAD
1010
0.0
1020
0.0
1030
0.0
  0
LINE
  5
8BF
330
11C
100
AcDbEntity
  8
1
  6
Continuous
 62
     4
100
AcDbLine
 10
1047.801093734592
 20
422.0115923844987
 30
0.0
 11
1072.669251860155
 21
446.8797505100623
 31
0.0
1001
ACAD
1010
0.0
1020
0.0
1030
0.0
  0
LINE
  5
8C0
330
11C
100
AcDbEntity
  8
1
  6
Continuous
 62
     4
100
AcDbLine
 10
1050.376759840492
 20
413.9806567726006
 30
0.0
 11
1075.416123028182
 21
439.0200199602904
 31
0.0
1001
ACAD
1010
0.0
1020
0.0
1030
0.0
  0
LINE
  5
8C1
330
11C
100
AcDbEntity
  8
1
  6
Continuous
 62
     4
100
AcDbLine
 10
1052.855905016359
 20
405.8532002306681
 30
0.0
 11
1078.07495320217
 21
431.0722484164786
 31
0.0
1001
ACAD
1010
0.0
1020
0.0
1030
0.0
  0
LINE
  5
8C2
330
11C
100
AcDbEntity
  8
1
  6
Continuous
 62
     4
100
AcDbLine
 10
1055.236291855131
 20
397.6269853516423
 30
0.0
 11
1080.643955598554
 21
423.0346490950648
 31
0.0
1001
ACAD
1010
0.0
1020
0.0
1030
0.0
  0
LINE
  5
8C3
330
11C
100
AcDbEntity
  8
1
  6
Continuous
 62
     4
100
AcDbLine
 10
1057.515531265235
 20
389.2996230439478
 30
0.0
 11
1083.121231519468
 21
414.9053232981815
 31
0.0
1001
ACAD
1010
0.0
1020
0.0
1030
0.0
  0
LINE
  5
8C4
330
11C
100
AcDbEntity
  8
1
  6
Continuous
 62
     4
100
AcDbLine
 10
1059.691069651236
 20
380.8685597121503
 30
0.0
 11
1085.504761902533
 21
406.6822519634476
 31
0.0
1001
ACAD
1010
0.0
1020
0.0
1030
0.0
  0
LINE
  5
8C5
330
11C
100
AcDbEntity
  8
1
  6
Continuous
 62
     4
100
AcDbLine
 10
1061.760174578606
 20
372.3310629217222
 30
0.0
 11
1087.792397967373
 21
398.3632863104888
 31
0.0
1001
ACAD
1010
0.0
1020
0.0
1030
0.0
  0
LINE
  5
8C6
330
11C
100
AcDbEntity
  8
1
  6
Continuous
 62
     4
100
AcDbLine
 10
1063.719918700382
 20
363.6842053257012
 30
0.0
 11
1089.981850840199
 21
389.9461374655181
 31
0.0
1001
ACAD
1010
0.0
1020
0.0
1030
0.0
  0
LINE
  5
8C7
330
11C
100
AcDbEntity
  8
1
  6
Continuous
 62
     4
100
AcDbLine
 10
1065.567161683661
 20
354.924846591181
 30
0.0
 11
1092.070680018721
 21
381.4283649262408
 31
0.0
1001
ACAD
1010
0.0
1020
0.0
1030
0.0
  0
LINE
  5
8C8
330
11C
100
AcDbEntity
  8
1
  6
Continuous
 62
     4
100
AcDbLine
 10
1067.298529825518
 20
346.0496130152391
 30
0.0
 11
1094.05628051695
 21
372.8073637066713
 31
0.0
1001
ACAD
1010
0.0
1020
0.0
1030
0.0
  0
LINE
  5
8C9
330
11C
100
AcDbEntity
  8
1
  6
Continuous
 62
     4
100
AcDbLine
 10
1068.910392989065
 20
337.0548744609881
 30
0.0
 11
1095.9358685024
 21
364.0803499743232
 31
0.0
1001
ACAD
1010
0.0
1020
0.0
1030
0.0
  0
LINE
  5
8CA
330
11C
100
AcDbEntity
  8
1
  6
Continuous
 62
     4
100
AcDbLine
 10
1070.398838418091
 20
327.9367181722166
 30
0.0
 11
1097.706465205595
 21
355.24434495972
 31
0.0
1001
ACAD
1010
0.0
1020
0.0
1030
0.0
  0
LINE
  5
8CB
330
11C
100
AcDbEntity
  8
1
  6
Continuous
 62
     4
100
AcDbLine
 10
1071.759640899726
 20
318.6909189360545
 30
0.0
 11
1099.364878842606
 21
346.2961568789327
 31
0.0
1001
ACAD
1010
0.0
1020
0.0
1030
0.0
  0
LINE
  5
8CC
330
11C
100
AcDbEntity
  8
1
  6
Continuous
 62
     4
100
AcDbLine
 10
1072.988228634125
 20
309.3129049526539
 30
0.0
 11
1100.907684243795
 21
337.2323605623236
 31
0.0
1001
ACAD
1010
0.0
1020
0.0
1030
0.0
  0
LINE
  5
8CD
330
11C
100
AcDbEntity
  8
1
  6
Continuous
 62
     4
100
AcDbLine
 10
1074.079644032307
 20
299.7977186330377
 30
0.0
 11
1102.331199824075
 21
328.0492744248066
 31
0.0
1001
ACAD
1010
0.0
1020
0.0
1030
0.0
  0
LINE
  5
8CE
330
11C
100
AcDbEntity
  8
1
  6
Continuous
 62
     4
100
AcDbLine
 10
1075.028498490032
 20
290.1399713729653
 30
0.0
 11
1103.631461459124
 21
318.7429343420561
 31
0.0
1001
ACAD
1010
0.0
1020
0.0
1030
0.0
  0
LINE
  5
8CF
330
11C
100
AcDbEntity
  8
1
  6
Continuous
 62
     4
100
AcDbLine
 10
1075.828919966159
 20
280.3337911312929
 30
0.0
 11
1104.804192744718
 21
309.3090639098531
 31
0.0
1001
ACAD
1010
0.0
1020
0.0
1030
0.0
  0
LINE
  5
8D0
330
11C
100
AcDbEntity
  8
1
  6
Continuous
 62
     4
100
AcDbLine
 10
1076.474491914021
 20
270.3727613613574
 30
0.0
 11
1105.844771008319
 21
299.7430404556551
 31
0.0
1001
ACAD
1010
0.0
1020
0.0
1030
0.0
  0
LINE
  5
8D1
330
11C
100
AcDbEntity
  8
1
  6
Continuous
 62
     4
100
AcDbLine
 10
1076.958181754209
 20
260.249849483748
 30
0.0
 11
1106.748188307193
 21
290.039856036731
 31
0.0
1001
ACAD
1010
0.0
1020
0.0
1030
0.0
  0
LINE
  5
8D2
330
11C
100
AcDbEntity
  8
1
  6
Continuous
 62
     4
100
AcDbLine
 10
1077.272256609576
 20
249.9573226213172
 30
0.0
 11
1107.509006478333
 21
280.1940724900743
 31
0.0
1001
ACAD
1010
0.0
1020
0.0
1030
0.0
  0
LINE
  5
8D3
330
11C
100
AcDbEntity
  8
1
  6
Continuous
 62
     4
100
AcDbLine
 10
1077.408183410664
 20
239.4866477046051
 30
0.0
 11
1108.121305091554
 21
270.1997693854951
 31
0.0
1001
ACAD
1010
0.0
1020
0.0
1030
0.0
  0
LINE
  5
8D4
330
11C
100
AcDbEntity
  8
1
  6
Continuous
 62
     4
100
AcDbLine
 10
1085.528864303271
 20
237.0007268794139
 30
0.0
 11
1108.57862088479
 21
260.0504834609354
 31
0.0
1001
ACAD
1010
0.0
1020
0.0
1030
0.0
  0
LINE
  5
8D5
330
11C
100
AcDbEntity
  8
1
  6
Continuous
 62
     4
100
AcDbLine
 10
1102.337271892576
 20
243.2025327509208
 30
0.0
 11
1108.873876910908
 21
249.739137769255
 31
0.0
1001
ACAD
1010
0.0
1020
0.0
1030
0.0
  0
LINE
  5
D70
330
11C
100
AcDbEntity
  8
1
  6
Continuous
 62
     3
100
AcDbLine
 10
1193.513133126482
 20
939.7884846426372
 30
0.0
 11
1193.513133126481
 21
770.6187893794147
 31
0.0
  0
LINE
  5
D71
330
11C
100
AcDbEntity
  8
1
  6
Continuous
 62
     7
100
AcDbLine
 10
484.7962216632866
 20
534.7698893794142
 30
0.0
 11
484.7962216632866
 21
829.3373951178942
 31
0.0
  0
LINE
  5
D72
330
11C
100
AcDbEntity
  8
1
  6
Continuous
 62
     7
100
AcDbLine
 10
484.7962216632866
 20
829.606687447043
 30
0.0
 11
484.7962216632866
 21
848.6542043794141
 31
0.0
  0
LINE
  5
D73
330
11C
100
AcDbEntity
  8
1
  6
Continuous
 62
     7
100
AcDbLine
 10
1094.581636663286
 20
237.0007268794139
 30
0.0
 11
780.3735241632823
 21
237.0007268794139
 31
0.0
  0
LINE
  5
D74
330
11C
100
AcDbEntity
  8
1
  6
Continuous
 62
     3
100
AcDbLine
 10
508.4636040641733
 20
930.7884846426372
 30
0.0
 11
1169.800633126482
 21
930.7884846426372
 31
0.0
  0
LINE
  5
D75
330
11C
100
AcDbEntity
  8
1
  6
Continuous
 62
     3
100
AcDbLine
 10
484.7962216632866
 20
857.6542043794141
 30
0.0
 11
484.7511040641732
 21
939.7884846426379
 31
0.0
  0
LINE
  5
D76
330
11C
100
AcDbEntity
  8
1
  6
Continuous
 62
     7
100
AcDbLine
 10
1165.146258126479
 20
789.9856643794145
 30
0.0
 11
953.7330750598128
 21
842.1677718675601
 31
0.0
  0
LINE
  5
D77
330
11C
100
AcDbEntity
  8
1
  6
Continuous
 62
     7
100
AcDbLine
 10
1193.513133126481
 20
617.6319143794142
 30
0.0
 11
1193.513133126481
 21
761.6187893794148
 31
0.0
  0
LINE
  5
D78
330
11C
100
AcDbEntity
  8
1
  6
Continuous
 62
     7
100
AcDbLine
 10
1001.632506168204
 20
599.5189593530946
 30
0.0
 11
996.9155298380176
 21
606.1654291077712
 31
0.0
  0
LINE
  5
D79
330
11C
100
AcDbEntity
  8
1
  6
Continuous
 62
     7
100
AcDbLine
 10
1165.146258126479
 20
589.2650393794132
 30
0.0
 11
1193.513133126481
 21
617.6319143794142
 31
0.0
  0
LINE
  5
D7A
330
11C
100
AcDbEntity
  8
1
  6
Continuous
 62
     7
100
AcDbLine
 10
1081.49313312648
 20
634.8826643794142
 30
0.0
 11
1039.909445673968
 21
634.8826643794142
 31
0.0
  0
LINE
  5
D7B
330
11C
100
AcDbEntity
  8
1
  6
Continuous
 62
     7
100
AcDbLine
 10
1193.513133126481
 20
761.6187893794148
 30
0.0
 11
1165.146258126479
 21
789.9856643794145
 31
0.0
  0
LINE
  5
D7C
330
11C
100
AcDbEntity
  8
1
  6
Continuous
 62
     7
100
AcDbLine
 10
953.7330750598128
 20
842.1677718675601
 30
0.0
 11
861.6320832224825
 21
801.3641784515579
 31
0.0
  0
LINE
  5
D7D
330
11C
100
AcDbEntity
  8
1
  6
Continuous
 62
     7
100
AcDbLine
 10
996.9155298380176
 20
606.1654291077712
 30
0.0
 11
1039.909445673968
 21
634.8826643794142
 31
0.0
  0
LINE
  5
D7E
330
11C
100
AcDbEntity
  8
1
  6
Continuous
 62
     7
100
AcDbLine
 10
861.6320832224825
 20
801.3641784515579
 30
0.0
 11
847.4535251724885
 21
753.7854015904079
 31
0.0
  0
LINE
  5
D7F
330
11C
100
AcDbEntity
  8
1
  6
Continuous
 62
     7
100
AcDbLine
 10
857.6572393096578
 20
746.9971643794147
 30
0.0
 11
847.5142063575587
 21
753.9890285427376
 31
0.0
  0
LINE
  5
D80
330
11C
100
AcDbEntity
  8
1
  6
Continuous
 62
     7
100
AcDbLine
 10
1087.18863312648
 20
746.9971643794147
 30
0.0
 11
857.6572393096578
 21
746.9971643794147
 31
0.0
  0
LINE
  5
D81
330
11C
100
AcDbEntity
  8
1
  6
Continuous
 62
     7
100
AcDbLine
 10
1001.632506168204
 20
599.5189593530946
 30
0.0
 11
1085.473008126482
 21
565.1724143794141
 31
0.0
  0
LINE
  5
D82
330
11C
100
AcDbEntity
  8
1
  6
Continuous
 62
     7
100
AcDbLine
 10
1165.146258126479
 20
589.2650393794132
 30
0.0
 11
1085.473008126482
 21
565.1724143794141
 31
0.0
  0
LINE
  5
D83
330
11C
100
AcDbEntity
  8
1
  6
Continuous
 62
     7
100
AcDbLine
 10
1165.508133126481
 20
746.9026643794141
 30
0.0
 11
1159.907133126481
 21
634.8826643794142
 31
0.0
  0
LINE
  5
D84
330
11C
100
AcDbEntity
  8
1
  6
Continuous
 62
     7
100
AcDbLine
 10
1159.907133126481
 20
634.8826643794142
 30
0.0
 11
1165.508133126481
 21
629.2816643794139
 31
0.0
  0
LINE
  5
D85
330
11C
100
AcDbEntity
  8
1
  6
Continuous
 62
     7
100
AcDbLine
 10
1159.907133126481
 20
752.503664379414
 30
0.0
 11
1165.508133126481
 21
746.9026643794141
 31
0.0
  0
LINE
  5
D86
330
11C
100
AcDbEntity
  8
1
  6
Continuous
 62
     7
100
AcDbLine
 10
1187.912133126481
 20
746.9026643794141
 30
0.0
 11
1182.311133126481
 21
634.8826643794142
 31
0.0
  0
LINE
  5
D87
330
11C
100
AcDbEntity
  8
1
  6
Continuous
 62
     7
100
AcDbLine
 10
1171.109133126481
 20
634.8826643794142
 30
0.0
 11
1176.710133126481
 21
746.9026643794141
 31
0.0
  0
LINE
  5
D88
330
11C
100
AcDbEntity
  8
1
  6
Continuous
 62
     7
100
AcDbLine
 10
1187.912133126481
 20
629.2816643794139
 30
0.0
 11
1193.513133126481
 21
634.8826643794142
 31
0.0
  0
LINE
  5
D89
330
11C
100
AcDbEntity
  8
1
  6
Continuous
 62
     7
100
AcDbLine
 10
1182.311133126481
 20
634.8826643794142
 30
0.0
 11
1187.912133126481
 21
629.2816643794139
 31
0.0
  0
LINE
  5
D8A
330
11C
100
AcDbEntity
  8
1
  6
Continuous
 62
     7
100
AcDbLine
 10
1176.710133126481
 20
629.2816643794139
 30
0.0
 11
1182.311133126481
 21
634.8826643794142
 31
0.0
  0
LINE
  5
D8B
330
11C
100
AcDbEntity
  8
1
  6
Continuous
 62
     7
100
AcDbLine
 10
1171.109133126481
 20
634.8826643794142
 30
0.0
 11
1176.710133126481
 21
629.2816643794139
 31
0.0
  0
LINE
  5
D8C
330
11C
100
AcDbEntity
  8
1
  6
Continuous
 62
     7
100
AcDbLine
 10
1165.508133126481
 20
629.2816643794139
 30
0.0
 11
1171.109133126481
 21
634.8826643794142
 31
0.0
  0
LINE
  5
D8D
330
11C
100
AcDbEntity
  8
1
  6
Continuous
 62
     7
100
AcDbLine
 10
1187.912133126481
 20
746.9026643794141
 30
0.0
 11
1193.513133126481
 21
752.503664379414
 31
0.0
  0
LINE
  5
D8E
330
11C
100
AcDbEntity
  8
1
  6
Continuous
 62
     7
100
AcDbLine
 10
1176.710133126481
 20
746.9026643794141
 30
0.0
 11
1182.311133126481
 21
752.503664379414
 31
0.0
  0
LINE
  5
D8F
330
11C
100
AcDbEntity
  8
1
  6
Continuous
 62
     7
100
AcDbLine
 10
1182.311133126481
 20
752.503664379414
 30
0.0
 11
1187.912133126481
 21
746.9026643794141
 31
0.0
  0
LINE
  5
D90
330
11C
100
AcDbEntity
  8
1
  6
Continuous
 62
     7
100
AcDbLine
 10
1165.508133126481
 20
746.9026643794141
 30
0.0
 11
1171.109133126481
 21
752.503664379414
 31
0.0
  0
LINE
  5
D91
330
11C
100
AcDbEntity
  8
1
  6
Continuous
 62
     7
100
AcDbLine
 10
1171.109133126481
 20
752.503664379414
 30
0.0
 11
1176.710133126481
 21
746.9026643794141
 31
0.0
  0
LINE
  5
D92
330
11C
100
AcDbEntity
  8
1
  6
Continuous
 62
     7
100
AcDbLine
 10
1148.705133126481
 20
634.8826643794142
 30
0.0
 11
1154.306133126481
 21
746.9026643794141
 31
0.0
  0
LINE
  5
D93
330
11C
100
AcDbEntity
  8
1
  6
Continuous
 62
     7
100
AcDbLine
 10
1143.104133126481
 20
746.9026643794141
 30
0.0
 11
1137.503133126481
 21
634.8826643794142
 31
0.0
  0
LINE
  5
D94
330
11C
100
AcDbEntity
  8
1
  6
Continuous
 62
     7
100
AcDbLine
 10
1126.301133126481
 20
634.8826643794142
 30
0.0
 11
1131.902133126481
 21
746.9026643794141
 31
0.0
  0
LINE
  5
D95
330
11C
100
AcDbEntity
  8
1
  6
Continuous
 62
     7
100
AcDbLine
 10
1120.70013312648
 20
746.9026643794141
 30
0.0
 11
1115.099133126481
 21
634.8826643794142
 31
0.0
  0
LINE
  5
D96
330
11C
100
AcDbEntity
  8
1
  6
Continuous
 62
     7
100
AcDbLine
 10
1103.897133126481
 20
634.8826643794142
 30
0.0
 11
1109.498133126481
 21
746.9026643794141
 31
0.0
  0
LINE
  5
D97
330
11C
100
AcDbEntity
  8
1
  6
Continuous
 62
     7
100
AcDbLine
 10
1109.498133126481
 20
629.2816643794139
 30
0.0
 11
1115.099133126481
 21
634.8826643794142
 31
0.0
  0
LINE
  5
D98
330
11C
100
AcDbEntity
  8
1
  6
Continuous
 62
     7
100
AcDbLine
 10
1154.306133126481
 20
629.2816643794139
 30
0.0
 11
1159.907133126481
 21
634.8826643794142
 31
0.0
  0
LINE
  5
D99
330
11C
100
AcDbEntity
  8
1
  6
Continuous
 62
     7
100
AcDbLine
 10
1148.705133126481
 20
634.8826643794142
 30
0.0
 11
1154.306133126481
 21
629.2816643794139
 31
0.0
  0
LINE
  5
D9A
330
11C
100
AcDbEntity
  8
1
  6
Continuous
 62
     7
100
AcDbLine
 10
1143.104133126481
 20
629.2816643794139
 30
0.0
 11
1148.705133126481
 21
634.8826643794142
 31
0.0
  0
LINE
  5
D9B
330
11C
100
AcDbEntity
  8
1
  6
Continuous
 62
     7
100
AcDbLine
 10
1137.503133126481
 20
634.8826643794142
 30
0.0
 11
1143.104133126481
 21
629.2816643794139
 31
0.0
  0
LINE
  5
D9C
330
11C
100
AcDbEntity
  8
1
  6
Continuous
 62
     7
100
AcDbLine
 10
1131.902133126481
 20
629.2816643794139
 30
0.0
 11
1137.503133126481
 21
634.8826643794142
 31
0.0
  0
LINE
  5
D9D
330
11C
100
AcDbEntity
  8
1
  6
Continuous
 62
     7
100
AcDbLine
 10
1126.301133126481
 20
634.8826643794142
 30
0.0
 11
1131.902133126481
 21
629.2816643794139
 31
0.0
  0
LINE
  5
D9E
330
11C
100
AcDbEntity
  8
1
  6
Continuous
 62
     7
100
AcDbLine
 10
1120.70013312648
 20
629.2816643794139
 30
0.0
 11
1126.301133126481
 21
634.8826643794142
 31
0.0
  0
LINE
  5
D9F
330
11C
100
AcDbEntity
  8
1
  6
Continuous
 62
     7
100
AcDbLine
 10
1115.099133126481
 20
634.8826643794142
 30
0.0
 11
1120.70013312648
 21
629.2816643794139
 31
0.0
  0
LINE
  5
DA0
330
11C
100
AcDbEntity
  8
1
  6
Continuous
 62
     7
100
AcDbLine
 10
1103.897133126481
 20
634.8826643794142
 30
0.0
 11
1109.498133126481
 21
629.2816643794139
 31
0.0
  0
LINE
  5
DA1
330
11C
100
AcDbEntity
  8
1
  6
Continuous
 62
     7
100
AcDbLine
 10
1109.498133126481
 20
746.9026643794141
 30
0.0
 11
1115.099133126481
 21
752.503664379414
 31
0.0
  0
LINE
  5
DA2
330
11C
100
AcDbEntity
  8
1
  6
Continuous
 62
     7
100
AcDbLine
 10
1137.503133126481
 20
752.503664379414
 30
0.0
 11
1143.104133126481
 21
746.9026643794141
 31
0.0
  0
LINE
  5
DA3
330
11C
100
AcDbEntity
  8
1
  6
Continuous
 62
     7
100
AcDbLine
 10
1148.705133126481
 20
752.503664379414
 30
0.0
 11
1154.306133126481
 21
746.9026643794141
 31
0.0
  0
LINE
  5
DA4
330
11C
100
AcDbEntity
  8
1
  6
Continuous
 62
     7
100
AcDbLine
 10
1154.306133126481
 20
746.9026643794141
 30
0.0
 11
1159.907133126481
 21
752.503664379414
 31
0.0
  0
LINE
  5
DA5
330
11C
100
AcDbEntity
  8
1
  6
Continuous
 62
     7
100
AcDbLine
 10
1143.104133126481
 20
746.9026643794141
 30
0.0
 11
1148.705133126481
 21
752.503664379414
 31
0.0
  0
LINE
  5
DA6
330
11C
100
AcDbEntity
  8
1
  6
Continuous
 62
     7
100
AcDbLine
 10
1120.70013312648
 20
746.9026643794141
 30
0.0
 11
1126.301133126481
 21
752.503664379414
 31
0.0
  0
LINE
  5
DA7
330
11C
100
AcDbEntity
  8
1
  6
Continuous
 62
     7
100
AcDbLine
 10
1126.301133126481
 20
752.503664379414
 30
0.0
 11
1131.902133126481
 21
746.9026643794141
 31
0.0
  0
LINE
  5
DA8
330
11C
100
AcDbEntity
  8
1
  6
Continuous
 62
     7
100
AcDbLine
 10
1131.902133126481
 20
746.9026643794141
 30
0.0
 11
1137.503133126481
 21
752.503664379414
 31
0.0
  0
LINE
  5
DA9
330
11C
100
AcDbEntity
  8
1
  6
Continuous
 62
     7
100
AcDbLine
 10
1115.099133126481
 20
752.503664379414
 30
0.0
 11
1120.70013312648
 21
746.9026643794141
 31
0.0
  0
LINE
  5
DAA
330
11C
100
AcDbEntity
  8
1
  6
Continuous
 62
     7
100
AcDbLine
 10
1098.29613312648
 20
746.9026643794141
 30
0.0
 11
1092.69513312648
 21
634.8826643794142
 31
0.0
  0
LINE
  5
DAB
330
11C
100
AcDbEntity
  8
1
  6
Continuous
 62
     7
100
AcDbLine
 10
1081.49313312648
 20
634.8826643794142
 30
0.0
 11
1087.09413312648
 21
746.9026643794141
 31
0.0
  0
LINE
  5
DAC
330
11C
100
AcDbEntity
  8
1
  6
Continuous
 62
     7
100
AcDbLine
 10
1103.89713312648
 20
634.8826643794142
 30
0.0
 11
1109.498133126481
 21
746.9026643794141
 31
0.0
  0
LINE
  5
DAD
330
11C
100
AcDbEntity
  8
1
  6
Continuous
 62
     7
100
AcDbLine
 10
1087.09413312648
 20
629.2816643794139
 30
0.0
 11
1092.69513312648
 21
634.8826643794142
 31
0.0
  0
LINE
  5
DAE
330
11C
100
AcDbEntity
  8
1
  6
Continuous
 62
     7
100
AcDbLine
 10
1081.49313312648
 20
634.8826643794142
 30
0.0
 11
1087.09413312648
 21
629.2816643794139
 31
0.0
  0
LINE
  5
DAF
330
11C
100
AcDbEntity
  8
1
  6
Continuous
 62
     7
100
AcDbLine
 10
1098.29613312648
 20
629.2816643794139
 30
0.0
 11
1103.89713312648
 21
634.8826643794142
 31
0.0
  0
LINE
  5
DB0
330
11C
100
AcDbEntity
  8
1
  6
Continuous
 62
     7
100
AcDbLine
 10
1092.69513312648
 20
634.8826643794142
 30
0.0
 11
1098.29613312648
 21
629.2816643794139
 31
0.0
  0
LINE
  5
DB1
330
11C
100
AcDbEntity
  8
1
  6
Continuous
 62
     7
100
AcDbLine
 10
1103.89713312648
 20
634.8826643794142
 30
0.0
 11
1109.498133126481
 21
629.2816643794139
 31
0.0
  0
LINE
  5
DB2
330
11C
100
AcDbEntity
  8
1
  6
Continuous
 62
     7
100
AcDbLine
 10
1087.09413312648
 20
746.9026643794141
 30
0.0
 11
1092.69513312648
 21
752.503664379414
 31
0.0
  0
LINE
  5
DB3
330
11C
100
AcDbEntity
  8
1
  6
Continuous
 62
     7
100
AcDbLine
 10
1098.29613312648
 20
746.9026643794141
 30
0.0
 11
1103.89713312648
 21
752.503664379414
 31
0.0
  0
LINE
  5
DB4
330
11C
100
AcDbEntity
  8
1
  6
Continuous
 62
     7
100
AcDbLine
 10
1092.69513312648
 20
752.503664379414
 30
0.0
 11
1098.29613312648
 21
746.9026643794141
 31
0.0
  0
LINE
  5
DB5
330
11C
100
AcDbEntity
  8
1
  6
Continuous
 62
     7
100
AcDbLine
 10
1103.89713312648
 20
752.503664379414
 30
0.0
 11
1109.498133126481
 21
746.9026643794141
 31
0.0
  0
LINE
  5
DB6
330
11C
100
AcDbEntity
  8
1
  6
Continuous
 62
     7
100
AcDbLine
 10
780.3735241632823
 20
237.0007268794139
 30
0.0
 11
767.9840909712082
 21
253.4530916041154
 31
0.0
  0
LINE
  5
DB7
330
11C
100
AcDbEntity
  8
1
  6
Continuous
 62
     7
100
AcDbLine
 10
767.9840909712082
 20
253.4530916041154
 30
0.0
 11
767.9534840383091
 21
255.4011953985289
 31
0.0
  0
LINE
  5
DB8
330
11C
100
AcDbEntity
  8
1
  6
Continuous
 62
     7
100
AcDbLine
 10
767.9534840383091
 20
255.4011953985289
 30
0.0
 11
764.789538118551
 21
283.0630134059473
 31
0.0
  0
LINE
  5
DB9
330
11C
100
AcDbEntity
  8
1
  6
Continuous
 62
     7
100
AcDbLine
 10
764.789538118551
 20
283.0630134059473
 30
0.0
 11
758.9294951657867
 21
310.2815112677038
 31
0.0
  0
LINE
  5
DBA
330
11C
100
AcDbEntity
  8
1
  6
Continuous
 62
     7
100
AcDbLine
 10
758.9294951657867
 20
310.2815112677038
 30
0.0
 11
750.4297905970771
 21
336.7945599702458
 31
0.0
  0
LINE
  5
DBB
330
11C
100
AcDbEntity
  8
1
  6
Continuous
 62
     7
100
AcDbLine
 10
750.4297905970771
 20
336.7945599702458
 30
0.0
 11
739.3722812138305
 21
362.3468243610604
 31
0.0
  0
LINE
  5
DBC
330
11C
100
AcDbEntity
  8
1
  6
Continuous
 62
     7
100
AcDbLine
 10
739.3722812138305
 20
362.3468243610604
 30
0.0
 11
725.863456876056
 21
386.6922221657759
 31
0.0
  0
LINE
  5
DBD
330
11C
100
AcDbEntity
  8
1
  6
Continuous
 62
     7
100
AcDbLine
 10
725.863456876056
 20
386.6922221657759
 30
0.0
 11
710.033414946801
 21
409.5962938949845
 31
0.0
  0
LINE
  5
DBE
330
11C
100
AcDbEntity
  8
1
  6
Continuous
 62
     7
100
AcDbLine
 10
710.033414946801
 20
409.5962938949845
 30
0.0
 11
692.0346073834268
 21
430.8384608172948
 31
0.0
  0
LINE
  5
DBF
330
11C
100
AcDbEntity
  8
1
  6
Continuous
 62
     7
100
AcDbLine
 10
692.0346073834268
 20
430.8384608172948
 30
0.0
 11
672.0403725419163
 21
450.2141492530953
 31
0.0
  0
LINE
  5
DC0
330
11C
100
AcDbEntity
  8
1
  6
Continuous
 62
     7
100
AcDbLine
 10
672.0403725419163
 20
450.2141492530953
 30
0.0
 11
650.2432658337536
 21
467.5367607309206
 31
0.0
  0
LINE
  5
DC1
330
11C
100
AcDbEntity
  8
1
  6
Continuous
 62
     7
100
AcDbLine
 10
650.2432658337536
 20
467.5367607309206
 30
0.0
 11
626.8532053120502
 21
482.6394690327362
 31
0.0
  0
LINE
  5
DC2
330
11C
100
AcDbEntity
  8
1
  6
Continuous
 62
     7
100
AcDbLine
 10
626.8532053120502
 20
482.6394690327362
 30
0.0
 11
602.0954500459372
 21
495.3768268216163
 31
0.0
  0
LINE
  5
DC3
330
11C
100
AcDbEntity
  8
1
  6
Continuous
 62
     7
100
AcDbLine
 10
602.0954500459372
 20
495.3768268216163
 30
0.0
 11
576.2084307525928
 21
505.6261663791048
 31
0.0
  0
LINE
  5
DC4
330
11C
100
AcDbEntity
  8
1
  6
Continuous
 62
     7
100
AcDbLine
 10
576.2084307525928
 20
505.6261663791048
 30
0.0
 11
549.4414535790963
 21
513.2887809624053
 31
0.0
  0
LINE
  5
DC5
330
11C
100
AcDbEntity
  8
1
  6
Continuous
 62
     7
100
AcDbLine
 10
549.4414535790963
 20
513.2887809624053
 30
0.0
 11
522.0522991479461
 21
518.2908754042687
 31
0.0
  0
LINE
  5
DC6
330
11C
100
AcDbEntity
  8
1
  6
Continuous
 62
     7
100
AcDbLine
 10
522.0522991479461
 20
518.2908754042687
 30
0.0
 11
494.4092596310484
 21
520.5756380051377
 31
0.0
  0
LINE
  5
DC7
330
11C
100
AcDbEntity
  8
1
  6
Continuous
 62
     7
100
AcDbLine
 10
494.4092596310484
 20
520.5756380051377
 30
0.0
 11
484.7962216632866
 21
534.7698893794142
 31
0.0
  0
LINE
  5
DC8
330
11C
100
AcDbEntity
  8
1
  6
Continuous
 62
     7
100
AcDbLine
 10
800.1354392531023
 20
237.0007268794139
 30
0.0
 11
800.1388811902559
 21
237.0709739998086
 31
0.0
  0
LINE
  5
DC9
330
11C
100
AcDbEntity
  8
1
  6
Continuous
 62
     7
100
AcDbLine
 10
800.1388811902559
 20
237.0709739998086
 30
0.0
 11
798.6166296691574
 21
267.975777622626
 31
0.0
  0
LINE
  5
DCA
330
11C
100
AcDbEntity
  8
1
  6
Continuous
 62
     7
100
AcDbLine
 10
798.6166296691574
 20
267.975777622626
 30
0.0
 11
794.0725077316517
 21
298.5825594278971
 31
0.0
  0
LINE
  5
DCB
330
11C
100
AcDbEntity
  8
1
  6
Continuous
 62
     7
100
AcDbLine
 10
794.0725077316517
 20
298.5825594278971
 30
0.0
 11
786.5502777560663
 21
328.5965593754681
 31
0.0
  0
LINE
  5
DCC
330
11C
100
AcDbEntity
  8
1
  6
Continuous
 62
     7
100
AcDbLine
 10
786.5502777560663
 20
328.5965593754681
 30
0.0
 11
776.1223829291354
 21
357.7287262385228
 31
0.0
  0
LINE
  5
DCD
330
11C
100
AcDbEntity
  8
1
  6
Continuous
 62
     7
100
AcDbLine
 10
776.1223829291354
 20
357.7287262385228
 30
0.0
 11
762.8892495785096
 21
385.6985013249076
 31
0.0
  0
LINE
  5
DCE
330
11C
100
AcDbEntity
  8
1
  6
Continuous
 62
     7
100
AcDbLine
 10
762.8892495785096
 20
385.6985013249076
 30
0.0
 11
746.9783200123218
 21
412.236520410706
 31
0.0
  0
LINE
  5
DCF
330
11C
100
AcDbEntity
  8
1
  6
Continuous
 62
     7
100
AcDbLine
 10
746.9783200123218
 20
412.236520410706
 30
0.0
 11
728.5428251800937
 21
437.0872078649653
 31
0.0
  0
LINE
  5
DD0
330
11C
100
AcDbEntity
  8
1
  6
Continuous
 62
     7
100
AcDbLine
 10
728.5428251800937
 20
437.0872078649653
 30
0.0
 11
707.7603089749256
 21
460.0112379827331
 31
0.0
  0
LINE
  5
DD1
330
11C
100
AcDbEntity
  8
1
  6
Continuous
 62
     7
100
AcDbLine
 10
707.7603089749256
 20
460.0112379827331
 30
0.0
 11
684.8309183887529
 21
480.7878398224255
 31
0.0
  0
LINE
  5
DD2
330
11C
100
AcDbEntity
  8
1
  6
Continuous
 62
     7
100
AcDbLine
 10
684.8309183887529
 20
480.7878398224255
 30
0.0
 11
659.9754759873997
 21
499.2169233506809
 31
0.0
  0
LINE
  5
DD3
330
11C
100
AcDbEntity
  8
1
  6
Continuous
 62
     7
100
AcDbLine
 10
659.9754759873997
 20
499.2169233506809
 30
0.0
 11
633.4333532685582
 21
515.1210064187603
 31
0.0
  0
LINE
  5
DD4
330
11C
100
AcDbEntity
  8
1
  6
Continuous
 62
     7
100
AcDbLine
 10
633.4333532685582
 20
515.1210064187603
 30
0.0
 11
605.4601653834116
 21
528.3469240126613
 31
0.0
  0
LINE
  5
DD5
330
11C
100
AcDbEntity
  8
1
  6
Continuous
 62
     7
100
AcDbLine
 10
605.4601653834116
 20
528.3469240126613
 30
0.0
 11
576.3253094229932
 21
538.7673033159333
 31
0.0
  0
LINE
  5
DD6
330
11C
100
AcDbEntity
  8
1
  6
Continuous
 62
     7
100
AcDbLine
 10
576.3253094229932
 20
538.7673033159333
 30
0.0
 11
546.309369976934
 21
546.2817903795269
 31
0.0
  0
LINE
  5
DD7
330
11C
100
AcDbEntity
  8
1
  6
Continuous
 62
     7
100
AcDbLine
 10
546.309369976934
 20
546.2817903795269
 30
0.0
 11
515.7014169504816
 21
550.8180165851829
 31
0.0
  0
LINE
  5
DD8
330
11C
100
AcDbEntity
  8
1
  6
Continuous
 62
     7
100
AcDbLine
 10
515.7014169504816
 20
550.8180165851829
 30
0.0
 11
484.7962216632866
 21
552.3322955947876
 31
0.0
  0
LINE
  5
DD9
330
11C
100
AcDbEntity
  8
1
  6
Continuous
 62
     7
100
AcDbLine
 10
484.7962216632866
 20
848.6542043794141
 30
0.0
 11
495.397071107153
 21
861.1008487852716
 31
0.0
  0
LINE
  5
DDA
330
11C
100
AcDbEntity
  8
1
  6
Continuous
 62
     7
100
AcDbLine
 10
495.397071107153
 20
861.1008487852716
 30
0.0
 11
556.3848615425056
 21
857.0823694083751
 31
0.0
  0
LINE
  5
DDB
330
11C
100
AcDbEntity
  8
1
  6
Continuous
 62
     7
100
AcDbLine
 10
556.3848615425056
 20
857.0823694083751
 30
0.0
 11
616.8160687119438
 21
847.0837217356463
 31
0.0
  0
LINE
  5
DDC
330
11C
100
AcDbEntity
  8
1
  6
Continuous
 62
     7
100
AcDbLine
 10
616.8160687119438
 20
847.0837217356463
 30
0.0
 11
675.9762442492877
 21
831.2099261709587
 31
0.0
  0
LINE
  5
DDD
330
11C
100
AcDbEntity
  8
1
  6
Continuous
 62
     7
100
AcDbLine
 10
675.9762442492877
 20
831.2099261709587
 30
0.0
 11
733.2956433238726
 21
809.6138560430992
 31
0.0
  0
LINE
  5
DDE
330
11C
100
AcDbEntity
  8
1
  6
Continuous
 62
     7
100
AcDbLine
 10
733.2956433238726
 20
809.6138560430992
 30
0.0
 11
788.2222487886381
 21
782.5034933130124
 31
0.0
  0
LINE
  5
DDF
330
11C
100
AcDbEntity
  8
1
  6
Continuous
 62
     7
100
AcDbLine
 10
788.2222487886381
 20
782.5034933130124
 30
0.0
 11
840.227087407022
 21
750.1399255938205
 31
0.0
  0
LINE
  5
DE0
330
11C
100
AcDbEntity
  8
1
  6
Continuous
 62
     7
100
AcDbLine
 10
840.227087407022
 20
750.1399255938205
 30
0.0
 11
844.3198895839589
 21
746.9971643794145
 31
0.0
  0
LINE
  5
DE1
330
11C
100
AcDbEntity
  8
1
  6
Continuous
 62
     7
100
AcDbLine
 10
844.3198895839589
 20
746.9971643794145
 30
0.0
 11
784.7382821089992
 21
746.9971643794145
 31
0.0
  0
LINE
  5
DE2
330
11C
100
AcDbEntity
  8
1
  6
Continuous
 62
     7
100
AcDbLine
 10
784.7382821089992
 20
746.9971643794145
 30
0.0
 11
764.0126532679138
 21
759.4176940211192
 31
0.0
  0
LINE
  5
DE3
330
11C
100
AcDbEntity
  8
1
  6
Continuous
 62
     7
100
AcDbLine
 10
764.0126532679138
 20
759.4176940211192
 30
0.0
 11
711.4654276515493
 21
784.2662658633106
 31
0.0
  0
LINE
  5
DE4
330
11C
100
AcDbEntity
  8
1
  6
Continuous
 62
     7
100
AcDbLine
 10
711.4654276515493
 20
784.2662658633106
 30
0.0
 11
656.7356453359009
 21
803.8446562531083
 31
0.0
  0
LINE
  5
DE5
330
11C
100
AcDbEntity
  8
1
  6
Continuous
 62
     7
100
AcDbLine
 10
656.7356453359009
 20
803.8446562531083
 30
0.0
 11
600.3503840430091
 21
817.9643145884213
 31
0.0
  0
LINE
  5
DE6
330
11C
100
AcDbEntity
  8
1
  6
Continuous
 62
     7
100
AcDbLine
 10
600.3503840430091
 20
817.9643145884213
 30
0.0
 11
542.8526646624447
 21
826.4892608408901
 31
0.0
  0
LINE
  5
DE7
330
11C
100
AcDbEntity
  8
1
  6
Continuous
 62
     7
100
AcDbLine
 10
542.8526646624447
 20
826.4892608408901
 30
0.0
 11
484.7962216632866
 21
829.3373951178942
 31
0.0
  0
LINE
  5
DE8
330
11C
100
AcDbEntity
  8
1
  6
Continuous
 62
     7
100
AcDbLine
 10
1094.581636663286
 20
237.0007268794139
 30
0.0
 11
1108.225941702738
 21
247.9114167977233
 31
0.0
  0
LINE
  5
DE9
330
11C
100
AcDbEntity
  8
1
  6
Continuous
 62
     7
100
AcDbLine
 10
1108.225941702738
 20
247.9114167977233
 30
0.0
 11
1106.933145136549
 21
287.8232652250077
 31
0.0
  0
LINE
  5
DEA
330
11C
100
AcDbEntity
  8
1
  6
Continuous
 62
     7
100
AcDbLine
 10
1106.933145136549
 20
287.8232652250077
 30
0.0
 11
1098.95900092808
 21
348.5547791150914
 31
0.0
  0
LINE
  5
DEB
330
11C
100
AcDbEntity
  8
1
  6
Continuous
 62
     7
100
AcDbLine
 10
1098.95900092808
 20
348.5547791150914
 30
0.0
 11
1085.070525084139
 21
408.2122513542936
 31
0.0
  0
LINE
  5
DEC
330
11C
100
AcDbEntity
  8
1
  6
Continuous
 62
     7
100
AcDbLine
 10
1085.070525084139
 20
408.2122513542936
 30
0.0
 11
1065.401471219317
 21
466.2211478728588
 31
0.0
  0
LINE
  5
DED
330
11C
100
AcDbEntity
  8
1
  6
Continuous
 62
     7
100
AcDbLine
 10
1065.401471219317
 20
466.2211478728588
 30
0.0
 11
1040.141263074529
 21
522.0228112864248
 31
0.0
  0
LINE
  5
DEE
330
11C
100
AcDbEntity
  8
1
  6
Continuous
 62
     7
100
AcDbLine
 10
1040.141263074529
 20
522.0228112864248
 30
0.0
 11
1009.533170262846
 21
575.0798410720268
 31
0.0
  0
LINE
  5
DEF
330
11C
100
AcDbEntity
  8
1
  6
Continuous
 62
     7
100
AcDbLine
 10
1009.533170262846
 20
575.0798410720268
 30
0.0
 11
990.8225739684274
 21
601.2094802213606
 31
0.0
  0
LINE
  5
DF0
330
11C
100
AcDbEntity
  8
1
  6
Continuous
 62
     7
100
AcDbLine
 10
990.8225739684274
 20
601.2094802213606
 30
0.0
 11
968.1204008329952
 21
578.5073070859282
 31
0.0
  0
LINE
  5
DF1
330
11C
100
AcDbEntity
  8
1
  6
Continuous
 62
     7
100
AcDbLine
 10
968.1204008329952
 20
578.5073070859282
 30
0.0
 11
977.2996427186283
 21
566.1323081003752
 31
0.0
  0
LINE
  5
DF2
330
11C
100
AcDbEntity
  8
1
  6
Continuous
 62
     7
100
AcDbLine
 10
977.2996427186283
 20
566.1323081003752
 30
0.0
 11
1007.185937180871
 21
516.2778013242593
 31
0.0
  0
LINE
  5
DF3
330
11C
100
AcDbEntity
  8
1
  6
Continuous
 62
     7
100
AcDbLine
 10
1007.185937180871
 20
516.2778013242593
 30
0.0
 11
1032.041724779786
 21
463.7339885066571
 31
0.0
  0
LINE
  5
DF4
330
11C
100
AcDbEntity
  8
1
  6
Continuous
 62
     7
100
AcDbLine
 10
1032.041724779786
 20
463.7339885066571
 30
0.0
 11
1051.627630693242
 21
409.0068952883719
 31
0.0
  0
LINE
  5
DF5
330
11C
100
AcDbEntity
  8
1
  6
Continuous
 62
     7
100
AcDbLine
 10
1051.627630693242
 20
409.0068952883719
 30
0.0
 11
1065.755031940547
 21
352.6235734939682
 31
0.0
  0
LINE
  5
DF6
330
11C
100
AcDbEntity
  8
1
  6
Continuous
 62
     7
100
AcDbLine
 10
1065.755031940547
 20
352.6235734939682
 30
0.0
 11
1074.287873924864
 21
295.1270253345848
 31
0.0
  0
LINE
  5
DF7
330
11C
100
AcDbEntity
  8
1
  6
Continuous
 62
     7
100
AcDbLine
 10
1074.287873924864
 20
295.1270253345848
 30
0.0
 11
1077.143980713362
 21
237.0709739998074
 31
0.0
  0
LINE
  5
DF8
330
11C
100
AcDbEntity
  8
1
  6
Continuous
 62
     7
100
AcDbLine
 10
1077.143980713362
 20
237.0709739998074
 30
0.0
 11
1077.14053452856
 21
237.0007268794139
 31
0.0
  0
LINE
  5
DF9
330
11C
100
AcDbEntity
  8
1
  6
Continuous
 62
     3
100
AcDbLine
 10
508.4636040641733
 20
937.3447346426379
 30
0.0
 11
508.4636040641733
 21
924.2322346426377
 31
0.0
  0
LINE
  5
DFA
330
11C
100
AcDbEntity
  8
-1
  6
Continuous
 62
     3
100
AcDbLine
 10
484.7511040641732
 20
930.7884846426379
 30
0.0
 11
508.4636040641733
 21
924.2322346426377
 31
0.0
  0
LINE
  5
DFB
330
11C
100
AcDbEntity
  8
-1
  6
Continuous
 62
     3
100
AcDbLine
 10
484.7511040641732
 20
930.7884846426379
 30
0.0
 11
508.4636040641733
 21
937.3447346426379
 31
0.0
  0
LINE
  5
DFC
330
11C
100
AcDbEntity
  8
-1
  6
Continuous
 62
     3
100
AcDbLine
 10
508.4636040641733
 20
937.3447346426379
 30
0.0
 11
508.4636040641733
 21
924.2322346426377
 31
0.0
  0
LINE
  5
DFD
330
11C
100
AcDbEntity
  8
1
  6
Continuous
 62
     3
100
AcDbLine
 10
1169.800633126482
 20
937.3447346426367
 30
0.0
 11
1169.800633126482
 21
924.2322346426364
 31
0.0
  0
LINE
  5
DFE
330
11C
100
AcDbEntity
  8
-1
  6
Continuous
 62
     3
100
AcDbLine
 10
1193.513133126482
 20
930.7884846426366
 30
0.0
 11
1169.800633126482
 21
924.2322346426364
 31
0.0
  0
LINE
  5
DFF
330
11C
100
AcDbEntity
  8
-1
  6
Continuous
 62
     3
100
AcDbLine
 10
1193.513133126482
 20
930.7884846426366
 30
0.0
 11
1169.800633126482
 21
937.3447346426367
 31
0.0
  0
LINE
  5
E00
330
11C
100
AcDbEntity
  8
-1
  6
Continuous
 62
     3
100
AcDbLine
 10
1169.800633126482
 20
937.3447346426367
 30
0.0
 11
1169.800633126482
 21
924.2322346426364
 31
0.0
  0
LINE
  5
E11
330
11C
100
AcDbEntity
  8
-1
  6
Continuous
 62
     5
100
AcDbLine
 10
855.2597179112451
 20
955.6923284316088
 30
0.0
 11
864.2597179112451
 21
955.6923284316088
 31
0.0
  0
ENDSEC
  0
SECTION
  2
OBJECTS
  0
DICTIONARY
  5
10A
330
0
100
AcDbDictionary
281
     1
  3
ACAD_COLOR
350
6FB
  3
ACAD_GROUP
350
10B
  3
ACAD_LAYOUT
350
117
  3
ACAD_MATERIAL
350
6CE
  3
ACAD_MLEADERSTYLE
350
720
  3
ACAD_MLINESTYLE
350
114
  3
ACAD_PLOTSETTINGS
350
116
  3
ACAD_PLOTSTYLENAME
350
10C
  3
ACAD_SCALELIST
350
6FE
  3
ACAD_TABLESTYLE
350
6FC
  3
ACAD_VISUALSTYLE
350
6E7
  3
ACDB_RECOMPOSE_DATA
350
A73
  3
ACDBVARIABLEDICTIONARY
350
421
  3
DWGPROPS
350
E01
  0
DICTIONARY
  5
930
330
10E
100
AcDbDictionary
280
     1
281
     1
  3
ADSK_XREC_LAYER_RECONCILED
360
931
  0
DICTIONARY
  5
932
330
127
100
AcDbDictionary
280
     1
281
     1
  3
ADSK_XREC_LAYER_RECONCILED
360
933
  0
DICTIONARY
  5
934
330
128
100
AcDbDictionary
280
     1
281
     1
  3
ADSK_XREC_LAYER_RECONCILED
360
935
  0
DICTIONARY
  5
936
330
129
100
AcDbDictionary
280
     1
281
     1
  3
ADSK_XREC_LAYER_RECONCILED
360
937
  0
DICTIONARY
  5
AB4
330
AB3
100
AcDbDictionary
280
     1
281
     1
  3
ADSK_XREC_LAYER_RECONCILED
360
AB5
  0
DICTIONARY
  5
AB7
330
AB6
100
AcDbDictionary
280
     1
281
     1
  0
DICTIONARY
  5
60A
330
11C
100
AcDbDictionary
280
     1
281
     1
  3
ACAD_LAYOUTSELFREF
360
6CB
  3
ACAD_SORTENTS
360
77E
  0
DICTIONARY
  5
608
330
118
100
AcDbDictionary
280
     1
281
     1
  3
ACAD_LAYOUTSELFREF
360
6CA
  0
DICTIONARY
  5
6FB
102
{ACAD_REACTORS
330
10A
102
}
330
10A
100
AcDbDictionary
281
     1
  0
DICTIONARY
  5
10B
102
{ACAD_REACTORS
330
10A
102
}
330
10A
100
AcDbDictionary
281
     1
  0
DICTIONARY
  5
117
102
{ACAD_REACTORS
330
10A
102
}
330
10A
100
AcDbDictionary
281
     1
  3
Layout1
350
723
  3
Model
350
722
  0
DICTIONARY
  5
6CE
102
{ACAD_REACTORS
330
10A
102
}
330
10A
100
AcDbDictionary
281
     1
  3
ByBlock
350
6D7
  3
ByLayer
350
6CF
  3
Global
350
6DF
  0
DICTIONARY
  5
720
102
{ACAD_REACTORS
330
10A
102
}
330
10A
100
AcDbDictionary
281
     1
  3
Standard
350
721
  0
DICTIONARY
  5
114
102
{ACAD_REACTORS
330
10A
102
}
330
10A
100
AcDbDictionary
281
     1
  3
STANDARD
350
115
  0
DICTIONARY
  5
116
102
{ACAD_REACTORS
330
10A
102
}
330
10A
100
AcDbDictionary
281
     1
  0
ACDBDICTIONARYWDFLT
  5
10C
102
{ACAD_REACTORS
330
10A
102
}
330
10A
100
AcDbDictionary
281
     1
  3
Normal
350
10D
100
AcDbDictionaryWithDefault
340
10D
  0
DICTIONARY
  5
6FE
102
{ACAD_REACTORS
330
10A
102
}
330
10A
100
AcDbDictionary
281
     1
  3
A0
350
6FF
  3
A1
350
700
  3
A2
350
701
  3
A3
350
702
  3
A4
350
703
  3
A5
350
704
  3
A6
350
705
  3
A7
350
706
  3
A8
350
707
  3
A9
350
708
  3
B0
350
709
  3
B1
350
70A
  3
B2
350
70B
  3
B3
350
70C
  3
B4
350
70D
  3
B5
350
70E
  3
B6
350
70F
  3
B7
350
710
  3
B8
350
711
  3
B9
350
712
  3
C0
350
713
  3
C1
350
714
  3
C2
350
715
  3
C3
350
716
  3
C4
350
717
  3
C5
350
718
  3
C6
350
719
  3
C7
350
71A
  3
C8
350
71B
  3
C9
350
71C
  3
D0
350
71D
  3
D1
350
71E
  3
D2
350
71F
  0
DICTIONARY
  5
6FC
102
{ACAD_REACTORS
330
10A
102
}
330
10A
100
AcDbDictionary
281
     1
  3
Standard
350
6FD
  0
DICTIONARY
  5
6E7
102
{ACAD_REACTORS
330
10A
102
}
330
10A
100
AcDbDictionary
281
     1
  3
2dWireframe
350
6ED
  3
3D Hidden
350
6EF
  3
3dWireframe
350
6EE
  3
Basic
350
6EC
  3
Brighten
350
6F3
  3
ColorChange
350
6F7
  3
Conceptual
350
6F0
  3
Dim
350
6F2
  3
EdgeColorOff
350
6FA
  3
Facepattern
350
6F6
  3
Flat
350
6E8
  3
FlatWithEdges
350
6E9
  3
Gouraud
350
6EA
  3
GouraudWithEdges
350
6EB
  3
Hidden
350
A0D
  3
JitterOff
350
6F8
  3
Linepattern
350
6F5
  3
OverhangOff
350
6F9
  3
Realistic
350
6F1
  3
Shaded
350
A12
  3
Shaded with edges
350
A11
  3
Shades of Gray
350
A0E
  3
Sketchy
350
A0F
  3
Thicken
350
6F4
  3
Wireframe
350
A0C
  3
X-Ray
350
A10
  0
XRECORD
  5
A73
102
{ACAD_REACTORS
330
10A
102
}
330
10A
100
AcDbXrecord
280
     1
 90
        1
330
6FD
  0
DICTIONARY
  5
421
102
{ACAD_REACTORS
330
10A
102
}
330
10A
100
AcDbDictionary
281
     1
  3
CANNOSCALE
350
93A
  3
CMLEADERSTYLE
350
939
  3
CTABLESTYLE
350
938
  3
DIMASSOC
350
93C
  3
INDEXCTL
350
93B
  3
SORTENTS
350
422
  3
XCLIPFRAME
350
A71
  0
XRECORD
  5
E01
102
{ACAD_REACTORS
330
10A
102
}
330
10A
100
AcDbXrecord
280
     1
  1
DWGPROPS COOKIE
  2

  3

  4

  6

  7

  8
Horia
  9

300
=
301
=
302
=
303
=
304
=
305
=
306
=
307
=
308
=
309
=
 40
0.0700006018518519
 41
2453375.552094907
 42
2456342.895484258
  1

 90
        0
  0
XRECORD
  5
931
102
{ACAD_REACTORS
330
930
102
}
330
930
100
AcDbXrecord
280
     1
290
     1
  0
XRECORD
  5
933
102
{ACAD_REACTORS
330
932
102
}
330
932
100
AcDbXrecord
280
     1
290
     1
  0
XRECORD
  5
935
102
{ACAD_REACTORS
330
934
102
}
330
934
100
AcDbXrecord
280
     1
290
     1
  0
XRECORD
  5
937
102
{ACAD_REACTORS
330
936
102
}
330
936
100
AcDbXrecord
280
     1
290
     1
  0
XRECORD
  5
AB5
102
{ACAD_REACTORS
330
AB4
102
}
330
AB4
100
AcDbXrecord
280
     1
290
     1
  0
XRECORD
  5
6CB
102
{ACAD_REACTORS
330
60A
102
}
330
60A
100
AcDbXrecord
280
     1
340
11C
  0
SORTENTSTABLE
  5
77E
102
{ACAD_REACTORS
330
60A
102
}
330
60A
100
AcDbSortentsTable
330
11C
331
896
  5
82E
331
81E
  5
419
331
85B
  5
5CE
331
8B2
  5
84A
331
83A
  5
5A3
331
877
  5
80F
331
439
  5
88E
331
814
  5
3C9
331
8C6
  5
85E
331
893
  5
82B
331
81B
  5
40F
331
858
  5
5CB
331
8AF
  5
847
331
837
  5
59B
331
8A7
  5
83F
331
874
  5
80C
331
82F
  5
49F
331
811
  5
3B6
331
8C3
  5
85B
331
3EE
  5
87C
331
890
  5
828
331
818
  5
3F5
331
855
  5
5C8
331
5A2
  5
89E
331
8AC
  5
844
331
8A4
  5
83C
331
871
  5
77D
331
834
  5
4B0
331
8C0
  5
858
331
82C
  5
444
331
80E
  5
3B3
331
88D
  5
825
331
852
  5
5C5
331
885
  5
81D
331
49F
  5
894
331
8D4
  5
86C
331
8A9
  5
841
331
831
  5
4AD
331
86E
  5
5E4
331
8A1
  5
839
331
829
  5
439
331
866
  5
5DC
331
80B
  5
3AC
331
8BD
  5
855
331
88A
  5
822
331
84F
  5
5C2
331
882
  5
81A
331
845
  5
5B3
331
8D1
  5
869
331
89E
  5
836
331
86B
  5
5E1
331
826
  5
431
331
863
  5
5D9
331
8BA
  5
852
331
842
  5
5B0
331
87F
  5
817
331
84C
  5
5BF
331
8CE
  5
866
331
89B
  5
833
331
868
  5
5DE
331
860
  5
5D3
331
823
  5
41E
331
8B7
  5
84F
331
5BD
  5
8AF
331
83F
  5
5AB
331
87C
  5
814
331
849
  5
5BC
331
8CB
  5
863
331
898
  5
830
331
820
  5
41B
331
85D
  5
5D0
331
5BA
  5
8AC
331
8B4
  5
84C
331
83C
  5
5A8
331
879
  5
811
331
816
  5
3E0
331
8C8
  5
860
331
895
  5
82D
331
81D
  5
418
331
85A
  5
5CD
331
8B1
  5
849
331
839
  5
5A2
331
876
  5
80E
331
813
  5
3C2
331
8C5
  5
85D
331
892
  5
82A
331
81A
  5
40D
331
857
  5
5CA
331
8AE
  5
846
331
8A6
  5
83E
331
873
  5
80B
331
836
  5
59A
331
8C2
  5
85A
331
82E
  5
44C
331
810
  5
3B5
331
88F
  5
827
331
887
  5
81F
331
854
  5
5C7
331
5A1
  5
89D
331
8AB
  5
843
331
833
  5
4AF
331
8A3
  5
83B
331
870
  5
5E6
331
82B
  5
442
331
80D
  5
3AE
331
8BF
  5
857
331
88C
  5
824
331
851
  5
5C4
331
884
  5
81C
331
847
  5
5BA
331
8D3
  5
86B
331
8A8
  5
840
331
8A0
  5
838
331
86D
  5
5E3
331
830
  5
4AC
331
828
  5
438
331
865
  5
5DB
331
8BC
  5
854
331
889
  5
821
331
844
  5
5B2
331
881
  5
819
331
84E
  5
5C1
331
8D0
  5
868
331
89D
  5
835
331
86A
  5
5E0
331
862
  5
5D5
331
825
  5
42D
331
8B9
  5
851
331
3DC
  5
87A
331
84B
  5
5BE
331
87E
  5
816
331
841
  5
5AE
331
8CD
  5
865
331
89A
  5
832
331
822
  5
41D
331
85F
  5
5D2
331
5DC
  5
8CB
331
5BC
  5
8AE
331
8B6
  5
84E
331
83E
  5
5AA
331
87B
  5
813
331
848
  5
5BB
331
8CA
  5
862
331
897
  5
82F
331
3F5
  5
87D
331
85C
  5
5CF
331
81F
  5
41A
331
8B3
  5
84B
331
5B9
  5
8AB
331
3B6
  5
876
331
83B
  5
5A4
331
878
  5
810
331
815
  5
3DC
331
8C7
  5
85F
331
894
  5
82C
331
81C
  5
417
331
859
  5
5CC
331
8B0
  5
848
331
875
  5
80D
331
838
  5
5A1
331
812
  5
3BF
331
8C4
  5
85C
331
891
  5
829
331
819
  5
40C
331
856
  5
5C9
331
8AD
  5
845
331
835
  5
599
331
8A5
  5
83D
331
872
  5
7C5
331
82D
  5
445
331
80F
  5
3B4
331
8C1
  5
859
331
88E
  5
826
331
886
  5
81E
331
853
  5
5C6
331
8D5
  5
86D
331
8AA
  5
842
331
8A2
  5
83A
331
86F
  5
5E5
331
832
  5
4AE
331
82A
  5
43F
331
867
  5
5DD
331
80C
  5
3AD
331
8BE
  5
856
331
88B
  5
823
331
846
  5
5B9
331
883
  5
81B
331
850
  5
5C3
331
8D2
  5
86A
331
89F
  5
837
331
86C
  5
5E2
331
864
  5
5DA
331
827
  5
432
331
8BB
  5
853
331
888
  5
820
331
84D
  5
5C0
331
880
  5
818
331
843
  5
5B1
331
8CF
  5
867
331
89C
  5
834
331
869
  5
5DF
331
824
  5
424
331
861
  5
5D4
331
8B8
  5
850
331
840
  5
5AC
331
87D
  5
815
331
84A
  5
5BD
331
8CC
  5
864
331
899
  5
831
331
5DB
  5
8CA
331
85E
  5
5D1
331
821
  5
41C
331
8B5
  5
84D
331
5BB
  5
8AD
331
83D
  5
5A9
331
87A
  5
812
331
817
  5
3EE
331
8C9
  5
861
  0
XRECORD
  5
6CA
102
{ACAD_REACTORS
330
608
102
}
330
608
100
AcDbXrecord
280
     1
340
118
  0
LAYOUT
  5
723
102
{ACAD_XDICTIONARY
360
E05
102
}
102
{ACAD_REACTORS
330
117
102
}
330
117
100
AcDbPlotSettings
  1

  2
Lexmark 3600-4600 Series
  4

  6

 40
0.0
 41
0.0
 42
0.0
 43
0.0
 44
0.0
 45
0.0
 46
0.0
 47
0.0
 48
0.0
 49
0.0
140
0.0
141
0.0
142
1.0
143
1.0
 70
   688
 72
     0
 73
     0
 74
     5
  7

 75
    16
147
1.0
148
0.0
149
0.0
100
AcDbLayout
  1
Layout1
 70
     0
 71
     1
 10
0.0
 20
0.0
 11
12.0
 21
9.0
 12
0.0
 22
0.0
 32
0.0
 14
-1.000000000000000E+20
 24
-1.000000000000000E+20
 34
-1.000000000000000E+20
 15
-1.000000000000000E+20
 25
-1.000000000000000E+20
 35
-1.000000000000000E+20
146
0.0
 13
0.0
 23
0.0
 33
0.0
 16
1.0
 26
0.0
 36
0.0
 17
0.0
 27
1.0
 37
0.0
 76
     0
330
118
  0
LAYOUT
  5
722
102
{ACAD_XDICTIONARY
360
E03
102
}
102
{ACAD_REACTORS
330
117
102
}
330
117
100
AcDbPlotSettings
  1

  2
Lexmark 3600-4600 Series
  4

  6

 40
0.0
 41
0.0
 42
0.0
 43
0.0
 44
0.0
 45
0.0
 46
0.0
 47
0.0
 48
0.0
 49
0.0
140
0.0
141
0.0
142
1.0
143
1.0
 70
  1712
 72
     0
 73
     0
 74
     0
  7

 75
     0
147
1.0
148
0.0
149
0.0
100
AcDbLayout
  1
Model
 70
     1
 71
     0
 10
0.0
 20
0.0
 11
12.0
 21
9.0
 12
0.0
 22
0.0
 32
0.0
 14
0.0
 24
0.0
 34
0.0
 15
0.0
 25
0.0
 35
0.0
146
0.0
 13
0.0
 23
0.0
 33
0.0
 16
1.0
 26
0.0
 36
0.0
 17
0.0
 27
1.0
 37
0.0
 76
     0
330
11C
331
6A9
  0
MATERIAL
  5
6D7
102
{ACAD_XDICTIONARY
360
6D8
102
}
102
{ACAD_REACTORS
330
6CE
102
}
330
6CE
100
AcDbMaterial
  1
ByBlock
 72
     0
 43
0.0208333333333333
 43
0.0
 43
0.0
 43
0.0
 43
0.0
 43
0.0208333333333333
 43
0.0
 43
0.0
 43
0.0
 43
0.0
 43
1.0
 43
0.0
 43
0.0
 43
0.0
 43
0.0
 43
1.0
 77
     0
 47
0.0208333333333333
 47
0.0
 47
0.0
 47
0.0
 47
0.0
 47
0.0208333333333333
 47
0.0
 47
0.0
 47
0.0
 47
0.0
 47
1.0
 47
0.0
 47
0.0
 47
0.0
 47
0.0
 47
1.0
171
     0
 49
0.0208333333333333
 49
0.0
 49
0.0
 49
0.0
 49
0.0
 49
0.0208333333333333
 49
0.0
 49
0.0
 49
0.0
 49
0.0
 49
1.0
 49
0.0
 49
0.0
 49
0.0
 49
0.0
 49
1.0
175
     0
142
0.0208333333333333
142
0.0
142
0.0
142
0.0
142
0.0
142
0.0208333333333333
142
0.0
142
0.0
142
0.0
142
0.0
142
1.0
142
0.0
142
0.0
142
0.0
142
0.0
142
1.0
179
     0
144
0.0208333333333333
144
0.0
144
0.0
144
0.0
144
0.0
144
0.0208333333333333
144
0.0
144
0.0
144
0.0
144
0.0
144
1.0
144
0.0
144
0.0
144
0.0
144
0.0
144
1.0
147
0.0208333333333333
147
0.0
147
0.0
147
0.0
147
0.0
147
0.0208333333333333
147
0.0
147
0.0
147
0.0
147
0.0
147
1.0
147
0.0
147
0.0
147
0.0
147
0.0
147
1.0
  0
MATERIAL
  5
6CF
102
{ACAD_XDICTIONARY
360
6D0
102
}
102
{ACAD_REACTORS
330
6CE
102
}
330
6CE
100
AcDbMaterial
  1
ByLayer
 72
     0
 43
0.0208333333333333
 43
0.0
 43
0.0
 43
0.0
 43
0.0
 43
0.0208333333333333
 43
0.0
 43
0.0
 43
0.0
 43
0.0
 43
1.0
 43
0.0
 43
0.0
 43
0.0
 43
0.0
 43
1.0
 77
     0
 47
0.0208333333333333
 47
0.0
 47
0.0
 47
0.0
 47
0.0
 47
0.0208333333333333
 47
0.0
 47
0.0
 47
0.0
 47
0.0
 47
1.0
 47
0.0
 47
0.0
 47
0.0
 47
0.0
 47
1.0
171
     0
 49
0.0208333333333333
 49
0.0
 49
0.0
 49
0.0
 49
0.0
 49
0.0208333333333333
 49
0.0
 49
0.0
 49
0.0
 49
0.0
 49
1.0
 49
0.0
 49
0.0
 49
0.0
 49
0.0
 49
1.0
175
     0
142
0.0208333333333333
142
0.0
142
0.0
142
0.0
142
0.0
142
0.0208333333333333
142
0.0
142
0.0
142
0.0
142
0.0
142
1.0
142
0.0
142
0.0
142
0.0
142
0.0
142
1.0
179
     0
144
0.0208333333333333
144
0.0
144
0.0
144
0.0
144
0.0
144
0.0208333333333333
144
0.0
144
0.0
144
0.0
144
0.0
144
1.0
144
0.0
144
0.0
144
0.0
144
0.0
144
1.0
147
0.0208333333333333
147
0.0
147
0.0
147
0.0
147
0.0
147
0.0208333333333333
147
0.0
147
0.0
147
0.0
147
0.0
147
1.0
147
0.0
147
0.0
147
0.0
147
0.0
147
1.0
  0
MATERIAL
  5
6DF
102
{ACAD_XDICTIONARY
360
6E0
102
}
102
{ACAD_REACTORS
330
6CE
102
}
330
6CE
100
AcDbMaterial
  1
Global
 72
     0
 43
0.0208333333333333
 43
0.0
 43
0.0
 43
0.0
 43
0.0
 43
0.0208333333333333
 43
0.0
 43
0.0
 43
0.0
 43
0.0
 43
1.0
 43
0.0
 43
0.0
 43
0.0
 43
0.0
 43
1.0
 77
     0
 47
0.0208333333333333
 47
0.0
 47
0.0
 47
0.0
 47
0.0
 47
0.0208333333333333
 47
0.0
 47
0.0
 47
0.0
 47
0.0
 47
1.0
 47
0.0
 47
0.0
 47
0.0
 47
0.0
 47
1.0
171
     0
 49
0.0208333333333333
 49
0.0
 49
0.0
 49
0.0
 49
0.0
 49
0.0208333333333333
 49
0.0
 49
0.0
 49
0.0
 49
0.0
 49
1.0
 49
0.0
 49
0.0
 49
0.0
 49
0.0
 49
1.0
175
     0
142
0.0208333333333333
142
0.0
142
0.0
142
0.0
142
0.0
142
0.0208333333333333
142
0.0
142
0.0
142
0.0
142
0.0
142
1.0
142
0.0
142
0.0
142
0.0
142
0.0
142
1.0
179
     0
144
0.0208333333333333
144
0.0
144
0.0
144
0.0
144
0.0
144
0.0208333333333333
144
0.0
144
0.0
144
0.0
144
0.0
144
1.0
144
0.0
144
0.0
144
0.0
144
0.0
144
1.0
147
0.0208333333333333
147
0.0
147
0.0
147
0.0
147
0.0
147
0.0208333333333333
147
0.0
147
0.0
147
0.0
147
0.0
147
1.0
147
0.0
147
0.0
147
0.0
147
0.0
147
1.0
  0
MLEADERSTYLE
  5
721
102
{ACAD_REACTORS
330
720
102
}
330
720
100
AcDbMLeaderStyle
170
     2
171
     1
172
     0
 90
        2
 40
0.0
 41
0.0
173
     1
 91
-1056964608
340
111
 92
       -2
290
     1
 42
0.09
291
     1
 43
0.36
  3
Standard
 44
0.18
300

342
10F
174
     1
178
     6
175
     1
176
     0
 93
-1056964608
 45
0.18
292
     0
297
     0
 46
0.18
 94
-1056964608
 47
1.0
 49
1.0
140
1.0
293
     1
141
0.0
294
     1
177
     0
142
1.0
295
     0
296
     0
143
0.125
1001
ACAD_MLEADERVER
1070
     2
1001
ACAD
1000
AcRTDxfName
1000
MLEADERSTYLE
  0
MLINESTYLE
  5
115
102
{ACAD_REACTORS
330
114
102
}
330
114
100
AcDbMlineStyle
  2
STANDARD
 70
     0
  3

 62
   256
 51
90.0
 52
90.0
 71
     2
 49
0.5
 62
   256
  6
BYLAYER
 49
-0.5
 62
   256
  6
BYLAYER
  0
ACDBPLACEHOLDER
  5
10D
102
{ACAD_REACTORS
330
10C
102
}
330
10C
  0
SCALE
  5
6FF
102
{ACAD_REACTORS
330
6FE
102
}
330
6FE
100
AcDbScale
 70
     0
300
1:1
140
1.0
141
1.0
290
     1
1001
ACAD
1000
AcRTDxfName
1000
SCALE
  0
SCALE
  5
700
102
{ACAD_REACTORS
330
6FE
102
}
330
6FE
100
AcDbScale
 70
     0
300
1:2
140
1.0
141
2.0
290
     0
1001
ACAD
1000
AcRTDxfName
1000
SCALE
  0
SCALE
  5
701
102
{ACAD_REACTORS
330
6FE
102
}
330
6FE
100
AcDbScale
 70
     0
300
1:4
140
1.0
141
4.0
290
     0
1001
ACAD
1000
AcRTDxfName
1000
SCALE
  0
SCALE
  5
702
102
{ACAD_REACTORS
330
6FE
102
}
330
6FE
100
AcDbScale
 70
     0
300
1:5
140
1.0
141
5.0
290
     0
1001
ACAD
1000
AcRTDxfName
1000
SCALE
  0
SCALE
  5
703
102
{ACAD_REACTORS
330
6FE
102
}
330
6FE
100
AcDbScale
 70
     0
300
1:8
140
1.0
141
8.0
290
     0
1001
ACAD
1000
AcRTDxfName
1000
SCALE
  0
SCALE
  5
704
102
{ACAD_REACTORS
330
6FE
102
}
330
6FE
100
AcDbScale
 70
     0
300
1:10
140
1.0
141
10.0
290
     0
1001
ACAD
1000
AcRTDxfName
1000
SCALE
  0
SCALE
  5
705
102
{ACAD_REACTORS
330
6FE
102
}
330
6FE
100
AcDbScale
 70
     0
300
1:16
140
1.0
141
16.0
290
     0
1001
ACAD
1000
AcRTDxfName
1000
SCALE
  0
SCALE
  5
706
102
{ACAD_REACTORS
330
6FE
102
}
330
6FE
100
AcDbScale
 70
     0
300
1:20
140
1.0
141
20.0
290
     0
1001
ACAD
1000
AcRTDxfName
1000
SCALE
  0
SCALE
  5
707
102
{ACAD_REACTORS
330
6FE
102
}
330
6FE
100
AcDbScale
 70
     0
300
1:30
140
1.0
141
30.0
290
     0
1001
ACAD
1000
AcRTDxfName
1000
SCALE
  0
SCALE
  5
708
102
{ACAD_REACTORS
330
6FE
102
}
330
6FE
100
AcDbScale
 70
     0
300
1:40
140
1.0
141
40.0
290
     0
1001
ACAD
1000
AcRTDxfName
1000
SCALE
  0
SCALE
  5
709
102
{ACAD_REACTORS
330
6FE
102
}
330
6FE
100
AcDbScale
 70
     0
300
1:50
140
1.0
141
50.0
290
     0
1001
ACAD
1000
AcRTDxfName
1000
SCALE
  0
SCALE
  5
70A
102
{ACAD_REACTORS
330
6FE
102
}
330
6FE
100
AcDbScale
 70
     0
300
1:100
140
1.0
141
100.0
290
     0
1001
ACAD
1000
AcRTDxfName
1000
SCALE
  0
SCALE
  5
70B
102
{ACAD_REACTORS
330
6FE
102
}
330
6FE
100
AcDbScale
 70
     0
300
2:1
140
2.0
141
1.0
290
     0
1001
ACAD
1000
AcRTDxfName
1000
SCALE
  0
SCALE
  5
70C
102
{ACAD_REACTORS
330
6FE
102
}
330
6FE
100
AcDbScale
 70
     0
300
4:1
140
4.0
141
1.0
290
     0
1001
ACAD
1000
AcRTDxfName
1000
SCALE
  0
SCALE
  5
70D
102
{ACAD_REACTORS
330
6FE
102
}
330
6FE
100
AcDbScale
 70
     0
300
8:1
140
8.0
141
1.0
290
     0
1001
ACAD
1000
AcRTDxfName
1000
SCALE
  0
SCALE
  5
70E
102
{ACAD_REACTORS
330
6FE
102
}
330
6FE
100
AcDbScale
 70
     0
300
10:1
140
10.0
141
1.0
290
     0
1001
ACAD
1000
AcRTDxfName
1000
SCALE
  0
SCALE
  5
70F
102
{ACAD_REACTORS
330
6FE
102
}
330
6FE
100
AcDbScale
 70
     0
300
100:1
140
100.0
141
1.0
290
     0
1001
ACAD
1000
AcRTDxfName
1000
SCALE
  0
SCALE
  5
710
102
{ACAD_REACTORS
330
6FE
102
}
330
6FE
100
AcDbScale
 70
     0
300
1/128" = 1'-0"
140
0.0078125
141
12.0
290
     0
1001
ACAD
1000
AcRTDxfName
1000
SCALE
  0
SCALE
  5
711
102
{ACAD_REACTORS
330
6FE
102
}
330
6FE
100
AcDbScale
 70
     0
300
1/64" = 1'-0"
140
0.015625
141
12.0
290
     0
1001
ACAD
1000
AcRTDxfName
1000
SCALE
  0
SCALE
  5
712
102
{ACAD_REACTORS
330
6FE
102
}
330
6FE
100
AcDbScale
 70
     0
300
1/32" = 1'-0"
140
0.03125
141
12.0
290
     0
1001
ACAD
1000
AcRTDxfName
1000
SCALE
  0
SCALE
  5
713
102
{ACAD_REACTORS
330
6FE
102
}
330
6FE
100
AcDbScale
 70
     0
300
1/16" = 1'-0"
140
0.0625
141
12.0
290
     0
1001
ACAD
1000
AcRTDxfName
1000
SCALE
  0
SCALE
  5
714
102
{ACAD_REACTORS
330
6FE
102
}
330
6FE
100
AcDbScale
 70
     0
300
3/32" = 1'-0"
140
0.09375
141
12.0
290
     0
1001
ACAD
1000
AcRTDxfName
1000
SCALE
  0
SCALE
  5
715
102
{ACAD_REACTORS
330
6FE
102
}
330
6FE
100
AcDbScale
 70
     0
300
1/8" = 1'-0"
140
0.125
141
12.0
290
     0
1001
ACAD
1000
AcRTDxfName
1000
SCALE
  0
SCALE
  5
716
102
{ACAD_REACTORS
330
6FE
102
}
330
6FE
100
AcDbScale
 70
     0
300
3/16" = 1'-0"
140
0.1875
141
12.0
290
     0
1001
ACAD
1000
AcRTDxfName
1000
SCALE
  0
SCALE
  5
717
102
{ACAD_REACTORS
330
6FE
102
}
330
6FE
100
AcDbScale
 70
     0
300
1/4" = 1'-0"
140
0.25
141
12.0
290
     0
1001
ACAD
1000
AcRTDxfName
1000
SCALE
  0
SCALE
  5
718
102
{ACAD_REACTORS
330
6FE
102
}
330
6FE
100
AcDbScale
 70
     0
300
3/8" = 1'-0"
140
0.375
141
12.0
290
     0
1001
ACAD
1000
AcRTDxfName
1000
SCALE
  0
SCALE
  5
719
102
{ACAD_REACTORS
330
6FE
102
}
330
6FE
100
AcDbScale
 70
     0
300
1/2" = 1'-0"
140
0.5
141
12.0
290
     0
1001
ACAD
1000
AcRTDxfName
1000
SCALE
  0
SCALE
  5
71A
102
{ACAD_REACTORS
330
6FE
102
}
330
6FE
100
AcDbScale
 70
     0
300
3/4" = 1'-0"
140
0.75
141
12.0
290
     0
1001
ACAD
1000
AcRTDxfName
1000
SCALE
  0
SCALE
  5
71B
102
{ACAD_REACTORS
330
6FE
102
}
330
6FE
100
AcDbScale
 70
     0
300
1" = 1'-0"
140
1.0
141
12.0
290
     0
1001
ACAD
1000
AcRTDxfName
1000
SCALE
  0
SCALE
  5
71C
102
{ACAD_REACTORS
330
6FE
102
}
330
6FE
100
AcDbScale
 70
     0
300
1-1/2" = 1'-0"
140
1.5
141
12.0
290
     0
1001
ACAD
1000
AcRTDxfName
1000
SCALE
  0
SCALE
  5
71D
102
{ACAD_REACTORS
330
6FE
102
}
330
6FE
100
AcDbScale
 70
     0
300
3" = 1'-0"
140
3.0
141
12.0
290
     0
1001
ACAD
1000
AcRTDxfName
1000
SCALE
  0
SCALE
  5
71E
102
{ACAD_REACTORS
330
6FE
102
}
330
6FE
100
AcDbScale
 70
     0
300
6" = 1'-0"
140
6.0
141
12.0
290
     0
1001
ACAD
1000
AcRTDxfName
1000
SCALE
  0
SCALE
  5
71F
102
{ACAD_REACTORS
330
6FE
102
}
330
6FE
100
AcDbScale
 70
     0
300
1'-0" = 1'-0"
140
12.0
141
12.0
290
     0
1001
ACAD
1000
AcRTDxfName
1000
SCALE
  0
TABLESTYLE
  5
6FD
102
{ACAD_XDICTIONARY
360
9D7
102
}
102
{ACAD_REACTORS
330
6FC
102
}
330
6FC
100
AcDbTableStyle
  3
Standard
 70
     0
 71
     0
 40
0.06
 41
0.06
280
     0
281
     0
  7
STANDARD
140
0.18
170
     2
 62
     0
 63
     7
283
     0
274
    -2
284
     1
 64
     0
275
    -2
285
     1
 65
     0
276
    -2
286
     1
 66
     0
277
    -2
287
     1
 67
     0
278
    -2
288
     1
 68
     0
279
    -2
289
     1
 69
     0
  7
STANDARD
140
0.25
170
     5
 62
     0
 63
     7
283
     0
274
    -2
284
     1
 64
     0
275
    -2
285
     1
 65
     0
276
    -2
286
     1
 66
     0
277
    -2
287
     1
 67
     0
278
    -2
288
     1
 68
     0
279
    -2
289
     1
 69
     0
  7
STANDARD
140
0.18
170
     5
 62
     0
 63
     7
283
     0
274
    -2
284
     1
 64
     0
275
    -2
285
     1
 65
     0
276
    -2
286
     1
 66
     0
277
    -2
287
     1
 67
     0
278
    -2
288
     1
 68
     0
279
    -2
289
     1
 69
     0
  0
VISUALSTYLE
  5
6ED
102
{ACAD_XDICTIONARY
360
A7F
102
}
102
{ACAD_REACTORS
330
6E7
102
}
330
6E7
100
AcDbVisualStyle
  2

 70
     4
 71
     0
 72
     2
 73
     0
 90
        0
 40
-0.6
 41
-30.0
 62
     5
 63
     7
 74
     1
 91
        4
 64
     7
 65
   257
 75
     1
175
     1
 42
1.0
 92
        0
 66
   257
 43
1.0
 76
     1
 77
     6
 78
     2
 67
     7
 79
     5
170
     0
171
     0
290
     0
174
     0
 93
        1
 44
0.0
173
     0
291
     0
 45
0.0
1001
ACAD
1000
AcDbSavedByObjectVersion
1070
     0
1000
AcDbSavedByObjectVersion
1070
     0
  0
VISUALSTYLE
  5
6EF
102
{ACAD_XDICTIONARY
360
A83
102
}
102
{ACAD_REACTORS
330
6E7
102
}
330
6E7
100
AcDbVisualStyle
  2

 70
     6
 71
     1
 72
     2
 73
     2
 90
        0
 40
-0.6
 41
-30.0
 62
     5
 63
     7
 74
     2
 91
        2
 64
     7
 65
   257
 75
     2
175
     1
 42
179.0
 92
        0
 66
   257
 43
1.0
 76
     1
 77
     6
 78
     2
 67
     7
 79
     3
170
     0
171
     0
290
     0
174
     0
 93
        1
 44
0.0
173
     0
291
     0
 45
0.0
1001
ACAD
1000
AcDbSavedByObjectVersion
1070
     0
1000
AcDbSavedByObjectVersion
1070
     0
  0
VISUALSTYLE
  5
6EE
102
{ACAD_XDICTIONARY
360
A81
102
}
102
{ACAD_REACTORS
330
6E7
102
}
330
6E7
100
AcDbVisualStyle
  2

 70
     5
 71
     0
 72
     2
 73
     0
 90
        0
 40
-0.6
 41
-30.0
 62
     5
 63
     7
 74
     1
 91
        4
 64
     7
 65
   257
 75
     1
175
     1
 42
1.0
 92
        0
 66
   257
 43
1.0
 76
     1
 77
     6
 78
     2
 67
     7
 79
     5
170
     0
171
     0
290
     0
174
     0
 93
        1
 44
0.0
173
     0
291
     0
 45
0.0
1001
ACAD
1000
AcDbSavedByObjectVersion
1070
     0
1000
AcDbSavedByObjectVersion
1070
     0
  0
VISUALSTYLE
  5
6EC
102
{ACAD_XDICTIONARY
360
A7D
102
}
102
{ACAD_REACTORS
330
6E7
102
}
330
6E7
100
AcDbVisualStyle
  2

 70
     7
 71
     1
 72
     0
 73
     1
 90
        0
 40
-0.6
 41
-30.0
 62
     5
 63
     7
 74
     0
 91
        4
 64
     7
 65
   257
 75
     1
175
     1
 42
1.0
 92
        8
 66
     7
 43
1.0
 76
     1
 77
     6
 78
     2
 67
     7
 79
     5
170
     0
171
     0
290
     0
174
     0
 93
        1
 44
0.0
173
     0
291
     1
 45
0.0
1001
ACAD
1000
AcDbSavedByObjectVersion
1070
     0
1000
AcDbSavedByObjectVersion
1070
     0
  0
VISUALSTYLE
  5
6F3
102
{ACAD_XDICTIONARY
360
A8B
102
}
102
{ACAD_REACTORS
330
6E7
102
}
330
6E7
100
AcDbVisualStyle
  2

 70
    12
 71
     2
 72
     2
 73
     0
 90
        0
 40
-0.6
 41
-30.0
 62
     5
 63
     7
 74
     1
 91
        4
 64
     7
 65
   257
 75
     1
175
     1
 42
1.0
 92
        8
 66
     7
 43
1.0
 76
     1
 77
     6
 78
     2
 67
     7
 79
     5
170
     0
171
     0
290
     0
174
     0
 93
        1
 44
50.0
173
     0
291
     1
 45
0.0
1001
ACAD
1000
AcDbSavedByObjectVersion
1070
     0
1000
AcDbSavedByObjectVersion
1070
     0
  0
VISUALSTYLE
  5
6F7
102
{ACAD_XDICTIONARY
360
A93
102
}
102
{ACAD_REACTORS
330
6E7
102
}
330
6E7
100
AcDbVisualStyle
  2

 70
    16
 71
     2
 72
     2
 73
     3
 90
        0
 40
-0.6
 41
-30.0
 62
     5
 63
     8
 74
     1
 91
        4
 64
     7
 65
   257
 75
     1
175
     1
 42
1.0
 92
        8
 66
     8
 43
1.0
 76
     1
 77
     6
 78
     2
 67
     7
 79
     5
170
     0
171
     0
290
     0
174
     0
 93
        1
 44
0.0
173
     0
291
     1
 45
0.0
1001
ACAD
1000
AcDbSavedByObjectVersion
1070
     0
1000
AcDbSavedByObjectVersion
1070
     0
  0
VISUALSTYLE
  5
6F0
102
{ACAD_XDICTIONARY
360
A85
102
}
102
{ACAD_REACTORS
330
6E7
102
}
330
6E7
100
AcDbVisualStyle
  2

 70
     9
 71
     3
 72
     2
 73
     0
 90
        0
 40
-0.6
 41
-30.0
 62
     5
 63
     7
 74
     2
 91
        2
 64
     7
 65
   257
 75
     1
175
     1
 42
179.0
 92
        8
 66
     7
 43
1.0
 76
     1
 77
     6
 78
     2
 67
     7
 79
     3
170
     0
171
     0
290
     0
174
     0
 93
        1
 44
0.0
173
     0
291
     0
 45
0.0
1001
ACAD
1000
AcDbSavedByObjectVersion
1070
     0
1000
AcDbSavedByObjectVersion
1070
     0
  0
VISUALSTYLE
  5
6F2
102
{ACAD_XDICTIONARY
360
A89
102
}
102
{ACAD_REACTORS
330
6E7
102
}
330
6E7
100
AcDbVisualStyle
  2

 70
    11
 71
     2
 72
     2
 73
     0
 90
        0
 40
-0.6
 41
-30.0
 62
     5
 63
     7
 74
     1
 91
        4
 64
     7
 65
   257
 75
     1
175
     1
 42
1.0
 92
        8
 66
     7
 43
1.0
 76
     1
 77
     6
 78
     2
 67
     7
 79
     5
170
     0
171
     0
290
     0
174
     0
 93
        1
 44
-50.0
173
     0
291
     1
 45
0.0
1001
ACAD
1000
AcDbSavedByObjectVersion
1070
     0
1000
AcDbSavedByObjectVersion
1070
     0
  0
VISUALSTYLE
  5
6FA
102
{ACAD_XDICTIONARY
360
A99
102
}
102
{ACAD_REACTORS
330
6E7
102
}
330
6E7
100
AcDbVisualStyle
  2

 70
    22
 71
     2
 72
     2
 73
     0
 90
        0
 40
-0.6
 41
-30.0
 62
     5
 63
     7
 74
     1
 91
        4
 64
     7
 65
   257
 75
     1
175
     1
 42
1.0
 92
        8
 66
     7
 43
1.0
 76
     1
 77
     6
 78
     2
 67
     7
 79
     5
170
     0
171
     0
290
     0
174
     0
 93
        1
 44
0.0
173
     0
291
     1
 45
0.0
1001
ACAD
1000
AcDbSavedByObjectVersion
1070
     0
1000
AcDbSavedByObjectVersion
1070
     0
  0
VISUALSTYLE
  5
6F6
102
{ACAD_XDICTIONARY
360
A91
102
}
102
{ACAD_REACTORS
330
6E7
102
}
330
6E7
100
AcDbVisualStyle
  2

 70
    15
 71
     2
 72
     2
 73
     0
 90
        0
 40
-0.6
 41
-30.0
 62
     5
 63
     7
 74
     1
 91
        4
 64
     7
 65
   257
 75
     1
175
     1
 42
1.0
 92
        8
 66
     7
 43
1.0
 76
     1
 77
     6
 78
     2
 67
     7
 79
     5
170
     0
171
     0
290
     0
174
     0
 93
        1
 44
0.0
173
     0
291
     1
 45
0.0
1001
ACAD
1000
AcDbSavedByObjectVersion
1070
     0
1000
AcDbSavedByObjectVersion
1070
     0
  0
VISUALSTYLE
  5
6E8
102
{ACAD_XDICTIONARY
360
A75
102
}
102
{ACAD_REACTORS
330
6E7
102
}
330
6E7
100
AcDbVisualStyle
  2

 70
     0
 71
     2
 72
     1
 73
     1
 90
        2
 40
-0.6
 41
30.0
 62
     5
 63
     7
 74
     0
 91
        4
 64
     7
 65
   257
 75
     1
175
     1
 42
1.0
 92
        8
 66
     7
 43
1.0
 76
     1
 77
     6
 78
     2
 67
     7
 79
     5
170
     0
171
     0
290
     0
174
     0
 93
       13
 44
0.0
173
     0
291
     1
 45
0.0
1001
ACAD
1000
AcDbSavedByObjectVersion
1070
     0
1000
AcDbSavedByObjectVersion
1070
     0
  0
VISUALSTYLE
  5
6E9
102
{ACAD_XDICTIONARY
360
A77
102
}
102
{ACAD_REACTORS
330
6E7
102
}
330
6E7
100
AcDbVisualStyle
  2

 70
     1
 71
     2
 72
     1
 73
     1
 90
        2
 40
-0.6
 41
30.0
 62
     5
 63
     7
 74
     1
 91
        4
 64
     7
 65
   257
 75
     1
175
     1
 42
1.0
 92
        0
 66
   257
 43
1.0
 76
     1
 77
     6
 78
     2
 67
     7
 79
     5
170
     0
171
     0
290
     0
174
     0
 93
       13
 44
0.0
173
     0
291
     1
 45
0.0
1001
ACAD
1000
AcDbSavedByObjectVersion
1070
     0
1000
AcDbSavedByObjectVersion
1070
     0
  0
VISUALSTYLE
  5
6EA
102
{ACAD_XDICTIONARY
360
A79
102
}
102
{ACAD_REACTORS
330
6E7
102
}
330
6E7
100
AcDbVisualStyle
  2

 70
     2
 71
     2
 72
     2
 73
     1
 90
        2
 40
-0.6
 41
30.0
 62
     5
 63
     7
 74
     0
 91
        4
 64
     7
 65
   257
 75
     1
175
     1
 42
1.0
 92
        0
 66
     7
 43
1.0
 76
     1
 77
     6
 78
     2
 67
     7
 79
     5
170
     0
171
     0
290
     0
174
     0
 93
       13
 44
0.0
173
     0
291
     1
 45
0.0
1001
ACAD
1000
AcDbSavedByObjectVersion
1070
     0
1000
AcDbSavedByObjectVersion
1070
     0
  0
VISUALSTYLE
  5
6EB
102
{ACAD_XDICTIONARY
360
A7B
102
}
102
{ACAD_REACTORS
330
6E7
102
}
330
6E7
100
AcDbVisualStyle
  2

 70
     3
 71
     2
 72
     2
 73
     1
 90
        2
 40
-0.6
 41
30.0
 62
     5
 63
     7
 74
     1
 91
        4
 64
     7
 65
   257
 75
     1
175
     1
 42
1.0
 92
        0
 66
   257
 43
1.0
 76
     1
 77
     6
 78
     2
 67
     7
 79
     5
170
     0
171
     0
290
     0
174
     0
 93
       13
 44
0.0
173
     0
291
     1
 45
0.0
1001
ACAD
1000
AcDbSavedByObjectVersion
1070
     0
1000
AcDbSavedByObjectVersion
1070
     0
  0
VISUALSTYLE
  5
A0D
102
{ACAD_XDICTIONARY
360
AA2
102
}
102
{ACAD_REACTORS
330
6E7
102
}
330
6E7
100
AcDbVisualStyle
  2
Hidden
 70
     6
 71
     1
 72
     2
 73
     2
 90
        0
 40
-0.6
 41
-30.0
 62
     5
 63
     7
 74
     2
 91
        2
 64
     7
 65
   257
 75
     2
175
     1
 42
40.0
 92
        0
 66
   257
 43
1.0
 76
     1
 77
     6
 78
     2
 67
     7
 79
     3
170
     0
171
     0
290
     0
174
     0
 93
        1
 44
0.0
173
     0
291
     0
 45
0.0
1001
ACAD
1000
AcDbSavedByObjectVersion
1070
     0
1000
AcDbSavedByObjectVersion
1070
     0
  0
VISUALSTYLE
  5
6F8
102
{ACAD_XDICTIONARY
360
A95
102
}
102
{ACAD_REACTORS
330
6E7
102
}
330
6E7
100
AcDbVisualStyle
  2

 70
    20
 71
     2
 72
     2
 73
     0
 90
        0
 40
-0.6
 41
-30.0
 62
     5
 63
     7
 74
     1
 91
        4
 64
     7
 65
   257
 75
     1
175
     1
 42
1.0
 92
       10
 66
     7
 43
1.0
 76
     1
 77
     6
 78
     2
 67
     7
 79
     5
170
     0
171
     0
290
     0
174
     0
 93
        1
 44
0.0
173
     0
291
     1
 45
0.0
1001
ACAD
1000
AcDbSavedByObjectVersion
1070
     0
1000
AcDbSavedByObjectVersion
1070
     0
  0
VISUALSTYLE
  5
6F5
102
{ACAD_XDICTIONARY
360
A8F
102
}
102
{ACAD_REACTORS
330
6E7
102
}
330
6E7
100
AcDbVisualStyle
  2

 70
    14
 71
     2
 72
     2
 73
     0
 90
        0
 40
-0.6
 41
-30.0
 62
     5
 63
     7
 74
     1
 91
        4
 64
     7
 65
   257
 75
     7
175
     7
 42
1.0
 92
        8
 66
     7
 43
1.0
 76
     1
 77
     6
 78
     2
 67
     7
 79
     5
170
     0
171
     0
290
     0
174
     0
 93
        1
 44
0.0
173
     0
291
     1
 45
0.0
1001
ACAD
1000
AcDbSavedByObjectVersion
1070
     0
1000
AcDbSavedByObjectVersion
1070
     0
  0
VISUALSTYLE
  5
6F9
102
{ACAD_XDICTIONARY
360
A97
102
}
102
{ACAD_REACTORS
330
6E7
102
}
330
6E7
100
AcDbVisualStyle
  2

 70
    21
 71
     2
 72
     2
 73
     0
 90
        0
 40
-0.6
 41
-30.0
 62
     5
 63
     7
 74
     1
 91
        4
 64
     7
 65
   257
 75
     1
175
     1
 42
1.0
 92
        9
 66
     7
 43
1.0
 76
     1
 77
     6
 78
     2
 67
     7
 79
     5
170
     0
171
     0
290
     0
174
     0
 93
        1
 44
0.0
173
     0
291
     1
 45
0.0
1001
ACAD
1000
AcDbSavedByObjectVersion
1070
     0
1000
AcDbSavedByObjectVersion
1070
     0
  0
VISUALSTYLE
  5
6F1
102
{ACAD_XDICTIONARY
360
A87
102
}
102
{ACAD_REACTORS
330
6E7
102
}
330
6E7
100
AcDbVisualStyle
  2

 70
     8
 71
     2
 72
     2
 73
     0
 90
        0
 40
-0.6
 41
-30.0
 62
     5
 63
     7
 74
     1
 91
        0
 64
     7
 65
   257
 75
     1
175
     1
 42
1.0
 92
        8
 66
     8
 43
1.0
 76
     1
 77
     6
 78
     2
 67
     7
 79
     5
170
     0
171
     0
290
     0
174
     0
 93
       13
 44
0.0
173
     0
291
     0
 45
0.0
1001
ACAD
1000
AcDbSavedByObjectVersion
1070
     0
1000
AcDbSavedByObjectVersion
1070
     0
  0
VISUALSTYLE
  5
A12
102
{ACAD_XDICTIONARY
360
AAC
102
}
102
{ACAD_REACTORS
330
6E7
102
}
330
6E7
100
AcDbVisualStyle
  2
Shaded
 70
    27
 71
     2
 72
     2
 73
     1
 90
        2
 40
-0.6
 41
30.0
 62
     5
 63
     7
 74
     0
 91
        4
 64
     7
 65
   257
 75
     1
175
     1
 42
1.0
 92
        8
 66
   257
 43
1.0
 76
     1
 77
     6
 78
     2
 67
     8
 79
     3
170
     0
171
     0
290
     0
174
     0
 93
        5
 44
0.0
173
     0
291
     0
 45
0.0
1001
ACAD
1000
AcDbSavedByObjectVersion
1070
     0
1000
AcDbSavedByObjectVersion
1070
     0
  0
VISUALSTYLE
  5
A11
102
{ACAD_XDICTIONARY
360
AAA
102
}
102
{ACAD_REACTORS
330
6E7
102
}
330
6E7
100
AcDbVisualStyle
  2
Shaded with edges
 70
    26
 71
     2
 72
     2
 73
     1
 90
        2
 40
-0.6
 41
30.0
 62
     5
 63
     7
 74
     1
 91
       10
 64
     7
 65
   257
 75
     2
175
     1
 42
1.0
 92
        8
 66
   257
 43
1.0
 76
     1
 77
     6
 78
     2
 67
     7
 79
     3
170
     0
171
     0
290
     0
174
     0
 93
        5
 44
0.0
173
     0
291
     0
 45
0.0
1001
ACAD
1000
AcDbSavedByObjectVersion
1070
     0
1000
AcDbSavedByObjectVersion
1070
     0
  0
VISUALSTYLE
  5
A0E
102
{ACAD_XDICTIONARY
360
AA4
102
}
102
{ACAD_REACTORS
330
6E7
102
}
330
6E7
100
AcDbVisualStyle
  2
Shades of Gray
 70
    23
 71
     2
 72
     2
 73
     3
 90
        0
 40
-0.6
 41
-30.0
 62
     5
 63
     7
 74
     2
 91
        2
 64
     7
 65
     7
 75
     1
175
     1
 42
40.0
 92
        8
 66
     7
 43
1.0
 76
     1
 77
     6
 78
     2
 67
     7
 79
     3
170
     0
171
     0
290
     0
174
     0
 93
        1
 44
0.0
173
     0
291
     0
 45
0.0
1001
ACAD
1000
AcDbSavedByObjectVersion
1070
     0
1000
AcDbSavedByObjectVersion
1070
     0
  0
VISUALSTYLE
  5
A0F
102
{ACAD_XDICTIONARY
360
AA6
102
}
102
{ACAD_REACTORS
330
6E7
102
}
330
6E7
100
AcDbVisualStyle
  2
Sketchy
 70
    24
 71
     1
 72
     2
 73
     2
 90
        0
 40
-0.6
 41
-30.0
 62
     5
 63
     7
 74
     2
 91
        2
 64
     7
 65
     7
 75
     1
175
     1
 42
40.0
 92
       11
 66
     7
 43
1.0
 76
     1
 77
     6
 78
     2
 67
     7
 79
     6
170
     0
171
     0
290
     0
174
     0
 93
        1
 44
0.0
173
     0
291
     0
 45
0.0
1001
ACAD
1000
AcDbSavedByObjectVersion
1070
     0
1000
AcDbSavedByObjectVersion
1070
     0
  0
VISUALSTYLE
  5
6F4
102
{ACAD_XDICTIONARY
360
A8D
102
}
102
{ACAD_REACTORS
330
6E7
102
}
330
6E7
100
AcDbVisualStyle
  2

 70
    13
 71
     2
 72
     2
 73
     0
 90
        0
 40
-0.6
 41
-30.0
 62
     5
 63
     7
 74
     1
 91
        4
 64
     7
 65
   257
 75
     1
175
     1
 42
1.0
 92
       12
 66
     7
 43
1.0
 76
     1
 77
     6
 78
     2
 67
     7
 79
     5
170
     0
171
     0
290
     0
174
     0
 93
        1
 44
0.0
173
     0
291
     1
 45
0.0
1001
ACAD
1000
AcDbSavedByObjectVersion
1070
     0
1000
AcDbSavedByObjectVersion
1070
     0
  0
VISUALSTYLE
  5
A0C
102
{ACAD_XDICTIONARY
360
AA0
102
}
102
{ACAD_REACTORS
330
6E7
102
}
330
6E7
100
AcDbVisualStyle
  2
Wireframe
 70
     5
 71
     0
 72
     2
 73
     0
 90
        0
 40
-0.6
 41
-30.0
 62
     5
 63
     7
 74
     1
 91
        4
 64
     7
 65
   257
 75
     1
175
     1
 42
1.0
 92
        0
 66
   257
 43
1.0
 76
     1
 77
     6
 78
     2
 67
     7
 79
     3
170
     0
171
     0
290
     0
174
     0
 93
        1
 44
0.0
173
     0
291
     0
 45
0.0
1001
ACAD
1000
AcDbSavedByObjectVersion
1070
     0
1000
AcDbSavedByObjectVersion
1070
     0
  0
VISUALSTYLE
  5
A10
102
{ACAD_XDICTIONARY
360
AA8
102
}
102
{ACAD_REACTORS
330
6E7
102
}
330
6E7
100
AcDbVisualStyle
  2
X-Ray
 70
    25
 71
     2
 72
     2
 73
     1
 90
        1
 40
0.5
 41
-30.0
 62
     5
 63
     7
 74
     1
 91
        0
 64
     7
 65
   257
 75
     1
175
     1
 42
1.0
 92
        8
 66
     7
 43
1.0
 76
     1
 77
     6
 78
     2
 67
     7
 79
     3
170
     0
171
     0
290
     0
174
     0
 93
       13
 44
0.0
173
     0
291
     0
 45
0.0
1001
ACAD
1000
AcDbSavedByObjectVersion
1070
     0
1000
AcDbSavedByObjectVersion
1070
     0
  0
DICTIONARYVAR
  5
93A
102
{ACAD_REACTORS
330
421
102
}
330
421
100
DictionaryVariables
280
     0
  1
1:1
  0
DICTIONARYVAR
  5
939
102
{ACAD_REACTORS
330
421
102
}
330
421
100
DictionaryVariables
280
     0
  1
STANDARD
  0
DICTIONARYVAR
  5
938
102
{ACAD_REACTORS
330
421
102
}
330
421
100
DictionaryVariables
280
     0
  1
STANDARD
  0
DICTIONARYVAR
  5
93C
102
{ACAD_REACTORS
330
421
102
}
330
421
100
DictionaryVariables
280
     0
  1
1
  0
DICTIONARYVAR
  5
93B
102
{ACAD_REACTORS
330
421
102
}
330
421
100
DictionaryVariables
280
     0
  1
0
  0
DICTIONARYVAR
  5
422
102
{ACAD_REACTORS
330
421
102
}
330
421
100
DictionaryVariables
280
     0
  1
96
  0
DICTIONARYVAR
  5
A71
102
{ACAD_REACTORS
330
421
102
}
330
421
100
DictionaryVariables
280
     0
  1
0
  0
DICTIONARY
  5
E05
330
723
100
AcDbDictionary
280
     1
281
     1
  3
ACAD_XREC_ROUNDTRIP
360
E06
  0
DICTIONARY
  5
E03
330
722
100
AcDbDictionary
280
     1
281
     1
  3
ACAD_XREC_ROUNDTRIP
360
E04
  0
DICTIONARY
  5
6D8
330
6D7
100
AcDbDictionary
280
     1
281
     1
  3
ACAD_XREC_ROUNDTRIP
360
9DC
  3
BUMPTILE
360
6DA
  3
DIFFUSETILE
360
6D9
  3
OPACITYTILE
360
6DD
  3
REFLECTIONTILE
360
6DC
  3
REFRACTIONTILE
360
6DE
  3
SPECULARTILE
360
6DB
  0
DICTIONARY
  5
6D0
330
6CF
100
AcDbDictionary
280
     1
281
     1
  3
ACAD_XREC_ROUNDTRIP
360
9DB
  3
BUMPTILE
360
6D2
  3
DIFFUSETILE
360
6D1
  3
OPACITYTILE
360
6D5
  3
REFLECTIONTILE
360
6D4
  3
REFRACTIONTILE
360
6D6
  3
SPECULARTILE
360
6D3
  0
DICTIONARY
  5
6E0
330
6DF
100
AcDbDictionary
280
     1
281
     1
  3
ACAD_XREC_ROUNDTRIP
360
9DD
  3
BUMPTILE
360
6E2
  3
DIFFUSETILE
360
6E1
  3
OPACITYTILE
360
6E5
  3
REFLECTIONTILE
360
6E4
  3
REFRACTIONTILE
360
6E6
  3
SPECULARTILE
360
6E3
  0
DICTIONARY
  5
9D7
330
6FD
100
AcDbDictionary
280
     1
281
     1
  3
ACAD_ROUNDTRIP_2008_TABLESTYLE_CELLSTYLEMAP
360
A72
  3
ACAD_XREC_ROUNDTRIP
360
E02
  0
DICTIONARY
  5
A7F
330
6ED
100
AcDbDictionary
280
     1
281
     1
  3
ACAD_XREC_ROUNDTRIP
360
A80
  0
DICTIONARY
  5
A83
330
6EF
100
AcDbDictionary
280
     1
281
     1
  3
ACAD_XREC_ROUNDTRIP
360
A84
  0
DICTIONARY
  5
A81
330
6EE
100
AcDbDictionary
280
     1
281
     1
  3
ACAD_XREC_ROUNDTRIP
360
A82
  0
DICTIONARY
  5
A7D
330
6EC
100
AcDbDictionary
280
     1
281
     1
  3
ACAD_XREC_ROUNDTRIP
360
A7E
  0
DICTIONARY
  5
A8B
330
6F3
100
AcDbDictionary
280
     1
281
     1
  3
ACAD_XREC_ROUNDTRIP
360
A8C
  0
DICTIONARY
  5
A93
330
6F7
100
AcDbDictionary
280
     1
281
     1
  3
ACAD_XREC_ROUNDTRIP
360
A94
  0
DICTIONARY
  5
A85
330
6F0
100
AcDbDictionary
280
     1
281
     1
  3
ACAD_XREC_ROUNDTRIP
360
A86
  0
DICTIONARY
  5
A89
330
6F2
100
AcDbDictionary
280
     1
281
     1
  3
ACAD_XREC_ROUNDTRIP
360
A8A
  0
DICTIONARY
  5
A99
330
6FA
100
AcDbDictionary
280
     1
281
     1
  3
ACAD_XREC_ROUNDTRIP
360
A9A
  0
DICTIONARY
  5
A91
330
6F6
100
AcDbDictionary
280
     1
281
     1
  3
ACAD_XREC_ROUNDTRIP
360
A92
  0
DICTIONARY
  5
A75
330
6E8
100
AcDbDictionary
280
     1
281
     1
  3
ACAD_XREC_ROUNDTRIP
360
A76
  0
DICTIONARY
  5
A77
330
6E9
100
AcDbDictionary
280
     1
281
     1
  3
ACAD_XREC_ROUNDTRIP
360
A78
  0
DICTIONARY
  5
A79
330
6EA
100
AcDbDictionary
280
     1
281
     1
  3
ACAD_XREC_ROUNDTRIP
360
A7A
  0
DICTIONARY
  5
A7B
330
6EB
100
AcDbDictionary
280
     1
281
     1
  3
ACAD_XREC_ROUNDTRIP
360
A7C
  0
DICTIONARY
  5
AA2
330
A0D
100
AcDbDictionary
280
     1
281
     1
  3
ACAD_XREC_ROUNDTRIP
360
AA3
  0
DICTIONARY
  5
A95
330
6F8
100
AcDbDictionary
280
     1
281
     1
  3
ACAD_XREC_ROUNDTRIP
360
A96
  0
DICTIONARY
  5
A8F
330
6F5
100
AcDbDictionary
280
     1
281
     1
  3
ACAD_XREC_ROUNDTRIP
360
A90
  0
DICTIONARY
  5
A97
330
6F9
100
AcDbDictionary
280
     1
281
     1
  3
ACAD_XREC_ROUNDTRIP
360
A98
  0
DICTIONARY
  5
A87
330
6F1
100
AcDbDictionary
280
     1
281
     1
  3
ACAD_XREC_ROUNDTRIP
360
A88
  0
DICTIONARY
  5
AAC
330
A12
100
AcDbDictionary
280
     1
281
     1
  3
ACAD_XREC_ROUNDTRIP
360
AAD
  0
DICTIONARY
  5
AAA
330
A11
100
AcDbDictionary
280
     1
281
     1
  3
ACAD_XREC_ROUNDTRIP
360
AAB
  0
DICTIONARY
  5
AA4
330
A0E
100
AcDbDictionary
280
     1
281
     1
  3
ACAD_XREC_ROUNDTRIP
360
AA5
  0
DICTIONARY
  5
AA6
330
A0F
100
AcDbDictionary
280
     1
281
     1
  3
ACAD_XREC_ROUNDTRIP
360
AA7
  0
DICTIONARY
  5
A8D
330
6F4
100
AcDbDictionary
280
     1
281
     1
  3
ACAD_XREC_ROUNDTRIP
360
A8E
  0
DICTIONARY
  5
AA0
330
A0C
100
AcDbDictionary
280
     1
281
     1
  3
ACAD_XREC_ROUNDTRIP
360
AA1
  0
DICTIONARY
  5
AA8
330
A10
100
AcDbDictionary
280
     1
281
     1
  3
ACAD_XREC_ROUNDTRIP
360
AA9
  0
XRECORD
  5
E06
102
{ACAD_REACTORS
330
E05
102
}
330
E05
100
AcDbXrecord
280
     1
102
SHADEPLOT
 70
     0
102
SHADEPLOTRESLEVEL
 70
     2
102
SHADEPLOTCUSTOMDPI
 70
   300
  0
XRECORD
  5
E04
102
{ACAD_REACTORS
330
E03
102
}
330
E03
100
AcDbXrecord
280
     1
102
SHADEPLOT
 70
     0
102
SHADEPLOTRESLEVEL
 70
     2
102
SHADEPLOTCUSTOMDPI
 70
   300
  0
XRECORD
  5
9DC
102
{ACAD_REACTORS
330
6D8
102
}
330
6D8
100
AcDbXrecord
280
     1
102
MATERIAL
148
0.0
149
0.0
149
0.0
 93
        0
 94
       63
282
     0
 72
     0
 77
     0
171
     0
175
     0
179
     0
273
     0
  0
XRECORD
  5
6DA
102
{ACAD_REACTORS
330
6D8
102
}
330
6D8
100
AcDbXrecord
280
     1
270
     1
271
     1
  0
XRECORD
  5
6D9
102
{ACAD_REACTORS
330
6D8
102
}
330
6D8
100
AcDbXrecord
280
     1
270
     1
271
     1
  0
XRECORD
  5
6DD
102
{ACAD_REACTORS
330
6D8
102
}
330
6D8
100
AcDbXrecord
280
     1
270
     1
271
     1
  0
XRECORD
  5
6DC
102
{ACAD_REACTORS
330
6D8
102
}
330
6D8
100
AcDbXrecord
280
     1
270
     1
271
     1
  0
XRECORD
  5
6DE
102
{ACAD_REACTORS
330
6D8
102
}
330
6D8
100
AcDbXrecord
280
     1
270
     1
271
     1
  0
XRECORD
  5
6DB
102
{ACAD_REACTORS
330
6D8
102
}
330
6D8
100
AcDbXrecord
280
     1
270
     1
271
     1
  0
XRECORD
  5
9DB
102
{ACAD_REACTORS
330
6D0
102
}
330
6D0
100
AcDbXrecord
280
     1
102
MATERIAL
148
0.0
149
0.0
149
0.0
 93
        0
 94
       63
282
     0
 72
     0
 77
     0
171
     0
175
     0
179
     0
273
     0
  0
XRECORD
  5
6D2
102
{ACAD_REACTORS
330
6D0
102
}
330
6D0
100
AcDbXrecord
280
     1
270
     1
271
     1
  0
XRECORD
  5
6D1
102
{ACAD_REACTORS
330
6D0
102
}
330
6D0
100
AcDbXrecord
280
     1
270
     1
271
     1
  0
XRECORD
  5
6D5
102
{ACAD_REACTORS
330
6D0
102
}
330
6D0
100
AcDbXrecord
280
     1
270
     1
271
     1
  0
XRECORD
  5
6D4
102
{ACAD_REACTORS
330
6D0
102
}
330
6D0
100
AcDbXrecord
280
     1
270
     1
271
     1
  0
XRECORD
  5
6D6
102
{ACAD_REACTORS
330
6D0
102
}
330
6D0
100
AcDbXrecord
280
     1
270
     1
271
     1
  0
XRECORD
  5
6D3
102
{ACAD_REACTORS
330
6D0
102
}
330
6D0
100
AcDbXrecord
280
     1
270
     1
271
     1
  0
XRECORD
  5
9DD
102
{ACAD_REACTORS
330
6E0
102
}
330
6E0
100
AcDbXrecord
280
     1
102
MATERIAL
148
0.0
149
0.0
149
0.0
 93
        0
 94
       63
282
     0
 72
     0
 77
     0
171
     0
175
     0
179
     0
273
     0
  0
XRECORD
  5
6E2
102
{ACAD_REACTORS
330
6E0
102
}
330
6E0
100
AcDbXrecord
280
     1
270
     1
271
     1
  0
XRECORD
  5
6E1
102
{ACAD_REACTORS
330
6E0
102
}
330
6E0
100
AcDbXrecord
280
     1
270
     1
271
     1
  0
XRECORD
  5
6E5
102
{ACAD_REACTORS
330
6E0
102
}
330
6E0
100
AcDbXrecord
280
     1
270
     1
271
     1
  0
XRECORD
  5
6E4
102
{ACAD_REACTORS
330
6E0
102
}
330
6E0
100
AcDbXrecord
280
     1
270
     1
271
     1
  0
XRECORD
  5
6E6
102
{ACAD_REACTORS
330
6E0
102
}
330
6E0
100
AcDbXrecord
280
     1
270
     1
271
     1
  0
XRECORD
  5
6E3
102
{ACAD_REACTORS
330
6E0
102
}
330
6E0
100
AcDbXrecord
280
     1
270
     1
271
     1
  0
CELLSTYLEMAP
  5
A72
102
{ACAD_REACTORS
330
9D7
102
}
330
9D7
100
AcDbCellStyleMap
 90
        3
300
CELLSTYLE
  1
TABLEFORMAT_BEGIN
 90
        5
170
     1
 91
        0
 92
    32768
 62
   257
 93
        1
300
CONTENTFORMAT
  1
CONTENTFORMAT_BEGIN
 90
        0
 91
        0
 92
      512
 93
        0
300

 40
0.0
140
1.0
 94
        5
 62
     0
340
10F
144
0.25
309
CONTENTFORMAT_END
171
     1
301
MARGIN
  1
CELLMARGIN_BEGIN
 40
0.06
 40
0.06
 40
0.06
 40
0.06
 40
0.18
 40
0.18
309
CELLMARGIN_END
 94
        6
 95
        1
302
GRIDFORMAT
  1
GRIDFORMAT_BEGIN
 90
        0
 91
        1
 62
     0
 92
       -2
340
0
 93
        0
 40
0.045
309
GRIDFORMAT_END
 95
        2
302
GRIDFORMAT
  1
GRIDFORMAT_BEGIN
 90
        0
 91
        1
 62
     0
 92
       -2
340
0
 93
        0
 40
0.045
309
GRIDFORMAT_END
 95
        4
302
GRIDFORMAT
  1
GRIDFORMAT_BEGIN
 90
        0
 91
        1
 62
     0
 92
       -2
340
0
 93
        0
 40
0.045
309
GRIDFORMAT_END
 95
        8
302
GRIDFORMAT
  1
GRIDFORMAT_BEGIN
 90
        0
 91
        1
 62
     0
 92
       -2
340
0
 93
        0
 40
0.045
309
GRIDFORMAT_END
 95
       16
302
GRIDFORMAT
  1
GRIDFORMAT_BEGIN
 90
        0
 91
        1
 62
     0
 92
       -2
340
0
 93
        0
 40
0.045
309
GRIDFORMAT_END
 95
       32
302
GRIDFORMAT
  1
GRIDFORMAT_BEGIN
 90
        0
 91
        1
 62
     0
 92
       -2
340
0
 93
        0
 40
0.045
309
GRIDFORMAT_END
309
TABLEFORMAT_END
  1
CELLSTYLE_BEGIN
 90
        1
 91
        1
300
_TITLE
309
CELLSTYLE_END
300
CELLSTYLE
  1
TABLEFORMAT_BEGIN
 90
        5
170
     1
 91
        0
 92
        0
 62
   257
 93
        1
300
CONTENTFORMAT
  1
CONTENTFORMAT_BEGIN
 90
        0
 91
        0
 92
      512
 93
        0
300

 40
0.0
140
1.0
 94
        5
 62
     0
340
10F
144
0.18
309
CONTENTFORMAT_END
171
     1
301
MARGIN
  1
CELLMARGIN_BEGIN
 40
0.06
 40
0.06
 40
0.06
 40
0.06
 40
0.18
 40
0.18
309
CELLMARGIN_END
 94
        6
 95
        1
302
GRIDFORMAT
  1
GRIDFORMAT_BEGIN
 90
        0
 91
        1
 62
     0
 92
       -2
340
0
 93
        0
 40
0.045
309
GRIDFORMAT_END
 95
        2
302
GRIDFORMAT
  1
GRIDFORMAT_BEGIN
 90
        0
 91
        1
 62
     0
 92
       -2
340
0
 93
        0
 40
0.045
309
GRIDFORMAT_END
 95
        4
302
GRIDFORMAT
  1
GRIDFORMAT_BEGIN
 90
        0
 91
        1
 62
     0
 92
       -2
340
0
 93
        0
 40
0.045
309
GRIDFORMAT_END
 95
        8
302
GRIDFORMAT
  1
GRIDFORMAT_BEGIN
 90
        0
 91
        1
 62
     0
 92
       -2
340
0
 93
        0
 40
0.045
309
GRIDFORMAT_END
 95
       16
302
GRIDFORMAT
  1
GRIDFORMAT_BEGIN
 90
        0
 91
        1
 62
     0
 92
       -2
340
0
 93
        0
 40
0.045
309
GRIDFORMAT_END
 95
       32
302
GRIDFORMAT
  1
GRIDFORMAT_BEGIN
 90
        0
 91
        1
 62
     0
 92
       -2
340
0
 93
        0
 40
0.045
309
GRIDFORMAT_END
309
TABLEFORMAT_END
  1
CELLSTYLE_BEGIN
 90
        2
 91
        1
300
_HEADER
309
CELLSTYLE_END
300
CELLSTYLE
  1
TABLEFORMAT_BEGIN
 90
        5
170
     1
 91
        0
 92
        0
 62
   257
 93
        1
300
CONTENTFORMAT
  1
CONTENTFORMAT_BEGIN
 90
        0
 91
        0
 92
      512
 93
        0
300

 40
0.0
140
1.0
 94
        2
 62
     0
340
10F
144
0.18
309
CONTENTFORMAT_END
171
     1
301
MARGIN
  1
CELLMARGIN_BEGIN
 40
0.06
 40
0.06
 40
0.06
 40
0.06
 40
0.18
 40
0.18
309
CELLMARGIN_END
 94
        6
 95
        1
302
GRIDFORMAT
  1
GRIDFORMAT_BEGIN
 90
        0
 91
        1
 62
     0
 92
       -2
340
0
 93
        0
 40
0.045
309
GRIDFORMAT_END
 95
        2
302
GRIDFORMAT
  1
GRIDFORMAT_BEGIN
 90
        0
 91
        1
 62
     0
 92
       -2
340
0
 93
        0
 40
0.045
309
GRIDFORMAT_END
 95
        4
302
GRIDFORMAT
  1
GRIDFORMAT_BEGIN
 90
        0
 91
        1
 62
     0
 92
       -2
340
0
 93
        0
 40
0.045
309
GRIDFORMAT_END
 95
        8
302
GRIDFORMAT
  1
GRIDFORMAT_BEGIN
 90
        0
 91
        1
 62
     0
 92
       -2
340
0
 93
        0
 40
0.045
309
GRIDFORMAT_END
 95
       16
302
GRIDFORMAT
  1
GRIDFORMAT_BEGIN
 90
        0
 91
        1
 62
     0
 92
       -2
340
0
 93
        0
 40
0.045
309
GRIDFORMAT_END
 95
       32
302
GRIDFORMAT
  1
GRIDFORMAT_BEGIN
 90
        0
 91
        1
 62
     0
 92
       -2
340
0
 93
        0
 40
0.045
309
GRIDFORMAT_END
309
TABLEFORMAT_END
  1
CELLSTYLE_BEGIN
 90
        3
 91
        2
300
_DATA
309
CELLSTYLE_END
1001
ACAD
1000
AcRTDxfName
1000
CELLSTYLEMAP
  0
XRECORD
  5
E02
102
{ACAD_REACTORS
330
9D7
102
}
330
9D7
100
AcDbXrecord
280
     1
102
ACAD_ROUNDTRIP_PRE2007_TABLESTYLE
 90
      512
 91
        0
  1

 92
      512
 93
        0
  2

 94
      512
 95
        0
  3

  0
XRECORD
  5
A80
102
{ACAD_REACTORS
330
A7F
102
}
330
A7F
100
AcDbXrecord
280
     1
102
RTVSPropertyOp0
 70
     1
102
RTVSPropertyOp1
 70
     1
102
RTVSPropertyOp2
 70
     1
102
RTVSPropertyOp3
 70
     1
102
RTVSPropertyOp4
 70
     1
102
RTVSPropertyOp5
 70
     1
102
RTVSPropertyOp6
 70
     1
102
RTVSPropertyOp7
 70
     1
102
RTVSPropertyOp8
 70
     1
102
RTVSPropertyOp9
 70
     1
102
RTVSPropertyOp10
 70
     1
102
RTVSPropertyOp11
 70
     1
102
RTVSPropertyOp12
 70
     1
102
RTVSPropertyOp13
 70
     1
102
RTVSPropertyOp14
 70
     1
102
RTVSPropertyOp15
 70
     1
102
RTVSPropertyOp16
 70
     1
102
RTVSPropertyOp17
 70
     1
102
RTVSPropertyOp18
 70
     1
102
RTVSPropertyOp19
 70
     1
102
RTVSPropertyOp20
 70
     1
102
RTVSPropertyOp21
 70
     1
102
RTVSPropertyOp22
 70
     1
102
RTVSPropertyOp23
 70
     1
102
RTVSPropertyOp24
 70
     1
102
RTVSPropertyOp25
 70
     1
102
RTVSPropertyOp26
 70
     1
102
RTVSPropertyOp27
 70
     1
102
RTVSPropertyOp28
 70
     1
102
RTVSPropertyOp29
 70
     1
102
RTVSPropertyOp30
 70
     1
102
RTVSPropertyOp31
 70
     1
102
RTVSPropertyOp32
 70
     1
  0
XRECORD
  5
A84
102
{ACAD_REACTORS
330
A83
102
}
330
A83
100
AcDbXrecord
280
     1
102
RTVSPropertyOp0
 70
     1
102
RTVSPropertyOp1
 70
     1
102
RTVSPropertyOp2
 70
     1
102
RTVSPropertyOp3
 70
     1
102
RTVSPropertyOp4
 70
     1
102
RTVSPropertyOp5
 70
     1
102
RTVSPropertyOp6
 70
     1
102
RTVSPropertyOp7
 70
     1
102
RTVSPropertyOp8
 70
     1
102
RTVSPropertyOp9
 70
     1
102
RTVSPropertyOp10
 70
     1
102
RTVSPropertyOp11
 70
     1
102
RTVSPropertyOp12
 70
     1
102
RTVSPropertyOp13
 70
     1
102
RTVSPropertyOp14
 70
     1
102
RTVSPropertyOp15
 70
     1
102
RTVSPropertyOp16
 70
     1
102
RTVSPropertyOp17
 70
     1
102
RTVSPropertyOp18
 70
     1
102
RTVSPropertyOp19
 70
     1
102
RTVSPropertyOp20
 70
     1
102
RTVSPropertyOp21
 70
     1
102
RTVSPropertyOp22
 70
     1
102
RTVSPropertyOp23
 70
     1
102
RTVSPropertyOp24
 70
     1
102
RTVSPropertyOp25
 70
     1
102
RTVSPropertyOp26
 70
     1
102
RTVSPropertyOp27
 70
     1
102
RTVSPropertyOp28
 70
     1
102
RTVSPropertyOp29
 70
     1
102
RTVSPropertyOp30
 70
     1
102
RTVSPropertyOp31
 70
     1
102
RTVSPropertyOp32
 70
     1
  0
XRECORD
  5
A82
102
{ACAD_REACTORS
330
A81
102
}
330
A81
100
AcDbXrecord
280
     1
102
RTVSPropertyOp0
 70
     1
102
RTVSPropertyOp1
 70
     1
102
RTVSPropertyOp2
 70
     1
102
RTVSPropertyOp3
 70
     1
102
RTVSPropertyOp4
 70
     1
102
RTVSPropertyOp5
 70
     1
102
RTVSPropertyOp6
 70
     1
102
RTVSPropertyOp7
 70
     1
102
RTVSPropertyOp8
 70
     1
102
RTVSPropertyOp9
 70
     1
102
RTVSPropertyOp10
 70
     1
102
RTVSPropertyOp11
 70
     1
102
RTVSPropertyOp12
 70
     1
102
RTVSPropertyOp13
 70
     1
102
RTVSPropertyOp14
 70
     1
102
RTVSPropertyOp15
 70
     1
102
RTVSPropertyOp16
 70
     1
102
RTVSPropertyOp17
 70
     1
102
RTVSPropertyOp18
 70
     1
102
RTVSPropertyOp19
 70
     1
102
RTVSPropertyOp20
 70
     1
102
RTVSPropertyOp21
 70
     1
102
RTVSPropertyOp22
 70
     1
102
RTVSPropertyOp23
 70
     1
102
RTVSPropertyOp24
 70
     1
102
RTVSPropertyOp25
 70
     1
102
RTVSPropertyOp26
 70
     1
102
RTVSPropertyOp27
 70
     1
102
RTVSPropertyOp28
 70
     1
102
RTVSPropertyOp29
 70
     1
102
RTVSPropertyOp30
 70
     1
102
RTVSPropertyOp31
 70
     1
102
RTVSPropertyOp32
 70
     1
  0
XRECORD
  5
A7E
102
{ACAD_REACTORS
330
A7D
102
}
330
A7D
100
AcDbXrecord
280
     1
102
RTVSPropertyOp0
 70
     1
102
RTVSPropertyOp1
 70
     1
102
RTVSPropertyOp2
 70
     1
102
RTVSPropertyOp3
 70
     1
102
RTVSPropertyOp4
 70
     1
102
RTVSPropertyOp5
 70
     1
102
RTVSPropertyOp6
 70
     1
102
RTVSPropertyOp7
 70
     1
102
RTVSPropertyOp8
 70
     1
102
RTVSPropertyOp9
 70
     1
102
RTVSPropertyOp10
 70
     1
102
RTVSPropertyOp11
 70
     1
102
RTVSPropertyOp12
 70
     1
102
RTVSPropertyOp13
 70
     1
102
RTVSPropertyOp14
 70
     1
102
RTVSPropertyOp15
 70
     1
102
RTVSPropertyOp16
 70
     1
102
RTVSPropertyOp17
 70
     1
102
RTVSPropertyOp18
 70
     1
102
RTVSPropertyOp19
 70
     1
102
RTVSPropertyOp20
 70
     1
102
RTVSPropertyOp21
 70
     1
102
RTVSPropertyOp22
 70
     1
102
RTVSPropertyOp23
 70
     1
102
RTVSPropertyOp24
 70
     1
102
RTVSPropertyOp25
 70
     1
102
RTVSPropertyOp26
 70
     1
102
RTVSPropertyOp27
 70
     1
102
RTVSPropertyOp28
 70
     1
102
RTVSPropertyOp29
 70
     1
102
RTVSPropertyOp30
 70
     1
102
RTVSPropertyOp31
 70
     1
102
RTVSPropertyOp32
 70
     1
  0
XRECORD
  5
A8C
102
{ACAD_REACTORS
330
A8B
102
}
330
A8B
100
AcDbXrecord
280
     1
102
RTVSPropertyOp0
 70
     1
102
RTVSPropertyOp1
 70
     1
102
RTVSPropertyOp2
 70
     1
102
RTVSPropertyOp3
 70
     1
102
RTVSPropertyOp4
 70
     1
102
RTVSPropertyOp5
 70
     1
102
RTVSPropertyOp6
 70
     1
102
RTVSPropertyOp7
 70
     1
102
RTVSPropertyOp8
 70
     1
102
RTVSPropertyOp9
 70
     1
102
RTVSPropertyOp10
 70
     1
102
RTVSPropertyOp11
 70
     1
102
RTVSPropertyOp12
 70
     1
102
RTVSPropertyOp13
 70
     1
102
RTVSPropertyOp14
 70
     1
102
RTVSPropertyOp15
 70
     1
102
RTVSPropertyOp16
 70
     1
102
RTVSPropertyOp17
 70
     1
102
RTVSPropertyOp18
 70
     1
102
RTVSPropertyOp19
 70
     1
102
RTVSPropertyOp20
 70
     1
102
RTVSPropertyOp21
 70
     1
102
RTVSPropertyOp22
 70
     1
102
RTVSPropertyOp23
 70
     1
102
RTVSPropertyOp24
 70
     1
102
RTVSPropertyOp25
 70
     1
102
RTVSPropertyOp26
 70
     1
102
RTVSPropertyOp27
 70
     1
102
RTVSPropertyOp28
 70
     1
102
RTVSPropertyOp29
 70
     1
102
RTVSPropertyOp30
 70
     1
102
RTVSPropertyOp31
 70
     1
102
RTVSPropertyOp32
 70
     1
  0
XRECORD
  5
A94
102
{ACAD_REACTORS
330
A93
102
}
330
A93
100
AcDbXrecord
280
     1
102
RTVSPropertyOp0
 70
     1
102
RTVSPropertyOp1
 70
     1
102
RTVSPropertyOp2
 70
     1
102
RTVSPropertyOp3
 70
     1
102
RTVSPropertyOp4
 70
     1
102
RTVSPropertyOp5
 70
     1
102
RTVSPropertyOp6
 70
     1
102
RTVSPropertyOp7
 70
     1
102
RTVSPropertyOp8
 70
     1
102
RTVSPropertyOp9
 70
     1
102
RTVSPropertyOp10
 70
     1
102
RTVSPropertyOp11
 70
     1
102
RTVSPropertyOp12
 70
     1
102
RTVSPropertyOp13
 70
     1
102
RTVSPropertyOp14
 70
     1
102
RTVSPropertyOp15
 70
     1
102
RTVSPropertyOp16
 70
     1
102
RTVSPropertyOp17
 70
     1
102
RTVSPropertyOp18
 70
     1
102
RTVSPropertyOp19
 70
     1
102
RTVSPropertyOp20
 70
     1
102
RTVSPropertyOp21
 70
     1
102
RTVSPropertyOp22
 70
     1
102
RTVSPropertyOp23
 70
     1
102
RTVSPropertyOp24
 70
     1
102
RTVSPropertyOp25
 70
     1
102
RTVSPropertyOp26
 70
     1
102
RTVSPropertyOp27
 70
     1
102
RTVSPropertyOp28
 70
     1
102
RTVSPropertyOp29
 70
     1
102
RTVSPropertyOp30
 70
     1
102
RTVSPropertyOp31
 70
     1
102
RTVSPropertyOp32
 70
     1
  0
XRECORD
  5
A86
102
{ACAD_REACTORS
330
A85
102
}
330
A85
100
AcDbXrecord
280
     1
102
RTVSPropertyOp0
 70
     1
102
RTVSPropertyOp1
 70
     1
102
RTVSPropertyOp2
 70
     1
102
RTVSPropertyOp3
 70
     1
102
RTVSPropertyOp4
 70
     1
102
RTVSPropertyOp5
 70
     1
102
RTVSPropertyOp6
 70
     1
102
RTVSPropertyOp7
 70
     1
102
RTVSPropertyOp8
 70
     1
102
RTVSPropertyOp9
 70
     1
102
RTVSPropertyOp10
 70
     1
102
RTVSPropertyOp11
 70
     1
102
RTVSPropertyOp12
 70
     1
102
RTVSPropertyOp13
 70
     1
102
RTVSPropertyOp14
 70
     1
102
RTVSPropertyOp15
 70
     1
102
RTVSPropertyOp16
 70
     1
102
RTVSPropertyOp17
 70
     1
102
RTVSPropertyOp18
 70
     1
102
RTVSPropertyOp19
 70
     1
102
RTVSPropertyOp20
 70
     1
102
RTVSPropertyOp21
 70
     1
102
RTVSPropertyOp22
 70
     1
102
RTVSPropertyOp23
 70
     1
102
RTVSPropertyOp24
 70
     1
102
RTVSPropertyOp25
 70
     1
102
RTVSPropertyOp26
 70
     1
102
RTVSPropertyOp27
 70
     1
102
RTVSPropertyOp28
 70
     1
102
RTVSPropertyOp29
 70
     1
102
RTVSPropertyOp30
 70
     1
102
RTVSPropertyOp31
 70
     1
102
RTVSPropertyOp32
 70
     1
  0
XRECORD
  5
A8A
102
{ACAD_REACTORS
330
A89
102
}
330
A89
100
AcDbXrecord
280
     1
102
RTVSPropertyOp0
 70
     1
102
RTVSPropertyOp1
 70
     1
102
RTVSPropertyOp2
 70
     1
102
RTVSPropertyOp3
 70
     1
102
RTVSPropertyOp4
 70
     1
102
RTVSPropertyOp5
 70
     1
102
RTVSPropertyOp6
 70
     1
102
RTVSPropertyOp7
 70
     1
102
RTVSPropertyOp8
 70
     1
102
RTVSPropertyOp9
 70
     1
102
RTVSPropertyOp10
 70
     1
102
RTVSPropertyOp11
 70
     1
102
RTVSPropertyOp12
 70
     1
102
RTVSPropertyOp13
 70
     1
102
RTVSPropertyOp14
 70
     1
102
RTVSPropertyOp15
 70
     1
102
RTVSPropertyOp16
 70
     1
102
RTVSPropertyOp17
 70
     1
102
RTVSPropertyOp18
 70
     1
102
RTVSPropertyOp19
 70
     1
102
RTVSPropertyOp20
 70
     1
102
RTVSPropertyOp21
 70
     1
102
RTVSPropertyOp22
 70
     1
102
RTVSPropertyOp23
 70
     1
102
RTVSPropertyOp24
 70
     1
102
RTVSPropertyOp25
 70
     1
102
RTVSPropertyOp26
 70
     1
102
RTVSPropertyOp27
 70
     1
102
RTVSPropertyOp28
 70
     1
102
RTVSPropertyOp29
 70
     1
102
RTVSPropertyOp30
 70
     1
102
RTVSPropertyOp31
 70
     1
102
RTVSPropertyOp32
 70
     1
  0
XRECORD
  5
A9A
102
{ACAD_REACTORS
330
A99
102
}
330
A99
100
AcDbXrecord
280
     1
102
RTVSPropertyOp0
 70
     0
102
RTVSPropertyOp1
 70
     0
102
RTVSPropertyOp2
 70
     0
102
RTVSPropertyOp3
 70
     0
102
RTVSPropertyOp4
 70
     0
102
RTVSPropertyOp5
 70
     0
102
RTVSPropertyOp6
 70
     0
102
RTVSPropertyOp7
 70
     0
102
RTVSPropertyOp8
 70
     0
102
RTVSPropertyOp9
 70
     0
102
RTVSPropertyOp10
 70
     0
102
RTVSPropertyOp11
 70
     0
102
RTVSPropertyOp12
 70
     0
102
RTVSPropertyOp13
 70
     0
102
RTVSPropertyOp14
 70
     2
102
RTVSPropertyOp15
 70
     0
102
RTVSPropertyOp16
 70
     0
102
RTVSPropertyOp17
 70
     0
102
RTVSPropertyOp18
 70
     0
102
RTVSPropertyOp19
 70
     0
102
RTVSPropertyOp20
 70
     0
102
RTVSPropertyOp21
 70
     0
102
RTVSPropertyOp22
 70
     0
102
RTVSPropertyOp23
 70
     0
102
RTVSPropertyOp24
 70
     0
102
RTVSPropertyOp25
 70
     0
102
RTVSPropertyOp26
 70
     0
102
RTVSPropertyOp27
 70
     0
102
RTVSPropertyOp28
 70
     1
102
RTVSPropertyOp29
 70
     1
102
RTVSPropertyOp30
 70
     1
102
RTVSPropertyOp31
 70
     1
102
RTVSPropertyOp32
 70
     1
  0
XRECORD
  5
A92
102
{ACAD_REACTORS
330
A91
102
}
330
A91
100
AcDbXrecord
280
     1
102
RTVSPropertyOp0
 70
     1
102
RTVSPropertyOp1
 70
     1
102
RTVSPropertyOp2
 70
     1
102
RTVSPropertyOp3
 70
     1
102
RTVSPropertyOp4
 70
     1
102
RTVSPropertyOp5
 70
     1
102
RTVSPropertyOp6
 70
     1
102
RTVSPropertyOp7
 70
     1
102
RTVSPropertyOp8
 70
     1
102
RTVSPropertyOp9
 70
     1
102
RTVSPropertyOp10
 70
     1
102
RTVSPropertyOp11
 70
     1
102
RTVSPropertyOp12
 70
     1
102
RTVSPropertyOp13
 70
     1
102
RTVSPropertyOp14
 70
     1
102
RTVSPropertyOp15
 70
     1
102
RTVSPropertyOp16
 70
     1
102
RTVSPropertyOp17
 70
     1
102
RTVSPropertyOp18
 70
     1
102
RTVSPropertyOp19
 70
     1
102
RTVSPropertyOp20
 70
     1
102
RTVSPropertyOp21
 70
     1
102
RTVSPropertyOp22
 70
     1
102
RTVSPropertyOp23
 70
     1
102
RTVSPropertyOp24
 70
     1
102
RTVSPropertyOp25
 70
     1
102
RTVSPropertyOp26
 70
     1
102
RTVSPropertyOp27
 70
     1
102
RTVSPropertyOp28
 70
     1
102
RTVSPropertyOp29
 70
     1
102
RTVSPropertyOp30
 70
     1
102
RTVSPropertyOp31
 70
     1
102
RTVSPropertyOp32
 70
     1
  0
XRECORD
  5
A76
102
{ACAD_REACTORS
330
A75
102
}
330
A75
100
AcDbXrecord
280
     1
102
RTVSPropertyOp0
 70
     1
102
RTVSPropertyOp1
 70
     1
102
RTVSPropertyOp2
 70
     1
102
RTVSPropertyOp3
 70
     1
102
RTVSPropertyOp4
 70
     1
102
RTVSPropertyOp5
 70
     1
102
RTVSPropertyOp6
 70
     1
102
RTVSPropertyOp7
 70
     1
102
RTVSPropertyOp8
 70
     1
102
RTVSPropertyOp9
 70
     1
102
RTVSPropertyOp10
 70
     1
102
RTVSPropertyOp11
 70
     1
102
RTVSPropertyOp12
 70
     1
102
RTVSPropertyOp13
 70
     1
102
RTVSPropertyOp14
 70
     1
102
RTVSPropertyOp15
 70
     1
102
RTVSPropertyOp16
 70
     1
102
RTVSPropertyOp17
 70
     1
102
RTVSPropertyOp18
 70
     1
102
RTVSPropertyOp19
 70
     1
102
RTVSPropertyOp20
 70
     1
102
RTVSPropertyOp21
 70
     1
102
RTVSPropertyOp22
 70
     1
102
RTVSPropertyOp23
 70
     1
102
RTVSPropertyOp24
 70
     1
102
RTVSPropertyOp25
 70
     1
102
RTVSPropertyOp26
 70
     1
102
RTVSPropertyOp27
 70
     1
102
RTVSPropertyOp28
 70
     1
102
RTVSPropertyOp29
 70
     1
102
RTVSPropertyOp30
 70
     1
102
RTVSPropertyOp31
 70
     1
102
RTVSPropertyOp32
 70
     1
  0
XRECORD
  5
A78
102
{ACAD_REACTORS
330
A77
102
}
330
A77
100
AcDbXrecord
280
     1
102
RTVSPropertyOp0
 70
     1
102
RTVSPropertyOp1
 70
     1
102
RTVSPropertyOp2
 70
     1
102
RTVSPropertyOp3
 70
     1
102
RTVSPropertyOp4
 70
     1
102
RTVSPropertyOp5
 70
     1
102
RTVSPropertyOp6
 70
     1
102
RTVSPropertyOp7
 70
     1
102
RTVSPropertyOp8
 70
     1
102
RTVSPropertyOp9
 70
     1
102
RTVSPropertyOp10
 70
     1
102
RTVSPropertyOp11
 70
     1
102
RTVSPropertyOp12
 70
     1
102
RTVSPropertyOp13
 70
     1
102
RTVSPropertyOp14
 70
     1
102
RTVSPropertyOp15
 70
     1
102
RTVSPropertyOp16
 70
     1
102
RTVSPropertyOp17
 70
     1
102
RTVSPropertyOp18
 70
     1
102
RTVSPropertyOp19
 70
     1
102
RTVSPropertyOp20
 70
     1
102
RTVSPropertyOp21
 70
     1
102
RTVSPropertyOp22
 70
     1
102
RTVSPropertyOp23
 70
     1
102
RTVSPropertyOp24
 70
     1
102
RTVSPropertyOp25
 70
     1
102
RTVSPropertyOp26
 70
     1
102
RTVSPropertyOp27
 70
     1
102
RTVSPropertyOp28
 70
     1
102
RTVSPropertyOp29
 70
     1
102
RTVSPropertyOp30
 70
     1
102
RTVSPropertyOp31
 70
     1
102
RTVSPropertyOp32
 70
     1
  0
XRECORD
  5
A7A
102
{ACAD_REACTORS
330
A79
102
}
330
A79
100
AcDbXrecord
280
     1
102
RTVSPropertyOp0
 70
     1
102
RTVSPropertyOp1
 70
     1
102
RTVSPropertyOp2
 70
     1
102
RTVSPropertyOp3
 70
     1
102
RTVSPropertyOp4
 70
     1
102
RTVSPropertyOp5
 70
     1
102
RTVSPropertyOp6
 70
     1
102
RTVSPropertyOp7
 70
     1
102
RTVSPropertyOp8
 70
     1
102
RTVSPropertyOp9
 70
     1
102
RTVSPropertyOp10
 70
     1
102
RTVSPropertyOp11
 70
     1
102
RTVSPropertyOp12
 70
     1
102
RTVSPropertyOp13
 70
     1
102
RTVSPropertyOp14
 70
     1
102
RTVSPropertyOp15
 70
     1
102
RTVSPropertyOp16
 70
     1
102
RTVSPropertyOp17
 70
     1
102
RTVSPropertyOp18
 70
     1
102
RTVSPropertyOp19
 70
     1
102
RTVSPropertyOp20
 70
     1
102
RTVSPropertyOp21
 70
     1
102
RTVSPropertyOp22
 70
     1
102
RTVSPropertyOp23
 70
     1
102
RTVSPropertyOp24
 70
     1
102
RTVSPropertyOp25
 70
     1
102
RTVSPropertyOp26
 70
     1
102
RTVSPropertyOp27
 70
     1
102
RTVSPropertyOp28
 70
     1
102
RTVSPropertyOp29
 70
     1
102
RTVSPropertyOp30
 70
     1
102
RTVSPropertyOp31
 70
     1
102
RTVSPropertyOp32
 70
     1
  0
XRECORD
  5
A7C
102
{ACAD_REACTORS
330
A7B
102
}
330
A7B
100
AcDbXrecord
280
     1
102
RTVSPropertyOp0
 70
     1
102
RTVSPropertyOp1
 70
     1
102
RTVSPropertyOp2
 70
     1
102
RTVSPropertyOp3
 70
     1
102
RTVSPropertyOp4
 70
     1
102
RTVSPropertyOp5
 70
     1
102
RTVSPropertyOp6
 70
     1
102
RTVSPropertyOp7
 70
     1
102
RTVSPropertyOp8
 70
     1
102
RTVSPropertyOp9
 70
     1
102
RTVSPropertyOp10
 70
     1
102
RTVSPropertyOp11
 70
     1
102
RTVSPropertyOp12
 70
     1
102
RTVSPropertyOp13
 70
     1
102
RTVSPropertyOp14
 70
     1
102
RTVSPropertyOp15
 70
     1
102
RTVSPropertyOp16
 70
     1
102
RTVSPropertyOp17
 70
     1
102
RTVSPropertyOp18
 70
     1
102
RTVSPropertyOp19
 70
     1
102
RTVSPropertyOp20
 70
     1
102
RTVSPropertyOp21
 70
     1
102
RTVSPropertyOp22
 70
     1
102
RTVSPropertyOp23
 70
     1
102
RTVSPropertyOp24
 70
     1
102
RTVSPropertyOp25
 70
     1
102
RTVSPropertyOp26
 70
     1
102
RTVSPropertyOp27
 70
     1
102
RTVSPropertyOp28
 70
     1
102
RTVSPropertyOp29
 70
     1
102
RTVSPropertyOp30
 70
     1
102
RTVSPropertyOp31
 70
     1
102
RTVSPropertyOp32
 70
     1
  0
XRECORD
  5
AA3
102
{ACAD_REACTORS
330
AA2
102
}
330
AA2
100
AcDbXrecord
280
     1
102
RTVSPropertyOp0
 70
     1
102
RTVSPropertyOp1
 70
     1
102
RTVSPropertyOp2
 70
     1
102
RTVSPropertyOp3
 70
     1
102
RTVSPropertyOp4
 70
     1
102
RTVSPropertyOp5
 70
     1
102
RTVSPropertyOp6
 70
     1
102
RTVSPropertyOp7
 70
     1
102
RTVSPropertyOp8
 70
     1
102
RTVSPropertyOp9
 70
     1
102
RTVSPropertyOp10
 70
     1
102
RTVSPropertyOp11
 70
     1
102
RTVSPropertyOp12
 70
     1
102
RTVSPropertyOp13
 70
     1
102
RTVSPropertyOp14
 70
     1
102
RTVSPropertyOp15
 70
     1
102
RTVSPropertyOp16
 70
     1
102
RTVSPropertyOp17
 70
     1
102
RTVSPropertyOp18
 70
     1
102
RTVSPropertyOp19
 70
     1
102
RTVSPropertyOp20
 70
     1
102
RTVSPropertyOp21
 70
     1
102
RTVSPropertyOp22
 70
     1
102
RTVSPropertyOp23
 70
     1
102
RTVSPropertyOp24
 70
     1
102
RTVSPropertyOp25
 70
     1
102
RTVSPropertyOp26
 70
     1
102
RTVSPropertyOp27
 70
     1
102
RTVSPropertyOp28
 70
     1
102
RTVSPropertyOp29
 70
     1
102
RTVSPropertyOp30
 70
     1
102
RTVSPropertyOp31
 70
     1
102
RTVSPropertyOp32
 70
     1
  0
XRECORD
  5
A96
102
{ACAD_REACTORS
330
A95
102
}
330
A95
100
AcDbXrecord
280
     1
102
RTVSPropertyOp0
 70
     0
102
RTVSPropertyOp1
 70
     0
102
RTVSPropertyOp2
 70
     0
102
RTVSPropertyOp3
 70
     0
102
RTVSPropertyOp4
 70
     0
102
RTVSPropertyOp5
 70
     0
102
RTVSPropertyOp6
 70
     0
102
RTVSPropertyOp7
 70
     0
102
RTVSPropertyOp8
 70
     0
102
RTVSPropertyOp9
 70
     0
102
RTVSPropertyOp10
 70
     0
102
RTVSPropertyOp11
 70
     0
102
RTVSPropertyOp12
 70
     0
102
RTVSPropertyOp13
 70
     0
102
RTVSPropertyOp14
 70
     2
102
RTVSPropertyOp15
 70
     0
102
RTVSPropertyOp16
 70
     0
102
RTVSPropertyOp17
 70
     0
102
RTVSPropertyOp18
 70
     0
102
RTVSPropertyOp19
 70
     0
102
RTVSPropertyOp20
 70
     0
102
RTVSPropertyOp21
 70
     0
102
RTVSPropertyOp22
 70
     0
102
RTVSPropertyOp23
 70
     0
102
RTVSPropertyOp24
 70
     0
102
RTVSPropertyOp25
 70
     0
102
RTVSPropertyOp26
 70
     0
102
RTVSPropertyOp27
 70
     0
102
RTVSPropertyOp28
 70
     1
102
RTVSPropertyOp29
 70
     1
102
RTVSPropertyOp30
 70
     1
102
RTVSPropertyOp31
 70
     1
102
RTVSPropertyOp32
 70
     1
  0
XRECORD
  5
A90
102
{ACAD_REACTORS
330
A8F
102
}
330
A8F
100
AcDbXrecord
280
     1
102
RTVSPropertyOp0
 70
     1
102
RTVSPropertyOp1
 70
     1
102
RTVSPropertyOp2
 70
     1
102
RTVSPropertyOp3
 70
     1
102
RTVSPropertyOp4
 70
     1
102
RTVSPropertyOp5
 70
     1
102
RTVSPropertyOp6
 70
     1
102
RTVSPropertyOp7
 70
     1
102
RTVSPropertyOp8
 70
     1
102
RTVSPropertyOp9
 70
     1
102
RTVSPropertyOp10
 70
     1
102
RTVSPropertyOp11
 70
     1
102
RTVSPropertyOp12
 70
     1
102
RTVSPropertyOp13
 70
     1
102
RTVSPropertyOp14
 70
     1
102
RTVSPropertyOp15
 70
     1
102
RTVSPropertyOp16
 70
     1
102
RTVSPropertyOp17
 70
     1
102
RTVSPropertyOp18
 70
     1
102
RTVSPropertyOp19
 70
     1
102
RTVSPropertyOp20
 70
     1
102
RTVSPropertyOp21
 70
     1
102
RTVSPropertyOp22
 70
     1
102
RTVSPropertyOp23
 70
     1
102
RTVSPropertyOp24
 70
     1
102
RTVSPropertyOp25
 70
     1
102
RTVSPropertyOp26
 70
     1
102
RTVSPropertyOp27
 70
     1
102
RTVSPropertyOp28
 70
     1
102
RTVSPropertyOp29
 70
     1
102
RTVSPropertyOp30
 70
     1
102
RTVSPropertyOp31
 70
     1
102
RTVSPropertyOp32
 70
     1
  0
XRECORD
  5
A98
102
{ACAD_REACTORS
330
A97
102
}
330
A97
100
AcDbXrecord
280
     1
102
RTVSPropertyOp0
 70
     0
102
RTVSPropertyOp1
 70
     0
102
RTVSPropertyOp2
 70
     0
102
RTVSPropertyOp3
 70
     0
102
RTVSPropertyOp4
 70
     0
102
RTVSPropertyOp5
 70
     0
102
RTVSPropertyOp6
 70
     0
102
RTVSPropertyOp7
 70
     0
102
RTVSPropertyOp8
 70
     0
102
RTVSPropertyOp9
 70
     0
102
RTVSPropertyOp10
 70
     0
102
RTVSPropertyOp11
 70
     0
102
RTVSPropertyOp12
 70
     0
102
RTVSPropertyOp13
 70
     0
102
RTVSPropertyOp14
 70
     2
102
RTVSPropertyOp15
 70
     0
102
RTVSPropertyOp16
 70
     0
102
RTVSPropertyOp17
 70
     0
102
RTVSPropertyOp18
 70
     0
102
RTVSPropertyOp19
 70
     0
102
RTVSPropertyOp20
 70
     0
102
RTVSPropertyOp21
 70
     0
102
RTVSPropertyOp22
 70
     0
102
RTVSPropertyOp23
 70
     0
102
RTVSPropertyOp24
 70
     0
102
RTVSPropertyOp25
 70
     0
102
RTVSPropertyOp26
 70
     0
102
RTVSPropertyOp27
 70
     0
102
RTVSPropertyOp28
 70
     1
102
RTVSPropertyOp29
 70
     1
102
RTVSPropertyOp30
 70
     1
102
RTVSPropertyOp31
 70
     1
102
RTVSPropertyOp32
 70
     1
  0
XRECORD
  5
A88
102
{ACAD_REACTORS
330
A87
102
}
330
A87
100
AcDbXrecord
280
     1
102
RTVSPropertyOp0
 70
     1
102
RTVSPropertyOp1
 70
     1
102
RTVSPropertyOp2
 70
     1
102
RTVSPropertyOp3
 70
     1
102
RTVSPropertyOp4
 70
     1
102
RTVSPropertyOp5
 70
     1
102
RTVSPropertyOp6
 70
     1
102
RTVSPropertyOp7
 70
     1
102
RTVSPropertyOp8
 70
     1
102
RTVSPropertyOp9
 70
     1
102
RTVSPropertyOp10
 70
     1
102
RTVSPropertyOp11
 70
     1
102
RTVSPropertyOp12
 70
     1
102
RTVSPropertyOp13
 70
     1
102
RTVSPropertyOp14
 70
     1
102
RTVSPropertyOp15
 70
     1
102
RTVSPropertyOp16
 70
     1
102
RTVSPropertyOp17
 70
     1
102
RTVSPropertyOp18
 70
     1
102
RTVSPropertyOp19
 70
     1
102
RTVSPropertyOp20
 70
     1
102
RTVSPropertyOp21
 70
     1
102
RTVSPropertyOp22
 70
     1
102
RTVSPropertyOp23
 70
     1
102
RTVSPropertyOp24
 70
     1
102
RTVSPropertyOp25
 70
     1
102
RTVSPropertyOp26
 70
     1
102
RTVSPropertyOp27
 70
     1
102
RTVSPropertyOp28
 70
     1
102
RTVSPropertyOp29
 70
     1
102
RTVSPropertyOp30
 70
     1
102
RTVSPropertyOp31
 70
     1
102
RTVSPropertyOp32
 70
     1
  0
XRECORD
  5
AAD
102
{ACAD_REACTORS
330
AAC
102
}
330
AAC
100
AcDbXrecord
280
     1
102
RTVSPropertyOp0
 70
     1
102
RTVSPropertyOp1
 70
     1
102
RTVSPropertyOp2
 70
     1
102
RTVSPropertyOp3
 70
     1
102
RTVSPropertyOp4
 70
     1
102
RTVSPropertyOp5
 70
     1
102
RTVSPropertyOp6
 70
     1
102
RTVSPropertyOp7
 70
     1
102
RTVSPropertyOp8
 70
     1
102
RTVSPropertyOp9
 70
     1
102
RTVSPropertyOp10
 70
     1
102
RTVSPropertyOp11
 70
     1
102
RTVSPropertyOp12
 70
     1
102
RTVSPropertyOp13
 70
     1
102
RTVSPropertyOp14
 70
     1
102
RTVSPropertyOp15
 70
     1
102
RTVSPropertyOp16
 70
     1
102
RTVSPropertyOp17
 70
     1
102
RTVSPropertyOp18
 70
     1
102
RTVSPropertyOp19
 70
     1
102
RTVSPropertyOp20
 70
     1
102
RTVSPropertyOp21
 70
     1
102
RTVSPropertyOp22
 70
     1
102
RTVSPropertyOp23
 70
     1
102
RTVSPropertyOp24
 70
     1
102
RTVSPropertyOp25
 70
     1
102
RTVSPropertyOp26
 70
     1
102
RTVSPropertyOp27
 70
     1
102
RTVSPropertyOp28
 70
     1
102
RTVSPropertyOp29
 70
     1
102
RTVSPropertyOp30
 70
     1
102
RTVSPropertyOp31
 70
     1
102
RTVSPropertyOp32
 70
     1
  0
XRECORD
  5
AAB
102
{ACAD_REACTORS
330
AAA
102
}
330
AAA
100
AcDbXrecord
280
     1
102
RTVSPropertyOp0
 70
     1
102
RTVSPropertyOp1
 70
     1
102
RTVSPropertyOp2
 70
     1
102
RTVSPropertyOp3
 70
     1
102
RTVSPropertyOp4
 70
     1
102
RTVSPropertyOp5
 70
     1
102
RTVSPropertyOp6
 70
     1
102
RTVSPropertyOp7
 70
     1
102
RTVSPropertyOp8
 70
     1
102
RTVSPropertyOp9
 70
     1
102
RTVSPropertyOp10
 70
     1
102
RTVSPropertyOp11
 70
     1
102
RTVSPropertyOp12
 70
     1
102
RTVSPropertyOp13
 70
     1
102
RTVSPropertyOp14
 70
     1
102
RTVSPropertyOp15
 70
     1
102
RTVSPropertyOp16
 70
     1
102
RTVSPropertyOp17
 70
     1
102
RTVSPropertyOp18
 70
     1
102
RTVSPropertyOp19
 70
     1
102
RTVSPropertyOp20
 70
     1
102
RTVSPropertyOp21
 70
     1
102
RTVSPropertyOp22
 70
     1
102
RTVSPropertyOp23
 70
     1
102
RTVSPropertyOp24
 70
     1
102
RTVSPropertyOp25
 70
     1
102
RTVSPropertyOp26
 70
     1
102
RTVSPropertyOp27
 70
     1
102
RTVSPropertyOp28
 70
     1
102
RTVSPropertyOp29
 70
     1
102
RTVSPropertyOp30
 70
     1
102
RTVSPropertyOp31
 70
     1
102
RTVSPropertyOp32
 70
     1
  0
XRECORD
  5
AA5
102
{ACAD_REACTORS
330
AA4
102
}
330
AA4
100
AcDbXrecord
280
     1
102
RTVSPropertyOp0
 70
     1
102
RTVSPropertyOp1
 70
     1
102
RTVSPropertyOp2
 70
     1
102
RTVSPropertyOp3
 70
     1
102
RTVSPropertyOp4
 70
     1
102
RTVSPropertyOp5
 70
     1
102
RTVSPropertyOp6
 70
     1
102
RTVSPropertyOp7
 70
     1
102
RTVSPropertyOp8
 70
     1
102
RTVSPropertyOp9
 70
     1
102
RTVSPropertyOp10
 70
     1
102
RTVSPropertyOp11
 70
     1
102
RTVSPropertyOp12
 70
     1
102
RTVSPropertyOp13
 70
     1
102
RTVSPropertyOp14
 70
     1
102
RTVSPropertyOp15
 70
     1
102
RTVSPropertyOp16
 70
     1
102
RTVSPropertyOp17
 70
     1
102
RTVSPropertyOp18
 70
     1
102
RTVSPropertyOp19
 70
     1
102
RTVSPropertyOp20
 70
     1
102
RTVSPropertyOp21
 70
     1
102
RTVSPropertyOp22
 70
     1
102
RTVSPropertyOp23
 70
     1
102
RTVSPropertyOp24
 70
     1
102
RTVSPropertyOp25
 70
     1
102
RTVSPropertyOp26
 70
     1
102
RTVSPropertyOp27
 70
     1
102
RTVSPropertyOp28
 70
     1
102
RTVSPropertyOp29
 70
     1
102
RTVSPropertyOp30
 70
     1
102
RTVSPropertyOp31
 70
     1
102
RTVSPropertyOp32
 70
     1
  0
XRECORD
  5
AA7
102
{ACAD_REACTORS
330
AA6
102
}
330
AA6
100
AcDbXrecord
280
     1
102
RTVSPropertyOp0
 70
     1
102
RTVSPropertyOp1
 70
     1
102
RTVSPropertyOp2
 70
     1
102
RTVSPropertyOp3
 70
     1
102
RTVSPropertyOp4
 70
     1
102
RTVSPropertyOp5
 70
     1
102
RTVSPropertyOp6
 70
     1
102
RTVSPropertyOp7
 70
     1
102
RTVSPropertyOp8
 70
     1
102
RTVSPropertyOp9
 70
     1
102
RTVSPropertyOp10
 70
     1
102
RTVSPropertyOp11
 70
     1
102
RTVSPropertyOp12
 70
     1
102
RTVSPropertyOp13
 70
     1
102
RTVSPropertyOp14
 70
     1
102
RTVSPropertyOp15
 70
     1
102
RTVSPropertyOp16
 70
     1
102
RTVSPropertyOp17
 70
     1
102
RTVSPropertyOp18
 70
     1
102
RTVSPropertyOp19
 70
     1
102
RTVSPropertyOp20
 70
     1
102
RTVSPropertyOp21
 70
     1
102
RTVSPropertyOp22
 70
     1
102
RTVSPropertyOp23
 70
     1
102
RTVSPropertyOp24
 70
     1
102
RTVSPropertyOp25
 70
     1
102
RTVSPropertyOp26
 70
     1
102
RTVSPropertyOp27
 70
     1
102
RTVSPropertyOp28
 70
     1
102
RTVSPropertyOp29
 70
     1
102
RTVSPropertyOp30
 70
     1
102
RTVSPropertyOp31
 70
     1
102
RTVSPropertyOp32
 70
     1
  0
XRECORD
  5
A8E
102
{ACAD_REACTORS
330
A8D
102
}
330
A8D
100
AcDbXrecord
280
     1
102
RTVSPropertyOp0
 70
     1
102
RTVSPropertyOp1
 70
     1
102
RTVSPropertyOp2
 70
     1
102
RTVSPropertyOp3
 70
     1
102
RTVSPropertyOp4
 70
     1
102
RTVSPropertyOp5
 70
     1
102
RTVSPropertyOp6
 70
     1
102
RTVSPropertyOp7
 70
     1
102
RTVSPropertyOp8
 70
     1
102
RTVSPropertyOp9
 70
     1
102
RTVSPropertyOp10
 70
     1
102
RTVSPropertyOp11
 70
     1
102
RTVSPropertyOp12
 70
     1
102
RTVSPropertyOp13
 70
     1
102
RTVSPropertyOp14
 70
     1
102
RTVSPropertyOp15
 70
     1
102
RTVSPropertyOp16
 70
     1
102
RTVSPropertyOp17
 70
     1
102
RTVSPropertyOp18
 70
     1
102
RTVSPropertyOp19
 70
     1
102
RTVSPropertyOp20
 70
     1
102
RTVSPropertyOp21
 70
     1
102
RTVSPropertyOp22
 70
     1
102
RTVSPropertyOp23
 70
     1
102
RTVSPropertyOp24
 70
     1
102
RTVSPropertyOp25
 70
     1
102
RTVSPropertyOp26
 70
     1
102
RTVSPropertyOp27
 70
     1
102
RTVSPropertyOp28
 70
     1
102
RTVSPropertyOp29
 70
     1
102
RTVSPropertyOp30
 70
     1
102
RTVSPropertyOp31
 70
     1
102
RTVSPropertyOp32
 70
     1
  0
XRECORD
  5
AA1
102
{ACAD_REACTORS
330
AA0
102
}
330
AA0
100
AcDbXrecord
280
     1
102
RTVSPropertyOp0
 70
     1
102
RTVSPropertyOp1
 70
     1
102
RTVSPropertyOp2
 70
     1
102
RTVSPropertyOp3
 70
     1
102
RTVSPropertyOp4
 70
     1
102
RTVSPropertyOp5
 70
     1
102
RTVSPropertyOp6
 70
     1
102
RTVSPropertyOp7
 70
     1
102
RTVSPropertyOp8
 70
     1
102
RTVSPropertyOp9
 70
     1
102
RTVSPropertyOp10
 70
     1
102
RTVSPropertyOp11
 70
     1
102
RTVSPropertyOp12
 70
     1
102
RTVSPropertyOp13
 70
     1
102
RTVSPropertyOp14
 70
     1
102
RTVSPropertyOp15
 70
     1
102
RTVSPropertyOp16
 70
     1
102
RTVSPropertyOp17
 70
     1
102
RTVSPropertyOp18
 70
     1
102
RTVSPropertyOp19
 70
     1
102
RTVSPropertyOp20
 70
     1
102
RTVSPropertyOp21
 70
     1
102
RTVSPropertyOp22
 70
     1
102
RTVSPropertyOp23
 70
     1
102
RTVSPropertyOp24
 70
     1
102
RTVSPropertyOp25
 70
     1
102
RTVSPropertyOp26
 70
     1
102
RTVSPropertyOp27
 70
     1
102
RTVSPropertyOp28
 70
     1
102
RTVSPropertyOp29
 70
     1
102
RTVSPropertyOp30
 70
     1
102
RTVSPropertyOp31
 70
     1
102
RTVSPropertyOp32
 70
     1
  0
XRECORD
  5
AA9
102
{ACAD_REACTORS
330
AA8
102
}
330
AA8
100
AcDbXrecord
280
     1
102
RTVSPropertyOp0
 70
     1
102
RTVSPropertyOp1
 70
     1
102
RTVSPropertyOp2
 70
     1
102
RTVSPropertyOp3
 70
     1
102
RTVSPropertyOp4
 70
     1
102
RTVSPropertyOp5
 70
     1
102
RTVSPropertyOp6
 70
     1
102
RTVSPropertyOp7
 70
     1
102
RTVSPropertyOp8
 70
     1
102
RTVSPropertyOp9
 70
     1
102
RTVSPropertyOp10
 70
     1
102
RTVSPropertyOp11
 70
     1
102
RTVSPropertyOp12
 70
     1
102
RTVSPropertyOp13
 70
     1
102
RTVSPropertyOp14
 70
     1
102
RTVSPropertyOp15
 70
     1
102
RTVSPropertyOp16
 70
     1
102
RTVSPropertyOp17
 70
     1
102
RTVSPropertyOp18
 70
     1
102
RTVSPropertyOp19
 70
     1
102
RTVSPropertyOp20
 70
     1
102
RTVSPropertyOp21
 70
     1
102
RTVSPropertyOp22
 70
     1
102
RTVSPropertyOp23
 70
     1
102
RTVSPropertyOp24
 70
     1
102
RTVSPropertyOp25
 70
     1
102
RTVSPropertyOp26
 70
     1
102
RTVSPropertyOp27
 70
     1
102
RTVSPropertyOp28
 70
     1
102
RTVSPropertyOp29
 70
     1
102
RTVSPropertyOp30
 70
     1
102
RTVSPropertyOp31
 70
     1
102
RTVSPropertyOp32
 70
     1
  0
ENDSEC
  0
EOF
