  0
SECTION
  2
HEADER
  9
$ACADVER
  1
AC1015
  9
$ACADMAINTVER
 70
     6
  9
$DWGCODEPAGE
  3
ANSI_1252
  9
$INSBASE
 10
0.0
 20
0.0
 30
0.0
  9
$EXTMIN
 10
490.1739320145138
 20
63.05361481222131
 30
0.0
  9
$EXTMAX
 10
1378.733724777993
 20
1036.725460170901
 30
0.0
  9
$LIMMIN
 10
0.0
 20
0.0
  9
$LIMMAX
 10
12.0
 20
9.0
  9
$ORTHOMODE
 70
     1
  9
$REGENMODE
 70
     1
  9
$FILLMODE
 70
     1
  9
$QTEXTMODE
 70
     0
  9
$MIRRTEXT
 70
     1
  9
$LTSCALE
 40
1.0
  9
$ATTMODE
 70
     1
  9
$TEXTSIZE
 40
30.0
  9
$TRACEWID
 40
0.05
  9
$TEXTSTYLE
  7
STANDARD
  9
$CLAYER
  8
0
  9
$CELTYPE
  6
CONTINUOUS
  9
$CECOLOR
 62
     7
  9
$CELTSCALE
 40
1.0
  9
$DISPSILH
 70
     0
  9
$DIMSCALE
 40
1.0
  9
$DIMASZ
 40
0.18
  9
$DIMEXO
 40
0.0625
  9
$DIMDLI
 40
0.38
  9
$DIMRND
 40
0.0
  9
$DIMDLE
 40
0.0
  9
$DIMEXE
 40
0.18
  9
$DIMTP
 40
0.0
  9
$DIMTM
 40
0.0
  9
$DIMTXT
 40
0.18
  9
$DIMCEN
 40
0.09
  9
$DIMTSZ
 40
0.0
  9
$DIMTOL
 70
     0
  9
$DIMLIM
 70
     0
  9
$DIMTIH
 70
     1
  9
$DIMTOH
 70
     1
  9
$DIMSE1
 70
     0
  9
$DIMSE2
 70
     0
  9
$DIMTAD
 70
     0
  9
$DIMZIN
 70
     0
  9
$DIMBLK
  1

  9
$DIMASO
 70
     1
  9
$DIMSHO
 70
     1
  9
$DIMPOST
  1

  9
$DIMAPOST
  1

  9
$DIMALT
 70
     0
  9
$DIMALTD
 70
     2
  9
$DIMALTF
 40
25.4
  9
$DIMLFAC
 40
1.0
  9
$DIMTOFL
 70
     0
  9
$DIMTVP
 40
0.0
  9
$DIMTIX
 70
     0
  9
$DIMSOXD
 70
     0
  9
$DIMSAH
 70
     0
  9
$DIMBLK1
  1

  9
$DIMBLK2
  1

  9
$DIMSTYLE
  2
STANDARD
  9
$DIMCLRD
 70
     0
  9
$DIMCLRE
 70
     0
  9
$DIMCLRT
 70
     0
  9
$DIMTFAC
 40
1.0
  9
$DIMGAP
 40
0.09
  9
$DIMJUST
 70
     0
  9
$DIMSD1
 70
     0
  9
$DIMSD2
 70
     0
  9
$DIMTOLJ
 70
     1
  9
$DIMTZIN
 70
     0
  9
$DIMALTZ
 70
     0
  9
$DIMALTTZ
 70
     0
  9
$DIMUPT
 70
     0
  9
$DIMDEC
 70
     4
  9
$DIMTDEC
 70
     4
  9
$DIMALTU
 70
     2
  9
$DIMALTTD
 70
     2
  9
$DIMTXSTY
  7
STANDARD
  9
$DIMAUNIT
 70
     0
  9
$DIMADEC
 70
     0
  9
$DIMALTRND
 40
0.0
  9
$DIMAZIN
 70
     0
  9
$DIMDSEP
 70
    46
  9
$DIMATFIT
 70
     3
  9
$DIMFRAC
 70
     0
  9
$DIMLDRBLK
  1

  9
$DIMLUNIT
 70
     2
  9
$DIMLWD
 70
    -2
  9
$DIMLWE
 70
    -2
  9
$DIMTMOVE
 70
     0
  9
$LUNITS
 70
     2
  9
$LUPREC
 70
     4
  9
$SKETCHINC
 40
0.1
  9
$FILLETRAD
 40
0.0
  9
$AUNITS
 70
     0
  9
$AUPREC
 70
     0
  9
$MENU
  1
acad
  9
$ELEVATION
 40
0.0
  9
$PELEVATION
 40
0.0
  9
$THICKNESS
 40
0.0
  9
$LIMCHECK
 70
     0
  9
$CHAMFERA
 40
0.0
  9
$CHAMFERB
 40
0.0
  9
$CHAMFERC
 40
0.0
  9
$CHAMFERD
 40
0.0
  9
$SKPOLY
 70
     0
  9
$TDCREATE
 40
2452231.501284722
  9
$TDUCREATE
 40
2452231.459618055
  9
$TDUPDATE
 40
2457619.901783206
  9
$TDUUPDATE
 40
2457619.860116539
  9
$TDINDWG
 40
0.5827368981
  9
$TDUSRTIMER
 40
0.5827279282
  9
$USRTIMER
 70
     1
  9
$ANGBASE
 50
0.0
  9
$ANGDIR
 70
     0
  9
$PDMODE
 70
     0
  9
$PDSIZE
 40
0.0
  9
$PLINEWID
 40
0.0
  9
$SPLFRAME
 70
     0
  9
$SPLINETYPE
 70
     6
  9
$SPLINESEGS
 70
    10
  9
$HANDSEED
  5
92C
  9
$SURFTAB1
 70
     6
  9
$SURFTAB2
 70
     6
  9
$SURFTYPE
 70
     6
  9
$SURFU
 70
    10
  9
$SURFV
 70
    10
  9
$UCSBASE
  2

  9
$UCSNAME
  2

  9
$UCSORG
 10
0.0
 20
0.0
 30
0.0
  9
$UCSXDIR
 10
1.0
 20
0.0
 30
0.0
  9
$UCSYDIR
 10
0.0
 20
1.0
 30
0.0
  9
$UCSORTHOREF
  2

  9
$UCSORTHOVIEW
 70
     0
  9
$UCSORGTOP
 10
0.0
 20
0.0
 30
0.0
  9
$UCSORGBOTTOM
 10
0.0
 20
0.0
 30
0.0
  9
$UCSORGLEFT
 10
0.0
 20
0.0
 30
0.0
  9
$UCSORGRIGHT
 10
0.0
 20
0.0
 30
0.0
  9
$UCSORGFRONT
 10
0.0
 20
0.0
 30
0.0
  9
$UCSORGBACK
 10
0.0
 20
0.0
 30
0.0
  9
$PUCSBASE
  2

  9
$PUCSNAME
  2

  9
$PUCSORG
 10
0.0
 20
0.0
 30
0.0
  9
$PUCSXDIR
 10
1.0
 20
0.0
 30
0.0
  9
$PUCSYDIR
 10
0.0
 20
1.0
 30
0.0
  9
$PUCSORTHOREF
  2

  9
$PUCSORTHOVIEW
 70
     0
  9
$PUCSORGTOP
 10
0.0
 20
0.0
 30
0.0
  9
$PUCSORGBOTTOM
 10
0.0
 20
0.0
 30
0.0
  9
$PUCSORGLEFT
 10
0.0
 20
0.0
 30
0.0
  9
$PUCSORGRIGHT
 10
0.0
 20
0.0
 30
0.0
  9
$PUCSORGFRONT
 10
0.0
 20
0.0
 30
0.0
  9
$PUCSORGBACK
 10
0.0
 20
0.0
 30
0.0
  9
$USERI1
 70
     0
  9
$USERI2
 70
     0
  9
$USERI3
 70
     0
  9
$USERI4
 70
     0
  9
$USERI5
 70
     0
  9
$USERR1
 40
0.0
  9
$USERR2
 40
0.0
  9
$USERR3
 40
0.0
  9
$USERR4
 40
0.0
  9
$USERR5
 40
0.0
  9
$WORLDVIEW
 70
     1
  9
$SHADEDGE
 70
     3
  9
$SHADEDIF
 70
    70
  9
$TILEMODE
 70
     1
  9
$MAXACTVP
 70
    16
  9
$PINSBASE
 10
0.0
 20
0.0
 30
0.0
  9
$PLIMCHECK
 70
     0
  9
$PEXTMIN
 10
-1.000000000000000E+20
 20
-1.000000000000000E+20
 30
-1.000000000000000E+20
  9
$PEXTMAX
 10
-1.000000000000000E+20
 20
-1.000000000000000E+20
 30
-1.000000000000000E+20
  9
$PLIMMIN
 10
0.0
 20
0.0
  9
$PLIMMAX
 10
12.0
 20
9.0
  9
$UNITMODE
 70
     0
  9
$VISRETAIN
 70
     0
  9
$PLINEGEN
 70
     1
  9
$PSLTSCALE
 70
     0
  9
$TREEDEPTH
 70
  3020
  9
$CMLSTYLE
  2
STANDARD
  9
$CMLJUST
 70
     0
  9
$CMLSCALE
 40
1.0
  9
$PROXYGRAPHICS
 70
     1
  9
$MEASUREMENT
 70
     0
  9
$CELWEIGHT
370
    -3
  9
$ENDCAPS
280
     0
  9
$JOINSTYLE
280
     0
  9
$LWDISPLAY
290
     0
  9
$INSUNITS
 70
     0
  9
$HYPERLINKBASE
  1

  9
$STYLESHEET
  1

  9
$XEDIT
290
     1
  9
$CEPSNTYPE
380
     0
  9
$PSTYLEMODE
290
     1
  9
$FINGERPRINTGUID
  2
{B88467DC-19E1-4536-B2EF-890E381B4990}
  9
$VERSIONGUID
  2
{5A00F8F7-2957-4D7C-B76F-E22B553DE983}
  9
$EXTNAMES
290
     1
  9
$PSVPSCALE
 40
0.0
  9
$OLESTARTUP
290
     0
  0
ENDSEC
  0
SECTION
  2
CLASSES
  0
CLASS
  1
ACDBDICTIONARYWDFLT
  2
AcDbDictionaryWithDefault
  3
AutoCAD 2000
 90
        0
280
     0
281
     0
  0
CLASS
  1
ACDBPLACEHOLDER
  2
AcDbPlaceHolder
  3
AutoCAD 2000
 90
        0
280
     0
281
     0
  0
CLASS
  1
LAYOUT
  2
AcDbLayout
  3
AutoCAD 2000
 90
        0
280
     0
281
     0
  0
CLASS
  1
DICTIONARYVAR
  2
AcDbDictionaryVar
  3
AutoCAD 2000
 90
        0
280
     0
281
     0
  0
CLASS
  1
MATERIAL
  2
AcDbMaterial
  3
ObjectDBX Classes
 90
     1024
280
     0
281
     0
  0
CLASS
  1
VISUALSTYLE
  2
AcDbVisualStyle
  3
ObjectDBX Classes
 90
     4095
280
     0
281
     0
  0
CLASS
  1
TABLESTYLE
  2
AcDbTableStyle
  3
ObjectDBX Classes
 90
     4095
280
     0
281
     0
  0
CLASS
  1
SORTENTSTABLE
  2
AcDbSortentsTable
  3
AutoCAD 2000
 90
        0
280
     0
281
     0
  0
ENDSEC
  0
SECTION
  2
TABLES
  0
TABLE
  2
VPORT
  5
107
330
0
100
AcDbSymbolTable
 70
     2
  0
VPORT
  5
92B
330
107
100
AcDbSymbolTableRecord
100
AcDbViewportTableRecord
  2
*Active
 70
     0
 10
0.0
 20
0.0
 11
1.0
 21
1.0
 12
-160.1198878465583
 22
260.7675763654069
 13
0.0
 23
0.0
 14
0.0
 24
0.0
 15
0.0
 25
0.0
 16
0.0
 26
0.0
 36
1.0
 17
889.567107
 27
575.871875
 37
0.0
 40
711.3136459974357
 41
1.94776119402985
 42
50.0
 43
0.025
 44
0.0
 50
0.0
 51
0.0
 71
     0
 72
   100
 73
     1
 74
     0
 75
     0
 76
     0
 77
     0
 78
     0
281
     0
 65
     1
110
0.0
120
0.0
130
0.0
111
1.0
121
0.0
131
0.0
112
0.0
122
1.0
132
0.0
 79
     0
146
0.0
  0
ENDTAB
  0
TABLE
  2
LTYPE
  5
104
330
0
100
AcDbSymbolTable
 70
     1
  0
LTYPE
  5
112
330
104
100
AcDbSymbolTableRecord
100
AcDbLinetypeTableRecord
  2
BYBLOCK
 70
     0
  3

 72
    65
 73
     0
 40
0.0
  0
LTYPE
  5
113
330
104
100
AcDbSymbolTableRecord
100
AcDbLinetypeTableRecord
  2
BYLAYER
 70
     0
  3

 72
    65
 73
     0
 40
0.0
  0
LTYPE
  5
114
330
104
100
AcDbSymbolTableRecord
100
AcDbLinetypeTableRecord
  2
CONTINUOUS
 70
     0
  3
Solid line
 72
    65
 73
     0
 40
0.0
  0
ENDTAB
  0
TABLE
  2
LAYER
  5
101
330
0
100
AcDbSymbolTable
 70
     4
  0
LAYER
  5
10F
330
101
100
AcDbSymbolTableRecord
100
AcDbLayerTableRecord
  2
0
 70
     0
 62
     7
  6
CONTINUOUS
370
    -3
390
10E
  0
LAYER
  5
12A
330
101
100
AcDbSymbolTableRecord
100
AcDbLayerTableRecord
  2
1
 70
     0
 62
     7
  6
CONTINUOUS
370
    -3
390
10E
  0
LAYER
  5
563
102
{ACAD_XDICTIONARY
360
564
102
}
330
101
100
AcDbSymbolTableRecord
100
AcDbLayerTableRecord
  2
-1
 70
     0
 62
     7
  6
CONTINUOUS
370
    -3
390
10E
  0
LAYER
  5
566
102
{ACAD_XDICTIONARY
360
567
102
}
330
101
100
AcDbSymbolTableRecord
100
AcDbLayerTableRecord
  2
FLAN1$0$1
 70
     0
 62
     7
  6
CONTINUOUS
370
    -3
390
10E
  0
ENDTAB
  0
TABLE
  2
STYLE
  5
102
330
0
100
AcDbSymbolTable
 70
     2
  0
STYLE
  5
110
330
102
100
AcDbSymbolTableRecord
100
AcDbTextStyleTableRecord
  2
STANDARD
 70
     0
 40
0.0
 41
1.0
 50
0.0
 71
     0
 42
30.0
  3
txt
  4

  0
STYLE
  5
12B
330
102
100
AcDbSymbolTableRecord
100
AcDbTextStyleTableRecord
  2
ROMANS
 70
     0
 40
0.2
 41
1.0
 50
0.0
 71
     0
 42
0.2
  3
ROMANS
  4

  0
ENDTAB
  0
TABLE
  2
VIEW
  5
105
330
0
100
AcDbSymbolTable
 70
     0
  0
ENDTAB
  0
TABLE
  2
UCS
  5
106
330
0
100
AcDbSymbolTable
 70
     0
  0
ENDTAB
  0
TABLE
  2
APPID
  5
108
330
0
100
AcDbSymbolTable
 70
     2
  0
APPID
  5
111
330
108
100
AcDbSymbolTableRecord
100
AcDbRegAppTableRecord
  2
ACAD
 70
     0
  0
APPID
  5
825
330
108
100
AcDbSymbolTableRecord
100
AcDbRegAppTableRecord
  2
ACAD_EXEMPT_FROM_CAD_STANDARDS
 70
     0
  0
ENDTAB
  0
TABLE
  2
DIMSTYLE
  5
109
330
0
100
AcDbSymbolTable
 70
     1
100
AcDbDimStyleTable
 71
     1
340
12C
  0
DIMSTYLE
105
12C
330
109
100
AcDbSymbolTableRecord
100
AcDbDimStyleTableRecord
  2
STANDARD
 70
     0
340
110
  0
ENDTAB
  0
TABLE
  2
BLOCK_RECORD
  5
100
330
0
100
AcDbSymbolTable
 70
     2
  0
BLOCK_RECORD
  5
11D
102
{ACAD_XDICTIONARY
360
2F6
102
}
330
100
100
AcDbSymbolTableRecord
100
AcDbBlockTableRecord
  2
*MODEL_SPACE
340
2FC
  0
BLOCK_RECORD
  5
119
102
{ACAD_XDICTIONARY
360
2F4
102
}
330
100
100
AcDbSymbolTableRecord
100
AcDbBlockTableRecord
  2
*PAPER_SPACE
340
2FD
  0
BLOCK_RECORD
  5
53C
330
100
100
AcDbSymbolTableRecord
100
AcDbBlockTableRecord
  2
A$C30394B77
340
0
  0
ENDTAB
  0
ENDSEC
  0
SECTION
  2
BLOCKS
  0
BLOCK
  5
11E
330
11D
100
AcDbEntity
  8
0
100
AcDbBlockBegin
  2
*MODEL_SPACE
 70
     0
 10
0.0
 20
0.0
 30
0.0
  3
*MODEL_SPACE
  1

  0
ENDBLK
  5
11F
330
11D
100
AcDbEntity
  8
0
100
AcDbBlockEnd
  0
BLOCK
  5
11A
330
119
100
AcDbEntity
 67
     1
  8
0
100
AcDbBlockBegin
  2
*PAPER_SPACE
 70
     0
 10
0.0
 20
0.0
 30
0.0
  3
*PAPER_SPACE
  1

  0
ENDBLK
  5
11B
330
119
100
AcDbEntity
 67
     1
  8
0
100
AcDbBlockEnd
  0
BLOCK
  5
53E
330
53C
100
AcDbEntity
  8
0
 62
     7
370
    -3
100
AcDbBlockBegin
  2
A$C30394B77
 70
     0
 10
0.0
 20
0.0
 30
0.0
  3
A$C30394B77
  1

  0
LINE
  5
53D
330
53C
100
AcDbEntity
  8
1
  6
Continuous
 62
     7
100
AcDbLine
 10
28.20872271002122
 20
0.0000018500464876
 30
0.0
 11
-0.0000024085500172
 21
28.15053036507332
 31
0.0
  0
ENDBLK
  5
53F
330
53C
100
AcDbEntity
  8
0
 62
     7
370
    -3
100
AcDbBlockEnd
  0
ENDSEC
  0
SECTION
  2
ENTITIES
  0
LINE
  5
150
330
11D
100
AcDbEntity
  8
1
  6
Continuous
 62
     4
100
AcDbLine
 10
681.6407357245066
 20
434.9574991952513
 30
0.0
 11
1092.024123932368
 21
845.1536544680287
 31
0.0
  0
LINE
  5
164
330
11D
100
AcDbEntity
  8
1
  6
Continuous
 62
     4
100
AcDbLine
 10
761.6806813949948
 20
684.0000786487362
 30
0.0
 11
713.6101736973405
 21
647.6487748423892
 31
0.0
  0
LINE
  5
355
330
11D
100
AcDbEntity
  8
1
  6
Continuous
 62
     4
100
AcDbLine
 10
1100.933569821647
 20
682.1907666042448
 30
0.0
 11
1140.64920458528
 21
643.773188388134
 31
0.0
  0
LINE
  5
472
330
11D
100
AcDbEntity
  8
1
  6
Continuous
 62
     4
100
AcDbLine
 10
1306.605420760314
 20
434.9574991952513
 30
0.0
 11
545.3977471383255
 21
434.9574991952513
 31
0.0
  0
LINE
  5
4E9
330
11D
100
AcDbEntity
  8
1
  6
Continuous
 62
     4
100
AcDbLine
 10
1070.214384745228
 20
644.336935718029
 30
0.0
 11
1073.190525047471
 21
657.2894970734473
 31
0.0
  0
LINE
  5
4EA
330
11D
100
AcDbEntity
  8
1
  6
Continuous
 62
     4
100
AcDbLine
 10
778.3715371959074
 20
644.336935718029
 30
0.0
 11
789.8894065135655
 21
655.8495501337097
 31
0.0
  0
LINE
  5
82B
330
11D
100
AcDbEntity
  8
1
  6
Continuous
 62
     4
100
AcDbLine
 10
545.4005463816896
 20
638.2629763444433
 30
0.0
 11
551.4745044203496
 21
644.3369343831034
 31
0.0
1001
ACAD
1010
0.0
1020
0.0
1030
0.0
  0
LINE
  5
82C
330
11D
100
AcDbEntity
  8
1
  6
Continuous
 62
     4
100
AcDbLine
 10
545.4054322857294
 20
627.6612605306849
 30
0.0
 11
562.0811061381482
 21
644.3369343831034
 31
0.0
1001
ACAD
1010
0.0
1020
0.0
1030
0.0
  0
LINE
  5
82D
330
11D
100
AcDbEntity
  8
1
  6
Continuous
 62
     4
100
AcDbLine
 10
545.4103181897688
 20
617.0595447169261
 30
0.0
 11
572.6877091908717
 21
644.336935718029
 31
0.0
1001
ACAD
1010
0.0
1020
0.0
1030
0.0
  0
LINE
  5
82E
330
11D
100
AcDbEntity
  8
1
  6
Continuous
 62
     4
100
AcDbLine
 10
545.4152040938088
 20
606.4578289031676
 30
0.0
 11
583.2943095737446
 21
644.3369343831034
 31
0.0
1001
ACAD
1010
0.0
1020
0.0
1030
0.0
  0
LINE
  5
82F
330
11D
100
AcDbEntity
  8
1
  6
Continuous
 62
     4
100
AcDbLine
 10
555.1076588250671
 20
605.5436819166274
 30
0.0
 11
593.9009112915426
 21
644.3369343831034
 31
0.0
1001
ACAD
1010
0.0
1020
0.0
1030
0.0
  0
LINE
  5
830
330
11D
100
AcDbEntity
  8
1
  6
Continuous
 62
     4
100
AcDbLine
 10
565.7142605428652
 20
605.5436819166274
 30
0.0
 11
604.5075130093408
 21
644.3369343831034
 31
0.0
1001
ACAD
1010
0.0
1020
0.0
1030
0.0
  0
LINE
  5
831
330
11D
100
AcDbEntity
  8
1
  6
Continuous
 62
     4
100
AcDbLine
 10
576.3208622606635
 20
605.5436819166274
 30
0.0
 11
615.114116062065
 21
644.336935718029
 31
0.0
1001
ACAD
1010
0.0
1020
0.0
1030
0.0
  0
LINE
  5
832
330
11D
100
AcDbEntity
  8
1
  6
Continuous
 62
     4
100
AcDbLine
 10
586.9274639784618
 20
605.5436819166274
 30
0.0
 11
625.7207164449376
 21
644.3369343831034
 31
0.0
1001
ACAD
1010
0.0
1020
0.0
1030
0.0
  0
LINE
  5
833
330
11D
100
AcDbEntity
  8
1
  6
Continuous
 62
     4
100
AcDbLine
 10
597.5340656962599
 20
605.5436819166274
 30
0.0
 11
636.3273181627358
 21
644.3369343831034
 31
0.0
1001
ACAD
1010
0.0
1020
0.0
1030
0.0
  0
LINE
  5
834
330
11D
100
AcDbEntity
  8
1
  6
Continuous
 62
     4
100
AcDbLine
 10
608.1406674140585
 20
605.5436819166274
 30
0.0
 11
646.93392121546
 21
644.336935718029
 31
0.0
1001
ACAD
1010
0.0
1020
0.0
1030
0.0
  0
LINE
  5
835
330
11D
100
AcDbEntity
  8
1
  6
Continuous
 62
     4
100
AcDbLine
 10
618.7472691318568
 20
605.5436819166274
 30
0.0
 11
657.5405215983327
 21
644.3369343831034
 31
0.0
1001
ACAD
1010
0.0
1020
0.0
1030
0.0
  0
LINE
  5
836
330
11D
100
AcDbEntity
  8
1
  6
Continuous
 62
     4
100
AcDbLine
 10
629.3538708496547
 20
605.5436819166274
 30
0.0
 11
668.1471233161309
 21
644.3369343831034
 31
0.0
1001
ACAD
1010
0.0
1020
0.0
1030
0.0
  0
LINE
  5
837
330
11D
100
AcDbEntity
  8
1
  6
Continuous
 62
     4
100
AcDbLine
 10
639.9604725674535
 20
605.5436819166274
 30
0.0
 11
678.7537263688549
 21
644.336935718029
 31
0.0
1001
ACAD
1010
0.0
1020
0.0
1030
0.0
  0
LINE
  5
838
330
11D
100
AcDbEntity
  8
1
  6
Continuous
 62
     4
100
AcDbLine
 10
650.5670742852515
 20
605.5436819166274
 30
0.0
 11
689.3603267517272
 21
644.3369343831034
 31
0.0
1001
ACAD
1010
0.0
1020
0.0
1030
0.0
  0
LINE
  5
839
330
11D
100
AcDbEntity
  8
1
  6
Continuous
 62
     4
100
AcDbLine
 10
661.1736760030497
 20
605.5436819166274
 30
0.0
 11
699.966928469526
 21
644.3369343831034
 31
0.0
1001
ACAD
1010
0.0
1020
0.0
1030
0.0
  0
LINE
  5
83A
330
11D
100
AcDbEntity
  8
1
  6
Continuous
 62
     4
100
AcDbLine
 10
671.780277720848
 20
605.5436819166274
 30
0.0
 11
710.57353152225
 21
644.336935718029
 31
0.0
1001
ACAD
1010
0.0
1020
0.0
1030
0.0
  0
LINE
  5
83B
330
11D
100
AcDbEntity
  8
1
  6
Continuous
 62
     4
100
AcDbLine
 10
682.3868807735721
 20
605.5436832515529
 30
0.0
 11
721.1801332400482
 21
644.336935718029
 31
0.0
1001
ACAD
1010
0.0
1020
0.0
1030
0.0
  0
LINE
  5
83C
330
11D
100
AcDbEntity
  8
1
  6
Continuous
 62
     4
100
AcDbLine
 10
692.9934824913702
 20
605.5436832515529
 30
0.0
 11
731.7867349578464
 21
644.336935718029
 31
0.0
1001
ACAD
1010
0.0
1020
0.0
1030
0.0
  0
LINE
  5
83D
330
11D
100
AcDbEntity
  8
1
  6
Continuous
 62
     4
100
AcDbLine
 10
703.6000842091688
 20
605.5436832515529
 30
0.0
 11
742.3933380105705
 21
644.3369370529547
 31
0.0
1001
ACAD
1010
0.0
1020
0.0
1030
0.0
  0
LINE
  5
83E
330
11D
100
AcDbEntity
  8
1
  6
Continuous
 62
     4
100
AcDbLine
 10
714.2066859269671
 20
605.5436832515529
 30
0.0
 11
752.9999383934426
 21
644.336935718029
 31
0.0
1001
ACAD
1010
0.0
1020
0.0
1030
0.0
  0
LINE
  5
83F
330
11D
100
AcDbEntity
  8
1
  6
Continuous
 62
     4
100
AcDbLine
 10
724.8132876447653
 20
605.5436832515529
 30
0.0
 11
763.6065401112412
 21
644.336935718029
 31
0.0
1001
ACAD
1010
0.0
1020
0.0
1030
0.0
  0
LINE
  5
840
330
11D
100
AcDbEntity
  8
1
  6
Continuous
 62
     4
100
AcDbLine
 10
735.4198893625635
 20
605.5436832515529
 30
0.0
 11
774.2131431639655
 21
644.3369370529547
 31
0.0
1001
ACAD
1010
0.0
1020
0.0
1030
0.0
  0
LINE
  5
843
330
11D
100
AcDbEntity
  8
1
  6
Continuous
 62
     4
100
AcDbLine
 10
1070.214381729569
 20
638.2601740854207
 30
0.0
 11
1076.291143362178
 21
644.3369357180288
 31
0.0
1001
ACAD
1010
0.0
1020
0.0
1030
0.0
  0
LINE
  5
844
330
11D
100
AcDbEntity
  8
1
  6
Continuous
 62
     4
100
AcDbLine
 10
1070.214381729569
 20
627.6535723676227
 30
0.0
 11
1086.897745079975
 21
644.3369357180288
 31
0.0
1001
ACAD
1010
0.0
1020
0.0
1030
0.0
  0
LINE
  5
845
330
11D
100
AcDbEntity
  8
1
  6
Continuous
 62
     4
100
AcDbLine
 10
1070.214381729569
 20
617.0469706498248
 30
0.0
 11
1097.504346797774
 21
644.3369357180288
 31
0.0
1001
ACAD
1010
0.0
1020
0.0
1030
0.0
  0
LINE
  5
846
330
11D
100
AcDbEntity
  8
1
  6
Continuous
 62
     4
100
AcDbLine
 10
1070.214381729569
 20
606.4403689320267
 30
0.0
 11
1108.11094851557
 21
644.336935718029
 31
0.0
1001
ACAD
1010
0.0
1020
0.0
1030
0.0
  0
LINE
  5
847
330
11D
100
AcDbEntity
  8
1
  6
Continuous
 62
     4
100
AcDbLine
 10
1079.627431100371
 20
605.2468165850299
 30
0.0
 11
1118.717550233369
 21
644.3369357180288
 31
0.0
1001
ACAD
1010
0.0
1020
0.0
1030
0.0
  0
LINE
  5
848
330
11D
100
AcDbEntity
  8
1
  6
Continuous
 62
     4
100
AcDbLine
 10
1090.234032818169
 20
605.2468165850299
 30
0.0
 11
1129.324151951167
 21
644.3369357180288
 31
0.0
1001
ACAD
1010
0.0
1020
0.0
1030
0.0
  0
LINE
  5
849
330
11D
100
AcDbEntity
  8
1
  6
Continuous
 62
     4
100
AcDbLine
 10
1100.840634535966
 20
605.2468165850299
 30
0.0
 11
1139.930753668965
 21
644.336935718029
 31
0.0
1001
ACAD
1010
0.0
1020
0.0
1030
0.0
  0
LINE
  5
84D
330
11D
100
AcDbEntity
  8
1
  6
Continuous
 62
     4
100
AcDbLine
 10
1111.447236253763
 20
605.2468165850299
 30
0.0
 11
1150.537355386763
 21
644.336935718029
 31
0.0
1001
ACAD
1010
0.0
1020
0.0
1030
0.0
  0
LINE
  5
84E
330
11D
100
AcDbEntity
  8
1
  6
Continuous
 62
     4
100
AcDbLine
 10
1122.053837971562
 20
605.2468165850299
 30
0.0
 11
1161.14395710456
 21
644.336935718029
 31
0.0
1001
ACAD
1010
0.0
1020
0.0
1030
0.0
  0
LINE
  5
84F
330
11D
100
AcDbEntity
  8
1
  6
Continuous
 62
     4
100
AcDbLine
 10
1132.660439689359
 20
605.2468165850299
 30
0.0
 11
1171.750558822359
 21
644.3369357180293
 31
0.0
1001
ACAD
1010
0.0
1020
0.0
1030
0.0
  0
LINE
  5
850
330
11D
100
AcDbEntity
  8
1
  6
Continuous
 62
     4
100
AcDbLine
 10
1143.267041407158
 20
605.2468165850299
 30
0.0
 11
1182.357160540155
 21
644.336935718029
 31
0.0
1001
ACAD
1010
0.0
1020
0.0
1030
0.0
  0
LINE
  5
851
330
11D
100
AcDbEntity
  8
1
  6
Continuous
 62
     4
100
AcDbLine
 10
1153.873643124956
 20
605.2468165850299
 30
0.0
 11
1192.963762257954
 21
644.336935718029
 31
0.0
1001
ACAD
1010
0.0
1020
0.0
1030
0.0
  0
LINE
  5
852
330
11D
100
AcDbEntity
  8
1
  6
Continuous
 62
     4
100
AcDbLine
 10
1164.480244842752
 20
605.2468165850299
 30
0.0
 11
1203.570363975752
 21
644.3369357180293
 31
0.0
1001
ACAD
1010
0.0
1020
0.0
1030
0.0
  0
LINE
  5
853
330
11D
100
AcDbEntity
  8
1
  6
Continuous
 62
     4
100
AcDbLine
 10
1175.086846560551
 20
605.2468165850299
 30
0.0
 11
1214.176965693549
 21
644.336935718029
 31
0.0
1001
ACAD
1010
0.0
1020
0.0
1030
0.0
  0
LINE
  5
854
330
11D
100
AcDbEntity
  8
1
  6
Continuous
 62
     4
100
AcDbLine
 10
1185.69344827835
 20
605.2468165850299
 30
0.0
 11
1224.783567411348
 21
644.336935718029
 31
0.0
1001
ACAD
1010
0.0
1020
0.0
1030
0.0
  0
LINE
  5
855
330
11D
100
AcDbEntity
  8
1
  6
Continuous
 62
     4
100
AcDbLine
 10
1196.300049996147
 20
605.2468165850299
 30
0.0
 11
1235.390169129146
 21
644.3369357180293
 31
0.0
1001
ACAD
1010
0.0
1020
0.0
1030
0.0
  0
LINE
  5
856
330
11D
100
AcDbEntity
  8
1
  6
Continuous
 62
     4
100
AcDbLine
 10
1206.906651713945
 20
605.2468165850299
 30
0.0
 11
1245.996770846944
 21
644.336935718029
 31
0.0
1001
ACAD
1010
0.0
1020
0.0
1030
0.0
  0
LINE
  5
857
330
11D
100
AcDbEntity
  8
1
  6
Continuous
 62
     4
100
AcDbLine
 10
1217.513253431743
 20
605.2468165850299
 30
0.0
 11
1256.603372564741
 21
644.336935718029
 31
0.0
1001
ACAD
1010
0.0
1020
0.0
1030
0.0
  0
LINE
  5
858
330
11D
100
AcDbEntity
  8
1
  6
Continuous
 62
     4
100
AcDbLine
 10
1228.119855149541
 20
605.2468165850299
 30
0.0
 11
1267.20997428254
 21
644.3369357180293
 31
0.0
1001
ACAD
1010
0.0
1020
0.0
1030
0.0
  0
LINE
  5
859
330
11D
100
AcDbEntity
  8
1
  6
Continuous
 62
     4
100
AcDbLine
 10
1238.726456867339
 20
605.2468165850301
 30
0.0
 11
1277.816576000337
 21
644.3369357180293
 31
0.0
1001
ACAD
1010
0.0
1020
0.0
1030
0.0
  0
LINE
  5
85A
330
11D
100
AcDbEntity
  8
1
  6
Continuous
 62
     4
100
AcDbLine
 10
1249.333058585136
 20
605.2468165850301
 30
0.0
 11
1288.423177718136
 21
644.3369357180293
 31
0.0
1001
ACAD
1010
0.0
1020
0.0
1030
0.0
  0
LINE
  5
85B
330
11D
100
AcDbEntity
  8
1
  6
Continuous
 62
     4
100
AcDbLine
 10
1259.939660302934
 20
605.2468165850301
 30
0.0
 11
1299.029779435933
 21
644.3369357180293
 31
0.0
1001
ACAD
1010
0.0
1020
0.0
1030
0.0
  0
LINE
  5
85C
330
11D
100
AcDbEntity
  8
1
  6
Continuous
 62
     4
100
AcDbLine
 10
1270.546262020733
 20
605.2468165850304
 30
0.0
 11
1306.605420760314
 21
641.3059753246117
 31
0.0
1001
ACAD
1010
0.0
1020
0.0
1030
0.0
  0
LINE
  5
85D
330
11D
100
AcDbEntity
  8
1
  6
Continuous
 62
     4
100
AcDbLine
 10
1281.152863738531
 20
605.2468165850304
 30
0.0
 11
1306.605420760314
 21
630.6993736068136
 31
0.0
1001
ACAD
1010
0.0
1020
0.0
1030
0.0
  0
LINE
  5
85E
330
11D
100
AcDbEntity
  8
1
  6
Continuous
 62
     4
100
AcDbLine
 10
1291.759465456328
 20
605.2468165850304
 30
0.0
 11
1306.605420760314
 21
620.0927718890157
 31
0.0
1001
ACAD
1010
0.0
1020
0.0
1030
0.0
  0
LINE
  5
861
330
11D
100
AcDbEntity
  8
1
  6
Continuous
 62
     4
100
AcDbLine
 10
1302.366067174125
 20
605.2468165850299
 30
0.0
 11
1306.605420760314
 21
609.4861701712175
 31
0.0
1001
ACAD
1010
0.0
1020
0.0
1030
0.0
  0
LINE
  5
862
330
11D
100
AcDbEntity
  8
1
  6
Continuous
 62
     4
100
AcDbLine
 10
545.6299012201333
 20
256.3691751928395
 30
0.0
 11
551.7182252225451
 21
262.4574991952513
 31
0.0
1001
ACAD
1010
0.0
1020
0.0
1030
0.0
  0
LINE
  5
863
330
11D
100
AcDbEntity
  8
1
  6
Continuous
 62
     4
100
AcDbLine
 10
545.6399692896052
 20
245.7726415445129
 30
0.0
 11
562.3248269403439
 21
262.4574991952513
 31
0.0
1001
ACAD
1010
0.0
1020
0.0
1030
0.0
  0
LINE
  5
864
330
11D
100
AcDbEntity
  8
1
  6
Continuous
 62
     4
100
AcDbLine
 10
545.650037359077
 20
235.176107896186
 30
0.0
 11
572.931428658142
 21
262.4574991952513
 31
0.0
1001
ACAD
1010
0.0
1020
0.0
1030
0.0
  0
LINE
  5
865
330
11D
100
AcDbEntity
  8
1
  6
Continuous
 62
     4
100
AcDbLine
 10
545.6601054285482
 20
224.5795742478594
 30
0.0
 11
583.5380303759402
 21
262.4574991952513
 31
0.0
1001
ACAD
1010
0.0
1020
0.0
1030
0.0
  0
LINE
  5
866
330
11D
100
AcDbEntity
  8
1
  6
Continuous
 62
     4
100
AcDbLine
 10
555.3513775858813
 20
223.6642446873941
 30
0.0
 11
594.1446320937384
 21
262.4574991952513
 31
0.0
1001
ACAD
1010
0.0
1020
0.0
1030
0.0
  0
LINE
  5
867
330
11D
100
AcDbEntity
  8
1
  6
Continuous
 62
     4
100
AcDbLine
 10
565.9579793036799
 20
223.6642446873941
 30
0.0
 11
604.7512338115366
 21
262.4574991952513
 31
0.0
1001
ACAD
1010
0.0
1020
0.0
1030
0.0
  0
LINE
  5
868
330
11D
100
AcDbEntity
  8
1
  6
Continuous
 62
     4
100
AcDbLine
 10
576.5645810214782
 20
223.6642446873942
 30
0.0
 11
615.3578355293352
 21
262.4574991952513
 31
0.0
1001
ACAD
1010
0.0
1020
0.0
1030
0.0
  0
LINE
  5
869
330
11D
100
AcDbEntity
  8
1
  6
Continuous
 62
     4
100
AcDbLine
 10
587.1711827392763
 20
223.6642446873942
 30
0.0
 11
625.9644372471334
 21
262.4574991952513
 31
0.0
1001
ACAD
1010
0.0
1020
0.0
1030
0.0
  0
LINE
  5
86A
330
11D
100
AcDbEntity
  8
1
  6
Continuous
 62
     4
100
AcDbLine
 10
597.7777844570746
 20
223.6642446873941
 30
0.0
 11
636.5710389649316
 21
262.4574991952513
 31
0.0
1001
ACAD
1010
0.0
1020
0.0
1030
0.0
  0
LINE
  5
86B
330
11D
100
AcDbEntity
  8
1
  6
Continuous
 62
     4
100
AcDbLine
 10
608.3843861748727
 20
223.6642446873941
 30
0.0
 11
647.1776406827302
 21
262.4574991952513
 31
0.0
1001
ACAD
1010
0.0
1020
0.0
1030
0.0
  0
LINE
  5
86C
330
11D
100
AcDbEntity
  8
1
  6
Continuous
 62
     4
100
AcDbLine
 10
618.9909878926713
 20
223.6642446873942
 30
0.0
 11
657.7842424005284
 21
262.4574991952513
 31
0.0
1001
ACAD
1010
0.0
1020
0.0
1030
0.0
  0
LINE
  5
86D
330
11D
100
AcDbEntity
  8
1
  6
Continuous
 62
     4
100
AcDbLine
 10
629.5975896104696
 20
223.6642446873942
 30
0.0
 11
668.3908441183266
 21
262.4574991952513
 31
0.0
1001
ACAD
1010
0.0
1020
0.0
1030
0.0
  0
LINE
  5
86E
330
11D
100
AcDbEntity
  8
1
  6
Continuous
 62
     4
100
AcDbLine
 10
640.2041913282677
 20
223.6642446873941
 30
0.0
 11
678.9974458361247
 21
262.4574991952513
 31
0.0
1001
ACAD
1010
0.0
1020
0.0
1030
0.0
  0
LINE
  5
86F
330
11D
100
AcDbEntity
  8
1
  6
Continuous
 62
     4
100
AcDbLine
 10
650.8107930460663
 20
223.6642446873941
 30
0.0
 11
689.604047553923
 21
262.4574991952513
 31
0.0
1001
ACAD
1010
0.0
1020
0.0
1030
0.0
  0
LINE
  5
870
330
11D
100
AcDbEntity
  8
1
  6
Continuous
 62
     4
100
AcDbLine
 10
661.4173947638646
 20
223.6642446873942
 30
0.0
 11
700.2106492717216
 21
262.4574991952513
 31
0.0
1001
ACAD
1010
0.0
1020
0.0
1030
0.0
  0
LINE
  5
871
330
11D
100
AcDbEntity
  8
1
  6
Continuous
 62
     4
100
AcDbLine
 10
672.0239964816627
 20
223.6642446873942
 30
0.0
 11
710.8172509895198
 21
262.4574991952513
 31
0.0
1001
ACAD
1010
0.0
1020
0.0
1030
0.0
  0
LINE
  5
872
330
11D
100
AcDbEntity
  8
1
  6
Continuous
 62
     4
100
AcDbLine
 10
682.630598199461
 20
223.6642446873941
 30
0.0
 11
721.423852707318
 21
262.4574991952513
 31
0.0
1001
ACAD
1010
0.0
1020
0.0
1030
0.0
  0
LINE
  5
873
330
11D
100
AcDbEntity
  8
1
  6
Continuous
 62
     4
100
AcDbLine
 10
693.2371999172592
 20
223.6642446873941
 30
0.0
 11
732.0304544251165
 21
262.4574991952513
 31
0.0
1001
ACAD
1010
0.0
1020
0.0
1030
0.0
  0
LINE
  5
874
330
11D
100
AcDbEntity
  8
1
  6
Continuous
 62
     4
100
AcDbLine
 10
703.8438016350577
 20
223.6642446873942
 30
0.0
 11
742.6370561429147
 21
262.4574991952513
 31
0.0
1001
ACAD
1010
0.0
1020
0.0
1030
0.0
  0
LINE
  5
875
330
11D
100
AcDbEntity
  8
1
  6
Continuous
 62
     4
100
AcDbLine
 10
714.450403352856
 20
223.6642446873942
 30
0.0
 11
753.243657860713
 21
262.4574991952513
 31
0.0
1001
ACAD
1010
0.0
1020
0.0
1030
0.0
  0
LINE
  5
876
330
11D
100
AcDbEntity
  8
1
  6
Continuous
 62
     4
100
AcDbLine
 10
725.0570050706543
 20
223.6642446873941
 30
0.0
 11
763.8502595785112
 21
262.4574991952513
 31
0.0
1001
ACAD
1010
0.0
1020
0.0
1030
0.0
  0
LINE
  5
877
330
11D
100
AcDbEntity
  8
1
  6
Continuous
 62
     4
100
AcDbLine
 10
735.6636067884529
 20
223.6642446873941
 30
0.0
 11
774.4568612963091
 21
262.4574991952513
 31
0.0
1001
ACAD
1010
0.0
1020
0.0
1030
0.0
  0
LINE
  5
878
330
11D
100
AcDbEntity
  8
1
  6
Continuous
 62
     4
100
AcDbLine
 10
746.270208506251
 20
223.6642446873942
 30
0.0
 11
785.0634630141079
 21
262.4574991952513
 31
0.0
1001
ACAD
1010
0.0
1020
0.0
1030
0.0
  0
LINE
  5
879
330
11D
100
AcDbEntity
  8
1
  6
Continuous
 62
     4
100
AcDbLine
 10
756.8768102240492
 20
223.6642446873942
 30
0.0
 11
795.6700647319063
 21
262.4574991952513
 31
0.0
1001
ACAD
1010
0.0
1020
0.0
1030
0.0
  0
LINE
  5
87A
330
11D
100
AcDbEntity
  8
1
  6
Continuous
 62
     4
100
AcDbLine
 10
767.4834119418472
 20
223.6642446873941
 30
0.0
 11
806.2766664497043
 21
262.4574991952513
 31
0.0
1001
ACAD
1010
0.0
1020
0.0
1030
0.0
  0
LINE
  5
87B
330
11D
100
AcDbEntity
  8
1
  6
Continuous
 62
     4
100
AcDbLine
 10
778.0900136596455
 20
223.6642446873941
 30
0.0
 11
816.8832681675031
 21
262.4574991952513
 31
0.0
1001
ACAD
1010
0.0
1020
0.0
1030
0.0
  0
LINE
  5
87C
330
11D
100
AcDbEntity
  8
1
  6
Continuous
 62
     4
100
AcDbLine
 10
788.6966153774443
 20
223.6642446873942
 30
0.0
 11
827.4898698853013
 21
262.4574991952513
 31
0.0
1001
ACAD
1010
0.0
1020
0.0
1030
0.0
  0
LINE
  5
87D
330
11D
100
AcDbEntity
  8
1
  6
Continuous
 62
     4
100
AcDbLine
 10
799.3032170952423
 20
223.6642446873942
 30
0.0
 11
838.0964716030995
 21
262.4574991952513
 31
0.0
1001
ACAD
1010
0.0
1020
0.0
1030
0.0
  0
LINE
  5
87E
330
11D
100
AcDbEntity
  8
1
  6
Continuous
 62
     4
100
AcDbLine
 10
809.9098188130406
 20
223.6642446873941
 30
0.0
 11
848.7030733208976
 21
262.4574991952513
 31
0.0
1001
ACAD
1010
0.0
1020
0.0
1030
0.0
  0
LINE
  5
87F
330
11D
100
AcDbEntity
  8
1
  6
Continuous
 62
     4
100
AcDbLine
 10
820.5164205308392
 20
223.6642446873941
 30
0.0
 11
859.3096750386957
 21
262.4574991952513
 31
0.0
1001
ACAD
1010
0.0
1020
0.0
1030
0.0
  0
LINE
  5
880
330
11D
100
AcDbEntity
  8
1
  6
Continuous
 62
     4
100
AcDbLine
 10
831.1230222486374
 20
223.6642446873942
 30
0.0
 11
869.9162767564944
 21
262.4574991952513
 31
0.0
1001
ACAD
1010
0.0
1020
0.0
1030
0.0
  0
LINE
  5
881
330
11D
100
AcDbEntity
  8
1
  6
Continuous
 62
     4
100
AcDbLine
 10
841.7296239664358
 20
223.6642446873942
 30
0.0
 11
880.5228784742926
 21
262.4574991952513
 31
0.0
1001
ACAD
1010
0.0
1020
0.0
1030
0.0
  0
LINE
  5
882
330
11D
100
AcDbEntity
  8
1
  6
Continuous
 62
     4
100
AcDbLine
 10
852.3362256842336
 20
223.6642446873941
 30
0.0
 11
891.1294801920908
 21
262.4574991952513
 31
0.0
1001
ACAD
1010
0.0
1020
0.0
1030
0.0
  0
LINE
  5
883
330
11D
100
AcDbEntity
  8
1
  6
Continuous
 62
     4
100
AcDbLine
 10
862.942827402032
 20
223.6642446873941
 30
0.0
 11
901.7360819098897
 21
262.4574991952513
 31
0.0
1001
ACAD
1010
0.0
1020
0.0
1030
0.0
  0
LINE
  5
884
330
11D
100
AcDbEntity
  8
1
  6
Continuous
 62
     4
100
AcDbLine
 10
873.5494291198305
 20
223.6642446873942
 30
0.0
 11
912.3426836276877
 21
262.4574991952513
 31
0.0
1001
ACAD
1010
0.0
1020
0.0
1030
0.0
  0
LINE
  5
885
330
11D
100
AcDbEntity
  8
1
  6
Continuous
 62
     4
100
AcDbLine
 10
884.1560308376287
 20
223.6642446873942
 30
0.0
 11
922.9492853454857
 21
262.4574991952513
 31
0.0
1001
ACAD
1010
0.0
1020
0.0
1030
0.0
  0
LINE
  5
886
330
11D
100
AcDbEntity
  8
1
  6
Continuous
 62
     4
100
AcDbLine
 10
894.7626325554269
 20
223.6642446873941
 30
0.0
 11
933.5558870632839
 21
262.4574991952513
 31
0.0
1001
ACAD
1010
0.0
1020
0.0
1030
0.0
  0
LINE
  5
887
330
11D
100
AcDbEntity
  8
1
  6
Continuous
 62
     4
100
AcDbLine
 10
905.3692342732254
 20
223.6642446873941
 30
0.0
 11
944.1624887810819
 21
262.4574991952513
 31
0.0
1001
ACAD
1010
0.0
1020
0.0
1030
0.0
  0
LINE
  5
888
330
11D
100
AcDbEntity
  8
1
  6
Continuous
 62
     4
100
AcDbLine
 10
915.9758359910236
 20
223.6642446873942
 30
0.0
 11
954.7690904988808
 21
262.4574991952513
 31
0.0
1001
ACAD
1010
0.0
1020
0.0
1030
0.0
  0
LINE
  5
889
330
11D
100
AcDbEntity
  8
1
  6
Continuous
 62
     4
100
AcDbLine
 10
926.582437708822
 20
223.6642446873942
 30
0.0
 11
965.3756922166788
 21
262.4574991952513
 31
0.0
1001
ACAD
1010
0.0
1020
0.0
1030
0.0
  0
LINE
  5
88A
330
11D
100
AcDbEntity
  8
1
  6
Continuous
 62
     4
100
AcDbLine
 10
937.1890394266202
 20
223.6642446873941
 30
0.0
 11
975.9822939344772
 21
262.4574991952513
 31
0.0
1001
ACAD
1010
0.0
1020
0.0
1030
0.0
  0
LINE
  5
88B
330
11D
100
AcDbEntity
  8
1
  6
Continuous
 62
     4
100
AcDbLine
 10
947.7956411444184
 20
223.6642446873941
 30
0.0
 11
986.5888956522757
 21
262.4574991952513
 31
0.0
1001
ACAD
1010
0.0
1020
0.0
1030
0.0
  0
LINE
  5
88C
330
11D
100
AcDbEntity
  8
1
  6
Continuous
 62
     4
100
AcDbLine
 10
958.4022428622168
 20
223.6642446873942
 30
0.0
 11
997.1954973700739
 21
262.4574991952513
 31
0.0
1001
ACAD
1010
0.0
1020
0.0
1030
0.0
  0
LINE
  5
88D
330
11D
100
AcDbEntity
  8
1
  6
Continuous
 62
     4
100
AcDbLine
 10
969.0088445800153
 20
223.6642446873942
 30
0.0
 11
1007.802099087871
 21
262.4574991952513
 31
0.0
1001
ACAD
1010
0.0
1020
0.0
1030
0.0
  0
LINE
  5
88E
330
11D
100
AcDbEntity
  8
1
  6
Continuous
 62
     4
100
AcDbLine
 10
979.6154462978133
 20
223.6642446873941
 30
0.0
 11
1018.408700805669
 21
262.4574991952513
 31
0.0
1001
ACAD
1010
0.0
1020
0.0
1030
0.0
  0
LINE
  5
88F
330
11D
100
AcDbEntity
  8
1
  6
Continuous
 62
     4
100
AcDbLine
 10
990.222048015612
 20
223.6642446873941
 30
0.0
 11
1029.015302523468
 21
262.4574991952513
 31
0.0
1001
ACAD
1010
0.0
1020
0.0
1030
0.0
  0
LINE
  5
890
330
11D
100
AcDbEntity
  8
1
  6
Continuous
 62
     4
100
AcDbLine
 10
1000.82864973341
 20
223.6642446873942
 30
0.0
 11
1039.621904241266
 21
262.4574991952513
 31
0.0
1001
ACAD
1010
0.0
1020
0.0
1030
0.0
  0
LINE
  5
891
330
11D
100
AcDbEntity
  8
1
  6
Continuous
 62
     4
100
AcDbLine
 10
1011.435251451208
 20
223.6642446873942
 30
0.0
 11
1050.228505959065
 21
262.4574991952513
 31
0.0
1001
ACAD
1010
0.0
1020
0.0
1030
0.0
  0
LINE
  5
892
330
11D
100
AcDbEntity
  8
1
  6
Continuous
 62
     4
100
AcDbLine
 10
1022.041853169006
 20
223.6642446873941
 30
0.0
 11
1060.835107676864
 21
262.4574991952513
 31
0.0
1001
ACAD
1010
0.0
1020
0.0
1030
0.0
  0
LINE
  5
893
330
11D
100
AcDbEntity
  8
1
  6
Continuous
 62
     4
100
AcDbLine
 10
1032.648454886805
 20
223.6642446873941
 30
0.0
 11
1071.441709394661
 21
262.4574991952513
 31
0.0
1001
ACAD
1010
0.0
1020
0.0
1030
0.0
  0
LINE
  5
894
330
11D
100
AcDbEntity
  8
1
  6
Continuous
 62
     4
100
AcDbLine
 10
1043.255056604603
 20
223.6642446873942
 30
0.0
 11
1082.04831111246
 21
262.4574991952513
 31
0.0
1001
ACAD
1010
0.0
1020
0.0
1030
0.0
  0
LINE
  5
895
330
11D
100
AcDbEntity
  8
1
  6
Continuous
 62
     4
100
AcDbLine
 10
1053.8616583224
 20
223.6642446873942
 30
0.0
 11
1092.654912830258
 21
262.4574991952513
 31
0.0
1001
ACAD
1010
0.0
1020
0.0
1030
0.0
  0
LINE
  5
896
330
11D
100
AcDbEntity
  8
1
  6
Continuous
 62
     4
100
AcDbLine
 10
1064.4682600402
 20
223.6642446873941
 30
0.0
 11
1103.261514548057
 21
262.4574991952513
 31
0.0
1001
ACAD
1010
0.0
1020
0.0
1030
0.0
  0
LINE
  5
897
330
11D
100
AcDbEntity
  8
1
  6
Continuous
 62
     4
100
AcDbLine
 10
1075.074861757997
 20
223.6642446873941
 30
0.0
 11
1113.868116265855
 21
262.4574991952513
 31
0.0
1001
ACAD
1010
0.0
1020
0.0
1030
0.0
  0
LINE
  5
898
330
11D
100
AcDbEntity
  8
1
  6
Continuous
 62
     4
100
AcDbLine
 10
1085.681463475796
 20
223.6642446873942
 30
0.0
 11
1124.474717983652
 21
262.4574991952513
 31
0.0
1001
ACAD
1010
0.0
1020
0.0
1030
0.0
  0
LINE
  5
899
330
11D
100
AcDbEntity
  8
1
  6
Continuous
 62
     4
100
AcDbLine
 10
1096.288065193594
 20
223.6642446873942
 30
0.0
 11
1135.08131970145
 21
262.4574991952513
 31
0.0
1001
ACAD
1010
0.0
1020
0.0
1030
0.0
  0
LINE
  5
89A
330
11D
100
AcDbEntity
  8
1
  6
Continuous
 62
     4
100
AcDbLine
 10
1106.894666911393
 20
223.6642446873941
 30
0.0
 11
1145.687921419249
 21
262.4574991952513
 31
0.0
1001
ACAD
1010
0.0
1020
0.0
1030
0.0
  0
LINE
  5
89B
330
11D
100
AcDbEntity
  8
1
  6
Continuous
 62
     4
100
AcDbLine
 10
1117.50126862919
 20
223.6642446873941
 30
0.0
 11
1156.294523137048
 21
262.4574991952513
 31
0.0
1001
ACAD
1010
0.0
1020
0.0
1030
0.0
  0
LINE
  5
89C
330
11D
100
AcDbEntity
  8
1
  6
Continuous
 62
     4
100
AcDbLine
 10
1128.107870346988
 20
223.6642446873942
 30
0.0
 11
1166.901124854847
 21
262.4574991952513
 31
0.0
1001
ACAD
1010
0.0
1020
0.0
1030
0.0
  0
LINE
  5
89D
330
11D
100
AcDbEntity
  8
1
  6
Continuous
 62
     4
100
AcDbLine
 10
1138.714472064788
 20
223.6642446873942
 30
0.0
 11
1177.507726572645
 21
262.4574991952513
 31
0.0
1001
ACAD
1010
0.0
1020
0.0
1030
0.0
  0
LINE
  5
89E
330
11D
100
AcDbEntity
  8
1
  6
Continuous
 62
     4
100
AcDbLine
 10
1149.321073782586
 20
223.6642446873941
 30
0.0
 11
1188.114328290443
 21
262.4574991952513
 31
0.0
1001
ACAD
1010
0.0
1020
0.0
1030
0.0
  0
LINE
  5
89F
330
11D
100
AcDbEntity
  8
1
  6
Continuous
 62
     4
100
AcDbLine
 10
1159.927675500385
 20
223.6642446873941
 30
0.0
 11
1198.72093000824
 21
262.4574991952513
 31
0.0
1001
ACAD
1010
0.0
1020
0.0
1030
0.0
  0
LINE
  5
8A0
330
11D
100
AcDbEntity
  8
1
  6
Continuous
 62
     4
100
AcDbLine
 10
1170.534277218183
 20
223.6642446873942
 30
0.0
 11
1209.327531726039
 21
262.4574991952513
 31
0.0
1001
ACAD
1010
0.0
1020
0.0
1030
0.0
  0
LINE
  5
8A1
330
11D
100
AcDbEntity
  8
1
  6
Continuous
 62
     4
100
AcDbLine
 10
1181.14087893598
 20
223.6642446873942
 30
0.0
 11
1219.934133443838
 21
262.4574991952513
 31
0.0
1001
ACAD
1010
0.0
1020
0.0
1030
0.0
  0
LINE
  5
8A2
330
11D
100
AcDbEntity
  8
1
  6
Continuous
 62
     4
100
AcDbLine
 10
1191.747480653779
 20
223.6642446873941
 30
0.0
 11
1230.540735161637
 21
262.4574991952513
 31
0.0
1001
ACAD
1010
0.0
1020
0.0
1030
0.0
  0
LINE
  5
8A3
330
11D
100
AcDbEntity
  8
1
  6
Continuous
 62
     4
100
AcDbLine
 10
1202.354082371577
 20
223.6642446873941
 30
0.0
 11
1241.147336879435
 21
262.4574991952513
 31
0.0
1001
ACAD
1010
0.0
1020
0.0
1030
0.0
  0
LINE
  5
8A4
330
11D
100
AcDbEntity
  8
1
  6
Continuous
 62
     4
100
AcDbLine
 10
1212.960684089376
 20
223.6642446873942
 30
0.0
 11
1251.753938597232
 21
262.4574991952513
 31
0.0
1001
ACAD
1010
0.0
1020
0.0
1030
0.0
  0
LINE
  5
8A5
330
11D
100
AcDbEntity
  8
1
  6
Continuous
 62
     4
100
AcDbLine
 10
1223.567285807174
 20
223.6642446873942
 30
0.0
 11
1262.360540315031
 21
262.4574991952513
 31
0.0
1001
ACAD
1010
0.0
1020
0.0
1030
0.0
  0
LINE
  5
8A6
330
11D
100
AcDbEntity
  8
1
  6
Continuous
 62
     4
100
AcDbLine
 10
1234.173887524973
 20
223.6642446873941
 30
0.0
 11
1272.967142032829
 21
262.4574991952513
 31
0.0
1001
ACAD
1010
0.0
1020
0.0
1030
0.0
  0
LINE
  5
8A7
330
11D
100
AcDbEntity
  8
1
  6
Continuous
 62
     4
100
AcDbLine
 10
1244.780489242771
 20
223.6642446873941
 30
0.0
 11
1283.573743750628
 21
262.4574991952513
 31
0.0
1001
ACAD
1010
0.0
1020
0.0
1030
0.0
  0
LINE
  5
8A8
330
11D
100
AcDbEntity
  8
1
  6
Continuous
 62
     4
100
AcDbLine
 10
1255.387090960569
 20
223.6642446873942
 30
0.0
 11
1294.180345468426
 21
262.4574991952513
 31
0.0
1001
ACAD
1010
0.0
1020
0.0
1030
0.0
  0
LINE
  5
8A9
330
11D
100
AcDbEntity
  8
1
  6
Continuous
 62
     4
100
AcDbLine
 10
1265.993692678367
 20
223.6642446873942
 30
0.0
 11
1304.786947186224
 21
262.4574991952513
 31
0.0
1001
ACAD
1010
0.0
1020
0.0
1030
0.0
  0
LINE
  5
8AA
330
11D
100
AcDbEntity
  8
1
  6
Continuous
 62
     4
100
AcDbLine
 10
1276.600294396166
 20
223.6642446873941
 30
0.0
 11
1306.605420760314
 21
253.6693710515421
 31
0.0
1001
ACAD
1010
0.0
1020
0.0
1030
0.0
  0
LINE
  5
8AB
330
11D
100
AcDbEntity
  8
1
  6
Continuous
 62
     4
100
AcDbLine
 10
1287.206896113963
 20
223.6642446873941
 30
0.0
 11
1306.605420760314
 21
243.0627693337438
 31
0.0
1001
ACAD
1010
0.0
1020
0.0
1030
0.0
  0
LINE
  5
8AC
330
11D
100
AcDbEntity
  8
1
  6
Continuous
 62
     4
100
AcDbLine
 10
1297.813497831762
 20
223.6642446873942
 30
0.0
 11
1306.605420760314
 21
232.4561676159455
 31
0.0
1001
ACAD
1010
0.0
1020
0.0
1030
0.0
  0
LINE
  5
8AE
330
11D
100
AcDbEntity
  8
1
  6
Continuous
 62
     4
100
AcDbLine
 10
1140.481762860406
 20
724.5500339946691
 30
0.0
 11
1140.494622436942
 21
780.9092714152716
 31
0.0
1001
ACAD
1010
0.0
1020
0.0
1030
0.0
  0
LINE
  5
8AF
330
11D
100
AcDbEntity
  8
1
  6
Continuous
 62
     4
100
AcDbLine
 10
1147.983473952016
 20
732.0483225125919
 30
0.0
 11
1147.996333528554
 21
788.4075599331962
 31
0.0
1001
ACAD
1010
0.0
1020
0.0
1030
0.0
  0
LINE
  5
8B2
330
11D
100
AcDbEntity
  8
1
  6
Continuous
 62
     4
100
AcDbLine
 10
1132.980051768796
 20
717.0517454767445
 30
0.0
 11
1132.992911345332
 21
773.4109828973469
 31
0.0
1001
ACAD
1010
0.0
1020
0.0
1030
0.0
  0
LINE
  5
8B3
330
11D
100
AcDbEntity
  8
1
  6
Continuous
 62
     4
100
AcDbLine
 10
1125.478340677185
 20
709.55345695882
 30
0.0
 11
1125.491200253722
 21
765.9126943794224
 31
0.0
1001
ACAD
1010
0.0
1020
0.0
1030
0.0
  0
LINE
  5
8B4
330
11D
100
AcDbEntity
  8
1
  6
Continuous
 62
     4
100
AcDbLine
 10
1117.976629585574
 20
702.0551684408952
 30
0.0
 11
1117.98948916211
 21
758.4144058614977
 31
0.0
1001
ACAD
1010
0.0
1020
0.0
1030
0.0
  0
LINE
  5
8B5
330
11D
100
AcDbEntity
  8
1
  6
Continuous
 62
     4
100
AcDbLine
 10
1110.474918493963
 20
694.5568799229707
 30
0.0
 11
1110.4877780705
 21
750.9161173435733
 31
0.0
1001
ACAD
1010
0.0
1020
0.0
1030
0.0
  0
LINE
  5
8B6
330
11D
100
AcDbEntity
  8
1
  6
Continuous
 62
     4
100
AcDbLine
 10
1102.973207402353
 20
687.0585914050463
 30
0.0
 11
1102.986066978889
 21
743.4178288256488
 31
0.0
1001
ACAD
1010
0.0
1020
0.0
1030
0.0
  0
LINE
  5
8B7
330
11D
100
AcDbEntity
  8
1
  6
Continuous
 62
     4
100
AcDbLine
 10
1095.471496310741
 20
679.5603028871217
 30
0.0
 11
1095.484355887278
 21
735.9195403077243
 31
0.0
1001
ACAD
1010
0.0
1020
0.0
1030
0.0
  0
LINE
  5
8B8
330
11D
100
AcDbEntity
  8
1
  6
Continuous
 62
     4
100
AcDbLine
 10
1087.969785219131
 20
672.0620143691972
 30
0.0
 11
1087.982644795667
 21
728.4212517897998
 31
0.0
1001
ACAD
1010
0.0
1020
0.0
1030
0.0
  0
LINE
  5
8B9
330
11D
100
AcDbEntity
  8
1
  6
Continuous
 62
     4
100
AcDbLine
 10
1080.468074127519
 20
664.5637258512727
 30
0.0
 11
1080.480933704057
 21
720.9229632718753
 31
0.0
1001
ACAD
1010
0.0
1020
0.0
1030
0.0
  0
LINE
  5
8BA
330
11D
100
AcDbEntity
  8
1
  6
Continuous
 62
     4
100
AcDbLine
 10
1072.966363035908
 20
657.0654373333479
 30
0.0
 11
1072.979222612445
 21
713.4246747539506
 31
0.0
1001
ACAD
1010
0.0
1020
0.0
1030
0.0
  0
LINE
  5
8BB
330
11D
100
AcDbEntity
  8
1
  6
Continuous
 62
     4
100
AcDbLine
 10
1065.470207943287
 20
673.9172403757379
 30
0.0
 11
1065.477511520835
 21
705.9263862360261
 31
0.0
1001
ACAD
1010
0.0
1020
0.0
1030
0.0
  0
LINE
  5
8BC
330
11D
100
AcDbEntity
  8
1
  6
Continuous
 62
     4
100
AcDbLine
 10
1057.973891646372
 20
690.0625387379434
 30
0.0
 11
1057.975800429223
 21
698.4280977181015
 31
0.0
1001
ACAD
1010
0.0
1020
0.0
1030
0.0
  0
LINE
  5
8BD
330
11D
100
AcDbEntity
  8
1
  6
Continuous
 62
     4
100
AcDbLine
 10
1025.896451430264
 20
891.7489194158987
 30
0.0
 11
1025.900146803054
 21
907.9445065571702
 31
0.0
1001
ACAD
1010
0.0
1020
0.0
1030
0.0
  0
LINE
  5
8BE
330
11D
100
AcDbEntity
  8
1
  6
Continuous
 62
     4
100
AcDbLine
 10
1033.398162521875
 20
899.2472079338224
 30
0.0
 11
1033.399168862191
 21
903.6576620918458
 31
0.0
1001
ACAD
1010
0.0
1020
0.0
1030
0.0
  0
LINE
  5
8BF
330
11D
100
AcDbEntity
  8
1
  6
Continuous
 62
     4
100
AcDbLine
 10
1018.394740338655
 20
884.2506308979746
 30
0.0
 11
1018.399971740205
 21
907.1781200870695
 31
0.0
1001
ACAD
1010
0.0
1020
0.0
1030
0.0
  0
LINE
  5
8C0
330
11D
100
AcDbEntity
  8
1
  6
Continuous
 62
     4
100
AcDbLine
 10
1010.893029247045
 20
876.7523423800508
 30
0.0
 11
1010.899796677356
 21
906.4117336169692
 31
0.0
1001
ACAD
1010
0.0
1020
0.0
1030
0.0
  0
LINE
  5
8C1
330
11D
100
AcDbEntity
  8
1
  6
Continuous
 62
     4
100
AcDbLine
 10
1003.391318155435
 20
869.2540538621269
 30
0.0
 11
1003.399621614508
 21
905.6453471468687
 31
0.0
1001
ACAD
1010
0.0
1020
0.0
1030
0.0
  0
LINE
  5
8C2
330
11D
100
AcDbEntity
  8
1
  6
Continuous
 62
     4
100
AcDbLine
 10
995.8896070638251
 20
861.7557653442032
 30
0.0
 11
995.8994465516584
 21
904.8789606767686
 31
0.0
1001
ACAD
1010
0.0
1020
0.0
1030
0.0
  0
LINE
  5
8C3
330
11D
100
AcDbEntity
  8
1
  6
Continuous
 62
     4
100
AcDbLine
 10
988.3878959722151
 20
854.2574768262793
 30
0.0
 11
988.3992714888092
 21
904.1125742066682
 31
0.0
1001
ACAD
1010
0.0
1020
0.0
1030
0.0
  0
LINE
  5
8C4
330
11D
100
AcDbEntity
  8
1
  6
Continuous
 62
     4
100
AcDbLine
 10
980.8861848806046
 20
846.7591883083555
 30
0.0
 11
980.8990444571421
 21
903.1184257289535
 31
0.0
1001
ACAD
1010
0.0
1020
0.0
1030
0.0
  0
LINE
  5
8C5
330
11D
100
AcDbEntity
  8
1
  6
Continuous
 62
     4
100
AcDbLine
 10
973.3844737889947
 20
839.2608997904316
 30
0.0
 11
973.3973333655315
 21
895.6201372110298
 31
0.0
1001
ACAD
1010
0.0
1020
0.0
1030
0.0
  0
LINE
  5
8C6
330
11D
100
AcDbEntity
  8
1
  6
Continuous
 62
     4
100
AcDbLine
 10
965.8827626973847
 20
831.7626112725079
 30
0.0
 11
965.8956222739217
 21
888.1218486931061
 31
0.0
1001
ACAD
1010
0.0
1020
0.0
1030
0.0
  0
LINE
  5
8C7
330
11D
100
AcDbEntity
  8
1
  6
Continuous
 62
     4
100
AcDbLine
 10
958.3810516057747
 20
824.2643227545842
 30
0.0
 11
958.3939111823115
 21
880.6235601751822
 31
0.0
1001
ACAD
1010
0.0
1020
0.0
1030
0.0
  0
LINE
  5
8CE
330
11D
100
AcDbEntity
  8
1
  6
Continuous
 62
     4
100
AcDbLine
 10
950.8793405141645
 20
816.7660342366602
 30
0.0
 11
950.8922000907016
 21
873.1252716572587
 31
0.0
1001
ACAD
1010
0.0
1020
0.0
1030
0.0
  0
LINE
  5
8CF
330
11D
100
AcDbEntity
  8
1
  6
Continuous
 62
     4
100
AcDbLine
 10
943.3776294225543
 20
809.2677457187365
 30
0.0
 11
943.3904889990911
 21
865.6269831393352
 31
0.0
1001
ACAD
1010
0.0
1020
0.0
1030
0.0
  0
LINE
  5
8D0
330
11D
100
AcDbEntity
  8
1
  6
Continuous
 62
     4
100
AcDbLine
 10
935.8759183309443
 20
801.7694572008126
 30
0.0
 11
935.8887779074812
 21
858.1286946214113
 31
0.0
1001
ACAD
1010
0.0
1020
0.0
1030
0.0
  0
LINE
  5
8D1
330
11D
100
AcDbEntity
  8
1
  6
Continuous
 62
     4
100
AcDbLine
 10
928.3742072393344
 20
794.2711686828887
 30
0.0
 11
928.387066815871
 21
850.6304061034869
 31
0.0
1001
ACAD
1010
0.0
1020
0.0
1030
0.0
  0
LINE
  5
8D2
330
11D
100
AcDbEntity
  8
1
  6
Continuous
 62
     4
100
AcDbLine
 10
920.8724961477242
 20
786.7728801649649
 30
0.0
 11
920.885355724261
 21
843.1321175855631
 31
0.0
1001
ACAD
1010
0.0
1020
0.0
1030
0.0
  0
LINE
  5
8D3
330
11D
100
AcDbEntity
  8
1
  6
Continuous
 62
     4
100
AcDbLine
 10
913.370785056114
 20
779.2745916470413
 30
0.0
 11
913.3836446326508
 21
835.6338290676394
 31
0.0
1001
ACAD
1010
0.0
1020
0.0
1030
0.0
  0
LINE
  5
8D4
330
11D
100
AcDbEntity
  8
1
  6
Continuous
 62
     4
100
AcDbLine
 10
905.869073964504
 20
771.7763031291172
 30
0.0
 11
905.8819335410408
 21
828.135540549716
 31
0.0
1001
ACAD
1010
0.0
1020
0.0
1030
0.0
  0
LINE
  5
8D5
330
11D
100
AcDbEntity
  8
1
  6
Continuous
 62
     4
100
AcDbLine
 10
898.3673628728936
 20
764.2780146111935
 30
0.0
 11
898.3802224494306
 21
820.6372520317923
 31
0.0
1001
ACAD
1010
0.0
1020
0.0
1030
0.0
  0
LINE
  5
8D6
330
11D
100
AcDbEntity
  8
1
  6
Continuous
 62
     4
100
AcDbLine
 10
890.8656517812838
 20
756.7797260932698
 30
0.0
 11
890.8785113578206
 21
813.1389635138679
 31
0.0
1001
ACAD
1010
0.0
1020
0.0
1030
0.0
  0
LINE
  5
8D7
330
11D
100
AcDbEntity
  8
1
  6
Continuous
 62
     4
100
AcDbLine
 10
883.3639406896736
 20
749.2814375753457
 30
0.0
 11
883.3768002662104
 21
805.6406749959441
 31
0.0
1001
ACAD
1010
0.0
1020
0.0
1030
0.0
  0
LINE
  5
8D8
330
11D
100
AcDbEntity
  8
1
  6
Continuous
 62
     4
100
AcDbLine
 10
875.8622295980636
 20
741.7831490574221
 30
0.0
 11
875.8750891746004
 21
798.1423864780205
 31
0.0
1001
ACAD
1010
0.0
1020
0.0
1030
0.0
  0
LINE
  5
8D9
330
11D
100
AcDbEntity
  8
1
  6
Continuous
 62
     4
100
AcDbLine
 10
868.3605185064534
 20
734.2848605394983
 30
0.0
 11
868.3733780829902
 21
790.6440979600969
 31
0.0
1001
ACAD
1010
0.0
1020
0.0
1030
0.0
  0
LINE
  5
8DA
330
11D
100
AcDbEntity
  8
1
  6
Continuous
 62
     4
100
AcDbLine
 10
860.8588074148434
 20
726.7865720215744
 30
0.0
 11
860.8716669913802
 21
783.1458094421731
 31
0.0
1001
ACAD
1010
0.0
1020
0.0
1030
0.0
  0
LINE
  5
8DB
330
11D
100
AcDbEntity
  8
1
  6
Continuous
 62
     4
100
AcDbLine
 10
853.3570963232332
 20
719.2882835036505
 30
0.0
 11
853.36995589977
 21
775.6475209242489
 31
0.0
1001
ACAD
1010
0.0
1020
0.0
1030
0.0
  0
LINE
  5
8DC
330
11D
100
AcDbEntity
  8
1
  6
Continuous
 62
     4
100
AcDbLine
 10
845.8553852316232
 20
711.7899949857267
 30
0.0
 11
845.8682448081599
 21
768.1492324063249
 31
0.0
1001
ACAD
1010
0.0
1020
0.0
1030
0.0
  0
LINE
  5
8DD
330
11D
100
AcDbEntity
  8
1
  6
Continuous
 62
     4
100
AcDbLine
 10
838.353674140013
 20
704.291706467803
 30
0.0
 11
838.3665337165497
 21
760.6509438884012
 31
0.0
1001
ACAD
1010
0.0
1020
0.0
1030
0.0
  0
LINE
  5
8DE
330
11D
100
AcDbEntity
  8
1
  6
Continuous
 62
     4
100
AcDbLine
 10
830.8519630484028
 20
696.7934179498789
 30
0.0
 11
830.8648226249397
 21
753.1526553704777
 31
0.0
1001
ACAD
1010
0.0
1020
0.0
1030
0.0
  0
LINE
  5
8DF
330
11D
100
AcDbEntity
  8
1
  6
Continuous
 62
     4
100
AcDbLine
 10
823.3502519567927
 20
689.2951294319552
 30
0.0
 11
823.3631115333295
 21
745.6543668525538
 31
0.0
1001
ACAD
1010
0.0
1020
0.0
1030
0.0
  0
LINE
  5
8E0
330
11D
100
AcDbEntity
  8
1
  6
Continuous
 62
     4
100
AcDbLine
 10
815.8485408651827
 20
681.7968409140313
 30
0.0
 11
815.8614004417195
 21
738.1560783346296
 31
0.0
1001
ACAD
1010
0.0
1020
0.0
1030
0.0
  0
LINE
  5
8E1
330
11D
100
AcDbEntity
  8
1
  6
Continuous
 62
     4
100
AcDbLine
 10
808.3468297735725
 20
674.2985523961076
 30
0.0
 11
808.3596893501093
 21
730.6577898167057
 31
0.0
1001
ACAD
1010
0.0
1020
0.0
1030
0.0
  0
LINE
  5
8E2
330
11D
100
AcDbEntity
  8
1
  6
Continuous
 62
     4
100
AcDbLine
 10
800.8451186819623
 20
666.8002638781839
 30
0.0
 11
800.8579782584993
 21
723.1595012987821
 31
0.0
1001
ACAD
1010
0.0
1020
0.0
1030
0.0
  0
LINE
  5
8E3
330
11D
100
AcDbEntity
  8
1
  6
Continuous
 62
     4
100
AcDbLine
 10
793.3434075903522
 20
659.3019753602598
 30
0.0
 11
793.3562671668892
 21
715.6612127808585
 31
0.0
1001
ACAD
1010
0.0
1020
0.0
1030
0.0
  0
LINE
  5
8E4
330
11D
100
AcDbEntity
  8
1
  6
Continuous
 62
     4
100
AcDbLine
 10
785.8435408968261
 20
659.8870688423096
 30
0.0
 11
785.8545560752791
 21
708.1629242629349
 31
0.0
1001
ACAD
1010
0.0
1020
0.0
1030
0.0
  0
LINE
  5
8E5
330
11D
100
AcDbEntity
  8
1
  6
Continuous
 62
     4
100
AcDbLine
 10
778.3452480692499
 20
667.3698921591896
 30
0.0
 11
778.3528449836694
 21
700.6646357450125
 31
0.0
1001
ACAD
1010
0.0
1020
0.0
1030
0.0
  0
LINE
  5
8E6
330
11D
100
AcDbEntity
  8
1
  6
Continuous
 62
     4
100
AcDbLine
 10
770.846955241674
 20
674.8527154760695
 30
0.0
 11
770.8511338920593
 21
693.166347227089
 31
0.0
1001
ACAD
1010
0.0
1020
0.0
1030
0.0
  0
LINE
  5
8E7
330
11D
100
AcDbEntity
  8
1
  6
Continuous
 62
     4
100
AcDbLine
 10
763.3486624140977
 20
682.3355387929496
 30
0.0
 11
763.3494228004492
 21
685.6680587091654
 31
0.0
1001
ACAD
1010
0.0
1020
0.0
1030
0.0
  0
LINE
  5
8E8
330
11D
100
AcDbEntity
  8
1
  6
Continuous
 62
     7
100
AcDbLine
 10
1155.164301114167
 20
782.1437399565129
 30
0.0
 11
1028.805928266107
 21
908.2414265063299
 31
0.0
  0
LINE
  5
8E9
330
11D
100
AcDbEntity
  8
1
  6
Continuous
 62
     3
100
AcDbLine
 10
1022.594779380217
 20
914.6222034670815
 30
0.0
 11
900.5244553177798
 21
1036.725460170901
 31
0.0
  0
LINE
  5
8EA
330
11D
100
AcDbEntity
  8
1
  6
Continuous
 62
     3
100
AcDbLine
 10
675.2781129255217
 20
441.3227981762758
 30
0.0
 11
490.1739320145138
 21
626.5048357354048
 31
0.0
  0
LINE
  5
8EB
330
11D
100
AcDbEntity
  8
1
  6
Continuous
 62
     3
100
AcDbLine
 10
513.3064784611938
 20
636.9041517842697
 30
0.0
 11
694.9416779425008
 21
818.4818535766012
 31
0.0
  0
LINE
  5
8ED
330
11D
100
AcDbEntity
  8
1
  6
Continuous
 62
     7
100
AcDbLine
 10
739.5605763178382
 20
605.5436819166275
 30
0.0
 11
778.3715371959077
 21
644.336935718029
 31
0.0
  0
LINE
  5
8EE
330
11D
100
AcDbEntity
  8
1
  6
Continuous
 62
     7
100
AcDbLine
 10
1055.321549747755
 20
695.7750580094922
 30
0.0
 11
1148.370501776428
 21
788.7815574708977
 31
0.0
  0
LINE
  5
8EF
330
11D
100
AcDbEntity
  8
1
  6
Continuous
 62
     7
100
AcDbLine
 10
981.1528515931682
 20
903.3721170682484
 30
0.0
 11
1028.805928266107
 21
908.2414265063299
 31
0.0
  0
LINE
  5
8F0
330
11D
100
AcDbEntity
  8
1
  6
Continuous
 62
     7
100
AcDbLine
 10
1150.191985125361
 20
734.2558260768542
 30
0.0
 11
1155.083040211367
 21
781.9066757119481
 31
0.0
  0
LINE
  5
8F1
330
11D
100
AcDbEntity
  8
1
  6
Continuous
 62
     7
100
AcDbLine
 10
761.6806813949953
 20
684.0000786487362
 30
0.0
 11
981.1528515931682
 21
903.3721170682484
 31
0.0
  0
LINE
  5
8F2
330
11D
100
AcDbEntity
  8
1
  6
Continuous
 62
     7
100
AcDbLine
 10
1073.190525047471
 20
657.2894970734473
 30
0.0
 11
1150.191985125361
 21
734.2558260768542
 31
0.0
  0
LINE
  5
8F4
330
11D
100
AcDbEntity
  8
1
  6
Continuous
 62
     7
100
AcDbLine
 10
1306.605420760314
 20
262.4574991952513
 30
0.0
 11
545.6414679411367
 21
262.4574991952513
 31
0.0
  0
LINE
  5
8F5
330
11D
100
AcDbEntity
  8
1
  6
Continuous
 62
     7
100
AcDbLine
 10
545.5477471383264
 20
342.8354530304891
 30
0.0
 11
545.6609751086533
 21
223.6642453938498
 31
0.0
  0
LINE
  5
8F6
330
11D
100
AcDbEntity
  8
1
  6
Continuous
 62
     7
100
AcDbLine
 10
545.3977471383258
 20
644.336935718029
 30
0.0
 11
545.5277471383265
 21
362.2554530304892
 31
0.0
  0
LINE
  5
8F7
330
11D
100
AcDbEntity
  8
1
  6
Continuous
 62
     7
100
AcDbLine
 10
545.5277471383265
 20
362.2554530304892
 30
0.0
 11
558.387747138326
 21
356.7454530304889
 31
0.0
  0
LINE
  5
8F8
330
11D
100
AcDbEntity
  8
1
  6
Continuous
 62
     7
100
AcDbLine
 10
558.387747138326
 20
356.7454530304889
 30
0.0
 11
531.1877471383263
 21
347.1454530304889
 31
0.0
  0
LINE
  5
8F9
330
11D
100
AcDbEntity
  8
1
  6
Continuous
 62
     7
100
AcDbLine
 10
531.1877471383263
 20
347.1454530304889
 30
0.0
 11
545.5477471383264
 21
342.8354530304891
 31
0.0
  0
LINE
  5
8FA
330
11D
100
AcDbEntity
  8
1
  6
Continuous
 62
     7
100
AcDbLine
 10
778.3715371959077
 20
644.336935718029
 30
0.0
 11
545.3977471383258
 21
644.336935718029
 31
0.0
  0
LINE
  5
8FB
330
11D
100
AcDbEntity
  8
1
  6
Continuous
 62
     7
100
AcDbLine
 10
1306.605420760314
 20
507.8132522688074
 30
0.0
 11
1306.605420760314
 21
223.6642453938498
 31
0.0
  0
LINE
  5
8FC
330
11D
100
AcDbEntity
  8
1
  6
Continuous
 62
     7
100
AcDbLine
 10
1306.605420760314
 20
644.336935718029
 30
0.0
 11
1070.214384745228
 21
644.3369357180287
 31
0.0
  0
LINE
  5
8FD
330
11D
100
AcDbEntity
  8
1
  6
Continuous
 62
     7
100
AcDbLine
 10
1306.605420760314
 20
644.336935718029
 30
0.0
 11
1306.605420760314
 21
527.2232522688073
 31
0.0
  0
LINE
  5
8FE
330
11D
100
AcDbEntity
  8
1
  6
Continuous
 62
     7
100
AcDbLine
 10
1306.605420760314
 20
527.2232522688073
 30
0.0
 11
1319.465420760314
 21
521.7132522688075
 31
0.0
  0
LINE
  5
8FF
330
11D
100
AcDbEntity
  8
1
  6
Continuous
 62
     7
100
AcDbLine
 10
1292.265420760315
 20
512.1132522688078
 30
0.0
 11
1306.605420760314
 21
507.8132522688074
 31
0.0
  0
LINE
  5
900
330
11D
100
AcDbEntity
  8
1
  6
Continuous
 62
     7
100
AcDbLine
 10
1319.465420760314
 20
521.7132522688075
 30
0.0
 11
1292.265420760315
 21
512.1132522688078
 31
0.0
  0
LINE
  5
901
330
11D
100
AcDbEntity
  8
1
  6
Continuous
 62
     7
100
AcDbLine
 10
1073.190525047471
 20
657.2894970734473
 30
0.0
 11
1055.321549747755
 21
695.7750580094922
 31
0.0
  0
LINE
  5
902
330
11D
100
AcDbEntity
  8
1
  6
Continuous
 62
     7
100
AcDbLine
 10
789.8894065135658
 20
655.8495501337096
 30
0.0
 11
1035.606673695219
 21
901.4547114980839
 31
0.0
  0
LINE
  5
903
330
11D
100
AcDbEntity
  8
1
  6
Continuous
 62
     7
100
AcDbLine
 10
1306.624929949651
 20
223.6642446873942
 30
0.0
 11
545.6609771304756
 21
223.6642446873941
 31
0.0
  0
LINE
  5
904
330
11D
100
AcDbEntity
  8
1
  6
Continuous
 62
     7
100
AcDbLine
 10
739.5319339216265
 20
644.3369343831034
 30
0.0
 11
545.3977458313587
 21
644.3369343831034
 31
0.0
  0
LINE
  5
905
330
11D
100
AcDbEntity
  8
1
  6
Continuous
 62
     7
100
AcDbLine
 10
739.5605763178382
 20
605.5436819166275
 30
0.0
 11
545.4263882275703
 21
605.5436819166275
 31
0.0
  0
LINE
  5
906
330
11D
100
AcDbEntity
  8
1
  6
Continuous
 62
     7
100
AcDbLine
 10
1306.605420760314
 20
605.2468165850299
 30
0.0
 11
1070.214384745228
 21
605.2468165850299
 31
0.0
  0
LINE
  5
907
330
11D
100
AcDbEntity
  8
1
  6
Continuous
 62
     7
100
AcDbLine
 10
1070.214381729569
 20
605.2468171988038
 30
0.0
 11
1070.214381729569
 21
644.3369363318026
 31
0.0
  0
LINE
  5
908
330
11D
100
AcDbEntity
  8
1
  6
Continuous
 62
     7
100
AcDbLine
 10
789.8894065135658
 20
655.8495501337096
 30
0.0
 11
761.6806813949953
 21
684.0000786487362
 31
0.0
  0
LINE
  5
909
330
11D
100
AcDbEntity
  8
1
  6
Continuous
 62
     3
100
AcDbLine
 10
906.8870781167653
 20
1030.360161189877
 30
0.0
 11
894.752389357408
 21
1008.958843496194
 31
0.0
  0
LINE
  5
90A
330
11D
100
AcDbEntity
  8
1
  6
Continuous
 62
     3
100
AcDbLine
 10
906.8870781167653
 20
1030.360161189877
 30
0.0
 11
885.4819195807317
 21
1018.232248823782
 31
0.0
  0
LINE
  5
90B
330
11D
100
AcDbEntity
  8
1
  6
Continuous
 62
     3
100
AcDbLine
 10
885.4819195807317
 20
1018.232248823782
 30
0.0
 11
894.752389357408
 21
1008.958843496194
 31
0.0
  0
LINE
  5
90C
330
11D
100
AcDbEntity
  8
1
  6
Continuous
 62
     3
100
AcDbLine
 10
496.5365548134991
 20
620.1395367543803
 30
0.0
 11
517.9417133495316
 21
632.2674491204767
 31
0.0
  0
LINE
  5
90D
330
11D
100
AcDbEntity
  8
1
  6
Continuous
 62
     3
100
AcDbLine
 10
496.5365548134991
 20
620.1395367543803
 30
0.0
 11
508.6712435728554
 21
641.5408544480637
 31
0.0
  0
LINE
  5
90E
330
11D
100
AcDbEntity
  8
1
  6
Continuous
 62
     3
100
AcDbLine
 10
508.6712435728554
 20
641.5408544480637
 30
0.0
 11
517.9417133495316
 21
632.2674491204767
 31
0.0
  0
LINE
  5
924
330
11D
100
AcDbEntity
  8
1
  6
Continuous
 62
     3
100
AcDbLine
 10
725.2545966945334
 20
848.7851765962025
 30
0.0
 11
890.1171544690706
 21
1013.595546159987
 31
0.0
  0
LINE
  5
92A
330
11D
100
AcDbEntity
  8
1
  6
Continuous
 62
     5
100
AcDbLine
 10
714.6678802925203
 20
835.8819235466123
 30
0.0
 11
724.6678802925202
 21
835.8819235466123
 31
0.0
  0
ENDSEC
  0
SECTION
  2
OBJECTS
  0
DICTIONARY
  5
10B
330
0
100
AcDbDictionary
281
     1
  3
ACAD_COLOR
350
55E
  3
ACAD_GROUP
350
10C
  3
ACAD_LAYOUT
350
118
  3
ACAD_MATERIAL
350
549
  3
ACAD_MLINESTYLE
350
115
  3
ACAD_PLOTSETTINGS
350
117
  3
ACAD_PLOTSTYLENAME
350
10D
  3
ACAD_TABLESTYLE
350
55F
  3
ACAD_VISUALSTYLE
350
54D
  3
AcDbVariableDictionary
350
3C4
  3
DWGPROPS
350
912
  0
DICTIONARY
  5
564
330
563
100
AcDbDictionary
280
     1
281
     1
  3
ADSK_XREC_LAYER_RECONCILED
360
565
  0
DICTIONARY
  5
567
330
566
100
AcDbDictionary
280
     1
281
     1
  0
DICTIONARY
  5
2F6
330
11D
100
AcDbDictionary
280
     1
281
     1
  3
ACAD_LAYOUTSELFREF
360
2F7
  3
ACAD_SORTENTS
360
860
  0
DICTIONARY
  5
2F4
330
119
100
AcDbDictionary
280
     1
281
     1
  3
ACAD_LAYOUTSELFREF
360
2F5
  0
DICTIONARY
  5
55E
102
{ACAD_REACTORS
330
10B
102
}
330
10B
100
AcDbDictionary
281
     1
  0
DICTIONARY
  5
10C
102
{ACAD_REACTORS
330
10B
102
}
330
10B
100
AcDbDictionary
281
     1
  0
DICTIONARY
  5
118
102
{ACAD_REACTORS
330
10B
102
}
330
10B
100
AcDbDictionary
281
     1
  3
Layout1
350
2FD
  3
Model
350
2FC
  0
DICTIONARY
  5
549
102
{ACAD_REACTORS
330
10B
102
}
330
10B
100
AcDbDictionary
281
     1
  3
ByBlock
350
54B
  3
ByLayer
350
54A
  3
Global
350
54C
  0
DICTIONARY
  5
115
102
{ACAD_REACTORS
330
10B
102
}
330
10B
100
AcDbDictionary
281
     1
  3
STANDARD
350
116
  0
DICTIONARY
  5
117
102
{ACAD_REACTORS
330
10B
102
}
330
10B
100
AcDbDictionary
281
     1
  0
ACDBDICTIONARYWDFLT
  5
10D
102
{ACAD_REACTORS
330
10B
102
}
330
10B
100
AcDbDictionary
281
     1
  3
Normal
350
10E
100
AcDbDictionaryWithDefault
340
10E
  0
DICTIONARY
  5
55F
102
{ACAD_REACTORS
330
10B
102
}
330
10B
100
AcDbDictionary
281
     1
  3
Standard
350
560
  0
DICTIONARY
  5
54D
102
{ACAD_REACTORS
330
10B
102
}
330
10B
100
AcDbDictionary
281
     1
  3
2dWireframe
350
553
  3
3D Hidden
350
555
  3
3dWireframe
350
554
  3
Basic
350
552
  3
Brighten
350
559
  3
ColorChange
350
55D
  3
Conceptual
350
556
  3
Dim
350
558
  3
Facepattern
350
55C
  3
Flat
350
54E
  3
FlatWithEdges
350
54F
  3
Gouraud
350
550
  3
GouraudWithEdges
350
551
  3
Linepattern
350
55B
  3
Realistic
350
557
  3
Thicken
350
55A
  0
DICTIONARY
  5
3C4
102
{ACAD_REACTORS
330
10B
102
}
330
10B
100
AcDbDictionary
281
     1
  3
CTABLESTYLE
350
90F
  3
DIMASSOC
350
911
  3
INDEXCTL
350
910
  3
SORTENTS
350
3C5
  0
XRECORD
  5
912
102
{ACAD_REACTORS
330
10B
102
}
330
10B
100
AcDbXrecord
280
     1
  1
DWGPROPS COOKIE
  2

  3

  4

  6

  7

  8
Horia
  9

300
=
301
=
302
=
303
=
304
=
305
=
306
=
307
=
308
=
309
=
 40
0.582379837962963
 41
2452231.542951389
 42
2456342.996253102
  1

 90
        0
  0
XRECORD
  5
565
102
{ACAD_REACTORS
330
564
102
}
330
564
100
AcDbXrecord
280
     1
290
     1
  0
XRECORD
  5
2F7
102
{ACAD_REACTORS
330
2F6
102
}
330
2F6
100
AcDbXrecord
280
     1
340
11D
  0
SORTENTSTABLE
  5
860
102
{ACAD_REACTORS
330
2F6
102
}
330
2F6
100
AcDbSortentsTable
330
11D
331
886
  5
85D
331
869
  5
83B
331
8D0
  5
8A0
331
82F
  5
362
331
8B3
  5
889
331
472
  5
19C
331
862
  5
834
331
8E6
  5
8B9
331
845
  5
4E9
331
8AC
  5
885
331
897
  5
870
331
87A
  5
851
331
85D
  5
831
331
8DF
  5
8B2
331
8C2
  5
898
331
4E9
  5
19D
331
164
  5
150
331
8A5
  5
87E
331
890
  5
869
331
873
  5
847
331
856
  5
823
331
839
  5
48D
331
8D8
  5
8A8
331
8BB
  5
891
331
89E
  5
877
331
889
  5
862
331
86C
  5
83E
331
84F
  5
53A
331
8D3
  5
8A3
331
832
  5
36C
331
8B6
  5
88C
331
150
  5
14E
331
882
  5
859
331
865
  5
837
331
848
  5
51E
331
82B
  5
304
331
8AF
  5
887
331
87D
  5
854
331
8E2
  5
8B5
331
8C5
  5
89B
331
8A8
  5
881
331
893
  5
86C
331
876
  5
84D
331
859
  5
82D
331
8DB
  5
8AB
331
83C
  5
4A7
331
8BE
  5
894
331
8A1
  5
87A
331
88C
  5
865
331
86F
  5
843
331
852
  5
81F
331
835
  5
475
331
8D6
  5
8A6
331
89A
  5
873
331
885
  5
85C
331
868
  5
83A
331
82E
  5
355
331
8CF
  5
89F
331
8B2
  5
888
331
861
  5
833
331
844
  5
4E8
331
8E5
  5
8B8
331
8AB
  5
884
331
896
  5
86F
331
879
  5
850
331
85C
  5
830
331
83F
  5
4CB
331
8DE
  5
8AF
331
8C1
  5
897
331
8A4
  5
87D
331
88F
  5
868
331
872
  5
846
331
855
  5
822
331
838
  5
48C
331
8BA
  5
890
331
89D
  5
876
331
888
  5
861
331
86B
  5
83D
331
84E
  5
532
331
831
  5
36A
331
8D2
  5
8A2
331
8B5
  5
88B
331
881
  5
858
331
864
  5
836
331
847
  5
4F7
331
8AE
  5
886
331
355
  5
164
331
87C
  5
853
331
8E1
  5
8B4
331
840
  5
4CC
331
8C4
  5
89A
331
8A7
  5
880
331
892
  5
86B
331
875
  5
849
331
858
  5
82C
331
83B
  5
495
331
8DA
  5
8AA
331
8BD
  5
893
331
8A0
  5
879
331
88B
  5
864
331
86E
  5
840
331
851
  5
81E
331
8D5
  5
8A5
331
834
  5
474
331
899
  5
872
331
884
  5
85B
331
867
  5
839
331
8CE
  5
89E
331
82D
  5
34E
331
87F
  5
856
331
8E4
  5
8B7
331
843
  5
4CD
331
8C7
  5
89D
331
8AA
  5
883
331
895
  5
86E
331
878
  5
84F
331
85B
  5
82F
331
8DD
  5
8AE
331
83E
  5
4CA
331
8C0
  5
896
331
8A3
  5
87C
331
88E
  5
867
331
871
  5
845
331
854
  5
821
331
837
  5
48B
331
8B9
  5
88F
331
89C
  5
875
331
887
  5
85E
331
86A
  5
83C
331
84D
  5
52B
331
830
  5
365
331
8D1
  5
8A1
331
8B4
  5
88A
331
880
  5
857
331
863
  5
835
331
846
  5
4EA
331
8E7
  5
8BA
331
87B
  5
852
331
85E
  5
832
331
8E0
  5
8B3
331
4EA
  5
1EA
331
8C3
  5
899
331
8A6
  5
87F
331
891
  5
86A
331
874
  5
848
331
857
  5
82B
331
8D9
  5
8A9
331
83A
  5
48E
331
8BC
  5
892
331
89F
  5
878
331
88A
  5
863
331
86D
  5
83F
331
850
  5
541
331
833
  5
472
331
8D4
  5
8A4
331
8B7
  5
88D
331
898
  5
871
331
883
  5
85A
331
866
  5
838
331
849
  5
525
331
82C
  5
34D
331
87E
  5
855
331
8E3
  5
8B6
331
8C6
  5
89C
331
8A9
  5
882
331
894
  5
86D
331
877
  5
84E
331
85A
  5
82E
331
83D
  5
4BA
331
8DC
  5
8AC
331
8BF
  5
895
331
8A2
  5
87B
331
88D
  5
866
331
870
  5
844
331
853
  5
820
331
8D7
  5
8A7
331
836
  5
477
331
8B8
  5
88E
331
89B
  5
874
  0
XRECORD
  5
2F5
102
{ACAD_REACTORS
330
2F4
102
}
330
2F4
100
AcDbXrecord
280
     1
340
119
  0
LAYOUT
  5
2FD
102
{ACAD_XDICTIONARY
360
915
102
}
102
{ACAD_REACTORS
330
118
102
}
330
118
100
AcDbPlotSettings
  1

  2
EPSON Stylus COLOR 600
  4

  6

 40
0.0
 41
0.0
 42
0.0
 43
0.0
 44
0.0
 45
0.0
 46
0.0
 47
0.0
 48
0.0
 49
0.0
140
0.0
141
0.0
142
1.0
143
1.0
 70
   688
 72
     0
 73
     0
 74
     5
  7

 75
    16
147
1.0
148
0.0
149
0.0
100
AcDbLayout
  1
Layout1
 70
     0
 71
     1
 10
0.0
 20
0.0
 11
12.0
 21
9.0
 12
0.0
 22
0.0
 32
0.0
 14
-1.000000000000000E+20
 24
-1.000000000000000E+20
 34
-1.000000000000000E+20
 15
-1.000000000000000E+20
 25
-1.000000000000000E+20
 35
-1.000000000000000E+20
146
0.0
 13
0.0
 23
0.0
 33
0.0
 16
1.0
 26
0.0
 36
0.0
 17
0.0
 27
1.0
 37
0.0
 76
     0
330
119
  0
LAYOUT
  5
2FC
102
{ACAD_XDICTIONARY
360
913
102
}
102
{ACAD_REACTORS
330
118
102
}
330
118
100
AcDbPlotSettings
  1

  2
EPSON Stylus COLOR 600
  4

  6

 40
0.0
 41
0.0
 42
0.0
 43
0.0
 44
0.0
 45
0.0
 46
0.0
 47
0.0
 48
0.0
 49
0.0
140
0.0
141
0.0
142
1.0
143
1.0
 70
  1712
 72
     0
 73
     0
 74
     0
  7

 75
     0
147
1.0
148
0.0
149
0.0
100
AcDbLayout
  1
Model
 70
     1
 71
     0
 10
0.0
 20
0.0
 11
12.0
 21
9.0
 12
0.0
 22
0.0
 32
0.0
 14
0.0
 24
0.0
 34
0.0
 15
0.0
 25
0.0
 35
0.0
146
0.0
 13
0.0
 23
0.0
 33
0.0
 16
1.0
 26
0.0
 36
0.0
 17
0.0
 27
1.0
 37
0.0
 76
     0
330
11D
331
545
  0
MATERIAL
  5
54B
102
{ACAD_XDICTIONARY
360
919
102
}
102
{ACAD_REACTORS
330
549
102
}
330
549
100
AcDbMaterial
  1
ByBlock
  0
MATERIAL
  5
54A
102
{ACAD_XDICTIONARY
360
917
102
}
102
{ACAD_REACTORS
330
549
102
}
330
549
100
AcDbMaterial
  1
ByLayer
  0
MATERIAL
  5
54C
102
{ACAD_XDICTIONARY
360
91B
102
}
102
{ACAD_REACTORS
330
549
102
}
330
549
100
AcDbMaterial
  1
Global
  0
MLINESTYLE
  5
116
102
{ACAD_REACTORS
330
115
102
}
330
115
100
AcDbMlineStyle
  2
STANDARD
 70
     0
  3

 62
   256
 51
90.0
 52
90.0
 71
     2
 49
0.5
 62
   256
  6
BYLAYER
 49
-0.5
 62
   256
  6
BYLAYER
  0
ACDBPLACEHOLDER
  5
10E
102
{ACAD_REACTORS
330
10D
102
}
330
10D
  0
TABLESTYLE
  5
560
102
{ACAD_XDICTIONARY
360
91D
102
}
102
{ACAD_REACTORS
330
55F
102
}
330
55F
100
AcDbTableStyle
  3
Standard
 70
     0
 71
     0
 40
0.06
 41
0.06
280
     0
281
     0
  7
STANDARD
140
0.18
170
     2
 62
     0
 63
     7
283
     0
274
    -2
284
     1
 64
     0
275
    -2
285
     1
 65
     0
276
    -2
286
     1
 66
     0
277
    -2
287
     1
 67
     0
278
    -2
288
     1
 68
     0
279
    -2
289
     1
 69
     0
  7
STANDARD
140
0.25
170
     5
 62
     0
 63
     7
283
     0
274
    -2
284
     1
 64
     0
275
    -2
285
     1
 65
     0
276
    -2
286
     1
 66
     0
277
    -2
287
     1
 67
     0
278
    -2
288
     1
 68
     0
279
    -2
289
     1
 69
     0
  7
STANDARD
140
0.18
170
     5
 62
     0
 63
     7
283
     0
274
    -2
284
     1
 64
     0
275
    -2
285
     1
 65
     0
276
    -2
286
     1
 66
     0
277
    -2
287
     1
 67
     0
278
    -2
288
     1
 68
     0
279
    -2
289
     1
 69
     0
  0
VISUALSTYLE
  5
553
102
{ACAD_REACTORS
330
54D
102
}
330
54D
100
AcDbVisualStyle
  2
2dWireframe
 70
     4
 71
     0
 72
     2
 73
     0
 90
        0
 40
-0.6
 41
-30.0
 62
     5
 63
     7
 74
     1
 91
        4
 64
     7
 65
   257
 75
     1
175
     1
 42
1.0
 92
        0
 66
   257
 43
1.0
 76
     1
 77
     6
 78
     2
 67
     7
 79
     5
170
     0
171
     0
290
     0
174
     0
 93
        1
 44
0.0
173
     0
291
     0
 45
0.0
1001
ACAD
1000
AcDbSavedByObjectVersion
1070
     0
  0
VISUALSTYLE
  5
555
102
{ACAD_REACTORS
330
54D
102
}
330
54D
100
AcDbVisualStyle
  2
3D Hidden
 70
     6
 71
     1
 72
     2
 73
     2
 90
        0
 40
-0.6
 41
-30.0
 62
     5
 63
     7
 74
     2
 91
        2
 64
     7
 65
   257
 75
     2
175
     1
 42
40.0
 92
        0
 66
   257
 43
1.0
 76
     1
 77
     6
 78
     2
 67
     7
 79
     3
170
     0
171
     0
290
     0
174
     0
 93
        1
 44
0.0
173
     0
291
     0
 45
0.0
1001
ACAD
1000
AcDbSavedByObjectVersion
1070
     0
  0
VISUALSTYLE
  5
554
102
{ACAD_REACTORS
330
54D
102
}
330
54D
100
AcDbVisualStyle
  2
3dWireframe
 70
     5
 71
     0
 72
     2
 73
     0
 90
        0
 40
-0.6
 41
-30.0
 62
     5
 63
     7
 74
     1
 91
        4
 64
     7
 65
   257
 75
     1
175
     1
 42
1.0
 92
        0
 66
   257
 43
1.0
 76
     1
 77
     6
 78
     2
 67
     7
 79
     5
170
     0
171
     0
290
     0
174
     0
 93
        1
 44
0.0
173
     0
291
     0
 45
0.0
1001
ACAD
1000
AcDbSavedByObjectVersion
1070
     0
  0
VISUALSTYLE
  5
552
102
{ACAD_REACTORS
330
54D
102
}
330
54D
100
AcDbVisualStyle
  2
Basic
 70
     7
 71
     1
 72
     0
 73
     1
 90
        0
 40
-0.6
 41
-30.0
 62
     5
 63
     7
 74
     0
 91
        4
 64
     7
 65
   257
 75
     1
175
     1
 42
1.0
 92
        8
 66
     7
 43
1.0
 76
     1
 77
     6
 78
     2
 67
     7
 79
     5
170
     0
171
     0
290
     0
174
     0
 93
        1
 44
0.0
173
     0
291
     1
 45
0.0
1001
ACAD
1000
AcDbSavedByObjectVersion
1070
     0
  0
VISUALSTYLE
  5
559
102
{ACAD_REACTORS
330
54D
102
}
330
54D
100
AcDbVisualStyle
  2
Brighten
 70
    12
 71
     2
 72
     2
 73
     0
 90
        0
 40
-0.6
 41
-30.0
 62
     5
 63
     7
 74
     1
 91
        4
 64
     7
 65
   257
 75
     1
175
     1
 42
1.0
 92
        8
 66
     7
 43
1.0
 76
     1
 77
     6
 78
     2
 67
     7
 79
     5
170
     0
171
     0
290
     0
174
     0
 93
        1
 44
50.0
173
     0
291
     1
 45
0.0
1001
ACAD
1000
AcDbSavedByObjectVersion
1070
     0
  0
VISUALSTYLE
  5
55D
102
{ACAD_REACTORS
330
54D
102
}
330
54D
100
AcDbVisualStyle
  2
ColorChange
 70
    16
 71
     2
 72
     2
 73
     3
 90
        0
 40
-0.6
 41
-30.0
 62
     5
 63
     8
 74
     1
 91
        4
 64
     7
 65
   257
 75
     1
175
     1
 42
1.0
 92
        8
 66
     8
 43
1.0
 76
     1
 77
     6
 78
     2
 67
     7
 79
     5
170
     0
171
     0
290
     0
174
     0
 93
        1
 44
0.0
173
     0
291
     1
 45
0.0
1001
ACAD
1000
AcDbSavedByObjectVersion
1070
     0
  0
VISUALSTYLE
  5
556
102
{ACAD_REACTORS
330
54D
102
}
330
54D
100
AcDbVisualStyle
  2
Conceptual
 70
     9
 71
     3
 72
     2
 73
     0
 90
        0
 40
-0.6
 41
-30.0
 62
     5
 63
     7
 74
     2
 91
        2
 64
     7
 65
   257
 75
     1
175
     1
 42
40.0
 92
        8
 66
     7
 43
1.0
 76
     1
 77
     6
 78
     2
 67
     7
 79
     3
170
     0
171
     0
290
     0
174
     0
 93
        1
 44
0.0
173
     0
291
     0
 45
0.0
1001
ACAD
1000
AcDbSavedByObjectVersion
1070
     0
  0
VISUALSTYLE
  5
558
102
{ACAD_REACTORS
330
54D
102
}
330
54D
100
AcDbVisualStyle
  2
Dim
 70
    11
 71
     2
 72
     2
 73
     0
 90
        0
 40
-0.6
 41
-30.0
 62
     5
 63
     7
 74
     1
 91
        4
 64
     7
 65
   257
 75
     1
175
     1
 42
1.0
 92
        8
 66
     7
 43
1.0
 76
     1
 77
     6
 78
     2
 67
     7
 79
     5
170
     0
171
     0
290
     0
174
     0
 93
        1
 44
-50.0
173
     0
291
     1
 45
0.0
1001
ACAD
1000
AcDbSavedByObjectVersion
1070
     0
  0
VISUALSTYLE
  5
55C
102
{ACAD_REACTORS
330
54D
102
}
330
54D
100
AcDbVisualStyle
  2
Facepattern
 70
    15
 71
     2
 72
     2
 73
     0
 90
        0
 40
-0.6
 41
-30.0
 62
     5
 63
     7
 74
     1
 91
        4
 64
     7
 65
   257
 75
     1
175
     1
 42
1.0
 92
        8
 66
     7
 43
1.0
 76
     1
 77
     6
 78
     2
 67
     7
 79
     5
170
     0
171
     0
290
     0
174
     0
 93
        1
 44
0.0
173
     0
291
     1
 45
0.0
1001
ACAD
1000
AcDbSavedByObjectVersion
1070
     0
  0
VISUALSTYLE
  5
54E
102
{ACAD_REACTORS
330
54D
102
}
330
54D
100
AcDbVisualStyle
  2
Flat
 70
     0
 71
     2
 72
     1
 73
     1
 90
        2
 40
-0.6
 41
30.0
 62
     5
 63
     7
 74
     0
 91
        4
 64
     7
 65
   257
 75
     1
175
     1
 42
1.0
 92
        8
 66
     7
 43
1.0
 76
     1
 77
     6
 78
     2
 67
     7
 79
     5
170
     0
171
     0
290
     0
174
     0
 93
       13
 44
0.0
173
     0
291
     1
 45
0.0
1001
ACAD
1000
AcDbSavedByObjectVersion
1070
     0
  0
VISUALSTYLE
  5
54F
102
{ACAD_REACTORS
330
54D
102
}
330
54D
100
AcDbVisualStyle
  2
FlatWithEdges
 70
     1
 71
     2
 72
     1
 73
     1
 90
        2
 40
-0.6
 41
30.0
 62
     5
 63
     7
 74
     1
 91
        4
 64
     7
 65
   257
 75
     1
175
     1
 42
1.0
 92
        0
 66
   257
 43
1.0
 76
     1
 77
     6
 78
     2
 67
     7
 79
     5
170
     0
171
     0
290
     0
174
     0
 93
       13
 44
0.0
173
     0
291
     1
 45
0.0
1001
ACAD
1000
AcDbSavedByObjectVersion
1070
     0
  0
VISUALSTYLE
  5
550
102
{ACAD_REACTORS
330
54D
102
}
330
54D
100
AcDbVisualStyle
  2
Gouraud
 70
     2
 71
     2
 72
     2
 73
     1
 90
        2
 40
-0.6
 41
30.0
 62
     5
 63
     7
 74
     0
 91
        4
 64
     7
 65
   257
 75
     1
175
     1
 42
1.0
 92
        0
 66
     7
 43
1.0
 76
     1
 77
     6
 78
     2
 67
     7
 79
     5
170
     0
171
     0
290
     0
174
     0
 93
       13
 44
0.0
173
     0
291
     1
 45
0.0
1001
ACAD
1000
AcDbSavedByObjectVersion
1070
     0
  0
VISUALSTYLE
  5
551
102
{ACAD_REACTORS
330
54D
102
}
330
54D
100
AcDbVisualStyle
  2
GouraudWithEdges
 70
     3
 71
     2
 72
     2
 73
     1
 90
        2
 40
-0.6
 41
30.0
 62
     5
 63
     7
 74
     1
 91
        4
 64
     7
 65
   257
 75
     1
175
     1
 42
1.0
 92
        0
 66
   257
 43
1.0
 76
     1
 77
     6
 78
     2
 67
     7
 79
     5
170
     0
171
     0
290
     0
174
     0
 93
       13
 44
0.0
173
     0
291
     1
 45
0.0
1001
ACAD
1000
AcDbSavedByObjectVersion
1070
     0
  0
VISUALSTYLE
  5
55B
102
{ACAD_REACTORS
330
54D
102
}
330
54D
100
AcDbVisualStyle
  2
Linepattern
 70
    14
 71
     2
 72
     2
 73
     0
 90
        0
 40
-0.6
 41
-30.0
 62
     5
 63
     7
 74
     1
 91
        4
 64
     7
 65
   257
 75
     7
175
     7
 42
1.0
 92
        8
 66
     7
 43
1.0
 76
     1
 77
     6
 78
     2
 67
     7
 79
     5
170
     0
171
     0
290
     0
174
     0
 93
        1
 44
0.0
173
     0
291
     1
 45
0.0
1001
ACAD
1000
AcDbSavedByObjectVersion
1070
     0
  0
VISUALSTYLE
  5
557
102
{ACAD_REACTORS
330
54D
102
}
330
54D
100
AcDbVisualStyle
  2
Realistic
 70
     8
 71
     2
 72
     2
 73
     0
 90
        0
 40
-0.6
 41
-30.0
 62
     5
 63
     7
 74
     1
 91
        0
 64
     7
 65
   257
 75
     1
175
     1
 42
1.0
 92
        8
 66
     8
 43
1.0
 76
     1
 77
     6
 78
     2
 67
     7
 79
     5
170
     0
171
     0
290
     0
174
     0
 93
       13
 44
0.0
173
     0
291
     0
 45
0.0
1001
ACAD
1000
AcDbSavedByObjectVersion
1070
     0
  0
VISUALSTYLE
  5
55A
102
{ACAD_REACTORS
330
54D
102
}
330
54D
100
AcDbVisualStyle
  2
Thicken
 70
    13
 71
     2
 72
     2
 73
     0
 90
        0
 40
-0.6
 41
-30.0
 62
     5
 63
     7
 74
     1
 91
        4
 64
     7
 65
   257
 75
     1
175
     1
 42
1.0
 92
       12
 66
     7
 43
1.0
 76
     1
 77
     6
 78
     2
 67
     7
 79
     5
170
     0
171
     0
290
     0
174
     0
 93
        1
 44
0.0
173
     0
291
     1
 45
0.0
1001
ACAD
1000
AcDbSavedByObjectVersion
1070
     0
  0
DICTIONARYVAR
  5
90F
102
{ACAD_REACTORS
330
3C4
102
}
330
3C4
100
DictionaryVariables
280
     0
  1
STANDARD
  0
DICTIONARYVAR
  5
911
102
{ACAD_REACTORS
330
3C4
102
}
330
3C4
100
DictionaryVariables
280
     0
  1
1
  0
DICTIONARYVAR
  5
910
102
{ACAD_REACTORS
330
3C4
102
}
330
3C4
100
DictionaryVariables
280
     0
  1
0
  0
DICTIONARYVAR
  5
3C5
102
{ACAD_REACTORS
330
3C4
102
}
330
3C4
100
DictionaryVariables
280
     0
  1
127
  0
DICTIONARY
  5
915
330
2FD
100
AcDbDictionary
280
     1
281
     1
  3
ACAD_XREC_ROUNDTRIP
360
916
  0
DICTIONARY
  5
913
330
2FC
100
AcDbDictionary
280
     1
281
     1
  3
ACAD_XREC_ROUNDTRIP
360
914
  0
DICTIONARY
  5
919
330
54B
100
AcDbDictionary
280
     1
281
     1
  3
ACAD_XREC_ROUNDTRIP
360
91A
  0
DICTIONARY
  5
917
330
54A
100
AcDbDictionary
280
     1
281
     1
  3
ACAD_XREC_ROUNDTRIP
360
918
  0
DICTIONARY
  5
91B
330
54C
100
AcDbDictionary
280
     1
281
     1
  3
ACAD_XREC_ROUNDTRIP
360
91C
  0
DICTIONARY
  5
91D
330
560
100
AcDbDictionary
280
     1
281
     1
  3
ACAD_XREC_ROUNDTRIP
360
91E
  0
XRECORD
  5
916
102
{ACAD_REACTORS
330
915
102
}
330
915
100
AcDbXrecord
280
     1
102
SHADEPLOT
 70
     0
102
SHADEPLOTRESLEVEL
 70
     2
102
SHADEPLOTCUSTOMDPI
 70
   300
  0
XRECORD
  5
914
102
{ACAD_REACTORS
330
913
102
}
330
913
100
AcDbXrecord
280
     1
102
SHADEPLOT
 70
     0
102
SHADEPLOTRESLEVEL
 70
     2
102
SHADEPLOTCUSTOMDPI
 70
   300
  0
XRECORD
  5
91A
102
{ACAD_REACTORS
330
919
102
}
330
919
100
AcDbXrecord
280
     1
102
MATERIAL
148
0.0
149
0.0
149
0.0
 93
        0
 94
       63
282
     0
 72
     1
 77
     1
171
     1
175
     1
179
     1
273
     0
  0
XRECORD
  5
918
102
{ACAD_REACTORS
330
917
102
}
330
917
100
AcDbXrecord
280
     1
102
MATERIAL
148
0.0
149
0.0
149
0.0
 93
        0
 94
       63
282
     0
 72
     1
 77
     1
171
     1
175
     1
179
     1
273
     0
  0
XRECORD
  5
91C
102
{ACAD_REACTORS
330
91B
102
}
330
91B
100
AcDbXrecord
280
     1
102
MATERIAL
148
0.0
149
0.0
149
0.0
 93
        0
 94
       63
282
     0
 72
     1
 77
     1
171
     1
175
     1
179
     1
273
     0
  0
XRECORD
  5
91E
102
{ACAD_REACTORS
330
91D
102
}
330
91D
100
AcDbXrecord
280
     1
102
ACAD_ROUNDTRIP_PRE2007_TABLESTYLE
 90
      512
 91
        0
  1

 92
      512
 93
        0
  2

 94
      512
 95
        0
  3

  0
ENDSEC
  0
EOF
