  0
SECTION
  2
HEADER
  9
$ACADVER
  1
AC1015
  9
$ACADMAINTVER
 70
     6
  9
$DWGCODEPAGE
  3
ANSI_1252
  9
$INSBASE
 10
0.0
 20
0.0
 30
0.0
  9
$EXTMIN
 10
579.543727136662
 20
231.6644129481824
 30
0.0
  9
$EXTMAX
 10
1237.806730243151
 20
954.6644129481824
 30
0.0
  9
$LIMMIN
 10
0.0
 20
0.0
  9
$LIMMAX
 10
12.0
 20
9.0
  9
$ORTHOMODE
 70
     1
  9
$REGENMODE
 70
     1
  9
$FILLMODE
 70
     1
  9
$QTEXTMODE
 70
     0
  9
$MIRRTEXT
 70
     1
  9
$LTSCALE
 40
1.0
  9
$ATTMODE
 70
     1
  9
$TEXTSIZE
 40
0.2
  9
$TRACEWID
 40
0.05
  9
$TEXTSTYLE
  7
STANDARD
  9
$CLAYER
  8
0
  9
$CELTYPE
  6
CONTINUOUS
  9
$CECOLOR
 62
     0
  9
$CELTSCALE
 40
1.0
  9
$DISPSILH
 70
     0
  9
$DIMSCALE
 40
1.0
  9
$DIMASZ
 40
0.18
  9
$DIMEXO
 40
0.0625
  9
$DIMDLI
 40
0.38
  9
$DIMRND
 40
0.0
  9
$DIMDLE
 40
0.0
  9
$DIMEXE
 40
0.18
  9
$DIMTP
 40
0.0
  9
$DIMTM
 40
0.0
  9
$DIMTXT
 40
0.18
  9
$DIMCEN
 40
0.09
  9
$DIMTSZ
 40
0.0
  9
$DIMTOL
 70
     0
  9
$DIMLIM
 70
     0
  9
$DIMTIH
 70
     1
  9
$DIMTOH
 70
     1
  9
$DIMSE1
 70
     0
  9
$DIMSE2
 70
     0
  9
$DIMTAD
 70
     0
  9
$DIMZIN
 70
     0
  9
$DIMBLK
  1

  9
$DIMASO
 70
     1
  9
$DIMSHO
 70
     1
  9
$DIMPOST
  1

  9
$DIMAPOST
  1

  9
$DIMALT
 70
     0
  9
$DIMALTD
 70
     2
  9
$DIMALTF
 40
25.4
  9
$DIMLFAC
 40
1.0
  9
$DIMTOFL
 70
     0
  9
$DIMTVP
 40
0.0
  9
$DIMTIX
 70
     0
  9
$DIMSOXD
 70
     0
  9
$DIMSAH
 70
     0
  9
$DIMBLK1
  1

  9
$DIMBLK2
  1

  9
$DIMSTYLE
  2
STANDARD
  9
$DIMCLRD
 70
     0
  9
$DIMCLRE
 70
     0
  9
$DIMCLRT
 70
     0
  9
$DIMTFAC
 40
1.0
  9
$DIMGAP
 40
0.09
  9
$DIMJUST
 70
     0
  9
$DIMSD1
 70
     0
  9
$DIMSD2
 70
     0
  9
$DIMTOLJ
 70
     1
  9
$DIMTZIN
 70
     0
  9
$DIMALTZ
 70
     0
  9
$DIMALTTZ
 70
     0
  9
$DIMUPT
 70
     0
  9
$DIMDEC
 70
     4
  9
$DIMTDEC
 70
     4
  9
$DIMALTU
 70
     2
  9
$DIMALTTD
 70
     2
  9
$DIMTXSTY
  7
STANDARD
  9
$DIMAUNIT
 70
     0
  9
$DIMADEC
 70
     0
  9
$DIMALTRND
 40
0.0
  9
$DIMAZIN
 70
     0
  9
$DIMDSEP
 70
    46
  9
$DIMATFIT
 70
     3
  9
$DIMFRAC
 70
     0
  9
$DIMLDRBLK
  1

  9
$DIMLUNIT
 70
     2
  9
$DIMLWD
 70
    -2
  9
$DIMLWE
 70
    -2
  9
$DIMTMOVE
 70
     0
  9
$LUNITS
 70
     2
  9
$LUPREC
 70
     4
  9
$SKETCHINC
 40
0.1
  9
$FILLETRAD
 40
8.0
  9
$AUNITS
 70
     0
  9
$AUPREC
 70
     0
  9
$MENU
  1
acad
  9
$ELEVATION
 40
0.0
  9
$PELEVATION
 40
0.0
  9
$THICKNESS
 40
0.0
  9
$LIMCHECK
 70
     0
  9
$CHAMFERA
 40
0.0
  9
$CHAMFERB
 40
0.0
  9
$CHAMFERC
 40
0.0
  9
$CHAMFERD
 40
0.0
  9
$SKPOLY
 70
     0
  9
$TDCREATE
 40
2451288.347424652
  9
$TDUCREATE
 40
2451288.305757986
  9
$TDUPDATE
 40
2457619.906170521
  9
$TDUUPDATE
 40
2457619.864503854
  9
$TDINDWG
 40
0.9179956134
  9
$TDUSRTIMER
 40
0.9179935301
  9
$USRTIMER
 70
     1
  9
$ANGBASE
 50
0.0
  9
$ANGDIR
 70
     0
  9
$PDMODE
 70
     0
  9
$PDSIZE
 40
0.0
  9
$PLINEWID
 40
1.0
  9
$SPLFRAME
 70
     0
  9
$SPLINETYPE
 70
     6
  9
$SPLINESEGS
 70
    10
  9
$HANDSEED
  5
1080
  9
$SURFTAB1
 70
     6
  9
$SURFTAB2
 70
     6
  9
$SURFTYPE
 70
     6
  9
$SURFU
 70
    10
  9
$SURFV
 70
    10
  9
$UCSBASE
  2

  9
$UCSNAME
  2

  9
$UCSORG
 10
0.0
 20
0.0
 30
0.0
  9
$UCSXDIR
 10
1.0
 20
0.0
 30
0.0
  9
$UCSYDIR
 10
0.0
 20
1.0
 30
0.0
  9
$UCSORTHOREF
  2

  9
$UCSORTHOVIEW
 70
     0
  9
$UCSORGTOP
 10
0.0
 20
0.0
 30
0.0
  9
$UCSORGBOTTOM
 10
0.0
 20
0.0
 30
0.0
  9
$UCSORGLEFT
 10
0.0
 20
0.0
 30
0.0
  9
$UCSORGRIGHT
 10
0.0
 20
0.0
 30
0.0
  9
$UCSORGFRONT
 10
0.0
 20
0.0
 30
0.0
  9
$UCSORGBACK
 10
0.0
 20
0.0
 30
0.0
  9
$PUCSBASE
  2

  9
$PUCSNAME
  2

  9
$PUCSORG
 10
0.0
 20
0.0
 30
0.0
  9
$PUCSXDIR
 10
1.0
 20
0.0
 30
0.0
  9
$PUCSYDIR
 10
0.0
 20
1.0
 30
0.0
  9
$PUCSORTHOREF
  2

  9
$PUCSORTHOVIEW
 70
     0
  9
$PUCSORGTOP
 10
0.0
 20
0.0
 30
0.0
  9
$PUCSORGBOTTOM
 10
0.0
 20
0.0
 30
0.0
  9
$PUCSORGLEFT
 10
0.0
 20
0.0
 30
0.0
  9
$PUCSORGRIGHT
 10
0.0
 20
0.0
 30
0.0
  9
$PUCSORGFRONT
 10
0.0
 20
0.0
 30
0.0
  9
$PUCSORGBACK
 10
0.0
 20
0.0
 30
0.0
  9
$USERI1
 70
     0
  9
$USERI2
 70
     0
  9
$USERI3
 70
     0
  9
$USERI4
 70
     0
  9
$USERI5
 70
     0
  9
$USERR1
 40
0.0
  9
$USERR2
 40
0.0
  9
$USERR3
 40
0.0
  9
$USERR4
 40
0.0
  9
$USERR5
 40
0.0
  9
$WORLDVIEW
 70
     1
  9
$SHADEDGE
 70
     3
  9
$SHADEDIF
 70
    70
  9
$TILEMODE
 70
     1
  9
$MAXACTVP
 70
    16
  9
$PINSBASE
 10
0.0
 20
0.0
 30
0.0
  9
$PLIMCHECK
 70
     0
  9
$PEXTMIN
 10
-1.000000000000000E+20
 20
-1.000000000000000E+20
 30
-1.000000000000000E+20
  9
$PEXTMAX
 10
-1.000000000000000E+20
 20
-1.000000000000000E+20
 30
-1.000000000000000E+20
  9
$PLIMMIN
 10
0.0
 20
0.0
  9
$PLIMMAX
 10
12.0
 20
9.0
  9
$UNITMODE
 70
     0
  9
$VISRETAIN
 70
     0
  9
$PLINEGEN
 70
     0
  9
$PSLTSCALE
 70
     1
  9
$TREEDEPTH
 70
  3020
  9
$CMLSTYLE
  2
STANDARD
  9
$CMLJUST
 70
     0
  9
$CMLSCALE
 40
1.0
  9
$PROXYGRAPHICS
 70
     1
  9
$MEASUREMENT
 70
     0
  9
$CELWEIGHT
370
    -1
  9
$ENDCAPS
280
     0
  9
$JOINSTYLE
280
     0
  9
$LWDISPLAY
290
     0
  9
$INSUNITS
 70
     0
  9
$HYPERLINKBASE
  1

  9
$STYLESHEET
  1

  9
$XEDIT
290
     1
  9
$CEPSNTYPE
380
     0
  9
$PSTYLEMODE
290
     1
  9
$FINGERPRINTGUID
  2
{81C46E06-4207-4721-BCC6-8C733CC7CBFC}
  9
$VERSIONGUID
  2
{4ED2F50D-D549-4ADF-8428-1DD66F9CB71F}
  9
$EXTNAMES
290
     1
  9
$PSVPSCALE
 40
0.0
  9
$OLESTARTUP
290
     0
  0
ENDSEC
  0
SECTION
  2
CLASSES
  0
CLASS
  1
IDBUFFER
  2
AcDbIdBuffer
  3
AutoCAD 2000
 90
    32768
280
     0
281
     0
  0
CLASS
  1
ACDBDICTIONARYWDFLT
  2
AcDbDictionaryWithDefault
  3
AutoCAD 2000
 90
        0
280
     0
281
     0
  0
CLASS
  1
ACDBPLACEHOLDER
  2
AcDbPlaceHolder
  3
AutoCAD 2000
 90
        0
280
     0
281
     0
  0
CLASS
  1
LAYOUT
  2
AcDbLayout
  3
AutoCAD 2000
 90
        0
280
     0
281
     0
  0
CLASS
  1
MATERIAL
  2
AcDbMaterial
  3
ObjectDBX Classes
 90
     1153
280
     0
281
     0
  0
CLASS
  1
VISUALSTYLE
  2
AcDbVisualStyle
  3
ObjectDBX Classes
 90
     4095
280
     0
281
     0
  0
CLASS
  1
TABLESTYLE
  2
AcDbTableStyle
  3
ObjectDBX Classes
 90
     4095
280
     0
281
     0
  0
CLASS
  1
SORTENTSTABLE
  2
AcDbSortentsTable
  3
AutoCAD 2000
 90
        0
280
     0
281
     0
  0
CLASS
  1
DICTIONARYVAR
  2
AcDbDictionaryVar
  3
AutoCAD 2000
 90
        0
280
     0
281
     0
  0
CLASS
  1
SCALE
  2
AcDbScale
  3
ObjectDBX Classes
 90
     1153
280
     0
281
     0
  0
CLASS
  1
MLEADERSTYLE
  2
AcDbMLeaderStyle
  3
ACDB_MLEADERSTYLE_CLASS
 90
     4095
280
     0
281
     0
  0
CLASS
  1
EXACXREFPANELOBJECT
  2
ExAcXREFPanelObject
  3
EXAC_ESW
 90
    33793
280
     0
281
     0
  0
CLASS
  1
NPOCOLLECTION
  2
AcDbImpNonPersistentObjectsCollection
  3
ObjectDBX Classes
 90
    33921
280
     0
281
     0
  0
CLASS
  1
CELLSTYLEMAP
  2
AcDbCellStyleMap
  3
ObjectDBX Classes
 90
     1152
280
     0
281
     0
  0
ENDSEC
  0
SECTION
  2
TABLES
  0
TABLE
  2
VPORT
  5
17B
330
0
100
AcDbSymbolTable
 70
     2
  0
VPORT
  5
107F
330
17B
100
AcDbSymbolTableRecord
100
AcDbViewportTableRecord
  2
*Active
 70
     0
 10
0.0
 20
0.0
 11
1.0
 21
1.0
 12
184.2314156864394
 22
157.301782165674
 13
0.0
 23
0.0
 14
0.0
 24
0.0
 15
0.0
 25
0.0
 16
0.0
 26
0.0
 36
1.0
 17
662.702334
 27
588.79375
 37
0.0
 40
369.0788783746175
 41
1.94776119402985
 42
50.0
 43
0.0
 44
0.0
 50
0.0
 51
0.0
 71
     0
 72
   100
 73
     1
 74
     0
 75
     0
 76
     0
 77
     0
 78
     0
281
     0
 65
     1
110
0.0
120
0.0
130
0.0
111
1.0
121
0.0
131
0.0
112
0.0
122
1.0
132
0.0
 79
     0
146
0.0
  0
ENDTAB
  0
TABLE
  2
LTYPE
  5
178
330
0
100
AcDbSymbolTable
 70
     1
  0
LTYPE
  5
185
330
178
100
AcDbSymbolTableRecord
100
AcDbLinetypeTableRecord
  2
BYBLOCK
 70
     0
  3

 72
    65
 73
     0
 40
0.0
  0
LTYPE
  5
186
330
178
100
AcDbSymbolTableRecord
100
AcDbLinetypeTableRecord
  2
BYLAYER
 70
     0
  3

 72
    65
 73
     0
 40
0.0
  0
LTYPE
  5
187
330
178
100
AcDbSymbolTableRecord
100
AcDbLinetypeTableRecord
  2
CONTINUOUS
 70
     0
  3
Solid line
 72
    65
 73
     0
 40
0.0
  0
ENDTAB
  0
TABLE
  2
LAYER
  5
175
330
0
100
AcDbSymbolTable
 70
     3
  0
LAYER
  5
181
102
{ACAD_XDICTIONARY
360
1028
102
}
330
175
100
AcDbSymbolTableRecord
100
AcDbLayerTableRecord
  2
0
 70
     0
 62
     7
  6
CONTINUOUS
370
    -3
390
993
  0
LAYER
  5
19A
102
{ACAD_XDICTIONARY
360
102A
102
}
330
175
100
AcDbSymbolTableRecord
100
AcDbLayerTableRecord
  2
1
 70
     0
 62
     7
  6
CONTINUOUS
370
    -3
390
993
  0
LAYER
  5
19B
102
{ACAD_XDICTIONARY
360
102C
102
}
330
175
100
AcDbSymbolTableRecord
100
AcDbLayerTableRecord
  2
-1
 70
     0
 62
     7
  6
CONTINUOUS
370
    -3
390
993
  0
ENDTAB
  0
TABLE
  2
STYLE
  5
176
330
0
100
AcDbSymbolTable
 70
     1
  0
STYLE
  5
182
330
176
100
AcDbSymbolTableRecord
100
AcDbTextStyleTableRecord
  2
STANDARD
 70
     0
 40
0.0
 41
1.0
 50
0.0
 71
     0
 42
0.2
  3
txt
  4

  0
ENDTAB
  0
TABLE
  2
VIEW
  5
179
330
0
100
AcDbSymbolTable
 70
     0
  0
ENDTAB
  0
TABLE
  2
UCS
  5
17A
330
0
100
AcDbSymbolTable
 70
     0
  0
ENDTAB
  0
TABLE
  2
APPID
  5
17C
330
0
100
AcDbSymbolTable
 70
     3
  0
APPID
  5
183
330
17C
100
AcDbSymbolTableRecord
100
AcDbRegAppTableRecord
  2
ACAD
 70
     0
  0
APPID
  5
ECA
330
17C
100
AcDbSymbolTableRecord
100
AcDbRegAppTableRecord
  2
ACAD_EXEMPT_FROM_CAD_STANDARDS
 70
     0
  0
APPID
  5
106E
330
17C
100
AcDbSymbolTableRecord
100
AcDbRegAppTableRecord
  2
ACAD_MLEADERVER
 70
     0
  0
ENDTAB
  0
TABLE
  2
DIMSTYLE
  5
17D
330
0
100
AcDbSymbolTable
 70
     1
100
AcDbDimStyleTable
 71
     1
340
19E
  0
DIMSTYLE
105
19E
330
17D
100
AcDbSymbolTableRecord
100
AcDbDimStyleTableRecord
  2
STANDARD
 70
     0
340
182
  0
ENDTAB
  0
TABLE
  2
BLOCK_RECORD
  5
174
330
0
100
AcDbSymbolTable
 70
     2
  0
BLOCK_RECORD
  5
18B
102
{ACAD_XDICTIONARY
360
B95
102
}
330
174
100
AcDbSymbolTableRecord
100
AcDbBlockTableRecord
  2
*MODEL_SPACE
340
C08
  0
BLOCK_RECORD
  5
188
102
{ACAD_XDICTIONARY
360
B93
102
}
330
174
100
AcDbSymbolTableRecord
100
AcDbBlockTableRecord
  2
*PAPER_SPACE
340
C09
  0
BLOCK_RECORD
  5
5EE
102
{ACAD_XDICTIONARY
360
5F7
102
}
330
174
100
AcDbSymbolTableRecord
100
AcDbBlockTableRecord
  2
GASK3
340
0
102
{BLKREFS
331
5F6
102
}
  0
ENDTAB
  0
ENDSEC
  0
SECTION
  2
BLOCKS
  0
BLOCK
  5
18C
330
18B
100
AcDbEntity
  8
0
100
AcDbBlockBegin
  2
*MODEL_SPACE
 70
     0
 10
0.0
 20
0.0
 30
0.0
  3
*MODEL_SPACE
  1

  0
ENDBLK
  5
18D
330
18B
100
AcDbEntity
  8
0
100
AcDbBlockEnd
  0
BLOCK
  5
189
330
188
100
AcDbEntity
 67
     1
  8
0
100
AcDbBlockBegin
  2
*PAPER_SPACE
 70
     0
 10
0.0
 20
0.0
 30
0.0
  3
*PAPER_SPACE
  1

  0
ENDBLK
  5
18A
330
188
100
AcDbEntity
 67
     1
  8
0
100
AcDbBlockEnd
  0
BLOCK
  5
5EF
330
5EE
100
AcDbEntity
  8
0
 62
     3
100
AcDbBlockBegin
  2
GASK3
 70
     4
 71
     1
 10
0.0
 20
0.0
 30
0.0
  3
GASK3
  1
C:\Active\ZPL\Avris\PipeData.4-5\source\dgn\GASK\Gask3.dwg
  0
ENDBLK
  5
5F0
330
5EE
100
AcDbEntity
  8
0
 62
     3
100
AcDbBlockEnd
  0
ENDSEC
  0
SECTION
  2
ENTITIES
  0
INSERT
  5
5F6
330
18B
100
AcDbEntity
  8
0
  6
Continuous
 62
     3
100
AcDbBlockReference
  2
GASK3
 10
0.0
 20
0.0
 30
0.0
  0
LINE
  5
73C
330
18B
100
AcDbEntity
  8
0
  6
Continuous
 62
     4
100
AcDbLine
 10
860.9160052072017
 20
954.6644129481821
 30
0.0
 11
860.9160052072017
 21
231.6644129481824
 31
0.0
  0
LINE
  5
766
330
18B
100
AcDbEntity
  8
0
  6
Continuous
 62
     4
100
AcDbLine
 10
1115.686622162169
 20
372.6644129481818
 30
0.0
 11
592.8436342072016
 21
372.6644129481818
 31
0.0
  0
ARC
  5
76D
330
18B
100
AcDbEntity
  8
0
  6
Continuous
 62
     4
100
AcDbCircle
 10
829.4160052072017
 20
513.6644129481818
 30
0.0
 40
60.45082949999999
100
AcDbArc
 50
144.9695729999948
 51
180.0
  0
ARC
  5
76E
330
18B
100
AcDbEntity
  8
0
  6
Continuous
 62
     4
100
AcDbCircle
 10
892.4160052072023
 20
513.6644129481818
 30
0.0
 40
60.45082949999999
100
AcDbArc
 50
0.0
 51
35.03042700000515
  0
LINE
  5
ED6
330
18B
100
AcDbEntity
  8
1
  6
Continuous
 62
     4
100
AcDbLine
 10
680.9160052072022
 20
939.5876543591905
 30
0.0
 11
686.9927637961932
 21
945.6644129481821
 31
0.0
1001
ACAD
1010
0.0
1020
0.0
1030
0.0
  0
LINE
  5
ED7
330
18B
100
AcDbEntity
  8
1
  6
Continuous
 62
     4
100
AcDbLine
 10
680.9160052072022
 20
928.9810526413923
 30
0.0
 11
697.5993655139919
 21
945.6644129481825
 31
0.0
1001
ACAD
1010
0.0
1020
0.0
1030
0.0
  0
LINE
  5
ED8
330
18B
100
AcDbEntity
  8
1
  6
Continuous
 62
     4
100
AcDbLine
 10
680.9160052072022
 20
918.3744509235941
 30
0.0
 11
708.2059672317907
 21
945.6644129481826
 31
0.0
1001
ACAD
1010
0.0
1020
0.0
1030
0.0
  0
LINE
  5
ED9
330
18B
100
AcDbEntity
  8
1
  6
Continuous
 62
     4
100
AcDbLine
 10
680.9160052072022
 20
907.7678492057955
 30
0.0
 11
718.8125689495889
 21
945.664412948183
 31
0.0
1001
ACAD
1010
0.0
1020
0.0
1030
0.0
  0
LINE
  5
EDA
330
18B
100
AcDbEntity
  8
1
  6
Continuous
 62
     4
100
AcDbLine
 10
684.419170667387
 20
900.6644129481822
 30
0.0
 11
729.4191706673871
 21
945.6644129481833
 31
0.0
1001
ACAD
1010
0.0
1020
0.0
1030
0.0
  0
LINE
  5
EDB
330
18B
100
AcDbEntity
  8
1
  6
Continuous
 62
     4
100
AcDbLine
 10
695.0257723851852
 20
900.6644129481822
 30
0.0
 11
740.0257723851857
 21
945.6644129481835
 31
0.0
1001
ACAD
1010
0.0
1020
0.0
1030
0.0
  0
LINE
  5
EDC
330
18B
100
AcDbEntity
  8
1
  6
Continuous
 62
     4
100
AcDbLine
 10
705.6323741029829
 20
900.6644129481822
 30
0.0
 11
750.6323741029826
 21
945.6644129481825
 31
0.0
1001
ACAD
1010
0.0
1020
0.0
1030
0.0
  0
LINE
  5
EDD
330
18B
100
AcDbEntity
  8
1
  6
Continuous
 62
     4
100
AcDbLine
 10
716.2389758207807
 20
900.6644129481822
 30
0.0
 11
761.2389758207807
 21
945.6644129481825
 31
0.0
1001
ACAD
1010
0.0
1020
0.0
1030
0.0
  0
LINE
  5
EDE
330
18B
100
AcDbEntity
  8
1
  6
Continuous
 62
     4
100
AcDbLine
 10
726.8455775385789
 20
900.6644129481822
 30
0.0
 11
771.8455775385789
 21
945.6644129481825
 31
0.0
1001
ACAD
1010
0.0
1020
0.0
1030
0.0
  0
LINE
  5
EDF
330
18B
100
AcDbEntity
  8
1
  6
Continuous
 62
     4
100
AcDbLine
 10
737.4521792563771
 20
900.6644129481822
 30
0.0
 11
782.4521792563766
 21
945.6644129481821
 31
0.0
1001
ACAD
1010
0.0
1020
0.0
1030
0.0
  0
LINE
  5
EE0
330
18B
100
AcDbEntity
  8
1
  6
Continuous
 62
     4
100
AcDbLine
 10
748.0587809741753
 20
900.6644129481822
 30
0.0
 11
802.0587809741744
 21
954.6644129481821
 31
0.0
1001
ACAD
1010
0.0
1020
0.0
1030
0.0
  0
LINE
  5
EE1
330
18B
100
AcDbEntity
  8
1
  6
Continuous
 62
     4
100
AcDbLine
 10
758.6653826919736
 20
900.6644129481822
 30
0.0
 11
812.6653826919726
 21
954.6644129481821
 31
0.0
1001
ACAD
1010
0.0
1020
0.0
1030
0.0
  0
LINE
  5
EE2
330
18B
100
AcDbEntity
  8
1
  6
Continuous
 62
     4
100
AcDbLine
 10
769.2719844097717
 20
900.6644129481822
 30
0.0
 11
823.2719844097708
 21
954.6644129481824
 31
0.0
1001
ACAD
1010
0.0
1020
0.0
1030
0.0
  0
LINE
  5
EE3
330
18B
100
AcDbEntity
  8
1
  6
Continuous
 62
     4
100
AcDbLine
 10
779.8554610681206
 20
900.641287888733
 30
0.0
 11
829.4160052072017
 21
950.2018320278152
 31
0.0
1001
ACAD
1010
0.0
1020
0.0
1030
0.0
  0
LINE
  5
EE4
330
18B
100
AcDbEntity
  8
1
  6
Continuous
 62
     4
100
AcDbLine
 10
787.2241530798462
 20
897.4033781826609
 30
0.0
 11
829.4160052072017
 21
939.5952303100171
 31
0.0
1001
ACAD
1010
0.0
1020
0.0
1030
0.0
  0
LINE
  5
EE5
330
18B
100
AcDbEntity
  8
1
  6
Continuous
 62
     4
100
AcDbLine
 10
790.7608211532123
 20
890.3334445382283
 30
0.0
 11
829.4160052072017
 21
928.9886285922188
 31
0.0
1001
ACAD
1010
0.0
1020
0.0
1030
0.0
  0
LINE
  5
EE6
330
18B
100
AcDbEntity
  8
1
  6
Continuous
 62
     4
100
AcDbLine
 10
788.9160052072017
 20
952.1282388990075
 30
0.0
 11
791.4521792563768
 21
954.6644129481821
 31
0.0
1001
ACAD
1010
0.0
1020
0.0
1030
0.0
  0
LINE
  5
EE8
330
18B
100
AcDbEntity
  8
1
  6
Continuous
 62
     4
100
AcDbLine
 10
792.3678819951617
 20
881.33390366238
 30
0.0
 11
829.4160052072017
 21
918.3820268744208
 31
0.0
1001
ACAD
1010
0.0
1020
0.0
1030
0.0
  0
LINE
  5
EE9
330
18B
100
AcDbEntity
  8
1
  6
Continuous
 62
     4
100
AcDbLine
 10
793.9749428371112
 20
872.3343627865311
 30
0.0
 11
829.4160052072017
 21
907.7754251566222
 31
0.0
1001
ACAD
1010
0.0
1020
0.0
1030
0.0
  0
LINE
  5
EEA
330
18B
100
AcDbEntity
  8
1
  6
Continuous
 62
     4
100
AcDbLine
 10
795.5820036790612
 20
863.334821910683
 30
0.0
 11
829.4160052072017
 21
897.1688234388244
 31
0.0
1001
ACAD
1010
0.0
1020
0.0
1030
0.0
  0
LINE
  5
EEB
330
18B
100
AcDbEntity
  8
1
  6
Continuous
 62
     4
100
AcDbLine
 10
797.1890645210107
 20
854.3352810348341
 30
0.0
 11
829.4160052072017
 21
886.5622217210257
 31
0.0
1001
ACAD
1010
0.0
1020
0.0
1030
0.0
  0
LINE
  5
EEC
330
18B
100
AcDbEntity
  8
1
  6
Continuous
 62
     4
100
AcDbLine
 10
798.7961253629607
 20
845.3357401589858
 30
0.0
 11
829.4160052072017
 21
875.9556200032276
 31
0.0
1001
ACAD
1010
0.0
1020
0.0
1030
0.0
  0
LINE
  5
EED
330
18B
100
AcDbEntity
  8
1
  6
Continuous
 62
     4
100
AcDbLine
 10
800.4031862049103
 20
836.3361992831372
 30
0.0
 11
829.4160052072017
 21
865.3490182854293
 31
0.0
1001
ACAD
1010
0.0
1020
0.0
1030
0.0
  0
LINE
  5
EEE
330
18B
100
AcDbEntity
  8
1
  6
Continuous
 62
     4
100
AcDbLine
 10
802.0102470468597
 20
827.3366584072888
 30
0.0
 11
829.4160052072017
 21
854.7424165676313
 31
0.0
1001
ACAD
1010
0.0
1020
0.0
1030
0.0
  0
LINE
  5
EEF
330
18B
100
AcDbEntity
  8
1
  6
Continuous
 62
     4
100
AcDbLine
 10
803.6173078888094
 20
818.3371175314402
 30
0.0
 11
829.4160052072017
 21
844.1358148498329
 31
0.0
1001
ACAD
1010
0.0
1020
0.0
1030
0.0
  0
LINE
  5
EF0
330
18B
100
AcDbEntity
  8
1
  6
Continuous
 62
     4
100
AcDbLine
 10
805.2243687307592
 20
809.3375766555917
 30
0.0
 11
829.4160052072017
 21
833.5292131320347
 31
0.0
1001
ACAD
1010
0.0
1020
0.0
1030
0.0
  0
LINE
  5
EF1
330
18B
100
AcDbEntity
  8
1
  6
Continuous
 62
     4
100
AcDbLine
 10
806.8314295727088
 20
800.338035779743
 30
0.0
 11
829.4160052072017
 21
822.9226114142361
 31
0.0
1001
ACAD
1010
0.0
1020
0.0
1030
0.0
  0
LINE
  5
EF2
330
18B
100
AcDbEntity
  8
1
  6
Continuous
 62
     4
100
AcDbLine
 10
808.4384904146586
 20
791.3384949038946
 30
0.0
 11
829.4160052072017
 21
812.3160096964383
 31
0.0
1001
ACAD
1010
0.0
1020
0.0
1030
0.0
  0
LINE
  5
EF3
330
18B
100
AcDbEntity
  8
1
  6
Continuous
 62
     4
100
AcDbLine
 10
809.8812340533493
 20
782.1746368247873
 30
0.0
 11
829.4160052072017
 21
801.7094079786399
 31
0.0
1001
ACAD
1010
0.0
1020
0.0
1030
0.0
  0
LINE
  5
EF4
330
18B
100
AcDbEntity
  8
1
  6
Continuous
 62
     4
100
AcDbLine
 10
810.8823687266538
 20
772.569169780293
 30
0.0
 11
829.4160052072017
 21
791.1028062608417
 31
0.0
1001
ACAD
1010
0.0
1020
0.0
1030
0.0
  0
LINE
  5
EF5
330
18B
100
AcDbEntity
  8
1
  6
Continuous
 62
     4
100
AcDbLine
 10
811.3771823220186
 20
762.4573816578598
 30
0.0
 11
829.4160052072017
 21
780.4962045430434
 31
0.0
1001
ACAD
1010
0.0
1020
0.0
1030
0.0
  0
LINE
  5
EF6
330
18B
100
AcDbEntity
  8
1
  6
Continuous
 62
     4
100
AcDbLine
 10
811.4160052072017
 20
751.8896028252449
 30
0.0
 11
829.4160052072017
 21
769.8896028252452
 31
0.0
1001
ACAD
1010
0.0
1020
0.0
1030
0.0
  0
LINE
  5
EF7
330
18B
100
AcDbEntity
  8
1
  6
Continuous
 62
     4
100
AcDbLine
 10
811.4160052072023
 20
741.2830011074467
 30
0.0
 11
829.4160052072017
 21
759.2830011074469
 31
0.0
1001
ACAD
1010
0.0
1020
0.0
1030
0.0
  0
LINE
  5
EF8
330
18B
100
AcDbEntity
  8
1
  6
Continuous
 62
     4
100
AcDbLine
 10
811.4160052072017
 20
730.6763993896486
 30
0.0
 11
829.4160052072017
 21
748.6763993896487
 31
0.0
1001
ACAD
1010
0.0
1020
0.0
1030
0.0
  0
LINE
  5
EF9
330
18B
100
AcDbEntity
  8
1
  6
Continuous
 62
     4
100
AcDbLine
 10
811.4160052072023
 20
720.0697976718503
 30
0.0
 11
829.4160052072017
 21
738.0697976718504
 31
0.0
1001
ACAD
1010
0.0
1020
0.0
1030
0.0
  0
LINE
  5
EFA
330
18B
100
AcDbEntity
  8
1
  6
Continuous
 62
     4
100
AcDbLine
 10
811.4160052072017
 20
709.4631959540521
 30
0.0
 11
829.4160052072017
 21
727.4631959540522
 31
0.0
1001
ACAD
1010
0.0
1020
0.0
1030
0.0
  0
LINE
  5
EFB
330
18B
100
AcDbEntity
  8
1
  6
Continuous
 62
     4
100
AcDbLine
 10
811.4160052072023
 20
698.8565942362538
 30
0.0
 11
829.4160052072017
 21
716.856594236254
 31
0.0
1001
ACAD
1010
0.0
1020
0.0
1030
0.0
  0
LINE
  5
EFC
330
18B
100
AcDbEntity
  8
1
  6
Continuous
 62
     4
100
AcDbLine
 10
811.4160052072017
 20
688.2499925184555
 30
0.0
 11
829.4160052072017
 21
706.2499925184558
 31
0.0
1001
ACAD
1010
0.0
1020
0.0
1030
0.0
  0
LINE
  5
EFD
330
18B
100
AcDbEntity
  8
1
  6
Continuous
 62
     4
100
AcDbLine
 10
811.4160052072023
 20
677.6433908006572
 30
0.0
 11
829.4160052072017
 21
695.6433908006572
 31
0.0
1001
ACAD
1010
0.0
1020
0.0
1030
0.0
  0
LINE
  5
EFE
330
18B
100
AcDbEntity
  8
1
  6
Continuous
 62
     4
100
AcDbLine
 10
811.4160052072017
 20
667.0367890828591
 30
0.0
 11
829.4160052072017
 21
685.0367890828594
 31
0.0
1001
ACAD
1010
0.0
1020
0.0
1030
0.0
  0
LINE
  5
EFF
330
18B
100
AcDbEntity
  8
1
  6
Continuous
 62
     4
100
AcDbLine
 10
811.4158156959495
 20
656.4299978538082
 30
0.0
 11
829.4160052072017
 21
674.4301873650607
 31
0.0
1001
ACAD
1010
0.0
1020
0.0
1030
0.0
  0
LINE
  5
F00
330
18B
100
AcDbEntity
  8
1
  6
Continuous
 62
     4
100
AcDbLine
 10
810.4533729030615
 20
644.8609533431224
 30
0.0
 11
829.4160052072017
 21
663.8235856472629
 31
0.0
1001
ACAD
1010
0.0
1020
0.0
1030
0.0
  0
LINE
  5
F01
330
18B
100
AcDbEntity
  8
1
  6
Continuous
 62
     4
100
AcDbLine
 10
806.4060335113063
 20
630.2070122335686
 30
0.0
 11
829.4160052072017
 21
653.2169839294645
 31
0.0
1001
ACAD
1010
0.0
1020
0.0
1030
0.0
  0
LINE
  5
F02
330
18B
100
AcDbEntity
  8
1
  6
Continuous
 62
     4
100
AcDbLine
 10
794.0777708763612
 20
607.2721478808249
 30
0.0
 11
829.4160052072017
 21
642.6103822116664
 31
0.0
1001
ACAD
1010
0.0
1020
0.0
1030
0.0
  0
LINE
  5
F03
330
18B
100
AcDbEntity
  8
1
  6
Continuous
 62
     4
100
AcDbLine
 10
779.9160052072022
 20
582.503780493868
 30
0.0
 11
829.4160052072017
 21
632.003780493868
 31
0.0
1001
ACAD
1010
0.0
1020
0.0
1030
0.0
  0
LINE
  5
F04
330
18B
100
AcDbEntity
  8
1
  6
Continuous
 62
     4
100
AcDbLine
 10
779.9160052072022
 20
571.8971787760692
 30
0.0
 11
829.4160052072017
 21
621.3971787760697
 31
0.0
1001
ACAD
1010
0.0
1020
0.0
1030
0.0
  0
LINE
  5
F05
330
18B
100
AcDbEntity
  8
1
  6
Continuous
 62
     4
100
AcDbLine
 10
779.9160052072022
 20
561.2905770582714
 30
0.0
 11
829.4160052072017
 21
610.7905770582715
 31
0.0
1001
ACAD
1010
0.0
1020
0.0
1030
0.0
  0
LINE
  5
F06
330
18B
100
AcDbEntity
  8
1
  6
Continuous
 62
     4
100
AcDbLine
 10
779.9160052072022
 20
550.6839753404729
 30
0.0
 11
829.4160052072017
 21
600.1839753404732
 31
0.0
1001
ACAD
1010
0.0
1020
0.0
1030
0.0
  0
LINE
  5
F07
330
18B
100
AcDbEntity
  8
1
  6
Continuous
 62
     4
100
AcDbLine
 10
784.7875545993685
 20
544.9489230148413
 30
0.0
 11
829.4160052072017
 21
589.577373622675
 31
0.0
1001
ACAD
1010
0.0
1020
0.0
1030
0.0
  0
LINE
  5
F08
330
18B
100
AcDbEntity
  8
1
  6
Continuous
 62
     4
100
AcDbLine
 10
791.0230669107567
 20
540.5778336084311
 30
0.0
 11
829.4160052072017
 21
578.9707719048768
 31
0.0
1001
ACAD
1010
0.0
1020
0.0
1030
0.0
  0
LINE
  5
F09
330
18B
100
AcDbEntity
  8
1
  6
Continuous
 62
     4
100
AcDbLine
 10
797.2585792221446
 20
536.206744202021
 30
0.0
 11
829.4160052072017
 21
568.3641701870786
 31
0.0
1001
ACAD
1010
0.0
1020
0.0
1030
0.0
  0
LINE
  5
F0A
330
18B
100
AcDbEntity
  8
1
  6
Continuous
 62
     4
100
AcDbLine
 10
803.4940915335326
 20
531.8356547956108
 30
0.0
 11
829.4160052072017
 21
557.7575684692805
 31
0.0
1001
ACAD
1010
0.0
1020
0.0
1030
0.0
  0
LINE
  5
F0B
330
18B
100
AcDbEntity
  8
1
  6
Continuous
 62
     4
100
AcDbLine
 10
809.729603844921
 20
527.4645653892006
 30
0.0
 11
829.4160052072017
 21
547.1509667514822
 31
0.0
1001
ACAD
1010
0.0
1020
0.0
1030
0.0
  0
LINE
  5
F0C
330
18B
100
AcDbEntity
  8
1
  6
Continuous
 62
     4
100
AcDbLine
 10
815.9651161563086
 20
523.0934759827905
 30
0.0
 11
829.4160052072017
 21
536.544365033684
 31
0.0
1001
ACAD
1010
0.0
1020
0.0
1030
0.0
  0
LINE
  5
F0D
330
18B
100
AcDbEntity
  8
1
  6
Continuous
 62
     4
100
AcDbLine
 10
822.200628467697
 20
518.7223865763805
 30
0.0
 11
829.4160052072017
 21
525.9377633158853
 31
0.0
1001
ACAD
1010
0.0
1020
0.0
1030
0.0
  0
LINE
  5
F0E
330
18B
100
AcDbEntity
  8
1
  6
Continuous
 62
     4
100
AcDbLine
 10
828.4361407790848
 20
514.35129716997
 30
0.0
 11
829.4160052072017
 21
515.3311615980872
 31
0.0
1001
ACAD
1010
0.0
1020
0.0
1030
0.0
  0
LINE
  5
F0F
330
18B
100
AcDbEntity
  8
1
  6
Continuous
 62
     4
100
AcDbLine
 10
892.4160052072023
 20
948.5876543591905
 30
0.0
 11
898.4927637961932
 21
954.6644129481821
 31
0.0
1001
ACAD
1010
0.0
1020
0.0
1030
0.0
  0
LINE
  5
F10
330
18B
100
AcDbEntity
  8
1
  6
Continuous
 62
     4
100
AcDbLine
 10
892.4160052072023
 20
937.9810526413923
 30
0.0
 11
909.099365513992
 21
954.6644129481824
 31
0.0
1001
ACAD
1010
0.0
1020
0.0
1030
0.0
  0
LINE
  5
F11
330
18B
100
AcDbEntity
  8
1
  6
Continuous
 62
     4
100
AcDbLine
 10
892.4160052072027
 20
927.3744509235941
 30
0.0
 11
919.7059672317903
 21
954.6644129481821
 31
0.0
1001
ACAD
1010
0.0
1020
0.0
1030
0.0
  0
LINE
  5
F12
330
18B
100
AcDbEntity
  8
1
  6
Continuous
 62
     4
100
AcDbLine
 10
892.4160052072027
 20
916.7678492057961
 30
0.0
 11
930.312568949588
 21
954.6644129481821
 31
0.0
1001
ACAD
1010
0.0
1020
0.0
1030
0.0
  0
LINE
  5
F13
330
18B
100
AcDbEntity
  8
1
  6
Continuous
 62
     4
100
AcDbLine
 10
892.4160052072027
 20
906.161247487998
 30
0.0
 11
932.9160052072017
 21
946.6612474879982
 31
0.0
1001
ACAD
1010
0.0
1020
0.0
1030
0.0
  0
LINE
  5
F14
330
18B
100
AcDbEntity
  8
1
  6
Continuous
 62
     4
100
AcDbLine
 10
892.4160052072027
 20
895.5546457701997
 30
0.0
 11
942.525772385184
 21
945.6644129481821
 31
0.0
1001
ACAD
1010
0.0
1020
0.0
1030
0.0
  0
LINE
  5
F15
330
18B
100
AcDbEntity
  8
1
  6
Continuous
 62
     4
100
AcDbLine
 10
892.4160052072027
 20
884.9480440524017
 30
0.0
 11
953.1323741029821
 21
945.6644129481821
 31
0.0
1001
ACAD
1010
0.0
1020
0.0
1030
0.0
  0
LINE
  5
F16
330
18B
100
AcDbEntity
  8
1
  6
Continuous
 62
     4
100
AcDbLine
 10
892.4160052072032
 20
874.3414423346036
 30
0.0
 11
963.7389758207801
 21
945.6644129481821
 31
0.0
1001
ACAD
1010
0.0
1020
0.0
1030
0.0
  0
LINE
  5
F17
330
18B
100
AcDbEntity
  8
1
  6
Continuous
 62
     4
100
AcDbLine
 10
892.4160052072032
 20
863.7348406168056
 30
0.0
 11
974.3455775385781
 21
945.6644129481821
 31
0.0
1001
ACAD
1010
0.0
1020
0.0
1030
0.0
  0
LINE
  5
F18
330
18B
100
AcDbEntity
  8
1
  6
Continuous
 62
     4
100
AcDbLine
 10
892.4160052072032
 20
853.1282388990074
 30
0.0
 11
931.4601919538015
 21
892.1724256456064
 31
0.0
1001
ACAD
1010
0.0
1020
0.0
1030
0.0
  0
LINE
  5
F19
330
18B
100
AcDbEntity
  8
1
  6
Continuous
 62
     4
100
AcDbLine
 10
892.4160052072036
 20
842.5216371812096
 30
0.0
 11
929.0806190212586
 21
879.1862509952654
 31
0.0
1001
ACAD
1010
0.0
1020
0.0
1030
0.0
  0
LINE
  5
F1A
330
18B
100
AcDbEntity
  8
1
  6
Continuous
 62
     4
100
AcDbLine
 10
892.4160052072023
 20
831.9150354634102
 30
0.0
 11
926.7748360893243
 21
866.2738663455327
 31
0.0
1001
ACAD
1010
0.0
1020
0.0
1030
0.0
  0
LINE
  5
F1B
330
18B
100
AcDbEntity
  8
1
  6
Continuous
 62
     4
100
AcDbLine
 10
892.4160052072036
 20
821.3084337456134
 30
0.0
 11
924.4690531573899
 21
853.3614816958001
 31
0.0
1001
ACAD
1010
0.0
1020
0.0
1030
0.0
  0
LINE
  5
F1C
330
18B
100
AcDbEntity
  8
1
  6
Continuous
 62
     4
100
AcDbLine
 10
892.4160052072036
 20
810.7018320278154
 30
0.0
 11
922.1632702254552
 21
840.4490970460672
 31
0.0
1001
ACAD
1010
0.0
1020
0.0
1030
0.0
  0
LINE
  5
F1D
330
18B
100
AcDbEntity
  8
1
  6
Continuous
 62
     4
100
AcDbLine
 10
892.4160052072036
 20
800.0952303100174
 30
0.0
 11
919.8574872935203
 21
827.5367123963347
 31
0.0
1001
ACAD
1010
0.0
1020
0.0
1030
0.0
  0
LINE
  5
F1E
330
18B
100
AcDbEntity
  8
1
  6
Continuous
 62
     4
100
AcDbLine
 10
892.4160052072041
 20
789.4886285922192
 30
0.0
 11
917.5517043615863
 21
814.6243277466016
 31
0.0
1001
ACAD
1010
0.0
1020
0.0
1030
0.0
  0
LINE
  5
F1F
330
18B
100
AcDbEntity
  8
1
  6
Continuous
 62
     4
100
AcDbLine
 10
892.4160052072023
 20
778.8820268744196
 30
0.0
 11
915.2459214296511
 21
801.7119430968689
 31
0.0
1001
ACAD
1010
0.0
1020
0.0
1030
0.0
  0
LINE
  5
F20
330
18B
100
AcDbEntity
  8
1
  6
Continuous
 62
     4
100
AcDbLine
 10
892.4160052072027
 20
768.2754251566214
 30
0.0
 11
912.94867758047
 21
788.8080975298891
 31
0.0
1001
ACAD
1010
0.0
1020
0.0
1030
0.0
  0
LINE
  5
F21
330
18B
100
AcDbEntity
  8
1
  6
Continuous
 62
     4
100
AcDbLine
 10
892.4160052072027
 20
757.6688234388232
 30
0.0
 11
911.3018128047555
 21
776.5546310363768
 31
0.0
1001
ACAD
1010
0.0
1020
0.0
1030
0.0
  0
LINE
  5
F22
330
18B
100
AcDbEntity
  8
1
  6
Continuous
 62
     4
100
AcDbLine
 10
892.4160052072027
 20
747.0622217210252
 30
0.0
 11
910.5319293178359
 21
765.1781458316589
 31
0.0
1001
ACAD
1010
0.0
1020
0.0
1030
0.0
  0
LINE
  5
F23
330
18B
100
AcDbEntity
  8
1
  6
Continuous
 62
     4
100
AcDbLine
 10
892.4160052072027
 20
736.4556200032271
 30
0.0
 11
910.4160052072016
 21
754.4556200032267
 31
0.0
1001
ACAD
1010
0.0
1020
0.0
1030
0.0
  0
LINE
  5
F24
330
18B
100
AcDbEntity
  8
1
  6
Continuous
 62
     4
100
AcDbLine
 10
892.4160052072023
 20
725.8490182854282
 30
0.0
 11
910.4160052072016
 21
743.8490182854283
 31
0.0
1001
ACAD
1010
0.0
1020
0.0
1030
0.0
  0
LINE
  5
F25
330
18B
100
AcDbEntity
  8
1
  6
Continuous
 62
     4
100
AcDbLine
 10
892.4160052072027
 20
715.2424165676303
 30
0.0
 11
910.4160052072016
 21
733.2424165676303
 31
0.0
1001
ACAD
1010
0.0
1020
0.0
1030
0.0
  0
LINE
  5
F26
330
18B
100
AcDbEntity
  8
1
  6
Continuous
 62
     4
100
AcDbLine
 10
892.4160052072027
 20
704.6358148498322
 30
0.0
 11
910.4160052072016
 21
722.6358148498323
 31
0.0
1001
ACAD
1010
0.0
1020
0.0
1030
0.0
  0
LINE
  5
F27
330
18B
100
AcDbEntity
  8
1
  6
Continuous
 62
     4
100
AcDbLine
 10
892.4160052072027
 20
694.0292131320343
 30
0.0
 11
910.4160052072016
 21
712.0292131320341
 31
0.0
1001
ACAD
1010
0.0
1020
0.0
1030
0.0
  0
LINE
  5
F28
330
18B
100
AcDbEntity
  8
1
  6
Continuous
 62
     4
100
AcDbLine
 10
892.4160052072027
 20
683.4226114142362
 30
0.0
 11
910.4160052072016
 21
701.4226114142356
 31
0.0
1001
ACAD
1010
0.0
1020
0.0
1030
0.0
  0
LINE
  5
F29
330
18B
100
AcDbEntity
  8
1
  6
Continuous
 62
     4
100
AcDbLine
 10
892.4160052072027
 20
672.8160096964382
 30
0.0
 11
910.4160052072016
 21
690.8160096964377
 31
0.0
1001
ACAD
1010
0.0
1020
0.0
1030
0.0
  0
LINE
  5
F2A
330
18B
100
AcDbEntity
  8
1
  6
Continuous
 62
     4
100
AcDbLine
 10
892.4160052072032
 20
662.2094079786401
 30
0.0
 11
910.4160052072016
 21
680.2094079786395
 31
0.0
1001
ACAD
1010
0.0
1020
0.0
1030
0.0
  0
LINE
  5
F2B
330
18B
100
AcDbEntity
  8
1
  6
Continuous
 62
     4
100
AcDbLine
 10
892.4160052072032
 20
651.6028062608419
 30
0.0
 11
910.4160052072016
 21
669.6028062608412
 31
0.0
1001
ACAD
1010
0.0
1020
0.0
1030
0.0
  0
LINE
  5
F2C
330
18B
100
AcDbEntity
  8
1
  6
Continuous
 62
     4
100
AcDbLine
 10
892.4160052072032
 20
640.996204543044
 30
0.0
 11
910.4160052072016
 21
658.9962045430429
 31
0.0
1001
ACAD
1010
0.0
1020
0.0
1030
0.0
  0
LINE
  5
F2D
330
18B
100
AcDbEntity
  8
1
  6
Continuous
 62
     4
100
AcDbLine
 10
892.4160052072036
 20
630.3896028252458
 30
0.0
 11
910.8379697176657
 21
648.811567335709
 31
0.0
1001
ACAD
1010
0.0
1020
0.0
1030
0.0
  0
LINE
  5
F2E
330
18B
100
AcDbEntity
  8
1
  6
Continuous
 62
     4
100
AcDbLine
 10
892.4160052072036
 20
619.7830011074477
 30
0.0
 11
912.4082294113387
 21
639.7752253115834
 31
0.0
1001
ACAD
1010
0.0
1020
0.0
1030
0.0
  0
LINE
  5
F2F
330
18B
100
AcDbEntity
  8
1
  6
Continuous
 62
     4
100
AcDbLine
 10
892.4160052072036
 20
609.1763993896497
 30
0.0
 11
914.8792107701151
 21
631.6396049525617
 31
0.0
1001
ACAD
1010
0.0
1020
0.0
1030
0.0
  0
LINE
  5
F30
330
18B
100
AcDbEntity
  8
1
  6
Continuous
 62
     4
100
AcDbLine
 10
892.4160052072036
 20
598.5697976718516
 30
0.0
 11
918.0923175128176
 21
624.2461099774661
 31
0.0
1001
ACAD
1010
0.0
1020
0.0
1030
0.0
  0
LINE
  5
F31
330
18B
100
AcDbEntity
  8
1
  6
Continuous
 62
     4
100
AcDbLine
 10
892.4160052072036
 20
587.9631959540536
 30
0.0
 11
921.887115658564
 21
617.4343064054145
 31
0.0
1001
ACAD
1010
0.0
1020
0.0
1030
0.0
  0
LINE
  5
F32
330
18B
100
AcDbEntity
  8
1
  6
Continuous
 62
     4
100
AcDbLine
 10
892.4160052072041
 20
577.3565942362555
 30
0.0
 11
925.7694012897088
 21
610.7099903187611
 31
0.0
1001
ACAD
1010
0.0
1020
0.0
1030
0.0
  0
LINE
  5
F33
330
18B
100
AcDbEntity
  8
1
  6
Continuous
 62
     4
100
AcDbLine
 10
892.4160052072041
 20
566.7499925184572
 30
0.0
 11
929.6516869208538
 21
603.9856742321077
 31
0.0
1001
ACAD
1010
0.0
1020
0.0
1030
0.0
  0
LINE
  5
F34
330
18B
100
AcDbEntity
  8
1
  6
Continuous
 62
     4
100
AcDbLine
 10
892.4160052072041
 20
556.1433908006594
 30
0.0
 11
933.5339725519984
 21
597.2613581454542
 31
0.0
1001
ACAD
1010
0.0
1020
0.0
1030
0.0
  0
LINE
  5
F35
330
18B
100
AcDbEntity
  8
1
  6
Continuous
 62
     4
100
AcDbLine
 10
892.4160052072044
 20
545.5367890828613
 30
0.0
 11
937.4162581831432
 21
590.5370420588006
 31
0.0
1001
ACAD
1010
0.0
1020
0.0
1030
0.0
  0
LINE
  5
F36
330
18B
100
AcDbEntity
  8
1
  6
Continuous
 62
     4
100
AcDbLine
 10
892.4160052072044
 20
534.9301873650631
 30
0.0
 11
941.2985438142875
 21
583.8127259721471
 31
0.0
1001
ACAD
1010
0.0
1020
0.0
1030
0.0
  0
LINE
  5
F37
330
18B
100
AcDbEntity
  8
1
  6
Continuous
 62
     4
100
AcDbLine
 10
892.4160052072044
 20
524.3235856472652
 30
0.0
 11
941.9160052072028
 21
573.823585647264
 31
0.0
1001
ACAD
1010
0.0
1020
0.0
1030
0.0
  0
LINE
  5
F38
330
18B
100
AcDbEntity
  8
1
  6
Continuous
 62
     4
100
AcDbLine
 10
892.4160052072023
 20
513.7169839294648
 30
0.0
 11
941.9160052072028
 21
563.2169839294657
 31
0.0
1001
ACAD
1010
0.0
1020
0.0
1030
0.0
  0
LINE
  5
F39
330
18B
100
AcDbEntity
  8
1
  6
Continuous
 62
     4
100
AcDbLine
 10
927.7136774341386
 20
538.4080544386038
 30
0.0
 11
941.9160052072022
 21
552.6103822116676
 31
0.0
1001
ACAD
1010
0.0
1020
0.0
1030
0.0
  0
LINE
  5
F3D
330
18B
100
AcDbEntity
  8
1
  6
Continuous
 62
     4
100
AcDbLine
 10
961.1653826919733
 20
900.6644129481822
 30
0.0
 11
1006.165382691972
 21
945.6644129481821
 31
0.0
1001
ACAD
1010
0.0
1020
0.0
1030
0.0
  0
LINE
  5
F3E
330
18B
100
AcDbEntity
  8
1
  6
Continuous
 62
     4
100
AcDbLine
 10
950.5587809741752
 20
900.6644129481822
 30
0.0
 11
995.5587809741743
 21
945.6644129481821
 31
0.0
1001
ACAD
1010
0.0
1020
0.0
1030
0.0
  0
LINE
  5
F3F
330
18B
100
AcDbEntity
  8
1
  6
Continuous
 62
     4
100
AcDbLine
 10
939.5037860097771
 20
900.2160197015824
 30
0.0
 11
984.9521792563752
 21
945.6644129481821
 31
0.0
1001
ACAD
1010
0.0
1020
0.0
1030
0.0
  0
LINE
  5
F42
330
18B
100
AcDbEntity
  8
1
  6
Continuous
 62
     4
100
AcDbLine
 10
971.7719844097715
 20
900.6644129481824
 30
0.0
 11
1016.771984409769
 21
945.6644129481821
 31
0.0
1001
ACAD
1010
0.0
1020
0.0
1030
0.0
  0
LINE
  5
F43
330
18B
100
AcDbEntity
  8
1
  6
Continuous
 62
     4
100
AcDbLine
 10
982.3785861275693
 20
900.6644129481824
 30
0.0
 11
1027.378586127568
 21
945.6644129481825
 31
0.0
1001
ACAD
1010
0.0
1020
0.0
1030
0.0
  0
LINE
  5
F44
330
18B
100
AcDbEntity
  8
1
  6
Continuous
 62
     4
100
AcDbLine
 10
992.985187845368
 20
900.6644129481822
 30
0.0
 11
1037.985187845366
 21
945.6644129481821
 31
0.0
1001
ACAD
1010
0.0
1020
0.0
1030
0.0
  0
LINE
  5
F45
330
18B
100
AcDbEntity
  8
1
  6
Continuous
 62
     4
100
AcDbLine
 10
1003.591789563164
 20
900.6644129481822
 30
0.0
 11
1040.9160052072
 21
937.9886285922188
 31
0.0
1001
ACAD
1010
0.0
1020
0.0
1030
0.0
  0
LINE
  5
F46
330
18B
100
AcDbEntity
  8
1
  6
Continuous
 62
     4
100
AcDbLine
 10
1014.198391280964
 20
900.6644129481824
 30
0.0
 11
1040.9160052072
 21
927.3820268744202
 31
0.0
1001
ACAD
1010
0.0
1020
0.0
1030
0.0
  0
LINE
  5
F47
330
18B
100
AcDbEntity
  8
1
  6
Continuous
 62
     4
100
AcDbLine
 10
1024.804992998761
 20
900.6644129481824
 30
0.0
 11
1040.9160052072
 21
916.7754251566222
 31
0.0
1001
ACAD
1010
0.0
1020
0.0
1030
0.0
  0
LINE
  5
F48
330
18B
100
AcDbEntity
  8
1
  6
Continuous
 62
     4
100
AcDbLine
 10
1035.41159471656
 20
900.6644129481824
 30
0.0
 11
1040.9160052072
 21
906.1688234388237
 31
0.0
1001
ACAD
1010
0.0
1020
0.0
1030
0.0
  0
LINE
  5
F4A
330
18B
100
AcDbEntity
  8
1
  6
Continuous
 62
     4
100
AcDbLine
 10
1132.84313852453
 20
499.9352171823183
 30
0.0
 11
1119.113941935222
 21
513.6644137716269
 31
0.0
1001
ACAD
1010
0.0
1020
0.0
1030
0.0
  0
LINE
  5
F4B
330
18B
100
AcDbEntity
  8
1
  6
Continuous
 62
     4
100
AcDbLine
 10
1132.84313852453
 20
510.5418189001166
 30
0.0
 11
1129.720543653019
 21
513.6644137716269
 31
0.0
1001
ACAD
1010
0.0
1020
0.0
1030
0.0
  0
LINE
  5
F4C
330
18B
100
AcDbEntity
  8
1
  6
Continuous
 62
     4
100
AcDbLine
 10
1132.84313852453
 20
489.3286154645208
 30
0.0
 11
1108.507340217423
 21
513.6644137716269
 31
0.0
1001
ACAD
1010
0.0
1020
0.0
1030
0.0
  0
LINE
  5
F4D
330
18B
100
AcDbEntity
  8
1
  6
Continuous
 62
     4
100
AcDbLine
 10
1130.400739323071
 20
481.1644129481821
 30
0.0
 11
1097.900738499625
 21
513.6644137716269
 31
0.0
1001
ACAD
1010
0.0
1020
0.0
1030
0.0
  0
LINE
  5
F4E
330
18B
100
AcDbEntity
  8
1
  6
Continuous
 62
     4
100
AcDbLine
 10
1119.794137605272
 20
481.1644129481821
 30
0.0
 11
1087.294136781828
 21
513.6644137716269
 31
0.0
1001
ACAD
1010
0.0
1020
0.0
1030
0.0
  0
LINE
  5
F4F
330
18B
100
AcDbEntity
  8
1
  6
Continuous
 62
     4
100
AcDbLine
 10
1109.187535887474
 20
481.1644129481821
 30
0.0
 11
1076.68753506403
 21
513.6644137716269
 31
0.0
1001
ACAD
1010
0.0
1020
0.0
1030
0.0
  0
LINE
  5
F50
330
18B
100
AcDbEntity
  8
1
  6
Continuous
 62
     4
100
AcDbLine
 10
1098.580934169676
 20
481.1644129481821
 30
0.0
 11
1066.080933346232
 21
513.6644137716269
 31
0.0
1001
ACAD
1010
0.0
1020
0.0
1030
0.0
  0
LINE
  5
F51
330
18B
100
AcDbEntity
  8
1
  6
Continuous
 62
     4
100
AcDbLine
 10
1087.974332451879
 20
481.1644129481821
 30
0.0
 11
1055.474331628434
 21
513.6644137716269
 31
0.0
1001
ACAD
1010
0.0
1020
0.0
1030
0.0
  0
LINE
  5
F52
330
18B
100
AcDbEntity
  8
1
  6
Continuous
 62
     4
100
AcDbLine
 10
1077.367730734079
 20
481.1644129481821
 30
0.0
 11
1044.867729910635
 21
513.6644137716269
 31
0.0
1001
ACAD
1010
0.0
1020
0.0
1030
0.0
  0
LINE
  5
F53
330
18B
100
AcDbEntity
  8
1
  6
Continuous
 62
     4
100
AcDbLine
 10
1066.761129016283
 20
481.1644129481821
 30
0.0
 11
1034.261128192838
 21
513.6644137716269
 31
0.0
1001
ACAD
1010
0.0
1020
0.0
1030
0.0
  0
LINE
  5
F54
330
18B
100
AcDbEntity
  8
1
  6
Continuous
 62
     4
100
AcDbLine
 10
1056.154527298484
 20
481.1644129481821
 30
0.0
 11
1023.65452647504
 21
513.6644137716269
 31
0.0
1001
ACAD
1010
0.0
1020
0.0
1030
0.0
  0
LINE
  5
F55
330
18B
100
AcDbEntity
  8
1
  6
Continuous
 62
     4
100
AcDbLine
 10
1045.547925580686
 20
481.1644129481821
 30
0.0
 11
1013.047924757242
 21
513.6644137716269
 31
0.0
1001
ACAD
1010
0.0
1020
0.0
1030
0.0
  0
LINE
  5
F56
330
18B
100
AcDbEntity
  8
1
  6
Continuous
 62
     4
100
AcDbLine
 10
1034.941323862889
 20
481.1644129481821
 30
0.0
 11
1002.441323039443
 21
513.6644137716269
 31
0.0
1001
ACAD
1010
0.0
1020
0.0
1030
0.0
  0
LINE
  5
F57
330
18B
100
AcDbEntity
  8
1
  6
Continuous
 62
     4
100
AcDbLine
 10
1024.33472214509
 20
481.1644129481821
 30
0.0
 11
991.8347213216463
 21
513.6644137716269
 31
0.0
1001
ACAD
1010
0.0
1020
0.0
1030
0.0
  0
LINE
  5
F58
330
18B
100
AcDbEntity
  8
1
  6
Continuous
 62
     4
100
AcDbLine
 10
1013.728120427293
 20
481.1644129481821
 30
0.0
 11
981.228119603848
 21
513.6644137716269
 31
0.0
1001
ACAD
1010
0.0
1020
0.0
1030
0.0
  0
LINE
  5
F59
330
18B
100
AcDbEntity
  8
1
  6
Continuous
 62
     4
100
AcDbLine
 10
1003.121518709494
 20
481.1644129481821
 30
0.0
 11
970.62151788605
 21
513.6644137716269
 31
0.0
1001
ACAD
1010
0.0
1020
0.0
1030
0.0
  0
LINE
  5
F5A
330
18B
100
AcDbEntity
  8
1
  6
Continuous
 62
     4
100
AcDbLine
 10
992.514916991697
 20
481.1644129481821
 30
0.0
 11
960.0149161682523
 21
513.6644137716269
 31
0.0
1001
ACAD
1010
0.0
1020
0.0
1030
0.0
  0
LINE
  5
F5B
330
18B
100
AcDbEntity
  8
1
  6
Continuous
 62
     4
100
AcDbLine
 10
981.9083152738992
 20
481.1644129481821
 30
0.0
 11
949.4083144504545
 21
513.6644137716269
 31
0.0
1001
ACAD
1010
0.0
1020
0.0
1030
0.0
  0
LINE
  5
F5C
330
18B
100
AcDbEntity
  8
1
  6
Continuous
 62
     4
100
AcDbLine
 10
971.301713556101
 20
481.1644129481821
 30
0.0
 11
938.8017127326563
 21
513.6644137716269
 31
0.0
1001
ACAD
1010
0.0
1020
0.0
1030
0.0
  0
LINE
  5
F5D
330
18B
100
AcDbEntity
  8
1
  6
Continuous
 62
     4
100
AcDbLine
 10
960.6951118383037
 20
481.1644129481821
 30
0.0
 11
928.1951110148579
 21
513.6644137716269
 31
0.0
1001
ACAD
1010
0.0
1020
0.0
1030
0.0
  0
LINE
  5
F5E
330
18B
100
AcDbEntity
  8
1
  6
Continuous
 62
     4
100
AcDbLine
 10
950.0885101205057
 20
481.1644129481821
 30
0.0
 11
917.5885092970602
 21
513.6644137716269
 31
0.0
1001
ACAD
1010
0.0
1020
0.0
1030
0.0
  0
LINE
  5
F5F
330
18B
100
AcDbEntity
  8
1
  6
Continuous
 62
     4
100
AcDbLine
 10
939.4819084027076
 20
481.1644129481821
 30
0.0
 11
906.9819075792628
 21
513.6644137716269
 31
0.0
1001
ACAD
1010
0.0
1020
0.0
1030
0.0
  0
LINE
  5
F60
330
18B
100
AcDbEntity
  8
1
  6
Continuous
 62
     4
100
AcDbLine
 10
928.8753066849093
 20
481.1644129481821
 30
0.0
 11
896.3753058614646
 21
513.6644137716269
 31
0.0
1001
ACAD
1010
0.0
1020
0.0
1030
0.0
  0
LINE
  5
F61
330
18B
100
AcDbEntity
  8
1
  6
Continuous
 62
     4
100
AcDbLine
 10
918.2687049671114
 20
481.1644129481821
 30
0.0
 11
892.4160052072023
 21
507.0171127080911
 31
0.0
1001
ACAD
1010
0.0
1020
0.0
1030
0.0
  0
LINE
  5
F62
330
18B
100
AcDbEntity
  8
1
  6
Continuous
 62
     4
100
AcDbLine
 10
907.6621032493138
 20
481.1644129481821
 30
0.0
 11
892.4160052072023
 21
496.4105109902933
 31
0.0
1001
ACAD
1010
0.0
1020
0.0
1030
0.0
  0
LINE
  5
F63
330
18B
100
AcDbEntity
  8
1
  6
Continuous
 62
     4
100
AcDbLine
 10
897.0555015315156
 20
481.1644129481821
 30
0.0
 11
892.4160052072023
 21
485.8039092724955
 31
0.0
1001
ACAD
1010
0.0
1020
0.0
1030
0.0
  0
LINE
  5
F65
330
18B
100
AcDbEntity
  8
1
  6
Continuous
 62
     4
100
AcDbLine
 10
829.4160052072022
 20
499.9352164150198
 30
0.0
 11
815.6868086740399
 21
513.6644129481818
 31
0.0
1001
ACAD
1010
0.0
1020
0.0
1030
0.0
  0
LINE
  5
F66
330
18B
100
AcDbEntity
  8
1
  6
Continuous
 62
     4
100
AcDbLine
 10
860.9160052072017
 20
479.0418181328205
 30
0.0
 11
860.3045495916951
 21
479.6532737483274
 31
0.0
1001
ACAD
1010
0.0
1020
0.0
1030
0.0
  0
LINE
  5
F67
330
18B
100
AcDbEntity
  8
1
  6
Continuous
 62
     4
100
AcDbLine
 10
829.4160052072022
 20
510.5418181328178
 30
0.0
 11
826.2934103918381
 21
513.6644129481818
 31
0.0
1001
ACAD
1010
0.0
1020
0.0
1030
0.0
  0
LINE
  5
F68
330
18B
100
AcDbEntity
  8
1
  6
Continuous
 62
     4
100
AcDbLine
 10
829.4160052072022
 20
489.3286146972215
 30
0.0
 11
805.0802069562418
 21
513.6644129481818
 31
0.0
1001
ACAD
1010
0.0
1020
0.0
1030
0.0
  0
LINE
  5
F69
330
18B
100
AcDbEntity
  8
1
  6
Continuous
 62
     4
100
AcDbLine
 10
826.9736052384439
 20
481.1644129481818
 30
0.0
 11
794.4736052384435
 21
513.6644129481818
 31
0.0
1001
ACAD
1010
0.0
1020
0.0
1030
0.0
  0
LINE
  5
F6A
330
18B
100
AcDbEntity
  8
1
  6
Continuous
 62
     4
100
AcDbLine
 10
816.3670035206457
 20
481.1644129481818
 30
0.0
 11
783.8670035206453
 21
513.6644129481818
 31
0.0
1001
ACAD
1010
0.0
1020
0.0
1030
0.0
  0
LINE
  5
F6B
330
18B
100
AcDbEntity
  8
1
  6
Continuous
 62
     4
100
AcDbLine
 10
805.7604018028476
 20
481.1644129481818
 30
0.0
 11
773.2604018028471
 21
513.6644129481818
 31
0.0
1001
ACAD
1010
0.0
1020
0.0
1030
0.0
  0
LINE
  5
F6C
330
18B
100
AcDbEntity
  8
1
  6
Continuous
 62
     4
100
AcDbLine
 10
795.1538000850494
 20
481.1644129481818
 30
0.0
 11
762.6538000850487
 21
513.6644129481818
 31
0.0
1001
ACAD
1010
0.0
1020
0.0
1030
0.0
  0
LINE
  5
F6D
330
18B
100
AcDbEntity
  8
1
  6
Continuous
 62
     4
100
AcDbLine
 10
784.5471983672513
 20
481.1644129481818
 30
0.0
 11
752.0471983672508
 21
513.6644129481818
 31
0.0
1001
ACAD
1010
0.0
1020
0.0
1030
0.0
  0
LINE
  5
F6E
330
18B
100
AcDbEntity
  8
1
  6
Continuous
 62
     4
100
AcDbLine
 10
773.940596649453
 20
481.1644129481818
 30
0.0
 11
741.4405966494523
 21
513.6644129481818
 31
0.0
1001
ACAD
1010
0.0
1020
0.0
1030
0.0
  0
LINE
  5
F6F
330
18B
100
AcDbEntity
  8
1
  6
Continuous
 62
     4
100
AcDbLine
 10
763.3339949316548
 20
481.1644129481818
 30
0.0
 11
730.833994931654
 21
513.6644129481818
 31
0.0
1001
ACAD
1010
0.0
1020
0.0
1030
0.0
  0
LINE
  5
F70
330
18B
100
AcDbEntity
  8
1
  6
Continuous
 62
     4
100
AcDbLine
 10
752.7273932138566
 20
481.1644129481818
 30
0.0
 11
720.2273932138561
 21
513.6644129481818
 31
0.0
1001
ACAD
1010
0.0
1020
0.0
1030
0.0
  0
LINE
  5
F71
330
18B
100
AcDbEntity
  8
1
  6
Continuous
 62
     4
100
AcDbLine
 10
742.1207914960582
 20
481.1644129481818
 30
0.0
 11
709.6207914960579
 21
513.6644129481818
 31
0.0
1001
ACAD
1010
0.0
1020
0.0
1030
0.0
  0
LINE
  5
F72
330
18B
100
AcDbEntity
  8
1
  6
Continuous
 62
     4
100
AcDbLine
 10
731.5141897782601
 20
481.1644129481818
 30
0.0
 11
699.0141897782597
 21
513.6644129481818
 31
0.0
1001
ACAD
1010
0.0
1020
0.0
1030
0.0
  0
LINE
  5
F73
330
18B
100
AcDbEntity
  8
1
  6
Continuous
 62
     4
100
AcDbLine
 10
720.9075880604622
 20
481.1644129481818
 30
0.0
 11
688.4075880604614
 21
513.6644129481818
 31
0.0
1001
ACAD
1010
0.0
1020
0.0
1030
0.0
  0
LINE
  5
F74
330
18B
100
AcDbEntity
  8
1
  6
Continuous
 62
     4
100
AcDbLine
 10
710.3009863426639
 20
481.1644129481818
 30
0.0
 11
677.8009863426635
 21
513.6644129481818
 31
0.0
1001
ACAD
1010
0.0
1020
0.0
1030
0.0
  0
LINE
  5
F75
330
18B
100
AcDbEntity
  8
1
  6
Continuous
 62
     4
100
AcDbLine
 10
699.6943846248657
 20
481.1644129481818
 30
0.0
 11
667.1943846248653
 21
513.6644129481818
 31
0.0
1001
ACAD
1010
0.0
1020
0.0
1030
0.0
  0
LINE
  5
F76
330
18B
100
AcDbEntity
  8
1
  6
Continuous
 62
     4
100
AcDbLine
 10
689.0877829070675
 20
481.1644129481818
 30
0.0
 11
656.5877829070671
 21
513.6644129481818
 31
0.0
1001
ACAD
1010
0.0
1020
0.0
1030
0.0
  0
LINE
  5
F77
330
18B
100
AcDbEntity
  8
1
  6
Continuous
 62
     4
100
AcDbLine
 10
678.4811811892693
 20
481.1644129481818
 30
0.0
 11
645.9811811892689
 21
513.6644129481818
 31
0.0
1001
ACAD
1010
0.0
1020
0.0
1030
0.0
  0
LINE
  5
F78
330
18B
100
AcDbEntity
  8
1
  6
Continuous
 62
     4
100
AcDbLine
 10
667.8745794714711
 20
481.1644129481818
 30
0.0
 11
635.3745794714707
 21
513.6644129481818
 31
0.0
1001
ACAD
1010
0.0
1020
0.0
1030
0.0
  0
LINE
  5
F79
330
18B
100
AcDbEntity
  8
1
  6
Continuous
 62
     4
100
AcDbLine
 10
657.267977753673
 20
481.1644129481818
 30
0.0
 11
624.7679777536725
 21
513.6644129481818
 31
0.0
1001
ACAD
1010
0.0
1020
0.0
1030
0.0
  0
LINE
  5
F7A
330
18B
100
AcDbEntity
  8
1
  6
Continuous
 62
     4
100
AcDbLine
 10
646.6613760358748
 20
481.1644129481818
 30
0.0
 11
614.1613760358742
 21
513.6644129481818
 31
0.0
1001
ACAD
1010
0.0
1020
0.0
1030
0.0
  0
LINE
  5
F7B
330
18B
100
AcDbEntity
  8
1
  6
Continuous
 62
     4
100
AcDbLine
 10
636.0547743180766
 20
481.1644129481818
 30
0.0
 11
603.554774318076
 21
513.6644129481818
 31
0.0
1001
ACAD
1010
0.0
1020
0.0
1030
0.0
  0
LINE
  5
F7C
330
18B
100
AcDbEntity
  8
1
  6
Continuous
 62
     4
100
AcDbLine
 10
625.4481726002784
 20
481.1644129481818
 30
0.0
 11
593.8837271366602
 21
512.7288584117997
 31
0.0
1001
ACAD
1010
0.0
1020
0.0
1030
0.0
  0
LINE
  5
F7D
330
18B
100
AcDbEntity
  8
1
  6
Continuous
 62
     4
100
AcDbLine
 10
614.8415708824802
 20
481.1644129481818
 30
0.0
 11
593.8837271366602
 21
502.1222566940016
 31
0.0
1001
ACAD
1010
0.0
1020
0.0
1030
0.0
  0
LINE
  5
F7E
330
18B
100
AcDbEntity
  8
1
  6
Continuous
 62
     4
100
AcDbLine
 10
604.2349691646818
 20
481.1644129481818
 30
0.0
 11
593.8837271366602
 21
491.5156549762036
 31
0.0
1001
ACAD
1010
0.0
1020
0.0
1030
0.0
  0
LINE
  5
F81
330
18B
100
AcDbEntity
  8
1
  6
Continuous
 62
     4
100
AcDbLine
 10
1132.84313852453
 20
250.4352171823186
 30
0.0
 11
1119.113942758666
 21
264.1644129481824
 31
0.0
1001
ACAD
1010
0.0
1020
0.0
1030
0.0
  0
LINE
  5
F82
330
18B
100
AcDbEntity
  8
1
  6
Continuous
 62
     4
100
AcDbLine
 10
1132.84313852453
 20
261.0418189001168
 30
0.0
 11
1129.720544476463
 21
264.1644129481824
 31
0.0
1001
ACAD
1010
0.0
1020
0.0
1030
0.0
  0
LINE
  5
F83
330
18B
100
AcDbEntity
  8
1
  6
Continuous
 62
     4
100
AcDbLine
 10
1132.84313852453
 20
239.8286154645207
 30
0.0
 11
1108.507341040867
 21
264.1644129481824
 31
0.0
1001
ACAD
1010
0.0
1020
0.0
1030
0.0
  0
LINE
  5
F84
330
18B
100
AcDbEntity
  8
1
  6
Continuous
 62
     4
100
AcDbLine
 10
1130.400739323069
 20
231.6644129481824
 30
0.0
 11
1097.900739323069
 21
264.1644129481824
 31
0.0
1001
ACAD
1010
0.0
1020
0.0
1030
0.0
  0
LINE
  5
F85
330
18B
100
AcDbEntity
  8
1
  6
Continuous
 62
     4
100
AcDbLine
 10
1119.794137605272
 20
231.6644129481824
 30
0.0
 11
1087.29413760527
 21
264.1644129481824
 31
0.0
1001
ACAD
1010
0.0
1020
0.0
1030
0.0
  0
LINE
  5
F86
330
18B
100
AcDbEntity
  8
1
  6
Continuous
 62
     4
100
AcDbLine
 10
1109.187535887472
 20
231.6644129481824
 30
0.0
 11
1076.687535887472
 21
264.1644129481824
 31
0.0
1001
ACAD
1010
0.0
1020
0.0
1030
0.0
  0
LINE
  5
F87
330
18B
100
AcDbEntity
  8
1
  6
Continuous
 62
     4
100
AcDbLine
 10
1098.580934169674
 20
231.6644129481824
 30
0.0
 11
1066.080934169674
 21
264.1644129481824
 31
0.0
1001
ACAD
1010
0.0
1020
0.0
1030
0.0
  0
LINE
  5
F88
330
18B
100
AcDbEntity
  8
1
  6
Continuous
 62
     4
100
AcDbLine
 10
1087.974332451876
 20
231.6644129481824
 30
0.0
 11
1055.474332451876
 21
264.1644129481824
 31
0.0
1001
ACAD
1010
0.0
1020
0.0
1030
0.0
  0
LINE
  5
F89
330
18B
100
AcDbEntity
  8
1
  6
Continuous
 62
     4
100
AcDbLine
 10
1077.367730734078
 20
231.6644129481824
 30
0.0
 11
1044.867730734077
 21
264.1644129481824
 31
0.0
1001
ACAD
1010
0.0
1020
0.0
1030
0.0
  0
LINE
  5
F8A
330
18B
100
AcDbEntity
  8
1
  6
Continuous
 62
     4
100
AcDbLine
 10
1066.761129016279
 20
231.6644129481824
 30
0.0
 11
1034.261129016278
 21
264.1644129481824
 31
0.0
1001
ACAD
1010
0.0
1020
0.0
1030
0.0
  0
LINE
  5
F8B
330
18B
100
AcDbEntity
  8
1
  6
Continuous
 62
     4
100
AcDbLine
 10
1056.154527298481
 20
231.6644129481824
 30
0.0
 11
1023.65452729848
 21
264.1644129481824
 31
0.0
1001
ACAD
1010
0.0
1020
0.0
1030
0.0
  0
LINE
  5
F8C
330
18B
100
AcDbEntity
  8
1
  6
Continuous
 62
     4
100
AcDbLine
 10
1045.547925580682
 20
231.6644129481824
 30
0.0
 11
1013.047925580682
 21
264.1644129481824
 31
0.0
1001
ACAD
1010
0.0
1020
0.0
1030
0.0
  0
LINE
  5
F8D
330
18B
100
AcDbEntity
  8
1
  6
Continuous
 62
     4
100
AcDbLine
 10
1034.941323862883
 20
231.6644129481824
 30
0.0
 11
1002.441323862883
 21
264.1644129481824
 31
0.0
1001
ACAD
1010
0.0
1020
0.0
1030
0.0
  0
LINE
  5
F8E
330
18B
100
AcDbEntity
  8
1
  6
Continuous
 62
     4
100
AcDbLine
 10
1024.334722145086
 20
231.6644129481824
 30
0.0
 11
991.8347221450847
 21
264.1644129481824
 31
0.0
1001
ACAD
1010
0.0
1020
0.0
1030
0.0
  0
LINE
  5
F8F
330
18B
100
AcDbEntity
  8
1
  6
Continuous
 62
     4
100
AcDbLine
 10
1013.728120427286
 20
231.6644129481824
 30
0.0
 11
981.2281204272863
 21
264.1644129481824
 31
0.0
1001
ACAD
1010
0.0
1020
0.0
1030
0.0
  0
LINE
  5
F90
330
18B
100
AcDbEntity
  8
1
  6
Continuous
 62
     4
100
AcDbLine
 10
1003.121518709489
 20
231.6644129481824
 30
0.0
 11
970.6215187094883
 21
264.1644129481824
 31
0.0
1001
ACAD
1010
0.0
1020
0.0
1030
0.0
  0
LINE
  5
F91
330
18B
100
AcDbEntity
  8
1
  6
Continuous
 62
     4
100
AcDbLine
 10
992.514916991691
 20
231.6644129481824
 30
0.0
 11
960.0149169916896
 21
264.1644129481824
 31
0.0
1001
ACAD
1010
0.0
1020
0.0
1030
0.0
  0
LINE
  5
F92
330
18B
100
AcDbEntity
  8
1
  6
Continuous
 62
     4
100
AcDbLine
 10
981.9083152738924
 20
231.6644129481824
 30
0.0
 11
949.4083152738912
 21
264.1644129481824
 31
0.0
1001
ACAD
1010
0.0
1020
0.0
1030
0.0
  0
LINE
  5
F93
330
18B
100
AcDbEntity
  8
1
  6
Continuous
 62
     4
100
AcDbLine
 10
971.3017135560935
 20
231.6644129481824
 30
0.0
 11
938.8017135560927
 21
264.1644129481824
 31
0.0
1001
ACAD
1010
0.0
1020
0.0
1030
0.0
  0
LINE
  5
F94
330
18B
100
AcDbEntity
  8
1
  6
Continuous
 62
     4
100
AcDbLine
 10
960.6951118382955
 20
231.6644129481824
 30
0.0
 11
928.1951118382947
 21
264.1644129481824
 31
0.0
1001
ACAD
1010
0.0
1020
0.0
1030
0.0
  0
LINE
  5
F95
330
18B
100
AcDbEntity
  8
1
  6
Continuous
 62
     4
100
AcDbLine
 10
950.0885101204973
 20
231.6644129481824
 30
0.0
 11
917.588510120496
 21
264.1644129481824
 31
0.0
1001
ACAD
1010
0.0
1020
0.0
1030
0.0
  0
LINE
  5
F96
330
18B
100
AcDbEntity
  8
1
  6
Continuous
 62
     4
100
AcDbLine
 10
939.4819084026989
 20
231.6644129481824
 30
0.0
 11
906.9819084026974
 21
264.1644129481824
 31
0.0
1001
ACAD
1010
0.0
1020
0.0
1030
0.0
  0
LINE
  5
F97
330
18B
100
AcDbEntity
  8
1
  6
Continuous
 62
     4
100
AcDbLine
 10
928.8753066849
 20
231.6644129481824
 30
0.0
 11
896.3753066848992
 21
264.1644129481824
 31
0.0
1001
ACAD
1010
0.0
1020
0.0
1030
0.0
  0
LINE
  5
F98
330
18B
100
AcDbEntity
  8
1
  6
Continuous
 62
     4
100
AcDbLine
 10
918.2687049671015
 20
231.6644129481824
 30
0.0
 11
885.768704967101
 21
264.1644129481824
 31
0.0
1001
ACAD
1010
0.0
1020
0.0
1030
0.0
  0
LINE
  5
F99
330
18B
100
AcDbEntity
  8
1
  6
Continuous
 62
     4
100
AcDbLine
 10
907.6621032493036
 20
231.6644129481824
 30
0.0
 11
875.1621032493019
 21
264.1644129481824
 31
0.0
1001
ACAD
1010
0.0
1020
0.0
1030
0.0
  0
LINE
  5
F9A
330
18B
100
AcDbEntity
  8
1
  6
Continuous
 62
     4
100
AcDbLine
 10
897.0555015315051
 20
231.6644129481824
 30
0.0
 11
864.5555015315038
 21
264.1644129481824
 31
0.0
1001
ACAD
1010
0.0
1020
0.0
1030
0.0
  0
LINE
  5
F9B
330
18B
100
AcDbEntity
  8
1
  6
Continuous
 62
     4
100
AcDbLine
 10
886.4488998137064
 20
231.6644129481824
 30
0.0
 11
853.9488998137056
 21
264.1644129481824
 31
0.0
1001
ACAD
1010
0.0
1020
0.0
1030
0.0
  0
LINE
  5
F9C
330
18B
100
AcDbEntity
  8
1
  6
Continuous
 62
     4
100
AcDbLine
 10
875.8422980959082
 20
231.6644129481824
 30
0.0
 11
843.3422980959075
 21
264.1644129481824
 31
0.0
1001
ACAD
1010
0.0
1020
0.0
1030
0.0
  0
LINE
  5
F9D
330
18B
100
AcDbEntity
  8
1
  6
Continuous
 62
     4
100
AcDbLine
 10
865.2356963781098
 20
231.6644129481824
 30
0.0
 11
832.7356963781086
 21
264.1644129481824
 31
0.0
1001
ACAD
1010
0.0
1020
0.0
1030
0.0
  0
LINE
  5
F9E
330
18B
100
AcDbEntity
  8
1
  6
Continuous
 62
     4
100
AcDbLine
 10
854.6290946603114
 20
231.6644129481824
 30
0.0
 11
822.1290946603101
 21
264.1644129481824
 31
0.0
1001
ACAD
1010
0.0
1020
0.0
1030
0.0
  0
LINE
  5
F9F
330
18B
100
AcDbEntity
  8
1
  6
Continuous
 62
     4
100
AcDbLine
 10
844.0224929425127
 20
231.6644129481824
 30
0.0
 11
811.5224929425119
 21
264.1644129481824
 31
0.0
1001
ACAD
1010
0.0
1020
0.0
1030
0.0
  0
LINE
  5
FA0
330
18B
100
AcDbEntity
  8
1
  6
Continuous
 62
     4
100
AcDbLine
 10
833.4158912247145
 20
231.6644129481824
 30
0.0
 11
800.9158912247137
 21
264.1644129481824
 31
0.0
1001
ACAD
1010
0.0
1020
0.0
1030
0.0
  0
LINE
  5
FA1
330
18B
100
AcDbEntity
  8
1
  6
Continuous
 62
     4
100
AcDbLine
 10
822.8092895069162
 20
231.6644129481824
 30
0.0
 11
790.3092895069151
 21
264.1644129481824
 31
0.0
1001
ACAD
1010
0.0
1020
0.0
1030
0.0
  0
LINE
  5
FA2
330
18B
100
AcDbEntity
  8
1
  6
Continuous
 62
     4
100
AcDbLine
 10
812.2026877891176
 20
231.6644129481824
 30
0.0
 11
779.7026877891162
 21
264.1644129481824
 31
0.0
1001
ACAD
1010
0.0
1020
0.0
1030
0.0
  0
LINE
  5
FA3
330
18B
100
AcDbEntity
  8
1
  6
Continuous
 62
     4
100
AcDbLine
 10
801.5960860713191
 20
231.6644129481824
 30
0.0
 11
769.0960860713182
 21
264.1644129481824
 31
0.0
1001
ACAD
1010
0.0
1020
0.0
1030
0.0
  0
LINE
  5
FA4
330
18B
100
AcDbEntity
  8
1
  6
Continuous
 62
     4
100
AcDbLine
 10
790.989484353521
 20
231.6644129481824
 30
0.0
 11
758.4894843535201
 21
264.1644129481824
 31
0.0
1001
ACAD
1010
0.0
1020
0.0
1030
0.0
  0
LINE
  5
FA5
330
18B
100
AcDbEntity
  8
1
  6
Continuous
 62
     4
100
AcDbLine
 10
780.3828826357228
 20
231.6644129481824
 30
0.0
 11
747.8828826357214
 21
264.1644129481824
 31
0.0
1001
ACAD
1010
0.0
1020
0.0
1030
0.0
  0
LINE
  5
FA6
330
18B
100
AcDbEntity
  8
1
  6
Continuous
 62
     4
100
AcDbLine
 10
769.7762809179241
 20
231.6644129481824
 30
0.0
 11
737.2762809179228
 21
264.1644129481824
 31
0.0
1001
ACAD
1010
0.0
1020
0.0
1030
0.0
  0
LINE
  5
FA7
330
18B
100
AcDbEntity
  8
1
  6
Continuous
 62
     4
100
AcDbLine
 10
759.1696792001254
 20
231.6644129481824
 30
0.0
 11
726.6696792001246
 21
264.1644129481824
 31
0.0
1001
ACAD
1010
0.0
1020
0.0
1030
0.0
  0
LINE
  5
FA8
330
18B
100
AcDbEntity
  8
1
  6
Continuous
 62
     4
100
AcDbLine
 10
748.5630774823272
 20
231.6644129481824
 30
0.0
 11
716.0630774823261
 21
264.1644129481824
 31
0.0
1001
ACAD
1010
0.0
1020
0.0
1030
0.0
  0
LINE
  5
FA9
330
18B
100
AcDbEntity
  8
1
  6
Continuous
 62
     4
100
AcDbLine
 10
737.9564757645291
 20
231.6644129481824
 30
0.0
 11
705.4564757645278
 21
264.1644129481824
 31
0.0
1001
ACAD
1010
0.0
1020
0.0
1030
0.0
  0
LINE
  5
FAA
330
18B
100
AcDbEntity
  8
1
  6
Continuous
 62
     4
100
AcDbLine
 10
727.3498740467305
 20
231.6644129481824
 30
0.0
 11
694.8498740467291
 21
264.1644129481824
 31
0.0
1001
ACAD
1010
0.0
1020
0.0
1030
0.0
  0
LINE
  5
FAB
330
18B
100
AcDbEntity
  8
1
  6
Continuous
 62
     4
100
AcDbLine
 10
716.7432723289318
 20
231.6644129481824
 30
0.0
 11
684.2432723289307
 21
264.1644129481824
 31
0.0
1001
ACAD
1010
0.0
1020
0.0
1030
0.0
  0
LINE
  5
FAC
330
18B
100
AcDbEntity
  8
1
  6
Continuous
 62
     4
100
AcDbLine
 10
706.1366706111336
 20
231.6644129481824
 30
0.0
 11
673.6366706111327
 21
264.1644129481824
 31
0.0
1001
ACAD
1010
0.0
1020
0.0
1030
0.0
  0
LINE
  5
FAD
330
18B
100
AcDbEntity
  8
1
  6
Continuous
 62
     4
100
AcDbLine
 10
695.5300688933355
 20
231.6644129481824
 30
0.0
 11
663.0300688933341
 21
264.1644129481824
 31
0.0
1001
ACAD
1010
0.0
1020
0.0
1030
0.0
  0
LINE
  5
FAE
330
18B
100
AcDbEntity
  8
1
  6
Continuous
 62
     4
100
AcDbLine
 10
684.9234671755367
 20
231.6644129481824
 30
0.0
 11
652.4234671755355
 21
264.1644129481824
 31
0.0
1001
ACAD
1010
0.0
1020
0.0
1030
0.0
  0
LINE
  5
FAF
330
18B
100
AcDbEntity
  8
1
  6
Continuous
 62
     4
100
AcDbLine
 10
674.3168654577382
 20
231.6644129481824
 30
0.0
 11
641.8168654577373
 21
264.1644129481824
 31
0.0
1001
ACAD
1010
0.0
1020
0.0
1030
0.0
  0
LINE
  5
FB0
330
18B
100
AcDbEntity
  8
1
  6
Continuous
 62
     4
100
AcDbLine
 10
663.71026373994
 20
231.6644129481824
 30
0.0
 11
631.2102637399391
 21
264.1644129481824
 31
0.0
1001
ACAD
1010
0.0
1020
0.0
1030
0.0
  0
LINE
  5
FB1
330
18B
100
AcDbEntity
  8
1
  6
Continuous
 62
     4
100
AcDbLine
 10
653.1036620221417
 20
231.6644129481824
 30
0.0
 11
620.6036620221405
 21
264.1644129481824
 31
0.0
1001
ACAD
1010
0.0
1020
0.0
1030
0.0
  0
LINE
  5
FB2
330
18B
100
AcDbEntity
  8
1
  6
Continuous
 62
     4
100
AcDbLine
 10
642.4970603043432
 20
231.6644129481824
 30
0.0
 11
609.9970603043417
 21
264.1644129481824
 31
0.0
1001
ACAD
1010
0.0
1020
0.0
1030
0.0
  0
LINE
  5
FB3
330
18B
100
AcDbEntity
  8
1
  6
Continuous
 62
     4
100
AcDbLine
 10
631.8904585865444
 20
231.6644129481824
 30
0.0
 11
599.3904585865436
 21
264.1644129481824
 31
0.0
1001
ACAD
1010
0.0
1020
0.0
1030
0.0
  0
LINE
  5
FB4
330
18B
100
AcDbEntity
  8
1
  6
Continuous
 62
     4
100
AcDbLine
 10
621.2838568687462
 20
231.6644129481824
 30
0.0
 11
593.8837271366598
 21
259.0645426802676
 31
0.0
1001
ACAD
1010
0.0
1020
0.0
1030
0.0
  0
LINE
  5
FB5
330
18B
100
AcDbEntity
  8
1
  6
Continuous
 62
     4
100
AcDbLine
 10
610.6772551509481
 20
231.6644129481824
 30
0.0
 11
593.8837271366598
 21
248.4579409624698
 31
0.0
1001
ACAD
1010
0.0
1020
0.0
1030
0.0
  0
LINE
  5
FB6
330
18B
100
AcDbEntity
  8
1
  6
Continuous
 62
     4
100
AcDbLine
 10
600.0706534331493
 20
231.6644129481824
 30
0.0
 11
593.8837271366598
 21
237.8513392446716
 31
0.0
1001
ACAD
1010
0.0
1020
0.0
1030
0.0
  0
LINE
  5
FBA
330
18B
100
AcDbEntity
  8
0
  6
Continuous
 62
     7
100
AcDbLine
 10
680.9160052072022
 20
945.6644129481821
 30
0.0
 11
680.9160052072022
 21
900.6644129481822
 31
0.0
  0
LINE
  5
FBB
330
18B
100
AcDbEntity
  8
0
  6
Continuous
 62
     7
100
AcDbLine
 10
1040.9160052072
 20
945.6644129481821
 30
0.0
 11
1040.9160052072
 21
900.6644129481822
 31
0.0
  0
LINE
  5
FBC
330
18B
100
AcDbEntity
  8
0
  6
Continuous
 62
     7
100
AcDbLine
 10
788.9160052072017
 20
954.6644129481821
 30
0.0
 11
932.9160052072017
 21
954.6644129481821
 31
0.0
  0
LINE
  5
FBD
330
18B
100
AcDbEntity
  8
0
  6
Continuous
 62
     7
100
AcDbLine
 10
680.9160052072022
 20
945.6644129481821
 30
0.0
 11
788.9160052072017
 21
945.6644129481821
 31
0.0
  0
LINE
  5
FBE
330
18B
100
AcDbEntity
  8
0
  6
Continuous
 62
     7
100
AcDbLine
 10
680.9160052072022
 20
900.6644129481822
 30
0.0
 11
779.1202117072023
 21
900.6644129481822
 31
0.0
  0
LINE
  5
FBF
330
18B
100
AcDbEntity
  8
0
  6
Continuous
 62
     7
100
AcDbLine
 10
788.9160052072017
 20
954.6644129481821
 30
0.0
 11
788.9160052072017
 21
945.6644129481821
 31
0.0
  0
LINE
  5
FC0
330
18B
100
AcDbEntity
  8
0
  6
Continuous
 62
     7
100
AcDbLine
 10
932.9160052072017
 20
954.6644129481821
 30
0.0
 11
932.9160052072017
 21
945.6644129481821
 31
0.0
  0
LINE
  5
FC1
330
18B
100
AcDbEntity
  8
0
  6
Continuous
 62
     7
100
AcDbLine
 10
811.4160052072017
 20
758.719102448182
 30
0.0
 11
811.4160052072017
 21
656.5951934481818
 31
0.0
  0
LINE
  5
FC2
330
18B
100
AcDbEntity
  8
0
  6
Continuous
 62
     7
100
AcDbLine
 10
910.4160052072016
 20
758.719102448182
 30
0.0
 11
910.4160052072016
 21
656.5951934481818
 31
0.0
  0
LINE
  5
FC3
330
18B
100
AcDbEntity
  8
0
  6
Continuous
 62
     7
100
AcDbLine
 10
790.6380142072016
 20
891.021163448182
 30
0.0
 11
808.6129687072016
 21
790.3614164481819
 31
0.0
  0
LINE
  5
FC4
330
18B
100
AcDbEntity
  8
0
  6
Continuous
 62
     7
100
AcDbLine
 10
931.1939962072026
 20
891.021163448182
 30
0.0
 11
913.2190417072017
 21
790.3614164481819
 31
0.0
  0
LINE
  5
FC5
330
18B
100
AcDbEntity
  8
0
  6
Continuous
 62
     7
100
AcDbLine
 10
829.4160052072017
 20
954.6644129481821
 30
0.0
 11
829.4160052072017
 21
513.6644129481818
 31
0.0
  0
LINE
  5
FC6
330
18B
100
AcDbEntity
  8
0
  6
Continuous
 62
     7
100
AcDbLine
 10
892.4160052072023
 20
954.6644129481821
 30
0.0
 11
892.4160052072023
 21
513.6644129481818
 31
0.0
  0
LINE
  5
FC7
330
18B
100
AcDbEntity
  8
0
  6
Continuous
 62
     7
100
AcDbLine
 10
942.7117987072016
 20
900.6644129481822
 30
0.0
 11
1040.9160052072
 21
900.6644129481822
 31
0.0
  0
LINE
  5
FCC
330
18B
100
AcDbEntity
  8
0
  6
Continuous
 62
     7
100
AcDbLine
 10
892.4160052072023
 20
513.6644129481818
 30
0.0
 11
941.9160052072028
 21
548.3638754481821
 31
0.0
  0
LINE
  5
FCD
330
18B
100
AcDbEntity
  8
0
  6
Continuous
 62
     7
100
AcDbLine
 10
779.9160052072022
 20
548.3638754481821
 30
0.0
 11
829.4160052072017
 21
513.6644129481818
 31
0.0
  0
LINE
  5
FCE
330
18B
100
AcDbEntity
  8
0
  6
Continuous
 62
     7
100
AcDbLine
 10
920.0621767072018
 20
620.5951934481816
 30
0.0
 11
941.9160052072028
 21
582.7432514481822
 31
0.0
  0
LINE
  5
FCF
330
18B
100
AcDbEntity
  8
0
  6
Continuous
 62
     7
100
AcDbLine
 10
779.9160052072022
 20
582.7432514481822
 30
0.0
 11
779.9160052072022
 21
548.3638754481821
 31
0.0
  0
LINE
  5
FD0
330
18B
100
AcDbEntity
  8
0
  6
Continuous
 62
     7
100
AcDbLine
 10
941.9160052072028
 20
582.7432514481822
 30
0.0
 11
941.9160052072028
 21
548.3638754481821
 31
0.0
  0
LINE
  5
FD2
330
18B
100
AcDbEntity
  8
0
  6
Continuous
 62
     7
100
AcDbLine
 10
801.7698352072027
 20
620.5951934481816
 30
0.0
 11
779.9160052072022
 21
582.7432514481822
 31
0.0
  0
LINE
  5
FD4
330
18B
100
AcDbEntity
  8
0
  6
Continuous
 62
     7
100
AcDbLine
 10
1132.84313852453
 20
231.6644129481824
 30
0.0
 11
593.8837271366598
 21
231.6644129481824
 31
0.0
  0
ARC
  5
FD5
330
18B
100
AcDbEntity
  8
0
  6
Continuous
 62
     7
100
AcDbCircle
 10
860.9160052072017
 20
808.5970984481821
 30
0.0
 40
328.944393
100
AcDbArc
 50
264.5048860000061
 51
275.4951139999939
  0
ARC
  5
FD6
330
18B
100
AcDbEntity
  8
0
  6
Continuous
 62
     7
100
AcDbCircle
 10
860.9160052072017
 20
841.0970984481821
 30
0.0
 40
328.944393
100
AcDbArc
 50
264.5048860000061
 51
275.4951139999939
  0
LINE
  5
FD7
330
18B
100
AcDbEntity
  8
0
  6
Continuous
 62
     7
100
AcDbLine
 10
829.4160052072017
 20
513.6644129481818
 30
0.0
 11
829.4160052072022
 21
481.164412948182
 31
0.0
  0
LINE
  5
FD8
330
18B
100
AcDbEntity
  8
0
  6
Continuous
 62
     7
100
AcDbLine
 10
892.4160052072023
 20
513.6644129481818
 30
0.0
 11
892.4160052072023
 21
481.164412948182
 31
0.0
  0
LINE
  5
FD9
330
18B
100
AcDbEntity
  8
0
  6
Continuous
 62
     7
100
AcDbLine
 10
932.9160052072017
 20
945.6644129481821
 30
0.0
 11
1040.9160052072
 21
945.6644129481821
 31
0.0
  0
LINE
  5
FDA
330
18B
100
AcDbEntity
  8
-1
  6
Continuous
 62
     3
100
AcDbLine
 10
941.9160052072017
 20
954.6644129481821
 30
0.0
 11
1235.871173162168
 21
954.6644129481821
 31
0.0
  0
LINE
  5
FDB
330
18B
100
AcDbEntity
  8
-1
  6
Continuous
 62
     3
100
AcDbLine
 10
1226.871173162169
 20
396.3769129481822
 30
0.0
 11
1226.871173162167
 21
641.1644129481817
 31
0.0
  0
LINE
  5
FDC
330
18B
100
AcDbEntity
  8
-1
  6
Continuous
 62
     3
100
AcDbLine
 10
1141.84313852453
 20
372.6644129481818
 30
0.0
 11
1235.871173162168
 21
372.6644129481818
 31
0.0
  0
LINE
  5
FDD
330
18B
100
AcDbEntity
  8
-1
  6
Continuous
 62
     3
100
AcDbLine
 10
1226.871173162167
 20
701.1644129481819
 30
0.0
 11
1226.871173162167
 21
930.9519129481817
 31
0.0
  0
LINE
  5
FDE
330
18B
100
AcDbEntity
  8
0
  6
Continuous
 62
     0
100
AcDbLine
 10
593.8837271366602
 20
513.6644129481818
 30
0.0
 11
593.8837271366602
 21
344.9479633541233
 31
0.0
  0
LINE
  5
FDF
330
18B
100
AcDbEntity
  8
0
  6
Continuous
 62
     0
100
AcDbLine
 10
1132.84313852453
 20
513.6644129481822
 30
0.0
 11
1132.84313852453
 21
453.9568470516543
 31
0.0
  0
LINE
  5
FE0
330
18B
100
AcDbEntity
  8
1
  6
Continuous
 62
     7
100
AcDbLine
 10
1132.84313852453
 20
453.9568470516543
 30
0.0
 11
1145.703138524532
 21
448.4468470516545
 31
0.0
  0
LINE
  5
FE1
330
18B
100
AcDbEntity
  8
1
  6
Continuous
 62
     7
100
AcDbLine
 10
1145.703138524532
 20
448.4468470516545
 30
0.0
 11
1118.503138524532
 21
438.8468470516548
 31
0.0
  0
LINE
  5
FE2
330
18B
100
AcDbEntity
  8
1
  6
Continuous
 62
     7
100
AcDbLine
 10
1118.503138524532
 20
438.8468470516548
 30
0.0
 11
1132.84313852453
 21
434.5468470516542
 31
0.0
  0
LINE
  5
FE3
330
18B
100
AcDbEntity
  8
1
  6
Continuous
 62
     7
100
AcDbLine
 10
593.8837271366602
 20
344.9479633541233
 30
0.0
 11
606.7437271366621
 21
339.4379633541233
 31
0.0
  0
LINE
  5
FE4
330
18B
100
AcDbEntity
  8
1
  6
Continuous
 62
     7
100
AcDbLine
 10
606.7437271366621
 20
339.4379633541233
 30
0.0
 11
579.543727136662
 21
329.8379633541238
 31
0.0
  0
LINE
  5
FE5
330
18B
100
AcDbEntity
  8
1
  6
Continuous
 62
     7
100
AcDbLine
 10
579.543727136662
 20
329.8379633541238
 30
0.0
 11
593.8837271366598
 21
325.5379633541231
 31
0.0
  0
LINE
  5
FE6
330
18B
100
AcDbEntity
  8
0
  6
Continuous
 62
     0
100
AcDbLine
 10
1132.84313852453
 20
434.5468470516542
 30
0.0
 11
1132.84313852453
 21
231.6644129481824
 31
0.0
  0
LINE
  5
FE7
330
18B
100
AcDbEntity
  8
0
  6
Continuous
 62
     0
100
AcDbLine
 10
593.8837271366602
 20
324.9126781248903
 30
0.0
 11
593.8837271366598
 21
231.6644129481824
 31
0.0
  0
LINE
  5
FE8
330
18B
100
AcDbEntity
  8
0
  6
Continuous
 62
     7
100
AcDbLine
 10
829.4160052072017
 20
481.164412948182
 30
0.0
 11
593.8837271366602
 21
481.164412948182
 31
0.0
  0
LINE
  5
FE9
330
18B
100
AcDbEntity
  8
0
  6
Continuous
 62
     7
100
AcDbLine
 10
1132.843138524531
 20
481.1644129481821
 30
0.0
 11
892.4160052072023
 21
481.164412948182
 31
0.0
  0
LINE
  5
FEA
330
18B
100
AcDbEntity
  8
0
  6
Continuous
 62
     7
100
AcDbLine
 10
1132.84313852453
 20
264.1644129481824
 30
0.0
 11
593.8837271366598
 21
264.1644129481824
 31
0.0
  0
LINE
  5
FEB
330
18B
100
AcDbEntity
  8
0
  6
Continuous
 62
     7
100
AcDbLine
 10
829.4160052072017
 20
513.6644129481818
 30
0.0
 11
593.8837271366602
 21
513.6644129481818
 31
0.0
  0
LINE
  5
FEC
330
18B
100
AcDbEntity
  8
0
  6
Continuous
 62
     7
100
AcDbLine
 10
892.4160052072016
 20
513.6644137716269
 30
0.0
 11
1132.84313852453
 21
513.6644137716269
 31
0.0
  0
LINE
  5
FED
330
18B
100
AcDbEntity
  8
1
  6
Continuous
 62
     3
100
AcDbLine
 10
1226.871173162167
 20
954.6644129481821
 30
0.0
 11
1233.42742316217
 21
930.9519129481817
 31
0.0
  0
LINE
  5
FEE
330
18B
100
AcDbEntity
  8
1
  6
Continuous
 62
     3
100
AcDbLine
 10
1226.871173162167
 20
954.6644129481821
 30
0.0
 11
1220.314923162169
 21
930.9519129481817
 31
0.0
  0
LINE
  5
FEF
330
18B
100
AcDbEntity
  8
1
  6
Continuous
 62
     3
100
AcDbLine
 10
1220.314923162169
 20
930.9519129481817
 30
0.0
 11
1233.42742316217
 21
930.9519129481817
 31
0.0
  0
LINE
  5
FF0
330
18B
100
AcDbEntity
  8
1
  6
Continuous
 62
     3
100
AcDbLine
 10
1226.871173162167
 20
372.6644129481818
 30
0.0
 11
1233.42742316217
 21
396.3769129481822
 31
0.0
  0
LINE
  5
FF1
330
18B
100
AcDbEntity
  8
1
  6
Continuous
 62
     3
100
AcDbLine
 10
1226.871173162167
 20
372.6644129481818
 30
0.0
 11
1220.314923162169
 21
396.3769129481822
 31
0.0
  0
LINE
  5
FF2
330
18B
100
AcDbEntity
  8
1
  6
Continuous
 62
     3
100
AcDbLine
 10
1220.314923162169
 20
396.3769129481822
 30
0.0
 11
1233.42742316217
 21
396.3769129481822
 31
0.0
  0
LINE
  5
1078
330
18B
100
AcDbEntity
  8
1
  6
Continuous
 62
     5
100
AcDbLine
 10
1227.806730243151
 20
672.4814290819665
 30
0.0
 11
1237.806730243151
 21
672.4814290819665
 31
0.0
  0
LINE
  5
1079
330
18B
100
AcDbEntity
  8
0
  6
Continuous
 62
     7
100
AcDbLine
 10
779.1202117072023
 20
900.6644129481822
 30
0.0
 11
790.7608211532117
 21
890.3334445382277
 31
0.0
  0
LINE
  5
107A
330
18B
100
AcDbEntity
  8
0
  6
Continuous
 62
     7
100
AcDbLine
 10
808.6129687072016
 20
790.3614164481819
 30
0.0
 11
811.4160052072017
 21
758.719102448182
 31
0.0
  0
LINE
  5
107B
330
18B
100
AcDbEntity
  8
0
  6
Continuous
 62
     7
100
AcDbLine
 10
811.4160052072017
 20
656.5951934481818
 30
0.0
 11
801.7698352072027
 21
620.5951934481816
 31
0.0
  0
LINE
  5
107C
330
18B
100
AcDbEntity
  8
0
  6
Continuous
 62
     7
100
AcDbLine
 10
942.7117987072016
 20
900.6644129481822
 30
0.0
 11
931.1939962072026
 21
891.021163448182
 31
0.0
  0
LINE
  5
107D
330
18B
100
AcDbEntity
  8
0
  6
Continuous
 62
     7
100
AcDbLine
 10
910.4160052072016
 20
758.719102448182
 30
0.0
 11
913.2190417072017
 21
790.3614164481819
 31
0.0
  0
LINE
  5
107E
330
18B
100
AcDbEntity
  8
0
  6
Continuous
 62
     7
100
AcDbLine
 10
910.4160052072016
 20
656.5951934481818
 30
0.0
 11
920.0621767072018
 21
620.5951934481816
 31
0.0
  0
ENDSEC
  0
SECTION
  2
OBJECTS
  0
DICTIONARY
  5
17F
330
0
100
AcDbDictionary
281
     1
  3
ACAD_COLOR
350
C04
  3
ACAD_GROUP
350
180
  3
ACAD_LAYOUT
350
C07
  3
ACAD_MATERIAL
350
BEF
  3
ACAD_MLEADERSTYLE
350
1021
  3
ACAD_MLINESTYLE
350
18E
  3
ACAD_PLOTSETTINGS
350
995
  3
ACAD_PLOTSTYLENAME
350
992
  3
ACAD_SCALELIST
350
100F
  3
ACAD_TABLESTYLE
350
C05
  3
ACAD_VISUALSTYLE
350
BF3
  3
ACDB_RECOMPOSE_DATA
350
1033
  3
AcDbVariableDictionary
350
F40
  3
DWGPROPS
350
1034
  0
DICTIONARY
  5
1028
330
181
100
AcDbDictionary
280
     1
281
     1
  3
ADSK_XREC_LAYER_RECONCILED
360
1029
  0
DICTIONARY
  5
102A
330
19A
100
AcDbDictionary
280
     1
281
     1
  3
ADSK_XREC_LAYER_RECONCILED
360
102B
  0
DICTIONARY
  5
102C
330
19B
100
AcDbDictionary
280
     1
281
     1
  3
ADSK_XREC_LAYER_RECONCILED
360
102D
  0
DICTIONARY
  5
B95
330
18B
100
AcDbDictionary
280
     1
281
     1
  3
ACAD_LAYOUTSELFREF
360
BE9
  3
ACAD_SORTENTS
360
EE7
  0
DICTIONARY
  5
B93
330
188
100
AcDbDictionary
280
     1
281
     1
  3
ACAD_LAYOUTSELFREF
360
BE8
  0
DICTIONARY
  5
5F7
330
5EE
100
AcDbDictionary
280
     1
281
     1
  0
DICTIONARY
  5
C04
102
{ACAD_REACTORS
330
17F
102
}
330
17F
100
AcDbDictionary
281
     1
  0
DICTIONARY
  5
180
102
{ACAD_REACTORS
330
17F
102
}
330
17F
100
AcDbDictionary
281
     1
  0
DICTIONARY
  5
C07
102
{ACAD_REACTORS
330
17F
102
}
330
17F
100
AcDbDictionary
281
     1
  3
Layout1
350
C09
  3
Model
350
C08
  0
DICTIONARY
  5
BEF
102
{ACAD_REACTORS
330
17F
102
}
330
17F
100
AcDbDictionary
281
     1
  3
ByBlock
350
BF1
  3
ByLayer
350
BF0
  3
Global
350
BF2
  0
DICTIONARY
  5
1021
102
{ACAD_REACTORS
330
17F
102
}
330
17F
100
AcDbDictionary
281
     1
  3
Standard
350
1022
  0
DICTIONARY
  5
18E
102
{ACAD_REACTORS
330
17F
102
}
330
17F
100
AcDbDictionary
281
     1
  3
STANDARD
350
18F
  0
DICTIONARY
  5
995
102
{ACAD_REACTORS
330
17F
102
}
330
17F
100
AcDbDictionary
281
     1
  0
ACDBDICTIONARYWDFLT
  5
992
102
{ACAD_REACTORS
330
17F
102
}
330
17F
100
AcDbDictionary
281
     1
  3
Normal
350
993
100
AcDbDictionaryWithDefault
340
993
  0
DICTIONARY
  5
100F
102
{ACAD_REACTORS
330
17F
102
}
330
17F
100
AcDbDictionary
281
     1
  3
A0
350
1010
  3
A1
350
1011
  3
A2
350
1012
  3
A3
350
1013
  3
A4
350
1014
  3
A5
350
1015
  3
A6
350
1016
  3
A7
350
1017
  3
A8
350
1018
  3
A9
350
1019
  3
B0
350
101A
  3
B1
350
101B
  3
B2
350
101C
  3
B3
350
101D
  3
B4
350
101E
  3
B5
350
101F
  3
B6
350
1020
  0
DICTIONARY
  5
C05
102
{ACAD_REACTORS
330
17F
102
}
330
17F
100
AcDbDictionary
281
     1
  3
Standard
350
C06
  0
DICTIONARY
  5
BF3
102
{ACAD_REACTORS
330
17F
102
}
330
17F
100
AcDbDictionary
281
     1
  3
2dWireframe
350
BF9
  3
3D Hidden
350
BFB
  3
3dWireframe
350
BFA
  3
Basic
350
BF8
  3
Brighten
350
BFF
  3
ColorChange
350
C03
  3
Conceptual
350
BFC
  3
Dim
350
BFE
  3
EdgeColorOff
350
100E
  3
Facepattern
350
C02
  3
Flat
350
BF4
  3
FlatWithEdges
350
BF5
  3
Gouraud
350
BF6
  3
GouraudWithEdges
350
BF7
  3
Hidden
350
1006
  3
JitterOff
350
100C
  3
Linepattern
350
C01
  3
OverhangOff
350
100D
  3
Realistic
350
BFD
  3
Shaded
350
100B
  3
Shaded with edges
350
100A
  3
Shades of Gray
350
1007
  3
Sketchy
350
1008
  3
Thicken
350
C00
  3
Wireframe
350
1005
  3
X-Ray
350
1009
  0
XRECORD
  5
1033
102
{ACAD_REACTORS
330
17F
102
}
330
17F
100
AcDbXrecord
280
     1
 90
        1
330
C06
  0
DICTIONARY
  5
F40
102
{ACAD_REACTORS
330
17F
102
}
330
17F
100
AcDbDictionary
281
     1
  3
CANNOSCALE
350
102F
  3
CMLEADERSTYLE
350
102E
  3
CTABLESTYLE
350
F41
  3
DIMASSOC
350
FF5
  3
INDEXCTL
350
FF4
  3
SORTENTS
350
FF3
  3
XCLIPFRAME
350
1030
  0
XRECORD
  5
1034
102
{ACAD_REACTORS
330
17F
102
}
330
17F
100
AcDbXrecord
280
     1
  1
DWGPROPS COOKIE
  2

  3

  4

  6

  7

  8
john.bennett
  9

300
=
301
=
302
=
303
=
304
=
305
=
306
=
307
=
308
=
309
=
 40
0.916397511574074
 41
2451288.305757986
 42
2456344.45379875
  1

 90
        0
  0
XRECORD
  5
1029
102
{ACAD_REACTORS
330
1028
102
}
330
1028
100
AcDbXrecord
280
     1
290
     1
  0
XRECORD
  5
102B
102
{ACAD_REACTORS
330
102A
102
}
330
102A
100
AcDbXrecord
280
     1
290
     1
  0
XRECORD
  5
102D
102
{ACAD_REACTORS
330
102C
102
}
330
102C
100
AcDbXrecord
280
     1
290
     1
  0
XRECORD
  5
BE9
102
{ACAD_REACTORS
330
B95
102
}
330
B95
100
AcDbXrecord
280
     1
340
18B
  0
SORTENTSTABLE
  5
EE7
102
{ACAD_REACTORS
330
B95
102
}
330
B95
100
AcDbSortentsTable
330
18B
331
F81
  5
F44
331
F72
  5
F32
331
5F6
  5
5F6
331
F32
  5
EFC
331
F23
  5
EED
331
F17
  5
EDD
331
F66
  5
F26
331
F57
  5
F18
331
FAF
  5
F74
331
F4B
  5
F0C
331
F0B
  5
ED1
331
EFC
  5
A3B
331
FA3
  5
F68
331
F94
  5
F58
331
EF0
  5
76D
331
EE1
  5
74E
331
F39
  5
F03
331
F88
  5
F4C
331
F79
  5
F39
331
F6D
  5
F2D
331
F2D
  5
EF7
331
F5E
  5
F1F
331
F1E
  5
EE8
331
F61
  5
F22
331
FB6
  5
F7B
331
F52
  5
F13
331
F12
  5
ED8
331
F03
  5
A51
331
ED7
  5
741
331
EF7
  5
940
331
FAA
  5
F6F
331
F9B
  5
F5F
331
F46
  5
F08
331
F8F
  5
F53
331
EEB
  5
761
331
73C
  5
73C
331
EDC
  5
747
331
F83
  5
F46
331
F74
  5
F34
331
F34
  5
EFE
331
F25
  5
EEF
331
F28
  5
EF2
331
F59
  5
F1A
331
F19
  5
EE0
331
F68
  5
F28
331
FB1
  5
F76
331
F4D
  5
F0E
331
F0D
  5
ED3
331
EFE
  5
A45
331
FA5
  5
F6A
331
F96
  5
F5A
331
EF2
  5
777
331
EE3
  5
752
331
766
  5
73D
331
F7B
  5
F3B
331
F8A
  5
F4E
331
F6F
  5
F2F
331
F2F
  5
EF9
331
F20
  5
EEA
331
F63
  5
F24
331
F54
  5
F15
331
F14
  5
EDA
331
F05
  5
A53
331
F48
  5
F0A
331
F08
  5
B6A
331
F9D
  5
F61
331
EF9
  5
949
331
FAC
  5
F71
331
FA0
  5
F65
331
F91
  5
F55
331
76D
  5
73E
331
EED
  5
763
331
EDE
  5
749
331
F85
  5
F48
331
F76
  5
F36
331
F36
  5
F00
331
F27
  5
EF1
331
F6A
  5
F2A
331
F2A
  5
EF4
331
F5B
  5
F1C
331
F1B
  5
EE4
331
FB3
  5
F78
331
F4F
  5
F10
331
F0F
  5
ED5
331
F00
  5
A4E
331
FA7
  5
F6C
331
F43
  5
F05
331
F98
  5
F5C
331
EF4
  5
783
331
EE5
  5
756
331
F8C
  5
F50
331
EE8
  5
759
331
F7D
  5
F42
331
F3D
  5
EE3
331
ED9
  5
743
331
F71
  5
F31
331
F31
  5
EFB
331
F22
  5
EEC
331
F65
  5
F25
331
F56
  5
F17
331
F16
  5
EDC
331
F07
  5
B69
331
FAE
  5
F73
331
F4A
  5
F0B
331
F0A
  5
ED0
331
F9F
  5
F63
331
EFB
  5
A3A
331
FA2
  5
F67
331
F93
  5
F57
331
EEF
  5
767
331
EE0
  5
74D
331
F87
  5
F4B
331
F78
  5
F38
331
F38
  5
F02
331
F6C
  5
F2C
331
F2C
  5
EF6
331
F5D
  5
F1E
331
F1D
  5
EE6
331
F60
  5
F21
331
FB5
  5
F7A
331
F51
  5
F12
331
F11
  5
ED7
331
F02
  5
A50
331
FA9
  5
F6E
331
F45
  5
F07
331
F9A
  5
F5E
331
ED6
  5
740
331
EF6
  5
7A0
331
F8E
  5
F52
331
EEA
  5
75B
331
F3F
  5
EDF
331
EDB
  5
745
331
F82
  5
F45
331
F73
  5
F33
331
F33
  5
EFD
331
F24
  5
EEE
331
F67
  5
F27
331
F58
  5
F19
331
F18
  5
EDE
331
FB0
  5
F75
331
F4C
  5
F0D
331
F0C
  5
ED2
331
EFD
  5
A44
331
FA4
  5
F69
331
EE2
  5
751
331
F95
  5
F59
331
EF1
  5
76E
331
F89
  5
F4D
331
F7A
  5
F3A
331
F6E
  5
F2E
331
F2E
  5
EF8
331
F5F
  5
F20
331
F1F
  5
EE9
331
F62
  5
F23
331
F04
  5
A52
331
F53
  5
F14
331
F13
  5
ED9
331
FAB
  5
F70
331
F47
  5
F09
331
F9C
  5
F60
331
EF8
  5
945
331
F90
  5
F54
331
EEC
  5
762
331
EDD
  5
748
331
F84
  5
F47
331
F26
  5
EF0
331
F75
  5
F35
331
F35
  5
EFF
331
F69
  5
F29
331
F29
  5
EF3
331
F5A
  5
F1B
331
F1A
  5
EE2
331
FB2
  5
F77
331
F4E
  5
F0F
331
F0E
  5
ED4
331
EFF
  5
A46
331
EF3
  5
778
331
FA6
  5
F6B
331
EE4
  5
755
331
F97
  5
F5B
331
F42
  5
F04
331
F8B
  5
F4F
331
F7C
  5
F3C
331
ED8
  5
742
331
F70
  5
F30
331
F30
  5
EFA
331
F21
  5
EEB
331
F15
  5
EDB
331
F06
  5
A54
331
F55
  5
F16
331
FAD
  5
F72
331
F09
  5
B71
331
F9E
  5
F62
331
EFA
  5
950
331
FA1
  5
F66
331
F92
  5
F56
331
76E
  5
73F
331
EEE
  5
766
331
EDF
  5
74A
331
F37
  5
F01
331
F86
  5
F4A
331
F77
  5
F37
331
F6B
  5
F2B
331
F2B
  5
EF5
331
F5C
  5
F1D
331
F1C
  5
EE5
331
FB4
  5
F79
331
F50
  5
F11
331
F10
  5
ED6
331
F01
  5
A4F
331
EF5
  5
784
331
FA8
  5
F6D
331
EE6
  5
74B
331
F99
  5
F5D
331
F44
  5
F06
331
F8D
  5
F51
331
EE9
  5
75A
331
F7E
  5
F43
331
F3E
  5
EE1
331
EDA
  5
744
  0
XRECORD
  5
BE8
102
{ACAD_REACTORS
330
B93
102
}
330
B93
100
AcDbXrecord
280
     1
340
188
  0
LAYOUT
  5
C09
102
{ACAD_XDICTIONARY
360
1058
102
}
102
{ACAD_REACTORS
330
C07
102
}
330
C07
100
AcDbPlotSettings
  1

  2
Microsoft XPS Document Writer
  4

  6

 40
0.0
 41
0.0
 42
0.0
 43
0.0
 44
0.0
 45
0.0
 46
0.0
 47
0.0
 48
0.0
 49
0.0
140
0.0
141
0.0
142
1.0
143
1.0
 70
   688
 72
     0
 73
     0
 74
     5
  7

 75
    16
147
1.0
148
0.0
149
0.0
100
AcDbLayout
  1
Layout1
 70
     1
 71
     1
 10
0.0
 20
0.0
 11
12.0
 21
9.0
 12
0.0
 22
0.0
 32
0.0
 14
-1.000000000000000E+20
 24
-1.000000000000000E+20
 34
-1.000000000000000E+20
 15
-1.000000000000000E+20
 25
-1.000000000000000E+20
 35
-1.000000000000000E+20
146
0.0
 13
0.0
 23
0.0
 33
0.0
 16
1.0
 26
0.0
 36
0.0
 17
0.0
 27
1.0
 37
0.0
 76
     0
330
188
  0
LAYOUT
  5
C08
102
{ACAD_XDICTIONARY
360
1056
102
}
102
{ACAD_REACTORS
330
C07
102
}
330
C07
100
AcDbPlotSettings
  1

  2
Microsoft XPS Document Writer
  4

  6

 40
0.0
 41
0.0
 42
0.0
 43
0.0
 44
0.0
 45
0.0
 46
0.0
 47
0.0
 48
0.0
 49
0.0
140
0.0
141
0.0
142
1.0
143
1.0
 70
  1712
 72
     0
 73
     0
 74
     0
  7

 75
     0
147
1.0
148
0.0
149
0.0
100
AcDbLayout
  1
Model
 70
     1
 71
     0
 10
0.0
 20
0.0
 11
12.0
 21
9.0
 12
0.0
 22
0.0
 32
0.0
 14
0.0
 24
0.0
 34
0.0
 15
0.0
 25
0.0
 35
0.0
146
0.0
 13
0.0
 23
0.0
 33
0.0
 16
1.0
 26
0.0
 36
0.0
 17
0.0
 27
1.0
 37
0.0
 76
     0
330
18B
331
BC7
  0
MATERIAL
  5
BF1
102
{ACAD_XDICTIONARY
360
FF9
102
}
102
{ACAD_REACTORS
330
BEF
102
}
330
BEF
100
AcDbMaterial
  1
ByBlock
  0
MATERIAL
  5
BF0
102
{ACAD_XDICTIONARY
360
FF7
102
}
102
{ACAD_REACTORS
330
BEF
102
}
330
BEF
100
AcDbMaterial
  1
ByLayer
  0
MATERIAL
  5
BF2
102
{ACAD_XDICTIONARY
360
FFB
102
}
102
{ACAD_REACTORS
330
BEF
102
}
330
BEF
100
AcDbMaterial
  1
Global
  0
MLEADERSTYLE
  5
1022
102
{ACAD_REACTORS
330
1021
102
}
330
1021
100
AcDbMLeaderStyle
170
     2
171
     1
172
     0
 90
        2
 40
0.0
 41
0.0
173
     1
 91
-1056964608
340
185
 92
       -2
290
     1
 42
0.09
291
     1
 43
0.36
  3
Standard
 44
0.18
300

342
182
174
     1
178
     6
175
     1
176
     0
 93
-1056964608
 45
0.18
292
     0
297
     0
 46
0.18
 94
-1056964608
 47
1.0
 49
1.0
140
1.0
293
     1
141
0.0
294
     1
177
     0
142
1.0
295
     0
296
     0
143
0.125
1001
ACAD_MLEADERVER
1070
     2
  0
MLINESTYLE
  5
18F
102
{ACAD_REACTORS
330
18E
102
}
330
18E
100
AcDbMlineStyle
  2
STANDARD
 70
     0
  3

 62
   256
 51
90.0
 52
90.0
 71
     2
 49
0.5
 62
   256
  6
BYLAYER
 49
-0.5
 62
   256
  6
BYLAYER
  0
ACDBPLACEHOLDER
  5
993
102
{ACAD_REACTORS
330
992
102
}
330
992
  0
SCALE
  5
1010
102
{ACAD_REACTORS
330
100F
102
}
330
100F
100
AcDbScale
 70
     0
300
1:1
140
1.0
141
1.0
290
     1
  0
SCALE
  5
1011
102
{ACAD_REACTORS
330
100F
102
}
330
100F
100
AcDbScale
 70
     0
300
1/128" = 1'-0"
140
0.0078125
141
12.0
290
     0
  0
SCALE
  5
1012
102
{ACAD_REACTORS
330
100F
102
}
330
100F
100
AcDbScale
 70
     0
300
1/64" = 1'-0"
140
0.015625
141
12.0
290
     0
  0
SCALE
  5
1013
102
{ACAD_REACTORS
330
100F
102
}
330
100F
100
AcDbScale
 70
     0
300
1/32" = 1'-0"
140
0.03125
141
12.0
290
     0
  0
SCALE
  5
1014
102
{ACAD_REACTORS
330
100F
102
}
330
100F
100
AcDbScale
 70
     0
300
1/16" = 1'-0"
140
0.0625
141
12.0
290
     0
  0
SCALE
  5
1015
102
{ACAD_REACTORS
330
100F
102
}
330
100F
100
AcDbScale
 70
     0
300
3/32" = 1'-0"
140
0.09375
141
12.0
290
     0
  0
SCALE
  5
1016
102
{ACAD_REACTORS
330
100F
102
}
330
100F
100
AcDbScale
 70
     0
300
1/8" = 1'-0"
140
0.125
141
12.0
290
     0
  0
SCALE
  5
1017
102
{ACAD_REACTORS
330
100F
102
}
330
100F
100
AcDbScale
 70
     0
300
3/16" = 1'-0"
140
0.1875
141
12.0
290
     0
  0
SCALE
  5
1018
102
{ACAD_REACTORS
330
100F
102
}
330
100F
100
AcDbScale
 70
     0
300
1/4" = 1'-0"
140
0.25
141
12.0
290
     0
  0
SCALE
  5
1019
102
{ACAD_REACTORS
330
100F
102
}
330
100F
100
AcDbScale
 70
     0
300
3/8" = 1'-0"
140
0.375
141
12.0
290
     0
  0
SCALE
  5
101A
102
{ACAD_REACTORS
330
100F
102
}
330
100F
100
AcDbScale
 70
     0
300
1/2" = 1'-0"
140
0.5
141
12.0
290
     0
  0
SCALE
  5
101B
102
{ACAD_REACTORS
330
100F
102
}
330
100F
100
AcDbScale
 70
     0
300
3/4" = 1'-0"
140
0.75
141
12.0
290
     0
  0
SCALE
  5
101C
102
{ACAD_REACTORS
330
100F
102
}
330
100F
100
AcDbScale
 70
     0
300
1" = 1'-0"
140
1.0
141
12.0
290
     0
  0
SCALE
  5
101D
102
{ACAD_REACTORS
330
100F
102
}
330
100F
100
AcDbScale
 70
     0
300
1-1/2" = 1'-0"
140
1.5
141
12.0
290
     0
  0
SCALE
  5
101E
102
{ACAD_REACTORS
330
100F
102
}
330
100F
100
AcDbScale
 70
     0
300
3" = 1'-0"
140
3.0
141
12.0
290
     0
  0
SCALE
  5
101F
102
{ACAD_REACTORS
330
100F
102
}
330
100F
100
AcDbScale
 70
     0
300
6" = 1'-0"
140
6.0
141
12.0
290
     0
  0
SCALE
  5
1020
102
{ACAD_REACTORS
330
100F
102
}
330
100F
100
AcDbScale
 70
     0
300
1'-0" = 1'-0"
140
12.0
141
12.0
290
     0
  0
TABLESTYLE
  5
C06
102
{ACAD_XDICTIONARY
360
1031
102
}
102
{ACAD_REACTORS
330
C05
102
}
330
C05
100
AcDbTableStyle
  3
Standard
 70
     0
 71
     0
 40
0.06
 41
0.06
280
     0
281
     0
  7
STANDARD
140
0.18
170
     2
 62
     0
 63
     7
283
     0
274
    -2
284
     1
 64
     0
275
    -2
285
     1
 65
     0
276
    -2
286
     1
 66
     0
277
    -2
287
     1
 67
     0
278
    -2
288
     1
 68
     0
279
    -2
289
     1
 69
     0
  7
STANDARD
140
0.25
170
     5
 62
     0
 63
     7
283
     0
274
    -2
284
     1
 64
     0
275
    -2
285
     1
 65
     0
276
    -2
286
     1
 66
     0
277
    -2
287
     1
 67
     0
278
    -2
288
     1
 68
     0
279
    -2
289
     1
 69
     0
  7
STANDARD
140
0.18
170
     5
 62
     0
 63
     7
283
     0
274
    -2
284
     1
 64
     0
275
    -2
285
     1
 65
     0
276
    -2
286
     1
 66
     0
277
    -2
287
     1
 67
     0
278
    -2
288
     1
 68
     0
279
    -2
289
     1
 69
     0
  0
VISUALSTYLE
  5
BF9
102
{ACAD_XDICTIONARY
360
103F
102
}
102
{ACAD_REACTORS
330
BF3
102
}
330
BF3
100
AcDbVisualStyle
  2

 70
     4
 71
     0
 72
     2
 73
     0
 90
        0
 40
-0.6
 41
-30.0
 62
     5
 63
     7
 74
     1
 91
        4
 64
     7
 65
   257
 75
     1
175
     1
 42
1.0
 92
        0
 66
   257
 43
1.0
 76
     1
 77
     6
 78
     2
 67
     7
 79
     5
170
     0
171
     0
290
     0
174
     0
 93
        1
 44
0.0
173
     0
291
     0
 45
0.0
1001
ACAD
1000
AcDbSavedByObjectVersion
1070
     0
  0
VISUALSTYLE
  5
BFB
102
{ACAD_XDICTIONARY
360
1043
102
}
102
{ACAD_REACTORS
330
BF3
102
}
330
BF3
100
AcDbVisualStyle
  2

 70
     6
 71
     1
 72
     2
 73
     2
 90
        0
 40
-0.6
 41
-30.0
 62
     5
 63
     7
 74
     2
 91
        2
 64
     7
 65
   257
 75
     2
175
     1
 42
40.0
 92
        0
 66
   257
 43
1.0
 76
     1
 77
     6
 78
     2
 67
     7
 79
     3
170
     0
171
     0
290
     0
174
     0
 93
        1
 44
0.0
173
     0
291
     0
 45
0.0
1001
ACAD
1000
AcDbSavedByObjectVersion
1070
     0
  0
VISUALSTYLE
  5
BFA
102
{ACAD_XDICTIONARY
360
1041
102
}
102
{ACAD_REACTORS
330
BF3
102
}
330
BF3
100
AcDbVisualStyle
  2

 70
     5
 71
     0
 72
     2
 73
     0
 90
        0
 40
-0.6
 41
-30.0
 62
     5
 63
     7
 74
     1
 91
        4
 64
     7
 65
   257
 75
     1
175
     1
 42
1.0
 92
        0
 66
   257
 43
1.0
 76
     1
 77
     6
 78
     2
 67
     7
 79
     5
170
     0
171
     0
290
     0
174
     0
 93
        1
 44
0.0
173
     0
291
     0
 45
0.0
1001
ACAD
1000
AcDbSavedByObjectVersion
1070
     0
  0
VISUALSTYLE
  5
BF8
102
{ACAD_XDICTIONARY
360
103D
102
}
102
{ACAD_REACTORS
330
BF3
102
}
330
BF3
100
AcDbVisualStyle
  2

 70
     7
 71
     1
 72
     0
 73
     1
 90
        0
 40
-0.6
 41
-30.0
 62
     5
 63
     7
 74
     0
 91
        4
 64
     7
 65
   257
 75
     1
175
     1
 42
1.0
 92
        8
 66
     7
 43
1.0
 76
     1
 77
     6
 78
     2
 67
     7
 79
     5
170
     0
171
     0
290
     0
174
     0
 93
        1
 44
0.0
173
     0
291
     1
 45
0.0
1001
ACAD
1000
AcDbSavedByObjectVersion
1070
     0
  0
VISUALSTYLE
  5
BFF
102
{ACAD_XDICTIONARY
360
104B
102
}
102
{ACAD_REACTORS
330
BF3
102
}
330
BF3
100
AcDbVisualStyle
  2

 70
    12
 71
     2
 72
     2
 73
     0
 90
        0
 40
-0.6
 41
-30.0
 62
     5
 63
     7
 74
     1
 91
        4
 64
     7
 65
   257
 75
     1
175
     1
 42
1.0
 92
        8
 66
     7
 43
1.0
 76
     1
 77
     6
 78
     2
 67
     7
 79
     5
170
     0
171
     0
290
     0
174
     0
 93
        1
 44
50.0
173
     0
291
     1
 45
0.0
1001
ACAD
1000
AcDbSavedByObjectVersion
1070
     0
  0
VISUALSTYLE
  5
C03
102
{ACAD_XDICTIONARY
360
1053
102
}
102
{ACAD_REACTORS
330
BF3
102
}
330
BF3
100
AcDbVisualStyle
  2

 70
    16
 71
     2
 72
     2
 73
     3
 90
        0
 40
-0.6
 41
-30.0
 62
     5
 63
     8
 74
     1
 91
        4
 64
     7
 65
   257
 75
     1
175
     1
 42
1.0
 92
        8
 66
     8
 43
1.0
 76
     1
 77
     6
 78
     2
 67
     7
 79
     5
170
     0
171
     0
290
     0
174
     0
 93
        1
 44
0.0
173
     0
291
     1
 45
0.0
1001
ACAD
1000
AcDbSavedByObjectVersion
1070
     0
  0
VISUALSTYLE
  5
BFC
102
{ACAD_XDICTIONARY
360
1045
102
}
102
{ACAD_REACTORS
330
BF3
102
}
330
BF3
100
AcDbVisualStyle
  2

 70
     9
 71
     3
 72
     2
 73
     0
 90
        0
 40
-0.6
 41
-30.0
 62
     5
 63
     7
 74
     2
 91
        2
 64
     7
 65
   257
 75
     1
175
     1
 42
40.0
 92
        8
 66
     7
 43
1.0
 76
     1
 77
     6
 78
     2
 67
     7
 79
     3
170
     0
171
     0
290
     0
174
     0
 93
        1
 44
0.0
173
     0
291
     0
 45
0.0
1001
ACAD
1000
AcDbSavedByObjectVersion
1070
     0
  0
VISUALSTYLE
  5
BFE
102
{ACAD_XDICTIONARY
360
1049
102
}
102
{ACAD_REACTORS
330
BF3
102
}
330
BF3
100
AcDbVisualStyle
  2

 70
    11
 71
     2
 72
     2
 73
     0
 90
        0
 40
-0.6
 41
-30.0
 62
     5
 63
     7
 74
     1
 91
        4
 64
     7
 65
   257
 75
     1
175
     1
 42
1.0
 92
        8
 66
     7
 43
1.0
 76
     1
 77
     6
 78
     2
 67
     7
 79
     5
170
     0
171
     0
290
     0
174
     0
 93
        1
 44
-50.0
173
     0
291
     1
 45
0.0
1001
ACAD
1000
AcDbSavedByObjectVersion
1070
     0
  0
VISUALSTYLE
  5
100E
102
{ACAD_XDICTIONARY
360
106C
102
}
102
{ACAD_REACTORS
330
BF3
102
}
330
BF3
100
AcDbVisualStyle
  2
EdgeColorOff
 70
    22
 71
     2
 72
     2
 73
     0
 90
        0
 40
-0.6
 41
-30.0
 62
     5
 63
     7
 74
     1
 91
        4
 64
     7
 65
   257
 75
     1
175
     1
 42
1.0
 92
        8
 66
     7
 43
1.0
 76
     1
 77
     6
 78
     2
 67
     7
 79
     5
170
     0
171
     0
290
     0
174
     0
 93
        1
 44
0.0
173
     0
291
     1
 45
0.0
1001
ACAD
1000
AcDbSavedByObjectVersion
1070
     0
  0
VISUALSTYLE
  5
C02
102
{ACAD_XDICTIONARY
360
1051
102
}
102
{ACAD_REACTORS
330
BF3
102
}
330
BF3
100
AcDbVisualStyle
  2

 70
    15
 71
     2
 72
     2
 73
     0
 90
        0
 40
-0.6
 41
-30.0
 62
     5
 63
     7
 74
     1
 91
        4
 64
     7
 65
   257
 75
     1
175
     1
 42
1.0
 92
        8
 66
     7
 43
1.0
 76
     1
 77
     6
 78
     2
 67
     7
 79
     5
170
     0
171
     0
290
     0
174
     0
 93
        1
 44
0.0
173
     0
291
     1
 45
0.0
1001
ACAD
1000
AcDbSavedByObjectVersion
1070
     0
  0
VISUALSTYLE
  5
BF4
102
{ACAD_XDICTIONARY
360
1035
102
}
102
{ACAD_REACTORS
330
BF3
102
}
330
BF3
100
AcDbVisualStyle
  2

 70
     0
 71
     2
 72
     1
 73
     1
 90
        2
 40
-0.6
 41
30.0
 62
     5
 63
     7
 74
     0
 91
        4
 64
     7
 65
   257
 75
     1
175
     1
 42
1.0
 92
        8
 66
     7
 43
1.0
 76
     1
 77
     6
 78
     2
 67
     7
 79
     5
170
     0
171
     0
290
     0
174
     0
 93
       13
 44
0.0
173
     0
291
     1
 45
0.0
1001
ACAD
1000
AcDbSavedByObjectVersion
1070
     0
  0
VISUALSTYLE
  5
BF5
102
{ACAD_XDICTIONARY
360
1037
102
}
102
{ACAD_REACTORS
330
BF3
102
}
330
BF3
100
AcDbVisualStyle
  2

 70
     1
 71
     2
 72
     1
 73
     1
 90
        2
 40
-0.6
 41
30.0
 62
     5
 63
     7
 74
     1
 91
        4
 64
     7
 65
   257
 75
     1
175
     1
 42
1.0
 92
        0
 66
   257
 43
1.0
 76
     1
 77
     6
 78
     2
 67
     7
 79
     5
170
     0
171
     0
290
     0
174
     0
 93
       13
 44
0.0
173
     0
291
     1
 45
0.0
1001
ACAD
1000
AcDbSavedByObjectVersion
1070
     0
  0
VISUALSTYLE
  5
BF6
102
{ACAD_XDICTIONARY
360
1039
102
}
102
{ACAD_REACTORS
330
BF3
102
}
330
BF3
100
AcDbVisualStyle
  2

 70
     2
 71
     2
 72
     2
 73
     1
 90
        2
 40
-0.6
 41
30.0
 62
     5
 63
     7
 74
     0
 91
        4
 64
     7
 65
   257
 75
     1
175
     1
 42
1.0
 92
        0
 66
     7
 43
1.0
 76
     1
 77
     6
 78
     2
 67
     7
 79
     5
170
     0
171
     0
290
     0
174
     0
 93
       13
 44
0.0
173
     0
291
     1
 45
0.0
1001
ACAD
1000
AcDbSavedByObjectVersion
1070
     0
  0
VISUALSTYLE
  5
BF7
102
{ACAD_XDICTIONARY
360
103B
102
}
102
{ACAD_REACTORS
330
BF3
102
}
330
BF3
100
AcDbVisualStyle
  2

 70
     3
 71
     2
 72
     2
 73
     1
 90
        2
 40
-0.6
 41
30.0
 62
     5
 63
     7
 74
     1
 91
        4
 64
     7
 65
   257
 75
     1
175
     1
 42
1.0
 92
        0
 66
   257
 43
1.0
 76
     1
 77
     6
 78
     2
 67
     7
 79
     5
170
     0
171
     0
290
     0
174
     0
 93
       13
 44
0.0
173
     0
291
     1
 45
0.0
1001
ACAD
1000
AcDbSavedByObjectVersion
1070
     0
  0
VISUALSTYLE
  5
1006
102
{ACAD_XDICTIONARY
360
105C
102
}
102
{ACAD_REACTORS
330
BF3
102
}
330
BF3
100
AcDbVisualStyle
  2
Hidden
 70
     6
 71
     1
 72
     2
 73
     2
 90
        0
 40
-0.6
 41
-30.0
 62
     5
 63
     7
 74
     2
 91
        2
 64
     7
 65
   257
 75
     2
175
     1
 42
40.0
 92
        0
 66
   257
 43
1.0
 76
     1
 77
     6
 78
     2
 67
     7
 79
     3
170
     0
171
     0
290
     0
174
     0
 93
        1
 44
0.0
173
     0
291
     0
 45
0.0
1001
ACAD
1000
AcDbSavedByObjectVersion
1070
     0
  0
VISUALSTYLE
  5
100C
102
{ACAD_XDICTIONARY
360
1068
102
}
102
{ACAD_REACTORS
330
BF3
102
}
330
BF3
100
AcDbVisualStyle
  2
JitterOff
 70
    20
 71
     2
 72
     2
 73
     0
 90
        0
 40
-0.6
 41
-30.0
 62
     5
 63
     7
 74
     1
 91
        4
 64
     7
 65
   257
 75
     1
175
     1
 42
1.0
 92
       10
 66
     7
 43
1.0
 76
     1
 77
     6
 78
     2
 67
     7
 79
     5
170
     0
171
     0
290
     0
174
     0
 93
        1
 44
0.0
173
     0
291
     1
 45
0.0
1001
ACAD
1000
AcDbSavedByObjectVersion
1070
     0
  0
VISUALSTYLE
  5
C01
102
{ACAD_XDICTIONARY
360
104F
102
}
102
{ACAD_REACTORS
330
BF3
102
}
330
BF3
100
AcDbVisualStyle
  2

 70
    14
 71
     2
 72
     2
 73
     0
 90
        0
 40
-0.6
 41
-30.0
 62
     5
 63
     7
 74
     1
 91
        4
 64
     7
 65
   257
 75
     7
175
     7
 42
1.0
 92
        8
 66
     7
 43
1.0
 76
     1
 77
     6
 78
     2
 67
     7
 79
     5
170
     0
171
     0
290
     0
174
     0
 93
        1
 44
0.0
173
     0
291
     1
 45
0.0
1001
ACAD
1000
AcDbSavedByObjectVersion
1070
     0
  0
VISUALSTYLE
  5
100D
102
{ACAD_XDICTIONARY
360
106A
102
}
102
{ACAD_REACTORS
330
BF3
102
}
330
BF3
100
AcDbVisualStyle
  2
OverhangOff
 70
    21
 71
     2
 72
     2
 73
     0
 90
        0
 40
-0.6
 41
-30.0
 62
     5
 63
     7
 74
     1
 91
        4
 64
     7
 65
   257
 75
     1
175
     1
 42
1.0
 92
        9
 66
     7
 43
1.0
 76
     1
 77
     6
 78
     2
 67
     7
 79
     5
170
     0
171
     0
290
     0
174
     0
 93
        1
 44
0.0
173
     0
291
     1
 45
0.0
1001
ACAD
1000
AcDbSavedByObjectVersion
1070
     0
  0
VISUALSTYLE
  5
BFD
102
{ACAD_XDICTIONARY
360
1047
102
}
102
{ACAD_REACTORS
330
BF3
102
}
330
BF3
100
AcDbVisualStyle
  2

 70
     8
 71
     2
 72
     2
 73
     0
 90
        0
 40
-0.6
 41
-30.0
 62
     5
 63
     7
 74
     1
 91
        0
 64
     7
 65
   257
 75
     1
175
     1
 42
1.0
 92
        8
 66
     8
 43
1.0
 76
     1
 77
     6
 78
     2
 67
     7
 79
     5
170
     0
171
     0
290
     0
174
     0
 93
       13
 44
0.0
173
     0
291
     0
 45
0.0
1001
ACAD
1000
AcDbSavedByObjectVersion
1070
     0
  0
VISUALSTYLE
  5
100B
102
{ACAD_XDICTIONARY
360
1066
102
}
102
{ACAD_REACTORS
330
BF3
102
}
330
BF3
100
AcDbVisualStyle
  2
Shaded
 70
    27
 71
     2
 72
     2
 73
     1
 90
        2
 40
-0.6
 41
30.0
 62
     5
 63
     7
 74
     0
 91
        4
 64
     7
 65
   257
 75
     1
175
     1
 42
1.0
 92
        8
 66
   257
 43
1.0
 76
     1
 77
     6
 78
     2
 67
     8
 79
     3
170
     0
171
     0
290
     0
174
     0
 93
        5
 44
0.0
173
     0
291
     0
 45
0.0
1001
ACAD
1000
AcDbSavedByObjectVersion
1070
     0
  0
VISUALSTYLE
  5
100A
102
{ACAD_XDICTIONARY
360
1064
102
}
102
{ACAD_REACTORS
330
BF3
102
}
330
BF3
100
AcDbVisualStyle
  2
Shaded with edges
 70
    26
 71
     2
 72
     2
 73
     1
 90
        2
 40
-0.6
 41
30.0
 62
     5
 63
     7
 74
     1
 91
       10
 64
     7
 65
   257
 75
     2
175
     1
 42
1.0
 92
        8
 66
   257
 43
1.0
 76
     1
 77
     6
 78
     2
 67
     7
 79
     3
170
     0
171
     0
290
     0
174
     0
 93
        5
 44
0.0
173
     0
291
     0
 45
0.0
1001
ACAD
1000
AcDbSavedByObjectVersion
1070
     0
  0
VISUALSTYLE
  5
1007
102
{ACAD_XDICTIONARY
360
105E
102
}
102
{ACAD_REACTORS
330
BF3
102
}
330
BF3
100
AcDbVisualStyle
  2
Shades of Gray
 70
    23
 71
     2
 72
     2
 73
     3
 90
        0
 40
-0.6
 41
-30.0
 62
     5
 63
     7
 74
     2
 91
        2
 64
     7
 65
     7
 75
     1
175
     1
 42
40.0
 92
        8
 66
     7
 43
1.0
 76
     1
 77
     6
 78
     2
 67
     7
 79
     3
170
     0
171
     0
290
     0
174
     0
 93
        1
 44
0.0
173
     0
291
     0
 45
0.0
1001
ACAD
1000
AcDbSavedByObjectVersion
1070
     0
  0
VISUALSTYLE
  5
1008
102
{ACAD_XDICTIONARY
360
1060
102
}
102
{ACAD_REACTORS
330
BF3
102
}
330
BF3
100
AcDbVisualStyle
  2
Sketchy
 70
    24
 71
     1
 72
     2
 73
     2
 90
        0
 40
-0.6
 41
-30.0
 62
     5
 63
     7
 74
     2
 91
        2
 64
     7
 65
     7
 75
     1
175
     1
 42
40.0
 92
       11
 66
     7
 43
1.0
 76
     1
 77
     6
 78
     2
 67
     7
 79
     6
170
     0
171
     0
290
     0
174
     0
 93
        1
 44
0.0
173
     0
291
     0
 45
0.0
1001
ACAD
1000
AcDbSavedByObjectVersion
1070
     0
  0
VISUALSTYLE
  5
C00
102
{ACAD_XDICTIONARY
360
104D
102
}
102
{ACAD_REACTORS
330
BF3
102
}
330
BF3
100
AcDbVisualStyle
  2

 70
    13
 71
     2
 72
     2
 73
     0
 90
        0
 40
-0.6
 41
-30.0
 62
     5
 63
     7
 74
     1
 91
        4
 64
     7
 65
   257
 75
     1
175
     1
 42
1.0
 92
       12
 66
     7
 43
1.0
 76
     1
 77
     6
 78
     2
 67
     7
 79
     5
170
     0
171
     0
290
     0
174
     0
 93
        1
 44
0.0
173
     0
291
     1
 45
0.0
1001
ACAD
1000
AcDbSavedByObjectVersion
1070
     0
  0
VISUALSTYLE
  5
1005
102
{ACAD_XDICTIONARY
360
105A
102
}
102
{ACAD_REACTORS
330
BF3
102
}
330
BF3
100
AcDbVisualStyle
  2
Wireframe
 70
     5
 71
     0
 72
     2
 73
     0
 90
        0
 40
-0.6
 41
-30.0
 62
     5
 63
     7
 74
     1
 91
        4
 64
     7
 65
   257
 75
     1
175
     1
 42
1.0
 92
        0
 66
   257
 43
1.0
 76
     1
 77
     6
 78
     2
 67
     7
 79
     3
170
     0
171
     0
290
     0
174
     0
 93
        1
 44
0.0
173
     0
291
     0
 45
0.0
1001
ACAD
1000
AcDbSavedByObjectVersion
1070
     0
  0
VISUALSTYLE
  5
1009
102
{ACAD_XDICTIONARY
360
1062
102
}
102
{ACAD_REACTORS
330
BF3
102
}
330
BF3
100
AcDbVisualStyle
  2
X-Ray
 70
    25
 71
     2
 72
     2
 73
     1
 90
        1
 40
0.5
 41
-30.0
 62
     5
 63
     7
 74
     1
 91
        0
 64
     7
 65
   257
 75
     1
175
     1
 42
1.0
 92
        8
 66
     7
 43
1.0
 76
     1
 77
     6
 78
     2
 67
     7
 79
     3
170
     0
171
     0
290
     0
174
     0
 93
       13
 44
0.0
173
     0
291
     0
 45
0.0
1001
ACAD
1000
AcDbSavedByObjectVersion
1070
     0
  0
DICTIONARYVAR
  5
102F
102
{ACAD_REACTORS
330
F40
102
}
330
F40
100
DictionaryVariables
280
     0
  1
1:1
  0
DICTIONARYVAR
  5
102E
102
{ACAD_REACTORS
330
F40
102
}
330
F40
100
DictionaryVariables
280
     0
  1
STANDARD
  0
DICTIONARYVAR
  5
F41
102
{ACAD_REACTORS
330
F40
102
}
330
F40
100
DictionaryVariables
280
     0
  1
STANDARD
  0
DICTIONARYVAR
  5
FF5
102
{ACAD_REACTORS
330
F40
102
}
330
F40
100
DictionaryVariables
280
     0
  1
1
  0
DICTIONARYVAR
  5
FF4
102
{ACAD_REACTORS
330
F40
102
}
330
F40
100
DictionaryVariables
280
     0
  1
0
  0
DICTIONARYVAR
  5
FF3
102
{ACAD_REACTORS
330
F40
102
}
330
F40
100
DictionaryVariables
280
     0
  1
127
  0
DICTIONARYVAR
  5
1030
102
{ACAD_REACTORS
330
F40
102
}
330
F40
100
DictionaryVariables
280
     0
  1
2
  0
DICTIONARY
  5
1058
330
C09
100
AcDbDictionary
280
     1
281
     1
  3
ACAD_XREC_ROUNDTRIP
360
1059
  0
DICTIONARY
  5
1056
330
C08
100
AcDbDictionary
280
     1
281
     1
  3
ACAD_XREC_ROUNDTRIP
360
1057
  0
DICTIONARY
  5
FF9
330
BF1
100
AcDbDictionary
280
     1
281
     1
  3
ACAD_XREC_ROUNDTRIP
360
FFA
  0
DICTIONARY
  5
FF7
330
BF0
100
AcDbDictionary
280
     1
281
     1
  3
ACAD_XREC_ROUNDTRIP
360
FF8
  0
DICTIONARY
  5
FFB
330
BF2
100
AcDbDictionary
280
     1
281
     1
  3
ACAD_XREC_ROUNDTRIP
360
FFC
  0
DICTIONARY
  5
1031
330
C06
100
AcDbDictionary
280
     1
281
     1
  3
ACAD_ROUNDTRIP_2008_TABLESTYLE_CELLSTYLEMAP
360
1032
  3
ACAD_XREC_ROUNDTRIP
360
1055
  0
DICTIONARY
  5
103F
330
BF9
100
AcDbDictionary
280
     1
281
     1
  3
ACAD_XREC_ROUNDTRIP
360
1040
  0
DICTIONARY
  5
1043
330
BFB
100
AcDbDictionary
280
     1
281
     1
  3
ACAD_XREC_ROUNDTRIP
360
1044
  0
DICTIONARY
  5
1041
330
BFA
100
AcDbDictionary
280
     1
281
     1
  3
ACAD_XREC_ROUNDTRIP
360
1042
  0
DICTIONARY
  5
103D
330
BF8
100
AcDbDictionary
280
     1
281
     1
  3
ACAD_XREC_ROUNDTRIP
360
103E
  0
DICTIONARY
  5
104B
330
BFF
100
AcDbDictionary
280
     1
281
     1
  3
ACAD_XREC_ROUNDTRIP
360
104C
  0
DICTIONARY
  5
1053
330
C03
100
AcDbDictionary
280
     1
281
     1
  3
ACAD_XREC_ROUNDTRIP
360
1054
  0
DICTIONARY
  5
1045
330
BFC
100
AcDbDictionary
280
     1
281
     1
  3
ACAD_XREC_ROUNDTRIP
360
1046
  0
DICTIONARY
  5
1049
330
BFE
100
AcDbDictionary
280
     1
281
     1
  3
ACAD_XREC_ROUNDTRIP
360
104A
  0
DICTIONARY
  5
106C
330
100E
100
AcDbDictionary
280
     1
281
     1
  3
ACAD_XREC_ROUNDTRIP
360
106D
  0
DICTIONARY
  5
1051
330
C02
100
AcDbDictionary
280
     1
281
     1
  3
ACAD_XREC_ROUNDTRIP
360
1052
  0
DICTIONARY
  5
1035
330
BF4
100
AcDbDictionary
280
     1
281
     1
  3
ACAD_XREC_ROUNDTRIP
360
1036
  0
DICTIONARY
  5
1037
330
BF5
100
AcDbDictionary
280
     1
281
     1
  3
ACAD_XREC_ROUNDTRIP
360
1038
  0
DICTIONARY
  5
1039
330
BF6
100
AcDbDictionary
280
     1
281
     1
  3
ACAD_XREC_ROUNDTRIP
360
103A
  0
DICTIONARY
  5
103B
330
BF7
100
AcDbDictionary
280
     1
281
     1
  3
ACAD_XREC_ROUNDTRIP
360
103C
  0
DICTIONARY
  5
105C
330
1006
100
AcDbDictionary
280
     1
281
     1
  3
ACAD_XREC_ROUNDTRIP
360
105D
  0
DICTIONARY
  5
1068
330
100C
100
AcDbDictionary
280
     1
281
     1
  3
ACAD_XREC_ROUNDTRIP
360
1069
  0
DICTIONARY
  5
104F
330
C01
100
AcDbDictionary
280
     1
281
     1
  3
ACAD_XREC_ROUNDTRIP
360
1050
  0
DICTIONARY
  5
106A
330
100D
100
AcDbDictionary
280
     1
281
     1
  3
ACAD_XREC_ROUNDTRIP
360
106B
  0
DICTIONARY
  5
1047
330
BFD
100
AcDbDictionary
280
     1
281
     1
  3
ACAD_XREC_ROUNDTRIP
360
1048
  0
DICTIONARY
  5
1066
330
100B
100
AcDbDictionary
280
     1
281
     1
  3
ACAD_XREC_ROUNDTRIP
360
1067
  0
DICTIONARY
  5
1064
330
100A
100
AcDbDictionary
280
     1
281
     1
  3
ACAD_XREC_ROUNDTRIP
360
1065
  0
DICTIONARY
  5
105E
330
1007
100
AcDbDictionary
280
     1
281
     1
  3
ACAD_XREC_ROUNDTRIP
360
105F
  0
DICTIONARY
  5
1060
330
1008
100
AcDbDictionary
280
     1
281
     1
  3
ACAD_XREC_ROUNDTRIP
360
1061
  0
DICTIONARY
  5
104D
330
C00
100
AcDbDictionary
280
     1
281
     1
  3
ACAD_XREC_ROUNDTRIP
360
104E
  0
DICTIONARY
  5
105A
330
1005
100
AcDbDictionary
280
     1
281
     1
  3
ACAD_XREC_ROUNDTRIP
360
105B
  0
DICTIONARY
  5
1062
330
1009
100
AcDbDictionary
280
     1
281
     1
  3
ACAD_XREC_ROUNDTRIP
360
1063
  0
XRECORD
  5
1059
102
{ACAD_REACTORS
330
1058
102
}
330
1058
100
AcDbXrecord
280
     1
102
SHADEPLOT
 70
     0
102
SHADEPLOTRESLEVEL
 70
     2
102
SHADEPLOTCUSTOMDPI
 70
   300
  0
XRECORD
  5
1057
102
{ACAD_REACTORS
330
1056
102
}
330
1056
100
AcDbXrecord
280
     1
102
SHADEPLOT
 70
     0
102
SHADEPLOTRESLEVEL
 70
     2
102
SHADEPLOTCUSTOMDPI
 70
   300
  0
XRECORD
  5
FFA
102
{ACAD_REACTORS
330
FF9
102
}
330
FF9
100
AcDbXrecord
280
     1
102
MATERIAL
148
0.0
149
0.0
149
0.0
 93
        0
 94
      127
282
     0
 72
     1
 77
     1
171
     1
175
     1
179
     1
273
     0
  0
XRECORD
  5
FF8
102
{ACAD_REACTORS
330
FF7
102
}
330
FF7
100
AcDbXrecord
280
     1
102
MATERIAL
148
0.0
149
0.0
149
0.0
 93
        0
 94
      127
282
     0
 72
     1
 77
     1
171
     1
175
     1
179
     1
273
     0
  0
XRECORD
  5
FFC
102
{ACAD_REACTORS
330
FFB
102
}
330
FFB
100
AcDbXrecord
280
     1
102
MATERIAL
148
0.0
149
0.0
149
0.0
 93
        0
 94
      127
282
     0
 72
     1
 77
     1
171
     1
175
     1
179
     1
273
     0
  0
CELLSTYLEMAP
  5
1032
102
{ACAD_REACTORS
330
1031
102
}
330
1031
100
AcDbCellStyleMap
 90
        3
300
CELLSTYLE
  1
TABLEFORMAT_BEGIN
 90
        5
170
     1
 91
        0
 92
    32768
 62
   257
 93
        1
300
CONTENTFORMAT
  1
CONTENTFORMAT_BEGIN
 90
        0
 91
        0
 92
      512
 93
        0
300

 40
0.0
140
1.0
 94
        5
 62
     0
340
182
144
0.25
309
CONTENTFORMAT_END
171
     0
 94
        6
 95
        1
302
GRIDFORMAT
  1
GRIDFORMAT_BEGIN
 90
        0
 91
        1
 62
     0
 92
       -2
340
0
 93
        0
 40
0.045
309
GRIDFORMAT_END
 95
        2
302
GRIDFORMAT
  1
GRIDFORMAT_BEGIN
 90
        0
 91
        1
 62
     0
 92
       -2
340
0
 93
        0
 40
0.045
309
GRIDFORMAT_END
 95
        4
302
GRIDFORMAT
  1
GRIDFORMAT_BEGIN
 90
        0
 91
        1
 62
     0
 92
       -2
340
0
 93
        0
 40
0.045
309
GRIDFORMAT_END
 95
        8
302
GRIDFORMAT
  1
GRIDFORMAT_BEGIN
 90
        0
 91
        1
 62
     0
 92
       -2
340
0
 93
        0
 40
0.045
309
GRIDFORMAT_END
 95
       16
302
GRIDFORMAT
  1
GRIDFORMAT_BEGIN
 90
        0
 91
        1
 62
     0
 92
       -2
340
0
 93
        0
 40
0.045
309
GRIDFORMAT_END
 95
       32
302
GRIDFORMAT
  1
GRIDFORMAT_BEGIN
 90
        0
 91
        1
 62
     0
 92
       -2
340
0
 93
        0
 40
0.045
309
GRIDFORMAT_END
309
TABLEFORMAT_END
  1
CELLSTYLE_BEGIN
 90
        1
 91
        1
300
_TITLE
309
CELLSTYLE_END
300
CELLSTYLE
  1
TABLEFORMAT_BEGIN
 90
        5
170
     1
 91
        0
 92
        0
 62
   257
 93
        1
300
CONTENTFORMAT
  1
CONTENTFORMAT_BEGIN
 90
        0
 91
        0
 92
      512
 93
        0
300

 40
0.0
140
1.0
 94
        5
 62
     0
340
182
144
0.18
309
CONTENTFORMAT_END
171
     0
 94
        6
 95
        1
302
GRIDFORMAT
  1
GRIDFORMAT_BEGIN
 90
        0
 91
        1
 62
     0
 92
       -2
340
0
 93
        0
 40
0.045
309
GRIDFORMAT_END
 95
        2
302
GRIDFORMAT
  1
GRIDFORMAT_BEGIN
 90
        0
 91
        1
 62
     0
 92
       -2
340
0
 93
        0
 40
0.045
309
GRIDFORMAT_END
 95
        4
302
GRIDFORMAT
  1
GRIDFORMAT_BEGIN
 90
        0
 91
        1
 62
     0
 92
       -2
340
0
 93
        0
 40
0.045
309
GRIDFORMAT_END
 95
        8
302
GRIDFORMAT
  1
GRIDFORMAT_BEGIN
 90
        0
 91
        1
 62
     0
 92
       -2
340
0
 93
        0
 40
0.045
309
GRIDFORMAT_END
 95
       16
302
GRIDFORMAT
  1
GRIDFORMAT_BEGIN
 90
        0
 91
        1
 62
     0
 92
       -2
340
0
 93
        0
 40
0.045
309
GRIDFORMAT_END
 95
       32
302
GRIDFORMAT
  1
GRIDFORMAT_BEGIN
 90
        0
 91
        1
 62
     0
 92
       -2
340
0
 93
        0
 40
0.045
309
GRIDFORMAT_END
309
TABLEFORMAT_END
  1
CELLSTYLE_BEGIN
 90
        2
 91
        1
300
_HEADER
309
CELLSTYLE_END
300
CELLSTYLE
  1
TABLEFORMAT_BEGIN
 90
        5
170
     1
 91
        0
 92
        0
 62
   257
 93
        1
300
CONTENTFORMAT
  1
CONTENTFORMAT_BEGIN
 90
        0
 91
        0
 92
      512
 93
        0
300

 40
0.0
140
1.0
 94
        2
 62
     0
340
182
144
0.18
309
CONTENTFORMAT_END
171
     0
 94
        6
 95
        1
302
GRIDFORMAT
  1
GRIDFORMAT_BEGIN
 90
        0
 91
        1
 62
     0
 92
       -2
340
0
 93
        0
 40
0.045
309
GRIDFORMAT_END
 95
        2
302
GRIDFORMAT
  1
GRIDFORMAT_BEGIN
 90
        0
 91
        1
 62
     0
 92
       -2
340
0
 93
        0
 40
0.045
309
GRIDFORMAT_END
 95
        4
302
GRIDFORMAT
  1
GRIDFORMAT_BEGIN
 90
        0
 91
        1
 62
     0
 92
       -2
340
0
 93
        0
 40
0.045
309
GRIDFORMAT_END
 95
        8
302
GRIDFORMAT
  1
GRIDFORMAT_BEGIN
 90
        0
 91
        1
 62
     0
 92
       -2
340
0
 93
        0
 40
0.045
309
GRIDFORMAT_END
 95
       16
302
GRIDFORMAT
  1
GRIDFORMAT_BEGIN
 90
        0
 91
        1
 62
     0
 92
       -2
340
0
 93
        0
 40
0.045
309
GRIDFORMAT_END
 95
       32
302
GRIDFORMAT
  1
GRIDFORMAT_BEGIN
 90
        0
 91
        1
 62
     0
 92
       -2
340
0
 93
        0
 40
0.045
309
GRIDFORMAT_END
309
TABLEFORMAT_END
  1
CELLSTYLE_BEGIN
 90
        3
 91
        2
300
_DATA
309
CELLSTYLE_END
  0
XRECORD
  5
1055
102
{ACAD_REACTORS
330
1031
102
}
330
1031
100
AcDbXrecord
280
     1
102
ACAD_ROUNDTRIP_PRE2007_TABLESTYLE
 90
      512
 91
        0
  1

 92
      512
 93
        0
  2

 94
      512
 95
        0
  3

  0
XRECORD
  5
1040
102
{ACAD_REACTORS
330
103F
102
}
330
103F
100
AcDbXrecord
280
     1
102
RTVSPropertyOp0
 70
     1
102
RTVSPropertyOp1
 70
     1
102
RTVSPropertyOp2
 70
     1
102
RTVSPropertyOp3
 70
     1
102
RTVSPropertyOp4
 70
     1
102
RTVSPropertyOp5
 70
     1
102
RTVSPropertyOp6
 70
     1
102
RTVSPropertyOp7
 70
     1
102
RTVSPropertyOp8
 70
     1
102
RTVSPropertyOp9
 70
     1
102
RTVSPropertyOp10
 70
     1
102
RTVSPropertyOp11
 70
     1
102
RTVSPropertyOp12
 70
     1
102
RTVSPropertyOp13
 70
     1
102
RTVSPropertyOp14
 70
     1
102
RTVSPropertyOp15
 70
     1
102
RTVSPropertyOp16
 70
     1
102
RTVSPropertyOp17
 70
     1
102
RTVSPropertyOp18
 70
     1
102
RTVSPropertyOp19
 70
     1
102
RTVSPropertyOp20
 70
     1
102
RTVSPropertyOp21
 70
     1
102
RTVSPropertyOp22
 70
     1
102
RTVSPropertyOp23
 70
     1
102
RTVSPropertyOp24
 70
     1
102
RTVSPropertyOp25
 70
     1
102
RTVSPropertyOp26
 70
     1
102
RTVSPropertyOp27
 70
     1
102
RTVSPropertyOp28
 70
     1
102
RTVSPropertyOp29
 70
     1
102
RTVSPropertyOp30
 70
     1
102
RTVSPropertyOp31
 70
     1
102
RTVSPropertyOp32
 70
     1
  0
XRECORD
  5
1044
102
{ACAD_REACTORS
330
1043
102
}
330
1043
100
AcDbXrecord
280
     1
102
RTVSPropertyOp0
 70
     1
102
RTVSPropertyOp1
 70
     1
102
RTVSPropertyOp2
 70
     1
102
RTVSPropertyOp3
 70
     1
102
RTVSPropertyOp4
 70
     1
102
RTVSPropertyOp5
 70
     1
102
RTVSPropertyOp6
 70
     1
102
RTVSPropertyOp7
 70
     1
102
RTVSPropertyOp8
 70
     1
102
RTVSPropertyOp9
 70
     1
102
RTVSPropertyOp10
 70
     1
102
RTVSPropertyOp11
 70
     1
102
RTVSPropertyOp12
 70
     1
102
RTVSPropertyOp13
 70
     1
102
RTVSPropertyOp14
 70
     1
102
RTVSPropertyOp15
 70
     1
102
RTVSPropertyOp16
 70
     1
102
RTVSPropertyOp17
 70
     1
102
RTVSPropertyOp18
 70
     1
102
RTVSPropertyOp19
 70
     1
102
RTVSPropertyOp20
 70
     1
102
RTVSPropertyOp21
 70
     1
102
RTVSPropertyOp22
 70
     1
102
RTVSPropertyOp23
 70
     1
102
RTVSPropertyOp24
 70
     1
102
RTVSPropertyOp25
 70
     1
102
RTVSPropertyOp26
 70
     1
102
RTVSPropertyOp27
 70
     1
102
RTVSPropertyOp28
 70
     1
102
RTVSPropertyOp29
 70
     1
102
RTVSPropertyOp30
 70
     1
102
RTVSPropertyOp31
 70
     1
102
RTVSPropertyOp32
 70
     1
  0
XRECORD
  5
1042
102
{ACAD_REACTORS
330
1041
102
}
330
1041
100
AcDbXrecord
280
     1
102
RTVSPropertyOp0
 70
     1
102
RTVSPropertyOp1
 70
     1
102
RTVSPropertyOp2
 70
     1
102
RTVSPropertyOp3
 70
     1
102
RTVSPropertyOp4
 70
     1
102
RTVSPropertyOp5
 70
     1
102
RTVSPropertyOp6
 70
     1
102
RTVSPropertyOp7
 70
     1
102
RTVSPropertyOp8
 70
     1
102
RTVSPropertyOp9
 70
     1
102
RTVSPropertyOp10
 70
     1
102
RTVSPropertyOp11
 70
     1
102
RTVSPropertyOp12
 70
     1
102
RTVSPropertyOp13
 70
     1
102
RTVSPropertyOp14
 70
     1
102
RTVSPropertyOp15
 70
     1
102
RTVSPropertyOp16
 70
     1
102
RTVSPropertyOp17
 70
     1
102
RTVSPropertyOp18
 70
     1
102
RTVSPropertyOp19
 70
     1
102
RTVSPropertyOp20
 70
     1
102
RTVSPropertyOp21
 70
     1
102
RTVSPropertyOp22
 70
     1
102
RTVSPropertyOp23
 70
     1
102
RTVSPropertyOp24
 70
     1
102
RTVSPropertyOp25
 70
     1
102
RTVSPropertyOp26
 70
     1
102
RTVSPropertyOp27
 70
     1
102
RTVSPropertyOp28
 70
     1
102
RTVSPropertyOp29
 70
     1
102
RTVSPropertyOp30
 70
     1
102
RTVSPropertyOp31
 70
     1
102
RTVSPropertyOp32
 70
     1
  0
XRECORD
  5
103E
102
{ACAD_REACTORS
330
103D
102
}
330
103D
100
AcDbXrecord
280
     1
102
RTVSPropertyOp0
 70
     1
102
RTVSPropertyOp1
 70
     1
102
RTVSPropertyOp2
 70
     1
102
RTVSPropertyOp3
 70
     1
102
RTVSPropertyOp4
 70
     1
102
RTVSPropertyOp5
 70
     1
102
RTVSPropertyOp6
 70
     1
102
RTVSPropertyOp7
 70
     1
102
RTVSPropertyOp8
 70
     1
102
RTVSPropertyOp9
 70
     1
102
RTVSPropertyOp10
 70
     1
102
RTVSPropertyOp11
 70
     1
102
RTVSPropertyOp12
 70
     1
102
RTVSPropertyOp13
 70
     1
102
RTVSPropertyOp14
 70
     1
102
RTVSPropertyOp15
 70
     1
102
RTVSPropertyOp16
 70
     1
102
RTVSPropertyOp17
 70
     1
102
RTVSPropertyOp18
 70
     1
102
RTVSPropertyOp19
 70
     1
102
RTVSPropertyOp20
 70
     1
102
RTVSPropertyOp21
 70
     1
102
RTVSPropertyOp22
 70
     1
102
RTVSPropertyOp23
 70
     1
102
RTVSPropertyOp24
 70
     1
102
RTVSPropertyOp25
 70
     1
102
RTVSPropertyOp26
 70
     1
102
RTVSPropertyOp27
 70
     1
102
RTVSPropertyOp28
 70
     1
102
RTVSPropertyOp29
 70
     1
102
RTVSPropertyOp30
 70
     1
102
RTVSPropertyOp31
 70
     1
102
RTVSPropertyOp32
 70
     1
  0
XRECORD
  5
104C
102
{ACAD_REACTORS
330
104B
102
}
330
104B
100
AcDbXrecord
280
     1
102
RTVSPropertyOp0
 70
     1
102
RTVSPropertyOp1
 70
     1
102
RTVSPropertyOp2
 70
     1
102
RTVSPropertyOp3
 70
     1
102
RTVSPropertyOp4
 70
     1
102
RTVSPropertyOp5
 70
     1
102
RTVSPropertyOp6
 70
     1
102
RTVSPropertyOp7
 70
     1
102
RTVSPropertyOp8
 70
     1
102
RTVSPropertyOp9
 70
     1
102
RTVSPropertyOp10
 70
     1
102
RTVSPropertyOp11
 70
     1
102
RTVSPropertyOp12
 70
     1
102
RTVSPropertyOp13
 70
     1
102
RTVSPropertyOp14
 70
     1
102
RTVSPropertyOp15
 70
     1
102
RTVSPropertyOp16
 70
     1
102
RTVSPropertyOp17
 70
     1
102
RTVSPropertyOp18
 70
     1
102
RTVSPropertyOp19
 70
     1
102
RTVSPropertyOp20
 70
     1
102
RTVSPropertyOp21
 70
     1
102
RTVSPropertyOp22
 70
     1
102
RTVSPropertyOp23
 70
     1
102
RTVSPropertyOp24
 70
     1
102
RTVSPropertyOp25
 70
     1
102
RTVSPropertyOp26
 70
     1
102
RTVSPropertyOp27
 70
     1
102
RTVSPropertyOp28
 70
     1
102
RTVSPropertyOp29
 70
     1
102
RTVSPropertyOp30
 70
     1
102
RTVSPropertyOp31
 70
     1
102
RTVSPropertyOp32
 70
     1
  0
XRECORD
  5
1054
102
{ACAD_REACTORS
330
1053
102
}
330
1053
100
AcDbXrecord
280
     1
102
RTVSPropertyOp0
 70
     1
102
RTVSPropertyOp1
 70
     1
102
RTVSPropertyOp2
 70
     1
102
RTVSPropertyOp3
 70
     1
102
RTVSPropertyOp4
 70
     1
102
RTVSPropertyOp5
 70
     1
102
RTVSPropertyOp6
 70
     1
102
RTVSPropertyOp7
 70
     1
102
RTVSPropertyOp8
 70
     1
102
RTVSPropertyOp9
 70
     1
102
RTVSPropertyOp10
 70
     1
102
RTVSPropertyOp11
 70
     1
102
RTVSPropertyOp12
 70
     1
102
RTVSPropertyOp13
 70
     1
102
RTVSPropertyOp14
 70
     1
102
RTVSPropertyOp15
 70
     1
102
RTVSPropertyOp16
 70
     1
102
RTVSPropertyOp17
 70
     1
102
RTVSPropertyOp18
 70
     1
102
RTVSPropertyOp19
 70
     1
102
RTVSPropertyOp20
 70
     1
102
RTVSPropertyOp21
 70
     1
102
RTVSPropertyOp22
 70
     1
102
RTVSPropertyOp23
 70
     1
102
RTVSPropertyOp24
 70
     1
102
RTVSPropertyOp25
 70
     1
102
RTVSPropertyOp26
 70
     1
102
RTVSPropertyOp27
 70
     1
102
RTVSPropertyOp28
 70
     1
102
RTVSPropertyOp29
 70
     1
102
RTVSPropertyOp30
 70
     1
102
RTVSPropertyOp31
 70
     1
102
RTVSPropertyOp32
 70
     1
  0
XRECORD
  5
1046
102
{ACAD_REACTORS
330
1045
102
}
330
1045
100
AcDbXrecord
280
     1
102
RTVSPropertyOp0
 70
     1
102
RTVSPropertyOp1
 70
     1
102
RTVSPropertyOp2
 70
     1
102
RTVSPropertyOp3
 70
     1
102
RTVSPropertyOp4
 70
     1
102
RTVSPropertyOp5
 70
     1
102
RTVSPropertyOp6
 70
     1
102
RTVSPropertyOp7
 70
     1
102
RTVSPropertyOp8
 70
     1
102
RTVSPropertyOp9
 70
     1
102
RTVSPropertyOp10
 70
     1
102
RTVSPropertyOp11
 70
     1
102
RTVSPropertyOp12
 70
     1
102
RTVSPropertyOp13
 70
     1
102
RTVSPropertyOp14
 70
     1
102
RTVSPropertyOp15
 70
     1
102
RTVSPropertyOp16
 70
     1
102
RTVSPropertyOp17
 70
     1
102
RTVSPropertyOp18
 70
     1
102
RTVSPropertyOp19
 70
     1
102
RTVSPropertyOp20
 70
     1
102
RTVSPropertyOp21
 70
     1
102
RTVSPropertyOp22
 70
     1
102
RTVSPropertyOp23
 70
     1
102
RTVSPropertyOp24
 70
     1
102
RTVSPropertyOp25
 70
     1
102
RTVSPropertyOp26
 70
     1
102
RTVSPropertyOp27
 70
     1
102
RTVSPropertyOp28
 70
     1
102
RTVSPropertyOp29
 70
     1
102
RTVSPropertyOp30
 70
     1
102
RTVSPropertyOp31
 70
     1
102
RTVSPropertyOp32
 70
     1
  0
XRECORD
  5
104A
102
{ACAD_REACTORS
330
1049
102
}
330
1049
100
AcDbXrecord
280
     1
102
RTVSPropertyOp0
 70
     1
102
RTVSPropertyOp1
 70
     1
102
RTVSPropertyOp2
 70
     1
102
RTVSPropertyOp3
 70
     1
102
RTVSPropertyOp4
 70
     1
102
RTVSPropertyOp5
 70
     1
102
RTVSPropertyOp6
 70
     1
102
RTVSPropertyOp7
 70
     1
102
RTVSPropertyOp8
 70
     1
102
RTVSPropertyOp9
 70
     1
102
RTVSPropertyOp10
 70
     1
102
RTVSPropertyOp11
 70
     1
102
RTVSPropertyOp12
 70
     1
102
RTVSPropertyOp13
 70
     1
102
RTVSPropertyOp14
 70
     1
102
RTVSPropertyOp15
 70
     1
102
RTVSPropertyOp16
 70
     1
102
RTVSPropertyOp17
 70
     1
102
RTVSPropertyOp18
 70
     1
102
RTVSPropertyOp19
 70
     1
102
RTVSPropertyOp20
 70
     1
102
RTVSPropertyOp21
 70
     1
102
RTVSPropertyOp22
 70
     1
102
RTVSPropertyOp23
 70
     1
102
RTVSPropertyOp24
 70
     1
102
RTVSPropertyOp25
 70
     1
102
RTVSPropertyOp26
 70
     1
102
RTVSPropertyOp27
 70
     1
102
RTVSPropertyOp28
 70
     1
102
RTVSPropertyOp29
 70
     1
102
RTVSPropertyOp30
 70
     1
102
RTVSPropertyOp31
 70
     1
102
RTVSPropertyOp32
 70
     1
  0
XRECORD
  5
106D
102
{ACAD_REACTORS
330
106C
102
}
330
106C
100
AcDbXrecord
280
     1
102
RTVSPropertyOp0
 70
     0
102
RTVSPropertyOp1
 70
     0
102
RTVSPropertyOp2
 70
     0
102
RTVSPropertyOp3
 70
     0
102
RTVSPropertyOp4
 70
     0
102
RTVSPropertyOp5
 70
     0
102
RTVSPropertyOp6
 70
     0
102
RTVSPropertyOp7
 70
     0
102
RTVSPropertyOp8
 70
     0
102
RTVSPropertyOp9
 70
     0
102
RTVSPropertyOp10
 70
     0
102
RTVSPropertyOp11
 70
     0
102
RTVSPropertyOp12
 70
     0
102
RTVSPropertyOp13
 70
     0
102
RTVSPropertyOp14
 70
     2
102
RTVSPropertyOp15
 70
     0
102
RTVSPropertyOp16
 70
     0
102
RTVSPropertyOp17
 70
     0
102
RTVSPropertyOp18
 70
     0
102
RTVSPropertyOp19
 70
     0
102
RTVSPropertyOp20
 70
     0
102
RTVSPropertyOp21
 70
     0
102
RTVSPropertyOp22
 70
     0
102
RTVSPropertyOp23
 70
     0
102
RTVSPropertyOp24
 70
     0
102
RTVSPropertyOp25
 70
     0
102
RTVSPropertyOp26
 70
     0
102
RTVSPropertyOp27
 70
     0
102
RTVSPropertyOp28
 70
     0
102
RTVSPropertyOp29
 70
     0
102
RTVSPropertyOp30
 70
     0
102
RTVSPropertyOp31
 70
     0
102
RTVSPropertyOp32
 70
     0
  0
XRECORD
  5
1052
102
{ACAD_REACTORS
330
1051
102
}
330
1051
100
AcDbXrecord
280
     1
102
RTVSPropertyOp0
 70
     1
102
RTVSPropertyOp1
 70
     1
102
RTVSPropertyOp2
 70
     1
102
RTVSPropertyOp3
 70
     1
102
RTVSPropertyOp4
 70
     1
102
RTVSPropertyOp5
 70
     1
102
RTVSPropertyOp6
 70
     1
102
RTVSPropertyOp7
 70
     1
102
RTVSPropertyOp8
 70
     1
102
RTVSPropertyOp9
 70
     1
102
RTVSPropertyOp10
 70
     1
102
RTVSPropertyOp11
 70
     1
102
RTVSPropertyOp12
 70
     1
102
RTVSPropertyOp13
 70
     1
102
RTVSPropertyOp14
 70
     1
102
RTVSPropertyOp15
 70
     1
102
RTVSPropertyOp16
 70
     1
102
RTVSPropertyOp17
 70
     1
102
RTVSPropertyOp18
 70
     1
102
RTVSPropertyOp19
 70
     1
102
RTVSPropertyOp20
 70
     1
102
RTVSPropertyOp21
 70
     1
102
RTVSPropertyOp22
 70
     1
102
RTVSPropertyOp23
 70
     1
102
RTVSPropertyOp24
 70
     1
102
RTVSPropertyOp25
 70
     1
102
RTVSPropertyOp26
 70
     1
102
RTVSPropertyOp27
 70
     1
102
RTVSPropertyOp28
 70
     1
102
RTVSPropertyOp29
 70
     1
102
RTVSPropertyOp30
 70
     1
102
RTVSPropertyOp31
 70
     1
102
RTVSPropertyOp32
 70
     1
  0
XRECORD
  5
1036
102
{ACAD_REACTORS
330
1035
102
}
330
1035
100
AcDbXrecord
280
     1
102
RTVSPropertyOp0
 70
     1
102
RTVSPropertyOp1
 70
     1
102
RTVSPropertyOp2
 70
     1
102
RTVSPropertyOp3
 70
     1
102
RTVSPropertyOp4
 70
     1
102
RTVSPropertyOp5
 70
     1
102
RTVSPropertyOp6
 70
     1
102
RTVSPropertyOp7
 70
     1
102
RTVSPropertyOp8
 70
     1
102
RTVSPropertyOp9
 70
     1
102
RTVSPropertyOp10
 70
     1
102
RTVSPropertyOp11
 70
     1
102
RTVSPropertyOp12
 70
     1
102
RTVSPropertyOp13
 70
     1
102
RTVSPropertyOp14
 70
     1
102
RTVSPropertyOp15
 70
     1
102
RTVSPropertyOp16
 70
     1
102
RTVSPropertyOp17
 70
     1
102
RTVSPropertyOp18
 70
     1
102
RTVSPropertyOp19
 70
     1
102
RTVSPropertyOp20
 70
     1
102
RTVSPropertyOp21
 70
     1
102
RTVSPropertyOp22
 70
     1
102
RTVSPropertyOp23
 70
     1
102
RTVSPropertyOp24
 70
     1
102
RTVSPropertyOp25
 70
     1
102
RTVSPropertyOp26
 70
     1
102
RTVSPropertyOp27
 70
     1
102
RTVSPropertyOp28
 70
     1
102
RTVSPropertyOp29
 70
     1
102
RTVSPropertyOp30
 70
     1
102
RTVSPropertyOp31
 70
     1
102
RTVSPropertyOp32
 70
     1
  0
XRECORD
  5
1038
102
{ACAD_REACTORS
330
1037
102
}
330
1037
100
AcDbXrecord
280
     1
102
RTVSPropertyOp0
 70
     1
102
RTVSPropertyOp1
 70
     1
102
RTVSPropertyOp2
 70
     1
102
RTVSPropertyOp3
 70
     1
102
RTVSPropertyOp4
 70
     1
102
RTVSPropertyOp5
 70
     1
102
RTVSPropertyOp6
 70
     1
102
RTVSPropertyOp7
 70
     1
102
RTVSPropertyOp8
 70
     1
102
RTVSPropertyOp9
 70
     1
102
RTVSPropertyOp10
 70
     1
102
RTVSPropertyOp11
 70
     1
102
RTVSPropertyOp12
 70
     1
102
RTVSPropertyOp13
 70
     1
102
RTVSPropertyOp14
 70
     1
102
RTVSPropertyOp15
 70
     1
102
RTVSPropertyOp16
 70
     1
102
RTVSPropertyOp17
 70
     1
102
RTVSPropertyOp18
 70
     1
102
RTVSPropertyOp19
 70
     1
102
RTVSPropertyOp20
 70
     1
102
RTVSPropertyOp21
 70
     1
102
RTVSPropertyOp22
 70
     1
102
RTVSPropertyOp23
 70
     1
102
RTVSPropertyOp24
 70
     1
102
RTVSPropertyOp25
 70
     1
102
RTVSPropertyOp26
 70
     1
102
RTVSPropertyOp27
 70
     1
102
RTVSPropertyOp28
 70
     1
102
RTVSPropertyOp29
 70
     1
102
RTVSPropertyOp30
 70
     1
102
RTVSPropertyOp31
 70
     1
102
RTVSPropertyOp32
 70
     1
  0
XRECORD
  5
103A
102
{ACAD_REACTORS
330
1039
102
}
330
1039
100
AcDbXrecord
280
     1
102
RTVSPropertyOp0
 70
     1
102
RTVSPropertyOp1
 70
     1
102
RTVSPropertyOp2
 70
     1
102
RTVSPropertyOp3
 70
     1
102
RTVSPropertyOp4
 70
     1
102
RTVSPropertyOp5
 70
     1
102
RTVSPropertyOp6
 70
     1
102
RTVSPropertyOp7
 70
     1
102
RTVSPropertyOp8
 70
     1
102
RTVSPropertyOp9
 70
     1
102
RTVSPropertyOp10
 70
     1
102
RTVSPropertyOp11
 70
     1
102
RTVSPropertyOp12
 70
     1
102
RTVSPropertyOp13
 70
     1
102
RTVSPropertyOp14
 70
     1
102
RTVSPropertyOp15
 70
     1
102
RTVSPropertyOp16
 70
     1
102
RTVSPropertyOp17
 70
     1
102
RTVSPropertyOp18
 70
     1
102
RTVSPropertyOp19
 70
     1
102
RTVSPropertyOp20
 70
     1
102
RTVSPropertyOp21
 70
     1
102
RTVSPropertyOp22
 70
     1
102
RTVSPropertyOp23
 70
     1
102
RTVSPropertyOp24
 70
     1
102
RTVSPropertyOp25
 70
     1
102
RTVSPropertyOp26
 70
     1
102
RTVSPropertyOp27
 70
     1
102
RTVSPropertyOp28
 70
     1
102
RTVSPropertyOp29
 70
     1
102
RTVSPropertyOp30
 70
     1
102
RTVSPropertyOp31
 70
     1
102
RTVSPropertyOp32
 70
     1
  0
XRECORD
  5
103C
102
{ACAD_REACTORS
330
103B
102
}
330
103B
100
AcDbXrecord
280
     1
102
RTVSPropertyOp0
 70
     1
102
RTVSPropertyOp1
 70
     1
102
RTVSPropertyOp2
 70
     1
102
RTVSPropertyOp3
 70
     1
102
RTVSPropertyOp4
 70
     1
102
RTVSPropertyOp5
 70
     1
102
RTVSPropertyOp6
 70
     1
102
RTVSPropertyOp7
 70
     1
102
RTVSPropertyOp8
 70
     1
102
RTVSPropertyOp9
 70
     1
102
RTVSPropertyOp10
 70
     1
102
RTVSPropertyOp11
 70
     1
102
RTVSPropertyOp12
 70
     1
102
RTVSPropertyOp13
 70
     1
102
RTVSPropertyOp14
 70
     1
102
RTVSPropertyOp15
 70
     1
102
RTVSPropertyOp16
 70
     1
102
RTVSPropertyOp17
 70
     1
102
RTVSPropertyOp18
 70
     1
102
RTVSPropertyOp19
 70
     1
102
RTVSPropertyOp20
 70
     1
102
RTVSPropertyOp21
 70
     1
102
RTVSPropertyOp22
 70
     1
102
RTVSPropertyOp23
 70
     1
102
RTVSPropertyOp24
 70
     1
102
RTVSPropertyOp25
 70
     1
102
RTVSPropertyOp26
 70
     1
102
RTVSPropertyOp27
 70
     1
102
RTVSPropertyOp28
 70
     1
102
RTVSPropertyOp29
 70
     1
102
RTVSPropertyOp30
 70
     1
102
RTVSPropertyOp31
 70
     1
102
RTVSPropertyOp32
 70
     1
  0
XRECORD
  5
105D
102
{ACAD_REACTORS
330
105C
102
}
330
105C
100
AcDbXrecord
280
     1
102
RTVSPropertyOp0
 70
     1
102
RTVSPropertyOp1
 70
     1
102
RTVSPropertyOp2
 70
     1
102
RTVSPropertyOp3
 70
     1
102
RTVSPropertyOp4
 70
     1
102
RTVSPropertyOp5
 70
     1
102
RTVSPropertyOp6
 70
     1
102
RTVSPropertyOp7
 70
     1
102
RTVSPropertyOp8
 70
     1
102
RTVSPropertyOp9
 70
     1
102
RTVSPropertyOp10
 70
     1
102
RTVSPropertyOp11
 70
     1
102
RTVSPropertyOp12
 70
     1
102
RTVSPropertyOp13
 70
     1
102
RTVSPropertyOp14
 70
     1
102
RTVSPropertyOp15
 70
     1
102
RTVSPropertyOp16
 70
     1
102
RTVSPropertyOp17
 70
     1
102
RTVSPropertyOp18
 70
     1
102
RTVSPropertyOp19
 70
     1
102
RTVSPropertyOp20
 70
     1
102
RTVSPropertyOp21
 70
     1
102
RTVSPropertyOp22
 70
     1
102
RTVSPropertyOp23
 70
     1
102
RTVSPropertyOp24
 70
     1
102
RTVSPropertyOp25
 70
     1
102
RTVSPropertyOp26
 70
     1
102
RTVSPropertyOp27
 70
     1
102
RTVSPropertyOp28
 70
     1
102
RTVSPropertyOp29
 70
     1
102
RTVSPropertyOp30
 70
     1
102
RTVSPropertyOp31
 70
     1
102
RTVSPropertyOp32
 70
     1
  0
XRECORD
  5
1069
102
{ACAD_REACTORS
330
1068
102
}
330
1068
100
AcDbXrecord
280
     1
102
RTVSPropertyOp0
 70
     0
102
RTVSPropertyOp1
 70
     0
102
RTVSPropertyOp2
 70
     0
102
RTVSPropertyOp3
 70
     0
102
RTVSPropertyOp4
 70
     0
102
RTVSPropertyOp5
 70
     0
102
RTVSPropertyOp6
 70
     0
102
RTVSPropertyOp7
 70
     0
102
RTVSPropertyOp8
 70
     0
102
RTVSPropertyOp9
 70
     0
102
RTVSPropertyOp10
 70
     0
102
RTVSPropertyOp11
 70
     0
102
RTVSPropertyOp12
 70
     0
102
RTVSPropertyOp13
 70
     0
102
RTVSPropertyOp14
 70
     2
102
RTVSPropertyOp15
 70
     0
102
RTVSPropertyOp16
 70
     0
102
RTVSPropertyOp17
 70
     0
102
RTVSPropertyOp18
 70
     0
102
RTVSPropertyOp19
 70
     0
102
RTVSPropertyOp20
 70
     0
102
RTVSPropertyOp21
 70
     0
102
RTVSPropertyOp22
 70
     0
102
RTVSPropertyOp23
 70
     0
102
RTVSPropertyOp24
 70
     0
102
RTVSPropertyOp25
 70
     0
102
RTVSPropertyOp26
 70
     0
102
RTVSPropertyOp27
 70
     0
102
RTVSPropertyOp28
 70
     0
102
RTVSPropertyOp29
 70
     0
102
RTVSPropertyOp30
 70
     0
102
RTVSPropertyOp31
 70
     0
102
RTVSPropertyOp32
 70
     0
  0
XRECORD
  5
1050
102
{ACAD_REACTORS
330
104F
102
}
330
104F
100
AcDbXrecord
280
     1
102
RTVSPropertyOp0
 70
     1
102
RTVSPropertyOp1
 70
     1
102
RTVSPropertyOp2
 70
     1
102
RTVSPropertyOp3
 70
     1
102
RTVSPropertyOp4
 70
     1
102
RTVSPropertyOp5
 70
     1
102
RTVSPropertyOp6
 70
     1
102
RTVSPropertyOp7
 70
     1
102
RTVSPropertyOp8
 70
     1
102
RTVSPropertyOp9
 70
     1
102
RTVSPropertyOp10
 70
     1
102
RTVSPropertyOp11
 70
     1
102
RTVSPropertyOp12
 70
     1
102
RTVSPropertyOp13
 70
     1
102
RTVSPropertyOp14
 70
     1
102
RTVSPropertyOp15
 70
     1
102
RTVSPropertyOp16
 70
     1
102
RTVSPropertyOp17
 70
     1
102
RTVSPropertyOp18
 70
     1
102
RTVSPropertyOp19
 70
     1
102
RTVSPropertyOp20
 70
     1
102
RTVSPropertyOp21
 70
     1
102
RTVSPropertyOp22
 70
     1
102
RTVSPropertyOp23
 70
     1
102
RTVSPropertyOp24
 70
     1
102
RTVSPropertyOp25
 70
     1
102
RTVSPropertyOp26
 70
     1
102
RTVSPropertyOp27
 70
     1
102
RTVSPropertyOp28
 70
     1
102
RTVSPropertyOp29
 70
     1
102
RTVSPropertyOp30
 70
     1
102
RTVSPropertyOp31
 70
     1
102
RTVSPropertyOp32
 70
     1
  0
XRECORD
  5
106B
102
{ACAD_REACTORS
330
106A
102
}
330
106A
100
AcDbXrecord
280
     1
102
RTVSPropertyOp0
 70
     0
102
RTVSPropertyOp1
 70
     0
102
RTVSPropertyOp2
 70
     0
102
RTVSPropertyOp3
 70
     0
102
RTVSPropertyOp4
 70
     0
102
RTVSPropertyOp5
 70
     0
102
RTVSPropertyOp6
 70
     0
102
RTVSPropertyOp7
 70
     0
102
RTVSPropertyOp8
 70
     0
102
RTVSPropertyOp9
 70
     0
102
RTVSPropertyOp10
 70
     0
102
RTVSPropertyOp11
 70
     0
102
RTVSPropertyOp12
 70
     0
102
RTVSPropertyOp13
 70
     0
102
RTVSPropertyOp14
 70
     2
102
RTVSPropertyOp15
 70
     0
102
RTVSPropertyOp16
 70
     0
102
RTVSPropertyOp17
 70
     0
102
RTVSPropertyOp18
 70
     0
102
RTVSPropertyOp19
 70
     0
102
RTVSPropertyOp20
 70
     0
102
RTVSPropertyOp21
 70
     0
102
RTVSPropertyOp22
 70
     0
102
RTVSPropertyOp23
 70
     0
102
RTVSPropertyOp24
 70
     0
102
RTVSPropertyOp25
 70
     0
102
RTVSPropertyOp26
 70
     0
102
RTVSPropertyOp27
 70
     0
102
RTVSPropertyOp28
 70
     0
102
RTVSPropertyOp29
 70
     0
102
RTVSPropertyOp30
 70
     0
102
RTVSPropertyOp31
 70
     0
102
RTVSPropertyOp32
 70
     0
  0
XRECORD
  5
1048
102
{ACAD_REACTORS
330
1047
102
}
330
1047
100
AcDbXrecord
280
     1
102
RTVSPropertyOp0
 70
     1
102
RTVSPropertyOp1
 70
     1
102
RTVSPropertyOp2
 70
     1
102
RTVSPropertyOp3
 70
     1
102
RTVSPropertyOp4
 70
     1
102
RTVSPropertyOp5
 70
     1
102
RTVSPropertyOp6
 70
     1
102
RTVSPropertyOp7
 70
     1
102
RTVSPropertyOp8
 70
     1
102
RTVSPropertyOp9
 70
     1
102
RTVSPropertyOp10
 70
     1
102
RTVSPropertyOp11
 70
     1
102
RTVSPropertyOp12
 70
     1
102
RTVSPropertyOp13
 70
     1
102
RTVSPropertyOp14
 70
     1
102
RTVSPropertyOp15
 70
     1
102
RTVSPropertyOp16
 70
     1
102
RTVSPropertyOp17
 70
     1
102
RTVSPropertyOp18
 70
     1
102
RTVSPropertyOp19
 70
     1
102
RTVSPropertyOp20
 70
     1
102
RTVSPropertyOp21
 70
     1
102
RTVSPropertyOp22
 70
     1
102
RTVSPropertyOp23
 70
     1
102
RTVSPropertyOp24
 70
     1
102
RTVSPropertyOp25
 70
     1
102
RTVSPropertyOp26
 70
     1
102
RTVSPropertyOp27
 70
     1
102
RTVSPropertyOp28
 70
     1
102
RTVSPropertyOp29
 70
     1
102
RTVSPropertyOp30
 70
     1
102
RTVSPropertyOp31
 70
     1
102
RTVSPropertyOp32
 70
     1
  0
XRECORD
  5
1067
102
{ACAD_REACTORS
330
1066
102
}
330
1066
100
AcDbXrecord
280
     1
102
RTVSPropertyOp0
 70
     1
102
RTVSPropertyOp1
 70
     1
102
RTVSPropertyOp2
 70
     1
102
RTVSPropertyOp3
 70
     1
102
RTVSPropertyOp4
 70
     1
102
RTVSPropertyOp5
 70
     1
102
RTVSPropertyOp6
 70
     1
102
RTVSPropertyOp7
 70
     1
102
RTVSPropertyOp8
 70
     1
102
RTVSPropertyOp9
 70
     1
102
RTVSPropertyOp10
 70
     1
102
RTVSPropertyOp11
 70
     1
102
RTVSPropertyOp12
 70
     1
102
RTVSPropertyOp13
 70
     1
102
RTVSPropertyOp14
 70
     1
102
RTVSPropertyOp15
 70
     1
102
RTVSPropertyOp16
 70
     1
102
RTVSPropertyOp17
 70
     1
102
RTVSPropertyOp18
 70
     1
102
RTVSPropertyOp19
 70
     1
102
RTVSPropertyOp20
 70
     1
102
RTVSPropertyOp21
 70
     1
102
RTVSPropertyOp22
 70
     1
102
RTVSPropertyOp23
 70
     1
102
RTVSPropertyOp24
 70
     1
102
RTVSPropertyOp25
 70
     1
102
RTVSPropertyOp26
 70
     1
102
RTVSPropertyOp27
 70
     1
102
RTVSPropertyOp28
 70
     1
102
RTVSPropertyOp29
 70
     1
102
RTVSPropertyOp30
 70
     1
102
RTVSPropertyOp31
 70
     1
102
RTVSPropertyOp32
 70
     1
  0
XRECORD
  5
1065
102
{ACAD_REACTORS
330
1064
102
}
330
1064
100
AcDbXrecord
280
     1
102
RTVSPropertyOp0
 70
     1
102
RTVSPropertyOp1
 70
     1
102
RTVSPropertyOp2
 70
     1
102
RTVSPropertyOp3
 70
     1
102
RTVSPropertyOp4
 70
     1
102
RTVSPropertyOp5
 70
     1
102
RTVSPropertyOp6
 70
     1
102
RTVSPropertyOp7
 70
     1
102
RTVSPropertyOp8
 70
     1
102
RTVSPropertyOp9
 70
     1
102
RTVSPropertyOp10
 70
     1
102
RTVSPropertyOp11
 70
     1
102
RTVSPropertyOp12
 70
     1
102
RTVSPropertyOp13
 70
     1
102
RTVSPropertyOp14
 70
     1
102
RTVSPropertyOp15
 70
     1
102
RTVSPropertyOp16
 70
     1
102
RTVSPropertyOp17
 70
     1
102
RTVSPropertyOp18
 70
     1
102
RTVSPropertyOp19
 70
     1
102
RTVSPropertyOp20
 70
     1
102
RTVSPropertyOp21
 70
     1
102
RTVSPropertyOp22
 70
     1
102
RTVSPropertyOp23
 70
     1
102
RTVSPropertyOp24
 70
     1
102
RTVSPropertyOp25
 70
     1
102
RTVSPropertyOp26
 70
     1
102
RTVSPropertyOp27
 70
     1
102
RTVSPropertyOp28
 70
     1
102
RTVSPropertyOp29
 70
     1
102
RTVSPropertyOp30
 70
     1
102
RTVSPropertyOp31
 70
     1
102
RTVSPropertyOp32
 70
     1
  0
XRECORD
  5
105F
102
{ACAD_REACTORS
330
105E
102
}
330
105E
100
AcDbXrecord
280
     1
102
RTVSPropertyOp0
 70
     1
102
RTVSPropertyOp1
 70
     1
102
RTVSPropertyOp2
 70
     1
102
RTVSPropertyOp3
 70
     1
102
RTVSPropertyOp4
 70
     1
102
RTVSPropertyOp5
 70
     1
102
RTVSPropertyOp6
 70
     1
102
RTVSPropertyOp7
 70
     1
102
RTVSPropertyOp8
 70
     1
102
RTVSPropertyOp9
 70
     1
102
RTVSPropertyOp10
 70
     1
102
RTVSPropertyOp11
 70
     1
102
RTVSPropertyOp12
 70
     1
102
RTVSPropertyOp13
 70
     1
102
RTVSPropertyOp14
 70
     1
102
RTVSPropertyOp15
 70
     1
102
RTVSPropertyOp16
 70
     1
102
RTVSPropertyOp17
 70
     1
102
RTVSPropertyOp18
 70
     1
102
RTVSPropertyOp19
 70
     1
102
RTVSPropertyOp20
 70
     1
102
RTVSPropertyOp21
 70
     1
102
RTVSPropertyOp22
 70
     1
102
RTVSPropertyOp23
 70
     1
102
RTVSPropertyOp24
 70
     1
102
RTVSPropertyOp25
 70
     1
102
RTVSPropertyOp26
 70
     1
102
RTVSPropertyOp27
 70
     1
102
RTVSPropertyOp28
 70
     1
102
RTVSPropertyOp29
 70
     1
102
RTVSPropertyOp30
 70
     1
102
RTVSPropertyOp31
 70
     1
102
RTVSPropertyOp32
 70
     1
  0
XRECORD
  5
1061
102
{ACAD_REACTORS
330
1060
102
}
330
1060
100
AcDbXrecord
280
     1
102
RTVSPropertyOp0
 70
     1
102
RTVSPropertyOp1
 70
     1
102
RTVSPropertyOp2
 70
     1
102
RTVSPropertyOp3
 70
     1
102
RTVSPropertyOp4
 70
     1
102
RTVSPropertyOp5
 70
     1
102
RTVSPropertyOp6
 70
     1
102
RTVSPropertyOp7
 70
     1
102
RTVSPropertyOp8
 70
     1
102
RTVSPropertyOp9
 70
     1
102
RTVSPropertyOp10
 70
     1
102
RTVSPropertyOp11
 70
     1
102
RTVSPropertyOp12
 70
     1
102
RTVSPropertyOp13
 70
     1
102
RTVSPropertyOp14
 70
     1
102
RTVSPropertyOp15
 70
     1
102
RTVSPropertyOp16
 70
     1
102
RTVSPropertyOp17
 70
     1
102
RTVSPropertyOp18
 70
     1
102
RTVSPropertyOp19
 70
     1
102
RTVSPropertyOp20
 70
     1
102
RTVSPropertyOp21
 70
     1
102
RTVSPropertyOp22
 70
     1
102
RTVSPropertyOp23
 70
     1
102
RTVSPropertyOp24
 70
     1
102
RTVSPropertyOp25
 70
     1
102
RTVSPropertyOp26
 70
     1
102
RTVSPropertyOp27
 70
     1
102
RTVSPropertyOp28
 70
     1
102
RTVSPropertyOp29
 70
     1
102
RTVSPropertyOp30
 70
     1
102
RTVSPropertyOp31
 70
     1
102
RTVSPropertyOp32
 70
     1
  0
XRECORD
  5
104E
102
{ACAD_REACTORS
330
104D
102
}
330
104D
100
AcDbXrecord
280
     1
102
RTVSPropertyOp0
 70
     1
102
RTVSPropertyOp1
 70
     1
102
RTVSPropertyOp2
 70
     1
102
RTVSPropertyOp3
 70
     1
102
RTVSPropertyOp4
 70
     1
102
RTVSPropertyOp5
 70
     1
102
RTVSPropertyOp6
 70
     1
102
RTVSPropertyOp7
 70
     1
102
RTVSPropertyOp8
 70
     1
102
RTVSPropertyOp9
 70
     1
102
RTVSPropertyOp10
 70
     1
102
RTVSPropertyOp11
 70
     1
102
RTVSPropertyOp12
 70
     1
102
RTVSPropertyOp13
 70
     1
102
RTVSPropertyOp14
 70
     1
102
RTVSPropertyOp15
 70
     1
102
RTVSPropertyOp16
 70
     1
102
RTVSPropertyOp17
 70
     1
102
RTVSPropertyOp18
 70
     1
102
RTVSPropertyOp19
 70
     1
102
RTVSPropertyOp20
 70
     1
102
RTVSPropertyOp21
 70
     1
102
RTVSPropertyOp22
 70
     1
102
RTVSPropertyOp23
 70
     1
102
RTVSPropertyOp24
 70
     1
102
RTVSPropertyOp25
 70
     1
102
RTVSPropertyOp26
 70
     1
102
RTVSPropertyOp27
 70
     1
102
RTVSPropertyOp28
 70
     1
102
RTVSPropertyOp29
 70
     1
102
RTVSPropertyOp30
 70
     1
102
RTVSPropertyOp31
 70
     1
102
RTVSPropertyOp32
 70
     1
  0
XRECORD
  5
105B
102
{ACAD_REACTORS
330
105A
102
}
330
105A
100
AcDbXrecord
280
     1
102
RTVSPropertyOp0
 70
     1
102
RTVSPropertyOp1
 70
     1
102
RTVSPropertyOp2
 70
     1
102
RTVSPropertyOp3
 70
     1
102
RTVSPropertyOp4
 70
     1
102
RTVSPropertyOp5
 70
     1
102
RTVSPropertyOp6
 70
     1
102
RTVSPropertyOp7
 70
     1
102
RTVSPropertyOp8
 70
     1
102
RTVSPropertyOp9
 70
     1
102
RTVSPropertyOp10
 70
     1
102
RTVSPropertyOp11
 70
     1
102
RTVSPropertyOp12
 70
     1
102
RTVSPropertyOp13
 70
     1
102
RTVSPropertyOp14
 70
     1
102
RTVSPropertyOp15
 70
     1
102
RTVSPropertyOp16
 70
     1
102
RTVSPropertyOp17
 70
     1
102
RTVSPropertyOp18
 70
     1
102
RTVSPropertyOp19
 70
     1
102
RTVSPropertyOp20
 70
     1
102
RTVSPropertyOp21
 70
     1
102
RTVSPropertyOp22
 70
     1
102
RTVSPropertyOp23
 70
     1
102
RTVSPropertyOp24
 70
     1
102
RTVSPropertyOp25
 70
     1
102
RTVSPropertyOp26
 70
     1
102
RTVSPropertyOp27
 70
     1
102
RTVSPropertyOp28
 70
     1
102
RTVSPropertyOp29
 70
     1
102
RTVSPropertyOp30
 70
     1
102
RTVSPropertyOp31
 70
     1
102
RTVSPropertyOp32
 70
     1
  0
XRECORD
  5
1063
102
{ACAD_REACTORS
330
1062
102
}
330
1062
100
AcDbXrecord
280
     1
102
RTVSPropertyOp0
 70
     1
102
RTVSPropertyOp1
 70
     1
102
RTVSPropertyOp2
 70
     1
102
RTVSPropertyOp3
 70
     1
102
RTVSPropertyOp4
 70
     1
102
RTVSPropertyOp5
 70
     1
102
RTVSPropertyOp6
 70
     1
102
RTVSPropertyOp7
 70
     1
102
RTVSPropertyOp8
 70
     1
102
RTVSPropertyOp9
 70
     1
102
RTVSPropertyOp10
 70
     1
102
RTVSPropertyOp11
 70
     1
102
RTVSPropertyOp12
 70
     1
102
RTVSPropertyOp13
 70
     1
102
RTVSPropertyOp14
 70
     1
102
RTVSPropertyOp15
 70
     1
102
RTVSPropertyOp16
 70
     1
102
RTVSPropertyOp17
 70
     1
102
RTVSPropertyOp18
 70
     1
102
RTVSPropertyOp19
 70
     1
102
RTVSPropertyOp20
 70
     1
102
RTVSPropertyOp21
 70
     1
102
RTVSPropertyOp22
 70
     1
102
RTVSPropertyOp23
 70
     1
102
RTVSPropertyOp24
 70
     1
102
RTVSPropertyOp25
 70
     1
102
RTVSPropertyOp26
 70
     1
102
RTVSPropertyOp27
 70
     1
102
RTVSPropertyOp28
 70
     1
102
RTVSPropertyOp29
 70
     1
102
RTVSPropertyOp30
 70
     1
102
RTVSPropertyOp31
 70
     1
102
RTVSPropertyOp32
 70
     1
  0
ENDSEC
  0
EOF
