  0
SECTION
  2
HEADER
  9
$ACADVER
  1
AC1015
  9
$ACADMAINTVER
 70
     6
  9
$DWGCODEPAGE
  3
ANSI_1252
  9
$INSBASE
 10
0.0
 20
0.0
 30
0.0
  9
$EXTMIN
 10
521.6503038809836
 20
313.821997406892
 30
0.0
  9
$EXTMAX
 10
1394.592543012063
 20
935.9212562859196
 30
0.0
  9
$LIMMIN
 10
0.0
 20
0.0
  9
$LIMMAX
 10
12.0
 20
9.0
  9
$ORTHOMODE
 70
     1
  9
$REGENMODE
 70
     1
  9
$FILLMODE
 70
     1
  9
$QTEXTMODE
 70
     0
  9
$MIRRTEXT
 70
     1
  9
$LTSCALE
 40
1.0
  9
$ATTMODE
 70
     1
  9
$TEXTSIZE
 40
0.0
  9
$TRACEWID
 40
0.05
  9
$TEXTSTYLE
  7
STANDARD
  9
$CLAYER
  8
0
  9
$CELTYPE
  6
CONTINUOUS
  9
$CECOLOR
 62
   256
  9
$CELTSCALE
 40
1.0
  9
$DISPSILH
 70
     0
  9
$DIMSCALE
 40
1.0
  9
$DIMASZ
 40
0.18
  9
$DIMEXO
 40
0.0625
  9
$DIMDLI
 40
0.38
  9
$DIMRND
 40
0.0
  9
$DIMDLE
 40
0.0
  9
$DIMEXE
 40
0.18
  9
$DIMTP
 40
0.0
  9
$DIMTM
 40
0.0
  9
$DIMTXT
 40
0.18
  9
$DIMCEN
 40
0.09
  9
$DIMTSZ
 40
0.0
  9
$DIMTOL
 70
     0
  9
$DIMLIM
 70
     0
  9
$DIMTIH
 70
     1
  9
$DIMTOH
 70
     1
  9
$DIMSE1
 70
     0
  9
$DIMSE2
 70
     0
  9
$DIMTAD
 70
     0
  9
$DIMZIN
 70
     0
  9
$DIMBLK
  1

  9
$DIMASO
 70
     1
  9
$DIMSHO
 70
     1
  9
$DIMPOST
  1

  9
$DIMAPOST
  1

  9
$DIMALT
 70
     0
  9
$DIMALTD
 70
     2
  9
$DIMALTF
 40
25.4
  9
$DIMLFAC
 40
1.0
  9
$DIMTOFL
 70
     0
  9
$DIMTVP
 40
0.0
  9
$DIMTIX
 70
     0
  9
$DIMSOXD
 70
     0
  9
$DIMSAH
 70
     0
  9
$DIMBLK1
  1

  9
$DIMBLK2
  1

  9
$DIMSTYLE
  2
STANDARD
  9
$DIMCLRD
 70
     0
  9
$DIMCLRE
 70
     0
  9
$DIMCLRT
 70
     0
  9
$DIMTFAC
 40
1.0
  9
$DIMGAP
 40
0.09
  9
$DIMJUST
 70
     0
  9
$DIMSD1
 70
     0
  9
$DIMSD2
 70
     0
  9
$DIMTOLJ
 70
     1
  9
$DIMTZIN
 70
     0
  9
$DIMALTZ
 70
     0
  9
$DIMALTTZ
 70
     0
  9
$DIMUPT
 70
     0
  9
$DIMDEC
 70
     4
  9
$DIMTDEC
 70
     4
  9
$DIMALTU
 70
     2
  9
$DIMALTTD
 70
     2
  9
$DIMTXSTY
  7
STANDARD
  9
$DIMAUNIT
 70
     0
  9
$DIMADEC
 70
     0
  9
$DIMALTRND
 40
0.0
  9
$DIMAZIN
 70
     0
  9
$DIMDSEP
 70
    46
  9
$DIMATFIT
 70
     3
  9
$DIMFRAC
 70
     0
  9
$DIMLDRBLK
  1

  9
$DIMLUNIT
 70
     2
  9
$DIMLWD
 70
    -2
  9
$DIMLWE
 70
    -2
  9
$DIMTMOVE
 70
     0
  9
$LUNITS
 70
     2
  9
$LUPREC
 70
     4
  9
$SKETCHINC
 40
0.1
  9
$FILLETRAD
 40
0.0
  9
$AUNITS
 70
     0
  9
$AUPREC
 70
     0
  9
$MENU
  1
acad
  9
$ELEVATION
 40
0.0
  9
$PELEVATION
 40
0.0
  9
$THICKNESS
 40
0.0
  9
$LIMCHECK
 70
     0
  9
$CHAMFERA
 40
0.0
  9
$CHAMFERB
 40
0.0
  9
$CHAMFERC
 40
0.0
  9
$CHAMFERD
 40
0.0
  9
$SKPOLY
 70
     0
  9
$TDCREATE
 40
2453375.468761574
  9
$TDUCREATE
 40
2453375.427094907
  9
$TDUPDATE
 40
2457620.223541689
  9
$TDUUPDATE
 40
2457620.181875023
  9
$TDINDWG
 40
0.0182503241
  9
$TDUSRTIMER
 40
0.0182482292
  9
$USRTIMER
 70
     1
  9
$ANGBASE
 50
0.0
  9
$ANGDIR
 70
     0
  9
$PDMODE
 70
     0
  9
$PDSIZE
 40
0.0
  9
$PLINEWID
 40
0.0
  9
$SPLFRAME
 70
     0
  9
$SPLINETYPE
 70
     6
  9
$SPLINESEGS
 70
    10
  9
$HANDSEED
  5
8E5
  9
$SURFTAB1
 70
     6
  9
$SURFTAB2
 70
     6
  9
$SURFTYPE
 70
     6
  9
$SURFU
 70
     6
  9
$SURFV
 70
     6
  9
$UCSBASE
  2

  9
$UCSNAME
  2

  9
$UCSORG
 10
0.0
 20
0.0
 30
0.0
  9
$UCSXDIR
 10
1.0
 20
0.0
 30
0.0
  9
$UCSYDIR
 10
0.0
 20
1.0
 30
0.0
  9
$UCSORTHOREF
  2

  9
$UCSORTHOVIEW
 70
     0
  9
$UCSORGTOP
 10
0.0
 20
0.0
 30
0.0
  9
$UCSORGBOTTOM
 10
0.0
 20
0.0
 30
0.0
  9
$UCSORGLEFT
 10
0.0
 20
0.0
 30
0.0
  9
$UCSORGRIGHT
 10
0.0
 20
0.0
 30
0.0
  9
$UCSORGFRONT
 10
0.0
 20
0.0
 30
0.0
  9
$UCSORGBACK
 10
0.0
 20
0.0
 30
0.0
  9
$PUCSBASE
  2

  9
$PUCSNAME
  2

  9
$PUCSORG
 10
0.0
 20
0.0
 30
0.0
  9
$PUCSXDIR
 10
1.0
 20
0.0
 30
0.0
  9
$PUCSYDIR
 10
0.0
 20
1.0
 30
0.0
  9
$PUCSORTHOREF
  2

  9
$PUCSORTHOVIEW
 70
     0
  9
$PUCSORGTOP
 10
0.0
 20
0.0
 30
0.0
  9
$PUCSORGBOTTOM
 10
0.0
 20
0.0
 30
0.0
  9
$PUCSORGLEFT
 10
0.0
 20
0.0
 30
0.0
  9
$PUCSORGRIGHT
 10
0.0
 20
0.0
 30
0.0
  9
$PUCSORGFRONT
 10
0.0
 20
0.0
 30
0.0
  9
$PUCSORGBACK
 10
0.0
 20
0.0
 30
0.0
  9
$USERI1
 70
     0
  9
$USERI2
 70
     0
  9
$USERI3
 70
     0
  9
$USERI4
 70
     0
  9
$USERI5
 70
     0
  9
$USERR1
 40
0.0
  9
$USERR2
 40
0.0
  9
$USERR3
 40
0.0
  9
$USERR4
 40
0.0
  9
$USERR5
 40
0.0
  9
$WORLDVIEW
 70
     1
  9
$SHADEDGE
 70
     3
  9
$SHADEDIF
 70
    70
  9
$TILEMODE
 70
     1
  9
$MAXACTVP
 70
    16
  9
$PINSBASE
 10
0.0
 20
0.0
 30
0.0
  9
$PLIMCHECK
 70
     0
  9
$PEXTMIN
 10
-1.000000000000000E+20
 20
-1.000000000000000E+20
 30
-1.000000000000000E+20
  9
$PEXTMAX
 10
-1.000000000000000E+20
 20
-1.000000000000000E+20
 30
-1.000000000000000E+20
  9
$PLIMMIN
 10
0.0
 20
0.0
  9
$PLIMMAX
 10
12.0
 20
9.0
  9
$UNITMODE
 70
     0
  9
$VISRETAIN
 70
     0
  9
$PLINEGEN
 70
     1
  9
$PSLTSCALE
 70
     0
  9
$TREEDEPTH
 70
  3020
  9
$CMLSTYLE
  2
STANDARD
  9
$CMLJUST
 70
     0
  9
$CMLSCALE
 40
1.0
  9
$PROXYGRAPHICS
 70
     1
  9
$MEASUREMENT
 70
     0
  9
$CELWEIGHT
370
    -1
  9
$ENDCAPS
280
     0
  9
$JOINSTYLE
280
     0
  9
$LWDISPLAY
290
     0
  9
$INSUNITS
 70
     0
  9
$HYPERLINKBASE
  1

  9
$STYLESHEET
  1

  9
$XEDIT
290
     1
  9
$CEPSNTYPE
380
     0
  9
$PSTYLEMODE
290
     1
  9
$FINGERPRINTGUID
  2
{90F47713-D64A-4B9C-B5FE-88B63D796F68}
  9
$VERSIONGUID
  2
{9B515AD6-77BA-41C7-9E75-EB785CF4E74F}
  9
$EXTNAMES
290
     1
  9
$PSVPSCALE
 40
0.0
  9
$OLESTARTUP
290
     0
  0
ENDSEC
  0
SECTION
  2
CLASSES
  0
CLASS
  1
ACDBDICTIONARYWDFLT
  2
AcDbDictionaryWithDefault
  3
AutoCAD 2000
 90
        0
280
     0
281
     0
  0
CLASS
  1
ACDBPLACEHOLDER
  2
AcDbPlaceHolder
  3
AutoCAD 2000
 90
        0
280
     0
281
     0
  0
CLASS
  1
LAYOUT
  2
AcDbLayout
  3
AutoCAD 2000
 90
        0
280
     0
281
     0
  0
CLASS
  1
MATERIAL
  2
AcDbMaterial
  3
ObjectDBX Classes
 90
     1024
280
     0
281
     0
  0
CLASS
  1
VISUALSTYLE
  2
AcDbVisualStyle
  3
ObjectDBX Classes
 90
     4095
280
     0
281
     0
  0
CLASS
  1
TABLESTYLE
  2
AcDbTableStyle
  3
ObjectDBX Classes
 90
     4095
280
     0
281
     0
  0
CLASS
  1
SORTENTSTABLE
  2
AcDbSortentsTable
  3
AutoCAD 2000
 90
        0
280
     0
281
     0
  0
CLASS
  1
DICTIONARYVAR
  2
AcDbDictionaryVar
  3
AutoCAD 2000
 90
        0
280
     0
281
     0
  0
ENDSEC
  0
SECTION
  2
TABLES
  0
TABLE
  2
VPORT
  5
106
330
0
100
AcDbSymbolTable
 70
     2
  0
VPORT
  5
8E4
330
106
100
AcDbSymbolTableRecord
100
AcDbViewportTableRecord
  2
*Active
 70
     0
 10
0.0
 20
0.0
 11
1.0
 21
1.0
 12
243.3900386685912
 22
165.2229743303978
 13
0.0
 23
0.0
 14
0.0
 24
0.0
 15
0.0
 25
0.0
 16
0.0
 26
0.0
 36
1.0
 17
890.261596
 27
575.871875
 37
0.0
 40
679.6865666943195
 41
1.94776119402985
 42
50.0
 43
0.025
 44
0.0
 50
0.0
 51
0.0
 71
     0
 72
   100
 73
     1
 74
     0
 75
     0
 76
     0
 77
     0
 78
     0
281
     0
 65
     1
110
0.0
120
0.0
130
0.0
111
1.0
121
0.0
131
0.0
112
0.0
122
1.0
132
0.0
 79
     0
146
0.0
  0
ENDTAB
  0
TABLE
  2
LTYPE
  5
103
330
0
100
AcDbSymbolTable
 70
     7
  0
LTYPE
  5
111
330
103
100
AcDbSymbolTableRecord
100
AcDbLinetypeTableRecord
  2
BYBLOCK
 70
     0
  3

 72
    65
 73
     0
 40
0.0
  0
LTYPE
  5
112
330
103
100
AcDbSymbolTableRecord
100
AcDbLinetypeTableRecord
  2
BYLAYER
 70
     0
  3

 72
    65
 73
     0
 40
0.0
  0
LTYPE
  5
113
330
103
100
AcDbSymbolTableRecord
100
AcDbLinetypeTableRecord
  2
CONTINUOUS
 70
     0
  3
Solid line
 72
    65
 73
     0
 40
0.0
  0
LTYPE
  5
121
330
103
100
AcDbSymbolTableRecord
100
AcDbLinetypeTableRecord
  2
DOT
 70
     0
  3
. . . . . . . . . . . . . . . . . . . . . . . . . . . . . . . . .
 72
    65
 73
     2
 40
0.25
 49
0.0
 74
     0
 49
-0.25
 74
     0
  0
LTYPE
  5
122
330
103
100
AcDbSymbolTableRecord
100
AcDbLinetypeTableRecord
  2
HIDDEN
 70
     0
  3
__ __ __ __ __ __ __ __ __ __ __ __ __ __ __ __ __ __ __ __ __ 
 72
    65
 73
     2
 40
0.375
 49
0.25
 74
     0
 49
-0.125
 74
     0
  0
LTYPE
  5
123
330
103
100
AcDbSymbolTableRecord
100
AcDbLinetypeTableRecord
  2
DASHED
 70
     0
  3
__ __ __ __ __ __ __ __ __ __ __ __ __ __ __ __ __ __ __ __ __
 72
    65
 73
     2
 40
0.75
 49
0.5
 74
     0
 49
-0.25
 74
     0
  0
LTYPE
  5
124
330
103
100
AcDbSymbolTableRecord
100
AcDbLinetypeTableRecord
  2
DASHDOT
 70
     0
  3
__ . __ . __ . __ . __ . __ . __ . __ . __ . __ . __ . __ . _
 72
    65
 73
     4
 40
1.0
 49
0.5
 74
     0
 49
-0.25
 74
     0
 49
0.0
 74
     0
 49
-0.25
 74
     0
  0
LTYPE
  5
125
330
103
100
AcDbSymbolTableRecord
100
AcDbLinetypeTableRecord
  2
DIVIDE
 70
     0
  3
____ . . ____ . . ____ . . ____ . . ____ . . ____ . . ____ . .
 72
    65
 73
     6
 40
1.25
 49
0.5
 74
     0
 49
-0.25
 74
     0
 49
0.0
 74
     0
 49
-0.25
 74
     0
 49
0.0
 74
     0
 49
-0.25
 74
     0
  0
LTYPE
  5
126
330
103
100
AcDbSymbolTableRecord
100
AcDbLinetypeTableRecord
  2
CENTER
 70
     0
  3
____ _ ____ _ ____ _ ____ _ ____ _ ____ _ ____ _ ____ _ ____ _
 72
    65
 73
     4
 40
2.0
 49
1.25
 74
     0
 49
-0.25
 74
     0
 49
0.25
 74
     0
 49
-0.25
 74
     0
  0
ENDTAB
  0
TABLE
  2
LAYER
  5
100
330
0
100
AcDbSymbolTable
 70
     6
  0
LAYER
  5
10E
330
100
100
AcDbSymbolTableRecord
100
AcDbLayerTableRecord
  2
0
 70
     0
 62
     7
  6
CONTINUOUS
370
    -3
390
10D
  0
LAYER
  5
127
330
100
100
AcDbSymbolTableRecord
100
AcDbLayerTableRecord
  2
CONSTRUCTION_CLASS
 70
     0
 62
     7
  6
CONTINUOUS
370
    -3
390
10D
  0
LAYER
  5
128
330
100
100
AcDbSymbolTableRecord
100
AcDbLayerTableRecord
  2
PATTERN_CLASS
 70
     0
 62
     7
  6
CONTINUOUS
370
    -3
390
10D
  0
LAYER
  5
129
330
100
100
AcDbSymbolTableRecord
100
AcDbLayerTableRecord
  2
1
 70
     0
 62
     7
  6
CONTINUOUS
370
    -3
390
10D
  0
LAYER
  5
50D
102
{ACAD_XDICTIONARY
360
50E
102
}
330
100
100
AcDbSymbolTableRecord
100
AcDbLayerTableRecord
  2
-1
 70
     0
 62
     7
  6
CONTINUOUS
370
    -3
390
10D
  0
LAYER
  5
510
102
{ACAD_XDICTIONARY
360
511
102
}
330
100
100
AcDbSymbolTableRecord
100
AcDbLayerTableRecord
  2
FLAN1$0$1
 70
     0
 62
     7
  6
CONTINUOUS
370
    -3
390
10D
  0
ENDTAB
  0
TABLE
  2
STYLE
  5
101
330
0
100
AcDbSymbolTable
 70
     2
  0
STYLE
  5
10F
330
101
100
AcDbSymbolTableRecord
100
AcDbTextStyleTableRecord
  2
STANDARD
 70
     0
 40
0.0
 41
1.0
 50
0.0
 71
     0
 42
0.0
  3
txt
  4

  0
STYLE
  5
12A
330
101
100
AcDbSymbolTableRecord
100
AcDbTextStyleTableRecord
  2
ROMANS
 70
     0
 40
0.2
 41
1.0
 50
0.0
 71
     0
 42
0.2
  3
ROMANS
  4

  0
ENDTAB
  0
TABLE
  2
VIEW
  5
104
330
0
100
AcDbSymbolTable
 70
     0
  0
ENDTAB
  0
TABLE
  2
UCS
  5
105
330
0
100
AcDbSymbolTable
 70
     0
  0
ENDTAB
  0
TABLE
  2
APPID
  5
107
330
0
100
AcDbSymbolTable
 70
     1
  0
APPID
  5
110
330
107
100
AcDbSymbolTableRecord
100
AcDbRegAppTableRecord
  2
ACAD
 70
     0
  0
ENDTAB
  0
TABLE
  2
DIMSTYLE
  5
108
330
0
100
AcDbSymbolTable
 70
     1
100
AcDbDimStyleTable
 71
     0
  0
DIMSTYLE
105
12B
330
108
100
AcDbSymbolTableRecord
100
AcDbDimStyleTableRecord
  2
STANDARD
 70
     0
340
10F
  0
ENDTAB
  0
TABLE
  2
BLOCK_RECORD
  5
FF
330
0
100
AcDbSymbolTable
 70
     0
  0
BLOCK_RECORD
  5
11C
102
{ACAD_XDICTIONARY
360
474
102
}
330
FF
100
AcDbSymbolTableRecord
100
AcDbBlockTableRecord
  2
*MODEL_SPACE
340
508
  0
BLOCK_RECORD
  5
118
102
{ACAD_XDICTIONARY
360
472
102
}
330
FF
100
AcDbSymbolTableRecord
100
AcDbBlockTableRecord
  2
*PAPER_SPACE
340
509
  0
ENDTAB
  0
ENDSEC
  0
SECTION
  2
BLOCKS
  0
BLOCK
  5
11D
330
11C
100
AcDbEntity
  8
0
100
AcDbBlockBegin
  2
*MODEL_SPACE
 70
     0
 10
0.0
 20
0.0
 30
0.0
  3
*MODEL_SPACE
  1

  0
ENDBLK
  5
11E
330
11C
100
AcDbEntity
  8
0
100
AcDbBlockEnd
  0
BLOCK
  5
119
330
118
100
AcDbEntity
 67
     1
  8
0
100
AcDbBlockBegin
  2
*PAPER_SPACE
 70
     0
 10
0.0
 20
0.0
 30
0.0
  3
*PAPER_SPACE
  1

  0
ENDBLK
  5
11A
330
118
100
AcDbEntity
 67
     1
  8
0
100
AcDbBlockEnd
  0
ENDSEC
  0
SECTION
  2
ENTITIES
  0
LINE
  5
29F
330
11C
100
AcDbEntity
  8
1
  6
Continuous
 62
     4
100
AcDbLine
 10
1199.992608299699
 20
525.1152512082935
 30
0.0
 11
535.8603038809832
 21
525.1152512082935
 31
0.0
  0
LINE
  5
2DF
330
11C
100
AcDbEntity
  8
1
  6
Continuous
 62
     4
100
AcDbLine
 10
857.7485090359095
 20
732.3500386146331
 30
0.0
 11
857.7485090359095
 21
935.9212562859196
 31
0.0
  0
LINE
  5
2E4
330
11C
100
AcDbEntity
  8
1
  6
Continuous
 62
     4
100
AcDbLine
 10
920.9583977832272
 20
734.1978223994735
 30
0.0
 11
920.9583977832272
 21
752.6710075288588
 31
0.0
  0
LINE
  5
2E5
330
11C
100
AcDbEntity
  8
1
  6
Continuous
 62
     4
100
AcDbLine
 10
794.5442683531854
 20
734.2080993760236
 30
0.0
 11
794.5442683531854
 21
752.676687476941
 31
0.0
  0
LINE
  5
2E6
330
11C
100
AcDbEntity
  8
1
  6
Continuous
 62
     4
100
AcDbLine
 10
1000.435986224622
 20
793.5400873092985
 30
0.0
 11
1055.202923864083
 21
734.4946877310713
 31
0.0
  0
LINE
  5
2E7
330
11C
100
AcDbEntity
  8
1
  6
Continuous
 62
     4
100
AcDbLine
 10
715.0610318471972
 20
793.5400873092985
 30
0.0
 11
660.2940942077347
 21
734.4946877310713
 31
0.0
  0
LINE
  5
3A0
330
11C
100
AcDbEntity
  8
1
  6
Continuous
 62
     4
100
AcDbLine
 10
857.7485090359095
 20
921.6387354516831
 30
0.0
 11
927.2642683531847
 21
918.4789282099895
 31
0.0
  0
LINE
  5
3A6
330
11C
100
AcDbEntity
  8
1
  6
Continuous
 62
     4
100
AcDbLine
 10
857.7485090359095
 20
871.0787354516831
 30
0.0
 11
927.2642683531854
 21
867.9189282099899
 31
0.0
  0
LINE
  5
3A7
330
11C
100
AcDbEntity
  8
1
  6
Continuous
 62
     4
100
AcDbLine
 10
857.7485090359095
 20
883.7187354516832
 30
0.0
 11
927.2642683531854
 21
880.5589282099898
 31
0.0
  0
LINE
  5
3A8
330
11C
100
AcDbEntity
  8
1
  6
Continuous
 62
     4
100
AcDbLine
 10
857.7485090359095
 20
896.358735451683
 30
0.0
 11
927.2642683531847
 21
893.1989282099896
 31
0.0
  0
LINE
  5
3A9
330
11C
100
AcDbEntity
  8
1
  6
Continuous
 62
     4
100
AcDbLine
 10
857.7485090359095
 20
908.9987354516825
 30
0.0
 11
927.2642683531847
 21
905.83892820999
 31
0.0
  0
LINE
  5
3D3
330
11C
100
AcDbEntity
  8
1
  6
Continuous
 62
     4
100
AcDbLine
 10
857.7485090359095
 20
858.4387354516833
 30
0.0
 11
927.2642683531854
 21
855.2789282099899
 31
0.0
  0
LINE
  5
403
330
11C
100
AcDbEntity
  8
1
  6
Continuous
 62
     4
100
AcDbLine
 10
857.7485090359095
 20
934.2787354516833
 30
0.0
 11
927.2642683531843
 21
931.1189282099896
 31
0.0
  0
LINE
  5
7C8
330
11C
100
AcDbEntity
  8
1
  6
Continuous
 62
     4
100
AcDbLine
 10
925.5003195717501
 20
932.8828769914238
 30
0.0
 11
928.5386988662455
 21
935.9212562859196
 31
0.0
1001
ACAD
1010
0.0
1020
0.0
1030
0.0
  0
LINE
  5
7C9
330
11C
100
AcDbEntity
  8
1
  6
Continuous
 62
     4
100
AcDbLine
 10
924.4836204306492
 20
921.259576132525
 30
0.0
 11
939.1453005840439
 21
935.9212562859196
 31
0.0
1001
ACAD
1010
0.0
1020
0.0
1030
0.0
  0
LINE
  5
7CA
330
11C
100
AcDbEntity
  8
1
  6
Continuous
 62
     4
100
AcDbLine
 10
923.4669212895488
 20
909.6362752736256
 30
0.0
 11
947.6145790166178
 21
933.7839330006952
 31
0.0
1001
ACAD
1010
0.0
1020
0.0
1030
0.0
  0
LINE
  5
7CC
330
11C
100
AcDbEntity
  8
1
  6
Continuous
 62
     4
100
AcDbLine
 10
922.4502221484476
 20
898.0129744147268
 30
0.0
 11
953.9304429533093
 21
929.4931952195888
 31
0.0
1001
ACAD
1010
0.0
1020
0.0
1030
0.0
  0
LINE
  5
7CD
330
11C
100
AcDbEntity
  8
1
  6
Continuous
 62
     4
100
AcDbLine
 10
921.4335230073473
 20
886.3896735558277
 30
0.0
 11
957.972892894149
 21
922.9290434426296
 31
0.0
1001
ACAD
1010
0.0
1020
0.0
1030
0.0
  0
LINE
  5
7CE
330
11C
100
AcDbEntity
  8
1
  6
Continuous
 62
     4
100
AcDbLine
 10
926.7368238662466
 20
881.0863726969287
 30
0.0
 11
961.5707755318316
 21
915.9203243625141
 31
0.0
1001
ACAD
1010
0.0
1020
0.0
1030
0.0
  0
LINE
  5
7CF
330
11C
100
AcDbEntity
  8
1
  6
Continuous
 62
     4
100
AcDbLine
 10
925.7201247251455
 20
869.4630718380292
 30
0.0
 11
965.1686581695143
 21
908.9116052823984
 31
0.0
1001
ACAD
1010
0.0
1020
0.0
1030
0.0
  0
LINE
  5
7D0
330
11C
100
AcDbEntity
  8
1
  6
Continuous
 62
     4
100
AcDbLine
 10
924.7034255840443
 20
857.8397709791302
 30
0.0
 11
968.7665408071966
 21
901.9028862022826
 31
0.0
1001
ACAD
1010
0.0
1020
0.0
1030
0.0
  0
LINE
  5
7D1
330
11C
100
AcDbEntity
  8
1
  6
Continuous
 62
     4
100
AcDbLine
 10
920.9527497186336
 20
843.4824933959209
 30
0.0
 11
972.3644234448793
 21
894.8941671221669
 31
0.0
1001
ACAD
1010
0.0
1020
0.0
1030
0.0
  0
LINE
  5
7D2
330
11C
100
AcDbEntity
  8
1
  6
Continuous
 62
     4
100
AcDbLine
 10
920.9527497186336
 20
832.8758916781227
 30
0.0
 11
975.9623060825624
 21
887.8854480420514
 31
0.0
1001
ACAD
1010
0.0
1020
0.0
1030
0.0
  0
LINE
  5
7D3
330
11C
100
AcDbEntity
  8
1
  6
Continuous
 62
     4
100
AcDbLine
 10
920.9527497186336
 20
822.2692899603242
 30
0.0
 11
979.5601887202447
 21
880.8767289619357
 31
0.0
1001
ACAD
1010
0.0
1020
0.0
1030
0.0
  0
LINE
  5
7D4
330
11C
100
AcDbEntity
  8
1
  6
Continuous
 62
     4
100
AcDbLine
 10
920.9527497186336
 20
811.6626882425261
 30
0.0
 11
983.1580713579269
 21
873.8680098818196
 31
0.0
1001
ACAD
1010
0.0
1020
0.0
1030
0.0
  0
LINE
  5
7D5
330
11C
100
AcDbEntity
  8
1
  6
Continuous
 62
     4
100
AcDbLine
 10
920.9527497186336
 20
801.0560865247278
 30
0.0
 11
986.7559539956101
 21
866.8592908017043
 31
0.0
1001
ACAD
1010
0.0
1020
0.0
1030
0.0
  0
LINE
  5
7D6
330
11C
100
AcDbEntity
  8
1
  6
Continuous
 62
     4
100
AcDbLine
 10
920.9527497186336
 20
790.4494848069293
 30
0.0
 11
990.3538366332922
 21
859.8505717215884
 31
0.0
1001
ACAD
1010
0.0
1020
0.0
1030
0.0
  0
LINE
  5
7D7
330
11C
100
AcDbEntity
  8
1
  6
Continuous
 62
     4
100
AcDbLine
 10
920.9527497186336
 20
779.8428830891309
 30
0.0
 11
993.951719270975
 21
852.8418526414727
 31
0.0
1001
ACAD
1010
0.0
1020
0.0
1030
0.0
  0
LINE
  5
7D8
330
11C
100
AcDbEntity
  8
1
  6
Continuous
 62
     4
100
AcDbLine
 10
920.9527497186336
 20
769.2362813713327
 30
0.0
 11
997.5496019086577
 21
845.833133561357
 31
0.0
1001
ACAD
1010
0.0
1020
0.0
1030
0.0
  0
LINE
  5
7D9
330
11C
100
AcDbEntity
  8
1
  6
Continuous
 62
     4
100
AcDbLine
 10
920.9527497186336
 20
758.6296796535342
 30
0.0
 11
1000.435986224622
 21
838.1129161595234
 31
0.0
1001
ACAD
1010
0.0
1020
0.0
1030
0.0
  0
LINE
  5
7DA
330
11C
100
AcDbEntity
  8
1
  6
Continuous
 62
     4
100
AcDbLine
 10
925.5758271153018
 20
752.6461553324041
 30
0.0
 11
1000.435986224622
 21
827.5063144417249
 31
0.0
1001
ACAD
1010
0.0
1020
0.0
1030
0.0
  0
LINE
  5
7DB
330
11C
100
AcDbEntity
  8
1
  6
Continuous
 62
     4
100
AcDbLine
 10
936.1128393469543
 20
752.5765658462579
 30
0.0
 11
1000.435986224622
 21
816.8997127239265
 31
0.0
1001
ACAD
1010
0.0
1020
0.0
1030
0.0
  0
LINE
  5
7DC
330
11C
100
AcDbEntity
  8
1
  6
Continuous
 62
     4
100
AcDbLine
 10
952.2019434998274
 20
758.059068281333
 30
0.0
 11
1000.435986224622
 21
806.2931110061281
 31
0.0
1001
ACAD
1010
0.0
1020
0.0
1030
0.0
  0
LINE
  5
7DD
330
11C
100
AcDbEntity
  8
1
  6
Continuous
 62
     4
100
AcDbLine
 10
992.3178636598718
 20
787.5683867235792
 30
0.0
 11
1000.435986224622
 21
795.6865092883297
 31
0.0
1001
ACAD
1010
0.0
1020
0.0
1030
0.0
  0
LINE
  5
7DE
330
11C
100
AcDbEntity
  8
1
  6
Continuous
 62
     4
100
AcDbLine
 10
535.8630799019214
 20
728.4207051630176
 30
0.0
 11
541.937062469975
 21
734.4946877310713
 31
0.0
1001
ACAD
1010
0.0
1020
0.0
1030
0.0
  0
LINE
  5
7DF
330
11C
100
AcDbEntity
  8
1
  6
Continuous
 62
     4
100
AcDbLine
 10
535.8679252726918
 20
717.8189488159901
 30
0.0
 11
552.5436641877731
 21
734.4946877310711
 31
0.0
1001
ACAD
1010
0.0
1020
0.0
1030
0.0
  0
LINE
  5
7E0
330
11C
100
AcDbEntity
  8
1
  6
Continuous
 62
     4
100
AcDbLine
 10
535.8727706434629
 20
707.2171924689626
 30
0.0
 11
563.1502659055712
 21
734.494687731071
 31
0.0
1001
ACAD
1010
0.0
1020
0.0
1030
0.0
  0
LINE
  5
7E1
330
11C
100
AcDbEntity
  8
1
  6
Continuous
 62
     4
100
AcDbLine
 10
535.8776160142333
 20
696.6154361219349
 30
0.0
 11
573.7568676233695
 21
734.4946877310706
 31
0.0
1001
ACAD
1010
0.0
1020
0.0
1030
0.0
  0
LINE
  5
7E2
330
11C
100
AcDbEntity
  8
1
  6
Continuous
 62
     4
100
AcDbLine
 10
545.5702155397666
 20
695.7014339296697
 30
0.0
 11
584.3634693411677
 21
734.4946877310706
 31
0.0
1001
ACAD
1010
0.0
1020
0.0
1030
0.0
  0
LINE
  5
7E3
330
11C
100
AcDbEntity
  8
1
  6
Continuous
 62
     4
100
AcDbLine
 10
556.1768172575648
 20
695.7014339296697
 30
0.0
 11
594.9700710589659
 21
734.4946877310706
 31
0.0
1001
ACAD
1010
0.0
1020
0.0
1030
0.0
  0
LINE
  5
7E4
330
11C
100
AcDbEntity
  8
1
  6
Continuous
 62
     4
100
AcDbLine
 10
566.7834189753635
 20
695.7014339296697
 30
0.0
 11
605.5766727767641
 21
734.4946877310706
 31
0.0
1001
ACAD
1010
0.0
1020
0.0
1030
0.0
  0
LINE
  5
7E5
330
11C
100
AcDbEntity
  8
1
  6
Continuous
 62
     4
100
AcDbLine
 10
577.3900206931616
 20
695.7014339296697
 30
0.0
 11
616.1832744945622
 21
734.4946877310706
 31
0.0
1001
ACAD
1010
0.0
1020
0.0
1030
0.0
  0
LINE
  5
7E6
330
11C
100
AcDbEntity
  8
1
  6
Continuous
 62
     4
100
AcDbLine
 10
587.9966224109597
 20
695.7014339296697
 30
0.0
 11
626.7898762123602
 21
734.4946877310704
 31
0.0
1001
ACAD
1010
0.0
1020
0.0
1030
0.0
  0
LINE
  5
7E7
330
11C
100
AcDbEntity
  8
1
  6
Continuous
 62
     4
100
AcDbLine
 10
598.6032241287585
 20
695.7014339296697
 30
0.0
 11
637.3964779301591
 21
734.4946877310706
 31
0.0
1001
ACAD
1010
0.0
1020
0.0
1030
0.0
  0
LINE
  5
7E8
330
11C
100
AcDbEntity
  8
1
  6
Continuous
 62
     4
100
AcDbLine
 10
609.2098258465568
 20
695.7014339296697
 30
0.0
 11
648.0030796479572
 21
734.4946877310706
 31
0.0
1001
ACAD
1010
0.0
1020
0.0
1030
0.0
  0
LINE
  5
7E9
330
11C
100
AcDbEntity
  8
1
  6
Continuous
 62
     4
100
AcDbLine
 10
619.8164275643549
 20
695.7014339296697
 30
0.0
 11
658.6096813657555
 21
734.4946877310706
 31
0.0
1001
ACAD
1010
0.0
1020
0.0
1030
0.0
  0
LINE
  5
7EA
330
11C
100
AcDbEntity
  8
1
  6
Continuous
 62
     4
100
AcDbLine
 10
630.423029282153
 20
695.7014339296697
 30
0.0
 11
669.2162830835536
 21
734.4946877310706
 31
0.0
1001
ACAD
1010
0.0
1020
0.0
1030
0.0
  0
LINE
  5
7EB
330
11C
100
AcDbEntity
  8
1
  6
Continuous
 62
     4
100
AcDbLine
 10
641.0296309999512
 20
695.7014339296697
 30
0.0
 11
679.8228848013517
 21
734.4946877310704
 31
0.0
1001
ACAD
1010
0.0
1020
0.0
1030
0.0
  0
LINE
  5
7EC
330
11C
100
AcDbEntity
  8
1
  6
Continuous
 62
     4
100
AcDbLine
 10
651.6362327177497
 20
695.7014339296697
 30
0.0
 11
690.4294865191505
 21
734.4946877310706
 31
0.0
1001
ACAD
1010
0.0
1020
0.0
1030
0.0
  0
LINE
  5
7ED
330
11C
100
AcDbEntity
  8
1
  6
Continuous
 62
     4
100
AcDbLine
 10
662.242834435548
 20
695.7014339296697
 30
0.0
 11
701.0360882369487
 21
734.4946877310706
 31
0.0
1001
ACAD
1010
0.0
1020
0.0
1030
0.0
  0
LINE
  5
7EE
330
11C
100
AcDbEntity
  8
1
  6
Continuous
 62
     4
100
AcDbLine
 10
672.8494361533462
 20
695.7014339296697
 30
0.0
 11
711.6426899547469
 21
734.4946877310706
 31
0.0
1001
ACAD
1010
0.0
1020
0.0
1030
0.0
  0
LINE
  5
7EF
330
11C
100
AcDbEntity
  8
1
  6
Continuous
 62
     4
100
AcDbLine
 10
683.4560378711447
 20
695.7014339296697
 30
0.0
 11
722.249291672545
 21
734.4946877310706
 31
0.0
1001
ACAD
1010
0.0
1020
0.0
1030
0.0
  0
LINE
  5
7F0
330
11C
100
AcDbEntity
  8
1
  6
Continuous
 62
     4
100
AcDbLine
 10
694.062639588943
 20
695.7014339296697
 30
0.0
 11
732.8558933903433
 21
734.4946877310704
 31
0.0
1001
ACAD
1010
0.0
1020
0.0
1030
0.0
  0
LINE
  5
7F1
330
11C
100
AcDbEntity
  8
1
  6
Continuous
 62
     4
100
AcDbLine
 10
704.6692413067402
 20
695.7014339296687
 30
0.0
 11
743.4624951081412
 21
734.4946877310698
 31
0.0
1001
ACAD
1010
0.0
1020
0.0
1030
0.0
  0
LINE
  5
7F2
330
11C
100
AcDbEntity
  8
1
  6
Continuous
 62
     4
100
AcDbLine
 10
715.2758430245386
 20
695.7014339296687
 30
0.0
 11
754.0690968259394
 21
734.4946877310698
 31
0.0
1001
ACAD
1010
0.0
1020
0.0
1030
0.0
  0
LINE
  5
7F3
330
11C
100
AcDbEntity
  8
1
  6
Continuous
 62
     4
100
AcDbLine
 10
725.8824447423367
 20
695.7014339296687
 30
0.0
 11
764.6756985437377
 21
734.4946877310698
 31
0.0
1001
ACAD
1010
0.0
1020
0.0
1030
0.0
  0
LINE
  5
7F4
330
11C
100
AcDbEntity
  8
1
  6
Continuous
 62
     4
100
AcDbLine
 10
736.4890464601351
 20
695.7014339296687
 30
0.0
 11
775.2823002615359
 21
734.4946877310698
 31
0.0
1001
ACAD
1010
0.0
1020
0.0
1030
0.0
  0
LINE
  5
7F5
330
11C
100
AcDbEntity
  8
1
  6
Continuous
 62
     4
100
AcDbLine
 10
747.0956481779335
 20
695.7014339296687
 30
0.0
 11
785.8889019793341
 21
734.4946877310692
 31
0.0
1001
ACAD
1010
0.0
1020
0.0
1030
0.0
  0
LINE
  5
7F6
330
11C
100
AcDbEntity
  8
1
  6
Continuous
 62
     4
100
AcDbLine
 10
757.7022498957306
 20
695.7014339296677
 30
0.0
 11
794.4085090359102
 21
732.4076930698472
 31
0.0
1001
ACAD
1010
0.0
1020
0.0
1030
0.0
  0
LINE
  5
7F7
330
11C
100
AcDbEntity
  8
1
  6
Continuous
 62
     4
100
AcDbLine
 10
768.3088516135292
 20
695.7014339296677
 30
0.0
 11
794.4085090359102
 21
721.8010913520489
 31
0.0
1001
ACAD
1010
0.0
1020
0.0
1030
0.0
  0
LINE
  5
7F8
330
11C
100
AcDbEntity
  8
1
  6
Continuous
 62
     4
100
AcDbLine
 10
778.9154533313276
 20
695.7014339296677
 30
0.0
 11
794.4085090359102
 21
711.1944896342505
 31
0.0
1001
ACAD
1010
0.0
1020
0.0
1030
0.0
  0
LINE
  5
7F9
330
11C
100
AcDbEntity
  8
1
  6
Continuous
 62
     4
100
AcDbLine
 10
789.5220550491258
 20
695.7014339296677
 30
0.0
 11
794.4085090359102
 21
700.5878879164525
 31
0.0
1001
ACAD
1010
0.0
1020
0.0
1030
0.0
  0
LINE
  5
7FB
330
11C
100
AcDbEntity
  8
1
  6
Continuous
 62
     4
100
AcDbLine
 10
921.1085090359102
 20
728.4179291420797
 30
0.0
 11
927.1852676249016
 21
734.4946877310713
 31
0.0
1001
ACAD
1010
0.0
1020
0.0
1030
0.0
  0
LINE
  5
7FC
330
11C
100
AcDbEntity
  8
1
  6
Continuous
 62
     4
100
AcDbLine
 10
921.1085090359103
 20
717.8113274242819
 30
0.0
 11
937.7918693427
 21
734.4946877310713
 31
0.0
1001
ACAD
1010
0.0
1020
0.0
1030
0.0
  0
LINE
  5
7FD
330
11C
100
AcDbEntity
  8
1
  6
Continuous
 62
     4
100
AcDbLine
 10
921.1085090359102
 20
707.2047257064832
 30
0.0
 11
948.3984710604982
 21
734.4946877310713
 31
0.0
1001
ACAD
1010
0.0
1020
0.0
1030
0.0
  0
LINE
  5
7FE
330
11C
100
AcDbEntity
  8
1
  6
Continuous
 62
     4
100
AcDbLine
 10
921.1085090359102
 20
696.5981239886851
 30
0.0
 11
959.0050727782967
 21
734.4946877310713
 31
0.0
1001
ACAD
1010
0.0
1020
0.0
1030
0.0
  0
LINE
  5
7FF
330
11C
100
AcDbEntity
  8
1
  6
Continuous
 62
     4
100
AcDbLine
 10
930.5215553630956
 20
695.404568598072
 30
0.0
 11
969.6116744960956
 21
734.4946877310713
 31
0.0
1001
ACAD
1010
0.0
1020
0.0
1030
0.0
  0
LINE
  5
800
330
11C
100
AcDbEntity
  8
1
  6
Continuous
 62
     4
100
AcDbLine
 10
941.1281570808943
 20
695.404568598072
 30
0.0
 11
980.2182762138935
 21
734.4946877310713
 31
0.0
1001
ACAD
1010
0.0
1020
0.0
1030
0.0
  0
LINE
  5
801
330
11C
100
AcDbEntity
  8
1
  6
Continuous
 62
     4
100
AcDbLine
 10
951.7347587986922
 20
695.404568598072
 30
0.0
 11
990.8248779316917
 21
734.4946877310713
 31
0.0
1001
ACAD
1010
0.0
1020
0.0
1030
0.0
  0
LINE
  5
802
330
11C
100
AcDbEntity
  8
1
  6
Continuous
 62
     4
100
AcDbLine
 10
962.3413605164913
 20
695.404568598072
 30
0.0
 11
1001.43147964949
 21
734.4946877310713
 31
0.0
1001
ACAD
1010
0.0
1020
0.0
1030
0.0
  0
LINE
  5
803
330
11C
100
AcDbEntity
  8
1
  6
Continuous
 62
     4
100
AcDbLine
 10
972.9479622342891
 20
695.404568598072
 30
0.0
 11
1012.038081367289
 21
734.4946877310713
 31
0.0
1001
ACAD
1010
0.0
1020
0.0
1030
0.0
  0
LINE
  5
804
330
11C
100
AcDbEntity
  8
1
  6
Continuous
 62
     4
100
AcDbLine
 10
983.5545639520875
 20
695.404568598072
 30
0.0
 11
1022.644683085087
 21
734.4946877310713
 31
0.0
1001
ACAD
1010
0.0
1020
0.0
1030
0.0
  0
LINE
  5
805
330
11C
100
AcDbEntity
  8
1
  6
Continuous
 62
     4
100
AcDbLine
 10
994.161165669886
 20
695.404568598072
 30
0.0
 11
1033.251284802884
 21
734.4946877310713
 31
0.0
1001
ACAD
1010
0.0
1020
0.0
1030
0.0
  0
LINE
  5
806
330
11C
100
AcDbEntity
  8
1
  6
Continuous
 62
     4
100
AcDbLine
 10
1004.767767387684
 20
695.404568598072
 30
0.0
 11
1043.857886520684
 21
734.4946877310713
 31
0.0
1001
ACAD
1010
0.0
1020
0.0
1030
0.0
  0
LINE
  5
807
330
11C
100
AcDbEntity
  8
1
  6
Continuous
 62
     4
100
AcDbLine
 10
1015.374369105483
 20
695.404568598072
 30
0.0
 11
1054.464488238483
 21
734.4946877310713
 31
0.0
1001
ACAD
1010
0.0
1020
0.0
1030
0.0
  0
LINE
  5
808
330
11C
100
AcDbEntity
  8
1
  6
Continuous
 62
     4
100
AcDbLine
 10
1025.98097082328
 20
695.404568598072
 30
0.0
 11
1065.07108995628
 21
734.4946877310713
 31
0.0
1001
ACAD
1010
0.0
1020
0.0
1030
0.0
  0
LINE
  5
809
330
11C
100
AcDbEntity
  8
1
  6
Continuous
 62
     4
100
AcDbLine
 10
1036.58757254108
 20
695.404568598072
 30
0.0
 11
1075.677691674078
 21
734.4946877310713
 31
0.0
1001
ACAD
1010
0.0
1020
0.0
1030
0.0
  0
LINE
  5
80A
330
11C
100
AcDbEntity
  8
1
  6
Continuous
 62
     4
100
AcDbLine
 10
1047.194174258878
 20
695.404568598072
 30
0.0
 11
1086.284293391875
 21
734.4946877310713
 31
0.0
1001
ACAD
1010
0.0
1020
0.0
1030
0.0
  0
LINE
  5
80B
330
11C
100
AcDbEntity
  8
1
  6
Continuous
 62
     4
100
AcDbLine
 10
1057.800775976676
 20
695.404568598072
 30
0.0
 11
1096.890895109676
 21
734.4946877310713
 31
0.0
1001
ACAD
1010
0.0
1020
0.0
1030
0.0
  0
LINE
  5
80C
330
11C
100
AcDbEntity
  8
1
  6
Continuous
 62
     4
100
AcDbLine
 10
1068.407377694475
 20
695.404568598072
 30
0.0
 11
1107.497496827474
 21
734.4946877310713
 31
0.0
1001
ACAD
1010
0.0
1020
0.0
1030
0.0
  0
LINE
  5
80D
330
11C
100
AcDbEntity
  8
1
  6
Continuous
 62
     4
100
AcDbLine
 10
1079.013979412271
 20
695.404568598072
 30
0.0
 11
1118.104098545273
 21
734.4946877310713
 31
0.0
1001
ACAD
1010
0.0
1020
0.0
1030
0.0
  0
LINE
  5
80E
330
11C
100
AcDbEntity
  8
1
  6
Continuous
 62
     4
100
AcDbLine
 10
1089.62058113007
 20
695.404568598072
 30
0.0
 11
1128.710700263071
 21
734.4946877310713
 31
0.0
1001
ACAD
1010
0.0
1020
0.0
1030
0.0
  0
LINE
  5
80F
330
11C
100
AcDbEntity
  8
1
  6
Continuous
 62
     4
100
AcDbLine
 10
1100.22718284787
 20
695.404568598072
 30
0.0
 11
1139.317301980868
 21
734.4946877310713
 31
0.0
1001
ACAD
1010
0.0
1020
0.0
1030
0.0
  0
LINE
  5
810
330
11C
100
AcDbEntity
  8
1
  6
Continuous
 62
     4
100
AcDbLine
 10
1110.833784565669
 20
695.404568598072
 30
0.0
 11
1149.923903698667
 21
734.4946877310713
 31
0.0
1001
ACAD
1010
0.0
1020
0.0
1030
0.0
  0
LINE
  5
811
330
11C
100
AcDbEntity
  8
1
  6
Continuous
 62
     4
100
AcDbLine
 10
1121.440386283466
 20
695.404568598072
 30
0.0
 11
1160.530505416466
 21
734.4946877310713
 31
0.0
1001
ACAD
1010
0.0
1020
0.0
1030
0.0
  0
LINE
  5
812
330
11C
100
AcDbEntity
  8
1
  6
Continuous
 62
     4
100
AcDbLine
 10
1132.046988001265
 20
695.404568598072
 30
0.0
 11
1171.137107134265
 21
734.4946877310713
 31
0.0
1001
ACAD
1010
0.0
1020
0.0
1030
0.0
  0
LINE
  5
813
330
11C
100
AcDbEntity
  8
1
  6
Continuous
 62
     4
100
AcDbLine
 10
1142.653589719064
 20
695.404568598072
 30
0.0
 11
1181.743708852063
 21
734.4946877310713
 31
0.0
1001
ACAD
1010
0.0
1020
0.0
1030
0.0
  0
LINE
  5
814
330
11C
100
AcDbEntity
  8
1
  6
Continuous
 62
     4
100
AcDbLine
 10
1153.26019143686
 20
695.404568598072
 30
0.0
 11
1192.350310569862
 21
734.4946877310713
 31
0.0
1001
ACAD
1010
0.0
1020
0.0
1030
0.0
  0
LINE
  5
815
330
11C
100
AcDbEntity
  8
1
  6
Continuous
 62
     4
100
AcDbLine
 10
1163.86679315466
 20
695.404568598072
 30
0.0
 11
1199.992608299699
 21
731.5303837431097
 31
0.0
1001
ACAD
1010
0.0
1020
0.0
1030
0.0
  0
LINE
  5
816
330
11C
100
AcDbEntity
  8
1
  6
Continuous
 62
     4
100
AcDbLine
 10
1174.473394872459
 20
695.404568598072
 30
0.0
 11
1199.992608299699
 21
720.9237820253117
 31
0.0
1001
ACAD
1010
0.0
1020
0.0
1030
0.0
  0
LINE
  5
817
330
11C
100
AcDbEntity
  8
1
  6
Continuous
 62
     4
100
AcDbLine
 10
1185.079996590258
 20
695.404568598072
 30
0.0
 11
1199.992608299699
 21
710.3171803075132
 31
0.0
1001
ACAD
1010
0.0
1020
0.0
1030
0.0
  0
LINE
  5
818
330
11C
100
AcDbEntity
  8
1
  6
Continuous
 62
     4
100
AcDbLine
 10
1195.686598308056
 20
695.404568598072
 30
0.0
 11
1199.992608299699
 21
699.7105785897153
 31
0.0
1001
ACAD
1010
0.0
1020
0.0
1030
0.0
  0
LINE
  5
81C
330
11C
100
AcDbEntity
  8
1
  6
Continuous
 62
     4
100
AcDbLine
 10
536.0887043615721
 20
346.5412686402397
 30
0.0
 11
542.162686929626
 21
352.6152512082934
 31
0.0
1001
ACAD
1010
0.0
1020
0.0
1030
0.0
  0
LINE
  5
81D
330
11C
100
AcDbEntity
  8
1
  6
Continuous
 62
     4
100
AcDbLine
 10
536.093549732343
 20
335.9395122932121
 30
0.0
 11
552.7692886474242
 21
352.6152512082934
 31
0.0
1001
ACAD
1010
0.0
1020
0.0
1030
0.0
  0
LINE
  5
81E
330
11C
100
AcDbEntity
  8
1
  6
Continuous
 62
     4
100
AcDbLine
 10
536.1123557349642
 20
325.3517165780355
 30
0.0
 11
563.3758903652224
 21
352.6152512082934
 31
0.0
1001
ACAD
1010
0.0
1020
0.0
1030
0.0
  0
LINE
  5
81F
330
11C
100
AcDbEntity
  8
1
  6
Continuous
 62
     4
100
AcDbLine
 10
536.1226270884326
 20
314.7553862137058
 30
0.0
 11
573.9824920830206
 21
352.6152512082934
 31
0.0
1001
ACAD
1010
0.0
1020
0.0
1030
0.0
  0
LINE
  5
820
330
11C
100
AcDbEntity
  8
1
  6
Continuous
 62
     4
100
AcDbLine
 10
545.7958399994172
 20
313.821997406892
 30
0.0
 11
584.5890938008188
 21
352.6152512082934
 31
0.0
1001
ACAD
1010
0.0
1020
0.0
1030
0.0
  0
LINE
  5
821
330
11C
100
AcDbEntity
  8
1
  6
Continuous
 62
     4
100
AcDbLine
 10
556.4024417172153
 20
313.821997406892
 30
0.0
 11
595.1956955186167
 21
352.6152512082934
 31
0.0
1001
ACAD
1010
0.0
1020
0.0
1030
0.0
  0
LINE
  5
822
330
11C
100
AcDbEntity
  8
1
  6
Continuous
 62
     4
100
AcDbLine
 10
567.0090434350136
 20
313.821997406892
 30
0.0
 11
605.8022972364151
 21
352.6152512082934
 31
0.0
1001
ACAD
1010
0.0
1020
0.0
1030
0.0
  0
LINE
  5
823
330
11C
100
AcDbEntity
  8
1
  6
Continuous
 62
     4
100
AcDbLine
 10
577.6156451528116
 20
313.821997406892
 30
0.0
 11
616.4088989542132
 21
352.6152512082934
 31
0.0
1001
ACAD
1010
0.0
1020
0.0
1030
0.0
  0
LINE
  5
824
330
11C
100
AcDbEntity
  8
1
  6
Continuous
 62
     4
100
AcDbLine
 10
588.22224687061
 20
313.821997406892
 30
0.0
 11
627.0155006720115
 21
352.6152512082934
 31
0.0
1001
ACAD
1010
0.0
1020
0.0
1030
0.0
  0
LINE
  5
825
330
11C
100
AcDbEntity
  8
1
  6
Continuous
 62
     4
100
AcDbLine
 10
598.8288485884083
 20
313.821997406892
 30
0.0
 11
637.6221023898096
 21
352.6152512082934
 31
0.0
1001
ACAD
1010
0.0
1020
0.0
1030
0.0
  0
LINE
  5
826
330
11C
100
AcDbEntity
  8
1
  6
Continuous
 62
     4
100
AcDbLine
 10
609.4354503062064
 20
313.821997406892
 30
0.0
 11
648.2287041076078
 21
352.6152512082934
 31
0.0
1001
ACAD
1010
0.0
1020
0.0
1030
0.0
  0
LINE
  5
827
330
11C
100
AcDbEntity
  8
1
  6
Continuous
 62
     4
100
AcDbLine
 10
620.0420520240045
 20
313.821997406892
 30
0.0
 11
658.835305825406
 21
352.6152512082934
 31
0.0
1001
ACAD
1010
0.0
1020
0.0
1030
0.0
  0
LINE
  5
828
330
11C
100
AcDbEntity
  8
1
  6
Continuous
 62
     4
100
AcDbLine
 10
630.6486537418027
 20
313.821997406892
 30
0.0
 11
669.4419075432042
 21
352.6152512082934
 31
0.0
1001
ACAD
1010
0.0
1020
0.0
1030
0.0
  0
LINE
  5
829
330
11C
100
AcDbEntity
  8
1
  6
Continuous
 62
     4
100
AcDbLine
 10
641.2552554596008
 20
313.821997406892
 30
0.0
 11
680.0485092610023
 21
352.6152512082935
 31
0.0
1001
ACAD
1010
0.0
1020
0.0
1030
0.0
  0
LINE
  5
82A
330
11C
100
AcDbEntity
  8
1
  6
Continuous
 62
     4
100
AcDbLine
 10
651.8618571773989
 20
313.821997406892
 30
0.0
 11
690.6551109788006
 21
352.6152512082935
 31
0.0
1001
ACAD
1010
0.0
1020
0.0
1030
0.0
  0
LINE
  5
82B
330
11C
100
AcDbEntity
  8
1
  6
Continuous
 62
     4
100
AcDbLine
 10
662.4684588951972
 20
313.821997406892
 30
0.0
 11
701.2617126965988
 21
352.6152512082935
 31
0.0
1001
ACAD
1010
0.0
1020
0.0
1030
0.0
  0
LINE
  5
82C
330
11C
100
AcDbEntity
  8
1
  6
Continuous
 62
     4
100
AcDbLine
 10
673.0750606129952
 20
313.8219974068921
 30
0.0
 11
711.868314414397
 21
352.6152512082935
 31
0.0
1001
ACAD
1010
0.0
1020
0.0
1030
0.0
  0
LINE
  5
82D
330
11C
100
AcDbEntity
  8
1
  6
Continuous
 62
     4
100
AcDbLine
 10
683.6816623307936
 20
313.8219974068921
 30
0.0
 11
722.4749161321953
 21
352.6152512082935
 31
0.0
1001
ACAD
1010
0.0
1020
0.0
1030
0.0
  0
LINE
  5
82E
330
11C
100
AcDbEntity
  8
1
  6
Continuous
 62
     4
100
AcDbLine
 10
694.2882640485917
 20
313.8219974068921
 30
0.0
 11
733.0815178499932
 21
352.6152512082935
 31
0.0
1001
ACAD
1010
0.0
1020
0.0
1030
0.0
  0
LINE
  5
82F
330
11C
100
AcDbEntity
  8
1
  6
Continuous
 62
     4
100
AcDbLine
 10
704.8948657663901
 20
313.8219974068921
 30
0.0
 11
743.6881195677914
 21
352.6152512082936
 31
0.0
1001
ACAD
1010
0.0
1020
0.0
1030
0.0
  0
LINE
  5
830
330
11C
100
AcDbEntity
  8
1
  6
Continuous
 62
     4
100
AcDbLine
 10
715.5014674841882
 20
313.8219974068921
 30
0.0
 11
754.2947212855897
 21
352.6152512082936
 31
0.0
1001
ACAD
1010
0.0
1020
0.0
1030
0.0
  0
LINE
  5
831
330
11C
100
AcDbEntity
  8
1
  6
Continuous
 62
     4
100
AcDbLine
 10
726.1080692019864
 20
313.8219974068921
 30
0.0
 11
764.9013230033879
 21
352.6152512082936
 31
0.0
1001
ACAD
1010
0.0
1020
0.0
1030
0.0
  0
LINE
  5
832
330
11C
100
AcDbEntity
  8
1
  6
Continuous
 62
     4
100
AcDbLine
 10
736.7146709197847
 20
313.8219974068921
 30
0.0
 11
775.5079247211861
 21
352.6152512082936
 31
0.0
1001
ACAD
1010
0.0
1020
0.0
1030
0.0
  0
LINE
  5
833
330
11C
100
AcDbEntity
  8
1
  6
Continuous
 62
     4
100
AcDbLine
 10
747.3212726375827
 20
313.8219974068921
 30
0.0
 11
786.1145264389842
 21
352.6152512082936
 31
0.0
1001
ACAD
1010
0.0
1020
0.0
1030
0.0
  0
LINE
  5
834
330
11C
100
AcDbEntity
  8
1
  6
Continuous
 62
     4
100
AcDbLine
 10
757.9278743553807
 20
313.8219974068921
 30
0.0
 11
796.7211281567822
 21
352.6152512082936
 31
0.0
1001
ACAD
1010
0.0
1020
0.0
1030
0.0
  0
LINE
  5
835
330
11C
100
AcDbEntity
  8
1
  6
Continuous
 62
     4
100
AcDbLine
 10
768.5344760731791
 20
313.8219974068921
 30
0.0
 11
807.3277298745805
 21
352.6152512082936
 31
0.0
1001
ACAD
1010
0.0
1020
0.0
1030
0.0
  0
LINE
  5
836
330
11C
100
AcDbEntity
  8
1
  6
Continuous
 62
     4
100
AcDbLine
 10
779.1410777909772
 20
313.8219974068921
 30
0.0
 11
817.9343315923787
 21
352.6152512082936
 31
0.0
1001
ACAD
1010
0.0
1020
0.0
1030
0.0
  0
LINE
  5
837
330
11C
100
AcDbEntity
  8
1
  6
Continuous
 62
     4
100
AcDbLine
 10
789.7476795087754
 20
313.8219974068921
 30
0.0
 11
828.5409333101766
 21
352.6152512082936
 31
0.0
1001
ACAD
1010
0.0
1020
0.0
1030
0.0
  0
LINE
  5
838
330
11C
100
AcDbEntity
  8
1
  6
Continuous
 62
     4
100
AcDbLine
 10
800.3542812265736
 20
313.8219974068921
 30
0.0
 11
839.1475350279751
 21
352.6152512082936
 31
0.0
1001
ACAD
1010
0.0
1020
0.0
1030
0.0
  0
LINE
  5
839
330
11C
100
AcDbEntity
  8
1
  6
Continuous
 62
     4
100
AcDbLine
 10
810.9608829443716
 20
313.8219974068921
 30
0.0
 11
849.7541367457733
 21
352.6152512082936
 31
0.0
1001
ACAD
1010
0.0
1020
0.0
1030
0.0
  0
LINE
  5
83A
330
11C
100
AcDbEntity
  8
1
  6
Continuous
 62
     4
100
AcDbLine
 10
821.5674846621698
 20
313.8219974068921
 30
0.0
 11
860.3607384635715
 21
352.6152512082936
 31
0.0
1001
ACAD
1010
0.0
1020
0.0
1030
0.0
  0
LINE
  5
83B
330
11C
100
AcDbEntity
  8
1
  6
Continuous
 62
     4
100
AcDbLine
 10
832.1740863799682
 20
313.8219974068921
 30
0.0
 11
870.9673401813697
 21
352.6152512082936
 31
0.0
1001
ACAD
1010
0.0
1020
0.0
1030
0.0
  0
LINE
  5
83C
330
11C
100
AcDbEntity
  8
1
  6
Continuous
 62
     4
100
AcDbLine
 10
842.7806880977664
 20
313.8219974068921
 30
0.0
 11
881.5739418991679
 21
352.6152512082936
 31
0.0
1001
ACAD
1010
0.0
1020
0.0
1030
0.0
  0
LINE
  5
83D
330
11C
100
AcDbEntity
  8
1
  6
Continuous
 62
     4
100
AcDbLine
 10
853.3872898155646
 20
313.8219974068921
 30
0.0
 11
892.1805436169661
 21
352.6152512082936
 31
0.0
1001
ACAD
1010
0.0
1020
0.0
1030
0.0
  0
LINE
  5
83E
330
11C
100
AcDbEntity
  8
1
  6
Continuous
 62
     4
100
AcDbLine
 10
863.9938915333628
 20
313.8219974068923
 30
0.0
 11
902.7871453347644
 21
352.6152512082936
 31
0.0
1001
ACAD
1010
0.0
1020
0.0
1030
0.0
  0
LINE
  5
83F
330
11C
100
AcDbEntity
  8
1
  6
Continuous
 62
     4
100
AcDbLine
 10
874.600493251161
 20
313.8219974068923
 30
0.0
 11
913.3937470525623
 21
352.6152512082936
 31
0.0
1001
ACAD
1010
0.0
1020
0.0
1030
0.0
  0
LINE
  5
840
330
11C
100
AcDbEntity
  8
1
  6
Continuous
 62
     4
100
AcDbLine
 10
885.2070949689592
 20
313.8219974068923
 30
0.0
 11
924.0003487703607
 21
352.6152512082936
 31
0.0
1001
ACAD
1010
0.0
1020
0.0
1030
0.0
  0
LINE
  5
841
330
11C
100
AcDbEntity
  8
1
  6
Continuous
 62
     4
100
AcDbLine
 10
895.8136966867574
 20
313.8219974068923
 30
0.0
 11
934.6069504881587
 21
352.6152512082938
 31
0.0
1001
ACAD
1010
0.0
1020
0.0
1030
0.0
  0
LINE
  5
842
330
11C
100
AcDbEntity
  8
1
  6
Continuous
 62
     4
100
AcDbLine
 10
906.4202984045556
 20
313.8219974068923
 30
0.0
 11
945.213552205957
 21
352.6152512082938
 31
0.0
1001
ACAD
1010
0.0
1020
0.0
1030
0.0
  0
LINE
  5
843
330
11C
100
AcDbEntity
  8
1
  6
Continuous
 62
     4
100
AcDbLine
 10
917.0269001223537
 20
313.8219974068923
 30
0.0
 11
955.8201539237552
 21
352.6152512082938
 31
0.0
1001
ACAD
1010
0.0
1020
0.0
1030
0.0
  0
LINE
  5
844
330
11C
100
AcDbEntity
  8
1
  6
Continuous
 62
     4
100
AcDbLine
 10
927.6335018401519
 20
313.8219974068923
 30
0.0
 11
966.4267556415532
 21
352.6152512082936
 31
0.0
1001
ACAD
1010
0.0
1020
0.0
1030
0.0
  0
LINE
  5
845
330
11C
100
AcDbEntity
  8
1
  6
Continuous
 62
     4
100
AcDbLine
 10
938.24010355795
 20
313.8219974068923
 30
0.0
 11
977.0333573593516
 21
352.6152512082936
 31
0.0
1001
ACAD
1010
0.0
1020
0.0
1030
0.0
  0
LINE
  5
846
330
11C
100
AcDbEntity
  8
1
  6
Continuous
 62
     4
100
AcDbLine
 10
948.8467052757485
 20
313.8219974068923
 30
0.0
 11
987.6399590771498
 21
352.6152512082936
 31
0.0
1001
ACAD
1010
0.0
1020
0.0
1030
0.0
  0
LINE
  5
847
330
11C
100
AcDbEntity
  8
1
  6
Continuous
 62
     4
100
AcDbLine
 10
959.4533069935463
 20
313.8219974068923
 30
0.0
 11
998.246560794948
 21
352.6152512082938
 31
0.0
1001
ACAD
1010
0.0
1020
0.0
1030
0.0
  0
LINE
  5
848
330
11C
100
AcDbEntity
  8
1
  6
Continuous
 62
     4
100
AcDbLine
 10
970.0599087113443
 20
313.8219974068923
 30
0.0
 11
1008.853162512745
 21
352.6152512082938
 31
0.0
1001
ACAD
1010
0.0
1020
0.0
1030
0.0
  0
LINE
  5
849
330
11C
100
AcDbEntity
  8
1
  6
Continuous
 62
     4
100
AcDbLine
 10
980.6665104291427
 20
313.8219974068923
 30
0.0
 11
1019.459764230544
 21
352.6152512082938
 31
0.0
1001
ACAD
1010
0.0
1020
0.0
1030
0.0
  0
LINE
  5
84A
330
11C
100
AcDbEntity
  8
1
  6
Continuous
 62
     4
100
AcDbLine
 10
991.2731121469407
 20
313.8219974068923
 30
0.0
 11
1030.066365948342
 21
352.6152512082938
 31
0.0
1001
ACAD
1010
0.0
1020
0.0
1030
0.0
  0
LINE
  5
84B
330
11C
100
AcDbEntity
  8
1
  6
Continuous
 62
     4
100
AcDbLine
 10
1001.879713864739
 20
313.8219974068923
 30
0.0
 11
1040.672967666141
 21
352.6152512082938
 31
0.0
1001
ACAD
1010
0.0
1020
0.0
1030
0.0
  0
LINE
  5
84C
330
11C
100
AcDbEntity
  8
1
  6
Continuous
 62
     4
100
AcDbLine
 10
1012.486315582536
 20
313.8219974068923
 30
0.0
 11
1051.279569383939
 21
352.6152512082938
 31
0.0
1001
ACAD
1010
0.0
1020
0.0
1030
0.0
  0
LINE
  5
84D
330
11C
100
AcDbEntity
  8
1
  6
Continuous
 62
     4
100
AcDbLine
 10
1023.092917300334
 20
313.8219974068923
 30
0.0
 11
1061.886171101737
 21
352.6152512082938
 31
0.0
1001
ACAD
1010
0.0
1020
0.0
1030
0.0
  0
LINE
  5
84E
330
11C
100
AcDbEntity
  8
1
  6
Continuous
 62
     4
100
AcDbLine
 10
1033.699519018131
 20
313.8219974068923
 30
0.0
 11
1072.492772819535
 21
352.6152512082938
 31
0.0
1001
ACAD
1010
0.0
1020
0.0
1030
0.0
  0
LINE
  5
84F
330
11C
100
AcDbEntity
  8
1
  6
Continuous
 62
     4
100
AcDbLine
 10
1044.30612073593
 20
313.8219974068923
 30
0.0
 11
1083.099374537333
 21
352.6152512082938
 31
0.0
1001
ACAD
1010
0.0
1020
0.0
1030
0.0
  0
LINE
  5
850
330
11C
100
AcDbEntity
  8
1
  6
Continuous
 62
     4
100
AcDbLine
 10
1054.91272245373
 20
313.8219974068923
 30
0.0
 11
1093.705976255131
 21
352.6152512082938
 31
0.0
1001
ACAD
1010
0.0
1020
0.0
1030
0.0
  0
LINE
  5
851
330
11C
100
AcDbEntity
  8
1
  6
Continuous
 62
     4
100
AcDbLine
 10
1065.519324171528
 20
313.8219974068923
 30
0.0
 11
1104.31257797293
 21
352.6152512082938
 31
0.0
1001
ACAD
1010
0.0
1020
0.0
1030
0.0
  0
LINE
  5
852
330
11C
100
AcDbEntity
  8
1
  6
Continuous
 62
     4
100
AcDbLine
 10
1076.125925889326
 20
313.8219974068923
 30
0.0
 11
1114.919179690728
 21
352.6152512082938
 31
0.0
1001
ACAD
1010
0.0
1020
0.0
1030
0.0
  0
LINE
  5
853
330
11C
100
AcDbEntity
  8
1
  6
Continuous
 62
     4
100
AcDbLine
 10
1086.732527607124
 20
313.8219974068923
 30
0.0
 11
1125.525781408523
 21
352.6152512082938
 31
0.0
1001
ACAD
1010
0.0
1020
0.0
1030
0.0
  0
LINE
  5
854
330
11C
100
AcDbEntity
  8
1
  6
Continuous
 62
     4
100
AcDbLine
 10
1097.339129324921
 20
313.8219974068923
 30
0.0
 11
1136.132383126324
 21
352.6152512082938
 31
0.0
1001
ACAD
1010
0.0
1020
0.0
1030
0.0
  0
LINE
  5
855
330
11C
100
AcDbEntity
  8
1
  6
Continuous
 62
     4
100
AcDbLine
 10
1107.94573104272
 20
313.8219974068923
 30
0.0
 11
1146.738984844122
 21
352.6152512082938
 31
0.0
1001
ACAD
1010
0.0
1020
0.0
1030
0.0
  0
LINE
  5
856
330
11C
100
AcDbEntity
  8
1
  6
Continuous
 62
     4
100
AcDbLine
 10
1118.552332760518
 20
313.8219974068923
 30
0.0
 11
1157.345586561919
 21
352.6152512082938
 31
0.0
1001
ACAD
1010
0.0
1020
0.0
1030
0.0
  0
LINE
  5
857
330
11C
100
AcDbEntity
  8
1
  6
Continuous
 62
     4
100
AcDbLine
 10
1129.158934478317
 20
313.8219974068923
 30
0.0
 11
1167.952188279719
 21
352.6152512082938
 31
0.0
1001
ACAD
1010
0.0
1020
0.0
1030
0.0
  0
LINE
  5
858
330
11C
100
AcDbEntity
  8
1
  6
Continuous
 62
     4
100
AcDbLine
 10
1139.765536196114
 20
313.8219974068923
 30
0.0
 11
1178.558789997516
 21
352.6152512082938
 31
0.0
1001
ACAD
1010
0.0
1020
0.0
1030
0.0
  0
LINE
  5
859
330
11C
100
AcDbEntity
  8
1
  6
Continuous
 62
     4
100
AcDbLine
 10
1150.372137913912
 20
313.8219974068923
 30
0.0
 11
1189.165391715313
 21
352.6152512082938
 31
0.0
1001
ACAD
1010
0.0
1020
0.0
1030
0.0
  0
LINE
  5
85A
330
11C
100
AcDbEntity
  8
1
  6
Continuous
 62
     4
100
AcDbLine
 10
1160.978739631711
 20
313.8219974068923
 30
0.0
 11
1199.771993433113
 21
352.6152512082938
 31
0.0
1001
ACAD
1010
0.0
1020
0.0
1030
0.0
  0
LINE
  5
85B
330
11C
100
AcDbEntity
  8
1
  6
Continuous
 62
     4
100
AcDbLine
 10
1171.585341349508
 20
313.8219974068923
 30
0.0
 11
1199.992608299699
 21
342.2292643570816
 31
0.0
1001
ACAD
1010
0.0
1020
0.0
1030
0.0
  0
LINE
  5
85C
330
11C
100
AcDbEntity
  8
1
  6
Continuous
 62
     4
100
AcDbLine
 10
1182.191943067308
 20
313.8219974068925
 30
0.0
 11
1199.992608299699
 21
331.6226626392833
 31
0.0
1001
ACAD
1010
0.0
1020
0.0
1030
0.0
  0
LINE
  5
85D
330
11C
100
AcDbEntity
  8
1
  6
Continuous
 62
     4
100
AcDbLine
 10
1192.798544785106
 20
313.8219974068925
 30
0.0
 11
1199.992608299699
 21
321.0160609214856
 31
0.0
1001
ACAD
1010
0.0
1020
0.0
1030
0.0
  0
LINE
  5
862
330
11C
100
AcDbEntity
  8
1
  6
Continuous
 62
     7
100
AcDbLine
 10
535.8603038809832
 20
734.4946877310713
 30
0.0
 11
535.9903038809838
 21
450.0524045017033
 31
0.0
  0
LINE
  5
863
330
11C
100
AcDbEntity
  8
1
  6
Continuous
 62
     7
100
AcDbLine
 10
1199.992608299699
 20
599.1519048646347
 30
0.0
 11
1199.992608299699
 21
313.821997406892
 31
0.0
  0
LINE
  5
864
330
11C
100
AcDbEntity
  8
1
  6
Continuous
 62
     3
100
AcDbLine
 10
794.4085090359102
 20
686.7014339296697
 30
0.0
 11
794.4085090359102
 21
539.3346877310707
 31
0.0
  0
LINE
  5
865
330
11C
100
AcDbEntity
  8
1
  6
Continuous
 62
     3
100
AcDbLine
 10
921.1085090359102
 20
686.7014339296697
 30
0.0
 11
921.1085090359102
 21
539.3346877310707
 31
0.0
  0
LINE
  5
866
330
11C
100
AcDbEntity
  8
1
  6
Continuous
 62
     3
100
AcDbLine
 10
1384.677678404641
 20
700.0547412286103
 30
0.0
 11
1384.677678404641
 21
548.8277512082937
 31
0.0
  0
LINE
  5
867
330
11C
100
AcDbEntity
  8
1
  6
Continuous
 62
     7
100
AcDbLine
 10
1200.012115467214
 20
313.8219974068921
 30
0.0
 11
535.8798110484999
 21
313.821997406892
 31
0.0
  0
LINE
  5
868
330
11C
100
AcDbEntity
  8
1
  6
Continuous
 62
     7
100
AcDbLine
 10
1199.992608299699
 20
352.6152512082938
 30
0.0
 11
535.8603038809832
 21
352.6152512082934
 31
0.0
  0
LINE
  5
869
330
11C
100
AcDbEntity
  8
1
  6
Continuous
 62
     7
100
AcDbLine
 10
536.0103038809833
 20
430.632404501703
 30
0.0
 11
536.1235318513108
 21
313.821997406892
 31
0.0
  0
LINE
  5
86A
330
11C
100
AcDbEntity
  8
1
  6
Continuous
 62
     7
100
AcDbLine
 10
521.6503038809836
 20
434.942404501703
 30
0.0
 11
536.0103038809833
 21
430.632404501703
 31
0.0
  0
LINE
  5
86B
330
11C
100
AcDbEntity
  8
1
  6
Continuous
 62
     7
100
AcDbLine
 10
548.8503038809835
 20
444.5424045017031
 30
0.0
 11
521.6503038809836
 21
434.942404501703
 31
0.0
  0
LINE
  5
86C
330
11C
100
AcDbEntity
  8
1
  6
Continuous
 62
     7
100
AcDbLine
 10
535.9903038809838
 20
450.0524045017033
 30
0.0
 11
548.8503038809835
 21
444.5424045017031
 31
0.0
  0
LINE
  5
86D
330
11C
100
AcDbEntity
  8
1
  6
Continuous
 62
     3
100
AcDbLine
 10
897.3960090359101
 20
548.3346877310707
 30
0.0
 11
818.1210090359105
 21
548.3346877310707
 31
0.0
  0
LINE
  5
86E
330
11C
100
AcDbEntity
  8
1
  6
Continuous
 62
     3
100
AcDbLine
 10
1393.677678404641
 20
525.1152512082935
 30
0.0
 11
1208.992608299699
 21
525.1152512082935
 31
0.0
  0
LINE
  5
86F
330
11C
100
AcDbEntity
  8
1
  6
Continuous
 62
     7
100
AcDbLine
 10
794.4085090359102
 20
695.7014339296697
 30
0.0
 11
535.8889449702282
 21
695.7014339296697
 31
0.0
  0
LINE
  5
870
330
11C
100
AcDbEntity
  8
1
  6
Continuous
 62
     7
100
AcDbLine
 10
794.4085090359102
 20
734.4946877310713
 30
0.0
 11
535.8603038809832
 21
734.4946877310713
 31
0.0
  0
LINE
  5
871
330
11C
100
AcDbEntity
  8
1
  6
Continuous
 62
     7
100
AcDbLine
 10
920.9527497186336
 20
752.676687476941
 30
0.0
 11
920.9527497186336
 21
848.9589282099895
 31
0.0
  0
LINE
  5
872
330
11C
100
AcDbEntity
  8
1
  6
Continuous
 62
     7
100
AcDbLine
 10
1000.435986224622
 20
840.2104218542076
 30
0.0
 11
954.9634988461011
 21
928.791379602022
 31
0.0
  0
LINE
  5
873
330
11C
100
AcDbEntity
  8
1
  6
Continuous
 62
     7
100
AcDbLine
 10
715.0610318471972
 20
840.2104218542076
 30
0.0
 11
760.5335192257179
 21
928.791379602022
 31
0.0
  0
LINE
  5
874
330
11C
100
AcDbEntity
  8
1
  6
Continuous
 62
     7
100
AcDbLine
 10
1199.992608299699
 20
695.404568598072
 30
0.0
 11
920.9870388724716
 21
695.404568598072
 31
0.0
  0
LINE
  5
875
330
11C
100
AcDbEntity
  8
1
  6
Continuous
 62
     7
100
AcDbLine
 10
1199.992608299699
 20
734.4946877310713
 30
0.0
 11
921.1085090359102
 21
734.4946877310713
 31
0.0
  0
ARC
  5
876
330
11C
100
AcDbEntity
  8
1
  6
Continuous
 62
     7
100
AcDbCircle
 10
857.7551752757948
 20
838.1868346608637
 30
0.0
 40
106.337218439241
100
AcDbArc
 50
233.527405518699
 51
306.46744573639
  0
ARC
  5
877
330
11C
100
AcDbEntity
  8
1
  6
Continuous
 62
     7
100
AcDbCircle
 10
857.7585090359097
 20
822.4724733910312
 30
0.0
 40
108.5662928599597
100
AcDbArc
 50
234.301889418009
 51
305.698110581991
  0
ARC
  5
878
330
11C
100
AcDbEntity
  8
1
  6
Continuous
 62
     7
100
AcDbCircle
 10
857.7585090359097
 20
790.3080889608452
 30
0.0
 40
113.8579910311751
100
AcDbArc
 50
236.1931544380208
 51
303.8068455619791
  0
LINE
  5
879
330
11C
100
AcDbEntity
  8
1
  6
Continuous
 62
     7
100
AcDbLine
 10
794.4085090359102
 20
695.7014339296697
 30
0.0
 11
794.4085090359102
 21
734.4946877310713
 31
0.0
  0
LINE
  5
87A
330
11C
100
AcDbEntity
  8
1
  6
Continuous
 62
     7
100
AcDbLine
 10
921.1085090359102
 20
695.7014339296697
 30
0.0
 11
921.1085090359102
 21
734.4946877310713
 31
0.0
  0
LINE
  5
87B
330
11C
100
AcDbEntity
  8
1
  6
Continuous
 62
     7
100
AcDbLine
 10
715.0610318471972
 20
793.5400873092985
 30
0.0
 11
857.7485090359095
 21
793.5400873092985
 31
0.0
  0
LINE
  5
87C
330
11C
100
AcDbEntity
  8
1
  6
Continuous
 62
     7
100
AcDbLine
 10
715.0610318471972
 20
840.2104218542076
 30
0.0
 11
857.7485090359095
 21
840.2104218542076
 31
0.0
  0
LINE
  5
87D
330
11C
100
AcDbEntity
  8
1
  6
Continuous
 62
     7
100
AcDbLine
 10
794.5442683531854
 20
851.153805488594
 30
0.0
 11
794.5442683531854
 21
825.7641375227867
 31
0.0
  0
LINE
  5
87E
330
11C
100
AcDbEntity
  8
1
  6
Continuous
 62
     7
100
AcDbLine
 10
715.0610318471972
 20
840.2104218542076
 30
0.0
 11
715.0610318471972
 21
793.5400873092985
 31
0.0
  0
LINE
  5
87F
330
11C
100
AcDbEntity
  8
1
  6
Continuous
 62
     7
100
AcDbLine
 10
770.8250103212137
 20
752.5200386146332
 30
0.0
 11
715.0610318471972
 21
793.5400873092985
 31
0.0
  0
LINE
  5
880
330
11C
100
AcDbEntity
  8
1
  6
Continuous
 62
     7
100
AcDbLine
 10
794.5442683531854
 20
805.4524019543475
 30
0.0
 11
794.5442683531854
 21
783.8711842830611
 31
0.0
  0
LINE
  5
881
330
11C
100
AcDbEntity
  8
1
  6
Continuous
 62
     7
100
AcDbLine
 10
770.8250103212137
 20
752.5200386146332
 30
0.0
 11
794.5442683531854
 21
752.676687476941
 31
0.0
  0
LINE
  5
882
330
11C
100
AcDbEntity
  8
1
  6
Continuous
 62
     7
100
AcDbLine
 10
794.5442683531854
 20
766.0984149133057
 30
0.0
 11
794.5442683531854
 21
752.676687476941
 31
0.0
  0
LINE
  5
883
330
11C
100
AcDbEntity
  8
1
  6
Continuous
 62
     7
100
AcDbLine
 10
1000.435986224622
 20
840.2104218542076
 30
0.0
 11
1000.435986224622
 21
793.5400873092985
 31
0.0
  0
LINE
  5
884
330
11C
100
AcDbEntity
  8
1
  6
Continuous
 62
     7
100
AcDbLine
 10
944.6720077506055
 20
752.5200386146332
 30
0.0
 11
1000.435986224622
 21
793.5400873092985
 31
0.0
  0
LINE
  5
885
330
11C
100
AcDbEntity
  8
1
  6
Continuous
 62
     7
100
AcDbLine
 10
944.6720077506055
 20
752.5200386146332
 30
0.0
 11
920.9527497186336
 21
752.676687476941
 31
0.0
  0
LINE
  5
886
330
11C
100
AcDbEntity
  8
1
  6
Continuous
 62
     7
100
AcDbLine
 10
1199.992608299699
 20
734.4946877310713
 30
0.0
 11
1199.992608299699
 21
618.561904864635
 31
0.0
  0
LINE
  5
887
330
11C
100
AcDbEntity
  8
1
  6
Continuous
 62
     7
100
AcDbLine
 10
1212.8526082997
 20
613.0519048646351
 30
0.0
 11
1185.652608299696
 21
603.4519048646352
 31
0.0
  0
LINE
  5
888
330
11C
100
AcDbEntity
  8
1
  6
Continuous
 62
     7
100
AcDbLine
 10
1185.652608299696
 20
603.4519048646352
 30
0.0
 11
1199.992608299699
 21
599.1519048646347
 31
0.0
  0
LINE
  5
889
330
11C
100
AcDbEntity
  8
1
  6
Continuous
 62
     7
100
AcDbLine
 10
1199.992608299699
 20
618.561904864635
 30
0.0
 11
1212.8526082997
 21
613.0519048646351
 31
0.0
  0
LINE
  5
88A
330
11C
100
AcDbEntity
  8
1
  6
Continuous
 62
     3
100
AcDbLine
 10
1384.677678404641
 20
912.2087562859196
 30
0.0
 11
1384.677678404641
 21
764.0547412286105
 31
0.0
  0
LINE
  5
88B
330
11C
100
AcDbEntity
  8
1
  6
Continuous
 62
     3
100
AcDbLine
 10
953.4684899879103
 20
935.9212562859196
 30
0.0
 11
1393.67767840464
 21
935.9212562859196
 31
0.0
  0
LINE
  5
88C
330
11C
100
AcDbEntity
  8
1
  6
Continuous
 62
     7
100
AcDbLine
 10
857.7485090359095
 20
928.791379602022
 30
0.0
 11
760.5335192257179
 21
928.791379602022
 31
0.0
  0
LINE
  5
88D
330
11C
100
AcDbEntity
  8
1
  6
Continuous
 62
     7
100
AcDbLine
 10
944.4684899879097
 20
935.9212562859196
 30
0.0
 11
771.0285280839086
 21
935.9212562859196
 31
0.0
  0
LINE
  5
88E
330
11C
100
AcDbEntity
  8
1
  6
Continuous
 62
     7
100
AcDbLine
 10
771.0285280839086
 20
935.9212562859196
 30
0.0
 11
760.5335192257179
 21
928.791379602022
 31
0.0
  0
LINE
  5
88F
330
11C
100
AcDbEntity
  8
1
  6
Continuous
 62
     7
100
AcDbLine
 10
944.4684899879103
 20
935.9212562859196
 30
0.0
 11
954.9634988461011
 21
928.791379602022
 31
0.0
  0
LINE
  5
890
330
11C
100
AcDbEntity
  8
1
  6
Continuous
 62
     7
100
AcDbLine
 10
927.2642683531847
 20
918.4789282099895
 30
0.0
 11
920.9442683531849
 21
924.7989282099895
 31
0.0
  0
LINE
  5
891
330
11C
100
AcDbEntity
  8
1
  6
Continuous
 62
     7
100
AcDbLine
 10
920.9442683531856
 20
861.5989282099894
 30
0.0
 11
857.7485090359095
 21
864.7587161758526
 31
0.0
  0
LINE
  5
892
330
11C
100
AcDbEntity
  8
1
  6
Continuous
 62
     7
100
AcDbLine
 10
857.7485090359095
 20
877.3987161758528
 30
0.0
 11
920.9442683531856
 21
874.2389282099898
 31
0.0
  0
LINE
  5
893
330
11C
100
AcDbEntity
  8
1
  6
Continuous
 62
     7
100
AcDbLine
 10
920.9442683531852
 20
886.8789282099895
 30
0.0
 11
857.7485090359095
 21
890.0387161758521
 31
0.0
  0
LINE
  5
894
330
11C
100
AcDbEntity
  8
1
  6
Continuous
 62
     7
100
AcDbLine
 10
857.7485090359095
 20
902.6787161758523
 30
0.0
 11
920.9442683531852
 21
899.5189282099893
 31
0.0
  0
LINE
  5
895
330
11C
100
AcDbEntity
  8
1
  6
Continuous
 62
     7
100
AcDbLine
 10
920.9442683531849
 20
912.1589282099893
 30
0.0
 11
857.7485090359095
 21
915.318716175852
 31
0.0
  0
LINE
  5
896
330
11C
100
AcDbEntity
  8
1
  6
Continuous
 62
     7
100
AcDbLine
 10
920.9442683531856
 20
861.5989282099894
 30
0.0
 11
927.2642683531854
 21
867.9189282099899
 31
0.0
  0
LINE
  5
897
330
11C
100
AcDbEntity
  8
1
  6
Continuous
 62
     7
100
AcDbLine
 10
927.2642683531847
 20
893.1989282099896
 30
0.0
 11
920.9442683531852
 21
899.5189282099893
 31
0.0
  0
LINE
  5
898
330
11C
100
AcDbEntity
  8
1
  6
Continuous
 62
     7
100
AcDbLine
 10
920.9442683531856
 20
874.2389282099898
 30
0.0
 11
927.2642683531854
 21
880.5589282099898
 31
0.0
  0
LINE
  5
899
330
11C
100
AcDbEntity
  8
1
  6
Continuous
 62
     7
100
AcDbLine
 10
927.2642683531854
 20
867.9189282099899
 30
0.0
 11
920.9442683531856
 21
874.2389282099898
 31
0.0
  0
LINE
  5
89A
330
11C
100
AcDbEntity
  8
1
  6
Continuous
 62
     7
100
AcDbLine
 10
927.2642683531854
 20
880.5589282099898
 30
0.0
 11
920.9442683531852
 21
886.8789282099895
 31
0.0
  0
LINE
  5
89B
330
11C
100
AcDbEntity
  8
1
  6
Continuous
 62
     7
100
AcDbLine
 10
920.9442683531852
 20
886.8789282099895
 30
0.0
 11
927.2642683531847
 21
893.1989282099896
 31
0.0
  0
LINE
  5
89C
330
11C
100
AcDbEntity
  8
1
  6
Continuous
 62
     7
100
AcDbLine
 10
920.9442683531849
 20
912.1589282099893
 30
0.0
 11
927.2642683531847
 21
918.4789282099895
 31
0.0
  0
LINE
  5
89D
330
11C
100
AcDbEntity
  8
1
  6
Continuous
 62
     7
100
AcDbLine
 10
927.2642683531847
 20
905.83892820999
 30
0.0
 11
920.9442683531849
 21
912.1589282099893
 31
0.0
  0
LINE
  5
89E
330
11C
100
AcDbEntity
  8
1
  6
Continuous
 62
     7
100
AcDbLine
 10
920.9442683531852
 20
899.5189282099893
 30
0.0
 11
927.2642683531847
 21
905.83892820999
 31
0.0
  0
LINE
  5
89F
330
11C
100
AcDbEntity
  8
1
  6
Continuous
 62
     7
100
AcDbLine
 10
857.7485090359095
 20
927.9587161758524
 30
0.0
 11
920.9442683531849
 21
924.7989282099895
 31
0.0
  0
LINE
  5
8A0
330
11C
100
AcDbEntity
  8
1
  6
Continuous
 62
     7
100
AcDbLine
 10
927.2642683531843
 20
931.1189282099896
 30
0.0
 11
922.4619402772541
 21
935.9212562859196
 31
0.0
  0
LINE
  5
8A1
330
11C
100
AcDbEntity
  8
1
  6
Continuous
 62
     7
100
AcDbLine
 10
920.9442683531849
 20
924.7989282099895
 30
0.0
 11
927.2642683531843
 21
931.1189282099896
 31
0.0
  0
LINE
  5
8A2
330
11C
100
AcDbEntity
  8
1
  6
Continuous
 62
     7
100
AcDbLine
 10
920.9442683531856
 20
848.9589282099895
 30
0.0
 11
857.7485090359095
 21
852.1187161758527
 31
0.0
  0
LINE
  5
8A3
330
11C
100
AcDbEntity
  8
1
  6
Continuous
 62
     7
100
AcDbLine
 10
857.7485090359095
 20
864.7587161758528
 30
0.0
 11
920.9442683531856
 21
861.5989282099899
 31
0.0
  0
LINE
  5
8A4
330
11C
100
AcDbEntity
  8
1
  6
Continuous
 62
     7
100
AcDbLine
 10
920.9442683531856
 20
848.9589282099895
 30
0.0
 11
927.2642683531854
 21
855.2789282099899
 31
0.0
  0
LINE
  5
8A5
330
11C
100
AcDbEntity
  8
1
  6
Continuous
 62
     7
100
AcDbLine
 10
927.2642683531854
 20
855.2789282099899
 30
0.0
 11
920.9442683531856
 21
861.5989282099899
 31
0.0
  0
LINE
  5
8A6
330
11C
100
AcDbEntity
  8
1
  6
Continuous
 62
     7
100
AcDbLine
 10
920.9442683531856
 20
861.5989282099899
 30
0.0
 11
927.2642683531854
 21
867.9189282099899
 31
0.0
  0
LINE
  5
8A7
330
11C
100
AcDbEntity
  8
1
  6
Continuous
 62
     7
100
AcDbLine
 10
794.5442683531854
 20
935.7284762337448
 30
0.0
 11
794.5442683531854
 21
910.3388082679375
 31
0.0
  0
LINE
  5
8A8
330
11C
100
AcDbEntity
  8
1
  6
Continuous
 62
     7
100
AcDbLine
 10
794.5442683531854
 20
890.0270726994982
 30
0.0
 11
794.5442683531854
 21
868.4458550282117
 31
0.0
  0
LINE
  5
8A9
330
11C
100
AcDbEntity
  8
-1
  6
Continuous
 62
     3
100
AcDbLine
 10
794.4085090359102
 20
548.3346877310707
 30
0.0
 11
818.1210090359105
 21
554.8909377310708
 31
0.0
  0
LINE
  5
8AA
330
11C
100
AcDbEntity
  8
-1
  6
Continuous
 62
     3
100
AcDbLine
 10
794.4085090359102
 20
548.3346877310707
 30
0.0
 11
818.1210090359105
 21
541.7784377310706
 31
0.0
  0
LINE
  5
8AB
330
11C
100
AcDbEntity
  8
-1
  6
Continuous
 62
     3
100
AcDbLine
 10
818.1210090359105
 20
541.7784377310706
 30
0.0
 11
818.1210090359105
 21
554.8909377310708
 31
0.0
  0
LINE
  5
8AC
330
11C
100
AcDbEntity
  8
-1
  6
Continuous
 62
     3
100
AcDbLine
 10
921.1085090359102
 20
548.3346877310707
 30
0.0
 11
897.3960090359101
 21
554.8909377310708
 31
0.0
  0
LINE
  5
8AD
330
11C
100
AcDbEntity
  8
-1
  6
Continuous
 62
     3
100
AcDbLine
 10
921.1085090359102
 20
548.3346877310707
 30
0.0
 11
897.3960090359101
 21
541.7784377310706
 31
0.0
  0
LINE
  5
8AE
330
11C
100
AcDbEntity
  8
-1
  6
Continuous
 62
     3
100
AcDbLine
 10
897.3960090359101
 20
541.7784377310706
 30
0.0
 11
897.3960090359101
 21
554.8909377310708
 31
0.0
  0
LINE
  5
8AF
330
11C
100
AcDbEntity
  8
1
  6
Continuous
 62
     3
100
AcDbLine
 10
1384.677678404639
 20
935.9212562859196
 30
0.0
 11
1391.233928404641
 21
912.2087562859196
 31
0.0
  0
LINE
  5
8B0
330
11C
100
AcDbEntity
  8
1
  6
Continuous
 62
     3
100
AcDbLine
 10
1384.677678404639
 20
935.9212562859196
 30
0.0
 11
1378.121428404639
 21
912.2087562859196
 31
0.0
  0
LINE
  5
8B1
330
11C
100
AcDbEntity
  8
1
  6
Continuous
 62
     3
100
AcDbLine
 10
1378.121428404639
 20
912.2087562859196
 30
0.0
 11
1391.233928404641
 21
912.2087562859196
 31
0.0
  0
LINE
  5
8B2
330
11C
100
AcDbEntity
  8
1
  6
Continuous
 62
     3
100
AcDbLine
 10
1384.677678404641
 20
525.1152512082935
 30
0.0
 11
1391.233928404642
 21
548.8277512082937
 31
0.0
  0
LINE
  5
8B3
330
11C
100
AcDbEntity
  8
1
  6
Continuous
 62
     3
100
AcDbLine
 10
1384.677678404641
 20
525.1152512082935
 30
0.0
 11
1378.121428404641
 21
548.8277512082937
 31
0.0
  0
LINE
  5
8B4
330
11C
100
AcDbEntity
  8
1
  6
Continuous
 62
     3
100
AcDbLine
 10
1378.121428404641
 20
548.8277512082937
 30
0.0
 11
1391.233928404642
 21
548.8277512082937
 31
0.0
  0
LINE
  5
8D1
330
11C
100
AcDbEntity
  8
1
  6
Continuous
 62
     5
100
AcDbLine
 10
1384.592543012063
 20
738.9233258838101
 30
0.0
 11
1393.592543012063
 21
738.9233258838101
 31
0.0
  0
LINE
  5
8D7
330
11C
100
AcDbEntity
  8
1
  6
Continuous
 62
     5
100
AcDbLine
 10
854.4663141394492
 20
569.5445633101695
 30
0.0
 11
864.4663141394493
 21
569.5445633101695
 31
0.0
  0
ENDSEC
  0
SECTION
  2
OBJECTS
  0
DICTIONARY
  5
10A
330
0
100
AcDbDictionary
281
     1
  3
ACAD_COLOR
350
504
  3
ACAD_GROUP
350
10B
  3
ACAD_LAYOUT
350
507
  3
ACAD_MATERIAL
350
4EF
  3
ACAD_MLINESTYLE
350
114
  3
ACAD_PLOTSETTINGS
350
116
  3
ACAD_PLOTSTYLENAME
350
10C
  3
ACAD_TABLESTYLE
350
505
  3
ACAD_VISUALSTYLE
350
4F3
  3
AcDbVariableDictionary
350
8B5
  3
DWGPROPS
350
8BA
  0
DICTIONARY
  5
50E
330
50D
100
AcDbDictionary
280
     1
281
     1
  3
ADSK_XREC_LAYER_RECONCILED
360
50F
  0
DICTIONARY
  5
511
330
510
100
AcDbDictionary
280
     1
281
     1
  0
DICTIONARY
  5
474
330
11C
100
AcDbDictionary
280
     1
281
     1
  3
ACAD_LAYOUTSELFREF
360
4EC
  3
ACAD_SORTENTS
360
7CB
  0
DICTIONARY
  5
472
330
118
100
AcDbDictionary
280
     1
281
     1
  3
ACAD_LAYOUTSELFREF
360
4EB
  0
DICTIONARY
  5
504
102
{ACAD_REACTORS
330
10A
102
}
330
10A
100
AcDbDictionary
281
     1
  0
DICTIONARY
  5
10B
102
{ACAD_REACTORS
330
10A
102
}
330
10A
100
AcDbDictionary
281
     1
  0
DICTIONARY
  5
507
102
{ACAD_REACTORS
330
10A
102
}
330
10A
100
AcDbDictionary
281
     1
  3
Layout1
350
509
  3
Model
350
508
  0
DICTIONARY
  5
4EF
102
{ACAD_REACTORS
330
10A
102
}
330
10A
100
AcDbDictionary
281
     1
  3
ByBlock
350
4F1
  3
ByLayer
350
4F0
  3
Global
350
4F2
  0
DICTIONARY
  5
114
102
{ACAD_REACTORS
330
10A
102
}
330
10A
100
AcDbDictionary
281
     1
  3
STANDARD
350
115
  0
DICTIONARY
  5
116
102
{ACAD_REACTORS
330
10A
102
}
330
10A
100
AcDbDictionary
281
     1
  0
ACDBDICTIONARYWDFLT
  5
10C
102
{ACAD_REACTORS
330
10A
102
}
330
10A
100
AcDbDictionary
281
     1
  3
Normal
350
10D
100
AcDbDictionaryWithDefault
340
10D
  0
DICTIONARY
  5
505
102
{ACAD_REACTORS
330
10A
102
}
330
10A
100
AcDbDictionary
281
     1
  3
Standard
350
506
  0
DICTIONARY
  5
4F3
102
{ACAD_REACTORS
330
10A
102
}
330
10A
100
AcDbDictionary
281
     1
  3
2dWireframe
350
4F9
  3
3D Hidden
350
4FB
  3
3dWireframe
350
4FA
  3
Basic
350
4F8
  3
Brighten
350
4FF
  3
ColorChange
350
503
  3
Conceptual
350
4FC
  3
Dim
350
4FE
  3
Facepattern
350
502
  3
Flat
350
4F4
  3
FlatWithEdges
350
4F5
  3
Gouraud
350
4F6
  3
GouraudWithEdges
350
4F7
  3
Linepattern
350
501
  3
Realistic
350
4FD
  3
Thicken
350
500
  0
DICTIONARY
  5
8B5
102
{ACAD_REACTORS
330
10A
102
}
330
10A
100
AcDbDictionary
281
     1
  3
CTABLESTYLE
350
8B6
  3
DIMASSOC
350
8B9
  3
INDEXCTL
350
8B8
  3
SORTENTS
350
8B7
  0
XRECORD
  5
8BA
102
{ACAD_REACTORS
330
10A
102
}
330
10A
100
AcDbXrecord
280
     1
  1
DWGPROPS COOKIE
  2

  3

  4

  6

  7

  8
Horia
  9

300
=
301
=
302
=
303
=
304
=
305
=
306
=
307
=
308
=
309
=
 40
0.0176571180555556
 41
2453375.510428241
 42
2456343.003586515
  1

 90
        0
  0
XRECORD
  5
50F
102
{ACAD_REACTORS
330
50E
102
}
330
50E
100
AcDbXrecord
280
     1
290
     1
  0
XRECORD
  5
4EC
102
{ACAD_REACTORS
330
474
102
}
330
474
100
AcDbXrecord
280
     1
340
11C
  0
SORTENTSTABLE
  5
7CB
102
{ACAD_REACTORS
330
474
102
}
330
474
100
AcDbSortentsTable
330
11C
331
815
  5
7C0
331
828
  5
7D1
331
84E
  5
7F7
331
7FD
  5
3AD
331
7EB
  5
31B
331
836
  5
7DF
331
82F
  5
7D8
331
804
  5
3B4
331
7F1
  5
3A0
331
83D
  5
7E6
331
850
  5
7F9
331
7DA
  5
2F8
331
81E
  5
7C6
331
857
  5
801
331
844
  5
7ED
331
80B
  5
3D9
331
7CE
  5
2DE
331
7E1
  5
303
331
812
  5
7BD
331
825
  5
7CE
331
84B
  5
7F4
331
7D5
  5
2E7
331
7E8
  5
312
331
833
  5
7DC
331
29F
  5
297
331
82C
  5
7D5
331
801
  5
3B1
331
7EF
  5
320
331
83A
  5
7E3
331
3A9
  5
2A5
331
808
  5
3D3
331
7F5
  5
3A4
331
841
  5
7EA
331
854
  5
7FE
331
7DE
  5
300
331
822
  5
7CA
331
80F
  5
429
331
848
  5
7F1
331
85B
  5
805
331
7D2
  5
2E4
331
7E5
  5
30D
331
830
  5
7D9
331
2E7
  5
29C
331
816
  5
7C1
331
829
  5
7D2
331
84F
  5
7F8
331
7FE
  5
3AE
331
7EC
  5
31C
331
837
  5
7E0
331
3A6
  5
2A0
331
851
  5
7FB
331
805
  5
3C3
331
818
  5
7C3
331
7F2
  5
3A1
331
83E
  5
7E7
331
7C8
  5
2CE
331
7DB
  5
2FD
331
81F
  5
7C7
331
80C
  5
3DC
331
845
  5
7EE
331
858
  5
802
331
7CF
  5
2DF
331
7E2
  5
304
331
2E4
  5
299
331
813
  5
7BE
331
826
  5
7CF
331
84C
  5
7F5
331
7FB
  5
3A9
331
7D6
  5
2E8
331
7E9
  5
313
331
834
  5
7DD
331
82D
  5
7D6
331
802
  5
3B2
331
83B
  5
7E4
331
7D8
  5
2EA
331
855
  5
7FF
331
842
  5
7EB
331
7F6
  5
3A5
331
809
  5
3D4
331
81C
  5
7C4
331
7CC
  5
2D8
331
7DF
  5
301
331
823
  5
7CC
331
810
  5
42A
331
849
  5
7F2
331
85C
  5
806
331
7E6
  5
310
331
831
  5
7DA
331
7F8
  5
3A7
331
7D3
  5
2E5
331
3A0
  5
29F
331
3D3
  5
2A6
331
817
  5
7C2
331
82A
  5
7D3
331
7FF
  5
3AF
331
7ED
  5
31D
331
838
  5
7E1
331
3A7
  5
2A1
331
806
  5
3C7
331
7F3
  5
3A2
331
83F
  5
7E8
331
852
  5
7FC
331
7C9
  5
2D2
331
7DC
  5
2FE
331
820
  5
7C8
331
80D
  5
3DD
331
846
  5
7EF
331
859
  5
803
331
7D0
  5
2E0
331
7E3
  5
306
331
2E5
  5
29A
331
814
  5
7BF
331
827
  5
7D0
331
84D
  5
7F6
331
7FC
  5
3AB
331
7D7
  5
2E9
331
7EA
  5
319
331
835
  5
7DE
331
82E
  5
7D7
331
803
  5
3B3
331
7F0
  5
39F
331
83C
  5
7E5
331
7D9
  5
2F4
331
81D
  5
7C5
331
80A
  5
3D5
331
7F7
  5
3A6
331
843
  5
7EC
331
856
  5
800
331
7CD
  5
2DB
331
7E0
  5
302
331
824
  5
7CD
331
811
  5
7BC
331
84A
  5
7F3
331
85D
  5
807
331
7F9
  5
3A8
331
7D4
  5
2E6
331
7E7
  5
311
331
832
  5
7DB
331
82B
  5
7D4
331
800
  5
3B0
331
7EE
  5
31E
331
839
  5
7E2
331
3A8
  5
2A4
331
403
  5
2C2
331
853
  5
7FD
331
840
  5
7E9
331
7F4
  5
3A3
331
807
  5
3C8
331
7CA
  5
2D5
331
7DD
  5
2FF
331
2DF
  5
298
331
821
  5
7C9
331
80E
  5
403
331
847
  5
7F0
331
85A
  5
804
331
7D1
  5
2E3
331
7E4
  5
30B
331
2E6
  5
29B
  0
XRECORD
  5
4EB
102
{ACAD_REACTORS
330
472
102
}
330
472
100
AcDbXrecord
280
     1
340
118
  0
LAYOUT
  5
509
102
{ACAD_XDICTIONARY
360
8C5
102
}
102
{ACAD_REACTORS
330
507
102
}
330
507
100
AcDbPlotSettings
  1

  2
Microsoft XPS Document Writer
  4

  6

 40
0.0
 41
0.0
 42
0.0
 43
0.0
 44
0.0
 45
0.0
 46
0.0
 47
0.0
 48
0.0
 49
0.0
140
0.0
141
0.0
142
1.0
143
1.0
 70
   688
 72
     0
 73
     0
 74
     5
  7

 75
    16
147
1.0
148
0.0
149
0.0
100
AcDbLayout
  1
Layout1
 70
     0
 71
     1
 10
0.0
 20
0.0
 11
12.0
 21
9.0
 12
0.0
 22
0.0
 32
0.0
 14
-1.000000000000000E+20
 24
-1.000000000000000E+20
 34
-1.000000000000000E+20
 15
-1.000000000000000E+20
 25
-1.000000000000000E+20
 35
-1.000000000000000E+20
146
0.0
 13
0.0
 23
0.0
 33
0.0
 16
1.0
 26
0.0
 36
0.0
 17
0.0
 27
1.0
 37
0.0
 76
     0
330
118
  0
LAYOUT
  5
508
102
{ACAD_XDICTIONARY
360
8C3
102
}
102
{ACAD_REACTORS
330
507
102
}
330
507
100
AcDbPlotSettings
  1

  2
Microsoft XPS Document Writer
  4

  6

 40
0.0
 41
0.0
 42
0.0
 43
0.0
 44
0.0
 45
0.0
 46
0.0
 47
0.0
 48
0.0
 49
0.0
140
0.0
141
0.0
142
1.0
143
1.0
 70
  1712
 72
     0
 73
     0
 74
     0
  7

 75
     0
147
1.0
148
0.0
149
0.0
100
AcDbLayout
  1
Model
 70
     1
 71
     0
 10
0.0
 20
0.0
 11
12.0
 21
9.0
 12
0.0
 22
0.0
 32
0.0
 14
0.0
 24
0.0
 34
0.0
 15
0.0
 25
0.0
 35
0.0
146
0.0
 13
0.0
 23
0.0
 33
0.0
 16
1.0
 26
0.0
 36
0.0
 17
0.0
 27
1.0
 37
0.0
 76
     0
330
11C
331
4CA
  0
MATERIAL
  5
4F1
102
{ACAD_XDICTIONARY
360
8BD
102
}
102
{ACAD_REACTORS
330
4EF
102
}
330
4EF
100
AcDbMaterial
  1
ByBlock
  0
MATERIAL
  5
4F0
102
{ACAD_XDICTIONARY
360
8BB
102
}
102
{ACAD_REACTORS
330
4EF
102
}
330
4EF
100
AcDbMaterial
  1
ByLayer
  0
MATERIAL
  5
4F2
102
{ACAD_XDICTIONARY
360
8BF
102
}
102
{ACAD_REACTORS
330
4EF
102
}
330
4EF
100
AcDbMaterial
  1
Global
  0
MLINESTYLE
  5
115
102
{ACAD_REACTORS
330
114
102
}
330
114
100
AcDbMlineStyle
  2
STANDARD
 70
     0
  3

 62
   256
 51
90.0
 52
90.0
 71
     2
 49
0.5
 62
   256
  6
BYLAYER
 49
-0.5
 62
   256
  6
BYLAYER
  0
ACDBPLACEHOLDER
  5
10D
102
{ACAD_REACTORS
330
10C
102
}
330
10C
  0
TABLESTYLE
  5
506
102
{ACAD_XDICTIONARY
360
8C1
102
}
102
{ACAD_REACTORS
330
505
102
}
330
505
100
AcDbTableStyle
  3
Standard
 70
     0
 71
     0
 40
0.06
 41
0.06
280
     0
281
     0
  7
STANDARD
140
0.18
170
     2
 62
     0
 63
     7
283
     0
274
    -2
284
     1
 64
     0
275
    -2
285
     1
 65
     0
276
    -2
286
     1
 66
     0
277
    -2
287
     1
 67
     0
278
    -2
288
     1
 68
     0
279
    -2
289
     1
 69
     0
  7
STANDARD
140
0.25
170
     5
 62
     0
 63
     7
283
     0
274
    -2
284
     1
 64
     0
275
    -2
285
     1
 65
     0
276
    -2
286
     1
 66
     0
277
    -2
287
     1
 67
     0
278
    -2
288
     1
 68
     0
279
    -2
289
     1
 69
     0
  7
STANDARD
140
0.18
170
     5
 62
     0
 63
     7
283
     0
274
    -2
284
     1
 64
     0
275
    -2
285
     1
 65
     0
276
    -2
286
     1
 66
     0
277
    -2
287
     1
 67
     0
278
    -2
288
     1
 68
     0
279
    -2
289
     1
 69
     0
  0
VISUALSTYLE
  5
4F9
102
{ACAD_REACTORS
330
4F3
102
}
330
4F3
100
AcDbVisualStyle
  2
2dWireframe
 70
     4
 71
     0
 72
     2
 73
     0
 90
        0
 40
-0.6
 41
-30.0
 62
     5
 63
     7
 74
     1
 91
        4
 64
     7
 65
   257
 75
     1
175
     1
 42
1.0
 92
        0
 66
   257
 43
1.0
 76
     1
 77
     6
 78
     2
 67
     7
 79
     5
170
     0
171
     0
290
     0
174
     0
 93
        1
 44
0.0
173
     0
291
     0
 45
0.0
1001
ACAD
1000
AcDbSavedByObjectVersion
1070
     0
  0
VISUALSTYLE
  5
4FB
102
{ACAD_REACTORS
330
4F3
102
}
330
4F3
100
AcDbVisualStyle
  2
3D Hidden
 70
     6
 71
     1
 72
     2
 73
     2
 90
        0
 40
-0.6
 41
-30.0
 62
     5
 63
     7
 74
     2
 91
        2
 64
     7
 65
   257
 75
     2
175
     1
 42
40.0
 92
        0
 66
   257
 43
1.0
 76
     1
 77
     6
 78
     2
 67
     7
 79
     3
170
     0
171
     0
290
     0
174
     0
 93
        1
 44
0.0
173
     0
291
     0
 45
0.0
1001
ACAD
1000
AcDbSavedByObjectVersion
1070
     0
  0
VISUALSTYLE
  5
4FA
102
{ACAD_REACTORS
330
4F3
102
}
330
4F3
100
AcDbVisualStyle
  2
3dWireframe
 70
     5
 71
     0
 72
     2
 73
     0
 90
        0
 40
-0.6
 41
-30.0
 62
     5
 63
     7
 74
     1
 91
        4
 64
     7
 65
   257
 75
     1
175
     1
 42
1.0
 92
        0
 66
   257
 43
1.0
 76
     1
 77
     6
 78
     2
 67
     7
 79
     5
170
     0
171
     0
290
     0
174
     0
 93
        1
 44
0.0
173
     0
291
     0
 45
0.0
1001
ACAD
1000
AcDbSavedByObjectVersion
1070
     0
  0
VISUALSTYLE
  5
4F8
102
{ACAD_REACTORS
330
4F3
102
}
330
4F3
100
AcDbVisualStyle
  2
Basic
 70
     7
 71
     1
 72
     0
 73
     1
 90
        0
 40
-0.6
 41
-30.0
 62
     5
 63
     7
 74
     0
 91
        4
 64
     7
 65
   257
 75
     1
175
     1
 42
1.0
 92
        8
 66
     7
 43
1.0
 76
     1
 77
     6
 78
     2
 67
     7
 79
     5
170
     0
171
     0
290
     0
174
     0
 93
        1
 44
0.0
173
     0
291
     1
 45
0.0
1001
ACAD
1000
AcDbSavedByObjectVersion
1070
     0
  0
VISUALSTYLE
  5
4FF
102
{ACAD_REACTORS
330
4F3
102
}
330
4F3
100
AcDbVisualStyle
  2
Brighten
 70
    12
 71
     2
 72
     2
 73
     0
 90
        0
 40
-0.6
 41
-30.0
 62
     5
 63
     7
 74
     1
 91
        4
 64
     7
 65
   257
 75
     1
175
     1
 42
1.0
 92
        8
 66
     7
 43
1.0
 76
     1
 77
     6
 78
     2
 67
     7
 79
     5
170
     0
171
     0
290
     0
174
     0
 93
        1
 44
50.0
173
     0
291
     1
 45
0.0
1001
ACAD
1000
AcDbSavedByObjectVersion
1070
     0
  0
VISUALSTYLE
  5
503
102
{ACAD_REACTORS
330
4F3
102
}
330
4F3
100
AcDbVisualStyle
  2
ColorChange
 70
    16
 71
     2
 72
     2
 73
     3
 90
        0
 40
-0.6
 41
-30.0
 62
     5
 63
     8
 74
     1
 91
        4
 64
     7
 65
   257
 75
     1
175
     1
 42
1.0
 92
        8
 66
     8
 43
1.0
 76
     1
 77
     6
 78
     2
 67
     7
 79
     5
170
     0
171
     0
290
     0
174
     0
 93
        1
 44
0.0
173
     0
291
     1
 45
0.0
1001
ACAD
1000
AcDbSavedByObjectVersion
1070
     0
  0
VISUALSTYLE
  5
4FC
102
{ACAD_REACTORS
330
4F3
102
}
330
4F3
100
AcDbVisualStyle
  2
Conceptual
 70
     9
 71
     3
 72
     2
 73
     0
 90
        0
 40
-0.6
 41
-30.0
 62
     5
 63
     7
 74
     2
 91
        2
 64
     7
 65
   257
 75
     1
175
     1
 42
40.0
 92
        8
 66
     7
 43
1.0
 76
     1
 77
     6
 78
     2
 67
     7
 79
     3
170
     0
171
     0
290
     0
174
     0
 93
        1
 44
0.0
173
     0
291
     0
 45
0.0
1001
ACAD
1000
AcDbSavedByObjectVersion
1070
     0
  0
VISUALSTYLE
  5
4FE
102
{ACAD_REACTORS
330
4F3
102
}
330
4F3
100
AcDbVisualStyle
  2
Dim
 70
    11
 71
     2
 72
     2
 73
     0
 90
        0
 40
-0.6
 41
-30.0
 62
     5
 63
     7
 74
     1
 91
        4
 64
     7
 65
   257
 75
     1
175
     1
 42
1.0
 92
        8
 66
     7
 43
1.0
 76
     1
 77
     6
 78
     2
 67
     7
 79
     5
170
     0
171
     0
290
     0
174
     0
 93
        1
 44
-50.0
173
     0
291
     1
 45
0.0
1001
ACAD
1000
AcDbSavedByObjectVersion
1070
     0
  0
VISUALSTYLE
  5
502
102
{ACAD_REACTORS
330
4F3
102
}
330
4F3
100
AcDbVisualStyle
  2
Facepattern
 70
    15
 71
     2
 72
     2
 73
     0
 90
        0
 40
-0.6
 41
-30.0
 62
     5
 63
     7
 74
     1
 91
        4
 64
     7
 65
   257
 75
     1
175
     1
 42
1.0
 92
        8
 66
     7
 43
1.0
 76
     1
 77
     6
 78
     2
 67
     7
 79
     5
170
     0
171
     0
290
     0
174
     0
 93
        1
 44
0.0
173
     0
291
     1
 45
0.0
1001
ACAD
1000
AcDbSavedByObjectVersion
1070
     0
  0
VISUALSTYLE
  5
4F4
102
{ACAD_REACTORS
330
4F3
102
}
330
4F3
100
AcDbVisualStyle
  2
Flat
 70
     0
 71
     2
 72
     1
 73
     1
 90
        2
 40
-0.6
 41
30.0
 62
     5
 63
     7
 74
     0
 91
        4
 64
     7
 65
   257
 75
     1
175
     1
 42
1.0
 92
        8
 66
     7
 43
1.0
 76
     1
 77
     6
 78
     2
 67
     7
 79
     5
170
     0
171
     0
290
     0
174
     0
 93
       13
 44
0.0
173
     0
291
     1
 45
0.0
1001
ACAD
1000
AcDbSavedByObjectVersion
1070
     0
  0
VISUALSTYLE
  5
4F5
102
{ACAD_REACTORS
330
4F3
102
}
330
4F3
100
AcDbVisualStyle
  2
FlatWithEdges
 70
     1
 71
     2
 72
     1
 73
     1
 90
        2
 40
-0.6
 41
30.0
 62
     5
 63
     7
 74
     1
 91
        4
 64
     7
 65
   257
 75
     1
175
     1
 42
1.0
 92
        0
 66
   257
 43
1.0
 76
     1
 77
     6
 78
     2
 67
     7
 79
     5
170
     0
171
     0
290
     0
174
     0
 93
       13
 44
0.0
173
     0
291
     1
 45
0.0
1001
ACAD
1000
AcDbSavedByObjectVersion
1070
     0
  0
VISUALSTYLE
  5
4F6
102
{ACAD_REACTORS
330
4F3
102
}
330
4F3
100
AcDbVisualStyle
  2
Gouraud
 70
     2
 71
     2
 72
     2
 73
     1
 90
        2
 40
-0.6
 41
30.0
 62
     5
 63
     7
 74
     0
 91
        4
 64
     7
 65
   257
 75
     1
175
     1
 42
1.0
 92
        0
 66
     7
 43
1.0
 76
     1
 77
     6
 78
     2
 67
     7
 79
     5
170
     0
171
     0
290
     0
174
     0
 93
       13
 44
0.0
173
     0
291
     1
 45
0.0
1001
ACAD
1000
AcDbSavedByObjectVersion
1070
     0
  0
VISUALSTYLE
  5
4F7
102
{ACAD_REACTORS
330
4F3
102
}
330
4F3
100
AcDbVisualStyle
  2
GouraudWithEdges
 70
     3
 71
     2
 72
     2
 73
     1
 90
        2
 40
-0.6
 41
30.0
 62
     5
 63
     7
 74
     1
 91
        4
 64
     7
 65
   257
 75
     1
175
     1
 42
1.0
 92
        0
 66
   257
 43
1.0
 76
     1
 77
     6
 78
     2
 67
     7
 79
     5
170
     0
171
     0
290
     0
174
     0
 93
       13
 44
0.0
173
     0
291
     1
 45
0.0
1001
ACAD
1000
AcDbSavedByObjectVersion
1070
     0
  0
VISUALSTYLE
  5
501
102
{ACAD_REACTORS
330
4F3
102
}
330
4F3
100
AcDbVisualStyle
  2
Linepattern
 70
    14
 71
     2
 72
     2
 73
     0
 90
        0
 40
-0.6
 41
-30.0
 62
     5
 63
     7
 74
     1
 91
        4
 64
     7
 65
   257
 75
     7
175
     7
 42
1.0
 92
        8
 66
     7
 43
1.0
 76
     1
 77
     6
 78
     2
 67
     7
 79
     5
170
     0
171
     0
290
     0
174
     0
 93
        1
 44
0.0
173
     0
291
     1
 45
0.0
1001
ACAD
1000
AcDbSavedByObjectVersion
1070
     0
  0
VISUALSTYLE
  5
4FD
102
{ACAD_REACTORS
330
4F3
102
}
330
4F3
100
AcDbVisualStyle
  2
Realistic
 70
     8
 71
     2
 72
     2
 73
     0
 90
        0
 40
-0.6
 41
-30.0
 62
     5
 63
     7
 74
     1
 91
        0
 64
     7
 65
   257
 75
     1
175
     1
 42
1.0
 92
        8
 66
     8
 43
1.0
 76
     1
 77
     6
 78
     2
 67
     7
 79
     5
170
     0
171
     0
290
     0
174
     0
 93
       13
 44
0.0
173
     0
291
     0
 45
0.0
1001
ACAD
1000
AcDbSavedByObjectVersion
1070
     0
  0
VISUALSTYLE
  5
500
102
{ACAD_REACTORS
330
4F3
102
}
330
4F3
100
AcDbVisualStyle
  2
Thicken
 70
    13
 71
     2
 72
     2
 73
     0
 90
        0
 40
-0.6
 41
-30.0
 62
     5
 63
     7
 74
     1
 91
        4
 64
     7
 65
   257
 75
     1
175
     1
 42
1.0
 92
       12
 66
     7
 43
1.0
 76
     1
 77
     6
 78
     2
 67
     7
 79
     5
170
     0
171
     0
290
     0
174
     0
 93
        1
 44
0.0
173
     0
291
     1
 45
0.0
1001
ACAD
1000
AcDbSavedByObjectVersion
1070
     0
  0
DICTIONARYVAR
  5
8B6
102
{ACAD_REACTORS
330
8B5
102
}
330
8B5
100
DictionaryVariables
280
     0
  1
STANDARD
  0
DICTIONARYVAR
  5
8B9
102
{ACAD_REACTORS
330
8B5
102
}
330
8B5
100
DictionaryVariables
280
     0
  1
1
  0
DICTIONARYVAR
  5
8B8
102
{ACAD_REACTORS
330
8B5
102
}
330
8B5
100
DictionaryVariables
280
     0
  1
0
  0
DICTIONARYVAR
  5
8B7
102
{ACAD_REACTORS
330
8B5
102
}
330
8B5
100
DictionaryVariables
280
     0
  1
127
  0
DICTIONARY
  5
8C5
330
509
100
AcDbDictionary
280
     1
281
     1
  3
ACAD_XREC_ROUNDTRIP
360
8C6
  0
DICTIONARY
  5
8C3
330
508
100
AcDbDictionary
280
     1
281
     1
  3
ACAD_XREC_ROUNDTRIP
360
8C4
  0
DICTIONARY
  5
8BD
330
4F1
100
AcDbDictionary
280
     1
281
     1
  3
ACAD_XREC_ROUNDTRIP
360
8BE
  0
DICTIONARY
  5
8BB
330
4F0
100
AcDbDictionary
280
     1
281
     1
  3
ACAD_XREC_ROUNDTRIP
360
8BC
  0
DICTIONARY
  5
8BF
330
4F2
100
AcDbDictionary
280
     1
281
     1
  3
ACAD_XREC_ROUNDTRIP
360
8C0
  0
DICTIONARY
  5
8C1
330
506
100
AcDbDictionary
280
     1
281
     1
  3
ACAD_XREC_ROUNDTRIP
360
8C2
  0
XRECORD
  5
8C6
102
{ACAD_REACTORS
330
8C5
102
}
330
8C5
100
AcDbXrecord
280
     1
102
SHADEPLOT
 70
     0
102
SHADEPLOTRESLEVEL
 70
     2
102
SHADEPLOTCUSTOMDPI
 70
   300
  0
XRECORD
  5
8C4
102
{ACAD_REACTORS
330
8C3
102
}
330
8C3
100
AcDbXrecord
280
     1
102
SHADEPLOT
 70
     0
102
SHADEPLOTRESLEVEL
 70
     2
102
SHADEPLOTCUSTOMDPI
 70
   300
  0
XRECORD
  5
8BE
102
{ACAD_REACTORS
330
8BD
102
}
330
8BD
100
AcDbXrecord
280
     1
102
MATERIAL
148
0.0
149
0.0
149
0.0
 93
        0
 94
       63
282
     0
 72
     1
 77
     1
171
     1
175
     1
179
     1
273
     0
  0
XRECORD
  5
8BC
102
{ACAD_REACTORS
330
8BB
102
}
330
8BB
100
AcDbXrecord
280
     1
102
MATERIAL
148
0.0
149
0.0
149
0.0
 93
        0
 94
       63
282
     0
 72
     1
 77
     1
171
     1
175
     1
179
     1
273
     0
  0
XRECORD
  5
8C0
102
{ACAD_REACTORS
330
8BF
102
}
330
8BF
100
AcDbXrecord
280
     1
102
MATERIAL
148
0.0
149
0.0
149
0.0
 93
        0
 94
       63
282
     0
 72
     1
 77
     1
171
     1
175
     1
179
     1
273
     0
  0
XRECORD
  5
8C2
102
{ACAD_REACTORS
330
8C1
102
}
330
8C1
100
AcDbXrecord
280
     1
102
ACAD_ROUNDTRIP_PRE2007_TABLESTYLE
 90
      512
 91
        0
  1

 92
      512
 93
        0
  2

 94
      512
 95
        0
  3

  0
ENDSEC
  0
EOF
