  0
SECTION
  2
HEADER
  9
$ACADVER
  1
AC1015
  9
$ACADMAINTVER
 70
     6
  9
$DWGCODEPAGE
  3
ANSI_1252
  9
$INSBASE
 10
0.0
 20
0.0
 30
0.0
  9
$EXTMIN
 10
490.1734521728934
 20
223.6642446873939
 30
0.0
  9
$EXTMAX
 10
1319.465420760313
 20
1052.935726963371
 30
0.0
  9
$LIMMIN
 10
0.0
 20
0.0
  9
$LIMMAX
 10
12.0
 20
9.0
  9
$ORTHOMODE
 70
     1
  9
$REGENMODE
 70
     1
  9
$FILLMODE
 70
     1
  9
$QTEXTMODE
 70
     0
  9
$MIRRTEXT
 70
     1
  9
$LTSCALE
 40
1.0
  9
$ATTMODE
 70
     1
  9
$TEXTSIZE
 40
30.0
  9
$TRACEWID
 40
0.05
  9
$TEXTSTYLE
  7
STANDARD
  9
$CLAYER
  8
0
  9
$CELTYPE
  6
CONTINUOUS
  9
$CECOLOR
 62
     7
  9
$CELTSCALE
 40
1.0
  9
$DISPSILH
 70
     0
  9
$DIMSCALE
 40
1.0
  9
$DIMASZ
 40
0.18
  9
$DIMEXO
 40
0.0625
  9
$DIMDLI
 40
0.38
  9
$DIMRND
 40
0.0
  9
$DIMDLE
 40
0.0
  9
$DIMEXE
 40
0.18
  9
$DIMTP
 40
0.0
  9
$DIMTM
 40
0.0
  9
$DIMTXT
 40
0.18
  9
$DIMCEN
 40
0.09
  9
$DIMTSZ
 40
0.0
  9
$DIMTOL
 70
     0
  9
$DIMLIM
 70
     0
  9
$DIMTIH
 70
     1
  9
$DIMTOH
 70
     1
  9
$DIMSE1
 70
     0
  9
$DIMSE2
 70
     0
  9
$DIMTAD
 70
     0
  9
$DIMZIN
 70
     0
  9
$DIMBLK
  1

  9
$DIMASO
 70
     1
  9
$DIMSHO
 70
     1
  9
$DIMPOST
  1

  9
$DIMAPOST
  1

  9
$DIMALT
 70
     0
  9
$DIMALTD
 70
     2
  9
$DIMALTF
 40
25.4
  9
$DIMLFAC
 40
1.0
  9
$DIMTOFL
 70
     0
  9
$DIMTVP
 40
0.0
  9
$DIMTIX
 70
     0
  9
$DIMSOXD
 70
     0
  9
$DIMSAH
 70
     0
  9
$DIMBLK1
  1

  9
$DIMBLK2
  1

  9
$DIMSTYLE
  2
STANDARD
  9
$DIMCLRD
 70
     0
  9
$DIMCLRE
 70
     0
  9
$DIMCLRT
 70
     0
  9
$DIMTFAC
 40
1.0
  9
$DIMGAP
 40
0.09
  9
$DIMJUST
 70
     0
  9
$DIMSD1
 70
     0
  9
$DIMSD2
 70
     0
  9
$DIMTOLJ
 70
     1
  9
$DIMTZIN
 70
     0
  9
$DIMALTZ
 70
     0
  9
$DIMALTTZ
 70
     0
  9
$DIMUPT
 70
     0
  9
$DIMDEC
 70
     4
  9
$DIMTDEC
 70
     4
  9
$DIMALTU
 70
     2
  9
$DIMALTTD
 70
     2
  9
$DIMTXSTY
  7
STANDARD
  9
$DIMAUNIT
 70
     0
  9
$DIMADEC
 70
     0
  9
$DIMALTRND
 40
0.0
  9
$DIMAZIN
 70
     0
  9
$DIMDSEP
 70
    46
  9
$DIMATFIT
 70
     3
  9
$DIMFRAC
 70
     0
  9
$DIMLDRBLK
  1

  9
$DIMLUNIT
 70
     2
  9
$DIMLWD
 70
    -2
  9
$DIMLWE
 70
    -2
  9
$DIMTMOVE
 70
     0
  9
$LUNITS
 70
     2
  9
$LUPREC
 70
     4
  9
$SKETCHINC
 40
0.1
  9
$FILLETRAD
 40
0.0
  9
$AUNITS
 70
     0
  9
$AUPREC
 70
     0
  9
$MENU
  1
acad
  9
$ELEVATION
 40
0.0
  9
$PELEVATION
 40
0.0
  9
$THICKNESS
 40
0.0
  9
$LIMCHECK
 70
     0
  9
$CHAMFERA
 40
0.0
  9
$CHAMFERB
 40
0.0
  9
$CHAMFERC
 40
0.0
  9
$CHAMFERD
 40
0.0
  9
$SKPOLY
 70
     0
  9
$TDCREATE
 40
2452231.459618055
  9
$TDUCREATE
 40
2452231.417951388
  9
$TDUPDATE
 40
2457619.902923437
  9
$TDUUPDATE
 40
2457619.861256771
  9
$TDINDWG
 40
0.5933075463
  9
$TDUSRTIMER
 40
0.5932985532
  9
$USRTIMER
 70
     1
  9
$ANGBASE
 50
0.0
  9
$ANGDIR
 70
     0
  9
$PDMODE
 70
     0
  9
$PDSIZE
 40
0.0
  9
$PLINEWID
 40
0.0
  9
$SPLFRAME
 70
     0
  9
$SPLINETYPE
 70
     6
  9
$SPLINESEGS
 70
    10
  9
$HANDSEED
  5
B39
  9
$SURFTAB1
 70
     6
  9
$SURFTAB2
 70
     6
  9
$SURFTYPE
 70
     6
  9
$SURFU
 70
    10
  9
$SURFV
 70
    10
  9
$UCSBASE
  2

  9
$UCSNAME
  2

  9
$UCSORG
 10
0.0
 20
0.0
 30
0.0
  9
$UCSXDIR
 10
1.0
 20
0.0
 30
0.0
  9
$UCSYDIR
 10
0.0
 20
1.0
 30
0.0
  9
$UCSORTHOREF
  2

  9
$UCSORTHOVIEW
 70
     0
  9
$UCSORGTOP
 10
0.0
 20
0.0
 30
0.0
  9
$UCSORGBOTTOM
 10
0.0
 20
0.0
 30
0.0
  9
$UCSORGLEFT
 10
0.0
 20
0.0
 30
0.0
  9
$UCSORGRIGHT
 10
0.0
 20
0.0
 30
0.0
  9
$UCSORGFRONT
 10
0.0
 20
0.0
 30
0.0
  9
$UCSORGBACK
 10
0.0
 20
0.0
 30
0.0
  9
$PUCSBASE
  2

  9
$PUCSNAME
  2

  9
$PUCSORG
 10
0.0
 20
0.0
 30
0.0
  9
$PUCSXDIR
 10
1.0
 20
0.0
 30
0.0
  9
$PUCSYDIR
 10
0.0
 20
1.0
 30
0.0
  9
$PUCSORTHOREF
  2

  9
$PUCSORTHOVIEW
 70
     0
  9
$PUCSORGTOP
 10
0.0
 20
0.0
 30
0.0
  9
$PUCSORGBOTTOM
 10
0.0
 20
0.0
 30
0.0
  9
$PUCSORGLEFT
 10
0.0
 20
0.0
 30
0.0
  9
$PUCSORGRIGHT
 10
0.0
 20
0.0
 30
0.0
  9
$PUCSORGFRONT
 10
0.0
 20
0.0
 30
0.0
  9
$PUCSORGBACK
 10
0.0
 20
0.0
 30
0.0
  9
$USERI1
 70
     0
  9
$USERI2
 70
     0
  9
$USERI3
 70
     0
  9
$USERI4
 70
     0
  9
$USERI5
 70
     0
  9
$USERR1
 40
0.0
  9
$USERR2
 40
0.0
  9
$USERR3
 40
0.0
  9
$USERR4
 40
0.0
  9
$USERR5
 40
0.0
  9
$WORLDVIEW
 70
     1
  9
$SHADEDGE
 70
     3
  9
$SHADEDIF
 70
    70
  9
$TILEMODE
 70
     1
  9
$MAXACTVP
 70
    16
  9
$PINSBASE
 10
0.0
 20
0.0
 30
0.0
  9
$PLIMCHECK
 70
     0
  9
$PEXTMIN
 10
-1.000000000000000E+20
 20
-1.000000000000000E+20
 30
-1.000000000000000E+20
  9
$PEXTMAX
 10
-1.000000000000000E+20
 20
-1.000000000000000E+20
 30
-1.000000000000000E+20
  9
$PLIMMIN
 10
0.0
 20
0.0
  9
$PLIMMAX
 10
12.0
 20
9.0
  9
$UNITMODE
 70
     0
  9
$VISRETAIN
 70
     0
  9
$PLINEGEN
 70
     1
  9
$PSLTSCALE
 70
     0
  9
$TREEDEPTH
 70
  3020
  9
$CMLSTYLE
  2
STANDARD
  9
$CMLJUST
 70
     0
  9
$CMLSCALE
 40
1.0
  9
$PROXYGRAPHICS
 70
     1
  9
$MEASUREMENT
 70
     0
  9
$CELWEIGHT
370
    -3
  9
$ENDCAPS
280
     0
  9
$JOINSTYLE
280
     0
  9
$LWDISPLAY
290
     0
  9
$INSUNITS
 70
     0
  9
$HYPERLINKBASE
  1

  9
$STYLESHEET
  1

  9
$XEDIT
290
     1
  9
$CEPSNTYPE
380
     0
  9
$PSTYLEMODE
290
     1
  9
$FINGERPRINTGUID
  2
{B88467DC-19E1-4536-B2EF-890E381B4990}
  9
$VERSIONGUID
  2
{939099F9-40C6-403F-9803-816DFA5A5C31}
  9
$EXTNAMES
290
     1
  9
$PSVPSCALE
 40
0.0
  9
$OLESTARTUP
290
     0
  0
ENDSEC
  0
SECTION
  2
CLASSES
  0
CLASS
  1
ACDBDICTIONARYWDFLT
  2
AcDbDictionaryWithDefault
  3
AutoCAD 2000
 90
        0
280
     0
281
     0
  0
CLASS
  1
ACDBPLACEHOLDER
  2
AcDbPlaceHolder
  3
AutoCAD 2000
 90
        0
280
     0
281
     0
  0
CLASS
  1
LAYOUT
  2
AcDbLayout
  3
AutoCAD 2000
 90
        0
280
     0
281
     0
  0
CLASS
  1
DICTIONARYVAR
  2
AcDbDictionaryVar
  3
AutoCAD 2000
 90
        0
280
     0
281
     0
  0
CLASS
  1
MATERIAL
  2
AcDbMaterial
  3
ObjectDBX Classes
 90
     1024
280
     0
281
     0
  0
CLASS
  1
VISUALSTYLE
  2
AcDbVisualStyle
  3
ObjectDBX Classes
 90
     4095
280
     0
281
     0
  0
CLASS
  1
TABLESTYLE
  2
AcDbTableStyle
  3
ObjectDBX Classes
 90
     4095
280
     0
281
     0
  0
CLASS
  1
SORTENTSTABLE
  2
AcDbSortentsTable
  3
AutoCAD 2000
 90
        0
280
     0
281
     0
  0
ENDSEC
  0
SECTION
  2
TABLES
  0
TABLE
  2
VPORT
  5
107
330
0
100
AcDbSymbolTable
 70
     2
  0
VPORT
  5
B38
330
107
100
AcDbSymbolTableRecord
100
AcDbViewportTableRecord
  2
*Active
 70
     0
 10
0.0
 20
0.0
 11
1.0
 21
1.0
 12
-112.3105601394963
 22
205.3217451579157
 13
0.0
 23
0.0
 14
0.0
 24
0.0
 15
0.0
 25
0.0
 16
0.0
 26
0.0
 36
1.0
 17
889.567107
 27
575.871875
 37
0.0
 40
678.9905948165269
 41
1.94776119402985
 42
50.0
 43
0.025
 44
0.0
 50
0.0
 51
0.0
 71
     0
 72
   100
 73
     1
 74
     0
 75
     0
 76
     0
 77
     0
 78
     0
281
     0
 65
     1
110
0.0
120
0.0
130
0.0
111
1.0
121
0.0
131
0.0
112
0.0
122
1.0
132
0.0
 79
     0
146
0.0
  0
ENDTAB
  0
TABLE
  2
LTYPE
  5
104
330
0
100
AcDbSymbolTable
 70
     1
  0
LTYPE
  5
112
330
104
100
AcDbSymbolTableRecord
100
AcDbLinetypeTableRecord
  2
BYBLOCK
 70
     0
  3

 72
    65
 73
     0
 40
0.0
  0
LTYPE
  5
113
330
104
100
AcDbSymbolTableRecord
100
AcDbLinetypeTableRecord
  2
BYLAYER
 70
     0
  3

 72
    65
 73
     0
 40
0.0
  0
LTYPE
  5
114
330
104
100
AcDbSymbolTableRecord
100
AcDbLinetypeTableRecord
  2
CONTINUOUS
 70
     0
  3
Solid line
 72
    65
 73
     0
 40
0.0
  0
ENDTAB
  0
TABLE
  2
LAYER
  5
101
330
0
100
AcDbSymbolTable
 70
     4
  0
LAYER
  5
10F
330
101
100
AcDbSymbolTableRecord
100
AcDbLayerTableRecord
  2
0
 70
     0
 62
     7
  6
CONTINUOUS
370
    -3
390
10E
  0
LAYER
  5
12A
330
101
100
AcDbSymbolTableRecord
100
AcDbLayerTableRecord
  2
1
 70
     0
 62
     7
  6
CONTINUOUS
370
    -3
390
10E
  0
LAYER
  5
731
102
{ACAD_XDICTIONARY
360
732
102
}
330
101
100
AcDbSymbolTableRecord
100
AcDbLayerTableRecord
  2
-1
 70
     0
 62
     7
  6
CONTINUOUS
370
    -3
390
10E
  0
LAYER
  5
734
102
{ACAD_XDICTIONARY
360
735
102
}
330
101
100
AcDbSymbolTableRecord
100
AcDbLayerTableRecord
  2
FLAN1$0$1
 70
     0
 62
     7
  6
CONTINUOUS
370
    -3
390
10E
  0
ENDTAB
  0
TABLE
  2
STYLE
  5
102
330
0
100
AcDbSymbolTable
 70
     2
  0
STYLE
  5
110
330
102
100
AcDbSymbolTableRecord
100
AcDbTextStyleTableRecord
  2
STANDARD
 70
     0
 40
0.0
 41
1.0
 50
0.0
 71
     0
 42
30.0
  3
txt
  4

  0
STYLE
  5
12B
330
102
100
AcDbSymbolTableRecord
100
AcDbTextStyleTableRecord
  2
ROMANS
 70
     0
 40
0.2
 41
1.0
 50
0.0
 71
     0
 42
0.2
  3
ROMANS
  4

  0
ENDTAB
  0
TABLE
  2
VIEW
  5
105
330
0
100
AcDbSymbolTable
 70
     0
  0
ENDTAB
  0
TABLE
  2
UCS
  5
106
330
0
100
AcDbSymbolTable
 70
     0
  0
ENDTAB
  0
TABLE
  2
APPID
  5
108
330
0
100
AcDbSymbolTable
 70
     2
  0
APPID
  5
111
330
108
100
AcDbSymbolTableRecord
100
AcDbRegAppTableRecord
  2
ACAD
 70
     0
  0
APPID
  5
AB6
330
108
100
AcDbSymbolTableRecord
100
AcDbRegAppTableRecord
  2
ACAD_EXEMPT_FROM_CAD_STANDARDS
 70
     0
  0
ENDTAB
  0
TABLE
  2
DIMSTYLE
  5
109
330
0
100
AcDbSymbolTable
 70
     1
100
AcDbDimStyleTable
 71
     1
340
12C
  0
DIMSTYLE
105
12C
330
109
100
AcDbSymbolTableRecord
100
AcDbDimStyleTableRecord
  2
STANDARD
 70
     0
340
110
  0
ENDTAB
  0
TABLE
  2
BLOCK_RECORD
  5
100
330
0
100
AcDbSymbolTable
 70
     2
  0
BLOCK_RECORD
  5
11D
102
{ACAD_XDICTIONARY
360
2F6
102
}
330
100
100
AcDbSymbolTableRecord
100
AcDbBlockTableRecord
  2
*MODEL_SPACE
340
72C
  0
BLOCK_RECORD
  5
119
102
{ACAD_XDICTIONARY
360
2F4
102
}
330
100
100
AcDbSymbolTableRecord
100
AcDbBlockTableRecord
  2
*PAPER_SPACE
340
72D
  0
BLOCK_RECORD
  5
53C
330
100
100
AcDbSymbolTableRecord
100
AcDbBlockTableRecord
  2
A$C30394B77
340
0
  0
ENDTAB
  0
ENDSEC
  0
SECTION
  2
BLOCKS
  0
BLOCK
  5
11E
330
11D
100
AcDbEntity
  8
0
100
AcDbBlockBegin
  2
*MODEL_SPACE
 70
     0
 10
0.0
 20
0.0
 30
0.0
  3
*MODEL_SPACE
  1

  0
ENDBLK
  5
11F
330
11D
100
AcDbEntity
  8
0
100
AcDbBlockEnd
  0
BLOCK
  5
11A
330
119
100
AcDbEntity
 67
     1
  8
0
100
AcDbBlockBegin
  2
*PAPER_SPACE
 70
     0
 10
0.0
 20
0.0
 30
0.0
  3
*PAPER_SPACE
  1

  0
ENDBLK
  5
11B
330
119
100
AcDbEntity
 67
     1
  8
0
100
AcDbBlockEnd
  0
BLOCK
  5
53E
330
53C
100
AcDbEntity
  8
0
 62
     7
100
AcDbBlockBegin
  2
A$C30394B77
 70
     0
 10
0.0
 20
0.0
 30
0.0
  3
A$C30394B77
  1

  0
LINE
  5
53D
330
53C
100
AcDbEntity
  8
1
  6
Continuous
 62
     7
100
AcDbLine
 10
28.20872271002122
 20
0.0000018500464876
 30
0.0
 11
-0.0000024085500172
 21
28.15053036507332
 31
0.0
  0
ENDBLK
  5
53F
330
53C
100
AcDbEntity
  8
0
 62
     7
100
AcDbBlockEnd
  0
ENDSEC
  0
SECTION
  2
ENTITIES
  0
LINE
  5
150
330
11D
100
AcDbEntity
  8
1
  6
Continuous
 62
     4
100
AcDbLine
 10
681.6407357245069
 20
434.9574991952513
 30
0.0
 11
1092.024123932368
 21
845.1536544680287
 31
0.0
  0
LINE
  5
164
330
11D
100
AcDbEntity
  8
1
  6
Continuous
 62
     4
100
AcDbLine
 10
767.5199332647316
 20
689.8366664236341
 30
0.0
 11
709.2306392253711
 21
644.3369357180293
 31
0.0
  0
LINE
  5
355
330
11D
100
AcDbEntity
  8
1
  6
Continuous
 62
     4
100
AcDbLine
 10
1100.933569821647
 20
682.1907666042448
 30
0.0
 11
1140.64920458528
 21
643.773188388134
 31
0.0
  0
LINE
  5
472
330
11D
100
AcDbEntity
  8
1
  6
Continuous
 62
     4
100
AcDbLine
 10
1306.605420760314
 20
434.9574991952513
 30
0.0
 11
545.3977471383258
 21
434.9574991952513
 31
0.0
  0
LINE
  5
644
330
11D
100
AcDbEntity
  8
1
  6
Continuous
 62
     4
100
AcDbLine
 10
978.8483224934363
 20
837.4173248745819
 30
0.0
 11
1079.484756612466
 21
727.1964684584994
 31
0.0
  0
LINE
  5
645
330
11D
100
AcDbEntity
  8
1
  6
Continuous
 62
     4
100
AcDbLine
 10
969.2639001963852
 20
827.832902577531
 30
0.0
 11
1069.900334315415
 21
717.6120461614495
 31
0.0
  0
LINE
  5
64A
330
11D
100
AcDbEntity
  8
1
  6
Continuous
 62
     4
100
AcDbLine
 10
988.4327447904871
 20
847.0017471716326
 30
0.0
 11
1089.069178909518
 21
736.7808907555511
 31
0.0
  0
LINE
  5
671
330
11D
100
AcDbEntity
  8
1
  6
Continuous
 62
     4
100
AcDbLine
 10
1084.060740360602
 20
882.837850475391
 30
0.0
 11
1156.160134988872
 21
803.8718468349053
 31
0.0
  0
LINE
  5
672
330
11D
100
AcDbEntity
  8
1
  6
Continuous
 62
     4
100
AcDbLine
 10
1026.770433978689
 20
885.3394363598352
 30
0.0
 11
1127.406868097719
 21
775.1185799437535
 31
0.0
  0
LINE
  5
676
330
11D
100
AcDbEntity
  8
1
  6
Continuous
 62
     4
100
AcDbLine
 10
1036.35485627574
 20
894.9238586568856
 30
0.0
 11
1136.99129039477
 21
784.7030022408037
 31
0.0
  0
LINE
  5
677
330
11D
100
AcDbEntity
  8
1
  6
Continuous
 62
     4
100
AcDbLine
 10
1045.93927857279
 20
904.5082809539362
 30
0.0
 11
1146.575712691822
 21
794.2874245378548
 31
0.0
  0
LINE
  5
67B
330
11D
100
AcDbEntity
  8
1
  6
Continuous
 62
     4
100
AcDbLine
 10
1007.601589384587
 20
866.1705917657336
 30
0.0
 11
1108.238023503619
 21
755.9497353496519
 31
0.0
  0
LINE
  5
67E
330
11D
100
AcDbEntity
  8
1
  6
Continuous
 62
     4
100
AcDbLine
 10
1017.186011681638
 20
875.7550140627843
 30
0.0
 11
1117.822445800668
 21
765.5341576467027
 31
0.0
  0
LINE
  5
67F
330
11D
100
AcDbEntity
  8
1
  6
Continuous
 62
     4
100
AcDbLine
 10
998.0171670875376
 20
856.5861694686837
 30
0.0
 11
1098.653601206566
 21
746.3653130526007
 31
0.0
  0
LINE
  5
9F3
330
11D
100
AcDbEntity
  8
1
  6
Continuous
 62
     4
100
AcDbLine
 10
545.4005463822921
 20
638.2629750374632
 30
0.0
 11
551.4745057279323
 21
644.3369343831034
 31
0.0
1001
ACAD
1010
0.0
1020
0.0
1030
0.0
  0
LINE
  5
9F4
330
11D
100
AcDbEntity
  8
1
  6
Continuous
 62
     4
100
AcDbLine
 10
545.4054322863321
 20
627.6612592237047
 30
0.0
 11
562.0811074457304
 21
644.3369343831034
 31
0.0
1001
ACAD
1010
0.0
1020
0.0
1030
0.0
  0
LINE
  5
9F5
330
11D
100
AcDbEntity
  8
1
  6
Continuous
 62
     4
100
AcDbLine
 10
545.4103181903718
 20
617.0595434099461
 30
0.0
 11
572.6877104984549
 21
644.336935718029
 31
0.0
1001
ACAD
1010
0.0
1020
0.0
1030
0.0
  0
LINE
  5
9F6
330
11D
100
AcDbEntity
  8
1
  6
Continuous
 62
     4
100
AcDbLine
 10
545.4152040944117
 20
606.4578275961872
 30
0.0
 11
583.2943122162532
 21
644.336935718029
 31
0.0
1001
ACAD
1010
0.0
1020
0.0
1030
0.0
  0
LINE
  5
9F7
330
11D
100
AcDbEntity
  8
1
  6
Continuous
 62
     4
100
AcDbLine
 10
555.1076601326504
 20
605.5436819166274
 30
0.0
 11
593.9009139340513
 21
644.336935718029
 31
0.0
1001
ACAD
1010
0.0
1020
0.0
1030
0.0
  0
LINE
  5
9F8
330
11D
100
AcDbEntity
  8
1
  6
Continuous
 62
     4
100
AcDbLine
 10
565.7142618504486
 20
605.5436819166274
 30
0.0
 11
604.5075143169242
 21
644.3369343831034
 31
0.0
1001
ACAD
1010
0.0
1020
0.0
1030
0.0
  0
LINE
  5
9F9
330
11D
100
AcDbEntity
  8
1
  6
Continuous
 62
     4
100
AcDbLine
 10
576.3208635682467
 20
605.5436819166274
 30
0.0
 11
615.1141160347227
 21
644.3369343831034
 31
0.0
1001
ACAD
1010
0.0
1020
0.0
1030
0.0
  0
LINE
  5
9FA
330
11D
100
AcDbEntity
  8
1
  6
Continuous
 62
     4
100
AcDbLine
 10
586.9274652860452
 20
605.5436819166275
 30
0.0
 11
625.7207190874469
 21
644.3369357180293
 31
0.0
1001
ACAD
1010
0.0
1020
0.0
1030
0.0
  0
LINE
  5
9FB
330
11D
100
AcDbEntity
  8
1
  6
Continuous
 62
     4
100
AcDbLine
 10
597.534067003844
 20
605.5436819166275
 30
0.0
 11
636.3273194703197
 21
644.3369343831035
 31
0.0
1001
ACAD
1010
0.0
1020
0.0
1030
0.0
  0
LINE
  5
9FC
330
11D
100
AcDbEntity
  8
1
  6
Continuous
 62
     4
100
AcDbLine
 10
608.140668721642
 20
605.5436819166275
 30
0.0
 11
646.9339211881182
 21
644.3369343831035
 31
0.0
1001
ACAD
1010
0.0
1020
0.0
1030
0.0
  0
LINE
  5
9FD
330
11D
100
AcDbEntity
  8
1
  6
Continuous
 62
     4
100
AcDbLine
 10
618.7472704394409
 20
605.5436819166275
 30
0.0
 11
657.5405242408423
 21
644.3369357180293
 31
0.0
1001
ACAD
1010
0.0
1020
0.0
1030
0.0
  0
LINE
  5
9FE
330
11D
100
AcDbEntity
  8
1
  6
Continuous
 62
     4
100
AcDbLine
 10
629.353872157239
 20
605.5436819166275
 30
0.0
 11
668.1471246237151
 21
644.3369343831035
 31
0.0
1001
ACAD
1010
0.0
1020
0.0
1030
0.0
  0
LINE
  5
9FF
330
11D
100
AcDbEntity
  8
1
  6
Continuous
 62
     4
100
AcDbLine
 10
639.9604738750375
 20
605.5436819166275
 30
0.0
 11
678.7537263415132
 21
644.3369343831035
 31
0.0
1001
ACAD
1010
0.0
1020
0.0
1030
0.0
  0
LINE
  5
A00
330
11D
100
AcDbEntity
  8
1
  6
Continuous
 62
     4
100
AcDbLine
 10
650.5670742579106
 20
605.5436805817017
 30
0.0
 11
689.3603280593115
 21
644.3369343831034
 31
0.0
1001
ACAD
1010
0.0
1020
0.0
1030
0.0
  0
LINE
  5
A01
330
11D
100
AcDbEntity
  8
1
  6
Continuous
 62
     4
100
AcDbLine
 10
661.1736759757086
 20
605.5436805817017
 30
0.0
 11
699.9669284421843
 21
644.3369330481776
 31
0.0
1001
ACAD
1010
0.0
1020
0.0
1030
0.0
  0
LINE
  5
A02
330
11D
100
AcDbEntity
  8
1
  6
Continuous
 62
     4
100
AcDbLine
 10
671.7802776935067
 20
605.5436805817017
 30
0.0
 11
710.5735301599829
 21
644.3369330481776
 31
0.0
1001
ACAD
1010
0.0
1020
0.0
1030
0.0
  0
LINE
  5
A03
330
11D
100
AcDbEntity
  8
1
  6
Continuous
 62
     4
100
AcDbLine
 10
682.3868780763794
 20
605.5436792467761
 30
0.0
 11
721.1801318777816
 21
644.3369330481776
 31
0.0
1001
ACAD
1010
0.0
1020
0.0
1030
0.0
  0
LINE
  5
A04
330
11D
100
AcDbEntity
  8
1
  6
Continuous
 62
     4
100
AcDbLine
 10
692.9934797941784
 20
605.5436792467761
 30
0.0
 11
731.7867322606542
 21
644.336931713252
 31
0.0
1001
ACAD
1010
0.0
1020
0.0
1030
0.0
  0
LINE
  5
A05
330
11D
100
AcDbEntity
  8
1
  6
Continuous
 62
     4
100
AcDbLine
 10
703.6000815119769
 20
605.5436792467761
 30
0.0
 11
742.3933339784524
 21
644.336931713252
 31
0.0
1001
ACAD
1010
0.0
1020
0.0
1030
0.0
  0
LINE
  5
A06
330
11D
100
AcDbEntity
  8
1
  6
Continuous
 62
     4
100
AcDbLine
 10
714.2066818948497
 20
605.5436779118505
 30
0.0
 11
752.9999356962507
 21
644.336931713252
 31
0.0
1001
ACAD
1010
0.0
1020
0.0
1030
0.0
  0
LINE
  5
A07
330
11D
100
AcDbEntity
  8
1
  6
Continuous
 62
     4
100
AcDbLine
 10
724.8132836126479
 20
605.5436779118505
 30
0.0
 11
763.6065360791235
 21
644.3369303783265
 31
0.0
1001
ACAD
1010
0.0
1020
0.0
1030
0.0
  0
LINE
  5
A08
330
11D
100
AcDbEntity
  8
1
  6
Continuous
 62
     4
100
AcDbLine
 10
735.419885330446
 20
605.5436779118505
 30
0.0
 11
774.2131377969221
 21
644.3369303783265
 31
0.0
1001
ACAD
1010
0.0
1020
0.0
1030
0.0
  0
LINE
  5
A09
330
11D
100
AcDbEntity
  8
1
  6
Continuous
 62
     4
100
AcDbLine
 10
746.0264857133188
 20
605.5436765769249
 30
0.0
 11
784.8197395147207
 21
644.3369303783265
 31
0.0
1001
ACAD
1010
0.0
1020
0.0
1030
0.0
  0
LINE
  5
A0A
330
11D
100
AcDbEntity
  8
1
  6
Continuous
 62
     4
100
AcDbLine
 10
756.6330874311176
 20
605.5436765769249
 30
0.0
 11
795.4263398975935
 21
644.3369290434007
 31
0.0
1001
ACAD
1010
0.0
1020
0.0
1030
0.0
  0
LINE
  5
A0C
330
11D
100
AcDbEntity
  8
1
  6
Continuous
 62
     4
100
AcDbLine
 10
1070.214381729569
 20
638.2601728057957
 30
0.0
 11
1076.291144641801
 21
644.3369357180288
 31
0.0
1001
ACAD
1010
0.0
1020
0.0
1030
0.0
  0
LINE
  5
A0D
330
11D
100
AcDbEntity
  8
1
  6
Continuous
 62
     4
100
AcDbLine
 10
1070.214381729569
 20
627.6535710879977
 30
0.0
 11
1086.8977463596
 21
644.3369357180287
 31
0.0
1001
ACAD
1010
0.0
1020
0.0
1030
0.0
  0
LINE
  5
A0E
330
11D
100
AcDbEntity
  8
1
  6
Continuous
 62
     4
100
AcDbLine
 10
1070.214381729569
 20
617.0469693701995
 30
0.0
 11
1097.504348077398
 21
644.3369357180285
 31
0.0
1001
ACAD
1010
0.0
1020
0.0
1030
0.0
  0
LINE
  5
A0F
330
11D
100
AcDbEntity
  8
1
  6
Continuous
 62
     4
100
AcDbLine
 10
1070.214381729569
 20
606.4403676524013
 30
0.0
 11
1108.110949795196
 21
644.3369357180282
 31
0.0
1001
ACAD
1010
0.0
1020
0.0
1030
0.0
  0
LINE
  5
A10
330
11D
100
AcDbEntity
  8
1
  6
Continuous
 62
     4
100
AcDbLine
 10
1079.627432379995
 20
605.2468165850299
 30
0.0
 11
1118.717551512995
 21
644.336935718028
 31
0.0
1001
ACAD
1010
0.0
1020
0.0
1030
0.0
  0
LINE
  5
A11
330
11D
100
AcDbEntity
  8
1
  6
Continuous
 62
     4
100
AcDbLine
 10
1090.234034097794
 20
605.2468165850299
 30
0.0
 11
1129.324153230792
 21
644.3369357180277
 31
0.0
1001
ACAD
1010
0.0
1020
0.0
1030
0.0
  0
LINE
  5
A12
330
11D
100
AcDbEntity
  8
1
  6
Continuous
 62
     4
100
AcDbLine
 10
1100.840635815593
 20
605.2468165850299
 30
0.0
 11
1139.930754948591
 21
644.3369357180277
 31
0.0
1001
ACAD
1010
0.0
1020
0.0
1030
0.0
  0
LINE
  5
A13
330
11D
100
AcDbEntity
  8
1
  6
Continuous
 62
     4
100
AcDbLine
 10
1111.447237533391
 20
605.2468165850299
 30
0.0
 11
1150.537356666389
 21
644.3369357180272
 31
0.0
1001
ACAD
1010
0.0
1020
0.0
1030
0.0
  0
LINE
  5
A14
330
11D
100
AcDbEntity
  8
1
  6
Continuous
 62
     4
100
AcDbLine
 10
1122.053839251188
 20
605.2468165850285
 30
0.0
 11
1161.143958384186
 21
644.3369357180266
 31
0.0
1001
ACAD
1010
0.0
1020
0.0
1030
0.0
  0
LINE
  5
A15
330
11D
100
AcDbEntity
  8
1
  6
Continuous
 62
     4
100
AcDbLine
 10
1132.660440968986
 20
605.2468165850285
 30
0.0
 11
1171.750560101985
 21
644.3369357180263
 31
0.0
1001
ACAD
1010
0.0
1020
0.0
1030
0.0
  0
LINE
  5
A16
330
11D
100
AcDbEntity
  8
1
  6
Continuous
 62
     4
100
AcDbLine
 10
1143.267042686785
 20
605.2468165850285
 30
0.0
 11
1182.357161819783
 21
644.3369357180261
 31
0.0
1001
ACAD
1010
0.0
1020
0.0
1030
0.0
  0
LINE
  5
A17
330
11D
100
AcDbEntity
  8
1
  6
Continuous
 62
     4
100
AcDbLine
 10
1153.873644404583
 20
605.2468165850285
 30
0.0
 11
1192.963763537581
 21
644.336935718026
 31
0.0
1001
ACAD
1010
0.0
1020
0.0
1030
0.0
  0
LINE
  5
A18
330
11D
100
AcDbEntity
  8
1
  6
Continuous
 62
     4
100
AcDbLine
 10
1164.480246122381
 20
605.2468165850272
 30
0.0
 11
1203.570365255379
 21
644.3369357180253
 31
0.0
1001
ACAD
1010
0.0
1020
0.0
1030
0.0
  0
LINE
  5
A19
330
11D
100
AcDbEntity
  8
1
  6
Continuous
 62
     4
100
AcDbLine
 10
1175.086847840179
 20
605.2468165850272
 30
0.0
 11
1214.176966973177
 21
644.3369357180251
 31
0.0
1001
ACAD
1010
0.0
1020
0.0
1030
0.0
  0
LINE
  5
A1A
330
11D
100
AcDbEntity
  8
1
  6
Continuous
 62
     4
100
AcDbLine
 10
1185.693449557978
 20
605.2468165850272
 30
0.0
 11
1224.783568690976
 21
644.3369357180247
 31
0.0
1001
ACAD
1010
0.0
1020
0.0
1030
0.0
  0
LINE
  5
A1B
330
11D
100
AcDbEntity
  8
1
  6
Continuous
 62
     4
100
AcDbLine
 10
1196.300051275776
 20
605.2468165850272
 30
0.0
 11
1235.390170408773
 21
644.3369357180245
 31
0.0
1001
ACAD
1010
0.0
1020
0.0
1030
0.0
  0
LINE
  5
A1C
330
11D
100
AcDbEntity
  8
1
  6
Continuous
 62
     4
100
AcDbLine
 10
1206.906652993577
 20
605.2468165850301
 30
0.0
 11
1245.996772126575
 21
644.3369357180282
 31
0.0
1001
ACAD
1010
0.0
1020
0.0
1030
0.0
  0
LINE
  5
A1D
330
11D
100
AcDbEntity
  8
1
  6
Continuous
 62
     4
100
AcDbLine
 10
1217.513254711376
 20
605.2468165850301
 30
0.0
 11
1256.603373844374
 21
644.336935718028
 31
0.0
1001
ACAD
1010
0.0
1020
0.0
1030
0.0
  0
LINE
  5
A1E
330
11D
100
AcDbEntity
  8
1
  6
Continuous
 62
     4
100
AcDbLine
 10
1228.119856429174
 20
605.2468165850301
 30
0.0
 11
1267.209975562171
 21
644.3369357180277
 31
0.0
1001
ACAD
1010
0.0
1020
0.0
1030
0.0
  0
LINE
  5
A1F
330
11D
100
AcDbEntity
  8
1
  6
Continuous
 62
     4
100
AcDbLine
 10
1238.726458146972
 20
605.2468165850301
 30
0.0
 11
1277.81657727997
 21
644.3369357180277
 31
0.0
1001
ACAD
1010
0.0
1020
0.0
1030
0.0
  0
LINE
  5
A20
330
11D
100
AcDbEntity
  8
1
  6
Continuous
 62
     4
100
AcDbLine
 10
1249.333059864771
 20
605.2468165850301
 30
0.0
 11
1288.423178997769
 21
644.3369357180284
 31
0.0
1001
ACAD
1010
0.0
1020
0.0
1030
0.0
  0
LINE
  5
A21
330
11D
100
AcDbEntity
  8
1
  6
Continuous
 62
     4
100
AcDbLine
 10
1259.939661582569
 20
605.2468165850301
 30
0.0
 11
1299.029780715567
 21
644.3369357180281
 31
0.0
1001
ACAD
1010
0.0
1020
0.0
1030
0.0
  0
LINE
  5
A22
330
11D
100
AcDbEntity
  8
1
  6
Continuous
 62
     4
100
AcDbLine
 10
1270.546263300368
 20
605.2468165850301
 30
0.0
 11
1306.605420760314
 21
641.3059740449759
 31
0.0
1001
ACAD
1010
0.0
1020
0.0
1030
0.0
  0
LINE
  5
A23
330
11D
100
AcDbEntity
  8
1
  6
Continuous
 62
     4
100
AcDbLine
 10
1281.152865018166
 20
605.2468165850301
 30
0.0
 11
1306.605420760314
 21
630.6993723271776
 31
0.0
1001
ACAD
1010
0.0
1020
0.0
1030
0.0
  0
LINE
  5
A24
330
11D
100
AcDbEntity
  8
1
  6
Continuous
 62
     4
100
AcDbLine
 10
1291.759466735963
 20
605.2468165850288
 30
0.0
 11
1306.605420760314
 21
620.0927706093795
 31
0.0
1001
ACAD
1010
0.0
1020
0.0
1030
0.0
  0
LINE
  5
A25
330
11D
100
AcDbEntity
  8
1
  6
Continuous
 62
     4
100
AcDbLine
 10
1302.366068453761
 20
605.2468165850288
 30
0.0
 11
1306.605420760314
 21
609.4861688915813
 31
0.0
1001
ACAD
1010
0.0
1020
0.0
1030
0.0
  0
LINE
  5
A28
330
11D
100
AcDbEntity
  8
1
  6
Continuous
 62
     4
100
AcDbLine
 10
545.6299012213754
 20
256.3691738864981
 30
0.0
 11
551.718226530128
 21
262.4574991952513
 31
0.0
1001
ACAD
1010
0.0
1020
0.0
1030
0.0
  0
LINE
  5
A29
330
11D
100
AcDbEntity
  8
1
  6
Continuous
 62
     4
100
AcDbLine
 10
545.6399692908471
 20
245.7726402381716
 30
0.0
 11
562.3248282479266
 21
262.4574991952513
 31
0.0
1001
ACAD
1010
0.0
1020
0.0
1030
0.0
  0
LINE
  5
A2A
330
11D
100
AcDbEntity
  8
1
  6
Continuous
 62
     4
100
AcDbLine
 10
545.6500373603184
 20
235.1761065898448
 30
0.0
 11
572.9314299657252
 21
262.4574991952513
 31
0.0
1001
ACAD
1010
0.0
1020
0.0
1030
0.0
  0
LINE
  5
A2B
330
11D
100
AcDbEntity
  8
1
  6
Continuous
 62
     4
100
AcDbLine
 10
545.6601054297903
 20
224.5795729415179
 30
0.0
 11
583.5380316835235
 21
262.4574991952513
 31
0.0
1001
ACAD
1010
0.0
1020
0.0
1030
0.0
  0
LINE
  5
A2C
330
11D
100
AcDbEntity
  8
1
  6
Continuous
 62
     4
100
AcDbLine
 10
555.3513788934651
 20
223.6642446873941
 30
0.0
 11
594.1446334013221
 21
262.4574991952513
 31
0.0
1001
ACAD
1010
0.0
1020
0.0
1030
0.0
  0
LINE
  5
A2D
330
11D
100
AcDbEntity
  8
1
  6
Continuous
 62
     4
100
AcDbLine
 10
565.9579806112632
 20
223.6642446873941
 30
0.0
 11
604.7512351191202
 21
262.4574991952513
 31
0.0
1001
ACAD
1010
0.0
1020
0.0
1030
0.0
  0
LINE
  5
A2E
330
11D
100
AcDbEntity
  8
1
  6
Continuous
 62
     4
100
AcDbLine
 10
576.5645823290615
 20
223.6642446873941
 30
0.0
 11
615.3578368369188
 21
262.4574991952513
 31
0.0
1001
ACAD
1010
0.0
1020
0.0
1030
0.0
  0
LINE
  5
A2F
330
11D
100
AcDbEntity
  8
1
  6
Continuous
 62
     4
100
AcDbLine
 10
587.1711840468601
 20
223.6642446873941
 30
0.0
 11
625.964438554717
 21
262.4574991952513
 31
0.0
1001
ACAD
1010
0.0
1020
0.0
1030
0.0
  0
LINE
  5
A30
330
11D
100
AcDbEntity
  8
1
  6
Continuous
 62
     4
100
AcDbLine
 10
597.7777857646587
 20
223.6642446873941
 30
0.0
 11
636.5710402725157
 21
262.4574991952513
 31
0.0
1001
ACAD
1010
0.0
1020
0.0
1030
0.0
  0
LINE
  5
A31
330
11D
100
AcDbEntity
  8
1
  6
Continuous
 62
     4
100
AcDbLine
 10
608.384387482457
 20
223.6642446873939
 30
0.0
 11
647.177641990314
 21
262.4574991952513
 31
0.0
1001
ACAD
1010
0.0
1020
0.0
1030
0.0
  0
LINE
  5
A32
330
11D
100
AcDbEntity
  8
1
  6
Continuous
 62
     4
100
AcDbLine
 10
618.9909892002551
 20
223.6642446873939
 30
0.0
 11
657.7842437081126
 21
262.4574991952513
 31
0.0
1001
ACAD
1010
0.0
1020
0.0
1030
0.0
  0
LINE
  5
A33
330
11D
100
AcDbEntity
  8
1
  6
Continuous
 62
     4
100
AcDbLine
 10
629.5975909180537
 20
223.6642446873939
 30
0.0
 11
668.3908454259107
 21
262.4574991952513
 31
0.0
1001
ACAD
1010
0.0
1020
0.0
1030
0.0
  0
LINE
  5
A34
330
11D
100
AcDbEntity
  8
1
  6
Continuous
 62
     4
100
AcDbLine
 10
640.204192635852
 20
223.6642446873939
 30
0.0
 11
678.997447143709
 21
262.4574991952513
 31
0.0
1001
ACAD
1010
0.0
1020
0.0
1030
0.0
  0
LINE
  5
A35
330
11D
100
AcDbEntity
  8
1
  6
Continuous
 62
     4
100
AcDbLine
 10
650.8107943536506
 20
223.6642446873939
 30
0.0
 11
689.6040488615075
 21
262.4574991952513
 31
0.0
1001
ACAD
1010
0.0
1020
0.0
1030
0.0
  0
LINE
  5
A36
330
11D
100
AcDbEntity
  8
1
  6
Continuous
 62
     4
100
AcDbLine
 10
661.4173960714487
 20
223.6642446873939
 30
0.0
 11
700.2106505793062
 21
262.4574991952513
 31
0.0
1001
ACAD
1010
0.0
1020
0.0
1030
0.0
  0
LINE
  5
A37
330
11D
100
AcDbEntity
  8
1
  6
Continuous
 62
     4
100
AcDbLine
 10
672.0239977892473
 20
223.6642446873939
 30
0.0
 11
710.8172522971043
 21
262.4574991952513
 31
0.0
1001
ACAD
1010
0.0
1020
0.0
1030
0.0
  0
LINE
  5
A38
330
11D
100
AcDbEntity
  8
1
  6
Continuous
 62
     4
100
AcDbLine
 10
682.6305995070456
 20
223.6642446873939
 30
0.0
 11
721.4238540149026
 21
262.4574991952513
 31
0.0
1001
ACAD
1010
0.0
1020
0.0
1030
0.0
  0
LINE
  5
A39
330
11D
100
AcDbEntity
  8
1
  6
Continuous
 62
     4
100
AcDbLine
 10
693.2372012248442
 20
223.6642446873939
 30
0.0
 11
732.0304557327013
 21
262.4574991952513
 31
0.0
1001
ACAD
1010
0.0
1020
0.0
1030
0.0
  0
LINE
  5
A3A
330
11D
100
AcDbEntity
  8
1
  6
Continuous
 62
     4
100
AcDbLine
 10
703.8438029426425
 20
223.6642446873939
 30
0.0
 11
742.6370574504999
 21
262.4574991952513
 31
0.0
1001
ACAD
1010
0.0
1020
0.0
1030
0.0
  0
LINE
  5
A3B
330
11D
100
AcDbEntity
  8
1
  6
Continuous
 62
     4
100
AcDbLine
 10
714.4504046604411
 20
223.6642446873939
 30
0.0
 11
753.2436591682982
 21
262.4574991952513
 31
0.0
1001
ACAD
1010
0.0
1020
0.0
1030
0.0
  0
LINE
  5
A3C
330
11D
100
AcDbEntity
  8
1
  6
Continuous
 62
     4
100
AcDbLine
 10
725.0570063782393
 20
223.6642446873939
 30
0.0
 11
763.8502608860961
 21
262.4574991952513
 31
0.0
1001
ACAD
1010
0.0
1020
0.0
1030
0.0
  0
LINE
  5
A3D
330
11D
100
AcDbEntity
  8
1
  6
Continuous
 62
     4
100
AcDbLine
 10
735.6636080960379
 20
223.6642446873939
 30
0.0
 11
774.4568626038948
 21
262.4574991952513
 31
0.0
1001
ACAD
1010
0.0
1020
0.0
1030
0.0
  0
LINE
  5
A3E
330
11D
100
AcDbEntity
  8
1
  6
Continuous
 62
     4
100
AcDbLine
 10
746.2702098138359
 20
223.6642446873939
 30
0.0
 11
785.0634643216936
 21
262.4574991952513
 31
0.0
1001
ACAD
1010
0.0
1020
0.0
1030
0.0
  0
LINE
  5
A3F
330
11D
100
AcDbEntity
  8
1
  6
Continuous
 62
     4
100
AcDbLine
 10
756.8768115316346
 20
223.6642446873939
 30
0.0
 11
795.6700660394917
 21
262.4574991952513
 31
0.0
1001
ACAD
1010
0.0
1020
0.0
1030
0.0
  0
LINE
  5
A40
330
11D
100
AcDbEntity
  8
1
  6
Continuous
 62
     4
100
AcDbLine
 10
767.4834132494328
 20
223.6642446873939
 30
0.0
 11
806.2766677572897
 21
262.4574991952513
 31
0.0
1001
ACAD
1010
0.0
1020
0.0
1030
0.0
  0
LINE
  5
A41
330
11D
100
AcDbEntity
  8
1
  6
Continuous
 62
     4
100
AcDbLine
 10
778.0900149672316
 20
223.6642446873939
 30
0.0
 11
816.8832694750886
 21
262.4574991952513
 31
0.0
1001
ACAD
1010
0.0
1020
0.0
1030
0.0
  0
LINE
  5
A42
330
11D
100
AcDbEntity
  8
1
  6
Continuous
 62
     4
100
AcDbLine
 10
788.6966166850298
 20
223.6642446873939
 30
0.0
 11
827.4898711928871
 21
262.4574991952513
 31
0.0
1001
ACAD
1010
0.0
1020
0.0
1030
0.0
  0
LINE
  5
A43
330
11D
100
AcDbEntity
  8
1
  6
Continuous
 62
     4
100
AcDbLine
 10
799.3032184028284
 20
223.6642446873939
 30
0.0
 11
838.0964729106853
 21
262.4574991952513
 31
0.0
1001
ACAD
1010
0.0
1020
0.0
1030
0.0
  0
LINE
  5
A44
330
11D
100
AcDbEntity
  8
1
  6
Continuous
 62
     4
100
AcDbLine
 10
809.9098201206265
 20
223.6642446873939
 30
0.0
 11
848.7030746284835
 21
262.4574991952513
 31
0.0
1001
ACAD
1010
0.0
1020
0.0
1030
0.0
  0
LINE
  5
A45
330
11D
100
AcDbEntity
  8
1
  6
Continuous
 62
     4
100
AcDbLine
 10
820.5164218384252
 20
223.6642446873939
 30
0.0
 11
859.3096763462822
 21
262.4574991952513
 31
0.0
1001
ACAD
1010
0.0
1020
0.0
1030
0.0
  0
LINE
  5
A46
330
11D
100
AcDbEntity
  8
1
  6
Continuous
 62
     4
100
AcDbLine
 10
831.1230235562234
 20
223.6642446873939
 30
0.0
 11
869.9162780640808
 21
262.4574991952513
 31
0.0
1001
ACAD
1010
0.0
1020
0.0
1030
0.0
  0
LINE
  5
A47
330
11D
100
AcDbEntity
  8
1
  6
Continuous
 62
     4
100
AcDbLine
 10
841.729625274022
 20
223.6642446873939
 30
0.0
 11
880.522879781879
 21
262.4574991952513
 31
0.0
1001
ACAD
1010
0.0
1020
0.0
1030
0.0
  0
LINE
  5
A48
330
11D
100
AcDbEntity
  8
1
  6
Continuous
 62
     4
100
AcDbLine
 10
852.3362269918202
 20
223.6642446873939
 30
0.0
 11
891.1294814996772
 21
262.4574991952513
 31
0.0
1001
ACAD
1010
0.0
1020
0.0
1030
0.0
  0
LINE
  5
A49
330
11D
100
AcDbEntity
  8
1
  6
Continuous
 62
     4
100
AcDbLine
 10
862.9428287096189
 20
223.6642446873939
 30
0.0
 11
901.7360832174759
 21
262.4574991952513
 31
0.0
1001
ACAD
1010
0.0
1020
0.0
1030
0.0
  0
LINE
  5
A4A
330
11D
100
AcDbEntity
  8
1
  6
Continuous
 62
     4
100
AcDbLine
 10
873.5494304274171
 20
223.6642446873939
 30
0.0
 11
912.3426849352744
 21
262.4574991952513
 31
0.0
1001
ACAD
1010
0.0
1020
0.0
1030
0.0
  0
LINE
  5
A4B
330
11D
100
AcDbEntity
  8
1
  6
Continuous
 62
     4
100
AcDbLine
 10
884.1560321452156
 20
223.6642446873939
 30
0.0
 11
922.9492866530726
 21
262.4574991952513
 31
0.0
1001
ACAD
1010
0.0
1020
0.0
1030
0.0
  0
LINE
  5
A4C
330
11D
100
AcDbEntity
  8
1
  6
Continuous
 62
     4
100
AcDbLine
 10
894.7626338630138
 20
223.6642446873939
 30
0.0
 11
933.5558883708708
 21
262.4574991952513
 31
0.0
1001
ACAD
1010
0.0
1020
0.0
1030
0.0
  0
LINE
  5
A4D
330
11D
100
AcDbEntity
  8
1
  6
Continuous
 62
     4
100
AcDbLine
 10
905.3692355808124
 20
223.6642446873939
 30
0.0
 11
944.1624900886695
 21
262.4574991952513
 31
0.0
1001
ACAD
1010
0.0
1020
0.0
1030
0.0
  0
LINE
  5
A4E
330
11D
100
AcDbEntity
  8
1
  6
Continuous
 62
     4
100
AcDbLine
 10
915.9758372986107
 20
223.6642446873939
 30
0.0
 11
954.7690918064681
 21
262.4574991952513
 31
0.0
1001
ACAD
1010
0.0
1020
0.0
1030
0.0
  0
LINE
  5
A4F
330
11D
100
AcDbEntity
  8
1
  6
Continuous
 62
     4
100
AcDbLine
 10
926.5824390164093
 20
223.6642446873939
 30
0.0
 11
965.3756935242663
 21
262.4574991952513
 31
0.0
1001
ACAD
1010
0.0
1020
0.0
1030
0.0
  0
LINE
  5
A50
330
11D
100
AcDbEntity
  8
1
  6
Continuous
 62
     4
100
AcDbLine
 10
937.1890407342077
 20
223.6642446873939
 30
0.0
 11
975.9822952420643
 21
262.4574991952513
 31
0.0
1001
ACAD
1010
0.0
1020
0.0
1030
0.0
  0
LINE
  5
A51
330
11D
100
AcDbEntity
  8
1
  6
Continuous
 62
     4
100
AcDbLine
 10
947.7956424520062
 20
223.6642446873939
 30
0.0
 11
986.5888969598632
 21
262.4574991952513
 31
0.0
1001
ACAD
1010
0.0
1020
0.0
1030
0.0
  0
LINE
  5
A52
330
11D
100
AcDbEntity
  8
1
  6
Continuous
 62
     4
100
AcDbLine
 10
958.4022441698044
 20
223.6642446873939
 30
0.0
 11
997.1954986776616
 21
262.4574991952513
 31
0.0
1001
ACAD
1010
0.0
1020
0.0
1030
0.0
  0
LINE
  5
A53
330
11D
100
AcDbEntity
  8
1
  6
Continuous
 62
     4
100
AcDbLine
 10
969.0088458876026
 20
223.6642446873939
 30
0.0
 11
1007.80210039546
 21
262.4574991952513
 31
0.0
1001
ACAD
1010
0.0
1020
0.0
1030
0.0
  0
LINE
  5
A54
330
11D
100
AcDbEntity
  8
1
  6
Continuous
 62
     4
100
AcDbLine
 10
979.6154476054013
 20
223.6642446873939
 30
0.0
 11
1018.408702113258
 21
262.4574991952513
 31
0.0
1001
ACAD
1010
0.0
1020
0.0
1030
0.0
  0
LINE
  5
A55
330
11D
100
AcDbEntity
  8
1
  6
Continuous
 62
     4
100
AcDbLine
 10
990.2220493232
 20
223.6642446873939
 30
0.0
 11
1029.015303831057
 21
262.4574991952513
 31
0.0
1001
ACAD
1010
0.0
1020
0.0
1030
0.0
  0
LINE
  5
A56
330
11D
100
AcDbEntity
  8
1
  6
Continuous
 62
     4
100
AcDbLine
 10
1000.828651040998
 20
223.6642446873939
 30
0.0
 11
1039.621905548855
 21
262.4574991952513
 31
0.0
1001
ACAD
1010
0.0
1020
0.0
1030
0.0
  0
LINE
  5
A57
330
11D
100
AcDbEntity
  8
1
  6
Continuous
 62
     4
100
AcDbLine
 10
1011.435252758795
 20
223.6642446873939
 30
0.0
 11
1050.228507266653
 21
262.4574991952513
 31
0.0
1001
ACAD
1010
0.0
1020
0.0
1030
0.0
  0
LINE
  5
A58
330
11D
100
AcDbEntity
  8
1
  6
Continuous
 62
     4
100
AcDbLine
 10
1022.041854476595
 20
223.6642446873939
 30
0.0
 11
1060.835108984452
 21
262.4574991952513
 31
0.0
1001
ACAD
1010
0.0
1020
0.0
1030
0.0
  0
LINE
  5
A59
330
11D
100
AcDbEntity
  8
1
  6
Continuous
 62
     4
100
AcDbLine
 10
1032.648456194393
 20
223.6642446873939
 30
0.0
 11
1071.44171070225
 21
262.4574991952513
 31
0.0
1001
ACAD
1010
0.0
1020
0.0
1030
0.0
  0
LINE
  5
A5A
330
11D
100
AcDbEntity
  8
1
  6
Continuous
 62
     4
100
AcDbLine
 10
1043.255057912191
 20
223.6642446873939
 30
0.0
 11
1082.048312420049
 21
262.4574991952513
 31
0.0
1001
ACAD
1010
0.0
1020
0.0
1030
0.0
  0
LINE
  5
A5B
330
11D
100
AcDbEntity
  8
1
  6
Continuous
 62
     4
100
AcDbLine
 10
1053.86165962999
 20
223.6642446873939
 30
0.0
 11
1092.654914137847
 21
262.4574991952513
 31
0.0
1001
ACAD
1010
0.0
1020
0.0
1030
0.0
  0
LINE
  5
A5C
330
11D
100
AcDbEntity
  8
1
  6
Continuous
 62
     4
100
AcDbLine
 10
1064.468261347789
 20
223.6642446873939
 30
0.0
 11
1103.261515855645
 21
262.4574991952513
 31
0.0
1001
ACAD
1010
0.0
1020
0.0
1030
0.0
  0
LINE
  5
A5D
330
11D
100
AcDbEntity
  8
1
  6
Continuous
 62
     4
100
AcDbLine
 10
1075.074863065586
 20
223.6642446873939
 30
0.0
 11
1113.868117573444
 21
262.4574991952513
 31
0.0
1001
ACAD
1010
0.0
1020
0.0
1030
0.0
  0
LINE
  5
A5E
330
11D
100
AcDbEntity
  8
1
  6
Continuous
 62
     4
100
AcDbLine
 10
1085.681464783385
 20
223.6642446873939
 30
0.0
 11
1124.474719291242
 21
262.4574991952513
 31
0.0
1001
ACAD
1010
0.0
1020
0.0
1030
0.0
  0
LINE
  5
A5F
330
11D
100
AcDbEntity
  8
1
  6
Continuous
 62
     4
100
AcDbLine
 10
1096.288066501183
 20
223.6642446873939
 30
0.0
 11
1135.08132100904
 21
262.4574991952513
 31
0.0
1001
ACAD
1010
0.0
1020
0.0
1030
0.0
  0
LINE
  5
A60
330
11D
100
AcDbEntity
  8
1
  6
Continuous
 62
     4
100
AcDbLine
 10
1106.894668218981
 20
223.6642446873939
 30
0.0
 11
1145.687922726839
 21
262.4574991952513
 31
0.0
1001
ACAD
1010
0.0
1020
0.0
1030
0.0
  0
LINE
  5
A61
330
11D
100
AcDbEntity
  8
1
  6
Continuous
 62
     4
100
AcDbLine
 10
1117.501269936781
 20
223.6642446873939
 30
0.0
 11
1156.294524444638
 21
262.4574991952513
 31
0.0
1001
ACAD
1010
0.0
1020
0.0
1030
0.0
  0
LINE
  5
A62
330
11D
100
AcDbEntity
  8
1
  6
Continuous
 62
     4
100
AcDbLine
 10
1128.107871654579
 20
223.6642446873939
 30
0.0
 11
1166.901126162436
 21
262.4574991952513
 31
0.0
1001
ACAD
1010
0.0
1020
0.0
1030
0.0
  0
LINE
  5
A63
330
11D
100
AcDbEntity
  8
1
  6
Continuous
 62
     4
100
AcDbLine
 10
1138.714473372376
 20
223.6642446873939
 30
0.0
 11
1177.507727880234
 21
262.4574991952513
 31
0.0
1001
ACAD
1010
0.0
1020
0.0
1030
0.0
  0
LINE
  5
A64
330
11D
100
AcDbEntity
  8
1
  6
Continuous
 62
     4
100
AcDbLine
 10
1149.321075090176
 20
223.6642446873939
 30
0.0
 11
1188.114329598032
 21
262.4574991952513
 31
0.0
1001
ACAD
1010
0.0
1020
0.0
1030
0.0
  0
LINE
  5
A65
330
11D
100
AcDbEntity
  8
1
  6
Continuous
 62
     4
100
AcDbLine
 10
1159.927676807974
 20
223.6642446873939
 30
0.0
 11
1198.720931315831
 21
262.4574991952513
 31
0.0
1001
ACAD
1010
0.0
1020
0.0
1030
0.0
  0
LINE
  5
A66
330
11D
100
AcDbEntity
  8
1
  6
Continuous
 62
     4
100
AcDbLine
 10
1170.534278525771
 20
223.6642446873939
 30
0.0
 11
1209.32753303363
 21
262.4574991952513
 31
0.0
1001
ACAD
1010
0.0
1020
0.0
1030
0.0
  0
LINE
  5
A67
330
11D
100
AcDbEntity
  8
1
  6
Continuous
 62
     4
100
AcDbLine
 10
1181.140880243571
 20
223.6642446873939
 30
0.0
 11
1219.934134751428
 21
262.4574991952513
 31
0.0
1001
ACAD
1010
0.0
1020
0.0
1030
0.0
  0
LINE
  5
A68
330
11D
100
AcDbEntity
  8
1
  6
Continuous
 62
     4
100
AcDbLine
 10
1191.74748196137
 20
223.6642446873939
 30
0.0
 11
1230.540736469226
 21
262.4574991952513
 31
0.0
1001
ACAD
1010
0.0
1020
0.0
1030
0.0
  0
LINE
  5
A69
330
11D
100
AcDbEntity
  8
1
  6
Continuous
 62
     4
100
AcDbLine
 10
1202.354083679167
 20
223.6642446873939
 30
0.0
 11
1241.147338187025
 21
262.4574991952513
 31
0.0
1001
ACAD
1010
0.0
1020
0.0
1030
0.0
  0
LINE
  5
A6A
330
11D
100
AcDbEntity
  8
1
  6
Continuous
 62
     4
100
AcDbLine
 10
1212.960685396966
 20
223.6642446873939
 30
0.0
 11
1251.753939904824
 21
262.4574991952513
 31
0.0
1001
ACAD
1010
0.0
1020
0.0
1030
0.0
  0
LINE
  5
A6B
330
11D
100
AcDbEntity
  8
1
  6
Continuous
 62
     4
100
AcDbLine
 10
1223.567287114764
 20
223.6642446873939
 30
0.0
 11
1262.360541622622
 21
262.4574991952513
 31
0.0
1001
ACAD
1010
0.0
1020
0.0
1030
0.0
  0
LINE
  5
A6C
330
11D
100
AcDbEntity
  8
1
  6
Continuous
 62
     4
100
AcDbLine
 10
1234.173888832563
 20
223.6642446873939
 30
0.0
 11
1272.967143340419
 21
262.4574991952513
 31
0.0
1001
ACAD
1010
0.0
1020
0.0
1030
0.0
  0
LINE
  5
A6D
330
11D
100
AcDbEntity
  8
1
  6
Continuous
 62
     4
100
AcDbLine
 10
1244.780490550361
 20
223.6642446873939
 30
0.0
 11
1283.573745058218
 21
262.4574991952513
 31
0.0
1001
ACAD
1010
0.0
1020
0.0
1030
0.0
  0
LINE
  5
A6E
330
11D
100
AcDbEntity
  8
1
  6
Continuous
 62
     4
100
AcDbLine
 10
1255.38709226816
 20
223.6642446873939
 30
0.0
 11
1294.180346776016
 21
262.4574991952513
 31
0.0
1001
ACAD
1010
0.0
1020
0.0
1030
0.0
  0
LINE
  5
A6F
330
11D
100
AcDbEntity
  8
1
  6
Continuous
 62
     4
100
AcDbLine
 10
1265.993693985957
 20
223.6642446873939
 30
0.0
 11
1304.786948493815
 21
262.4574991952513
 31
0.0
1001
ACAD
1010
0.0
1020
0.0
1030
0.0
  0
LINE
  5
A70
330
11D
100
AcDbEntity
  8
1
  6
Continuous
 62
     4
100
AcDbLine
 10
1276.600295703756
 20
223.6642446873939
 30
0.0
 11
1306.605420760314
 21
253.6693697439516
 31
0.0
1001
ACAD
1010
0.0
1020
0.0
1030
0.0
  0
LINE
  5
A71
330
11D
100
AcDbEntity
  8
1
  6
Continuous
 62
     4
100
AcDbLine
 10
1287.206897421555
 20
223.6642446873939
 30
0.0
 11
1306.605420760314
 21
243.0627680261533
 31
0.0
1001
ACAD
1010
0.0
1020
0.0
1030
0.0
  0
LINE
  5
A72
330
11D
100
AcDbEntity
  8
1
  6
Continuous
 62
     4
100
AcDbLine
 10
1297.813499139353
 20
223.6642446873939
 30
0.0
 11
1306.605420760314
 21
232.4561663083548
 31
0.0
1001
ACAD
1010
0.0
1020
0.0
1030
0.0
  0
LINE
  5
A80
330
11D
100
AcDbEntity
  8
1
  6
Continuous
 62
     4
100
AcDbLine
 10
1045.444026960065
 20
894.9238586568856
 30
0.0
 11
1045.444026960065
 21
924.0429120896255
 31
0.0
1001
ACAD
1010
0.0
1020
0.0
1030
0.0
  0
LINE
  5
A81
330
11D
100
AcDbEntity
  8
1
  6
Continuous
 62
     4
100
AcDbLine
 10
1052.427651666898
 20
904.5082809539362
 30
0.0
 11
1052.427651666899
 21
917.0736950965981
 31
0.0
  0
LINE
  5
A83
330
11D
100
AcDbEntity
  8
1
  6
Continuous
 62
     4
100
AcDbLine
 10
1038.460402253231
 20
894.9238586568856
 30
0.0
 11
1038.460402253231
 21
923.7975374733522
 31
0.0
1001
ACAD
1010
0.0
1020
0.0
1030
0.0
  0
LINE
  5
A85
330
11D
100
AcDbEntity
  8
1
  6
Continuous
 62
     4
100
AcDbLine
 10
1031.476777546399
 20
885.3394363598351
 30
0.0
 11
1031.476777546399
 21
923.0839333984173
 31
0.0
1001
ACAD
1010
0.0
1020
0.0
1030
0.0
  0
LINE
  5
A86
330
11D
100
AcDbEntity
  8
1
  6
Continuous
 62
     4
100
AcDbLine
 10
1024.493152839565
 20
875.7550140627843
 30
0.0
 11
1024.493152839565
 21
922.3703293234821
 31
0.0
1001
ACAD
1010
0.0
1020
0.0
1030
0.0
  0
LINE
  5
A87
330
11D
100
AcDbEntity
  8
1
  6
Continuous
 62
     4
100
AcDbLine
 10
1017.509528132733
 20
875.7550140627843
 30
0.0
 11
1017.509528132733
 21
921.6567252485468
 31
0.0
1001
ACAD
1010
0.0
1020
0.0
1030
0.0
  0
LINE
  5
A88
330
11D
100
AcDbEntity
  8
1
  6
Continuous
 62
     4
100
AcDbLine
 10
1010.525903425899
 20
866.1705917657339
 30
0.0
 11
1010.525903425899
 21
920.9431211736117
 31
0.0
1001
ACAD
1010
0.0
1020
0.0
1030
0.0
  0
LINE
  5
A89
330
11D
100
AcDbEntity
  8
1
  6
Continuous
 62
     4
100
AcDbLine
 10
1003.542278719066
 20
856.5861694686836
 30
0.0
 11
1003.542278719066
 21
920.2295170986767
 31
0.0
1001
ACAD
1010
0.0
1020
0.0
1030
0.0
  0
LINE
  5
A8A
330
11D
100
AcDbEntity
  8
1
  6
Continuous
 62
     4
100
AcDbLine
 10
996.5586540122339
 20
847.0017471716321
 30
0.0
 11
996.5586540122339
 21
918.7708907583541
 31
0.0
1001
ACAD
1010
0.0
1020
0.0
1030
0.0
  0
LINE
  5
A8B
330
11D
100
AcDbEntity
  8
1
  6
Continuous
 62
     4
100
AcDbLine
 10
989.5750293054007
 20
847.0017471716326
 30
0.0
 11
989.5750293054007
 21
911.7904522539577
 31
0.0
1001
ACAD
1010
0.0
1020
0.0
1030
0.0
  0
LINE
  5
A8C
330
11D
100
AcDbEntity
  8
1
  6
Continuous
 62
     4
100
AcDbLine
 10
982.5914045985678
 20
837.4173248745821
 30
0.0
 11
982.5914045985678
 21
904.8100137495607
 31
0.0
1001
ACAD
1010
0.0
1020
0.0
1030
0.0
  0
LINE
  5
A8D
330
11D
100
AcDbEntity
  8
1
  6
Continuous
 62
     4
100
AcDbLine
 10
975.6077798917347
 20
827.8329025775308
 30
0.0
 11
975.6077798917347
 21
897.8295752451641
 31
0.0
1001
ACAD
1010
0.0
1020
0.0
1030
0.0
  0
LINE
  5
A8E
330
11D
100
AcDbEntity
  8
1
  6
Continuous
 62
     4
100
AcDbLine
 10
968.6241551849017
 20
817.0283330788457
 30
0.0
 11
968.6241551849017
 21
890.8491367407675
 31
0.0
1001
ACAD
1010
0.0
1020
0.0
1030
0.0
  0
LINE
  5
A8F
330
11D
100
AcDbEntity
  8
1
  6
Continuous
 62
     4
100
AcDbLine
 10
961.6405304780682
 20
810.0478945744487
 30
0.0
 11
961.6405304780682
 21
883.8686982363707
 31
0.0
1001
ACAD
1010
0.0
1020
0.0
1030
0.0
  0
LINE
  5
A90
330
11D
100
AcDbEntity
  8
1
  6
Continuous
 62
     4
100
AcDbLine
 10
954.656905771235
 20
803.067456070052
 30
0.0
 11
954.656905771235
 21
876.8882597319739
 31
0.0
1001
ACAD
1010
0.0
1020
0.0
1030
0.0
  0
LINE
  5
A91
330
11D
100
AcDbEntity
  8
1
  6
Continuous
 62
     4
100
AcDbLine
 10
947.6732810644019
 20
796.0870175656558
 30
0.0
 11
947.6732810644019
 21
869.9078212275772
 31
0.0
1001
ACAD
1010
0.0
1020
0.0
1030
0.0
  0
LINE
  5
A92
330
11D
100
AcDbEntity
  8
1
  6
Continuous
 62
     4
100
AcDbLine
 10
940.6896563575683
 20
789.1065790612587
 30
0.0
 11
940.6896563575687
 21
862.9273827231804
 31
0.0
1001
ACAD
1010
0.0
1020
0.0
1030
0.0
  0
LINE
  5
A93
330
11D
100
AcDbEntity
  8
1
  6
Continuous
 62
     4
100
AcDbLine
 10
933.7060316507352
 20
782.1261405568617
 30
0.0
 11
933.706031650736
 21
855.946944218784
 31
0.0
1001
ACAD
1010
0.0
1020
0.0
1030
0.0
  0
LINE
  5
A94
330
11D
100
AcDbEntity
  8
1
  6
Continuous
 62
     4
100
AcDbLine
 10
926.7224069439034
 20
775.1457020524659
 30
0.0
 11
926.7224069439032
 21
848.9665057143875
 31
0.0
1001
ACAD
1010
0.0
1020
0.0
1030
0.0
  0
LINE
  5
A95
330
11D
100
AcDbEntity
  8
1
  6
Continuous
 62
     4
100
AcDbLine
 10
919.7387822370696
 20
768.1652635480686
 30
0.0
 11
919.7387822370696
 21
841.9860672099906
 31
0.0
1001
ACAD
1010
0.0
1020
0.0
1030
0.0
  0
LINE
  5
A96
330
11D
100
AcDbEntity
  8
1
  6
Continuous
 62
     4
100
AcDbLine
 10
912.7551575302367
 20
761.184825043672
 30
0.0
 11
912.7551575302367
 21
835.005628705594
 31
0.0
1001
ACAD
1010
0.0
1020
0.0
1030
0.0
  0
LINE
  5
A97
330
11D
100
AcDbEntity
  8
1
  6
Continuous
 62
     4
100
AcDbLine
 10
905.7715328234037
 20
754.2043865392753
 30
0.0
 11
905.7715328234037
 21
828.0251902011974
 31
0.0
1001
ACAD
1010
0.0
1020
0.0
1030
0.0
  0
LINE
  5
A98
330
11D
100
AcDbEntity
  8
1
  6
Continuous
 62
     4
100
AcDbLine
 10
898.7879081165701
 20
747.2239480348787
 30
0.0
 11
898.7879081165706
 21
821.0447516968008
 31
0.0
1001
ACAD
1010
0.0
1020
0.0
1030
0.0
  0
LINE
  5
A99
330
11D
100
AcDbEntity
  8
1
  6
Continuous
 62
     4
100
AcDbLine
 10
891.8042834097366
 20
740.2435095304817
 30
0.0
 11
891.8042834097366
 21
814.0643131924035
 31
0.0
1001
ACAD
1010
0.0
1020
0.0
1030
0.0
  0
LINE
  5
A9A
330
11D
100
AcDbEntity
  8
1
  6
Continuous
 62
     4
100
AcDbLine
 10
884.8206587029045
 20
733.2630710260854
 30
0.0
 11
884.8206587029045
 21
807.0838746880072
 31
0.0
1001
ACAD
1010
0.0
1020
0.0
1030
0.0
  0
LINE
  5
A9B
330
11D
100
AcDbEntity
  8
1
  6
Continuous
 62
     4
100
AcDbLine
 10
877.837033996071
 20
726.2826325216885
 30
0.0
 11
877.837033996071
 21
800.1034361836106
 31
0.0
1001
ACAD
1010
0.0
1020
0.0
1030
0.0
  0
LINE
  5
A9C
330
11D
100
AcDbEntity
  8
1
  6
Continuous
 62
     4
100
AcDbLine
 10
870.8534092892378
 20
719.3021940172915
 30
0.0
 11
870.8534092892378
 21
793.1229976792137
 31
0.0
1001
ACAD
1010
0.0
1020
0.0
1030
0.0
  0
LINE
  5
A9D
330
11D
100
AcDbEntity
  8
1
  6
Continuous
 62
     4
100
AcDbLine
 10
863.8697845824049
 20
712.3217555128952
 30
0.0
 11
863.8697845824053
 21
786.1425591748175
 31
0.0
1001
ACAD
1010
0.0
1020
0.0
1030
0.0
  0
LINE
  5
A9E
330
11D
100
AcDbEntity
  8
1
  6
Continuous
 62
     4
100
AcDbLine
 10
856.8861598755715
 20
705.3413170084984
 30
0.0
 11
856.8861598755715
 21
779.1621206704206
 31
0.0
1001
ACAD
1010
0.0
1020
0.0
1030
0.0
  0
LINE
  5
A9F
330
11D
100
AcDbEntity
  8
1
  6
Continuous
 62
     4
100
AcDbLine
 10
849.9025351687388
 20
698.3608785041017
 30
0.0
 11
849.9025351687388
 21
772.1816821660239
 31
0.0
1001
ACAD
1010
0.0
1020
0.0
1030
0.0
  0
LINE
  5
AA0
330
11D
100
AcDbEntity
  8
1
  6
Continuous
 62
     4
100
AcDbLine
 10
842.9189104619052
 20
691.3804399997052
 30
0.0
 11
842.9189104619052
 21
765.2012436616272
 31
0.0
1001
ACAD
1010
0.0
1020
0.0
1030
0.0
  0
LINE
  5
AA1
330
11D
100
AcDbEntity
  8
1
  6
Continuous
 62
     4
100
AcDbLine
 10
835.9352857550723
 20
684.4000014953085
 30
0.0
 11
835.9352857550723
 21
758.2208051572306
 31
0.0
1001
ACAD
1010
0.0
1020
0.0
1030
0.0
  0
LINE
  5
AA2
330
11D
100
AcDbEntity
  8
1
  6
Continuous
 62
     4
100
AcDbLine
 10
828.9516610482396
 20
677.4195629909116
 30
0.0
 11
828.9516610482396
 21
751.2403666528341
 31
0.0
1001
ACAD
1010
0.0
1020
0.0
1030
0.0
  0
LINE
  5
AA3
330
11D
100
AcDbEntity
  8
1
  6
Continuous
 62
     4
100
AcDbLine
 10
821.9680363414061
 20
670.4391244865148
 30
0.0
 11
821.9680363414061
 21
744.2599281484372
 31
0.0
1001
ACAD
1010
0.0
1020
0.0
1030
0.0
  0
LINE
  5
AA4
330
11D
100
AcDbEntity
  8
1
  6
Continuous
 62
     4
100
AcDbLine
 10
814.9844116345729
 20
663.4586859821182
 30
0.0
 11
814.9844116345729
 21
737.2794896440407
 31
0.0
1001
ACAD
1010
0.0
1020
0.0
1030
0.0
  0
LINE
  5
AA5
330
11D
100
AcDbEntity
  8
1
  6
Continuous
 62
     4
100
AcDbLine
 10
808.0007869277403
 20
656.4782474777214
 30
0.0
 11
808.0007869277403
 21
730.2990511396439
 31
0.0
1001
ACAD
1010
0.0
1020
0.0
1030
0.0
  0
LINE
  5
AA6
330
11D
100
AcDbEntity
  8
1
  6
Continuous
 62
     4
100
AcDbLine
 10
801.0171622209067
 20
656.408544630054
 30
0.0
 11
801.0171622209073
 21
723.3186126352473
 31
0.0
1001
ACAD
1010
0.0
1020
0.0
1030
0.0
  0
LINE
  5
AA7
330
11D
100
AcDbEntity
  8
1
  6
Continuous
 62
     4
100
AcDbLine
 10
794.0335375140739
 20
663.3777616230803
 30
0.0
 11
794.0335375140739
 21
716.3381741308507
 31
0.0
1001
ACAD
1010
0.0
1020
0.0
1030
0.0
  0
LINE
  5
AA8
330
11D
100
AcDbEntity
  8
1
  6
Continuous
 62
     4
100
AcDbLine
 10
787.0499128072406
 20
670.3469786161066
 30
0.0
 11
787.0499128072406
 21
709.3577356264537
 31
0.0
1001
ACAD
1010
0.0
1020
0.0
1030
0.0
  0
LINE
  5
AA9
330
11D
100
AcDbEntity
  8
1
  6
Continuous
 62
     4
100
AcDbLine
 10
780.0662881004077
 20
677.3161956091333
 30
0.0
 11
780.0662881004077
 21
702.3772971220571
 31
0.0
1001
ACAD
1010
0.0
1020
0.0
1030
0.0
  0
LINE
  5
AAA
330
11D
100
AcDbEntity
  8
1
  6
Continuous
 62
     4
100
AcDbLine
 10
773.0826633935744
 20
684.2854126021593
 30
0.0
 11
773.0826633935744
 21
695.3968586176605
 31
0.0
1001
ACAD
1010
0.0
1020
0.0
1030
0.0
  0
LINE
  5
AAB
330
11D
100
AcDbEntity
  8
1
  6
Continuous
 62
     4
100
AcDbLine
 10
1161.215848052625
 20
745.2957989519412
 30
0.0
 11
1161.215848052625
 21
808.5099364870888
 31
0.0
1001
ACAD
1010
0.0
1020
0.0
1030
0.0
  0
LINE
  5
AAC
330
11D
100
AcDbEntity
  8
1
  6
Continuous
 62
     4
100
AcDbLine
 10
1168.199472759454
 20
767.9698019250837
 30
0.0
 11
1168.199472759459
 21
801.5407194940619
 31
0.0
  0
LINE
  5
AAD
330
11D
100
AcDbEntity
  8
1
  6
Continuous
 62
     4
100
AcDbLine
 10
1154.232223345792
 20
738.3153604475449
 30
0.0
 11
1154.232223345792
 21
803.8718468349053
 31
0.0
1001
ACAD
1010
0.0
1020
0.0
1030
0.0
  0
LINE
  5
AAE
330
11D
100
AcDbEntity
  8
1
  6
Continuous
 62
     4
100
AcDbLine
 10
1147.248598638959
 20
731.3349219431484
 30
0.0
 11
1147.248598638959
 21
803.8718468349053
 31
0.0
1001
ACAD
1010
0.0
1020
0.0
1030
0.0
  0
LINE
  5
AAF
330
11D
100
AcDbEntity
  8
1
  6
Continuous
 62
     4
100
AcDbLine
 10
1140.264973932126
 20
724.3544834387518
 30
0.0
 11
1140.264973932126
 21
794.2874245378548
 31
0.0
1001
ACAD
1010
0.0
1020
0.0
1030
0.0
  0
LINE
  5
AB0
330
11D
100
AcDbEntity
  8
1
  6
Continuous
 62
     4
100
AcDbLine
 10
1133.281349225293
 20
717.3740449343552
 30
0.0
 11
1133.281349225293
 21
784.7030022408038
 31
0.0
1001
ACAD
1010
0.0
1020
0.0
1030
0.0
  0
LINE
  5
AB1
330
11D
100
AcDbEntity
  8
1
  6
Continuous
 62
     4
100
AcDbLine
 10
1126.297724518459
 20
710.3936064299586
 30
0.0
 11
1126.297724518459
 21
775.1185799437535
 31
0.0
1001
ACAD
1010
0.0
1020
0.0
1030
0.0
  0
LINE
  5
AB2
330
11D
100
AcDbEntity
  8
1
  6
Continuous
 62
     4
100
AcDbLine
 10
1119.314099811627
 20
703.4131679255624
 30
0.0
 11
1119.314099811627
 21
775.1185799437538
 31
0.0
1001
ACAD
1010
0.0
1020
0.0
1030
0.0
  0
LINE
  5
AB3
330
11D
100
AcDbEntity
  8
1
  6
Continuous
 62
     4
100
AcDbLine
 10
1112.330475104792
 20
696.4327294211656
 30
0.0
 11
1112.330475104792
 21
765.5341576467028
 31
0.0
1001
ACAD
1010
0.0
1020
0.0
1030
0.0
  0
LINE
  5
AB4
330
11D
100
AcDbEntity
  8
1
  6
Continuous
 62
     4
100
AcDbLine
 10
1105.346850397959
 20
689.4522909167691
 30
0.0
 11
1105.346850397959
 21
755.9497353496522
 31
0.0
1001
ACAD
1010
0.0
1020
0.0
1030
0.0
  0
LINE
  5
ABC
330
11D
100
AcDbEntity
  8
1
  6
Continuous
 62
     4
100
AcDbLine
 10
1098.363225691127
 20
682.4718524123722
 30
0.0
 11
1098.363225691127
 21
746.3653130526007
 31
0.0
1001
ACAD
1010
0.0
1020
0.0
1030
0.0
  0
LINE
  5
ABD
330
11D
100
AcDbEntity
  8
1
  6
Continuous
 62
     4
100
AcDbLine
 10
1091.379600984293
 20
675.4914139079758
 30
0.0
 11
1091.379600984293
 21
746.3653130526019
 31
0.0
1001
ACAD
1010
0.0
1020
0.0
1030
0.0
  0
LINE
  5
ABE
330
11D
100
AcDbEntity
  8
1
  6
Continuous
 62
     4
100
AcDbLine
 10
1084.395976277461
 20
668.5109754035789
 30
0.0
 11
1084.395976277461
 21
736.7808907555513
 31
0.0
1001
ACAD
1010
0.0
1020
0.0
1030
0.0
  0
LINE
  5
ABF
330
11D
100
AcDbEntity
  8
1
  6
Continuous
 62
     4
100
AcDbLine
 10
1077.412351570628
 20
661.5305368991823
 30
0.0
 11
1077.412351570628
 21
727.1964684584998
 31
0.0
1001
ACAD
1010
0.0
1020
0.0
1030
0.0
  0
LINE
  5
AC0
330
11D
100
AcDbEntity
  8
1
  6
Continuous
 62
     4
100
AcDbLine
 10
1070.428726863794
 20
654.5500983947857
 30
0.0
 11
1070.428726863794
 21
727.1964684585005
 31
0.0
1001
ACAD
1010
0.0
1020
0.0
1030
0.0
  0
LINE
  5
AC1
330
11D
100
AcDbEntity
  8
1
  6
Continuous
 62
     4
100
AcDbLine
 10
1063.445102156961
 20
659.8637071061291
 30
0.0
 11
1063.445102156961
 21
717.6120461614496
 31
0.0
1001
ACAD
1010
0.0
1020
0.0
1030
0.0
  0
LINE
  5
AC2
330
11D
100
AcDbEntity
  8
1
  6
Continuous
 62
     4
100
AcDbLine
 10
1056.461477450126
 20
676.5661859837366
 30
0.0
 11
1056.461477450128
 21
713.7593701368524
 31
0.0
1001
ACAD
1010
0.0
1020
0.0
1030
0.0
  0
LINE
  5
AC3
330
11D
100
AcDbEntity
  8
1
  6
Continuous
 62
     4
100
AcDbLine
 10
1049.477852743295
 20
693.2686648613437
 30
0.0
 11
1049.477852743295
 21
706.7789316324556
 31
0.0
1001
ACAD
1010
0.0
1020
0.0
1030
0.0
  0
LINE
  5
AC4
330
11D
100
AcDbEntity
  8
1
  6
Continuous
 62
     3
100
AcDbLine
 10
1038.655307376536
 20
930.8324702595516
 30
0.0
 11
916.5849833140995
 21
1052.935726963371
 31
0.0
  0
LINE
  5
AC5
330
11D
100
AcDbEntity
  8
1
  6
Continuous
 62
     3
100
AcDbLine
 10
675.2776330839019
 20
441.3223185002376
 30
0.0
 11
490.1734521728934
 21
626.5043560593666
 31
0.0
  0
LINE
  5
AC6
330
11D
100
AcDbEntity
  8
1
  6
Continuous
 62
     3
100
AcDbLine
 10
513.3064784611933
 20
636.9041517842697
 30
0.0
 11
704.243525324019
 21
827.7807564037093
 31
0.0
  0
LINE
  5
AC7
330
11D
100
AcDbEntity
  8
1
  6
Continuous
 62
     7
100
AcDbLine
 10
757.683655613363
 20
605.5436819166275
 30
0.0
 11
796.4946164914326
 21
644.3369357180293
 31
0.0
  0
LINE
  5
AC8
330
11D
100
AcDbEntity
  8
1
  6
Continuous
 62
     7
100
AcDbLine
 10
1306.605420760314
 20
262.4574991952513
 30
0.0
 11
545.6414679411364
 21
262.4574991952513
 31
0.0
  0
LINE
  5
AC9
330
11D
100
AcDbEntity
  8
1
  6
Continuous
 62
     7
100
AcDbLine
 10
545.5477471383257
 20
342.8354530304891
 30
0.0
 11
545.660975108653
 21
223.6642453938498
 31
0.0
  0
LINE
  5
ACA
330
11D
100
AcDbEntity
  8
1
  6
Continuous
 62
     7
100
AcDbLine
 10
545.3977471383255
 20
644.336935718029
 30
0.0
 11
545.5277471383261
 21
362.2554530304892
 31
0.0
  0
LINE
  5
ACB
330
11D
100
AcDbEntity
  8
1
  6
Continuous
 62
     7
100
AcDbLine
 10
545.5277471383261
 20
362.2554530304892
 30
0.0
 11
558.3877471383256
 21
356.7454530304889
 31
0.0
  0
LINE
  5
ACC
330
11D
100
AcDbEntity
  8
1
  6
Continuous
 62
     7
100
AcDbLine
 10
558.3877471383256
 20
356.7454530304889
 30
0.0
 11
531.1877471383259
 21
347.1454530304889
 31
0.0
  0
LINE
  5
ACD
330
11D
100
AcDbEntity
  8
1
  6
Continuous
 62
     7
100
AcDbLine
 10
531.1877471383259
 20
347.1454530304889
 30
0.0
 11
545.5477471383257
 21
342.8354530304891
 31
0.0
  0
LINE
  5
ACE
330
11D
100
AcDbEntity
  8
1
  6
Continuous
 62
     7
100
AcDbLine
 10
796.4946164914326
 20
644.3369357180293
 30
0.0
 11
545.3977471383255
 21
644.336935718029
 31
0.0
  0
LINE
  5
ACF
330
11D
100
AcDbEntity
  8
1
  6
Continuous
 62
     7
100
AcDbLine
 10
1306.605420760314
 20
507.8132522688074
 30
0.0
 11
1306.605420760314
 21
223.6642453938498
 31
0.0
  0
LINE
  5
AD0
330
11D
100
AcDbEntity
  8
1
  6
Continuous
 62
     7
100
AcDbLine
 10
1306.605420760314
 20
644.336935718029
 30
0.0
 11
1070.214384745228
 21
644.3369357180287
 31
0.0
  0
LINE
  5
AD1
330
11D
100
AcDbEntity
  8
1
  6
Continuous
 62
     7
100
AcDbLine
 10
1306.605420760314
 20
644.336935718029
 30
0.0
 11
1306.605420760314
 21
527.2232522688073
 31
0.0
  0
LINE
  5
AD2
330
11D
100
AcDbEntity
  8
1
  6
Continuous
 62
     7
100
AcDbLine
 10
1306.605420760314
 20
527.2232522688073
 30
0.0
 11
1319.465420760313
 21
521.7132522688075
 31
0.0
  0
LINE
  5
AD3
330
11D
100
AcDbEntity
  8
1
  6
Continuous
 62
     7
100
AcDbLine
 10
1292.265420760314
 20
512.1132522688078
 30
0.0
 11
1306.605420760314
 21
507.8132522688074
 31
0.0
  0
LINE
  5
AD4
330
11D
100
AcDbEntity
  8
1
  6
Continuous
 62
     7
100
AcDbLine
 10
1319.465420760313
 20
521.7132522688075
 30
0.0
 11
1292.265420760314
 21
512.1132522688078
 31
0.0
  0
LINE
  5
AD5
330
11D
100
AcDbEntity
  8
1
  6
Continuous
 62
     7
100
AcDbLine
 10
1306.624929949651
 20
223.6642446873942
 30
0.0
 11
545.6609771304751
 21
223.6642446873941
 31
0.0
  0
LINE
  5
AD6
330
11D
100
AcDbEntity
  8
1
  6
Continuous
 62
     7
100
AcDbLine
 10
739.5319339216261
 20
644.3369343831034
 30
0.0
 11
545.3977458313582
 21
644.3369343831034
 31
0.0
  0
LINE
  5
AD7
330
11D
100
AcDbEntity
  8
1
  6
Continuous
 62
     7
100
AcDbLine
 10
757.683655613363
 20
605.5436819166275
 30
0.0
 11
545.4263882275698
 21
605.5436819166275
 31
0.0
  0
LINE
  5
AD8
330
11D
100
AcDbEntity
  8
1
  6
Continuous
 62
     7
100
AcDbLine
 10
1306.605420760314
 20
605.2468165850299
 30
0.0
 11
1070.214384745228
 21
605.2468165850299
 31
0.0
  0
LINE
  5
AD9
330
11D
100
AcDbEntity
  8
1
  6
Continuous
 62
     7
100
AcDbLine
 10
1070.214381729567
 20
605.2468171988038
 30
0.0
 11
1070.214381729567
 21
644.3369363318026
 31
0.0
  0
LINE
  5
ADA
330
11D
100
AcDbEntity
  8
1
  6
Continuous
 62
     7
100
AcDbLine
 10
988.4327447904864
 20
847.0017471716326
 30
0.0
 11
998.017167087536
 21
847.0017471716319
 31
0.0
  0
LINE
  5
ADB
330
11D
100
AcDbEntity
  8
1
  6
Continuous
 62
     7
100
AcDbLine
 10
1060.315912018363
 20
717.6120461614496
 30
0.0
 11
969.2639001963847
 21
818.2484802804806
 31
0.0
  0
LINE
  5
ADC
330
11D
100
AcDbEntity
  8
1
  6
Continuous
 62
     7
100
AcDbLine
 10
978.8483224934353
 20
827.8329025775306
 30
0.0
 11
1069.900334315414
 21
727.1964684585005
 31
0.0
  0
LINE
  5
ADD
330
11D
100
AcDbEntity
  8
1
  6
Continuous
 62
     7
100
AcDbLine
 10
1079.484756612466
 20
736.7808907555506
 30
0.0
 11
988.4327447904864
 21
837.4173248745824
 31
0.0
  0
LINE
  5
ADE
330
11D
100
AcDbEntity
  8
1
  6
Continuous
 62
     7
100
AcDbLine
 10
1079.484756612467
 20
736.7808907555513
 30
0.0
 11
988.4327447904864
 21
837.4173248745824
 31
0.0
  0
LINE
  5
ADF
330
11D
100
AcDbEntity
  8
1
  6
Continuous
 62
     7
100
AcDbLine
 10
767.5199332647313
 20
689.8366664236341
 30
0.0
 11
997.3888907064146
 21
919.6007486661187
 31
0.0
  0
LINE
  5
AE0
330
11D
100
AcDbEntity
  8
1
  6
Continuous
 62
     7
100
AcDbLine
 10
804.4768881104554
 20
652.9559564007541
 30
0.0
 11
969.3177242706527
 21
817.7215857312836
 31
0.0
  0
LINE
  5
AE1
330
11D
100
AcDbEntity
  8
1
  6
Continuous
 62
     7
100
AcDbLine
 10
804.4768881104554
 20
652.9559564007541
 30
0.0
 11
767.5199332647313
 21
689.8366664236341
 31
0.0
  0
LINE
  5
AE2
330
11D
100
AcDbEntity
  8
1
  6
Continuous
 62
     7
100
AcDbLine
 10
978.8483224934353
 20
827.8329025775306
 30
0.0
 11
978.8483224934353
 21
837.4173248745819
 31
0.0
  0
LINE
  5
AE3
330
11D
100
AcDbEntity
  8
1
  6
Continuous
 62
     7
100
AcDbLine
 10
969.2639001963847
 20
818.2484802804806
 30
0.0
 11
969.2639001963847
 21
827.832902577531
 31
0.0
  0
LINE
  5
AE4
330
11D
100
AcDbEntity
  8
1
  6
Continuous
 62
     7
100
AcDbLine
 10
969.2639001963847
 20
827.832902577531
 30
0.0
 11
978.8483224934353
 21
827.8329025775306
 31
0.0
  0
LINE
  5
AE5
330
11D
100
AcDbEntity
  8
1
  6
Continuous
 62
     7
100
AcDbLine
 10
978.8483224934353
 20
837.4173248745819
 30
0.0
 11
988.4327447904864
 21
837.4173248745824
 31
0.0
  0
LINE
  5
AE6
330
11D
100
AcDbEntity
  8
1
  6
Continuous
 62
     7
100
AcDbLine
 10
988.4327447904864
 20
837.4173248745824
 30
0.0
 11
988.4327447904864
 21
847.0017471716326
 31
0.0
  0
LINE
  5
AE7
330
11D
100
AcDbEntity
  8
1
  6
Continuous
 62
     7
100
AcDbLine
 10
1045.493941838368
 20
702.7968383433321
 30
0.0
 11
1060.315912018363
 21
717.6120461614496
 31
0.0
  0
LINE
  5
AE8
330
11D
100
AcDbEntity
  8
1
  6
Continuous
 62
     7
100
AcDbLine
 10
1067.070373929773
 20
651.1932776725814
 30
0.0
 11
1166.404466876394
 21
750.4820505250882
 31
0.0
  0
LINE
  5
AE9
330
11D
100
AcDbEntity
  8
1
  6
Continuous
 62
     7
100
AcDbLine
 10
1067.070373929773
 20
651.1932776725814
 30
0.0
 11
1045.493941838368
 21
702.7968383433321
 31
0.0
  0
LINE
  5
AEA
330
11D
100
AcDbEntity
  8
1
  6
Continuous
 62
     7
100
AcDbLine
 10
1026.770433978688
 20
875.7550140627843
 30
0.0
 11
1026.770433978688
 21
885.3394363598352
 31
0.0
  0
LINE
  5
AEB
330
11D
100
AcDbEntity
  8
1
  6
Continuous
 62
     7
100
AcDbLine
 10
1156.160134988871
 20
813.456269131956
 30
0.0
 11
1055.52370086984
 21
914.0927032509873
 31
0.0
  0
LINE
  5
AEC
330
11D
100
AcDbEntity
  8
1
  6
Continuous
 62
     7
100
AcDbLine
 10
1136.99129039477
 20
794.2874245378548
 30
0.0
 11
1045.939278572789
 21
894.9238586568856
 31
0.0
  0
LINE
  5
AED
330
11D
100
AcDbEntity
  8
1
  6
Continuous
 62
     7
100
AcDbLine
 10
1055.52370086984
 20
904.5082809539362
 30
0.0
 11
1146.57571269182
 21
803.8718468349053
 31
0.0
  0
LINE
  5
AEE
330
11D
100
AcDbEntity
  8
1
  6
Continuous
 62
     7
100
AcDbLine
 10
1036.354856275738
 20
885.3394363598349
 30
0.0
 11
1127.406868097719
 21
784.7030022408042
 31
0.0
  0
LINE
  5
AEF
330
11D
100
AcDbEntity
  8
1
  6
Continuous
 62
     7
100
AcDbLine
 10
1171.376782865201
 20
798.3699644047472
 30
0.0
 11
1045.01841001714
 21
924.4676509545655
 31
0.0
  0
LINE
  5
AF0
330
11D
100
AcDbEntity
  8
1
  6
Continuous
 62
     7
100
AcDbLine
 10
1098.653601206568
 20
755.9497353496525
 30
0.0
 11
1108.238023503619
 21
755.9497353496519
 31
0.0
  0
LINE
  5
AF1
330
11D
100
AcDbEntity
  8
1
  6
Continuous
 62
     7
100
AcDbLine
 10
1017.186011681638
 20
866.1705917657341
 30
0.0
 11
1108.238023503619
 21
765.534157646703
 31
0.0
  0
LINE
  5
AF2
330
11D
100
AcDbEntity
  8
1
  6
Continuous
 62
     7
100
AcDbLine
 10
1117.822445800668
 20
775.1185799437538
 30
0.0
 11
1026.770433978688
 21
875.7550140627843
 31
0.0
  0
LINE
  5
AF3
330
11D
100
AcDbEntity
  8
1
  6
Continuous
 62
     7
100
AcDbLine
 10
998.017167087536
 20
847.0017471716319
 30
0.0
 11
1089.069178909518
 21
746.3653130526022
 31
0.0
  0
LINE
  5
AF4
330
11D
100
AcDbEntity
  8
1
  6
Continuous
 62
     7
100
AcDbLine
 10
1098.653601206568
 20
755.9497353496525
 30
0.0
 11
1007.601589384587
 21
856.5861694686834
 31
0.0
  0
LINE
  5
AF5
330
11D
100
AcDbEntity
  8
1
  6
Continuous
 62
     7
100
AcDbLine
 10
1098.653601206565
 20
746.3653130526007
 30
0.0
 11
1098.653601206568
 21
755.9497353496525
 31
0.0
  0
LINE
  5
AF6
330
11D
100
AcDbEntity
  8
1
  6
Continuous
 62
     7
100
AcDbLine
 10
1069.900334315414
 20
727.1964684585005
 30
0.0
 11
1079.484756612466
 21
727.1964684584994
 31
0.0
  0
LINE
  5
AF7
330
11D
100
AcDbEntity
  8
1
  6
Continuous
 62
     7
100
AcDbLine
 10
1060.315912018363
 20
717.6120461614496
 30
0.0
 11
1069.900334315414
 21
717.6120461614495
 31
0.0
  0
LINE
  5
AF8
330
11D
100
AcDbEntity
  8
1
  6
Continuous
 62
     7
100
AcDbLine
 10
1069.900334315414
 20
717.6120461614495
 30
0.0
 11
1069.900334315414
 21
727.1964684585005
 31
0.0
  0
LINE
  5
AF9
330
11D
100
AcDbEntity
  8
1
  6
Continuous
 62
     7
100
AcDbLine
 10
1079.484756612466
 20
727.1964684584994
 30
0.0
 11
1079.484756612466
 21
736.7808907555506
 31
0.0
  0
LINE
  5
AFA
330
11D
100
AcDbEntity
  8
1
  6
Continuous
 62
     7
100
AcDbLine
 10
1079.484756612466
 20
736.7808907555506
 30
0.0
 11
1089.069178909518
 21
736.7808907555511
 31
0.0
  0
LINE
  5
AFB
330
11D
100
AcDbEntity
  8
1
  6
Continuous
 62
     7
100
AcDbLine
 10
1079.484756612467
 20
736.7808907555513
 30
0.0
 11
1089.069178909518
 21
736.7808907555511
 31
0.0
  0
LINE
  5
AFC
330
11D
100
AcDbEntity
  8
1
  6
Continuous
 62
     7
100
AcDbLine
 10
1089.069178909518
 20
746.3653130526022
 30
0.0
 11
1098.653601206565
 21
746.3653130526007
 31
0.0
  0
LINE
  5
AFD
330
11D
100
AcDbEntity
  8
1
  6
Continuous
 62
     7
100
AcDbLine
 10
1089.069178909518
 20
736.7808907555511
 30
0.0
 11
1089.069178909518
 21
746.3653130526022
 31
0.0
  0
LINE
  5
AFE
330
11D
100
AcDbEntity
  8
1
  6
Continuous
 62
     7
100
AcDbLine
 10
1017.186011681638
 20
875.7550140627843
 30
0.0
 11
1026.770433978688
 21
875.7550140627843
 31
0.0
  0
LINE
  5
AFF
330
11D
100
AcDbEntity
  8
1
  6
Continuous
 62
     7
100
AcDbLine
 10
998.017167087536
 20
847.0017471716319
 30
0.0
 11
998.0171670875376
 21
856.5861694686837
 31
0.0
  0
LINE
  5
B00
330
11D
100
AcDbEntity
  8
1
  6
Continuous
 62
     7
100
AcDbLine
 10
1007.601589384587
 20
866.1705917657336
 30
0.0
 11
1017.186011681638
 21
866.1705917657341
 31
0.0
  0
LINE
  5
B01
330
11D
100
AcDbEntity
  8
1
  6
Continuous
 62
     7
100
AcDbLine
 10
998.0171670875376
 20
856.5861694686837
 30
0.0
 11
1007.601589384587
 21
856.5861694686834
 31
0.0
  0
LINE
  5
B02
330
11D
100
AcDbEntity
  8
1
  6
Continuous
 62
     7
100
AcDbLine
 10
1007.601589384587
 20
856.5861694686834
 30
0.0
 11
1007.601589384587
 21
866.1705917657336
 31
0.0
  0
LINE
  5
B03
330
11D
100
AcDbEntity
  8
1
  6
Continuous
 62
     7
100
AcDbLine
 10
1017.186011681638
 20
866.1705917657341
 30
0.0
 11
1017.186011681638
 21
875.7550140627843
 31
0.0
  0
LINE
  5
B04
330
11D
100
AcDbEntity
  8
1
  6
Continuous
 62
     7
100
AcDbLine
 10
1146.575712691821
 20
794.2874245378548
 30
0.0
 11
1146.57571269182
 21
803.8718468349053
 31
0.0
  0
LINE
  5
B05
330
11D
100
AcDbEntity
  8
1
  6
Continuous
 62
     7
100
AcDbLine
 10
1166.404466876394
 20
750.4820505250882
 30
0.0
 11
1171.2955219624
 21
798.1329001601809
 31
0.0
  0
LINE
  5
B06
330
11D
100
AcDbEntity
  8
1
  6
Continuous
 62
     7
100
AcDbLine
 10
1127.406868097719
 20
784.7030022408042
 30
0.0
 11
1136.99129039477
 21
784.7030022408037
 31
0.0
  0
LINE
  5
B07
330
11D
100
AcDbEntity
  8
1
  6
Continuous
 62
     7
100
AcDbLine
 10
1127.406868097719
 20
775.1185799437535
 30
0.0
 11
1127.406868097719
 21
784.7030022408042
 31
0.0
  0
LINE
  5
B08
330
11D
100
AcDbEntity
  8
1
  6
Continuous
 62
     7
100
AcDbLine
 10
1108.238023503619
 20
765.534157646703
 30
0.0
 11
1117.822445800668
 21
765.5341576467027
 31
0.0
  0
LINE
  5
B09
330
11D
100
AcDbEntity
  8
1
  6
Continuous
 62
     7
100
AcDbLine
 10
1108.238023503619
 20
755.9497353496519
 30
0.0
 11
1108.238023503619
 21
765.534157646703
 31
0.0
  0
LINE
  5
B0A
330
11D
100
AcDbEntity
  8
1
  6
Continuous
 62
     7
100
AcDbLine
 10
1117.822445800668
 20
775.1185799437538
 30
0.0
 11
1127.406868097719
 21
775.1185799437535
 31
0.0
  0
LINE
  5
B0B
330
11D
100
AcDbEntity
  8
1
  6
Continuous
 62
     7
100
AcDbLine
 10
1117.822445800668
 20
765.5341576467027
 30
0.0
 11
1117.822445800668
 21
775.1185799437538
 31
0.0
  0
LINE
  5
B0C
330
11D
100
AcDbEntity
  8
1
  6
Continuous
 62
     7
100
AcDbLine
 10
1136.99129039477
 20
794.2874245378548
 30
0.0
 11
1146.575712691821
 21
794.2874245378548
 31
0.0
  0
LINE
  5
B0D
330
11D
100
AcDbEntity
  8
1
  6
Continuous
 62
     7
100
AcDbLine
 10
1136.99129039477
 20
784.7030022408037
 30
0.0
 11
1136.99129039477
 21
794.2874245378548
 31
0.0
  0
LINE
  5
B0E
330
11D
100
AcDbEntity
  8
1
  6
Continuous
 62
     7
100
AcDbLine
 10
1146.57571269182
 20
803.8718468349053
 30
0.0
 11
1156.160134988871
 21
803.8718468349053
 31
0.0
  0
LINE
  5
B0F
330
11D
100
AcDbEntity
  8
1
  6
Continuous
 62
     7
100
AcDbLine
 10
1156.160134988871
 20
803.8718468349053
 30
0.0
 11
1156.160134988871
 21
813.456269131956
 31
0.0
  0
LINE
  5
B10
330
11D
100
AcDbEntity
  8
1
  6
Continuous
 62
     7
100
AcDbLine
 10
1045.939278572789
 20
904.5082809539362
 30
0.0
 11
1055.52370086984
 21
904.5082809539362
 31
0.0
  0
LINE
  5
B11
330
11D
100
AcDbEntity
  8
1
  6
Continuous
 62
     7
100
AcDbLine
 10
1045.939278572789
 20
894.9238586568856
 30
0.0
 11
1045.939278572789
 21
904.5082809539362
 31
0.0
  0
LINE
  5
B12
330
11D
100
AcDbEntity
  8
1
  6
Continuous
 62
     7
100
AcDbLine
 10
1026.770433978688
 20
885.3394363598352
 30
0.0
 11
1036.354856275738
 21
885.3394363598349
 31
0.0
  0
LINE
  5
B13
330
11D
100
AcDbEntity
  8
1
  6
Continuous
 62
     7
100
AcDbLine
 10
1036.354856275738
 20
894.9238586568856
 30
0.0
 11
1045.939278572789
 21
894.9238586568856
 31
0.0
  0
LINE
  5
B14
330
11D
100
AcDbEntity
  8
1
  6
Continuous
 62
     7
100
AcDbLine
 10
1036.354856275738
 20
885.3394363598349
 30
0.0
 11
1036.354856275738
 21
894.9238586568856
 31
0.0
  0
LINE
  5
B15
330
11D
100
AcDbEntity
  8
1
  6
Continuous
 62
     7
100
AcDbLine
 10
997.3653333442038
 20
919.5983415164835
 30
0.0
 11
1045.01841001714
 21
924.4676509545655
 31
0.0
  0
LINE
  5
B16
330
11D
100
AcDbEntity
  8
1
  6
Continuous
 62
     7
100
AcDbLine
 10
1055.52370086984
 20
904.5082809539362
 30
0.0
 11
1055.52370086984
 21
914.0927032509873
 31
0.0
  0
LINE
  5
B17
330
11D
100
AcDbEntity
  8
1
  6
Continuous
 62
     3
100
AcDbLine
 10
922.9480859547047
 20
1046.570907658386
 30
0.0
 11
910.8133971953476
 21
1025.169589964703
 31
0.0
  0
LINE
  5
B18
330
11D
100
AcDbEntity
  8
1
  6
Continuous
 62
     3
100
AcDbLine
 10
922.9480859547047
 20
1046.570907658386
 30
0.0
 11
901.5429274186713
 21
1034.442995292291
 31
0.0
  0
LINE
  5
B19
330
11D
100
AcDbEntity
  8
1
  6
Continuous
 62
     3
100
AcDbLine
 10
901.5429274186713
 20
1034.442995292291
 30
0.0
 11
910.8133971953476
 21
1025.169589964703
 31
0.0
  0
LINE
  5
B1A
330
11D
100
AcDbEntity
  8
1
  6
Continuous
 62
     3
100
AcDbLine
 10
496.5365548134987
 20
620.1395367543803
 30
0.0
 11
517.9417133495311
 21
632.2674491204767
 31
0.0
  0
LINE
  5
B1B
330
11D
100
AcDbEntity
  8
1
  6
Continuous
 62
     3
100
AcDbLine
 10
496.5365548134987
 20
620.1395367543803
 30
0.0
 11
508.671243572855
 21
641.5408544480637
 31
0.0
  0
LINE
  5
B1C
330
11D
100
AcDbEntity
  8
1
  6
Continuous
 62
     3
100
AcDbLine
 10
508.671243572855
 20
641.5408544480637
 30
0.0
 11
517.9417133495311
 21
632.2674491204767
 31
0.0
  0
LINE
  5
B31
330
11D
100
AcDbEntity
  8
1
  6
Continuous
 62
     3
100
AcDbLine
 10
740.7739435267638
 20
864.2996106880616
 30
0.0
 11
906.2555737215872
 21
1029.728856701122
 31
0.0
  0
LINE
  5
B37
330
11D
100
AcDbEntity
  8
1
  6
Continuous
 62
     5
100
AcDbLine
 10
726.9750631718839
 20
849.1649879541943
 30
0.0
 11
736.9750631718838
 21
849.1649879541943
 31
0.0
  0
ENDSEC
  0
SECTION
  2
OBJECTS
  0
DICTIONARY
  5
10B
330
0
100
AcDbDictionary
281
     1
  3
ACAD_COLOR
350
728
  3
ACAD_GROUP
350
10C
  3
ACAD_LAYOUT
350
72B
  3
ACAD_MATERIAL
350
713
  3
ACAD_MLINESTYLE
350
115
  3
ACAD_PLOTSETTINGS
350
117
  3
ACAD_PLOTSTYLENAME
350
10D
  3
ACAD_TABLESTYLE
350
729
  3
ACAD_VISUALSTYLE
350
717
  3
ACDBVARIABLEDICTIONARY
350
3C4
  3
DWGPROPS
350
B1F
  0
DICTIONARY
  5
732
330
731
100
AcDbDictionary
280
     1
281
     1
  3
ADSK_XREC_LAYER_RECONCILED
360
733
  0
DICTIONARY
  5
735
330
734
100
AcDbDictionary
280
     1
281
     1
  0
DICTIONARY
  5
2F6
330
11D
100
AcDbDictionary
280
     1
281
     1
  3
ACAD_LAYOUTSELFREF
360
710
  3
ACAD_SORTENTS
360
A84
  0
DICTIONARY
  5
2F4
330
119
100
AcDbDictionary
280
     1
281
     1
  3
ACAD_LAYOUTSELFREF
360
70F
  0
DICTIONARY
  5
728
102
{ACAD_REACTORS
330
10B
102
}
330
10B
100
AcDbDictionary
281
     1
  0
DICTIONARY
  5
10C
102
{ACAD_REACTORS
330
10B
102
}
330
10B
100
AcDbDictionary
281
     1
  0
DICTIONARY
  5
72B
102
{ACAD_REACTORS
330
10B
102
}
330
10B
100
AcDbDictionary
281
     1
  3
Layout1
350
72D
  3
Model
350
72C
  0
DICTIONARY
  5
713
102
{ACAD_REACTORS
330
10B
102
}
330
10B
100
AcDbDictionary
281
     1
  3
ByBlock
350
715
  3
ByLayer
350
714
  3
Global
350
716
  0
DICTIONARY
  5
115
102
{ACAD_REACTORS
330
10B
102
}
330
10B
100
AcDbDictionary
281
     1
  3
STANDARD
350
116
  0
DICTIONARY
  5
117
102
{ACAD_REACTORS
330
10B
102
}
330
10B
100
AcDbDictionary
281
     1
  0
ACDBDICTIONARYWDFLT
  5
10D
102
{ACAD_REACTORS
330
10B
102
}
330
10B
100
AcDbDictionary
281
     1
  3
Normal
350
10E
100
AcDbDictionaryWithDefault
340
10E
  0
DICTIONARY
  5
729
102
{ACAD_REACTORS
330
10B
102
}
330
10B
100
AcDbDictionary
281
     1
  3
Standard
350
72A
  0
DICTIONARY
  5
717
102
{ACAD_REACTORS
330
10B
102
}
330
10B
100
AcDbDictionary
281
     1
  3
2dWireframe
350
71D
  3
3D Hidden
350
71F
  3
3dWireframe
350
71E
  3
Basic
350
71C
  3
Brighten
350
723
  3
ColorChange
350
727
  3
Conceptual
350
720
  3
Dim
350
722
  3
Facepattern
350
726
  3
Flat
350
718
  3
FlatWithEdges
350
719
  3
Gouraud
350
71A
  3
GouraudWithEdges
350
71B
  3
Linepattern
350
725
  3
Realistic
350
721
  3
Thicken
350
724
  0
DICTIONARY
  5
3C4
102
{ACAD_REACTORS
330
10B
102
}
330
10B
100
AcDbDictionary
281
     1
  3
CTABLESTYLE
350
9F2
  3
DIMASSOC
350
B1E
  3
INDEXCTL
350
B1D
  3
SORTENTS
350
3C5
  0
XRECORD
  5
B1F
102
{ACAD_REACTORS
330
10B
102
}
330
10B
100
AcDbXrecord
280
     1
  1
DWGPROPS COOKIE
  2

  3

  4

  6

  7

  8
Horia
  9

300
=
301
=
302
=
303
=
304
=
305
=
306
=
307
=
308
=
309
=
 40
0.5930798726851851
 41
2452231.501284722
 42
2456343.420097419
  1

 90
        0
  0
XRECORD
  5
733
102
{ACAD_REACTORS
330
732
102
}
330
732
100
AcDbXrecord
280
     1
290
     1
  0
XRECORD
  5
710
102
{ACAD_REACTORS
330
2F6
102
}
330
2F6
100
AcDbXrecord
280
     1
340
11D
  0
SORTENTSTABLE
  5
A84
102
{ACAD_REACTORS
330
2F6
102
}
330
2F6
100
AcDbSortentsTable
330
11D
331
A1B
  5
678
331
9FB
  5
525
331
AC0
  5
A51
331
A2B
  5
686
331
A98
  5
A2F
331
A70
  5
A15
331
67B
  5
48C
331
AA8
  5
A3F
331
A50
  5
9F4
331
A88
  5
A1D
331
A38
  5
695
331
A60
  5
A04
331
A18
  5
675
331
A28
  5
683
331
9F8
  5
4CC
331
ABD
  5
A4E
331
A08
  5
651
331
A95
  5
A2C
331
AA5
  5
A3C
331
A6D
  5
A12
331
A85
  5
A1A
331
A4D
  5
9F0
331
150
  5
150
331
A5D
  5
A01
331
A35
  5
690
331
A45
  5
6A3
331
A15
  5
672
331
9F5
  5
4BA
331
A25
  5
682
331
645
  5
34D
331
A92
  5
A29
331
A05
  5
649
331
A6A
  5
A0F
331
AA2
  5
A39
331
A4A
  5
9ED
331
A32
  5
68D
331
A5A
  5
9FE
331
A12
  5
66B
331
A42
  5
69F
331
A22
  5
67F
331
A02
  5
646
331
A9F
  5
A36
331
672
  5
475
331
472
  5
19D
331
AAF
  5
A46
331
A57
  5
9FB
331
A8F
  5
A24
331
AB2
  5
A49
331
A3F
  5
69C
331
A67
  5
A0C
331
A1F
  5
67C
331
9FF
  5
643
331
A2F
  5
68A
331
A9C
  5
A33
331
A0F
  5
662
331
67F
  5
48E
331
AAC
  5
A4C
331
A54
  5
9F8
331
A8C
  5
A21
331
A64
  5
A08
331
A3C
  5
699
331
A1C
  5
679
331
A2C
  5
687
331
9FC
  5
52B
331
AC1
  5
A52
331
A0C
  5
65F
331
A99
  5
A30
331
AA9
  5
A40
331
A71
  5
A16
331
A89
  5
A1E
331
A51
  5
9F5
331
A39
  5
696
331
A61
  5
A05
331
A19
  5
676
331
9F9
  5
4CD
331
ABE
  5
A4F
331
A29
  5
684
331
A96
  5
A2D
331
A09
  5
652
331
A6E
  5
A13
331
AA6
  5
A3D
331
A4E
  5
9F1
331
A86
  5
A1B
331
A36
  5
691
331
A5E
  5
A02
331
A16
  5
673
331
A46
  5
6A4
331
9F6
  5
4CA
331
A06
  5
64A
331
A93
  5
A2A
331
676
  5
477
331
AA3
  5
A3A
331
A6B
  5
A10
331
A83
  5
A19
331
A4B
  5
9EE
331
A5B
  5
9FF
331
A33
  5
68E
331
A43
  5
6A1
331
A13
  5
66D
331
A23
  5
680
331
9F3
  5
495
331
A90
  5
A25
331
A03
  5
647
331
A68
  5
A0D
331
AA0
  5
A37
331
A48
  5
6A7
331
A80
  5
A18
331
AB3
  5
A4A
331
A30
  5
68B
331
A58
  5
9FC
331
A10
  5
663
331
A40
  5
69D
331
A20
  5
67D
331
A00
  5
644
331
A9D
  5
A34
331
AAD
  5
A44
331
A55
  5
9F9
331
A8D
  5
A22
331
AB0
  5
A47
331
A3D
  5
69A
331
A65
  5
A09
331
A1D
  5
67A
331
9FD
  5
532
331
AC2
  5
A53
331
A2D
  5
688
331
A9A
  5
A31
331
A0D
  5
660
331
355
  5
19C
331
A72
  5
A17
331
AAA
  5
A41
331
A52
  5
9F6
331
A8A
  5
A1F
331
A3A
  5
697
331
A62
  5
A06
331
A1A
  5
677
331
A2A
  5
685
331
9FA
  5
51E
331
ABF
  5
A50
331
A0A
  5
65E
331
64A
  5
355
331
A97
  5
A2E
331
AA7
  5
A3E
331
A6F
  5
A14
331
A87
  5
A1C
331
A4F
  5
9F3
331
A5F
  5
A03
331
A37
  5
693
331
A17
  5
674
331
A47
  5
6A5
331
9F7
  5
4CB
331
ABC
  5
A4D
331
A94
  5
A2B
331
A07
  5
64B
331
A6C
  5
A11
331
677
  5
48B
331
AA4
  5
A3B
331
A4C
  5
9EF
331
A34
  5
68F
331
A5C
  5
A00
331
A14
  5
671
331
A44
  5
6A2
331
9F4
  5
4A7
331
A24
  5
681
331
644
  5
1EA
331
A91
  5
A28
331
A04
  5
648
331
AA1
  5
A38
331
164
  5
164
331
A69
  5
A0E
331
A81
  5
A42
331
A49
  5
9EC
331
A59
  5
9FD
331
AB4
  5
A4B
331
A31
  5
68C
331
A41
  5
69E
331
A11
  5
664
331
A21
  5
67E
331
A01
  5
645
331
671
  5
472
331
A9E
  5
A35
331
AAE
  5
A45
331
AB1
  5
A48
331
A8E
  5
A23
331
A56
  5
9FA
331
A66
  5
A0A
331
A3E
  5
69B
331
A1E
  5
67B
331
A2E
  5
689
331
9FE
  5
53A
331
AC3
  5
A54
331
A0E
  5
661
331
A9B
  5
A32
331
67E
  5
48D
331
AAB
  5
A43
331
A53
  5
9F7
331
A8B
  5
A20
331
A3B
  5
698
331
A63
  5
A07
  0
XRECORD
  5
70F
102
{ACAD_REACTORS
330
2F4
102
}
330
2F4
100
AcDbXrecord
280
     1
340
119
  0
LAYOUT
  5
72D
102
{ACAD_XDICTIONARY
360
B2A
102
}
102
{ACAD_REACTORS
330
72B
102
}
330
72B
100
AcDbPlotSettings
  1

  2
Microsoft XPS Document Writer
  4

  6

 40
0.0
 41
0.0
 42
0.0
 43
0.0
 44
0.0
 45
0.0
 46
0.0
 47
0.0
 48
0.0
 49
0.0
140
0.0
141
0.0
142
1.0
143
1.0
 70
   688
 72
     0
 73
     0
 74
     5
  7

 75
    16
147
1.0
148
0.0
149
0.0
100
AcDbLayout
  1
Layout1
 70
     0
 71
     1
 10
0.0
 20
0.0
 11
12.0
 21
9.0
 12
0.0
 22
0.0
 32
0.0
 14
-1.000000000000000E+20
 24
-1.000000000000000E+20
 34
-1.000000000000000E+20
 15
-1.000000000000000E+20
 25
-1.000000000000000E+20
 35
-1.000000000000000E+20
146
0.0
 13
0.0
 23
0.0
 33
0.0
 16
1.0
 26
0.0
 36
0.0
 17
0.0
 27
1.0
 37
0.0
 76
     0
330
119
  0
LAYOUT
  5
72C
102
{ACAD_XDICTIONARY
360
B28
102
}
102
{ACAD_REACTORS
330
72B
102
}
330
72B
100
AcDbPlotSettings
  1

  2
Microsoft XPS Document Writer
  4

  6

 40
0.0
 41
0.0
 42
0.0
 43
0.0
 44
0.0
 45
0.0
 46
0.0
 47
0.0
 48
0.0
 49
0.0
140
0.0
141
0.0
142
1.0
143
1.0
 70
  1712
 72
     0
 73
     0
 74
     0
  7

 75
     0
147
1.0
148
0.0
149
0.0
100
AcDbLayout
  1
Model
 70
     1
 71
     0
 10
0.0
 20
0.0
 11
12.0
 21
9.0
 12
0.0
 22
0.0
 32
0.0
 14
0.0
 24
0.0
 34
0.0
 15
0.0
 25
0.0
 35
0.0
146
0.0
 13
0.0
 23
0.0
 33
0.0
 16
1.0
 26
0.0
 36
0.0
 17
0.0
 27
1.0
 37
0.0
 76
     0
330
11D
331
6EE
  0
MATERIAL
  5
715
102
{ACAD_XDICTIONARY
360
B22
102
}
102
{ACAD_REACTORS
330
713
102
}
330
713
100
AcDbMaterial
  1
ByBlock
  0
MATERIAL
  5
714
102
{ACAD_XDICTIONARY
360
B20
102
}
102
{ACAD_REACTORS
330
713
102
}
330
713
100
AcDbMaterial
  1
ByLayer
  0
MATERIAL
  5
716
102
{ACAD_XDICTIONARY
360
B24
102
}
102
{ACAD_REACTORS
330
713
102
}
330
713
100
AcDbMaterial
  1
Global
  0
MLINESTYLE
  5
116
102
{ACAD_REACTORS
330
115
102
}
330
115
100
AcDbMlineStyle
  2
STANDARD
 70
     0
  3

 62
   256
 51
90.0
 52
90.0
 71
     2
 49
0.5
 62
   256
  6
BYLAYER
 49
-0.5
 62
   256
  6
BYLAYER
  0
ACDBPLACEHOLDER
  5
10E
102
{ACAD_REACTORS
330
10D
102
}
330
10D
  0
TABLESTYLE
  5
72A
102
{ACAD_XDICTIONARY
360
B26
102
}
102
{ACAD_REACTORS
330
729
102
}
330
729
100
AcDbTableStyle
  3
Standard
 70
     0
 71
     0
 40
0.06
 41
0.06
280
     0
281
     0
  7
STANDARD
140
0.18
170
     2
 62
     0
 63
     7
283
     0
274
    -2
284
     1
 64
     0
275
    -2
285
     1
 65
     0
276
    -2
286
     1
 66
     0
277
    -2
287
     1
 67
     0
278
    -2
288
     1
 68
     0
279
    -2
289
     1
 69
     0
  7
STANDARD
140
0.25
170
     5
 62
     0
 63
     7
283
     0
274
    -2
284
     1
 64
     0
275
    -2
285
     1
 65
     0
276
    -2
286
     1
 66
     0
277
    -2
287
     1
 67
     0
278
    -2
288
     1
 68
     0
279
    -2
289
     1
 69
     0
  7
STANDARD
140
0.18
170
     5
 62
     0
 63
     7
283
     0
274
    -2
284
     1
 64
     0
275
    -2
285
     1
 65
     0
276
    -2
286
     1
 66
     0
277
    -2
287
     1
 67
     0
278
    -2
288
     1
 68
     0
279
    -2
289
     1
 69
     0
  0
VISUALSTYLE
  5
71D
102
{ACAD_REACTORS
330
717
102
}
330
717
100
AcDbVisualStyle
  2
2dWireframe
 70
     4
 71
     0
 72
     2
 73
     0
 90
        0
 40
-0.6
 41
-30.0
 62
     5
 63
     7
 74
     1
 91
        4
 64
     7
 65
   257
 75
     1
175
     1
 42
1.0
 92
        0
 66
   257
 43
1.0
 76
     1
 77
     6
 78
     2
 67
     7
 79
     5
170
     0
171
     0
290
     0
174
     0
 93
        1
 44
0.0
173
     0
291
     0
 45
0.0
1001
ACAD
1000
AcDbSavedByObjectVersion
1070
     0
  0
VISUALSTYLE
  5
71F
102
{ACAD_REACTORS
330
717
102
}
330
717
100
AcDbVisualStyle
  2
3D Hidden
 70
     6
 71
     1
 72
     2
 73
     2
 90
        0
 40
-0.6
 41
-30.0
 62
     5
 63
     7
 74
     2
 91
        2
 64
     7
 65
   257
 75
     2
175
     1
 42
40.0
 92
        0
 66
   257
 43
1.0
 76
     1
 77
     6
 78
     2
 67
     7
 79
     3
170
     0
171
     0
290
     0
174
     0
 93
        1
 44
0.0
173
     0
291
     0
 45
0.0
1001
ACAD
1000
AcDbSavedByObjectVersion
1070
     0
  0
VISUALSTYLE
  5
71E
102
{ACAD_REACTORS
330
717
102
}
330
717
100
AcDbVisualStyle
  2
3dWireframe
 70
     5
 71
     0
 72
     2
 73
     0
 90
        0
 40
-0.6
 41
-30.0
 62
     5
 63
     7
 74
     1
 91
        4
 64
     7
 65
   257
 75
     1
175
     1
 42
1.0
 92
        0
 66
   257
 43
1.0
 76
     1
 77
     6
 78
     2
 67
     7
 79
     5
170
     0
171
     0
290
     0
174
     0
 93
        1
 44
0.0
173
     0
291
     0
 45
0.0
1001
ACAD
1000
AcDbSavedByObjectVersion
1070
     0
  0
VISUALSTYLE
  5
71C
102
{ACAD_REACTORS
330
717
102
}
330
717
100
AcDbVisualStyle
  2
Basic
 70
     7
 71
     1
 72
     0
 73
     1
 90
        0
 40
-0.6
 41
-30.0
 62
     5
 63
     7
 74
     0
 91
        4
 64
     7
 65
   257
 75
     1
175
     1
 42
1.0
 92
        8
 66
     7
 43
1.0
 76
     1
 77
     6
 78
     2
 67
     7
 79
     5
170
     0
171
     0
290
     0
174
     0
 93
        1
 44
0.0
173
     0
291
     1
 45
0.0
1001
ACAD
1000
AcDbSavedByObjectVersion
1070
     0
  0
VISUALSTYLE
  5
723
102
{ACAD_REACTORS
330
717
102
}
330
717
100
AcDbVisualStyle
  2
Brighten
 70
    12
 71
     2
 72
     2
 73
     0
 90
        0
 40
-0.6
 41
-30.0
 62
     5
 63
     7
 74
     1
 91
        4
 64
     7
 65
   257
 75
     1
175
     1
 42
1.0
 92
        8
 66
     7
 43
1.0
 76
     1
 77
     6
 78
     2
 67
     7
 79
     5
170
     0
171
     0
290
     0
174
     0
 93
        1
 44
50.0
173
     0
291
     1
 45
0.0
1001
ACAD
1000
AcDbSavedByObjectVersion
1070
     0
  0
VISUALSTYLE
  5
727
102
{ACAD_REACTORS
330
717
102
}
330
717
100
AcDbVisualStyle
  2
ColorChange
 70
    16
 71
     2
 72
     2
 73
     3
 90
        0
 40
-0.6
 41
-30.0
 62
     5
 63
     8
 74
     1
 91
        4
 64
     7
 65
   257
 75
     1
175
     1
 42
1.0
 92
        8
 66
     8
 43
1.0
 76
     1
 77
     6
 78
     2
 67
     7
 79
     5
170
     0
171
     0
290
     0
174
     0
 93
        1
 44
0.0
173
     0
291
     1
 45
0.0
1001
ACAD
1000
AcDbSavedByObjectVersion
1070
     0
  0
VISUALSTYLE
  5
720
102
{ACAD_REACTORS
330
717
102
}
330
717
100
AcDbVisualStyle
  2
Conceptual
 70
     9
 71
     3
 72
     2
 73
     0
 90
        0
 40
-0.6
 41
-30.0
 62
     5
 63
     7
 74
     2
 91
        2
 64
     7
 65
   257
 75
     1
175
     1
 42
40.0
 92
        8
 66
     7
 43
1.0
 76
     1
 77
     6
 78
     2
 67
     7
 79
     3
170
     0
171
     0
290
     0
174
     0
 93
        1
 44
0.0
173
     0
291
     0
 45
0.0
1001
ACAD
1000
AcDbSavedByObjectVersion
1070
     0
  0
VISUALSTYLE
  5
722
102
{ACAD_REACTORS
330
717
102
}
330
717
100
AcDbVisualStyle
  2
Dim
 70
    11
 71
     2
 72
     2
 73
     0
 90
        0
 40
-0.6
 41
-30.0
 62
     5
 63
     7
 74
     1
 91
        4
 64
     7
 65
   257
 75
     1
175
     1
 42
1.0
 92
        8
 66
     7
 43
1.0
 76
     1
 77
     6
 78
     2
 67
     7
 79
     5
170
     0
171
     0
290
     0
174
     0
 93
        1
 44
-50.0
173
     0
291
     1
 45
0.0
1001
ACAD
1000
AcDbSavedByObjectVersion
1070
     0
  0
VISUALSTYLE
  5
726
102
{ACAD_REACTORS
330
717
102
}
330
717
100
AcDbVisualStyle
  2
Facepattern
 70
    15
 71
     2
 72
     2
 73
     0
 90
        0
 40
-0.6
 41
-30.0
 62
     5
 63
     7
 74
     1
 91
        4
 64
     7
 65
   257
 75
     1
175
     1
 42
1.0
 92
        8
 66
     7
 43
1.0
 76
     1
 77
     6
 78
     2
 67
     7
 79
     5
170
     0
171
     0
290
     0
174
     0
 93
        1
 44
0.0
173
     0
291
     1
 45
0.0
1001
ACAD
1000
AcDbSavedByObjectVersion
1070
     0
  0
VISUALSTYLE
  5
718
102
{ACAD_REACTORS
330
717
102
}
330
717
100
AcDbVisualStyle
  2
Flat
 70
     0
 71
     2
 72
     1
 73
     1
 90
        2
 40
-0.6
 41
30.0
 62
     5
 63
     7
 74
     0
 91
        4
 64
     7
 65
   257
 75
     1
175
     1
 42
1.0
 92
        8
 66
     7
 43
1.0
 76
     1
 77
     6
 78
     2
 67
     7
 79
     5
170
     0
171
     0
290
     0
174
     0
 93
       13
 44
0.0
173
     0
291
     1
 45
0.0
1001
ACAD
1000
AcDbSavedByObjectVersion
1070
     0
  0
VISUALSTYLE
  5
719
102
{ACAD_REACTORS
330
717
102
}
330
717
100
AcDbVisualStyle
  2
FlatWithEdges
 70
     1
 71
     2
 72
     1
 73
     1
 90
        2
 40
-0.6
 41
30.0
 62
     5
 63
     7
 74
     1
 91
        4
 64
     7
 65
   257
 75
     1
175
     1
 42
1.0
 92
        0
 66
   257
 43
1.0
 76
     1
 77
     6
 78
     2
 67
     7
 79
     5
170
     0
171
     0
290
     0
174
     0
 93
       13
 44
0.0
173
     0
291
     1
 45
0.0
1001
ACAD
1000
AcDbSavedByObjectVersion
1070
     0
  0
VISUALSTYLE
  5
71A
102
{ACAD_REACTORS
330
717
102
}
330
717
100
AcDbVisualStyle
  2
Gouraud
 70
     2
 71
     2
 72
     2
 73
     1
 90
        2
 40
-0.6
 41
30.0
 62
     5
 63
     7
 74
     0
 91
        4
 64
     7
 65
   257
 75
     1
175
     1
 42
1.0
 92
        0
 66
     7
 43
1.0
 76
     1
 77
     6
 78
     2
 67
     7
 79
     5
170
     0
171
     0
290
     0
174
     0
 93
       13
 44
0.0
173
     0
291
     1
 45
0.0
1001
ACAD
1000
AcDbSavedByObjectVersion
1070
     0
  0
VISUALSTYLE
  5
71B
102
{ACAD_REACTORS
330
717
102
}
330
717
100
AcDbVisualStyle
  2
GouraudWithEdges
 70
     3
 71
     2
 72
     2
 73
     1
 90
        2
 40
-0.6
 41
30.0
 62
     5
 63
     7
 74
     1
 91
        4
 64
     7
 65
   257
 75
     1
175
     1
 42
1.0
 92
        0
 66
   257
 43
1.0
 76
     1
 77
     6
 78
     2
 67
     7
 79
     5
170
     0
171
     0
290
     0
174
     0
 93
       13
 44
0.0
173
     0
291
     1
 45
0.0
1001
ACAD
1000
AcDbSavedByObjectVersion
1070
     0
  0
VISUALSTYLE
  5
725
102
{ACAD_REACTORS
330
717
102
}
330
717
100
AcDbVisualStyle
  2
Linepattern
 70
    14
 71
     2
 72
     2
 73
     0
 90
        0
 40
-0.6
 41
-30.0
 62
     5
 63
     7
 74
     1
 91
        4
 64
     7
 65
   257
 75
     7
175
     7
 42
1.0
 92
        8
 66
     7
 43
1.0
 76
     1
 77
     6
 78
     2
 67
     7
 79
     5
170
     0
171
     0
290
     0
174
     0
 93
        1
 44
0.0
173
     0
291
     1
 45
0.0
1001
ACAD
1000
AcDbSavedByObjectVersion
1070
     0
  0
VISUALSTYLE
  5
721
102
{ACAD_REACTORS
330
717
102
}
330
717
100
AcDbVisualStyle
  2
Realistic
 70
     8
 71
     2
 72
     2
 73
     0
 90
        0
 40
-0.6
 41
-30.0
 62
     5
 63
     7
 74
     1
 91
        0
 64
     7
 65
   257
 75
     1
175
     1
 42
1.0
 92
        8
 66
     8
 43
1.0
 76
     1
 77
     6
 78
     2
 67
     7
 79
     5
170
     0
171
     0
290
     0
174
     0
 93
       13
 44
0.0
173
     0
291
     0
 45
0.0
1001
ACAD
1000
AcDbSavedByObjectVersion
1070
     0
  0
VISUALSTYLE
  5
724
102
{ACAD_REACTORS
330
717
102
}
330
717
100
AcDbVisualStyle
  2
Thicken
 70
    13
 71
     2
 72
     2
 73
     0
 90
        0
 40
-0.6
 41
-30.0
 62
     5
 63
     7
 74
     1
 91
        4
 64
     7
 65
   257
 75
     1
175
     1
 42
1.0
 92
       12
 66
     7
 43
1.0
 76
     1
 77
     6
 78
     2
 67
     7
 79
     5
170
     0
171
     0
290
     0
174
     0
 93
        1
 44
0.0
173
     0
291
     1
 45
0.0
1001
ACAD
1000
AcDbSavedByObjectVersion
1070
     0
  0
DICTIONARYVAR
  5
9F2
102
{ACAD_REACTORS
330
3C4
102
}
330
3C4
100
DictionaryVariables
280
     0
  1
STANDARD
  0
DICTIONARYVAR
  5
B1E
102
{ACAD_REACTORS
330
3C4
102
}
330
3C4
100
DictionaryVariables
280
     0
  1
1
  0
DICTIONARYVAR
  5
B1D
102
{ACAD_REACTORS
330
3C4
102
}
330
3C4
100
DictionaryVariables
280
     0
  1
0
  0
DICTIONARYVAR
  5
3C5
102
{ACAD_REACTORS
330
3C4
102
}
330
3C4
100
DictionaryVariables
280
     0
  1
127
  0
DICTIONARY
  5
B2A
330
72D
100
AcDbDictionary
280
     1
281
     1
  3
ACAD_XREC_ROUNDTRIP
360
B2B
  0
DICTIONARY
  5
B28
330
72C
100
AcDbDictionary
280
     1
281
     1
  3
ACAD_XREC_ROUNDTRIP
360
B29
  0
DICTIONARY
  5
B22
330
715
100
AcDbDictionary
280
     1
281
     1
  3
ACAD_XREC_ROUNDTRIP
360
B23
  0
DICTIONARY
  5
B20
330
714
100
AcDbDictionary
280
     1
281
     1
  3
ACAD_XREC_ROUNDTRIP
360
B21
  0
DICTIONARY
  5
B24
330
716
100
AcDbDictionary
280
     1
281
     1
  3
ACAD_XREC_ROUNDTRIP
360
B25
  0
DICTIONARY
  5
B26
330
72A
100
AcDbDictionary
280
     1
281
     1
  3
ACAD_XREC_ROUNDTRIP
360
B27
  0
XRECORD
  5
B2B
102
{ACAD_REACTORS
330
B2A
102
}
330
B2A
100
AcDbXrecord
280
     1
102
SHADEPLOT
 70
     0
102
SHADEPLOTRESLEVEL
 70
     2
102
SHADEPLOTCUSTOMDPI
 70
   300
  0
XRECORD
  5
B29
102
{ACAD_REACTORS
330
B28
102
}
330
B28
100
AcDbXrecord
280
     1
102
SHADEPLOT
 70
     0
102
SHADEPLOTRESLEVEL
 70
     2
102
SHADEPLOTCUSTOMDPI
 70
   300
  0
XRECORD
  5
B23
102
{ACAD_REACTORS
330
B22
102
}
330
B22
100
AcDbXrecord
280
     1
102
MATERIAL
148
0.0
149
0.0
149
0.0
 93
        0
 94
       63
282
     0
 72
     1
 77
     1
171
     1
175
     1
179
     1
273
     0
  0
XRECORD
  5
B21
102
{ACAD_REACTORS
330
B20
102
}
330
B20
100
AcDbXrecord
280
     1
102
MATERIAL
148
0.0
149
0.0
149
0.0
 93
        0
 94
       63
282
     0
 72
     1
 77
     1
171
     1
175
     1
179
     1
273
     0
  0
XRECORD
  5
B25
102
{ACAD_REACTORS
330
B24
102
}
330
B24
100
AcDbXrecord
280
     1
102
MATERIAL
148
0.0
149
0.0
149
0.0
 93
        0
 94
       63
282
     0
 72
     1
 77
     1
171
     1
175
     1
179
     1
273
     0
  0
XRECORD
  5
B27
102
{ACAD_REACTORS
330
B26
102
}
330
B26
100
AcDbXrecord
280
     1
102
ACAD_ROUNDTRIP_PRE2007_TABLESTYLE
 90
      512
 91
        0
  1

 92
      512
 93
        0
  2

 94
      512
 95
        0
  3

  0
ENDSEC
  0
EOF
