  0
SECTION
  2
HEADER
  9
$ACADVER
  1
AC1015
  9
$ACADMAINTVER
 70
     6
  9
$DWGCODEPAGE
  3
ANSI_1252
  9
$INSBASE
 10
0.0
 20
0.0
 30
0.0
  9
$EXTMIN
 10
-299.2756210174066
 20
178.5875472644617
 30
0.0
  9
$EXTMAX
 10
1374.174196067087
 20
1260.040708605552
 30
0.0
  9
$LIMMIN
 10
0.0
 20
0.0
  9
$LIMMAX
 10
12.0
 20
9.0
  9
$ORTHOMODE
 70
     1
  9
$REGENMODE
 70
     1
  9
$FILLMODE
 70
     1
  9
$QTEXTMODE
 70
     0
  9
$MIRRTEXT
 70
     1
  9
$LTSCALE
 40
1.0
  9
$ATTMODE
 70
     1
  9
$TEXTSIZE
 40
10.0
  9
$TRACEWID
 40
0.05
  9
$TEXTSTYLE
  7
STANDARD
  9
$CLAYER
  8
0
  9
$CELTYPE
  6
CONTINUOUS
  9
$CECOLOR
 62
     7
  9
$CELTSCALE
 40
1.0
  9
$DISPSILH
 70
     0
  9
$DIMSCALE
 40
1.0
  9
$DIMASZ
 40
0.18
  9
$DIMEXO
 40
0.0625
  9
$DIMDLI
 40
0.38
  9
$DIMRND
 40
0.0
  9
$DIMDLE
 40
0.0
  9
$DIMEXE
 40
0.18
  9
$DIMTP
 40
0.0
  9
$DIMTM
 40
0.0
  9
$DIMTXT
 40
0.18
  9
$DIMCEN
 40
0.09
  9
$DIMTSZ
 40
0.0
  9
$DIMTOL
 70
     0
  9
$DIMLIM
 70
     0
  9
$DIMTIH
 70
     1
  9
$DIMTOH
 70
     1
  9
$DIMSE1
 70
     0
  9
$DIMSE2
 70
     0
  9
$DIMTAD
 70
     0
  9
$DIMZIN
 70
     0
  9
$DIMBLK
  1

  9
$DIMASO
 70
     1
  9
$DIMSHO
 70
     1
  9
$DIMPOST
  1

  9
$DIMAPOST
  1

  9
$DIMALT
 70
     0
  9
$DIMALTD
 70
     2
  9
$DIMALTF
 40
25.4
  9
$DIMLFAC
 40
1.0
  9
$DIMTOFL
 70
     0
  9
$DIMTVP
 40
0.0
  9
$DIMTIX
 70
     0
  9
$DIMSOXD
 70
     0
  9
$DIMSAH
 70
     0
  9
$DIMBLK1
  1

  9
$DIMBLK2
  1

  9
$DIMSTYLE
  2
STANDARD
  9
$DIMCLRD
 70
     0
  9
$DIMCLRE
 70
     0
  9
$DIMCLRT
 70
     0
  9
$DIMTFAC
 40
1.0
  9
$DIMGAP
 40
0.09
  9
$DIMJUST
 70
     0
  9
$DIMSD1
 70
     0
  9
$DIMSD2
 70
     0
  9
$DIMTOLJ
 70
     1
  9
$DIMTZIN
 70
     0
  9
$DIMALTZ
 70
     0
  9
$DIMALTTZ
 70
     0
  9
$DIMUPT
 70
     0
  9
$DIMDEC
 70
     4
  9
$DIMTDEC
 70
     4
  9
$DIMALTU
 70
     2
  9
$DIMALTTD
 70
     2
  9
$DIMTXSTY
  7
STANDARD
  9
$DIMAUNIT
 70
     0
  9
$DIMADEC
 70
     0
  9
$DIMALTRND
 40
0.0
  9
$DIMAZIN
 70
     0
  9
$DIMDSEP
 70
    46
  9
$DIMATFIT
 70
     3
  9
$DIMFRAC
 70
     0
  9
$DIMLDRBLK
  1

  9
$DIMLUNIT
 70
     2
  9
$DIMLWD
 70
    -2
  9
$DIMLWE
 70
    -2
  9
$DIMTMOVE
 70
     0
  9
$LUNITS
 70
     2
  9
$LUPREC
 70
     4
  9
$SKETCHINC
 40
0.1
  9
$FILLETRAD
 40
14.0
  9
$AUNITS
 70
     0
  9
$AUPREC
 70
     0
  9
$MENU
  1
acad
  9
$ELEVATION
 40
0.0
  9
$PELEVATION
 40
0.0
  9
$THICKNESS
 40
0.0
  9
$LIMCHECK
 70
     0
  9
$CHAMFERA
 40
0.0
  9
$CHAMFERB
 40
0.0
  9
$CHAMFERC
 40
0.0
  9
$CHAMFERD
 40
0.0
  9
$SKPOLY
 70
     0
  9
$TDCREATE
 40
2452125.763796296
  9
$TDUCREATE
 40
2452125.722129629
  9
$TDUPDATE
 40
2458340.362847013
  9
$TDUUPDATE
 40
2458340.321180347
  9
$TDINDWG
 40
0.2272969792
  9
$TDUSRTIMER
 40
0.2272869676
  9
$USRTIMER
 70
     1
  9
$ANGBASE
 50
0.0
  9
$ANGDIR
 70
     0
  9
$PDMODE
 70
     0
  9
$PDSIZE
 40
0.0
  9
$PLINEWID
 40
0.0
  9
$SPLFRAME
 70
     0
  9
$SPLINETYPE
 70
     6
  9
$SPLINESEGS
 70
    10
  9
$HANDSEED
  5
F29
  9
$SURFTAB1
 70
     6
  9
$SURFTAB2
 70
     6
  9
$SURFTYPE
 70
     6
  9
$SURFU
 70
    10
  9
$SURFV
 70
    10
  9
$UCSBASE
  2

  9
$UCSNAME
  2

  9
$UCSORG
 10
0.0
 20
0.0
 30
0.0
  9
$UCSXDIR
 10
1.0
 20
0.0
 30
0.0
  9
$UCSYDIR
 10
0.0
 20
1.0
 30
0.0
  9
$UCSORTHOREF
  2

  9
$UCSORTHOVIEW
 70
     0
  9
$UCSORGTOP
 10
0.0
 20
0.0
 30
0.0
  9
$UCSORGBOTTOM
 10
0.0
 20
0.0
 30
0.0
  9
$UCSORGLEFT
 10
0.0
 20
0.0
 30
0.0
  9
$UCSORGRIGHT
 10
0.0
 20
0.0
 30
0.0
  9
$UCSORGFRONT
 10
0.0
 20
0.0
 30
0.0
  9
$UCSORGBACK
 10
0.0
 20
0.0
 30
0.0
  9
$PUCSBASE
  2

  9
$PUCSNAME
  2

  9
$PUCSORG
 10
0.0
 20
0.0
 30
0.0
  9
$PUCSXDIR
 10
1.0
 20
0.0
 30
0.0
  9
$PUCSYDIR
 10
0.0
 20
1.0
 30
0.0
  9
$PUCSORTHOREF
  2

  9
$PUCSORTHOVIEW
 70
     0
  9
$PUCSORGTOP
 10
0.0
 20
0.0
 30
0.0
  9
$PUCSORGBOTTOM
 10
0.0
 20
0.0
 30
0.0
  9
$PUCSORGLEFT
 10
0.0
 20
0.0
 30
0.0
  9
$PUCSORGRIGHT
 10
0.0
 20
0.0
 30
0.0
  9
$PUCSORGFRONT
 10
0.0
 20
0.0
 30
0.0
  9
$PUCSORGBACK
 10
0.0
 20
0.0
 30
0.0
  9
$USERI1
 70
     0
  9
$USERI2
 70
     0
  9
$USERI3
 70
     0
  9
$USERI4
 70
     0
  9
$USERI5
 70
     0
  9
$USERR1
 40
0.0
  9
$USERR2
 40
0.0
  9
$USERR3
 40
0.0
  9
$USERR4
 40
0.0
  9
$USERR5
 40
0.0
  9
$WORLDVIEW
 70
     1
  9
$SHADEDGE
 70
     3
  9
$SHADEDIF
 70
    70
  9
$TILEMODE
 70
     1
  9
$MAXACTVP
 70
    16
  9
$PINSBASE
 10
0.0
 20
0.0
 30
0.0
  9
$PLIMCHECK
 70
     0
  9
$PEXTMIN
 10
-1.000000000000000E+20
 20
-1.000000000000000E+20
 30
-1.000000000000000E+20
  9
$PEXTMAX
 10
-1.000000000000000E+20
 20
-1.000000000000000E+20
 30
-1.000000000000000E+20
  9
$PLIMMIN
 10
0.0
 20
0.0
  9
$PLIMMAX
 10
12.0
 20
9.0
  9
$UNITMODE
 70
     0
  9
$VISRETAIN
 70
     0
  9
$PLINEGEN
 70
     1
  9
$PSLTSCALE
 70
     0
  9
$TREEDEPTH
 70
  3020
  9
$CMLSTYLE
  2
STANDARD
  9
$CMLJUST
 70
     0
  9
$CMLSCALE
 40
1.0
  9
$PROXYGRAPHICS
 70
     1
  9
$MEASUREMENT
 70
     0
  9
$CELWEIGHT
370
    -1
  9
$ENDCAPS
280
     0
  9
$JOINSTYLE
280
     0
  9
$LWDISPLAY
290
     0
  9
$INSUNITS
 70
     0
  9
$HYPERLINKBASE
  1

  9
$STYLESHEET
  1

  9
$XEDIT
290
     1
  9
$CEPSNTYPE
380
     0
  9
$PSTYLEMODE
290
     1
  9
$FINGERPRINTGUID
  2
{F47C61A4-A8E1-4176-A51B-48D28E7A4B9B}
  9
$VERSIONGUID
  2
{ECF1B394-0AC2-4897-8072-8F0C7039F386}
  9
$EXTNAMES
290
     1
  9
$PSVPSCALE
 40
0.0
  9
$OLESTARTUP
290
     0
  0
ENDSEC
  0
SECTION
  2
CLASSES
  0
CLASS
  1
DICTIONARYVAR
  2
AcDbDictionaryVar
  3
AutoCAD 2000
 90
        0
280
     0
281
     0
  0
CLASS
  1
IDBUFFER
  2
AcDbIdBuffer
  3
AutoCAD 2000
 90
    32768
280
     0
281
     0
  0
CLASS
  1
ACDBDICTIONARYWDFLT
  2
AcDbDictionaryWithDefault
  3
AutoCAD 2000
 90
        0
280
     0
281
     0
  0
CLASS
  1
ACDBPLACEHOLDER
  2
AcDbPlaceHolder
  3
AutoCAD 2000
 90
        0
280
     0
281
     0
  0
CLASS
  1
LAYOUT
  2
AcDbLayout
  3
AutoCAD 2000
 90
        0
280
     0
281
     0
  0
CLASS
  1
MATERIAL
  2
AcDbMaterial
  3
ObjectDBX Classes
 90
     1024
280
     0
281
     0
  0
CLASS
  1
VISUALSTYLE
  2
AcDbVisualStyle
  3
ObjectDBX Classes
 90
     4095
280
     0
281
     0
  0
CLASS
  1
TABLESTYLE
  2
AcDbTableStyle
  3
ObjectDBX Classes
 90
     4095
280
     0
281
     0
  0
CLASS
  1
SORTENTSTABLE
  2
AcDbSortentsTable
  3
AutoCAD 2000
 90
        0
280
     0
281
     0
  0
ENDSEC
  0
SECTION
  2
TABLES
  0
TABLE
  2
VPORT
  5
103
330
0
100
AcDbSymbolTable
 70
     2
  0
VPORT
  5
F28
330
103
100
AcDbSymbolTableRecord
100
AcDbViewportTableRecord
  2
*Active
 70
     0
 10
0.0
 20
0.0
 11
1.0
 21
1.0
 12
48.61635047805657
 22
-297.6777089475487
 13
0.0
 23
0.0
 14
0.0
 24
0.0
 15
0.0
 25
0.0
 16
0.0
 26
0.0
 36
1.0
 17
830.116255
 27
558.028125
 37
0.0
 40
179.068339504102
 41
2.127294981640146
 42
50.0
 43
0.025
 44
0.0
 50
0.0
 51
0.0
 71
     0
 72
   100
 73
     1
 74
     0
 75
     0
 76
     0
 77
     0
 78
     0
281
     0
 65
     1
110
0.0
120
0.0
130
0.0
111
1.0
121
0.0
131
0.0
112
0.0
122
1.0
132
0.0
 79
     0
146
0.0
  0
ENDTAB
  0
TABLE
  2
LTYPE
  5
100
330
0
100
AcDbSymbolTable
 70
     1
  0
LTYPE
  5
10C
330
100
100
AcDbSymbolTableRecord
100
AcDbLinetypeTableRecord
  2
BYBLOCK
 70
     0
  3

 72
    65
 73
     0
 40
0.0
  0
LTYPE
  5
10D
330
100
100
AcDbSymbolTableRecord
100
AcDbLinetypeTableRecord
  2
BYLAYER
 70
     0
  3

 72
    65
 73
     0
 40
0.0
  0
LTYPE
  5
10E
330
100
100
AcDbSymbolTableRecord
100
AcDbLinetypeTableRecord
  2
CONTINUOUS
 70
     0
  3
Solid line
 72
    65
 73
     0
 40
0.0
  0
ENDTAB
  0
TABLE
  2
LAYER
  5
FD
330
0
100
AcDbSymbolTable
 70
     5
  0
LAYER
  5
109
330
FD
100
AcDbSymbolTableRecord
100
AcDbLayerTableRecord
  2
0
 70
     0
 62
     7
  6
CONTINUOUS
370
    -3
390
163
  0
LAYER
  5
122
330
FD
100
AcDbSymbolTableRecord
100
AcDbLayerTableRecord
  2
1
 70
     0
 62
     7
  6
CONTINUOUS
370
    -3
390
163
  0
LAYER
  5
123
330
FD
100
AcDbSymbolTableRecord
100
AcDbLayerTableRecord
  2
-1
 70
     0
 62
     7
  6
CONTINUOUS
370
    -3
390
163
  0
LAYER
  5
442
330
FD
100
AcDbSymbolTableRecord
100
AcDbLayerTableRecord
  2
mating flange
 70
     0
 62
     7
  6
CONTINUOUS
370
    -3
390
163
  0
LAYER
  5
757
102
{ACAD_XDICTIONARY
360
758
102
}
330
FD
100
AcDbSymbolTableRecord
100
AcDbLayerTableRecord
  2
FLAN1$0$1
 70
     0
 62
     7
  6
CONTINUOUS
370
    -3
390
163
  0
ENDTAB
  0
TABLE
  2
STYLE
  5
FE
330
0
100
AcDbSymbolTable
 70
     2
  0
STYLE
  5
10A
330
FE
100
AcDbSymbolTableRecord
100
AcDbTextStyleTableRecord
  2
STANDARD
 70
     0
 40
0.0
 41
1.0
 50
0.0
 71
     0
 42
10.0
  3
txt
  4

  0
STYLE
  5
117
330
FE
100
AcDbSymbolTableRecord
100
AcDbTextStyleTableRecord
  2
ROMANS
 70
     0
 40
0.2
 41
1.0
 50
0.0
 71
     0
 42
0.2
  3
ROMANS
  4

  0
ENDTAB
  0
TABLE
  2
VIEW
  5
101
330
0
100
AcDbSymbolTable
 70
     0
  0
ENDTAB
  0
TABLE
  2
UCS
  5
102
330
0
100
AcDbSymbolTable
 70
     0
  0
ENDTAB
  0
TABLE
  2
APPID
  5
104
330
0
100
AcDbSymbolTable
 70
     2
  0
APPID
  5
10B
330
104
100
AcDbSymbolTableRecord
100
AcDbRegAppTableRecord
  2
ACAD
 70
     0
  0
APPID
  5
A04
330
104
100
AcDbSymbolTableRecord
100
AcDbRegAppTableRecord
  2
ACAD_EXEMPT_FROM_CAD_STANDARDS
 70
     0
  0
ENDTAB
  0
TABLE
  2
DIMSTYLE
  5
105
330
0
100
AcDbSymbolTable
 70
     1
100
AcDbDimStyleTable
 71
     1
340
11F
  0
DIMSTYLE
105
11F
330
105
100
AcDbSymbolTableRecord
100
AcDbDimStyleTableRecord
  2
STANDARD
 70
     0
340
10A
  0
ENDTAB
  0
TABLE
  2
BLOCK_RECORD
  5
FC
330
0
100
AcDbSymbolTable
 70
     2
  0
BLOCK_RECORD
  5
112
102
{ACAD_XDICTIONARY
360
A0C
102
}
330
FC
100
AcDbSymbolTableRecord
100
AcDbBlockTableRecord
  2
*MODEL_SPACE
340
166
  0
BLOCK_RECORD
  5
10F
330
FC
100
AcDbSymbolTableRecord
100
AcDbBlockTableRecord
  2
*PAPER_SPACE
340
167
  0
BLOCK_RECORD
  5
43D
330
FC
100
AcDbSymbolTableRecord
100
AcDbBlockTableRecord
  2
*U0
340
0
102
{BLKREFS
331
598
102
}
  0
ENDTAB
  0
ENDSEC
  0
SECTION
  2
BLOCKS
  0
BLOCK
  5
126
330
112
100
AcDbEntity
  8
0
100
AcDbBlockBegin
  2
*MODEL_SPACE
 70
     0
 10
0.0
 20
0.0
 30
0.0
  3
*MODEL_SPACE
  1

  0
ENDBLK
  5
127
330
112
100
AcDbEntity
  8
0
100
AcDbBlockEnd
  0
BLOCK
  5
124
330
10F
100
AcDbEntity
 67
     1
  8
0
100
AcDbBlockBegin
  2
*PAPER_SPACE
 70
     0
 10
0.0
 20
0.0
 30
0.0
  3
*PAPER_SPACE
  1

  0
ENDBLK
  5
125
330
10F
100
AcDbEntity
 67
     1
  8
0
100
AcDbBlockEnd
  0
BLOCK
  5
43E
330
43D
100
AcDbEntity
  8
0
 62
     7
100
AcDbBlockBegin
  2
*U0
 70
     1
 10
0.0
 20
0.0
 30
0.0
  3
*U0
  1

  0
ENDBLK
  5
43F
330
43D
100
AcDbEntity
  8
0
 62
     7
100
AcDbBlockEnd
  0
ENDSEC
  0
SECTION
  2
ENTITIES
  0
INSERT
  5
598
330
112
100
AcDbEntity
  8
0
  6
Continuous
100
AcDbBlockReference
  2
*U0
 10
0.0
 20
0.0
 30
0.0
  0
LINE
  5
5A3
330
112
100
AcDbEntity
  8
-1
  6
Continuous
 62
     4
100
AcDbLine
 10
652.0981523275259
 20
618.8117481777671
 30
0.0
 11
652.0981523275259
 21
560.461748177767
 31
0.0
  0
LINE
  5
5CF
330
112
100
AcDbEntity
  8
-1
  6
Continuous
 62
     4
100
AcDbLine
 10
1070.423152327522
 20
618.8117481777671
 30
0.0
 11
1070.423152327522
 21
560.461748177767
 31
0.0
  0
LINE
  5
5D2
330
112
100
AcDbEntity
  8
1
  6
Continuous
 62
     4
100
AcDbLine
 10
807.6319498487332
 20
560.9554981777671
 30
0.0
 11
807.6319498487332
 21
779.648187344646
 31
0.0
  0
LINE
  5
5D5
330
112
100
AcDbEntity
  8
1
  6
Continuous
 62
     4
100
AcDbLine
 10
799.6267400886408
 20
560.9554981777668
 30
0.0
 11
922.8945645664095
 21
560.9554981777669
 31
0.0
  0
LINE
  5
618
330
112
100
AcDbEntity
  8
mating flange
  6
Continuous
 62
     4
100
AcDbLine
 10
698.748152327525
 20
534.3551717669249
 30
0.0
 11
1023.773152327525
 21
534.3551717669249
 31
0.0
  0
LINE
  5
619
330
112
100
AcDbEntity
  8
mating flange
  6
Continuous
 62
     4
100
AcDbLine
 10
749.3981523275252
 20
519.3551717669248
 30
0.0
 11
972.8731523275255
 21
519.3551717669248
 31
0.0
  0
LINE
  5
61B
330
112
100
AcDbEntity
  8
mating flange
  6
Continuous
 62
     4
100
AcDbLine
 10
771.5044023275257
 20
519.3551717669248
 30
0.0
 11
771.5044023275257
 21
291.7543296915464
 31
0.0
  0
LINE
  5
61F
330
112
100
AcDbEntity
  8
mating flange
  6
Continuous
 62
     4
100
AcDbLine
 10
596.4981523275254
 20
461.4989217669249
 30
0.0
 11
710.3481523275259
 21
461.4989217669249
 31
0.0
  0
LINE
  5
620
330
112
100
AcDbEntity
  8
mating flange
  6
Continuous
 62
     4
100
AcDbLine
 10
596.4981523275254
 20
519.8489217669249
 30
0.0
 11
698.748152327525
 21
519.8489217669249
 31
0.0
  0
LINE
  5
623
330
112
100
AcDbEntity
  8
mating flange
  6
Continuous
 62
     4
100
AcDbLine
 10
617.241902327525
 20
461.4989217669249
 30
0.0
 11
617.241902327525
 21
519.8489217669249
 31
0.0
  0
LINE
  5
624
330
112
100
AcDbEntity
  8
mating flange
  6
Continuous
 62
     4
100
AcDbLine
 10
686.960652327525
 20
461.4989217669249
 30
0.0
 11
686.960652327525
 21
519.8489217669249
 31
0.0
  0
LINE
  5
62B
330
112
100
AcDbEntity
  8
mating flange
  6
Continuous
 62
     4
100
AcDbLine
 10
749.6481523275247
 20
534.3551717669249
 30
0.0
 11
749.648152327525
 21
301.1463788219733
 31
0.0
  0
LINE
  5
62D
330
112
100
AcDbEntity
  8
mating flange
  6
Continuous
 62
     4
100
AcDbLine
 10
720.3481523275257
 20
442.8926717669249
 30
0.0
 11
749.6481523275251
 21
442.8926717669249
 31
0.0
  0
LINE
  5
62E
330
112
100
AcDbEntity
  8
mating flange
  6
Continuous
 62
     4
100
AcDbLine
 10
715.3481523275257
 20
447.8926717669246
 30
0.0
 11
715.3481523275257
 21
456.4989217669249
 31
0.0
  0
LINE
  5
63F
330
112
100
AcDbEntity
  8
mating flange
  6
Continuous
 62
     4
100
AcDbLine
 10
972.8731523275255
 20
534.5301717669251
 30
0.0
 11
972.8731523275255
 21
452.8489217669251
 31
0.0
  0
LINE
  5
640
330
112
100
AcDbEntity
  8
mating flange
  6
Continuous
 62
     4
100
AcDbLine
 10
951.0169023275251
 20
519.3551717669248
 30
0.0
 11
951.0169023275253
 21
310.6756038007297
 31
0.0
  0
LINE
  5
641
330
112
100
AcDbEntity
  8
mating flange
  6
Continuous
 62
     4
100
AcDbLine
 10
972.8669023275251
 20
519.3551717669248
 30
0.0
 11
972.866902327525
 21
301.1491787959458
 31
0.0
  0
LINE
  5
642
330
112
100
AcDbEntity
  8
mating flange
  6
Continuous
 62
     4
100
AcDbLine
 10
861.2606523275252
 20
288.6992538685369
 30
0.0
 11
861.2606523275252
 21
312.0618458828786
 31
0.0
  0
LINE
  5
643
330
112
100
AcDbEntity
  8
mating flange
  6
Continuous
 62
     4
100
AcDbLine
 10
1023.773152327525
 20
519.8489217669249
 30
0.0
 11
1126.066902327525
 21
519.8489217669249
 31
0.0
  0
LINE
  5
644
330
112
100
AcDbEntity
  8
mating flange
  6
Continuous
 62
     4
100
AcDbLine
 10
1010.916902327524
 20
461.4989217669249
 30
0.0
 11
1126.066902327525
 21
461.498921766925
 31
0.0
  0
LINE
  5
64C
330
112
100
AcDbEntity
  8
mating flange
  6
Continuous
 62
     4
100
AcDbLine
 10
1035.560652327525
 20
461.4989217669249
 30
0.0
 11
1035.560652327525
 21
519.8489217669249
 31
0.0
  0
LINE
  5
64D
330
112
100
AcDbEntity
  8
mating flange
  6
Continuous
 62
     4
100
AcDbLine
 10
1105.27940232752
 20
461.4989217669249
 30
0.0
 11
1105.27940232752
 21
519.8489217669249
 31
0.0
  0
LINE
  5
65D
330
112
100
AcDbEntity
  8
mating flange
  6
Continuous
 62
     4
100
AcDbLine
 10
972.8669023275251
 20
442.8926717669249
 30
0.0
 11
1000.916902327523
 21
442.8926717669249
 31
0.0
  0
LINE
  5
65E
330
112
100
AcDbEntity
  8
mating flange
  6
Continuous
 62
     4
100
AcDbLine
 10
1005.916902327524
 20
447.8926717669246
 30
0.0
 11
1005.916902327524
 21
456.4989217669249
 31
0.0
  0
LINE
  5
671
330
112
100
AcDbEntity
  8
1
  6
Continuous
 62
     4
100
AcDbLine
 10
796.0429148718408
 20
563.4325968177257
 30
0.0
 11
796.0429148718408
 21
568.8899140619418
 31
0.0
  0
LINE
  5
678
330
112
100
AcDbEntity
  8
1
  6
Continuous
 62
     4
100
AcDbLine
 10
914.8893548063174
 20
560.9554981777671
 30
0.0
 11
914.8893548063174
 21
768.7255175694023
 31
0.0
  0
LINE
  5
699
330
112
100
AcDbEntity
  8
1
  6
Continuous
 62
     4
100
AcDbLine
 10
926.4783897832112
 20
625.6952220322706
 30
0.0
 11
926.4783897832112
 21
634.8929753066339
 31
0.0
  0
LINE
  5
6B0
330
112
100
AcDbEntity
  8
1
  6
Continuous
 62
     4
100
AcDbLine
 10
861.2606523275252
 20
774.1871670724631
 30
0.0
 11
861.2606523275252
 21
734.0602900238748
 31
0.0
  0
LINE
  5
6CC
330
112
100
AcDbEntity
  8
mating flange
  6
Continuous
 62
     4
100
AcDbLine
 10
861.2606523275252
 20
466.191284092328
 30
0.0
 11
861.2606523275252
 21
519.3551717669248
 31
0.0
  0
ARC
  5
6CD
330
112
100
AcDbEntity
  8
mating flange
  6
Continuous
 62
     4
100
AcDbCircle
 10
1000.916902327523
 20
447.8926717669246
 30
0.0
 40
5.0
100
AcDbArc
 50
270.0
 51
0.0
  0
ARC
  5
6CE
330
112
100
AcDbEntity
  8
mating flange
  6
Continuous
 62
     4
100
AcDbCircle
 10
1010.916902327524
 20
456.4989217669249
 30
0.0
 40
5.0
100
AcDbArc
 50
90.0
 51
180.0
  0
ARC
  5
6E7
330
112
100
AcDbEntity
  8
mating flange
  6
Continuous
 62
     4
100
AcDbCircle
 10
710.3481523275259
 20
456.4989217669249
 30
0.0
 40
5.0
100
AcDbArc
 50
0.0
 51
90.0
  0
ARC
  5
6E8
330
112
100
AcDbEntity
  8
mating flange
  6
Continuous
 62
     4
100
AcDbCircle
 10
720.3481523275257
 20
447.8926717669246
 30
0.0
 40
5.0
100
AcDbArc
 50
180.0
 51
270.0
  0
LINE
  5
A14
330
112
100
AcDbEntity
  8
1
  6
Continuous
 62
     4
100
AcDbLine
 10
807.6319498487332
 20
765.9189915787822
 30
0.0
 11
797.8772805972846
 21
775.673660830231
 31
0.0
1001
ACAD
1010
0.0
1020
0.0
1030
0.0
  0
LINE
  5
A15
330
112
100
AcDbEntity
  8
1
  6
Continuous
 62
     4
100
AcDbLine
 10
807.6319498487332
 20
776.5255932965801
 30
0.0
 11
805.3004180885773
 21
778.8571250567363
 31
0.0
1001
ACAD
1010
0.0
1020
0.0
1030
0.0
  0
LINE
  5
A16
330
112
100
AcDbEntity
  8
1
  6
Continuous
 62
     4
100
AcDbLine
 10
807.6319498487332
 20
755.3123898609839
 30
0.0
 11
796.0429148718367
 21
766.9014248378807
 31
0.0
1001
ACAD
1010
0.0
1020
0.0
1030
0.0
  0
LINE
  5
A17
330
112
100
AcDbEntity
  8
1
  6
Continuous
 62
     4
100
AcDbLine
 10
807.6319498487332
 20
744.7057881431852
 30
0.0
 11
796.0429148718373
 21
756.2948231200818
 31
0.0
1001
ACAD
1010
0.0
1020
0.0
1030
0.0
  0
LINE
  5
A18
330
112
100
AcDbEntity
  8
1
  6
Continuous
 62
     4
100
AcDbLine
 10
807.6319498487332
 20
734.099186425387
 30
0.0
 11
796.0429148718373
 21
745.6882214022838
 31
0.0
1001
ACAD
1010
0.0
1020
0.0
1030
0.0
  0
LINE
  5
A19
330
112
100
AcDbEntity
  8
1
  6
Continuous
 62
     4
100
AcDbLine
 10
807.6319498487332
 20
723.4925847075888
 30
0.0
 11
796.0429148718373
 21
735.0816196844853
 31
0.0
1001
ACAD
1010
0.0
1020
0.0
1030
0.0
  0
LINE
  5
A1A
330
112
100
AcDbEntity
  8
1
  6
Continuous
 62
     4
100
AcDbLine
 10
807.6319498487332
 20
712.8859829897908
 30
0.0
 11
796.0429148718376
 21
724.4750179666866
 31
0.0
1001
ACAD
1010
0.0
1020
0.0
1030
0.0
  0
LINE
  5
A1B
330
112
100
AcDbEntity
  8
1
  6
Continuous
 62
     4
100
AcDbLine
 10
807.6319498487332
 20
702.2793812719921
 30
0.0
 11
796.0429148718376
 21
713.8684162488882
 31
0.0
1001
ACAD
1010
0.0
1020
0.0
1030
0.0
  0
LINE
  5
A1C
330
112
100
AcDbEntity
  8
1
  6
Continuous
 62
     4
100
AcDbLine
 10
807.6319498487332
 20
691.6727795541942
 30
0.0
 11
796.0429148718381
 21
703.2618145310896
 31
0.0
1001
ACAD
1010
0.0
1020
0.0
1030
0.0
  0
LINE
  5
A1D
330
112
100
AcDbEntity
  8
1
  6
Continuous
 62
     4
100
AcDbLine
 10
807.6319498487332
 20
681.0661778363956
 30
0.0
 11
796.0429148718381
 21
692.6552128132913
 31
0.0
1001
ACAD
1010
0.0
1020
0.0
1030
0.0
  0
LINE
  5
A1E
330
112
100
AcDbEntity
  8
1
  6
Continuous
 62
     4
100
AcDbLine
 10
807.6319498487332
 20
670.4595761185974
 30
0.0
 11
796.0429148718381
 21
682.0486110954927
 31
0.0
1001
ACAD
1010
0.0
1020
0.0
1030
0.0
  0
LINE
  5
A22
330
112
100
AcDbEntity
  8
1
  6
Continuous
 62
     4
100
AcDbLine
 10
807.6319498487327
 20
659.8529744007992
 30
0.0
 11
796.0429148718385
 21
671.4420093776941
 31
0.0
1001
ACAD
1010
0.0
1020
0.0
1030
0.0
  0
LINE
  5
A23
330
112
100
AcDbEntity
  8
1
  6
Continuous
 62
     4
100
AcDbLine
 10
807.6319498487332
 20
649.2463726830009
 30
0.0
 11
796.0429148718385
 21
660.8354076598957
 31
0.0
1001
ACAD
1010
0.0
1020
0.0
1030
0.0
  0
LINE
  5
A24
330
112
100
AcDbEntity
  8
1
  6
Continuous
 62
     4
100
AcDbLine
 10
807.6319498487332
 20
638.6397709652026
 30
0.0
 11
796.0429148718385
 21
650.2288059420972
 31
0.0
1001
ACAD
1010
0.0
1020
0.0
1030
0.0
  0
LINE
  5
A25
330
112
100
AcDbEntity
  8
1
  6
Continuous
 62
     4
100
AcDbLine
 10
807.6319498487327
 20
628.0331692474044
 30
0.0
 11
796.0429148718394
 21
639.6222042242989
 31
0.0
1001
ACAD
1010
0.0
1020
0.0
1030
0.0
  0
LINE
  5
A26
330
112
100
AcDbEntity
  8
1
  6
Continuous
 62
     4
100
AcDbLine
 10
807.6319498487327
 20
617.4265675296061
 30
0.0
 11
796.0429148718394
 21
629.0156025065003
 31
0.0
1001
ACAD
1010
0.0
1020
0.0
1030
0.0
  0
LINE
  5
A27
330
112
100
AcDbEntity
  8
1
  6
Continuous
 62
     4
100
AcDbLine
 10
807.6319498487327
 20
606.8199658118078
 30
0.0
 11
796.0429148718398
 21
618.4090007887013
 31
0.0
1001
ACAD
1010
0.0
1020
0.0
1030
0.0
  0
LINE
  5
A28
330
112
100
AcDbEntity
  8
1
  6
Continuous
 62
     4
100
AcDbLine
 10
807.6319498487327
 20
596.2133640940098
 30
0.0
 11
796.0429148718394
 21
607.8023990709034
 31
0.0
1001
ACAD
1010
0.0
1020
0.0
1030
0.0
  0
LINE
  5
A29
330
112
100
AcDbEntity
  8
1
  6
Continuous
 62
     4
100
AcDbLine
 10
807.6319498487327
 20
585.6067623762112
 30
0.0
 11
796.8440120587213
 21
596.3947001662236
 31
0.0
1001
ACAD
1010
0.0
1020
0.0
1030
0.0
  0
LINE
  5
A2A
330
112
100
AcDbEntity
  8
1
  6
Continuous
 62
     4
100
AcDbLine
 10
807.6319498487332
 20
575.0001606584127
 30
0.0
 11
798.2765252894046
 21
584.3555852177417
 31
0.0
1001
ACAD
1010
0.0
1020
0.0
1030
0.0
  0
LINE
  5
A2B
330
112
100
AcDbEntity
  8
1
  6
Continuous
 62
     4
100
AcDbLine
 10
807.6319498487324
 20
564.3935589406147
 30
0.0
 11
800.2623421850085
 21
571.7631666043396
 31
0.0
1001
ACAD
1010
0.0
1020
0.0
1030
0.0
  0
LINE
  5
A2E
330
112
100
AcDbEntity
  8
1
  6
Continuous
 62
     4
100
AcDbLine
 10
926.4783897832112
 20
759.9262659485877
 30
0.0
 11
916.975752531766
 21
769.4289032000332
 31
0.0
1001
ACAD
1010
0.0
1020
0.0
1030
0.0
  0
LINE
  5
A2F
330
112
100
AcDbEntity
  8
1
  6
Continuous
 62
     4
100
AcDbLine
 10
926.4783897832112
 20
770.5328676663861
 30
0.0
 11
924.4221352151603
 21
772.5891222344369
 31
0.0
1001
ACAD
1010
0.0
1020
0.0
1030
0.0
  0
LINE
  5
A30
330
112
100
AcDbEntity
  8
1
  6
Continuous
 62
     4
100
AcDbLine
 10
926.4783897832112
 20
749.3196642307895
 30
0.0
 11
914.8893548063174
 21
760.9086992076838
 31
0.0
1001
ACAD
1010
0.0
1020
0.0
1030
0.0
  0
LINE
  5
A31
330
112
100
AcDbEntity
  8
1
  6
Continuous
 62
     4
100
AcDbLine
 10
926.4783897832112
 20
738.7130625129912
 30
0.0
 11
914.8893548063174
 21
750.3020974898856
 31
0.0
1001
ACAD
1010
0.0
1020
0.0
1030
0.0
  0
LINE
  5
A32
330
112
100
AcDbEntity
  8
1
  6
Continuous
 62
     4
100
AcDbLine
 10
926.4783897832112
 20
728.106460795193
 30
0.0
 11
914.8893548063174
 21
739.6954957720875
 31
0.0
1001
ACAD
1010
0.0
1020
0.0
1030
0.0
  0
LINE
  5
A33
330
112
100
AcDbEntity
  8
1
  6
Continuous
 62
     4
100
AcDbLine
 10
926.4783897832112
 20
717.4998590773947
 30
0.0
 11
914.8893548063174
 21
729.0888940542892
 31
0.0
1001
ACAD
1010
0.0
1020
0.0
1030
0.0
  0
LINE
  5
A34
330
112
100
AcDbEntity
  8
1
  6
Continuous
 62
     4
100
AcDbLine
 10
926.4783897832112
 20
706.8932573595964
 30
0.0
 11
914.8893548063174
 21
718.4822923364909
 31
0.0
1001
ACAD
1010
0.0
1020
0.0
1030
0.0
  0
LINE
  5
A35
330
112
100
AcDbEntity
  8
1
  6
Continuous
 62
     4
100
AcDbLine
 10
926.4783897832112
 20
696.2866556417981
 30
0.0
 11
914.8893548063174
 21
707.8756906186928
 31
0.0
1001
ACAD
1010
0.0
1020
0.0
1030
0.0
  0
LINE
  5
A36
330
112
100
AcDbEntity
  8
1
  6
Continuous
 62
     4
100
AcDbLine
 10
926.4783897832112
 20
685.6800539239998
 30
0.0
 11
914.8893548063174
 21
697.2690889008942
 31
0.0
1001
ACAD
1010
0.0
1020
0.0
1030
0.0
  0
LINE
  5
A37
330
112
100
AcDbEntity
  8
1
  6
Continuous
 62
     4
100
AcDbLine
 10
926.4783897832112
 20
675.0734522062015
 30
0.0
 11
914.8893548063174
 21
686.6624871830961
 31
0.0
1001
ACAD
1010
0.0
1020
0.0
1030
0.0
  0
LINE
  5
A38
330
112
100
AcDbEntity
  8
1
  6
Continuous
 62
     4
100
AcDbLine
 10
926.4783897832112
 20
664.4668504884032
 30
0.0
 11
914.8893548063174
 21
676.0558854652976
 31
0.0
1001
ACAD
1010
0.0
1020
0.0
1030
0.0
  0
LINE
  5
A39
330
112
100
AcDbEntity
  8
1
  6
Continuous
 62
     4
100
AcDbLine
 10
926.4783897832112
 20
653.8602487706048
 30
0.0
 11
914.8893548063174
 21
665.4492837474992
 31
0.0
1001
ACAD
1010
0.0
1020
0.0
1030
0.0
  0
LINE
  5
A3A
330
112
100
AcDbEntity
  8
1
  6
Continuous
 62
     4
100
AcDbLine
 10
926.4783897832112
 20
643.2536470528066
 30
0.0
 11
914.8893548063174
 21
654.8426820297009
 31
0.0
1001
ACAD
1010
0.0
1020
0.0
1030
0.0
  0
LINE
  5
A3B
330
112
100
AcDbEntity
  8
1
  6
Continuous
 62
     4
100
AcDbLine
 10
926.4783897832112
 20
632.6470453350082
 30
0.0
 11
914.8893548063174
 21
644.2360803119028
 31
0.0
1001
ACAD
1010
0.0
1020
0.0
1030
0.0
  0
LINE
  5
A3C
330
112
100
AcDbEntity
  8
1
  6
Continuous
 62
     4
100
AcDbLine
 10
924.3173187393797
 20
624.2015146610416
 30
0.0
 11
914.8893548063174
 21
633.6294785941047
 31
0.0
1001
ACAD
1010
0.0
1020
0.0
1030
0.0
  0
LINE
  5
A3D
330
112
100
AcDbEntity
  8
1
  6
Continuous
 62
     4
100
AcDbLine
 10
925.3050554543047
 20
612.6071762283177
 30
0.0
 11
914.8893548063174
 21
623.0228768763062
 31
0.0
1001
ACAD
1010
0.0
1020
0.0
1030
0.0
  0
LINE
  5
A3E
330
112
100
AcDbEntity
  8
1
  6
Continuous
 62
     4
100
AcDbLine
 10
926.2927921692293
 20
601.0128377955939
 30
0.0
 11
914.8893548063174
 21
612.4162751585076
 31
0.0
1001
ACAD
1010
0.0
1020
0.0
1030
0.0
  0
LINE
  5
A40
330
112
100
AcDbEntity
  8
1
  6
Continuous
 62
     4
100
AcDbLine
 10
926.4783897832094
 20
579.6140367460179
 30
0.0
 11
914.8893548063174
 21
591.2030717229112
 31
0.0
1001
ACAD
1010
0.0
1020
0.0
1030
0.0
  0
LINE
  5
A41
330
112
100
AcDbEntity
  8
1
  6
Continuous
 62
     4
100
AcDbLine
 10
921.996580357826
 20
573.4892444536033
 30
0.0
 11
914.8893548063174
 21
580.5964700051131
 31
0.0
1001
ACAD
1010
0.0
1020
0.0
1030
0.0
  0
LINE
  5
A42
330
112
100
AcDbEntity
  8
1
  6
Continuous
 62
     4
100
AcDbLine
 10
923.5031072407068
 20
561.3761158529239
 30
0.0
 11
914.8893548063174
 21
569.9898682873146
 31
0.0
1001
ACAD
1010
0.0
1020
0.0
1030
0.0
  0
LINE
  5
A43
330
112
100
AcDbEntity
  8
1
  6
Continuous
 62
     4
100
AcDbLine
 10
926.4783897832099
 20
590.2206384638169
 30
0.0
 11
914.8893548063174
 21
601.8096734407095
 31
0.0
1001
ACAD
1010
0.0
1020
0.0
1030
0.0
  0
LINE
  5
A44
330
112
100
AcDbEntity
  8
1
  6
Continuous
 62
     4
100
AcDbLine
 10
617.241902327525
 20
506.1197260010607
 30
0.0
 11
603.5127065616619
 21
519.8489217669249
 31
0.0
1001
ACAD
1010
0.0
1020
0.0
1030
0.0
  0
LINE
  5
A45
330
112
100
AcDbEntity
  8
1
  6
Continuous
 62
     4
100
AcDbLine
 10
617.241902327525
 20
516.7263277188591
 30
0.0
 11
614.1193082794598
 21
519.8489217669249
 31
0.0
1001
ACAD
1010
0.0
1020
0.0
1030
0.0
  0
LINE
  5
A46
330
112
100
AcDbEntity
  8
1
  6
Continuous
 62
     4
100
AcDbLine
 10
617.241902327525
 20
495.5131242832626
 30
0.0
 11
596.4981523275254
 21
516.2568742832639
 31
0.0
1001
ACAD
1010
0.0
1020
0.0
1030
0.0
  0
LINE
  5
A47
330
112
100
AcDbEntity
  8
1
  6
Continuous
 62
     4
100
AcDbLine
 10
617.241902327525
 20
484.9065225654643
 30
0.0
 11
596.4981523275254
 21
505.6502725654653
 31
0.0
1001
ACAD
1010
0.0
1020
0.0
1030
0.0
  0
LINE
  5
A48
330
112
100
AcDbEntity
  8
1
  6
Continuous
 62
     4
100
AcDbLine
 10
617.241902327525
 20
474.299920847666
 30
0.0
 11
596.4981523275254
 21
495.0436708476671
 31
0.0
1001
ACAD
1010
0.0
1020
0.0
1030
0.0
  0
LINE
  5
A49
330
112
100
AcDbEntity
  8
1
  6
Continuous
 62
     4
100
AcDbLine
 10
617.241902327525
 20
463.6933191298679
 30
0.0
 11
596.4981523275254
 21
484.4370691298689
 31
0.0
1001
ACAD
1010
0.0
1020
0.0
1030
0.0
  0
LINE
  5
A4A
330
112
100
AcDbEntity
  8
1
  6
Continuous
 62
     4
100
AcDbLine
 10
608.8296979726706
 20
461.4989217669249
 30
0.0
 11
596.4981523275254
 21
473.8304674120707
 31
0.0
1001
ACAD
1010
0.0
1020
0.0
1030
0.0
  0
LINE
  5
A4B
330
112
100
AcDbEntity
  8
1
  6
Continuous
 62
     4
100
AcDbLine
 10
598.2230962548729
 20
461.4989217669249
 30
0.0
 11
596.4981523275254
 21
463.2238656942724
 31
0.0
1001
ACAD
1010
0.0
1020
0.0
1030
0.0
  0
LINE
  5
A4C
330
112
100
AcDbEntity
  8
1
  6
Continuous
 62
     4
100
AcDbLine
 10
749.6481523275247
 20
520.6259760010607
 30
0.0
 11
735.918956561661
 21
534.3551717669249
 31
0.0
1001
ACAD
1010
0.0
1020
0.0
1030
0.0
  0
LINE
  5
A4D
330
112
100
AcDbEntity
  8
1
  6
Continuous
 62
     4
100
AcDbLine
 10
749.6481523275247
 20
531.232577718859
 30
0.0
 11
746.5255582794589
 21
534.3551717669249
 31
0.0
1001
ACAD
1010
0.0
1020
0.0
1030
0.0
  0
LINE
  5
A4E
330
112
100
AcDbEntity
  8
1
  6
Continuous
 62
     4
100
AcDbLine
 10
749.6481523275247
 20
510.0193742832621
 30
0.0
 11
725.3123548438643
 21
534.3551717669249
 31
0.0
1001
ACAD
1010
0.0
1020
0.0
1030
0.0
  0
LINE
  5
A4F
330
112
100
AcDbEntity
  8
1
  6
Continuous
 62
     4
100
AcDbLine
 10
749.6481523275247
 20
499.4127725654641
 30
0.0
 11
714.7057531260661
 21
534.3551717669249
 31
0.0
1001
ACAD
1010
0.0
1020
0.0
1030
0.0
  0
LINE
  5
A51
330
112
100
AcDbEntity
  8
1
  6
Continuous
 62
     4
100
AcDbLine
 10
749.6481523275247
 20
488.8061708476657
 30
0.0
 11
704.0991514082683
 21
534.3551717669249
 31
0.0
1001
ACAD
1010
0.0
1020
0.0
1030
0.0
  0
LINE
  5
A52
330
112
100
AcDbEntity
  8
1
  6
Continuous
 62
     4
100
AcDbLine
 10
749.6481523275247
 20
478.1995691298681
 30
0.0
 11
698.748152327525
 21
529.0995691298705
 31
0.0
1001
ACAD
1010
0.0
1020
0.0
1030
0.0
  0
LINE
  5
A53
330
112
100
AcDbEntity
  8
1
  6
Continuous
 62
     4
100
AcDbLine
 10
749.6481523275247
 20
467.5929674120697
 30
0.0
 11
697.3921979726724
 21
519.8489217669249
 31
0.0
1001
ACAD
1010
0.0
1020
0.0
1030
0.0
  0
LINE
  5
A54
330
112
100
AcDbEntity
  8
1
  6
Continuous
 62
     4
100
AcDbLine
 10
749.6481523275247
 20
456.9863656942716
 30
0.0
 11
686.960652327525
 21
519.6738656942752
 31
0.0
1001
ACAD
1010
0.0
1020
0.0
1030
0.0
  0
LINE
  5
A55
330
112
100
AcDbEntity
  8
1
  6
Continuous
 62
     4
100
AcDbLine
 10
749.6481523275247
 20
446.3797639764726
 30
0.0
 11
686.960652327525
 21
509.0672639764766
 31
0.0
1001
ACAD
1010
0.0
1020
0.0
1030
0.0
  0
LINE
  5
A56
330
112
100
AcDbEntity
  8
1
  6
Continuous
 62
     4
100
AcDbLine
 10
742.5286428192757
 20
442.8926717669249
 30
0.0
 11
686.960652327525
 21
498.4606622586784
 31
0.0
1001
ACAD
1010
0.0
1020
0.0
1030
0.0
  0
LINE
  5
A57
330
112
100
AcDbEntity
  8
1
  6
Continuous
 62
     4
100
AcDbLine
 10
731.9220411014782
 20
442.8926717669249
 30
0.0
 11
686.960652327525
 21
487.8540605408804
 31
0.0
1001
ACAD
1010
0.0
1020
0.0
1030
0.0
  0
LINE
  5
A58
330
112
100
AcDbEntity
  8
1
  6
Continuous
 62
     4
100
AcDbLine
 10
721.3154393836807
 20
442.8926717669249
 30
0.0
 11
715.3481523275257
 21
448.8599588230802
 31
0.0
1001
ACAD
1010
0.0
1020
0.0
1030
0.0
  0
LINE
  5
A59
330
112
100
AcDbEntity
  8
1
  6
Continuous
 62
     4
100
AcDbLine
 10
692.1025876658841
 20
461.4989217669249
 30
0.0
 11
686.960652327525
 21
466.6408571052841
 31
0.0
1001
ACAD
1010
0.0
1020
0.0
1030
0.0
  0
LINE
  5
A5A
330
112
100
AcDbEntity
  8
1
  6
Continuous
 62
     4
100
AcDbLine
 10
702.7091893836812
 20
461.4989217669249
 30
0.0
 11
686.960652327525
 21
477.2474588230818
 31
0.0
1001
ACAD
1010
0.0
1020
0.0
1030
0.0
  0
LINE
  5
A5B
330
112
100
AcDbEntity
  8
1
  6
Continuous
 62
     4
100
AcDbLine
 10
1035.560652327525
 20
508.8384760010593
 30
0.0
 11
1024.55020656166
 21
519.8489217669249
 31
0.0
1001
ACAD
1010
0.0
1020
0.0
1030
0.0
  0
LINE
  5
A5C
330
112
100
AcDbEntity
  8
1
  6
Continuous
 62
     4
100
AcDbLine
 10
1023.773152327525
 20
531.232577718859
 30
0.0
 11
1020.650558279458
 21
534.3551717669249
 31
0.0
1001
ACAD
1010
0.0
1020
0.0
1030
0.0
  0
LINE
  5
A5D
330
112
100
AcDbEntity
  8
1
  6
Continuous
 62
     4
100
AcDbLine
 10
1035.560652327525
 20
498.2318742832616
 30
0.0
 11
999.4373548438639
 21
534.3551717669249
 31
0.0
1001
ACAD
1010
0.0
1020
0.0
1030
0.0
  0
LINE
  5
A5E
330
112
100
AcDbEntity
  8
1
  6
Continuous
 62
     4
100
AcDbLine
 10
1035.560652327525
 20
487.6252725654633
 30
0.0
 11
988.8307531260659
 21
534.3551717669249
 31
0.0
1001
ACAD
1010
0.0
1020
0.0
1030
0.0
  0
LINE
  5
A5F
330
112
100
AcDbEntity
  8
1
  6
Continuous
 62
     4
100
AcDbLine
 10
1035.560652327525
 20
477.0186708476654
 30
0.0
 11
978.2241514082691
 21
534.3551717669249
 31
0.0
1001
ACAD
1010
0.0
1020
0.0
1030
0.0
  0
LINE
  5
A60
330
112
100
AcDbEntity
  8
1
  6
Continuous
 62
     4
100
AcDbLine
 10
1035.560652327525
 20
466.4120691298678
 30
0.0
 11
972.8731523275255
 21
529.0995691298702
 31
0.0
1001
ACAD
1010
0.0
1020
0.0
1030
0.0
  0
LINE
  5
A61
330
112
100
AcDbEntity
  8
1
  6
Continuous
 62
     4
100
AcDbLine
 10
1029.86719797267
 20
461.4989217669249
 30
0.0
 11
972.8731523275255
 21
518.4929674120722
 31
0.0
1001
ACAD
1010
0.0
1020
0.0
1030
0.0
  0
LINE
  5
A62
330
112
100
AcDbEntity
  8
1
  6
Continuous
 62
     4
100
AcDbLine
 10
1019.260596254871
 20
461.4989217669249
 30
0.0
 11
972.8731523275255
 21
507.8863656942742
 31
0.0
1001
ACAD
1010
0.0
1020
0.0
1030
0.0
  0
LINE
  5
A63
330
112
100
AcDbEntity
  8
1
  6
Continuous
 62
     4
100
AcDbLine
 10
1009.025527948744
 20
461.1273883552557
 30
0.0
 11
972.8731523275255
 21
497.2797639764758
 31
0.0
1001
ACAD
1010
0.0
1020
0.0
1030
0.0
  0
LINE
  5
A64
330
112
100
AcDbEntity
  8
1
  6
Continuous
 62
     4
100
AcDbLine
 10
1023.773152327523
 20
520.6259760010607
 30
0.0
 11
1010.043956561661
 21
534.3551717669249
 31
0.0
1001
ACAD
1010
0.0
1020
0.0
1030
0.0
  0
LINE
  5
A65
330
112
100
AcDbEntity
  8
1
  6
Continuous
 62
     4
100
AcDbLine
 10
1035.560652327525
 20
519.4450777188576
 30
0.0
 11
1035.156808279457
 21
519.8489217669249
 31
0.0
1001
ACAD
1010
0.0
1020
0.0
1030
0.0
  0
LINE
  5
A66
330
112
100
AcDbEntity
  8
1
  6
Continuous
 62
     4
100
AcDbLine
 10
1005.916902327524
 20
453.6294122586773
 30
0.0
 11
972.8669023275251
 21
486.6794122586775
 31
0.0
1001
ACAD
1010
0.0
1020
0.0
1030
0.0
  0
LINE
  5
A67
330
112
100
AcDbEntity
  8
1
  6
Continuous
 62
     4
100
AcDbLine
 10
1004.516906788146
 20
444.4228060802577
 30
0.0
 11
972.8731523275255
 21
476.0665605408799
 31
0.0
1001
ACAD
1010
0.0
1020
0.0
1030
0.0
  0
LINE
  5
A68
330
112
100
AcDbEntity
  8
1
  6
Continuous
 62
     4
100
AcDbLine
 10
995.4404393836812
 20
442.8926717669249
 30
0.0
 11
972.8669023275251
 21
465.4662088230816
 31
0.0
1001
ACAD
1010
0.0
1020
0.0
1030
0.0
  0
LINE
  5
A69
330
112
100
AcDbEntity
  8
1
  6
Continuous
 62
     4
100
AcDbLine
 10
984.8338376658844
 20
442.8926717669249
 30
0.0
 11
972.8669023275251
 21
454.8596071052839
 31
0.0
1001
ACAD
1010
0.0
1020
0.0
1030
0.0
  0
LINE
  5
A6A
330
112
100
AcDbEntity
  8
1
  6
Continuous
 62
     4
100
AcDbLine
 10
974.2272359480866
 20
442.8926717669249
 30
0.0
 11
972.8669023275251
 21
444.2530053874856
 31
0.0
1001
ACAD
1010
0.0
1020
0.0
1030
0.0
  0
LINE
  5
A6C
330
112
100
AcDbEntity
  8
1
  6
Continuous
 62
     4
100
AcDbLine
 10
1126.066902327524
 20
506.1197260010607
 30
0.0
 11
1112.337706561661
 21
519.8489217669249
 31
0.0
1001
ACAD
1010
0.0
1020
0.0
1030
0.0
  0
LINE
  5
A6D
330
112
100
AcDbEntity
  8
1
  6
Continuous
 62
     4
100
AcDbLine
 10
1126.066902327525
 20
516.7263277188591
 30
0.0
 11
1122.944308279457
 21
519.8489217669249
 31
0.0
1001
ACAD
1010
0.0
1020
0.0
1030
0.0
  0
LINE
  5
A6E
330
112
100
AcDbEntity
  8
1
  6
Continuous
 62
     4
100
AcDbLine
 10
1126.066902327524
 20
495.5131242832626
 30
0.0
 11
1105.27940232752
 21
516.3006242832648
 31
0.0
1001
ACAD
1010
0.0
1020
0.0
1030
0.0
  0
LINE
  5
A6F
330
112
100
AcDbEntity
  8
1
  6
Continuous
 62
     4
100
AcDbLine
 10
1126.066902327525
 20
484.9065225654643
 30
0.0
 11
1105.27940232752
 21
505.6940225654666
 31
0.0
1001
ACAD
1010
0.0
1020
0.0
1030
0.0
  0
LINE
  5
A70
330
112
100
AcDbEntity
  8
1
  6
Continuous
 62
     4
100
AcDbLine
 10
1126.066902327525
 20
474.2999208476667
 30
0.0
 11
1105.27940232752
 21
495.0874208476681
 31
0.0
1001
ACAD
1010
0.0
1020
0.0
1030
0.0
  0
LINE
  5
A71
330
112
100
AcDbEntity
  8
1
  6
Continuous
 62
     4
100
AcDbLine
 10
1126.066902327525
 20
463.6933191298685
 30
0.0
 11
1105.27940232752
 21
484.4808191298707
 31
0.0
1001
ACAD
1010
0.0
1020
0.0
1030
0.0
  0
LINE
  5
A72
330
112
100
AcDbEntity
  8
1
  6
Continuous
 62
     4
100
AcDbLine
 10
1117.65469797267
 20
461.4989217669249
 30
0.0
 11
1105.27940232752
 21
473.8742174120723
 31
0.0
1001
ACAD
1010
0.0
1020
0.0
1030
0.0
  0
LINE
  5
A73
330
112
100
AcDbEntity
  8
1
  6
Continuous
 62
     4
100
AcDbLine
 10
1107.048096254873
 20
461.4989217669249
 30
0.0
 11
1105.27940232752
 21
463.2676156942751
 31
0.0
1001
ACAD
1010
0.0
1020
0.0
1030
0.0
  0
LINE
  5
A75
330
112
100
AcDbEntity
  8
1
  6
Continuous
 62
     4
100
AcDbLine
 10
749.6481523275247
 20
513.2784131779333
 30
0.0
 11
755.7249109165158
 21
519.3551717669248
 31
0.0
1001
ACAD
1010
0.0
1020
0.0
1030
0.0
  0
LINE
  5
A76
330
112
100
AcDbEntity
  8
1
  6
Continuous
 62
     4
100
AcDbLine
 10
749.6481523275247
 20
502.6718114601349
 30
0.0
 11
766.331512634315
 21
519.3551717669246
 31
0.0
1001
ACAD
1010
0.0
1020
0.0
1030
0.0
  0
LINE
  5
A77
330
112
100
AcDbEntity
  8
1
  6
Continuous
 62
     4
100
AcDbLine
 10
749.6481523275247
 20
492.065209742337
 30
0.0
 11
771.5044023275257
 21
513.9214597423378
 31
0.0
1001
ACAD
1010
0.0
1020
0.0
1030
0.0
  0
LINE
  5
A78
330
112
100
AcDbEntity
  8
1
  6
Continuous
 62
     4
100
AcDbLine
 10
749.6481523275247
 20
481.458608024539
 30
0.0
 11
771.5044023275257
 21
503.3148580245397
 31
0.0
1001
ACAD
1010
0.0
1020
0.0
1030
0.0
  0
LINE
  5
A79
330
112
100
AcDbEntity
  8
1
  6
Continuous
 62
     4
100
AcDbLine
 10
749.6481523275247
 20
470.8520063067408
 30
0.0
 11
771.5044023275257
 21
492.7082563067417
 31
0.0
1001
ACAD
1010
0.0
1020
0.0
1030
0.0
  0
LINE
  5
A86
330
112
100
AcDbEntity
  8
1
  6
Continuous
 62
     4
100
AcDbLine
 10
749.6481523275247
 20
460.2454045889428
 30
0.0
 11
771.5044023275257
 21
482.1016545889436
 31
0.0
1001
ACAD
1010
0.0
1020
0.0
1030
0.0
  0
LINE
  5
A87
330
112
100
AcDbEntity
  8
1
  6
Continuous
 62
     4
100
AcDbLine
 10
749.6481523275247
 20
449.6388028711451
 30
0.0
 11
771.5044023275257
 21
471.4950528711457
 31
0.0
1001
ACAD
1010
0.0
1020
0.0
1030
0.0
  0
LINE
  5
A88
330
112
100
AcDbEntity
  8
1
  6
Continuous
 62
     4
100
AcDbLine
 10
749.6481523275247
 20
439.0322011533471
 30
0.0
 11
771.5044023275257
 21
460.8884511533474
 31
0.0
1001
ACAD
1010
0.0
1020
0.0
1030
0.0
  0
LINE
  5
A89
330
112
100
AcDbEntity
  8
1
  6
Continuous
 62
     4
100
AcDbLine
 10
749.6481523275247
 20
428.4255994355491
 30
0.0
 11
771.5044023275257
 21
450.2818494355497
 31
0.0
1001
ACAD
1010
0.0
1020
0.0
1030
0.0
  0
LINE
  5
A8A
330
112
100
AcDbEntity
  8
1
  6
Continuous
 62
     4
100
AcDbLine
 10
749.6481523275247
 20
417.818997717751
 30
0.0
 11
771.5044023275257
 21
439.6752477177511
 31
0.0
1001
ACAD
1010
0.0
1020
0.0
1030
0.0
  0
LINE
  5
A8B
330
112
100
AcDbEntity
  8
1
  6
Continuous
 62
     4
100
AcDbLine
 10
749.6481523275247
 20
407.2123959999531
 30
0.0
 11
771.5044023275257
 21
429.0686459999537
 31
0.0
1001
ACAD
1010
0.0
1020
0.0
1030
0.0
  0
LINE
  5
A8C
330
112
100
AcDbEntity
  8
1
  6
Continuous
 62
     4
100
AcDbLine
 10
749.6481523275247
 20
396.6057942821551
 30
0.0
 11
771.5044023275257
 21
418.4620442821556
 31
0.0
1001
ACAD
1010
0.0
1020
0.0
1030
0.0
  0
LINE
  5
A8D
330
112
100
AcDbEntity
  8
1
  6
Continuous
 62
     4
100
AcDbLine
 10
749.6481523275247
 20
385.9991925643573
 30
0.0
 11
771.5044023275257
 21
407.8554425643575
 31
0.0
1001
ACAD
1010
0.0
1020
0.0
1030
0.0
  0
LINE
  5
A8E
330
112
100
AcDbEntity
  8
1
  6
Continuous
 62
     4
100
AcDbLine
 10
749.6481523275247
 20
375.3925908465591
 30
0.0
 11
771.5044023275257
 21
397.2488408465592
 31
0.0
1001
ACAD
1010
0.0
1020
0.0
1030
0.0
  0
LINE
  5
A8F
330
112
100
AcDbEntity
  8
1
  6
Continuous
 62
     4
100
AcDbLine
 10
749.6481523275251
 20
364.7859891287612
 30
0.0
 11
771.5044023275257
 21
386.6422391287618
 31
0.0
1001
ACAD
1010
0.0
1020
0.0
1030
0.0
  0
LINE
  5
A90
330
112
100
AcDbEntity
  8
1
  6
Continuous
 62
     4
100
AcDbLine
 10
749.6481523275247
 20
354.1793874109631
 30
0.0
 11
771.5044023275257
 21
376.0356374109631
 31
0.0
1001
ACAD
1010
0.0
1020
0.0
1030
0.0
  0
LINE
  5
A91
330
112
100
AcDbEntity
  8
1
  6
Continuous
 62
     4
100
AcDbLine
 10
749.6481523275247
 20
343.572785693165
 30
0.0
 11
771.5044023275257
 21
365.4290356931655
 31
0.0
1001
ACAD
1010
0.0
1020
0.0
1030
0.0
  0
LINE
  5
A92
330
112
100
AcDbEntity
  8
1
  6
Continuous
 62
     4
100
AcDbLine
 10
749.6481523275251
 20
332.9661839753671
 30
0.0
 11
771.5044023275257
 21
354.8224339753673
 31
0.0
1001
ACAD
1010
0.0
1020
0.0
1030
0.0
  0
LINE
  5
A93
330
112
100
AcDbEntity
  8
1
  6
Continuous
 62
     4
100
AcDbLine
 10
749.6481523275247
 20
322.3595822575691
 30
0.0
 11
771.5044023275257
 21
344.2158322575692
 31
0.0
1001
ACAD
1010
0.0
1020
0.0
1030
0.0
  0
LINE
  5
A94
330
112
100
AcDbEntity
  8
1
  6
Continuous
 62
     4
100
AcDbLine
 10
749.6481523275251
 20
311.7529805397706
 30
0.0
 11
771.5044023275257
 21
333.6092305397712
 31
0.0
1001
ACAD
1010
0.0
1020
0.0
1030
0.0
  0
LINE
  5
A95
330
112
100
AcDbEntity
  8
1
  6
Continuous
 62
     4
100
AcDbLine
 10
749.6481523275251
 20
301.1463788219732
 30
0.0
 11
771.5044023275257
 21
323.0026288219733
 31
0.0
1001
ACAD
1010
0.0
1020
0.0
1030
0.0
  0
LINE
  5
A96
330
112
100
AcDbEntity
  8
1
  6
Continuous
 62
     4
100
AcDbLine
 10
757.055939523149
 20
297.9475642997987
 30
0.0
 11
771.5044023275257
 21
312.3960271041751
 31
0.0
1001
ACAD
1010
0.0
1020
0.0
1030
0.0
  0
LINE
  5
A97
330
112
100
AcDbEntity
  8
1
  6
Continuous
 62
     4
100
AcDbLine
 10
764.4637267187725
 20
294.7487497776242
 30
0.0
 11
771.5044023275257
 21
301.7894253863774
 31
0.0
1001
ACAD
1010
0.0
1020
0.0
1030
0.0
  0
LINE
  5
AA0
330
112
100
AcDbEntity
  8
1
  6
Continuous
 62
     4
100
AcDbLine
 10
951.0169023275251
 20
513.2784131779333
 30
0.0
 11
957.0936609165164
 21
519.3551717669248
 31
0.0
1001
ACAD
1010
0.0
1020
0.0
1030
0.0
  0
LINE
  5
AA1
330
112
100
AcDbEntity
  8
1
  6
Continuous
 62
     4
100
AcDbLine
 10
951.0169023275251
 20
502.6718114601349
 30
0.0
 11
967.7002626343151
 21
519.3551717669246
 31
0.0
1001
ACAD
1010
0.0
1020
0.0
1030
0.0
  0
LINE
  5
AA2
330
112
100
AcDbEntity
  8
1
  6
Continuous
 62
     4
100
AcDbLine
 10
951.0169023275251
 20
492.0652097423363
 30
0.0
 11
972.8669023275251
 21
513.9152097423365
 31
0.0
1001
ACAD
1010
0.0
1020
0.0
1030
0.0
  0
LINE
  5
AA3
330
112
100
AcDbEntity
  8
1
  6
Continuous
 62
     4
100
AcDbLine
 10
951.0169023275256
 20
481.4586080245383
 30
0.0
 11
972.8669023275251
 21
503.3086080245376
 31
0.0
1001
ACAD
1010
0.0
1020
0.0
1030
0.0
  0
LINE
  5
AA4
330
112
100
AcDbEntity
  8
1
  6
Continuous
 62
     4
100
AcDbLine
 10
951.0169023275263
 20
470.8520063067399
 30
0.0
 11
972.8669023275251
 21
492.7020063067391
 31
0.0
1001
ACAD
1010
0.0
1020
0.0
1030
0.0
  0
LINE
  5
AA5
330
112
100
AcDbEntity
  8
1
  6
Continuous
 62
     4
100
AcDbLine
 10
951.0169023275263
 20
460.2454045889413
 30
0.0
 11
972.8669023275251
 21
482.0954045889406
 31
0.0
1001
ACAD
1010
0.0
1020
0.0
1030
0.0
  0
LINE
  5
AA6
330
112
100
AcDbEntity
  8
1
  6
Continuous
 62
     4
100
AcDbLine
 10
951.0169023275263
 20
449.6388028711431
 30
0.0
 11
972.8669023275251
 21
471.488802871142
 31
0.0
1001
ACAD
1010
0.0
1020
0.0
1030
0.0
  0
LINE
  5
AA7
330
112
100
AcDbEntity
  8
1
  6
Continuous
 62
     4
100
AcDbLine
 10
951.0169023275263
 20
439.0322011533446
 30
0.0
 11
972.8669023275251
 21
460.8822011533431
 31
0.0
1001
ACAD
1010
0.0
1020
0.0
1030
0.0
  0
LINE
  5
AA8
330
112
100
AcDbEntity
  8
1
  6
Continuous
 62
     4
100
AcDbLine
 10
951.0169023275263
 20
428.4255994355463
 30
0.0
 11
972.8669023275251
 21
450.275599435545
 31
0.0
1001
ACAD
1010
0.0
1020
0.0
1030
0.0
  0
LINE
  5
AA9
330
112
100
AcDbEntity
  8
1
  6
Continuous
 62
     4
100
AcDbLine
 10
951.0169023275278
 20
417.8189977177478
 30
0.0
 11
972.8669023275251
 21
439.6689977177461
 31
0.0
1001
ACAD
1010
0.0
1020
0.0
1030
0.0
  0
LINE
  5
AAA
330
112
100
AcDbEntity
  8
1
  6
Continuous
 62
     4
100
AcDbLine
 10
951.0169023275278
 20
407.2123959999493
 30
0.0
 11
972.8669023275251
 21
429.0623959999477
 31
0.0
1001
ACAD
1010
0.0
1020
0.0
1030
0.0
  0
LINE
  5
AAB
330
112
100
AcDbEntity
  8
1
  6
Continuous
 62
     4
100
AcDbLine
 10
951.0169023275278
 20
396.6057942821511
 30
0.0
 11
972.8669023275251
 21
418.455794282149
 31
0.0
1001
ACAD
1010
0.0
1020
0.0
1030
0.0
  0
LINE
  5
AAC
330
112
100
AcDbEntity
  8
1
  6
Continuous
 62
     4
100
AcDbLine
 10
951.0169023275278
 20
385.9991925643528
 30
0.0
 11
972.8669023275251
 21
407.8491925643507
 31
0.0
1001
ACAD
1010
0.0
1020
0.0
1030
0.0
  0
LINE
  5
AAD
330
112
100
AcDbEntity
  8
1
  6
Continuous
 62
     4
100
AcDbLine
 10
951.0169023275251
 20
375.3925908465518
 30
0.0
 11
972.8669023275251
 21
397.242590846552
 31
0.0
1001
ACAD
1010
0.0
1020
0.0
1030
0.0
  0
LINE
  5
AAE
330
112
100
AcDbEntity
  8
1
  6
Continuous
 62
     4
100
AcDbLine
 10
951.0169023275251
 20
364.7859891287536
 30
0.0
 11
972.8669023275251
 21
386.6359891287535
 31
0.0
1001
ACAD
1010
0.0
1020
0.0
1030
0.0
  0
LINE
  5
AAF
330
112
100
AcDbEntity
  8
1
  6
Continuous
 62
     4
100
AcDbLine
 10
951.0169023275256
 20
354.1793874109552
 30
0.0
 11
972.8669023275251
 21
376.0293874109545
 31
0.0
1001
ACAD
1010
0.0
1020
0.0
1030
0.0
  0
LINE
  5
AB0
330
112
100
AcDbEntity
  8
1
  6
Continuous
 62
     4
100
AcDbLine
 10
951.0169023275263
 20
343.5727856931569
 30
0.0
 11
972.8669023275251
 21
365.4227856931563
 31
0.0
1001
ACAD
1010
0.0
1020
0.0
1030
0.0
  0
LINE
  5
AB1
330
112
100
AcDbEntity
  8
1
  6
Continuous
 62
     4
100
AcDbLine
 10
951.0169023275251
 20
332.9661839753577
 30
0.0
 11
972.8669023275251
 21
354.8161839753575
 31
0.0
1001
ACAD
1010
0.0
1020
0.0
1030
0.0
  0
LINE
  5
AB2
330
112
100
AcDbEntity
  8
1
  6
Continuous
 62
     4
100
AcDbLine
 10
951.0169023275251
 20
322.3595822575593
 30
0.0
 11
972.8669023275251
 21
344.2095822575588
 31
0.0
1001
ACAD
1010
0.0
1020
0.0
1030
0.0
  0
LINE
  5
AB3
330
112
100
AcDbEntity
  8
1
  6
Continuous
 62
     4
100
AcDbLine
 10
951.0169023275256
 20
311.7529805397607
 30
0.0
 11
972.8669023275251
 21
333.6029805397606
 31
0.0
1001
ACAD
1010
0.0
1020
0.0
1030
0.0
  0
LINE
  5
AB4
330
112
100
AcDbEntity
  8
1
  6
Continuous
 62
     4
100
AcDbLine
 10
957.6996105403219
 20
307.829087034758
 30
0.0
 11
972.8669023275251
 21
322.9963788219618
 31
0.0
1001
ACAD
1010
0.0
1020
0.0
1030
0.0
  0
LINE
  5
AB5
330
112
100
AcDbEntity
  8
1
  6
Continuous
 62
     4
100
AcDbLine
 10
965.0631822077635
 20
304.5860569844015
 30
0.0
 11
972.8669023275251
 21
312.3897771041634
 31
0.0
1001
ACAD
1010
0.0
1020
0.0
1030
0.0
  0
LINE
  5
AB6
330
112
100
AcDbEntity
  8
1
  6
Continuous
 62
     4
100
AcDbLine
 10
972.4267538752052
 20
301.3430269340448
 30
0.0
 11
972.8669023275251
 21
301.7831753863646
 31
0.0
1001
ACAD
1010
0.0
1020
0.0
1030
0.0
  0
LINE
  5
ABE
330
112
100
AcDbEntity
  8
1
  6
Continuous
 62
     4
100
AcDbLine
 10
596.4981523275254
 20
612.7349895887755
 30
0.0
 11
602.5749109165167
 21
618.8117481777671
 31
0.0
1001
ACAD
1010
0.0
1020
0.0
1030
0.0
  0
LINE
  5
ABF
330
112
100
AcDbEntity
  8
1
  6
Continuous
 62
     4
100
AcDbLine
 10
596.4981523275254
 20
602.1283878709771
 30
0.0
 11
613.1815126343154
 21
618.8117481777671
 31
0.0
1001
ACAD
1010
0.0
1020
0.0
1030
0.0
  0
LINE
  5
AC0
330
112
100
AcDbEntity
  8
1
  6
Continuous
 62
     4
100
AcDbLine
 10
596.4981523275254
 20
591.5217861531782
 30
0.0
 11
617.241902327525
 21
612.2655361531784
 31
0.0
1001
ACAD
1010
0.0
1020
0.0
1030
0.0
  0
LINE
  5
AC1
330
112
100
AcDbEntity
  8
1
  6
Continuous
 62
     4
100
AcDbLine
 10
596.4981523275254
 20
580.9151844353801
 30
0.0
 11
617.241902327525
 21
601.6589344353794
 31
0.0
1001
ACAD
1010
0.0
1020
0.0
1030
0.0
  0
LINE
  5
AC2
330
112
100
AcDbEntity
  8
1
  6
Continuous
 62
     4
100
AcDbLine
 10
596.4981523275254
 20
570.3085827175812
 30
0.0
 11
617.241902327525
 21
591.0523327175813
 31
0.0
1001
ACAD
1010
0.0
1020
0.0
1030
0.0
  0
LINE
  5
AC3
330
112
100
AcDbEntity
  8
1
  6
Continuous
 62
     4
100
AcDbLine
 10
597.2579195055105
 20
560.461748177767
 30
0.0
 11
617.2419023275256
 21
580.4457309997826
 31
0.0
1001
ACAD
1010
0.0
1020
0.0
1030
0.0
  0
LINE
  5
AC4
330
112
100
AcDbEntity
  8
1
  6
Continuous
 62
     4
100
AcDbLine
 10
607.8645212233086
 20
560.461748177767
 30
0.0
 11
617.241902327525
 21
569.8391292819839
 31
0.0
1001
ACAD
1010
0.0
1020
0.0
1030
0.0
  0
LINE
  5
AC5
330
112
100
AcDbEntity
  8
1
  6
Continuous
 62
     4
100
AcDbLine
 10
686.960652327525
 20
612.7349895887755
 30
0.0
 11
693.0374109165167
 21
618.8117481777671
 31
0.0
1001
ACAD
1010
0.0
1020
0.0
1030
0.0
  0
LINE
  5
AC6
330
112
100
AcDbEntity
  8
1
  6
Continuous
 62
     4
100
AcDbLine
 10
686.9606523275256
 20
602.1283878709771
 30
0.0
 11
703.6440126343157
 21
618.8117481777671
 31
0.0
1001
ACAD
1010
0.0
1020
0.0
1030
0.0
  0
LINE
  5
AC7
330
112
100
AcDbEntity
  8
1
  6
Continuous
 62
     4
100
AcDbLine
 10
686.9606523275256
 20
591.5217861531782
 30
0.0
 11
714.2506143521136
 21
618.8117481777671
 31
0.0
1001
ACAD
1010
0.0
1020
0.0
1030
0.0
  0
LINE
  5
AC8
330
112
100
AcDbEntity
  8
1
  6
Continuous
 62
     4
100
AcDbLine
 10
686.9606523275256
 20
580.9151844353793
 30
0.0
 11
724.8572160699127
 21
618.8117481777671
 31
0.0
1001
ACAD
1010
0.0
1020
0.0
1030
0.0
  0
LINE
  5
AC9
330
112
100
AcDbEntity
  8
1
  6
Continuous
 62
     4
100
AcDbLine
 10
686.9606523275256
 20
570.3085827175807
 30
0.0
 11
735.4638177877111
 21
618.8117481777671
 31
0.0
1001
ACAD
1010
0.0
1020
0.0
1030
0.0
  0
LINE
  5
ACA
330
112
100
AcDbEntity
  8
1
  6
Continuous
 62
     4
100
AcDbLine
 10
687.7204195055106
 20
560.461748177767
 30
0.0
 11
746.0704195055106
 21
618.8117481777667
 31
0.0
1001
ACAD
1010
0.0
1020
0.0
1030
0.0
  0
LINE
  5
ACB
330
112
100
AcDbEntity
  8
1
  6
Continuous
 62
     4
100
AcDbLine
 10
698.3270212233093
 20
560.461748177767
 30
0.0
 11
775.2832712233082
 21
637.4179981777667
 31
0.0
1001
ACAD
1010
0.0
1020
0.0
1030
0.0
  0
LINE
  5
ACC
330
112
100
AcDbEntity
  8
1
  6
Continuous
 62
     4
100
AcDbLine
 10
698.748152327525
 20
550.2762775641843
 30
0.0
 11
785.7763392854275
 21
637.3044645220867
 31
0.0
1001
ACAD
1010
0.0
1020
0.0
1030
0.0
  0
LINE
  5
ACD
330
112
100
AcDbEntity
  8
1
  6
Continuous
 62
     4
100
AcDbLine
 10
705.0339746589066
 20
545.9554981777671
 30
0.0
 11
790.3312197837074
 21
631.2527433025683
 31
0.0
1001
ACAD
1010
0.0
1020
0.0
1030
0.0
  0
LINE
  5
ACE
330
112
100
AcDbEntity
  8
1
  6
Continuous
 62
     4
100
AcDbLine
 10
715.6405763767057
 20
545.9554981777671
 30
0.0
 11
796.0429148718394
 21
626.3578366729014
 31
0.0
1001
ACAD
1010
0.0
1020
0.0
1030
0.0
  0
LINE
  5
ACF
330
112
100
AcDbEntity
  8
1
  6
Continuous
 62
     4
100
AcDbLine
 10
726.2471780945037
 20
545.9554981777671
 30
0.0
 11
794.6633740171097
 21
614.3716941003735
 31
0.0
1001
ACAD
1010
0.0
1020
0.0
1030
0.0
  0
LINE
  5
AD0
330
112
100
AcDbEntity
  8
1
  6
Continuous
 62
     4
100
AcDbLine
 10
736.8537798123033
 20
545.9554981777671
 30
0.0
 11
793.6756373021858
 21
602.7773556676497
 31
0.0
1001
ACAD
1010
0.0
1020
0.0
1030
0.0
  0
LINE
  5
AD1
330
112
100
AcDbEntity
  8
1
  6
Continuous
 62
     4
100
AcDbLine
 10
747.4603815301016
 20
545.9554981777671
 30
0.0
 11
792.6879005872606
 21
591.1830172349262
 31
0.0
1001
ACAD
1010
0.0
1020
0.0
1030
0.0
  0
LINE
  5
AD2
330
112
100
AcDbEntity
  8
1
  6
Continuous
 62
     4
100
AcDbLine
 10
758.0669832479002
 20
545.9554981777671
 30
0.0
 11
791.7001638723356
 21
579.5886788022023
 31
0.0
1001
ACAD
1010
0.0
1020
0.0
1030
0.0
  0
LINE
  5
AD3
330
112
100
AcDbEntity
  8
1
  6
Continuous
 62
     4
100
AcDbLine
 10
751.3858513615257
 20
624.1271800337831
 30
0.0
 11
764.6766695055092
 21
637.4179981777667
 31
0.0
1001
ACAD
1010
0.0
1020
0.0
1030
0.0
  0
LINE
  5
AD5
330
112
100
AcDbEntity
  8
1
  6
Continuous
 62
     4
100
AcDbLine
 10
768.6735849656993
 20
545.9554981777671
 30
0.0
 11
797.7902967629067
 21
575.0722099749749
 31
0.0
1001
ACAD
1010
0.0
1020
0.0
1030
0.0
  0
LINE
  5
AD6
330
112
100
AcDbEntity
  8
1
  6
Continuous
 62
     4
100
AcDbLine
 10
779.2801866834979
 20
545.9554981777671
 30
0.0
 11
796.4653222307097
 21
563.1406337249784
 31
0.0
1001
ACAD
1010
0.0
1020
0.0
1030
0.0
  0
LINE
  5
AD7
330
112
100
AcDbEntity
  8
1
  6
Continuous
 62
     4
100
AcDbLine
 10
790.3113589460335
 20
546.2383934256966
 30
0.0
 11
796.080148308722
 21
552.0071827883851
 31
0.0
1001
ACAD
1010
0.0
1020
0.0
1030
0.0
  0
LINE
  5
AD8
330
112
100
AcDbEntity
  8
1
  6
Continuous
 62
     4
100
AcDbLine
 10
930.6242222229775
 20
619.0552415669314
 30
0.0
 11
948.9869788338124
 21
637.4179981777671
 31
0.0
1001
ACAD
1010
0.0
1020
0.0
1030
0.0
  0
LINE
  5
AD9
330
112
100
AcDbEntity
  8
1
  6
Continuous
 62
     4
100
AcDbLine
 10
929.1917089922932
 20
607.0161266184486
 30
0.0
 11
959.5935805516116
 21
637.417998177767
 31
0.0
1001
ACAD
1010
0.0
1020
0.0
1030
0.0
  0
LINE
  5
ADD
330
112
100
AcDbEntity
  8
1
  6
Continuous
 62
     4
100
AcDbLine
 10
927.7591957616097
 20
594.9770116699665
 30
0.0
 11
968.1678177814674
 21
635.3856336898241
 31
0.0
1001
ACAD
1010
0.0
1020
0.0
1030
0.0
  0
LINE
  5
ADE
330
112
100
AcDbEntity
  8
1
  6
Continuous
 62
     4
100
AcDbLine
 10
926.3266825309269
 20
582.9378967214847
 30
0.0
 11
971.1354532935242
 21
627.7466674840817
 31
0.0
1001
ACAD
1010
0.0
1020
0.0
1030
0.0
  0
LINE
  5
ADF
330
112
100
AcDbEntity
  8
1
  6
Continuous
 62
     4
100
AcDbLine
 10
924.3408656353231
 20
570.3454781080822
 30
0.0
 11
974.4712944992656
 21
620.4759069720251
 31
0.0
1001
ACAD
1010
0.0
1020
0.0
1030
0.0
  0
LINE
  5
AE0
330
112
100
AcDbEntity
  8
1
  6
Continuous
 62
     4
100
AcDbLine
 10
923.4616560695595
 20
558.85966682452
 30
0.0
 11
983.4137374228067
 21
618.8117481777672
 31
0.0
1001
ACAD
1010
0.0
1020
0.0
1030
0.0
  0
LINE
  5
AE1
330
112
100
AcDbEntity
  8
1
  6
Continuous
 62
     4
100
AcDbLine
 10
922.4807030055977
 20
547.2721120427594
 30
0.0
 11
928.9495386759172
 21
553.7409477130788
 31
0.0
1001
ACAD
1010
0.0
1020
0.0
1030
0.0
  0
LINE
  5
AE2
330
112
100
AcDbEntity
  8
1
  6
Continuous
 62
     4
100
AcDbLine
 10
931.7706908584034
 20
545.9554981777671
 30
0.0
 11
1004.626940858403
 21
618.8117481777671
 31
0.0
1001
ACAD
1010
0.0
1020
0.0
1030
0.0
  0
LINE
  5
AE3
330
112
100
AcDbEntity
  8
1
  6
Continuous
 62
     4
100
AcDbLine
 10
942.3772925762019
 20
545.9554981777671
 30
0.0
 11
1015.2335425762
 21
618.8117481777671
 31
0.0
1001
ACAD
1010
0.0
1020
0.0
1030
0.0
  0
LINE
  5
AE4
330
112
100
AcDbEntity
  8
1
  6
Continuous
 62
     4
100
AcDbLine
 10
952.9838942940013
 20
545.9554981777671
 30
0.0
 11
1025.840144294001
 21
618.8117481777667
 31
0.0
1001
ACAD
1010
0.0
1020
0.0
1030
0.0
  0
LINE
  5
AE5
330
112
100
AcDbEntity
  8
1
  6
Continuous
 62
     4
100
AcDbLine
 10
963.5904960117995
 20
545.9554981777671
 30
0.0
 11
1035.560652327525
 21
617.9256544934925
 31
0.0
1001
ACAD
1010
0.0
1020
0.0
1030
0.0
  0
LINE
  5
AE6
330
112
100
AcDbEntity
  8
1
  6
Continuous
 62
     4
100
AcDbLine
 10
974.1970977295983
 20
545.9554981777671
 30
0.0
 11
1035.560652327525
 21
607.3190527756938
 31
0.0
1001
ACAD
1010
0.0
1020
0.0
1030
0.0
  0
LINE
  5
AE7
330
112
100
AcDbEntity
  8
1
  6
Continuous
 62
     4
100
AcDbLine
 10
984.8036994473968
 20
545.9554981777671
 30
0.0
 11
1035.560652327525
 21
596.7124510578951
 31
0.0
1001
ACAD
1010
0.0
1020
0.0
1030
0.0
  0
LINE
  5
AE8
330
112
100
AcDbEntity
  8
1
  6
Continuous
 62
     4
100
AcDbLine
 10
995.4103011651955
 20
545.9554981777671
 30
0.0
 11
1035.560652327525
 21
586.1058493400962
 31
0.0
1001
ACAD
1010
0.0
1020
0.0
1030
0.0
  0
LINE
  5
AE9
330
112
100
AcDbEntity
  8
1
  6
Continuous
 62
     4
100
AcDbLine
 10
1006.016902882993
 20
545.9554981777671
 30
0.0
 11
1035.560652327525
 21
575.4992476222977
 31
0.0
1001
ACAD
1010
0.0
1020
0.0
1030
0.0
  0
LINE
  5
AEA
330
112
100
AcDbEntity
  8
1
  6
Continuous
 62
     4
100
AcDbLine
 10
1016.623504600792
 20
545.9554981777671
 30
0.0
 11
1023.773152327525
 21
553.1051459044991
 31
0.0
1001
ACAD
1010
0.0
1020
0.0
1030
0.0
  0
LINE
  5
AEB
330
112
100
AcDbEntity
  8
1
  6
Continuous
 62
     4
100
AcDbLine
 10
1031.12975460079
 20
560.461748177767
 30
0.0
 11
1035.560652327525
 21
564.8926459044993
 31
0.0
1001
ACAD
1010
0.0
1020
0.0
1030
0.0
  0
LINE
  5
AEC
330
112
100
AcDbEntity
  8
1
  6
Continuous
 62
     4
100
AcDbLine
 10
1105.27940232752
 20
612.7349895887755
 30
0.0
 11
1111.356160916515
 21
618.8117481777671
 31
0.0
1001
ACAD
1010
0.0
1020
0.0
1030
0.0
  0
LINE
  5
AED
330
112
100
AcDbEntity
  8
1
  6
Continuous
 62
     4
100
AcDbLine
 10
1105.27940232752
 20
602.1283878709771
 30
0.0
 11
1121.962762634314
 21
618.8117481777671
 31
0.0
1001
ACAD
1010
0.0
1020
0.0
1030
0.0
  0
LINE
  5
AEE
330
112
100
AcDbEntity
  8
1
  6
Continuous
 62
     4
100
AcDbLine
 10
1105.27940232752
 20
591.5217861531782
 30
0.0
 11
1126.066902327525
 21
612.3092861531794
 31
0.0
1001
ACAD
1010
0.0
1020
0.0
1030
0.0
  0
LINE
  5
AEF
330
112
100
AcDbEntity
  8
1
  6
Continuous
 62
     4
100
AcDbLine
 10
1105.27940232752
 20
580.9151844353797
 30
0.0
 11
1126.066902327525
 21
601.7026844353807
 31
0.0
1001
ACAD
1010
0.0
1020
0.0
1030
0.0
  0
LINE
  5
AF0
330
112
100
AcDbEntity
  8
1
  6
Continuous
 62
     4
100
AcDbLine
 10
1105.27940232752
 20
570.3085827175811
 30
0.0
 11
1126.066902327525
 21
591.0960827175822
 31
0.0
1001
ACAD
1010
0.0
1020
0.0
1030
0.0
  0
LINE
  5
AF1
330
112
100
AcDbEntity
  8
1
  6
Continuous
 62
     4
100
AcDbLine
 10
1106.039169505506
 20
560.4617481777672
 30
0.0
 11
1126.066902327525
 21
580.4894809997838
 31
0.0
1001
ACAD
1010
0.0
1020
0.0
1030
0.0
  0
LINE
  5
AF2
330
112
100
AcDbEntity
  8
1
  6
Continuous
 62
     4
100
AcDbLine
 10
1116.645771223305
 20
560.4617481777672
 30
0.0
 11
1126.066902327525
 21
569.8828792819852
 31
0.0
1001
ACAD
1010
0.0
1020
0.0
1030
0.0
  0
LINE
  5
BE3
330
112
100
AcDbEntity
  8
1
  6
Continuous
 62
     4
100
AcDbLine
 10
796.0429148718398
 20
625.69522203227
 30
0.0
 11
796.0429148718396
 21
634.8929753066344
 31
0.0
  0
LINE
  5
BE4
330
112
100
AcDbEntity
  8
1
  6
Continuous
 62
     4
100
AcDbLine
 10
796.0429148718404
 20
613.4181713786181
 30
0.0
 11
796.0429148718398
 21
621.8783790957477
 31
0.0
  0
LINE
  5
C94
330
112
100
AcDbEntity
  8
1
  6
Continuous
 62
     4
100
AcDbLine
 10
796.0429148718398
 20
601.1411207249671
 30
0.0
 11
796.0429148718398
 21
608.8637828848584
 31
0.0
  0
LINE
  5
C95
330
112
100
AcDbEntity
  8
1
  6
Continuous
 62
     4
100
AcDbLine
 10
796.0429148718404
 20
588.8640700713152
 30
0.0
 11
796.0429148718398
 21
595.8491866739702
 31
0.0
  0
LINE
  5
C96
330
112
100
AcDbEntity
  8
1
  6
Continuous
 62
     4
100
AcDbLine
 10
796.0429148718408
 20
576.5870194176632
 30
0.0
 11
796.0429148718408
 21
582.8345904630826
 31
0.0
  0
LINE
  5
C9D
330
112
100
AcDbEntity
  8
1
  6
Continuous
 62
     4
100
AcDbLine
 10
861.2606523275252
 20
661.1627469090515
 30
0.0
 11
861.2606523275252
 21
560.9554981777671
 31
0.0
  0
LINE
  5
C9E
330
112
100
AcDbEntity
  8
1
  6
Continuous
 62
     4
100
AcDbLine
 10
926.4783897832094
 20
563.4325968177257
 30
0.0
 11
926.4783897832094
 21
568.8899140619418
 31
0.0
  0
LINE
  5
CA0
330
112
100
AcDbEntity
  8
1
  6
Continuous
 62
     4
100
AcDbLine
 10
926.4783897832099
 20
613.4181713786181
 30
0.0
 11
926.4783897832105
 21
621.8783790957477
 31
0.0
  0
LINE
  5
CAF
330
112
100
AcDbEntity
  8
1
  6
Continuous
 62
     4
100
AcDbLine
 10
926.4783897832105
 20
601.1411207249671
 30
0.0
 11
926.4783897832105
 21
608.8637828848584
 31
0.0
  0
LINE
  5
CB0
330
112
100
AcDbEntity
  8
1
  6
Continuous
 62
     4
100
AcDbLine
 10
926.4783897832099
 20
588.8640700713152
 30
0.0
 11
926.4783897832099
 21
595.8491866739702
 31
0.0
  0
LINE
  5
CB1
330
112
100
AcDbEntity
  8
1
  6
Continuous
 62
     4
100
AcDbLine
 10
926.4783897832094
 20
576.5870194176632
 30
0.0
 11
926.4783897832094
 21
582.8345904630826
 31
0.0
  0
LINE
  5
CB2
330
112
100
AcDbEntity
  8
1
  6
Continuous
 62
     4
100
AcDbLine
 10
929.7715115683734
 20
554.5629206055354
 30
0.0
 11
994.0203391406052
 21
618.8117481777671
 31
0.0
1001
ACAD
1010
0.0
1020
0.0
1030
0.0
  0
LINE
  5
DC3
330
112
100
AcDbEntity
  8
1
  6
Continuous
 62
     4
100
AcDbLine
 10
796.0429148718367
 20
774.7180850285956
 30
0.0
 11
805.3004180885773
 21
778.8571250567363
 31
0.0
  0
LINE
  5
DC4
330
112
100
AcDbEntity
  8
1
  6
Continuous
 62
     4
100
AcDbLine
 10
805.3004180885773
 20
778.8571250567363
 30
0.0
 11
814.1439542297021
 21
781.3584367596076
 31
0.0
  0
LINE
  5
DC5
330
112
100
AcDbEntity
  8
1
  6
Continuous
 62
     4
100
AcDbLine
 10
814.1439542297021
 20
781.3584367596076
 30
0.0
 11
820.3831966563392
 21
782.4102714950902
 31
0.0
  0
LINE
  5
DC6
330
112
100
AcDbEntity
  8
1
  6
Continuous
 62
     4
100
AcDbLine
 10
820.3831966563392
 20
782.4102714950902
 30
0.0
 11
827.4493302228147
 21
782.8610587682365
 31
0.0
  0
LINE
  5
DC7
330
112
100
AcDbEntity
  8
1
  6
Continuous
 62
     4
100
AcDbLine
 10
827.4493302228147
 20
782.8610587682365
 30
0.0
 11
833.3127160834738
 21
782.5605350370681
 31
0.0
  0
LINE
  5
DC8
330
112
100
AcDbEntity
  8
1
  6
Continuous
 62
     4
100
AcDbLine
 10
833.3127160834738
 20
782.5605350370681
 30
0.0
 11
840.8298775291227
 21
781.5838312343776
 31
0.0
  0
LINE
  5
DC9
330
112
100
AcDbEntity
  8
1
  6
Continuous
 62
     4
100
AcDbLine
 10
840.8298775291227
 20
781.5838312343776
 30
0.0
 11
845.7912042840918
 21
780.5319964988948
 31
0.0
  0
LINE
  5
DCA
330
112
100
AcDbEntity
  8
1
  6
Continuous
 62
     4
100
AcDbLine
 10
845.7912042840918
 20
780.5319964988948
 30
0.0
 11
851.4290762051651
 21
778.728850759098
 31
0.0
  0
LINE
  5
DCB
330
112
100
AcDbEntity
  8
1
  6
Continuous
 62
     4
100
AcDbLine
 10
851.4290762051651
 20
778.728850759098
 30
0.0
 11
856.841434186651
 21
776.4749194225486
 31
0.0
  0
LINE
  5
DCC
330
112
100
AcDbEntity
  8
1
  6
Continuous
 62
     4
100
AcDbLine
 10
856.841434186651
 20
776.4749194225486
 30
0.0
 11
861.2612525259773
 21
774.1868297980146
 31
0.0
  0
LINE
  5
DCD
330
112
100
AcDbEntity
  8
1
  6
Continuous
 62
     4
100
AcDbLine
 10
861.2606523275252
 20
729.8812335186791
 30
0.0
 11
861.2606523275252
 21
665.4296122284428
 31
0.0
  0
LINE
  5
DD9
330
112
100
AcDbEntity
  8
1
  6
Continuous
 62
     4
100
AcDbLine
 10
926.4796060435871
 20
774.7161340031501
 30
0.0
 11
917.2906300500454
 21
770.4271086648451
 31
0.0
  0
LINE
  5
DDA
330
112
100
AcDbEntity
  8
1
  6
Continuous
 62
     4
100
AcDbLine
 10
917.2906300500454
 20
770.4271086648451
 30
0.0
 11
908.4889359579975
 21
767.7823264763985
 31
0.0
  0
LINE
  5
DDB
330
112
100
AcDbEntity
  8
1
  6
Continuous
 62
     4
100
AcDbLine
 10
908.4889359579975
 20
767.7823264763985
 30
0.0
 11
902.2676218979896
 21
766.6291769909213
 31
0.0
  0
LINE
  5
DDC
330
112
100
AcDbEntity
  8
1
  6
Continuous
 62
     4
100
AcDbLine
 10
902.2676218979896
 20
766.6291769909213
 30
0.0
 11
895.2097526318894
 21
766.0635497571815
 31
0.0
  0
LINE
  5
DDD
330
112
100
AcDbEntity
  8
1
  6
Continuous
 62
     4
100
AcDbLine
 10
895.2097526318894
 20
766.0635497571815
 30
0.0
 11
889.3422552870829
 21
766.2686915926497
 31
0.0
  0
LINE
  5
DDE
330
112
100
AcDbEntity
  8
1
  6
Continuous
 62
     4
100
AcDbLine
 10
889.3422552870829
 20
766.2686915926497
 30
0.0
 11
881.8102059141184
 21
767.1230327196972
 31
0.0
  0
LINE
  5
DDF
330
112
100
AcDbEntity
  8
1
  6
Continuous
 62
     4
100
AcDbLine
 10
881.8102059141184
 20
767.1230327196972
 30
0.0
 11
876.8324316452007
 21
768.0940542478015
 31
0.0
  0
LINE
  5
DE0
330
112
100
AcDbEntity
  8
1
  6
Continuous
 62
     4
100
AcDbLine
 10
876.8324316452007
 20
768.0940542478015
 30
0.0
 11
871.1659848912331
 21
769.8052864184371
 31
0.0
  0
LINE
  5
DE1
330
112
100
AcDbEntity
  8
1
  6
Continuous
 62
     4
100
AcDbLine
 10
871.1659848912331
 20
769.8052864184371
 30
0.0
 11
865.7176922175862
 21
771.9709115780447
 31
0.0
  0
LINE
  5
DE2
330
112
100
AcDbEntity
  8
1
  6
Continuous
 62
     4
100
AcDbLine
 10
865.7176922175862
 20
771.9709115780447
 30
0.0
 11
861.2612525259773
 21
774.1868297980146
 31
0.0
  0
LINE
  5
DEA
330
112
100
AcDbEntity
  8
-1
  6
Continuous
 62
     3
100
AcDbLine
 10
620.2106523275253
 20
320.4304981777668
 30
0.0
 11
1102.354402327525
 21
320.4304981777668
 31
0.0
  0
LINE
  5
DEB
330
112
100
AcDbEntity
  8
-1
  6
Continuous
 62
     3
100
AcDbLine
 10
675.8106523275255
 20
371.8179981777672
 30
0.0
 11
1046.710652327525
 21
371.8179981777672
 31
0.0
  0
LINE
  5
DEC
330
112
100
AcDbEntity
  8
-1
  6
Continuous
 62
     7
100
AcDbLine
 10
596.4981523275254
 20
618.8117481777671
 30
0.0
 11
746.3858513615257
 21
618.8117481777671
 31
0.0
  0
LINE
  5
DED
330
112
100
AcDbEntity
  8
-1
  6
Continuous
 62
     3
100
AcDbLine
 10
698.748152327525
 20
424.574248177767
 30
0.0
 11
722.4606523275252
 21
418.017998177767
 31
0.0
  0
LINE
  5
DEE
330
112
100
AcDbEntity
  8
-1
  6
Continuous
 62
     3
100
AcDbLine
 10
698.748152327525
 20
424.574248177767
 30
0.0
 11
722.4606523275252
 21
431.1304981777672
 31
0.0
  0
LINE
  5
DEF
330
112
100
AcDbEntity
  8
-1
  6
Continuous
 62
     7
100
AcDbLine
 10
698.748152327525
 20
545.9554981777671
 30
0.0
 11
1023.773152327525
 21
545.9554981777671
 31
0.0
  0
LINE
  5
DF0
330
112
100
AcDbEntity
  8
-1
  6
Continuous
 62
     3
100
AcDbLine
 10
462.0231523275251
 20
560.461748177767
 30
0.0
 11
468.5794023275256
 21
584.174248177767
 31
0.0
  0
LINE
  5
DF1
330
112
100
AcDbEntity
  8
-1
  6
Continuous
 62
     3
100
AcDbLine
 10
462.0231523275251
 20
560.461748177767
 30
0.0
 11
455.4669023275255
 21
584.174248177767
 31
0.0
  0
LINE
  5
DF2
330
112
100
AcDbEntity
  8
-1
  6
Continuous
 62
     7
100
AcDbLine
 10
686.960652327525
 20
618.8117481777671
 30
0.0
 11
686.960652327525
 21
560.461748177767
 31
0.0
  0
LINE
  5
DF3
330
112
100
AcDbEntity
  8
-1
  6
Continuous
 62
     7
100
AcDbLine
 10
617.241902327525
 20
618.8117481777671
 30
0.0
 11
617.241902327525
 21
560.461748177767
 31
0.0
  0
LINE
  5
DF4
330
112
100
AcDbEntity
  8
-1
  6
Continuous
 62
     7
100
AcDbLine
 10
596.4981523275254
 20
618.8117481777671
 30
0.0
 11
596.4981523275254
 21
560.461748177767
 31
0.0
  0
LINE
  5
DF5
330
112
100
AcDbEntity
  8
-1
  6
Continuous
 62
     3
100
AcDbLine
 10
689.748152327525
 20
545.9554981777671
 30
0.0
 11
655.0981523275257
 21
545.9554981777671
 31
0.0
  0
LINE
  5
DF6
330
112
100
AcDbEntity
  8
-1
  6
Continuous
 62
     3
100
AcDbLine
 10
649.0981523275259
 20
545.9554981777671
 30
0.0
 11
599.4981523275255
 21
545.9554981777671
 31
0.0
  0
LINE
  5
DF7
330
112
100
AcDbEntity
  8
-1
  6
Continuous
 62
     3
100
AcDbLine
 10
593.4981523275255
 20
545.9554981777671
 30
0.0
 11
453.7231523275258
 21
545.9554981777671
 31
0.0
  0
LINE
  5
DF8
330
112
100
AcDbEntity
  8
-1
  6
Continuous
 62
     3
100
AcDbLine
 10
587.4981523275255
 20
560.461748177767
 30
0.0
 11
453.7231523275258
 21
560.461748177767
 31
0.0
  0
LINE
  5
DF9
330
112
100
AcDbEntity
  8
-1
  6
Continuous
 62
     3
100
AcDbLine
 10
462.0231523275251
 20
496.5367481777672
 30
0.0
 11
351.1794023275251
 21
496.5367481777672
 31
0.0
  0
LINE
  5
DFA
330
112
100
AcDbEntity
  8
-1
  6
Continuous
 62
     3
100
AcDbLine
 10
462.0231523275251
 20
496.5367481777672
 30
0.0
 11
462.0231523275251
 21
522.242998177767
 31
0.0
  0
LINE
  5
DFB
330
112
100
AcDbEntity
  8
-1
  6
Continuous
 62
     5
100
AcDbLine
 10
377.8794023275247
 20
516.6554981777671
 30
0.0
 11
389.8794023275247
 21
516.6554981777671
 31
0.0
  0
LINE
  5
DFC
330
112
100
AcDbEntity
  8
-1
  6
Continuous
 62
     3
100
AcDbLine
 10
462.0231523275251
 20
545.9554981777671
 30
0.0
 11
455.4669023275255
 21
522.242998177767
 31
0.0
  0
LINE
  5
DFD
330
112
100
AcDbEntity
  8
-1
  6
Continuous
 62
     3
100
AcDbLine
 10
462.0231523275251
 20
545.9554981777671
 30
0.0
 11
468.5794023275256
 21
522.242998177767
 31
0.0
  0
LINE
  5
DFE
330
112
100
AcDbEntity
  8
-1
  6
Continuous
 62
     3
100
AcDbLine
 10
455.4669023275255
 20
522.242998177767
 30
0.0
 11
468.5794023275256
 21
522.242998177767
 31
0.0
  0
LINE
  5
E00
330
112
100
AcDbEntity
  8
-1
  6
Continuous
 62
     3
100
AcDbLine
 10
652.0981523275259
 20
551.461748177767
 30
0.0
 11
652.0981523275259
 21
362.8179981777672
 31
0.0
  0
LINE
  5
E01
330
112
100
AcDbEntity
  8
-1
  6
Continuous
 62
     3
100
AcDbLine
 10
596.4981523275254
 20
551.461748177767
 30
0.0
 11
596.4981523275254
 21
531.2069944663988
 31
0.0
  0
LINE
  5
E02
330
112
100
AcDbEntity
  8
-1
  6
Continuous
 62
     3
100
AcDbLine
 10
620.2106523275253
 20
313.8742481777669
 30
0.0
 11
620.2106523275253
 21
326.9867481777668
 31
0.0
  0
LINE
  5
E03
330
112
100
AcDbEntity
  8
-1
  6
Continuous
 62
     3
100
AcDbLine
 10
596.4981523275254
 20
319.430498177767
 30
0.0
 11
620.2106523275253
 21
312.8742481777671
 31
0.0
  0
LINE
  5
E04
330
112
100
AcDbEntity
  8
-1
  6
Continuous
 62
     3
100
AcDbLine
 10
596.4981523275254
 20
320.4304981777668
 30
0.0
 11
620.2106523275253
 21
326.9867481777668
 31
0.0
  0
LINE
  5
E05
330
112
100
AcDbEntity
  8
-1
  6
Continuous
 62
     3
100
AcDbLine
 10
652.0981523275259
 20
371.8179981777672
 30
0.0
 11
675.8106523275255
 21
365.2617481777669
 31
0.0
  0
LINE
  5
E06
330
112
100
AcDbEntity
  8
-1
  6
Continuous
 62
     3
100
AcDbLine
 10
652.0981523275259
 20
371.8179981777672
 30
0.0
 11
675.8106523275255
 21
378.3742481777669
 31
0.0
  0
LINE
  5
E07
330
112
100
AcDbEntity
  8
-1
  6
Continuous
 62
     3
100
AcDbLine
 10
675.8106523275255
 20
365.2617481777669
 30
0.0
 11
675.8106523275255
 21
378.3742481777669
 31
0.0
  0
LINE
  5
E08
330
112
100
AcDbEntity
  8
-1
  6
Continuous
 62
     7
100
AcDbLine
 10
596.4981523275254
 20
560.461748177767
 30
0.0
 11
698.748152327525
 21
560.461748177767
 31
0.0
  0
LINE
  5
E09
330
112
100
AcDbEntity
  8
-1
  6
Continuous
 62
     7
100
AcDbLine
 10
698.748152327525
 20
560.461748177767
 30
0.0
 11
698.748152327525
 21
545.9554981777671
 31
0.0
  0
LINE
  5
E0A
330
112
100
AcDbEntity
  8
-1
  6
Continuous
 62
     3
100
AcDbLine
 10
462.0231523275251
 20
584.174248177767
 30
0.0
 11
462.0231523275251
 21
609.874248177767
 31
0.0
  0
LINE
  5
E0B
330
112
100
AcDbEntity
  8
-1
  6
Continuous
 62
     3
100
AcDbLine
 10
468.5794023275256
 20
584.174248177767
 30
0.0
 11
455.4669023275255
 21
584.174248177767
 31
0.0
  0
LINE
  5
E1B
330
112
100
AcDbEntity
  8
-1
  6
Continuous
 62
     7
100
AcDbLine
 10
1105.27940232752
 20
618.8117481777671
 30
0.0
 11
1105.27940232752
 21
560.461748177767
 31
0.0
  0
LINE
  5
E1C
330
112
100
AcDbEntity
  8
-1
  6
Continuous
 62
     7
100
AcDbLine
 10
1035.560652327525
 20
618.8117481777671
 30
0.0
 11
1035.560652327525
 21
560.461748177767
 31
0.0
  0
LINE
  5
E1D
330
112
100
AcDbEntity
  8
-1
  6
Continuous
 62
     7
100
AcDbLine
 10
1126.066902327525
 20
618.8117481777671
 30
0.0
 11
1126.066902327525
 21
560.461748177767
 31
0.0
  0
LINE
  5
E1E
330
112
100
AcDbEntity
  8
-1
  6
Continuous
 62
     3
100
AcDbLine
 10
1032.773152327524
 20
545.9554981777671
 30
0.0
 11
1067.423152327523
 21
545.9554981777671
 31
0.0
  0
LINE
  5
E1F
330
112
100
AcDbEntity
  8
-1
  6
Continuous
 62
     3
100
AcDbLine
 10
1073.423152327523
 20
545.9554981777671
 30
0.0
 11
1123.066902327525
 21
545.955498177767
 31
0.0
  0
LINE
  5
E20
330
112
100
AcDbEntity
  8
-1
  6
Continuous
 62
     3
100
AcDbLine
 10
1129.066902327525
 20
545.9554981777671
 30
0.0
 11
1265.366902327524
 21
545.955498177767
 31
0.0
  0
LINE
  5
E21
330
112
100
AcDbEntity
  8
-1
  6
Continuous
 62
     3
100
AcDbLine
 10
722.4606523275252
 20
424.574248177767
 30
0.0
 11
1000.060652327525
 21
424.574248177767
 31
0.0
  0
LINE
  5
E22
330
112
100
AcDbEntity
  8
-1
  6
Continuous
 62
     3
100
AcDbLine
 10
722.4606523275252
 20
418.017998177767
 30
0.0
 11
722.4606523275252
 21
431.1304981777672
 31
0.0
  0
LINE
  5
E23
330
112
100
AcDbEntity
  8
-1
  6
Continuous
 62
     5
100
AcDbLine
 10
861.2919023275251
 20
340.430498177767
 30
0.0
 11
864.2919023275258
 21
340.430498177767
 31
0.0
  0
LINE
  5
E24
330
112
100
AcDbEntity
  8
-1
  6
Continuous
 62
     5
100
AcDbLine
 10
861.2669023275257
 20
391.8179981777671
 30
0.0
 11
880.2669023275258
 21
391.8179981777671
 31
0.0
  0
LINE
  5
E25
330
112
100
AcDbEntity
  8
-1
  6
Continuous
 62
     5
100
AcDbLine
 10
861.2544023275258
 20
444.574248177767
 30
0.0
 11
872.254402327526
 21
444.574248177767
 31
0.0
  0
LINE
  5
E26
330
112
100
AcDbEntity
  8
-1
  6
Continuous
 62
     3
100
AcDbLine
 10
1000.060652327525
 20
431.1304981777672
 30
0.0
 11
1000.060652327525
 21
418.017998177767
 31
0.0
  0
LINE
  5
E27
330
112
100
AcDbEntity
  8
-1
  6
Continuous
 62
     3
100
AcDbLine
 10
1023.773152327525
 20
424.574248177767
 30
0.0
 11
1000.060652327525
 21
431.1304981777672
 31
0.0
  0
LINE
  5
E28
330
112
100
AcDbEntity
  8
-1
  6
Continuous
 62
     3
100
AcDbLine
 10
1126.066902327525
 20
551.461748177767
 30
0.0
 11
1126.066902327525
 21
532.8793938204287
 31
0.0
  0
LINE
  5
E29
330
112
100
AcDbEntity
  8
-1
  6
Continuous
 62
     3
100
AcDbLine
 10
1070.423152327522
 20
551.461748177767
 30
0.0
 11
1070.423152327522
 21
362.8179981777672
 31
0.0
  0
LINE
  5
E2B
330
112
100
AcDbEntity
  8
-1
  6
Continuous
 62
     3
100
AcDbLine
 10
1023.773152327525
 20
424.574248177767
 30
0.0
 11
1000.060652327525
 21
418.017998177767
 31
0.0
  0
LINE
  5
E2C
330
112
100
AcDbEntity
  8
-1
  6
Continuous
 62
     3
100
AcDbLine
 10
1102.354402327525
 20
326.9867481777668
 30
0.0
 11
1102.354402327525
 21
313.8742481777669
 31
0.0
  0
LINE
  5
E2D
330
112
100
AcDbEntity
  8
-1
  6
Continuous
 62
     3
100
AcDbLine
 10
1126.066902327525
 20
320.4304981777668
 30
0.0
 11
1102.354402327525
 21
313.8742481777669
 31
0.0
  0
LINE
  5
E2E
330
112
100
AcDbEntity
  8
-1
  6
Continuous
 62
     3
100
AcDbLine
 10
1126.066902327525
 20
320.4304981777668
 30
0.0
 11
1102.354402327525
 21
326.9867481777668
 31
0.0
  0
LINE
  5
E2F
330
112
100
AcDbEntity
  8
-1
  6
Continuous
 62
     3
100
AcDbLine
 10
1070.423152327522
 20
371.8179981777672
 30
0.0
 11
1046.710652327525
 21
378.3742481777669
 31
0.0
  0
LINE
  5
E30
330
112
100
AcDbEntity
  8
-1
  6
Continuous
 62
     3
100
AcDbLine
 10
1070.423152327522
 20
371.8179981777672
 30
0.0
 11
1046.710652327525
 21
365.2617481777669
 31
0.0
  0
LINE
  5
E31
330
112
100
AcDbEntity
  8
-1
  6
Continuous
 62
     3
100
AcDbLine
 10
1046.710652327525
 20
378.3742481777669
 30
0.0
 11
1046.710652327525
 21
365.2617481777669
 31
0.0
  0
LINE
  5
E32
330
112
100
AcDbEntity
  8
-1
  6
Continuous
 62
     7
100
AcDbLine
 10
1023.773152327525
 20
560.461748177767
 30
0.0
 11
1126.066902327525
 21
560.461748177767
 31
0.0
  0
LINE
  5
E33
330
112
100
AcDbEntity
  8
-1
  6
Continuous
 62
     7
100
AcDbLine
 10
1023.773152327525
 20
560.461748177767
 30
0.0
 11
1023.773152327525
 21
545.9554981777671
 31
0.0
  0
LINE
  5
E34
330
112
100
AcDbEntity
  8
1
  6
Continuous
 62
     7
100
AcDbLine
 10
1023.773152327525
 20
560.292998177767
 30
0.0
 11
1023.773152327525
 21
545.7867481777672
 31
0.0
  0
LINE
  5
E36
330
112
100
AcDbEntity
  8
-1
  6
Continuous
 62
     3
100
AcDbLine
 10
1256.366902327525
 20
545.9554981777671
 30
0.0
 11
1251.191902327525
 21
564.6679981777671
 31
0.0
  0
LINE
  5
E37
330
112
100
AcDbEntity
  8
-1
  6
Continuous
 62
     3
100
AcDbLine
 10
1261.541902327525
 20
564.6679981777671
 30
0.0
 11
1251.191902327525
 21
564.6679981777671
 31
0.0
  0
LINE
  5
E38
330
112
100
AcDbEntity
  8
-1
  6
Continuous
 62
     3
100
AcDbLine
 10
1133.104402327523
 20
618.8117481777671
 30
0.0
 11
1265.366902327524
 21
618.8117481777671
 31
0.0
  0
LINE
  5
E39
330
112
100
AcDbEntity
  8
1
  6
Continuous
 62
     3
100
AcDbLine
 10
796.0429148718398
 20
847.287086719217
 30
0.0
 11
796.0429148718398
 21
783.7180850285971
 31
0.0
  0
LINE
  5
E3A
330
112
100
AcDbEntity
  8
1
  6
Continuous
 62
     3
100
AcDbLine
 10
926.4632502293043
 20
844.4058367192166
 30
0.0
 11
926.4632502293043
 21
782.6472807640152
 31
0.0
  0
LINE
  5
E3D
330
112
100
AcDbEntity
  8
-1
  6
Continuous
 62
     7
100
AcDbLine
 10
976.1354532935238
 20
618.8117481777671
 30
0.0
 11
1126.066902327525
 21
618.8117481777671
 31
0.0
  0
LINE
  5
E3E
330
112
100
AcDbEntity
  8
-1
  6
Continuous
 62
     3
100
AcDbLine
 10
819.7554148718399
 20
845.7617481777672
 30
0.0
 11
902.7507502293042
 21
845.7617481777672
 31
0.0
  0
LINE
  5
E3F
330
112
100
AcDbEntity
  8
-1
  6
Continuous
 62
     3
100
AcDbLine
 10
796.0429148718398
 20
807.0179981777672
 30
0.0
 11
796.0429148718398
 21
854.7617481777672
 31
0.0
  0
LINE
  5
E40
330
112
100
AcDbEntity
  8
-1
  6
Continuous
 62
     3
100
AcDbLine
 10
796.0429148718398
 20
845.7617481777672
 30
0.0
 11
819.7554148718399
 21
852.3179981777671
 31
0.0
  0
LINE
  5
E41
330
112
100
AcDbEntity
  8
-1
  6
Continuous
 62
     3
100
AcDbLine
 10
796.0429148718398
 20
845.7617481777672
 30
0.0
 11
819.7554148718399
 21
839.2054981777667
 31
0.0
  0
LINE
  5
E42
330
112
100
AcDbEntity
  8
-1
  6
Continuous
 62
     3
100
AcDbLine
 10
819.7554148718399
 20
852.3179981777671
 30
0.0
 11
819.7554148718399
 21
839.2054981777667
 31
0.0
  0
LINE
  5
E43
330
112
100
AcDbEntity
  8
-1
  6
Continuous
 62
     3
100
AcDbLine
 10
926.4632502293043
 20
804.1367481777673
 30
0.0
 11
926.4632502293043
 21
854.7617481777672
 31
0.0
  0
LINE
  5
E44
330
112
100
AcDbEntity
  8
-1
  6
Continuous
 62
     3
100
AcDbLine
 10
926.4632502293043
 20
845.7617481777672
 30
0.0
 11
902.7507502293042
 21
852.3179981777671
 31
0.0
  0
LINE
  5
E45
330
112
100
AcDbEntity
  8
-1
  6
Continuous
 62
     3
100
AcDbLine
 10
926.4632502293043
 20
845.7617481777672
 30
0.0
 11
902.7507502293042
 21
839.2054981777667
 31
0.0
  0
LINE
  5
E46
330
112
100
AcDbEntity
  8
-1
  6
Continuous
 62
     3
100
AcDbLine
 10
902.7507502293042
 20
852.3179981777671
 30
0.0
 11
902.7507502293042
 21
839.2054981777667
 31
0.0
  0
LINE
  5
E47
330
112
100
AcDbEntity
  8
-1
  6
Continuous
 62
     3
100
AcDbLine
 10
1256.366902327525
 20
618.8117481777671
 30
0.0
 11
1251.191902327525
 21
600.0992481777671
 31
0.0
  0
LINE
  5
E48
330
112
100
AcDbEntity
  8
-1
  6
Continuous
 62
     3
100
AcDbLine
 10
1256.366902327525
 20
618.8117481777671
 30
0.0
 11
1261.541902327525
 21
600.0992481777671
 31
0.0
  0
LINE
  5
E49
330
112
100
AcDbEntity
  8
-1
  6
Continuous
 62
     3
100
AcDbLine
 10
1251.191902327525
 20
600.0992481777671
 30
0.0
 11
1261.541902327525
 21
600.0992481777671
 31
0.0
  0
LINE
  5
E4A
330
112
100
AcDbEntity
  8
0
  6
Continuous
 62
     7
100
AcDbLine
 10
849.5682228178761
 20
560.9554981777668
 30
0.0
 11
928.9495386759172
 21
553.7409477130788
 31
0.0
  0
LINE
  5
E4B
330
112
100
AcDbEntity
  8
0
  6
Continuous
 62
     7
100
AcDbLine
 10
921.0248444434164
 20
548.2634904940736
 30
0.0
 11
800.8727192961432
 21
560.0942917255513
 31
0.0
  0
LINE
  5
E4C
330
112
100
AcDbEntity
  8
-1
  6
Continuous
 62
     7
100
AcDbLine
 10
756.3858513615257
 20
637.4179981777667
 30
0.0
 11
796.8448300347279
 21
637.4179981777666
 31
0.0
  0
LINE
  5
E4D
330
112
100
AcDbEntity
  8
-1
  6
Continuous
 62
     7
100
AcDbLine
 10
971.135453293524
 20
632.4179981777672
 30
0.0
 11
971.135453293524
 21
623.8117481777671
 31
0.0
  0
LINE
  5
E4E
330
112
100
AcDbEntity
  8
-1
  6
Continuous
 62
     7
100
AcDbLine
 10
925.6764746203227
 20
637.4179981777672
 30
0.0
 11
966.1354532935236
 21
637.4179981777671
 31
0.0
  0
LINE
  5
E51
330
112
100
AcDbEntity
  8
-1
  6
Continuous
 62
     3
100
AcDbLine
 10
1010.550885596785
 20
636.5730750155941
 30
0.0
 11
1138.729329108316
 21
795.016869021774
 31
0.0
  0
LINE
  5
E52
330
112
100
AcDbEntity
  8
-1
  6
Continuous
 62
     7
100
AcDbLine
 10
751.3858513615257
 20
632.4179981777672
 30
0.0
 11
751.3858513615257
 21
623.8117481777671
 31
0.0
  0
LINE
  5
E53
330
112
100
AcDbEntity
  8
1
  6
Continuous
 62
     3
100
AcDbLine
 10
971.1071829936354
 20
641.9489443040612
 30
0.0
 11
971.1071829936354
 21
904.1269796916539
 31
0.0
  0
LINE
  5
E54
330
112
100
AcDbEntity
  8
1
  6
Continuous
 62
     3
100
AcDbLine
 10
751.3858513615257
 20
641.4179981777672
 30
0.0
 11
751.3858513615257
 21
904.1269796916539
 31
0.0
  0
LINE
  5
E55
330
112
100
AcDbEntity
  8
1
  6
Continuous
 62
     3
100
AcDbLine
 10
751.3858513615257
 20
895.1269796916538
 30
0.0
 11
775.0983513615255
 21
888.5707296916539
 31
0.0
  0
LINE
  5
E56
330
112
100
AcDbEntity
  8
1
  6
Continuous
 62
     3
100
AcDbLine
 10
751.3858513615257
 20
895.1269796916538
 30
0.0
 11
775.0983513615255
 21
901.6832296916541
 31
0.0
  0
LINE
  5
E57
330
112
100
AcDbEntity
  8
1
  6
Continuous
 62
     3
100
AcDbLine
 10
775.0983513615255
 20
901.6832296916541
 30
0.0
 11
775.0983513615255
 21
888.5707296916539
 31
0.0
  0
LINE
  5
E58
330
112
100
AcDbEntity
  8
1
  6
Continuous
 62
     3
100
AcDbLine
 10
775.0983513615255
 20
895.1269796916538
 30
0.0
 11
947.3946829936355
 21
895.1269796916538
 31
0.0
  0
LINE
  5
E59
330
112
100
AcDbEntity
  8
1
  6
Continuous
 62
     3
100
AcDbLine
 10
971.1071829936354
 20
895.1269796916538
 30
0.0
 11
947.3946829936355
 21
888.5707296916539
 31
0.0
  0
LINE
  5
E5A
330
112
100
AcDbEntity
  8
1
  6
Continuous
 62
     3
100
AcDbLine
 10
971.1071829936354
 20
895.1269796916538
 30
0.0
 11
947.3946829936355
 21
901.6832296916541
 31
0.0
  0
LINE
  5
E5B
330
112
100
AcDbEntity
  8
1
  6
Continuous
 62
     3
100
AcDbLine
 10
947.3946829936355
 20
901.6832296916541
 30
0.0
 11
947.3946829936355
 21
888.5707296916539
 31
0.0
  0
LINE
  5
E5D
330
112
100
AcDbEntity
  8
0
  6
Continuous
 62
     7
100
AcDbLine
 10
799.3620858276622
 20
611.1239987102869
 30
0.0
 11
790.414752940143
 21
605.0312413148665
 31
0.0
  0
LINE
  5
E5E
330
112
100
AcDbEntity
  8
0
  6
Continuous
 62
     7
100
AcDbLine
 10
790.414752940143
 20
605.0312413148665
 30
0.0
 11
799.8995981183961
 21
598.475425763055
 31
0.0
  0
LINE
  5
E5F
330
112
100
AcDbEntity
  8
0
  6
Continuous
 62
     7
100
AcDbLine
 10
800.4371104091305
 20
585.8268528158226
 30
0.0
 11
791.4897775216123
 21
579.7340954204011
 31
0.0
  0
LINE
  5
E60
330
112
100
AcDbEntity
  8
0
  6
Continuous
 62
     7
100
AcDbLine
 10
791.4897775216123
 20
579.7340954204011
 30
0.0
 11
801.6524513827507
 21
572.7097725037132
 31
0.0
  0
LINE
  5
E61
330
112
100
AcDbEntity
  8
0
  6
Continuous
 62
     7
100
AcDbLine
 10
800.8727192961432
 20
560.0942917255513
 30
0.0
 11
792.564802103082
 21
554.4369495259352
 31
0.0
  0
LINE
  5
E62
330
112
100
AcDbEntity
  8
0
  6
Continuous
 62
     7
100
AcDbLine
 10
792.564802103082
 20
554.4369495259352
 30
0.0
 11
801.4964602116338
 21
548.2634904940736
 31
0.0
  0
LINE
  5
E63
330
112
100
AcDbEntity
  8
0
  6
Continuous
 62
     7
100
AcDbLine
 10
798.8245735369269
 20
623.7725716575204
 30
0.0
 11
789.8772406494076
 21
617.6798142620997
 31
0.0
  0
LINE
  5
E64
330
112
100
AcDbEntity
  8
0
  6
Continuous
 62
     7
100
AcDbLine
 10
789.8772406494076
 20
617.6798142620997
 30
0.0
 11
799.3620858276622
 21
611.1239987102869
 31
0.0
  0
LINE
  5
E65
330
112
100
AcDbEntity
  8
0
  6
Continuous
 62
     7
100
AcDbLine
 10
799.8995981183961
 20
598.475425763055
 30
0.0
 11
790.9522652308782
 21
592.3826683676337
 31
0.0
  0
LINE
  5
E66
330
112
100
AcDbEntity
  8
0
  6
Continuous
 62
     7
100
AcDbLine
 10
790.9522652308782
 20
592.3826683676337
 30
0.0
 11
800.4371104091305
 21
585.8268528158226
 31
0.0
  0
LINE
  5
E67
330
112
100
AcDbEntity
  8
0
  6
Continuous
 62
     7
100
AcDbLine
 10
801.6524513827507
 20
572.7097725037132
 30
0.0
 11
792.0657028007743
 21
566.1815999124873
 31
0.0
  0
LINE
  5
E68
330
112
100
AcDbEntity
  8
0
  6
Continuous
 62
     7
100
AcDbLine
 10
792.0657028007743
 20
566.1815999124873
 30
0.0
 11
800.8727192961432
 21
560.0942917255513
 31
0.0
  0
LINE
  5
E69
330
112
100
AcDbEntity
  8
0
  6
Continuous
 62
     7
100
AcDbLine
 10
801.4964602116338
 20
548.2634904940736
 30
0.0
 11
798.1071285485429
 21
545.9554981777671
 31
0.0
  0
LINE
  5
E6B
330
112
100
AcDbEntity
  8
0
  6
Continuous
 62
     7
100
AcDbLine
 10
923.159218827388
 20
611.1239987102869
 30
0.0
 11
932.1065517149072
 21
605.0312413148665
 31
0.0
  0
LINE
  5
E6C
330
112
100
AcDbEntity
  8
0
  6
Continuous
 62
     7
100
AcDbLine
 10
932.1065517149072
 20
605.0312413148665
 30
0.0
 11
922.621706536654
 21
598.475425763055
 31
0.0
  0
LINE
  5
E6D
330
112
100
AcDbEntity
  8
0
  6
Continuous
 62
     7
100
AcDbLine
 10
922.0841942459196
 20
585.8268528158226
 30
0.0
 11
931.0315271334379
 21
579.7340954204011
 31
0.0
  0
LINE
  5
E6E
330
112
100
AcDbEntity
  8
0
  6
Continuous
 62
     7
100
AcDbLine
 10
931.0315271334379
 20
579.7340954204011
 30
0.0
 11
920.8688532723
 21
572.7097725037132
 31
0.0
  0
LINE
  5
E6F
330
112
100
AcDbEntity
  8
0
  6
Continuous
 62
     7
100
AcDbLine
 10
921.6485853589077
 20
560.0942917255513
 30
0.0
 11
929.9565025519678
 21
554.4369495259352
 31
0.0
  0
LINE
  5
E70
330
112
100
AcDbEntity
  8
0
  6
Continuous
 62
     7
100
AcDbLine
 10
929.9565025519678
 20
554.4369495259352
 30
0.0
 11
921.0248444434164
 21
548.2634904940736
 31
0.0
  0
LINE
  5
E71
330
112
100
AcDbEntity
  8
0
  6
Continuous
 62
     7
100
AcDbLine
 10
923.6967311181233
 20
623.7725716575204
 30
0.0
 11
932.6440640056423
 21
617.6798142620997
 31
0.0
  0
LINE
  5
E72
330
112
100
AcDbEntity
  8
0
  6
Continuous
 62
     7
100
AcDbLine
 10
932.6440640056423
 20
617.6798142620997
 30
0.0
 11
923.159218827388
 21
611.1239987102869
 31
0.0
  0
LINE
  5
E73
330
112
100
AcDbEntity
  8
0
  6
Continuous
 62
     7
100
AcDbLine
 10
922.621706536654
 20
598.475425763055
 30
0.0
 11
931.569039424172
 21
592.3826683676337
 31
0.0
  0
LINE
  5
E74
330
112
100
AcDbEntity
  8
0
  6
Continuous
 62
     7
100
AcDbLine
 10
931.569039424172
 20
592.3826683676337
 30
0.0
 11
922.0841942459196
 21
585.8268528158226
 31
0.0
  0
LINE
  5
E75
330
112
100
AcDbEntity
  8
0
  6
Continuous
 62
     7
100
AcDbLine
 10
920.8688532723
 20
572.7097725037132
 30
0.0
 11
930.455601854276
 21
566.1815999124873
 31
0.0
  0
LINE
  5
E76
330
112
100
AcDbEntity
  8
0
  6
Continuous
 62
     7
100
AcDbLine
 10
930.455601854276
 20
566.1815999124873
 30
0.0
 11
921.6485853589077
 21
560.0942917255513
 31
0.0
  0
LINE
  5
E77
330
112
100
AcDbEntity
  8
0
  6
Continuous
 62
     7
100
AcDbLine
 10
921.0248444434164
 20
548.2634904940736
 30
0.0
 11
924.4141761065066
 21
545.9554981777671
 31
0.0
  0
LINE
  5
E78
330
112
100
AcDbEntity
  8
0
  6
Continuous
 62
     7
100
AcDbLine
 10
878.7013522721629
 20
545.9554981777671
 30
0.0
 11
792.564802103082
 21
554.4369495259352
 31
0.0
  0
LINE
  5
E79
330
112
100
AcDbEntity
  8
0
  6
Continuous
 62
     7
100
AcDbLine
 10
824.9361390805479
 20
545.9554981777671
 30
0.0
 11
801.4964602116338
 21
548.2634904940736
 31
0.0
  0
LINE
  5
E7A
330
112
100
AcDbEntity
  8
0
  6
Continuous
 62
     7
100
AcDbLine
 10
921.6485853589077
 20
560.0942917255513
 30
0.0
 11
912.9022812498559
 21
560.9554981777669
 31
0.0
  0
LINE
  5
E7B
330
112
100
AcDbEntity
  8
-1
  6
Continuous
 62
     7
100
AcDbLine
 10
756.3858513615257
 20
637.4179981777667
 30
0.0
 11
751.3858513615257
 21
632.4179981777672
 31
0.0
  0
LINE
  5
E7C
330
112
100
AcDbEntity
  8
-1
  6
Continuous
 62
     7
100
AcDbLine
 10
751.3858513615257
 20
623.8117481777671
 30
0.0
 11
746.3858513615257
 21
618.8117481777671
 31
0.0
  0
LINE
  5
E7D
330
112
100
AcDbEntity
  8
-1
  6
Continuous
 62
     7
100
AcDbLine
 10
966.1354532935236
 20
637.4179981777671
 30
0.0
 11
971.135453293524
 21
632.4179981777672
 31
0.0
  0
LINE
  5
E7E
330
112
100
AcDbEntity
  8
-1
  6
Continuous
 62
     7
100
AcDbLine
 10
971.135453293524
 20
623.8117481777671
 30
0.0
 11
976.1354532935238
 21
618.8117481777671
 31
0.0
  0
LINE
  5
E7F
330
112
100
AcDbEntity
  8
-1
  6
Continuous
 62
     2
100
AcDbLine
 10
1221.364725623752
 20
820.3440400874017
 30
0.0
 11
1283.364725623753
 21
820.3440400874017
 31
0.0
  0
LINE
  5
E80
330
112
100
AcDbEntity
  8
-1
  6
Continuous
 62
     5
100
AcDbLine
 10
864.2737060887348
 20
923.9082296916535
 30
0.0
 11
925.273706088735
 21
923.9082296916535
 31
0.0
  0
LINE
  5
E83
330
112
100
AcDbEntity
  8
-1
  6
Continuous
 62
     3
100
AcDbLine
 10
1004.033934750307
 20
619.0320656970116
 30
0.0
 11
1015.401906209941
 21
634.7707920159666
 31
0.0
  0
LINE
  5
E84
330
112
100
AcDbEntity
  8
-1
  6
Continuous
 62
     3
100
AcDbLine
 10
1004.033934750307
 20
619.0320656970116
 30
0.0
 11
1005.699864983631
 21
638.3753580152207
 31
0.0
  0
LINE
  5
E85
330
112
100
AcDbEntity
  8
-1
  6
Continuous
 62
     3
100
AcDbLine
 10
1015.401906209941
 20
634.7707920159666
 30
0.0
 11
1005.699864983631
 21
638.3753580152207
 31
0.0
  0
LINE
  5
E86
330
112
100
AcDbEntity
  8
-1
  6
Continuous
 62
     5
100
AcDbLine
 10
865.5977240044844
 20
870.6554244904165
 30
0.0
 11
925.5977240044844
 21
870.6554244904165
 31
0.0
  0
LINE
  5
E9B
330
112
100
AcDbEntity
  8
0
  6
Continuous
 62
     7
100
AcDbLine
 10
798.2870612461929
 20
636.4211446047522
 30
0.0
 11
789.3397283586737
 21
630.3283872093319
 31
0.0
  0
LINE
  5
E9C
330
112
100
AcDbEntity
  8
0
  6
Continuous
 62
     7
100
AcDbLine
 10
789.3397283586737
 20
630.3283872093319
 30
0.0
 11
798.8245735369269
 21
623.7725716575204
 31
0.0
  0
LINE
  5
E9E
330
112
100
AcDbEntity
  8
0
  6
Continuous
 62
     7
100
AcDbLine
 10
796.8448300347279
 20
637.4179981777666
 30
0.0
 11
798.2870612461929
 21
636.4211446047522
 31
0.0
  0
LINE
  5
EA1
330
112
100
AcDbEntity
  8
0
  6
Continuous
 62
     7
100
AcDbLine
 10
924.2342434088573
 20
636.4211446047522
 30
0.0
 11
933.1815762963763
 21
630.3283872093319
 31
0.0
  0
LINE
  5
EA2
330
112
100
AcDbEntity
  8
0
  6
Continuous
 62
     7
100
AcDbLine
 10
933.1815762963763
 20
630.3283872093319
 30
0.0
 11
923.6967311181233
 21
623.7725716575204
 31
0.0
  0
LINE
  5
EA4
330
112
100
AcDbEntity
  8
0
  6
Continuous
 62
     7
100
AcDbLine
 10
925.6764746203227
 20
637.4179981777672
 30
0.0
 11
924.2342434088573
 21
636.4211446047522
 31
0.0
  0
LINE
  5
EA5
330
112
100
AcDbEntity
  8
1
  6
Continuous
 62
     4
100
AcDbLine
 10
796.0429148718396
 20
637.4179981777666
 30
0.0
 11
796.0429148718367
 21
774.7180850285956
 31
0.0
  0
LINE
  5
EA6
330
112
100
AcDbEntity
  8
1
  6
Continuous
 62
     4
100
AcDbLine
 10
926.4783897832112
 20
637.4179981777672
 30
0.0
 11
926.4783897832112
 21
773.6554617144518
 31
0.0
  0
LINE
  5
EB3
330
112
100
AcDbEntity
  8
-1
  6
Continuous
 62
     3
100
AcDbLine
 10
1256.366902327525
 20
545.9554981777671
 30
0.0
 11
1261.541902327525
 21
564.6679981777671
 31
0.0
  0
LINE
  5
EB4
330
112
100
AcDbEntity
  8
-1
  6
Continuous
 62
     5
100
AcDbLine
 10
1310.174196067086
 20
584.3724773669232
 30
0.0
 11
1374.174196067087
 21
584.3724773669232
 31
0.0
  0
MTEXT
  5
EBC
330
112
100
AcDbEntity
  8
0
  6
Continuous
 62
     7
100
AcDbMText
 10
-300.8756210174066
 20
1260.040708605552
 30
0.0
 40
0.2
 41
15.12
 71
     1
 72
     1
  1
        ActiveDba$(1, MainSize%, 48) = ActiveDba$(1, MainSize%, 20) & " Holes"\P        ActiveDba$(1, MainSize%, 49) = ActiveDba$(1, MainSize%, 25) & """" & " Dia"
 73
     1
 44
1.0
  0
LINE
  5
EC7
330
112
100
AcDbEntity
  8
-1
  6
Continuous
 62
     3
100
AcDbLine
 10
652.0981523275259
 20
618.8117481777671
 30
0.0
 11
632.8223051138341
 21
634.0992850790118
 31
0.0
  0
LINE
  5
EC8
330
112
100
AcDbEntity
  8
-1
  6
Continuous
 62
     3
100
AcDbLine
 10
652.0981523275259
 20
618.8117481777671
 30
0.0
 11
643.413461560111
 21
641.8300716742094
 31
0.0
  0
LINE
  5
EC9
330
112
100
AcDbEntity
  8
-1
  6
Continuous
 62
     3
100
AcDbLine
 10
643.413461560111
 20
641.8300716742094
 30
0.0
 11
632.8223051138341
 21
634.0992850790118
 31
0.0
  0
LINE
  5
ECA
330
112
100
AcDbEntity
  8
-1
  6
Continuous
 62
     3
100
AcDbLine
 10
638.3954155089691
 20
638.1672570096323
 30
0.0
 11
584.4954690943157
 21
714.3024774900432
 31
0.0
  0
LINE
  5
ECB
330
112
100
AcDbEntity
  8
-1
  6
Continuous
 62
     2
100
AcDbLine
 10
536.540813379344
 20
736.4876905884617
 30
0.0
 11
585.540813379344
 21
736.4876905884617
 31
0.0
  0
LINE
  5
ECC
330
112
100
AcDbEntity
  8
-1
  6
Continuous
 62
     2
100
AcDbLine
 10
531.6720479604093
 20
777.4475351494765
 30
0.0
 11
579.6720479604092
 21
777.4475351494765
 31
0.0
  0
LINE
  5
ED3
330
112
100
AcDbEntity
  8
-1
  6
Continuous
 62
     3
100
AcDbLine
 10
1256.366902327524
 20
600.0992481777672
 30
0.0
 11
1256.366902327524
 21
564.667998177767
 31
0.0
  0
LINE
  5
EDA
330
112
100
AcDbEntity
  8
-1
  6
Continuous
 62
     3
100
AcDbLine
 10
596.4981523275254
 20
443.4061021502173
 30
0.0
 11
596.4981523275254
 21
311.4304981777668
 31
0.0
  0
LINE
  5
EDB
330
112
100
AcDbEntity
  8
-1
  6
Continuous
 62
     3
100
AcDbLine
 10
1126.066902327524
 20
442.5699024732024
 30
0.0
 11
1126.066902327524
 21
311.4304981777668
 31
0.0
  0
LINE
  5
EDC
330
112
100
AcDbEntity
  8
-1
  6
Continuous
 62
     3
100
AcDbLine
 10
1023.773152327523
 20
450.0956946483107
 30
0.0
 11
1023.773152327523
 21
415.574248177767
 31
0.0
  0
LINE
  5
EDD
330
112
100
AcDbEntity
  8
-1
  6
Continuous
 62
     3
100
AcDbLine
 10
698.748152327525
 20
448.4232952942807
 30
0.0
 11
698.748152327525
 21
415.574248177767
 31
0.0
  0
LINE
  5
EDE
330
112
100
AcDbEntity
  8
mating flange
  6
Continuous
 62
     4
100
AcDbLine
 10
698.748152327525
 20
519.8489217669249
 30
0.0
 11
698.748152327525
 21
534.3551717669249
 31
0.0
  0
LINE
  5
EDF
330
112
100
AcDbEntity
  8
mating flange
  6
Continuous
 62
     4
100
AcDbLine
 10
596.4981523275254
 20
461.4989217669249
 30
0.0
 11
596.4981523275254
 21
519.8489217669249
 31
0.0
  0
LINE
  5
EE0
330
112
100
AcDbEntity
  8
mating flange
  6
Continuous
 62
     4
100
AcDbLine
 10
1023.773152327525
 20
519.8489217669249
 30
0.0
 11
1023.773152327525
 21
534.3551717669249
 31
0.0
  0
LINE
  5
EE1
330
112
100
AcDbEntity
  8
mating flange
  6
Continuous
 62
     4
100
AcDbLine
 10
1126.066902327525
 20
461.498921766925
 30
0.0
 11
1126.066902327525
 21
519.8489217669249
 31
0.0
  0
LINE
  5
F1E
330
112
100
AcDbEntity
  8
mating flange
  6
Continuous
 62
     4
100
AcDbLine
 10
749.6481523275251
 20
301.1463788219732
 30
0.0
 11
771.3138883967245
 21
291.7907278911938
 31
0.0
  0
LINE
  5
F1F
330
112
100
AcDbEntity
  8
mating flange
  6
Continuous
 62
     4
100
AcDbLine
 10
771.3138883967245
 20
291.7907278911938
 30
0.0
 11
793.7644813038446
 21
287.5014816434393
 31
0.0
  0
LINE
  5
F20
330
112
100
AcDbEntity
  8
mating flange
  6
Continuous
 62
     4
100
AcDbLine
 10
793.7644813038446
 20
287.5014816434393
 30
0.0
 11
817.5357011544553
 21
287.5014816434393
 31
0.0
  0
LINE
  5
F21
330
112
100
AcDbEntity
  8
mating flange
  6
Continuous
 62
     4
100
AcDbLine
 10
817.5357011544553
 20
287.5014816434393
 30
0.0
 11
839.821219394334
 21
291.9556971878618
 31
0.0
  0
LINE
  5
F22
330
112
100
AcDbEntity
  8
mating flange
  6
Continuous
 62
     4
100
AcDbLine
 10
839.821219394334
 20
291.9556971878618
 30
0.0
 11
861.4464271230223
 21
301.1940724368408
 31
0.0
  0
LINE
  5
F23
330
112
100
AcDbEntity
  8
mating flange
  6
Continuous
 62
     4
100
AcDbLine
 10
861.4464271230223
 20
301.1940724368408
 30
0.0
 11
882.4113184194098
 21
310.2674756057531
 31
0.0
  0
LINE
  5
F24
330
112
100
AcDbEntity
  8
mating flange
  6
Continuous
 62
     4
100
AcDbLine
 10
882.4113184194098
 20
310.2674756057531
 30
0.0
 11
904.8619172476415
 21
315.2166046069777
 31
0.0
  0
LINE
  5
F25
330
112
100
AcDbEntity
  8
mating flange
  6
Continuous
 62
     4
100
AcDbLine
 10
904.8619172476415
 20
315.2166046069777
 30
0.0
 11
928.7982117654932
 21
315.0516325269103
 31
0.0
  0
LINE
  5
F26
330
112
100
AcDbEntity
  8
mating flange
  6
Continuous
 62
     4
100
AcDbLine
 10
928.7982117654932
 20
315.0516325269103
 30
0.0
 11
951.4138852609669
 21
310.5974169824879
 31
0.0
  0
LINE
  5
F27
330
112
100
AcDbEntity
  8
mating flange
  6
Continuous
 62
     4
100
AcDbLine
 10
951.4138852609669
 20
310.5974169824879
 30
0.0
 11
972.8727612745437
 21
301.1465984256985
 31
0.0
  0
ENDSEC
  0
SECTION
  2
OBJECTS
  0
DICTIONARY
  5
107
330
0
100
AcDbDictionary
281
     1
  3
ACAD_COLOR
350
751
  3
ACAD_GROUP
350
108
  3
ACAD_LAYOUT
350
164
  3
ACAD_MATERIAL
350
73C
  3
ACAD_MLINESTYLE
350
115
  3
ACAD_PLOTSETTINGS
350
165
  3
ACAD_PLOTSTYLENAME
350
162
  3
ACAD_TABLESTYLE
350
752
  3
ACAD_VISUALSTYLE
350
740
  3
ACDBVARIABLEDICTIONARY
350
128
  3
DWGPROPS
350
BA4
  0
DICTIONARY
  5
758
330
757
100
AcDbDictionary
280
     1
281
     1
  0
DICTIONARY
  5
A0C
330
112
100
AcDbDictionary
280
     1
281
     1
  3
ACAD_SORTENTS
360
A0D
  0
DICTIONARY
  5
751
102
{ACAD_REACTORS
330
107
102
}
330
107
100
AcDbDictionary
281
     1
  0
DICTIONARY
  5
108
102
{ACAD_REACTORS
330
107
102
}
330
107
100
AcDbDictionary
281
     1
  0
DICTIONARY
  5
164
102
{ACAD_REACTORS
330
107
102
}
330
107
100
AcDbDictionary
281
     1
  3
Layout1
350
167
  3
Model
350
166
  0
DICTIONARY
  5
73C
102
{ACAD_REACTORS
330
107
102
}
330
107
100
AcDbDictionary
281
     1
  3
ByBlock
350
73E
  3
ByLayer
350
73D
  3
Global
350
73F
  0
DICTIONARY
  5
115
102
{ACAD_REACTORS
330
107
102
}
330
107
100
AcDbDictionary
281
     1
  3
STANDARD
350
116
  0
DICTIONARY
  5
165
102
{ACAD_REACTORS
330
107
102
}
330
107
100
AcDbDictionary
281
     1
  0
ACDBDICTIONARYWDFLT
  5
162
102
{ACAD_REACTORS
330
107
102
}
330
107
100
AcDbDictionary
281
     1
  3
Normal
350
163
100
AcDbDictionaryWithDefault
340
163
  0
DICTIONARY
  5
752
102
{ACAD_REACTORS
330
107
102
}
330
107
100
AcDbDictionary
281
     1
  3
Standard
350
753
  0
DICTIONARY
  5
740
102
{ACAD_REACTORS
330
107
102
}
330
107
100
AcDbDictionary
281
     1
  3
2dWireframe
350
746
  3
3D Hidden
350
748
  3
3dWireframe
350
747
  3
Basic
350
745
  3
Brighten
350
74C
  3
ColorChange
350
750
  3
Conceptual
350
749
  3
Dim
350
74B
  3
Facepattern
350
74F
  3
Flat
350
741
  3
FlatWithEdges
350
742
  3
Gouraud
350
743
  3
GouraudWithEdges
350
744
  3
Linepattern
350
74E
  3
Realistic
350
74A
  3
Thicken
350
74D
  0
DICTIONARY
  5
128
102
{ACAD_REACTORS
330
107
102
}
330
107
100
AcDbDictionary
281
     1
  3
CTABLESTYLE
350
A6B
  3
DIMADEC
350
129
  3
DIMASSOC
350
BA3
  3
INDEXCTL
350
BA2
  3
SORTENTS
350
6ED
  0
XRECORD
  5
BA4
102
{ACAD_REACTORS
330
107
102
}
330
107
100
AcDbXrecord
280
     1
  1
DWGPROPS COOKIE
  2

  3

  4

  6

  7

  8
Horia
  9

300
=
301
=
302
=
303
=
304
=
305
=
306
=
307
=
308
=
309
=
 40
0.1489055208333333
 41
2452125.805462963
 42
2456336.6808664
  1

 90
        0
  0
SORTENTSTABLE
  5
A0D
102
{ACAD_REACTORS
330
A0C
102
}
330
A0C
100
AcDbSortentsTable
330
112
331
A67
  5
631
331
6B0
  5
5C6
331
A9F
  5
684
331
ABF
  5
6F5
331
ADF
  5
A1D
331
6E8
  5
5CB
331
A28
  5
5DF
331
A48
  5
607
331
A68
  5
632
331
AA0
  5
685
331
AC0
  5
6F7
331
AE0
  5
A1E
331
A29
  5
5E0
331
A49
  5
608
331
A69
  5
643
331
AA1
  5
686
331
AC1
  5
6F8
331
AE1
  5
A22
331
62B
  5
5A7
331
A2A
  5
5E1
331
617
  5
59F
331
A4A
  5
609
331
A6A
  5
644
331
AA2
  5
687
331
AC2
  5
6F9
331
AE2
  5
A23
331
A2B
  5
5E2
331
A4B
  5
60A
331
AA3
  5
688
331
AC3
  5
6FB
331
AE3
  5
A24
331
691
  5
5BD
331
62D
  5
5A8
331
A2C
  5
5E3
331
65D
  5
5B2
331
A4C
  5
60B
331
A6C
  5
646
331
AA4
  5
689
331
AC4
  5
6FC
331
AE4
  5
A25
331
62E
  5
5A9
331
692
  5
5C0
331
65E
  5
5B3
331
A4D
  5
618
331
5FA
  5
59D
331
A6D
  5
651
331
AA5
  5
68A
331
AC5
  5
6FD
331
AE5
  5
A26
331
693
  5
5C1
331
A2E
  5
5E4
331
A4E
  5
60C
331
A6E
  5
647
331
A86
  5
66B
331
AA6
  5
68B
331
AC6
  5
6FE
331
AE6
  5
A27
331
694
  5
5C2
331
A2F
  5
5E5
331
A4F
  5
60D
331
A6F
  5
648
331
A87
  5
66C
331
AA7
  5
68C
331
AC7
  5
71A
331
AE7
  5
A28
331
A30
  5
5E6
331
671
  5
5B7
331
A70
  5
650
331
A88
  5
66D
331
AA8
  5
68D
331
AC8
  5
71B
331
AE8
  5
A29
331
5D2
  5
59A
331
A31
  5
5E7
331
672
  5
5B8
331
A51
  5
60E
331
A71
  5
661
331
A89
  5
66E
331
AA9
  5
68E
331
AC9
  5
71C
331
AE9
  5
A2A
331
697
  5
5C3
331
A32
  5
5E8
331
673
  5
5B9
331
A52
  5
60F
331
A72
  5
662
331
A8A
  5
66F
331
AAA
  5
68F
331
ACA
  5
71F
331
AEA
  5
A2B
331
5A3
  5
598
331
A33
  5
5E9
331
674
  5
5BA
331
A53
  5
610
331
A73
  5
665
331
6CC
  5
5C7
331
A8B
  5
670
331
AAB
  5
690
331
ACB
  5
722
331
AEB
  5
A2C
331
5D5
  5
59B
331
A14
  5
5CC
331
661
  5
5B4
331
A34
  5
5EA
331
675
  5
5BB
331
A54
  5
611
331
6CD
  5
5C8
331
A8C
  5
671
331
AAC
  5
691
331
ACC
  5
725
331
AEC
  5
A2E
331
A15
  5
5CD
331
662
  5
5B5
331
A35
  5
5EB
331
A55
  5
612
331
A75
  5
666
331
6CE
  5
5C9
331
A8D
  5
672
331
AAD
  5
692
331
ACD
  5
726
331
AED
  5
A2F
331
A16
  5
5CE
331
63F
  5
5AA
331
A36
  5
5EC
331
663
  5
5B6
331
A56
  5
613
331
A76
  5
667
331
A8E
  5
673
331
AAE
  5
693
331
ACE
  5
728
331
AEE
  5
A30
331
618
  5
5A0
331
A17
  5
5CF
331
640
  5
5AB
331
A37
  5
5ED
331
A57
  5
614
331
678
  5
5BC
331
A77
  5
668
331
A8F
  5
674
331
AAF
  5
694
331
ACF
  5
729
331
AEF
  5
A31
331
A18
  5
5D0
331
619
  5
5A1
331
A38
  5
5EE
331
641
  5
5AC
331
A58
  5
615
331
A78
  5
669
331
A90
  5
675
331
AB0
  5
697
331
AD0
  5
72A
331
AF0
  5
A32
331
A19
  5
5D1
331
A39
  5
5EF
331
642
  5
5AD
331
A59
  5
617
331
A79
  5
66A
331
A91
  5
676
331
AB1
  5
698
331
AD1
  5
8B1
331
AF1
  5
A33
331
A1A
  5
5D2
331
61B
  5
5A2
331
A3A
  5
5F0
331
643
  5
5AE
331
A5A
  5
616
331
A92
  5
677
331
AB2
  5
699
331
AD2
  5
8B2
331
AF2
  5
A34
331
A1B
  5
5D4
331
A3B
  5
5F1
331
644
  5
5AF
331
5F0
  5
59C
331
A5B
  5
619
331
A93
  5
678
331
AB3
  5
69A
331
AD3
  5
720
331
A1C
  5
5D5
331
A3C
  5
5F2
331
A5C
  5
645
331
A94
  5
679
331
AB4
  5
6A4
331
AD4
  5
A15
331
A1D
  5
5D6
331
A3D
  5
5F3
331
A5D
  5
61C
331
A95
  5
67A
331
AB5
  5
6A5
331
AD5
  5
8B3
331
A1E
  5
5D7
331
61F
  5
5A3
331
A3E
  5
5F4
331
A5E
  5
61D
331
6E7
  5
5CA
331
A96
  5
67B
331
AB6
  5
6A6
331
AD6
  5
8B4
331
5CF
  5
599
331
620
  5
5A4
331
A3F
  5
5F8
331
A5F
  5
61F
331
698
  5
5C4
331
A97
  5
67C
331
AB7
  5
6A7
331
AD7
  5
A14
331
598
  5
133
331
A40
  5
5FE
331
A60
  5
623
331
699
  5
5C5
331
A98
  5
67D
331
AB8
  5
6B4
331
AD8
  5
A16
331
A41
  5
600
331
A61
  5
624
331
A99
  5
67E
331
AB9
  5
6CE
331
AD9
  5
A1A
331
623
  5
5A5
331
A22
  5
5D8
331
A42
  5
602
331
A62
  5
627
331
A9A
  5
67F
331
ABA
  5
6CF
331
ADA
  5
A17
331
624
  5
5A6
331
A23
  5
5D9
331
64C
  5
5B0
331
A43
  5
5F9
331
A63
  5
628
331
A9B
  5
680
331
ABB
  5
6D0
331
ADB
  5
A19
331
A24
  5
5DA
331
64D
  5
5B1
331
A44
  5
603
331
A64
  5
61B
331
A9C
  5
681
331
ABC
  5
6D1
331
ADC
  5
A18
331
A25
  5
5DB
331
A45
  5
604
331
A65
  5
61A
331
A9D
  5
682
331
ABD
  5
6D2
331
ADD
  5
A1B
331
A26
  5
5DC
331
A46
  5
605
331
A66
  5
62F
331
A9E
  5
683
331
ABE
  5
6F2
331
ADE
  5
A1C
331
60C
  5
59E
331
A27
  5
5DE
331
A47
  5
606
  0
LAYOUT
  5
167
102
{ACAD_XDICTIONARY
360
BA7
102
}
102
{ACAD_REACTORS
330
164
102
}
330
164
100
AcDbPlotSettings
  1

  2
HP DeskJet 840C/841C/842C/843C
  4

  6

 40
0.0
 41
0.0
 42
0.0
 43
0.0
 44
0.0
 45
0.0
 46
0.0
 47
0.0
 48
0.0
 49
0.0
140
0.0
141
0.0
142
1.0
143
1.0
 70
   688
 72
     0
 73
     0
 74
     5
  7

 75
    16
147
1.0
148
0.0
149
0.0
100
AcDbLayout
  1
Layout1
 70
     0
 71
     1
 10
0.0
 20
0.0
 11
12.0
 21
9.0
 12
0.0
 22
0.0
 32
0.0
 14
-1.000000000000000E+20
 24
-1.000000000000000E+20
 34
-1.000000000000000E+20
 15
-1.000000000000000E+20
 25
-1.000000000000000E+20
 35
-1.000000000000000E+20
146
0.0
 13
0.0
 23
0.0
 33
0.0
 16
1.0
 26
0.0
 36
0.0
 17
0.0
 27
1.0
 37
0.0
 76
     0
330
10F
  0
LAYOUT
  5
166
102
{ACAD_XDICTIONARY
360
BA5
102
}
102
{ACAD_REACTORS
330
164
102
}
330
164
100
AcDbPlotSettings
  1

  2
HP DeskJet 840C/841C/842C/843C
  4

  6

 40
0.0
 41
0.0
 42
0.0
 43
0.0
 44
0.0
 45
0.0
 46
0.0
 47
0.0
 48
0.0
 49
0.0
140
0.0
141
0.0
142
1.0
143
1.0
 70
  1712
 72
     0
 73
     0
 74
     0
  7

 75
     0
147
1.0
148
0.0
149
0.0
100
AcDbLayout
  1
Model
 70
     1
 71
     0
 10
0.0
 20
0.0
 11
12.0
 21
9.0
 12
0.0
 22
0.0
 32
0.0
 14
0.0
 24
0.0
 34
0.0
 15
0.0
 25
0.0
 35
0.0
146
0.0
 13
0.0
 23
0.0
 33
0.0
 16
1.0
 26
0.0
 36
0.0
 17
0.0
 27
1.0
 37
0.0
 76
     0
330
112
331
738
  0
MATERIAL
  5
73E
102
{ACAD_XDICTIONARY
360
BAB
102
}
102
{ACAD_REACTORS
330
73C
102
}
330
73C
100
AcDbMaterial
  1
ByBlock
  0
MATERIAL
  5
73D
102
{ACAD_XDICTIONARY
360
BA9
102
}
102
{ACAD_REACTORS
330
73C
102
}
330
73C
100
AcDbMaterial
  1
ByLayer
  0
MATERIAL
  5
73F
102
{ACAD_XDICTIONARY
360
BAD
102
}
102
{ACAD_REACTORS
330
73C
102
}
330
73C
100
AcDbMaterial
  1
Global
  0
MLINESTYLE
  5
116
102
{ACAD_REACTORS
330
115
102
}
330
115
100
AcDbMlineStyle
  2
STANDARD
 70
     0
  3

 62
   256
 51
90.0
 52
90.0
 71
     2
 49
0.5
 62
   256
  6
BYLAYER
 49
-0.5
 62
   256
  6
BYLAYER
  0
ACDBPLACEHOLDER
  5
163
102
{ACAD_REACTORS
330
162
102
}
330
162
  0
TABLESTYLE
  5
753
102
{ACAD_XDICTIONARY
360
BAF
102
}
102
{ACAD_REACTORS
330
752
102
}
330
752
100
AcDbTableStyle
  3
Standard
 70
     0
 71
     0
 40
0.06
 41
0.06
280
     0
281
     0
  7
STANDARD
140
0.18
170
     2
 62
     0
 63
     7
283
     0
274
    -2
284
     1
 64
     0
275
    -2
285
     1
 65
     0
276
    -2
286
     1
 66
     0
277
    -2
287
     1
 67
     0
278
    -2
288
     1
 68
     0
279
    -2
289
     1
 69
     0
  7
STANDARD
140
0.25
170
     5
 62
     0
 63
     7
283
     0
274
    -2
284
     1
 64
     0
275
    -2
285
     1
 65
     0
276
    -2
286
     1
 66
     0
277
    -2
287
     1
 67
     0
278
    -2
288
     1
 68
     0
279
    -2
289
     1
 69
     0
  7
STANDARD
140
0.18
170
     5
 62
     0
 63
     7
283
     0
274
    -2
284
     1
 64
     0
275
    -2
285
     1
 65
     0
276
    -2
286
     1
 66
     0
277
    -2
287
     1
 67
     0
278
    -2
288
     1
 68
     0
279
    -2
289
     1
 69
     0
  0
VISUALSTYLE
  5
746
102
{ACAD_REACTORS
330
740
102
}
330
740
100
AcDbVisualStyle
  2
2dWireframe
 70
     4
 71
     0
 72
     2
 73
     0
 90
        0
 40
-0.6
 41
-30.0
 62
     5
 63
     7
 74
     1
 91
        4
 64
     7
 65
   257
 75
     1
175
     1
 42
1.0
 92
        0
 66
   257
 43
1.0
 76
     1
 77
     6
 78
     2
 67
     7
 79
     5
170
     0
171
     0
290
     0
174
     0
 93
        1
 44
0.0
173
     0
291
     0
 45
0.0
1001
ACAD
1000
AcDbSavedByObjectVersion
1070
     0
  0
VISUALSTYLE
  5
748
102
{ACAD_REACTORS
330
740
102
}
330
740
100
AcDbVisualStyle
  2
3D Hidden
 70
     6
 71
     1
 72
     2
 73
     2
 90
        0
 40
-0.6
 41
-30.0
 62
     5
 63
     7
 74
     2
 91
        2
 64
     7
 65
   257
 75
     2
175
     1
 42
40.0
 92
        0
 66
   257
 43
1.0
 76
     1
 77
     6
 78
     2
 67
     7
 79
     3
170
     0
171
     0
290
     0
174
     0
 93
        1
 44
0.0
173
     0
291
     0
 45
0.0
1001
ACAD
1000
AcDbSavedByObjectVersion
1070
     0
  0
VISUALSTYLE
  5
747
102
{ACAD_REACTORS
330
740
102
}
330
740
100
AcDbVisualStyle
  2
3dWireframe
 70
     5
 71
     0
 72
     2
 73
     0
 90
        0
 40
-0.6
 41
-30.0
 62
     5
 63
     7
 74
     1
 91
        4
 64
     7
 65
   257
 75
     1
175
     1
 42
1.0
 92
        0
 66
   257
 43
1.0
 76
     1
 77
     6
 78
     2
 67
     7
 79
     5
170
     0
171
     0
290
     0
174
     0
 93
        1
 44
0.0
173
     0
291
     0
 45
0.0
1001
ACAD
1000
AcDbSavedByObjectVersion
1070
     0
  0
VISUALSTYLE
  5
745
102
{ACAD_REACTORS
330
740
102
}
330
740
100
AcDbVisualStyle
  2
Basic
 70
     7
 71
     1
 72
     0
 73
     1
 90
        0
 40
-0.6
 41
-30.0
 62
     5
 63
     7
 74
     0
 91
        4
 64
     7
 65
   257
 75
     1
175
     1
 42
1.0
 92
        8
 66
     7
 43
1.0
 76
     1
 77
     6
 78
     2
 67
     7
 79
     5
170
     0
171
     0
290
     0
174
     0
 93
        1
 44
0.0
173
     0
291
     1
 45
0.0
1001
ACAD
1000
AcDbSavedByObjectVersion
1070
     0
  0
VISUALSTYLE
  5
74C
102
{ACAD_REACTORS
330
740
102
}
330
740
100
AcDbVisualStyle
  2
Brighten
 70
    12
 71
     2
 72
     2
 73
     0
 90
        0
 40
-0.6
 41
-30.0
 62
     5
 63
     7
 74
     1
 91
        4
 64
     7
 65
   257
 75
     1
175
     1
 42
1.0
 92
        8
 66
     7
 43
1.0
 76
     1
 77
     6
 78
     2
 67
     7
 79
     5
170
     0
171
     0
290
     0
174
     0
 93
        1
 44
50.0
173
     0
291
     1
 45
0.0
1001
ACAD
1000
AcDbSavedByObjectVersion
1070
     0
  0
VISUALSTYLE
  5
750
102
{ACAD_REACTORS
330
740
102
}
330
740
100
AcDbVisualStyle
  2
ColorChange
 70
    16
 71
     2
 72
     2
 73
     3
 90
        0
 40
-0.6
 41
-30.0
 62
     5
 63
     8
 74
     1
 91
        4
 64
     7
 65
   257
 75
     1
175
     1
 42
1.0
 92
        8
 66
     8
 43
1.0
 76
     1
 77
     6
 78
     2
 67
     7
 79
     5
170
     0
171
     0
290
     0
174
     0
 93
        1
 44
0.0
173
     0
291
     1
 45
0.0
1001
ACAD
1000
AcDbSavedByObjectVersion
1070
     0
  0
VISUALSTYLE
  5
749
102
{ACAD_REACTORS
330
740
102
}
330
740
100
AcDbVisualStyle
  2
Conceptual
 70
     9
 71
     3
 72
     2
 73
     0
 90
        0
 40
-0.6
 41
-30.0
 62
     5
 63
     7
 74
     2
 91
        2
 64
     7
 65
   257
 75
     1
175
     1
 42
40.0
 92
        8
 66
     7
 43
1.0
 76
     1
 77
     6
 78
     2
 67
     7
 79
     3
170
     0
171
     0
290
     0
174
     0
 93
        1
 44
0.0
173
     0
291
     0
 45
0.0
1001
ACAD
1000
AcDbSavedByObjectVersion
1070
     0
  0
VISUALSTYLE
  5
74B
102
{ACAD_REACTORS
330
740
102
}
330
740
100
AcDbVisualStyle
  2
Dim
 70
    11
 71
     2
 72
     2
 73
     0
 90
        0
 40
-0.6
 41
-30.0
 62
     5
 63
     7
 74
     1
 91
        4
 64
     7
 65
   257
 75
     1
175
     1
 42
1.0
 92
        8
 66
     7
 43
1.0
 76
     1
 77
     6
 78
     2
 67
     7
 79
     5
170
     0
171
     0
290
     0
174
     0
 93
        1
 44
-50.0
173
     0
291
     1
 45
0.0
1001
ACAD
1000
AcDbSavedByObjectVersion
1070
     0
  0
VISUALSTYLE
  5
74F
102
{ACAD_REACTORS
330
740
102
}
330
740
100
AcDbVisualStyle
  2
Facepattern
 70
    15
 71
     2
 72
     2
 73
     0
 90
        0
 40
-0.6
 41
-30.0
 62
     5
 63
     7
 74
     1
 91
        4
 64
     7
 65
   257
 75
     1
175
     1
 42
1.0
 92
        8
 66
     7
 43
1.0
 76
     1
 77
     6
 78
     2
 67
     7
 79
     5
170
     0
171
     0
290
     0
174
     0
 93
        1
 44
0.0
173
     0
291
     1
 45
0.0
1001
ACAD
1000
AcDbSavedByObjectVersion
1070
     0
  0
VISUALSTYLE
  5
741
102
{ACAD_REACTORS
330
740
102
}
330
740
100
AcDbVisualStyle
  2
Flat
 70
     0
 71
     2
 72
     1
 73
     1
 90
        2
 40
-0.6
 41
30.0
 62
     5
 63
     7
 74
     0
 91
        4
 64
     7
 65
   257
 75
     1
175
     1
 42
1.0
 92
        8
 66
     7
 43
1.0
 76
     1
 77
     6
 78
     2
 67
     7
 79
     5
170
     0
171
     0
290
     0
174
     0
 93
       13
 44
0.0
173
     0
291
     1
 45
0.0
1001
ACAD
1000
AcDbSavedByObjectVersion
1070
     0
  0
VISUALSTYLE
  5
742
102
{ACAD_REACTORS
330
740
102
}
330
740
100
AcDbVisualStyle
  2
FlatWithEdges
 70
     1
 71
     2
 72
     1
 73
     1
 90
        2
 40
-0.6
 41
30.0
 62
     5
 63
     7
 74
     1
 91
        4
 64
     7
 65
   257
 75
     1
175
     1
 42
1.0
 92
        0
 66
   257
 43
1.0
 76
     1
 77
     6
 78
     2
 67
     7
 79
     5
170
     0
171
     0
290
     0
174
     0
 93
       13
 44
0.0
173
     0
291
     1
 45
0.0
1001
ACAD
1000
AcDbSavedByObjectVersion
1070
     0
  0
VISUALSTYLE
  5
743
102
{ACAD_REACTORS
330
740
102
}
330
740
100
AcDbVisualStyle
  2
Gouraud
 70
     2
 71
     2
 72
     2
 73
     1
 90
        2
 40
-0.6
 41
30.0
 62
     5
 63
     7
 74
     0
 91
        4
 64
     7
 65
   257
 75
     1
175
     1
 42
1.0
 92
        0
 66
     7
 43
1.0
 76
     1
 77
     6
 78
     2
 67
     7
 79
     5
170
     0
171
     0
290
     0
174
     0
 93
       13
 44
0.0
173
     0
291
     1
 45
0.0
1001
ACAD
1000
AcDbSavedByObjectVersion
1070
     0
  0
VISUALSTYLE
  5
744
102
{ACAD_REACTORS
330
740
102
}
330
740
100
AcDbVisualStyle
  2
GouraudWithEdges
 70
     3
 71
     2
 72
     2
 73
     1
 90
        2
 40
-0.6
 41
30.0
 62
     5
 63
     7
 74
     1
 91
        4
 64
     7
 65
   257
 75
     1
175
     1
 42
1.0
 92
        0
 66
   257
 43
1.0
 76
     1
 77
     6
 78
     2
 67
     7
 79
     5
170
     0
171
     0
290
     0
174
     0
 93
       13
 44
0.0
173
     0
291
     1
 45
0.0
1001
ACAD
1000
AcDbSavedByObjectVersion
1070
     0
  0
VISUALSTYLE
  5
74E
102
{ACAD_REACTORS
330
740
102
}
330
740
100
AcDbVisualStyle
  2
Linepattern
 70
    14
 71
     2
 72
     2
 73
     0
 90
        0
 40
-0.6
 41
-30.0
 62
     5
 63
     7
 74
     1
 91
        4
 64
     7
 65
   257
 75
     7
175
     7
 42
1.0
 92
        8
 66
     7
 43
1.0
 76
     1
 77
     6
 78
     2
 67
     7
 79
     5
170
     0
171
     0
290
     0
174
     0
 93
        1
 44
0.0
173
     0
291
     1
 45
0.0
1001
ACAD
1000
AcDbSavedByObjectVersion
1070
     0
  0
VISUALSTYLE
  5
74A
102
{ACAD_REACTORS
330
740
102
}
330
740
100
AcDbVisualStyle
  2
Realistic
 70
     8
 71
     2
 72
     2
 73
     0
 90
        0
 40
-0.6
 41
-30.0
 62
     5
 63
     7
 74
     1
 91
        0
 64
     7
 65
   257
 75
     1
175
     1
 42
1.0
 92
        8
 66
     8
 43
1.0
 76
     1
 77
     6
 78
     2
 67
     7
 79
     5
170
     0
171
     0
290
     0
174
     0
 93
       13
 44
0.0
173
     0
291
     0
 45
0.0
1001
ACAD
1000
AcDbSavedByObjectVersion
1070
     0
  0
VISUALSTYLE
  5
74D
102
{ACAD_REACTORS
330
740
102
}
330
740
100
AcDbVisualStyle
  2
Thicken
 70
    13
 71
     2
 72
     2
 73
     0
 90
        0
 40
-0.6
 41
-30.0
 62
     5
 63
     7
 74
     1
 91
        4
 64
     7
 65
   257
 75
     1
175
     1
 42
1.0
 92
       12
 66
     7
 43
1.0
 76
     1
 77
     6
 78
     2
 67
     7
 79
     5
170
     0
171
     0
290
     0
174
     0
 93
        1
 44
0.0
173
     0
291
     1
 45
0.0
1001
ACAD
1000
AcDbSavedByObjectVersion
1070
     0
  0
DICTIONARYVAR
  5
A6B
102
{ACAD_REACTORS
330
128
102
}
330
128
100
DictionaryVariables
280
     0
  1
STANDARD
  0
DICTIONARYVAR
  5
129
102
{ACAD_REACTORS
330
128
102
}
330
128
100
DictionaryVariables
280
     0
  1
0
  0
DICTIONARYVAR
  5
BA3
102
{ACAD_REACTORS
330
128
102
}
330
128
100
DictionaryVariables
280
     0
  1
1
  0
DICTIONARYVAR
  5
BA2
102
{ACAD_REACTORS
330
128
102
}
330
128
100
DictionaryVariables
280
     0
  1
0
  0
DICTIONARYVAR
  5
6ED
102
{ACAD_REACTORS
330
128
102
}
330
128
100
DictionaryVariables
280
     0
  1
127
  0
DICTIONARY
  5
BA7
330
167
100
AcDbDictionary
280
     1
281
     1
  3
ACAD_XREC_ROUNDTRIP
360
BA8
  0
DICTIONARY
  5
BA5
330
166
100
AcDbDictionary
280
     1
281
     1
  3
ACAD_XREC_ROUNDTRIP
360
BA6
  0
DICTIONARY
  5
BAB
330
73E
100
AcDbDictionary
280
     1
281
     1
  3
ACAD_XREC_ROUNDTRIP
360
BAC
  0
DICTIONARY
  5
BA9
330
73D
100
AcDbDictionary
280
     1
281
     1
  3
ACAD_XREC_ROUNDTRIP
360
BAA
  0
DICTIONARY
  5
BAD
330
73F
100
AcDbDictionary
280
     1
281
     1
  3
ACAD_XREC_ROUNDTRIP
360
BAE
  0
DICTIONARY
  5
BAF
330
753
100
AcDbDictionary
280
     1
281
     1
  3
ACAD_XREC_ROUNDTRIP
360
BB0
  0
XRECORD
  5
BA8
102
{ACAD_REACTORS
330
BA7
102
}
330
BA7
100
AcDbXrecord
280
     1
102
SHADEPLOT
 70
     0
102
SHADEPLOTRESLEVEL
 70
     2
102
SHADEPLOTCUSTOMDPI
 70
   300
  0
XRECORD
  5
BA6
102
{ACAD_REACTORS
330
BA5
102
}
330
BA5
100
AcDbXrecord
280
     1
102
SHADEPLOT
 70
     0
102
SHADEPLOTRESLEVEL
 70
     2
102
SHADEPLOTCUSTOMDPI
 70
   300
  0
XRECORD
  5
BAC
102
{ACAD_REACTORS
330
BAB
102
}
330
BAB
100
AcDbXrecord
280
     1
102
MATERIAL
148
0.0
149
0.0
149
0.0
 93
        0
 94
       63
282
     0
 72
     1
 77
     1
171
     1
175
     1
179
     1
273
     0
  0
XRECORD
  5
BAA
102
{ACAD_REACTORS
330
BA9
102
}
330
BA9
100
AcDbXrecord
280
     1
102
MATERIAL
148
0.0
149
0.0
149
0.0
 93
        0
 94
       63
282
     0
 72
     1
 77
     1
171
     1
175
     1
179
     1
273
     0
  0
XRECORD
  5
BAE
102
{ACAD_REACTORS
330
BAD
102
}
330
BAD
100
AcDbXrecord
280
     1
102
MATERIAL
148
0.0
149
0.0
149
0.0
 93
        0
 94
       63
282
     0
 72
     1
 77
     1
171
     1
175
     1
179
     1
273
     0
  0
XRECORD
  5
BB0
102
{ACAD_REACTORS
330
BAF
102
}
330
BAF
100
AcDbXrecord
280
     1
102
ACAD_ROUNDTRIP_PRE2007_TABLESTYLE
 90
      512
 91
        0
  1

 92
      512
 93
        0
  2

 94
      512
 95
        0
  3

  0
ENDSEC
  0
EOF
