  0
SECTION
  2
HEADER
  9
$ACADVER
  1
AC1015
  9
$ACADMAINTVER
 70
    20
  9
$DWGCODEPAGE
  3
ANSI_1252
  9
$INSBASE
 10
0.0
 20
0.0
 30
0.0
  9
$EXTMIN
 10
-66.91498662820936
 20
133.7835219950515
 30
0.0
  9
$EXTMAX
 10
3418.891500277761
 20
1047.625153981756
 30
0.0
  9
$LIMMIN
 10
0.0
 20
0.0
  9
$LIMMAX
 10
12.0
 20
9.0
  9
$ORTHOMODE
 70
     1
  9
$REGENMODE
 70
     1
  9
$FILLMODE
 70
     1
  9
$QTEXTMODE
 70
     0
  9
$MIRRTEXT
 70
     1
  9
$LTSCALE
 40
1.0
  9
$ATTMODE
 70
     1
  9
$TEXTSIZE
 40
0.0
  9
$TRACEWID
 40
0.05
  9
$TEXTSTYLE
  7
STANDARD
  9
$CLAYER
  8
0
  9
$CELTYPE
  6
CONTINUOUS
  9
$CECOLOR
 62
   256
  9
$CELTSCALE
 40
1.0
  9
$DISPSILH
 70
     0
  9
$DIMSCALE
 40
1.0
  9
$DIMASZ
 40
0.18
  9
$DIMEXO
 40
0.0625
  9
$DIMDLI
 40
0.38
  9
$DIMRND
 40
0.0
  9
$DIMDLE
 40
0.0
  9
$DIMEXE
 40
0.18
  9
$DIMTP
 40
0.0
  9
$DIMTM
 40
0.0
  9
$DIMTXT
 40
0.18
  9
$DIMCEN
 40
0.09
  9
$DIMTSZ
 40
0.0
  9
$DIMTOL
 70
     0
  9
$DIMLIM
 70
     0
  9
$DIMTIH
 70
     1
  9
$DIMTOH
 70
     1
  9
$DIMSE1
 70
     0
  9
$DIMSE2
 70
     0
  9
$DIMTAD
 70
     0
  9
$DIMZIN
 70
     0
  9
$DIMBLK
  1

  9
$DIMASO
 70
     1
  9
$DIMSHO
 70
     1
  9
$DIMPOST
  1

  9
$DIMAPOST
  1

  9
$DIMALT
 70
     0
  9
$DIMALTD
 70
     2
  9
$DIMALTF
 40
25.4
  9
$DIMLFAC
 40
1.0
  9
$DIMTOFL
 70
     0
  9
$DIMTVP
 40
0.0
  9
$DIMTIX
 70
     0
  9
$DIMSOXD
 70
     0
  9
$DIMSAH
 70
     0
  9
$DIMBLK1
  1

  9
$DIMBLK2
  1

  9
$DIMSTYLE
  2
STANDARD
  9
$DIMCLRD
 70
     0
  9
$DIMCLRE
 70
     0
  9
$DIMCLRT
 70
     0
  9
$DIMTFAC
 40
1.0
  9
$DIMGAP
 40
0.09
  9
$DIMJUST
 70
     0
  9
$DIMSD1
 70
     0
  9
$DIMSD2
 70
     0
  9
$DIMTOLJ
 70
     1
  9
$DIMTZIN
 70
     0
  9
$DIMALTZ
 70
     0
  9
$DIMALTTZ
 70
     0
  9
$DIMUPT
 70
     0
  9
$DIMDEC
 70
     4
  9
$DIMTDEC
 70
     4
  9
$DIMALTU
 70
     2
  9
$DIMALTTD
 70
     2
  9
$DIMTXSTY
  7
STANDARD
  9
$DIMAUNIT
 70
     0
  9
$DIMADEC
 70
     0
  9
$DIMALTRND
 40
0.0
  9
$DIMAZIN
 70
     0
  9
$DIMDSEP
 70
    46
  9
$DIMATFIT
 70
     3
  9
$DIMFRAC
 70
     0
  9
$DIMLDRBLK
  1

  9
$DIMLUNIT
 70
     2
  9
$DIMLWD
 70
    -2
  9
$DIMLWE
 70
    -2
  9
$DIMTMOVE
 70
     0
  9
$LUNITS
 70
     2
  9
$LUPREC
 70
     4
  9
$SKETCHINC
 40
0.1
  9
$FILLETRAD
 40
0.0
  9
$AUNITS
 70
     0
  9
$AUPREC
 70
     0
  9
$MENU
  1
acad
  9
$ELEVATION
 40
0.0
  9
$PELEVATION
 40
0.0
  9
$THICKNESS
 40
0.0
  9
$LIMCHECK
 70
     0
  9
$CHAMFERA
 40
0.0
  9
$CHAMFERB
 40
0.0
  9
$CHAMFERC
 40
0.0
  9
$CHAMFERD
 40
0.0
  9
$SKPOLY
 70
     0
  9
$TDCREATE
 40
2453311.985393519
  9
$TDUCREATE
 40
2453311.985393519
  9
$TDUPDATE
 40
2457420.993386933
  9
$TDUUPDATE
 40
2457420.993386933
  9
$TDINDWG
 40
0.2080768866
  9
$TDUSRTIMER
 40
0.2080722454
  9
$USRTIMER
 70
     1
  9
$ANGBASE
 50
0.0
  9
$ANGDIR
 70
     0
  9
$PDMODE
 70
     0
  9
$PDSIZE
 40
0.0
  9
$PLINEWID
 40
0.0
  9
$SPLFRAME
 70
     0
  9
$SPLINETYPE
 70
     6
  9
$SPLINESEGS
 70
    10
  9
$HANDSEED
  5
56E
  9
$SURFTAB1
 70
     6
  9
$SURFTAB2
 70
     6
  9
$SURFTYPE
 70
     6
  9
$SURFU
 70
     6
  9
$SURFV
 70
     6
  9
$UCSBASE
  2

  9
$UCSNAME
  2

  9
$UCSORG
 10
0.0
 20
0.0
 30
0.0
  9
$UCSXDIR
 10
1.0
 20
0.0
 30
0.0
  9
$UCSYDIR
 10
0.0
 20
1.0
 30
0.0
  9
$UCSORTHOREF
  2

  9
$UCSORTHOVIEW
 70
     0
  9
$UCSORGTOP
 10
0.0
 20
0.0
 30
0.0
  9
$UCSORGBOTTOM
 10
0.0
 20
0.0
 30
0.0
  9
$UCSORGLEFT
 10
0.0
 20
0.0
 30
0.0
  9
$UCSORGRIGHT
 10
0.0
 20
0.0
 30
0.0
  9
$UCSORGFRONT
 10
0.0
 20
0.0
 30
0.0
  9
$UCSORGBACK
 10
0.0
 20
0.0
 30
0.0
  9
$PUCSBASE
  2

  9
$PUCSNAME
  2

  9
$PUCSORG
 10
0.0
 20
0.0
 30
0.0
  9
$PUCSXDIR
 10
1.0
 20
0.0
 30
0.0
  9
$PUCSYDIR
 10
0.0
 20
1.0
 30
0.0
  9
$PUCSORTHOREF
  2

  9
$PUCSORTHOVIEW
 70
     0
  9
$PUCSORGTOP
 10
0.0
 20
0.0
 30
0.0
  9
$PUCSORGBOTTOM
 10
0.0
 20
0.0
 30
0.0
  9
$PUCSORGLEFT
 10
0.0
 20
0.0
 30
0.0
  9
$PUCSORGRIGHT
 10
0.0
 20
0.0
 30
0.0
  9
$PUCSORGFRONT
 10
0.0
 20
0.0
 30
0.0
  9
$PUCSORGBACK
 10
0.0
 20
0.0
 30
0.0
  9
$USERI1
 70
     0
  9
$USERI2
 70
     0
  9
$USERI3
 70
     0
  9
$USERI4
 70
     0
  9
$USERI5
 70
     0
  9
$USERR1
 40
0.0
  9
$USERR2
 40
0.0
  9
$USERR3
 40
0.0
  9
$USERR4
 40
0.0
  9
$USERR5
 40
0.0
  9
$WORLDVIEW
 70
     1
  9
$SHADEDGE
 70
     3
  9
$SHADEDIF
 70
    70
  9
$TILEMODE
 70
     1
  9
$MAXACTVP
 70
    16
  9
$PINSBASE
 10
0.0
 20
0.0
 30
0.0
  9
$PLIMCHECK
 70
     0
  9
$PEXTMIN
 10
-1.000000000000000E+20
 20
-1.000000000000000E+20
 30
-1.000000000000000E+20
  9
$PEXTMAX
 10
-1.000000000000000E+20
 20
-1.000000000000000E+20
 30
-1.000000000000000E+20
  9
$PLIMMIN
 10
0.0
 20
0.0
  9
$PLIMMAX
 10
12.0
 20
9.0
  9
$UNITMODE
 70
     0
  9
$VISRETAIN
 70
     0
  9
$PLINEGEN
 70
     1
  9
$PSLTSCALE
 70
     0
  9
$TREEDEPTH
 70
  3020
  9
$CMLSTYLE
  2
Standard
  9
$CMLJUST
 70
     0
  9
$CMLSCALE
 40
1.0
  9
$PROXYGRAPHICS
 70
     1
  9
$MEASUREMENT
 70
     0
  9
$CELWEIGHT
370
    -1
  9
$ENDCAPS
280
     0
  9
$JOINSTYLE
280
     0
  9
$LWDISPLAY
290
     0
  9
$INSUNITS
 70
     0
  9
$HYPERLINKBASE
  1

  9
$STYLESHEET
  1

  9
$XEDIT
290
     1
  9
$CEPSNTYPE
380
     0
  9
$PSTYLEMODE
290
     1
  9
$FINGERPRINTGUID
  2
{2C2A537B-DF29-410A-8492-B8CA7C89F8D9}
  9
$VERSIONGUID
  2
{CC19F134-F6B1-4F88-89F1-41C1F259C3B8}
  9
$EXTNAMES
290
     1
  9
$PSVPSCALE
 40
0.0
  9
$OLESTARTUP
290
     0
  0
ENDSEC
  0
SECTION
  2
CLASSES
  0
CLASS
  1
ACDBDICTIONARYWDFLT
  2
AcDbDictionaryWithDefault
  3
ObjectDBX Classes
 90
        0
280
     0
281
     0
  0
CLASS
  1
ACDBPLACEHOLDER
  2
AcDbPlaceHolder
  3
ObjectDBX Classes
 90
        0
280
     0
281
     0
  0
CLASS
  1
LAYOUT
  2
AcDbLayout
  3
ObjectDBX Classes
 90
        0
280
     0
281
     0
  0
CLASS
  1
MATERIAL
  2
AcDbMaterial
  3
ObjectDBX Classes
 90
     1153
280
     0
281
     0
  0
CLASS
  1
VISUALSTYLE
  2
AcDbVisualStyle
  3
ObjectDBX Classes
 90
     4095
280
     0
281
     0
  0
CLASS
  1
TABLESTYLE
  2
AcDbTableStyle
  3
ObjectDBX Classes
 90
     4095
280
     0
281
     0
  0
CLASS
  1
SCALE
  2
AcDbScale
  3
ObjectDBX Classes
 90
     1153
280
     0
281
     0
  0
CLASS
  1
MLEADERSTYLE
  2
AcDbMLeaderStyle
  3
ACDB_MLEADERSTYLE_CLASS
 90
     4095
280
     0
281
     0
  0
CLASS
  1
DICTIONARYVAR
  2
AcDbDictionaryVar
  3
ObjectDBX Classes
 90
        0
280
     0
281
     0
  0
CLASS
  1
CELLSTYLEMAP
  2
AcDbCellStyleMap
  3
ObjectDBX Classes
 90
     1152
280
     0
281
     0
  0
CLASS
  1
SORTENTSTABLE
  2
AcDbSortentsTable
  3
ObjectDBX Classes
 90
        0
280
     0
281
     0
  0
ENDSEC
  0
SECTION
  2
TABLES
  0
TABLE
  2
VPORT
  5
96
330
0
100
AcDbSymbolTable
 70
     1
  0
VPORT
  5
383
330
96
100
AcDbSymbolTableRecord
100
AcDbViewportTableRecord
  2
*Active
 70
     0
 10
0.0
 20
0.0
 11
1.0
 21
1.0
 12
348.7729363810856
 22
51.04695550315444
 13
0.0
 23
0.0
 14
0.0
 24
0.0
 15
0.0
 25
0.0
 16
0.0
 26
0.0
 36
1.0
 17
791.6029539999997
 27
561.8464499999999
 37
0.0
 40
1465.664947593068
 41
2.323529411764706
 42
50.0
 43
0.052
 44
-0.052
 50
0.0
 51
0.0
 71
    22
 72
   100
 73
     1
 74
     0
 75
     0
 76
     0
 77
     0
 78
     0
281
     0
 65
     0
110
0.0
120
0.0
130
0.0
111
1.0
121
0.0
131
0.0
112
0.0
122
1.0
132
0.0
 79
     0
146
0.0
  0
ENDTAB
  0
TABLE
  2
LTYPE
  5
93
330
0
100
AcDbSymbolTable
 70
     8
  0
LTYPE
  5
A1
330
93
100
AcDbSymbolTableRecord
100
AcDbLinetypeTableRecord
  2
ByBlock
 70
     0
  3

 72
    65
 73
     0
 40
0.0
  0
LTYPE
  5
A2
330
93
100
AcDbSymbolTableRecord
100
AcDbLinetypeTableRecord
  2
ByLayer
 70
     0
  3

 72
    65
 73
     0
 40
0.0
  0
LTYPE
  5
A3
330
93
100
AcDbSymbolTableRecord
100
AcDbLinetypeTableRecord
  2
CONTINUOUS
 70
     0
  3
Solid line
 72
    65
 73
     0
 40
0.0
  0
LTYPE
  5
B1
330
93
100
AcDbSymbolTableRecord
100
AcDbLinetypeTableRecord
  2
DOT
 70
     0
  3
. . . . . . . . . . . . . . . . . . . . . . . . . . . . . . . . .
 72
    65
 73
     2
 40
0.25
 49
0.0
 74
     0
 49
-0.25
 74
     0
  0
LTYPE
  5
B2
330
93
100
AcDbSymbolTableRecord
100
AcDbLinetypeTableRecord
  2
HIDDEN
 70
     0
  3
__ __ __ __ __ __ __ __ __ __ __ __ __ __ __ __ __ __ __ __ __ 
 72
    65
 73
     2
 40
0.375
 49
0.25
 74
     0
 49
-0.125
 74
     0
  0
LTYPE
  5
B3
330
93
100
AcDbSymbolTableRecord
100
AcDbLinetypeTableRecord
  2
DASHED
 70
     0
  3
__ __ __ __ __ __ __ __ __ __ __ __ __ __ __ __ __ __ __ __ __
 72
    65
 73
     2
 40
0.75
 49
0.5
 74
     0
 49
-0.25
 74
     0
  0
LTYPE
  5
B4
330
93
100
AcDbSymbolTableRecord
100
AcDbLinetypeTableRecord
  2
DASHDOT
 70
     0
  3
__ . __ . __ . __ . __ . __ . __ . __ . __ . __ . __ . __ . _
 72
    65
 73
     4
 40
1.0
 49
0.5
 74
     0
 49
-0.25
 74
     0
 49
0.0
 74
     0
 49
-0.25
 74
     0
  0
LTYPE
  5
B5
330
93
100
AcDbSymbolTableRecord
100
AcDbLinetypeTableRecord
  2
DIVIDE
 70
     0
  3
____ . . ____ . . ____ . . ____ . . ____ . . ____ . . ____ . .
 72
    65
 73
     6
 40
1.25
 49
0.5
 74
     0
 49
-0.25
 74
     0
 49
0.0
 74
     0
 49
-0.25
 74
     0
 49
0.0
 74
     0
 49
-0.25
 74
     0
  0
LTYPE
  5
B6
330
93
100
AcDbSymbolTableRecord
100
AcDbLinetypeTableRecord
  2
CENTER
 70
     0
  3
____ _ ____ _ ____ _ ____ _ ____ _ ____ _ ____ _ ____ _ ____ _
 72
    65
 73
     4
 40
2.0
 49
1.25
 74
     0
 49
-0.25
 74
     0
 49
0.25
 74
     0
 49
-0.25
 74
     0
  0
ENDTAB
  0
TABLE
  2
LAYER
  5
90
330
0
100
AcDbSymbolTable
 70
     9
  0
LAYER
  5
9E
102
{ACAD_XDICTIONARY
360
187
102
}
330
90
100
AcDbSymbolTableRecord
100
AcDbLayerTableRecord
  2
0
 70
     0
 62
     7
  6
CONTINUOUS
370
    -3
390
9D
  0
LAYER
  5
B7
102
{ACAD_XDICTIONARY
360
189
102
}
330
90
100
AcDbSymbolTableRecord
100
AcDbLayerTableRecord
  2
CONSTRUCTION_CLASS
 70
     0
 62
     7
  6
CONTINUOUS
370
    -3
390
9D
  0
LAYER
  5
B8
102
{ACAD_XDICTIONARY
360
18B
102
}
330
90
100
AcDbSymbolTableRecord
100
AcDbLayerTableRecord
  2
PATTERN_CLASS
 70
     0
 62
     7
  6
CONTINUOUS
370
    -3
390
9D
  0
LAYER
  5
B9
102
{ACAD_XDICTIONARY
360
18D
102
}
330
90
100
AcDbSymbolTableRecord
100
AcDbLayerTableRecord
  2
2
 70
     0
 62
     7
  6
CONTINUOUS
370
    -3
390
9D
  0
LAYER
  5
BA
102
{ACAD_XDICTIONARY
360
18F
102
}
330
90
100
AcDbSymbolTableRecord
100
AcDbLayerTableRecord
  2
3
 70
     0
 62
     7
  6
CONTINUOUS
370
    -3
390
9D
  0
LAYER
  5
BB
102
{ACAD_XDICTIONARY
360
191
102
}
330
90
100
AcDbSymbolTableRecord
100
AcDbLayerTableRecord
  2
4
 70
     0
 62
     7
  6
CONTINUOUS
370
    -3
390
9D
  0
LAYER
  5
2DE
102
{ACAD_XDICTIONARY
360
2DF
102
}
330
90
100
AcDbSymbolTableRecord
100
AcDbLayerTableRecord
  2
FLAN1$0$1
 70
     0
 62
     7
  6
CONTINUOUS
370
    -3
390
9D
  0
LAYER
  5
370
102
{ACAD_XDICTIONARY
360
371
102
}
330
90
100
AcDbSymbolTableRecord
100
AcDbLayerTableRecord
  2
1
 70
     0
 62
     7
  6
CONTINUOUS
370
    -3
390
9D
  0
LAYER
  5
38A
102
{ACAD_XDICTIONARY
360
38B
102
}
330
90
100
AcDbSymbolTableRecord
100
AcDbLayerTableRecord
  2
-1
 70
     0
 62
     7
  6
CONTINUOUS
370
    -3
390
9D
  0
ENDTAB
  0
TABLE
  2
STYLE
  5
91
330
0
100
AcDbSymbolTable
 70
     2
  0
STYLE
  5
9F
330
91
100
AcDbSymbolTableRecord
100
AcDbTextStyleTableRecord
  2
STANDARD
 70
     0
 40
0.0
 41
1.0
 50
0.0
 71
     0
 42
0.0
  3
txt
  4

  0
STYLE
  5
BC
330
91
100
AcDbSymbolTableRecord
100
AcDbTextStyleTableRecord
  2
TXT
 70
     0
 40
0.2
 41
1.0
 50
0.0
 71
     0
 42
0.2
  3
TXT
  4

  0
ENDTAB
  0
TABLE
  2
VIEW
  5
94
330
0
100
AcDbSymbolTable
 70
     0
  0
ENDTAB
  0
TABLE
  2
UCS
  5
95
330
0
100
AcDbSymbolTable
 70
     0
  0
ENDTAB
  0
TABLE
  2
APPID
  5
97
330
0
100
AcDbSymbolTable
 70
     3
  0
APPID
  5
A0
330
97
100
AcDbSymbolTableRecord
100
AcDbRegAppTableRecord
  2
ACAD
 70
     0
  0
APPID
  5
1CD
330
97
100
AcDbSymbolTableRecord
100
AcDbRegAppTableRecord
  2
ACAD_MLEADERVER
 70
     0
  0
APPID
  5
4FE
330
97
100
AcDbSymbolTableRecord
100
AcDbRegAppTableRecord
  2
ACAD_EXEMPT_FROM_CAD_STANDARDS
 70
     0
  0
ENDTAB
  0
TABLE
  2
DIMSTYLE
  5
98
330
0
100
AcDbSymbolTable
 70
     2
100
AcDbDimStyleTable
 71
     1
340
BD
  0
DIMSTYLE
105
BD
330
98
100
AcDbSymbolTableRecord
100
AcDbDimStyleTableRecord
  2
STANDARD
 70
     0
279
     2
340
9F
  0
ENDTAB
  0
TABLE
  2
BLOCK_RECORD
  5
8F
330
0
100
AcDbSymbolTable
 70
     2
  0
BLOCK_RECORD
  5
AC
330
8F
100
AcDbSymbolTableRecord
100
AcDbBlockTableRecord
  2
*Model_Space
340
AF
  0
BLOCK_RECORD
  5
A8
330
8F
100
AcDbSymbolTableRecord
100
AcDbBlockTableRecord
  2
*Paper_Space
340
AB
  0
ENDTAB
  0
ENDSEC
  0
SECTION
  2
BLOCKS
  0
BLOCK
  5
AD
330
AC
100
AcDbEntity
  8
0
100
AcDbBlockBegin
  2
*Model_Space
 70
     0
 10
0.0
 20
0.0
 30
0.0
  3
*Model_Space
  1

  0
ENDBLK
  5
AE
330
AC
100
AcDbEntity
  8
0
100
AcDbBlockEnd
  0
BLOCK
  5
A9
330
A8
100
AcDbEntity
 67
     1
  8
0
100
AcDbBlockBegin
  2
*Paper_Space
 70
     0
 10
0.0
 20
0.0
 30
0.0
  3
*Paper_Space
  1

  0
ENDBLK
  5
AA
330
A8
100
AcDbEntity
 67
     1
  8
0
100
AcDbBlockEnd
  0
ENDSEC
  0
SECTION
  2
ENTITIES
  0
LINE
  5
448
330
AC
100
AcDbEntity
  8
1
  6
Continuous
 62
     4
100
AcDbLine
 10
761.7664345395719
 20
663.7227
 30
0.0
 11
750.3808043729536
 21
663.7227
 31
0.0
  0
LINE
  5
449
330
AC
100
AcDbEntity
  8
1
  6
Continuous
 62
     4
100
AcDbLine
 10
807.2649000000001
 20
727.0970108367317
 30
0.0
 11
807.2649000000001
 21
880.9253997047678
 31
0.0
  0
LINE
  5
44A
330
AC
100
AcDbEntity
  8
1
  6
Continuous
 62
     4
100
AcDbLine
 10
807.2649000000001
 20
709.2211654604283
 30
0.0
 11
807.2649000000001
 21
720.6067956270463
 31
0.0
  0
LINE
  5
44B
330
AC
100
AcDbEntity
  8
1
  6
Continuous
 62
     4
100
AcDbLine
 10
847.3825538743044
 20
663.7227
 30
0.0
 11
767.1472461256958
 21
663.7227
 31
0.0
  0
LINE
  5
44C
330
AC
100
AcDbEntity
  8
1
  6
Continuous
 62
     4
100
AcDbLine
 10
864.1489956270465
 20
663.7227
 30
0.0
 11
852.7633654604285
 21
663.7227
 31
0.0
  0
LINE
  5
44D
330
AC
100
AcDbEntity
  8
1
  6
Continuous
 62
     4
100
AcDbLine
 10
807.2649000000001
 20
623.6050461256955
 30
0.0
 11
807.2649000000001
 21
703.8403538743043
 31
0.0
  0
LINE
  5
44E
330
AC
100
AcDbEntity
  8
1
  6
Continuous
 62
     4
100
AcDbLine
 10
807.2649000000001
 20
606.8386043729535
 30
0.0
 11
807.2649000000001
 21
618.2242345395717
 31
0.0
  0
LINE
  5
44F
330
AC
100
AcDbEntity
  8
1
  6
Continuous
 62
     4
100
AcDbLine
 10
1031.722725273755
 20
663.7227
 30
0.0
 11
870.6392108367312
 21
663.7227
 31
0.0
  0
LINE
  5
450
330
AC
100
AcDbEntity
  8
1
  6
Continuous
 62
     4
100
AcDbLine
 10
807.2649000000001
 20
450.2610249616797
 30
0.0
 11
807.2649000000001
 21
600.3483891632684
 31
0.0
  0
LINE
  5
451
330
AC
100
AcDbEntity
  8
1
  6
Continuous
 62
     4
100
AcDbLine
 10
807.2649000000001
 20
885.1494919962235
 30
0.0
 11
807.2649000000001
 21
891.0593378559189
 31
0.0
  0
LINE
  5
452
330
AC
100
AcDbEntity
  8
1
  6
Continuous
 62
     4
100
AcDbLine
 10
647.9533332455367
 20
777.0278437530754
 30
0.0
 11
693.9597562469243
 21
823.0342667544629
 31
0.0
1001
ACAD
1010
0.0
1020
0.0
1030
0.0
  0
LINE
  5
453
330
AC
100
AcDbEntity
  8
1
  6
Continuous
 62
     4
100
AcDbLine
 10
632.1373890287953
 20
750.6052978185356
 30
0.0
 11
720.3823021814644
 21
838.8502109712048
 31
0.0
1001
ACAD
1010
0.0
1020
0.0
1030
0.0
  0
LINE
  5
454
330
AC
100
AcDbEntity
  8
1
  6
Continuous
 62
     4
100
AcDbLine
 10
624.0463262345047
 20
731.907633306447
 30
0.0
 11
739.0799666935536
 21
846.9412737654954
 31
0.0
1001
ACAD
1010
0.0
1020
0.0
1030
0.0
  0
LINE
  5
455
330
AC
100
AcDbEntity
  8
1
  6
Continuous
 62
     4
100
AcDbLine
 10
618.9449629140881
 20
716.1996682682321
 30
0.0
 11
669.4793356153797
 21
766.7340409695237
 31
0.0
1001
ACAD
1010
0.0
1020
0.0
1030
0.0
  0
LINE
  5
456
330
AC
100
AcDbEntity
  8
1
  6
Continuous
 62
     4
100
AcDbLine
 10
704.2535590304765
 20
801.5082643846204
 30
0.0
 11
754.7879317317684
 21
852.0426370859119
 31
0.0
1001
ACAD
1010
0.0
1020
0.0
1030
0.0
  0
LINE
  5
457
330
AC
100
AcDbEntity
  8
1
  6
Continuous
 62
     4
100
AcDbLine
 10
615.6046028526034
 20
702.2527064889491
 30
0.0
 11
652.7844071459083
 21
739.4325107822538
 31
0.0
1001
ACAD
1010
0.0
1020
0.0
1030
0.0
  0
LINE
  5
458
330
AC
100
AcDbEntity
  8
1
  6
Continuous
 62
     4
100
AcDbLine
 10
731.5550892177461
 20
818.2031928540919
 30
0.0
 11
768.7348935110512
 21
855.3829971473968
 31
0.0
1001
ACAD
1010
0.0
1020
0.0
1030
0.0
  0
LINE
  5
459
330
AC
100
AcDbEntity
  8
1
  6
Continuous
 62
     4
100
AcDbLine
 10
613.4798057751511
 20
689.5213076936987
 30
0.0
 11
645.0912914957513
 21
721.132793414299
 31
0.0
1001
ACAD
1010
0.0
1020
0.0
1030
0.0
  0
LINE
  5
45A
330
AC
100
AcDbEntity
  8
1
  6
Continuous
 62
     4
100
AcDbLine
 10
749.8548065857008
 20
825.8963085042484
 30
0.0
 11
781.4662923063012
 21
857.5077942248487
 31
0.0
1001
ACAD
1010
0.0
1020
0.0
1030
0.0
  0
LINE
  5
45B
330
AC
100
AcDbEntity
  8
1
  6
Continuous
 62
     4
100
AcDbLine
 10
612.2707790807253
 20
677.7056792814745
 30
0.0
 11
640.4847617156224
 21
705.9196619163716
 31
0.0
1001
ACAD
1010
0.0
1020
0.0
1030
0.0
  0
LINE
  5
45C
330
AC
100
AcDbEntity
  8
1
  6
Continuous
 62
     4
100
AcDbLine
 10
765.067938083628
 20
830.5028382843774
 30
0.0
 11
793.2819207185253
 21
858.7168209192746
 31
0.0
1001
ACAD
1010
0.0
1020
0.0
1030
0.0
  0
LINE
  5
45D
330
AC
100
AcDbEntity
  8
1
  6
Continuous
 62
     4
100
AcDbLine
 10
611.7915321548264
 20
666.6198306377776
 30
0.0
 11
637.6496472552569
 21
692.4779457382077
 31
0.0
1001
ACAD
1010
0.0
1020
0.0
1030
0.0
  0
LINE
  5
45E
330
AC
100
AcDbEntity
  8
1
  6
Continuous
 62
     4
100
AcDbLine
 10
778.5096542617918
 20
833.337952744743
 30
0.0
 11
804.3677693622225
 21
859.1960678451735
 31
0.0
1001
ACAD
1010
0.0
1020
0.0
1030
0.0
  0
LINE
  5
45F
330
AC
100
AcDbEntity
  8
1
  6
Continuous
 62
     4
100
AcDbLine
 10
611.9172174052046
 20
656.1389141703576
 30
0.0
 11
636.0248309806397
 21
680.2465277457929
 31
0.0
1001
ACAD
1010
0.0
1020
0.0
1030
0.0
  0
LINE
  5
460
330
AC
100
AcDbEntity
  8
1
  6
Continuous
 62
     4
100
AcDbLine
 10
790.7410722542072
 20
834.9627690193599
 30
0.0
 11
814.8486858296427
 21
859.0703825947954
 31
0.0
1001
ACAD
1010
0.0
1020
0.0
1030
0.0
  0
LINE
  5
461
330
AC
100
AcDbEntity
  8
1
  6
Continuous
 62
     4
100
AcDbLine
 10
612.5592594245567
 20
646.1743544719118
 30
0.0
 11
635.308064300757
 21
668.9231593481115
 31
0.0
1001
ACAD
1010
0.0
1020
0.0
1030
0.0
  0
LINE
  5
462
330
AC
100
AcDbEntity
  8
1
  6
Continuous
 62
     4
100
AcDbLine
 10
802.0644406518883
 20
835.679535699243
 30
0.0
 11
824.8132455280883
 21
858.4283405754431
 31
0.0
1001
ACAD
1010
0.0
1020
0.0
1030
0.0
  0
LINE
  5
463
330
AC
100
AcDbEntity
  8
1
  6
Continuous
 62
     4
100
AcDbLine
 10
613.6521975159235
 20
636.6606908454801
 30
0.0
 11
635.3142146077889
 21
658.322707937345
 31
0.0
1001
ACAD
1010
0.0
1020
0.0
1030
0.0
  0
LINE
  5
464
330
AC
100
AcDbEntity
  8
1
  6
Continuous
 62
     4
100
AcDbLine
 10
812.6648920626545
 20
835.6733853922108
 30
0.0
 11
834.3269091545199
 21
857.3354024840766
 31
0.0
1001
ACAD
1010
0.0
1020
0.0
1030
0.0
  0
LINE
  5
465
330
AC
100
AcDbEntity
  8
1
  6
Continuous
 62
     4
100
AcDbLine
 10
615.1461261456159
 20
627.5480177573744
 30
0.0
 11
635.9201647533113
 21
648.3220563650696
 31
0.0
1001
ACAD
1010
0.0
1020
0.0
1030
0.0
  0
LINE
  5
466
330
AC
100
AcDbEntity
  8
1
  6
Continuous
 62
     4
100
AcDbLine
 10
822.6655436349298
 20
835.0674352466882
 30
0.0
 11
843.4395822426258
 21
855.841473854384
 31
0.0
1001
ACAD
1010
0.0
1020
0.0
1030
0.0
  0
LINE
  5
467
330
AC
100
AcDbEntity
  8
1
  6
Continuous
 62
     4
100
AcDbLine
 10
617.0020694910149
 20
618.797359384975
 30
0.0
 11
637.03923541943
 21
638.83452531339
 31
0.0
1001
ACAD
1010
0.0
1020
0.0
1030
0.0
  0
LINE
  5
468
330
AC
100
AcDbEntity
  8
1
  6
Continuous
 62
     4
100
AcDbLine
 10
832.1530746866097
 20
833.9483645805698
 30
0.0
 11
852.1902406150251
 21
853.9855305089853
 31
0.0
1001
ACAD
1010
0.0
1020
0.0
1030
0.0
  0
LINE
  5
469
330
AC
100
AcDbEntity
  8
1
  6
Continuous
 62
     4
100
AcDbLine
 10
619.18900734118
 20
610.3776955173418
 30
0.0
 11
638.6078175433963
 21
629.796505719558
 31
0.0
1001
ACAD
1010
0.0
1020
0.0
1030
0.0
  0
LINE
  5
46A
330
AC
100
AcDbEntity
  8
1
  6
Continuous
 62
     4
100
AcDbLine
 10
841.1910942804416
 20
832.3797824566035
 30
0.0
 11
860.609904482658
 21
851.7985926588202
 31
0.0
1001
ACAD
1010
0.0
1020
0.0
1030
0.0
  0
LINE
  5
46B
330
AC
100
AcDbEntity
  8
1
  6
Continuous
 62
     4
100
AcDbLine
 10
621.6818847323893
 20
602.263971190753
 30
0.0
 11
640.5777624417169
 21
621.1598489000805
 31
0.0
1001
ACAD
1010
0.0
1020
0.0
1030
0.0
  0
LINE
  5
46C
330
AC
100
AcDbEntity
  8
1
  6
Continuous
 62
     4
100
AcDbLine
 10
849.8277510999191
 20
830.4098375582828
 30
0.0
 11
868.7236288092472
 21
849.3057152676108
 31
0.0
1001
ACAD
1010
0.0
1020
0.0
1030
0.0
  0
LINE
  5
46D
330
AC
100
AcDbEntity
  8
1
  6
Continuous
 62
     4
100
AcDbLine
 10
624.460235548544
 20
594.4357202891094
 30
0.0
 11
642.9117600422086
 21
612.887244782774
 31
0.0
1001
ACAD
1010
0.0
1020
0.0
1030
0.0
  0
LINE
  5
46E
330
AC
100
AcDbEntity
  8
1
  6
Continuous
 62
     4
100
AcDbLine
 10
858.1003552172258
 20
828.075839957791
 30
0.0
 11
876.5518797108907
 21
846.527364451456
 31
0.0
1001
ACAD
1010
0.0
1020
0.0
1030
0.0
  0
LINE
  5
46F
330
AC
100
AcDbEntity
  8
1
  6
Continuous
 62
     4
100
AcDbLine
 10
627.5072045741021
 20
586.8760875968693
 30
0.0
 11
645.5803863064616
 21
604.9492693292291
 31
0.0
1001
ACAD
1010
0.0
1020
0.0
1030
0.0
  0
LINE
  5
470
330
AC
100
AcDbEntity
  8
1
  6
Continuous
 62
     4
100
AcDbLine
 10
866.0383306707709
 20
825.4072136935382
 30
0.0
 11
884.1115124031308
 21
843.4803954258979
 31
0.0
1001
ACAD
1010
0.0
1020
0.0
1030
0.0
  0
LINE
  5
471
330
AC
100
AcDbEntity
  8
1
  6
Continuous
 62
     4
100
AcDbLine
 10
630.8088369396958
 20
579.571118244665
 30
0.0
 11
648.56013941429
 21
597.3224207192591
 31
0.0
1001
ACAD
1010
0.0
1020
0.0
1030
0.0
  0
LINE
  5
472
330
AC
100
AcDbEntity
  8
1
  6
Continuous
 62
     4
100
AcDbLine
 10
873.665179280741
 20
822.4274605857097
 30
0.0
 11
891.416481755335
 21
840.1787630603042
 31
0.0
1001
ACAD
1010
0.0
1020
0.0
1030
0.0
  0
LINE
  5
473
330
AC
100
AcDbEntity
  8
1
  6
Continuous
 62
     4
100
AcDbLine
 10
634.3535523490934
 20
572.5092319362642
 30
0.0
 11
651.8320905811306
 21
589.9877701683017
 31
0.0
1001
ACAD
1010
0.0
1020
0.0
1030
0.0
  0
LINE
  5
474
330
AC
100
AcDbEntity
  8
1
  6
Continuous
 62
     4
100
AcDbLine
 10
880.9998298316982
 20
819.1555094188688
 30
0.0
 11
898.4783680637361
 21
836.6340476509067
 31
0.0
1001
ACAD
1010
0.0
1020
0.0
1030
0.0
  0
LINE
  5
475
330
AC
100
AcDbEntity
  8
1
  6
Continuous
 62
     4
100
AcDbLine
 10
638.1317504063515
 20
565.680828275724
 30
0.0
 11
655.3809328441769
 21
582.9300107135495
 31
0.0
1001
ACAD
1010
0.0
1020
0.0
1030
0.0
  0
LINE
  5
476
330
AC
100
AcDbEntity
  8
1
  6
Continuous
 62
     4
100
AcDbLine
 10
888.0575892864499
 20
815.6066671558226
 30
0.0
 11
905.3067717242756
 21
832.8558495936484
 31
0.0
1001
ACAD
1010
0.0
1020
0.0
1030
0.0
  0
LINE
  5
477
330
AC
100
AcDbEntity
  8
1
  6
Continuous
 62
     4
100
AcDbLine
 10
642.1355112520177
 20
559.0779874035924
 30
0.0
 11
659.1942968590179
 21
576.1367730105925
 31
0.0
1001
ACAD
1010
0.0
1020
0.0
1030
0.0
  0
LINE
  5
478
330
AC
100
AcDbEntity
  8
1
  6
Continuous
 62
     4
100
AcDbLine
 10
894.8508269894068
 20
811.7933031409817
 30
0.0
 11
911.9096125964075
 21
828.8520887479821
 31
0.0
1001
ACAD
1010
0.0
1020
0.0
1030
0.0
  0
LINE
  5
479
330
AC
100
AcDbEntity
  8
1
  6
Continuous
 62
     4
100
AcDbLine
 10
646.3583671305548
 20
552.6942415643311
 30
0.0
 11
663.2622517037453
 21
569.5981261375216
 31
0.0
1001
ACAD
1010
0.0
1020
0.0
1030
0.0
  0
LINE
  5
47A
330
AC
100
AcDbEntity
  8
1
  6
Continuous
 62
     4
100
AcDbLine
 10
901.3894738624781
 20
807.7253482962543
 30
0.0
 11
918.2933584356687
 21
824.6292328694451
 31
0.0
1001
ACAD
1010
0.0
1020
0.0
1030
0.0
  0
LINE
  5
47B
330
AC
100
AcDbEntity
  8
1
  6
Continuous
 62
     4
100
AcDbLine
 10
650.795128003896
 20
546.5244007198736
 30
0.0
 11
667.5769378473865
 21
563.3062105633642
 31
0.0
1001
ACAD
1010
0.0
1020
0.0
1030
0.0
  0
LINE
  5
47C
330
AC
100
AcDbEntity
  8
1
  6
Continuous
 62
     4
100
AcDbLine
 10
907.6813894366354
 20
803.4106621526133
 30
0.0
 11
924.4631992801265
 21
820.1924719961041
 31
0.0
1001
ACAD
1010
0.0
1020
0.0
1030
0.0
  0
LINE
  5
47D
330
AC
100
AcDbEntity
  8
1
  6
Continuous
 62
     4
100
AcDbLine
 10
655.4417493816782
 20
540.5644203798577
 30
0.0
 11
672.1322974760737
 21
557.2549684742533
 31
0.0
1001
ACAD
1010
0.0
1020
0.0
1030
0.0
  0
LINE
  5
47E
330
AC
100
AcDbEntity
  8
1
  6
Continuous
 62
     4
100
AcDbLine
 10
913.7326315257464
 20
798.8553025239263
 30
0.0
 11
930.4231796201424
 21
815.5458506183219
 31
0.0
1001
ACAD
1010
0.0
1020
0.0
1030
0.0
  0
LINE
  5
47F
330
AC
100
AcDbEntity
  8
1
  6
Continuous
 62
     4
100
AcDbLine
 10
660.2952340465556
 20
534.8113033269371
 30
0.0
 11
676.9238789338974
 21
551.439948214279
 31
0.0
1001
ACAD
1010
0.0
1020
0.0
1030
0.0
  0
LINE
  5
480
330
AC
100
AcDbEntity
  8
1
  6
Continuous
 62
     4
100
AcDbLine
 10
919.5476517857205
 20
794.0637210661019
 30
0.0
 11
936.1762966730635
 21
810.6923659534443
 31
0.0
1001
ACAD
1010
0.0
1020
0.0
1030
0.0
  0
LINE
  5
481
330
AC
100
AcDbEntity
  8
1
  6
Continuous
 62
     4
100
AcDbLine
 10
665.3535618632672
 20
529.2630294258507
 30
0.0
 11
681.9486997286031
 21
545.8581672911861
 31
0.0
1001
ACAD
1010
0.0
1020
0.0
1030
0.0
  0
LINE
  5
482
330
AC
100
AcDbEntity
  8
1
  6
Continuous
 62
     4
100
AcDbLine
 10
925.1294327088139
 20
789.0389002713971
 30
0.0
 11
941.7245705741493
 21
805.6340381367327
 31
0.0
1001
ACAD
1010
0.0
1020
0.0
1030
0.0
  0
LINE
  5
483
330
AC
100
AcDbEntity
  8
1
  6
Continuous
 62
     4
100
AcDbLine
 10
670.6156437244422
 20
523.918509569227
 30
0.0
 11
687.2051578931518
 21
540.5080237379368
 31
0.0
1001
ACAD
1010
0.0
1020
0.0
1030
0.0
  0
LINE
  5
484
330
AC
100
AcDbEntity
  8
1
  6
Continuous
 62
     4
100
AcDbLine
 10
930.4795762620628
 20
783.7824421068479
 30
0.0
 11
947.069090430773
 21
800.3719562755579
 31
0.0
1001
ACAD
1010
0.0
1020
0.0
1030
0.0
  0
LINE
  5
485
330
AC
100
AcDbEntity
  8
1
  6
Continuous
 62
     4
100
AcDbLine
 10
676.0812971381815
 20
518.7775612651685
 30
0.0
 11
692.6929854088325
 21
535.3892495358196
 31
0.0
1001
ACAD
1010
0.0
1020
0.0
1030
0.0
  0
LINE
  5
486
330
AC
100
AcDbEntity
  8
1
  6
Continuous
 62
     4
100
AcDbLine
 10
935.5983504641804
 20
778.294614591167
 30
0.0
 11
952.2100387348318
 21
794.9063028618184
 31
0.0
1001
ACAD
1010
0.0
1020
0.0
1030
0.0
  0
LINE
  5
487
330
AC
100
AcDbEntity
  8
1
  6
Continuous
 62
     4
100
AcDbLine
 10
681.751242165943
 20
513.8409045751317
 30
0.0
 11
698.4132404828415
 21
530.5029028920304
 31
0.0
1001
ACAD
1010
0.0
1020
0.0
1030
0.0
  0
LINE
  5
488
330
AC
100
AcDbEntity
  8
1
  6
Continuous
 62
     4
100
AcDbLine
 10
940.4846971079692
 20
772.5743595171583
 30
0.0
 11
957.1466954248686
 21
789.236357834057
 31
0.0
1001
ACAD
1010
0.0
1020
0.0
1030
0.0
  0
LINE
  5
489
330
AC
100
AcDbEntity
  8
1
  6
Continuous
 62
     4
100
AcDbLine
 10
687.6271174979365
 20
509.110178189327
 30
0.0
 11
704.3683381553806
 21
525.851398846771
 31
0.0
1001
ACAD
1010
0.0
1020
0.0
1030
0.0
  0
LINE
  5
48A
330
AC
100
AcDbEntity
  8
1
  6
Continuous
 62
     4
100
AcDbLine
 10
945.1362011532287
 20
766.6192618446189
 30
0.0
 11
961.8774218106732
 21
783.3604825020636
 31
0.0
1001
ACAD
1010
0.0
1020
0.0
1030
0.0
  0
LINE
  5
48B
330
AC
100
AcDbEntity
  8
1
  6
Continuous
 62
     4
100
AcDbLine
 10
693.7115175116446
 20
504.5879764852368
 30
0.0
 11
710.562121328227
 21
521.4385803018195
 31
0.0
1001
ACAD
1010
0.0
1020
0.0
1030
0.0
  0
LINE
  5
48C
330
AC
100
AcDbEntity
  8
1
  6
Continuous
 62
     4
100
AcDbLine
 10
949.5490196981805
 20
760.4254786717724
 30
0.0
 11
966.3996235147633
 21
777.2760824883556
 31
0.0
1001
ACAD
1010
0.0
1020
0.0
1030
0.0
  0
LINE
  5
48D
330
AC
100
AcDbEntity
  8
1
  6
Continuous
 62
     4
100
AcDbLine
 10
700.0080522985676
 20
500.2779095543618
 30
0.0
 11
716.999977185365
 21
517.2698344411588
 31
0.0
1001
ACAD
1010
0.0
1020
0.0
1030
0.0
  0
LINE
  5
48E
330
AC
100
AcDbEntity
  8
1
  6
Continuous
 62
     4
100
AcDbLine
 10
953.7177655588406
 20
753.9876228146348
 30
0.0
 11
970.7096904456385
 21
770.9795477014324
 31
0.0
1001
ACAD
1010
0.0
1020
0.0
1030
0.0
  0
LINE
  5
48F
330
AC
100
AcDbEntity
  8
1
  6
Continuous
 62
     4
100
AcDbLine
 10
706.5214339787403
 20
496.1846895167361
 30
0.0
 11
723.6890074961266
 21
513.3522630341222
 31
0.0
1001
ACAD
1010
0.0
1020
0.0
1030
0.0
  0
LINE
  5
490
330
AC
100
AcDbEntity
  8
1
  6
Continuous
 62
     4
100
AcDbLine
 10
957.6353369658773
 20
747.298592503873
 30
0.0
 11
974.8029104832639
 21
764.4661660212595
 31
0.0
1001
ACAD
1010
0.0
1020
0.0
1030
0.0
  0
LINE
  5
491
330
AC
100
AcDbEntity
  8
1
  6
Continuous
 62
     4
100
AcDbLine
 10
713.2575942964901
 20
492.314248116688
 30
0.0
 11
730.6382659656614
 21
509.6949197858594
 31
0.0
1001
ACAD
1010
0.0
1020
0.0
1030
0.0
  0
LINE
  5
492
330
AC
100
AcDbEntity
  8
1
  6
Continuous
 62
     4
100
AcDbLine
 10
961.29268021414
 20
740.3493340343381
 30
0.0
 11
978.673351883312
 21
757.7300057035098
 31
0.0
1001
ACAD
1010
0.0
1020
0.0
1030
0.0
  0
LINE
  5
493
330
AC
100
AcDbEntity
  8
1
  6
Continuous
 62
     4
100
AcDbLine
 10
720.2238407051545
 20
488.6738928075541
 30
0.0
 11
737.859082396173
 21
506.3091344985723
 31
0.0
1001
ACAD
1010
0.0
1020
0.0
1030
0.0
  0
LINE
  5
494
330
AC
100
AcDbEntity
  8
1
  6
Continuous
 62
     4
100
AcDbLine
 10
964.6784655014275
 20
733.1285176038269
 30
0.0
 11
982.3137071924456
 21
750.7637592948452
 31
0.0
1001
ACAD
1010
0.0
1020
0.0
1030
0.0
  0
LINE
  5
495
330
AC
100
AcDbEntity
  8
1
  6
Continuous
 62
     4
100
AcDbLine
 10
727.4290611994656
 20
485.2725115840669
 30
0.0
 11
745.3655031806278
 21
503.2089535652292
 31
0.0
1001
ACAD
1010
0.0
1020
0.0
1030
0.0
  0
LINE
  5
496
330
AC
100
AcDbEntity
  8
1
  6
Continuous
 62
     4
100
AcDbLine
 10
967.7786464347704
 20
725.6220968193717
 30
0.0
 11
985.7150884159333
 21
743.5585388005343
 31
0.0
1001
ACAD
1010
0.0
1020
0.0
1030
0.0
  0
LINE
  5
497
330
AC
100
AcDbEntity
  8
1
  6
Continuous
 62
     4
100
AcDbLine
 10
734.883992499073
 20
482.1208411658759
 30
0.0
 11
753.1748926500461
 21
500.4117413168489
 31
0.0
1001
ACAD
1010
0.0
1020
0.0
1030
0.0
  0
LINE
  5
498
330
AC
100
AcDbEntity
  8
1
  6
Continuous
 62
     4
100
AcDbLine
 10
970.5758586831512
 20
717.8127073499539
 30
0.0
 11
988.866758834124
 21
736.1036075009272
 31
0.0
1001
ACAD
1010
0.0
1020
0.0
1030
0.0
  0
LINE
  5
499
330
AC
100
AcDbEntity
  8
1
  6
Continuous
 62
     4
100
AcDbLine
 10
742.6015725545587
 20
479.2318195035631
 30
0.0
 11
761.3087636936797
 21
497.9390106426842
 31
0.0
1001
ACAD
1010
0.0
1020
0.0
1030
0.0
  0
LINE
  5
49A
330
AC
100
AcDbEntity
  8
1
  6
Continuous
 62
     4
100
AcDbLine
 10
973.0485893573154
 20
709.67883630632
 30
0.0
 11
991.7557804964367
 21
728.3860274454416
 31
0.0
1001
ACAD
1010
0.0
1020
0.0
1030
0.0
  0
LINE
  5
49B
330
AC
100
AcDbEntity
  8
1
  6
Continuous
 62
     4
100
AcDbLine
 10
750.5974079394868
 20
476.6210531706934
 30
0.0
 11
769.793945569576
 21
495.8175908007826
 31
0.0
1001
ACAD
1010
0.0
1020
0.0
1030
0.0
  0
LINE
  5
49C
330
AC
100
AcDbEntity
  8
1
  6
Continuous
 62
     4
100
AcDbLine
 10
975.1700091992175
 20
701.1936544304236
 30
0.0
 11
994.3665468293071
 21
720.390192060513
 31
0.0
1001
ACAD
1010
0.0
1020
0.0
1030
0.0
  0
LINE
  5
49D
330
AC
100
AcDbEntity
  8
1
  6
Continuous
 62
     4
100
AcDbLine
 10
758.890401550665
 20
474.3074450640731
 30
0.0
 11
778.6642647648891
 21
494.0813082782974
 31
0.0
1001
ACAD
1010
0.0
1020
0.0
1030
0.0
  0
LINE
  5
49E
330
AC
100
AcDbEntity
  8
1
  6
Continuous
 62
     4
100
AcDbLine
 10
976.9062917217025
 20
692.3233352351107
 30
0.0
 11
996.6801549359271
 21
712.0971984493353
 31
0.0
1001
ACAD
1010
0.0
1020
0.0
1030
0.0
  0
LINE
  5
49F
330
AC
100
AcDbEntity
  8
1
  6
Continuous
 62
     4
100
AcDbLine
 10
767.5036097560864
 20
472.3140515516966
 30
0.0
 11
787.9630370644679
 21
492.7734788600782
 31
0.0
1001
ACAD
1010
0.0
1020
0.0
1030
0.0
  0
LINE
  5
4A0
330
AC
100
AcDbEntity
  8
1
  6
Continuous
 62
     4
100
AcDbLine
 10
978.2141211399217
 20
683.0245629355316
 30
0.0
 11
998.6735484483032
 21
703.4839902439135
 31
0.0
1001
ACAD
1010
0.0
1020
0.0
1030
0.0
  0
LINE
  5
4A1
330
AC
100
AcDbEntity
  8
1
  6
Continuous
 62
     4
100
AcDbLine
 10
776.4654372689149
 20
470.6692773467266
 30
0.0
 11
797.7469011539024
 21
491.9507412317141
 31
0.0
1001
ACAD
1010
0.0
1020
0.0
1030
0.0
  0
LINE
  5
4A2
330
AC
100
AcDbEntity
  8
1
  6
Continuous
 62
     4
100
AcDbLine
 10
979.0368587682856
 20
673.2406988460975
 30
0.0
 11
1000.318322653273
 21
694.5221627310854
 31
0.0
1001
ACAD
1010
0.0
1020
0.0
1030
0.0
  0
LINE
  5
4A3
330
AC
100
AcDbEntity
  8
1
  6
Continuous
 62
     4
100
AcDbLine
 10
785.8113451043934
 20
469.4085834644067
 30
0.0
 11
808.0919938586358
 21
491.6892322186495
 31
0.0
1001
ACAD
1010
0.0
1020
0.0
1030
0.0
  0
LINE
  5
4A4
330
AC
100
AcDbEntity
  8
1
  6
Continuous
 62
     4
100
AcDbLine
 10
979.2983677813504
 20
662.895606141364
 30
0.0
 11
1001.579016535593
 21
685.176254895607
 31
0.0
1001
ACAD
1010
0.0
1020
0.0
1030
0.0
  0
LINE
  5
4A5
330
AC
100
AcDbEntity
  8
1
  6
Continuous
 62
     4
100
AcDbLine
 10
795.5863670902454
 20
468.5770037324608
 30
0.0
 11
819.1044953412083
 21
492.0951319834239
 31
0.0
1001
ACAD
1010
0.0
1020
0.0
1030
0.0
  0
LINE
  5
4A6
330
AC
100
AcDbEntity
  8
1
  6
Continuous
 62
     4
100
AcDbLine
 10
978.8924680165759
 20
651.8831046587914
 30
0.0
 11
1002.410596267539
 21
675.4012329097547
 31
0.0
1001
ACAD
1010
0.0
1020
0.0
1030
0.0
  0
LINE
  5
4A7
330
AC
100
AcDbEntity
  8
1
  6
Continuous
 62
     4
100
AcDbLine
 10
805.8489568867196
 20
468.232991811137
 30
0.0
 11
830.9400589490499
 21
493.3240938734673
 31
0.0
1001
ACAD
1010
0.0
1020
0.0
1030
0.0
  0
LINE
  5
4A8
330
AC
100
AcDbEntity
  8
1
  6
Continuous
 62
     4
100
AcDbLine
 10
977.6635061265329
 20
640.0475410509499
 30
0.0
 11
1002.754608188863
 21
665.1386431132805
 31
0.0
1001
ACAD
1010
0.0
1020
0.0
1030
0.0
  0
LINE
  5
4A9
330
AC
100
AcDbEntity
  8
1
  6
Continuous
 62
     4
100
AcDbLine
 10
816.6771418846501
 20
468.4545750912691
 30
0.0
 11
843.8434994521431
 21
495.6209326587618
 31
0.0
1001
ACAD
1010
0.0
1020
0.0
1030
0.0
  0
LINE
  5
4AA
330
AC
100
AcDbEntity
  8
1
  6
Continuous
 62
     4
100
AcDbLine
 10
975.366667341238
 20
627.1441005478569
 30
0.0
 11
1002.533024908731
 21
654.31045811535
 31
0.0
1001
ACAD
1010
0.0
1020
0.0
1030
0.0
  0
LINE
  5
4AB
330
AC
100
AcDbEntity
  8
1
  6
Continuous
 62
     4
100
AcDbLine
 10
828.1789443366665
 20
469.3497758254872
 30
0.0
 11
858.242880129352
 21
499.4137116181728
 31
0.0
1001
ACAD
1010
0.0
1020
0.0
1030
0.0
  0
LINE
  5
4AC
330
AC
100
AcDbEntity
  8
1
  6
Continuous
 62
     4
100
AcDbLine
 10
971.5738883818271
 20
612.744719870648
 30
0.0
 11
1001.637824174512
 21
642.8086556633334
 31
0.0
1001
ACAD
1010
0.0
1020
0.0
1030
0.0
  0
LINE
  5
4AD
330
AC
100
AcDbEntity
  8
1
  6
Continuous
 62
     4
100
AcDbLine
 10
840.5113765602868
 20
471.0756063313096
 30
0.0
 11
875.032898135802
 21
505.5971279068248
 31
0.0
1001
ACAD
1010
0.0
1020
0.0
1030
0.0
  0
LINE
  5
4AE
330
AC
100
AcDbEntity
  8
1
  6
Continuous
 62
     4
100
AcDbLine
 10
965.390472093175
 20
595.9547018641975
 30
0.0
 11
999.9119936686907
 21
630.4762234397131
 31
0.0
1001
ACAD
1010
0.0
1020
0.0
1030
0.0
  0
LINE
  5
4AF
330
AC
100
AcDbEntity
  8
1
  6
Continuous
 62
     4
100
AcDbLine
 10
853.9186688989747
 20
473.8762969521994
 30
0.0
 11
896.9664969091587
 21
516.9241249623832
 31
0.0
1001
ACAD
1010
0.0
1020
0.0
1030
0.0
  0
LINE
  5
4B0
330
AC
100
AcDbEntity
  8
1
  6
Continuous
 62
     4
100
AcDbLine
 10
954.063475037617
 20
574.0211030908413
 30
0.0
 11
997.1113030478004
 21
617.0689311010249
 31
0.0
1001
ACAD
1010
0.0
1020
0.0
1030
0.0
  0
LINE
  5
4B1
330
AC
100
AcDbEntity
  8
1
  6
Continuous
 62
     4
100
AcDbLine
 10
868.8208993582589
 20
478.1719256936854
 30
0.0
 11
992.8156743063146
 21
602.1667006417406
 31
0.0
1001
ACAD
1010
0.0
1020
0.0
1030
0.0
  0
LINE
  5
4B2
330
AC
100
AcDbEntity
  8
1
  6
Continuous
 62
     4
100
AcDbLine
 10
886.0709184789802
 20
484.8153430966084
 30
0.0
 11
986.1722569033913
 21
584.9166815210192
 31
0.0
1001
ACAD
1010
0.0
1020
0.0
1030
0.0
  0
LINE
  5
4B3
330
AC
100
AcDbEntity
  8
1
  6
Continuous
 62
     4
100
AcDbLine
 10
908.1050307536525
 20
496.2428536534824
 30
0.0
 11
974.7447463465173
 21
562.8825692463473
 31
0.0
1001
ACAD
1010
0.0
1020
0.0
1030
0.0
  0
LINE
  5
4BE
330
AC
100
AcDbEntity
  8
FLAN1$0$1
  6
Continuous
 62
     7
100
AcDbLine
 10
957.1466954248686
 20
789.236357834057
 30
0.0
 11
929.780258828851
 21
816.0651358270039
 31
0.0
  0
LINE
  5
4BF
330
AC
100
AcDbEntity
  8
FLAN1$0$1
  6
Continuous
 62
     7
100
AcDbLine
 10
929.780258828851
 20
816.0651358270039
 30
0.0
 11
897.705625700445
 21
837.0394794457411
 31
0.0
  0
LINE
  5
4C0
330
AC
100
AcDbEntity
  8
FLAN1$0$1
  6
Continuous
 62
     7
100
AcDbLine
 10
897.705625700445
 20
837.0394794457411
 30
0.0
 11
862.1554062031149
 21
851.3533564275483
 31
0.0
  0
LINE
  5
4C1
330
AC
100
AcDbEntity
  8
FLAN1$0$1
  6
Continuous
 62
     7
100
AcDbLine
 10
862.1554062031149
 20
851.3533564275483
 30
0.0
 11
824.4957753353494
 21
858.4566925073291
 31
0.0
  0
LINE
  5
4C2
330
AC
100
AcDbEntity
  8
FLAN1$0$1
  6
Continuous
 62
     7
100
AcDbLine
 10
824.4957753353494
 20
858.4566925073291
 30
0.0
 11
786.1739715916328
 21
858.0765104631344
 31
0.0
  0
LINE
  5
4C3
330
AC
100
AcDbEntity
  8
FLAN1$0$1
  6
Continuous
 62
     7
100
AcDbLine
 10
786.1739715916328
 20
858.0765104631344
 30
0.0
 11
748.6626803987205
 21
850.2274204777142
 31
0.0
  0
LINE
  5
4C4
330
AC
100
AcDbEntity
  8
FLAN1$0$1
  6
Continuous
 62
     7
100
AcDbLine
 10
748.6626803987205
 20
850.2274204777142
 30
0.0
 11
713.4034396405823
 21
835.2110586773875
 31
0.0
  0
LINE
  5
4C5
330
AC
100
AcDbEntity
  8
FLAN1$0$1
  6
Continuous
 62
     7
100
AcDbLine
 10
713.4034396405823
 20
835.2110586773875
 30
0.0
 11
681.751242165943
 21
813.6044954248683
 31
0.0
  0
LINE
  5
4C6
330
AC
100
AcDbEntity
  8
FLAN1$0$1
  6
Continuous
 62
     7
100
AcDbLine
 10
681.751242165943
 20
813.6044954248683
 30
0.0
 11
654.9224641729961
 21
786.2380588288508
 31
0.0
  0
LINE
  5
4C7
330
AC
100
AcDbEntity
  8
FLAN1$0$1
  6
Continuous
 62
     7
100
AcDbLine
 10
654.9224641729961
 20
786.2380588288508
 30
0.0
 11
633.9481205542588
 21
754.1634257004452
 31
0.0
  0
LINE
  5
4C8
330
AC
100
AcDbEntity
  8
FLAN1$0$1
  6
Continuous
 62
     7
100
AcDbLine
 10
633.9481205542588
 20
754.1634257004452
 30
0.0
 11
619.6342435724518
 21
718.6132062031149
 31
0.0
  0
LINE
  5
4C9
330
AC
100
AcDbEntity
  8
FLAN1$0$1
  6
Continuous
 62
     7
100
AcDbLine
 10
619.6342435724518
 20
718.6132062031149
 30
0.0
 11
612.5309074926708
 21
680.9535753353492
 31
0.0
  0
LINE
  5
4CA
330
AC
100
AcDbEntity
  8
FLAN1$0$1
  6
Continuous
 62
     7
100
AcDbLine
 10
612.5309074926708
 20
680.9535753353492
 30
0.0
 11
612.9110895368655
 21
642.6317715916325
 31
0.0
  0
LINE
  5
4CB
330
AC
100
AcDbEntity
  8
FLAN1$0$1
  6
Continuous
 62
     7
100
AcDbLine
 10
612.9110895368655
 20
642.6317715916325
 30
0.0
 11
620.7601795222858
 21
605.1204803987204
 31
0.0
  0
LINE
  5
4CC
330
AC
100
AcDbEntity
  8
FLAN1$0$1
  6
Continuous
 62
     7
100
AcDbLine
 10
620.7601795222858
 20
605.1204803987204
 30
0.0
 11
635.7765413226124
 21
569.8612396405819
 31
0.0
  0
LINE
  5
4CD
330
AC
100
AcDbEntity
  8
FLAN1$0$1
  6
Continuous
 62
     7
100
AcDbLine
 10
635.7765413226124
 20
569.8612396405819
 30
0.0
 11
657.3831045751317
 21
538.2090421659427
 31
0.0
  0
LINE
  5
4CE
330
AC
100
AcDbEntity
  8
FLAN1$0$1
  6
Continuous
 62
     7
100
AcDbLine
 10
657.3831045751317
 20
538.2090421659427
 30
0.0
 11
684.7495411711492
 21
511.3802641729958
 31
0.0
  0
LINE
  5
4CF
330
AC
100
AcDbEntity
  8
FLAN1$0$1
  6
Continuous
 62
     7
100
AcDbLine
 10
684.7495411711492
 20
511.3802641729958
 30
0.0
 11
716.8241742995548
 21
490.4059205542586
 31
0.0
  0
LINE
  5
4D0
330
AC
100
AcDbEntity
  8
FLAN1$0$1
  6
Continuous
 62
     7
100
AcDbLine
 10
716.8241742995548
 20
490.4059205542586
 30
0.0
 11
752.3743937968854
 21
476.0920435724516
 31
0.0
  0
LINE
  5
4D1
330
AC
100
AcDbEntity
  8
FLAN1$0$1
  6
Continuous
 62
     7
100
AcDbLine
 10
752.3743937968854
 20
476.0920435724516
 30
0.0
 11
790.034024664651
 21
468.9887074926708
 31
0.0
  0
LINE
  5
4D2
330
AC
100
AcDbEntity
  8
FLAN1$0$1
  6
Continuous
 62
     7
100
AcDbLine
 10
790.034024664651
 20
468.9887074926708
 30
0.0
 11
828.3558284083678
 21
469.3688895368654
 31
0.0
  0
LINE
  5
4D3
330
AC
100
AcDbEntity
  8
FLAN1$0$1
  6
Continuous
 62
     7
100
AcDbLine
 10
828.3558284083678
 20
469.3688895368654
 30
0.0
 11
865.8671196012802
 21
477.217979522286
 31
0.0
  0
LINE
  5
4D4
330
AC
100
AcDbEntity
  8
FLAN1$0$1
  6
Continuous
 62
     7
100
AcDbLine
 10
865.8671196012802
 20
477.217979522286
 30
0.0
 11
901.1263603594183
 21
492.2343413226126
 31
0.0
  0
LINE
  5
4D5
330
AC
100
AcDbEntity
  8
FLAN1$0$1
  6
Continuous
 62
     7
100
AcDbLine
 10
901.1263603594183
 20
492.2343413226126
 30
0.0
 11
932.7785578340577
 21
513.8409045751319
 31
0.0
  0
LINE
  5
4D6
330
AC
100
AcDbEntity
  8
FLAN1$0$1
  6
Continuous
 62
     7
100
AcDbLine
 10
932.7785578340577
 20
513.8409045751319
 30
0.0
 11
959.6073358270041
 21
541.2073411711499
 31
0.0
  0
LINE
  5
4D7
330
AC
100
AcDbEntity
  8
FLAN1$0$1
  6
Continuous
 62
     7
100
AcDbLine
 10
959.6073358270041
 20
541.2073411711499
 30
0.0
 11
980.5816794457413
 21
573.2819742995554
 31
0.0
  0
LINE
  5
4D8
330
AC
100
AcDbEntity
  8
FLAN1$0$1
  6
Continuous
 62
     7
100
AcDbLine
 10
980.5816794457413
 20
573.2819742995554
 30
0.0
 11
994.8955564275484
 21
608.8321937968856
 31
0.0
  0
LINE
  5
4D9
330
AC
100
AcDbEntity
  8
FLAN1$0$1
  6
Continuous
 62
     7
100
AcDbLine
 10
994.8955564275484
 20
608.8321937968856
 30
0.0
 11
1001.998892507329
 21
646.4918246646513
 31
0.0
  0
LINE
  5
4DA
330
AC
100
AcDbEntity
  8
FLAN1$0$1
  6
Continuous
 62
     7
100
AcDbLine
 10
1001.998892507329
 20
646.4918246646513
 30
0.0
 11
1001.618710463134
 21
684.8136284083681
 31
0.0
  0
LINE
  5
4DB
330
AC
100
AcDbEntity
  8
FLAN1$0$1
  6
Continuous
 62
     7
100
AcDbLine
 10
1001.618710463134
 20
684.8136284083681
 30
0.0
 11
993.7696204777139
 21
722.3249196012804
 31
0.0
  0
LINE
  5
4DC
330
AC
100
AcDbEntity
  8
FLAN1$0$1
  6
Continuous
 62
     7
100
AcDbLine
 10
993.7696204777139
 20
722.3249196012804
 30
0.0
 11
978.7532586773869
 21
757.5841603594185
 31
0.0
  0
LINE
  5
4DD
330
AC
100
AcDbEntity
  8
FLAN1$0$1
  6
Continuous
 62
     7
100
AcDbLine
 10
978.7532586773869
 20
757.5841603594185
 30
0.0
 11
957.1466954248686
 21
789.236357834057
 31
0.0
  0
LINE
  5
4DE
330
AC
100
AcDbEntity
  8
FLAN1$0$1
  6
Continuous
 62
     7
100
AcDbLine
 10
880.9998298316982
 20
819.1555094188688
 30
0.0
 11
849.2595969890958
 21
830.5538827744497
 31
0.0
  0
LINE
  5
4DF
330
AC
100
AcDbEntity
  8
FLAN1$0$1
  6
Continuous
 62
     7
100
AcDbLine
 10
849.2595969890958
 20
830.5538827744497
 30
0.0
 11
815.9055314920999
 21
835.5410273360135
 31
0.0
  0
LINE
  5
4E0
330
AC
100
AcDbEntity
  8
FLAN1$0$1
  6
Continuous
 62
     7
100
AcDbLine
 10
815.9055314920999
 20
835.5410273360135
 30
0.0
 11
782.219411372585
 21
833.9252899348824
 31
0.0
  0
LINE
  5
4E1
330
AC
100
AcDbEntity
  8
FLAN1$0$1
  6
Continuous
 62
     7
100
AcDbLine
 10
782.219411372585
 20
833.9252899348824
 30
0.0
 11
749.4957753353494
 21
825.768762453266
 31
0.0
  0
LINE
  5
4E2
330
AC
100
AcDbEntity
  8
FLAN1$0$1
  6
Continuous
 62
     7
100
AcDbLine
 10
749.4957753353494
 20
825.768762453266
 30
0.0
 11
718.9921743616783
 21
811.3848956680495
 31
0.0
  0
LINE
  5
4E3
330
AC
100
AcDbEntity
  8
FLAN1$0$1
  6
Continuous
 62
     7
100
AcDbLine
 10
718.9921743616783
 20
811.3848956680495
 30
0.0
 11
691.8808447303726
 21
791.326453513223
 31
0.0
  0
LINE
  5
4E4
330
AC
100
AcDbEntity
  8
FLAN1$0$1
  6
Continuous
 62
     7
100
AcDbLine
 10
691.8808447303726
 20
791.326453513223
 30
0.0
 11
669.2036596349553
 21
766.3642706718929
 31
0.0
  0
LINE
  5
4E5
330
AC
100
AcDbEntity
  8
FLAN1$0$1
  6
Continuous
 62
     7
100
AcDbLine
 10
669.2036596349553
 20
766.3642706718929
 30
0.0
 11
651.832090581131
 21
737.4576298316979
 31
0.0
  0
LINE
  5
4E6
330
AC
100
AcDbEntity
  8
FLAN1$0$1
  6
Continuous
 62
     7
100
AcDbLine
 10
651.832090581131
 20
737.4576298316979
 30
0.0
 11
640.4337172255504
 21
705.7173969890956
 31
0.0
  0
LINE
  5
4E7
330
AC
100
AcDbEntity
  8
FLAN1$0$1
  6
Continuous
 62
     7
100
AcDbLine
 10
640.4337172255504
 20
705.7173969890956
 30
0.0
 11
635.4465726639864
 21
672.3633314920999
 31
0.0
  0
LINE
  5
4E8
330
AC
100
AcDbEntity
  8
FLAN1$0$1
  6
Continuous
 62
     7
100
AcDbLine
 10
635.4465726639864
 20
672.3633314920999
 30
0.0
 11
637.0623100651173
 21
638.6772113725847
 31
0.0
  0
LINE
  5
4E9
330
AC
100
AcDbEntity
  8
FLAN1$0$1
  6
Continuous
 62
     7
100
AcDbLine
 10
637.0623100651173
 20
638.6772113725847
 30
0.0
 11
645.2188375467337
 21
605.953575335349
 31
0.0
  0
LINE
  5
4EA
330
AC
100
AcDbEntity
  8
FLAN1$0$1
  6
Continuous
 62
     7
100
AcDbLine
 10
645.2188375467337
 20
605.953575335349
 30
0.0
 11
659.6027043319504
 21
575.4499743616779
 31
0.0
  0
LINE
  5
4EB
330
AC
100
AcDbEntity
  8
FLAN1$0$1
  6
Continuous
 62
     7
100
AcDbLine
 10
659.6027043319504
 20
575.4499743616779
 30
0.0
 11
679.6611464867769
 21
548.3386447303725
 31
0.0
  0
LINE
  5
4EC
330
AC
100
AcDbEntity
  8
FLAN1$0$1
  6
Continuous
 62
     7
100
AcDbLine
 10
679.6611464867769
 20
548.3386447303725
 30
0.0
 11
704.6233293281073
 21
525.6614596349552
 31
0.0
  0
LINE
  5
4ED
330
AC
100
AcDbEntity
  8
FLAN1$0$1
  6
Continuous
 62
     7
100
AcDbLine
 10
704.6233293281073
 20
525.6614596349552
 30
0.0
 11
733.5299701683025
 21
508.2898905811309
 31
0.0
  0
LINE
  5
4EE
330
AC
100
AcDbEntity
  8
FLAN1$0$1
  6
Continuous
 62
     7
100
AcDbLine
 10
733.5299701683025
 20
508.2898905811309
 30
0.0
 11
765.2702030109046
 21
496.8915172255501
 31
0.0
  0
LINE
  5
4EF
330
AC
100
AcDbEntity
  8
FLAN1$0$1
  6
Continuous
 62
     7
100
AcDbLine
 10
765.2702030109046
 20
496.8915172255501
 30
0.0
 11
798.6242685079005
 21
491.9043726639863
 31
0.0
  0
LINE
  5
4F0
330
AC
100
AcDbEntity
  8
FLAN1$0$1
  6
Continuous
 62
     7
100
AcDbLine
 10
798.6242685079005
 20
491.9043726639863
 30
0.0
 11
832.3103886274154
 21
493.5201100651173
 31
0.0
  0
LINE
  5
4F1
330
AC
100
AcDbEntity
  8
FLAN1$0$1
  6
Continuous
 62
     7
100
AcDbLine
 10
832.3103886274154
 20
493.5201100651173
 30
0.0
 11
865.0340246646511
 21
501.6766375467337
 31
0.0
  0
LINE
  5
4F2
330
AC
100
AcDbEntity
  8
FLAN1$0$1
  6
Continuous
 62
     7
100
AcDbLine
 10
865.0340246646511
 20
501.6766375467337
 30
0.0
 11
895.5376256383225
 21
516.0605043319507
 31
0.0
  0
LINE
  5
4F3
330
AC
100
AcDbEntity
  8
FLAN1$0$1
  6
Continuous
 62
     7
100
AcDbLine
 10
895.5376256383225
 20
516.0605043319507
 30
0.0
 11
922.648955269628
 21
536.1189464867772
 31
0.0
  0
LINE
  5
4F4
330
AC
100
AcDbEntity
  8
FLAN1$0$1
  6
Continuous
 62
     7
100
AcDbLine
 10
922.648955269628
 20
536.1189464867772
 30
0.0
 11
945.3261403650449
 21
561.0811293281074
 31
0.0
  0
LINE
  5
4F5
330
AC
100
AcDbEntity
  8
FLAN1$0$1
  6
Continuous
 62
     7
100
AcDbLine
 10
945.3261403650449
 20
561.0811293281074
 30
0.0
 11
962.6977094188687
 21
589.9877701683027
 31
0.0
  0
LINE
  5
4F6
330
AC
100
AcDbEntity
  8
FLAN1$0$1
  6
Continuous
 62
     7
100
AcDbLine
 10
962.6977094188687
 20
589.9877701683027
 30
0.0
 11
974.0960827744498
 21
621.7280030109051
 31
0.0
  0
LINE
  5
4F7
330
AC
100
AcDbEntity
  8
FLAN1$0$1
  6
Continuous
 62
     7
100
AcDbLine
 10
974.0960827744498
 20
621.7280030109051
 30
0.0
 11
979.0832273360138
 21
655.0820685079006
 31
0.0
  0
LINE
  5
4F8
330
AC
100
AcDbEntity
  8
FLAN1$0$1
  6
Continuous
 62
     7
100
AcDbLine
 10
979.0832273360138
 20
655.0820685079006
 30
0.0
 11
977.4674899348823
 21
688.7681886274159
 31
0.0
  0
LINE
  5
4F9
330
AC
100
AcDbEntity
  8
FLAN1$0$1
  6
Continuous
 62
     7
100
AcDbLine
 10
977.4674899348823
 20
688.7681886274159
 30
0.0
 11
969.3109624532658
 21
721.4918246646513
 31
0.0
  0
LINE
  5
4FA
330
AC
100
AcDbEntity
  8
FLAN1$0$1
  6
Continuous
 62
     7
100
AcDbLine
 10
969.3109624532658
 20
721.4918246646513
 30
0.0
 11
954.9270956680492
 21
751.9954256383226
 31
0.0
  0
LINE
  5
4FB
330
AC
100
AcDbEntity
  8
FLAN1$0$1
  6
Continuous
 62
     7
100
AcDbLine
 10
954.9270956680492
 20
751.9954256383226
 30
0.0
 11
934.8686535132223
 21
779.106755269628
 31
0.0
  0
LINE
  5
4FC
330
AC
100
AcDbEntity
  8
FLAN1$0$1
  6
Continuous
 62
     7
100
AcDbLine
 10
934.8686535132223
 20
779.106755269628
 30
0.0
 11
909.9064706718923
 21
801.7839403650452
 31
0.0
  0
LINE
  5
4FD
330
AC
100
AcDbEntity
  8
FLAN1$0$1
  6
Continuous
 62
     7
100
AcDbLine
 10
909.9064706718923
 20
801.7839403650452
 30
0.0
 11
880.9998298316982
 21
819.1555094188688
 31
0.0
  0
LINE
  5
506
330
AC
100
AcDbEntity
  8
3
  6
Continuous
 62
     3
100
AcDbLine
 10
807.2649000000001
 20
468.2279
 30
0.0
 11
1096.0539
 21
468.2279
 31
0.0
  0
LINE
  5
507
330
AC
100
AcDbEntity
  8
3
  6
Continuous
 62
     3
100
AcDbLine
 10
1002.7597
 20
663.7227
 30
0.0
 11
1096.0539
 21
663.7227
 31
0.0
  0
LINE
  5
508
330
AC
100
AcDbEntity
  8
2
  6
Continuous
 62
     3
100
AcDbLine
 10
1096.0539
 20
491.9404
 30
0.0
 11
1096.0539
 21
640.0102
 31
0.0
  0
LINE
  5
509
330
AC
100
AcDbEntity
  8
2
  6
Continuous
 62
     3
100
AcDbLine
 10
611.77
 20
663.7227
 30
0.0
 11
611.77
 21
957.2278999999999
 31
0.0
  0
LINE
  5
50A
330
AC
100
AcDbEntity
  8
2
  6
Continuous
 62
     3
100
AcDbLine
 10
1002.7597
 20
663.7227
 30
0.0
 11
1002.7597
 21
957.2278999999999
 31
0.0
  0
LINE
  5
50B
330
AC
100
AcDbEntity
  8
3
  6
Continuous
 62
     3
100
AcDbLine
 10
635.4824999999996
 20
957.2278999999999
 30
0.0
 11
979.0471999999999
 21
957.2278999999999
 31
0.0
  0
LINE
  5
50C
330
AC
100
AcDbEntity
  8
2
  6
Continuous
 62
     3
100
AcDbLine
 10
635.2294000000001
 20
379.5656999999998
 30
0.0
 11
635.2294000000001
 21
663.7227
 31
0.0
  0
LINE
  5
50D
330
AC
100
AcDbEntity
  8
2
  6
Continuous
 62
     3
100
AcDbLine
 10
979.3002999999998
 20
379.5656999999998
 30
0.0
 11
979.3002999999998
 21
663.7227
 31
0.0
  0
LINE
  5
50E
330
AC
100
AcDbEntity
  8
3
  6
Continuous
 62
     3
100
AcDbLine
 10
658.9419
 20
379.5656999999998
 30
0.0
 11
955.5877999999998
 21
379.5656999999998
 31
0.0
  0
LINE
  5
50F
330
AC
100
AcDbEntity
  8
3
  6
Continuous
 62
     3
100
AcDbLine
 10
719.2330999999999
 20
751.7545
 30
0.0
 11
702.3846999999996
 21
768.6028999999997
 31
0.0
  0
LINE
  5
510
330
AC
100
AcDbEntity
  8
3
  6
Continuous
 62
     3
100
AcDbLine
 10
652.2618999999997
 20
818.7256999999997
 30
0.0
 11
573.1593
 21
897.8283000000001
 31
0.0
  0
LINE
  5
511
330
AC
100
AcDbEntity
  8
2
  6
Continuous
 62
     3
100
AcDbLine
 10
647.6258999999997
 20
814.0897999999998
 30
0.0
 11
656.8978999999999
 21
823.3617
 31
0.0
  0
LINE
  5
512
330
AC
100
AcDbEntity
  8
2
  6
Continuous
 62
     3
100
AcDbLine
 10
647.6258999999997
 20
814.0897999999998
 30
0.0
 11
656.8978999999999
 21
823.3617
 31
0.0
  0
LINE
  5
513
330
AC
100
AcDbEntity
  8
2
  6
Continuous
 62
     3
100
AcDbLine
 10
669.0291999999997
 20
801.9584999999999
 30
0.0
 11
656.8978999999999
 21
823.3617
 31
0.0
  0
LINE
  5
514
330
AC
100
AcDbEntity
  8
2
  6
Continuous
 62
     3
100
AcDbLine
 10
669.0291999999997
 20
801.9584999999999
 30
0.0
 11
647.6258999999997
 21
814.0897999999998
 31
0.0
  0
LINE
  5
515
330
AC
100
AcDbEntity
  8
2
  6
Continuous
 62
     3
100
AcDbLine
 10
685.6174000000001
 20
785.3701999999997
 30
0.0
 11
707.0207
 21
773.2388999999997
 31
0.0
  0
LINE
  5
516
330
AC
100
AcDbEntity
  8
2
  6
Continuous
 62
     3
100
AcDbLine
 10
685.6174000000001
 20
785.3701999999997
 30
0.0
 11
697.7486999999999
 21
763.9669
 31
0.0
  0
LINE
  5
517
330
AC
100
AcDbEntity
  8
2
  6
Continuous
 62
     3
100
AcDbLine
 10
707.0207
 20
773.2388999999997
 30
0.0
 11
697.7486999999999
 21
763.9669
 31
0.0
  0
LINE
  5
518
330
AC
100
AcDbEntity
  8
2
  6
Continuous
 62
     3
100
AcDbLine
 10
707.0207
 20
773.2388999999997
 30
0.0
 11
697.7486999999999
 21
763.9669
 31
0.0
  0
LINE
  5
519
330
AC
100
AcDbEntity
  8
3
  6
Continuous
 62
     3
100
AcDbLine
 10
317.5880999999999
 20
897.8283000000001
 30
0.0
 11
573.1593
 21
897.8283000000001
 31
0.0
  0
LINE
  5
51A
330
AC
100
AcDbEntity
  8
2
  6
Continuous
 62
     3
100
AcDbLine
 10
611.77
 20
957.2278999999999
 30
0.0
 11
635.4824999999996
 21
963.7840999999999
 31
0.0
  0
LINE
  5
51B
330
AC
100
AcDbEntity
  8
2
  6
Continuous
 62
     3
100
AcDbLine
 10
611.77
 20
957.2278999999999
 30
0.0
 11
635.4824999999996
 21
950.6716
 31
0.0
  0
LINE
  5
51C
330
AC
100
AcDbEntity
  8
2
  6
Continuous
 62
     3
100
AcDbLine
 10
635.4824999999996
 20
950.6716
 30
0.0
 11
635.4824999999996
 21
963.7840999999999
 31
0.0
  0
LINE
  5
51D
330
AC
100
AcDbEntity
  8
2
  6
Continuous
 62
     3
100
AcDbLine
 10
635.4824999999996
 20
950.6716
 30
0.0
 11
635.4824999999996
 21
963.7840999999999
 31
0.0
  0
LINE
  5
51E
330
AC
100
AcDbEntity
  8
2
  6
Continuous
 62
     3
100
AcDbLine
 10
635.2294000000001
 20
379.5656999999998
 30
0.0
 11
658.9419
 21
386.1218999999999
 31
0.0
  0
LINE
  5
51F
330
AC
100
AcDbEntity
  8
2
  6
Continuous
 62
     3
100
AcDbLine
 10
635.2294000000001
 20
379.5656999999998
 30
0.0
 11
658.9419
 21
373.0094
 31
0.0
  0
LINE
  5
520
330
AC
100
AcDbEntity
  8
2
  6
Continuous
 62
     3
100
AcDbLine
 10
658.9419
 20
373.0094
 30
0.0
 11
658.9419
 21
386.1218999999999
 31
0.0
  0
LINE
  5
521
330
AC
100
AcDbEntity
  8
2
  6
Continuous
 62
     3
100
AcDbLine
 10
658.9419
 20
373.0094
 30
0.0
 11
658.9419
 21
386.1218999999999
 31
0.0
  0
LINE
  5
522
330
AC
100
AcDbEntity
  8
2
  6
Continuous
 62
     3
100
AcDbLine
 10
1002.7597
 20
957.2278999999999
 30
0.0
 11
979.0471999999999
 21
950.6716
 31
0.0
  0
LINE
  5
523
330
AC
100
AcDbEntity
  8
2
  6
Continuous
 62
     3
100
AcDbLine
 10
1002.7597
 20
957.2278999999999
 30
0.0
 11
979.0471999999999
 21
963.7840999999999
 31
0.0
  0
LINE
  5
524
330
AC
100
AcDbEntity
  8
2
  6
Continuous
 62
     3
100
AcDbLine
 10
979.0471999999999
 20
950.6716
 30
0.0
 11
979.0471999999999
 21
963.7840999999999
 31
0.0
  0
LINE
  5
525
330
AC
100
AcDbEntity
  8
2
  6
Continuous
 62
     3
100
AcDbLine
 10
979.3002999999998
 20
379.5656999999998
 30
0.0
 11
955.5877999999998
 21
373.0094
 31
0.0
  0
LINE
  5
526
330
AC
100
AcDbEntity
  8
2
  6
Continuous
 62
     3
100
AcDbLine
 10
979.3002999999998
 20
379.5656999999998
 30
0.0
 11
955.5877999999998
 21
386.1218999999999
 31
0.0
  0
LINE
  5
527
330
AC
100
AcDbEntity
  8
2
  6
Continuous
 62
     3
100
AcDbLine
 10
955.5877999999998
 20
373.0094
 30
0.0
 11
955.5877999999998
 21
386.1218999999999
 31
0.0
  0
LINE
  5
528
330
AC
100
AcDbEntity
  8
2
  6
Continuous
 62
     3
100
AcDbLine
 10
1096.0539
 20
468.2279
 30
0.0
 11
1102.6101
 21
491.9404
 31
0.0
  0
LINE
  5
529
330
AC
100
AcDbEntity
  8
2
  6
Continuous
 62
     3
100
AcDbLine
 10
1089.4976
 20
491.9404
 30
0.0
 11
1102.6101
 21
491.9404
 31
0.0
  0
LINE
  5
52A
330
AC
100
AcDbEntity
  8
2
  6
Continuous
 62
     3
100
AcDbLine
 10
1096.0539
 20
468.2279
 30
0.0
 11
1089.4976
 21
491.9404
 31
0.0
  0
LINE
  5
52B
330
AC
100
AcDbEntity
  8
2
  6
Continuous
 62
     3
100
AcDbLine
 10
1096.0539
 20
663.7227
 30
0.0
 11
1089.4976
 21
640.0102
 31
0.0
  0
LINE
  5
52C
330
AC
100
AcDbEntity
  8
2
  6
Continuous
 62
     3
100
AcDbLine
 10
1102.6101
 20
640.0102
 30
0.0
 11
1089.4976
 21
640.0102
 31
0.0
  0
LINE
  5
52D
330
AC
100
AcDbEntity
  8
2
  6
Continuous
 62
     3
100
AcDbLine
 10
1096.0539
 20
663.7227
 30
0.0
 11
1102.6101
 21
640.0102
 31
0.0
  0
LINE
  5
52E
330
AC
100
AcDbEntity
  8
1
  6
Continuous
 62
     5
100
AcDbLine
 10
827.2648999999999
 20
977.2278999999999
 30
0.0
 11
830.2649
 21
977.2278999999999
 31
0.0
  0
LINE
  5
52F
330
AC
100
AcDbEntity
  8
1
  6
Continuous
 62
     5
100
AcDbLine
 10
465.3736999999998
 20
919.8282999999999
 30
0.0
 11
469.3736999999998
 21
919.8282999999999
 31
0.0
  0
LINE
  5
530
330
AC
100
AcDbEntity
  8
1
  6
Continuous
 62
     5
100
AcDbLine
 10
1287.8362
 20
579.4190999999996
 30
0.0
 11
1292.836199999999
 21
579.4190999999996
 31
0.0
  0
LINE
  5
531
330
AC
100
AcDbEntity
  8
1
  6
Continuous
 62
     5
100
AcDbLine
 10
827.2648999999999
 20
399.5656999999998
 30
0.0
 11
833.2648999999999
 21
399.5656999999998
 31
0.0
  0
LINE
  5
532
330
AC
100
AcDbEntity
  8
3
  6
Continuous
 62
     3
100
AcDbLine
 10
1096.0539
 20
559.4190999999998
 30
0.0
 11
1396.433
 21
559.4190999999998
 31
0.0
  0
TEXT
  5
533
330
AC
100
AcDbEntity
  8
4
  6
Continuous
 62
     7
100
AcDbText
 10
717.1596
 20
915.1308
 30
0.0
 40
20.0
  1
Outside Diameter
 41
0.805545
  7
TXT
100
AcDbText
  0
TEXT
  5
534
330
AC
100
AcDbEntity
  8
4
  6
Continuous
 62
     7
100
AcDbText
 10
360.2699
 20
848.2825
 30
0.0
 40
20.0
  1
Wall Thickness
 41
0.7305550000000001
  7
TXT
100
AcDbText
  0
TEXT
  5
535
330
AC
100
AcDbEntity
  8
4
  6
Continuous
 62
     7
100
AcDbText
 10
727.9330999999997
 20
330.9238000000001
 30
0.0
 40
20.0
  1
Inside Diameter
 41
0.76424
  7
TXT
100
AcDbText
  0
TEXT
  5
536
330
AC
100
AcDbEntity
  8
4
  6
Continuous
 62
     7
100
AcDbText
 10
1192.6846
 20
517.8176999999998
 30
0.0
 40
20.0
  1
Outside Radius
 41
0.7839850000000002
  7
TXT
100
AcDbText
  0
TEXT
  5
537
330
AC
100
AcDbEntity
  8
4
  6
Continuous
 62
     7
100
AcDbText
 10
1070.8386
 20
156.4651
 30
0.0
 40
20.0
  1
inch4
 41
0.7306600000000003
  7
TXT
100
AcDbText
  0
TEXT
  5
538
330
AC
100
AcDbEntity
  8
4
  6
Continuous
 62
     7
100
AcDbText
 10
1070.8949
 20
238.1556999999999
 30
0.0
 40
20.0
  1
lb/ft
 41
0.64089
  7
TXT
100
AcDbText
  0
TEXT
  5
539
330
AC
100
AcDbEntity
  8
4
  6
Continuous
 62
     7
100
AcDbText
 10
1070.8386
 20
195.4538
 30
0.0
 40
20.0
  1
lb/ft
 41
0.64089
  7
TXT
100
AcDbText
  0
TEXT
  5
53A
330
AC
100
AcDbEntity
  8
4
  6
Continuous
 62
     7
100
AcDbText
 10
430.73
 20
194.5079999999999
 30
0.0
 40
20.0
  1
Weight Including Water
 41
0.7655250000000004
  7
TXT
100
AcDbText
  0
TEXT
  5
53B
330
AC
100
AcDbEntity
  8
4
  6
Continuous
 62
     7
100
AcDbText
 10
431.1015999999999
 20
156.7529999999998
 30
0.0
 40
20.0
  1
Moment of Inertia
 41
0.7697300000000002
  7
TXT
100
AcDbText
  0
TEXT
  5
53C
330
AC
100
AcDbEntity
  8
4
  6
Continuous
 62
     7
100
AcDbText
 10
431.1015999999999
 20
238.4434999999999
 30
0.0
 40
20.0
  1
Weight
 41
0.772925
  7
TXT
100
AcDbText
  0
LINE
  5
53E
330
AC
100
AcDbEntity
  8
1
  6
Continuous
 62
     4
100
AcDbLine
 10
743.2467049615861
 20
663.7227
 30
0.0
 11
582.1631905245622
 21
663.7227
 31
0.0
  0
ENDSEC
  0
SECTION
  2
OBJECTS
  0
DICTIONARY
  5
9A
330
0
100
AcDbDictionary
281
     1
  3
ACAD_COLOR
350
157
  3
ACAD_GROUP
350
9B
  3
ACAD_LAYOUT
350
A7
  3
ACAD_MATERIAL
350
12A
  3
ACAD_MLEADERSTYLE
350
17C
  3
ACAD_MLINESTYLE
350
A4
  3
ACAD_PLOTSETTINGS
350
A6
  3
ACAD_PLOTSTYLENAME
350
9C
  3
ACAD_SCALELIST
350
15A
  3
ACAD_TABLESTYLE
350
158
  3
ACAD_VISUALSTYLE
350
143
  3
ACDB_RECOMPOSE_DATA
350
541
  3
AcDbVariableDictionary
350
193
  3
DWGPROPS
350
542
  0
DICTIONARY
  5
187
330
9E
100
AcDbDictionary
280
     1
281
     1
  3
ADSK_XREC_LAYER_RECONCILED
360
188
  0
DICTIONARY
  5
189
330
B7
100
AcDbDictionary
280
     1
281
     1
  3
ADSK_XREC_LAYER_RECONCILED
360
18A
  0
DICTIONARY
  5
18B
330
B8
100
AcDbDictionary
280
     1
281
     1
  3
ADSK_XREC_LAYER_RECONCILED
360
18C
  0
DICTIONARY
  5
18D
330
B9
100
AcDbDictionary
280
     1
281
     1
  3
ADSK_XREC_LAYER_RECONCILED
360
18E
  0
DICTIONARY
  5
18F
330
BA
100
AcDbDictionary
280
     1
281
     1
  3
ADSK_XREC_LAYER_RECONCILED
360
190
  0
DICTIONARY
  5
191
330
BB
100
AcDbDictionary
280
     1
281
     1
  3
ADSK_XREC_LAYER_RECONCILED
360
192
  0
DICTIONARY
  5
2DF
330
2DE
100
AcDbDictionary
280
     1
281
     1
  0
DICTIONARY
  5
371
330
370
100
AcDbDictionary
280
     1
281
     1
  3
ADSK_XREC_LAYER_RECONCILED
360
372
  0
DICTIONARY
  5
38B
330
38A
100
AcDbDictionary
280
     1
281
     1
  0
DICTIONARY
  5
157
102
{ACAD_REACTORS
330
9A
102
}
330
9A
100
AcDbDictionary
281
     1
  0
DICTIONARY
  5
9B
102
{ACAD_REACTORS
330
9A
102
}
330
9A
100
AcDbDictionary
281
     1
  0
DICTIONARY
  5
A7
102
{ACAD_REACTORS
330
9A
102
}
330
9A
100
AcDbDictionary
281
     1
  3
Layout1
350
AB
  3
Model
350
AF
  0
DICTIONARY
  5
12A
102
{ACAD_REACTORS
330
9A
102
}
330
9A
100
AcDbDictionary
281
     1
  3
ByBlock
350
133
  3
ByLayer
350
12B
  3
Global
350
13B
  0
DICTIONARY
  5
17C
102
{ACAD_REACTORS
330
9A
102
}
330
9A
100
AcDbDictionary
281
     1
  3
Standard
350
17D
  0
DICTIONARY
  5
A4
102
{ACAD_REACTORS
330
9A
102
}
330
9A
100
AcDbDictionary
281
     1
  3
Standard
350
A5
  0
DICTIONARY
  5
A6
102
{ACAD_REACTORS
330
9A
102
}
330
9A
100
AcDbDictionary
281
     1
  0
ACDBDICTIONARYWDFLT
  5
9C
102
{ACAD_REACTORS
330
9A
102
}
330
9A
100
AcDbDictionary
281
     1
  3
Normal
350
9D
100
AcDbDictionaryWithDefault
340
9D
  0
DICTIONARY
  5
15A
102
{ACAD_REACTORS
330
9A
102
}
330
9A
100
AcDbDictionary
281
     1
  3
A0
350
15B
  3
A1
350
15C
  3
A2
350
15D
  3
A3
350
15E
  3
A4
350
15F
  3
A5
350
160
  3
A6
350
161
  3
A7
350
162
  3
A8
350
163
  3
A9
350
164
  3
B0
350
165
  3
B1
350
166
  3
B2
350
167
  3
B3
350
168
  3
B4
350
169
  3
B5
350
16A
  3
B6
350
16B
  3
B7
350
16C
  3
B8
350
16D
  3
B9
350
16E
  3
C0
350
16F
  3
C1
350
170
  3
C2
350
171
  3
C3
350
172
  3
C4
350
173
  3
C5
350
174
  3
C6
350
175
  3
C7
350
176
  3
C8
350
177
  3
C9
350
178
  3
D0
350
179
  3
D1
350
17A
  3
D2
350
17B
  0
DICTIONARY
  5
158
102
{ACAD_REACTORS
330
9A
102
}
330
9A
100
AcDbDictionary
281
     1
  3
Standard
350
159
  0
DICTIONARY
  5
143
102
{ACAD_REACTORS
330
9A
102
}
330
9A
100
AcDbDictionary
281
     1
  3
2dWireframe
350
149
  3
3D Hidden
350
14B
  3
3dWireframe
350
14A
  3
Basic
350
148
  3
Brighten
350
14F
  3
ColorChange
350
153
  3
Conceptual
350
14C
  3
Dim
350
14E
  3
EdgeColorOff
350
156
  3
Facepattern
350
152
  3
Flat
350
144
  3
FlatWithEdges
350
145
  3
Gouraud
350
146
  3
GouraudWithEdges
350
147
  3
JitterOff
350
154
  3
Linepattern
350
151
  3
OverhangOff
350
155
  3
Realistic
350
14D
  3
Thicken
350
150
  0
XRECORD
  5
541
102
{ACAD_REACTORS
330
9A
102
}
330
9A
100
AcDbXrecord
280
     1
 90
        1
330
159
  0
DICTIONARY
  5
193
102
{ACAD_REACTORS
330
9A
102
}
330
9A
100
AcDbDictionary
281
     1
  3
CANNOSCALE
350
196
  3
CMLEADERSTYLE
350
195
  3
CTABLESTYLE
350
194
  3
DIMASSOC
350
199
  3
INDEXCTL
350
198
  3
SORTENTS
350
197
  3
XCLIPFRAME
350
53F
  0
XRECORD
  5
542
102
{ACAD_REACTORS
330
9A
102
}
330
9A
100
AcDbXrecord
280
     1
  1
DWGPROPS COOKIE
  2

  3

  4

  6

  7

  8
johnb_000
  9

300
=
301
=
302
=
303
=
304
=
305
=
306
=
307
=
308
=
309
=
 40
0.2080765277777778
 41
2453311.985393519
 42
2457420.993386933
  1

 90
        0
  0
XRECORD
  5
188
102
{ACAD_REACTORS
330
187
102
}
330
187
100
AcDbXrecord
280
     1
290
     1
  0
XRECORD
  5
18A
102
{ACAD_REACTORS
330
189
102
}
330
189
100
AcDbXrecord
280
     1
290
     1
  0
XRECORD
  5
18C
102
{ACAD_REACTORS
330
18B
102
}
330
18B
100
AcDbXrecord
280
     1
290
     1
  0
XRECORD
  5
18E
102
{ACAD_REACTORS
330
18D
102
}
330
18D
100
AcDbXrecord
280
     1
290
     1
  0
XRECORD
  5
190
102
{ACAD_REACTORS
330
18F
102
}
330
18F
100
AcDbXrecord
280
     1
290
     1
  0
XRECORD
  5
192
102
{ACAD_REACTORS
330
191
102
}
330
191
100
AcDbXrecord
280
     1
290
     1
  0
XRECORD
  5
372
102
{ACAD_REACTORS
330
371
102
}
330
371
100
AcDbXrecord
280
     1
290
     1
  0
LAYOUT
  5
AB
102
{ACAD_XDICTIONARY
360
543
102
}
102
{ACAD_REACTORS
330
A7
102
}
330
A7
100
AcDbPlotSettings
  1

  2
HP DeskJet 840C/841C/842C/843C
  4

  6

 40
0.0
 41
0.0
 42
0.0
 43
0.0
 44
0.0
 45
0.0
 46
0.0
 47
0.0
 48
0.0
 49
0.0
140
0.0
141
0.0
142
1.0
143
1.0
 70
   688
 72
     0
 73
     0
 74
     5
  7

 75
    16
147
1.0
148
0.0
149
0.0
100
AcDbLayout
  1
Layout1
 70
     0
 71
     1
 10
0.0
 20
0.0
 11
12.0
 21
9.0
 12
0.0
 22
0.0
 32
0.0
 14
-1.000000000000000E+20
 24
-1.000000000000000E+20
 34
-1.000000000000000E+20
 15
-1.000000000000000E+20
 25
-1.000000000000000E+20
 35
-1.000000000000000E+20
146
0.0
 13
0.0
 23
0.0
 33
0.0
 16
1.0
 26
0.0
 36
0.0
 17
0.0
 27
1.0
 37
0.0
 76
     0
330
A8
  0
LAYOUT
  5
AF
102
{ACAD_XDICTIONARY
360
545
102
}
102
{ACAD_REACTORS
330
A7
102
}
330
A7
100
AcDbPlotSettings
  1

  2
HP DeskJet 840C/841C/842C/843C
  4

  6

 40
0.0
 41
0.0
 42
0.0
 43
0.0
 44
0.0
 45
0.0
 46
0.0
 47
0.0
 48
0.0
 49
0.0
140
0.0
141
0.0
142
1.0
143
1.0
 70
  1712
 72
     0
 73
     0
 74
     0
  7

 75
     0
147
1.0
148
0.0
149
0.0
100
AcDbLayout
  1
Model
 70
     1
 71
     0
 10
0.0
 20
0.0
 11
12.0
 21
9.0
 12
0.0
 22
0.0
 32
0.0
 14
0.0
 24
0.0
 34
0.0
 15
0.0
 25
0.0
 35
0.0
146
0.0
 13
0.0
 23
0.0
 33
0.0
 16
1.0
 26
0.0
 36
0.0
 17
0.0
 27
1.0
 37
0.0
 76
     0
330
AC
331
383
  0
MATERIAL
  5
133
102
{ACAD_XDICTIONARY
360
134
102
}
102
{ACAD_REACTORS
330
12A
102
}
330
12A
100
AcDbMaterial
  1
ByBlock
 72
     0
 43
0.0208333333333333
 43
0.0
 43
0.0
 43
0.0
 43
0.0
 43
0.0208333333333333
 43
0.0
 43
0.0
 43
0.0
 43
0.0
 43
1.0
 43
0.0
 43
0.0
 43
0.0
 43
0.0
 43
1.0
 77
     0
 47
0.0208333333333333
 47
0.0
 47
0.0
 47
0.0
 47
0.0
 47
0.0208333333333333
 47
0.0
 47
0.0
 47
0.0
 47
0.0
 47
1.0
 47
0.0
 47
0.0
 47
0.0
 47
0.0
 47
1.0
171
     0
 49
0.0208333333333333
 49
0.0
 49
0.0
 49
0.0
 49
0.0
 49
0.0208333333333333
 49
0.0
 49
0.0
 49
0.0
 49
0.0
 49
1.0
 49
0.0
 49
0.0
 49
0.0
 49
0.0
 49
1.0
175
     0
142
0.0208333333333333
142
0.0
142
0.0
142
0.0
142
0.0
142
0.0208333333333333
142
0.0
142
0.0
142
0.0
142
0.0
142
1.0
142
0.0
142
0.0
142
0.0
142
0.0
142
1.0
179
     0
144
0.0208333333333333
144
0.0
144
0.0
144
0.0
144
0.0
144
0.0208333333333333
144
0.0
144
0.0
144
0.0
144
0.0
144
1.0
144
0.0
144
0.0
144
0.0
144
0.0
144
1.0
147
0.0208333333333333
147
0.0
147
0.0
147
0.0
147
0.0
147
0.0208333333333333
147
0.0
147
0.0
147
0.0
147
0.0
147
1.0
147
0.0
147
0.0
147
0.0
147
0.0
147
1.0
  0
MATERIAL
  5
12B
102
{ACAD_XDICTIONARY
360
12C
102
}
102
{ACAD_REACTORS
330
12A
102
}
330
12A
100
AcDbMaterial
  1
ByLayer
 72
     0
 43
0.0208333333333333
 43
0.0
 43
0.0
 43
0.0
 43
0.0
 43
0.0208333333333333
 43
0.0
 43
0.0
 43
0.0
 43
0.0
 43
1.0
 43
0.0
 43
0.0
 43
0.0
 43
0.0
 43
1.0
 77
     0
 47
0.0208333333333333
 47
0.0
 47
0.0
 47
0.0
 47
0.0
 47
0.0208333333333333
 47
0.0
 47
0.0
 47
0.0
 47
0.0
 47
1.0
 47
0.0
 47
0.0
 47
0.0
 47
0.0
 47
1.0
171
     0
 49
0.0208333333333333
 49
0.0
 49
0.0
 49
0.0
 49
0.0
 49
0.0208333333333333
 49
0.0
 49
0.0
 49
0.0
 49
0.0
 49
1.0
 49
0.0
 49
0.0
 49
0.0
 49
0.0
 49
1.0
175
     0
142
0.0208333333333333
142
0.0
142
0.0
142
0.0
142
0.0
142
0.0208333333333333
142
0.0
142
0.0
142
0.0
142
0.0
142
1.0
142
0.0
142
0.0
142
0.0
142
0.0
142
1.0
179
     0
144
0.0208333333333333
144
0.0
144
0.0
144
0.0
144
0.0
144
0.0208333333333333
144
0.0
144
0.0
144
0.0
144
0.0
144
1.0
144
0.0
144
0.0
144
0.0
144
0.0
144
1.0
147
0.0208333333333333
147
0.0
147
0.0
147
0.0
147
0.0
147
0.0208333333333333
147
0.0
147
0.0
147
0.0
147
0.0
147
1.0
147
0.0
147
0.0
147
0.0
147
0.0
147
1.0
  0
MATERIAL
  5
13B
102
{ACAD_XDICTIONARY
360
13C
102
}
102
{ACAD_REACTORS
330
12A
102
}
330
12A
100
AcDbMaterial
  1
Global
 72
     0
 43
0.0208333333333333
 43
0.0
 43
0.0
 43
0.0
 43
0.0
 43
0.0208333333333333
 43
0.0
 43
0.0
 43
0.0
 43
0.0
 43
1.0
 43
0.0
 43
0.0
 43
0.0
 43
0.0
 43
1.0
 77
     0
 47
0.0208333333333333
 47
0.0
 47
0.0
 47
0.0
 47
0.0
 47
0.0208333333333333
 47
0.0
 47
0.0
 47
0.0
 47
0.0
 47
1.0
 47
0.0
 47
0.0
 47
0.0
 47
0.0
 47
1.0
171
     0
 49
0.0208333333333333
 49
0.0
 49
0.0
 49
0.0
 49
0.0
 49
0.0208333333333333
 49
0.0
 49
0.0
 49
0.0
 49
0.0
 49
1.0
 49
0.0
 49
0.0
 49
0.0
 49
0.0
 49
1.0
175
     0
142
0.0208333333333333
142
0.0
142
0.0
142
0.0
142
0.0
142
0.0208333333333333
142
0.0
142
0.0
142
0.0
142
0.0
142
1.0
142
0.0
142
0.0
142
0.0
142
0.0
142
1.0
179
     0
144
0.0208333333333333
144
0.0
144
0.0
144
0.0
144
0.0
144
0.0208333333333333
144
0.0
144
0.0
144
0.0
144
0.0
144
1.0
144
0.0
144
0.0
144
0.0
144
0.0
144
1.0
147
0.0208333333333333
147
0.0
147
0.0
147
0.0
147
0.0
147
0.0208333333333333
147
0.0
147
0.0
147
0.0
147
0.0
147
1.0
147
0.0
147
0.0
147
0.0
147
0.0
147
1.0
  0
MLEADERSTYLE
  5
17D
102
{ACAD_REACTORS
330
17C
102
}
330
17C
100
AcDbMLeaderStyle
170
     2
171
     1
172
     0
 90
        2
 40
0.0
 41
0.0
173
     1
 91
-1056964608
340
A1
 92
       -2
290
     1
 42
0.09
291
     1
 43
0.36
  3
Standard
 44
0.18
300

342
9F
174
     1
178
     6
175
     1
176
     0
 93
-1056964608
 45
0.18
292
     0
297
     0
 46
0.18
 94
-1056964608
 47
1.0
 49
1.0
140
1.0
293
     1
141
0.0
294
     1
177
     0
142
1.0
295
     0
296
     0
143
0.125
1001
ACAD_MLEADERVER
1070
     2
  0
MLINESTYLE
  5
A5
102
{ACAD_REACTORS
330
A4
102
}
330
A4
100
AcDbMlineStyle
  2
STANDARD
 70
     0
  3

 62
   256
 51
90.0
 52
90.0
 71
     2
 49
0.5
 62
   256
  6
BYLAYER
 49
-0.5
 62
   256
  6
BYLAYER
  0
ACDBPLACEHOLDER
  5
9D
102
{ACAD_REACTORS
330
9C
102
}
330
9C
  0
SCALE
  5
15B
102
{ACAD_REACTORS
330
15A
102
}
330
15A
100
AcDbScale
 70
     0
300
1:1
140
1.0
141
1.0
290
     1
  0
SCALE
  5
15C
102
{ACAD_REACTORS
330
15A
102
}
330
15A
100
AcDbScale
 70
     0
300
1:2
140
1.0
141
2.0
290
     0
  0
SCALE
  5
15D
102
{ACAD_REACTORS
330
15A
102
}
330
15A
100
AcDbScale
 70
     0
300
1:4
140
1.0
141
4.0
290
     0
  0
SCALE
  5
15E
102
{ACAD_REACTORS
330
15A
102
}
330
15A
100
AcDbScale
 70
     0
300
1:5
140
1.0
141
5.0
290
     0
  0
SCALE
  5
15F
102
{ACAD_REACTORS
330
15A
102
}
330
15A
100
AcDbScale
 70
     0
300
1:8
140
1.0
141
8.0
290
     0
  0
SCALE
  5
160
102
{ACAD_REACTORS
330
15A
102
}
330
15A
100
AcDbScale
 70
     0
300
1:10
140
1.0
141
10.0
290
     0
  0
SCALE
  5
161
102
{ACAD_REACTORS
330
15A
102
}
330
15A
100
AcDbScale
 70
     0
300
1:16
140
1.0
141
16.0
290
     0
  0
SCALE
  5
162
102
{ACAD_REACTORS
330
15A
102
}
330
15A
100
AcDbScale
 70
     0
300
1:20
140
1.0
141
20.0
290
     0
  0
SCALE
  5
163
102
{ACAD_REACTORS
330
15A
102
}
330
15A
100
AcDbScale
 70
     0
300
1:30
140
1.0
141
30.0
290
     0
  0
SCALE
  5
164
102
{ACAD_REACTORS
330
15A
102
}
330
15A
100
AcDbScale
 70
     0
300
1:40
140
1.0
141
40.0
290
     0
  0
SCALE
  5
165
102
{ACAD_REACTORS
330
15A
102
}
330
15A
100
AcDbScale
 70
     0
300
1:50
140
1.0
141
50.0
290
     0
  0
SCALE
  5
166
102
{ACAD_REACTORS
330
15A
102
}
330
15A
100
AcDbScale
 70
     0
300
1:100
140
1.0
141
100.0
290
     0
  0
SCALE
  5
167
102
{ACAD_REACTORS
330
15A
102
}
330
15A
100
AcDbScale
 70
     0
300
2:1
140
2.0
141
1.0
290
     0
  0
SCALE
  5
168
102
{ACAD_REACTORS
330
15A
102
}
330
15A
100
AcDbScale
 70
     0
300
4:1
140
4.0
141
1.0
290
     0
  0
SCALE
  5
169
102
{ACAD_REACTORS
330
15A
102
}
330
15A
100
AcDbScale
 70
     0
300
8:1
140
8.0
141
1.0
290
     0
  0
SCALE
  5
16A
102
{ACAD_REACTORS
330
15A
102
}
330
15A
100
AcDbScale
 70
     0
300
10:1
140
10.0
141
1.0
290
     0
  0
SCALE
  5
16B
102
{ACAD_REACTORS
330
15A
102
}
330
15A
100
AcDbScale
 70
     0
300
100:1
140
100.0
141
1.0
290
     0
  0
SCALE
  5
16C
102
{ACAD_REACTORS
330
15A
102
}
330
15A
100
AcDbScale
 70
     0
300
1/128" = 1'-0"
140
0.0078125
141
12.0
290
     0
  0
SCALE
  5
16D
102
{ACAD_REACTORS
330
15A
102
}
330
15A
100
AcDbScale
 70
     0
300
1/64" = 1'-0"
140
0.015625
141
12.0
290
     0
  0
SCALE
  5
16E
102
{ACAD_REACTORS
330
15A
102
}
330
15A
100
AcDbScale
 70
     0
300
1/32" = 1'-0"
140
0.03125
141
12.0
290
     0
  0
SCALE
  5
16F
102
{ACAD_REACTORS
330
15A
102
}
330
15A
100
AcDbScale
 70
     0
300
1/16" = 1'-0"
140
0.0625
141
12.0
290
     0
  0
SCALE
  5
170
102
{ACAD_REACTORS
330
15A
102
}
330
15A
100
AcDbScale
 70
     0
300
3/32" = 1'-0"
140
0.09375
141
12.0
290
     0
  0
SCALE
  5
171
102
{ACAD_REACTORS
330
15A
102
}
330
15A
100
AcDbScale
 70
     0
300
1/8" = 1'-0"
140
0.125
141
12.0
290
     0
  0
SCALE
  5
172
102
{ACAD_REACTORS
330
15A
102
}
330
15A
100
AcDbScale
 70
     0
300
3/16" = 1'-0"
140
0.1875
141
12.0
290
     0
  0
SCALE
  5
173
102
{ACAD_REACTORS
330
15A
102
}
330
15A
100
AcDbScale
 70
     0
300
1/4" = 1'-0"
140
0.25
141
12.0
290
     0
  0
SCALE
  5
174
102
{ACAD_REACTORS
330
15A
102
}
330
15A
100
AcDbScale
 70
     0
300
3/8" = 1'-0"
140
0.375
141
12.0
290
     0
  0
SCALE
  5
175
102
{ACAD_REACTORS
330
15A
102
}
330
15A
100
AcDbScale
 70
     0
300
1/2" = 1'-0"
140
0.5
141
12.0
290
     0
  0
SCALE
  5
176
102
{ACAD_REACTORS
330
15A
102
}
330
15A
100
AcDbScale
 70
     0
300
3/4" = 1'-0"
140
0.75
141
12.0
290
     0
  0
SCALE
  5
177
102
{ACAD_REACTORS
330
15A
102
}
330
15A
100
AcDbScale
 70
     0
300
1" = 1'-0"
140
1.0
141
12.0
290
     0
  0
SCALE
  5
178
102
{ACAD_REACTORS
330
15A
102
}
330
15A
100
AcDbScale
 70
     0
300
1-1/2" = 1'-0"
140
1.5
141
12.0
290
     0
  0
SCALE
  5
179
102
{ACAD_REACTORS
330
15A
102
}
330
15A
100
AcDbScale
 70
     0
300
3" = 1'-0"
140
3.0
141
12.0
290
     0
  0
SCALE
  5
17A
102
{ACAD_REACTORS
330
15A
102
}
330
15A
100
AcDbScale
 70
     0
300
6" = 1'-0"
140
6.0
141
12.0
290
     0
  0
SCALE
  5
17B
102
{ACAD_REACTORS
330
15A
102
}
330
15A
100
AcDbScale
 70
     0
300
1'-0" = 1'-0"
140
12.0
141
12.0
290
     0
  0
TABLESTYLE
  5
159
102
{ACAD_XDICTIONARY
360
19B
102
}
102
{ACAD_REACTORS
330
158
102
}
330
158
100
AcDbTableStyle
  3
Standard
 70
     0
 71
     0
 40
0.06
 41
0.06
280
     0
281
     0
  7
STANDARD
140
0.18
170
     2
 62
     0
 63
     7
283
     0
274
    -2
284
     1
 64
     0
275
    -2
285
     1
 65
     0
276
    -2
286
     1
 66
     0
277
    -2
287
     1
 67
     0
278
    -2
288
     1
 68
     0
279
    -2
289
     1
 69
     0
  7
STANDARD
140
0.25
170
     5
 62
     0
 63
     7
283
     0
274
    -2
284
     1
 64
     0
275
    -2
285
     1
 65
     0
276
    -2
286
     1
 66
     0
277
    -2
287
     1
 67
     0
278
    -2
288
     1
 68
     0
279
    -2
289
     1
 69
     0
  7
STANDARD
140
0.18
170
     5
 62
     0
 63
     7
283
     0
274
    -2
284
     1
 64
     0
275
    -2
285
     1
 65
     0
276
    -2
286
     1
 66
     0
277
    -2
287
     1
 67
     0
278
    -2
288
     1
 68
     0
279
    -2
289
     1
 69
     0
  0
VISUALSTYLE
  5
149
102
{ACAD_XDICTIONARY
360
551
102
}
102
{ACAD_REACTORS
330
143
102
}
330
143
100
AcDbVisualStyle
  2

 70
     4
 71
     0
 72
     2
 73
     0
 90
        0
 40
-0.6
 41
-30.0
 62
     5
 63
     7
 74
     1
 91
        4
 64
     7
 65
   257
 75
     1
175
     1
 42
1.0
 92
        0
 66
   257
 43
1.0
 76
     1
 77
     6
 78
     2
 67
     7
 79
     5
170
     0
171
     0
290
     0
174
     0
 93
        1
 44
0.0
173
     0
291
     0
 45
0.0
1001
ACAD
1000
AcDbSavedByObjectVersion
1070
     0
  0
VISUALSTYLE
  5
14B
102
{ACAD_XDICTIONARY
360
555
102
}
102
{ACAD_REACTORS
330
143
102
}
330
143
100
AcDbVisualStyle
  2

 70
     6
 71
     1
 72
     2
 73
     2
 90
        0
 40
-0.6
 41
-30.0
 62
     5
 63
     7
 74
     2
 91
        2
 64
     7
 65
   257
 75
     2
175
     1
 42
179.0
 92
        0
 66
   257
 43
1.0
 76
     1
 77
     6
 78
     2
 67
     7
 79
     3
170
     0
171
     0
290
     0
174
     0
 93
        1
 44
0.0
173
     0
291
     0
 45
0.0
1001
ACAD
1000
AcDbSavedByObjectVersion
1070
     0
  0
VISUALSTYLE
  5
14A
102
{ACAD_XDICTIONARY
360
553
102
}
102
{ACAD_REACTORS
330
143
102
}
330
143
100
AcDbVisualStyle
  2

 70
     5
 71
     0
 72
     2
 73
     0
 90
        0
 40
-0.6
 41
-30.0
 62
     5
 63
     7
 74
     1
 91
        4
 64
     7
 65
   257
 75
     1
175
     1
 42
1.0
 92
        0
 66
   257
 43
1.0
 76
     1
 77
     6
 78
     2
 67
     7
 79
     5
170
     0
171
     0
290
     0
174
     0
 93
        1
 44
0.0
173
     0
291
     0
 45
0.0
1001
ACAD
1000
AcDbSavedByObjectVersion
1070
     0
  0
VISUALSTYLE
  5
148
102
{ACAD_XDICTIONARY
360
54F
102
}
102
{ACAD_REACTORS
330
143
102
}
330
143
100
AcDbVisualStyle
  2

 70
     7
 71
     1
 72
     0
 73
     1
 90
        0
 40
-0.6
 41
-30.0
 62
     5
 63
     7
 74
     0
 91
        4
 64
     7
 65
   257
 75
     1
175
     1
 42
1.0
 92
        8
 66
     7
 43
1.0
 76
     1
 77
     6
 78
     2
 67
     7
 79
     5
170
     0
171
     0
290
     0
174
     0
 93
        1
 44
0.0
173
     0
291
     1
 45
0.0
1001
ACAD
1000
AcDbSavedByObjectVersion
1070
     0
  0
VISUALSTYLE
  5
14F
102
{ACAD_XDICTIONARY
360
55D
102
}
102
{ACAD_REACTORS
330
143
102
}
330
143
100
AcDbVisualStyle
  2

 70
    12
 71
     2
 72
     2
 73
     0
 90
        0
 40
-0.6
 41
-30.0
 62
     5
 63
     7
 74
     1
 91
        4
 64
     7
 65
   257
 75
     1
175
     1
 42
1.0
 92
        8
 66
     7
 43
1.0
 76
     1
 77
     6
 78
     2
 67
     7
 79
     5
170
     0
171
     0
290
     0
174
     0
 93
        1
 44
50.0
173
     0
291
     1
 45
0.0
1001
ACAD
1000
AcDbSavedByObjectVersion
1070
     0
  0
VISUALSTYLE
  5
153
102
{ACAD_XDICTIONARY
360
565
102
}
102
{ACAD_REACTORS
330
143
102
}
330
143
100
AcDbVisualStyle
  2

 70
    16
 71
     2
 72
     2
 73
     3
 90
        0
 40
-0.6
 41
-30.0
 62
     5
 63
     8
 74
     1
 91
        4
 64
     7
 65
   257
 75
     1
175
     1
 42
1.0
 92
        8
 66
     8
 43
1.0
 76
     1
 77
     6
 78
     2
 67
     7
 79
     5
170
     0
171
     0
290
     0
174
     0
 93
        1
 44
0.0
173
     0
291
     1
 45
0.0
1001
ACAD
1000
AcDbSavedByObjectVersion
1070
     0
  0
VISUALSTYLE
  5
14C
102
{ACAD_XDICTIONARY
360
557
102
}
102
{ACAD_REACTORS
330
143
102
}
330
143
100
AcDbVisualStyle
  2

 70
     9
 71
     3
 72
     2
 73
     0
 90
        0
 40
-0.6
 41
-30.0
 62
     5
 63
     7
 74
     2
 91
        2
 64
     7
 65
   257
 75
     1
175
     1
 42
179.0
 92
        8
 66
     7
 43
1.0
 76
     1
 77
     6
 78
     2
 67
     7
 79
     3
170
     0
171
     0
290
     0
174
     0
 93
        1
 44
0.0
173
     0
291
     0
 45
0.0
1001
ACAD
1000
AcDbSavedByObjectVersion
1070
     0
  0
VISUALSTYLE
  5
14E
102
{ACAD_XDICTIONARY
360
55B
102
}
102
{ACAD_REACTORS
330
143
102
}
330
143
100
AcDbVisualStyle
  2

 70
    11
 71
     2
 72
     2
 73
     0
 90
        0
 40
-0.6
 41
-30.0
 62
     5
 63
     7
 74
     1
 91
        4
 64
     7
 65
   257
 75
     1
175
     1
 42
1.0
 92
        8
 66
     7
 43
1.0
 76
     1
 77
     6
 78
     2
 67
     7
 79
     5
170
     0
171
     0
290
     0
174
     0
 93
        1
 44
-50.0
173
     0
291
     1
 45
0.0
1001
ACAD
1000
AcDbSavedByObjectVersion
1070
     0
  0
VISUALSTYLE
  5
156
102
{ACAD_XDICTIONARY
360
56B
102
}
102
{ACAD_REACTORS
330
143
102
}
330
143
100
AcDbVisualStyle
  2

 70
    22
 71
     2
 72
     2
 73
     0
 90
        0
 40
-0.6
 41
-30.0
 62
     5
 63
     7
 74
     1
 91
        4
 64
     7
 65
   257
 75
     1
175
     1
 42
1.0
 92
        8
 66
     7
 43
1.0
 76
     1
 77
     6
 78
     2
 67
     7
 79
     5
170
     0
171
     0
290
     0
174
     0
 93
        1
 44
0.0
173
     0
291
     1
 45
0.0
1001
ACAD
1000
AcDbSavedByObjectVersion
1070
     0
  0
VISUALSTYLE
  5
152
102
{ACAD_XDICTIONARY
360
563
102
}
102
{ACAD_REACTORS
330
143
102
}
330
143
100
AcDbVisualStyle
  2

 70
    15
 71
     2
 72
     2
 73
     0
 90
        0
 40
-0.6
 41
-30.0
 62
     5
 63
     7
 74
     1
 91
        4
 64
     7
 65
   257
 75
     1
175
     1
 42
1.0
 92
        8
 66
     7
 43
1.0
 76
     1
 77
     6
 78
     2
 67
     7
 79
     5
170
     0
171
     0
290
     0
174
     0
 93
        1
 44
0.0
173
     0
291
     1
 45
0.0
1001
ACAD
1000
AcDbSavedByObjectVersion
1070
     0
  0
VISUALSTYLE
  5
144
102
{ACAD_XDICTIONARY
360
547
102
}
102
{ACAD_REACTORS
330
143
102
}
330
143
100
AcDbVisualStyle
  2

 70
     0
 71
     2
 72
     1
 73
     1
 90
        2
 40
-0.6
 41
30.0
 62
     5
 63
     7
 74
     0
 91
        4
 64
     7
 65
   257
 75
     1
175
     1
 42
1.0
 92
        8
 66
     7
 43
1.0
 76
     1
 77
     6
 78
     2
 67
     7
 79
     5
170
     0
171
     0
290
     0
174
     0
 93
       13
 44
0.0
173
     0
291
     1
 45
0.0
1001
ACAD
1000
AcDbSavedByObjectVersion
1070
     0
  0
VISUALSTYLE
  5
145
102
{ACAD_XDICTIONARY
360
549
102
}
102
{ACAD_REACTORS
330
143
102
}
330
143
100
AcDbVisualStyle
  2

 70
     1
 71
     2
 72
     1
 73
     1
 90
        2
 40
-0.6
 41
30.0
 62
     5
 63
     7
 74
     1
 91
        4
 64
     7
 65
   257
 75
     1
175
     1
 42
1.0
 92
        0
 66
   257
 43
1.0
 76
     1
 77
     6
 78
     2
 67
     7
 79
     5
170
     0
171
     0
290
     0
174
     0
 93
       13
 44
0.0
173
     0
291
     1
 45
0.0
1001
ACAD
1000
AcDbSavedByObjectVersion
1070
     0
  0
VISUALSTYLE
  5
146
102
{ACAD_XDICTIONARY
360
54B
102
}
102
{ACAD_REACTORS
330
143
102
}
330
143
100
AcDbVisualStyle
  2

 70
     2
 71
     2
 72
     2
 73
     1
 90
        2
 40
-0.6
 41
30.0
 62
     5
 63
     7
 74
     0
 91
        4
 64
     7
 65
   257
 75
     1
175
     1
 42
1.0
 92
        0
 66
     7
 43
1.0
 76
     1
 77
     6
 78
     2
 67
     7
 79
     5
170
     0
171
     0
290
     0
174
     0
 93
       13
 44
0.0
173
     0
291
     1
 45
0.0
1001
ACAD
1000
AcDbSavedByObjectVersion
1070
     0
  0
VISUALSTYLE
  5
147
102
{ACAD_XDICTIONARY
360
54D
102
}
102
{ACAD_REACTORS
330
143
102
}
330
143
100
AcDbVisualStyle
  2

 70
     3
 71
     2
 72
     2
 73
     1
 90
        2
 40
-0.6
 41
30.0
 62
     5
 63
     7
 74
     1
 91
        4
 64
     7
 65
   257
 75
     1
175
     1
 42
1.0
 92
        0
 66
   257
 43
1.0
 76
     1
 77
     6
 78
     2
 67
     7
 79
     5
170
     0
171
     0
290
     0
174
     0
 93
       13
 44
0.0
173
     0
291
     1
 45
0.0
1001
ACAD
1000
AcDbSavedByObjectVersion
1070
     0
  0
VISUALSTYLE
  5
154
102
{ACAD_XDICTIONARY
360
567
102
}
102
{ACAD_REACTORS
330
143
102
}
330
143
100
AcDbVisualStyle
  2

 70
    20
 71
     2
 72
     2
 73
     0
 90
        0
 40
-0.6
 41
-30.0
 62
     5
 63
     7
 74
     1
 91
        4
 64
     7
 65
   257
 75
     1
175
     1
 42
1.0
 92
       10
 66
     7
 43
1.0
 76
     1
 77
     6
 78
     2
 67
     7
 79
     5
170
     0
171
     0
290
     0
174
     0
 93
        1
 44
0.0
173
     0
291
     1
 45
0.0
1001
ACAD
1000
AcDbSavedByObjectVersion
1070
     0
  0
VISUALSTYLE
  5
151
102
{ACAD_XDICTIONARY
360
561
102
}
102
{ACAD_REACTORS
330
143
102
}
330
143
100
AcDbVisualStyle
  2

 70
    14
 71
     2
 72
     2
 73
     0
 90
        0
 40
-0.6
 41
-30.0
 62
     5
 63
     7
 74
     1
 91
        4
 64
     7
 65
   257
 75
     7
175
     7
 42
1.0
 92
        8
 66
     7
 43
1.0
 76
     1
 77
     6
 78
     2
 67
     7
 79
     5
170
     0
171
     0
290
     0
174
     0
 93
        1
 44
0.0
173
     0
291
     1
 45
0.0
1001
ACAD
1000
AcDbSavedByObjectVersion
1070
     0
  0
VISUALSTYLE
  5
155
102
{ACAD_XDICTIONARY
360
569
102
}
102
{ACAD_REACTORS
330
143
102
}
330
143
100
AcDbVisualStyle
  2

 70
    21
 71
     2
 72
     2
 73
     0
 90
        0
 40
-0.6
 41
-30.0
 62
     5
 63
     7
 74
     1
 91
        4
 64
     7
 65
   257
 75
     1
175
     1
 42
1.0
 92
        9
 66
     7
 43
1.0
 76
     1
 77
     6
 78
     2
 67
     7
 79
     5
170
     0
171
     0
290
     0
174
     0
 93
        1
 44
0.0
173
     0
291
     1
 45
0.0
1001
ACAD
1000
AcDbSavedByObjectVersion
1070
     0
  0
VISUALSTYLE
  5
14D
102
{ACAD_XDICTIONARY
360
559
102
}
102
{ACAD_REACTORS
330
143
102
}
330
143
100
AcDbVisualStyle
  2

 70
     8
 71
     2
 72
     2
 73
     0
 90
        0
 40
-0.6
 41
-30.0
 62
     5
 63
     7
 74
     1
 91
        0
 64
     7
 65
   257
 75
     1
175
     1
 42
1.0
 92
        8
 66
     8
 43
1.0
 76
     1
 77
     6
 78
     2
 67
     7
 79
     5
170
     0
171
     0
290
     0
174
     0
 93
       13
 44
0.0
173
     0
291
     0
 45
0.0
1001
ACAD
1000
AcDbSavedByObjectVersion
1070
     0
  0
VISUALSTYLE
  5
150
102
{ACAD_XDICTIONARY
360
55F
102
}
102
{ACAD_REACTORS
330
143
102
}
330
143
100
AcDbVisualStyle
  2

 70
    13
 71
     2
 72
     2
 73
     0
 90
        0
 40
-0.6
 41
-30.0
 62
     5
 63
     7
 74
     1
 91
        4
 64
     7
 65
   257
 75
     1
175
     1
 42
1.0
 92
       12
 66
     7
 43
1.0
 76
     1
 77
     6
 78
     2
 67
     7
 79
     5
170
     0
171
     0
290
     0
174
     0
 93
        1
 44
0.0
173
     0
291
     1
 45
0.0
1001
ACAD
1000
AcDbSavedByObjectVersion
1070
     0
  0
DICTIONARYVAR
  5
196
102
{ACAD_REACTORS
330
193
102
}
330
193
100
DictionaryVariables
280
     0
  1
1:1
  0
DICTIONARYVAR
  5
195
102
{ACAD_REACTORS
330
193
102
}
330
193
100
DictionaryVariables
280
     0
  1
STANDARD
  0
DICTIONARYVAR
  5
194
102
{ACAD_REACTORS
330
193
102
}
330
193
100
DictionaryVariables
280
     0
  1
STANDARD
  0
DICTIONARYVAR
  5
199
102
{ACAD_REACTORS
330
193
102
}
330
193
100
DictionaryVariables
280
     0
  1
1
  0
DICTIONARYVAR
  5
198
102
{ACAD_REACTORS
330
193
102
}
330
193
100
DictionaryVariables
280
     0
  1
0
  0
DICTIONARYVAR
  5
197
102
{ACAD_REACTORS
330
193
102
}
330
193
100
DictionaryVariables
280
     0
  1
127
  0
DICTIONARYVAR
  5
53F
102
{ACAD_REACTORS
330
193
102
}
330
193
100
DictionaryVariables
280
     0
  1
2
  0
DICTIONARY
  5
543
330
AB
100
AcDbDictionary
280
     1
281
     1
  3
ACAD_XREC_ROUNDTRIP
360
544
  0
DICTIONARY
  5
545
330
AF
100
AcDbDictionary
280
     1
281
     1
  3
ACAD_XREC_ROUNDTRIP
360
546
  0
DICTIONARY
  5
134
330
133
100
AcDbDictionary
280
     1
281
     1
  3
ACAD_XREC_ROUNDTRIP
360
1A4
  3
BUMPTILE
360
136
  3
DIFFUSETILE
360
135
  3
OPACITYTILE
360
139
  3
REFLECTIONTILE
360
138
  3
REFRACTIONTILE
360
13A
  3
SPECULARTILE
360
137
  0
DICTIONARY
  5
12C
330
12B
100
AcDbDictionary
280
     1
281
     1
  3
ACAD_XREC_ROUNDTRIP
360
1A3
  3
BUMPTILE
360
12E
  3
DIFFUSETILE
360
12D
  3
OPACITYTILE
360
131
  3
REFLECTIONTILE
360
130
  3
REFRACTIONTILE
360
132
  3
SPECULARTILE
360
12F
  0
DICTIONARY
  5
13C
330
13B
100
AcDbDictionary
280
     1
281
     1
  3
ACAD_XREC_ROUNDTRIP
360
1A5
  3
BUMPTILE
360
13E
  3
DIFFUSETILE
360
13D
  3
OPACITYTILE
360
141
  3
REFLECTIONTILE
360
140
  3
REFRACTIONTILE
360
142
  3
SPECULARTILE
360
13F
  0
DICTIONARY
  5
19B
330
159
100
AcDbDictionary
280
     1
281
     1
  3
ACAD_ROUNDTRIP_2008_TABLESTYLE_CELLSTYLEMAP
360
540
  3
ACAD_XREC_ROUNDTRIP
360
56D
  0
DICTIONARY
  5
551
330
149
100
AcDbDictionary
280
     1
281
     1
  3
ACAD_XREC_ROUNDTRIP
360
552
  0
DICTIONARY
  5
555
330
14B
100
AcDbDictionary
280
     1
281
     1
  3
ACAD_XREC_ROUNDTRIP
360
556
  0
DICTIONARY
  5
553
330
14A
100
AcDbDictionary
280
     1
281
     1
  3
ACAD_XREC_ROUNDTRIP
360
554
  0
DICTIONARY
  5
54F
330
148
100
AcDbDictionary
280
     1
281
     1
  3
ACAD_XREC_ROUNDTRIP
360
550
  0
DICTIONARY
  5
55D
330
14F
100
AcDbDictionary
280
     1
281
     1
  3
ACAD_XREC_ROUNDTRIP
360
55E
  0
DICTIONARY
  5
565
330
153
100
AcDbDictionary
280
     1
281
     1
  3
ACAD_XREC_ROUNDTRIP
360
566
  0
DICTIONARY
  5
557
330
14C
100
AcDbDictionary
280
     1
281
     1
  3
ACAD_XREC_ROUNDTRIP
360
558
  0
DICTIONARY
  5
55B
330
14E
100
AcDbDictionary
280
     1
281
     1
  3
ACAD_XREC_ROUNDTRIP
360
55C
  0
DICTIONARY
  5
56B
330
156
100
AcDbDictionary
280
     1
281
     1
  3
ACAD_XREC_ROUNDTRIP
360
56C
  0
DICTIONARY
  5
563
330
152
100
AcDbDictionary
280
     1
281
     1
  3
ACAD_XREC_ROUNDTRIP
360
564
  0
DICTIONARY
  5
547
330
144
100
AcDbDictionary
280
     1
281
     1
  3
ACAD_XREC_ROUNDTRIP
360
548
  0
DICTIONARY
  5
549
330
145
100
AcDbDictionary
280
     1
281
     1
  3
ACAD_XREC_ROUNDTRIP
360
54A
  0
DICTIONARY
  5
54B
330
146
100
AcDbDictionary
280
     1
281
     1
  3
ACAD_XREC_ROUNDTRIP
360
54C
  0
DICTIONARY
  5
54D
330
147
100
AcDbDictionary
280
     1
281
     1
  3
ACAD_XREC_ROUNDTRIP
360
54E
  0
DICTIONARY
  5
567
330
154
100
AcDbDictionary
280
     1
281
     1
  3
ACAD_XREC_ROUNDTRIP
360
568
  0
DICTIONARY
  5
561
330
151
100
AcDbDictionary
280
     1
281
     1
  3
ACAD_XREC_ROUNDTRIP
360
562
  0
DICTIONARY
  5
569
330
155
100
AcDbDictionary
280
     1
281
     1
  3
ACAD_XREC_ROUNDTRIP
360
56A
  0
DICTIONARY
  5
559
330
14D
100
AcDbDictionary
280
     1
281
     1
  3
ACAD_XREC_ROUNDTRIP
360
55A
  0
DICTIONARY
  5
55F
330
150
100
AcDbDictionary
280
     1
281
     1
  3
ACAD_XREC_ROUNDTRIP
360
560
  0
XRECORD
  5
544
102
{ACAD_REACTORS
330
543
102
}
330
543
100
AcDbXrecord
280
     1
102
SHADEPLOT
 70
     0
102
SHADEPLOTRESLEVEL
 70
     2
102
SHADEPLOTCUSTOMDPI
 70
   300
  0
XRECORD
  5
546
102
{ACAD_REACTORS
330
545
102
}
330
545
100
AcDbXrecord
280
     1
102
SHADEPLOT
 70
     0
102
SHADEPLOTRESLEVEL
 70
     2
102
SHADEPLOTCUSTOMDPI
 70
   300
  0
XRECORD
  5
1A4
102
{ACAD_REACTORS
330
134
102
}
330
134
100
AcDbXrecord
280
     1
102
MATERIAL
148
0.0
149
0.0
149
0.0
 93
        0
 94
      127
282
     0
 72
     0
 77
     0
171
     0
175
     0
179
     0
273
     0
  0
XRECORD
  5
136
102
{ACAD_REACTORS
330
134
102
}
330
134
100
AcDbXrecord
280
     1
270
     1
271
     1
  0
XRECORD
  5
135
102
{ACAD_REACTORS
330
134
102
}
330
134
100
AcDbXrecord
280
     1
270
     1
271
     1
  0
XRECORD
  5
139
102
{ACAD_REACTORS
330
134
102
}
330
134
100
AcDbXrecord
280
     1
270
     1
271
     1
  0
XRECORD
  5
138
102
{ACAD_REACTORS
330
134
102
}
330
134
100
AcDbXrecord
280
     1
270
     1
271
     1
  0
XRECORD
  5
13A
102
{ACAD_REACTORS
330
134
102
}
330
134
100
AcDbXrecord
280
     1
270
     1
271
     1
  0
XRECORD
  5
137
102
{ACAD_REACTORS
330
134
102
}
330
134
100
AcDbXrecord
280
     1
270
     1
271
     1
  0
XRECORD
  5
1A3
102
{ACAD_REACTORS
330
12C
102
}
330
12C
100
AcDbXrecord
280
     1
102
MATERIAL
148
0.0
149
0.0
149
0.0
 93
        0
 94
      127
282
     0
 72
     0
 77
     0
171
     0
175
     0
179
     0
273
     0
  0
XRECORD
  5
12E
102
{ACAD_REACTORS
330
12C
102
}
330
12C
100
AcDbXrecord
280
     1
270
     1
271
     1
  0
XRECORD
  5
12D
102
{ACAD_REACTORS
330
12C
102
}
330
12C
100
AcDbXrecord
280
     1
270
     1
271
     1
  0
XRECORD
  5
131
102
{ACAD_REACTORS
330
12C
102
}
330
12C
100
AcDbXrecord
280
     1
270
     1
271
     1
  0
XRECORD
  5
130
102
{ACAD_REACTORS
330
12C
102
}
330
12C
100
AcDbXrecord
280
     1
270
     1
271
     1
  0
XRECORD
  5
132
102
{ACAD_REACTORS
330
12C
102
}
330
12C
100
AcDbXrecord
280
     1
270
     1
271
     1
  0
XRECORD
  5
12F
102
{ACAD_REACTORS
330
12C
102
}
330
12C
100
AcDbXrecord
280
     1
270
     1
271
     1
  0
XRECORD
  5
1A5
102
{ACAD_REACTORS
330
13C
102
}
330
13C
100
AcDbXrecord
280
     1
102
MATERIAL
148
0.0
149
0.0
149
0.0
 93
        0
 94
      127
282
     0
 72
     0
 77
     0
171
     0
175
     0
179
     0
273
     0
  0
XRECORD
  5
13E
102
{ACAD_REACTORS
330
13C
102
}
330
13C
100
AcDbXrecord
280
     1
270
     1
271
     1
  0
XRECORD
  5
13D
102
{ACAD_REACTORS
330
13C
102
}
330
13C
100
AcDbXrecord
280
     1
270
     1
271
     1
  0
XRECORD
  5
141
102
{ACAD_REACTORS
330
13C
102
}
330
13C
100
AcDbXrecord
280
     1
270
     1
271
     1
  0
XRECORD
  5
140
102
{ACAD_REACTORS
330
13C
102
}
330
13C
100
AcDbXrecord
280
     1
270
     1
271
     1
  0
XRECORD
  5
142
102
{ACAD_REACTORS
330
13C
102
}
330
13C
100
AcDbXrecord
280
     1
270
     1
271
     1
  0
XRECORD
  5
13F
102
{ACAD_REACTORS
330
13C
102
}
330
13C
100
AcDbXrecord
280
     1
270
     1
271
     1
  0
CELLSTYLEMAP
  5
540
102
{ACAD_REACTORS
330
19B
102
}
330
19B
100
AcDbCellStyleMap
 90
        3
300
CELLSTYLE
  1
TABLEFORMAT_BEGIN
 90
        5
170
     1
 91
        0
 92
    32768
 62
   257
 93
        1
300
CONTENTFORMAT
  1
CONTENTFORMAT_BEGIN
 90
        0
 91
        0
 92
      512
 93
        0
300

 40
0.0
140
1.0
 94
        5
 62
     0
340
9F
144
0.25
309
CONTENTFORMAT_END
171
     1
301
MARGIN
  1
CELLMARGIN_BEGIN
 40
0.06
 40
0.06
 40
0.06
 40
0.06
 40
0.18
 40
0.18
309
CELLMARGIN_END
 94
        6
 95
        1
302
GRIDFORMAT
  1
GRIDFORMAT_BEGIN
 90
        0
 91
        1
 62
     0
 92
       -2
340
0
 93
        0
 40
0.045
309
GRIDFORMAT_END
 95
        2
302
GRIDFORMAT
  1
GRIDFORMAT_BEGIN
 90
        0
 91
        1
 62
     0
 92
       -2
340
0
 93
        0
 40
0.045
309
GRIDFORMAT_END
 95
        4
302
GRIDFORMAT
  1
GRIDFORMAT_BEGIN
 90
        0
 91
        1
 62
     0
 92
       -2
340
0
 93
        0
 40
0.045
309
GRIDFORMAT_END
 95
        8
302
GRIDFORMAT
  1
GRIDFORMAT_BEGIN
 90
        0
 91
        1
 62
     0
 92
       -2
340
0
 93
        0
 40
0.045
309
GRIDFORMAT_END
 95
       16
302
GRIDFORMAT
  1
GRIDFORMAT_BEGIN
 90
        0
 91
        1
 62
     0
 92
       -2
340
0
 93
        0
 40
0.045
309
GRIDFORMAT_END
 95
       32
302
GRIDFORMAT
  1
GRIDFORMAT_BEGIN
 90
        0
 91
        1
 62
     0
 92
       -2
340
0
 93
        0
 40
0.045
309
GRIDFORMAT_END
309
TABLEFORMAT_END
  1
CELLSTYLE_BEGIN
 90
        1
 91
        1
300
_TITLE
309
CELLSTYLE_END
300
CELLSTYLE
  1
TABLEFORMAT_BEGIN
 90
        5
170
     1
 91
        0
 92
        0
 62
   257
 93
        1
300
CONTENTFORMAT
  1
CONTENTFORMAT_BEGIN
 90
        0
 91
        0
 92
      512
 93
        0
300

 40
0.0
140
1.0
 94
        5
 62
     0
340
9F
144
0.18
309
CONTENTFORMAT_END
171
     1
301
MARGIN
  1
CELLMARGIN_BEGIN
 40
0.06
 40
0.06
 40
0.06
 40
0.06
 40
0.18
 40
0.18
309
CELLMARGIN_END
 94
        6
 95
        1
302
GRIDFORMAT
  1
GRIDFORMAT_BEGIN
 90
        0
 91
        1
 62
     0
 92
       -2
340
0
 93
        0
 40
0.045
309
GRIDFORMAT_END
 95
        2
302
GRIDFORMAT
  1
GRIDFORMAT_BEGIN
 90
        0
 91
        1
 62
     0
 92
       -2
340
0
 93
        0
 40
0.045
309
GRIDFORMAT_END
 95
        4
302
GRIDFORMAT
  1
GRIDFORMAT_BEGIN
 90
        0
 91
        1
 62
     0
 92
       -2
340
0
 93
        0
 40
0.045
309
GRIDFORMAT_END
 95
        8
302
GRIDFORMAT
  1
GRIDFORMAT_BEGIN
 90
        0
 91
        1
 62
     0
 92
       -2
340
0
 93
        0
 40
0.045
309
GRIDFORMAT_END
 95
       16
302
GRIDFORMAT
  1
GRIDFORMAT_BEGIN
 90
        0
 91
        1
 62
     0
 92
       -2
340
0
 93
        0
 40
0.045
309
GRIDFORMAT_END
 95
       32
302
GRIDFORMAT
  1
GRIDFORMAT_BEGIN
 90
        0
 91
        1
 62
     0
 92
       -2
340
0
 93
        0
 40
0.045
309
GRIDFORMAT_END
309
TABLEFORMAT_END
  1
CELLSTYLE_BEGIN
 90
        2
 91
        1
300
_HEADER
309
CELLSTYLE_END
300
CELLSTYLE
  1
TABLEFORMAT_BEGIN
 90
        5
170
     1
 91
        0
 92
        0
 62
   257
 93
        1
300
CONTENTFORMAT
  1
CONTENTFORMAT_BEGIN
 90
        0
 91
        0
 92
      512
 93
        0
300

 40
0.0
140
1.0
 94
        2
 62
     0
340
9F
144
0.18
309
CONTENTFORMAT_END
171
     1
301
MARGIN
  1
CELLMARGIN_BEGIN
 40
0.06
 40
0.06
 40
0.06
 40
0.06
 40
0.18
 40
0.18
309
CELLMARGIN_END
 94
        6
 95
        1
302
GRIDFORMAT
  1
GRIDFORMAT_BEGIN
 90
        0
 91
        1
 62
     0
 92
       -2
340
0
 93
        0
 40
0.045
309
GRIDFORMAT_END
 95
        2
302
GRIDFORMAT
  1
GRIDFORMAT_BEGIN
 90
        0
 91
        1
 62
     0
 92
       -2
340
0
 93
        0
 40
0.045
309
GRIDFORMAT_END
 95
        4
302
GRIDFORMAT
  1
GRIDFORMAT_BEGIN
 90
        0
 91
        1
 62
     0
 92
       -2
340
0
 93
        0
 40
0.045
309
GRIDFORMAT_END
 95
        8
302
GRIDFORMAT
  1
GRIDFORMAT_BEGIN
 90
        0
 91
        1
 62
     0
 92
       -2
340
0
 93
        0
 40
0.045
309
GRIDFORMAT_END
 95
       16
302
GRIDFORMAT
  1
GRIDFORMAT_BEGIN
 90
        0
 91
        1
 62
     0
 92
       -2
340
0
 93
        0
 40
0.045
309
GRIDFORMAT_END
 95
       32
302
GRIDFORMAT
  1
GRIDFORMAT_BEGIN
 90
        0
 91
        1
 62
     0
 92
       -2
340
0
 93
        0
 40
0.045
309
GRIDFORMAT_END
309
TABLEFORMAT_END
  1
CELLSTYLE_BEGIN
 90
        3
 91
        2
300
_DATA
309
CELLSTYLE_END
  0
XRECORD
  5
56D
102
{ACAD_REACTORS
330
19B
102
}
330
19B
100
AcDbXrecord
280
     1
102
ACAD_ROUNDTRIP_PRE2007_TABLESTYLE
 90
      512
 91
        0
  1

 92
      512
 93
        0
  2

 94
      512
 95
        0
  3

  0
XRECORD
  5
552
102
{ACAD_REACTORS
330
551
102
}
330
551
100
AcDbXrecord
280
     1
102
RTVSPropertyOp0
 70
     1
102
RTVSPropertyOp1
 70
     1
102
RTVSPropertyOp2
 70
     1
102
RTVSPropertyOp3
 70
     1
102
RTVSPropertyOp4
 70
     1
102
RTVSPropertyOp5
 70
     1
102
RTVSPropertyOp6
 70
     1
102
RTVSPropertyOp7
 70
     1
102
RTVSPropertyOp8
 70
     1
102
RTVSPropertyOp9
 70
     1
102
RTVSPropertyOp10
 70
     1
102
RTVSPropertyOp11
 70
     1
102
RTVSPropertyOp12
 70
     1
102
RTVSPropertyOp13
 70
     1
102
RTVSPropertyOp14
 70
     1
102
RTVSPropertyOp15
 70
     1
102
RTVSPropertyOp16
 70
     1
102
RTVSPropertyOp17
 70
     1
102
RTVSPropertyOp18
 70
     1
102
RTVSPropertyOp19
 70
     1
102
RTVSPropertyOp20
 70
     1
102
RTVSPropertyOp21
 70
     1
102
RTVSPropertyOp22
 70
     1
102
RTVSPropertyOp23
 70
     1
102
RTVSPropertyOp24
 70
     1
102
RTVSPropertyOp25
 70
     1
102
RTVSPropertyOp26
 70
     1
102
RTVSPropertyOp27
 70
     1
  0
XRECORD
  5
556
102
{ACAD_REACTORS
330
555
102
}
330
555
100
AcDbXrecord
280
     1
102
RTVSPropertyOp0
 70
     1
102
RTVSPropertyOp1
 70
     1
102
RTVSPropertyOp2
 70
     1
102
RTVSPropertyOp3
 70
     1
102
RTVSPropertyOp4
 70
     1
102
RTVSPropertyOp5
 70
     1
102
RTVSPropertyOp6
 70
     1
102
RTVSPropertyOp7
 70
     1
102
RTVSPropertyOp8
 70
     1
102
RTVSPropertyOp9
 70
     1
102
RTVSPropertyOp10
 70
     1
102
RTVSPropertyOp11
 70
     1
102
RTVSPropertyOp12
 70
     1
102
RTVSPropertyOp13
 70
     1
102
RTVSPropertyOp14
 70
     1
102
RTVSPropertyOp15
 70
     1
102
RTVSPropertyOp16
 70
     1
102
RTVSPropertyOp17
 70
     1
102
RTVSPropertyOp18
 70
     1
102
RTVSPropertyOp19
 70
     1
102
RTVSPropertyOp20
 70
     1
102
RTVSPropertyOp21
 70
     1
102
RTVSPropertyOp22
 70
     1
102
RTVSPropertyOp23
 70
     1
102
RTVSPropertyOp24
 70
     1
102
RTVSPropertyOp25
 70
     1
102
RTVSPropertyOp26
 70
     1
102
RTVSPropertyOp27
 70
     1
  0
XRECORD
  5
554
102
{ACAD_REACTORS
330
553
102
}
330
553
100
AcDbXrecord
280
     1
102
RTVSPropertyOp0
 70
     1
102
RTVSPropertyOp1
 70
     1
102
RTVSPropertyOp2
 70
     1
102
RTVSPropertyOp3
 70
     1
102
RTVSPropertyOp4
 70
     1
102
RTVSPropertyOp5
 70
     1
102
RTVSPropertyOp6
 70
     1
102
RTVSPropertyOp7
 70
     1
102
RTVSPropertyOp8
 70
     1
102
RTVSPropertyOp9
 70
     1
102
RTVSPropertyOp10
 70
     1
102
RTVSPropertyOp11
 70
     1
102
RTVSPropertyOp12
 70
     1
102
RTVSPropertyOp13
 70
     1
102
RTVSPropertyOp14
 70
     1
102
RTVSPropertyOp15
 70
     1
102
RTVSPropertyOp16
 70
     1
102
RTVSPropertyOp17
 70
     1
102
RTVSPropertyOp18
 70
     1
102
RTVSPropertyOp19
 70
     1
102
RTVSPropertyOp20
 70
     1
102
RTVSPropertyOp21
 70
     1
102
RTVSPropertyOp22
 70
     1
102
RTVSPropertyOp23
 70
     1
102
RTVSPropertyOp24
 70
     1
102
RTVSPropertyOp25
 70
     1
102
RTVSPropertyOp26
 70
     1
102
RTVSPropertyOp27
 70
     1
  0
XRECORD
  5
550
102
{ACAD_REACTORS
330
54F
102
}
330
54F
100
AcDbXrecord
280
     1
102
RTVSPropertyOp0
 70
     1
102
RTVSPropertyOp1
 70
     1
102
RTVSPropertyOp2
 70
     1
102
RTVSPropertyOp3
 70
     1
102
RTVSPropertyOp4
 70
     1
102
RTVSPropertyOp5
 70
     1
102
RTVSPropertyOp6
 70
     1
102
RTVSPropertyOp7
 70
     1
102
RTVSPropertyOp8
 70
     1
102
RTVSPropertyOp9
 70
     1
102
RTVSPropertyOp10
 70
     1
102
RTVSPropertyOp11
 70
     1
102
RTVSPropertyOp12
 70
     1
102
RTVSPropertyOp13
 70
     1
102
RTVSPropertyOp14
 70
     1
102
RTVSPropertyOp15
 70
     1
102
RTVSPropertyOp16
 70
     1
102
RTVSPropertyOp17
 70
     1
102
RTVSPropertyOp18
 70
     1
102
RTVSPropertyOp19
 70
     1
102
RTVSPropertyOp20
 70
     1
102
RTVSPropertyOp21
 70
     1
102
RTVSPropertyOp22
 70
     1
102
RTVSPropertyOp23
 70
     1
102
RTVSPropertyOp24
 70
     1
102
RTVSPropertyOp25
 70
     1
102
RTVSPropertyOp26
 70
     1
102
RTVSPropertyOp27
 70
     1
  0
XRECORD
  5
55E
102
{ACAD_REACTORS
330
55D
102
}
330
55D
100
AcDbXrecord
280
     1
102
RTVSPropertyOp0
 70
     1
102
RTVSPropertyOp1
 70
     1
102
RTVSPropertyOp2
 70
     1
102
RTVSPropertyOp3
 70
     1
102
RTVSPropertyOp4
 70
     1
102
RTVSPropertyOp5
 70
     1
102
RTVSPropertyOp6
 70
     1
102
RTVSPropertyOp7
 70
     1
102
RTVSPropertyOp8
 70
     1
102
RTVSPropertyOp9
 70
     1
102
RTVSPropertyOp10
 70
     1
102
RTVSPropertyOp11
 70
     1
102
RTVSPropertyOp12
 70
     1
102
RTVSPropertyOp13
 70
     1
102
RTVSPropertyOp14
 70
     1
102
RTVSPropertyOp15
 70
     1
102
RTVSPropertyOp16
 70
     1
102
RTVSPropertyOp17
 70
     1
102
RTVSPropertyOp18
 70
     1
102
RTVSPropertyOp19
 70
     1
102
RTVSPropertyOp20
 70
     1
102
RTVSPropertyOp21
 70
     1
102
RTVSPropertyOp22
 70
     1
102
RTVSPropertyOp23
 70
     1
102
RTVSPropertyOp24
 70
     1
102
RTVSPropertyOp25
 70
     1
102
RTVSPropertyOp26
 70
     1
102
RTVSPropertyOp27
 70
     1
  0
XRECORD
  5
566
102
{ACAD_REACTORS
330
565
102
}
330
565
100
AcDbXrecord
280
     1
102
RTVSPropertyOp0
 70
     1
102
RTVSPropertyOp1
 70
     1
102
RTVSPropertyOp2
 70
     1
102
RTVSPropertyOp3
 70
     1
102
RTVSPropertyOp4
 70
     1
102
RTVSPropertyOp5
 70
     1
102
RTVSPropertyOp6
 70
     1
102
RTVSPropertyOp7
 70
     1
102
RTVSPropertyOp8
 70
     1
102
RTVSPropertyOp9
 70
     1
102
RTVSPropertyOp10
 70
     1
102
RTVSPropertyOp11
 70
     1
102
RTVSPropertyOp12
 70
     1
102
RTVSPropertyOp13
 70
     1
102
RTVSPropertyOp14
 70
     1
102
RTVSPropertyOp15
 70
     1
102
RTVSPropertyOp16
 70
     1
102
RTVSPropertyOp17
 70
     1
102
RTVSPropertyOp18
 70
     1
102
RTVSPropertyOp19
 70
     1
102
RTVSPropertyOp20
 70
     1
102
RTVSPropertyOp21
 70
     1
102
RTVSPropertyOp22
 70
     1
102
RTVSPropertyOp23
 70
     1
102
RTVSPropertyOp24
 70
     1
102
RTVSPropertyOp25
 70
     1
102
RTVSPropertyOp26
 70
     1
102
RTVSPropertyOp27
 70
     1
  0
XRECORD
  5
558
102
{ACAD_REACTORS
330
557
102
}
330
557
100
AcDbXrecord
280
     1
102
RTVSPropertyOp0
 70
     1
102
RTVSPropertyOp1
 70
     1
102
RTVSPropertyOp2
 70
     1
102
RTVSPropertyOp3
 70
     1
102
RTVSPropertyOp4
 70
     1
102
RTVSPropertyOp5
 70
     1
102
RTVSPropertyOp6
 70
     1
102
RTVSPropertyOp7
 70
     1
102
RTVSPropertyOp8
 70
     1
102
RTVSPropertyOp9
 70
     1
102
RTVSPropertyOp10
 70
     1
102
RTVSPropertyOp11
 70
     1
102
RTVSPropertyOp12
 70
     1
102
RTVSPropertyOp13
 70
     1
102
RTVSPropertyOp14
 70
     1
102
RTVSPropertyOp15
 70
     1
102
RTVSPropertyOp16
 70
     1
102
RTVSPropertyOp17
 70
     1
102
RTVSPropertyOp18
 70
     1
102
RTVSPropertyOp19
 70
     1
102
RTVSPropertyOp20
 70
     1
102
RTVSPropertyOp21
 70
     1
102
RTVSPropertyOp22
 70
     1
102
RTVSPropertyOp23
 70
     1
102
RTVSPropertyOp24
 70
     1
102
RTVSPropertyOp25
 70
     1
102
RTVSPropertyOp26
 70
     1
102
RTVSPropertyOp27
 70
     1
  0
XRECORD
  5
55C
102
{ACAD_REACTORS
330
55B
102
}
330
55B
100
AcDbXrecord
280
     1
102
RTVSPropertyOp0
 70
     1
102
RTVSPropertyOp1
 70
     1
102
RTVSPropertyOp2
 70
     1
102
RTVSPropertyOp3
 70
     1
102
RTVSPropertyOp4
 70
     1
102
RTVSPropertyOp5
 70
     1
102
RTVSPropertyOp6
 70
     1
102
RTVSPropertyOp7
 70
     1
102
RTVSPropertyOp8
 70
     1
102
RTVSPropertyOp9
 70
     1
102
RTVSPropertyOp10
 70
     1
102
RTVSPropertyOp11
 70
     1
102
RTVSPropertyOp12
 70
     1
102
RTVSPropertyOp13
 70
     1
102
RTVSPropertyOp14
 70
     1
102
RTVSPropertyOp15
 70
     1
102
RTVSPropertyOp16
 70
     1
102
RTVSPropertyOp17
 70
     1
102
RTVSPropertyOp18
 70
     1
102
RTVSPropertyOp19
 70
     1
102
RTVSPropertyOp20
 70
     1
102
RTVSPropertyOp21
 70
     1
102
RTVSPropertyOp22
 70
     1
102
RTVSPropertyOp23
 70
     1
102
RTVSPropertyOp24
 70
     1
102
RTVSPropertyOp25
 70
     1
102
RTVSPropertyOp26
 70
     1
102
RTVSPropertyOp27
 70
     1
  0
XRECORD
  5
56C
102
{ACAD_REACTORS
330
56B
102
}
330
56B
100
AcDbXrecord
280
     1
102
RTVSPropertyOp0
 70
     0
102
RTVSPropertyOp1
 70
     0
102
RTVSPropertyOp2
 70
     0
102
RTVSPropertyOp3
 70
     0
102
RTVSPropertyOp4
 70
     0
102
RTVSPropertyOp5
 70
     0
102
RTVSPropertyOp6
 70
     0
102
RTVSPropertyOp7
 70
     0
102
RTVSPropertyOp8
 70
     0
102
RTVSPropertyOp9
 70
     0
102
RTVSPropertyOp10
 70
     0
102
RTVSPropertyOp11
 70
     0
102
RTVSPropertyOp12
 70
     0
102
RTVSPropertyOp13
 70
     0
102
RTVSPropertyOp14
 70
     2
102
RTVSPropertyOp15
 70
     0
102
RTVSPropertyOp16
 70
     0
102
RTVSPropertyOp17
 70
     0
102
RTVSPropertyOp18
 70
     0
102
RTVSPropertyOp19
 70
     0
102
RTVSPropertyOp20
 70
     0
102
RTVSPropertyOp21
 70
     0
102
RTVSPropertyOp22
 70
     0
102
RTVSPropertyOp23
 70
     0
102
RTVSPropertyOp24
 70
     0
102
RTVSPropertyOp25
 70
     0
102
RTVSPropertyOp26
 70
     0
102
RTVSPropertyOp27
 70
     0
  0
XRECORD
  5
564
102
{ACAD_REACTORS
330
563
102
}
330
563
100
AcDbXrecord
280
     1
102
RTVSPropertyOp0
 70
     1
102
RTVSPropertyOp1
 70
     1
102
RTVSPropertyOp2
 70
     1
102
RTVSPropertyOp3
 70
     1
102
RTVSPropertyOp4
 70
     1
102
RTVSPropertyOp5
 70
     1
102
RTVSPropertyOp6
 70
     1
102
RTVSPropertyOp7
 70
     1
102
RTVSPropertyOp8
 70
     1
102
RTVSPropertyOp9
 70
     1
102
RTVSPropertyOp10
 70
     1
102
RTVSPropertyOp11
 70
     1
102
RTVSPropertyOp12
 70
     1
102
RTVSPropertyOp13
 70
     1
102
RTVSPropertyOp14
 70
     1
102
RTVSPropertyOp15
 70
     1
102
RTVSPropertyOp16
 70
     1
102
RTVSPropertyOp17
 70
     1
102
RTVSPropertyOp18
 70
     1
102
RTVSPropertyOp19
 70
     1
102
RTVSPropertyOp20
 70
     1
102
RTVSPropertyOp21
 70
     1
102
RTVSPropertyOp22
 70
     1
102
RTVSPropertyOp23
 70
     1
102
RTVSPropertyOp24
 70
     1
102
RTVSPropertyOp25
 70
     1
102
RTVSPropertyOp26
 70
     1
102
RTVSPropertyOp27
 70
     1
  0
XRECORD
  5
548
102
{ACAD_REACTORS
330
547
102
}
330
547
100
AcDbXrecord
280
     1
102
RTVSPropertyOp0
 70
     1
102
RTVSPropertyOp1
 70
     1
102
RTVSPropertyOp2
 70
     1
102
RTVSPropertyOp3
 70
     1
102
RTVSPropertyOp4
 70
     1
102
RTVSPropertyOp5
 70
     1
102
RTVSPropertyOp6
 70
     1
102
RTVSPropertyOp7
 70
     1
102
RTVSPropertyOp8
 70
     1
102
RTVSPropertyOp9
 70
     1
102
RTVSPropertyOp10
 70
     1
102
RTVSPropertyOp11
 70
     1
102
RTVSPropertyOp12
 70
     1
102
RTVSPropertyOp13
 70
     1
102
RTVSPropertyOp14
 70
     1
102
RTVSPropertyOp15
 70
     1
102
RTVSPropertyOp16
 70
     1
102
RTVSPropertyOp17
 70
     1
102
RTVSPropertyOp18
 70
     1
102
RTVSPropertyOp19
 70
     1
102
RTVSPropertyOp20
 70
     1
102
RTVSPropertyOp21
 70
     1
102
RTVSPropertyOp22
 70
     1
102
RTVSPropertyOp23
 70
     1
102
RTVSPropertyOp24
 70
     1
102
RTVSPropertyOp25
 70
     1
102
RTVSPropertyOp26
 70
     1
102
RTVSPropertyOp27
 70
     1
  0
XRECORD
  5
54A
102
{ACAD_REACTORS
330
549
102
}
330
549
100
AcDbXrecord
280
     1
102
RTVSPropertyOp0
 70
     1
102
RTVSPropertyOp1
 70
     1
102
RTVSPropertyOp2
 70
     1
102
RTVSPropertyOp3
 70
     1
102
RTVSPropertyOp4
 70
     1
102
RTVSPropertyOp5
 70
     1
102
RTVSPropertyOp6
 70
     1
102
RTVSPropertyOp7
 70
     1
102
RTVSPropertyOp8
 70
     1
102
RTVSPropertyOp9
 70
     1
102
RTVSPropertyOp10
 70
     1
102
RTVSPropertyOp11
 70
     1
102
RTVSPropertyOp12
 70
     1
102
RTVSPropertyOp13
 70
     1
102
RTVSPropertyOp14
 70
     1
102
RTVSPropertyOp15
 70
     1
102
RTVSPropertyOp16
 70
     1
102
RTVSPropertyOp17
 70
     1
102
RTVSPropertyOp18
 70
     1
102
RTVSPropertyOp19
 70
     1
102
RTVSPropertyOp20
 70
     1
102
RTVSPropertyOp21
 70
     1
102
RTVSPropertyOp22
 70
     1
102
RTVSPropertyOp23
 70
     1
102
RTVSPropertyOp24
 70
     1
102
RTVSPropertyOp25
 70
     1
102
RTVSPropertyOp26
 70
     1
102
RTVSPropertyOp27
 70
     1
  0
XRECORD
  5
54C
102
{ACAD_REACTORS
330
54B
102
}
330
54B
100
AcDbXrecord
280
     1
102
RTVSPropertyOp0
 70
     1
102
RTVSPropertyOp1
 70
     1
102
RTVSPropertyOp2
 70
     1
102
RTVSPropertyOp3
 70
     1
102
RTVSPropertyOp4
 70
     1
102
RTVSPropertyOp5
 70
     1
102
RTVSPropertyOp6
 70
     1
102
RTVSPropertyOp7
 70
     1
102
RTVSPropertyOp8
 70
     1
102
RTVSPropertyOp9
 70
     1
102
RTVSPropertyOp10
 70
     1
102
RTVSPropertyOp11
 70
     1
102
RTVSPropertyOp12
 70
     1
102
RTVSPropertyOp13
 70
     1
102
RTVSPropertyOp14
 70
     1
102
RTVSPropertyOp15
 70
     1
102
RTVSPropertyOp16
 70
     1
102
RTVSPropertyOp17
 70
     1
102
RTVSPropertyOp18
 70
     1
102
RTVSPropertyOp19
 70
     1
102
RTVSPropertyOp20
 70
     1
102
RTVSPropertyOp21
 70
     1
102
RTVSPropertyOp22
 70
     1
102
RTVSPropertyOp23
 70
     1
102
RTVSPropertyOp24
 70
     1
102
RTVSPropertyOp25
 70
     1
102
RTVSPropertyOp26
 70
     1
102
RTVSPropertyOp27
 70
     1
  0
XRECORD
  5
54E
102
{ACAD_REACTORS
330
54D
102
}
330
54D
100
AcDbXrecord
280
     1
102
RTVSPropertyOp0
 70
     1
102
RTVSPropertyOp1
 70
     1
102
RTVSPropertyOp2
 70
     1
102
RTVSPropertyOp3
 70
     1
102
RTVSPropertyOp4
 70
     1
102
RTVSPropertyOp5
 70
     1
102
RTVSPropertyOp6
 70
     1
102
RTVSPropertyOp7
 70
     1
102
RTVSPropertyOp8
 70
     1
102
RTVSPropertyOp9
 70
     1
102
RTVSPropertyOp10
 70
     1
102
RTVSPropertyOp11
 70
     1
102
RTVSPropertyOp12
 70
     1
102
RTVSPropertyOp13
 70
     1
102
RTVSPropertyOp14
 70
     1
102
RTVSPropertyOp15
 70
     1
102
RTVSPropertyOp16
 70
     1
102
RTVSPropertyOp17
 70
     1
102
RTVSPropertyOp18
 70
     1
102
RTVSPropertyOp19
 70
     1
102
RTVSPropertyOp20
 70
     1
102
RTVSPropertyOp21
 70
     1
102
RTVSPropertyOp22
 70
     1
102
RTVSPropertyOp23
 70
     1
102
RTVSPropertyOp24
 70
     1
102
RTVSPropertyOp25
 70
     1
102
RTVSPropertyOp26
 70
     1
102
RTVSPropertyOp27
 70
     1
  0
XRECORD
  5
568
102
{ACAD_REACTORS
330
567
102
}
330
567
100
AcDbXrecord
280
     1
102
RTVSPropertyOp0
 70
     0
102
RTVSPropertyOp1
 70
     0
102
RTVSPropertyOp2
 70
     0
102
RTVSPropertyOp3
 70
     0
102
RTVSPropertyOp4
 70
     0
102
RTVSPropertyOp5
 70
     0
102
RTVSPropertyOp6
 70
     0
102
RTVSPropertyOp7
 70
     0
102
RTVSPropertyOp8
 70
     0
102
RTVSPropertyOp9
 70
     0
102
RTVSPropertyOp10
 70
     0
102
RTVSPropertyOp11
 70
     0
102
RTVSPropertyOp12
 70
     0
102
RTVSPropertyOp13
 70
     0
102
RTVSPropertyOp14
 70
     2
102
RTVSPropertyOp15
 70
     0
102
RTVSPropertyOp16
 70
     0
102
RTVSPropertyOp17
 70
     0
102
RTVSPropertyOp18
 70
     0
102
RTVSPropertyOp19
 70
     0
102
RTVSPropertyOp20
 70
     0
102
RTVSPropertyOp21
 70
     0
102
RTVSPropertyOp22
 70
     0
102
RTVSPropertyOp23
 70
     0
102
RTVSPropertyOp24
 70
     0
102
RTVSPropertyOp25
 70
     0
102
RTVSPropertyOp26
 70
     0
102
RTVSPropertyOp27
 70
     0
  0
XRECORD
  5
562
102
{ACAD_REACTORS
330
561
102
}
330
561
100
AcDbXrecord
280
     1
102
RTVSPropertyOp0
 70
     1
102
RTVSPropertyOp1
 70
     1
102
RTVSPropertyOp2
 70
     1
102
RTVSPropertyOp3
 70
     1
102
RTVSPropertyOp4
 70
     1
102
RTVSPropertyOp5
 70
     1
102
RTVSPropertyOp6
 70
     1
102
RTVSPropertyOp7
 70
     1
102
RTVSPropertyOp8
 70
     1
102
RTVSPropertyOp9
 70
     1
102
RTVSPropertyOp10
 70
     1
102
RTVSPropertyOp11
 70
     1
102
RTVSPropertyOp12
 70
     1
102
RTVSPropertyOp13
 70
     1
102
RTVSPropertyOp14
 70
     1
102
RTVSPropertyOp15
 70
     1
102
RTVSPropertyOp16
 70
     1
102
RTVSPropertyOp17
 70
     1
102
RTVSPropertyOp18
 70
     1
102
RTVSPropertyOp19
 70
     1
102
RTVSPropertyOp20
 70
     1
102
RTVSPropertyOp21
 70
     1
102
RTVSPropertyOp22
 70
     1
102
RTVSPropertyOp23
 70
     1
102
RTVSPropertyOp24
 70
     1
102
RTVSPropertyOp25
 70
     1
102
RTVSPropertyOp26
 70
     1
102
RTVSPropertyOp27
 70
     1
  0
XRECORD
  5
56A
102
{ACAD_REACTORS
330
569
102
}
330
569
100
AcDbXrecord
280
     1
102
RTVSPropertyOp0
 70
     0
102
RTVSPropertyOp1
 70
     0
102
RTVSPropertyOp2
 70
     0
102
RTVSPropertyOp3
 70
     0
102
RTVSPropertyOp4
 70
     0
102
RTVSPropertyOp5
 70
     0
102
RTVSPropertyOp6
 70
     0
102
RTVSPropertyOp7
 70
     0
102
RTVSPropertyOp8
 70
     0
102
RTVSPropertyOp9
 70
     0
102
RTVSPropertyOp10
 70
     0
102
RTVSPropertyOp11
 70
     0
102
RTVSPropertyOp12
 70
     0
102
RTVSPropertyOp13
 70
     0
102
RTVSPropertyOp14
 70
     2
102
RTVSPropertyOp15
 70
     0
102
RTVSPropertyOp16
 70
     0
102
RTVSPropertyOp17
 70
     0
102
RTVSPropertyOp18
 70
     0
102
RTVSPropertyOp19
 70
     0
102
RTVSPropertyOp20
 70
     0
102
RTVSPropertyOp21
 70
     0
102
RTVSPropertyOp22
 70
     0
102
RTVSPropertyOp23
 70
     0
102
RTVSPropertyOp24
 70
     0
102
RTVSPropertyOp25
 70
     0
102
RTVSPropertyOp26
 70
     0
102
RTVSPropertyOp27
 70
     0
  0
XRECORD
  5
55A
102
{ACAD_REACTORS
330
559
102
}
330
559
100
AcDbXrecord
280
     1
102
RTVSPropertyOp0
 70
     1
102
RTVSPropertyOp1
 70
     1
102
RTVSPropertyOp2
 70
     1
102
RTVSPropertyOp3
 70
     1
102
RTVSPropertyOp4
 70
     1
102
RTVSPropertyOp5
 70
     1
102
RTVSPropertyOp6
 70
     1
102
RTVSPropertyOp7
 70
     1
102
RTVSPropertyOp8
 70
     1
102
RTVSPropertyOp9
 70
     1
102
RTVSPropertyOp10
 70
     1
102
RTVSPropertyOp11
 70
     1
102
RTVSPropertyOp12
 70
     1
102
RTVSPropertyOp13
 70
     1
102
RTVSPropertyOp14
 70
     1
102
RTVSPropertyOp15
 70
     1
102
RTVSPropertyOp16
 70
     1
102
RTVSPropertyOp17
 70
     1
102
RTVSPropertyOp18
 70
     1
102
RTVSPropertyOp19
 70
     1
102
RTVSPropertyOp20
 70
     1
102
RTVSPropertyOp21
 70
     1
102
RTVSPropertyOp22
 70
     1
102
RTVSPropertyOp23
 70
     1
102
RTVSPropertyOp24
 70
     1
102
RTVSPropertyOp25
 70
     1
102
RTVSPropertyOp26
 70
     1
102
RTVSPropertyOp27
 70
     1
  0
XRECORD
  5
560
102
{ACAD_REACTORS
330
55F
102
}
330
55F
100
AcDbXrecord
280
     1
102
RTVSPropertyOp0
 70
     1
102
RTVSPropertyOp1
 70
     1
102
RTVSPropertyOp2
 70
     1
102
RTVSPropertyOp3
 70
     1
102
RTVSPropertyOp4
 70
     1
102
RTVSPropertyOp5
 70
     1
102
RTVSPropertyOp6
 70
     1
102
RTVSPropertyOp7
 70
     1
102
RTVSPropertyOp8
 70
     1
102
RTVSPropertyOp9
 70
     1
102
RTVSPropertyOp10
 70
     1
102
RTVSPropertyOp11
 70
     1
102
RTVSPropertyOp12
 70
     1
102
RTVSPropertyOp13
 70
     1
102
RTVSPropertyOp14
 70
     1
102
RTVSPropertyOp15
 70
     1
102
RTVSPropertyOp16
 70
     1
102
RTVSPropertyOp17
 70
     1
102
RTVSPropertyOp18
 70
     1
102
RTVSPropertyOp19
 70
     1
102
RTVSPropertyOp20
 70
     1
102
RTVSPropertyOp21
 70
     1
102
RTVSPropertyOp22
 70
     1
102
RTVSPropertyOp23
 70
     1
102
RTVSPropertyOp24
 70
     1
102
RTVSPropertyOp25
 70
     1
102
RTVSPropertyOp26
 70
     1
102
RTVSPropertyOp27
 70
     1
  0
ENDSEC
  0
EOF
