  0
SECTION
  2
HEADER
  9
$ACADVER
  1
AC1015
  9
$ACADMAINTVER
 70
    20
  9
$DWGCODEPAGE
  3
ANSI_1252
  9
$INSBASE
 10
0.0
 20
0.0
 30
0.0
  9
$EXTMIN
 10
124.5812201778184
 20
385.6900813638126
 30
0.0
  9
$EXTMAX
 10
1419.679660447687
 20
819.8463313638125
 30
0.0
  9
$LIMMIN
 10
0.0
 20
0.0
  9
$LIMMAX
 10
12.0
 20
9.0
  9
$ORTHOMODE
 70
     1
  9
$REGENMODE
 70
     1
  9
$FILLMODE
 70
     1
  9
$QTEXTMODE
 70
     0
  9
$MIRRTEXT
 70
     1
  9
$LTSCALE
 40
1.0
  9
$ATTMODE
 70
     1
  9
$TEXTSIZE
 40
0.0
  9
$TRACEWID
 40
0.05
  9
$TEXTSTYLE
  7
STANDARD
  9
$CLAYER
  8
0
  9
$CELTYPE
  6
CONTINUOUS
  9
$CECOLOR
 62
   256
  9
$CELTSCALE
 40
1.0
  9
$DISPSILH
 70
     0
  9
$DIMSCALE
 40
1.0
  9
$DIMASZ
 40
0.18
  9
$DIMEXO
 40
0.0625
  9
$DIMDLI
 40
0.38
  9
$DIMRND
 40
0.0
  9
$DIMDLE
 40
0.0
  9
$DIMEXE
 40
0.18
  9
$DIMTP
 40
0.0
  9
$DIMTM
 40
0.0
  9
$DIMTXT
 40
0.18
  9
$DIMCEN
 40
0.09
  9
$DIMTSZ
 40
0.0
  9
$DIMTOL
 70
     0
  9
$DIMLIM
 70
     0
  9
$DIMTIH
 70
     1
  9
$DIMTOH
 70
     1
  9
$DIMSE1
 70
     0
  9
$DIMSE2
 70
     0
  9
$DIMTAD
 70
     0
  9
$DIMZIN
 70
     0
  9
$DIMBLK
  1

  9
$DIMASO
 70
     1
  9
$DIMSHO
 70
     1
  9
$DIMPOST
  1

  9
$DIMAPOST
  1

  9
$DIMALT
 70
     0
  9
$DIMALTD
 70
     2
  9
$DIMALTF
 40
25.4
  9
$DIMLFAC
 40
1.0
  9
$DIMTOFL
 70
     0
  9
$DIMTVP
 40
0.0
  9
$DIMTIX
 70
     0
  9
$DIMSOXD
 70
     0
  9
$DIMSAH
 70
     0
  9
$DIMBLK1
  1

  9
$DIMBLK2
  1

  9
$DIMSTYLE
  2
STANDARD
  9
$DIMCLRD
 70
     0
  9
$DIMCLRE
 70
     0
  9
$DIMCLRT
 70
     0
  9
$DIMTFAC
 40
1.0
  9
$DIMGAP
 40
0.09
  9
$DIMJUST
 70
     0
  9
$DIMSD1
 70
     0
  9
$DIMSD2
 70
     0
  9
$DIMTOLJ
 70
     1
  9
$DIMTZIN
 70
     0
  9
$DIMALTZ
 70
     0
  9
$DIMALTTZ
 70
     0
  9
$DIMUPT
 70
     0
  9
$DIMDEC
 70
     4
  9
$DIMTDEC
 70
     4
  9
$DIMALTU
 70
     2
  9
$DIMALTTD
 70
     2
  9
$DIMTXSTY
  7
STANDARD
  9
$DIMAUNIT
 70
     0
  9
$DIMADEC
 70
     0
  9
$DIMALTRND
 40
0.0
  9
$DIMAZIN
 70
     0
  9
$DIMDSEP
 70
    46
  9
$DIMATFIT
 70
     3
  9
$DIMFRAC
 70
     0
  9
$DIMLDRBLK
  1

  9
$DIMLUNIT
 70
     2
  9
$DIMLWD
 70
    -2
  9
$DIMLWE
 70
    -2
  9
$DIMTMOVE
 70
     0
  9
$LUNITS
 70
     2
  9
$LUPREC
 70
     4
  9
$SKETCHINC
 40
0.1
  9
$FILLETRAD
 40
0.0
  9
$AUNITS
 70
     0
  9
$AUPREC
 70
     0
  9
$MENU
  1
acad
  9
$ELEVATION
 40
0.0
  9
$PELEVATION
 40
0.0
  9
$THICKNESS
 40
0.0
  9
$LIMCHECK
 70
     0
  9
$CHAMFERA
 40
0.0
  9
$CHAMFERB
 40
0.0
  9
$CHAMFERC
 40
0.0
  9
$CHAMFERD
 40
0.0
  9
$SKPOLY
 70
     0
  9
$TDCREATE
 40
2453239.133425926
  9
$TDUCREATE
 40
2453239.091759259
  9
$TDUPDATE
 40
2458297.256622847
  9
$TDUUPDATE
 40
2458297.214956181
  9
$TDINDWG
 40
0.0136250694
  9
$TDUSRTIMER
 40
0.0136226620
  9
$USRTIMER
 70
     1
  9
$ANGBASE
 50
0.0
  9
$ANGDIR
 70
     0
  9
$PDMODE
 70
     0
  9
$PDSIZE
 40
0.0
  9
$PLINEWID
 40
0.0
  9
$SPLFRAME
 70
     0
  9
$SPLINETYPE
 70
     6
  9
$SPLINESEGS
 70
    10
  9
$HANDSEED
  5
920
  9
$SURFTAB1
 70
     6
  9
$SURFTAB2
 70
     6
  9
$SURFTYPE
 70
     6
  9
$SURFU
 70
     6
  9
$SURFV
 70
     6
  9
$UCSBASE
  2

  9
$UCSNAME
  2

  9
$UCSORG
 10
0.0
 20
0.0
 30
0.0
  9
$UCSXDIR
 10
1.0
 20
0.0
 30
0.0
  9
$UCSYDIR
 10
0.0
 20
1.0
 30
0.0
  9
$UCSORTHOREF
  2

  9
$UCSORTHOVIEW
 70
     0
  9
$UCSORGTOP
 10
0.0
 20
0.0
 30
0.0
  9
$UCSORGBOTTOM
 10
0.0
 20
0.0
 30
0.0
  9
$UCSORGLEFT
 10
0.0
 20
0.0
 30
0.0
  9
$UCSORGRIGHT
 10
0.0
 20
0.0
 30
0.0
  9
$UCSORGFRONT
 10
0.0
 20
0.0
 30
0.0
  9
$UCSORGBACK
 10
0.0
 20
0.0
 30
0.0
  9
$PUCSBASE
  2

  9
$PUCSNAME
  2

  9
$PUCSORG
 10
0.0
 20
0.0
 30
0.0
  9
$PUCSXDIR
 10
1.0
 20
0.0
 30
0.0
  9
$PUCSYDIR
 10
0.0
 20
1.0
 30
0.0
  9
$PUCSORTHOREF
  2

  9
$PUCSORTHOVIEW
 70
     0
  9
$PUCSORGTOP
 10
0.0
 20
0.0
 30
0.0
  9
$PUCSORGBOTTOM
 10
0.0
 20
0.0
 30
0.0
  9
$PUCSORGLEFT
 10
0.0
 20
0.0
 30
0.0
  9
$PUCSORGRIGHT
 10
0.0
 20
0.0
 30
0.0
  9
$PUCSORGFRONT
 10
0.0
 20
0.0
 30
0.0
  9
$PUCSORGBACK
 10
0.0
 20
0.0
 30
0.0
  9
$USERI1
 70
     0
  9
$USERI2
 70
     0
  9
$USERI3
 70
     0
  9
$USERI4
 70
     0
  9
$USERI5
 70
     0
  9
$USERR1
 40
0.0
  9
$USERR2
 40
0.0
  9
$USERR3
 40
0.0
  9
$USERR4
 40
0.0
  9
$USERR5
 40
0.0
  9
$WORLDVIEW
 70
     1
  9
$SHADEDGE
 70
     3
  9
$SHADEDIF
 70
    70
  9
$TILEMODE
 70
     1
  9
$MAXACTVP
 70
    16
  9
$PINSBASE
 10
0.0
 20
0.0
 30
0.0
  9
$PLIMCHECK
 70
     0
  9
$PEXTMIN
 10
-1.000000000000000E+20
 20
-1.000000000000000E+20
 30
-1.000000000000000E+20
  9
$PEXTMAX
 10
-1.000000000000000E+20
 20
-1.000000000000000E+20
 30
-1.000000000000000E+20
  9
$PLIMMIN
 10
0.0
 20
0.0
  9
$PLIMMAX
 10
12.0
 20
9.0
  9
$UNITMODE
 70
     0
  9
$VISRETAIN
 70
     0
  9
$PLINEGEN
 70
     1
  9
$PSLTSCALE
 70
     0
  9
$TREEDEPTH
 70
  3020
  9
$CMLSTYLE
  2
Standard
  9
$CMLJUST
 70
     0
  9
$CMLSCALE
 40
1.0
  9
$PROXYGRAPHICS
 70
     1
  9
$MEASUREMENT
 70
     0
  9
$CELWEIGHT
370
    -1
  9
$ENDCAPS
280
     0
  9
$JOINSTYLE
280
     0
  9
$LWDISPLAY
290
     0
  9
$INSUNITS
 70
     0
  9
$HYPERLINKBASE
  1

  9
$STYLESHEET
  1

  9
$XEDIT
290
     1
  9
$CEPSNTYPE
380
     0
  9
$PSTYLEMODE
290
     1
  9
$FINGERPRINTGUID
  2
{4295BC86-CFA0-43A6-85A8-18B8A0CE0CE8}
  9
$VERSIONGUID
  2
{AF30DA6B-C42E-4D07-AE09-EA51769036DE}
  9
$EXTNAMES
290
     1
  9
$PSVPSCALE
 40
0.0
  9
$OLESTARTUP
290
     0
  0
ENDSEC
  0
SECTION
  2
CLASSES
  0
CLASS
  1
ACDBDICTIONARYWDFLT
  2
AcDbDictionaryWithDefault
  3
ObjectDBX Classes
 90
        0
280
     0
281
     0
  0
CLASS
  1
ACDBPLACEHOLDER
  2
AcDbPlaceHolder
  3
ObjectDBX Classes
 90
        0
280
     0
281
     0
  0
CLASS
  1
LAYOUT
  2
AcDbLayout
  3
ObjectDBX Classes
 90
        0
280
     0
281
     0
  0
CLASS
  1
MATERIAL
  2
AcDbMaterial
  3
ObjectDBX Classes
 90
     1153
280
     0
281
     0
  0
CLASS
  1
VISUALSTYLE
  2
AcDbVisualStyle
  3
ObjectDBX Classes
 90
     4095
280
     0
281
     0
  0
CLASS
  1
TABLESTYLE
  2
AcDbTableStyle
  3
ObjectDBX Classes
 90
     4095
280
     0
281
     0
  0
CLASS
  1
SCALE
  2
AcDbScale
  3
ObjectDBX Classes
 90
     1153
280
     0
281
     0
  0
CLASS
  1
MLEADERSTYLE
  2
AcDbMLeaderStyle
  3
ACDB_MLEADERSTYLE_CLASS
 90
     4095
280
     0
281
     0
  0
CLASS
  1
DICTIONARYVAR
  2
AcDbDictionaryVar
  3
ObjectDBX Classes
 90
        0
280
     0
281
     0
  0
CLASS
  1
CELLSTYLEMAP
  2
AcDbCellStyleMap
  3
ObjectDBX Classes
 90
     1152
280
     0
281
     0
  0
ENDSEC
  0
SECTION
  2
TABLES
  0
TABLE
  2
VPORT
  5
6B
330
0
100
AcDbSymbolTable
 70
     1
  0
VPORT
  5
80A
330
6B
100
AcDbSymbolTableRecord
100
AcDbViewportTableRecord
  2
*Active
 70
     0
 10
0.0
 20
0.0
 11
1.0
 21
1.0
 12
-238.5921651856452
 22
-10.06165995625997
 13
0.0
 23
0.0
 14
0.0
 24
0.0
 15
0.0
 25
0.0
 16
0.0
 26
0.0
 36
1.0
 17
942.17398
 27
575.8687499999997
 37
0.0
 40
743.2463621887758
 41
2.038126361655773
 42
50.0
 43
0.025
 44
0.0
 50
0.0
 51
0.0
 71
     0
 72
   100
 73
     1
 74
     0
 75
     0
 76
     0
 77
     0
 78
     0
281
     0
 65
     0
110
0.0
120
0.0
130
0.0
111
1.0
121
0.0
131
0.0
112
0.0
122
1.0
132
0.0
 79
     0
146
0.0
  0
ENDTAB
  0
TABLE
  2
LTYPE
  5
68
330
0
100
AcDbSymbolTable
 70
     7
  0
LTYPE
  5
76
330
68
100
AcDbSymbolTableRecord
100
AcDbLinetypeTableRecord
  2
ByBlock
 70
     0
  3

 72
    65
 73
     0
 40
0.0
  0
LTYPE
  5
77
330
68
100
AcDbSymbolTableRecord
100
AcDbLinetypeTableRecord
  2
ByLayer
 70
     0
  3

 72
    65
 73
     0
 40
0.0
  0
LTYPE
  5
78
330
68
100
AcDbSymbolTableRecord
100
AcDbLinetypeTableRecord
  2
CONTINUOUS
 70
     0
  3
Solid line
 72
    65
 73
     0
 40
0.0
  0
LTYPE
  5
86
330
68
100
AcDbSymbolTableRecord
100
AcDbLinetypeTableRecord
  2
DOT
 70
     0
  3
. . . . . . . . . . . . . . . . . . . . . . . . . . . . . . . . .
 72
    65
 73
     2
 40
0.25
 49
0.0
 74
     0
 49
-0.25
 74
     0
  0
LTYPE
  5
87
330
68
100
AcDbSymbolTableRecord
100
AcDbLinetypeTableRecord
  2
HIDDEN
 70
     0
  3
__ __ __ __ __ __ __ __ __ __ __ __ __ __ __ __ __ __ __ __ __ 
 72
    65
 73
     2
 40
0.375
 49
0.25
 74
     0
 49
-0.125
 74
     0
  0
LTYPE
  5
88
330
68
100
AcDbSymbolTableRecord
100
AcDbLinetypeTableRecord
  2
DASHED
 70
     0
  3
__ __ __ __ __ __ __ __ __ __ __ __ __ __ __ __ __ __ __ __ __
 72
    65
 73
     2
 40
0.75
 49
0.5
 74
     0
 49
-0.25
 74
     0
  0
LTYPE
  5
89
330
68
100
AcDbSymbolTableRecord
100
AcDbLinetypeTableRecord
  2
DASHDOT
 70
     0
  3
__ . __ . __ . __ . __ . __ . __ . __ . __ . __ . __ . __ . _
 72
    65
 73
     4
 40
1.0
 49
0.5
 74
     0
 49
-0.25
 74
     0
 49
0.0
 74
     0
 49
-0.25
 74
     0
  0
LTYPE
  5
8A
330
68
100
AcDbSymbolTableRecord
100
AcDbLinetypeTableRecord
  2
DIVIDE
 70
     0
  3
____ . . ____ . . ____ . . ____ . . ____ . . ____ . . ____ . .
 72
    65
 73
     6
 40
1.25
 49
0.5
 74
     0
 49
-0.25
 74
     0
 49
0.0
 74
     0
 49
-0.25
 74
     0
 49
0.0
 74
     0
 49
-0.25
 74
     0
  0
LTYPE
  5
8B
330
68
100
AcDbSymbolTableRecord
100
AcDbLinetypeTableRecord
  2
CENTER
 70
     0
  3
____ _ ____ _ ____ _ ____ _ ____ _ ____ _ ____ _ ____ _ ____ _
 72
    65
 73
     4
 40
2.0
 49
1.25
 74
     0
 49
-0.25
 74
     0
 49
0.25
 74
     0
 49
-0.25
 74
     0
  0
ENDTAB
  0
TABLE
  2
LAYER
  5
65
330
0
100
AcDbSymbolTable
 70
     5
  0
LAYER
  5
73
102
{ACAD_XDICTIONARY
360
875
102
}
330
65
100
AcDbSymbolTableRecord
100
AcDbLayerTableRecord
  2
0
 70
     0
 62
     7
  6
CONTINUOUS
370
    -3
390
72
  0
LAYER
  5
8C
102
{ACAD_XDICTIONARY
360
877
102
}
330
65
100
AcDbSymbolTableRecord
100
AcDbLayerTableRecord
  2
CONSTRUCTION_CLASS
 70
     0
 62
     7
  6
CONTINUOUS
370
    -3
390
72
  0
LAYER
  5
8D
102
{ACAD_XDICTIONARY
360
879
102
}
330
65
100
AcDbSymbolTableRecord
100
AcDbLayerTableRecord
  2
PATTERN_CLASS
 70
     0
 62
     7
  6
CONTINUOUS
370
    -3
390
72
  0
LAYER
  5
8E
102
{ACAD_XDICTIONARY
360
87B
102
}
330
65
100
AcDbSymbolTableRecord
100
AcDbLayerTableRecord
  2
1
 70
     0
 62
     7
  6
CONTINUOUS
370
    -3
390
72
  0
LAYER
  5
140
102
{ACAD_XDICTIONARY
360
87D
102
}
330
65
100
AcDbSymbolTableRecord
100
AcDbLayerTableRecord
  2
-1
 70
     0
 62
     7
  6
CONTINUOUS
370
    -3
390
72
  0
ENDTAB
  0
TABLE
  2
STYLE
  5
66
330
0
100
AcDbSymbolTable
 70
     1
  0
STYLE
  5
74
330
66
100
AcDbSymbolTableRecord
100
AcDbTextStyleTableRecord
  2
STANDARD
 70
     0
 40
0.0
 41
1.0
 50
0.0
 71
     0
 42
0.0
  3
txt
  4

  0
ENDTAB
  0
TABLE
  2
VIEW
  5
69
330
0
100
AcDbSymbolTable
 70
     0
  0
ENDTAB
  0
TABLE
  2
UCS
  5
6A
330
0
100
AcDbSymbolTable
 70
     0
  0
ENDTAB
  0
TABLE
  2
APPID
  5
6C
330
0
100
AcDbSymbolTable
 70
     3
  0
APPID
  5
75
330
6C
100
AcDbSymbolTableRecord
100
AcDbRegAppTableRecord
  2
ACAD
 70
     0
  0
APPID
  5
86D
330
6C
100
AcDbSymbolTableRecord
100
AcDbRegAppTableRecord
  2
ACAD_EXEMPT_FROM_CAD_STANDARDS
 70
     0
  0
APPID
  5
8B9
330
6C
100
AcDbSymbolTableRecord
100
AcDbRegAppTableRecord
  2
ACAD_MLEADERVER
 70
     0
  0
ENDTAB
  0
TABLE
  2
DIMSTYLE
  5
6D
330
0
100
AcDbSymbolTable
 70
     1
100
AcDbDimStyleTable
 71
     1
340
8F
  0
DIMSTYLE
105
8F
330
6D
100
AcDbSymbolTableRecord
100
AcDbDimStyleTableRecord
  2
STANDARD
 70
     0
279
     2
340
74
  0
ENDTAB
  0
TABLE
  2
BLOCK_RECORD
  5
64
330
0
100
AcDbSymbolTable
 70
     0
  0
BLOCK_RECORD
  5
81
330
64
100
AcDbSymbolTableRecord
100
AcDbBlockTableRecord
  2
*Model_Space
340
84
  0
BLOCK_RECORD
  5
7D
330
64
100
AcDbSymbolTableRecord
100
AcDbBlockTableRecord
  2
*Paper_Space
340
80
  0
ENDTAB
  0
ENDSEC
  0
SECTION
  2
BLOCKS
  0
BLOCK
  5
82
330
81
100
AcDbEntity
  8
0
100
AcDbBlockBegin
  2
*Model_Space
 70
     0
 10
0.0
 20
0.0
 30
0.0
  3
*Model_Space
  1

  0
ENDBLK
  5
83
330
81
100
AcDbEntity
  8
0
100
AcDbBlockEnd
  0
BLOCK
  5
7E
330
7D
100
AcDbEntity
 67
     1
  8
0
100
AcDbBlockBegin
  2
*Paper_Space
 70
     0
 10
0.0
 20
0.0
 30
0.0
  3
*Paper_Space
  1

  0
ENDBLK
  5
7F
330
7D
100
AcDbEntity
 67
     1
  8
0
100
AcDbBlockEnd
  0
ENDSEC
  0
SECTION
  2
ENTITIES
  0
LINE
  5
91
330
81
100
AcDbEntity
  8
1
  6
Continuous
 62
    92
100
AcDbLine
 10
1209.460163597253
 20
450.6900813638126
 30
0.0
 11
1401.938678979866
 21
450.6900813638126
 31
0.0
  0
LINE
  5
92
330
81
100
AcDbEntity
  8
1
  6
Continuous
 62
    92
100
AcDbLine
 10
1209.228913597252
 20
712.8463313638125
 30
0.0
 11
1401.70742897987
 21
712.8463313638125
 31
0.0
  0
LINE
  5
93
330
81
100
AcDbEntity
  8
1
  6
Continuous
 62
     3
100
AcDbLine
 10
1382.651178979867
 20
689.1338313638124
 30
0.0
 11
1395.76367897987
 21
689.1338313638124
 31
0.0
  0
LINE
  5
94
330
81
100
AcDbEntity
  8
1
  6
Continuous
 62
     3
100
AcDbLine
 10
1389.207428979869
 20
712.8463313638125
 30
0.0
 11
1395.76367897987
 21
689.1338313638124
 31
0.0
  0
LINE
  5
95
330
81
100
AcDbEntity
  8
1
  6
Continuous
 62
     3
100
AcDbLine
 10
1389.207428979869
 20
712.8463313638125
 30
0.0
 11
1382.651178979867
 21
689.1338313638124
 31
0.0
  0
LINE
  5
96
330
81
100
AcDbEntity
  8
1
  6
Continuous
 62
     3
100
AcDbLine
 10
1382.651178979867
 20
689.1338313638124
 30
0.0
 11
1395.76367897987
 21
689.1338313638124
 31
0.0
  0
LINE
  5
97
330
81
100
AcDbEntity
  8
1
  6
Continuous
 62
     3
100
AcDbLine
 10
1395.994928979867
 20
474.4025813638127
 30
0.0
 11
1382.882428979868
 21
474.4025813638127
 31
0.0
  0
LINE
  5
98
330
81
100
AcDbEntity
  8
1
  6
Continuous
 62
     3
100
AcDbLine
 10
1389.438678979866
 20
450.6900813638126
 30
0.0
 11
1382.882428979868
 21
474.4025813638127
 31
0.0
  0
LINE
  5
99
330
81
100
AcDbEntity
  8
1
  6
Continuous
 62
     3
100
AcDbLine
 10
1389.438678979866
 20
450.6900813638126
 30
0.0
 11
1395.994928979867
 21
474.4025813638127
 31
0.0
  0
LINE
  5
9A
330
81
100
AcDbEntity
  8
1
  6
Continuous
 62
     3
100
AcDbLine
 10
1395.994928979867
 20
474.4025813638127
 30
0.0
 11
1382.882428979868
 21
474.4025813638127
 31
0.0
  0
LINE
  5
9B
330
81
100
AcDbEntity
  8
1
  6
Continuous
 62
     4
100
AcDbLine
 10
563.0476635972537
 20
712.8463313638125
 30
0.0
 11
782.4987067638598
 21
712.8463313638125
 31
0.0
  0
LINE
  5
9C
330
81
100
AcDbEntity
  8
1
  6
Continuous
 62
     4
100
AcDbLine
 10
562.2289135972545
 20
450.6900813638126
 30
0.0
 11
756.9598511750487
 21
450.6900813638126
 31
0.0
  0
LINE
  5
9D
330
81
100
AcDbEntity
  8
1
  6
Continuous
 62
     7
100
AcDbLine
 10
599.1539135972542
 20
819.8463313638125
 30
0.0
 11
1150.816413597252
 21
819.8463313638125
 31
0.0
  0
LINE
  5
9E
330
81
100
AcDbEntity
  8
1
  6
Continuous
 62
     7
100
AcDbLine
 10
599.2226635972537
 20
605.8463313638127
 30
0.0
 11
1151.57266359725
 21
605.8463313638127
 31
0.0
  0
LINE
  5
9F
330
81
100
AcDbEntity
  8
1
  6
Continuous
 62
     7
100
AcDbLine
 10
599.2226635972537
 20
515.6900813638127
 30
0.0
 11
1151.47266359725
 21
515.6900813638127
 31
0.0
  0
LINE
  5
A0
330
81
100
AcDbEntity
  8
1
  6
Continuous
 62
     7
100
AcDbLine
 10
598.566413597254
 20
385.6900813638126
 30
0.0
 11
1151.478913597252
 21
385.6900813638126
 31
0.0
  0
LINE
  5
A1
330
81
100
AcDbEntity
  8
1
  6
Continuous
 62
     4
100
AcDbLine
 10
154.9499701778182
 20
712.8463313638125
 30
0.0
 11
543.047663597254
 21
712.8463313638125
 31
0.0
  0
LINE
  5
A2
330
81
100
AcDbEntity
  8
1
  6
Continuous
 62
     4
100
AcDbLine
 10
154.5812201778184
 20
450.6900813638126
 30
0.0
 11
542.2289135972538
 21
450.6900813638126
 31
0.0
  0
LINE
  5
B3
330
81
100
AcDbEntity
  8
1
  6
DASHED
 62
     4
100
AcDbLine
 10
614.228913597254
 20
769.8463313638122
 30
0.0
 11
1166.578913597253
 21
769.8463313638122
 31
0.0
  0
LINE
  5
B4
330
81
100
AcDbEntity
  8
1
  6
DASHED
 62
     4
100
AcDbLine
 10
583.603913597254
 20
655.8463313638127
 30
0.0
 11
1136.378913597251
 21
655.8463313638127
 31
0.0
  0
LINE
  5
C5
330
81
100
AcDbEntity
  8
1
  6
DASHED
 62
     4
100
AcDbLine
 10
607.7789135972544
 20
480.6900813638127
 30
0.0
 11
1160.55391359725
 21
480.6900813638127
 31
0.0
  0
LINE
  5
C6
330
81
100
AcDbEntity
  8
1
  6
DASHED
 62
     4
100
AcDbLine
 10
589.1789135972537
 20
420.6900813638126
 30
0.0
 11
1141.953913597254
 21
420.6900813638126
 31
0.0
  0
LINE
  5
4A9
330
81
100
AcDbEntity
  8
1
  6
Continuous
 62
     7
100
AcDbLine
 10
607.1186690351533
 20
474.7389096940603
 30
0.0
 11
607.6452944502592
 21
480.785192877095
 31
0.0
  0
LINE
  5
4AA
330
81
100
AcDbEntity
  8
1
  6
Continuous
 62
     7
100
AcDbLine
 10
565.5370701007035
 20
475.2782424928351
 30
0.0
 11
564.4007822280322
 21
477.9361683802159
 31
0.0
  0
LINE
  5
4AB
330
81
100
AcDbEntity
  8
1
  6
Continuous
 62
     7
100
AcDbLine
 10
560.5997319387355
 20
475.222472924726
 30
0.0
 11
561.6756924974472
 21
477.9053872037303
 31
0.0
  0
LINE
  5
4AD
330
81
100
AcDbEntity
  8
1
  6
Continuous
 62
     7
100
AcDbLine
 10
590.1902286340795
 20
408.3203712032821
 30
0.0
 11
591.4389817171148
 21
402.3810538692036
 31
0.0
  0
LINE
  5
4AE
330
81
100
AcDbEntity
  8
1
  6
Continuous
 62
     7
100
AcDbLine
 10
595.6473385872931
 20
391.0111598018268
 30
0.0
 11
598.566413597254
 21
385.6900813638126
 31
0.0
  0
LINE
  5
4AF
330
81
100
AcDbEntity
  8
1
  6
Continuous
 62
     7
100
AcDbLine
 10
593.2638766133319
 20
396.5927351776463
 30
0.0
 11
595.6473385872931
 21
391.0111598018268
 31
0.0
  0
LINE
  5
4B0
330
81
100
AcDbEntity
  8
1
  6
Continuous
 62
     7
100
AcDbLine
 10
591.4389817171148
 20
402.3810538692036
 30
0.0
 11
593.2638766133319
 21
396.5927351776463
 31
0.0
  0
LINE
  5
4B1
330
81
100
AcDbEntity
  8
1
  6
Continuous
 62
     7
100
AcDbLine
 10
562.0224276578012
 20
420.4699199400943
 30
0.0
 11
589.065693597357
 21
420.4699199400943
 31
0.0
  0
LINE
  5
4B2
330
81
100
AcDbEntity
  8
1
  6
Continuous
 62
     7
100
AcDbLine
 10
560.2861503298429
 20
443.6756031723668
 30
0.0
 11
559.4772016511206
 21
440.900477555826
 31
0.0
  0
LINE
  5
4B3
330
81
100
AcDbEntity
  8
1
  6
Continuous
 62
     7
100
AcDbLine
 10
560.5021547042054
 20
423.8302571314352
 30
0.0
 11
561.6373499731637
 21
421.1718644114395
 31
0.0
  0
LINE
  5
4B4
330
81
100
AcDbEntity
  8
1
  6
Continuous
 62
     7
100
AcDbLine
 10
561.6373499731637
 20
421.1718644114395
 30
0.0
 11
562.0224276578012
 21
420.4699199400943
 31
0.0
  0
LINE
  5
4B5
330
81
100
AcDbEntity
  8
1
  6
Continuous
 62
     7
100
AcDbLine
 10
559.4772016511206
 20
440.900477555826
 30
0.0
 11
558.944158158383
 21
438.0594240914855
 31
0.0
  0
LINE
  5
4B6
330
81
100
AcDbEntity
  8
1
  6
Continuous
 62
     7
100
AcDbLine
 10
558.944158158383
 20
438.0594240914855
 30
0.0
 11
558.6921533518569
 21
435.1798036772861
 31
0.0
  0
LINE
  5
4B7
330
81
100
AcDbEntity
  8
1
  6
Continuous
 62
     7
100
AcDbLine
 10
558.7236141755888
 20
432.2893486319754
 30
0.0
 11
559.0382376446469
 21
429.4158956177248
 31
0.0
  0
LINE
  5
4B8
330
81
100
AcDbEntity
  8
1
  6
Continuous
 62
     7
100
AcDbLine
 10
559.0382376446469
 20
429.4158956177248
 30
0.0
 11
559.6329937630348
 21
426.5871175578503
 31
0.0
  0
LINE
  5
4B9
330
81
100
AcDbEntity
  8
1
  6
Continuous
 62
     7
100
AcDbLine
 10
559.6329937630348
 20
426.5871175578503
 30
0.0
 11
560.5021547042054
 21
423.8302571314352
 31
0.0
  0
LINE
  5
4BA
330
81
100
AcDbEntity
  8
1
  6
Continuous
 62
     7
100
AcDbLine
 10
558.6921533518569
 20
435.1798036772861
 30
0.0
 11
558.7236141755888
 21
432.2893486319754
 31
0.0
  0
LINE
  5
4BB
330
81
100
AcDbEntity
  8
1
  6
Continuous
 62
     7
100
AcDbLine
 10
566.5690395712243
 20
458.2084448048061
 30
0.0
 11
567.100915238871
 21
461.0497171301132
 31
0.0
  0
LINE
  5
4BC
330
81
100
AcDbEntity
  8
1
  6
Continuous
 62
     7
100
AcDbLine
 10
559.9535994388052
 20
458.1337202818074
 30
0.0
 11
559.3576806362519
 21
460.9622536355358
 31
0.0
  0
LINE
  5
4BD
330
81
100
AcDbEntity
  8
1
  6
Continuous
 62
     7
100
AcDbLine
 10
564.6852710833563
 20
452.7500726352936
 30
0.0
 11
565.7612316420694
 21
455.4329869142983
 31
0.0
  0
LINE
  5
4BE
330
81
100
AcDbEntity
  8
1
  6
Continuous
 62
     7
100
AcDbLine
 10
565.7612316420694
 20
455.4329869142983
 30
0.0
 11
566.5690395712243
 21
458.2084448048061
 31
0.0
  0
LINE
  5
4BF
330
81
100
AcDbEntity
  8
1
  6
Continuous
 62
     7
100
AcDbLine
 10
561.9601813527725
 20
452.7192914588082
 30
0.0
 11
560.8238934801017
 21
455.3772173461891
 31
0.0
  0
LINE
  5
4C0
330
81
100
AcDbEntity
  8
1
  6
Continuous
 62
     7
100
AcDbLine
 10
560.8238934801017
 20
455.3772173461891
 30
0.0
 11
559.9535994388052
 21
458.1337202818074
 31
0.0
  0
LINE
  5
4C1
330
81
100
AcDbEntity
  8
1
  6
Continuous
 62
     7
100
AcDbLine
 10
563.110193154083
 20
449.5536973680648
 30
0.0
 11
562.6980186834158
 21
448.9220592621311
 31
0.0
  0
LINE
  5
4C2
330
81
100
AcDbEntity
  8
1
  6
Continuous
 62
     7
100
AcDbLine
 10
562.6980186834158
 20
448.9220592621311
 30
0.0
 11
561.3632135765572
 21
446.3580749643837
 31
0.0
  0
LINE
  5
4C3
330
81
100
AcDbEntity
  8
1
  6
Continuous
 62
     7
100
AcDbLine
 10
561.3632135765572
 20
446.3580749643837
 30
0.0
 11
560.2861503298429
 21
443.6756031723668
 31
0.0
  0
LINE
  5
4C4
330
81
100
AcDbEntity
  8
1
  6
Continuous
 62
     7
100
AcDbLine
 10
562.9396051746698
 20
449.553732427111
 30
0.0
 11
563.3515199834473
 21
450.1855398989301
 31
0.0
  0
LINE
  5
4C5
330
81
100
AcDbEntity
  8
1
  6
Continuous
 62
     7
100
AcDbLine
 10
563.5103143049658
 20
449.9536019400941
 30
0.0
 11
563.3515199834473
 21
450.1855398989301
 31
0.0
  0
LINE
  5
4C6
330
81
100
AcDbEntity
  8
1
  6
Continuous
 62
     7
100
AcDbLine
 10
563.3515199834473
 20
450.1855398989301
 30
0.0
 11
564.6852710833563
 21
452.7500726352936
 31
0.0
  0
LINE
  5
4C7
330
81
100
AcDbEntity
  8
1
  6
Continuous
 62
     7
100
AcDbLine
 10
563.3515199834473
 20
450.1855398989301
 30
0.0
 11
561.9601813527725
 21
452.7192914588082
 31
0.0
  0
LINE
  5
4C8
330
81
100
AcDbEntity
  8
1
  6
Continuous
 62
     7
100
AcDbLine
 10
567.0032829445525
 20
469.6932062034886
 30
0.0
 11
566.4073641419995
 21
472.5217395572167
 31
0.0
  0
LINE
  5
4C9
330
81
100
AcDbEntity
  8
1
  6
Continuous
 62
     7
100
AcDbLine
 10
566.4073641419995
 20
472.5217395572167
 30
0.0
 11
565.5370701007035
 21
475.2782424928351
 31
0.0
  0
LINE
  5
4CA
330
81
100
AcDbEntity
  8
1
  6
Continuous
 62
     7
100
AcDbLine
 10
567.100915238871
 20
461.0497171301132
 30
0.0
 11
567.3517363915776
 21
463.9294408845282
 31
0.0
  0
LINE
  5
4CB
330
81
100
AcDbEntity
  8
1
  6
Continuous
 62
     7
100
AcDbLine
 10
567.3517363915776
 20
463.9294408845282
 30
0.0
 11
567.3190874845297
 21
466.8198827540801
 31
0.0
  0
LINE
  5
4CC
330
81
100
AcDbEntity
  8
1
  6
Continuous
 62
     7
100
AcDbLine
 10
567.3190874845297
 20
466.8198827540801
 30
0.0
 11
567.0032829445525
 21
469.6932062034886
 31
0.0
  0
LINE
  5
4CD
330
81
100
AcDbEntity
  8
1
  6
Continuous
 62
     7
100
AcDbLine
 10
559.2600483419339
 20
469.6057427089108
 30
0.0
 11
559.7919240095808
 21
472.4470150342177
 31
0.0
  0
LINE
  5
4CE
330
81
100
AcDbEntity
  8
1
  6
Continuous
 62
     7
100
AcDbLine
 10
559.7919240095808
 20
472.4470150342177
 30
0.0
 11
560.5997319387355
 21
475.222472924726
 31
0.0
  0
LINE
  5
4CF
330
81
100
AcDbEntity
  8
1
  6
Continuous
 62
     7
100
AcDbLine
 10
559.3576806362519
 20
460.9622536355358
 30
0.0
 11
559.0418760962743
 21
463.8355770849438
 31
0.0
  0
LINE
  5
4D0
330
81
100
AcDbEntity
  8
1
  6
Continuous
 62
     7
100
AcDbLine
 10
559.0418760962743
 20
463.8355770849438
 30
0.0
 11
559.0092271892275
 21
466.7260189544951
 31
0.0
  0
LINE
  5
4D1
330
81
100
AcDbEntity
  8
1
  6
Continuous
 62
     7
100
AcDbLine
 10
559.0092271892275
 20
466.7260189544951
 30
0.0
 11
559.2600483419339
 21
469.6057427089108
 31
0.0
  0
LINE
  5
4D2
330
81
100
AcDbEntity
  8
1
  6
Continuous
 62
     7
100
AcDbLine
 10
595.071760363126
 20
443.8922603161129
 30
0.0
 11
592.8103526896678
 21
438.2601283936792
 31
0.0
  0
LINE
  5
4D3
330
81
100
AcDbEntity
  8
1
  6
Continuous
 62
     7
100
AcDbLine
 10
589.992698848524
 20
426.4683691745617
 30
0.0
 11
589.463588227616
 21
420.4223029651889
 31
0.0
  0
LINE
  5
4D4
330
81
100
AcDbEntity
  8
1
  6
Continuous
 62
     7
100
AcDbLine
 10
589.529643539054
 20
414.3534883071934
 30
0.0
 11
590.1902286340795
 21
408.3203712032821
 31
0.0
  0
LINE
  5
4D5
330
81
100
AcDbEntity
  8
1
  6
Continuous
 62
     7
100
AcDbLine
 10
589.463588227616
 20
420.4223029651889
 30
0.0
 11
589.529643539054
 21
414.3534883071934
 31
0.0
  0
LINE
  5
4D6
330
81
100
AcDbEntity
  8
1
  6
Continuous
 62
     7
100
AcDbLine
 10
591.1118797772582
 20
432.4334600125986
 30
0.0
 11
589.992698848524
 21
426.4683691745617
 31
0.0
  0
LINE
  5
4D7
330
81
100
AcDbEntity
  8
1
  6
Continuous
 62
     7
100
AcDbLine
 10
592.8103526896678
 20
438.2601283936792
 30
0.0
 11
591.1118797772582
 21
432.4334600125986
 31
0.0
  0
LINE
  5
4D8
330
81
100
AcDbEntity
  8
1
  6
Continuous
 62
     7
100
AcDbLine
 10
597.8743242055262
 20
449.2756152706506
 30
0.0
 11
595.071760363126
 21
443.8922603161129
 31
0.0
  0
LINE
  5
4D9
330
81
100
AcDbEntity
  8
1
  6
Continuous
 62
     7
100
AcDbLine
 10
602.0467698256255
 20
457.3129323386829
 30
0.0
 11
604.3058622895386
 21
462.9459933091293
 31
0.0
  0
LINE
  5
4DA
330
81
100
AcDbEntity
  8
1
  6
Continuous
 62
     7
100
AcDbLine
 10
598.7397278980328
 20
450.6018059692603
 30
0.0
 11
597.8743242055262
 21
449.2756152706506
 31
0.0
  0
LINE
  5
4DB
330
81
100
AcDbEntity
  8
1
  6
Continuous
 62
     7
100
AcDbLine
 10
598.3815604767395
 20
450.6018795794187
 30
0.0
 11
599.2464189817745
 21
451.9284258795341
 31
0.0
  0
LINE
  5
4DC
330
81
100
AcDbEntity
  8
1
  6
Continuous
 62
     7
100
AcDbLine
 10
599.2464189817745
 20
451.9284258795341
 30
0.0
 11
602.0467698256255
 21
457.3129323386829
 31
0.0
  0
LINE
  5
4DD
330
81
100
AcDbEntity
  8
1
  6
Continuous
 62
     7
100
AcDbLine
 10
604.3058622895386
 20
462.9459933091293
 30
0.0
 11
606.0019400781392
 21
468.7733593343835
 31
0.0
  0
LINE
  5
4DE
330
81
100
AcDbEntity
  8
1
  6
Continuous
 62
     7
100
AcDbLine
 10
606.0019400781392
 20
468.7733593343835
 30
0.0
 11
607.1186690351533
 21
474.7389096940603
 31
0.0
  0
LINE
  5
4DF
330
81
100
AcDbEntity
  8
1
  6
Continuous
 62
     7
100
AcDbLine
 10
563.0094435973577
 20
480.4699199400938
 30
0.0
 11
607.665693597357
 21
480.4699199400938
 31
0.0
  0
LINE
  5
4E0
330
81
100
AcDbEntity
  8
1
  6
Continuous
 62
     7
100
AcDbLine
 10
561.6756924974472
 20
477.9053872037303
 30
0.0
 11
563.0094435973577
 21
480.4699199400938
 31
0.0
  0
LINE
  5
4E1
330
81
100
AcDbEntity
  8
1
  6
Continuous
 62
     7
100
AcDbLine
 10
564.4007822280322
 20
477.9361683802159
 30
0.0
 11
563.0094435973577
 21
480.4699199400938
 31
0.0
  0
LINE
  5
4E2
330
81
100
AcDbEntity
  8
1
  6
Continuous
 62
     7
100
AcDbLine
 10
601.4494555245323
 20
510.1937918014407
 30
0.0
 11
598.5281935973578
 21
515.5136699400942
 31
0.0
  0
LINE
  5
4E3
330
81
100
AcDbEntity
  8
1
  6
Continuous
 62
     7
100
AcDbLine
 10
595.6524120812284
 20
510.1939611335236
 30
0.0
 11
598.5739847915128
 21
515.5136686025298
 31
0.0
  0
LINE
  5
4E4
330
81
100
AcDbEntity
  8
1
  6
Continuous
 62
     7
100
AcDbLine
 10
590.1871767843632
 20
492.8873135225146
 30
0.0
 11
591.4387179888792
 21
498.8260439651826
 31
0.0
  0
LINE
  5
4E5
330
81
100
AcDbEntity
  8
1
  6
Continuous
 62
     7
100
AcDbLine
 10
589.5237594680061
 20
486.854507200277
 30
0.0
 11
590.1871767843632
 21
492.8873135225146
 31
0.0
  0
LINE
  5
4E6
330
81
100
AcDbEntity
  8
1
  6
Continuous
 62
     7
100
AcDbLine
 10
589.4512695009089
 20
480.4699199400938
 30
0.0
 11
589.5237594680061
 21
486.854507200277
 31
0.0
  0
LINE
  5
4E7
330
81
100
AcDbEntity
  8
1
  6
Continuous
 62
     7
100
AcDbLine
 10
593.2663300555937
 20
504.6135053076771
 30
0.0
 11
595.6524120812284
 21
510.1939611335236
 31
0.0
  0
LINE
  5
4E8
330
81
100
AcDbEntity
  8
1
  6
Continuous
 62
     7
100
AcDbLine
 10
591.4387179888792
 20
498.8260439651826
 30
0.0
 11
593.2663300555937
 21
504.6135053076771
 31
0.0
  0
LINE
  5
4E9
330
81
100
AcDbEntity
  8
1
  6
Continuous
 62
     7
100
AcDbLine
 10
606.9136797550696
 20
492.8868249400826
 30
0.0
 11
605.6624854942302
 21
498.8256284878445
 31
0.0
  0
LINE
  5
4EA
330
81
100
AcDbEntity
  8
1
  6
Continuous
 62
     7
100
AcDbLine
 10
607.5767446328267
 20
486.8539798711988
 30
0.0
 11
606.9136797550696
 21
492.8868249400826
 31
0.0
  0
LINE
  5
4EB
330
81
100
AcDbEntity
  8
1
  6
Continuous
 62
     7
100
AcDbLine
 10
607.6452944502592
 20
480.785192877095
 30
0.0
 11
607.5767446328267
 21
486.8539798711988
 31
0.0
  0
LINE
  5
4EC
330
81
100
AcDbEntity
  8
1
  6
Continuous
 62
     7
100
AcDbLine
 10
603.8352115350119
 20
504.6131965898411
 30
0.0
 11
601.4494555245323
 21
510.1937918014407
 31
0.0
  0
LINE
  5
4ED
330
81
100
AcDbEntity
  8
1
  6
Continuous
 62
     7
100
AcDbLine
 10
605.6624854942302
 20
498.8256284878445
 30
0.0
 11
603.8352115350119
 21
504.6131965898411
 31
0.0
  0
LINE
  5
4EE
330
81
100
AcDbEntity
  8
1
  6
Continuous
 62
     7
100
AcDbLine
 10
590.5185131236155
 20
623.8691577200357
 30
0.0
 11
594.4451391103714
 21
614.6738111371362
 31
0.0
  0
LINE
  5
4EF
330
81
100
AcDbEntity
  8
1
  6
Continuous
 62
     7
100
AcDbLine
 10
594.4451391103714
 20
614.6738111371362
 30
0.0
 11
599.2541588961387
 21
605.9076193117427
 31
0.0
  0
LINE
  5
4F0
330
81
100
AcDbEntity
  8
1
  6
Continuous
 62
     7
100
AcDbLine
 10
614.2111289999375
 20
762.5717239464743
 30
0.0
 11
614.098196846011
 21
772.5697255842073
 31
0.0
  0
LINE
  5
4F1
330
81
100
AcDbEntity
  8
1
  6
Continuous
 62
     7
100
AcDbLine
 10
567.8438986653481
 20
760.1490404097154
 30
0.0
 11
565.7214798092375
 21
765.1136555897222
 31
0.0
  0
LINE
  5
4F2
330
81
100
AcDbEntity
  8
1
  6
Continuous
 62
     7
100
AcDbLine
 10
558.621676140594
 20
760.0448710475327
 30
0.0
 11
560.6314124346838
 21
765.0561608729711
 31
0.0
  0
LINE
  5
4F4
330
81
100
AcDbEntity
  8
1
  6
Continuous
 62
     7
100
AcDbLine
 10
556.52495443275
 20
695.9364246737832
 30
0.0
 11
555.5293074780284
 21
690.6297540765177
 31
0.0
  0
LINE
  5
4F5
330
81
100
AcDbEntity
  8
1
  6
Continuous
 62
     7
100
AcDbLine
 10
589.7713567419609
 20
692.5139570874705
 30
0.0
 11
586.9732135584197
 21
682.9148329011761
 31
0.0
  0
LINE
  5
4F6
330
81
100
AcDbEntity
  8
1
  6
Continuous
 62
     7
100
AcDbLine
 10
563.1226635972539
 20
655.8463313638127
 30
0.0
 11
583.603913597253
 21
655.8463313638127
 31
0.0
  0
LINE
  5
4F7
330
81
100
AcDbEntity
  8
1
  6
Continuous
 62
     7
100
AcDbLine
 10
562.3371843865934
 20
655.8463313638127
 30
0.0
 11
575.5976635972537
 21
655.8463313638127
 31
0.0
  0
LINE
  5
4F8
330
81
100
AcDbEntity
  8
1
  6
Continuous
 62
     7
100
AcDbLine
 10
555.7050341406303
 20
674.4849123887237
 30
0.0
 11
556.815951216148
 21
669.2011704440743
 31
0.0
  0
LINE
  5
4F9
330
81
100
AcDbEntity
  8
1
  6
Continuous
 62
     7
100
AcDbLine
 10
556.815951216148
 20
669.2011704440743
 30
0.0
 11
558.439416197956
 21
664.0517600759674
 31
0.0
  0
LINE
  5
4FA
330
81
100
AcDbEntity
  8
1
  6
Continuous
 62
     7
100
AcDbLine
 10
558.439416197956
 20
664.0517600759674
 30
0.0
 11
560.5597942308039
 21
659.0862729212017
 31
0.0
  0
LINE
  5
4FB
330
81
100
AcDbEntity
  8
1
  6
Continuous
 62
     7
100
AcDbLine
 10
560.5597942308039
 20
659.0862729212017
 30
0.0
 11
562.3371843865934
 21
655.8463313638127
 31
0.0
  0
LINE
  5
4FC
330
81
100
AcDbEntity
  8
1
  6
Continuous
 62
     7
100
AcDbLine
 10
555.0585995121462
 20
685.2510460813594
 30
0.0
 11
555.1173637101303
 21
679.8521005866017
 31
0.0
  0
LINE
  5
4FD
330
81
100
AcDbEntity
  8
1
  6
Continuous
 62
     7
100
AcDbLine
 10
555.1173637101303
 20
679.8521005866017
 30
0.0
 11
555.7050341406303
 21
674.4849123887237
 31
0.0
  0
LINE
  5
4FE
330
81
100
AcDbEntity
  8
1
  6
Continuous
 62
     7
100
AcDbLine
 10
555.5293074780284
 20
690.6297540765177
 30
0.0
 11
555.0585995121462
 21
685.2510460813594
 31
0.0
  0
LINE
  5
4FF
330
81
100
AcDbEntity
  8
1
  6
Continuous
 62
     7
100
AcDbLine
 10
584.2577414832262
 20
663.127094767058
 30
0.0
 11
584.3665640720864
 21
653.1290475545447
 31
0.0
  0
LINE
  5
500
330
81
100
AcDbEntity
  8
1
  6
Continuous
 62
     7
100
AcDbLine
 10
585.4548426470873
 20
643.1898101510665
 30
0.0
 11
587.5120964906375
 21
633.4051028461602
 31
0.0
  0
LINE
  5
501
330
81
100
AcDbEntity
  8
1
  6
Continuous
 62
     7
100
AcDbLine
 10
587.5120964906375
 20
633.4051028461602
 30
0.0
 11
590.5185131236155
 21
623.8691577200357
 31
0.0
  0
LINE
  5
502
330
81
100
AcDbEntity
  8
1
  6
Continuous
 62
     7
100
AcDbLine
 10
584.3665640720864
 20
653.1290475545447
 30
0.0
 11
585.4548426470873
 21
643.1898101510665
 31
0.0
  0
LINE
  5
503
330
81
100
AcDbEntity
  8
1
  6
Continuous
 62
     7
100
AcDbLine
 10
585.129422901527
 20
673.0876651284627
 30
0.0
 11
584.2577414832262
 21
663.127094767058
 31
0.0
  0
LINE
  5
504
330
81
100
AcDbEntity
  8
1
  6
Continuous
 62
     7
100
AcDbLine
 10
586.9732135584197
 20
682.9148329011761
 30
0.0
 11
585.129422901527
 21
673.0876651284627
 31
0.0
  0
LINE
  5
505
330
81
100
AcDbEntity
  8
1
  6
Continuous
 62
     7
100
AcDbLine
 10
570.5825689105397
 20
749.7170129124017
 30
0.0
 11
569.4694801117694
 21
755.0002977819104
 31
0.0
  0
LINE
  5
506
330
81
100
AcDbEntity
  8
1
  6
Continuous
 62
     7
100
AcDbLine
 10
569.7714660678009
 20
728.2651654213353
 30
0.0
 11
570.7649316967757
 21
733.5722448187413
 31
0.0
  0
LINE
  5
507
330
81
100
AcDbEntity
  8
1
  6
Continuous
 62
     7
100
AcDbLine
 10
568.2625995013355
 20
723.081017721768
 30
0.0
 11
569.7714660678009
 21
728.2651654213353
 31
0.0
  0
LINE
  5
508
330
81
100
AcDbEntity
  8
1
  6
Continuous
 62
     7
100
AcDbLine
 10
559.0403769765813
 20
722.9768483595852
 30
0.0
 11
557.4147955301592
 21
728.1255909873904
 31
0.0
  0
LINE
  5
509
330
81
100
AcDbEntity
  8
1
  6
Continuous
 62
     7
100
AcDbLine
 10
562.5409675979316
 20
710.9195611471737
 30
0.0
 11
560.0477477051863
 21
706.1304150591174
 31
0.0
  0
LINE
  5
50A
330
81
100
AcDbEntity
  8
1
  6
Continuous
 62
     7
100
AcDbLine
 10
560.0477477051863
 20
706.1304150591174
 30
0.0
 11
558.0359517518622
 21
701.1199517343817
 31
0.0
  0
LINE
  5
50B
330
81
100
AcDbEntity
  8
1
  6
Continuous
 62
     7
100
AcDbLine
 10
558.0359517518622
 20
701.1199517343817
 30
0.0
 11
556.52495443275
 21
695.9364246737832
 31
0.0
  0
LINE
  5
50C
330
81
100
AcDbEntity
  8
1
  6
Continuous
 62
     7
100
AcDbLine
 10
566.2528632072453
 20
718.0697278963298
 30
0.0
 11
568.2625995013355
 21
723.081017721768
 31
0.0
  0
LINE
  5
50D
330
81
100
AcDbEntity
  8
1
  6
Continuous
 62
     7
100
AcDbLine
 10
562.992215681053
 20
712.0994338436067
 30
0.0
 11
563.7616120446758
 21
713.2795574054887
 31
0.0
  0
LINE
  5
50E
330
81
100
AcDbEntity
  8
1
  6
Continuous
 62
     7
100
AcDbLine
 10
564.0582165146691
 20
712.8463313638124
 30
0.0
 11
563.7616120446758
 21
713.2795574054887
 31
0.0
  0
LINE
  5
50F
330
81
100
AcDbEntity
  8
1
  6
Continuous
 62
     7
100
AcDbLine
 10
563.7616120446758
 20
713.2795574054887
 30
0.0
 11
561.1627958326923
 21
718.0122331795785
 31
0.0
  0
LINE
  5
510
330
81
100
AcDbEntity
  8
1
  6
Continuous
 62
     7
100
AcDbLine
 10
561.1627958326923
 20
718.0122331795785
 30
0.0
 11
559.0403769765813
 21
722.9768483595852
 31
0.0
  0
LINE
  5
511
330
81
100
AcDbEntity
  8
1
  6
Continuous
 62
     7
100
AcDbLine
 10
563.3108489718248
 20
712.0993683584576
 30
0.0
 11
562.5409675979316
 21
710.9195611471737
 31
0.0
  0
LINE
  5
512
330
81
100
AcDbEntity
  8
1
  6
Continuous
 62
     7
100
AcDbLine
 10
563.7616120446758
 20
713.2795574054887
 30
0.0
 11
566.2528632072453
 21
718.0697278963298
 31
0.0
  0
LINE
  5
513
330
81
100
AcDbEntity
  8
1
  6
Continuous
 62
     7
100
AcDbLine
 10
555.6508468707595
 20
744.1747429310558
 30
0.0
 11
556.1193439451539
 21
749.5536439505597
 31
0.0
  0
LINE
  5
514
330
81
100
AcDbEntity
  8
1
  6
Continuous
 62
     7
100
AcDbLine
 10
556.3017067313901
 20
733.4088758568988
 30
0.0
 11
555.7118302338795
 21
738.7758220466803
 31
0.0
  0
LINE
  5
515
330
81
100
AcDbEntity
  8
1
  6
Continuous
 62
     7
100
AcDbLine
 10
555.7118302338795
 20
738.7758220466803
 30
0.0
 11
555.6508468707595
 21
744.1747429310558
 31
0.0
  0
LINE
  5
516
330
81
100
AcDbEntity
  8
1
  6
Continuous
 62
     7
100
AcDbLine
 10
557.4147955301592
 20
728.1255909873904
 30
0.0
 11
556.3017067313901
 21
733.4088758568988
 31
0.0
  0
LINE
  5
517
330
81
100
AcDbEntity
  8
1
  6
Continuous
 62
     7
100
AcDbLine
 10
556.1193439451539
 20
749.5536439505597
 30
0.0
 11
557.1128095741287
 21
754.8607233479653
 31
0.0
  0
LINE
  5
518
330
81
100
AcDbEntity
  8
1
  6
Continuous
 62
     7
100
AcDbLine
 10
569.4694801117694
 20
755.0002977819104
 30
0.0
 11
567.8438986653481
 21
760.1490404097154
 31
0.0
  0
LINE
  5
519
330
81
100
AcDbEntity
  8
1
  6
Continuous
 62
     7
100
AcDbLine
 10
557.1128095741287
 20
754.8607233479653
 30
0.0
 11
558.621676140594
 21
760.0448710475327
 31
0.0
  0
LINE
  5
51A
330
81
100
AcDbEntity
  8
1
  6
Continuous
 62
     7
100
AcDbLine
 10
604.9878594371147
 20
723.9024314614474
 30
0.0
 11
608.7095933150592
 21
733.1825978048515
 31
0.0
  0
LINE
  5
51B
330
81
100
AcDbEntity
  8
1
  6
Continuous
 62
     7
100
AcDbLine
 10
599.5396849270762
 20
712.8462100950176
 30
0.0
 11
598.1139786791252
 21
710.6613819259738
 31
0.0
  0
LINE
  5
51C
330
81
100
AcDbEntity
  8
1
  6
Continuous
 62
     7
100
AcDbLine
 10
598.1139786791252
 20
710.6613819259738
 30
0.0
 11
593.4969048036712
 21
701.7925928740171
 31
0.0
  0
LINE
  5
51D
330
81
100
AcDbEntity
  8
1
  6
Continuous
 62
     7
100
AcDbLine
 10
593.4969048036712
 20
701.7925928740171
 30
0.0
 11
589.7713567419609
 21
692.5139570874705
 31
0.0
  0
LINE
  5
51E
330
81
100
AcDbEntity
  8
1
  6
Continuous
 62
     7
100
AcDbLine
 10
598.9496232774987
 20
712.8463313638124
 30
0.0
 11
600.3744313582817
 21
715.0317453672974
 31
0.0
  0
LINE
  5
51F
330
81
100
AcDbEntity
  8
1
  6
Continuous
 62
     7
100
AcDbLine
 10
600.3744313582817
 20
715.0317453672974
 30
0.0
 11
604.9878594371147
 21
723.9024314614474
 31
0.0
  0
LINE
  5
520
330
81
100
AcDbEntity
  8
1
  6
Continuous
 62
     7
100
AcDbLine
 10
571.1724454080502
 20
744.3500667226198
 30
0.0
 11
570.5825689105397
 21
749.7170129124017
 31
0.0
  0
LINE
  5
521
330
81
100
AcDbEntity
  8
1
  6
Continuous
 62
     7
100
AcDbLine
 10
570.7649316967757
 20
733.5722448187413
 30
0.0
 11
571.23342877117
 21
738.9511458382443
 31
0.0
  0
LINE
  5
522
330
81
100
AcDbEntity
  8
1
  6
Continuous
 62
     7
100
AcDbLine
 10
571.23342877117
 20
738.9511458382443
 30
0.0
 11
571.1724454080502
 21
744.3500667226198
 31
0.0
  0
LINE
  5
523
330
81
100
AcDbEntity
  8
1
  6
Continuous
 62
     7
100
AcDbLine
 10
611.5037906603655
 20
742.7828713225691
 30
0.0
 11
613.3435418251336
 21
752.6107961325802
 31
0.0
  0
LINE
  5
524
330
81
100
AcDbEntity
  8
1
  6
Continuous
 62
     7
100
AcDbLine
 10
608.7095933150592
 20
733.1825978048515
 30
0.0
 11
611.5037906603655
 21
742.7828713225691
 31
0.0
  0
LINE
  5
525
330
81
100
AcDbEntity
  8
1
  6
Continuous
 62
     7
100
AcDbLine
 10
613.3435418251336
 20
752.6107961325802
 30
0.0
 11
614.2111289999375
 21
762.5717239464743
 31
0.0
  0
LINE
  5
526
330
81
100
AcDbEntity
  8
1
  6
Continuous
 62
     7
100
AcDbLine
 10
563.1226635972539
 20
769.8463313638122
 30
0.0
 11
614.2289135972536
 21
769.8463313638122
 31
0.0
  0
LINE
  5
527
330
81
100
AcDbEntity
  8
1
  6
Continuous
 62
     7
100
AcDbLine
 10
563.1226635972539
 20
769.8463313638122
 30
0.0
 11
605.260163597254
 21
769.8463313638122
 31
0.0
  0
LINE
  5
528
330
81
100
AcDbEntity
  8
1
  6
Continuous
 62
     7
100
AcDbLine
 10
560.6314124346838
 20
765.0561608729711
 30
0.0
 11
563.1226635972539
 21
769.8463313638122
 31
0.0
  0
LINE
  5
529
330
81
100
AcDbEntity
  8
1
  6
Continuous
 62
     7
100
AcDbLine
 10
565.7214798092375
 20
765.1136555897222
 30
0.0
 11
563.1226635972539
 21
769.8463313638122
 31
0.0
  0
LINE
  5
52A
330
81
100
AcDbEntity
  8
1
  6
Continuous
 62
     7
100
AcDbLine
 10
610.9445574084559
 20
792.2923756940043
 30
0.0
 11
607.9342213965646
 21
801.8270842640133
 31
0.0
  0
LINE
  5
52B
330
81
100
AcDbEntity
  8
1
  6
Continuous
 62
     7
100
AcDbLine
 10
587.5116620124912
 20
792.293060170672
 30
0.0
 11
590.5225550383793
 21
801.8275928601202
 31
0.0
  0
LINE
  5
52C
330
81
100
AcDbEntity
  8
1
  6
Continuous
 62
     7
100
AcDbLine
 10
584.3568703800797
 20
772.5705943306294
 30
0.0
 11
585.4498148880816
 21
782.5093197379405
 31
0.0
  0
LINE
  5
52D
330
81
100
AcDbEntity
  8
1
  6
Continuous
 62
     7
100
AcDbLine
 10
584.3259393700102
 20
769.8463313638122
 30
0.0
 11
584.3568703800797
 21
772.5705943306294
 31
0.0
  0
LINE
  5
52E
330
81
100
AcDbEntity
  8
1
  6
Continuous
 62
     7
100
AcDbLine
 10
585.4498148880816
 20
782.5093197379405
 30
0.0
 11
587.5116620124912
 21
792.293060170672
 31
0.0
  0
LINE
  5
52F
330
81
100
AcDbEntity
  8
1
  6
Continuous
 62
     7
100
AcDbLine
 10
614.098196846011
 20
772.5697255842073
 30
0.0
 11
613.0058329617342
 21
782.5085148245437
 31
0.0
  0
LINE
  5
530
330
81
100
AcDbEntity
  8
1
  6
Continuous
 62
     7
100
AcDbLine
 10
613.0058329617342
 20
782.5085148245437
 30
0.0
 11
610.9445574084559
 21
792.2923756940043
 31
0.0
  0
LINE
  5
531
330
81
100
AcDbEntity
  8
1
  6
Continuous
 62
     7
100
AcDbLine
 10
594.4534974199849
 20
811.0210950443802
 30
0.0
 11
599.2666320333028
 21
819.7850282717382
 31
0.0
  0
LINE
  5
532
330
81
100
AcDbEntity
  8
1
  6
Continuous
 62
     7
100
AcDbLine
 10
590.5225550383793
 20
801.8275928601202
 30
0.0
 11
594.4534974199849
 21
811.0210950443802
 31
0.0
  0
LINE
  5
533
330
81
100
AcDbEntity
  8
1
  6
Continuous
 62
     7
100
AcDbLine
 10
604.0038161074702
 20
811.0208160788401
 30
0.0
 11
599.1911934926861
 21
819.7850304753044
 31
0.0
  0
LINE
  5
534
330
81
100
AcDbEntity
  8
1
  6
Continuous
 62
     7
100
AcDbLine
 10
607.9342213965646
 20
801.8270842640133
 30
0.0
 11
604.0038161074702
 21
811.0208160788401
 31
0.0
  0
LINE
  5
535
330
81
100
AcDbEntity
  8
1
  6
Continuous
 62
     7
100
AcDbLine
 10
1160.584443597356
 20
480.5136699400942
 30
0.0
 11
1199.529646592607
 21
480.5136699400942
 31
0.0
  0
LINE
  5
536
330
81
100
AcDbEntity
  8
1
  6
Continuous
 62
     7
100
AcDbLine
 10
1142.259443597354
 20
420.5136699400942
 30
0.0
 11
1198.421852935223
 21
420.5136699400942
 31
0.0
  0
LINE
  5
537
330
81
100
AcDbEntity
  8
1
  6
Continuous
 62
     7
100
AcDbLine
 10
1160.014408346083
 20
474.7353821293451
 30
0.0
 11
1160.543518966993
 21
480.7814483387176
 31
0.0
  0
LINE
  5
538
330
81
100
AcDbEntity
  8
1
  6
Continuous
 62
     7
100
AcDbLine
 10
1159.819930410249
 20
408.3164377813922
 30
0.0
 11
1158.568389205731
 21
402.3777073387241
 31
0.0
  0
LINE
  5
539
330
81
100
AcDbEntity
  8
1
  6
Continuous
 62
     7
100
AcDbLine
 10
1143.093427439539
 20
408.3169263638241
 30
0.0
 11
1144.344621700378
 21
402.3781228160613
 31
0.0
  0
LINE
  5
53A
330
81
100
AcDbEntity
  8
1
  6
Continuous
 62
     7
100
AcDbLine
 10
1156.740777139017
 20
396.5902459962288
 30
0.0
 11
1154.354695113382
 21
391.0097901703833
 31
0.0
  0
LINE
  5
53B
330
81
100
AcDbEntity
  8
1
  6
Continuous
 62
     7
100
AcDbLine
 10
1154.354695113382
 20
391.0097901703833
 30
0.0
 11
1151.433122403096
 21
385.6900827013766
 31
0.0
  0
LINE
  5
53C
330
81
100
AcDbEntity
  8
1
  6
Continuous
 62
     7
100
AcDbLine
 10
1148.557651670077
 20
391.0099595024659
 30
0.0
 11
1151.478913597252
 21
385.6900813638126
 31
0.0
  0
LINE
  5
53D
330
81
100
AcDbEntity
  8
1
  6
Continuous
 62
     7
100
AcDbLine
 10
1146.171895659596
 20
396.590554714066
 30
0.0
 11
1148.557651670077
 21
391.0099595024659
 31
0.0
  0
LINE
  5
53E
330
81
100
AcDbEntity
  8
1
  6
Continuous
 62
     7
100
AcDbLine
 10
1144.344621700378
 20
402.3781228160613
 30
0.0
 11
1146.171895659596
 21
396.590554714066
 31
0.0
  0
LINE
  5
53F
330
81
100
AcDbEntity
  8
1
  6
Continuous
 62
     7
100
AcDbLine
 10
1158.568389205731
 20
402.3777073387241
 30
0.0
 11
1156.740777139017
 21
396.5902459962288
 31
0.0
  0
LINE
  5
540
330
81
100
AcDbEntity
  8
1
  6
Continuous
 62
     7
100
AcDbLine
 10
1147.960337368985
 20
443.8908189652233
 30
0.0
 11
1145.70124490507
 21
438.2577579947771
 31
0.0
  0
LINE
  5
541
330
81
100
AcDbEntity
  8
1
  6
Continuous
 62
     7
100
AcDbLine
 10
1142.888438159457
 20
426.4648416098463
 30
0.0
 11
1142.361812744345
 21
420.4185584268121
 31
0.0
  0
LINE
  5
542
330
81
100
AcDbEntity
  8
1
  6
Continuous
 62
     7
100
AcDbLine
 10
1142.430362561783
 20
414.3497714327075
 30
0.0
 11
1143.093427439539
 21
408.3169263638241
 31
0.0
  0
LINE
  5
543
330
81
100
AcDbEntity
  8
1
  6
Continuous
 62
     7
100
AcDbLine
 10
1142.361812744345
 20
420.4185584268121
 30
0.0
 11
1142.430362561783
 21
414.3497714327075
 31
0.0
  0
LINE
  5
544
330
81
100
AcDbEntity
  8
1
  6
Continuous
 62
     7
100
AcDbLine
 10
1144.005167116472
 20
432.4303919695227
 30
0.0
 11
1142.888438159457
 21
426.4648416098463
 31
0.0
  0
LINE
  5
545
330
81
100
AcDbEntity
  8
1
  6
Continuous
 62
     7
100
AcDbLine
 10
1145.70124490507
 20
438.2577579947771
 30
0.0
 11
1144.005167116472
 21
432.4303919695227
 31
0.0
  0
LINE
  5
546
330
81
100
AcDbEntity
  8
1
  6
Continuous
 62
     7
100
AcDbLine
 10
1160.483347726603
 20
414.3492441036295
 30
0.0
 11
1159.819930410249
 21
408.3164377813922
 31
0.0
  0
LINE
  5
547
330
81
100
AcDbEntity
  8
1
  6
Continuous
 62
     7
100
AcDbLine
 10
1160.55333800285
 20
420.5136699400942
 30
0.0
 11
1160.483347726603
 21
414.3492441036295
 31
0.0
  0
LINE
  5
548
330
81
100
AcDbEntity
  8
1
  6
Continuous
 62
     7
100
AcDbLine
 10
1152.132782989083
 20
451.9281360332561
 30
0.0
 11
1154.935346831484
 21
457.3114909877935
 31
0.0
  0
LINE
  5
549
330
81
100
AcDbEntity
  8
1
  6
Continuous
 62
     7
100
AcDbLine
 10
1151.267379296575
 20
450.6019453346462
 30
0.0
 11
1152.132782989083
 21
451.9281360332561
 31
0.0
  0
LINE
  5
54A
330
81
100
AcDbEntity
  8
1
  6
Continuous
 62
     7
100
AcDbLine
 10
1151.625546717869
 20
450.6018717244882
 30
0.0
 11
1150.760688212834
 21
449.2753254243727
 31
0.0
  0
LINE
  5
54B
330
81
100
AcDbEntity
  8
1
  6
Continuous
 62
     7
100
AcDbLine
 10
1150.760688212834
 20
449.2753254243727
 30
0.0
 11
1147.960337368985
 21
443.8908189652233
 31
0.0
  0
LINE
  5
54C
330
81
100
AcDbEntity
  8
1
  6
Continuous
 62
     7
100
AcDbLine
 10
1154.935346831484
 20
457.3114909877935
 30
0.0
 11
1157.196754504942
 21
462.9436229102273
 31
0.0
  0
LINE
  5
54D
330
81
100
AcDbEntity
  8
1
  6
Continuous
 62
     7
100
AcDbLine
 10
1157.196754504942
 20
462.9436229102273
 30
0.0
 11
1158.895227417352
 21
468.770291291308
 31
0.0
  0
LINE
  5
54E
330
81
100
AcDbEntity
  8
1
  6
Continuous
 62
     7
100
AcDbLine
 10
1158.895227417352
 20
468.770291291308
 30
0.0
 11
1160.014408346083
 21
474.7353821293451
 31
0.0
  0
LINE
  5
54F
330
81
100
AcDbEntity
  8
1
  6
Continuous
 62
     7
100
AcDbLine
 10
1154.359768607313
 20
510.1925915020798
 30
0.0
 11
1151.440693597356
 21
515.5136699400942
 31
0.0
  0
LINE
  5
550
330
81
100
AcDbEntity
  8
1
  6
Continuous
 62
     7
100
AcDbLine
 10
1156.743230581279
 20
504.6110161262605
 30
0.0
 11
1154.359768607313
 21
510.1925915020798
 31
0.0
  0
LINE
  5
551
330
81
100
AcDbEntity
  8
1
  6
Continuous
 62
     7
100
AcDbLine
 10
1159.816878560532
 20
492.8833801006248
 30
0.0
 11
1158.568125477495
 21
498.8226974347027
 31
0.0
  0
LINE
  5
552
330
81
100
AcDbEntity
  8
1
  6
Continuous
 62
     7
100
AcDbLine
 10
1160.477463655557
 20
486.8502629967133
 30
0.0
 11
1159.816878560532
 21
492.8833801006248
 31
0.0
  0
LINE
  5
553
330
81
100
AcDbEntity
  8
1
  6
Continuous
 62
     7
100
AcDbLine
 10
1160.543518966993
 20
480.7814483387176
 30
0.0
 11
1160.477463655557
 21
486.8502629967133
 31
0.0
  0
LINE
  5
554
330
81
100
AcDbEntity
  8
1
  6
Continuous
 62
     7
100
AcDbLine
 10
1158.568125477495
 20
498.8226974347027
 30
0.0
 11
1156.743230581279
 21
504.6110161262605
 31
0.0
  0
LINE
  5
555
330
81
100
AcDbEntity
  8
1
  6
Continuous
 62
     7
100
AcDbLine
 10
1201.798302769546
 20
474.6166337460564
 30
0.0
 11
1200.929141828376
 21
477.3734941724711
 31
0.0
  0
LINE
  5
556
330
81
100
AcDbEntity
  8
1
  6
Continuous
 62
     7
100
AcDbLine
 10
1194.862256961358
 20
442.9953064991006
 30
0.0
 11
1194.33038129371
 21
440.1540341737939
 31
0.0
  0
LINE
  5
557
330
81
100
AcDbEntity
  8
1
  6
Continuous
 62
     7
100
AcDbLine
 10
1201.477697093776
 20
443.0700310220991
 30
0.0
 11
1202.073615896329
 21
440.2414976683711
 31
0.0
  0
LINE
  5
558
330
81
100
AcDbEntity
  8
1
  6
Continuous
 62
     7
100
AcDbLine
 10
1197.03051430455
 20
423.2675829236907
 30
0.0
 11
1198.421852935223
 21
420.7338313638127
 31
0.0
  0
LINE
  5
559
330
81
100
AcDbEntity
  8
1
  6
Continuous
 62
     7
100
AcDbLine
 10
1199.755604035134
 20
423.2983641001764
 30
0.0
 11
1198.421852935223
 21
420.7338313638127
 31
0.0
  0
LINE
  5
55A
330
81
100
AcDbEntity
  8
1
  6
Continuous
 62
     7
100
AcDbLine
 10
1194.33038129371
 20
440.1540341737939
 30
0.0
 11
1194.079560141005
 21
437.2743104193785
 31
0.0
  0
LINE
  5
55B
330
81
100
AcDbEntity
  8
1
  6
Continuous
 62
     7
100
AcDbLine
 10
1194.11220904805
 20
434.3838685498262
 30
0.0
 11
1194.428013588028
 21
431.5105451004183
 31
0.0
  0
LINE
  5
55C
330
81
100
AcDbEntity
  8
1
  6
Continuous
 62
     7
100
AcDbLine
 10
1194.428013588028
 20
431.5105451004183
 30
0.0
 11
1195.023932390582
 21
428.6820117466898
 31
0.0
  0
LINE
  5
55D
330
81
100
AcDbEntity
  8
1
  6
Continuous
 62
     7
100
AcDbLine
 10
1195.023932390582
 20
428.6820117466898
 30
0.0
 11
1195.894226431876
 21
425.9255088110717
 31
0.0
  0
LINE
  5
55E
330
81
100
AcDbEntity
  8
1
  6
Continuous
 62
     7
100
AcDbLine
 10
1195.894226431876
 20
425.9255088110717
 30
0.0
 11
1197.03051430455
 21
423.2675829236907
 31
0.0
  0
LINE
  5
55F
330
81
100
AcDbEntity
  8
1
  6
Continuous
 62
     7
100
AcDbLine
 10
1194.079560141005
 20
437.2743104193785
 30
0.0
 11
1194.11220904805
 21
434.3838685498262
 31
0.0
  0
LINE
  5
560
330
81
100
AcDbEntity
  8
1
  6
Continuous
 62
     7
100
AcDbLine
 10
1202.073615896329
 20
440.2414976683711
 30
0.0
 11
1202.389420436307
 21
437.3681742189631
 31
0.0
  0
LINE
  5
561
330
81
100
AcDbEntity
  8
1
  6
Continuous
 62
     7
100
AcDbLine
 10
1202.422069343354
 20
434.4777323494106
 30
0.0
 11
1202.171248190648
 21
431.5980085949956
 31
0.0
  0
LINE
  5
562
330
81
100
AcDbEntity
  8
1
  6
Continuous
 62
     7
100
AcDbLine
 10
1202.171248190648
 20
431.5980085949956
 30
0.0
 11
1201.639372522999
 21
428.7567362696888
 31
0.0
  0
LINE
  5
563
330
81
100
AcDbEntity
  8
1
  6
Continuous
 62
     7
100
AcDbLine
 10
1201.639372522999
 20
428.7567362696888
 30
0.0
 11
1200.831564593844
 21
425.9812783791808
 31
0.0
  0
LINE
  5
564
330
81
100
AcDbEntity
  8
1
  6
Continuous
 62
     7
100
AcDbLine
 10
1200.831564593844
 20
425.9812783791808
 30
0.0
 11
1199.755604035134
 21
423.2983641001764
 31
0.0
  0
LINE
  5
565
330
81
100
AcDbEntity
  8
1
  6
Continuous
 62
     7
100
AcDbLine
 10
1202.389420436307
 20
437.3681742189631
 30
0.0
 11
1202.422069343354
 21
434.4777323494106
 31
0.0
  0
LINE
  5
566
330
81
100
AcDbEntity
  8
1
  6
Continuous
 62
     7
100
AcDbLine
 10
1201.14514620274
 20
457.5281481315388
 30
0.0
 11
1201.954094881459
 21
460.3032737480805
 31
0.0
  0
LINE
  5
567
330
81
100
AcDbEntity
  8
1
  6
Continuous
 62
     7
100
AcDbLine
 10
1198.379768828155
 20
451.5523014811941
 30
0.0
 11
1196.746025449225
 21
448.4536786686128
 31
0.0
  0
LINE
  5
568
330
81
100
AcDbEntity
  8
1
  6
Continuous
 62
     7
100
AcDbLine
 10
1196.746025449225
 20
448.4536786686128
 30
0.0
 11
1195.670064890511
 21
445.7707643896084
 31
0.0
  0
LINE
  5
569
330
81
100
AcDbEntity
  8
1
  6
Continuous
 62
     7
100
AcDbLine
 10
1195.670064890511
 20
445.7707643896084
 30
0.0
 11
1194.862256961358
 21
442.9953064991006
 31
0.0
  0
LINE
  5
56A
330
81
100
AcDbEntity
  8
1
  6
Continuous
 62
     7
100
AcDbLine
 10
1200.068082956025
 20
454.845676339522
 30
0.0
 11
1201.14514620274
 21
457.5281481315388
 31
0.0
  0
LINE
  5
56B
330
81
100
AcDbEntity
  8
1
  6
Continuous
 62
     7
100
AcDbLine
 10
1198.356831348815
 20
450.5136699400942
 30
0.0
 11
1199.471115179808
 21
448.4844598450986
 31
0.0
  0
LINE
  5
56C
330
81
100
AcDbEntity
  8
1
  6
Continuous
 62
     7
100
AcDbLine
 10
1199.471115179808
 20
448.4844598450986
 30
0.0
 11
1200.60740305248
 21
445.8265339577176
 31
0.0
  0
LINE
  5
56D
330
81
100
AcDbEntity
  8
1
  6
Continuous
 62
     7
100
AcDbLine
 10
1200.60740305248
 20
445.8265339577176
 30
0.0
 11
1201.477697093776
 21
443.0700310220991
 31
0.0
  0
LINE
  5
56E
330
81
100
AcDbEntity
  8
1
  6
Continuous
 62
     7
100
AcDbLine
 10
1198.379768828155
 20
451.5523014811941
 30
0.0
 11
1200.068082956025
 21
454.845676339522
 31
0.0
  0
LINE
  5
56F
330
81
100
AcDbEntity
  8
1
  6
Continuous
 62
     7
100
AcDbLine
 10
1202.393058887933
 20
471.7878556861817
 30
0.0
 11
1201.798302769546
 21
474.6166337460564
 31
0.0
  0
LINE
  5
570
330
81
100
AcDbEntity
  8
1
  6
Continuous
 62
     7
100
AcDbLine
 10
1201.954094881459
 20
460.3032737480805
 30
0.0
 11
1202.487138374195
 21
463.1443272124206
 31
0.0
  0
LINE
  5
571
330
81
100
AcDbEntity
  8
1
  6
Continuous
 62
     7
100
AcDbLine
 10
1202.487138374195
 20
463.1443272124206
 30
0.0
 11
1202.739143180723
 21
466.0239476266207
 31
0.0
  0
LINE
  5
572
330
81
100
AcDbEntity
  8
1
  6
Continuous
 62
     7
100
AcDbLine
 10
1202.739143180723
 20
466.0239476266207
 30
0.0
 11
1202.707682356994
 21
468.9144026719309
 31
0.0
  0
LINE
  5
573
330
81
100
AcDbEntity
  8
1
  6
Continuous
 62
     7
100
AcDbLine
 10
1202.707682356994
 20
468.9144026719309
 30
0.0
 11
1202.393058887933
 21
471.7878556861817
 31
0.0
  0
LINE
  5
574
330
81
100
AcDbEntity
  8
1
  6
Continuous
 62
     7
100
AcDbLine
 10
1200.929141828376
 20
477.3734941724711
 30
0.0
 11
1199.793946559418
 21
480.0318868924671
 31
0.0
  0
LINE
  5
575
330
81
100
AcDbEntity
  8
1
  6
Continuous
 62
     7
100
AcDbLine
 10
1199.793946559418
 20
480.0318868924671
 30
0.0
 11
1199.529646592607
 21
480.5136699400942
 31
0.0
  0
LINE
  5
576
330
81
100
AcDbEntity
  8
1
  6
Continuous
 62
     7
100
AcDbLine
 10
1142.823851096826
 20
623.9268664115412
 30
0.0
 11
1146.754256385921
 21
614.7331345967146
 31
0.0
  0
LINE
  5
577
330
81
100
AcDbEntity
  8
1
  6
Continuous
 62
     7
100
AcDbLine
 10
1160.235517455012
 20
623.926357815435
 30
0.0
 11
1156.304575073406
 21
614.7328556311747
 31
0.0
  0
LINE
  5
578
330
81
100
AcDbEntity
  8
1
  6
Continuous
 62
     7
100
AcDbLine
 10
1156.304575073406
 20
614.7328556311747
 30
0.0
 11
1151.491440460086
 21
605.9689224038162
 31
0.0
  0
LINE
  5
579
330
81
100
AcDbEntity
  8
1
  6
Continuous
 62
     7
100
AcDbLine
 10
1146.754256385921
 20
614.7331345967146
 30
0.0
 11
1151.566879000706
 21
605.9689202002507
 31
0.0
  0
LINE
  5
57A
330
81
100
AcDbEntity
  8
1
  6
Continuous
 62
     7
100
AcDbLine
 10
1184.320227693171
 20
702.6116450058572
 30
0.0
 11
1182.811361126705
 21
697.4274973062896
 31
0.0
  0
LINE
  5
57B
330
81
100
AcDbEntity
  8
1
  6
Continuous
 62
     7
100
AcDbLine
 10
1182.000258283967
 20
675.9756498152232
 30
0.0
 11
1183.113347082737
 21
670.6923649457142
 31
0.0
  0
LINE
  5
57C
330
81
100
AcDbEntity
  8
1
  6
Continuous
 62
     7
100
AcDbLine
 10
1166.578913597253
 20
769.8463313638122
 30
0.0
 11
1189.30391359725
 21
769.8463313638122
 31
0.0
  0
LINE
  5
57D
330
81
100
AcDbEntity
  8
1
  6
Continuous
 62
     7
100
AcDbLine
 10
1136.378913597251
 20
655.8463313638127
 30
0.0
 11
1189.460163597251
 21
655.8463313638127
 31
0.0
  0
LINE
  5
57E
330
81
100
AcDbEntity
  8
1
  6
Continuous
 62
     7
100
AcDbLine
 10
1176.07266359725
 20
769.8463313638122
 30
0.0
 11
1189.30391359725
 21
769.8463313638122
 31
0.0
  0
LINE
  5
57F
330
81
100
AcDbEntity
  8
1
  6
Continuous
 62
     7
100
AcDbLine
 10
1148.26016359725
 20
655.8463313638127
 30
0.0
 11
1189.460163597251
 21
655.8463313638127
 31
0.0
  0
LINE
  5
580
330
81
100
AcDbEntity
  8
1
  6
Continuous
 62
     7
100
AcDbLine
 10
1190.245642807911
 20
769.8463313638122
 30
0.0
 11
1176.985163597251
 21
769.8463313638122
 31
0.0
  0
LINE
  5
581
330
81
100
AcDbEntity
  8
1
  6
Continuous
 62
     7
100
AcDbLine
 10
1166.500331010166
 20
762.6268559084973
 30
0.0
 11
1166.391508421305
 21
772.6249031210104
 31
0.0
  0
LINE
  5
582
330
81
100
AcDbEntity
  8
1
  6
Continuous
 62
     7
100
AcDbLine
 10
1181.817895497728
 20
692.1204179088832
 30
0.0
 11
1181.349398423335
 21
686.7415168893804
 31
0.0
  0
LINE
  5
583
330
81
100
AcDbEntity
  8
1
  6
Continuous
 62
     7
100
AcDbLine
 10
1142.04847917833
 20
692.5713528707033
 30
0.0
 11
1139.254281833026
 21
682.9710793529861
 31
0.0
  0
LINE
  5
584
330
81
100
AcDbEntity
  8
1
  6
Continuous
 62
     7
100
AcDbLine
 10
1136.546943493452
 20
663.1822267290805
 30
0.0
 11
1136.659875647378
 21
653.1842250913476
 31
0.0
  0
LINE
  5
585
330
81
100
AcDbEntity
  8
1
  6
Continuous
 62
     7
100
AcDbLine
 10
1166.43213312338
 20
655.9076193117427
 30
0.0
 11
1166.401202113312
 21
653.1833563449257
 31
0.0
  0
LINE
  5
586
330
81
100
AcDbEntity
  8
1
  6
Continuous
 62
     7
100
AcDbLine
 10
1137.752239531655
 20
643.2454358510113
 30
0.0
 11
1139.813515084934
 21
633.4615749815509
 31
0.0
  0
LINE
  5
587
330
81
100
AcDbEntity
  8
1
  6
Continuous
 62
     7
100
AcDbLine
 10
1139.813515084934
 20
633.4615749815509
 30
0.0
 11
1142.823851096826
 21
623.9268664115412
 31
0.0
  0
LINE
  5
588
330
81
100
AcDbEntity
  8
1
  6
Continuous
 62
     7
100
AcDbLine
 10
1136.659875647378
 20
653.1842250913476
 30
0.0
 11
1137.752239531655
 21
643.2454358510113
 31
0.0
  0
LINE
  5
589
330
81
100
AcDbEntity
  8
1
  6
Continuous
 62
     7
100
AcDbLine
 10
1165.308257605309
 20
643.2446309376143
 30
0.0
 11
1163.246410480901
 21
633.4608905048829
 31
0.0
  0
LINE
  5
58A
330
81
100
AcDbEntity
  8
1
  6
Continuous
 62
     7
100
AcDbLine
 10
1163.246410480901
 20
633.4608905048829
 30
0.0
 11
1160.235517455012
 21
623.926357815435
 31
0.0
  0
LINE
  5
58B
330
81
100
AcDbEntity
  8
1
  6
Continuous
 62
     7
100
AcDbLine
 10
1166.401202113312
 20
653.1833563449257
 30
0.0
 11
1165.308257605309
 21
643.2446309376143
 31
0.0
  0
LINE
  5
58C
330
81
100
AcDbEntity
  8
1
  6
Continuous
 62
     7
100
AcDbLine
 10
1137.414530668257
 20
673.1431545429748
 30
0.0
 11
1136.546943493452
 21
663.1822267290805
 31
0.0
  0
LINE
  5
58D
330
81
100
AcDbEntity
  8
1
  6
Continuous
 62
     7
100
AcDbLine
 10
1139.254281833026
 20
682.9710793529861
 30
0.0
 11
1137.414530668257
 21
673.1431545429748
 31
0.0
  0
LINE
  5
58E
330
81
100
AcDbEntity
  8
1
  6
Continuous
 62
     7
100
AcDbLine
 10
1181.349398423335
 20
686.7415168893804
 30
0.0
 11
1181.410381786456
 21
681.3425960050047
 31
0.0
  0
LINE
  5
58F
330
81
100
AcDbEntity
  8
1
  6
Continuous
 62
     7
100
AcDbLine
 10
1181.410381786456
 20
681.3425960050047
 30
0.0
 11
1182.000258283967
 21
675.9756498152232
 31
0.0
  0
LINE
  5
590
330
81
100
AcDbEntity
  8
1
  6
Continuous
 62
     7
100
AcDbLine
 10
1157.261167689721
 20
723.9613578015379
 30
0.0
 11
1160.986715751429
 21
733.2399935880844
 31
0.0
  0
LINE
  5
591
330
81
100
AcDbEntity
  8
1
  6
Continuous
 62
     7
100
AcDbLine
 10
1152.644093814265
 20
715.0925687495819
 30
0.0
 11
1157.261167689721
 21
723.9613578015379
 31
0.0
  0
LINE
  5
592
330
81
100
AcDbEntity
  8
1
  6
Continuous
 62
     7
100
AcDbLine
 10
1150.38364113511
 20
710.7222053082579
 30
0.0
 11
1145.770213056277
 21
701.8515192141083
 31
0.0
  0
LINE
  5
593
330
81
100
AcDbEntity
  8
1
  6
Continuous
 62
     7
100
AcDbLine
 10
1145.770213056277
 20
701.8515192141083
 30
0.0
 11
1142.04847917833
 21
692.5713528707033
 31
0.0
  0
LINE
  5
594
330
81
100
AcDbEntity
  8
1
  6
Continuous
 62
     7
100
AcDbLine
 10
1151.218387566315
 20
712.9077405805364
 30
0.0
 11
1152.644093814265
 21
715.0925687495819
 31
0.0
  0
LINE
  5
595
330
81
100
AcDbEntity
  8
1
  6
Continuous
 62
     7
100
AcDbLine
 10
1151.808449215891
 20
712.907619311743
 30
0.0
 11
1150.38364113511
 21
710.7222053082579
 31
0.0
  0
LINE
  5
596
330
81
100
AcDbEntity
  8
1
  6
Continuous
 62
     7
100
AcDbLine
 10
1182.811361126705
 20
697.4274973062896
 30
0.0
 11
1181.817895497728
 21
692.1204179088832
 31
0.0
  0
LINE
  5
597
330
81
100
AcDbEntity
  8
1
  6
Continuous
 62
     7
100
AcDbLine
 10
1163.784858934971
 20
742.8391177743788
 30
0.0
 11
1165.628649591863
 21
752.6662855470924
 31
0.0
  0
LINE
  5
598
330
81
100
AcDbEntity
  8
1
  6
Continuous
 62
     7
100
AcDbLine
 10
1160.986715751429
 20
733.2399935880844
 30
0.0
 11
1163.784858934971
 21
742.8391177743788
 31
0.0
  0
LINE
  5
599
330
81
100
AcDbEntity
  8
1
  6
Continuous
 62
     7
100
AcDbLine
 10
1165.628649591863
 20
752.6662855470924
 30
0.0
 11
1166.500331010166
 21
762.6268559084973
 31
0.0
  0
LINE
  5
59A
330
81
100
AcDbEntity
  8
1
  6
Continuous
 62
     7
100
AcDbLine
 10
1163.245976002754
 20
792.3488478293952
 30
0.0
 11
1160.239559369776
 21
801.8847929555192
 31
0.0
  0
LINE
  5
59B
330
81
100
AcDbEntity
  8
1
  6
Continuous
 62
     7
100
AcDbLine
 10
1166.391508421305
 20
772.6249031210104
 30
0.0
 11
1165.303229846303
 21
782.5641405244883
 31
0.0
  0
LINE
  5
59C
330
81
100
AcDbEntity
  8
1
  6
Continuous
 62
     7
100
AcDbLine
 10
1165.303229846303
 20
782.5641405244883
 30
0.0
 11
1163.245976002754
 21
792.3488478293952
 31
0.0
  0
LINE
  5
59D
330
81
100
AcDbEntity
  8
1
  6
Continuous
 62
     7
100
AcDbLine
 10
1156.312933383021
 20
811.0801395384191
 30
0.0
 11
1151.503913597252
 21
819.8463313638125
 31
0.0
  0
LINE
  5
59E
330
81
100
AcDbEntity
  8
1
  6
Continuous
 62
     7
100
AcDbLine
 10
1160.239559369776
 20
801.8847929555192
 30
0.0
 11
1156.312933383021
 21
811.0801395384191
 31
0.0
  0
LINE
  5
59F
330
81
100
AcDbEntity
  8
1
  6
Continuous
 62
     7
100
AcDbLine
 10
1194.14341099655
 20
761.6409026516572
 30
0.0
 11
1192.0230329637
 21
766.6063898064232
 31
0.0
  0
LINE
  5
5A0
330
81
100
AcDbEntity
  8
1
  6
Continuous
 62
     7
100
AcDbLine
 10
1196.281120463116
 20
692.2837868707262
 30
0.0
 11
1196.870996960625
 21
686.9168406809445
 31
0.0
  0
LINE
  5
5A1
330
81
100
AcDbEntity
  8
1
  6
Continuous
 62
     7
100
AcDbLine
 10
1196.463483249349
 20
676.1390187770659
 30
0.0
 11
1195.470017620374
 21
670.8319393796593
 31
0.0
  0
LINE
  5
5A2
330
81
100
AcDbEntity
  8
1
  6
Continuous
 62
     7
100
AcDbLine
 10
1193.961151053912
 20
665.6477916800922
 30
0.0
 11
1191.95141475982
 21
660.6365018546538
 31
0.0
  0
LINE
  5
5A3
330
81
100
AcDbEntity
  8
1
  6
Continuous
 62
     7
100
AcDbLine
 10
1191.95141475982
 20
660.6365018546538
 30
0.0
 11
1189.460163597251
 21
655.8463313638127
 31
0.0
  0
LINE
  5
5A4
330
81
100
AcDbEntity
  8
1
  6
Continuous
 62
     7
100
AcDbLine
 10
1183.113347082737
 20
670.6923649457142
 30
0.0
 11
1184.738928529158
 21
665.5436223179092
 31
0.0
  0
LINE
  5
5A5
330
81
100
AcDbEntity
  8
1
  6
Continuous
 62
     7
100
AcDbLine
 10
1184.738928529158
 20
665.5436223179092
 30
0.0
 11
1186.861347385268
 21
660.5790071379027
 31
0.0
  0
LINE
  5
5A6
330
81
100
AcDbEntity
  8
1
  6
Continuous
 62
     7
100
AcDbLine
 10
1186.861347385268
 20
660.5790071379027
 30
0.0
 11
1189.460163597251
 21
655.8463313638127
 31
0.0
  0
LINE
  5
5A7
330
81
100
AcDbEntity
  8
1
  6
Continuous
 62
     7
100
AcDbLine
 10
1195.470017620374
 20
670.8319393796593
 30
0.0
 11
1193.961151053912
 21
665.6477916800922
 31
0.0
  0
LINE
  5
5A8
330
81
100
AcDbEntity
  8
1
  6
Continuous
 62
     7
100
AcDbLine
 10
1196.870996960625
 20
686.9168406809445
 30
0.0
 11
1196.931980323743
 21
681.5179197965687
 31
0.0
  0
LINE
  5
5A9
330
81
100
AcDbEntity
  8
1
  6
Continuous
 62
     7
100
AcDbLine
 10
1196.931980323743
 20
681.5179197965687
 30
0.0
 11
1196.463483249349
 21
676.1390187770659
 31
0.0
  0
LINE
  5
5AA
330
81
100
AcDbEntity
  8
1
  6
Continuous
 62
     7
100
AcDbLine
 10
1194.546875442642
 20
724.5727109932428
 30
0.0
 11
1196.057872761755
 21
729.756238053842
 31
0.0
  0
LINE
  5
5AB
330
81
100
AcDbEntity
  8
1
  6
Continuous
 62
     7
100
AcDbLine
 10
1188.82121514983
 20
712.4131053221365
 30
0.0
 11
1191.420031361813
 21
707.6804295480463
 31
0.0
  0
LINE
  5
5AC
330
81
100
AcDbEntity
  8
1
  6
Continuous
 62
     7
100
AcDbLine
 10
1188.82121514983
 20
712.4131053221365
 30
0.0
 11
1186.329963987259
 21
707.6229348312953
 31
0.0
  0
LINE
  5
5AD
330
81
100
AcDbEntity
  8
1
  6
Continuous
 62
     7
100
AcDbLine
 10
1195.168031664344
 20
697.5670717402342
 30
0.0
 11
1196.281120463116
 21
692.2837868707262
 31
0.0
  0
LINE
  5
5AE
330
81
100
AcDbEntity
  8
1
  6
Continuous
 62
     7
100
AcDbLine
 10
1193.542450217919
 20
702.7158143680394
 30
0.0
 11
1195.168031664344
 21
697.5670717402342
 31
0.0
  0
LINE
  5
5AF
330
81
100
AcDbEntity
  8
1
  6
Continuous
 62
     7
100
AcDbLine
 10
1191.420031361813
 20
707.6804295480463
 30
0.0
 11
1193.542450217919
 21
702.7158143680394
 31
0.0
  0
LINE
  5
5B0
330
81
100
AcDbEntity
  8
1
  6
Continuous
 62
     7
100
AcDbLine
 10
1186.329963987259
 20
707.6229348312953
 30
0.0
 11
1184.320227693171
 21
702.6116450058572
 31
0.0
  0
LINE
  5
5B1
330
81
100
AcDbEntity
  8
1
  6
Continuous
 62
     7
100
AcDbLine
 10
1188.524610679833
 20
712.8463313638127
 30
0.0
 11
1188.82121514983
 21
712.4131053221365
 31
0.0
  0
LINE
  5
5B2
330
81
100
AcDbEntity
  8
1
  6
Continuous
 62
     7
100
AcDbLine
 10
1189.590611513452
 20
713.5932288840182
 30
0.0
 11
1188.82121514983
 21
712.4131053221365
 31
0.0
  0
LINE
  5
5B3
330
81
100
AcDbEntity
  8
1
  6
Continuous
 62
     7
100
AcDbLine
 10
1189.271978222681
 20
713.5932943691671
 30
0.0
 11
1190.041859596574
 21
714.7731015804509
 31
0.0
  0
LINE
  5
5B4
330
81
100
AcDbEntity
  8
1
  6
Continuous
 62
     7
100
AcDbLine
 10
1190.041859596574
 20
714.7731015804509
 30
0.0
 11
1192.535079489319
 21
719.5622476685072
 31
0.0
  0
LINE
  5
5B5
330
81
100
AcDbEntity
  8
1
  6
Continuous
 62
     7
100
AcDbLine
 10
1192.535079489319
 20
719.5622476685072
 30
0.0
 11
1194.546875442642
 21
724.5727109932428
 31
0.0
  0
LINE
  5
5B6
330
81
100
AcDbEntity
  8
1
  6
Continuous
 62
     7
100
AcDbLine
 10
1197.524227682359
 20
740.4416166462652
 30
0.0
 11
1197.465463484377
 21
745.8405621410228
 31
0.0
  0
LINE
  5
5B7
330
81
100
AcDbEntity
  8
1
  6
Continuous
 62
     7
100
AcDbLine
 10
1197.053519716478
 20
735.0629086511069
 30
0.0
 11
1197.524227682359
 21
740.4416166462652
 31
0.0
  0
LINE
  5
5B8
330
81
100
AcDbEntity
  8
1
  6
Continuous
 62
     7
100
AcDbLine
 10
1196.057872761755
 20
729.756238053842
 30
0.0
 11
1197.053519716478
 21
735.0629086511069
 31
0.0
  0
LINE
  5
5B9
330
81
100
AcDbEntity
  8
1
  6
Continuous
 62
     7
100
AcDbLine
 10
1197.465463484377
 20
745.8405621410228
 30
0.0
 11
1196.877793053876
 21
751.2077503389007
 31
0.0
  0
LINE
  5
5BA
330
81
100
AcDbEntity
  8
1
  6
Continuous
 62
     7
100
AcDbLine
 10
1196.877793053876
 20
751.2077503389007
 30
0.0
 11
1195.766875978357
 21
756.4914922835505
 31
0.0
  0
LINE
  5
5BB
330
81
100
AcDbEntity
  8
1
  6
Continuous
 62
     7
100
AcDbLine
 10
1195.766875978357
 20
756.4914922835505
 30
0.0
 11
1194.14341099655
 21
761.6409026516572
 31
0.0
  0
LINE
  5
5BC
330
81
100
AcDbEntity
  8
1
  6
Continuous
 62
     7
100
AcDbLine
 10
1192.0230329637
 20
766.6063898064232
 30
0.0
 11
1190.245642807911
 21
769.8463313638122
 31
0.0
  0
LINE
  5
5DF
330
81
100
AcDbEntity
  8
-1
  6
Continuous
 62
     2
100
AcDbLine
 10
295.492024797779
 20
478.4842396162284
 30
0.0
 11
316.4920247977791
 21
478.4842396162284
 31
0.0
  0
LINE
  5
5E1
330
81
100
AcDbEntity
  8
-1
  6
Continuous
 62
     2
100
AcDbLine
 10
869.985435811369
 20
458.3039221684971
 30
0.0
 11
892.9854358113688
 21
458.3039221684971
 31
0.0
  0
LINE
  5
5E2
330
81
100
AcDbEntity
  8
1
  6
Continuous
 62
     5
100
AcDbLine
 10
1393.679660447687
 20
591.0593979813977
 30
0.0
 11
1419.679660447687
 21
591.0593979813977
 31
0.0
  0
LINE
  5
5E4
330
81
100
AcDbEntity
  8
-1
  6
Continuous
 62
     2
100
AcDbLine
 10
295.860774797779
 20
740.6404896162281
 30
0.0
 11
315.8607747977791
 21
740.6404896162281
 31
0.0
  0
LINE
  5
5E5
330
81
100
AcDbEntity
  8
-1
  6
Continuous
 62
     2
100
AcDbLine
 10
879.7331338362354
 20
723.1397868181312
 30
0.0
 11
901.7331338362337
 21
723.1397868181312
 31
0.0
  0
LINE
  5
60F
330
81
100
AcDbEntity
  8
1
  6
Continuous
 62
     4
100
AcDbLine
 10
981.1343269167412
 20
712.8463313638125
 30
0.0
 11
1189.22891359725
 21
712.8463313638125
 31
0.0
  0
LINE
  5
610
330
81
100
AcDbEntity
  8
1
  6
Continuous
 62
     4
100
AcDbLine
 10
983.9719737035032
 20
450.6900813638126
 30
0.0
 11
1189.460163597251
 21
450.6900813638126
 31
0.0
  0
LINE
  5
63F
330
81
100
AcDbEntity
  8
1
  6
Continuous
 62
     3
100
AcDbLine
 10
1389.207428979869
 20
474.4025813638127
 30
0.0
 11
1389.207428979869
 21
564.5727401351462
 31
0.0
  0
LINE
  5
640
330
81
100
AcDbEntity
  8
1
  6
Continuous
 62
     3
100
AcDbLine
 10
1389.207428979868
 20
620.2760745667075
 30
0.0
 11
1389.207428979868
 21
689.1338313638124
 31
0.0
  0
LINE
  5
86B
330
81
100
AcDbEntity
  8
-1
  6
Continuous
 62
     2
100
AcDbLine
 10
292.9243714807803
 20
673.8111321509022
 30
0.0
 11
322.9243714807803
 21
673.8111321509022
 31
0.0
  0
LINE
  5
86C
330
81
100
AcDbEntity
  8
-1
  6
Continuous
 62
     2
100
AcDbLine
 10
292.9243714807803
 20
407.0673821509021
 30
0.0
 11
323.9243714807803
 21
407.0673821509021
 31
0.0
  0
ENDSEC
  0
SECTION
  2
OBJECTS
  0
DICTIONARY
  5
6F
330
0
100
AcDbDictionary
281
     1
  3
ACAD_COLOR
350
83A
  3
ACAD_GROUP
350
70
  3
ACAD_LAYOUT
350
7C
  3
ACAD_MATERIAL
350
80D
  3
ACAD_MLEADERSTYLE
350
85F
  3
ACAD_MLINESTYLE
350
79
  3
ACAD_PLOTSETTINGS
350
7B
  3
ACAD_PLOTSTYLENAME
350
71
  3
ACAD_SCALELIST
350
83D
  3
ACAD_TABLESTYLE
350
83B
  3
ACAD_VISUALSTYLE
350
826
  3
ACDB_RECOMPOSE_DATA
350
8F3
  3
AcDbVariableDictionary
350
87F
  3
DWGPROPS
350
8F4
  0
DICTIONARY
  5
875
330
73
100
AcDbDictionary
280
     1
281
     1
  3
ADSK_XREC_LAYER_RECONCILED
360
876
  0
DICTIONARY
  5
877
330
8C
100
AcDbDictionary
280
     1
281
     1
  3
ADSK_XREC_LAYER_RECONCILED
360
878
  0
DICTIONARY
  5
879
330
8D
100
AcDbDictionary
280
     1
281
     1
  3
ADSK_XREC_LAYER_RECONCILED
360
87A
  0
DICTIONARY
  5
87B
330
8E
100
AcDbDictionary
280
     1
281
     1
  3
ADSK_XREC_LAYER_RECONCILED
360
87C
  0
DICTIONARY
  5
87D
330
140
100
AcDbDictionary
280
     1
281
     1
  3
ADSK_XREC_LAYER_RECONCILED
360
87E
  0
DICTIONARY
  5
83A
102
{ACAD_REACTORS
330
6F
102
}
330
6F
100
AcDbDictionary
281
     1
  0
DICTIONARY
  5
70
102
{ACAD_REACTORS
330
6F
102
}
330
6F
100
AcDbDictionary
281
     1
  0
DICTIONARY
  5
7C
102
{ACAD_REACTORS
330
6F
102
}
330
6F
100
AcDbDictionary
281
     1
  3
Layout1
350
80
  3
Model
350
84
  0
DICTIONARY
  5
80D
102
{ACAD_REACTORS
330
6F
102
}
330
6F
100
AcDbDictionary
281
     1
  3
ByBlock
350
816
  3
ByLayer
350
80E
  3
Global
350
81E
  0
DICTIONARY
  5
85F
102
{ACAD_REACTORS
330
6F
102
}
330
6F
100
AcDbDictionary
281
     1
  3
Standard
350
860
  0
DICTIONARY
  5
79
102
{ACAD_REACTORS
330
6F
102
}
330
6F
100
AcDbDictionary
281
     1
  3
Standard
350
7A
  0
DICTIONARY
  5
7B
102
{ACAD_REACTORS
330
6F
102
}
330
6F
100
AcDbDictionary
281
     1
  0
ACDBDICTIONARYWDFLT
  5
71
102
{ACAD_REACTORS
330
6F
102
}
330
6F
100
AcDbDictionary
281
     1
  3
Normal
350
72
100
AcDbDictionaryWithDefault
340
72
  0
DICTIONARY
  5
83D
102
{ACAD_REACTORS
330
6F
102
}
330
6F
100
AcDbDictionary
281
     1
  3
A0
350
83E
  3
A1
350
83F
  3
A2
350
840
  3
A3
350
841
  3
A4
350
842
  3
A5
350
843
  3
A6
350
844
  3
A7
350
845
  3
A8
350
846
  3
A9
350
847
  3
B0
350
848
  3
B1
350
849
  3
B2
350
84A
  3
B3
350
84B
  3
B4
350
84C
  3
B5
350
84D
  3
B6
350
84E
  3
B7
350
84F
  3
B8
350
850
  3
B9
350
851
  3
C0
350
852
  3
C1
350
853
  3
C2
350
854
  3
C3
350
855
  3
C4
350
856
  3
C5
350
857
  3
C6
350
858
  3
C7
350
859
  3
C8
350
85A
  3
C9
350
85B
  3
D0
350
85C
  3
D1
350
85D
  3
D2
350
85E
  0
DICTIONARY
  5
83B
102
{ACAD_REACTORS
330
6F
102
}
330
6F
100
AcDbDictionary
281
     1
  3
Standard
350
83C
  0
DICTIONARY
  5
826
102
{ACAD_REACTORS
330
6F
102
}
330
6F
100
AcDbDictionary
281
     1
  3
2dWireframe
350
82C
  3
3D Hidden
350
82E
  3
3dWireframe
350
82D
  3
Basic
350
82B
  3
Brighten
350
832
  3
ColorChange
350
836
  3
Conceptual
350
82F
  3
Dim
350
831
  3
EdgeColorOff
350
839
  3
Facepattern
350
835
  3
Flat
350
827
  3
FlatWithEdges
350
828
  3
Gouraud
350
829
  3
GouraudWithEdges
350
82A
  3
JitterOff
350
837
  3
Linepattern
350
834
  3
OverhangOff
350
838
  3
Realistic
350
830
  3
Thicken
350
833
  0
XRECORD
  5
8F3
102
{ACAD_REACTORS
330
6F
102
}
330
6F
100
AcDbXrecord
280
     1
 90
        1
330
83C
  0
DICTIONARY
  5
87F
102
{ACAD_REACTORS
330
6F
102
}
330
6F
100
AcDbDictionary
281
     1
  3
CANNOSCALE
350
882
  3
CMLEADERSTYLE
350
881
  3
CTABLESTYLE
350
880
  3
DIMASSOC
350
885
  3
INDEXCTL
350
884
  3
SORTENTS
350
883
  3
XCLIPFRAME
350
8F1
  0
XRECORD
  5
8F4
102
{ACAD_REACTORS
330
6F
102
}
330
6F
100
AcDbXrecord
280
     1
  1
DWGPROPS COOKIE
  2

  3

  4

  6

  7

  8
Surface2JohnB
  9

300
=
301
=
302
=
303
=
304
=
305
=
306
=
307
=
308
=
309
=
 40
0.0136249884259259
 41
2453239.133425926
 42
2458297.256622847
  1

 90
        0
  0
XRECORD
  5
876
102
{ACAD_REACTORS
330
875
102
}
330
875
100
AcDbXrecord
280
     1
290
     1
  0
XRECORD
  5
878
102
{ACAD_REACTORS
330
877
102
}
330
877
100
AcDbXrecord
280
     1
290
     1
  0
XRECORD
  5
87A
102
{ACAD_REACTORS
330
879
102
}
330
879
100
AcDbXrecord
280
     1
290
     1
  0
XRECORD
  5
87C
102
{ACAD_REACTORS
330
87B
102
}
330
87B
100
AcDbXrecord
280
     1
290
     1
  0
XRECORD
  5
87E
102
{ACAD_REACTORS
330
87D
102
}
330
87D
100
AcDbXrecord
280
     1
290
     1
  0
LAYOUT
  5
80
102
{ACAD_XDICTIONARY
360
8F5
102
}
102
{ACAD_REACTORS
330
7C
102
}
330
7C
100
AcDbPlotSettings
  1

  2
HP DeskJet 840C/841C/842C/843C
  4

  6

 40
0.0
 41
0.0
 42
0.0
 43
0.0
 44
0.0
 45
0.0
 46
0.0
 47
0.0
 48
0.0
 49
0.0
140
0.0
141
0.0
142
1.0
143
1.0
 70
   688
 72
     0
 73
     0
 74
     5
  7

 75
    16
147
1.0
148
0.0
149
0.0
100
AcDbLayout
  1
Layout1
 70
     0
 71
     1
 10
0.0
 20
0.0
 11
12.0
 21
9.0
 12
0.0
 22
0.0
 32
0.0
 14
-1.000000000000000E+20
 24
-1.000000000000000E+20
 34
-1.000000000000000E+20
 15
-1.000000000000000E+20
 25
-1.000000000000000E+20
 35
-1.000000000000000E+20
146
0.0
 13
0.0
 23
0.0
 33
0.0
 16
1.0
 26
0.0
 36
0.0
 17
0.0
 27
1.0
 37
0.0
 76
     0
330
7D
  0
LAYOUT
  5
84
102
{ACAD_XDICTIONARY
360
8F7
102
}
102
{ACAD_REACTORS
330
7C
102
}
330
7C
100
AcDbPlotSettings
  1

  2
HP DeskJet 840C/841C/842C/843C
  4

  6

 40
0.0
 41
0.0
 42
0.0
 43
0.0
 44
0.0
 45
0.0
 46
0.0
 47
0.0
 48
0.0
 49
0.0
140
0.0
141
0.0
142
1.0
143
1.0
 70
  1712
 72
     0
 73
     0
 74
     0
  7

 75
     0
147
1.0
148
0.0
149
0.0
100
AcDbLayout
  1
Model
 70
     1
 71
     0
 10
0.0
 20
0.0
 11
12.0
 21
9.0
 12
0.0
 22
0.0
 32
0.0
 14
0.0
 24
0.0
 34
0.0
 15
0.0
 25
0.0
 35
0.0
146
0.0
 13
0.0
 23
0.0
 33
0.0
 16
1.0
 26
0.0
 36
0.0
 17
0.0
 27
1.0
 37
0.0
 76
     0
330
81
331
80A
  0
MATERIAL
  5
816
102
{ACAD_XDICTIONARY
360
817
102
}
102
{ACAD_REACTORS
330
80D
102
}
330
80D
100
AcDbMaterial
  1
ByBlock
 72
     0
 43
0.0208333333333333
 43
0.0
 43
0.0
 43
0.0
 43
0.0
 43
0.0208333333333333
 43
0.0
 43
0.0
 43
0.0
 43
0.0
 43
1.0
 43
0.0
 43
0.0
 43
0.0
 43
0.0
 43
1.0
 77
     0
 47
0.0208333333333333
 47
0.0
 47
0.0
 47
0.0
 47
0.0
 47
0.0208333333333333
 47
0.0
 47
0.0
 47
0.0
 47
0.0
 47
1.0
 47
0.0
 47
0.0
 47
0.0
 47
0.0
 47
1.0
171
     0
 49
0.0208333333333333
 49
0.0
 49
0.0
 49
0.0
 49
0.0
 49
0.0208333333333333
 49
0.0
 49
0.0
 49
0.0
 49
0.0
 49
1.0
 49
0.0
 49
0.0
 49
0.0
 49
0.0
 49
1.0
175
     0
142
0.0208333333333333
142
0.0
142
0.0
142
0.0
142
0.0
142
0.0208333333333333
142
0.0
142
0.0
142
0.0
142
0.0
142
1.0
142
0.0
142
0.0
142
0.0
142
0.0
142
1.0
179
     0
144
0.0208333333333333
144
0.0
144
0.0
144
0.0
144
0.0
144
0.0208333333333333
144
0.0
144
0.0
144
0.0
144
0.0
144
1.0
144
0.0
144
0.0
144
0.0
144
0.0
144
1.0
147
0.0208333333333333
147
0.0
147
0.0
147
0.0
147
0.0
147
0.0208333333333333
147
0.0
147
0.0
147
0.0
147
0.0
147
1.0
147
0.0
147
0.0
147
0.0
147
0.0
147
1.0
  0
MATERIAL
  5
80E
102
{ACAD_XDICTIONARY
360
80F
102
}
102
{ACAD_REACTORS
330
80D
102
}
330
80D
100
AcDbMaterial
  1
ByLayer
 72
     0
 43
0.0208333333333333
 43
0.0
 43
0.0
 43
0.0
 43
0.0
 43
0.0208333333333333
 43
0.0
 43
0.0
 43
0.0
 43
0.0
 43
1.0
 43
0.0
 43
0.0
 43
0.0
 43
0.0
 43
1.0
 77
     0
 47
0.0208333333333333
 47
0.0
 47
0.0
 47
0.0
 47
0.0
 47
0.0208333333333333
 47
0.0
 47
0.0
 47
0.0
 47
0.0
 47
1.0
 47
0.0
 47
0.0
 47
0.0
 47
0.0
 47
1.0
171
     0
 49
0.0208333333333333
 49
0.0
 49
0.0
 49
0.0
 49
0.0
 49
0.0208333333333333
 49
0.0
 49
0.0
 49
0.0
 49
0.0
 49
1.0
 49
0.0
 49
0.0
 49
0.0
 49
0.0
 49
1.0
175
     0
142
0.0208333333333333
142
0.0
142
0.0
142
0.0
142
0.0
142
0.0208333333333333
142
0.0
142
0.0
142
0.0
142
0.0
142
1.0
142
0.0
142
0.0
142
0.0
142
0.0
142
1.0
179
     0
144
0.0208333333333333
144
0.0
144
0.0
144
0.0
144
0.0
144
0.0208333333333333
144
0.0
144
0.0
144
0.0
144
0.0
144
1.0
144
0.0
144
0.0
144
0.0
144
0.0
144
1.0
147
0.0208333333333333
147
0.0
147
0.0
147
0.0
147
0.0
147
0.0208333333333333
147
0.0
147
0.0
147
0.0
147
0.0
147
1.0
147
0.0
147
0.0
147
0.0
147
0.0
147
1.0
  0
MATERIAL
  5
81E
102
{ACAD_XDICTIONARY
360
81F
102
}
102
{ACAD_REACTORS
330
80D
102
}
330
80D
100
AcDbMaterial
  1
Global
 72
     0
 43
0.0208333333333333
 43
0.0
 43
0.0
 43
0.0
 43
0.0
 43
0.0208333333333333
 43
0.0
 43
0.0
 43
0.0
 43
0.0
 43
1.0
 43
0.0
 43
0.0
 43
0.0
 43
0.0
 43
1.0
 77
     0
 47
0.0208333333333333
 47
0.0
 47
0.0
 47
0.0
 47
0.0
 47
0.0208333333333333
 47
0.0
 47
0.0
 47
0.0
 47
0.0
 47
1.0
 47
0.0
 47
0.0
 47
0.0
 47
0.0
 47
1.0
171
     0
 49
0.0208333333333333
 49
0.0
 49
0.0
 49
0.0
 49
0.0
 49
0.0208333333333333
 49
0.0
 49
0.0
 49
0.0
 49
0.0
 49
1.0
 49
0.0
 49
0.0
 49
0.0
 49
0.0
 49
1.0
175
     0
142
0.0208333333333333
142
0.0
142
0.0
142
0.0
142
0.0
142
0.0208333333333333
142
0.0
142
0.0
142
0.0
142
0.0
142
1.0
142
0.0
142
0.0
142
0.0
142
0.0
142
1.0
179
     0
144
0.0208333333333333
144
0.0
144
0.0
144
0.0
144
0.0
144
0.0208333333333333
144
0.0
144
0.0
144
0.0
144
0.0
144
1.0
144
0.0
144
0.0
144
0.0
144
0.0
144
1.0
147
0.0208333333333333
147
0.0
147
0.0
147
0.0
147
0.0
147
0.0208333333333333
147
0.0
147
0.0
147
0.0
147
0.0
147
1.0
147
0.0
147
0.0
147
0.0
147
0.0
147
1.0
  0
MLEADERSTYLE
  5
860
102
{ACAD_REACTORS
330
85F
102
}
330
85F
100
AcDbMLeaderStyle
170
     2
171
     1
172
     0
 90
        2
 40
0.0
 41
0.0
173
     1
 91
-1056964608
340
76
 92
       -2
290
     1
 42
0.09
291
     1
 43
0.36
  3
Standard
 44
0.18
300

342
74
174
     1
178
     6
175
     1
176
     0
 93
-1056964608
 45
0.18
292
     0
297
     0
 46
0.18
 94
-1056964608
 47
1.0
 49
1.0
140
1.0
293
     1
141
0.0
294
     1
177
     0
142
1.0
295
     0
296
     0
143
0.125
1001
ACAD_MLEADERVER
1070
     2
  0
MLINESTYLE
  5
7A
102
{ACAD_REACTORS
330
79
102
}
330
79
100
AcDbMlineStyle
  2
STANDARD
 70
     0
  3

 62
   256
 51
90.0
 52
90.0
 71
     2
 49
0.5
 62
   256
  6
BYLAYER
 49
-0.5
 62
   256
  6
BYLAYER
  0
ACDBPLACEHOLDER
  5
72
102
{ACAD_REACTORS
330
71
102
}
330
71
  0
SCALE
  5
83E
102
{ACAD_REACTORS
330
83D
102
}
330
83D
100
AcDbScale
 70
     0
300
1:1
140
1.0
141
1.0
290
     1
  0
SCALE
  5
83F
102
{ACAD_REACTORS
330
83D
102
}
330
83D
100
AcDbScale
 70
     0
300
1:2
140
1.0
141
2.0
290
     0
  0
SCALE
  5
840
102
{ACAD_REACTORS
330
83D
102
}
330
83D
100
AcDbScale
 70
     0
300
1:4
140
1.0
141
4.0
290
     0
  0
SCALE
  5
841
102
{ACAD_REACTORS
330
83D
102
}
330
83D
100
AcDbScale
 70
     0
300
1:5
140
1.0
141
5.0
290
     0
  0
SCALE
  5
842
102
{ACAD_REACTORS
330
83D
102
}
330
83D
100
AcDbScale
 70
     0
300
1:8
140
1.0
141
8.0
290
     0
  0
SCALE
  5
843
102
{ACAD_REACTORS
330
83D
102
}
330
83D
100
AcDbScale
 70
     0
300
1:10
140
1.0
141
10.0
290
     0
  0
SCALE
  5
844
102
{ACAD_REACTORS
330
83D
102
}
330
83D
100
AcDbScale
 70
     0
300
1:16
140
1.0
141
16.0
290
     0
  0
SCALE
  5
845
102
{ACAD_REACTORS
330
83D
102
}
330
83D
100
AcDbScale
 70
     0
300
1:20
140
1.0
141
20.0
290
     0
  0
SCALE
  5
846
102
{ACAD_REACTORS
330
83D
102
}
330
83D
100
AcDbScale
 70
     0
300
1:30
140
1.0
141
30.0
290
     0
  0
SCALE
  5
847
102
{ACAD_REACTORS
330
83D
102
}
330
83D
100
AcDbScale
 70
     0
300
1:40
140
1.0
141
40.0
290
     0
  0
SCALE
  5
848
102
{ACAD_REACTORS
330
83D
102
}
330
83D
100
AcDbScale
 70
     0
300
1:50
140
1.0
141
50.0
290
     0
  0
SCALE
  5
849
102
{ACAD_REACTORS
330
83D
102
}
330
83D
100
AcDbScale
 70
     0
300
1:100
140
1.0
141
100.0
290
     0
  0
SCALE
  5
84A
102
{ACAD_REACTORS
330
83D
102
}
330
83D
100
AcDbScale
 70
     0
300
2:1
140
2.0
141
1.0
290
     0
  0
SCALE
  5
84B
102
{ACAD_REACTORS
330
83D
102
}
330
83D
100
AcDbScale
 70
     0
300
4:1
140
4.0
141
1.0
290
     0
  0
SCALE
  5
84C
102
{ACAD_REACTORS
330
83D
102
}
330
83D
100
AcDbScale
 70
     0
300
8:1
140
8.0
141
1.0
290
     0
  0
SCALE
  5
84D
102
{ACAD_REACTORS
330
83D
102
}
330
83D
100
AcDbScale
 70
     0
300
10:1
140
10.0
141
1.0
290
     0
  0
SCALE
  5
84E
102
{ACAD_REACTORS
330
83D
102
}
330
83D
100
AcDbScale
 70
     0
300
100:1
140
100.0
141
1.0
290
     0
  0
SCALE
  5
84F
102
{ACAD_REACTORS
330
83D
102
}
330
83D
100
AcDbScale
 70
     0
300
1/128" = 1'-0"
140
0.0078125
141
12.0
290
     0
  0
SCALE
  5
850
102
{ACAD_REACTORS
330
83D
102
}
330
83D
100
AcDbScale
 70
     0
300
1/64" = 1'-0"
140
0.015625
141
12.0
290
     0
  0
SCALE
  5
851
102
{ACAD_REACTORS
330
83D
102
}
330
83D
100
AcDbScale
 70
     0
300
1/32" = 1'-0"
140
0.03125
141
12.0
290
     0
  0
SCALE
  5
852
102
{ACAD_REACTORS
330
83D
102
}
330
83D
100
AcDbScale
 70
     0
300
1/16" = 1'-0"
140
0.0625
141
12.0
290
     0
  0
SCALE
  5
853
102
{ACAD_REACTORS
330
83D
102
}
330
83D
100
AcDbScale
 70
     0
300
3/32" = 1'-0"
140
0.09375
141
12.0
290
     0
  0
SCALE
  5
854
102
{ACAD_REACTORS
330
83D
102
}
330
83D
100
AcDbScale
 70
     0
300
1/8" = 1'-0"
140
0.125
141
12.0
290
     0
  0
SCALE
  5
855
102
{ACAD_REACTORS
330
83D
102
}
330
83D
100
AcDbScale
 70
     0
300
3/16" = 1'-0"
140
0.1875
141
12.0
290
     0
  0
SCALE
  5
856
102
{ACAD_REACTORS
330
83D
102
}
330
83D
100
AcDbScale
 70
     0
300
1/4" = 1'-0"
140
0.25
141
12.0
290
     0
  0
SCALE
  5
857
102
{ACAD_REACTORS
330
83D
102
}
330
83D
100
AcDbScale
 70
     0
300
3/8" = 1'-0"
140
0.375
141
12.0
290
     0
  0
SCALE
  5
858
102
{ACAD_REACTORS
330
83D
102
}
330
83D
100
AcDbScale
 70
     0
300
1/2" = 1'-0"
140
0.5
141
12.0
290
     0
  0
SCALE
  5
859
102
{ACAD_REACTORS
330
83D
102
}
330
83D
100
AcDbScale
 70
     0
300
3/4" = 1'-0"
140
0.75
141
12.0
290
     0
  0
SCALE
  5
85A
102
{ACAD_REACTORS
330
83D
102
}
330
83D
100
AcDbScale
 70
     0
300
1" = 1'-0"
140
1.0
141
12.0
290
     0
  0
SCALE
  5
85B
102
{ACAD_REACTORS
330
83D
102
}
330
83D
100
AcDbScale
 70
     0
300
1-1/2" = 1'-0"
140
1.5
141
12.0
290
     0
  0
SCALE
  5
85C
102
{ACAD_REACTORS
330
83D
102
}
330
83D
100
AcDbScale
 70
     0
300
3" = 1'-0"
140
3.0
141
12.0
290
     0
  0
SCALE
  5
85D
102
{ACAD_REACTORS
330
83D
102
}
330
83D
100
AcDbScale
 70
     0
300
6" = 1'-0"
140
6.0
141
12.0
290
     0
  0
SCALE
  5
85E
102
{ACAD_REACTORS
330
83D
102
}
330
83D
100
AcDbScale
 70
     0
300
1'-0" = 1'-0"
140
12.0
141
12.0
290
     0
  0
TABLESTYLE
  5
83C
102
{ACAD_XDICTIONARY
360
887
102
}
102
{ACAD_REACTORS
330
83B
102
}
330
83B
100
AcDbTableStyle
  3
Standard
 70
     0
 71
     0
 40
0.06
 41
0.06
280
     0
281
     0
  7
STANDARD
140
0.18
170
     2
 62
     0
 63
     7
283
     0
274
    -2
284
     1
 64
     0
275
    -2
285
     1
 65
     0
276
    -2
286
     1
 66
     0
277
    -2
287
     1
 67
     0
278
    -2
288
     1
 68
     0
279
    -2
289
     1
 69
     0
  7
STANDARD
140
0.25
170
     5
 62
     0
 63
     7
283
     0
274
    -2
284
     1
 64
     0
275
    -2
285
     1
 65
     0
276
    -2
286
     1
 66
     0
277
    -2
287
     1
 67
     0
278
    -2
288
     1
 68
     0
279
    -2
289
     1
 69
     0
  7
STANDARD
140
0.18
170
     5
 62
     0
 63
     7
283
     0
274
    -2
284
     1
 64
     0
275
    -2
285
     1
 65
     0
276
    -2
286
     1
 66
     0
277
    -2
287
     1
 67
     0
278
    -2
288
     1
 68
     0
279
    -2
289
     1
 69
     0
  0
VISUALSTYLE
  5
82C
102
{ACAD_XDICTIONARY
360
903
102
}
102
{ACAD_REACTORS
330
826
102
}
330
826
100
AcDbVisualStyle
  2

 70
     4
 71
     0
 72
     2
 73
     0
 90
        0
 40
-0.6
 41
-30.0
 62
     5
 63
     7
 74
     1
 91
        4
 64
     7
 65
   257
 75
     1
175
     1
 42
1.0
 92
        0
 66
   257
 43
1.0
 76
     1
 77
     6
 78
     2
 67
     7
 79
     5
170
     0
171
     0
290
     0
174
     0
 93
        1
 44
0.0
173
     0
291
     0
 45
0.0
1001
ACAD
1000
AcDbSavedByObjectVersion
1070
     0
  0
VISUALSTYLE
  5
82E
102
{ACAD_XDICTIONARY
360
907
102
}
102
{ACAD_REACTORS
330
826
102
}
330
826
100
AcDbVisualStyle
  2

 70
     6
 71
     1
 72
     2
 73
     2
 90
        0
 40
-0.6
 41
-30.0
 62
     5
 63
     7
 74
     2
 91
        2
 64
     7
 65
   257
 75
     2
175
     1
 42
179.0
 92
        0
 66
   257
 43
1.0
 76
     1
 77
     6
 78
     2
 67
     7
 79
     3
170
     0
171
     0
290
     0
174
     0
 93
        1
 44
0.0
173
     0
291
     0
 45
0.0
1001
ACAD
1000
AcDbSavedByObjectVersion
1070
     0
  0
VISUALSTYLE
  5
82D
102
{ACAD_XDICTIONARY
360
905
102
}
102
{ACAD_REACTORS
330
826
102
}
330
826
100
AcDbVisualStyle
  2

 70
     5
 71
     0
 72
     2
 73
     0
 90
        0
 40
-0.6
 41
-30.0
 62
     5
 63
     7
 74
     1
 91
        4
 64
     7
 65
   257
 75
     1
175
     1
 42
1.0
 92
        0
 66
   257
 43
1.0
 76
     1
 77
     6
 78
     2
 67
     7
 79
     5
170
     0
171
     0
290
     0
174
     0
 93
        1
 44
0.0
173
     0
291
     0
 45
0.0
1001
ACAD
1000
AcDbSavedByObjectVersion
1070
     0
  0
VISUALSTYLE
  5
82B
102
{ACAD_XDICTIONARY
360
901
102
}
102
{ACAD_REACTORS
330
826
102
}
330
826
100
AcDbVisualStyle
  2

 70
     7
 71
     1
 72
     0
 73
     1
 90
        0
 40
-0.6
 41
-30.0
 62
     5
 63
     7
 74
     0
 91
        4
 64
     7
 65
   257
 75
     1
175
     1
 42
1.0
 92
        8
 66
     7
 43
1.0
 76
     1
 77
     6
 78
     2
 67
     7
 79
     5
170
     0
171
     0
290
     0
174
     0
 93
        1
 44
0.0
173
     0
291
     1
 45
0.0
1001
ACAD
1000
AcDbSavedByObjectVersion
1070
     0
  0
VISUALSTYLE
  5
832
102
{ACAD_XDICTIONARY
360
90F
102
}
102
{ACAD_REACTORS
330
826
102
}
330
826
100
AcDbVisualStyle
  2

 70
    12
 71
     2
 72
     2
 73
     0
 90
        0
 40
-0.6
 41
-30.0
 62
     5
 63
     7
 74
     1
 91
        4
 64
     7
 65
   257
 75
     1
175
     1
 42
1.0
 92
        8
 66
     7
 43
1.0
 76
     1
 77
     6
 78
     2
 67
     7
 79
     5
170
     0
171
     0
290
     0
174
     0
 93
        1
 44
50.0
173
     0
291
     1
 45
0.0
1001
ACAD
1000
AcDbSavedByObjectVersion
1070
     0
  0
VISUALSTYLE
  5
836
102
{ACAD_XDICTIONARY
360
917
102
}
102
{ACAD_REACTORS
330
826
102
}
330
826
100
AcDbVisualStyle
  2

 70
    16
 71
     2
 72
     2
 73
     3
 90
        0
 40
-0.6
 41
-30.0
 62
     5
 63
     8
 74
     1
 91
        4
 64
     7
 65
   257
 75
     1
175
     1
 42
1.0
 92
        8
 66
     8
 43
1.0
 76
     1
 77
     6
 78
     2
 67
     7
 79
     5
170
     0
171
     0
290
     0
174
     0
 93
        1
 44
0.0
173
     0
291
     1
 45
0.0
1001
ACAD
1000
AcDbSavedByObjectVersion
1070
     0
  0
VISUALSTYLE
  5
82F
102
{ACAD_XDICTIONARY
360
909
102
}
102
{ACAD_REACTORS
330
826
102
}
330
826
100
AcDbVisualStyle
  2

 70
     9
 71
     3
 72
     2
 73
     0
 90
        0
 40
-0.6
 41
-30.0
 62
     5
 63
     7
 74
     2
 91
        2
 64
     7
 65
   257
 75
     1
175
     1
 42
179.0
 92
        8
 66
     7
 43
1.0
 76
     1
 77
     6
 78
     2
 67
     7
 79
     3
170
     0
171
     0
290
     0
174
     0
 93
        1
 44
0.0
173
     0
291
     0
 45
0.0
1001
ACAD
1000
AcDbSavedByObjectVersion
1070
     0
  0
VISUALSTYLE
  5
831
102
{ACAD_XDICTIONARY
360
90D
102
}
102
{ACAD_REACTORS
330
826
102
}
330
826
100
AcDbVisualStyle
  2

 70
    11
 71
     2
 72
     2
 73
     0
 90
        0
 40
-0.6
 41
-30.0
 62
     5
 63
     7
 74
     1
 91
        4
 64
     7
 65
   257
 75
     1
175
     1
 42
1.0
 92
        8
 66
     7
 43
1.0
 76
     1
 77
     6
 78
     2
 67
     7
 79
     5
170
     0
171
     0
290
     0
174
     0
 93
        1
 44
-50.0
173
     0
291
     1
 45
0.0
1001
ACAD
1000
AcDbSavedByObjectVersion
1070
     0
  0
VISUALSTYLE
  5
839
102
{ACAD_XDICTIONARY
360
91D
102
}
102
{ACAD_REACTORS
330
826
102
}
330
826
100
AcDbVisualStyle
  2

 70
    22
 71
     2
 72
     2
 73
     0
 90
        0
 40
-0.6
 41
-30.0
 62
     5
 63
     7
 74
     1
 91
        4
 64
     7
 65
   257
 75
     1
175
     1
 42
1.0
 92
        8
 66
     7
 43
1.0
 76
     1
 77
     6
 78
     2
 67
     7
 79
     5
170
     0
171
     0
290
     0
174
     0
 93
        1
 44
0.0
173
     0
291
     1
 45
0.0
1001
ACAD
1000
AcDbSavedByObjectVersion
1070
     0
  0
VISUALSTYLE
  5
835
102
{ACAD_XDICTIONARY
360
915
102
}
102
{ACAD_REACTORS
330
826
102
}
330
826
100
AcDbVisualStyle
  2

 70
    15
 71
     2
 72
     2
 73
     0
 90
        0
 40
-0.6
 41
-30.0
 62
     5
 63
     7
 74
     1
 91
        4
 64
     7
 65
   257
 75
     1
175
     1
 42
1.0
 92
        8
 66
     7
 43
1.0
 76
     1
 77
     6
 78
     2
 67
     7
 79
     5
170
     0
171
     0
290
     0
174
     0
 93
        1
 44
0.0
173
     0
291
     1
 45
0.0
1001
ACAD
1000
AcDbSavedByObjectVersion
1070
     0
  0
VISUALSTYLE
  5
827
102
{ACAD_XDICTIONARY
360
8F9
102
}
102
{ACAD_REACTORS
330
826
102
}
330
826
100
AcDbVisualStyle
  2

 70
     0
 71
     2
 72
     1
 73
     1
 90
        2
 40
-0.6
 41
30.0
 62
     5
 63
     7
 74
     0
 91
        4
 64
     7
 65
   257
 75
     1
175
     1
 42
1.0
 92
        8
 66
     7
 43
1.0
 76
     1
 77
     6
 78
     2
 67
     7
 79
     5
170
     0
171
     0
290
     0
174
     0
 93
       13
 44
0.0
173
     0
291
     1
 45
0.0
1001
ACAD
1000
AcDbSavedByObjectVersion
1070
     0
  0
VISUALSTYLE
  5
828
102
{ACAD_XDICTIONARY
360
8FB
102
}
102
{ACAD_REACTORS
330
826
102
}
330
826
100
AcDbVisualStyle
  2

 70
     1
 71
     2
 72
     1
 73
     1
 90
        2
 40
-0.6
 41
30.0
 62
     5
 63
     7
 74
     1
 91
        4
 64
     7
 65
   257
 75
     1
175
     1
 42
1.0
 92
        0
 66
   257
 43
1.0
 76
     1
 77
     6
 78
     2
 67
     7
 79
     5
170
     0
171
     0
290
     0
174
     0
 93
       13
 44
0.0
173
     0
291
     1
 45
0.0
1001
ACAD
1000
AcDbSavedByObjectVersion
1070
     0
  0
VISUALSTYLE
  5
829
102
{ACAD_XDICTIONARY
360
8FD
102
}
102
{ACAD_REACTORS
330
826
102
}
330
826
100
AcDbVisualStyle
  2

 70
     2
 71
     2
 72
     2
 73
     1
 90
        2
 40
-0.6
 41
30.0
 62
     5
 63
     7
 74
     0
 91
        4
 64
     7
 65
   257
 75
     1
175
     1
 42
1.0
 92
        0
 66
     7
 43
1.0
 76
     1
 77
     6
 78
     2
 67
     7
 79
     5
170
     0
171
     0
290
     0
174
     0
 93
       13
 44
0.0
173
     0
291
     1
 45
0.0
1001
ACAD
1000
AcDbSavedByObjectVersion
1070
     0
  0
VISUALSTYLE
  5
82A
102
{ACAD_XDICTIONARY
360
8FF
102
}
102
{ACAD_REACTORS
330
826
102
}
330
826
100
AcDbVisualStyle
  2

 70
     3
 71
     2
 72
     2
 73
     1
 90
        2
 40
-0.6
 41
30.0
 62
     5
 63
     7
 74
     1
 91
        4
 64
     7
 65
   257
 75
     1
175
     1
 42
1.0
 92
        0
 66
   257
 43
1.0
 76
     1
 77
     6
 78
     2
 67
     7
 79
     5
170
     0
171
     0
290
     0
174
     0
 93
       13
 44
0.0
173
     0
291
     1
 45
0.0
1001
ACAD
1000
AcDbSavedByObjectVersion
1070
     0
  0
VISUALSTYLE
  5
837
102
{ACAD_XDICTIONARY
360
919
102
}
102
{ACAD_REACTORS
330
826
102
}
330
826
100
AcDbVisualStyle
  2

 70
    20
 71
     2
 72
     2
 73
     0
 90
        0
 40
-0.6
 41
-30.0
 62
     5
 63
     7
 74
     1
 91
        4
 64
     7
 65
   257
 75
     1
175
     1
 42
1.0
 92
       10
 66
     7
 43
1.0
 76
     1
 77
     6
 78
     2
 67
     7
 79
     5
170
     0
171
     0
290
     0
174
     0
 93
        1
 44
0.0
173
     0
291
     1
 45
0.0
1001
ACAD
1000
AcDbSavedByObjectVersion
1070
     0
  0
VISUALSTYLE
  5
834
102
{ACAD_XDICTIONARY
360
913
102
}
102
{ACAD_REACTORS
330
826
102
}
330
826
100
AcDbVisualStyle
  2

 70
    14
 71
     2
 72
     2
 73
     0
 90
        0
 40
-0.6
 41
-30.0
 62
     5
 63
     7
 74
     1
 91
        4
 64
     7
 65
   257
 75
     7
175
     7
 42
1.0
 92
        8
 66
     7
 43
1.0
 76
     1
 77
     6
 78
     2
 67
     7
 79
     5
170
     0
171
     0
290
     0
174
     0
 93
        1
 44
0.0
173
     0
291
     1
 45
0.0
1001
ACAD
1000
AcDbSavedByObjectVersion
1070
     0
  0
VISUALSTYLE
  5
838
102
{ACAD_XDICTIONARY
360
91B
102
}
102
{ACAD_REACTORS
330
826
102
}
330
826
100
AcDbVisualStyle
  2

 70
    21
 71
     2
 72
     2
 73
     0
 90
        0
 40
-0.6
 41
-30.0
 62
     5
 63
     7
 74
     1
 91
        4
 64
     7
 65
   257
 75
     1
175
     1
 42
1.0
 92
        9
 66
     7
 43
1.0
 76
     1
 77
     6
 78
     2
 67
     7
 79
     5
170
     0
171
     0
290
     0
174
     0
 93
        1
 44
0.0
173
     0
291
     1
 45
0.0
1001
ACAD
1000
AcDbSavedByObjectVersion
1070
     0
  0
VISUALSTYLE
  5
830
102
{ACAD_XDICTIONARY
360
90B
102
}
102
{ACAD_REACTORS
330
826
102
}
330
826
100
AcDbVisualStyle
  2

 70
     8
 71
     2
 72
     2
 73
     0
 90
        0
 40
-0.6
 41
-30.0
 62
     5
 63
     7
 74
     1
 91
        0
 64
     7
 65
   257
 75
     1
175
     1
 42
1.0
 92
        8
 66
     8
 43
1.0
 76
     1
 77
     6
 78
     2
 67
     7
 79
     5
170
     0
171
     0
290
     0
174
     0
 93
       13
 44
0.0
173
     0
291
     0
 45
0.0
1001
ACAD
1000
AcDbSavedByObjectVersion
1070
     0
  0
VISUALSTYLE
  5
833
102
{ACAD_XDICTIONARY
360
911
102
}
102
{ACAD_REACTORS
330
826
102
}
330
826
100
AcDbVisualStyle
  2

 70
    13
 71
     2
 72
     2
 73
     0
 90
        0
 40
-0.6
 41
-30.0
 62
     5
 63
     7
 74
     1
 91
        4
 64
     7
 65
   257
 75
     1
175
     1
 42
1.0
 92
       12
 66
     7
 43
1.0
 76
     1
 77
     6
 78
     2
 67
     7
 79
     5
170
     0
171
     0
290
     0
174
     0
 93
        1
 44
0.0
173
     0
291
     1
 45
0.0
1001
ACAD
1000
AcDbSavedByObjectVersion
1070
     0
  0
DICTIONARYVAR
  5
882
102
{ACAD_REACTORS
330
87F
102
}
330
87F
100
DictionaryVariables
280
     0
  1
1:1
  0
DICTIONARYVAR
  5
881
102
{ACAD_REACTORS
330
87F
102
}
330
87F
100
DictionaryVariables
280
     0
  1
STANDARD
  0
DICTIONARYVAR
  5
880
102
{ACAD_REACTORS
330
87F
102
}
330
87F
100
DictionaryVariables
280
     0
  1
STANDARD
  0
DICTIONARYVAR
  5
885
102
{ACAD_REACTORS
330
87F
102
}
330
87F
100
DictionaryVariables
280
     0
  1
1
  0
DICTIONARYVAR
  5
884
102
{ACAD_REACTORS
330
87F
102
}
330
87F
100
DictionaryVariables
280
     0
  1
0
  0
DICTIONARYVAR
  5
883
102
{ACAD_REACTORS
330
87F
102
}
330
87F
100
DictionaryVariables
280
     0
  1
127
  0
DICTIONARYVAR
  5
8F1
102
{ACAD_REACTORS
330
87F
102
}
330
87F
100
DictionaryVariables
280
     0
  1
2
  0
DICTIONARY
  5
8F5
330
80
100
AcDbDictionary
280
     1
281
     1
  3
ACAD_XREC_ROUNDTRIP
360
8F6
  0
DICTIONARY
  5
8F7
330
84
100
AcDbDictionary
280
     1
281
     1
  3
ACAD_XREC_ROUNDTRIP
360
8F8
  0
DICTIONARY
  5
817
330
816
100
AcDbDictionary
280
     1
281
     1
  3
ACAD_XREC_ROUNDTRIP
360
890
  3
BUMPTILE
360
819
  3
DIFFUSETILE
360
818
  3
OPACITYTILE
360
81C
  3
REFLECTIONTILE
360
81B
  3
REFRACTIONTILE
360
81D
  3
SPECULARTILE
360
81A
  0
DICTIONARY
  5
80F
330
80E
100
AcDbDictionary
280
     1
281
     1
  3
ACAD_XREC_ROUNDTRIP
360
88F
  3
BUMPTILE
360
811
  3
DIFFUSETILE
360
810
  3
OPACITYTILE
360
814
  3
REFLECTIONTILE
360
813
  3
REFRACTIONTILE
360
815
  3
SPECULARTILE
360
812
  0
DICTIONARY
  5
81F
330
81E
100
AcDbDictionary
280
     1
281
     1
  3
ACAD_XREC_ROUNDTRIP
360
891
  3
BUMPTILE
360
821
  3
DIFFUSETILE
360
820
  3
OPACITYTILE
360
824
  3
REFLECTIONTILE
360
823
  3
REFRACTIONTILE
360
825
  3
SPECULARTILE
360
822
  0
DICTIONARY
  5
887
330
83C
100
AcDbDictionary
280
     1
281
     1
  3
ACAD_ROUNDTRIP_2008_TABLESTYLE_CELLSTYLEMAP
360
8F2
  3
ACAD_XREC_ROUNDTRIP
360
91F
  0
DICTIONARY
  5
903
330
82C
100
AcDbDictionary
280
     1
281
     1
  3
ACAD_XREC_ROUNDTRIP
360
904
  0
DICTIONARY
  5
907
330
82E
100
AcDbDictionary
280
     1
281
     1
  3
ACAD_XREC_ROUNDTRIP
360
908
  0
DICTIONARY
  5
905
330
82D
100
AcDbDictionary
280
     1
281
     1
  3
ACAD_XREC_ROUNDTRIP
360
906
  0
DICTIONARY
  5
901
330
82B
100
AcDbDictionary
280
     1
281
     1
  3
ACAD_XREC_ROUNDTRIP
360
902
  0
DICTIONARY
  5
90F
330
832
100
AcDbDictionary
280
     1
281
     1
  3
ACAD_XREC_ROUNDTRIP
360
910
  0
DICTIONARY
  5
917
330
836
100
AcDbDictionary
280
     1
281
     1
  3
ACAD_XREC_ROUNDTRIP
360
918
  0
DICTIONARY
  5
909
330
82F
100
AcDbDictionary
280
     1
281
     1
  3
ACAD_XREC_ROUNDTRIP
360
90A
  0
DICTIONARY
  5
90D
330
831
100
AcDbDictionary
280
     1
281
     1
  3
ACAD_XREC_ROUNDTRIP
360
90E
  0
DICTIONARY
  5
91D
330
839
100
AcDbDictionary
280
     1
281
     1
  3
ACAD_XREC_ROUNDTRIP
360
91E
  0
DICTIONARY
  5
915
330
835
100
AcDbDictionary
280
     1
281
     1
  3
ACAD_XREC_ROUNDTRIP
360
916
  0
DICTIONARY
  5
8F9
330
827
100
AcDbDictionary
280
     1
281
     1
  3
ACAD_XREC_ROUNDTRIP
360
8FA
  0
DICTIONARY
  5
8FB
330
828
100
AcDbDictionary
280
     1
281
     1
  3
ACAD_XREC_ROUNDTRIP
360
8FC
  0
DICTIONARY
  5
8FD
330
829
100
AcDbDictionary
280
     1
281
     1
  3
ACAD_XREC_ROUNDTRIP
360
8FE
  0
DICTIONARY
  5
8FF
330
82A
100
AcDbDictionary
280
     1
281
     1
  3
ACAD_XREC_ROUNDTRIP
360
900
  0
DICTIONARY
  5
919
330
837
100
AcDbDictionary
280
     1
281
     1
  3
ACAD_XREC_ROUNDTRIP
360
91A
  0
DICTIONARY
  5
913
330
834
100
AcDbDictionary
280
     1
281
     1
  3
ACAD_XREC_ROUNDTRIP
360
914
  0
DICTIONARY
  5
91B
330
838
100
AcDbDictionary
280
     1
281
     1
  3
ACAD_XREC_ROUNDTRIP
360
91C
  0
DICTIONARY
  5
90B
330
830
100
AcDbDictionary
280
     1
281
     1
  3
ACAD_XREC_ROUNDTRIP
360
90C
  0
DICTIONARY
  5
911
330
833
100
AcDbDictionary
280
     1
281
     1
  3
ACAD_XREC_ROUNDTRIP
360
912
  0
XRECORD
  5
8F6
102
{ACAD_REACTORS
330
8F5
102
}
330
8F5
100
AcDbXrecord
280
     1
102
SHADEPLOT
 70
     0
102
SHADEPLOTRESLEVEL
 70
     2
102
SHADEPLOTCUSTOMDPI
 70
   300
  0
XRECORD
  5
8F8
102
{ACAD_REACTORS
330
8F7
102
}
330
8F7
100
AcDbXrecord
280
     1
102
SHADEPLOT
 70
     0
102
SHADEPLOTRESLEVEL
 70
     2
102
SHADEPLOTCUSTOMDPI
 70
   300
  0
XRECORD
  5
890
102
{ACAD_REACTORS
330
817
102
}
330
817
100
AcDbXrecord
280
     1
102
MATERIAL
148
0.0
149
0.0
149
0.0
 93
        0
 94
      127
282
     0
 72
     0
 77
     0
171
     0
175
     0
179
     0
273
     0
  0
XRECORD
  5
819
102
{ACAD_REACTORS
330
817
102
}
330
817
100
AcDbXrecord
280
     1
270
     1
271
     1
  0
XRECORD
  5
818
102
{ACAD_REACTORS
330
817
102
}
330
817
100
AcDbXrecord
280
     1
270
     1
271
     1
  0
XRECORD
  5
81C
102
{ACAD_REACTORS
330
817
102
}
330
817
100
AcDbXrecord
280
     1
270
     1
271
     1
  0
XRECORD
  5
81B
102
{ACAD_REACTORS
330
817
102
}
330
817
100
AcDbXrecord
280
     1
270
     1
271
     1
  0
XRECORD
  5
81D
102
{ACAD_REACTORS
330
817
102
}
330
817
100
AcDbXrecord
280
     1
270
     1
271
     1
  0
XRECORD
  5
81A
102
{ACAD_REACTORS
330
817
102
}
330
817
100
AcDbXrecord
280
     1
270
     1
271
     1
  0
XRECORD
  5
88F
102
{ACAD_REACTORS
330
80F
102
}
330
80F
100
AcDbXrecord
280
     1
102
MATERIAL
148
0.0
149
0.0
149
0.0
 93
        0
 94
      127
282
     0
 72
     0
 77
     0
171
     0
175
     0
179
     0
273
     0
  0
XRECORD
  5
811
102
{ACAD_REACTORS
330
80F
102
}
330
80F
100
AcDbXrecord
280
     1
270
     1
271
     1
  0
XRECORD
  5
810
102
{ACAD_REACTORS
330
80F
102
}
330
80F
100
AcDbXrecord
280
     1
270
     1
271
     1
  0
XRECORD
  5
814
102
{ACAD_REACTORS
330
80F
102
}
330
80F
100
AcDbXrecord
280
     1
270
     1
271
     1
  0
XRECORD
  5
813
102
{ACAD_REACTORS
330
80F
102
}
330
80F
100
AcDbXrecord
280
     1
270
     1
271
     1
  0
XRECORD
  5
815
102
{ACAD_REACTORS
330
80F
102
}
330
80F
100
AcDbXrecord
280
     1
270
     1
271
     1
  0
XRECORD
  5
812
102
{ACAD_REACTORS
330
80F
102
}
330
80F
100
AcDbXrecord
280
     1
270
     1
271
     1
  0
XRECORD
  5
891
102
{ACAD_REACTORS
330
81F
102
}
330
81F
100
AcDbXrecord
280
     1
102
MATERIAL
148
0.0
149
0.0
149
0.0
 93
        0
 94
      127
282
     0
 72
     0
 77
     0
171
     0
175
     0
179
     0
273
     0
  0
XRECORD
  5
821
102
{ACAD_REACTORS
330
81F
102
}
330
81F
100
AcDbXrecord
280
     1
270
     1
271
     1
  0
XRECORD
  5
820
102
{ACAD_REACTORS
330
81F
102
}
330
81F
100
AcDbXrecord
280
     1
270
     1
271
     1
  0
XRECORD
  5
824
102
{ACAD_REACTORS
330
81F
102
}
330
81F
100
AcDbXrecord
280
     1
270
     1
271
     1
  0
XRECORD
  5
823
102
{ACAD_REACTORS
330
81F
102
}
330
81F
100
AcDbXrecord
280
     1
270
     1
271
     1
  0
XRECORD
  5
825
102
{ACAD_REACTORS
330
81F
102
}
330
81F
100
AcDbXrecord
280
     1
270
     1
271
     1
  0
XRECORD
  5
822
102
{ACAD_REACTORS
330
81F
102
}
330
81F
100
AcDbXrecord
280
     1
270
     1
271
     1
  0
CELLSTYLEMAP
  5
8F2
102
{ACAD_REACTORS
330
887
102
}
330
887
100
AcDbCellStyleMap
 90
        3
300
CELLSTYLE
  1
TABLEFORMAT_BEGIN
 90
        5
170
     1
 91
        0
 92
    32768
 62
   257
 93
        1
300
CONTENTFORMAT
  1
CONTENTFORMAT_BEGIN
 90
        0
 91
        0
 92
      512
 93
        0
300

 40
0.0
140
1.0
 94
        5
 62
     0
340
74
144
0.25
309
CONTENTFORMAT_END
171
     1
301
MARGIN
  1
CELLMARGIN_BEGIN
 40
0.06
 40
0.06
 40
0.06
 40
0.06
 40
0.18
 40
0.18
309
CELLMARGIN_END
 94
        6
 95
        1
302
GRIDFORMAT
  1
GRIDFORMAT_BEGIN
 90
        0
 91
        1
 62
     0
 92
       -2
340
0
 93
        0
 40
0.045
309
GRIDFORMAT_END
 95
        2
302
GRIDFORMAT
  1
GRIDFORMAT_BEGIN
 90
        0
 91
        1
 62
     0
 92
       -2
340
0
 93
        0
 40
0.045
309
GRIDFORMAT_END
 95
        4
302
GRIDFORMAT
  1
GRIDFORMAT_BEGIN
 90
        0
 91
        1
 62
     0
 92
       -2
340
0
 93
        0
 40
0.045
309
GRIDFORMAT_END
 95
        8
302
GRIDFORMAT
  1
GRIDFORMAT_BEGIN
 90
        0
 91
        1
 62
     0
 92
       -2
340
0
 93
        0
 40
0.045
309
GRIDFORMAT_END
 95
       16
302
GRIDFORMAT
  1
GRIDFORMAT_BEGIN
 90
        0
 91
        1
 62
     0
 92
       -2
340
0
 93
        0
 40
0.045
309
GRIDFORMAT_END
 95
       32
302
GRIDFORMAT
  1
GRIDFORMAT_BEGIN
 90
        0
 91
        1
 62
     0
 92
       -2
340
0
 93
        0
 40
0.045
309
GRIDFORMAT_END
309
TABLEFORMAT_END
  1
CELLSTYLE_BEGIN
 90
        1
 91
        1
300
_TITLE
309
CELLSTYLE_END
300
CELLSTYLE
  1
TABLEFORMAT_BEGIN
 90
        5
170
     1
 91
        0
 92
        0
 62
   257
 93
        1
300
CONTENTFORMAT
  1
CONTENTFORMAT_BEGIN
 90
        0
 91
        0
 92
      512
 93
        0
300

 40
0.0
140
1.0
 94
        5
 62
     0
340
74
144
0.18
309
CONTENTFORMAT_END
171
     1
301
MARGIN
  1
CELLMARGIN_BEGIN
 40
0.06
 40
0.06
 40
0.06
 40
0.06
 40
0.18
 40
0.18
309
CELLMARGIN_END
 94
        6
 95
        1
302
GRIDFORMAT
  1
GRIDFORMAT_BEGIN
 90
        0
 91
        1
 62
     0
 92
       -2
340
0
 93
        0
 40
0.045
309
GRIDFORMAT_END
 95
        2
302
GRIDFORMAT
  1
GRIDFORMAT_BEGIN
 90
        0
 91
        1
 62
     0
 92
       -2
340
0
 93
        0
 40
0.045
309
GRIDFORMAT_END
 95
        4
302
GRIDFORMAT
  1
GRIDFORMAT_BEGIN
 90
        0
 91
        1
 62
     0
 92
       -2
340
0
 93
        0
 40
0.045
309
GRIDFORMAT_END
 95
        8
302
GRIDFORMAT
  1
GRIDFORMAT_BEGIN
 90
        0
 91
        1
 62
     0
 92
       -2
340
0
 93
        0
 40
0.045
309
GRIDFORMAT_END
 95
       16
302
GRIDFORMAT
  1
GRIDFORMAT_BEGIN
 90
        0
 91
        1
 62
     0
 92
       -2
340
0
 93
        0
 40
0.045
309
GRIDFORMAT_END
 95
       32
302
GRIDFORMAT
  1
GRIDFORMAT_BEGIN
 90
        0
 91
        1
 62
     0
 92
       -2
340
0
 93
        0
 40
0.045
309
GRIDFORMAT_END
309
TABLEFORMAT_END
  1
CELLSTYLE_BEGIN
 90
        2
 91
        1
300
_HEADER
309
CELLSTYLE_END
300
CELLSTYLE
  1
TABLEFORMAT_BEGIN
 90
        5
170
     1
 91
        0
 92
        0
 62
   257
 93
        1
300
CONTENTFORMAT
  1
CONTENTFORMAT_BEGIN
 90
        0
 91
        0
 92
      512
 93
        0
300

 40
0.0
140
1.0
 94
        2
 62
     0
340
74
144
0.18
309
CONTENTFORMAT_END
171
     1
301
MARGIN
  1
CELLMARGIN_BEGIN
 40
0.06
 40
0.06
 40
0.06
 40
0.06
 40
0.18
 40
0.18
309
CELLMARGIN_END
 94
        6
 95
        1
302
GRIDFORMAT
  1
GRIDFORMAT_BEGIN
 90
        0
 91
        1
 62
     0
 92
       -2
340
0
 93
        0
 40
0.045
309
GRIDFORMAT_END
 95
        2
302
GRIDFORMAT
  1
GRIDFORMAT_BEGIN
 90
        0
 91
        1
 62
     0
 92
       -2
340
0
 93
        0
 40
0.045
309
GRIDFORMAT_END
 95
        4
302
GRIDFORMAT
  1
GRIDFORMAT_BEGIN
 90
        0
 91
        1
 62
     0
 92
       -2
340
0
 93
        0
 40
0.045
309
GRIDFORMAT_END
 95
        8
302
GRIDFORMAT
  1
GRIDFORMAT_BEGIN
 90
        0
 91
        1
 62
     0
 92
       -2
340
0
 93
        0
 40
0.045
309
GRIDFORMAT_END
 95
       16
302
GRIDFORMAT
  1
GRIDFORMAT_BEGIN
 90
        0
 91
        1
 62
     0
 92
       -2
340
0
 93
        0
 40
0.045
309
GRIDFORMAT_END
 95
       32
302
GRIDFORMAT
  1
GRIDFORMAT_BEGIN
 90
        0
 91
        1
 62
     0
 92
       -2
340
0
 93
        0
 40
0.045
309
GRIDFORMAT_END
309
TABLEFORMAT_END
  1
CELLSTYLE_BEGIN
 90
        3
 91
        2
300
_DATA
309
CELLSTYLE_END
  0
XRECORD
  5
91F
102
{ACAD_REACTORS
330
887
102
}
330
887
100
AcDbXrecord
280
     1
102
ACAD_ROUNDTRIP_PRE2007_TABLESTYLE
 90
      512
 91
        0
  1

 92
      512
 93
        0
  2

 94
      512
 95
        0
  3

  0
XRECORD
  5
904
102
{ACAD_REACTORS
330
903
102
}
330
903
100
AcDbXrecord
280
     1
102
RTVSPropertyOp0
 70
     1
102
RTVSPropertyOp1
 70
     1
102
RTVSPropertyOp2
 70
     1
102
RTVSPropertyOp3
 70
     1
102
RTVSPropertyOp4
 70
     1
102
RTVSPropertyOp5
 70
     1
102
RTVSPropertyOp6
 70
     1
102
RTVSPropertyOp7
 70
     1
102
RTVSPropertyOp8
 70
     1
102
RTVSPropertyOp9
 70
     1
102
RTVSPropertyOp10
 70
     1
102
RTVSPropertyOp11
 70
     1
102
RTVSPropertyOp12
 70
     1
102
RTVSPropertyOp13
 70
     1
102
RTVSPropertyOp14
 70
     1
102
RTVSPropertyOp15
 70
     1
102
RTVSPropertyOp16
 70
     1
102
RTVSPropertyOp17
 70
     1
102
RTVSPropertyOp18
 70
     1
102
RTVSPropertyOp19
 70
     1
102
RTVSPropertyOp20
 70
     1
102
RTVSPropertyOp21
 70
     1
102
RTVSPropertyOp22
 70
     1
102
RTVSPropertyOp23
 70
     1
102
RTVSPropertyOp24
 70
     1
102
RTVSPropertyOp25
 70
     1
102
RTVSPropertyOp26
 70
     1
102
RTVSPropertyOp27
 70
     1
  0
XRECORD
  5
908
102
{ACAD_REACTORS
330
907
102
}
330
907
100
AcDbXrecord
280
     1
102
RTVSPropertyOp0
 70
     1
102
RTVSPropertyOp1
 70
     1
102
RTVSPropertyOp2
 70
     1
102
RTVSPropertyOp3
 70
     1
102
RTVSPropertyOp4
 70
     1
102
RTVSPropertyOp5
 70
     1
102
RTVSPropertyOp6
 70
     1
102
RTVSPropertyOp7
 70
     1
102
RTVSPropertyOp8
 70
     1
102
RTVSPropertyOp9
 70
     1
102
RTVSPropertyOp10
 70
     1
102
RTVSPropertyOp11
 70
     1
102
RTVSPropertyOp12
 70
     1
102
RTVSPropertyOp13
 70
     1
102
RTVSPropertyOp14
 70
     1
102
RTVSPropertyOp15
 70
     1
102
RTVSPropertyOp16
 70
     1
102
RTVSPropertyOp17
 70
     1
102
RTVSPropertyOp18
 70
     1
102
RTVSPropertyOp19
 70
     1
102
RTVSPropertyOp20
 70
     1
102
RTVSPropertyOp21
 70
     1
102
RTVSPropertyOp22
 70
     1
102
RTVSPropertyOp23
 70
     1
102
RTVSPropertyOp24
 70
     1
102
RTVSPropertyOp25
 70
     1
102
RTVSPropertyOp26
 70
     1
102
RTVSPropertyOp27
 70
     1
  0
XRECORD
  5
906
102
{ACAD_REACTORS
330
905
102
}
330
905
100
AcDbXrecord
280
     1
102
RTVSPropertyOp0
 70
     1
102
RTVSPropertyOp1
 70
     1
102
RTVSPropertyOp2
 70
     1
102
RTVSPropertyOp3
 70
     1
102
RTVSPropertyOp4
 70
     1
102
RTVSPropertyOp5
 70
     1
102
RTVSPropertyOp6
 70
     1
102
RTVSPropertyOp7
 70
     1
102
RTVSPropertyOp8
 70
     1
102
RTVSPropertyOp9
 70
     1
102
RTVSPropertyOp10
 70
     1
102
RTVSPropertyOp11
 70
     1
102
RTVSPropertyOp12
 70
     1
102
RTVSPropertyOp13
 70
     1
102
RTVSPropertyOp14
 70
     1
102
RTVSPropertyOp15
 70
     1
102
RTVSPropertyOp16
 70
     1
102
RTVSPropertyOp17
 70
     1
102
RTVSPropertyOp18
 70
     1
102
RTVSPropertyOp19
 70
     1
102
RTVSPropertyOp20
 70
     1
102
RTVSPropertyOp21
 70
     1
102
RTVSPropertyOp22
 70
     1
102
RTVSPropertyOp23
 70
     1
102
RTVSPropertyOp24
 70
     1
102
RTVSPropertyOp25
 70
     1
102
RTVSPropertyOp26
 70
     1
102
RTVSPropertyOp27
 70
     1
  0
XRECORD
  5
902
102
{ACAD_REACTORS
330
901
102
}
330
901
100
AcDbXrecord
280
     1
102
RTVSPropertyOp0
 70
     1
102
RTVSPropertyOp1
 70
     1
102
RTVSPropertyOp2
 70
     1
102
RTVSPropertyOp3
 70
     1
102
RTVSPropertyOp4
 70
     1
102
RTVSPropertyOp5
 70
     1
102
RTVSPropertyOp6
 70
     1
102
RTVSPropertyOp7
 70
     1
102
RTVSPropertyOp8
 70
     1
102
RTVSPropertyOp9
 70
     1
102
RTVSPropertyOp10
 70
     1
102
RTVSPropertyOp11
 70
     1
102
RTVSPropertyOp12
 70
     1
102
RTVSPropertyOp13
 70
     1
102
RTVSPropertyOp14
 70
     1
102
RTVSPropertyOp15
 70
     1
102
RTVSPropertyOp16
 70
     1
102
RTVSPropertyOp17
 70
     1
102
RTVSPropertyOp18
 70
     1
102
RTVSPropertyOp19
 70
     1
102
RTVSPropertyOp20
 70
     1
102
RTVSPropertyOp21
 70
     1
102
RTVSPropertyOp22
 70
     1
102
RTVSPropertyOp23
 70
     1
102
RTVSPropertyOp24
 70
     1
102
RTVSPropertyOp25
 70
     1
102
RTVSPropertyOp26
 70
     1
102
RTVSPropertyOp27
 70
     1
  0
XRECORD
  5
910
102
{ACAD_REACTORS
330
90F
102
}
330
90F
100
AcDbXrecord
280
     1
102
RTVSPropertyOp0
 70
     1
102
RTVSPropertyOp1
 70
     1
102
RTVSPropertyOp2
 70
     1
102
RTVSPropertyOp3
 70
     1
102
RTVSPropertyOp4
 70
     1
102
RTVSPropertyOp5
 70
     1
102
RTVSPropertyOp6
 70
     1
102
RTVSPropertyOp7
 70
     1
102
RTVSPropertyOp8
 70
     1
102
RTVSPropertyOp9
 70
     1
102
RTVSPropertyOp10
 70
     1
102
RTVSPropertyOp11
 70
     1
102
RTVSPropertyOp12
 70
     1
102
RTVSPropertyOp13
 70
     1
102
RTVSPropertyOp14
 70
     1
102
RTVSPropertyOp15
 70
     1
102
RTVSPropertyOp16
 70
     1
102
RTVSPropertyOp17
 70
     1
102
RTVSPropertyOp18
 70
     1
102
RTVSPropertyOp19
 70
     1
102
RTVSPropertyOp20
 70
     1
102
RTVSPropertyOp21
 70
     1
102
RTVSPropertyOp22
 70
     1
102
RTVSPropertyOp23
 70
     1
102
RTVSPropertyOp24
 70
     1
102
RTVSPropertyOp25
 70
     1
102
RTVSPropertyOp26
 70
     1
102
RTVSPropertyOp27
 70
     1
  0
XRECORD
  5
918
102
{ACAD_REACTORS
330
917
102
}
330
917
100
AcDbXrecord
280
     1
102
RTVSPropertyOp0
 70
     1
102
RTVSPropertyOp1
 70
     1
102
RTVSPropertyOp2
 70
     1
102
RTVSPropertyOp3
 70
     1
102
RTVSPropertyOp4
 70
     1
102
RTVSPropertyOp5
 70
     1
102
RTVSPropertyOp6
 70
     1
102
RTVSPropertyOp7
 70
     1
102
RTVSPropertyOp8
 70
     1
102
RTVSPropertyOp9
 70
     1
102
RTVSPropertyOp10
 70
     1
102
RTVSPropertyOp11
 70
     1
102
RTVSPropertyOp12
 70
     1
102
RTVSPropertyOp13
 70
     1
102
RTVSPropertyOp14
 70
     1
102
RTVSPropertyOp15
 70
     1
102
RTVSPropertyOp16
 70
     1
102
RTVSPropertyOp17
 70
     1
102
RTVSPropertyOp18
 70
     1
102
RTVSPropertyOp19
 70
     1
102
RTVSPropertyOp20
 70
     1
102
RTVSPropertyOp21
 70
     1
102
RTVSPropertyOp22
 70
     1
102
RTVSPropertyOp23
 70
     1
102
RTVSPropertyOp24
 70
     1
102
RTVSPropertyOp25
 70
     1
102
RTVSPropertyOp26
 70
     1
102
RTVSPropertyOp27
 70
     1
  0
XRECORD
  5
90A
102
{ACAD_REACTORS
330
909
102
}
330
909
100
AcDbXrecord
280
     1
102
RTVSPropertyOp0
 70
     1
102
RTVSPropertyOp1
 70
     1
102
RTVSPropertyOp2
 70
     1
102
RTVSPropertyOp3
 70
     1
102
RTVSPropertyOp4
 70
     1
102
RTVSPropertyOp5
 70
     1
102
RTVSPropertyOp6
 70
     1
102
RTVSPropertyOp7
 70
     1
102
RTVSPropertyOp8
 70
     1
102
RTVSPropertyOp9
 70
     1
102
RTVSPropertyOp10
 70
     1
102
RTVSPropertyOp11
 70
     1
102
RTVSPropertyOp12
 70
     1
102
RTVSPropertyOp13
 70
     1
102
RTVSPropertyOp14
 70
     1
102
RTVSPropertyOp15
 70
     1
102
RTVSPropertyOp16
 70
     1
102
RTVSPropertyOp17
 70
     1
102
RTVSPropertyOp18
 70
     1
102
RTVSPropertyOp19
 70
     1
102
RTVSPropertyOp20
 70
     1
102
RTVSPropertyOp21
 70
     1
102
RTVSPropertyOp22
 70
     1
102
RTVSPropertyOp23
 70
     1
102
RTVSPropertyOp24
 70
     1
102
RTVSPropertyOp25
 70
     1
102
RTVSPropertyOp26
 70
     1
102
RTVSPropertyOp27
 70
     1
  0
XRECORD
  5
90E
102
{ACAD_REACTORS
330
90D
102
}
330
90D
100
AcDbXrecord
280
     1
102
RTVSPropertyOp0
 70
     1
102
RTVSPropertyOp1
 70
     1
102
RTVSPropertyOp2
 70
     1
102
RTVSPropertyOp3
 70
     1
102
RTVSPropertyOp4
 70
     1
102
RTVSPropertyOp5
 70
     1
102
RTVSPropertyOp6
 70
     1
102
RTVSPropertyOp7
 70
     1
102
RTVSPropertyOp8
 70
     1
102
RTVSPropertyOp9
 70
     1
102
RTVSPropertyOp10
 70
     1
102
RTVSPropertyOp11
 70
     1
102
RTVSPropertyOp12
 70
     1
102
RTVSPropertyOp13
 70
     1
102
RTVSPropertyOp14
 70
     1
102
RTVSPropertyOp15
 70
     1
102
RTVSPropertyOp16
 70
     1
102
RTVSPropertyOp17
 70
     1
102
RTVSPropertyOp18
 70
     1
102
RTVSPropertyOp19
 70
     1
102
RTVSPropertyOp20
 70
     1
102
RTVSPropertyOp21
 70
     1
102
RTVSPropertyOp22
 70
     1
102
RTVSPropertyOp23
 70
     1
102
RTVSPropertyOp24
 70
     1
102
RTVSPropertyOp25
 70
     1
102
RTVSPropertyOp26
 70
     1
102
RTVSPropertyOp27
 70
     1
  0
XRECORD
  5
91E
102
{ACAD_REACTORS
330
91D
102
}
330
91D
100
AcDbXrecord
280
     1
102
RTVSPropertyOp0
 70
     0
102
RTVSPropertyOp1
 70
     0
102
RTVSPropertyOp2
 70
     0
102
RTVSPropertyOp3
 70
     0
102
RTVSPropertyOp4
 70
     0
102
RTVSPropertyOp5
 70
     0
102
RTVSPropertyOp6
 70
     0
102
RTVSPropertyOp7
 70
     0
102
RTVSPropertyOp8
 70
     0
102
RTVSPropertyOp9
 70
     0
102
RTVSPropertyOp10
 70
     0
102
RTVSPropertyOp11
 70
     0
102
RTVSPropertyOp12
 70
     0
102
RTVSPropertyOp13
 70
     0
102
RTVSPropertyOp14
 70
     2
102
RTVSPropertyOp15
 70
     0
102
RTVSPropertyOp16
 70
     0
102
RTVSPropertyOp17
 70
     0
102
RTVSPropertyOp18
 70
     0
102
RTVSPropertyOp19
 70
     0
102
RTVSPropertyOp20
 70
     0
102
RTVSPropertyOp21
 70
     0
102
RTVSPropertyOp22
 70
     0
102
RTVSPropertyOp23
 70
     0
102
RTVSPropertyOp24
 70
     0
102
RTVSPropertyOp25
 70
     0
102
RTVSPropertyOp26
 70
     0
102
RTVSPropertyOp27
 70
     0
  0
XRECORD
  5
916
102
{ACAD_REACTORS
330
915
102
}
330
915
100
AcDbXrecord
280
     1
102
RTVSPropertyOp0
 70
     1
102
RTVSPropertyOp1
 70
     1
102
RTVSPropertyOp2
 70
     1
102
RTVSPropertyOp3
 70
     1
102
RTVSPropertyOp4
 70
     1
102
RTVSPropertyOp5
 70
     1
102
RTVSPropertyOp6
 70
     1
102
RTVSPropertyOp7
 70
     1
102
RTVSPropertyOp8
 70
     1
102
RTVSPropertyOp9
 70
     1
102
RTVSPropertyOp10
 70
     1
102
RTVSPropertyOp11
 70
     1
102
RTVSPropertyOp12
 70
     1
102
RTVSPropertyOp13
 70
     1
102
RTVSPropertyOp14
 70
     1
102
RTVSPropertyOp15
 70
     1
102
RTVSPropertyOp16
 70
     1
102
RTVSPropertyOp17
 70
     1
102
RTVSPropertyOp18
 70
     1
102
RTVSPropertyOp19
 70
     1
102
RTVSPropertyOp20
 70
     1
102
RTVSPropertyOp21
 70
     1
102
RTVSPropertyOp22
 70
     1
102
RTVSPropertyOp23
 70
     1
102
RTVSPropertyOp24
 70
     1
102
RTVSPropertyOp25
 70
     1
102
RTVSPropertyOp26
 70
     1
102
RTVSPropertyOp27
 70
     1
  0
XRECORD
  5
8FA
102
{ACAD_REACTORS
330
8F9
102
}
330
8F9
100
AcDbXrecord
280
     1
102
RTVSPropertyOp0
 70
     1
102
RTVSPropertyOp1
 70
     1
102
RTVSPropertyOp2
 70
     1
102
RTVSPropertyOp3
 70
     1
102
RTVSPropertyOp4
 70
     1
102
RTVSPropertyOp5
 70
     1
102
RTVSPropertyOp6
 70
     1
102
RTVSPropertyOp7
 70
     1
102
RTVSPropertyOp8
 70
     1
102
RTVSPropertyOp9
 70
     1
102
RTVSPropertyOp10
 70
     1
102
RTVSPropertyOp11
 70
     1
102
RTVSPropertyOp12
 70
     1
102
RTVSPropertyOp13
 70
     1
102
RTVSPropertyOp14
 70
     1
102
RTVSPropertyOp15
 70
     1
102
RTVSPropertyOp16
 70
     1
102
RTVSPropertyOp17
 70
     1
102
RTVSPropertyOp18
 70
     1
102
RTVSPropertyOp19
 70
     1
102
RTVSPropertyOp20
 70
     1
102
RTVSPropertyOp21
 70
     1
102
RTVSPropertyOp22
 70
     1
102
RTVSPropertyOp23
 70
     1
102
RTVSPropertyOp24
 70
     1
102
RTVSPropertyOp25
 70
     1
102
RTVSPropertyOp26
 70
     1
102
RTVSPropertyOp27
 70
     1
  0
XRECORD
  5
8FC
102
{ACAD_REACTORS
330
8FB
102
}
330
8FB
100
AcDbXrecord
280
     1
102
RTVSPropertyOp0
 70
     1
102
RTVSPropertyOp1
 70
     1
102
RTVSPropertyOp2
 70
     1
102
RTVSPropertyOp3
 70
     1
102
RTVSPropertyOp4
 70
     1
102
RTVSPropertyOp5
 70
     1
102
RTVSPropertyOp6
 70
     1
102
RTVSPropertyOp7
 70
     1
102
RTVSPropertyOp8
 70
     1
102
RTVSPropertyOp9
 70
     1
102
RTVSPropertyOp10
 70
     1
102
RTVSPropertyOp11
 70
     1
102
RTVSPropertyOp12
 70
     1
102
RTVSPropertyOp13
 70
     1
102
RTVSPropertyOp14
 70
     1
102
RTVSPropertyOp15
 70
     1
102
RTVSPropertyOp16
 70
     1
102
RTVSPropertyOp17
 70
     1
102
RTVSPropertyOp18
 70
     1
102
RTVSPropertyOp19
 70
     1
102
RTVSPropertyOp20
 70
     1
102
RTVSPropertyOp21
 70
     1
102
RTVSPropertyOp22
 70
     1
102
RTVSPropertyOp23
 70
     1
102
RTVSPropertyOp24
 70
     1
102
RTVSPropertyOp25
 70
     1
102
RTVSPropertyOp26
 70
     1
102
RTVSPropertyOp27
 70
     1
  0
XRECORD
  5
8FE
102
{ACAD_REACTORS
330
8FD
102
}
330
8FD
100
AcDbXrecord
280
     1
102
RTVSPropertyOp0
 70
     1
102
RTVSPropertyOp1
 70
     1
102
RTVSPropertyOp2
 70
     1
102
RTVSPropertyOp3
 70
     1
102
RTVSPropertyOp4
 70
     1
102
RTVSPropertyOp5
 70
     1
102
RTVSPropertyOp6
 70
     1
102
RTVSPropertyOp7
 70
     1
102
RTVSPropertyOp8
 70
     1
102
RTVSPropertyOp9
 70
     1
102
RTVSPropertyOp10
 70
     1
102
RTVSPropertyOp11
 70
     1
102
RTVSPropertyOp12
 70
     1
102
RTVSPropertyOp13
 70
     1
102
RTVSPropertyOp14
 70
     1
102
RTVSPropertyOp15
 70
     1
102
RTVSPropertyOp16
 70
     1
102
RTVSPropertyOp17
 70
     1
102
RTVSPropertyOp18
 70
     1
102
RTVSPropertyOp19
 70
     1
102
RTVSPropertyOp20
 70
     1
102
RTVSPropertyOp21
 70
     1
102
RTVSPropertyOp22
 70
     1
102
RTVSPropertyOp23
 70
     1
102
RTVSPropertyOp24
 70
     1
102
RTVSPropertyOp25
 70
     1
102
RTVSPropertyOp26
 70
     1
102
RTVSPropertyOp27
 70
     1
  0
XRECORD
  5
900
102
{ACAD_REACTORS
330
8FF
102
}
330
8FF
100
AcDbXrecord
280
     1
102
RTVSPropertyOp0
 70
     1
102
RTVSPropertyOp1
 70
     1
102
RTVSPropertyOp2
 70
     1
102
RTVSPropertyOp3
 70
     1
102
RTVSPropertyOp4
 70
     1
102
RTVSPropertyOp5
 70
     1
102
RTVSPropertyOp6
 70
     1
102
RTVSPropertyOp7
 70
     1
102
RTVSPropertyOp8
 70
     1
102
RTVSPropertyOp9
 70
     1
102
RTVSPropertyOp10
 70
     1
102
RTVSPropertyOp11
 70
     1
102
RTVSPropertyOp12
 70
     1
102
RTVSPropertyOp13
 70
     1
102
RTVSPropertyOp14
 70
     1
102
RTVSPropertyOp15
 70
     1
102
RTVSPropertyOp16
 70
     1
102
RTVSPropertyOp17
 70
     1
102
RTVSPropertyOp18
 70
     1
102
RTVSPropertyOp19
 70
     1
102
RTVSPropertyOp20
 70
     1
102
RTVSPropertyOp21
 70
     1
102
RTVSPropertyOp22
 70
     1
102
RTVSPropertyOp23
 70
     1
102
RTVSPropertyOp24
 70
     1
102
RTVSPropertyOp25
 70
     1
102
RTVSPropertyOp26
 70
     1
102
RTVSPropertyOp27
 70
     1
  0
XRECORD
  5
91A
102
{ACAD_REACTORS
330
919
102
}
330
919
100
AcDbXrecord
280
     1
102
RTVSPropertyOp0
 70
     0
102
RTVSPropertyOp1
 70
     0
102
RTVSPropertyOp2
 70
     0
102
RTVSPropertyOp3
 70
     0
102
RTVSPropertyOp4
 70
     0
102
RTVSPropertyOp5
 70
     0
102
RTVSPropertyOp6
 70
     0
102
RTVSPropertyOp7
 70
     0
102
RTVSPropertyOp8
 70
     0
102
RTVSPropertyOp9
 70
     0
102
RTVSPropertyOp10
 70
     0
102
RTVSPropertyOp11
 70
     0
102
RTVSPropertyOp12
 70
     0
102
RTVSPropertyOp13
 70
     0
102
RTVSPropertyOp14
 70
     2
102
RTVSPropertyOp15
 70
     0
102
RTVSPropertyOp16
 70
     0
102
RTVSPropertyOp17
 70
     0
102
RTVSPropertyOp18
 70
     0
102
RTVSPropertyOp19
 70
     0
102
RTVSPropertyOp20
 70
     0
102
RTVSPropertyOp21
 70
     0
102
RTVSPropertyOp22
 70
     0
102
RTVSPropertyOp23
 70
     0
102
RTVSPropertyOp24
 70
     0
102
RTVSPropertyOp25
 70
     0
102
RTVSPropertyOp26
 70
     0
102
RTVSPropertyOp27
 70
     0
  0
XRECORD
  5
914
102
{ACAD_REACTORS
330
913
102
}
330
913
100
AcDbXrecord
280
     1
102
RTVSPropertyOp0
 70
     1
102
RTVSPropertyOp1
 70
     1
102
RTVSPropertyOp2
 70
     1
102
RTVSPropertyOp3
 70
     1
102
RTVSPropertyOp4
 70
     1
102
RTVSPropertyOp5
 70
     1
102
RTVSPropertyOp6
 70
     1
102
RTVSPropertyOp7
 70
     1
102
RTVSPropertyOp8
 70
     1
102
RTVSPropertyOp9
 70
     1
102
RTVSPropertyOp10
 70
     1
102
RTVSPropertyOp11
 70
     1
102
RTVSPropertyOp12
 70
     1
102
RTVSPropertyOp13
 70
     1
102
RTVSPropertyOp14
 70
     1
102
RTVSPropertyOp15
 70
     1
102
RTVSPropertyOp16
 70
     1
102
RTVSPropertyOp17
 70
     1
102
RTVSPropertyOp18
 70
     1
102
RTVSPropertyOp19
 70
     1
102
RTVSPropertyOp20
 70
     1
102
RTVSPropertyOp21
 70
     1
102
RTVSPropertyOp22
 70
     1
102
RTVSPropertyOp23
 70
     1
102
RTVSPropertyOp24
 70
     1
102
RTVSPropertyOp25
 70
     1
102
RTVSPropertyOp26
 70
     1
102
RTVSPropertyOp27
 70
     1
  0
XRECORD
  5
91C
102
{ACAD_REACTORS
330
91B
102
}
330
91B
100
AcDbXrecord
280
     1
102
RTVSPropertyOp0
 70
     0
102
RTVSPropertyOp1
 70
     0
102
RTVSPropertyOp2
 70
     0
102
RTVSPropertyOp3
 70
     0
102
RTVSPropertyOp4
 70
     0
102
RTVSPropertyOp5
 70
     0
102
RTVSPropertyOp6
 70
     0
102
RTVSPropertyOp7
 70
     0
102
RTVSPropertyOp8
 70
     0
102
RTVSPropertyOp9
 70
     0
102
RTVSPropertyOp10
 70
     0
102
RTVSPropertyOp11
 70
     0
102
RTVSPropertyOp12
 70
     0
102
RTVSPropertyOp13
 70
     0
102
RTVSPropertyOp14
 70
     2
102
RTVSPropertyOp15
 70
     0
102
RTVSPropertyOp16
 70
     0
102
RTVSPropertyOp17
 70
     0
102
RTVSPropertyOp18
 70
     0
102
RTVSPropertyOp19
 70
     0
102
RTVSPropertyOp20
 70
     0
102
RTVSPropertyOp21
 70
     0
102
RTVSPropertyOp22
 70
     0
102
RTVSPropertyOp23
 70
     0
102
RTVSPropertyOp24
 70
     0
102
RTVSPropertyOp25
 70
     0
102
RTVSPropertyOp26
 70
     0
102
RTVSPropertyOp27
 70
     0
  0
XRECORD
  5
90C
102
{ACAD_REACTORS
330
90B
102
}
330
90B
100
AcDbXrecord
280
     1
102
RTVSPropertyOp0
 70
     1
102
RTVSPropertyOp1
 70
     1
102
RTVSPropertyOp2
 70
     1
102
RTVSPropertyOp3
 70
     1
102
RTVSPropertyOp4
 70
     1
102
RTVSPropertyOp5
 70
     1
102
RTVSPropertyOp6
 70
     1
102
RTVSPropertyOp7
 70
     1
102
RTVSPropertyOp8
 70
     1
102
RTVSPropertyOp9
 70
     1
102
RTVSPropertyOp10
 70
     1
102
RTVSPropertyOp11
 70
     1
102
RTVSPropertyOp12
 70
     1
102
RTVSPropertyOp13
 70
     1
102
RTVSPropertyOp14
 70
     1
102
RTVSPropertyOp15
 70
     1
102
RTVSPropertyOp16
 70
     1
102
RTVSPropertyOp17
 70
     1
102
RTVSPropertyOp18
 70
     1
102
RTVSPropertyOp19
 70
     1
102
RTVSPropertyOp20
 70
     1
102
RTVSPropertyOp21
 70
     1
102
RTVSPropertyOp22
 70
     1
102
RTVSPropertyOp23
 70
     1
102
RTVSPropertyOp24
 70
     1
102
RTVSPropertyOp25
 70
     1
102
RTVSPropertyOp26
 70
     1
102
RTVSPropertyOp27
 70
     1
  0
XRECORD
  5
912
102
{ACAD_REACTORS
330
911
102
}
330
911
100
AcDbXrecord
280
     1
102
RTVSPropertyOp0
 70
     1
102
RTVSPropertyOp1
 70
     1
102
RTVSPropertyOp2
 70
     1
102
RTVSPropertyOp3
 70
     1
102
RTVSPropertyOp4
 70
     1
102
RTVSPropertyOp5
 70
     1
102
RTVSPropertyOp6
 70
     1
102
RTVSPropertyOp7
 70
     1
102
RTVSPropertyOp8
 70
     1
102
RTVSPropertyOp9
 70
     1
102
RTVSPropertyOp10
 70
     1
102
RTVSPropertyOp11
 70
     1
102
RTVSPropertyOp12
 70
     1
102
RTVSPropertyOp13
 70
     1
102
RTVSPropertyOp14
 70
     1
102
RTVSPropertyOp15
 70
     1
102
RTVSPropertyOp16
 70
     1
102
RTVSPropertyOp17
 70
     1
102
RTVSPropertyOp18
 70
     1
102
RTVSPropertyOp19
 70
     1
102
RTVSPropertyOp20
 70
     1
102
RTVSPropertyOp21
 70
     1
102
RTVSPropertyOp22
 70
     1
102
RTVSPropertyOp23
 70
     1
102
RTVSPropertyOp24
 70
     1
102
RTVSPropertyOp25
 70
     1
102
RTVSPropertyOp26
 70
     1
102
RTVSPropertyOp27
 70
     1
  0
ENDSEC
  0
EOF
