  0
SECTION
  2
HEADER
  9
$ACADVER
  1
AC1015
  9
$ACADMAINTVER
 70
     6
  9
$DWGCODEPAGE
  3
ANSI_1252
  9
$INSBASE
 10
0.0
 20
0.0
 30
0.0
  9
$EXTMIN
 10
525.9999999999998
 20
229.0
 30
0.0
  9
$EXTMAX
 10
1202.0
 20
951.49375
 30
0.0
  9
$LIMMIN
 10
0.0
 20
0.0
  9
$LIMMAX
 10
12.0
 20
9.0
  9
$ORTHOMODE
 70
     0
  9
$REGENMODE
 70
     1
  9
$FILLMODE
 70
     1
  9
$QTEXTMODE
 70
     0
  9
$MIRRTEXT
 70
     1
  9
$LTSCALE
 40
1.0
  9
$ATTMODE
 70
     1
  9
$TEXTSIZE
 40
0.0
  9
$TRACEWID
 40
0.05
  9
$TEXTSTYLE
  7
STANDARD
  9
$CLAYER
  8
0
  9
$CELTYPE
  6
CONTINUOUS
  9
$CECOLOR
 62
   256
  9
$CELTSCALE
 40
1.0
  9
$DISPSILH
 70
     0
  9
$DIMSCALE
 40
1.0
  9
$DIMASZ
 40
0.18
  9
$DIMEXO
 40
0.0625
  9
$DIMDLI
 40
0.38
  9
$DIMRND
 40
0.0
  9
$DIMDLE
 40
0.0
  9
$DIMEXE
 40
0.18
  9
$DIMTP
 40
0.0
  9
$DIMTM
 40
0.0
  9
$DIMTXT
 40
0.18
  9
$DIMCEN
 40
0.09
  9
$DIMTSZ
 40
0.0
  9
$DIMTOL
 70
     0
  9
$DIMLIM
 70
     0
  9
$DIMTIH
 70
     1
  9
$DIMTOH
 70
     1
  9
$DIMSE1
 70
     0
  9
$DIMSE2
 70
     0
  9
$DIMTAD
 70
     0
  9
$DIMZIN
 70
     0
  9
$DIMBLK
  1

  9
$DIMASO
 70
     1
  9
$DIMSHO
 70
     1
  9
$DIMPOST
  1

  9
$DIMAPOST
  1

  9
$DIMALT
 70
     0
  9
$DIMALTD
 70
     2
  9
$DIMALTF
 40
25.4
  9
$DIMLFAC
 40
1.0
  9
$DIMTOFL
 70
     0
  9
$DIMTVP
 40
0.0
  9
$DIMTIX
 70
     0
  9
$DIMSOXD
 70
     0
  9
$DIMSAH
 70
     0
  9
$DIMBLK1
  1

  9
$DIMBLK2
  1

  9
$DIMSTYLE
  2
STANDARD
  9
$DIMCLRD
 70
     0
  9
$DIMCLRE
 70
     0
  9
$DIMCLRT
 70
     0
  9
$DIMTFAC
 40
1.0
  9
$DIMGAP
 40
0.09
  9
$DIMJUST
 70
     0
  9
$DIMSD1
 70
     0
  9
$DIMSD2
 70
     0
  9
$DIMTOLJ
 70
     1
  9
$DIMTZIN
 70
     0
  9
$DIMALTZ
 70
     0
  9
$DIMALTTZ
 70
     0
  9
$DIMUPT
 70
     0
  9
$DIMDEC
 70
     4
  9
$DIMTDEC
 70
     4
  9
$DIMALTU
 70
     2
  9
$DIMALTTD
 70
     2
  9
$DIMTXSTY
  7
STANDARD
  9
$DIMAUNIT
 70
     0
  9
$DIMADEC
 70
     0
  9
$DIMALTRND
 40
0.0
  9
$DIMAZIN
 70
     0
  9
$DIMDSEP
 70
    46
  9
$DIMATFIT
 70
     3
  9
$DIMFRAC
 70
     0
  9
$DIMLDRBLK
  1

  9
$DIMLUNIT
 70
     2
  9
$DIMLWD
 70
    -2
  9
$DIMLWE
 70
    -2
  9
$DIMTMOVE
 70
     0
  9
$LUNITS
 70
     2
  9
$LUPREC
 70
     4
  9
$SKETCHINC
 40
0.1
  9
$FILLETRAD
 40
0.0
  9
$AUNITS
 70
     0
  9
$AUPREC
 70
     0
  9
$MENU
  1
acad
  9
$ELEVATION
 40
0.0
  9
$PELEVATION
 40
0.0
  9
$THICKNESS
 40
0.0
  9
$LIMCHECK
 70
     0
  9
$CHAMFERA
 40
0.0
  9
$CHAMFERB
 40
0.0
  9
$CHAMFERC
 40
0.0
  9
$CHAMFERD
 40
0.0
  9
$SKPOLY
 70
     0
  9
$TDCREATE
 40
2453238.668333333
  9
$TDUCREATE
 40
2453238.668333333
  9
$TDUPDATE
 40
2457364.694800358
  9
$TDUUPDATE
 40
2457364.694800358
  9
$TDINDWG
 40
0.0199959838
  9
$TDUSRTIMER
 40
0.0199950926
  9
$USRTIMER
 70
     1
  9
$ANGBASE
 50
0.0
  9
$ANGDIR
 70
     0
  9
$PDMODE
 70
     0
  9
$PDSIZE
 40
0.0
  9
$PLINEWID
 40
0.0
  9
$SPLFRAME
 70
     0
  9
$SPLINETYPE
 70
     6
  9
$SPLINESEGS
 70
    10
  9
$HANDSEED
  5
385
  9
$SURFTAB1
 70
     6
  9
$SURFTAB2
 70
     6
  9
$SURFTYPE
 70
     6
  9
$SURFU
 70
     6
  9
$SURFV
 70
     6
  9
$UCSBASE
  2

  9
$UCSNAME
  2

  9
$UCSORG
 10
0.0
 20
0.0
 30
0.0
  9
$UCSXDIR
 10
1.0
 20
0.0
 30
0.0
  9
$UCSYDIR
 10
0.0
 20
1.0
 30
0.0
  9
$UCSORTHOREF
  2

  9
$UCSORTHOVIEW
 70
     0
  9
$UCSORGTOP
 10
0.0
 20
0.0
 30
0.0
  9
$UCSORGBOTTOM
 10
0.0
 20
0.0
 30
0.0
  9
$UCSORGLEFT
 10
0.0
 20
0.0
 30
0.0
  9
$UCSORGRIGHT
 10
0.0
 20
0.0
 30
0.0
  9
$UCSORGFRONT
 10
0.0
 20
0.0
 30
0.0
  9
$UCSORGBACK
 10
0.0
 20
0.0
 30
0.0
  9
$PUCSBASE
  2

  9
$PUCSNAME
  2

  9
$PUCSORG
 10
0.0
 20
0.0
 30
0.0
  9
$PUCSXDIR
 10
1.0
 20
0.0
 30
0.0
  9
$PUCSYDIR
 10
0.0
 20
1.0
 30
0.0
  9
$PUCSORTHOREF
  2

  9
$PUCSORTHOVIEW
 70
     0
  9
$PUCSORGTOP
 10
0.0
 20
0.0
 30
0.0
  9
$PUCSORGBOTTOM
 10
0.0
 20
0.0
 30
0.0
  9
$PUCSORGLEFT
 10
0.0
 20
0.0
 30
0.0
  9
$PUCSORGRIGHT
 10
0.0
 20
0.0
 30
0.0
  9
$PUCSORGFRONT
 10
0.0
 20
0.0
 30
0.0
  9
$PUCSORGBACK
 10
0.0
 20
0.0
 30
0.0
  9
$USERI1
 70
     0
  9
$USERI2
 70
     0
  9
$USERI3
 70
     0
  9
$USERI4
 70
     0
  9
$USERI5
 70
     0
  9
$USERR1
 40
0.0
  9
$USERR2
 40
0.0
  9
$USERR3
 40
0.0
  9
$USERR4
 40
0.0
  9
$USERR5
 40
0.0
  9
$WORLDVIEW
 70
     1
  9
$SHADEDGE
 70
     3
  9
$SHADEDIF
 70
    70
  9
$TILEMODE
 70
     1
  9
$MAXACTVP
 70
    16
  9
$PINSBASE
 10
0.0
 20
0.0
 30
0.0
  9
$PLIMCHECK
 70
     0
  9
$PEXTMIN
 10
-1.000000000000000E+20
 20
-1.000000000000000E+20
 30
-1.000000000000000E+20
  9
$PEXTMAX
 10
-1.000000000000000E+20
 20
-1.000000000000000E+20
 30
-1.000000000000000E+20
  9
$PLIMMIN
 10
0.0
 20
0.0
  9
$PLIMMAX
 10
12.0
 20
9.0
  9
$UNITMODE
 70
     0
  9
$VISRETAIN
 70
     0
  9
$PLINEGEN
 70
     1
  9
$PSLTSCALE
 70
     0
  9
$TREEDEPTH
 70
  3020
  9
$CMLSTYLE
  2
Standard
  9
$CMLJUST
 70
     0
  9
$CMLSCALE
 40
1.0
  9
$PROXYGRAPHICS
 70
     1
  9
$MEASUREMENT
 70
     0
  9
$CELWEIGHT
370
    -1
  9
$ENDCAPS
280
     0
  9
$JOINSTYLE
280
     0
  9
$LWDISPLAY
290
     0
  9
$INSUNITS
 70
     0
  9
$HYPERLINKBASE
  1

  9
$STYLESHEET
  1

  9
$XEDIT
290
     1
  9
$CEPSNTYPE
380
     0
  9
$PSTYLEMODE
290
     1
  9
$FINGERPRINTGUID
  2
{792E1D3C-E699-426E-9555-EFC55859B929}
  9
$VERSIONGUID
  2
{E062B361-C5D7-44EC-9C1E-27F5503B2080}
  9
$EXTNAMES
290
     1
  9
$PSVPSCALE
 40
0.0
  9
$OLESTARTUP
290
     0
  0
ENDSEC
  0
SECTION
  2
CLASSES
  0
CLASS
  1
ACDBDICTIONARYWDFLT
  2
AcDbDictionaryWithDefault
  3
AutoCAD 2000
 90
        0
280
     0
281
     0
  0
CLASS
  1
ACDBPLACEHOLDER
  2
AcDbPlaceHolder
  3
AutoCAD 2000
 90
        0
280
     0
281
     0
  0
CLASS
  1
LAYOUT
  2
AcDbLayout
  3
AutoCAD 2000
 90
        0
280
     0
281
     0
  0
CLASS
  1
MATERIAL
  2
AcDbMaterial
  3
ObjectDBX Classes
 90
     1024
280
     0
281
     0
  0
CLASS
  1
VISUALSTYLE
  2
AcDbVisualStyle
  3
ObjectDBX Classes
 90
     4095
280
     0
281
     0
  0
CLASS
  1
TABLESTYLE
  2
AcDbTableStyle
  3
ObjectDBX Classes
 90
     4095
280
     0
281
     0
  0
CLASS
  1
SORTENTSTABLE
  2
AcDbSortentsTable
  3
AutoCAD 2000
 90
        0
280
     0
281
     0
  0
CLASS
  1
DICTIONARYVAR
  2
AcDbDictionaryVar
  3
AutoCAD 2000
 90
        0
280
     0
281
     0
  0
ENDSEC
  0
SECTION
  2
TABLES
  0
TABLE
  2
VPORT
  5
112
330
0
100
AcDbSymbolTable
 70
     4
  0
VPORT
  5
384
330
112
100
AcDbSymbolTableRecord
100
AcDbViewportTableRecord
  2
*Active
 70
     0
 10
0.0
 20
0.0
 11
1.0
 21
1.0
 12
-12.55682636478604
 22
32.93579930574287
 13
0.0
 23
0.0
 14
0.0
 24
0.0
 15
0.0
 25
0.0
 16
0.0
 26
0.0
 36
1.0
 17
891.9730649999996
 27
559.7093749999998
 37
0.0
 40
748.0487485512622
 41
2.220101781170483
 42
50.0
 43
6.3125
 44
0.0
 50
0.0
 51
0.0
 71
     0
 72
   100
 73
     1
 74
     0
 75
     0
 76
     0
 77
     0
 78
     0
281
     0
 65
     0
110
0.0
120
0.0
130
0.0
111
1.0
121
0.0
131
0.0
112
0.0
122
1.0
132
0.0
 79
     0
146
0.0
  0
ENDTAB
  0
TABLE
  2
LTYPE
  5
10F
330
0
100
AcDbSymbolTable
 70
     7
  0
LTYPE
  5
11D
330
10F
100
AcDbSymbolTableRecord
100
AcDbLinetypeTableRecord
  2
ByBlock
 70
     0
  3

 72
    65
 73
     0
 40
0.0
  0
LTYPE
  5
11E
330
10F
100
AcDbSymbolTableRecord
100
AcDbLinetypeTableRecord
  2
ByLayer
 70
     0
  3

 72
    65
 73
     0
 40
0.0
  0
LTYPE
  5
11F
330
10F
100
AcDbSymbolTableRecord
100
AcDbLinetypeTableRecord
  2
CONTINUOUS
 70
     0
  3
Solid line
 72
    65
 73
     0
 40
0.0
  0
LTYPE
  5
12D
330
10F
100
AcDbSymbolTableRecord
100
AcDbLinetypeTableRecord
  2
DOT
 70
     0
  3
. . . . . . . . . . . . . . . . . . . . . . . . . . . . . . . . .
 72
    65
 73
     2
 40
0.25
 49
0.0
 74
     0
 49
-0.25
 74
     0
  0
LTYPE
  5
12E
330
10F
100
AcDbSymbolTableRecord
100
AcDbLinetypeTableRecord
  2
HIDDEN
 70
     0
  3
__ __ __ __ __ __ __ __ __ __ __ __ __ __ __ __ __ __ __ __ __ 
 72
    65
 73
     2
 40
0.375
 49
0.25
 74
     0
 49
-0.125
 74
     0
  0
LTYPE
  5
12F
330
10F
100
AcDbSymbolTableRecord
100
AcDbLinetypeTableRecord
  2
DASHED
 70
     0
  3
__ __ __ __ __ __ __ __ __ __ __ __ __ __ __ __ __ __ __ __ __
 72
    65
 73
     2
 40
0.75
 49
0.5
 74
     0
 49
-0.25
 74
     0
  0
LTYPE
  5
130
330
10F
100
AcDbSymbolTableRecord
100
AcDbLinetypeTableRecord
  2
DASHDOT
 70
     0
  3
__ . __ . __ . __ . __ . __ . __ . __ . __ . __ . __ . __ . _
 72
    65
 73
     4
 40
1.0
 49
0.5
 74
     0
 49
-0.25
 74
     0
 49
0.0
 74
     0
 49
-0.25
 74
     0
  0
LTYPE
  5
131
330
10F
100
AcDbSymbolTableRecord
100
AcDbLinetypeTableRecord
  2
DIVIDE
 70
     0
  3
____ . . ____ . . ____ . . ____ . . ____ . . ____ . . ____ . .
 72
    65
 73
     6
 40
1.25
 49
0.5
 74
     0
 49
-0.25
 74
     0
 49
0.0
 74
     0
 49
-0.25
 74
     0
 49
0.0
 74
     0
 49
-0.25
 74
     0
  0
LTYPE
  5
132
330
10F
100
AcDbSymbolTableRecord
100
AcDbLinetypeTableRecord
  2
CENTER
 70
     0
  3
____ _ ____ _ ____ _ ____ _ ____ _ ____ _ ____ _ ____ _ ____ _
 72
    65
 73
     4
 40
2.0
 49
1.25
 74
     0
 49
-0.25
 74
     0
 49
0.25
 74
     0
 49
-0.25
 74
     0
  0
ENDTAB
  0
TABLE
  2
LAYER
  5
10C
330
0
100
AcDbSymbolTable
 70
     4
  0
LAYER
  5
11A
330
10C
100
AcDbSymbolTableRecord
100
AcDbLayerTableRecord
  2
0
 70
     0
 62
     7
  6
CONTINUOUS
370
    -3
390
119
  0
LAYER
  5
133
330
10C
100
AcDbSymbolTableRecord
100
AcDbLayerTableRecord
  2
CONSTRUCTION_CLASS
 70
     0
 62
     7
  6
CONTINUOUS
370
    -3
390
119
  0
LAYER
  5
134
330
10C
100
AcDbSymbolTableRecord
100
AcDbLayerTableRecord
  2
PATTERN_CLASS
 70
     0
 62
     7
  6
CONTINUOUS
370
    -3
390
119
  0
LAYER
  5
135
330
10C
100
AcDbSymbolTableRecord
100
AcDbLayerTableRecord
  2
1
 70
     0
 62
     7
  6
CONTINUOUS
370
    -3
390
119
  0
ENDTAB
  0
TABLE
  2
STYLE
  5
10D
330
0
100
AcDbSymbolTable
 70
     1
  0
STYLE
  5
11B
330
10D
100
AcDbSymbolTableRecord
100
AcDbTextStyleTableRecord
  2
STANDARD
 70
     0
 40
0.0
 41
1.0
 50
0.0
 71
     0
 42
0.0
  3
txt
  4

  0
ENDTAB
  0
TABLE
  2
VIEW
  5
110
330
0
100
AcDbSymbolTable
 70
     0
  0
ENDTAB
  0
TABLE
  2
UCS
  5
111
330
0
100
AcDbSymbolTable
 70
     0
  0
ENDTAB
  0
TABLE
  2
APPID
  5
113
330
0
100
AcDbSymbolTable
 70
     2
  0
APPID
  5
11C
330
113
100
AcDbSymbolTableRecord
100
AcDbRegAppTableRecord
  2
ACAD
 70
     0
  0
APPID
  5
25D
330
113
100
AcDbSymbolTableRecord
100
AcDbRegAppTableRecord
  2
ACAD_EXEMPT_FROM_CAD_STANDARDS
 70
     0
  0
ENDTAB
  0
TABLE
  2
DIMSTYLE
  5
114
330
0
100
AcDbSymbolTable
 70
     1
100
AcDbDimStyleTable
 71
     1
340
136
  0
DIMSTYLE
105
136
330
114
100
AcDbSymbolTableRecord
100
AcDbDimStyleTableRecord
  2
STANDARD
 70
     0
279
     2
340
11B
  0
ENDTAB
  0
TABLE
  2
BLOCK_RECORD
  5
10B
330
0
100
AcDbSymbolTable
 70
     0
  0
BLOCK_RECORD
  5
128
102
{ACAD_XDICTIONARY
360
264
102
}
330
10B
100
AcDbSymbolTableRecord
100
AcDbBlockTableRecord
  2
*Model_Space
340
12B
  0
BLOCK_RECORD
  5
124
330
10B
100
AcDbSymbolTableRecord
100
AcDbBlockTableRecord
  2
*Paper_Space
340
127
  0
ENDTAB
  0
ENDSEC
  0
SECTION
  2
BLOCKS
  0
BLOCK
  5
129
330
128
100
AcDbEntity
  8
0
100
AcDbBlockBegin
  2
*Model_Space
 70
     0
 10
0.0
 20
0.0
 30
0.0
  3
*Model_Space
  1

  0
ENDBLK
  5
12A
330
128
100
AcDbEntity
  8
0
100
AcDbBlockEnd
  0
BLOCK
  5
125
330
124
100
AcDbEntity
 67
     1
  8
0
100
AcDbBlockBegin
  2
*Paper_Space
 70
     0
 10
0.0
 20
0.0
 30
0.0
  3
*Paper_Space
  1

  0
ENDBLK
  5
126
330
124
100
AcDbEntity
 67
     1
  8
0
100
AcDbBlockEnd
  0
ENDSEC
  0
SECTION
  2
ENTITIES
  0
LINE
  5
181
330
128
100
AcDbEntity
  8
1
  6
Continuous
 62
     4
100
AcDbLine
 10
866.3687499999989
 20
422.825
 30
0.0
 11
866.3687499999989
 21
851.8124999999999
 31
0.0
  0
LINE
  5
1E0
330
128
100
AcDbEntity
  8
1
  6
Continuous
 62
     4
100
AcDbLine
 10
866.3687499999989
 20
422.825
 30
0.0
 11
866.3687499999989
 21
497.825
 31
0.0
  0
LINE
  5
246
330
128
100
AcDbEntity
  8
0
  6
Continuous
 62
     4
100
AcDbLine
 10
717.7374999999989
 20
832.9912834861765
 30
0.0
 11
736.558716513822
 21
851.8124999999999
 31
0.0
1001
ACAD
1010
0.0
1020
0.0
1030
0.0
  0
LINE
  5
247
330
128
100
AcDbEntity
  8
0
  6
Continuous
 62
     4
100
AcDbLine
 10
717.7374999999989
 20
822.3846817683783
 30
0.0
 11
744.3014091158095
 21
848.948590884189
 31
0.0
1001
ACAD
1010
0.0
1020
0.0
1030
0.0
  0
LINE
  5
248
330
128
100
AcDbEntity
  8
0
  6
Continuous
 62
     4
100
AcDbLine
 10
717.7374999999989
 20
811.77808005058
 30
0.0
 11
749.6047099747086
 21
843.6452900252902
 31
0.0
1001
ACAD
1010
0.0
1020
0.0
1030
0.0
  0
LINE
  5
249
330
128
100
AcDbEntity
  8
0
  6
Continuous
 62
     4
100
AcDbLine
 10
717.7374999999989
 20
801.1714783327818
 30
0.0
 11
751.3687499999989
 21
834.8027283327823
 31
0.0
1001
ACAD
1010
0.0
1020
0.0
1030
0.0
  0
LINE
  5
24A
330
128
100
AcDbEntity
  8
0
  6
Continuous
 62
     4
100
AcDbLine
 10
717.7374999999989
 20
790.5648766149836
 30
0.0
 11
751.3687499999989
 21
824.1961266149841
 31
0.0
1001
ACAD
1010
0.0
1020
0.0
1030
0.0
  0
LINE
  5
24B
330
128
100
AcDbEntity
  8
0
  6
Continuous
 62
     4
100
AcDbLine
 10
717.7374999999986
 20
779.9582748971852
 30
0.0
 11
751.3687499999989
 21
813.5895248971857
 31
0.0
1001
ACAD
1010
0.0
1020
0.0
1030
0.0
  0
LINE
  5
24C
330
128
100
AcDbEntity
  8
0
  6
Continuous
 62
     4
100
AcDbLine
 10
717.7374999999989
 20
769.3516731793872
 30
0.0
 11
751.3687499999989
 21
802.9829231793879
 31
0.0
1001
ACAD
1010
0.0
1020
0.0
1030
0.0
  0
LINE
  5
24D
330
128
100
AcDbEntity
  8
0
  6
Continuous
 62
     4
100
AcDbLine
 10
717.7374999999986
 20
758.7450714615888
 30
0.0
 11
751.3687499999989
 21
792.3763214615895
 31
0.0
1001
ACAD
1010
0.0
1020
0.0
1030
0.0
  0
LINE
  5
24E
330
128
100
AcDbEntity
  8
0
  6
Continuous
 62
     4
100
AcDbLine
 10
696.5276401281037
 20
726.9286098718953
 30
0.0
 11
751.3901401281033
 21
781.7911098718957
 31
0.0
1001
ACAD
1010
0.0
1020
0.0
1030
0.0
  0
LINE
  5
24F
330
128
100
AcDbEntity
  8
0
  6
Continuous
 62
     4
100
AcDbLine
 10
701.8309409870022
 20
721.6253090129962
 30
0.0
 11
757.0181319740055
 21
776.8125
 31
0.0
1001
ACAD
1010
0.0
1020
0.0
1030
0.0
  0
LINE
  5
250
330
128
100
AcDbEntity
  8
0
  6
Continuous
 62
     4
100
AcDbLine
 10
697.1342418459019
 20
706.3220081540975
 30
0.0
 11
766.3687499999994
 21
775.5565163081952
 31
0.0
1001
ACAD
1010
0.0
1020
0.0
1030
0.0
  0
LINE
  5
251
330
128
100
AcDbEntity
  8
0
  6
Continuous
 62
     4
100
AcDbLine
 10
702.437542704801
 20
701.018707295198
 30
0.0
 11
766.3687499999994
 21
764.949914590397
 31
0.0
1001
ACAD
1010
0.0
1020
0.0
1030
0.0
  0
LINE
  5
252
330
128
100
AcDbEntity
  8
0
  6
Continuous
 62
     4
100
AcDbLine
 10
697.7408435636996
 20
685.715406436299
 30
0.0
 11
766.3687499999994
 21
754.3433128725987
 31
0.0
1001
ACAD
1010
0.0
1020
0.0
1030
0.0
  0
LINE
  5
253
330
128
100
AcDbEntity
  8
0
  6
Continuous
 62
     4
100
AcDbLine
 10
703.0441444225987
 20
680.4121055773999
 30
0.0
 11
766.3687499999994
 21
743.7367111548005
 31
0.0
1001
ACAD
1010
0.0
1020
0.0
1030
0.0
  0
LINE
  5
254
330
128
100
AcDbEntity
  8
0
  6
Continuous
 62
     4
100
AcDbLine
 10
698.3474452814978
 20
665.1088047185009
 30
0.0
 11
766.3687499999994
 21
733.1301094370026
 31
0.0
1001
ACAD
1010
0.0
1020
0.0
1030
0.0
  0
LINE
  5
255
330
128
100
AcDbEntity
  8
0
  6
Continuous
 62
     4
100
AcDbLine
 10
703.6507461403971
 20
659.8055038596018
 30
0.0
 11
766.3687499999994
 21
722.5235077192044
 31
0.0
1001
ACAD
1010
0.0
1020
0.0
1030
0.0
  0
LINE
  5
256
330
128
100
AcDbEntity
  8
0
  6
Continuous
 62
     4
100
AcDbLine
 10
703.4518439985934
 20
649.0
 30
0.0
 11
766.3687499999994
 21
711.9169060014062
 31
0.0
1001
ACAD
1010
0.0
1020
0.0
1030
0.0
  0
LINE
  5
257
330
128
100
AcDbEntity
  8
0
  6
Continuous
 62
     4
100
AcDbLine
 10
714.0584457163916
 20
649.0
 30
0.0
 11
766.3687499999994
 21
701.3103042836078
 31
0.0
1001
ACAD
1010
0.0
1020
0.0
1030
0.0
  0
LINE
  5
258
330
128
100
AcDbEntity
  8
0
  6
Continuous
 62
     4
100
AcDbLine
 10
724.6650474341898
 20
649.0
 30
0.0
 11
766.3687499999994
 21
690.7037025658097
 31
0.0
1001
ACAD
1010
0.0
1020
0.0
1030
0.0
  0
LINE
  5
259
330
128
100
AcDbEntity
  8
0
  6
Continuous
 62
     4
100
AcDbLine
 10
732.5045790172509
 20
646.2329298652633
 30
0.0
 11
766.3687499999994
 21
680.0971008480114
 31
0.0
1001
ACAD
1010
0.0
1020
0.0
1030
0.0
  0
LINE
  5
25A
330
128
100
AcDbEntity
  8
0
  6
Continuous
 62
     4
100
AcDbLine
 10
706.9999999999992
 20
620.8100334861767
 30
0.0
 11
731.9979275417742
 21
645.8079610279522
 31
0.0
1001
ACAD
1010
0.0
1020
0.0
1030
0.0
  0
LINE
  5
25B
330
128
100
AcDbEntity
  8
0
  6
Continuous
 62
     4
100
AcDbLine
 10
706.9999999999992
 20
610.2034317683788
 30
0.0
 11
760.7965682316204
 21
664.0
 31
0.0
1001
ACAD
1010
0.0
1020
0.0
1030
0.0
  0
LINE
  5
263
330
128
100
AcDbEntity
  8
0
  6
Continuous
 62
     4
100
AcDbLine
 10
706.9999999999992
 20
599.5968300505807
 30
0.0
 11
766.0998690905195
 21
658.6966991411007
 31
0.0
1001
ACAD
1010
0.0
1020
0.0
1030
0.0
  0
LINE
  5
266
330
128
100
AcDbEntity
  8
0
  6
Continuous
 62
     4
100
AcDbLine
 10
706.9999999999992
 20
588.9902283327824
 30
0.0
 11
766.3687499999994
 21
648.3589783327822
 31
0.0
1001
ACAD
1010
0.0
1020
0.0
1030
0.0
  0
LINE
  5
267
330
128
100
AcDbEntity
  8
0
  6
Continuous
 62
     4
100
AcDbLine
 10
709.6163733850151
 20
581.0
 30
0.0
 11
766.3687499999994
 21
637.7523766149838
 31
0.0
1001
ACAD
1010
0.0
1020
0.0
1030
0.0
  0
LINE
  5
268
330
128
100
AcDbEntity
  8
0
  6
Continuous
 62
     4
100
AcDbLine
 10
710.3687499999989
 20
571.1457748971858
 30
0.0
 11
766.3687499999994
 21
627.1457748971859
 31
0.0
1001
ACAD
1010
0.0
1020
0.0
1030
0.0
  0
LINE
  5
269
330
128
100
AcDbEntity
  8
0
  6
Continuous
 62
     4
100
AcDbLine
 10
712.8295768206116
 20
563.0
 30
0.0
 11
766.3687499999994
 21
616.5391731793877
 31
0.0
1001
ACAD
1010
0.0
1020
0.0
1030
0.0
  0
LINE
  5
26A
330
128
100
AcDbEntity
  8
0
  6
Continuous
 62
     4
100
AcDbLine
 10
717.7374999999989
 20
557.3013214615891
 30
0.0
 11
766.3687499999994
 21
605.9325714615892
 31
0.0
1001
ACAD
1010
0.0
1020
0.0
1030
0.0
  0
LINE
  5
26B
330
128
100
AcDbEntity
  8
0
  6
Continuous
 62
     4
100
AcDbLine
 10
717.7374999999989
 20
546.6947197437912
 30
0.0
 11
766.3687499999994
 21
595.3259697437912
 31
0.0
1001
ACAD
1010
0.0
1020
0.0
1030
0.0
  0
LINE
  5
26C
330
128
100
AcDbEntity
  8
0
  6
Continuous
 62
     4
100
AcDbLine
 10
717.7374999999989
 20
536.0881180259929
 30
0.0
 11
766.3687499999994
 21
584.7193680259931
 31
0.0
1001
ACAD
1010
0.0
1020
0.0
1030
0.0
  0
LINE
  5
26D
330
128
100
AcDbEntity
  8
0
  6
Continuous
 62
     4
100
AcDbLine
 10
717.7374999999989
 20
525.4815163081948
 30
0.0
 11
766.3687499999994
 21
574.1127663081947
 31
0.0
1001
ACAD
1010
0.0
1020
0.0
1030
0.0
  0
LINE
  5
26E
330
128
100
AcDbEntity
  8
0
  6
Continuous
 62
     4
100
AcDbLine
 10
717.7374999999989
 20
514.8749145903965
 30
0.0
 11
766.3687499999994
 21
563.5061645903967
 31
0.0
1001
ACAD
1010
0.0
1020
0.0
1030
0.0
  0
LINE
  5
26F
330
128
100
AcDbEntity
  8
0
  6
Continuous
 62
     4
100
AcDbLine
 10
717.7374999999989
 20
504.2683128725983
 30
0.0
 11
766.3687499999994
 21
552.8995628725986
 31
0.0
1001
ACAD
1010
0.0
1020
0.0
1030
0.0
  0
LINE
  5
270
330
128
100
AcDbEntity
  8
0
  6
Continuous
 62
     4
100
AcDbLine
 10
717.7374999999989
 20
493.6617111548001
 30
0.0
 11
766.3687499999994
 21
542.2929611548003
 31
0.0
1001
ACAD
1010
0.0
1020
0.0
1030
0.0
  0
LINE
  5
271
330
128
100
AcDbEntity
  8
0
  6
Continuous
 62
     4
100
AcDbLine
 10
717.7374999999989
 20
483.055109437002
 30
0.0
 11
766.3687499999994
 21
531.6863594370022
 31
0.0
1001
ACAD
1010
0.0
1020
0.0
1030
0.0
  0
LINE
  5
272
330
128
100
AcDbEntity
  8
0
  6
Continuous
 62
     4
100
AcDbLine
 10
717.7374999999989
 20
472.4485077192039
 30
0.0
 11
766.3687499999994
 21
521.079757719204
 31
0.0
1001
ACAD
1010
0.0
1020
0.0
1030
0.0
  0
LINE
  5
273
330
128
100
AcDbEntity
  8
0
  6
Continuous
 62
     4
100
AcDbLine
 10
717.7374999999989
 20
461.8419060014056
 30
0.0
 11
766.3687499999994
 21
510.4731560014057
 31
0.0
1001
ACAD
1010
0.0
1020
0.0
1030
0.0
  0
LINE
  5
274
330
128
100
AcDbEntity
  8
0
  6
Continuous
 62
     4
100
AcDbLine
 10
717.7374999999989
 20
451.2353042836075
 30
0.0
 11
751.3687499999989
 21
484.8665542836076
 31
0.0
1001
ACAD
1010
0.0
1020
0.0
1030
0.0
  0
LINE
  5
275
330
128
100
AcDbEntity
  8
0
  6
Continuous
 62
     4
100
AcDbLine
 10
717.7374999999989
 20
440.6287025658093
 30
0.0
 11
751.3687499999989
 21
474.2599525658094
 31
0.0
1001
ACAD
1010
0.0
1020
0.0
1030
0.0
  0
LINE
  5
276
330
128
100
AcDbEntity
  8
0
  6
Continuous
 62
     4
100
AcDbLine
 10
718.4545745759935
 20
430.7391754240057
 30
0.0
 11
751.3687499999989
 21
463.6533508480111
 31
0.0
1001
ACAD
1010
0.0
1020
0.0
1030
0.0
  0
LINE
  5
277
330
128
100
AcDbEntity
  8
0
  6
Continuous
 62
     4
100
AcDbLine
 10
723.7578754348925
 20
425.4358745651065
 30
0.0
 11
751.3687499999989
 21
453.0467491302131
 31
0.0
1001
ACAD
1010
0.0
1020
0.0
1030
0.0
  0
LINE
  5
278
330
128
100
AcDbEntity
  8
0
  6
Continuous
 62
     4
100
AcDbLine
 10
731.753602587584
 20
422.825
 30
0.0
 11
751.3687499999989
 21
442.4401474124147
 31
0.0
1001
ACAD
1010
0.0
1020
0.0
1030
0.0
  0
LINE
  5
27B
330
128
100
AcDbEntity
  8
0
  6
Continuous
 62
     4
100
AcDbLine
 10
764.3271957163912
 20
497.825
 30
0.0
 11
766.3687499999994
 21
499.8665542836077
 31
0.0
1001
ACAD
1010
0.0
1020
0.0
1030
0.0
  0
LINE
  5
27C
330
128
100
AcDbEntity
  8
0
  6
Continuous
 62
     4
100
AcDbLine
 10
981.3687499999998
 20
831.6912834861764
 30
0.0
 11
1001.489966513821
 21
851.8124999999999
 31
0.0
1001
ACAD
1010
0.0
1020
0.0
1030
0.0
  0
LINE
  5
27D
330
128
100
AcDbEntity
  8
0
  6
Continuous
 62
     4
100
AcDbLine
 10
981.3687499999998
 20
821.0846817683783
 30
0.0
 11
1009.23265911581
 21
848.9485908841894
 31
0.0
1001
ACAD
1010
0.0
1020
0.0
1030
0.0
  0
LINE
  5
27E
330
128
100
AcDbEntity
  8
0
  6
Continuous
 62
     4
100
AcDbLine
 10
981.3687499999998
 20
810.4780800505803
 30
0.0
 11
1014.535959974709
 21
843.6452900252902
 31
0.0
1001
ACAD
1010
0.0
1020
0.0
1030
0.0
  0
LINE
  5
27F
330
128
100
AcDbEntity
  8
0
  6
Continuous
 62
     4
100
AcDbLine
 10
981.3687499999998
 20
799.871478332782
 30
0.0
 11
1014.999999999999
 21
833.5027283327825
 31
0.0
1001
ACAD
1010
0.0
1020
0.0
1030
0.0
  0
LINE
  5
280
330
128
100
AcDbEntity
  8
0
  6
Continuous
 62
     4
100
AcDbLine
 10
966.3687499999994
 20
774.2648766149844
 30
0.0
 11
968.9163733850152
 21
776.8125
 31
0.0
1001
ACAD
1010
0.0
1020
0.0
1030
0.0
  0
LINE
  5
281
330
128
100
AcDbEntity
  8
0
  6
Continuous
 62
     4
100
AcDbLine
 10
966.3687499999994
 20
763.6582748971862
 30
0.0
 11
1014.999999999999
 21
812.2895248971863
 31
0.0
1001
ACAD
1010
0.0
1020
0.0
1030
0.0
  0
LINE
  5
282
330
128
100
AcDbEntity
  8
0
  6
Continuous
 62
     4
100
AcDbLine
 10
981.3687499999998
 20
789.2648766149842
 30
0.0
 11
1014.999999999999
 21
822.8961266149843
 31
0.0
1001
ACAD
1010
0.0
1020
0.0
1030
0.0
  0
LINE
  5
283
330
128
100
AcDbEntity
  8
0
  6
Continuous
 62
     4
100
AcDbLine
 10
966.3687499999987
 20
753.0516731793877
 30
0.0
 11
1014.999999999999
 21
801.6829231793877
 31
0.0
1001
ACAD
1010
0.0
1020
0.0
1030
0.0
  0
LINE
  5
284
330
128
100
AcDbEntity
  8
0
  6
Continuous
 62
     4
100
AcDbLine
 10
966.3687499999982
 20
742.4450714615894
 30
0.0
 11
1014.999999999999
 21
791.0763214615898
 31
0.0
1001
ACAD
1010
0.0
1020
0.0
1030
0.0
  0
LINE
  5
285
330
128
100
AcDbEntity
  8
0
  6
Continuous
 62
     4
100
AcDbLine
 10
966.368749999998
 20
731.8384697437911
 30
0.0
 11
1014.999999999998
 21
780.4697197437913
 31
0.0
1001
ACAD
1010
0.0
1020
0.0
1030
0.0
  0
LINE
  5
286
330
128
100
AcDbEntity
  8
0
  6
Continuous
 62
     4
100
AcDbLine
 10
966.3687499999976
 20
721.2318680259929
 30
0.0
 11
1014.999999999998
 21
769.8631180259932
 31
0.0
1001
ACAD
1010
0.0
1020
0.0
1030
0.0
  0
LINE
  5
287
330
128
100
AcDbEntity
  8
0
  6
Continuous
 62
     4
100
AcDbLine
 10
966.3687499999987
 20
710.6252663081961
 30
0.0
 11
1014.999999999999
 21
759.2565163081963
 31
0.0
1001
ACAD
1010
0.0
1020
0.0
1030
0.0
  0
LINE
  5
288
330
128
100
AcDbEntity
  8
0
  6
Continuous
 62
     4
100
AcDbLine
 10
966.3687499999982
 20
700.0186645903977
 30
0.0
 11
1014.999999999999
 21
748.6499145903979
 31
0.0
1001
ACAD
1010
0.0
1020
0.0
1030
0.0
  0
LINE
  5
289
330
128
100
AcDbEntity
  8
0
  6
Continuous
 62
     4
100
AcDbLine
 10
966.3687499999982
 20
689.4120628725994
 30
0.0
 11
1015.412937127398
 21
738.4562499999997
 31
0.0
1001
ACAD
1010
0.0
1020
0.0
1030
0.0
  0
LINE
  5
28A
330
128
100
AcDbEntity
  8
0
  6
Continuous
 62
     4
100
AcDbLine
 10
966.3687499999987
 20
678.8054611548022
 30
0.0
 11
1026.019538845196
 21
738.4562499999997
 31
0.0
1001
ACAD
1010
0.0
1020
0.0
1030
0.0
  0
LINE
  5
28B
330
128
100
AcDbEntity
  8
0
  6
Continuous
 62
     4
100
AcDbLine
 10
969.8703339570339
 20
671.7004433940394
 30
0.0
 11
1032.181820281496
 21
734.0119297185017
 31
0.0
1001
ACAD
1010
0.0
1020
0.0
1030
0.0
  0
LINE
  5
28C
330
128
100
AcDbEntity
  8
0
  6
Continuous
 62
     4
100
AcDbLine
 10
966.3687499999994
 20
657.5922577192065
 30
0.0
 11
972.7764922807926
 21
664.0
 31
0.0
1001
ACAD
1010
0.0
1020
0.0
1030
0.0
  0
LINE
  5
28D
330
128
100
AcDbEntity
  8
0
  6
Continuous
 62
     4
100
AcDbLine
 10
966.3687499999994
 20
646.9856560014087
 30
0.0
 11
1032.788421999293
 21
713.4053280007034
 31
0.0
1001
ACAD
1010
0.0
1020
0.0
1030
0.0
  0
LINE
  5
28E
330
128
100
AcDbEntity
  8
0
  6
Continuous
 62
     4
100
AcDbLine
 10
966.3687499999994
 20
636.3790542836108
 30
0.0
 11
1028.091722858192
 21
698.1020271418043
 31
0.0
1001
ACAD
1010
0.0
1020
0.0
1030
0.0
  0
LINE
  5
28F
330
128
100
AcDbEntity
  8
0
  6
Continuous
 62
     4
100
AcDbLine
 10
966.3687499999994
 20
625.7724525658126
 30
0.0
 11
1033.395023717093
 21
692.7987262829052
 31
0.0
1001
ACAD
1010
0.0
1020
0.0
1030
0.0
  0
LINE
  5
290
330
128
100
AcDbEntity
  8
0
  6
Continuous
 62
     4
100
AcDbLine
 10
966.3687499999994
 20
615.1658508480141
 30
0.0
 11
998.7117532367117
 21
647.5088540847268
 31
0.0
1001
ACAD
1010
0.0
1020
0.0
1030
0.0
  0
LINE
  5
291
330
128
100
AcDbEntity
  8
0
  6
Continuous
 62
     4
100
AcDbLine
 10
966.3687499999994
 20
604.5592491302162
 30
0.0
 11
1004.480037092646
 21
642.6705362228647
 31
0.0
1001
ACAD
1010
0.0
1020
0.0
1030
0.0
  0
LINE
  5
292
330
128
100
AcDbEntity
  8
0
  6
Continuous
 62
     4
100
AcDbLine
 10
966.3687499999994
 20
593.9526474124181
 30
0.0
 11
1010.248320948583
 21
637.8322183610021
 31
0.0
1001
ACAD
1010
0.0
1020
0.0
1030
0.0
  0
LINE
  5
293
330
128
100
AcDbEntity
  8
0
  6
Continuous
 62
     4
100
AcDbLine
 10
966.3687499999994
 20
583.3460456946214
 30
0.0
 11
1016.016604804519
 21
632.9939004991398
 31
0.0
1001
ACAD
1010
0.0
1020
0.0
1030
0.0
  0
LINE
  5
294
330
128
100
AcDbEntity
  8
0
  6
Continuous
 62
     4
100
AcDbLine
 10
1032.022704305378
 20
649.0
 30
0.0
 11
1034.608227152689
 21
651.5855228473093
 31
0.0
1001
ACAD
1010
0.0
1020
0.0
1030
0.0
  0
LINE
  5
295
330
128
100
AcDbEntity
  8
0
  6
Continuous
 62
     4
100
AcDbLine
 10
1021.416102587581
 20
649.0
 30
0.0
 11
1029.30492629379
 21
656.8888237062083
 31
0.0
1001
ACAD
1010
0.0
1020
0.0
1030
0.0
  0
LINE
  5
296
330
128
100
AcDbEntity
  8
0
  6
Continuous
 62
     4
100
AcDbLine
 10
1010.809500869783
 20
649.0000000000001
 30
0.0
 11
1034.001625434891
 21
672.1921245651075
 31
0.0
1001
ACAD
1010
0.0
1020
0.0
1030
0.0
  0
LINE
  5
297
330
128
100
AcDbEntity
  8
0
  6
Continuous
 62
     4
100
AcDbLine
 10
1000.202899151985
 20
649.0
 30
0.0
 11
1028.698324575991
 21
677.4954254240062
 31
0.0
1001
ACAD
1010
0.0
1020
0.0
1030
0.0
  0
LINE
  5
298
330
128
100
AcDbEntity
  8
0
  6
Continuous
 62
     4
100
AcDbLine
 10
975.6386178129694
 20
666.8621255321769
 30
0.0
 11
1037.485121140395
 21
728.7086288596026
 31
0.0
1001
ACAD
1010
0.0
1020
0.0
1030
0.0
  0
LINE
  5
299
330
128
100
AcDbEntity
  8
0
  6
Continuous
 62
     4
100
AcDbLine
 10
966.3687499999987
 20
572.7394439768235
 30
0.0
 11
1024.629306023177
 21
631.0
 31
0.0
1001
ACAD
1010
0.0
1020
0.0
1030
0.0
  0
LINE
  5
29A
330
128
100
AcDbEntity
  8
0
  6
Continuous
 62
     4
100
AcDbLine
 10
966.3687499999994
 20
562.1328422590257
 30
0.0
 11
1025.737499999997
 21
621.5015922590228
 31
0.0
1001
ACAD
1010
0.0
1020
0.0
1030
0.0
  0
LINE
  5
29B
330
128
100
AcDbEntity
  8
0
  6
Continuous
 62
     4
100
AcDbLine
 10
966.3687499999994
 20
551.5262405412278
 30
0.0
 11
1025.737499999997
 21
610.894990541225
 31
0.0
1001
ACAD
1010
0.0
1020
0.0
1030
0.0
  0
LINE
  5
29C
330
128
100
AcDbEntity
  8
0
  6
Continuous
 62
     4
100
AcDbLine
 10
966.3687499999994
 20
540.9196388234298
 30
0.0
 11
1025.737499999997
 21
600.2883888234271
 31
0.0
1001
ACAD
1010
0.0
1020
0.0
1030
0.0
  0
LINE
  5
29D
330
128
100
AcDbEntity
  8
0
  6
Continuous
 62
     4
100
AcDbLine
 10
966.3687499999994
 20
530.3130371056321
 30
0.0
 11
1025.737499999997
 21
589.6817871056292
 31
0.0
1001
ACAD
1010
0.0
1020
0.0
1030
0.0
  0
LINE
  5
29E
330
128
100
AcDbEntity
  8
0
  6
Continuous
 62
     4
100
AcDbLine
 10
966.3687499999994
 20
519.7064353878341
 30
0.0
 11
1022.368749999998
 21
575.7064353878321
 31
0.0
1001
ACAD
1010
0.0
1020
0.0
1030
0.0
  0
LINE
  5
29F
330
128
100
AcDbEntity
  8
0
  6
Continuous
 62
     4
100
AcDbLine
 10
966.3687499999998
 20
509.0998336700364
 30
0.0
 11
1014.999999999999
 21
557.7310836700345
 31
0.0
1001
ACAD
1010
0.0
1020
0.0
1030
0.0
  0
LINE
  5
2A0
330
128
100
AcDbEntity
  8
0
  6
Continuous
 62
     4
100
AcDbLine
 10
966.3687499999998
 20
498.4932319522386
 30
0.0
 11
1014.999999999999
 21
547.1244819522365
 31
0.0
1001
ACAD
1010
0.0
1020
0.0
1030
0.0
  0
LINE
  5
2A1
330
128
100
AcDbEntity
  8
0
  6
Continuous
 62
     4
100
AcDbLine
 10
1020.268916329965
 20
563.0
 30
0.0
 11
1022.368749999998
 21
565.0998336700342
 31
0.0
1001
ACAD
1010
0.0
1020
0.0
1030
0.0
  0
LINE
  5
2A2
330
128
100
AcDbEntity
  8
0
  6
Continuous
 62
     4
100
AcDbLine
 10
976.3071197655596
 20
497.825
 30
0.0
 11
1014.999999999999
 21
536.5178802344384
 31
0.0
1001
ACAD
1010
0.0
1020
0.0
1030
0.0
  0
LINE
  5
2A3
330
128
100
AcDbEntity
  8
0
  6
Continuous
 62
     4
100
AcDbLine
 10
981.3687499999998
 20
492.2800285166418
 30
0.0
 11
1014.999999999999
 21
525.9112785166406
 31
0.0
1001
ACAD
1010
0.0
1020
0.0
1030
0.0
  0
LINE
  5
2A4
330
128
100
AcDbEntity
  8
0
  6
Continuous
 62
     4
100
AcDbLine
 10
981.3687499999998
 20
481.6734267988437
 30
0.0
 11
1014.999999999999
 21
515.3046767988428
 31
0.0
1001
ACAD
1010
0.0
1020
0.0
1030
0.0
  0
LINE
  5
2A5
330
128
100
AcDbEntity
  8
0
  6
Continuous
 62
     4
100
AcDbLine
 10
981.3687499999998
 20
471.0668250810458
 30
0.0
 11
1014.999999999999
 21
504.6980750810449
 31
0.0
1001
ACAD
1010
0.0
1020
0.0
1030
0.0
  0
LINE
  5
2A6
330
128
100
AcDbEntity
  8
0
  6
Continuous
 62
     4
100
AcDbLine
 10
981.3687499999998
 20
460.4602233632479
 30
0.0
 11
1014.999999999999
 21
494.0914733632472
 31
0.0
1001
ACAD
1010
0.0
1020
0.0
1030
0.0
  0
LINE
  5
2A7
330
128
100
AcDbEntity
  8
0
  6
Continuous
 62
     4
100
AcDbLine
 10
981.3687499999998
 20
449.8536216454502
 30
0.0
 11
1014.999999999999
 21
483.4848716454493
 31
0.0
1001
ACAD
1010
0.0
1020
0.0
1030
0.0
  0
LINE
  5
2A8
330
128
100
AcDbEntity
  8
0
  6
Continuous
 62
     4
100
AcDbLine
 10
981.3687499999998
 20
439.2470199276525
 30
0.0
 11
1014.999999999999
 21
472.8782699276514
 31
0.0
1001
ACAD
1010
0.0
1020
0.0
1030
0.0
  0
LINE
  5
2A9
330
128
100
AcDbEntity
  8
0
  6
Continuous
 62
     4
100
AcDbLine
 10
983.4266658950715
 20
430.6983341049271
 30
0.0
 11
1014.999999999999
 21
462.2716682098536
 31
0.0
1001
ACAD
1010
0.0
1020
0.0
1030
0.0
  0
LINE
  5
2AA
330
128
100
AcDbEntity
  8
0
  6
Continuous
 62
     4
100
AcDbLine
 10
988.7299667539712
 20
425.3950332460282
 30
0.0
 11
1014.999999999999
 21
451.6650664920558
 31
0.0
1001
ACAD
1010
0.0
1020
0.0
1030
0.0
  0
LINE
  5
2AB
330
128
100
AcDbEntity
  8
0
  6
Continuous
 62
     4
100
AcDbLine
 10
996.7665352257407
 20
422.825
 30
0.0
 11
1014.999999999999
 21
441.0584647742579
 31
0.0
1001
ACAD
1010
0.0
1020
0.0
1030
0.0
  0
LINE
  5
2AC
330
128
100
AcDbEntity
  8
0
  6
Continuous
 62
     4
100
AcDbLine
 10
698.7793582569109
 20
732.2356082569111
 30
0.0
 11
692.5587165138225
 21
738.4562499999997
 31
0.0
1001
ACAD
1010
0.0
1020
0.0
1030
0.0
  0
LINE
  5
2AD
330
128
100
AcDbEntity
  8
0
  6
Continuous
 62
     4
100
AcDbLine
 10
703.4760573980118
 20
716.9323073980121
 30
0.0
 11
682.3687499999992
 21
738.0396147960246
 31
0.0
1001
ACAD
1010
0.0
1020
0.0
1030
0.0
  0
LINE
  5
2AE
330
128
100
AcDbEntity
  8
0
  6
Continuous
 62
     4
100
AcDbLine
 10
698.1727565391127
 20
711.629006539113
 30
0.0
 11
682.3687499999992
 21
727.4330130782266
 31
0.0
1001
ACAD
1010
0.0
1020
0.0
1030
0.0
  0
LINE
  5
2AF
330
128
100
AcDbEntity
  8
0
  6
Continuous
 62
     4
100
AcDbLine
 10
702.8694556802136
 20
696.3257056802139
 30
0.0
 11
682.3687499999992
 21
716.8264113604284
 31
0.0
1001
ACAD
1010
0.0
1020
0.0
1030
0.0
  0
LINE
  5
2B0
330
128
100
AcDbEntity
  8
0
  6
Continuous
 62
     4
100
AcDbLine
 10
697.5661548213139
 20
691.0224048213146
 30
0.0
 11
682.3687499999992
 21
706.2198096426306
 31
0.0
1001
ACAD
1010
0.0
1020
0.0
1030
0.0
  0
LINE
  5
2B1
330
128
100
AcDbEntity
  8
0
  6
Continuous
 62
     4
100
AcDbLine
 10
702.2628539624153
 20
675.7191039624157
 30
0.0
 11
682.3687499999992
 21
695.6132079248324
 31
0.0
1001
ACAD
1010
0.0
1020
0.0
1030
0.0
  0
LINE
  5
2B2
330
128
100
AcDbEntity
  8
0
  6
Continuous
 62
     4
100
AcDbLine
 10
696.9595531035162
 20
670.4158031035166
 30
0.0
 11
682.3687499999992
 21
685.0066062070346
 31
0.0
1001
ACAD
1010
0.0
1020
0.0
1030
0.0
  0
LINE
  5
2B3
330
128
100
AcDbEntity
  8
0
  6
Continuous
 62
     4
100
AcDbLine
 10
701.6562522446173
 20
655.1125022446179
 30
0.0
 11
682.3687499999992
 21
674.4000044892365
 31
0.0
1001
ACAD
1010
0.0
1020
0.0
1030
0.0
  0
LINE
  5
2B4
330
128
100
AcDbEntity
  8
0
  6
Continuous
 62
     4
100
AcDbLine
 10
696.352951385718
 20
649.8092013857188
 30
0.0
 11
682.3687499999992
 21
663.7934027714385
 31
0.0
1001
ACAD
1010
0.0
1020
0.0
1030
0.0
  0
LINE
  5
2B5
330
128
100
AcDbEntity
  8
0
  6
Continuous
 62
     4
100
AcDbLine
 10
701.0496505268195
 20
634.5059005268198
 30
0.0
 11
682.3687499999992
 21
653.1868010536403
 31
0.0
1001
ACAD
1010
0.0
1020
0.0
1030
0.0
  0
LINE
  5
2B6
330
128
100
AcDbEntity
  8
0
  6
Continuous
 62
     4
100
AcDbLine
 10
695.7463496679204
 20
629.2025996679207
 30
0.0
 11
682.3687499999992
 21
642.5801993358425
 31
0.0
1001
ACAD
1010
0.0
1020
0.0
1030
0.0
  0
LINE
  5
2B7
330
128
100
AcDbEntity
  8
0
  6
Continuous
 62
     4
100
AcDbLine
 10
700.4430488090218
 20
613.8992988090217
 30
0.0
 11
682.3687499999992
 21
631.9735976180443
 31
0.0
1001
ACAD
1010
0.0
1020
0.0
1030
0.0
  0
LINE
  5
2B8
330
128
100
AcDbEntity
  8
0
  6
Continuous
 62
     4
100
AcDbLine
 10
695.1397479501222
 20
608.5959979501225
 30
0.0
 11
682.3687499999992
 21
621.3669959002465
 31
0.0
1001
ACAD
1010
0.0
1020
0.0
1030
0.0
  0
LINE
  5
2B9
330
128
100
AcDbEntity
  8
0
  6
Continuous
 62
     4
100
AcDbLine
 10
703.9999999999992
 20
589.1291441824479
 30
0.0
 11
682.3687499999992
 21
610.7603941824483
 31
0.0
1001
ACAD
1010
0.0
1020
0.0
1030
0.0
  0
LINE
  5
2BA
330
128
100
AcDbEntity
  8
0
  6
Continuous
 62
     4
100
AcDbLine
 10
708.3687499999994
 20
574.153792464649
 30
0.0
 11
682.3687499999992
 21
600.1537924646505
 31
0.0
1001
ACAD
1010
0.0
1020
0.0
1030
0.0
  0
LINE
  5
2BB
330
128
100
AcDbEntity
  8
0
  6
Continuous
 62
     4
100
AcDbLine
 10
708.3687499999994
 20
563.5471907468519
 30
0.0
 11
682.3687499999992
 21
589.5471907468524
 31
0.0
1001
ACAD
1010
0.0
1020
0.0
1030
0.0
  0
LINE
  5
2BC
330
128
100
AcDbEntity
  8
0
  6
Continuous
 62
     4
100
AcDbLine
 10
698.3093390290526
 20
563.0
 30
0.0
 11
682.3687499999992
 21
578.9405890290544
 31
0.0
1001
ACAD
1010
0.0
1020
0.0
1030
0.0
  0
LINE
  5
2BD
330
128
100
AcDbEntity
  8
0
  6
Continuous
 62
     4
100
AcDbLine
 10
687.7027373112557
 20
563.0
 30
0.0
 11
682.3687499999992
 21
568.3339873112562
 31
0.0
1001
ACAD
1010
0.0
1020
0.0
1030
0.0
  0
LINE
  5
2BF
330
128
100
AcDbEntity
  8
0
  6
Continuous
 62
     4
100
AcDbLine
 10
1050.368749999998
 20
726.0149665138214
 30
0.0
 11
1037.927466513822
 21
738.4562499999997
 31
0.0
1001
ACAD
1010
0.0
1020
0.0
1030
0.0
  0
LINE
  5
2C0
330
128
100
AcDbEntity
  8
0
  6
Continuous
 62
     4
100
AcDbLine
 10
1050.368749999998
 20
715.4083647960232
 30
0.0
 11
1037.529182398011
 21
728.247932398012
 31
0.0
1001
ACAD
1010
0.0
1020
0.0
1030
0.0
  0
LINE
  5
2C1
330
128
100
AcDbEntity
  8
0
  6
Continuous
 62
     4
100
AcDbLine
 10
1050.368749999998
 20
704.8017630782251
 30
0.0
 11
1032.225881539112
 21
722.9446315391133
 31
0.0
1001
ACAD
1010
0.0
1020
0.0
1030
0.0
  0
LINE
  5
2C2
330
128
100
AcDbEntity
  8
0
  6
Continuous
 62
     4
100
AcDbLine
 10
1050.368749999998
 20
694.1951613604269
 30
0.0
 11
1036.922580680213
 21
707.6413306802142
 31
0.0
1001
ACAD
1010
0.0
1020
0.0
1030
0.0
  0
LINE
  5
2C3
330
128
100
AcDbEntity
  8
0
  6
Continuous
 62
     4
100
AcDbLine
 10
1050.368749999998
 20
683.5885596426289
 30
0.0
 11
1031.619279821313
 21
702.3380298213155
 31
0.0
1001
ACAD
1010
0.0
1020
0.0
1030
0.0
  0
LINE
  5
2C4
330
128
100
AcDbEntity
  8
0
  6
Continuous
 62
     4
100
AcDbLine
 10
1050.368749999998
 20
672.9819579248307
 30
0.0
 11
1036.315978962415
 21
687.0347289624159
 31
0.0
1001
ACAD
1010
0.0
1020
0.0
1030
0.0
  0
LINE
  5
2C5
330
128
100
AcDbEntity
  8
0
  6
Continuous
 62
     4
100
AcDbLine
 10
1050.368749999998
 20
662.3753562070326
 30
0.0
 11
1031.012678103516
 21
681.731428103517
 31
0.0
1001
ACAD
1010
0.0
1020
0.0
1030
0.0
  0
LINE
  5
2C6
330
128
100
AcDbEntity
  8
0
  6
Continuous
 62
     4
100
AcDbLine
 10
1050.368749999998
 20
651.7687544892347
 30
0.0
 11
1035.709377244616
 21
666.4281272446181
 31
0.0
1001
ACAD
1010
0.0
1020
0.0
1030
0.0
  0
LINE
  5
2C7
330
128
100
AcDbEntity
  8
0
  6
Continuous
 62
     4
100
AcDbLine
 10
1050.368749999998
 20
641.1621527714365
 30
0.0
 11
1030.406076385717
 21
661.1248263857191
 31
0.0
1001
ACAD
1010
0.0
1020
0.0
1030
0.0
  0
LINE
  5
2C8
330
128
100
AcDbEntity
  8
0
  6
Continuous
 62
     4
100
AcDbLine
 10
1050.368749999998
 20
630.5555510536386
 30
0.0
 11
1035.102775526817
 21
645.82152552682
 31
0.0
1001
ACAD
1010
0.0
1020
0.0
1030
0.0
  0
LINE
  5
2C9
330
128
100
AcDbEntity
  8
0
  6
Continuous
 62
     4
100
AcDbLine
 10
1050.368749999998
 20
619.9489493358405
 30
0.0
 11
1029.799474667919
 21
640.518224667921
 31
0.0
1001
ACAD
1010
0.0
1020
0.0
1030
0.0
  0
LINE
  5
2CA
330
128
100
AcDbEntity
  8
0
  6
Continuous
 62
     4
100
AcDbLine
 10
1050.368749999998
 20
609.3423476180425
 30
0.0
 11
1034.496173809019
 21
625.2149238090217
 31
0.0
1001
ACAD
1010
0.0
1020
0.0
1030
0.0
  0
LINE
  5
2CB
330
128
100
AcDbEntity
  8
0
  6
Continuous
 62
     4
100
AcDbLine
 10
1050.368749999998
 20
598.7357459002444
 30
0.0
 11
1029.192872950122
 21
619.9116229501229
 31
0.0
1001
ACAD
1010
0.0
1020
0.0
1030
0.0
  0
LINE
  5
2CC
330
128
100
AcDbEntity
  8
0
  6
Continuous
 62
     4
100
AcDbLine
 10
1050.368749999998
 20
588.1291441824462
 30
0.0
 11
1030.041644182447
 21
608.4562499999996
 31
0.0
1001
ACAD
1010
0.0
1020
0.0
1030
0.0
  0
LINE
  5
2CD
330
128
100
AcDbEntity
  8
0
  6
Continuous
 62
     4
100
AcDbLine
 10
1050.368749999998
 20
577.5225424646483
 30
0.0
 11
1028.737499999997
 21
599.1537924646514
 31
0.0
1001
ACAD
1010
0.0
1020
0.0
1030
0.0
  0
LINE
  5
2CE
330
128
100
AcDbEntity
  8
0
  6
Continuous
 62
     4
100
AcDbLine
 10
1050.368749999998
 20
566.9159407468502
 30
0.0
 11
1028.737499999997
 21
588.547190746853
 31
0.0
1001
ACAD
1010
0.0
1020
0.0
1030
0.0
  0
LINE
  5
2CF
330
128
100
AcDbEntity
  8
0
  6
Continuous
 62
     4
100
AcDbLine
 10
1043.678089029052
 20
563.0
 30
0.0
 11
1025.678089029051
 21
581.0
 31
0.0
1001
ACAD
1010
0.0
1020
0.0
1030
0.0
  0
LINE
  5
2D0
330
128
100
AcDbEntity
  8
0
  6
Continuous
 62
     4
100
AcDbLine
 10
1033.071487311253
 20
563.0000000000001
 30
0.0
 11
1024.368749999998
 21
571.7027373112545
 31
0.0
1001
ACAD
1010
0.0
1020
0.0
1030
0.0
  0
LINE
  5
2D1
330
128
100
AcDbEntity
  8
1
  6
Continuous
 62
     7
100
AcDbLine
 10
704.9999999999997
 20
618.4562499999997
 30
0.0
 11
694.9999999999996
 21
628.4562499999997
 31
0.0
  0
LINE
  5
2D2
330
128
100
AcDbEntity
  8
1
  6
Continuous
 62
     7
100
AcDbLine
 10
694.9999999999996
 20
628.4562499999997
 30
0.0
 11
704.9999999999997
 21
638.4562499999997
 31
0.0
  0
LINE
  5
2D3
330
128
100
AcDbEntity
  8
1
  6
Continuous
 62
     7
100
AcDbLine
 10
704.9999999999997
 20
638.4562499999997
 30
0.0
 11
694.9999999999996
 21
648.45625
 31
0.0
  0
LINE
  5
2D4
330
128
100
AcDbEntity
  8
1
  6
Continuous
 62
     7
100
AcDbLine
 10
694.9999999999996
 20
648.45625
 30
0.0
 11
704.9999999999997
 21
658.4562499999996
 31
0.0
  0
LINE
  5
2D5
330
128
100
AcDbEntity
  8
1
  6
Continuous
 62
     7
100
AcDbLine
 10
704.9999999999997
 20
658.4562499999996
 30
0.0
 11
694.9999999999996
 21
668.4562499999997
 31
0.0
  0
LINE
  5
2D6
330
128
100
AcDbEntity
  8
1
  6
Continuous
 62
     7
100
AcDbLine
 10
694.9999999999996
 20
668.4562499999997
 30
0.0
 11
704.9999999999997
 21
678.4562499999997
 31
0.0
  0
LINE
  5
2D7
330
128
100
AcDbEntity
  8
1
  6
Continuous
 62
     7
100
AcDbLine
 10
704.9999999999997
 20
678.4562499999997
 30
0.0
 11
694.9999999999996
 21
688.4562499999997
 31
0.0
  0
LINE
  5
2D8
330
128
100
AcDbEntity
  8
1
  6
Continuous
 62
     7
100
AcDbLine
 10
694.9999999999996
 20
688.4562499999997
 30
0.0
 11
704.9999999999997
 21
698.45625
 31
0.0
  0
LINE
  5
2D9
330
128
100
AcDbEntity
  8
1
  6
Continuous
 62
     7
100
AcDbLine
 10
704.9999999999997
 20
698.45625
 30
0.0
 11
694.9999999999996
 21
708.4562499999996
 31
0.0
  0
LINE
  5
2DA
330
128
100
AcDbEntity
  8
1
  6
Continuous
 62
     7
100
AcDbLine
 10
694.9999999999996
 20
708.4562499999996
 30
0.0
 11
704.9999999999997
 21
718.4562499999997
 31
0.0
  0
LINE
  5
2DB
330
128
100
AcDbEntity
  8
1
  6
Continuous
 62
     7
100
AcDbLine
 10
704.9999999999997
 20
718.4562499999997
 30
0.0
 11
694.9999999999996
 21
728.4562499999997
 31
0.0
  0
LINE
  5
2DC
330
128
100
AcDbEntity
  8
1
  6
Continuous
 62
     7
100
AcDbLine
 10
694.9999999999996
 20
728.4562499999997
 30
0.0
 11
704.9999999999997
 21
738.4562499999997
 31
0.0
  0
LINE
  5
2DD
330
128
100
AcDbEntity
  8
1
  6
Continuous
 62
     7
100
AcDbLine
 10
1022.36875
 20
581.0
 30
0.0
 11
1022.36875
 21
563.0
 31
0.0
  0
LINE
  5
2DE
330
128
100
AcDbEntity
  8
1
  6
Continuous
 62
     7
100
AcDbLine
 10
1015.0
 20
431.45625
 30
0.0
 11
1006.36875
 21
422.825
 31
0.0
  0
LINE
  5
2DF
330
128
100
AcDbEntity
  8
1
  6
Continuous
 62
     7
100
AcDbLine
 10
1027.737499999999
 20
618.4562499999997
 30
0.0
 11
1037.737499999999
 21
628.4562499999997
 31
0.0
  0
LINE
  5
2E0
330
128
100
AcDbEntity
  8
1
  6
Continuous
 62
     7
100
AcDbLine
 10
1037.737499999999
 20
628.4562499999997
 30
0.0
 11
1027.737499999999
 21
638.4562499999997
 31
0.0
  0
LINE
  5
2E1
330
128
100
AcDbEntity
  8
1
  6
Continuous
 62
     7
100
AcDbLine
 10
1027.737499999999
 20
638.4562499999997
 30
0.0
 11
1037.737499999999
 21
648.45625
 31
0.0
  0
LINE
  5
2E2
330
128
100
AcDbEntity
  8
1
  6
Continuous
 62
     7
100
AcDbLine
 10
1037.737499999999
 20
648.45625
 30
0.0
 11
1027.737499999999
 21
658.4562499999996
 31
0.0
  0
LINE
  5
2E3
330
128
100
AcDbEntity
  8
1
  6
Continuous
 62
     7
100
AcDbLine
 10
1027.737499999999
 20
658.4562499999996
 30
0.0
 11
1037.737499999999
 21
668.4562499999997
 31
0.0
  0
LINE
  5
2E4
330
128
100
AcDbEntity
  8
1
  6
Continuous
 62
     7
100
AcDbLine
 10
1037.737499999999
 20
668.4562499999997
 30
0.0
 11
1027.737499999999
 21
678.4562499999997
 31
0.0
  0
LINE
  5
2E5
330
128
100
AcDbEntity
  8
1
  6
Continuous
 62
     7
100
AcDbLine
 10
1027.737499999999
 20
678.4562499999997
 30
0.0
 11
1037.737499999999
 21
688.4562499999997
 31
0.0
  0
LINE
  5
2E6
330
128
100
AcDbEntity
  8
1
  6
Continuous
 62
     7
100
AcDbLine
 10
1037.737499999999
 20
688.4562499999997
 30
0.0
 11
1027.737499999999
 21
698.45625
 31
0.0
  0
LINE
  5
2E7
330
128
100
AcDbEntity
  8
1
  6
Continuous
 62
     7
100
AcDbLine
 10
1027.737499999999
 20
698.45625
 30
0.0
 11
1037.737499999999
 21
708.4562499999996
 31
0.0
  0
LINE
  5
2E8
330
128
100
AcDbEntity
  8
1
  6
Continuous
 62
     7
100
AcDbLine
 10
1037.737499999999
 20
708.4562499999996
 30
0.0
 11
1027.737499999999
 21
718.4562499999997
 31
0.0
  0
LINE
  5
2E9
330
128
100
AcDbEntity
  8
1
  6
Continuous
 62
     7
100
AcDbLine
 10
1027.737499999999
 20
718.4562499999997
 30
0.0
 11
1037.737499999999
 21
728.4562499999997
 31
0.0
  0
LINE
  5
2EA
330
128
100
AcDbEntity
  8
1
  6
Continuous
 62
     7
100
AcDbLine
 10
1037.737499999999
 20
728.4562499999997
 30
0.0
 11
1027.737499999999
 21
738.4562499999997
 31
0.0
  0
LINE
  5
2EB
330
128
100
AcDbEntity
  8
1
  6
Continuous
 62
     7
100
AcDbLine
 10
1050.36875
 20
738.4562499999997
 30
0.0
 11
1015.0
 21
738.4562499999997
 31
0.0
  0
LINE
  5
2EC
330
128
100
AcDbEntity
  8
1
  6
Continuous
 62
     7
100
AcDbLine
 10
1037.737499999999
 20
608.4562499999996
 30
0.0
 11
1027.737499999999
 21
618.4562499999997
 31
0.0
  0
LINE
  5
2ED
330
128
100
AcDbEntity
  8
1
  6
Continuous
 62
     7
100
AcDbLine
 10
1015.0
 20
563.0
 30
0.0
 11
1015.0
 21
431.45625
 31
0.0
  0
LINE
  5
2EE
330
128
100
AcDbEntity
  8
1
  6
Continuous
 62
     7
100
AcDbLine
 10
1015.0
 20
563.0
 30
0.0
 11
1022.36875
 21
563.0
 31
0.0
  0
LINE
  5
2EF
330
128
100
AcDbEntity
  8
1
  6
Continuous
 62
     7
100
AcDbLine
 10
1024.36875
 20
563.0
 30
0.0
 11
1050.36875
 21
563.0
 31
0.0
  0
LINE
  5
2F0
330
128
100
AcDbEntity
  8
1
  6
Continuous
 62
     7
100
AcDbLine
 10
1024.36875
 20
581.0
 30
0.0
 11
1024.36875
 21
563.0
 31
0.0
  0
LINE
  5
2F1
330
128
100
AcDbEntity
  8
1
  6
Continuous
 62
     7
100
AcDbLine
 10
1050.36875
 20
738.4562499999997
 30
0.0
 11
1050.36875
 21
563.0
 31
0.0
  0
LINE
  5
2F2
330
128
100
AcDbEntity
  8
1
  6
Continuous
 62
     7
100
AcDbLine
 10
710.3687499999994
 20
581.0
 30
0.0
 11
710.3687499999994
 21
563.0
 31
0.0
  0
LINE
  5
2F3
330
128
100
AcDbEntity
  8
1
  6
Continuous
 62
     7
100
AcDbLine
 10
704.9999999999997
 20
618.4562499999997
 30
0.0
 11
694.9999999999996
 21
628.4562499999997
 31
0.0
  0
LINE
  5
2F4
330
128
100
AcDbEntity
  8
1
  6
Continuous
 62
     7
100
AcDbLine
 10
694.9999999999996
 20
628.4562499999997
 30
0.0
 11
704.9999999999997
 21
638.4562499999997
 31
0.0
  0
LINE
  5
2F5
330
128
100
AcDbEntity
  8
1
  6
Continuous
 62
     7
100
AcDbLine
 10
704.9999999999997
 20
638.4562499999997
 30
0.0
 11
694.9999999999996
 21
648.45625
 31
0.0
  0
LINE
  5
2F6
330
128
100
AcDbEntity
  8
1
  6
Continuous
 62
     7
100
AcDbLine
 10
694.9999999999996
 20
648.45625
 30
0.0
 11
704.9999999999997
 21
658.4562499999996
 31
0.0
  0
LINE
  5
2F7
330
128
100
AcDbEntity
  8
1
  6
Continuous
 62
     7
100
AcDbLine
 10
704.9999999999997
 20
658.4562499999996
 30
0.0
 11
694.9999999999996
 21
668.4562499999997
 31
0.0
  0
LINE
  5
2F8
330
128
100
AcDbEntity
  8
1
  6
Continuous
 62
     7
100
AcDbLine
 10
694.9999999999996
 20
668.4562499999997
 30
0.0
 11
704.9999999999997
 21
678.4562499999997
 31
0.0
  0
LINE
  5
2F9
330
128
100
AcDbEntity
  8
1
  6
Continuous
 62
     7
100
AcDbLine
 10
704.9999999999997
 20
678.4562499999997
 30
0.0
 11
694.9999999999996
 21
688.4562499999997
 31
0.0
  0
LINE
  5
2FA
330
128
100
AcDbEntity
  8
1
  6
Continuous
 62
     7
100
AcDbLine
 10
694.9999999999996
 20
688.4562499999997
 30
0.0
 11
704.9999999999997
 21
698.45625
 31
0.0
  0
LINE
  5
2FB
330
128
100
AcDbEntity
  8
1
  6
Continuous
 62
     7
100
AcDbLine
 10
704.9999999999997
 20
698.45625
 30
0.0
 11
694.9999999999996
 21
708.4562499999996
 31
0.0
  0
LINE
  5
2FC
330
128
100
AcDbEntity
  8
1
  6
Continuous
 62
     7
100
AcDbLine
 10
694.9999999999996
 20
708.4562499999996
 30
0.0
 11
704.9999999999997
 21
718.4562499999997
 31
0.0
  0
LINE
  5
2FD
330
128
100
AcDbEntity
  8
1
  6
Continuous
 62
     7
100
AcDbLine
 10
704.9999999999997
 20
718.4562499999997
 30
0.0
 11
694.9999999999996
 21
728.4562499999997
 31
0.0
  0
LINE
  5
2FE
330
128
100
AcDbEntity
  8
1
  6
Continuous
 62
     7
100
AcDbLine
 10
694.9999999999996
 20
728.4562499999997
 30
0.0
 11
704.9999999999997
 21
738.4562499999997
 31
0.0
  0
LINE
  5
2FF
330
128
100
AcDbEntity
  8
1
  6
Continuous
 62
     7
100
AcDbLine
 10
682.3687499999997
 20
738.4562499999997
 30
0.0
 11
717.7374999999995
 21
738.4562499999997
 31
0.0
  0
LINE
  5
300
330
128
100
AcDbEntity
  8
1
  6
Continuous
 62
     7
100
AcDbLine
 10
766.3687499999994
 20
674.6375
 30
0.0
 11
714.3437499999996
 21
631.0
 31
0.0
  0
LINE
  5
301
330
128
100
AcDbEntity
  8
1
  6
Continuous
 62
     7
100
AcDbLine
 10
694.9999999999996
 20
608.4562499999996
 30
0.0
 11
704.9999999999997
 21
618.4562499999997
 31
0.0
  0
LINE
  5
302
330
128
100
AcDbEntity
  8
1
  6
Continuous
 62
     7
100
AcDbLine
 10
703.9999999999996
 20
608.4562499999996
 30
0.0
 11
694.9999999999996
 21
608.4562499999996
 31
0.0
  0
LINE
  5
303
330
128
100
AcDbEntity
  8
1
  6
Continuous
 62
     7
100
AcDbLine
 10
706.9999999999996
 20
631.0
 30
0.0
 11
706.9999999999996
 21
581.0
 31
0.0
  0
LINE
  5
304
330
128
100
AcDbEntity
  8
1
  6
Continuous
 62
     7
100
AcDbLine
 10
710.3687499999994
 20
581.0
 30
0.0
 11
703.9999999999996
 21
581.0
 31
0.0
  0
LINE
  5
305
330
128
100
AcDbEntity
  8
1
  6
Continuous
 62
     7
100
AcDbLine
 10
703.9999999999996
 20
608.4562499999996
 30
0.0
 11
703.9999999999996
 21
581.0
 31
0.0
  0
LINE
  5
306
330
128
100
AcDbEntity
  8
1
  6
Continuous
 62
     7
100
AcDbLine
 10
717.7374999999995
 20
563.0
 30
0.0
 11
710.3687499999994
 21
563.0
 31
0.0
  0
LINE
  5
307
330
128
100
AcDbEntity
  8
1
  6
Continuous
 62
     7
100
AcDbLine
 10
708.3687499999994
 20
563.0
 30
0.0
 11
682.3687499999997
 21
563.0
 31
0.0
  0
LINE
  5
308
330
128
100
AcDbEntity
  8
1
  6
Continuous
 62
     7
100
AcDbLine
 10
708.3687499999994
 20
581.0
 30
0.0
 11
708.3687499999994
 21
563.0
 31
0.0
  0
LINE
  5
309
330
128
100
AcDbEntity
  8
1
  6
Continuous
 62
     7
100
AcDbLine
 10
682.3687499999997
 20
738.4562499999997
 30
0.0
 11
682.3687499999997
 21
563.0
 31
0.0
  0
LINE
  5
30A
330
128
100
AcDbEntity
  8
1
  6
Continuous
 62
     7
100
AcDbLine
 10
717.7374999999995
 20
563.0
 30
0.0
 11
717.7374999999995
 21
431.45625
 31
0.0
  0
LINE
  5
30B
330
128
100
AcDbEntity
  8
1
  6
Continuous
 62
     7
100
AcDbLine
 10
717.7374999999995
 20
431.45625
 30
0.0
 11
726.3687499999994
 21
422.825
 31
0.0
  0
LINE
  5
30C
330
128
100
AcDbEntity
  8
1
  6
Continuous
 62
     7
100
AcDbLine
 10
717.7374999999995
 20
738.4562499999997
 30
0.0
 11
717.7374999999995
 21
843.1812499999999
 31
0.0
  0
LINE
  5
30D
330
128
100
AcDbEntity
  8
1
  6
Continuous
 62
     7
100
AcDbLine
 10
1015.0
 20
738.4562499999997
 30
0.0
 11
1015.0
 21
843.1812499999999
 31
0.0
  0
LINE
  5
30E
330
128
100
AcDbEntity
  8
1
  6
Continuous
 62
     7
100
AcDbLine
 10
1015.0
 20
843.1812499999999
 30
0.0
 11
1006.36875
 21
851.8124999999999
 31
0.0
  0
LINE
  5
30F
330
128
100
AcDbEntity
  8
1
  6
Continuous
 62
     7
100
AcDbLine
 10
714.3437499999996
 20
631.0
 30
0.0
 11
706.9999999999996
 21
631.0
 31
0.0
  0
LINE
  5
310
330
128
100
AcDbEntity
  8
1
  6
Continuous
 62
     7
100
AcDbLine
 10
966.3687499999998
 20
674.6375
 30
0.0
 11
1018.393749999998
 21
631.0
 31
0.0
  0
LINE
  5
311
330
128
100
AcDbEntity
  8
1
  6
Continuous
 62
     7
100
AcDbLine
 10
1018.393749999998
 20
631.0
 30
0.0
 11
1025.737499999999
 21
631.0
 31
0.0
  0
LINE
  5
312
330
128
100
AcDbEntity
  8
1
  6
Continuous
 62
     7
100
AcDbLine
 10
1025.737499999999
 20
631.0
 30
0.0
 11
1025.737499999999
 21
581.0
 31
0.0
  0
LINE
  5
313
330
128
100
AcDbEntity
  8
1
  6
Continuous
 62
     7
100
AcDbLine
 10
1022.36875
 20
581.0
 30
0.0
 11
1028.737499999998
 21
581.0
 31
0.0
  0
LINE
  5
314
330
128
100
AcDbEntity
  8
1
  6
Continuous
 62
     7
100
AcDbLine
 10
1028.737499999998
 20
608.4562499999996
 30
0.0
 11
1028.737499999998
 21
581.0
 31
0.0
  0
LINE
  5
315
330
128
100
AcDbEntity
  8
1
  6
Continuous
 62
     7
100
AcDbLine
 10
1028.737499999998
 20
608.4562499999996
 30
0.0
 11
1037.737499999999
 21
608.4562499999996
 31
0.0
  0
LINE
  5
316
330
128
100
AcDbEntity
  8
1
  6
Continuous
 62
     3
100
AcDbLine
 10
682.3687499999997
 20
550.0
 30
0.0
 11
682.3687499999997
 21
229.0
 31
0.0
  0
LINE
  5
317
330
128
100
AcDbEntity
  8
1
  6
Continuous
 62
     3
100
AcDbLine
 10
1050.36875
 20
550.0
 30
0.0
 11
1050.36875
 21
229.0
 31
0.0
  0
LINE
  5
318
330
128
100
AcDbEntity
  8
1
  6
Continuous
 62
     3
100
AcDbLine
 10
1050.36875
 20
238.86875
 30
0.0
 11
1026.65625
 21
245.425
 31
0.0
  0
LINE
  5
319
330
128
100
AcDbEntity
  8
1
  6
Continuous
 62
     3
100
AcDbLine
 10
1050.36875
 20
238.86875
 30
0.0
 11
1026.65625
 21
232.3125
 31
0.0
  0
LINE
  5
31A
330
128
100
AcDbEntity
  8
1
  6
Continuous
 62
     3
100
AcDbLine
 10
1026.65625
 20
232.3125
 30
0.0
 11
1026.65625
 21
245.425
 31
0.0
  0
LINE
  5
31B
330
128
100
AcDbEntity
  8
1
  6
Continuous
 62
     3
100
AcDbLine
 10
682.3687499999997
 20
238.86875
 30
0.0
 11
706.0812499999995
 21
232.3125
 31
0.0
  0
LINE
  5
31C
330
128
100
AcDbEntity
  8
1
  6
Continuous
 62
     3
100
AcDbLine
 10
682.3687499999997
 20
238.86875
 30
0.0
 11
706.0812499999995
 21
245.425
 31
0.0
  0
LINE
  5
31D
330
128
100
AcDbEntity
  8
1
  6
Continuous
 62
     3
100
AcDbLine
 10
706.0812499999995
 20
245.425
 30
0.0
 11
706.0812499999995
 21
232.3125
 31
0.0
  0
LINE
  5
31E
330
128
100
AcDbEntity
  8
1
  6
Continuous
 62
     3
100
AcDbLine
 10
1016.36875
 20
851.8124999999999
 30
0.0
 11
1202.0
 21
851.8124999999999
 31
0.0
  0
LINE
  5
31F
330
128
100
AcDbEntity
  8
1
  6
Continuous
 62
     3
100
AcDbLine
 10
1016.36875
 20
422.825
 30
0.0
 11
1202.0
 21
422.825
 31
0.0
  0
LINE
  5
320
330
128
100
AcDbEntity
  8
1
  6
Continuous
 62
     3
100
AcDbLine
 10
1192.368749999998
 20
851.8124999999999
 30
0.0
 11
1198.925
 21
828.1
 31
0.0
  0
LINE
  5
321
330
128
100
AcDbEntity
  8
1
  6
Continuous
 62
     3
100
AcDbLine
 10
1192.368749999998
 20
851.8124999999999
 30
0.0
 11
1185.812499999997
 21
828.1
 31
0.0
  0
LINE
  5
322
330
128
100
AcDbEntity
  8
1
  6
Continuous
 62
     3
100
AcDbLine
 10
1185.812499999997
 20
828.1
 30
0.0
 11
1198.925
 21
828.1
 31
0.0
  0
LINE
  5
323
330
128
100
AcDbEntity
  8
1
  6
Continuous
 62
     3
100
AcDbLine
 10
1192.368749999998
 20
422.825
 30
0.0
 11
1185.812499999997
 21
446.5375
 31
0.0
  0
LINE
  5
324
330
128
100
AcDbEntity
  8
1
  6
Continuous
 62
     3
100
AcDbLine
 10
1192.368749999998
 20
422.825
 30
0.0
 11
1198.925
 21
446.5375
 31
0.0
  0
LINE
  5
325
330
128
100
AcDbEntity
  8
1
  6
Continuous
 62
     3
100
AcDbLine
 10
1198.925
 20
446.5375
 30
0.0
 11
1185.812499999997
 21
446.5375
 31
0.0
  0
LINE
  5
326
330
128
100
AcDbEntity
  8
1
  6
Continuous
 62
     7
100
AcDbLine
 10
1038.28125
 20
649.0
 30
0.0
 11
996.9312499999999
 21
649.0
 31
0.0
  0
LINE
  5
327
330
128
100
AcDbEntity
  8
1
  6
Continuous
 62
     7
100
AcDbLine
 10
735.8062499999994
 20
649.0
 30
0.0
 11
695.5437499999995
 21
649.0
 31
0.0
  0
LINE
  5
328
330
128
100
AcDbEntity
  8
1
  6
Continuous
 62
     7
100
AcDbLine
 10
741.4374999999992
 20
851.8124999999999
 30
0.0
 11
751.3687499999994
 21
841.8812499999997
 31
0.0
  0
LINE
  5
331
330
128
100
AcDbEntity
  8
1
  6
Continuous
 62
     7
100
AcDbLine
 10
751.3687499999994
 20
841.8124999999999
 30
0.0
 11
751.3687499999994
 21
781.8125
 31
0.0
  0
LINE
  5
332
330
128
100
AcDbEntity
  8
1
  6
Continuous
 62
     7
100
AcDbLine
 10
981.3687499999998
 20
781.8125
 30
0.0
 11
981.3687499999998
 21
841.8124999999999
 31
0.0
  0
LINE
  5
333
330
128
100
AcDbEntity
  8
1
  6
Continuous
 62
     7
100
AcDbLine
 10
751.3687499999994
 20
841.8124999999999
 30
0.0
 11
981.3687499999998
 21
841.8124999999999
 31
0.0
  0
LINE
  5
334
330
128
100
AcDbEntity
  8
1
  6
Continuous
 62
     7
100
AcDbLine
 10
991.3
 20
851.8124999999999
 30
0.0
 11
981.3687499999998
 21
841.8812499999997
 31
0.0
  0
LINE
  5
335
330
128
100
AcDbEntity
  8
1
  6
Continuous
 62
     7
100
AcDbLine
 10
756.3687499999997
 20
776.8125
 30
0.0
 11
751.3687499999994
 21
781.8125
 31
0.0
  0
LINE
  5
336
330
128
100
AcDbEntity
  8
1
  6
Continuous
 62
     7
100
AcDbLine
 10
976.3687499999999
 20
776.8125
 30
0.0
 11
981.3687499999998
 21
781.8125
 31
0.0
  0
LINE
  5
33E
330
128
100
AcDbEntity
  8
1
  6
Continuous
 62
     7
100
AcDbLine
 10
756.3687499999997
 20
776.8125
 30
0.0
 11
976.3687499999999
 21
776.8125
 31
0.0
  0
LINE
  5
33F
330
128
100
AcDbEntity
  8
1
  6
Continuous
 62
     7
100
AcDbLine
 10
741.4374999999992
 20
422.825
 30
0.0
 11
751.3687499999994
 21
432.7562499999998
 31
0.0
  0
LINE
  5
349
330
128
100
AcDbEntity
  8
1
  6
Continuous
 62
     7
100
AcDbLine
 10
751.3687499999994
 20
432.8249999999998
 30
0.0
 11
751.3687499999994
 21
492.825
 31
0.0
  0
LINE
  5
34A
330
128
100
AcDbEntity
  8
1
  6
Continuous
 62
     7
100
AcDbLine
 10
981.3687499999998
 20
492.825
 30
0.0
 11
981.3687499999998
 21
432.8249999999998
 31
0.0
  0
LINE
  5
34B
330
128
100
AcDbEntity
  8
1
  6
Continuous
 62
     7
100
AcDbLine
 10
751.3687499999994
 20
432.8249999999998
 30
0.0
 11
981.3687499999998
 21
432.8249999999998
 31
0.0
  0
LINE
  5
34C
330
128
100
AcDbEntity
  8
1
  6
Continuous
 62
     7
100
AcDbLine
 10
991.3
 20
422.825
 30
0.0
 11
981.3687499999998
 21
432.7562499999998
 31
0.0
  0
LINE
  5
34D
330
128
100
AcDbEntity
  8
1
  6
Continuous
 62
     7
100
AcDbLine
 10
756.3687499999997
 20
497.825
 30
0.0
 11
751.3687499999994
 21
492.825
 31
0.0
  0
LINE
  5
34E
330
128
100
AcDbEntity
  8
1
  6
Continuous
 62
     7
100
AcDbLine
 10
976.3687499999999
 20
497.825
 30
0.0
 11
981.3687499999998
 21
492.825
 31
0.0
  0
LINE
  5
34F
330
128
100
AcDbEntity
  8
1
  6
Continuous
 62
     7
100
AcDbLine
 10
756.3687499999997
 20
497.825
 30
0.0
 11
976.3687499999999
 21
497.825
 31
0.0
  0
LINE
  5
357
330
128
100
AcDbEntity
  8
1
  6
Continuous
 62
     7
100
AcDbLine
 10
966.3687499999998
 20
674.6375
 30
0.0
 11
866.3687499999994
 21
674.6375
 31
0.0
  0
LINE
  5
358
330
128
100
AcDbEntity
  8
1
  6
Continuous
 62
     7
100
AcDbLine
 10
866.3687499999994
 20
674.6375
 30
0.0
 11
766.3687499999994
 21
674.6375
 31
0.0
  0
LINE
  5
359
330
128
100
AcDbEntity
  8
1
  6
Continuous
 62
     7
100
AcDbLine
 10
979.0499999999999
 20
664.0
 30
0.0
 11
866.3687499999994
 21
664.0
 31
0.0
  0
LINE
  5
35A
330
128
100
AcDbEntity
  8
1
  6
Continuous
 62
     7
100
AcDbLine
 10
866.3687499999994
 20
664.0
 30
0.0
 11
753.6874999999996
 21
664.0
 31
0.0
  0
LINE
  5
35B
330
128
100
AcDbEntity
  8
1
  6
Continuous
 62
     3
100
AcDbLine
 10
706.0812499999995
 20
238.86875
 30
0.0
 11
1026.65625
 21
238.86875
 31
0.0
  0
LINE
  5
35C
330
128
100
AcDbEntity
  8
1
  6
Continuous
 62
     7
100
AcDbLine
 10
726.3687499999994
 20
422.825
 30
0.0
 11
1006.36875
 21
422.825
 31
0.0
  0
LINE
  5
35D
330
128
100
AcDbEntity
  8
1
  6
Continuous
 62
     7
100
AcDbLine
 10
717.7374999999995
 20
843.1812499999999
 30
0.0
 11
726.3687499999994
 21
851.8124999999999
 31
0.0
  0
LINE
  5
35E
330
128
100
AcDbEntity
  8
1
  6
Continuous
 62
     7
100
AcDbLine
 10
766.3687499999994
 20
776.8125
 30
0.0
 11
766.3687499999994
 21
674.6375
 31
0.0
  0
LINE
  5
35F
330
128
100
AcDbEntity
  8
1
  6
Continuous
 62
     7
100
AcDbLine
 10
766.3687499999994
 20
664.0
 30
0.0
 11
766.3687499999994
 21
497.825
 31
0.0
  0
LINE
  5
360
330
128
100
AcDbEntity
  8
1
  6
Continuous
 62
     7
100
AcDbLine
 10
966.3687499999998
 20
497.825
 30
0.0
 11
966.3687499999998
 21
664.0
 31
0.0
  0
LINE
  5
361
330
128
100
AcDbEntity
  8
1
  6
Continuous
 62
     7
100
AcDbLine
 10
966.3687499999998
 20
674.6375
 30
0.0
 11
966.3687499999998
 21
776.8125
 31
0.0
  0
LINE
  5
362
330
128
100
AcDbEntity
  8
1
  6
Continuous
 62
     7
100
AcDbLine
 10
726.3687499999994
 20
851.8124999999999
 30
0.0
 11
1006.36875
 21
851.8124999999999
 31
0.0
  0
LINE
  5
365
330
128
100
AcDbEntity
  8
1
  6
Continuous
 62
     3
100
AcDbLine
 10
1192.368749999998
 20
657.31875
 30
0.0
 11
1192.368749999998
 21
828.1
 31
0.0
  0
LINE
  5
366
330
128
100
AcDbEntity
  8
1
  6
Continuous
 62
     3
100
AcDbLine
 10
1192.368749999998
 20
446.5375
 30
0.0
 11
1192.368749999998
 21
617.31875
 31
0.0
  0
LINE
  5
380
330
128
100
AcDbEntity
  8
1
  6
Continuous
 62
     5
100
AcDbLine
 10
853.1125606542714
 20
260.9183432114799
 30
0.0
 11
857.1125606542715
 21
260.9183432114799
 31
0.0
  0
LINE
  5
381
330
128
100
AcDbEntity
  8
1
  6
Continuous
 62
     5
100
AcDbLine
 10
1187.924726109458
 20
638.2694918123847
 30
0.0
 11
1190.924726109458
 21
638.2694918123847
 31
0.0
  0
ENDSEC
  0
SECTION
  2
OBJECTS
  0
DICTIONARY
  5
116
330
0
100
AcDbDictionary
281
     1
  3
ACAD_COLOR
350
235
  3
ACAD_GROUP
350
117
  3
ACAD_LAYOUT
350
123
  3
ACAD_MATERIAL
350
220
  3
ACAD_MLINESTYLE
350
120
  3
ACAD_PLOTSETTINGS
350
122
  3
ACAD_PLOTSTYLENAME
350
118
  3
ACAD_TABLESTYLE
350
236
  3
ACAD_VISUALSTYLE
350
224
  3
AcDbVariableDictionary
350
279
  3
DWGPROPS
350
36F
  0
DICTIONARY
  5
264
330
128
100
AcDbDictionary
280
     1
281
     1
  3
ACAD_SORTENTS
360
265
  0
DICTIONARY
  5
235
102
{ACAD_REACTORS
330
116
102
}
330
116
100
AcDbDictionary
281
     1
  0
DICTIONARY
  5
117
102
{ACAD_REACTORS
330
116
102
}
330
116
100
AcDbDictionary
281
     1
  0
DICTIONARY
  5
123
102
{ACAD_REACTORS
330
116
102
}
330
116
100
AcDbDictionary
281
     1
  3
Layout1
350
127
  3
Model
350
12B
  0
DICTIONARY
  5
220
102
{ACAD_REACTORS
330
116
102
}
330
116
100
AcDbDictionary
281
     1
  3
ByBlock
350
222
  3
ByLayer
350
221
  3
Global
350
223
  0
DICTIONARY
  5
120
102
{ACAD_REACTORS
330
116
102
}
330
116
100
AcDbDictionary
281
     1
  3
Standard
350
121
  0
DICTIONARY
  5
122
102
{ACAD_REACTORS
330
116
102
}
330
116
100
AcDbDictionary
281
     1
  0
ACDBDICTIONARYWDFLT
  5
118
102
{ACAD_REACTORS
330
116
102
}
330
116
100
AcDbDictionary
281
     1
  3
Normal
350
119
100
AcDbDictionaryWithDefault
340
119
  0
DICTIONARY
  5
236
102
{ACAD_REACTORS
330
116
102
}
330
116
100
AcDbDictionary
281
     1
  3
Standard
350
237
  0
DICTIONARY
  5
224
102
{ACAD_REACTORS
330
116
102
}
330
116
100
AcDbDictionary
281
     1
  3
2dWireframe
350
22A
  3
3D Hidden
350
22C
  3
3dWireframe
350
22B
  3
Basic
350
229
  3
Brighten
350
230
  3
ColorChange
350
234
  3
Conceptual
350
22D
  3
Dim
350
22F
  3
Facepattern
350
233
  3
Flat
350
225
  3
FlatWithEdges
350
226
  3
Gouraud
350
227
  3
GouraudWithEdges
350
228
  3
Linepattern
350
232
  3
Realistic
350
22E
  3
Thicken
350
231
  0
DICTIONARY
  5
279
102
{ACAD_REACTORS
330
116
102
}
330
116
100
AcDbDictionary
281
     1
  3
CTABLESTYLE
350
27A
  3
DIMASSOC
350
36E
  3
INDEXCTL
350
36D
  3
SORTENTS
350
36C
  0
XRECORD
  5
36F
102
{ACAD_REACTORS
330
116
102
}
330
116
100
AcDbXrecord
280
     1
  1
DWGPROPS COOKIE
  2

  3

  4

  6

  7

  8
Horia
  9

300
=
301
=
302
=
303
=
304
=
305
=
306
=
307
=
308
=
309
=
 40
0.0148235069444445
 41
2453238.751666666
 42
2456330.567135313
  1

 90
        0
  0
SORTENTSTABLE
  5
265
102
{ACAD_REACTORS
330
264
102
}
330
264
100
AcDbSortentsTable
330
128
331
297
  5
292
331
289
  5
289
331
26B
  5
26B
331
2AE
  5
2AE
331
294
  5
29A
331
24D
  5
24D
331
25B
  5
25B
331
2AB
  5
2AB
331
286
  5
286
331
268
  5
268
331
258
  5
258
331
24A
  5
24A
331
291
  5
293
331
283
  5
283
331
255
  5
255
331
2A8
  5
2A8
331
247
  5
247
331
2A5
  5
2A5
331
280
  5
280
331
252
  5
252
331
2B0
  5
2B0
331
2A2
  5
2A2
331
27D
  5
27D
331
276
  5
277
331
29F
  5
29F
331
273
  5
273
331
29C
  5
29C
331
270
  5
270
331
28E
  5
28F
331
299
  5
298
331
28B
  5
28B
331
26D
  5
26D
331
1E0
  5
1E0
331
24F
  5
24F
331
296
  5
294
331
2AD
  5
2AD
331
288
  5
288
331
26A
  5
26A
331
25A
  5
25A
331
293
  5
297
331
24C
  5
24C
331
267
  5
267
331
285
  5
285
331
257
  5
257
331
2AA
  5
2AA
331
290
  5
291
331
249
  5
249
331
2A7
  5
2A7
331
282
  5
281
331
254
  5
254
331
246
  5
246
331
27F
  5
27F
331
251
  5
251
331
2A4
  5
2A4
331
2A1
  5
2A0
331
27C
  5
27C
331
275
  5
276
331
29E
  5
29E
331
272
  5
272
331
29B
  5
29B
331
28D
  5
28E
331
26F
  5
26F
331
298
  5
28D
331
26C
  5
26C
331
2AF
  5
2AF
331
28A
  5
28A
331
24E
  5
24E
331
295
  5
296
331
287
  5
287
331
269
  5
269
331
2AC
  5
2AC
331
292
  5
295
331
24B
  5
24B
331
266
  5
266
331
259
  5
259
331
181
  5
181
331
2A9
  5
2A9
331
284
  5
284
331
256
  5
256
331
248
  5
248
331
263
  5
263
331
281
  5
282
331
253
  5
253
331
2A6
  5
2A6
331
2A3
  5
2A3
331
27E
  5
27E
331
250
  5
250
331
277
  5
278
331
2A0
  5
2A1
331
27B
  5
275
331
274
  5
274
331
278
  5
27B
331
29D
  5
29D
331
28F
  5
290
331
271
  5
271
331
29A
  5
299
331
26E
  5
26E
331
28C
  5
28C
  0
LAYOUT
  5
127
102
{ACAD_XDICTIONARY
360
370
102
}
102
{ACAD_REACTORS
330
123
102
}
330
123
100
AcDbPlotSettings
  1

  2
HP DeskJet 840C/841C/842C/843C
  4

  6

 40
0.0
 41
0.0
 42
0.0
 43
0.0
 44
0.0
 45
0.0
 46
0.0
 47
0.0
 48
0.0
 49
0.0
140
0.0
141
0.0
142
1.0
143
1.0
 70
   688
 72
     0
 73
     0
 74
     5
  7

 75
    16
147
1.0
148
0.0
149
0.0
100
AcDbLayout
  1
Layout1
 70
     0
 71
     1
 10
0.0
 20
0.0
 11
12.0
 21
9.0
 12
0.0
 22
0.0
 32
0.0
 14
-1.000000000000000E+20
 24
-1.000000000000000E+20
 34
-1.000000000000000E+20
 15
-1.000000000000000E+20
 25
-1.000000000000000E+20
 35
-1.000000000000000E+20
146
0.0
 13
0.0
 23
0.0
 33
0.0
 16
1.0
 26
0.0
 36
0.0
 17
0.0
 27
1.0
 37
0.0
 76
     0
330
124
  0
LAYOUT
  5
12B
102
{ACAD_XDICTIONARY
360
372
102
}
102
{ACAD_REACTORS
330
123
102
}
330
123
100
AcDbPlotSettings
  1

  2
HP DeskJet 840C/841C/842C/843C
  4

  6

 40
0.0
 41
0.0
 42
0.0
 43
0.0
 44
0.0
 45
0.0
 46
0.0
 47
0.0
 48
0.0
 49
0.0
140
0.0
141
0.0
142
1.0
143
1.0
 70
  1712
 72
     0
 73
     0
 74
     0
  7

 75
     0
147
1.0
148
0.0
149
0.0
100
AcDbLayout
  1
Model
 70
     1
 71
     0
 10
0.0
 20
0.0
 11
12.0
 21
9.0
 12
0.0
 22
0.0
 32
0.0
 14
0.0
 24
0.0
 34
0.0
 15
0.0
 25
0.0
 35
0.0
146
0.0
 13
0.0
 23
0.0
 33
0.0
 16
1.0
 26
0.0
 36
0.0
 17
0.0
 27
1.0
 37
0.0
 76
     0
330
128
331
21D
  0
MATERIAL
  5
222
102
{ACAD_XDICTIONARY
360
376
102
}
102
{ACAD_REACTORS
330
220
102
}
330
220
100
AcDbMaterial
  1
ByBlock
  0
MATERIAL
  5
221
102
{ACAD_XDICTIONARY
360
374
102
}
102
{ACAD_REACTORS
330
220
102
}
330
220
100
AcDbMaterial
  1
ByLayer
  0
MATERIAL
  5
223
102
{ACAD_XDICTIONARY
360
378
102
}
102
{ACAD_REACTORS
330
220
102
}
330
220
100
AcDbMaterial
  1
Global
  0
MLINESTYLE
  5
121
102
{ACAD_REACTORS
330
120
102
}
330
120
100
AcDbMlineStyle
  2
STANDARD
 70
     0
  3

 62
   256
 51
90.0
 52
90.0
 71
     2
 49
0.5
 62
   256
  6
BYLAYER
 49
-0.5
 62
   256
  6
BYLAYER
  0
ACDBPLACEHOLDER
  5
119
102
{ACAD_REACTORS
330
118
102
}
330
118
  0
TABLESTYLE
  5
237
102
{ACAD_XDICTIONARY
360
37A
102
}
102
{ACAD_REACTORS
330
236
102
}
330
236
100
AcDbTableStyle
  3
Standard
 70
     0
 71
     0
 40
0.06
 41
0.06
280
     0
281
     0
  7
STANDARD
140
0.18
170
     2
 62
     0
 63
     7
283
     0
274
    -2
284
     1
 64
     0
275
    -2
285
     1
 65
     0
276
    -2
286
     1
 66
     0
277
    -2
287
     1
 67
     0
278
    -2
288
     1
 68
     0
279
    -2
289
     1
 69
     0
  7
STANDARD
140
0.25
170
     5
 62
     0
 63
     7
283
     0
274
    -2
284
     1
 64
     0
275
    -2
285
     1
 65
     0
276
    -2
286
     1
 66
     0
277
    -2
287
     1
 67
     0
278
    -2
288
     1
 68
     0
279
    -2
289
     1
 69
     0
  7
STANDARD
140
0.18
170
     5
 62
     0
 63
     7
283
     0
274
    -2
284
     1
 64
     0
275
    -2
285
     1
 65
     0
276
    -2
286
     1
 66
     0
277
    -2
287
     1
 67
     0
278
    -2
288
     1
 68
     0
279
    -2
289
     1
 69
     0
  0
VISUALSTYLE
  5
22A
102
{ACAD_REACTORS
330
224
102
}
330
224
100
AcDbVisualStyle
  2
2dWireframe
 70
     4
 71
     0
 72
     2
 73
     0
 90
        0
 40
-0.6
 41
-30.0
 62
     5
 63
     7
 74
     1
 91
        4
 64
     7
 65
   257
 75
     1
175
     1
 42
1.0
 92
        0
 66
   257
 43
1.0
 76
     1
 77
     6
 78
     2
 67
     7
 79
     5
170
     0
171
     0
290
     0
174
     0
 93
        1
 44
0.0
173
     0
291
     0
 45
0.0
1001
ACAD
1000
AcDbSavedByObjectVersion
1070
     0
  0
VISUALSTYLE
  5
22C
102
{ACAD_REACTORS
330
224
102
}
330
224
100
AcDbVisualStyle
  2
3D Hidden
 70
     6
 71
     1
 72
     2
 73
     2
 90
        0
 40
-0.6
 41
-30.0
 62
     5
 63
     7
 74
     2
 91
        2
 64
     7
 65
   257
 75
     2
175
     1
 42
40.0
 92
        0
 66
   257
 43
1.0
 76
     1
 77
     6
 78
     2
 67
     7
 79
     3
170
     0
171
     0
290
     0
174
     0
 93
        1
 44
0.0
173
     0
291
     0
 45
0.0
1001
ACAD
1000
AcDbSavedByObjectVersion
1070
     0
  0
VISUALSTYLE
  5
22B
102
{ACAD_REACTORS
330
224
102
}
330
224
100
AcDbVisualStyle
  2
3dWireframe
 70
     5
 71
     0
 72
     2
 73
     0
 90
        0
 40
-0.6
 41
-30.0
 62
     5
 63
     7
 74
     1
 91
        4
 64
     7
 65
   257
 75
     1
175
     1
 42
1.0
 92
        0
 66
   257
 43
1.0
 76
     1
 77
     6
 78
     2
 67
     7
 79
     5
170
     0
171
     0
290
     0
174
     0
 93
        1
 44
0.0
173
     0
291
     0
 45
0.0
1001
ACAD
1000
AcDbSavedByObjectVersion
1070
     0
  0
VISUALSTYLE
  5
229
102
{ACAD_REACTORS
330
224
102
}
330
224
100
AcDbVisualStyle
  2
Basic
 70
     7
 71
     1
 72
     0
 73
     1
 90
        0
 40
-0.6
 41
-30.0
 62
     5
 63
     7
 74
     0
 91
        4
 64
     7
 65
   257
 75
     1
175
     1
 42
1.0
 92
        8
 66
     7
 43
1.0
 76
     1
 77
     6
 78
     2
 67
     7
 79
     5
170
     0
171
     0
290
     0
174
     0
 93
        1
 44
0.0
173
     0
291
     1
 45
0.0
1001
ACAD
1000
AcDbSavedByObjectVersion
1070
     0
  0
VISUALSTYLE
  5
230
102
{ACAD_REACTORS
330
224
102
}
330
224
100
AcDbVisualStyle
  2
Brighten
 70
    12
 71
     2
 72
     2
 73
     0
 90
        0
 40
-0.6
 41
-30.0
 62
     5
 63
     7
 74
     1
 91
        4
 64
     7
 65
   257
 75
     1
175
     1
 42
1.0
 92
        8
 66
     7
 43
1.0
 76
     1
 77
     6
 78
     2
 67
     7
 79
     5
170
     0
171
     0
290
     0
174
     0
 93
        1
 44
50.0
173
     0
291
     1
 45
0.0
1001
ACAD
1000
AcDbSavedByObjectVersion
1070
     0
  0
VISUALSTYLE
  5
234
102
{ACAD_REACTORS
330
224
102
}
330
224
100
AcDbVisualStyle
  2
ColorChange
 70
    16
 71
     2
 72
     2
 73
     3
 90
        0
 40
-0.6
 41
-30.0
 62
     5
 63
     8
 74
     1
 91
        4
 64
     7
 65
   257
 75
     1
175
     1
 42
1.0
 92
        8
 66
     8
 43
1.0
 76
     1
 77
     6
 78
     2
 67
     7
 79
     5
170
     0
171
     0
290
     0
174
     0
 93
        1
 44
0.0
173
     0
291
     1
 45
0.0
1001
ACAD
1000
AcDbSavedByObjectVersion
1070
     0
  0
VISUALSTYLE
  5
22D
102
{ACAD_REACTORS
330
224
102
}
330
224
100
AcDbVisualStyle
  2
Conceptual
 70
     9
 71
     3
 72
     2
 73
     0
 90
        0
 40
-0.6
 41
-30.0
 62
     5
 63
     7
 74
     2
 91
        2
 64
     7
 65
   257
 75
     1
175
     1
 42
40.0
 92
        8
 66
     7
 43
1.0
 76
     1
 77
     6
 78
     2
 67
     7
 79
     3
170
     0
171
     0
290
     0
174
     0
 93
        1
 44
0.0
173
     0
291
     0
 45
0.0
1001
ACAD
1000
AcDbSavedByObjectVersion
1070
     0
  0
VISUALSTYLE
  5
22F
102
{ACAD_REACTORS
330
224
102
}
330
224
100
AcDbVisualStyle
  2
Dim
 70
    11
 71
     2
 72
     2
 73
     0
 90
        0
 40
-0.6
 41
-30.0
 62
     5
 63
     7
 74
     1
 91
        4
 64
     7
 65
   257
 75
     1
175
     1
 42
1.0
 92
        8
 66
     7
 43
1.0
 76
     1
 77
     6
 78
     2
 67
     7
 79
     5
170
     0
171
     0
290
     0
174
     0
 93
        1
 44
-50.0
173
     0
291
     1
 45
0.0
1001
ACAD
1000
AcDbSavedByObjectVersion
1070
     0
  0
VISUALSTYLE
  5
233
102
{ACAD_REACTORS
330
224
102
}
330
224
100
AcDbVisualStyle
  2
Facepattern
 70
    15
 71
     2
 72
     2
 73
     0
 90
        0
 40
-0.6
 41
-30.0
 62
     5
 63
     7
 74
     1
 91
        4
 64
     7
 65
   257
 75
     1
175
     1
 42
1.0
 92
        8
 66
     7
 43
1.0
 76
     1
 77
     6
 78
     2
 67
     7
 79
     5
170
     0
171
     0
290
     0
174
     0
 93
        1
 44
0.0
173
     0
291
     1
 45
0.0
1001
ACAD
1000
AcDbSavedByObjectVersion
1070
     0
  0
VISUALSTYLE
  5
225
102
{ACAD_REACTORS
330
224
102
}
330
224
100
AcDbVisualStyle
  2
Flat
 70
     0
 71
     2
 72
     1
 73
     1
 90
        2
 40
-0.6
 41
30.0
 62
     5
 63
     7
 74
     0
 91
        4
 64
     7
 65
   257
 75
     1
175
     1
 42
1.0
 92
        8
 66
     7
 43
1.0
 76
     1
 77
     6
 78
     2
 67
     7
 79
     5
170
     0
171
     0
290
     0
174
     0
 93
       13
 44
0.0
173
     0
291
     1
 45
0.0
1001
ACAD
1000
AcDbSavedByObjectVersion
1070
     0
  0
VISUALSTYLE
  5
226
102
{ACAD_REACTORS
330
224
102
}
330
224
100
AcDbVisualStyle
  2
FlatWithEdges
 70
     1
 71
     2
 72
     1
 73
     1
 90
        2
 40
-0.6
 41
30.0
 62
     5
 63
     7
 74
     1
 91
        4
 64
     7
 65
   257
 75
     1
175
     1
 42
1.0
 92
        0
 66
   257
 43
1.0
 76
     1
 77
     6
 78
     2
 67
     7
 79
     5
170
     0
171
     0
290
     0
174
     0
 93
       13
 44
0.0
173
     0
291
     1
 45
0.0
1001
ACAD
1000
AcDbSavedByObjectVersion
1070
     0
  0
VISUALSTYLE
  5
227
102
{ACAD_REACTORS
330
224
102
}
330
224
100
AcDbVisualStyle
  2
Gouraud
 70
     2
 71
     2
 72
     2
 73
     1
 90
        2
 40
-0.6
 41
30.0
 62
     5
 63
     7
 74
     0
 91
        4
 64
     7
 65
   257
 75
     1
175
     1
 42
1.0
 92
        0
 66
     7
 43
1.0
 76
     1
 77
     6
 78
     2
 67
     7
 79
     5
170
     0
171
     0
290
     0
174
     0
 93
       13
 44
0.0
173
     0
291
     1
 45
0.0
1001
ACAD
1000
AcDbSavedByObjectVersion
1070
     0
  0
VISUALSTYLE
  5
228
102
{ACAD_REACTORS
330
224
102
}
330
224
100
AcDbVisualStyle
  2
GouraudWithEdges
 70
     3
 71
     2
 72
     2
 73
     1
 90
        2
 40
-0.6
 41
30.0
 62
     5
 63
     7
 74
     1
 91
        4
 64
     7
 65
   257
 75
     1
175
     1
 42
1.0
 92
        0
 66
   257
 43
1.0
 76
     1
 77
     6
 78
     2
 67
     7
 79
     5
170
     0
171
     0
290
     0
174
     0
 93
       13
 44
0.0
173
     0
291
     1
 45
0.0
1001
ACAD
1000
AcDbSavedByObjectVersion
1070
     0
  0
VISUALSTYLE
  5
232
102
{ACAD_REACTORS
330
224
102
}
330
224
100
AcDbVisualStyle
  2
Linepattern
 70
    14
 71
     2
 72
     2
 73
     0
 90
        0
 40
-0.6
 41
-30.0
 62
     5
 63
     7
 74
     1
 91
        4
 64
     7
 65
   257
 75
     7
175
     7
 42
1.0
 92
        8
 66
     7
 43
1.0
 76
     1
 77
     6
 78
     2
 67
     7
 79
     5
170
     0
171
     0
290
     0
174
     0
 93
        1
 44
0.0
173
     0
291
     1
 45
0.0
1001
ACAD
1000
AcDbSavedByObjectVersion
1070
     0
  0
VISUALSTYLE
  5
22E
102
{ACAD_REACTORS
330
224
102
}
330
224
100
AcDbVisualStyle
  2
Realistic
 70
     8
 71
     2
 72
     2
 73
     0
 90
        0
 40
-0.6
 41
-30.0
 62
     5
 63
     7
 74
     1
 91
        0
 64
     7
 65
   257
 75
     1
175
     1
 42
1.0
 92
        8
 66
     8
 43
1.0
 76
     1
 77
     6
 78
     2
 67
     7
 79
     5
170
     0
171
     0
290
     0
174
     0
 93
       13
 44
0.0
173
     0
291
     0
 45
0.0
1001
ACAD
1000
AcDbSavedByObjectVersion
1070
     0
  0
VISUALSTYLE
  5
231
102
{ACAD_REACTORS
330
224
102
}
330
224
100
AcDbVisualStyle
  2
Thicken
 70
    13
 71
     2
 72
     2
 73
     0
 90
        0
 40
-0.6
 41
-30.0
 62
     5
 63
     7
 74
     1
 91
        4
 64
     7
 65
   257
 75
     1
175
     1
 42
1.0
 92
       12
 66
     7
 43
1.0
 76
     1
 77
     6
 78
     2
 67
     7
 79
     5
170
     0
171
     0
290
     0
174
     0
 93
        1
 44
0.0
173
     0
291
     1
 45
0.0
1001
ACAD
1000
AcDbSavedByObjectVersion
1070
     0
  0
DICTIONARYVAR
  5
27A
102
{ACAD_REACTORS
330
279
102
}
330
279
100
DictionaryVariables
280
     0
  1
STANDARD
  0
DICTIONARYVAR
  5
36E
102
{ACAD_REACTORS
330
279
102
}
330
279
100
DictionaryVariables
280
     0
  1
1
  0
DICTIONARYVAR
  5
36D
102
{ACAD_REACTORS
330
279
102
}
330
279
100
DictionaryVariables
280
     0
  1
0
  0
DICTIONARYVAR
  5
36C
102
{ACAD_REACTORS
330
279
102
}
330
279
100
DictionaryVariables
280
     0
  1
127
  0
DICTIONARY
  5
370
330
127
100
AcDbDictionary
280
     1
281
     1
  3
ACAD_XREC_ROUNDTRIP
360
371
  0
DICTIONARY
  5
372
330
12B
100
AcDbDictionary
280
     1
281
     1
  3
ACAD_XREC_ROUNDTRIP
360
373
  0
DICTIONARY
  5
376
330
222
100
AcDbDictionary
280
     1
281
     1
  3
ACAD_XREC_ROUNDTRIP
360
377
  0
DICTIONARY
  5
374
330
221
100
AcDbDictionary
280
     1
281
     1
  3
ACAD_XREC_ROUNDTRIP
360
375
  0
DICTIONARY
  5
378
330
223
100
AcDbDictionary
280
     1
281
     1
  3
ACAD_XREC_ROUNDTRIP
360
379
  0
DICTIONARY
  5
37A
330
237
100
AcDbDictionary
280
     1
281
     1
  3
ACAD_XREC_ROUNDTRIP
360
37B
  0
XRECORD
  5
371
102
{ACAD_REACTORS
330
370
102
}
330
370
100
AcDbXrecord
280
     1
102
SHADEPLOT
 70
     0
102
SHADEPLOTRESLEVEL
 70
     2
102
SHADEPLOTCUSTOMDPI
 70
   300
  0
XRECORD
  5
373
102
{ACAD_REACTORS
330
372
102
}
330
372
100
AcDbXrecord
280
     1
102
SHADEPLOT
 70
     0
102
SHADEPLOTRESLEVEL
 70
     2
102
SHADEPLOTCUSTOMDPI
 70
   300
  0
XRECORD
  5
377
102
{ACAD_REACTORS
330
376
102
}
330
376
100
AcDbXrecord
280
     1
102
MATERIAL
148
0.0
149
0.0
149
0.0
 93
        0
 94
       63
282
     0
 72
     1
 77
     1
171
     1
175
     1
179
     1
273
     0
  0
XRECORD
  5
375
102
{ACAD_REACTORS
330
374
102
}
330
374
100
AcDbXrecord
280
     1
102
MATERIAL
148
0.0
149
0.0
149
0.0
 93
        0
 94
       63
282
     0
 72
     1
 77
     1
171
     1
175
     1
179
     1
273
     0
  0
XRECORD
  5
379
102
{ACAD_REACTORS
330
378
102
}
330
378
100
AcDbXrecord
280
     1
102
MATERIAL
148
0.0
149
0.0
149
0.0
 93
        0
 94
       63
282
     0
 72
     1
 77
     1
171
     1
175
     1
179
     1
273
     0
  0
XRECORD
  5
37B
102
{ACAD_REACTORS
330
37A
102
}
330
37A
100
AcDbXrecord
280
     1
102
ACAD_ROUNDTRIP_PRE2007_TABLESTYLE
 90
      512
 91
        0
  1

 92
      512
 93
        0
  2

 94
      512
 95
        0
  3

  0
ENDSEC
  0
EOF
