  0
SECTION
  2
HEADER
  9
$ACADVER
  1
AC1015
  9
$ACADMAINTVER
 70
     6
  9
$DWGCODEPAGE
  3
ANSI_1252
  9
$INSBASE
 10
0.0
 20
0.0
 30
0.0
  9
$EXTMIN
 10
447.5046498028434
 20
175.3321366006152
 30
0.0
  9
$EXTMAX
 10
1278.675
 20
1041.734214613927
 30
0.0
  9
$LIMMIN
 10
0.0
 20
0.0
  9
$LIMMAX
 10
12.0
 20
9.0
  9
$ORTHOMODE
 70
     1
  9
$REGENMODE
 70
     1
  9
$FILLMODE
 70
     1
  9
$QTEXTMODE
 70
     0
  9
$MIRRTEXT
 70
     1
  9
$LTSCALE
 40
1.0
  9
$ATTMODE
 70
     1
  9
$TEXTSIZE
 40
0.0
  9
$TRACEWID
 40
0.05
  9
$TEXTSTYLE
  7
STANDARD
  9
$CLAYER
  8
0
  9
$CELTYPE
  6
CONTINUOUS
  9
$CECOLOR
 62
   256
  9
$CELTSCALE
 40
1.0
  9
$DISPSILH
 70
     0
  9
$DIMSCALE
 40
1.0
  9
$DIMASZ
 40
0.18
  9
$DIMEXO
 40
0.0625
  9
$DIMDLI
 40
0.38
  9
$DIMRND
 40
0.0
  9
$DIMDLE
 40
0.0
  9
$DIMEXE
 40
0.18
  9
$DIMTP
 40
0.0
  9
$DIMTM
 40
0.0
  9
$DIMTXT
 40
0.18
  9
$DIMCEN
 40
0.09
  9
$DIMTSZ
 40
0.0
  9
$DIMTOL
 70
     0
  9
$DIMLIM
 70
     0
  9
$DIMTIH
 70
     1
  9
$DIMTOH
 70
     1
  9
$DIMSE1
 70
     0
  9
$DIMSE2
 70
     0
  9
$DIMTAD
 70
     0
  9
$DIMZIN
 70
     0
  9
$DIMBLK
  1

  9
$DIMASO
 70
     1
  9
$DIMSHO
 70
     1
  9
$DIMPOST
  1

  9
$DIMAPOST
  1

  9
$DIMALT
 70
     0
  9
$DIMALTD
 70
     2
  9
$DIMALTF
 40
25.4
  9
$DIMLFAC
 40
1.0
  9
$DIMTOFL
 70
     0
  9
$DIMTVP
 40
0.0
  9
$DIMTIX
 70
     0
  9
$DIMSOXD
 70
     0
  9
$DIMSAH
 70
     0
  9
$DIMBLK1
  1

  9
$DIMBLK2
  1

  9
$DIMSTYLE
  2
STANDARD
  9
$DIMCLRD
 70
     0
  9
$DIMCLRE
 70
     0
  9
$DIMCLRT
 70
     0
  9
$DIMTFAC
 40
1.0
  9
$DIMGAP
 40
0.09
  9
$DIMJUST
 70
     0
  9
$DIMSD1
 70
     0
  9
$DIMSD2
 70
     0
  9
$DIMTOLJ
 70
     1
  9
$DIMTZIN
 70
     0
  9
$DIMALTZ
 70
     0
  9
$DIMALTTZ
 70
     0
  9
$DIMUPT
 70
     0
  9
$DIMDEC
 70
     4
  9
$DIMTDEC
 70
     4
  9
$DIMALTU
 70
     2
  9
$DIMALTTD
 70
     2
  9
$DIMTXSTY
  7
STANDARD
  9
$DIMAUNIT
 70
     0
  9
$DIMADEC
 70
     0
  9
$DIMALTRND
 40
0.0
  9
$DIMAZIN
 70
     0
  9
$DIMDSEP
 70
    46
  9
$DIMATFIT
 70
     3
  9
$DIMFRAC
 70
     0
  9
$DIMLDRBLK
  1

  9
$DIMLUNIT
 70
     2
  9
$DIMLWD
 70
    -2
  9
$DIMLWE
 70
    -2
  9
$DIMTMOVE
 70
     0
  9
$LUNITS
 70
     2
  9
$LUPREC
 70
     4
  9
$SKETCHINC
 40
0.1
  9
$FILLETRAD
 40
0.0
  9
$AUNITS
 70
     0
  9
$AUPREC
 70
     0
  9
$MENU
  1
acad
  9
$ELEVATION
 40
0.0
  9
$PELEVATION
 40
0.0
  9
$THICKNESS
 40
0.0
  9
$LIMCHECK
 70
     0
  9
$CHAMFERA
 40
0.0
  9
$CHAMFERB
 40
0.0
  9
$CHAMFERC
 40
0.0
  9
$CHAMFERD
 40
0.0
  9
$SKPOLY
 70
     0
  9
$TDCREATE
 40
2453238.668171296
  9
$TDUCREATE
 40
2453238.668171296
  9
$TDUPDATE
 40
2457364.527425925
  9
$TDUUPDATE
 40
2457364.527425925
  9
$TDINDWG
 40
0.0715438194
  9
$TDUSRTIMER
 40
0.0715434606
  9
$USRTIMER
 70
     1
  9
$ANGBASE
 50
0.0
  9
$ANGDIR
 70
     0
  9
$PDMODE
 70
     0
  9
$PDSIZE
 40
0.0
  9
$PLINEWID
 40
0.0
  9
$SPLFRAME
 70
     0
  9
$SPLINETYPE
 70
     6
  9
$SPLINESEGS
 70
    10
  9
$HANDSEED
  5
270
  9
$SURFTAB1
 70
     6
  9
$SURFTAB2
 70
     6
  9
$SURFTYPE
 70
     6
  9
$SURFU
 70
     6
  9
$SURFV
 70
     6
  9
$UCSBASE
  2

  9
$UCSNAME
  2

  9
$UCSORG
 10
0.0
 20
0.0
 30
0.0
  9
$UCSXDIR
 10
1.0
 20
0.0
 30
0.0
  9
$UCSYDIR
 10
0.0
 20
1.0
 30
0.0
  9
$UCSORTHOREF
  2

  9
$UCSORTHOVIEW
 70
     0
  9
$UCSORGTOP
 10
0.0
 20
0.0
 30
0.0
  9
$UCSORGBOTTOM
 10
0.0
 20
0.0
 30
0.0
  9
$UCSORGLEFT
 10
0.0
 20
0.0
 30
0.0
  9
$UCSORGRIGHT
 10
0.0
 20
0.0
 30
0.0
  9
$UCSORGFRONT
 10
0.0
 20
0.0
 30
0.0
  9
$UCSORGBACK
 10
0.0
 20
0.0
 30
0.0
  9
$PUCSBASE
  2

  9
$PUCSNAME
  2

  9
$PUCSORG
 10
0.0
 20
0.0
 30
0.0
  9
$PUCSXDIR
 10
1.0
 20
0.0
 30
0.0
  9
$PUCSYDIR
 10
0.0
 20
1.0
 30
0.0
  9
$PUCSORTHOREF
  2

  9
$PUCSORTHOVIEW
 70
     0
  9
$PUCSORGTOP
 10
0.0
 20
0.0
 30
0.0
  9
$PUCSORGBOTTOM
 10
0.0
 20
0.0
 30
0.0
  9
$PUCSORGLEFT
 10
0.0
 20
0.0
 30
0.0
  9
$PUCSORGRIGHT
 10
0.0
 20
0.0
 30
0.0
  9
$PUCSORGFRONT
 10
0.0
 20
0.0
 30
0.0
  9
$PUCSORGBACK
 10
0.0
 20
0.0
 30
0.0
  9
$USERI1
 70
     0
  9
$USERI2
 70
     0
  9
$USERI3
 70
     0
  9
$USERI4
 70
     0
  9
$USERI5
 70
     0
  9
$USERR1
 40
0.0
  9
$USERR2
 40
0.0
  9
$USERR3
 40
0.0
  9
$USERR4
 40
0.0
  9
$USERR5
 40
0.0
  9
$WORLDVIEW
 70
     1
  9
$SHADEDGE
 70
     3
  9
$SHADEDIF
 70
    70
  9
$TILEMODE
 70
     1
  9
$MAXACTVP
 70
    16
  9
$PINSBASE
 10
0.0
 20
0.0
 30
0.0
  9
$PLIMCHECK
 70
     0
  9
$PEXTMIN
 10
-1.000000000000000E+20
 20
-1.000000000000000E+20
 30
-1.000000000000000E+20
  9
$PEXTMAX
 10
-1.000000000000000E+20
 20
-1.000000000000000E+20
 30
-1.000000000000000E+20
  9
$PLIMMIN
 10
0.0
 20
0.0
  9
$PLIMMAX
 10
12.0
 20
9.0
  9
$UNITMODE
 70
     0
  9
$VISRETAIN
 70
     0
  9
$PLINEGEN
 70
     1
  9
$PSLTSCALE
 70
     0
  9
$TREEDEPTH
 70
  3020
  9
$CMLSTYLE
  2
Standard
  9
$CMLJUST
 70
     0
  9
$CMLSCALE
 40
1.0
  9
$PROXYGRAPHICS
 70
     1
  9
$MEASUREMENT
 70
     0
  9
$CELWEIGHT
370
    -1
  9
$ENDCAPS
280
     0
  9
$JOINSTYLE
280
     0
  9
$LWDISPLAY
290
     0
  9
$INSUNITS
 70
     0
  9
$HYPERLINKBASE
  1

  9
$STYLESHEET
  1

  9
$XEDIT
290
     1
  9
$CEPSNTYPE
380
     0
  9
$PSTYLEMODE
290
     1
  9
$FINGERPRINTGUID
  2
{476A6547-17B7-455E-A734-C7FE4B8E7BD5}
  9
$VERSIONGUID
  2
{E5DAD55F-CB44-4EA8-96C3-B48BCEDDF6F1}
  9
$EXTNAMES
290
     1
  9
$PSVPSCALE
 40
0.0
  9
$OLESTARTUP
290
     0
  0
ENDSEC
  0
SECTION
  2
CLASSES
  0
CLASS
  1
ACDBDICTIONARYWDFLT
  2
AcDbDictionaryWithDefault
  3
AutoCAD 2000
 90
        0
280
     0
281
     0
  0
CLASS
  1
ACDBPLACEHOLDER
  2
AcDbPlaceHolder
  3
AutoCAD 2000
 90
        0
280
     0
281
     0
  0
CLASS
  1
LAYOUT
  2
AcDbLayout
  3
AutoCAD 2000
 90
        0
280
     0
281
     0
  0
CLASS
  1
MATERIAL
  2
AcDbMaterial
  3
ObjectDBX Classes
 90
     1024
280
     0
281
     0
  0
CLASS
  1
VISUALSTYLE
  2
AcDbVisualStyle
  3
ObjectDBX Classes
 90
     4095
280
     0
281
     0
  0
CLASS
  1
TABLESTYLE
  2
AcDbTableStyle
  3
ObjectDBX Classes
 90
     4095
280
     0
281
     0
  0
CLASS
  1
SORTENTSTABLE
  2
AcDbSortentsTable
  3
AutoCAD 2000
 90
        0
280
     0
281
     0
  0
CLASS
  1
DICTIONARYVAR
  2
AcDbDictionaryVar
  3
AutoCAD 2000
 90
        0
280
     0
281
     0
  0
ENDSEC
  0
SECTION
  2
TABLES
  0
TABLE
  2
VPORT
  5
C8
330
0
100
AcDbSymbolTable
 70
     7
  0
VPORT
  5
26F
330
C8
100
AcDbSymbolTableRecord
100
AcDbViewportTableRecord
  2
*Active
 70
     0
 10
0.0
 20
0.0
 11
1.0
 21
1.0
 12
33.71300577614454
 22
-15.52023478517776
 13
0.0
 23
0.0
 14
0.0
 24
0.0
 15
0.0
 25
0.0
 16
0.0
 26
0.0
 36
1.0
 17
891.875349
 27
559.6499999999998
 37
0.0
 40
729.9796517481858
 41
2.220101781170483
 42
50.0
 43
6.3125
 44
0.0
 50
0.0
 51
0.0
 71
     0
 72
   100
 73
     1
 74
     0
 75
     0
 76
     0
 77
     0
 78
     0
281
     0
 65
     0
110
0.0
120
0.0
130
0.0
111
1.0
121
0.0
131
0.0
112
0.0
122
1.0
132
0.0
 79
     0
146
0.0
  0
ENDTAB
  0
TABLE
  2
LTYPE
  5
C5
330
0
100
AcDbSymbolTable
 70
     7
  0
LTYPE
  5
D3
330
C5
100
AcDbSymbolTableRecord
100
AcDbLinetypeTableRecord
  2
ByBlock
 70
     0
  3

 72
    65
 73
     0
 40
0.0
  0
LTYPE
  5
D4
330
C5
100
AcDbSymbolTableRecord
100
AcDbLinetypeTableRecord
  2
ByLayer
 70
     0
  3

 72
    65
 73
     0
 40
0.0
  0
LTYPE
  5
D5
330
C5
100
AcDbSymbolTableRecord
100
AcDbLinetypeTableRecord
  2
CONTINUOUS
 70
     0
  3
Solid line
 72
    65
 73
     0
 40
0.0
  0
LTYPE
  5
E3
330
C5
100
AcDbSymbolTableRecord
100
AcDbLinetypeTableRecord
  2
DOT
 70
     0
  3
. . . . . . . . . . . . . . . . . . . . . . . . . . . . . . . . .
 72
    65
 73
     2
 40
0.25
 49
0.0
 74
     0
 49
-0.25
 74
     0
  0
LTYPE
  5
E4
330
C5
100
AcDbSymbolTableRecord
100
AcDbLinetypeTableRecord
  2
HIDDEN
 70
     0
  3
__ __ __ __ __ __ __ __ __ __ __ __ __ __ __ __ __ __ __ __ __ 
 72
    65
 73
     2
 40
0.375
 49
0.25
 74
     0
 49
-0.125
 74
     0
  0
LTYPE
  5
E5
330
C5
100
AcDbSymbolTableRecord
100
AcDbLinetypeTableRecord
  2
DASHED
 70
     0
  3
__ __ __ __ __ __ __ __ __ __ __ __ __ __ __ __ __ __ __ __ __
 72
    65
 73
     2
 40
0.75
 49
0.5
 74
     0
 49
-0.25
 74
     0
  0
LTYPE
  5
E6
330
C5
100
AcDbSymbolTableRecord
100
AcDbLinetypeTableRecord
  2
DASHDOT
 70
     0
  3
__ . __ . __ . __ . __ . __ . __ . __ . __ . __ . __ . __ . _
 72
    65
 73
     4
 40
1.0
 49
0.5
 74
     0
 49
-0.25
 74
     0
 49
0.0
 74
     0
 49
-0.25
 74
     0
  0
LTYPE
  5
E7
330
C5
100
AcDbSymbolTableRecord
100
AcDbLinetypeTableRecord
  2
DIVIDE
 70
     0
  3
____ . . ____ . . ____ . . ____ . . ____ . . ____ . . ____ . .
 72
    65
 73
     6
 40
1.25
 49
0.5
 74
     0
 49
-0.25
 74
     0
 49
0.0
 74
     0
 49
-0.25
 74
     0
 49
0.0
 74
     0
 49
-0.25
 74
     0
  0
LTYPE
  5
E8
330
C5
100
AcDbSymbolTableRecord
100
AcDbLinetypeTableRecord
  2
CENTER
 70
     0
  3
____ _ ____ _ ____ _ ____ _ ____ _ ____ _ ____ _ ____ _ ____ _
 72
    65
 73
     4
 40
2.0
 49
1.25
 74
     0
 49
-0.25
 74
     0
 49
0.25
 74
     0
 49
-0.25
 74
     0
  0
ENDTAB
  0
TABLE
  2
LAYER
  5
C2
330
0
100
AcDbSymbolTable
 70
     4
  0
LAYER
  5
D0
330
C2
100
AcDbSymbolTableRecord
100
AcDbLayerTableRecord
  2
0
 70
     0
 62
     7
  6
CONTINUOUS
370
    -3
390
CF
  0
LAYER
  5
E9
330
C2
100
AcDbSymbolTableRecord
100
AcDbLayerTableRecord
  2
CONSTRUCTION_CLASS
 70
     0
 62
     7
  6
CONTINUOUS
370
    -3
390
CF
  0
LAYER
  5
EA
330
C2
100
AcDbSymbolTableRecord
100
AcDbLayerTableRecord
  2
PATTERN_CLASS
 70
     0
 62
     7
  6
CONTINUOUS
370
    -3
390
CF
  0
LAYER
  5
EB
330
C2
100
AcDbSymbolTableRecord
100
AcDbLayerTableRecord
  2
1
 70
     0
 62
     7
  6
CONTINUOUS
370
    -3
390
CF
  0
ENDTAB
  0
TABLE
  2
STYLE
  5
C3
330
0
100
AcDbSymbolTable
 70
     1
  0
STYLE
  5
D1
330
C3
100
AcDbSymbolTableRecord
100
AcDbTextStyleTableRecord
  2
STANDARD
 70
     0
 40
0.0
 41
1.0
 50
0.0
 71
     0
 42
0.0
  3
txt
  4

  0
ENDTAB
  0
TABLE
  2
VIEW
  5
C6
330
0
100
AcDbSymbolTable
 70
     0
  0
ENDTAB
  0
TABLE
  2
UCS
  5
C7
330
0
100
AcDbSymbolTable
 70
     0
  0
ENDTAB
  0
TABLE
  2
APPID
  5
C9
330
0
100
AcDbSymbolTable
 70
     1
  0
APPID
  5
D2
330
C9
100
AcDbSymbolTableRecord
100
AcDbRegAppTableRecord
  2
ACAD
 70
     0
  0
ENDTAB
  0
TABLE
  2
DIMSTYLE
  5
CA
330
0
100
AcDbSymbolTable
 70
     1
100
AcDbDimStyleTable
 71
     0
  0
DIMSTYLE
105
EC
330
CA
100
AcDbSymbolTableRecord
100
AcDbDimStyleTableRecord
  2
STANDARD
 70
     0
279
     2
340
D1
  0
ENDTAB
  0
TABLE
  2
BLOCK_RECORD
  5
C1
330
0
100
AcDbSymbolTable
 70
     0
  0
BLOCK_RECORD
  5
DE
102
{ACAD_XDICTIONARY
360
1B0
102
}
330
C1
100
AcDbSymbolTableRecord
100
AcDbBlockTableRecord
  2
*Model_Space
340
E1
  0
BLOCK_RECORD
  5
DA
330
C1
100
AcDbSymbolTableRecord
100
AcDbBlockTableRecord
  2
*Paper_Space
340
DD
  0
ENDTAB
  0
ENDSEC
  0
SECTION
  2
BLOCKS
  0
BLOCK
  5
DF
330
DE
100
AcDbEntity
  8
0
100
AcDbBlockBegin
  2
*Model_Space
 70
     0
 10
0.0
 20
0.0
 30
0.0
  3
*Model_Space
  1

  0
ENDBLK
  5
E0
330
DE
100
AcDbEntity
  8
0
100
AcDbBlockEnd
  0
BLOCK
  5
DB
330
DA
100
AcDbEntity
 67
     1
  8
0
100
AcDbBlockBegin
  2
*Paper_Space
 70
     0
 10
0.0
 20
0.0
 30
0.0
  3
*Paper_Space
  1

  0
ENDBLK
  5
DC
330
DA
100
AcDbEntity
 67
     1
  8
0
100
AcDbBlockEnd
  0
ENDSEC
  0
SECTION
  2
ENTITIES
  0
LINE
  5
F4
330
DE
100
AcDbEntity
  8
1
  6
Continuous
 62
     4
100
AcDbLine
 10
995.5937500000002
 20
640.8437499999998
 30
0.0
 11
840.9500000000003
 21
640.8437499999998
 31
0.0
  0
LINE
  5
144
330
DE
100
AcDbEntity
  8
1
  6
Continuous
 62
     4
100
AcDbLine
 10
740.95
 20
640.8437499999998
 30
0.0
 11
840.9500000000003
 21
640.8437499999998
 31
0.0
  0
LINE
  5
15D
330
DE
100
AcDbEntity
  8
1
  6
Continuous
 62
     4
100
AcDbLine
 10
829.1187499999999
 20
907.7312500000001
 30
0.0
 11
829.1187499999999
 21
814.325
 31
0.0
  0
LINE
  5
15E
330
DE
100
AcDbEntity
  8
1
  6
Continuous
 62
     4
100
AcDbLine
 10
829.1187499999999
 20
465.7625
 30
0.0
 11
829.1187499999999
 21
372.3562499999998
 31
0.0
  0
LINE
  5
15F
330
DE
100
AcDbEntity
  8
1
  6
Continuous
 62
     4
100
AcDbLine
 10
829.1187499999999
 20
907.7312500000001
 30
0.0
 11
653.7
 21
907.7312500000001
 31
0.0
  0
LINE
  5
160
330
DE
100
AcDbEntity
  8
1
  6
Continuous
 62
     4
100
AcDbLine
 10
829.1187499999999
 20
372.3562499999998
 30
0.0
 11
655.9750000000001
 21
372.3562499999998
 31
0.0
  0
LINE
  5
161
330
DE
100
AcDbEntity
  8
1
  6
Continuous
 62
     4
100
AcDbLine
 10
740.2687499999997
 20
766.48125
 30
0.0
 11
653.7
 21
766.48125
 31
0.0
  0
LINE
  5
162
330
DE
100
AcDbEntity
  8
1
  6
Continuous
 62
     4
100
AcDbLine
 10
740.2687499999997
 20
515.88125
 30
0.0
 11
649.1437499999997
 21
515.88125
 31
0.0
  0
LINE
  5
163
330
DE
100
AcDbEntity
  8
1
  6
Continuous
 62
     4
100
AcDbLine
 10
995.5937500000002
 20
730.84375
 30
0.0
 11
1234.78125
 21
730.84375
 31
0.0
  0
LINE
  5
164
330
DE
100
AcDbEntity
  8
1
  6
Continuous
 62
     4
100
AcDbLine
 10
995.5937500000002
 20
550.84375
 30
0.0
 11
1234.78125
 21
550.84375
 31
0.0
  0
LINE
  5
165
330
DE
100
AcDbEntity
  8
1
  6
Continuous
 62
     4
100
AcDbLine
 10
653.7
 20
907.7312500000001
 30
0.0
 11
637.7500000000002
 21
823.4375
 31
0.0
  0
LINE
  5
166
330
DE
100
AcDbEntity
  8
1
  6
Continuous
 62
     4
100
AcDbLine
 10
637.7500000000002
 20
823.4375
 30
0.0
 11
658.2562500000001
 21
802.9374999999996
 31
0.0
  0
LINE
  5
167
330
DE
100
AcDbEntity
  8
1
  6
Continuous
 62
     4
100
AcDbLine
 10
658.2562500000001
 20
802.9374999999996
 30
0.0
 11
646.8624999999997
 21
750.5375
 31
0.0
  0
LINE
  5
168
330
DE
100
AcDbEntity
  8
1
  6
Continuous
 62
     4
100
AcDbLine
 10
646.8624999999997
 20
750.5375
 30
0.0
 11
676.48125
 21
661.6875
 31
0.0
  0
LINE
  5
169
330
DE
100
AcDbEntity
  8
1
  6
Continuous
 62
     4
100
AcDbLine
 10
676.48125
 20
661.6875
 30
0.0
 11
678.7562500000001
 21
625.2374999999997
 31
0.0
  0
LINE
  5
16A
330
DE
100
AcDbEntity
  8
1
  6
Continuous
 62
     4
100
AcDbLine
 10
678.7562500000001
 20
625.2374999999997
 30
0.0
 11
671.9249999999997
 21
579.6749999999997
 31
0.0
  0
LINE
  5
16B
330
DE
100
AcDbEntity
  8
1
  6
Continuous
 62
     4
100
AcDbLine
 10
671.9249999999997
 20
579.6749999999997
 30
0.0
 11
646.8624999999997
 21
515.88125
 31
0.0
  0
LINE
  5
16C
330
DE
100
AcDbEntity
  8
1
  6
Continuous
 62
     4
100
AcDbLine
 10
646.8624999999997
 20
515.88125
 30
0.0
 11
644.5875000000001
 21
442.9812499999998
 31
0.0
  0
LINE
  5
16D
330
DE
100
AcDbEntity
  8
1
  6
Continuous
 62
     4
100
AcDbLine
 10
644.5875000000001
 20
442.9812499999998
 30
0.0
 11
658.2562500000001
 21
401.975
 31
0.0
  0
LINE
  5
16E
330
DE
100
AcDbEntity
  8
1
  6
Continuous
 62
     4
100
AcDbLine
 10
658.2562500000001
 20
401.975
 30
0.0
 11
644.5875000000001
 21
397.4187499999998
 31
0.0
  0
LINE
  5
16F
330
DE
100
AcDbEntity
  8
1
  6
Continuous
 62
     4
100
AcDbLine
 10
644.5875000000001
 20
397.4187499999998
 30
0.0
 11
655.9750000000001
 21
372.3562499999998
 31
0.0
  0
LINE
  5
170
330
DE
100
AcDbEntity
  8
1
  6
Continuous
 62
     4
100
AcDbLine
 10
1234.78125
 20
730.84375
 30
0.0
 11
1246.175
 21
702.69375
 31
0.0
  0
LINE
  5
171
330
DE
100
AcDbEntity
  8
1
  6
Continuous
 62
     4
100
AcDbLine
 10
1246.175
 20
702.69375
 30
0.0
 11
1246.175
 21
675.3562500000001
 31
0.0
  0
LINE
  5
172
330
DE
100
AcDbEntity
  8
1
  6
Continuous
 62
     4
100
AcDbLine
 10
1246.175
 20
675.3562500000001
 30
0.0
 11
1227.95
 21
648.0187499999997
 31
0.0
  0
LINE
  5
173
330
DE
100
AcDbEntity
  8
1
  6
Continuous
 62
     4
100
AcDbLine
 10
1227.95
 20
648.0187499999997
 30
0.0
 11
1246.175
 21
616.1249999999999
 31
0.0
  0
LINE
  5
174
330
DE
100
AcDbEntity
  8
1
  6
Continuous
 62
     4
100
AcDbLine
 10
1246.175
 20
616.1249999999999
 30
0.0
 11
1202.8875
 21
613.84375
 31
0.0
  0
LINE
  5
175
330
DE
100
AcDbEntity
  8
1
  6
Continuous
 62
     4
100
AcDbLine
 10
1202.8875
 20
613.84375
 30
0.0
 11
1241.61875
 21
602.45625
 31
0.0
  0
LINE
  5
176
330
DE
100
AcDbEntity
  8
1
  6
Continuous
 62
     4
100
AcDbLine
 10
1241.61875
 20
602.45625
 30
0.0
 11
1232.50625
 21
572.8374999999997
 31
0.0
  0
LINE
  5
177
330
DE
100
AcDbEntity
  8
1
  6
Continuous
 62
     4
100
AcDbLine
 10
1232.50625
 20
572.8374999999997
 30
0.0
 11
1234.78125
 21
550.84375
 31
0.0
  0
LINE
  5
179
330
DE
100
AcDbEntity
  8
1
  6
Continuous
 62
     4
100
AcDbLine
 10
925.5937499999999
 20
713.3624999999997
 30
0.0
 11
1241.85625
 21
713.3624999999997
 31
0.0
  0
LINE
  5
17B
330
DE
100
AcDbEntity
  8
1
  6
Continuous
 62
     4
100
AcDbLine
 10
925.5937499999999
 20
569.725
 30
0.0
 11
1232.83125
 21
569.725
 31
0.0
  0
LINE
  5
17C
330
DE
100
AcDbEntity
  8
1
  6
Continuous
 62
     4
100
AcDbLine
 10
925.5937499999999
 20
730.84375
 30
0.0
 11
925.5937499999999
 21
550.84375
 31
0.0
  0
LINE
  5
17D
330
DE
100
AcDbEntity
  8
1
  6
Continuous
 62
     4
100
AcDbLine
 10
985.5937500000003
 20
730.84375
 30
0.0
 11
995.5937500000002
 21
730.84375
 31
0.0
  0
LINE
  5
17E
330
DE
100
AcDbEntity
  8
1
  6
Continuous
 62
     4
100
AcDbLine
 10
985.5937500000003
 20
550.84375
 30
0.0
 11
995.5937500000002
 21
550.84375
 31
0.0
  0
LINE
  5
17F
330
DE
100
AcDbEntity
  8
1
  6
Continuous
 62
     4
100
AcDbLine
 10
829.1187499999999
 20
861.03125
 30
0.0
 11
874.3000000000003
 21
815.8437499999999
 31
0.0
  0
LINE
  5
180
330
DE
100
AcDbEntity
  8
1
  6
Continuous
 62
     4
100
AcDbLine
 10
995.5937500000002
 20
765.8437499999997
 30
0.0
 11
1030.587499999999
 21
730.84375
 31
0.0
  0
LINE
  5
181
330
DE
100
AcDbEntity
  8
1
  6
Continuous
 62
     4
100
AcDbLine
 10
995.5937500000002
 20
515.8437499999998
 30
0.0
 11
1030.599999999999
 21
550.84375
 31
0.0
  0
LINE
  5
182
330
DE
100
AcDbEntity
  8
1
  6
Continuous
 62
     4
100
AcDbLine
 10
829.1187499999999
 20
419.0562499999998
 30
0.0
 11
875.9125
 21
465.8437499999998
 31
0.0
  0
LINE
  5
1AD
330
DE
100
AcDbEntity
  8
0
  6
Continuous
 62
     4
100
AcDbLine
 10
740.95
 20
795.6537834861769
 30
0.0
 11
761.1399665138231
 21
815.8437499999996
 31
0.0
1001
ACAD
1010
0.0
1020
0.0
1030
0.0
  0
LINE
  5
1AE
330
DE
100
AcDbEntity
  8
0
  6
Continuous
 62
     4
100
AcDbLine
 10
740.95
 20
785.0471817683783
 30
0.0
 11
771.7465682316217
 21
815.8437499999999
 31
0.0
1001
ACAD
1010
0.0
1020
0.0
1030
0.0
  0
LINE
  5
1B2
330
DE
100
AcDbEntity
  8
0
  6
Continuous
 62
     4
100
AcDbLine
 10
740.9500000000003
 20
774.44058005058
 30
0.0
 11
782.3531699494199
 21
815.8437499999999
 31
0.0
1001
ACAD
1010
0.0
1020
0.0
1030
0.0
  0
LINE
  5
1B3
330
DE
100
AcDbEntity
  8
0
  6
Continuous
 62
     4
100
AcDbLine
 10
740.9500000000003
 20
763.8339783327815
 30
0.0
 11
792.9597716672183
 21
815.8437499999999
 31
0.0
1001
ACAD
1010
0.0
1020
0.0
1030
0.0
  0
LINE
  5
1B4
330
DE
100
AcDbEntity
  8
0
  6
Continuous
 62
     4
100
AcDbLine
 10
740.9500000000003
 20
753.2273766149828
 30
0.0
 11
803.5663733850162
 21
815.8437499999999
 31
0.0
1001
ACAD
1010
0.0
1020
0.0
1030
0.0
  0
LINE
  5
1B5
330
DE
100
AcDbEntity
  8
0
  6
Continuous
 62
     4
100
AcDbLine
 10
740.9500000000003
 20
742.6207748971846
 30
0.0
 11
814.1729751028149
 21
815.8437499999999
 31
0.0
1001
ACAD
1010
0.0
1020
0.0
1030
0.0
  0
LINE
  5
1B6
330
DE
100
AcDbEntity
  8
0
  6
Continuous
 62
     4
100
AcDbLine
 10
740.9500000000003
 20
732.014173179386
 30
0.0
 11
824.7795768206131
 21
815.8437499999996
 31
0.0
1001
ACAD
1010
0.0
1020
0.0
1030
0.0
  0
LINE
  5
1B7
330
DE
100
AcDbEntity
  8
0
  6
Continuous
 62
     4
100
AcDbLine
 10
740.9500000000003
 20
721.4075714615876
 30
0.0
 11
835.3861785384117
 21
815.8437499999996
 31
0.0
1001
ACAD
1010
0.0
1020
0.0
1030
0.0
  0
LINE
  5
1B8
330
DE
100
AcDbEntity
  8
0
  6
Continuous
 62
     4
100
AcDbLine
 10
742.9927802562112
 20
712.84375
 30
0.0
 11
845.9927802562097
 21
815.8437499999996
 31
0.0
1001
ACAD
1010
0.0
1020
0.0
1030
0.0
  0
LINE
  5
1B9
330
DE
100
AcDbEntity
  8
0
  6
Continuous
 62
     4
100
AcDbLine
 10
753.5993819740097
 20
712.84375
 30
0.0
 11
856.599381974008
 21
815.8437499999996
 31
0.0
1001
ACAD
1010
0.0
1020
0.0
1030
0.0
  0
LINE
  5
1BA
330
DE
100
AcDbEntity
  8
0
  6
Continuous
 62
     4
100
AcDbLine
 10
764.2059836918081
 20
712.84375
 30
0.0
 11
867.2059836918068
 21
815.8437499999996
 31
0.0
1001
ACAD
1010
0.0
1020
0.0
1030
0.0
  0
LINE
  5
1BB
330
DE
100
AcDbEntity
  8
0
  6
Continuous
 62
     4
100
AcDbLine
 10
774.8125854096063
 20
712.84375
 30
0.0
 11
877.812585409605
 21
815.8437499999999
 31
0.0
1001
ACAD
1010
0.0
1020
0.0
1030
0.0
  0
LINE
  5
1BC
330
DE
100
AcDbEntity
  8
0
  6
Continuous
 62
     4
100
AcDbLine
 10
785.4191871274045
 20
712.84375
 30
0.0
 11
888.4191871274031
 21
815.8437499999996
 31
0.0
1001
ACAD
1010
0.0
1020
0.0
1030
0.0
  0
LINE
  5
1BD
330
DE
100
AcDbEntity
  8
0
  6
Continuous
 62
     4
100
AcDbLine
 10
796.0257888452031
 20
712.8437500000001
 30
0.0
 11
899.0257888452017
 21
815.8437499999996
 31
0.0
1001
ACAD
1010
0.0
1020
0.0
1030
0.0
  0
LINE
  5
1BE
330
DE
100
AcDbEntity
  8
0
  6
Continuous
 62
     4
100
AcDbLine
 10
806.6323905630012
 20
712.84375
 30
0.0
 11
909.6323905630001
 21
815.8437499999996
 31
0.0
1001
ACAD
1010
0.0
1020
0.0
1030
0.0
  0
LINE
  5
1BF
330
DE
100
AcDbEntity
  8
0
  6
Continuous
 62
     4
100
AcDbLine
 10
817.2389922807997
 20
712.84375
 30
0.0
 11
920.2389922807979
 21
815.8437499999996
 31
0.0
1001
ACAD
1010
0.0
1020
0.0
1030
0.0
  0
LINE
  5
1C0
330
DE
100
AcDbEntity
  8
0
  6
Continuous
 62
     4
100
AcDbLine
 10
827.8455939985981
 20
712.8437500000001
 30
0.0
 11
930.8455939985968
 21
815.8437499999996
 31
0.0
1001
ACAD
1010
0.0
1020
0.0
1030
0.0
  0
LINE
  5
1C1
330
DE
100
AcDbEntity
  8
0
  6
Continuous
 62
     4
100
AcDbLine
 10
838.4521957163961
 20
712.84375
 30
0.0
 11
941.452195716395
 21
815.8437499999996
 31
0.0
1001
ACAD
1010
0.0
1020
0.0
1030
0.0
  0
LINE
  5
1C2
330
DE
100
AcDbEntity
  8
0
  6
Continuous
 62
     4
100
AcDbLine
 10
849.0587974341945
 20
712.84375
 30
0.0
 11
945.5937500000002
 21
809.3787025658066
 31
0.0
1001
ACAD
1010
0.0
1020
0.0
1030
0.0
  0
LINE
  5
1C3
330
DE
100
AcDbEntity
  8
0
  6
Continuous
 62
     4
100
AcDbLine
 10
859.6653991519929
 20
712.8437500000001
 30
0.0
 11
945.5937500000002
 21
798.7721008480081
 31
0.0
1001
ACAD
1010
0.0
1020
0.0
1030
0.0
  0
LINE
  5
1C4
330
DE
100
AcDbEntity
  8
0
  6
Continuous
 62
     4
100
AcDbLine
 10
870.2720008697912
 20
712.84375
 30
0.0
 11
945.5937500000002
 21
788.1654991302093
 31
0.0
1001
ACAD
1010
0.0
1020
0.0
1030
0.0
  0
LINE
  5
1C5
330
DE
100
AcDbEntity
  8
0
  6
Continuous
 62
     4
100
AcDbLine
 10
880.8786025875901
 20
712.84375
 30
0.0
 11
945.5937500000002
 21
777.5588974124111
 31
0.0
1001
ACAD
1010
0.0
1020
0.0
1030
0.0
  0
LINE
  5
1C6
330
DE
100
AcDbEntity
  8
0
  6
Continuous
 62
     4
100
AcDbLine
 10
891.4852043053882
 20
712.8437500000001
 30
0.0
 11
945.5937500000002
 21
766.952295694613
 31
0.0
1001
ACAD
1010
0.0
1020
0.0
1030
0.0
  0
LINE
  5
1C7
330
DE
100
AcDbEntity
  8
0
  6
Continuous
 62
     4
100
AcDbLine
 10
902.0918060231863
 20
712.84375
 30
0.0
 11
955.0918060231854
 21
765.8437499999997
 31
0.0
1001
ACAD
1010
0.0
1020
0.0
1030
0.0
  0
LINE
  5
1C8
330
DE
100
AcDbEntity
  8
0
  6
Continuous
 62
     4
100
AcDbLine
 10
912.6984077409842
 20
712.84375
 30
0.0
 11
920.5937500000002
 21
720.7390922590158
 31
0.0
1001
ACAD
1010
0.0
1020
0.0
1030
0.0
  0
LINE
  5
1C9
330
DE
100
AcDbEntity
  8
0
  6
Continuous
 62
     4
100
AcDbLine
 10
941.3050094587829
 20
730.84375
 30
0.0
 11
976.3050094587823
 21
765.8437499999997
 31
0.0
1001
ACAD
1010
0.0
1020
0.0
1030
0.0
  0
LINE
  5
1CA
330
DE
100
AcDbEntity
  8
0
  6
Continuous
 62
     4
100
AcDbLine
 10
951.9116111765812
 20
730.84375
 30
0.0
 11
986.9116111765807
 21
765.8437499999997
 31
0.0
1001
ACAD
1010
0.0
1020
0.0
1030
0.0
  0
LINE
  5
1CB
330
DE
100
AcDbEntity
  8
0
  6
Continuous
 62
     4
100
AcDbLine
 10
962.5182128943794
 20
730.84375
 30
0.0
 11
995.5937500000002
 21
763.9192871056211
 31
0.0
1001
ACAD
1010
0.0
1020
0.0
1030
0.0
  0
LINE
  5
1CC
330
DE
100
AcDbEntity
  8
0
  6
Continuous
 62
     4
100
AcDbLine
 10
973.1248146121776
 20
730.84375
 30
0.0
 11
995.5937500000002
 21
753.3126853878226
 31
0.0
1001
ACAD
1010
0.0
1020
0.0
1030
0.0
  0
LINE
  5
1CD
330
DE
100
AcDbEntity
  8
0
  6
Continuous
 62
     4
100
AcDbLine
 10
983.7314163299764
 20
730.84375
 30
0.0
 11
995.5937500000002
 21
742.7060836700237
 31
0.0
1001
ACAD
1010
0.0
1020
0.0
1030
0.0
  0
LINE
  5
1CE
330
DE
100
AcDbEntity
  8
0
  6
Continuous
 62
     4
100
AcDbLine
 10
930.6984077409843
 20
730.84375
 30
0.0
 11
965.6984077409841
 21
765.8437499999997
 31
0.0
1001
ACAD
1010
0.0
1020
0.0
1030
0.0
  0
LINE
  5
1D6
330
DE
100
AcDbEntity
  8
0
  6
Continuous
 62
     4
100
AcDbLine
 10
740.95
 20
561.653783486177
 30
0.0
 11
751.1399665138235
 21
571.84375
 31
0.0
1001
ACAD
1010
0.0
1020
0.0
1030
0.0
  0
LINE
  5
1D7
330
DE
100
AcDbEntity
  8
0
  6
Continuous
 62
     4
100
AcDbLine
 10
740.95
 20
551.0471817683783
 30
0.0
 11
761.7465682316217
 21
571.84375
 31
0.0
1001
ACAD
1010
0.0
1020
0.0
1030
0.0
  0
LINE
  5
1D8
330
DE
100
AcDbEntity
  8
0
  6
Continuous
 62
     4
100
AcDbLine
 10
740.95
 20
540.4405800505798
 30
0.0
 11
772.3531699494197
 21
571.84375
 31
0.0
1001
ACAD
1010
0.0
1020
0.0
1030
0.0
  0
LINE
  5
1D9
330
DE
100
AcDbEntity
  8
0
  6
Continuous
 62
     4
100
AcDbLine
 10
740.95
 20
529.8339783327812
 30
0.0
 11
782.9597716672183
 21
571.84375
 31
0.0
1001
ACAD
1010
0.0
1020
0.0
1030
0.0
  0
LINE
  5
1DA
330
DE
100
AcDbEntity
  8
0
  6
Continuous
 62
     4
100
AcDbLine
 10
740.95
 20
519.2273766149829
 30
0.0
 11
793.5663733850169
 21
571.84375
 31
0.0
1001
ACAD
1010
0.0
1020
0.0
1030
0.0
  0
LINE
  5
1DB
330
DE
100
AcDbEntity
  8
0
  6
Continuous
 62
     4
100
AcDbLine
 10
740.95
 20
508.6207748971845
 30
0.0
 11
804.1729751028153
 21
571.84375
 31
0.0
1001
ACAD
1010
0.0
1020
0.0
1030
0.0
  0
LINE
  5
1DC
330
DE
100
AcDbEntity
  8
0
  6
Continuous
 62
     4
100
AcDbLine
 10
740.95
 20
498.0141731793858
 30
0.0
 11
814.7795768206135
 21
571.84375
 31
0.0
1001
ACAD
1010
0.0
1020
0.0
1030
0.0
  0
LINE
  5
1DD
330
DE
100
AcDbEntity
  8
0
  6
Continuous
 62
     4
100
AcDbLine
 10
740.95
 20
487.4075714615874
 30
0.0
 11
825.3861785384117
 21
571.84375
 31
0.0
1001
ACAD
1010
0.0
1020
0.0
1030
0.0
  0
LINE
  5
1DE
330
DE
100
AcDbEntity
  8
0
  6
Continuous
 62
     4
100
AcDbLine
 10
740.95
 20
476.8009697437888
 30
0.0
 11
835.9927802562099
 21
571.84375
 31
0.0
1001
ACAD
1010
0.0
1020
0.0
1030
0.0
  0
LINE
  5
1DF
330
DE
100
AcDbEntity
  8
0
  6
Continuous
 62
     4
100
AcDbLine
 10
745.7746909870046
 20
471.0190590129952
 30
0.0
 11
846.5993819740086
 21
571.8437499999999
 31
0.0
1001
ACAD
1010
0.0
1020
0.0
1030
0.0
  0
LINE
  5
1E0
330
DE
100
AcDbEntity
  8
0
  6
Continuous
 62
     4
100
AcDbLine
 10
751.2059836918075
 20
465.8437499999998
 30
0.0
 11
857.2059836918072
 21
571.84375
 31
0.0
1001
ACAD
1010
0.0
1020
0.0
1030
0.0
  0
LINE
  5
1E1
330
DE
100
AcDbEntity
  8
0
  6
Continuous
 62
     4
100
AcDbLine
 10
761.8125854096063
 20
465.8437499999998
 30
0.0
 11
867.8125854096052
 21
571.84375
 31
0.0
1001
ACAD
1010
0.0
1020
0.0
1030
0.0
  0
LINE
  5
1E2
330
DE
100
AcDbEntity
  8
0
  6
Continuous
 62
     4
100
AcDbLine
 10
772.4191871274045
 20
465.8437499999998
 30
0.0
 11
878.4191871274035
 21
571.8437500000001
 31
0.0
1001
ACAD
1010
0.0
1020
0.0
1030
0.0
  0
LINE
  5
1E3
330
DE
100
AcDbEntity
  8
0
  6
Continuous
 62
     4
100
AcDbLine
 10
783.0257888452027
 20
465.8437499999998
 30
0.0
 11
889.0257888452023
 21
571.8437500000001
 31
0.0
1001
ACAD
1010
0.0
1020
0.0
1030
0.0
  0
LINE
  5
1E4
330
DE
100
AcDbEntity
  8
0
  6
Continuous
 62
     4
100
AcDbLine
 10
793.6323905630009
 20
465.8437499999998
 30
0.0
 11
899.6323905630006
 21
571.84375
 31
0.0
1001
ACAD
1010
0.0
1020
0.0
1030
0.0
  0
LINE
  5
1E5
330
DE
100
AcDbEntity
  8
0
  6
Continuous
 62
     4
100
AcDbLine
 10
804.2389922807995
 20
465.8437499999998
 30
0.0
 11
910.2389922807988
 21
571.84375
 31
0.0
1001
ACAD
1010
0.0
1020
0.0
1030
0.0
  0
LINE
  5
1E6
330
DE
100
AcDbEntity
  8
0
  6
Continuous
 62
     4
100
AcDbLine
 10
814.845593998598
 20
465.8437499999998
 30
0.0
 11
920.5937500000002
 21
571.5919060014031
 31
0.0
1001
ACAD
1010
0.0
1020
0.0
1030
0.0
  0
LINE
  5
1E7
330
DE
100
AcDbEntity
  8
0
  6
Continuous
 62
     4
100
AcDbLine
 10
825.4521957163962
 20
465.8437499999998
 30
0.0
 11
920.5937500000002
 21
560.9853042836045
 31
0.0
1001
ACAD
1010
0.0
1020
0.0
1030
0.0
  0
LINE
  5
1E8
330
DE
100
AcDbEntity
  8
0
  6
Continuous
 62
     4
100
AcDbLine
 10
836.0587974341944
 20
465.8437499999998
 30
0.0
 11
923.3262737170973
 21
553.1112262829029
 31
0.0
1001
ACAD
1010
0.0
1020
0.0
1030
0.0
  0
LINE
  5
1E9
330
DE
100
AcDbEntity
  8
0
  6
Continuous
 62
     4
100
AcDbLine
 10
846.6653991519931
 20
465.8437499999998
 30
0.0
 11
931.6653991519926
 21
550.84375
 31
0.0
1001
ACAD
1010
0.0
1020
0.0
1030
0.0
  0
LINE
  5
1EA
330
DE
100
AcDbEntity
  8
0
  6
Continuous
 62
     4
100
AcDbLine
 10
857.2720008697917
 20
465.8437499999998
 30
0.0
 11
942.2720008697908
 21
550.84375
 31
0.0
1001
ACAD
1010
0.0
1020
0.0
1030
0.0
  0
LINE
  5
1EB
330
DE
100
AcDbEntity
  8
0
  6
Continuous
 62
     4
100
AcDbLine
 10
867.8786025875899
 20
465.8437499999998
 30
0.0
 11
952.878602587589
 21
550.84375
 31
0.0
1001
ACAD
1010
0.0
1020
0.0
1030
0.0
  0
LINE
  5
1EC
330
DE
100
AcDbEntity
  8
0
  6
Continuous
 62
     4
100
AcDbLine
 10
878.4852043053881
 20
465.8437499999998
 30
0.0
 11
963.4852043053875
 21
550.84375
 31
0.0
1001
ACAD
1010
0.0
1020
0.0
1030
0.0
  0
LINE
  5
1ED
330
DE
100
AcDbEntity
  8
0
  6
Continuous
 62
     4
100
AcDbLine
 10
889.0918060231868
 20
465.8437499999998
 30
0.0
 11
974.0918060231862
 21
550.84375
 31
0.0
1001
ACAD
1010
0.0
1020
0.0
1030
0.0
  0
LINE
  5
1EE
330
DE
100
AcDbEntity
  8
0
  6
Continuous
 62
     4
100
AcDbLine
 10
899.698407740985
 20
465.8437499999998
 30
0.0
 11
945.5937500000002
 21
511.7390922590153
 31
0.0
1001
ACAD
1010
0.0
1020
0.0
1030
0.0
  0
LINE
  5
1EF
330
DE
100
AcDbEntity
  8
0
  6
Continuous
 62
     4
100
AcDbLine
 10
910.3050094587835
 20
465.8437499999998
 30
0.0
 11
945.5937500000002
 21
501.1324905412169
 31
0.0
1001
ACAD
1010
0.0
1020
0.0
1030
0.0
  0
LINE
  5
1F0
330
DE
100
AcDbEntity
  8
0
  6
Continuous
 62
     4
100
AcDbLine
 10
920.9116111765816
 20
465.8437499999998
 30
0.0
 11
945.5937500000002
 21
490.5258888234183
 31
0.0
1001
ACAD
1010
0.0
1020
0.0
1030
0.0
  0
LINE
  5
1F1
330
DE
100
AcDbEntity
  8
0
  6
Continuous
 62
     4
100
AcDbLine
 10
931.5182128943799
 20
465.8437499999998
 30
0.0
 11
945.5937500000002
 21
479.9192871056198
 31
0.0
1001
ACAD
1010
0.0
1020
0.0
1030
0.0
  0
LINE
  5
1F2
330
DE
100
AcDbEntity
  8
0
  6
Continuous
 62
     4
100
AcDbLine
 10
942.1248146121786
 20
465.8437499999998
 30
0.0
 11
945.5937500000002
 21
469.3126853878213
 31
0.0
1001
ACAD
1010
0.0
1020
0.0
1030
0.0
  0
LINE
  5
1F4
330
DE
100
AcDbEntity
  8
0
  6
Continuous
 62
     4
100
AcDbLine
 10
992.1248146121781
 20
515.8437499999998
 30
0.0
 11
995.5937500000002
 21
519.312685387822
 31
0.0
1001
ACAD
1010
0.0
1020
0.0
1030
0.0
  0
LINE
  5
1F5
330
DE
100
AcDbEntity
  8
0
  6
Continuous
 62
     4
100
AcDbLine
 10
981.5182128943799
 20
515.8437499999998
 30
0.0
 11
995.5937500000002
 21
529.9192871056202
 31
0.0
1001
ACAD
1010
0.0
1020
0.0
1030
0.0
  0
LINE
  5
1F6
330
DE
100
AcDbEntity
  8
0
  6
Continuous
 62
     4
100
AcDbLine
 10
970.9116111765814
 20
515.8437499999998
 30
0.0
 11
995.5937500000002
 21
540.5258888234186
 31
0.0
1001
ACAD
1010
0.0
1020
0.0
1030
0.0
  0
LINE
  5
1F7
330
DE
100
AcDbEntity
  8
0
  6
Continuous
 62
     4
100
AcDbLine
 10
960.3050094587826
 20
515.8437499999998
 30
0.0
 11
990.4493797293911
 21
545.9881202706085
 31
0.0
1001
ACAD
1010
0.0
1020
0.0
1030
0.0
  0
LINE
  5
1F8
330
DE
100
AcDbEntity
  8
0
  6
Continuous
 62
     4
100
AcDbLine
 10
949.6984077409843
 20
515.8437499999998
 30
0.0
 11
984.6984077409841
 21
550.84375
 31
0.0
1001
ACAD
1010
0.0
1020
0.0
1030
0.0
  0
LINE
  5
1F9
330
DE
100
AcDbEntity
  8
0
  6
Continuous
 62
     4
100
AcDbLine
 10
995.3050094587833
 20
550.84375
 30
0.0
 11
995.5937500000002
 21
551.1324905412172
 31
0.0
1001
ACAD
1010
0.0
1020
0.0
1030
0.0
  0
LINE
  5
1FA
330
DE
100
AcDbEntity
  8
1
  6
Continuous
 62
     7
100
AcDbLine
 10
995.5937500000002
 20
765.8437499999997
 30
0.0
 11
995.5937500000002
 21
515.8437499999998
 31
0.0
  0
LINE
  5
1FB
330
DE
100
AcDbEntity
  8
1
  6
Continuous
 62
     7
100
AcDbLine
 10
995.5250000000003
 20
740.775
 30
0.0
 11
985.5937500000003
 21
730.84375
 31
0.0
  0
LINE
  5
1FC
330
DE
100
AcDbEntity
  8
1
  6
Continuous
 62
     7
100
AcDbLine
 10
995.5937500000002
 20
765.8437499999997
 30
0.0
 11
945.5937500000002
 21
765.8437499999997
 31
0.0
  0
LINE
  5
1FD
330
DE
100
AcDbEntity
  8
1
  6
Continuous
 62
     7
100
AcDbLine
 10
945.5937500000002
 20
465.8437499999998
 30
0.0
 11
750.95
 21
465.8437499999998
 31
0.0
  0
LINE
  5
204
330
DE
100
AcDbEntity
  8
1
  6
Continuous
 62
     7
100
AcDbLine
 10
985.5937500000003
 20
730.84375
 30
0.0
 11
925.5937499999999
 21
730.84375
 31
0.0
  0
LINE
  5
205
330
DE
100
AcDbEntity
  8
1
  6
Continuous
 62
     7
100
AcDbLine
 10
925.5937499999999
 20
550.84375
 30
0.0
 11
985.5937500000003
 21
550.84375
 31
0.0
  0
LINE
  5
206
330
DE
100
AcDbEntity
  8
1
  6
Continuous
 62
     7
100
AcDbLine
 10
985.5937500000003
 20
730.84375
 30
0.0
 11
985.5937500000003
 21
550.84375
 31
0.0
  0
LINE
  5
207
330
DE
100
AcDbEntity
  8
1
  6
Continuous
 62
     7
100
AcDbLine
 10
995.5250000000003
 20
540.9125
 30
0.0
 11
985.5937500000003
 21
550.84375
 31
0.0
  0
LINE
  5
208
330
DE
100
AcDbEntity
  8
1
  6
Continuous
 62
     7
100
AcDbLine
 10
920.5937500000002
 20
725.84375
 30
0.0
 11
925.5937499999999
 21
730.84375
 31
0.0
  0
LINE
  5
209
330
DE
100
AcDbEntity
  8
1
  6
Continuous
 62
     7
100
AcDbLine
 10
920.5937500000002
 20
555.84375
 30
0.0
 11
925.5937499999999
 21
550.84375
 31
0.0
  0
LINE
  5
20A
330
DE
100
AcDbEntity
  8
1
  6
Continuous
 62
     3
100
AcDbLine
 10
740.95
 20
465.8437499999998
 30
0.0
 11
740.95
 21
253.1625
 31
0.0
  0
LINE
  5
212
330
DE
100
AcDbEntity
  8
1
  6
Continuous
 62
     7
100
AcDbLine
 10
920.5937500000002
 20
725.84375
 30
0.0
 11
920.5937500000002
 21
555.84375
 31
0.0
  0
LINE
  5
213
330
DE
100
AcDbEntity
  8
1
  6
Continuous
 62
     3
100
AcDbLine
 10
730.95
 20
715.8437499999997
 30
0.0
 11
607.4437500000001
 21
715.8437499999997
 31
0.0
  0
LINE
  5
214
330
DE
100
AcDbEntity
  8
1
  6
Continuous
 62
     3
100
AcDbLine
 10
730.95
 20
565.8437499999998
 30
0.0
 11
607.4437500000001
 21
565.8437499999998
 31
0.0
  0
LINE
  5
215
330
DE
100
AcDbEntity
  8
1
  6
Continuous
 62
     3
100
AcDbLine
 10
615.5874999999999
 20
715.8437499999997
 30
0.0
 11
609.0312500000002
 21
692.1312499999997
 31
0.0
  0
LINE
  5
216
330
DE
100
AcDbEntity
  8
1
  6
Continuous
 62
     3
100
AcDbLine
 10
615.5874999999999
 20
715.8437499999997
 30
0.0
 11
622.1437499999997
 21
692.1312499999997
 31
0.0
  0
LINE
  5
217
330
DE
100
AcDbEntity
  8
1
  6
Continuous
 62
     3
100
AcDbLine
 10
622.1437499999997
 20
692.1312499999997
 30
0.0
 11
609.0312500000002
 21
692.1312499999997
 31
0.0
  0
LINE
  5
218
330
DE
100
AcDbEntity
  8
1
  6
Continuous
 62
     3
100
AcDbLine
 10
615.5874999999999
 20
565.8437499999998
 30
0.0
 11
622.1437499999997
 21
589.5562499999997
 31
0.0
  0
LINE
  5
219
330
DE
100
AcDbEntity
  8
1
  6
Continuous
 62
     3
100
AcDbLine
 10
615.5874999999999
 20
565.8437499999998
 30
0.0
 11
609.0312500000002
 21
589.5562499999997
 31
0.0
  0
LINE
  5
21A
330
DE
100
AcDbEntity
  8
1
  6
Continuous
 62
     3
100
AcDbLine
 10
609.0312500000002
 20
589.5562499999997
 30
0.0
 11
622.1437499999997
 21
589.5562499999997
 31
0.0
  0
LINE
  5
21B
330
DE
100
AcDbEntity
  8
1
  6
Continuous
 62
     7
100
AcDbLine
 10
740.95
 20
805.84375
 30
0.0
 11
750.95
 21
815.8437499999999
 31
0.0
  0
LINE
  5
21C
330
DE
100
AcDbEntity
  8
1
  6
Continuous
 62
     7
100
AcDbLine
 10
740.95
 20
475.84375
 30
0.0
 11
750.95
 21
465.8437499999998
 31
0.0
  0
LINE
  5
21D
330
DE
100
AcDbEntity
  8
1
  6
Continuous
 62
     3
100
AcDbLine
 10
920.5937500000002
 20
544.36875
 30
0.0
 11
920.5937500000002
 21
253.1625
 31
0.0
  0
LINE
  5
21E
330
DE
100
AcDbEntity
  8
1
  6
Continuous
 62
     3
100
AcDbLine
 10
764.6625000000001
 20
262.8687499999999
 30
0.0
 11
896.8812500000002
 21
262.8687499999999
 31
0.0
  0
LINE
  5
220
330
DE
100
AcDbEntity
  8
1
  6
Continuous
 62
     3
100
AcDbLine
 10
740.95
 20
262.8687499999999
 30
0.0
 11
764.6625000000001
 21
269.425
 31
0.0
  0
LINE
  5
221
330
DE
100
AcDbEntity
  8
1
  6
Continuous
 62
     3
100
AcDbLine
 10
740.95
 20
262.8687499999999
 30
0.0
 11
764.6625000000001
 21
256.3124999999999
 31
0.0
  0
LINE
  5
222
330
DE
100
AcDbEntity
  8
1
  6
Continuous
 62
     3
100
AcDbLine
 10
764.6625000000001
 20
256.3124999999999
 30
0.0
 11
764.6625000000001
 21
269.425
 31
0.0
  0
LINE
  5
223
330
DE
100
AcDbEntity
  8
1
  6
Continuous
 62
     3
100
AcDbLine
 10
920.5937500000002
 20
262.8687499999999
 30
0.0
 11
896.8812500000002
 21
256.3124999999999
 31
0.0
  0
LINE
  5
224
330
DE
100
AcDbEntity
  8
1
  6
Continuous
 62
     3
100
AcDbLine
 10
920.5937500000002
 20
262.8687499999999
 30
0.0
 11
896.8812500000002
 21
269.425
 31
0.0
  0
LINE
  5
225
330
DE
100
AcDbEntity
  8
1
  6
Continuous
 62
     3
100
AcDbLine
 10
896.8812500000002
 20
269.425
 30
0.0
 11
896.8812500000002
 21
256.3124999999999
 31
0.0
  0
LINE
  5
226
330
DE
100
AcDbEntity
  8
1
  6
Continuous
 62
     3
100
AcDbLine
 10
952.4000000000002
 20
465.8437499999998
 30
0.0
 11
1278.675
 21
465.8437499999998
 31
0.0
  0
LINE
  5
227
330
DE
100
AcDbEntity
  8
1
  6
Continuous
 62
     3
100
AcDbLine
 10
1269.00625
 20
815.8437499999999
 30
0.0
 11
1275.5625
 21
792.1312499999997
 31
0.0
  0
LINE
  5
228
330
DE
100
AcDbEntity
  8
1
  6
Continuous
 62
     3
100
AcDbLine
 10
1269.00625
 20
815.8437499999999
 30
0.0
 11
1262.45
 21
792.1312499999997
 31
0.0
  0
LINE
  5
229
330
DE
100
AcDbEntity
  8
1
  6
Continuous
 62
     3
100
AcDbLine
 10
1262.45
 20
792.1312499999997
 30
0.0
 11
1275.5625
 21
792.1312499999997
 31
0.0
  0
LINE
  5
22A
330
DE
100
AcDbEntity
  8
1
  6
Continuous
 62
     3
100
AcDbLine
 10
1269.00625
 20
465.8437499999998
 30
0.0
 11
1262.45
 21
489.5562499999998
 31
0.0
  0
LINE
  5
22B
330
DE
100
AcDbEntity
  8
1
  6
Continuous
 62
     3
100
AcDbLine
 10
1269.00625
 20
465.8437499999998
 30
0.0
 11
1275.5625
 21
489.5562499999998
 31
0.0
  0
LINE
  5
22C
330
DE
100
AcDbEntity
  8
1
  6
Continuous
 62
     3
100
AcDbLine
 10
1275.5625
 20
489.5562499999998
 30
0.0
 11
1262.45
 21
489.5562499999998
 31
0.0
  0
LINE
  5
22D
330
DE
100
AcDbEntity
  8
1
  6
Continuous
 62
     7
100
AcDbLine
 10
945.5937500000002
 20
815.8437499999999
 30
0.0
 11
750.95
 21
815.8437499999999
 31
0.0
  0
LINE
  5
22E
330
DE
100
AcDbEntity
  8
1
  6
Continuous
 62
     7
100
AcDbLine
 10
995.5937500000002
 20
515.8437499999998
 30
0.0
 11
945.5937500000002
 21
515.8437499999998
 31
0.0
  0
LINE
  5
22F
330
DE
100
AcDbEntity
  8
1
  6
Continuous
 62
     7
100
AcDbLine
 10
945.5937500000002
 20
815.8437499999999
 30
0.0
 11
945.5937500000002
 21
765.8437499999997
 31
0.0
  0
LINE
  5
230
330
DE
100
AcDbEntity
  8
1
  6
Continuous
 62
     7
100
AcDbLine
 10
945.5937500000002
 20
515.8437499999998
 30
0.0
 11
945.5937500000002
 21
465.8437499999998
 31
0.0
  0
LINE
  5
233
330
DE
100
AcDbEntity
  8
1
  6
Continuous
 62
     7
100
AcDbLine
 10
740.95
 20
805.84375
 30
0.0
 11
740.95
 21
475.84375
 31
0.0
  0
LINE
  5
234
330
DE
100
AcDbEntity
  8
1
  6
Continuous
 62
     7
100
AcDbLine
 10
740.95
 20
571.84375
 30
0.0
 11
920.5937500000002
 21
571.84375
 31
0.0
  0
LINE
  5
235
330
DE
100
AcDbEntity
  8
1
  6
Continuous
 62
     7
100
AcDbLine
 10
920.5937500000002
 20
712.84375
 30
0.0
 11
740.95
 21
712.84375
 31
0.0
  0
LINE
  5
236
330
DE
100
AcDbEntity
  8
1
  6
Continuous
 62
     3
100
AcDbLine
 10
952.4000000000002
 20
815.8437499999999
 30
0.0
 11
1278.675
 21
815.8437499999999
 31
0.0
  0
LINE
  5
237
330
DE
100
AcDbEntity
  8
1
  6
Continuous
 62
     5
100
AcDbLine
 10
1269.00625
 20
644.5539388291863
 30
0.0
 11
1272.00625
 21
644.5539388291863
 31
0.0
  0
LINE
  5
238
330
DE
100
AcDbEntity
  8
1
  6
Continuous
 62
     3
100
AcDbLine
 10
1269.00625
 20
620.84375
 30
0.0
 11
1269.00625
 21
489.5562499999998
 31
0.0
  0
LINE
  5
239
330
DE
100
AcDbEntity
  8
1
  6
Continuous
 62
     3
100
AcDbLine
 10
1269.00625
 20
792.1312499999997
 30
0.0
 11
1269.00625
 21
660.8437499999999
 31
0.0
  0
LINE
  5
23C
330
DE
100
AcDbEntity
  8
1
  6
Continuous
 62
     3
100
AcDbLine
 10
615.5874999999999
 20
620.84375
 30
0.0
 11
615.5874999999999
 21
589.5562499999997
 31
0.0
  0
LINE
  5
23D
330
DE
100
AcDbEntity
  8
1
  6
Continuous
 62
     3
100
AcDbLine
 10
615.5874999999999
 20
692.1312499999997
 30
0.0
 11
615.5874999999999
 21
660.8437499999999
 31
0.0
  0
LINE
  5
23E
330
DE
100
AcDbEntity
  8
1
  6
Continuous
 62
     3
100
AcDbLine
 10
1019.30625
 20
923.5437500000001
 30
0.0
 11
1091.1125
 21
923.5437500000001
 31
0.0
  0
LINE
  5
23F
330
DE
100
AcDbEntity
  8
1
  6
Continuous
 62
     3
100
AcDbLine
 10
995.5937500000002
 20
923.5437500000001
 30
0.0
 11
1019.30625
 21
930.1
 31
0.0
  0
LINE
  5
240
330
DE
100
AcDbEntity
  8
1
  6
Continuous
 62
     3
100
AcDbLine
 10
995.5937500000002
 20
923.5437500000001
 30
0.0
 11
1019.30625
 21
916.9874999999999
 31
0.0
  0
LINE
  5
241
330
DE
100
AcDbEntity
  8
1
  6
Continuous
 62
     3
100
AcDbLine
 10
1019.30625
 20
916.9874999999999
 30
0.0
 11
1019.30625
 21
930.1
 31
0.0
  0
LINE
  5
242
330
DE
100
AcDbEntity
  8
1
  6
Continuous
 62
     3
100
AcDbLine
 10
899.7437500000003
 20
923.5437500000001
 30
0.0
 11
921.8812500000002
 21
923.5437500000001
 31
0.0
  0
LINE
  5
243
330
DE
100
AcDbEntity
  8
1
  6
Continuous
 62
     3
100
AcDbLine
 10
945.5937500000002
 20
923.5437500000001
 30
0.0
 11
921.8812500000002
 21
916.9874999999999
 31
0.0
  0
LINE
  5
244
330
DE
100
AcDbEntity
  8
1
  6
Continuous
 62
     3
100
AcDbLine
 10
945.5937500000002
 20
923.5437500000001
 30
0.0
 11
921.8812500000002
 21
930.1
 31
0.0
  0
LINE
  5
245
330
DE
100
AcDbEntity
  8
1
  6
Continuous
 62
     3
100
AcDbLine
 10
921.8812500000002
 20
930.1
 30
0.0
 11
921.8812500000002
 21
916.9874999999999
 31
0.0
  0
LINE
  5
246
330
DE
100
AcDbEntity
  8
1
  6
Continuous
 62
     3
100
AcDbLine
 10
945.5937500000002
 20
930.5125
 30
0.0
 11
945.5937500000002
 21
825.71875
 31
0.0
  0
LINE
  5
247
330
DE
100
AcDbEntity
  8
1
  6
Continuous
 62
     3
100
AcDbLine
 10
995.5937500000002
 20
930.5125
 30
0.0
 11
995.5937500000002
 21
773.31875
 31
0.0
  0
LINE
  5
266
330
DE
100
AcDbEntity
  8
1
  6
Continuous
 62
     5
100
AcDbLine
 10
615.754587586364
 20
643.6750607976335
 30
0.0
 11
652.754587586364
 21
643.6750607976335
 31
0.0
  0
LINE
  5
268
330
DE
100
AcDbEntity
  8
1
  6
Continuous
 62
     5
100
AcDbLine
 10
829.5148653647252
 20
293.6841182252058
 30
0.0
 11
867.5148653647253
 21
293.6841182252058
 31
0.0
  0
LINE
  5
269
330
DE
100
AcDbEntity
  8
1
  6
Continuous
 62
     5
100
AcDbLine
 10
1056.534716280235
 20
960.3594343114098
 30
0.0
 11
1095.534716280236
 21
960.3594343114098
 31
0.0
  0
ENDSEC
  0
SECTION
  2
OBJECTS
  0
DICTIONARY
  5
CC
330
0
100
AcDbDictionary
281
     1
  3
ACAD_COLOR
350
19C
  3
ACAD_GROUP
350
CD
  3
ACAD_LAYOUT
350
D9
  3
ACAD_MATERIAL
350
187
  3
ACAD_MLINESTYLE
350
D6
  3
ACAD_PLOTSETTINGS
350
D8
  3
ACAD_PLOTSTYLENAME
350
CE
  3
ACAD_TABLESTYLE
350
19D
  3
ACAD_VISUALSTYLE
350
18B
  3
AcDbVariableDictionary
350
248
  3
DWGPROPS
350
24D
  0
DICTIONARY
  5
1B0
330
DE
100
AcDbDictionary
280
     1
281
     1
  3
ACAD_SORTENTS
360
1B1
  0
DICTIONARY
  5
19C
102
{ACAD_REACTORS
330
CC
102
}
330
CC
100
AcDbDictionary
281
     1
  0
DICTIONARY
  5
CD
102
{ACAD_REACTORS
330
CC
102
}
330
CC
100
AcDbDictionary
281
     1
  0
DICTIONARY
  5
D9
102
{ACAD_REACTORS
330
CC
102
}
330
CC
100
AcDbDictionary
281
     1
  3
Layout1
350
DD
  3
Model
350
E1
  0
DICTIONARY
  5
187
102
{ACAD_REACTORS
330
CC
102
}
330
CC
100
AcDbDictionary
281
     1
  3
ByBlock
350
189
  3
ByLayer
350
188
  3
Global
350
18A
  0
DICTIONARY
  5
D6
102
{ACAD_REACTORS
330
CC
102
}
330
CC
100
AcDbDictionary
281
     1
  3
Standard
350
D7
  0
DICTIONARY
  5
D8
102
{ACAD_REACTORS
330
CC
102
}
330
CC
100
AcDbDictionary
281
     1
  0
ACDBDICTIONARYWDFLT
  5
CE
102
{ACAD_REACTORS
330
CC
102
}
330
CC
100
AcDbDictionary
281
     1
  3
Normal
350
CF
100
AcDbDictionaryWithDefault
340
CF
  0
DICTIONARY
  5
19D
102
{ACAD_REACTORS
330
CC
102
}
330
CC
100
AcDbDictionary
281
     1
  3
Standard
350
19E
  0
DICTIONARY
  5
18B
102
{ACAD_REACTORS
330
CC
102
}
330
CC
100
AcDbDictionary
281
     1
  3
2dWireframe
350
191
  3
3D Hidden
350
193
  3
3dWireframe
350
192
  3
Basic
350
190
  3
Brighten
350
197
  3
ColorChange
350
19B
  3
Conceptual
350
194
  3
Dim
350
196
  3
Facepattern
350
19A
  3
Flat
350
18C
  3
FlatWithEdges
350
18D
  3
Gouraud
350
18E
  3
GouraudWithEdges
350
18F
  3
Linepattern
350
199
  3
Realistic
350
195
  3
Thicken
350
198
  0
DICTIONARY
  5
248
102
{ACAD_REACTORS
330
CC
102
}
330
CC
100
AcDbDictionary
281
     1
  3
CTABLESTYLE
350
249
  3
DIMASSOC
350
24C
  3
INDEXCTL
350
24B
  3
SORTENTS
350
24A
  0
XRECORD
  5
24D
102
{ACAD_REACTORS
330
CC
102
}
330
CC
100
AcDbXrecord
280
     1
  1
DWGPROPS COOKIE
  2

  3

  4

  6

  7

  8
Horia
  9

300
=
301
=
302
=
303
=
304
=
305
=
306
=
307
=
308
=
309
=
 40
0.0030546180555556
 41
2453238.75150463
 42
2456330.55555404
  1

 90
        0
  0
SORTENTSTABLE
  5
1B1
102
{ACAD_REACTORS
330
1B0
102
}
330
1B0
100
AcDbSortentsTable
330
DE
331
182
  5
182
331
1C2
  5
1C2
331
1C1
  5
1C1
331
1EF
  5
1F0
331
181
  5
181
331
180
  5
180
331
1EE
  5
1EE
331
1C0
  5
1C0
331
1BF
  5
1BF
331
1ED
  5
1ED
331
17F
  5
17F
331
17E
  5
17E
331
1EC
  5
1EC
331
1BE
  5
1BE
331
1BD
  5
1BD
331
1EB
  5
1EB
331
17D
  5
17D
331
1BC
  5
1BC
331
1EA
  5
1EA
331
17C
  5
17C
331
1BB
  5
1BB
331
1E9
  5
1E9
331
17B
  5
17B
331
144
  5
144
331
1BA
  5
1BA
331
1E8
  5
1E8
331
17A
  5
17A
331
1B9
  5
1B9
331
1E7
  5
1E7
331
179
  5
179
331
1B8
  5
1B8
331
1E6
  5
1E6
331
178
  5
178
331
1E5
  5
1E5
331
1E4
  5
1E4
331
1E3
  5
1E3
331
1E2
  5
1E2
331
1E1
  5
1E1
331
F4
  5
F4
331
1E0
  5
1E0
331
1DF
  5
1DF
331
177
  5
177
331
1DE
  5
1DE
331
1DD
  5
1DD
331
176
  5
176
331
175
  5
175
331
1DC
  5
1DC
331
1DB
  5
1DB
331
174
  5
174
331
173
  5
173
331
1DA
  5
1DA
331
172
  5
172
331
1D9
  5
1D9
331
171
  5
171
331
1D8
  5
1D8
331
170
  5
170
331
1D7
  5
1D7
331
16F
  5
16F
331
1D6
  5
1D6
331
16E
  5
16E
331
16D
  5
16D
331
1B7
  5
1B7
331
1B6
  5
1B6
331
16C
  5
16C
331
1B5
  5
1B5
331
16B
  5
16B
331
1B4
  5
1B4
331
16A
  5
16A
331
1B3
  5
1B3
331
169
  5
169
331
1B2
  5
1B2
331
168
  5
168
331
167
  5
167
331
166
  5
166
331
165
  5
165
331
164
  5
164
331
1F9
  5
1F2
331
1F8
  5
1EF
331
163
  5
163
331
162
  5
162
331
1F7
  5
1F1
331
1F6
  5
1F4
331
161
  5
161
331
160
  5
160
331
1CE
  5
1CA
331
1AE
  5
1AE
331
1F5
  5
1F6
331
1F4
  5
1F9
331
15F
  5
15F
331
1CD
  5
1D4
331
1AD
  5
1AD
331
1CC
  5
1D2
331
15E
  5
15E
331
1F2
  5
1F7
331
1CB
  5
1D0
331
15D
  5
15D
331
1CA
  5
1CE
331
1F1
  5
1F5
331
1F0
  5
1F3
331
1C9
  5
1CC
331
1C8
  5
1C9
331
1C7
  5
1C7
331
1C6
  5
1C6
331
1C5
  5
1C5
331
1C4
  5
1C4
331
1C3
  5
1C3
  0
LAYOUT
  5
DD
102
{ACAD_XDICTIONARY
360
24E
102
}
102
{ACAD_REACTORS
330
D9
102
}
330
D9
100
AcDbPlotSettings
  1

  2
HP DeskJet 840C/841C/842C/843C
  4

  6

 40
0.0
 41
0.0
 42
0.0
 43
0.0
 44
0.0
 45
0.0
 46
0.0
 47
0.0
 48
0.0
 49
0.0
140
0.0
141
0.0
142
1.0
143
1.0
 70
   688
 72
     0
 73
     0
 74
     5
  7

 75
    16
147
1.0
148
0.0
149
0.0
100
AcDbLayout
  1
Layout1
 70
     0
 71
     1
 10
0.0
 20
0.0
 11
12.0
 21
9.0
 12
0.0
 22
0.0
 32
0.0
 14
-1.000000000000000E+20
 24
-1.000000000000000E+20
 34
-1.000000000000000E+20
 15
-1.000000000000000E+20
 25
-1.000000000000000E+20
 35
-1.000000000000000E+20
146
0.0
 13
0.0
 23
0.0
 33
0.0
 16
1.0
 26
0.0
 36
0.0
 17
0.0
 27
1.0
 37
0.0
 76
     0
330
DA
  0
LAYOUT
  5
E1
102
{ACAD_XDICTIONARY
360
250
102
}
102
{ACAD_REACTORS
330
D9
102
}
330
D9
100
AcDbPlotSettings
  1

  2
HP DeskJet 840C/841C/842C/843C
  4

  6

 40
0.0
 41
0.0
 42
0.0
 43
0.0
 44
0.0
 45
0.0
 46
0.0
 47
0.0
 48
0.0
 49
0.0
140
0.0
141
0.0
142
1.0
143
1.0
 70
  1712
 72
     0
 73
     0
 74
     0
  7

 75
     0
147
1.0
148
0.0
149
0.0
100
AcDbLayout
  1
Model
 70
     1
 71
     0
 10
0.0
 20
0.0
 11
12.0
 21
9.0
 12
0.0
 22
0.0
 32
0.0
 14
0.0
 24
0.0
 34
0.0
 15
0.0
 25
0.0
 35
0.0
146
0.0
 13
0.0
 23
0.0
 33
0.0
 16
1.0
 26
0.0
 36
0.0
 17
0.0
 27
1.0
 37
0.0
 76
     0
330
DE
331
184
  0
MATERIAL
  5
189
102
{ACAD_XDICTIONARY
360
254
102
}
102
{ACAD_REACTORS
330
187
102
}
330
187
100
AcDbMaterial
  1
ByBlock
  0
MATERIAL
  5
188
102
{ACAD_XDICTIONARY
360
252
102
}
102
{ACAD_REACTORS
330
187
102
}
330
187
100
AcDbMaterial
  1
ByLayer
  0
MATERIAL
  5
18A
102
{ACAD_XDICTIONARY
360
256
102
}
102
{ACAD_REACTORS
330
187
102
}
330
187
100
AcDbMaterial
  1
Global
  0
MLINESTYLE
  5
D7
102
{ACAD_REACTORS
330
D6
102
}
330
D6
100
AcDbMlineStyle
  2
STANDARD
 70
     0
  3

 62
   256
 51
90.0
 52
90.0
 71
     2
 49
0.5
 62
   256
  6
BYLAYER
 49
-0.5
 62
   256
  6
BYLAYER
  0
ACDBPLACEHOLDER
  5
CF
102
{ACAD_REACTORS
330
CE
102
}
330
CE
  0
TABLESTYLE
  5
19E
102
{ACAD_XDICTIONARY
360
258
102
}
102
{ACAD_REACTORS
330
19D
102
}
330
19D
100
AcDbTableStyle
  3
Standard
 70
     0
 71
     0
 40
0.06
 41
0.06
280
     0
281
     0
  7
STANDARD
140
0.18
170
     2
 62
     0
 63
     7
283
     0
274
    -2
284
     1
 64
     0
275
    -2
285
     1
 65
     0
276
    -2
286
     1
 66
     0
277
    -2
287
     1
 67
     0
278
    -2
288
     1
 68
     0
279
    -2
289
     1
 69
     0
  7
STANDARD
140
0.25
170
     5
 62
     0
 63
     7
283
     0
274
    -2
284
     1
 64
     0
275
    -2
285
     1
 65
     0
276
    -2
286
     1
 66
     0
277
    -2
287
     1
 67
     0
278
    -2
288
     1
 68
     0
279
    -2
289
     1
 69
     0
  7
STANDARD
140
0.18
170
     5
 62
     0
 63
     7
283
     0
274
    -2
284
     1
 64
     0
275
    -2
285
     1
 65
     0
276
    -2
286
     1
 66
     0
277
    -2
287
     1
 67
     0
278
    -2
288
     1
 68
     0
279
    -2
289
     1
 69
     0
  0
VISUALSTYLE
  5
191
102
{ACAD_REACTORS
330
18B
102
}
330
18B
100
AcDbVisualStyle
  2
2dWireframe
 70
     4
 71
     0
 72
     2
 73
     0
 90
        0
 40
-0.6
 41
-30.0
 62
     5
 63
     7
 74
     1
 91
        4
 64
     7
 65
   257
 75
     1
175
     1
 42
1.0
 92
        0
 66
   257
 43
1.0
 76
     1
 77
     6
 78
     2
 67
     7
 79
     5
170
     0
171
     0
290
     0
174
     0
 93
        1
 44
0.0
173
     0
291
     0
 45
0.0
1001
ACAD
1000
AcDbSavedByObjectVersion
1070
     0
  0
VISUALSTYLE
  5
193
102
{ACAD_REACTORS
330
18B
102
}
330
18B
100
AcDbVisualStyle
  2
3D Hidden
 70
     6
 71
     1
 72
     2
 73
     2
 90
        0
 40
-0.6
 41
-30.0
 62
     5
 63
     7
 74
     2
 91
        2
 64
     7
 65
   257
 75
     2
175
     1
 42
40.0
 92
        0
 66
   257
 43
1.0
 76
     1
 77
     6
 78
     2
 67
     7
 79
     3
170
     0
171
     0
290
     0
174
     0
 93
        1
 44
0.0
173
     0
291
     0
 45
0.0
1001
ACAD
1000
AcDbSavedByObjectVersion
1070
     0
  0
VISUALSTYLE
  5
192
102
{ACAD_REACTORS
330
18B
102
}
330
18B
100
AcDbVisualStyle
  2
3dWireframe
 70
     5
 71
     0
 72
     2
 73
     0
 90
        0
 40
-0.6
 41
-30.0
 62
     5
 63
     7
 74
     1
 91
        4
 64
     7
 65
   257
 75
     1
175
     1
 42
1.0
 92
        0
 66
   257
 43
1.0
 76
     1
 77
     6
 78
     2
 67
     7
 79
     5
170
     0
171
     0
290
     0
174
     0
 93
        1
 44
0.0
173
     0
291
     0
 45
0.0
1001
ACAD
1000
AcDbSavedByObjectVersion
1070
     0
  0
VISUALSTYLE
  5
190
102
{ACAD_REACTORS
330
18B
102
}
330
18B
100
AcDbVisualStyle
  2
Basic
 70
     7
 71
     1
 72
     0
 73
     1
 90
        0
 40
-0.6
 41
-30.0
 62
     5
 63
     7
 74
     0
 91
        4
 64
     7
 65
   257
 75
     1
175
     1
 42
1.0
 92
        8
 66
     7
 43
1.0
 76
     1
 77
     6
 78
     2
 67
     7
 79
     5
170
     0
171
     0
290
     0
174
     0
 93
        1
 44
0.0
173
     0
291
     1
 45
0.0
1001
ACAD
1000
AcDbSavedByObjectVersion
1070
     0
  0
VISUALSTYLE
  5
197
102
{ACAD_REACTORS
330
18B
102
}
330
18B
100
AcDbVisualStyle
  2
Brighten
 70
    12
 71
     2
 72
     2
 73
     0
 90
        0
 40
-0.6
 41
-30.0
 62
     5
 63
     7
 74
     1
 91
        4
 64
     7
 65
   257
 75
     1
175
     1
 42
1.0
 92
        8
 66
     7
 43
1.0
 76
     1
 77
     6
 78
     2
 67
     7
 79
     5
170
     0
171
     0
290
     0
174
     0
 93
        1
 44
50.0
173
     0
291
     1
 45
0.0
1001
ACAD
1000
AcDbSavedByObjectVersion
1070
     0
  0
VISUALSTYLE
  5
19B
102
{ACAD_REACTORS
330
18B
102
}
330
18B
100
AcDbVisualStyle
  2
ColorChange
 70
    16
 71
     2
 72
     2
 73
     3
 90
        0
 40
-0.6
 41
-30.0
 62
     5
 63
     8
 74
     1
 91
        4
 64
     7
 65
   257
 75
     1
175
     1
 42
1.0
 92
        8
 66
     8
 43
1.0
 76
     1
 77
     6
 78
     2
 67
     7
 79
     5
170
     0
171
     0
290
     0
174
     0
 93
        1
 44
0.0
173
     0
291
     1
 45
0.0
1001
ACAD
1000
AcDbSavedByObjectVersion
1070
     0
  0
VISUALSTYLE
  5
194
102
{ACAD_REACTORS
330
18B
102
}
330
18B
100
AcDbVisualStyle
  2
Conceptual
 70
     9
 71
     3
 72
     2
 73
     0
 90
        0
 40
-0.6
 41
-30.0
 62
     5
 63
     7
 74
     2
 91
        2
 64
     7
 65
   257
 75
     1
175
     1
 42
40.0
 92
        8
 66
     7
 43
1.0
 76
     1
 77
     6
 78
     2
 67
     7
 79
     3
170
     0
171
     0
290
     0
174
     0
 93
        1
 44
0.0
173
     0
291
     0
 45
0.0
1001
ACAD
1000
AcDbSavedByObjectVersion
1070
     0
  0
VISUALSTYLE
  5
196
102
{ACAD_REACTORS
330
18B
102
}
330
18B
100
AcDbVisualStyle
  2
Dim
 70
    11
 71
     2
 72
     2
 73
     0
 90
        0
 40
-0.6
 41
-30.0
 62
     5
 63
     7
 74
     1
 91
        4
 64
     7
 65
   257
 75
     1
175
     1
 42
1.0
 92
        8
 66
     7
 43
1.0
 76
     1
 77
     6
 78
     2
 67
     7
 79
     5
170
     0
171
     0
290
     0
174
     0
 93
        1
 44
-50.0
173
     0
291
     1
 45
0.0
1001
ACAD
1000
AcDbSavedByObjectVersion
1070
     0
  0
VISUALSTYLE
  5
19A
102
{ACAD_REACTORS
330
18B
102
}
330
18B
100
AcDbVisualStyle
  2
Facepattern
 70
    15
 71
     2
 72
     2
 73
     0
 90
        0
 40
-0.6
 41
-30.0
 62
     5
 63
     7
 74
     1
 91
        4
 64
     7
 65
   257
 75
     1
175
     1
 42
1.0
 92
        8
 66
     7
 43
1.0
 76
     1
 77
     6
 78
     2
 67
     7
 79
     5
170
     0
171
     0
290
     0
174
     0
 93
        1
 44
0.0
173
     0
291
     1
 45
0.0
1001
ACAD
1000
AcDbSavedByObjectVersion
1070
     0
  0
VISUALSTYLE
  5
18C
102
{ACAD_REACTORS
330
18B
102
}
330
18B
100
AcDbVisualStyle
  2
Flat
 70
     0
 71
     2
 72
     1
 73
     1
 90
        2
 40
-0.6
 41
30.0
 62
     5
 63
     7
 74
     0
 91
        4
 64
     7
 65
   257
 75
     1
175
     1
 42
1.0
 92
        8
 66
     7
 43
1.0
 76
     1
 77
     6
 78
     2
 67
     7
 79
     5
170
     0
171
     0
290
     0
174
     0
 93
       13
 44
0.0
173
     0
291
     1
 45
0.0
1001
ACAD
1000
AcDbSavedByObjectVersion
1070
     0
  0
VISUALSTYLE
  5
18D
102
{ACAD_REACTORS
330
18B
102
}
330
18B
100
AcDbVisualStyle
  2
FlatWithEdges
 70
     1
 71
     2
 72
     1
 73
     1
 90
        2
 40
-0.6
 41
30.0
 62
     5
 63
     7
 74
     1
 91
        4
 64
     7
 65
   257
 75
     1
175
     1
 42
1.0
 92
        0
 66
   257
 43
1.0
 76
     1
 77
     6
 78
     2
 67
     7
 79
     5
170
     0
171
     0
290
     0
174
     0
 93
       13
 44
0.0
173
     0
291
     1
 45
0.0
1001
ACAD
1000
AcDbSavedByObjectVersion
1070
     0
  0
VISUALSTYLE
  5
18E
102
{ACAD_REACTORS
330
18B
102
}
330
18B
100
AcDbVisualStyle
  2
Gouraud
 70
     2
 71
     2
 72
     2
 73
     1
 90
        2
 40
-0.6
 41
30.0
 62
     5
 63
     7
 74
     0
 91
        4
 64
     7
 65
   257
 75
     1
175
     1
 42
1.0
 92
        0
 66
     7
 43
1.0
 76
     1
 77
     6
 78
     2
 67
     7
 79
     5
170
     0
171
     0
290
     0
174
     0
 93
       13
 44
0.0
173
     0
291
     1
 45
0.0
1001
ACAD
1000
AcDbSavedByObjectVersion
1070
     0
  0
VISUALSTYLE
  5
18F
102
{ACAD_REACTORS
330
18B
102
}
330
18B
100
AcDbVisualStyle
  2
GouraudWithEdges
 70
     3
 71
     2
 72
     2
 73
     1
 90
        2
 40
-0.6
 41
30.0
 62
     5
 63
     7
 74
     1
 91
        4
 64
     7
 65
   257
 75
     1
175
     1
 42
1.0
 92
        0
 66
   257
 43
1.0
 76
     1
 77
     6
 78
     2
 67
     7
 79
     5
170
     0
171
     0
290
     0
174
     0
 93
       13
 44
0.0
173
     0
291
     1
 45
0.0
1001
ACAD
1000
AcDbSavedByObjectVersion
1070
     0
  0
VISUALSTYLE
  5
199
102
{ACAD_REACTORS
330
18B
102
}
330
18B
100
AcDbVisualStyle
  2
Linepattern
 70
    14
 71
     2
 72
     2
 73
     0
 90
        0
 40
-0.6
 41
-30.0
 62
     5
 63
     7
 74
     1
 91
        4
 64
     7
 65
   257
 75
     7
175
     7
 42
1.0
 92
        8
 66
     7
 43
1.0
 76
     1
 77
     6
 78
     2
 67
     7
 79
     5
170
     0
171
     0
290
     0
174
     0
 93
        1
 44
0.0
173
     0
291
     1
 45
0.0
1001
ACAD
1000
AcDbSavedByObjectVersion
1070
     0
  0
VISUALSTYLE
  5
195
102
{ACAD_REACTORS
330
18B
102
}
330
18B
100
AcDbVisualStyle
  2
Realistic
 70
     8
 71
     2
 72
     2
 73
     0
 90
        0
 40
-0.6
 41
-30.0
 62
     5
 63
     7
 74
     1
 91
        0
 64
     7
 65
   257
 75
     1
175
     1
 42
1.0
 92
        8
 66
     8
 43
1.0
 76
     1
 77
     6
 78
     2
 67
     7
 79
     5
170
     0
171
     0
290
     0
174
     0
 93
       13
 44
0.0
173
     0
291
     0
 45
0.0
1001
ACAD
1000
AcDbSavedByObjectVersion
1070
     0
  0
VISUALSTYLE
  5
198
102
{ACAD_REACTORS
330
18B
102
}
330
18B
100
AcDbVisualStyle
  2
Thicken
 70
    13
 71
     2
 72
     2
 73
     0
 90
        0
 40
-0.6
 41
-30.0
 62
     5
 63
     7
 74
     1
 91
        4
 64
     7
 65
   257
 75
     1
175
     1
 42
1.0
 92
       12
 66
     7
 43
1.0
 76
     1
 77
     6
 78
     2
 67
     7
 79
     5
170
     0
171
     0
290
     0
174
     0
 93
        1
 44
0.0
173
     0
291
     1
 45
0.0
1001
ACAD
1000
AcDbSavedByObjectVersion
1070
     0
  0
DICTIONARYVAR
  5
249
102
{ACAD_REACTORS
330
248
102
}
330
248
100
DictionaryVariables
280
     0
  1
STANDARD
  0
DICTIONARYVAR
  5
24C
102
{ACAD_REACTORS
330
248
102
}
330
248
100
DictionaryVariables
280
     0
  1
1
  0
DICTIONARYVAR
  5
24B
102
{ACAD_REACTORS
330
248
102
}
330
248
100
DictionaryVariables
280
     0
  1
0
  0
DICTIONARYVAR
  5
24A
102
{ACAD_REACTORS
330
248
102
}
330
248
100
DictionaryVariables
280
     0
  1
127
  0
DICTIONARY
  5
24E
330
DD
100
AcDbDictionary
280
     1
281
     1
  3
ACAD_XREC_ROUNDTRIP
360
24F
  0
DICTIONARY
  5
250
330
E1
100
AcDbDictionary
280
     1
281
     1
  3
ACAD_XREC_ROUNDTRIP
360
251
  0
DICTIONARY
  5
254
330
189
100
AcDbDictionary
280
     1
281
     1
  3
ACAD_XREC_ROUNDTRIP
360
255
  0
DICTIONARY
  5
252
330
188
100
AcDbDictionary
280
     1
281
     1
  3
ACAD_XREC_ROUNDTRIP
360
253
  0
DICTIONARY
  5
256
330
18A
100
AcDbDictionary
280
     1
281
     1
  3
ACAD_XREC_ROUNDTRIP
360
257
  0
DICTIONARY
  5
258
330
19E
100
AcDbDictionary
280
     1
281
     1
  3
ACAD_XREC_ROUNDTRIP
360
259
  0
XRECORD
  5
24F
102
{ACAD_REACTORS
330
24E
102
}
330
24E
100
AcDbXrecord
280
     1
102
SHADEPLOT
 70
     0
102
SHADEPLOTRESLEVEL
 70
     2
102
SHADEPLOTCUSTOMDPI
 70
   300
  0
XRECORD
  5
251
102
{ACAD_REACTORS
330
250
102
}
330
250
100
AcDbXrecord
280
     1
102
SHADEPLOT
 70
     0
102
SHADEPLOTRESLEVEL
 70
     2
102
SHADEPLOTCUSTOMDPI
 70
   300
  0
XRECORD
  5
255
102
{ACAD_REACTORS
330
254
102
}
330
254
100
AcDbXrecord
280
     1
102
MATERIAL
148
0.0
149
0.0
149
0.0
 93
        0
 94
       63
282
     0
 72
     1
 77
     1
171
     1
175
     1
179
     1
273
     0
  0
XRECORD
  5
253
102
{ACAD_REACTORS
330
252
102
}
330
252
100
AcDbXrecord
280
     1
102
MATERIAL
148
0.0
149
0.0
149
0.0
 93
        0
 94
       63
282
     0
 72
     1
 77
     1
171
     1
175
     1
179
     1
273
     0
  0
XRECORD
  5
257
102
{ACAD_REACTORS
330
256
102
}
330
256
100
AcDbXrecord
280
     1
102
MATERIAL
148
0.0
149
0.0
149
0.0
 93
        0
 94
       63
282
     0
 72
     1
 77
     1
171
     1
175
     1
179
     1
273
     0
  0
XRECORD
  5
259
102
{ACAD_REACTORS
330
258
102
}
330
258
100
AcDbXrecord
280
     1
102
ACAD_ROUNDTRIP_PRE2007_TABLESTYLE
 90
      512
 91
        0
  1

 92
      512
 93
        0
  2

 94
      512
 95
        0
  3

  0
ENDSEC
  0
EOF
