  0
SECTION
  2
HEADER
  9
$ACADVER
  1
AC1015
  9
$ACADMAINTVER
 70
    20
  9
$DWGCODEPAGE
  3
ANSI_1252
  9
$INSBASE
 10
0.0
 20
0.0
 30
0.0
  9
$EXTMIN
 10
357.0
 20
234.25
 30
0.0
  9
$EXTMAX
 10
2304.0
 20
976.2694260528903
 30
0.0
  9
$LIMMIN
 10
0.0
 20
0.0
  9
$LIMMAX
 10
12.0
 20
9.0
  9
$ORTHOMODE
 70
     1
  9
$REGENMODE
 70
     1
  9
$FILLMODE
 70
     1
  9
$QTEXTMODE
 70
     0
  9
$MIRRTEXT
 70
     1
  9
$LTSCALE
 40
1.0
  9
$ATTMODE
 70
     1
  9
$TEXTSIZE
 40
0.0
  9
$TRACEWID
 40
0.05
  9
$TEXTSTYLE
  7
STANDARD
  9
$CLAYER
  8
0
  9
$CELTYPE
  6
CONTINUOUS
  9
$CECOLOR
 62
   256
  9
$CELTSCALE
 40
1.0
  9
$DISPSILH
 70
     0
  9
$DIMSCALE
 40
1.0
  9
$DIMASZ
 40
0.18
  9
$DIMEXO
 40
0.0625
  9
$DIMDLI
 40
0.38
  9
$DIMRND
 40
0.0
  9
$DIMDLE
 40
0.0
  9
$DIMEXE
 40
0.18
  9
$DIMTP
 40
0.0
  9
$DIMTM
 40
0.0
  9
$DIMTXT
 40
0.18
  9
$DIMCEN
 40
0.09
  9
$DIMTSZ
 40
0.0
  9
$DIMTOL
 70
     0
  9
$DIMLIM
 70
     0
  9
$DIMTIH
 70
     1
  9
$DIMTOH
 70
     1
  9
$DIMSE1
 70
     0
  9
$DIMSE2
 70
     0
  9
$DIMTAD
 70
     0
  9
$DIMZIN
 70
     0
  9
$DIMBLK
  1

  9
$DIMASO
 70
     1
  9
$DIMSHO
 70
     1
  9
$DIMPOST
  1

  9
$DIMAPOST
  1

  9
$DIMALT
 70
     0
  9
$DIMALTD
 70
     2
  9
$DIMALTF
 40
25.4
  9
$DIMLFAC
 40
1.0
  9
$DIMTOFL
 70
     0
  9
$DIMTVP
 40
0.0
  9
$DIMTIX
 70
     0
  9
$DIMSOXD
 70
     0
  9
$DIMSAH
 70
     0
  9
$DIMBLK1
  1

  9
$DIMBLK2
  1

  9
$DIMSTYLE
  2
STANDARD
  9
$DIMCLRD
 70
     0
  9
$DIMCLRE
 70
     0
  9
$DIMCLRT
 70
     0
  9
$DIMTFAC
 40
1.0
  9
$DIMGAP
 40
0.09
  9
$DIMJUST
 70
     0
  9
$DIMSD1
 70
     0
  9
$DIMSD2
 70
     0
  9
$DIMTOLJ
 70
     1
  9
$DIMTZIN
 70
     0
  9
$DIMALTZ
 70
     0
  9
$DIMALTTZ
 70
     0
  9
$DIMUPT
 70
     0
  9
$DIMDEC
 70
     4
  9
$DIMTDEC
 70
     4
  9
$DIMALTU
 70
     2
  9
$DIMALTTD
 70
     2
  9
$DIMTXSTY
  7
STANDARD
  9
$DIMAUNIT
 70
     0
  9
$DIMADEC
 70
     0
  9
$DIMALTRND
 40
0.0
  9
$DIMAZIN
 70
     0
  9
$DIMDSEP
 70
    46
  9
$DIMATFIT
 70
     3
  9
$DIMFRAC
 70
     0
  9
$DIMLDRBLK
  1

  9
$DIMLUNIT
 70
     2
  9
$DIMLWD
 70
    -2
  9
$DIMLWE
 70
    -2
  9
$DIMTMOVE
 70
     0
  9
$LUNITS
 70
     2
  9
$LUPREC
 70
     4
  9
$SKETCHINC
 40
0.1
  9
$FILLETRAD
 40
0.0
  9
$AUNITS
 70
     0
  9
$AUPREC
 70
     0
  9
$MENU
  1
acad
  9
$ELEVATION
 40
0.0
  9
$PELEVATION
 40
0.0
  9
$THICKNESS
 40
0.0
  9
$LIMCHECK
 70
     0
  9
$CHAMFERA
 40
0.0
  9
$CHAMFERB
 40
0.0
  9
$CHAMFERC
 40
0.0
  9
$CHAMFERD
 40
0.0
  9
$SKPOLY
 70
     0
  9
$TDCREATE
 40
2453238.752083333
  9
$TDUCREATE
 40
2453238.668750000
  9
$TDUPDATE
 40
2456330.511178009
  9
$TDUUPDATE
 40
2456330.427844676
  9
$TDINDWG
 40
0.0111189352
  9
$TDUSRTIMER
 40
0.0111183565
  9
$USRTIMER
 70
     1
  9
$ANGBASE
 50
0.0
  9
$ANGDIR
 70
     0
  9
$PDMODE
 70
     0
  9
$PDSIZE
 40
0.0
  9
$PLINEWID
 40
0.0
  9
$SPLFRAME
 70
     0
  9
$SPLINETYPE
 70
     6
  9
$SPLINESEGS
 70
    10
  9
$HANDSEED
  5
345
  9
$SURFTAB1
 70
     6
  9
$SURFTAB2
 70
     6
  9
$SURFTYPE
 70
     6
  9
$SURFU
 70
     6
  9
$SURFV
 70
     6
  9
$UCSBASE
  2

  9
$UCSNAME
  2

  9
$UCSORG
 10
0.0
 20
0.0
 30
0.0
  9
$UCSXDIR
 10
1.0
 20
0.0
 30
0.0
  9
$UCSYDIR
 10
0.0
 20
1.0
 30
0.0
  9
$UCSORTHOREF
  2

  9
$UCSORTHOVIEW
 70
     0
  9
$UCSORGTOP
 10
0.0
 20
0.0
 30
0.0
  9
$UCSORGBOTTOM
 10
0.0
 20
0.0
 30
0.0
  9
$UCSORGLEFT
 10
0.0
 20
0.0
 30
0.0
  9
$UCSORGRIGHT
 10
0.0
 20
0.0
 30
0.0
  9
$UCSORGFRONT
 10
0.0
 20
0.0
 30
0.0
  9
$UCSORGBACK
 10
0.0
 20
0.0
 30
0.0
  9
$PUCSBASE
  2

  9
$PUCSNAME
  2

  9
$PUCSORG
 10
0.0
 20
0.0
 30
0.0
  9
$PUCSXDIR
 10
1.0
 20
0.0
 30
0.0
  9
$PUCSYDIR
 10
0.0
 20
1.0
 30
0.0
  9
$PUCSORTHOREF
  2

  9
$PUCSORTHOVIEW
 70
     0
  9
$PUCSORGTOP
 10
0.0
 20
0.0
 30
0.0
  9
$PUCSORGBOTTOM
 10
0.0
 20
0.0
 30
0.0
  9
$PUCSORGLEFT
 10
0.0
 20
0.0
 30
0.0
  9
$PUCSORGRIGHT
 10
0.0
 20
0.0
 30
0.0
  9
$PUCSORGFRONT
 10
0.0
 20
0.0
 30
0.0
  9
$PUCSORGBACK
 10
0.0
 20
0.0
 30
0.0
  9
$USERI1
 70
     0
  9
$USERI2
 70
     0
  9
$USERI3
 70
     0
  9
$USERI4
 70
     0
  9
$USERI5
 70
     0
  9
$USERR1
 40
0.0
  9
$USERR2
 40
0.0
  9
$USERR3
 40
0.0
  9
$USERR4
 40
0.0
  9
$USERR5
 40
0.0
  9
$WORLDVIEW
 70
     1
  9
$SHADEDGE
 70
     3
  9
$SHADEDIF
 70
    70
  9
$TILEMODE
 70
     1
  9
$MAXACTVP
 70
    16
  9
$PINSBASE
 10
0.0
 20
0.0
 30
0.0
  9
$PLIMCHECK
 70
     0
  9
$PEXTMIN
 10
-1.000000000000000E+20
 20
-1.000000000000000E+20
 30
-1.000000000000000E+20
  9
$PEXTMAX
 10
-1.000000000000000E+20
 20
-1.000000000000000E+20
 30
-1.000000000000000E+20
  9
$PLIMMIN
 10
0.0
 20
0.0
  9
$PLIMMAX
 10
12.0
 20
9.0
  9
$UNITMODE
 70
     0
  9
$VISRETAIN
 70
     0
  9
$PLINEGEN
 70
     1
  9
$PSLTSCALE
 70
     0
  9
$TREEDEPTH
 70
  3020
  9
$CMLSTYLE
  2
Standard
  9
$CMLJUST
 70
     0
  9
$CMLSCALE
 40
1.0
  9
$PROXYGRAPHICS
 70
     1
  9
$MEASUREMENT
 70
     0
  9
$CELWEIGHT
370
    -1
  9
$ENDCAPS
280
     0
  9
$JOINSTYLE
280
     0
  9
$LWDISPLAY
290
     0
  9
$INSUNITS
 70
     0
  9
$HYPERLINKBASE
  1

  9
$STYLESHEET
  1

  9
$XEDIT
290
     1
  9
$CEPSNTYPE
380
     0
  9
$PSTYLEMODE
290
     1
  9
$FINGERPRINTGUID
  2
{D645ED40-846C-45EB-B88C-AA3CAFAD5D38}
  9
$VERSIONGUID
  2
{6CEFC58E-1707-4AF7-BAA0-B31F15888DBB}
  9
$EXTNAMES
290
     1
  9
$PSVPSCALE
 40
0.0
  9
$OLESTARTUP
290
     0
  0
ENDSEC
  0
SECTION
  2
CLASSES
  0
CLASS
  1
ACDBDICTIONARYWDFLT
  2
AcDbDictionaryWithDefault
  3
ObjectDBX Classes
 90
        0
280
     0
281
     0
  0
CLASS
  1
ACDBPLACEHOLDER
  2
AcDbPlaceHolder
  3
ObjectDBX Classes
 90
        0
280
     0
281
     0
  0
CLASS
  1
LAYOUT
  2
AcDbLayout
  3
ObjectDBX Classes
 90
        0
280
     0
281
     0
  0
CLASS
  1
MATERIAL
  2
AcDbMaterial
  3
ObjectDBX Classes
 90
     1024
280
     0
281
     0
  0
CLASS
  1
VISUALSTYLE
  2
AcDbVisualStyle
  3
ObjectDBX Classes
 90
     4095
280
     0
281
     0
  0
CLASS
  1
TABLESTYLE
  2
AcDbTableStyle
  3
ObjectDBX Classes
 90
     4095
280
     0
281
     0
  0
CLASS
  1
SORTENTSTABLE
  2
AcDbSortentsTable
  3
ObjectDBX Classes
 90
        0
280
     0
281
     0
  0
CLASS
  1
DICTIONARYVAR
  2
AcDbDictionaryVar
  3
ObjectDBX Classes
 90
        0
280
     0
281
     0
  0
ENDSEC
  0
SECTION
  2
TABLES
  0
TABLE
  2
VPORT
  5
F9
330
0
100
AcDbSymbolTable
 70
     1
  0
VPORT
  5
1F8
330
F9
100
AcDbSymbolTableRecord
100
AcDbViewportTableRecord
  2
*Active
 70
     0
 10
0.0
 20
0.0
 11
1.0
 21
1.0
 12
176.3070731666569
 22
-15.66346487666862
 13
0.0
 23
0.0
 14
0.0
 24
0.0
 15
0.0
 25
0.0
 16
0.0
 26
0.0
 36
1.0
 17
888.5595400000001
 27
557.121875
 37
0.0
 40
1791.815993784752
 41
1.967989756722151
 42
50.0
 43
6.3125
 44
0.0
 50
0.0
 51
0.0
 71
     0
 72
   100
 73
     1
 74
     0
 75
     0
 76
     0
 77
     0
 78
     0
281
     0
 65
     0
110
0.0
120
0.0
130
0.0
111
1.0
121
0.0
131
0.0
112
0.0
122
1.0
132
0.0
 79
     0
146
0.0
  0
ENDTAB
  0
TABLE
  2
LTYPE
  5
F6
330
0
100
AcDbSymbolTable
 70
     7
  0
LTYPE
  5
104
330
F6
100
AcDbSymbolTableRecord
100
AcDbLinetypeTableRecord
  2
ByBlock
 70
     0
  3

 72
    65
 73
     0
 40
0.0
  0
LTYPE
  5
105
330
F6
100
AcDbSymbolTableRecord
100
AcDbLinetypeTableRecord
  2
ByLayer
 70
     0
  3

 72
    65
 73
     0
 40
0.0
  0
LTYPE
  5
106
330
F6
100
AcDbSymbolTableRecord
100
AcDbLinetypeTableRecord
  2
CONTINUOUS
 70
     0
  3
Solid line
 72
    65
 73
     0
 40
0.0
  0
LTYPE
  5
114
330
F6
100
AcDbSymbolTableRecord
100
AcDbLinetypeTableRecord
  2
DOT
 70
     0
  3
. . . . . . . . . . . . . . . . . . . . . . . . . . . . . . . . .
 72
    65
 73
     2
 40
0.25
 49
0.0
 74
     0
 49
-0.25
 74
     0
  0
LTYPE
  5
115
330
F6
100
AcDbSymbolTableRecord
100
AcDbLinetypeTableRecord
  2
HIDDEN
 70
     0
  3
__ __ __ __ __ __ __ __ __ __ __ __ __ __ __ __ __ __ __ __ __ 
 72
    65
 73
     2
 40
0.375
 49
0.25
 74
     0
 49
-0.125
 74
     0
  0
LTYPE
  5
116
330
F6
100
AcDbSymbolTableRecord
100
AcDbLinetypeTableRecord
  2
DASHED
 70
     0
  3
__ __ __ __ __ __ __ __ __ __ __ __ __ __ __ __ __ __ __ __ __
 72
    65
 73
     2
 40
0.75
 49
0.5
 74
     0
 49
-0.25
 74
     0
  0
LTYPE
  5
117
330
F6
100
AcDbSymbolTableRecord
100
AcDbLinetypeTableRecord
  2
DASHDOT
 70
     0
  3
__ . __ . __ . __ . __ . __ . __ . __ . __ . __ . __ . __ . _
 72
    65
 73
     4
 40
1.0
 49
0.5
 74
     0
 49
-0.25
 74
     0
 49
0.0
 74
     0
 49
-0.25
 74
     0
  0
LTYPE
  5
118
330
F6
100
AcDbSymbolTableRecord
100
AcDbLinetypeTableRecord
  2
DIVIDE
 70
     0
  3
____ . . ____ . . ____ . . ____ . . ____ . . ____ . . ____ . .
 72
    65
 73
     6
 40
1.25
 49
0.5
 74
     0
 49
-0.25
 74
     0
 49
0.0
 74
     0
 49
-0.25
 74
     0
 49
0.0
 74
     0
 49
-0.25
 74
     0
  0
LTYPE
  5
119
330
F6
100
AcDbSymbolTableRecord
100
AcDbLinetypeTableRecord
  2
CENTER
 70
     0
  3
____ _ ____ _ ____ _ ____ _ ____ _ ____ _ ____ _ ____ _ ____ _
 72
    65
 73
     4
 40
2.0
 49
1.25
 74
     0
 49
-0.25
 74
     0
 49
0.25
 74
     0
 49
-0.25
 74
     0
  0
ENDTAB
  0
TABLE
  2
LAYER
  5
F3
330
0
100
AcDbSymbolTable
 70
     4
  0
LAYER
  5
101
330
F3
100
AcDbSymbolTableRecord
100
AcDbLayerTableRecord
  2
0
 70
     0
 62
     7
  6
CONTINUOUS
370
    -3
390
100
  0
LAYER
  5
11A
330
F3
100
AcDbSymbolTableRecord
100
AcDbLayerTableRecord
  2
CONSTRUCTION_CLASS
 70
     0
 62
     7
  6
CONTINUOUS
370
    -3
390
100
  0
LAYER
  5
11B
330
F3
100
AcDbSymbolTableRecord
100
AcDbLayerTableRecord
  2
PATTERN_CLASS
 70
     0
 62
     7
  6
CONTINUOUS
370
    -3
390
100
  0
LAYER
  5
11C
330
F3
100
AcDbSymbolTableRecord
100
AcDbLayerTableRecord
  2
1
 70
     0
 62
     7
  6
CONTINUOUS
370
    -3
390
100
  0
ENDTAB
  0
TABLE
  2
STYLE
  5
F4
330
0
100
AcDbSymbolTable
 70
     1
  0
STYLE
  5
102
330
F4
100
AcDbSymbolTableRecord
100
AcDbTextStyleTableRecord
  2
STANDARD
 70
     0
 40
0.0
 41
1.0
 50
0.0
 71
     0
 42
0.0
  3
txt
  4

  0
ENDTAB
  0
TABLE
  2
VIEW
  5
F7
330
0
100
AcDbSymbolTable
 70
     0
  0
ENDTAB
  0
TABLE
  2
UCS
  5
F8
330
0
100
AcDbSymbolTable
 70
     0
  0
ENDTAB
  0
TABLE
  2
APPID
  5
FA
330
0
100
AcDbSymbolTable
 70
     1
  0
APPID
  5
103
330
FA
100
AcDbSymbolTableRecord
100
AcDbRegAppTableRecord
  2
ACAD
 70
     0
  0
ENDTAB
  0
TABLE
  2
DIMSTYLE
  5
FB
330
0
100
AcDbSymbolTable
 70
     1
100
AcDbDimStyleTable
 71
     0
  0
DIMSTYLE
105
11D
330
FB
100
AcDbSymbolTableRecord
100
AcDbDimStyleTableRecord
  2
STANDARD
 70
     0
279
     2
340
102
  0
ENDTAB
  0
TABLE
  2
BLOCK_RECORD
  5
F2
330
0
100
AcDbSymbolTable
 70
     1
  0
BLOCK_RECORD
  5
10F
102
{ACAD_XDICTIONARY
360
263
102
}
330
F2
100
AcDbSymbolTableRecord
100
AcDbBlockTableRecord
  2
*Model_Space
340
112
  0
BLOCK_RECORD
  5
10B
330
F2
100
AcDbSymbolTableRecord
100
AcDbBlockTableRecord
  2
*Paper_Space
340
10E
  0
ENDTAB
  0
ENDSEC
  0
SECTION
  2
BLOCKS
  0
BLOCK
  5
110
330
10F
100
AcDbEntity
  8
0
100
AcDbBlockBegin
  2
*Model_Space
 70
     0
 10
0.0
 20
0.0
 30
0.0
  3
*Model_Space
  1

  0
ENDBLK
  5
111
330
10F
100
AcDbEntity
  8
0
100
AcDbBlockEnd
  0
BLOCK
  5
10C
330
10B
100
AcDbEntity
 67
     1
  8
0
100
AcDbBlockBegin
  2
*Paper_Space
 70
     0
 10
0.0
 20
0.0
 30
0.0
  3
*Paper_Space
  1

  0
ENDBLK
  5
10D
330
10B
100
AcDbEntity
 67
     1
  8
0
100
AcDbBlockEnd
  0
ENDSEC
  0
SECTION
  2
ENTITIES
  0
LINE
  5
11F
330
10F
100
AcDbEntity
  8
1
  6
Continuous
 62
     4
100
AcDbLine
 10
583.5437499999998
 20
670.36875
 30
0.0
 11
1183.54375
 21
670.36875
 31
0.0
  0
LINE
  5
120
330
10F
100
AcDbEntity
  8
1
  6
Continuous
 62
     4
100
AcDbLine
 10
883.5437499999997
 20
370.36875
 30
0.0
 11
883.5437499999997
 21
805.36875
 31
0.0
  0
LINE
  5
221
330
10F
100
AcDbEntity
  8
0
  6
Continuous
 62
     4
100
AcDbLine
 10
583.5437499999998
 20
800.1787834861769
 30
0.0
 11
603.7337165138228
 21
820.3687499999999
 31
0.0
1001
ACAD
1010
0.0
1020
0.0
1030
0.0
  0
LINE
  5
222
330
10F
100
AcDbEntity
  8
0
  6
Continuous
 62
     4
100
AcDbLine
 10
586.4076591158107
 20
792.436090884189
 30
0.0
 11
614.340318231621
 21
820.3687499999997
 31
0.0
1001
ACAD
1010
0.0
1020
0.0
1030
0.0
  0
LINE
  5
223
330
10F
100
AcDbEntity
  8
0
  6
Continuous
 62
     4
100
AcDbLine
 10
591.7109599747099
 20
787.1327900252899
 30
0.0
 11
624.9469199494194
 21
820.3687499999997
 31
0.0
1001
ACAD
1010
0.0
1020
0.0
1030
0.0
  0
LINE
  5
224
330
10F
100
AcDbEntity
  8
0
  6
Continuous
 62
     4
100
AcDbLine
 10
600.5535216672186
 20
785.36875
 30
0.0
 11
635.5535216672178
 21
820.3687499999997
 31
0.0
1001
ACAD
1010
0.0
1020
0.0
1030
0.0
  0
LINE
  5
225
330
10F
100
AcDbEntity
  8
0
  6
Continuous
 62
     4
100
AcDbLine
 10
611.1601233850169
 20
785.36875
 30
0.0
 11
646.1601233850163
 21
820.3687499999997
 31
0.0
1001
ACAD
1010
0.0
1020
0.0
1030
0.0
  0
LINE
  5
226
330
10F
100
AcDbEntity
  8
0
  6
Continuous
 62
     4
100
AcDbLine
 10
621.7667251028153
 20
785.36875
 30
0.0
 11
656.7667251028146
 21
820.3687499999997
 31
0.0
1001
ACAD
1010
0.0
1020
0.0
1030
0.0
  0
LINE
  5
227
330
10F
100
AcDbEntity
  8
0
  6
Continuous
 62
     4
100
AcDbLine
 10
632.3733268206138
 20
785.36875
 30
0.0
 11
667.3733268206128
 21
820.3687499999995
 31
0.0
1001
ACAD
1010
0.0
1020
0.0
1030
0.0
  0
LINE
  5
228
330
10F
100
AcDbEntity
  8
0
  6
Continuous
 62
     4
100
AcDbLine
 10
642.9799285384124
 20
785.36875
 30
0.0
 11
677.9799285384113
 21
820.3687499999995
 31
0.0
1001
ACAD
1010
0.0
1020
0.0
1030
0.0
  0
LINE
  5
229
330
10F
100
AcDbEntity
  8
0
  6
Continuous
 62
     4
100
AcDbLine
 10
653.5651401281052
 20
785.3473598718945
 30
0.0
 11
688.5865302562097
 21
820.3687499999995
 31
0.0
1001
ACAD
1010
0.0
1020
0.0
1030
0.0
  0
LINE
  5
22A
330
10F
100
AcDbEntity
  8
0
  6
Continuous
 62
     4
100
AcDbLine
 10
658.5437499999998
 20
779.7193680259907
 30
0.0
 11
699.1931319740081
 21
820.3687499999995
 31
0.0
1001
ACAD
1010
0.0
1020
0.0
1030
0.0
  0
LINE
  5
22B
330
10F
100
AcDbEntity
  8
0
  6
Continuous
 62
     4
100
AcDbLine
 10
659.7997336918076
 20
770.36875
 30
0.0
 11
709.7997336918065
 21
820.3687499999993
 31
0.0
1001
ACAD
1010
0.0
1020
0.0
1030
0.0
  0
LINE
  5
22C
330
10F
100
AcDbEntity
  8
0
  6
Continuous
 62
     4
100
AcDbLine
 10
670.406335409606
 20
770.36875
 30
0.0
 11
720.4063354096047
 21
820.3687499999993
 31
0.0
1001
ACAD
1010
0.0
1020
0.0
1030
0.0
  0
LINE
  5
22D
330
10F
100
AcDbEntity
  8
0
  6
Continuous
 62
     4
100
AcDbLine
 10
681.0129371274045
 20
770.36875
 30
0.0
 11
731.012937127403
 21
820.3687499999993
 31
0.0
1001
ACAD
1010
0.0
1020
0.0
1030
0.0
  0
LINE
  5
22E
330
10F
100
AcDbEntity
  8
0
  6
Continuous
 62
     4
100
AcDbLine
 10
691.6195388452028
 20
770.36875
 30
0.0
 11
741.6195388452015
 21
820.3687499999993
 31
0.0
1001
ACAD
1010
0.0
1020
0.0
1030
0.0
  0
LINE
  5
22F
330
10F
100
AcDbEntity
  8
0
  6
Continuous
 62
     4
100
AcDbLine
 10
702.2261405630013
 20
770.36875
 30
0.0
 11
752.2261405629999
 21
820.3687499999993
 31
0.0
1001
ACAD
1010
0.0
1020
0.0
1030
0.0
  0
LINE
  5
230
330
10F
100
AcDbEntity
  8
0
  6
Continuous
 62
     4
100
AcDbLine
 10
712.8327422807997
 20
770.36875
 30
0.0
 11
762.1663711403994
 21
819.7023788596002
 31
0.0
1001
ACAD
1010
0.0
1020
0.0
1030
0.0
  0
LINE
  5
231
330
10F
100
AcDbEntity
  8
0
  6
Continuous
 62
     4
100
AcDbLine
 10
723.4393439985979
 20
770.36875
 30
0.0
 11
767.4696719992985
 21
814.3990780007008
 31
0.0
1001
ACAD
1010
0.0
1020
0.0
1030
0.0
  0
LINE
  5
232
330
10F
100
AcDbEntity
  8
0
  6
Continuous
 62
     4
100
AcDbLine
 10
734.0459457163965
 20
770.36875
 30
0.0
 11
771.4999999999995
 21
807.8228042836034
 31
0.0
1001
ACAD
1010
0.0
1020
0.0
1030
0.0
  0
LINE
  5
233
330
10F
100
AcDbEntity
  8
0
  6
Continuous
 62
     4
100
AcDbLine
 10
744.6525474341947
 20
770.36875
 30
0.0
 11
779.6525474341945
 21
805.36875
 31
0.0
1001
ACAD
1010
0.0
1020
0.0
1030
0.0
  0
LINE
  5
234
330
10F
100
AcDbEntity
  8
0
  6
Continuous
 62
     4
100
AcDbLine
 10
755.2591491519933
 20
770.36875
 30
0.0
 11
790.2591491519928
 21
805.36875
 31
0.0
1001
ACAD
1010
0.0
1020
0.0
1030
0.0
  0
LINE
  5
235
330
10F
100
AcDbEntity
  8
0
  6
Continuous
 62
     4
100
AcDbLine
 10
765.8657508697915
 20
770.36875
 30
0.0
 11
800.8657508697913
 21
805.36875
 31
0.0
1001
ACAD
1010
0.0
1020
0.0
1030
0.0
  0
LINE
  5
236
330
10F
100
AcDbEntity
  8
0
  6
Continuous
 62
     4
100
AcDbLine
 10
776.4723525875901
 20
770.36875
 30
0.0
 11
811.4723525875897
 21
805.36875
 31
0.0
1001
ACAD
1010
0.0
1020
0.0
1030
0.0
  0
LINE
  5
237
330
10F
100
AcDbEntity
  8
0
  6
Continuous
 62
     4
100
AcDbLine
 10
787.0789543053883
 20
770.36875
 30
0.0
 11
822.0789543053879
 21
805.36875
 31
0.0
1001
ACAD
1010
0.0
1020
0.0
1030
0.0
  0
LINE
  5
238
330
10F
100
AcDbEntity
  8
0
  6
Continuous
 62
     4
100
AcDbLine
 10
797.685556023187
 20
770.36875
 30
0.0
 11
832.6855560231866
 21
805.36875
 31
0.0
1001
ACAD
1010
0.0
1020
0.0
1030
0.0
  0
LINE
  5
239
330
10F
100
AcDbEntity
  8
0
  6
Continuous
 62
     4
100
AcDbLine
 10
808.2921577409853
 20
770.36875
 30
0.0
 11
843.292157740985
 21
805.36875
 31
0.0
1001
ACAD
1010
0.0
1020
0.0
1030
0.0
  0
LINE
  5
23A
330
10F
100
AcDbEntity
  8
0
  6
Continuous
 62
     4
100
AcDbLine
 10
818.8987594587839
 20
770.36875
 30
0.0
 11
853.8987594587833
 21
805.36875
 31
0.0
1001
ACAD
1010
0.0
1020
0.0
1030
0.0
  0
LINE
  5
23B
330
10F
100
AcDbEntity
  8
0
  6
Continuous
 62
     4
100
AcDbLine
 10
829.5053611765824
 20
770.36875
 30
0.0
 11
864.5053611765815
 21
805.36875
 31
0.0
1001
ACAD
1010
0.0
1020
0.0
1030
0.0
  0
LINE
  5
23C
330
10F
100
AcDbEntity
  8
0
  6
Continuous
 62
     4
100
AcDbLine
 10
840.1119628943806
 20
770.36875
 30
0.0
 11
875.1119628943802
 21
805.36875
 31
0.0
1001
ACAD
1010
0.0
1020
0.0
1030
0.0
  0
LINE
  5
23D
330
10F
100
AcDbEntity
  8
0
  6
Continuous
 62
     4
100
AcDbLine
 10
850.7185646121788
 20
770.36875
 30
0.0
 11
885.7185646121786
 21
805.36875
 31
0.0
1001
ACAD
1010
0.0
1020
0.0
1030
0.0
  0
LINE
  5
23E
330
10F
100
AcDbEntity
  8
0
  6
Continuous
 62
     4
100
AcDbLine
 10
861.3251663299772
 20
770.36875
 30
0.0
 11
896.325166329977
 21
805.36875
 31
0.0
1001
ACAD
1010
0.0
1020
0.0
1030
0.0
  0
LINE
  5
23F
330
10F
100
AcDbEntity
  8
0
  6
Continuous
 62
     4
100
AcDbLine
 10
871.9317680477761
 20
770.3687499999999
 30
0.0
 11
906.9317680477752
 21
805.36875
 31
0.0
1001
ACAD
1010
0.0
1020
0.0
1030
0.0
  0
LINE
  5
240
330
10F
100
AcDbEntity
  8
0
  6
Continuous
 62
     4
100
AcDbLine
 10
883.5437499999997
 20
771.3741302344256
 30
0.0
 11
917.5383697655739
 21
805.36875
 31
0.0
1001
ACAD
1010
0.0
1020
0.0
1030
0.0
  0
LINE
  5
241
330
10F
100
AcDbEntity
  8
0
  6
Continuous
 62
     4
100
AcDbLine
 10
893.1449714833727
 20
770.36875
 30
0.0
 11
928.1449714833721
 21
805.36875
 31
0.0
1001
ACAD
1010
0.0
1020
0.0
1030
0.0
  0
LINE
  5
242
330
10F
100
AcDbEntity
  8
0
  6
Continuous
 62
     4
100
AcDbLine
 10
903.7515732011708
 20
770.36875
 30
0.0
 11
938.7515732011706
 21
805.36875
 31
0.0
1001
ACAD
1010
0.0
1020
0.0
1030
0.0
  0
LINE
  5
243
330
10F
100
AcDbEntity
  8
0
  6
Continuous
 62
     4
100
AcDbLine
 10
914.3581749189698
 20
770.36875
 30
0.0
 11
949.3581749189688
 21
805.36875
 31
0.0
1001
ACAD
1010
0.0
1020
0.0
1030
0.0
  0
LINE
  5
244
330
10F
100
AcDbEntity
  8
0
  6
Continuous
 62
     4
100
AcDbLine
 10
924.9647766367679
 20
770.36875
 30
0.0
 11
959.9647766367676
 21
805.36875
 31
0.0
1001
ACAD
1010
0.0
1020
0.0
1030
0.0
  0
LINE
  5
245
330
10F
100
AcDbEntity
  8
0
  6
Continuous
 62
     4
100
AcDbLine
 10
935.5713783545665
 20
770.36875
 30
0.0
 11
970.5713783545657
 21
805.36875
 31
0.0
1001
ACAD
1010
0.0
1020
0.0
1030
0.0
  0
LINE
  5
246
330
10F
100
AcDbEntity
  8
0
  6
Continuous
 62
     4
100
AcDbLine
 10
946.177980072365
 20
770.36875
 30
0.0
 11
981.1779800723643
 21
805.36875
 31
0.0
1001
ACAD
1010
0.0
1020
0.0
1030
0.0
  0
LINE
  5
247
330
10F
100
AcDbEntity
  8
0
  6
Continuous
 62
     4
100
AcDbLine
 10
956.7845817901632
 20
770.36875
 30
0.0
 11
991.7845817901625
 21
805.36875
 31
0.0
1001
ACAD
1010
0.0
1020
0.0
1030
0.0
  0
LINE
  5
248
330
10F
100
AcDbEntity
  8
0
  6
Continuous
 62
     4
100
AcDbLine
 10
967.3911835079616
 20
770.36875
 30
0.0
 11
1017.391183507959
 21
820.3687499999981
 31
0.0
1001
ACAD
1010
0.0
1020
0.0
1030
0.0
  0
LINE
  5
249
330
10F
100
AcDbEntity
  8
0
  6
Continuous
 62
     4
100
AcDbLine
 10
977.99778522576
 20
770.36875
 30
0.0
 11
1027.997785225757
 21
820.3687499999981
 31
0.0
1001
ACAD
1010
0.0
1020
0.0
1030
0.0
  0
LINE
  5
24A
330
10F
100
AcDbEntity
  8
0
  6
Continuous
 62
     4
100
AcDbLine
 10
988.6043869435582
 20
770.36875
 30
0.0
 11
1038.604386943556
 21
820.3687499999981
 31
0.0
1001
ACAD
1010
0.0
1020
0.0
1030
0.0
  0
LINE
  5
24B
330
10F
100
AcDbEntity
  8
0
  6
Continuous
 62
     4
100
AcDbLine
 10
999.2109886613569
 20
770.36875
 30
0.0
 11
1049.210988661354
 21
820.3687499999979
 31
0.0
1001
ACAD
1010
0.0
1020
0.0
1030
0.0
  0
LINE
  5
24C
330
10F
100
AcDbEntity
  8
0
  6
Continuous
 62
     4
100
AcDbLine
 10
1009.817590379155
 20
770.36875
 30
0.0
 11
1059.817590379152
 21
820.3687499999979
 31
0.0
1001
ACAD
1010
0.0
1020
0.0
1030
0.0
  0
LINE
  5
24D
330
10F
100
AcDbEntity
  8
0
  6
Continuous
 62
     4
100
AcDbLine
 10
1020.424192096953
 20
770.36875
 30
0.0
 11
1070.42419209695
 21
820.3687499999979
 31
0.0
1001
ACAD
1010
0.0
1020
0.0
1030
0.0
  0
LINE
  5
24E
330
10F
100
AcDbEntity
  8
0
  6
Continuous
 62
     4
100
AcDbLine
 10
1031.030793814752
 20
770.36875
 30
0.0
 11
1081.030793814749
 21
820.3687499999979
 31
0.0
1001
ACAD
1010
0.0
1020
0.0
1030
0.0
  0
LINE
  5
24F
330
10F
100
AcDbEntity
  8
0
  6
Continuous
 62
     4
100
AcDbLine
 10
1041.63739553255
 20
770.36875
 30
0.0
 11
1091.637395532548
 21
820.3687499999977
 31
0.0
1001
ACAD
1010
0.0
1020
0.0
1030
0.0
  0
LINE
  5
250
330
10F
100
AcDbEntity
  8
0
  6
Continuous
 62
     4
100
AcDbLine
 10
1052.243997250349
 20
770.36875
 30
0.0
 11
1102.243997250346
 21
820.3687499999977
 31
0.0
1001
ACAD
1010
0.0
1020
0.0
1030
0.0
  0
LINE
  5
251
330
10F
100
AcDbEntity
  8
0
  6
Continuous
 62
     4
100
AcDbLine
 10
1062.850598968147
 20
770.36875
 30
0.0
 11
1112.850598968144
 21
820.3687499999977
 31
0.0
1001
ACAD
1010
0.0
1020
0.0
1030
0.0
  0
LINE
  5
252
330
10F
100
AcDbEntity
  8
0
  6
Continuous
 62
     4
100
AcDbLine
 10
1073.457200685945
 20
770.36875
 30
0.0
 11
1123.457200685942
 21
820.3687499999977
 31
0.0
1001
ACAD
1010
0.0
1020
0.0
1030
0.0
  0
LINE
  5
253
330
10F
100
AcDbEntity
  8
0
  6
Continuous
 62
     4
100
AcDbLine
 10
1084.063802403744
 20
770.36875
 30
0.0
 11
1134.063802403741
 21
820.3687499999977
 31
0.0
1001
ACAD
1010
0.0
1020
0.0
1030
0.0
  0
LINE
  5
254
330
10F
100
AcDbEntity
  8
0
  6
Continuous
 62
     4
100
AcDbLine
 10
1094.670404121542
 20
770.36875
 30
0.0
 11
1144.67040412154
 21
820.3687499999976
 31
0.0
1001
ACAD
1010
0.0
1020
0.0
1030
0.0
  0
LINE
  5
255
330
10F
100
AcDbEntity
  8
0
  6
Continuous
 62
     4
100
AcDbLine
 10
1105.277005839341
 20
770.36875
 30
0.0
 11
1108.543749999999
 21
773.6354941606593
 31
0.0
1001
ACAD
1010
0.0
1020
0.0
1030
0.0
  0
LINE
  5
256
330
10F
100
AcDbEntity
  8
0
  6
Continuous
 62
     4
100
AcDbLine
 10
1130.883607557139
 20
785.36875
 30
0.0
 11
1165.883607557139
 21
820.3687499999999
 31
0.0
1001
ACAD
1010
0.0
1020
0.0
1030
0.0
  0
LINE
  5
257
330
10F
100
AcDbEntity
  8
0
  6
Continuous
 62
     4
100
AcDbLine
 10
1141.490209274938
 20
785.36875
 30
0.0
 11
1175.016979637468
 21
818.8955203625313
 31
0.0
1001
ACAD
1010
0.0
1020
0.0
1030
0.0
  0
LINE
  5
258
330
10F
100
AcDbEntity
  8
0
  6
Continuous
 62
     4
100
AcDbLine
 10
1152.096810992736
 20
785.36875
 30
0.0
 11
1180.320280496367
 21
813.5922195036322
 31
0.0
1001
ACAD
1010
0.0
1020
0.0
1030
0.0
  0
LINE
  5
259
330
10F
100
AcDbEntity
  8
0
  6
Continuous
 62
     4
100
AcDbLine
 10
1162.703412710534
 20
785.36875
 30
0.0
 11
1183.54375
 21
806.2090872894653
 31
0.0
1001
ACAD
1010
0.0
1020
0.0
1030
0.0
  0
LINE
  5
262
330
10F
100
AcDbEntity
  8
0
  6
Continuous
 62
     4
100
AcDbLine
 10
995.5874999999997
 20
809.171668209837
 30
0.0
 11
1006.784581790161
 21
820.3687499999981
 31
0.0
1001
ACAD
1010
0.0
1020
0.0
1030
0.0
  0
LINE
  5
265
330
10F
100
AcDbEntity
  8
0
  6
Continuous
 62
     4
100
AcDbLine
 10
1120.277005839341
 20
785.36875
 30
0.0
 11
1155.27700583934
 21
820.3687499999999
 31
0.0
1001
ACAD
1010
0.0
1020
0.0
1030
0.0
  0
LINE
  5
266
330
10F
100
AcDbEntity
  8
0
  6
Continuous
 62
     4
100
AcDbLine
 10
583.5437499999998
 20
535.2475334861768
 30
0.0
 11
603.6649665138227
 21
555.3687499999998
 31
0.0
1001
ACAD
1010
0.0
1020
0.0
1030
0.0
  0
LINE
  5
267
330
10F
100
AcDbEntity
  8
0
  6
Continuous
 62
     4
100
AcDbLine
 10
586.4076591158107
 20
527.504840884189
 30
0.0
 11
614.2715682316214
 21
555.3687499999998
 31
0.0
1001
ACAD
1010
0.0
1020
0.0
1030
0.0
  0
LINE
  5
268
330
10F
100
AcDbEntity
  8
0
  6
Continuous
 62
     4
100
AcDbLine
 10
591.7109599747099
 20
522.2015400252896
 30
0.0
 11
624.87816994942
 21
555.3687499999998
 31
0.0
1001
ACAD
1010
0.0
1020
0.0
1030
0.0
  0
LINE
  5
269
330
10F
100
AcDbEntity
  8
0
  6
Continuous
 62
     4
100
AcDbLine
 10
600.4847716672193
 20
520.36875
 30
0.0
 11
635.4847716672188
 21
555.3687499999998
 31
0.0
1001
ACAD
1010
0.0
1020
0.0
1030
0.0
  0
LINE
  5
26A
330
10F
100
AcDbEntity
  8
0
  6
Continuous
 62
     4
100
AcDbLine
 10
611.0913733850179
 20
520.36875
 30
0.0
 11
646.0913733850174
 21
555.3687499999998
 31
0.0
1001
ACAD
1010
0.0
1020
0.0
1030
0.0
  0
LINE
  5
26B
330
10F
100
AcDbEntity
  8
0
  6
Continuous
 62
     4
100
AcDbLine
 10
621.6979751028166
 20
520.36875
 30
0.0
 11
671.6979751028161
 21
570.36875
 31
0.0
1001
ACAD
1010
0.0
1020
0.0
1030
0.0
  0
LINE
  5
26C
330
10F
100
AcDbEntity
  8
0
  6
Continuous
 62
     4
100
AcDbLine
 10
632.3045768206152
 20
520.36875
 30
0.0
 11
682.3045768206148
 21
570.36875
 31
0.0
1001
ACAD
1010
0.0
1020
0.0
1030
0.0
  0
LINE
  5
26D
330
10F
100
AcDbEntity
  8
0
  6
Continuous
 62
     4
100
AcDbLine
 10
642.9111785384138
 20
520.36875
 30
0.0
 11
692.9111785384138
 21
570.36875
 31
0.0
1001
ACAD
1010
0.0
1020
0.0
1030
0.0
  0
LINE
  5
26E
330
10F
100
AcDbEntity
  8
0
  6
Continuous
 62
     4
100
AcDbLine
 10
658.5437499999998
 20
567.821126614982
 30
0.0
 11
661.0913733850177
 21
570.36875
 31
0.0
1001
ACAD
1010
0.0
1020
0.0
1030
0.0
  0
LINE
  5
26F
330
10F
100
AcDbEntity
  8
0
  6
Continuous
 62
     4
100
AcDbLine
 10
653.5177802562127
 20
520.36875
 30
0.0
 11
703.517780256212
 21
570.36875
 31
0.0
1001
ACAD
1010
0.0
1020
0.0
1030
0.0
  0
LINE
  5
270
330
10F
100
AcDbEntity
  8
0
  6
Continuous
 62
     4
100
AcDbLine
 10
664.1243819740114
 20
520.36875
 30
0.0
 11
714.1243819740114
 21
570.36875
 31
0.0
1001
ACAD
1010
0.0
1020
0.0
1030
0.0
  0
LINE
  5
271
330
10F
100
AcDbEntity
  8
0
  6
Continuous
 62
     4
100
AcDbLine
 10
674.7309836918102
 20
520.36875
 30
0.0
 11
724.7309836918096
 21
570.36875
 31
0.0
1001
ACAD
1010
0.0
1020
0.0
1030
0.0
  0
LINE
  5
272
330
10F
100
AcDbEntity
  8
0
  6
Continuous
 62
     4
100
AcDbLine
 10
685.3375854096088
 20
520.36875
 30
0.0
 11
735.3375854096088
 21
570.36875
 31
0.0
1001
ACAD
1010
0.0
1020
0.0
1030
0.0
  0
LINE
  5
273
330
10F
100
AcDbEntity
  8
0
  6
Continuous
 62
     4
100
AcDbLine
 10
695.9441871274075
 20
520.36875
 30
0.0
 11
745.944187127407
 21
570.36875
 31
0.0
1001
ACAD
1010
0.0
1020
0.0
1030
0.0
  0
LINE
  5
274
330
10F
100
AcDbEntity
  8
0
  6
Continuous
 62
     4
100
AcDbLine
 10
706.5507888452061
 20
520.36875
 30
0.0
 11
756.5507888452061
 21
570.36875
 31
0.0
1001
ACAD
1010
0.0
1020
0.0
1030
0.0
  0
LINE
  5
275
330
10F
100
AcDbEntity
  8
0
  6
Continuous
 62
     4
100
AcDbLine
 10
717.1573905630047
 20
520.36875
 30
0.0
 11
767.1573905630043
 21
570.36875
 31
0.0
1001
ACAD
1010
0.0
1020
0.0
1030
0.0
  0
LINE
  5
276
330
10F
100
AcDbEntity
  8
0
  6
Continuous
 62
     4
100
AcDbLine
 10
725.6538711404019
 20
518.2586288595981
 30
0.0
 11
777.7639922808035
 21
570.36875
 31
0.0
1001
ACAD
1010
0.0
1020
0.0
1030
0.0
  0
LINE
  5
277
330
10F
100
AcDbEntity
  8
0
  6
Continuous
 62
     4
100
AcDbLine
 10
730.9571719993009
 20
512.9553280006986
 30
0.0
 11
783.5437499999998
 21
565.541906001398
 31
0.0
1001
ACAD
1010
0.0
1020
0.0
1030
0.0
  0
LINE
  5
278
330
10F
100
AcDbEntity
  8
0
  6
Continuous
 62
     4
100
AcDbLine
 10
733.5437499999998
 20
504.9353042835988
 30
0.0
 11
783.5437499999998
 21
554.9353042835988
 31
0.0
1001
ACAD
1010
0.0
1020
0.0
1030
0.0
  0
LINE
  5
279
330
10F
100
AcDbEntity
  8
0
  6
Continuous
 62
     4
100
AcDbLine
 10
733.5437499999998
 20
494.3287025657997
 30
0.0
 11
783.5437499999998
 21
544.3287025658003
 31
0.0
1001
ACAD
1010
0.0
1020
0.0
1030
0.0
  0
LINE
  5
27A
330
10F
100
AcDbEntity
  8
0
  6
Continuous
 62
     4
100
AcDbLine
 10
733.5437499999998
 20
483.7221008480014
 30
0.0
 11
783.5437499999998
 21
533.7221008480014
 31
0.0
1001
ACAD
1010
0.0
1020
0.0
1030
0.0
  0
LINE
  5
27B
330
10F
100
AcDbEntity
  8
0
  6
Continuous
 62
     4
100
AcDbLine
 10
733.5437499999998
 20
473.115499130202
 30
0.0
 11
783.5437499999998
 21
523.1154991302027
 31
0.0
1001
ACAD
1010
0.0
1020
0.0
1030
0.0
  0
LINE
  5
27D
330
10F
100
AcDbEntity
  8
0
  6
Continuous
 62
     4
100
AcDbLine
 10
733.5437499999998
 20
462.5088974124035
 30
0.0
 11
783.5437499999998
 21
512.5088974124034
 31
0.0
1001
ACAD
1010
0.0
1020
0.0
1030
0.0
  0
LINE
  5
27E
330
10F
100
AcDbEntity
  8
0
  6
Continuous
 62
     4
100
AcDbLine
 10
733.5437499999998
 20
451.9022956946043
 30
0.0
 11
783.5437499999998
 21
501.902295694605
 31
0.0
1001
ACAD
1010
0.0
1020
0.0
1030
0.0
  0
LINE
  5
27F
330
10F
100
AcDbEntity
  8
0
  6
Continuous
 62
     4
100
AcDbLine
 10
733.5437499999998
 20
441.2956939768061
 30
0.0
 11
783.5437499999998
 21
491.2956939768061
 31
0.0
1001
ACAD
1010
0.0
1020
0.0
1030
0.0
  0
LINE
  5
280
330
10F
100
AcDbEntity
  8
0
  6
Continuous
 62
     4
100
AcDbLine
 10
733.5437499999998
 20
430.6890922590066
 30
0.0
 11
783.5437499999998
 21
480.6890922590073
 31
0.0
1001
ACAD
1010
0.0
1020
0.0
1030
0.0
  0
LINE
  5
281
330
10F
100
AcDbEntity
  8
0
  6
Continuous
 62
     4
100
AcDbLine
 10
733.5437499999998
 20
420.0824905412082
 30
0.0
 11
783.5437499999998
 21
470.0824905412082
 31
0.0
1001
ACAD
1010
0.0
1020
0.0
1030
0.0
  0
LINE
  5
282
330
10F
100
AcDbEntity
  8
0
  6
Continuous
 62
     4
100
AcDbLine
 10
733.5437499999998
 20
409.4758888234091
 30
0.0
 11
783.5437499999998
 21
459.4758888234097
 31
0.0
1001
ACAD
1010
0.0
1020
0.0
1030
0.0
  0
LINE
  5
283
330
10F
100
AcDbEntity
  8
0
  6
Continuous
 62
     4
100
AcDbLine
 10
733.5437499999998
 20
398.8692871056109
 30
0.0
 11
768.5437499999998
 21
433.8692871056107
 31
0.0
1001
ACAD
1010
0.0
1020
0.0
1030
0.0
  0
LINE
  5
284
330
10F
100
AcDbEntity
  8
0
  6
Continuous
 62
     4
100
AcDbLine
 10
733.5437499999998
 20
388.2626853878114
 30
0.0
 11
768.5437499999998
 21
423.2626853878118
 31
0.0
1001
ACAD
1010
0.0
1020
0.0
1030
0.0
  0
LINE
  5
285
330
10F
100
AcDbEntity
  8
0
  6
Continuous
 62
     4
100
AcDbLine
 10
734.9000831649932
 20
379.0124168350065
 30
0.0
 11
768.5437499999998
 21
412.6560836700129
 31
0.0
1001
ACAD
1010
0.0
1020
0.0
1030
0.0
  0
LINE
  5
286
330
10F
100
AcDbEntity
  8
0
  6
Continuous
 62
     4
100
AcDbLine
 10
740.2033840238928
 20
373.7091159761069
 30
0.0
 11
768.5437499999998
 21
402.0494819522141
 31
0.0
1001
ACAD
1010
0.0
1020
0.0
1030
0.0
  0
LINE
  5
287
330
10F
100
AcDbEntity
  8
0
  6
Continuous
 62
     4
100
AcDbLine
 10
747.4696197655844
 20
370.36875
 30
0.0
 11
768.5437499999998
 21
391.4428802344153
 31
0.0
1001
ACAD
1010
0.0
1020
0.0
1030
0.0
  0
LINE
  5
288
330
10F
100
AcDbEntity
  8
0
  6
Continuous
 62
     4
100
AcDbLine
 10
758.0762214833835
 20
370.36875
 30
0.0
 11
768.5437499999998
 21
380.8362785166165
 31
0.0
1001
ACAD
1010
0.0
1020
0.0
1030
0.0
  0
LINE
  5
289
330
10F
100
AcDbEntity
  8
0
  6
Continuous
 62
     4
100
AcDbLine
 10
780.043212894389
 20
445.36875
 30
0.0
 11
783.5437499999998
 21
448.8692871056108
 31
0.0
1001
ACAD
1010
0.0
1020
0.0
1030
0.0
  0
LINE
  5
28A
330
10F
100
AcDbEntity
  8
0
  6
Continuous
 62
     4
100
AcDbLine
 10
983.5437499999997
 20
560.178783486177
 30
0.0
 11
993.7337165138226
 21
570.36875
 31
0.0
1001
ACAD
1010
0.0
1020
0.0
1030
0.0
  0
LINE
  5
28B
330
10F
100
AcDbEntity
  8
0
  6
Continuous
 62
     4
100
AcDbLine
 10
983.5437499999997
 20
549.5721817683783
 30
0.0
 11
1004.340318231621
 21
570.36875
 31
0.0
1001
ACAD
1010
0.0
1020
0.0
1030
0.0
  0
LINE
  5
28C
330
10F
100
AcDbEntity
  8
0
  6
Continuous
 62
     4
100
AcDbLine
 10
983.5437499999997
 20
538.9655800505794
 30
0.0
 11
1014.94691994942
 21
570.36875
 31
0.0
1001
ACAD
1010
0.0
1020
0.0
1030
0.0
  0
LINE
  5
28D
330
10F
100
AcDbEntity
  8
0
  6
Continuous
 62
     4
100
AcDbLine
 10
983.5437499999997
 20
528.3589783327807
 30
0.0
 11
1025.553521667219
 21
570.36875
 31
0.0
1001
ACAD
1010
0.0
1020
0.0
1030
0.0
  0
LINE
  5
28E
330
10F
100
AcDbEntity
  8
0
  6
Continuous
 62
     4
100
AcDbLine
 10
983.5437499999997
 20
517.7523766149819
 30
0.0
 11
1036.160123385017
 21
570.36875
 31
0.0
1001
ACAD
1010
0.0
1020
0.0
1030
0.0
  0
LINE
  5
28F
330
10F
100
AcDbEntity
  8
0
  6
Continuous
 62
     4
100
AcDbLine
 10
983.5437499999997
 20
507.145774897183
 30
0.0
 11
1046.766725102816
 21
570.36875
 31
0.0
1001
ACAD
1010
0.0
1020
0.0
1030
0.0
  0
LINE
  5
290
330
10F
100
AcDbEntity
  8
0
  6
Continuous
 62
     4
100
AcDbLine
 10
983.5437499999997
 20
496.539173179384
 30
0.0
 11
1057.373326820615
 21
570.36875
 31
0.0
1001
ACAD
1010
0.0
1020
0.0
1030
0.0
  0
LINE
  5
291
330
10F
100
AcDbEntity
  8
0
  6
Continuous
 62
     4
100
AcDbLine
 10
983.5437499999997
 20
485.9325714615851
 30
0.0
 11
1067.979928538413
 21
570.36875
 31
0.0
1001
ACAD
1010
0.0
1020
0.0
1030
0.0
  0
LINE
  5
292
330
10F
100
AcDbEntity
  8
0
  6
Continuous
 62
     4
100
AcDbLine
 10
983.5437499999997
 20
475.3259697437865
 30
0.0
 11
1078.586530256212
 21
570.36875
 31
0.0
1001
ACAD
1010
0.0
1020
0.0
1030
0.0
  0
LINE
  5
293
330
10F
100
AcDbEntity
  8
0
  6
Continuous
 62
     4
100
AcDbLine
 10
983.5437499999997
 20
464.7193680259873
 30
0.0
 11
1089.19313197401
 21
570.36875
 31
0.0
1001
ACAD
1010
0.0
1020
0.0
1030
0.0
  0
LINE
  5
294
330
10F
100
AcDbEntity
  8
0
  6
Continuous
 62
     4
100
AcDbLine
 10
983.5437499999997
 20
454.1127663081884
 30
0.0
 11
1033.543749999999
 21
504.1127663081895
 31
0.0
1001
ACAD
1010
0.0
1020
0.0
1030
0.0
  0
LINE
  5
295
330
10F
100
AcDbEntity
  8
0
  6
Continuous
 62
     4
100
AcDbLine
 10
985.4063354096101
 20
445.36875
 30
0.0
 11
1033.543749999999
 21
493.5061645903905
 31
0.0
1001
ACAD
1010
0.0
1020
0.0
1030
0.0
  0
LINE
  5
296
330
10F
100
AcDbEntity
  8
0
  6
Continuous
 62
     4
100
AcDbLine
 10
994.7783435637044
 20
444.1341564362954
 30
0.0
 11
1033.543749999999
 21
482.8995628725914
 31
0.0
1001
ACAD
1010
0.0
1020
0.0
1030
0.0
  0
LINE
  5
297
330
10F
100
AcDbEntity
  8
0
  6
Continuous
 62
     4
100
AcDbLine
 10
998.5437499999997
 20
437.2929611547922
 30
0.0
 11
1033.543749999999
 21
472.292961154793
 31
0.0
1001
ACAD
1010
0.0
1020
0.0
1030
0.0
  0
LINE
  5
298
330
10F
100
AcDbEntity
  8
0
  6
Continuous
 62
     4
100
AcDbLine
 10
998.5437499999997
 20
426.6863594369934
 30
0.0
 11
1033.543749999999
 21
461.6863594369942
 31
0.0
1001
ACAD
1010
0.0
1020
0.0
1030
0.0
  0
LINE
  5
299
330
10F
100
AcDbEntity
  8
0
  6
Continuous
 62
     4
100
AcDbLine
 10
998.5437499999997
 20
416.0797577191945
 30
0.0
 11
1033.543749999999
 21
451.0797577191953
 31
0.0
1001
ACAD
1010
0.0
1020
0.0
1030
0.0
  0
LINE
  5
29A
330
10F
100
AcDbEntity
  8
0
  6
Continuous
 62
     4
100
AcDbLine
 10
998.5437499999997
 20
405.4731560013955
 30
0.0
 11
1033.543749999999
 21
440.4731560013963
 31
0.0
1001
ACAD
1010
0.0
1020
0.0
1030
0.0
  0
LINE
  5
29B
330
10F
100
AcDbEntity
  8
0
  6
Continuous
 62
     4
100
AcDbLine
 10
998.5437499999997
 20
394.8665542835969
 30
0.0
 11
1033.543749999999
 21
429.8665542835975
 31
0.0
1001
ACAD
1010
0.0
1020
0.0
1030
0.0
  0
LINE
  5
29C
330
10F
100
AcDbEntity
  8
0
  6
Continuous
 62
     4
100
AcDbLine
 10
998.5437499999997
 20
384.2599525657981
 30
0.0
 11
1033.543749999999
 21
419.2599525657985
 31
0.0
1001
ACAD
1010
0.0
1020
0.0
1030
0.0
  0
LINE
  5
29D
330
10F
100
AcDbEntity
  8
0
  6
Continuous
 62
     4
100
AcDbLine
 10
1001.867074576
 20
376.9766754239997
 30
0.0
 11
1033.543749999999
 21
408.6533508479996
 31
0.0
1001
ACAD
1010
0.0
1020
0.0
1030
0.0
  0
LINE
  5
29E
330
10F
100
AcDbEntity
  8
0
  6
Continuous
 62
     4
100
AcDbLine
 10
1007.170375434899
 20
371.6733745651002
 30
0.0
 11
1033.543749999999
 21
398.0467491302008
 31
0.0
1001
ACAD
1010
0.0
1020
0.0
1030
0.0
  0
LINE
  5
29F
330
10F
100
AcDbEntity
  8
0
  6
Continuous
 62
     4
100
AcDbLine
 10
1016.472352587598
 20
370.36875
 30
0.0
 11
1033.543749999999
 21
387.4401474124021
 31
0.0
1001
ACAD
1010
0.0
1020
0.0
1030
0.0
  0
LINE
  5
2A0
330
10F
100
AcDbEntity
  8
0
  6
Continuous
 62
     4
100
AcDbLine
 10
1166.472352587595
 20
520.36875
 30
0.0
 11
1183.54375
 21
537.4401474124051
 31
0.0
1001
ACAD
1010
0.0
1020
0.0
1030
0.0
  0
LINE
  5
2A1
330
10F
100
AcDbEntity
  8
0
  6
Continuous
 62
     4
100
AcDbLine
 10
1155.865750869796
 20
520.36875
 30
0.0
 11
1182.239125434898
 21
546.7421245651021
 31
0.0
1001
ACAD
1010
0.0
1020
0.0
1030
0.0
  0
LINE
  5
2A2
330
10F
100
AcDbEntity
  8
0
  6
Continuous
 62
     4
100
AcDbLine
 10
1145.259149151998
 20
520.36875
 30
0.0
 11
1176.935824575997
 21
552.0454254240011
 31
0.0
1001
ACAD
1010
0.0
1020
0.0
1030
0.0
  0
LINE
  5
2A3
330
10F
100
AcDbEntity
  8
0
  6
Continuous
 62
     4
100
AcDbLine
 10
1134.652547434199
 20
520.36875
 30
0.0
 11
1169.652547434198
 21
555.3687499999998
 31
0.0
1001
ACAD
1010
0.0
1020
0.0
1030
0.0
  0
LINE
  5
2A4
330
10F
100
AcDbEntity
  8
0
  6
Continuous
 62
     4
100
AcDbLine
 10
1124.0459457164
 20
520.36875
 30
0.0
 11
1159.0459457164
 21
555.3687499999998
 31
0.0
1001
ACAD
1010
0.0
1020
0.0
1030
0.0
  0
LINE
  5
2A5
330
10F
100
AcDbEntity
  8
0
  6
Continuous
 62
     4
100
AcDbLine
 10
1113.439343998601
 20
520.36875
 30
0.0
 11
1148.4393439986
 21
555.3687499999998
 31
0.0
1001
ACAD
1010
0.0
1020
0.0
1030
0.0
  0
LINE
  5
2A6
330
10F
100
AcDbEntity
  8
0
  6
Continuous
 62
     4
100
AcDbLine
 10
1102.832742280803
 20
520.36875
 30
0.0
 11
1137.832742280802
 21
555.3687499999998
 31
0.0
1001
ACAD
1010
0.0
1020
0.0
1030
0.0
  0
LINE
  5
2A7
330
10F
100
AcDbEntity
  8
0
  6
Continuous
 62
     4
100
AcDbLine
 10
1092.226140563004
 20
520.36875
 30
0.0
 11
1127.226140563003
 21
555.3687499999998
 31
0.0
1001
ACAD
1010
0.0
1020
0.0
1030
0.0
  0
LINE
  5
2A8
330
10F
100
AcDbEntity
  8
0
  6
Continuous
 62
     4
100
AcDbLine
 10
1081.619538845205
 20
520.36875
 30
0.0
 11
1116.619538845204
 21
555.3687499999998
 31
0.0
1001
ACAD
1010
0.0
1020
0.0
1030
0.0
  0
LINE
  5
2A9
330
10F
100
AcDbEntity
  8
0
  6
Continuous
 62
     4
100
AcDbLine
 10
1071.012937127407
 20
520.36875
 30
0.0
 11
1109.778343563703
 21
559.1341564362966
 31
0.0
1001
ACAD
1010
0.0
1020
0.0
1030
0.0
  0
LINE
  5
2AA
330
10F
100
AcDbEntity
  8
0
  6
Continuous
 62
     4
100
AcDbLine
 10
1060.406335409608
 20
520.36875
 30
0.0
 11
1108.543749999999
 21
568.5061645903922
 31
0.0
1001
ACAD
1010
0.0
1020
0.0
1030
0.0
  0
LINE
  5
2AB
330
10F
100
AcDbEntity
  8
0
  6
Continuous
 62
     4
100
AcDbLine
 10
1049.799733691809
 20
520.36875
 30
0.0
 11
1099.799733691809
 21
570.36875
 31
0.0
1001
ACAD
1010
0.0
1020
0.0
1030
0.0
  0
LINE
  5
2AC
330
10F
100
AcDbEntity
  8
1
  6
Continuous
 62
     7
100
AcDbLine
 10
1033.54375
 20
380.3687499999999
 30
0.0
 11
1033.54375
 21
510.3687499999998
 31
0.0
  0
LINE
  5
2AD
330
10F
100
AcDbEntity
  8
1
  6
Continuous
 62
     7
100
AcDbLine
 10
1043.54375
 20
520.36875
 30
0.0
 11
1173.54375
 21
520.36875
 31
0.0
  0
LINE
  5
2AE
330
10F
100
AcDbEntity
  8
1
  6
Continuous
 62
     7
100
AcDbLine
 10
983.5437500000001
 20
570.36875
 30
0.0
 11
1108.543749999999
 21
570.36875
 31
0.0
  0
LINE
  5
2AF
330
10F
100
AcDbEntity
  8
1
  6
Continuous
 62
     7
100
AcDbLine
 10
1108.543749999999
 20
770.36875
 30
0.0
 11
658.54375
 21
770.36875
 31
0.0
  0
LINE
  5
2B0
330
10F
100
AcDbEntity
  8
1
  6
Continuous
 62
     7
100
AcDbLine
 10
733.54375
 20
380.3687499999999
 30
0.0
 11
733.54375
 21
510.3687499999998
 31
0.0
  0
LINE
  5
2B1
330
10F
100
AcDbEntity
  8
1
  6
Continuous
 62
     7
100
AcDbLine
 10
723.54375
 20
520.36875
 30
0.0
 11
593.54375
 21
520.36875
 31
0.0
  0
LINE
  5
2B2
330
10F
100
AcDbEntity
  8
1
  6
Continuous
 62
     7
100
AcDbLine
 10
783.54375
 20
570.36875
 30
0.0
 11
658.54375
 21
570.36875
 31
0.0
  0
LINE
  5
2B3
330
10F
100
AcDbEntity
  8
1
  6
Continuous
 62
     7
100
AcDbLine
 10
783.54375
 20
570.36875
 30
0.0
 11
883.5437500000002
 21
670.36875
 31
0.0
  0
LINE
  5
2B4
330
10F
100
AcDbEntity
  8
1
  6
Continuous
 62
     7
100
AcDbLine
 10
883.5437500000002
 20
670.36875
 30
0.0
 11
983.5437500000001
 21
570.36875
 31
0.0
  0
LINE
  5
2B5
330
10F
100
AcDbEntity
  8
1
  6
Continuous
 62
     7
100
AcDbLine
 10
593.54375
 20
820.3687499999999
 30
0.0
 11
761.5
 21
820.3687499999999
 31
0.0
  0
LINE
  5
2B6
330
10F
100
AcDbEntity
  8
1
  6
Continuous
 62
     7
100
AcDbLine
 10
1173.54375
 20
820.3687499999999
 30
0.0
 11
1005.5875
 21
820.3687499999999
 31
0.0
  0
LINE
  5
2B7
330
10F
100
AcDbEntity
  8
1
  6
Continuous
 62
     7
100
AcDbLine
 10
771.4999999999995
 20
805.36875
 30
0.0
 11
995.5875
 21
805.36875
 31
0.0
  0
LINE
  5
2B8
330
10F
100
AcDbEntity
  8
1
  6
Continuous
 62
     7
100
AcDbLine
 10
771.4999999999995
 20
810.3687499999999
 30
0.0
 11
771.4999999999995
 21
805.36875
 31
0.0
  0
LINE
  5
2B9
330
10F
100
AcDbEntity
  8
1
  6
Continuous
 62
     7
100
AcDbLine
 10
995.5875
 20
810.3687499999999
 30
0.0
 11
995.5875
 21
805.36875
 31
0.0
  0
LINE
  5
2BA
330
10F
100
AcDbEntity
  8
1
  6
Continuous
 62
     3
100
AcDbLine
 10
658.54375
 20
790.0
 30
0.0
 11
658.54375
 21
956.2124999999999
 31
0.0
  0
LINE
  5
2BB
330
10F
100
AcDbEntity
  8
1
  6
Continuous
 62
     3
100
AcDbLine
 10
1108.543749999999
 20
790.0
 30
0.0
 11
1108.543749999999
 21
956.2124999999999
 31
0.0
  0
LINE
  5
2BC
330
10F
100
AcDbEntity
  8
1
  6
Continuous
 62
     3
100
AcDbLine
 10
883.5437500000002
 20
815.36875
 30
0.0
 11
883.5437500000002
 21
956.2124999999999
 31
0.0
  0
LINE
  5
2BD
330
10F
100
AcDbEntity
  8
1
  6
Continuous
 62
     3
100
AcDbLine
 10
682.2562499999999
 20
947.1312499999999
 30
0.0
 11
859.83125
 21
947.1312499999999
 31
0.0
  0
LINE
  5
2BE
330
10F
100
AcDbEntity
  8
1
  6
Continuous
 62
     3
100
AcDbLine
 10
907.25625
 20
947.1312499999999
 30
0.0
 11
1084.83125
 21
947.1312499999999
 31
0.0
  0
LINE
  5
2BF
330
10F
100
AcDbEntity
  8
1
  6
Continuous
 62
     3
100
AcDbLine
 10
883.5437500000002
 20
947.1312499999999
 30
0.0
 11
859.83125
 21
940.5750000000001
 31
0.0
  0
LINE
  5
2C0
330
10F
100
AcDbEntity
  8
1
  6
Continuous
 62
     3
100
AcDbLine
 10
883.5437500000002
 20
947.1312499999999
 30
0.0
 11
859.83125
 21
953.6875
 31
0.0
  0
LINE
  5
2C1
330
10F
100
AcDbEntity
  8
1
  6
Continuous
 62
     3
100
AcDbLine
 10
859.83125
 20
953.6875
 30
0.0
 11
859.83125
 21
940.5750000000001
 31
0.0
  0
LINE
  5
2C2
330
10F
100
AcDbEntity
  8
1
  6
Continuous
 62
     3
100
AcDbLine
 10
1108.543749999999
 20
947.1312499999999
 30
0.0
 11
1084.83125
 21
940.5750000000001
 31
0.0
  0
LINE
  5
2C3
330
10F
100
AcDbEntity
  8
1
  6
Continuous
 62
     3
100
AcDbLine
 10
1108.543749999999
 20
947.1312499999999
 30
0.0
 11
1084.83125
 21
953.6875
 31
0.0
  0
LINE
  5
2C4
330
10F
100
AcDbEntity
  8
1
  6
Continuous
 62
     3
100
AcDbLine
 10
1084.83125
 20
953.6875
 30
0.0
 11
1084.83125
 21
940.5750000000001
 31
0.0
  0
LINE
  5
2C5
330
10F
100
AcDbEntity
  8
1
  6
Continuous
 62
     3
100
AcDbLine
 10
658.54375
 20
947.1312499999999
 30
0.0
 11
682.2562499999999
 21
953.6875
 31
0.0
  0
LINE
  5
2C6
330
10F
100
AcDbEntity
  8
1
  6
Continuous
 62
     3
100
AcDbLine
 10
658.54375
 20
947.1312499999999
 30
0.0
 11
682.2562499999999
 21
940.5750000000001
 31
0.0
  0
LINE
  5
2C7
330
10F
100
AcDbEntity
  8
1
  6
Continuous
 62
     3
100
AcDbLine
 10
682.2562499999999
 20
940.5750000000001
 30
0.0
 11
682.2562499999999
 21
953.6875
 31
0.0
  0
LINE
  5
2C8
330
10F
100
AcDbEntity
  8
1
  6
Continuous
 62
     3
100
AcDbLine
 10
883.5437500000002
 20
947.1312499999999
 30
0.0
 11
907.25625
 21
953.6875
 31
0.0
  0
LINE
  5
2C9
330
10F
100
AcDbEntity
  8
1
  6
Continuous
 62
     3
100
AcDbLine
 10
883.5437500000002
 20
947.1312499999999
 30
0.0
 11
907.25625
 21
940.5750000000001
 31
0.0
  0
LINE
  5
2CA
330
10F
100
AcDbEntity
  8
1
  6
Continuous
 62
     3
100
AcDbLine
 10
907.25625
 20
940.5750000000001
 30
0.0
 11
907.25625
 21
953.6875
 31
0.0
  0
LINE
  5
2CB
330
10F
100
AcDbEntity
  8
1
  6
Continuous
 62
     3
100
AcDbLine
 10
450.4999999999998
 20
671.0
 30
0.0
 11
577.5
 21
671.0
 31
0.0
  0
LINE
  5
2CC
330
10F
100
AcDbEntity
  8
1
  6
Continuous
 62
     3
100
AcDbLine
 10
450.4999999999998
 20
371.0
 30
0.0
 11
723.0
 21
371.0
 31
0.0
  0
LINE
  5
2CD
330
10F
100
AcDbEntity
  8
1
  6
Continuous
 62
     3
100
AcDbLine
 10
461.95
 20
671.0
 30
0.0
 11
468.5062499999999
 21
647.2875
 31
0.0
  0
LINE
  5
2CE
330
10F
100
AcDbEntity
  8
1
  6
Continuous
 62
     3
100
AcDbLine
 10
461.95
 20
671.0
 30
0.0
 11
455.3937499999997
 21
647.2875
 31
0.0
  0
LINE
  5
2CF
330
10F
100
AcDbEntity
  8
1
  6
Continuous
 62
     3
100
AcDbLine
 10
455.3937499999997
 20
647.2875
 30
0.0
 11
468.5062499999999
 21
647.2875
 31
0.0
  0
LINE
  5
2D0
330
10F
100
AcDbEntity
  8
1
  6
Continuous
 62
     3
100
AcDbLine
 10
461.95
 20
371.0
 30
0.0
 11
455.3937499999997
 21
394.7124999999999
 31
0.0
  0
LINE
  5
2D1
330
10F
100
AcDbEntity
  8
1
  6
Continuous
 62
     3
100
AcDbLine
 10
461.95
 20
371.0
 30
0.0
 11
468.5062499999999
 21
394.7124999999999
 31
0.0
  0
LINE
  5
2D2
330
10F
100
AcDbEntity
  8
1
  6
Continuous
 62
     3
100
AcDbLine
 10
468.5062499999999
 20
394.7124999999999
 30
0.0
 11
455.3937499999997
 21
394.7124999999999
 31
0.0
  0
LINE
  5
2D3
330
10F
100
AcDbEntity
  8
1
  6
Continuous
 62
     3
100
AcDbLine
 10
924.5437500000001
 20
829.0812499999997
 30
0.0
 11
924.5437500000001
 21
867.825
 31
0.0
  0
LINE
  5
2D4
330
10F
100
AcDbEntity
  8
1
  6
Continuous
 62
     3
100
AcDbLine
 10
924.5437500000001
 20
720.95
 30
0.0
 11
924.5437500000001
 21
746.65625
 31
0.0
  0
LINE
  5
2D5
330
10F
100
AcDbEntity
  8
1
  6
Continuous
 62
     3
100
AcDbLine
 10
924.5437500000001
 20
770.36875
 30
0.0
 11
931.0999999999999
 21
746.65625
 31
0.0
  0
LINE
  5
2D6
330
10F
100
AcDbEntity
  8
1
  6
Continuous
 62
     3
100
AcDbLine
 10
924.5437500000001
 20
770.36875
 30
0.0
 11
917.9874999999999
 21
746.65625
 31
0.0
  0
LINE
  5
2D7
330
10F
100
AcDbEntity
  8
1
  6
Continuous
 62
     3
100
AcDbLine
 10
917.9874999999999
 20
746.65625
 30
0.0
 11
931.0999999999999
 21
746.65625
 31
0.0
  0
LINE
  5
2D8
330
10F
100
AcDbEntity
  8
1
  6
Continuous
 62
     3
100
AcDbLine
 10
924.5437500000001
 20
805.36875
 30
0.0
 11
917.9874999999999
 21
829.0812499999997
 31
0.0
  0
LINE
  5
2D9
330
10F
100
AcDbEntity
  8
1
  6
Continuous
 62
     3
100
AcDbLine
 10
924.5437500000001
 20
805.36875
 30
0.0
 11
931.0999999999999
 21
829.0812499999997
 31
0.0
  0
LINE
  5
2DA
330
10F
100
AcDbEntity
  8
1
  6
Continuous
 62
     3
100
AcDbLine
 10
931.0999999999999
 20
829.0812499999997
 30
0.0
 11
917.9874999999999
 21
829.0812499999997
 31
0.0
  0
LINE
  5
2DB
330
10F
100
AcDbEntity
  8
1
  6
Continuous
 62
     3
100
AcDbLine
 10
924.5437500000001
 20
770.36875
 30
0.0
 11
924.5437500000001
 21
805.36875
 31
0.0
  0
LINE
  5
2DC
330
10F
100
AcDbEntity
  8
1
  6
Continuous
 62
     7
100
AcDbLine
 10
723.54375
 20
520.36875
 30
0.0
 11
733.54375
 21
510.3687499999998
 31
0.0
  0
LINE
  5
2DD
330
10F
100
AcDbEntity
  8
1
  6
Continuous
 62
     7
100
AcDbLine
 10
1043.54375
 20
520.36875
 30
0.0
 11
1033.54375
 21
510.3687499999998
 31
0.0
  0
LINE
  5
2DE
330
10F
100
AcDbEntity
  8
1
  6
Continuous
 62
     7
100
AcDbLine
 10
743.54375
 20
370.36875
 30
0.0
 11
1023.54375
 21
370.36875
 31
0.0
  0
LINE
  5
2DF
330
10F
100
AcDbEntity
  8
1
  6
Continuous
 62
     7
100
AcDbLine
 10
983.5437500000001
 20
570.36875
 30
0.0
 11
983.5437500000001
 21
445.36875
 31
0.0
  0
LINE
  5
2E0
330
10F
100
AcDbEntity
  8
1
  6
Continuous
 62
     3
100
AcDbLine
 10
768.0
 20
365.5
 30
0.0
 11
768.0
 21
234.5
 31
0.0
  0
LINE
  5
2E1
330
10F
100
AcDbEntity
  8
1
  6
Continuous
 62
     3
100
AcDbLine
 10
997.0
 20
365.75
 30
0.0
 11
997.0
 21
234.25
 31
0.0
  0
LINE
  5
2E2
330
10F
100
AcDbEntity
  8
1
  6
Continuous
 62
     3
100
AcDbLine
 10
997.0
 20
250.2499999999999
 30
0.0
 11
973.2874999999999
 21
256.8062499999999
 31
0.0
  0
LINE
  5
2E3
330
10F
100
AcDbEntity
  8
1
  6
Continuous
 62
     3
100
AcDbLine
 10
997.0
 20
250.2499999999999
 30
0.0
 11
973.2874999999999
 21
243.6937499999999
 31
0.0
  0
LINE
  5
2E4
330
10F
100
AcDbEntity
  8
1
  6
Continuous
 62
     3
100
AcDbLine
 10
973.2874999999999
 20
243.6937499999999
 30
0.0
 11
973.2874999999999
 21
256.8062499999999
 31
0.0
  0
LINE
  5
2E5
330
10F
100
AcDbEntity
  8
1
  6
Continuous
 62
     3
100
AcDbLine
 10
770.0
 20
250.4999999999999
 30
0.0
 11
793.7124999999999
 21
257.0562499999999
 31
0.0
  0
LINE
  5
2E6
330
10F
100
AcDbEntity
  8
1
  6
Continuous
 62
     3
100
AcDbLine
 10
770.0
 20
250.4999999999999
 30
0.0
 11
793.7124999999999
 21
243.9437499999999
 31
0.0
  0
LINE
  5
2E7
330
10F
100
AcDbEntity
  8
1
  6
Continuous
 62
     3
100
AcDbLine
 10
793.7124999999999
 20
243.9437499999999
 30
0.0
 11
793.7124999999999
 21
257.0562499999999
 31
0.0
  0
LINE
  5
2E8
330
10F
100
AcDbEntity
  8
1
  6
Continuous
 62
     7
100
AcDbLine
 10
758.6125
 20
370.36875
 30
0.0
 11
768.54375
 21
380.3
 31
0.0
  0
LINE
  5
2E9
330
10F
100
AcDbEntity
  8
1
  6
Continuous
 62
     7
100
AcDbLine
 10
768.54375
 20
380.3687499999999
 30
0.0
 11
768.54375
 21
440.36875
 31
0.0
  0
LINE
  5
2EA
330
10F
100
AcDbEntity
  8
1
  6
Continuous
 62
     7
100
AcDbLine
 10
998.5437500000001
 20
440.36875
 30
0.0
 11
998.5437500000001
 21
380.3687499999999
 31
0.0
  0
LINE
  5
2EB
330
10F
100
AcDbEntity
  8
1
  6
Continuous
 62
     7
100
AcDbLine
 10
768.54375
 20
380.3687499999999
 30
0.0
 11
998.5437500000001
 21
380.3687499999999
 31
0.0
  0
LINE
  5
2EC
330
10F
100
AcDbEntity
  8
1
  6
Continuous
 62
     7
100
AcDbLine
 10
1008.475
 20
370.36875
 30
0.0
 11
998.5437500000001
 21
380.3
 31
0.0
  0
LINE
  5
2ED
330
10F
100
AcDbEntity
  8
1
  6
Continuous
 62
     7
100
AcDbLine
 10
773.54375
 20
445.36875
 30
0.0
 11
768.54375
 21
440.36875
 31
0.0
  0
LINE
  5
2EE
330
10F
100
AcDbEntity
  8
1
  6
Continuous
 62
     7
100
AcDbLine
 10
993.54375
 20
445.36875
 30
0.0
 11
998.5437500000001
 21
440.36875
 31
0.0
  0
LINE
  5
2EF
330
10F
100
AcDbEntity
  8
1
  6
Continuous
 62
     7
100
AcDbLine
 10
773.54375
 20
445.36875
 30
0.0
 11
993.54375
 21
445.36875
 31
0.0
  0
LINE
  5
2F0
330
10F
100
AcDbEntity
  8
1
  6
Continuous
 62
     7
100
AcDbLine
 10
758.6125
 20
370.36875
 30
0.0
 11
1008.475
 21
370.36875
 31
0.0
  0
LINE
  5
2F1
330
10F
100
AcDbEntity
  8
1
  6
Continuous
 62
     7
100
AcDbLine
 10
783.54375
 20
445.36875
 30
0.0
 11
783.54375
 21
570.36875
 31
0.0
  0
LINE
  5
2F2
330
10F
100
AcDbEntity
  8
1
  6
Continuous
 62
     7
100
AcDbLine
 10
1033.54375
 20
380.3687499999999
 30
0.0
 11
1023.54375
 21
370.36875
 31
0.0
  0
LINE
  5
2F3
330
10F
100
AcDbEntity
  8
1
  6
Continuous
 62
     7
100
AcDbLine
 10
743.54375
 20
370.36875
 30
0.0
 11
733.54375
 21
380.3687499999999
 31
0.0
  0
LINE
  5
2F4
330
10F
100
AcDbEntity
  8
1
  6
Continuous
 62
     3
100
AcDbLine
 10
733.54375
 20
365.5
 30
0.0
 11
733.54375
 21
234.5
 31
0.0
  0
LINE
  5
2F5
330
10F
100
AcDbEntity
  8
1
  6
Continuous
 62
     3
100
AcDbLine
 10
649.4874999999997
 20
250.7062499999999
 30
0.0
 11
709.825
 21
250.6125
 31
0.0
  0
LINE
  5
2F6
330
10F
100
AcDbEntity
  8
1
  6
Continuous
 62
     3
100
AcDbLine
 10
733.54375
 20
250.58125
 30
0.0
 11
709.8312499999997
 21
257.1374999999999
 31
0.0
  0
LINE
  5
2F7
330
10F
100
AcDbEntity
  8
1
  6
Continuous
 62
     3
100
AcDbLine
 10
733.54375
 20
250.58125
 30
0.0
 11
709.8312499999997
 21
244.025
 31
0.0
  0
LINE
  5
2F8
330
10F
100
AcDbEntity
  8
1
  6
Continuous
 62
     3
100
AcDbLine
 10
709.8312499999997
 20
244.025
 30
0.0
 11
709.8312499999997
 21
257.1374999999999
 31
0.0
  0
LINE
  5
2F9
330
10F
100
AcDbEntity
  8
1
  6
Continuous
 62
     3
100
AcDbLine
 10
973.2874999999999
 20
250.4999999999999
 30
0.0
 11
793.7124999999999
 21
250.4999999999999
 31
0.0
  0
LINE
  5
2FA
330
10F
100
AcDbEntity
  8
1
  6
Continuous
 62
     3
100
AcDbLine
 10
768.0
 20
250.4999999999999
 30
0.0
 11
733.54375
 21
250.4999999999999
 31
0.0
  0
LINE
  5
2FB
330
10F
100
AcDbEntity
  8
1
  6
Continuous
 62
     7
100
AcDbLine
 10
1183.54375
 20
530.3687499999998
 30
0.0
 11
1183.54375
 21
810.3687499999999
 31
0.0
  0
LINE
  5
2FC
330
10F
100
AcDbEntity
  8
1
  6
Continuous
 62
     3
100
AcDbLine
 10
1290.0
 20
770.4937499999997
 30
0.0
 11
1296.55625
 21
746.7812499999999
 31
0.0
  0
LINE
  5
2FD
330
10F
100
AcDbEntity
  8
1
  6
Continuous
 62
     3
100
AcDbLine
 10
1290.0
 20
770.4937499999997
 30
0.0
 11
1283.443749999999
 21
746.7812499999999
 31
0.0
  0
LINE
  5
2FE
330
10F
100
AcDbEntity
  8
1
  6
Continuous
 62
     3
100
AcDbLine
 10
1283.443749999999
 20
746.7812499999999
 30
0.0
 11
1296.55625
 21
746.7812499999999
 31
0.0
  0
LINE
  5
2FF
330
10F
100
AcDbEntity
  8
1
  6
Continuous
 62
     3
100
AcDbLine
 10
1290.0
 20
570.8624999999996
 30
0.0
 11
1283.443749999999
 21
594.575
 31
0.0
  0
LINE
  5
300
330
10F
100
AcDbEntity
  8
1
  6
Continuous
 62
     3
100
AcDbLine
 10
1290.0
 20
570.8624999999996
 30
0.0
 11
1296.55625
 21
594.575
 31
0.0
  0
LINE
  5
301
330
10F
100
AcDbEntity
  8
1
  6
Continuous
 62
     3
100
AcDbLine
 10
1296.55625
 20
594.575
 30
0.0
 11
1283.443749999999
 21
594.575
 31
0.0
  0
LINE
  5
302
330
10F
100
AcDbEntity
  8
1
  6
Continuous
 62
     7
100
AcDbLine
 10
1183.54375
 20
530.3687499999998
 30
0.0
 11
1173.54375
 21
520.36875
 31
0.0
  0
LINE
  5
303
330
10F
100
AcDbEntity
  8
1
  6
Continuous
 62
     7
100
AcDbLine
 10
1173.54375
 20
820.3687499999999
 30
0.0
 11
1183.54375
 21
810.3687499999999
 31
0.0
  0
LINE
  5
304
330
10F
100
AcDbEntity
  8
1
  6
Continuous
 62
     7
100
AcDbLine
 10
1183.54375
 20
545.4374999999998
 30
0.0
 11
1173.612499999999
 21
555.3687499999998
 31
0.0
  0
LINE
  5
305
330
10F
100
AcDbEntity
  8
1
  6
Continuous
 62
     7
100
AcDbLine
 10
1173.54375
 20
555.3687499999998
 30
0.0
 11
1113.54375
 21
555.3687499999998
 31
0.0
  0
LINE
  5
306
330
10F
100
AcDbEntity
  8
1
  6
Continuous
 62
     7
100
AcDbLine
 10
1113.54375
 20
785.36875
 30
0.0
 11
1173.54375
 21
785.36875
 31
0.0
  0
LINE
  5
307
330
10F
100
AcDbEntity
  8
1
  6
Continuous
 62
     7
100
AcDbLine
 10
1173.54375
 20
555.3687499999998
 30
0.0
 11
1173.54375
 21
785.36875
 31
0.0
  0
LINE
  5
308
330
10F
100
AcDbEntity
  8
1
  6
Continuous
 62
     7
100
AcDbLine
 10
1183.54375
 20
795.2999999999997
 30
0.0
 11
1173.612499999999
 21
785.36875
 31
0.0
  0
LINE
  5
309
330
10F
100
AcDbEntity
  8
1
  6
Continuous
 62
     7
100
AcDbLine
 10
1108.543749999999
 20
560.3687499999998
 30
0.0
 11
1113.54375
 21
555.3687499999998
 31
0.0
  0
LINE
  5
30A
330
10F
100
AcDbEntity
  8
1
  6
Continuous
 62
     7
100
AcDbLine
 10
1108.543749999999
 20
780.3687499999997
 30
0.0
 11
1113.54375
 21
785.36875
 31
0.0
  0
LINE
  5
30B
330
10F
100
AcDbEntity
  8
1
  6
Continuous
 62
     7
100
AcDbLine
 10
1108.543749999999
 20
560.3687499999998
 30
0.0
 11
1108.543749999999
 21
780.3687499999997
 31
0.0
  0
LINE
  5
30C
330
10F
100
AcDbEntity
  8
1
  6
Continuous
 62
     7
100
AcDbLine
 10
1183.54375
 20
545.4374999999998
 30
0.0
 11
1183.54375
 21
795.2999999999997
 31
0.0
  0
LINE
  5
30D
330
10F
100
AcDbEntity
  8
1
  6
Continuous
 62
     3
100
AcDbLine
 10
1115.25
 20
770.35
 30
0.0
 11
1302.45
 21
770.50625
 31
0.0
  0
LINE
  5
30E
330
10F
100
AcDbEntity
  8
1
  6
Continuous
 62
     3
100
AcDbLine
 10
1304.0
 20
570.8624999999996
 30
0.0
 11
1118.0
 21
570.8624999999996
 31
0.0
  0
LINE
  5
30F
330
10F
100
AcDbEntity
  8
1
  6
Continuous
 62
     7
100
AcDbLine
 10
1005.5875
 20
820.3687499999999
 30
0.0
 11
995.5875
 21
810.3687499999999
 31
0.0
  0
LINE
  5
310
330
10F
100
AcDbEntity
  8
1
  6
Continuous
 62
     7
100
AcDbLine
 10
761.5
 20
820.3687499999999
 30
0.0
 11
771.4999999999995
 21
810.3687499999999
 31
0.0
  0
LINE
  5
311
330
10F
100
AcDbEntity
  8
1
  6
Continuous
 62
     7
100
AcDbLine
 10
583.54375
 20
530.3687499999998
 30
0.0
 11
583.54375
 21
810.3687499999999
 31
0.0
  0
LINE
  5
312
330
10F
100
AcDbEntity
  8
1
  6
Continuous
 62
     7
100
AcDbLine
 10
583.54375
 20
530.3687499999998
 30
0.0
 11
593.54375
 21
520.36875
 31
0.0
  0
LINE
  5
313
330
10F
100
AcDbEntity
  8
1
  6
Continuous
 62
     7
100
AcDbLine
 10
593.54375
 20
820.3687499999999
 30
0.0
 11
583.54375
 21
810.3687499999999
 31
0.0
  0
LINE
  5
314
330
10F
100
AcDbEntity
  8
1
  6
Continuous
 62
     7
100
AcDbLine
 10
583.54375
 20
545.4374999999998
 30
0.0
 11
593.4749999999999
 21
555.3687499999998
 31
0.0
  0
LINE
  5
315
330
10F
100
AcDbEntity
  8
1
  6
Continuous
 62
     7
100
AcDbLine
 10
593.54375
 20
555.3687499999998
 30
0.0
 11
653.54375
 21
555.3687499999998
 31
0.0
  0
LINE
  5
316
330
10F
100
AcDbEntity
  8
1
  6
Continuous
 62
     7
100
AcDbLine
 10
653.54375
 20
785.36875
 30
0.0
 11
593.54375
 21
785.36875
 31
0.0
  0
LINE
  5
317
330
10F
100
AcDbEntity
  8
1
  6
Continuous
 62
     7
100
AcDbLine
 10
593.54375
 20
555.3687499999998
 30
0.0
 11
593.54375
 21
785.36875
 31
0.0
  0
LINE
  5
318
330
10F
100
AcDbEntity
  8
1
  6
Continuous
 62
     7
100
AcDbLine
 10
583.54375
 20
795.2999999999997
 30
0.0
 11
593.4749999999999
 21
785.36875
 31
0.0
  0
LINE
  5
319
330
10F
100
AcDbEntity
  8
1
  6
Continuous
 62
     7
100
AcDbLine
 10
658.54375
 20
560.3687499999998
 30
0.0
 11
653.54375
 21
555.3687499999998
 31
0.0
  0
LINE
  5
31A
330
10F
100
AcDbEntity
  8
1
  6
Continuous
 62
     7
100
AcDbLine
 10
658.54375
 20
780.3687499999997
 30
0.0
 11
653.54375
 21
785.36875
 31
0.0
  0
LINE
  5
31B
330
10F
100
AcDbEntity
  8
1
  6
Continuous
 62
     7
100
AcDbLine
 10
658.54375
 20
560.3687499999998
 30
0.0
 11
658.54375
 21
780.3687499999997
 31
0.0
  0
LINE
  5
31C
330
10F
100
AcDbEntity
  8
1
  6
Continuous
 62
     7
100
AcDbLine
 10
583.54375
 20
545.4374999999998
 30
0.0
 11
583.54375
 21
795.2999999999997
 31
0.0
  0
LINE
  5
31D
330
10F
100
AcDbEntity
  8
1
  6
Continuous
 62
     3
100
AcDbLine
 10
450.4999999999998
 20
445.36875
 30
0.0
 11
723.0
 21
445.36875
 31
0.0
  0
LINE
  5
31E
330
10F
100
AcDbEntity
  8
1
  6
Continuous
 62
     3
100
AcDbLine
 10
461.95
 20
394.7124999999999
 30
0.0
 11
461.95
 21
421.65625
 31
0.0
  0
LINE
  5
31F
330
10F
100
AcDbEntity
  8
1
  6
Continuous
 62
     3
100
AcDbLine
 10
461.95
 20
445.36875
 30
0.0
 11
468.5062499999999
 21
421.65625
 31
0.0
  0
LINE
  5
320
330
10F
100
AcDbEntity
  8
1
  6
Continuous
 62
     3
100
AcDbLine
 10
461.95
 20
445.36875
 30
0.0
 11
455.3937499999997
 21
421.65625
 31
0.0
  0
LINE
  5
321
330
10F
100
AcDbEntity
  8
1
  6
Continuous
 62
     3
100
AcDbLine
 10
455.3937499999997
 20
421.65625
 30
0.0
 11
468.5062499999999
 21
421.65625
 31
0.0
  0
LINE
  5
322
330
10F
100
AcDbEntity
  8
1
  6
Continuous
 62
     3
100
AcDbLine
 10
461.95
 20
445.36875
 30
0.0
 11
455.3937499999997
 21
469.0812499999998
 31
0.0
  0
LINE
  5
323
330
10F
100
AcDbEntity
  8
1
  6
Continuous
 62
     3
100
AcDbLine
 10
461.95
 20
445.36875
 30
0.0
 11
468.5062499999999
 21
469.0812499999998
 31
0.0
  0
LINE
  5
324
330
10F
100
AcDbEntity
  8
1
  6
Continuous
 62
     3
100
AcDbLine
 10
468.5062499999999
 20
469.0812499999998
 30
0.0
 11
455.3937499999997
 21
469.0812499999998
 31
0.0
  0
LINE
  5
325
330
10F
100
AcDbEntity
  8
1
  6
Continuous
 62
     3
100
AcDbLine
 10
924.5437500000001
 20
867.825
 30
0.0
 11
963.8312499999999
 21
867.7625
 31
0.0
  0
LINE
  5
326
330
10F
100
AcDbEntity
  8
1
  6
Continuous
 62
     3
100
AcDbLine
 10
461.95
 20
578.18125
 30
0.0
 11
461.95
 21
647.2875
 31
0.0
  0
LINE
  5
327
330
10F
100
AcDbEntity
  8
1
  6
Continuous
 62
     3
100
AcDbLine
 10
461.95
 20
469.0812499999998
 30
0.0
 11
461.95
 21
538.1812499999998
 31
0.0
  0
LINE
  5
328
330
10F
100
AcDbEntity
  8
1
  6
Continuous
 62
     5
100
AcDbLine
 10
883.5
 20
270.5
 30
0.0
 11
887.5
 21
270.5
 31
0.0
  0
LINE
  5
329
330
10F
100
AcDbEntity
  8
1
  6
Continuous
 62
     5
100
AcDbLine
 10
1290.0
 20
670.6812499999998
 30
0.0
 11
1296.0
 21
670.6812499999998
 31
0.0
  0
LINE
  5
32A
330
10F
100
AcDbEntity
  8
1
  6
Continuous
 62
     3
100
AcDbLine
 10
1290.0
 20
746.7812499999999
 30
0.0
 11
1290.0
 21
690.68125
 31
0.0
  0
LINE
  5
32B
330
10F
100
AcDbEntity
  8
1
  6
Continuous
 62
     3
100
AcDbLine
 10
1290.0
 20
650.6812499999997
 30
0.0
 11
1290.0
 21
594.575
 31
0.0
  0
LINE
  5
32C
330
10F
100
AcDbEntity
  8
1
  6
Continuous
 62
     5
100
AcDbLine
 10
669.4874999999997
 20
270.70625
 30
0.0
 11
674.4874999999997
 21
270.70625
 31
0.0
  0
LINE
  5
32D
330
10F
100
AcDbEntity
  8
1
  6
Continuous
 62
     5
100
AcDbLine
 10
944.54375
 20
887.8250000000001
 30
0.0
 11
952.54375
 21
887.8250000000001
 31
0.0
  0
LINE
  5
32E
330
10F
100
AcDbEntity
  8
1
  6
Continuous
 62
     5
100
AcDbLine
 10
390.6125
 20
428.275
 30
0.0
 11
397.6125
 21
428.275
 31
0.0
  0
LINE
  5
32F
330
10F
100
AcDbEntity
  8
1
  6
Continuous
 62
     3
100
AcDbLine
 10
357.0
 20
408.1812499999998
 30
0.0
 11
461.95
 21
408.1812499999998
 31
0.0
  0
LINE
  5
330
330
10F
100
AcDbEntity
  8
1
  6
Continuous
 62
     5
100
AcDbLine
 10
767.5505182760097
 20
976.2694260528903
 30
0.0
 11
770.5505182760098
 21
976.2694260528903
 31
0.0
  0
LINE
  5
331
330
10F
100
AcDbEntity
  8
1
  6
Continuous
 62
     5
100
AcDbLine
 10
1002.85413333508
 20
974.4268321896139
 30
0.0
 11
1005.85413333508
 21
974.4268321896139
 31
0.0
  0
LINE
  5
332
330
10F
100
AcDbEntity
  8
1
  6
Continuous
 62
     5
100
AcDbLine
 10
461.4997321724752
 20
563.5287678317197
 30
0.0
 11
464.4997321724751
 21
563.5287678317197
 31
0.0
  0
ENDSEC
  0
SECTION
  2
OBJECTS
  0
DICTIONARY
  5
FD
330
0
100
AcDbDictionary
281
     1
  3
ACAD_COLOR
350
210
  3
ACAD_GROUP
350
FE
  3
ACAD_LAYOUT
350
10A
  3
ACAD_MATERIAL
350
1FB
  3
ACAD_MLINESTYLE
350
107
  3
ACAD_PLOTSETTINGS
350
109
  3
ACAD_PLOTSTYLENAME
350
FF
  3
ACAD_TABLESTYLE
350
211
  3
ACAD_VISUALSTYLE
350
1FF
  3
AcDbVariableDictionary
350
333
  3
DWGPROPS
350
338
  0
DICTIONARY
  5
263
330
10F
100
AcDbDictionary
280
     1
281
     1
  3
ACAD_SORTENTS
360
264
  0
DICTIONARY
  5
210
102
{ACAD_REACTORS
330
FD
102
}
330
FD
100
AcDbDictionary
281
     1
  0
DICTIONARY
  5
FE
102
{ACAD_REACTORS
330
FD
102
}
330
FD
100
AcDbDictionary
281
     1
  0
DICTIONARY
  5
10A
102
{ACAD_REACTORS
330
FD
102
}
330
FD
100
AcDbDictionary
281
     1
  3
Layout1
350
10E
  3
Model
350
112
  0
DICTIONARY
  5
1FB
102
{ACAD_REACTORS
330
FD
102
}
330
FD
100
AcDbDictionary
281
     1
  3
ByBlock
350
1FD
  3
ByLayer
350
1FC
  3
Global
350
1FE
  0
DICTIONARY
  5
107
102
{ACAD_REACTORS
330
FD
102
}
330
FD
100
AcDbDictionary
281
     1
  3
Standard
350
108
  0
DICTIONARY
  5
109
102
{ACAD_REACTORS
330
FD
102
}
330
FD
100
AcDbDictionary
281
     1
  0
ACDBDICTIONARYWDFLT
  5
FF
102
{ACAD_REACTORS
330
FD
102
}
330
FD
100
AcDbDictionary
281
     1
  3
Normal
350
100
100
AcDbDictionaryWithDefault
340
100
  0
DICTIONARY
  5
211
102
{ACAD_REACTORS
330
FD
102
}
330
FD
100
AcDbDictionary
281
     1
  3
Standard
350
212
  0
DICTIONARY
  5
1FF
102
{ACAD_REACTORS
330
FD
102
}
330
FD
100
AcDbDictionary
281
     1
  3
2dWireframe
350
205
  3
3D Hidden
350
207
  3
3dWireframe
350
206
  3
Basic
350
204
  3
Brighten
350
20B
  3
ColorChange
350
20F
  3
Conceptual
350
208
  3
Dim
350
20A
  3
Facepattern
350
20E
  3
Flat
350
200
  3
FlatWithEdges
350
201
  3
Gouraud
350
202
  3
GouraudWithEdges
350
203
  3
Linepattern
350
20D
  3
Realistic
350
209
  3
Thicken
350
20C
  0
DICTIONARY
  5
333
102
{ACAD_REACTORS
330
FD
102
}
330
FD
100
AcDbDictionary
281
     1
  3
CTABLESTYLE
350
334
  3
DIMASSOC
350
337
  3
INDEXCTL
350
336
  3
SORTENTS
350
335
  0
XRECORD
  5
338
102
{ACAD_REACTORS
330
FD
102
}
330
FD
100
AcDbXrecord
280
     1
  1
DWGPROPS COOKIE
  2

  3

  4

  6

  7

  8
Horia
  9

300
=
301
=
302
=
303
=
304
=
305
=
306
=
307
=
308
=
309
=
 40
0.011118900462963
 41
2453238.752083333
 42
2456330.511178009
  1

 90
        0
  0
SORTENTSTABLE
  5
264
102
{ACAD_REACTORS
330
263
102
}
330
263
100
AcDbSortentsTable
330
10F
331
281
  5
281
331
251
  5
252
331
2A3
  5
2A5
331
270
  5
270
331
240
  5
240
331
292
  5
292
331
262
  5
248
331
22F
  5
22F
331
2A1
  5
2A9
331
26E
  5
26B
331
23E
  5
23E
331
290
  5
290
331
22D
  5
22D
331
27F
  5
27F
331
24F
  5
250
331
26C
  5
26D
331
23C
  5
23C
331
28E
  5
28E
331
22B
  5
22B
331
27D
  5
27D
331
24D
  5
24E
331
29F
  5
2AA
331
26A
  5
26A
331
23A
  5
23A
331
28C
  5
28C
331
229
  5
229
331
27B
  5
27B
331
24B
  5
24C
331
29D
  5
2A6
331
268
  5
268
331
238
  5
238
331
28A
  5
28A
331
227
  5
227
331
279
  5
279
331
249
  5
24A
331
29B
  5
2A2
331
236
  5
236
331
288
  5
289
331
258
  5
262
331
2AA
  5
297
331
225
  5
225
331
277
  5
277
331
299
  5
29E
331
247
  5
247
331
234
  5
234
331
286
  5
287
331
256
  5
258
331
2A8
  5
29B
331
223
  5
223
331
275
  5
275
331
245
  5
245
331
297
  5
29A
331
267
  5
267
331
284
  5
285
331
254
  5
255
331
232
  5
232
331
2A6
  5
29F
331
221
  5
221
331
273
  5
273
331
243
  5
243
331
295
  5
296
331
265
  5
257
331
230
  5
230
331
282
  5
282
331
252
  5
253
331
2A4
  5
2A3
331
271
  5
271
331
241
  5
241
331
293
  5
293
331
280
  5
280
331
250
  5
251
331
2A2
  5
2A7
331
26F
  5
26F
331
23F
  5
23F
331
291
  5
291
331
22E
  5
22E
331
2A0
  5
2AB
331
26D
  5
26E
331
23D
  5
23D
331
28F
  5
28F
331
22C
  5
22C
331
27E
  5
27E
331
24E
  5
24F
331
26B
  5
26C
331
23B
  5
23B
331
28D
  5
28D
331
22A
  5
22A
331
24C
  5
24D
331
29E
  5
2A8
331
269
  5
269
331
239
  5
239
331
28B
  5
28B
331
228
  5
228
331
27A
  5
27A
331
24A
  5
24B
331
29C
  5
2A4
331
11F
  5
11F
331
237
  5
237
331
289
  5
284
331
259
  5
265
331
2AB
  5
295
331
226
  5
226
331
278
  5
278
331
248
  5
249
331
29A
  5
2A0
331
235
  5
235
331
287
  5
288
331
257
  5
259
331
2A9
  5
299
331
224
  5
224
331
276
  5
276
331
246
  5
246
331
298
  5
29C
331
233
  5
233
331
285
  5
286
331
255
  5
256
331
2A7
  5
29D
331
222
  5
222
331
274
  5
274
331
244
  5
244
331
296
  5
298
331
266
  5
266
331
231
  5
231
331
283
  5
283
331
253
  5
254
331
2A5
  5
2A1
331
272
  5
272
331
242
  5
242
331
294
  5
294
331
120
  5
120
  0
LAYOUT
  5
10E
102
{ACAD_XDICTIONARY
360
339
102
}
102
{ACAD_REACTORS
330
10A
102
}
330
10A
100
AcDbPlotSettings
  1

  2
HP DeskJet 840C/841C/842C/843C
  4

  6

 40
0.0
 41
0.0
 42
0.0
 43
0.0
 44
0.0
 45
0.0
 46
0.0
 47
0.0
 48
0.0
 49
0.0
140
0.0
141
0.0
142
1.0
143
1.0
 70
   688
 72
     0
 73
     0
 74
     5
  7

 75
    16
147
1.0
148
0.0
149
0.0
100
AcDbLayout
  1
Layout1
 70
     0
 71
     1
 10
0.0
 20
0.0
 11
12.0
 21
9.0
 12
0.0
 22
0.0
 32
0.0
 14
-1.000000000000000E+20
 24
-1.000000000000000E+20
 34
-1.000000000000000E+20
 15
-1.000000000000000E+20
 25
-1.000000000000000E+20
 35
-1.000000000000000E+20
146
0.0
 13
0.0
 23
0.0
 33
0.0
 16
1.0
 26
0.0
 36
0.0
 17
0.0
 27
1.0
 37
0.0
 76
     0
330
10B
  0
LAYOUT
  5
112
102
{ACAD_XDICTIONARY
360
33B
102
}
102
{ACAD_REACTORS
330
10A
102
}
330
10A
100
AcDbPlotSettings
  1

  2
HP DeskJet 840C/841C/842C/843C
  4

  6

 40
0.0
 41
0.0
 42
0.0
 43
0.0
 44
0.0
 45
0.0
 46
0.0
 47
0.0
 48
0.0
 49
0.0
140
0.0
141
0.0
142
1.0
143
1.0
 70
  1712
 72
     0
 73
     0
 74
     0
  7

 75
     0
147
1.0
148
0.0
149
0.0
100
AcDbLayout
  1
Model
 70
     1
 71
     0
 10
0.0
 20
0.0
 11
12.0
 21
9.0
 12
0.0
 22
0.0
 32
0.0
 14
0.0
 24
0.0
 34
0.0
 15
0.0
 25
0.0
 35
0.0
146
0.0
 13
0.0
 23
0.0
 33
0.0
 16
1.0
 26
0.0
 36
0.0
 17
0.0
 27
1.0
 37
0.0
 76
     0
330
10F
331
1F8
  0
MATERIAL
  5
1FD
102
{ACAD_XDICTIONARY
360
33F
102
}
102
{ACAD_REACTORS
330
1FB
102
}
330
1FB
100
AcDbMaterial
  1
ByBlock
  0
MATERIAL
  5
1FC
102
{ACAD_XDICTIONARY
360
33D
102
}
102
{ACAD_REACTORS
330
1FB
102
}
330
1FB
100
AcDbMaterial
  1
ByLayer
  0
MATERIAL
  5
1FE
102
{ACAD_XDICTIONARY
360
341
102
}
102
{ACAD_REACTORS
330
1FB
102
}
330
1FB
100
AcDbMaterial
  1
Global
  0
MLINESTYLE
  5
108
102
{ACAD_REACTORS
330
107
102
}
330
107
100
AcDbMlineStyle
  2
STANDARD
 70
     0
  3

 62
   256
 51
90.0
 52
90.0
 71
     2
 49
0.5
 62
   256
  6
BYLAYER
 49
-0.5
 62
   256
  6
BYLAYER
  0
ACDBPLACEHOLDER
  5
100
102
{ACAD_REACTORS
330
FF
102
}
330
FF
  0
TABLESTYLE
  5
212
102
{ACAD_XDICTIONARY
360
343
102
}
102
{ACAD_REACTORS
330
211
102
}
330
211
100
AcDbTableStyle
  3
Standard
 70
     0
 71
     0
 40
0.06
 41
0.06
280
     0
281
     0
  7
STANDARD
140
0.18
170
     2
 62
     0
 63
     7
283
     0
274
    -2
284
     1
 64
     0
275
    -2
285
     1
 65
     0
276
    -2
286
     1
 66
     0
277
    -2
287
     1
 67
     0
278
    -2
288
     1
 68
     0
279
    -2
289
     1
 69
     0
  7
STANDARD
140
0.25
170
     5
 62
     0
 63
     7
283
     0
274
    -2
284
     1
 64
     0
275
    -2
285
     1
 65
     0
276
    -2
286
     1
 66
     0
277
    -2
287
     1
 67
     0
278
    -2
288
     1
 68
     0
279
    -2
289
     1
 69
     0
  7
STANDARD
140
0.18
170
     5
 62
     0
 63
     7
283
     0
274
    -2
284
     1
 64
     0
275
    -2
285
     1
 65
     0
276
    -2
286
     1
 66
     0
277
    -2
287
     1
 67
     0
278
    -2
288
     1
 68
     0
279
    -2
289
     1
 69
     0
  0
VISUALSTYLE
  5
205
102
{ACAD_REACTORS
330
1FF
102
}
330
1FF
100
AcDbVisualStyle
  2
2dWireframe
 70
     4
 71
     0
 72
     2
 73
     0
 90
        0
 40
-0.6
 41
-30.0
 62
     5
 63
     7
 74
     1
 91
        4
 64
     7
 65
   257
 75
     1
175
     1
 42
1.0
 92
        0
 66
   257
 43
1.0
 76
     1
 77
     6
 78
     2
 67
     7
 79
     5
170
     0
171
     0
290
     0
174
     0
 93
        1
 44
0.0
173
     0
291
     0
 45
0.0
1001
ACAD
1000
AcDbSavedByObjectVersion
1070
     0
  0
VISUALSTYLE
  5
207
102
{ACAD_REACTORS
330
1FF
102
}
330
1FF
100
AcDbVisualStyle
  2
3D Hidden
 70
     6
 71
     1
 72
     2
 73
     2
 90
        0
 40
-0.6
 41
-30.0
 62
     5
 63
     7
 74
     2
 91
        2
 64
     7
 65
   257
 75
     2
175
     1
 42
40.0
 92
        0
 66
   257
 43
1.0
 76
     1
 77
     6
 78
     2
 67
     7
 79
     3
170
     0
171
     0
290
     0
174
     0
 93
        1
 44
0.0
173
     0
291
     0
 45
0.0
1001
ACAD
1000
AcDbSavedByObjectVersion
1070
     0
  0
VISUALSTYLE
  5
206
102
{ACAD_REACTORS
330
1FF
102
}
330
1FF
100
AcDbVisualStyle
  2
3dWireframe
 70
     5
 71
     0
 72
     2
 73
     0
 90
        0
 40
-0.6
 41
-30.0
 62
     5
 63
     7
 74
     1
 91
        4
 64
     7
 65
   257
 75
     1
175
     1
 42
1.0
 92
        0
 66
   257
 43
1.0
 76
     1
 77
     6
 78
     2
 67
     7
 79
     5
170
     0
171
     0
290
     0
174
     0
 93
        1
 44
0.0
173
     0
291
     0
 45
0.0
1001
ACAD
1000
AcDbSavedByObjectVersion
1070
     0
  0
VISUALSTYLE
  5
204
102
{ACAD_REACTORS
330
1FF
102
}
330
1FF
100
AcDbVisualStyle
  2
Basic
 70
     7
 71
     1
 72
     0
 73
     1
 90
        0
 40
-0.6
 41
-30.0
 62
     5
 63
     7
 74
     0
 91
        4
 64
     7
 65
   257
 75
     1
175
     1
 42
1.0
 92
        8
 66
     7
 43
1.0
 76
     1
 77
     6
 78
     2
 67
     7
 79
     5
170
     0
171
     0
290
     0
174
     0
 93
        1
 44
0.0
173
     0
291
     1
 45
0.0
1001
ACAD
1000
AcDbSavedByObjectVersion
1070
     0
  0
VISUALSTYLE
  5
20B
102
{ACAD_REACTORS
330
1FF
102
}
330
1FF
100
AcDbVisualStyle
  2
Brighten
 70
    12
 71
     2
 72
     2
 73
     0
 90
        0
 40
-0.6
 41
-30.0
 62
     5
 63
     7
 74
     1
 91
        4
 64
     7
 65
   257
 75
     1
175
     1
 42
1.0
 92
        8
 66
     7
 43
1.0
 76
     1
 77
     6
 78
     2
 67
     7
 79
     5
170
     0
171
     0
290
     0
174
     0
 93
        1
 44
50.0
173
     0
291
     1
 45
0.0
1001
ACAD
1000
AcDbSavedByObjectVersion
1070
     0
  0
VISUALSTYLE
  5
20F
102
{ACAD_REACTORS
330
1FF
102
}
330
1FF
100
AcDbVisualStyle
  2
ColorChange
 70
    16
 71
     2
 72
     2
 73
     3
 90
        0
 40
-0.6
 41
-30.0
 62
     5
 63
     8
 74
     1
 91
        4
 64
     7
 65
   257
 75
     1
175
     1
 42
1.0
 92
        8
 66
     8
 43
1.0
 76
     1
 77
     6
 78
     2
 67
     7
 79
     5
170
     0
171
     0
290
     0
174
     0
 93
        1
 44
0.0
173
     0
291
     1
 45
0.0
1001
ACAD
1000
AcDbSavedByObjectVersion
1070
     0
  0
VISUALSTYLE
  5
208
102
{ACAD_REACTORS
330
1FF
102
}
330
1FF
100
AcDbVisualStyle
  2
Conceptual
 70
     9
 71
     3
 72
     2
 73
     0
 90
        0
 40
-0.6
 41
-30.0
 62
     5
 63
     7
 74
     2
 91
        2
 64
     7
 65
   257
 75
     1
175
     1
 42
40.0
 92
        8
 66
     7
 43
1.0
 76
     1
 77
     6
 78
     2
 67
     7
 79
     3
170
     0
171
     0
290
     0
174
     0
 93
        1
 44
0.0
173
     0
291
     0
 45
0.0
1001
ACAD
1000
AcDbSavedByObjectVersion
1070
     0
  0
VISUALSTYLE
  5
20A
102
{ACAD_REACTORS
330
1FF
102
}
330
1FF
100
AcDbVisualStyle
  2
Dim
 70
    11
 71
     2
 72
     2
 73
     0
 90
        0
 40
-0.6
 41
-30.0
 62
     5
 63
     7
 74
     1
 91
        4
 64
     7
 65
   257
 75
     1
175
     1
 42
1.0
 92
        8
 66
     7
 43
1.0
 76
     1
 77
     6
 78
     2
 67
     7
 79
     5
170
     0
171
     0
290
     0
174
     0
 93
        1
 44
-50.0
173
     0
291
     1
 45
0.0
1001
ACAD
1000
AcDbSavedByObjectVersion
1070
     0
  0
VISUALSTYLE
  5
20E
102
{ACAD_REACTORS
330
1FF
102
}
330
1FF
100
AcDbVisualStyle
  2
Facepattern
 70
    15
 71
     2
 72
     2
 73
     0
 90
        0
 40
-0.6
 41
-30.0
 62
     5
 63
     7
 74
     1
 91
        4
 64
     7
 65
   257
 75
     1
175
     1
 42
1.0
 92
        8
 66
     7
 43
1.0
 76
     1
 77
     6
 78
     2
 67
     7
 79
     5
170
     0
171
     0
290
     0
174
     0
 93
        1
 44
0.0
173
     0
291
     1
 45
0.0
1001
ACAD
1000
AcDbSavedByObjectVersion
1070
     0
  0
VISUALSTYLE
  5
200
102
{ACAD_REACTORS
330
1FF
102
}
330
1FF
100
AcDbVisualStyle
  2
Flat
 70
     0
 71
     2
 72
     1
 73
     1
 90
        2
 40
-0.6
 41
30.0
 62
     5
 63
     7
 74
     0
 91
        4
 64
     7
 65
   257
 75
     1
175
     1
 42
1.0
 92
        8
 66
     7
 43
1.0
 76
     1
 77
     6
 78
     2
 67
     7
 79
     5
170
     0
171
     0
290
     0
174
     0
 93
       13
 44
0.0
173
     0
291
     1
 45
0.0
1001
ACAD
1000
AcDbSavedByObjectVersion
1070
     0
  0
VISUALSTYLE
  5
201
102
{ACAD_REACTORS
330
1FF
102
}
330
1FF
100
AcDbVisualStyle
  2
FlatWithEdges
 70
     1
 71
     2
 72
     1
 73
     1
 90
        2
 40
-0.6
 41
30.0
 62
     5
 63
     7
 74
     1
 91
        4
 64
     7
 65
   257
 75
     1
175
     1
 42
1.0
 92
        0
 66
   257
 43
1.0
 76
     1
 77
     6
 78
     2
 67
     7
 79
     5
170
     0
171
     0
290
     0
174
     0
 93
       13
 44
0.0
173
     0
291
     1
 45
0.0
1001
ACAD
1000
AcDbSavedByObjectVersion
1070
     0
  0
VISUALSTYLE
  5
202
102
{ACAD_REACTORS
330
1FF
102
}
330
1FF
100
AcDbVisualStyle
  2
Gouraud
 70
     2
 71
     2
 72
     2
 73
     1
 90
        2
 40
-0.6
 41
30.0
 62
     5
 63
     7
 74
     0
 91
        4
 64
     7
 65
   257
 75
     1
175
     1
 42
1.0
 92
        0
 66
     7
 43
1.0
 76
     1
 77
     6
 78
     2
 67
     7
 79
     5
170
     0
171
     0
290
     0
174
     0
 93
       13
 44
0.0
173
     0
291
     1
 45
0.0
1001
ACAD
1000
AcDbSavedByObjectVersion
1070
     0
  0
VISUALSTYLE
  5
203
102
{ACAD_REACTORS
330
1FF
102
}
330
1FF
100
AcDbVisualStyle
  2
GouraudWithEdges
 70
     3
 71
     2
 72
     2
 73
     1
 90
        2
 40
-0.6
 41
30.0
 62
     5
 63
     7
 74
     1
 91
        4
 64
     7
 65
   257
 75
     1
175
     1
 42
1.0
 92
        0
 66
   257
 43
1.0
 76
     1
 77
     6
 78
     2
 67
     7
 79
     5
170
     0
171
     0
290
     0
174
     0
 93
       13
 44
0.0
173
     0
291
     1
 45
0.0
1001
ACAD
1000
AcDbSavedByObjectVersion
1070
     0
  0
VISUALSTYLE
  5
20D
102
{ACAD_REACTORS
330
1FF
102
}
330
1FF
100
AcDbVisualStyle
  2
Linepattern
 70
    14
 71
     2
 72
     2
 73
     0
 90
        0
 40
-0.6
 41
-30.0
 62
     5
 63
     7
 74
     1
 91
        4
 64
     7
 65
   257
 75
     7
175
     7
 42
1.0
 92
        8
 66
     7
 43
1.0
 76
     1
 77
     6
 78
     2
 67
     7
 79
     5
170
     0
171
     0
290
     0
174
     0
 93
        1
 44
0.0
173
     0
291
     1
 45
0.0
1001
ACAD
1000
AcDbSavedByObjectVersion
1070
     0
  0
VISUALSTYLE
  5
209
102
{ACAD_REACTORS
330
1FF
102
}
330
1FF
100
AcDbVisualStyle
  2
Realistic
 70
     8
 71
     2
 72
     2
 73
     0
 90
        0
 40
-0.6
 41
-30.0
 62
     5
 63
     7
 74
     1
 91
        0
 64
     7
 65
   257
 75
     1
175
     1
 42
1.0
 92
        8
 66
     8
 43
1.0
 76
     1
 77
     6
 78
     2
 67
     7
 79
     5
170
     0
171
     0
290
     0
174
     0
 93
       13
 44
0.0
173
     0
291
     0
 45
0.0
1001
ACAD
1000
AcDbSavedByObjectVersion
1070
     0
  0
VISUALSTYLE
  5
20C
102
{ACAD_REACTORS
330
1FF
102
}
330
1FF
100
AcDbVisualStyle
  2
Thicken
 70
    13
 71
     2
 72
     2
 73
     0
 90
        0
 40
-0.6
 41
-30.0
 62
     5
 63
     7
 74
     1
 91
        4
 64
     7
 65
   257
 75
     1
175
     1
 42
1.0
 92
       12
 66
     7
 43
1.0
 76
     1
 77
     6
 78
     2
 67
     7
 79
     5
170
     0
171
     0
290
     0
174
     0
 93
        1
 44
0.0
173
     0
291
     1
 45
0.0
1001
ACAD
1000
AcDbSavedByObjectVersion
1070
     0
  0
DICTIONARYVAR
  5
334
102
{ACAD_REACTORS
330
333
102
}
330
333
100
DictionaryVariables
280
     0
  1
STANDARD
  0
DICTIONARYVAR
  5
337
102
{ACAD_REACTORS
330
333
102
}
330
333
100
DictionaryVariables
280
     0
  1
1
  0
DICTIONARYVAR
  5
336
102
{ACAD_REACTORS
330
333
102
}
330
333
100
DictionaryVariables
280
     0
  1
0
  0
DICTIONARYVAR
  5
335
102
{ACAD_REACTORS
330
333
102
}
330
333
100
DictionaryVariables
280
     0
  1
127
  0
DICTIONARY
  5
339
330
10E
100
AcDbDictionary
280
     1
281
     1
  3
ACAD_XREC_ROUNDTRIP
360
33A
  0
DICTIONARY
  5
33B
330
112
100
AcDbDictionary
280
     1
281
     1
  3
ACAD_XREC_ROUNDTRIP
360
33C
  0
DICTIONARY
  5
33F
330
1FD
100
AcDbDictionary
280
     1
281
     1
  3
ACAD_XREC_ROUNDTRIP
360
340
  0
DICTIONARY
  5
33D
330
1FC
100
AcDbDictionary
280
     1
281
     1
  3
ACAD_XREC_ROUNDTRIP
360
33E
  0
DICTIONARY
  5
341
330
1FE
100
AcDbDictionary
280
     1
281
     1
  3
ACAD_XREC_ROUNDTRIP
360
342
  0
DICTIONARY
  5
343
330
212
100
AcDbDictionary
280
     1
281
     1
  3
ACAD_XREC_ROUNDTRIP
360
344
  0
XRECORD
  5
33A
102
{ACAD_REACTORS
330
339
102
}
330
339
100
AcDbXrecord
280
     1
102
SHADEPLOT
 70
     0
102
SHADEPLOTRESLEVEL
 70
     2
102
SHADEPLOTCUSTOMDPI
 70
   300
  0
XRECORD
  5
33C
102
{ACAD_REACTORS
330
33B
102
}
330
33B
100
AcDbXrecord
280
     1
102
SHADEPLOT
 70
     0
102
SHADEPLOTRESLEVEL
 70
     2
102
SHADEPLOTCUSTOMDPI
 70
   300
  0
XRECORD
  5
340
102
{ACAD_REACTORS
330
33F
102
}
330
33F
100
AcDbXrecord
280
     1
102
MATERIAL
148
0.0
149
0.0
149
0.0
 93
        0
 94
       63
282
     0
 72
     1
 77
     1
171
     1
175
     1
179
     1
273
     0
  0
XRECORD
  5
33E
102
{ACAD_REACTORS
330
33D
102
}
330
33D
100
AcDbXrecord
280
     1
102
MATERIAL
148
0.0
149
0.0
149
0.0
 93
        0
 94
       63
282
     0
 72
     1
 77
     1
171
     1
175
     1
179
     1
273
     0
  0
XRECORD
  5
342
102
{ACAD_REACTORS
330
341
102
}
330
341
100
AcDbXrecord
280
     1
102
MATERIAL
148
0.0
149
0.0
149
0.0
 93
        0
 94
       63
282
     0
 72
     1
 77
     1
171
     1
175
     1
179
     1
273
     0
  0
XRECORD
  5
344
102
{ACAD_REACTORS
330
343
102
}
330
343
100
AcDbXrecord
280
     1
102
ACAD_ROUNDTRIP_PRE2007_TABLESTYLE
 90
      512
 91
        0
  1

 92
      512
 93
        0
  2

 94
      512
 95
        0
  3

  0
ENDSEC
  0
EOF
