  0
SECTION
  2
HEADER
  9
$ACADVER
  1
AC1015
  9
$ACADMAINTVER
 70
     6
  9
$DWGCODEPAGE
  3
ANSI_1252
  9
$INSBASE
 10
0.0
 20
0.0
 30
0.0
  9
$EXTMIN
 10
377.6334062745435
 20
214.2700264133549
 30
0.0
  9
$EXTMAX
 10
1260.541741303049
 20
1049.736817973519
 30
0.0
  9
$LIMMIN
 10
0.0
 20
0.0
  9
$LIMMAX
 10
12.0
 20
9.0
  9
$ORTHOMODE
 70
     1
  9
$REGENMODE
 70
     1
  9
$FILLMODE
 70
     1
  9
$QTEXTMODE
 70
     0
  9
$MIRRTEXT
 70
     1
  9
$LTSCALE
 40
1.0
  9
$ATTMODE
 70
     1
  9
$TEXTSIZE
 40
0.2
  9
$TRACEWID
 40
0.05
  9
$TEXTSTYLE
  7
STANDARD
  9
$CLAYER
  8
0
  9
$CELTYPE
  6
CONTINUOUS
  9
$CECOLOR
 62
     7
  9
$CELTSCALE
 40
1.0
  9
$DISPSILH
 70
     0
  9
$DIMSCALE
 40
1.0
  9
$DIMASZ
 40
0.18
  9
$DIMEXO
 40
0.0625
  9
$DIMDLI
 40
0.38
  9
$DIMRND
 40
0.0
  9
$DIMDLE
 40
0.0
  9
$DIMEXE
 40
0.18
  9
$DIMTP
 40
0.0
  9
$DIMTM
 40
0.0
  9
$DIMTXT
 40
0.18
  9
$DIMCEN
 40
0.09
  9
$DIMTSZ
 40
0.0
  9
$DIMTOL
 70
     0
  9
$DIMLIM
 70
     0
  9
$DIMTIH
 70
     1
  9
$DIMTOH
 70
     1
  9
$DIMSE1
 70
     0
  9
$DIMSE2
 70
     0
  9
$DIMTAD
 70
     0
  9
$DIMZIN
 70
     0
  9
$DIMBLK
  1

  9
$DIMASO
 70
     1
  9
$DIMSHO
 70
     1
  9
$DIMPOST
  1

  9
$DIMAPOST
  1

  9
$DIMALT
 70
     0
  9
$DIMALTD
 70
     2
  9
$DIMALTF
 40
25.4
  9
$DIMLFAC
 40
1.0
  9
$DIMTOFL
 70
     0
  9
$DIMTVP
 40
0.0
  9
$DIMTIX
 70
     0
  9
$DIMSOXD
 70
     0
  9
$DIMSAH
 70
     0
  9
$DIMBLK1
  1

  9
$DIMBLK2
  1

  9
$DIMSTYLE
  2
STANDARD
  9
$DIMCLRD
 70
     0
  9
$DIMCLRE
 70
     0
  9
$DIMCLRT
 70
     0
  9
$DIMTFAC
 40
1.0
  9
$DIMGAP
 40
0.09
  9
$DIMJUST
 70
     0
  9
$DIMSD1
 70
     0
  9
$DIMSD2
 70
     0
  9
$DIMTOLJ
 70
     1
  9
$DIMTZIN
 70
     0
  9
$DIMALTZ
 70
     0
  9
$DIMALTTZ
 70
     0
  9
$DIMUPT
 70
     0
  9
$DIMDEC
 70
     4
  9
$DIMTDEC
 70
     4
  9
$DIMALTU
 70
     2
  9
$DIMALTTD
 70
     2
  9
$DIMTXSTY
  7
STANDARD
  9
$DIMAUNIT
 70
     0
  9
$DIMADEC
 70
     0
  9
$DIMALTRND
 40
0.0
  9
$DIMAZIN
 70
     0
  9
$DIMDSEP
 70
    46
  9
$DIMATFIT
 70
     3
  9
$DIMFRAC
 70
     0
  9
$DIMLDRBLK
  1

  9
$DIMLUNIT
 70
     2
  9
$DIMLWD
 70
    -2
  9
$DIMLWE
 70
    -2
  9
$DIMTMOVE
 70
     0
  9
$LUNITS
 70
     2
  9
$LUPREC
 70
     4
  9
$SKETCHINC
 40
0.1
  9
$FILLETRAD
 40
10.0
  9
$AUNITS
 70
     0
  9
$AUPREC
 70
     0
  9
$MENU
  1
acad
  9
$ELEVATION
 40
0.0
  9
$PELEVATION
 40
0.0
  9
$THICKNESS
 40
0.0
  9
$LIMCHECK
 70
     0
  9
$CHAMFERA
 40
0.0
  9
$CHAMFERB
 40
0.0
  9
$CHAMFERC
 40
0.0
  9
$CHAMFERD
 40
0.0
  9
$SKPOLY
 70
     0
  9
$TDCREATE
 40
2451288.347424652
  9
$TDUCREATE
 40
2451288.347424652
  9
$TDUPDATE
 40
2456718.530407488
  9
$TDUUPDATE
 40
2456718.530407488
  9
$TDINDWG
 40
1.0615765278
  9
$TDUSRTIMER
 40
1.0615743750
  9
$USRTIMER
 70
     1
  9
$ANGBASE
 50
0.0
  9
$ANGDIR
 70
     0
  9
$PDMODE
 70
     0
  9
$PDSIZE
 40
0.0
  9
$PLINEWID
 40
0.0
  9
$SPLFRAME
 70
     0
  9
$SPLINETYPE
 70
     6
  9
$SPLINESEGS
 70
    10
  9
$HANDSEED
  5
ED3
  9
$SURFTAB1
 70
     6
  9
$SURFTAB2
 70
     6
  9
$SURFTYPE
 70
     6
  9
$SURFU
 70
    10
  9
$SURFV
 70
    10
  9
$UCSBASE
  2

  9
$UCSNAME
  2

  9
$UCSORG
 10
0.0
 20
0.0
 30
0.0
  9
$UCSXDIR
 10
1.0
 20
0.0
 30
0.0
  9
$UCSYDIR
 10
0.0
 20
1.0
 30
0.0
  9
$UCSORTHOREF
  2

  9
$UCSORTHOVIEW
 70
     0
  9
$UCSORGTOP
 10
0.0
 20
0.0
 30
0.0
  9
$UCSORGBOTTOM
 10
0.0
 20
0.0
 30
0.0
  9
$UCSORGLEFT
 10
0.0
 20
0.0
 30
0.0
  9
$UCSORGRIGHT
 10
0.0
 20
0.0
 30
0.0
  9
$UCSORGFRONT
 10
0.0
 20
0.0
 30
0.0
  9
$UCSORGBACK
 10
0.0
 20
0.0
 30
0.0
  9
$PUCSBASE
  2

  9
$PUCSNAME
  2

  9
$PUCSORG
 10
0.0
 20
0.0
 30
0.0
  9
$PUCSXDIR
 10
1.0
 20
0.0
 30
0.0
  9
$PUCSYDIR
 10
0.0
 20
1.0
 30
0.0
  9
$PUCSORTHOREF
  2

  9
$PUCSORTHOVIEW
 70
     0
  9
$PUCSORGTOP
 10
0.0
 20
0.0
 30
0.0
  9
$PUCSORGBOTTOM
 10
0.0
 20
0.0
 30
0.0
  9
$PUCSORGLEFT
 10
0.0
 20
0.0
 30
0.0
  9
$PUCSORGRIGHT
 10
0.0
 20
0.0
 30
0.0
  9
$PUCSORGFRONT
 10
0.0
 20
0.0
 30
0.0
  9
$PUCSORGBACK
 10
0.0
 20
0.0
 30
0.0
  9
$USERI1
 70
     0
  9
$USERI2
 70
     0
  9
$USERI3
 70
     0
  9
$USERI4
 70
     0
  9
$USERI5
 70
     0
  9
$USERR1
 40
0.0
  9
$USERR2
 40
0.0
  9
$USERR3
 40
0.0
  9
$USERR4
 40
0.0
  9
$USERR5
 40
0.0
  9
$WORLDVIEW
 70
     1
  9
$SHADEDGE
 70
     3
  9
$SHADEDIF
 70
    70
  9
$TILEMODE
 70
     1
  9
$MAXACTVP
 70
    16
  9
$PINSBASE
 10
0.0
 20
0.0
 30
0.0
  9
$PLIMCHECK
 70
     0
  9
$PEXTMIN
 10
-1.000000000000000E+20
 20
-1.000000000000000E+20
 30
-1.000000000000000E+20
  9
$PEXTMAX
 10
-1.000000000000000E+20
 20
-1.000000000000000E+20
 30
-1.000000000000000E+20
  9
$PLIMMIN
 10
0.0
 20
0.0
  9
$PLIMMAX
 10
12.0
 20
9.0
  9
$UNITMODE
 70
     0
  9
$VISRETAIN
 70
     0
  9
$PLINEGEN
 70
     0
  9
$PSLTSCALE
 70
     1
  9
$TREEDEPTH
 70
  3020
  9
$CMLSTYLE
  2
STANDARD
  9
$CMLJUST
 70
     0
  9
$CMLSCALE
 40
1.0
  9
$PROXYGRAPHICS
 70
     1
  9
$MEASUREMENT
 70
     0
  9
$CELWEIGHT
370
    -1
  9
$ENDCAPS
280
     0
  9
$JOINSTYLE
280
     0
  9
$LWDISPLAY
290
     0
  9
$INSUNITS
 70
     0
  9
$HYPERLINKBASE
  1

  9
$STYLESHEET
  1

  9
$XEDIT
290
     1
  9
$CEPSNTYPE
380
     0
  9
$PSTYLEMODE
290
     1
  9
$FINGERPRINTGUID
  2
{8FD7989F-64F4-4EDA-BB74-5C36BA8CB747}
  9
$VERSIONGUID
  2
{8D763AAE-AB93-4DAA-9B70-DE9819A62769}
  9
$EXTNAMES
290
     1
  9
$PSVPSCALE
 40
0.0
  9
$OLESTARTUP
290
     0
  0
ENDSEC
  0
SECTION
  2
CLASSES
  0
CLASS
  1
IDBUFFER
  2
AcDbIdBuffer
  3
AutoCAD 2000
 90
    32768
280
     0
281
     0
  0
CLASS
  1
LWPOLYLINE
  2
AcDbPolyline
  3
AutoCAD 2000
 90
    32768
280
     0
281
     1
  0
CLASS
  1
ACDBDICTIONARYWDFLT
  2
AcDbDictionaryWithDefault
  3
AutoCAD 2000
 90
        0
280
     0
281
     0
  0
CLASS
  1
ACDBPLACEHOLDER
  2
AcDbPlaceHolder
  3
AutoCAD 2000
 90
        0
280
     0
281
     0
  0
CLASS
  1
LAYOUT
  2
AcDbLayout
  3
AutoCAD 2000
 90
        0
280
     0
281
     0
  0
CLASS
  1
LONG_TRANSACTION
  2
AcDbLongTransaction
  3
AutoCAD 2000
 90
    32768
280
     0
281
     0
  0
CLASS
  1
LWPOLYLINE
  2
AcDbPolyline
  3
AutoCAD 2000
 90
    32768
280
     0
281
     1
  0
CLASS
  1
HATCH
  2
AcDbHatch
  3
AutoCAD 2000
 90
    32768
280
     0
281
     1
  0
CLASS
  1
XRECORD
  2
AcDbXrecord
  3
AutoCAD 2000
 90
    32768
280
     0
281
     0
  0
CLASS
  1
LONG_TRANSACTION
  2
AcDbLongTransaction
  3
AutoCAD 2000
 90
    32768
280
     0
281
     0
  0
CLASS
  1
LWPOLYLINE
  2
AcDbPolyline
  3
AutoCAD 2000
 90
    32768
280
     0
281
     1
  0
CLASS
  1
HATCH
  2
AcDbHatch
  3
AutoCAD 2000
 90
    32768
280
     0
281
     1
  0
CLASS
  1
XRECORD
  2
AcDbXrecord
  3
AutoCAD 2000
 90
    32768
280
     0
281
     0
  0
CLASS
  1
LONG_TRANSACTION
  2
AcDbLongTransaction
  3
AutoCAD 2000
 90
    32768
280
     0
281
     0
  0
CLASS
  1
LWPOLYLINE
  2
AcDbPolyline
  3
AutoCAD 2000
 90
    32768
280
     0
281
     1
  0
CLASS
  1
HATCH
  2
AcDbHatch
  3
AutoCAD 2000
 90
    32768
280
     0
281
     1
  0
CLASS
  1
XRECORD
  2
AcDbXrecord
  3
AutoCAD 2000
 90
    32768
280
     0
281
     0
  0
CLASS
  1
LONG_TRANSACTION
  2
AcDbLongTransaction
  3
AutoCAD 2000
 90
    32768
280
     0
281
     0
  0
CLASS
  1
LWPOLYLINE
  2
AcDbPolyline
  3
AutoCAD 2000
 90
    32768
280
     0
281
     1
  0
CLASS
  1
HATCH
  2
AcDbHatch
  3
AutoCAD 2000
 90
    32768
280
     0
281
     1
  0
CLASS
  1
XRECORD
  2
AcDbXrecord
  3
AutoCAD 2000
 90
    32768
280
     0
281
     0
  0
ENDSEC
  0
SECTION
  2
TABLES
  0
TABLE
  2
VPORT
  5
17B
330
0
100
AcDbSymbolTable
 70
    12
  0
VPORT
  5
ED2
330
17B
100
AcDbSymbolTableRecord
100
AcDbViewportTableRecord
  2
*Active
 70
     0
 10
0.0
 20
0.0
 11
1.0
 21
1.0
 12
311.2027158663922
 22
273.8567882398302
 13
0.0
 23
0.0
 14
0.0
 24
0.0
 15
0.0
 25
0.0
 16
0.0
 26
0.0
 36
1.0
 17
662.702334
 27
588.79375
 37
0.0
 40
1258.44944656575
 41
2.208937198067632
 42
50.0
 43
0.0
 44
0.0
 50
0.0
 51
0.0
 71
     0
 72
  1000
 73
     1
 74
     0
 75
     0
 76
     0
 77
     0
 78
     0
281
     0
 65
     1
110
0.0
120
0.0
130
0.0
111
1.0
121
0.0
131
0.0
112
0.0
122
1.0
132
0.0
 79
     0
146
0.0
  0
ENDTAB
  0
TABLE
  2
LTYPE
  5
178
330
0
100
AcDbSymbolTable
 70
     2
  0
LTYPE
  5
185
330
178
100
AcDbSymbolTableRecord
100
AcDbLinetypeTableRecord
  2
BYBLOCK
 70
     0
  3

 72
    65
 73
     0
 40
0.0
  0
LTYPE
  5
186
330
178
100
AcDbSymbolTableRecord
100
AcDbLinetypeTableRecord
  2
BYLAYER
 70
     0
  3

 72
    65
 73
     0
 40
0.0
  0
LTYPE
  5
187
330
178
100
AcDbSymbolTableRecord
100
AcDbLinetypeTableRecord
  2
CONTINUOUS
 70
     0
  3
Solid line
 72
    65
 73
     0
 40
0.0
  0
LTYPE
  5
7E3
330
178
100
AcDbSymbolTableRecord
100
AcDbLinetypeTableRecord
  2
DASHED
 70
     0
  3
__ __ __ __ __ __ __ __ __ __ __ __ __ __ __ __ __ __ __ __ __
 72
    65
 73
     2
 40
0.75
 49
0.5
 74
     0
 49
-0.25
 74
     0
  0
ENDTAB
  0
TABLE
  2
LAYER
  5
175
102
{ACAD_XDICTIONARY
360
E8D
102
}
330
0
100
AcDbSymbolTable
 70
     4
  0
LAYER
  5
181
330
175
100
AcDbSymbolTableRecord
100
AcDbLayerTableRecord
  2
0
 70
     0
 62
     7
  6
CONTINUOUS
370
    -3
390
96E
  0
LAYER
  5
19A
330
175
100
AcDbSymbolTableRecord
100
AcDbLayerTableRecord
  2
1
 70
     0
 62
     7
  6
CONTINUOUS
370
    -3
390
96E
  0
LAYER
  5
19B
330
175
100
AcDbSymbolTableRecord
100
AcDbLayerTableRecord
  2
-1
 70
     0
 62
     7
  6
CONTINUOUS
370
    -3
390
96E
  0
LAYER
  5
7D0
330
175
100
AcDbSymbolTableRecord
100
AcDbLayerTableRecord
  2
-10
 70
     0
 62
     7
  6
CONTINUOUS
370
    -3
390
96E
  0
ENDTAB
  0
TABLE
  2
STYLE
  5
176
330
0
100
AcDbSymbolTable
 70
     2
  0
STYLE
  5
182
330
176
100
AcDbSymbolTableRecord
100
AcDbTextStyleTableRecord
  2
STANDARD
 70
     0
 40
0.0
 41
1.0
 50
0.0
 71
     0
 42
0.2
  3
txt
  4

  0
STYLE
  5
C71
330
176
100
AcDbSymbolTableRecord
100
AcDbTextStyleTableRecord
  2
ROMANS
 70
     0
 40
0.2
 41
1.0
 50
0.0
 71
     0
 42
0.2
  3
ROMANS
  4

  0
ENDTAB
  0
TABLE
  2
VIEW
  5
179
330
0
100
AcDbSymbolTable
 70
     0
  0
ENDTAB
  0
TABLE
  2
UCS
  5
17A
330
0
100
AcDbSymbolTable
 70
     0
  0
ENDTAB
  0
TABLE
  2
APPID
  5
17C
330
0
100
AcDbSymbolTable
 70
     1
  0
APPID
  5
183
330
17C
100
AcDbSymbolTableRecord
100
AcDbRegAppTableRecord
  2
ACAD
 70
     0
  0
ENDTAB
  0
TABLE
  2
DIMSTYLE
  5
17D
330
0
100
AcDbSymbolTable
 70
     1
100
AcDbDimStyleTable
 71
     0
  0
DIMSTYLE
105
19E
330
17D
100
AcDbSymbolTableRecord
100
AcDbDimStyleTableRecord
  2
STANDARD
 70
     0
340
182
  0
ENDTAB
  0
TABLE
  2
BLOCK_RECORD
  5
174
330
0
100
AcDbSymbolTable
 70
     2
  0
BLOCK_RECORD
  5
18B
102
{ACAD_XDICTIONARY
360
C67
102
}
330
174
100
AcDbSymbolTableRecord
100
AcDbBlockTableRecord
  2
*MODEL_SPACE
340
E3D
  0
BLOCK_RECORD
  5
188
102
{ACAD_XDICTIONARY
360
C65
102
}
330
174
100
AcDbSymbolTableRecord
100
AcDbBlockTableRecord
  2
*PAPER_SPACE
340
E3E
  0
BLOCK_RECORD
  5
200
102
{ACAD_XDICTIONARY
360
207
102
}
330
174
100
AcDbSymbolTableRecord
100
AcDbBlockTableRecord
  2
FRAME
340
0
102
{BLKREFS
331
206
102
}
  0
BLOCK_RECORD
  5
EAA
330
174
100
AcDbSymbolTableRecord
100
AcDbBlockTableRecord
  2
A$C14BF5BC4
340
0
102
{BLKREFS
331
EB6
102
}
  0
ENDTAB
  0
ENDSEC
  0
SECTION
  2
BLOCKS
  0
BLOCK
  5
18C
330
18B
100
AcDbEntity
  8
0
100
AcDbBlockBegin
  2
*MODEL_SPACE
 70
     0
 10
0.0
 20
0.0
 30
0.0
  3
*MODEL_SPACE
  1

  0
ENDBLK
  5
18D
330
18B
100
AcDbEntity
  8
0
100
AcDbBlockEnd
  0
BLOCK
  5
189
330
188
100
AcDbEntity
 67
     1
  8
0
100
AcDbBlockBegin
  2
*PAPER_SPACE
 70
     0
 10
0.0
 20
0.0
 30
0.0
  3
*PAPER_SPACE
  1

  0
ENDBLK
  5
18A
330
188
100
AcDbEntity
 67
     1
  8
0
100
AcDbBlockEnd
  0
BLOCK
  5
201
330
200
100
AcDbEntity
  8
0
100
AcDbBlockBegin
  2
FRAME
 70
     4
 10
0.0
 20
0.0
 30
0.0
  3
FRAME
  1
C:\Active\Consol\Dwg\frame.dwg
  0
ENDBLK
  5
202
330
200
100
AcDbEntity
  8
0
100
AcDbBlockEnd
  0
BLOCK
  5
EB4
330
EAA
100
AcDbEntity
  8
0
 62
     7
100
AcDbBlockBegin
  2
A$C14BF5BC4
 70
     0
 10
0.0
 20
0.0
 30
0.0
  3
A$C14BF5BC4
  1

  0
LINE
  5
EAB
330
EAA
100
AcDbEntity
  8
0
  6
Continuous
 62
     7
100
AcDbLine
 10
7.445986554284217
 20
28.67296893919615
 30
0.0
 11
7.509629450061082
 21
22.31307973341448
 31
0.0
  0
LINE
  5
EAC
330
EAA
100
AcDbEntity
  8
0
  6
Continuous
 62
     7
100
AcDbLine
 10
0.0000019756491838
 20
28.67296893919615
 30
0.0
 11
0.1272816833782144
 21
22.12228345659809
 31
0.0
  0
LINE
  5
EAD
330
EAA
100
AcDbEntity
  8
0
  6
Continuous
 62
     7
100
AcDbLine
 10
0.1272816833782144
 20
22.12228345659809
 30
0.0
 11
7.57326930392537
 21
11.81926247501985
 31
0.0
  0
LINE
  5
EAE
330
EAA
100
AcDbEntity
  8
0
  6
Continuous
 62
     7
100
AcDbLine
 10
7.509629450061082
 20
22.31307973341448
 30
0.0
 11
4.009376649269142
 21
17.09796956562445
 31
0.0
  0
LINE
  5
EAF
330
EAA
100
AcDbEntity
  8
0
  6
Continuous
 62
     7
100
AcDbLine
 10
7.700552053567433
 20
5.332173915236237
 30
0.0
 11
4.14341712652822
 21
-0.0000029586035453
 31
0.0
  0
LINE
  5
EB0
330
EAA
100
AcDbEntity
  8
0
  6
Continuous
 62
     7
100
AcDbLine
 10
7.57326930392537
 20
11.81926247501985
 30
0.0
 11
7.700552053567433
 21
5.332173915236237
 31
0.0
  0
LINE
  5
EB1
330
EAA
100
AcDbEntity
  8
0
  6
Continuous
 62
     7
100
AcDbLine
 10
3.676512991324216
 20
33.99999704139577
 30
0.0
 11
0.0000019756491838
 21
28.67296893919615
 31
0.0
  0
LINE
  5
EB2
330
EAA
100
AcDbEntity
  8
0
  6
Continuous
 62
     7
100
AcDbLine
 10
3.676512991325124
 20
33.99999704139712
 30
0.0
 11
7.445986554284217
 21
28.67296893919615
 31
0.0
  0
LINE
  5
EB3
330
EAA
100
AcDbEntity
  8
0
  6
Continuous
 62
     7
100
AcDbLine
 10
3.676512991324216
 20
33.99999704139645
 30
0.0
 11
3.676512991325124
 21
33.99999704139712
 31
0.0
  0
ENDBLK
  5
EB5
330
EAA
100
AcDbEntity
  8
0
 62
     7
100
AcDbBlockEnd
  0
ENDSEC
  0
SECTION
  2
ENTITIES
  0
LINE
  5
6C7
330
18B
100
AcDbEntity
  8
1
  6
Continuous
 62
     3
100
AcDbLine
 10
1072.232022
 20
226.906627
 30
0.0
 11
1072.232022
 21
342.214346
 31
0.0
  0
LINE
  5
6CA
330
18B
100
AcDbEntity
  8
-1
  6
Continuous
 62
     3
100
AcDbLine
 10
467.170198
 20
246.906627
 30
0.0
 11
1048.519522
 21
246.906627
 31
0.0
  0
LINE
  5
6CB
330
18B
100
AcDbEntity
  8
1
  6
Continuous
 62
     3
100
AcDbLine
 10
443.4576980000001
 20
227.024993
 30
0.0
 11
443.4576980000001
 21
322.2143459999998
 31
0.0
  0
LINE
  5
6D5
330
18B
100
AcDbEntity
  8
1
  6
Continuous
 62
     3
100
AcDbLine
 10
443.4576980000001
 20
247.024993
 30
0.0
 11
467.170198
 21
253.581243
 31
0.0
  0
LINE
  5
6D6
330
18B
100
AcDbEntity
  8
1
  6
Continuous
 62
     3
100
AcDbLine
 10
443.4576980000001
 20
247.024993
 30
0.0
 11
467.170198
 21
240.468743
 31
0.0
  0
LINE
  5
6D7
330
18B
100
AcDbEntity
  8
1
  6
Continuous
 62
     3
100
AcDbLine
 10
467.170198
 20
240.468743
 30
0.0
 11
467.170198
 21
253.581243
 31
0.0
  0
LINE
  5
6D8
330
18B
100
AcDbEntity
  8
1
  6
Continuous
 62
     3
100
AcDbLine
 10
467.170198
 20
240.468743
 30
0.0
 11
467.170198
 21
253.581243
 31
0.0
  0
LINE
  5
6F7
330
18B
100
AcDbEntity
  8
1
  6
Continuous
 62
     3
100
AcDbLine
 10
1072.232022
 20
246.906627
 30
0.0
 11
1048.519522
 21
240.3503769999999
 31
0.0
  0
LINE
  5
6F8
330
18B
100
AcDbEntity
  8
1
  6
Continuous
 62
     3
100
AcDbLine
 10
1072.232022
 20
246.906627
 30
0.0
 11
1048.519522
 21
253.4628769999999
 31
0.0
  0
LINE
  5
6F9
330
18B
100
AcDbEntity
  8
1
  6
Continuous
 62
     3
100
AcDbLine
 10
1048.519522
 20
240.3503769999999
 30
0.0
 11
1048.519522
 21
253.4628769999999
 31
0.0
  0
LINE
  5
721
330
18B
100
AcDbEntity
  8
-1
  6
Continuous
 62
     3
100
AcDbLine
 10
1221.783642
 20
385.926846
 30
0.0
 11
1221.783642
 21
653.7164580993296
 31
0.0
  0
LINE
  5
722
330
18B
100
AcDbEntity
  8
1
  6
Continuous
 62
     3
100
AcDbLine
 10
1241.665275999999
 20
362.2143459999998
 30
0.0
 11
1117.663219999998
 21
362.2143459999998
 31
0.0
  0
LINE
  5
723
330
18B
100
AcDbEntity
  8
1
  6
Continuous
 62
     3
100
AcDbLine
 10
1228.221526
 20
385.926846
 30
0.0
 11
1215.109026
 21
385.926846
 31
0.0
  0
LINE
  5
724
330
18B
100
AcDbEntity
  8
1
  6
Continuous
 62
     3
100
AcDbLine
 10
1221.665276
 20
362.2143459999998
 30
0.0
 11
1228.221526
 21
385.926846
 31
0.0
  0
LINE
  5
725
330
18B
100
AcDbEntity
  8
1
  6
Continuous
 62
     3
100
AcDbLine
 10
1228.221526
 20
385.926846
 30
0.0
 11
1215.109026
 21
385.926846
 31
0.0
  0
LINE
  5
726
330
18B
100
AcDbEntity
  8
1
  6
Continuous
 62
     3
100
AcDbLine
 10
1221.665276
 20
362.2143459999998
 30
0.0
 11
1215.109026
 21
385.926846
 31
0.0
  0
LINE
  5
727
330
18B
100
AcDbEntity
  8
1
  6
Continuous
 62
     3
100
AcDbLine
 10
1241.783642
 20
994.939062
 30
0.0
 11
1112.232022
 21
994.939062
 31
0.0
  0
LINE
  5
728
330
18B
100
AcDbEntity
  8
1
  6
Continuous
 62
     3
100
AcDbLine
 10
1221.783642
 20
994.939062
 30
0.0
 11
1228.339892
 21
971.226562
 31
0.0
  0
LINE
  5
729
330
18B
100
AcDbEntity
  8
1
  6
Continuous
 62
     3
100
AcDbLine
 10
1221.783642
 20
994.939062
 30
0.0
 11
1215.227392
 21
971.226562
 31
0.0
  0
LINE
  5
72A
330
18B
100
AcDbEntity
  8
1
  6
Continuous
 62
     3
100
AcDbLine
 10
1228.339892
 20
971.226562
 30
0.0
 11
1215.227392
 21
971.226562
 31
0.0
  0
LINE
  5
739
330
18B
100
AcDbEntity
  8
0
  6
Continuous
 62
     4
100
AcDbLine
 10
381.2516049999998
 20
362.2143459999998
 30
0.0
 11
1082.049624962804
 21
362.2143459999998
 31
0.0
  0
LINE
  5
779
330
18B
100
AcDbEntity
  8
1
  6
Continuous
 62
     7
100
AcDbLine
 10
381.1905412015827
 20
379.2143459999998
 30
0.0
 11
1032.164027406349
 21
379.2143459999998
 31
0.0
  0
LINE
  5
77A
330
18B
100
AcDbEntity
  8
0
  6
Continuous
 62
     7
100
AcDbLine
 10
381.3409178428313
 20
345.2143459999998
 30
0.0
 11
1032.164027406349
 21
345.2143459999998
 31
0.0
  0
LINE
  5
780
330
18B
100
AcDbEntity
  8
0
  6
Continuous
 62
     7
100
AcDbLine
 10
1032.164027406349
 20
379.2655788483853
 30
0.0
 11
1032.164027406349
 21
345.2143459999998
 31
0.0
  0
LINE
  5
783
330
18B
100
AcDbEntity
  8
0
  6
Continuous
 62
     4
100
AcDbLine
 10
1072.232022
 20
954.9219910000001
 30
0.0
 11
1072.232022
 21
1046.168602999999
 31
0.0
  0
LINE
  5
7B6
330
18B
100
AcDbEntity
  8
0
  6
Continuous
 62
     4
100
AcDbLine
 10
423.457698
 20
362.2143459999998
 30
0.0
 11
443.4576980000001
 21
362.2143459999998
 31
0.0
  0
LINE
  5
909
330
18B
100
AcDbEntity
  8
1
  6
Continuous
 62
     3
100
AcDbLine
 10
1081.626969193997
 20
274.5243479999998
 30
0.0
 11
1081.626969193997
 21
342.142068
 31
0.0
  0
LINE
  5
90A
330
18B
100
AcDbEntity
  8
1
  6
Continuous
 62
     3
100
AcDbLine
 10
1048.519522
 20
288.0042369999998
 30
0.0
 11
1048.519522
 21
301.1167369999999
 31
0.0
  0
LINE
  5
90B
330
18B
100
AcDbEntity
  8
1
  6
Continuous
 62
     3
100
AcDbLine
 10
1072.232022
 20
294.560487
 30
0.0
 11
1048.519522
 21
301.1167369999999
 31
0.0
  0
LINE
  5
90C
330
18B
100
AcDbEntity
  8
1
  6
Continuous
 62
     3
100
AcDbLine
 10
1072.232022
 20
294.560487
 30
0.0
 11
1048.519522
 21
288.0042369999998
 31
0.0
  0
LINE
  5
90D
330
18B
100
AcDbEntity
  8
1
  6
Continuous
 62
     3
100
AcDbLine
 10
1048.519522
 20
294.560487
 30
0.0
 11
1023.279664
 21
294.560487
 31
0.0
  0
LINE
  5
90E
330
18B
100
AcDbEntity
  8
1
  6
Continuous
 62
     3
100
AcDbLine
 10
1105.339469193997
 20
294.5243479999998
 30
0.0
 11
1153.349824193997
 21
294.5243479999998
 31
0.0
  0
LINE
  5
90F
330
18B
100
AcDbEntity
  8
1
  6
Continuous
 62
     3
100
AcDbLine
 10
1081.626969193997
 20
294.5243479999998
 30
0.0
 11
1105.339469193997
 21
301.080598
 31
0.0
  0
LINE
  5
910
330
18B
100
AcDbEntity
  8
1
  6
Continuous
 62
     3
100
AcDbLine
 10
1105.339469193997
 20
287.9680979999998
 30
0.0
 11
1105.339469193997
 21
301.080598
 31
0.0
  0
LINE
  5
911
330
18B
100
AcDbEntity
  8
1
  6
Continuous
 62
     3
100
AcDbLine
 10
1081.626969193997
 20
294.5243479999998
 30
0.0
 11
1105.339469193997
 21
287.9680979999998
 31
0.0
  0
LINE
  5
912
330
18B
100
AcDbEntity
  8
-1
  6
Continuous
 62
     3
100
AcDbLine
 10
1221.783642
 20
712.9177365206596
 30
0.0
 11
1221.783642
 21
971.226562
 31
0.0
  0
LWPOLYLINE
  5
935
330
18B
100
AcDbEntity
  8
0
  6
Continuous
 62
     7
100
AcDbPolyline
 90
        2
 70
     0
 43
0.0
 10
462.457698
 20
343.2143459999998
 10
424.457698
 20
381.2143459999998
  0
LWPOLYLINE
  5
936
330
18B
100
AcDbEntity
  8
0
  6
Continuous
 62
   255
100
AcDbPolyline
 90
        2
 70
     0
 43
0.0
 10
462.457698
 20
381.2143459999998
 10
424.457698
 20
343.2143459999998
  0
LINE
  5
959
330
18B
100
AcDbEntity
  8
0
  6
Continuous
 62
     7
100
AcDbLine
 10
424.457698
 20
381.2143459999998
 30
0.0
 11
462.457698
 21
343.2143459999998
 31
0.0
  0
LINE
  5
95A
330
18B
100
AcDbEntity
  8
0
  6
Continuous
 62
     7
100
AcDbLine
 10
462.457698
 20
381.2143459999998
 30
0.0
 11
424.457698
 21
343.2143459999998
 31
0.0
  0
LINE
  5
981
330
18B
100
AcDbEntity
  8
0
  6
Continuous
 62
     7
100
AcDbLine
 10
1055.232022
 20
910.1336585606532
 30
0.0
 11
1064.158894635486
 21
411.7874698870386
 31
0.0
  0
ARC
  5
983
330
18B
100
AcDbEntity
  8
0
  6
Continuous
 62
     4
100
AcDbCircle
 10
6072.232022
 20
954.9219910000001
 30
0.0
 40
5000.0
100
AcDbArc
 50
180.0
 51
181.3310302503989
  0
LINE
  5
985
330
18B
100
AcDbEntity
  8
0
  6
Continuous
 62
     4
100
AcDbLine
 10
1072.945905128751
 20
870.4330993423111
 30
0.0
 11
1082.049624962804
 21
362.2143459999998
 31
0.0
  0
LINE
  5
986
330
18B
100
AcDbEntity
  8
0
  6
Continuous
 62
     7
100
AcDbLine
 10
1089.232022
 20
910.4381550461576
 30
0.0
 11
1098.153441066443
 21
412.3964140170181
 31
0.0
  0
LINE
  5
A15
330
18B
100
AcDbEntity
  8
0
  6
Continuous
 62
     7
100
AcDbLine
 10
1055.232022
 20
910.1336585606532
 30
0.0
 11
1055.232022
 21
1046.070596921323
 31
0.0
  0
LINE
  5
A16
330
18B
100
AcDbEntity
  8
0
  6
Continuous
 62
     7
100
AcDbLine
 10
1089.232022
 20
910.4381550461576
 30
0.0
 11
1089.232022
 21
1046.17968304648
 31
0.0
  0
LINE
  5
A8D
330
18B
100
AcDbEntity
  8
0
  6
Continuous
 62
     7
100
AcDbLine
 10
1102.232021999999
 20
954.9390619999996
 30
0.0
 11
1102.232021999999
 21
1034.939061999999
 31
0.0
  0
LINE
  5
A8E
330
18B
100
AcDbEntity
  8
0
  6
Continuous
 62
     7
100
AcDbLine
 10
1042.232022
 20
954.9390619999996
 30
0.0
 11
1042.232022
 21
1034.939061999999
 31
0.0
  0
LINE
  5
ADD
330
18B
100
AcDbEntity
  8
0
  6
Continuous
 62
     7
100
AcDbLine
 10
1064.158894635485
 20
411.7874698870386
 30
0.0
 11
1098.153441066443
 21
412.3964140170182
 31
0.0
  0
TEXT
  5
C78
330
18B
100
AcDbEntity
  8
-1
  6
Continuous
 62
     7
100
AcDbText
 10
402.2834769178773
 20
399.1788411707278
 30
0.0
 40
15.81875
  1
Anchor
  7
ROMANS
 11
402.2834769178773
 21
414.9975911707278
 31
0.0
100
AcDbText
 73
     3
  0
TEXT
  5
C9D
330
18B
100
AcDbEntity
  8
-1
  6
Continuous
 62
     7
100
AcDbText
 10
1118.17299130305
 20
1009.209802940639
 30
0.0
 40
15.81875
  1
First Guidee
  7
ROMANS
 11
1118.17299130305
 21
1025.028552940639
 31
0.0
100
AcDbText
 73
     3
  0
LINE
  5
E45
330
18B
100
AcDbEntity
  8
0
  6
Continuous
 62
     4
100
AcDbLine
 10
1032.164027406349
 20
362.2927962990893
 30
0.0
 11
1033.041623358378
 21
362.2222055553832
 31
0.0
  0
LINE
  5
E46
330
18B
100
AcDbEntity
  8
0
  6
Continuous
 62
     4
100
AcDbLine
 10
1033.041623358378
 20
362.2222055553832
 30
0.0
 11
1042.58265305384
 21
363.3347862733533
 31
0.0
  0
LINE
  5
E47
330
18B
100
AcDbEntity
  8
0
  6
Continuous
 62
     4
100
AcDbLine
 10
1042.58265305384
 20
363.3347862733533
 30
0.0
 11
1051.7233008085
 21
366.2873516204521
 31
0.0
  0
LINE
  5
E48
330
18B
100
AcDbEntity
  8
0
  6
Continuous
 62
     4
100
AcDbLine
 10
1051.7233008085
 20
366.2873516204521
 30
0.0
 11
1060.112296655285
 21
370.9664361662083
 31
0.0
  0
LINE
  5
E49
330
18B
100
AcDbEntity
  8
0
  6
Continuous
 62
     4
100
AcDbLine
 10
1060.112296655285
 20
370.9664361662083
 30
0.0
 11
1067.427256188402
 21
377.1922253155892
 31
0.0
  0
LINE
  5
E4A
330
18B
100
AcDbEntity
  8
0
  6
Continuous
 62
     4
100
AcDbLine
 10
1067.427256188402
 20
377.1922253155892
 30
0.0
 11
1073.387069615272
 21
384.7254654830468
 31
0.0
  0
LINE
  5
E4B
330
18B
100
AcDbEntity
  8
0
  6
Continuous
 62
     4
100
AcDbLine
 10
1073.387069615272
 20
384.7254654830468
 30
0.0
 11
1077.762704648201
 21
393.2766584736357
 31
0.0
  0
LINE
  5
E4C
330
18B
100
AcDbEntity
  8
0
  6
Continuous
 62
     4
100
AcDbLine
 10
1077.762704648201
 20
393.2766584736357
 30
0.0
 11
1080.386008086757
 21
402.5171867362916
 31
0.0
  0
LINE
  5
E4D
330
18B
100
AcDbEntity
  8
0
  6
Continuous
 62
     4
100
AcDbLine
 10
1080.386008086757
 20
402.5171867362916
 30
0.0
 11
1081.156167850964
 21
412.0919419520284
 31
0.0
  0
LINE
  5
E4E
330
18B
100
AcDbEntity
  8
0
  6
Continuous
 62
     7
100
AcDbLine
 10
1032.164027406349
 20
379.2655788483853
 30
0.0
 11
1032.737151293388
 21
379.2194787708629
 31
0.0
  0
LINE
  5
E4F
330
18B
100
AcDbEntity
  8
0
  6
Continuous
 62
     7
100
AcDbLine
 10
1032.737151293388
 20
379.2194787708629
 30
0.0
 11
1038.9680278292
 21
379.9460620968841
 31
0.0
  0
LINE
  5
E50
330
18B
100
AcDbEntity
  8
0
  6
Continuous
 62
     7
100
AcDbLine
 10
1038.9680278292
 20
379.9460620968841
 30
0.0
 11
1044.937430444488
 21
381.8742680378466
 31
0.0
  0
LINE
  5
E51
330
18B
100
AcDbEntity
  8
0
  6
Continuous
 62
     7
100
AcDbLine
 10
1044.937430444488
 20
381.8742680378466
 30
0.0
 11
1050.415958344429
 21
384.9299967207893
 31
0.0
  0
LINE
  5
E52
330
18B
100
AcDbEntity
  8
0
  6
Continuous
 62
     7
100
AcDbLine
 10
1050.415958344429
 20
384.9299967207893
 30
0.0
 11
1055.193074774219
 21
388.9958182060991
 31
0.0
  0
LINE
  5
E53
330
18B
100
AcDbEntity
  8
0
  6
Continuous
 62
     7
100
AcDbLine
 10
1055.193074774219
 20
388.9958182060991
 30
0.0
 11
1059.085197828502
 21
393.9154852542346
 31
0.0
  0
LINE
  5
E54
330
18B
100
AcDbEntity
  8
0
  6
Continuous
 62
     7
100
AcDbLine
 10
1059.085197828502
 20
393.9154852542346
 30
0.0
 11
1061.942755401027
 21
399.4999378195169
 31
0.0
  0
LINE
  5
E55
330
18B
100
AcDbEntity
  8
0
  6
Continuous
 62
     7
100
AcDbLine
 10
1061.942755401027
 20
399.4999378195169
 30
0.0
 11
1063.655933156818
 21
405.5345685216591
 31
0.0
  0
LINE
  5
E56
330
18B
100
AcDbEntity
  8
0
  6
Continuous
 62
     7
100
AcDbLine
 10
1063.655933156818
 20
405.5345685216591
 30
0.0
 11
1064.158894635486
 21
411.7874698870386
 31
0.0
  0
LINE
  5
E57
330
18B
100
AcDbEntity
  8
0
  6
Continuous
 62
     7
100
AcDbLine
 10
1032.164027406349
 20
345.3200137497958
 30
0.0
 11
1033.346095423367
 21
345.2249323399056
 31
0.0
  0
LINE
  5
E58
330
18B
100
AcDbEntity
  8
0
  6
Continuous
 62
     7
100
AcDbLine
 10
1033.346095423367
 20
345.2249323399056
 30
0.0
 11
1046.197278278476
 21
346.7235104498247
 31
0.0
  0
LINE
  5
E59
330
18B
100
AcDbEntity
  8
0
  6
Continuous
 62
     7
100
AcDbLine
 10
1046.197278278476
 20
346.7235104498247
 30
0.0
 11
1058.509171172512
 21
350.7004352030598
 31
0.0
  0
LINE
  5
E5A
330
18B
100
AcDbEntity
  8
0
  6
Continuous
 62
     7
100
AcDbLine
 10
1058.509171172512
 20
350.7004352030598
 30
0.0
 11
1069.808634966139
 21
357.0028756116292
 31
0.0
  0
LINE
  5
E5B
330
18B
100
AcDbEntity
  8
0
  6
Continuous
 62
     7
100
AcDbLine
 10
1069.808634966139
 20
357.0028756116292
 30
0.0
 11
1079.661437602583
 21
365.3886324250807
 31
0.0
  0
LINE
  5
E5C
330
18B
100
AcDbEntity
  8
0
  6
Continuous
 62
     7
100
AcDbLine
 10
1079.661437602583
 20
365.3886324250807
 30
0.0
 11
1087.688941402039
 21
375.5354457118601
 31
0.0
  0
LINE
  5
E5D
330
18B
100
AcDbEntity
  8
0
  6
Continuous
 62
     7
100
AcDbLine
 10
1087.688941402039
 20
375.5354457118601
 30
0.0
 11
1093.582653895371
 21
387.0533791277549
 31
0.0
  0
LINE
  5
E5E
330
18B
100
AcDbEntity
  8
0
  6
Continuous
 62
     7
100
AcDbLine
 10
1093.582653895371
 20
387.0533791277549
 30
0.0
 11
1097.116083016694
 21
399.4998049509238
 31
0.0
  0
LINE
  5
E5F
330
18B
100
AcDbEntity
  8
0
  6
Continuous
 62
     7
100
AcDbLine
 10
1097.116083016694
 20
399.4998049509238
 30
0.0
 11
1098.153441066443
 21
412.3964140170181
 31
0.0
  0
LINE
  5
E67
330
18B
100
AcDbEntity
  8
0
  6
Continuous
 62
     5
100
AcDbLine
 10
747.0011433363838
 20
274.9892841082099
 30
0.0
 11
761.0011433363838
 21
274.9892841082099
 31
0.0
  0
LINE
  5
E6B
330
18B
100
AcDbEntity
  8
0
  6
Continuous
 62
     2
100
AcDbLine
 10
747.0011433363838
 20
214.2700264133549
 30
0.0
 11
762.0011433363838
 21
214.2700264133549
 31
0.0
  0
LINE
  5
E70
330
18B
100
AcDbEntity
  8
0
  6
Continuous
 62
     5
100
AcDbLine
 10
1220.9242394177
 20
684.0852895695786
 30
0.0
 11
1236.9242394177
 21
684.0852895695786
 31
0.0
  0
LINE
  5
E78
330
18B
100
AcDbEntity
  8
0
  6
Continuous
 62
     5
100
AcDbLine
 10
1133.859479120686
 20
322.6070051082097
 30
0.0
 11
1150.859479120686
 21
322.6070051082097
 31
0.0
  0
LINE
  5
E79
330
18B
100
AcDbEntity
  8
0
  6
Continuous
 62
     2
100
AcDbLine
 10
442.3249691529963
 20
410.1537642425658
 30
0.0
 11
460.3249691529962
 21
410.1537642425658
 31
0.0
  0
LINE
  5
E7B
330
18B
100
AcDbEntity
  8
0
  6
Continuous
 62
     2
100
AcDbLine
 10
1215.072577400019
 20
931.9397302502117
 30
0.0
 11
1234.072577400019
 21
931.9397302502117
 31
0.0
  0
LINE
  5
EA1
330
18B
100
AcDbEntity
  8
0
  6
Continuous
 62
     7
100
AcDbLine
 10
1060.559050102199
 20
1049.482252474236
 30
0.0
 11
1066.918939307982
 21
1049.545895370012
 31
0.0
  0
LINE
  5
EA2
330
18B
100
AcDbEntity
  8
0
  6
Continuous
 62
     7
100
AcDbLine
 10
1060.559050102199
 20
1042.0362678956
 30
0.0
 11
1067.109735584798
 21
1042.163547603329
 31
0.0
  0
LINE
  5
EA3
330
18B
100
AcDbEntity
  8
0
  6
Continuous
 62
     7
100
AcDbLine
 10
1067.109735584798
 20
1042.163547603329
 30
0.0
 11
1077.412756566376
 21
1049.609535223877
 31
0.0
  0
LINE
  5
EA4
330
18B
100
AcDbEntity
  8
0
  6
Continuous
 62
     7
100
AcDbLine
 10
1066.918939307982
 20
1049.545895370012
 30
0.0
 11
1072.134049475771
 21
1046.045642569221
 31
0.0
  0
LINE
  5
EA5
330
18B
100
AcDbEntity
  8
0
  6
Continuous
 62
     7
100
AcDbLine
 10
1083.89984512616
 20
1049.736817973519
 30
0.0
 11
1089.232022
 21
1046.17968304648
 31
0.0
  0
LINE
  5
EA6
330
18B
100
AcDbEntity
  8
0
  6
Continuous
 62
     7
100
AcDbLine
 10
1077.412756566376
 20
1049.609535223877
 30
0.0
 11
1083.89984512616
 21
1049.736817973519
 31
0.0
  0
LINE
  5
EA7
330
18B
100
AcDbEntity
  8
0
  6
Continuous
 62
     7
100
AcDbLine
 10
1055.232022
 20
1045.712778911276
 30
0.0
 11
1060.559050102199
 21
1042.0362678956
 31
0.0
  0
LINE
  5
EA8
330
18B
100
AcDbEntity
  8
0
  6
Continuous
 62
     7
100
AcDbLine
 10
1055.232021999999
 20
1045.712778911277
 30
0.0
 11
1060.559050102199
 21
1049.482252474236
 31
0.0
  0
LINE
  5
EA9
330
18B
100
AcDbEntity
  8
0
  6
Continuous
 62
     7
100
AcDbLine
 10
1055.232022
 20
1045.712778911276
 30
0.0
 11
1055.232021999999
 21
1045.712778911277
 31
0.0
  0
LINE
  5
EB7
330
18B
100
AcDbEntity
  8
0
  6
Continuous
 62
     7
100
AcDbLine
 10
377.8879717738266
 20
350.5413741022
 30
0.0
 11
377.8243288780498
 21
356.9012633079818
 31
0.0
  0
LINE
  5
EB8
330
18B
100
AcDbEntity
  8
0
  6
Continuous
 62
     7
100
AcDbLine
 10
385.3339563524617
 20
350.5413741022
 30
0.0
 11
385.2066766447326
 21
357.0920595847982
 31
0.0
  0
LINE
  5
EB9
330
18B
100
AcDbEntity
  8
0
  6
Continuous
 62
     7
100
AcDbLine
 10
385.2066766447326
 20
357.0920595847982
 30
0.0
 11
377.7606890241854
 21
367.3950805663763
 31
0.0
  0
LINE
  5
EBA
330
18B
100
AcDbEntity
  8
0
  6
Continuous
 62
     7
100
AcDbLine
 10
377.8243288780498
 20
356.9012633079818
 30
0.0
 11
381.3245816788418
 21
362.1163734757718
 31
0.0
  0
LINE
  5
EBB
330
18B
100
AcDbEntity
  8
0
  6
Continuous
 62
     7
100
AcDbLine
 10
377.6334062745435
 20
373.8821691261601
 30
0.0
 11
381.1905412015827
 21
379.2143459999998
 31
0.0
  0
LINE
  5
EBC
330
18B
100
AcDbEntity
  8
0
  6
Continuous
 62
     7
100
AcDbLine
 10
377.7606890241854
 20
367.3950805663763
 30
0.0
 11
377.6334062745435
 21
373.8821691261601
 31
0.0
  0
LINE
  5
EBD
330
18B
100
AcDbEntity
  8
0
  6
Continuous
 62
     7
100
AcDbLine
 10
381.6574453367866
 20
345.2143460000005
 30
0.0
 11
385.3339563524617
 21
350.5413741022
 31
0.0
  0
LINE
  5
EBE
330
18B
100
AcDbEntity
  8
0
  6
Continuous
 62
     7
100
AcDbLine
 10
381.6574453367858
 20
345.2143459999991
 30
0.0
 11
377.8879717738266
 21
350.5413741022
 31
0.0
  0
LINE
  5
EBF
330
18B
100
AcDbEntity
  8
0
  6
Continuous
 62
     7
100
AcDbLine
 10
381.6574453367866
 20
345.2143459999998
 30
0.0
 11
381.6574453367858
 21
345.2143459999991
 31
0.0
  0
ENDSEC
  0
SECTION
  2
OBJECTS
  0
DICTIONARY
  5
17F
330
0
100
AcDbDictionary
281
     1
  3
ACAD_GROUP
350
180
  3
ACAD_MLINESTYLE
350
18E
  3
ACAD_PLOTSTYLENAME
350
96D
  3
ACAD_LAYOUT
350
96F
  3
ACAD_PLOTSETTINGS
350
970
  0
DICTIONARY
  5
E8D
330
175
100
AcDbDictionary
280
     1
281
     1
  3
ACAD_LAYERFILTERS
360
E8E
  0
DICTIONARY
  5
C67
330
18B
100
AcDbDictionary
280
     1
281
     1
  3
ACAD_LAYOUTSELFREF
360
E38
  0
DICTIONARY
  5
C65
330
188
100
AcDbDictionary
280
     1
281
     1
  3
ACAD_LAYOUTSELFREF
360
E37
  0
DICTIONARY
  5
207
330
200
100
AcDbDictionary
280
     1
281
     1
  0
DICTIONARY
  5
180
102
{ACAD_REACTORS
330
17F
102
}
330
17F
100
AcDbDictionary
281
     1
  0
DICTIONARY
  5
18E
102
{ACAD_REACTORS
330
17F
102
}
330
17F
100
AcDbDictionary
281
     1
  3
STANDARD
350
18F
  0
ACDBDICTIONARYWDFLT
  5
96D
102
{ACAD_REACTORS
330
17F
102
}
330
17F
100
AcDbDictionary
281
     1
  3
Normal
350
96E
100
AcDbDictionaryWithDefault
340
96E
  0
DICTIONARY
  5
96F
102
{ACAD_REACTORS
330
17F
102
}
330
17F
100
AcDbDictionary
281
     1
  3
Model
350
E3D
  3
Layout1
350
E3E
  0
DICTIONARY
  5
970
102
{ACAD_REACTORS
330
17F
102
}
330
17F
100
AcDbDictionary
281
     1
  0
DICTIONARY
  5
E8E
102
{ACAD_REACTORS
330
E8D
102
}
330
E8D
100
AcDbDictionary
280
     1
281
     1
  3
1
360
E8F
  3
frozen
360
E90
  3
on-thaw
360
E91
  3
on_thaw
360
E92
  3
TEXT
360
E93
  0
XRECORD
  5
E38
102
{ACAD_REACTORS
330
C67
102
}
330
C67
100
AcDbXrecord
280
     1
340
18B
  0
XRECORD
  5
E37
102
{ACAD_REACTORS
330
C65
102
}
330
C65
100
AcDbXrecord
280
     1
340
188
  0
MLINESTYLE
  5
18F
102
{ACAD_REACTORS
330
18E
102
}
330
18E
100
AcDbMlineStyle
  2
STANDARD
 70
     0
  3

 62
   256
 51
90.0
 52
90.0
 71
     2
 49
0.5
 62
   256
  6
BYLAYER
 49
-0.5
 62
   256
  6
BYLAYER
  0
ACDBPLACEHOLDER
  5
96E
102
{ACAD_REACTORS
330
96D
102
}
330
96D
  0
LAYOUT
  5
E3D
102
{ACAD_REACTORS
330
96F
102
}
330
96F
100
AcDbPlotSettings
  1

  2
Samsung ML-2160 Series
  4

  6

 40
0.0
 41
0.0
 42
0.0
 43
0.0
 44
0.0
 45
0.0
 46
0.0
 47
0.0
 48
0.0
 49
0.0
140
0.0
141
0.0
142
1.0
143
1.0
 70
  1712
 72
     0
 73
     0
 74
     0
  7

 75
     0
147
1.0
148
0.0
149
0.0
100
AcDbLayout
  1
Model
 70
     1
 71
     0
 10
0.0
 20
0.0
 11
12.0
 21
9.0
 12
0.0
 22
0.0
 32
0.0
 14
0.0
 24
0.0
 34
0.0
 15
0.0
 25
0.0
 35
0.0
146
0.0
 13
0.0
 23
0.0
 33
0.0
 16
1.0
 26
0.0
 36
0.0
 17
0.0
 27
1.0
 37
0.0
 76
     0
330
18B
  0
LAYOUT
  5
E3E
102
{ACAD_REACTORS
330
96F
102
}
330
96F
100
AcDbPlotSettings
  1

  2
Samsung ML-2160 Series
  4

  6

 40
0.0
 41
0.0
 42
0.0
 43
0.0
 44
0.0
 45
0.0
 46
0.0
 47
0.0
 48
0.0
 49
0.0
140
0.0
141
0.0
142
1.0
143
1.0
 70
   688
 72
     0
 73
     0
 74
     5
  7

 75
    16
147
1.0
148
0.0
149
0.0
100
AcDbLayout
  1
Layout1
 70
     1
 71
     1
 10
0.0
 20
0.0
 11
12.0
 21
9.0
 12
0.0
 22
0.0
 32
0.0
 14
-1.000000000000000E+20
 24
-1.000000000000000E+20
 34
-1.000000000000000E+20
 15
-1.000000000000000E+20
 25
-1.000000000000000E+20
 35
-1.000000000000000E+20
146
0.0
 13
0.0
 23
0.0
 33
0.0
 16
1.0
 26
0.0
 36
0.0
 17
0.0
 27
1.0
 37
0.0
 76
     0
330
188
  0
XRECORD
  5
E8F
102
{ACAD_REACTORS
330
E8E
102
}
330
E8E
100
AcDbXrecord
280
     1
  1
1
  1
*
  1
*
  1
*
 70
     1
  1
*
  1
*
  0
XRECORD
  5
E90
102
{ACAD_REACTORS
330
E8E
102
}
330
E8E
100
AcDbXrecord
280
     1
  1
frozen
  1
*
  1
*
  1
*
 70
     4
  1
*
  1
*
  0
XRECORD
  5
E91
102
{ACAD_REACTORS
330
E8E
102
}
330
E8E
100
AcDbXrecord
280
     1
  1
on-thaw
  1
*
  1
*
  1
*
 70
    13
  1
*
  1
*
  0
XRECORD
  5
E92
102
{ACAD_REACTORS
330
E8E
102
}
330
E8E
100
AcDbXrecord
280
     1
  1
on_thaw
  1
*
  1
*
  1
*
 70
    13
  1
*
  1
*
  0
XRECORD
  5
E93
102
{ACAD_REACTORS
330
E8E
102
}
330
E8E
100
AcDbXrecord
280
     1
  1
TEXT
  1
*
  1
*
  1
*
 70
     0
  1
*
  1
*
  0
ENDSEC
  0
EOF
