  0
SECTION
  2
HEADER
  9
$ACADVER
  1
AC1015
  9
$ACADMAINTVER
 70
     6
  9
$DWGCODEPAGE
  3
ANSI_1252
  9
$INSBASE
 10
0.0
 20
0.0
 30
0.0
  9
$EXTMIN
 10
604.0
 20
381.9562499999998
 30
0.0
  9
$EXTMAX
 10
1240.93125
 20
950.7625
 30
0.0
  9
$LIMMIN
 10
0.0
 20
0.0
  9
$LIMMAX
 10
12.0
 20
9.0
  9
$ORTHOMODE
 70
     0
  9
$REGENMODE
 70
     1
  9
$FILLMODE
 70
     1
  9
$QTEXTMODE
 70
     0
  9
$MIRRTEXT
 70
     1
  9
$LTSCALE
 40
1.0
  9
$ATTMODE
 70
     1
  9
$TEXTSIZE
 40
0.0
  9
$TRACEWID
 40
0.05
  9
$TEXTSTYLE
  7
STANDARD
  9
$CLAYER
  8
0
  9
$CELTYPE
  6
CONTINUOUS
  9
$CECOLOR
 62
   256
  9
$CELTSCALE
 40
1.0
  9
$DISPSILH
 70
     0
  9
$DIMSCALE
 40
1.0
  9
$DIMASZ
 40
0.18
  9
$DIMEXO
 40
0.0625
  9
$DIMDLI
 40
0.38
  9
$DIMRND
 40
0.0
  9
$DIMDLE
 40
0.0
  9
$DIMEXE
 40
0.18
  9
$DIMTP
 40
0.0
  9
$DIMTM
 40
0.0
  9
$DIMTXT
 40
0.18
  9
$DIMCEN
 40
0.09
  9
$DIMTSZ
 40
0.0
  9
$DIMTOL
 70
     0
  9
$DIMLIM
 70
     0
  9
$DIMTIH
 70
     1
  9
$DIMTOH
 70
     1
  9
$DIMSE1
 70
     0
  9
$DIMSE2
 70
     0
  9
$DIMTAD
 70
     0
  9
$DIMZIN
 70
     0
  9
$DIMBLK
  1

  9
$DIMASO
 70
     1
  9
$DIMSHO
 70
     1
  9
$DIMPOST
  1

  9
$DIMAPOST
  1

  9
$DIMALT
 70
     0
  9
$DIMALTD
 70
     2
  9
$DIMALTF
 40
25.4
  9
$DIMLFAC
 40
1.0
  9
$DIMTOFL
 70
     0
  9
$DIMTVP
 40
0.0
  9
$DIMTIX
 70
     0
  9
$DIMSOXD
 70
     0
  9
$DIMSAH
 70
     0
  9
$DIMBLK1
  1

  9
$DIMBLK2
  1

  9
$DIMSTYLE
  2
STANDARD
  9
$DIMCLRD
 70
     0
  9
$DIMCLRE
 70
     0
  9
$DIMCLRT
 70
     0
  9
$DIMTFAC
 40
1.0
  9
$DIMGAP
 40
0.09
  9
$DIMJUST
 70
     0
  9
$DIMSD1
 70
     0
  9
$DIMSD2
 70
     0
  9
$DIMTOLJ
 70
     1
  9
$DIMTZIN
 70
     0
  9
$DIMALTZ
 70
     0
  9
$DIMALTTZ
 70
     0
  9
$DIMUPT
 70
     0
  9
$DIMDEC
 70
     4
  9
$DIMTDEC
 70
     4
  9
$DIMALTU
 70
     2
  9
$DIMALTTD
 70
     2
  9
$DIMTXSTY
  7
STANDARD
  9
$DIMAUNIT
 70
     0
  9
$DIMADEC
 70
     0
  9
$DIMALTRND
 40
0.0
  9
$DIMAZIN
 70
     0
  9
$DIMDSEP
 70
    46
  9
$DIMATFIT
 70
     3
  9
$DIMFRAC
 70
     0
  9
$DIMLDRBLK
  1

  9
$DIMLUNIT
 70
     2
  9
$DIMLWD
 70
    -2
  9
$DIMLWE
 70
    -2
  9
$DIMTMOVE
 70
     0
  9
$LUNITS
 70
     2
  9
$LUPREC
 70
     4
  9
$SKETCHINC
 40
0.1
  9
$FILLETRAD
 40
0.0
  9
$AUNITS
 70
     0
  9
$AUPREC
 70
     0
  9
$MENU
  1
acad
  9
$ELEVATION
 40
0.0
  9
$PELEVATION
 40
0.0
  9
$THICKNESS
 40
0.0
  9
$LIMCHECK
 70
     0
  9
$CHAMFERA
 40
0.0
  9
$CHAMFERB
 40
0.0
  9
$CHAMFERC
 40
0.0
  9
$CHAMFERD
 40
0.0
  9
$SKPOLY
 70
     0
  9
$TDCREATE
 40
2453238.702233796
  9
$TDUCREATE
 40
2453238.660567129
  9
$TDUPDATE
 40
2457599.724720370
  9
$TDUUPDATE
 40
2457599.683053703
  9
$TDINDWG
 40
0.0089732523
  9
$TDUSRTIMER
 40
0.0089730556
  9
$USRTIMER
 70
     1
  9
$ANGBASE
 50
0.0
  9
$ANGDIR
 70
     0
  9
$PDMODE
 70
     0
  9
$PDSIZE
 40
0.0
  9
$PLINEWID
 40
0.0
  9
$SPLFRAME
 70
     0
  9
$SPLINETYPE
 70
     6
  9
$SPLINESEGS
 70
    10
  9
$HANDSEED
  5
37A
  9
$SURFTAB1
 70
     6
  9
$SURFTAB2
 70
     6
  9
$SURFTYPE
 70
     6
  9
$SURFU
 70
     6
  9
$SURFV
 70
     6
  9
$UCSBASE
  2

  9
$UCSNAME
  2

  9
$UCSORG
 10
0.0
 20
0.0
 30
0.0
  9
$UCSXDIR
 10
1.0
 20
0.0
 30
0.0
  9
$UCSYDIR
 10
0.0
 20
1.0
 30
0.0
  9
$UCSORTHOREF
  2

  9
$UCSORTHOVIEW
 70
     0
  9
$UCSORGTOP
 10
0.0
 20
0.0
 30
0.0
  9
$UCSORGBOTTOM
 10
0.0
 20
0.0
 30
0.0
  9
$UCSORGLEFT
 10
0.0
 20
0.0
 30
0.0
  9
$UCSORGRIGHT
 10
0.0
 20
0.0
 30
0.0
  9
$UCSORGFRONT
 10
0.0
 20
0.0
 30
0.0
  9
$UCSORGBACK
 10
0.0
 20
0.0
 30
0.0
  9
$PUCSBASE
  2

  9
$PUCSNAME
  2

  9
$PUCSORG
 10
0.0
 20
0.0
 30
0.0
  9
$PUCSXDIR
 10
1.0
 20
0.0
 30
0.0
  9
$PUCSYDIR
 10
0.0
 20
1.0
 30
0.0
  9
$PUCSORTHOREF
  2

  9
$PUCSORTHOVIEW
 70
     0
  9
$PUCSORGTOP
 10
0.0
 20
0.0
 30
0.0
  9
$PUCSORGBOTTOM
 10
0.0
 20
0.0
 30
0.0
  9
$PUCSORGLEFT
 10
0.0
 20
0.0
 30
0.0
  9
$PUCSORGRIGHT
 10
0.0
 20
0.0
 30
0.0
  9
$PUCSORGFRONT
 10
0.0
 20
0.0
 30
0.0
  9
$PUCSORGBACK
 10
0.0
 20
0.0
 30
0.0
  9
$USERI1
 70
     0
  9
$USERI2
 70
     0
  9
$USERI3
 70
     0
  9
$USERI4
 70
     0
  9
$USERI5
 70
     0
  9
$USERR1
 40
0.0
  9
$USERR2
 40
0.0
  9
$USERR3
 40
0.0
  9
$USERR4
 40
0.0
  9
$USERR5
 40
0.0
  9
$WORLDVIEW
 70
     1
  9
$SHADEDGE
 70
     3
  9
$SHADEDIF
 70
    70
  9
$TILEMODE
 70
     1
  9
$MAXACTVP
 70
    16
  9
$PINSBASE
 10
0.0
 20
0.0
 30
0.0
  9
$PLIMCHECK
 70
     0
  9
$PEXTMIN
 10
-1.000000000000000E+20
 20
-1.000000000000000E+20
 30
-1.000000000000000E+20
  9
$PEXTMAX
 10
-1.000000000000000E+20
 20
-1.000000000000000E+20
 30
-1.000000000000000E+20
  9
$PLIMMIN
 10
0.0
 20
0.0
  9
$PLIMMAX
 10
12.0
 20
9.0
  9
$UNITMODE
 70
     0
  9
$VISRETAIN
 70
     0
  9
$PLINEGEN
 70
     1
  9
$PSLTSCALE
 70
     0
  9
$TREEDEPTH
 70
  3020
  9
$CMLSTYLE
  2
Standard
  9
$CMLJUST
 70
     0
  9
$CMLSCALE
 40
1.0
  9
$PROXYGRAPHICS
 70
     1
  9
$MEASUREMENT
 70
     0
  9
$CELWEIGHT
370
    -1
  9
$ENDCAPS
280
     0
  9
$JOINSTYLE
280
     0
  9
$LWDISPLAY
290
     0
  9
$INSUNITS
 70
     0
  9
$HYPERLINKBASE
  1

  9
$STYLESHEET
  1

  9
$XEDIT
290
     1
  9
$CEPSNTYPE
380
     0
  9
$PSTYLEMODE
290
     1
  9
$FINGERPRINTGUID
  2
{4425966E-2A50-4CCE-9E10-E5BA3CC21010}
  9
$VERSIONGUID
  2
{AE607AF0-43CC-42EF-B035-F0D0F99E83B4}
  9
$EXTNAMES
290
     1
  9
$PSVPSCALE
 40
0.0
  9
$OLESTARTUP
290
     0
  0
ENDSEC
  0
SECTION
  2
CLASSES
  0
CLASS
  1
ACDBDICTIONARYWDFLT
  2
AcDbDictionaryWithDefault
  3
AutoCAD 2000
 90
        0
280
     0
281
     0
  0
CLASS
  1
ACDBPLACEHOLDER
  2
AcDbPlaceHolder
  3
AutoCAD 2000
 90
        0
280
     0
281
     0
  0
CLASS
  1
LAYOUT
  2
AcDbLayout
  3
AutoCAD 2000
 90
        0
280
     0
281
     0
  0
CLASS
  1
MATERIAL
  2
AcDbMaterial
  3
ObjectDBX Classes
 90
     1153
280
     0
281
     0
  0
CLASS
  1
VISUALSTYLE
  2
AcDbVisualStyle
  3
ObjectDBX Classes
 90
     4095
280
     0
281
     0
  0
CLASS
  1
TABLESTYLE
  2
AcDbTableStyle
  3
ObjectDBX Classes
 90
     4095
280
     0
281
     0
  0
CLASS
  1
DICTIONARYVAR
  2
AcDbDictionaryVar
  3
AutoCAD 2000
 90
        0
280
     0
281
     0
  0
CLASS
  1
SORTENTSTABLE
  2
AcDbSortentsTable
  3
AutoCAD 2000
 90
        0
280
     0
281
     0
  0
CLASS
  1
SCALE
  2
AcDbScale
  3
ObjectDBX Classes
 90
     1153
280
     0
281
     0
  0
CLASS
  1
MLEADERSTYLE
  2
AcDbMLeaderStyle
  3
ACDB_MLEADERSTYLE_CLASS
 90
     4095
280
     0
281
     0
  0
CLASS
  1
CELLSTYLEMAP
  2
AcDbCellStyleMap
  3
ObjectDBX Classes
 90
     1152
280
     0
281
     0
  0
ENDSEC
  0
SECTION
  2
TABLES
  0
TABLE
  2
VPORT
  5
F1
330
0
100
AcDbSymbolTable
 70
     2
  0
VPORT
  5
379
330
F1
100
AcDbSymbolTableRecord
100
AcDbViewportTableRecord
  2
*Active
 70
     0
 10
0.0
 20
0.0
 11
1.0
 21
1.0
 12
-4.126242656002546
 22
38.45864175409497
 13
0.0
 23
0.0
 14
0.0
 24
0.0
 15
0.0
 25
0.0
 16
0.0
 26
0.0
 36
1.0
 17
818.254596
 27
593.365625
 37
0.0
 40
185.9969030083505
 41
1.784632034632034
 42
50.0
 43
6.3125
 44
0.0
 50
0.0
 51
0.0
 71
     0
 72
   100
 73
     1
 74
     0
 75
     0
 76
     0
 77
     0
 78
     0
281
     0
 65
     0
110
0.0
120
0.0
130
0.0
111
1.0
121
0.0
131
0.0
112
0.0
122
1.0
132
0.0
 79
     0
146
0.0
  0
ENDTAB
  0
TABLE
  2
LTYPE
  5
EE
330
0
100
AcDbSymbolTable
 70
     7
  0
LTYPE
  5
FC
330
EE
100
AcDbSymbolTableRecord
100
AcDbLinetypeTableRecord
  2
ByBlock
 70
     0
  3

 72
    65
 73
     0
 40
0.0
  0
LTYPE
  5
FD
330
EE
100
AcDbSymbolTableRecord
100
AcDbLinetypeTableRecord
  2
ByLayer
 70
     0
  3

 72
    65
 73
     0
 40
0.0
  0
LTYPE
  5
FE
330
EE
100
AcDbSymbolTableRecord
100
AcDbLinetypeTableRecord
  2
CONTINUOUS
 70
     0
  3
Solid line
 72
    65
 73
     0
 40
0.0
  0
LTYPE
  5
10C
330
EE
100
AcDbSymbolTableRecord
100
AcDbLinetypeTableRecord
  2
DOT
 70
     0
  3
. . . . . . . . . . . . . . . . . . . . . . . . . . . . . . . . .
 72
    65
 73
     2
 40
0.25
 49
0.0
 74
     0
 49
-0.25
 74
     0
  0
LTYPE
  5
10D
330
EE
100
AcDbSymbolTableRecord
100
AcDbLinetypeTableRecord
  2
HIDDEN
 70
     0
  3
__ __ __ __ __ __ __ __ __ __ __ __ __ __ __ __ __ __ __ __ __ 
 72
    65
 73
     2
 40
0.375
 49
0.25
 74
     0
 49
-0.125
 74
     0
  0
LTYPE
  5
10E
330
EE
100
AcDbSymbolTableRecord
100
AcDbLinetypeTableRecord
  2
DASHED
 70
     0
  3
__ __ __ __ __ __ __ __ __ __ __ __ __ __ __ __ __ __ __ __ __
 72
    65
 73
     2
 40
0.75
 49
0.5
 74
     0
 49
-0.25
 74
     0
  0
LTYPE
  5
10F
330
EE
100
AcDbSymbolTableRecord
100
AcDbLinetypeTableRecord
  2
DASHDOT
 70
     0
  3
__ . __ . __ . __ . __ . __ . __ . __ . __ . __ . __ . __ . _
 72
    65
 73
     4
 40
1.0
 49
0.5
 74
     0
 49
-0.25
 74
     0
 49
0.0
 74
     0
 49
-0.25
 74
     0
  0
LTYPE
  5
110
330
EE
100
AcDbSymbolTableRecord
100
AcDbLinetypeTableRecord
  2
DIVIDE
 70
     0
  3
____ . . ____ . . ____ . . ____ . . ____ . . ____ . . ____ . .
 72
    65
 73
     6
 40
1.25
 49
0.5
 74
     0
 49
-0.25
 74
     0
 49
0.0
 74
     0
 49
-0.25
 74
     0
 49
0.0
 74
     0
 49
-0.25
 74
     0
  0
LTYPE
  5
111
330
EE
100
AcDbSymbolTableRecord
100
AcDbLinetypeTableRecord
  2
CENTER
 70
     0
  3
____ _ ____ _ ____ _ ____ _ ____ _ ____ _ ____ _ ____ _ ____ _
 72
    65
 73
     4
 40
2.0
 49
1.25
 74
     0
 49
-0.25
 74
     0
 49
0.25
 74
     0
 49
-0.25
 74
     0
  0
ENDTAB
  0
TABLE
  2
LAYER
  5
EB
330
0
100
AcDbSymbolTable
 70
     4
  0
LAYER
  5
F9
102
{ACAD_XDICTIONARY
360
33A
102
}
330
EB
100
AcDbSymbolTableRecord
100
AcDbLayerTableRecord
  2
0
 70
     0
 62
     7
  6
CONTINUOUS
370
    -3
390
F8
  0
LAYER
  5
112
102
{ACAD_XDICTIONARY
360
33C
102
}
330
EB
100
AcDbSymbolTableRecord
100
AcDbLayerTableRecord
  2
CONSTRUCTION_CLASS
 70
     0
 62
     7
  6
CONTINUOUS
370
    -3
390
F8
  0
LAYER
  5
113
102
{ACAD_XDICTIONARY
360
33E
102
}
330
EB
100
AcDbSymbolTableRecord
100
AcDbLayerTableRecord
  2
PATTERN_CLASS
 70
     0
 62
     7
  6
CONTINUOUS
370
    -3
390
F8
  0
LAYER
  5
114
102
{ACAD_XDICTIONARY
360
340
102
}
330
EB
100
AcDbSymbolTableRecord
100
AcDbLayerTableRecord
  2
1
 70
     0
 62
     7
  6
CONTINUOUS
370
    -3
390
F8
  0
ENDTAB
  0
TABLE
  2
STYLE
  5
EC
330
0
100
AcDbSymbolTable
 70
     1
  0
STYLE
  5
FA
330
EC
100
AcDbSymbolTableRecord
100
AcDbTextStyleTableRecord
  2
STANDARD
 70
     0
 40
0.0
 41
1.0
 50
0.0
 71
     0
 42
0.0
  3
txt
  4

  0
ENDTAB
  0
TABLE
  2
VIEW
  5
EF
330
0
100
AcDbSymbolTable
 70
     0
  0
ENDTAB
  0
TABLE
  2
UCS
  5
F0
330
0
100
AcDbSymbolTable
 70
     0
  0
ENDTAB
  0
TABLE
  2
APPID
  5
F2
330
0
100
AcDbSymbolTable
 70
     2
  0
APPID
  5
FB
330
F2
100
AcDbSymbolTableRecord
100
AcDbRegAppTableRecord
  2
ACAD
 70
     0
  0
APPID
  5
374
330
F2
100
AcDbSymbolTableRecord
100
AcDbRegAppTableRecord
  2
ACAD_MLEADERVER
 70
     0
  0
ENDTAB
  0
TABLE
  2
DIMSTYLE
  5
F3
330
0
100
AcDbSymbolTable
 70
     1
100
AcDbDimStyleTable
 71
     0
  0
DIMSTYLE
105
115
330
F3
100
AcDbSymbolTableRecord
100
AcDbDimStyleTableRecord
  2
STANDARD
 70
     0
279
     2
340
FA
  0
ENDTAB
  0
TABLE
  2
BLOCK_RECORD
  5
EA
330
0
100
AcDbSymbolTable
 70
     0
  0
BLOCK_RECORD
  5
107
102
{ACAD_XDICTIONARY
360
21B
102
}
330
EA
100
AcDbSymbolTableRecord
100
AcDbBlockTableRecord
  2
*Model_Space
340
10A
  0
BLOCK_RECORD
  5
103
330
EA
100
AcDbSymbolTableRecord
100
AcDbBlockTableRecord
  2
*Paper_Space
340
106
  0
ENDTAB
  0
ENDSEC
  0
SECTION
  2
BLOCKS
  0
BLOCK
  5
108
330
107
100
AcDbEntity
  8
0
100
AcDbBlockBegin
  2
*Model_Space
 70
     0
 10
0.0
 20
0.0
 30
0.0
  3
*Model_Space
  1

  0
ENDBLK
  5
109
330
107
100
AcDbEntity
  8
0
100
AcDbBlockEnd
  0
BLOCK
  5
104
330
103
100
AcDbEntity
 67
     1
  8
0
100
AcDbBlockBegin
  2
*Paper_Space
 70
     0
 10
0.0
 20
0.0
 30
0.0
  3
*Paper_Space
  1

  0
ENDBLK
  5
105
330
103
100
AcDbEntity
 67
     1
  8
0
100
AcDbBlockEnd
  0
ENDSEC
  0
SECTION
  2
ENTITIES
  0
LINE
  5
148
330
107
100
AcDbEntity
  8
1
  6
Continuous
 62
     4
100
AcDbLine
 10
773.54375
 20
401.95625
 30
0.0
 11
993.54375
 21
391.9562499999998
 31
0.0
  0
LINE
  5
149
330
107
100
AcDbEntity
  8
1
  6
Continuous
 62
     4
100
AcDbLine
 10
773.54375
 20
421.95625
 30
0.0
 11
993.54375
 21
411.9562499999998
 31
0.0
  0
LINE
  5
14A
330
107
100
AcDbEntity
  8
1
  6
Continuous
 62
     4
100
AcDbLine
 10
773.54375
 20
441.95625
 30
0.0
 11
993.54375
 21
431.9562499999998
 31
0.0
  0
LINE
  5
14B
330
107
100
AcDbEntity
  8
1
  6
Continuous
 62
     4
100
AcDbLine
 10
773.54375
 20
461.9562499999998
 30
0.0
 11
993.54375
 21
451.95625
 31
0.0
  0
LINE
  5
14C
330
107
100
AcDbEntity
  8
1
  6
Continuous
 62
     4
100
AcDbLine
 10
773.54375
 20
481.9562499999998
 30
0.0
 11
993.54375
 21
471.95625
 31
0.0
  0
LINE
  5
14D
330
107
100
AcDbEntity
  8
1
  6
Continuous
 62
     4
100
AcDbLine
 10
773.54375
 20
501.95625
 30
0.0
 11
993.54375
 21
491.95625
 31
0.0
  0
LINE
  5
14E
330
107
100
AcDbEntity
  8
1
  6
Continuous
 62
     4
100
AcDbLine
 10
773.54375
 20
521.9562499999998
 30
0.0
 11
993.54375
 21
511.9562499999998
 31
0.0
  0
LINE
  5
14F
330
107
100
AcDbEntity
  8
1
  6
Continuous
 62
     4
100
AcDbLine
 10
773.54375
 20
541.9562499999998
 30
0.0
 11
993.54375
 21
531.9562499999998
 31
0.0
  0
LINE
  5
190
330
107
100
AcDbEntity
  8
1
  6
Continuous
 62
     4
100
AcDbLine
 10
1096.68125
 20
650.9500000000002
 30
0.0
 11
948.19375
 21
813.5875000000003
 31
0.0
  0
LINE
  5
191
330
107
100
AcDbEntity
  8
1
  6
Continuous
 62
     4
100
AcDbLine
 10
1082.54375
 20
636.8125000000002
 30
0.0
 11
934.0500000000004
 21
799.4437500000002
 31
0.0
  0
LINE
  5
192
330
107
100
AcDbEntity
  8
1
  6
Continuous
 62
     4
100
AcDbLine
 10
1068.4
 20
622.6687500000003
 30
0.0
 11
919.90625
 21
785.3000000000003
 31
0.0
  0
LINE
  5
193
330
107
100
AcDbEntity
  8
1
  6
Continuous
 62
     4
100
AcDbLine
 10
1054.256249999999
 20
608.5250000000002
 30
0.0
 11
905.7624999999998
 21
771.1625000000001
 31
0.0
  0
LINE
  5
194
330
107
100
AcDbEntity
  8
1
  6
Continuous
 62
     4
100
AcDbLine
 10
1040.112499999999
 20
594.3812500000002
 30
0.0
 11
891.6249999999999
 21
757.0187500000002
 31
0.0
  0
LINE
  5
195
330
107
100
AcDbEntity
  8
1
  6
Continuous
 62
     4
100
AcDbLine
 10
1025.974999999999
 20
580.2437500000002
 30
0.0
 11
877.4812499999997
 21
742.8749999999999
 31
0.0
  0
LINE
  5
196
330
107
100
AcDbEntity
  8
1
  6
Continuous
 62
     4
100
AcDbLine
 10
1011.831249999999
 20
566.1000000000004
 30
0.0
 11
863.3374999999999
 21
728.7374999999997
 31
0.0
  0
LINE
  5
197
330
107
100
AcDbEntity
  8
1
  6
Continuous
 62
     4
100
AcDbLine
 10
997.6874999999999
 20
551.9562500000004
 30
0.0
 11
849.1937499999997
 21
714.5937500000003
 31
0.0
  0
LINE
  5
199
330
107
100
AcDbEntity
  8
1
  6
Continuous
 62
     4
100
AcDbLine
 10
883.5437500000002
 20
381.9562499999998
 30
0.0
 11
883.5437500000002
 21
593.3687499999997
 31
0.0
  0
LINE
  5
19A
330
107
100
AcDbEntity
  8
1
  6
Continuous
 62
     4
100
AcDbLine
 10
883.5437500000002
 20
593.3687499999997
 30
0.0
 11
1033.04375
 21
742.8687499999997
 31
0.0
  0
LINE
  5
208
330
107
100
AcDbEntity
  8
0
  6
Continuous
 62
     4
100
AcDbLine
 10
733.5437499999995
 20
551.7662834861766
 30
0.0
 11
743.7337165138226
 21
561.9562499999997
 31
0.0
1001
ACAD
1010
0.0
1020
0.0
1030
0.0
  0
LINE
  5
209
330
107
100
AcDbEntity
  8
0
  6
Continuous
 62
     4
100
AcDbLine
 10
733.54375
 20
541.1596817683788
 30
0.0
 11
788.4739643276042
 21
596.0898960959837
 31
0.0
1001
ACAD
1010
0.0
1020
0.0
1030
0.0
  0
LINE
  5
20A
330
107
100
AcDbEntity
  8
0
  6
Continuous
 62
     4
100
AcDbLine
 10
733.5437499999997
 20
530.5530800505803
 30
0.0
 11
785.9634502535623
 21
582.9727803041428
 31
0.0
1001
ACAD
1010
0.0
1020
0.0
1030
0.0
  0
LINE
  5
20B
330
107
100
AcDbEntity
  8
0
  6
Continuous
 62
     4
100
AcDbLine
 10
733.5437499999997
 20
551.7662834861766
 30
0.0
 11
743.7337165138226
 21
561.9562499999998
 31
0.0
1001
ACAD
1010
0.0
1020
0.0
1030
0.0
  0
LINE
  5
20C
330
107
100
AcDbEntity
  8
0
  6
Continuous
 62
     4
100
AcDbLine
 10
733.5437499999997
 20
519.946478332782
 30
0.0
 11
784.4372320721795
 21
570.8399604049621
 31
0.0
1001
ACAD
1010
0.0
1020
0.0
1030
0.0
  0
LINE
  5
20D
330
107
100
AcDbEntity
  8
0
  6
Continuous
 62
     4
100
AcDbLine
 10
733.5437499999995
 20
509.3398766149833
 30
0.0
 11
783.6853736209071
 21
559.481500235891
 31
0.0
1001
ACAD
1010
0.0
1020
0.0
1030
0.0
  0
LINE
  5
20E
330
107
100
AcDbEntity
  8
0
  6
Continuous
 62
     4
100
AcDbLine
 10
733.5437499999995
 20
498.7332748971851
 30
0.0
 11
775.155237551407
 21
540.3447624485928
 31
0.0
1001
ACAD
1010
0.0
1020
0.0
1030
0.0
  0
LINE
  5
20F
330
107
100
AcDbEntity
  8
0
  6
Continuous
 62
     4
100
AcDbLine
 10
733.5437499999994
 20
488.1266731793866
 30
0.0
 11
780.4585384103061
 21
535.0414615896935
 31
0.0
1001
ACAD
1010
0.0
1020
0.0
1030
0.0
  0
LINE
  5
210
330
107
100
AcDbEntity
  8
0
  6
Continuous
 62
     4
100
AcDbLine
 10
733.5437499999994
 20
477.5200714615883
 30
0.0
 11
775.7618392692052
 21
519.7381607307947
 31
0.0
1001
ACAD
1010
0.0
1020
0.0
1030
0.0
  0
LINE
  5
211
330
107
100
AcDbEntity
  8
0
  6
Continuous
 62
     4
100
AcDbLine
 10
733.5437499999991
 20
466.9134697437898
 30
0.0
 11
781.0651401281045
 21
514.4348598718952
 31
0.0
1001
ACAD
1010
0.0
1020
0.0
1030
0.0
  0
LINE
  5
212
330
107
100
AcDbEntity
  8
0
  6
Continuous
 62
     4
100
AcDbLine
 10
733.5437499999991
 20
456.3068680259915
 30
0.0
 11
776.3684409870036
 21
499.1315590129963
 31
0.0
1001
ACAD
1010
0.0
1020
0.0
1030
0.0
  0
LINE
  5
213
330
107
100
AcDbEntity
  8
0
  6
Continuous
 62
     4
100
AcDbLine
 10
733.5437499999989
 20
445.7002663081929
 30
0.0
 11
781.6717418459027
 21
493.828258154097
 31
0.0
1001
ACAD
1010
0.0
1020
0.0
1030
0.0
  0
LINE
  5
214
330
107
100
AcDbEntity
  8
0
  6
Continuous
 62
     4
100
AcDbLine
 10
733.5437499999989
 20
435.0936645903947
 30
0.0
 11
776.9750427048013
 21
478.5249572951982
 31
0.0
1001
ACAD
1010
0.0
1020
0.0
1030
0.0
  0
LINE
  5
215
330
107
100
AcDbEntity
  8
0
  6
Continuous
 62
     4
100
AcDbLine
 10
733.5437499999986
 20
424.4870628725961
 30
0.0
 11
782.2783435637011
 21
473.2216564362985
 31
0.0
1001
ACAD
1010
0.0
1020
0.0
1030
0.0
  0
LINE
  5
216
330
107
100
AcDbEntity
  8
0
  6
Continuous
 62
     4
100
AcDbLine
 10
733.5437499999986
 20
413.8804611547978
 30
0.0
 11
777.5816444226002
 21
457.9183555773998
 31
0.0
1001
ACAD
1010
0.0
1020
0.0
1030
0.0
  0
LINE
  5
217
330
107
100
AcDbEntity
  8
0
  6
Continuous
 62
     4
100
AcDbLine
 10
733.5437499999983
 20
403.2738594369992
 30
0.0
 11
782.8849452814993
 21
452.6150547185005
 31
0.0
1001
ACAD
1010
0.0
1020
0.0
1030
0.0
  0
LINE
  5
218
330
107
100
AcDbEntity
  8
0
  6
Continuous
 62
     4
100
AcDbLine
 10
738.1882461403985
 20
397.3117538596013
 30
0.0
 11
778.1882461403982
 21
437.3117538596015
 31
0.0
1001
ACAD
1010
0.0
1020
0.0
1030
0.0
  0
LINE
  5
219
330
107
100
AcDbEntity
  8
0
  6
Continuous
 62
     4
100
AcDbLine
 10
743.4915469992979
 20
392.0084530007022
 30
0.0
 11
783.4915469992978
 21
432.008453000702
 31
0.0
1001
ACAD
1010
0.0
1020
0.0
1030
0.0
  0
LINE
  5
21A
330
107
100
AcDbEntity
  8
0
  6
Continuous
 62
     4
100
AcDbLine
 10
776.6265957505177
 20
541.8161206477036
 30
0.0
 11
783.54375
 21
548.7332748971859
 31
0.0
1001
ACAD
1010
0.0
1020
0.0
1030
0.0
  0
LINE
  5
21D
330
107
100
AcDbEntity
  8
0
  6
Continuous
 62
     4
100
AcDbLine
 10
748.794847858197
 20
386.7051521418029
 30
0.0
 11
778.794847858197
 21
416.7051521418029
 31
0.0
1001
ACAD
1010
0.0
1020
0.0
1030
0.0
  0
LINE
  5
21E
330
107
100
AcDbEntity
  8
0
  6
Continuous
 62
     4
100
AcDbLine
 10
754.6525474341922
 20
381.9562499999998
 30
0.0
 11
774.0981487170961
 21
401.4018512829036
 31
0.0
1001
ACAD
1010
0.0
1020
0.0
1030
0.0
  0
LINE
  5
21F
330
107
100
AcDbEntity
  8
0
  6
Continuous
 62
     4
100
AcDbLine
 10
765.2591491519908
 20
381.9562499999998
 30
0.0
 11
779.4014495759958
 21
396.0985504240044
 31
0.0
1001
ACAD
1010
0.0
1020
0.0
1030
0.0
  0
LINE
  5
220
330
107
100
AcDbEntity
  8
0
  6
Continuous
 62
     4
100
AcDbLine
 10
755.0554579933142
 20
573.2779914794912
 30
0.0
 11
792.3157599187931
 21
610.538293404971
 31
0.0
1001
ACAD
1010
0.0
1020
0.0
1030
0.0
  0
LINE
  5
221
330
107
100
AcDbEntity
  8
0
  6
Continuous
 62
     4
100
AcDbLine
 10
756.2142479282373
 20
585.043383132213
 30
0.0
 11
798.1467195369588
 21
626.9758547409352
 31
0.0
1001
ACAD
1010
0.0
1020
0.0
1030
0.0
  0
LINE
  5
224
330
107
100
AcDbEntity
  8
0
  6
Continuous
 62
     4
100
AcDbLine
 10
768.1834455026335
 20
628.8323858600054
 30
0.0
 11
849.1937499999997
 21
709.8426903573731
 31
0.0
1001
ACAD
1010
0.0
1020
0.0
1030
0.0
  0
LINE
  5
225
330
107
100
AcDbEntity
  8
0
  6
Continuous
 62
     4
100
AcDbLine
 10
763.5649683064023
 20
613.6073069459753
 30
0.0
 11
835.0656551233086
 21
685.107993762883
 31
0.0
1001
ACAD
1010
0.0
1020
0.0
1030
0.0
  0
LINE
  5
226
330
107
100
AcDbEntity
  8
0
  6
Continuous
 62
     4
100
AcDbLine
 10
758.9464911101713
 20
598.3822280319456
 30
0.0
 11
810.4909725531578
 21
649.9267094749329
 31
0.0
1001
ACAD
1010
0.0
1020
0.0
1030
0.0
  0
LINE
  5
22C
330
107
100
AcDbEntity
  8
0
  6
Continuous
 62
     4
100
AcDbLine
 10
803.8371505268173
 20
717.5190994731827
 30
0.0
 11
921.1180510536323
 21
834.7999999999997
 31
0.0
1001
ACAD
1010
0.0
1020
0.0
1030
0.0
  0
LINE
  5
22D
330
107
100
AcDbEntity
  8
0
  6
Continuous
 62
     4
100
AcDbLine
 10
809.1404513857165
 20
712.2157986142832
 30
0.0
 11
931.7246527714308
 21
834.7999999999997
 31
0.0
1001
ACAD
1010
0.0
1020
0.0
1030
0.0
  0
LINE
  5
22E
330
107
100
AcDbEntity
  8
0
  6
Continuous
 62
     4
100
AcDbLine
 10
814.4437522446153
 20
706.9124977553838
 30
0.0
 11
941.7218772446146
 21
834.1906227553845
 31
0.0
1001
ACAD
1010
0.0
1020
0.0
1030
0.0
  0
LINE
  5
22F
330
107
100
AcDbEntity
  8
0
  6
Continuous
 62
     4
100
AcDbLine
 10
787.8867534855872
 20
669.7488972785565
 30
0.0
 11
947.0251781035139
 21
828.8873218964857
 31
0.0
1001
ACAD
1010
0.0
1020
0.0
1030
0.0
  0
LINE
  5
230
330
107
100
AcDbEntity
  8
0
  6
Continuous
 62
     4
100
AcDbLine
 10
775.7074143636121
 20
646.9629564387823
 30
0.0
 11
952.3284789624131
 21
823.5840210375862
 31
0.0
1001
ACAD
1010
0.0
1020
0.0
1030
0.0
  0
LINE
  5
231
330
107
100
AcDbEntity
  8
0
  6
Continuous
 62
     4
100
AcDbLine
 10
952.938559642625
 20
813.5875000000003
 30
0.0
 11
957.631779821312
 21
818.2807201786875
 31
0.0
1001
ACAD
1010
0.0
1020
0.0
1030
0.0
  0
LINE
  5
232
330
107
100
AcDbEntity
  8
0
  6
Continuous
 62
     4
100
AcDbLine
 10
938.7948096426253
 20
799.4437500000002
 30
0.0
 11
948.19375
 21
808.8426903573749
 31
0.0
1001
ACAD
1010
0.0
1020
0.0
1030
0.0
  0
LINE
  5
233
330
107
100
AcDbEntity
  8
0
  6
Continuous
 62
     4
100
AcDbLine
 10
924.6510596426253
 20
785.2999999999998
 30
0.0
 11
934.05
 21
794.698940357375
 31
0.0
1001
ACAD
1010
0.0
1020
0.0
1030
0.0
  0
LINE
  5
234
330
107
100
AcDbEntity
  8
0
  6
Continuous
 62
     4
100
AcDbLine
 10
910.5135596426253
 20
771.1625
 30
0.0
 11
919.90625
 21
780.5551903573745
 31
0.0
1001
ACAD
1010
0.0
1020
0.0
1030
0.0
  0
LINE
  5
235
330
107
100
AcDbEntity
  8
0
  6
Continuous
 62
     4
100
AcDbLine
 10
896.3698096426259
 20
757.0187500000002
 30
0.0
 11
905.7624999999998
 21
766.4114403573744
 31
0.0
1001
ACAD
1010
0.0
1020
0.0
1030
0.0
  0
LINE
  5
236
330
107
100
AcDbEntity
  8
0
  6
Continuous
 62
     4
100
AcDbLine
 10
882.2260596426261
 20
742.8749999999999
 30
0.0
 11
891.6249999999999
 21
752.2739403573738
 31
0.0
1001
ACAD
1010
0.0
1020
0.0
1030
0.0
  0
LINE
  5
237
330
107
100
AcDbEntity
  8
0
  6
Continuous
 62
     4
100
AcDbLine
 10
868.088559642627
 20
728.7374999999997
 30
0.0
 11
877.4812499999997
 21
738.1301903573734
 31
0.0
1001
ACAD
1010
0.0
1020
0.0
1030
0.0
  0
LINE
  5
238
330
107
100
AcDbEntity
  8
0
  6
Continuous
 62
     4
100
AcDbLine
 10
853.9448096426271
 20
714.5937500000003
 30
0.0
 11
863.3374999999999
 21
723.9864403573732
 31
0.0
1001
ACAD
1010
0.0
1020
0.0
1030
0.0
  0
LINE
  5
239
330
107
100
AcDbEntity
  8
0
  6
Continuous
 62
     4
100
AcDbLine
 10
983.6387332569117
 20
541.8612667430883
 30
0.0
 11
995.7106082569117
 21
553.9331417430888
 31
0.0
1001
ACAD
1010
0.0
1020
0.0
1030
0.0
  0
LINE
  5
23A
330
107
100
AcDbEntity
  8
0
  6
Continuous
 62
     4
100
AcDbLine
 10
988.9420341158103
 20
536.5579658841892
 30
0.0
 11
1114.148284115809
 21
661.7642158841897
 31
0.0
1001
ACAD
1010
0.0
1020
0.0
1030
0.0
  0
LINE
  5
23B
330
107
100
AcDbEntity
  8
0
  6
Continuous
 62
     4
100
AcDbLine
 10
983.6387332569117
 20
541.8612667430883
 30
0.0
 11
995.7106082569117
 21
553.9331417430888
 31
0.0
1001
ACAD
1010
0.0
1020
0.0
1030
0.0
  0
LINE
  5
23C
330
107
100
AcDbEntity
  8
0
  6
Continuous
 62
     4
100
AcDbLine
 10
1096.68125
 20
654.9037834861787
 30
0.0
 11
1106.87121651382
 21
665.0937500000002
 31
0.0
1001
ACAD
1010
0.0
1020
0.0
1030
0.0
  0
LINE
  5
23D
330
107
100
AcDbEntity
  8
0
  6
Continuous
 62
     4
100
AcDbLine
 10
1082.54375
 20
640.7662834861782
 30
0.0
 11
1092.727466513821
 21
650.9500000000001
 31
0.0
1001
ACAD
1010
0.0
1020
0.0
1030
0.0
  0
LINE
  5
23E
330
107
100
AcDbEntity
  8
0
  6
Continuous
 62
     4
100
AcDbLine
 10
1068.4
 20
626.6225334861783
 30
0.0
 11
1078.589966513822
 21
636.8125000000002
 31
0.0
1001
ACAD
1010
0.0
1020
0.0
1030
0.0
  0
LINE
  5
23F
330
107
100
AcDbEntity
  8
0
  6
Continuous
 62
     4
100
AcDbLine
 10
1054.256249999999
 20
612.4787834861778
 30
0.0
 11
1064.446216513821
 21
622.6687500000003
 31
0.0
1001
ACAD
1010
0.0
1020
0.0
1030
0.0
  0
LINE
  5
240
330
107
100
AcDbEntity
  8
0
  6
Continuous
 62
     4
100
AcDbLine
 10
1040.112499999999
 20
598.3350334861771
 30
0.0
 11
1050.302466513822
 21
608.5250000000002
 31
0.0
1001
ACAD
1010
0.0
1020
0.0
1030
0.0
  0
LINE
  5
241
330
107
100
AcDbEntity
  8
0
  6
Continuous
 62
     4
100
AcDbLine
 10
1025.974999999999
 20
584.1975334861772
 30
0.0
 11
1036.158716513822
 21
594.3812500000002
 31
0.0
1001
ACAD
1010
0.0
1020
0.0
1030
0.0
  0
LINE
  5
242
330
107
100
AcDbEntity
  8
0
  6
Continuous
 62
     4
100
AcDbLine
 10
1011.831249999999
 20
570.0537834861775
 30
0.0
 11
1022.021216513823
 21
580.2437500000002
 31
0.0
1001
ACAD
1010
0.0
1020
0.0
1030
0.0
  0
LINE
  5
243
330
107
100
AcDbEntity
  8
0
  6
Continuous
 62
     4
100
AcDbLine
 10
997.6874999999999
 20
555.9100334861772
 30
0.0
 11
1007.877466513823
 21
566.1000000000004
 31
0.0
1001
ACAD
1010
0.0
1020
0.0
1030
0.0
  0
LINE
  5
244
330
107
100
AcDbEntity
  8
0
  6
Continuous
 62
     4
100
AcDbLine
 10
984.2453349747096
 20
521.2546650252901
 30
0.0
 11
1119.451584974709
 21
656.4609150252907
 31
0.0
1001
ACAD
1010
0.0
1020
0.0
1030
0.0
  0
LINE
  5
245
330
107
100
AcDbEntity
  8
0
  6
Continuous
 62
     4
100
AcDbLine
 10
989.5486358336093
 20
515.9513641663908
 30
0.0
 11
1124.754885833608
 21
651.1576141663915
 31
0.0
1001
ACAD
1010
0.0
1020
0.0
1030
0.0
  0
LINE
  5
246
330
107
100
AcDbEntity
  8
0
  6
Continuous
 62
     4
100
AcDbLine
 10
984.8519366925087
 20
500.6480633074914
 30
0.0
 11
1124.9625
 21
640.7586266149843
 31
0.0
1001
ACAD
1010
0.0
1020
0.0
1030
0.0
  0
LINE
  5
247
330
107
100
AcDbEntity
  8
0
  6
Continuous
 62
     4
100
AcDbLine
 10
990.1552375514075
 20
495.3447624485922
 30
0.0
 11
1124.9625
 21
630.1520248971857
 31
0.0
1001
ACAD
1010
0.0
1020
0.0
1030
0.0
  0
LINE
  5
248
330
107
100
AcDbEntity
  8
0
  6
Continuous
 62
     4
100
AcDbLine
 10
985.4585384103073
 20
480.0414615896927
 30
0.0
 11
1033.54375
 21
528.1266731793862
 31
0.0
1001
ACAD
1010
0.0
1020
0.0
1030
0.0
  0
LINE
  5
249
330
107
100
AcDbEntity
  8
0
  6
Continuous
 62
     4
100
AcDbLine
 10
990.7618392692066
 20
474.7381607307936
 30
0.0
 11
1033.54375
 21
517.5200714615876
 31
0.0
1001
ACAD
1010
0.0
1020
0.0
1030
0.0
  0
LINE
  5
24B
330
107
100
AcDbEntity
  8
0
  6
Continuous
 62
     4
100
AcDbLine
 10
986.0651401281057
 20
459.4348598718942
 30
0.0
 11
1033.54375
 21
506.9134697437889
 31
0.0
1001
ACAD
1010
0.0
1020
0.0
1030
0.0
  0
LINE
  5
24C
330
107
100
AcDbEntity
  8
0
  6
Continuous
 62
     4
100
AcDbLine
 10
991.3684409870054
 20
454.131559012995
 30
0.0
 11
1033.54375
 21
496.3068680259903
 31
0.0
1001
ACAD
1010
0.0
1020
0.0
1030
0.0
  0
LINE
  5
24D
330
107
100
AcDbEntity
  8
0
  6
Continuous
 62
     4
100
AcDbLine
 10
986.6717418459042
 20
438.8282581540956
 30
0.0
 11
1033.54375
 21
485.7002663081916
 31
0.0
1001
ACAD
1010
0.0
1020
0.0
1030
0.0
  0
LINE
  5
24E
330
107
100
AcDbEntity
  8
0
  6
Continuous
 62
     4
100
AcDbLine
 10
991.9750427048038
 20
433.5249572951958
 30
0.0
 11
1033.54375
 21
475.093664590393
 31
0.0
1001
ACAD
1010
0.0
1020
0.0
1030
0.0
  0
LINE
  5
24F
330
107
100
AcDbEntity
  8
0
  6
Continuous
 62
     4
100
AcDbLine
 10
987.278343563703
 20
418.2216564362968
 30
0.0
 11
1033.54375
 21
464.4870628725944
 31
0.0
1001
ACAD
1010
0.0
1020
0.0
1030
0.0
  0
LINE
  5
250
330
107
100
AcDbEntity
  8
0
  6
Continuous
 62
     4
100
AcDbLine
 10
992.5816444226024
 20
412.9183555773973
 30
0.0
 11
1033.54375
 21
453.8804611547957
 31
0.0
1001
ACAD
1010
0.0
1020
0.0
1030
0.0
  0
LINE
  5
251
330
107
100
AcDbEntity
  8
0
  6
Continuous
 62
     4
100
AcDbLine
 10
987.8849452815016
 20
397.6150547184983
 30
0.0
 11
1033.54375
 21
443.2738594369971
 31
0.0
1001
ACAD
1010
0.0
1020
0.0
1030
0.0
  0
LINE
  5
252
330
107
100
AcDbEntity
  8
0
  6
Continuous
 62
     4
100
AcDbLine
 10
993.1882461404006
 20
392.3117538595988
 30
0.0
 11
1033.54375
 21
432.6672577191984
 31
0.0
1001
ACAD
1010
0.0
1020
0.0
1030
0.0
  0
LINE
  5
253
330
107
100
AcDbEntity
  8
0
  6
Continuous
 62
     4
100
AcDbLine
 10
993.4393439985999
 20
381.9562499999998
 30
0.0
 11
1033.54375
 21
422.0606560013997
 31
0.0
1001
ACAD
1010
0.0
1020
0.0
1030
0.0
  0
LINE
  5
254
330
107
100
AcDbEntity
  8
0
  6
Continuous
 62
     4
100
AcDbLine
 10
1004.045945716398
 20
381.9562499999998
 30
0.0
 11
1033.54375
 21
411.4540542836011
 31
0.0
1001
ACAD
1010
0.0
1020
0.0
1030
0.0
  0
LINE
  5
256
330
107
100
AcDbEntity
  8
1
  6
Continuous
 62
     7
100
AcDbLine
 10
783.54375
 20
541.9562499999998
 30
0.0
 11
783.54375
 21
551.9562499999998
 31
0.0
  0
LINE
  5
257
330
107
100
AcDbEntity
  8
1
  6
Continuous
 62
     7
100
AcDbLine
 10
1033.54375
 20
401.95625
 30
0.0
 11
1033.54375
 21
531.25
 31
0.0
  0
LINE
  5
258
330
107
100
AcDbEntity
  8
1
  6
Continuous
 62
     7
100
AcDbLine
 10
733.54375
 20
401.95625
 30
0.0
 11
733.54375
 21
561.9562499999998
 31
0.0
  0
LINE
  5
259
330
107
100
AcDbEntity
  8
1
  6
Continuous
 62
     7
100
AcDbLine
 10
733.54375
 20
401.95625
 30
0.0
 11
753.54375
 21
381.9562499999998
 31
0.0
  0
LINE
  5
25A
330
107
100
AcDbEntity
  8
1
  6
Continuous
 62
     7
100
AcDbLine
 10
1013.543749999999
 20
381.9562499999998
 30
0.0
 11
1033.54375
 21
401.95625
 31
0.0
  0
LINE
  5
25D
330
107
100
AcDbEntity
  8
1
  6
Continuous
 62
     7
100
AcDbLine
 10
983.5437500000001
 20
551.9562499999998
 30
0.0
 11
983.5437500000001
 21
541.9562499999998
 31
0.0
  0
LINE
  5
25E
330
107
100
AcDbEntity
  8
1
  6
Continuous
 62
     7
100
AcDbLine
 10
983.5437500000001
 20
541.9562499999998
 30
0.0
 11
773.54375
 21
541.9562499999998
 31
0.0
  0
LINE
  5
25F
330
107
100
AcDbEntity
  8
1
  6
Continuous
 62
     7
100
AcDbLine
 10
983.5437500000001
 20
381.9562499999998
 30
0.0
 11
783.54375
 21
391.9562499999998
 31
0.0
  0
LINE
  5
260
330
107
100
AcDbEntity
  8
1
  6
Continuous
 62
     7
100
AcDbLine
 10
773.54375
 20
381.9562499999998
 30
0.0
 11
783.54375
 21
391.9562499999998
 31
0.0
  0
LINE
  5
261
330
107
100
AcDbEntity
  8
1
  6
Continuous
 62
     7
100
AcDbLine
 10
783.54375
 20
391.9562499999998
 30
0.0
 11
773.54375
 21
401.95625
 31
0.0
  0
LINE
  5
262
330
107
100
AcDbEntity
  8
1
  6
Continuous
 62
     7
100
AcDbLine
 10
773.54375
 20
401.95625
 30
0.0
 11
783.54375
 21
411.9562499999998
 31
0.0
  0
LINE
  5
263
330
107
100
AcDbEntity
  8
1
  6
Continuous
 62
     7
100
AcDbLine
 10
783.54375
 20
411.9562499999998
 30
0.0
 11
773.54375
 21
421.95625
 31
0.0
  0
LINE
  5
264
330
107
100
AcDbEntity
  8
1
  6
Continuous
 62
     7
100
AcDbLine
 10
773.54375
 20
421.95625
 30
0.0
 11
783.54375
 21
431.9562499999998
 31
0.0
  0
LINE
  5
265
330
107
100
AcDbEntity
  8
1
  6
Continuous
 62
     7
100
AcDbLine
 10
783.54375
 20
431.9562499999998
 30
0.0
 11
773.54375
 21
441.95625
 31
0.0
  0
LINE
  5
266
330
107
100
AcDbEntity
  8
1
  6
Continuous
 62
     7
100
AcDbLine
 10
773.54375
 20
441.95625
 30
0.0
 11
783.54375
 21
451.95625
 31
0.0
  0
LINE
  5
267
330
107
100
AcDbEntity
  8
1
  6
Continuous
 62
     7
100
AcDbLine
 10
783.54375
 20
451.95625
 30
0.0
 11
773.54375
 21
461.9562499999998
 31
0.0
  0
LINE
  5
268
330
107
100
AcDbEntity
  8
1
  6
Continuous
 62
     7
100
AcDbLine
 10
773.54375
 20
461.9562499999998
 30
0.0
 11
783.54375
 21
471.95625
 31
0.0
  0
LINE
  5
269
330
107
100
AcDbEntity
  8
1
  6
Continuous
 62
     7
100
AcDbLine
 10
783.54375
 20
471.95625
 30
0.0
 11
773.54375
 21
481.9562499999998
 31
0.0
  0
LINE
  5
26A
330
107
100
AcDbEntity
  8
1
  6
Continuous
 62
     7
100
AcDbLine
 10
773.54375
 20
481.9562499999998
 30
0.0
 11
783.54375
 21
491.95625
 31
0.0
  0
LINE
  5
26B
330
107
100
AcDbEntity
  8
1
  6
Continuous
 62
     7
100
AcDbLine
 10
783.54375
 20
491.95625
 30
0.0
 11
773.54375
 21
501.95625
 31
0.0
  0
LINE
  5
26C
330
107
100
AcDbEntity
  8
1
  6
Continuous
 62
     7
100
AcDbLine
 10
773.54375
 20
501.95625
 30
0.0
 11
783.54375
 21
511.9562499999998
 31
0.0
  0
LINE
  5
26D
330
107
100
AcDbEntity
  8
1
  6
Continuous
 62
     7
100
AcDbLine
 10
783.54375
 20
511.9562499999998
 30
0.0
 11
773.54375
 21
521.9562499999998
 31
0.0
  0
LINE
  5
26E
330
107
100
AcDbEntity
  8
1
  6
Continuous
 62
     7
100
AcDbLine
 10
773.54375
 20
521.9562499999998
 30
0.0
 11
783.54375
 21
531.9562499999998
 31
0.0
  0
LINE
  5
26F
330
107
100
AcDbEntity
  8
1
  6
Continuous
 62
     7
100
AcDbLine
 10
983.5437500000001
 20
381.9562499999998
 30
0.0
 11
993.54375
 21
391.9562499999998
 31
0.0
  0
LINE
  5
270
330
107
100
AcDbEntity
  8
1
  6
Continuous
 62
     7
100
AcDbLine
 10
993.54375
 20
391.9562499999998
 30
0.0
 11
983.5437500000001
 21
401.95625
 31
0.0
  0
LINE
  5
271
330
107
100
AcDbEntity
  8
1
  6
Continuous
 62
     7
100
AcDbLine
 10
983.5437500000001
 20
401.95625
 30
0.0
 11
993.54375
 21
411.9562499999998
 31
0.0
  0
LINE
  5
272
330
107
100
AcDbEntity
  8
1
  6
Continuous
 62
     7
100
AcDbLine
 10
993.54375
 20
411.9562499999998
 30
0.0
 11
983.5437500000001
 21
421.95625
 31
0.0
  0
LINE
  5
273
330
107
100
AcDbEntity
  8
1
  6
Continuous
 62
     7
100
AcDbLine
 10
983.5437500000001
 20
421.95625
 30
0.0
 11
993.54375
 21
431.9562499999998
 31
0.0
  0
LINE
  5
274
330
107
100
AcDbEntity
  8
1
  6
Continuous
 62
     7
100
AcDbLine
 10
993.54375
 20
431.9562499999998
 30
0.0
 11
983.5437500000001
 21
441.95625
 31
0.0
  0
LINE
  5
275
330
107
100
AcDbEntity
  8
1
  6
Continuous
 62
     7
100
AcDbLine
 10
983.5437500000001
 20
441.95625
 30
0.0
 11
993.54375
 21
451.95625
 31
0.0
  0
LINE
  5
276
330
107
100
AcDbEntity
  8
1
  6
Continuous
 62
     7
100
AcDbLine
 10
993.54375
 20
451.95625
 30
0.0
 11
983.5437500000001
 21
461.9562499999998
 31
0.0
  0
LINE
  5
277
330
107
100
AcDbEntity
  8
1
  6
Continuous
 62
     7
100
AcDbLine
 10
983.5437500000001
 20
461.9562499999998
 30
0.0
 11
993.54375
 21
471.95625
 31
0.0
  0
LINE
  5
278
330
107
100
AcDbEntity
  8
1
  6
Continuous
 62
     7
100
AcDbLine
 10
993.54375
 20
471.95625
 30
0.0
 11
983.5437500000001
 21
481.9562499999998
 31
0.0
  0
LINE
  5
279
330
107
100
AcDbEntity
  8
1
  6
Continuous
 62
     7
100
AcDbLine
 10
983.5437500000001
 20
481.9562499999998
 30
0.0
 11
993.54375
 21
491.95625
 31
0.0
  0
LINE
  5
27A
330
107
100
AcDbEntity
  8
1
  6
Continuous
 62
     7
100
AcDbLine
 10
993.54375
 20
491.95625
 30
0.0
 11
983.5437500000001
 21
501.95625
 31
0.0
  0
LINE
  5
27B
330
107
100
AcDbEntity
  8
1
  6
Continuous
 62
     7
100
AcDbLine
 10
983.5437500000001
 20
501.95625
 30
0.0
 11
993.54375
 21
511.9562499999998
 31
0.0
  0
LINE
  5
27C
330
107
100
AcDbEntity
  8
1
  6
Continuous
 62
     7
100
AcDbLine
 10
993.54375
 20
511.9562499999998
 30
0.0
 11
983.5437500000001
 21
521.9562499999998
 31
0.0
  0
LINE
  5
27D
330
107
100
AcDbEntity
  8
1
  6
Continuous
 62
     7
100
AcDbLine
 10
983.5437500000001
 20
521.9562499999998
 30
0.0
 11
993.54375
 21
531.9562499999998
 31
0.0
  0
LINE
  5
27E
330
107
100
AcDbEntity
  8
1
  6
Continuous
 62
     7
100
AcDbLine
 10
993.54375
 20
531.9562499999998
 30
0.0
 11
983.5437500000001
 21
541.9562499999998
 31
0.0
  0
LINE
  5
27F
330
107
100
AcDbEntity
  8
1
  6
Continuous
 62
     7
100
AcDbLine
 10
783.54375
 20
411.9562499999998
 30
0.0
 11
983.5437500000001
 21
401.95625
 31
0.0
  0
LINE
  5
280
330
107
100
AcDbEntity
  8
1
  6
Continuous
 62
     7
100
AcDbLine
 10
983.5437500000001
 20
421.95625
 30
0.0
 11
783.54375
 21
431.9562499999998
 31
0.0
  0
LINE
  5
281
330
107
100
AcDbEntity
  8
1
  6
Continuous
 62
     7
100
AcDbLine
 10
783.54375
 20
451.95625
 30
0.0
 11
983.5437500000001
 21
441.95625
 31
0.0
  0
LINE
  5
282
330
107
100
AcDbEntity
  8
1
  6
Continuous
 62
     7
100
AcDbLine
 10
983.5437500000001
 20
461.9562499999998
 30
0.0
 11
783.54375
 21
471.95625
 31
0.0
  0
LINE
  5
283
330
107
100
AcDbEntity
  8
1
  6
Continuous
 62
     7
100
AcDbLine
 10
783.54375
 20
491.95625
 30
0.0
 11
983.5437500000001
 21
481.9562499999998
 31
0.0
  0
LINE
  5
284
330
107
100
AcDbEntity
  8
1
  6
Continuous
 62
     7
100
AcDbLine
 10
983.5437500000001
 20
501.95625
 30
0.0
 11
783.54375
 21
511.9562499999998
 31
0.0
  0
LINE
  5
285
330
107
100
AcDbEntity
  8
1
  6
Continuous
 62
     7
100
AcDbLine
 10
783.54375
 20
531.9562499999998
 30
0.0
 11
983.5437500000001
 21
521.9562499999998
 31
0.0
  0
LINE
  5
286
330
107
100
AcDbEntity
  8
1
  6
Continuous
 62
     7
100
AcDbLine
 10
783.54375
 20
531.9562499999998
 30
0.0
 11
773.54375
 21
541.9562499999998
 31
0.0
  0
LINE
  5
287
330
107
100
AcDbEntity
  8
1
  6
Continuous
 62
     7
100
AcDbLine
 10
1124.9625
 20
650.95
 30
0.0
 11
941.1125
 21
834.7999999999997
 31
0.0
  0
LINE
  5
288
330
107
100
AcDbEntity
  8
1
  6
Continuous
 62
     7
100
AcDbLine
 10
842.11875
 20
693.3749999999996
 30
0.0
 11
849.1937499999997
 21
700.45
 31
0.0
  0
LINE
  5
289
330
107
100
AcDbEntity
  8
1
  6
Continuous
 62
     7
100
AcDbLine
 10
1033.54375
 20
531.25
 30
0.0
 11
1124.9625
 21
622.66875
 31
0.0
  0
LINE
  5
28A
330
107
100
AcDbEntity
  8
1
  6
Continuous
 62
     7
100
AcDbLine
 10
799.6937499999996
 20
721.6625
 30
0.0
 11
912.8312499999999
 21
834.7999999999997
 31
0.0
  0
LINE
  5
28B
330
107
100
AcDbEntity
  8
1
  6
Continuous
 62
     7
100
AcDbLine
 10
912.8312499999999
 20
834.7999999999997
 30
0.0
 11
941.1125
 21
834.7999999999997
 31
0.0
  0
LINE
  5
28C
330
107
100
AcDbEntity
  8
1
  6
Continuous
 62
     7
100
AcDbLine
 10
1124.9625
 20
622.66875
 30
0.0
 11
1124.9625
 21
650.95
 31
0.0
  0
LINE
  5
28F
330
107
100
AcDbEntity
  8
1
  6
Continuous
 62
     7
100
AcDbLine
 10
849.1937499999997
 20
700.45
 30
0.0
 11
997.6874999999999
 21
551.9562500000004
 31
0.0
  0
LINE
  5
290
330
107
100
AcDbEntity
  8
1
  6
Continuous
 62
     7
100
AcDbLine
 10
962.3312499999997
 20
813.5875000000003
 30
0.0
 11
1096.68125
 21
665.0937500000002
 31
0.0
  0
LINE
  5
291
330
107
100
AcDbEntity
  8
1
  6
Continuous
 62
     7
100
AcDbLine
 10
1110.824999999999
 20
665.0937500000002
 30
0.0
 11
1096.68125
 21
665.0937500000002
 31
0.0
  0
LINE
  5
292
330
107
100
AcDbEntity
  8
1
  6
Continuous
 62
     7
100
AcDbLine
 10
1096.68125
 20
665.0937500000002
 30
0.0
 11
1096.68125
 21
650.9500000000002
 31
0.0
  0
LINE
  5
293
330
107
100
AcDbEntity
  8
1
  6
Continuous
 62
     7
100
AcDbLine
 10
1096.68125
 20
650.9500000000002
 30
0.0
 11
1082.54375
 21
650.9500000000002
 31
0.0
  0
LINE
  5
294
330
107
100
AcDbEntity
  8
1
  6
Continuous
 62
     7
100
AcDbLine
 10
1082.54375
 20
650.9500000000002
 30
0.0
 11
1082.54375
 21
636.8125000000002
 31
0.0
  0
LINE
  5
295
330
107
100
AcDbEntity
  8
1
  6
Continuous
 62
     7
100
AcDbLine
 10
1082.54375
 20
636.8125000000002
 30
0.0
 11
1068.4
 21
636.8125000000002
 31
0.0
  0
LINE
  5
296
330
107
100
AcDbEntity
  8
1
  6
Continuous
 62
     7
100
AcDbLine
 10
1068.4
 20
636.8125000000002
 30
0.0
 11
1068.4
 21
622.6687500000003
 31
0.0
  0
LINE
  5
297
330
107
100
AcDbEntity
  8
1
  6
Continuous
 62
     7
100
AcDbLine
 10
1068.4
 20
622.6687500000003
 30
0.0
 11
1054.256249999999
 21
622.6687500000003
 31
0.0
  0
LINE
  5
298
330
107
100
AcDbEntity
  8
1
  6
Continuous
 62
     7
100
AcDbLine
 10
1054.256249999999
 20
622.6687500000003
 30
0.0
 11
1054.256249999999
 21
608.5250000000002
 31
0.0
  0
LINE
  5
299
330
107
100
AcDbEntity
  8
1
  6
Continuous
 62
     7
100
AcDbLine
 10
1054.256249999999
 20
608.5250000000002
 30
0.0
 11
1040.112499999999
 21
608.5250000000002
 31
0.0
  0
LINE
  5
29A
330
107
100
AcDbEntity
  8
1
  6
Continuous
 62
     7
100
AcDbLine
 10
1040.112499999999
 20
608.5250000000002
 30
0.0
 11
1040.112499999999
 21
594.3812500000002
 31
0.0
  0
LINE
  5
29B
330
107
100
AcDbEntity
  8
1
  6
Continuous
 62
     7
100
AcDbLine
 10
1040.112499999999
 20
594.3812500000002
 30
0.0
 11
1025.974999999999
 21
594.3812500000002
 31
0.0
  0
LINE
  5
29C
330
107
100
AcDbEntity
  8
1
  6
Continuous
 62
     7
100
AcDbLine
 10
1025.974999999999
 20
594.3812500000002
 30
0.0
 11
1025.974999999999
 21
580.2437500000002
 31
0.0
  0
LINE
  5
29D
330
107
100
AcDbEntity
  8
1
  6
Continuous
 62
     7
100
AcDbLine
 10
1025.974999999999
 20
580.2437500000002
 30
0.0
 11
1011.831249999999
 21
580.2437500000002
 31
0.0
  0
LINE
  5
29E
330
107
100
AcDbEntity
  8
1
  6
Continuous
 62
     7
100
AcDbLine
 10
1011.831249999999
 20
580.2437500000002
 30
0.0
 11
1011.831249999999
 21
566.1000000000004
 31
0.0
  0
LINE
  5
29F
330
107
100
AcDbEntity
  8
1
  6
Continuous
 62
     7
100
AcDbLine
 10
1011.831249999999
 20
566.1000000000004
 30
0.0
 11
997.6874999999999
 21
566.1000000000004
 31
0.0
  0
LINE
  5
2A0
330
107
100
AcDbEntity
  8
1
  6
Continuous
 62
     7
100
AcDbLine
 10
962.3312499999997
 20
813.5875000000003
 30
0.0
 11
948.19375
 21
813.5875000000003
 31
0.0
  0
LINE
  5
2A1
330
107
100
AcDbEntity
  8
1
  6
Continuous
 62
     7
100
AcDbLine
 10
948.19375
 20
813.5875000000003
 30
0.0
 11
948.19375
 21
799.4437500000002
 31
0.0
  0
LINE
  5
2A2
330
107
100
AcDbEntity
  8
1
  6
Continuous
 62
     7
100
AcDbLine
 10
948.19375
 20
799.4437500000002
 30
0.0
 11
934.0500000000004
 21
799.4437500000002
 31
0.0
  0
LINE
  5
2A3
330
107
100
AcDbEntity
  8
1
  6
Continuous
 62
     7
100
AcDbLine
 10
934.0500000000004
 20
799.4437500000002
 30
0.0
 11
934.0500000000004
 21
785.3000000000003
 31
0.0
  0
LINE
  5
2A4
330
107
100
AcDbEntity
  8
1
  6
Continuous
 62
     7
100
AcDbLine
 10
934.0500000000004
 20
785.3000000000003
 30
0.0
 11
919.90625
 21
785.3000000000003
 31
0.0
  0
LINE
  5
2A5
330
107
100
AcDbEntity
  8
1
  6
Continuous
 62
     7
100
AcDbLine
 10
919.90625
 20
785.3000000000003
 30
0.0
 11
919.90625
 21
771.1625000000001
 31
0.0
  0
LINE
  5
2A6
330
107
100
AcDbEntity
  8
1
  6
Continuous
 62
     7
100
AcDbLine
 10
919.90625
 20
771.1625000000001
 30
0.0
 11
905.7624999999998
 21
771.1625000000001
 31
0.0
  0
LINE
  5
2A7
330
107
100
AcDbEntity
  8
1
  6
Continuous
 62
     7
100
AcDbLine
 10
905.7624999999998
 20
771.1625000000001
 30
0.0
 11
905.7624999999998
 21
757.0187500000002
 31
0.0
  0
LINE
  5
2A8
330
107
100
AcDbEntity
  8
1
  6
Continuous
 62
     7
100
AcDbLine
 10
905.7624999999998
 20
757.0187500000002
 30
0.0
 11
891.6249999999999
 21
757.0187500000002
 31
0.0
  0
LINE
  5
2A9
330
107
100
AcDbEntity
  8
1
  6
Continuous
 62
     7
100
AcDbLine
 10
891.6249999999999
 20
757.0187500000002
 30
0.0
 11
891.6249999999999
 21
742.8749999999999
 31
0.0
  0
LINE
  5
2AA
330
107
100
AcDbEntity
  8
1
  6
Continuous
 62
     7
100
AcDbLine
 10
891.6249999999999
 20
742.8749999999999
 30
0.0
 11
877.4812499999997
 21
742.8749999999999
 31
0.0
  0
LINE
  5
2AB
330
107
100
AcDbEntity
  8
1
  6
Continuous
 62
     7
100
AcDbLine
 10
877.4812499999997
 20
742.8749999999999
 30
0.0
 11
877.4812499999997
 21
728.7374999999997
 31
0.0
  0
LINE
  5
2AC
330
107
100
AcDbEntity
  8
1
  6
Continuous
 62
     7
100
AcDbLine
 10
877.4812499999997
 20
728.7374999999997
 30
0.0
 11
863.3374999999999
 21
728.7374999999997
 31
0.0
  0
LINE
  5
2AD
330
107
100
AcDbEntity
  8
1
  6
Continuous
 62
     7
100
AcDbLine
 10
863.3374999999999
 20
728.7374999999997
 30
0.0
 11
863.3374999999999
 21
714.5937500000003
 31
0.0
  0
LINE
  5
2AE
330
107
100
AcDbEntity
  8
1
  6
Continuous
 62
     7
100
AcDbLine
 10
863.3374999999999
 20
714.5937500000003
 30
0.0
 11
849.1937499999997
 21
714.5937500000003
 31
0.0
  0
LINE
  5
2AF
330
107
100
AcDbEntity
  8
1
  6
Continuous
 62
     7
100
AcDbLine
 10
849.1937499999997
 20
714.5937500000003
 30
0.0
 11
849.1937499999997
 21
700.45
 31
0.0
  0
LINE
  5
2B0
330
107
100
AcDbEntity
  8
1
  6
Continuous
 62
     7
100
AcDbLine
 10
1082.54375
 20
650.9500000000002
 30
0.0
 11
948.19375
 21
799.4437500000002
 31
0.0
  0
LINE
  5
2B1
330
107
100
AcDbEntity
  8
1
  6
Continuous
 62
     7
100
AcDbLine
 10
934.0500000000004
 20
785.3000000000003
 30
0.0
 11
1068.4
 21
636.8125000000002
 31
0.0
  0
LINE
  5
2B2
330
107
100
AcDbEntity
  8
1
  6
Continuous
 62
     7
100
AcDbLine
 10
1054.256249999999
 20
622.6687500000003
 30
0.0
 11
919.90625
 21
771.1625000000001
 31
0.0
  0
LINE
  5
2B3
330
107
100
AcDbEntity
  8
1
  6
Continuous
 62
     7
100
AcDbLine
 10
905.7624999999998
 20
757.0187500000002
 30
0.0
 11
1040.112499999999
 21
608.5250000000002
 31
0.0
  0
LINE
  5
2B4
330
107
100
AcDbEntity
  8
1
  6
Continuous
 62
     7
100
AcDbLine
 10
1025.974999999999
 20
594.3812500000002
 30
0.0
 11
891.6249999999999
 21
742.8749999999999
 31
0.0
  0
LINE
  5
2B5
330
107
100
AcDbEntity
  8
1
  6
Continuous
 62
     7
100
AcDbLine
 10
877.4812499999997
 20
728.7374999999997
 30
0.0
 11
1011.831249999999
 21
580.2437500000002
 31
0.0
  0
LINE
  5
2B6
330
107
100
AcDbEntity
  8
1
  6
Continuous
 62
     7
100
AcDbLine
 10
997.6874999999999
 20
566.1000000000004
 30
0.0
 11
863.3374999999999
 21
714.5937500000003
 31
0.0
  0
LINE
  5
2B7
330
107
100
AcDbEntity
  8
1
  6
Continuous
 62
     7
100
AcDbLine
 10
997.6874999999999
 20
566.1000000000004
 30
0.0
 11
997.6874999999999
 21
551.9562500000004
 31
0.0
  0
LINE
  5
2B8
330
107
100
AcDbEntity
  8
1
  6
Continuous
 62
     7
100
AcDbLine
 10
753.54375
 20
381.9562499999998
 30
0.0
 11
1013.543749999999
 21
381.9562499999998
 31
0.0
  0
LINE
  5
2B9
330
107
100
AcDbEntity
  8
1
  6
Continuous
 62
     7
100
AcDbLine
 10
983.5437500000001
 20
551.9562499999998
 30
0.0
 11
990.6124999999999
 21
559.025
 31
0.0
  0
LINE
  5
2BA
330
107
100
AcDbEntity
  8
1
  6
Continuous
 62
     7
100
AcDbLine
 10
883.5437500000002
 20
593.3687499999997
 30
0.0
 11
983.5437500000001
 21
551.9562499999998
 31
0.0
  0
LINE
  5
2BD
330
107
100
AcDbEntity
  8
1
  6
Continuous
 62
     3
100
AcDbLine
 10
604.0
 20
593.3687499999997
 30
0.0
 11
873.5437500000003
 21
593.3687499999997
 31
0.0
  0
LINE
  5
2BE
330
107
100
AcDbEntity
  8
1
  6
Continuous
 62
     3
100
AcDbLine
 10
604.0
 20
381.9562499999998
 30
0.0
 11
743.54375
 21
381.9562499999998
 31
0.0
  0
LINE
  5
2BF
330
107
100
AcDbEntity
  8
1
  6
Continuous
 62
     3
100
AcDbLine
 10
620.45
 20
593.3687499999997
 30
0.0
 11
627.0062499999998
 21
569.6562499999997
 31
0.0
  0
LINE
  5
2C0
330
107
100
AcDbEntity
  8
1
  6
Continuous
 62
     3
100
AcDbLine
 10
620.45
 20
593.3687499999997
 30
0.0
 11
613.8937499999997
 21
569.6562499999997
 31
0.0
  0
LINE
  5
2C1
330
107
100
AcDbEntity
  8
1
  6
Continuous
 62
     3
100
AcDbLine
 10
613.8937499999997
 20
569.6562499999997
 30
0.0
 11
627.0062499999998
 21
569.6562499999997
 31
0.0
  0
LINE
  5
2C2
330
107
100
AcDbEntity
  8
1
  6
Continuous
 62
     3
100
AcDbLine
 10
620.45
 20
381.9562499999998
 30
0.0
 11
613.8937499999997
 21
405.6687499999998
 31
0.0
  0
LINE
  5
2C3
330
107
100
AcDbEntity
  8
1
  6
Continuous
 62
     3
100
AcDbLine
 10
620.45
 20
381.9562499999998
 30
0.0
 11
627.0062499999998
 21
405.6687499999998
 31
0.0
  0
LINE
  5
2C4
330
107
100
AcDbEntity
  8
1
  6
Continuous
 62
     3
100
AcDbLine
 10
627.0062499999998
 20
405.6687499999998
 30
0.0
 11
613.8937499999997
 21
405.6687499999998
 31
0.0
  0
LINE
  5
2C5
330
107
100
AcDbEntity
  8
1
  6
Continuous
 62
     3
100
AcDbLine
 10
883.5437500000002
 20
593.3687499999997
 30
0.0
 11
884.2499999999999
 21
594.075
 31
0.0
  0
LINE
  5
2C6
330
107
100
AcDbEntity
  8
1
  6
Continuous
 62
     3
100
AcDbLine
 10
876.46875
 20
600.4375
 30
0.0
 11
684.4562499999997
 21
792.4562499999997
 31
0.0
  0
LINE
  5
2C7
330
107
100
AcDbEntity
  8
1
  6
Continuous
 62
     3
100
AcDbLine
 10
934.0374999999999
 20
841.86875
 30
0.0
 11
833.9562499999997
 21
941.9562499999999
 31
0.0
  0
LINE
  5
2C8
330
107
100
AcDbEntity
  8
1
  6
Continuous
 62
     3
100
AcDbLine
 10
693.4562499999997
 20
783.45
 30
0.0
 11
705.5875000000003
 21
804.85625
 31
0.0
  0
LINE
  5
2C9
330
107
100
AcDbEntity
  8
1
  6
Continuous
 62
     3
100
AcDbLine
 10
693.4562499999997
 20
783.45
 30
0.0
 11
714.85625
 21
795.5812499999997
 31
0.0
  0
LINE
  5
2CA
330
107
100
AcDbEntity
  8
1
  6
Continuous
 62
     3
100
AcDbLine
 10
714.85625
 20
795.5812499999997
 30
0.0
 11
705.5875000000003
 21
804.85625
 31
0.0
  0
LINE
  5
2CB
330
107
100
AcDbEntity
  8
1
  6
Continuous
 62
     3
100
AcDbLine
 10
1020.518749999999
 20
942.4812499999999
 30
0.0
 11
1032.65
 21
921.0812499999999
 31
0.0
  0
LINE
  5
2CC
330
107
100
AcDbEntity
  8
1
  6
Continuous
 62
     3
100
AcDbLine
 10
1020.518749999999
 20
942.4812499999999
 30
0.0
 11
1041.91875
 21
930.3499999999999
 31
0.0
  0
LINE
  5
2CD
330
107
100
AcDbEntity
  8
1
  6
Continuous
 62
     3
100
AcDbLine
 10
1041.91875
 20
930.3499999999999
 30
0.0
 11
1032.65
 21
921.0812499999999
 31
0.0
  0
LINE
  5
2CE
330
107
100
AcDbEntity
  8
1
  6
Continuous
 62
     3
100
AcDbLine
 10
919.8999999999999
 20
841.86875
 30
0.0
 11
1028.8
 21
950.7625
 31
0.0
  0
LINE
  5
2CF
330
107
100
AcDbEntity
  8
1
  6
Continuous
 62
     3
100
AcDbLine
 10
1132.03125
 20
629.7374999999997
 30
0.0
 11
1240.93125
 21
738.63125
 31
0.0
  0
LINE
  5
2D0
330
107
100
AcDbEntity
  8
1
  6
Continuous
 62
     3
100
AcDbLine
 10
842.9624999999997
 20
932.9500000000001
 30
0.0
 11
830.8312499999997
 21
911.5499999999999
 31
0.0
  0
LINE
  5
2D1
330
107
100
AcDbEntity
  8
1
  6
Continuous
 62
     3
100
AcDbLine
 10
842.9624999999997
 20
932.9500000000001
 30
0.0
 11
821.5624999999999
 21
920.8187500000001
 31
0.0
  0
LINE
  5
2D2
330
107
100
AcDbEntity
  8
1
  6
Continuous
 62
     3
100
AcDbLine
 10
821.5624999999999
 20
920.8187500000001
 30
0.0
 11
830.8312499999997
 21
911.5499999999999
 31
0.0
  0
LINE
  5
2D3
330
107
100
AcDbEntity
  8
1
  6
Continuous
 62
     3
100
AcDbLine
 10
1232.64375
 20
730.34375
 30
0.0
 11
1220.5125
 21
751.75
 31
0.0
  0
LINE
  5
2D4
330
107
100
AcDbEntity
  8
1
  6
Continuous
 62
     3
100
AcDbLine
 10
1232.64375
 20
730.34375
 30
0.0
 11
1211.24375
 21
742.475
 31
0.0
  0
LINE
  5
2D5
330
107
100
AcDbEntity
  8
1
  6
Continuous
 62
     3
100
AcDbLine
 10
1211.24375
 20
742.475
 30
0.0
 11
1220.5125
 21
751.75
 31
0.0
  0
LINE
  5
2D6
330
107
100
AcDbEntity
  8
1
  6
Continuous
 62
     3
100
AcDbLine
 10
712.1437499999997
 20
664.35
 30
0.0
 11
748.9312499999997
 21
649.1187499999997
 31
0.0
  0
LINE
  5
2D7
330
107
100
AcDbEntity
  8
1
  6
Continuous
 62
     3
100
AcDbLine
 10
820.6749999999997
 20
619.40625
 30
0.0
 11
838.4937499999999
 21
612.0249999999997
 31
0.0
  0
LINE
  5
2D8
330
107
100
AcDbEntity
  8
1
  6
Continuous
 62
     3
100
AcDbLine
 10
770.84375
 20
640.04375
 30
0.0
 11
746.4249999999997
 21
643.0625
 31
0.0
  0
LINE
  5
2D9
330
107
100
AcDbEntity
  8
1
  6
Continuous
 62
     3
100
AcDbLine
 10
770.84375
 20
640.04375
 30
0.0
 11
751.4437499999996
 21
655.1749999999997
 31
0.0
  0
LINE
  5
2DA
330
107
100
AcDbEntity
  8
1
  6
Continuous
 62
     3
100
AcDbLine
 10
751.4437499999996
 20
655.1749999999997
 30
0.0
 11
746.4249999999997
 21
643.0625
 31
0.0
  0
LINE
  5
2DB
330
107
100
AcDbEntity
  8
1
  6
Continuous
 62
     3
100
AcDbLine
 10
798.7625
 20
628.4812500000001
 30
0.0
 11
823.18125
 21
625.4624999999997
 31
0.0
  0
LINE
  5
2DC
330
107
100
AcDbEntity
  8
1
  6
Continuous
 62
     3
100
AcDbLine
 10
798.7625
 20
628.4812500000001
 30
0.0
 11
818.1624999999996
 21
613.35
 31
0.0
  0
LINE
  5
2DD
330
107
100
AcDbEntity
  8
1
  6
Continuous
 62
     3
100
AcDbLine
 10
818.1624999999996
 20
613.35
 30
0.0
 11
823.18125
 21
625.4624999999997
 31
0.0
  0
LINE
  5
2DE
330
107
100
AcDbEntity
  8
1
  6
Continuous
 62
     3
100
AcDbLine
 10
770.84375
 20
640.04375
 30
0.0
 11
798.7625
 21
628.4812500000001
 31
0.0
  0
LINE
  5
2DF
330
107
100
AcDbEntity
  8
1
  6
Continuous
 62
     5
100
AcDbLine
 10
768.2062499999997
 20
858.2062499999999
 30
0.0
 11
771.20625
 21
858.2062499999999
 31
0.0
  0
LINE
  5
2E0
330
107
100
AcDbEntity
  8
1
  6
Continuous
 62
     3
100
AcDbLine
 10
710.2249999999997
 20
800.2187499999999
 30
0.0
 11
752.5062499999997
 21
842.49375
 31
0.0
  0
LINE
  5
2E1
330
107
100
AcDbEntity
  8
1
  6
Continuous
 62
     3
100
AcDbLine
 10
785.5062499999997
 20
875.49375
 30
0.0
 11
826.1937499999996
 21
916.1875
 31
0.0
  0
LINE
  5
2E2
330
107
100
AcDbEntity
  8
1
  6
Continuous
 62
     5
100
AcDbLine
 10
620.45
 20
487.6625
 30
0.0
 11
623.45
 21
487.6625
 31
0.0
  0
LINE
  5
2E3
330
107
100
AcDbEntity
  8
1
  6
Continuous
 62
     3
100
AcDbLine
 10
620.45
 20
405.6687499999998
 30
0.0
 11
620.45
 21
476.0
 31
0.0
  0
LINE
  5
2E4
330
107
100
AcDbEntity
  8
1
  6
Continuous
 62
     3
100
AcDbLine
 10
620.45
 20
499.0
 30
0.0
 11
620.45
 21
569.6562499999997
 31
0.0
  0
LINE
  5
2E5
330
107
100
AcDbEntity
  8
1
  6
Continuous
 62
     5
100
AcDbLine
 10
1126.581249999998
 20
836.4124999999997
 30
0.0
 11
1130.58125
 21
836.4124999999997
 31
0.0
  0
LINE
  5
2E6
330
107
100
AcDbEntity
  8
1
  6
Continuous
 62
     3
100
AcDbLine
 10
1215.875
 20
747.1124999999997
 30
0.0
 11
1141.99375
 21
820.99375
 31
0.0
  0
LINE
  5
2E7
330
107
100
AcDbEntity
  8
1
  6
Continuous
 62
     3
100
AcDbLine
 10
1116.49375
 20
846.4937499999999
 30
0.0
 11
1037.28125
 21
925.7125
 31
0.0
  0
LINE
  5
2E8
330
107
100
AcDbEntity
  8
1
  6
Continuous
 62
     5
100
AcDbLine
 10
676.8487090870594
 20
681.969399340818
 30
0.0
 11
681.8487090870594
 21
681.969399340818
 31
0.0
  0
LINE
  5
32E
330
107
100
AcDbEntity
  8
1
  6
Continuous
 62
     7
100
AcDbLine
 10
799.6937499999996
 20
721.6625
 30
0.0
 11
814.7949814410306
 21
706.5612685589683
 31
0.0
  0
LINE
  5
32F
330
107
100
AcDbEntity
  8
1
  6
Continuous
 62
     7
100
AcDbLine
 10
814.7949814410306
 20
706.5612685589683
 30
0.0
 11
794.0560013015033
 21
681.2907481418548
 31
0.0
  0
LINE
  5
330
330
107
100
AcDbEntity
  8
1
  6
Continuous
 62
     7
100
AcDbLine
 10
794.0560013015033
 20
681.2907481418548
 30
0.0
 11
771.0271320560429
 21
638.2067641112947
 31
0.0
  0
LINE
  5
331
330
107
100
AcDbEntity
  8
1
  6
Continuous
 62
     7
100
AcDbLine
 10
771.0271320560429
 20
638.2067641112947
 30
0.0
 11
756.8460243940242
 21
591.4579172362294
 31
0.0
  0
LINE
  5
332
330
107
100
AcDbEntity
  8
1
  6
Continuous
 62
     7
100
AcDbLine
 10
756.8460243940242
 20
591.4579172362294
 30
0.0
 11
753.9403637865521
 21
561.9562499999998
 31
0.0
  0
LINE
  5
333
330
107
100
AcDbEntity
  8
1
  6
Continuous
 62
     7
100
AcDbLine
 10
753.9403637865521
 20
561.9562499999998
 30
0.0
 11
733.54375
 21
561.9562499999998
 31
0.0
  0
LINE
  5
334
330
107
100
AcDbEntity
  8
1
  6
Continuous
 62
     7
100
AcDbLine
 10
983.5437500000001
 20
551.9562499999998
 30
0.0
 11
841.9712536129186
 21
693.5224898687678
 31
0.0
  0
LINE
  5
335
330
107
100
AcDbEntity
  8
1
  6
Continuous
 62
     7
100
AcDbLine
 10
841.9712536129186
 20
693.5224898687678
 30
0.0
 11
818.5186071588603
 21
664.9453574801292
 31
0.0
  0
LINE
  5
336
330
107
100
AcDbEntity
  8
1
  6
Continuous
 62
     7
100
AcDbLine
 10
818.5186071588603
 20
664.9453574801292
 30
0.0
 11
798.20852332892
 21
626.9478632018993
 31
0.0
  0
LINE
  5
337
330
107
100
AcDbEntity
  8
1
  6
Continuous
 62
     7
100
AcDbLine
 10
798.20852332892
 20
626.9478632018993
 30
0.0
 11
785.7016354593048
 21
585.7181793270479
 31
0.0
  0
LINE
  5
338
330
107
100
AcDbEntity
  8
1
  6
Continuous
 62
     7
100
AcDbLine
 10
785.7016354593048
 20
585.7181793270479
 30
0.0
 11
782.3763756598384
 21
551.9562499999998
 31
0.0
  0
LINE
  5
339
330
107
100
AcDbEntity
  8
1
  6
Continuous
 62
     7
100
AcDbLine
 10
782.3763756598384
 20
551.9562499999998
 30
0.0
 11
983.5437500000001
 21
551.9562499999998
 31
0.0
  0
ENDSEC
  0
SECTION
  2
OBJECTS
  0
DICTIONARY
  5
F5
330
0
100
AcDbDictionary
281
     1
  3
ACAD_COLOR
350
1EE
  3
ACAD_GROUP
350
F6
  3
ACAD_LAYOUT
350
102
  3
ACAD_MATERIAL
350
1D9
  3
ACAD_MLEADERSTYLE
350
320
  3
ACAD_MLINESTYLE
350
FF
  3
ACAD_PLOTSETTINGS
350
101
  3
ACAD_PLOTSTYLENAME
350
F7
  3
ACAD_SCALELIST
350
2FE
  3
ACAD_TABLESTYLE
350
1EF
  3
ACAD_VISUALSTYLE
350
1DD
  3
ACDB_RECOMPOSE_DATA
350
347
  3
AcDbVariableDictionary
350
1F3
  3
DWGPROPS
350
348
  0
DICTIONARY
  5
33A
330
F9
100
AcDbDictionary
280
     1
281
     1
  3
ADSK_XREC_LAYER_RECONCILED
360
33B
  0
DICTIONARY
  5
33C
330
112
100
AcDbDictionary
280
     1
281
     1
  3
ADSK_XREC_LAYER_RECONCILED
360
33D
  0
DICTIONARY
  5
33E
330
113
100
AcDbDictionary
280
     1
281
     1
  3
ADSK_XREC_LAYER_RECONCILED
360
33F
  0
DICTIONARY
  5
340
330
114
100
AcDbDictionary
280
     1
281
     1
  3
ADSK_XREC_LAYER_RECONCILED
360
341
  0
DICTIONARY
  5
21B
330
107
100
AcDbDictionary
280
     1
281
     1
  3
ACAD_SORTENTS
360
21C
  0
DICTIONARY
  5
1EE
102
{ACAD_REACTORS
330
F5
102
}
330
F5
100
AcDbDictionary
281
     1
  0
DICTIONARY
  5
F6
102
{ACAD_REACTORS
330
F5
102
}
330
F5
100
AcDbDictionary
281
     1
  0
DICTIONARY
  5
102
102
{ACAD_REACTORS
330
F5
102
}
330
F5
100
AcDbDictionary
281
     1
  3
Layout1
350
106
  3
Model
350
10A
  0
DICTIONARY
  5
1D9
102
{ACAD_REACTORS
330
F5
102
}
330
F5
100
AcDbDictionary
281
     1
  3
ByBlock
350
1DB
  3
ByLayer
350
1DA
  3
Global
350
1DC
  0
DICTIONARY
  5
320
102
{ACAD_REACTORS
330
F5
102
}
330
F5
100
AcDbDictionary
281
     1
  3
Standard
350
321
  0
DICTIONARY
  5
FF
102
{ACAD_REACTORS
330
F5
102
}
330
F5
100
AcDbDictionary
281
     1
  3
Standard
350
100
  0
DICTIONARY
  5
101
102
{ACAD_REACTORS
330
F5
102
}
330
F5
100
AcDbDictionary
281
     1
  0
ACDBDICTIONARYWDFLT
  5
F7
102
{ACAD_REACTORS
330
F5
102
}
330
F5
100
AcDbDictionary
281
     1
  3
Normal
350
F8
100
AcDbDictionaryWithDefault
340
F8
  0
DICTIONARY
  5
2FE
102
{ACAD_REACTORS
330
F5
102
}
330
F5
100
AcDbDictionary
281
     1
  3
A0
350
2FF
  3
A1
350
300
  3
A2
350
301
  3
A3
350
302
  3
A4
350
303
  3
A5
350
304
  3
A6
350
305
  3
A7
350
306
  3
A8
350
307
  3
A9
350
308
  3
B0
350
309
  3
B1
350
30A
  3
B2
350
30B
  3
B3
350
30C
  3
B4
350
30D
  3
B5
350
30E
  3
B6
350
30F
  3
B7
350
310
  3
B8
350
311
  3
B9
350
312
  3
C0
350
313
  3
C1
350
314
  3
C2
350
315
  3
C3
350
316
  3
C4
350
317
  3
C5
350
318
  3
C6
350
319
  3
C7
350
31A
  3
C8
350
31B
  3
C9
350
31C
  3
D0
350
31D
  3
D1
350
31E
  3
D2
350
31F
  0
DICTIONARY
  5
1EF
102
{ACAD_REACTORS
330
F5
102
}
330
F5
100
AcDbDictionary
281
     1
  3
Standard
350
1F0
  0
DICTIONARY
  5
1DD
102
{ACAD_REACTORS
330
F5
102
}
330
F5
100
AcDbDictionary
281
     1
  3
2dWireframe
350
1E3
  3
3D Hidden
350
1E5
  3
3dWireframe
350
1E4
  3
Basic
350
1E2
  3
Brighten
350
1E9
  3
ColorChange
350
1ED
  3
Conceptual
350
1E6
  3
Dim
350
1E8
  3
EdgeColorOff
350
2FD
  3
Facepattern
350
1EC
  3
Flat
350
1DE
  3
FlatWithEdges
350
1DF
  3
Gouraud
350
1E0
  3
GouraudWithEdges
350
1E1
  3
JitterOff
350
2FB
  3
Linepattern
350
1EB
  3
OverhangOff
350
2FC
  3
Realistic
350
1E7
  3
Thicken
350
1EA
  0
XRECORD
  5
347
102
{ACAD_REACTORS
330
F5
102
}
330
F5
100
AcDbXrecord
280
     1
 90
        1
330
1F0
  0
DICTIONARY
  5
1F3
102
{ACAD_REACTORS
330
F5
102
}
330
F5
100
AcDbDictionary
281
     1
  3
CANNOSCALE
350
343
  3
CMLEADERSTYLE
350
342
  3
CTABLESTYLE
350
1F4
  3
DIMASSOC
350
2EB
  3
INDEXCTL
350
2EA
  3
SORTENTS
350
2E9
  3
XCLIPFRAME
350
344
  0
XRECORD
  5
348
102
{ACAD_REACTORS
330
F5
102
}
330
F5
100
AcDbXrecord
280
     1
  1
DWGPROPS COOKIE
  2

  3

  4

  6

  7

  8
John
  9

300
=
301
=
302
=
303
=
304
=
305
=
306
=
307
=
308
=
309
=
 40
0.0088491319444444
 41
2453238.66056713
 42
2456696.414047998
  1

 90
        0
  0
XRECORD
  5
33B
102
{ACAD_REACTORS
330
33A
102
}
330
33A
100
AcDbXrecord
280
     1
290
     1
  0
XRECORD
  5
33D
102
{ACAD_REACTORS
330
33C
102
}
330
33C
100
AcDbXrecord
280
     1
290
     1
  0
XRECORD
  5
33F
102
{ACAD_REACTORS
330
33E
102
}
330
33E
100
AcDbXrecord
280
     1
290
     1
  0
XRECORD
  5
341
102
{ACAD_REACTORS
330
340
102
}
330
340
100
AcDbXrecord
280
     1
290
     1
  0
SORTENTSTABLE
  5
21C
102
{ACAD_REACTORS
330
21B
102
}
330
21B
100
AcDbSortentsTable
330
107
331
22D
  5
226
331
148
  5
148
331
28B
  5
28B
331
2BE
  5
2BE
331
276
  5
276
331
2A9
  5
2A9
331
243
  5
243
331
149
  5
149
331
22E
  5
225
331
2BF
  5
2BF
331
28C
  5
28C
331
277
  5
277
331
2AA
  5
2AA
331
244
  5
23C
331
14A
  5
14A
331
22F
  5
224
331
2C0
  5
2C0
331
278
  5
278
331
2AB
  5
2AB
331
245
  5
23D
331
208
  5
209
331
14B
  5
14B
331
230
  5
223
331
2C1
  5
2C1
331
2AC
  5
2AC
331
279
  5
279
331
246
  5
23E
331
209
  5
20A
331
14C
  5
14C
331
231
  5
222
331
28F
  5
28F
331
2C2
  5
2C2
331
247
  5
23F
331
27A
  5
27A
331
2AD
  5
2AD
331
20A
  5
20B
331
232
  5
221
331
14D
  5
14D
331
218
  5
235
331
2D8
  5
2D8
331
32E
  5
32D
331
290
  5
290
331
2C3
  5
2C3
331
27B
  5
27B
331
2AE
  5
2AE
331
248
  5
240
331
20B
  5
20C
331
233
  5
220
331
14E
  5
14E
331
219
  5
236
331
2D9
  5
2D9
331
32F
  5
32E
331
291
  5
291
331
2C4
  5
2C4
331
20C
  5
228
331
27C
  5
27C
331
2AF
  5
2AF
331
249
  5
241
331
234
  5
21F
331
14F
  5
14F
331
21A
  5
22B
331
2DA
  5
2DA
331
2C5
  5
2C5
331
292
  5
292
331
27D
  5
27D
331
2B0
  5
2B0
331
20D
  5
229
331
235
  5
21E
331
190
  5
190
331
338
  5
338
331
2DB
  5
2DB
331
293
  5
293
331
2C6
  5
2C6
331
260
  5
260
331
27E
  5
27E
331
2B1
  5
2B1
331
24B
  5
24B
331
20E
  5
22A
331
191
  5
191
331
236
  5
21D
331
339
  5
339
331
2DC
  5
2DC
331
294
  5
294
331
2C7
  5
2C7
331
261
  5
261
331
27F
  5
27F
331
2B2
  5
2B2
331
24C
  5
24C
331
20F
  5
22C
331
192
  5
192
331
237
  5
21A
331
21D
  5
237
331
2DD
  5
2DD
331
295
  5
295
331
2C8
  5
2C8
331
262
  5
262
331
2B3
  5
2B3
331
24D
  5
24D
331
210
  5
22D
331
238
  5
218
331
193
  5
193
331
21E
  5
238
331
2DE
  5
2DE
331
296
  5
296
331
2C9
  5
2C9
331
263
  5
263
331
2B4
  5
2B4
331
24E
  5
24E
331
211
  5
22E
331
239
  5
23A
331
194
  5
194
331
21F
  5
239
331
2DF
  5
2DF
331
297
  5
297
331
2CA
  5
2CA
331
264
  5
264
331
212
  5
22F
331
2B5
  5
2B5
331
24F
  5
24F
331
23A
  5
23B
331
195
  5
195
331
2E0
  5
2E0
331
2CB
  5
2CB
331
265
  5
265
331
298
  5
298
331
2B6
  5
2B6
331
250
  5
250
331
213
  5
230
331
23B
  5
242
331
196
  5
196
331
2E1
  5
2E1
331
266
  5
266
331
2CC
  5
2CC
331
299
  5
299
331
2B7
  5
2B7
331
251
  5
251
331
214
  5
231
331
23C
  5
24A
331
197
  5
197
331
2E2
  5
2E2
331
2CD
  5
2CD
331
267
  5
267
331
29A
  5
29A
331
252
  5
252
331
215
  5
232
331
23D
  5
249
331
330
  5
32F
331
2E3
  5
2E3
331
2CE
  5
2CE
331
268
  5
268
331
29B
  5
29B
331
253
  5
253
331
216
  5
233
331
23E
  5
248
331
199
  5
199
331
331
  5
330
331
2E4
  5
2E4
331
2CF
  5
2CF
331
269
  5
269
331
29C
  5
29C
331
254
  5
254
331
217
  5
234
331
23F
  5
247
331
19A
  5
19A
331
332
  5
331
331
2E5
  5
2E5
331
29D
  5
29D
331
2D0
  5
2D0
331
26A
  5
26A
331
220
  5
20D
331
333
  5
332
331
2E6
  5
2E6
331
280
  5
280
331
2D1
  5
2D1
331
26B
  5
26B
331
29E
  5
29E
331
256
  5
256
331
221
  5
20F
331
334
  5
334
331
2E7
  5
2E7
331
281
  5
281
331
26C
  5
26C
331
2D2
  5
2D2
331
29F
  5
29F
331
257
  5
257
331
335
  5
335
331
2E8
  5
2E8
331
282
  5
282
331
2D3
  5
2D3
331
26D
  5
26D
331
2A0
  5
2A0
331
258
  5
258
331
336
  5
336
331
283
  5
283
331
2D4
  5
2D4
331
26E
  5
26E
331
2A1
  5
2A1
331
259
  5
259
331
224
  5
215
331
337
  5
337
331
284
  5
284
331
2D5
  5
2D5
331
26F
  5
26F
331
2A2
  5
2A2
331
25A
  5
25A
331
225
  5
212
331
285
  5
285
331
2B8
  5
2B8
331
2A3
  5
2A3
331
2D6
  5
2D6
331
270
  5
270
331
226
  5
211
331
2B9
  5
2B9
331
286
  5
286
331
2D7
  5
2D7
331
271
  5
271
331
2A4
  5
2A4
331
287
  5
287
331
2BA
  5
2BA
331
272
  5
272
331
2A5
  5
2A5
331
25D
  5
25D
331
288
  5
288
331
273
  5
273
331
2A6
  5
2A6
331
240
  5
246
331
25E
  5
25E
331
289
  5
289
331
241
  5
245
331
274
  5
274
331
2A7
  5
2A7
331
25F
  5
25F
331
22C
  5
227
331
28A
  5
28A
331
2BD
  5
2BD
331
275
  5
275
331
2A8
  5
2A8
331
242
  5
244
  0
LAYOUT
  5
106
102
{ACAD_XDICTIONARY
360
349
102
}
102
{ACAD_REACTORS
330
102
102
}
330
102
100
AcDbPlotSettings
  1

  2
HP DeskJet 840C/841C/842C/843C
  4

  6

 40
0.0
 41
0.0
 42
0.0
 43
0.0
 44
0.0
 45
0.0
 46
0.0
 47
0.0
 48
0.0
 49
0.0
140
0.0
141
0.0
142
1.0
143
1.0
 70
   688
 72
     0
 73
     0
 74
     5
  7

 75
    16
147
1.0
148
0.0
149
0.0
100
AcDbLayout
  1
Layout1
 70
     0
 71
     1
 10
0.0
 20
0.0
 11
12.0
 21
9.0
 12
0.0
 22
0.0
 32
0.0
 14
-1.000000000000000E+20
 24
-1.000000000000000E+20
 34
-1.000000000000000E+20
 15
-1.000000000000000E+20
 25
-1.000000000000000E+20
 35
-1.000000000000000E+20
146
0.0
 13
0.0
 23
0.0
 33
0.0
 16
1.0
 26
0.0
 36
0.0
 17
0.0
 27
1.0
 37
0.0
 76
     0
330
103
  0
LAYOUT
  5
10A
102
{ACAD_XDICTIONARY
360
34B
102
}
102
{ACAD_REACTORS
330
102
102
}
330
102
100
AcDbPlotSettings
  1

  2
HP DeskJet 840C/841C/842C/843C
  4

  6

 40
0.0
 41
0.0
 42
0.0
 43
0.0
 44
0.0
 45
0.0
 46
0.0
 47
0.0
 48
0.0
 49
0.0
140
0.0
141
0.0
142
1.0
143
1.0
 70
  1712
 72
     0
 73
     0
 74
     0
  7

 75
     0
147
1.0
148
0.0
149
0.0
100
AcDbLayout
  1
Model
 70
     1
 71
     0
 10
0.0
 20
0.0
 11
12.0
 21
9.0
 12
0.0
 22
0.0
 32
0.0
 14
0.0
 24
0.0
 34
0.0
 15
0.0
 25
0.0
 35
0.0
146
0.0
 13
0.0
 23
0.0
 33
0.0
 16
1.0
 26
0.0
 36
0.0
 17
0.0
 27
1.0
 37
0.0
 76
     0
330
107
331
1D6
  0
MATERIAL
  5
1DB
102
{ACAD_XDICTIONARY
360
2F3
102
}
102
{ACAD_REACTORS
330
1D9
102
}
330
1D9
100
AcDbMaterial
  1
ByBlock
  0
MATERIAL
  5
1DA
102
{ACAD_XDICTIONARY
360
2F1
102
}
102
{ACAD_REACTORS
330
1D9
102
}
330
1D9
100
AcDbMaterial
  1
ByLayer
  0
MATERIAL
  5
1DC
102
{ACAD_XDICTIONARY
360
2F5
102
}
102
{ACAD_REACTORS
330
1D9
102
}
330
1D9
100
AcDbMaterial
  1
Global
  0
MLEADERSTYLE
  5
321
102
{ACAD_REACTORS
330
320
102
}
330
320
100
AcDbMLeaderStyle
170
     2
171
     1
172
     0
 90
        2
 40
0.0
 41
0.0
173
     1
 91
-1056964608
340
FC
 92
       -2
290
     1
 42
0.09
291
     1
 43
0.36
  3
Standard
 44
0.18
300

342
FA
174
     1
178
     6
175
     1
176
     0
 93
-1056964608
 45
0.18
292
     0
297
     0
 46
0.18
 94
-1056964608
 47
1.0
 49
1.0
140
1.0
293
     1
141
0.0
294
     1
177
     0
142
1.0
295
     0
296
     0
143
0.125
1001
ACAD_MLEADERVER
1070
     2
  0
MLINESTYLE
  5
100
102
{ACAD_REACTORS
330
FF
102
}
330
FF
100
AcDbMlineStyle
  2
STANDARD
 70
     0
  3

 62
   256
 51
90.0
 52
90.0
 71
     2
 49
0.5
 62
   256
  6
BYLAYER
 49
-0.5
 62
   256
  6
BYLAYER
  0
ACDBPLACEHOLDER
  5
F8
102
{ACAD_REACTORS
330
F7
102
}
330
F7
  0
SCALE
  5
2FF
102
{ACAD_REACTORS
330
2FE
102
}
330
2FE
100
AcDbScale
 70
     0
300
1:1
140
1.0
141
1.0
290
     1
  0
SCALE
  5
300
102
{ACAD_REACTORS
330
2FE
102
}
330
2FE
100
AcDbScale
 70
     0
300
1:2
140
1.0
141
2.0
290
     0
  0
SCALE
  5
301
102
{ACAD_REACTORS
330
2FE
102
}
330
2FE
100
AcDbScale
 70
     0
300
1:4
140
1.0
141
4.0
290
     0
  0
SCALE
  5
302
102
{ACAD_REACTORS
330
2FE
102
}
330
2FE
100
AcDbScale
 70
     0
300
1:5
140
1.0
141
5.0
290
     0
  0
SCALE
  5
303
102
{ACAD_REACTORS
330
2FE
102
}
330
2FE
100
AcDbScale
 70
     0
300
1:8
140
1.0
141
8.0
290
     0
  0
SCALE
  5
304
102
{ACAD_REACTORS
330
2FE
102
}
330
2FE
100
AcDbScale
 70
     0
300
1:10
140
1.0
141
10.0
290
     0
  0
SCALE
  5
305
102
{ACAD_REACTORS
330
2FE
102
}
330
2FE
100
AcDbScale
 70
     0
300
1:16
140
1.0
141
16.0
290
     0
  0
SCALE
  5
306
102
{ACAD_REACTORS
330
2FE
102
}
330
2FE
100
AcDbScale
 70
     0
300
1:20
140
1.0
141
20.0
290
     0
  0
SCALE
  5
307
102
{ACAD_REACTORS
330
2FE
102
}
330
2FE
100
AcDbScale
 70
     0
300
1:30
140
1.0
141
30.0
290
     0
  0
SCALE
  5
308
102
{ACAD_REACTORS
330
2FE
102
}
330
2FE
100
AcDbScale
 70
     0
300
1:40
140
1.0
141
40.0
290
     0
  0
SCALE
  5
309
102
{ACAD_REACTORS
330
2FE
102
}
330
2FE
100
AcDbScale
 70
     0
300
1:50
140
1.0
141
50.0
290
     0
  0
SCALE
  5
30A
102
{ACAD_REACTORS
330
2FE
102
}
330
2FE
100
AcDbScale
 70
     0
300
1:100
140
1.0
141
100.0
290
     0
  0
SCALE
  5
30B
102
{ACAD_REACTORS
330
2FE
102
}
330
2FE
100
AcDbScale
 70
     0
300
2:1
140
2.0
141
1.0
290
     0
  0
SCALE
  5
30C
102
{ACAD_REACTORS
330
2FE
102
}
330
2FE
100
AcDbScale
 70
     0
300
4:1
140
4.0
141
1.0
290
     0
  0
SCALE
  5
30D
102
{ACAD_REACTORS
330
2FE
102
}
330
2FE
100
AcDbScale
 70
     0
300
8:1
140
8.0
141
1.0
290
     0
  0
SCALE
  5
30E
102
{ACAD_REACTORS
330
2FE
102
}
330
2FE
100
AcDbScale
 70
     0
300
10:1
140
10.0
141
1.0
290
     0
  0
SCALE
  5
30F
102
{ACAD_REACTORS
330
2FE
102
}
330
2FE
100
AcDbScale
 70
     0
300
100:1
140
100.0
141
1.0
290
     0
  0
SCALE
  5
310
102
{ACAD_REACTORS
330
2FE
102
}
330
2FE
100
AcDbScale
 70
     0
300
1/128" = 1'-0"
140
0.0078125
141
12.0
290
     0
  0
SCALE
  5
311
102
{ACAD_REACTORS
330
2FE
102
}
330
2FE
100
AcDbScale
 70
     0
300
1/64" = 1'-0"
140
0.015625
141
12.0
290
     0
  0
SCALE
  5
312
102
{ACAD_REACTORS
330
2FE
102
}
330
2FE
100
AcDbScale
 70
     0
300
1/32" = 1'-0"
140
0.03125
141
12.0
290
     0
  0
SCALE
  5
313
102
{ACAD_REACTORS
330
2FE
102
}
330
2FE
100
AcDbScale
 70
     0
300
1/16" = 1'-0"
140
0.0625
141
12.0
290
     0
  0
SCALE
  5
314
102
{ACAD_REACTORS
330
2FE
102
}
330
2FE
100
AcDbScale
 70
     0
300
3/32" = 1'-0"
140
0.09375
141
12.0
290
     0
  0
SCALE
  5
315
102
{ACAD_REACTORS
330
2FE
102
}
330
2FE
100
AcDbScale
 70
     0
300
1/8" = 1'-0"
140
0.125
141
12.0
290
     0
  0
SCALE
  5
316
102
{ACAD_REACTORS
330
2FE
102
}
330
2FE
100
AcDbScale
 70
     0
300
3/16" = 1'-0"
140
0.1875
141
12.0
290
     0
  0
SCALE
  5
317
102
{ACAD_REACTORS
330
2FE
102
}
330
2FE
100
AcDbScale
 70
     0
300
1/4" = 1'-0"
140
0.25
141
12.0
290
     0
  0
SCALE
  5
318
102
{ACAD_REACTORS
330
2FE
102
}
330
2FE
100
AcDbScale
 70
     0
300
3/8" = 1'-0"
140
0.375
141
12.0
290
     0
  0
SCALE
  5
319
102
{ACAD_REACTORS
330
2FE
102
}
330
2FE
100
AcDbScale
 70
     0
300
1/2" = 1'-0"
140
0.5
141
12.0
290
     0
  0
SCALE
  5
31A
102
{ACAD_REACTORS
330
2FE
102
}
330
2FE
100
AcDbScale
 70
     0
300
3/4" = 1'-0"
140
0.75
141
12.0
290
     0
  0
SCALE
  5
31B
102
{ACAD_REACTORS
330
2FE
102
}
330
2FE
100
AcDbScale
 70
     0
300
1" = 1'-0"
140
1.0
141
12.0
290
     0
  0
SCALE
  5
31C
102
{ACAD_REACTORS
330
2FE
102
}
330
2FE
100
AcDbScale
 70
     0
300
1-1/2" = 1'-0"
140
1.5
141
12.0
290
     0
  0
SCALE
  5
31D
102
{ACAD_REACTORS
330
2FE
102
}
330
2FE
100
AcDbScale
 70
     0
300
3" = 1'-0"
140
3.0
141
12.0
290
     0
  0
SCALE
  5
31E
102
{ACAD_REACTORS
330
2FE
102
}
330
2FE
100
AcDbScale
 70
     0
300
6" = 1'-0"
140
6.0
141
12.0
290
     0
  0
SCALE
  5
31F
102
{ACAD_REACTORS
330
2FE
102
}
330
2FE
100
AcDbScale
 70
     0
300
1'-0" = 1'-0"
140
12.0
141
12.0
290
     0
  0
TABLESTYLE
  5
1F0
102
{ACAD_XDICTIONARY
360
345
102
}
102
{ACAD_REACTORS
330
1EF
102
}
330
1EF
100
AcDbTableStyle
  3
Standard
 70
     0
 71
     0
 40
0.06
 41
0.06
280
     0
281
     0
  7
STANDARD
140
0.18
170
     2
 62
     0
 63
     7
283
     0
274
    -2
284
     1
 64
     0
275
    -2
285
     1
 65
     0
276
    -2
286
     1
 66
     0
277
    -2
287
     1
 67
     0
278
    -2
288
     1
 68
     0
279
    -2
289
     1
 69
     0
  7
STANDARD
140
0.25
170
     5
 62
     0
 63
     7
283
     0
274
    -2
284
     1
 64
     0
275
    -2
285
     1
 65
     0
276
    -2
286
     1
 66
     0
277
    -2
287
     1
 67
     0
278
    -2
288
     1
 68
     0
279
    -2
289
     1
 69
     0
  7
STANDARD
140
0.18
170
     5
 62
     0
 63
     7
283
     0
274
    -2
284
     1
 64
     0
275
    -2
285
     1
 65
     0
276
    -2
286
     1
 66
     0
277
    -2
287
     1
 67
     0
278
    -2
288
     1
 68
     0
279
    -2
289
     1
 69
     0
  0
VISUALSTYLE
  5
1E3
102
{ACAD_XDICTIONARY
360
357
102
}
102
{ACAD_REACTORS
330
1DD
102
}
330
1DD
100
AcDbVisualStyle
  2

 70
     4
 71
     0
 72
     2
 73
     0
 90
        0
 40
-0.6
 41
-30.0
 62
     5
 63
     7
 74
     1
 91
        4
 64
     7
 65
   257
 75
     1
175
     1
 42
1.0
 92
        0
 66
   257
 43
1.0
 76
     1
 77
     6
 78
     2
 67
     7
 79
     5
170
     0
171
     0
290
     0
174
     0
 93
        1
 44
0.0
173
     0
291
     0
 45
0.0
1001
ACAD
1000
AcDbSavedByObjectVersion
1070
     0
  0
VISUALSTYLE
  5
1E5
102
{ACAD_XDICTIONARY
360
35B
102
}
102
{ACAD_REACTORS
330
1DD
102
}
330
1DD
100
AcDbVisualStyle
  2

 70
     6
 71
     1
 72
     2
 73
     2
 90
        0
 40
-0.6
 41
-30.0
 62
     5
 63
     7
 74
     2
 91
        2
 64
     7
 65
   257
 75
     2
175
     1
 42
40.0
 92
        0
 66
   257
 43
1.0
 76
     1
 77
     6
 78
     2
 67
     7
 79
     3
170
     0
171
     0
290
     0
174
     0
 93
        1
 44
0.0
173
     0
291
     0
 45
0.0
1001
ACAD
1000
AcDbSavedByObjectVersion
1070
     0
  0
VISUALSTYLE
  5
1E4
102
{ACAD_XDICTIONARY
360
359
102
}
102
{ACAD_REACTORS
330
1DD
102
}
330
1DD
100
AcDbVisualStyle
  2

 70
     5
 71
     0
 72
     2
 73
     0
 90
        0
 40
-0.6
 41
-30.0
 62
     5
 63
     7
 74
     1
 91
        4
 64
     7
 65
   257
 75
     1
175
     1
 42
1.0
 92
        0
 66
   257
 43
1.0
 76
     1
 77
     6
 78
     2
 67
     7
 79
     5
170
     0
171
     0
290
     0
174
     0
 93
        1
 44
0.0
173
     0
291
     0
 45
0.0
1001
ACAD
1000
AcDbSavedByObjectVersion
1070
     0
  0
VISUALSTYLE
  5
1E2
102
{ACAD_XDICTIONARY
360
355
102
}
102
{ACAD_REACTORS
330
1DD
102
}
330
1DD
100
AcDbVisualStyle
  2

 70
     7
 71
     1
 72
     0
 73
     1
 90
        0
 40
-0.6
 41
-30.0
 62
     5
 63
     7
 74
     0
 91
        4
 64
     7
 65
   257
 75
     1
175
     1
 42
1.0
 92
        8
 66
     7
 43
1.0
 76
     1
 77
     6
 78
     2
 67
     7
 79
     5
170
     0
171
     0
290
     0
174
     0
 93
        1
 44
0.0
173
     0
291
     1
 45
0.0
1001
ACAD
1000
AcDbSavedByObjectVersion
1070
     0
  0
VISUALSTYLE
  5
1E9
102
{ACAD_XDICTIONARY
360
363
102
}
102
{ACAD_REACTORS
330
1DD
102
}
330
1DD
100
AcDbVisualStyle
  2

 70
    12
 71
     2
 72
     2
 73
     0
 90
        0
 40
-0.6
 41
-30.0
 62
     5
 63
     7
 74
     1
 91
        4
 64
     7
 65
   257
 75
     1
175
     1
 42
1.0
 92
        8
 66
     7
 43
1.0
 76
     1
 77
     6
 78
     2
 67
     7
 79
     5
170
     0
171
     0
290
     0
174
     0
 93
        1
 44
50.0
173
     0
291
     1
 45
0.0
1001
ACAD
1000
AcDbSavedByObjectVersion
1070
     0
  0
VISUALSTYLE
  5
1ED
102
{ACAD_XDICTIONARY
360
36B
102
}
102
{ACAD_REACTORS
330
1DD
102
}
330
1DD
100
AcDbVisualStyle
  2

 70
    16
 71
     2
 72
     2
 73
     3
 90
        0
 40
-0.6
 41
-30.0
 62
     5
 63
     8
 74
     1
 91
        4
 64
     7
 65
   257
 75
     1
175
     1
 42
1.0
 92
        8
 66
     8
 43
1.0
 76
     1
 77
     6
 78
     2
 67
     7
 79
     5
170
     0
171
     0
290
     0
174
     0
 93
        1
 44
0.0
173
     0
291
     1
 45
0.0
1001
ACAD
1000
AcDbSavedByObjectVersion
1070
     0
  0
VISUALSTYLE
  5
1E6
102
{ACAD_XDICTIONARY
360
35D
102
}
102
{ACAD_REACTORS
330
1DD
102
}
330
1DD
100
AcDbVisualStyle
  2

 70
     9
 71
     3
 72
     2
 73
     0
 90
        0
 40
-0.6
 41
-30.0
 62
     5
 63
     7
 74
     2
 91
        2
 64
     7
 65
   257
 75
     1
175
     1
 42
40.0
 92
        8
 66
     7
 43
1.0
 76
     1
 77
     6
 78
     2
 67
     7
 79
     3
170
     0
171
     0
290
     0
174
     0
 93
        1
 44
0.0
173
     0
291
     0
 45
0.0
1001
ACAD
1000
AcDbSavedByObjectVersion
1070
     0
  0
VISUALSTYLE
  5
1E8
102
{ACAD_XDICTIONARY
360
361
102
}
102
{ACAD_REACTORS
330
1DD
102
}
330
1DD
100
AcDbVisualStyle
  2

 70
    11
 71
     2
 72
     2
 73
     0
 90
        0
 40
-0.6
 41
-30.0
 62
     5
 63
     7
 74
     1
 91
        4
 64
     7
 65
   257
 75
     1
175
     1
 42
1.0
 92
        8
 66
     7
 43
1.0
 76
     1
 77
     6
 78
     2
 67
     7
 79
     5
170
     0
171
     0
290
     0
174
     0
 93
        1
 44
-50.0
173
     0
291
     1
 45
0.0
1001
ACAD
1000
AcDbSavedByObjectVersion
1070
     0
  0
VISUALSTYLE
  5
2FD
102
{ACAD_XDICTIONARY
360
372
102
}
102
{ACAD_REACTORS
330
1DD
102
}
330
1DD
100
AcDbVisualStyle
  2
EdgeColorOff
 70
    22
 71
     2
 72
     2
 73
     0
 90
        0
 40
-0.6
 41
-30.0
 62
     5
 63
     7
 74
     1
 91
        4
 64
     7
 65
   257
 75
     1
175
     1
 42
1.0
 92
        8
 66
     7
 43
1.0
 76
     1
 77
     6
 78
     2
 67
     7
 79
     5
170
     0
171
     0
290
     0
174
     0
 93
        1
 44
0.0
173
     0
291
     1
 45
0.0
1001
ACAD
1000
AcDbSavedByObjectVersion
1070
     0
  0
VISUALSTYLE
  5
1EC
102
{ACAD_XDICTIONARY
360
369
102
}
102
{ACAD_REACTORS
330
1DD
102
}
330
1DD
100
AcDbVisualStyle
  2

 70
    15
 71
     2
 72
     2
 73
     0
 90
        0
 40
-0.6
 41
-30.0
 62
     5
 63
     7
 74
     1
 91
        4
 64
     7
 65
   257
 75
     1
175
     1
 42
1.0
 92
        8
 66
     7
 43
1.0
 76
     1
 77
     6
 78
     2
 67
     7
 79
     5
170
     0
171
     0
290
     0
174
     0
 93
        1
 44
0.0
173
     0
291
     1
 45
0.0
1001
ACAD
1000
AcDbSavedByObjectVersion
1070
     0
  0
VISUALSTYLE
  5
1DE
102
{ACAD_XDICTIONARY
360
34D
102
}
102
{ACAD_REACTORS
330
1DD
102
}
330
1DD
100
AcDbVisualStyle
  2

 70
     0
 71
     2
 72
     1
 73
     1
 90
        2
 40
-0.6
 41
30.0
 62
     5
 63
     7
 74
     0
 91
        4
 64
     7
 65
   257
 75
     1
175
     1
 42
1.0
 92
        8
 66
     7
 43
1.0
 76
     1
 77
     6
 78
     2
 67
     7
 79
     5
170
     0
171
     0
290
     0
174
     0
 93
       13
 44
0.0
173
     0
291
     1
 45
0.0
1001
ACAD
1000
AcDbSavedByObjectVersion
1070
     0
  0
VISUALSTYLE
  5
1DF
102
{ACAD_XDICTIONARY
360
34F
102
}
102
{ACAD_REACTORS
330
1DD
102
}
330
1DD
100
AcDbVisualStyle
  2

 70
     1
 71
     2
 72
     1
 73
     1
 90
        2
 40
-0.6
 41
30.0
 62
     5
 63
     7
 74
     1
 91
        4
 64
     7
 65
   257
 75
     1
175
     1
 42
1.0
 92
        0
 66
   257
 43
1.0
 76
     1
 77
     6
 78
     2
 67
     7
 79
     5
170
     0
171
     0
290
     0
174
     0
 93
       13
 44
0.0
173
     0
291
     1
 45
0.0
1001
ACAD
1000
AcDbSavedByObjectVersion
1070
     0
  0
VISUALSTYLE
  5
1E0
102
{ACAD_XDICTIONARY
360
351
102
}
102
{ACAD_REACTORS
330
1DD
102
}
330
1DD
100
AcDbVisualStyle
  2

 70
     2
 71
     2
 72
     2
 73
     1
 90
        2
 40
-0.6
 41
30.0
 62
     5
 63
     7
 74
     0
 91
        4
 64
     7
 65
   257
 75
     1
175
     1
 42
1.0
 92
        0
 66
     7
 43
1.0
 76
     1
 77
     6
 78
     2
 67
     7
 79
     5
170
     0
171
     0
290
     0
174
     0
 93
       13
 44
0.0
173
     0
291
     1
 45
0.0
1001
ACAD
1000
AcDbSavedByObjectVersion
1070
     0
  0
VISUALSTYLE
  5
1E1
102
{ACAD_XDICTIONARY
360
353
102
}
102
{ACAD_REACTORS
330
1DD
102
}
330
1DD
100
AcDbVisualStyle
  2

 70
     3
 71
     2
 72
     2
 73
     1
 90
        2
 40
-0.6
 41
30.0
 62
     5
 63
     7
 74
     1
 91
        4
 64
     7
 65
   257
 75
     1
175
     1
 42
1.0
 92
        0
 66
   257
 43
1.0
 76
     1
 77
     6
 78
     2
 67
     7
 79
     5
170
     0
171
     0
290
     0
174
     0
 93
       13
 44
0.0
173
     0
291
     1
 45
0.0
1001
ACAD
1000
AcDbSavedByObjectVersion
1070
     0
  0
VISUALSTYLE
  5
2FB
102
{ACAD_XDICTIONARY
360
36E
102
}
102
{ACAD_REACTORS
330
1DD
102
}
330
1DD
100
AcDbVisualStyle
  2
JitterOff
 70
    20
 71
     2
 72
     2
 73
     0
 90
        0
 40
-0.6
 41
-30.0
 62
     5
 63
     7
 74
     1
 91
        4
 64
     7
 65
   257
 75
     1
175
     1
 42
1.0
 92
       10
 66
     7
 43
1.0
 76
     1
 77
     6
 78
     2
 67
     7
 79
     5
170
     0
171
     0
290
     0
174
     0
 93
        1
 44
0.0
173
     0
291
     1
 45
0.0
1001
ACAD
1000
AcDbSavedByObjectVersion
1070
     0
  0
VISUALSTYLE
  5
1EB
102
{ACAD_XDICTIONARY
360
367
102
}
102
{ACAD_REACTORS
330
1DD
102
}
330
1DD
100
AcDbVisualStyle
  2

 70
    14
 71
     2
 72
     2
 73
     0
 90
        0
 40
-0.6
 41
-30.0
 62
     5
 63
     7
 74
     1
 91
        4
 64
     7
 65
   257
 75
     7
175
     7
 42
1.0
 92
        8
 66
     7
 43
1.0
 76
     1
 77
     6
 78
     2
 67
     7
 79
     5
170
     0
171
     0
290
     0
174
     0
 93
        1
 44
0.0
173
     0
291
     1
 45
0.0
1001
ACAD
1000
AcDbSavedByObjectVersion
1070
     0
  0
VISUALSTYLE
  5
2FC
102
{ACAD_XDICTIONARY
360
370
102
}
102
{ACAD_REACTORS
330
1DD
102
}
330
1DD
100
AcDbVisualStyle
  2
OverhangOff
 70
    21
 71
     2
 72
     2
 73
     0
 90
        0
 40
-0.6
 41
-30.0
 62
     5
 63
     7
 74
     1
 91
        4
 64
     7
 65
   257
 75
     1
175
     1
 42
1.0
 92
        9
 66
     7
 43
1.0
 76
     1
 77
     6
 78
     2
 67
     7
 79
     5
170
     0
171
     0
290
     0
174
     0
 93
        1
 44
0.0
173
     0
291
     1
 45
0.0
1001
ACAD
1000
AcDbSavedByObjectVersion
1070
     0
  0
VISUALSTYLE
  5
1E7
102
{ACAD_XDICTIONARY
360
35F
102
}
102
{ACAD_REACTORS
330
1DD
102
}
330
1DD
100
AcDbVisualStyle
  2

 70
     8
 71
     2
 72
     2
 73
     0
 90
        0
 40
-0.6
 41
-30.0
 62
     5
 63
     7
 74
     1
 91
        0
 64
     7
 65
   257
 75
     1
175
     1
 42
1.0
 92
        8
 66
     8
 43
1.0
 76
     1
 77
     6
 78
     2
 67
     7
 79
     5
170
     0
171
     0
290
     0
174
     0
 93
       13
 44
0.0
173
     0
291
     0
 45
0.0
1001
ACAD
1000
AcDbSavedByObjectVersion
1070
     0
  0
VISUALSTYLE
  5
1EA
102
{ACAD_XDICTIONARY
360
365
102
}
102
{ACAD_REACTORS
330
1DD
102
}
330
1DD
100
AcDbVisualStyle
  2

 70
    13
 71
     2
 72
     2
 73
     0
 90
        0
 40
-0.6
 41
-30.0
 62
     5
 63
     7
 74
     1
 91
        4
 64
     7
 65
   257
 75
     1
175
     1
 42
1.0
 92
       12
 66
     7
 43
1.0
 76
     1
 77
     6
 78
     2
 67
     7
 79
     5
170
     0
171
     0
290
     0
174
     0
 93
        1
 44
0.0
173
     0
291
     1
 45
0.0
1001
ACAD
1000
AcDbSavedByObjectVersion
1070
     0
  0
DICTIONARYVAR
  5
343
102
{ACAD_REACTORS
330
1F3
102
}
330
1F3
100
DictionaryVariables
280
     0
  1
1:1
  0
DICTIONARYVAR
  5
342
102
{ACAD_REACTORS
330
1F3
102
}
330
1F3
100
DictionaryVariables
280
     0
  1
STANDARD
  0
DICTIONARYVAR
  5
1F4
102
{ACAD_REACTORS
330
1F3
102
}
330
1F3
100
DictionaryVariables
280
     0
  1
STANDARD
  0
DICTIONARYVAR
  5
2EB
102
{ACAD_REACTORS
330
1F3
102
}
330
1F3
100
DictionaryVariables
280
     0
  1
1
  0
DICTIONARYVAR
  5
2EA
102
{ACAD_REACTORS
330
1F3
102
}
330
1F3
100
DictionaryVariables
280
     0
  1
0
  0
DICTIONARYVAR
  5
2E9
102
{ACAD_REACTORS
330
1F3
102
}
330
1F3
100
DictionaryVariables
280
     0
  1
127
  0
DICTIONARYVAR
  5
344
102
{ACAD_REACTORS
330
1F3
102
}
330
1F3
100
DictionaryVariables
280
     0
  1
2
  0
DICTIONARY
  5
349
330
106
100
AcDbDictionary
280
     1
281
     1
  3
ACAD_XREC_ROUNDTRIP
360
34A
  0
DICTIONARY
  5
34B
330
10A
100
AcDbDictionary
280
     1
281
     1
  3
ACAD_XREC_ROUNDTRIP
360
34C
  0
DICTIONARY
  5
2F3
330
1DB
100
AcDbDictionary
280
     1
281
     1
  3
ACAD_XREC_ROUNDTRIP
360
2F4
  0
DICTIONARY
  5
2F1
330
1DA
100
AcDbDictionary
280
     1
281
     1
  3
ACAD_XREC_ROUNDTRIP
360
2F2
  0
DICTIONARY
  5
2F5
330
1DC
100
AcDbDictionary
280
     1
281
     1
  3
ACAD_XREC_ROUNDTRIP
360
2F6
  0
DICTIONARY
  5
345
330
1F0
100
AcDbDictionary
280
     1
281
     1
  3
ACAD_ROUNDTRIP_2008_TABLESTYLE_CELLSTYLEMAP
360
346
  3
ACAD_XREC_ROUNDTRIP
360
36D
  0
DICTIONARY
  5
357
330
1E3
100
AcDbDictionary
280
     1
281
     1
  3
ACAD_XREC_ROUNDTRIP
360
358
  0
DICTIONARY
  5
35B
330
1E5
100
AcDbDictionary
280
     1
281
     1
  3
ACAD_XREC_ROUNDTRIP
360
35C
  0
DICTIONARY
  5
359
330
1E4
100
AcDbDictionary
280
     1
281
     1
  3
ACAD_XREC_ROUNDTRIP
360
35A
  0
DICTIONARY
  5
355
330
1E2
100
AcDbDictionary
280
     1
281
     1
  3
ACAD_XREC_ROUNDTRIP
360
356
  0
DICTIONARY
  5
363
330
1E9
100
AcDbDictionary
280
     1
281
     1
  3
ACAD_XREC_ROUNDTRIP
360
364
  0
DICTIONARY
  5
36B
330
1ED
100
AcDbDictionary
280
     1
281
     1
  3
ACAD_XREC_ROUNDTRIP
360
36C
  0
DICTIONARY
  5
35D
330
1E6
100
AcDbDictionary
280
     1
281
     1
  3
ACAD_XREC_ROUNDTRIP
360
35E
  0
DICTIONARY
  5
361
330
1E8
100
AcDbDictionary
280
     1
281
     1
  3
ACAD_XREC_ROUNDTRIP
360
362
  0
DICTIONARY
  5
372
330
2FD
100
AcDbDictionary
280
     1
281
     1
  3
ACAD_XREC_ROUNDTRIP
360
373
  0
DICTIONARY
  5
369
330
1EC
100
AcDbDictionary
280
     1
281
     1
  3
ACAD_XREC_ROUNDTRIP
360
36A
  0
DICTIONARY
  5
34D
330
1DE
100
AcDbDictionary
280
     1
281
     1
  3
ACAD_XREC_ROUNDTRIP
360
34E
  0
DICTIONARY
  5
34F
330
1DF
100
AcDbDictionary
280
     1
281
     1
  3
ACAD_XREC_ROUNDTRIP
360
350
  0
DICTIONARY
  5
351
330
1E0
100
AcDbDictionary
280
     1
281
     1
  3
ACAD_XREC_ROUNDTRIP
360
352
  0
DICTIONARY
  5
353
330
1E1
100
AcDbDictionary
280
     1
281
     1
  3
ACAD_XREC_ROUNDTRIP
360
354
  0
DICTIONARY
  5
36E
330
2FB
100
AcDbDictionary
280
     1
281
     1
  3
ACAD_XREC_ROUNDTRIP
360
36F
  0
DICTIONARY
  5
367
330
1EB
100
AcDbDictionary
280
     1
281
     1
  3
ACAD_XREC_ROUNDTRIP
360
368
  0
DICTIONARY
  5
370
330
2FC
100
AcDbDictionary
280
     1
281
     1
  3
ACAD_XREC_ROUNDTRIP
360
371
  0
DICTIONARY
  5
35F
330
1E7
100
AcDbDictionary
280
     1
281
     1
  3
ACAD_XREC_ROUNDTRIP
360
360
  0
DICTIONARY
  5
365
330
1EA
100
AcDbDictionary
280
     1
281
     1
  3
ACAD_XREC_ROUNDTRIP
360
366
  0
XRECORD
  5
34A
102
{ACAD_REACTORS
330
349
102
}
330
349
100
AcDbXrecord
280
     1
102
SHADEPLOT
 70
     0
102
SHADEPLOTRESLEVEL
 70
     2
102
SHADEPLOTCUSTOMDPI
 70
   300
  0
XRECORD
  5
34C
102
{ACAD_REACTORS
330
34B
102
}
330
34B
100
AcDbXrecord
280
     1
102
SHADEPLOT
 70
     0
102
SHADEPLOTRESLEVEL
 70
     2
102
SHADEPLOTCUSTOMDPI
 70
   300
  0
XRECORD
  5
2F4
102
{ACAD_REACTORS
330
2F3
102
}
330
2F3
100
AcDbXrecord
280
     1
102
MATERIAL
148
0.0
149
0.0
149
0.0
 93
        0
 94
      127
282
     0
 72
     1
 77
     1
171
     1
175
     1
179
     1
273
     0
  0
XRECORD
  5
2F2
102
{ACAD_REACTORS
330
2F1
102
}
330
2F1
100
AcDbXrecord
280
     1
102
MATERIAL
148
0.0
149
0.0
149
0.0
 93
        0
 94
      127
282
     0
 72
     1
 77
     1
171
     1
175
     1
179
     1
273
     0
  0
XRECORD
  5
2F6
102
{ACAD_REACTORS
330
2F5
102
}
330
2F5
100
AcDbXrecord
280
     1
102
MATERIAL
148
0.0
149
0.0
149
0.0
 93
        0
 94
      127
282
     0
 72
     1
 77
     1
171
     1
175
     1
179
     1
273
     0
  0
CELLSTYLEMAP
  5
346
102
{ACAD_REACTORS
330
345
102
}
330
345
100
AcDbCellStyleMap
 90
        3
300
CELLSTYLE
  1
TABLEFORMAT_BEGIN
 90
        5
170
     1
 91
        0
 92
    32768
 62
   257
 93
        1
300
CONTENTFORMAT
  1
CONTENTFORMAT_BEGIN
 90
        0
 91
        0
 92
      512
 93
        0
300

 40
0.0
140
1.0
 94
        5
 62
     0
340
FA
144
0.25
309
CONTENTFORMAT_END
171
     0
 94
        6
 95
        1
302
GRIDFORMAT
  1
GRIDFORMAT_BEGIN
 90
        0
 91
        1
 62
     0
 92
       -2
340
0
 93
        0
 40
0.045
309
GRIDFORMAT_END
 95
        2
302
GRIDFORMAT
  1
GRIDFORMAT_BEGIN
 90
        0
 91
        1
 62
     0
 92
       -2
340
0
 93
        0
 40
0.045
309
GRIDFORMAT_END
 95
        4
302
GRIDFORMAT
  1
GRIDFORMAT_BEGIN
 90
        0
 91
        1
 62
     0
 92
       -2
340
0
 93
        0
 40
0.045
309
GRIDFORMAT_END
 95
        8
302
GRIDFORMAT
  1
GRIDFORMAT_BEGIN
 90
        0
 91
        1
 62
     0
 92
       -2
340
0
 93
        0
 40
0.045
309
GRIDFORMAT_END
 95
       16
302
GRIDFORMAT
  1
GRIDFORMAT_BEGIN
 90
        0
 91
        1
 62
     0
 92
       -2
340
0
 93
        0
 40
0.045
309
GRIDFORMAT_END
 95
       32
302
GRIDFORMAT
  1
GRIDFORMAT_BEGIN
 90
        0
 91
        1
 62
     0
 92
       -2
340
0
 93
        0
 40
0.045
309
GRIDFORMAT_END
309
TABLEFORMAT_END
  1
CELLSTYLE_BEGIN
 90
        1
 91
        1
300
_TITLE
309
CELLSTYLE_END
300
CELLSTYLE
  1
TABLEFORMAT_BEGIN
 90
        5
170
     1
 91
        0
 92
        0
 62
   257
 93
        1
300
CONTENTFORMAT
  1
CONTENTFORMAT_BEGIN
 90
        0
 91
        0
 92
      512
 93
        0
300

 40
0.0
140
1.0
 94
        5
 62
     0
340
FA
144
0.18
309
CONTENTFORMAT_END
171
     0
 94
        6
 95
        1
302
GRIDFORMAT
  1
GRIDFORMAT_BEGIN
 90
        0
 91
        1
 62
     0
 92
       -2
340
0
 93
        0
 40
0.045
309
GRIDFORMAT_END
 95
        2
302
GRIDFORMAT
  1
GRIDFORMAT_BEGIN
 90
        0
 91
        1
 62
     0
 92
       -2
340
0
 93
        0
 40
0.045
309
GRIDFORMAT_END
 95
        4
302
GRIDFORMAT
  1
GRIDFORMAT_BEGIN
 90
        0
 91
        1
 62
     0
 92
       -2
340
0
 93
        0
 40
0.045
309
GRIDFORMAT_END
 95
        8
302
GRIDFORMAT
  1
GRIDFORMAT_BEGIN
 90
        0
 91
        1
 62
     0
 92
       -2
340
0
 93
        0
 40
0.045
309
GRIDFORMAT_END
 95
       16
302
GRIDFORMAT
  1
GRIDFORMAT_BEGIN
 90
        0
 91
        1
 62
     0
 92
       -2
340
0
 93
        0
 40
0.045
309
GRIDFORMAT_END
 95
       32
302
GRIDFORMAT
  1
GRIDFORMAT_BEGIN
 90
        0
 91
        1
 62
     0
 92
       -2
340
0
 93
        0
 40
0.045
309
GRIDFORMAT_END
309
TABLEFORMAT_END
  1
CELLSTYLE_BEGIN
 90
        2
 91
        1
300
_HEADER
309
CELLSTYLE_END
300
CELLSTYLE
  1
TABLEFORMAT_BEGIN
 90
        5
170
     1
 91
        0
 92
        0
 62
   257
 93
        1
300
CONTENTFORMAT
  1
CONTENTFORMAT_BEGIN
 90
        0
 91
        0
 92
      512
 93
        0
300

 40
0.0
140
1.0
 94
        2
 62
     0
340
FA
144
0.18
309
CONTENTFORMAT_END
171
     0
 94
        6
 95
        1
302
GRIDFORMAT
  1
GRIDFORMAT_BEGIN
 90
        0
 91
        1
 62
     0
 92
       -2
340
0
 93
        0
 40
0.045
309
GRIDFORMAT_END
 95
        2
302
GRIDFORMAT
  1
GRIDFORMAT_BEGIN
 90
        0
 91
        1
 62
     0
 92
       -2
340
0
 93
        0
 40
0.045
309
GRIDFORMAT_END
 95
        4
302
GRIDFORMAT
  1
GRIDFORMAT_BEGIN
 90
        0
 91
        1
 62
     0
 92
       -2
340
0
 93
        0
 40
0.045
309
GRIDFORMAT_END
 95
        8
302
GRIDFORMAT
  1
GRIDFORMAT_BEGIN
 90
        0
 91
        1
 62
     0
 92
       -2
340
0
 93
        0
 40
0.045
309
GRIDFORMAT_END
 95
       16
302
GRIDFORMAT
  1
GRIDFORMAT_BEGIN
 90
        0
 91
        1
 62
     0
 92
       -2
340
0
 93
        0
 40
0.045
309
GRIDFORMAT_END
 95
       32
302
GRIDFORMAT
  1
GRIDFORMAT_BEGIN
 90
        0
 91
        1
 62
     0
 92
       -2
340
0
 93
        0
 40
0.045
309
GRIDFORMAT_END
309
TABLEFORMAT_END
  1
CELLSTYLE_BEGIN
 90
        3
 91
        2
300
_DATA
309
CELLSTYLE_END
  0
XRECORD
  5
36D
102
{ACAD_REACTORS
330
345
102
}
330
345
100
AcDbXrecord
280
     1
102
ACAD_ROUNDTRIP_PRE2007_TABLESTYLE
 90
      512
 91
        0
  1

 92
      512
 93
        0
  2

 94
      512
 95
        0
  3

  0
XRECORD
  5
358
102
{ACAD_REACTORS
330
357
102
}
330
357
100
AcDbXrecord
280
     1
102
RTVSPropertyOp0
 70
     1
102
RTVSPropertyOp1
 70
     1
102
RTVSPropertyOp2
 70
     1
102
RTVSPropertyOp3
 70
     1
102
RTVSPropertyOp4
 70
     1
102
RTVSPropertyOp5
 70
     1
102
RTVSPropertyOp6
 70
     1
102
RTVSPropertyOp7
 70
     1
102
RTVSPropertyOp8
 70
     1
102
RTVSPropertyOp9
 70
     1
102
RTVSPropertyOp10
 70
     1
102
RTVSPropertyOp11
 70
     1
102
RTVSPropertyOp12
 70
     1
102
RTVSPropertyOp13
 70
     1
102
RTVSPropertyOp14
 70
     1
102
RTVSPropertyOp15
 70
     1
102
RTVSPropertyOp16
 70
     1
102
RTVSPropertyOp17
 70
     1
102
RTVSPropertyOp18
 70
     1
102
RTVSPropertyOp19
 70
     1
102
RTVSPropertyOp20
 70
     1
102
RTVSPropertyOp21
 70
     1
102
RTVSPropertyOp22
 70
     1
102
RTVSPropertyOp23
 70
     1
102
RTVSPropertyOp24
 70
     1
102
RTVSPropertyOp25
 70
     1
102
RTVSPropertyOp26
 70
     1
102
RTVSPropertyOp27
 70
     1
  0
XRECORD
  5
35C
102
{ACAD_REACTORS
330
35B
102
}
330
35B
100
AcDbXrecord
280
     1
102
RTVSPropertyOp0
 70
     1
102
RTVSPropertyOp1
 70
     1
102
RTVSPropertyOp2
 70
     1
102
RTVSPropertyOp3
 70
     1
102
RTVSPropertyOp4
 70
     1
102
RTVSPropertyOp5
 70
     1
102
RTVSPropertyOp6
 70
     1
102
RTVSPropertyOp7
 70
     1
102
RTVSPropertyOp8
 70
     1
102
RTVSPropertyOp9
 70
     1
102
RTVSPropertyOp10
 70
     1
102
RTVSPropertyOp11
 70
     1
102
RTVSPropertyOp12
 70
     1
102
RTVSPropertyOp13
 70
     1
102
RTVSPropertyOp14
 70
     1
102
RTVSPropertyOp15
 70
     1
102
RTVSPropertyOp16
 70
     1
102
RTVSPropertyOp17
 70
     1
102
RTVSPropertyOp18
 70
     1
102
RTVSPropertyOp19
 70
     1
102
RTVSPropertyOp20
 70
     1
102
RTVSPropertyOp21
 70
     1
102
RTVSPropertyOp22
 70
     1
102
RTVSPropertyOp23
 70
     1
102
RTVSPropertyOp24
 70
     1
102
RTVSPropertyOp25
 70
     1
102
RTVSPropertyOp26
 70
     1
102
RTVSPropertyOp27
 70
     1
  0
XRECORD
  5
35A
102
{ACAD_REACTORS
330
359
102
}
330
359
100
AcDbXrecord
280
     1
102
RTVSPropertyOp0
 70
     1
102
RTVSPropertyOp1
 70
     1
102
RTVSPropertyOp2
 70
     1
102
RTVSPropertyOp3
 70
     1
102
RTVSPropertyOp4
 70
     1
102
RTVSPropertyOp5
 70
     1
102
RTVSPropertyOp6
 70
     1
102
RTVSPropertyOp7
 70
     1
102
RTVSPropertyOp8
 70
     1
102
RTVSPropertyOp9
 70
     1
102
RTVSPropertyOp10
 70
     1
102
RTVSPropertyOp11
 70
     1
102
RTVSPropertyOp12
 70
     1
102
RTVSPropertyOp13
 70
     1
102
RTVSPropertyOp14
 70
     1
102
RTVSPropertyOp15
 70
     1
102
RTVSPropertyOp16
 70
     1
102
RTVSPropertyOp17
 70
     1
102
RTVSPropertyOp18
 70
     1
102
RTVSPropertyOp19
 70
     1
102
RTVSPropertyOp20
 70
     1
102
RTVSPropertyOp21
 70
     1
102
RTVSPropertyOp22
 70
     1
102
RTVSPropertyOp23
 70
     1
102
RTVSPropertyOp24
 70
     1
102
RTVSPropertyOp25
 70
     1
102
RTVSPropertyOp26
 70
     1
102
RTVSPropertyOp27
 70
     1
  0
XRECORD
  5
356
102
{ACAD_REACTORS
330
355
102
}
330
355
100
AcDbXrecord
280
     1
102
RTVSPropertyOp0
 70
     1
102
RTVSPropertyOp1
 70
     1
102
RTVSPropertyOp2
 70
     1
102
RTVSPropertyOp3
 70
     1
102
RTVSPropertyOp4
 70
     1
102
RTVSPropertyOp5
 70
     1
102
RTVSPropertyOp6
 70
     1
102
RTVSPropertyOp7
 70
     1
102
RTVSPropertyOp8
 70
     1
102
RTVSPropertyOp9
 70
     1
102
RTVSPropertyOp10
 70
     1
102
RTVSPropertyOp11
 70
     1
102
RTVSPropertyOp12
 70
     1
102
RTVSPropertyOp13
 70
     1
102
RTVSPropertyOp14
 70
     1
102
RTVSPropertyOp15
 70
     1
102
RTVSPropertyOp16
 70
     1
102
RTVSPropertyOp17
 70
     1
102
RTVSPropertyOp18
 70
     1
102
RTVSPropertyOp19
 70
     1
102
RTVSPropertyOp20
 70
     1
102
RTVSPropertyOp21
 70
     1
102
RTVSPropertyOp22
 70
     1
102
RTVSPropertyOp23
 70
     1
102
RTVSPropertyOp24
 70
     1
102
RTVSPropertyOp25
 70
     1
102
RTVSPropertyOp26
 70
     1
102
RTVSPropertyOp27
 70
     1
  0
XRECORD
  5
364
102
{ACAD_REACTORS
330
363
102
}
330
363
100
AcDbXrecord
280
     1
102
RTVSPropertyOp0
 70
     1
102
RTVSPropertyOp1
 70
     1
102
RTVSPropertyOp2
 70
     1
102
RTVSPropertyOp3
 70
     1
102
RTVSPropertyOp4
 70
     1
102
RTVSPropertyOp5
 70
     1
102
RTVSPropertyOp6
 70
     1
102
RTVSPropertyOp7
 70
     1
102
RTVSPropertyOp8
 70
     1
102
RTVSPropertyOp9
 70
     1
102
RTVSPropertyOp10
 70
     1
102
RTVSPropertyOp11
 70
     1
102
RTVSPropertyOp12
 70
     1
102
RTVSPropertyOp13
 70
     1
102
RTVSPropertyOp14
 70
     1
102
RTVSPropertyOp15
 70
     1
102
RTVSPropertyOp16
 70
     1
102
RTVSPropertyOp17
 70
     1
102
RTVSPropertyOp18
 70
     1
102
RTVSPropertyOp19
 70
     1
102
RTVSPropertyOp20
 70
     1
102
RTVSPropertyOp21
 70
     1
102
RTVSPropertyOp22
 70
     1
102
RTVSPropertyOp23
 70
     1
102
RTVSPropertyOp24
 70
     1
102
RTVSPropertyOp25
 70
     1
102
RTVSPropertyOp26
 70
     1
102
RTVSPropertyOp27
 70
     1
  0
XRECORD
  5
36C
102
{ACAD_REACTORS
330
36B
102
}
330
36B
100
AcDbXrecord
280
     1
102
RTVSPropertyOp0
 70
     1
102
RTVSPropertyOp1
 70
     1
102
RTVSPropertyOp2
 70
     1
102
RTVSPropertyOp3
 70
     1
102
RTVSPropertyOp4
 70
     1
102
RTVSPropertyOp5
 70
     1
102
RTVSPropertyOp6
 70
     1
102
RTVSPropertyOp7
 70
     1
102
RTVSPropertyOp8
 70
     1
102
RTVSPropertyOp9
 70
     1
102
RTVSPropertyOp10
 70
     1
102
RTVSPropertyOp11
 70
     1
102
RTVSPropertyOp12
 70
     1
102
RTVSPropertyOp13
 70
     1
102
RTVSPropertyOp14
 70
     1
102
RTVSPropertyOp15
 70
     1
102
RTVSPropertyOp16
 70
     1
102
RTVSPropertyOp17
 70
     1
102
RTVSPropertyOp18
 70
     1
102
RTVSPropertyOp19
 70
     1
102
RTVSPropertyOp20
 70
     1
102
RTVSPropertyOp21
 70
     1
102
RTVSPropertyOp22
 70
     1
102
RTVSPropertyOp23
 70
     1
102
RTVSPropertyOp24
 70
     1
102
RTVSPropertyOp25
 70
     1
102
RTVSPropertyOp26
 70
     1
102
RTVSPropertyOp27
 70
     1
  0
XRECORD
  5
35E
102
{ACAD_REACTORS
330
35D
102
}
330
35D
100
AcDbXrecord
280
     1
102
RTVSPropertyOp0
 70
     1
102
RTVSPropertyOp1
 70
     1
102
RTVSPropertyOp2
 70
     1
102
RTVSPropertyOp3
 70
     1
102
RTVSPropertyOp4
 70
     1
102
RTVSPropertyOp5
 70
     1
102
RTVSPropertyOp6
 70
     1
102
RTVSPropertyOp7
 70
     1
102
RTVSPropertyOp8
 70
     1
102
RTVSPropertyOp9
 70
     1
102
RTVSPropertyOp10
 70
     1
102
RTVSPropertyOp11
 70
     1
102
RTVSPropertyOp12
 70
     1
102
RTVSPropertyOp13
 70
     1
102
RTVSPropertyOp14
 70
     1
102
RTVSPropertyOp15
 70
     1
102
RTVSPropertyOp16
 70
     1
102
RTVSPropertyOp17
 70
     1
102
RTVSPropertyOp18
 70
     1
102
RTVSPropertyOp19
 70
     1
102
RTVSPropertyOp20
 70
     1
102
RTVSPropertyOp21
 70
     1
102
RTVSPropertyOp22
 70
     1
102
RTVSPropertyOp23
 70
     1
102
RTVSPropertyOp24
 70
     1
102
RTVSPropertyOp25
 70
     1
102
RTVSPropertyOp26
 70
     1
102
RTVSPropertyOp27
 70
     1
  0
XRECORD
  5
362
102
{ACAD_REACTORS
330
361
102
}
330
361
100
AcDbXrecord
280
     1
102
RTVSPropertyOp0
 70
     1
102
RTVSPropertyOp1
 70
     1
102
RTVSPropertyOp2
 70
     1
102
RTVSPropertyOp3
 70
     1
102
RTVSPropertyOp4
 70
     1
102
RTVSPropertyOp5
 70
     1
102
RTVSPropertyOp6
 70
     1
102
RTVSPropertyOp7
 70
     1
102
RTVSPropertyOp8
 70
     1
102
RTVSPropertyOp9
 70
     1
102
RTVSPropertyOp10
 70
     1
102
RTVSPropertyOp11
 70
     1
102
RTVSPropertyOp12
 70
     1
102
RTVSPropertyOp13
 70
     1
102
RTVSPropertyOp14
 70
     1
102
RTVSPropertyOp15
 70
     1
102
RTVSPropertyOp16
 70
     1
102
RTVSPropertyOp17
 70
     1
102
RTVSPropertyOp18
 70
     1
102
RTVSPropertyOp19
 70
     1
102
RTVSPropertyOp20
 70
     1
102
RTVSPropertyOp21
 70
     1
102
RTVSPropertyOp22
 70
     1
102
RTVSPropertyOp23
 70
     1
102
RTVSPropertyOp24
 70
     1
102
RTVSPropertyOp25
 70
     1
102
RTVSPropertyOp26
 70
     1
102
RTVSPropertyOp27
 70
     1
  0
XRECORD
  5
373
102
{ACAD_REACTORS
330
372
102
}
330
372
100
AcDbXrecord
280
     1
102
RTVSPropertyOp0
 70
     0
102
RTVSPropertyOp1
 70
     0
102
RTVSPropertyOp2
 70
     0
102
RTVSPropertyOp3
 70
     0
102
RTVSPropertyOp4
 70
     0
102
RTVSPropertyOp5
 70
     0
102
RTVSPropertyOp6
 70
     0
102
RTVSPropertyOp7
 70
     0
102
RTVSPropertyOp8
 70
     0
102
RTVSPropertyOp9
 70
     0
102
RTVSPropertyOp10
 70
     0
102
RTVSPropertyOp11
 70
     0
102
RTVSPropertyOp12
 70
     0
102
RTVSPropertyOp13
 70
     0
102
RTVSPropertyOp14
 70
     2
102
RTVSPropertyOp15
 70
     0
102
RTVSPropertyOp16
 70
     0
102
RTVSPropertyOp17
 70
     0
102
RTVSPropertyOp18
 70
     0
102
RTVSPropertyOp19
 70
     0
102
RTVSPropertyOp20
 70
     0
102
RTVSPropertyOp21
 70
     0
102
RTVSPropertyOp22
 70
     0
102
RTVSPropertyOp23
 70
     0
102
RTVSPropertyOp24
 70
     0
102
RTVSPropertyOp25
 70
     0
102
RTVSPropertyOp26
 70
     0
102
RTVSPropertyOp27
 70
     0
  0
XRECORD
  5
36A
102
{ACAD_REACTORS
330
369
102
}
330
369
100
AcDbXrecord
280
     1
102
RTVSPropertyOp0
 70
     1
102
RTVSPropertyOp1
 70
     1
102
RTVSPropertyOp2
 70
     1
102
RTVSPropertyOp3
 70
     1
102
RTVSPropertyOp4
 70
     1
102
RTVSPropertyOp5
 70
     1
102
RTVSPropertyOp6
 70
     1
102
RTVSPropertyOp7
 70
     1
102
RTVSPropertyOp8
 70
     1
102
RTVSPropertyOp9
 70
     1
102
RTVSPropertyOp10
 70
     1
102
RTVSPropertyOp11
 70
     1
102
RTVSPropertyOp12
 70
     1
102
RTVSPropertyOp13
 70
     1
102
RTVSPropertyOp14
 70
     1
102
RTVSPropertyOp15
 70
     1
102
RTVSPropertyOp16
 70
     1
102
RTVSPropertyOp17
 70
     1
102
RTVSPropertyOp18
 70
     1
102
RTVSPropertyOp19
 70
     1
102
RTVSPropertyOp20
 70
     1
102
RTVSPropertyOp21
 70
     1
102
RTVSPropertyOp22
 70
     1
102
RTVSPropertyOp23
 70
     1
102
RTVSPropertyOp24
 70
     1
102
RTVSPropertyOp25
 70
     1
102
RTVSPropertyOp26
 70
     1
102
RTVSPropertyOp27
 70
     1
  0
XRECORD
  5
34E
102
{ACAD_REACTORS
330
34D
102
}
330
34D
100
AcDbXrecord
280
     1
102
RTVSPropertyOp0
 70
     1
102
RTVSPropertyOp1
 70
     1
102
RTVSPropertyOp2
 70
     1
102
RTVSPropertyOp3
 70
     1
102
RTVSPropertyOp4
 70
     1
102
RTVSPropertyOp5
 70
     1
102
RTVSPropertyOp6
 70
     1
102
RTVSPropertyOp7
 70
     1
102
RTVSPropertyOp8
 70
     1
102
RTVSPropertyOp9
 70
     1
102
RTVSPropertyOp10
 70
     1
102
RTVSPropertyOp11
 70
     1
102
RTVSPropertyOp12
 70
     1
102
RTVSPropertyOp13
 70
     1
102
RTVSPropertyOp14
 70
     1
102
RTVSPropertyOp15
 70
     1
102
RTVSPropertyOp16
 70
     1
102
RTVSPropertyOp17
 70
     1
102
RTVSPropertyOp18
 70
     1
102
RTVSPropertyOp19
 70
     1
102
RTVSPropertyOp20
 70
     1
102
RTVSPropertyOp21
 70
     1
102
RTVSPropertyOp22
 70
     1
102
RTVSPropertyOp23
 70
     1
102
RTVSPropertyOp24
 70
     1
102
RTVSPropertyOp25
 70
     1
102
RTVSPropertyOp26
 70
     1
102
RTVSPropertyOp27
 70
     1
  0
XRECORD
  5
350
102
{ACAD_REACTORS
330
34F
102
}
330
34F
100
AcDbXrecord
280
     1
102
RTVSPropertyOp0
 70
     1
102
RTVSPropertyOp1
 70
     1
102
RTVSPropertyOp2
 70
     1
102
RTVSPropertyOp3
 70
     1
102
RTVSPropertyOp4
 70
     1
102
RTVSPropertyOp5
 70
     1
102
RTVSPropertyOp6
 70
     1
102
RTVSPropertyOp7
 70
     1
102
RTVSPropertyOp8
 70
     1
102
RTVSPropertyOp9
 70
     1
102
RTVSPropertyOp10
 70
     1
102
RTVSPropertyOp11
 70
     1
102
RTVSPropertyOp12
 70
     1
102
RTVSPropertyOp13
 70
     1
102
RTVSPropertyOp14
 70
     1
102
RTVSPropertyOp15
 70
     1
102
RTVSPropertyOp16
 70
     1
102
RTVSPropertyOp17
 70
     1
102
RTVSPropertyOp18
 70
     1
102
RTVSPropertyOp19
 70
     1
102
RTVSPropertyOp20
 70
     1
102
RTVSPropertyOp21
 70
     1
102
RTVSPropertyOp22
 70
     1
102
RTVSPropertyOp23
 70
     1
102
RTVSPropertyOp24
 70
     1
102
RTVSPropertyOp25
 70
     1
102
RTVSPropertyOp26
 70
     1
102
RTVSPropertyOp27
 70
     1
  0
XRECORD
  5
352
102
{ACAD_REACTORS
330
351
102
}
330
351
100
AcDbXrecord
280
     1
102
RTVSPropertyOp0
 70
     1
102
RTVSPropertyOp1
 70
     1
102
RTVSPropertyOp2
 70
     1
102
RTVSPropertyOp3
 70
     1
102
RTVSPropertyOp4
 70
     1
102
RTVSPropertyOp5
 70
     1
102
RTVSPropertyOp6
 70
     1
102
RTVSPropertyOp7
 70
     1
102
RTVSPropertyOp8
 70
     1
102
RTVSPropertyOp9
 70
     1
102
RTVSPropertyOp10
 70
     1
102
RTVSPropertyOp11
 70
     1
102
RTVSPropertyOp12
 70
     1
102
RTVSPropertyOp13
 70
     1
102
RTVSPropertyOp14
 70
     1
102
RTVSPropertyOp15
 70
     1
102
RTVSPropertyOp16
 70
     1
102
RTVSPropertyOp17
 70
     1
102
RTVSPropertyOp18
 70
     1
102
RTVSPropertyOp19
 70
     1
102
RTVSPropertyOp20
 70
     1
102
RTVSPropertyOp21
 70
     1
102
RTVSPropertyOp22
 70
     1
102
RTVSPropertyOp23
 70
     1
102
RTVSPropertyOp24
 70
     1
102
RTVSPropertyOp25
 70
     1
102
RTVSPropertyOp26
 70
     1
102
RTVSPropertyOp27
 70
     1
  0
XRECORD
  5
354
102
{ACAD_REACTORS
330
353
102
}
330
353
100
AcDbXrecord
280
     1
102
RTVSPropertyOp0
 70
     1
102
RTVSPropertyOp1
 70
     1
102
RTVSPropertyOp2
 70
     1
102
RTVSPropertyOp3
 70
     1
102
RTVSPropertyOp4
 70
     1
102
RTVSPropertyOp5
 70
     1
102
RTVSPropertyOp6
 70
     1
102
RTVSPropertyOp7
 70
     1
102
RTVSPropertyOp8
 70
     1
102
RTVSPropertyOp9
 70
     1
102
RTVSPropertyOp10
 70
     1
102
RTVSPropertyOp11
 70
     1
102
RTVSPropertyOp12
 70
     1
102
RTVSPropertyOp13
 70
     1
102
RTVSPropertyOp14
 70
     1
102
RTVSPropertyOp15
 70
     1
102
RTVSPropertyOp16
 70
     1
102
RTVSPropertyOp17
 70
     1
102
RTVSPropertyOp18
 70
     1
102
RTVSPropertyOp19
 70
     1
102
RTVSPropertyOp20
 70
     1
102
RTVSPropertyOp21
 70
     1
102
RTVSPropertyOp22
 70
     1
102
RTVSPropertyOp23
 70
     1
102
RTVSPropertyOp24
 70
     1
102
RTVSPropertyOp25
 70
     1
102
RTVSPropertyOp26
 70
     1
102
RTVSPropertyOp27
 70
     1
  0
XRECORD
  5
36F
102
{ACAD_REACTORS
330
36E
102
}
330
36E
100
AcDbXrecord
280
     1
102
RTVSPropertyOp0
 70
     0
102
RTVSPropertyOp1
 70
     0
102
RTVSPropertyOp2
 70
     0
102
RTVSPropertyOp3
 70
     0
102
RTVSPropertyOp4
 70
     0
102
RTVSPropertyOp5
 70
     0
102
RTVSPropertyOp6
 70
     0
102
RTVSPropertyOp7
 70
     0
102
RTVSPropertyOp8
 70
     0
102
RTVSPropertyOp9
 70
     0
102
RTVSPropertyOp10
 70
     0
102
RTVSPropertyOp11
 70
     0
102
RTVSPropertyOp12
 70
     0
102
RTVSPropertyOp13
 70
     0
102
RTVSPropertyOp14
 70
     2
102
RTVSPropertyOp15
 70
     0
102
RTVSPropertyOp16
 70
     0
102
RTVSPropertyOp17
 70
     0
102
RTVSPropertyOp18
 70
     0
102
RTVSPropertyOp19
 70
     0
102
RTVSPropertyOp20
 70
     0
102
RTVSPropertyOp21
 70
     0
102
RTVSPropertyOp22
 70
     0
102
RTVSPropertyOp23
 70
     0
102
RTVSPropertyOp24
 70
     0
102
RTVSPropertyOp25
 70
     0
102
RTVSPropertyOp26
 70
     0
102
RTVSPropertyOp27
 70
     0
  0
XRECORD
  5
368
102
{ACAD_REACTORS
330
367
102
}
330
367
100
AcDbXrecord
280
     1
102
RTVSPropertyOp0
 70
     1
102
RTVSPropertyOp1
 70
     1
102
RTVSPropertyOp2
 70
     1
102
RTVSPropertyOp3
 70
     1
102
RTVSPropertyOp4
 70
     1
102
RTVSPropertyOp5
 70
     1
102
RTVSPropertyOp6
 70
     1
102
RTVSPropertyOp7
 70
     1
102
RTVSPropertyOp8
 70
     1
102
RTVSPropertyOp9
 70
     1
102
RTVSPropertyOp10
 70
     1
102
RTVSPropertyOp11
 70
     1
102
RTVSPropertyOp12
 70
     1
102
RTVSPropertyOp13
 70
     1
102
RTVSPropertyOp14
 70
     1
102
RTVSPropertyOp15
 70
     1
102
RTVSPropertyOp16
 70
     1
102
RTVSPropertyOp17
 70
     1
102
RTVSPropertyOp18
 70
     1
102
RTVSPropertyOp19
 70
     1
102
RTVSPropertyOp20
 70
     1
102
RTVSPropertyOp21
 70
     1
102
RTVSPropertyOp22
 70
     1
102
RTVSPropertyOp23
 70
     1
102
RTVSPropertyOp24
 70
     1
102
RTVSPropertyOp25
 70
     1
102
RTVSPropertyOp26
 70
     1
102
RTVSPropertyOp27
 70
     1
  0
XRECORD
  5
371
102
{ACAD_REACTORS
330
370
102
}
330
370
100
AcDbXrecord
280
     1
102
RTVSPropertyOp0
 70
     0
102
RTVSPropertyOp1
 70
     0
102
RTVSPropertyOp2
 70
     0
102
RTVSPropertyOp3
 70
     0
102
RTVSPropertyOp4
 70
     0
102
RTVSPropertyOp5
 70
     0
102
RTVSPropertyOp6
 70
     0
102
RTVSPropertyOp7
 70
     0
102
RTVSPropertyOp8
 70
     0
102
RTVSPropertyOp9
 70
     0
102
RTVSPropertyOp10
 70
     0
102
RTVSPropertyOp11
 70
     0
102
RTVSPropertyOp12
 70
     0
102
RTVSPropertyOp13
 70
     0
102
RTVSPropertyOp14
 70
     2
102
RTVSPropertyOp15
 70
     0
102
RTVSPropertyOp16
 70
     0
102
RTVSPropertyOp17
 70
     0
102
RTVSPropertyOp18
 70
     0
102
RTVSPropertyOp19
 70
     0
102
RTVSPropertyOp20
 70
     0
102
RTVSPropertyOp21
 70
     0
102
RTVSPropertyOp22
 70
     0
102
RTVSPropertyOp23
 70
     0
102
RTVSPropertyOp24
 70
     0
102
RTVSPropertyOp25
 70
     0
102
RTVSPropertyOp26
 70
     0
102
RTVSPropertyOp27
 70
     0
  0
XRECORD
  5
360
102
{ACAD_REACTORS
330
35F
102
}
330
35F
100
AcDbXrecord
280
     1
102
RTVSPropertyOp0
 70
     1
102
RTVSPropertyOp1
 70
     1
102
RTVSPropertyOp2
 70
     1
102
RTVSPropertyOp3
 70
     1
102
RTVSPropertyOp4
 70
     1
102
RTVSPropertyOp5
 70
     1
102
RTVSPropertyOp6
 70
     1
102
RTVSPropertyOp7
 70
     1
102
RTVSPropertyOp8
 70
     1
102
RTVSPropertyOp9
 70
     1
102
RTVSPropertyOp10
 70
     1
102
RTVSPropertyOp11
 70
     1
102
RTVSPropertyOp12
 70
     1
102
RTVSPropertyOp13
 70
     1
102
RTVSPropertyOp14
 70
     1
102
RTVSPropertyOp15
 70
     1
102
RTVSPropertyOp16
 70
     1
102
RTVSPropertyOp17
 70
     1
102
RTVSPropertyOp18
 70
     1
102
RTVSPropertyOp19
 70
     1
102
RTVSPropertyOp20
 70
     1
102
RTVSPropertyOp21
 70
     1
102
RTVSPropertyOp22
 70
     1
102
RTVSPropertyOp23
 70
     1
102
RTVSPropertyOp24
 70
     1
102
RTVSPropertyOp25
 70
     1
102
RTVSPropertyOp26
 70
     1
102
RTVSPropertyOp27
 70
     1
  0
XRECORD
  5
366
102
{ACAD_REACTORS
330
365
102
}
330
365
100
AcDbXrecord
280
     1
102
RTVSPropertyOp0
 70
     1
102
RTVSPropertyOp1
 70
     1
102
RTVSPropertyOp2
 70
     1
102
RTVSPropertyOp3
 70
     1
102
RTVSPropertyOp4
 70
     1
102
RTVSPropertyOp5
 70
     1
102
RTVSPropertyOp6
 70
     1
102
RTVSPropertyOp7
 70
     1
102
RTVSPropertyOp8
 70
     1
102
RTVSPropertyOp9
 70
     1
102
RTVSPropertyOp10
 70
     1
102
RTVSPropertyOp11
 70
     1
102
RTVSPropertyOp12
 70
     1
102
RTVSPropertyOp13
 70
     1
102
RTVSPropertyOp14
 70
     1
102
RTVSPropertyOp15
 70
     1
102
RTVSPropertyOp16
 70
     1
102
RTVSPropertyOp17
 70
     1
102
RTVSPropertyOp18
 70
     1
102
RTVSPropertyOp19
 70
     1
102
RTVSPropertyOp20
 70
     1
102
RTVSPropertyOp21
 70
     1
102
RTVSPropertyOp22
 70
     1
102
RTVSPropertyOp23
 70
     1
102
RTVSPropertyOp24
 70
     1
102
RTVSPropertyOp25
 70
     1
102
RTVSPropertyOp26
 70
     1
102
RTVSPropertyOp27
 70
     1
  0
ENDSEC
  0
EOF
