  0
SECTION
  2
HEADER
  9
$ACADVER
  1
AC1015
  9
$ACADMAINTVER
 70
    20
  9
$DWGCODEPAGE
  3
ANSI_1252
  9
$INSBASE
 10
0.0
 20
0.0
 30
0.0
  9
$EXTMIN
 10
470.0
 20
212.525
 30
0.0
  9
$EXTMAX
 10
1285.174999999999
 20
915.36875
 30
0.0
  9
$LIMMIN
 10
0.0
 20
0.0
  9
$LIMMAX
 10
12.0
 20
9.0
  9
$ORTHOMODE
 70
     1
  9
$REGENMODE
 70
     1
  9
$FILLMODE
 70
     1
  9
$QTEXTMODE
 70
     0
  9
$MIRRTEXT
 70
     1
  9
$LTSCALE
 40
1.0
  9
$ATTMODE
 70
     1
  9
$TEXTSIZE
 40
0.0
  9
$TRACEWID
 40
0.05
  9
$TEXTSTYLE
  7
STANDARD
  9
$CLAYER
  8
0
  9
$CELTYPE
  6
CONTINUOUS
  9
$CECOLOR
 62
   256
  9
$CELTSCALE
 40
1.0
  9
$DISPSILH
 70
     0
  9
$DIMSCALE
 40
1.0
  9
$DIMASZ
 40
0.18
  9
$DIMEXO
 40
0.0625
  9
$DIMDLI
 40
0.38
  9
$DIMRND
 40
0.0
  9
$DIMDLE
 40
0.0
  9
$DIMEXE
 40
0.18
  9
$DIMTP
 40
0.0
  9
$DIMTM
 40
0.0
  9
$DIMTXT
 40
0.18
  9
$DIMCEN
 40
0.09
  9
$DIMTSZ
 40
0.0
  9
$DIMTOL
 70
     0
  9
$DIMLIM
 70
     0
  9
$DIMTIH
 70
     1
  9
$DIMTOH
 70
     1
  9
$DIMSE1
 70
     0
  9
$DIMSE2
 70
     0
  9
$DIMTAD
 70
     0
  9
$DIMZIN
 70
     0
  9
$DIMBLK
  1

  9
$DIMASO
 70
     1
  9
$DIMSHO
 70
     1
  9
$DIMPOST
  1

  9
$DIMAPOST
  1

  9
$DIMALT
 70
     0
  9
$DIMALTD
 70
     2
  9
$DIMALTF
 40
25.4
  9
$DIMLFAC
 40
1.0
  9
$DIMTOFL
 70
     0
  9
$DIMTVP
 40
0.0
  9
$DIMTIX
 70
     0
  9
$DIMSOXD
 70
     0
  9
$DIMSAH
 70
     0
  9
$DIMBLK1
  1

  9
$DIMBLK2
  1

  9
$DIMSTYLE
  2
STANDARD
  9
$DIMCLRD
 70
     0
  9
$DIMCLRE
 70
     0
  9
$DIMCLRT
 70
     0
  9
$DIMTFAC
 40
1.0
  9
$DIMGAP
 40
0.09
  9
$DIMJUST
 70
     0
  9
$DIMSD1
 70
     0
  9
$DIMSD2
 70
     0
  9
$DIMTOLJ
 70
     1
  9
$DIMTZIN
 70
     0
  9
$DIMALTZ
 70
     0
  9
$DIMALTTZ
 70
     0
  9
$DIMUPT
 70
     0
  9
$DIMDEC
 70
     4
  9
$DIMTDEC
 70
     4
  9
$DIMALTU
 70
     2
  9
$DIMALTTD
 70
     2
  9
$DIMTXSTY
  7
STANDARD
  9
$DIMAUNIT
 70
     0
  9
$DIMADEC
 70
     0
  9
$DIMALTRND
 40
0.0
  9
$DIMAZIN
 70
     0
  9
$DIMDSEP
 70
    46
  9
$DIMATFIT
 70
     3
  9
$DIMFRAC
 70
     0
  9
$DIMLDRBLK
  1

  9
$DIMLUNIT
 70
     2
  9
$DIMLWD
 70
    -2
  9
$DIMLWE
 70
    -2
  9
$DIMTMOVE
 70
     0
  9
$LUNITS
 70
     2
  9
$LUPREC
 70
     4
  9
$SKETCHINC
 40
0.1
  9
$FILLETRAD
 40
0.0
  9
$AUNITS
 70
     0
  9
$AUPREC
 70
     0
  9
$MENU
  1
acad
  9
$ELEVATION
 40
0.0
  9
$PELEVATION
 40
0.0
  9
$THICKNESS
 40
0.0
  9
$LIMCHECK
 70
     0
  9
$CHAMFERA
 40
0.0
  9
$CHAMFERB
 40
0.0
  9
$CHAMFERC
 40
0.0
  9
$CHAMFERD
 40
0.0
  9
$SKPOLY
 70
     0
  9
$TDCREATE
 40
2453238.659525463
  9
$TDUCREATE
 40
2453238.659525463
  9
$TDUPDATE
 40
2456696.420110093
  9
$TDUUPDATE
 40
2456696.420110093
  9
$TDINDWG
 40
0.0185779745
  9
$TDUSRTIMER
 40
0.0185777662
  9
$USRTIMER
 70
     1
  9
$ANGBASE
 50
0.0
  9
$ANGDIR
 70
     0
  9
$PDMODE
 70
     0
  9
$PDSIZE
 40
0.0
  9
$PLINEWID
 40
0.0
  9
$SPLFRAME
 70
     0
  9
$SPLINETYPE
 70
     6
  9
$SPLINESEGS
 70
    10
  9
$HANDSEED
  5
5DF
  9
$SURFTAB1
 70
     6
  9
$SURFTAB2
 70
     6
  9
$SURFTYPE
 70
     6
  9
$SURFU
 70
     6
  9
$SURFV
 70
     6
  9
$UCSBASE
  2

  9
$UCSNAME
  2

  9
$UCSORG
 10
0.0
 20
0.0
 30
0.0
  9
$UCSXDIR
 10
1.0
 20
0.0
 30
0.0
  9
$UCSYDIR
 10
0.0
 20
1.0
 30
0.0
  9
$UCSORTHOREF
  2

  9
$UCSORTHOVIEW
 70
     0
  9
$UCSORGTOP
 10
0.0
 20
0.0
 30
0.0
  9
$UCSORGBOTTOM
 10
0.0
 20
0.0
 30
0.0
  9
$UCSORGLEFT
 10
0.0
 20
0.0
 30
0.0
  9
$UCSORGRIGHT
 10
0.0
 20
0.0
 30
0.0
  9
$UCSORGFRONT
 10
0.0
 20
0.0
 30
0.0
  9
$UCSORGBACK
 10
0.0
 20
0.0
 30
0.0
  9
$PUCSBASE
  2

  9
$PUCSNAME
  2

  9
$PUCSORG
 10
0.0
 20
0.0
 30
0.0
  9
$PUCSXDIR
 10
1.0
 20
0.0
 30
0.0
  9
$PUCSYDIR
 10
0.0
 20
1.0
 30
0.0
  9
$PUCSORTHOREF
  2

  9
$PUCSORTHOVIEW
 70
     0
  9
$PUCSORGTOP
 10
0.0
 20
0.0
 30
0.0
  9
$PUCSORGBOTTOM
 10
0.0
 20
0.0
 30
0.0
  9
$PUCSORGLEFT
 10
0.0
 20
0.0
 30
0.0
  9
$PUCSORGRIGHT
 10
0.0
 20
0.0
 30
0.0
  9
$PUCSORGFRONT
 10
0.0
 20
0.0
 30
0.0
  9
$PUCSORGBACK
 10
0.0
 20
0.0
 30
0.0
  9
$USERI1
 70
     0
  9
$USERI2
 70
     0
  9
$USERI3
 70
     0
  9
$USERI4
 70
     0
  9
$USERI5
 70
     0
  9
$USERR1
 40
0.0
  9
$USERR2
 40
0.0
  9
$USERR3
 40
0.0
  9
$USERR4
 40
0.0
  9
$USERR5
 40
0.0
  9
$WORLDVIEW
 70
     1
  9
$SHADEDGE
 70
     3
  9
$SHADEDIF
 70
    70
  9
$TILEMODE
 70
     1
  9
$MAXACTVP
 70
    16
  9
$PINSBASE
 10
0.0
 20
0.0
 30
0.0
  9
$PLIMCHECK
 70
     0
  9
$PEXTMIN
 10
-1.000000000000000E+20
 20
-1.000000000000000E+20
 30
-1.000000000000000E+20
  9
$PEXTMAX
 10
-1.000000000000000E+20
 20
-1.000000000000000E+20
 30
-1.000000000000000E+20
  9
$PLIMMIN
 10
0.0
 20
0.0
  9
$PLIMMAX
 10
12.0
 20
9.0
  9
$UNITMODE
 70
     0
  9
$VISRETAIN
 70
     0
  9
$PLINEGEN
 70
     1
  9
$PSLTSCALE
 70
     0
  9
$TREEDEPTH
 70
  3020
  9
$CMLSTYLE
  2
Standard
  9
$CMLJUST
 70
     0
  9
$CMLSCALE
 40
1.0
  9
$PROXYGRAPHICS
 70
     1
  9
$MEASUREMENT
 70
     0
  9
$CELWEIGHT
370
    -1
  9
$ENDCAPS
280
     0
  9
$JOINSTYLE
280
     0
  9
$LWDISPLAY
290
     0
  9
$INSUNITS
 70
     0
  9
$HYPERLINKBASE
  1

  9
$STYLESHEET
  1

  9
$XEDIT
290
     1
  9
$CEPSNTYPE
380
     0
  9
$PSTYLEMODE
290
     1
  9
$FINGERPRINTGUID
  2
{F9589F65-51D0-4B48-8210-B91E45718BB2}
  9
$VERSIONGUID
  2
{4F59BD6C-F38F-43A0-9653-368B927D3BA2}
  9
$EXTNAMES
290
     1
  9
$PSVPSCALE
 40
0.0
  9
$OLESTARTUP
290
     0
  0
ENDSEC
  0
SECTION
  2
CLASSES
  0
CLASS
  1
ACDBDICTIONARYWDFLT
  2
AcDbDictionaryWithDefault
  3
ObjectDBX Classes
 90
        0
280
     0
281
     0
  0
CLASS
  1
ACDBPLACEHOLDER
  2
AcDbPlaceHolder
  3
ObjectDBX Classes
 90
        0
280
     0
281
     0
  0
CLASS
  1
LAYOUT
  2
AcDbLayout
  3
ObjectDBX Classes
 90
        0
280
     0
281
     0
  0
CLASS
  1
MATERIAL
  2
AcDbMaterial
  3
ObjectDBX Classes
 90
     1153
280
     0
281
     0
  0
CLASS
  1
VISUALSTYLE
  2
AcDbVisualStyle
  3
ObjectDBX Classes
 90
     4095
280
     0
281
     0
  0
CLASS
  1
TABLESTYLE
  2
AcDbTableStyle
  3
ObjectDBX Classes
 90
     4095
280
     0
281
     0
  0
CLASS
  1
DICTIONARYVAR
  2
AcDbDictionaryVar
  3
ObjectDBX Classes
 90
        0
280
     0
281
     0
  0
CLASS
  1
SORTENTSTABLE
  2
AcDbSortentsTable
  3
ObjectDBX Classes
 90
        0
280
     0
281
     0
  0
CLASS
  1
SCALE
  2
AcDbScale
  3
ObjectDBX Classes
 90
     1153
280
     0
281
     0
  0
CLASS
  1
MLEADERSTYLE
  2
AcDbMLeaderStyle
  3
ACDB_MLEADERSTYLE_CLASS
 90
     4095
280
     0
281
     0
  0
CLASS
  1
CELLSTYLEMAP
  2
AcDbCellStyleMap
  3
ObjectDBX Classes
 90
     1152
280
     0
281
     0
  0
ENDSEC
  0
SECTION
  2
TABLES
  0
TABLE
  2
VPORT
  5
165
330
0
100
AcDbSymbolTable
 70
     1
  0
VPORT
  5
2BE
330
165
100
AcDbSymbolTableRecord
100
AcDbViewportTableRecord
  2
*Active
 70
     0
 10
0.0
 20
0.0
 11
1.0
 21
1.0
 12
163.7788248691095
 22
135.8298286388104
 13
0.0
 23
0.0
 14
0.0
 24
0.0
 15
0.0
 25
0.0
 16
0.0
 26
0.0
 36
1.0
 17
812.779596
 27
593.365625
 37
0.0
 40
238.5815824387948
 41
1.897654584221748
 42
50.0
 43
6.3125
 44
0.0
 50
0.0
 51
0.0
 71
     0
 72
   100
 73
     1
 74
     0
 75
     0
 76
     0
 77
     0
 78
     0
281
     0
 65
     0
110
0.0
120
0.0
130
0.0
111
1.0
121
0.0
131
0.0
112
0.0
122
1.0
132
0.0
 79
     0
146
0.0
  0
ENDTAB
  0
TABLE
  2
LTYPE
  5
162
330
0
100
AcDbSymbolTable
 70
     7
  0
LTYPE
  5
170
330
162
100
AcDbSymbolTableRecord
100
AcDbLinetypeTableRecord
  2
ByBlock
 70
     0
  3

 72
    65
 73
     0
 40
0.0
  0
LTYPE
  5
171
330
162
100
AcDbSymbolTableRecord
100
AcDbLinetypeTableRecord
  2
ByLayer
 70
     0
  3

 72
    65
 73
     0
 40
0.0
  0
LTYPE
  5
172
330
162
100
AcDbSymbolTableRecord
100
AcDbLinetypeTableRecord
  2
CONTINUOUS
 70
     0
  3
Solid line
 72
    65
 73
     0
 40
0.0
  0
LTYPE
  5
180
330
162
100
AcDbSymbolTableRecord
100
AcDbLinetypeTableRecord
  2
DOT
 70
     0
  3
. . . . . . . . . . . . . . . . . . . . . . . . . . . . . . . . .
 72
    65
 73
     2
 40
0.25
 49
0.0
 74
     0
 49
-0.25
 74
     0
  0
LTYPE
  5
181
330
162
100
AcDbSymbolTableRecord
100
AcDbLinetypeTableRecord
  2
HIDDEN
 70
     0
  3
__ __ __ __ __ __ __ __ __ __ __ __ __ __ __ __ __ __ __ __ __ 
 72
    65
 73
     2
 40
0.375
 49
0.25
 74
     0
 49
-0.125
 74
     0
  0
LTYPE
  5
182
330
162
100
AcDbSymbolTableRecord
100
AcDbLinetypeTableRecord
  2
DASHED
 70
     0
  3
__ __ __ __ __ __ __ __ __ __ __ __ __ __ __ __ __ __ __ __ __
 72
    65
 73
     2
 40
0.75
 49
0.5
 74
     0
 49
-0.25
 74
     0
  0
LTYPE
  5
183
330
162
100
AcDbSymbolTableRecord
100
AcDbLinetypeTableRecord
  2
DASHDOT
 70
     0
  3
__ . __ . __ . __ . __ . __ . __ . __ . __ . __ . __ . __ . _
 72
    65
 73
     4
 40
1.0
 49
0.5
 74
     0
 49
-0.25
 74
     0
 49
0.0
 74
     0
 49
-0.25
 74
     0
  0
LTYPE
  5
184
330
162
100
AcDbSymbolTableRecord
100
AcDbLinetypeTableRecord
  2
DIVIDE
 70
     0
  3
____ . . ____ . . ____ . . ____ . . ____ . . ____ . . ____ . .
 72
    65
 73
     6
 40
1.25
 49
0.5
 74
     0
 49
-0.25
 74
     0
 49
0.0
 74
     0
 49
-0.25
 74
     0
 49
0.0
 74
     0
 49
-0.25
 74
     0
  0
LTYPE
  5
185
330
162
100
AcDbSymbolTableRecord
100
AcDbLinetypeTableRecord
  2
CENTER
 70
     0
  3
____ _ ____ _ ____ _ ____ _ ____ _ ____ _ ____ _ ____ _ ____ _
 72
    65
 73
     4
 40
2.0
 49
1.25
 74
     0
 49
-0.25
 74
     0
 49
0.25
 74
     0
 49
-0.25
 74
     0
  0
ENDTAB
  0
TABLE
  2
LAYER
  5
15F
330
0
100
AcDbSymbolTable
 70
     4
  0
LAYER
  5
16D
102
{ACAD_XDICTIONARY
360
5A4
102
}
330
15F
100
AcDbSymbolTableRecord
100
AcDbLayerTableRecord
  2
0
 70
     0
 62
     7
  6
CONTINUOUS
370
    -3
390
16C
  0
LAYER
  5
186
102
{ACAD_XDICTIONARY
360
5A6
102
}
330
15F
100
AcDbSymbolTableRecord
100
AcDbLayerTableRecord
  2
CONSTRUCTION_CLASS
 70
     0
 62
     7
  6
CONTINUOUS
370
    -3
390
16C
  0
LAYER
  5
187
102
{ACAD_XDICTIONARY
360
5A8
102
}
330
15F
100
AcDbSymbolTableRecord
100
AcDbLayerTableRecord
  2
PATTERN_CLASS
 70
     0
 62
     7
  6
CONTINUOUS
370
    -3
390
16C
  0
LAYER
  5
188
102
{ACAD_XDICTIONARY
360
5AA
102
}
330
15F
100
AcDbSymbolTableRecord
100
AcDbLayerTableRecord
  2
1
 70
     0
 62
     7
  6
CONTINUOUS
370
    -3
390
16C
  0
ENDTAB
  0
TABLE
  2
STYLE
  5
160
330
0
100
AcDbSymbolTable
 70
     1
  0
STYLE
  5
16E
330
160
100
AcDbSymbolTableRecord
100
AcDbTextStyleTableRecord
  2
STANDARD
 70
     0
 40
0.0
 41
1.0
 50
0.0
 71
     0
 42
0.0
  3
txt
  4

  0
ENDTAB
  0
TABLE
  2
VIEW
  5
163
330
0
100
AcDbSymbolTable
 70
     0
  0
ENDTAB
  0
TABLE
  2
UCS
  5
164
330
0
100
AcDbSymbolTable
 70
     0
  0
ENDTAB
  0
TABLE
  2
APPID
  5
166
330
0
100
AcDbSymbolTable
 70
     3
  0
APPID
  5
16F
330
166
100
AcDbSymbolTableRecord
100
AcDbRegAppTableRecord
  2
ACAD
 70
     0
  0
APPID
  5
30E
330
166
100
AcDbSymbolTableRecord
100
AcDbRegAppTableRecord
  2
ACAD_EXEMPT_FROM_CAD_STANDARDS
 70
     0
  0
APPID
  5
5DE
330
166
100
AcDbSymbolTableRecord
100
AcDbRegAppTableRecord
  2
ACAD_MLEADERVER
 70
     0
  0
ENDTAB
  0
TABLE
  2
DIMSTYLE
  5
167
330
0
100
AcDbSymbolTable
 70
     1
100
AcDbDimStyleTable
 71
     1
340
189
  0
DIMSTYLE
105
189
330
167
100
AcDbSymbolTableRecord
100
AcDbDimStyleTableRecord
  2
STANDARD
 70
     0
279
     2
340
16E
  0
ENDTAB
  0
TABLE
  2
BLOCK_RECORD
  5
15E
330
0
100
AcDbSymbolTable
 70
     1
  0
BLOCK_RECORD
  5
17B
102
{ACAD_XDICTIONARY
360
36A
102
}
330
15E
100
AcDbSymbolTableRecord
100
AcDbBlockTableRecord
  2
*Model_Space
340
17E
  0
BLOCK_RECORD
  5
177
330
15E
100
AcDbSymbolTableRecord
100
AcDbBlockTableRecord
  2
*Paper_Space
340
17A
  0
ENDTAB
  0
ENDSEC
  0
SECTION
  2
BLOCKS
  0
BLOCK
  5
17C
330
17B
100
AcDbEntity
  8
0
100
AcDbBlockBegin
  2
*Model_Space
 70
     0
 10
0.0
 20
0.0
 30
0.0
  3
*Model_Space
  1

  0
ENDBLK
  5
17D
330
17B
100
AcDbEntity
  8
0
100
AcDbBlockEnd
  0
BLOCK
  5
178
330
177
100
AcDbEntity
 67
     1
  8
0
100
AcDbBlockBegin
  2
*Paper_Space
 70
     0
 10
0.0
 20
0.0
 30
0.0
  3
*Paper_Space
  1

  0
ENDBLK
  5
179
330
177
100
AcDbEntity
 67
     1
  8
0
100
AcDbBlockEnd
  0
ENDSEC
  0
SECTION
  2
ENTITIES
  0
LINE
  5
18B
330
17B
100
AcDbEntity
  8
1
  6
Continuous
 62
     4
100
AcDbLine
 10
690.2249999999996
 20
648.36875
 30
0.0
 11
1285.174999999999
 21
648.36875
 31
0.0
  0
LINE
  5
18C
330
17B
100
AcDbEntity
  8
1
  6
Continuous
 62
     4
100
AcDbLine
 10
789.5437499999997
 20
348.3687499999998
 30
0.0
 11
789.5437499999997
 21
747.6874999999997
 31
0.0
  0
LINE
  5
304
330
17B
100
AcDbEntity
  8
1
  6
Continuous
 62
     4
100
AcDbLine
 10
679.5437499999994
 20
368.36875
 30
0.0
 11
899.5437499999995
 21
358.3687499999999
 31
0.0
  0
LINE
  5
305
330
17B
100
AcDbEntity
  8
1
  6
Continuous
 62
     4
100
AcDbLine
 10
679.5437499999994
 20
388.3687499999999
 30
0.0
 11
899.5437499999995
 21
378.3687499999999
 31
0.0
  0
LINE
  5
306
330
17B
100
AcDbEntity
  8
1
  6
Continuous
 62
     4
100
AcDbLine
 10
679.5437499999994
 20
408.3687499999999
 30
0.0
 11
899.5437499999995
 21
398.3687499999999
 31
0.0
  0
LINE
  5
307
330
17B
100
AcDbEntity
  8
1
  6
Continuous
 62
     4
100
AcDbLine
 10
679.5437499999994
 20
428.36875
 30
0.0
 11
899.5437499999995
 21
418.3687499999998
 31
0.0
  0
LINE
  5
308
330
17B
100
AcDbEntity
  8
1
  6
Continuous
 62
     4
100
AcDbLine
 10
679.5437499999994
 20
448.36875
 30
0.0
 11
899.5437499999995
 21
438.3687499999998
 31
0.0
  0
LINE
  5
309
330
17B
100
AcDbEntity
  8
1
  6
Continuous
 62
     4
100
AcDbLine
 10
679.5437499999994
 20
468.3687499999998
 30
0.0
 11
899.5437499999995
 21
458.3687499999999
 31
0.0
  0
LINE
  5
30A
330
17B
100
AcDbEntity
  8
1
  6
Continuous
 62
     4
100
AcDbLine
 10
679.5437499999994
 20
488.3687499999998
 30
0.0
 11
899.5437499999995
 21
478.36875
 31
0.0
  0
LINE
  5
30B
330
17B
100
AcDbEntity
  8
1
  6
Continuous
 62
     4
100
AcDbLine
 10
679.5437499999994
 20
508.3687499999999
 30
0.0
 11
899.5437499999995
 21
498.36875
 31
0.0
  0
LINE
  5
33E
330
17B
100
AcDbEntity
  8
1
  6
Continuous
 62
     4
100
AcDbLine
 10
1265.175
 20
538.3687499999998
 30
0.0
 11
1275.174999999999
 21
758.3687499999999
 31
0.0
  0
LINE
  5
33F
330
17B
100
AcDbEntity
  8
1
  6
Continuous
 62
     4
100
AcDbLine
 10
1245.174999999999
 20
538.3687499999998
 30
0.0
 11
1255.175
 21
758.3687499999999
 31
0.0
  0
LINE
  5
340
330
17B
100
AcDbEntity
  8
1
  6
Continuous
 62
     4
100
AcDbLine
 10
1225.175
 20
538.3687499999998
 30
0.0
 11
1235.174999999999
 21
758.3687499999999
 31
0.0
  0
LINE
  5
341
330
17B
100
AcDbEntity
  8
1
  6
Continuous
 62
     4
100
AcDbLine
 10
1205.175
 20
538.3687499999998
 30
0.0
 11
1215.175
 21
758.3687499999999
 31
0.0
  0
LINE
  5
342
330
17B
100
AcDbEntity
  8
1
  6
Continuous
 62
     4
100
AcDbLine
 10
1185.174999999999
 20
538.3687499999998
 30
0.0
 11
1195.174999999998
 21
758.3687499999999
 31
0.0
  0
LINE
  5
343
330
17B
100
AcDbEntity
  8
1
  6
Continuous
 62
     4
100
AcDbLine
 10
1165.175
 20
538.3687499999998
 30
0.0
 11
1175.175
 21
758.3687499999999
 31
0.0
  0
LINE
  5
344
330
17B
100
AcDbEntity
  8
1
  6
Continuous
 62
     4
100
AcDbLine
 10
1145.175
 20
538.3687499999998
 30
0.0
 11
1155.174999999998
 21
758.3687499999999
 31
0.0
  0
LINE
  5
345
330
17B
100
AcDbEntity
  8
1
  6
Continuous
 62
     4
100
AcDbLine
 10
1125.175
 20
538.3687499999998
 30
0.0
 11
1135.175
 21
758.3687499999999
 31
0.0
  0
LINE
  5
366
330
17B
100
AcDbEntity
  8
0
  6
Continuous
 62
     4
100
AcDbLine
 10
639.5437500000002
 20
518.1787834861771
 30
0.0
 11
649.7337165138227
 21
528.36875
 31
0.0
1001
ACAD
1010
0.0
1020
0.0
1030
0.0
  0
LINE
  5
367
330
17B
100
AcDbEntity
  8
0
  6
Continuous
 62
     4
100
AcDbLine
 10
639.5437500000002
 20
507.5721817683792
 30
0.0
 11
691.0739655513489
 21
559.1023973197279
 31
0.0
1001
ACAD
1010
0.0
1020
0.0
1030
0.0
  0
LINE
  5
368
330
17B
100
AcDbEntity
  8
0
  6
Continuous
 62
     4
100
AcDbLine
 10
639.5437500000002
 20
496.9655800505812
 30
0.0
 11
689.9151756164257
 21
547.3370056670062
 31
0.0
1001
ACAD
1010
0.0
1020
0.0
1030
0.0
  0
LINE
  5
369
330
17B
100
AcDbEntity
  8
0
  6
Continuous
 62
     4
100
AcDbLine
 10
639.5437499999998
 20
486.3589783327824
 30
0.0
 11
688.7563856815026
 21
535.5716140142849
 31
0.0
1001
ACAD
1010
0.0
1020
0.0
1030
0.0
  0
LINE
  5
36C
330
17B
100
AcDbEntity
  8
0
  6
Continuous
 62
     4
100
AcDbLine
 10
639.5437499999998
 20
475.7523766149843
 30
0.0
 11
687.5975957465794
 21
523.8062223615635
 31
0.0
1001
ACAD
1010
0.0
1020
0.0
1030
0.0
  0
LINE
  5
36D
330
17B
100
AcDbEntity
  8
0
  6
Continuous
 62
     4
100
AcDbLine
 10
639.5437499999998
 20
465.1457748971859
 30
0.0
 11
681.1552375514062
 21
506.7572624485926
 31
0.0
1001
ACAD
1010
0.0
1020
0.0
1030
0.0
  0
LINE
  5
36E
330
17B
100
AcDbEntity
  8
0
  6
Continuous
 62
     4
100
AcDbLine
 10
682.6265957505174
 20
508.2286206477034
 30
0.0
 11
689.5437499999997
 21
515.1457748971859
 31
0.0
1001
ACAD
1010
0.0
1020
0.0
1030
0.0
  0
LINE
  5
36F
330
17B
100
AcDbEntity
  8
0
  6
Continuous
 62
     4
100
AcDbLine
 10
639.5437499999998
 20
454.5391731793879
 30
0.0
 11
686.4585384103056
 21
501.4539615896934
 31
0.0
1001
ACAD
1010
0.0
1020
0.0
1030
0.0
  0
LINE
  5
370
330
17B
100
AcDbEntity
  8
0
  6
Continuous
 62
     4
100
AcDbLine
 10
639.5437499999998
 20
443.9325714615896
 30
0.0
 11
681.7618392692047
 21
486.1506607307942
 31
0.0
1001
ACAD
1010
0.0
1020
0.0
1030
0.0
  0
LINE
  5
371
330
17B
100
AcDbEntity
  8
0
  6
Continuous
 62
     4
100
AcDbLine
 10
639.5437499999998
 20
433.325969743791
 30
0.0
 11
687.0651401281043
 21
480.8473598718953
 31
0.0
1001
ACAD
1010
0.0
1020
0.0
1030
0.0
  0
LINE
  5
372
330
17B
100
AcDbEntity
  8
0
  6
Continuous
 62
     4
100
AcDbLine
 10
639.5437499999998
 20
422.7193680259932
 30
0.0
 11
682.3684409870033
 21
465.5440590129962
 31
0.0
1001
ACAD
1010
0.0
1020
0.0
1030
0.0
  0
LINE
  5
373
330
17B
100
AcDbEntity
  8
0
  6
Continuous
 62
     4
100
AcDbLine
 10
639.5437499999998
 20
518.1787834861768
 30
0.0
 11
649.7337165138226
 21
528.36875
 31
0.0
1001
ACAD
1010
0.0
1020
0.0
1030
0.0
  0
LINE
  5
374
330
17B
100
AcDbEntity
  8
0
  6
Continuous
 62
     4
100
AcDbLine
 10
660.4551845442247
 20
549.6968197482001
 30
0.0
 11
696.3465792766996
 21
585.5882144806753
 31
0.0
1001
ACAD
1010
0.0
1020
0.0
1030
0.0
  0
LINE
  5
375
330
17B
100
AcDbEntity
  8
0
  6
Continuous
 62
     4
100
AcDbLine
 10
661.7638460232992
 20
561.6120829450728
 30
0.0
 11
700.9650564729303
 21
600.8132933947043
 31
0.0
1001
ACAD
1010
0.0
1020
0.0
1030
0.0
  0
LINE
  5
376
330
17B
100
AcDbEntity
  8
0
  6
Continuous
 62
     4
100
AcDbLine
 10
663.788802144275
 20
574.2436407838469
 30
0.0
 11
706.688342334207
 21
617.1431809737794
 31
0.0
1001
ACAD
1010
0.0
1020
0.0
1030
0.0
  0
LINE
  5
377
330
17B
100
AcDbEntity
  8
0
  6
Continuous
 62
     4
100
AcDbLine
 10
659.7442520453983
 20
538.3792855315753
 30
0.0
 11
692.2327554862722
 21
570.8677889724499
 31
0.0
1001
ACAD
1010
0.0
1020
0.0
1030
0.0
  0
LINE
  5
378
330
17B
100
AcDbEntity
  8
0
  6
Continuous
 62
     4
100
AcDbLine
 10
666.7015769517047
 20
587.7630173090748
 30
0.0
 11
718.8676814561818
 21
639.9291218135528
 31
0.0
1001
ACAD
1010
0.0
1020
0.0
1030
0.0
  0
LINE
  5
379
330
17B
100
AcDbEntity
  8
0
  6
Continuous
 62
     4
100
AcDbLine
 10
670.7674613026823
 20
602.4355033778512
 30
0.0
 11
835.4769966221475
 21
767.1450386973169
 31
0.0
1001
ACAD
1010
0.0
1020
0.0
1030
0.0
  0
LINE
  5
37A
330
17B
100
AcDbEntity
  8
0
  6
Continuous
 62
     4
100
AcDbLine
 10
676.4390851326139
 20
618.7137289255806
 30
0.0
 11
819.1987710744179
 21
761.4734148673855
 31
0.0
1001
ACAD
1010
0.0
1020
0.0
1030
0.0
  0
LINE
  5
37B
330
17B
100
AcDbEntity
  8
0
  6
Continuous
 62
     4
100
AcDbLine
 10
684.6225688626932
 20
637.5038143734582
 30
0.0
 11
800.4086856265399
 21
753.2899311373057
 31
0.0
1001
ACAD
1010
0.0
1020
0.0
1030
0.0
  0
LINE
  5
37C
330
17B
100
AcDbEntity
  8
0
  6
Continuous
 62
     4
100
AcDbLine
 10
697.8184127051123
 20
661.3062599336757
 30
0.0
 11
776.6062400663229
 21
740.0940872948868
 31
0.0
1001
ACAD
1010
0.0
1020
0.0
1030
0.0
  0
LINE
  5
37E
330
17B
100
AcDbEntity
  8
0
  6
Continuous
 62
     4
100
AcDbLine
 10
639.5437499999998
 20
412.112766308195
 30
0.0
 11
687.6717418459023
 21
460.2407581540971
 31
0.0
1001
ACAD
1010
0.0
1020
0.0
1030
0.0
  0
LINE
  5
37F
330
17B
100
AcDbEntity
  8
0
  6
Continuous
 62
     4
100
AcDbLine
 10
639.5437499999998
 20
401.5061645903966
 30
0.0
 11
682.9750427048016
 21
444.9374572951979
 31
0.0
1001
ACAD
1010
0.0
1020
0.0
1030
0.0
  0
LINE
  5
380
330
17B
100
AcDbEntity
  8
0
  6
Continuous
 62
     4
100
AcDbLine
 10
639.5437499999998
 20
390.8995628725987
 30
0.0
 11
688.2783435637007
 21
439.6341564362991
 31
0.0
1001
ACAD
1010
0.0
1020
0.0
1030
0.0
  0
LINE
  5
381
330
17B
100
AcDbEntity
  8
0
  6
Continuous
 62
     4
100
AcDbLine
 10
639.5437499999998
 20
380.2929611548004
 30
0.0
 11
683.5816444225997
 21
424.3308555773998
 31
0.0
1001
ACAD
1010
0.0
1020
0.0
1030
0.0
  0
LINE
  5
382
330
17B
100
AcDbEntity
  8
0
  6
Continuous
 62
     4
100
AcDbLine
 10
639.5437499999998
 20
369.6863594370022
 30
0.0
 11
688.8849452814985
 21
419.0275547185006
 31
0.0
1001
ACAD
1010
0.0
1020
0.0
1030
0.0
  0
LINE
  5
383
330
17B
100
AcDbEntity
  8
0
  6
Continuous
 62
     4
100
AcDbLine
 10
644.1882461403977
 20
363.7242538596021
 30
0.0
 11
684.1882461403977
 21
403.7242538596018
 31
0.0
1001
ACAD
1010
0.0
1020
0.0
1030
0.0
  0
LINE
  5
384
330
17B
100
AcDbEntity
  8
0
  6
Continuous
 62
     4
100
AcDbLine
 10
649.491546999297
 20
358.4209530007029
 30
0.0
 11
689.491546999297
 21
398.4209530007026
 31
0.0
1001
ACAD
1010
0.0
1020
0.0
1030
0.0
  0
LINE
  5
389
330
17B
100
AcDbEntity
  8
0
  6
Continuous
 62
     4
100
AcDbLine
 10
691.9806647382788
 20
581.2222999422547
 30
0.0
 11
696.3465792766996
 21
585.5882144806755
 31
0.0
1001
ACAD
1010
0.0
1020
0.0
1030
0.0
  0
LINE
  5
38A
330
17B
100
AcDbEntity
  8
0
  6
Continuous
 62
     4
100
AcDbLine
 10
852.0795453974114
 20
741.3211806013882
 30
0.0
 11
888.2156802517979
 21
777.4573154557747
 31
0.0
1001
ACAD
1010
0.0
1020
0.0
1030
0.0
  0
LINE
  5
38B
330
17B
100
AcDbEntity
  8
0
  6
Continuous
 62
     4
100
AcDbLine
 10
836.8544664833827
 20
736.7027034051574
 30
0.0
 11
876.3004170549256
 21
776.1486539767004
 31
0.0
1001
ACAD
1010
0.0
1020
0.0
1030
0.0
  0
LINE
  5
38C
330
17B
100
AcDbEntity
  8
0
  6
Continuous
 62
     4
100
AcDbLine
 10
820.5245789043081
 20
730.9794175438808
 30
0.0
 11
863.6688592161517
 21
774.1236978557248
 31
0.0
1001
ACAD
1010
0.0
1020
0.0
1030
0.0
  0
LINE
  5
38D
330
17B
100
AcDbEntity
  8
0
  6
Continuous
 62
     4
100
AcDbLine
 10
797.7386380645348
 20
718.800078421906
 30
0.0
 11
850.1494826909233
 21
771.2109230482947
 31
0.0
1001
ACAD
1010
0.0
1020
0.0
1030
0.0
  0
LINE
  5
38F
330
17B
100
AcDbEntity
  8
0
  6
Continuous
 62
     4
100
AcDbLine
 10
654.7948478581961
 20
353.1176521418037
 30
0.0
 11
684.7948478581961
 21
383.1176521418032
 31
0.0
1001
ACAD
1010
0.0
1020
0.0
1030
0.0
  0
LINE
  5
390
330
17B
100
AcDbEntity
  8
0
  6
Continuous
 62
     4
100
AcDbLine
 10
660.6525474341906
 20
348.3687499999998
 30
0.0
 11
680.6043388500957
 21
368.3205414159047
 31
0.0
1001
ACAD
1010
0.0
1020
0.0
1030
0.0
  0
LINE
  5
391
330
17B
100
AcDbEntity
  8
0
  6
Continuous
 62
     4
100
AcDbLine
 10
671.2591491519884
 20
348.3687499999998
 30
0.0
 11
685.4014495759941
 21
362.5110504240053
 31
0.0
1001
ACAD
1010
0.0
1020
0.0
1030
0.0
  0
LINE
  5
393
330
17B
100
AcDbEntity
  8
0
  6
Continuous
 62
     4
100
AcDbLine
 10
866.7999709056372
 20
745.4350043918156
 30
0.0
 11
899.5332144684233
 21
778.1682479546016
 31
0.0
1001
ACAD
1010
0.0
1020
0.0
1030
0.0
  0
LINE
  5
394
330
17B
100
AcDbEntity
  8
0
  6
Continuous
 62
     4
100
AcDbLine
 10
878.5653625583583
 20
746.5937943267389
 30
0.0
 11
934.3403182316192
 21
802.3687499999999
 31
0.0
1001
ACAD
1010
0.0
1020
0.0
1030
0.0
  0
LINE
  5
395
330
17B
100
AcDbEntity
  8
0
  6
Continuous
 62
     4
100
AcDbLine
 10
890.3307542110798
 20
747.7525842616622
 30
0.0
 11
944.9469199494174
 21
802.3687499999999
 31
0.0
1001
ACAD
1010
0.0
1020
0.0
1030
0.0
  0
LINE
  5
396
330
17B
100
AcDbEntity
  8
0
  6
Continuous
 62
     4
100
AcDbLine
 10
902.0961458638018
 20
748.9113741965856
 30
0.0
 11
955.5535216672156
 21
802.3687499999999
 31
0.0
1001
ACAD
1010
0.0
1020
0.0
1030
0.0
  0
LINE
  5
397
330
17B
100
AcDbEntity
  8
0
  6
Continuous
 62
     4
100
AcDbLine
 10
912.8034874300924
 20
749.0121140450784
 30
0.0
 11
959.54375
 21
795.7523766149858
 31
0.0
1001
ACAD
1010
0.0
1020
0.0
1030
0.0
  0
LINE
  5
398
330
17B
100
AcDbEntity
  8
0
  6
Continuous
 62
     4
100
AcDbLine
 10
909.54375
 20
788.1787834861784
 30
0.0
 11
923.7337165138212
 21
802.3687499999999
 31
0.0
1001
ACAD
1010
0.0
1020
0.0
1030
0.0
  0
LINE
  5
399
330
17B
100
AcDbEntity
  8
0
  6
Continuous
 62
     4
100
AcDbLine
 10
909.54375
 20
798.7853852039769
 30
0.0
 11
913.1271147960228
 21
802.3687499999999
 31
0.0
1001
ACAD
1010
0.0
1020
0.0
1030
0.0
  0
LINE
  5
3AF
330
17B
100
AcDbEntity
  8
0
  6
Continuous
 62
     4
100
AcDbLine
 10
922.7667251028121
 20
748.36875
 30
0.0
 11
959.54375
 21
785.1457748971875
 31
0.0
1001
ACAD
1010
0.0
1020
0.0
1030
0.0
  0
LINE
  5
3B0
330
17B
100
AcDbEntity
  8
0
  6
Continuous
 62
     4
100
AcDbLine
 10
933.3733268206101
 20
748.3687499999997
 30
0.0
 11
964.7420768206098
 21
779.7374999999997
 31
0.0
1001
ACAD
1010
0.0
1020
0.0
1030
0.0
  0
LINE
  5
3B1
330
17B
100
AcDbEntity
  8
0
  6
Continuous
 62
     4
100
AcDbLine
 10
943.9799285384083
 20
748.3687499999997
 30
0.0
 11
982.4462142692036
 21
786.8350357307957
 31
0.0
1001
ACAD
1010
0.0
1020
0.0
1030
0.0
  0
LINE
  5
3B2
330
17B
100
AcDbEntity
  8
0
  6
Continuous
 62
     4
100
AcDbLine
 10
954.586530256207
 20
748.36875
 30
0.0
 11
987.7495151281031
 21
781.5317348718965
 31
0.0
1001
ACAD
1010
0.0
1020
0.0
1030
0.0
  0
LINE
  5
3B3
330
17B
100
AcDbEntity
  8
0
  6
Continuous
 62
     4
100
AcDbLine
 10
965.1931319740052
 20
748.3687499999997
 30
0.0
 11
1003.052815987002
 21
786.2284340129974
 31
0.0
1001
ACAD
1010
0.0
1020
0.0
1030
0.0
  0
LINE
  5
3B4
330
17B
100
AcDbEntity
  8
0
  6
Continuous
 62
     4
100
AcDbLine
 10
975.7997336918027
 20
748.3687499999997
 30
0.0
 11
1008.356116845901
 21
780.9251331540982
 31
0.0
1001
ACAD
1010
0.0
1020
0.0
1030
0.0
  0
LINE
  5
3B5
330
17B
100
AcDbEntity
  8
0
  6
Continuous
 62
     4
100
AcDbLine
 10
986.4063354096016
 20
748.36875
 30
0.0
 11
1023.659417704799
 21
785.6218322951988
 31
0.0
1001
ACAD
1010
0.0
1020
0.0
1030
0.0
  0
LINE
  5
3B6
330
17B
100
AcDbEntity
  8
0
  6
Continuous
 62
     4
100
AcDbLine
 10
997.0129371273992
 20
748.36875
 30
0.0
 11
1028.962718563699
 21
780.3185314362996
 31
0.0
1001
ACAD
1010
0.0
1020
0.0
1030
0.0
  0
LINE
  5
3B8
330
17B
100
AcDbEntity
  8
0
  6
Continuous
 62
     4
100
AcDbLine
 10
1007.619538845197
 20
748.36875
 30
0.0
 11
1044.266019422599
 21
785.0152305774009
 31
0.0
1001
ACAD
1010
0.0
1020
0.0
1030
0.0
  0
LINE
  5
3B9
330
17B
100
AcDbEntity
  8
0
  6
Continuous
 62
     4
100
AcDbLine
 10
1018.226140562996
 20
748.36875
 30
0.0
 11
1059.569320281497
 21
789.7119297185022
 31
0.0
1001
ACAD
1010
0.0
1020
0.0
1030
0.0
  0
LINE
  5
3BC
330
17B
100
AcDbEntity
  8
0
  6
Continuous
 62
     4
100
AcDbLine
 10
1028.832742280794
 20
748.36875
 30
0.0
 11
1064.872621140397
 21
784.4086288596027
 31
0.0
1001
ACAD
1010
0.0
1020
0.0
1030
0.0
  0
LINE
  5
3BD
330
17B
100
AcDbEntity
  8
0
  6
Continuous
 62
     4
100
AcDbLine
 10
1039.439343998592
 20
748.36875
 30
0.0
 11
1080.175921999296
 21
789.1053280007041
 31
0.0
1001
ACAD
1010
0.0
1020
0.0
1030
0.0
  0
LINE
  5
3BE
330
17B
100
AcDbEntity
  8
0
  6
Continuous
 62
     4
100
AcDbLine
 10
1050.04594571639
 20
748.36875
 30
0.0
 11
1085.479222858195
 21
783.802027141805
 31
0.0
1001
ACAD
1010
0.0
1020
0.0
1030
0.0
  0
LINE
  5
3BF
330
17B
100
AcDbEntity
  8
0
  6
Continuous
 62
     4
100
AcDbLine
 10
1060.652547434188
 20
748.36875
 30
0.0
 11
1099.54375
 21
787.2599525658118
 31
0.0
1001
ACAD
1010
0.0
1020
0.0
1030
0.0
  0
LINE
  5
3C1
330
17B
100
AcDbEntity
  8
0
  6
Continuous
 62
     4
100
AcDbLine
 10
1074.63125
 20
751.7408508480133
 30
0.0
 11
1099.54375
 21
776.6533508480137
 31
0.0
1001
ACAD
1010
0.0
1020
0.0
1030
0.0
  0
LINE
  5
3C2
330
17B
100
AcDbEntity
  8
0
  6
Continuous
 62
     4
100
AcDbLine
 10
987.636083739631
 20
781.5721817683789
 30
0.0
 11
969.5437499999997
 21
799.6645155080102
 31
0.0
1001
ACAD
1010
0.0
1020
0.0
1030
0.0
  0
LINE
  5
3C3
330
17B
100
AcDbEntity
  8
0
  6
Continuous
 62
     4
100
AcDbLine
 10
994.810558612904
 20
785.0043086129041
 30
0.0
 11
977.4461172258083
 21
802.3687499999999
 31
0.0
1001
ACAD
1010
0.0
1020
0.0
1030
0.0
  0
LINE
  5
3C4
330
17B
100
AcDbEntity
  8
0
  6
Continuous
 62
     4
100
AcDbLine
 10
987.6360837396312
 20
781.5721817683784
 30
0.0
 11
969.5437499999997
 21
799.6645155080098
 31
0.0
1001
ACAD
1010
0.0
1020
0.0
1030
0.0
  0
LINE
  5
3C5
330
17B
100
AcDbEntity
  8
0
  6
Continuous
 62
     4
100
AcDbLine
 10
1010.113859471802
 20
780.3076094718028
 30
0.0
 11
988.0527189436064
 21
802.3687499999999
 31
0.0
1001
ACAD
1010
0.0
1020
0.0
1030
0.0
  0
LINE
  5
3C6
330
17B
100
AcDbEntity
  8
0
  6
Continuous
 62
     4
100
AcDbLine
 10
974.2039568951055
 20
784.3977068951057
 30
0.0
 11
969.5437499999997
 21
789.0579137902118
 31
0.0
1001
ACAD
1010
0.0
1020
0.0
1030
0.0
  0
LINE
  5
3C7
330
17B
100
AcDbEntity
  8
0
  6
Continuous
 62
     4
100
AcDbLine
 10
1015.417160330702
 20
785.610910330702
 30
0.0
 11
998.6593206614047
 21
802.3687499999999
 31
0.0
1001
ACAD
1010
0.0
1020
0.0
1030
0.0
  0
LINE
  5
3C8
330
17B
100
AcDbEntity
  8
0
  6
Continuous
 62
     4
100
AcDbLine
 10
1030.720461189601
 20
780.9142111896016
 30
0.0
 11
1009.265922379202
 21
802.3687499999999
 31
0.0
1001
ACAD
1010
0.0
1020
0.0
1030
0.0
  0
LINE
  5
3C9
330
17B
100
AcDbEntity
  8
0
  6
Continuous
 62
     4
100
AcDbLine
 10
1036.0237620485
 20
786.2175120485008
 30
0.0
 11
1019.872524097001
 21
802.3687499999999
 31
0.0
1001
ACAD
1010
0.0
1020
0.0
1030
0.0
  0
LINE
  5
3CA
330
17B
100
AcDbEntity
  8
0
  6
Continuous
 62
     4
100
AcDbLine
 10
1051.327062907399
 20
781.5208129073994
 30
0.0
 11
1030.479125814799
 21
802.3687499999999
 31
0.0
1001
ACAD
1010
0.0
1020
0.0
1030
0.0
  0
LINE
  5
3CB
330
17B
100
AcDbEntity
  8
0
  6
Continuous
 62
     4
100
AcDbLine
 10
1056.630363766299
 20
786.8241137662986
 30
0.0
 11
1041.085727532597
 21
802.3687499999999
 31
0.0
1001
ACAD
1010
0.0
1020
0.0
1030
0.0
  0
LINE
  5
3CC
330
17B
100
AcDbEntity
  8
0
  6
Continuous
 62
     4
100
AcDbLine
 10
1071.933664625198
 20
782.1274146251977
 30
0.0
 11
1051.692329250395
 21
802.3687499999999
 31
0.0
1001
ACAD
1010
0.0
1020
0.0
1030
0.0
  0
LINE
  5
3CD
330
17B
100
AcDbEntity
  8
0
  6
Continuous
 62
     4
100
AcDbLine
 10
1077.236965484097
 20
787.4307154840967
 30
0.0
 11
1062.298930968194
 21
802.3687499999999
 31
0.0
1001
ACAD
1010
0.0
1020
0.0
1030
0.0
  0
LINE
  5
3CE
330
17B
100
AcDbEntity
  8
0
  6
Continuous
 62
     4
100
AcDbLine
 10
1092.540266342996
 20
782.7340163429957
 30
0.0
 11
1072.905532685992
 21
802.3687499999999
 31
0.0
1001
ACAD
1010
0.0
1020
0.0
1030
0.0
  0
LINE
  5
3CF
330
17B
100
AcDbEntity
  8
0
  6
Continuous
 62
     4
100
AcDbLine
 10
1097.843567201895
 20
788.0373172018951
 30
0.0
 11
1083.51213440379
 21
802.3687499999999
 31
0.0
1001
ACAD
1010
0.0
1020
0.0
1030
0.0
  0
LINE
  5
3D0
330
17B
100
AcDbEntity
  8
0
  6
Continuous
 62
     4
100
AcDbLine
 10
1109.487486121588
 20
787.0
 30
0.0
 11
1094.118736121588
 21
802.3687499999999
 31
0.0
1001
ACAD
1010
0.0
1020
0.0
1030
0.0
  0
LINE
  5
3D1
330
17B
100
AcDbEntity
  8
0
  6
Continuous
 62
     4
100
AcDbLine
 10
1120.094087839387
 20
787.0
 30
0.0
 11
1104.725337839385
 21
802.3687499999999
 31
0.0
1001
ACAD
1010
0.0
1020
0.0
1030
0.0
  0
LINE
  5
3D2
330
17B
100
AcDbEntity
  8
0
  6
Continuous
 62
     4
100
AcDbLine
 10
1141.331939557185
 20
776.3687499999997
 30
0.0
 11
1115.331939557185
 21
802.3687499999999
 31
0.0
1001
ACAD
1010
0.0
1020
0.0
1030
0.0
  0
LINE
  5
3D3
330
17B
100
AcDbEntity
  8
0
  6
Continuous
 62
     4
100
AcDbLine
 10
1145.0
 20
783.3072912749827
 30
0.0
 11
1125.938541274982
 21
802.3687499999999
 31
0.0
1001
ACAD
1010
0.0
1020
0.0
1030
0.0
  0
LINE
  5
3D4
330
17B
100
AcDbEntity
  8
0
  6
Continuous
 62
     4
100
AcDbLine
 10
1145.0
 20
793.913892992781
 30
0.0
 11
1136.545142992781
 21
802.3687499999999
 31
0.0
1001
ACAD
1010
0.0
1020
0.0
1030
0.0
  0
LINE
  5
3D5
330
17B
100
AcDbEntity
  8
0
  6
Continuous
 62
     4
100
AcDbLine
 10
989.4707655080097
 20
494.3687499999998
 30
0.0
 11
969.5437499999997
 21
514.2957655080103
 31
0.0
1001
ACAD
1010
0.0
1020
0.0
1030
0.0
  0
LINE
  5
3D6
330
17B
100
AcDbEntity
  8
0
  6
Continuous
 62
     4
100
AcDbLine
 10
1000.077367225808
 20
494.3687499999998
 30
0.0
 11
983.494933612904
 21
510.9511836129042
 31
0.0
1001
ACAD
1010
0.0
1020
0.0
1030
0.0
  0
LINE
  5
3D7
330
17B
100
AcDbEntity
  8
0
  6
Continuous
 62
     4
100
AcDbLine
 10
989.4707655080097
 20
494.3687499999998
 30
0.0
 11
969.5437499999997
 21
514.2957655080098
 31
0.0
1001
ACAD
1010
0.0
1020
0.0
1030
0.0
  0
LINE
  5
3D8
330
17B
100
AcDbEntity
  8
0
  6
Continuous
 62
     4
100
AcDbLine
 10
978.8641637902122
 20
494.36875
 30
0.0
 11
969.5437499999997
 21
503.689163790212
 31
0.0
1001
ACAD
1010
0.0
1020
0.0
1030
0.0
  0
LINE
  5
3D9
330
17B
100
AcDbEntity
  8
0
  6
Continuous
 62
     4
100
AcDbLine
 10
1010.683968943606
 20
494.36875
 30
0.0
 11
988.7982344718034
 21
516.2544844718031
 31
0.0
1001
ACAD
1010
0.0
1020
0.0
1030
0.0
  0
LINE
  5
3DA
330
17B
100
AcDbEntity
  8
0
  6
Continuous
 62
     4
100
AcDbLine
 10
1021.290570661403
 20
494.36875
 30
0.0
 11
1004.101535330702
 21
511.5577853307025
 31
0.0
1001
ACAD
1010
0.0
1020
0.0
1030
0.0
  0
LINE
  5
3DB
330
17B
100
AcDbEntity
  8
0
  6
Continuous
 62
     4
100
AcDbLine
 10
1031.897172379203
 20
494.36875
 30
0.0
 11
1009.404836189601
 21
516.8610861896016
 31
0.0
1001
ACAD
1010
0.0
1020
0.0
1030
0.0
  0
LINE
  5
3DC
330
17B
100
AcDbEntity
  8
0
  6
Continuous
 62
     4
100
AcDbLine
 10
1042.503774097001
 20
494.36875
 30
0.0
 11
1024.7081370485
 21
512.164387048501
 31
0.0
1001
ACAD
1010
0.0
1020
0.0
1030
0.0
  0
LINE
  5
3DD
330
17B
100
AcDbEntity
  8
0
  6
Continuous
 62
     4
100
AcDbLine
 10
1053.110375814799
 20
494.36875
 30
0.0
 11
1040.011437907399
 21
507.4676879074002
 31
0.0
1001
ACAD
1010
0.0
1020
0.0
1030
0.0
  0
LINE
  5
3DE
330
17B
100
AcDbEntity
  8
0
  6
Continuous
 62
     4
100
AcDbLine
 10
1063.716977532596
 20
494.36875
 30
0.0
 11
1045.314738766298
 21
512.7709887662986
 31
0.0
1001
ACAD
1010
0.0
1020
0.0
1030
0.0
  0
LINE
  5
3DF
330
17B
100
AcDbEntity
  8
0
  6
Continuous
 62
     4
100
AcDbLine
 10
1074.323579250394
 20
494.3687499999998
 30
0.0
 11
1060.618039625197
 21
508.0742896251972
 31
0.0
1001
ACAD
1010
0.0
1020
0.0
1030
0.0
  0
LINE
  5
3E0
330
17B
100
AcDbEntity
  8
0
  6
Continuous
 62
     4
100
AcDbLine
 10
1084.930180968192
 20
494.36875
 30
0.0
 11
1065.921340484097
 21
513.3775904840963
 31
0.0
1001
ACAD
1010
0.0
1020
0.0
1030
0.0
  0
LINE
  5
3E1
330
17B
100
AcDbEntity
  8
0
  6
Continuous
 62
     4
100
AcDbLine
 10
1095.536782685989
 20
494.36875
 30
0.0
 11
1081.224641342996
 21
508.6808913429955
 31
0.0
1001
ACAD
1010
0.0
1020
0.0
1030
0.0
  0
LINE
  5
3E2
330
17B
100
AcDbEntity
  8
0
  6
Continuous
 62
     4
100
AcDbLine
 10
1106.143384403789
 20
494.36875
 30
0.0
 11
1086.527942201895
 21
513.9841922018948
 31
0.0
1001
ACAD
1010
0.0
1020
0.0
1030
0.0
  0
LINE
  5
3E3
330
17B
100
AcDbEntity
  8
0
  6
Continuous
 62
     4
100
AcDbLine
 10
1116.749986121587
 20
494.36875
 30
0.0
 11
1101.381236121587
 21
509.7375
 31
0.0
1001
ACAD
1010
0.0
1020
0.0
1030
0.0
  0
LINE
  5
3E4
330
17B
100
AcDbEntity
  8
0
  6
Continuous
 62
     4
100
AcDbLine
 10
1127.356587839385
 20
494.3687499999998
 30
0.0
 11
1111.987837839385
 21
509.7375
 31
0.0
1001
ACAD
1010
0.0
1020
0.0
1030
0.0
  0
LINE
  5
3E5
330
17B
100
AcDbEntity
  8
0
  6
Continuous
 62
     4
100
AcDbLine
 10
1137.963189557183
 20
494.36875
 30
0.0
 11
1122.594439557182
 21
509.7375
 31
0.0
1001
ACAD
1010
0.0
1020
0.0
1030
0.0
  0
LINE
  5
3E6
330
17B
100
AcDbEntity
  8
0
  6
Continuous
 62
     4
100
AcDbLine
 10
1145.0
 20
497.9385412749813
 30
0.0
 11
1127.0
 21
515.9385412749818
 31
0.0
1001
ACAD
1010
0.0
1020
0.0
1030
0.0
  0
LINE
  5
3E7
330
17B
100
AcDbEntity
  8
0
  6
Continuous
 62
     4
100
AcDbLine
 10
1096.305850349561
 20
525.4194874898253
 30
0.0
 11
1096.30430891638
 21
525.4210289230061
 31
0.0
1001
ACAD
1010
0.0
1020
0.0
1030
0.0
  0
LINE
  5
3E8
330
17B
100
AcDbEntity
  8
0
  6
Continuous
 62
     4
100
AcDbLine
 10
1091.001778774071
 20
520.1169573475166
 30
0.0
 11
1091.001008057481
 21
520.1177280641071
 31
0.0
1001
ACAD
1010
0.0
1020
0.0
1030
0.0
  0
LINE
  5
3E9
330
17B
100
AcDbEntity
  8
0
  6
Continuous
 62
     4
100
AcDbLine
 10
1145.0
 20
508.5451429927799
 30
0.0
 11
1133.17639299278
 21
520.36875
 31
0.0
1001
ACAD
1010
0.0
1020
0.0
1030
0.0
  0
LINE
  5
3EA
330
17B
100
AcDbEntity
  8
0
  6
Continuous
 62
     4
100
AcDbLine
 10
1145.0
 20
519.1517447105787
 30
0.0
 11
1143.782994710578
 21
520.36875
 31
0.0
1001
ACAD
1010
0.0
1020
0.0
1030
0.0
  0
LINE
  5
3EB
330
17B
100
AcDbEntity
  8
0
  6
Continuous
 62
     4
100
AcDbLine
 10
1105.175
 20
774.8100334861771
 30
0.0
 11
1115.364966513823
 21
785.0
 31
0.0
1001
ACAD
1010
0.0
1020
0.0
1030
0.0
  0
LINE
  5
3EC
330
17B
100
AcDbEntity
  8
0
  6
Continuous
 62
     4
100
AcDbLine
 10
1089.340318231621
 20
748.36875
 30
0.0
 11
1125.971568231621
 21
785.0
 31
0.0
1001
ACAD
1010
0.0
1020
0.0
1030
0.0
  0
LINE
  5
3ED
330
17B
100
AcDbEntity
  8
0
  6
Continuous
 62
     4
100
AcDbLine
 10
1078.733716513822
 20
748.3687499999997
 30
0.0
 11
1094.059197355282
 21
763.6942308414598
 31
0.0
1001
ACAD
1010
0.0
1020
0.0
1030
0.0
  0
LINE
  5
3EE
330
17B
100
AcDbEntity
  8
0
  6
Continuous
 62
     4
100
AcDbLine
 10
1099.946919949418
 20
748.36875
 30
0.0
 11
1127.0
 21
775.4218300505806
 31
0.0
1001
ACAD
1010
0.0
1020
0.0
1030
0.0
  0
LINE
  5
3EF
330
17B
100
AcDbEntity
  8
0
  6
Continuous
 62
     4
100
AcDbLine
 10
1110.553521667218
 20
748.3687500000002
 30
0.0
 11
1136.553521667217
 21
774.36875
 31
0.0
1001
ACAD
1010
0.0
1020
0.0
1030
0.0
  0
LINE
  5
3F0
330
17B
100
AcDbEntity
  8
0
  6
Continuous
 62
     4
100
AcDbLine
 10
1121.160123385014
 20
748.3687500000002
 30
0.0
 11
1145.0
 21
772.2086266149842
 31
0.0
1001
ACAD
1010
0.0
1020
0.0
1030
0.0
  0
LINE
  5
3F1
330
17B
100
AcDbEntity
  8
0
  6
Continuous
 62
     4
100
AcDbLine
 10
1138.470862551407
 20
755.0728874485931
 30
0.0
 11
1150.397975102813
 21
767.0000000000001
 31
0.0
1001
ACAD
1010
0.0
1020
0.0
1030
0.0
  0
LINE
  5
3F2
330
17B
100
AcDbEntity
  8
0
  6
Continuous
 62
     4
100
AcDbLine
 10
1143.774163410306
 20
749.7695865896941
 30
0.0
 11
1161.004576820612
 21
767.0000000000001
 31
0.0
1001
ACAD
1010
0.0
1020
0.0
1030
0.0
  0
LINE
  5
3F3
330
17B
100
AcDbEntity
  8
0
  6
Continuous
 62
     4
100
AcDbLine
 10
1159.077464269205
 20
754.4662857307947
 30
0.0
 11
1171.61117853841
 21
767.0000000000001
 31
0.0
1001
ACAD
1010
0.0
1020
0.0
1030
0.0
  0
LINE
  5
3F4
330
17B
100
AcDbEntity
  8
0
  6
Continuous
 62
     4
100
AcDbLine
 10
1164.380765128104
 20
749.1629848718957
 30
0.0
 11
1182.217780256208
 21
767.0000000000001
 31
0.0
1001
ACAD
1010
0.0
1020
0.0
1030
0.0
  0
LINE
  5
3F5
330
17B
100
AcDbEntity
  8
0
  6
Continuous
 62
     4
100
AcDbLine
 10
1179.684065987003
 20
753.8596840129968
 30
0.0
 11
1192.824381974006
 21
767.0
 31
0.0
1001
ACAD
1010
0.0
1020
0.0
1030
0.0
  0
LINE
  5
3F6
330
17B
100
AcDbEntity
  8
0
  6
Continuous
 62
     4
100
AcDbLine
 10
1184.987366845902
 20
748.556383154097
 30
0.0
 11
1203.430983691804
 21
767.0
 31
0.0
1001
ACAD
1010
0.0
1020
0.0
1030
0.0
  0
LINE
  5
3F7
330
17B
100
AcDbEntity
  8
0
  6
Continuous
 62
     4
100
AcDbLine
 10
1200.290667704801
 20
753.2530822951988
 30
0.0
 11
1214.037585409602
 21
767.0000000000001
 31
0.0
1001
ACAD
1010
0.0
1020
0.0
1030
0.0
  0
LINE
  5
3F8
330
17B
100
AcDbEntity
  8
0
  6
Continuous
 62
     4
100
AcDbLine
 10
1215.135098232028
 20
757.4909111046281
 30
0.0
 11
1224.6441871274
 21
767.0
 31
0.0
1001
ACAD
1010
0.0
1020
0.0
1030
0.0
  0
LINE
  5
3F9
330
17B
100
AcDbEntity
  8
0
  6
Continuous
 62
     4
100
AcDbLine
 10
1220.897269422599
 20
752.6464805774005
 30
0.0
 11
1235.250788845198
 21
767.0
 31
0.0
1001
ACAD
1010
0.0
1020
0.0
1030
0.0
  0
LINE
  5
3FA
330
17B
100
AcDbEntity
  8
0
  6
Continuous
 62
     4
100
AcDbLine
 10
1236.200570281497
 20
757.3431797185015
 30
0.0
 11
1245.857390562996
 21
767.0000000000001
 31
0.0
1001
ACAD
1010
0.0
1020
0.0
1030
0.0
  0
LINE
  5
3FB
330
17B
100
AcDbEntity
  8
0
  6
Continuous
 62
     4
100
AcDbLine
 10
1241.503871140397
 20
752.0398788596025
 30
0.0
 11
1256.463992280794
 21
767.0
 31
0.0
1001
ACAD
1010
0.0
1020
0.0
1030
0.0
  0
LINE
  5
3FC
330
17B
100
AcDbEntity
  8
0
  6
Continuous
 62
     4
100
AcDbLine
 10
1256.807171999296
 20
756.7365780007037
 30
0.0
 11
1267.070593998592
 21
767.0
 31
0.0
1001
ACAD
1010
0.0
1020
0.0
1030
0.0
  0
LINE
  5
3FD
330
17B
100
AcDbEntity
  8
0
  6
Continuous
 62
     4
100
AcDbLine
 10
1262.110472858195
 20
751.4332771418049
 30
0.0
 11
1277.110472858195
 21
766.4332771418048
 31
0.0
1001
ACAD
1010
0.0
1020
0.0
1030
0.0
  0
LINE
  5
3FE
330
17B
100
AcDbEntity
  8
0
  6
Continuous
 62
     4
100
AcDbLine
 10
1277.413773717094
 20
756.1299762829053
 30
0.0
 11
1282.413773717094
 21
761.1299762829053
 31
0.0
1001
ACAD
1010
0.0
1020
0.0
1030
0.0
  0
LINE
  5
3FF
330
17B
100
AcDbEntity
  8
0
  6
Continuous
 62
     4
100
AcDbLine
 10
1282.717074575993
 20
750.826675424006
 30
0.0
 11
1285.174999999999
 21
753.2846008480121
 31
0.0
1001
ACAD
1010
0.0
1020
0.0
1030
0.0
  0
LINE
  5
400
330
17B
100
AcDbEntity
  8
0
  6
Continuous
 62
     4
100
AcDbLine
 10
1105.175
 20
774.8100334861772
 30
0.0
 11
1115.364966513823
 21
784.9999999999996
 31
0.0
1001
ACAD
1010
0.0
1020
0.0
1030
0.0
  0
LINE
  5
42C
330
17B
100
AcDbEntity
  8
0
  6
Continuous
 62
     4
100
AcDbLine
 10
1078.732918360508
 20
542.280451846685
 30
0.0
 11
1084.821216513823
 21
548.36875
 31
0.0
1001
ACAD
1010
0.0
1020
0.0
1030
0.0
  0
LINE
  5
42D
330
17B
100
AcDbEntity
  8
0
  6
Continuous
 62
     4
100
AcDbLine
 10
1085.350867378112
 20
538.2917991464908
 30
0.0
 11
1095.427818231621
 21
548.36875
 31
0.0
1001
ACAD
1010
0.0
1020
0.0
1030
0.0
  0
LINE
  5
42E
330
17B
100
AcDbEntity
  8
0
  6
Continuous
 62
     4
100
AcDbLine
 10
1078.732918360508
 20
542.280451846685
 30
0.0
 11
1084.821216513822
 21
548.3687499999998
 31
0.0
1001
ACAD
1010
0.0
1020
0.0
1030
0.0
  0
LINE
  5
42F
330
17B
100
AcDbEntity
  8
0
  6
Continuous
 62
     4
100
AcDbLine
 10
1091.968816395715
 20
534.3031464462963
 30
0.0
 11
1106.034419949419
 21
548.36875
 31
0.0
1001
ACAD
1010
0.0
1020
0.0
1030
0.0
  0
LINE
  5
430
330
17B
100
AcDbEntity
  8
0
  6
Continuous
 62
     4
100
AcDbLine
 10
1098.58676541332
 20
530.3144937461022
 30
0.0
 11
1116.641021667217
 21
548.3687500000002
 31
0.0
1001
ACAD
1010
0.0
1020
0.0
1030
0.0
  0
LINE
  5
431
330
17B
100
AcDbEntity
  8
0
  6
Continuous
 62
     4
100
AcDbLine
 10
1105.175
 20
526.2961266149842
 30
0.0
 11
1125.175
 21
546.2961266149842
 31
0.0
1001
ACAD
1010
0.0
1020
0.0
1030
0.0
  0
LINE
  5
432
330
17B
100
AcDbEntity
  8
0
  6
Continuous
 62
     4
100
AcDbLine
 10
1105.175
 20
515.6895248971859
 30
0.0
 11
1136.514612551406
 21
547.029137448593
 31
0.0
1001
ACAD
1010
0.0
1020
0.0
1030
0.0
  0
LINE
  5
433
330
17B
100
AcDbEntity
  8
0
  6
Continuous
 62
     4
100
AcDbLine
 10
1111.867371672606
 20
511.7752948519953
 30
0.0
 11
1141.817913410305
 21
541.725836589694
 31
0.0
1001
ACAD
1010
0.0
1020
0.0
1030
0.0
  0
LINE
  5
434
330
17B
100
AcDbEntity
  8
0
  6
Continuous
 62
     4
100
AcDbLine
 10
1122.43617853841
 20
511.7375
 30
0.0
 11
1127.0
 21
516.3013214615896
 31
0.0
1001
ACAD
1010
0.0
1020
0.0
1030
0.0
  0
LINE
  5
435
330
17B
100
AcDbEntity
  8
0
  6
Continuous
 62
     4
100
AcDbLine
 10
1133.06742853841
 20
522.3687499999998
 30
0.0
 11
1157.121214269205
 21
546.4225357307948
 31
0.0
1001
ACAD
1010
0.0
1020
0.0
1030
0.0
  0
LINE
  5
436
330
17B
100
AcDbEntity
  8
0
  6
Continuous
 62
     4
100
AcDbLine
 10
1143.674030256208
 20
522.3687499999998
 30
0.0
 11
1145.0
 21
523.6947197437916
 31
0.0
1001
ACAD
1010
0.0
1020
0.0
1030
0.0
  0
LINE
  5
437
330
17B
100
AcDbEntity
  8
0
  6
Continuous
 62
     4
100
AcDbLine
 10
1161.649381974007
 20
529.7374999999998
 30
0.0
 11
1177.727815987003
 21
545.8159340129964
 31
0.0
1001
ACAD
1010
0.0
1020
0.0
1030
0.0
  0
LINE
  5
438
330
17B
100
AcDbEntity
  8
0
  6
Continuous
 62
     4
100
AcDbLine
 10
1172.255983691804
 20
529.7374999999998
 30
0.0
 11
1183.031116845902
 21
540.5126331540972
 31
0.0
1001
ACAD
1010
0.0
1020
0.0
1030
0.0
  0
LINE
  5
439
330
17B
100
AcDbEntity
  8
0
  6
Continuous
 62
     4
100
AcDbLine
 10
1182.862585409603
 20
529.7374999999998
 30
0.0
 11
1198.334417704801
 21
545.2093322951982
 31
0.0
1001
ACAD
1010
0.0
1020
0.0
1030
0.0
  0
LINE
  5
43A
330
17B
100
AcDbEntity
  8
0
  6
Continuous
 62
     4
100
AcDbLine
 10
1193.469187127401
 20
529.7374999999998
 30
0.0
 11
1203.637718563701
 21
539.9060314362992
 31
0.0
1001
ACAD
1010
0.0
1020
0.0
1030
0.0
  0
LINE
  5
43B
330
17B
100
AcDbEntity
  8
0
  6
Continuous
 62
     4
100
AcDbLine
 10
1204.075788845199
 20
529.7374999999998
 30
0.0
 11
1218.941019422599
 21
544.6027305774001
 31
0.0
1001
ACAD
1010
0.0
1020
0.0
1030
0.0
  0
LINE
  5
43C
330
17B
100
AcDbEntity
  8
0
  6
Continuous
 62
     4
100
AcDbLine
 10
1151.042780256208
 20
529.7374999999998
 30
0.0
 11
1162.424515128104
 21
541.1192348718956
 31
0.0
1001
ACAD
1010
0.0
1020
0.0
1030
0.0
  0
LINE
  5
43D
330
17B
100
AcDbEntity
  8
0
  6
Continuous
 62
     4
100
AcDbLine
 10
1214.682390562997
 20
529.7374999999998
 30
0.0
 11
1224.244320281498
 21
539.2994297185009
 31
0.0
1001
ACAD
1010
0.0
1020
0.0
1030
0.0
  0
LINE
  5
43E
330
17B
100
AcDbEntity
  8
0
  6
Continuous
 62
     4
100
AcDbLine
 10
1225.288992280795
 20
529.7374999999998
 30
0.0
 11
1239.547621140397
 21
543.9961288596018
 31
0.0
1001
ACAD
1010
0.0
1020
0.0
1030
0.0
  0
LINE
  5
43F
330
17B
100
AcDbEntity
  8
0
  6
Continuous
 62
     4
100
AcDbLine
 10
1235.895593998593
 20
529.7374999999998
 30
0.0
 11
1245.205864571495
 21
539.0477705729018
 31
0.0
1001
ACAD
1010
0.0
1020
0.0
1030
0.0
  0
LINE
  5
440
330
17B
100
AcDbEntity
  8
0
  6
Continuous
 62
     4
100
AcDbLine
 10
1246.502195716392
 20
529.7374999999998
 30
0.0
 11
1260.154222858196
 21
543.3895271418041
 31
0.0
1001
ACAD
1010
0.0
1020
0.0
1030
0.0
  0
LINE
  5
441
330
17B
100
AcDbEntity
  8
0
  6
Continuous
 62
     4
100
AcDbLine
 10
1257.108797434189
 20
529.7374999999998
 30
0.0
 11
1275.457523717094
 21
548.0862262829042
 31
0.0
1001
ACAD
1010
0.0
1020
0.0
1030
0.0
  0
LINE
  5
442
330
17B
100
AcDbEntity
  8
0
  6
Continuous
 62
     4
100
AcDbLine
 10
1267.715399151988
 20
529.7374999999998
 30
0.0
 11
1280.760824575993
 21
542.7829254240053
 31
0.0
1001
ACAD
1010
0.0
1020
0.0
1030
0.0
  0
LINE
  5
445
330
17B
100
AcDbEntity
  8
0
  6
Continuous
 62
     4
100
AcDbLine
 10
889.5437499999998
 20
538.1787834861771
 30
0.0
 11
899.7337165138226
 21
548.36875
 31
0.0
1001
ACAD
1010
0.0
1020
0.0
1030
0.0
  0
LINE
  5
446
330
17B
100
AcDbEntity
  8
0
  6
Continuous
 62
     4
100
AcDbLine
 10
889.5437500000003
 20
527.5721817683793
 30
0.0
 11
910.3403182316206
 21
548.36875
 31
0.0
1001
ACAD
1010
0.0
1020
0.0
1030
0.0
  0
LINE
  5
447
330
17B
100
AcDbEntity
  8
0
  6
Continuous
 62
     4
100
AcDbLine
 10
889.5437499999998
 20
538.1787834861768
 30
0.0
 11
899.7337165138223
 21
548.36875
 31
0.0
1001
ACAD
1010
0.0
1020
0.0
1030
0.0
  0
LINE
  5
448
330
17B
100
AcDbEntity
  8
0
  6
Continuous
 62
     4
100
AcDbLine
 10
889.5437499999998
 20
516.9655800505807
 30
0.0
 11
920.9469199494188
 21
548.36875
 31
0.0
1001
ACAD
1010
0.0
1020
0.0
1030
0.0
  0
LINE
  5
449
330
17B
100
AcDbEntity
  8
0
  6
Continuous
 62
     4
100
AcDbLine
 10
890.5486358336084
 20
507.3638641663912
 30
0.0
 11
931.553521667217
 21
548.36875
 31
0.0
1001
ACAD
1010
0.0
1020
0.0
1030
0.0
  0
LINE
  5
44A
330
17B
100
AcDbEntity
  8
0
  6
Continuous
 62
     4
100
AcDbLine
 10
895.8519366925074
 20
502.060563307492
 30
0.0
 11
942.1601233850152
 21
548.36875
 31
0.0
1001
ACAD
1010
0.0
1020
0.0
1030
0.0
  0
LINE
  5
44B
330
17B
100
AcDbEntity
  8
0
  6
Continuous
 62
     4
100
AcDbLine
 10
891.1552375514066
 20
486.7572624485928
 30
0.0
 11
952.766725102813
 21
548.36875
 31
0.0
1001
ACAD
1010
0.0
1020
0.0
1030
0.0
  0
LINE
  5
44C
330
17B
100
AcDbEntity
  8
0
  6
Continuous
 62
     4
100
AcDbLine
 10
896.4585384103056
 20
481.4539615896939
 30
0.0
 11
963.3733268206112
 21
548.36875
 31
0.0
1001
ACAD
1010
0.0
1020
0.0
1030
0.0
  0
LINE
  5
44D
330
17B
100
AcDbEntity
  8
0
  6
Continuous
 62
     4
100
AcDbLine
 10
891.7618392692043
 20
466.1506607307946
 30
0.0
 11
973.9799285384094
 21
548.36875
 31
0.0
1001
ACAD
1010
0.0
1020
0.0
1030
0.0
  0
LINE
  5
44E
330
17B
100
AcDbEntity
  8
0
  6
Continuous
 62
     4
100
AcDbLine
 10
897.0651401281036
 20
460.8473598718955
 30
0.0
 11
984.5865302562074
 21
548.36875
 31
0.0
1001
ACAD
1010
0.0
1020
0.0
1030
0.0
  0
LINE
  5
44F
330
17B
100
AcDbEntity
  8
0
  6
Continuous
 62
     4
100
AcDbLine
 10
892.3684409870032
 20
445.5440590129962
 30
0.0
 11
959.54375
 21
512.7193680259938
 31
0.0
1001
ACAD
1010
0.0
1020
0.0
1030
0.0
  0
LINE
  5
450
330
17B
100
AcDbEntity
  8
0
  6
Continuous
 62
     4
100
AcDbLine
 10
897.6717418459022
 20
440.2407581540972
 30
0.0
 11
959.54375
 21
502.1127663081953
 31
0.0
1001
ACAD
1010
0.0
1020
0.0
1030
0.0
  0
LINE
  5
451
330
17B
100
AcDbEntity
  8
0
  6
Continuous
 62
     4
100
AcDbLine
 10
971.9873668459015
 20
514.5563831540979
 30
0.0
 11
1005.799733691804
 21
548.36875
 31
0.0
1001
ACAD
1010
0.0
1020
0.0
1030
0.0
  0
LINE
  5
452
330
17B
100
AcDbEntity
  8
0
  6
Continuous
 62
     4
100
AcDbLine
 10
963.8243819740061
 20
517.0
 30
0.0
 11
995.1931319740056
 21
548.36875
 31
0.0
1001
ACAD
1010
0.0
1020
0.0
1030
0.0
  0
LINE
  5
453
330
17B
100
AcDbEntity
  8
0
  6
Continuous
 62
     4
100
AcDbLine
 10
977.2906677048004
 20
509.2530822951985
 30
0.0
 11
1016.406335409602
 21
548.36875
 31
0.0
1001
ACAD
1010
0.0
1020
0.0
1030
0.0
  0
LINE
  5
454
330
17B
100
AcDbEntity
  8
0
  6
Continuous
 62
     4
100
AcDbLine
 10
992.5939685637004
 20
513.9497814362995
 30
0.0
 11
1027.0129371274
 21
548.36875
 31
0.0
1001
ACAD
1010
0.0
1020
0.0
1030
0.0
  0
LINE
  5
455
330
17B
100
AcDbEntity
  8
0
  6
Continuous
 62
     4
100
AcDbLine
 10
997.8972694225991
 20
508.6464805774006
 30
0.0
 11
1037.619538845198
 21
548.36875
 31
0.0
1001
ACAD
1010
0.0
1020
0.0
1030
0.0
  0
LINE
  5
456
330
17B
100
AcDbEntity
  8
0
  6
Continuous
 62
     4
100
AcDbLine
 10
1013.200570281497
 20
513.3431797185012
 30
0.0
 11
1048.226140562997
 21
548.36875
 31
0.0
1001
ACAD
1010
0.0
1020
0.0
1030
0.0
  0
LINE
  5
457
330
17B
100
AcDbEntity
  8
0
  6
Continuous
 62
     4
100
AcDbLine
 10
1018.503871140397
 20
508.0398788596022
 30
0.0
 11
1058.832742280795
 21
548.36875
 31
0.0
1001
ACAD
1010
0.0
1020
0.0
1030
0.0
  0
LINE
  5
458
330
17B
100
AcDbEntity
  8
0
  6
Continuous
 62
     4
100
AcDbLine
 10
1033.807171999296
 20
512.7365780007026
 30
0.0
 11
1069.135457193445
 21
548.0648631948513
 31
0.0
1001
ACAD
1010
0.0
1020
0.0
1030
0.0
  0
LINE
  5
459
330
17B
100
AcDbEntity
  8
0
  6
Continuous
 62
     4
100
AcDbLine
 10
1039.110472858195
 20
507.4332771418035
 30
0.0
 11
1075.753406211049
 21
544.0762104946571
 31
0.0
1001
ACAD
1010
0.0
1020
0.0
1030
0.0
  0
LINE
  5
45A
330
17B
100
AcDbEntity
  8
0
  6
Continuous
 62
     4
100
AcDbLine
 10
1054.413773717095
 20
512.1299762829051
 30
0.0
 11
1082.371355228652
 21
540.087557794463
 31
0.0
1001
ACAD
1010
0.0
1020
0.0
1030
0.0
  0
LINE
  5
45B
330
17B
100
AcDbEntity
  8
0
  6
Continuous
 62
     4
100
AcDbLine
 10
1069.717074575994
 20
516.8266754240057
 30
0.0
 11
1088.989304246257
 21
536.0989050942687
 31
0.0
1001
ACAD
1010
0.0
1020
0.0
1030
0.0
  0
LINE
  5
45C
330
17B
100
AcDbEntity
  8
0
  6
Continuous
 62
     4
100
AcDbLine
 10
1075.020375434893
 20
511.5233745651067
 30
0.0
 11
1095.607253263861
 21
532.1102523940744
 31
0.0
1001
ACAD
1010
0.0
1020
0.0
1030
0.0
  0
LINE
  5
45D
330
17B
100
AcDbEntity
  8
0
  6
Continuous
 62
     4
100
AcDbLine
 10
892.9750427048016
 20
424.9374572951979
 30
0.0
 11
939.5437499999998
 21
471.5061645903968
 31
0.0
1001
ACAD
1010
0.0
1020
0.0
1030
0.0
  0
LINE
  5
45E
330
17B
100
AcDbEntity
  8
0
  6
Continuous
 62
     4
100
AcDbLine
 10
898.2783435637005
 20
419.6341564362988
 30
0.0
 11
939.5437499999998
 21
460.8995628725987
 31
0.0
1001
ACAD
1010
0.0
1020
0.0
1030
0.0
  0
LINE
  5
45F
330
17B
100
AcDbEntity
  8
0
  6
Continuous
 62
     4
100
AcDbLine
 10
893.5816444225997
 20
404.3308555773995
 30
0.0
 11
939.5437499999998
 21
450.2929611548
 31
0.0
1001
ACAD
1010
0.0
1020
0.0
1030
0.0
  0
LINE
  5
460
330
17B
100
AcDbEntity
  8
0
  6
Continuous
 62
     4
100
AcDbLine
 10
898.8849452814989
 20
399.0275547185005
 30
0.0
 11
939.5437499999998
 21
439.6863594370016
 31
0.0
1001
ACAD
1010
0.0
1020
0.0
1030
0.0
  0
LINE
  5
461
330
17B
100
AcDbEntity
  8
0
  6
Continuous
 62
     4
100
AcDbLine
 10
894.1882461403979
 20
383.7242538596012
 30
0.0
 11
939.5437499999998
 21
429.0797577192033
 31
0.0
1001
ACAD
1010
0.0
1020
0.0
1030
0.0
  0
LINE
  5
462
330
17B
100
AcDbEntity
  8
0
  6
Continuous
 62
     4
100
AcDbLine
 10
899.4915469992971
 20
378.4209530007021
 30
0.0
 11
939.5437499999998
 21
418.473156001405
 31
0.0
1001
ACAD
1010
0.0
1020
0.0
1030
0.0
  0
LINE
  5
463
330
17B
100
AcDbEntity
  8
0
  6
Continuous
 62
     4
100
AcDbLine
 10
894.7948478581965
 20
363.117652141803
 30
0.0
 11
939.5437499999998
 21
407.866554283607
 31
0.0
1001
ACAD
1010
0.0
1020
0.0
1030
0.0
  0
LINE
  5
464
330
17B
100
AcDbEntity
  8
0
  6
Continuous
 62
     4
100
AcDbLine
 10
891.9553304796455
 20
349.6715330454537
 30
0.0
 11
939.5437499999998
 21
397.2599525658086
 31
0.0
1001
ACAD
1010
0.0
1020
0.0
1030
0.0
  0
LINE
  5
465
330
17B
100
AcDbEntity
  8
0
  6
Continuous
 62
     4
100
AcDbLine
 10
894.7948478581965
 20
363.117652141803
 30
0.0
 11
939.5437499999998
 21
407.866554283607
 31
0.0
1001
ACAD
1010
0.0
1020
0.0
1030
0.0
  0
LINE
  5
466
330
17B
100
AcDbEntity
  8
0
  6
Continuous
 62
     4
100
AcDbLine
 10
901.2591491519902
 20
348.3687499999998
 30
0.0
 11
939.5437499999998
 21
386.6533508480103
 31
0.0
1001
ACAD
1010
0.0
1020
0.0
1030
0.0
  0
LINE
  5
467
330
17B
100
AcDbEntity
  8
0
  6
Continuous
 62
     4
100
AcDbLine
 10
911.8657508697884
 20
348.3687499999998
 30
0.0
 11
939.5437499999998
 21
376.0467491302118
 31
0.0
1001
ACAD
1010
0.0
1020
0.0
1030
0.0
  0
LINE
  5
480
330
17B
100
AcDbEntity
  8
1
  6
Continuous
 62
     7
100
AcDbLine
 10
659.54375
 20
348.3687499999998
 30
0.0
 11
919.54375
 21
348.3687499999998
 31
0.0
  0
LINE
  5
481
330
17B
100
AcDbEntity
  8
1
  6
Continuous
 62
     7
100
AcDbLine
 10
689.54375
 20
508.3687499999999
 30
0.0
 11
689.54375
 21
518.3687499999998
 31
0.0
  0
LINE
  5
482
330
17B
100
AcDbEntity
  8
1
  6
Continuous
 62
     7
100
AcDbLine
 10
939.5437499999999
 20
368.36875
 30
0.0
 11
939.5437499999999
 21
478.36875
 31
0.0
  0
LINE
  5
483
330
17B
100
AcDbEntity
  8
1
  6
Continuous
 62
     7
100
AcDbLine
 10
639.54375
 20
368.36875
 30
0.0
 11
639.54375
 21
528.36875
 31
0.0
  0
LINE
  5
484
330
17B
100
AcDbEntity
  8
1
  6
Continuous
 62
     7
100
AcDbLine
 10
639.54375
 20
368.36875
 30
0.0
 11
659.54375
 21
348.3687499999998
 31
0.0
  0
LINE
  5
485
330
17B
100
AcDbEntity
  8
1
  6
Continuous
 62
     7
100
AcDbLine
 10
919.54375
 20
348.3687499999998
 30
0.0
 11
939.5437499999999
 21
368.36875
 31
0.0
  0
LINE
  5
486
330
17B
100
AcDbEntity
  8
1
  6
Continuous
 62
     7
100
AcDbLine
 10
939.5437499999999
 20
478.36875
 30
0.0
 11
959.54375
 21
498.36875
 31
0.0
  0
LINE
  5
487
330
17B
100
AcDbEntity
  8
1
  6
Continuous
 62
     7
100
AcDbLine
 10
909.54375
 20
778.36875
 30
0.0
 11
909.54375
 21
802.3687499999999
 31
0.0
  0
LINE
  5
489
330
17B
100
AcDbEntity
  8
1
  6
Continuous
 62
     7
100
AcDbLine
 10
889.5437499999998
 20
548.36875
 30
0.0
 11
1068.631249999999
 21
548.36875
 31
0.0
  0
LINE
  5
48C
330
17B
100
AcDbEntity
  8
1
  6
Continuous
 62
     7
100
AcDbLine
 10
1089.54375
 20
517.0
 30
0.0
 11
1079.54375
 21
507.0
 31
0.0
  0
LINE
  5
48D
330
17B
100
AcDbEntity
  8
1
  6
Continuous
 62
     7
100
AcDbLine
 10
1079.54375
 20
507.0
 30
0.0
 11
1069.54375
 21
517.0
 31
0.0
  0
LINE
  5
48E
330
17B
100
AcDbEntity
  8
1
  6
Continuous
 62
     7
100
AcDbLine
 10
1069.54375
 20
517.0
 30
0.0
 11
1059.54375
 21
507.0
 31
0.0
  0
LINE
  5
48F
330
17B
100
AcDbEntity
  8
1
  6
Continuous
 62
     7
100
AcDbLine
 10
1059.54375
 20
507.0
 30
0.0
 11
1049.543749999999
 21
517.0
 31
0.0
  0
LINE
  5
490
330
17B
100
AcDbEntity
  8
1
  6
Continuous
 62
     7
100
AcDbLine
 10
1049.543749999999
 20
517.0
 30
0.0
 11
1039.543749999999
 21
507.0
 31
0.0
  0
LINE
  5
491
330
17B
100
AcDbEntity
  8
1
  6
Continuous
 62
     7
100
AcDbLine
 10
1039.543749999999
 20
507.0
 30
0.0
 11
1029.543749999999
 21
517.0
 31
0.0
  0
LINE
  5
492
330
17B
100
AcDbEntity
  8
1
  6
Continuous
 62
     7
100
AcDbLine
 10
1029.543749999999
 20
517.0
 30
0.0
 11
1019.54375
 21
507.0
 31
0.0
  0
LINE
  5
493
330
17B
100
AcDbEntity
  8
1
  6
Continuous
 62
     7
100
AcDbLine
 10
1019.54375
 20
507.0
 30
0.0
 11
1009.54375
 21
517.0
 31
0.0
  0
LINE
  5
494
330
17B
100
AcDbEntity
  8
1
  6
Continuous
 62
     7
100
AcDbLine
 10
1009.54375
 20
517.0
 30
0.0
 11
999.5437500000001
 21
507.0
 31
0.0
  0
LINE
  5
495
330
17B
100
AcDbEntity
  8
1
  6
Continuous
 62
     7
100
AcDbLine
 10
999.5437500000001
 20
507.0
 30
0.0
 11
989.5437499999999
 21
517.0
 31
0.0
  0
LINE
  5
496
330
17B
100
AcDbEntity
  8
1
  6
Continuous
 62
     7
100
AcDbLine
 10
989.5437499999999
 20
517.0
 30
0.0
 11
979.54375
 21
507.0
 31
0.0
  0
LINE
  5
497
330
17B
100
AcDbEntity
  8
1
  6
Continuous
 62
     7
100
AcDbLine
 10
979.54375
 20
507.0
 30
0.0
 11
969.54375
 21
517.0
 31
0.0
  0
LINE
  5
498
330
17B
100
AcDbEntity
  8
1
  6
Continuous
 62
     7
100
AcDbLine
 10
889.5437499999998
 20
548.36875
 30
0.0
 11
889.5437499999998
 21
508.3687499999999
 31
0.0
  0
LINE
  5
499
330
17B
100
AcDbEntity
  8
1
  6
Continuous
 62
     7
100
AcDbLine
 10
689.54375
 20
508.3687499999999
 30
0.0
 11
889.5437499999998
 21
508.3687499999999
 31
0.0
  0
LINE
  5
49B
330
17B
100
AcDbEntity
  8
1
  6
Continuous
 62
     7
100
AcDbLine
 10
1285.174999999999
 20
538.3687499999998
 30
0.0
 11
1285.174999999999
 21
758.3687499999999
 31
0.0
  0
LINE
  5
49C
330
17B
100
AcDbEntity
  8
1
  6
Continuous
 62
     7
100
AcDbLine
 10
1074.63125
 20
748.36875
 30
0.0
 11
1125.175
 21
748.36875
 31
0.0
  0
LINE
  5
49D
330
17B
100
AcDbEntity
  8
1
  6
Continuous
 62
     7
100
AcDbLine
 10
1127.0
 20
774.36875
 30
0.0
 11
1145.0
 21
774.36875
 31
0.0
  0
LINE
  5
49E
330
17B
100
AcDbEntity
  8
1
  6
Continuous
 62
     7
100
AcDbLine
 10
1276.54375
 20
767.0
 30
0.0
 11
1285.174999999999
 21
758.3687499999999
 31
0.0
  0
LINE
  5
49F
330
17B
100
AcDbEntity
  8
1
  6
Continuous
 62
     7
100
AcDbLine
 10
1105.175
 20
770.3937499999997
 30
0.0
 11
1105.175
 21
785.0
 31
0.0
  0
LINE
  5
4A0
330
17B
100
AcDbEntity
  8
1
  6
Continuous
 62
     7
100
AcDbLine
 10
1074.63125
 20
548.36875
 30
0.0
 11
1125.175
 21
548.36875
 31
0.0
  0
LINE
  5
4A1
330
17B
100
AcDbEntity
  8
1
  6
Continuous
 62
     7
100
AcDbLine
 10
1115.175
 20
548.36875
 30
0.0
 11
1115.175
 21
748.36875
 31
0.0
  0
LINE
  5
4A2
330
17B
100
AcDbEntity
  8
1
  6
Continuous
 62
     7
100
AcDbLine
 10
1125.175
 20
548.36875
 30
0.0
 11
1125.175
 21
748.36875
 31
0.0
  0
LINE
  5
4A3
330
17B
100
AcDbEntity
  8
1
  6
Continuous
 62
     7
100
AcDbLine
 10
959.54375
 20
498.36875
 30
0.0
 11
959.54375
 21
517.0
 31
0.0
  0
LINE
  5
4A4
330
17B
100
AcDbEntity
  8
1
  6
Continuous
 62
     7
100
AcDbLine
 10
959.54375
 20
517.0
 30
0.0
 11
969.54375
 21
517.0
 31
0.0
  0
LINE
  5
4A5
330
17B
100
AcDbEntity
  8
1
  6
Continuous
 62
     7
100
AcDbLine
 10
959.54375
 20
779.7374999999997
 30
0.0
 11
959.54375
 21
802.3687499999999
 31
0.0
  0
LINE
  5
4A6
330
17B
100
AcDbEntity
  8
1
  6
Continuous
 62
     7
100
AcDbLine
 10
1089.54375
 20
779.7374999999997
 30
0.0
 11
1079.54375
 21
789.7374999999997
 31
0.0
  0
LINE
  5
4A7
330
17B
100
AcDbEntity
  8
1
  6
Continuous
 62
     7
100
AcDbLine
 10
1079.54375
 20
789.7374999999997
 30
0.0
 11
1069.54375
 21
779.7374999999997
 31
0.0
  0
LINE
  5
4A8
330
17B
100
AcDbEntity
  8
1
  6
Continuous
 62
     7
100
AcDbLine
 10
1069.54375
 20
779.7374999999997
 30
0.0
 11
1059.54375
 21
789.7374999999997
 31
0.0
  0
LINE
  5
4A9
330
17B
100
AcDbEntity
  8
1
  6
Continuous
 62
     7
100
AcDbLine
 10
1059.54375
 20
789.7374999999997
 30
0.0
 11
1049.543749999999
 21
779.7374999999997
 31
0.0
  0
LINE
  5
4AA
330
17B
100
AcDbEntity
  8
1
  6
Continuous
 62
     7
100
AcDbLine
 10
1049.543749999999
 20
779.7374999999997
 30
0.0
 11
1039.543749999999
 21
789.7374999999997
 31
0.0
  0
LINE
  5
4AB
330
17B
100
AcDbEntity
  8
1
  6
Continuous
 62
     7
100
AcDbLine
 10
1039.543749999999
 20
789.7374999999997
 30
0.0
 11
1029.543749999999
 21
779.7374999999997
 31
0.0
  0
LINE
  5
4AC
330
17B
100
AcDbEntity
  8
1
  6
Continuous
 62
     7
100
AcDbLine
 10
1029.543749999999
 20
779.7374999999997
 30
0.0
 11
1019.54375
 21
789.7374999999997
 31
0.0
  0
LINE
  5
4AD
330
17B
100
AcDbEntity
  8
1
  6
Continuous
 62
     7
100
AcDbLine
 10
1019.54375
 20
789.7374999999997
 30
0.0
 11
1009.54375
 21
779.7374999999997
 31
0.0
  0
LINE
  5
4AE
330
17B
100
AcDbEntity
  8
1
  6
Continuous
 62
     7
100
AcDbLine
 10
1009.54375
 20
779.7374999999997
 30
0.0
 11
999.5437500000001
 21
789.7374999999997
 31
0.0
  0
LINE
  5
4AF
330
17B
100
AcDbEntity
  8
1
  6
Continuous
 62
     7
100
AcDbLine
 10
999.5437500000001
 20
789.7374999999997
 30
0.0
 11
989.5437499999999
 21
779.7374999999997
 31
0.0
  0
LINE
  5
4B0
330
17B
100
AcDbEntity
  8
1
  6
Continuous
 62
     7
100
AcDbLine
 10
989.5437499999999
 20
779.7374999999997
 30
0.0
 11
979.54375
 21
789.7374999999997
 31
0.0
  0
LINE
  5
4B1
330
17B
100
AcDbEntity
  8
1
  6
Continuous
 62
     7
100
AcDbLine
 10
979.54375
 20
789.7374999999997
 30
0.0
 11
969.54375
 21
779.7374999999997
 31
0.0
  0
LINE
  5
4B2
330
17B
100
AcDbEntity
  8
1
  6
Continuous
 62
     7
100
AcDbLine
 10
969.54375
 20
802.3687499999999
 30
0.0
 11
969.54375
 21
779.7374999999997
 31
0.0
  0
LINE
  5
4B3
330
17B
100
AcDbEntity
  8
1
  6
Continuous
 62
     7
100
AcDbLine
 10
1068.631249999999
 20
748.36875
 30
0.0
 11
1105.175
 21
770.3937499999997
 31
0.0
  0
LINE
  5
4B4
330
17B
100
AcDbEntity
  8
1
  6
Continuous
 62
     7
100
AcDbLine
 10
959.54375
 20
779.7374999999997
 30
0.0
 11
969.54375
 21
779.7374999999997
 31
0.0
  0
LINE
  5
4B5
330
17B
100
AcDbEntity
  8
1
  6
Continuous
 62
     7
100
AcDbLine
 10
1068.631249999999
 20
748.36875
 30
0.0
 11
1068.631249999999
 21
548.36875
 31
0.0
  0
LINE
  5
4B6
330
17B
100
AcDbEntity
  8
1
  6
Continuous
 62
     7
100
AcDbLine
 10
919.54375
 20
748.36875
 30
0.0
 11
1068.631249999999
 21
748.36875
 31
0.0
  0
LINE
  5
4B7
330
17B
100
AcDbEntity
  8
1
  6
Continuous
 62
     7
100
AcDbLine
 10
798.4749999999998
 20
640.4374999999999
 30
0.0
 11
889.5437499999998
 21
548.36875
 31
0.0
  0
LINE
  5
4B8
330
17B
100
AcDbEntity
  8
1
  6
Continuous
 62
     7
100
AcDbLine
 10
1074.63125
 20
751.9874999999997
 30
0.0
 11
1074.63125
 21
544.7499999999998
 31
0.0
  0
LINE
  5
4B9
330
17B
100
AcDbEntity
  8
1
  6
Continuous
 62
     7
100
AcDbLine
 10
1099.54375
 20
789.7374999999997
 30
0.0
 11
1089.54375
 21
779.7374999999997
 31
0.0
  0
LINE
  5
4BA
330
17B
100
AcDbEntity
  8
1
  6
Continuous
 62
     7
100
AcDbLine
 10
1099.54375
 20
767.0
 30
0.0
 11
1099.54375
 21
789.7374999999997
 31
0.0
  0
LINE
  5
4BB
330
17B
100
AcDbEntity
  8
1
  6
Continuous
 62
     7
100
AcDbLine
 10
1145.0
 20
767.0
 30
0.0
 11
1276.54375
 21
767.0
 31
0.0
  0
LINE
  5
4BC
330
17B
100
AcDbEntity
  8
1
  6
Continuous
 62
     7
100
AcDbLine
 10
1105.175
 20
785.0
 30
0.0
 11
1127.0
 21
785.0
 31
0.0
  0
LINE
  5
4BD
330
17B
100
AcDbEntity
  8
1
  6
Continuous
 62
     7
100
AcDbLine
 10
1127.0
 20
774.36875
 30
0.0
 11
1127.0
 21
787.0
 31
0.0
  0
LINE
  5
4BE
330
17B
100
AcDbEntity
  8
1
  6
Continuous
 62
     7
100
AcDbLine
 10
1099.54375
 20
787.0
 30
0.0
 11
1127.0
 21
787.0
 31
0.0
  0
LINE
  5
4BF
330
17B
100
AcDbEntity
  8
1
  6
Continuous
 62
     7
100
AcDbLine
 10
1145.0
 20
767.0
 30
0.0
 11
1145.0
 21
774.36875
 31
0.0
  0
LINE
  5
4C0
330
17B
100
AcDbEntity
  8
1
  6
Continuous
 62
     7
100
AcDbLine
 10
1145.0
 20
776.3687499999997
 30
0.0
 11
1145.0
 21
802.3687499999999
 31
0.0
  0
LINE
  5
4C1
330
17B
100
AcDbEntity
  8
1
  6
Continuous
 62
     7
100
AcDbLine
 10
1127.0
 20
776.3687499999997
 30
0.0
 11
1145.0
 21
776.3687499999997
 31
0.0
  0
LINE
  5
4C2
330
17B
100
AcDbEntity
  8
1
  6
Continuous
 62
     7
100
AcDbLine
 10
909.54375
 20
802.3687499999999
 30
0.0
 11
959.54375
 21
802.3687499999999
 31
0.0
  0
LINE
  5
4C3
330
17B
100
AcDbEntity
  8
1
  6
Continuous
 62
     7
100
AcDbLine
 10
969.54375
 20
802.3687499999999
 30
0.0
 11
1145.0
 21
802.3687499999999
 31
0.0
  0
LINE
  5
4C4
330
17B
100
AcDbEntity
  8
1
  6
Continuous
 62
     7
100
AcDbLine
 10
1127.0
 20
522.3687499999998
 30
0.0
 11
1145.0
 21
522.3687499999998
 31
0.0
  0
LINE
  5
4C5
330
17B
100
AcDbEntity
  8
1
  6
Continuous
 62
     7
100
AcDbLine
 10
1105.175
 20
526.34375
 30
0.0
 11
1105.175
 21
511.7375
 31
0.0
  0
LINE
  5
4C6
330
17B
100
AcDbEntity
  8
1
  6
Continuous
 62
     7
100
AcDbLine
 10
1089.54375
 20
517.0
 30
0.0
 11
1079.54375
 21
507.0
 31
0.0
  0
LINE
  5
4C7
330
17B
100
AcDbEntity
  8
1
  6
Continuous
 62
     7
100
AcDbLine
 10
1079.54375
 20
507.0
 30
0.0
 11
1069.54375
 21
517.0
 31
0.0
  0
LINE
  5
4C8
330
17B
100
AcDbEntity
  8
1
  6
Continuous
 62
     7
100
AcDbLine
 10
1069.54375
 20
517.0
 30
0.0
 11
1059.54375
 21
507.0
 31
0.0
  0
LINE
  5
4C9
330
17B
100
AcDbEntity
  8
1
  6
Continuous
 62
     7
100
AcDbLine
 10
1059.54375
 20
507.0
 30
0.0
 11
1049.543749999999
 21
517.0
 31
0.0
  0
LINE
  5
4CA
330
17B
100
AcDbEntity
  8
1
  6
Continuous
 62
     7
100
AcDbLine
 10
1049.543749999999
 20
517.0
 30
0.0
 11
1039.543749999999
 21
507.0
 31
0.0
  0
LINE
  5
4CB
330
17B
100
AcDbEntity
  8
1
  6
Continuous
 62
     7
100
AcDbLine
 10
1039.543749999999
 20
507.0
 30
0.0
 11
1029.543749999999
 21
517.0
 31
0.0
  0
LINE
  5
4CC
330
17B
100
AcDbEntity
  8
1
  6
Continuous
 62
     7
100
AcDbLine
 10
1029.543749999999
 20
517.0
 30
0.0
 11
1019.54375
 21
507.0
 31
0.0
  0
LINE
  5
4CD
330
17B
100
AcDbEntity
  8
1
  6
Continuous
 62
     7
100
AcDbLine
 10
1019.54375
 20
507.0
 30
0.0
 11
1009.54375
 21
517.0
 31
0.0
  0
LINE
  5
4CE
330
17B
100
AcDbEntity
  8
1
  6
Continuous
 62
     7
100
AcDbLine
 10
1009.54375
 20
517.0
 30
0.0
 11
999.5437500000001
 21
507.0
 31
0.0
  0
LINE
  5
4CF
330
17B
100
AcDbEntity
  8
1
  6
Continuous
 62
     7
100
AcDbLine
 10
999.5437500000001
 20
507.0
 30
0.0
 11
989.5437499999999
 21
517.0
 31
0.0
  0
LINE
  5
4D0
330
17B
100
AcDbEntity
  8
1
  6
Continuous
 62
     7
100
AcDbLine
 10
989.5437499999999
 20
517.0
 30
0.0
 11
979.54375
 21
507.0
 31
0.0
  0
LINE
  5
4D1
330
17B
100
AcDbEntity
  8
1
  6
Continuous
 62
     7
100
AcDbLine
 10
979.54375
 20
507.0
 30
0.0
 11
969.54375
 21
517.0
 31
0.0
  0
LINE
  5
4D2
330
17B
100
AcDbEntity
  8
1
  6
Continuous
 62
     7
100
AcDbLine
 10
969.54375
 20
494.36875
 30
0.0
 11
969.54375
 21
517.0
 31
0.0
  0
LINE
  5
4D3
330
17B
100
AcDbEntity
  8
1
  6
Continuous
 62
     7
100
AcDbLine
 10
1068.631249999999
 20
548.36875
 30
0.0
 11
1105.175
 21
526.34375
 31
0.0
  0
LINE
  5
4D4
330
17B
100
AcDbEntity
  8
1
  6
Continuous
 62
     7
100
AcDbLine
 10
1099.54375
 20
507.0
 30
0.0
 11
1089.54375
 21
517.0
 31
0.0
  0
LINE
  5
4D5
330
17B
100
AcDbEntity
  8
1
  6
Continuous
 62
     7
100
AcDbLine
 10
1099.54375
 20
529.7374999999998
 30
0.0
 11
1099.54375
 21
507.0
 31
0.0
  0
LINE
  5
4D6
330
17B
100
AcDbEntity
  8
1
  6
Continuous
 62
     7
100
AcDbLine
 10
1105.175
 20
511.7375
 30
0.0
 11
1127.0
 21
511.7375
 31
0.0
  0
LINE
  5
4D7
330
17B
100
AcDbEntity
  8
1
  6
Continuous
 62
     7
100
AcDbLine
 10
1127.0
 20
522.3687499999998
 30
0.0
 11
1127.0
 21
509.7375
 31
0.0
  0
LINE
  5
4D8
330
17B
100
AcDbEntity
  8
1
  6
Continuous
 62
     7
100
AcDbLine
 10
1099.54375
 20
509.7375
 30
0.0
 11
1127.0
 21
509.7375
 31
0.0
  0
LINE
  5
4D9
330
17B
100
AcDbEntity
  8
1
  6
Continuous
 62
     7
100
AcDbLine
 10
1145.0
 20
529.7374999999998
 30
0.0
 11
1145.0
 21
522.3687499999998
 31
0.0
  0
LINE
  5
4DA
330
17B
100
AcDbEntity
  8
1
  6
Continuous
 62
     7
100
AcDbLine
 10
1145.0
 20
520.36875
 30
0.0
 11
1145.0
 21
494.36875
 31
0.0
  0
LINE
  5
4DB
330
17B
100
AcDbEntity
  8
1
  6
Continuous
 62
     7
100
AcDbLine
 10
1127.0
 20
520.36875
 30
0.0
 11
1145.0
 21
520.36875
 31
0.0
  0
LINE
  5
4DC
330
17B
100
AcDbEntity
  8
1
  6
Continuous
 62
     7
100
AcDbLine
 10
969.54375
 20
494.36875
 30
0.0
 11
1145.0
 21
494.36875
 31
0.0
  0
LINE
  5
4DD
330
17B
100
AcDbEntity
  8
1
  6
Continuous
 62
     7
100
AcDbLine
 10
1145.0
 20
529.7374999999998
 30
0.0
 11
1276.54375
 21
529.7374999999998
 31
0.0
  0
LINE
  5
4DE
330
17B
100
AcDbEntity
  8
1
  6
Continuous
 62
     7
100
AcDbLine
 10
1276.54375
 20
529.7374999999998
 30
0.0
 11
1285.174999999999
 21
538.3687499999998
 31
0.0
  0
LINE
  5
4DF
330
17B
100
AcDbEntity
  8
1
  6
Continuous
 62
     7
100
AcDbLine
 10
1078.7125
 20
507.83125
 30
0.0
 11
1100.21875
 21
529.3312499999998
 31
0.0
  0
LINE
  5
4E0
330
17B
100
AcDbEntity
  8
1
  6
Continuous
 62
     3
100
AcDbLine
 10
470.0
 20
648.36875
 30
0.0
 11
680.2249999999998
 21
648.36875
 31
0.0
  0
LINE
  5
4E1
330
17B
100
AcDbEntity
  8
1
  6
Continuous
 62
     3
100
AcDbLine
 10
470.0
 20
348.3687499999998
 30
0.0
 11
649.54375
 21
348.3687499999998
 31
0.0
  0
LINE
  5
4E2
330
17B
100
AcDbEntity
  8
1
  6
Continuous
 62
     3
100
AcDbLine
 10
483.45
 20
348.3687499999998
 30
0.0
 11
476.8937499999997
 21
372.08125
 31
0.0
  0
LINE
  5
4E3
330
17B
100
AcDbEntity
  8
1
  6
Continuous
 62
     3
100
AcDbLine
 10
483.45
 20
348.3687499999998
 30
0.0
 11
490.0062499999998
 21
372.08125
 31
0.0
  0
LINE
  5
4E4
330
17B
100
AcDbEntity
  8
1
  6
Continuous
 62
     3
100
AcDbLine
 10
490.0062499999998
 20
372.08125
 30
0.0
 11
476.8937499999997
 21
372.08125
 31
0.0
  0
LINE
  5
4E5
330
17B
100
AcDbEntity
  8
1
  6
Continuous
 62
     3
100
AcDbLine
 10
483.45
 20
648.36875
 30
0.0
 11
490.0062499999998
 21
624.65625
 31
0.0
  0
LINE
  5
4E6
330
17B
100
AcDbEntity
  8
1
  6
Continuous
 62
     3
100
AcDbLine
 10
483.45
 20
648.36875
 30
0.0
 11
476.8937499999997
 21
624.65625
 31
0.0
  0
LINE
  5
4E7
330
17B
100
AcDbEntity
  8
1
  6
Continuous
 62
     3
100
AcDbLine
 10
476.8937499999997
 20
624.65625
 30
0.0
 11
490.0062499999998
 21
624.65625
 31
0.0
  0
LINE
  5
4E8
330
17B
100
AcDbEntity
  8
1
  6
Continuous
 62
     3
100
AcDbLine
 10
639.54375
 20
212.525
 30
0.0
 11
639.54375
 21
358.3687499999999
 31
0.0
  0
LINE
  5
4E9
330
17B
100
AcDbEntity
  8
1
  6
Continuous
 62
     3
100
AcDbLine
 10
939.5437499999999
 20
212.525
 30
0.0
 11
939.5437499999999
 21
358.3687499999999
 31
0.0
  0
LINE
  5
4EA
330
17B
100
AcDbEntity
  8
1
  6
Continuous
 62
     3
100
AcDbLine
 10
663.2562499999997
 20
228.36875
 30
0.0
 11
915.8312499999999
 21
228.36875
 31
0.0
  0
LINE
  5
4EB
330
17B
100
AcDbEntity
  8
1
  6
Continuous
 62
     3
100
AcDbLine
 10
939.5437499999999
 20
228.36875
 30
0.0
 11
915.8312499999999
 21
221.8125
 31
0.0
  0
LINE
  5
4EC
330
17B
100
AcDbEntity
  8
1
  6
Continuous
 62
     3
100
AcDbLine
 10
939.5437499999999
 20
228.36875
 30
0.0
 11
915.8312499999999
 21
234.925
 31
0.0
  0
LINE
  5
4ED
330
17B
100
AcDbEntity
  8
1
  6
Continuous
 62
     3
100
AcDbLine
 10
915.8312499999999
 20
234.925
 30
0.0
 11
915.8312499999999
 21
221.8125
 31
0.0
  0
LINE
  5
4EE
330
17B
100
AcDbEntity
  8
1
  6
Continuous
 62
     3
100
AcDbLine
 10
639.54375
 20
228.36875
 30
0.0
 11
663.2562499999997
 21
234.925
 31
0.0
  0
LINE
  5
4EF
330
17B
100
AcDbEntity
  8
1
  6
Continuous
 62
     3
100
AcDbLine
 10
639.54375
 20
228.36875
 30
0.0
 11
663.2562499999997
 21
221.8125
 31
0.0
  0
LINE
  5
4F0
330
17B
100
AcDbEntity
  8
1
  6
Continuous
 62
     3
100
AcDbLine
 10
663.2562499999997
 20
221.8125
 30
0.0
 11
663.2562499999997
 21
234.925
 31
0.0
  0
LINE
  5
4F1
330
17B
100
AcDbEntity
  8
1
  6
Continuous
 62
     3
100
AcDbLine
 10
789.5374999999997
 20
757.6875
 30
0.0
 11
789.5374999999997
 21
908.0
 31
0.0
  0
LINE
  5
4F2
330
17B
100
AcDbEntity
  8
1
  6
Continuous
 62
     3
100
AcDbLine
 10
1285.174999999999
 20
767.6874999999999
 30
0.0
 11
1285.174999999999
 21
908.0
 31
0.0
  0
LINE
  5
4F3
330
17B
100
AcDbEntity
  8
1
  6
Continuous
 62
     3
100
AcDbLine
 10
813.25
 20
895.3687499999999
 30
0.0
 11
1261.4625
 21
895.3687499999999
 31
0.0
  0
LINE
  5
4F4
330
17B
100
AcDbEntity
  8
1
  6
Continuous
 62
     3
100
AcDbLine
 10
1285.174999999999
 20
895.3687499999999
 30
0.0
 11
1261.4625
 21
888.8125
 31
0.0
  0
LINE
  5
4F5
330
17B
100
AcDbEntity
  8
1
  6
Continuous
 62
     3
100
AcDbLine
 10
1285.174999999999
 20
895.3687499999999
 30
0.0
 11
1261.4625
 21
901.9249999999999
 31
0.0
  0
LINE
  5
4F6
330
17B
100
AcDbEntity
  8
1
  6
Continuous
 62
     3
100
AcDbLine
 10
1261.4625
 20
901.9249999999999
 30
0.0
 11
1261.4625
 21
888.8125
 31
0.0
  0
LINE
  5
4F7
330
17B
100
AcDbEntity
  8
1
  6
Continuous
 62
     3
100
AcDbLine
 10
789.5374999999997
 20
895.3687499999999
 30
0.0
 11
813.25
 21
901.9249999999999
 31
0.0
  0
LINE
  5
4F8
330
17B
100
AcDbEntity
  8
1
  6
Continuous
 62
     3
100
AcDbLine
 10
789.5374999999997
 20
895.3687499999999
 30
0.0
 11
813.25
 21
888.8125
 31
0.0
  0
LINE
  5
4F9
330
17B
100
AcDbEntity
  8
1
  6
Continuous
 62
     3
100
AcDbLine
 10
813.25
 20
888.8125
 30
0.0
 11
813.25
 21
901.9249999999999
 31
0.0
  0
LINE
  5
4FA
330
17B
100
AcDbEntity
  8
1
  6
Continuous
 62
     3
100
AcDbLine
 10
813.25
 20
895.3687499999999
 30
0.0
 11
835.54375
 21
895.3687499999999
 31
0.0
  0
LINE
  5
4FB
330
17B
100
AcDbEntity
  8
1
  6
Continuous
 62
     5
100
AcDbLine
 10
483.45
 20
498.36875
 30
0.0
 11
486.4499999999998
 21
498.36875
 31
0.0
  0
LINE
  5
4FC
330
17B
100
AcDbEntity
  8
1
  6
Continuous
 62
     5
100
AcDbLine
 10
789.54375
 20
248.36875
 30
0.0
 11
793.54375
 21
248.36875
 31
0.0
  0
LINE
  5
4FD
330
17B
100
AcDbEntity
  8
1
  6
Continuous
 62
     5
100
AcDbLine
 10
1037.356249999999
 20
915.36875
 30
0.0
 11
1042.35625
 21
915.36875
 31
0.0
  0
LINE
  5
4FE
330
17B
100
AcDbEntity
  8
1
  6
Continuous
 62
     3
100
AcDbLine
 10
483.45
 20
372.08125
 30
0.0
 11
483.45
 21
478.36875
 31
0.0
  0
LINE
  5
4FF
330
17B
100
AcDbEntity
  8
1
  6
Continuous
 62
     3
100
AcDbLine
 10
483.45
 20
517.0
 30
0.0
 11
483.45
 21
624.65625
 31
0.0
  0
LINE
  5
500
330
17B
100
AcDbEntity
  8
1
  6
Continuous
 62
     7
100
AcDbLine
 10
889.5437499999998
 20
508.3687499999999
 30
0.0
 11
679.5437499999998
 21
508.3687499999999
 31
0.0
  0
LINE
  5
501
330
17B
100
AcDbEntity
  8
1
  6
Continuous
 62
     7
100
AcDbLine
 10
889.5437499999998
 20
348.3687499999998
 30
0.0
 11
689.54375
 21
358.3687499999999
 31
0.0
  0
LINE
  5
502
330
17B
100
AcDbEntity
  8
1
  6
Continuous
 62
     7
100
AcDbLine
 10
679.5437499999998
 20
348.3687499999998
 30
0.0
 11
689.54375
 21
358.3687499999999
 31
0.0
  0
LINE
  5
503
330
17B
100
AcDbEntity
  8
1
  6
Continuous
 62
     7
100
AcDbLine
 10
689.54375
 20
358.3687499999999
 30
0.0
 11
679.5437499999998
 21
368.36875
 31
0.0
  0
LINE
  5
504
330
17B
100
AcDbEntity
  8
1
  6
Continuous
 62
     7
100
AcDbLine
 10
679.5437499999998
 20
368.36875
 30
0.0
 11
689.54375
 21
378.3687499999999
 31
0.0
  0
LINE
  5
505
330
17B
100
AcDbEntity
  8
1
  6
Continuous
 62
     7
100
AcDbLine
 10
689.54375
 20
378.3687499999999
 30
0.0
 11
679.5437499999998
 21
388.3687499999999
 31
0.0
  0
LINE
  5
506
330
17B
100
AcDbEntity
  8
1
  6
Continuous
 62
     7
100
AcDbLine
 10
679.5437499999998
 20
388.3687499999999
 30
0.0
 11
689.54375
 21
398.3687499999999
 31
0.0
  0
LINE
  5
507
330
17B
100
AcDbEntity
  8
1
  6
Continuous
 62
     7
100
AcDbLine
 10
689.54375
 20
398.3687499999999
 30
0.0
 11
679.5437499999998
 21
408.3687499999999
 31
0.0
  0
LINE
  5
508
330
17B
100
AcDbEntity
  8
1
  6
Continuous
 62
     7
100
AcDbLine
 10
679.5437499999998
 20
408.3687499999999
 30
0.0
 11
689.54375
 21
418.3687499999998
 31
0.0
  0
LINE
  5
509
330
17B
100
AcDbEntity
  8
1
  6
Continuous
 62
     7
100
AcDbLine
 10
689.54375
 20
418.3687499999998
 30
0.0
 11
679.5437499999998
 21
428.36875
 31
0.0
  0
LINE
  5
50A
330
17B
100
AcDbEntity
  8
1
  6
Continuous
 62
     7
100
AcDbLine
 10
679.5437499999998
 20
428.36875
 30
0.0
 11
689.54375
 21
438.3687499999998
 31
0.0
  0
LINE
  5
50B
330
17B
100
AcDbEntity
  8
1
  6
Continuous
 62
     7
100
AcDbLine
 10
689.54375
 20
438.3687499999998
 30
0.0
 11
679.5437499999998
 21
448.36875
 31
0.0
  0
LINE
  5
50C
330
17B
100
AcDbEntity
  8
1
  6
Continuous
 62
     7
100
AcDbLine
 10
679.5437499999998
 20
448.36875
 30
0.0
 11
689.54375
 21
458.3687499999999
 31
0.0
  0
LINE
  5
50D
330
17B
100
AcDbEntity
  8
1
  6
Continuous
 62
     7
100
AcDbLine
 10
689.54375
 20
458.3687499999999
 30
0.0
 11
679.5437499999998
 21
468.3687499999998
 31
0.0
  0
LINE
  5
50E
330
17B
100
AcDbEntity
  8
1
  6
Continuous
 62
     7
100
AcDbLine
 10
679.5437499999998
 20
468.3687499999998
 30
0.0
 11
689.54375
 21
478.36875
 31
0.0
  0
LINE
  5
50F
330
17B
100
AcDbEntity
  8
1
  6
Continuous
 62
     7
100
AcDbLine
 10
689.54375
 20
478.36875
 30
0.0
 11
679.5437499999998
 21
488.3687499999998
 31
0.0
  0
LINE
  5
510
330
17B
100
AcDbEntity
  8
1
  6
Continuous
 62
     7
100
AcDbLine
 10
679.5437499999998
 20
488.3687499999998
 30
0.0
 11
689.54375
 21
498.36875
 31
0.0
  0
LINE
  5
511
330
17B
100
AcDbEntity
  8
1
  6
Continuous
 62
     7
100
AcDbLine
 10
889.5437499999998
 20
348.3687499999998
 30
0.0
 11
899.5437499999997
 21
358.3687499999999
 31
0.0
  0
LINE
  5
512
330
17B
100
AcDbEntity
  8
1
  6
Continuous
 62
     7
100
AcDbLine
 10
899.5437499999997
 20
358.3687499999999
 30
0.0
 11
889.5437499999998
 21
368.36875
 31
0.0
  0
LINE
  5
513
330
17B
100
AcDbEntity
  8
1
  6
Continuous
 62
     7
100
AcDbLine
 10
889.5437499999998
 20
368.36875
 30
0.0
 11
899.5437499999997
 21
378.3687499999999
 31
0.0
  0
LINE
  5
514
330
17B
100
AcDbEntity
  8
1
  6
Continuous
 62
     7
100
AcDbLine
 10
899.5437499999997
 20
378.3687499999999
 30
0.0
 11
889.5437499999998
 21
388.3687499999999
 31
0.0
  0
LINE
  5
515
330
17B
100
AcDbEntity
  8
1
  6
Continuous
 62
     7
100
AcDbLine
 10
889.5437499999998
 20
388.3687499999999
 30
0.0
 11
899.5437499999997
 21
398.3687499999999
 31
0.0
  0
LINE
  5
516
330
17B
100
AcDbEntity
  8
1
  6
Continuous
 62
     7
100
AcDbLine
 10
899.5437499999997
 20
398.3687499999999
 30
0.0
 11
889.5437499999998
 21
408.3687499999999
 31
0.0
  0
LINE
  5
517
330
17B
100
AcDbEntity
  8
1
  6
Continuous
 62
     7
100
AcDbLine
 10
889.5437499999998
 20
408.3687499999999
 30
0.0
 11
899.5437499999997
 21
418.3687499999998
 31
0.0
  0
LINE
  5
518
330
17B
100
AcDbEntity
  8
1
  6
Continuous
 62
     7
100
AcDbLine
 10
899.5437499999997
 20
418.3687499999998
 30
0.0
 11
889.5437499999998
 21
428.36875
 31
0.0
  0
LINE
  5
519
330
17B
100
AcDbEntity
  8
1
  6
Continuous
 62
     7
100
AcDbLine
 10
889.5437499999998
 20
428.36875
 30
0.0
 11
899.5437499999997
 21
438.3687499999998
 31
0.0
  0
LINE
  5
51A
330
17B
100
AcDbEntity
  8
1
  6
Continuous
 62
     7
100
AcDbLine
 10
899.5437499999997
 20
438.3687499999998
 30
0.0
 11
889.5437499999998
 21
448.36875
 31
0.0
  0
LINE
  5
51B
330
17B
100
AcDbEntity
  8
1
  6
Continuous
 62
     7
100
AcDbLine
 10
889.5437499999998
 20
448.36875
 30
0.0
 11
899.5437499999997
 21
458.3687499999999
 31
0.0
  0
LINE
  5
51C
330
17B
100
AcDbEntity
  8
1
  6
Continuous
 62
     7
100
AcDbLine
 10
899.5437499999997
 20
458.3687499999999
 30
0.0
 11
889.5437499999998
 21
468.3687499999998
 31
0.0
  0
LINE
  5
51D
330
17B
100
AcDbEntity
  8
1
  6
Continuous
 62
     7
100
AcDbLine
 10
889.5437499999998
 20
468.3687499999998
 30
0.0
 11
899.5437499999997
 21
478.36875
 31
0.0
  0
LINE
  5
51E
330
17B
100
AcDbEntity
  8
1
  6
Continuous
 62
     7
100
AcDbLine
 10
899.5437499999997
 20
478.36875
 30
0.0
 11
889.5437499999998
 21
488.3687499999998
 31
0.0
  0
LINE
  5
51F
330
17B
100
AcDbEntity
  8
1
  6
Continuous
 62
     7
100
AcDbLine
 10
889.5437499999998
 20
488.3687499999998
 30
0.0
 11
899.5437499999997
 21
498.36875
 31
0.0
  0
LINE
  5
520
330
17B
100
AcDbEntity
  8
1
  6
Continuous
 62
     7
100
AcDbLine
 10
899.5437499999997
 20
498.36875
 30
0.0
 11
889.5437499999998
 21
508.3687499999999
 31
0.0
  0
LINE
  5
521
330
17B
100
AcDbEntity
  8
1
  6
Continuous
 62
     7
100
AcDbLine
 10
689.54375
 20
378.3687499999999
 30
0.0
 11
889.5437499999998
 21
368.36875
 31
0.0
  0
LINE
  5
522
330
17B
100
AcDbEntity
  8
1
  6
Continuous
 62
     7
100
AcDbLine
 10
889.5437499999998
 20
388.3687499999999
 30
0.0
 11
689.54375
 21
398.3687499999999
 31
0.0
  0
LINE
  5
523
330
17B
100
AcDbEntity
  8
1
  6
Continuous
 62
     7
100
AcDbLine
 10
689.54375
 20
418.3687499999998
 30
0.0
 11
889.5437499999998
 21
408.3687499999999
 31
0.0
  0
LINE
  5
524
330
17B
100
AcDbEntity
  8
1
  6
Continuous
 62
     7
100
AcDbLine
 10
889.5437499999998
 20
428.36875
 30
0.0
 11
689.54375
 21
438.3687499999998
 31
0.0
  0
LINE
  5
525
330
17B
100
AcDbEntity
  8
1
  6
Continuous
 62
     7
100
AcDbLine
 10
689.54375
 20
458.3687499999999
 30
0.0
 11
889.5437499999998
 21
448.36875
 31
0.0
  0
LINE
  5
526
330
17B
100
AcDbEntity
  8
1
  6
Continuous
 62
     7
100
AcDbLine
 10
889.5437499999998
 20
468.3687499999998
 30
0.0
 11
689.54375
 21
478.36875
 31
0.0
  0
LINE
  5
527
330
17B
100
AcDbEntity
  8
1
  6
Continuous
 62
     7
100
AcDbLine
 10
689.54375
 20
498.36875
 30
0.0
 11
889.5437499999998
 21
488.3687499999998
 31
0.0
  0
LINE
  5
528
330
17B
100
AcDbEntity
  8
1
  6
Continuous
 62
     7
100
AcDbLine
 10
689.54375
 20
498.36875
 30
0.0
 11
679.5437499999998
 21
508.3687499999999
 31
0.0
  0
LINE
  5
529
330
17B
100
AcDbEntity
  8
1
  6
Continuous
 62
     7
100
AcDbLine
 10
893.2624999999998
 20
348.3687499999998
 30
0.0
 11
891.3999999999999
 21
350.225
 31
0.0
  0
LINE
  5
52A
330
17B
100
AcDbEntity
  8
1
  6
Continuous
 62
     7
100
AcDbLine
 10
1285.174999999999
 20
758.3687499999999
 30
0.0
 11
1285.174999999999
 21
538.3687499999998
 31
0.0
  0
LINE
  5
52B
330
17B
100
AcDbEntity
  8
1
  6
Continuous
 62
     7
100
AcDbLine
 10
1125.175
 20
748.36875
 30
0.0
 11
1125.175
 21
538.3687499999998
 31
0.0
  0
LINE
  5
52C
330
17B
100
AcDbEntity
  8
1
  6
Continuous
 62
     7
100
AcDbLine
 10
1285.174999999999
 20
748.36875
 30
0.0
 11
1275.174999999999
 21
548.36875
 31
0.0
  0
LINE
  5
52D
330
17B
100
AcDbEntity
  8
1
  6
Continuous
 62
     7
100
AcDbLine
 10
1285.174999999999
 20
538.3687499999998
 30
0.0
 11
1275.174999999999
 21
548.36875
 31
0.0
  0
LINE
  5
52E
330
17B
100
AcDbEntity
  8
1
  6
Continuous
 62
     7
100
AcDbLine
 10
1275.174999999999
 20
548.36875
 30
0.0
 11
1265.175
 21
538.3687499999998
 31
0.0
  0
LINE
  5
52F
330
17B
100
AcDbEntity
  8
1
  6
Continuous
 62
     7
100
AcDbLine
 10
1265.175
 20
538.3687499999998
 30
0.0
 11
1255.175
 21
548.36875
 31
0.0
  0
LINE
  5
530
330
17B
100
AcDbEntity
  8
1
  6
Continuous
 62
     7
100
AcDbLine
 10
1255.175
 20
548.36875
 30
0.0
 11
1245.175
 21
538.3687499999998
 31
0.0
  0
LINE
  5
531
330
17B
100
AcDbEntity
  8
1
  6
Continuous
 62
     7
100
AcDbLine
 10
1245.175
 20
538.3687499999998
 30
0.0
 11
1235.174999999999
 21
548.36875
 31
0.0
  0
LINE
  5
532
330
17B
100
AcDbEntity
  8
1
  6
Continuous
 62
     7
100
AcDbLine
 10
1235.174999999999
 20
548.36875
 30
0.0
 11
1225.175
 21
538.3687499999998
 31
0.0
  0
LINE
  5
533
330
17B
100
AcDbEntity
  8
1
  6
Continuous
 62
     7
100
AcDbLine
 10
1225.175
 20
538.3687499999998
 30
0.0
 11
1215.175
 21
548.36875
 31
0.0
  0
LINE
  5
534
330
17B
100
AcDbEntity
  8
1
  6
Continuous
 62
     7
100
AcDbLine
 10
1215.175
 20
548.36875
 30
0.0
 11
1205.175
 21
538.3687499999998
 31
0.0
  0
LINE
  5
535
330
17B
100
AcDbEntity
  8
1
  6
Continuous
 62
     7
100
AcDbLine
 10
1205.175
 20
538.3687499999998
 30
0.0
 11
1195.175
 21
548.36875
 31
0.0
  0
LINE
  5
536
330
17B
100
AcDbEntity
  8
1
  6
Continuous
 62
     7
100
AcDbLine
 10
1195.175
 20
548.36875
 30
0.0
 11
1185.174999999999
 21
538.3687499999998
 31
0.0
  0
LINE
  5
537
330
17B
100
AcDbEntity
  8
1
  6
Continuous
 62
     7
100
AcDbLine
 10
1185.174999999999
 20
538.3687499999998
 30
0.0
 11
1175.175
 21
548.36875
 31
0.0
  0
LINE
  5
538
330
17B
100
AcDbEntity
  8
1
  6
Continuous
 62
     7
100
AcDbLine
 10
1175.175
 20
548.36875
 30
0.0
 11
1165.175
 21
538.3687499999998
 31
0.0
  0
LINE
  5
539
330
17B
100
AcDbEntity
  8
1
  6
Continuous
 62
     7
100
AcDbLine
 10
1165.175
 20
538.3687499999998
 30
0.0
 11
1155.175
 21
548.36875
 31
0.0
  0
LINE
  5
53A
330
17B
100
AcDbEntity
  8
1
  6
Continuous
 62
     7
100
AcDbLine
 10
1155.175
 20
548.36875
 30
0.0
 11
1145.175
 21
538.3687499999998
 31
0.0
  0
LINE
  5
53B
330
17B
100
AcDbEntity
  8
1
  6
Continuous
 62
     7
100
AcDbLine
 10
1145.175
 20
538.3687499999998
 30
0.0
 11
1135.175
 21
548.36875
 31
0.0
  0
LINE
  5
53C
330
17B
100
AcDbEntity
  8
1
  6
Continuous
 62
     7
100
AcDbLine
 10
1285.174999999999
 20
748.36875
 30
0.0
 11
1275.174999999999
 21
758.3687499999999
 31
0.0
  0
LINE
  5
53D
330
17B
100
AcDbEntity
  8
1
  6
Continuous
 62
     7
100
AcDbLine
 10
1275.174999999999
 20
758.3687499999999
 30
0.0
 11
1265.175
 21
748.36875
 31
0.0
  0
LINE
  5
53E
330
17B
100
AcDbEntity
  8
1
  6
Continuous
 62
     7
100
AcDbLine
 10
1265.175
 20
748.36875
 30
0.0
 11
1255.175
 21
758.3687499999999
 31
0.0
  0
LINE
  5
53F
330
17B
100
AcDbEntity
  8
1
  6
Continuous
 62
     7
100
AcDbLine
 10
1255.175
 20
758.3687499999999
 30
0.0
 11
1245.175
 21
748.36875
 31
0.0
  0
LINE
  5
540
330
17B
100
AcDbEntity
  8
1
  6
Continuous
 62
     7
100
AcDbLine
 10
1245.175
 20
748.36875
 30
0.0
 11
1235.174999999999
 21
758.3687499999999
 31
0.0
  0
LINE
  5
541
330
17B
100
AcDbEntity
  8
1
  6
Continuous
 62
     7
100
AcDbLine
 10
1235.174999999999
 20
758.3687499999999
 30
0.0
 11
1225.175
 21
748.36875
 31
0.0
  0
LINE
  5
542
330
17B
100
AcDbEntity
  8
1
  6
Continuous
 62
     7
100
AcDbLine
 10
1225.175
 20
748.36875
 30
0.0
 11
1215.175
 21
758.3687499999999
 31
0.0
  0
LINE
  5
543
330
17B
100
AcDbEntity
  8
1
  6
Continuous
 62
     7
100
AcDbLine
 10
1215.175
 20
758.3687499999999
 30
0.0
 11
1205.175
 21
748.36875
 31
0.0
  0
LINE
  5
544
330
17B
100
AcDbEntity
  8
1
  6
Continuous
 62
     7
100
AcDbLine
 10
1205.175
 20
748.36875
 30
0.0
 11
1195.175
 21
758.3687499999999
 31
0.0
  0
LINE
  5
545
330
17B
100
AcDbEntity
  8
1
  6
Continuous
 62
     7
100
AcDbLine
 10
1195.175
 20
758.3687499999999
 30
0.0
 11
1185.174999999999
 21
748.36875
 31
0.0
  0
LINE
  5
546
330
17B
100
AcDbEntity
  8
1
  6
Continuous
 62
     7
100
AcDbLine
 10
1185.174999999999
 20
748.36875
 30
0.0
 11
1175.175
 21
758.3687499999999
 31
0.0
  0
LINE
  5
547
330
17B
100
AcDbEntity
  8
1
  6
Continuous
 62
     7
100
AcDbLine
 10
1175.175
 20
758.3687499999999
 30
0.0
 11
1165.175
 21
748.36875
 31
0.0
  0
LINE
  5
548
330
17B
100
AcDbEntity
  8
1
  6
Continuous
 62
     7
100
AcDbLine
 10
1165.175
 20
748.36875
 30
0.0
 11
1155.175
 21
758.3687499999999
 31
0.0
  0
LINE
  5
549
330
17B
100
AcDbEntity
  8
1
  6
Continuous
 62
     7
100
AcDbLine
 10
1155.175
 20
758.3687499999999
 30
0.0
 11
1145.175
 21
748.36875
 31
0.0
  0
LINE
  5
54A
330
17B
100
AcDbEntity
  8
1
  6
Continuous
 62
     7
100
AcDbLine
 10
1145.175
 20
748.36875
 30
0.0
 11
1135.175
 21
758.3687499999999
 31
0.0
  0
LINE
  5
54B
330
17B
100
AcDbEntity
  8
1
  6
Continuous
 62
     7
100
AcDbLine
 10
1135.175
 20
758.3687499999999
 30
0.0
 11
1125.175
 21
748.36875
 31
0.0
  0
LINE
  5
54C
330
17B
100
AcDbEntity
  8
1
  6
Continuous
 62
     7
100
AcDbLine
 10
1255.175
 20
548.36875
 30
0.0
 11
1265.175
 21
748.36875
 31
0.0
  0
LINE
  5
54D
330
17B
100
AcDbEntity
  8
1
  6
Continuous
 62
     7
100
AcDbLine
 10
1245.175
 20
748.36875
 30
0.0
 11
1235.174999999999
 21
548.36875
 31
0.0
  0
LINE
  5
54E
330
17B
100
AcDbEntity
  8
1
  6
Continuous
 62
     7
100
AcDbLine
 10
1215.175
 20
548.36875
 30
0.0
 11
1225.175
 21
748.36875
 31
0.0
  0
LINE
  5
54F
330
17B
100
AcDbEntity
  8
1
  6
Continuous
 62
     7
100
AcDbLine
 10
1205.175
 20
748.36875
 30
0.0
 11
1195.175
 21
548.36875
 31
0.0
  0
LINE
  5
550
330
17B
100
AcDbEntity
  8
1
  6
Continuous
 62
     7
100
AcDbLine
 10
1175.175
 20
548.36875
 30
0.0
 11
1185.174999999999
 21
748.36875
 31
0.0
  0
LINE
  5
551
330
17B
100
AcDbEntity
  8
1
  6
Continuous
 62
     7
100
AcDbLine
 10
1165.175
 20
748.36875
 30
0.0
 11
1155.175
 21
548.36875
 31
0.0
  0
LINE
  5
552
330
17B
100
AcDbEntity
  8
1
  6
Continuous
 62
     7
100
AcDbLine
 10
1135.175
 20
548.36875
 30
0.0
 11
1145.175
 21
748.36875
 31
0.0
  0
LINE
  5
553
330
17B
100
AcDbEntity
  8
1
  6
Continuous
 62
     7
100
AcDbLine
 10
1135.175
 20
548.36875
 30
0.0
 11
1125.175
 21
538.3687499999998
 31
0.0
  0
LINE
  5
590
330
17B
100
AcDbEntity
  8
1
  6
Continuous
 62
     7
100
AcDbLine
 10
907.9612310702335
 20
778.909960576234
 30
0.0
 11
907.9612310702318
 21
778.909960576234
 31
0.0
  0
LINE
  5
591
330
17B
100
AcDbEntity
  8
1
  6
Continuous
 62
     7
100
AcDbLine
 10
907.9612310702318
 20
778.909960576234
 30
0.0
 11
859.3440533190147
 21
774.1215865122517
 31
0.0
  0
LINE
  5
592
330
17B
100
AcDbEntity
  8
1
  6
Continuous
 62
     7
100
AcDbLine
 10
859.3440533190147
 20
774.1215865122517
 30
0.0
 11
812.5952064439495
 21
759.940478850233
 31
0.0
  0
LINE
  5
593
330
17B
100
AcDbEntity
  8
1
  6
Continuous
 62
     7
100
AcDbLine
 10
812.5952064439495
 20
759.940478850233
 30
0.0
 11
769.5112224133896
 21
736.9116096047726
 31
0.0
  0
LINE
  5
594
330
17B
100
AcDbEntity
  8
1
  6
Continuous
 62
     7
100
AcDbLine
 10
769.5112224133896
 20
736.9116096047726
 30
0.0
 11
731.7477945718527
 21
705.9199653062346
 31
0.0
  0
LINE
  5
595
330
17B
100
AcDbEntity
  8
1
  6
Continuous
 62
     7
100
AcDbLine
 10
731.7477945718527
 20
705.9199653062346
 30
0.0
 11
700.756150273315
 21
668.1565374646976
 31
0.0
  0
LINE
  5
596
330
17B
100
AcDbEntity
  8
1
  6
Continuous
 62
     7
100
AcDbLine
 10
700.756150273315
 20
668.1565374646976
 30
0.0
 11
677.7272810278547
 21
625.0725534341376
 31
0.0
  0
LINE
  5
597
330
17B
100
AcDbEntity
  8
1
  6
Continuous
 62
     7
100
AcDbLine
 10
677.7272810278547
 20
625.0725534341376
 30
0.0
 11
663.5461733658361
 21
578.3237065590723
 31
0.0
  0
LINE
  5
598
330
17B
100
AcDbEntity
  8
1
  6
Continuous
 62
     7
100
AcDbLine
 10
663.5461733658361
 20
578.3237065590723
 30
0.0
 11
658.6260395896869
 21
528.36875
 31
0.0
  0
LINE
  5
599
330
17B
100
AcDbEntity
  8
1
  6
Continuous
 62
     7
100
AcDbLine
 10
658.6260395896869
 20
528.36875
 30
0.0
 11
639.54375
 21
528.36875
 31
0.0
  0
LINE
  5
59B
330
17B
100
AcDbEntity
  8
1
  6
Continuous
 62
     7
100
AcDbLine
 10
919.54375
 20
748.36875
 30
0.0
 11
865.0837912281964
 21
745.2659754469715
 31
0.0
  0
LINE
  5
59C
330
17B
100
AcDbEntity
  8
1
  6
Continuous
 62
     7
100
AcDbLine
 10
865.0837912281964
 20
745.2659754469715
 30
0.0
 11
823.8541073533449
 21
732.759087577356
 31
0.0
  0
LINE
  5
59D
330
17B
100
AcDbEntity
  8
1
  6
Continuous
 62
     7
100
AcDbLine
 10
823.8541073533449
 20
732.759087577356
 30
0.0
 11
785.8566130751151
 21
712.4490037474156
 31
0.0
  0
LINE
  5
59E
330
17B
100
AcDbEntity
  8
1
  6
Continuous
 62
     7
100
AcDbLine
 10
785.8566130751151
 20
712.4490037474156
 30
0.0
 11
752.551530789379
 21
685.1162290887084
 31
0.0
  0
LINE
  5
59F
330
17B
100
AcDbEntity
  8
1
  6
Continuous
 62
     7
100
AcDbLine
 10
752.551530789379
 20
685.1162290887084
 30
0.0
 11
725.2187561306721
 21
651.8111468029721
 31
0.0
  0
LINE
  5
5A0
330
17B
100
AcDbEntity
  8
1
  6
Continuous
 62
     7
100
AcDbLine
 10
725.2187561306721
 20
651.8111468029721
 30
0.0
 11
704.9086723007317
 21
613.8136525247422
 31
0.0
  0
LINE
  5
5A1
330
17B
100
AcDbEntity
  8
1
  6
Continuous
 62
     7
100
AcDbLine
 10
704.9086723007317
 20
613.8136525247422
 30
0.0
 11
692.4017844311164
 21
572.5839686498907
 31
0.0
  0
LINE
  5
5A2
330
17B
100
AcDbEntity
  8
1
  6
Continuous
 62
     7
100
AcDbLine
 10
692.4017844311164
 20
572.5839686498907
 30
0.0
 11
687.0620514629731
 21
518.3687499999998
 31
0.0
  0
LINE
  5
5A3
330
17B
100
AcDbEntity
  8
1
  6
Continuous
 62
     7
100
AcDbLine
 10
687.0620514629731
 20
518.3687499999998
 30
0.0
 11
889.5437499999998
 21
518.3687499999998
 31
0.0
  0
ENDSEC
  0
SECTION
  2
OBJECTS
  0
DICTIONARY
  5
169
330
0
100
AcDbDictionary
281
     1
  3
ACAD_COLOR
350
2D6
  3
ACAD_GROUP
350
16A
  3
ACAD_LAYOUT
350
176
  3
ACAD_MATERIAL
350
2C1
  3
ACAD_MLEADERSTYLE
350
582
  3
ACAD_MLINESTYLE
350
173
  3
ACAD_PLOTSETTINGS
350
175
  3
ACAD_PLOTSTYLENAME
350
16B
  3
ACAD_SCALELIST
350
560
  3
ACAD_TABLESTYLE
350
2D7
  3
ACAD_VISUALSTYLE
350
2C5
  3
ACDB_RECOMPOSE_DATA
350
5B1
  3
AcDbVariableDictionary
350
346
  3
DWGPROPS
350
5B2
  0
DICTIONARY
  5
5A4
330
16D
100
AcDbDictionary
280
     1
281
     1
  3
ADSK_XREC_LAYER_RECONCILED
360
5A5
  0
DICTIONARY
  5
5A6
330
186
100
AcDbDictionary
280
     1
281
     1
  3
ADSK_XREC_LAYER_RECONCILED
360
5A7
  0
DICTIONARY
  5
5A8
330
187
100
AcDbDictionary
280
     1
281
     1
  3
ADSK_XREC_LAYER_RECONCILED
360
5A9
  0
DICTIONARY
  5
5AA
330
188
100
AcDbDictionary
280
     1
281
     1
  3
ADSK_XREC_LAYER_RECONCILED
360
5AB
  0
DICTIONARY
  5
36A
330
17B
100
AcDbDictionary
280
     1
281
     1
  3
ACAD_SORTENTS
360
36B
  0
DICTIONARY
  5
2D6
102
{ACAD_REACTORS
330
169
102
}
330
169
100
AcDbDictionary
281
     1
  0
DICTIONARY
  5
16A
102
{ACAD_REACTORS
330
169
102
}
330
169
100
AcDbDictionary
281
     1
  0
DICTIONARY
  5
176
102
{ACAD_REACTORS
330
169
102
}
330
169
100
AcDbDictionary
281
     1
  3
Layout1
350
17A
  3
Model
350
17E
  0
DICTIONARY
  5
2C1
102
{ACAD_REACTORS
330
169
102
}
330
169
100
AcDbDictionary
281
     1
  3
ByBlock
350
2C3
  3
ByLayer
350
2C2
  3
Global
350
2C4
  0
DICTIONARY
  5
582
102
{ACAD_REACTORS
330
169
102
}
330
169
100
AcDbDictionary
281
     1
  3
Standard
350
583
  0
DICTIONARY
  5
173
102
{ACAD_REACTORS
330
169
102
}
330
169
100
AcDbDictionary
281
     1
  3
Standard
350
174
  0
DICTIONARY
  5
175
102
{ACAD_REACTORS
330
169
102
}
330
169
100
AcDbDictionary
281
     1
  0
ACDBDICTIONARYWDFLT
  5
16B
102
{ACAD_REACTORS
330
169
102
}
330
169
100
AcDbDictionary
281
     1
  3
Normal
350
16C
100
AcDbDictionaryWithDefault
340
16C
  0
DICTIONARY
  5
560
102
{ACAD_REACTORS
330
169
102
}
330
169
100
AcDbDictionary
281
     1
  3
A0
350
561
  3
A1
350
562
  3
A2
350
563
  3
A3
350
564
  3
A4
350
565
  3
A5
350
566
  3
A6
350
567
  3
A7
350
568
  3
A8
350
569
  3
A9
350
56A
  3
B0
350
56B
  3
B1
350
56C
  3
B2
350
56D
  3
B3
350
56E
  3
B4
350
56F
  3
B5
350
570
  3
B6
350
571
  3
B7
350
572
  3
B8
350
573
  3
B9
350
574
  3
C0
350
575
  3
C1
350
576
  3
C2
350
577
  3
C3
350
578
  3
C4
350
579
  3
C5
350
57A
  3
C6
350
57B
  3
C7
350
57C
  3
C8
350
57D
  3
C9
350
57E
  3
D0
350
57F
  3
D1
350
580
  3
D2
350
581
  0
DICTIONARY
  5
2D7
102
{ACAD_REACTORS
330
169
102
}
330
169
100
AcDbDictionary
281
     1
  3
Standard
350
2D8
  0
DICTIONARY
  5
2C5
102
{ACAD_REACTORS
330
169
102
}
330
169
100
AcDbDictionary
281
     1
  3
2dWireframe
350
2CB
  3
3D Hidden
350
2CD
  3
3dWireframe
350
2CC
  3
Basic
350
2CA
  3
Brighten
350
2D1
  3
ColorChange
350
2D5
  3
Conceptual
350
2CE
  3
Dim
350
2D0
  3
EdgeColorOff
350
55F
  3
Facepattern
350
2D4
  3
Flat
350
2C6
  3
FlatWithEdges
350
2C7
  3
Gouraud
350
2C8
  3
GouraudWithEdges
350
2C9
  3
JitterOff
350
55D
  3
Linepattern
350
2D3
  3
OverhangOff
350
55E
  3
Realistic
350
2CF
  3
Thicken
350
2D2
  0
XRECORD
  5
5B1
102
{ACAD_REACTORS
330
169
102
}
330
169
100
AcDbXrecord
280
     1
 90
        1
330
2D8
  0
DICTIONARY
  5
346
102
{ACAD_REACTORS
330
169
102
}
330
169
100
AcDbDictionary
281
     1
  3
CANNOSCALE
350
5AD
  3
CMLEADERSTYLE
350
5AC
  3
CTABLESTYLE
350
347
  3
DIMASSOC
350
46E
  3
INDEXCTL
350
46D
  3
SORTENTS
350
46C
  3
XCLIPFRAME
350
5AE
  0
XRECORD
  5
5B2
102
{ACAD_REACTORS
330
169
102
}
330
169
100
AcDbXrecord
280
     1
  1
DWGPROPS COOKIE
  2

  3

  4

  6

  7

  8
John
  9

300
=
301
=
302
=
303
=
304
=
305
=
306
=
307
=
308
=
309
=
 40
0.0185778587962963
 41
2453238.659525463
 42
2456696.420110093
  1

 90
        0
  0
XRECORD
  5
5A5
102
{ACAD_REACTORS
330
5A4
102
}
330
5A4
100
AcDbXrecord
280
     1
290
     1
  0
XRECORD
  5
5A7
102
{ACAD_REACTORS
330
5A6
102
}
330
5A6
100
AcDbXrecord
280
     1
290
     1
  0
XRECORD
  5
5A9
102
{ACAD_REACTORS
330
5A8
102
}
330
5A8
100
AcDbXrecord
280
     1
290
     1
  0
XRECORD
  5
5AB
102
{ACAD_REACTORS
330
5AA
102
}
330
5AA
100
AcDbXrecord
280
     1
290
     1
  0
SORTENTSTABLE
  5
36B
102
{ACAD_REACTORS
330
36A
102
}
330
36A
100
AcDbSortentsTable
330
17B
331
3BE
  5
3BE
331
36C
  5
392
331
456
  5
461
331
37F
  5
399
331
3B6
  5
38B
331
3F5
  5
3F4
331
4E4
  5
4E4
331
452
  5
44F
331
368
  5
38F
331
37B
  5
38D
331
3B2
  5
386
331
3F1
  5
3F0
331
4A5
  5
4A5
331
51F
  5
51F
331
4E0
  5
4E0
331
44E
  5
44D
331
18C
  5
18C
331
4A1
  5
4A1
331
51B
  5
51B
331
4DC
  5
4DC
331
44A
  5
449
331
4D8
  5
4D8
331
552
  5
552
331
5A1
  5
5A1
331
3ED
  5
3F6
331
377
  5
369
331
3E9
  5
3E9
331
49D
  5
49D
331
373
  5
368
331
517
  5
517
331
446
  5
446
331
3E5
  5
3E7
331
499
  5
499
331
513
  5
513
331
4D4
  5
4D4
331
442
  5
442
331
367
  5
367
331
495
  5
495
331
50F
  5
50F
331
54E
  5
54E
331
4D0
  5
4D0
331
43E
  5
43E
331
3E1
  5
3E1
331
491
  5
491
331
50B
  5
50B
331
59D
  5
59D
331
54A
  5
54A
331
4CC
  5
4CC
331
43A
  5
43A
331
599
  5
598
331
546
  5
546
331
4C8
  5
4C8
331
595
  5
594
331
542
  5
542
331
591
  5
590
331
3DD
  5
3DD
331
396
  5
37F
331
3D9
  5
3D9
331
48D
  5
48D
331
343
  5
343
331
507
  5
507
331
436
  5
435
331
3D5
  5
3D5
331
489
  5
489
331
503
  5
503
331
4C4
  5
4C4
331
432
  5
431
331
33F
  5
33F
331
485
  5
485
331
4FF
  5
4FF
331
53E
  5
53E
331
4C0
  5
4C0
331
42E
  5
43C
331
38A
  5
379
331
3D1
  5
3D1
331
4FB
  5
4FB
331
53A
  5
53A
331
4BC
  5
4BC
331
481
  5
481
331
308
  5
308
331
536
  5
536
331
4B8
  5
4B8
331
532
  5
532
331
307
  5
307
331
3CD
  5
3CD
331
3C9
  5
3C9
331
4F7
  5
4F7
331
465
  5
45B
331
382
  5
3B1
331
4F3
  5
4F3
331
4B4
  5
4B4
331
461
  5
455
331
3C5
  5
3C6
331
4EF
  5
4EF
331
52E
  5
52E
331
4B0
  5
4B0
331
3FE
  5
3FF
331
45D
  5
451
331
3C1
  5
3C1
331
4EB
  5
4EB
331
52A
  5
52A
331
4AC
  5
4AC
331
3FA
  5
3FB
331
459
  5
464
331
526
  5
526
331
4A8
  5
4A8
331
522
  5
522
331
36F
  5
394
331
3BD
  5
3BD
331
3B9
  5
3B9
331
4E7
  5
4E7
331
455
  5
460
331
37E
  5
398
331
4E3
  5
4E3
331
451
  5
45C
331
3B5
  5
38A
331
3F4
  5
3F3
331
4A4
  5
4A4
331
18B
  5
18B
331
37A
  5
38C
331
51E
  5
51E
331
4DF
  5
4DF
331
44D
  5
44C
331
3B1
  5
384
331
3F0
  5
3EF
331
4A0
  5
4A0
331
51A
  5
51A
331
4DB
  5
4DB
331
449
  5
448
331
551
  5
551
331
5A0
  5
5A0
331
3EC
  5
3EC
331
376
  5
36E
331
3E8
  5
3E4
331
49C
  5
49C
331
372
  5
397
331
516
  5
516
331
4D7
  5
4D7
331
445
  5
445
331
498
  5
498
331
366
  5
366
331
512
  5
512
331
4D3
  5
4D3
331
441
  5
441
331
3E4
  5
3E5
331
494
  5
494
331
50E
  5
50E
331
54D
  5
54D
331
4CF
  5
4CF
331
43D
  5
43D
331
399
  5
37A
331
3E0
  5
3E0
331
490
  5
490
331
50A
  5
50A
331
59C
  5
59C
331
549
  5
549
331
4CB
  5
4CB
331
439
  5
439
331
598
  5
597
331
545
  5
545
331
594
  5
593
331
541
  5
541
331
590
  5
58F
331
3DC
  5
3DC
331
395
  5
37E
331
391
  5
3B6
331
3D8
  5
3D8
331
48C
  5
48C
331
342
  5
342
331
506
  5
506
331
4C7
  5
4C7
331
435
  5
434
331
38D
  5
372
331
3D4
  5
3D4
331
502
  5
502
331
4C3
  5
4C3
331
431
  5
430
331
33E
  5
33E
331
389
  5
378
331
3D0
  5
3D0
331
484
  5
484
331
4FE
  5
4FE
331
53D
  5
53D
331
4BF
  5
4BF
331
42D
  5
42D
331
30B
  5
30B
331
4FA
  5
4FA
331
539
  5
539
331
4BB
  5
4BB
331
480
  5
480
331
535
  5
535
331
531
  5
531
331
3CC
  5
3CC
331
306
  5
306
331
3C8
  5
3C8
331
4F6
  5
4F6
331
4B7
  5
4B7
331
464
  5
458
331
381
  5
3B0
331
4F2
  5
4F2
331
4B3
  5
4B3
331
460
  5
454
331
3C4
  5
3C4
331
4EE
  5
4EE
331
52D
  5
52D
331
4AF
  5
4AF
331
3FD
  5
3FE
331
45C
  5
467
331
4EA
  5
4EA
331
529
  5
529
331
4AB
  5
4AB
331
3F9
  5
3FA
331
458
  5
463
331
525
  5
525
331
521
  5
521
331
36E
  5
3B7
331
3BC
  5
3BC
331
4E6
  5
4E6
331
454
  5
45F
331
3B8
  5
3B8
331
3F7
  5
3F8
331
4A7
  5
4A7
331
4E2
  5
4E2
331
450
  5
450
331
3B4
  5
388
331
3F3
  5
3F2
331
4A3
  5
4A3
331
379
  5
370
331
51D
  5
51D
331
4DE
  5
4DE
331
44C
  5
44B
331
3B0
  5
382
331
519
  5
519
331
4DA
  5
4DA
331
448
  5
447
331
5A3
  5
5A3
331
550
  5
550
331
3EF
  5
3EE
331
3EB
  5
3EB
331
49F
  5
49F
331
375
  5
36D
331
3E7
  5
3E6
331
515
  5
515
331
4D6
  5
4D6
331
49B
  5
49B
331
371
  5
396
331
497
  5
497
331
511
  5
511
331
4D2
  5
4D2
331
440
  5
440
331
3E3
  5
3E3
331
493
  5
493
331
50D
  5
50D
331
59F
  5
59F
331
54C
  5
54C
331
4CE
  5
4CE
331
43C
  5
436
331
398
  5
37C
331
509
  5
509
331
59B
  5
59B
331
548
  5
548
331
4CA
  5
4CA
331
438
  5
438
331
597
  5
596
331
544
  5
544
331
593
  5
592
331
540
  5
540
331
3DF
  5
3DF
331
3DB
  5
3DB
331
48F
  5
48F
331
345
  5
345
331
394
  5
37D
331
390
  5
3B5
331
3D7
  5
3D7
331
341
  5
341
331
505
  5
505
331
4C6
  5
4C6
331
434
  5
433
331
487
  5
487
331
501
  5
501
331
4C2
  5
4C2
331
430
  5
42F
331
38C
  5
375
331
3D3
  5
3D3
331
483
  5
483
331
4FD
  5
4FD
331
53C
  5
53C
331
4BE
  5
4BE
331
42C
  5
42C
331
30A
  5
30A
331
4F9
  5
4F9
331
538
  5
538
331
4BA
  5
4BA
331
534
  5
534
331
530
  5
530
331
3CF
  5
3CF
331
3CB
  5
3CB
331
305
  5
305
331
384
  5
3B3
331
467
  5
45A
331
380
  5
3AF
331
4F5
  5
4F5
331
4B6
  5
4B6
331
463
  5
457
331
3C7
  5
3C7
331
4F1
  5
4F1
331
4B2
  5
4B2
331
400
  5
3F7
331
45F
  5
453
331
3C3
  5
3C3
331
4ED
  5
4ED
331
52C
  5
52C
331
4AE
  5
4AE
331
3FC
  5
3FD
331
45B
  5
466
331
4E9
  5
4E9
331
528
  5
528
331
4AA
  5
4AA
331
3F8
  5
3F9
331
524
  5
524
331
520
  5
520
331
3BF
  5
3BF
331
36D
  5
393
331
457
  5
462
331
3F6
  5
3F5
331
4E5
  5
4E5
331
453
  5
45E
331
369
  5
391
331
4A6
  5
4A6
331
37C
  5
38E
331
4E1
  5
4E1
331
44F
  5
44E
331
3B3
  5
387
331
3F2
  5
3F1
331
4A2
  5
4A2
331
378
  5
36F
331
51C
  5
51C
331
4DD
  5
4DD
331
44B
  5
44A
331
518
  5
518
331
4D9
  5
4D9
331
553
  5
553
331
5A2
  5
5A2
331
3EE
  5
3ED
331
3AF
  5
381
331
3EA
  5
3EA
331
49E
  5
49E
331
374
  5
36C
331
447
  5
45D
331
3E6
  5
3E8
331
514
  5
514
331
4D5
  5
4D5
331
370
  5
395
331
496
  5
496
331
510
  5
510
331
54F
  5
54F
331
4D1
  5
4D1
331
43F
  5
43F
331
3E2
  5
3E2
331
492
  5
492
331
50C
  5
50C
331
59E
  5
59E
331
54B
  5
54B
331
4CD
  5
4CD
331
43B
  5
43B
331
508
  5
508
331
547
  5
547
331
4C9
  5
4C9
331
596
  5
595
331
543
  5
543
331
592
  5
591
331
397
  5
380
331
3DE
  5
3DE
331
3DA
  5
3DA
331
48E
  5
48E
331
344
  5
344
331
437
  5
437
331
393
  5
37B
331
38F
  5
3B4
331
3D6
  5
3D6
331
340
  5
340
331
504
  5
504
331
4C5
  5
4C5
331
433
  5
432
331
486
  5
486
331
500
  5
500
331
53F
  5
53F
331
4C1
  5
4C1
331
42F
  5
42E
331
38B
  5
377
331
3D2
  5
3D2
331
4FC
  5
4FC
331
53B
  5
53B
331
4BD
  5
4BD
331
482
  5
482
331
309
  5
309
331
4F8
  5
4F8
331
537
  5
537
331
4B9
  5
4B9
331
533
  5
533
331
3CE
  5
3CE
331
3CA
  5
3CA
331
304
  5
304
331
383
  5
3B2
331
466
  5
459
331
4F4
  5
4F4
331
4B5
  5
4B5
331
462
  5
456
331
3C6
  5
3C5
331
4F0
  5
4F0
331
52F
  5
52F
331
4B1
  5
4B1
331
3FF
  5
400
331
45E
  5
452
331
3C2
  5
3C2
331
4EC
  5
4EC
331
52B
  5
52B
331
4AD
  5
4AD
331
3FB
  5
3FC
331
45A
  5
465
331
4E8
  5
4E8
331
527
  5
527
331
4A9
  5
4A9
331
523
  5
523
  0
LAYOUT
  5
17A
102
{ACAD_XDICTIONARY
360
5B3
102
}
102
{ACAD_REACTORS
330
176
102
}
330
176
100
AcDbPlotSettings
  1

  2
HP DeskJet 840C/841C/842C/843C
  4

  6

 40
0.0
 41
0.0
 42
0.0
 43
0.0
 44
0.0
 45
0.0
 46
0.0
 47
0.0
 48
0.0
 49
0.0
140
0.0
141
0.0
142
1.0
143
1.0
 70
   688
 72
     0
 73
     0
 74
     5
  7

 75
    16
147
1.0
148
0.0
149
0.0
100
AcDbLayout
  1
Layout1
 70
     0
 71
     1
 10
0.0
 20
0.0
 11
12.0
 21
9.0
 12
0.0
 22
0.0
 32
0.0
 14
-1.000000000000000E+20
 24
-1.000000000000000E+20
 34
-1.000000000000000E+20
 15
-1.000000000000000E+20
 25
-1.000000000000000E+20
 35
-1.000000000000000E+20
146
0.0
 13
0.0
 23
0.0
 33
0.0
 16
1.0
 26
0.0
 36
0.0
 17
0.0
 27
1.0
 37
0.0
 76
     0
330
177
  0
LAYOUT
  5
17E
102
{ACAD_XDICTIONARY
360
5B5
102
}
102
{ACAD_REACTORS
330
176
102
}
330
176
100
AcDbPlotSettings
  1

  2
HP DeskJet 840C/841C/842C/843C
  4

  6

 40
0.0
 41
0.0
 42
0.0
 43
0.0
 44
0.0
 45
0.0
 46
0.0
 47
0.0
 48
0.0
 49
0.0
140
0.0
141
0.0
142
1.0
143
1.0
 70
  1712
 72
     0
 73
     0
 74
     0
  7

 75
     0
147
1.0
148
0.0
149
0.0
100
AcDbLayout
  1
Model
 70
     1
 71
     0
 10
0.0
 20
0.0
 11
12.0
 21
9.0
 12
0.0
 22
0.0
 32
0.0
 14
0.0
 24
0.0
 34
0.0
 15
0.0
 25
0.0
 35
0.0
146
0.0
 13
0.0
 23
0.0
 33
0.0
 16
1.0
 26
0.0
 36
0.0
 17
0.0
 27
1.0
 37
0.0
 76
     0
330
17B
331
2BE
  0
MATERIAL
  5
2C3
102
{ACAD_XDICTIONARY
360
476
102
}
102
{ACAD_REACTORS
330
2C1
102
}
330
2C1
100
AcDbMaterial
  1
ByBlock
  0
MATERIAL
  5
2C2
102
{ACAD_XDICTIONARY
360
474
102
}
102
{ACAD_REACTORS
330
2C1
102
}
330
2C1
100
AcDbMaterial
  1
ByLayer
  0
MATERIAL
  5
2C4
102
{ACAD_XDICTIONARY
360
478
102
}
102
{ACAD_REACTORS
330
2C1
102
}
330
2C1
100
AcDbMaterial
  1
Global
  0
MLEADERSTYLE
  5
583
102
{ACAD_REACTORS
330
582
102
}
330
582
100
AcDbMLeaderStyle
170
     2
171
     1
172
     0
 90
        2
 40
0.0
 41
0.0
173
     1
 91
-1056964608
340
170
 92
       -2
290
     1
 42
0.09
291
     1
 43
0.36
  3
Standard
 44
0.18
300

342
16E
174
     1
178
     6
175
     1
176
     0
 93
-1056964608
 45
0.18
292
     0
297
     0
 46
0.18
 94
-1056964608
 47
1.0
 49
1.0
140
1.0
293
     1
141
0.0
294
     1
177
     0
142
1.0
295
     0
296
     0
143
0.125
1001
ACAD_MLEADERVER
1070
     2
  0
MLINESTYLE
  5
174
102
{ACAD_REACTORS
330
173
102
}
330
173
100
AcDbMlineStyle
  2
STANDARD
 70
     0
  3

 62
   256
 51
90.0
 52
90.0
 71
     2
 49
0.5
 62
   256
  6
BYLAYER
 49
-0.5
 62
   256
  6
BYLAYER
  0
ACDBPLACEHOLDER
  5
16C
102
{ACAD_REACTORS
330
16B
102
}
330
16B
  0
SCALE
  5
561
102
{ACAD_REACTORS
330
560
102
}
330
560
100
AcDbScale
 70
     0
300
1:1
140
1.0
141
1.0
290
     1
  0
SCALE
  5
562
102
{ACAD_REACTORS
330
560
102
}
330
560
100
AcDbScale
 70
     0
300
1:2
140
1.0
141
2.0
290
     0
  0
SCALE
  5
563
102
{ACAD_REACTORS
330
560
102
}
330
560
100
AcDbScale
 70
     0
300
1:4
140
1.0
141
4.0
290
     0
  0
SCALE
  5
564
102
{ACAD_REACTORS
330
560
102
}
330
560
100
AcDbScale
 70
     0
300
1:5
140
1.0
141
5.0
290
     0
  0
SCALE
  5
565
102
{ACAD_REACTORS
330
560
102
}
330
560
100
AcDbScale
 70
     0
300
1:8
140
1.0
141
8.0
290
     0
  0
SCALE
  5
566
102
{ACAD_REACTORS
330
560
102
}
330
560
100
AcDbScale
 70
     0
300
1:10
140
1.0
141
10.0
290
     0
  0
SCALE
  5
567
102
{ACAD_REACTORS
330
560
102
}
330
560
100
AcDbScale
 70
     0
300
1:16
140
1.0
141
16.0
290
     0
  0
SCALE
  5
568
102
{ACAD_REACTORS
330
560
102
}
330
560
100
AcDbScale
 70
     0
300
1:20
140
1.0
141
20.0
290
     0
  0
SCALE
  5
569
102
{ACAD_REACTORS
330
560
102
}
330
560
100
AcDbScale
 70
     0
300
1:30
140
1.0
141
30.0
290
     0
  0
SCALE
  5
56A
102
{ACAD_REACTORS
330
560
102
}
330
560
100
AcDbScale
 70
     0
300
1:40
140
1.0
141
40.0
290
     0
  0
SCALE
  5
56B
102
{ACAD_REACTORS
330
560
102
}
330
560
100
AcDbScale
 70
     0
300
1:50
140
1.0
141
50.0
290
     0
  0
SCALE
  5
56C
102
{ACAD_REACTORS
330
560
102
}
330
560
100
AcDbScale
 70
     0
300
1:100
140
1.0
141
100.0
290
     0
  0
SCALE
  5
56D
102
{ACAD_REACTORS
330
560
102
}
330
560
100
AcDbScale
 70
     0
300
2:1
140
2.0
141
1.0
290
     0
  0
SCALE
  5
56E
102
{ACAD_REACTORS
330
560
102
}
330
560
100
AcDbScale
 70
     0
300
4:1
140
4.0
141
1.0
290
     0
  0
SCALE
  5
56F
102
{ACAD_REACTORS
330
560
102
}
330
560
100
AcDbScale
 70
     0
300
8:1
140
8.0
141
1.0
290
     0
  0
SCALE
  5
570
102
{ACAD_REACTORS
330
560
102
}
330
560
100
AcDbScale
 70
     0
300
10:1
140
10.0
141
1.0
290
     0
  0
SCALE
  5
571
102
{ACAD_REACTORS
330
560
102
}
330
560
100
AcDbScale
 70
     0
300
100:1
140
100.0
141
1.0
290
     0
  0
SCALE
  5
572
102
{ACAD_REACTORS
330
560
102
}
330
560
100
AcDbScale
 70
     0
300
1/128" = 1'-0"
140
0.0078125
141
12.0
290
     0
  0
SCALE
  5
573
102
{ACAD_REACTORS
330
560
102
}
330
560
100
AcDbScale
 70
     0
300
1/64" = 1'-0"
140
0.015625
141
12.0
290
     0
  0
SCALE
  5
574
102
{ACAD_REACTORS
330
560
102
}
330
560
100
AcDbScale
 70
     0
300
1/32" = 1'-0"
140
0.03125
141
12.0
290
     0
  0
SCALE
  5
575
102
{ACAD_REACTORS
330
560
102
}
330
560
100
AcDbScale
 70
     0
300
1/16" = 1'-0"
140
0.0625
141
12.0
290
     0
  0
SCALE
  5
576
102
{ACAD_REACTORS
330
560
102
}
330
560
100
AcDbScale
 70
     0
300
3/32" = 1'-0"
140
0.09375
141
12.0
290
     0
  0
SCALE
  5
577
102
{ACAD_REACTORS
330
560
102
}
330
560
100
AcDbScale
 70
     0
300
1/8" = 1'-0"
140
0.125
141
12.0
290
     0
  0
SCALE
  5
578
102
{ACAD_REACTORS
330
560
102
}
330
560
100
AcDbScale
 70
     0
300
3/16" = 1'-0"
140
0.1875
141
12.0
290
     0
  0
SCALE
  5
579
102
{ACAD_REACTORS
330
560
102
}
330
560
100
AcDbScale
 70
     0
300
1/4" = 1'-0"
140
0.25
141
12.0
290
     0
  0
SCALE
  5
57A
102
{ACAD_REACTORS
330
560
102
}
330
560
100
AcDbScale
 70
     0
300
3/8" = 1'-0"
140
0.375
141
12.0
290
     0
  0
SCALE
  5
57B
102
{ACAD_REACTORS
330
560
102
}
330
560
100
AcDbScale
 70
     0
300
1/2" = 1'-0"
140
0.5
141
12.0
290
     0
  0
SCALE
  5
57C
102
{ACAD_REACTORS
330
560
102
}
330
560
100
AcDbScale
 70
     0
300
3/4" = 1'-0"
140
0.75
141
12.0
290
     0
  0
SCALE
  5
57D
102
{ACAD_REACTORS
330
560
102
}
330
560
100
AcDbScale
 70
     0
300
1" = 1'-0"
140
1.0
141
12.0
290
     0
  0
SCALE
  5
57E
102
{ACAD_REACTORS
330
560
102
}
330
560
100
AcDbScale
 70
     0
300
1-1/2" = 1'-0"
140
1.5
141
12.0
290
     0
  0
SCALE
  5
57F
102
{ACAD_REACTORS
330
560
102
}
330
560
100
AcDbScale
 70
     0
300
3" = 1'-0"
140
3.0
141
12.0
290
     0
  0
SCALE
  5
580
102
{ACAD_REACTORS
330
560
102
}
330
560
100
AcDbScale
 70
     0
300
6" = 1'-0"
140
6.0
141
12.0
290
     0
  0
SCALE
  5
581
102
{ACAD_REACTORS
330
560
102
}
330
560
100
AcDbScale
 70
     0
300
1'-0" = 1'-0"
140
12.0
141
12.0
290
     0
  0
TABLESTYLE
  5
2D8
102
{ACAD_XDICTIONARY
360
5AF
102
}
102
{ACAD_REACTORS
330
2D7
102
}
330
2D7
100
AcDbTableStyle
  3
Standard
 70
     0
 71
     0
 40
0.06
 41
0.06
280
     0
281
     0
  7
STANDARD
140
0.18
170
     2
 62
     0
 63
     7
283
     0
274
    -2
284
     1
 64
     0
275
    -2
285
     1
 65
     0
276
    -2
286
     1
 66
     0
277
    -2
287
     1
 67
     0
278
    -2
288
     1
 68
     0
279
    -2
289
     1
 69
     0
  7
STANDARD
140
0.25
170
     5
 62
     0
 63
     7
283
     0
274
    -2
284
     1
 64
     0
275
    -2
285
     1
 65
     0
276
    -2
286
     1
 66
     0
277
    -2
287
     1
 67
     0
278
    -2
288
     1
 68
     0
279
    -2
289
     1
 69
     0
  7
STANDARD
140
0.18
170
     5
 62
     0
 63
     7
283
     0
274
    -2
284
     1
 64
     0
275
    -2
285
     1
 65
     0
276
    -2
286
     1
 66
     0
277
    -2
287
     1
 67
     0
278
    -2
288
     1
 68
     0
279
    -2
289
     1
 69
     0
  0
VISUALSTYLE
  5
2CB
102
{ACAD_XDICTIONARY
360
5C1
102
}
102
{ACAD_REACTORS
330
2C5
102
}
330
2C5
100
AcDbVisualStyle
  2

 70
     4
 71
     0
 72
     2
 73
     0
 90
        0
 40
-0.6
 41
-30.0
 62
     5
 63
     7
 74
     1
 91
        4
 64
     7
 65
   257
 75
     1
175
     1
 42
1.0
 92
        0
 66
   257
 43
1.0
 76
     1
 77
     6
 78
     2
 67
     7
 79
     5
170
     0
171
     0
290
     0
174
     0
 93
        1
 44
0.0
173
     0
291
     0
 45
0.0
1001
ACAD
1000
AcDbSavedByObjectVersion
1070
     0
  0
VISUALSTYLE
  5
2CD
102
{ACAD_XDICTIONARY
360
5C5
102
}
102
{ACAD_REACTORS
330
2C5
102
}
330
2C5
100
AcDbVisualStyle
  2

 70
     6
 71
     1
 72
     2
 73
     2
 90
        0
 40
-0.6
 41
-30.0
 62
     5
 63
     7
 74
     2
 91
        2
 64
     7
 65
   257
 75
     2
175
     1
 42
40.0
 92
        0
 66
   257
 43
1.0
 76
     1
 77
     6
 78
     2
 67
     7
 79
     3
170
     0
171
     0
290
     0
174
     0
 93
        1
 44
0.0
173
     0
291
     0
 45
0.0
1001
ACAD
1000
AcDbSavedByObjectVersion
1070
     0
  0
VISUALSTYLE
  5
2CC
102
{ACAD_XDICTIONARY
360
5C3
102
}
102
{ACAD_REACTORS
330
2C5
102
}
330
2C5
100
AcDbVisualStyle
  2

 70
     5
 71
     0
 72
     2
 73
     0
 90
        0
 40
-0.6
 41
-30.0
 62
     5
 63
     7
 74
     1
 91
        4
 64
     7
 65
   257
 75
     1
175
     1
 42
1.0
 92
        0
 66
   257
 43
1.0
 76
     1
 77
     6
 78
     2
 67
     7
 79
     5
170
     0
171
     0
290
     0
174
     0
 93
        1
 44
0.0
173
     0
291
     0
 45
0.0
1001
ACAD
1000
AcDbSavedByObjectVersion
1070
     0
  0
VISUALSTYLE
  5
2CA
102
{ACAD_XDICTIONARY
360
5BF
102
}
102
{ACAD_REACTORS
330
2C5
102
}
330
2C5
100
AcDbVisualStyle
  2

 70
     7
 71
     1
 72
     0
 73
     1
 90
        0
 40
-0.6
 41
-30.0
 62
     5
 63
     7
 74
     0
 91
        4
 64
     7
 65
   257
 75
     1
175
     1
 42
1.0
 92
        8
 66
     7
 43
1.0
 76
     1
 77
     6
 78
     2
 67
     7
 79
     5
170
     0
171
     0
290
     0
174
     0
 93
        1
 44
0.0
173
     0
291
     1
 45
0.0
1001
ACAD
1000
AcDbSavedByObjectVersion
1070
     0
  0
VISUALSTYLE
  5
2D1
102
{ACAD_XDICTIONARY
360
5CD
102
}
102
{ACAD_REACTORS
330
2C5
102
}
330
2C5
100
AcDbVisualStyle
  2

 70
    12
 71
     2
 72
     2
 73
     0
 90
        0
 40
-0.6
 41
-30.0
 62
     5
 63
     7
 74
     1
 91
        4
 64
     7
 65
   257
 75
     1
175
     1
 42
1.0
 92
        8
 66
     7
 43
1.0
 76
     1
 77
     6
 78
     2
 67
     7
 79
     5
170
     0
171
     0
290
     0
174
     0
 93
        1
 44
50.0
173
     0
291
     1
 45
0.0
1001
ACAD
1000
AcDbSavedByObjectVersion
1070
     0
  0
VISUALSTYLE
  5
2D5
102
{ACAD_XDICTIONARY
360
5D5
102
}
102
{ACAD_REACTORS
330
2C5
102
}
330
2C5
100
AcDbVisualStyle
  2

 70
    16
 71
     2
 72
     2
 73
     3
 90
        0
 40
-0.6
 41
-30.0
 62
     5
 63
     8
 74
     1
 91
        4
 64
     7
 65
   257
 75
     1
175
     1
 42
1.0
 92
        8
 66
     8
 43
1.0
 76
     1
 77
     6
 78
     2
 67
     7
 79
     5
170
     0
171
     0
290
     0
174
     0
 93
        1
 44
0.0
173
     0
291
     1
 45
0.0
1001
ACAD
1000
AcDbSavedByObjectVersion
1070
     0
  0
VISUALSTYLE
  5
2CE
102
{ACAD_XDICTIONARY
360
5C7
102
}
102
{ACAD_REACTORS
330
2C5
102
}
330
2C5
100
AcDbVisualStyle
  2

 70
     9
 71
     3
 72
     2
 73
     0
 90
        0
 40
-0.6
 41
-30.0
 62
     5
 63
     7
 74
     2
 91
        2
 64
     7
 65
   257
 75
     1
175
     1
 42
40.0
 92
        8
 66
     7
 43
1.0
 76
     1
 77
     6
 78
     2
 67
     7
 79
     3
170
     0
171
     0
290
     0
174
     0
 93
        1
 44
0.0
173
     0
291
     0
 45
0.0
1001
ACAD
1000
AcDbSavedByObjectVersion
1070
     0
  0
VISUALSTYLE
  5
2D0
102
{ACAD_XDICTIONARY
360
5CB
102
}
102
{ACAD_REACTORS
330
2C5
102
}
330
2C5
100
AcDbVisualStyle
  2

 70
    11
 71
     2
 72
     2
 73
     0
 90
        0
 40
-0.6
 41
-30.0
 62
     5
 63
     7
 74
     1
 91
        4
 64
     7
 65
   257
 75
     1
175
     1
 42
1.0
 92
        8
 66
     7
 43
1.0
 76
     1
 77
     6
 78
     2
 67
     7
 79
     5
170
     0
171
     0
290
     0
174
     0
 93
        1
 44
-50.0
173
     0
291
     1
 45
0.0
1001
ACAD
1000
AcDbSavedByObjectVersion
1070
     0
  0
VISUALSTYLE
  5
55F
102
{ACAD_XDICTIONARY
360
5DC
102
}
102
{ACAD_REACTORS
330
2C5
102
}
330
2C5
100
AcDbVisualStyle
  2
EdgeColorOff
 70
    22
 71
     2
 72
     2
 73
     0
 90
        0
 40
-0.6
 41
-30.0
 62
     5
 63
     7
 74
     1
 91
        4
 64
     7
 65
   257
 75
     1
175
     1
 42
1.0
 92
        8
 66
     7
 43
1.0
 76
     1
 77
     6
 78
     2
 67
     7
 79
     5
170
     0
171
     0
290
     0
174
     0
 93
        1
 44
0.0
173
     0
291
     1
 45
0.0
1001
ACAD
1000
AcDbSavedByObjectVersion
1070
     0
  0
VISUALSTYLE
  5
2D4
102
{ACAD_XDICTIONARY
360
5D3
102
}
102
{ACAD_REACTORS
330
2C5
102
}
330
2C5
100
AcDbVisualStyle
  2

 70
    15
 71
     2
 72
     2
 73
     0
 90
        0
 40
-0.6
 41
-30.0
 62
     5
 63
     7
 74
     1
 91
        4
 64
     7
 65
   257
 75
     1
175
     1
 42
1.0
 92
        8
 66
     7
 43
1.0
 76
     1
 77
     6
 78
     2
 67
     7
 79
     5
170
     0
171
     0
290
     0
174
     0
 93
        1
 44
0.0
173
     0
291
     1
 45
0.0
1001
ACAD
1000
AcDbSavedByObjectVersion
1070
     0
  0
VISUALSTYLE
  5
2C6
102
{ACAD_XDICTIONARY
360
5B7
102
}
102
{ACAD_REACTORS
330
2C5
102
}
330
2C5
100
AcDbVisualStyle
  2

 70
     0
 71
     2
 72
     1
 73
     1
 90
        2
 40
-0.6
 41
30.0
 62
     5
 63
     7
 74
     0
 91
        4
 64
     7
 65
   257
 75
     1
175
     1
 42
1.0
 92
        8
 66
     7
 43
1.0
 76
     1
 77
     6
 78
     2
 67
     7
 79
     5
170
     0
171
     0
290
     0
174
     0
 93
       13
 44
0.0
173
     0
291
     1
 45
0.0
1001
ACAD
1000
AcDbSavedByObjectVersion
1070
     0
  0
VISUALSTYLE
  5
2C7
102
{ACAD_XDICTIONARY
360
5B9
102
}
102
{ACAD_REACTORS
330
2C5
102
}
330
2C5
100
AcDbVisualStyle
  2

 70
     1
 71
     2
 72
     1
 73
     1
 90
        2
 40
-0.6
 41
30.0
 62
     5
 63
     7
 74
     1
 91
        4
 64
     7
 65
   257
 75
     1
175
     1
 42
1.0
 92
        0
 66
   257
 43
1.0
 76
     1
 77
     6
 78
     2
 67
     7
 79
     5
170
     0
171
     0
290
     0
174
     0
 93
       13
 44
0.0
173
     0
291
     1
 45
0.0
1001
ACAD
1000
AcDbSavedByObjectVersion
1070
     0
  0
VISUALSTYLE
  5
2C8
102
{ACAD_XDICTIONARY
360
5BB
102
}
102
{ACAD_REACTORS
330
2C5
102
}
330
2C5
100
AcDbVisualStyle
  2

 70
     2
 71
     2
 72
     2
 73
     1
 90
        2
 40
-0.6
 41
30.0
 62
     5
 63
     7
 74
     0
 91
        4
 64
     7
 65
   257
 75
     1
175
     1
 42
1.0
 92
        0
 66
     7
 43
1.0
 76
     1
 77
     6
 78
     2
 67
     7
 79
     5
170
     0
171
     0
290
     0
174
     0
 93
       13
 44
0.0
173
     0
291
     1
 45
0.0
1001
ACAD
1000
AcDbSavedByObjectVersion
1070
     0
  0
VISUALSTYLE
  5
2C9
102
{ACAD_XDICTIONARY
360
5BD
102
}
102
{ACAD_REACTORS
330
2C5
102
}
330
2C5
100
AcDbVisualStyle
  2

 70
     3
 71
     2
 72
     2
 73
     1
 90
        2
 40
-0.6
 41
30.0
 62
     5
 63
     7
 74
     1
 91
        4
 64
     7
 65
   257
 75
     1
175
     1
 42
1.0
 92
        0
 66
   257
 43
1.0
 76
     1
 77
     6
 78
     2
 67
     7
 79
     5
170
     0
171
     0
290
     0
174
     0
 93
       13
 44
0.0
173
     0
291
     1
 45
0.0
1001
ACAD
1000
AcDbSavedByObjectVersion
1070
     0
  0
VISUALSTYLE
  5
55D
102
{ACAD_XDICTIONARY
360
5D8
102
}
102
{ACAD_REACTORS
330
2C5
102
}
330
2C5
100
AcDbVisualStyle
  2
JitterOff
 70
    20
 71
     2
 72
     2
 73
     0
 90
        0
 40
-0.6
 41
-30.0
 62
     5
 63
     7
 74
     1
 91
        4
 64
     7
 65
   257
 75
     1
175
     1
 42
1.0
 92
       10
 66
     7
 43
1.0
 76
     1
 77
     6
 78
     2
 67
     7
 79
     5
170
     0
171
     0
290
     0
174
     0
 93
        1
 44
0.0
173
     0
291
     1
 45
0.0
1001
ACAD
1000
AcDbSavedByObjectVersion
1070
     0
  0
VISUALSTYLE
  5
2D3
102
{ACAD_XDICTIONARY
360
5D1
102
}
102
{ACAD_REACTORS
330
2C5
102
}
330
2C5
100
AcDbVisualStyle
  2

 70
    14
 71
     2
 72
     2
 73
     0
 90
        0
 40
-0.6
 41
-30.0
 62
     5
 63
     7
 74
     1
 91
        4
 64
     7
 65
   257
 75
     7
175
     7
 42
1.0
 92
        8
 66
     7
 43
1.0
 76
     1
 77
     6
 78
     2
 67
     7
 79
     5
170
     0
171
     0
290
     0
174
     0
 93
        1
 44
0.0
173
     0
291
     1
 45
0.0
1001
ACAD
1000
AcDbSavedByObjectVersion
1070
     0
  0
VISUALSTYLE
  5
55E
102
{ACAD_XDICTIONARY
360
5DA
102
}
102
{ACAD_REACTORS
330
2C5
102
}
330
2C5
100
AcDbVisualStyle
  2
OverhangOff
 70
    21
 71
     2
 72
     2
 73
     0
 90
        0
 40
-0.6
 41
-30.0
 62
     5
 63
     7
 74
     1
 91
        4
 64
     7
 65
   257
 75
     1
175
     1
 42
1.0
 92
        9
 66
     7
 43
1.0
 76
     1
 77
     6
 78
     2
 67
     7
 79
     5
170
     0
171
     0
290
     0
174
     0
 93
        1
 44
0.0
173
     0
291
     1
 45
0.0
1001
ACAD
1000
AcDbSavedByObjectVersion
1070
     0
  0
VISUALSTYLE
  5
2CF
102
{ACAD_XDICTIONARY
360
5C9
102
}
102
{ACAD_REACTORS
330
2C5
102
}
330
2C5
100
AcDbVisualStyle
  2

 70
     8
 71
     2
 72
     2
 73
     0
 90
        0
 40
-0.6
 41
-30.0
 62
     5
 63
     7
 74
     1
 91
        0
 64
     7
 65
   257
 75
     1
175
     1
 42
1.0
 92
        8
 66
     8
 43
1.0
 76
     1
 77
     6
 78
     2
 67
     7
 79
     5
170
     0
171
     0
290
     0
174
     0
 93
       13
 44
0.0
173
     0
291
     0
 45
0.0
1001
ACAD
1000
AcDbSavedByObjectVersion
1070
     0
  0
VISUALSTYLE
  5
2D2
102
{ACAD_XDICTIONARY
360
5CF
102
}
102
{ACAD_REACTORS
330
2C5
102
}
330
2C5
100
AcDbVisualStyle
  2

 70
    13
 71
     2
 72
     2
 73
     0
 90
        0
 40
-0.6
 41
-30.0
 62
     5
 63
     7
 74
     1
 91
        4
 64
     7
 65
   257
 75
     1
175
     1
 42
1.0
 92
       12
 66
     7
 43
1.0
 76
     1
 77
     6
 78
     2
 67
     7
 79
     5
170
     0
171
     0
290
     0
174
     0
 93
        1
 44
0.0
173
     0
291
     1
 45
0.0
1001
ACAD
1000
AcDbSavedByObjectVersion
1070
     0
  0
DICTIONARYVAR
  5
5AD
102
{ACAD_REACTORS
330
346
102
}
330
346
100
DictionaryVariables
280
     0
  1
1:1
  0
DICTIONARYVAR
  5
5AC
102
{ACAD_REACTORS
330
346
102
}
330
346
100
DictionaryVariables
280
     0
  1
STANDARD
  0
DICTIONARYVAR
  5
347
102
{ACAD_REACTORS
330
346
102
}
330
346
100
DictionaryVariables
280
     0
  1
STANDARD
  0
DICTIONARYVAR
  5
46E
102
{ACAD_REACTORS
330
346
102
}
330
346
100
DictionaryVariables
280
     0
  1
1
  0
DICTIONARYVAR
  5
46D
102
{ACAD_REACTORS
330
346
102
}
330
346
100
DictionaryVariables
280
     0
  1
0
  0
DICTIONARYVAR
  5
46C
102
{ACAD_REACTORS
330
346
102
}
330
346
100
DictionaryVariables
280
     0
  1
127
  0
DICTIONARYVAR
  5
5AE
102
{ACAD_REACTORS
330
346
102
}
330
346
100
DictionaryVariables
280
     0
  1
2
  0
DICTIONARY
  5
5B3
330
17A
100
AcDbDictionary
280
     1
281
     1
  3
ACAD_XREC_ROUNDTRIP
360
5B4
  0
DICTIONARY
  5
5B5
330
17E
100
AcDbDictionary
280
     1
281
     1
  3
ACAD_XREC_ROUNDTRIP
360
5B6
  0
DICTIONARY
  5
476
330
2C3
100
AcDbDictionary
280
     1
281
     1
  3
ACAD_XREC_ROUNDTRIP
360
477
  0
DICTIONARY
  5
474
330
2C2
100
AcDbDictionary
280
     1
281
     1
  3
ACAD_XREC_ROUNDTRIP
360
475
  0
DICTIONARY
  5
478
330
2C4
100
AcDbDictionary
280
     1
281
     1
  3
ACAD_XREC_ROUNDTRIP
360
479
  0
DICTIONARY
  5
5AF
330
2D8
100
AcDbDictionary
280
     1
281
     1
  3
ACAD_ROUNDTRIP_2008_TABLESTYLE_CELLSTYLEMAP
360
5B0
  3
ACAD_XREC_ROUNDTRIP
360
5D7
  0
DICTIONARY
  5
5C1
330
2CB
100
AcDbDictionary
280
     1
281
     1
  3
ACAD_XREC_ROUNDTRIP
360
5C2
  0
DICTIONARY
  5
5C5
330
2CD
100
AcDbDictionary
280
     1
281
     1
  3
ACAD_XREC_ROUNDTRIP
360
5C6
  0
DICTIONARY
  5
5C3
330
2CC
100
AcDbDictionary
280
     1
281
     1
  3
ACAD_XREC_ROUNDTRIP
360
5C4
  0
DICTIONARY
  5
5BF
330
2CA
100
AcDbDictionary
280
     1
281
     1
  3
ACAD_XREC_ROUNDTRIP
360
5C0
  0
DICTIONARY
  5
5CD
330
2D1
100
AcDbDictionary
280
     1
281
     1
  3
ACAD_XREC_ROUNDTRIP
360
5CE
  0
DICTIONARY
  5
5D5
330
2D5
100
AcDbDictionary
280
     1
281
     1
  3
ACAD_XREC_ROUNDTRIP
360
5D6
  0
DICTIONARY
  5
5C7
330
2CE
100
AcDbDictionary
280
     1
281
     1
  3
ACAD_XREC_ROUNDTRIP
360
5C8
  0
DICTIONARY
  5
5CB
330
2D0
100
AcDbDictionary
280
     1
281
     1
  3
ACAD_XREC_ROUNDTRIP
360
5CC
  0
DICTIONARY
  5
5DC
330
55F
100
AcDbDictionary
280
     1
281
     1
  3
ACAD_XREC_ROUNDTRIP
360
5DD
  0
DICTIONARY
  5
5D3
330
2D4
100
AcDbDictionary
280
     1
281
     1
  3
ACAD_XREC_ROUNDTRIP
360
5D4
  0
DICTIONARY
  5
5B7
330
2C6
100
AcDbDictionary
280
     1
281
     1
  3
ACAD_XREC_ROUNDTRIP
360
5B8
  0
DICTIONARY
  5
5B9
330
2C7
100
AcDbDictionary
280
     1
281
     1
  3
ACAD_XREC_ROUNDTRIP
360
5BA
  0
DICTIONARY
  5
5BB
330
2C8
100
AcDbDictionary
280
     1
281
     1
  3
ACAD_XREC_ROUNDTRIP
360
5BC
  0
DICTIONARY
  5
5BD
330
2C9
100
AcDbDictionary
280
     1
281
     1
  3
ACAD_XREC_ROUNDTRIP
360
5BE
  0
DICTIONARY
  5
5D8
330
55D
100
AcDbDictionary
280
     1
281
     1
  3
ACAD_XREC_ROUNDTRIP
360
5D9
  0
DICTIONARY
  5
5D1
330
2D3
100
AcDbDictionary
280
     1
281
     1
  3
ACAD_XREC_ROUNDTRIP
360
5D2
  0
DICTIONARY
  5
5DA
330
55E
100
AcDbDictionary
280
     1
281
     1
  3
ACAD_XREC_ROUNDTRIP
360
5DB
  0
DICTIONARY
  5
5C9
330
2CF
100
AcDbDictionary
280
     1
281
     1
  3
ACAD_XREC_ROUNDTRIP
360
5CA
  0
DICTIONARY
  5
5CF
330
2D2
100
AcDbDictionary
280
     1
281
     1
  3
ACAD_XREC_ROUNDTRIP
360
5D0
  0
XRECORD
  5
5B4
102
{ACAD_REACTORS
330
5B3
102
}
330
5B3
100
AcDbXrecord
280
     1
102
SHADEPLOT
 70
     0
102
SHADEPLOTRESLEVEL
 70
     2
102
SHADEPLOTCUSTOMDPI
 70
   300
  0
XRECORD
  5
5B6
102
{ACAD_REACTORS
330
5B5
102
}
330
5B5
100
AcDbXrecord
280
     1
102
SHADEPLOT
 70
     0
102
SHADEPLOTRESLEVEL
 70
     2
102
SHADEPLOTCUSTOMDPI
 70
   300
  0
XRECORD
  5
477
102
{ACAD_REACTORS
330
476
102
}
330
476
100
AcDbXrecord
280
     1
102
MATERIAL
148
0.0
149
0.0
149
0.0
 93
        0
 94
      127
282
     0
 72
     1
 77
     1
171
     1
175
     1
179
     1
273
     0
  0
XRECORD
  5
475
102
{ACAD_REACTORS
330
474
102
}
330
474
100
AcDbXrecord
280
     1
102
MATERIAL
148
0.0
149
0.0
149
0.0
 93
        0
 94
      127
282
     0
 72
     1
 77
     1
171
     1
175
     1
179
     1
273
     0
  0
XRECORD
  5
479
102
{ACAD_REACTORS
330
478
102
}
330
478
100
AcDbXrecord
280
     1
102
MATERIAL
148
0.0
149
0.0
149
0.0
 93
        0
 94
      127
282
     0
 72
     1
 77
     1
171
     1
175
     1
179
     1
273
     0
  0
CELLSTYLEMAP
  5
5B0
102
{ACAD_REACTORS
330
5AF
102
}
330
5AF
100
AcDbCellStyleMap
 90
        3
300
CELLSTYLE
  1
TABLEFORMAT_BEGIN
 90
        5
170
     1
 91
        0
 92
    32768
 62
   257
 93
        1
300
CONTENTFORMAT
  1
CONTENTFORMAT_BEGIN
 90
        0
 91
        0
 92
      512
 93
        0
300

 40
0.0
140
1.0
 94
        5
 62
     0
340
16E
144
0.25
309
CONTENTFORMAT_END
171
     0
 94
        6
 95
        1
302
GRIDFORMAT
  1
GRIDFORMAT_BEGIN
 90
        0
 91
        1
 62
     0
 92
       -2
340
0
 93
        0
 40
0.045
309
GRIDFORMAT_END
 95
        2
302
GRIDFORMAT
  1
GRIDFORMAT_BEGIN
 90
        0
 91
        1
 62
     0
 92
       -2
340
0
 93
        0
 40
0.045
309
GRIDFORMAT_END
 95
        4
302
GRIDFORMAT
  1
GRIDFORMAT_BEGIN
 90
        0
 91
        1
 62
     0
 92
       -2
340
0
 93
        0
 40
0.045
309
GRIDFORMAT_END
 95
        8
302
GRIDFORMAT
  1
GRIDFORMAT_BEGIN
 90
        0
 91
        1
 62
     0
 92
       -2
340
0
 93
        0
 40
0.045
309
GRIDFORMAT_END
 95
       16
302
GRIDFORMAT
  1
GRIDFORMAT_BEGIN
 90
        0
 91
        1
 62
     0
 92
       -2
340
0
 93
        0
 40
0.045
309
GRIDFORMAT_END
 95
       32
302
GRIDFORMAT
  1
GRIDFORMAT_BEGIN
 90
        0
 91
        1
 62
     0
 92
       -2
340
0
 93
        0
 40
0.045
309
GRIDFORMAT_END
309
TABLEFORMAT_END
  1
CELLSTYLE_BEGIN
 90
        1
 91
        1
300
_TITLE
309
CELLSTYLE_END
300
CELLSTYLE
  1
TABLEFORMAT_BEGIN
 90
        5
170
     1
 91
        0
 92
        0
 62
   257
 93
        1
300
CONTENTFORMAT
  1
CONTENTFORMAT_BEGIN
 90
        0
 91
        0
 92
      512
 93
        0
300

 40
0.0
140
1.0
 94
        5
 62
     0
340
16E
144
0.18
309
CONTENTFORMAT_END
171
     0
 94
        6
 95
        1
302
GRIDFORMAT
  1
GRIDFORMAT_BEGIN
 90
        0
 91
        1
 62
     0
 92
       -2
340
0
 93
        0
 40
0.045
309
GRIDFORMAT_END
 95
        2
302
GRIDFORMAT
  1
GRIDFORMAT_BEGIN
 90
        0
 91
        1
 62
     0
 92
       -2
340
0
 93
        0
 40
0.045
309
GRIDFORMAT_END
 95
        4
302
GRIDFORMAT
  1
GRIDFORMAT_BEGIN
 90
        0
 91
        1
 62
     0
 92
       -2
340
0
 93
        0
 40
0.045
309
GRIDFORMAT_END
 95
        8
302
GRIDFORMAT
  1
GRIDFORMAT_BEGIN
 90
        0
 91
        1
 62
     0
 92
       -2
340
0
 93
        0
 40
0.045
309
GRIDFORMAT_END
 95
       16
302
GRIDFORMAT
  1
GRIDFORMAT_BEGIN
 90
        0
 91
        1
 62
     0
 92
       -2
340
0
 93
        0
 40
0.045
309
GRIDFORMAT_END
 95
       32
302
GRIDFORMAT
  1
GRIDFORMAT_BEGIN
 90
        0
 91
        1
 62
     0
 92
       -2
340
0
 93
        0
 40
0.045
309
GRIDFORMAT_END
309
TABLEFORMAT_END
  1
CELLSTYLE_BEGIN
 90
        2
 91
        1
300
_HEADER
309
CELLSTYLE_END
300
CELLSTYLE
  1
TABLEFORMAT_BEGIN
 90
        5
170
     1
 91
        0
 92
        0
 62
   257
 93
        1
300
CONTENTFORMAT
  1
CONTENTFORMAT_BEGIN
 90
        0
 91
        0
 92
      512
 93
        0
300

 40
0.0
140
1.0
 94
        2
 62
     0
340
16E
144
0.18
309
CONTENTFORMAT_END
171
     0
 94
        6
 95
        1
302
GRIDFORMAT
  1
GRIDFORMAT_BEGIN
 90
        0
 91
        1
 62
     0
 92
       -2
340
0
 93
        0
 40
0.045
309
GRIDFORMAT_END
 95
        2
302
GRIDFORMAT
  1
GRIDFORMAT_BEGIN
 90
        0
 91
        1
 62
     0
 92
       -2
340
0
 93
        0
 40
0.045
309
GRIDFORMAT_END
 95
        4
302
GRIDFORMAT
  1
GRIDFORMAT_BEGIN
 90
        0
 91
        1
 62
     0
 92
       -2
340
0
 93
        0
 40
0.045
309
GRIDFORMAT_END
 95
        8
302
GRIDFORMAT
  1
GRIDFORMAT_BEGIN
 90
        0
 91
        1
 62
     0
 92
       -2
340
0
 93
        0
 40
0.045
309
GRIDFORMAT_END
 95
       16
302
GRIDFORMAT
  1
GRIDFORMAT_BEGIN
 90
        0
 91
        1
 62
     0
 92
       -2
340
0
 93
        0
 40
0.045
309
GRIDFORMAT_END
 95
       32
302
GRIDFORMAT
  1
GRIDFORMAT_BEGIN
 90
        0
 91
        1
 62
     0
 92
       -2
340
0
 93
        0
 40
0.045
309
GRIDFORMAT_END
309
TABLEFORMAT_END
  1
CELLSTYLE_BEGIN
 90
        3
 91
        2
300
_DATA
309
CELLSTYLE_END
  0
XRECORD
  5
5D7
102
{ACAD_REACTORS
330
5AF
102
}
330
5AF
100
AcDbXrecord
280
     1
102
ACAD_ROUNDTRIP_PRE2007_TABLESTYLE
 90
      512
 91
        0
  1

 92
      512
 93
        0
  2

 94
      512
 95
        0
  3

  0
XRECORD
  5
5C2
102
{ACAD_REACTORS
330
5C1
102
}
330
5C1
100
AcDbXrecord
280
     1
102
RTVSPropertyOp0
 70
     1
102
RTVSPropertyOp1
 70
     1
102
RTVSPropertyOp2
 70
     1
102
RTVSPropertyOp3
 70
     1
102
RTVSPropertyOp4
 70
     1
102
RTVSPropertyOp5
 70
     1
102
RTVSPropertyOp6
 70
     1
102
RTVSPropertyOp7
 70
     1
102
RTVSPropertyOp8
 70
     1
102
RTVSPropertyOp9
 70
     1
102
RTVSPropertyOp10
 70
     1
102
RTVSPropertyOp11
 70
     1
102
RTVSPropertyOp12
 70
     1
102
RTVSPropertyOp13
 70
     1
102
RTVSPropertyOp14
 70
     1
102
RTVSPropertyOp15
 70
     1
102
RTVSPropertyOp16
 70
     1
102
RTVSPropertyOp17
 70
     1
102
RTVSPropertyOp18
 70
     1
102
RTVSPropertyOp19
 70
     1
102
RTVSPropertyOp20
 70
     1
102
RTVSPropertyOp21
 70
     1
102
RTVSPropertyOp22
 70
     1
102
RTVSPropertyOp23
 70
     1
102
RTVSPropertyOp24
 70
     1
102
RTVSPropertyOp25
 70
     1
102
RTVSPropertyOp26
 70
     1
102
RTVSPropertyOp27
 70
     1
  0
XRECORD
  5
5C6
102
{ACAD_REACTORS
330
5C5
102
}
330
5C5
100
AcDbXrecord
280
     1
102
RTVSPropertyOp0
 70
     1
102
RTVSPropertyOp1
 70
     1
102
RTVSPropertyOp2
 70
     1
102
RTVSPropertyOp3
 70
     1
102
RTVSPropertyOp4
 70
     1
102
RTVSPropertyOp5
 70
     1
102
RTVSPropertyOp6
 70
     1
102
RTVSPropertyOp7
 70
     1
102
RTVSPropertyOp8
 70
     1
102
RTVSPropertyOp9
 70
     1
102
RTVSPropertyOp10
 70
     1
102
RTVSPropertyOp11
 70
     1
102
RTVSPropertyOp12
 70
     1
102
RTVSPropertyOp13
 70
     1
102
RTVSPropertyOp14
 70
     1
102
RTVSPropertyOp15
 70
     1
102
RTVSPropertyOp16
 70
     1
102
RTVSPropertyOp17
 70
     1
102
RTVSPropertyOp18
 70
     1
102
RTVSPropertyOp19
 70
     1
102
RTVSPropertyOp20
 70
     1
102
RTVSPropertyOp21
 70
     1
102
RTVSPropertyOp22
 70
     1
102
RTVSPropertyOp23
 70
     1
102
RTVSPropertyOp24
 70
     1
102
RTVSPropertyOp25
 70
     1
102
RTVSPropertyOp26
 70
     1
102
RTVSPropertyOp27
 70
     1
  0
XRECORD
  5
5C4
102
{ACAD_REACTORS
330
5C3
102
}
330
5C3
100
AcDbXrecord
280
     1
102
RTVSPropertyOp0
 70
     1
102
RTVSPropertyOp1
 70
     1
102
RTVSPropertyOp2
 70
     1
102
RTVSPropertyOp3
 70
     1
102
RTVSPropertyOp4
 70
     1
102
RTVSPropertyOp5
 70
     1
102
RTVSPropertyOp6
 70
     1
102
RTVSPropertyOp7
 70
     1
102
RTVSPropertyOp8
 70
     1
102
RTVSPropertyOp9
 70
     1
102
RTVSPropertyOp10
 70
     1
102
RTVSPropertyOp11
 70
     1
102
RTVSPropertyOp12
 70
     1
102
RTVSPropertyOp13
 70
     1
102
RTVSPropertyOp14
 70
     1
102
RTVSPropertyOp15
 70
     1
102
RTVSPropertyOp16
 70
     1
102
RTVSPropertyOp17
 70
     1
102
RTVSPropertyOp18
 70
     1
102
RTVSPropertyOp19
 70
     1
102
RTVSPropertyOp20
 70
     1
102
RTVSPropertyOp21
 70
     1
102
RTVSPropertyOp22
 70
     1
102
RTVSPropertyOp23
 70
     1
102
RTVSPropertyOp24
 70
     1
102
RTVSPropertyOp25
 70
     1
102
RTVSPropertyOp26
 70
     1
102
RTVSPropertyOp27
 70
     1
  0
XRECORD
  5
5C0
102
{ACAD_REACTORS
330
5BF
102
}
330
5BF
100
AcDbXrecord
280
     1
102
RTVSPropertyOp0
 70
     1
102
RTVSPropertyOp1
 70
     1
102
RTVSPropertyOp2
 70
     1
102
RTVSPropertyOp3
 70
     1
102
RTVSPropertyOp4
 70
     1
102
RTVSPropertyOp5
 70
     1
102
RTVSPropertyOp6
 70
     1
102
RTVSPropertyOp7
 70
     1
102
RTVSPropertyOp8
 70
     1
102
RTVSPropertyOp9
 70
     1
102
RTVSPropertyOp10
 70
     1
102
RTVSPropertyOp11
 70
     1
102
RTVSPropertyOp12
 70
     1
102
RTVSPropertyOp13
 70
     1
102
RTVSPropertyOp14
 70
     1
102
RTVSPropertyOp15
 70
     1
102
RTVSPropertyOp16
 70
     1
102
RTVSPropertyOp17
 70
     1
102
RTVSPropertyOp18
 70
     1
102
RTVSPropertyOp19
 70
     1
102
RTVSPropertyOp20
 70
     1
102
RTVSPropertyOp21
 70
     1
102
RTVSPropertyOp22
 70
     1
102
RTVSPropertyOp23
 70
     1
102
RTVSPropertyOp24
 70
     1
102
RTVSPropertyOp25
 70
     1
102
RTVSPropertyOp26
 70
     1
102
RTVSPropertyOp27
 70
     1
  0
XRECORD
  5
5CE
102
{ACAD_REACTORS
330
5CD
102
}
330
5CD
100
AcDbXrecord
280
     1
102
RTVSPropertyOp0
 70
     1
102
RTVSPropertyOp1
 70
     1
102
RTVSPropertyOp2
 70
     1
102
RTVSPropertyOp3
 70
     1
102
RTVSPropertyOp4
 70
     1
102
RTVSPropertyOp5
 70
     1
102
RTVSPropertyOp6
 70
     1
102
RTVSPropertyOp7
 70
     1
102
RTVSPropertyOp8
 70
     1
102
RTVSPropertyOp9
 70
     1
102
RTVSPropertyOp10
 70
     1
102
RTVSPropertyOp11
 70
     1
102
RTVSPropertyOp12
 70
     1
102
RTVSPropertyOp13
 70
     1
102
RTVSPropertyOp14
 70
     1
102
RTVSPropertyOp15
 70
     1
102
RTVSPropertyOp16
 70
     1
102
RTVSPropertyOp17
 70
     1
102
RTVSPropertyOp18
 70
     1
102
RTVSPropertyOp19
 70
     1
102
RTVSPropertyOp20
 70
     1
102
RTVSPropertyOp21
 70
     1
102
RTVSPropertyOp22
 70
     1
102
RTVSPropertyOp23
 70
     1
102
RTVSPropertyOp24
 70
     1
102
RTVSPropertyOp25
 70
     1
102
RTVSPropertyOp26
 70
     1
102
RTVSPropertyOp27
 70
     1
  0
XRECORD
  5
5D6
102
{ACAD_REACTORS
330
5D5
102
}
330
5D5
100
AcDbXrecord
280
     1
102
RTVSPropertyOp0
 70
     1
102
RTVSPropertyOp1
 70
     1
102
RTVSPropertyOp2
 70
     1
102
RTVSPropertyOp3
 70
     1
102
RTVSPropertyOp4
 70
     1
102
RTVSPropertyOp5
 70
     1
102
RTVSPropertyOp6
 70
     1
102
RTVSPropertyOp7
 70
     1
102
RTVSPropertyOp8
 70
     1
102
RTVSPropertyOp9
 70
     1
102
RTVSPropertyOp10
 70
     1
102
RTVSPropertyOp11
 70
     1
102
RTVSPropertyOp12
 70
     1
102
RTVSPropertyOp13
 70
     1
102
RTVSPropertyOp14
 70
     1
102
RTVSPropertyOp15
 70
     1
102
RTVSPropertyOp16
 70
     1
102
RTVSPropertyOp17
 70
     1
102
RTVSPropertyOp18
 70
     1
102
RTVSPropertyOp19
 70
     1
102
RTVSPropertyOp20
 70
     1
102
RTVSPropertyOp21
 70
     1
102
RTVSPropertyOp22
 70
     1
102
RTVSPropertyOp23
 70
     1
102
RTVSPropertyOp24
 70
     1
102
RTVSPropertyOp25
 70
     1
102
RTVSPropertyOp26
 70
     1
102
RTVSPropertyOp27
 70
     1
  0
XRECORD
  5
5C8
102
{ACAD_REACTORS
330
5C7
102
}
330
5C7
100
AcDbXrecord
280
     1
102
RTVSPropertyOp0
 70
     1
102
RTVSPropertyOp1
 70
     1
102
RTVSPropertyOp2
 70
     1
102
RTVSPropertyOp3
 70
     1
102
RTVSPropertyOp4
 70
     1
102
RTVSPropertyOp5
 70
     1
102
RTVSPropertyOp6
 70
     1
102
RTVSPropertyOp7
 70
     1
102
RTVSPropertyOp8
 70
     1
102
RTVSPropertyOp9
 70
     1
102
RTVSPropertyOp10
 70
     1
102
RTVSPropertyOp11
 70
     1
102
RTVSPropertyOp12
 70
     1
102
RTVSPropertyOp13
 70
     1
102
RTVSPropertyOp14
 70
     1
102
RTVSPropertyOp15
 70
     1
102
RTVSPropertyOp16
 70
     1
102
RTVSPropertyOp17
 70
     1
102
RTVSPropertyOp18
 70
     1
102
RTVSPropertyOp19
 70
     1
102
RTVSPropertyOp20
 70
     1
102
RTVSPropertyOp21
 70
     1
102
RTVSPropertyOp22
 70
     1
102
RTVSPropertyOp23
 70
     1
102
RTVSPropertyOp24
 70
     1
102
RTVSPropertyOp25
 70
     1
102
RTVSPropertyOp26
 70
     1
102
RTVSPropertyOp27
 70
     1
  0
XRECORD
  5
5CC
102
{ACAD_REACTORS
330
5CB
102
}
330
5CB
100
AcDbXrecord
280
     1
102
RTVSPropertyOp0
 70
     1
102
RTVSPropertyOp1
 70
     1
102
RTVSPropertyOp2
 70
     1
102
RTVSPropertyOp3
 70
     1
102
RTVSPropertyOp4
 70
     1
102
RTVSPropertyOp5
 70
     1
102
RTVSPropertyOp6
 70
     1
102
RTVSPropertyOp7
 70
     1
102
RTVSPropertyOp8
 70
     1
102
RTVSPropertyOp9
 70
     1
102
RTVSPropertyOp10
 70
     1
102
RTVSPropertyOp11
 70
     1
102
RTVSPropertyOp12
 70
     1
102
RTVSPropertyOp13
 70
     1
102
RTVSPropertyOp14
 70
     1
102
RTVSPropertyOp15
 70
     1
102
RTVSPropertyOp16
 70
     1
102
RTVSPropertyOp17
 70
     1
102
RTVSPropertyOp18
 70
     1
102
RTVSPropertyOp19
 70
     1
102
RTVSPropertyOp20
 70
     1
102
RTVSPropertyOp21
 70
     1
102
RTVSPropertyOp22
 70
     1
102
RTVSPropertyOp23
 70
     1
102
RTVSPropertyOp24
 70
     1
102
RTVSPropertyOp25
 70
     1
102
RTVSPropertyOp26
 70
     1
102
RTVSPropertyOp27
 70
     1
  0
XRECORD
  5
5DD
102
{ACAD_REACTORS
330
5DC
102
}
330
5DC
100
AcDbXrecord
280
     1
102
RTVSPropertyOp0
 70
     0
102
RTVSPropertyOp1
 70
     0
102
RTVSPropertyOp2
 70
     0
102
RTVSPropertyOp3
 70
     0
102
RTVSPropertyOp4
 70
     0
102
RTVSPropertyOp5
 70
     0
102
RTVSPropertyOp6
 70
     0
102
RTVSPropertyOp7
 70
     0
102
RTVSPropertyOp8
 70
     0
102
RTVSPropertyOp9
 70
     0
102
RTVSPropertyOp10
 70
     0
102
RTVSPropertyOp11
 70
     0
102
RTVSPropertyOp12
 70
     0
102
RTVSPropertyOp13
 70
     0
102
RTVSPropertyOp14
 70
     2
102
RTVSPropertyOp15
 70
     0
102
RTVSPropertyOp16
 70
     0
102
RTVSPropertyOp17
 70
     0
102
RTVSPropertyOp18
 70
     0
102
RTVSPropertyOp19
 70
     0
102
RTVSPropertyOp20
 70
     0
102
RTVSPropertyOp21
 70
     0
102
RTVSPropertyOp22
 70
     0
102
RTVSPropertyOp23
 70
     0
102
RTVSPropertyOp24
 70
     0
102
RTVSPropertyOp25
 70
     0
102
RTVSPropertyOp26
 70
     0
102
RTVSPropertyOp27
 70
     0
  0
XRECORD
  5
5D4
102
{ACAD_REACTORS
330
5D3
102
}
330
5D3
100
AcDbXrecord
280
     1
102
RTVSPropertyOp0
 70
     1
102
RTVSPropertyOp1
 70
     1
102
RTVSPropertyOp2
 70
     1
102
RTVSPropertyOp3
 70
     1
102
RTVSPropertyOp4
 70
     1
102
RTVSPropertyOp5
 70
     1
102
RTVSPropertyOp6
 70
     1
102
RTVSPropertyOp7
 70
     1
102
RTVSPropertyOp8
 70
     1
102
RTVSPropertyOp9
 70
     1
102
RTVSPropertyOp10
 70
     1
102
RTVSPropertyOp11
 70
     1
102
RTVSPropertyOp12
 70
     1
102
RTVSPropertyOp13
 70
     1
102
RTVSPropertyOp14
 70
     1
102
RTVSPropertyOp15
 70
     1
102
RTVSPropertyOp16
 70
     1
102
RTVSPropertyOp17
 70
     1
102
RTVSPropertyOp18
 70
     1
102
RTVSPropertyOp19
 70
     1
102
RTVSPropertyOp20
 70
     1
102
RTVSPropertyOp21
 70
     1
102
RTVSPropertyOp22
 70
     1
102
RTVSPropertyOp23
 70
     1
102
RTVSPropertyOp24
 70
     1
102
RTVSPropertyOp25
 70
     1
102
RTVSPropertyOp26
 70
     1
102
RTVSPropertyOp27
 70
     1
  0
XRECORD
  5
5B8
102
{ACAD_REACTORS
330
5B7
102
}
330
5B7
100
AcDbXrecord
280
     1
102
RTVSPropertyOp0
 70
     1
102
RTVSPropertyOp1
 70
     1
102
RTVSPropertyOp2
 70
     1
102
RTVSPropertyOp3
 70
     1
102
RTVSPropertyOp4
 70
     1
102
RTVSPropertyOp5
 70
     1
102
RTVSPropertyOp6
 70
     1
102
RTVSPropertyOp7
 70
     1
102
RTVSPropertyOp8
 70
     1
102
RTVSPropertyOp9
 70
     1
102
RTVSPropertyOp10
 70
     1
102
RTVSPropertyOp11
 70
     1
102
RTVSPropertyOp12
 70
     1
102
RTVSPropertyOp13
 70
     1
102
RTVSPropertyOp14
 70
     1
102
RTVSPropertyOp15
 70
     1
102
RTVSPropertyOp16
 70
     1
102
RTVSPropertyOp17
 70
     1
102
RTVSPropertyOp18
 70
     1
102
RTVSPropertyOp19
 70
     1
102
RTVSPropertyOp20
 70
     1
102
RTVSPropertyOp21
 70
     1
102
RTVSPropertyOp22
 70
     1
102
RTVSPropertyOp23
 70
     1
102
RTVSPropertyOp24
 70
     1
102
RTVSPropertyOp25
 70
     1
102
RTVSPropertyOp26
 70
     1
102
RTVSPropertyOp27
 70
     1
  0
XRECORD
  5
5BA
102
{ACAD_REACTORS
330
5B9
102
}
330
5B9
100
AcDbXrecord
280
     1
102
RTVSPropertyOp0
 70
     1
102
RTVSPropertyOp1
 70
     1
102
RTVSPropertyOp2
 70
     1
102
RTVSPropertyOp3
 70
     1
102
RTVSPropertyOp4
 70
     1
102
RTVSPropertyOp5
 70
     1
102
RTVSPropertyOp6
 70
     1
102
RTVSPropertyOp7
 70
     1
102
RTVSPropertyOp8
 70
     1
102
RTVSPropertyOp9
 70
     1
102
RTVSPropertyOp10
 70
     1
102
RTVSPropertyOp11
 70
     1
102
RTVSPropertyOp12
 70
     1
102
RTVSPropertyOp13
 70
     1
102
RTVSPropertyOp14
 70
     1
102
RTVSPropertyOp15
 70
     1
102
RTVSPropertyOp16
 70
     1
102
RTVSPropertyOp17
 70
     1
102
RTVSPropertyOp18
 70
     1
102
RTVSPropertyOp19
 70
     1
102
RTVSPropertyOp20
 70
     1
102
RTVSPropertyOp21
 70
     1
102
RTVSPropertyOp22
 70
     1
102
RTVSPropertyOp23
 70
     1
102
RTVSPropertyOp24
 70
     1
102
RTVSPropertyOp25
 70
     1
102
RTVSPropertyOp26
 70
     1
102
RTVSPropertyOp27
 70
     1
  0
XRECORD
  5
5BC
102
{ACAD_REACTORS
330
5BB
102
}
330
5BB
100
AcDbXrecord
280
     1
102
RTVSPropertyOp0
 70
     1
102
RTVSPropertyOp1
 70
     1
102
RTVSPropertyOp2
 70
     1
102
RTVSPropertyOp3
 70
     1
102
RTVSPropertyOp4
 70
     1
102
RTVSPropertyOp5
 70
     1
102
RTVSPropertyOp6
 70
     1
102
RTVSPropertyOp7
 70
     1
102
RTVSPropertyOp8
 70
     1
102
RTVSPropertyOp9
 70
     1
102
RTVSPropertyOp10
 70
     1
102
RTVSPropertyOp11
 70
     1
102
RTVSPropertyOp12
 70
     1
102
RTVSPropertyOp13
 70
     1
102
RTVSPropertyOp14
 70
     1
102
RTVSPropertyOp15
 70
     1
102
RTVSPropertyOp16
 70
     1
102
RTVSPropertyOp17
 70
     1
102
RTVSPropertyOp18
 70
     1
102
RTVSPropertyOp19
 70
     1
102
RTVSPropertyOp20
 70
     1
102
RTVSPropertyOp21
 70
     1
102
RTVSPropertyOp22
 70
     1
102
RTVSPropertyOp23
 70
     1
102
RTVSPropertyOp24
 70
     1
102
RTVSPropertyOp25
 70
     1
102
RTVSPropertyOp26
 70
     1
102
RTVSPropertyOp27
 70
     1
  0
XRECORD
  5
5BE
102
{ACAD_REACTORS
330
5BD
102
}
330
5BD
100
AcDbXrecord
280
     1
102
RTVSPropertyOp0
 70
     1
102
RTVSPropertyOp1
 70
     1
102
RTVSPropertyOp2
 70
     1
102
RTVSPropertyOp3
 70
     1
102
RTVSPropertyOp4
 70
     1
102
RTVSPropertyOp5
 70
     1
102
RTVSPropertyOp6
 70
     1
102
RTVSPropertyOp7
 70
     1
102
RTVSPropertyOp8
 70
     1
102
RTVSPropertyOp9
 70
     1
102
RTVSPropertyOp10
 70
     1
102
RTVSPropertyOp11
 70
     1
102
RTVSPropertyOp12
 70
     1
102
RTVSPropertyOp13
 70
     1
102
RTVSPropertyOp14
 70
     1
102
RTVSPropertyOp15
 70
     1
102
RTVSPropertyOp16
 70
     1
102
RTVSPropertyOp17
 70
     1
102
RTVSPropertyOp18
 70
     1
102
RTVSPropertyOp19
 70
     1
102
RTVSPropertyOp20
 70
     1
102
RTVSPropertyOp21
 70
     1
102
RTVSPropertyOp22
 70
     1
102
RTVSPropertyOp23
 70
     1
102
RTVSPropertyOp24
 70
     1
102
RTVSPropertyOp25
 70
     1
102
RTVSPropertyOp26
 70
     1
102
RTVSPropertyOp27
 70
     1
  0
XRECORD
  5
5D9
102
{ACAD_REACTORS
330
5D8
102
}
330
5D8
100
AcDbXrecord
280
     1
102
RTVSPropertyOp0
 70
     0
102
RTVSPropertyOp1
 70
     0
102
RTVSPropertyOp2
 70
     0
102
RTVSPropertyOp3
 70
     0
102
RTVSPropertyOp4
 70
     0
102
RTVSPropertyOp5
 70
     0
102
RTVSPropertyOp6
 70
     0
102
RTVSPropertyOp7
 70
     0
102
RTVSPropertyOp8
 70
     0
102
RTVSPropertyOp9
 70
     0
102
RTVSPropertyOp10
 70
     0
102
RTVSPropertyOp11
 70
     0
102
RTVSPropertyOp12
 70
     0
102
RTVSPropertyOp13
 70
     0
102
RTVSPropertyOp14
 70
     2
102
RTVSPropertyOp15
 70
     0
102
RTVSPropertyOp16
 70
     0
102
RTVSPropertyOp17
 70
     0
102
RTVSPropertyOp18
 70
     0
102
RTVSPropertyOp19
 70
     0
102
RTVSPropertyOp20
 70
     0
102
RTVSPropertyOp21
 70
     0
102
RTVSPropertyOp22
 70
     0
102
RTVSPropertyOp23
 70
     0
102
RTVSPropertyOp24
 70
     0
102
RTVSPropertyOp25
 70
     0
102
RTVSPropertyOp26
 70
     0
102
RTVSPropertyOp27
 70
     0
  0
XRECORD
  5
5D2
102
{ACAD_REACTORS
330
5D1
102
}
330
5D1
100
AcDbXrecord
280
     1
102
RTVSPropertyOp0
 70
     1
102
RTVSPropertyOp1
 70
     1
102
RTVSPropertyOp2
 70
     1
102
RTVSPropertyOp3
 70
     1
102
RTVSPropertyOp4
 70
     1
102
RTVSPropertyOp5
 70
     1
102
RTVSPropertyOp6
 70
     1
102
RTVSPropertyOp7
 70
     1
102
RTVSPropertyOp8
 70
     1
102
RTVSPropertyOp9
 70
     1
102
RTVSPropertyOp10
 70
     1
102
RTVSPropertyOp11
 70
     1
102
RTVSPropertyOp12
 70
     1
102
RTVSPropertyOp13
 70
     1
102
RTVSPropertyOp14
 70
     1
102
RTVSPropertyOp15
 70
     1
102
RTVSPropertyOp16
 70
     1
102
RTVSPropertyOp17
 70
     1
102
RTVSPropertyOp18
 70
     1
102
RTVSPropertyOp19
 70
     1
102
RTVSPropertyOp20
 70
     1
102
RTVSPropertyOp21
 70
     1
102
RTVSPropertyOp22
 70
     1
102
RTVSPropertyOp23
 70
     1
102
RTVSPropertyOp24
 70
     1
102
RTVSPropertyOp25
 70
     1
102
RTVSPropertyOp26
 70
     1
102
RTVSPropertyOp27
 70
     1
  0
XRECORD
  5
5DB
102
{ACAD_REACTORS
330
5DA
102
}
330
5DA
100
AcDbXrecord
280
     1
102
RTVSPropertyOp0
 70
     0
102
RTVSPropertyOp1
 70
     0
102
RTVSPropertyOp2
 70
     0
102
RTVSPropertyOp3
 70
     0
102
RTVSPropertyOp4
 70
     0
102
RTVSPropertyOp5
 70
     0
102
RTVSPropertyOp6
 70
     0
102
RTVSPropertyOp7
 70
     0
102
RTVSPropertyOp8
 70
     0
102
RTVSPropertyOp9
 70
     0
102
RTVSPropertyOp10
 70
     0
102
RTVSPropertyOp11
 70
     0
102
RTVSPropertyOp12
 70
     0
102
RTVSPropertyOp13
 70
     0
102
RTVSPropertyOp14
 70
     2
102
RTVSPropertyOp15
 70
     0
102
RTVSPropertyOp16
 70
     0
102
RTVSPropertyOp17
 70
     0
102
RTVSPropertyOp18
 70
     0
102
RTVSPropertyOp19
 70
     0
102
RTVSPropertyOp20
 70
     0
102
RTVSPropertyOp21
 70
     0
102
RTVSPropertyOp22
 70
     0
102
RTVSPropertyOp23
 70
     0
102
RTVSPropertyOp24
 70
     0
102
RTVSPropertyOp25
 70
     0
102
RTVSPropertyOp26
 70
     0
102
RTVSPropertyOp27
 70
     0
  0
XRECORD
  5
5CA
102
{ACAD_REACTORS
330
5C9
102
}
330
5C9
100
AcDbXrecord
280
     1
102
RTVSPropertyOp0
 70
     1
102
RTVSPropertyOp1
 70
     1
102
RTVSPropertyOp2
 70
     1
102
RTVSPropertyOp3
 70
     1
102
RTVSPropertyOp4
 70
     1
102
RTVSPropertyOp5
 70
     1
102
RTVSPropertyOp6
 70
     1
102
RTVSPropertyOp7
 70
     1
102
RTVSPropertyOp8
 70
     1
102
RTVSPropertyOp9
 70
     1
102
RTVSPropertyOp10
 70
     1
102
RTVSPropertyOp11
 70
     1
102
RTVSPropertyOp12
 70
     1
102
RTVSPropertyOp13
 70
     1
102
RTVSPropertyOp14
 70
     1
102
RTVSPropertyOp15
 70
     1
102
RTVSPropertyOp16
 70
     1
102
RTVSPropertyOp17
 70
     1
102
RTVSPropertyOp18
 70
     1
102
RTVSPropertyOp19
 70
     1
102
RTVSPropertyOp20
 70
     1
102
RTVSPropertyOp21
 70
     1
102
RTVSPropertyOp22
 70
     1
102
RTVSPropertyOp23
 70
     1
102
RTVSPropertyOp24
 70
     1
102
RTVSPropertyOp25
 70
     1
102
RTVSPropertyOp26
 70
     1
102
RTVSPropertyOp27
 70
     1
  0
XRECORD
  5
5D0
102
{ACAD_REACTORS
330
5CF
102
}
330
5CF
100
AcDbXrecord
280
     1
102
RTVSPropertyOp0
 70
     1
102
RTVSPropertyOp1
 70
     1
102
RTVSPropertyOp2
 70
     1
102
RTVSPropertyOp3
 70
     1
102
RTVSPropertyOp4
 70
     1
102
RTVSPropertyOp5
 70
     1
102
RTVSPropertyOp6
 70
     1
102
RTVSPropertyOp7
 70
     1
102
RTVSPropertyOp8
 70
     1
102
RTVSPropertyOp9
 70
     1
102
RTVSPropertyOp10
 70
     1
102
RTVSPropertyOp11
 70
     1
102
RTVSPropertyOp12
 70
     1
102
RTVSPropertyOp13
 70
     1
102
RTVSPropertyOp14
 70
     1
102
RTVSPropertyOp15
 70
     1
102
RTVSPropertyOp16
 70
     1
102
RTVSPropertyOp17
 70
     1
102
RTVSPropertyOp18
 70
     1
102
RTVSPropertyOp19
 70
     1
102
RTVSPropertyOp20
 70
     1
102
RTVSPropertyOp21
 70
     1
102
RTVSPropertyOp22
 70
     1
102
RTVSPropertyOp23
 70
     1
102
RTVSPropertyOp24
 70
     1
102
RTVSPropertyOp25
 70
     1
102
RTVSPropertyOp26
 70
     1
102
RTVSPropertyOp27
 70
     1
  0
ENDSEC
  0
EOF
