  0
SECTION
  2
HEADER
  9
$ACADVER
  1
AC1015
  9
$ACADMAINTVER
 70
    20
  9
$DWGCODEPAGE
  3
ANSI_1252
  9
$INSBASE
 10
0.0
 20
0.0
 30
0.0
  9
$EXTMIN
 10
757.2124999999997
 20
335.9714919740119
 30
0.0
  9
$EXTMAX
 10
1114.2625
 20
954.2899722809512
 30
0.0
  9
$LIMMIN
 10
0.0
 20
0.0
  9
$LIMMAX
 10
12.0
 20
9.0
  9
$ORTHOMODE
 70
     1
  9
$REGENMODE
 70
     1
  9
$FILLMODE
 70
     1
  9
$QTEXTMODE
 70
     0
  9
$MIRRTEXT
 70
     1
  9
$LTSCALE
 40
1.0
  9
$ATTMODE
 70
     1
  9
$TEXTSIZE
 40
0.0
  9
$TRACEWID
 40
0.05
  9
$TEXTSTYLE
  7
STANDARD
  9
$CLAYER
  8
0
  9
$CELTYPE
  6
CONTINUOUS
  9
$CECOLOR
 62
   256
  9
$CELTSCALE
 40
1.0
  9
$DISPSILH
 70
     0
  9
$DIMSCALE
 40
1.0
  9
$DIMASZ
 40
0.18
  9
$DIMEXO
 40
0.0625
  9
$DIMDLI
 40
0.38
  9
$DIMRND
 40
0.0
  9
$DIMDLE
 40
0.0
  9
$DIMEXE
 40
0.18
  9
$DIMTP
 40
0.0
  9
$DIMTM
 40
0.0
  9
$DIMTXT
 40
0.18
  9
$DIMCEN
 40
0.09
  9
$DIMTSZ
 40
0.0
  9
$DIMTOL
 70
     0
  9
$DIMLIM
 70
     0
  9
$DIMTIH
 70
     1
  9
$DIMTOH
 70
     1
  9
$DIMSE1
 70
     0
  9
$DIMSE2
 70
     0
  9
$DIMTAD
 70
     0
  9
$DIMZIN
 70
     0
  9
$DIMBLK
  1

  9
$DIMASO
 70
     1
  9
$DIMSHO
 70
     1
  9
$DIMPOST
  1

  9
$DIMAPOST
  1

  9
$DIMALT
 70
     0
  9
$DIMALTD
 70
     2
  9
$DIMALTF
 40
25.4
  9
$DIMLFAC
 40
1.0
  9
$DIMTOFL
 70
     0
  9
$DIMTVP
 40
0.0
  9
$DIMTIX
 70
     0
  9
$DIMSOXD
 70
     0
  9
$DIMSAH
 70
     0
  9
$DIMBLK1
  1

  9
$DIMBLK2
  1

  9
$DIMSTYLE
  2
STANDARD
  9
$DIMCLRD
 70
     0
  9
$DIMCLRE
 70
     0
  9
$DIMCLRT
 70
     0
  9
$DIMTFAC
 40
1.0
  9
$DIMGAP
 40
0.09
  9
$DIMJUST
 70
     0
  9
$DIMSD1
 70
     0
  9
$DIMSD2
 70
     0
  9
$DIMTOLJ
 70
     1
  9
$DIMTZIN
 70
     0
  9
$DIMALTZ
 70
     0
  9
$DIMALTTZ
 70
     0
  9
$DIMUPT
 70
     0
  9
$DIMDEC
 70
     4
  9
$DIMTDEC
 70
     4
  9
$DIMALTU
 70
     2
  9
$DIMALTTD
 70
     2
  9
$DIMTXSTY
  7
STANDARD
  9
$DIMAUNIT
 70
     0
  9
$DIMADEC
 70
     0
  9
$DIMALTRND
 40
0.0
  9
$DIMAZIN
 70
     0
  9
$DIMDSEP
 70
    46
  9
$DIMATFIT
 70
     3
  9
$DIMFRAC
 70
     0
  9
$DIMLDRBLK
  1

  9
$DIMLUNIT
 70
     2
  9
$DIMLWD
 70
    -2
  9
$DIMLWE
 70
    -2
  9
$DIMTMOVE
 70
     0
  9
$LUNITS
 70
     2
  9
$LUPREC
 70
     4
  9
$SKETCHINC
 40
0.1
  9
$FILLETRAD
 40
0.0
  9
$AUNITS
 70
     0
  9
$AUPREC
 70
     0
  9
$MENU
  1
acad
  9
$ELEVATION
 40
0.0
  9
$PELEVATION
 40
0.0
  9
$THICKNESS
 40
0.0
  9
$LIMCHECK
 70
     0
  9
$CHAMFERA
 40
0.0
  9
$CHAMFERB
 40
0.0
  9
$CHAMFERC
 40
0.0
  9
$CHAMFERD
 40
0.0
  9
$SKPOLY
 70
     0
  9
$TDCREATE
 40
2453238.658333333
  9
$TDUCREATE
 40
2453238.658333333
  9
$TDUPDATE
 40
2456330.884746447
  9
$TDUUPDATE
 40
2456330.884746447
  9
$TDINDWG
 40
0.0098188310
  9
$TDUSRTIMER
 40
0.0098184838
  9
$USRTIMER
 70
     1
  9
$ANGBASE
 50
0.0
  9
$ANGDIR
 70
     0
  9
$PDMODE
 70
     0
  9
$PDSIZE
 40
0.0
  9
$PLINEWID
 40
0.0
  9
$SPLFRAME
 70
     0
  9
$SPLINETYPE
 70
     6
  9
$SPLINESEGS
 70
    10
  9
$HANDSEED
  5
4CA
  9
$SURFTAB1
 70
     6
  9
$SURFTAB2
 70
     6
  9
$SURFTYPE
 70
     6
  9
$SURFU
 70
     6
  9
$SURFV
 70
     6
  9
$UCSBASE
  2

  9
$UCSNAME
  2

  9
$UCSORG
 10
0.0
 20
0.0
 30
0.0
  9
$UCSXDIR
 10
1.0
 20
0.0
 30
0.0
  9
$UCSYDIR
 10
0.0
 20
1.0
 30
0.0
  9
$UCSORTHOREF
  2

  9
$UCSORTHOVIEW
 70
     0
  9
$UCSORGTOP
 10
0.0
 20
0.0
 30
0.0
  9
$UCSORGBOTTOM
 10
0.0
 20
0.0
 30
0.0
  9
$UCSORGLEFT
 10
0.0
 20
0.0
 30
0.0
  9
$UCSORGRIGHT
 10
0.0
 20
0.0
 30
0.0
  9
$UCSORGFRONT
 10
0.0
 20
0.0
 30
0.0
  9
$UCSORGBACK
 10
0.0
 20
0.0
 30
0.0
  9
$PUCSBASE
  2

  9
$PUCSNAME
  2

  9
$PUCSORG
 10
0.0
 20
0.0
 30
0.0
  9
$PUCSXDIR
 10
1.0
 20
0.0
 30
0.0
  9
$PUCSYDIR
 10
0.0
 20
1.0
 30
0.0
  9
$PUCSORTHOREF
  2

  9
$PUCSORTHOVIEW
 70
     0
  9
$PUCSORGTOP
 10
0.0
 20
0.0
 30
0.0
  9
$PUCSORGBOTTOM
 10
0.0
 20
0.0
 30
0.0
  9
$PUCSORGLEFT
 10
0.0
 20
0.0
 30
0.0
  9
$PUCSORGRIGHT
 10
0.0
 20
0.0
 30
0.0
  9
$PUCSORGFRONT
 10
0.0
 20
0.0
 30
0.0
  9
$PUCSORGBACK
 10
0.0
 20
0.0
 30
0.0
  9
$USERI1
 70
     0
  9
$USERI2
 70
     0
  9
$USERI3
 70
     0
  9
$USERI4
 70
     0
  9
$USERI5
 70
     0
  9
$USERR1
 40
0.0
  9
$USERR2
 40
0.0
  9
$USERR3
 40
0.0
  9
$USERR4
 40
0.0
  9
$USERR5
 40
0.0
  9
$WORLDVIEW
 70
     1
  9
$SHADEDGE
 70
     3
  9
$SHADEDIF
 70
    70
  9
$TILEMODE
 70
     1
  9
$MAXACTVP
 70
    16
  9
$PINSBASE
 10
0.0
 20
0.0
 30
0.0
  9
$PLIMCHECK
 70
     0
  9
$PEXTMIN
 10
-1.000000000000000E+20
 20
-1.000000000000000E+20
 30
-1.000000000000000E+20
  9
$PEXTMAX
 10
-1.000000000000000E+20
 20
-1.000000000000000E+20
 30
-1.000000000000000E+20
  9
$PLIMMIN
 10
0.0
 20
0.0
  9
$PLIMMAX
 10
12.0
 20
9.0
  9
$UNITMODE
 70
     0
  9
$VISRETAIN
 70
     0
  9
$PLINEGEN
 70
     1
  9
$PSLTSCALE
 70
     0
  9
$TREEDEPTH
 70
  3020
  9
$CMLSTYLE
  2
Standard
  9
$CMLJUST
 70
     0
  9
$CMLSCALE
 40
1.0
  9
$PROXYGRAPHICS
 70
     1
  9
$MEASUREMENT
 70
     0
  9
$CELWEIGHT
370
    -1
  9
$ENDCAPS
280
     0
  9
$JOINSTYLE
280
     0
  9
$LWDISPLAY
290
     0
  9
$INSUNITS
 70
     0
  9
$HYPERLINKBASE
  1

  9
$STYLESHEET
  1

  9
$XEDIT
290
     1
  9
$CEPSNTYPE
380
     0
  9
$PSTYLEMODE
290
     1
  9
$FINGERPRINTGUID
  2
{04BEE677-0B03-4D35-A904-81BF4762FA03}
  9
$VERSIONGUID
  2
{916544A1-A063-4BDA-B4ED-8EF8C8B38077}
  9
$EXTNAMES
290
     1
  9
$PSVPSCALE
 40
0.0
  9
$OLESTARTUP
290
     0
  0
ENDSEC
  0
SECTION
  2
CLASSES
  0
CLASS
  1
ACDBDICTIONARYWDFLT
  2
AcDbDictionaryWithDefault
  3
ObjectDBX Classes
 90
        0
280
     0
281
     0
  0
CLASS
  1
ACDBPLACEHOLDER
  2
AcDbPlaceHolder
  3
ObjectDBX Classes
 90
        0
280
     0
281
     0
  0
CLASS
  1
LAYOUT
  2
AcDbLayout
  3
ObjectDBX Classes
 90
        0
280
     0
281
     0
  0
CLASS
  1
MATERIAL
  2
AcDbMaterial
  3
ObjectDBX Classes
 90
     1153
280
     0
281
     0
  0
CLASS
  1
VISUALSTYLE
  2
AcDbVisualStyle
  3
ObjectDBX Classes
 90
     4095
280
     0
281
     0
  0
CLASS
  1
TABLESTYLE
  2
AcDbTableStyle
  3
ObjectDBX Classes
 90
     4095
280
     0
281
     0
  0
CLASS
  1
SCALE
  2
AcDbScale
  3
ObjectDBX Classes
 90
     1153
280
     0
281
     0
  0
CLASS
  1
MLEADERSTYLE
  2
AcDbMLeaderStyle
  3
ACDB_MLEADERSTYLE_CLASS
 90
     4095
280
     0
281
     0
  0
CLASS
  1
DICTIONARYVAR
  2
AcDbDictionaryVar
  3
ObjectDBX Classes
 90
        0
280
     0
281
     0
  0
CLASS
  1
CELLSTYLEMAP
  2
AcDbCellStyleMap
  3
ObjectDBX Classes
 90
     1152
280
     0
281
     0
  0
CLASS
  1
SORTENTSTABLE
  2
AcDbSortentsTable
  3
ObjectDBX Classes
 90
        0
280
     0
281
     0
  0
ENDSEC
  0
SECTION
  2
TABLES
  0
TABLE
  2
VPORT
  5
DB
330
0
100
AcDbSymbolTable
 70
     1
  0
VPORT
  5
1AA
330
DB
100
AcDbSymbolTableRecord
100
AcDbViewportTableRecord
  2
*Active
 70
     0
 10
0.0
 20
0.0
 11
1.0
 21
1.0
 12
143.2499263664222
 22
138.1131998762798
 13
0.0
 23
0.0
 14
0.0
 24
0.0
 15
0.0
 25
0.0
 16
0.0
 26
0.0
 36
1.0
 17
830.3329660000001
 27
593.365625
 37
0.0
 40
587.2977300726078
 41
1.895744680851063
 42
50.0
 43
6.3125
 44
0.0
 50
0.0
 51
0.0
 71
     0
 72
   100
 73
     1
 74
     0
 75
     0
 76
     0
 77
     0
 78
     0
281
     0
 65
     0
110
0.0
120
0.0
130
0.0
111
1.0
121
0.0
131
0.0
112
0.0
122
1.0
132
0.0
 79
     0
146
0.0
  0
ENDTAB
  0
TABLE
  2
LTYPE
  5
D8
330
0
100
AcDbSymbolTable
 70
     8
  0
LTYPE
  5
E6
330
D8
100
AcDbSymbolTableRecord
100
AcDbLinetypeTableRecord
  2
ByBlock
 70
     0
  3

 72
    65
 73
     0
 40
0.0
  0
LTYPE
  5
E7
330
D8
100
AcDbSymbolTableRecord
100
AcDbLinetypeTableRecord
  2
ByLayer
 70
     0
  3

 72
    65
 73
     0
 40
0.0
  0
LTYPE
  5
E8
330
D8
100
AcDbSymbolTableRecord
100
AcDbLinetypeTableRecord
  2
CONTINUOUS
 70
     0
  3
Solid line
 72
    65
 73
     0
 40
0.0
  0
LTYPE
  5
F6
330
D8
100
AcDbSymbolTableRecord
100
AcDbLinetypeTableRecord
  2
DOT
 70
     0
  3
. . . . . . . . . . . . . . . . . . . . . . . . . . . . . . . . .
 72
    65
 73
     2
 40
0.25
 49
0.0
 74
     0
 49
-0.25
 74
     0
  0
LTYPE
  5
F7
330
D8
100
AcDbSymbolTableRecord
100
AcDbLinetypeTableRecord
  2
HIDDEN
 70
     0
  3
__ __ __ __ __ __ __ __ __ __ __ __ __ __ __ __ __ __ __ __ __ 
 72
    65
 73
     2
 40
0.375
 49
0.25
 74
     0
 49
-0.125
 74
     0
  0
LTYPE
  5
F8
330
D8
100
AcDbSymbolTableRecord
100
AcDbLinetypeTableRecord
  2
DASHED
 70
     0
  3
__ __ __ __ __ __ __ __ __ __ __ __ __ __ __ __ __ __ __ __ __
 72
    65
 73
     2
 40
0.75
 49
0.5
 74
     0
 49
-0.25
 74
     0
  0
LTYPE
  5
F9
330
D8
100
AcDbSymbolTableRecord
100
AcDbLinetypeTableRecord
  2
DASHDOT
 70
     0
  3
__ . __ . __ . __ . __ . __ . __ . __ . __ . __ . __ . __ . _
 72
    65
 73
     4
 40
1.0
 49
0.5
 74
     0
 49
-0.25
 74
     0
 49
0.0
 74
     0
 49
-0.25
 74
     0
  0
LTYPE
  5
FA
330
D8
100
AcDbSymbolTableRecord
100
AcDbLinetypeTableRecord
  2
DIVIDE
 70
     0
  3
____ . . ____ . . ____ . . ____ . . ____ . . ____ . . ____ . .
 72
    65
 73
     6
 40
1.25
 49
0.5
 74
     0
 49
-0.25
 74
     0
 49
0.0
 74
     0
 49
-0.25
 74
     0
 49
0.0
 74
     0
 49
-0.25
 74
     0
  0
LTYPE
  5
FB
330
D8
100
AcDbSymbolTableRecord
100
AcDbLinetypeTableRecord
  2
CENTER
 70
     0
  3
____ _ ____ _ ____ _ ____ _ ____ _ ____ _ ____ _ ____ _ ____ _
 72
    65
 73
     4
 40
2.0
 49
1.25
 74
     0
 49
-0.25
 74
     0
 49
0.25
 74
     0
 49
-0.25
 74
     0
  0
ENDTAB
  0
TABLE
  2
LAYER
  5
D5
330
0
100
AcDbSymbolTable
 70
     4
  0
LAYER
  5
E3
102
{ACAD_XDICTIONARY
360
203
102
}
330
D5
100
AcDbSymbolTableRecord
100
AcDbLayerTableRecord
  2
0
 70
     0
 62
     7
  6
CONTINUOUS
370
    -3
390
E2
  0
LAYER
  5
FC
102
{ACAD_XDICTIONARY
360
205
102
}
330
D5
100
AcDbSymbolTableRecord
100
AcDbLayerTableRecord
  2
CONSTRUCTION_CLASS
 70
     0
 62
     7
  6
CONTINUOUS
370
    -3
390
E2
  0
LAYER
  5
FD
102
{ACAD_XDICTIONARY
360
207
102
}
330
D5
100
AcDbSymbolTableRecord
100
AcDbLayerTableRecord
  2
PATTERN_CLASS
 70
     0
 62
     7
  6
CONTINUOUS
370
    -3
390
E2
  0
LAYER
  5
FE
102
{ACAD_XDICTIONARY
360
209
102
}
330
D5
100
AcDbSymbolTableRecord
100
AcDbLayerTableRecord
  2
1
 70
     0
 62
     7
  6
CONTINUOUS
370
    -3
390
E2
  0
ENDTAB
  0
TABLE
  2
STYLE
  5
D6
330
0
100
AcDbSymbolTable
 70
     1
  0
STYLE
  5
E4
330
D6
100
AcDbSymbolTableRecord
100
AcDbTextStyleTableRecord
  2
STANDARD
 70
     0
 40
0.0
 41
1.0
 50
0.0
 71
     0
 42
0.0
  3
txt
  4

  0
ENDTAB
  0
TABLE
  2
VIEW
  5
D9
330
0
100
AcDbSymbolTable
 70
     0
  0
ENDTAB
  0
TABLE
  2
UCS
  5
DA
330
0
100
AcDbSymbolTable
 70
     0
  0
ENDTAB
  0
TABLE
  2
APPID
  5
DC
330
0
100
AcDbSymbolTable
 70
     3
  0
APPID
  5
E5
330
DC
100
AcDbSymbolTableRecord
100
AcDbRegAppTableRecord
  2
ACAD
 70
     0
  0
APPID
  5
2AC
330
DC
100
AcDbSymbolTableRecord
100
AcDbRegAppTableRecord
  2
ACAD_MLEADERVER
 70
     0
  0
APPID
  5
343
330
DC
100
AcDbSymbolTableRecord
100
AcDbRegAppTableRecord
  2
ACAD_EXEMPT_FROM_CAD_STANDARDS
 70
     0
  0
ENDTAB
  0
TABLE
  2
DIMSTYLE
  5
DD
330
0
100
AcDbSymbolTable
 70
     2
100
AcDbDimStyleTable
 71
     1
340
FF
  0
DIMSTYLE
105
FF
330
DD
100
AcDbSymbolTableRecord
100
AcDbDimStyleTableRecord
  2
STANDARD
 70
     0
279
     2
340
E4
  0
ENDTAB
  0
TABLE
  2
BLOCK_RECORD
  5
D4
330
0
100
AcDbSymbolTable
 70
     1
  0
BLOCK_RECORD
  5
F1
102
{ACAD_XDICTIONARY
360
2C8
102
}
330
D4
100
AcDbSymbolTableRecord
100
AcDbBlockTableRecord
  2
*Model_Space
340
F4
  0
BLOCK_RECORD
  5
ED
330
D4
100
AcDbSymbolTableRecord
100
AcDbBlockTableRecord
  2
*Paper_Space
340
F0
  0
ENDTAB
  0
ENDSEC
  0
SECTION
  2
BLOCKS
  0
BLOCK
  5
F2
330
F1
100
AcDbEntity
  8
0
100
AcDbBlockBegin
  2
*Model_Space
 70
     0
 10
0.0
 20
0.0
 30
0.0
  3
*Model_Space
  1

  0
ENDBLK
  5
F3
330
F1
100
AcDbEntity
  8
0
100
AcDbBlockEnd
  0
BLOCK
  5
EE
330
ED
100
AcDbEntity
 67
     1
  8
0
100
AcDbBlockBegin
  2
*Paper_Space
 70
     0
 10
0.0
 20
0.0
 30
0.0
  3
*Paper_Space
  1

  0
ENDBLK
  5
EF
330
ED
100
AcDbEntity
 67
     1
  8
0
100
AcDbBlockEnd
  0
ENDSEC
  0
SECTION
  2
ENTITIES
  0
LINE
  5
128
330
F1
100
AcDbEntity
  8
1
  6
Continuous
 62
     4
100
AcDbLine
 10
1012.175
 20
745.4367953969105
 30
0.0
 11
757.2124999999997
 21
745.4367953969105
 31
0.0
  0
LINE
  5
12A
330
F1
100
AcDbEntity
  8
1
  6
Continuous
 62
     4
100
AcDbLine
 10
884.6937500000001
 20
886.6304686384971
 30
0.0
 11
884.6937500000001
 21
602.4564211918865
 31
0.0
  0
LINE
  5
12B
330
F1
100
AcDbEntity
  8
1
  6
Continuous
 62
     4
100
AcDbLine
 10
884.6937500000001
 20
507.1359688059348
 30
0.0
 11
884.6937500000001
 21
335.9714919740119
 31
0.0
  0
LINE
  5
14C
330
F1
100
AcDbEntity
  8
1
  6
Continuous
 62
     4
100
AcDbLine
 10
825.0937500000002
 20
373.7724058596948
 30
0.0
 11
944.2937500000002
 21
385.7911558596948
 31
0.0
  0
LINE
  5
14D
330
F1
100
AcDbEntity
  8
1
  6
Continuous
 62
     4
100
AcDbLine
 10
825.0937500000002
 20
393.7724058596949
 30
0.0
 11
944.2937500000002
 21
405.7911558596948
 31
0.0
  0
LINE
  5
14E
330
F1
100
AcDbEntity
  8
1
  6
Continuous
 62
     4
100
AcDbLine
 10
825.0937500000002
 20
413.7724058596949
 30
0.0
 11
944.2937500000002
 21
425.7911558596949
 31
0.0
  0
LINE
  5
14F
330
F1
100
AcDbEntity
  8
1
  6
Continuous
 62
     4
100
AcDbLine
 10
825.0937500000002
 20
433.7724058596948
 30
0.0
 11
944.2937500000002
 21
445.7911558596948
 31
0.0
  0
LINE
  5
150
330
F1
100
AcDbEntity
  8
1
  6
Continuous
 62
     4
100
AcDbLine
 10
825.0937500000002
 20
453.7724058596948
 30
0.0
 11
944.2937500000002
 21
465.7911558596948
 31
0.0
  0
LINE
  5
151
330
F1
100
AcDbEntity
  8
1
  6
Continuous
 62
     4
100
AcDbLine
 10
825.0937500000002
 20
473.7724058596946
 30
0.0
 11
944.2937500000002
 21
485.7911558596947
 31
0.0
  0
LINE
  5
180
330
F1
100
AcDbEntity
  8
1
  6
Continuous
 62
     4
100
AcDbLine
 10
825.0937500000002
 20
353.7724058596948
 30
0.0
 11
944.2937500000002
 21
365.7911558596948
 31
0.0
  0
LINE
  5
2C3
330
F1
100
AcDbEntity
  8
0
  6
Continuous
 62
     4
100
AcDbLine
 10
781.5281877345593
 20
486.1500094755626
 30
0.0
 11
786.6231709914701
 21
491.2449927324739
 31
0.0
1001
ACAD
1010
0.0
1020
0.0
1030
0.0
  0
LINE
  5
2C4
330
F1
100
AcDbEntity
  8
0
  6
Continuous
 62
     4
100
AcDbLine
 10
776.8314885934582
 20
470.8467086166636
 30
0.0
 11
797.2297727092683
 21
491.244992732474
 31
0.0
1001
ACAD
1010
0.0
1020
0.0
1030
0.0
  0
LINE
  5
2C5
330
F1
100
AcDbEntity
  8
0
  6
Continuous
 62
     4
100
AcDbLine
 10
782.1347894523576
 20
465.5434077577645
 30
0.0
 11
807.8363744270669
 21
491.2449927324739
 31
0.0
1001
ACAD
1010
0.0
1020
0.0
1030
0.0
  0
LINE
  5
2C6
330
F1
100
AcDbEntity
  8
0
  6
Continuous
 62
     4
100
AcDbLine
 10
781.5281877345593
 20
486.1500094755625
 30
0.0
 11
786.6231709914701
 21
491.2449927324739
 31
0.0
1001
ACAD
1010
0.0
1020
0.0
1030
0.0
  0
LINE
  5
2C7
330
F1
100
AcDbEntity
  8
0
  6
Continuous
 62
     4
100
AcDbLine
 10
777.4380903112568
 20
450.2401068988649
 30
0.0
 11
818.4429761448653
 21
491.244992732474
 31
0.0
1001
ACAD
1010
0.0
1020
0.0
1030
0.0
  0
LINE
  5
2CA
330
F1
100
AcDbEntity
  8
0
  6
Continuous
 62
     4
100
AcDbLine
 10
782.7413911701559
 20
444.9368060399658
 30
0.0
 11
828.3353704949426
 21
490.5307853647526
 31
0.0
1001
ACAD
1010
0.0
1020
0.0
1030
0.0
  0
LINE
  5
2CB
330
F1
100
AcDbEntity
  8
0
  6
Continuous
 62
     4
100
AcDbLine
 10
778.0446920290552
 20
429.6335051810664
 30
0.0
 11
833.6386713538416
 21
485.2274845058532
 31
0.0
1001
ACAD
1010
0.0
1020
0.0
1030
0.0
  0
LINE
  5
2CC
330
F1
100
AcDbEntity
  8
0
  6
Continuous
 62
     4
100
AcDbLine
 10
783.3479928879547
 20
424.3302043221671
 30
0.0
 11
828.9419722127409
 21
469.9241836469536
 31
0.0
1001
ACAD
1010
0.0
1020
0.0
1030
0.0
  0
LINE
  5
2CD
330
F1
100
AcDbEntity
  8
0
  6
Continuous
 62
     4
100
AcDbLine
 10
778.6512937468542
 20
409.0269034632676
 30
0.0
 11
834.2452730716402
 21
464.6208827880545
 31
0.0
1001
ACAD
1010
0.0
1020
0.0
1030
0.0
  0
LINE
  5
2CE
330
F1
100
AcDbEntity
  8
0
  6
Continuous
 62
     4
100
AcDbLine
 10
783.9545946057532
 20
403.7236026043685
 30
0.0
 11
829.5485739305398
 21
449.3175819291551
 31
0.0
1001
ACAD
1010
0.0
1020
0.0
1030
0.0
  0
LINE
  5
2CF
330
F1
100
AcDbEntity
  8
0
  6
Continuous
 62
     4
100
AcDbLine
 10
779.2578954646527
 20
388.4203017454694
 30
0.0
 11
834.851874789439
 21
444.014281070256
 31
0.0
1001
ACAD
1010
0.0
1020
0.0
1030
0.0
  0
LINE
  5
2D0
330
F1
100
AcDbEntity
  8
0
  6
Continuous
 62
     4
100
AcDbLine
 10
784.5611963235515
 20
383.1170008865703
 30
0.0
 11
830.1551756483382
 21
428.7109802113568
 31
0.0
1001
ACAD
1010
0.0
1020
0.0
1030
0.0
  0
LINE
  5
2D1
330
F1
100
AcDbEntity
  8
0
  6
Continuous
 62
     4
100
AcDbLine
 10
779.864497182451
 20
367.8137000276711
 30
0.0
 11
825.4584765072374
 21
413.4076793524576
 31
0.0
1001
ACAD
1010
0.0
1020
0.0
1030
0.0
  0
LINE
  5
2D2
330
F1
100
AcDbEntity
  8
0
  6
Continuous
 62
     4
100
AcDbLine
 10
775.6418460827002
 20
352.984447210122
 30
0.0
 11
830.7617773661368
 21
408.1043784935586
 31
0.0
1001
ACAD
1010
0.0
1020
0.0
1030
0.0
  0
LINE
  5
2D3
330
F1
100
AcDbEntity
  8
0
  6
Continuous
 62
     4
100
AcDbLine
 10
786.2484478004985
 20
352.984447210122
 30
0.0
 11
826.0650782250356
 21
392.8010776346592
 31
0.0
1001
ACAD
1010
0.0
1020
0.0
1030
0.0
  0
LINE
  5
2D4
330
F1
100
AcDbEntity
  8
0
  6
Continuous
 62
     4
100
AcDbLine
 10
796.8550495182971
 20
352.984447210122
 30
0.0
 11
831.3683790839352
 21
387.4977767757601
 31
0.0
1001
ACAD
1010
0.0
1020
0.0
1030
0.0
  0
LINE
  5
2D5
330
F1
100
AcDbEntity
  8
0
  6
Continuous
 62
     4
100
AcDbLine
 10
861.2929133201712
 20
417.4223110119961
 30
0.0
 11
861.3683790839349
 21
417.49777677576
 31
0.0
1001
ACAD
1010
0.0
1020
0.0
1030
0.0
  0
LINE
  5
2D6
330
F1
100
AcDbEntity
  8
0
  6
Continuous
 62
     4
100
AcDbLine
 10
807.4616512360956
 20
352.984447210122
 30
0.0
 11
826.6716799428342
 21
372.1944759168607
 31
0.0
1001
ACAD
1010
0.0
1020
0.0
1030
0.0
  0
LINE
  5
2D7
330
F1
100
AcDbEntity
  8
0
  6
Continuous
 62
     4
100
AcDbLine
 10
818.0682529538938
 20
352.984447210122
 30
0.0
 11
831.9749808017334
 21
366.8911750579614
 31
0.0
1001
ACAD
1010
0.0
1020
0.0
1030
0.0
  0
LINE
  5
2D9
330
F1
100
AcDbEntity
  8
0
  6
Continuous
 62
     4
100
AcDbLine
 10
937.9034376989382
 20
470.8914238649798
 30
0.0
 11
958.2570065664315
 21
491.244992732474
 31
0.0
1001
ACAD
1010
0.0
1020
0.0
1030
0.0
  0
LINE
  5
2DA
330
F1
100
AcDbEntity
  8
0
  6
Continuous
 62
     4
100
AcDbLine
 10
943.8021386890241
 20
466.1835231372676
 30
0.0
 11
968.8636082842304
 21
491.2449927324739
 31
0.0
1001
ACAD
1010
0.0
1020
0.0
1030
0.0
  0
LINE
  5
2DB
330
F1
100
AcDbEntity
  8
0
  6
Continuous
 62
     4
100
AcDbLine
 10
938.5781424250264
 20
450.3529251554708
 30
0.0
 11
979.4702100020286
 21
491.244992732474
 31
0.0
1001
ACAD
1010
0.0
1020
0.0
1030
0.0
  0
LINE
  5
2DC
330
F1
100
AcDbEntity
  8
0
  6
Continuous
 62
     4
100
AcDbLine
 10
943.1274339629364
 20
486.7220218467765
 30
0.0
 11
947.6504048486335
 21
491.2449927324739
 31
0.0
1001
ACAD
1010
0.0
1020
0.0
1030
0.0
  0
LINE
  5
2DD
330
F1
100
AcDbEntity
  8
0
  6
Continuous
 62
     4
100
AcDbLine
 10
943.8814432839258
 20
445.0496242965717
 30
0.0
 11
988.2550080987371
 21
489.4231891113841
 31
0.0
1001
ACAD
1010
0.0
1020
0.0
1030
0.0
  0
LINE
  5
2DE
330
F1
100
AcDbEntity
  8
0
  6
Continuous
 62
     4
100
AcDbLine
 10
939.2528471511143
 20
429.8144264459618
 30
0.0
 11
993.5583089576367
 21
484.1198882524849
 31
0.0
1001
ACAD
1010
0.0
1020
0.0
1030
0.0
  0
LINE
  5
2DF
330
F1
100
AcDbEntity
  8
0
  6
Continuous
 62
     4
100
AcDbLine
 10
936.6532383831779
 20
416.6082159602265
 30
0.0
 11
988.8616098165362
 21
468.8165873935856
 31
0.0
1001
ACAD
1010
0.0
1020
0.0
1030
0.0
  0
LINE
  5
2E0
330
F1
100
AcDbEntity
  8
0
  6
Continuous
 62
     4
100
AcDbLine
 10
939.9275518772023
 20
409.2759277364526
 30
0.0
 11
994.1649106754352
 21
463.5132865346863
 31
0.0
1001
ACAD
1010
0.0
1020
0.0
1030
0.0
  0
LINE
  5
2E1
330
F1
100
AcDbEntity
  8
0
  6
Continuous
 62
     4
100
AcDbLine
 10
934.7035556132043
 20
393.4453297546562
 30
0.0
 11
989.4682115343346
 21
448.2099856757872
 31
0.0
1001
ACAD
1010
0.0
1020
0.0
1030
0.0
  0
LINE
  5
2E2
330
F1
100
AcDbEntity
  8
0
  6
Continuous
 62
     4
100
AcDbLine
 10
940.6022566032907
 20
388.7374290269436
 30
0.0
 11
984.7715123932339
 21
432.9066848168879
 31
0.0
1001
ACAD
1010
0.0
1020
0.0
1030
0.0
  0
LINE
  5
2E3
330
F1
100
AcDbEntity
  8
0
  6
Continuous
 62
     4
100
AcDbLine
 10
935.3782603392927
 20
372.9068310451471
 30
0.0
 11
990.0748132521334
 21
427.6033839579887
 31
0.0
1001
ACAD
1010
0.0
1020
0.0
1030
0.0
  0
LINE
  5
2E4
330
F1
100
AcDbEntity
  8
0
  6
Continuous
 62
     4
100
AcDbLine
 10
941.2769613293788
 20
368.1989303174347
 30
0.0
 11
985.3781141110326
 21
412.3000830990891
 31
0.0
1001
ACAD
1010
0.0
1020
0.0
1030
0.0
  0
LINE
  5
2E5
330
F1
100
AcDbEntity
  8
0
  6
Continuous
 62
     4
100
AcDbLine
 10
936.6690799398648
 20
352.9844472101219
 30
0.0
 11
990.6814149699322
 21
406.9967822401899
 31
0.0
1001
ACAD
1010
0.0
1020
0.0
1030
0.0
  0
LINE
  5
2E6
330
F1
100
AcDbEntity
  8
0
  6
Continuous
 62
     4
100
AcDbLine
 10
947.2756816576634
 20
352.9844472101219
 30
0.0
 11
985.9847158288316
 21
391.6934813812907
 31
0.0
1001
ACAD
1010
0.0
1020
0.0
1030
0.0
  0
LINE
  5
2E7
330
F1
100
AcDbEntity
  8
0
  6
Continuous
 62
     4
100
AcDbLine
 10
957.8822833754616
 20
352.984447210122
 30
0.0
 11
991.2880166877307
 21
386.3901805223917
 31
0.0
1001
ACAD
1010
0.0
1020
0.0
1030
0.0
  0
LINE
  5
2E8
330
F1
100
AcDbEntity
  8
0
  6
Continuous
 62
     4
100
AcDbLine
 10
968.4888850932599
 20
352.9844472101219
 30
0.0
 11
986.5913175466298
 21
371.0868796634922
 31
0.0
1001
ACAD
1010
0.0
1020
0.0
1030
0.0
  0
LINE
  5
2E9
330
F1
100
AcDbEntity
  8
0
  6
Continuous
 62
     4
100
AcDbLine
 10
979.0954868110583
 20
352.9844472101219
 30
0.0
 11
991.8946184055291
 21
365.7835788045928
 31
0.0
1001
ACAD
1010
0.0
1020
0.0
1030
0.0
  0
LINE
  5
2EA
330
F1
100
AcDbEntity
  8
1
  6
Continuous
 62
     7
100
AcDbLine
 10
984.6937500000002
 20
352.984447210122
 30
0.0
 11
774.6937500000002
 21
352.984447210122
 31
0.0
  0
LINE
  5
2EB
330
F1
100
AcDbEntity
  8
1
  6
Continuous
 62
     7
100
AcDbLine
 10
776.4332044776477
 20
491.244992732474
 30
0.0
 11
784.6937500000002
 21
482.9844472101219
 31
0.0
  0
LINE
  5
2EC
330
F1
100
AcDbEntity
  8
1
  6
Continuous
 62
     7
100
AcDbLine
 10
784.6937500000002
 20
482.9844472101219
 30
0.0
 11
774.6937500000002
 21
472.9844472101221
 31
0.0
  0
LINE
  5
2ED
330
F1
100
AcDbEntity
  8
1
  6
Continuous
 62
     7
100
AcDbLine
 10
774.6937500000002
 20
472.9844472101221
 30
0.0
 11
784.6937500000002
 21
462.9844472101218
 31
0.0
  0
LINE
  5
2EE
330
F1
100
AcDbEntity
  8
1
  6
Continuous
 62
     7
100
AcDbLine
 10
784.6937500000002
 20
462.9844472101218
 30
0.0
 11
774.6937500000002
 21
452.984447210122
 31
0.0
  0
LINE
  5
2EF
330
F1
100
AcDbEntity
  8
1
  6
Continuous
 62
     7
100
AcDbLine
 10
774.6937500000002
 20
452.984447210122
 30
0.0
 11
784.6937500000002
 21
442.9844472101218
 31
0.0
  0
LINE
  5
2F0
330
F1
100
AcDbEntity
  8
1
  6
Continuous
 62
     7
100
AcDbLine
 10
784.6937500000002
 20
442.9844472101218
 30
0.0
 11
774.6937500000002
 21
432.9844472101219
 31
0.0
  0
LINE
  5
2F1
330
F1
100
AcDbEntity
  8
1
  6
Continuous
 62
     7
100
AcDbLine
 10
774.6937500000002
 20
432.9844472101219
 30
0.0
 11
784.6937500000002
 21
422.9844472101218
 31
0.0
  0
LINE
  5
2F2
330
F1
100
AcDbEntity
  8
1
  6
Continuous
 62
     7
100
AcDbLine
 10
784.6937500000002
 20
422.9844472101218
 30
0.0
 11
774.6937500000002
 21
412.9844472101218
 31
0.0
  0
LINE
  5
2F3
330
F1
100
AcDbEntity
  8
1
  6
Continuous
 62
     7
100
AcDbLine
 10
774.6937500000002
 20
412.9844472101218
 30
0.0
 11
784.6937500000002
 21
402.984447210122
 31
0.0
  0
LINE
  5
2F4
330
F1
100
AcDbEntity
  8
1
  6
Continuous
 62
     7
100
AcDbLine
 10
784.6937500000002
 20
402.984447210122
 30
0.0
 11
774.6937500000002
 21
392.984447210122
 31
0.0
  0
LINE
  5
2F5
330
F1
100
AcDbEntity
  8
1
  6
Continuous
 62
     7
100
AcDbLine
 10
774.6937500000002
 20
392.984447210122
 30
0.0
 11
784.6937500000002
 21
382.9844472101222
 31
0.0
  0
LINE
  5
2F6
330
F1
100
AcDbEntity
  8
1
  6
Continuous
 62
     7
100
AcDbLine
 10
784.6937500000002
 20
382.9844472101222
 30
0.0
 11
774.6937500000002
 21
372.9844472101222
 31
0.0
  0
LINE
  5
2F7
330
F1
100
AcDbEntity
  8
1
  6
Continuous
 62
     7
100
AcDbLine
 10
774.6937500000002
 20
372.9844472101222
 30
0.0
 11
784.6937500000002
 21
362.984447210122
 31
0.0
  0
LINE
  5
2F8
330
F1
100
AcDbEntity
  8
1
  6
Continuous
 62
     7
100
AcDbLine
 10
986.4332044776476
 20
491.244992732474
 30
0.0
 11
994.6937500000002
 21
482.9844472101219
 31
0.0
  0
LINE
  5
2F9
330
F1
100
AcDbEntity
  8
1
  6
Continuous
 62
     7
100
AcDbLine
 10
994.6937500000002
 20
482.9844472101219
 30
0.0
 11
984.6937500000002
 21
472.9844472101221
 31
0.0
  0
LINE
  5
2FA
330
F1
100
AcDbEntity
  8
1
  6
Continuous
 62
     7
100
AcDbLine
 10
984.6937500000002
 20
472.9844472101221
 30
0.0
 11
994.6937500000002
 21
462.9844472101218
 31
0.0
  0
LINE
  5
2FB
330
F1
100
AcDbEntity
  8
1
  6
Continuous
 62
     7
100
AcDbLine
 10
994.6937500000002
 20
462.9844472101218
 30
0.0
 11
984.6937500000002
 21
452.984447210122
 31
0.0
  0
LINE
  5
2FC
330
F1
100
AcDbEntity
  8
1
  6
Continuous
 62
     7
100
AcDbLine
 10
984.6937500000002
 20
452.984447210122
 30
0.0
 11
994.6937500000002
 21
442.9844472101218
 31
0.0
  0
LINE
  5
2FD
330
F1
100
AcDbEntity
  8
1
  6
Continuous
 62
     7
100
AcDbLine
 10
994.6937500000002
 20
442.9844472101218
 30
0.0
 11
984.6937500000002
 21
432.9844472101219
 31
0.0
  0
LINE
  5
2FE
330
F1
100
AcDbEntity
  8
1
  6
Continuous
 62
     7
100
AcDbLine
 10
984.6937500000002
 20
432.9844472101219
 30
0.0
 11
994.6937500000002
 21
422.9844472101218
 31
0.0
  0
LINE
  5
2FF
330
F1
100
AcDbEntity
  8
1
  6
Continuous
 62
     7
100
AcDbLine
 10
994.6937500000002
 20
422.9844472101218
 30
0.0
 11
984.6937500000002
 21
412.9844472101218
 31
0.0
  0
LINE
  5
300
330
F1
100
AcDbEntity
  8
1
  6
Continuous
 62
     7
100
AcDbLine
 10
984.6937500000002
 20
412.9844472101218
 30
0.0
 11
994.6937500000002
 21
402.984447210122
 31
0.0
  0
LINE
  5
301
330
F1
100
AcDbEntity
  8
1
  6
Continuous
 62
     7
100
AcDbLine
 10
994.6937500000002
 20
402.984447210122
 30
0.0
 11
984.6937500000002
 21
392.984447210122
 31
0.0
  0
LINE
  5
302
330
F1
100
AcDbEntity
  8
1
  6
Continuous
 62
     7
100
AcDbLine
 10
984.6937500000002
 20
392.984447210122
 30
0.0
 11
994.6937500000002
 21
382.9844472101222
 31
0.0
  0
LINE
  5
303
330
F1
100
AcDbEntity
  8
1
  6
Continuous
 62
     7
100
AcDbLine
 10
994.6937500000002
 20
382.9844472101222
 30
0.0
 11
984.6937500000002
 21
372.9844472101222
 31
0.0
  0
LINE
  5
304
330
F1
100
AcDbEntity
  8
1
  6
Continuous
 62
     7
100
AcDbLine
 10
984.6937500000002
 20
372.9844472101222
 30
0.0
 11
994.6937500000002
 21
362.984447210122
 31
0.0
  0
LINE
  5
305
330
F1
100
AcDbEntity
  8
1
  6
Continuous
 62
     7
100
AcDbLine
 10
994.6937500000002
 20
362.984447210122
 30
0.0
 11
984.6937500000002
 21
352.984447210122
 31
0.0
  0
LINE
  5
306
330
F1
100
AcDbEntity
  8
1
  6
Continuous
 62
     7
100
AcDbLine
 10
784.6937500000002
 20
362.984447210122
 30
0.0
 11
774.6937500000002
 21
352.984447210122
 31
0.0
  0
LINE
  5
30A
330
F1
100
AcDbEntity
  8
1
  6
Continuous
 62
     7
100
AcDbLine
 10
827.6211631272211
 20
491.244992732474
 30
0.0
 11
835.0937500000004
 21
483.7724058596948
 31
0.0
  0
LINE
  5
30B
330
F1
100
AcDbEntity
  8
1
  6
Continuous
 62
     7
100
AcDbLine
 10
835.0937500000004
 20
483.7724058596948
 30
0.0
 11
825.0937500000002
 21
473.7724058596946
 31
0.0
  0
LINE
  5
30C
330
F1
100
AcDbEntity
  8
1
  6
Continuous
 62
     7
100
AcDbLine
 10
825.0937500000002
 20
473.7724058596946
 30
0.0
 11
835.0937500000004
 21
463.7724058596949
 31
0.0
  0
LINE
  5
30D
330
F1
100
AcDbEntity
  8
1
  6
Continuous
 62
     7
100
AcDbLine
 10
835.0937500000004
 20
463.7724058596949
 30
0.0
 11
825.0937500000002
 21
453.7724058596948
 31
0.0
  0
LINE
  5
30E
330
F1
100
AcDbEntity
  8
1
  6
Continuous
 62
     7
100
AcDbLine
 10
825.0937500000002
 20
453.7724058596948
 30
0.0
 11
835.0937500000004
 21
443.7724058596947
 31
0.0
  0
LINE
  5
30F
330
F1
100
AcDbEntity
  8
1
  6
Continuous
 62
     7
100
AcDbLine
 10
835.0937500000004
 20
443.7724058596947
 30
0.0
 11
825.0937500000002
 21
433.7724058596948
 31
0.0
  0
LINE
  5
310
330
F1
100
AcDbEntity
  8
1
  6
Continuous
 62
     7
100
AcDbLine
 10
825.0937500000002
 20
433.7724058596948
 30
0.0
 11
835.0937500000004
 21
423.7724058596946
 31
0.0
  0
LINE
  5
311
330
F1
100
AcDbEntity
  8
1
  6
Continuous
 62
     7
100
AcDbLine
 10
835.0937500000004
 20
423.7724058596946
 30
0.0
 11
825.0937500000002
 21
413.7724058596949
 31
0.0
  0
LINE
  5
312
330
F1
100
AcDbEntity
  8
1
  6
Continuous
 62
     7
100
AcDbLine
 10
825.0937500000002
 20
413.7724058596949
 30
0.0
 11
835.0937500000004
 21
403.7724058596948
 31
0.0
  0
LINE
  5
313
330
F1
100
AcDbEntity
  8
1
  6
Continuous
 62
     7
100
AcDbLine
 10
835.0937500000004
 20
403.7724058596948
 30
0.0
 11
825.0937500000002
 21
393.7724058596949
 31
0.0
  0
LINE
  5
314
330
F1
100
AcDbEntity
  8
1
  6
Continuous
 62
     7
100
AcDbLine
 10
825.0937500000002
 20
393.7724058596949
 30
0.0
 11
835.0937500000004
 21
383.7724058596949
 31
0.0
  0
LINE
  5
315
330
F1
100
AcDbEntity
  8
1
  6
Continuous
 62
     7
100
AcDbLine
 10
835.0937500000004
 20
383.7724058596949
 30
0.0
 11
825.0937500000002
 21
373.7724058596948
 31
0.0
  0
LINE
  5
316
330
F1
100
AcDbEntity
  8
1
  6
Continuous
 62
     7
100
AcDbLine
 10
825.0937500000002
 20
373.7724058596948
 30
0.0
 11
835.0937500000004
 21
363.7724058596948
 31
0.0
  0
LINE
  5
317
330
F1
100
AcDbEntity
  8
1
  6
Continuous
 62
     7
100
AcDbLine
 10
835.0937500000004
 20
363.7724058596948
 30
0.0
 11
934.2937500000003
 21
373.7724058596948
 31
0.0
  0
LINE
  5
318
330
F1
100
AcDbEntity
  8
1
  6
Continuous
 62
     7
100
AcDbLine
 10
835.0937500000004
 20
383.7724058596949
 30
0.0
 11
934.2937500000003
 21
393.7724058596949
 31
0.0
  0
LINE
  5
319
330
F1
100
AcDbEntity
  8
1
  6
Continuous
 62
     7
100
AcDbLine
 10
835.0937500000004
 20
403.7724058596948
 30
0.0
 11
934.2937500000003
 21
413.7724058596949
 31
0.0
  0
LINE
  5
31A
330
F1
100
AcDbEntity
  8
1
  6
Continuous
 62
     7
100
AcDbLine
 10
835.0937500000004
 20
423.7724058596946
 30
0.0
 11
934.2937500000003
 21
433.7724058596948
 31
0.0
  0
LINE
  5
31B
330
F1
100
AcDbEntity
  8
1
  6
Continuous
 62
     7
100
AcDbLine
 10
835.0937500000004
 20
443.7724058596947
 30
0.0
 11
934.2937500000003
 21
453.7724058596948
 31
0.0
  0
LINE
  5
31C
330
F1
100
AcDbEntity
  8
1
  6
Continuous
 62
     7
100
AcDbLine
 10
835.0937500000004
 20
463.7724058596949
 30
0.0
 11
934.2937500000003
 21
473.7724058596946
 31
0.0
  0
LINE
  5
31D
330
F1
100
AcDbEntity
  8
1
  6
Continuous
 62
     7
100
AcDbLine
 10
835.0937500000004
 20
483.7724058596948
 30
0.0
 11
909.2218117779692
 21
491.244992732474
 31
0.0
  0
LINE
  5
31E
330
F1
100
AcDbEntity
  8
1
  6
Continuous
 62
     7
100
AcDbLine
 10
944.2937500000002
 20
385.7911558596948
 30
0.0
 11
934.2937500000003
 21
373.7724058596948
 31
0.0
  0
LINE
  5
31F
330
F1
100
AcDbEntity
  8
1
  6
Continuous
 62
     7
100
AcDbLine
 10
934.2937500000003
 20
393.7724058596949
 30
0.0
 11
944.2937500000002
 21
385.7911558596948
 31
0.0
  0
LINE
  5
320
330
F1
100
AcDbEntity
  8
1
  6
Continuous
 62
     7
100
AcDbLine
 10
944.2937500000002
 20
405.7911558596948
 30
0.0
 11
934.2937500000003
 21
393.7724058596949
 31
0.0
  0
LINE
  5
321
330
F1
100
AcDbEntity
  8
1
  6
Continuous
 62
     7
100
AcDbLine
 10
944.2937500000002
 20
425.7911558596949
 30
0.0
 11
934.2937500000003
 21
413.7724058596949
 31
0.0
  0
LINE
  5
322
330
F1
100
AcDbEntity
  8
1
  6
Continuous
 62
     7
100
AcDbLine
 10
944.2937500000002
 20
445.7911558596948
 30
0.0
 11
934.2937500000003
 21
433.7724058596948
 31
0.0
  0
LINE
  5
323
330
F1
100
AcDbEntity
  8
1
  6
Continuous
 62
     7
100
AcDbLine
 10
944.2937500000002
 20
465.7911558596948
 30
0.0
 11
934.2937500000003
 21
453.7724058596948
 31
0.0
  0
LINE
  5
324
330
F1
100
AcDbEntity
  8
1
  6
Continuous
 62
     7
100
AcDbLine
 10
944.2937500000002
 20
485.7911558596947
 30
0.0
 11
934.2937500000003
 21
473.7724058596946
 31
0.0
  0
LINE
  5
325
330
F1
100
AcDbEntity
  8
1
  6
Continuous
 62
     7
100
AcDbLine
 10
934.2937500000003
 20
413.7724058596949
 30
0.0
 11
944.2937500000002
 21
405.7911558596948
 31
0.0
  0
LINE
  5
326
330
F1
100
AcDbEntity
  8
1
  6
Continuous
 62
     7
100
AcDbLine
 10
934.2937500000003
 20
433.7724058596948
 30
0.0
 11
944.2937500000002
 21
425.7911558596949
 31
0.0
  0
LINE
  5
327
330
F1
100
AcDbEntity
  8
1
  6
Continuous
 62
     7
100
AcDbLine
 10
934.2937500000003
 20
453.7724058596948
 30
0.0
 11
944.2937500000002
 21
445.7911558596948
 31
0.0
  0
LINE
  5
328
330
F1
100
AcDbEntity
  8
1
  6
Continuous
 62
     7
100
AcDbLine
 10
934.2937500000003
 20
473.7724058596946
 30
0.0
 11
944.2937500000002
 21
465.7911558596948
 31
0.0
  0
LINE
  5
329
330
F1
100
AcDbEntity
  8
1
  6
Continuous
 62
     7
100
AcDbLine
 10
937.4604383348112
 20
491.244992732474
 30
0.0
 11
944.2937500000002
 21
485.7911558596947
 31
0.0
  0
LINE
  5
32A
330
F1
100
AcDbEntity
  8
1
  6
Continuous
 62
     7
100
AcDbLine
 10
934.2937500000003
 20
373.7724058596948
 30
0.0
 11
944.2937500000002
 21
365.7911558596948
 31
0.0
  0
LINE
  5
32B
330
F1
100
AcDbEntity
  8
1
  6
Continuous
 62
     7
100
AcDbLine
 10
944.2937500000002
 20
365.7911558596948
 30
0.0
 11
934.2937500000003
 21
353.7724058596948
 31
0.0
  0
LINE
  5
32C
330
F1
100
AcDbEntity
  8
1
  6
Continuous
 62
     7
100
AcDbLine
 10
835.0937500000004
 20
363.7724058596948
 30
0.0
 11
825.0937500000002
 21
353.7724058596948
 31
0.0
  0
LINE
  5
32D
330
F1
100
AcDbEntity
  8
1
  6
Continuous
 62
     3
100
AcDbLine
 10
1000.4375
 20
352.984447210122
 30
0.0
 11
1114.2625
 21
352.984447210122
 31
0.0
  0
LINE
  5
32E
330
F1
100
AcDbEntity
  8
1
  6
Continuous
 62
     3
100
AcDbLine
 10
1100.249999999999
 20
491.244992732474
 30
0.0
 11
1106.80625
 21
467.5324927324742
 31
0.0
  0
LINE
  5
32F
330
F1
100
AcDbEntity
  8
1
  6
Continuous
 62
     3
100
AcDbLine
 10
1100.249999999999
 20
491.244992732474
 30
0.0
 11
1093.693749999999
 21
467.5324927324742
 31
0.0
  0
LINE
  5
330
330
F1
100
AcDbEntity
  8
1
  6
Continuous
 62
     3
100
AcDbLine
 10
1093.693749999999
 20
467.5324927324742
 30
0.0
 11
1106.80625
 21
467.5324927324742
 31
0.0
  0
LINE
  5
331
330
F1
100
AcDbEntity
  8
1
  6
Continuous
 62
     3
100
AcDbLine
 10
1100.249999999999
 20
352.984447210122
 30
0.0
 11
1093.693749999999
 21
376.6969472101221
 31
0.0
  0
LINE
  5
332
330
F1
100
AcDbEntity
  8
1
  6
Continuous
 62
     3
100
AcDbLine
 10
1100.249999999999
 20
352.984447210122
 30
0.0
 11
1106.80625
 21
376.6969472101221
 31
0.0
  0
LINE
  5
333
330
F1
100
AcDbEntity
  8
1
  6
Continuous
 62
     3
100
AcDbLine
 10
1106.80625
 20
376.6969472101221
 30
0.0
 11
1093.693749999999
 21
376.6969472101221
 31
0.0
  0
LINE
  5
334
330
F1
100
AcDbEntity
  8
1
  6
Continuous
 62
     3
100
AcDbLine
 10
1000.4375
 20
491.244992732474
 30
0.0
 11
1114.2625
 21
491.244992732474
 31
0.0
  0
LINE
  5
335
330
F1
100
AcDbEntity
  8
1
  6
Continuous
 62
     3
100
AcDbLine
 10
1100.249999999999
 20
376.6969472101221
 30
0.0
 11
1100.249999999999
 21
402.7617206748007
 31
0.0
  0
LINE
  5
336
330
F1
100
AcDbEntity
  8
1
  6
Continuous
 62
     3
100
AcDbLine
 10
1100.249999999999
 20
445.9242206748007
 30
0.0
 11
1100.249999999999
 21
467.5324927324742
 31
0.0
  0
LINE
  5
337
330
F1
100
AcDbEntity
  8
1
  6
Continuous
 62
     5
100
AcDbLine
 10
1100.249999999999
 20
423.0304706748007
 30
0.0
 11
1103.25
 21
423.0304706748007
 31
0.0
  0
LINE
  5
338
330
F1
100
AcDbEntity
  8
1
  6
Continuous
 62
     7
100
AcDbLine
 10
986.4332044776476
 20
491.244992732474
 30
0.0
 11
776.4332044776477
 21
491.244992732474
 31
0.0
  0
LINE
  5
380
330
F1
100
AcDbEntity
  8
1
  6
Continuous
 62
     7
100
AcDbLine
 10
995.0966040000002
 20
745.4367953969105
 30
0.0
 11
994.5649840818207
 21
756.2581674302125
 31
0.0
  0
LINE
  5
381
330
F1
100
AcDbEntity
  8
1
  6
Continuous
 62
     7
100
AcDbLine
 10
994.5649840818207
 20
756.2581674302125
 30
0.0
 11
992.9752441177072
 21
766.9753237352701
 31
0.0
  0
LINE
  5
382
330
F1
100
AcDbEntity
  8
1
  6
Continuous
 62
     7
100
AcDbLine
 10
992.9752441177072
 20
766.9753237352701
 30
0.0
 11
990.3426941725543
 21
777.485052238272
 31
0.0
  0
LINE
  5
383
330
F1
100
AcDbEntity
  8
1
  6
Continuous
 62
     7
100
AcDbLine
 10
990.3426941725543
 20
777.485052238272
 30
0.0
 11
986.6926871414321
 21
787.6861385085324
 31
0.0
  0
LINE
  5
384
330
F1
100
AcDbEntity
  8
1
  6
Continuous
 62
     7
100
AcDbLine
 10
986.6926871414321
 20
787.6861385085324
 30
0.0
 11
982.0603745873471
 21
797.4803405087876
 31
0.0
  0
LINE
  5
387
330
F1
100
AcDbEntity
  8
1
  6
Continuous
 62
     7
100
AcDbLine
 10
970.0363102230804
 20
815.47562452701
 30
0.0
 11
962.7603567257486
 21
823.5034021226589
 31
0.0
  0
LINE
  5
388
330
F1
100
AcDbEntity
  8
1
  6
Continuous
 62
     7
100
AcDbLine
 10
962.7603567257486
 20
823.5034021226589
 30
0.0
 11
954.7325791300997
 21
830.7793556199905
 31
0.0
  0
LINE
  5
389
330
F1
100
AcDbEntity
  8
1
  6
Continuous
 62
     7
100
AcDbLine
 10
954.7325791300997
 20
830.7793556199905
 30
0.0
 11
946.0302893228094
 21
837.2334136093851
 31
0.0
  0
LINE
  5
38A
330
F1
100
AcDbEntity
  8
1
  6
Continuous
 62
     7
100
AcDbLine
 10
946.0302893228094
 20
837.2334136093851
 30
0.0
 11
936.7372951118772
 21
842.8034199842574
 31
0.0
  0
LINE
  5
38B
330
F1
100
AcDbEntity
  8
1
  6
Continuous
 62
     7
100
AcDbLine
 10
936.7372951118772
 20
842.8034199842574
 30
0.0
 11
926.943093111622
 21
847.4357325383424
 31
0.0
  0
LINE
  5
38C
330
F1
100
AcDbEntity
  8
1
  6
Continuous
 62
     7
100
AcDbLine
 10
926.943093111622
 20
847.4357325383424
 30
0.0
 11
916.7420068413617
 21
851.0857395694648
 31
0.0
  0
LINE
  5
38D
330
F1
100
AcDbEntity
  8
1
  6
Continuous
 62
     7
100
AcDbLine
 10
916.7420068413617
 20
851.0857395694648
 30
0.0
 11
906.2322783383597
 21
853.7182895146175
 31
0.0
  0
LINE
  5
38E
330
F1
100
AcDbEntity
  8
1
  6
Continuous
 62
     7
100
AcDbLine
 10
906.2322783383597
 20
853.7182895146175
 30
0.0
 11
895.515122033302
 21
855.308029478731
 31
0.0
  0
LINE
  5
38F
330
F1
100
AcDbEntity
  8
1
  6
Continuous
 62
     7
100
AcDbLine
 10
895.515122033302
 20
855.308029478731
 30
0.0
 11
884.6937500000001
 21
855.8396493969107
 31
0.0
  0
LINE
  5
390
330
F1
100
AcDbEntity
  8
1
  6
Continuous
 62
     7
100
AcDbLine
 10
884.6937500000001
 20
855.8396493969107
 30
0.0
 11
873.8723779666981
 21
855.308029478731
 31
0.0
  0
LINE
  5
391
330
F1
100
AcDbEntity
  8
1
  6
Continuous
 62
     7
100
AcDbLine
 10
873.8723779666981
 20
855.308029478731
 30
0.0
 11
863.1552216616404
 21
853.7182895146175
 31
0.0
  0
LINE
  5
392
330
F1
100
AcDbEntity
  8
1
  6
Continuous
 62
     7
100
AcDbLine
 10
863.1552216616404
 20
853.7182895146175
 30
0.0
 11
852.6454931586384
 21
851.0857395694646
 31
0.0
  0
LINE
  5
393
330
F1
100
AcDbEntity
  8
1
  6
Continuous
 62
     7
100
AcDbLine
 10
852.6454931586384
 20
851.0857395694646
 30
0.0
 11
842.4444068883781
 21
847.4357325383424
 31
0.0
  0
LINE
  5
394
330
F1
100
AcDbEntity
  8
1
  6
Continuous
 62
     7
100
AcDbLine
 10
842.4444068883781
 20
847.4357325383424
 30
0.0
 11
832.6502048881229
 21
842.8034199842574
 31
0.0
  0
LINE
  5
395
330
F1
100
AcDbEntity
  8
1
  6
Continuous
 62
     7
100
AcDbLine
 10
832.6502048881229
 20
842.8034199842574
 30
0.0
 11
823.3572106771907
 21
837.2334136093851
 31
0.0
  0
LINE
  5
396
330
F1
100
AcDbEntity
  8
1
  6
Continuous
 62
     7
100
AcDbLine
 10
823.3572106771907
 20
837.2334136093851
 30
0.0
 11
814.6549208699005
 21
830.7793556199905
 31
0.0
  0
LINE
  5
397
330
F1
100
AcDbEntity
  8
1
  6
Continuous
 62
     7
100
AcDbLine
 10
814.6549208699005
 20
830.7793556199905
 30
0.0
 11
806.6271432742516
 21
823.5034021226589
 31
0.0
  0
LINE
  5
398
330
F1
100
AcDbEntity
  8
1
  6
Continuous
 62
     7
100
AcDbLine
 10
806.6271432742516
 20
823.5034021226589
 30
0.0
 11
799.3511897769199
 21
815.47562452701
 31
0.0
  0
LINE
  5
399
330
F1
100
AcDbEntity
  8
1
  6
Continuous
 62
     7
100
AcDbLine
 10
799.3511897769199
 20
815.47562452701
 30
0.0
 11
792.8971317875253
 21
806.7733347197195
 31
0.0
  0
LINE
  5
39A
330
F1
100
AcDbEntity
  8
1
  6
Continuous
 62
     7
100
AcDbLine
 10
792.8971317875253
 20
806.7733347197195
 30
0.0
 11
787.3271254126531
 21
797.4803405087874
 31
0.0
  0
LINE
  5
39B
330
F1
100
AcDbEntity
  8
1
  6
Continuous
 62
     7
100
AcDbLine
 10
787.3271254126531
 20
797.4803405087874
 30
0.0
 11
782.694812858568
 21
787.6861385085322
 31
0.0
  0
LINE
  5
39C
330
F1
100
AcDbEntity
  8
1
  6
Continuous
 62
     7
100
AcDbLine
 10
782.694812858568
 20
787.6861385085322
 30
0.0
 11
779.0448058274458
 21
777.4850522382719
 31
0.0
  0
LINE
  5
39D
330
F1
100
AcDbEntity
  8
1
  6
Continuous
 62
     7
100
AcDbLine
 10
779.0448058274458
 20
777.4850522382719
 30
0.0
 11
776.412255882293
 21
766.97532373527
 31
0.0
  0
LINE
  5
39E
330
F1
100
AcDbEntity
  8
1
  6
Continuous
 62
     7
100
AcDbLine
 10
776.412255882293
 20
766.97532373527
 30
0.0
 11
774.8225159181795
 21
756.2581674302123
 31
0.0
  0
LINE
  5
39F
330
F1
100
AcDbEntity
  8
1
  6
Continuous
 62
     7
100
AcDbLine
 10
774.8225159181795
 20
756.2581674302123
 30
0.0
 11
774.290896
 21
745.4367953969103
 31
0.0
  0
LINE
  5
3A0
330
F1
100
AcDbEntity
  8
1
  6
Continuous
 62
     7
100
AcDbLine
 10
774.290896
 20
745.4367953969103
 30
0.0
 11
774.8225159181795
 21
734.6154233636082
 31
0.0
  0
LINE
  5
3A1
330
F1
100
AcDbEntity
  8
1
  6
Continuous
 62
     7
100
AcDbLine
 10
774.8225159181795
 20
734.6154233636082
 30
0.0
 11
776.4122558822931
 21
723.8982670585506
 31
0.0
  0
LINE
  5
3A2
330
F1
100
AcDbEntity
  8
1
  6
Continuous
 62
     7
100
AcDbLine
 10
776.4122558822931
 20
723.8982670585506
 30
0.0
 11
779.044805827446
 21
713.3885385555486
 31
0.0
  0
LINE
  5
3A3
330
F1
100
AcDbEntity
  8
1
  6
Continuous
 62
     7
100
AcDbLine
 10
779.044805827446
 20
713.3885385555486
 30
0.0
 11
782.6948128585683
 21
703.1874522852882
 31
0.0
  0
LINE
  5
3A4
330
F1
100
AcDbEntity
  8
1
  6
Continuous
 62
     7
100
AcDbLine
 10
782.6948128585683
 20
703.1874522852882
 30
0.0
 11
787.3271254126532
 21
693.3932502850331
 31
0.0
  0
LINE
  5
3A5
330
F1
100
AcDbEntity
  8
1
  6
Continuous
 62
     7
100
AcDbLine
 10
787.3271254126532
 20
693.3932502850331
 30
0.0
 11
792.8971317875257
 21
684.100256074101
 31
0.0
  0
LINE
  5
3A6
330
F1
100
AcDbEntity
  8
1
  6
Continuous
 62
     7
100
AcDbLine
 10
792.8971317875257
 20
684.100256074101
 30
0.0
 11
799.3511897769201
 21
675.3979662668107
 31
0.0
  0
LINE
  5
3A7
330
F1
100
AcDbEntity
  8
1
  6
Continuous
 62
     7
100
AcDbLine
 10
799.3511897769201
 20
675.3979662668107
 30
0.0
 11
806.6271432742519
 21
667.3701886711618
 31
0.0
  0
LINE
  5
3A8
330
F1
100
AcDbEntity
  8
1
  6
Continuous
 62
     7
100
AcDbLine
 10
806.6271432742519
 20
667.3701886711618
 30
0.0
 11
814.6549208699008
 21
660.0942351738301
 31
0.0
  0
LINE
  5
3A9
330
F1
100
AcDbEntity
  8
1
  6
Continuous
 62
     7
100
AcDbLine
 10
814.6549208699008
 20
660.0942351738301
 30
0.0
 11
823.3572106771912
 21
653.6401771844357
 31
0.0
  0
LINE
  5
3AA
330
F1
100
AcDbEntity
  8
1
  6
Continuous
 62
     7
100
AcDbLine
 10
823.3572106771912
 20
653.6401771844357
 30
0.0
 11
832.6502048881232
 21
648.0701708095633
 31
0.0
  0
LINE
  5
3AB
330
F1
100
AcDbEntity
  8
1
  6
Continuous
 62
     7
100
AcDbLine
 10
832.6502048881232
 20
648.0701708095633
 30
0.0
 11
842.4444068883783
 21
643.4378582554784
 31
0.0
  0
LINE
  5
3AC
330
F1
100
AcDbEntity
  8
1
  6
Continuous
 62
     7
100
AcDbLine
 10
842.4444068883783
 20
643.4378582554784
 30
0.0
 11
852.6454931586387
 21
639.7878512243562
 31
0.0
  0
LINE
  5
3AD
330
F1
100
AcDbEntity
  8
1
  6
Continuous
 62
     7
100
AcDbLine
 10
852.6454931586387
 20
639.7878512243562
 30
0.0
 11
863.1552216616407
 21
637.1553012792034
 31
0.0
  0
LINE
  5
3AE
330
F1
100
AcDbEntity
  8
1
  6
Continuous
 62
     7
100
AcDbLine
 10
863.1552216616407
 20
637.1553012792034
 30
0.0
 11
873.8723779666981
 21
635.5655613150899
 31
0.0
  0
LINE
  5
3AF
330
F1
100
AcDbEntity
  8
1
  6
Continuous
 62
     7
100
AcDbLine
 10
873.8723779666981
 20
635.5655613150899
 30
0.0
 11
884.6937500000002
 21
635.0339413969103
 31
0.0
  0
LINE
  5
3B0
330
F1
100
AcDbEntity
  8
1
  6
Continuous
 62
     7
100
AcDbLine
 10
884.6937500000002
 20
635.0339413969103
 30
0.0
 11
895.5151220333021
 21
635.5655613150899
 31
0.0
  0
LINE
  5
3B1
330
F1
100
AcDbEntity
  8
1
  6
Continuous
 62
     7
100
AcDbLine
 10
895.5151220333021
 20
635.5655613150899
 30
0.0
 11
906.2322783383597
 21
637.1553012792034
 31
0.0
  0
LINE
  5
3B2
330
F1
100
AcDbEntity
  8
1
  6
Continuous
 62
     7
100
AcDbLine
 10
906.2322783383597
 20
637.1553012792034
 30
0.0
 11
916.7420068413617
 21
639.7878512243562
 31
0.0
  0
LINE
  5
3B3
330
F1
100
AcDbEntity
  8
1
  6
Continuous
 62
     7
100
AcDbLine
 10
916.7420068413617
 20
639.7878512243562
 30
0.0
 11
926.943093111622
 21
643.4378582554784
 31
0.0
  0
LINE
  5
3B4
330
F1
100
AcDbEntity
  8
1
  6
Continuous
 62
     7
100
AcDbLine
 10
926.943093111622
 20
643.4378582554784
 30
0.0
 11
936.7372951118772
 21
648.0701708095635
 31
0.0
  0
LINE
  5
3B5
330
F1
100
AcDbEntity
  8
1
  6
Continuous
 62
     7
100
AcDbLine
 10
936.7372951118772
 20
648.0701708095635
 30
0.0
 11
946.0302893228092
 21
653.6401771844357
 31
0.0
  0
LINE
  5
3B6
330
F1
100
AcDbEntity
  8
1
  6
Continuous
 62
     7
100
AcDbLine
 10
946.0302893228092
 20
653.6401771844357
 30
0.0
 11
954.7325791300995
 21
660.0942351738301
 31
0.0
  0
LINE
  5
3B7
330
F1
100
AcDbEntity
  8
1
  6
Continuous
 62
     7
100
AcDbLine
 10
954.7325791300995
 20
660.0942351738301
 30
0.0
 11
962.7603567257484
 21
667.3701886711619
 31
0.0
  0
LINE
  5
3B8
330
F1
100
AcDbEntity
  8
1
  6
Continuous
 62
     7
100
AcDbLine
 10
962.7603567257484
 20
667.3701886711619
 30
0.0
 11
970.0363102230801
 21
675.3979662668107
 31
0.0
  0
LINE
  5
3B9
330
F1
100
AcDbEntity
  8
1
  6
Continuous
 62
     7
100
AcDbLine
 10
970.0363102230801
 20
675.3979662668107
 30
0.0
 11
976.4903682124746
 21
684.100256074101
 31
0.0
  0
LINE
  5
3BA
330
F1
100
AcDbEntity
  8
1
  6
Continuous
 62
     7
100
AcDbLine
 10
976.4903682124746
 20
684.100256074101
 30
0.0
 11
982.0603745873469
 21
693.3932502850331
 31
0.0
  0
LINE
  5
3BB
330
F1
100
AcDbEntity
  8
1
  6
Continuous
 62
     7
100
AcDbLine
 10
982.0603745873469
 20
693.3932502850331
 30
0.0
 11
986.6926871414319
 21
703.1874522852882
 31
0.0
  0
LINE
  5
3BC
330
F1
100
AcDbEntity
  8
1
  6
Continuous
 62
     7
100
AcDbLine
 10
986.6926871414319
 20
703.1874522852882
 30
0.0
 11
990.3426941725543
 21
713.3885385555485
 31
0.0
  0
LINE
  5
3BD
330
F1
100
AcDbEntity
  8
1
  6
Continuous
 62
     7
100
AcDbLine
 10
990.3426941725543
 20
713.3885385555485
 30
0.0
 11
992.975244117707
 21
723.8982670585504
 31
0.0
  0
LINE
  5
3BE
330
F1
100
AcDbEntity
  8
1
  6
Continuous
 62
     7
100
AcDbLine
 10
992.975244117707
 20
723.8982670585504
 30
0.0
 11
994.5649840818207
 21
734.6154233636079
 31
0.0
  0
LINE
  5
3BF
330
F1
100
AcDbEntity
  8
1
  6
Continuous
 62
     7
100
AcDbLine
 10
994.5649840818207
 20
734.6154233636079
 30
0.0
 11
995.0966040000002
 21
745.4367953969105
 31
0.0
  0
LINE
  5
3C0
330
F1
100
AcDbEntity
  8
1
  6
Continuous
 62
     7
100
AcDbLine
 10
948.0402550000002
 20
745.4367953969105
 30
0.0
 11
947.7352242640641
 21
751.6458386668826
 31
0.0
  0
LINE
  5
3C1
330
F1
100
AcDbEntity
  8
1
  6
Continuous
 62
     7
100
AcDbLine
 10
947.7352242640641
 20
751.6458386668826
 30
0.0
 11
946.8230696689898
 21
757.7950854559568
 31
0.0
  0
LINE
  5
3C2
330
F1
100
AcDbEntity
  8
1
  6
Continuous
 62
     7
100
AcDbLine
 10
946.8230696689898
 20
757.7950854559568
 30
0.0
 11
945.3125757621622
 21
763.8253151560337
 31
0.0
  0
LINE
  5
3C3
330
F1
100
AcDbEntity
  8
1
  6
Continuous
 62
     7
100
AcDbLine
 10
945.3125757621622
 20
763.8253151560337
 30
0.0
 11
943.2182894256241
 21
769.6784533586428
 31
0.0
  0
LINE
  5
3C4
330
F1
100
AcDbEntity
  8
1
  6
Continuous
 62
     7
100
AcDbLine
 10
943.2182894256241
 20
769.6784533586428
 30
0.0
 11
940.5603797816496
 21
775.2981311432422
 31
0.0
  0
LINE
  5
3C5
330
F1
100
AcDbEntity
  8
1
  6
Continuous
 62
     7
100
AcDbLine
 10
940.5603797816496
 20
775.2981311432422
 30
0.0
 11
937.3644439530714
 21
780.630227940738
 31
0.0
  0
LINE
  5
3C6
330
F1
100
AcDbEntity
  8
1
  6
Continuous
 62
     7
100
AcDbLine
 10
937.3644439530714
 20
780.630227940738
 30
0.0
 11
933.661260548995
 21
785.6233927441493
 31
0.0
  0
LINE
  5
3C7
330
F1
100
AcDbEntity
  8
1
  6
Continuous
 62
     7
100
AcDbLine
 10
933.661260548995
 20
785.6233927441493
 30
0.0
 11
929.4864932499677
 21
790.2295386468781
 31
0.0
  0
LINE
  5
3C8
330
F1
100
AcDbEntity
  8
1
  6
Continuous
 62
     7
100
AcDbLine
 10
929.4864932499677
 20
790.2295386468781
 30
0.0
 11
924.880347347239
 21
794.4043059459054
 31
0.0
  0
LINE
  5
3C9
330
F1
100
AcDbEntity
  8
1
  6
Continuous
 62
     7
100
AcDbLine
 10
924.880347347239
 20
794.4043059459054
 30
0.0
 11
919.8871825438276
 21
798.1074893499818
 31
0.0
  0
LINE
  5
3CA
330
F1
100
AcDbEntity
  8
1
  6
Continuous
 62
     7
100
AcDbLine
 10
919.8871825438276
 20
798.1074893499818
 30
0.0
 11
914.5550857463318
 21
801.3034251785599
 31
0.0
  0
LINE
  5
3CB
330
F1
100
AcDbEntity
  8
1
  6
Continuous
 62
     7
100
AcDbLine
 10
914.5550857463318
 20
801.3034251785599
 30
0.0
 11
908.9354079617324
 21
803.9613348225344
 31
0.0
  0
LINE
  5
3CC
330
F1
100
AcDbEntity
  8
1
  6
Continuous
 62
     7
100
AcDbLine
 10
908.9354079617324
 20
803.9613348225344
 30
0.0
 11
903.0822697591233
 21
806.0556211590727
 31
0.0
  0
LINE
  5
3CD
330
F1
100
AcDbEntity
  8
1
  6
Continuous
 62
     7
100
AcDbLine
 10
903.0822697591233
 20
806.0556211590727
 30
0.0
 11
897.0520400590464
 21
807.5661150659001
 31
0.0
  0
LINE
  5
3CE
330
F1
100
AcDbEntity
  8
1
  6
Continuous
 62
     7
100
AcDbLine
 10
897.0520400590464
 20
807.5661150659001
 30
0.0
 11
890.9027932699723
 21
808.4782696609746
 31
0.0
  0
LINE
  5
3CF
330
F1
100
AcDbEntity
  8
1
  6
Continuous
 62
     7
100
AcDbLine
 10
890.9027932699723
 20
808.4782696609746
 30
0.0
 11
884.6937500000001
 21
808.7833003969105
 31
0.0
  0
LINE
  5
3D0
330
F1
100
AcDbEntity
  8
1
  6
Continuous
 62
     7
100
AcDbLine
 10
884.6937500000001
 20
808.7833003969105
 30
0.0
 11
878.484706730028
 21
808.4782696609746
 31
0.0
  0
LINE
  5
3D1
330
F1
100
AcDbEntity
  8
1
  6
Continuous
 62
     7
100
AcDbLine
 10
878.484706730028
 20
808.4782696609746
 30
0.0
 11
872.3354599409537
 21
807.5661150659001
 31
0.0
  0
LINE
  5
3D2
330
F1
100
AcDbEntity
  8
1
  6
Continuous
 62
     7
100
AcDbLine
 10
872.3354599409537
 20
807.5661150659001
 30
0.0
 11
866.3052302408768
 21
806.0556211590727
 31
0.0
  0
LINE
  5
3D3
330
F1
100
AcDbEntity
  8
1
  6
Continuous
 62
     7
100
AcDbLine
 10
866.3052302408768
 20
806.0556211590727
 30
0.0
 11
860.4520920382677
 21
803.9613348225344
 31
0.0
  0
LINE
  5
3D4
330
F1
100
AcDbEntity
  8
1
  6
Continuous
 62
     7
100
AcDbLine
 10
860.4520920382677
 20
803.9613348225344
 30
0.0
 11
854.8324142536683
 21
801.3034251785599
 31
0.0
  0
LINE
  5
3D5
330
F1
100
AcDbEntity
  8
1
  6
Continuous
 62
     7
100
AcDbLine
 10
854.8324142536683
 20
801.3034251785599
 30
0.0
 11
849.5003174561727
 21
798.1074893499817
 31
0.0
  0
LINE
  5
3D6
330
F1
100
AcDbEntity
  8
1
  6
Continuous
 62
     7
100
AcDbLine
 10
849.5003174561727
 20
798.1074893499817
 30
0.0
 11
844.5071526527611
 21
794.4043059459054
 31
0.0
  0
LINE
  5
3D7
330
F1
100
AcDbEntity
  8
1
  6
Continuous
 62
     7
100
AcDbLine
 10
844.5071526527611
 20
794.4043059459054
 30
0.0
 11
839.9010067500324
 21
790.229538646878
 31
0.0
  0
LINE
  5
3D8
330
F1
100
AcDbEntity
  8
1
  6
Continuous
 62
     7
100
AcDbLine
 10
839.9010067500324
 20
790.229538646878
 30
0.0
 11
835.7262394510051
 21
785.6233927441493
 31
0.0
  0
LINE
  5
3D9
330
F1
100
AcDbEntity
  8
1
  6
Continuous
 62
     7
100
AcDbLine
 10
835.7262394510051
 20
785.6233927441493
 30
0.0
 11
832.0230560469287
 21
780.6302279407378
 31
0.0
  0
LINE
  5
3DA
330
F1
100
AcDbEntity
  8
1
  6
Continuous
 62
     7
100
AcDbLine
 10
832.0230560469287
 20
780.6302279407378
 30
0.0
 11
828.8271202183505
 21
775.2981311432422
 31
0.0
  0
LINE
  5
3DB
330
F1
100
AcDbEntity
  8
1
  6
Continuous
 62
     7
100
AcDbLine
 10
828.8271202183505
 20
775.2981311432422
 30
0.0
 11
826.1692105743762
 21
769.6784533586427
 31
0.0
  0
LINE
  5
3DC
330
F1
100
AcDbEntity
  8
1
  6
Continuous
 62
     7
100
AcDbLine
 10
826.1692105743762
 20
769.6784533586427
 30
0.0
 11
824.0749242378379
 21
763.8253151560336
 31
0.0
  0
LINE
  5
3DD
330
F1
100
AcDbEntity
  8
1
  6
Continuous
 62
     7
100
AcDbLine
 10
824.0749242378379
 20
763.8253151560336
 30
0.0
 11
822.5644303310103
 21
757.7950854559567
 31
0.0
  0
LINE
  5
3DE
330
F1
100
AcDbEntity
  8
1
  6
Continuous
 62
     7
100
AcDbLine
 10
822.5644303310103
 20
757.7950854559567
 30
0.0
 11
821.652275735936
 21
751.6458386668825
 31
0.0
  0
LINE
  5
3DF
330
F1
100
AcDbEntity
  8
1
  6
Continuous
 62
     7
100
AcDbLine
 10
821.652275735936
 20
751.6458386668825
 30
0.0
 11
821.3472450000001
 21
745.4367953969104
 31
0.0
  0
LINE
  5
3E0
330
F1
100
AcDbEntity
  8
1
  6
Continuous
 62
     7
100
AcDbLine
 10
821.3472450000001
 20
745.4367953969104
 30
0.0
 11
821.652275735936
 21
739.2277521269382
 31
0.0
  0
LINE
  5
3E1
330
F1
100
AcDbEntity
  8
1
  6
Continuous
 62
     7
100
AcDbLine
 10
821.652275735936
 20
739.2277521269382
 30
0.0
 11
822.5644303310103
 21
733.078505337864
 31
0.0
  0
LINE
  5
3E2
330
F1
100
AcDbEntity
  8
1
  6
Continuous
 62
     7
100
AcDbLine
 10
822.5644303310103
 20
733.078505337864
 30
0.0
 11
824.0749242378381
 21
727.0482756377871
 31
0.0
  0
LINE
  5
3E3
330
F1
100
AcDbEntity
  8
1
  6
Continuous
 62
     7
100
AcDbLine
 10
824.0749242378381
 20
727.0482756377871
 30
0.0
 11
826.1692105743762
 21
721.195137435178
 31
0.0
  0
LINE
  5
3E4
330
F1
100
AcDbEntity
  8
1
  6
Continuous
 62
     7
100
AcDbLine
 10
826.1692105743762
 20
721.195137435178
 30
0.0
 11
828.8271202183507
 21
715.5754596505785
 31
0.0
  0
LINE
  5
3E5
330
F1
100
AcDbEntity
  8
1
  6
Continuous
 62
     7
100
AcDbLine
 10
828.8271202183507
 20
715.5754596505785
 30
0.0
 11
832.0230560469289
 21
710.2433628530828
 31
0.0
  0
LINE
  5
3E6
330
F1
100
AcDbEntity
  8
1
  6
Continuous
 62
     7
100
AcDbLine
 10
832.0230560469289
 20
710.2433628530828
 30
0.0
 11
835.7262394510053
 21
705.2501980496715
 31
0.0
  0
LINE
  5
3E7
330
F1
100
AcDbEntity
  8
1
  6
Continuous
 62
     7
100
AcDbLine
 10
835.7262394510053
 20
705.2501980496715
 30
0.0
 11
839.9010067500327
 21
700.6440521469427
 31
0.0
  0
LINE
  5
3E8
330
F1
100
AcDbEntity
  8
1
  6
Continuous
 62
     7
100
AcDbLine
 10
839.9010067500327
 20
700.6440521469427
 30
0.0
 11
844.5071526527614
 21
696.4692848479154
 31
0.0
  0
LINE
  5
3E9
330
F1
100
AcDbEntity
  8
1
  6
Continuous
 62
     7
100
AcDbLine
 10
844.5071526527614
 20
696.4692848479154
 30
0.0
 11
849.5003174561729
 21
692.766101443839
 31
0.0
  0
LINE
  5
3EA
330
F1
100
AcDbEntity
  8
1
  6
Continuous
 62
     7
100
AcDbLine
 10
849.5003174561729
 20
692.766101443839
 30
0.0
 11
854.8324142536685
 21
689.570165615261
 31
0.0
  0
LINE
  5
3EB
330
F1
100
AcDbEntity
  8
1
  6
Continuous
 62
     7
100
AcDbLine
 10
854.8324142536685
 20
689.570165615261
 30
0.0
 11
860.4520920382679
 21
686.9122559712865
 31
0.0
  0
LINE
  5
3EC
330
F1
100
AcDbEntity
  8
1
  6
Continuous
 62
     7
100
AcDbLine
 10
860.4520920382679
 20
686.9122559712865
 30
0.0
 11
866.305230240877
 21
684.8179696347483
 31
0.0
  0
LINE
  5
3ED
330
F1
100
AcDbEntity
  8
1
  6
Continuous
 62
     7
100
AcDbLine
 10
866.305230240877
 20
684.8179696347483
 30
0.0
 11
872.3354599409539
 21
683.3074757279207
 31
0.0
  0
LINE
  5
3EE
330
F1
100
AcDbEntity
  8
1
  6
Continuous
 62
     7
100
AcDbLine
 10
872.3354599409539
 20
683.3074757279207
 30
0.0
 11
878.484706730028
 21
682.3953211328464
 31
0.0
  0
LINE
  5
3EF
330
F1
100
AcDbEntity
  8
1
  6
Continuous
 62
     7
100
AcDbLine
 10
878.484706730028
 20
682.3953211328464
 30
0.0
 11
884.6937500000001
 21
682.0902903969104
 31
0.0
  0
LINE
  5
3F0
330
F1
100
AcDbEntity
  8
1
  6
Continuous
 62
     7
100
AcDbLine
 10
884.6937500000001
 20
682.0902903969104
 30
0.0
 11
890.9027932699723
 21
682.3953211328464
 31
0.0
  0
LINE
  5
3F1
330
F1
100
AcDbEntity
  8
1
  6
Continuous
 62
     7
100
AcDbLine
 10
890.9027932699723
 20
682.3953211328464
 30
0.0
 11
897.0520400590464
 21
683.3074757279207
 31
0.0
  0
LINE
  5
3F2
330
F1
100
AcDbEntity
  8
1
  6
Continuous
 62
     7
100
AcDbLine
 10
897.0520400590464
 20
683.3074757279207
 30
0.0
 11
903.0822697591233
 21
684.8179696347483
 31
0.0
  0
LINE
  5
3F3
330
F1
100
AcDbEntity
  8
1
  6
Continuous
 62
     7
100
AcDbLine
 10
903.0822697591233
 20
684.8179696347483
 30
0.0
 11
908.9354079617324
 21
686.9122559712865
 31
0.0
  0
LINE
  5
3F4
330
F1
100
AcDbEntity
  8
1
  6
Continuous
 62
     7
100
AcDbLine
 10
908.9354079617324
 20
686.9122559712865
 30
0.0
 11
914.5550857463318
 21
689.570165615261
 31
0.0
  0
LINE
  5
3F5
330
F1
100
AcDbEntity
  8
1
  6
Continuous
 62
     7
100
AcDbLine
 10
914.5550857463318
 20
689.570165615261
 30
0.0
 11
919.8871825438274
 21
692.7661014438391
 31
0.0
  0
LINE
  5
3F6
330
F1
100
AcDbEntity
  8
1
  6
Continuous
 62
     7
100
AcDbLine
 10
919.8871825438274
 20
692.7661014438391
 30
0.0
 11
924.880347347239
 21
696.4692848479154
 31
0.0
  0
LINE
  5
3F7
330
F1
100
AcDbEntity
  8
1
  6
Continuous
 62
     7
100
AcDbLine
 10
924.880347347239
 20
696.4692848479154
 30
0.0
 11
929.4864932499676
 21
700.6440521469428
 31
0.0
  0
LINE
  5
3F8
330
F1
100
AcDbEntity
  8
1
  6
Continuous
 62
     7
100
AcDbLine
 10
929.4864932499676
 20
700.6440521469428
 30
0.0
 11
933.661260548995
 21
705.2501980496715
 31
0.0
  0
LINE
  5
3F9
330
F1
100
AcDbEntity
  8
1
  6
Continuous
 62
     7
100
AcDbLine
 10
933.661260548995
 20
705.2501980496715
 30
0.0
 11
937.3644439530714
 21
710.2433628530828
 31
0.0
  0
LINE
  5
3FA
330
F1
100
AcDbEntity
  8
1
  6
Continuous
 62
     7
100
AcDbLine
 10
937.3644439530714
 20
710.2433628530828
 30
0.0
 11
940.5603797816494
 21
715.5754596505785
 31
0.0
  0
LINE
  5
3FB
330
F1
100
AcDbEntity
  8
1
  6
Continuous
 62
     7
100
AcDbLine
 10
940.5603797816494
 20
715.5754596505785
 30
0.0
 11
943.2182894256239
 21
721.1951374351778
 31
0.0
  0
LINE
  5
3FC
330
F1
100
AcDbEntity
  8
1
  6
Continuous
 62
     7
100
AcDbLine
 10
943.2182894256239
 20
721.1951374351778
 30
0.0
 11
945.3125757621622
 21
727.048275637787
 31
0.0
  0
LINE
  5
3FD
330
F1
100
AcDbEntity
  8
1
  6
Continuous
 62
     7
100
AcDbLine
 10
945.3125757621622
 20
727.048275637787
 30
0.0
 11
946.8230696689898
 21
733.0785053378639
 31
0.0
  0
LINE
  5
3FE
330
F1
100
AcDbEntity
  8
1
  6
Continuous
 62
     7
100
AcDbLine
 10
946.8230696689898
 20
733.0785053378639
 30
0.0
 11
947.7352242640641
 21
739.2277521269379
 31
0.0
  0
LINE
  5
3FF
330
F1
100
AcDbEntity
  8
1
  6
Continuous
 62
     7
100
AcDbLine
 10
947.7352242640641
 20
739.2277521269379
 30
0.0
 11
948.0402550000002
 21
745.4367953969105
 31
0.0
  0
LINE
  5
400
330
F1
100
AcDbEntity
  8
1
  6
Continuous
 62
     7
100
AcDbLine
 10
934.2962700000002
 20
745.4367953969105
 30
0.0
 11
934.0574203084525
 21
750.2986925604504
 31
0.0
  0
LINE
  5
401
330
F1
100
AcDbEntity
  8
1
  6
Continuous
 62
     7
100
AcDbLine
 10
934.0574203084525
 20
750.2986925604504
 30
0.0
 11
933.3431714869071
 21
755.1137669965219
 31
0.0
  0
LINE
  5
402
330
F1
100
AcDbEntity
  8
1
  6
Continuous
 62
     7
100
AcDbLine
 10
933.3431714869071
 20
755.1137669965219
 30
0.0
 11
932.160402141964
 21
759.8356469061185
 31
0.0
  0
LINE
  5
403
330
F1
100
AcDbEntity
  8
1
  6
Continuous
 62
     7
100
AcDbLine
 10
932.160402141964
 20
759.8356469061185
 30
0.0
 11
930.5205029889819
 21
764.4188580044685
 31
0.0
  0
LINE
  5
404
330
F1
100
AcDbEntity
  8
1
  6
Continuous
 62
     7
100
AcDbLine
 10
930.5205029889819
 20
764.4188580044685
 30
0.0
 11
928.4392671532648
 21
768.8192614632567
 31
0.0
  0
LINE
  5
405
330
F1
100
AcDbEntity
  8
1
  6
Continuous
 62
     7
100
AcDbLine
 10
928.4392671532648
 20
768.8192614632567
 30
0.0
 11
925.9367380736295
 21
772.99447899167
 31
0.0
  0
LINE
  5
406
330
F1
100
AcDbEntity
  8
1
  6
Continuous
 62
     7
100
AcDbLine
 10
925.9367380736295
 20
772.99447899167
 30
0.0
 11
923.0370164731345
 21
776.9043009625034
 31
0.0
  0
LINE
  5
407
330
F1
100
AcDbEntity
  8
1
  6
Continuous
 62
     7
100
AcDbLine
 10
923.0370164731345
 20
776.9043009625034
 30
0.0
 11
919.7680282559415
 21
780.5110736528519
 31
0.0
  0
LINE
  5
408
330
F1
100
AcDbEntity
  8
1
  6
Continuous
 62
     7
100
AcDbLine
 10
919.7680282559415
 20
780.5110736528519
 30
0.0
 11
916.1612555655931
 21
783.7800618700448
 31
0.0
  0
LINE
  5
409
330
F1
100
AcDbEntity
  8
1
  6
Continuous
 62
     7
100
AcDbLine
 10
916.1612555655931
 20
783.7800618700448
 30
0.0
 11
912.2514335947597
 21
786.6797834705399
 31
0.0
  0
LINE
  5
40A
330
F1
100
AcDbEntity
  8
1
  6
Continuous
 62
     7
100
AcDbLine
 10
912.2514335947597
 20
786.6797834705399
 30
0.0
 11
908.0762160663466
 21
789.1823125501752
 31
0.0
  0
LINE
  5
40B
330
F1
100
AcDbEntity
  8
1
  6
Continuous
 62
     7
100
AcDbLine
 10
908.0762160663466
 20
789.1823125501752
 30
0.0
 11
903.6758126075582
 21
791.2635483858923
 31
0.0
  0
LINE
  5
40C
330
F1
100
AcDbEntity
  8
1
  6
Continuous
 62
     7
100
AcDbLine
 10
903.6758126075582
 20
791.2635483858923
 30
0.0
 11
899.0926015092082
 21
792.9034475388743
 31
0.0
  0
LINE
  5
40D
330
F1
100
AcDbEntity
  8
1
  6
Continuous
 62
     7
100
AcDbLine
 10
899.0926015092082
 20
792.9034475388743
 30
0.0
 11
894.3707215996115
 21
794.0862168838174
 31
0.0
  0
LINE
  5
40E
330
F1
100
AcDbEntity
  8
1
  6
Continuous
 62
     7
100
AcDbLine
 10
894.3707215996115
 20
794.0862168838174
 30
0.0
 11
889.55564716354
 21
794.8004657053628
 31
0.0
  0
LINE
  5
40F
330
F1
100
AcDbEntity
  8
1
  6
Continuous
 62
     7
100
AcDbLine
 10
889.55564716354
 20
794.8004657053628
 30
0.0
 11
884.6937500000001
 21
795.0393153969106
 31
0.0
  0
LINE
  5
410
330
F1
100
AcDbEntity
  8
1
  6
Continuous
 62
     7
100
AcDbLine
 10
884.6937500000001
 20
795.0393153969106
 30
0.0
 11
879.8318528364601
 21
794.8004657053628
 31
0.0
  0
LINE
  5
411
330
F1
100
AcDbEntity
  8
1
  6
Continuous
 62
     7
100
AcDbLine
 10
879.8318528364601
 20
794.8004657053628
 30
0.0
 11
875.0167784003886
 21
794.0862168838174
 31
0.0
  0
LINE
  5
412
330
F1
100
AcDbEntity
  8
1
  6
Continuous
 62
     7
100
AcDbLine
 10
875.0167784003886
 20
794.0862168838174
 30
0.0
 11
870.2948984907921
 21
792.9034475388743
 31
0.0
  0
LINE
  5
413
330
F1
100
AcDbEntity
  8
1
  6
Continuous
 62
     7
100
AcDbLine
 10
870.2948984907921
 20
792.9034475388743
 30
0.0
 11
865.7116873924421
 21
791.2635483858923
 31
0.0
  0
LINE
  5
414
330
F1
100
AcDbEntity
  8
1
  6
Continuous
 62
     7
100
AcDbLine
 10
865.7116873924421
 20
791.2635483858923
 30
0.0
 11
861.3112839336537
 21
789.1823125501752
 31
0.0
  0
LINE
  5
415
330
F1
100
AcDbEntity
  8
1
  6
Continuous
 62
     7
100
AcDbLine
 10
861.3112839336537
 20
789.1823125501752
 30
0.0
 11
857.1360664052404
 21
786.6797834705399
 31
0.0
  0
LINE
  5
416
330
F1
100
AcDbEntity
  8
1
  6
Continuous
 62
     7
100
AcDbLine
 10
857.1360664052404
 20
786.6797834705399
 30
0.0
 11
853.2262444344071
 21
783.7800618700448
 31
0.0
  0
LINE
  5
417
330
F1
100
AcDbEntity
  8
1
  6
Continuous
 62
     7
100
AcDbLine
 10
853.2262444344071
 20
783.7800618700448
 30
0.0
 11
849.6194717440586
 21
780.5110736528519
 31
0.0
  0
LINE
  5
418
330
F1
100
AcDbEntity
  8
1
  6
Continuous
 62
     7
100
AcDbLine
 10
849.6194717440586
 20
780.5110736528519
 30
0.0
 11
846.3504835268658
 21
776.9043009625034
 31
0.0
  0
LINE
  5
419
330
F1
100
AcDbEntity
  8
1
  6
Continuous
 62
     7
100
AcDbLine
 10
846.3504835268658
 20
776.9043009625034
 30
0.0
 11
843.4507619263708
 21
772.99447899167
 31
0.0
  0
LINE
  5
41A
330
F1
100
AcDbEntity
  8
1
  6
Continuous
 62
     7
100
AcDbLine
 10
843.4507619263708
 20
772.99447899167
 30
0.0
 11
840.9482328467355
 21
768.8192614632567
 31
0.0
  0
LINE
  5
41B
330
F1
100
AcDbEntity
  8
1
  6
Continuous
 62
     7
100
AcDbLine
 10
840.9482328467355
 20
768.8192614632567
 30
0.0
 11
838.8669970110182
 21
764.4188580044684
 31
0.0
  0
LINE
  5
41C
330
F1
100
AcDbEntity
  8
1
  6
Continuous
 62
     7
100
AcDbLine
 10
838.8669970110182
 20
764.4188580044684
 30
0.0
 11
837.2270978580363
 21
759.8356469061184
 31
0.0
  0
LINE
  5
41D
330
F1
100
AcDbEntity
  8
1
  6
Continuous
 62
     7
100
AcDbLine
 10
837.2270978580363
 20
759.8356469061184
 30
0.0
 11
836.044328513093
 21
755.1137669965219
 31
0.0
  0
LINE
  5
41E
330
F1
100
AcDbEntity
  8
1
  6
Continuous
 62
     7
100
AcDbLine
 10
836.044328513093
 20
755.1137669965219
 30
0.0
 11
835.3300796915478
 21
750.2986925604503
 31
0.0
  0
LINE
  5
41F
330
F1
100
AcDbEntity
  8
1
  6
Continuous
 62
     7
100
AcDbLine
 10
835.3300796915478
 20
750.2986925604503
 30
0.0
 11
835.09123
 21
745.4367953969104
 31
0.0
  0
LINE
  5
420
330
F1
100
AcDbEntity
  8
1
  6
Continuous
 62
     7
100
AcDbLine
 10
835.09123
 20
745.4367953969104
 30
0.0
 11
835.3300796915478
 21
740.5748982333705
 31
0.0
  0
LINE
  5
421
330
F1
100
AcDbEntity
  8
1
  6
Continuous
 62
     7
100
AcDbLine
 10
835.3300796915478
 20
740.5748982333705
 30
0.0
 11
836.0443285130932
 21
735.759823797299
 31
0.0
  0
LINE
  5
422
330
F1
100
AcDbEntity
  8
1
  6
Continuous
 62
     7
100
AcDbLine
 10
836.0443285130932
 20
735.759823797299
 30
0.0
 11
837.2270978580365
 21
731.0379438877023
 31
0.0
  0
LINE
  5
423
330
F1
100
AcDbEntity
  8
1
  6
Continuous
 62
     7
100
AcDbLine
 10
837.2270978580365
 20
731.0379438877023
 30
0.0
 11
838.8669970110182
 21
726.4547327893523
 31
0.0
  0
LINE
  5
424
330
F1
100
AcDbEntity
  8
1
  6
Continuous
 62
     7
100
AcDbLine
 10
838.8669970110182
 20
726.4547327893523
 30
0.0
 11
840.9482328467355
 21
722.0543293305641
 31
0.0
  0
LINE
  5
425
330
F1
100
AcDbEntity
  8
1
  6
Continuous
 62
     7
100
AcDbLine
 10
840.9482328467355
 20
722.0543293305641
 30
0.0
 11
843.4507619263708
 21
717.8791118021508
 31
0.0
  0
LINE
  5
429
330
F1
100
AcDbEntity
  8
1
  6
Continuous
 62
     7
100
AcDbLine
 10
853.2262444344071
 20
707.093528923776
 30
0.0
 11
857.1360664052408
 21
704.193807323281
 31
0.0
  0
LINE
  5
42A
330
F1
100
AcDbEntity
  8
1
  6
Continuous
 62
     7
100
AcDbLine
 10
857.1360664052408
 20
704.193807323281
 30
0.0
 11
861.3112839336539
 21
701.6912782436458
 31
0.0
  0
LINE
  5
42B
330
F1
100
AcDbEntity
  8
1
  6
Continuous
 62
     7
100
AcDbLine
 10
861.3112839336539
 20
701.6912782436458
 30
0.0
 11
865.7116873924421
 21
699.6100424079286
 31
0.0
  0
LINE
  5
42C
330
F1
100
AcDbEntity
  8
1
  6
Continuous
 62
     7
100
AcDbLine
 10
865.7116873924421
 20
699.6100424079286
 30
0.0
 11
870.2948984907921
 21
697.9701432549467
 31
0.0
  0
LINE
  5
42D
330
F1
100
AcDbEntity
  8
1
  6
Continuous
 62
     7
100
AcDbLine
 10
870.2948984907921
 20
697.9701432549467
 30
0.0
 11
875.0167784003886
 21
696.7873739100034
 31
0.0
  0
LINE
  5
42E
330
F1
100
AcDbEntity
  8
1
  6
Continuous
 62
     7
100
AcDbLine
 10
875.0167784003886
 20
696.7873739100034
 30
0.0
 11
879.8318528364603
 21
696.0731250884581
 31
0.0
  0
LINE
  5
42F
330
F1
100
AcDbEntity
  8
1
  6
Continuous
 62
     7
100
AcDbLine
 10
879.8318528364603
 20
696.0731250884581
 30
0.0
 11
884.6937500000001
 21
695.8342753969104
 31
0.0
  0
LINE
  5
430
330
F1
100
AcDbEntity
  8
1
  6
Continuous
 62
     7
100
AcDbLine
 10
884.6937500000001
 20
695.8342753969104
 30
0.0
 11
889.55564716354
 21
696.0731250884581
 31
0.0
  0
LINE
  5
431
330
F1
100
AcDbEntity
  8
1
  6
Continuous
 62
     7
100
AcDbLine
 10
889.55564716354
 20
696.0731250884581
 30
0.0
 11
894.3707215996115
 21
696.7873739100035
 31
0.0
  0
LINE
  5
432
330
F1
100
AcDbEntity
  8
1
  6
Continuous
 62
     7
100
AcDbLine
 10
894.3707215996115
 20
696.7873739100035
 30
0.0
 11
899.0926015092082
 21
697.9701432549467
 31
0.0
  0
LINE
  5
433
330
F1
100
AcDbEntity
  8
1
  6
Continuous
 62
     7
100
AcDbLine
 10
899.0926015092082
 20
697.9701432549467
 30
0.0
 11
903.6758126075582
 21
699.6100424079286
 31
0.0
  0
LINE
  5
434
330
F1
100
AcDbEntity
  8
1
  6
Continuous
 62
     7
100
AcDbLine
 10
903.6758126075582
 20
699.6100424079286
 30
0.0
 11
908.0762160663464
 21
701.6912782436458
 31
0.0
  0
LINE
  5
435
330
F1
100
AcDbEntity
  8
1
  6
Continuous
 62
     7
100
AcDbLine
 10
908.0762160663464
 20
701.6912782436458
 30
0.0
 11
912.2514335947597
 21
704.1938073232811
 31
0.0
  0
LINE
  5
436
330
F1
100
AcDbEntity
  8
1
  6
Continuous
 62
     7
100
AcDbLine
 10
912.2514335947597
 20
704.1938073232811
 30
0.0
 11
916.161255565593
 21
707.0935289237761
 31
0.0
  0
LINE
  5
437
330
F1
100
AcDbEntity
  8
1
  6
Continuous
 62
     7
100
AcDbLine
 10
916.161255565593
 20
707.0935289237761
 30
0.0
 11
919.7680282559415
 21
710.362517140969
 31
0.0
  0
LINE
  5
438
330
F1
100
AcDbEntity
  8
1
  6
Continuous
 62
     7
100
AcDbLine
 10
919.7680282559415
 20
710.362517140969
 30
0.0
 11
923.0370164731343
 21
713.9692898313174
 31
0.0
  0
LINE
  5
439
330
F1
100
AcDbEntity
  8
1
  6
Continuous
 62
     7
100
AcDbLine
 10
923.0370164731343
 20
713.9692898313174
 30
0.0
 11
925.9367380736293
 21
717.8791118021508
 31
0.0
  0
LINE
  5
43A
330
F1
100
AcDbEntity
  8
1
  6
Continuous
 62
     7
100
AcDbLine
 10
925.9367380736293
 20
717.8791118021508
 30
0.0
 11
928.4392671532646
 21
722.0543293305639
 31
0.0
  0
LINE
  5
43B
330
F1
100
AcDbEntity
  8
1
  6
Continuous
 62
     7
100
AcDbLine
 10
928.4392671532646
 20
722.0543293305639
 30
0.0
 11
930.5205029889819
 21
726.4547327893523
 31
0.0
  0
LINE
  5
43C
330
F1
100
AcDbEntity
  8
1
  6
Continuous
 62
     7
100
AcDbLine
 10
930.5205029889819
 20
726.4547327893523
 30
0.0
 11
932.1604021419638
 21
731.0379438877022
 31
0.0
  0
LINE
  5
43D
330
F1
100
AcDbEntity
  8
1
  6
Continuous
 62
     7
100
AcDbLine
 10
932.1604021419638
 20
731.0379438877022
 30
0.0
 11
933.3431714869071
 21
735.7598237972988
 31
0.0
  0
LINE
  5
43E
330
F1
100
AcDbEntity
  8
1
  6
Continuous
 62
     7
100
AcDbLine
 10
933.3431714869071
 20
735.7598237972988
 30
0.0
 11
934.0574203084525
 21
740.5748982333704
 31
0.0
  0
LINE
  5
43F
330
F1
100
AcDbEntity
  8
1
  6
Continuous
 62
     7
100
AcDbLine
 10
934.0574203084525
 20
740.5748982333704
 30
0.0
 11
934.2962700000002
 21
745.4367953969105
 31
0.0
  0
ENDSEC
  0
SECTION
  2
OBJECTS
  0
DICTIONARY
  5
DF
330
0
100
AcDbDictionary
281
     1
  3
ACAD_COLOR
350
1DA
  3
ACAD_GROUP
350
E0
  3
ACAD_LAYOUT
350
EC
  3
ACAD_MATERIAL
350
1AD
  3
ACAD_MLEADERSTYLE
350
1FF
  3
ACAD_MLINESTYLE
350
E9
  3
ACAD_PLOTSETTINGS
350
EB
  3
ACAD_PLOTSTYLENAME
350
E1
  3
ACAD_SCALELIST
350
1DD
  3
ACAD_TABLESTYLE
350
1DB
  3
ACAD_VISUALSTYLE
350
1C6
  3
ACDB_RECOMPOSE_DATA
350
49D
  3
AcDbVariableDictionary
350
20B
  3
DWGPROPS
350
49E
  0
DICTIONARY
  5
203
330
E3
100
AcDbDictionary
280
     1
281
     1
  3
ADSK_XREC_LAYER_RECONCILED
360
204
  0
DICTIONARY
  5
205
330
FC
100
AcDbDictionary
280
     1
281
     1
  3
ADSK_XREC_LAYER_RECONCILED
360
206
  0
DICTIONARY
  5
207
330
FD
100
AcDbDictionary
280
     1
281
     1
  3
ADSK_XREC_LAYER_RECONCILED
360
208
  0
DICTIONARY
  5
209
330
FE
100
AcDbDictionary
280
     1
281
     1
  3
ADSK_XREC_LAYER_RECONCILED
360
20A
  0
DICTIONARY
  5
2C8
330
F1
100
AcDbDictionary
280
     1
281
     1
  3
ACAD_SORTENTS
360
2C9
  0
DICTIONARY
  5
1DA
102
{ACAD_REACTORS
330
DF
102
}
330
DF
100
AcDbDictionary
281
     1
  0
DICTIONARY
  5
E0
102
{ACAD_REACTORS
330
DF
102
}
330
DF
100
AcDbDictionary
281
     1
  0
DICTIONARY
  5
EC
102
{ACAD_REACTORS
330
DF
102
}
330
DF
100
AcDbDictionary
281
     1
  3
Layout1
350
F0
  3
Model
350
F4
  0
DICTIONARY
  5
1AD
102
{ACAD_REACTORS
330
DF
102
}
330
DF
100
AcDbDictionary
281
     1
  3
ByBlock
350
1B6
  3
ByLayer
350
1AE
  3
Global
350
1BE
  0
DICTIONARY
  5
1FF
102
{ACAD_REACTORS
330
DF
102
}
330
DF
100
AcDbDictionary
281
     1
  3
Standard
350
200
  0
DICTIONARY
  5
E9
102
{ACAD_REACTORS
330
DF
102
}
330
DF
100
AcDbDictionary
281
     1
  3
Standard
350
EA
  0
DICTIONARY
  5
EB
102
{ACAD_REACTORS
330
DF
102
}
330
DF
100
AcDbDictionary
281
     1
  0
ACDBDICTIONARYWDFLT
  5
E1
102
{ACAD_REACTORS
330
DF
102
}
330
DF
100
AcDbDictionary
281
     1
  3
Normal
350
E2
100
AcDbDictionaryWithDefault
340
E2
  0
DICTIONARY
  5
1DD
102
{ACAD_REACTORS
330
DF
102
}
330
DF
100
AcDbDictionary
281
     1
  3
A0
350
1DE
  3
A1
350
1DF
  3
A2
350
1E0
  3
A3
350
1E1
  3
A4
350
1E2
  3
A5
350
1E3
  3
A6
350
1E4
  3
A7
350
1E5
  3
A8
350
1E6
  3
A9
350
1E7
  3
B0
350
1E8
  3
B1
350
1E9
  3
B2
350
1EA
  3
B3
350
1EB
  3
B4
350
1EC
  3
B5
350
1ED
  3
B6
350
1EE
  3
B7
350
1EF
  3
B8
350
1F0
  3
B9
350
1F1
  3
C0
350
1F2
  3
C1
350
1F3
  3
C2
350
1F4
  3
C3
350
1F5
  3
C4
350
1F6
  3
C5
350
1F7
  3
C6
350
1F8
  3
C7
350
1F9
  3
C8
350
1FA
  3
C9
350
1FB
  3
D0
350
1FC
  3
D1
350
1FD
  3
D2
350
1FE
  0
DICTIONARY
  5
1DB
102
{ACAD_REACTORS
330
DF
102
}
330
DF
100
AcDbDictionary
281
     1
  3
Standard
350
1DC
  0
DICTIONARY
  5
1C6
102
{ACAD_REACTORS
330
DF
102
}
330
DF
100
AcDbDictionary
281
     1
  3
2dWireframe
350
1CC
  3
3D Hidden
350
1CE
  3
3dWireframe
350
1CD
  3
Basic
350
1CB
  3
Brighten
350
1D2
  3
ColorChange
350
1D6
  3
Conceptual
350
1CF
  3
Dim
350
1D1
  3
EdgeColorOff
350
1D9
  3
Facepattern
350
1D5
  3
Flat
350
1C7
  3
FlatWithEdges
350
1C8
  3
Gouraud
350
1C9
  3
GouraudWithEdges
350
1CA
  3
JitterOff
350
1D7
  3
Linepattern
350
1D4
  3
OverhangOff
350
1D8
  3
Realistic
350
1D0
  3
Thicken
350
1D3
  0
XRECORD
  5
49D
102
{ACAD_REACTORS
330
DF
102
}
330
DF
100
AcDbXrecord
280
     1
 90
        1
330
1DC
  0
DICTIONARY
  5
20B
102
{ACAD_REACTORS
330
DF
102
}
330
DF
100
AcDbDictionary
281
     1
  3
CANNOSCALE
350
20E
  3
CMLEADERSTYLE
350
20D
  3
CTABLESTYLE
350
20C
  3
DIMASSOC
350
211
  3
INDEXCTL
350
210
  3
SORTENTS
350
20F
  3
XCLIPFRAME
350
351
  0
XRECORD
  5
49E
102
{ACAD_REACTORS
330
DF
102
}
330
DF
100
AcDbXrecord
280
     1
  1
DWGPROPS COOKIE
  2

  3

  4

  6

  7

  8
John
  9

300
=
301
=
302
=
303
=
304
=
305
=
306
=
307
=
308
=
309
=
 40
0.0098188310185185
 41
2453238.658333333
 42
2456330.884746447
  1

 90
        0
  0
XRECORD
  5
204
102
{ACAD_REACTORS
330
203
102
}
330
203
100
AcDbXrecord
280
     1
290
     1
  0
XRECORD
  5
206
102
{ACAD_REACTORS
330
205
102
}
330
205
100
AcDbXrecord
280
     1
290
     1
  0
XRECORD
  5
208
102
{ACAD_REACTORS
330
207
102
}
330
207
100
AcDbXrecord
280
     1
290
     1
  0
XRECORD
  5
20A
102
{ACAD_REACTORS
330
209
102
}
330
209
100
AcDbXrecord
280
     1
290
     1
  0
SORTENTSTABLE
  5
2C9
102
{ACAD_REACTORS
330
2C8
102
}
330
2C8
100
AcDbSortentsTable
330
F1
331
338
  5
338
331
42D
  5
3AD
331
40E
  5
38E
331
331
  5
331
331
3A2
  5
422
331
43B
  5
3BB
331
312
  5
312
331
383
  5
403
331
2F3
  5
2F3
331
2D1
  5
2D0
331
2C5
  5
2C5
331
3AB
  5
42B
331
31B
  5
31B
331
38C
  5
40C
331
2FC
  5
2FC
331
2D6
  5
2D4
331
2DD
  5
2DC
331
413
  5
393
331
336
  5
336
331
3A7
  5
427
331
317
  5
317
331
14F
  5
14F
331
41C
  5
39C
331
3B0
  5
430
331
320
  5
320
331
391
  5
411
331
301
  5
301
331
180
  5
180
331
2E2
  5
2E1
331
3B9
  5
439
331
329
  5
329
331
39A
  5
41A
331
433
  5
3B3
331
30A
  5
30A
331
2EB
  5
2EB
331
421
  5
3A1
331
402
  5
382
331
3B5
  5
435
331
325
  5
325
331
396
  5
416
331
306
  5
306
331
2E7
  5
2E6
331
2CE
  5
2CD
331
42A
  5
3AA
331
40B
  5
38B
331
3BE
  5
43E
331
32E
  5
32E
331
39F
  5
41F
331
438
  5
3B8
331
30F
  5
30F
331
380
  5
400
331
2F0
  5
2F0
331
407
  5
387
331
12B
  5
12B
331
3A8
  5
428
331
318
  5
318
331
389
  5
409
331
2F9
  5
2F9
331
42F
  5
3AF
331
410
  5
390
331
333
  5
333
331
3A4
  5
424
331
43D
  5
3BD
331
314
  5
314
331
2F5
  5
2F5
331
14C
  5
14C
331
2D3
  5
2D2
331
2DA
  5
2DA
331
2C7
  5
2C6
331
419
  5
399
331
3AD
  5
42D
331
31D
  5
31D
331
38E
  5
40E
331
2FE
  5
2FE
331
2DF
  5
2DE
331
415
  5
395
331
151
  5
151
331
430
  5
3B0
331
41E
  5
39E
331
3B2
  5
432
331
322
  5
322
331
393
  5
413
331
303
  5
303
331
2CB
  5
2CA
331
2E8
  5
2E7
331
2E4
  5
2E3
331
408
  5
388
331
3BB
  5
43B
331
32B
  5
32B
331
39C
  5
41C
331
435
  5
3B5
331
30C
  5
30C
331
2ED
  5
2ED
331
423
  5
3A3
331
404
  5
384
331
3B7
  5
437
331
327
  5
327
331
128
  5
128
331
42C
  5
3AC
331
40D
  5
38D
331
330
  5
330
331
3A1
  5
421
331
43A
  5
3BA
331
311
  5
311
331
382
  5
402
331
2F2
  5
2F2
331
2D0
  5
2CF
331
2C4
  5
2C4
331
3AA
  5
42A
331
31A
  5
31A
331
38B
  5
40B
331
2FB
  5
2FB
331
2D5
  5
2D6
331
2DC
  5
2E9
331
412
  5
392
331
335
  5
335
331
3A6
  5
426
331
43F
  5
3BF
331
316
  5
316
331
387
  5
407
331
2F7
  5
2F7
331
14E
  5
14E
331
41B
  5
39B
331
3AF
  5
42F
331
31F
  5
31F
331
390
  5
410
331
300
  5
300
331
417
  5
397
331
2E1
  5
2E0
331
3B8
  5
438
331
399
  5
419
331
432
  5
3B2
331
328
  5
328
331
2EA
  5
2EA
331
420
  5
3A0
331
401
  5
381
331
3B4
  5
434
331
324
  5
324
331
395
  5
415
331
305
  5
305
331
2E6
  5
2E5
331
2CD
  5
2CC
331
429
  5
3A9
331
40A
  5
38A
331
3BD
  5
43D
331
32D
  5
32D
331
39E
  5
41E
331
437
  5
3B7
331
30E
  5
30E
331
2EF
  5
2EF
331
425
  5
3A5
331
406
  5
386
331
12A
  5
12A
331
388
  5
408
331
2F8
  5
2F8
331
42E
  5
3AE
331
40F
  5
38F
331
332
  5
332
331
3A3
  5
423
331
43C
  5
3BC
331
313
  5
313
331
384
  5
404
331
2F4
  5
2F4
331
2D2
  5
2D1
331
2D9
  5
2D9
331
2C6
  5
2D7
331
418
  5
398
331
3AC
  5
42C
331
31C
  5
31C
331
38D
  5
40D
331
2FD
  5
2FD
331
2D7
  5
2D5
331
2DE
  5
2DD
331
414
  5
394
331
337
  5
337
331
150
  5
150
331
41D
  5
39D
331
3B1
  5
431
331
321
  5
321
331
392
  5
412
331
302
  5
302
331
2CA
  5
2C7
331
2E3
  5
2E2
331
3BA
  5
43A
331
32A
  5
32A
331
39B
  5
41B
331
434
  5
3B4
331
30B
  5
30B
331
2EC
  5
2EC
331
422
  5
3A2
331
403
  5
383
331
3B6
  5
436
331
397
  5
417
331
326
  5
326
331
2CF
  5
2CE
331
42B
  5
3AB
331
40C
  5
38C
331
3BF
  5
43F
331
32F
  5
32F
331
3A0
  5
420
331
439
  5
3B9
331
310
  5
310
331
381
  5
401
331
2F1
  5
2F1
331
2C3
  5
2C3
331
3A9
  5
429
331
319
  5
319
331
38A
  5
40A
331
2FA
  5
2FA
331
411
  5
391
331
334
  5
334
331
3A5
  5
425
331
43E
  5
3BE
331
315
  5
315
331
2F6
  5
2F6
331
14D
  5
14D
331
2D4
  5
2D3
331
2DB
  5
2DB
331
41A
  5
39A
331
3AE
  5
42E
331
31E
  5
31E
331
38F
  5
40F
331
2FF
  5
2FF
331
416
  5
396
331
2E0
  5
2DF
331
398
  5
418
331
431
  5
3B1
331
41F
  5
39F
331
400
  5
380
331
3B3
  5
433
331
323
  5
323
331
394
  5
414
331
304
  5
304
331
2CC
  5
2CB
331
2E9
  5
2E8
331
2E5
  5
2E4
331
409
  5
389
331
3BC
  5
43C
331
32C
  5
32C
331
39D
  5
41D
331
436
  5
3B6
331
30D
  5
30D
331
424
  5
3A4
331
405
  5
385
331
2EE
  5
2EE
  0
LAYOUT
  5
F0
102
{ACAD_XDICTIONARY
360
49F
102
}
102
{ACAD_REACTORS
330
EC
102
}
330
EC
100
AcDbPlotSettings
  1

  2
HP DeskJet 840C/841C/842C/843C
  4

  6

 40
0.0
 41
0.0
 42
0.0
 43
0.0
 44
0.0
 45
0.0
 46
0.0
 47
0.0
 48
0.0
 49
0.0
140
0.0
141
0.0
142
1.0
143
1.0
 70
   688
 72
     0
 73
     0
 74
     5
  7

 75
    16
147
1.0
148
0.0
149
0.0
100
AcDbLayout
  1
Layout1
 70
     0
 71
     1
 10
0.0
 20
0.0
 11
12.0
 21
9.0
 12
0.0
 22
0.0
 32
0.0
 14
-1.000000000000000E+20
 24
-1.000000000000000E+20
 34
-1.000000000000000E+20
 15
-1.000000000000000E+20
 25
-1.000000000000000E+20
 35
-1.000000000000000E+20
146
0.0
 13
0.0
 23
0.0
 33
0.0
 16
1.0
 26
0.0
 36
0.0
 17
0.0
 27
1.0
 37
0.0
 76
     0
330
ED
  0
LAYOUT
  5
F4
102
{ACAD_XDICTIONARY
360
4A1
102
}
102
{ACAD_REACTORS
330
EC
102
}
330
EC
100
AcDbPlotSettings
  1

  2
HP DeskJet 840C/841C/842C/843C
  4

  6

 40
0.0
 41
0.0
 42
0.0
 43
0.0
 44
0.0
 45
0.0
 46
0.0
 47
0.0
 48
0.0
 49
0.0
140
0.0
141
0.0
142
1.0
143
1.0
 70
  1712
 72
     0
 73
     0
 74
     0
  7

 75
     0
147
1.0
148
0.0
149
0.0
100
AcDbLayout
  1
Model
 70
     1
 71
     0
 10
0.0
 20
0.0
 11
12.0
 21
9.0
 12
0.0
 22
0.0
 32
0.0
 14
0.0
 24
0.0
 34
0.0
 15
0.0
 25
0.0
 35
0.0
146
0.0
 13
0.0
 23
0.0
 33
0.0
 16
1.0
 26
0.0
 36
0.0
 17
0.0
 27
1.0
 37
0.0
 76
     0
330
F1
331
1AA
  0
MATERIAL
  5
1B6
102
{ACAD_XDICTIONARY
360
1B7
102
}
102
{ACAD_REACTORS
330
1AD
102
}
330
1AD
100
AcDbMaterial
  1
ByBlock
 72
     0
 43
0.0208333333333333
 43
0.0
 43
0.0
 43
0.0
 43
0.0
 43
0.0208333333333333
 43
0.0
 43
0.0
 43
0.0
 43
0.0
 43
1.0
 43
0.0
 43
0.0
 43
0.0
 43
0.0
 43
1.0
 77
     0
 47
0.0208333333333333
 47
0.0
 47
0.0
 47
0.0
 47
0.0
 47
0.0208333333333333
 47
0.0
 47
0.0
 47
0.0
 47
0.0
 47
1.0
 47
0.0
 47
0.0
 47
0.0
 47
0.0
 47
1.0
171
     0
 49
0.0208333333333333
 49
0.0
 49
0.0
 49
0.0
 49
0.0
 49
0.0208333333333333
 49
0.0
 49
0.0
 49
0.0
 49
0.0
 49
1.0
 49
0.0
 49
0.0
 49
0.0
 49
0.0
 49
1.0
175
     0
142
0.0208333333333333
142
0.0
142
0.0
142
0.0
142
0.0
142
0.0208333333333333
142
0.0
142
0.0
142
0.0
142
0.0
142
1.0
142
0.0
142
0.0
142
0.0
142
0.0
142
1.0
179
     0
144
0.0208333333333333
144
0.0
144
0.0
144
0.0
144
0.0
144
0.0208333333333333
144
0.0
144
0.0
144
0.0
144
0.0
144
1.0
144
0.0
144
0.0
144
0.0
144
0.0
144
1.0
147
0.0208333333333333
147
0.0
147
0.0
147
0.0
147
0.0
147
0.0208333333333333
147
0.0
147
0.0
147
0.0
147
0.0
147
1.0
147
0.0
147
0.0
147
0.0
147
0.0
147
1.0
  0
MATERIAL
  5
1AE
102
{ACAD_XDICTIONARY
360
1AF
102
}
102
{ACAD_REACTORS
330
1AD
102
}
330
1AD
100
AcDbMaterial
  1
ByLayer
 72
     0
 43
0.0208333333333333
 43
0.0
 43
0.0
 43
0.0
 43
0.0
 43
0.0208333333333333
 43
0.0
 43
0.0
 43
0.0
 43
0.0
 43
1.0
 43
0.0
 43
0.0
 43
0.0
 43
0.0
 43
1.0
 77
     0
 47
0.0208333333333333
 47
0.0
 47
0.0
 47
0.0
 47
0.0
 47
0.0208333333333333
 47
0.0
 47
0.0
 47
0.0
 47
0.0
 47
1.0
 47
0.0
 47
0.0
 47
0.0
 47
0.0
 47
1.0
171
     0
 49
0.0208333333333333
 49
0.0
 49
0.0
 49
0.0
 49
0.0
 49
0.0208333333333333
 49
0.0
 49
0.0
 49
0.0
 49
0.0
 49
1.0
 49
0.0
 49
0.0
 49
0.0
 49
0.0
 49
1.0
175
     0
142
0.0208333333333333
142
0.0
142
0.0
142
0.0
142
0.0
142
0.0208333333333333
142
0.0
142
0.0
142
0.0
142
0.0
142
1.0
142
0.0
142
0.0
142
0.0
142
0.0
142
1.0
179
     0
144
0.0208333333333333
144
0.0
144
0.0
144
0.0
144
0.0
144
0.0208333333333333
144
0.0
144
0.0
144
0.0
144
0.0
144
1.0
144
0.0
144
0.0
144
0.0
144
0.0
144
1.0
147
0.0208333333333333
147
0.0
147
0.0
147
0.0
147
0.0
147
0.0208333333333333
147
0.0
147
0.0
147
0.0
147
0.0
147
1.0
147
0.0
147
0.0
147
0.0
147
0.0
147
1.0
  0
MATERIAL
  5
1BE
102
{ACAD_XDICTIONARY
360
1BF
102
}
102
{ACAD_REACTORS
330
1AD
102
}
330
1AD
100
AcDbMaterial
  1
Global
 72
     0
 43
0.0208333333333333
 43
0.0
 43
0.0
 43
0.0
 43
0.0
 43
0.0208333333333333
 43
0.0
 43
0.0
 43
0.0
 43
0.0
 43
1.0
 43
0.0
 43
0.0
 43
0.0
 43
0.0
 43
1.0
 77
     0
 47
0.0208333333333333
 47
0.0
 47
0.0
 47
0.0
 47
0.0
 47
0.0208333333333333
 47
0.0
 47
0.0
 47
0.0
 47
0.0
 47
1.0
 47
0.0
 47
0.0
 47
0.0
 47
0.0
 47
1.0
171
     0
 49
0.0208333333333333
 49
0.0
 49
0.0
 49
0.0
 49
0.0
 49
0.0208333333333333
 49
0.0
 49
0.0
 49
0.0
 49
0.0
 49
1.0
 49
0.0
 49
0.0
 49
0.0
 49
0.0
 49
1.0
175
     0
142
0.0208333333333333
142
0.0
142
0.0
142
0.0
142
0.0
142
0.0208333333333333
142
0.0
142
0.0
142
0.0
142
0.0
142
1.0
142
0.0
142
0.0
142
0.0
142
0.0
142
1.0
179
     0
144
0.0208333333333333
144
0.0
144
0.0
144
0.0
144
0.0
144
0.0208333333333333
144
0.0
144
0.0
144
0.0
144
0.0
144
1.0
144
0.0
144
0.0
144
0.0
144
0.0
144
1.0
147
0.0208333333333333
147
0.0
147
0.0
147
0.0
147
0.0
147
0.0208333333333333
147
0.0
147
0.0
147
0.0
147
0.0
147
1.0
147
0.0
147
0.0
147
0.0
147
0.0
147
1.0
  0
MLEADERSTYLE
  5
200
102
{ACAD_REACTORS
330
1FF
102
}
330
1FF
100
AcDbMLeaderStyle
170
     2
171
     1
172
     0
 90
        2
 40
0.0
 41
0.0
173
     1
 91
-1056964608
340
E6
 92
       -2
290
     1
 42
0.09
291
     1
 43
0.36
  3
Standard
 44
0.18
300

342
E4
174
     1
178
     6
175
     1
176
     0
 93
-1056964608
 45
0.18
292
     0
297
     0
 46
0.18
 94
-1056964608
 47
1.0
 49
1.0
140
1.0
293
     1
141
0.0
294
     1
177
     0
142
1.0
295
     0
296
     0
143
0.125
1001
ACAD
1000
AcRTDxfName
1000
MLEADERSTYLE
1001
ACAD_MLEADERVER
1070
     2
  0
MLINESTYLE
  5
EA
102
{ACAD_REACTORS
330
E9
102
}
330
E9
100
AcDbMlineStyle
  2
STANDARD
 70
     0
  3

 62
   256
 51
90.0
 52
90.0
 71
     2
 49
0.5
 62
   256
  6
BYLAYER
 49
-0.5
 62
   256
  6
BYLAYER
  0
ACDBPLACEHOLDER
  5
E2
102
{ACAD_REACTORS
330
E1
102
}
330
E1
  0
SCALE
  5
1DE
102
{ACAD_REACTORS
330
1DD
102
}
330
1DD
100
AcDbScale
 70
     0
300
1:1
140
1.0
141
1.0
290
     1
1001
ACAD
1000
AcRTDxfName
1000
SCALE
  0
SCALE
  5
1DF
102
{ACAD_REACTORS
330
1DD
102
}
330
1DD
100
AcDbScale
 70
     0
300
1:2
140
1.0
141
2.0
290
     0
1001
ACAD
1000
AcRTDxfName
1000
SCALE
  0
SCALE
  5
1E0
102
{ACAD_REACTORS
330
1DD
102
}
330
1DD
100
AcDbScale
 70
     0
300
1:4
140
1.0
141
4.0
290
     0
1001
ACAD
1000
AcRTDxfName
1000
SCALE
  0
SCALE
  5
1E1
102
{ACAD_REACTORS
330
1DD
102
}
330
1DD
100
AcDbScale
 70
     0
300
1:5
140
1.0
141
5.0
290
     0
1001
ACAD
1000
AcRTDxfName
1000
SCALE
  0
SCALE
  5
1E2
102
{ACAD_REACTORS
330
1DD
102
}
330
1DD
100
AcDbScale
 70
     0
300
1:8
140
1.0
141
8.0
290
     0
1001
ACAD
1000
AcRTDxfName
1000
SCALE
  0
SCALE
  5
1E3
102
{ACAD_REACTORS
330
1DD
102
}
330
1DD
100
AcDbScale
 70
     0
300
1:10
140
1.0
141
10.0
290
     0
1001
ACAD
1000
AcRTDxfName
1000
SCALE
  0
SCALE
  5
1E4
102
{ACAD_REACTORS
330
1DD
102
}
330
1DD
100
AcDbScale
 70
     0
300
1:16
140
1.0
141
16.0
290
     0
1001
ACAD
1000
AcRTDxfName
1000
SCALE
  0
SCALE
  5
1E5
102
{ACAD_REACTORS
330
1DD
102
}
330
1DD
100
AcDbScale
 70
     0
300
1:20
140
1.0
141
20.0
290
     0
1001
ACAD
1000
AcRTDxfName
1000
SCALE
  0
SCALE
  5
1E6
102
{ACAD_REACTORS
330
1DD
102
}
330
1DD
100
AcDbScale
 70
     0
300
1:30
140
1.0
141
30.0
290
     0
1001
ACAD
1000
AcRTDxfName
1000
SCALE
  0
SCALE
  5
1E7
102
{ACAD_REACTORS
330
1DD
102
}
330
1DD
100
AcDbScale
 70
     0
300
1:40
140
1.0
141
40.0
290
     0
1001
ACAD
1000
AcRTDxfName
1000
SCALE
  0
SCALE
  5
1E8
102
{ACAD_REACTORS
330
1DD
102
}
330
1DD
100
AcDbScale
 70
     0
300
1:50
140
1.0
141
50.0
290
     0
1001
ACAD
1000
AcRTDxfName
1000
SCALE
  0
SCALE
  5
1E9
102
{ACAD_REACTORS
330
1DD
102
}
330
1DD
100
AcDbScale
 70
     0
300
1:100
140
1.0
141
100.0
290
     0
1001
ACAD
1000
AcRTDxfName
1000
SCALE
  0
SCALE
  5
1EA
102
{ACAD_REACTORS
330
1DD
102
}
330
1DD
100
AcDbScale
 70
     0
300
2:1
140
2.0
141
1.0
290
     0
1001
ACAD
1000
AcRTDxfName
1000
SCALE
  0
SCALE
  5
1EB
102
{ACAD_REACTORS
330
1DD
102
}
330
1DD
100
AcDbScale
 70
     0
300
4:1
140
4.0
141
1.0
290
     0
1001
ACAD
1000
AcRTDxfName
1000
SCALE
  0
SCALE
  5
1EC
102
{ACAD_REACTORS
330
1DD
102
}
330
1DD
100
AcDbScale
 70
     0
300
8:1
140
8.0
141
1.0
290
     0
1001
ACAD
1000
AcRTDxfName
1000
SCALE
  0
SCALE
  5
1ED
102
{ACAD_REACTORS
330
1DD
102
}
330
1DD
100
AcDbScale
 70
     0
300
10:1
140
10.0
141
1.0
290
     0
1001
ACAD
1000
AcRTDxfName
1000
SCALE
  0
SCALE
  5
1EE
102
{ACAD_REACTORS
330
1DD
102
}
330
1DD
100
AcDbScale
 70
     0
300
100:1
140
100.0
141
1.0
290
     0
1001
ACAD
1000
AcRTDxfName
1000
SCALE
  0
SCALE
  5
1EF
102
{ACAD_REACTORS
330
1DD
102
}
330
1DD
100
AcDbScale
 70
     0
300
1/128" = 1'-0"
140
0.0078125
141
12.0
290
     0
1001
ACAD
1000
AcRTDxfName
1000
SCALE
  0
SCALE
  5
1F0
102
{ACAD_REACTORS
330
1DD
102
}
330
1DD
100
AcDbScale
 70
     0
300
1/64" = 1'-0"
140
0.015625
141
12.0
290
     0
1001
ACAD
1000
AcRTDxfName
1000
SCALE
  0
SCALE
  5
1F1
102
{ACAD_REACTORS
330
1DD
102
}
330
1DD
100
AcDbScale
 70
     0
300
1/32" = 1'-0"
140
0.03125
141
12.0
290
     0
1001
ACAD
1000
AcRTDxfName
1000
SCALE
  0
SCALE
  5
1F2
102
{ACAD_REACTORS
330
1DD
102
}
330
1DD
100
AcDbScale
 70
     0
300
1/16" = 1'-0"
140
0.0625
141
12.0
290
     0
1001
ACAD
1000
AcRTDxfName
1000
SCALE
  0
SCALE
  5
1F3
102
{ACAD_REACTORS
330
1DD
102
}
330
1DD
100
AcDbScale
 70
     0
300
3/32" = 1'-0"
140
0.09375
141
12.0
290
     0
1001
ACAD
1000
AcRTDxfName
1000
SCALE
  0
SCALE
  5
1F4
102
{ACAD_REACTORS
330
1DD
102
}
330
1DD
100
AcDbScale
 70
     0
300
1/8" = 1'-0"
140
0.125
141
12.0
290
     0
1001
ACAD
1000
AcRTDxfName
1000
SCALE
  0
SCALE
  5
1F5
102
{ACAD_REACTORS
330
1DD
102
}
330
1DD
100
AcDbScale
 70
     0
300
3/16" = 1'-0"
140
0.1875
141
12.0
290
     0
1001
ACAD
1000
AcRTDxfName
1000
SCALE
  0
SCALE
  5
1F6
102
{ACAD_REACTORS
330
1DD
102
}
330
1DD
100
AcDbScale
 70
     0
300
1/4" = 1'-0"
140
0.25
141
12.0
290
     0
1001
ACAD
1000
AcRTDxfName
1000
SCALE
  0
SCALE
  5
1F7
102
{ACAD_REACTORS
330
1DD
102
}
330
1DD
100
AcDbScale
 70
     0
300
3/8" = 1'-0"
140
0.375
141
12.0
290
     0
1001
ACAD
1000
AcRTDxfName
1000
SCALE
  0
SCALE
  5
1F8
102
{ACAD_REACTORS
330
1DD
102
}
330
1DD
100
AcDbScale
 70
     0
300
1/2" = 1'-0"
140
0.5
141
12.0
290
     0
1001
ACAD
1000
AcRTDxfName
1000
SCALE
  0
SCALE
  5
1F9
102
{ACAD_REACTORS
330
1DD
102
}
330
1DD
100
AcDbScale
 70
     0
300
3/4" = 1'-0"
140
0.75
141
12.0
290
     0
1001
ACAD
1000
AcRTDxfName
1000
SCALE
  0
SCALE
  5
1FA
102
{ACAD_REACTORS
330
1DD
102
}
330
1DD
100
AcDbScale
 70
     0
300
1" = 1'-0"
140
1.0
141
12.0
290
     0
1001
ACAD
1000
AcRTDxfName
1000
SCALE
  0
SCALE
  5
1FB
102
{ACAD_REACTORS
330
1DD
102
}
330
1DD
100
AcDbScale
 70
     0
300
1-1/2" = 1'-0"
140
1.5
141
12.0
290
     0
1001
ACAD
1000
AcRTDxfName
1000
SCALE
  0
SCALE
  5
1FC
102
{ACAD_REACTORS
330
1DD
102
}
330
1DD
100
AcDbScale
 70
     0
300
3" = 1'-0"
140
3.0
141
12.0
290
     0
1001
ACAD
1000
AcRTDxfName
1000
SCALE
  0
SCALE
  5
1FD
102
{ACAD_REACTORS
330
1DD
102
}
330
1DD
100
AcDbScale
 70
     0
300
6" = 1'-0"
140
6.0
141
12.0
290
     0
1001
ACAD
1000
AcRTDxfName
1000
SCALE
  0
SCALE
  5
1FE
102
{ACAD_REACTORS
330
1DD
102
}
330
1DD
100
AcDbScale
 70
     0
300
1'-0" = 1'-0"
140
12.0
141
12.0
290
     0
1001
ACAD
1000
AcRTDxfName
1000
SCALE
  0
TABLESTYLE
  5
1DC
102
{ACAD_XDICTIONARY
360
27A
102
}
102
{ACAD_REACTORS
330
1DB
102
}
330
1DB
100
AcDbTableStyle
  3
Standard
 70
     0
 71
     0
 40
0.06
 41
0.06
280
     0
281
     0
  7
STANDARD
140
0.18
170
     2
 62
     0
 63
     7
283
     0
274
    -2
284
     1
 64
     0
275
    -2
285
     1
 65
     0
276
    -2
286
     1
 66
     0
277
    -2
287
     1
 67
     0
278
    -2
288
     1
 68
     0
279
    -2
289
     1
 69
     0
  7
STANDARD
140
0.25
170
     5
 62
     0
 63
     7
283
     0
274
    -2
284
     1
 64
     0
275
    -2
285
     1
 65
     0
276
    -2
286
     1
 66
     0
277
    -2
287
     1
 67
     0
278
    -2
288
     1
 68
     0
279
    -2
289
     1
 69
     0
  7
STANDARD
140
0.18
170
     5
 62
     0
 63
     7
283
     0
274
    -2
284
     1
 64
     0
275
    -2
285
     1
 65
     0
276
    -2
286
     1
 66
     0
277
    -2
287
     1
 67
     0
278
    -2
288
     1
 68
     0
279
    -2
289
     1
 69
     0
  0
VISUALSTYLE
  5
1CC
102
{ACAD_XDICTIONARY
360
4AD
102
}
102
{ACAD_REACTORS
330
1C6
102
}
330
1C6
100
AcDbVisualStyle
  2

 70
     4
 71
     0
 72
     2
 73
     0
 90
        0
 40
-0.6
 41
-30.0
 62
     5
 63
     7
 74
     1
 91
        4
 64
     7
 65
   257
 75
     1
175
     1
 42
1.0
 92
        0
 66
   257
 43
1.0
 76
     1
 77
     6
 78
     2
 67
     7
 79
     5
170
     0
171
     0
290
     0
174
     0
 93
        1
 44
0.0
173
     0
291
     0
 45
0.0
1001
ACAD
1000
AcDbSavedByObjectVersion
1070
     0
  0
VISUALSTYLE
  5
1CE
102
{ACAD_XDICTIONARY
360
4B1
102
}
102
{ACAD_REACTORS
330
1C6
102
}
330
1C6
100
AcDbVisualStyle
  2

 70
     6
 71
     1
 72
     2
 73
     2
 90
        0
 40
-0.6
 41
-30.0
 62
     5
 63
     7
 74
     2
 91
        2
 64
     7
 65
   257
 75
     2
175
     1
 42
179.0
 92
        0
 66
   257
 43
1.0
 76
     1
 77
     6
 78
     2
 67
     7
 79
     3
170
     0
171
     0
290
     0
174
     0
 93
        1
 44
0.0
173
     0
291
     0
 45
0.0
1001
ACAD
1000
AcDbSavedByObjectVersion
1070
     0
  0
VISUALSTYLE
  5
1CD
102
{ACAD_XDICTIONARY
360
4AF
102
}
102
{ACAD_REACTORS
330
1C6
102
}
330
1C6
100
AcDbVisualStyle
  2

 70
     5
 71
     0
 72
     2
 73
     0
 90
        0
 40
-0.6
 41
-30.0
 62
     5
 63
     7
 74
     1
 91
        4
 64
     7
 65
   257
 75
     1
175
     1
 42
1.0
 92
        0
 66
   257
 43
1.0
 76
     1
 77
     6
 78
     2
 67
     7
 79
     5
170
     0
171
     0
290
     0
174
     0
 93
        1
 44
0.0
173
     0
291
     0
 45
0.0
1001
ACAD
1000
AcDbSavedByObjectVersion
1070
     0
  0
VISUALSTYLE
  5
1CB
102
{ACAD_XDICTIONARY
360
4AB
102
}
102
{ACAD_REACTORS
330
1C6
102
}
330
1C6
100
AcDbVisualStyle
  2

 70
     7
 71
     1
 72
     0
 73
     1
 90
        0
 40
-0.6
 41
-30.0
 62
     5
 63
     7
 74
     0
 91
        4
 64
     7
 65
   257
 75
     1
175
     1
 42
1.0
 92
        8
 66
     7
 43
1.0
 76
     1
 77
     6
 78
     2
 67
     7
 79
     5
170
     0
171
     0
290
     0
174
     0
 93
        1
 44
0.0
173
     0
291
     1
 45
0.0
1001
ACAD
1000
AcDbSavedByObjectVersion
1070
     0
  0
VISUALSTYLE
  5
1D2
102
{ACAD_XDICTIONARY
360
4B9
102
}
102
{ACAD_REACTORS
330
1C6
102
}
330
1C6
100
AcDbVisualStyle
  2

 70
    12
 71
     2
 72
     2
 73
     0
 90
        0
 40
-0.6
 41
-30.0
 62
     5
 63
     7
 74
     1
 91
        4
 64
     7
 65
   257
 75
     1
175
     1
 42
1.0
 92
        8
 66
     7
 43
1.0
 76
     1
 77
     6
 78
     2
 67
     7
 79
     5
170
     0
171
     0
290
     0
174
     0
 93
        1
 44
50.0
173
     0
291
     1
 45
0.0
1001
ACAD
1000
AcDbSavedByObjectVersion
1070
     0
  0
VISUALSTYLE
  5
1D6
102
{ACAD_XDICTIONARY
360
4C1
102
}
102
{ACAD_REACTORS
330
1C6
102
}
330
1C6
100
AcDbVisualStyle
  2

 70
    16
 71
     2
 72
     2
 73
     3
 90
        0
 40
-0.6
 41
-30.0
 62
     5
 63
     8
 74
     1
 91
        4
 64
     7
 65
   257
 75
     1
175
     1
 42
1.0
 92
        8
 66
     8
 43
1.0
 76
     1
 77
     6
 78
     2
 67
     7
 79
     5
170
     0
171
     0
290
     0
174
     0
 93
        1
 44
0.0
173
     0
291
     1
 45
0.0
1001
ACAD
1000
AcDbSavedByObjectVersion
1070
     0
  0
VISUALSTYLE
  5
1CF
102
{ACAD_XDICTIONARY
360
4B3
102
}
102
{ACAD_REACTORS
330
1C6
102
}
330
1C6
100
AcDbVisualStyle
  2

 70
     9
 71
     3
 72
     2
 73
     0
 90
        0
 40
-0.6
 41
-30.0
 62
     5
 63
     7
 74
     2
 91
        2
 64
     7
 65
   257
 75
     1
175
     1
 42
179.0
 92
        8
 66
     7
 43
1.0
 76
     1
 77
     6
 78
     2
 67
     7
 79
     3
170
     0
171
     0
290
     0
174
     0
 93
        1
 44
0.0
173
     0
291
     0
 45
0.0
1001
ACAD
1000
AcDbSavedByObjectVersion
1070
     0
  0
VISUALSTYLE
  5
1D1
102
{ACAD_XDICTIONARY
360
4B7
102
}
102
{ACAD_REACTORS
330
1C6
102
}
330
1C6
100
AcDbVisualStyle
  2

 70
    11
 71
     2
 72
     2
 73
     0
 90
        0
 40
-0.6
 41
-30.0
 62
     5
 63
     7
 74
     1
 91
        4
 64
     7
 65
   257
 75
     1
175
     1
 42
1.0
 92
        8
 66
     7
 43
1.0
 76
     1
 77
     6
 78
     2
 67
     7
 79
     5
170
     0
171
     0
290
     0
174
     0
 93
        1
 44
-50.0
173
     0
291
     1
 45
0.0
1001
ACAD
1000
AcDbSavedByObjectVersion
1070
     0
  0
VISUALSTYLE
  5
1D9
102
{ACAD_XDICTIONARY
360
4C7
102
}
102
{ACAD_REACTORS
330
1C6
102
}
330
1C6
100
AcDbVisualStyle
  2

 70
    22
 71
     2
 72
     2
 73
     0
 90
        0
 40
-0.6
 41
-30.0
 62
     5
 63
     7
 74
     1
 91
        4
 64
     7
 65
   257
 75
     1
175
     1
 42
1.0
 92
        8
 66
     7
 43
1.0
 76
     1
 77
     6
 78
     2
 67
     7
 79
     5
170
     0
171
     0
290
     0
174
     0
 93
        1
 44
0.0
173
     0
291
     1
 45
0.0
1001
ACAD
1000
AcDbSavedByObjectVersion
1070
     0
  0
VISUALSTYLE
  5
1D5
102
{ACAD_XDICTIONARY
360
4BF
102
}
102
{ACAD_REACTORS
330
1C6
102
}
330
1C6
100
AcDbVisualStyle
  2

 70
    15
 71
     2
 72
     2
 73
     0
 90
        0
 40
-0.6
 41
-30.0
 62
     5
 63
     7
 74
     1
 91
        4
 64
     7
 65
   257
 75
     1
175
     1
 42
1.0
 92
        8
 66
     7
 43
1.0
 76
     1
 77
     6
 78
     2
 67
     7
 79
     5
170
     0
171
     0
290
     0
174
     0
 93
        1
 44
0.0
173
     0
291
     1
 45
0.0
1001
ACAD
1000
AcDbSavedByObjectVersion
1070
     0
  0
VISUALSTYLE
  5
1C7
102
{ACAD_XDICTIONARY
360
4A3
102
}
102
{ACAD_REACTORS
330
1C6
102
}
330
1C6
100
AcDbVisualStyle
  2

 70
     0
 71
     2
 72
     1
 73
     1
 90
        2
 40
-0.6
 41
30.0
 62
     5
 63
     7
 74
     0
 91
        4
 64
     7
 65
   257
 75
     1
175
     1
 42
1.0
 92
        8
 66
     7
 43
1.0
 76
     1
 77
     6
 78
     2
 67
     7
 79
     5
170
     0
171
     0
290
     0
174
     0
 93
       13
 44
0.0
173
     0
291
     1
 45
0.0
1001
ACAD
1000
AcDbSavedByObjectVersion
1070
     0
  0
VISUALSTYLE
  5
1C8
102
{ACAD_XDICTIONARY
360
4A5
102
}
102
{ACAD_REACTORS
330
1C6
102
}
330
1C6
100
AcDbVisualStyle
  2

 70
     1
 71
     2
 72
     1
 73
     1
 90
        2
 40
-0.6
 41
30.0
 62
     5
 63
     7
 74
     1
 91
        4
 64
     7
 65
   257
 75
     1
175
     1
 42
1.0
 92
        0
 66
   257
 43
1.0
 76
     1
 77
     6
 78
     2
 67
     7
 79
     5
170
     0
171
     0
290
     0
174
     0
 93
       13
 44
0.0
173
     0
291
     1
 45
0.0
1001
ACAD
1000
AcDbSavedByObjectVersion
1070
     0
  0
VISUALSTYLE
  5
1C9
102
{ACAD_XDICTIONARY
360
4A7
102
}
102
{ACAD_REACTORS
330
1C6
102
}
330
1C6
100
AcDbVisualStyle
  2

 70
     2
 71
     2
 72
     2
 73
     1
 90
        2
 40
-0.6
 41
30.0
 62
     5
 63
     7
 74
     0
 91
        4
 64
     7
 65
   257
 75
     1
175
     1
 42
1.0
 92
        0
 66
     7
 43
1.0
 76
     1
 77
     6
 78
     2
 67
     7
 79
     5
170
     0
171
     0
290
     0
174
     0
 93
       13
 44
0.0
173
     0
291
     1
 45
0.0
1001
ACAD
1000
AcDbSavedByObjectVersion
1070
     0
  0
VISUALSTYLE
  5
1CA
102
{ACAD_XDICTIONARY
360
4A9
102
}
102
{ACAD_REACTORS
330
1C6
102
}
330
1C6
100
AcDbVisualStyle
  2

 70
     3
 71
     2
 72
     2
 73
     1
 90
        2
 40
-0.6
 41
30.0
 62
     5
 63
     7
 74
     1
 91
        4
 64
     7
 65
   257
 75
     1
175
     1
 42
1.0
 92
        0
 66
   257
 43
1.0
 76
     1
 77
     6
 78
     2
 67
     7
 79
     5
170
     0
171
     0
290
     0
174
     0
 93
       13
 44
0.0
173
     0
291
     1
 45
0.0
1001
ACAD
1000
AcDbSavedByObjectVersion
1070
     0
  0
VISUALSTYLE
  5
1D7
102
{ACAD_XDICTIONARY
360
4C3
102
}
102
{ACAD_REACTORS
330
1C6
102
}
330
1C6
100
AcDbVisualStyle
  2

 70
    20
 71
     2
 72
     2
 73
     0
 90
        0
 40
-0.6
 41
-30.0
 62
     5
 63
     7
 74
     1
 91
        4
 64
     7
 65
   257
 75
     1
175
     1
 42
1.0
 92
       10
 66
     7
 43
1.0
 76
     1
 77
     6
 78
     2
 67
     7
 79
     5
170
     0
171
     0
290
     0
174
     0
 93
        1
 44
0.0
173
     0
291
     1
 45
0.0
1001
ACAD
1000
AcDbSavedByObjectVersion
1070
     0
  0
VISUALSTYLE
  5
1D4
102
{ACAD_XDICTIONARY
360
4BD
102
}
102
{ACAD_REACTORS
330
1C6
102
}
330
1C6
100
AcDbVisualStyle
  2

 70
    14
 71
     2
 72
     2
 73
     0
 90
        0
 40
-0.6
 41
-30.0
 62
     5
 63
     7
 74
     1
 91
        4
 64
     7
 65
   257
 75
     7
175
     7
 42
1.0
 92
        8
 66
     7
 43
1.0
 76
     1
 77
     6
 78
     2
 67
     7
 79
     5
170
     0
171
     0
290
     0
174
     0
 93
        1
 44
0.0
173
     0
291
     1
 45
0.0
1001
ACAD
1000
AcDbSavedByObjectVersion
1070
     0
  0
VISUALSTYLE
  5
1D8
102
{ACAD_XDICTIONARY
360
4C5
102
}
102
{ACAD_REACTORS
330
1C6
102
}
330
1C6
100
AcDbVisualStyle
  2

 70
    21
 71
     2
 72
     2
 73
     0
 90
        0
 40
-0.6
 41
-30.0
 62
     5
 63
     7
 74
     1
 91
        4
 64
     7
 65
   257
 75
     1
175
     1
 42
1.0
 92
        9
 66
     7
 43
1.0
 76
     1
 77
     6
 78
     2
 67
     7
 79
     5
170
     0
171
     0
290
     0
174
     0
 93
        1
 44
0.0
173
     0
291
     1
 45
0.0
1001
ACAD
1000
AcDbSavedByObjectVersion
1070
     0
  0
VISUALSTYLE
  5
1D0
102
{ACAD_XDICTIONARY
360
4B5
102
}
102
{ACAD_REACTORS
330
1C6
102
}
330
1C6
100
AcDbVisualStyle
  2

 70
     8
 71
     2
 72
     2
 73
     0
 90
        0
 40
-0.6
 41
-30.0
 62
     5
 63
     7
 74
     1
 91
        0
 64
     7
 65
   257
 75
     1
175
     1
 42
1.0
 92
        8
 66
     8
 43
1.0
 76
     1
 77
     6
 78
     2
 67
     7
 79
     5
170
     0
171
     0
290
     0
174
     0
 93
       13
 44
0.0
173
     0
291
     0
 45
0.0
1001
ACAD
1000
AcDbSavedByObjectVersion
1070
     0
  0
VISUALSTYLE
  5
1D3
102
{ACAD_XDICTIONARY
360
4BB
102
}
102
{ACAD_REACTORS
330
1C6
102
}
330
1C6
100
AcDbVisualStyle
  2

 70
    13
 71
     2
 72
     2
 73
     0
 90
        0
 40
-0.6
 41
-30.0
 62
     5
 63
     7
 74
     1
 91
        4
 64
     7
 65
   257
 75
     1
175
     1
 42
1.0
 92
       12
 66
     7
 43
1.0
 76
     1
 77
     6
 78
     2
 67
     7
 79
     5
170
     0
171
     0
290
     0
174
     0
 93
        1
 44
0.0
173
     0
291
     1
 45
0.0
1001
ACAD
1000
AcDbSavedByObjectVersion
1070
     0
  0
DICTIONARYVAR
  5
20E
102
{ACAD_REACTORS
330
20B
102
}
330
20B
100
DictionaryVariables
280
     0
  1
1:1
  0
DICTIONARYVAR
  5
20D
102
{ACAD_REACTORS
330
20B
102
}
330
20B
100
DictionaryVariables
280
     0
  1
STANDARD
  0
DICTIONARYVAR
  5
20C
102
{ACAD_REACTORS
330
20B
102
}
330
20B
100
DictionaryVariables
280
     0
  1
STANDARD
  0
DICTIONARYVAR
  5
211
102
{ACAD_REACTORS
330
20B
102
}
330
20B
100
DictionaryVariables
280
     0
  1
1
  0
DICTIONARYVAR
  5
210
102
{ACAD_REACTORS
330
20B
102
}
330
20B
100
DictionaryVariables
280
     0
  1
0
  0
DICTIONARYVAR
  5
20F
102
{ACAD_REACTORS
330
20B
102
}
330
20B
100
DictionaryVariables
280
     0
  1
127
  0
DICTIONARYVAR
  5
351
102
{ACAD_REACTORS
330
20B
102
}
330
20B
100
DictionaryVariables
280
     0
  1
2
  0
DICTIONARY
  5
49F
330
F0
100
AcDbDictionary
280
     1
281
     1
  3
ACAD_XREC_ROUNDTRIP
360
4A0
  0
DICTIONARY
  5
4A1
330
F4
100
AcDbDictionary
280
     1
281
     1
  3
ACAD_XREC_ROUNDTRIP
360
4A2
  0
DICTIONARY
  5
1B7
330
1B6
100
AcDbDictionary
280
     1
281
     1
  3
ACAD_XREC_ROUNDTRIP
360
283
  3
BUMPTILE
360
1B9
  3
DIFFUSETILE
360
1B8
  3
OPACITYTILE
360
1BC
  3
REFLECTIONTILE
360
1BB
  3
REFRACTIONTILE
360
1BD
  3
SPECULARTILE
360
1BA
  0
DICTIONARY
  5
1AF
330
1AE
100
AcDbDictionary
280
     1
281
     1
  3
ACAD_XREC_ROUNDTRIP
360
282
  3
BUMPTILE
360
1B1
  3
DIFFUSETILE
360
1B0
  3
OPACITYTILE
360
1B4
  3
REFLECTIONTILE
360
1B3
  3
REFRACTIONTILE
360
1B5
  3
SPECULARTILE
360
1B2
  0
DICTIONARY
  5
1BF
330
1BE
100
AcDbDictionary
280
     1
281
     1
  3
ACAD_XREC_ROUNDTRIP
360
284
  3
BUMPTILE
360
1C1
  3
DIFFUSETILE
360
1C0
  3
OPACITYTILE
360
1C4
  3
REFLECTIONTILE
360
1C3
  3
REFRACTIONTILE
360
1C5
  3
SPECULARTILE
360
1C2
  0
DICTIONARY
  5
27A
330
1DC
100
AcDbDictionary
280
     1
281
     1
  3
ACAD_ROUNDTRIP_2008_TABLESTYLE_CELLSTYLEMAP
360
49C
  3
ACAD_XREC_ROUNDTRIP
360
4C9
  0
DICTIONARY
  5
4AD
330
1CC
100
AcDbDictionary
280
     1
281
     1
  3
ACAD_XREC_ROUNDTRIP
360
4AE
  0
DICTIONARY
  5
4B1
330
1CE
100
AcDbDictionary
280
     1
281
     1
  3
ACAD_XREC_ROUNDTRIP
360
4B2
  0
DICTIONARY
  5
4AF
330
1CD
100
AcDbDictionary
280
     1
281
     1
  3
ACAD_XREC_ROUNDTRIP
360
4B0
  0
DICTIONARY
  5
4AB
330
1CB
100
AcDbDictionary
280
     1
281
     1
  3
ACAD_XREC_ROUNDTRIP
360
4AC
  0
DICTIONARY
  5
4B9
330
1D2
100
AcDbDictionary
280
     1
281
     1
  3
ACAD_XREC_ROUNDTRIP
360
4BA
  0
DICTIONARY
  5
4C1
330
1D6
100
AcDbDictionary
280
     1
281
     1
  3
ACAD_XREC_ROUNDTRIP
360
4C2
  0
DICTIONARY
  5
4B3
330
1CF
100
AcDbDictionary
280
     1
281
     1
  3
ACAD_XREC_ROUNDTRIP
360
4B4
  0
DICTIONARY
  5
4B7
330
1D1
100
AcDbDictionary
280
     1
281
     1
  3
ACAD_XREC_ROUNDTRIP
360
4B8
  0
DICTIONARY
  5
4C7
330
1D9
100
AcDbDictionary
280
     1
281
     1
  3
ACAD_XREC_ROUNDTRIP
360
4C8
  0
DICTIONARY
  5
4BF
330
1D5
100
AcDbDictionary
280
     1
281
     1
  3
ACAD_XREC_ROUNDTRIP
360
4C0
  0
DICTIONARY
  5
4A3
330
1C7
100
AcDbDictionary
280
     1
281
     1
  3
ACAD_XREC_ROUNDTRIP
360
4A4
  0
DICTIONARY
  5
4A5
330
1C8
100
AcDbDictionary
280
     1
281
     1
  3
ACAD_XREC_ROUNDTRIP
360
4A6
  0
DICTIONARY
  5
4A7
330
1C9
100
AcDbDictionary
280
     1
281
     1
  3
ACAD_XREC_ROUNDTRIP
360
4A8
  0
DICTIONARY
  5
4A9
330
1CA
100
AcDbDictionary
280
     1
281
     1
  3
ACAD_XREC_ROUNDTRIP
360
4AA
  0
DICTIONARY
  5
4C3
330
1D7
100
AcDbDictionary
280
     1
281
     1
  3
ACAD_XREC_ROUNDTRIP
360
4C4
  0
DICTIONARY
  5
4BD
330
1D4
100
AcDbDictionary
280
     1
281
     1
  3
ACAD_XREC_ROUNDTRIP
360
4BE
  0
DICTIONARY
  5
4C5
330
1D8
100
AcDbDictionary
280
     1
281
     1
  3
ACAD_XREC_ROUNDTRIP
360
4C6
  0
DICTIONARY
  5
4B5
330
1D0
100
AcDbDictionary
280
     1
281
     1
  3
ACAD_XREC_ROUNDTRIP
360
4B6
  0
DICTIONARY
  5
4BB
330
1D3
100
AcDbDictionary
280
     1
281
     1
  3
ACAD_XREC_ROUNDTRIP
360
4BC
  0
XRECORD
  5
4A0
102
{ACAD_REACTORS
330
49F
102
}
330
49F
100
AcDbXrecord
280
     1
102
SHADEPLOT
 70
     0
102
SHADEPLOTRESLEVEL
 70
     2
102
SHADEPLOTCUSTOMDPI
 70
   300
  0
XRECORD
  5
4A2
102
{ACAD_REACTORS
330
4A1
102
}
330
4A1
100
AcDbXrecord
280
     1
102
SHADEPLOT
 70
     0
102
SHADEPLOTRESLEVEL
 70
     2
102
SHADEPLOTCUSTOMDPI
 70
   300
  0
XRECORD
  5
283
102
{ACAD_REACTORS
330
1B7
102
}
330
1B7
100
AcDbXrecord
280
     1
102
MATERIAL
148
0.0
149
0.0
149
0.0
 93
        0
 94
      127
282
     0
 72
     0
 77
     0
171
     0
175
     0
179
     0
273
     0
  0
XRECORD
  5
1B9
102
{ACAD_REACTORS
330
1B7
102
}
330
1B7
100
AcDbXrecord
280
     1
270
     1
271
     1
  0
XRECORD
  5
1B8
102
{ACAD_REACTORS
330
1B7
102
}
330
1B7
100
AcDbXrecord
280
     1
270
     1
271
     1
  0
XRECORD
  5
1BC
102
{ACAD_REACTORS
330
1B7
102
}
330
1B7
100
AcDbXrecord
280
     1
270
     1
271
     1
  0
XRECORD
  5
1BB
102
{ACAD_REACTORS
330
1B7
102
}
330
1B7
100
AcDbXrecord
280
     1
270
     1
271
     1
  0
XRECORD
  5
1BD
102
{ACAD_REACTORS
330
1B7
102
}
330
1B7
100
AcDbXrecord
280
     1
270
     1
271
     1
  0
XRECORD
  5
1BA
102
{ACAD_REACTORS
330
1B7
102
}
330
1B7
100
AcDbXrecord
280
     1
270
     1
271
     1
  0
XRECORD
  5
282
102
{ACAD_REACTORS
330
1AF
102
}
330
1AF
100
AcDbXrecord
280
     1
102
MATERIAL
148
0.0
149
0.0
149
0.0
 93
        0
 94
      127
282
     0
 72
     0
 77
     0
171
     0
175
     0
179
     0
273
     0
  0
XRECORD
  5
1B1
102
{ACAD_REACTORS
330
1AF
102
}
330
1AF
100
AcDbXrecord
280
     1
270
     1
271
     1
  0
XRECORD
  5
1B0
102
{ACAD_REACTORS
330
1AF
102
}
330
1AF
100
AcDbXrecord
280
     1
270
     1
271
     1
  0
XRECORD
  5
1B4
102
{ACAD_REACTORS
330
1AF
102
}
330
1AF
100
AcDbXrecord
280
     1
270
     1
271
     1
  0
XRECORD
  5
1B3
102
{ACAD_REACTORS
330
1AF
102
}
330
1AF
100
AcDbXrecord
280
     1
270
     1
271
     1
  0
XRECORD
  5
1B5
102
{ACAD_REACTORS
330
1AF
102
}
330
1AF
100
AcDbXrecord
280
     1
270
     1
271
     1
  0
XRECORD
  5
1B2
102
{ACAD_REACTORS
330
1AF
102
}
330
1AF
100
AcDbXrecord
280
     1
270
     1
271
     1
  0
XRECORD
  5
284
102
{ACAD_REACTORS
330
1BF
102
}
330
1BF
100
AcDbXrecord
280
     1
102
MATERIAL
148
0.0
149
0.0
149
0.0
 93
        0
 94
      127
282
     0
 72
     0
 77
     0
171
     0
175
     0
179
     0
273
     0
  0
XRECORD
  5
1C1
102
{ACAD_REACTORS
330
1BF
102
}
330
1BF
100
AcDbXrecord
280
     1
270
     1
271
     1
  0
XRECORD
  5
1C0
102
{ACAD_REACTORS
330
1BF
102
}
330
1BF
100
AcDbXrecord
280
     1
270
     1
271
     1
  0
XRECORD
  5
1C4
102
{ACAD_REACTORS
330
1BF
102
}
330
1BF
100
AcDbXrecord
280
     1
270
     1
271
     1
  0
XRECORD
  5
1C3
102
{ACAD_REACTORS
330
1BF
102
}
330
1BF
100
AcDbXrecord
280
     1
270
     1
271
     1
  0
XRECORD
  5
1C5
102
{ACAD_REACTORS
330
1BF
102
}
330
1BF
100
AcDbXrecord
280
     1
270
     1
271
     1
  0
XRECORD
  5
1C2
102
{ACAD_REACTORS
330
1BF
102
}
330
1BF
100
AcDbXrecord
280
     1
270
     1
271
     1
  0
CELLSTYLEMAP
  5
49C
102
{ACAD_REACTORS
330
27A
102
}
330
27A
100
AcDbCellStyleMap
 90
        3
300
CELLSTYLE
  1
TABLEFORMAT_BEGIN
 90
        5
170
     1
 91
        0
 92
    32768
 62
   257
 93
        1
300
CONTENTFORMAT
  1
CONTENTFORMAT_BEGIN
 90
        0
 91
        0
 92
      512
 93
        0
300

 40
0.0
140
1.0
 94
        5
 62
     0
340
E4
144
0.25
309
CONTENTFORMAT_END
171
     1
301
MARGIN
  1
CELLMARGIN_BEGIN
 40
0.06
 40
0.06
 40
0.06
 40
0.06
 40
0.18
 40
0.18
309
CELLMARGIN_END
 94
        6
 95
        1
302
GRIDFORMAT
  1
GRIDFORMAT_BEGIN
 90
        0
 91
        1
 62
     0
 92
       -2
340
0
 93
        0
 40
0.045
309
GRIDFORMAT_END
 95
        2
302
GRIDFORMAT
  1
GRIDFORMAT_BEGIN
 90
        0
 91
        1
 62
     0
 92
       -2
340
0
 93
        0
 40
0.045
309
GRIDFORMAT_END
 95
        4
302
GRIDFORMAT
  1
GRIDFORMAT_BEGIN
 90
        0
 91
        1
 62
     0
 92
       -2
340
0
 93
        0
 40
0.045
309
GRIDFORMAT_END
 95
        8
302
GRIDFORMAT
  1
GRIDFORMAT_BEGIN
 90
        0
 91
        1
 62
     0
 92
       -2
340
0
 93
        0
 40
0.045
309
GRIDFORMAT_END
 95
       16
302
GRIDFORMAT
  1
GRIDFORMAT_BEGIN
 90
        0
 91
        1
 62
     0
 92
       -2
340
0
 93
        0
 40
0.045
309
GRIDFORMAT_END
 95
       32
302
GRIDFORMAT
  1
GRIDFORMAT_BEGIN
 90
        0
 91
        1
 62
     0
 92
       -2
340
0
 93
        0
 40
0.045
309
GRIDFORMAT_END
309
TABLEFORMAT_END
  1
CELLSTYLE_BEGIN
 90
        1
 91
        1
300
_TITLE
309
CELLSTYLE_END
300
CELLSTYLE
  1
TABLEFORMAT_BEGIN
 90
        5
170
     1
 91
        0
 92
        0
 62
   257
 93
        1
300
CONTENTFORMAT
  1
CONTENTFORMAT_BEGIN
 90
        0
 91
        0
 92
      512
 93
        0
300

 40
0.0
140
1.0
 94
        5
 62
     0
340
E4
144
0.18
309
CONTENTFORMAT_END
171
     1
301
MARGIN
  1
CELLMARGIN_BEGIN
 40
0.06
 40
0.06
 40
0.06
 40
0.06
 40
0.18
 40
0.18
309
CELLMARGIN_END
 94
        6
 95
        1
302
GRIDFORMAT
  1
GRIDFORMAT_BEGIN
 90
        0
 91
        1
 62
     0
 92
       -2
340
0
 93
        0
 40
0.045
309
GRIDFORMAT_END
 95
        2
302
GRIDFORMAT
  1
GRIDFORMAT_BEGIN
 90
        0
 91
        1
 62
     0
 92
       -2
340
0
 93
        0
 40
0.045
309
GRIDFORMAT_END
 95
        4
302
GRIDFORMAT
  1
GRIDFORMAT_BEGIN
 90
        0
 91
        1
 62
     0
 92
       -2
340
0
 93
        0
 40
0.045
309
GRIDFORMAT_END
 95
        8
302
GRIDFORMAT
  1
GRIDFORMAT_BEGIN
 90
        0
 91
        1
 62
     0
 92
       -2
340
0
 93
        0
 40
0.045
309
GRIDFORMAT_END
 95
       16
302
GRIDFORMAT
  1
GRIDFORMAT_BEGIN
 90
        0
 91
        1
 62
     0
 92
       -2
340
0
 93
        0
 40
0.045
309
GRIDFORMAT_END
 95
       32
302
GRIDFORMAT
  1
GRIDFORMAT_BEGIN
 90
        0
 91
        1
 62
     0
 92
       -2
340
0
 93
        0
 40
0.045
309
GRIDFORMAT_END
309
TABLEFORMAT_END
  1
CELLSTYLE_BEGIN
 90
        2
 91
        1
300
_HEADER
309
CELLSTYLE_END
300
CELLSTYLE
  1
TABLEFORMAT_BEGIN
 90
        5
170
     1
 91
        0
 92
        0
 62
   257
 93
        1
300
CONTENTFORMAT
  1
CONTENTFORMAT_BEGIN
 90
        0
 91
        0
 92
      512
 93
        0
300

 40
0.0
140
1.0
 94
        2
 62
     0
340
E4
144
0.18
309
CONTENTFORMAT_END
171
     1
301
MARGIN
  1
CELLMARGIN_BEGIN
 40
0.06
 40
0.06
 40
0.06
 40
0.06
 40
0.18
 40
0.18
309
CELLMARGIN_END
 94
        6
 95
        1
302
GRIDFORMAT
  1
GRIDFORMAT_BEGIN
 90
        0
 91
        1
 62
     0
 92
       -2
340
0
 93
        0
 40
0.045
309
GRIDFORMAT_END
 95
        2
302
GRIDFORMAT
  1
GRIDFORMAT_BEGIN
 90
        0
 91
        1
 62
     0
 92
       -2
340
0
 93
        0
 40
0.045
309
GRIDFORMAT_END
 95
        4
302
GRIDFORMAT
  1
GRIDFORMAT_BEGIN
 90
        0
 91
        1
 62
     0
 92
       -2
340
0
 93
        0
 40
0.045
309
GRIDFORMAT_END
 95
        8
302
GRIDFORMAT
  1
GRIDFORMAT_BEGIN
 90
        0
 91
        1
 62
     0
 92
       -2
340
0
 93
        0
 40
0.045
309
GRIDFORMAT_END
 95
       16
302
GRIDFORMAT
  1
GRIDFORMAT_BEGIN
 90
        0
 91
        1
 62
     0
 92
       -2
340
0
 93
        0
 40
0.045
309
GRIDFORMAT_END
 95
       32
302
GRIDFORMAT
  1
GRIDFORMAT_BEGIN
 90
        0
 91
        1
 62
     0
 92
       -2
340
0
 93
        0
 40
0.045
309
GRIDFORMAT_END
309
TABLEFORMAT_END
  1
CELLSTYLE_BEGIN
 90
        3
 91
        2
300
_DATA
309
CELLSTYLE_END
  0
XRECORD
  5
4C9
102
{ACAD_REACTORS
330
27A
102
}
330
27A
100
AcDbXrecord
280
     1
102
ACAD_ROUNDTRIP_PRE2007_TABLESTYLE
 90
      512
 91
        0
  1

 92
      512
 93
        0
  2

 94
      512
 95
        0
  3

  0
XRECORD
  5
4AE
102
{ACAD_REACTORS
330
4AD
102
}
330
4AD
100
AcDbXrecord
280
     1
102
RTVSPropertyOp0
 70
     1
102
RTVSPropertyOp1
 70
     1
102
RTVSPropertyOp2
 70
     1
102
RTVSPropertyOp3
 70
     1
102
RTVSPropertyOp4
 70
     1
102
RTVSPropertyOp5
 70
     1
102
RTVSPropertyOp6
 70
     1
102
RTVSPropertyOp7
 70
     1
102
RTVSPropertyOp8
 70
     1
102
RTVSPropertyOp9
 70
     1
102
RTVSPropertyOp10
 70
     1
102
RTVSPropertyOp11
 70
     1
102
RTVSPropertyOp12
 70
     1
102
RTVSPropertyOp13
 70
     1
102
RTVSPropertyOp14
 70
     1
102
RTVSPropertyOp15
 70
     1
102
RTVSPropertyOp16
 70
     1
102
RTVSPropertyOp17
 70
     1
102
RTVSPropertyOp18
 70
     1
102
RTVSPropertyOp19
 70
     1
102
RTVSPropertyOp20
 70
     1
102
RTVSPropertyOp21
 70
     1
102
RTVSPropertyOp22
 70
     1
102
RTVSPropertyOp23
 70
     1
102
RTVSPropertyOp24
 70
     1
102
RTVSPropertyOp25
 70
     1
102
RTVSPropertyOp26
 70
     1
102
RTVSPropertyOp27
 70
     1
  0
XRECORD
  5
4B2
102
{ACAD_REACTORS
330
4B1
102
}
330
4B1
100
AcDbXrecord
280
     1
102
RTVSPropertyOp0
 70
     1
102
RTVSPropertyOp1
 70
     1
102
RTVSPropertyOp2
 70
     1
102
RTVSPropertyOp3
 70
     1
102
RTVSPropertyOp4
 70
     1
102
RTVSPropertyOp5
 70
     1
102
RTVSPropertyOp6
 70
     1
102
RTVSPropertyOp7
 70
     1
102
RTVSPropertyOp8
 70
     1
102
RTVSPropertyOp9
 70
     1
102
RTVSPropertyOp10
 70
     1
102
RTVSPropertyOp11
 70
     1
102
RTVSPropertyOp12
 70
     1
102
RTVSPropertyOp13
 70
     1
102
RTVSPropertyOp14
 70
     1
102
RTVSPropertyOp15
 70
     1
102
RTVSPropertyOp16
 70
     1
102
RTVSPropertyOp17
 70
     1
102
RTVSPropertyOp18
 70
     1
102
RTVSPropertyOp19
 70
     1
102
RTVSPropertyOp20
 70
     1
102
RTVSPropertyOp21
 70
     1
102
RTVSPropertyOp22
 70
     1
102
RTVSPropertyOp23
 70
     1
102
RTVSPropertyOp24
 70
     1
102
RTVSPropertyOp25
 70
     1
102
RTVSPropertyOp26
 70
     1
102
RTVSPropertyOp27
 70
     1
  0
XRECORD
  5
4B0
102
{ACAD_REACTORS
330
4AF
102
}
330
4AF
100
AcDbXrecord
280
     1
102
RTVSPropertyOp0
 70
     1
102
RTVSPropertyOp1
 70
     1
102
RTVSPropertyOp2
 70
     1
102
RTVSPropertyOp3
 70
     1
102
RTVSPropertyOp4
 70
     1
102
RTVSPropertyOp5
 70
     1
102
RTVSPropertyOp6
 70
     1
102
RTVSPropertyOp7
 70
     1
102
RTVSPropertyOp8
 70
     1
102
RTVSPropertyOp9
 70
     1
102
RTVSPropertyOp10
 70
     1
102
RTVSPropertyOp11
 70
     1
102
RTVSPropertyOp12
 70
     1
102
RTVSPropertyOp13
 70
     1
102
RTVSPropertyOp14
 70
     1
102
RTVSPropertyOp15
 70
     1
102
RTVSPropertyOp16
 70
     1
102
RTVSPropertyOp17
 70
     1
102
RTVSPropertyOp18
 70
     1
102
RTVSPropertyOp19
 70
     1
102
RTVSPropertyOp20
 70
     1
102
RTVSPropertyOp21
 70
     1
102
RTVSPropertyOp22
 70
     1
102
RTVSPropertyOp23
 70
     1
102
RTVSPropertyOp24
 70
     1
102
RTVSPropertyOp25
 70
     1
102
RTVSPropertyOp26
 70
     1
102
RTVSPropertyOp27
 70
     1
  0
XRECORD
  5
4AC
102
{ACAD_REACTORS
330
4AB
102
}
330
4AB
100
AcDbXrecord
280
     1
102
RTVSPropertyOp0
 70
     1
102
RTVSPropertyOp1
 70
     1
102
RTVSPropertyOp2
 70
     1
102
RTVSPropertyOp3
 70
     1
102
RTVSPropertyOp4
 70
     1
102
RTVSPropertyOp5
 70
     1
102
RTVSPropertyOp6
 70
     1
102
RTVSPropertyOp7
 70
     1
102
RTVSPropertyOp8
 70
     1
102
RTVSPropertyOp9
 70
     1
102
RTVSPropertyOp10
 70
     1
102
RTVSPropertyOp11
 70
     1
102
RTVSPropertyOp12
 70
     1
102
RTVSPropertyOp13
 70
     1
102
RTVSPropertyOp14
 70
     1
102
RTVSPropertyOp15
 70
     1
102
RTVSPropertyOp16
 70
     1
102
RTVSPropertyOp17
 70
     1
102
RTVSPropertyOp18
 70
     1
102
RTVSPropertyOp19
 70
     1
102
RTVSPropertyOp20
 70
     1
102
RTVSPropertyOp21
 70
     1
102
RTVSPropertyOp22
 70
     1
102
RTVSPropertyOp23
 70
     1
102
RTVSPropertyOp24
 70
     1
102
RTVSPropertyOp25
 70
     1
102
RTVSPropertyOp26
 70
     1
102
RTVSPropertyOp27
 70
     1
  0
XRECORD
  5
4BA
102
{ACAD_REACTORS
330
4B9
102
}
330
4B9
100
AcDbXrecord
280
     1
102
RTVSPropertyOp0
 70
     1
102
RTVSPropertyOp1
 70
     1
102
RTVSPropertyOp2
 70
     1
102
RTVSPropertyOp3
 70
     1
102
RTVSPropertyOp4
 70
     1
102
RTVSPropertyOp5
 70
     1
102
RTVSPropertyOp6
 70
     1
102
RTVSPropertyOp7
 70
     1
102
RTVSPropertyOp8
 70
     1
102
RTVSPropertyOp9
 70
     1
102
RTVSPropertyOp10
 70
     1
102
RTVSPropertyOp11
 70
     1
102
RTVSPropertyOp12
 70
     1
102
RTVSPropertyOp13
 70
     1
102
RTVSPropertyOp14
 70
     1
102
RTVSPropertyOp15
 70
     1
102
RTVSPropertyOp16
 70
     1
102
RTVSPropertyOp17
 70
     1
102
RTVSPropertyOp18
 70
     1
102
RTVSPropertyOp19
 70
     1
102
RTVSPropertyOp20
 70
     1
102
RTVSPropertyOp21
 70
     1
102
RTVSPropertyOp22
 70
     1
102
RTVSPropertyOp23
 70
     1
102
RTVSPropertyOp24
 70
     1
102
RTVSPropertyOp25
 70
     1
102
RTVSPropertyOp26
 70
     1
102
RTVSPropertyOp27
 70
     1
  0
XRECORD
  5
4C2
102
{ACAD_REACTORS
330
4C1
102
}
330
4C1
100
AcDbXrecord
280
     1
102
RTVSPropertyOp0
 70
     1
102
RTVSPropertyOp1
 70
     1
102
RTVSPropertyOp2
 70
     1
102
RTVSPropertyOp3
 70
     1
102
RTVSPropertyOp4
 70
     1
102
RTVSPropertyOp5
 70
     1
102
RTVSPropertyOp6
 70
     1
102
RTVSPropertyOp7
 70
     1
102
RTVSPropertyOp8
 70
     1
102
RTVSPropertyOp9
 70
     1
102
RTVSPropertyOp10
 70
     1
102
RTVSPropertyOp11
 70
     1
102
RTVSPropertyOp12
 70
     1
102
RTVSPropertyOp13
 70
     1
102
RTVSPropertyOp14
 70
     1
102
RTVSPropertyOp15
 70
     1
102
RTVSPropertyOp16
 70
     1
102
RTVSPropertyOp17
 70
     1
102
RTVSPropertyOp18
 70
     1
102
RTVSPropertyOp19
 70
     1
102
RTVSPropertyOp20
 70
     1
102
RTVSPropertyOp21
 70
     1
102
RTVSPropertyOp22
 70
     1
102
RTVSPropertyOp23
 70
     1
102
RTVSPropertyOp24
 70
     1
102
RTVSPropertyOp25
 70
     1
102
RTVSPropertyOp26
 70
     1
102
RTVSPropertyOp27
 70
     1
  0
XRECORD
  5
4B4
102
{ACAD_REACTORS
330
4B3
102
}
330
4B3
100
AcDbXrecord
280
     1
102
RTVSPropertyOp0
 70
     1
102
RTVSPropertyOp1
 70
     1
102
RTVSPropertyOp2
 70
     1
102
RTVSPropertyOp3
 70
     1
102
RTVSPropertyOp4
 70
     1
102
RTVSPropertyOp5
 70
     1
102
RTVSPropertyOp6
 70
     1
102
RTVSPropertyOp7
 70
     1
102
RTVSPropertyOp8
 70
     1
102
RTVSPropertyOp9
 70
     1
102
RTVSPropertyOp10
 70
     1
102
RTVSPropertyOp11
 70
     1
102
RTVSPropertyOp12
 70
     1
102
RTVSPropertyOp13
 70
     1
102
RTVSPropertyOp14
 70
     1
102
RTVSPropertyOp15
 70
     1
102
RTVSPropertyOp16
 70
     1
102
RTVSPropertyOp17
 70
     1
102
RTVSPropertyOp18
 70
     1
102
RTVSPropertyOp19
 70
     1
102
RTVSPropertyOp20
 70
     1
102
RTVSPropertyOp21
 70
     1
102
RTVSPropertyOp22
 70
     1
102
RTVSPropertyOp23
 70
     1
102
RTVSPropertyOp24
 70
     1
102
RTVSPropertyOp25
 70
     1
102
RTVSPropertyOp26
 70
     1
102
RTVSPropertyOp27
 70
     1
  0
XRECORD
  5
4B8
102
{ACAD_REACTORS
330
4B7
102
}
330
4B7
100
AcDbXrecord
280
     1
102
RTVSPropertyOp0
 70
     1
102
RTVSPropertyOp1
 70
     1
102
RTVSPropertyOp2
 70
     1
102
RTVSPropertyOp3
 70
     1
102
RTVSPropertyOp4
 70
     1
102
RTVSPropertyOp5
 70
     1
102
RTVSPropertyOp6
 70
     1
102
RTVSPropertyOp7
 70
     1
102
RTVSPropertyOp8
 70
     1
102
RTVSPropertyOp9
 70
     1
102
RTVSPropertyOp10
 70
     1
102
RTVSPropertyOp11
 70
     1
102
RTVSPropertyOp12
 70
     1
102
RTVSPropertyOp13
 70
     1
102
RTVSPropertyOp14
 70
     1
102
RTVSPropertyOp15
 70
     1
102
RTVSPropertyOp16
 70
     1
102
RTVSPropertyOp17
 70
     1
102
RTVSPropertyOp18
 70
     1
102
RTVSPropertyOp19
 70
     1
102
RTVSPropertyOp20
 70
     1
102
RTVSPropertyOp21
 70
     1
102
RTVSPropertyOp22
 70
     1
102
RTVSPropertyOp23
 70
     1
102
RTVSPropertyOp24
 70
     1
102
RTVSPropertyOp25
 70
     1
102
RTVSPropertyOp26
 70
     1
102
RTVSPropertyOp27
 70
     1
  0
XRECORD
  5
4C8
102
{ACAD_REACTORS
330
4C7
102
}
330
4C7
100
AcDbXrecord
280
     1
102
RTVSPropertyOp0
 70
     0
102
RTVSPropertyOp1
 70
     0
102
RTVSPropertyOp2
 70
     0
102
RTVSPropertyOp3
 70
     0
102
RTVSPropertyOp4
 70
     0
102
RTVSPropertyOp5
 70
     0
102
RTVSPropertyOp6
 70
     0
102
RTVSPropertyOp7
 70
     0
102
RTVSPropertyOp8
 70
     0
102
RTVSPropertyOp9
 70
     0
102
RTVSPropertyOp10
 70
     0
102
RTVSPropertyOp11
 70
     0
102
RTVSPropertyOp12
 70
     0
102
RTVSPropertyOp13
 70
     0
102
RTVSPropertyOp14
 70
     2
102
RTVSPropertyOp15
 70
     0
102
RTVSPropertyOp16
 70
     0
102
RTVSPropertyOp17
 70
     0
102
RTVSPropertyOp18
 70
     0
102
RTVSPropertyOp19
 70
     0
102
RTVSPropertyOp20
 70
     0
102
RTVSPropertyOp21
 70
     0
102
RTVSPropertyOp22
 70
     0
102
RTVSPropertyOp23
 70
     0
102
RTVSPropertyOp24
 70
     0
102
RTVSPropertyOp25
 70
     0
102
RTVSPropertyOp26
 70
     0
102
RTVSPropertyOp27
 70
     0
  0
XRECORD
  5
4C0
102
{ACAD_REACTORS
330
4BF
102
}
330
4BF
100
AcDbXrecord
280
     1
102
RTVSPropertyOp0
 70
     1
102
RTVSPropertyOp1
 70
     1
102
RTVSPropertyOp2
 70
     1
102
RTVSPropertyOp3
 70
     1
102
RTVSPropertyOp4
 70
     1
102
RTVSPropertyOp5
 70
     1
102
RTVSPropertyOp6
 70
     1
102
RTVSPropertyOp7
 70
     1
102
RTVSPropertyOp8
 70
     1
102
RTVSPropertyOp9
 70
     1
102
RTVSPropertyOp10
 70
     1
102
RTVSPropertyOp11
 70
     1
102
RTVSPropertyOp12
 70
     1
102
RTVSPropertyOp13
 70
     1
102
RTVSPropertyOp14
 70
     1
102
RTVSPropertyOp15
 70
     1
102
RTVSPropertyOp16
 70
     1
102
RTVSPropertyOp17
 70
     1
102
RTVSPropertyOp18
 70
     1
102
RTVSPropertyOp19
 70
     1
102
RTVSPropertyOp20
 70
     1
102
RTVSPropertyOp21
 70
     1
102
RTVSPropertyOp22
 70
     1
102
RTVSPropertyOp23
 70
     1
102
RTVSPropertyOp24
 70
     1
102
RTVSPropertyOp25
 70
     1
102
RTVSPropertyOp26
 70
     1
102
RTVSPropertyOp27
 70
     1
  0
XRECORD
  5
4A4
102
{ACAD_REACTORS
330
4A3
102
}
330
4A3
100
AcDbXrecord
280
     1
102
RTVSPropertyOp0
 70
     1
102
RTVSPropertyOp1
 70
     1
102
RTVSPropertyOp2
 70
     1
102
RTVSPropertyOp3
 70
     1
102
RTVSPropertyOp4
 70
     1
102
RTVSPropertyOp5
 70
     1
102
RTVSPropertyOp6
 70
     1
102
RTVSPropertyOp7
 70
     1
102
RTVSPropertyOp8
 70
     1
102
RTVSPropertyOp9
 70
     1
102
RTVSPropertyOp10
 70
     1
102
RTVSPropertyOp11
 70
     1
102
RTVSPropertyOp12
 70
     1
102
RTVSPropertyOp13
 70
     1
102
RTVSPropertyOp14
 70
     1
102
RTVSPropertyOp15
 70
     1
102
RTVSPropertyOp16
 70
     1
102
RTVSPropertyOp17
 70
     1
102
RTVSPropertyOp18
 70
     1
102
RTVSPropertyOp19
 70
     1
102
RTVSPropertyOp20
 70
     1
102
RTVSPropertyOp21
 70
     1
102
RTVSPropertyOp22
 70
     1
102
RTVSPropertyOp23
 70
     1
102
RTVSPropertyOp24
 70
     1
102
RTVSPropertyOp25
 70
     1
102
RTVSPropertyOp26
 70
     1
102
RTVSPropertyOp27
 70
     1
  0
XRECORD
  5
4A6
102
{ACAD_REACTORS
330
4A5
102
}
330
4A5
100
AcDbXrecord
280
     1
102
RTVSPropertyOp0
 70
     1
102
RTVSPropertyOp1
 70
     1
102
RTVSPropertyOp2
 70
     1
102
RTVSPropertyOp3
 70
     1
102
RTVSPropertyOp4
 70
     1
102
RTVSPropertyOp5
 70
     1
102
RTVSPropertyOp6
 70
     1
102
RTVSPropertyOp7
 70
     1
102
RTVSPropertyOp8
 70
     1
102
RTVSPropertyOp9
 70
     1
102
RTVSPropertyOp10
 70
     1
102
RTVSPropertyOp11
 70
     1
102
RTVSPropertyOp12
 70
     1
102
RTVSPropertyOp13
 70
     1
102
RTVSPropertyOp14
 70
     1
102
RTVSPropertyOp15
 70
     1
102
RTVSPropertyOp16
 70
     1
102
RTVSPropertyOp17
 70
     1
102
RTVSPropertyOp18
 70
     1
102
RTVSPropertyOp19
 70
     1
102
RTVSPropertyOp20
 70
     1
102
RTVSPropertyOp21
 70
     1
102
RTVSPropertyOp22
 70
     1
102
RTVSPropertyOp23
 70
     1
102
RTVSPropertyOp24
 70
     1
102
RTVSPropertyOp25
 70
     1
102
RTVSPropertyOp26
 70
     1
102
RTVSPropertyOp27
 70
     1
  0
XRECORD
  5
4A8
102
{ACAD_REACTORS
330
4A7
102
}
330
4A7
100
AcDbXrecord
280
     1
102
RTVSPropertyOp0
 70
     1
102
RTVSPropertyOp1
 70
     1
102
RTVSPropertyOp2
 70
     1
102
RTVSPropertyOp3
 70
     1
102
RTVSPropertyOp4
 70
     1
102
RTVSPropertyOp5
 70
     1
102
RTVSPropertyOp6
 70
     1
102
RTVSPropertyOp7
 70
     1
102
RTVSPropertyOp8
 70
     1
102
RTVSPropertyOp9
 70
     1
102
RTVSPropertyOp10
 70
     1
102
RTVSPropertyOp11
 70
     1
102
RTVSPropertyOp12
 70
     1
102
RTVSPropertyOp13
 70
     1
102
RTVSPropertyOp14
 70
     1
102
RTVSPropertyOp15
 70
     1
102
RTVSPropertyOp16
 70
     1
102
RTVSPropertyOp17
 70
     1
102
RTVSPropertyOp18
 70
     1
102
RTVSPropertyOp19
 70
     1
102
RTVSPropertyOp20
 70
     1
102
RTVSPropertyOp21
 70
     1
102
RTVSPropertyOp22
 70
     1
102
RTVSPropertyOp23
 70
     1
102
RTVSPropertyOp24
 70
     1
102
RTVSPropertyOp25
 70
     1
102
RTVSPropertyOp26
 70
     1
102
RTVSPropertyOp27
 70
     1
  0
XRECORD
  5
4AA
102
{ACAD_REACTORS
330
4A9
102
}
330
4A9
100
AcDbXrecord
280
     1
102
RTVSPropertyOp0
 70
     1
102
RTVSPropertyOp1
 70
     1
102
RTVSPropertyOp2
 70
     1
102
RTVSPropertyOp3
 70
     1
102
RTVSPropertyOp4
 70
     1
102
RTVSPropertyOp5
 70
     1
102
RTVSPropertyOp6
 70
     1
102
RTVSPropertyOp7
 70
     1
102
RTVSPropertyOp8
 70
     1
102
RTVSPropertyOp9
 70
     1
102
RTVSPropertyOp10
 70
     1
102
RTVSPropertyOp11
 70
     1
102
RTVSPropertyOp12
 70
     1
102
RTVSPropertyOp13
 70
     1
102
RTVSPropertyOp14
 70
     1
102
RTVSPropertyOp15
 70
     1
102
RTVSPropertyOp16
 70
     1
102
RTVSPropertyOp17
 70
     1
102
RTVSPropertyOp18
 70
     1
102
RTVSPropertyOp19
 70
     1
102
RTVSPropertyOp20
 70
     1
102
RTVSPropertyOp21
 70
     1
102
RTVSPropertyOp22
 70
     1
102
RTVSPropertyOp23
 70
     1
102
RTVSPropertyOp24
 70
     1
102
RTVSPropertyOp25
 70
     1
102
RTVSPropertyOp26
 70
     1
102
RTVSPropertyOp27
 70
     1
  0
XRECORD
  5
4C4
102
{ACAD_REACTORS
330
4C3
102
}
330
4C3
100
AcDbXrecord
280
     1
102
RTVSPropertyOp0
 70
     0
102
RTVSPropertyOp1
 70
     0
102
RTVSPropertyOp2
 70
     0
102
RTVSPropertyOp3
 70
     0
102
RTVSPropertyOp4
 70
     0
102
RTVSPropertyOp5
 70
     0
102
RTVSPropertyOp6
 70
     0
102
RTVSPropertyOp7
 70
     0
102
RTVSPropertyOp8
 70
     0
102
RTVSPropertyOp9
 70
     0
102
RTVSPropertyOp10
 70
     0
102
RTVSPropertyOp11
 70
     0
102
RTVSPropertyOp12
 70
     0
102
RTVSPropertyOp13
 70
     0
102
RTVSPropertyOp14
 70
     2
102
RTVSPropertyOp15
 70
     0
102
RTVSPropertyOp16
 70
     0
102
RTVSPropertyOp17
 70
     0
102
RTVSPropertyOp18
 70
     0
102
RTVSPropertyOp19
 70
     0
102
RTVSPropertyOp20
 70
     0
102
RTVSPropertyOp21
 70
     0
102
RTVSPropertyOp22
 70
     0
102
RTVSPropertyOp23
 70
     0
102
RTVSPropertyOp24
 70
     0
102
RTVSPropertyOp25
 70
     0
102
RTVSPropertyOp26
 70
     0
102
RTVSPropertyOp27
 70
     0
  0
XRECORD
  5
4BE
102
{ACAD_REACTORS
330
4BD
102
}
330
4BD
100
AcDbXrecord
280
     1
102
RTVSPropertyOp0
 70
     1
102
RTVSPropertyOp1
 70
     1
102
RTVSPropertyOp2
 70
     1
102
RTVSPropertyOp3
 70
     1
102
RTVSPropertyOp4
 70
     1
102
RTVSPropertyOp5
 70
     1
102
RTVSPropertyOp6
 70
     1
102
RTVSPropertyOp7
 70
     1
102
RTVSPropertyOp8
 70
     1
102
RTVSPropertyOp9
 70
     1
102
RTVSPropertyOp10
 70
     1
102
RTVSPropertyOp11
 70
     1
102
RTVSPropertyOp12
 70
     1
102
RTVSPropertyOp13
 70
     1
102
RTVSPropertyOp14
 70
     1
102
RTVSPropertyOp15
 70
     1
102
RTVSPropertyOp16
 70
     1
102
RTVSPropertyOp17
 70
     1
102
RTVSPropertyOp18
 70
     1
102
RTVSPropertyOp19
 70
     1
102
RTVSPropertyOp20
 70
     1
102
RTVSPropertyOp21
 70
     1
102
RTVSPropertyOp22
 70
     1
102
RTVSPropertyOp23
 70
     1
102
RTVSPropertyOp24
 70
     1
102
RTVSPropertyOp25
 70
     1
102
RTVSPropertyOp26
 70
     1
102
RTVSPropertyOp27
 70
     1
  0
XRECORD
  5
4C6
102
{ACAD_REACTORS
330
4C5
102
}
330
4C5
100
AcDbXrecord
280
     1
102
RTVSPropertyOp0
 70
     0
102
RTVSPropertyOp1
 70
     0
102
RTVSPropertyOp2
 70
     0
102
RTVSPropertyOp3
 70
     0
102
RTVSPropertyOp4
 70
     0
102
RTVSPropertyOp5
 70
     0
102
RTVSPropertyOp6
 70
     0
102
RTVSPropertyOp7
 70
     0
102
RTVSPropertyOp8
 70
     0
102
RTVSPropertyOp9
 70
     0
102
RTVSPropertyOp10
 70
     0
102
RTVSPropertyOp11
 70
     0
102
RTVSPropertyOp12
 70
     0
102
RTVSPropertyOp13
 70
     0
102
RTVSPropertyOp14
 70
     2
102
RTVSPropertyOp15
 70
     0
102
RTVSPropertyOp16
 70
     0
102
RTVSPropertyOp17
 70
     0
102
RTVSPropertyOp18
 70
     0
102
RTVSPropertyOp19
 70
     0
102
RTVSPropertyOp20
 70
     0
102
RTVSPropertyOp21
 70
     0
102
RTVSPropertyOp22
 70
     0
102
RTVSPropertyOp23
 70
     0
102
RTVSPropertyOp24
 70
     0
102
RTVSPropertyOp25
 70
     0
102
RTVSPropertyOp26
 70
     0
102
RTVSPropertyOp27
 70
     0
  0
XRECORD
  5
4B6
102
{ACAD_REACTORS
330
4B5
102
}
330
4B5
100
AcDbXrecord
280
     1
102
RTVSPropertyOp0
 70
     1
102
RTVSPropertyOp1
 70
     1
102
RTVSPropertyOp2
 70
     1
102
RTVSPropertyOp3
 70
     1
102
RTVSPropertyOp4
 70
     1
102
RTVSPropertyOp5
 70
     1
102
RTVSPropertyOp6
 70
     1
102
RTVSPropertyOp7
 70
     1
102
RTVSPropertyOp8
 70
     1
102
RTVSPropertyOp9
 70
     1
102
RTVSPropertyOp10
 70
     1
102
RTVSPropertyOp11
 70
     1
102
RTVSPropertyOp12
 70
     1
102
RTVSPropertyOp13
 70
     1
102
RTVSPropertyOp14
 70
     1
102
RTVSPropertyOp15
 70
     1
102
RTVSPropertyOp16
 70
     1
102
RTVSPropertyOp17
 70
     1
102
RTVSPropertyOp18
 70
     1
102
RTVSPropertyOp19
 70
     1
102
RTVSPropertyOp20
 70
     1
102
RTVSPropertyOp21
 70
     1
102
RTVSPropertyOp22
 70
     1
102
RTVSPropertyOp23
 70
     1
102
RTVSPropertyOp24
 70
     1
102
RTVSPropertyOp25
 70
     1
102
RTVSPropertyOp26
 70
     1
102
RTVSPropertyOp27
 70
     1
  0
XRECORD
  5
4BC
102
{ACAD_REACTORS
330
4BB
102
}
330
4BB
100
AcDbXrecord
280
     1
102
RTVSPropertyOp0
 70
     1
102
RTVSPropertyOp1
 70
     1
102
RTVSPropertyOp2
 70
     1
102
RTVSPropertyOp3
 70
     1
102
RTVSPropertyOp4
 70
     1
102
RTVSPropertyOp5
 70
     1
102
RTVSPropertyOp6
 70
     1
102
RTVSPropertyOp7
 70
     1
102
RTVSPropertyOp8
 70
     1
102
RTVSPropertyOp9
 70
     1
102
RTVSPropertyOp10
 70
     1
102
RTVSPropertyOp11
 70
     1
102
RTVSPropertyOp12
 70
     1
102
RTVSPropertyOp13
 70
     1
102
RTVSPropertyOp14
 70
     1
102
RTVSPropertyOp15
 70
     1
102
RTVSPropertyOp16
 70
     1
102
RTVSPropertyOp17
 70
     1
102
RTVSPropertyOp18
 70
     1
102
RTVSPropertyOp19
 70
     1
102
RTVSPropertyOp20
 70
     1
102
RTVSPropertyOp21
 70
     1
102
RTVSPropertyOp22
 70
     1
102
RTVSPropertyOp23
 70
     1
102
RTVSPropertyOp24
 70
     1
102
RTVSPropertyOp25
 70
     1
102
RTVSPropertyOp26
 70
     1
102
RTVSPropertyOp27
 70
     1
  0
ENDSEC
  0
EOF
