  0
SECTION
  2
HEADER
  9
$ACADVER
  1
AC1015
  9
$ACADMAINTVER
 70
    20
  9
$DWGCODEPAGE
  3
ANSI_1252
  9
$INSBASE
 10
0.0
 20
0.0
 30
0.0
  9
$EXTMIN
 10
219.730320256689
 20
230.89375
 30
0.0
  9
$EXTMAX
 10
3281.21875
 20
933.7374999999999
 30
0.0
  9
$LIMMIN
 10
0.0
 20
0.0
  9
$LIMMAX
 10
12.0
 20
9.0
  9
$ORTHOMODE
 70
     1
  9
$REGENMODE
 70
     1
  9
$FILLMODE
 70
     1
  9
$QTEXTMODE
 70
     0
  9
$MIRRTEXT
 70
     1
  9
$LTSCALE
 40
1.0
  9
$ATTMODE
 70
     1
  9
$TEXTSIZE
 40
0.0
  9
$TRACEWID
 40
0.05
  9
$TEXTSTYLE
  7
STANDARD
  9
$CLAYER
  8
0
  9
$CELTYPE
  6
CONTINUOUS
  9
$CECOLOR
 62
   256
  9
$CELTSCALE
 40
1.0
  9
$DISPSILH
 70
     0
  9
$DIMSCALE
 40
1.0
  9
$DIMASZ
 40
0.18
  9
$DIMEXO
 40
0.0625
  9
$DIMDLI
 40
0.38
  9
$DIMRND
 40
0.0
  9
$DIMDLE
 40
0.0
  9
$DIMEXE
 40
0.18
  9
$DIMTP
 40
0.0
  9
$DIMTM
 40
0.0
  9
$DIMTXT
 40
0.18
  9
$DIMCEN
 40
0.09
  9
$DIMTSZ
 40
0.0
  9
$DIMTOL
 70
     0
  9
$DIMLIM
 70
     0
  9
$DIMTIH
 70
     1
  9
$DIMTOH
 70
     1
  9
$DIMSE1
 70
     0
  9
$DIMSE2
 70
     0
  9
$DIMTAD
 70
     0
  9
$DIMZIN
 70
     0
  9
$DIMBLK
  1

  9
$DIMASO
 70
     1
  9
$DIMSHO
 70
     1
  9
$DIMPOST
  1

  9
$DIMAPOST
  1

  9
$DIMALT
 70
     0
  9
$DIMALTD
 70
     2
  9
$DIMALTF
 40
25.4
  9
$DIMLFAC
 40
1.0
  9
$DIMTOFL
 70
     0
  9
$DIMTVP
 40
0.0
  9
$DIMTIX
 70
     0
  9
$DIMSOXD
 70
     0
  9
$DIMSAH
 70
     0
  9
$DIMBLK1
  1

  9
$DIMBLK2
  1

  9
$DIMSTYLE
  2
STANDARD
  9
$DIMCLRD
 70
     0
  9
$DIMCLRE
 70
     0
  9
$DIMCLRT
 70
     0
  9
$DIMTFAC
 40
1.0
  9
$DIMGAP
 40
0.09
  9
$DIMJUST
 70
     0
  9
$DIMSD1
 70
     0
  9
$DIMSD2
 70
     0
  9
$DIMTOLJ
 70
     1
  9
$DIMTZIN
 70
     0
  9
$DIMALTZ
 70
     0
  9
$DIMALTTZ
 70
     0
  9
$DIMUPT
 70
     0
  9
$DIMDEC
 70
     4
  9
$DIMTDEC
 70
     4
  9
$DIMALTU
 70
     2
  9
$DIMALTTD
 70
     2
  9
$DIMTXSTY
  7
STANDARD
  9
$DIMAUNIT
 70
     0
  9
$DIMADEC
 70
     0
  9
$DIMALTRND
 40
0.0
  9
$DIMAZIN
 70
     0
  9
$DIMDSEP
 70
    46
  9
$DIMATFIT
 70
     3
  9
$DIMFRAC
 70
     0
  9
$DIMLDRBLK
  1

  9
$DIMLUNIT
 70
     2
  9
$DIMLWD
 70
    -2
  9
$DIMLWE
 70
    -2
  9
$DIMTMOVE
 70
     0
  9
$LUNITS
 70
     2
  9
$LUPREC
 70
     4
  9
$SKETCHINC
 40
0.1
  9
$FILLETRAD
 40
0.0
  9
$AUNITS
 70
     0
  9
$AUPREC
 70
     0
  9
$MENU
  1
acad
  9
$ELEVATION
 40
0.0
  9
$PELEVATION
 40
0.0
  9
$THICKNESS
 40
0.0
  9
$LIMCHECK
 70
     0
  9
$CHAMFERA
 40
0.0
  9
$CHAMFERB
 40
0.0
  9
$CHAMFERC
 40
0.0
  9
$CHAMFERD
 40
0.0
  9
$SKPOLY
 70
     0
  9
$TDCREATE
 40
2453238.743125000
  9
$TDUCREATE
 40
2453238.659791667
  9
$TDUPDATE
 40
2456329.076081991
  9
$TDUUPDATE
 40
2456328.992748658
  9
$TDINDWG
 40
0.0130303588
  9
$TDUSRTIMER
 40
0.0130301273
  9
$USRTIMER
 70
     1
  9
$ANGBASE
 50
0.0
  9
$ANGDIR
 70
     0
  9
$PDMODE
 70
     0
  9
$PDSIZE
 40
0.0
  9
$PLINEWID
 40
0.0
  9
$SPLFRAME
 70
     0
  9
$SPLINETYPE
 70
     6
  9
$SPLINESEGS
 70
    10
  9
$HANDSEED
  5
5AE
  9
$SURFTAB1
 70
     6
  9
$SURFTAB2
 70
     6
  9
$SURFTYPE
 70
     6
  9
$SURFU
 70
     6
  9
$SURFV
 70
     6
  9
$UCSBASE
  2

  9
$UCSNAME
  2

  9
$UCSORG
 10
0.0
 20
0.0
 30
0.0
  9
$UCSXDIR
 10
1.0
 20
0.0
 30
0.0
  9
$UCSYDIR
 10
0.0
 20
1.0
 30
0.0
  9
$UCSORTHOREF
  2

  9
$UCSORTHOVIEW
 70
     0
  9
$UCSORGTOP
 10
0.0
 20
0.0
 30
0.0
  9
$UCSORGBOTTOM
 10
0.0
 20
0.0
 30
0.0
  9
$UCSORGLEFT
 10
0.0
 20
0.0
 30
0.0
  9
$UCSORGRIGHT
 10
0.0
 20
0.0
 30
0.0
  9
$UCSORGFRONT
 10
0.0
 20
0.0
 30
0.0
  9
$UCSORGBACK
 10
0.0
 20
0.0
 30
0.0
  9
$PUCSBASE
  2

  9
$PUCSNAME
  2

  9
$PUCSORG
 10
0.0
 20
0.0
 30
0.0
  9
$PUCSXDIR
 10
1.0
 20
0.0
 30
0.0
  9
$PUCSYDIR
 10
0.0
 20
1.0
 30
0.0
  9
$PUCSORTHOREF
  2

  9
$PUCSORTHOVIEW
 70
     0
  9
$PUCSORGTOP
 10
0.0
 20
0.0
 30
0.0
  9
$PUCSORGBOTTOM
 10
0.0
 20
0.0
 30
0.0
  9
$PUCSORGLEFT
 10
0.0
 20
0.0
 30
0.0
  9
$PUCSORGRIGHT
 10
0.0
 20
0.0
 30
0.0
  9
$PUCSORGFRONT
 10
0.0
 20
0.0
 30
0.0
  9
$PUCSORGBACK
 10
0.0
 20
0.0
 30
0.0
  9
$USERI1
 70
     0
  9
$USERI2
 70
     0
  9
$USERI3
 70
     0
  9
$USERI4
 70
     0
  9
$USERI5
 70
     0
  9
$USERR1
 40
0.0
  9
$USERR2
 40
0.0
  9
$USERR3
 40
0.0
  9
$USERR4
 40
0.0
  9
$USERR5
 40
0.0
  9
$WORLDVIEW
 70
     1
  9
$SHADEDGE
 70
     3
  9
$SHADEDIF
 70
    70
  9
$TILEMODE
 70
     1
  9
$MAXACTVP
 70
    16
  9
$PINSBASE
 10
0.0
 20
0.0
 30
0.0
  9
$PLIMCHECK
 70
     0
  9
$PEXTMIN
 10
-1.000000000000000E+20
 20
-1.000000000000000E+20
 30
-1.000000000000000E+20
  9
$PEXTMAX
 10
-1.000000000000000E+20
 20
-1.000000000000000E+20
 30
-1.000000000000000E+20
  9
$PLIMMIN
 10
0.0
 20
0.0
  9
$PLIMMAX
 10
12.0
 20
9.0
  9
$UNITMODE
 70
     0
  9
$VISRETAIN
 70
     0
  9
$PLINEGEN
 70
     1
  9
$PSLTSCALE
 70
     0
  9
$TREEDEPTH
 70
  3020
  9
$CMLSTYLE
  2
Standard
  9
$CMLJUST
 70
     0
  9
$CMLSCALE
 40
1.0
  9
$PROXYGRAPHICS
 70
     1
  9
$MEASUREMENT
 70
     0
  9
$CELWEIGHT
370
    -1
  9
$ENDCAPS
280
     0
  9
$JOINSTYLE
280
     0
  9
$LWDISPLAY
290
     0
  9
$INSUNITS
 70
     0
  9
$HYPERLINKBASE
  1

  9
$STYLESHEET
  1

  9
$XEDIT
290
     1
  9
$CEPSNTYPE
380
     0
  9
$PSTYLEMODE
290
     1
  9
$FINGERPRINTGUID
  2
{A8B80481-C334-42C7-9650-C5A715CF6189}
  9
$VERSIONGUID
  2
{428BED4D-C213-40CE-B532-39D4321147D3}
  9
$EXTNAMES
290
     1
  9
$PSVPSCALE
 40
0.0
  9
$OLESTARTUP
290
     0
  0
ENDSEC
  0
SECTION
  2
CLASSES
  0
CLASS
  1
ACDBDICTIONARYWDFLT
  2
AcDbDictionaryWithDefault
  3
ObjectDBX Classes
 90
        0
280
     0
281
     0
  0
CLASS
  1
ACDBPLACEHOLDER
  2
AcDbPlaceHolder
  3
ObjectDBX Classes
 90
        0
280
     0
281
     0
  0
CLASS
  1
LAYOUT
  2
AcDbLayout
  3
ObjectDBX Classes
 90
        0
280
     0
281
     0
  0
CLASS
  1
MATERIAL
  2
AcDbMaterial
  3
ObjectDBX Classes
 90
     1024
280
     0
281
     0
  0
CLASS
  1
VISUALSTYLE
  2
AcDbVisualStyle
  3
ObjectDBX Classes
 90
     4095
280
     0
281
     0
  0
CLASS
  1
TABLESTYLE
  2
AcDbTableStyle
  3
ObjectDBX Classes
 90
     4095
280
     0
281
     0
  0
CLASS
  1
SORTENTSTABLE
  2
AcDbSortentsTable
  3
ObjectDBX Classes
 90
        0
280
     0
281
     0
  0
CLASS
  1
DICTIONARYVAR
  2
AcDbDictionaryVar
  3
ObjectDBX Classes
 90
        0
280
     0
281
     0
  0
ENDSEC
  0
SECTION
  2
TABLES
  0
TABLE
  2
VPORT
  5
1BD
330
0
100
AcDbSymbolTable
 70
     1
  0
VPORT
  5
36E
330
1BD
100
AcDbSymbolTableRecord
100
AcDbViewportTableRecord
  2
*Active
 70
     0
 10
0.0
 20
0.0
 11
1.0
 21
1.0
 12
948.7076602454772
 22
226.8890395454377
 13
0.0
 23
0.0
 14
0.0
 24
0.0
 15
0.0
 25
0.0
 16
0.0
 26
0.0
 36
1.0
 17
777.791636
 27
605.871875
 37
0.0
 40
2384.051680973997
 41
1.967989756722151
 42
50.0
 43
0.025
 44
0.0
 50
0.0
 51
0.0
 71
     0
 72
   100
 73
     1
 74
     0
 75
     0
 76
     0
 77
     0
 78
     0
281
     0
 65
     0
110
0.0
120
0.0
130
0.0
111
1.0
121
0.0
131
0.0
112
0.0
122
1.0
132
0.0
 79
     0
146
0.0
  0
ENDTAB
  0
TABLE
  2
LTYPE
  5
1BA
330
0
100
AcDbSymbolTable
 70
     8
  0
LTYPE
  5
1C8
330
1BA
100
AcDbSymbolTableRecord
100
AcDbLinetypeTableRecord
  2
ByBlock
 70
     0
  3

 72
    65
 73
     0
 40
0.0
  0
LTYPE
  5
1C9
330
1BA
100
AcDbSymbolTableRecord
100
AcDbLinetypeTableRecord
  2
ByLayer
 70
     0
  3

 72
    65
 73
     0
 40
0.0
  0
LTYPE
  5
1CA
330
1BA
100
AcDbSymbolTableRecord
100
AcDbLinetypeTableRecord
  2
CONTINUOUS
 70
     0
  3
Solid line
 72
    65
 73
     0
 40
0.0
  0
LTYPE
  5
1D8
330
1BA
100
AcDbSymbolTableRecord
100
AcDbLinetypeTableRecord
  2
DOT
 70
     0
  3
. . . . . . . . . . . . . . . . . . . . . . . . . . . . . . . . .
 72
    65
 73
     2
 40
0.25
 49
0.0
 74
     0
 49
-0.25
 74
     0
  0
LTYPE
  5
1D9
330
1BA
100
AcDbSymbolTableRecord
100
AcDbLinetypeTableRecord
  2
HIDDEN
 70
     0
  3
__ __ __ __ __ __ __ __ __ __ __ __ __ __ __ __ __ __ __ __ __ 
 72
    65
 73
     2
 40
0.375
 49
0.25
 74
     0
 49
-0.125
 74
     0
  0
LTYPE
  5
1DA
330
1BA
100
AcDbSymbolTableRecord
100
AcDbLinetypeTableRecord
  2
DASHED
 70
     0
  3
__ __ __ __ __ __ __ __ __ __ __ __ __ __ __ __ __ __ __ __ __
 72
    65
 73
     2
 40
0.75
 49
0.5
 74
     0
 49
-0.25
 74
     0
  0
LTYPE
  5
1DB
330
1BA
100
AcDbSymbolTableRecord
100
AcDbLinetypeTableRecord
  2
DASHDOT
 70
     0
  3
__ . __ . __ . __ . __ . __ . __ . __ . __ . __ . __ . __ . _
 72
    65
 73
     4
 40
1.0
 49
0.5
 74
     0
 49
-0.25
 74
     0
 49
0.0
 74
     0
 49
-0.25
 74
     0
  0
LTYPE
  5
1DC
330
1BA
100
AcDbSymbolTableRecord
100
AcDbLinetypeTableRecord
  2
DIVIDE
 70
     0
  3
____ . . ____ . . ____ . . ____ . . ____ . . ____ . . ____ . .
 72
    65
 73
     6
 40
1.25
 49
0.5
 74
     0
 49
-0.25
 74
     0
 49
0.0
 74
     0
 49
-0.25
 74
     0
 49
0.0
 74
     0
 49
-0.25
 74
     0
  0
LTYPE
  5
1DD
330
1BA
100
AcDbSymbolTableRecord
100
AcDbLinetypeTableRecord
  2
CENTER
 70
     0
  3
____ _ ____ _ ____ _ ____ _ ____ _ ____ _ ____ _ ____ _ ____ _
 72
    65
 73
     4
 40
2.0
 49
1.25
 74
     0
 49
-0.25
 74
     0
 49
0.25
 74
     0
 49
-0.25
 74
     0
  0
ENDTAB
  0
TABLE
  2
LAYER
  5
1B7
330
0
100
AcDbSymbolTable
 70
     4
  0
LAYER
  5
1C5
330
1B7
100
AcDbSymbolTableRecord
100
AcDbLayerTableRecord
  2
0
 70
     0
 62
     7
  6
CONTINUOUS
370
    -3
390
1C4
  0
LAYER
  5
1DE
330
1B7
100
AcDbSymbolTableRecord
100
AcDbLayerTableRecord
  2
CONSTRUCTION_CLASS
 70
     0
 62
     7
  6
CONTINUOUS
370
    -3
390
1C4
  0
LAYER
  5
1DF
330
1B7
100
AcDbSymbolTableRecord
100
AcDbLayerTableRecord
  2
PATTERN_CLASS
 70
     0
 62
     7
  6
CONTINUOUS
370
    -3
390
1C4
  0
LAYER
  5
1E0
330
1B7
100
AcDbSymbolTableRecord
100
AcDbLayerTableRecord
  2
1
 70
     0
 62
     7
  6
CONTINUOUS
370
    -3
390
1C4
  0
ENDTAB
  0
TABLE
  2
STYLE
  5
1B8
330
0
100
AcDbSymbolTable
 70
     1
  0
STYLE
  5
1C6
330
1B8
100
AcDbSymbolTableRecord
100
AcDbTextStyleTableRecord
  2
STANDARD
 70
     0
 40
0.0
 41
1.0
 50
0.0
 71
     0
 42
0.0
  3
txt
  4

  0
ENDTAB
  0
TABLE
  2
VIEW
  5
1BB
330
0
100
AcDbSymbolTable
 70
     0
  0
ENDTAB
  0
TABLE
  2
UCS
  5
1BC
330
0
100
AcDbSymbolTable
 70
     0
  0
ENDTAB
  0
TABLE
  2
APPID
  5
1BE
330
0
100
AcDbSymbolTable
 70
     2
  0
APPID
  5
1C7
330
1BE
100
AcDbSymbolTableRecord
100
AcDbRegAppTableRecord
  2
ACAD
 70
     0
  0
APPID
  5
456
330
1BE
100
AcDbSymbolTableRecord
100
AcDbRegAppTableRecord
  2
ACAD_EXEMPT_FROM_CAD_STANDARDS
 70
     0
  0
ENDTAB
  0
TABLE
  2
DIMSTYLE
  5
1BF
330
0
100
AcDbSymbolTable
 70
     2
100
AcDbDimStyleTable
 71
     1
340
1E1
  0
DIMSTYLE
105
1E1
330
1BF
100
AcDbSymbolTableRecord
100
AcDbDimStyleTableRecord
  2
STANDARD
 70
     0
279
     2
340
1C6
  0
ENDTAB
  0
TABLE
  2
BLOCK_RECORD
  5
1B6
330
0
100
AcDbSymbolTable
 70
     2
  0
BLOCK_RECORD
  5
1D3
102
{ACAD_XDICTIONARY
360
3CC
102
}
330
1B6
100
AcDbSymbolTableRecord
100
AcDbBlockTableRecord
  2
*Model_Space
340
1D6
  0
BLOCK_RECORD
  5
1CF
330
1B6
100
AcDbSymbolTableRecord
100
AcDbBlockTableRecord
  2
*Paper_Space
340
1D2
  0
ENDTAB
  0
ENDSEC
  0
SECTION
  2
BLOCKS
  0
BLOCK
  5
1D4
330
1D3
100
AcDbEntity
  8
0
100
AcDbBlockBegin
  2
*Model_Space
 70
     0
 10
0.0
 20
0.0
 30
0.0
  3
*Model_Space
  1

  0
ENDBLK
  5
1D5
330
1D3
100
AcDbEntity
  8
0
100
AcDbBlockEnd
  0
BLOCK
  5
1D0
330
1CF
100
AcDbEntity
 67
     1
  8
0
100
AcDbBlockBegin
  2
*Paper_Space
 70
     0
 10
0.0
 20
0.0
 30
0.0
  3
*Paper_Space
  1

  0
ENDBLK
  5
1D1
330
1CF
100
AcDbEntity
 67
     1
  8
0
100
AcDbBlockEnd
  0
ENDSEC
  0
SECTION
  2
ENTITIES
  0
LINE
  5
1E3
330
1D3
100
AcDbEntity
  8
1
  6
Continuous
 62
     4
100
AcDbLine
 10
485.5874999999998
 20
667.2374999999998
 30
0.0
 11
1281.21875
 21
667.2374999999998
 31
0.0
  0
LINE
  5
1E4
330
1D3
100
AcDbEntity
  8
1
  6
Continuous
 62
     4
100
AcDbLine
 10
785.5874999999998
 20
367.2375
 30
0.0
 11
785.5874999999998
 21
802.2375
 31
0.0
  0
LINE
  5
217
330
1D3
100
AcDbEntity
  8
1
  6
Continuous
 62
     4
100
AcDbLine
 10
675.5874999999998
 20
387.2375
 30
0.0
 11
895.5874999999998
 21
377.2375
 31
0.0
  0
LINE
  5
218
330
1D3
100
AcDbEntity
  8
1
  6
Continuous
 62
     4
100
AcDbLine
 10
675.5874999999998
 20
407.2375
 30
0.0
 11
895.5874999999998
 21
397.2374999999999
 31
0.0
  0
LINE
  5
219
330
1D3
100
AcDbEntity
  8
1
  6
Continuous
 62
     4
100
AcDbLine
 10
675.5874999999998
 20
427.2375
 30
0.0
 11
895.5874999999998
 21
417.2375
 31
0.0
  0
LINE
  5
21A
330
1D3
100
AcDbEntity
  8
1
  6
Continuous
 62
     4
100
AcDbLine
 10
675.5874999999998
 20
447.2375
 30
0.0
 11
895.5874999999998
 21
437.2374999999998
 31
0.0
  0
LINE
  5
21B
330
1D3
100
AcDbEntity
  8
1
  6
Continuous
 62
     4
100
AcDbLine
 10
675.5874999999998
 20
467.2375
 30
0.0
 11
895.5874999999998
 21
457.2375
 31
0.0
  0
LINE
  5
21C
330
1D3
100
AcDbEntity
  8
1
  6
Continuous
 62
     4
100
AcDbLine
 10
675.5874999999998
 20
487.2374999999998
 30
0.0
 11
895.5874999999998
 21
477.2375
 31
0.0
  0
LINE
  5
21D
330
1D3
100
AcDbEntity
  8
1
  6
Continuous
 62
     4
100
AcDbLine
 10
675.5874999999998
 20
507.2375
 30
0.0
 11
895.5874999999998
 21
497.2375
 31
0.0
  0
LINE
  5
21E
330
1D3
100
AcDbEntity
  8
1
  6
Continuous
 62
     4
100
AcDbLine
 10
675.5874999999998
 20
527.2374999999998
 30
0.0
 11
895.5874999999998
 21
517.2374999999998
 31
0.0
  0
LINE
  5
261
330
1D3
100
AcDbEntity
  8
1
  6
Continuous
 62
     4
100
AcDbLine
 10
505.5874999999998
 20
557.2375
 30
0.0
 11
495.5874999999998
 21
777.2374999999999
 31
0.0
  0
LINE
  5
262
330
1D3
100
AcDbEntity
  8
1
  6
Continuous
 62
     4
100
AcDbLine
 10
525.5874999999998
 20
557.2375
 30
0.0
 11
515.5874999999999
 21
777.2374999999999
 31
0.0
  0
LINE
  5
263
330
1D3
100
AcDbEntity
  8
1
  6
Continuous
 62
     4
100
AcDbLine
 10
545.5874999999998
 20
557.2375
 30
0.0
 11
535.5874999999998
 21
777.2374999999999
 31
0.0
  0
LINE
  5
264
330
1D3
100
AcDbEntity
  8
1
  6
Continuous
 62
     4
100
AcDbLine
 10
565.5874999999999
 20
557.2375
 30
0.0
 11
555.5874999999998
 21
777.2374999999999
 31
0.0
  0
LINE
  5
265
330
1D3
100
AcDbEntity
  8
1
  6
Continuous
 62
     4
100
AcDbLine
 10
585.5874999999998
 20
557.2375
 30
0.0
 11
575.5874999999998
 21
777.2374999999999
 31
0.0
  0
LINE
  5
266
330
1D3
100
AcDbEntity
  8
1
  6
Continuous
 62
     4
100
AcDbLine
 10
605.5874999999998
 20
557.2375
 30
0.0
 11
595.5874999999998
 21
777.2374999999999
 31
0.0
  0
LINE
  5
267
330
1D3
100
AcDbEntity
  8
1
  6
Continuous
 62
     4
100
AcDbLine
 10
625.5874999999998
 20
557.2375
 30
0.0
 11
615.5874999999999
 21
777.2374999999999
 31
0.0
  0
LINE
  5
268
330
1D3
100
AcDbEntity
  8
1
  6
Continuous
 62
     4
100
AcDbLine
 10
645.5874999999998
 20
557.2375
 30
0.0
 11
635.5874999999998
 21
777.2374999999999
 31
0.0
  0
LINE
  5
2C6
330
1D3
100
AcDbEntity
  8
1
  6
Continuous
 62
     4
100
AcDbLine
 10
1261.21875
 20
557.2375
 30
0.0
 11
1271.21875
 21
777.2374999999999
 31
0.0
  0
LINE
  5
2C7
330
1D3
100
AcDbEntity
  8
1
  6
Continuous
 62
     4
100
AcDbLine
 10
1241.21875
 20
557.2375
 30
0.0
 11
1251.21875
 21
777.2374999999999
 31
0.0
  0
LINE
  5
2C8
330
1D3
100
AcDbEntity
  8
1
  6
Continuous
 62
     4
100
AcDbLine
 10
1221.21875
 20
557.2375
 30
0.0
 11
1231.21875
 21
777.2374999999999
 31
0.0
  0
LINE
  5
2C9
330
1D3
100
AcDbEntity
  8
1
  6
Continuous
 62
     4
100
AcDbLine
 10
1201.21875
 20
557.2375
 30
0.0
 11
1211.21875
 21
777.2374999999999
 31
0.0
  0
LINE
  5
2CA
330
1D3
100
AcDbEntity
  8
1
  6
Continuous
 62
     4
100
AcDbLine
 10
1181.218749999998
 20
557.2375
 30
0.0
 11
1191.218749999998
 21
777.2374999999999
 31
0.0
  0
LINE
  5
2CB
330
1D3
100
AcDbEntity
  8
1
  6
Continuous
 62
     4
100
AcDbLine
 10
1161.218749999999
 20
557.2375
 30
0.0
 11
1171.218749999999
 21
777.2374999999999
 31
0.0
  0
LINE
  5
2CC
330
1D3
100
AcDbEntity
  8
1
  6
Continuous
 62
     4
100
AcDbLine
 10
1141.218749999998
 20
557.2375
 30
0.0
 11
1151.218749999998
 21
777.2374999999999
 31
0.0
  0
LINE
  5
2CD
330
1D3
100
AcDbEntity
  8
1
  6
Continuous
 62
     4
100
AcDbLine
 10
1121.218749999999
 20
557.2375
 30
0.0
 11
1131.21875
 21
777.2374999999999
 31
0.0
  0
LINE
  5
39D
330
1D3
100
AcDbEntity
  8
0
  6
Continuous
 62
     4
100
AcDbLine
 10
485.5874999999998
 20
791.0475334861772
 30
0.0
 11
515.7774665138224
 21
821.2374999999997
 31
0.0
1001
ACAD
1010
0.0
1020
0.0
1030
0.0
  0
LINE
  5
39E
330
1D3
100
AcDbEntity
  8
0
  6
Continuous
 62
     4
100
AcDbLine
 10
485.5874999999998
 20
780.440931768379
 30
0.0
 11
526.3840682316201
 21
821.2374999999997
 31
0.0
1001
ACAD
1010
0.0
1020
0.0
1030
0.0
  0
LINE
  5
39F
330
1D3
100
AcDbEntity
  8
0
  6
Continuous
 62
     4
100
AcDbLine
 10
485.5874999999998
 20
769.8343300505808
 30
0.0
 11
536.9906699494188
 21
821.2374999999997
 31
0.0
1001
ACAD
1010
0.0
1020
0.0
1030
0.0
  0
LINE
  5
3A0
330
1D3
100
AcDbEntity
  8
0
  6
Continuous
 62
     4
100
AcDbLine
 10
485.5874999999998
 20
791.0475334861772
 30
0.0
 11
515.7774665138224
 21
821.2374999999997
 31
0.0
1001
ACAD
1010
0.0
1020
0.0
1030
0.0
  0
LINE
  5
3A1
330
1D3
100
AcDbEntity
  8
0
  6
Continuous
 62
     4
100
AcDbLine
 10
499.5923858336084
 20
773.232614166391
 30
0.0
 11
547.5972716672165
 21
821.2374999999999
 31
0.0
1001
ACAD
1010
0.0
1020
0.0
1030
0.0
  0
LINE
  5
3A2
330
1D3
100
AcDbEntity
  8
0
  6
Continuous
 62
     4
100
AcDbLine
 10
504.8956866925075
 20
767.9293133074921
 30
0.0
 11
558.2038733850152
 21
821.2374999999999
 31
0.0
1001
ACAD
1010
0.0
1020
0.0
1030
0.0
  0
LINE
  5
3A3
330
1D3
100
AcDbEntity
  8
0
  6
Continuous
 62
     4
100
AcDbLine
 10
520.1989875514065
 20
772.6260124485929
 30
0.0
 11
568.8104751028133
 21
821.2375000000001
 31
0.0
1001
ACAD
1010
0.0
1020
0.0
1030
0.0
  0
LINE
  5
3A4
330
1D3
100
AcDbEntity
  8
0
  6
Continuous
 62
     4
100
AcDbLine
 10
525.5022884103056
 20
767.3227115896938
 30
0.0
 11
579.417076820612
 21
821.2375000000001
 31
0.0
1001
ACAD
1010
0.0
1020
0.0
1030
0.0
  0
LINE
  5
3A5
330
1D3
100
AcDbEntity
  8
0
  6
Continuous
 62
     4
100
AcDbLine
 10
540.8055892692052
 20
772.0194107307947
 30
0.0
 11
590.0236785384097
 21
821.2375000000001
 31
0.0
1001
ACAD
1010
0.0
1020
0.0
1030
0.0
  0
LINE
  5
3A6
330
1D3
100
AcDbEntity
  8
0
  6
Continuous
 62
     4
100
AcDbLine
 10
556.1088901281038
 20
776.7161098718956
 30
0.0
 11
600.6302802562088
 21
821.2375000000001
 31
0.0
1001
ACAD
1010
0.0
1020
0.0
1030
0.0
  0
LINE
  5
3A7
330
1D3
100
AcDbEntity
  8
0
  6
Continuous
 62
     4
100
AcDbLine
 10
561.4121909870029
 20
771.4128090129963
 30
0.0
 11
611.2368819740066
 21
821.2375000000003
 31
0.0
1001
ACAD
1010
0.0
1020
0.0
1030
0.0
  0
LINE
  5
3A8
330
1D3
100
AcDbEntity
  8
0
  6
Continuous
 62
     4
100
AcDbLine
 10
576.7154918459025
 20
776.1095081540974
 30
0.0
 11
621.8434836918052
 21
821.2375000000003
 31
0.0
1001
ACAD
1010
0.0
1020
0.0
1030
0.0
  0
LINE
  5
3A9
330
1D3
100
AcDbEntity
  8
0
  6
Continuous
 62
     4
100
AcDbLine
 10
582.0187927048016
 20
770.8062072951983
 30
0.0
 11
632.4500854096029
 21
821.2375000000005
 31
0.0
1001
ACAD
1010
0.0
1020
0.0
1030
0.0
  0
LINE
  5
3AA
330
1D3
100
AcDbEntity
  8
0
  6
Continuous
 62
     4
100
AcDbLine
 10
597.3220935637002
 20
775.502906436299
 30
0.0
 11
643.0566871274016
 21
821.2375000000005
 31
0.0
1001
ACAD
1010
0.0
1020
0.0
1030
0.0
  0
LINE
  5
3AB
330
1D3
100
AcDbEntity
  8
0
  6
Continuous
 62
     4
100
AcDbLine
 10
602.6253944225998
 20
770.1996055773998
 30
0.0
 11
653.6632888451988
 21
821.2374999999999
 31
0.0
1001
ACAD
1010
0.0
1020
0.0
1030
0.0
  0
LINE
  5
3AC
330
1D3
100
AcDbEntity
  8
0
  6
Continuous
 62
     4
100
AcDbLine
 10
617.9286952814988
 20
774.896304718501
 30
0.0
 11
664.2698905629979
 21
821.2374999999999
 31
0.0
1001
ACAD
1010
0.0
1020
0.0
1030
0.0
  0
LINE
  5
3AD
330
1D3
100
AcDbEntity
  8
0
  6
Continuous
 62
     4
100
AcDbLine
 10
623.2319961403984
 20
769.5930038596018
 30
0.0
 11
669.9405480650568
 21
816.301555784261
 31
0.0
1001
ACAD
1010
0.0
1020
0.0
1030
0.0
  0
LINE
  5
3AE
330
1D3
100
AcDbEntity
  8
0
  6
Continuous
 62
     4
100
AcDbLine
 10
638.5352969992971
 20
774.2897030007026
 30
0.0
 11
674.6199311758503
 21
810.3743371772559
 31
0.0
1001
ACAD
1010
0.0
1020
0.0
1030
0.0
  0
LINE
  5
3AF
330
1D3
100
AcDbEntity
  8
0
  6
Continuous
 62
     4
100
AcDbLine
 10
643.8385978581966
 20
768.9864021418034
 30
0.0
 11
679.2993142866436
 21
804.4471185702512
 31
0.0
1001
ACAD
1010
0.0
1020
0.0
1030
0.0
  0
LINE
  5
3B0
330
1D3
100
AcDbEntity
  8
0
  6
Continuous
 62
     4
100
AcDbLine
 10
652.6962974341911
 20
767.2374999999998
 30
0.0
 11
687.6962974341907
 21
802.2374999999998
 31
0.0
1001
ACAD
1010
0.0
1020
0.0
1030
0.0
  0
LINE
  5
3B1
330
1D3
100
AcDbEntity
  8
0
  6
Continuous
 62
     4
100
AcDbLine
 10
663.3028991519893
 20
767.2374999999998
 30
0.0
 11
698.3028991519888
 21
802.2374999999998
 31
0.0
1001
ACAD
1010
0.0
1020
0.0
1030
0.0
  0
LINE
  5
3B2
330
1D3
100
AcDbEntity
  8
0
  6
Continuous
 62
     4
100
AcDbLine
 10
673.909500869787
 20
767.2374999999998
 30
0.0
 11
708.909500869787
 21
802.2374999999998
 31
0.0
1001
ACAD
1010
0.0
1020
0.0
1030
0.0
  0
LINE
  5
3B3
330
1D3
100
AcDbEntity
  8
0
  6
Continuous
 62
     4
100
AcDbLine
 10
684.5161025875861
 20
767.2374999999998
 30
0.0
 11
719.5161025875852
 21
802.2374999999998
 31
0.0
1001
ACAD
1010
0.0
1020
0.0
1030
0.0
  0
LINE
  5
3B4
330
1D3
100
AcDbEntity
  8
0
  6
Continuous
 62
     4
100
AcDbLine
 10
695.1227043053838
 20
767.2374999999998
 30
0.0
 11
730.1227043053838
 21
802.2374999999998
 31
0.0
1001
ACAD
1010
0.0
1020
0.0
1030
0.0
  0
LINE
  5
3B5
330
1D3
100
AcDbEntity
  8
0
  6
Continuous
 62
     4
100
AcDbLine
 10
705.7293060231825
 20
767.2374999999998
 30
0.0
 11
740.729306023182
 21
802.2375
 31
0.0
1001
ACAD
1010
0.0
1020
0.0
1030
0.0
  0
LINE
  5
3B6
330
1D3
100
AcDbEntity
  8
0
  6
Continuous
 62
     4
100
AcDbLine
 10
716.3359077409798
 20
767.2374999999998
 30
0.0
 11
751.3359077409802
 21
802.2375
 31
0.0
1001
ACAD
1010
0.0
1020
0.0
1030
0.0
  0
LINE
  5
3B7
330
1D3
100
AcDbEntity
  8
0
  6
Continuous
 62
     4
100
AcDbLine
 10
726.9425094587789
 20
767.2374999999998
 30
0.0
 11
761.9425094587784
 21
802.2375
 31
0.0
1001
ACAD
1010
0.0
1020
0.0
1030
0.0
  0
LINE
  5
3B8
330
1D3
100
AcDbEntity
  8
0
  6
Continuous
 62
     4
100
AcDbLine
 10
737.5491111765766
 20
767.2374999999998
 30
0.0
 11
772.549111176577
 21
802.2375
 31
0.0
1001
ACAD
1010
0.0
1020
0.0
1030
0.0
  0
LINE
  5
3B9
330
1D3
100
AcDbEntity
  8
0
  6
Continuous
 62
     4
100
AcDbLine
 10
748.1557128943753
 20
767.2374999999998
 30
0.0
 11
783.1557128943748
 21
802.2375
 31
0.0
1001
ACAD
1010
0.0
1020
0.0
1030
0.0
  0
LINE
  5
3BA
330
1D3
100
AcDbEntity
  8
0
  6
Continuous
 62
     4
100
AcDbLine
 10
758.7623146121729
 20
767.2374999999998
 30
0.0
 11
793.7623146121734
 21
802.2375
 31
0.0
1001
ACAD
1010
0.0
1020
0.0
1030
0.0
  0
LINE
  5
3BB
330
1D3
100
AcDbEntity
  8
0
  6
Continuous
 62
     4
100
AcDbLine
 10
769.3689163299721
 20
767.2374999999999
 30
0.0
 11
804.3689163299712
 21
802.2375
 31
0.0
1001
ACAD
1010
0.0
1020
0.0
1030
0.0
  0
LINE
  5
3BC
330
1D3
100
AcDbEntity
  8
0
  6
Continuous
 62
     4
100
AcDbLine
 10
779.9755180477697
 20
767.2374999999998
 30
0.0
 11
814.9755180477697
 21
802.2374999999998
 31
0.0
1001
ACAD
1010
0.0
1020
0.0
1030
0.0
  0
LINE
  5
3BD
330
1D3
100
AcDbEntity
  8
0
  6
Continuous
 62
     4
100
AcDbLine
 10
790.5821197655679
 20
767.2374999999998
 30
0.0
 11
825.5821197655679
 21
802.2375
 31
0.0
1001
ACAD
1010
0.0
1020
0.0
1030
0.0
  0
LINE
  5
3BE
330
1D3
100
AcDbEntity
  8
0
  6
Continuous
 62
     4
100
AcDbLine
 10
801.1887214833661
 20
767.2374999999998
 30
0.0
 11
836.1887214833661
 21
802.2375
 31
0.0
1001
ACAD
1010
0.0
1020
0.0
1030
0.0
  0
LINE
  5
3BF
330
1D3
100
AcDbEntity
  8
0
  6
Continuous
 62
     4
100
AcDbLine
 10
811.7953232011648
 20
767.2374999999998
 30
0.0
 11
846.7953232011643
 21
802.2375
 31
0.0
1001
ACAD
1010
0.0
1020
0.0
1030
0.0
  0
LINE
  5
3C0
330
1D3
100
AcDbEntity
  8
0
  6
Continuous
 62
     4
100
AcDbLine
 10
822.4019249189625
 20
767.2374999999998
 30
0.0
 11
857.4019249189625
 21
802.2375
 31
0.0
1001
ACAD
1010
0.0
1020
0.0
1030
0.0
  0
LINE
  5
3C1
330
1D3
100
AcDbEntity
  8
0
  6
Continuous
 62
     4
100
AcDbLine
 10
833.0085266367612
 20
767.2374999999998
 30
0.0
 11
868.0085266367607
 21
802.2375
 31
0.0
1001
ACAD
1010
0.0
1020
0.0
1030
0.0
  0
LINE
  5
3C2
330
1D3
100
AcDbEntity
  8
0
  6
Continuous
 62
     4
100
AcDbLine
 10
843.6151283545589
 20
767.2374999999998
 30
0.0
 11
878.6151283545589
 21
802.2375
 31
0.0
1001
ACAD
1010
0.0
1020
0.0
1030
0.0
  0
LINE
  5
3C3
330
1D3
100
AcDbEntity
  8
0
  6
Continuous
 62
     4
100
AcDbLine
 10
854.221730072358
 20
767.2374999999998
 30
0.0
 11
889.221730072357
 21
802.2375
 31
0.0
1001
ACAD
1010
0.0
1020
0.0
1030
0.0
  0
LINE
  5
3C4
330
1D3
100
AcDbEntity
  8
0
  6
Continuous
 62
     4
100
AcDbLine
 10
864.8283317901556
 20
767.2374999999998
 30
0.0
 11
918.8283317901571
 21
821.2375000000013
 31
0.0
1001
ACAD
1010
0.0
1020
0.0
1030
0.0
  0
LINE
  5
3C5
330
1D3
100
AcDbEntity
  8
0
  6
Continuous
 62
     4
100
AcDbLine
 10
875.4349335079538
 20
767.2374999999998
 30
0.0
 11
929.4349335079548
 21
821.2375000000013
 31
0.0
1001
ACAD
1010
0.0
1020
0.0
1030
0.0
  0
LINE
  5
3C6
330
1D3
100
AcDbEntity
  8
0
  6
Continuous
 62
     4
100
AcDbLine
 10
886.041535225752
 20
767.2374999999998
 30
0.0
 11
940.0415352257535
 21
821.2375000000013
 31
0.0
1001
ACAD
1010
0.0
1020
0.0
1030
0.0
  0
LINE
  5
3C7
330
1D3
100
AcDbEntity
  8
0
  6
Continuous
 62
     4
100
AcDbLine
 10
896.6481369435507
 20
767.2374999999998
 30
0.0
 11
950.6481369435517
 21
821.2375000000015
 31
0.0
1001
ACAD
1010
0.0
1020
0.0
1030
0.0
  0
LINE
  5
3C8
330
1D3
100
AcDbEntity
  8
0
  6
Continuous
 62
     4
100
AcDbLine
 10
907.2547386613489
 20
767.2374999999998
 30
0.0
 11
955.5874999999998
 21
815.5702613386509
 31
0.0
1001
ACAD
1010
0.0
1020
0.0
1030
0.0
  0
LINE
  5
3C9
330
1D3
100
AcDbEntity
  8
0
  6
Continuous
 62
     4
100
AcDbLine
 10
917.8613403791471
 20
767.2374999999998
 30
0.0
 11
955.5874999999998
 21
804.9636596208531
 31
0.0
1001
ACAD
1010
0.0
1020
0.0
1030
0.0
  0
LINE
  5
3CA
330
1D3
100
AcDbEntity
  8
0
  6
Continuous
 62
     4
100
AcDbLine
 10
928.4679420969448
 20
767.2374999999998
 30
0.0
 11
959.836692096945
 21
798.60625
 31
0.0
1001
ACAD
1010
0.0
1020
0.0
1030
0.0
  0
LINE
  5
3CE
330
1D3
100
AcDbEntity
  8
0
  6
Continuous
 62
     4
100
AcDbLine
 10
893.5419497286595
 20
806.5577196563024
 30
0.0
 11
908.2217300723581
 21
821.2375000000013
 31
0.0
1001
ACAD
1010
0.0
1020
0.0
1030
0.0
  0
LINE
  5
3D1
330
1D3
100
AcDbEntity
  8
0
  6
Continuous
 62
     4
100
AcDbLine
 10
939.0745438147435
 20
767.2374999999999
 30
0.0
 11
978.0153969073715
 21
806.1783530926282
 31
0.0
1001
ACAD
1010
0.0
1020
0.0
1030
0.0
  0
LINE
  5
3D2
330
1D3
100
AcDbEntity
  8
0
  6
Continuous
 62
     4
100
AcDbLine
 10
949.6811455325417
 20
767.2374999999999
 30
0.0
 11
983.3186977662705
 21
800.875052233729
 31
0.0
1001
ACAD
1010
0.0
1020
0.0
1030
0.0
  0
LINE
  5
3D3
330
1D3
100
AcDbEntity
  8
0
  6
Continuous
 62
     4
100
AcDbLine
 10
960.2877472503399
 20
767.2374999999999
 30
0.0
 11
998.6219986251697
 21
805.5717513748298
 31
0.0
1001
ACAD
1010
0.0
1020
0.0
1030
0.0
  0
LINE
  5
3D4
330
1D3
100
AcDbEntity
  8
0
  6
Continuous
 62
     4
100
AcDbLine
 10
970.8943489681381
 20
767.2374999999999
 30
0.0
 11
1003.925299484069
 21
800.268450515931
 31
0.0
1001
ACAD
1010
0.0
1020
0.0
1030
0.0
  0
LINE
  5
3D5
330
1D3
100
AcDbEntity
  8
0
  6
Continuous
 62
     4
100
AcDbLine
 10
981.5009506859363
 20
767.2374999999999
 30
0.0
 11
1019.228600342967
 21
804.9651496570323
 31
0.0
1001
ACAD
1010
0.0
1020
0.0
1030
0.0
  0
LINE
  5
3D6
330
1D3
100
AcDbEntity
  8
0
  6
Continuous
 62
     4
100
AcDbLine
 10
992.1075524037345
 20
767.2374999999999
 30
0.0
 11
1024.531901201867
 21
799.6618487981327
 31
0.0
1001
ACAD
1010
0.0
1020
0.0
1030
0.0
  0
LINE
  5
3D7
330
1D3
100
AcDbEntity
  8
0
  6
Continuous
 62
     4
100
AcDbLine
 10
1002.714154121532
 20
767.2374999999999
 30
0.0
 11
1039.835202060766
 21
804.3585479392335
 31
0.0
1001
ACAD
1010
0.0
1020
0.0
1030
0.0
  0
LINE
  5
3D8
330
1D3
100
AcDbEntity
  8
0
  6
Continuous
 62
     4
100
AcDbLine
 10
1013.32075583933
 20
767.2374999999999
 30
0.0
 11
1045.138502919665
 21
799.0552470803345
 31
0.0
1001
ACAD
1010
0.0
1020
0.0
1030
0.0
  0
LINE
  5
3D9
330
1D3
100
AcDbEntity
  8
0
  6
Continuous
 62
     4
100
AcDbLine
 10
1023.927357557129
 20
767.2374999999999
 30
0.0
 11
1060.441803778565
 21
803.7519462214353
 31
0.0
1001
ACAD
1010
0.0
1020
0.0
1030
0.0
  0
LINE
  5
3DA
330
1D3
100
AcDbEntity
  8
0
  6
Continuous
 62
     4
100
AcDbLine
 10
1034.533959274927
 20
767.2374999999998
 30
0.0
 11
1075.745104637464
 21
808.4486453625363
 31
0.0
1001
ACAD
1010
0.0
1020
0.0
1030
0.0
  0
LINE
  5
3DB
330
1D3
100
AcDbEntity
  8
0
  6
Continuous
 62
     4
100
AcDbLine
 10
1045.140560992725
 20
767.2374999999998
 30
0.0
 11
1081.048405496363
 21
803.1453445036369
 31
0.0
1001
ACAD
1010
0.0
1020
0.0
1030
0.0
  0
LINE
  5
3DC
330
1D3
100
AcDbEntity
  8
0
  6
Continuous
 62
     4
100
AcDbLine
 10
1055.747162710523
 20
767.2374999999998
 30
0.0
 11
1095.5875
 21
807.0778372894761
 31
0.0
1001
ACAD
1010
0.0
1020
0.0
1030
0.0
  0
LINE
  5
3DD
330
1D3
100
AcDbEntity
  8
0
  6
Continuous
 62
     4
100
AcDbLine
 10
1068.900456570124
 20
769.7841921418018
 30
0.0
 11
1095.5875
 21
796.471235571678
 31
0.0
1001
ACAD
1010
0.0
1020
0.0
1030
0.0
  0
LINE
  5
3DE
330
1D3
100
AcDbEntity
  8
0
  6
Continuous
 62
     4
100
AcDbLine
 10
1076.96036614612
 20
767.2374999999998
 30
0.0
 11
1095.597314186985
 21
785.8744480408658
 31
0.0
1001
ACAD
1010
0.0
1020
0.0
1030
0.0
  0
LINE
  5
3DF
330
1D3
100
AcDbEntity
  8
0
  6
Continuous
 62
     4
100
AcDbLine
 10
1087.566967863918
 20
767.2374999999997
 30
0.0
 11
1123.043749999999
 21
802.7142821360817
 31
0.0
1001
ACAD
1010
0.0
1020
0.0
1030
0.0
  0
LINE
  5
3E0
330
1D3
100
AcDbEntity
  8
0
  6
Continuous
 62
     4
100
AcDbLine
 10
1098.173569581716
 20
767.2374999999997
 30
0.0
 11
1124.173569581716
 21
793.2374999999998
 31
0.0
1001
ACAD
1010
0.0
1020
0.0
1030
0.0
  0
LINE
  5
3E1
330
1D3
100
AcDbEntity
  8
0
  6
Continuous
 62
     4
100
AcDbLine
 10
1108.780171299514
 20
767.2374999999997
 30
0.0
 11
1134.780171299515
 21
793.2374999999999
 31
0.0
1001
ACAD
1010
0.0
1020
0.0
1030
0.0
  0
LINE
  5
3E2
330
1D3
100
AcDbEntity
  8
0
  6
Continuous
 62
     4
100
AcDbLine
 10
1119.386773017312
 20
767.2374999999998
 30
0.0
 11
1141.04375
 21
788.8944769826869
 31
0.0
1001
ACAD
1010
0.0
1020
0.0
1030
0.0
  0
LINE
  5
3E3
330
1D3
100
AcDbEntity
  8
0
  6
Continuous
 62
     4
100
AcDbLine
 10
1101.218749999998
 20
791.4958838538786
 30
0.0
 11
1113.59161614612
 21
803.8687499999999
 31
0.0
1001
ACAD
1010
0.0
1020
0.0
1030
0.0
  0
LINE
  5
3E4
330
1D3
100
AcDbEntity
  8
0
  6
Continuous
 62
     4
100
AcDbLine
 10
1135.606062367555
 20
772.8501876324441
 30
0.0
 11
1148.624624735111
 21
785.8687500000001
 31
0.0
1001
ACAD
1010
0.0
1020
0.0
1030
0.0
  0
LINE
  5
3E5
330
1D3
100
AcDbEntity
  8
0
  6
Continuous
 62
     4
100
AcDbLine
 10
1140.909363226454
 20
767.5468867735447
 30
0.0
 11
1159.231226452909
 21
785.8687500000001
 31
0.0
1001
ACAD
1010
0.0
1020
0.0
1030
0.0
  0
LINE
  5
3E6
330
1D3
100
AcDbEntity
  8
0
  6
Continuous
 62
     4
100
AcDbLine
 10
1156.212664085353
 20
772.2435859146457
 30
0.0
 11
1169.837828170707
 21
785.8687500000001
 31
0.0
1001
ACAD
1010
0.0
1020
0.0
1030
0.0
  0
LINE
  5
3E7
330
1D3
100
AcDbEntity
  8
0
  6
Continuous
 62
     4
100
AcDbLine
 10
1171.515964944252
 20
776.940285055747
 30
0.0
 11
1180.444429888505
 21
785.86875
 31
0.0
1001
ACAD
1010
0.0
1020
0.0
1030
0.0
  0
LINE
  5
3E8
330
1D3
100
AcDbEntity
  8
0
  6
Continuous
 62
     4
100
AcDbLine
 10
1176.819265803151
 20
771.636984196848
 30
0.0
 11
1191.051031606303
 21
785.86875
 31
0.0
1001
ACAD
1010
0.0
1020
0.0
1030
0.0
  0
LINE
  5
3E9
330
1D3
100
AcDbEntity
  8
0
  6
Continuous
 62
     4
100
AcDbLine
 10
1192.12256666205
 20
776.3336833379484
 30
0.0
 11
1201.657633324101
 21
785.86875
 31
0.0
1001
ACAD
1010
0.0
1020
0.0
1030
0.0
  0
LINE
  5
3EA
330
1D3
100
AcDbEntity
  8
0
  6
Continuous
 62
     4
100
AcDbLine
 10
1197.425867520949
 20
771.0303824790497
 30
0.0
 11
1212.264235041899
 21
785.8687499999998
 31
0.0
1001
ACAD
1010
0.0
1020
0.0
1030
0.0
  0
LINE
  5
3EB
330
1D3
100
AcDbEntity
  8
0
  6
Continuous
 62
     4
100
AcDbLine
 10
1212.729168379849
 20
775.7270816201512
 30
0.0
 11
1222.870836759697
 21
785.8687499999998
 31
0.0
1001
ACAD
1010
0.0
1020
0.0
1030
0.0
  0
LINE
  5
3EC
330
1D3
100
AcDbEntity
  8
0
  6
Continuous
 62
     4
100
AcDbLine
 10
1218.032469238748
 20
770.4237807612522
 30
0.0
 11
1233.477438477495
 21
785.8687499999998
 31
0.0
1001
ACAD
1010
0.0
1020
0.0
1030
0.0
  0
LINE
  5
3ED
330
1D3
100
AcDbEntity
  8
0
  6
Continuous
 62
     4
100
AcDbLine
 10
1233.335770097647
 20
775.1204799023533
 30
0.0
 11
1244.084040195293
 21
785.8687499999997
 31
0.0
1001
ACAD
1010
0.0
1020
0.0
1030
0.0
  0
LINE
  5
3EE
330
1D3
100
AcDbEntity
  8
0
  6
Continuous
 62
     4
100
AcDbLine
 10
1238.639070956545
 20
769.8171790434543
 30
0.0
 11
1254.690641913091
 21
785.86875
 31
0.0
1001
ACAD
1010
0.0
1020
0.0
1030
0.0
  0
LINE
  5
3EF
330
1D3
100
AcDbEntity
  8
0
  6
Continuous
 62
     4
100
AcDbLine
 10
1253.942371815445
 20
774.5138781845553
 30
0.0
 11
1265.297243630889
 21
785.86875
 31
0.0
1001
ACAD
1010
0.0
1020
0.0
1030
0.0
  0
LINE
  5
3F0
330
1D3
100
AcDbEntity
  8
0
  6
Continuous
 62
     4
100
AcDbLine
 10
1259.245672674343
 20
769.2105773256562
 30
0.0
 11
1274.245672674343
 21
784.2105773256562
 31
0.0
1001
ACAD
1010
0.0
1020
0.0
1030
0.0
  0
LINE
  5
3F1
330
1D3
100
AcDbEntity
  8
0
  6
Continuous
 62
     4
100
AcDbLine
 10
1274.548973533242
 20
773.9072764667571
 30
0.0
 11
1279.548973533242
 21
778.9072764667571
 31
0.0
1001
ACAD
1010
0.0
1020
0.0
1030
0.0
  0
LINE
  5
3F2
330
1D3
100
AcDbEntity
  8
0
  6
Continuous
 62
     4
100
AcDbLine
 10
485.5874999999998
 20
547.0475334861773
 30
0.0
 11
500.6824832569111
 21
562.1425167430886
 31
0.0
1001
ACAD
1010
0.0
1020
0.0
1030
0.0
  0
LINE
  5
3F3
330
1D3
100
AcDbEntity
  8
0
  6
Continuous
 62
     4
100
AcDbLine
 10
485.9857841158102
 20
536.8392158841894
 30
0.0
 11
515.9857841158102
 21
566.8392158841897
 31
0.0
1001
ACAD
1010
0.0
1020
0.0
1030
0.0
  0
LINE
  5
3F4
330
1D3
100
AcDbEntity
  8
0
  6
Continuous
 62
     4
100
AcDbLine
 10
485.5874999999998
 20
547.0475334861772
 30
0.0
 11
500.6824832569111
 21
562.1425167430886
 31
0.0
1001
ACAD
1010
0.0
1020
0.0
1030
0.0
  0
LINE
  5
3F5
330
1D3
100
AcDbEntity
  8
0
  6
Continuous
 62
     4
100
AcDbLine
 10
491.2890849747093
 20
531.5359150252903
 30
0.0
 11
521.2890849747093
 21
561.5359150252906
 31
0.0
1001
ACAD
1010
0.0
1020
0.0
1030
0.0
  0
LINE
  5
3F6
330
1D3
100
AcDbEntity
  8
0
  6
Continuous
 62
     4
100
AcDbLine
 10
496.5923858336084
 20
526.2326141663912
 30
0.0
 11
536.5923858336079
 21
566.2326141663917
 31
0.0
1001
ACAD
1010
0.0
1020
0.0
1030
0.0
  0
LINE
  5
3F7
330
1D3
100
AcDbEntity
  8
0
  6
Continuous
 62
     4
100
AcDbLine
 10
501.8956866925075
 20
520.9293133074921
 30
0.0
 11
541.895686692507
 21
560.9293133074926
 31
0.0
1001
ACAD
1010
0.0
1020
0.0
1030
0.0
  0
LINE
  5
3F8
330
1D3
100
AcDbEntity
  8
0
  6
Continuous
 62
     4
100
AcDbLine
 10
508.8104751028133
 20
517.2374999999998
 30
0.0
 11
557.1989875514061
 21
565.6260124485937
 31
0.0
1001
ACAD
1010
0.0
1020
0.0
1030
0.0
  0
LINE
  5
3F9
330
1D3
100
AcDbEntity
  8
0
  6
Continuous
 62
     4
100
AcDbLine
 10
519.4170768206115
 20
517.2374999999998
 30
0.0
 11
562.5022884103052
 21
560.3227115896945
 31
0.0
1001
ACAD
1010
0.0
1020
0.0
1030
0.0
  0
LINE
  5
3FA
330
1D3
100
AcDbEntity
  8
0
  6
Continuous
 62
     4
100
AcDbLine
 10
530.0236785384097
 20
517.2374999999998
 30
0.0
 11
577.8055892692038
 21
565.0194107307954
 31
0.0
1001
ACAD
1010
0.0
1020
0.0
1030
0.0
  0
LINE
  5
3FB
330
1D3
100
AcDbEntity
  8
0
  6
Continuous
 62
     4
100
AcDbLine
 10
540.6302802562074
 20
517.2374999999999
 30
0.0
 11
583.1088901281034
 21
559.7161098718962
 31
0.0
1001
ACAD
1010
0.0
1020
0.0
1030
0.0
  0
LINE
  5
3FC
330
1D3
100
AcDbEntity
  8
0
  6
Continuous
 62
     4
100
AcDbLine
 10
551.2368819740056
 20
517.2374999999998
 30
0.0
 11
598.4121909870025
 21
564.4128090129973
 31
0.0
1001
ACAD
1010
0.0
1020
0.0
1030
0.0
  0
LINE
  5
3FD
330
1D3
100
AcDbEntity
  8
0
  6
Continuous
 62
     4
100
AcDbLine
 10
561.8434836918038
 20
517.2374999999998
 30
0.0
 11
603.715491845902
 21
559.1095081540978
 31
0.0
1001
ACAD
1010
0.0
1020
0.0
1030
0.0
  0
LINE
  5
3FE
330
1D3
100
AcDbEntity
  8
0
  6
Continuous
 62
     4
100
AcDbLine
 10
572.450085409602
 20
517.2374999999998
 30
0.0
 11
619.0187927048011
 21
563.8062072951988
 31
0.0
1001
ACAD
1010
0.0
1020
0.0
1030
0.0
  0
LINE
  5
3FF
330
1D3
100
AcDbEntity
  8
0
  6
Continuous
 62
     4
100
AcDbLine
 10
583.0566871274002
 20
517.2374999999998
 30
0.0
 11
624.3220935637002
 21
558.5029064362998
 31
0.0
1001
ACAD
1010
0.0
1020
0.0
1030
0.0
  0
LINE
  5
400
330
1D3
100
AcDbEntity
  8
0
  6
Continuous
 62
     4
100
AcDbLine
 10
593.6632888451984
 20
517.2374999999998
 30
0.0
 11
639.6253944225994
 21
563.1996055774005
 31
0.0
1001
ACAD
1010
0.0
1020
0.0
1030
0.0
  0
LINE
  5
401
330
1D3
100
AcDbEntity
  8
0
  6
Continuous
 62
     4
100
AcDbLine
 10
604.2698905629966
 20
517.2374999999998
 30
0.0
 11
644.9286952814984
 21
557.8963047185014
 31
0.0
1001
ACAD
1010
0.0
1020
0.0
1030
0.0
  0
LINE
  5
402
330
1D3
100
AcDbEntity
  8
0
  6
Continuous
 62
     4
100
AcDbLine
 10
614.8764922807948
 20
517.2374999999998
 30
0.0
 11
664.8764922807952
 21
567.2374999999999
 31
0.0
1001
ACAD
1010
0.0
1020
0.0
1030
0.0
  0
LINE
  5
403
330
1D3
100
AcDbEntity
  8
0
  6
Continuous
 62
     4
100
AcDbLine
 10
620.5352969992966
 20
512.2897030007031
 30
0.0
 11
675.4830939985924
 21
567.2374999999998
 31
0.0
1001
ACAD
1010
0.0
1020
0.0
1030
0.0
  0
LINE
  5
404
330
1D3
100
AcDbEntity
  8
0
  6
Continuous
 62
     4
100
AcDbLine
 10
625.8385978581957
 20
506.9864021418042
 30
0.0
 11
685.5874999999998
 21
566.7353042836083
 31
0.0
1001
ACAD
1010
0.0
1020
0.0
1030
0.0
  0
LINE
  5
405
330
1D3
100
AcDbEntity
  8
0
  6
Continuous
 62
     4
100
AcDbLine
 10
631.1418987170948
 20
501.6831012829051
 30
0.0
 11
685.5874999999998
 21
556.1287025658101
 31
0.0
1001
ACAD
1010
0.0
1020
0.0
1030
0.0
  0
LINE
  5
406
330
1D3
100
AcDbEntity
  8
0
  6
Continuous
 62
     4
100
AcDbLine
 10
635.5874999999998
 20
495.5221008480121
 30
0.0
 11
685.5874999999998
 21
545.5221008480122
 31
0.0
1001
ACAD
1010
0.0
1020
0.0
1030
0.0
  0
LINE
  5
407
330
1D3
100
AcDbEntity
  8
0
  6
Continuous
 62
     4
100
AcDbLine
 10
635.5874999999998
 20
484.9154991302138
 30
0.0
 11
676.7485004348929
 21
526.0764995651068
 31
0.0
1001
ACAD
1010
0.0
1020
0.0
1030
0.0
  0
LINE
  5
408
330
1D3
100
AcDbEntity
  8
0
  6
Continuous
 62
     4
100
AcDbLine
 10
635.5874999999998
 20
474.3088974124156
 30
0.0
 11
682.051801293792
 21
520.7731987062078
 31
0.0
1001
ACAD
1010
0.0
1020
0.0
1030
0.0
  0
LINE
  5
409
330
1D3
100
AcDbEntity
  8
0
  6
Continuous
 62
     4
100
AcDbLine
 10
635.5874999999998
 20
463.7022956946174
 30
0.0
 11
677.3551021526912
 21
505.4698978473087
 31
0.0
1001
ACAD
1010
0.0
1020
0.0
1030
0.0
  0
LINE
  5
40A
330
1D3
100
AcDbEntity
  8
0
  6
Continuous
 62
     4
100
AcDbLine
 10
635.5874999999998
 20
453.0956939768192
 30
0.0
 11
682.6584030115903
 21
500.1665969884099
 31
0.0
1001
ACAD
1010
0.0
1020
0.0
1030
0.0
  0
LINE
  5
40B
330
1D3
100
AcDbEntity
  8
0
  6
Continuous
 62
     4
100
AcDbLine
 10
635.5874999999998
 20
442.4890922590215
 30
0.0
 11
677.9617038704893
 21
484.8632961295104
 31
0.0
1001
ACAD
1010
0.0
1020
0.0
1030
0.0
  0
LINE
  5
40C
330
1D3
100
AcDbEntity
  8
0
  6
Continuous
 62
     4
100
AcDbLine
 10
635.5874999999998
 20
431.8824905412228
 30
0.0
 11
683.2650047293884
 21
479.5599952706115
 31
0.0
1001
ACAD
1010
0.0
1020
0.0
1030
0.0
  0
LINE
  5
40D
330
1D3
100
AcDbEntity
  8
0
  6
Continuous
 62
     4
100
AcDbLine
 10
677.8085443102297
 20
527.136543440444
 30
0.0
 11
685.5874999999998
 21
534.9154991302139
 31
0.0
1001
ACAD
1010
0.0
1020
0.0
1030
0.0
  0
LINE
  5
40E
330
1D3
100
AcDbEntity
  8
0
  6
Continuous
 62
     4
100
AcDbLine
 10
635.5874999999998
 20
421.2758888234246
 30
0.0
 11
678.5683055882875
 21
464.2566944117124
 31
0.0
1001
ACAD
1010
0.0
1020
0.0
1030
0.0
  0
LINE
  5
40F
330
1D3
100
AcDbEntity
  8
0
  6
Continuous
 62
     4
100
AcDbLine
 10
635.5874999999998
 20
410.6692871056264
 30
0.0
 11
683.8716064471866
 21
458.9533935528132
 31
0.0
1001
ACAD
1010
0.0
1020
0.0
1030
0.0
  0
LINE
  5
410
330
1D3
100
AcDbEntity
  8
0
  6
Continuous
 62
     4
100
AcDbLine
 10
635.5874999999998
 20
400.0626853878282
 30
0.0
 11
679.1749073060857
 21
443.6500926939141
 31
0.0
1001
ACAD
1010
0.0
1020
0.0
1030
0.0
  0
LINE
  5
411
330
1D3
100
AcDbEntity
  8
0
  6
Continuous
 62
     4
100
AcDbLine
 10
635.5874999999998
 20
389.45608367003
 30
0.0
 11
684.4782081649848
 21
438.346791835015
 31
0.0
1001
ACAD
1010
0.0
1020
0.0
1030
0.0
  0
LINE
  5
412
330
1D3
100
AcDbEntity
  8
0
  6
Continuous
 62
     4
100
AcDbLine
 10
639.7815090238839
 20
383.0434909761158
 30
0.0
 11
679.7815090238839
 21
423.0434909761157
 31
0.0
1001
ACAD
1010
0.0
1020
0.0
1030
0.0
  0
LINE
  5
413
330
1D3
100
AcDbEntity
  8
0
  6
Continuous
 62
     4
100
AcDbLine
 10
645.084809882783
 20
377.7401901172167
 30
0.0
 11
685.084809882783
 21
417.7401901172167
 31
0.0
1001
ACAD
1010
0.0
1020
0.0
1030
0.0
  0
LINE
  5
414
330
1D3
100
AcDbEntity
  8
0
  6
Continuous
 62
     4
100
AcDbLine
 10
650.3881107416821
 20
372.4368892583177
 30
0.0
 11
680.388110741682
 21
402.4368892583176
 31
0.0
1001
ACAD
1010
0.0
1020
0.0
1030
0.0
  0
LINE
  5
415
330
1D3
100
AcDbEntity
  8
0
  6
Continuous
 62
     4
100
AcDbLine
 10
656.8007034355962
 20
368.2428802344337
 30
0.0
 11
685.7854268582498
 21
397.2276036570873
 31
0.0
1001
ACAD
1010
0.0
1020
0.0
1030
0.0
  0
LINE
  5
416
330
1D3
100
AcDbEntity
  8
0
  6
Continuous
 62
     4
100
AcDbLine
 10
666.4019249189607
 20
367.2375
 30
0.0
 11
680.9947124594803
 21
381.8302875405196
 31
0.0
1001
ACAD
1010
0.0
1020
0.0
1030
0.0
  0
LINE
  5
417
330
1D3
100
AcDbEntity
  8
0
  6
Continuous
 62
     4
100
AcDbLine
 10
885.5874999999993
 20
546.4409317683787
 30
0.0
 11
906.3840682316202
 21
567.2374999999998
 31
0.0
1001
ACAD
1010
0.0
1020
0.0
1030
0.0
  0
LINE
  5
418
330
1D3
100
AcDbEntity
  8
0
  6
Continuous
 62
     4
100
AcDbLine
 10
885.5874999999993
 20
557.0475334861769
 30
0.0
 11
895.7774665138224
 21
567.2374999999999
 31
0.0
1001
ACAD
1010
0.0
1020
0.0
1030
0.0
  0
LINE
  5
41B
330
1D3
100
AcDbEntity
  8
0
  6
Continuous
 62
     4
100
AcDbLine
 10
885.5874999999999
 20
535.8343300505806
 30
0.0
 11
916.9906699494188
 21
567.2374999999999
 31
0.0
1001
ACAD
1010
0.0
1020
0.0
1030
0.0
  0
LINE
  5
41C
330
1D3
100
AcDbEntity
  8
0
  6
Continuous
 62
     4
100
AcDbLine
 10
886.5923858336085
 20
526.2326141663909
 30
0.0
 11
927.5972716672166
 21
567.2374999999999
 31
0.0
1001
ACAD
1010
0.0
1020
0.0
1030
0.0
  0
LINE
  5
41D
330
1D3
100
AcDbEntity
  8
0
  6
Continuous
 62
     4
100
AcDbLine
 10
891.8956866925075
 20
520.929313307492
 30
0.0
 11
938.2038733850148
 21
567.2374999999999
 31
0.0
1001
ACAD
1010
0.0
1020
0.0
1030
0.0
  0
LINE
  5
41E
330
1D3
100
AcDbEntity
  8
0
  6
Continuous
 62
     4
100
AcDbLine
 10
887.1989875514065
 20
505.6260124485929
 30
0.0
 11
948.810475102813
 21
567.2374999999998
 31
0.0
1001
ACAD
1010
0.0
1020
0.0
1030
0.0
  0
LINE
  5
41F
330
1D3
100
AcDbEntity
  8
0
  6
Continuous
 62
     4
100
AcDbLine
 10
892.5022884103057
 20
500.3227115896939
 30
0.0
 11
959.4170768206106
 21
567.2374999999998
 31
0.0
1001
ACAD
1010
0.0
1020
0.0
1030
0.0
  0
LINE
  5
420
330
1D3
100
AcDbEntity
  8
0
  6
Continuous
 62
     4
100
AcDbLine
 10
887.8055892692048
 20
485.0194107307947
 30
0.0
 11
970.0236785384088
 21
567.2374999999998
 31
0.0
1001
ACAD
1010
0.0
1020
0.0
1030
0.0
  0
LINE
  5
421
330
1D3
100
AcDbEntity
  8
0
  6
Continuous
 62
     4
100
AcDbLine
 10
893.1088901281043
 20
479.7161098718957
 30
0.0
 11
980.630280256207
 21
567.2374999999998
 31
0.0
1001
ACAD
1010
0.0
1020
0.0
1030
0.0
  0
LINE
  5
422
330
1D3
100
AcDbEntity
  8
0
  6
Continuous
 62
     4
100
AcDbLine
 10
888.412190987003
 20
464.4128090129964
 30
0.0
 11
955.5874999999998
 21
531.5881180259935
 31
0.0
1001
ACAD
1010
0.0
1020
0.0
1030
0.0
  0
LINE
  5
423
330
1D3
100
AcDbEntity
  8
0
  6
Continuous
 62
     4
100
AcDbLine
 10
893.715491845902
 20
459.1095081540975
 30
0.0
 11
955.5874999999998
 21
520.9815163081957
 31
0.0
1001
ACAD
1010
0.0
1020
0.0
1030
0.0
  0
LINE
  5
424
330
1D3
100
AcDbEntity
  8
0
  6
Continuous
 62
     4
100
AcDbLine
 10
968.0311168459018
 20
533.4251331540979
 30
0.0
 11
1001.843483691803
 21
567.2374999999998
 31
0.0
1001
ACAD
1010
0.0
1020
0.0
1030
0.0
  0
LINE
  5
425
330
1D3
100
AcDbEntity
  8
0
  6
Continuous
 62
     4
100
AcDbLine
 10
959.8681319740064
 20
535.8687500000001
 30
0.0
 11
991.2368819740056
 21
567.2374999999998
 31
0.0
1001
ACAD
1010
0.0
1020
0.0
1030
0.0
  0
LINE
  5
426
330
1D3
100
AcDbEntity
  8
0
  6
Continuous
 62
     4
100
AcDbLine
 10
889.0187927048012
 20
443.8062072951983
 30
0.0
 11
935.5874999999999
 21
490.3749145903973
 31
0.0
1001
ACAD
1010
0.0
1020
0.0
1030
0.0
  0
LINE
  5
427
330
1D3
100
AcDbEntity
  8
0
  6
Continuous
 62
     4
100
AcDbLine
 10
894.3220935637002
 20
438.5029064362991
 30
0.0
 11
935.5874999999999
 21
479.768312872599
 31
0.0
1001
ACAD
1010
0.0
1020
0.0
1030
0.0
  0
LINE
  5
428
330
1D3
100
AcDbEntity
  8
0
  6
Continuous
 62
     4
100
AcDbLine
 10
889.6253944225993
 20
423.1996055774002
 30
0.0
 11
935.5874999999999
 21
469.1617111548008
 31
0.0
1001
ACAD
1010
0.0
1020
0.0
1030
0.0
  0
LINE
  5
429
330
1D3
100
AcDbEntity
  8
0
  6
Continuous
 62
     4
100
AcDbLine
 10
894.9286952814984
 20
417.896304718501
 30
0.0
 11
935.5874999999999
 21
458.5551094370027
 31
0.0
1001
ACAD
1010
0.0
1020
0.0
1030
0.0
  0
LINE
  5
42A
330
1D3
100
AcDbEntity
  8
0
  6
Continuous
 62
     4
100
AcDbLine
 10
890.2319961403975
 20
402.5930038596018
 30
0.0
 11
935.5874999999999
 21
447.9485077192044
 31
0.0
1001
ACAD
1010
0.0
1020
0.0
1030
0.0
  0
LINE
  5
42B
330
1D3
100
AcDbEntity
  8
0
  6
Continuous
 62
     4
100
AcDbLine
 10
895.5352969992967
 20
397.2897030007028
 30
0.0
 11
935.5874999999999
 21
437.3419060014061
 31
0.0
1001
ACAD
1010
0.0
1020
0.0
1030
0.0
  0
LINE
  5
42C
330
1D3
100
AcDbEntity
  8
0
  6
Continuous
 62
     4
100
AcDbLine
 10
890.8385978581957
 20
381.9864021418037
 30
0.0
 11
935.5874999999999
 21
426.735304283608
 31
0.0
1001
ACAD
1010
0.0
1020
0.0
1030
0.0
  0
LINE
  5
42D
330
1D3
100
AcDbEntity
  8
0
  6
Continuous
 62
     4
100
AcDbLine
 10
886.6962974341902
 20
367.2375
 30
0.0
 11
935.5874999999999
 21
416.1287025658097
 31
0.0
1001
ACAD
1010
0.0
1020
0.0
1030
0.0
  0
LINE
  5
42E
330
1D3
100
AcDbEntity
  8
0
  6
Continuous
 62
     4
100
AcDbLine
 10
897.3028991519889
 20
367.2375
 30
0.0
 11
935.5874999999999
 21
405.5221008480114
 31
0.0
1001
ACAD
1010
0.0
1020
0.0
1030
0.0
  0
LINE
  5
42F
330
1D3
100
AcDbEntity
  8
0
  6
Continuous
 62
     4
100
AcDbLine
 10
907.9095008697871
 20
367.2375
 30
0.0
 11
935.5874999999999
 21
394.9154991302133
 31
0.0
1001
ACAD
1010
0.0
1020
0.0
1030
0.0
  0
LINE
  5
430
330
1D3
100
AcDbEntity
  8
0
  6
Continuous
 62
     4
100
AcDbLine
 10
973.3344177048008
 20
528.1218322951988
 30
0.0
 11
1012.450085409601
 21
567.2374999999999
 31
0.0
1001
ACAD
1010
0.0
1020
0.0
1030
0.0
  0
LINE
  5
431
330
1D3
100
AcDbEntity
  8
0
  6
Continuous
 62
     4
100
AcDbLine
 10
988.6377185636995
 20
532.8185314362997
 30
0.0
 11
1023.0566871274
 21
567.2374999999999
 31
0.0
1001
ACAD
1010
0.0
1020
0.0
1030
0.0
  0
LINE
  5
432
330
1D3
100
AcDbEntity
  8
0
  6
Continuous
 62
     4
100
AcDbLine
 10
993.941019422599
 20
527.5152305774006
 30
0.0
 11
1033.663288845198
 21
567.2374999999999
 31
0.0
1001
ACAD
1010
0.0
1020
0.0
1030
0.0
  0
LINE
  5
433
330
1D3
100
AcDbEntity
  8
0
  6
Continuous
 62
     4
100
AcDbLine
 10
1009.244320281498
 20
532.2119297185015
 30
0.0
 11
1044.269890562996
 21
567.2374999999998
 31
0.0
1001
ACAD
1010
0.0
1020
0.0
1030
0.0
  0
LINE
  5
434
330
1D3
100
AcDbEntity
  8
0
  6
Continuous
 62
     4
100
AcDbLine
 10
1014.547621140397
 20
526.9086288596025
 30
0.0
 11
1054.876492280794
 21
567.2374999999998
 31
0.0
1001
ACAD
1010
0.0
1020
0.0
1030
0.0
  0
LINE
  5
435
330
1D3
100
AcDbEntity
  8
0
  6
Continuous
 62
     4
100
AcDbLine
 10
1029.850921999296
 20
531.6053280007034
 30
0.0
 11
1065.179207193444
 21
566.933613194852
 31
0.0
1001
ACAD
1010
0.0
1020
0.0
1030
0.0
  0
LINE
  5
436
330
1D3
100
AcDbEntity
  8
0
  6
Continuous
 62
     4
100
AcDbLine
 10
1035.154222858195
 20
526.3020271418045
 30
0.0
 11
1076.08969571639
 21
567.2374999999998
 31
0.0
1001
ACAD
1010
0.0
1020
0.0
1030
0.0
  0
LINE
  5
437
330
1D3
100
AcDbEntity
  8
0
  6
Continuous
 62
     4
100
AcDbLine
 10
1050.457523717094
 20
530.9987262829053
 30
0.0
 11
1086.696297434188
 21
567.2374999999998
 31
0.0
1001
ACAD
1010
0.0
1020
0.0
1030
0.0
  0
LINE
  5
438
330
1D3
100
AcDbEntity
  8
0
  6
Continuous
 62
     4
100
AcDbLine
 10
1065.760824575993
 20
535.6954254240061
 30
0.0
 11
1097.302899151986
 21
567.2374999999998
 31
0.0
1001
ACAD
1010
0.0
1020
0.0
1030
0.0
  0
LINE
  5
439
330
1D3
100
AcDbEntity
  8
0
  6
Continuous
 62
     4
100
AcDbLine
 10
1071.064125434892
 20
530.392124565107
 30
0.0
 11
1107.909500869785
 21
567.2374999999998
 31
0.0
1001
ACAD
1010
0.0
1020
0.0
1030
0.0
  0
LINE
  5
43A
330
1D3
100
AcDbEntity
  8
0
  6
Continuous
 62
     4
100
AcDbLine
 10
1086.367426293791
 20
535.088823706208
 30
0.0
 11
1095.5875
 21
544.3088974124167
 31
0.0
1001
ACAD
1010
0.0
1020
0.0
1030
0.0
  0
LINE
  5
43B
330
1D3
100
AcDbEntity
  8
0
  6
Continuous
 62
     4
100
AcDbLine
 10
1091.67072715269
 20
529.7855228473091
 30
0.0
 11
1095.5875
 21
533.7022956946186
 31
0.0
1001
ACAD
1010
0.0
1020
0.0
1030
0.0
  0
LINE
  5
43C
330
1D3
100
AcDbEntity
  8
0
  6
Continuous
 62
     4
100
AcDbLine
 10
1103.098056023179
 20
530.60625
 30
0.0
 11
1135.474028011589
 21
562.9822219884099
 31
0.0
1001
ACAD
1010
0.0
1020
0.0
1030
0.0
  0
LINE
  5
43D
330
1D3
100
AcDbEntity
  8
0
  6
Continuous
 62
     4
100
AcDbLine
 10
1113.704657740977
 20
530.60625
 30
0.0
 11
1123.04375
 21
539.9453422590221
 31
0.0
1001
ACAD
1010
0.0
1020
0.0
1030
0.0
  0
LINE
  5
43E
330
1D3
100
AcDbEntity
  8
0
  6
Continuous
 62
     4
100
AcDbLine
 10
1098.268952281463
 20
546.9903496938802
 30
0.0
 11
1118.516102587583
 21
567.2374999999998
 31
0.0
1001
ACAD
1010
0.0
1020
0.0
1030
0.0
  0
LINE
  5
43F
330
1D3
100
AcDbEntity
  8
0
  6
Continuous
 62
     4
100
AcDbLine
 10
1101.218749999999
 20
539.3335456946174
 30
0.0
 11
1121.218749999999
 21
559.3335456946184
 31
0.0
1001
ACAD
1010
0.0
1020
0.0
1030
0.0
  0
LINE
  5
440
330
1D3
100
AcDbEntity
  8
0
  6
Continuous
 62
     4
100
AcDbLine
 10
1124.335907740977
 20
541.2374999999998
 30
0.0
 11
1140.777328870488
 21
557.6789211295106
 31
0.0
1001
ACAD
1010
0.0
1020
0.0
1030
0.0
  0
LINE
  5
441
330
1D3
100
AcDbEntity
  8
0
  6
Continuous
 62
     4
100
AcDbLine
 10
1134.942509458775
 20
541.2374999999998
 30
0.0
 11
1141.04375
 21
547.338740541224
 31
0.0
1001
ACAD
1010
0.0
1020
0.0
1030
0.0
  0
LINE
  5
442
330
1D3
100
AcDbEntity
  8
0
  6
Continuous
 62
     4
100
AcDbLine
 10
1152.917861176573
 20
548.60625
 30
0.0
 11
1171.383930588287
 21
567.0723194117132
 31
0.0
1001
ACAD
1010
0.0
1020
0.0
1030
0.0
  0
LINE
  5
443
330
1D3
100
AcDbEntity
  8
0
  6
Continuous
 62
     4
100
AcDbLine
 10
1142.311259458776
 20
548.60625
 30
0.0
 11
1156.080629729387
 21
562.3756202706121
 31
0.0
1001
ACAD
1010
0.0
1020
0.0
1030
0.0
  0
LINE
  5
444
330
1D3
100
AcDbEntity
  8
0
  6
Continuous
 62
     4
100
AcDbLine
 10
1163.524462894371
 20
548.60625
 30
0.0
 11
1176.687231447185
 21
561.7690185528141
 31
0.0
1001
ACAD
1010
0.0
1020
0.0
1030
0.0
  0
LINE
  5
445
330
1D3
100
AcDbEntity
  8
0
  6
Continuous
 62
     4
100
AcDbLine
 10
1174.131064612169
 20
548.60625
 30
0.0
 11
1191.990532306083
 21
566.4657176939148
 31
0.0
1001
ACAD
1010
0.0
1020
0.0
1030
0.0
  0
LINE
  5
447
330
1D3
100
AcDbEntity
  8
0
  6
Continuous
 62
     4
100
AcDbLine
 10
1184.737666329967
 20
548.60625
 30
0.0
 11
1197.293833164982
 21
561.1624168350163
 31
0.0
1001
ACAD
1010
0.0
1020
0.0
1030
0.0
  0
LINE
  5
448
330
1D3
100
AcDbEntity
  8
0
  6
Continuous
 62
     4
100
AcDbLine
 10
1195.344268047764
 20
548.60625
 30
0.0
 11
1212.597134023882
 21
565.8591159761177
 31
0.0
1001
ACAD
1010
0.0
1020
0.0
1030
0.0
  0
LINE
  5
449
330
1D3
100
AcDbEntity
  8
0
  6
Continuous
 62
     4
100
AcDbLine
 10
1205.309518896306
 20
548.60625
 30
0.0
 11
1217.579759448153
 21
560.8764905518468
 31
0.0
1001
ACAD
1010
0.0
1020
0.0
1030
0.0
  0
LINE
  5
44A
330
1D3
100
AcDbEntity
  8
0
  6
Continuous
 62
     4
100
AcDbLine
 10
1215.916120614104
 20
548.60625
 30
0.0
 11
1232.883060307052
 21
565.5731896929478
 31
0.0
1001
ACAD
1010
0.0
1020
0.0
1030
0.0
  0
LINE
  5
44B
330
1D3
100
AcDbEntity
  8
0
  6
Continuous
 62
     4
100
AcDbLine
 10
1226.522722331902
 20
548.60625
 30
0.0
 11
1238.18636116595
 21
560.2698888340491
 31
0.0
1001
ACAD
1010
0.0
1020
0.0
1030
0.0
  0
LINE
  5
44C
330
1D3
100
AcDbEntity
  8
0
  6
Continuous
 62
     4
100
AcDbLine
 10
1237.129324049699
 20
548.60625
 30
0.0
 11
1253.489662024849
 21
564.9665879751502
 31
0.0
1001
ACAD
1010
0.0
1020
0.0
1030
0.0
  0
LINE
  5
44D
330
1D3
100
AcDbEntity
  8
0
  6
Continuous
 62
     4
100
AcDbLine
 10
1247.735925767497
 20
548.60625
 30
0.0
 11
1258.792962883748
 21
559.6632871162513
 31
0.0
1001
ACAD
1010
0.0
1020
0.0
1030
0.0
  0
LINE
  5
44E
330
1D3
100
AcDbEntity
  8
0
  6
Continuous
 62
     4
100
AcDbLine
 10
1258.342527485295
 20
548.60625
 30
0.0
 11
1274.096263742647
 21
564.3599862573523
 31
0.0
1001
ACAD
1010
0.0
1020
0.0
1030
0.0
  0
LINE
  5
44F
330
1D3
100
AcDbEntity
  8
0
  6
Continuous
 62
     4
100
AcDbLine
 10
1268.949129203092
 20
548.60625
 30
0.0
 11
1279.399564601546
 21
559.0566853984536
 31
0.0
1001
ACAD
1010
0.0
1020
0.0
1030
0.0
  0
LINE
  5
451
330
1D3
100
AcDbEntity
  8
0
  6
Continuous
 62
     4
100
AcDbLine
 10
992.7233328249792
 20
805.7420828249792
 30
0.0
 11
977.2279156499587
 21
821.2374999999997
 31
0.0
1001
ACAD
1010
0.0
1020
0.0
1030
0.0
  0
LINE
  5
452
330
1D3
100
AcDbEntity
  8
0
  6
Continuous
 62
     4
100
AcDbLine
 10
987.4200319660797
 20
800.43878196608
 30
0.0
 11
966.6213139321605
 21
821.2374999999997
 31
0.0
1001
ACAD
1010
0.0
1020
0.0
1030
0.0
  0
LINE
  5
453
330
1D3
100
AcDbEntity
  8
0
  6
Continuous
 62
     4
100
AcDbLine
 10
972.1167311071805
 20
805.135481107181
 30
0.0
 11
965.5874999999998
 21
811.664712214362
 31
0.0
1001
ACAD
1010
0.0
1020
0.0
1030
0.0
  0
LINE
  5
454
330
1D3
100
AcDbEntity
  8
0
  6
Continuous
 62
     4
100
AcDbLine
 10
992.7233328249787
 20
805.7420828249792
 30
0.0
 11
977.2279156499587
 21
821.2374999999997
 31
0.0
1001
ACAD
1010
0.0
1020
0.0
1030
0.0
  0
LINE
  5
45C
330
1D3
100
AcDbEntity
  8
0
  6
Continuous
 62
     4
100
AcDbLine
 10
1008.026633683878
 20
801.0453836838784
 30
0.0
 11
987.8345173677564
 21
821.2374999999997
 31
0.0
1001
ACAD
1010
0.0
1020
0.0
1030
0.0
  0
LINE
  5
45D
330
1D3
100
AcDbEntity
  8
0
  6
Continuous
 62
     4
100
AcDbLine
 10
1008.026633683878
 20
801.0453836838781
 30
0.0
 11
987.8345173677564
 21
821.2374999999997
 31
0.0
1001
ACAD
1010
0.0
1020
0.0
1030
0.0
  0
LINE
  5
45E
330
1D3
100
AcDbEntity
  8
0
  6
Continuous
 62
     4
100
AcDbLine
 10
1013.329934542777
 20
806.3486845427773
 30
0.0
 11
998.4411190855546
 21
821.2374999999997
 31
0.0
1001
ACAD
1010
0.0
1020
0.0
1030
0.0
  0
LINE
  5
45F
330
1D3
100
AcDbEntity
  8
0
  6
Continuous
 62
     4
100
AcDbLine
 10
1013.329934542777
 20
806.3486845427773
 30
0.0
 11
998.4411190855546
 21
821.2374999999997
 31
0.0
1001
ACAD
1010
0.0
1020
0.0
1030
0.0
  0
LINE
  5
460
330
1D3
100
AcDbEntity
  8
0
  6
Continuous
 62
     4
100
AcDbLine
 10
1028.633235401676
 20
801.6519854016763
 30
0.0
 11
1009.047720803353
 21
821.2374999999997
 31
0.0
1001
ACAD
1010
0.0
1020
0.0
1030
0.0
  0
LINE
  5
461
330
1D3
100
AcDbEntity
  8
0
  6
Continuous
 62
     4
100
AcDbLine
 10
1028.633235401676
 20
801.6519854016761
 30
0.0
 11
1009.047720803353
 21
821.2374999999997
 31
0.0
1001
ACAD
1010
0.0
1020
0.0
1030
0.0
  0
LINE
  5
462
330
1D3
100
AcDbEntity
  8
0
  6
Continuous
 62
     4
100
AcDbLine
 10
1033.936536260575
 20
806.9552862605755
 30
0.0
 11
1019.654322521151
 21
821.2374999999997
 31
0.0
1001
ACAD
1010
0.0
1020
0.0
1030
0.0
  0
LINE
  5
463
330
1D3
100
AcDbEntity
  8
0
  6
Continuous
 62
     4
100
AcDbLine
 10
1033.936536260575
 20
806.9552862605751
 30
0.0
 11
1019.654322521151
 21
821.2374999999997
 31
0.0
1001
ACAD
1010
0.0
1020
0.0
1030
0.0
  0
LINE
  5
464
330
1D3
100
AcDbEntity
  8
0
  6
Continuous
 62
     4
100
AcDbLine
 10
1049.239837119474
 20
802.2585871194744
 30
0.0
 11
1030.260924238949
 21
821.2374999999997
 31
0.0
1001
ACAD
1010
0.0
1020
0.0
1030
0.0
  0
LINE
  5
465
330
1D3
100
AcDbEntity
  8
0
  6
Continuous
 62
     4
100
AcDbLine
 10
1049.239837119474
 20
802.2585871194744
 30
0.0
 11
1030.260924238949
 21
821.2374999999997
 31
0.0
1001
ACAD
1010
0.0
1020
0.0
1030
0.0
  0
LINE
  5
466
330
1D3
100
AcDbEntity
  8
0
  6
Continuous
 62
     4
100
AcDbLine
 10
1054.543137978373
 20
807.5618879783734
 30
0.0
 11
1040.867525956747
 21
821.2374999999997
 31
0.0
1001
ACAD
1010
0.0
1020
0.0
1030
0.0
  0
LINE
  5
467
330
1D3
100
AcDbEntity
  8
0
  6
Continuous
 62
     4
100
AcDbLine
 10
1054.543137978373
 20
807.5618879783736
 30
0.0
 11
1040.867525956747
 21
821.2374999999997
 31
0.0
1001
ACAD
1010
0.0
1020
0.0
1030
0.0
  0
LINE
  5
468
330
1D3
100
AcDbEntity
  8
0
  6
Continuous
 62
     4
100
AcDbLine
 10
1069.846438837272
 20
802.8651888372726
 30
0.0
 11
1051.474127674545
 21
821.2374999999997
 31
0.0
1001
ACAD
1010
0.0
1020
0.0
1030
0.0
  0
LINE
  5
46A
330
1D3
100
AcDbEntity
  8
0
  6
Continuous
 62
     4
100
AcDbLine
 10
1075.307344333635
 20
808.0108850587077
 30
0.0
 11
1062.080729392343
 21
821.2374999999997
 31
0.0
1001
ACAD
1010
0.0
1020
0.0
1030
0.0
  0
LINE
  5
46B
330
1D3
100
AcDbEntity
  8
0
  6
Continuous
 62
     4
100
AcDbLine
 10
1075.307344333635
 20
808.0108850587079
 30
0.0
 11
1062.080729392343
 21
821.2374999999997
 31
0.0
1001
ACAD
1010
0.0
1020
0.0
1030
0.0
  0
LINE
  5
46C
330
1D3
100
AcDbEntity
  8
0
  6
Continuous
 62
     4
100
AcDbLine
 10
1090.45304055507
 20
803.4717905550705
 30
0.0
 11
1072.687331110141
 21
821.2374999999997
 31
0.0
1001
ACAD
1010
0.0
1020
0.0
1030
0.0
  0
LINE
  5
46D
330
1D3
100
AcDbEntity
  8
0
  6
Continuous
 62
     4
100
AcDbLine
 10
1090.45304055507
 20
803.4717905550703
 30
0.0
 11
1072.687331110141
 21
821.2374999999997
 31
0.0
1001
ACAD
1010
0.0
1020
0.0
1030
0.0
  0
LINE
  5
46E
330
1D3
100
AcDbEntity
  8
0
  6
Continuous
 62
     4
100
AcDbLine
 10
1098.662682827939
 20
805.8687499999999
 30
0.0
 11
1083.293932827939
 21
821.2374999999997
 31
0.0
1001
ACAD
1010
0.0
1020
0.0
1030
0.0
  0
LINE
  5
46F
330
1D3
100
AcDbEntity
  8
0
  6
Continuous
 62
     4
100
AcDbLine
 10
1098.662682827939
 20
805.8687499999997
 30
0.0
 11
1083.293932827939
 21
821.2374999999997
 31
0.0
1001
ACAD
1010
0.0
1020
0.0
1030
0.0
  0
LINE
  5
470
330
1D3
100
AcDbEntity
  8
0
  6
Continuous
 62
     4
100
AcDbLine
 10
1109.269284545737
 20
805.8687499999999
 30
0.0
 11
1093.900534545737
 21
821.2374999999997
 31
0.0
1001
ACAD
1010
0.0
1020
0.0
1030
0.0
  0
LINE
  5
471
330
1D3
100
AcDbEntity
  8
0
  6
Continuous
 62
     4
100
AcDbLine
 10
1109.269284545737
 20
805.8687499999997
 30
0.0
 11
1093.900534545737
 21
821.2374999999997
 31
0.0
1001
ACAD
1010
0.0
1020
0.0
1030
0.0
  0
LINE
  5
472
330
1D3
100
AcDbEntity
  8
0
  6
Continuous
 62
     4
100
AcDbLine
 10
1130.507136263534
 20
795.2374999999998
 30
0.0
 11
1123.037052063726
 21
802.7075841998081
 31
0.0
1001
ACAD
1010
0.0
1020
0.0
1030
0.0
  0
LINE
  5
473
330
1D3
100
AcDbEntity
  8
0
  6
Continuous
 62
     4
100
AcDbLine
 10
1130.507136263535
 20
795.2374999999999
 30
0.0
 11
1123.037052063726
 21
802.7075841998085
 31
0.0
1001
ACAD
1010
0.0
1020
0.0
1030
0.0
  0
LINE
  5
474
330
1D3
100
AcDbEntity
  8
0
  6
Continuous
 62
     4
100
AcDbLine
 10
1141.04375
 20
795.3074879813336
 30
0.0
 11
1115.113737981333
 21
821.2374999999997
 31
0.0
1001
ACAD
1010
0.0
1020
0.0
1030
0.0
  0
LINE
  5
475
330
1D3
100
AcDbEntity
  8
0
  6
Continuous
 62
     4
100
AcDbLine
 10
1141.04375
 20
795.3074879813336
 30
0.0
 11
1115.113737981333
 21
821.2374999999997
 31
0.0
1001
ACAD
1010
0.0
1020
0.0
1030
0.0
  0
LINE
  5
476
330
1D3
100
AcDbEntity
  8
0
  6
Continuous
 62
     4
100
AcDbLine
 10
1141.04375
 20
805.9140896991317
 30
0.0
 11
1125.720339699131
 21
821.2374999999997
 31
0.0
1001
ACAD
1010
0.0
1020
0.0
1030
0.0
  0
LINE
  5
477
330
1D3
100
AcDbEntity
  8
0
  6
Continuous
 62
     4
100
AcDbLine
 10
1141.04375
 20
805.9140896991314
 30
0.0
 11
1125.720339699131
 21
821.2374999999997
 31
0.0
1001
ACAD
1010
0.0
1020
0.0
1030
0.0
  0
LINE
  5
478
330
1D3
100
AcDbEntity
  8
0
  6
Continuous
 62
     4
100
AcDbLine
 10
1141.04375
 20
816.5206914169298
 30
0.0
 11
1136.326941416929
 21
821.2374999999997
 31
0.0
1001
ACAD
1010
0.0
1020
0.0
1030
0.0
  0
LINE
  5
479
330
1D3
100
AcDbEntity
  8
0
  6
Continuous
 62
     4
100
AcDbLine
 10
1141.04375
 20
816.5206914169296
 30
0.0
 11
1136.326941416929
 21
821.2374999999997
 31
0.0
1001
ACAD
1010
0.0
1020
0.0
1030
0.0
  0
LINE
  5
47C
330
1D3
100
AcDbEntity
  8
0
  6
Continuous
 62
     4
100
AcDbLine
 10
1119.875886263535
 20
805.8687499999997
 30
0.0
 11
1104.507136263535
 21
821.2374999999997
 31
0.0
1001
ACAD
1010
0.0
1020
0.0
1030
0.0
  0
LINE
  5
47D
330
1D3
100
AcDbEntity
  8
0
  6
Continuous
 62
     4
100
AcDbLine
 10
1119.875886263534
 20
805.8687499999997
 30
0.0
 11
1104.507136263535
 21
821.2374999999997
 31
0.0
1001
ACAD
1010
0.0
1020
0.0
1030
0.0
  0
LINE
  5
47E
330
1D3
100
AcDbEntity
  8
0
  6
Continuous
 62
     4
100
AcDbLine
 10
999.8591656499586
 20
513.2374999999998
 30
0.0
 11
981.4077078249795
 21
531.6889578249796
 31
0.0
1001
ACAD
1010
0.0
1020
0.0
1030
0.0
  0
LINE
  5
47F
330
1D3
100
AcDbEntity
  8
0
  6
Continuous
 62
     4
100
AcDbLine
 10
989.2525639321604
 20
513.2374999999998
 30
0.0
 11
976.1044069660799
 21
526.3856569660803
 31
0.0
1001
ACAD
1010
0.0
1020
0.0
1030
0.0
  0
LINE
  5
480
330
1D3
100
AcDbEntity
  8
0
  6
Continuous
 62
     4
100
AcDbLine
 10
978.6459622143619
 20
513.2374999999997
 30
0.0
 11
965.5874999999998
 21
526.2959622143621
 31
0.0
1001
ACAD
1010
0.0
1020
0.0
1030
0.0
  0
LINE
  5
482
330
1D3
100
AcDbEntity
  8
0
  6
Continuous
 62
     4
100
AcDbLine
 10
1021.072369085555
 20
513.2374999999998
 30
0.0
 11
1002.014309542778
 21
532.2955595427779
 31
0.0
1001
ACAD
1010
0.0
1020
0.0
1030
0.0
  0
LINE
  5
483
330
1D3
100
AcDbEntity
  8
0
  6
Continuous
 62
     4
100
AcDbLine
 10
1010.465767367757
 20
513.2374999999998
 30
0.0
 11
996.7110086838786
 21
526.9922586838786
 31
0.0
1001
ACAD
1010
0.0
1020
0.0
1030
0.0
  0
LINE
  5
484
330
1D3
100
AcDbEntity
  8
0
  6
Continuous
 62
     4
100
AcDbLine
 10
1042.285572521152
 20
513.2374999999998
 30
0.0
 11
1022.620911260576
 21
532.9021612605763
 31
0.0
1001
ACAD
1010
0.0
1020
0.0
1030
0.0
  0
LINE
  5
485
330
1D3
100
AcDbEntity
  8
0
  6
Continuous
 62
     4
100
AcDbLine
 10
1031.678970803354
 20
513.2374999999998
 30
0.0
 11
1017.317610401677
 21
527.5988604016768
 31
0.0
1001
ACAD
1010
0.0
1020
0.0
1030
0.0
  0
LINE
  5
486
330
1D3
100
AcDbEntity
  8
0
  6
Continuous
 62
     4
100
AcDbLine
 10
1063.498775956748
 20
513.2374999999998
 30
0.0
 11
1043.227512978374
 21
533.5087629783746
 31
0.0
1001
ACAD
1010
0.0
1020
0.0
1030
0.0
  0
LINE
  5
487
330
1D3
100
AcDbEntity
  8
0
  6
Continuous
 62
     4
100
AcDbLine
 10
1052.89217423895
 20
513.2374999999998
 30
0.0
 11
1037.924212119475
 21
528.2054621194752
 31
0.0
1001
ACAD
1010
0.0
1020
0.0
1030
0.0
  0
LINE
  5
488
330
1D3
100
AcDbEntity
  8
0
  6
Continuous
 62
     4
100
AcDbLine
 10
1084.711979392346
 20
513.2374999999998
 30
0.0
 11
1063.834114696173
 21
534.1153646961731
 31
0.0
1001
ACAD
1010
0.0
1020
0.0
1030
0.0
  0
LINE
  5
489
330
1D3
100
AcDbEntity
  8
0
  6
Continuous
 62
     4
100
AcDbLine
 10
1074.105377674547
 20
513.2374999999998
 30
0.0
 11
1058.530813837274
 21
528.8120638372739
 31
0.0
1001
ACAD
1010
0.0
1020
0.0
1030
0.0
  0
LINE
  5
48A
330
1D3
100
AcDbEntity
  8
0
  6
Continuous
 62
     4
100
AcDbLine
 10
1105.925182827942
 20
513.2374999999998
 30
0.0
 11
1084.440716413971
 21
534.7219664139718
 31
0.0
1001
ACAD
1010
0.0
1020
0.0
1030
0.0
  0
LINE
  5
48B
330
1D3
100
AcDbEntity
  8
0
  6
Continuous
 62
     4
100
AcDbLine
 10
1095.318581110144
 20
513.2374999999998
 30
0.0
 11
1079.137415555072
 21
529.4186655550723
 31
0.0
1001
ACAD
1010
0.0
1020
0.0
1030
0.0
  0
LINE
  5
48E
330
1D3
100
AcDbEntity
  8
0
  6
Continuous
 62
     4
100
AcDbLine
 10
1127.138386263539
 20
513.2374999999998
 30
0.0
 11
1111.76963626354
 21
528.60625
 31
0.0
1001
ACAD
1010
0.0
1020
0.0
1030
0.0
  0
LINE
  5
48F
330
1D3
100
AcDbEntity
  8
0
  6
Continuous
 62
     4
100
AcDbLine
 10
1116.531784545741
 20
513.2374999999998
 30
0.0
 11
1101.163034545741
 21
528.60625
 31
0.0
1001
ACAD
1010
0.0
1020
0.0
1030
0.0
  0
LINE
  5
490
330
1D3
100
AcDbEntity
  8
0
  6
Continuous
 62
     4
100
AcDbLine
 10
1141.04375
 20
520.5453396991368
 30
0.0
 11
1123.04375
 21
538.5453396991371
 31
0.0
1001
ACAD
1010
0.0
1020
0.0
1030
0.0
  0
LINE
  5
491
330
1D3
100
AcDbEntity
  8
0
  6
Continuous
 62
     4
100
AcDbLine
 10
1137.744987981338
 20
513.2374999999998
 30
0.0
 11
1122.376237981338
 21
528.60625
 31
0.0
1001
ACAD
1010
0.0
1020
0.0
1030
0.0
  0
LINE
  5
493
330
1D3
100
AcDbEntity
  8
0
  6
Continuous
 62
     4
100
AcDbLine
 10
1141.04375
 20
531.151941416935
 30
0.0
 11
1132.958191416935
 21
539.2374999999998
 31
0.0
1001
ACAD
1010
0.0
1020
0.0
1030
0.0
  0
LINE
  5
494
330
1D3
100
AcDbEntity
  8
1
  6
Continuous
 62
     7
100
AcDbLine
 10
655.5875000000003
 20
367.2375
 30
0.0
 11
915.5875000000003
 21
367.2375
 31
0.0
  0
LINE
  5
495
330
1D3
100
AcDbEntity
  8
1
  6
Continuous
 62
     7
100
AcDbLine
 10
685.5875000000003
 20
527.2374999999998
 30
0.0
 11
685.5875000000003
 21
567.2374999999998
 31
0.0
  0
LINE
  5
496
330
1D3
100
AcDbEntity
  8
1
  6
Continuous
 62
     7
100
AcDbLine
 10
935.5875000000002
 20
387.2375
 30
0.0
 11
935.5875000000002
 21
497.2375
 31
0.0
  0
LINE
  5
497
330
1D3
100
AcDbEntity
  8
1
  6
Continuous
 62
     7
100
AcDbLine
 10
635.5875000000003
 20
387.2375
 30
0.0
 11
655.5875000000003
 21
367.2375
 31
0.0
  0
LINE
  5
498
330
1D3
100
AcDbEntity
  8
1
  6
Continuous
 62
     7
100
AcDbLine
 10
915.5875000000003
 20
367.2375
 30
0.0
 11
935.5875000000002
 21
387.2375
 31
0.0
  0
LINE
  5
499
330
1D3
100
AcDbEntity
  8
1
  6
Continuous
 62
     7
100
AcDbLine
 10
935.5875000000002
 20
497.2375
 30
0.0
 11
955.5875000000003
 21
517.2374999999998
 31
0.0
  0
LINE
  5
49A
330
1D3
100
AcDbEntity
  8
1
  6
Continuous
 62
     7
100
AcDbLine
 10
885.5874999999999
 20
567.2374999999998
 30
0.0
 11
1064.675
 21
567.2374999999998
 31
0.0
  0
LINE
  5
49B
330
1D3
100
AcDbEntity
  8
1
  6
Continuous
 62
     7
100
AcDbLine
 10
685.5875000000003
 20
537.2374999999998
 30
0.0
 11
885.5874999999999
 21
537.2374999999998
 31
0.0
  0
LINE
  5
49C
330
1D3
100
AcDbEntity
  8
1
  6
Continuous
 62
     7
100
AcDbLine
 10
885.5874999999999
 20
567.2374999999998
 30
0.0
 11
885.5874999999999
 21
527.2374999999998
 31
0.0
  0
LINE
  5
49D
330
1D3
100
AcDbEntity
  8
1
  6
Continuous
 62
     7
100
AcDbLine
 10
885.5875000000002
 20
527.2374999999998
 30
0.0
 11
675.5875000000003
 21
527.2374999999998
 31
0.0
  0
LINE
  5
49E
330
1D3
100
AcDbEntity
  8
1
  6
Continuous
 62
     7
100
AcDbLine
 10
885.5875000000002
 20
367.2375
 30
0.0
 11
685.5875000000003
 21
377.2375
 31
0.0
  0
LINE
  5
49F
330
1D3
100
AcDbEntity
  8
1
  6
Continuous
 62
     7
100
AcDbLine
 10
675.5875000000003
 20
367.2375
 30
0.0
 11
685.5875000000003
 21
377.2375
 31
0.0
  0
LINE
  5
4A0
330
1D3
100
AcDbEntity
  8
1
  6
Continuous
 62
     7
100
AcDbLine
 10
685.5875000000003
 20
377.2375
 30
0.0
 11
675.5875000000003
 21
387.2375
 31
0.0
  0
LINE
  5
4A1
330
1D3
100
AcDbEntity
  8
1
  6
Continuous
 62
     7
100
AcDbLine
 10
675.5875000000003
 20
387.2375
 30
0.0
 11
685.5875000000003
 21
397.2374999999999
 31
0.0
  0
LINE
  5
4A2
330
1D3
100
AcDbEntity
  8
1
  6
Continuous
 62
     7
100
AcDbLine
 10
685.5875000000003
 20
397.2374999999999
 30
0.0
 11
675.5875000000003
 21
407.2375
 31
0.0
  0
LINE
  5
4A3
330
1D3
100
AcDbEntity
  8
1
  6
Continuous
 62
     7
100
AcDbLine
 10
675.5875000000003
 20
407.2375
 30
0.0
 11
685.5875000000003
 21
417.2375
 31
0.0
  0
LINE
  5
4A4
330
1D3
100
AcDbEntity
  8
1
  6
Continuous
 62
     7
100
AcDbLine
 10
685.5875000000003
 20
417.2375
 30
0.0
 11
675.5875000000003
 21
427.2375
 31
0.0
  0
LINE
  5
4A5
330
1D3
100
AcDbEntity
  8
1
  6
Continuous
 62
     7
100
AcDbLine
 10
675.5875000000003
 20
427.2375
 30
0.0
 11
685.5875000000003
 21
437.2374999999998
 31
0.0
  0
LINE
  5
4A6
330
1D3
100
AcDbEntity
  8
1
  6
Continuous
 62
     7
100
AcDbLine
 10
685.5875000000003
 20
437.2374999999998
 30
0.0
 11
675.5875000000003
 21
447.2375
 31
0.0
  0
LINE
  5
4A7
330
1D3
100
AcDbEntity
  8
1
  6
Continuous
 62
     7
100
AcDbLine
 10
675.5875000000003
 20
447.2375
 30
0.0
 11
685.5875000000003
 21
457.2375
 31
0.0
  0
LINE
  5
4A8
330
1D3
100
AcDbEntity
  8
1
  6
Continuous
 62
     7
100
AcDbLine
 10
685.5875000000003
 20
457.2375
 30
0.0
 11
675.5875000000003
 21
467.2375
 31
0.0
  0
LINE
  5
4A9
330
1D3
100
AcDbEntity
  8
1
  6
Continuous
 62
     7
100
AcDbLine
 10
675.5875000000003
 20
467.2375
 30
0.0
 11
685.5875000000003
 21
477.2375
 31
0.0
  0
LINE
  5
4AA
330
1D3
100
AcDbEntity
  8
1
  6
Continuous
 62
     7
100
AcDbLine
 10
685.5875000000003
 20
477.2375
 30
0.0
 11
675.5875000000003
 21
487.2374999999998
 31
0.0
  0
LINE
  5
4AB
330
1D3
100
AcDbEntity
  8
1
  6
Continuous
 62
     7
100
AcDbLine
 10
675.5875000000003
 20
487.2374999999998
 30
0.0
 11
685.5875000000003
 21
497.2375
 31
0.0
  0
LINE
  5
4AC
330
1D3
100
AcDbEntity
  8
1
  6
Continuous
 62
     7
100
AcDbLine
 10
685.5875000000003
 20
497.2375
 30
0.0
 11
675.5875000000003
 21
507.2375
 31
0.0
  0
LINE
  5
4AD
330
1D3
100
AcDbEntity
  8
1
  6
Continuous
 62
     7
100
AcDbLine
 10
675.5875000000003
 20
507.2375
 30
0.0
 11
685.5875000000003
 21
517.2374999999998
 31
0.0
  0
LINE
  5
4AE
330
1D3
100
AcDbEntity
  8
1
  6
Continuous
 62
     7
100
AcDbLine
 10
885.5875000000002
 20
367.2375
 30
0.0
 11
895.5875000000004
 21
377.2375
 31
0.0
  0
LINE
  5
4AF
330
1D3
100
AcDbEntity
  8
1
  6
Continuous
 62
     7
100
AcDbLine
 10
895.5875000000004
 20
377.2375
 30
0.0
 11
885.5875000000002
 21
387.2375
 31
0.0
  0
LINE
  5
4B0
330
1D3
100
AcDbEntity
  8
1
  6
Continuous
 62
     7
100
AcDbLine
 10
885.5875000000002
 20
387.2375
 30
0.0
 11
895.5875000000004
 21
397.2374999999999
 31
0.0
  0
LINE
  5
4B1
330
1D3
100
AcDbEntity
  8
1
  6
Continuous
 62
     7
100
AcDbLine
 10
895.5875000000004
 20
397.2374999999999
 30
0.0
 11
885.5875000000002
 21
407.2375
 31
0.0
  0
LINE
  5
4B2
330
1D3
100
AcDbEntity
  8
1
  6
Continuous
 62
     7
100
AcDbLine
 10
885.5875000000002
 20
407.2375
 30
0.0
 11
895.5875000000004
 21
417.2375
 31
0.0
  0
LINE
  5
4B3
330
1D3
100
AcDbEntity
  8
1
  6
Continuous
 62
     7
100
AcDbLine
 10
895.5875000000004
 20
417.2375
 30
0.0
 11
885.5875000000002
 21
427.2375
 31
0.0
  0
LINE
  5
4B4
330
1D3
100
AcDbEntity
  8
1
  6
Continuous
 62
     7
100
AcDbLine
 10
885.5875000000002
 20
427.2375
 30
0.0
 11
895.5875000000004
 21
437.2374999999998
 31
0.0
  0
LINE
  5
4B5
330
1D3
100
AcDbEntity
  8
1
  6
Continuous
 62
     7
100
AcDbLine
 10
895.5875000000004
 20
437.2374999999998
 30
0.0
 11
885.5875000000002
 21
447.2375
 31
0.0
  0
LINE
  5
4B6
330
1D3
100
AcDbEntity
  8
1
  6
Continuous
 62
     7
100
AcDbLine
 10
885.5875000000002
 20
447.2375
 30
0.0
 11
895.5875000000004
 21
457.2375
 31
0.0
  0
LINE
  5
4B7
330
1D3
100
AcDbEntity
  8
1
  6
Continuous
 62
     7
100
AcDbLine
 10
895.5875000000004
 20
457.2375
 30
0.0
 11
885.5875000000002
 21
467.2375
 31
0.0
  0
LINE
  5
4B8
330
1D3
100
AcDbEntity
  8
1
  6
Continuous
 62
     7
100
AcDbLine
 10
885.5875000000002
 20
467.2375
 30
0.0
 11
895.5875000000004
 21
477.2375
 31
0.0
  0
LINE
  5
4B9
330
1D3
100
AcDbEntity
  8
1
  6
Continuous
 62
     7
100
AcDbLine
 10
895.5875000000004
 20
477.2375
 30
0.0
 11
885.5875000000002
 21
487.2374999999998
 31
0.0
  0
LINE
  5
4BA
330
1D3
100
AcDbEntity
  8
1
  6
Continuous
 62
     7
100
AcDbLine
 10
885.5875000000002
 20
487.2374999999998
 30
0.0
 11
895.5875000000004
 21
497.2375
 31
0.0
  0
LINE
  5
4BB
330
1D3
100
AcDbEntity
  8
1
  6
Continuous
 62
     7
100
AcDbLine
 10
895.5875000000004
 20
497.2375
 30
0.0
 11
885.5875000000002
 21
507.2375
 31
0.0
  0
LINE
  5
4BC
330
1D3
100
AcDbEntity
  8
1
  6
Continuous
 62
     7
100
AcDbLine
 10
885.5875000000002
 20
507.2375
 30
0.0
 11
895.5875000000004
 21
517.2374999999998
 31
0.0
  0
LINE
  5
4BD
330
1D3
100
AcDbEntity
  8
1
  6
Continuous
 62
     7
100
AcDbLine
 10
895.5875000000004
 20
517.2374999999998
 30
0.0
 11
885.5875000000002
 21
527.2374999999998
 31
0.0
  0
LINE
  5
4BE
330
1D3
100
AcDbEntity
  8
1
  6
Continuous
 62
     7
100
AcDbLine
 10
685.5875000000003
 20
397.2374999999999
 30
0.0
 11
885.5875000000002
 21
387.2375
 31
0.0
  0
LINE
  5
4BF
330
1D3
100
AcDbEntity
  8
1
  6
Continuous
 62
     7
100
AcDbLine
 10
885.5875000000002
 20
407.2375
 30
0.0
 11
685.5875000000003
 21
417.2375
 31
0.0
  0
LINE
  5
4C0
330
1D3
100
AcDbEntity
  8
1
  6
Continuous
 62
     7
100
AcDbLine
 10
685.5875000000003
 20
437.2374999999998
 30
0.0
 11
885.5875000000002
 21
427.2375
 31
0.0
  0
LINE
  5
4C1
330
1D3
100
AcDbEntity
  8
1
  6
Continuous
 62
     7
100
AcDbLine
 10
885.5875000000002
 20
447.2375
 30
0.0
 11
685.5875000000003
 21
457.2375
 31
0.0
  0
LINE
  5
4C2
330
1D3
100
AcDbEntity
  8
1
  6
Continuous
 62
     7
100
AcDbLine
 10
685.5875000000003
 20
477.2375
 30
0.0
 11
885.5875000000002
 21
467.2375
 31
0.0
  0
LINE
  5
4C3
330
1D3
100
AcDbEntity
  8
1
  6
Continuous
 62
     7
100
AcDbLine
 10
885.5875000000002
 20
487.2374999999998
 30
0.0
 11
685.5875000000003
 21
497.2375
 31
0.0
  0
LINE
  5
4C4
330
1D3
100
AcDbEntity
  8
1
  6
Continuous
 62
     7
100
AcDbLine
 10
685.5875000000003
 20
517.2374999999998
 30
0.0
 11
885.5875000000002
 21
507.2375
 31
0.0
  0
LINE
  5
4C5
330
1D3
100
AcDbEntity
  8
1
  6
Continuous
 62
     7
100
AcDbLine
 10
685.5875000000003
 20
517.2374999999998
 30
0.0
 11
675.5875000000003
 21
527.2374999999998
 31
0.0
  0
LINE
  5
4C6
330
1D3
100
AcDbEntity
  8
1
  6
Continuous
 62
     7
100
AcDbLine
 10
485.5875000000003
 20
537.2374999999998
 30
0.0
 11
485.5875000000003
 21
801.2375
 31
0.0
  0
LINE
  5
4C7
330
1D3
100
AcDbEntity
  8
1
  6
Continuous
 62
     7
100
AcDbLine
 10
1064.675
 20
767.2374999999998
 30
0.0
 11
645.5874999999998
 21
767.2374999999998
 31
0.0
  0
LINE
  5
4C8
330
1D3
100
AcDbEntity
  8
1
  6
Continuous
 62
     7
100
AcDbLine
 10
635.5875000000003
 20
387.2375
 30
0.0
 11
635.5875000000003
 21
497.2375
 31
0.0
  0
LINE
  5
4C9
330
1D3
100
AcDbEntity
  8
1
  6
Continuous
 62
     7
100
AcDbLine
 10
615.5874999999999
 20
517.2374999999998
 30
0.0
 11
505.5874999999998
 21
517.2374999999998
 31
0.0
  0
LINE
  5
4CA
330
1D3
100
AcDbEntity
  8
1
  6
Continuous
 62
     7
100
AcDbLine
 10
505.5874999999998
 20
821.2374999999997
 30
0.0
 11
485.5875000000003
 21
801.2375
 31
0.0
  0
LINE
  5
4CB
330
1D3
100
AcDbEntity
  8
1
  6
Continuous
 62
     7
100
AcDbLine
 10
505.5874999999998
 20
517.2374999999998
 30
0.0
 11
485.5875000000003
 21
537.2374999999998
 31
0.0
  0
LINE
  5
4CC
330
1D3
100
AcDbEntity
  8
1
  6
Continuous
 62
     7
100
AcDbLine
 10
635.5875000000003
 20
497.2375
 30
0.0
 11
615.5874999999999
 21
517.2374999999998
 31
0.0
  0
LINE
  5
4CD
330
1D3
100
AcDbEntity
  8
1
  6
Continuous
 62
     7
100
AcDbLine
 10
685.5875000000003
 20
567.2374999999998
 30
0.0
 11
645.5874999999998
 21
567.2374999999998
 31
0.0
  0
LINE
  5
4CE
330
1D3
100
AcDbEntity
  8
1
  6
Continuous
 62
     7
100
AcDbLine
 10
655.5875000000003
 20
567.2374999999998
 30
0.0
 11
655.5875000000003
 21
767.2374999999998
 31
0.0
  0
LINE
  5
4CF
330
1D3
100
AcDbEntity
  8
1
  6
Continuous
 62
     7
100
AcDbLine
 10
645.5874999999998
 20
767.2375
 30
0.0
 11
645.5874999999998
 21
557.2375
 31
0.0
  0
LINE
  5
4D0
330
1D3
100
AcDbEntity
  8
1
  6
Continuous
 62
     7
100
AcDbLine
 10
485.5875000000003
 20
767.2375
 30
0.0
 11
495.5874999999998
 21
567.2375
 31
0.0
  0
LINE
  5
4D1
330
1D3
100
AcDbEntity
  8
1
  6
Continuous
 62
     7
100
AcDbLine
 10
485.5875000000003
 20
557.2375
 30
0.0
 11
495.5874999999998
 21
567.2375
 31
0.0
  0
LINE
  5
4D2
330
1D3
100
AcDbEntity
  8
1
  6
Continuous
 62
     7
100
AcDbLine
 10
495.5874999999998
 20
567.2375
 30
0.0
 11
505.5874999999998
 21
557.2375
 31
0.0
  0
LINE
  5
4D3
330
1D3
100
AcDbEntity
  8
1
  6
Continuous
 62
     7
100
AcDbLine
 10
505.5874999999998
 20
557.2375
 30
0.0
 11
515.5874999999999
 21
567.2375
 31
0.0
  0
LINE
  5
4D4
330
1D3
100
AcDbEntity
  8
1
  6
Continuous
 62
     7
100
AcDbLine
 10
515.5874999999999
 20
567.2375
 30
0.0
 11
525.5874999999998
 21
557.2375
 31
0.0
  0
LINE
  5
4D5
330
1D3
100
AcDbEntity
  8
1
  6
Continuous
 62
     7
100
AcDbLine
 10
525.5874999999998
 20
557.2375
 30
0.0
 11
535.5875000000003
 21
567.2375
 31
0.0
  0
LINE
  5
4D6
330
1D3
100
AcDbEntity
  8
1
  6
Continuous
 62
     7
100
AcDbLine
 10
535.5875000000003
 20
567.2375
 30
0.0
 11
545.5874999999998
 21
557.2375
 31
0.0
  0
LINE
  5
4D7
330
1D3
100
AcDbEntity
  8
1
  6
Continuous
 62
     7
100
AcDbLine
 10
545.5874999999998
 20
557.2375
 30
0.0
 11
555.5874999999998
 21
567.2375
 31
0.0
  0
LINE
  5
4D8
330
1D3
100
AcDbEntity
  8
1
  6
Continuous
 62
     7
100
AcDbLine
 10
555.5874999999998
 20
567.2375
 30
0.0
 11
565.5874999999999
 21
557.2375
 31
0.0
  0
LINE
  5
4D9
330
1D3
100
AcDbEntity
  8
1
  6
Continuous
 62
     7
100
AcDbLine
 10
565.5874999999999
 20
557.2375
 30
0.0
 11
575.5874999999998
 21
567.2375
 31
0.0
  0
LINE
  5
4DA
330
1D3
100
AcDbEntity
  8
1
  6
Continuous
 62
     7
100
AcDbLine
 10
575.5874999999998
 20
567.2375
 30
0.0
 11
585.5875000000003
 21
557.2375
 31
0.0
  0
LINE
  5
4DB
330
1D3
100
AcDbEntity
  8
1
  6
Continuous
 62
     7
100
AcDbLine
 10
585.5875000000003
 20
557.2375
 30
0.0
 11
595.5874999999998
 21
567.2375
 31
0.0
  0
LINE
  5
4DC
330
1D3
100
AcDbEntity
  8
1
  6
Continuous
 62
     7
100
AcDbLine
 10
595.5874999999998
 20
567.2375
 30
0.0
 11
605.5875000000003
 21
557.2375
 31
0.0
  0
LINE
  5
4DD
330
1D3
100
AcDbEntity
  8
1
  6
Continuous
 62
     7
100
AcDbLine
 10
605.5875000000003
 20
557.2375
 30
0.0
 11
615.5874999999999
 21
567.2375
 31
0.0
  0
LINE
  5
4DE
330
1D3
100
AcDbEntity
  8
1
  6
Continuous
 62
     7
100
AcDbLine
 10
615.5874999999999
 20
567.2375
 30
0.0
 11
625.5874999999998
 21
557.2375
 31
0.0
  0
LINE
  5
4DF
330
1D3
100
AcDbEntity
  8
1
  6
Continuous
 62
     7
100
AcDbLine
 10
625.5874999999998
 20
557.2375
 30
0.0
 11
635.5875000000003
 21
567.2375
 31
0.0
  0
LINE
  5
4E0
330
1D3
100
AcDbEntity
  8
1
  6
Continuous
 62
     7
100
AcDbLine
 10
485.5875000000003
 20
767.2375
 30
0.0
 11
495.5874999999998
 21
777.2374999999999
 31
0.0
  0
LINE
  5
4E1
330
1D3
100
AcDbEntity
  8
1
  6
Continuous
 62
     7
100
AcDbLine
 10
495.5874999999998
 20
777.2374999999999
 30
0.0
 11
505.5874999999998
 21
767.2375
 31
0.0
  0
LINE
  5
4E2
330
1D3
100
AcDbEntity
  8
1
  6
Continuous
 62
     7
100
AcDbLine
 10
505.5874999999998
 20
767.2375
 30
0.0
 11
515.5874999999999
 21
777.2374999999999
 31
0.0
  0
LINE
  5
4E3
330
1D3
100
AcDbEntity
  8
1
  6
Continuous
 62
     7
100
AcDbLine
 10
515.5874999999999
 20
777.2374999999999
 30
0.0
 11
525.5874999999998
 21
767.2375
 31
0.0
  0
LINE
  5
4E4
330
1D3
100
AcDbEntity
  8
1
  6
Continuous
 62
     7
100
AcDbLine
 10
525.5874999999998
 20
767.2375
 30
0.0
 11
535.5875000000003
 21
777.2374999999999
 31
0.0
  0
LINE
  5
4E5
330
1D3
100
AcDbEntity
  8
1
  6
Continuous
 62
     7
100
AcDbLine
 10
535.5875000000003
 20
777.2374999999999
 30
0.0
 11
545.5874999999998
 21
767.2375
 31
0.0
  0
LINE
  5
4E6
330
1D3
100
AcDbEntity
  8
1
  6
Continuous
 62
     7
100
AcDbLine
 10
545.5874999999998
 20
767.2375
 30
0.0
 11
555.5874999999998
 21
777.2374999999999
 31
0.0
  0
LINE
  5
4E7
330
1D3
100
AcDbEntity
  8
1
  6
Continuous
 62
     7
100
AcDbLine
 10
555.5874999999998
 20
777.2374999999999
 30
0.0
 11
565.5874999999999
 21
767.2375
 31
0.0
  0
LINE
  5
4E8
330
1D3
100
AcDbEntity
  8
1
  6
Continuous
 62
     7
100
AcDbLine
 10
565.5874999999999
 20
767.2375
 30
0.0
 11
575.5874999999998
 21
777.2374999999999
 31
0.0
  0
LINE
  5
4E9
330
1D3
100
AcDbEntity
  8
1
  6
Continuous
 62
     7
100
AcDbLine
 10
575.5874999999998
 20
777.2374999999999
 30
0.0
 11
585.5875000000003
 21
767.2375
 31
0.0
  0
LINE
  5
4EA
330
1D3
100
AcDbEntity
  8
1
  6
Continuous
 62
     7
100
AcDbLine
 10
585.5875000000003
 20
767.2375
 30
0.0
 11
595.5874999999998
 21
777.2374999999999
 31
0.0
  0
LINE
  5
4EB
330
1D3
100
AcDbEntity
  8
1
  6
Continuous
 62
     7
100
AcDbLine
 10
595.5874999999998
 20
777.2374999999999
 30
0.0
 11
605.5875000000003
 21
767.2375
 31
0.0
  0
LINE
  5
4EC
330
1D3
100
AcDbEntity
  8
1
  6
Continuous
 62
     7
100
AcDbLine
 10
605.5875000000003
 20
767.2375
 30
0.0
 11
615.5874999999999
 21
777.2374999999999
 31
0.0
  0
LINE
  5
4ED
330
1D3
100
AcDbEntity
  8
1
  6
Continuous
 62
     7
100
AcDbLine
 10
615.5874999999999
 20
777.2374999999999
 30
0.0
 11
625.5874999999998
 21
767.2375
 31
0.0
  0
LINE
  5
4EE
330
1D3
100
AcDbEntity
  8
1
  6
Continuous
 62
     7
100
AcDbLine
 10
625.5874999999998
 20
767.2375
 30
0.0
 11
635.5875000000003
 21
777.2374999999999
 31
0.0
  0
LINE
  5
4EF
330
1D3
100
AcDbEntity
  8
1
  6
Continuous
 62
     7
100
AcDbLine
 10
635.5875000000003
 20
777.2374999999999
 30
0.0
 11
645.5874999999998
 21
767.2375
 31
0.0
  0
LINE
  5
4F0
330
1D3
100
AcDbEntity
  8
1
  6
Continuous
 62
     7
100
AcDbLine
 10
515.5874999999999
 20
567.2375
 30
0.0
 11
505.5874999999998
 21
767.2375
 31
0.0
  0
LINE
  5
4F1
330
1D3
100
AcDbEntity
  8
1
  6
Continuous
 62
     7
100
AcDbLine
 10
525.5874999999998
 20
767.2375
 30
0.0
 11
535.5875000000003
 21
567.2375
 31
0.0
  0
LINE
  5
4F2
330
1D3
100
AcDbEntity
  8
1
  6
Continuous
 62
     7
100
AcDbLine
 10
555.5874999999998
 20
567.2375
 30
0.0
 11
545.5874999999998
 21
767.2375
 31
0.0
  0
LINE
  5
4F3
330
1D3
100
AcDbEntity
  8
1
  6
Continuous
 62
     7
100
AcDbLine
 10
565.5874999999999
 20
767.2375
 30
0.0
 11
575.5874999999998
 21
567.2375
 31
0.0
  0
LINE
  5
4F4
330
1D3
100
AcDbEntity
  8
1
  6
Continuous
 62
     7
100
AcDbLine
 10
595.5874999999998
 20
567.2375
 30
0.0
 11
585.5875000000003
 21
767.2375
 31
0.0
  0
LINE
  5
4F5
330
1D3
100
AcDbEntity
  8
1
  6
Continuous
 62
     7
100
AcDbLine
 10
605.5875000000003
 20
767.2375
 30
0.0
 11
615.5874999999999
 21
567.2375
 31
0.0
  0
LINE
  5
4F6
330
1D3
100
AcDbEntity
  8
1
  6
Continuous
 62
     7
100
AcDbLine
 10
635.5875000000003
 20
567.2375
 30
0.0
 11
625.5874999999998
 21
767.2375
 31
0.0
  0
LINE
  5
4F7
330
1D3
100
AcDbEntity
  8
1
  6
Continuous
 62
     7
100
AcDbLine
 10
635.5875000000003
 20
567.2375
 30
0.0
 11
645.5874999999998
 21
557.2375
 31
0.0
  0
LINE
  5
4F8
330
1D3
100
AcDbEntity
  8
1
  6
Continuous
 62
     7
100
AcDbLine
 10
685.5875000000003
 20
567.2374999999998
 30
0.0
 11
785.5875000000003
 21
667.2374999999998
 31
0.0
  0
LINE
  5
4F9
330
1D3
100
AcDbEntity
  8
1
  6
Continuous
 62
     7
100
AcDbLine
 10
785.5875000000003
 20
667.2374999999998
 30
0.0
 11
885.5874999999999
 21
567.2374999999998
 31
0.0
  0
LINE
  5
4FA
330
1D3
100
AcDbEntity
  8
1
  6
Continuous
 62
     7
100
AcDbLine
 10
505.5874999999998
 20
821.2374999999997
 30
0.0
 11
666.04375
 21
821.2374999999997
 31
0.0
  0
LINE
  5
4FB
330
1D3
100
AcDbEntity
  8
1
  6
Continuous
 62
     7
100
AcDbLine
 10
955.5875000000003
 20
821.2374999999997
 30
0.0
 11
905.1312500000001
 21
821.2374999999997
 31
0.0
  0
LINE
  5
4FC
330
1D3
100
AcDbEntity
  8
1
  6
Continuous
 62
     7
100
AcDbLine
 10
681.04375
 20
802.2375
 30
0.0
 11
890.1312500000006
 21
802.2375
 31
0.0
  0
LINE
  5
4FD
330
1D3
100
AcDbEntity
  8
1
  6
Continuous
 62
     7
100
AcDbLine
 10
1085.5875
 20
535.86875
 30
0.0
 11
1075.5875
 21
525.8687499999998
 31
0.0
  0
LINE
  5
4FE
330
1D3
100
AcDbEntity
  8
1
  6
Continuous
 62
     7
100
AcDbLine
 10
1075.5875
 20
525.8687499999998
 30
0.0
 11
1065.5875
 21
535.86875
 31
0.0
  0
LINE
  5
4FF
330
1D3
100
AcDbEntity
  8
1
  6
Continuous
 62
     7
100
AcDbLine
 10
1065.5875
 20
535.86875
 30
0.0
 11
1055.5875
 21
525.8687499999998
 31
0.0
  0
LINE
  5
500
330
1D3
100
AcDbEntity
  8
1
  6
Continuous
 62
     7
100
AcDbLine
 10
1055.5875
 20
525.8687499999998
 30
0.0
 11
1045.5875
 21
535.86875
 31
0.0
  0
LINE
  5
501
330
1D3
100
AcDbEntity
  8
1
  6
Continuous
 62
     7
100
AcDbLine
 10
1045.5875
 20
535.86875
 30
0.0
 11
1035.5875
 21
525.8687499999998
 31
0.0
  0
LINE
  5
502
330
1D3
100
AcDbEntity
  8
1
  6
Continuous
 62
     7
100
AcDbLine
 10
1035.5875
 20
525.8687499999998
 30
0.0
 11
1025.5875
 21
535.86875
 31
0.0
  0
LINE
  5
503
330
1D3
100
AcDbEntity
  8
1
  6
Continuous
 62
     7
100
AcDbLine
 10
1025.5875
 20
535.86875
 30
0.0
 11
1015.5875
 21
525.8687499999998
 31
0.0
  0
LINE
  5
504
330
1D3
100
AcDbEntity
  8
1
  6
Continuous
 62
     7
100
AcDbLine
 10
1015.5875
 20
525.8687499999998
 30
0.0
 11
1005.5875
 21
535.86875
 31
0.0
  0
LINE
  5
505
330
1D3
100
AcDbEntity
  8
1
  6
Continuous
 62
     7
100
AcDbLine
 10
1005.5875
 20
535.86875
 30
0.0
 11
995.5875000000004
 21
525.8687499999998
 31
0.0
  0
LINE
  5
506
330
1D3
100
AcDbEntity
  8
1
  6
Continuous
 62
     7
100
AcDbLine
 10
995.5875000000004
 20
525.8687499999998
 30
0.0
 11
985.5875000000002
 21
535.86875
 31
0.0
  0
LINE
  5
507
330
1D3
100
AcDbEntity
  8
1
  6
Continuous
 62
     7
100
AcDbLine
 10
985.5875000000002
 20
535.86875
 30
0.0
 11
975.5875000000003
 21
525.8687499999998
 31
0.0
  0
LINE
  5
508
330
1D3
100
AcDbEntity
  8
1
  6
Continuous
 62
     7
100
AcDbLine
 10
975.5875000000003
 20
525.8687499999998
 30
0.0
 11
965.5875000000003
 21
535.86875
 31
0.0
  0
LINE
  5
509
330
1D3
100
AcDbEntity
  8
1
  6
Continuous
 62
     7
100
AcDbLine
 10
1281.21875
 20
777.2374999999999
 30
0.0
 11
1281.21875
 21
557.2375
 31
0.0
  0
LINE
  5
50A
330
1D3
100
AcDbEntity
  8
1
  6
Continuous
 62
     7
100
AcDbLine
 10
1070.675
 20
767.2374999999998
 30
0.0
 11
1121.21875
 21
767.2374999999998
 31
0.0
  0
LINE
  5
50B
330
1D3
100
AcDbEntity
  8
1
  6
Continuous
 62
     7
100
AcDbLine
 10
1123.04375
 20
793.2374999999998
 30
0.0
 11
1141.04375
 21
793.2374999999998
 31
0.0
  0
LINE
  5
50C
330
1D3
100
AcDbEntity
  8
1
  6
Continuous
 62
     7
100
AcDbLine
 10
1272.5875
 20
785.86875
 30
0.0
 11
1281.21875
 21
777.2374999999998
 31
0.0
  0
LINE
  5
50D
330
1D3
100
AcDbEntity
  8
1
  6
Continuous
 62
     7
100
AcDbLine
 10
1101.218749999999
 20
789.2625
 30
0.0
 11
1101.218749999999
 21
803.8687499999998
 31
0.0
  0
LINE
  5
50E
330
1D3
100
AcDbEntity
  8
1
  6
Continuous
 62
     7
100
AcDbLine
 10
1070.675
 20
567.2374999999998
 30
0.0
 11
1121.21875
 21
567.2374999999998
 31
0.0
  0
LINE
  5
50F
330
1D3
100
AcDbEntity
  8
1
  6
Continuous
 62
     7
100
AcDbLine
 10
1111.21875
 20
567.2374999999998
 30
0.0
 11
1111.21875
 21
767.2374999999998
 31
0.0
  0
LINE
  5
510
330
1D3
100
AcDbEntity
  8
1
  6
Continuous
 62
     7
100
AcDbLine
 10
1121.21875
 20
767.2375
 30
0.0
 11
1121.21875
 21
557.2375
 31
0.0
  0
LINE
  5
511
330
1D3
100
AcDbEntity
  8
1
  6
Continuous
 62
     7
100
AcDbLine
 10
1281.21875
 20
767.2375
 30
0.0
 11
1271.21875
 21
567.2375
 31
0.0
  0
LINE
  5
512
330
1D3
100
AcDbEntity
  8
1
  6
Continuous
 62
     7
100
AcDbLine
 10
1281.21875
 20
557.2375
 30
0.0
 11
1271.21875
 21
567.2375
 31
0.0
  0
LINE
  5
513
330
1D3
100
AcDbEntity
  8
1
  6
Continuous
 62
     7
100
AcDbLine
 10
1271.21875
 20
567.2375
 30
0.0
 11
1261.21875
 21
557.2375
 31
0.0
  0
LINE
  5
514
330
1D3
100
AcDbEntity
  8
1
  6
Continuous
 62
     7
100
AcDbLine
 10
1261.21875
 20
557.2375
 30
0.0
 11
1251.21875
 21
567.2375
 31
0.0
  0
LINE
  5
515
330
1D3
100
AcDbEntity
  8
1
  6
Continuous
 62
     7
100
AcDbLine
 10
1251.21875
 20
567.2375
 30
0.0
 11
1241.21875
 21
557.2375
 31
0.0
  0
LINE
  5
516
330
1D3
100
AcDbEntity
  8
1
  6
Continuous
 62
     7
100
AcDbLine
 10
1241.21875
 20
557.2375
 30
0.0
 11
1231.21875
 21
567.2375
 31
0.0
  0
LINE
  5
517
330
1D3
100
AcDbEntity
  8
1
  6
Continuous
 62
     7
100
AcDbLine
 10
1231.21875
 20
567.2375
 30
0.0
 11
1221.21875
 21
557.2375
 31
0.0
  0
LINE
  5
518
330
1D3
100
AcDbEntity
  8
1
  6
Continuous
 62
     7
100
AcDbLine
 10
1221.21875
 20
557.2375
 30
0.0
 11
1211.21875
 21
567.2375
 31
0.0
  0
LINE
  5
519
330
1D3
100
AcDbEntity
  8
1
  6
Continuous
 62
     7
100
AcDbLine
 10
1211.21875
 20
567.2375
 30
0.0
 11
1201.21875
 21
557.2375
 31
0.0
  0
LINE
  5
51A
330
1D3
100
AcDbEntity
  8
1
  6
Continuous
 62
     7
100
AcDbLine
 10
1201.21875
 20
557.2375
 30
0.0
 11
1191.218749999999
 21
567.2375
 31
0.0
  0
LINE
  5
51B
330
1D3
100
AcDbEntity
  8
1
  6
Continuous
 62
     7
100
AcDbLine
 10
1191.218749999999
 20
567.2375
 30
0.0
 11
1181.218749999999
 21
557.2375
 31
0.0
  0
LINE
  5
51C
330
1D3
100
AcDbEntity
  8
1
  6
Continuous
 62
     7
100
AcDbLine
 10
1181.218749999999
 20
557.2375
 30
0.0
 11
1171.21875
 21
567.2375
 31
0.0
  0
LINE
  5
51D
330
1D3
100
AcDbEntity
  8
1
  6
Continuous
 62
     7
100
AcDbLine
 10
1171.21875
 20
567.2375
 30
0.0
 11
1161.21875
 21
557.2375
 31
0.0
  0
LINE
  5
51E
330
1D3
100
AcDbEntity
  8
1
  6
Continuous
 62
     7
100
AcDbLine
 10
1161.21875
 20
557.2375
 30
0.0
 11
1151.218749999999
 21
567.2375
 31
0.0
  0
LINE
  5
51F
330
1D3
100
AcDbEntity
  8
1
  6
Continuous
 62
     7
100
AcDbLine
 10
1151.218749999999
 20
567.2375
 30
0.0
 11
1141.218749999999
 21
557.2375
 31
0.0
  0
LINE
  5
520
330
1D3
100
AcDbEntity
  8
1
  6
Continuous
 62
     7
100
AcDbLine
 10
1141.218749999999
 20
557.2375
 30
0.0
 11
1131.21875
 21
567.2375
 31
0.0
  0
LINE
  5
521
330
1D3
100
AcDbEntity
  8
1
  6
Continuous
 62
     7
100
AcDbLine
 10
1281.21875
 20
767.2375
 30
0.0
 11
1271.21875
 21
777.2374999999999
 31
0.0
  0
LINE
  5
522
330
1D3
100
AcDbEntity
  8
1
  6
Continuous
 62
     7
100
AcDbLine
 10
1271.21875
 20
777.2374999999999
 30
0.0
 11
1261.21875
 21
767.2375
 31
0.0
  0
LINE
  5
523
330
1D3
100
AcDbEntity
  8
1
  6
Continuous
 62
     7
100
AcDbLine
 10
1261.21875
 20
767.2375
 30
0.0
 11
1251.21875
 21
777.2374999999999
 31
0.0
  0
LINE
  5
524
330
1D3
100
AcDbEntity
  8
1
  6
Continuous
 62
     7
100
AcDbLine
 10
1251.21875
 20
777.2374999999999
 30
0.0
 11
1241.21875
 21
767.2375
 31
0.0
  0
LINE
  5
525
330
1D3
100
AcDbEntity
  8
1
  6
Continuous
 62
     7
100
AcDbLine
 10
1241.21875
 20
767.2375
 30
0.0
 11
1231.21875
 21
777.2374999999999
 31
0.0
  0
LINE
  5
526
330
1D3
100
AcDbEntity
  8
1
  6
Continuous
 62
     7
100
AcDbLine
 10
1231.21875
 20
777.2374999999999
 30
0.0
 11
1221.21875
 21
767.2375
 31
0.0
  0
LINE
  5
527
330
1D3
100
AcDbEntity
  8
1
  6
Continuous
 62
     7
100
AcDbLine
 10
1221.21875
 20
767.2375
 30
0.0
 11
1211.21875
 21
777.2374999999999
 31
0.0
  0
LINE
  5
528
330
1D3
100
AcDbEntity
  8
1
  6
Continuous
 62
     7
100
AcDbLine
 10
1211.21875
 20
777.2374999999999
 30
0.0
 11
1201.21875
 21
767.2375
 31
0.0
  0
LINE
  5
529
330
1D3
100
AcDbEntity
  8
1
  6
Continuous
 62
     7
100
AcDbLine
 10
1201.21875
 20
767.2375
 30
0.0
 11
1191.218749999999
 21
777.2374999999999
 31
0.0
  0
LINE
  5
52A
330
1D3
100
AcDbEntity
  8
1
  6
Continuous
 62
     7
100
AcDbLine
 10
1191.218749999999
 20
777.2374999999999
 30
0.0
 11
1181.218749999999
 21
767.2375
 31
0.0
  0
LINE
  5
52B
330
1D3
100
AcDbEntity
  8
1
  6
Continuous
 62
     7
100
AcDbLine
 10
1181.218749999999
 20
767.2375
 30
0.0
 11
1171.21875
 21
777.2374999999999
 31
0.0
  0
LINE
  5
52C
330
1D3
100
AcDbEntity
  8
1
  6
Continuous
 62
     7
100
AcDbLine
 10
1171.21875
 20
777.2374999999999
 30
0.0
 11
1161.21875
 21
767.2375
 31
0.0
  0
LINE
  5
52D
330
1D3
100
AcDbEntity
  8
1
  6
Continuous
 62
     7
100
AcDbLine
 10
1161.21875
 20
767.2375
 30
0.0
 11
1151.218749999999
 21
777.2374999999999
 31
0.0
  0
LINE
  5
52E
330
1D3
100
AcDbEntity
  8
1
  6
Continuous
 62
     7
100
AcDbLine
 10
1151.218749999999
 20
777.2374999999999
 30
0.0
 11
1141.218749999999
 21
767.2375
 31
0.0
  0
LINE
  5
52F
330
1D3
100
AcDbEntity
  8
1
  6
Continuous
 62
     7
100
AcDbLine
 10
1141.218749999999
 20
767.2375
 30
0.0
 11
1131.21875
 21
777.2374999999999
 31
0.0
  0
LINE
  5
530
330
1D3
100
AcDbEntity
  8
1
  6
Continuous
 62
     7
100
AcDbLine
 10
1131.21875
 20
777.2374999999999
 30
0.0
 11
1121.21875
 21
767.2375
 31
0.0
  0
LINE
  5
531
330
1D3
100
AcDbEntity
  8
1
  6
Continuous
 62
     7
100
AcDbLine
 10
1251.21875
 20
567.2375
 30
0.0
 11
1261.21875
 21
767.2375
 31
0.0
  0
LINE
  5
532
330
1D3
100
AcDbEntity
  8
1
  6
Continuous
 62
     7
100
AcDbLine
 10
1241.21875
 20
767.2375
 30
0.0
 11
1231.21875
 21
567.2375
 31
0.0
  0
LINE
  5
533
330
1D3
100
AcDbEntity
  8
1
  6
Continuous
 62
     7
100
AcDbLine
 10
1211.21875
 20
567.2375
 30
0.0
 11
1221.21875
 21
767.2375
 31
0.0
  0
LINE
  5
534
330
1D3
100
AcDbEntity
  8
1
  6
Continuous
 62
     7
100
AcDbLine
 10
1201.21875
 20
767.2375
 30
0.0
 11
1191.218749999999
 21
567.2375
 31
0.0
  0
LINE
  5
535
330
1D3
100
AcDbEntity
  8
1
  6
Continuous
 62
     7
100
AcDbLine
 10
1171.21875
 20
567.2375
 30
0.0
 11
1181.218749999999
 21
767.2375
 31
0.0
  0
LINE
  5
536
330
1D3
100
AcDbEntity
  8
1
  6
Continuous
 62
     7
100
AcDbLine
 10
1161.21875
 20
767.2375
 30
0.0
 11
1151.218749999999
 21
567.2375
 31
0.0
  0
LINE
  5
537
330
1D3
100
AcDbEntity
  8
1
  6
Continuous
 62
     7
100
AcDbLine
 10
1131.21875
 20
567.2375
 30
0.0
 11
1141.218749999999
 21
767.2375
 31
0.0
  0
LINE
  5
538
330
1D3
100
AcDbEntity
  8
1
  6
Continuous
 62
     7
100
AcDbLine
 10
1131.21875
 20
567.2375
 30
0.0
 11
1121.21875
 21
557.2375
 31
0.0
  0
LINE
  5
539
330
1D3
100
AcDbEntity
  8
1
  6
Continuous
 62
     7
100
AcDbLine
 10
955.5875000000003
 20
517.2374999999998
 30
0.0
 11
955.5875000000003
 21
535.86875
 31
0.0
  0
LINE
  5
53A
330
1D3
100
AcDbEntity
  8
1
  6
Continuous
 62
     7
100
AcDbLine
 10
955.5875000000003
 20
535.86875
 30
0.0
 11
965.5875000000003
 21
535.86875
 31
0.0
  0
LINE
  5
53B
330
1D3
100
AcDbEntity
  8
1
  6
Continuous
 62
     7
100
AcDbLine
 10
955.5875000000003
 20
798.60625
 30
0.0
 11
955.5875000000003
 21
821.2374999999997
 31
0.0
  0
LINE
  5
53C
330
1D3
100
AcDbEntity
  8
1
  6
Continuous
 62
     7
100
AcDbLine
 10
1085.5875
 20
798.60625
 30
0.0
 11
1075.5875
 21
808.60625
 31
0.0
  0
LINE
  5
53D
330
1D3
100
AcDbEntity
  8
1
  6
Continuous
 62
     7
100
AcDbLine
 10
1075.5875
 20
808.60625
 30
0.0
 11
1065.5875
 21
798.60625
 31
0.0
  0
LINE
  5
53E
330
1D3
100
AcDbEntity
  8
1
  6
Continuous
 62
     7
100
AcDbLine
 10
1065.5875
 20
798.60625
 30
0.0
 11
1055.5875
 21
808.60625
 31
0.0
  0
LINE
  5
53F
330
1D3
100
AcDbEntity
  8
1
  6
Continuous
 62
     7
100
AcDbLine
 10
1055.5875
 20
808.60625
 30
0.0
 11
1045.5875
 21
798.60625
 31
0.0
  0
LINE
  5
540
330
1D3
100
AcDbEntity
  8
1
  6
Continuous
 62
     7
100
AcDbLine
 10
1045.5875
 20
798.60625
 30
0.0
 11
1035.5875
 21
808.60625
 31
0.0
  0
LINE
  5
541
330
1D3
100
AcDbEntity
  8
1
  6
Continuous
 62
     7
100
AcDbLine
 10
1035.5875
 20
808.60625
 30
0.0
 11
1025.5875
 21
798.60625
 31
0.0
  0
LINE
  5
542
330
1D3
100
AcDbEntity
  8
1
  6
Continuous
 62
     7
100
AcDbLine
 10
1025.5875
 20
798.60625
 30
0.0
 11
1015.5875
 21
808.60625
 31
0.0
  0
LINE
  5
543
330
1D3
100
AcDbEntity
  8
1
  6
Continuous
 62
     7
100
AcDbLine
 10
1015.5875
 20
808.60625
 30
0.0
 11
1005.5875
 21
798.60625
 31
0.0
  0
LINE
  5
544
330
1D3
100
AcDbEntity
  8
1
  6
Continuous
 62
     7
100
AcDbLine
 10
1005.5875
 20
798.60625
 30
0.0
 11
995.5875000000004
 21
808.60625
 31
0.0
  0
LINE
  5
545
330
1D3
100
AcDbEntity
  8
1
  6
Continuous
 62
     7
100
AcDbLine
 10
995.5875000000004
 20
808.60625
 30
0.0
 11
985.5875000000002
 21
798.60625
 31
0.0
  0
LINE
  5
546
330
1D3
100
AcDbEntity
  8
1
  6
Continuous
 62
     7
100
AcDbLine
 10
985.5875000000002
 20
798.60625
 30
0.0
 11
975.5875000000003
 21
808.60625
 31
0.0
  0
LINE
  5
547
330
1D3
100
AcDbEntity
  8
1
  6
Continuous
 62
     7
100
AcDbLine
 10
975.5875000000003
 20
808.60625
 30
0.0
 11
965.5875000000003
 21
798.60625
 31
0.0
  0
LINE
  5
548
330
1D3
100
AcDbEntity
  8
1
  6
Continuous
 62
     7
100
AcDbLine
 10
965.5875000000003
 20
821.2374999999997
 30
0.0
 11
965.5875000000003
 21
798.60625
 31
0.0
  0
LINE
  5
549
330
1D3
100
AcDbEntity
  8
1
  6
Continuous
 62
     7
100
AcDbLine
 10
1064.675
 20
767.2374999999998
 30
0.0
 11
1101.218749999999
 21
789.2625
 31
0.0
  0
LINE
  5
54A
330
1D3
100
AcDbEntity
  8
1
  6
Continuous
 62
     7
100
AcDbLine
 10
955.5875000000003
 20
798.60625
 30
0.0
 11
965.5875000000003
 21
798.60625
 31
0.0
  0
LINE
  5
54B
330
1D3
100
AcDbEntity
  8
1
  6
Continuous
 62
     7
100
AcDbLine
 10
1064.675
 20
767.2374999999998
 30
0.0
 11
1064.675
 21
567.2374999999998
 31
0.0
  0
LINE
  5
54C
330
1D3
100
AcDbEntity
  8
1
  6
Continuous
 62
     7
100
AcDbLine
 10
1070.675
 20
770.85625
 30
0.0
 11
1070.675
 21
563.61875
 31
0.0
  0
LINE
  5
54D
330
1D3
100
AcDbEntity
  8
1
  6
Continuous
 62
     7
100
AcDbLine
 10
1095.5875
 20
808.60625
 30
0.0
 11
1085.5875
 21
798.60625
 31
0.0
  0
LINE
  5
54E
330
1D3
100
AcDbEntity
  8
1
  6
Continuous
 62
     7
100
AcDbLine
 10
1095.5875
 20
785.86875
 30
0.0
 11
1095.5875
 21
808.60625
 31
0.0
  0
LINE
  5
54F
330
1D3
100
AcDbEntity
  8
1
  6
Continuous
 62
     7
100
AcDbLine
 10
1141.04375
 20
785.86875
 30
0.0
 11
1272.5875
 21
785.86875
 31
0.0
  0
LINE
  5
550
330
1D3
100
AcDbEntity
  8
1
  6
Continuous
 62
     7
100
AcDbLine
 10
1101.218749999999
 20
803.8687499999998
 30
0.0
 11
1123.04375
 21
803.8687499999998
 31
0.0
  0
LINE
  5
551
330
1D3
100
AcDbEntity
  8
1
  6
Continuous
 62
     7
100
AcDbLine
 10
1123.04375
 20
793.2374999999998
 30
0.0
 11
1123.04375
 21
805.8687499999999
 31
0.0
  0
LINE
  5
552
330
1D3
100
AcDbEntity
  8
1
  6
Continuous
 62
     7
100
AcDbLine
 10
1095.5875
 20
805.8687499999999
 30
0.0
 11
1123.04375
 21
805.8687499999999
 31
0.0
  0
LINE
  5
553
330
1D3
100
AcDbEntity
  8
1
  6
Continuous
 62
     7
100
AcDbLine
 10
1141.04375
 20
785.86875
 30
0.0
 11
1141.04375
 21
793.2374999999998
 31
0.0
  0
LINE
  5
554
330
1D3
100
AcDbEntity
  8
1
  6
Continuous
 62
     7
100
AcDbLine
 10
1141.04375
 20
795.2374999999998
 30
0.0
 11
1141.04375
 21
821.2374999999997
 31
0.0
  0
LINE
  5
555
330
1D3
100
AcDbEntity
  8
1
  6
Continuous
 62
     7
100
AcDbLine
 10
1123.04375
 20
795.2374999999998
 30
0.0
 11
1141.04375
 21
795.2374999999998
 31
0.0
  0
LINE
  5
556
330
1D3
100
AcDbEntity
  8
1
  6
Continuous
 62
     7
100
AcDbLine
 10
965.5875000000003
 20
821.2374999999997
 30
0.0
 11
1141.04375
 21
821.2374999999997
 31
0.0
  0
LINE
  5
557
330
1D3
100
AcDbEntity
  8
1
  6
Continuous
 62
     7
100
AcDbLine
 10
1123.04375
 20
541.2374999999998
 30
0.0
 11
1141.04375
 21
541.2374999999998
 31
0.0
  0
LINE
  5
558
330
1D3
100
AcDbEntity
  8
1
  6
Continuous
 62
     7
100
AcDbLine
 10
1101.218749999999
 20
545.2124999999998
 30
0.0
 11
1101.218749999999
 21
530.60625
 31
0.0
  0
LINE
  5
559
330
1D3
100
AcDbEntity
  8
1
  6
Continuous
 62
     7
100
AcDbLine
 10
1085.5875
 20
535.86875
 30
0.0
 11
1075.5875
 21
525.8687499999998
 31
0.0
  0
LINE
  5
55A
330
1D3
100
AcDbEntity
  8
1
  6
Continuous
 62
     7
100
AcDbLine
 10
1075.5875
 20
525.8687499999998
 30
0.0
 11
1065.5875
 21
535.86875
 31
0.0
  0
LINE
  5
55B
330
1D3
100
AcDbEntity
  8
1
  6
Continuous
 62
     7
100
AcDbLine
 10
1065.5875
 20
535.86875
 30
0.0
 11
1055.5875
 21
525.8687499999998
 31
0.0
  0
LINE
  5
55C
330
1D3
100
AcDbEntity
  8
1
  6
Continuous
 62
     7
100
AcDbLine
 10
1055.5875
 20
525.8687499999998
 30
0.0
 11
1045.5875
 21
535.86875
 31
0.0
  0
LINE
  5
55D
330
1D3
100
AcDbEntity
  8
1
  6
Continuous
 62
     7
100
AcDbLine
 10
1045.5875
 20
535.86875
 30
0.0
 11
1035.5875
 21
525.8687499999998
 31
0.0
  0
LINE
  5
55E
330
1D3
100
AcDbEntity
  8
1
  6
Continuous
 62
     7
100
AcDbLine
 10
1035.5875
 20
525.8687499999998
 30
0.0
 11
1025.5875
 21
535.86875
 31
0.0
  0
LINE
  5
55F
330
1D3
100
AcDbEntity
  8
1
  6
Continuous
 62
     7
100
AcDbLine
 10
1025.5875
 20
535.86875
 30
0.0
 11
1015.5875
 21
525.8687499999998
 31
0.0
  0
LINE
  5
560
330
1D3
100
AcDbEntity
  8
1
  6
Continuous
 62
     7
100
AcDbLine
 10
1015.5875
 20
525.8687499999998
 30
0.0
 11
1005.5875
 21
535.86875
 31
0.0
  0
LINE
  5
561
330
1D3
100
AcDbEntity
  8
1
  6
Continuous
 62
     7
100
AcDbLine
 10
1005.5875
 20
535.86875
 30
0.0
 11
995.5875000000004
 21
525.8687499999998
 31
0.0
  0
LINE
  5
562
330
1D3
100
AcDbEntity
  8
1
  6
Continuous
 62
     7
100
AcDbLine
 10
995.5875000000004
 20
525.8687499999998
 30
0.0
 11
985.5875000000002
 21
535.86875
 31
0.0
  0
LINE
  5
563
330
1D3
100
AcDbEntity
  8
1
  6
Continuous
 62
     7
100
AcDbLine
 10
985.5875000000002
 20
535.86875
 30
0.0
 11
975.5875000000003
 21
525.8687499999998
 31
0.0
  0
LINE
  5
564
330
1D3
100
AcDbEntity
  8
1
  6
Continuous
 62
     7
100
AcDbLine
 10
975.5875000000003
 20
525.8687499999998
 30
0.0
 11
965.5875000000003
 21
535.86875
 31
0.0
  0
LINE
  5
565
330
1D3
100
AcDbEntity
  8
1
  6
Continuous
 62
     7
100
AcDbLine
 10
965.5875000000003
 20
513.2374999999998
 30
0.0
 11
965.5875000000003
 21
535.86875
 31
0.0
  0
LINE
  5
566
330
1D3
100
AcDbEntity
  8
1
  6
Continuous
 62
     7
100
AcDbLine
 10
1064.675
 20
567.2374999999998
 30
0.0
 11
1101.218749999999
 21
545.2124999999998
 31
0.0
  0
LINE
  5
567
330
1D3
100
AcDbEntity
  8
1
  6
Continuous
 62
     7
100
AcDbLine
 10
1095.5875
 20
525.8687499999998
 30
0.0
 11
1085.5875
 21
535.86875
 31
0.0
  0
LINE
  5
568
330
1D3
100
AcDbEntity
  8
1
  6
Continuous
 62
     7
100
AcDbLine
 10
1095.5875
 20
548.60625
 30
0.0
 11
1095.5875
 21
525.8687499999998
 31
0.0
  0
LINE
  5
569
330
1D3
100
AcDbEntity
  8
1
  6
Continuous
 62
     7
100
AcDbLine
 10
1101.218749999999
 20
530.60625
 30
0.0
 11
1123.04375
 21
530.60625
 31
0.0
  0
LINE
  5
56A
330
1D3
100
AcDbEntity
  8
1
  6
Continuous
 62
     7
100
AcDbLine
 10
1123.04375
 20
541.2374999999998
 30
0.0
 11
1123.04375
 21
528.60625
 31
0.0
  0
LINE
  5
56B
330
1D3
100
AcDbEntity
  8
1
  6
Continuous
 62
     7
100
AcDbLine
 10
1095.5875
 20
528.60625
 30
0.0
 11
1123.04375
 21
528.60625
 31
0.0
  0
LINE
  5
56C
330
1D3
100
AcDbEntity
  8
1
  6
Continuous
 62
     7
100
AcDbLine
 10
1141.04375
 20
548.60625
 30
0.0
 11
1141.04375
 21
541.2374999999998
 31
0.0
  0
LINE
  5
56D
330
1D3
100
AcDbEntity
  8
1
  6
Continuous
 62
     7
100
AcDbLine
 10
1141.04375
 20
539.2374999999998
 30
0.0
 11
1141.04375
 21
513.2374999999998
 31
0.0
  0
LINE
  5
56E
330
1D3
100
AcDbEntity
  8
1
  6
Continuous
 62
     7
100
AcDbLine
 10
1123.04375
 20
539.2374999999998
 30
0.0
 11
1141.04375
 21
539.2374999999998
 31
0.0
  0
LINE
  5
56F
330
1D3
100
AcDbEntity
  8
1
  6
Continuous
 62
     7
100
AcDbLine
 10
965.5875000000003
 20
513.2374999999998
 30
0.0
 11
1141.04375
 21
513.2374999999998
 31
0.0
  0
LINE
  5
570
330
1D3
100
AcDbEntity
  8
1
  6
Continuous
 62
     7
100
AcDbLine
 10
1141.04375
 20
548.60625
 30
0.0
 11
1272.5875
 21
548.60625
 31
0.0
  0
LINE
  5
571
330
1D3
100
AcDbEntity
  8
1
  6
Continuous
 62
     7
100
AcDbLine
 10
1272.5875
 20
548.60625
 30
0.0
 11
1281.21875
 21
557.2375
 31
0.0
  0
LINE
  5
572
330
1D3
100
AcDbEntity
  8
1
  6
Continuous
 62
     3
100
AcDbLine
 10
317.0437500000001
 20
666.7374999999998
 30
0.0
 11
475.5874999999998
 21
666.7374999999998
 31
0.0
  0
LINE
  5
573
330
1D3
100
AcDbEntity
  8
1
  6
Continuous
 62
     3
100
AcDbLine
 10
317.0437500000001
 20
366.7375
 30
0.0
 11
646.0000000000002
 21
366.7375
 31
0.0
  0
LINE
  5
574
330
1D3
100
AcDbEntity
  8
1
  6
Continuous
 62
     3
100
AcDbLine
 10
330.4937499999998
 20
366.7375
 30
0.0
 11
323.9375000000003
 21
390.45
 31
0.0
  0
LINE
  5
575
330
1D3
100
AcDbEntity
  8
1
  6
Continuous
 62
     3
100
AcDbLine
 10
330.4937499999998
 20
366.7375
 30
0.0
 11
337.0500000000004
 21
390.45
 31
0.0
  0
LINE
  5
576
330
1D3
100
AcDbEntity
  8
1
  6
Continuous
 62
     3
100
AcDbLine
 10
337.0500000000004
 20
390.45
 30
0.0
 11
323.9375000000003
 21
390.45
 31
0.0
  0
LINE
  5
577
330
1D3
100
AcDbEntity
  8
1
  6
Continuous
 62
     3
100
AcDbLine
 10
330.4937499999998
 20
666.7374999999998
 30
0.0
 11
337.0500000000004
 21
643.025
 31
0.0
  0
LINE
  5
578
330
1D3
100
AcDbEntity
  8
1
  6
Continuous
 62
     3
100
AcDbLine
 10
330.4937499999998
 20
666.7374999999998
 30
0.0
 11
323.9375000000003
 21
643.025
 31
0.0
  0
LINE
  5
579
330
1D3
100
AcDbEntity
  8
1
  6
Continuous
 62
     3
100
AcDbLine
 10
323.9375000000003
 20
643.025
 30
0.0
 11
337.0500000000004
 21
643.025
 31
0.0
  0
LINE
  5
57A
330
1D3
100
AcDbEntity
  8
1
  6
Continuous
 62
     3
100
AcDbLine
 10
635.5875000000003
 20
230.89375
 30
0.0
 11
635.5875000000003
 21
376.7375
 31
0.0
  0
LINE
  5
57B
330
1D3
100
AcDbEntity
  8
1
  6
Continuous
 62
     3
100
AcDbLine
 10
935.5875000000002
 20
230.89375
 30
0.0
 11
935.5875000000002
 21
376.7375
 31
0.0
  0
LINE
  5
57C
330
1D3
100
AcDbEntity
  8
1
  6
Continuous
 62
     3
100
AcDbLine
 10
659.2999999999999
 20
246.7375
 30
0.0
 11
911.8750000000002
 21
246.7375
 31
0.0
  0
LINE
  5
57D
330
1D3
100
AcDbEntity
  8
1
  6
Continuous
 62
     3
100
AcDbLine
 10
935.5875000000002
 20
246.7375
 30
0.0
 11
911.8750000000002
 21
240.18125
 31
0.0
  0
LINE
  5
57E
330
1D3
100
AcDbEntity
  8
1
  6
Continuous
 62
     3
100
AcDbLine
 10
935.5875000000002
 20
246.7375
 30
0.0
 11
911.8750000000002
 21
253.29375
 31
0.0
  0
LINE
  5
57F
330
1D3
100
AcDbEntity
  8
1
  6
Continuous
 62
     3
100
AcDbLine
 10
911.8750000000002
 20
253.29375
 30
0.0
 11
911.8750000000002
 21
240.18125
 31
0.0
  0
LINE
  5
580
330
1D3
100
AcDbEntity
  8
1
  6
Continuous
 62
     3
100
AcDbLine
 10
635.5875000000003
 20
246.7375
 30
0.0
 11
659.2999999999999
 21
253.29375
 31
0.0
  0
LINE
  5
581
330
1D3
100
AcDbEntity
  8
1
  6
Continuous
 62
     3
100
AcDbLine
 10
635.5875000000003
 20
246.7375
 30
0.0
 11
659.2999999999999
 21
240.18125
 31
0.0
  0
LINE
  5
582
330
1D3
100
AcDbEntity
  8
1
  6
Continuous
 62
     3
100
AcDbLine
 10
659.2999999999999
 20
240.18125
 30
0.0
 11
659.2999999999999
 21
253.29375
 31
0.0
  0
LINE
  5
583
330
1D3
100
AcDbEntity
  8
1
  6
Continuous
 62
     3
100
AcDbLine
 10
485.5812499999999
 20
776.0562499999998
 30
0.0
 11
485.5812499999999
 21
926.3687499999999
 31
0.0
  0
LINE
  5
584
330
1D3
100
AcDbEntity
  8
1
  6
Continuous
 62
     3
100
AcDbLine
 10
1281.21875
 20
786.05625
 30
0.0
 11
1281.21875
 21
926.3687499999999
 31
0.0
  0
LINE
  5
585
330
1D3
100
AcDbEntity
  8
1
  6
Continuous
 62
     3
100
AcDbLine
 10
485.5812499999999
 20
913.7375
 30
0.0
 11
509.29375
 21
920.29375
 31
0.0
  0
LINE
  5
586
330
1D3
100
AcDbEntity
  8
1
  6
Continuous
 62
     3
100
AcDbLine
 10
485.5812499999999
 20
913.7375
 30
0.0
 11
509.29375
 21
907.18125
 31
0.0
  0
LINE
  5
587
330
1D3
100
AcDbEntity
  8
1
  6
Continuous
 62
     3
100
AcDbLine
 10
509.29375
 20
907.18125
 30
0.0
 11
509.29375
 21
920.29375
 31
0.0
  0
LINE
  5
588
330
1D3
100
AcDbEntity
  8
1
  6
Continuous
 62
     3
100
AcDbLine
 10
509.29375
 20
913.7375
 30
0.0
 11
531.5875000000003
 21
913.7375
 31
0.0
  0
LINE
  5
589
330
1D3
100
AcDbEntity
  8
1
  6
Continuous
 62
     3
100
AcDbLine
 10
785.5875000000003
 20
812.2374999999998
 30
0.0
 11
785.5875000000003
 21
926.3687499999999
 31
0.0
  0
LINE
  5
58A
330
1D3
100
AcDbEntity
  8
1
  6
Continuous
 62
     3
100
AcDbLine
 10
509.29375
 20
913.7375
 30
0.0
 11
761.8750000000002
 21
913.7375
 31
0.0
  0
LINE
  5
58B
330
1D3
100
AcDbEntity
  8
1
  6
Continuous
 62
     3
100
AcDbLine
 10
809.2999999999999
 20
913.7375
 30
0.0
 11
1257.50625
 21
913.7375
 31
0.0
  0
LINE
  5
58C
330
1D3
100
AcDbEntity
  8
1
  6
Continuous
 62
     3
100
AcDbLine
 10
1281.21875
 20
913.7375
 30
0.0
 11
1257.50625
 21
907.18125
 31
0.0
  0
LINE
  5
58D
330
1D3
100
AcDbEntity
  8
1
  6
Continuous
 62
     3
100
AcDbLine
 10
1281.21875
 20
913.7375
 30
0.0
 11
1257.50625
 21
920.29375
 31
0.0
  0
LINE
  5
58E
330
1D3
100
AcDbEntity
  8
1
  6
Continuous
 62
     3
100
AcDbLine
 10
1257.50625
 20
920.29375
 30
0.0
 11
1257.50625
 21
907.18125
 31
0.0
  0
LINE
  5
58F
330
1D3
100
AcDbEntity
  8
1
  6
Continuous
 62
     3
100
AcDbLine
 10
785.5875000000003
 20
913.7375
 30
0.0
 11
761.8750000000002
 21
907.18125
 31
0.0
  0
LINE
  5
590
330
1D3
100
AcDbEntity
  8
1
  6
Continuous
 62
     3
100
AcDbLine
 10
785.5875000000003
 20
913.7375
 30
0.0
 11
761.8750000000002
 21
920.29375
 31
0.0
  0
LINE
  5
591
330
1D3
100
AcDbEntity
  8
1
  6
Continuous
 62
     3
100
AcDbLine
 10
761.8750000000002
 20
920.29375
 30
0.0
 11
761.8750000000002
 21
907.18125
 31
0.0
  0
LINE
  5
592
330
1D3
100
AcDbEntity
  8
1
  6
Continuous
 62
     3
100
AcDbLine
 10
785.5875000000003
 20
913.7375
 30
0.0
 11
809.2999999999999
 21
920.29375
 31
0.0
  0
LINE
  5
593
330
1D3
100
AcDbEntity
  8
1
  6
Continuous
 62
     3
100
AcDbLine
 10
785.5875000000003
 20
913.7375
 30
0.0
 11
809.2999999999999
 21
907.18125
 31
0.0
  0
LINE
  5
594
330
1D3
100
AcDbEntity
  8
1
  6
Continuous
 62
     3
100
AcDbLine
 10
809.2999999999999
 20
907.18125
 30
0.0
 11
809.2999999999999
 21
920.29375
 31
0.0
  0
LINE
  5
595
330
1D3
100
AcDbEntity
  8
1
  6
Continuous
 62
     3
100
AcDbLine
 10
809.2999999999999
 20
913.7375
 30
0.0
 11
831.5937500000002
 21
913.7375
 31
0.0
  0
LINE
  5
596
330
1D3
100
AcDbEntity
  8
1
  6
Continuous
 62
     7
100
AcDbLine
 10
666.04375
 20
821.2374999999997
 30
0.0
 11
681.04375
 21
802.2375
 31
0.0
  0
LINE
  5
597
330
1D3
100
AcDbEntity
  8
1
  6
Continuous
 62
     7
100
AcDbLine
 10
890.1312500000006
 20
802.2375
 30
0.0
 11
905.1312500000001
 21
821.2374999999997
 31
0.0
  0
LINE
  5
598
330
1D3
100
AcDbEntity
  8
1
  6
Continuous
 62
     5
100
AcDbLine
 10
330.4937499999998
 20
516.7374999999998
 30
0.0
 11
333.4937499999999
 21
516.7374999999998
 31
0.0
  0
LINE
  5
599
330
1D3
100
AcDbEntity
  8
1
  6
Continuous
 62
     5
100
AcDbLine
 10
635.5812499999999
 20
933.7374999999999
 30
0.0
 11
638.5812500000004
 21
933.7374999999999
 31
0.0
  0
LINE
  5
59A
330
1D3
100
AcDbEntity
  8
1
  6
Continuous
 62
     5
100
AcDbLine
 10
785.5875000000003
 20
266.7375
 30
0.0
 11
789.5875000000003
 21
266.7375
 31
0.0
  0
LINE
  5
59B
330
1D3
100
AcDbEntity
  8
1
  6
Continuous
 62
     5
100
AcDbLine
 10
1033.40625
 20
933.7374999999999
 30
0.0
 11
1038.40625
 21
933.7374999999999
 31
0.0
  0
LINE
  5
59C
330
1D3
100
AcDbEntity
  8
1
  6
Continuous
 62
     3
100
AcDbLine
 10
330.4937499999998
 20
390.45
 30
0.0
 11
330.4937499999998
 21
496.7375
 31
0.0
  0
LINE
  5
59D
330
1D3
100
AcDbEntity
  8
1
  6
Continuous
 62
     3
100
AcDbLine
 10
330.4937499999998
 20
536.7375
 30
0.0
 11
330.4937499999998
 21
643.025
 31
0.0
  0
ENDSEC
  0
SECTION
  2
OBJECTS
  0
DICTIONARY
  5
1C1
330
0
100
AcDbDictionary
281
     1
  3
ACAD_COLOR
350
386
  3
ACAD_GROUP
350
1C2
  3
ACAD_LAYOUT
350
1CE
  3
ACAD_MATERIAL
350
371
  3
ACAD_MLINESTYLE
350
1CB
  3
ACAD_PLOTSETTINGS
350
1CD
  3
ACAD_PLOTSTYLENAME
350
1C3
  3
ACAD_TABLESTYLE
350
387
  3
ACAD_VISUALSTYLE
350
375
  3
AcDbVariableDictionary
350
419
  3
DWGPROPS
350
5A1
  0
DICTIONARY
  5
3CC
330
1D3
100
AcDbDictionary
280
     1
281
     1
  3
ACAD_SORTENTS
360
3CD
  0
DICTIONARY
  5
386
102
{ACAD_REACTORS
330
1C1
102
}
330
1C1
100
AcDbDictionary
281
     1
  0
DICTIONARY
  5
1C2
102
{ACAD_REACTORS
330
1C1
102
}
330
1C1
100
AcDbDictionary
281
     1
  0
DICTIONARY
  5
1CE
102
{ACAD_REACTORS
330
1C1
102
}
330
1C1
100
AcDbDictionary
281
     1
  3
Layout1
350
1D2
  3
Model
350
1D6
  0
DICTIONARY
  5
371
102
{ACAD_REACTORS
330
1C1
102
}
330
1C1
100
AcDbDictionary
281
     1
  3
ByBlock
350
373
  3
ByLayer
350
372
  3
Global
350
374
  0
DICTIONARY
  5
1CB
102
{ACAD_REACTORS
330
1C1
102
}
330
1C1
100
AcDbDictionary
281
     1
  3
Standard
350
1CC
  0
DICTIONARY
  5
1CD
102
{ACAD_REACTORS
330
1C1
102
}
330
1C1
100
AcDbDictionary
281
     1
  0
ACDBDICTIONARYWDFLT
  5
1C3
102
{ACAD_REACTORS
330
1C1
102
}
330
1C1
100
AcDbDictionary
281
     1
  3
Normal
350
1C4
100
AcDbDictionaryWithDefault
340
1C4
  0
DICTIONARY
  5
387
102
{ACAD_REACTORS
330
1C1
102
}
330
1C1
100
AcDbDictionary
281
     1
  3
Standard
350
388
  0
DICTIONARY
  5
375
102
{ACAD_REACTORS
330
1C1
102
}
330
1C1
100
AcDbDictionary
281
     1
  3
2dWireframe
350
37B
  3
3D Hidden
350
37D
  3
3dWireframe
350
37C
  3
Basic
350
37A
  3
Brighten
350
381
  3
ColorChange
350
385
  3
Conceptual
350
37E
  3
Dim
350
380
  3
Facepattern
350
384
  3
Flat
350
376
  3
FlatWithEdges
350
377
  3
Gouraud
350
378
  3
GouraudWithEdges
350
379
  3
Linepattern
350
383
  3
Realistic
350
37F
  3
Thicken
350
382
  0
DICTIONARY
  5
419
102
{ACAD_REACTORS
330
1C1
102
}
330
1C1
100
AcDbDictionary
281
     1
  3
CTABLESTYLE
350
41A
  3
DIMASSOC
350
5A0
  3
INDEXCTL
350
59F
  3
SORTENTS
350
59E
  0
XRECORD
  5
5A1
102
{ACAD_REACTORS
330
1C1
102
}
330
1C1
100
AcDbXrecord
280
     1
  1
DWGPROPS COOKIE
  2

  3

  4

  6

  7

  8
Horia
  9

300
=
301
=
302
=
303
=
304
=
305
=
306
=
307
=
308
=
309
=
 40
0.0130303587962963
 41
2453238.743125
 42
2456329.076081991
  1

 90
        0
  0
SORTENTSTABLE
  5
3CD
102
{ACAD_REACTORS
330
3CC
102
}
330
3CC
100
AcDbSortentsTable
330
1D3
331
429
  5
427
331
44B
  5
44B
331
3B2
  5
3B2
331
46D
  5
46D
331
3D4
  5
3D4
331
3F6
  5
3F5
331
2C8
  5
2C8
331
418
  5
43D
331
21C
  5
21C
331
43A
  5
433
331
3A1
  5
3A1
331
45C
  5
45C
331
3C3
  5
3C4
331
3E5
  5
3E5
331
407
  5
406
331
262
  5
262
331
449
  5
449
331
3B0
  5
3B0
331
46B
  5
46B
331
3D2
  5
3D2
331
3F4
  5
416
331
2C6
  5
2C6
331
416
  5
415
331
438
  5
431
331
21A
  5
21A
331
3C1
  5
3C2
331
47C
  5
475
331
3E3
  5
3DF
331
405
  5
404
331
427
  5
425
331
3F2
  5
3F2
331
414
  5
413
331
436
  5
42F
331
218
  5
218
331
3BF
  5
3C0
331
3E1
  5
3E2
331
403
  5
402
331
425
  5
422
331
447
  5
447
331
3AE
  5
3AE
331
3F0
  5
3F0
331
412
  5
411
331
434
  5
42D
331
478
  5
47C
331
3DF
  5
3E0
331
3BD
  5
3BE
331
401
  5
400
331
423
  5
423
331
445
  5
446
331
3AC
  5
3AC
331
467
  5
467
331
3CE
  5
3C5
331
432
  5
42B
331
410
  5
40F
331
454
  5
454
331
476
  5
478
331
3DD
  5
3DD
331
3BB
  5
3BC
331
3FF
  5
3FE
331
421
  5
420
331
443
  5
43B
331
3AA
  5
3AA
331
465
  5
465
331
3EE
  5
3EE
331
40E
  5
40D
331
430
  5
429
331
452
  5
452
331
474
  5
476
331
3DB
  5
3DB
331
3B9
  5
3BA
331
3FD
  5
3FC
331
41F
  5
41E
331
441
  5
43A
331
3A8
  5
3A8
331
463
  5
463
331
3EC
  5
3EC
331
3CA
  5
3CF
331
40C
  5
40C
331
42E
  5
442
331
472
  5
472
331
3D9
  5
3D9
331
3B7
  5
3B7
331
3FB
  5
3FA
331
2CD
  5
2CD
331
41D
  5
41C
331
43F
  5
436
331
3A6
  5
3A6
331
461
  5
461
331
3EA
  5
3EA
331
3C8
  5
3CA
331
267
  5
267
331
40A
  5
40A
331
42C
  5
440
331
44E
  5
44E
331
470
  5
470
331
3D7
  5
3D7
331
3B5
  5
3B5
331
3F9
  5
3F8
331
2CB
  5
2CB
331
41B
  5
418
331
43D
  5
438
331
3A4
  5
3A4
331
45F
  5
45F
331
3C6
  5
3C8
331
3E8
  5
3E8
331
39F
  5
39F
331
265
  5
265
331
1E3
  5
1E3
331
408
  5
408
331
42A
  5
43E
331
44C
  5
44C
331
3B3
  5
3B3
331
46E
  5
46E
331
3D5
  5
3D5
331
3F7
  5
3F6
331
2C9
  5
2C9
331
21D
  5
21D
331
43B
  5
435
331
3A2
  5
3A2
331
45D
  5
45D
331
3C4
  5
3C6
331
3E6
  5
3E6
331
39D
  5
39D
331
263
  5
263
331
428
  5
426
331
44A
  5
44A
331
3B1
  5
3B1
331
46C
  5
46C
331
3D3
  5
3D3
331
3F5
  5
3F4
331
2C7
  5
2C7
331
417
  5
417
331
21B
  5
21B
331
439
  5
432
331
3A0
  5
3A0
331
3C2
  5
3C3
331
47D
  5
473
331
3E4
  5
3E4
331
406
  5
405
331
261
  5
261
331
448
  5
448
331
46A
  5
46A
331
3D1
  5
3D1
331
3F3
  5
3F3
331
415
  5
414
331
437
  5
430
331
219
  5
219
331
3C0
  5
3C1
331
3E2
  5
3E3
331
404
  5
403
331
426
  5
424
331
3AF
  5
3AF
331
468
  5
468
331
3F1
  5
3F1
331
413
  5
412
331
435
  5
42E
331
3BE
  5
3BF
331
479
  5
47D
331
3E0
  5
3E1
331
402
  5
401
331
424
  5
428
331
3AD
  5
3AD
331
217
  5
217
331
411
  5
410
331
433
  5
42C
331
477
  5
479
331
3DE
  5
3DE
331
3BC
  5
3BD
331
400
  5
3FF
331
422
  5
421
331
444
  5
444
331
3AB
  5
3AB
331
466
  5
466
331
3EF
  5
3EF
331
431
  5
42A
331
40F
  5
40E
331
453
  5
453
331
475
  5
477
331
3DC
  5
3DC
331
3BA
  5
3BB
331
3FE
  5
3FD
331
420
  5
41F
331
442
  5
43C
331
3A9
  5
3A9
331
464
  5
464
331
3ED
  5
3ED
331
40D
  5
407
331
268
  5
268
331
42F
  5
443
331
451
  5
451
331
473
  5
474
331
3DA
  5
3DA
331
3B8
  5
3B8
331
3FC
  5
3FB
331
41E
  5
41D
331
440
  5
439
331
3A7
  5
3A7
331
462
  5
462
331
3EB
  5
3EB
331
3C9
  5
3CB
331
40B
  5
40B
331
42D
  5
441
331
44F
  5
44F
331
471
  5
471
331
3D8
  5
3D8
331
3B6
  5
3B6
331
3FA
  5
3F9
331
2CC
  5
2CC
331
41C
  5
41B
331
43E
  5
434
331
3A5
  5
3A5
331
460
  5
460
331
3E9
  5
3E9
331
3C7
  5
3C9
331
266
  5
266
331
1E4
  5
1E4
331
409
  5
409
331
42B
  5
43F
331
44D
  5
44D
331
3B4
  5
3B4
331
46F
  5
46F
331
3D6
  5
3D6
331
3F8
  5
3F7
331
2CA
  5
2CA
331
21E
  5
21E
331
43C
  5
437
331
3A3
  5
3A3
331
45E
  5
45E
331
3C5
  5
3C7
331
39E
  5
39E
331
3E7
  5
3E7
331
264
  5
264
  0
LAYOUT
  5
1D2
102
{ACAD_XDICTIONARY
360
5A2
102
}
102
{ACAD_REACTORS
330
1CE
102
}
330
1CE
100
AcDbPlotSettings
  1

  2
HP DeskJet 840C/841C/842C/843C
  4

  6

 40
0.0
 41
0.0
 42
0.0
 43
0.0
 44
0.0
 45
0.0
 46
0.0
 47
0.0
 48
0.0
 49
0.0
140
0.0
141
0.0
142
1.0
143
1.0
 70
   688
 72
     0
 73
     0
 74
     5
  7

 75
    16
147
1.0
148
0.0
149
0.0
100
AcDbLayout
  1
Layout1
 70
     0
 71
     1
 10
0.0
 20
0.0
 11
12.0
 21
9.0
 12
0.0
 22
0.0
 32
0.0
 14
-1.000000000000000E+20
 24
-1.000000000000000E+20
 34
-1.000000000000000E+20
 15
-1.000000000000000E+20
 25
-1.000000000000000E+20
 35
-1.000000000000000E+20
146
0.0
 13
0.0
 23
0.0
 33
0.0
 16
1.0
 26
0.0
 36
0.0
 17
0.0
 27
1.0
 37
0.0
 76
     0
330
1CF
  0
LAYOUT
  5
1D6
102
{ACAD_XDICTIONARY
360
5A4
102
}
102
{ACAD_REACTORS
330
1CE
102
}
330
1CE
100
AcDbPlotSettings
  1

  2
HP DeskJet 840C/841C/842C/843C
  4

  6

 40
0.0
 41
0.0
 42
0.0
 43
0.0
 44
0.0
 45
0.0
 46
0.0
 47
0.0
 48
0.0
 49
0.0
140
0.0
141
0.0
142
1.0
143
1.0
 70
  1712
 72
     0
 73
     0
 74
     0
  7

 75
     0
147
1.0
148
0.0
149
0.0
100
AcDbLayout
  1
Model
 70
     1
 71
     0
 10
0.0
 20
0.0
 11
12.0
 21
9.0
 12
0.0
 22
0.0
 32
0.0
 14
0.0
 24
0.0
 34
0.0
 15
0.0
 25
0.0
 35
0.0
146
0.0
 13
0.0
 23
0.0
 33
0.0
 16
1.0
 26
0.0
 36
0.0
 17
0.0
 27
1.0
 37
0.0
 76
     0
330
1D3
331
36E
  0
MATERIAL
  5
373
102
{ACAD_XDICTIONARY
360
5A8
102
}
102
{ACAD_REACTORS
330
371
102
}
330
371
100
AcDbMaterial
  1
ByBlock
  0
MATERIAL
  5
372
102
{ACAD_XDICTIONARY
360
5A6
102
}
102
{ACAD_REACTORS
330
371
102
}
330
371
100
AcDbMaterial
  1
ByLayer
  0
MATERIAL
  5
374
102
{ACAD_XDICTIONARY
360
5AA
102
}
102
{ACAD_REACTORS
330
371
102
}
330
371
100
AcDbMaterial
  1
Global
  0
MLINESTYLE
  5
1CC
102
{ACAD_REACTORS
330
1CB
102
}
330
1CB
100
AcDbMlineStyle
  2
STANDARD
 70
     0
  3

 62
   256
 51
90.0
 52
90.0
 71
     2
 49
0.5
 62
   256
  6
BYLAYER
 49
-0.5
 62
   256
  6
BYLAYER
  0
ACDBPLACEHOLDER
  5
1C4
102
{ACAD_REACTORS
330
1C3
102
}
330
1C3
  0
TABLESTYLE
  5
388
102
{ACAD_XDICTIONARY
360
5AC
102
}
102
{ACAD_REACTORS
330
387
102
}
330
387
100
AcDbTableStyle
  3
Standard
 70
     0
 71
     0
 40
0.06
 41
0.06
280
     0
281
     0
  7
STANDARD
140
0.18
170
     2
 62
     0
 63
     7
283
     0
274
    -2
284
     1
 64
     0
275
    -2
285
     1
 65
     0
276
    -2
286
     1
 66
     0
277
    -2
287
     1
 67
     0
278
    -2
288
     1
 68
     0
279
    -2
289
     1
 69
     0
  7
STANDARD
140
0.25
170
     5
 62
     0
 63
     7
283
     0
274
    -2
284
     1
 64
     0
275
    -2
285
     1
 65
     0
276
    -2
286
     1
 66
     0
277
    -2
287
     1
 67
     0
278
    -2
288
     1
 68
     0
279
    -2
289
     1
 69
     0
  7
STANDARD
140
0.18
170
     5
 62
     0
 63
     7
283
     0
274
    -2
284
     1
 64
     0
275
    -2
285
     1
 65
     0
276
    -2
286
     1
 66
     0
277
    -2
287
     1
 67
     0
278
    -2
288
     1
 68
     0
279
    -2
289
     1
 69
     0
  0
VISUALSTYLE
  5
37B
102
{ACAD_REACTORS
330
375
102
}
330
375
100
AcDbVisualStyle
  2
2dWireframe
 70
     4
 71
     0
 72
     2
 73
     0
 90
        0
 40
-0.6
 41
-30.0
 62
     5
 63
     7
 74
     1
 91
        4
 64
     7
 65
   257
 75
     1
175
     1
 42
1.0
 92
        0
 66
   257
 43
1.0
 76
     1
 77
     6
 78
     2
 67
     7
 79
     5
170
     0
171
     0
290
     0
174
     0
 93
        1
 44
0.0
173
     0
291
     0
 45
0.0
1001
ACAD
1000
AcDbSavedByObjectVersion
1070
     0
  0
VISUALSTYLE
  5
37D
102
{ACAD_REACTORS
330
375
102
}
330
375
100
AcDbVisualStyle
  2
3D Hidden
 70
     6
 71
     1
 72
     2
 73
     2
 90
        0
 40
-0.6
 41
-30.0
 62
     5
 63
     7
 74
     2
 91
        2
 64
     7
 65
   257
 75
     2
175
     1
 42
40.0
 92
        0
 66
   257
 43
1.0
 76
     1
 77
     6
 78
     2
 67
     7
 79
     3
170
     0
171
     0
290
     0
174
     0
 93
        1
 44
0.0
173
     0
291
     0
 45
0.0
1001
ACAD
1000
AcDbSavedByObjectVersion
1070
     0
  0
VISUALSTYLE
  5
37C
102
{ACAD_REACTORS
330
375
102
}
330
375
100
AcDbVisualStyle
  2
3dWireframe
 70
     5
 71
     0
 72
     2
 73
     0
 90
        0
 40
-0.6
 41
-30.0
 62
     5
 63
     7
 74
     1
 91
        4
 64
     7
 65
   257
 75
     1
175
     1
 42
1.0
 92
        0
 66
   257
 43
1.0
 76
     1
 77
     6
 78
     2
 67
     7
 79
     5
170
     0
171
     0
290
     0
174
     0
 93
        1
 44
0.0
173
     0
291
     0
 45
0.0
1001
ACAD
1000
AcDbSavedByObjectVersion
1070
     0
  0
VISUALSTYLE
  5
37A
102
{ACAD_REACTORS
330
375
102
}
330
375
100
AcDbVisualStyle
  2
Basic
 70
     7
 71
     1
 72
     0
 73
     1
 90
        0
 40
-0.6
 41
-30.0
 62
     5
 63
     7
 74
     0
 91
        4
 64
     7
 65
   257
 75
     1
175
     1
 42
1.0
 92
        8
 66
     7
 43
1.0
 76
     1
 77
     6
 78
     2
 67
     7
 79
     5
170
     0
171
     0
290
     0
174
     0
 93
        1
 44
0.0
173
     0
291
     1
 45
0.0
1001
ACAD
1000
AcDbSavedByObjectVersion
1070
     0
  0
VISUALSTYLE
  5
381
102
{ACAD_REACTORS
330
375
102
}
330
375
100
AcDbVisualStyle
  2
Brighten
 70
    12
 71
     2
 72
     2
 73
     0
 90
        0
 40
-0.6
 41
-30.0
 62
     5
 63
     7
 74
     1
 91
        4
 64
     7
 65
   257
 75
     1
175
     1
 42
1.0
 92
        8
 66
     7
 43
1.0
 76
     1
 77
     6
 78
     2
 67
     7
 79
     5
170
     0
171
     0
290
     0
174
     0
 93
        1
 44
50.0
173
     0
291
     1
 45
0.0
1001
ACAD
1000
AcDbSavedByObjectVersion
1070
     0
  0
VISUALSTYLE
  5
385
102
{ACAD_REACTORS
330
375
102
}
330
375
100
AcDbVisualStyle
  2
ColorChange
 70
    16
 71
     2
 72
     2
 73
     3
 90
        0
 40
-0.6
 41
-30.0
 62
     5
 63
     8
 74
     1
 91
        4
 64
     7
 65
   257
 75
     1
175
     1
 42
1.0
 92
        8
 66
     8
 43
1.0
 76
     1
 77
     6
 78
     2
 67
     7
 79
     5
170
     0
171
     0
290
     0
174
     0
 93
        1
 44
0.0
173
     0
291
     1
 45
0.0
1001
ACAD
1000
AcDbSavedByObjectVersion
1070
     0
  0
VISUALSTYLE
  5
37E
102
{ACAD_REACTORS
330
375
102
}
330
375
100
AcDbVisualStyle
  2
Conceptual
 70
     9
 71
     3
 72
     2
 73
     0
 90
        0
 40
-0.6
 41
-30.0
 62
     5
 63
     7
 74
     2
 91
        2
 64
     7
 65
   257
 75
     1
175
     1
 42
40.0
 92
        8
 66
     7
 43
1.0
 76
     1
 77
     6
 78
     2
 67
     7
 79
     3
170
     0
171
     0
290
     0
174
     0
 93
        1
 44
0.0
173
     0
291
     0
 45
0.0
1001
ACAD
1000
AcDbSavedByObjectVersion
1070
     0
  0
VISUALSTYLE
  5
380
102
{ACAD_REACTORS
330
375
102
}
330
375
100
AcDbVisualStyle
  2
Dim
 70
    11
 71
     2
 72
     2
 73
     0
 90
        0
 40
-0.6
 41
-30.0
 62
     5
 63
     7
 74
     1
 91
        4
 64
     7
 65
   257
 75
     1
175
     1
 42
1.0
 92
        8
 66
     7
 43
1.0
 76
     1
 77
     6
 78
     2
 67
     7
 79
     5
170
     0
171
     0
290
     0
174
     0
 93
        1
 44
-50.0
173
     0
291
     1
 45
0.0
1001
ACAD
1000
AcDbSavedByObjectVersion
1070
     0
  0
VISUALSTYLE
  5
384
102
{ACAD_REACTORS
330
375
102
}
330
375
100
AcDbVisualStyle
  2
Facepattern
 70
    15
 71
     2
 72
     2
 73
     0
 90
        0
 40
-0.6
 41
-30.0
 62
     5
 63
     7
 74
     1
 91
        4
 64
     7
 65
   257
 75
     1
175
     1
 42
1.0
 92
        8
 66
     7
 43
1.0
 76
     1
 77
     6
 78
     2
 67
     7
 79
     5
170
     0
171
     0
290
     0
174
     0
 93
        1
 44
0.0
173
     0
291
     1
 45
0.0
1001
ACAD
1000
AcDbSavedByObjectVersion
1070
     0
  0
VISUALSTYLE
  5
376
102
{ACAD_REACTORS
330
375
102
}
330
375
100
AcDbVisualStyle
  2
Flat
 70
     0
 71
     2
 72
     1
 73
     1
 90
        2
 40
-0.6
 41
30.0
 62
     5
 63
     7
 74
     0
 91
        4
 64
     7
 65
   257
 75
     1
175
     1
 42
1.0
 92
        8
 66
     7
 43
1.0
 76
     1
 77
     6
 78
     2
 67
     7
 79
     5
170
     0
171
     0
290
     0
174
     0
 93
       13
 44
0.0
173
     0
291
     1
 45
0.0
1001
ACAD
1000
AcDbSavedByObjectVersion
1070
     0
  0
VISUALSTYLE
  5
377
102
{ACAD_REACTORS
330
375
102
}
330
375
100
AcDbVisualStyle
  2
FlatWithEdges
 70
     1
 71
     2
 72
     1
 73
     1
 90
        2
 40
-0.6
 41
30.0
 62
     5
 63
     7
 74
     1
 91
        4
 64
     7
 65
   257
 75
     1
175
     1
 42
1.0
 92
        0
 66
   257
 43
1.0
 76
     1
 77
     6
 78
     2
 67
     7
 79
     5
170
     0
171
     0
290
     0
174
     0
 93
       13
 44
0.0
173
     0
291
     1
 45
0.0
1001
ACAD
1000
AcDbSavedByObjectVersion
1070
     0
  0
VISUALSTYLE
  5
378
102
{ACAD_REACTORS
330
375
102
}
330
375
100
AcDbVisualStyle
  2
Gouraud
 70
     2
 71
     2
 72
     2
 73
     1
 90
        2
 40
-0.6
 41
30.0
 62
     5
 63
     7
 74
     0
 91
        4
 64
     7
 65
   257
 75
     1
175
     1
 42
1.0
 92
        0
 66
     7
 43
1.0
 76
     1
 77
     6
 78
     2
 67
     7
 79
     5
170
     0
171
     0
290
     0
174
     0
 93
       13
 44
0.0
173
     0
291
     1
 45
0.0
1001
ACAD
1000
AcDbSavedByObjectVersion
1070
     0
  0
VISUALSTYLE
  5
379
102
{ACAD_REACTORS
330
375
102
}
330
375
100
AcDbVisualStyle
  2
GouraudWithEdges
 70
     3
 71
     2
 72
     2
 73
     1
 90
        2
 40
-0.6
 41
30.0
 62
     5
 63
     7
 74
     1
 91
        4
 64
     7
 65
   257
 75
     1
175
     1
 42
1.0
 92
        0
 66
   257
 43
1.0
 76
     1
 77
     6
 78
     2
 67
     7
 79
     5
170
     0
171
     0
290
     0
174
     0
 93
       13
 44
0.0
173
     0
291
     1
 45
0.0
1001
ACAD
1000
AcDbSavedByObjectVersion
1070
     0
  0
VISUALSTYLE
  5
383
102
{ACAD_REACTORS
330
375
102
}
330
375
100
AcDbVisualStyle
  2
Linepattern
 70
    14
 71
     2
 72
     2
 73
     0
 90
        0
 40
-0.6
 41
-30.0
 62
     5
 63
     7
 74
     1
 91
        4
 64
     7
 65
   257
 75
     7
175
     7
 42
1.0
 92
        8
 66
     7
 43
1.0
 76
     1
 77
     6
 78
     2
 67
     7
 79
     5
170
     0
171
     0
290
     0
174
     0
 93
        1
 44
0.0
173
     0
291
     1
 45
0.0
1001
ACAD
1000
AcDbSavedByObjectVersion
1070
     0
  0
VISUALSTYLE
  5
37F
102
{ACAD_REACTORS
330
375
102
}
330
375
100
AcDbVisualStyle
  2
Realistic
 70
     8
 71
     2
 72
     2
 73
     0
 90
        0
 40
-0.6
 41
-30.0
 62
     5
 63
     7
 74
     1
 91
        0
 64
     7
 65
   257
 75
     1
175
     1
 42
1.0
 92
        8
 66
     8
 43
1.0
 76
     1
 77
     6
 78
     2
 67
     7
 79
     5
170
     0
171
     0
290
     0
174
     0
 93
       13
 44
0.0
173
     0
291
     0
 45
0.0
1001
ACAD
1000
AcDbSavedByObjectVersion
1070
     0
  0
VISUALSTYLE
  5
382
102
{ACAD_REACTORS
330
375
102
}
330
375
100
AcDbVisualStyle
  2
Thicken
 70
    13
 71
     2
 72
     2
 73
     0
 90
        0
 40
-0.6
 41
-30.0
 62
     5
 63
     7
 74
     1
 91
        4
 64
     7
 65
   257
 75
     1
175
     1
 42
1.0
 92
       12
 66
     7
 43
1.0
 76
     1
 77
     6
 78
     2
 67
     7
 79
     5
170
     0
171
     0
290
     0
174
     0
 93
        1
 44
0.0
173
     0
291
     1
 45
0.0
1001
ACAD
1000
AcDbSavedByObjectVersion
1070
     0
  0
DICTIONARYVAR
  5
41A
102
{ACAD_REACTORS
330
419
102
}
330
419
100
DictionaryVariables
280
     0
  1
STANDARD
  0
DICTIONARYVAR
  5
5A0
102
{ACAD_REACTORS
330
419
102
}
330
419
100
DictionaryVariables
280
     0
  1
1
  0
DICTIONARYVAR
  5
59F
102
{ACAD_REACTORS
330
419
102
}
330
419
100
DictionaryVariables
280
     0
  1
0
  0
DICTIONARYVAR
  5
59E
102
{ACAD_REACTORS
330
419
102
}
330
419
100
DictionaryVariables
280
     0
  1
127
  0
DICTIONARY
  5
5A2
330
1D2
100
AcDbDictionary
280
     1
281
     1
  3
ACAD_XREC_ROUNDTRIP
360
5A3
  0
DICTIONARY
  5
5A4
330
1D6
100
AcDbDictionary
280
     1
281
     1
  3
ACAD_XREC_ROUNDTRIP
360
5A5
  0
DICTIONARY
  5
5A8
330
373
100
AcDbDictionary
280
     1
281
     1
  3
ACAD_XREC_ROUNDTRIP
360
5A9
  0
DICTIONARY
  5
5A6
330
372
100
AcDbDictionary
280
     1
281
     1
  3
ACAD_XREC_ROUNDTRIP
360
5A7
  0
DICTIONARY
  5
5AA
330
374
100
AcDbDictionary
280
     1
281
     1
  3
ACAD_XREC_ROUNDTRIP
360
5AB
  0
DICTIONARY
  5
5AC
330
388
100
AcDbDictionary
280
     1
281
     1
  3
ACAD_XREC_ROUNDTRIP
360
5AD
  0
XRECORD
  5
5A3
102
{ACAD_REACTORS
330
5A2
102
}
330
5A2
100
AcDbXrecord
280
     1
102
SHADEPLOT
 70
     0
102
SHADEPLOTRESLEVEL
 70
     2
102
SHADEPLOTCUSTOMDPI
 70
   300
  0
XRECORD
  5
5A5
102
{ACAD_REACTORS
330
5A4
102
}
330
5A4
100
AcDbXrecord
280
     1
102
SHADEPLOT
 70
     0
102
SHADEPLOTRESLEVEL
 70
     2
102
SHADEPLOTCUSTOMDPI
 70
   300
  0
XRECORD
  5
5A9
102
{ACAD_REACTORS
330
5A8
102
}
330
5A8
100
AcDbXrecord
280
     1
102
MATERIAL
148
0.0
149
0.0
149
0.0
 93
        0
 94
       63
282
     0
 72
     1
 77
     1
171
     1
175
     1
179
     1
273
     0
  0
XRECORD
  5
5A7
102
{ACAD_REACTORS
330
5A6
102
}
330
5A6
100
AcDbXrecord
280
     1
102
MATERIAL
148
0.0
149
0.0
149
0.0
 93
        0
 94
       63
282
     0
 72
     1
 77
     1
171
     1
175
     1
179
     1
273
     0
  0
XRECORD
  5
5AB
102
{ACAD_REACTORS
330
5AA
102
}
330
5AA
100
AcDbXrecord
280
     1
102
MATERIAL
148
0.0
149
0.0
149
0.0
 93
        0
 94
       63
282
     0
 72
     1
 77
     1
171
     1
175
     1
179
     1
273
     0
  0
XRECORD
  5
5AD
102
{ACAD_REACTORS
330
5AC
102
}
330
5AC
100
AcDbXrecord
280
     1
102
ACAD_ROUNDTRIP_PRE2007_TABLESTYLE
 90
      512
 91
        0
  1

 92
      512
 93
        0
  2

 94
      512
 95
        0
  3

  0
ENDSEC
  0
EOF
