  0
SECTION
  2
HEADER
  9
$ACADVER
  1
AC1015
  9
$ACADMAINTVER
 70
     6
  9
$DWGCODEPAGE
  3
ANSI_1252
  9
$INSBASE
 10
0.0
 20
0.0
 30
0.0
  9
$EXTMIN
 10
454.7899088143263
 20
210.4875
 30
0.0
  9
$EXTMAX
 10
1352.005107721691
 20
906.6749999999997
 30
0.0
  9
$LIMMIN
 10
0.0
 20
0.0
  9
$LIMMAX
 10
12.0
 20
9.0
  9
$ORTHOMODE
 70
     1
  9
$REGENMODE
 70
     1
  9
$FILLMODE
 70
     1
  9
$QTEXTMODE
 70
     0
  9
$MIRRTEXT
 70
     1
  9
$LTSCALE
 40
1.0
  9
$ATTMODE
 70
     1
  9
$TEXTSIZE
 40
0.0
  9
$TRACEWID
 40
0.05
  9
$TEXTSTYLE
  7
STANDARD
  9
$CLAYER
  8
0
  9
$CELTYPE
  6
CONTINUOUS
  9
$CECOLOR
 62
   256
  9
$CELTSCALE
 40
1.0
  9
$DISPSILH
 70
     0
  9
$DIMSCALE
 40
1.0
  9
$DIMASZ
 40
0.18
  9
$DIMEXO
 40
0.0625
  9
$DIMDLI
 40
0.38
  9
$DIMRND
 40
0.0
  9
$DIMDLE
 40
0.0
  9
$DIMEXE
 40
0.18
  9
$DIMTP
 40
0.0
  9
$DIMTM
 40
0.0
  9
$DIMTXT
 40
0.18
  9
$DIMCEN
 40
0.09
  9
$DIMTSZ
 40
0.0
  9
$DIMTOL
 70
     0
  9
$DIMLIM
 70
     0
  9
$DIMTIH
 70
     1
  9
$DIMTOH
 70
     1
  9
$DIMSE1
 70
     0
  9
$DIMSE2
 70
     0
  9
$DIMTAD
 70
     0
  9
$DIMZIN
 70
     0
  9
$DIMBLK
  1

  9
$DIMASO
 70
     1
  9
$DIMSHO
 70
     1
  9
$DIMPOST
  1

  9
$DIMAPOST
  1

  9
$DIMALT
 70
     0
  9
$DIMALTD
 70
     2
  9
$DIMALTF
 40
25.4
  9
$DIMLFAC
 40
1.0
  9
$DIMTOFL
 70
     0
  9
$DIMTVP
 40
0.0
  9
$DIMTIX
 70
     0
  9
$DIMSOXD
 70
     0
  9
$DIMSAH
 70
     0
  9
$DIMBLK1
  1

  9
$DIMBLK2
  1

  9
$DIMSTYLE
  2
STANDARD
  9
$DIMCLRD
 70
     0
  9
$DIMCLRE
 70
     0
  9
$DIMCLRT
 70
     0
  9
$DIMTFAC
 40
1.0
  9
$DIMGAP
 40
0.09
  9
$DIMJUST
 70
     0
  9
$DIMSD1
 70
     0
  9
$DIMSD2
 70
     0
  9
$DIMTOLJ
 70
     1
  9
$DIMTZIN
 70
     0
  9
$DIMALTZ
 70
     0
  9
$DIMALTTZ
 70
     0
  9
$DIMUPT
 70
     0
  9
$DIMDEC
 70
     4
  9
$DIMTDEC
 70
     4
  9
$DIMALTU
 70
     2
  9
$DIMALTTD
 70
     2
  9
$DIMTXSTY
  7
STANDARD
  9
$DIMAUNIT
 70
     0
  9
$DIMADEC
 70
     0
  9
$DIMALTRND
 40
0.0
  9
$DIMAZIN
 70
     0
  9
$DIMDSEP
 70
    46
  9
$DIMATFIT
 70
     3
  9
$DIMFRAC
 70
     0
  9
$DIMLDRBLK
  1

  9
$DIMLUNIT
 70
     2
  9
$DIMLWD
 70
    -2
  9
$DIMLWE
 70
    -2
  9
$DIMTMOVE
 70
     0
  9
$LUNITS
 70
     2
  9
$LUPREC
 70
     4
  9
$SKETCHINC
 40
0.1
  9
$FILLETRAD
 40
0.0
  9
$AUNITS
 70
     0
  9
$AUPREC
 70
     0
  9
$MENU
  1
acad
  9
$ELEVATION
 40
0.0
  9
$PELEVATION
 40
0.0
  9
$THICKNESS
 40
0.0
  9
$LIMCHECK
 70
     0
  9
$CHAMFERA
 40
0.0
  9
$CHAMFERB
 40
0.0
  9
$CHAMFERC
 40
0.0
  9
$CHAMFERD
 40
0.0
  9
$SKPOLY
 70
     0
  9
$TDCREATE
 40
2453233.177048610
  9
$TDUCREATE
 40
2453233.135381944
  9
$TDUPDATE
 40
2459007.850277766
  9
$TDUUPDATE
 40
2459007.808611100
  9
$TDINDWG
 40
0.0264692130
  9
$TDUSRTIMER
 40
0.0264658218
  9
$USRTIMER
 70
     1
  9
$ANGBASE
 50
0.0
  9
$ANGDIR
 70
     0
  9
$PDMODE
 70
     0
  9
$PDSIZE
 40
0.0
  9
$PLINEWID
 40
0.0
  9
$SPLFRAME
 70
     0
  9
$SPLINETYPE
 70
     6
  9
$SPLINESEGS
 70
    10
  9
$HANDSEED
  5
5D0
  9
$SURFTAB1
 70
     6
  9
$SURFTAB2
 70
     6
  9
$SURFTYPE
 70
     6
  9
$SURFU
 70
     6
  9
$SURFV
 70
     6
  9
$UCSBASE
  2

  9
$UCSNAME
  2

  9
$UCSORG
 10
0.0
 20
0.0
 30
0.0
  9
$UCSXDIR
 10
1.0
 20
0.0
 30
0.0
  9
$UCSYDIR
 10
0.0
 20
1.0
 30
0.0
  9
$UCSORTHOREF
  2

  9
$UCSORTHOVIEW
 70
     0
  9
$UCSORGTOP
 10
0.0
 20
0.0
 30
0.0
  9
$UCSORGBOTTOM
 10
0.0
 20
0.0
 30
0.0
  9
$UCSORGLEFT
 10
0.0
 20
0.0
 30
0.0
  9
$UCSORGRIGHT
 10
0.0
 20
0.0
 30
0.0
  9
$UCSORGFRONT
 10
0.0
 20
0.0
 30
0.0
  9
$UCSORGBACK
 10
0.0
 20
0.0
 30
0.0
  9
$PUCSBASE
  2

  9
$PUCSNAME
  2

  9
$PUCSORG
 10
0.0
 20
0.0
 30
0.0
  9
$PUCSXDIR
 10
1.0
 20
0.0
 30
0.0
  9
$PUCSYDIR
 10
0.0
 20
1.0
 30
0.0
  9
$PUCSORTHOREF
  2

  9
$PUCSORTHOVIEW
 70
     0
  9
$PUCSORGTOP
 10
0.0
 20
0.0
 30
0.0
  9
$PUCSORGBOTTOM
 10
0.0
 20
0.0
 30
0.0
  9
$PUCSORGLEFT
 10
0.0
 20
0.0
 30
0.0
  9
$PUCSORGRIGHT
 10
0.0
 20
0.0
 30
0.0
  9
$PUCSORGFRONT
 10
0.0
 20
0.0
 30
0.0
  9
$PUCSORGBACK
 10
0.0
 20
0.0
 30
0.0
  9
$USERI1
 70
     0
  9
$USERI2
 70
     0
  9
$USERI3
 70
     0
  9
$USERI4
 70
     0
  9
$USERI5
 70
     0
  9
$USERR1
 40
0.0
  9
$USERR2
 40
0.0
  9
$USERR3
 40
0.0
  9
$USERR4
 40
0.0
  9
$USERR5
 40
0.0
  9
$WORLDVIEW
 70
     1
  9
$SHADEDGE
 70
     3
  9
$SHADEDIF
 70
    70
  9
$TILEMODE
 70
     1
  9
$MAXACTVP
 70
    16
  9
$PINSBASE
 10
0.0
 20
0.0
 30
0.0
  9
$PLIMCHECK
 70
     0
  9
$PEXTMIN
 10
-1.000000000000000E+20
 20
-1.000000000000000E+20
 30
-1.000000000000000E+20
  9
$PEXTMAX
 10
-1.000000000000000E+20
 20
-1.000000000000000E+20
 30
-1.000000000000000E+20
  9
$PLIMMIN
 10
0.0
 20
0.0
  9
$PLIMMAX
 10
12.0
 20
9.0
  9
$UNITMODE
 70
     0
  9
$VISRETAIN
 70
     0
  9
$PLINEGEN
 70
     1
  9
$PSLTSCALE
 70
     0
  9
$TREEDEPTH
 70
  3020
  9
$CMLSTYLE
  2
STANDARD
  9
$CMLJUST
 70
     0
  9
$CMLSCALE
 40
1.0
  9
$PROXYGRAPHICS
 70
     1
  9
$MEASUREMENT
 70
     0
  9
$CELWEIGHT
370
    -1
  9
$ENDCAPS
280
     0
  9
$JOINSTYLE
280
     0
  9
$LWDISPLAY
290
     0
  9
$INSUNITS
 70
     0
  9
$HYPERLINKBASE
  1

  9
$STYLESHEET
  1

  9
$XEDIT
290
     1
  9
$CEPSNTYPE
380
     0
  9
$PSTYLEMODE
290
     1
  9
$FINGERPRINTGUID
  2
{819B20CD-847C-4767-9997-26890199CDB6}
  9
$VERSIONGUID
  2
{C41DBCB0-C051-4695-9EBE-70BA65F9F8CE}
  9
$EXTNAMES
290
     1
  9
$PSVPSCALE
 40
0.0
  9
$OLESTARTUP
290
     0
  0
ENDSEC
  0
SECTION
  2
CLASSES
  0
CLASS
  1
ACDBDICTIONARYWDFLT
  2
AcDbDictionaryWithDefault
  3
AutoCAD 2000
 90
        0
280
     0
281
     0
  0
CLASS
  1
ACDBPLACEHOLDER
  2
AcDbPlaceHolder
  3
AutoCAD 2000
 90
        0
280
     0
281
     0
  0
CLASS
  1
LAYOUT
  2
AcDbLayout
  3
AutoCAD 2000
 90
        0
280
     0
281
     0
  0
CLASS
  1
MATERIAL
  2
AcDbMaterial
  3
ObjectDBX Classes
 90
     1153
280
     0
281
     0
  0
CLASS
  1
VISUALSTYLE
  2
AcDbVisualStyle
  3
ObjectDBX Classes
 90
     4095
280
     0
281
     0
  0
CLASS
  1
TABLESTYLE
  2
AcDbTableStyle
  3
ObjectDBX Classes
 90
     4095
280
     0
281
     0
  0
CLASS
  1
SCALE
  2
AcDbScale
  3
ObjectDBX Classes
 90
     1153
280
     0
281
     0
  0
CLASS
  1
MLEADERSTYLE
  2
AcDbMLeaderStyle
  3
ACDB_MLEADERSTYLE_CLASS
 90
     4095
280
     0
281
     0
  0
CLASS
  1
SORTENTSTABLE
  2
AcDbSortentsTable
  3
AutoCAD 2000
 90
        0
280
     0
281
     0
  0
CLASS
  1
DICTIONARYVAR
  2
AcDbDictionaryVar
  3
AutoCAD 2000
 90
        0
280
     0
281
     0
  0
CLASS
  1
CELLSTYLEMAP
  2
AcDbCellStyleMap
  3
ObjectDBX Classes
 90
     1152
280
     0
281
     0
  0
ENDSEC
  0
SECTION
  2
TABLES
  0
TABLE
  2
VPORT
  5
F6
330
0
100
AcDbSymbolTable
 70
     2
  0
VPORT
  5
5CF
330
F6
100
AcDbSymbolTableRecord
100
AcDbViewportTableRecord
  2
*Active
 70
     0
 10
0.0
 20
0.0
 11
1.0
 21
1.0
 12
26.05559137621992
 22
230.2601601225753
 13
0.0
 23
0.0
 14
0.0
 24
0.0
 15
0.0
 25
0.0
 16
0.0
 26
0.0
 36
1.0
 17
752.8146219999999
 27
648.140625
 37
0.0
 40
654.2656887035604
 41
1.911917098445595
 42
50.0
 43
0.025
 44
0.0
 50
0.0
 51
0.0
 71
     0
 72
   100
 73
     1
 74
     0
 75
     0
 76
     0
 77
     0
 78
     0
281
     0
 65
     1
110
0.0
120
0.0
130
0.0
111
1.0
121
0.0
131
0.0
112
0.0
122
1.0
132
0.0
 79
     0
146
0.0
  0
ENDTAB
  0
TABLE
  2
LTYPE
  5
F3
330
0
100
AcDbSymbolTable
 70
     7
  0
LTYPE
  5
101
330
F3
100
AcDbSymbolTableRecord
100
AcDbLinetypeTableRecord
  2
BYBLOCK
 70
     0
  3

 72
    65
 73
     0
 40
0.0
  0
LTYPE
  5
102
330
F3
100
AcDbSymbolTableRecord
100
AcDbLinetypeTableRecord
  2
BYLAYER
 70
     0
  3

 72
    65
 73
     0
 40
0.0
  0
LTYPE
  5
103
330
F3
100
AcDbSymbolTableRecord
100
AcDbLinetypeTableRecord
  2
CONTINUOUS
 70
     0
  3
Solid line
 72
    65
 73
     0
 40
0.0
  0
LTYPE
  5
111
330
F3
100
AcDbSymbolTableRecord
100
AcDbLinetypeTableRecord
  2
DOT
 70
     0
  3
. . . . . . . . . . . . . . . . . . . . . . . . . . . . . . . . .
 72
    65
 73
     2
 40
0.25
 49
0.0
 74
     0
 49
-0.25
 74
     0
  0
LTYPE
  5
112
330
F3
100
AcDbSymbolTableRecord
100
AcDbLinetypeTableRecord
  2
HIDDEN
 70
     0
  3
__ __ __ __ __ __ __ __ __ __ __ __ __ __ __ __ __ __ __ __ __ 
 72
    65
 73
     2
 40
0.375
 49
0.25
 74
     0
 49
-0.125
 74
     0
  0
LTYPE
  5
113
330
F3
100
AcDbSymbolTableRecord
100
AcDbLinetypeTableRecord
  2
DASHED
 70
     0
  3
__ __ __ __ __ __ __ __ __ __ __ __ __ __ __ __ __ __ __ __ __
 72
    65
 73
     2
 40
0.75
 49
0.5
 74
     0
 49
-0.25
 74
     0
  0
LTYPE
  5
114
330
F3
100
AcDbSymbolTableRecord
100
AcDbLinetypeTableRecord
  2
DASHDOT
 70
     0
  3
__ . __ . __ . __ . __ . __ . __ . __ . __ . __ . __ . __ . _
 72
    65
 73
     4
 40
1.0
 49
0.5
 74
     0
 49
-0.25
 74
     0
 49
0.0
 74
     0
 49
-0.25
 74
     0
  0
LTYPE
  5
115
330
F3
100
AcDbSymbolTableRecord
100
AcDbLinetypeTableRecord
  2
DIVIDE
 70
     0
  3
____ . . ____ . . ____ . . ____ . . ____ . . ____ . . ____ . .
 72
    65
 73
     6
 40
1.25
 49
0.5
 74
     0
 49
-0.25
 74
     0
 49
0.0
 74
     0
 49
-0.25
 74
     0
 49
0.0
 74
     0
 49
-0.25
 74
     0
  0
LTYPE
  5
116
330
F3
100
AcDbSymbolTableRecord
100
AcDbLinetypeTableRecord
  2
CENTER
 70
     0
  3
____ _ ____ _ ____ _ ____ _ ____ _ ____ _ ____ _ ____ _ ____ _
 72
    65
 73
     4
 40
2.0
 49
1.25
 74
     0
 49
-0.25
 74
     0
 49
0.25
 74
     0
 49
-0.25
 74
     0
  0
ENDTAB
  0
TABLE
  2
LAYER
  5
F0
330
0
100
AcDbSymbolTable
 70
     6
  0
LAYER
  5
FE
102
{ACAD_XDICTIONARY
360
3E7
102
}
330
F0
100
AcDbSymbolTableRecord
100
AcDbLayerTableRecord
  2
0
 70
     0
 62
     7
  6
CONTINUOUS
370
    -3
390
FD
  0
LAYER
  5
117
102
{ACAD_XDICTIONARY
360
3E9
102
}
330
F0
100
AcDbSymbolTableRecord
100
AcDbLayerTableRecord
  2
CONSTRUCTION_CLASS
 70
     0
 62
     7
  6
CONTINUOUS
370
    -3
390
FD
  0
LAYER
  5
118
102
{ACAD_XDICTIONARY
360
3EB
102
}
330
F0
100
AcDbSymbolTableRecord
100
AcDbLayerTableRecord
  2
PATTERN_CLASS
 70
     0
 62
     7
  6
CONTINUOUS
370
    -3
390
FD
  0
LAYER
  5
119
102
{ACAD_XDICTIONARY
360
3ED
102
}
330
F0
100
AcDbSymbolTableRecord
100
AcDbLayerTableRecord
  2
1
 70
     0
 62
     7
  6
CONTINUOUS
370
    -3
390
FD
  0
LAYER
  5
507
102
{ACAD_XDICTIONARY
360
508
102
}
330
F0
100
AcDbSymbolTableRecord
100
AcDbLayerTableRecord
  2
FLAN1$0$-1
 70
     0
 62
     7
  6
CONTINUOUS
370
    -3
390
FD
  0
LAYER
  5
53B
102
{ACAD_XDICTIONARY
360
53C
102
}
330
F0
100
AcDbSymbolTableRecord
100
AcDbLayerTableRecord
  2
-1
 70
     0
 62
     7
  6
CONTINUOUS
370
    -3
390
FD
  0
ENDTAB
  0
TABLE
  2
STYLE
  5
F1
330
0
100
AcDbSymbolTable
 70
     2
  0
STYLE
  5
FF
330
F1
100
AcDbSymbolTableRecord
100
AcDbTextStyleTableRecord
  2
STANDARD
 70
     0
 40
0.0
 41
1.0
 50
0.0
 71
     0
 42
0.0
  3
txt
  4

  0
STYLE
  5
11A
330
F1
100
AcDbSymbolTableRecord
100
AcDbTextStyleTableRecord
  2
ROMANS
 70
     0
 40
0.2
 41
1.0
 50
0.0
 71
     0
 42
0.2
  3
ROMANS
  4

  0
ENDTAB
  0
TABLE
  2
VIEW
  5
F4
330
0
100
AcDbSymbolTable
 70
     0
  0
ENDTAB
  0
TABLE
  2
UCS
  5
F5
330
0
100
AcDbSymbolTable
 70
     0
  0
ENDTAB
  0
TABLE
  2
APPID
  5
F7
330
0
100
AcDbSymbolTable
 70
     3
  0
APPID
  5
100
330
F7
100
AcDbSymbolTableRecord
100
AcDbRegAppTableRecord
  2
ACAD
 70
     0
  0
APPID
  5
425
330
F7
100
AcDbSymbolTableRecord
100
AcDbRegAppTableRecord
  2
ACAD_MLEADERVER
 70
     0
  0
APPID
  5
488
330
F7
100
AcDbSymbolTableRecord
100
AcDbRegAppTableRecord
  2
ACAD_EXEMPT_FROM_CAD_STANDARDS
 70
     0
  0
ENDTAB
  0
TABLE
  2
DIMSTYLE
  5
F8
330
0
100
AcDbSymbolTable
 70
     1
100
AcDbDimStyleTable
 71
     1
340
11B
  0
DIMSTYLE
105
11B
330
F8
100
AcDbSymbolTableRecord
100
AcDbDimStyleTableRecord
  2
STANDARD
 70
     0
340
FF
  0
ENDTAB
  0
TABLE
  2
BLOCK_RECORD
  5
EF
330
0
100
AcDbSymbolTable
 70
     0
  0
BLOCK_RECORD
  5
10C
102
{ACAD_XDICTIONARY
360
233
102
}
330
EF
100
AcDbSymbolTableRecord
100
AcDbBlockTableRecord
  2
*MODEL_SPACE
340
2B6
  0
BLOCK_RECORD
  5
108
102
{ACAD_XDICTIONARY
360
231
102
}
330
EF
100
AcDbSymbolTableRecord
100
AcDbBlockTableRecord
  2
*PAPER_SPACE
340
2B7
  0
ENDTAB
  0
ENDSEC
  0
SECTION
  2
BLOCKS
  0
BLOCK
  5
10D
330
10C
100
AcDbEntity
  8
0
100
AcDbBlockBegin
  2
*MODEL_SPACE
 70
     0
 10
0.0
 20
0.0
 30
0.0
  3
*MODEL_SPACE
  1

  0
ENDBLK
  5
10E
330
10C
100
AcDbEntity
  8
0
100
AcDbBlockEnd
  0
BLOCK
  5
109
330
108
100
AcDbEntity
 67
     1
  8
0
100
AcDbBlockBegin
  2
*PAPER_SPACE
 70
     0
 10
0.0
 20
0.0
 30
0.0
  3
*PAPER_SPACE
  1

  0
ENDBLK
  5
10A
330
108
100
AcDbEntity
 67
     1
  8
0
100
AcDbBlockEnd
  0
ENDSEC
  0
SECTION
  2
ENTITIES
  0
LINE
  5
2EB
330
10C
100
AcDbEntity
  8
1
  6
Continuous
 62
     4
100
AcDbLine
 10
643.2060320866102
 20
421.0937499999998
 30
0.0
 11
635.5687499999993
 21
428.7310320866104
 31
0.0
1001
ACAD
1010
0.0
1020
0.0
1030
0.0
  0
LINE
  5
2EC
330
10C
100
AcDbEntity
  8
1
  6
Continuous
 62
     4
100
AcDbLine
 10
653.8126338044085
 20
421.09375
 30
0.0
 11
635.5687499999993
 21
439.3376338044086
 31
0.0
1001
ACAD
1010
0.0
1020
0.0
1030
0.0
  0
LINE
  5
2ED
330
10C
100
AcDbEntity
  8
1
  6
Continuous
 62
     4
100
AcDbLine
 10
664.4192355222067
 20
421.0937499999998
 30
0.0
 11
639.7692355222066
 21
445.7437499999998
 31
0.0
1001
ACAD
1010
0.0
1020
0.0
1030
0.0
  0
LINE
  5
2EE
330
10C
100
AcDbEntity
  8
1
  6
Continuous
 62
     4
100
AcDbLine
 10
675.0258372400049
 20
421.09375
 30
0.0
 11
650.3758372400048
 21
445.74375
 31
0.0
1001
ACAD
1010
0.0
1020
0.0
1030
0.0
  0
LINE
  5
2EF
330
10C
100
AcDbEntity
  8
1
  6
Continuous
 62
     4
100
AcDbLine
 10
685.6324389578031
 20
421.09375
 30
0.0
 11
660.9824389578029
 21
445.74375
 31
0.0
1001
ACAD
1010
0.0
1020
0.0
1030
0.0
  0
LINE
  5
2F0
330
10C
100
AcDbEntity
  8
1
  6
Continuous
 62
     4
100
AcDbLine
 10
696.2390406756012
 20
421.0937499999998
 30
0.0
 11
671.5890406756012
 21
445.7437499999998
 31
0.0
1001
ACAD
1010
0.0
1020
0.0
1030
0.0
  0
LINE
  5
2F1
330
10C
100
AcDbEntity
  8
1
  6
Continuous
 62
     4
100
AcDbLine
 10
706.8456423933996
 20
421.0937499999998
 30
0.0
 11
682.1956423933997
 21
445.7437499999998
 31
0.0
1001
ACAD
1010
0.0
1020
0.0
1030
0.0
  0
LINE
  5
2F2
330
10C
100
AcDbEntity
  8
1
  6
Continuous
 62
     4
100
AcDbLine
 10
707.4062499999991
 20
431.1397441111983
 30
0.0
 11
686.7499999999994
 21
451.7959941111978
 31
0.0
1001
ACAD
1010
0.0
1020
0.0
1030
0.0
  0
LINE
  5
2F3
330
10C
100
AcDbEntity
  8
1
  6
Continuous
 62
     4
100
AcDbLine
 10
707.4062499999991
 20
441.7463458289963
 30
0.0
 11
686.7499999999994
 21
462.4025958289961
 31
0.0
1001
ACAD
1010
0.0
1020
0.0
1030
0.0
  0
LINE
  5
2F4
330
10C
100
AcDbEntity
  8
1
  6
Continuous
 62
     4
100
AcDbLine
 10
707.4062499999991
 20
452.3529475467946
 30
0.0
 11
686.7499999999994
 21
473.0091975467941
 31
0.0
1001
ACAD
1010
0.0
1020
0.0
1030
0.0
  0
LINE
  5
2F5
330
10C
100
AcDbEntity
  8
1
  6
Continuous
 62
     4
100
AcDbLine
 10
707.4062499999991
 20
462.9595492645931
 30
0.0
 11
686.7499999999994
 21
483.6157992645927
 31
0.0
1001
ACAD
1010
0.0
1020
0.0
1030
0.0
  0
LINE
  5
2F6
330
10C
100
AcDbEntity
  8
1
  6
Continuous
 62
     4
100
AcDbLine
 10
707.4062499999995
 20
473.5661509823912
 30
0.0
 11
686.7499999999994
 21
494.2224009823909
 31
0.0
1001
ACAD
1010
0.0
1020
0.0
1030
0.0
  0
LINE
  5
2F7
330
10C
100
AcDbEntity
  8
1
  6
Continuous
 62
     4
100
AcDbLine
 10
707.4062499999995
 20
484.1727527001892
 30
0.0
 11
686.7499999999994
 21
504.8290027001891
 31
0.0
1001
ACAD
1010
0.0
1020
0.0
1030
0.0
  0
LINE
  5
2F8
330
10C
100
AcDbEntity
  8
1
  6
Continuous
 62
     4
100
AcDbLine
 10
707.4062499999991
 20
494.7793544179877
 30
0.0
 11
686.7499999999994
 21
515.4356044179873
 31
0.0
1001
ACAD
1010
0.0
1020
0.0
1030
0.0
  0
LINE
  5
2F9
330
10C
100
AcDbEntity
  8
1
  6
Continuous
 62
     4
100
AcDbLine
 10
707.4062499999991
 20
505.3859561357858
 30
0.0
 11
686.7499999999994
 21
526.0422061357854
 31
0.0
1001
ACAD
1010
0.0
1020
0.0
1030
0.0
  0
LINE
  5
2FA
330
10C
100
AcDbEntity
  8
1
  6
Continuous
 62
     4
100
AcDbLine
 10
707.4062499999991
 20
515.9925578535839
 30
0.0
 11
686.7499999999994
 21
536.6488078535835
 31
0.0
1001
ACAD
1010
0.0
1020
0.0
1030
0.0
  0
LINE
  5
2FB
330
10C
100
AcDbEntity
  8
1
  6
Continuous
 62
     4
100
AcDbLine
 10
707.4062499999991
 20
526.5991595713821
 30
0.0
 11
686.7499999999994
 21
547.2554095713819
 31
0.0
1001
ACAD
1010
0.0
1020
0.0
1030
0.0
  0
LINE
  5
2FC
330
10C
100
AcDbEntity
  8
1
  6
Continuous
 62
     4
100
AcDbLine
 10
707.4062499999991
 20
537.2057612891802
 30
0.0
 11
686.7499999999994
 21
557.8620112891801
 31
0.0
1001
ACAD
1010
0.0
1020
0.0
1030
0.0
  0
LINE
  5
2FD
330
10C
100
AcDbEntity
  8
1
  6
Continuous
 62
     4
100
AcDbLine
 10
707.4062499999991
 20
547.8123630069785
 30
0.0
 11
686.7499999999994
 21
568.4686130069782
 31
0.0
1001
ACAD
1010
0.0
1020
0.0
1030
0.0
  0
LINE
  5
2FE
330
10C
100
AcDbEntity
  8
1
  6
Continuous
 62
     4
100
AcDbLine
 10
707.4062499999991
 20
558.4189647247768
 30
0.0
 11
686.7499999999994
 21
579.0752147247766
 31
0.0
1001
ACAD
1010
0.0
1020
0.0
1030
0.0
  0
LINE
  5
2FF
330
10C
100
AcDbEntity
  8
1
  6
Continuous
 62
     4
100
AcDbLine
 10
707.4062499999991
 20
569.0255664425751
 30
0.0
 11
686.7499999999994
 21
589.6818164425748
 31
0.0
1001
ACAD
1010
0.0
1020
0.0
1030
0.0
  0
LINE
  5
300
330
10C
100
AcDbEntity
  8
1
  6
Continuous
 62
     4
100
AcDbLine
 10
707.4062499999991
 20
579.6321681603735
 30
0.0
 11
686.7499999999994
 21
600.288418160373
 31
0.0
1001
ACAD
1010
0.0
1020
0.0
1030
0.0
  0
LINE
  5
301
330
10C
100
AcDbEntity
  8
1
  6
Continuous
 62
     4
100
AcDbLine
 10
707.4062499999991
 20
590.2387698781716
 30
0.0
 11
686.7499999999994
 21
610.8950198781712
 31
0.0
1001
ACAD
1010
0.0
1020
0.0
1030
0.0
  0
LINE
  5
302
330
10C
100
AcDbEntity
  8
1
  6
Continuous
 62
     4
100
AcDbLine
 10
707.4062499999991
 20
600.8453715959698
 30
0.0
 11
686.7499999999994
 21
621.5016215959694
 31
0.0
1001
ACAD
1010
0.0
1020
0.0
1030
0.0
  0
LINE
  5
303
330
10C
100
AcDbEntity
  8
1
  6
Continuous
 62
     4
100
AcDbLine
 10
897.7644733137672
 20
421.09375
 30
0.0
 11
888.7562499999997
 21
430.1019733137675
 31
0.0
1001
ACAD
1010
0.0
1020
0.0
1030
0.0
  0
LINE
  5
304
330
10C
100
AcDbEntity
  8
1
  6
Continuous
 62
     4
100
AcDbLine
 10
707.4062499999991
 20
611.4519733137679
 30
0.0
 11
686.7499999999994
 21
632.1082233137676
 31
0.0
1001
ACAD
1010
0.0
1020
0.0
1030
0.0
  0
LINE
  5
305
330
10C
100
AcDbEntity
  8
1
  6
Continuous
 62
     4
100
AcDbLine
 10
908.3710750315654
 20
421.0937499999998
 30
0.0
 11
888.7562499999997
 21
440.7085750315657
 31
0.0
1001
ACAD
1010
0.0
1020
0.0
1030
0.0
  0
LINE
  5
306
330
10C
100
AcDbEntity
  8
1
  6
Continuous
 62
     4
100
AcDbLine
 10
707.4062499999991
 20
622.0585750315661
 30
0.0
 11
686.7499999999994
 21
642.7148250315657
 31
0.0
1001
ACAD
1010
0.0
1020
0.0
1030
0.0
  0
LINE
  5
307
330
10C
100
AcDbEntity
  8
1
  6
Continuous
 62
     4
100
AcDbLine
 10
918.9776767493636
 20
421.0937499999998
 30
0.0
 11
888.7562499999997
 21
451.3151767493638
 31
0.0
1001
ACAD
1010
0.0
1020
0.0
1030
0.0
  0
LINE
  5
308
330
10C
100
AcDbEntity
  8
1
  6
Continuous
 62
     4
100
AcDbLine
 10
707.4062499999991
 20
632.6651767493642
 30
0.0
 11
688.6196858854198
 21
651.4517408639437
 31
0.0
1001
ACAD
1010
0.0
1020
0.0
1030
0.0
  0
LINE
  5
309
330
10C
100
AcDbEntity
  8
1
  6
Continuous
 62
     4
100
AcDbLine
 10
929.584278467162
 20
421.09375
 30
0.0
 11
888.7562499999997
 21
461.921778467162
 31
0.0
1001
ACAD
1010
0.0
1020
0.0
1030
0.0
  0
LINE
  5
30A
330
10C
100
AcDbEntity
  8
1
  6
Continuous
 62
     4
100
AcDbLine
 10
707.4062499999991
 20
643.2717784671628
 30
0.0
 11
694.6700120891521
 21
656.0080163780098
 31
0.0
1001
ACAD
1010
0.0
1020
0.0
1030
0.0
  0
LINE
  5
30B
330
10C
100
AcDbEntity
  8
1
  6
Continuous
 62
     4
100
AcDbLine
 10
940.19088018496
 20
421.0937499999998
 30
0.0
 11
915.5408801849599
 21
445.7437499999998
 31
0.0
1001
ACAD
1010
0.0
1020
0.0
1030
0.0
  0
LINE
  5
30C
330
10C
100
AcDbEntity
  8
1
  6
Continuous
 62
     4
100
AcDbLine
 10
707.4062499999991
 20
653.878380184961
 30
0.0
 11
700.7203382928837
 21
660.5642918920763
 31
0.0
1001
ACAD
1010
0.0
1020
0.0
1030
0.0
  0
LINE
  5
30D
330
10C
100
AcDbEntity
  8
1
  6
Continuous
 62
     4
100
AcDbLine
 10
909.4124999999996
 20
451.8721301849605
 30
0.0
 11
888.7562499999997
 21
472.5283801849603
 31
0.0
1001
ACAD
1010
0.0
1020
0.0
1030
0.0
  0
LINE
  5
30E
330
10C
100
AcDbEntity
  8
1
  6
Continuous
 62
     4
100
AcDbLine
 10
950.797481902758
 20
421.0937499999998
 30
0.0
 11
926.1474819027583
 21
445.7437499999998
 31
0.0
1001
ACAD
1010
0.0
1020
0.0
1030
0.0
  0
LINE
  5
30F
330
10C
100
AcDbEntity
  8
1
  6
Continuous
 62
     4
100
AcDbLine
 10
705.6662319027582
 20
666.225
 30
0.0
 11
686.7499999999994
 21
685.1412319027587
 31
0.0
1001
ACAD
1010
0.0
1020
0.0
1030
0.0
  0
LINE
  5
310
330
10C
100
AcDbEntity
  8
1
  6
Continuous
 62
     4
100
AcDbLine
 10
909.4124999999996
 20
462.4787319027586
 30
0.0
 11
888.7562499999997
 21
483.1349819027586
 31
0.0
1001
ACAD
1010
0.0
1020
0.0
1030
0.0
  0
LINE
  5
311
330
10C
100
AcDbEntity
  8
1
  6
Continuous
 62
     4
100
AcDbLine
 10
960.593749999999
 20
421.9040836205569
 30
0.0
 11
936.7540836205566
 21
445.7437499999998
 31
0.0
1001
ACAD
1010
0.0
1020
0.0
1030
0.0
  0
LINE
  5
312
330
10C
100
AcDbEntity
  8
1
  6
Continuous
 62
     4
100
AcDbLine
 10
707.4062499999995
 20
675.0915836205572
 30
0.0
 11
686.7499999999994
 21
695.7478336205569
 31
0.0
1001
ACAD
1010
0.0
1020
0.0
1030
0.0
  0
LINE
  5
313
330
10C
100
AcDbEntity
  8
1
  6
Continuous
 62
     4
100
AcDbLine
 10
909.4124999999996
 20
473.0853336205568
 30
0.0
 11
888.7562499999997
 21
493.7415836205566
 31
0.0
1001
ACAD
1010
0.0
1020
0.0
1030
0.0
  0
LINE
  5
314
330
10C
100
AcDbEntity
  8
1
  6
Continuous
 62
     4
100
AcDbLine
 10
960.593749999999
 20
432.5106853383551
 30
0.0
 11
947.3606853383541
 21
445.7437499999998
 31
0.0
1001
ACAD
1010
0.0
1020
0.0
1030
0.0
  0
LINE
  5
315
330
10C
100
AcDbEntity
  8
1
  6
Continuous
 62
     4
100
AcDbLine
 10
707.4062499999991
 20
685.6981853383554
 30
0.0
 11
686.7499999999994
 21
706.3544353383552
 31
0.0
1001
ACAD
1010
0.0
1020
0.0
1030
0.0
  0
LINE
  5
316
330
10C
100
AcDbEntity
  8
1
  6
Continuous
 62
     4
100
AcDbLine
 10
909.4124999999996
 20
483.691935338355
 30
0.0
 11
888.7562499999997
 21
504.348185338355
 31
0.0
1001
ACAD
1010
0.0
1020
0.0
1030
0.0
  0
LINE
  5
317
330
10C
100
AcDbEntity
  8
1
  6
Continuous
 62
     4
100
AcDbLine
 10
960.593749999999
 20
443.1172870561533
 30
0.0
 11
957.9672870561529
 21
445.7437499999998
 31
0.0
1001
ACAD
1010
0.0
1020
0.0
1030
0.0
  0
LINE
  5
318
330
10C
100
AcDbEntity
  8
1
  6
Continuous
 62
     4
100
AcDbLine
 10
707.4062499999991
 20
696.3047870561537
 30
0.0
 11
686.7499999999994
 21
716.9610370561533
 31
0.0
1001
ACAD
1010
0.0
1020
0.0
1030
0.0
  0
LINE
  5
319
330
10C
100
AcDbEntity
  8
1
  6
Continuous
 62
     4
100
AcDbLine
 10
909.4124999999996
 20
494.298537056153
 30
0.0
 11
888.7562499999997
 21
514.9547870561532
 31
0.0
1001
ACAD
1010
0.0
1020
0.0
1030
0.0
  0
LINE
  5
31A
330
10C
100
AcDbEntity
  8
1
  6
Continuous
 62
     4
100
AcDbLine
 10
909.4124999999996
 20
504.9051387739513
 30
0.0
 11
888.7562499999997
 21
525.5613887739513
 31
0.0
1001
ACAD
1010
0.0
1020
0.0
1030
0.0
  0
LINE
  5
31B
330
10C
100
AcDbEntity
  8
1
  6
Continuous
 62
     4
100
AcDbLine
 10
707.4062499999991
 20
706.9113887739517
 30
0.0
 11
686.7499999999994
 21
727.5676387739515
 31
0.0
1001
ACAD
1010
0.0
1020
0.0
1030
0.0
  0
LINE
  5
31C
330
10C
100
AcDbEntity
  8
1
  6
Continuous
 62
     4
100
AcDbLine
 10
909.4124999999996
 20
515.5117404917497
 30
0.0
 11
888.7562499999997
 21
536.1679904917496
 31
0.0
1001
ACAD
1010
0.0
1020
0.0
1030
0.0
  0
LINE
  5
31D
330
10C
100
AcDbEntity
  8
1
  6
Continuous
 62
     4
100
AcDbLine
 10
707.4062499999991
 20
717.5179904917501
 30
0.0
 11
686.7499999999994
 21
738.1742404917497
 31
0.0
1001
ACAD
1010
0.0
1020
0.0
1030
0.0
  0
LINE
  5
31E
330
10C
100
AcDbEntity
  8
1
  6
Continuous
 62
     4
100
AcDbLine
 10
909.4124999999996
 20
526.118342209548
 30
0.0
 11
888.7562499999997
 21
546.774592209548
 31
0.0
1001
ACAD
1010
0.0
1020
0.0
1030
0.0
  0
LINE
  5
31F
330
10C
100
AcDbEntity
  8
1
  6
Continuous
 62
     4
100
AcDbLine
 10
707.4062499999991
 20
728.1245922095485
 30
0.0
 11
686.7499999999994
 21
748.7808422095481
 31
0.0
1001
ACAD
1010
0.0
1020
0.0
1030
0.0
  0
LINE
  5
320
330
10C
100
AcDbEntity
  8
1
  6
Continuous
 62
     4
100
AcDbLine
 10
909.4124999999996
 20
536.7249439273462
 30
0.0
 11
888.7562499999997
 21
557.3811939273459
 31
0.0
1001
ACAD
1010
0.0
1020
0.0
1030
0.0
  0
LINE
  5
321
330
10C
100
AcDbEntity
  8
1
  6
Continuous
 62
     4
100
AcDbLine
 10
707.4062499999991
 20
738.7311939273468
 30
0.0
 11
690.0951040281402
 21
756.0423398992053
 31
0.0
1001
ACAD
1010
0.0
1020
0.0
1030
0.0
  0
LINE
  5
322
330
10C
100
AcDbEntity
  8
1
  6
Continuous
 62
     4
100
AcDbLine
 10
909.4124999999996
 20
547.3315456451444
 30
0.0
 11
888.7562499999997
 21
567.9877956451442
 31
0.0
1001
ACAD
1010
0.0
1020
0.0
1030
0.0
  0
LINE
  5
323
330
10C
100
AcDbEntity
  8
1
  6
Continuous
 62
     4
100
AcDbLine
 10
707.4062499999991
 20
749.337795645145
 30
0.0
 11
697.354560434907
 21
759.3894852102367
 31
0.0
1001
ACAD
1010
0.0
1020
0.0
1030
0.0
  0
LINE
  5
324
330
10C
100
AcDbEntity
  8
1
  6
Continuous
 62
     4
100
AcDbLine
 10
909.4124999999996
 20
557.9381473629426
 30
0.0
 11
888.7562499999997
 21
578.5943973629422
 31
0.0
1001
ACAD
1010
0.0
1020
0.0
1030
0.0
  0
LINE
  5
325
330
10C
100
AcDbEntity
  8
1
  6
Continuous
 62
     4
100
AcDbLine
 10
707.4062499999991
 20
759.9443973629433
 30
0.0
 11
704.7725608463125
 21
762.5780865166291
 31
0.0
1001
ACAD
1010
0.0
1020
0.0
1030
0.0
  0
LINE
  5
326
330
10C
100
AcDbEntity
  8
1
  6
Continuous
 62
     4
100
AcDbLine
 10
909.4124999999996
 20
568.5447490807407
 30
0.0
 11
888.7562499999997
 21
589.2009990807407
 31
0.0
1001
ACAD
1010
0.0
1020
0.0
1030
0.0
  0
LINE
  5
327
330
10C
100
AcDbEntity
  8
1
  6
Continuous
 62
     4
100
AcDbLine
 10
909.4124999999996
 20
579.1513507985389
 30
0.0
 11
888.7562499999997
 21
599.8076007985389
 31
0.0
1001
ACAD
1010
0.0
1020
0.0
1030
0.0
  0
LINE
  5
328
330
10C
100
AcDbEntity
  8
1
  6
Continuous
 62
     4
100
AcDbLine
 10
909.4124999999996
 20
589.7579525163372
 30
0.0
 11
888.7562499999997
 21
610.4142025163371
 31
0.0
1001
ACAD
1010
0.0
1020
0.0
1030
0.0
  0
LINE
  5
329
330
10C
100
AcDbEntity
  8
1
  6
Continuous
 62
     4
100
AcDbLine
 10
909.4124999999996
 20
600.3645542341352
 30
0.0
 11
888.7562499999997
 21
621.0208042341353
 31
0.0
1001
ACAD
1010
0.0
1020
0.0
1030
0.0
  0
LINE
  5
32A
330
10C
100
AcDbEntity
  8
1
  6
Continuous
 62
     4
100
AcDbLine
 10
909.4124999999996
 20
610.9711559519332
 30
0.0
 11
888.7562499999997
 21
631.6274059519335
 31
0.0
1001
ACAD
1010
0.0
1020
0.0
1030
0.0
  0
LINE
  5
32B
330
10C
100
AcDbEntity
  8
1
  6
Continuous
 62
     4
100
AcDbLine
 10
909.4124999999996
 20
621.5777576697319
 30
0.0
 11
888.7562499999997
 21
642.2340076697317
 31
0.0
1001
ACAD
1010
0.0
1020
0.0
1030
0.0
  0
LINE
  5
32C
330
10C
100
AcDbEntity
  8
1
  6
Continuous
 62
     4
100
AcDbLine
 10
909.4124999999996
 20
632.1843593875301
 30
0.0
 11
888.7562499999997
 21
652.8406093875299
 31
0.0
1001
ACAD
1010
0.0
1020
0.0
1030
0.0
  0
LINE
  5
32D
330
10C
100
AcDbEntity
  8
1
  6
Continuous
 62
     4
100
AcDbLine
 10
909.4124999999996
 20
642.7909611053281
 30
0.0
 11
889.8659611053281
 21
662.3375
 31
0.0
1001
ACAD
1010
0.0
1020
0.0
1030
0.0
  0
LINE
  5
32E
330
10C
100
AcDbEntity
  8
1
  6
Continuous
 62
     4
100
AcDbLine
 10
895.0849727569206
 20
667.7250900662055
 30
0.0
 11
888.7562499999997
 21
674.0538128231262
 31
0.0
1001
ACAD
1010
0.0
1020
0.0
1030
0.0
  0
LINE
  5
32F
330
10C
100
AcDbEntity
  8
1
  6
Continuous
 62
     4
100
AcDbLine
 10
901.1343037060623
 20
672.2823608348619
 30
0.0
 11
888.7562499999997
 21
684.6604145409246
 31
0.0
1001
ACAD
1010
0.0
1020
0.0
1030
0.0
  0
LINE
  5
330
330
10C
100
AcDbEntity
  8
1
  6
Continuous
 62
     4
100
AcDbLine
 10
907.1836346552041
 20
676.8396316035182
 30
0.0
 11
888.7562499999997
 21
695.2670162587227
 31
0.0
1001
ACAD
1010
0.0
1020
0.0
1030
0.0
  0
LINE
  5
331
330
10C
100
AcDbEntity
  8
1
  6
Continuous
 62
     4
100
AcDbLine
 10
909.4124999999996
 20
685.2173679765211
 30
0.0
 11
888.7562499999997
 21
705.873617976521
 31
0.0
1001
ACAD
1010
0.0
1020
0.0
1030
0.0
  0
LINE
  5
332
330
10C
100
AcDbEntity
  8
1
  6
Continuous
 62
     4
100
AcDbLine
 10
909.4124999999996
 20
695.8239696943193
 30
0.0
 11
888.7562499999997
 21
716.4802196943193
 31
0.0
1001
ACAD
1010
0.0
1020
0.0
1030
0.0
  0
LINE
  5
333
330
10C
100
AcDbEntity
  8
1
  6
Continuous
 62
     4
100
AcDbLine
 10
909.4124999999996
 20
706.4305714121176
 30
0.0
 11
888.7562499999997
 21
727.0868214121175
 31
0.0
1001
ACAD
1010
0.0
1020
0.0
1030
0.0
  0
LINE
  5
334
330
10C
100
AcDbEntity
  8
1
  6
Continuous
 62
     4
100
AcDbLine
 10
909.4124999999996
 20
717.0371731299158
 30
0.0
 11
888.7562499999997
 21
737.6934231299157
 31
0.0
1001
ACAD
1010
0.0
1020
0.0
1030
0.0
  0
LINE
  5
335
330
10C
100
AcDbEntity
  8
1
  6
Continuous
 62
     4
100
AcDbLine
 10
909.4124999999996
 20
727.643774847714
 30
0.0
 11
891.5301585066602
 21
745.5261163410535
 31
0.0
1001
ACAD
1010
0.0
1020
0.0
1030
0.0
  0
LINE
  5
336
330
10C
100
AcDbEntity
  8
1
  6
Continuous
 62
     4
100
AcDbLine
 10
909.4124999999996
 20
738.2503765655123
 30
0.0
 11
899.4925902830333
 21
748.1702862824789
 31
0.0
1001
ACAD
1010
0.0
1020
0.0
1030
0.0
  0
LINE
  5
337
330
10C
100
AcDbEntity
  8
1
  6
Continuous
 62
     4
100
AcDbLine
 10
909.4124999999996
 20
748.8569782833105
 30
0.0
 11
906.7062419767687
 21
751.5632363065414
 31
0.0
1001
ACAD
1010
0.0
1020
0.0
1030
0.0
  0
LINE
  5
338
330
10C
100
AcDbEntity
  8
1
  6
Continuous
 62
     4
100
AcDbLine
 10
533.3187499999998
 20
508.465936257614
 30
0.0
 11
533.8965637423857
 21
509.0437500000001
 31
0.0
1001
ACAD
1010
0.0
1020
0.0
1030
0.0
  0
LINE
  5
339
330
10C
100
AcDbEntity
  8
1
  6
Continuous
 62
     4
100
AcDbLine
 10
533.3187500000001
 20
497.8593345398159
 30
0.0
 11
544.5031654601844
 21
509.0437500000001
 31
0.0
1001
ACAD
1010
0.0
1020
0.0
1030
0.0
  0
LINE
  5
33A
330
10C
100
AcDbEntity
  8
1
  6
Continuous
 62
     4
100
AcDbLine
 10
533.3187500000001
 20
487.2527328220177
 30
0.0
 11
554.0625000000001
 21
507.9964828220177
 31
0.0
1001
ACAD
1010
0.0
1020
0.0
1030
0.0
  0
LINE
  5
33B
330
10C
100
AcDbEntity
  8
1
  6
Continuous
 62
     4
100
AcDbLine
 10
533.3187500000001
 20
476.6461311042195
 30
0.0
 11
554.0625000000001
 21
497.3898811042192
 31
0.0
1001
ACAD
1010
0.0
1020
0.0
1030
0.0
  0
LINE
  5
33C
330
10C
100
AcDbEntity
  8
1
  6
Continuous
 62
     4
100
AcDbLine
 10
533.3187500000001
 20
466.0395293864213
 30
0.0
 11
554.0625000000001
 21
486.7832793864212
 31
0.0
1001
ACAD
1010
0.0
1020
0.0
1030
0.0
  0
LINE
  5
33D
330
10C
100
AcDbEntity
  8
1
  6
Continuous
 62
     4
100
AcDbLine
 10
533.3187500000001
 20
455.4329276686231
 30
0.0
 11
554.0625000000001
 21
476.1766776686227
 31
0.0
1001
ACAD
1010
0.0
1020
0.0
1030
0.0
  0
LINE
  5
33E
330
10C
100
AcDbEntity
  8
1
  6
Continuous
 62
     4
100
AcDbLine
 10
539.1861740491751
 20
450.6937500000001
 30
0.0
 11
554.0625000000001
 21
465.5700759508246
 31
0.0
1001
ACAD
1010
0.0
1020
0.0
1030
0.0
  0
LINE
  5
33F
330
10C
100
AcDbEntity
  8
1
  6
Continuous
 62
     4
100
AcDbLine
 10
549.7927757669733
 20
450.6937500000001
 30
0.0
 11
554.0625000000001
 21
454.9634742330266
 31
0.0
1001
ACAD
1010
0.0
1020
0.0
1030
0.0
  0
LINE
  5
340
330
10C
100
AcDbEntity
  8
1
  6
Continuous
 62
     4
100
AcDbLine
 10
648.0499999999997
 20
538.3443725152281
 30
0.0
 11
651.0493774847713
 21
541.3437499999998
 31
0.0
1001
ACAD
1010
0.0
1020
0.0
1030
0.0
  0
LINE
  5
341
330
10C
100
AcDbEntity
  8
1
  6
Continuous
 62
     4
100
AcDbLine
 10
623.78125
 20
503.4690207974302
 30
0.0
 11
629.3559792025697
 21
509.04375
 31
0.0
1001
ACAD
1010
0.0
1020
0.0
1030
0.0
  0
LINE
  5
342
330
10C
100
AcDbEntity
  8
1
  6
Continuous
 62
     4
100
AcDbLine
 10
648.0499999999997
 20
527.73777079743
 30
0.0
 11
661.65597920257
 21
541.3437499999998
 31
0.0
1001
ACAD
1010
0.0
1020
0.0
1030
0.0
  0
LINE
  5
343
330
10C
100
AcDbEntity
  8
1
  6
Continuous
 62
     4
100
AcDbLine
 10
623.78125
 20
492.8624190796319
 30
0.0
 11
639.9625809203679
 21
509.0437499999999
 31
0.0
1001
ACAD
1010
0.0
1020
0.0
1030
0.0
  0
LINE
  5
344
330
10C
100
AcDbEntity
  8
1
  6
Continuous
 62
     4
100
AcDbLine
 10
648.0499999999997
 20
517.1311690796318
 30
0.0
 11
672.2625809203682
 21
541.3437499999998
 31
0.0
1001
ACAD
1010
0.0
1020
0.0
1030
0.0
  0
LINE
  5
345
330
10C
100
AcDbEntity
  8
1
  6
Continuous
 62
     4
100
AcDbLine
 10
623.78125
 20
482.2558173618336
 30
0.0
 11
682.2187499999994
 21
540.6933173618333
 31
0.0
1001
ACAD
1010
0.0
1020
0.0
1030
0.0
  0
LINE
  5
346
330
10C
100
AcDbEntity
  8
1
  6
Continuous
 62
     4
100
AcDbLine
 10
623.78125
 20
471.6492156440355
 30
0.0
 11
682.2187499999994
 21
530.0867156440351
 31
0.0
1001
ACAD
1010
0.0
1020
0.0
1030
0.0
  0
LINE
  5
347
330
10C
100
AcDbEntity
  8
1
  6
Continuous
 62
     4
100
AcDbLine
 10
623.78125
 20
461.0426139262373
 30
0.0
 11
682.2187499999994
 21
519.4801139262367
 31
0.0
1001
ACAD
1010
0.0
1020
0.0
1030
0.0
  0
LINE
  5
348
330
10C
100
AcDbEntity
  8
1
  6
Continuous
 62
     4
100
AcDbLine
 10
624.0393904496645
 20
450.6941526581035
 30
0.0
 11
682.2187499999994
 21
508.8735122084385
 31
0.0
1001
ACAD
1010
0.0
1020
0.0
1030
0.0
  0
LINE
  5
349
330
10C
100
AcDbEntity
  8
1
  6
Continuous
 62
     4
100
AcDbLine
 10
634.6625626288883
 20
450.7107231195289
 30
0.0
 11
682.2187499999994
 21
498.2669104906404
 31
0.0
1001
ACAD
1010
0.0
1020
0.0
1030
0.0
  0
LINE
  5
34A
330
10C
100
AcDbEntity
  8
1
  6
Continuous
 62
     4
100
AcDbLine
 10
645.2857348081112
 20
450.7272935809542
 30
0.0
 11
682.2187499999994
 21
487.6603087728422
 31
0.0
1001
ACAD
1010
0.0
1020
0.0
1030
0.0
  0
LINE
  5
34B
330
10C
100
AcDbEntity
  8
1
  6
Continuous
 62
     4
100
AcDbLine
 10
655.9089069873349
 20
450.7438640423795
 30
0.0
 11
682.2187499999994
 21
477.0537070550441
 31
0.0
1001
ACAD
1010
0.0
1020
0.0
1030
0.0
  0
LINE
  5
34C
330
10C
100
AcDbEntity
  8
1
  6
Continuous
 62
     4
100
AcDbLine
 10
666.5320791665585
 20
450.7604345038044
 30
0.0
 11
682.2187499999994
 21
466.4471053372459
 31
0.0
1001
ACAD
1010
0.0
1020
0.0
1030
0.0
  0
LINE
  5
34D
330
10C
100
AcDbEntity
  8
1
  6
Continuous
 62
     4
100
AcDbLine
 10
913.9513865751473
 20
539.0807161454203
 30
0.0
 11
916.2144204297266
 21
541.3437500000001
 31
0.0
1001
ACAD
1010
0.0
1020
0.0
1030
0.0
  0
LINE
  5
34E
330
10C
100
AcDbEntity
  8
1
  6
Continuous
 62
     4
100
AcDbLine
 10
913.9870580270732
 20
528.5097858795478
 30
0.0
 11
926.8210221475252
 21
541.3437499999998
 31
0.0
1001
ACAD
1010
0.0
1020
0.0
1030
0.0
  0
LINE
  5
34F
330
10C
100
AcDbEntity
  8
1
  6
Continuous
 62
     4
100
AcDbLine
 10
914.0227294789992
 20
517.9388556136757
 30
0.0
 11
937.4276238653232
 21
541.3437499999997
 31
0.0
1001
ACAD
1010
0.0
1020
0.0
1030
0.0
  0
LINE
  5
350
330
10C
100
AcDbEntity
  8
1
  6
Continuous
 62
     4
100
AcDbLine
 10
914.0584009309252
 20
507.3679253478036
 30
0.0
 11
948.034225583121
 21
541.3437499999997
 31
0.0
1001
ACAD
1010
0.0
1020
0.0
1030
0.0
  0
LINE
  5
351
330
10C
100
AcDbEntity
  8
1
  6
Continuous
 62
     4
100
AcDbLine
 10
914.0940723828512
 20
496.7969950819314
 30
0.0
 11
948.25625
 21
530.9591726990801
 31
0.0
1001
ACAD
1010
0.0
1020
0.0
1030
0.0
  0
LINE
  5
352
330
10C
100
AcDbEntity
  8
1
  6
Continuous
 62
     4
100
AcDbLine
 10
914.1297438347772
 20
486.2260648160591
 30
0.0
 11
948.25625
 21
520.3525709812819
 31
0.0
1001
ACAD
1010
0.0
1020
0.0
1030
0.0
  0
LINE
  5
353
330
10C
100
AcDbEntity
  8
1
  6
Continuous
 62
     4
100
AcDbLine
 10
914.1654152867031
 20
475.6551345501868
 30
0.0
 11
948.25625
 21
509.7459692634836
 31
0.0
1001
ACAD
1010
0.0
1020
0.0
1030
0.0
  0
LINE
  5
354
330
10C
100
AcDbEntity
  8
1
  6
Continuous
 62
     4
100
AcDbLine
 10
914.0756723979761
 20
464.9587899436613
 30
0.0
 11
958.160632454315
 21
509.0437500000001
 31
0.0
1001
ACAD
1010
0.0
1020
0.0
1030
0.0
  0
LINE
  5
355
330
10C
100
AcDbEntity
  8
1
  6
Continuous
 62
     4
100
AcDbLine
 10
916.881638524468
 20
457.1581543523548
 30
0.0
 11
968.7672341721132
 21
509.04375
 31
0.0
1001
ACAD
1010
0.0
1020
0.0
1030
0.0
  0
LINE
  5
356
330
10C
100
AcDbEntity
  8
1
  6
Continuous
 62
     4
100
AcDbLine
 10
922.5697553567032
 20
452.2396694667922
 30
0.0
 11
972.3812500000001
 21
502.051164110089
 31
0.0
1001
ACAD
1010
0.0
1020
0.0
1030
0.0
  0
LINE
  5
357
330
10C
100
AcDbEntity
  8
1
  6
Continuous
 62
     4
100
AcDbLine
 10
931.6653795095088
 20
450.7286919017998
 30
0.0
 11
972.3812500000001
 21
491.4445623922906
 31
0.0
1001
ACAD
1010
0.0
1020
0.0
1030
0.0
  0
LINE
  5
358
330
10C
100
AcDbEntity
  8
1
  6
Continuous
 62
     4
100
AcDbLine
 10
942.3269595495979
 20
450.7836702240913
 30
0.0
 11
972.3812500000001
 21
480.8379606744926
 31
0.0
1001
ACAD
1010
0.0
1020
0.0
1030
0.0
  0
LINE
  5
359
330
10C
100
AcDbEntity
  8
1
  6
Continuous
 62
     4
100
AcDbLine
 10
952.9256562167407
 20
450.7757651734352
 30
0.0
 11
972.3812500000001
 21
470.2313589566943
 31
0.0
1001
ACAD
1010
0.0
1020
0.0
1030
0.0
  0
LINE
  5
35A
330
10C
100
AcDbEntity
  8
1
  6
Continuous
 62
     4
100
AcDbLine
 10
963.5243528838827
 20
450.7678601227791
 30
0.0
 11
972.3812500000001
 21
459.6247572388961
 31
0.0
1001
ACAD
1010
0.0
1020
0.0
1030
0.0
  0
LINE
  5
35B
330
10C
100
AcDbEntity
  8
1
  6
Continuous
 62
     4
100
AcDbLine
 10
1042.099999999998
 20
508.1303038032976
 30
0.0
 11
1043.0134461967
 21
509.0437500000001
 31
0.0
1001
ACAD
1010
0.0
1020
0.0
1030
0.0
  0
LINE
  5
35C
330
10C
100
AcDbEntity
  8
1
  6
Continuous
 62
     4
100
AcDbLine
 10
1042.099999999998
 20
497.5237020854997
 30
0.0
 11
1053.620047914497
 21
509.04375
 31
0.0
1001
ACAD
1010
0.0
1020
0.0
1030
0.0
  0
LINE
  5
35D
330
10C
100
AcDbEntity
  8
1
  6
Continuous
 62
     4
100
AcDbLine
 10
1042.099999999998
 20
486.9171003677013
 30
0.0
 11
1062.8875
 21
507.7046003677036
 31
0.0
1001
ACAD
1010
0.0
1020
0.0
1030
0.0
  0
LINE
  5
35E
330
10C
100
AcDbEntity
  8
1
  6
Continuous
 62
     4
100
AcDbLine
 10
1042.099999999998
 20
476.3104986499032
 30
0.0
 11
1062.8875
 21
497.0979986499052
 31
0.0
1001
ACAD
1010
0.0
1020
0.0
1030
0.0
  0
LINE
  5
35F
330
10C
100
AcDbEntity
  8
1
  6
Continuous
 62
     4
100
AcDbLine
 10
1042.099999999998
 20
465.703896932105
 30
0.0
 11
1062.8875
 21
486.4913969321071
 31
0.0
1001
ACAD
1010
0.0
1020
0.0
1030
0.0
  0
LINE
  5
360
330
10C
100
AcDbEntity
  8
1
  6
Continuous
 62
     4
100
AcDbLine
 10
1042.099999999998
 20
455.0972952143069
 30
0.0
 11
1062.8875
 21
475.8847952143088
 31
0.0
1001
ACAD
1010
0.0
1020
0.0
1030
0.0
  0
LINE
  5
361
330
10C
100
AcDbEntity
  8
1
  6
Continuous
 62
     4
100
AcDbLine
 10
1048.303056503489
 20
450.69375
 30
0.0
 11
1062.8875
 21
465.2781934965106
 31
0.0
1001
ACAD
1010
0.0
1020
0.0
1030
0.0
  0
LINE
  5
362
330
10C
100
AcDbEntity
  8
1
  6
Continuous
 62
     4
100
AcDbLine
 10
1058.909658221288
 20
450.6937500000001
 30
0.0
 11
1062.8875
 21
454.6715917787124
 31
0.0
1001
ACAD
1010
0.0
1020
0.0
1030
0.0
  0
LINE
  5
363
330
10C
100
AcDbEntity
  8
1
  6
Continuous
 62
     7
100
AcDbLine
 10
533.3187500000001
 20
509.04375
 30
0.0
 11
533.3187500000001
 21
450.69375
 31
0.0
  0
LINE
  5
364
330
10C
100
AcDbEntity
  8
1
  6
Continuous
 62
     7
100
AcDbLine
 10
1062.8875
 20
509.04375
 30
0.0
 11
1062.8875
 21
450.69375
 31
0.0
  0
LINE
  5
365
330
10C
100
AcDbEntity
  8
1
  6
Continuous
 62
     7
100
AcDbLine
 10
533.3187500000001
 20
509.04375
 30
0.0
 11
648.0499999999997
 21
509.0437499999999
 31
0.0
  0
LINE
  5
366
330
10C
100
AcDbEntity
  8
1
  6
Continuous
 62
     7
100
AcDbLine
 10
948.25625
 20
509.0437500000001
 30
0.0
 11
1062.8875
 21
509.04375
 31
0.0
  0
LINE
  5
367
330
10C
100
AcDbEntity
  8
1
  6
Continuous
 62
     4
100
AcDbLine
 10
635.5687500000001
 20
421.09375
 30
0.0
 11
960.5937499999999
 21
421.09375
 31
0.0
  0
LINE
  5
368
330
10C
100
AcDbEntity
  8
1
  6
Continuous
 62
     4
100
AcDbLine
 10
635.5687500000001
 20
445.74375
 30
0.0
 11
635.5687500000001
 21
421.09375
 31
0.0
  0
LINE
  5
369
330
10C
100
AcDbEntity
  8
1
  6
Continuous
 62
     4
100
AcDbLine
 10
960.5937499999999
 20
445.74375
 30
0.0
 11
960.5937499999999
 21
421.09375
 31
0.0
  0
LINE
  5
36A
330
10C
100
AcDbEntity
  8
1
  6
Continuous
 62
     4
100
AcDbLine
 10
707.4062499999995
 20
662.3375
 30
0.0
 11
707.4062499999995
 21
421.09375
 31
0.0
  0
LINE
  5
36B
330
10C
100
AcDbEntity
  8
1
  6
Continuous
 62
     4
100
AcDbLine
 10
888.7562499999997
 20
662.3375
 30
0.0
 11
888.7562499999997
 21
421.09375
 31
0.0
  0
LINE
  5
36C
330
10C
100
AcDbEntity
  8
1
  6
Continuous
 62
     4
100
AcDbLine
 10
703.0687500000001
 20
662.3375
 30
0.0
 11
893.0937500000004
 21
662.3375
 31
0.0
  0
LINE
  5
36D
330
10C
100
AcDbEntity
  8
1
  6
Continuous
 62
     4
100
AcDbLine
 10
798.0812500000003
 20
754.4937499999997
 30
0.0
 11
798.0812500000003
 21
421.09375
 31
0.0
  0
LINE
  5
36E
330
10C
100
AcDbEntity
  8
1
  6
Continuous
 62
     4
100
AcDbLine
 10
588.91875
 20
521.2448344323984
 30
0.0
 11
588.91875
 21
438.7326521456443
 31
0.0
  0
LINE
  5
36F
330
10C
100
AcDbEntity
  8
1
  6
Continuous
 62
     4
100
AcDbLine
 10
1007.243749999999
 20
522.8164966401528
 30
0.0
 11
1007.243749999999
 21
437.1609920548608
 31
0.0
  0
LINE
  5
370
330
10C
100
AcDbEntity
  8
1
  6
Continuous
 62
     7
100
AcDbLine
 10
554.0625000000001
 20
509.04375
 30
0.0
 11
554.0625000000001
 21
450.69375
 31
0.0
  0
LINE
  5
371
330
10C
100
AcDbEntity
  8
1
  6
Continuous
 62
     7
100
AcDbLine
 10
623.7812500000002
 20
509.04375
 30
0.0
 11
623.7812500000002
 21
450.69375
 31
0.0
  0
LINE
  5
372
330
10C
100
AcDbEntity
  8
1
  6
Continuous
 62
     7
100
AcDbLine
 10
972.3812500000001
 20
509.04375
 30
0.0
 11
972.3812500000001
 21
450.69375
 31
0.0
  0
LINE
  5
373
330
10C
100
AcDbEntity
  8
1
  6
Continuous
 62
     7
100
AcDbLine
 10
1042.099999999998
 20
509.04375
 30
0.0
 11
1042.099999999998
 21
450.69375
 31
0.0
  0
LINE
  5
374
330
10C
100
AcDbEntity
  8
1
  6
Continuous
 62
     4
100
AcDbLine
 10
686.7500000000005
 20
650.04375
 30
0.0
 11
686.7500000000005
 21
445.74375
 31
0.0
  0
LINE
  5
375
330
10C
100
AcDbEntity
  8
1
  6
Continuous
 62
     4
100
AcDbLine
 10
686.7500000000005
 20
650.04375
 30
0.0
 11
703.075
 21
662.3375
 31
0.0
  0
LINE
  5
376
330
10C
100
AcDbEntity
  8
1
  6
Continuous
 62
     4
100
AcDbLine
 10
909.4125
 20
650.04375
 30
0.0
 11
909.4125
 21
445.74375
 31
0.0
  0
LINE
  5
377
330
10C
100
AcDbEntity
  8
1
  6
Continuous
 62
     4
100
AcDbLine
 10
703.0687500000001
 20
666.225
 30
0.0
 11
893.0937500000004
 21
666.225
 31
0.0
  0
LINE
  5
378
330
10C
100
AcDbEntity
  8
1
  6
Continuous
 62
     4
100
AcDbLine
 10
686.7500000000005
 20
678.5187499999997
 30
0.0
 11
703.0687500000001
 21
666.225
 31
0.0
  0
LINE
  5
379
330
10C
100
AcDbEntity
  8
1
  6
Continuous
 62
     4
100
AcDbLine
 10
707.4062499999995
 20
666.225
 30
0.0
 11
707.4062499999995
 21
763.3305712685736
 31
0.0
  0
LINE
  5
37A
330
10C
100
AcDbEntity
  8
1
  6
Continuous
 62
     4
100
AcDbLine
 10
888.7562499999997
 20
666.225
 30
0.0
 11
888.7562499999997
 21
744.6625
 31
0.0
  0
LINE
  5
37B
330
10C
100
AcDbEntity
  8
1
  6
Continuous
 62
     4
100
AcDbLine
 10
686.7500000000005
 20
678.5187499999997
 30
0.0
 11
686.7500000000005
 21
754.4999999999999
 31
0.0
  0
LINE
  5
37C
330
10C
100
AcDbEntity
  8
1
  6
Continuous
 62
     4
100
AcDbLine
 10
909.4125
 20
678.5187499999997
 30
0.0
 11
909.4125
 21
752.8361281253985
 31
0.0
  0
LINE
  5
37E
330
10C
100
AcDbEntity
  8
1
  6
Continuous
 62
     4
100
AcDbLine
 10
707.4062499999995
 20
666.225
 30
0.0
 11
707.4062499999995
 21
662.3375
 31
0.0
  0
LINE
  5
37F
330
10C
100
AcDbEntity
  8
1
  6
Continuous
 62
     4
100
AcDbLine
 10
909.4125
 20
650.04375
 30
0.0
 11
893.0875000000003
 21
662.3375
 31
0.0
  0
LINE
  5
380
330
10C
100
AcDbEntity
  8
1
  6
Continuous
 62
     4
100
AcDbLine
 10
909.4125
 20
678.5187499999997
 30
0.0
 11
893.0937500000004
 21
666.225
 31
0.0
  0
LINE
  5
381
330
10C
100
AcDbEntity
  8
1
  6
Continuous
 62
     4
100
AcDbLine
 10
888.7562499999997
 20
666.225
 30
0.0
 11
888.7562499999997
 21
662.3375
 31
0.0
  0
LINE
  5
385
330
10C
100
AcDbEntity
  8
1
  6
Continuous
 62
     7
100
AcDbLine
 10
682.2187499999994
 20
541.3437499999998
 30
0.0
 11
682.2187499999994
 21
465.7249999999945
 31
0.0
  0
LINE
  5
386
330
10C
100
AcDbEntity
  8
1
  6
Continuous
 62
     7
100
AcDbLine
 10
913.9437499999999
 20
541.3437499999998
 30
0.0
 11
913.9437499999999
 21
465.725
 31
0.0
  0
LINE
  5
387
330
10C
100
AcDbEntity
  8
1
  6
Continuous
 62
     4
100
AcDbLine
 10
635.5687500000001
 20
445.74375
 30
0.0
 11
686.7500000000005
 21
445.74375
 31
0.0
  0
LINE
  5
388
330
10C
100
AcDbEntity
  8
1
  6
Continuous
 62
     4
100
AcDbLine
 10
909.4125
 20
445.74375
 30
0.0
 11
960.5937499999999
 21
445.74375
 31
0.0
  0
LINE
  5
389
330
10C
100
AcDbEntity
  8
1
  6
Continuous
 62
     7
100
AcDbLine
 10
533.3187500000001
 20
450.69375
 30
0.0
 11
686.7500000000005
 21
450.69375
 31
0.0
  0
LINE
  5
38A
330
10C
100
AcDbEntity
  8
1
  6
Continuous
 62
     7
100
AcDbLine
 10
909.4125
 20
450.69375
 30
0.0
 11
1062.8875
 21
450.69375
 31
0.0
  0
LINE
  5
38B
330
10C
100
AcDbEntity
  8
1
  6
Continuous
 62
     7
100
AcDbLine
 10
648.0499999999997
 20
541.3437499999998
 30
0.0
 11
686.7500000000005
 21
541.3437499999998
 31
0.0
  0
LINE
  5
38C
330
10C
100
AcDbEntity
  8
1
  6
Continuous
 62
     7
100
AcDbLine
 10
948.25625
 20
509.0437500000001
 30
0.0
 11
948.25625
 21
541.3437499999997
 31
0.0
  0
LINE
  5
38D
330
10C
100
AcDbEntity
  8
1
  6
Continuous
 62
     7
100
AcDbLine
 10
948.25625
 20
541.3437499999997
 30
0.0
 11
909.4125
 21
541.3437499999998
 31
0.0
  0
LINE
  5
38E
330
10C
100
AcDbEntity
  8
1
  6
Continuous
 62
     3
100
AcDbLine
 10
532.4375000000001
 20
442.2937499999998
 30
0.0
 11
532.4375000000001
 21
210.4875
 31
0.0
  0
LINE
  5
38F
330
10C
100
AcDbEntity
  8
1
  6
Continuous
 62
     3
100
AcDbLine
 10
588.7062499999997
 20
428.5168573216101
 30
0.0
 11
588.7062499999997
 21
262.5
 31
0.0
  0
LINE
  5
390
330
10C
100
AcDbEntity
  8
1
  6
Continuous
 62
     3
100
AcDbLine
 10
1007.429823026497
 20
428.5168573216101
 30
0.0
 11
1007.429823026497
 21
262.5
 31
0.0
  0
LINE
  5
391
330
10C
100
AcDbEntity
  8
1
  6
Continuous
 62
     3
100
AcDbLine
 10
1062.857755474414
 20
442.2937499999998
 30
0.0
 11
1062.857755474414
 21
210.4875
 31
0.0
  0
LINE
  5
392
330
10C
100
AcDbEntity
  8
1
  6
Continuous
 62
     5
100
AcDbLine
 10
801.0875000000003
 20
239.5124999999999
 30
0.0
 11
804.0874999999997
 21
239.5124999999999
 31
0.0
  0
LINE
  5
393
330
10C
100
AcDbEntity
  8
1
  6
Continuous
 62
     5
100
AcDbLine
 10
800.3937499999997
 20
290.8999999999998
 30
0.0
 11
819.3937500000002
 21
290.8999999999998
 31
0.0
  0
LINE
  5
394
330
10C
100
AcDbEntity
  8
1
  6
Continuous
 62
     3
100
AcDbLine
 10
588.7062499999997
 20
270.8999999999999
 30
0.0
 11
612.41875
 21
277.45625
 31
0.0
  0
LINE
  5
395
330
10C
100
AcDbEntity
  8
1
  6
Continuous
 62
     3
100
AcDbLine
 10
588.7062499999997
 20
270.8999999999999
 30
0.0
 11
612.41875
 21
264.34375
 31
0.0
  0
LINE
  5
396
330
10C
100
AcDbEntity
  8
1
  6
Continuous
 62
     3
100
AcDbLine
 10
612.41875
 20
264.34375
 30
0.0
 11
612.41875
 21
277.45625
 31
0.0
  0
LINE
  5
397
330
10C
100
AcDbEntity
  8
1
  6
Continuous
 62
     3
100
AcDbLine
 10
532.4375000000001
 20
218.8874999999999
 30
0.0
 11
556.1500000000002
 21
225.4437499999999
 31
0.0
  0
LINE
  5
398
330
10C
100
AcDbEntity
  8
1
  6
Continuous
 62
     3
100
AcDbLine
 10
532.4375000000001
 20
218.8874999999999
 30
0.0
 11
556.1500000000002
 21
212.3312499999999
 31
0.0
  0
LINE
  5
399
330
10C
100
AcDbEntity
  8
1
  6
Continuous
 62
     3
100
AcDbLine
 10
556.1500000000002
 20
212.3312499999999
 30
0.0
 11
556.1500000000002
 21
225.4437499999999
 31
0.0
  0
LINE
  5
39A
330
10C
100
AcDbEntity
  8
1
  6
Continuous
 62
     3
100
AcDbLine
 10
1007.429823026497
 20
270.8999999999999
 30
0.0
 11
983.7173230265007
 21
264.34375
 31
0.0
  0
LINE
  5
39B
330
10C
100
AcDbEntity
  8
1
  6
Continuous
 62
     3
100
AcDbLine
 10
1007.429823026497
 20
270.8999999999999
 30
0.0
 11
983.7173230265007
 21
277.45625
 31
0.0
  0
LINE
  5
39C
330
10C
100
AcDbEntity
  8
1
  6
Continuous
 62
     3
100
AcDbLine
 10
983.7173230265007
 20
277.45625
 30
0.0
 11
983.7173230265007
 21
264.34375
 31
0.0
  0
LINE
  5
39D
330
10C
100
AcDbEntity
  8
1
  6
Continuous
 62
     3
100
AcDbLine
 10
1062.857755474414
 20
218.8874999999999
 30
0.0
 11
1039.145255474414
 21
212.3312499999999
 31
0.0
  0
LINE
  5
39E
330
10C
100
AcDbEntity
  8
1
  6
Continuous
 62
     3
100
AcDbLine
 10
1062.857755474414
 20
218.8874999999999
 30
0.0
 11
1039.145255474414
 21
225.4437499999999
 31
0.0
  0
LINE
  5
39F
330
10C
100
AcDbEntity
  8
1
  6
Continuous
 62
     3
100
AcDbLine
 10
1039.145255474414
 20
225.4437499999999
 30
0.0
 11
1039.145255474414
 21
212.3312499999999
 31
0.0
  0
LINE
  5
3A0
330
10C
100
AcDbEntity
  8
1
  6
Continuous
 62
     3
100
AcDbLine
 10
1078.65
 20
450.3687499999998
 30
0.0
 11
1352.005107721691
 21
450.3687499999998
 31
0.0
  0
LINE
  5
3A1
330
10C
100
AcDbEntity
  8
1
  6
Continuous
 62
     3
100
AcDbLine
 10
1078.43125
 20
509.325
 30
0.0
 11
1214.567512561572
 21
509.325
 31
0.0
  0
LINE
  5
3A2
330
10C
100
AcDbEntity
  8
1
  6
Continuous
 62
     5
100
AcDbLine
 10
1341.808046572507
 20
496.01207509981
 30
0.0
 11
1349.808046572507
 21
496.01207509981
 31
0.0
  0
LINE
  5
3A3
330
10C
100
AcDbEntity
  8
1
  6
Continuous
 62
     3
100
AcDbLine
 10
648.0499999999997
 20
547.56875
 30
0.0
 11
648.0499999999997
 21
903.99375
 31
0.0
  0
LINE
  5
3A4
330
10C
100
AcDbEntity
  8
1
  6
Continuous
 62
     5
100
AcDbLine
 10
800.2687500000003
 20
904.9125
 30
0.0
 11
805.2687499999997
 21
904.9125
 31
0.0
  0
LINE
  5
3A5
330
10C
100
AcDbEntity
  8
1
  6
Continuous
 62
     3
100
AcDbLine
 10
682.0812499999997
 20
547.56875
 30
0.0
 11
682.0812499999997
 21
650.3322791761437
 31
0.0
  0
LINE
  5
3A6
330
10C
100
AcDbEntity
  8
1
  6
Continuous
 62
     5
100
AcDbLine
 10
801.2687499999996
 20
848.4562499999999
 30
0.0
 11
833.2687499999996
 21
848.4562499999999
 31
0.0
  0
LINE
  5
3A7
330
10C
100
AcDbEntity
  8
1
  6
Continuous
 62
     3
100
AcDbLine
 10
648.0499999999997
 20
884.9187500000001
 30
0.0
 11
671.7625
 21
891.4749999999996
 31
0.0
  0
LINE
  5
3A8
330
10C
100
AcDbEntity
  8
1
  6
Continuous
 62
     3
100
AcDbLine
 10
648.0499999999997
 20
884.9187500000001
 30
0.0
 11
671.7625
 21
878.3624999999997
 31
0.0
  0
LINE
  5
3A9
330
10C
100
AcDbEntity
  8
1
  6
Continuous
 62
     3
100
AcDbLine
 10
671.7625
 20
878.3624999999997
 30
0.0
 11
671.7625
 21
891.4749999999996
 31
0.0
  0
LINE
  5
3AA
330
10C
100
AcDbEntity
  8
1
  6
Continuous
 62
     3
100
AcDbLine
 10
682.0812499999997
 20
828.4625
 30
0.0
 11
705.79375
 21
835.01875
 31
0.0
  0
LINE
  5
3AB
330
10C
100
AcDbEntity
  8
1
  6
Continuous
 62
     3
100
AcDbLine
 10
682.0812499999997
 20
828.4625
 30
0.0
 11
705.79375
 21
821.9062499999999
 31
0.0
  0
LINE
  5
3AC
330
10C
100
AcDbEntity
  8
1
  6
Continuous
 62
     3
100
AcDbLine
 10
705.79375
 20
821.9062499999999
 30
0.0
 11
705.79375
 21
835.01875
 31
0.0
  0
LINE
  5
3AD
330
10C
100
AcDbEntity
  8
1
  6
Continuous
 62
     3
100
AcDbLine
 10
948.56875
 20
884.9187500000001
 30
0.0
 11
924.85625
 21
878.3624999999997
 31
0.0
  0
LINE
  5
3AE
330
10C
100
AcDbEntity
  8
1
  6
Continuous
 62
     3
100
AcDbLine
 10
948.56875
 20
884.9187500000001
 30
0.0
 11
924.85625
 21
891.4749999999996
 31
0.0
  0
LINE
  5
3AF
330
10C
100
AcDbEntity
  8
1
  6
Continuous
 62
     3
100
AcDbLine
 10
924.85625
 20
891.4749999999996
 30
0.0
 11
924.85625
 21
878.3624999999997
 31
0.0
  0
LINE
  5
3B0
330
10C
100
AcDbEntity
  8
1
  6
Continuous
 62
     3
100
AcDbLine
 10
913.8937500000002
 20
828.4625
 30
0.0
 11
890.1812500000003
 21
821.9062499999999
 31
0.0
  0
LINE
  5
3B1
330
10C
100
AcDbEntity
  8
1
  6
Continuous
 62
     3
100
AcDbLine
 10
913.8937500000002
 20
828.4625
 30
0.0
 11
890.1812500000003
 21
835.01875
 31
0.0
  0
LINE
  5
3B2
330
10C
100
AcDbEntity
  8
1
  6
Continuous
 62
     3
100
AcDbLine
 10
890.1812500000003
 20
835.01875
 30
0.0
 11
890.1812500000003
 21
821.9062499999999
 31
0.0
  0
LINE
  5
3B5
330
10C
100
AcDbEntity
  8
1
  6
Continuous
 62
     3
100
AcDbLine
 10
957.3500000000001
 20
541.3499999999998
 30
0.0
 11
1196.319169417947
 21
541.3499999999998
 31
0.0
  0
LINE
  5
3B6
330
10C
100
AcDbEntity
  8
1
  6
Continuous
 62
     3
100
AcDbLine
 10
1205.417512561572
 20
426.6499999999998
 30
0.0
 11
1205.417512561572
 21
400.6027722535828
 31
0.0
  0
LINE
  5
3B7
330
10C
100
AcDbEntity
  8
1
  6
Continuous
 62
     5
100
AcDbLine
 10
1205.417512561571
 20
479.84375
 30
0.0
 11
1250.417512561571
 21
479.84375
 31
0.0
  0
LINE
  5
3B8
330
10C
100
AcDbEntity
  8
1
  6
Continuous
 62
     3
100
AcDbLine
 10
1205.417512561572
 20
450.3625
 30
0.0
 11
1211.973762561572
 21
426.6499999999998
 31
0.0
  0
LINE
  5
3B9
330
10C
100
AcDbEntity
  8
1
  6
Continuous
 62
     3
100
AcDbLine
 10
1205.417512561572
 20
450.3625
 30
0.0
 11
1198.861262561571
 21
426.6499999999998
 31
0.0
  0
LINE
  5
3BA
330
10C
100
AcDbEntity
  8
1
  6
Continuous
 62
     3
100
AcDbLine
 10
1198.861262561571
 20
426.6499999999998
 30
0.0
 11
1211.973762561572
 21
426.6499999999998
 31
0.0
  0
LINE
  5
3BC
330
10C
100
AcDbEntity
  8
1
  6
Continuous
 62
     3
100
AcDbLine
 10
1079.815361983195
 20
733.6849395590379
 30
0.0
 11
928.281048727144
 21
618.2265008113366
 31
0.0
  0
LINE
  5
3BD
330
10C
100
AcDbEntity
  8
1
  6
Continuous
 62
     3
100
AcDbLine
 10
909.4125
 20
603.8499999999998
 30
0.0
 11
924.7769609136044
 21
623.0666670876957
 31
0.0
  0
LINE
  5
3BE
330
10C
100
AcDbEntity
  8
1
  6
Continuous
 62
     3
100
AcDbLine
 10
909.4125
 20
603.8499999999998
 30
0.0
 11
932.4677378007576
 21
612.4434633014301
 31
0.0
  0
LINE
  5
3BF
330
10C
100
AcDbEntity
  8
1
  6
Continuous
 62
     3
100
AcDbLine
 10
932.4677378007576
 20
612.4434633014301
 30
0.0
 11
924.7769609136044
 21
623.0666670876957
 31
0.0
  0
LINE
  5
3C0
330
10C
100
AcDbEntity
  8
1
  6
Continuous
 62
     3
100
AcDbLine
 10
913.8937500000002
 20
548.2124999999999
 30
0.0
 11
913.8937500000002
 21
597.7062499999997
 31
0.0
  0
LINE
  5
3C1
330
10C
100
AcDbEntity
  8
1
  6
Continuous
 62
     3
100
AcDbLine
 10
913.8937500000002
 20
618.3687499999997
 30
0.0
 11
913.8937500000002
 21
654.1821301527741
 31
0.0
  0
LINE
  5
3C2
330
10C
100
AcDbEntity
  8
1
  6
Continuous
 62
     3
100
AcDbLine
 10
948.56875
 20
545.6437499999998
 30
0.0
 11
948.56875
 21
622.9631057683762
 31
0.0
  0
LINE
  5
3C3
330
10C
100
AcDbEntity
  8
1
  6
Continuous
 62
     3
100
AcDbLine
 10
948.56875
 20
643.7701997729582
 30
0.0
 11
948.56875
 21
906.6749999999997
 31
0.0
  0
LINE
  5
3C4
330
10C
100
AcDbEntity
  8
1
  6
Continuous
 62
     3
100
AcDbLine
 10
671.7625
 20
884.9187500000001
 30
0.0
 11
924.85625
 21
884.9187500000001
 31
0.0
  0
LINE
  5
3C5
330
10C
100
AcDbEntity
  8
1
  6
Continuous
 62
     3
100
AcDbLine
 10
705.79375
 20
828.4625
 30
0.0
 11
890.1812500000003
 21
828.4625
 31
0.0
  0
LINE
  5
3C6
330
10C
100
AcDbEntity
  8
1
  6
Continuous
 62
     3
100
AcDbLine
 10
612.41875
 20
270.8999999999999
 30
0.0
 11
983.7173230265007
 21
270.8999999999999
 31
0.0
  0
LINE
  5
3C7
330
10C
100
AcDbEntity
  8
1
  6
Continuous
 62
     3
100
AcDbLine
 10
556.1500000000002
 20
218.8874999999999
 30
0.0
 11
1039.145255474414
 21
218.8874999999999
 31
0.0
  0
LINE
  5
3D9
330
10C
100
AcDbEntity
  8
1
  6
Continuous
 62
     7
100
AcDbLine
 10
648.0499999999997
 20
541.3437499999998
 30
0.0
 11
648.0499999999997
 21
509.0437499999999
 31
0.0
  0
LINE
  5
3DA
330
10C
100
AcDbEntity
  8
1
  6
Continuous
 62
     3
100
AcDbLine
 10
1341.773485423324
 20
450.6187500000002
 30
0.0
 11
1348.329735423323
 21
426.9062500000002
 31
0.0
  0
LINE
  5
3DB
330
10C
100
AcDbEntity
  8
1
  6
Continuous
 62
     3
100
AcDbLine
 10
1341.773485423324
 20
450.6187500000002
 30
0.0
 11
1335.217235423324
 21
426.9062500000002
 31
0.0
  0
LINE
  5
3DC
330
10C
100
AcDbEntity
  8
1
  6
Continuous
 62
     3
100
AcDbLine
 10
1335.217235423324
 20
426.9062500000002
 30
0.0
 11
1348.329735423323
 21
426.9062500000002
 31
0.0
  0
LINE
  5
3DD
330
10C
100
AcDbEntity
  8
1
  6
Continuous
 62
     3
100
AcDbLine
 10
1341.773485423324
 20
426.9062500000002
 30
0.0
 11
1341.773485423324
 21
400.6027722535828
 31
0.0
  0
LINE
  5
3DE
330
10C
100
AcDbEntity
  8
1
  6
Continuous
 62
     3
100
AcDbLine
 10
1341.84260772169
 20
541.40540019962
 30
0.0
 11
1335.286357721691
 21
565.1179001996203
 31
0.0
  0
LINE
  5
3DF
330
10C
100
AcDbEntity
  8
1
  6
Continuous
 62
     3
100
AcDbLine
 10
1341.84260772169
 20
541.40540019962
 30
0.0
 11
1348.398857721691
 21
565.1179001996203
 31
0.0
  0
LINE
  5
3E0
330
10C
100
AcDbEntity
  8
1
  6
Continuous
 62
     3
100
AcDbLine
 10
1348.398857721691
 20
565.1179001996203
 30
0.0
 11
1335.286357721691
 21
565.1179001996203
 31
0.0
  0
LINE
  5
3E1
330
10C
100
AcDbEntity
  8
1
  6
Continuous
 62
     3
100
AcDbLine
 10
1341.84260772169
 20
588.1705007045089
 30
0.0
 11
1341.84260772169
 21
565.1179001996203
 31
0.0
  0
LINE
  5
3E2
330
10C
100
AcDbEntity
  8
1
  6
Continuous
 62
     3
100
AcDbLine
 10
1205.417512561572
 20
509.325
 30
0.0
 11
1198.861262561571
 21
533.0375000000001
 31
0.0
  0
LINE
  5
3E3
330
10C
100
AcDbEntity
  8
1
  6
Continuous
 62
     3
100
AcDbLine
 10
1205.417512561572
 20
509.325
 30
0.0
 11
1211.973762561572
 21
533.0375000000001
 31
0.0
  0
LINE
  5
3E4
330
10C
100
AcDbEntity
  8
1
  6
Continuous
 62
     3
100
AcDbLine
 10
1211.973762561572
 20
533.0375000000001
 30
0.0
 11
1198.861262561571
 21
533.0375000000001
 31
0.0
  0
LINE
  5
3E5
330
10C
100
AcDbEntity
  8
1
  6
Continuous
 62
     3
100
AcDbLine
 10
1205.417512561572
 20
560.2362328986298
 30
0.0
 11
1205.417512561572
 21
533.0375000000001
 31
0.0
  0
LINE
  5
3E6
330
10C
100
AcDbEntity
  8
1
  6
Continuous
 62
     3
100
AcDbLine
 10
1213.522832321547
 20
541.3499999999998
 30
0.0
 11
1352.005107721691
 21
541.3499999999998
 31
0.0
  0
LINE
  5
44B
330
10C
100
AcDbEntity
  8
1
  6
Continuous
 62
     4
100
AcDbLine
 10
686.7500000000005
 20
754.4999999999999
 30
0.0
 11
703.4515858290172
 21
762.2006640114634
 31
0.0
  0
LINE
  5
44C
330
10C
100
AcDbEntity
  8
1
  6
Continuous
 62
     4
100
AcDbLine
 10
703.4515858290172
 20
762.2006640114634
 30
0.0
 11
718.6915463815312
 21
766.5549508185977
 31
0.0
  0
LINE
  5
44D
330
10C
100
AcDbEntity
  8
1
  6
Continuous
 62
     4
100
AcDbLine
 10
718.6915463815312
 20
766.5549508185977
 30
0.0
 11
734.6592184874513
 21
768.7715660691337
 31
0.0
  0
LINE
  5
44E
330
10C
100
AcDbEntity
  8
1
  6
Continuous
 62
     4
100
AcDbLine
 10
734.6592184874513
 20
768.7715660691337
 30
0.0
 11
751.5139823835643
 21
769.0671137214673
 31
0.0
  0
LINE
  5
44F
330
10C
100
AcDbEntity
  8
1
  6
Continuous
 62
     4
100
AcDbLine
 10
751.5139823835643
 20
769.0671137214673
 30
0.0
 11
768.3687462796772
 21
766.5549508185977
 31
0.0
  0
LINE
  5
450
330
10C
100
AcDbEntity
  8
1
  6
Continuous
 62
     4
100
AcDbLine
 10
768.3687462796772
 20
766.5549508185977
 30
0.0
 11
785.2235101757901
 21
761.6783979659108
 31
0.0
  0
LINE
  5
451
330
10C
100
AcDbEntity
  8
1
  6
Continuous
 62
     4
100
AcDbLine
 10
785.2235101757901
 20
761.6783979659108
 30
0.0
 11
800.0083921235392
 21
754.4374551634059
 31
0.0
  0
LINE
  5
452
330
10C
100
AcDbEntity
  8
1
  6
Continuous
 62
     4
100
AcDbLine
 10
800.0083921235392
 20
754.4374551634059
 30
0.0
 11
814.4975757033101
 21
747.6398364587468
 31
0.0
  0
LINE
  5
453
330
10C
100
AcDbEntity
  8
1
  6
Continuous
 62
     4
100
AcDbLine
 10
814.4975757033101
 20
747.6398364587468
 30
0.0
 11
830.9087953611973
 21
742.3199612544444
 31
0.0
  0
LINE
  5
454
330
10C
100
AcDbEntity
  8
1
  6
Continuous
 62
     4
100
AcDbLine
 10
830.9087953611973
 20
742.3199612544444
 30
0.0
 11
848.0592543115472
 21
740.398893656242
 31
0.0
  0
LINE
  5
455
330
10C
100
AcDbEntity
  8
1
  6
Continuous
 62
     4
100
AcDbLine
 10
848.0592543115472
 20
740.398893656242
 30
0.0
 11
865.209716575638
 21
740.1033460039084
 31
0.0
  0
LINE
  5
456
330
10C
100
AcDbEntity
  8
1
  6
Continuous
 62
     4
100
AcDbLine
 10
865.209716575638
 20
740.1033460039084
 30
0.0
 11
880.5859952593433
 21
742.3199612544444
 31
0.0
  0
LINE
  5
457
330
10C
100
AcDbEntity
  8
1
  6
Continuous
 62
     4
100
AcDbLine
 10
880.5859952593433
 20
742.3199612544444
 30
0.0
 11
897.7364575234338
 21
747.344287060183
 31
0.0
  0
LINE
  5
458
330
10C
100
AcDbEntity
  8
1
  6
Continuous
 62
     4
100
AcDbLine
 10
897.7364575234338
 20
747.344287060183
 30
0.0
 11
909.4125
 21
752.8361281253985
 31
0.0
  0
LINE
  5
48F
330
10C
100
AcDbEntity
  8
1
  6
Continuous
 62
     4
100
AcDbLine
 10
909.4077203373768
 20
678.514462836723
 30
0.0
 11
912.6408585719543
 21
671.4905008109573
 31
0.0
  0
LINE
  5
490
330
10C
100
AcDbEntity
  8
1
  6
Continuous
 62
     4
100
AcDbLine
 10
912.6408585719543
 20
671.4905008109573
 30
0.0
 11
914.0755905455479
 21
664.2009401272322
 31
0.0
  0
LINE
  5
491
330
10C
100
AcDbEntity
  8
1
  6
Continuous
 62
     4
100
AcDbLine
 10
914.0755905455479
 20
664.2009401272322
 30
0.0
 11
912.2821685127215
 21
656.4333769292142
 31
0.0
  0
LINE
  5
492
330
10C
100
AcDbEntity
  8
1
  6
Continuous
 62
     4
100
AcDbLine
 10
912.2821685127215
 20
656.4333769292142
 30
0.0
 11
909.4127045655367
 21
650.4583306067112
 31
0.0
  0
LINE
  5
493
330
10C
100
AcDbEntity
  8
1
  6
Continuous
 62
     4
100
AcDbLine
 10
686.7547796626231
 20
678.5144628367234
 30
0.0
 11
683.5216414280457
 21
671.4905008109575
 31
0.0
  0
LINE
  5
494
330
10C
100
AcDbEntity
  8
1
  6
Continuous
 62
     4
100
AcDbLine
 10
683.5216414280457
 20
671.4905008109575
 30
0.0
 11
682.0869094544523
 21
664.2009401272328
 31
0.0
  0
LINE
  5
495
330
10C
100
AcDbEntity
  8
1
  6
Continuous
 62
     4
100
AcDbLine
 10
682.0869094544523
 20
664.2009401272328
 30
0.0
 11
683.8803314872782
 21
656.4333769292146
 31
0.0
  0
LINE
  5
496
330
10C
100
AcDbEntity
  8
1
  6
Continuous
 62
     4
100
AcDbLine
 10
683.8803314872782
 20
656.4333769292146
 30
0.0
 11
686.7497954344631
 21
650.4583306067119
 31
0.0
  0
LINE
  5
4C5
330
10C
100
AcDbEntity
  8
1
  6
Continuous
 62
     3
100
AcDbLine
 10
682.0812499999997
 20
675.4695259574154
 30
0.0
 11
682.0812499999997
 21
855.0499999999997
 31
0.0
  0
LINE
  5
4C6
330
10C
100
AcDbEntity
  8
1
  6
Continuous
 62
     3
100
AcDbLine
 10
913.8937500000002
 20
674.3372177227493
 30
0.0
 11
913.8937500000002
 21
854.7375
 31
0.0
  0
LINE
  5
4FA
330
10C
100
AcDbEntity
  8
1
  6
Continuous
 62
     2
100
AcDbLine
 10
1093.393641234669
 20
743.9317423520066
 30
0.0
 11
1145.393641234667
 21
743.9317423520066
 31
0.0
  0
LINE
  5
51F
330
10C
100
AcDbEntity
  8
1
  6
Continuous
 62
     7
100
AcDbLine
 10
913.9437499999999
 20
465.725
 30
0.0
 11
914.6856721797004
 21
461.4158891603761
 31
0.0
  0
LINE
  5
521
330
10C
100
AcDbEntity
  8
1
  6
Continuous
 62
     7
100
AcDbLine
 10
916.3153255808094
 20
457.8767869740944
 30
0.0
 11
918.9369490053634
 21
454.5500325075088
 31
0.0
  0
LINE
  5
522
330
10C
100
AcDbEntity
  8
1
  6
Continuous
 62
     7
100
AcDbLine
 10
918.9369490053634
 20
454.5500325075088
 30
0.0
 11
922.1254111502684
 21
452.4265698989895
 31
0.0
  0
LINE
  5
523
330
10C
100
AcDbEntity
  8
1
  6
Continuous
 62
     7
100
AcDbLine
 10
922.1254111502684
 20
452.4265698989895
 30
0.0
 11
924.8178882834517
 21
451.2940579125921
 31
0.0
  0
LINE
  5
524
330
10C
100
AcDbEntity
  8
1
  6
Continuous
 62
     7
100
AcDbLine
 10
924.8178882834517
 20
451.2940579125921
 30
0.0
 11
927.6520773595519
 21
450.8693657150758
 31
0.0
  0
LINE
  5
525
330
10C
100
AcDbEntity
  8
0
  6
Continuous
100
AcDbLine
 10
927.6520773595519
 20
450.8693657150758
 30
0.0
 11
932.6622417282184
 21
450.6937500000001
 31
0.0
  0
LINE
  5
526
330
10C
100
AcDbEntity
  8
1
  6
Continuous
 62
     7
100
AcDbLine
 10
914.6856721797004
 20
461.4158891603761
 30
0.0
 11
916.3153255808094
 21
457.8767869740944
 31
0.0
  0
LINE
  5
528
330
10C
100
AcDbEntity
  8
1
  6
Continuous
 62
     7
100
AcDbLine
 10
682.2187499999994
 20
465.7249999999945
 30
0.0
 11
681.4768278203001
 21
461.4158891603761
 31
0.0
  0
LINE
  5
529
330
10C
100
AcDbEntity
  8
1
  6
Continuous
 62
     7
100
AcDbLine
 10
679.8471744191913
 20
457.8767869740944
 30
0.0
 11
677.2255509946376
 21
454.5500325075088
 31
0.0
  0
LINE
  5
52A
330
10C
100
AcDbEntity
  8
1
  6
Continuous
 62
     7
100
AcDbLine
 10
677.2255509946376
 20
454.5500325075088
 30
0.0
 11
674.0370888497319
 21
452.4265698989895
 31
0.0
  0
LINE
  5
52B
330
10C
100
AcDbEntity
  8
1
  6
Continuous
 62
     7
100
AcDbLine
 10
674.0370888497319
 20
452.4265698989895
 30
0.0
 11
671.3446117165488
 21
451.2940579125921
 31
0.0
  0
LINE
  5
52C
330
10C
100
AcDbEntity
  8
1
  6
Continuous
 62
     7
100
AcDbLine
 10
671.3446117165488
 20
451.2940579125921
 30
0.0
 11
668.5104226404482
 21
450.8693657150758
 31
0.0
  0
LINE
  5
52D
330
10C
100
AcDbEntity
  8
0
  6
Continuous
100
AcDbLine
 10
668.5104226404482
 20
450.8693657150758
 30
0.0
 11
663.5002582717817
 21
450.6937500000001
 31
0.0
  0
LINE
  5
52E
330
10C
100
AcDbEntity
  8
1
  6
Continuous
 62
     7
100
AcDbLine
 10
681.4768278203001
 20
461.4158891603761
 30
0.0
 11
679.8471744191913
 21
457.8767869740944
 31
0.0
  0
LINE
  5
547
330
10C
100
AcDbEntity
  8
-1
  6
Continuous
 62
     3
100
AcDbLine
 10
588.91875
 20
509.0437499999999
 30
0.0
 11
569.6429027863082
 21
524.3312869012446
 31
0.0
  0
LINE
  5
548
330
10C
100
AcDbEntity
  8
-1
  6
Continuous
 62
     3
100
AcDbLine
 10
588.91875
 20
509.0437499999999
 30
0.0
 11
580.2340592325852
 21
532.062073496442
 31
0.0
  0
LINE
  5
549
330
10C
100
AcDbEntity
  8
-1
  6
Continuous
 62
     3
100
AcDbLine
 10
580.2340592325852
 20
532.062073496442
 30
0.0
 11
569.6429027863082
 21
524.3312869012446
 31
0.0
  0
LINE
  5
54B
330
10C
100
AcDbEntity
  8
-1
  6
Continuous
 62
     3
100
AcDbLine
 10
575.2160131814433
 20
528.3992588318648
 30
0.0
 11
507.6133299482322
 21
623.8899881441406
 31
0.0
  0
LINE
  5
55A
330
10C
100
AcDbEntity
  8
-1
  6
Continuous
 62
     2
100
AcDbLine
 10
454.8586742332615
 20
646.0752012425595
 30
0.0
 11
503.8586742332613
 21
646.0752012425595
 31
0.0
  0
LINE
  5
55B
330
10C
100
AcDbEntity
  8
-1
  6
Continuous
 62
     2
100
AcDbLine
 10
454.7899088143263
 20
687.0350458035741
 30
0.0
 11
502.7899088143263
 21
687.0350458035741
 31
0.0
  0
LINE
  5
562
330
10C
100
AcDbEntity
  8
1
  6
Continuous
 62
     2
100
AcDbLine
 10
1093.392180243188
 20
702.9317423520067
 30
0.0
 11
1147.39218024319
 21
702.9317423520067
 31
0.0
  0
ENDSEC
  0
SECTION
  2
OBJECTS
  0
DICTIONARY
  5
FA
330
0
100
AcDbDictionary
281
     1
  3
ACAD_COLOR
350
28F
  3
ACAD_GROUP
350
FB
  3
ACAD_LAYOUT
350
107
  3
ACAD_MATERIAL
350
262
  3
ACAD_MLEADERSTYLE
350
2B4
  3
ACAD_MLINESTYLE
350
104
  3
ACAD_PLOTSETTINGS
350
106
  3
ACAD_PLOTSTYLENAME
350
FC
  3
ACAD_SCALELIST
350
292
  3
ACAD_TABLESTYLE
350
290
  3
ACAD_VISUALSTYLE
350
27B
  3
ACDB_RECOMPOSE_DATA
350
4C8
  3
AcDbVariableDictionary
350
3EF
  3
DWGPROPS
350
4C9
  0
DICTIONARY
  5
3E7
330
FE
100
AcDbDictionary
280
     1
281
     1
  3
ADSK_XREC_LAYER_RECONCILED
360
3E8
  0
DICTIONARY
  5
3E9
330
117
100
AcDbDictionary
280
     1
281
     1
  3
ADSK_XREC_LAYER_RECONCILED
360
3EA
  0
DICTIONARY
  5
3EB
330
118
100
AcDbDictionary
280
     1
281
     1
  3
ADSK_XREC_LAYER_RECONCILED
360
3EC
  0
DICTIONARY
  5
3ED
330
119
100
AcDbDictionary
280
     1
281
     1
  3
ADSK_XREC_LAYER_RECONCILED
360
3EE
  0
DICTIONARY
  5
508
330
507
100
AcDbDictionary
280
     1
281
     1
  0
DICTIONARY
  5
53C
330
53B
100
AcDbDictionary
280
     1
281
     1
  3
ADSK_XREC_LAYER_RECONCILED
360
53D
  0
DICTIONARY
  5
233
330
10C
100
AcDbDictionary
280
     1
281
     1
  3
ACAD_LAYOUTSELFREF
360
25E
  3
ACAD_SORTENTS
360
2D1
  0
DICTIONARY
  5
231
330
108
100
AcDbDictionary
280
     1
281
     1
  3
ACAD_LAYOUTSELFREF
360
25D
  0
DICTIONARY
  5
28F
102
{ACAD_REACTORS
330
FA
102
}
330
FA
100
AcDbDictionary
281
     1
  0
DICTIONARY
  5
FB
102
{ACAD_REACTORS
330
FA
102
}
330
FA
100
AcDbDictionary
281
     1
  0
DICTIONARY
  5
107
102
{ACAD_REACTORS
330
FA
102
}
330
FA
100
AcDbDictionary
281
     1
  3
Layout1
350
2B7
  3
Model
350
2B6
  0
DICTIONARY
  5
262
102
{ACAD_REACTORS
330
FA
102
}
330
FA
100
AcDbDictionary
281
     1
  3
ByBlock
350
26B
  3
ByLayer
350
263
  3
Global
350
273
  0
DICTIONARY
  5
2B4
102
{ACAD_REACTORS
330
FA
102
}
330
FA
100
AcDbDictionary
281
     1
  3
Standard
350
2B5
  0
DICTIONARY
  5
104
102
{ACAD_REACTORS
330
FA
102
}
330
FA
100
AcDbDictionary
281
     1
  3
STANDARD
350
105
  0
DICTIONARY
  5
106
102
{ACAD_REACTORS
330
FA
102
}
330
FA
100
AcDbDictionary
281
     1
  0
ACDBDICTIONARYWDFLT
  5
FC
102
{ACAD_REACTORS
330
FA
102
}
330
FA
100
AcDbDictionary
281
     1
  3
Normal
350
FD
100
AcDbDictionaryWithDefault
340
FD
  0
DICTIONARY
  5
292
102
{ACAD_REACTORS
330
FA
102
}
330
FA
100
AcDbDictionary
281
     1
  3
A0
350
293
  3
A1
350
294
  3
A2
350
295
  3
A3
350
296
  3
A4
350
297
  3
A5
350
298
  3
A6
350
299
  3
A7
350
29A
  3
A8
350
29B
  3
A9
350
29C
  3
B0
350
29D
  3
B1
350
29E
  3
B2
350
29F
  3
B3
350
2A0
  3
B4
350
2A1
  3
B5
350
2A2
  3
B6
350
2A3
  3
B7
350
2A4
  3
B8
350
2A5
  3
B9
350
2A6
  3
C0
350
2A7
  3
C1
350
2A8
  3
C2
350
2A9
  3
C3
350
2AA
  3
C4
350
2AB
  3
C5
350
2AC
  3
C6
350
2AD
  3
C7
350
2AE
  3
C8
350
2AF
  3
C9
350
2B0
  3
D0
350
2B1
  3
D1
350
2B2
  3
D2
350
2B3
  0
DICTIONARY
  5
290
102
{ACAD_REACTORS
330
FA
102
}
330
FA
100
AcDbDictionary
281
     1
  3
Standard
350
291
  0
DICTIONARY
  5
27B
102
{ACAD_REACTORS
330
FA
102
}
330
FA
100
AcDbDictionary
281
     1
  3
2dWireframe
350
281
  3
3D Hidden
350
283
  3
3dWireframe
350
282
  3
Basic
350
280
  3
Brighten
350
287
  3
ColorChange
350
28B
  3
Conceptual
350
284
  3
Dim
350
286
  3
EdgeColorOff
350
28E
  3
Facepattern
350
28A
  3
Flat
350
27C
  3
FlatWithEdges
350
27D
  3
Gouraud
350
27E
  3
GouraudWithEdges
350
27F
  3
JitterOff
350
28C
  3
Linepattern
350
289
  3
OverhangOff
350
28D
  3
Realistic
350
285
  3
Thicken
350
288
  0
XRECORD
  5
4C8
102
{ACAD_REACTORS
330
FA
102
}
330
FA
100
AcDbXrecord
280
     1
 90
        1
330
291
  0
DICTIONARY
  5
3EF
102
{ACAD_REACTORS
330
FA
102
}
330
FA
100
AcDbDictionary
281
     1
  3
CANNOSCALE
350
3F2
  3
CMLEADERSTYLE
350
3F1
  3
CTABLESTYLE
350
3F0
  3
DIMASSOC
350
3F5
  3
INDEXCTL
350
3F4
  3
SORTENTS
350
3F3
  3
XCLIPFRAME
350
459
  0
XRECORD
  5
4C9
102
{ACAD_REACTORS
330
FA
102
}
330
FA
100
AcDbXrecord
280
     1
  1
DWGPROPS COOKIE
  2

  3

  4

  6

  7

  8
John
  9

300
=
301
=
302
=
303
=
304
=
305
=
306
=
307
=
308
=
309
=
 40
0.0121691782407408
 41
2453233.135381945
 42
2456695.702636736
  1

 90
        0
  0
XRECORD
  5
3E8
102
{ACAD_REACTORS
330
3E7
102
}
330
3E7
100
AcDbXrecord
280
     1
290
     1
  0
XRECORD
  5
3EA
102
{ACAD_REACTORS
330
3E9
102
}
330
3E9
100
AcDbXrecord
280
     1
290
     1
  0
XRECORD
  5
3EC
102
{ACAD_REACTORS
330
3EB
102
}
330
3EB
100
AcDbXrecord
280
     1
290
     1
  0
XRECORD
  5
3EE
102
{ACAD_REACTORS
330
3ED
102
}
330
3ED
100
AcDbXrecord
280
     1
290
     1
  0
XRECORD
  5
53D
102
{ACAD_REACTORS
330
53C
102
}
330
53C
100
AcDbXrecord
280
     1
290
     1
  0
XRECORD
  5
25E
102
{ACAD_REACTORS
330
233
102
}
330
233
100
AcDbXrecord
280
     1
340
10C
  0
SORTENTSTABLE
  5
2D1
102
{ACAD_REACTORS
330
233
102
}
330
233
100
AcDbSortentsTable
330
10C
331
32A
  5
1D3
331
319
  5
1C0
331
33B
  5
122
331
36D
  5
36D
331
3D7
  5
3D9
331
495
  5
4C5
331
3B1
  5
3B2
331
38F
  5
38F
331
2F7
  5
190
331
454
  5
456
331
34B
  5
133
331
3C2
  5
3C4
331
3A0
  5
3A0
331
37E
  5
37E
331
35C
  5
162
331
308
  5
1AE
331
30A
  5
1B0
331
32C
  5
1D5
331
3C8
  5
3CA
331
3C4
  5
3C6
331
31B
  5
1C2
331
33D
  5
125
331
36F
  5
36F
331
3B3
  5
3B4
331
391
  5
391
331
2F9
  5
193
331
456
  5
458
331
34D
  5
135
331
3A2
  5
3A2
331
380
  5
380
331
35E
  5
166
331
30C
  5
1B2
331
360
  5
168
331
3CA
  5
3CC
331
3A4
  5
3A4
331
458
  5
490
331
2FB
  5
1A1
331
371
  5
371
331
3B5
  5
3B6
331
393
  5
393
331
33F
  5
127
331
31D
  5
1C4
331
34F
  5
137
331
3C6
  5
3C8
331
3E1
  5
3E3
331
32E
  5
1D7
331
340
  5
128
331
2EC
  5
185
331
362
  5
17F
331
3CC
  5
3CE
331
3A6
  5
3A7
331
351
  5
139
331
2FD
  5
1A3
331
395
  5
395
331
3B7
  5
3B8
331
373
  5
373
331
31F
  5
1C8
331
3D8
  5
3DA
331
3E3
  5
3E5
331
330
  5
1ED
331
30E
  5
1B4
331
342
  5
12A
331
44B
  5
44D
331
4C5
  5
3A6
331
2EE
  5
187
331
364
  5
364
331
3CE
  5
3D0
331
3A8
  5
3A9
331
353
  5
13B
331
397
  5
397
331
375
  5
375
331
321
  5
1CA
331
2FF
  5
1A5
331
3DA
  5
3DC
331
386
  5
386
331
3E5
  5
44B
331
332
  5
1F3
331
310
  5
1B6
331
3B9
  5
3BA
331
344
  5
12C
331
44D
  5
44F
331
312
  5
1B9
331
366
  5
366
331
388
  5
388
331
3AA
  5
3AB
331
355
  5
13D
331
377
  5
377
331
323
  5
1CC
331
301
  5
1A7
331
3DC
  5
3DE
331
3D0
  5
3D2
331
334
  5
1F5
331
2F0
  5
189
331
3BB
  5
3BC
331
399
  5
399
331
379
  5
379
331
3BD
  5
3BE
331
346
  5
12E
331
314
  5
1BB
331
336
  5
1F7
331
38A
  5
38A
331
3AC
  5
3AD
331
303
  5
1A9
331
325
  5
1CE
331
490
  5
492
331
357
  5
15B
331
3DE
  5
3E0
331
3D2
  5
3D4
331
368
  5
368
331
2F2
  5
18B
331
44F
  5
451
331
39B
  5
39B
331
359
  5
15D
331
37B
  5
37B
331
39D
  5
39D
331
3BF
  5
3C0
331
348
  5
130
331
2F4
  5
18D
331
338
  5
11F
331
38C
  5
38C
331
305
  5
1AB
331
327
  5
1D0
331
492
  5
494
331
3AE
  5
3AF
331
3D4
  5
3D6
331
36A
  5
36A
331
316
  5
1BD
331
451
  5
453
331
329
  5
1D2
331
35B
  5
15F
331
39F
  5
39F
331
34A
  5
132
331
2F6
  5
18F
331
33A
  5
121
331
38E
  5
38E
331
307
  5
1AD
331
494
  5
496
331
3B0
  5
3B1
331
3D6
  5
3D8
331
36C
  5
36C
331
318
  5
1BF
331
453
  5
455
331
3C1
  5
3C2
331
32B
  5
1D4
331
35D
  5
163
331
37F
  5
37F
331
3C3
  5
3C5
331
34C
  5
134
331
31A
  5
1C1
331
33C
  5
124
331
390
  5
390
331
496
  5
4C6
331
3B2
  5
3B3
331
36E
  5
36E
331
2F8
  5
191
331
455
  5
457
331
3A1
  5
3A1
331
309
  5
1AF
331
30B
  5
1B1
331
32D
  5
1D6
331
3E0
  5
3E2
331
381
  5
381
331
3A3
  5
3A3
331
34E
  5
136
331
31C
  5
1C3
331
33E
  5
126
331
370
  5
370
331
3B4
  5
3B5
331
392
  5
392
331
2FA
  5
1A0
331
457
  5
48F
331
3C5
  5
3C7
331
3C9
  5
3CB
331
35F
  5
167
331
30D
  5
1B3
331
32F
  5
1D8
331
3E2
  5
3E4
331
3A5
  5
3A5
331
3C7
  5
3C9
331
2FC
  5
1A2
331
31E
  5
1C5
331
372
  5
372
331
394
  5
394
331
3B6
  5
3B7
331
350
  5
138
331
3CB
  5
3CD
331
361
  5
17E
331
2EB
  5
184
331
2ED
  5
186
331
331
  5
1F2
331
3E4
  5
3E6
331
385
  5
385
331
3A7
  5
3A8
331
2FE
  5
1A4
331
320
  5
1C9
331
396
  5
396
331
374
  5
374
331
352
  5
13A
331
3D9
  5
3DB
331
3CD
  5
3CF
331
363
  5
363
331
30F
  5
1B5
331
341
  5
129
331
3B8
  5
3B9
331
2EF
  5
188
331
311
  5
1B7
331
333
  5
1F4
331
3E6
  5
44C
331
387
  5
387
331
3A9
  5
3AA
331
322
  5
1CB
331
376
  5
376
331
300
  5
1A6
331
354
  5
13C
331
3DB
  5
3DD
331
3CF
  5
3D1
331
365
  5
365
331
4C6
  5
3C3
331
44C
  5
44E
331
343
  5
12B
331
3BA
  5
3BB
331
398
  5
398
331
378
  5
378
331
3BC
  5
3BD
331
313
  5
1BA
331
335
  5
1F6
331
3D1
  5
3D3
331
3AB
  5
3AC
331
302
  5
1A8
331
324
  5
1CD
331
356
  5
15A
331
3DD
  5
3DF
331
389
  5
389
331
367
  5
367
331
2F1
  5
18A
331
44E
  5
450
331
345
  5
12D
331
39A
  5
39A
331
358
  5
15C
331
37A
  5
37A
331
39C
  5
39C
331
2F3
  5
18C
331
337
  5
1F8
331
369
  5
369
331
3D3
  5
3D5
331
3DF
  5
3E1
331
304
  5
1AA
331
326
  5
1CF
331
491
  5
493
331
3AD
  5
3AE
331
38B
  5
38B
331
315
  5
1BC
331
450
  5
452
331
347
  5
12F
331
3BE
  5
3BF
331
328
  5
1D1
331
35A
  5
15E
331
37C
  5
37C
331
48F
  5
491
331
2F5
  5
18E
331
339
  5
120
331
36B
  5
36B
331
3D5
  5
3D7
331
306
  5
1AC
331
493
  5
495
331
3AF
  5
3B0
331
38D
  5
38D
331
317
  5
1BE
331
452
  5
454
331
349
  5
131
331
3C0
  5
3C1
331
39E
  5
39E
  0
XRECORD
  5
25D
102
{ACAD_REACTORS
330
231
102
}
330
231
100
AcDbXrecord
280
     1
340
108
  0
LAYOUT
  5
2B7
102
{ACAD_XDICTIONARY
360
4F3
102
}
102
{ACAD_REACTORS
330
107
102
}
330
107
100
AcDbPlotSettings
  1

  2
Lexmark 3600-4600 Series
  4

  6

 40
0.0
 41
0.0
 42
0.0
 43
0.0
 44
0.0
 45
0.0
 46
0.0
 47
0.0
 48
0.0
 49
0.0
140
0.0
141
0.0
142
1.0
143
1.0
 70
   688
 72
     0
 73
     0
 74
     5
  7

 75
    16
147
1.0
148
0.0
149
0.0
100
AcDbLayout
  1
Layout1
 70
     0
 71
     1
 10
0.0
 20
0.0
 11
12.0
 21
9.0
 12
0.0
 22
0.0
 32
0.0
 14
-1.000000000000000E+20
 24
-1.000000000000000E+20
 34
-1.000000000000000E+20
 15
-1.000000000000000E+20
 25
-1.000000000000000E+20
 35
-1.000000000000000E+20
146
0.0
 13
0.0
 23
0.0
 33
0.0
 16
1.0
 26
0.0
 36
0.0
 17
0.0
 27
1.0
 37
0.0
 76
     0
330
108
  0
LAYOUT
  5
2B6
102
{ACAD_XDICTIONARY
360
4F1
102
}
102
{ACAD_REACTORS
330
107
102
}
330
107
100
AcDbPlotSettings
  1

  2
Lexmark 3600-4600 Series
  4

  6

 40
0.0
 41
0.0
 42
0.0
 43
0.0
 44
0.0
 45
0.0
 46
0.0
 47
0.0
 48
0.0
 49
0.0
140
0.0
141
0.0
142
1.0
143
1.0
 70
  1712
 72
     0
 73
     0
 74
     0
  7

 75
     0
147
1.0
148
0.0
149
0.0
100
AcDbLayout
  1
Model
 70
     1
 71
     0
 10
0.0
 20
0.0
 11
12.0
 21
9.0
 12
0.0
 22
0.0
 32
0.0
 14
0.0
 24
0.0
 34
0.0
 15
0.0
 25
0.0
 35
0.0
146
0.0
 13
0.0
 23
0.0
 33
0.0
 16
1.0
 26
0.0
 36
0.0
 17
0.0
 27
1.0
 37
0.0
 76
     0
330
10C
331
23C
  0
MATERIAL
  5
26B
102
{ACAD_XDICTIONARY
360
26C
102
}
102
{ACAD_REACTORS
330
262
102
}
330
262
100
AcDbMaterial
  1
ByBlock
 72
     0
 43
0.0208333333333333
 43
0.0
 43
0.0
 43
0.0
 43
0.0
 43
0.0208333333333333
 43
0.0
 43
0.0
 43
0.0
 43
0.0
 43
1.0
 43
0.0
 43
0.0
 43
0.0
 43
0.0
 43
1.0
 77
     0
 47
0.0208333333333333
 47
0.0
 47
0.0
 47
0.0
 47
0.0
 47
0.0208333333333333
 47
0.0
 47
0.0
 47
0.0
 47
0.0
 47
1.0
 47
0.0
 47
0.0
 47
0.0
 47
0.0
 47
1.0
171
     0
 49
0.0208333333333333
 49
0.0
 49
0.0
 49
0.0
 49
0.0
 49
0.0208333333333333
 49
0.0
 49
0.0
 49
0.0
 49
0.0
 49
1.0
 49
0.0
 49
0.0
 49
0.0
 49
0.0
 49
1.0
175
     0
142
0.0208333333333333
142
0.0
142
0.0
142
0.0
142
0.0
142
0.0208333333333333
142
0.0
142
0.0
142
0.0
142
0.0
142
1.0
142
0.0
142
0.0
142
0.0
142
0.0
142
1.0
179
     0
144
0.0208333333333333
144
0.0
144
0.0
144
0.0
144
0.0
144
0.0208333333333333
144
0.0
144
0.0
144
0.0
144
0.0
144
1.0
144
0.0
144
0.0
144
0.0
144
0.0
144
1.0
147
0.0208333333333333
147
0.0
147
0.0
147
0.0
147
0.0
147
0.0208333333333333
147
0.0
147
0.0
147
0.0
147
0.0
147
1.0
147
0.0
147
0.0
147
0.0
147
0.0
147
1.0
  0
MATERIAL
  5
263
102
{ACAD_XDICTIONARY
360
264
102
}
102
{ACAD_REACTORS
330
262
102
}
330
262
100
AcDbMaterial
  1
ByLayer
 72
     0
 43
0.0208333333333333
 43
0.0
 43
0.0
 43
0.0
 43
0.0
 43
0.0208333333333333
 43
0.0
 43
0.0
 43
0.0
 43
0.0
 43
1.0
 43
0.0
 43
0.0
 43
0.0
 43
0.0
 43
1.0
 77
     0
 47
0.0208333333333333
 47
0.0
 47
0.0
 47
0.0
 47
0.0
 47
0.0208333333333333
 47
0.0
 47
0.0
 47
0.0
 47
0.0
 47
1.0
 47
0.0
 47
0.0
 47
0.0
 47
0.0
 47
1.0
171
     0
 49
0.0208333333333333
 49
0.0
 49
0.0
 49
0.0
 49
0.0
 49
0.0208333333333333
 49
0.0
 49
0.0
 49
0.0
 49
0.0
 49
1.0
 49
0.0
 49
0.0
 49
0.0
 49
0.0
 49
1.0
175
     0
142
0.0208333333333333
142
0.0
142
0.0
142
0.0
142
0.0
142
0.0208333333333333
142
0.0
142
0.0
142
0.0
142
0.0
142
1.0
142
0.0
142
0.0
142
0.0
142
0.0
142
1.0
179
     0
144
0.0208333333333333
144
0.0
144
0.0
144
0.0
144
0.0
144
0.0208333333333333
144
0.0
144
0.0
144
0.0
144
0.0
144
1.0
144
0.0
144
0.0
144
0.0
144
0.0
144
1.0
147
0.0208333333333333
147
0.0
147
0.0
147
0.0
147
0.0
147
0.0208333333333333
147
0.0
147
0.0
147
0.0
147
0.0
147
1.0
147
0.0
147
0.0
147
0.0
147
0.0
147
1.0
  0
MATERIAL
  5
273
102
{ACAD_XDICTIONARY
360
274
102
}
102
{ACAD_REACTORS
330
262
102
}
330
262
100
AcDbMaterial
  1
Global
 72
     0
 43
0.0208333333333333
 43
0.0
 43
0.0
 43
0.0
 43
0.0
 43
0.0208333333333333
 43
0.0
 43
0.0
 43
0.0
 43
0.0
 43
1.0
 43
0.0
 43
0.0
 43
0.0
 43
0.0
 43
1.0
 77
     0
 47
0.0208333333333333
 47
0.0
 47
0.0
 47
0.0
 47
0.0
 47
0.0208333333333333
 47
0.0
 47
0.0
 47
0.0
 47
0.0
 47
1.0
 47
0.0
 47
0.0
 47
0.0
 47
0.0
 47
1.0
171
     0
 49
0.0208333333333333
 49
0.0
 49
0.0
 49
0.0
 49
0.0
 49
0.0208333333333333
 49
0.0
 49
0.0
 49
0.0
 49
0.0
 49
1.0
 49
0.0
 49
0.0
 49
0.0
 49
0.0
 49
1.0
175
     0
142
0.0208333333333333
142
0.0
142
0.0
142
0.0
142
0.0
142
0.0208333333333333
142
0.0
142
0.0
142
0.0
142
0.0
142
1.0
142
0.0
142
0.0
142
0.0
142
0.0
142
1.0
179
     0
144
0.0208333333333333
144
0.0
144
0.0
144
0.0
144
0.0
144
0.0208333333333333
144
0.0
144
0.0
144
0.0
144
0.0
144
1.0
144
0.0
144
0.0
144
0.0
144
0.0
144
1.0
147
0.0208333333333333
147
0.0
147
0.0
147
0.0
147
0.0
147
0.0208333333333333
147
0.0
147
0.0
147
0.0
147
0.0
147
1.0
147
0.0
147
0.0
147
0.0
147
0.0
147
1.0
  0
MLEADERSTYLE
  5
2B5
102
{ACAD_REACTORS
330
2B4
102
}
330
2B4
100
AcDbMLeaderStyle
170
     2
171
     1
172
     0
 90
        2
 40
0.0
 41
0.0
173
     1
 91
-1056964608
340
101
 92
       -2
290
     1
 42
0.09
291
     1
 43
0.36
  3
Standard
 44
0.18
300

342
FF
174
     1
178
     6
175
     1
176
     0
 93
-1056964608
 45
0.18
292
     0
297
     0
 46
0.18
 94
-1056964608
 47
1.0
 49
1.0
140
1.0
293
     1
141
0.0
294
     1
177
     0
142
1.0
295
     0
296
     0
143
0.125
1001
ACAD_MLEADERVER
1070
     2
  0
MLINESTYLE
  5
105
102
{ACAD_REACTORS
330
104
102
}
330
104
100
AcDbMlineStyle
  2
STANDARD
 70
     0
  3

 62
   256
 51
90.0
 52
90.0
 71
     2
 49
0.5
 62
   256
  6
BYLAYER
 49
-0.5
 62
   256
  6
BYLAYER
  0
ACDBPLACEHOLDER
  5
FD
102
{ACAD_REACTORS
330
FC
102
}
330
FC
  0
SCALE
  5
293
102
{ACAD_REACTORS
330
292
102
}
330
292
100
AcDbScale
 70
     0
300
1:1
140
1.0
141
1.0
290
     1
  0
SCALE
  5
294
102
{ACAD_REACTORS
330
292
102
}
330
292
100
AcDbScale
 70
     0
300
1:2
140
1.0
141
2.0
290
     0
  0
SCALE
  5
295
102
{ACAD_REACTORS
330
292
102
}
330
292
100
AcDbScale
 70
     0
300
1:4
140
1.0
141
4.0
290
     0
  0
SCALE
  5
296
102
{ACAD_REACTORS
330
292
102
}
330
292
100
AcDbScale
 70
     0
300
1:5
140
1.0
141
5.0
290
     0
  0
SCALE
  5
297
102
{ACAD_REACTORS
330
292
102
}
330
292
100
AcDbScale
 70
     0
300
1:8
140
1.0
141
8.0
290
     0
  0
SCALE
  5
298
102
{ACAD_REACTORS
330
292
102
}
330
292
100
AcDbScale
 70
     0
300
1:10
140
1.0
141
10.0
290
     0
  0
SCALE
  5
299
102
{ACAD_REACTORS
330
292
102
}
330
292
100
AcDbScale
 70
     0
300
1:16
140
1.0
141
16.0
290
     0
  0
SCALE
  5
29A
102
{ACAD_REACTORS
330
292
102
}
330
292
100
AcDbScale
 70
     0
300
1:20
140
1.0
141
20.0
290
     0
  0
SCALE
  5
29B
102
{ACAD_REACTORS
330
292
102
}
330
292
100
AcDbScale
 70
     0
300
1:30
140
1.0
141
30.0
290
     0
  0
SCALE
  5
29C
102
{ACAD_REACTORS
330
292
102
}
330
292
100
AcDbScale
 70
     0
300
1:40
140
1.0
141
40.0
290
     0
  0
SCALE
  5
29D
102
{ACAD_REACTORS
330
292
102
}
330
292
100
AcDbScale
 70
     0
300
1:50
140
1.0
141
50.0
290
     0
  0
SCALE
  5
29E
102
{ACAD_REACTORS
330
292
102
}
330
292
100
AcDbScale
 70
     0
300
1:100
140
1.0
141
100.0
290
     0
  0
SCALE
  5
29F
102
{ACAD_REACTORS
330
292
102
}
330
292
100
AcDbScale
 70
     0
300
2:1
140
2.0
141
1.0
290
     0
  0
SCALE
  5
2A0
102
{ACAD_REACTORS
330
292
102
}
330
292
100
AcDbScale
 70
     0
300
4:1
140
4.0
141
1.0
290
     0
  0
SCALE
  5
2A1
102
{ACAD_REACTORS
330
292
102
}
330
292
100
AcDbScale
 70
     0
300
8:1
140
8.0
141
1.0
290
     0
  0
SCALE
  5
2A2
102
{ACAD_REACTORS
330
292
102
}
330
292
100
AcDbScale
 70
     0
300
10:1
140
10.0
141
1.0
290
     0
  0
SCALE
  5
2A3
102
{ACAD_REACTORS
330
292
102
}
330
292
100
AcDbScale
 70
     0
300
100:1
140
100.0
141
1.0
290
     0
  0
SCALE
  5
2A4
102
{ACAD_REACTORS
330
292
102
}
330
292
100
AcDbScale
 70
     0
300
1/128" = 1'-0"
140
0.0078125
141
12.0
290
     0
  0
SCALE
  5
2A5
102
{ACAD_REACTORS
330
292
102
}
330
292
100
AcDbScale
 70
     0
300
1/64" = 1'-0"
140
0.015625
141
12.0
290
     0
  0
SCALE
  5
2A6
102
{ACAD_REACTORS
330
292
102
}
330
292
100
AcDbScale
 70
     0
300
1/32" = 1'-0"
140
0.03125
141
12.0
290
     0
  0
SCALE
  5
2A7
102
{ACAD_REACTORS
330
292
102
}
330
292
100
AcDbScale
 70
     0
300
1/16" = 1'-0"
140
0.0625
141
12.0
290
     0
  0
SCALE
  5
2A8
102
{ACAD_REACTORS
330
292
102
}
330
292
100
AcDbScale
 70
     0
300
3/32" = 1'-0"
140
0.09375
141
12.0
290
     0
  0
SCALE
  5
2A9
102
{ACAD_REACTORS
330
292
102
}
330
292
100
AcDbScale
 70
     0
300
1/8" = 1'-0"
140
0.125
141
12.0
290
     0
  0
SCALE
  5
2AA
102
{ACAD_REACTORS
330
292
102
}
330
292
100
AcDbScale
 70
     0
300
3/16" = 1'-0"
140
0.1875
141
12.0
290
     0
  0
SCALE
  5
2AB
102
{ACAD_REACTORS
330
292
102
}
330
292
100
AcDbScale
 70
     0
300
1/4" = 1'-0"
140
0.25
141
12.0
290
     0
  0
SCALE
  5
2AC
102
{ACAD_REACTORS
330
292
102
}
330
292
100
AcDbScale
 70
     0
300
3/8" = 1'-0"
140
0.375
141
12.0
290
     0
  0
SCALE
  5
2AD
102
{ACAD_REACTORS
330
292
102
}
330
292
100
AcDbScale
 70
     0
300
1/2" = 1'-0"
140
0.5
141
12.0
290
     0
  0
SCALE
  5
2AE
102
{ACAD_REACTORS
330
292
102
}
330
292
100
AcDbScale
 70
     0
300
3/4" = 1'-0"
140
0.75
141
12.0
290
     0
  0
SCALE
  5
2AF
102
{ACAD_REACTORS
330
292
102
}
330
292
100
AcDbScale
 70
     0
300
1" = 1'-0"
140
1.0
141
12.0
290
     0
  0
SCALE
  5
2B0
102
{ACAD_REACTORS
330
292
102
}
330
292
100
AcDbScale
 70
     0
300
1-1/2" = 1'-0"
140
1.5
141
12.0
290
     0
  0
SCALE
  5
2B1
102
{ACAD_REACTORS
330
292
102
}
330
292
100
AcDbScale
 70
     0
300
3" = 1'-0"
140
3.0
141
12.0
290
     0
  0
SCALE
  5
2B2
102
{ACAD_REACTORS
330
292
102
}
330
292
100
AcDbScale
 70
     0
300
6" = 1'-0"
140
6.0
141
12.0
290
     0
  0
SCALE
  5
2B3
102
{ACAD_REACTORS
330
292
102
}
330
292
100
AcDbScale
 70
     0
300
1'-0" = 1'-0"
140
12.0
141
12.0
290
     0
  0
TABLESTYLE
  5
291
102
{ACAD_XDICTIONARY
360
3F7
102
}
102
{ACAD_REACTORS
330
290
102
}
330
290
100
AcDbTableStyle
  3
Standard
 70
     0
 71
     0
 40
0.06
 41
0.06
280
     0
281
     0
  7
STANDARD
140
0.18
170
     2
 62
     0
 63
     7
283
     0
274
    -2
284
     1
 64
     0
275
    -2
285
     1
 65
     0
276
    -2
286
     1
 66
     0
277
    -2
287
     1
 67
     0
278
    -2
288
     1
 68
     0
279
    -2
289
     1
 69
     0
  7
STANDARD
140
0.25
170
     5
 62
     0
 63
     7
283
     0
274
    -2
284
     1
 64
     0
275
    -2
285
     1
 65
     0
276
    -2
286
     1
 66
     0
277
    -2
287
     1
 67
     0
278
    -2
288
     1
 68
     0
279
    -2
289
     1
 69
     0
  7
STANDARD
140
0.18
170
     5
 62
     0
 63
     7
283
     0
274
    -2
284
     1
 64
     0
275
    -2
285
     1
 65
     0
276
    -2
286
     1
 66
     0
277
    -2
287
     1
 67
     0
278
    -2
288
     1
 68
     0
279
    -2
289
     1
 69
     0
  0
VISUALSTYLE
  5
281
102
{ACAD_XDICTIONARY
360
4D4
102
}
102
{ACAD_REACTORS
330
27B
102
}
330
27B
100
AcDbVisualStyle
  2

 70
     4
 71
     0
 72
     2
 73
     0
 90
        0
 40
-0.6
 41
-30.0
 62
     5
 63
     7
 74
     1
 91
        4
 64
     7
 65
   257
 75
     1
175
     1
 42
1.0
 92
        0
 66
   257
 43
1.0
 76
     1
 77
     6
 78
     2
 67
     7
 79
     5
170
     0
171
     0
290
     0
174
     0
 93
        1
 44
0.0
173
     0
291
     0
 45
0.0
1001
ACAD
1000
AcDbSavedByObjectVersion
1070
     0
  0
VISUALSTYLE
  5
283
102
{ACAD_XDICTIONARY
360
4D8
102
}
102
{ACAD_REACTORS
330
27B
102
}
330
27B
100
AcDbVisualStyle
  2

 70
     6
 71
     1
 72
     2
 73
     2
 90
        0
 40
-0.6
 41
-30.0
 62
     5
 63
     7
 74
     2
 91
        2
 64
     7
 65
   257
 75
     2
175
     1
 42
179.0
 92
        0
 66
   257
 43
1.0
 76
     1
 77
     6
 78
     2
 67
     7
 79
     3
170
     0
171
     0
290
     0
174
     0
 93
        1
 44
0.0
173
     0
291
     0
 45
0.0
1001
ACAD
1000
AcDbSavedByObjectVersion
1070
     0
  0
VISUALSTYLE
  5
282
102
{ACAD_XDICTIONARY
360
4D6
102
}
102
{ACAD_REACTORS
330
27B
102
}
330
27B
100
AcDbVisualStyle
  2

 70
     5
 71
     0
 72
     2
 73
     0
 90
        0
 40
-0.6
 41
-30.0
 62
     5
 63
     7
 74
     1
 91
        4
 64
     7
 65
   257
 75
     1
175
     1
 42
1.0
 92
        0
 66
   257
 43
1.0
 76
     1
 77
     6
 78
     2
 67
     7
 79
     5
170
     0
171
     0
290
     0
174
     0
 93
        1
 44
0.0
173
     0
291
     0
 45
0.0
1001
ACAD
1000
AcDbSavedByObjectVersion
1070
     0
  0
VISUALSTYLE
  5
280
102
{ACAD_XDICTIONARY
360
4D2
102
}
102
{ACAD_REACTORS
330
27B
102
}
330
27B
100
AcDbVisualStyle
  2

 70
     7
 71
     1
 72
     0
 73
     1
 90
        0
 40
-0.6
 41
-30.0
 62
     5
 63
     7
 74
     0
 91
        4
 64
     7
 65
   257
 75
     1
175
     1
 42
1.0
 92
        8
 66
     7
 43
1.0
 76
     1
 77
     6
 78
     2
 67
     7
 79
     5
170
     0
171
     0
290
     0
174
     0
 93
        1
 44
0.0
173
     0
291
     1
 45
0.0
1001
ACAD
1000
AcDbSavedByObjectVersion
1070
     0
  0
VISUALSTYLE
  5
287
102
{ACAD_XDICTIONARY
360
4E0
102
}
102
{ACAD_REACTORS
330
27B
102
}
330
27B
100
AcDbVisualStyle
  2

 70
    12
 71
     2
 72
     2
 73
     0
 90
        0
 40
-0.6
 41
-30.0
 62
     5
 63
     7
 74
     1
 91
        4
 64
     7
 65
   257
 75
     1
175
     1
 42
1.0
 92
        8
 66
     7
 43
1.0
 76
     1
 77
     6
 78
     2
 67
     7
 79
     5
170
     0
171
     0
290
     0
174
     0
 93
        1
 44
50.0
173
     0
291
     1
 45
0.0
1001
ACAD
1000
AcDbSavedByObjectVersion
1070
     0
  0
VISUALSTYLE
  5
28B
102
{ACAD_XDICTIONARY
360
4E8
102
}
102
{ACAD_REACTORS
330
27B
102
}
330
27B
100
AcDbVisualStyle
  2

 70
    16
 71
     2
 72
     2
 73
     3
 90
        0
 40
-0.6
 41
-30.0
 62
     5
 63
     8
 74
     1
 91
        4
 64
     7
 65
   257
 75
     1
175
     1
 42
1.0
 92
        8
 66
     8
 43
1.0
 76
     1
 77
     6
 78
     2
 67
     7
 79
     5
170
     0
171
     0
290
     0
174
     0
 93
        1
 44
0.0
173
     0
291
     1
 45
0.0
1001
ACAD
1000
AcDbSavedByObjectVersion
1070
     0
  0
VISUALSTYLE
  5
284
102
{ACAD_XDICTIONARY
360
4DA
102
}
102
{ACAD_REACTORS
330
27B
102
}
330
27B
100
AcDbVisualStyle
  2

 70
     9
 71
     3
 72
     2
 73
     0
 90
        0
 40
-0.6
 41
-30.0
 62
     5
 63
     7
 74
     2
 91
        2
 64
     7
 65
   257
 75
     1
175
     1
 42
179.0
 92
        8
 66
     7
 43
1.0
 76
     1
 77
     6
 78
     2
 67
     7
 79
     3
170
     0
171
     0
290
     0
174
     0
 93
        1
 44
0.0
173
     0
291
     0
 45
0.0
1001
ACAD
1000
AcDbSavedByObjectVersion
1070
     0
  0
VISUALSTYLE
  5
286
102
{ACAD_XDICTIONARY
360
4DE
102
}
102
{ACAD_REACTORS
330
27B
102
}
330
27B
100
AcDbVisualStyle
  2

 70
    11
 71
     2
 72
     2
 73
     0
 90
        0
 40
-0.6
 41
-30.0
 62
     5
 63
     7
 74
     1
 91
        4
 64
     7
 65
   257
 75
     1
175
     1
 42
1.0
 92
        8
 66
     7
 43
1.0
 76
     1
 77
     6
 78
     2
 67
     7
 79
     5
170
     0
171
     0
290
     0
174
     0
 93
        1
 44
-50.0
173
     0
291
     1
 45
0.0
1001
ACAD
1000
AcDbSavedByObjectVersion
1070
     0
  0
VISUALSTYLE
  5
28E
102
{ACAD_XDICTIONARY
360
4EE
102
}
102
{ACAD_REACTORS
330
27B
102
}
330
27B
100
AcDbVisualStyle
  2

 70
    22
 71
     2
 72
     2
 73
     0
 90
        0
 40
-0.6
 41
-30.0
 62
     5
 63
     7
 74
     1
 91
        4
 64
     7
 65
   257
 75
     1
175
     1
 42
1.0
 92
        8
 66
     7
 43
1.0
 76
     1
 77
     6
 78
     2
 67
     7
 79
     5
170
     0
171
     0
290
     0
174
     0
 93
        1
 44
0.0
173
     0
291
     1
 45
0.0
1001
ACAD
1000
AcDbSavedByObjectVersion
1070
     0
  0
VISUALSTYLE
  5
28A
102
{ACAD_XDICTIONARY
360
4E6
102
}
102
{ACAD_REACTORS
330
27B
102
}
330
27B
100
AcDbVisualStyle
  2

 70
    15
 71
     2
 72
     2
 73
     0
 90
        0
 40
-0.6
 41
-30.0
 62
     5
 63
     7
 74
     1
 91
        4
 64
     7
 65
   257
 75
     1
175
     1
 42
1.0
 92
        8
 66
     7
 43
1.0
 76
     1
 77
     6
 78
     2
 67
     7
 79
     5
170
     0
171
     0
290
     0
174
     0
 93
        1
 44
0.0
173
     0
291
     1
 45
0.0
1001
ACAD
1000
AcDbSavedByObjectVersion
1070
     0
  0
VISUALSTYLE
  5
27C
102
{ACAD_XDICTIONARY
360
4CA
102
}
102
{ACAD_REACTORS
330
27B
102
}
330
27B
100
AcDbVisualStyle
  2

 70
     0
 71
     2
 72
     1
 73
     1
 90
        2
 40
-0.6
 41
30.0
 62
     5
 63
     7
 74
     0
 91
        4
 64
     7
 65
   257
 75
     1
175
     1
 42
1.0
 92
        8
 66
     7
 43
1.0
 76
     1
 77
     6
 78
     2
 67
     7
 79
     5
170
     0
171
     0
290
     0
174
     0
 93
       13
 44
0.0
173
     0
291
     1
 45
0.0
1001
ACAD
1000
AcDbSavedByObjectVersion
1070
     0
  0
VISUALSTYLE
  5
27D
102
{ACAD_XDICTIONARY
360
4CC
102
}
102
{ACAD_REACTORS
330
27B
102
}
330
27B
100
AcDbVisualStyle
  2

 70
     1
 71
     2
 72
     1
 73
     1
 90
        2
 40
-0.6
 41
30.0
 62
     5
 63
     7
 74
     1
 91
        4
 64
     7
 65
   257
 75
     1
175
     1
 42
1.0
 92
        0
 66
   257
 43
1.0
 76
     1
 77
     6
 78
     2
 67
     7
 79
     5
170
     0
171
     0
290
     0
174
     0
 93
       13
 44
0.0
173
     0
291
     1
 45
0.0
1001
ACAD
1000
AcDbSavedByObjectVersion
1070
     0
  0
VISUALSTYLE
  5
27E
102
{ACAD_XDICTIONARY
360
4CE
102
}
102
{ACAD_REACTORS
330
27B
102
}
330
27B
100
AcDbVisualStyle
  2

 70
     2
 71
     2
 72
     2
 73
     1
 90
        2
 40
-0.6
 41
30.0
 62
     5
 63
     7
 74
     0
 91
        4
 64
     7
 65
   257
 75
     1
175
     1
 42
1.0
 92
        0
 66
     7
 43
1.0
 76
     1
 77
     6
 78
     2
 67
     7
 79
     5
170
     0
171
     0
290
     0
174
     0
 93
       13
 44
0.0
173
     0
291
     1
 45
0.0
1001
ACAD
1000
AcDbSavedByObjectVersion
1070
     0
  0
VISUALSTYLE
  5
27F
102
{ACAD_XDICTIONARY
360
4D0
102
}
102
{ACAD_REACTORS
330
27B
102
}
330
27B
100
AcDbVisualStyle
  2

 70
     3
 71
     2
 72
     2
 73
     1
 90
        2
 40
-0.6
 41
30.0
 62
     5
 63
     7
 74
     1
 91
        4
 64
     7
 65
   257
 75
     1
175
     1
 42
1.0
 92
        0
 66
   257
 43
1.0
 76
     1
 77
     6
 78
     2
 67
     7
 79
     5
170
     0
171
     0
290
     0
174
     0
 93
       13
 44
0.0
173
     0
291
     1
 45
0.0
1001
ACAD
1000
AcDbSavedByObjectVersion
1070
     0
  0
VISUALSTYLE
  5
28C
102
{ACAD_XDICTIONARY
360
4EA
102
}
102
{ACAD_REACTORS
330
27B
102
}
330
27B
100
AcDbVisualStyle
  2

 70
    20
 71
     2
 72
     2
 73
     0
 90
        0
 40
-0.6
 41
-30.0
 62
     5
 63
     7
 74
     1
 91
        4
 64
     7
 65
   257
 75
     1
175
     1
 42
1.0
 92
       10
 66
     7
 43
1.0
 76
     1
 77
     6
 78
     2
 67
     7
 79
     5
170
     0
171
     0
290
     0
174
     0
 93
        1
 44
0.0
173
     0
291
     1
 45
0.0
1001
ACAD
1000
AcDbSavedByObjectVersion
1070
     0
  0
VISUALSTYLE
  5
289
102
{ACAD_XDICTIONARY
360
4E4
102
}
102
{ACAD_REACTORS
330
27B
102
}
330
27B
100
AcDbVisualStyle
  2

 70
    14
 71
     2
 72
     2
 73
     0
 90
        0
 40
-0.6
 41
-30.0
 62
     5
 63
     7
 74
     1
 91
        4
 64
     7
 65
   257
 75
     7
175
     7
 42
1.0
 92
        8
 66
     7
 43
1.0
 76
     1
 77
     6
 78
     2
 67
     7
 79
     5
170
     0
171
     0
290
     0
174
     0
 93
        1
 44
0.0
173
     0
291
     1
 45
0.0
1001
ACAD
1000
AcDbSavedByObjectVersion
1070
     0
  0
VISUALSTYLE
  5
28D
102
{ACAD_XDICTIONARY
360
4EC
102
}
102
{ACAD_REACTORS
330
27B
102
}
330
27B
100
AcDbVisualStyle
  2

 70
    21
 71
     2
 72
     2
 73
     0
 90
        0
 40
-0.6
 41
-30.0
 62
     5
 63
     7
 74
     1
 91
        4
 64
     7
 65
   257
 75
     1
175
     1
 42
1.0
 92
        9
 66
     7
 43
1.0
 76
     1
 77
     6
 78
     2
 67
     7
 79
     5
170
     0
171
     0
290
     0
174
     0
 93
        1
 44
0.0
173
     0
291
     1
 45
0.0
1001
ACAD
1000
AcDbSavedByObjectVersion
1070
     0
  0
VISUALSTYLE
  5
285
102
{ACAD_XDICTIONARY
360
4DC
102
}
102
{ACAD_REACTORS
330
27B
102
}
330
27B
100
AcDbVisualStyle
  2

 70
     8
 71
     2
 72
     2
 73
     0
 90
        0
 40
-0.6
 41
-30.0
 62
     5
 63
     7
 74
     1
 91
        0
 64
     7
 65
   257
 75
     1
175
     1
 42
1.0
 92
        8
 66
     8
 43
1.0
 76
     1
 77
     6
 78
     2
 67
     7
 79
     5
170
     0
171
     0
290
     0
174
     0
 93
       13
 44
0.0
173
     0
291
     0
 45
0.0
1001
ACAD
1000
AcDbSavedByObjectVersion
1070
     0
  0
VISUALSTYLE
  5
288
102
{ACAD_XDICTIONARY
360
4E2
102
}
102
{ACAD_REACTORS
330
27B
102
}
330
27B
100
AcDbVisualStyle
  2

 70
    13
 71
     2
 72
     2
 73
     0
 90
        0
 40
-0.6
 41
-30.0
 62
     5
 63
     7
 74
     1
 91
        4
 64
     7
 65
   257
 75
     1
175
     1
 42
1.0
 92
       12
 66
     7
 43
1.0
 76
     1
 77
     6
 78
     2
 67
     7
 79
     5
170
     0
171
     0
290
     0
174
     0
 93
        1
 44
0.0
173
     0
291
     1
 45
0.0
1001
ACAD
1000
AcDbSavedByObjectVersion
1070
     0
  0
DICTIONARYVAR
  5
3F2
102
{ACAD_REACTORS
330
3EF
102
}
330
3EF
100
DictionaryVariables
280
     0
  1
1:1
  0
DICTIONARYVAR
  5
3F1
102
{ACAD_REACTORS
330
3EF
102
}
330
3EF
100
DictionaryVariables
280
     0
  1
STANDARD
  0
DICTIONARYVAR
  5
3F0
102
{ACAD_REACTORS
330
3EF
102
}
330
3EF
100
DictionaryVariables
280
     0
  1
STANDARD
  0
DICTIONARYVAR
  5
3F5
102
{ACAD_REACTORS
330
3EF
102
}
330
3EF
100
DictionaryVariables
280
     0
  1
1
  0
DICTIONARYVAR
  5
3F4
102
{ACAD_REACTORS
330
3EF
102
}
330
3EF
100
DictionaryVariables
280
     0
  1
0
  0
DICTIONARYVAR
  5
3F3
102
{ACAD_REACTORS
330
3EF
102
}
330
3EF
100
DictionaryVariables
280
     0
  1
127
  0
DICTIONARYVAR
  5
459
102
{ACAD_REACTORS
330
3EF
102
}
330
3EF
100
DictionaryVariables
280
     0
  1
2
  0
DICTIONARY
  5
4F3
330
2B7
100
AcDbDictionary
280
     1
281
     1
  3
ACAD_XREC_ROUNDTRIP
360
4F4
  0
DICTIONARY
  5
4F1
330
2B6
100
AcDbDictionary
280
     1
281
     1
  3
ACAD_XREC_ROUNDTRIP
360
4F2
  0
DICTIONARY
  5
26C
330
26B
100
AcDbDictionary
280
     1
281
     1
  3
ACAD_XREC_ROUNDTRIP
360
3FC
  3
BUMPTILE
360
26E
  3
DIFFUSETILE
360
26D
  3
OPACITYTILE
360
271
  3
REFLECTIONTILE
360
270
  3
REFRACTIONTILE
360
272
  3
SPECULARTILE
360
26F
  0
DICTIONARY
  5
264
330
263
100
AcDbDictionary
280
     1
281
     1
  3
ACAD_XREC_ROUNDTRIP
360
3FB
  3
BUMPTILE
360
266
  3
DIFFUSETILE
360
265
  3
OPACITYTILE
360
269
  3
REFLECTIONTILE
360
268
  3
REFRACTIONTILE
360
26A
  3
SPECULARTILE
360
267
  0
DICTIONARY
  5
274
330
273
100
AcDbDictionary
280
     1
281
     1
  3
ACAD_XREC_ROUNDTRIP
360
3FD
  3
BUMPTILE
360
276
  3
DIFFUSETILE
360
275
  3
OPACITYTILE
360
279
  3
REFLECTIONTILE
360
278
  3
REFRACTIONTILE
360
27A
  3
SPECULARTILE
360
277
  0
DICTIONARY
  5
3F7
330
291
100
AcDbDictionary
280
     1
281
     1
  3
ACAD_ROUNDTRIP_2008_TABLESTYLE_CELLSTYLEMAP
360
4C7
  3
ACAD_XREC_ROUNDTRIP
360
4F0
  0
DICTIONARY
  5
4D4
330
281
100
AcDbDictionary
280
     1
281
     1
  3
ACAD_XREC_ROUNDTRIP
360
4D5
  0
DICTIONARY
  5
4D8
330
283
100
AcDbDictionary
280
     1
281
     1
  3
ACAD_XREC_ROUNDTRIP
360
4D9
  0
DICTIONARY
  5
4D6
330
282
100
AcDbDictionary
280
     1
281
     1
  3
ACAD_XREC_ROUNDTRIP
360
4D7
  0
DICTIONARY
  5
4D2
330
280
100
AcDbDictionary
280
     1
281
     1
  3
ACAD_XREC_ROUNDTRIP
360
4D3
  0
DICTIONARY
  5
4E0
330
287
100
AcDbDictionary
280
     1
281
     1
  3
ACAD_XREC_ROUNDTRIP
360
4E1
  0
DICTIONARY
  5
4E8
330
28B
100
AcDbDictionary
280
     1
281
     1
  3
ACAD_XREC_ROUNDTRIP
360
4E9
  0
DICTIONARY
  5
4DA
330
284
100
AcDbDictionary
280
     1
281
     1
  3
ACAD_XREC_ROUNDTRIP
360
4DB
  0
DICTIONARY
  5
4DE
330
286
100
AcDbDictionary
280
     1
281
     1
  3
ACAD_XREC_ROUNDTRIP
360
4DF
  0
DICTIONARY
  5
4EE
330
28E
100
AcDbDictionary
280
     1
281
     1
  3
ACAD_XREC_ROUNDTRIP
360
4EF
  0
DICTIONARY
  5
4E6
330
28A
100
AcDbDictionary
280
     1
281
     1
  3
ACAD_XREC_ROUNDTRIP
360
4E7
  0
DICTIONARY
  5
4CA
330
27C
100
AcDbDictionary
280
     1
281
     1
  3
ACAD_XREC_ROUNDTRIP
360
4CB
  0
DICTIONARY
  5
4CC
330
27D
100
AcDbDictionary
280
     1
281
     1
  3
ACAD_XREC_ROUNDTRIP
360
4CD
  0
DICTIONARY
  5
4CE
330
27E
100
AcDbDictionary
280
     1
281
     1
  3
ACAD_XREC_ROUNDTRIP
360
4CF
  0
DICTIONARY
  5
4D0
330
27F
100
AcDbDictionary
280
     1
281
     1
  3
ACAD_XREC_ROUNDTRIP
360
4D1
  0
DICTIONARY
  5
4EA
330
28C
100
AcDbDictionary
280
     1
281
     1
  3
ACAD_XREC_ROUNDTRIP
360
4EB
  0
DICTIONARY
  5
4E4
330
289
100
AcDbDictionary
280
     1
281
     1
  3
ACAD_XREC_ROUNDTRIP
360
4E5
  0
DICTIONARY
  5
4EC
330
28D
100
AcDbDictionary
280
     1
281
     1
  3
ACAD_XREC_ROUNDTRIP
360
4ED
  0
DICTIONARY
  5
4DC
330
285
100
AcDbDictionary
280
     1
281
     1
  3
ACAD_XREC_ROUNDTRIP
360
4DD
  0
DICTIONARY
  5
4E2
330
288
100
AcDbDictionary
280
     1
281
     1
  3
ACAD_XREC_ROUNDTRIP
360
4E3
  0
XRECORD
  5
4F4
102
{ACAD_REACTORS
330
4F3
102
}
330
4F3
100
AcDbXrecord
280
     1
102
SHADEPLOT
 70
     0
102
SHADEPLOTRESLEVEL
 70
     2
102
SHADEPLOTCUSTOMDPI
 70
   300
  0
XRECORD
  5
4F2
102
{ACAD_REACTORS
330
4F1
102
}
330
4F1
100
AcDbXrecord
280
     1
102
SHADEPLOT
 70
     0
102
SHADEPLOTRESLEVEL
 70
     2
102
SHADEPLOTCUSTOMDPI
 70
   300
  0
XRECORD
  5
3FC
102
{ACAD_REACTORS
330
26C
102
}
330
26C
100
AcDbXrecord
280
     1
102
MATERIAL
148
0.0
149
0.0
149
0.0
 93
        0
 94
      127
282
     0
 72
     0
 77
     0
171
     0
175
     0
179
     0
273
     0
  0
XRECORD
  5
26E
102
{ACAD_REACTORS
330
26C
102
}
330
26C
100
AcDbXrecord
280
     1
270
     1
271
     1
  0
XRECORD
  5
26D
102
{ACAD_REACTORS
330
26C
102
}
330
26C
100
AcDbXrecord
280
     1
270
     1
271
     1
  0
XRECORD
  5
271
102
{ACAD_REACTORS
330
26C
102
}
330
26C
100
AcDbXrecord
280
     1
270
     1
271
     1
  0
XRECORD
  5
270
102
{ACAD_REACTORS
330
26C
102
}
330
26C
100
AcDbXrecord
280
     1
270
     1
271
     1
  0
XRECORD
  5
272
102
{ACAD_REACTORS
330
26C
102
}
330
26C
100
AcDbXrecord
280
     1
270
     1
271
     1
  0
XRECORD
  5
26F
102
{ACAD_REACTORS
330
26C
102
}
330
26C
100
AcDbXrecord
280
     1
270
     1
271
     1
  0
XRECORD
  5
3FB
102
{ACAD_REACTORS
330
264
102
}
330
264
100
AcDbXrecord
280
     1
102
MATERIAL
148
0.0
149
0.0
149
0.0
 93
        0
 94
      127
282
     0
 72
     0
 77
     0
171
     0
175
     0
179
     0
273
     0
  0
XRECORD
  5
266
102
{ACAD_REACTORS
330
264
102
}
330
264
100
AcDbXrecord
280
     1
270
     1
271
     1
  0
XRECORD
  5
265
102
{ACAD_REACTORS
330
264
102
}
330
264
100
AcDbXrecord
280
     1
270
     1
271
     1
  0
XRECORD
  5
269
102
{ACAD_REACTORS
330
264
102
}
330
264
100
AcDbXrecord
280
     1
270
     1
271
     1
  0
XRECORD
  5
268
102
{ACAD_REACTORS
330
264
102
}
330
264
100
AcDbXrecord
280
     1
270
     1
271
     1
  0
XRECORD
  5
26A
102
{ACAD_REACTORS
330
264
102
}
330
264
100
AcDbXrecord
280
     1
270
     1
271
     1
  0
XRECORD
  5
267
102
{ACAD_REACTORS
330
264
102
}
330
264
100
AcDbXrecord
280
     1
270
     1
271
     1
  0
XRECORD
  5
3FD
102
{ACAD_REACTORS
330
274
102
}
330
274
100
AcDbXrecord
280
     1
102
MATERIAL
148
0.0
149
0.0
149
0.0
 93
        0
 94
      127
282
     0
 72
     0
 77
     0
171
     0
175
     0
179
     0
273
     0
  0
XRECORD
  5
276
102
{ACAD_REACTORS
330
274
102
}
330
274
100
AcDbXrecord
280
     1
270
     1
271
     1
  0
XRECORD
  5
275
102
{ACAD_REACTORS
330
274
102
}
330
274
100
AcDbXrecord
280
     1
270
     1
271
     1
  0
XRECORD
  5
279
102
{ACAD_REACTORS
330
274
102
}
330
274
100
AcDbXrecord
280
     1
270
     1
271
     1
  0
XRECORD
  5
278
102
{ACAD_REACTORS
330
274
102
}
330
274
100
AcDbXrecord
280
     1
270
     1
271
     1
  0
XRECORD
  5
27A
102
{ACAD_REACTORS
330
274
102
}
330
274
100
AcDbXrecord
280
     1
270
     1
271
     1
  0
XRECORD
  5
277
102
{ACAD_REACTORS
330
274
102
}
330
274
100
AcDbXrecord
280
     1
270
     1
271
     1
  0
CELLSTYLEMAP
  5
4C7
102
{ACAD_REACTORS
330
3F7
102
}
330
3F7
100
AcDbCellStyleMap
 90
        3
300
CELLSTYLE
  1
TABLEFORMAT_BEGIN
 90
        5
170
     1
 91
        0
 92
    32768
 62
   257
 93
        1
300
CONTENTFORMAT
  1
CONTENTFORMAT_BEGIN
 90
        0
 91
        0
 92
      512
 93
        0
300

 40
0.0
140
1.0
 94
        5
 62
     0
340
FF
144
0.25
309
CONTENTFORMAT_END
171
     1
301
MARGIN
  1
CELLMARGIN_BEGIN
 40
0.06
 40
0.06
 40
0.06
 40
0.06
 40
0.18
 40
0.18
309
CELLMARGIN_END
 94
        6
 95
        1
302
GRIDFORMAT
  1
GRIDFORMAT_BEGIN
 90
        0
 91
        1
 62
     0
 92
       -2
340
0
 93
        0
 40
0.045
309
GRIDFORMAT_END
 95
        2
302
GRIDFORMAT
  1
GRIDFORMAT_BEGIN
 90
        0
 91
        1
 62
     0
 92
       -2
340
0
 93
        0
 40
0.045
309
GRIDFORMAT_END
 95
        4
302
GRIDFORMAT
  1
GRIDFORMAT_BEGIN
 90
        0
 91
        1
 62
     0
 92
       -2
340
0
 93
        0
 40
0.045
309
GRIDFORMAT_END
 95
        8
302
GRIDFORMAT
  1
GRIDFORMAT_BEGIN
 90
        0
 91
        1
 62
     0
 92
       -2
340
0
 93
        0
 40
0.045
309
GRIDFORMAT_END
 95
       16
302
GRIDFORMAT
  1
GRIDFORMAT_BEGIN
 90
        0
 91
        1
 62
     0
 92
       -2
340
0
 93
        0
 40
0.045
309
GRIDFORMAT_END
 95
       32
302
GRIDFORMAT
  1
GRIDFORMAT_BEGIN
 90
        0
 91
        1
 62
     0
 92
       -2
340
0
 93
        0
 40
0.045
309
GRIDFORMAT_END
309
TABLEFORMAT_END
  1
CELLSTYLE_BEGIN
 90
        1
 91
        1
300
_TITLE
309
CELLSTYLE_END
300
CELLSTYLE
  1
TABLEFORMAT_BEGIN
 90
        5
170
     1
 91
        0
 92
        0
 62
   257
 93
        1
300
CONTENTFORMAT
  1
CONTENTFORMAT_BEGIN
 90
        0
 91
        0
 92
      512
 93
        0
300

 40
0.0
140
1.0
 94
        5
 62
     0
340
FF
144
0.18
309
CONTENTFORMAT_END
171
     1
301
MARGIN
  1
CELLMARGIN_BEGIN
 40
0.06
 40
0.06
 40
0.06
 40
0.06
 40
0.18
 40
0.18
309
CELLMARGIN_END
 94
        6
 95
        1
302
GRIDFORMAT
  1
GRIDFORMAT_BEGIN
 90
        0
 91
        1
 62
     0
 92
       -2
340
0
 93
        0
 40
0.045
309
GRIDFORMAT_END
 95
        2
302
GRIDFORMAT
  1
GRIDFORMAT_BEGIN
 90
        0
 91
        1
 62
     0
 92
       -2
340
0
 93
        0
 40
0.045
309
GRIDFORMAT_END
 95
        4
302
GRIDFORMAT
  1
GRIDFORMAT_BEGIN
 90
        0
 91
        1
 62
     0
 92
       -2
340
0
 93
        0
 40
0.045
309
GRIDFORMAT_END
 95
        8
302
GRIDFORMAT
  1
GRIDFORMAT_BEGIN
 90
        0
 91
        1
 62
     0
 92
       -2
340
0
 93
        0
 40
0.045
309
GRIDFORMAT_END
 95
       16
302
GRIDFORMAT
  1
GRIDFORMAT_BEGIN
 90
        0
 91
        1
 62
     0
 92
       -2
340
0
 93
        0
 40
0.045
309
GRIDFORMAT_END
 95
       32
302
GRIDFORMAT
  1
GRIDFORMAT_BEGIN
 90
        0
 91
        1
 62
     0
 92
       -2
340
0
 93
        0
 40
0.045
309
GRIDFORMAT_END
309
TABLEFORMAT_END
  1
CELLSTYLE_BEGIN
 90
        2
 91
        1
300
_HEADER
309
CELLSTYLE_END
300
CELLSTYLE
  1
TABLEFORMAT_BEGIN
 90
        5
170
     1
 91
        0
 92
        0
 62
   257
 93
        1
300
CONTENTFORMAT
  1
CONTENTFORMAT_BEGIN
 90
        0
 91
        0
 92
      512
 93
        0
300

 40
0.0
140
1.0
 94
        2
 62
     0
340
FF
144
0.18
309
CONTENTFORMAT_END
171
     1
301
MARGIN
  1
CELLMARGIN_BEGIN
 40
0.06
 40
0.06
 40
0.06
 40
0.06
 40
0.18
 40
0.18
309
CELLMARGIN_END
 94
        6
 95
        1
302
GRIDFORMAT
  1
GRIDFORMAT_BEGIN
 90
        0
 91
        1
 62
     0
 92
       -2
340
0
 93
        0
 40
0.045
309
GRIDFORMAT_END
 95
        2
302
GRIDFORMAT
  1
GRIDFORMAT_BEGIN
 90
        0
 91
        1
 62
     0
 92
       -2
340
0
 93
        0
 40
0.045
309
GRIDFORMAT_END
 95
        4
302
GRIDFORMAT
  1
GRIDFORMAT_BEGIN
 90
        0
 91
        1
 62
     0
 92
       -2
340
0
 93
        0
 40
0.045
309
GRIDFORMAT_END
 95
        8
302
GRIDFORMAT
  1
GRIDFORMAT_BEGIN
 90
        0
 91
        1
 62
     0
 92
       -2
340
0
 93
        0
 40
0.045
309
GRIDFORMAT_END
 95
       16
302
GRIDFORMAT
  1
GRIDFORMAT_BEGIN
 90
        0
 91
        1
 62
     0
 92
       -2
340
0
 93
        0
 40
0.045
309
GRIDFORMAT_END
 95
       32
302
GRIDFORMAT
  1
GRIDFORMAT_BEGIN
 90
        0
 91
        1
 62
     0
 92
       -2
340
0
 93
        0
 40
0.045
309
GRIDFORMAT_END
309
TABLEFORMAT_END
  1
CELLSTYLE_BEGIN
 90
        3
 91
        2
300
_DATA
309
CELLSTYLE_END
  0
XRECORD
  5
4F0
102
{ACAD_REACTORS
330
3F7
102
}
330
3F7
100
AcDbXrecord
280
     1
102
ACAD_ROUNDTRIP_PRE2007_TABLESTYLE
 90
      512
 91
        0
  1

 92
      512
 93
        0
  2

 94
      512
 95
        0
  3

  0
XRECORD
  5
4D5
102
{ACAD_REACTORS
330
4D4
102
}
330
4D4
100
AcDbXrecord
280
     1
102
RTVSPropertyOp0
 70
     1
102
RTVSPropertyOp1
 70
     1
102
RTVSPropertyOp2
 70
     1
102
RTVSPropertyOp3
 70
     1
102
RTVSPropertyOp4
 70
     1
102
RTVSPropertyOp5
 70
     1
102
RTVSPropertyOp6
 70
     1
102
RTVSPropertyOp7
 70
     1
102
RTVSPropertyOp8
 70
     1
102
RTVSPropertyOp9
 70
     1
102
RTVSPropertyOp10
 70
     1
102
RTVSPropertyOp11
 70
     1
102
RTVSPropertyOp12
 70
     1
102
RTVSPropertyOp13
 70
     1
102
RTVSPropertyOp14
 70
     1
102
RTVSPropertyOp15
 70
     1
102
RTVSPropertyOp16
 70
     1
102
RTVSPropertyOp17
 70
     1
102
RTVSPropertyOp18
 70
     1
102
RTVSPropertyOp19
 70
     1
102
RTVSPropertyOp20
 70
     1
102
RTVSPropertyOp21
 70
     1
102
RTVSPropertyOp22
 70
     1
102
RTVSPropertyOp23
 70
     1
102
RTVSPropertyOp24
 70
     1
102
RTVSPropertyOp25
 70
     1
102
RTVSPropertyOp26
 70
     1
102
RTVSPropertyOp27
 70
     1
  0
XRECORD
  5
4D9
102
{ACAD_REACTORS
330
4D8
102
}
330
4D8
100
AcDbXrecord
280
     1
102
RTVSPropertyOp0
 70
     1
102
RTVSPropertyOp1
 70
     1
102
RTVSPropertyOp2
 70
     1
102
RTVSPropertyOp3
 70
     1
102
RTVSPropertyOp4
 70
     1
102
RTVSPropertyOp5
 70
     1
102
RTVSPropertyOp6
 70
     1
102
RTVSPropertyOp7
 70
     1
102
RTVSPropertyOp8
 70
     1
102
RTVSPropertyOp9
 70
     1
102
RTVSPropertyOp10
 70
     1
102
RTVSPropertyOp11
 70
     1
102
RTVSPropertyOp12
 70
     1
102
RTVSPropertyOp13
 70
     1
102
RTVSPropertyOp14
 70
     1
102
RTVSPropertyOp15
 70
     1
102
RTVSPropertyOp16
 70
     1
102
RTVSPropertyOp17
 70
     1
102
RTVSPropertyOp18
 70
     1
102
RTVSPropertyOp19
 70
     1
102
RTVSPropertyOp20
 70
     1
102
RTVSPropertyOp21
 70
     1
102
RTVSPropertyOp22
 70
     1
102
RTVSPropertyOp23
 70
     1
102
RTVSPropertyOp24
 70
     1
102
RTVSPropertyOp25
 70
     1
102
RTVSPropertyOp26
 70
     1
102
RTVSPropertyOp27
 70
     1
  0
XRECORD
  5
4D7
102
{ACAD_REACTORS
330
4D6
102
}
330
4D6
100
AcDbXrecord
280
     1
102
RTVSPropertyOp0
 70
     1
102
RTVSPropertyOp1
 70
     1
102
RTVSPropertyOp2
 70
     1
102
RTVSPropertyOp3
 70
     1
102
RTVSPropertyOp4
 70
     1
102
RTVSPropertyOp5
 70
     1
102
RTVSPropertyOp6
 70
     1
102
RTVSPropertyOp7
 70
     1
102
RTVSPropertyOp8
 70
     1
102
RTVSPropertyOp9
 70
     1
102
RTVSPropertyOp10
 70
     1
102
RTVSPropertyOp11
 70
     1
102
RTVSPropertyOp12
 70
     1
102
RTVSPropertyOp13
 70
     1
102
RTVSPropertyOp14
 70
     1
102
RTVSPropertyOp15
 70
     1
102
RTVSPropertyOp16
 70
     1
102
RTVSPropertyOp17
 70
     1
102
RTVSPropertyOp18
 70
     1
102
RTVSPropertyOp19
 70
     1
102
RTVSPropertyOp20
 70
     1
102
RTVSPropertyOp21
 70
     1
102
RTVSPropertyOp22
 70
     1
102
RTVSPropertyOp23
 70
     1
102
RTVSPropertyOp24
 70
     1
102
RTVSPropertyOp25
 70
     1
102
RTVSPropertyOp26
 70
     1
102
RTVSPropertyOp27
 70
     1
  0
XRECORD
  5
4D3
102
{ACAD_REACTORS
330
4D2
102
}
330
4D2
100
AcDbXrecord
280
     1
102
RTVSPropertyOp0
 70
     1
102
RTVSPropertyOp1
 70
     1
102
RTVSPropertyOp2
 70
     1
102
RTVSPropertyOp3
 70
     1
102
RTVSPropertyOp4
 70
     1
102
RTVSPropertyOp5
 70
     1
102
RTVSPropertyOp6
 70
     1
102
RTVSPropertyOp7
 70
     1
102
RTVSPropertyOp8
 70
     1
102
RTVSPropertyOp9
 70
     1
102
RTVSPropertyOp10
 70
     1
102
RTVSPropertyOp11
 70
     1
102
RTVSPropertyOp12
 70
     1
102
RTVSPropertyOp13
 70
     1
102
RTVSPropertyOp14
 70
     1
102
RTVSPropertyOp15
 70
     1
102
RTVSPropertyOp16
 70
     1
102
RTVSPropertyOp17
 70
     1
102
RTVSPropertyOp18
 70
     1
102
RTVSPropertyOp19
 70
     1
102
RTVSPropertyOp20
 70
     1
102
RTVSPropertyOp21
 70
     1
102
RTVSPropertyOp22
 70
     1
102
RTVSPropertyOp23
 70
     1
102
RTVSPropertyOp24
 70
     1
102
RTVSPropertyOp25
 70
     1
102
RTVSPropertyOp26
 70
     1
102
RTVSPropertyOp27
 70
     1
  0
XRECORD
  5
4E1
102
{ACAD_REACTORS
330
4E0
102
}
330
4E0
100
AcDbXrecord
280
     1
102
RTVSPropertyOp0
 70
     1
102
RTVSPropertyOp1
 70
     1
102
RTVSPropertyOp2
 70
     1
102
RTVSPropertyOp3
 70
     1
102
RTVSPropertyOp4
 70
     1
102
RTVSPropertyOp5
 70
     1
102
RTVSPropertyOp6
 70
     1
102
RTVSPropertyOp7
 70
     1
102
RTVSPropertyOp8
 70
     1
102
RTVSPropertyOp9
 70
     1
102
RTVSPropertyOp10
 70
     1
102
RTVSPropertyOp11
 70
     1
102
RTVSPropertyOp12
 70
     1
102
RTVSPropertyOp13
 70
     1
102
RTVSPropertyOp14
 70
     1
102
RTVSPropertyOp15
 70
     1
102
RTVSPropertyOp16
 70
     1
102
RTVSPropertyOp17
 70
     1
102
RTVSPropertyOp18
 70
     1
102
RTVSPropertyOp19
 70
     1
102
RTVSPropertyOp20
 70
     1
102
RTVSPropertyOp21
 70
     1
102
RTVSPropertyOp22
 70
     1
102
RTVSPropertyOp23
 70
     1
102
RTVSPropertyOp24
 70
     1
102
RTVSPropertyOp25
 70
     1
102
RTVSPropertyOp26
 70
     1
102
RTVSPropertyOp27
 70
     1
  0
XRECORD
  5
4E9
102
{ACAD_REACTORS
330
4E8
102
}
330
4E8
100
AcDbXrecord
280
     1
102
RTVSPropertyOp0
 70
     1
102
RTVSPropertyOp1
 70
     1
102
RTVSPropertyOp2
 70
     1
102
RTVSPropertyOp3
 70
     1
102
RTVSPropertyOp4
 70
     1
102
RTVSPropertyOp5
 70
     1
102
RTVSPropertyOp6
 70
     1
102
RTVSPropertyOp7
 70
     1
102
RTVSPropertyOp8
 70
     1
102
RTVSPropertyOp9
 70
     1
102
RTVSPropertyOp10
 70
     1
102
RTVSPropertyOp11
 70
     1
102
RTVSPropertyOp12
 70
     1
102
RTVSPropertyOp13
 70
     1
102
RTVSPropertyOp14
 70
     1
102
RTVSPropertyOp15
 70
     1
102
RTVSPropertyOp16
 70
     1
102
RTVSPropertyOp17
 70
     1
102
RTVSPropertyOp18
 70
     1
102
RTVSPropertyOp19
 70
     1
102
RTVSPropertyOp20
 70
     1
102
RTVSPropertyOp21
 70
     1
102
RTVSPropertyOp22
 70
     1
102
RTVSPropertyOp23
 70
     1
102
RTVSPropertyOp24
 70
     1
102
RTVSPropertyOp25
 70
     1
102
RTVSPropertyOp26
 70
     1
102
RTVSPropertyOp27
 70
     1
  0
XRECORD
  5
4DB
102
{ACAD_REACTORS
330
4DA
102
}
330
4DA
100
AcDbXrecord
280
     1
102
RTVSPropertyOp0
 70
     1
102
RTVSPropertyOp1
 70
     1
102
RTVSPropertyOp2
 70
     1
102
RTVSPropertyOp3
 70
     1
102
RTVSPropertyOp4
 70
     1
102
RTVSPropertyOp5
 70
     1
102
RTVSPropertyOp6
 70
     1
102
RTVSPropertyOp7
 70
     1
102
RTVSPropertyOp8
 70
     1
102
RTVSPropertyOp9
 70
     1
102
RTVSPropertyOp10
 70
     1
102
RTVSPropertyOp11
 70
     1
102
RTVSPropertyOp12
 70
     1
102
RTVSPropertyOp13
 70
     1
102
RTVSPropertyOp14
 70
     1
102
RTVSPropertyOp15
 70
     1
102
RTVSPropertyOp16
 70
     1
102
RTVSPropertyOp17
 70
     1
102
RTVSPropertyOp18
 70
     1
102
RTVSPropertyOp19
 70
     1
102
RTVSPropertyOp20
 70
     1
102
RTVSPropertyOp21
 70
     1
102
RTVSPropertyOp22
 70
     1
102
RTVSPropertyOp23
 70
     1
102
RTVSPropertyOp24
 70
     1
102
RTVSPropertyOp25
 70
     1
102
RTVSPropertyOp26
 70
     1
102
RTVSPropertyOp27
 70
     1
  0
XRECORD
  5
4DF
102
{ACAD_REACTORS
330
4DE
102
}
330
4DE
100
AcDbXrecord
280
     1
102
RTVSPropertyOp0
 70
     1
102
RTVSPropertyOp1
 70
     1
102
RTVSPropertyOp2
 70
     1
102
RTVSPropertyOp3
 70
     1
102
RTVSPropertyOp4
 70
     1
102
RTVSPropertyOp5
 70
     1
102
RTVSPropertyOp6
 70
     1
102
RTVSPropertyOp7
 70
     1
102
RTVSPropertyOp8
 70
     1
102
RTVSPropertyOp9
 70
     1
102
RTVSPropertyOp10
 70
     1
102
RTVSPropertyOp11
 70
     1
102
RTVSPropertyOp12
 70
     1
102
RTVSPropertyOp13
 70
     1
102
RTVSPropertyOp14
 70
     1
102
RTVSPropertyOp15
 70
     1
102
RTVSPropertyOp16
 70
     1
102
RTVSPropertyOp17
 70
     1
102
RTVSPropertyOp18
 70
     1
102
RTVSPropertyOp19
 70
     1
102
RTVSPropertyOp20
 70
     1
102
RTVSPropertyOp21
 70
     1
102
RTVSPropertyOp22
 70
     1
102
RTVSPropertyOp23
 70
     1
102
RTVSPropertyOp24
 70
     1
102
RTVSPropertyOp25
 70
     1
102
RTVSPropertyOp26
 70
     1
102
RTVSPropertyOp27
 70
     1
  0
XRECORD
  5
4EF
102
{ACAD_REACTORS
330
4EE
102
}
330
4EE
100
AcDbXrecord
280
     1
102
RTVSPropertyOp0
 70
     0
102
RTVSPropertyOp1
 70
     0
102
RTVSPropertyOp2
 70
     0
102
RTVSPropertyOp3
 70
     0
102
RTVSPropertyOp4
 70
     0
102
RTVSPropertyOp5
 70
     0
102
RTVSPropertyOp6
 70
     0
102
RTVSPropertyOp7
 70
     0
102
RTVSPropertyOp8
 70
     0
102
RTVSPropertyOp9
 70
     0
102
RTVSPropertyOp10
 70
     0
102
RTVSPropertyOp11
 70
     0
102
RTVSPropertyOp12
 70
     0
102
RTVSPropertyOp13
 70
     0
102
RTVSPropertyOp14
 70
     2
102
RTVSPropertyOp15
 70
     0
102
RTVSPropertyOp16
 70
     0
102
RTVSPropertyOp17
 70
     0
102
RTVSPropertyOp18
 70
     0
102
RTVSPropertyOp19
 70
     0
102
RTVSPropertyOp20
 70
     0
102
RTVSPropertyOp21
 70
     0
102
RTVSPropertyOp22
 70
     0
102
RTVSPropertyOp23
 70
     0
102
RTVSPropertyOp24
 70
     0
102
RTVSPropertyOp25
 70
     0
102
RTVSPropertyOp26
 70
     0
102
RTVSPropertyOp27
 70
     0
  0
XRECORD
  5
4E7
102
{ACAD_REACTORS
330
4E6
102
}
330
4E6
100
AcDbXrecord
280
     1
102
RTVSPropertyOp0
 70
     1
102
RTVSPropertyOp1
 70
     1
102
RTVSPropertyOp2
 70
     1
102
RTVSPropertyOp3
 70
     1
102
RTVSPropertyOp4
 70
     1
102
RTVSPropertyOp5
 70
     1
102
RTVSPropertyOp6
 70
     1
102
RTVSPropertyOp7
 70
     1
102
RTVSPropertyOp8
 70
     1
102
RTVSPropertyOp9
 70
     1
102
RTVSPropertyOp10
 70
     1
102
RTVSPropertyOp11
 70
     1
102
RTVSPropertyOp12
 70
     1
102
RTVSPropertyOp13
 70
     1
102
RTVSPropertyOp14
 70
     1
102
RTVSPropertyOp15
 70
     1
102
RTVSPropertyOp16
 70
     1
102
RTVSPropertyOp17
 70
     1
102
RTVSPropertyOp18
 70
     1
102
RTVSPropertyOp19
 70
     1
102
RTVSPropertyOp20
 70
     1
102
RTVSPropertyOp21
 70
     1
102
RTVSPropertyOp22
 70
     1
102
RTVSPropertyOp23
 70
     1
102
RTVSPropertyOp24
 70
     1
102
RTVSPropertyOp25
 70
     1
102
RTVSPropertyOp26
 70
     1
102
RTVSPropertyOp27
 70
     1
  0
XRECORD
  5
4CB
102
{ACAD_REACTORS
330
4CA
102
}
330
4CA
100
AcDbXrecord
280
     1
102
RTVSPropertyOp0
 70
     1
102
RTVSPropertyOp1
 70
     1
102
RTVSPropertyOp2
 70
     1
102
RTVSPropertyOp3
 70
     1
102
RTVSPropertyOp4
 70
     1
102
RTVSPropertyOp5
 70
     1
102
RTVSPropertyOp6
 70
     1
102
RTVSPropertyOp7
 70
     1
102
RTVSPropertyOp8
 70
     1
102
RTVSPropertyOp9
 70
     1
102
RTVSPropertyOp10
 70
     1
102
RTVSPropertyOp11
 70
     1
102
RTVSPropertyOp12
 70
     1
102
RTVSPropertyOp13
 70
     1
102
RTVSPropertyOp14
 70
     1
102
RTVSPropertyOp15
 70
     1
102
RTVSPropertyOp16
 70
     1
102
RTVSPropertyOp17
 70
     1
102
RTVSPropertyOp18
 70
     1
102
RTVSPropertyOp19
 70
     1
102
RTVSPropertyOp20
 70
     1
102
RTVSPropertyOp21
 70
     1
102
RTVSPropertyOp22
 70
     1
102
RTVSPropertyOp23
 70
     1
102
RTVSPropertyOp24
 70
     1
102
RTVSPropertyOp25
 70
     1
102
RTVSPropertyOp26
 70
     1
102
RTVSPropertyOp27
 70
     1
  0
XRECORD
  5
4CD
102
{ACAD_REACTORS
330
4CC
102
}
330
4CC
100
AcDbXrecord
280
     1
102
RTVSPropertyOp0
 70
     1
102
RTVSPropertyOp1
 70
     1
102
RTVSPropertyOp2
 70
     1
102
RTVSPropertyOp3
 70
     1
102
RTVSPropertyOp4
 70
     1
102
RTVSPropertyOp5
 70
     1
102
RTVSPropertyOp6
 70
     1
102
RTVSPropertyOp7
 70
     1
102
RTVSPropertyOp8
 70
     1
102
RTVSPropertyOp9
 70
     1
102
RTVSPropertyOp10
 70
     1
102
RTVSPropertyOp11
 70
     1
102
RTVSPropertyOp12
 70
     1
102
RTVSPropertyOp13
 70
     1
102
RTVSPropertyOp14
 70
     1
102
RTVSPropertyOp15
 70
     1
102
RTVSPropertyOp16
 70
     1
102
RTVSPropertyOp17
 70
     1
102
RTVSPropertyOp18
 70
     1
102
RTVSPropertyOp19
 70
     1
102
RTVSPropertyOp20
 70
     1
102
RTVSPropertyOp21
 70
     1
102
RTVSPropertyOp22
 70
     1
102
RTVSPropertyOp23
 70
     1
102
RTVSPropertyOp24
 70
     1
102
RTVSPropertyOp25
 70
     1
102
RTVSPropertyOp26
 70
     1
102
RTVSPropertyOp27
 70
     1
  0
XRECORD
  5
4CF
102
{ACAD_REACTORS
330
4CE
102
}
330
4CE
100
AcDbXrecord
280
     1
102
RTVSPropertyOp0
 70
     1
102
RTVSPropertyOp1
 70
     1
102
RTVSPropertyOp2
 70
     1
102
RTVSPropertyOp3
 70
     1
102
RTVSPropertyOp4
 70
     1
102
RTVSPropertyOp5
 70
     1
102
RTVSPropertyOp6
 70
     1
102
RTVSPropertyOp7
 70
     1
102
RTVSPropertyOp8
 70
     1
102
RTVSPropertyOp9
 70
     1
102
RTVSPropertyOp10
 70
     1
102
RTVSPropertyOp11
 70
     1
102
RTVSPropertyOp12
 70
     1
102
RTVSPropertyOp13
 70
     1
102
RTVSPropertyOp14
 70
     1
102
RTVSPropertyOp15
 70
     1
102
RTVSPropertyOp16
 70
     1
102
RTVSPropertyOp17
 70
     1
102
RTVSPropertyOp18
 70
     1
102
RTVSPropertyOp19
 70
     1
102
RTVSPropertyOp20
 70
     1
102
RTVSPropertyOp21
 70
     1
102
RTVSPropertyOp22
 70
     1
102
RTVSPropertyOp23
 70
     1
102
RTVSPropertyOp24
 70
     1
102
RTVSPropertyOp25
 70
     1
102
RTVSPropertyOp26
 70
     1
102
RTVSPropertyOp27
 70
     1
  0
XRECORD
  5
4D1
102
{ACAD_REACTORS
330
4D0
102
}
330
4D0
100
AcDbXrecord
280
     1
102
RTVSPropertyOp0
 70
     1
102
RTVSPropertyOp1
 70
     1
102
RTVSPropertyOp2
 70
     1
102
RTVSPropertyOp3
 70
     1
102
RTVSPropertyOp4
 70
     1
102
RTVSPropertyOp5
 70
     1
102
RTVSPropertyOp6
 70
     1
102
RTVSPropertyOp7
 70
     1
102
RTVSPropertyOp8
 70
     1
102
RTVSPropertyOp9
 70
     1
102
RTVSPropertyOp10
 70
     1
102
RTVSPropertyOp11
 70
     1
102
RTVSPropertyOp12
 70
     1
102
RTVSPropertyOp13
 70
     1
102
RTVSPropertyOp14
 70
     1
102
RTVSPropertyOp15
 70
     1
102
RTVSPropertyOp16
 70
     1
102
RTVSPropertyOp17
 70
     1
102
RTVSPropertyOp18
 70
     1
102
RTVSPropertyOp19
 70
     1
102
RTVSPropertyOp20
 70
     1
102
RTVSPropertyOp21
 70
     1
102
RTVSPropertyOp22
 70
     1
102
RTVSPropertyOp23
 70
     1
102
RTVSPropertyOp24
 70
     1
102
RTVSPropertyOp25
 70
     1
102
RTVSPropertyOp26
 70
     1
102
RTVSPropertyOp27
 70
     1
  0
XRECORD
  5
4EB
102
{ACAD_REACTORS
330
4EA
102
}
330
4EA
100
AcDbXrecord
280
     1
102
RTVSPropertyOp0
 70
     0
102
RTVSPropertyOp1
 70
     0
102
RTVSPropertyOp2
 70
     0
102
RTVSPropertyOp3
 70
     0
102
RTVSPropertyOp4
 70
     0
102
RTVSPropertyOp5
 70
     0
102
RTVSPropertyOp6
 70
     0
102
RTVSPropertyOp7
 70
     0
102
RTVSPropertyOp8
 70
     0
102
RTVSPropertyOp9
 70
     0
102
RTVSPropertyOp10
 70
     0
102
RTVSPropertyOp11
 70
     0
102
RTVSPropertyOp12
 70
     0
102
RTVSPropertyOp13
 70
     0
102
RTVSPropertyOp14
 70
     2
102
RTVSPropertyOp15
 70
     0
102
RTVSPropertyOp16
 70
     0
102
RTVSPropertyOp17
 70
     0
102
RTVSPropertyOp18
 70
     0
102
RTVSPropertyOp19
 70
     0
102
RTVSPropertyOp20
 70
     0
102
RTVSPropertyOp21
 70
     0
102
RTVSPropertyOp22
 70
     0
102
RTVSPropertyOp23
 70
     0
102
RTVSPropertyOp24
 70
     0
102
RTVSPropertyOp25
 70
     0
102
RTVSPropertyOp26
 70
     0
102
RTVSPropertyOp27
 70
     0
  0
XRECORD
  5
4E5
102
{ACAD_REACTORS
330
4E4
102
}
330
4E4
100
AcDbXrecord
280
     1
102
RTVSPropertyOp0
 70
     1
102
RTVSPropertyOp1
 70
     1
102
RTVSPropertyOp2
 70
     1
102
RTVSPropertyOp3
 70
     1
102
RTVSPropertyOp4
 70
     1
102
RTVSPropertyOp5
 70
     1
102
RTVSPropertyOp6
 70
     1
102
RTVSPropertyOp7
 70
     1
102
RTVSPropertyOp8
 70
     1
102
RTVSPropertyOp9
 70
     1
102
RTVSPropertyOp10
 70
     1
102
RTVSPropertyOp11
 70
     1
102
RTVSPropertyOp12
 70
     1
102
RTVSPropertyOp13
 70
     1
102
RTVSPropertyOp14
 70
     1
102
RTVSPropertyOp15
 70
     1
102
RTVSPropertyOp16
 70
     1
102
RTVSPropertyOp17
 70
     1
102
RTVSPropertyOp18
 70
     1
102
RTVSPropertyOp19
 70
     1
102
RTVSPropertyOp20
 70
     1
102
RTVSPropertyOp21
 70
     1
102
RTVSPropertyOp22
 70
     1
102
RTVSPropertyOp23
 70
     1
102
RTVSPropertyOp24
 70
     1
102
RTVSPropertyOp25
 70
     1
102
RTVSPropertyOp26
 70
     1
102
RTVSPropertyOp27
 70
     1
  0
XRECORD
  5
4ED
102
{ACAD_REACTORS
330
4EC
102
}
330
4EC
100
AcDbXrecord
280
     1
102
RTVSPropertyOp0
 70
     0
102
RTVSPropertyOp1
 70
     0
102
RTVSPropertyOp2
 70
     0
102
RTVSPropertyOp3
 70
     0
102
RTVSPropertyOp4
 70
     0
102
RTVSPropertyOp5
 70
     0
102
RTVSPropertyOp6
 70
     0
102
RTVSPropertyOp7
 70
     0
102
RTVSPropertyOp8
 70
     0
102
RTVSPropertyOp9
 70
     0
102
RTVSPropertyOp10
 70
     0
102
RTVSPropertyOp11
 70
     0
102
RTVSPropertyOp12
 70
     0
102
RTVSPropertyOp13
 70
     0
102
RTVSPropertyOp14
 70
     2
102
RTVSPropertyOp15
 70
     0
102
RTVSPropertyOp16
 70
     0
102
RTVSPropertyOp17
 70
     0
102
RTVSPropertyOp18
 70
     0
102
RTVSPropertyOp19
 70
     0
102
RTVSPropertyOp20
 70
     0
102
RTVSPropertyOp21
 70
     0
102
RTVSPropertyOp22
 70
     0
102
RTVSPropertyOp23
 70
     0
102
RTVSPropertyOp24
 70
     0
102
RTVSPropertyOp25
 70
     0
102
RTVSPropertyOp26
 70
     0
102
RTVSPropertyOp27
 70
     0
  0
XRECORD
  5
4DD
102
{ACAD_REACTORS
330
4DC
102
}
330
4DC
100
AcDbXrecord
280
     1
102
RTVSPropertyOp0
 70
     1
102
RTVSPropertyOp1
 70
     1
102
RTVSPropertyOp2
 70
     1
102
RTVSPropertyOp3
 70
     1
102
RTVSPropertyOp4
 70
     1
102
RTVSPropertyOp5
 70
     1
102
RTVSPropertyOp6
 70
     1
102
RTVSPropertyOp7
 70
     1
102
RTVSPropertyOp8
 70
     1
102
RTVSPropertyOp9
 70
     1
102
RTVSPropertyOp10
 70
     1
102
RTVSPropertyOp11
 70
     1
102
RTVSPropertyOp12
 70
     1
102
RTVSPropertyOp13
 70
     1
102
RTVSPropertyOp14
 70
     1
102
RTVSPropertyOp15
 70
     1
102
RTVSPropertyOp16
 70
     1
102
RTVSPropertyOp17
 70
     1
102
RTVSPropertyOp18
 70
     1
102
RTVSPropertyOp19
 70
     1
102
RTVSPropertyOp20
 70
     1
102
RTVSPropertyOp21
 70
     1
102
RTVSPropertyOp22
 70
     1
102
RTVSPropertyOp23
 70
     1
102
RTVSPropertyOp24
 70
     1
102
RTVSPropertyOp25
 70
     1
102
RTVSPropertyOp26
 70
     1
102
RTVSPropertyOp27
 70
     1
  0
XRECORD
  5
4E3
102
{ACAD_REACTORS
330
4E2
102
}
330
4E2
100
AcDbXrecord
280
     1
102
RTVSPropertyOp0
 70
     1
102
RTVSPropertyOp1
 70
     1
102
RTVSPropertyOp2
 70
     1
102
RTVSPropertyOp3
 70
     1
102
RTVSPropertyOp4
 70
     1
102
RTVSPropertyOp5
 70
     1
102
RTVSPropertyOp6
 70
     1
102
RTVSPropertyOp7
 70
     1
102
RTVSPropertyOp8
 70
     1
102
RTVSPropertyOp9
 70
     1
102
RTVSPropertyOp10
 70
     1
102
RTVSPropertyOp11
 70
     1
102
RTVSPropertyOp12
 70
     1
102
RTVSPropertyOp13
 70
     1
102
RTVSPropertyOp14
 70
     1
102
RTVSPropertyOp15
 70
     1
102
RTVSPropertyOp16
 70
     1
102
RTVSPropertyOp17
 70
     1
102
RTVSPropertyOp18
 70
     1
102
RTVSPropertyOp19
 70
     1
102
RTVSPropertyOp20
 70
     1
102
RTVSPropertyOp21
 70
     1
102
RTVSPropertyOp22
 70
     1
102
RTVSPropertyOp23
 70
     1
102
RTVSPropertyOp24
 70
     1
102
RTVSPropertyOp25
 70
     1
102
RTVSPropertyOp26
 70
     1
102
RTVSPropertyOp27
 70
     1
  0
ENDSEC
  0
EOF
