  0
SECTION
  2
HEADER
  9
$ACADVER
  1
AC1015
  9
$ACADMAINTVER
 70
     6
  9
$DWGCODEPAGE
  3
ANSI_1252
  9
$INSBASE
 10
0.0
 20
0.0
 30
0.0
  9
$EXTMIN
 10
114.1849318628058
 20
269.13125
 30
0.0
  9
$EXTMAX
 10
1456.280836513547
 20
1037.715944040976
 30
0.0
  9
$LIMMIN
 10
0.0
 20
0.0
  9
$LIMMAX
 10
12.0
 20
9.0
  9
$ORTHOMODE
 70
     1
  9
$REGENMODE
 70
     1
  9
$FILLMODE
 70
     1
  9
$QTEXTMODE
 70
     0
  9
$MIRRTEXT
 70
     1
  9
$LTSCALE
 40
1.0
  9
$ATTMODE
 70
     1
  9
$TEXTSIZE
 40
0.0
  9
$TRACEWID
 40
0.05
  9
$TEXTSTYLE
  7
STANDARD
  9
$CLAYER
  8
0
  9
$CELTYPE
  6
CONTINUOUS
  9
$CECOLOR
 62
   256
  9
$CELTSCALE
 40
1.0
  9
$DISPSILH
 70
     0
  9
$DIMSCALE
 40
1.0
  9
$DIMASZ
 40
0.18
  9
$DIMEXO
 40
0.0625
  9
$DIMDLI
 40
0.38
  9
$DIMRND
 40
0.0
  9
$DIMDLE
 40
0.0
  9
$DIMEXE
 40
0.18
  9
$DIMTP
 40
0.0
  9
$DIMTM
 40
0.0
  9
$DIMTXT
 40
0.18
  9
$DIMCEN
 40
0.09
  9
$DIMTSZ
 40
0.0
  9
$DIMTOL
 70
     0
  9
$DIMLIM
 70
     0
  9
$DIMTIH
 70
     1
  9
$DIMTOH
 70
     1
  9
$DIMSE1
 70
     0
  9
$DIMSE2
 70
     0
  9
$DIMTAD
 70
     0
  9
$DIMZIN
 70
     0
  9
$DIMBLK
  1

  9
$DIMASO
 70
     1
  9
$DIMSHO
 70
     1
  9
$DIMPOST
  1

  9
$DIMAPOST
  1

  9
$DIMALT
 70
     0
  9
$DIMALTD
 70
     2
  9
$DIMALTF
 40
25.4
  9
$DIMLFAC
 40
1.0
  9
$DIMTOFL
 70
     0
  9
$DIMTVP
 40
0.0
  9
$DIMTIX
 70
     0
  9
$DIMSOXD
 70
     0
  9
$DIMSAH
 70
     0
  9
$DIMBLK1
  1

  9
$DIMBLK2
  1

  9
$DIMSTYLE
  2
STANDARD
  9
$DIMCLRD
 70
     0
  9
$DIMCLRE
 70
     0
  9
$DIMCLRT
 70
     0
  9
$DIMTFAC
 40
1.0
  9
$DIMGAP
 40
0.09
  9
$DIMJUST
 70
     0
  9
$DIMSD1
 70
     0
  9
$DIMSD2
 70
     0
  9
$DIMTOLJ
 70
     1
  9
$DIMTZIN
 70
     0
  9
$DIMALTZ
 70
     0
  9
$DIMALTTZ
 70
     0
  9
$DIMUPT
 70
     0
  9
$DIMDEC
 70
     4
  9
$DIMTDEC
 70
     4
  9
$DIMALTU
 70
     2
  9
$DIMALTTD
 70
     2
  9
$DIMTXSTY
  7
STANDARD
  9
$DIMAUNIT
 70
     0
  9
$DIMADEC
 70
     0
  9
$DIMALTRND
 40
0.0
  9
$DIMAZIN
 70
     0
  9
$DIMDSEP
 70
    46
  9
$DIMATFIT
 70
     3
  9
$DIMFRAC
 70
     0
  9
$DIMLDRBLK
  1

  9
$DIMLUNIT
 70
     2
  9
$DIMLWD
 70
    -2
  9
$DIMLWE
 70
    -2
  9
$DIMTMOVE
 70
     0
  9
$LUNITS
 70
     2
  9
$LUPREC
 70
     4
  9
$SKETCHINC
 40
0.1
  9
$FILLETRAD
 40
0.0
  9
$AUNITS
 70
     0
  9
$AUPREC
 70
     0
  9
$MENU
  1
acad
  9
$ELEVATION
 40
0.0
  9
$PELEVATION
 40
0.0
  9
$THICKNESS
 40
0.0
  9
$LIMCHECK
 70
     0
  9
$CHAMFERA
 40
0.0
  9
$CHAMFERB
 40
0.0
  9
$CHAMFERC
 40
0.0
  9
$CHAMFERD
 40
0.0
  9
$SKPOLY
 70
     0
  9
$TDCREATE
 40
2453233.213449073
  9
$TDUCREATE
 40
2453233.171782407
  9
$TDUPDATE
 40
2459007.916522662
  9
$TDUUPDATE
 40
2459007.874855995
  9
$TDINDWG
 40
0.0717805324
  9
$TDUSRTIMER
 40
0.0717746528
  9
$USRTIMER
 70
     1
  9
$ANGBASE
 50
0.0
  9
$ANGDIR
 70
     0
  9
$PDMODE
 70
     0
  9
$PDSIZE
 40
0.0
  9
$PLINEWID
 40
0.0
  9
$SPLFRAME
 70
     0
  9
$SPLINETYPE
 70
     6
  9
$SPLINESEGS
 70
    10
  9
$HANDSEED
  5
656
  9
$SURFTAB1
 70
     6
  9
$SURFTAB2
 70
     6
  9
$SURFTYPE
 70
     6
  9
$SURFU
 70
     6
  9
$SURFV
 70
     6
  9
$UCSBASE
  2

  9
$UCSNAME
  2

  9
$UCSORG
 10
0.0
 20
0.0
 30
0.0
  9
$UCSXDIR
 10
1.0
 20
0.0
 30
0.0
  9
$UCSYDIR
 10
0.0
 20
1.0
 30
0.0
  9
$UCSORTHOREF
  2

  9
$UCSORTHOVIEW
 70
     0
  9
$UCSORGTOP
 10
0.0
 20
0.0
 30
0.0
  9
$UCSORGBOTTOM
 10
0.0
 20
0.0
 30
0.0
  9
$UCSORGLEFT
 10
0.0
 20
0.0
 30
0.0
  9
$UCSORGRIGHT
 10
0.0
 20
0.0
 30
0.0
  9
$UCSORGFRONT
 10
0.0
 20
0.0
 30
0.0
  9
$UCSORGBACK
 10
0.0
 20
0.0
 30
0.0
  9
$PUCSBASE
  2

  9
$PUCSNAME
  2

  9
$PUCSORG
 10
0.0
 20
0.0
 30
0.0
  9
$PUCSXDIR
 10
1.0
 20
0.0
 30
0.0
  9
$PUCSYDIR
 10
0.0
 20
1.0
 30
0.0
  9
$PUCSORTHOREF
  2

  9
$PUCSORTHOVIEW
 70
     0
  9
$PUCSORGTOP
 10
0.0
 20
0.0
 30
0.0
  9
$PUCSORGBOTTOM
 10
0.0
 20
0.0
 30
0.0
  9
$PUCSORGLEFT
 10
0.0
 20
0.0
 30
0.0
  9
$PUCSORGRIGHT
 10
0.0
 20
0.0
 30
0.0
  9
$PUCSORGFRONT
 10
0.0
 20
0.0
 30
0.0
  9
$PUCSORGBACK
 10
0.0
 20
0.0
 30
0.0
  9
$USERI1
 70
     0
  9
$USERI2
 70
     0
  9
$USERI3
 70
     0
  9
$USERI4
 70
     0
  9
$USERI5
 70
     0
  9
$USERR1
 40
0.0
  9
$USERR2
 40
0.0
  9
$USERR3
 40
0.0
  9
$USERR4
 40
0.0
  9
$USERR5
 40
0.0
  9
$WORLDVIEW
 70
     1
  9
$SHADEDGE
 70
     3
  9
$SHADEDIF
 70
    70
  9
$TILEMODE
 70
     1
  9
$MAXACTVP
 70
    16
  9
$PINSBASE
 10
0.0
 20
0.0
 30
0.0
  9
$PLIMCHECK
 70
     0
  9
$PEXTMIN
 10
-1.000000000000000E+20
 20
-1.000000000000000E+20
 30
-1.000000000000000E+20
  9
$PEXTMAX
 10
-1.000000000000000E+20
 20
-1.000000000000000E+20
 30
-1.000000000000000E+20
  9
$PLIMMIN
 10
0.0
 20
0.0
  9
$PLIMMAX
 10
12.0
 20
9.0
  9
$UNITMODE
 70
     0
  9
$VISRETAIN
 70
     0
  9
$PLINEGEN
 70
     1
  9
$PSLTSCALE
 70
     0
  9
$TREEDEPTH
 70
  3020
  9
$CMLSTYLE
  2
Standard
  9
$CMLJUST
 70
     0
  9
$CMLSCALE
 40
1.0
  9
$PROXYGRAPHICS
 70
     1
  9
$MEASUREMENT
 70
     0
  9
$CELWEIGHT
370
    -1
  9
$ENDCAPS
280
     0
  9
$JOINSTYLE
280
     0
  9
$LWDISPLAY
290
     0
  9
$INSUNITS
 70
     0
  9
$HYPERLINKBASE
  1

  9
$STYLESHEET
  1

  9
$XEDIT
290
     1
  9
$CEPSNTYPE
380
     0
  9
$PSTYLEMODE
290
     1
  9
$FINGERPRINTGUID
  2
{0167B5F4-BBF1-4AF3-BFED-481224D070C7}
  9
$VERSIONGUID
  2
{6C1A7FC9-F886-4453-8FD7-3425656D0B3A}
  9
$EXTNAMES
290
     1
  9
$PSVPSCALE
 40
0.0
  9
$OLESTARTUP
290
     0
  0
ENDSEC
  0
SECTION
  2
CLASSES
  0
CLASS
  1
ACDBDICTIONARYWDFLT
  2
AcDbDictionaryWithDefault
  3
AutoCAD 2000
 90
        0
280
     0
281
     0
  0
CLASS
  1
ACDBPLACEHOLDER
  2
AcDbPlaceHolder
  3
AutoCAD 2000
 90
        0
280
     0
281
     0
  0
CLASS
  1
LAYOUT
  2
AcDbLayout
  3
AutoCAD 2000
 90
        0
280
     0
281
     0
  0
CLASS
  1
MATERIAL
  2
AcDbMaterial
  3
ObjectDBX Classes
 90
     1153
280
     0
281
     0
  0
CLASS
  1
VISUALSTYLE
  2
AcDbVisualStyle
  3
ObjectDBX Classes
 90
     4095
280
     0
281
     0
  0
CLASS
  1
TABLESTYLE
  2
AcDbTableStyle
  3
ObjectDBX Classes
 90
     4095
280
     0
281
     0
  0
CLASS
  1
SORTENTSTABLE
  2
AcDbSortentsTable
  3
AutoCAD 2000
 90
        0
280
     0
281
     0
  0
CLASS
  1
DICTIONARYVAR
  2
AcDbDictionaryVar
  3
AutoCAD 2000
 90
        0
280
     0
281
     0
  0
CLASS
  1
SCALE
  2
AcDbScale
  3
ObjectDBX Classes
 90
     1153
280
     0
281
     0
  0
CLASS
  1
MLEADERSTYLE
  2
AcDbMLeaderStyle
  3
ACDB_MLEADERSTYLE_CLASS
 90
     4095
280
     0
281
     0
  0
CLASS
  1
CELLSTYLEMAP
  2
AcDbCellStyleMap
  3
ObjectDBX Classes
 90
     1152
280
     0
281
     0
  0
ENDSEC
  0
SECTION
  2
TABLES
  0
TABLE
  2
VPORT
  5
147
330
0
100
AcDbSymbolTable
 70
     2
  0
VPORT
  5
655
330
147
100
AcDbSymbolTableRecord
100
AcDbViewportTableRecord
  2
*Active
 70
     0
 10
0.0
 20
0.0
 11
1.0
 21
1.0
 12
-363.2574637225932
 22
-0.1196367548190551
 13
0.0
 23
0.0
 14
0.0
 24
0.0
 15
0.0
 25
0.0
 16
0.0
 26
0.0
 36
1.0
 17
755.5825869999996
 27
635.1625
 37
0.0
 40
911.7324712650175
 41
1.911917098445595
 42
50.0
 43
0.025
 44
0.0
 50
0.0
 51
0.0
 71
     0
 72
   100
 73
     1
 74
     0
 75
     0
 76
     0
 77
     0
 78
     0
281
     0
 65
     0
110
0.0
120
0.0
130
0.0
111
1.0
121
0.0
131
0.0
112
0.0
122
1.0
132
0.0
 79
     0
146
0.0
  0
ENDTAB
  0
TABLE
  2
LTYPE
  5
144
330
0
100
AcDbSymbolTable
 70
     7
  0
LTYPE
  5
152
330
144
100
AcDbSymbolTableRecord
100
AcDbLinetypeTableRecord
  2
ByBlock
 70
     0
  3

 72
    65
 73
     0
 40
0.0
  0
LTYPE
  5
153
330
144
100
AcDbSymbolTableRecord
100
AcDbLinetypeTableRecord
  2
ByLayer
 70
     0
  3

 72
    65
 73
     0
 40
0.0
  0
LTYPE
  5
154
330
144
100
AcDbSymbolTableRecord
100
AcDbLinetypeTableRecord
  2
CONTINUOUS
 70
     0
  3
Solid line
 72
    65
 73
     0
 40
0.0
  0
LTYPE
  5
162
330
144
100
AcDbSymbolTableRecord
100
AcDbLinetypeTableRecord
  2
DOT
 70
     0
  3
. . . . . . . . . . . . . . . . . . . . . . . . . . . . . . . . .
 72
    65
 73
     2
 40
0.25
 49
0.0
 74
     0
 49
-0.25
 74
     0
  0
LTYPE
  5
163
330
144
100
AcDbSymbolTableRecord
100
AcDbLinetypeTableRecord
  2
HIDDEN
 70
     0
  3
__ __ __ __ __ __ __ __ __ __ __ __ __ __ __ __ __ __ __ __ __ 
 72
    65
 73
     2
 40
0.375
 49
0.25
 74
     0
 49
-0.125
 74
     0
  0
LTYPE
  5
164
330
144
100
AcDbSymbolTableRecord
100
AcDbLinetypeTableRecord
  2
DASHED
 70
     0
  3
__ __ __ __ __ __ __ __ __ __ __ __ __ __ __ __ __ __ __ __ __
 72
    65
 73
     2
 40
0.75
 49
0.5
 74
     0
 49
-0.25
 74
     0
  0
LTYPE
  5
165
330
144
100
AcDbSymbolTableRecord
100
AcDbLinetypeTableRecord
  2
DASHDOT
 70
     0
  3
__ . __ . __ . __ . __ . __ . __ . __ . __ . __ . __ . __ . _
 72
    65
 73
     4
 40
1.0
 49
0.5
 74
     0
 49
-0.25
 74
     0
 49
0.0
 74
     0
 49
-0.25
 74
     0
  0
LTYPE
  5
166
330
144
100
AcDbSymbolTableRecord
100
AcDbLinetypeTableRecord
  2
DIVIDE
 70
     0
  3
____ . . ____ . . ____ . . ____ . . ____ . . ____ . . ____ . .
 72
    65
 73
     6
 40
1.25
 49
0.5
 74
     0
 49
-0.25
 74
     0
 49
0.0
 74
     0
 49
-0.25
 74
     0
 49
0.0
 74
     0
 49
-0.25
 74
     0
  0
LTYPE
  5
167
330
144
100
AcDbSymbolTableRecord
100
AcDbLinetypeTableRecord
  2
CENTER
 70
     0
  3
____ _ ____ _ ____ _ ____ _ ____ _ ____ _ ____ _ ____ _ ____ _
 72
    65
 73
     4
 40
2.0
 49
1.25
 74
     0
 49
-0.25
 74
     0
 49
0.25
 74
     0
 49
-0.25
 74
     0
  0
ENDTAB
  0
TABLE
  2
LAYER
  5
141
330
0
100
AcDbSymbolTable
 70
     7
  0
LAYER
  5
14F
102
{ACAD_XDICTIONARY
360
478
102
}
330
141
100
AcDbSymbolTableRecord
100
AcDbLayerTableRecord
  2
0
 70
     0
 62
     7
  6
CONTINUOUS
370
    -3
390
14E
  0
LAYER
  5
168
102
{ACAD_XDICTIONARY
360
47A
102
}
330
141
100
AcDbSymbolTableRecord
100
AcDbLayerTableRecord
  2
CONSTRUCTION_CLASS
 70
     0
 62
     7
  6
CONTINUOUS
370
    -3
390
14E
  0
LAYER
  5
169
102
{ACAD_XDICTIONARY
360
47C
102
}
330
141
100
AcDbSymbolTableRecord
100
AcDbLayerTableRecord
  2
PATTERN_CLASS
 70
     0
 62
     7
  6
CONTINUOUS
370
    -3
390
14E
  0
LAYER
  5
16A
102
{ACAD_XDICTIONARY
360
47E
102
}
330
141
100
AcDbSymbolTableRecord
100
AcDbLayerTableRecord
  2
1
 70
     0
 62
     7
  6
CONTINUOUS
370
    -3
390
14E
  0
LAYER
  5
16B
102
{ACAD_XDICTIONARY
360
480
102
}
330
141
100
AcDbSymbolTableRecord
100
AcDbLayerTableRecord
  2
-1
 70
     0
 62
     7
  6
CONTINUOUS
370
    -3
390
14E
  0
LAYER
  5
4E6
102
{ACAD_XDICTIONARY
360
4E7
102
}
330
141
100
AcDbSymbolTableRecord
100
AcDbLayerTableRecord
  2
FLAN1$0$-1
 70
     0
 62
     7
  6
CONTINUOUS
370
    -3
390
14E
  0
LAYER
  5
585
102
{ACAD_XDICTIONARY
360
586
102
}
330
141
100
AcDbSymbolTableRecord
100
AcDbLayerTableRecord
  2
FLAN1$0$1
 70
     0
 62
     7
  6
CONTINUOUS
370
    -3
390
14E
  0
ENDTAB
  0
TABLE
  2
STYLE
  5
142
330
0
100
AcDbSymbolTable
 70
     2
  0
STYLE
  5
150
330
142
100
AcDbSymbolTableRecord
100
AcDbTextStyleTableRecord
  2
STANDARD
 70
     0
 40
0.0
 41
1.0
 50
0.0
 71
     0
 42
0.0
  3
txt
  4

  0
STYLE
  5
16C
330
142
100
AcDbSymbolTableRecord
100
AcDbTextStyleTableRecord
  2
ROMANS
 70
     0
 40
0.2
 41
1.0
 50
0.0
 71
     0
 42
0.2
  3
ROMANS
  4

  0
ENDTAB
  0
TABLE
  2
VIEW
  5
145
330
0
100
AcDbSymbolTable
 70
     0
  0
ENDTAB
  0
TABLE
  2
UCS
  5
146
330
0
100
AcDbSymbolTable
 70
     0
  0
ENDTAB
  0
TABLE
  2
APPID
  5
148
330
0
100
AcDbSymbolTable
 70
     2
  0
APPID
  5
151
330
148
100
AcDbSymbolTableRecord
100
AcDbRegAppTableRecord
  2
ACAD
 70
     0
  0
APPID
  5
4B4
330
148
100
AcDbSymbolTableRecord
100
AcDbRegAppTableRecord
  2
ACAD_MLEADERVER
 70
     0
  0
ENDTAB
  0
TABLE
  2
DIMSTYLE
  5
149
330
0
100
AcDbSymbolTable
 70
     1
100
AcDbDimStyleTable
 71
     0
  0
DIMSTYLE
105
16D
330
149
100
AcDbSymbolTableRecord
100
AcDbDimStyleTableRecord
  2
STANDARD
 70
     0
279
     2
340
150
  0
ENDTAB
  0
TABLE
  2
BLOCK_RECORD
  5
140
330
0
100
AcDbSymbolTable
 70
     0
  0
BLOCK_RECORD
  5
15D
102
{ACAD_XDICTIONARY
360
2F3
102
}
330
140
100
AcDbSymbolTableRecord
100
AcDbBlockTableRecord
  2
*Model_Space
340
160
  0
BLOCK_RECORD
  5
159
330
140
100
AcDbSymbolTableRecord
100
AcDbBlockTableRecord
  2
*Paper_Space
340
15C
  0
ENDTAB
  0
ENDSEC
  0
SECTION
  2
BLOCKS
  0
BLOCK
  5
15E
330
15D
100
AcDbEntity
  8
0
100
AcDbBlockBegin
  2
*Model_Space
 70
     0
 10
0.0
 20
0.0
 30
0.0
  3
*Model_Space
  1

  0
ENDBLK
  5
15F
330
15D
100
AcDbEntity
  8
0
100
AcDbBlockEnd
  0
BLOCK
  5
15A
330
159
100
AcDbEntity
 67
     1
  8
0
100
AcDbBlockBegin
  2
*Paper_Space
 70
     0
 10
0.0
 20
0.0
 30
0.0
  3
*Paper_Space
  1

  0
ENDBLK
  5
15B
330
159
100
AcDbEntity
 67
     1
  8
0
100
AcDbBlockEnd
  0
ENDSEC
  0
SECTION
  2
ENTITIES
  0
LINE
  5
171
330
15D
100
AcDbEntity
  8
1
  6
Continuous
 62
     4
100
AcDbLine
 10
798.0812500000003
 20
823.4312499999997
 30
0.0
 11
798.0812500000003
 21
518.9562499999998
 31
0.0
  0
LINE
  5
173
330
15D
100
AcDbEntity
  8
1
  6
Continuous
 62
     4
100
AcDbLine
 10
690.1249999999996
 20
518.9562499999998
 30
0.0
 11
690.1249999999996
 21
825.8732974821905
 31
0.0
  0
LINE
  5
174
330
15D
100
AcDbEntity
  8
1
  6
Continuous
 62
     4
100
AcDbLine
 10
906.03125
 20
518.9562499999998
 30
0.0
 11
906.03125
 21
821.079493796544
 31
0.0
  0
LINE
  5
175
330
15D
100
AcDbEntity
  8
1
  6
Continuous
 62
     4
100
AcDbLine
 10
690.1249999999996
 20
518.9562499999998
 30
0.0
 11
906.03125
 21
518.9562499999998
 31
0.0
  0
LINE
  5
176
330
15D
100
AcDbEntity
  8
1
  6
Continuous
 62
     4
100
AcDbLine
 10
712.2437499999997
 20
518.9562499999998
 30
0.0
 11
712.2437499999997
 21
834.2167384856308
 31
0.0
  0
LINE
  5
177
330
15D
100
AcDbEntity
  8
1
  6
Continuous
 62
     4
100
AcDbLine
 10
883.9187500000003
 20
518.9562499999998
 30
0.0
 11
883.9187500000003
 21
812.8132613828624
 31
0.0
  0
LINE
  5
1C1
330
15D
100
AcDbEntity
  8
1
  6
Continuous
 62
     4
100
AcDbLine
 10
926.1874999999996
 20
596.3437499999997
 30
0.0
 11
906.03125
 21
616.50831185567
 31
0.0
  0
LINE
  5
1C2
330
15D
100
AcDbEntity
  8
1
  6
Continuous
 62
     4
100
AcDbLine
 10
910.9312499999999
 20
505.7249999999998
 30
0.0
 11
897.7062500000002
 21
518.9562499999998
 31
0.0
  0
LINE
  5
1C3
330
15D
100
AcDbEntity
  8
1
  6
Continuous
 62
     4
100
AcDbLine
 10
696.1125000000002
 20
518.9562499999998
 30
0.0
 11
685.1249999999997
 21
507.96875
 31
0.0
  0
LINE
  5
1C4
330
15D
100
AcDbEntity
  8
1
  6
Continuous
 62
     4
100
AcDbLine
 10
690.1249999999996
 20
615.8250000000005
 30
0.0
 11
670.6437500000004
 21
596.3437499999997
 31
0.0
  0
LINE
  5
20A
330
15D
100
AcDbEntity
  8
-1
  6
Continuous
 62
     4
100
AcDbLine
 10
588.9187500000002
 20
587.7999707466131
 30
0.0
 11
588.9187500000002
 21
507.2728507541643
 31
0.0
  0
LINE
  5
20B
330
15D
100
AcDbEntity
  8
-1
  6
Continuous
 62
     4
100
AcDbLine
 10
1007.243749999999
 20
590.418739363579
 30
0.0
 11
1007.243749999999
 21
506.6181595985398
 31
0.0
  0
LINE
  5
308
330
15D
100
AcDbEntity
  8
0
  6
Continuous
 62
     4
100
AcDbLine
 10
533.3187500000001
 20
565.6225334861765
 30
0.0
 11
543.5087165138225
 21
575.8124999999997
 31
0.0
1001
ACAD
1010
0.0
1020
0.0
1030
0.0
  0
LINE
  5
309
330
15D
100
AcDbEntity
  8
0
  6
Continuous
 62
     4
100
AcDbLine
 10
533.3187500000001
 20
555.0159317683782
 30
0.0
 11
554.1153182316215
 21
575.8124999999997
 31
0.0
1001
ACAD
1010
0.0
1020
0.0
1030
0.0
  0
LINE
  5
30A
330
15D
100
AcDbEntity
  8
0
  6
Continuous
 62
     4
100
AcDbLine
 10
533.3187500000001
 20
544.4093300505802
 30
0.0
 11
554.0625
 21
565.1530800505802
 31
0.0
1001
ACAD
1010
0.0
1020
0.0
1030
0.0
  0
LINE
  5
30B
330
15D
100
AcDbEntity
  8
0
  6
Continuous
 62
     4
100
AcDbLine
 10
533.3187499999993
 20
533.8027283327818
 30
0.0
 11
554.0625
 21
554.5464783327822
 31
0.0
1001
ACAD
1010
0.0
1020
0.0
1030
0.0
  0
LINE
  5
30C
330
15D
100
AcDbEntity
  8
0
  6
Continuous
 62
     4
100
AcDbLine
 10
533.3187500000001
 20
523.1961266149835
 30
0.0
 11
554.0625
 21
543.9398766149833
 31
0.0
1001
ACAD
1010
0.0
1020
0.0
1030
0.0
  0
LINE
  5
30D
330
15D
100
AcDbEntity
  8
0
  6
Continuous
 62
     4
100
AcDbLine
 10
538.1917251028146
 20
517.4624999999998
 30
0.0
 11
554.0625
 21
533.3332748971855
 31
0.0
1001
ACAD
1010
0.0
1020
0.0
1030
0.0
  0
LINE
  5
30E
330
15D
100
AcDbEntity
  8
0
  6
Continuous
 62
     4
100
AcDbLine
 10
548.798326820613
 20
517.4624999999998
 30
0.0
 11
554.0625
 21
522.7266731793872
 31
0.0
1001
ACAD
1010
0.0
1020
0.0
1030
0.0
  0
LINE
  5
30F
330
15D
100
AcDbEntity
  8
0
  6
Continuous
 62
     4
100
AcDbLine
 10
623.78125
 20
565.6225334861765
 30
0.0
 11
633.9712165138227
 21
575.8124999999997
 31
0.0
1001
ACAD
1010
0.0
1020
0.0
1030
0.0
  0
LINE
  5
310
330
15D
100
AcDbEntity
  8
0
  6
Continuous
 62
     4
100
AcDbLine
 10
623.78125
 20
555.0159317683782
 30
0.0
 11
644.5778182316214
 21
575.8124999999997
 31
0.0
1001
ACAD
1010
0.0
1020
0.0
1030
0.0
  0
LINE
  5
311
330
15D
100
AcDbEntity
  8
0
  6
Continuous
 62
     4
100
AcDbLine
 10
660.2625000000003
 20
591.4971817683785
 30
0.0
 11
665.1090682316216
 21
596.3437499999997
 31
0.0
1001
ACAD
1010
0.0
1020
0.0
1030
0.0
  0
LINE
  5
312
330
15D
100
AcDbEntity
  8
0
  6
Continuous
 62
     4
100
AcDbLine
 10
623.78125
 20
544.4093300505802
 30
0.0
 11
655.1844199494196
 21
575.8124999999997
 31
0.0
1001
ACAD
1010
0.0
1020
0.0
1030
0.0
  0
LINE
  5
313
330
15D
100
AcDbEntity
  8
0
  6
Continuous
 62
     4
100
AcDbLine
 10
660.2625000000003
 20
580.8905800505799
 30
0.0
 11
675.715669949419
 21
596.3437499999997
 31
0.0
1001
ACAD
1010
0.0
1020
0.0
1030
0.0
  0
LINE
  5
314
330
15D
100
AcDbEntity
  8
0
  6
Continuous
 62
     4
100
AcDbLine
 10
623.78125
 20
533.8027283327821
 30
0.0
 11
685.1249999999997
 21
595.1464783327821
 31
0.0
1001
ACAD
1010
0.0
1020
0.0
1030
0.0
  0
LINE
  5
315
330
15D
100
AcDbEntity
  8
0
  6
Continuous
 62
     4
100
AcDbLine
 10
623.78125
 20
523.1961266149839
 30
0.0
 11
685.1249999999997
 21
584.5398766149838
 31
0.0
1001
ACAD
1010
0.0
1020
0.0
1030
0.0
  0
LINE
  5
316
330
15D
100
AcDbEntity
  8
0
  6
Continuous
 62
     4
100
AcDbLine
 10
628.6542251028143
 20
517.4624999999998
 30
0.0
 11
685.1249999999997
 21
573.9332748971857
 31
0.0
1001
ACAD
1010
0.0
1020
0.0
1030
0.0
  0
LINE
  5
317
330
15D
100
AcDbEntity
  8
0
  6
Continuous
 62
     4
100
AcDbLine
 10
635.5687500000001
 20
513.7704231793875
 30
0.0
 11
685.1249999999997
 21
563.3266731793875
 31
0.0
1001
ACAD
1010
0.0
1020
0.0
1030
0.0
  0
LINE
  5
318
330
15D
100
AcDbEntity
  8
0
  6
Continuous
 62
     4
100
AcDbLine
 10
635.5687500000001
 20
503.1638214615891
 30
0.0
 11
685.1249999999997
 21
552.7200714615893
 31
0.0
1001
ACAD
1010
0.0
1020
0.0
1030
0.0
  0
LINE
  5
319
330
15D
100
AcDbEntity
  8
0
  6
Continuous
 62
     4
100
AcDbLine
 10
645.9677802562094
 20
502.9562499999998
 30
0.0
 11
685.1249999999997
 21
542.1134697437905
 31
0.0
1001
ACAD
1010
0.0
1020
0.0
1030
0.0
  0
LINE
  5
31A
330
15D
100
AcDbEntity
  8
0
  6
Continuous
 62
     4
100
AcDbLine
 10
667.4557860101439
 20
513.8376540361361
 30
0.0
 11
685.1249999999997
 21
531.5068680259924
 31
0.0
1001
ACAD
1010
0.0
1020
0.0
1030
0.0
  0
LINE
  5
31B
330
15D
100
AcDbEntity
  8
0
  6
Continuous
 62
     4
100
AcDbLine
 10
670.6195747402842
 20
506.3948410484791
 30
0.0
 11
685.1249999999997
 21
520.9002663081946
 31
0.0
1001
ACAD
1010
0.0
1020
0.0
1030
0.0
  0
LINE
  5
31C
330
15D
100
AcDbEntity
  8
0
  6
Continuous
 62
     4
100
AcDbLine
 10
677.7875854096032
 20
502.9562499999998
 30
0.0
 11
685.1249999999997
 21
510.2936645903963
 31
0.0
1001
ACAD
1010
0.0
1020
0.0
1030
0.0
  0
LINE
  5
31D
330
15D
100
AcDbEntity
  8
0
  6
Continuous
 62
     4
100
AcDbLine
 10
911.03125
 20
586.1537834861767
 30
0.0
 11
921.2212165138227
 21
596.3437499999997
 31
0.0
1001
ACAD
1010
0.0
1020
0.0
1030
0.0
  0
LINE
  5
31E
330
15D
100
AcDbEntity
  8
0
  6
Continuous
 62
     4
100
AcDbLine
 10
911.03125
 20
575.5471817683782
 30
0.0
 11
931.8278182316216
 21
596.3437499999997
 31
0.0
1001
ACAD
1010
0.0
1020
0.0
1030
0.0
  0
LINE
  5
31F
330
15D
100
AcDbEntity
  8
0
  6
Continuous
 62
     4
100
AcDbLine
 10
911.03125
 20
564.9405800505801
 30
0.0
 11
935.6687500000003
 21
589.5780800505804
 31
0.0
1001
ACAD
1010
0.0
1020
0.0
1030
0.0
  0
LINE
  5
320
330
15D
100
AcDbEntity
  8
0
  6
Continuous
 62
     4
100
AcDbLine
 10
911.03125
 20
554.3339783327819
 30
0.0
 11
935.6687500000003
 21
578.9714783327823
 31
0.0
1001
ACAD
1010
0.0
1020
0.0
1030
0.0
  0
LINE
  5
321
330
15D
100
AcDbEntity
  8
0
  6
Continuous
 62
     4
100
AcDbLine
 10
911.03125
 20
543.7273766149835
 30
0.0
 11
943.116373385016
 21
575.8124999999997
 31
0.0
1001
ACAD
1010
0.0
1020
0.0
1030
0.0
  0
LINE
  5
322
330
15D
100
AcDbEntity
  8
0
  6
Continuous
 62
     4
100
AcDbLine
 10
911.03125
 20
533.1207748971849
 30
0.0
 11
953.722975102814
 21
575.8124999999997
 31
0.0
1001
ACAD
1010
0.0
1020
0.0
1030
0.0
  0
LINE
  5
323
330
15D
100
AcDbEntity
  8
0
  6
Continuous
 62
     4
100
AcDbLine
 10
911.03125
 20
522.5141731793871
 30
0.0
 11
964.329576820611
 21
575.8124999999997
 31
0.0
1001
ACAD
1010
0.0
1020
0.0
1030
0.0
  0
LINE
  5
324
330
15D
100
AcDbEntity
  8
0
  6
Continuous
 62
     4
100
AcDbLine
 10
911.03125
 20
511.9075714615886
 30
0.0
 11
972.3812500000001
 21
573.2575714615892
 31
0.0
1001
ACAD
1010
0.0
1020
0.0
1030
0.0
  0
LINE
  5
325
330
15D
100
AcDbEntity
  8
0
  6
Continuous
 62
     4
100
AcDbLine
 10
912.6865302562093
 20
502.9562500000001
 30
0.0
 11
972.3812500000001
 21
562.6509697437906
 31
0.0
1001
ACAD
1010
0.0
1020
0.0
1030
0.0
  0
LINE
  5
326
330
15D
100
AcDbEntity
  8
0
  6
Continuous
 62
     4
100
AcDbLine
 10
923.2931319740073
 20
502.9562499999998
 30
0.0
 11
924.6639620340056
 21
504.327080059998
 31
0.0
1001
ACAD
1010
0.0
1020
0.0
1030
0.0
  0
LINE
  5
327
330
15D
100
AcDbEntity
  8
0
  6
Continuous
 62
     4
100
AcDbLine
 10
939.6408275367056
 20
508.6973438449001
 30
0.0
 11
972.3812500000001
 21
541.4377663081942
 31
0.0
1001
ACAD
1010
0.0
1020
0.0
1030
0.0
  0
LINE
  5
328
330
15D
100
AcDbEntity
  8
0
  6
Continuous
 62
     4
100
AcDbLine
 10
944.506335409603
 20
502.9562499999998
 30
0.0
 11
972.3812500000001
 21
530.8311645903962
 31
0.0
1001
ACAD
1010
0.0
1020
0.0
1030
0.0
  0
LINE
  5
329
330
15D
100
AcDbEntity
  8
0
  6
Continuous
 62
     4
100
AcDbLine
 10
955.112937127401
 20
502.9562499999998
 30
0.0
 11
960.5937499999999
 21
508.4370628725983
 31
0.0
1001
ACAD
1010
0.0
1020
0.0
1030
0.0
  0
LINE
  5
32A
330
15D
100
AcDbEntity
  8
0
  6
Continuous
 62
     4
100
AcDbLine
 10
935.0556319740077
 20
514.71875
 30
0.0
 11
972.3812500000001
 21
552.0443680259926
 31
0.0
1001
ACAD
1010
0.0
1020
0.0
1030
0.0
  0
LINE
  5
32B
330
15D
100
AcDbEntity
  8
0
  6
Continuous
 62
     4
100
AcDbLine
 10
969.6191871274001
 20
517.4624999999998
 30
0.0
 11
972.3812500000001
 21
520.2245628725981
 31
0.0
1001
ACAD
1010
0.0
1020
0.0
1030
0.0
  0
LINE
  5
32C
330
15D
100
AcDbEntity
  8
0
  6
Continuous
 62
     4
100
AcDbLine
 10
1042.099999999998
 20
565.6225334861765
 30
0.0
 11
1052.289966513821
 21
575.8124999999997
 31
0.0
1001
ACAD
1010
0.0
1020
0.0
1030
0.0
  0
LINE
  5
32D
330
15D
100
AcDbEntity
  8
0
  6
Continuous
 62
     4
100
AcDbLine
 10
1042.099999999998
 20
555.0159317683782
 30
0.0
 11
1062.8875
 21
575.8034317683804
 31
0.0
1001
ACAD
1010
0.0
1020
0.0
1030
0.0
  0
LINE
  5
32E
330
15D
100
AcDbEntity
  8
0
  6
Continuous
 62
     4
100
AcDbLine
 10
1042.099999999998
 20
544.4093300505801
 30
0.0
 11
1062.8875
 21
565.1968300505822
 31
0.0
1001
ACAD
1010
0.0
1020
0.0
1030
0.0
  0
LINE
  5
32F
330
15D
100
AcDbEntity
  8
0
  6
Continuous
 62
     4
100
AcDbLine
 10
1042.099999999998
 20
533.8027283327819
 30
0.0
 11
1062.8875
 21
554.5902283327841
 31
0.0
1001
ACAD
1010
0.0
1020
0.0
1030
0.0
  0
LINE
  5
330
330
15D
100
AcDbEntity
  8
0
  6
Continuous
 62
     4
100
AcDbLine
 10
1042.099999999998
 20
523.1961266149839
 30
0.0
 11
1062.8875
 21
543.9836266149856
 31
0.0
1001
ACAD
1010
0.0
1020
0.0
1030
0.0
  0
LINE
  5
331
330
15D
100
AcDbEntity
  8
0
  6
Continuous
 62
     4
100
AcDbLine
 10
1046.972975102812
 20
517.4624999999998
 30
0.0
 11
1062.8875
 21
533.3770248971876
 31
0.0
1001
ACAD
1010
0.0
1020
0.0
1030
0.0
  0
LINE
  5
332
330
15D
100
AcDbEntity
  8
0
  6
Continuous
 62
     4
100
AcDbLine
 10
1057.579576820608
 20
517.4624999999998
 30
0.0
 11
1062.8875
 21
522.7704231793893
 31
0.0
1001
ACAD
1010
0.0
1020
0.0
1030
0.0
  0
LINE
  5
333
330
15D
100
AcDbEntity
  8
0
  6
Continuous
 62
     4
100
AcDbLine
 10
690.1249999999996
 20
813.2412834861762
 30
0.0
 11
712.2437499999997
 21
791.1225334861763
 31
0.0
1001
ACAD
1010
0.0
1020
0.0
1030
0.0
  0
LINE
  5
334
330
15D
100
AcDbEntity
  8
0
  6
Continuous
 62
     4
100
AcDbLine
 10
690.1249999999996
 20
823.8478852039753
 30
0.0
 11
712.2437499999997
 21
801.7291352039748
 31
0.0
1001
ACAD
1010
0.0
1020
0.0
1030
0.0
  0
LINE
  5
335
330
15D
100
AcDbEntity
  8
0
  6
Continuous
 62
     4
100
AcDbLine
 10
695.9982073016679
 20
828.5812796201053
 30
0.0
 11
712.2437499999997
 21
812.3357369217726
 31
0.0
1001
ACAD
1010
0.0
1020
0.0
1030
0.0
  0
LINE
  5
336
330
15D
100
AcDbEntity
  8
0
  6
Continuous
 62
     4
100
AcDbLine
 10
703.474777874994
 20
831.7113107645765
 30
0.0
 11
712.2437499999997
 21
822.9423386395707
 31
0.0
1001
ACAD
1010
0.0
1020
0.0
1030
0.0
  0
LINE
  5
337
330
15D
100
AcDbEntity
  8
0
  6
Continuous
 62
     4
100
AcDbLine
 10
690.1249999999996
 20
802.6346817683783
 30
0.0
 11
712.2437499999997
 21
780.5159317683776
 31
0.0
1001
ACAD
1010
0.0
1020
0.0
1030
0.0
  0
LINE
  5
338
330
15D
100
AcDbEntity
  8
0
  6
Continuous
 62
     4
100
AcDbLine
 10
690.1249999999996
 20
792.0280800505801
 30
0.0
 11
712.2437499999997
 21
769.9093300505796
 31
0.0
1001
ACAD
1010
0.0
1020
0.0
1030
0.0
  0
LINE
  5
339
330
15D
100
AcDbEntity
  8
0
  6
Continuous
 62
     4
100
AcDbLine
 10
690.1249999999996
 20
781.4214783327817
 30
0.0
 11
712.2437499999997
 21
759.3027283327812
 31
0.0
1001
ACAD
1010
0.0
1020
0.0
1030
0.0
  0
LINE
  5
33A
330
15D
100
AcDbEntity
  8
0
  6
Continuous
 62
     4
100
AcDbLine
 10
690.1249999999996
 20
770.8148766149835
 30
0.0
 11
712.2437499999997
 21
748.6961266149827
 31
0.0
1001
ACAD
1010
0.0
1020
0.0
1030
0.0
  0
LINE
  5
33B
330
15D
100
AcDbEntity
  8
0
  6
Continuous
 62
     4
100
AcDbLine
 10
690.1249999999996
 20
760.2082748971852
 30
0.0
 11
712.2437499999997
 21
738.0895248971848
 31
0.0
1001
ACAD
1010
0.0
1020
0.0
1030
0.0
  0
LINE
  5
33C
330
15D
100
AcDbEntity
  8
0
  6
Continuous
 62
     4
100
AcDbLine
 10
690.1249999999996
 20
749.6016731793867
 30
0.0
 11
712.2437499999997
 21
727.4829231793867
 31
0.0
1001
ACAD
1010
0.0
1020
0.0
1030
0.0
  0
LINE
  5
33D
330
15D
100
AcDbEntity
  8
0
  6
Continuous
 62
     4
100
AcDbLine
 10
690.1249999999996
 20
738.9950714615886
 30
0.0
 11
712.2437499999997
 21
716.8763214615879
 31
0.0
1001
ACAD
1010
0.0
1020
0.0
1030
0.0
  0
LINE
  5
33E
330
15D
100
AcDbEntity
  8
0
  6
Continuous
 62
     4
100
AcDbLine
 10
690.1249999999996
 20
728.3884697437903
 30
0.0
 11
712.2437499999997
 21
706.2697197437898
 31
0.0
1001
ACAD
1010
0.0
1020
0.0
1030
0.0
  0
LINE
  5
33F
330
15D
100
AcDbEntity
  8
0
  6
Continuous
 62
     4
100
AcDbLine
 10
690.1249999999996
 20
717.7818680259917
 30
0.0
 11
712.2437499999997
 21
695.6631180259918
 31
0.0
1001
ACAD
1010
0.0
1020
0.0
1030
0.0
  0
LINE
  5
340
330
15D
100
AcDbEntity
  8
0
  6
Continuous
 62
     4
100
AcDbLine
 10
690.1249999999996
 20
707.1752663081938
 30
0.0
 11
712.2437499999997
 21
685.0565163081929
 31
0.0
1001
ACAD
1010
0.0
1020
0.0
1030
0.0
  0
LINE
  5
341
330
15D
100
AcDbEntity
  8
0
  6
Continuous
 62
     4
100
AcDbLine
 10
690.1249999999996
 20
696.5686645903952
 30
0.0
 11
712.2437499999997
 21
674.4499145903947
 31
0.0
1001
ACAD
1010
0.0
1020
0.0
1030
0.0
  0
LINE
  5
342
330
15D
100
AcDbEntity
  8
0
  6
Continuous
 62
     4
100
AcDbLine
 10
690.1249999999996
 20
685.962062872597
 30
0.0
 11
712.2437499999997
 21
663.8433128725969
 31
0.0
1001
ACAD
1010
0.0
1020
0.0
1030
0.0
  0
LINE
  5
343
330
15D
100
AcDbEntity
  8
0
  6
Continuous
 62
     4
100
AcDbLine
 10
690.1249999999996
 20
675.3554611547984
 30
0.0
 11
712.2437499999997
 21
653.2367111547983
 31
0.0
1001
ACAD
1010
0.0
1020
0.0
1030
0.0
  0
LINE
  5
344
330
15D
100
AcDbEntity
  8
0
  6
Continuous
 62
     4
100
AcDbLine
 10
690.1249999999996
 20
664.7488594370005
 30
0.0
 11
712.2437499999997
 21
642.6301094369997
 31
0.0
1001
ACAD
1010
0.0
1020
0.0
1030
0.0
  0
LINE
  5
345
330
15D
100
AcDbEntity
  8
0
  6
Continuous
 62
     4
100
AcDbLine
 10
690.1249999999996
 20
654.1422577192021
 30
0.0
 11
712.2437499999997
 21
632.0235077192021
 31
0.0
1001
ACAD
1010
0.0
1020
0.0
1030
0.0
  0
LINE
  5
346
330
15D
100
AcDbEntity
  8
0
  6
Continuous
 62
     4
100
AcDbLine
 10
690.1249999999996
 20
643.5356560014039
 30
0.0
 11
712.2437499999997
 21
621.4169060014032
 31
0.0
1001
ACAD
1010
0.0
1020
0.0
1030
0.0
  0
LINE
  5
347
330
15D
100
AcDbEntity
  8
0
  6
Continuous
 62
     4
100
AcDbLine
 10
690.1249999999996
 20
632.9290542836056
 30
0.0
 11
712.2437499999997
 21
610.810304283605
 31
0.0
1001
ACAD
1010
0.0
1020
0.0
1030
0.0
  0
LINE
  5
348
330
15D
100
AcDbEntity
  8
0
  6
Continuous
 62
     4
100
AcDbLine
 10
690.1249999999996
 20
622.3224525658072
 30
0.0
 11
712.2437499999997
 21
600.2037025658069
 31
0.0
1001
ACAD
1010
0.0
1020
0.0
1030
0.0
  0
LINE
  5
349
330
15D
100
AcDbEntity
  8
0
  6
Continuous
 62
     4
100
AcDbLine
 10
690.1249999999996
 20
611.715850848009
 30
0.0
 11
712.2437499999997
 21
589.5971008480086
 31
0.0
1001
ACAD
1010
0.0
1020
0.0
1030
0.0
  0
LINE
  5
34A
330
15D
100
AcDbEntity
  8
0
  6
Continuous
 62
     4
100
AcDbLine
 10
690.1249999999996
 20
601.1092491302107
 30
0.0
 11
712.2437499999997
 21
578.9904991302103
 31
0.0
1001
ACAD
1010
0.0
1020
0.0
1030
0.0
  0
LINE
  5
34B
330
15D
100
AcDbEntity
  8
0
  6
Continuous
 62
     4
100
AcDbLine
 10
690.1249999999996
 20
590.5026474124122
 30
0.0
 11
712.2437499999997
 21
568.3838974124122
 31
0.0
1001
ACAD
1010
0.0
1020
0.0
1030
0.0
  0
LINE
  5
34C
330
15D
100
AcDbEntity
  8
0
  6
Continuous
 62
     4
100
AcDbLine
 10
690.1249999999996
 20
579.8960456946141
 30
0.0
 11
712.2437499999997
 21
557.7772956946136
 31
0.0
1001
ACAD
1010
0.0
1020
0.0
1030
0.0
  0
LINE
  5
34D
330
15D
100
AcDbEntity
  8
0
  6
Continuous
 62
     4
100
AcDbLine
 10
690.1249999999996
 20
569.2894439768157
 30
0.0
 11
712.2437499999997
 21
547.1706939768153
 31
0.0
1001
ACAD
1010
0.0
1020
0.0
1030
0.0
  0
LINE
  5
34E
330
15D
100
AcDbEntity
  8
0
  6
Continuous
 62
     4
100
AcDbLine
 10
690.1249999999996
 20
558.6828422590174
 30
0.0
 11
712.2437499999997
 21
536.5640922590173
 31
0.0
1001
ACAD
1010
0.0
1020
0.0
1030
0.0
  0
LINE
  5
34F
330
15D
100
AcDbEntity
  8
0
  6
Continuous
 62
     4
100
AcDbLine
 10
690.1249999999996
 20
548.0762405412191
 30
0.0
 11
712.2437499999997
 21
525.9574905412184
 31
0.0
1001
ACAD
1010
0.0
1020
0.0
1030
0.0
  0
LINE
  5
350
330
15D
100
AcDbEntity
  8
0
  6
Continuous
 62
     4
100
AcDbLine
 10
690.1249999999996
 20
537.4696388234207
 30
0.0
 11
708.6383888234209
 21
518.9562499999998
 31
0.0
1001
ACAD
1010
0.0
1020
0.0
1030
0.0
  0
LINE
  5
351
330
15D
100
AcDbEntity
  8
0
  6
Continuous
 62
     4
100
AcDbLine
 10
690.1249999999996
 20
526.8630371056224
 30
0.0
 11
698.0317871056227
 21
518.9562499999998
 31
0.0
1001
ACAD
1010
0.0
1020
0.0
1030
0.0
  0
LINE
  5
352
330
15D
100
AcDbEntity
  8
0
  6
Continuous
 62
     4
100
AcDbLine
 10
883.9187500000003
 20
803.6850334861767
 30
0.0
 11
906.03125
 21
781.5725334861763
 31
0.0
1001
ACAD
1010
0.0
1020
0.0
1030
0.0
  0
LINE
  5
353
330
15D
100
AcDbEntity
  8
0
  6
Continuous
 62
     4
100
AcDbLine
 10
885.0621563924926
 20
813.1482288114822
 30
0.0
 11
906.03125
 21
792.179135203975
 31
0.0
1001
ACAD
1010
0.0
1020
0.0
1030
0.0
  0
LINE
  5
354
330
15D
100
AcDbEntity
  8
0
  6
Continuous
 62
     4
100
AcDbLine
 10
893.2655323137636
 20
815.5514546080087
 30
0.0
 11
906.03125
 21
802.7857369217731
 31
0.0
1001
ACAD
1010
0.0
1020
0.0
1030
0.0
  0
LINE
  5
357
330
15D
100
AcDbEntity
  8
0
  6
Continuous
 62
     4
100
AcDbLine
 10
883.9187499999997
 20
793.0784317683787
 30
0.0
 11
906.03125
 21
770.9659317683782
 31
0.0
1001
ACAD
1010
0.0
1020
0.0
1030
0.0
  0
LINE
  5
358
330
15D
100
AcDbEntity
  8
0
  6
Continuous
 62
     4
100
AcDbLine
 10
883.9187499999997
 20
782.4718300505802
 30
0.0
 11
906.03125
 21
760.3593300505797
 31
0.0
1001
ACAD
1010
0.0
1020
0.0
1030
0.0
  0
LINE
  5
359
330
15D
100
AcDbEntity
  8
0
  6
Continuous
 62
     4
100
AcDbLine
 10
883.9187499999997
 20
771.8652283327817
 30
0.0
 11
906.03125
 21
749.752728332781
 31
0.0
1001
ACAD
1010
0.0
1020
0.0
1030
0.0
  0
LINE
  5
35A
330
15D
100
AcDbEntity
  8
0
  6
Continuous
 62
     4
100
AcDbLine
 10
883.9187499999997
 20
761.2586266149836
 30
0.0
 11
906.03125
 21
739.1461266149832
 31
0.0
1001
ACAD
1010
0.0
1020
0.0
1030
0.0
  0
LINE
  5
35B
330
15D
100
AcDbEntity
  8
0
  6
Continuous
 62
     4
100
AcDbLine
 10
883.9187499999997
 20
750.6520248971852
 30
0.0
 11
906.03125
 21
728.5395248971846
 31
0.0
1001
ACAD
1010
0.0
1020
0.0
1030
0.0
  0
LINE
  5
35C
330
15D
100
AcDbEntity
  8
0
  6
Continuous
 62
     4
100
AcDbLine
 10
883.9187499999997
 20
740.0454231793869
 30
0.0
 11
906.03125
 21
717.9329231793867
 31
0.0
1001
ACAD
1010
0.0
1020
0.0
1030
0.0
  0
LINE
  5
35D
330
15D
100
AcDbEntity
  8
0
  6
Continuous
 62
     4
100
AcDbLine
 10
883.9187499999997
 20
729.4388214615884
 30
0.0
 11
906.03125
 21
707.3263214615882
 31
0.0
1001
ACAD
1010
0.0
1020
0.0
1030
0.0
  0
LINE
  5
35E
330
15D
100
AcDbEntity
  8
0
  6
Continuous
 62
     4
100
AcDbLine
 10
883.9187499999997
 20
718.8322197437902
 30
0.0
 11
906.03125
 21
696.7197197437898
 31
0.0
1001
ACAD
1010
0.0
1020
0.0
1030
0.0
  0
LINE
  5
35F
330
15D
100
AcDbEntity
  8
0
  6
Continuous
 62
     4
100
AcDbLine
 10
883.9187499999997
 20
708.2256180259921
 30
0.0
 11
906.03125
 21
686.1131180259913
 31
0.0
1001
ACAD
1010
0.0
1020
0.0
1030
0.0
  0
LINE
  5
360
330
15D
100
AcDbEntity
  8
0
  6
Continuous
 62
     4
100
AcDbLine
 10
883.9187499999997
 20
697.6190163081938
 30
0.0
 11
906.03125
 21
675.5065163081932
 31
0.0
1001
ACAD
1010
0.0
1020
0.0
1030
0.0
  0
LINE
  5
361
330
15D
100
AcDbEntity
  8
0
  6
Continuous
 62
     4
100
AcDbLine
 10
883.9187499999997
 20
687.0124145903952
 30
0.0
 11
906.03125
 21
664.8999145903943
 31
0.0
1001
ACAD
1010
0.0
1020
0.0
1030
0.0
  0
LINE
  5
362
330
15D
100
AcDbEntity
  8
0
  6
Continuous
 62
     4
100
AcDbLine
 10
883.9187499999997
 20
676.4058128725969
 30
0.0
 11
906.03125
 21
654.2933128725967
 31
0.0
1001
ACAD
1010
0.0
1020
0.0
1030
0.0
  0
LINE
  5
363
330
15D
100
AcDbEntity
  8
0
  6
Continuous
 62
     4
100
AcDbLine
 10
883.9187499999997
 20
665.7992111547984
 30
0.0
 11
906.03125
 21
643.6867111547977
 31
0.0
1001
ACAD
1010
0.0
1020
0.0
1030
0.0
  0
LINE
  5
364
330
15D
100
AcDbEntity
  8
0
  6
Continuous
 62
     4
100
AcDbLine
 10
883.9187499999997
 20
655.1926094369997
 30
0.0
 11
906.03125
 21
633.0801094369999
 31
0.0
1001
ACAD
1010
0.0
1020
0.0
1030
0.0
  0
LINE
  5
365
330
15D
100
AcDbEntity
  8
0
  6
Continuous
 62
     4
100
AcDbLine
 10
883.9187499999997
 20
644.5860077192016
 30
0.0
 11
906.03125
 21
622.4735077192009
 31
0.0
1001
ACAD
1010
0.0
1020
0.0
1030
0.0
  0
LINE
  5
366
330
15D
100
AcDbEntity
  8
0
  6
Continuous
 62
     4
100
AcDbLine
 10
883.9187499999997
 20
633.9794060014034
 30
0.0
 11
906.03125
 21
611.8669060014028
 31
0.0
1001
ACAD
1010
0.0
1020
0.0
1030
0.0
  0
LINE
  5
367
330
15D
100
AcDbEntity
  8
0
  6
Continuous
 62
     4
100
AcDbLine
 10
883.9187499999997
 20
623.3728042836053
 30
0.0
 11
906.03125
 21
601.2603042836042
 31
0.0
1001
ACAD
1010
0.0
1020
0.0
1030
0.0
  0
LINE
  5
368
330
15D
100
AcDbEntity
  8
0
  6
Continuous
 62
     4
100
AcDbLine
 10
883.9187499999997
 20
612.7662025658069
 30
0.0
 11
906.03125
 21
590.6537025658066
 31
0.0
1001
ACAD
1010
0.0
1020
0.0
1030
0.0
  0
LINE
  5
369
330
15D
100
AcDbEntity
  8
0
  6
Continuous
 62
     4
100
AcDbLine
 10
883.9187499999997
 20
602.1596008480083
 30
0.0
 11
906.03125
 21
580.0471008480077
 31
0.0
1001
ACAD
1010
0.0
1020
0.0
1030
0.0
  0
LINE
  5
36A
330
15D
100
AcDbEntity
  8
0
  6
Continuous
 62
     4
100
AcDbLine
 10
883.9187499999997
 20
591.5529991302102
 30
0.0
 11
906.03125
 21
569.4404991302097
 31
0.0
1001
ACAD
1010
0.0
1020
0.0
1030
0.0
  0
LINE
  5
36B
330
15D
100
AcDbEntity
  8
0
  6
Continuous
 62
     4
100
AcDbLine
 10
883.9187499999997
 20
580.946397412412
 30
0.0
 11
906.03125
 21
558.8338974124111
 31
0.0
1001
ACAD
1010
0.0
1020
0.0
1030
0.0
  0
LINE
  5
36C
330
15D
100
AcDbEntity
  8
0
  6
Continuous
 62
     4
100
AcDbLine
 10
883.9187499999997
 20
570.3397956946137
 30
0.0
 11
906.03125
 21
548.2272956946131
 31
0.0
1001
ACAD
1010
0.0
1020
0.0
1030
0.0
  0
LINE
  5
36D
330
15D
100
AcDbEntity
  8
0
  6
Continuous
 62
     4
100
AcDbLine
 10
883.9187499999997
 20
559.733193976815
 30
0.0
 11
906.03125
 21
537.6206939768143
 31
0.0
1001
ACAD
1010
0.0
1020
0.0
1030
0.0
  0
LINE
  5
36E
330
15D
100
AcDbEntity
  8
0
  6
Continuous
 62
     4
100
AcDbLine
 10
883.9187499999997
 20
549.1265922590168
 30
0.0
 11
906.03125
 21
527.0140922590163
 31
0.0
1001
ACAD
1010
0.0
1020
0.0
1030
0.0
  0
LINE
  5
36F
330
15D
100
AcDbEntity
  8
0
  6
Continuous
 62
     4
100
AcDbLine
 10
883.9187499999997
 20
538.5199905412181
 30
0.0
 11
903.4824905412179
 21
518.9562499999998
 31
0.0
1001
ACAD
1010
0.0
1020
0.0
1030
0.0
  0
LINE
  5
370
330
15D
100
AcDbEntity
  8
0
  6
Continuous
 62
     4
100
AcDbLine
 10
883.9187499999997
 20
527.9133888234198
 30
0.0
 11
892.8758888234197
 21
518.9562499999998
 31
0.0
1001
ACAD
1010
0.0
1020
0.0
1030
0.0
  0
LINE
  5
388
330
15D
100
AcDbEntity
  8
1
  6
Continuous
 62
     7
100
AcDbLine
 10
935.6687500000003
 20
596.3437499999997
 30
0.0
 11
935.6687500000003
 21
575.8124999999997
 31
0.0
  0
LINE
  5
389
330
15D
100
AcDbEntity
  8
1
  6
Continuous
 62
     7
100
AcDbLine
 10
660.2625000000003
 20
596.3437499999997
 30
0.0
 11
685.1249999999997
 21
596.3437499999997
 31
0.0
  0
LINE
  5
38A
330
15D
100
AcDbEntity
  8
1
  6
Continuous
 62
     7
100
AcDbLine
 10
911.03125
 20
596.3437499999997
 30
0.0
 11
935.6687500000003
 21
596.3437499999997
 31
0.0
  0
LINE
  5
38B
330
15D
100
AcDbEntity
  8
1
  6
Continuous
 62
     3
100
AcDbLine
 10
660.2625000000003
 20
600.84375
 30
0.0
 11
660.2625000000003
 21
964.4937499999999
 31
0.0
  0
LINE
  5
38C
330
15D
100
AcDbEntity
  8
1
  6
Continuous
 62
     3
100
AcDbLine
 10
936.03125
 20
604.3374999999997
 30
0.0
 11
936.03125
 21
966.2374999999999
 31
0.0
  0
LINE
  5
38D
330
15D
100
AcDbEntity
  8
1
  6
Continuous
 62
     3
100
AcDbLine
 10
660.2312500000002
 20
949.0624999999999
 30
0.0
 11
683.9437500000001
 21
942.5062500000001
 31
0.0
  0
LINE
  5
38E
330
15D
100
AcDbEntity
  8
1
  6
Continuous
 62
     3
100
AcDbLine
 10
660.2312500000002
 20
949.0624999999999
 30
0.0
 11
683.9437500000001
 21
955.61875
 31
0.0
  0
LINE
  5
38F
330
15D
100
AcDbEntity
  8
1
  6
Continuous
 62
     3
100
AcDbLine
 10
683.9437500000001
 20
955.61875
 30
0.0
 11
683.9437500000001
 21
942.5062500000001
 31
0.0
  0
LINE
  5
390
330
15D
100
AcDbEntity
  8
1
  6
Continuous
 62
     3
100
AcDbLine
 10
683.9437500000001
 20
949.0711402872957
 30
0.0
 11
912.3812500000003
 21
949.0711402872959
 31
0.0
  0
LINE
  5
391
330
15D
100
AcDbEntity
  8
1
  6
Continuous
 62
     3
100
AcDbLine
 10
936.09375
 20
949.0624999999999
 30
0.0
 11
912.3812500000003
 21
942.5062500000001
 31
0.0
  0
LINE
  5
392
330
15D
100
AcDbEntity
  8
1
  6
Continuous
 62
     3
100
AcDbLine
 10
936.09375
 20
949.0624999999999
 30
0.0
 11
912.3812500000003
 21
955.61875
 31
0.0
  0
LINE
  5
393
330
15D
100
AcDbEntity
  8
1
  6
Continuous
 62
     3
100
AcDbLine
 10
912.3812500000003
 20
955.61875
 30
0.0
 11
912.3812500000003
 21
942.5062500000001
 31
0.0
  0
LINE
  5
395
330
15D
100
AcDbEntity
  8
1
  6
Continuous
 62
     3
100
AcDbLine
 10
686.7499999999997
 20
847.8812500000001
 30
0.0
 11
686.7499999999997
 21
600.3781257123742
 31
0.0
  0
LINE
  5
396
330
15D
100
AcDbEntity
  8
1
  6
Continuous
 62
     3
100
AcDbLine
 10
909.4125000000003
 20
845.0
 30
0.0
 11
909.4125000000003
 21
603.4635925962581
 31
0.0
  0
LINE
  5
397
330
15D
100
AcDbEntity
  8
1
  6
Continuous
 62
     7
100
AcDbLine
 10
957.6249999999999
 20
575.8124999999997
 30
0.0
 11
935.6687500000003
 21
575.8124999999997
 31
0.0
  0
LINE
  5
398
330
15D
100
AcDbEntity
  8
1
  6
Continuous
 62
     7
100
AcDbLine
 10
685.1249999999997
 20
596.3437499999997
 30
0.0
 11
685.1249999999997
 21
502.6437499999998
 31
0.0
  0
LINE
  5
399
330
15D
100
AcDbEntity
  8
1
  6
Continuous
 62
     7
100
AcDbLine
 10
911.03125
 20
596.3437499999997
 30
0.0
 11
911.03125
 21
502.6437499999998
 31
0.0
  0
LINE
  5
3C7
330
15D
100
AcDbEntity
  8
-1
  6
Continuous
 62
     7
100
AcDbLine
 10
533.3187500000001
 20
575.8124999999997
 30
0.0
 11
533.3187500000001
 21
517.4624999999998
 31
0.0
  0
LINE
  5
3C8
330
15D
100
AcDbEntity
  8
-1
  6
Continuous
 62
     7
100
AcDbLine
 10
1062.8875
 20
575.8124999999997
 30
0.0
 11
1062.8875
 21
517.4624999999998
 31
0.0
  0
LINE
  5
3C9
330
15D
100
AcDbEntity
  8
-1
  6
Continuous
 62
     7
100
AcDbLine
 10
957.6249999999999
 20
575.8124999999997
 30
0.0
 11
1062.8875
 21
575.8124999999997
 31
0.0
  0
LINE
  5
3CA
330
15D
100
AcDbEntity
  8
-1
  6
Continuous
 62
     7
100
AcDbLine
 10
635.5687500000001
 20
517.4624999999998
 30
0.0
 11
635.5687500000001
 21
502.9562499999998
 31
0.0
  0
LINE
  5
3CB
330
15D
100
AcDbEntity
  8
-1
  6
Continuous
 62
     7
100
AcDbLine
 10
960.5937499999999
 20
517.4624999999998
 30
0.0
 11
960.5937499999999
 21
502.9562499999998
 31
0.0
  0
LINE
  5
3CC
330
15D
100
AcDbEntity
  8
-1
  6
Continuous
 62
     7
100
AcDbLine
 10
533.3187500000001
 20
517.4624999999998
 30
0.0
 11
635.5687500000001
 21
517.4624999999998
 31
0.0
  0
LINE
  5
3CD
330
15D
100
AcDbEntity
  8
-1
  6
Continuous
 62
     7
100
AcDbLine
 10
960.5937499999999
 20
517.4624999999998
 30
0.0
 11
1062.8875
 21
517.4624999999998
 31
0.0
  0
LINE
  5
3CE
330
15D
100
AcDbEntity
  8
-1
  6
Continuous
 62
     7
100
AcDbLine
 10
554.0625
 20
575.8124999999997
 30
0.0
 11
554.0625
 21
517.4624999999998
 31
0.0
  0
LINE
  5
3CF
330
15D
100
AcDbEntity
  8
-1
  6
Continuous
 62
     7
100
AcDbLine
 10
623.78125
 20
575.8124999999997
 30
0.0
 11
623.78125
 21
517.4624999999998
 31
0.0
  0
LINE
  5
3D0
330
15D
100
AcDbEntity
  8
-1
  6
Continuous
 62
     7
100
AcDbLine
 10
972.3812500000001
 20
575.8124999999997
 30
0.0
 11
972.3812500000001
 21
517.4624999999998
 31
0.0
  0
LINE
  5
3D1
330
15D
100
AcDbEntity
  8
-1
  6
Continuous
 62
     7
100
AcDbLine
 10
1042.099999999998
 20
575.8124999999997
 30
0.0
 11
1042.099999999998
 21
517.4624999999998
 31
0.0
  0
LINE
  5
3D3
330
15D
100
AcDbEntity
  8
-1
  6
Continuous
 62
     3
100
AcDbLine
 10
525.0187499999992
 20
517.4624999999998
 30
0.0
 11
390.54375
 21
517.4624999999998
 31
0.0
  0
LINE
  5
3D4
330
15D
100
AcDbEntity
  8
-1
  6
Continuous
 62
     3
100
AcDbLine
 10
627.2687500000004
 20
502.9562499999998
 30
0.0
 11
390.54375
 21
502.9562499999998
 31
0.0
  0
LINE
  5
3D8
330
15D
100
AcDbEntity
  8
-1
  6
Continuous
 62
     3
100
AcDbLine
 10
533.3187500000001
 20
509.1625
 30
0.0
 11
533.3187500000001
 21
269.13125
 31
0.0
  0
LINE
  5
3D9
330
15D
100
AcDbEntity
  8
-1
  6
Continuous
 62
     3
100
AcDbLine
 10
588.9187500000002
 20
483.5437499999998
 30
0.0
 11
588.9187500000002
 21
320.51875
 31
0.0
  0
LINE
  5
3DA
330
15D
100
AcDbEntity
  8
-1
  6
Continuous
 62
     3
100
AcDbLine
 10
635.5687500000001
 20
494.6562499999997
 30
0.0
 11
635.5687500000001
 21
373.2749999999998
 31
0.0
  0
LINE
  5
3DB
330
15D
100
AcDbEntity
  8
-1
  6
Continuous
 62
     3
100
AcDbLine
 10
960.5937499999999
 20
494.6562499999997
 30
0.0
 11
960.5937499999999
 21
373.2749999999998
 31
0.0
  0
LINE
  5
3DC
330
15D
100
AcDbEntity
  8
-1
  6
Continuous
 62
     3
100
AcDbLine
 10
1007.243749999999
 20
493.5243185109442
 30
0.0
 11
1007.243749999999
 21
320.51875
 31
0.0
  0
LINE
  5
3DD
330
15D
100
AcDbEntity
  8
-1
  6
Continuous
 62
     3
100
AcDbLine
 10
1062.8875
 20
509.1625
 30
0.0
 11
1062.8875
 21
269.13125
 31
0.0
  0
LINE
  5
3DE
330
15D
100
AcDbEntity
  8
-1
  6
Continuous
 62
     7
100
AcDbLine
 10
672.0812500000004
 20
502.9562499999998
 30
0.0
 11
667.0812500000002
 21
514.71875
 31
0.0
  0
LINE
  5
3DF
330
15D
100
AcDbEntity
  8
-1
  6
Continuous
 62
     7
100
AcDbLine
 10
654.0812500000002
 20
502.9562499999998
 30
0.0
 11
659.0812500000001
 21
514.71875
 31
0.0
  0
LINE
  5
3E0
330
15D
100
AcDbEntity
  8
-1
  6
Continuous
 62
     7
100
AcDbLine
 10
659.0812500000001
 20
514.71875
 30
0.0
 11
667.0812500000002
 21
514.71875
 31
0.0
  0
LINE
  5
3E1
330
15D
100
AcDbEntity
  8
-1
  6
Continuous
 62
     7
100
AcDbLine
 10
635.5687500000001
 20
502.9562499999998
 30
0.0
 11
654.0812500000002
 21
502.9562499999998
 31
0.0
  0
LINE
  5
3E2
330
15D
100
AcDbEntity
  8
-1
  6
Continuous
 62
     7
100
AcDbLine
 10
924.08125
 20
502.9562499999998
 30
0.0
 11
929.0812500000003
 21
514.71875
 31
0.0
  0
LINE
  5
3E3
330
15D
100
AcDbEntity
  8
-1
  6
Continuous
 62
     7
100
AcDbLine
 10
942.08125
 20
502.9562499999998
 30
0.0
 11
937.0812500000003
 21
514.71875
 31
0.0
  0
LINE
  5
3E4
330
15D
100
AcDbEntity
  8
-1
  6
Continuous
 62
     7
100
AcDbLine
 10
937.0812500000003
 20
514.71875
 30
0.0
 11
929.0812500000003
 21
514.71875
 31
0.0
  0
LINE
  5
3E5
330
15D
100
AcDbEntity
  8
-1
  6
Continuous
 62
     7
100
AcDbLine
 10
672.0812500000004
 20
502.9562499999998
 30
0.0
 11
924.08125
 21
502.9562499999998
 31
0.0
  0
LINE
  5
3E6
330
15D
100
AcDbEntity
  8
-1
  6
Continuous
 62
     7
100
AcDbLine
 10
942.08125
 20
502.9562499999998
 30
0.0
 11
960.5937499999999
 21
502.9562499999998
 31
0.0
  0
LINE
  5
3E7
330
15D
100
AcDbEntity
  8
-1
  6
Continuous
 62
     3
100
AcDbLine
 10
663.0812500000001
 20
506.71875
 30
0.0
 11
663.0812500000001
 21
426.5749999999998
 31
0.0
  0
LINE
  5
3E8
330
15D
100
AcDbEntity
  8
-1
  6
Continuous
 62
     3
100
AcDbLine
 10
933.08125
 20
506.71875
 30
0.0
 11
933.08125
 21
426.5749999999998
 31
0.0
  0
LINE
  5
3E9
330
15D
100
AcDbEntity
  8
-1
  6
Continuous
 62
     3
100
AcDbLine
 10
663.0812500000001
 20
434.5749999999998
 30
0.0
 11
686.7937500000002
 21
428.0187499999998
 31
0.0
  0
LINE
  5
3EA
330
15D
100
AcDbEntity
  8
-1
  6
Continuous
 62
     3
100
AcDbLine
 10
686.7937500000002
 20
428.0187499999998
 30
0.0
 11
686.7937500000002
 21
441.13125
 31
0.0
  0
LINE
  5
3EB
330
15D
100
AcDbEntity
  8
-1
  6
Continuous
 62
     3
100
AcDbLine
 10
635.5687500000001
 20
381.5749999999998
 30
0.0
 11
659.2812499999999
 21
388.13125
 31
0.0
  0
LINE
  5
3EC
330
15D
100
AcDbEntity
  8
-1
  6
Continuous
 62
     3
100
AcDbLine
 10
635.5687500000001
 20
381.5749999999998
 30
0.0
 11
659.2812499999999
 21
375.01875
 31
0.0
  0
LINE
  5
3ED
330
15D
100
AcDbEntity
  8
-1
  6
Continuous
 62
     3
100
AcDbLine
 10
659.2812499999999
 20
375.01875
 30
0.0
 11
659.2812499999999
 21
388.13125
 31
0.0
  0
LINE
  5
3EE
330
15D
100
AcDbEntity
  8
-1
  6
Continuous
 62
     3
100
AcDbLine
 10
588.9187500000002
 20
328.81875
 30
0.0
 11
612.6312500000002
 21
335.3749999999998
 31
0.0
  0
LINE
  5
3EF
330
15D
100
AcDbEntity
  8
-1
  6
Continuous
 62
     3
100
AcDbLine
 10
588.9187500000002
 20
328.81875
 30
0.0
 11
612.6312500000002
 21
322.2624999999998
 31
0.0
  0
LINE
  5
3F0
330
15D
100
AcDbEntity
  8
-1
  6
Continuous
 62
     3
100
AcDbLine
 10
612.6312500000002
 20
322.2624999999998
 30
0.0
 11
612.6312500000002
 21
335.3749999999998
 31
0.0
  0
LINE
  5
3F1
330
15D
100
AcDbEntity
  8
-1
  6
Continuous
 62
     3
100
AcDbLine
 10
533.3187500000001
 20
277.4312499999999
 30
0.0
 11
557.03125
 21
283.9875
 31
0.0
  0
LINE
  5
3F2
330
15D
100
AcDbEntity
  8
-1
  6
Continuous
 62
     3
100
AcDbLine
 10
533.3187500000001
 20
276.4312499999999
 30
0.0
 11
557.03125
 21
269.8749999999999
 31
0.0
  0
LINE
  5
3F3
330
15D
100
AcDbEntity
  8
-1
  6
Continuous
 62
     3
100
AcDbLine
 10
557.03125
 20
270.8749999999999
 30
0.0
 11
557.03125
 21
283.9875
 31
0.0
  0
LINE
  5
3F4
330
15D
100
AcDbEntity
  8
-1
  6
Continuous
 62
     3
100
AcDbLine
 10
933.08125
 20
434.5749999999998
 30
0.0
 11
909.3687499999999
 21
428.0187499999998
 31
0.0
  0
LINE
  5
3F5
330
15D
100
AcDbEntity
  8
-1
  6
Continuous
 62
     3
100
AcDbLine
 10
933.08125
 20
434.5749999999998
 30
0.0
 11
909.3687499999999
 21
441.13125
 31
0.0
  0
LINE
  5
3F6
330
15D
100
AcDbEntity
  8
-1
  6
Continuous
 62
     3
100
AcDbLine
 10
909.3687499999999
 20
441.13125
 30
0.0
 11
909.3687499999999
 21
428.0187499999998
 31
0.0
  0
LINE
  5
3F7
330
15D
100
AcDbEntity
  8
-1
  6
Continuous
 62
     3
100
AcDbLine
 10
960.5937499999999
 20
381.5749999999998
 30
0.0
 11
936.8812500000002
 21
375.01875
 31
0.0
  0
LINE
  5
3F8
330
15D
100
AcDbEntity
  8
-1
  6
Continuous
 62
     3
100
AcDbLine
 10
960.5937499999999
 20
381.5749999999998
 30
0.0
 11
936.8812500000002
 21
388.13125
 31
0.0
  0
LINE
  5
3F9
330
15D
100
AcDbEntity
  8
-1
  6
Continuous
 62
     3
100
AcDbLine
 10
936.8812500000002
 20
388.13125
 30
0.0
 11
936.8812500000002
 21
375.01875
 31
0.0
  0
LINE
  5
3FA
330
15D
100
AcDbEntity
  8
-1
  6
Continuous
 62
     3
100
AcDbLine
 10
1007.243749999999
 20
328.81875
 30
0.0
 11
983.53125
 21
322.2624999999998
 31
0.0
  0
LINE
  5
3FB
330
15D
100
AcDbEntity
  8
-1
  6
Continuous
 62
     3
100
AcDbLine
 10
1007.243749999999
 20
328.81875
 30
0.0
 11
983.53125
 21
335.3749999999998
 31
0.0
  0
LINE
  5
3FC
330
15D
100
AcDbEntity
  8
-1
  6
Continuous
 62
     3
100
AcDbLine
 10
983.53125
 20
335.3749999999998
 30
0.0
 11
983.53125
 21
322.2624999999998
 31
0.0
  0
LINE
  5
3FD
330
15D
100
AcDbEntity
  8
-1
  6
Continuous
 62
     3
100
AcDbLine
 10
1062.8875
 20
277.4312499999999
 30
0.0
 11
1039.174999999999
 21
270.8749999999999
 31
0.0
  0
LINE
  5
3FE
330
15D
100
AcDbEntity
  8
-1
  6
Continuous
 62
     3
100
AcDbLine
 10
1062.8875
 20
277.4312499999999
 30
0.0
 11
1039.174999999999
 21
283.9875
 31
0.0
  0
LINE
  5
3FF
330
15D
100
AcDbEntity
  8
-1
  6
Continuous
 62
     3
100
AcDbLine
 10
1039.174999999999
 20
283.9875
 30
0.0
 11
1039.174999999999
 21
270.8749999999999
 31
0.0
  0
LINE
  5
412
330
15D
100
AcDbEntity
  8
-1
  6
Continuous
 62
     7
100
AcDbLine
 10
533.3187500000001
 20
575.8124999999997
 30
0.0
 11
660.2625000000003
 21
575.8124999999997
 31
0.0
  0
LINE
  5
413
330
15D
100
AcDbEntity
  8
-1
  6
Continuous
 62
     5
100
AcDbLine
 10
798.1125000000003
 20
297.4312499999998
 30
0.0
 11
801.1125000000001
 21
297.4312499999998
 31
0.0
  0
LINE
  5
414
330
15D
100
AcDbEntity
  8
-1
  6
Continuous
 62
     5
100
AcDbLine
 10
798.0875
 20
348.81875
 30
0.0
 11
817.0875000000004
 21
348.81875
 31
0.0
  0
LINE
  5
415
330
15D
100
AcDbEntity
  8
-1
  6
Continuous
 62
     5
100
AcDbLine
 10
798.0750000000003
 20
401.5749999999998
 30
0.0
 11
811.0750000000003
 21
401.5749999999998
 31
0.0
  0
LINE
  5
416
330
15D
100
AcDbEntity
  8
-1
  6
Continuous
 62
     5
100
AcDbLine
 10
797.0
 20
458.0
 30
0.0
 11
833.0
 21
458.0
 31
0.0
  0
LINE
  5
41C
330
15D
100
AcDbEntity
  8
-1
  6
Continuous
 62
     3
100
AcDbLine
 10
663.0812500000001
 20
434.5749999999998
 30
0.0
 11
686.7937500000002
 21
441.13125
 31
0.0
  0
LINE
  5
41D
330
15D
100
AcDbEntity
  8
-1
  6
Continuous
 62
     3
100
AcDbLine
 10
686.7937500000002
 20
434.5749999999998
 30
0.0
 11
909.3687499999999
 21
434.5749999999998
 31
0.0
  0
LINE
  5
41E
330
15D
100
AcDbEntity
  8
-1
  6
Continuous
 62
     3
100
AcDbLine
 10
659.2812499999999
 20
381.5749999999998
 30
0.0
 11
936.8812500000002
 21
381.5749999999998
 31
0.0
  0
LINE
  5
41F
330
15D
100
AcDbEntity
  8
-1
  6
Continuous
 62
     3
100
AcDbLine
 10
612.6312500000002
 20
328.81875
 30
0.0
 11
983.53125
 21
328.81875
 31
0.0
  0
LINE
  5
420
330
15D
100
AcDbEntity
  8
-1
  6
Continuous
 62
     3
100
AcDbLine
 10
557.03125
 20
277.4312499999999
 30
0.0
 11
1039.174999999999
 21
277.4312499999999
 31
0.0
  0
LINE
  5
422
330
15D
100
AcDbEntity
  8
-1
  6
Continuous
 62
     3
100
AcDbLine
 10
909.4125000000003
 20
845.0
 30
0.0
 11
909.4125000000003
 21
906.29375
 31
0.0
  0
LINE
  5
423
330
15D
100
AcDbEntity
  8
-1
  6
Continuous
 62
     3
100
AcDbLine
 10
909.4125000000003
 20
895.625
 30
0.0
 11
885.7000000000002
 21
889.0687499999996
 31
0.0
  0
LINE
  5
424
330
15D
100
AcDbEntity
  8
-1
  6
Continuous
 62
     3
100
AcDbLine
 10
909.4125000000003
 20
895.625
 30
0.0
 11
885.7000000000002
 21
902.1812499999999
 31
0.0
  0
LINE
  5
425
330
15D
100
AcDbEntity
  8
-1
  6
Continuous
 62
     3
100
AcDbLine
 10
885.7000000000002
 20
902.1812499999999
 30
0.0
 11
885.7000000000002
 21
889.0687499999996
 31
0.0
  0
LINE
  5
426
330
15D
100
AcDbEntity
  8
-1
  6
Continuous
 62
     3
100
AcDbLine
 10
686.7499999999997
 20
895.625
 30
0.0
 11
710.4624999999997
 21
889.0687499999996
 31
0.0
  0
LINE
  5
427
330
15D
100
AcDbEntity
  8
-1
  6
Continuous
 62
     3
100
AcDbLine
 10
686.7499999999997
 20
895.625
 30
0.0
 11
710.4624999999997
 21
902.1812499999999
 31
0.0
  0
LINE
  5
428
330
15D
100
AcDbEntity
  8
-1
  6
Continuous
 62
     3
100
AcDbLine
 10
710.4624999999997
 20
902.1812499999999
 30
0.0
 11
710.4624999999997
 21
889.0687499999996
 31
0.0
  0
LINE
  5
429
330
15D
100
AcDbEntity
  8
-1
  6
Continuous
 62
     3
100
AcDbLine
 10
686.7499999999997
 20
847.8812500000001
 30
0.0
 11
686.7499999999997
 21
908.96875
 31
0.0
  0
LINE
  5
42A
330
15D
100
AcDbEntity
  8
-1
  6
Continuous
 62
     5
100
AcDbLine
 10
798.0812500000003
 20
915.625
 30
0.0
 11
808.0812500000003
 21
915.625
 31
0.0
  0
LINE
  5
42B
330
15D
100
AcDbEntity
  8
-1
  6
Continuous
 62
     5
100
AcDbLine
 10
797.8937500000003
 20
969.13125
 30
0.0
 11
802.8937500000003
 21
969.13125
 31
0.0
  0
LINE
  5
42D
330
15D
100
AcDbEntity
  8
-1
  6
Continuous
 62
     3
100
AcDbLine
 10
710.4624999999997
 20
895.625
 30
0.0
 11
885.7000000000002
 21
895.625
 31
0.0
  0
LINE
  5
42E
330
15D
100
AcDbEntity
  8
-1
  6
Continuous
 62
     3
100
AcDbLine
 10
1072.296197077976
 20
517.3875335615917
 30
0.0
 11
1328.626234215437
 21
517.3875335615917
 31
0.0
  0
LINE
  5
433
330
15D
100
AcDbEntity
  8
1
  6
Continuous
 62
     3
100
AcDbLine
 10
1318.463734215435
 20
517.3875335615917
 30
0.0
 11
1325.019984215438
 21
493.675033561592
 31
0.0
  0
LINE
  5
434
330
15D
100
AcDbEntity
  8
1
  6
Continuous
 62
     3
100
AcDbLine
 10
1318.463734215435
 20
517.3875335615917
 30
0.0
 11
1311.907484215437
 21
493.675033561592
 31
0.0
  0
LINE
  5
435
330
15D
100
AcDbEntity
  8
1
  6
Continuous
 62
     3
100
AcDbLine
 10
1311.907484215437
 20
493.675033561592
 30
0.0
 11
1325.019984215438
 21
493.675033561592
 31
0.0
  0
LINE
  5
436
330
15D
100
AcDbEntity
  8
1
  6
Continuous
 62
     3
100
AcDbLine
 10
1318.463734215435
 20
493.675033561592
 30
0.0
 11
1318.463734215435
 21
471.7294435810836
 31
0.0
  0
LINE
  5
437
330
15D
100
AcDbEntity
  8
1
  6
Continuous
 62
     3
100
AcDbLine
 10
943.967790336786
 20
596.268783561592
 30
0.0
 11
1179.582664426729
 21
596.268783561592
 31
0.0
  0
LINE
  5
438
330
15D
100
AcDbEntity
  8
1
  6
Continuous
 62
     3
100
AcDbLine
 10
1206.910349803129
 20
596.268783561592
 30
0.0
 11
1328.626234215437
 21
596.268783561592
 31
0.0
  0
LINE
  5
439
330
15D
100
AcDbEntity
  8
-1
  6
Continuous
 62
     3
100
AcDbLine
 10
1072.296197077976
 20
575.737533561592
 30
0.0
 11
1204.886075646291
 21
575.737533561592
 31
0.0
  0
LINE
  5
43F
330
15D
100
AcDbEntity
  8
1
  6
Continuous
 62
     3
100
AcDbLine
 10
1318.463734215435
 20
596.268783561592
 30
0.0
 11
1325.019984215438
 21
619.9812835615919
 31
0.0
  0
LINE
  5
440
330
15D
100
AcDbEntity
  8
1
  6
Continuous
 62
     3
100
AcDbLine
 10
1318.463734215435
 20
596.268783561592
 30
0.0
 11
1311.907484215437
 21
619.9812835615919
 31
0.0
  0
LINE
  5
441
330
15D
100
AcDbEntity
  8
-1
  6
Continuous
 62
     5
100
AcDbLine
 10
1318.463734215437
 20
556.828158561592
 30
0.0
 11
1325.463734215436
 21
556.828158561592
 31
0.0
  0
LINE
  5
442
330
15D
100
AcDbEntity
  8
1
  6
Continuous
 62
     3
100
AcDbLine
 10
1325.019984215438
 20
619.9812835615919
 30
0.0
 11
1311.907484215437
 21
619.9812835615919
 31
0.0
  0
LINE
  5
443
330
15D
100
AcDbEntity
  8
1
  6
Continuous
 62
     3
100
AcDbLine
 10
1318.463734215435
 20
643.6689881209265
 30
0.0
 11
1318.463734215435
 21
619.9812835615919
 31
0.0
  0
LINE
  5
444
330
15D
100
AcDbEntity
  8
-1
  6
Continuous
 62
     7
100
AcDbLine
 10
660.2625000000003
 20
596.3437499999997
 30
0.0
 11
660.2625000000003
 21
575.8124999999997
 31
0.0
  0
LINE
  5
4D2
330
15D
100
AcDbEntity
  8
1
  6
Continuous
 62
     4
100
AcDbLine
 10
690.1249999999996
 20
825.8732974821905
 30
0.0
 11
701.6658013035968
 21
831.1944588480573
 31
0.0
  0
LINE
  5
4D3
330
15D
100
AcDbEntity
  8
1
  6
Continuous
 62
     4
100
AcDbLine
 10
701.6658013035968
 20
831.1944588480573
 30
0.0
 11
716.9057618561106
 21
835.5487456551914
 31
0.0
  0
LINE
  5
4D4
330
15D
100
AcDbEntity
  8
1
  6
Continuous
 62
     4
100
AcDbLine
 10
716.9057618561106
 20
835.5487456551914
 30
0.0
 11
732.8734339620309
 21
837.7653609057276
 31
0.0
  0
LINE
  5
4D5
330
15D
100
AcDbEntity
  8
1
  6
Continuous
 62
     4
100
AcDbLine
 10
732.8734339620309
 20
837.7653609057276
 30
0.0
 11
749.728197858144
 21
838.060908558061
 31
0.0
  0
LINE
  5
4D6
330
15D
100
AcDbEntity
  8
1
  6
Continuous
 62
     4
100
AcDbLine
 10
749.728197858144
 20
838.060908558061
 30
0.0
 11
766.5829617542571
 21
835.5487456551914
 31
0.0
  0
LINE
  5
4D7
330
15D
100
AcDbEntity
  8
1
  6
Continuous
 62
     4
100
AcDbLine
 10
766.5829617542571
 20
835.5487456551914
 30
0.0
 11
783.4377256503699
 21
830.6721928025044
 31
0.0
  0
LINE
  5
4D8
330
15D
100
AcDbEntity
  8
1
  6
Continuous
 62
     4
100
AcDbLine
 10
783.4377256503699
 20
830.6721928025044
 30
0.0
 11
798.2226075981189
 21
823.4312499999997
 31
0.0
  0
LINE
  5
4D9
330
15D
100
AcDbEntity
  8
1
  6
Continuous
 62
     4
100
AcDbLine
 10
798.2226075981189
 20
823.4312499999997
 30
0.0
 11
812.7117911778897
 21
816.6336312953404
 31
0.0
  0
LINE
  5
4DA
330
15D
100
AcDbEntity
  8
1
  6
Continuous
 62
     4
100
AcDbLine
 10
812.7117911778897
 20
816.6336312953404
 30
0.0
 11
829.1230108357773
 21
811.3137560910381
 31
0.0
  0
LINE
  5
4DB
330
15D
100
AcDbEntity
  8
1
  6
Continuous
 62
     4
100
AcDbLine
 10
829.1230108357773
 20
811.3137560910381
 30
0.0
 11
846.2734697861266
 21
809.3926884928356
 31
0.0
  0
LINE
  5
4DC
330
15D
100
AcDbEntity
  8
1
  6
Continuous
 62
     4
100
AcDbLine
 10
846.2734697861266
 20
809.3926884928356
 30
0.0
 11
863.423932050218
 21
809.0971408405019
 31
0.0
  0
LINE
  5
4DD
330
15D
100
AcDbEntity
  8
1
  6
Continuous
 62
     4
100
AcDbLine
 10
863.423932050218
 20
809.0971408405019
 30
0.0
 11
878.8002107339233
 21
811.3137560910381
 31
0.0
  0
LINE
  5
4DE
330
15D
100
AcDbEntity
  8
1
  6
Continuous
 62
     4
100
AcDbLine
 10
878.8002107339233
 20
811.3137560910381
 30
0.0
 11
895.9506729980136
 21
816.3380818967768
 31
0.0
  0
LINE
  5
4DF
330
15D
100
AcDbEntity
  8
1
  6
Continuous
 62
     4
100
AcDbLine
 10
895.9506729980136
 20
816.3380818967768
 30
0.0
 11
906.03125
 21
821.079493796544
 31
0.0
  0
LINE
  5
557
330
15D
100
AcDbEntity
  8
-1
  6
Continuous
 62
     3
100
AcDbLine
 10
588.9187500000002
 20
575.8124999999997
 30
0.0
 11
569.6429027863082
 21
591.1000369012445
 31
0.0
  0
LINE
  5
558
330
15D
100
AcDbEntity
  8
-1
  6
Continuous
 62
     3
100
AcDbLine
 10
588.9187500000002
 20
575.8124999999997
 30
0.0
 11
580.2340592325854
 21
598.8308234964421
 31
0.0
  0
LINE
  5
559
330
15D
100
AcDbEntity
  8
-1
  6
Continuous
 62
     3
100
AcDbLine
 10
580.2340592325854
 20
598.8308234964421
 30
0.0
 11
569.6429027863082
 21
591.1000369012445
 31
0.0
  0
LINE
  5
55B
330
15D
100
AcDbEntity
  8
-1
  6
Continuous
 62
     3
100
AcDbLine
 10
575.2160131814433
 20
595.1680088318648
 30
0.0
 11
507.6133299482322
 21
690.6587381441411
 31
0.0
  0
LINE
  5
56A
330
15D
100
AcDbEntity
  8
-1
  6
Continuous
 62
     2
100
AcDbLine
 10
455.5586742332613
 20
712.8439512425598
 30
0.0
 11
504.5586742332611
 21
712.8439512425598
 31
0.0
  0
LINE
  5
56B
330
15D
100
AcDbEntity
  8
-1
  6
Continuous
 62
     2
100
AcDbLine
 10
454.7899088143264
 20
753.8037958035745
 30
0.0
 11
502.7899088143263
 21
753.8037958035745
 31
0.0
  0
LINE
  5
578
330
15D
100
AcDbEntity
  8
0
  6
Continuous
 62
     4
100
AcDbLine
 10
900.4240333968695
 20
818.4421325104374
 30
0.0
 11
906.03125
 21
812.8349159073067
 31
0.0
1001
ACAD
1010
0.0
1020
0.0
1030
0.0
  0
LINE
  5
5E2
330
15D
100
AcDbEntity
  8
-1
  6
Continuous
 62
     3
100
AcDbLine
 10
1329.289317190283
 20
954.8784440409788
 30
0.0
 11
1427.280836513546
 21
954.8784440409788
 31
0.0
  0
LINE
  5
5E3
330
15D
100
AcDbEntity
  8
-1
  6
Continuous
 62
     3
100
AcDbLine
 10
1233.658117190284
 20
946.8784440409788
 30
0.0
 11
1233.658117190284
 21
850.0238065718649
 31
0.0
  0
LINE
  5
5E4
330
15D
100
AcDbEntity
  8
-1
  6
Continuous
 62
     3
100
AcDbLine
 10
1276.858117190283
 20
946.8784440409788
 30
0.0
 11
1276.858117190283
 21
850.0238065718649
 31
0.0
  0
LINE
  5
5E5
330
15D
100
AcDbEntity
  8
-1
  6
Continuous
 62
     3
100
AcDbLine
 10
1201.470517190283
 20
879.1659440409791
 30
0.0
 11
1229.945517190282
 21
946.1409440409793
 31
0.0
  0
LINE
  5
5E6
330
15D
100
AcDbEntity
  8
-1
  6
Continuous
 62
     3
100
AcDbLine
 10
1296.345517190283
 20
857.8612065718647
 30
0.0
 11
1309.0800805603
 21
857.8612065718647
 31
0.0
  0
LINE
  5
5E7
330
15D
100
AcDbEntity
  8
-1
  6
Continuous
 62
     3
100
AcDbLine
 10
1419.280836513546
 20
1006.822144040979
 30
0.0
 11
1419.280836513546
 21
1017.959744040977
 31
0.0
  0
LINE
  5
5E8
330
15D
100
AcDbEntity
  8
-1
  6
Continuous
 62
     3
100
AcDbLine
 10
1187.526817190284
 20
896.003444040979
 30
0.0
 11
1182.751817190282
 21
898.5221440409791
 31
0.0
  0
LINE
  5
5E9
330
15D
100
AcDbEntity
  8
-1
  6
Continuous
 62
     3
100
AcDbLine
 10
1182.751817190282
 20
898.5221440409791
 30
0.0
 11
1173.433117190284
 21
898.5221440409791
 31
0.0
  0
LINE
  5
5EA
330
15D
100
AcDbEntity
  8
-1
  6
Continuous
 62
     5
100
AcDbLine
 10
1259.251817190283
 20
828.188273344095
 30
0.0
 11
1297.251817190284
 21
828.188273344095
 31
0.0
  0
LINE
  5
5EB
330
15D
100
AcDbEntity
  8
-1
  6
Continuous
 62
     5
100
AcDbLine
 10
1419.280836513546
 20
898.4409440409788
 30
0.0
 11
1456.280836513547
 21
898.4409440409788
 31
0.0
  0
LINE
  5
5EC
330
15D
100
AcDbEntity
  8
-1
  6
Continuous
 62
     3
100
AcDbLine
 10
1184.945517190283
 20
890.8971440409791
 30
0.0
 11
1189.814317190281
 21
900.5159440409792
 31
0.0
  0
LINE
  5
5ED
330
15D
100
AcDbEntity
  8
-1
  6
Continuous
 62
     3
100
AcDbLine
 10
1204.764317190283
 20
886.9097440409792
 30
0.0
 11
1189.814317190281
 21
900.5159440409792
 31
0.0
  0
LINE
  5
5EE
330
15D
100
AcDbEntity
  8
-1
  6
Continuous
 62
     3
100
AcDbLine
 10
1204.764317190283
 20
886.9097440409792
 30
0.0
 11
1184.945517190283
 21
890.8971440409791
 31
0.0
  0
LINE
  5
5EF
330
15D
100
AcDbEntity
  8
-1
  6
Continuous
 62
     3
100
AcDbLine
 10
1419.280836513546
 20
983.1097440409793
 30
0.0
 11
1412.724636513547
 21
1006.822144040979
 31
0.0
  0
LINE
  5
5F0
330
15D
100
AcDbEntity
  8
-1
  6
Continuous
 62
     3
100
AcDbLine
 10
1419.280836513546
 20
983.1097440409793
 30
0.0
 11
1425.837036513548
 21
1006.822144040979
 31
0.0
  0
LINE
  5
5F1
330
15D
100
AcDbEntity
  8
-1
  6
Continuous
 62
     3
100
AcDbLine
 10
1425.837036513548
 20
1006.822144040979
 30
0.0
 11
1412.724636513547
 21
1006.822144040979
 31
0.0
  0
LINE
  5
5F2
330
15D
100
AcDbEntity
  8
-1
  6
Continuous
 62
     3
100
AcDbLine
 10
1425.837036513548
 20
931.1659440409792
 30
0.0
 11
1419.280836513546
 21
954.8784440409788
 31
0.0
  0
LINE
  5
5F3
330
15D
100
AcDbEntity
  8
-1
  6
Continuous
 62
     3
100
AcDbLine
 10
1412.724636513547
 20
931.1659440409792
 30
0.0
 11
1419.280836513546
 21
954.8784440409788
 31
0.0
  0
LINE
  5
5F4
330
15D
100
AcDbEntity
  8
-1
  6
Continuous
 62
     3
100
AcDbLine
 10
1412.724636513547
 20
931.1659440409792
 30
0.0
 11
1425.837036513548
 21
931.1659440409792
 31
0.0
  0
LINE
  5
5F5
330
15D
100
AcDbEntity
  8
-1
  6
Continuous
 62
     3
100
AcDbLine
 10
1419.280836513546
 20
931.1659440409792
 30
0.0
 11
1419.280836513546
 21
918.440944040979
 31
0.0
  0
LINE
  5
5F6
330
15D
100
AcDbEntity
  8
FLAN1$0$-1
  6
Continuous
 62
     3
100
AcDbLine
 10
398.8437500000001
 20
541.1749999999996
 30
0.0
 11
398.8437500000001
 21
566.8749999999997
 31
0.0
  0
LINE
  5
5F7
330
15D
100
AcDbEntity
  8
FLAN1$0$-1
  6
Continuous
 62
     3
100
AcDbLine
 10
398.8437500000001
 20
457.0090990080784
 30
0.0
 11
398.8437500000001
 21
479.2437499999997
 31
0.0
  0
LINE
  5
5F8
330
15D
100
AcDbEntity
  8
FLAN1$0$-1
  6
Continuous
 62
     3
100
AcDbLine
 10
398.8437500000001
 20
502.9562499999998
 30
0.0
 11
405.4000000000001
 21
479.2437499999997
 31
0.0
  0
LINE
  5
5F9
330
15D
100
AcDbEntity
  8
FLAN1$0$-1
  6
Continuous
 62
     3
100
AcDbLine
 10
398.8437500000001
 20
502.9562499999998
 30
0.0
 11
392.2875000000001
 21
479.2437499999997
 31
0.0
  0
LINE
  5
5FA
330
15D
100
AcDbEntity
  8
FLAN1$0$-1
  6
Continuous
 62
     3
100
AcDbLine
 10
392.2875000000001
 20
479.2437499999997
 30
0.0
 11
405.4000000000001
 21
479.2437499999997
 31
0.0
  0
LINE
  5
5FB
330
15D
100
AcDbEntity
  8
FLAN1$0$-1
  6
Continuous
 62
     3
100
AcDbLine
 10
398.8437500000001
 20
517.4624999999998
 30
0.0
 11
392.2875000000001
 21
541.1749999999996
 31
0.0
  0
LINE
  5
5FC
330
15D
100
AcDbEntity
  8
FLAN1$0$-1
  6
Continuous
 62
     3
100
AcDbLine
 10
398.8437500000001
 20
517.4624999999998
 30
0.0
 11
405.4000000000001
 21
541.1749999999996
 31
0.0
  0
LINE
  5
5FD
330
15D
100
AcDbEntity
  8
FLAN1$0$-1
  6
Continuous
 62
     3
100
AcDbLine
 10
405.4000000000001
 20
541.1749999999996
 30
0.0
 11
392.2875000000001
 21
541.1749999999996
 31
0.0
  0
LINE
  5
5FE
330
15D
100
AcDbEntity
  8
FLAN1$0$-1
  6
Continuous
 62
     5
100
AcDbLine
 10
398.8437500000001
 20
432.0090990080782
 30
0.0
 11
412.8437500000002
 21
432.0090990080782
 31
0.0
  0
LINE
  5
5FF
330
15D
100
AcDbEntity
  8
FLAN1$0$-1
  6
Continuous
 62
     5
100
AcDbLine
 10
1193.187499999998
 20
546.6374999999993
 30
0.0
 11
1197.187499999998
 21
546.6374999999993
 31
0.0
  0
LINE
  5
600
330
15D
100
AcDbEntity
  8
FLAN1$0$1
  6
Continuous
 62
     3
100
AcDbLine
 10
1193.187499999998
 20
575.8124999999997
 30
0.0
 11
1186.63125
 21
599.5249999999996
 31
0.0
  0
LINE
  5
601
330
15D
100
AcDbEntity
  8
FLAN1$0$1
  6
Continuous
 62
     3
100
AcDbLine
 10
1193.187499999998
 20
575.8124999999997
 30
0.0
 11
1199.743749999998
 21
599.5249999999996
 31
0.0
  0
LINE
  5
602
330
15D
100
AcDbEntity
  8
FLAN1$0$1
  6
Continuous
 62
     3
100
AcDbLine
 10
1199.743749999998
 20
599.5249999999996
 30
0.0
 11
1186.63125
 21
599.5249999999996
 31
0.0
  0
LINE
  5
603
330
15D
100
AcDbEntity
  8
FLAN1$0$1
  6
Continuous
 62
     3
100
AcDbLine
 10
1193.187499999998
 20
517.4624999999998
 30
0.0
 11
1186.63125
 21
493.7499999999992
 31
0.0
  0
LINE
  5
604
330
15D
100
AcDbEntity
  8
FLAN1$0$1
  6
Continuous
 62
     3
100
AcDbLine
 10
1193.187499999998
 20
517.4624999999998
 30
0.0
 11
1199.743749999998
 21
493.7499999999992
 31
0.0
  0
LINE
  5
605
330
15D
100
AcDbEntity
  8
FLAN1$0$1
  6
Continuous
 62
     3
100
AcDbLine
 10
1186.63125
 20
493.7499999999992
 30
0.0
 11
1199.743749999998
 21
493.7499999999992
 31
0.0
  0
LINE
  5
606
330
15D
100
AcDbEntity
  8
FLAN1$0$1
  6
Continuous
 62
     3
100
AcDbLine
 10
1193.187499999998
 20
620.1414055796102
 30
0.0
 11
1193.187499999998
 21
599.5249999999996
 31
0.0
  0
LINE
  5
607
330
15D
100
AcDbEntity
  8
FLAN1$0$1
  6
Continuous
 62
     3
100
AcDbLine
 10
1193.187499999998
 20
493.7499999999992
 30
0.0
 11
1193.187499999998
 21
466.6606657043838
 31
0.0
  0
LINE
  5
608
330
15D
100
AcDbEntity
  8
FLAN1$0$1
  6
Continuous
 62
     4
100
AcDbLine
 10
1174.588168709012
 20
1026.849532635249
 30
0.0
 11
1174.909999529484
 21
1027.171363455722
 31
0.0
1001
ACAD
1010
0.0
1020
0.0
1030
0.0
  0
LINE
  5
609
330
15D
100
AcDbEntity
  8
FLAN1$0$1
  6
Continuous
 62
     4
100
AcDbLine
 10
1175.498958224988
 20
1017.153720433426
 30
0.0
 11
1188.110158981809
 21
1029.764921190245
 31
0.0
1001
ACAD
1010
0.0
1020
0.0
1030
0.0
  0
LINE
  5
60A
330
15D
100
AcDbEntity
  8
FLAN1$0$1
  6
Continuous
 62
     4
100
AcDbLine
 10
1176.409747740965
 20
1007.457908231603
 30
0.0
 11
1199.828081485182
 21
1030.876241975825
 31
0.0
1001
ACAD
1010
0.0
1020
0.0
1030
0.0
  0
LINE
  5
60B
330
15D
100
AcDbEntity
  8
FLAN1$0$1
  6
Continuous
 62
     4
100
AcDbLine
 10
1175.258539420638
 20
995.7000981934802
 30
0.0
 11
1208.894775440348
 21
1029.336334213188
 31
0.0
1001
ACAD
1010
0.0
1020
0.0
1030
0.0
  0
LINE
  5
60C
330
15D
100
AcDbEntity
  8
FLAN1$0$1
  6
Continuous
 62
     4
100
AcDbLine
 10
1172.300978667365
 20
982.1359357224091
 30
0.0
 11
1217.961469395509
 21
1027.796426450553
 31
0.0
1001
ACAD
1010
0.0
1020
0.0
1030
0.0
  0
LINE
  5
60D
330
15D
100
AcDbEntity
  8
FLAN1$0$1
  6
Continuous
 62
     4
100
AcDbLine
 10
1172.744074661679
 20
971.9724299989254
 30
0.0
 11
1227.02816335067
 21
1026.256518687913
 31
0.0
1001
ACAD
1010
0.0
1020
0.0
1030
0.0
  0
LINE
  5
60E
330
15D
100
AcDbEntity
  8
FLAN1$0$1
  6
Continuous
 62
     4
100
AcDbLine
 10
1173.187170655993
 20
961.8089242754418
 30
0.0
 11
1236.094857305831
 21
1024.716610925278
 31
0.0
1001
ACAD
1010
0.0
1020
0.0
1030
0.0
  0
LINE
  5
60F
330
15D
100
AcDbEntity
  8
FLAN1$0$1
  6
Continuous
 62
     4
100
AcDbLine
 10
1176.86329213933
 20
954.8784440409788
 30
0.0
 11
1249.241411891142
 21
1027.25656379279
 31
0.0
1001
ACAD
1010
0.0
1020
0.0
1030
0.0
  0
LINE
  5
610
330
15D
100
AcDbEntity
  8
FLAN1$0$1
  6
Continuous
 62
     4
100
AcDbLine
 10
1187.469893857127
 20
954.8784440409788
 30
0.0
 11
1263.647096927944
 21
1031.055647111793
 31
0.0
1001
ACAD
1010
0.0
1020
0.0
1030
0.0
  0
LINE
  5
611
330
15D
100
AcDbEntity
  8
FLAN1$0$1
  6
Continuous
 62
     4
100
AcDbLine
 10
1198.076495574925
 20
954.8784440409788
 30
0.0
 11
1277.422217271594
 21
1034.224165737648
 31
0.0
1001
ACAD
1010
0.0
1020
0.0
1030
0.0
  0
LINE
  5
612
330
15D
100
AcDbEntity
  8
FLAN1$0$1
  6
Continuous
 62
     4
100
AcDbLine
 10
1208.683097292724
 20
954.8784440409788
 30
0.0
 11
1289.589025412306
 21
1035.784372160561
 31
0.0
1001
ACAD
1010
0.0
1020
0.0
1030
0.0
  0
LINE
  5
613
330
15D
100
AcDbEntity
  8
FLAN1$0$1
  6
Continuous
 62
     4
100
AcDbLine
 10
1219.289699010523
 20
954.8784440409788
 30
0.0
 11
1244.279607606408
 21
979.8683526368673
 31
0.0
1001
ACAD
1010
0.0
1020
0.0
1030
0.0
  0
LINE
  5
614
330
15D
100
AcDbEntity
  8
FLAN1$0$1
  6
Continuous
 62
     4
100
AcDbLine
 10
1247.701359147632
 20
983.2901041780884
 30
0.0
 11
1301.755833553018
 21
1037.344578583472
 31
0.0
1001
ACAD
1010
0.0
1020
0.0
1030
0.0
  0
LINE
  5
615
330
15D
100
AcDbEntity
  8
FLAN1$0$1
  6
Continuous
 62
     4
100
AcDbLine
 10
1229.896300728322
 20
954.8784440409788
 30
0.0
 11
1236.430853079174
 21
961.4129963918326
 31
0.0
1001
ACAD
1010
0.0
1020
0.0
1030
0.0
  0
LINE
  5
616
330
15D
100
AcDbEntity
  8
FLAN1$0$1
  6
Continuous
 62
     4
100
AcDbLine
 10
1258.197619105037
 20
983.179762417696
 30
0.0
 11
1310.470387151787
 21
1035.452530464443
 31
0.0
1001
ACAD
1010
0.0
1020
0.0
1030
0.0
  0
LINE
  5
617
330
15D
100
AcDbEntity
  8
FLAN1$0$1
  6
Continuous
 62
     4
100
AcDbLine
 10
1266.014257386349
 20
980.3897989812103
 30
0.0
 11
1318.10653907642
 21
1032.48208067128
 31
0.0
1001
ACAD
1010
0.0
1020
0.0
1030
0.0
  0
LINE
  5
618
330
15D
100
AcDbEntity
  8
FLAN1$0$1
  6
Continuous
 62
     4
100
AcDbLine
 10
1269.17794388451
 20
972.9468837615758
 30
0.0
 11
1325.742691001054
 21
1029.511630878114
 31
0.0
1001
ACAD
1010
0.0
1020
0.0
1030
0.0
  0
LINE
  5
619
330
15D
100
AcDbEntity
  8
FLAN1$0$1
  6
Continuous
 62
     4
100
AcDbLine
 10
1272.341630382678
 20
965.5039685419417
 30
0.0
 11
1333.394719269644
 21
1026.557057428906
 31
0.0
1001
ACAD
1010
0.0
1020
0.0
1030
0.0
  0
LINE
  5
61A
330
15D
100
AcDbEntity
  8
FLAN1$0$1
  6
Continuous
 62
     4
100
AcDbLine
 10
1275.505316880841
 20
958.0610533223063
 30
0.0
 11
1341.310647271646
 21
1023.866383713109
 31
0.0
1001
ACAD
1010
0.0
1020
0.0
1030
0.0
  0
LINE
  5
61B
330
15D
100
AcDbEntity
  8
FLAN1$0$1
  6
Continuous
 62
     4
100
AcDbLine
 10
1282.929309317313
 20
954.8784440409788
 30
0.0
 11
1349.226575273648
 21
1021.175709997317
 31
0.0
1001
ACAD
1010
0.0
1020
0.0
1030
0.0
  0
LINE
  5
61C
330
15D
100
AcDbEntity
  8
FLAN1$0$1
  6
Continuous
 62
     4
100
AcDbLine
 10
1293.53591103511
 20
954.8784440409788
 30
0.0
 11
1350.699781887896
 21
1012.042314893766
 31
0.0
1001
ACAD
1010
0.0
1020
0.0
1030
0.0
  0
LINE
  5
61D
330
15D
100
AcDbEntity
  8
FLAN1$0$1
  6
Continuous
 62
     4
100
AcDbLine
 10
1304.142512752908
 20
954.8784440409788
 30
0.0
 11
1347.383900933379
 21
998.1198322214499
 31
0.0
1001
ACAD
1010
0.0
1020
0.0
1030
0.0
  0
LINE
  5
61E
330
15D
100
AcDbEntity
  8
FLAN1$0$1
  6
Continuous
 62
     4
100
AcDbLine
 10
1314.749114470703
 20
954.8784440409788
 30
0.0
 11
1327.300888579342
 21
967.4302181496168
 31
0.0
1001
ACAD
1010
0.0
1020
0.0
1030
0.0
  0
LINE
  5
61F
330
15D
100
AcDbEntity
  8
-1
  6
Continuous
 62
     7
100
AcDbLine
 10
1276.858117190283
 20
954.8784440409788
 30
0.0
 11
1264.858117190284
 21
983.1097440409793
 31
0.0
  0
LINE
  5
620
330
15D
100
AcDbEntity
  8
-1
  6
Continuous
 62
     7
100
AcDbLine
 10
1264.858117190284
 20
983.1097440409793
 30
0.0
 11
1245.833117190283
 21
983.3097440409778
 31
0.0
  0
LINE
  5
621
330
15D
100
AcDbEntity
  8
-1
  6
Continuous
 62
     7
100
AcDbLine
 10
1276.858117190283
 20
954.8784440409788
 30
0.0
 11
1321.289317190283
 21
954.8784440409788
 31
0.0
  0
LINE
  5
622
330
15D
100
AcDbEntity
  8
-1
  6
Continuous
 62
     7
100
AcDbLine
 10
1233.658117190284
 20
954.8784440409788
 30
0.0
 11
1173.489317190282
 21
954.8784440409788
 31
0.0
  0
LINE
  5
623
330
15D
100
AcDbEntity
  8
-1
  6
Continuous
 62
     7
100
AcDbLine
 10
1173.489317190282
 20
954.8784440409788
 30
0.0
 11
1172.208117190284
 21
984.2659440409782
 31
0.0
  0
LINE
  5
624
330
15D
100
AcDbEntity
  8
-1
  6
Continuous
 62
     7
100
AcDbLine
 10
1172.208117190284
 20
984.2659440409782
 30
0.0
 11
1176.926817190282
 21
1001.953444040979
 31
0.0
  0
LINE
  5
625
330
15D
100
AcDbEntity
  8
-1
  6
Continuous
 62
     7
100
AcDbLine
 10
1176.926817190282
 20
1001.953444040979
 30
0.0
 11
1174.564317190281
 21
1027.103444040979
 31
0.0
  0
LINE
  5
626
330
15D
100
AcDbEntity
  8
-1
  6
Continuous
 62
     7
100
AcDbLine
 10
1174.564317190281
 20
1027.103444040979
 30
0.0
 11
1196.576817190283
 21
1031.428444040973
 31
0.0
  0
LINE
  5
627
330
15D
100
AcDbEntity
  8
-1
  6
Continuous
 62
     7
100
AcDbLine
 10
1196.576817190283
 20
1031.428444040973
 30
0.0
 11
1238.233117190284
 21
1024.353444040978
 31
0.0
  0
LINE
  5
628
330
15D
100
AcDbEntity
  8
-1
  6
Continuous
 62
     7
100
AcDbLine
 10
1238.233117190284
 20
1024.353444040978
 30
0.0
 11
1273.995517190283
 21
1033.784744040977
 31
0.0
  0
LINE
  5
629
330
15D
100
AcDbEntity
  8
-1
  6
Continuous
 62
     7
100
AcDbLine
 10
1273.995517190283
 20
1033.784744040977
 30
0.0
 11
1304.651817190284
 21
1037.715944040976
 31
0.0
  0
LINE
  5
62A
330
15D
100
AcDbEntity
  8
-1
  6
Continuous
 62
     7
100
AcDbLine
 10
1304.651817190284
 20
1037.715944040976
 30
0.0
 11
1332.945517190283
 21
1026.709744040978
 31
0.0
  0
LINE
  5
62B
330
15D
100
AcDbEntity
  8
-1
  6
Continuous
 62
     7
100
AcDbLine
 10
1332.945517190283
 20
1026.709744040978
 30
0.0
 11
1352.601817190282
 21
1020.028444040977
 31
0.0
  0
LINE
  5
62C
330
15D
100
AcDbEntity
  8
-1
  6
Continuous
 62
     7
100
AcDbLine
 10
1352.601817190282
 20
1020.028444040977
 30
0.0
 11
1344.739317190284
 21
987.0159440409793
 31
0.0
  0
LINE
  5
62D
330
15D
100
AcDbEntity
  8
-1
  6
Continuous
 62
     7
100
AcDbLine
 10
1344.739317190284
 20
987.0159440409793
 30
0.0
 11
1332.164317190283
 21
977.584744040978
 31
0.0
  0
LINE
  5
62E
330
15D
100
AcDbEntity
  8
-1
  6
Continuous
 62
     7
100
AcDbLine
 10
1332.164317190283
 20
977.584744040978
 30
0.0
 11
1321.289317190283
 21
954.8784440409788
 31
0.0
  0
LINE
  5
62F
330
15D
100
AcDbEntity
  8
-1
  6
Continuous
 62
     7
100
AcDbLine
 10
1233.651817190284
 20
954.8784440409788
 30
0.0
 11
1245.658117190284
 21
983.1097440409793
 31
0.0
  0
LINE
  5
630
330
15D
100
AcDbEntity
  8
-1
  6
Continuous
 62
     3
100
AcDbLine
 10
1272.858117190284
 20
983.1097440409793
 30
0.0
 11
1427.280836513546
 21
983.1097440409793
 31
0.0
  0
LINE
  5
631
330
15D
100
AcDbEntity
  8
FLAN1$0$-1
  6
Continuous
 62
     2
100
AcDbLine
 10
1109.81668310335
 20
903.1858895506044
 30
0.0
 11
1160.816683103351
 21
903.1858895506044
 31
0.0
  0
LINE
  5
632
330
15D
100
AcDbEntity
  8
-1
  6
Continuous
 62
     3
100
AcDbLine
 10
1276.858117190283
 20
857.8612065718647
 30
0.0
 11
1296.345517190283
 21
863.2488065718646
 31
0.0
  0
LINE
  5
633
330
15D
100
AcDbEntity
  8
-1
  6
Continuous
 62
     3
100
AcDbLine
 10
1276.858117190283
 20
857.8612065718647
 30
0.0
 11
1296.345517190283
 21
852.4738065718647
 31
0.0
  0
LINE
  5
634
330
15D
100
AcDbEntity
  8
-1
  6
Continuous
 62
     3
100
AcDbLine
 10
1296.345517190283
 20
852.4738065718647
 30
0.0
 11
1296.345517190283
 21
863.2488065718646
 31
0.0
  0
LINE
  5
635
330
15D
100
AcDbEntity
  8
-1
  6
Continuous
 62
     3
100
AcDbLine
 10
1214.170517190284
 20
852.4738065718647
 30
0.0
 11
1214.170517190284
 21
863.2488065718646
 31
0.0
  0
LINE
  5
636
330
15D
100
AcDbEntity
  8
-1
  6
Continuous
 62
     3
100
AcDbLine
 10
1233.658117190284
 20
857.8612065718647
 30
0.0
 11
1214.170517190284
 21
863.2488065718646
 31
0.0
  0
LINE
  5
637
330
15D
100
AcDbEntity
  8
-1
  6
Continuous
 62
     3
100
AcDbLine
 10
1233.658117190284
 20
857.8612065718647
 30
0.0
 11
1214.170517190284
 21
852.4738065718647
 31
0.0
  0
LINE
  5
638
330
15D
100
AcDbEntity
  8
0
  6
Continuous
100
AcDbLine
 10
533.3187500000001
 20
575.8124999999997
 30
0.0
 11
114.1849318628058
 21
886.0161748689161
 31
0.0
  0
ENDSEC
  0
SECTION
  2
OBJECTS
  0
DICTIONARY
  5
14B
330
0
100
AcDbDictionary
281
     1
  3
ACAD_COLOR
350
2DF
  3
ACAD_GROUP
350
14C
  3
ACAD_LAYOUT
350
158
  3
ACAD_MATERIAL
350
2CA
  3
ACAD_MLEADERSTYLE
350
474
  3
ACAD_MLINESTYLE
350
155
  3
ACAD_PLOTSETTINGS
350
157
  3
ACAD_PLOTSTYLENAME
350
14D
  3
ACAD_SCALELIST
350
452
  3
ACAD_TABLESTYLE
350
2E0
  3
ACAD_VISUALSTYLE
350
2CE
  3
ACDB_RECOMPOSE_DATA
350
515
  3
AcDbVariableDictionary
350
355
  3
DWGPROPS
350
516
  0
DICTIONARY
  5
478
330
14F
100
AcDbDictionary
280
     1
281
     1
  3
ADSK_XREC_LAYER_RECONCILED
360
479
  0
DICTIONARY
  5
47A
330
168
100
AcDbDictionary
280
     1
281
     1
  3
ADSK_XREC_LAYER_RECONCILED
360
47B
  0
DICTIONARY
  5
47C
330
169
100
AcDbDictionary
280
     1
281
     1
  3
ADSK_XREC_LAYER_RECONCILED
360
47D
  0
DICTIONARY
  5
47E
330
16A
100
AcDbDictionary
280
     1
281
     1
  3
ADSK_XREC_LAYER_RECONCILED
360
47F
  0
DICTIONARY
  5
480
330
16B
100
AcDbDictionary
280
     1
281
     1
  3
ADSK_XREC_LAYER_RECONCILED
360
481
  0
DICTIONARY
  5
4E7
330
4E6
100
AcDbDictionary
280
     1
281
     1
  0
DICTIONARY
  5
586
330
585
100
AcDbDictionary
280
     1
281
     1
  0
DICTIONARY
  5
2F3
330
15D
100
AcDbDictionary
280
     1
281
     1
  3
ACAD_SORTENTS
360
2F4
  0
DICTIONARY
  5
2DF
102
{ACAD_REACTORS
330
14B
102
}
330
14B
100
AcDbDictionary
281
     1
  0
DICTIONARY
  5
14C
102
{ACAD_REACTORS
330
14B
102
}
330
14B
100
AcDbDictionary
281
     1
  0
DICTIONARY
  5
158
102
{ACAD_REACTORS
330
14B
102
}
330
14B
100
AcDbDictionary
281
     1
  3
Layout1
350
15C
  3
Model
350
160
  0
DICTIONARY
  5
2CA
102
{ACAD_REACTORS
330
14B
102
}
330
14B
100
AcDbDictionary
281
     1
  3
ByBlock
350
2CC
  3
ByLayer
350
2CB
  3
Global
350
2CD
  0
DICTIONARY
  5
474
102
{ACAD_REACTORS
330
14B
102
}
330
14B
100
AcDbDictionary
281
     1
  3
Standard
350
475
  0
DICTIONARY
  5
155
102
{ACAD_REACTORS
330
14B
102
}
330
14B
100
AcDbDictionary
281
     1
  3
Standard
350
156
  0
DICTIONARY
  5
157
102
{ACAD_REACTORS
330
14B
102
}
330
14B
100
AcDbDictionary
281
     1
  0
ACDBDICTIONARYWDFLT
  5
14D
102
{ACAD_REACTORS
330
14B
102
}
330
14B
100
AcDbDictionary
281
     1
  3
Normal
350
14E
100
AcDbDictionaryWithDefault
340
14E
  0
DICTIONARY
  5
452
102
{ACAD_REACTORS
330
14B
102
}
330
14B
100
AcDbDictionary
281
     1
  3
A0
350
453
  3
A1
350
454
  3
A2
350
455
  3
A3
350
456
  3
A4
350
457
  3
A5
350
458
  3
A6
350
459
  3
A7
350
45A
  3
A8
350
45B
  3
A9
350
45C
  3
B0
350
45D
  3
B1
350
45E
  3
B2
350
45F
  3
B3
350
460
  3
B4
350
461
  3
B5
350
462
  3
B6
350
463
  3
B7
350
464
  3
B8
350
465
  3
B9
350
466
  3
C0
350
467
  3
C1
350
468
  3
C2
350
469
  3
C3
350
46A
  3
C4
350
46B
  3
C5
350
46C
  3
C6
350
46D
  3
C7
350
46E
  3
C8
350
46F
  3
C9
350
470
  3
D0
350
471
  3
D1
350
472
  3
D2
350
473
  0
DICTIONARY
  5
2E0
102
{ACAD_REACTORS
330
14B
102
}
330
14B
100
AcDbDictionary
281
     1
  3
Standard
350
2E1
  0
DICTIONARY
  5
2CE
102
{ACAD_REACTORS
330
14B
102
}
330
14B
100
AcDbDictionary
281
     1
  3
2dWireframe
350
2D4
  3
3D Hidden
350
2D6
  3
3dWireframe
350
2D5
  3
Basic
350
2D3
  3
Brighten
350
2DA
  3
ColorChange
350
2DE
  3
Conceptual
350
2D7
  3
Dim
350
2D9
  3
EdgeColorOff
350
451
  3
Facepattern
350
2DD
  3
Flat
350
2CF
  3
FlatWithEdges
350
2D0
  3
Gouraud
350
2D1
  3
GouraudWithEdges
350
2D2
  3
JitterOff
350
44F
  3
Linepattern
350
2DC
  3
OverhangOff
350
450
  3
Realistic
350
2D8
  3
Thicken
350
2DB
  0
XRECORD
  5
515
102
{ACAD_REACTORS
330
14B
102
}
330
14B
100
AcDbXrecord
280
     1
 90
        1
330
2E1
  0
DICTIONARY
  5
355
102
{ACAD_REACTORS
330
14B
102
}
330
14B
100
AcDbDictionary
281
     1
  3
CANNOSCALE
350
483
  3
CMLEADERSTYLE
350
482
  3
CTABLESTYLE
350
356
  3
DIMASSOC
350
375
  3
INDEXCTL
350
374
  3
SORTENTS
350
373
  3
XCLIPFRAME
350
513
  0
XRECORD
  5
516
102
{ACAD_REACTORS
330
14B
102
}
330
14B
100
AcDbXrecord
280
     1
  1
DWGPROPS COOKIE
  2

  3

  4

  6

  7

  8
John
  9

300
=
301
=
302
=
303
=
304
=
305
=
306
=
307
=
308
=
309
=
 40
0.0625557060185185
 41
2453233.213449073
 42
2457150.997564248
  1

 90
        0
  0
XRECORD
  5
479
102
{ACAD_REACTORS
330
478
102
}
330
478
100
AcDbXrecord
280
     1
290
     1
  0
XRECORD
  5
47B
102
{ACAD_REACTORS
330
47A
102
}
330
47A
100
AcDbXrecord
280
     1
290
     1
  0
XRECORD
  5
47D
102
{ACAD_REACTORS
330
47C
102
}
330
47C
100
AcDbXrecord
280
     1
290
     1
  0
XRECORD
  5
47F
102
{ACAD_REACTORS
330
47E
102
}
330
47E
100
AcDbXrecord
280
     1
290
     1
  0
XRECORD
  5
481
102
{ACAD_REACTORS
330
480
102
}
330
480
100
AcDbXrecord
280
     1
290
     1
  0
SORTENTSTABLE
  5
2F4
102
{ACAD_REACTORS
330
2F3
102
}
330
2F3
100
AcDbSortentsTable
330
15D
331
2FD
  5
1C1
331
307
  5
1D7
331
301
  5
1C4
331
35B
  5
23F
331
36C
  5
250
331
366
  5
24A
331
33E
  5
21C
331
34F
  5
22E
331
360
  5
244
331
338
  5
209
331
349
  5
228
331
332
  5
206
331
343
  5
221
331
31B
  5
1ED
331
32C
  5
200
331
315
  5
1E7
331
326
  5
1FA
331
30F
  5
1DF
331
320
  5
1F4
331
309
  5
1D9
331
1C2
  5
19B
331
20B
  5
1AB
331
174
  5
173
331
2FE
  5
1C2
331
2F8
  5
1B2
331
302
  5
1CC
331
35C
  5
240
331
36D
  5
251
331
367
  5
24B
331
33F
  5
21D
331
350
  5
22F
331
361
  5
245
331
339
  5
20A
331
34A
  5
229
331
333
  5
207
331
344
  5
222
331
31C
  5
1EE
331
32D
  5
201
331
316
  5
1E8
331
327
  5
1FC
331
310
  5
1E0
331
321
  5
1F5
331
30A
  5
1DA
331
1C3
  5
19C
331
175
  5
174
331
2FF
  5
1B8
331
2F9
  5
1B3
331
303
  5
1CD
331
35D
  5
241
331
36E
  5
252
331
357
  5
239
331
368
  5
24C
331
351
  5
230
331
362
  5
246
331
33A
  5
20E
331
34B
  5
22A
331
334
  5
20B
331
345
  5
223
331
31D
  5
1F1
331
32E
  5
202
331
317
  5
1E9
331
328
  5
1FD
331
311
  5
1EF
331
322
  5
1F6
331
30B
  5
1DB
331
1C4
  5
1A9
331
2F5
  5
1AF
331
176
  5
175
331
2FA
  5
1B4
331
304
  5
1CE
331
35E
  5
242
331
36F
  5
253
331
358
  5
23A
331
369
  5
24D
331
352
  5
231
331
363
  5
247
331
33B
  5
20F
331
34C
  5
22B
331
335
  5
20C
331
346
  5
224
331
31E
  5
1F2
331
32F
  5
203
331
340
  5
21E
331
318
  5
1EA
331
329
  5
1FE
331
312
  5
1E1
331
323
  5
1F7
331
30C
  5
1DC
331
2F6
  5
1B0
331
177
  5
176
331
2F0
  5
1AC
331
171
  5
171
331
19B
  5
177
331
2FB
  5
1B6
331
305
  5
1D5
331
35F
  5
243
331
370
  5
254
331
359
  5
23D
331
36A
  5
24E
331
364
  5
248
331
353
  5
23B
331
33C
  5
21A
331
34D
  5
22C
331
347
  5
225
331
336
  5
20D
331
341
  5
21F
331
31F
  5
1F3
331
330
  5
204
331
319
  5
1EB
331
32A
  5
1FB
331
324
  5
1F8
331
313
  5
1F0
331
30D
  5
1DD
331
2F7
  5
1B1
331
2F1
  5
1AD
331
19C
  5
178
331
2FC
  5
1B7
331
306
  5
1D6
331
300
  5
1C3
331
35A
  5
23E
331
36B
  5
24F
331
354
  5
23C
331
365
  5
249
331
33D
  5
21B
331
34E
  5
22D
331
337
  5
208
331
348
  5
227
331
331
  5
205
331
342
  5
220
331
31A
  5
1EC
331
32B
  5
1FF
331
314
  5
1E6
331
325
  5
1F9
331
30E
  5
1DE
331
308
  5
1D8
331
20A
  5
1AA
331
1C1
  5
179
331
2F2
  5
1AE
331
173
  5
172
  0
LAYOUT
  5
15C
102
{ACAD_XDICTIONARY
360
517
102
}
102
{ACAD_REACTORS
330
158
102
}
330
158
100
AcDbPlotSettings
  1

  2
HP DeskJet 840C/841C/842C/843C
  4

  6

 40
0.0
 41
0.0
 42
0.0
 43
0.0
 44
0.0
 45
0.0
 46
0.0
 47
0.0
 48
0.0
 49
0.0
140
0.0
141
0.0
142
1.0
143
1.0
 70
   688
 72
     0
 73
     0
 74
     5
  7

 75
    16
147
1.0
148
0.0
149
0.0
100
AcDbLayout
  1
Layout1
 70
     0
 71
     1
 10
0.0
 20
0.0
 11
12.0
 21
9.0
 12
0.0
 22
0.0
 32
0.0
 14
-1.000000000000000E+20
 24
-1.000000000000000E+20
 34
-1.000000000000000E+20
 15
-1.000000000000000E+20
 25
-1.000000000000000E+20
 35
-1.000000000000000E+20
146
0.0
 13
0.0
 23
0.0
 33
0.0
 16
1.0
 26
0.0
 36
0.0
 17
0.0
 27
1.0
 37
0.0
 76
     0
330
159
  0
LAYOUT
  5
160
102
{ACAD_XDICTIONARY
360
519
102
}
102
{ACAD_REACTORS
330
158
102
}
330
158
100
AcDbPlotSettings
  1

  2
HP DeskJet 840C/841C/842C/843C
  4

  6

 40
0.0
 41
0.0
 42
0.0
 43
0.0
 44
0.0
 45
0.0
 46
0.0
 47
0.0
 48
0.0
 49
0.0
140
0.0
141
0.0
142
1.0
143
1.0
 70
  1712
 72
     0
 73
     0
 74
     0
  7

 75
     0
147
1.0
148
0.0
149
0.0
100
AcDbLayout
  1
Model
 70
     1
 71
     0
 10
0.0
 20
0.0
 11
12.0
 21
9.0
 12
0.0
 22
0.0
 32
0.0
 14
0.0
 24
0.0
 34
0.0
 15
0.0
 25
0.0
 35
0.0
146
0.0
 13
0.0
 23
0.0
 33
0.0
 16
1.0
 26
0.0
 36
0.0
 17
0.0
 27
1.0
 37
0.0
 76
     0
330
15D
331
50D
  0
MATERIAL
  5
2CC
102
{ACAD_XDICTIONARY
360
37D
102
}
102
{ACAD_REACTORS
330
2CA
102
}
330
2CA
100
AcDbMaterial
  1
ByBlock
  0
MATERIAL
  5
2CB
102
{ACAD_XDICTIONARY
360
37B
102
}
102
{ACAD_REACTORS
330
2CA
102
}
330
2CA
100
AcDbMaterial
  1
ByLayer
  0
MATERIAL
  5
2CD
102
{ACAD_XDICTIONARY
360
37F
102
}
102
{ACAD_REACTORS
330
2CA
102
}
330
2CA
100
AcDbMaterial
  1
Global
  0
MLEADERSTYLE
  5
475
102
{ACAD_REACTORS
330
474
102
}
330
474
100
AcDbMLeaderStyle
170
     2
171
     1
172
     0
 90
        2
 40
0.0
 41
0.0
173
     1
 91
-1056964608
340
152
 92
       -2
290
     1
 42
0.09
291
     1
 43
0.36
  3
Standard
 44
0.18
300

342
150
174
     1
178
     6
175
     1
176
     0
 93
-1056964608
 45
0.18
292
     0
297
     0
 46
0.18
 94
-1056964608
 47
1.0
 49
1.0
140
1.0
293
     1
141
0.0
294
     1
177
     0
142
1.0
295
     0
296
     0
143
0.125
1001
ACAD_MLEADERVER
1070
     2
  0
MLINESTYLE
  5
156
102
{ACAD_REACTORS
330
155
102
}
330
155
100
AcDbMlineStyle
  2
STANDARD
 70
     0
  3

 62
   256
 51
90.0
 52
90.0
 71
     2
 49
0.5
 62
   256
  6
BYLAYER
 49
-0.5
 62
   256
  6
BYLAYER
  0
ACDBPLACEHOLDER
  5
14E
102
{ACAD_REACTORS
330
14D
102
}
330
14D
  0
SCALE
  5
453
102
{ACAD_REACTORS
330
452
102
}
330
452
100
AcDbScale
 70
     0
300
1:1
140
1.0
141
1.0
290
     1
  0
SCALE
  5
454
102
{ACAD_REACTORS
330
452
102
}
330
452
100
AcDbScale
 70
     0
300
1:2
140
1.0
141
2.0
290
     0
  0
SCALE
  5
455
102
{ACAD_REACTORS
330
452
102
}
330
452
100
AcDbScale
 70
     0
300
1:4
140
1.0
141
4.0
290
     0
  0
SCALE
  5
456
102
{ACAD_REACTORS
330
452
102
}
330
452
100
AcDbScale
 70
     0
300
1:5
140
1.0
141
5.0
290
     0
  0
SCALE
  5
457
102
{ACAD_REACTORS
330
452
102
}
330
452
100
AcDbScale
 70
     0
300
1:8
140
1.0
141
8.0
290
     0
  0
SCALE
  5
458
102
{ACAD_REACTORS
330
452
102
}
330
452
100
AcDbScale
 70
     0
300
1:10
140
1.0
141
10.0
290
     0
  0
SCALE
  5
459
102
{ACAD_REACTORS
330
452
102
}
330
452
100
AcDbScale
 70
     0
300
1:16
140
1.0
141
16.0
290
     0
  0
SCALE
  5
45A
102
{ACAD_REACTORS
330
452
102
}
330
452
100
AcDbScale
 70
     0
300
1:20
140
1.0
141
20.0
290
     0
  0
SCALE
  5
45B
102
{ACAD_REACTORS
330
452
102
}
330
452
100
AcDbScale
 70
     0
300
1:30
140
1.0
141
30.0
290
     0
  0
SCALE
  5
45C
102
{ACAD_REACTORS
330
452
102
}
330
452
100
AcDbScale
 70
     0
300
1:40
140
1.0
141
40.0
290
     0
  0
SCALE
  5
45D
102
{ACAD_REACTORS
330
452
102
}
330
452
100
AcDbScale
 70
     0
300
1:50
140
1.0
141
50.0
290
     0
  0
SCALE
  5
45E
102
{ACAD_REACTORS
330
452
102
}
330
452
100
AcDbScale
 70
     0
300
1:100
140
1.0
141
100.0
290
     0
  0
SCALE
  5
45F
102
{ACAD_REACTORS
330
452
102
}
330
452
100
AcDbScale
 70
     0
300
2:1
140
2.0
141
1.0
290
     0
  0
SCALE
  5
460
102
{ACAD_REACTORS
330
452
102
}
330
452
100
AcDbScale
 70
     0
300
4:1
140
4.0
141
1.0
290
     0
  0
SCALE
  5
461
102
{ACAD_REACTORS
330
452
102
}
330
452
100
AcDbScale
 70
     0
300
8:1
140
8.0
141
1.0
290
     0
  0
SCALE
  5
462
102
{ACAD_REACTORS
330
452
102
}
330
452
100
AcDbScale
 70
     0
300
10:1
140
10.0
141
1.0
290
     0
  0
SCALE
  5
463
102
{ACAD_REACTORS
330
452
102
}
330
452
100
AcDbScale
 70
     0
300
100:1
140
100.0
141
1.0
290
     0
  0
SCALE
  5
464
102
{ACAD_REACTORS
330
452
102
}
330
452
100
AcDbScale
 70
     0
300
1/128" = 1'-0"
140
0.0078125
141
12.0
290
     0
  0
SCALE
  5
465
102
{ACAD_REACTORS
330
452
102
}
330
452
100
AcDbScale
 70
     0
300
1/64" = 1'-0"
140
0.015625
141
12.0
290
     0
  0
SCALE
  5
466
102
{ACAD_REACTORS
330
452
102
}
330
452
100
AcDbScale
 70
     0
300
1/32" = 1'-0"
140
0.03125
141
12.0
290
     0
  0
SCALE
  5
467
102
{ACAD_REACTORS
330
452
102
}
330
452
100
AcDbScale
 70
     0
300
1/16" = 1'-0"
140
0.0625
141
12.0
290
     0
  0
SCALE
  5
468
102
{ACAD_REACTORS
330
452
102
}
330
452
100
AcDbScale
 70
     0
300
3/32" = 1'-0"
140
0.09375
141
12.0
290
     0
  0
SCALE
  5
469
102
{ACAD_REACTORS
330
452
102
}
330
452
100
AcDbScale
 70
     0
300
1/8" = 1'-0"
140
0.125
141
12.0
290
     0
  0
SCALE
  5
46A
102
{ACAD_REACTORS
330
452
102
}
330
452
100
AcDbScale
 70
     0
300
3/16" = 1'-0"
140
0.1875
141
12.0
290
     0
  0
SCALE
  5
46B
102
{ACAD_REACTORS
330
452
102
}
330
452
100
AcDbScale
 70
     0
300
1/4" = 1'-0"
140
0.25
141
12.0
290
     0
  0
SCALE
  5
46C
102
{ACAD_REACTORS
330
452
102
}
330
452
100
AcDbScale
 70
     0
300
3/8" = 1'-0"
140
0.375
141
12.0
290
     0
  0
SCALE
  5
46D
102
{ACAD_REACTORS
330
452
102
}
330
452
100
AcDbScale
 70
     0
300
1/2" = 1'-0"
140
0.5
141
12.0
290
     0
  0
SCALE
  5
46E
102
{ACAD_REACTORS
330
452
102
}
330
452
100
AcDbScale
 70
     0
300
3/4" = 1'-0"
140
0.75
141
12.0
290
     0
  0
SCALE
  5
46F
102
{ACAD_REACTORS
330
452
102
}
330
452
100
AcDbScale
 70
     0
300
1" = 1'-0"
140
1.0
141
12.0
290
     0
  0
SCALE
  5
470
102
{ACAD_REACTORS
330
452
102
}
330
452
100
AcDbScale
 70
     0
300
1-1/2" = 1'-0"
140
1.5
141
12.0
290
     0
  0
SCALE
  5
471
102
{ACAD_REACTORS
330
452
102
}
330
452
100
AcDbScale
 70
     0
300
3" = 1'-0"
140
3.0
141
12.0
290
     0
  0
SCALE
  5
472
102
{ACAD_REACTORS
330
452
102
}
330
452
100
AcDbScale
 70
     0
300
6" = 1'-0"
140
6.0
141
12.0
290
     0
  0
SCALE
  5
473
102
{ACAD_REACTORS
330
452
102
}
330
452
100
AcDbScale
 70
     0
300
1'-0" = 1'-0"
140
12.0
141
12.0
290
     0
  0
TABLESTYLE
  5
2E1
102
{ACAD_XDICTIONARY
360
485
102
}
102
{ACAD_REACTORS
330
2E0
102
}
330
2E0
100
AcDbTableStyle
  3
Standard
 70
     0
 71
     0
 40
0.06
 41
0.06
280
     0
281
     0
  7
STANDARD
140
0.18
170
     2
 62
     0
 63
     7
283
     0
274
    -2
284
     1
 64
     0
275
    -2
285
     1
 65
     0
276
    -2
286
     1
 66
     0
277
    -2
287
     1
 67
     0
278
    -2
288
     1
 68
     0
279
    -2
289
     1
 69
     0
  7
STANDARD
140
0.25
170
     5
 62
     0
 63
     7
283
     0
274
    -2
284
     1
 64
     0
275
    -2
285
     1
 65
     0
276
    -2
286
     1
 66
     0
277
    -2
287
     1
 67
     0
278
    -2
288
     1
 68
     0
279
    -2
289
     1
 69
     0
  7
STANDARD
140
0.18
170
     5
 62
     0
 63
     7
283
     0
274
    -2
284
     1
 64
     0
275
    -2
285
     1
 65
     0
276
    -2
286
     1
 66
     0
277
    -2
287
     1
 67
     0
278
    -2
288
     1
 68
     0
279
    -2
289
     1
 69
     0
  0
VISUALSTYLE
  5
2D4
102
{ACAD_XDICTIONARY
360
525
102
}
102
{ACAD_REACTORS
330
2CE
102
}
330
2CE
100
AcDbVisualStyle
  2

 70
     4
 71
     0
 72
     2
 73
     0
 90
        0
 40
-0.6
 41
-30.0
 62
     5
 63
     7
 74
     1
 91
        4
 64
     7
 65
   257
 75
     1
175
     1
 42
1.0
 92
        0
 66
   257
 43
1.0
 76
     1
 77
     6
 78
     2
 67
     7
 79
     5
170
     0
171
     0
290
     0
174
     0
 93
        1
 44
0.0
173
     0
291
     0
 45
0.0
1001
ACAD
1000
AcDbSavedByObjectVersion
1070
     0
  0
VISUALSTYLE
  5
2D6
102
{ACAD_XDICTIONARY
360
529
102
}
102
{ACAD_REACTORS
330
2CE
102
}
330
2CE
100
AcDbVisualStyle
  2

 70
     6
 71
     1
 72
     2
 73
     2
 90
        0
 40
-0.6
 41
-30.0
 62
     5
 63
     7
 74
     2
 91
        2
 64
     7
 65
   257
 75
     2
175
     1
 42
40.0
 92
        0
 66
   257
 43
1.0
 76
     1
 77
     6
 78
     2
 67
     7
 79
     3
170
     0
171
     0
290
     0
174
     0
 93
        1
 44
0.0
173
     0
291
     0
 45
0.0
1001
ACAD
1000
AcDbSavedByObjectVersion
1070
     0
  0
VISUALSTYLE
  5
2D5
102
{ACAD_XDICTIONARY
360
527
102
}
102
{ACAD_REACTORS
330
2CE
102
}
330
2CE
100
AcDbVisualStyle
  2

 70
     5
 71
     0
 72
     2
 73
     0
 90
        0
 40
-0.6
 41
-30.0
 62
     5
 63
     7
 74
     1
 91
        4
 64
     7
 65
   257
 75
     1
175
     1
 42
1.0
 92
        0
 66
   257
 43
1.0
 76
     1
 77
     6
 78
     2
 67
     7
 79
     5
170
     0
171
     0
290
     0
174
     0
 93
        1
 44
0.0
173
     0
291
     0
 45
0.0
1001
ACAD
1000
AcDbSavedByObjectVersion
1070
     0
  0
VISUALSTYLE
  5
2D3
102
{ACAD_XDICTIONARY
360
523
102
}
102
{ACAD_REACTORS
330
2CE
102
}
330
2CE
100
AcDbVisualStyle
  2

 70
     7
 71
     1
 72
     0
 73
     1
 90
        0
 40
-0.6
 41
-30.0
 62
     5
 63
     7
 74
     0
 91
        4
 64
     7
 65
   257
 75
     1
175
     1
 42
1.0
 92
        8
 66
     7
 43
1.0
 76
     1
 77
     6
 78
     2
 67
     7
 79
     5
170
     0
171
     0
290
     0
174
     0
 93
        1
 44
0.0
173
     0
291
     1
 45
0.0
1001
ACAD
1000
AcDbSavedByObjectVersion
1070
     0
  0
VISUALSTYLE
  5
2DA
102
{ACAD_XDICTIONARY
360
531
102
}
102
{ACAD_REACTORS
330
2CE
102
}
330
2CE
100
AcDbVisualStyle
  2

 70
    12
 71
     2
 72
     2
 73
     0
 90
        0
 40
-0.6
 41
-30.0
 62
     5
 63
     7
 74
     1
 91
        4
 64
     7
 65
   257
 75
     1
175
     1
 42
1.0
 92
        8
 66
     7
 43
1.0
 76
     1
 77
     6
 78
     2
 67
     7
 79
     5
170
     0
171
     0
290
     0
174
     0
 93
        1
 44
50.0
173
     0
291
     1
 45
0.0
1001
ACAD
1000
AcDbSavedByObjectVersion
1070
     0
  0
VISUALSTYLE
  5
2DE
102
{ACAD_XDICTIONARY
360
539
102
}
102
{ACAD_REACTORS
330
2CE
102
}
330
2CE
100
AcDbVisualStyle
  2

 70
    16
 71
     2
 72
     2
 73
     3
 90
        0
 40
-0.6
 41
-30.0
 62
     5
 63
     8
 74
     1
 91
        4
 64
     7
 65
   257
 75
     1
175
     1
 42
1.0
 92
        8
 66
     8
 43
1.0
 76
     1
 77
     6
 78
     2
 67
     7
 79
     5
170
     0
171
     0
290
     0
174
     0
 93
        1
 44
0.0
173
     0
291
     1
 45
0.0
1001
ACAD
1000
AcDbSavedByObjectVersion
1070
     0
  0
VISUALSTYLE
  5
2D7
102
{ACAD_XDICTIONARY
360
52B
102
}
102
{ACAD_REACTORS
330
2CE
102
}
330
2CE
100
AcDbVisualStyle
  2

 70
     9
 71
     3
 72
     2
 73
     0
 90
        0
 40
-0.6
 41
-30.0
 62
     5
 63
     7
 74
     2
 91
        2
 64
     7
 65
   257
 75
     1
175
     1
 42
40.0
 92
        8
 66
     7
 43
1.0
 76
     1
 77
     6
 78
     2
 67
     7
 79
     3
170
     0
171
     0
290
     0
174
     0
 93
        1
 44
0.0
173
     0
291
     0
 45
0.0
1001
ACAD
1000
AcDbSavedByObjectVersion
1070
     0
  0
VISUALSTYLE
  5
2D9
102
{ACAD_XDICTIONARY
360
52F
102
}
102
{ACAD_REACTORS
330
2CE
102
}
330
2CE
100
AcDbVisualStyle
  2

 70
    11
 71
     2
 72
     2
 73
     0
 90
        0
 40
-0.6
 41
-30.0
 62
     5
 63
     7
 74
     1
 91
        4
 64
     7
 65
   257
 75
     1
175
     1
 42
1.0
 92
        8
 66
     7
 43
1.0
 76
     1
 77
     6
 78
     2
 67
     7
 79
     5
170
     0
171
     0
290
     0
174
     0
 93
        1
 44
-50.0
173
     0
291
     1
 45
0.0
1001
ACAD
1000
AcDbSavedByObjectVersion
1070
     0
  0
VISUALSTYLE
  5
451
102
{ACAD_XDICTIONARY
360
540
102
}
102
{ACAD_REACTORS
330
2CE
102
}
330
2CE
100
AcDbVisualStyle
  2

 70
    22
 71
     2
 72
     2
 73
     0
 90
        0
 40
-0.6
 41
-30.0
 62
     5
 63
     7
 74
     1
 91
        4
 64
     7
 65
   257
 75
     1
175
     1
 42
1.0
 92
        8
 66
     7
 43
1.0
 76
     1
 77
     6
 78
     2
 67
     7
 79
     5
170
     0
171
     0
290
     0
174
     0
 93
        1
 44
0.0
173
     0
291
     1
 45
0.0
1001
ACAD
1000
AcDbSavedByObjectVersion
1070
     0
  0
VISUALSTYLE
  5
2DD
102
{ACAD_XDICTIONARY
360
537
102
}
102
{ACAD_REACTORS
330
2CE
102
}
330
2CE
100
AcDbVisualStyle
  2

 70
    15
 71
     2
 72
     2
 73
     0
 90
        0
 40
-0.6
 41
-30.0
 62
     5
 63
     7
 74
     1
 91
        4
 64
     7
 65
   257
 75
     1
175
     1
 42
1.0
 92
        8
 66
     7
 43
1.0
 76
     1
 77
     6
 78
     2
 67
     7
 79
     5
170
     0
171
     0
290
     0
174
     0
 93
        1
 44
0.0
173
     0
291
     1
 45
0.0
1001
ACAD
1000
AcDbSavedByObjectVersion
1070
     0
  0
VISUALSTYLE
  5
2CF
102
{ACAD_XDICTIONARY
360
51B
102
}
102
{ACAD_REACTORS
330
2CE
102
}
330
2CE
100
AcDbVisualStyle
  2

 70
     0
 71
     2
 72
     1
 73
     1
 90
        2
 40
-0.6
 41
30.0
 62
     5
 63
     7
 74
     0
 91
        4
 64
     7
 65
   257
 75
     1
175
     1
 42
1.0
 92
        8
 66
     7
 43
1.0
 76
     1
 77
     6
 78
     2
 67
     7
 79
     5
170
     0
171
     0
290
     0
174
     0
 93
       13
 44
0.0
173
     0
291
     1
 45
0.0
1001
ACAD
1000
AcDbSavedByObjectVersion
1070
     0
  0
VISUALSTYLE
  5
2D0
102
{ACAD_XDICTIONARY
360
51D
102
}
102
{ACAD_REACTORS
330
2CE
102
}
330
2CE
100
AcDbVisualStyle
  2

 70
     1
 71
     2
 72
     1
 73
     1
 90
        2
 40
-0.6
 41
30.0
 62
     5
 63
     7
 74
     1
 91
        4
 64
     7
 65
   257
 75
     1
175
     1
 42
1.0
 92
        0
 66
   257
 43
1.0
 76
     1
 77
     6
 78
     2
 67
     7
 79
     5
170
     0
171
     0
290
     0
174
     0
 93
       13
 44
0.0
173
     0
291
     1
 45
0.0
1001
ACAD
1000
AcDbSavedByObjectVersion
1070
     0
  0
VISUALSTYLE
  5
2D1
102
{ACAD_XDICTIONARY
360
51F
102
}
102
{ACAD_REACTORS
330
2CE
102
}
330
2CE
100
AcDbVisualStyle
  2

 70
     2
 71
     2
 72
     2
 73
     1
 90
        2
 40
-0.6
 41
30.0
 62
     5
 63
     7
 74
     0
 91
        4
 64
     7
 65
   257
 75
     1
175
     1
 42
1.0
 92
        0
 66
     7
 43
1.0
 76
     1
 77
     6
 78
     2
 67
     7
 79
     5
170
     0
171
     0
290
     0
174
     0
 93
       13
 44
0.0
173
     0
291
     1
 45
0.0
1001
ACAD
1000
AcDbSavedByObjectVersion
1070
     0
  0
VISUALSTYLE
  5
2D2
102
{ACAD_XDICTIONARY
360
521
102
}
102
{ACAD_REACTORS
330
2CE
102
}
330
2CE
100
AcDbVisualStyle
  2

 70
     3
 71
     2
 72
     2
 73
     1
 90
        2
 40
-0.6
 41
30.0
 62
     5
 63
     7
 74
     1
 91
        4
 64
     7
 65
   257
 75
     1
175
     1
 42
1.0
 92
        0
 66
   257
 43
1.0
 76
     1
 77
     6
 78
     2
 67
     7
 79
     5
170
     0
171
     0
290
     0
174
     0
 93
       13
 44
0.0
173
     0
291
     1
 45
0.0
1001
ACAD
1000
AcDbSavedByObjectVersion
1070
     0
  0
VISUALSTYLE
  5
44F
102
{ACAD_XDICTIONARY
360
53C
102
}
102
{ACAD_REACTORS
330
2CE
102
}
330
2CE
100
AcDbVisualStyle
  2

 70
    20
 71
     2
 72
     2
 73
     0
 90
        0
 40
-0.6
 41
-30.0
 62
     5
 63
     7
 74
     1
 91
        4
 64
     7
 65
   257
 75
     1
175
     1
 42
1.0
 92
       10
 66
     7
 43
1.0
 76
     1
 77
     6
 78
     2
 67
     7
 79
     5
170
     0
171
     0
290
     0
174
     0
 93
        1
 44
0.0
173
     0
291
     1
 45
0.0
1001
ACAD
1000
AcDbSavedByObjectVersion
1070
     0
  0
VISUALSTYLE
  5
2DC
102
{ACAD_XDICTIONARY
360
535
102
}
102
{ACAD_REACTORS
330
2CE
102
}
330
2CE
100
AcDbVisualStyle
  2

 70
    14
 71
     2
 72
     2
 73
     0
 90
        0
 40
-0.6
 41
-30.0
 62
     5
 63
     7
 74
     1
 91
        4
 64
     7
 65
   257
 75
     7
175
     7
 42
1.0
 92
        8
 66
     7
 43
1.0
 76
     1
 77
     6
 78
     2
 67
     7
 79
     5
170
     0
171
     0
290
     0
174
     0
 93
        1
 44
0.0
173
     0
291
     1
 45
0.0
1001
ACAD
1000
AcDbSavedByObjectVersion
1070
     0
  0
VISUALSTYLE
  5
450
102
{ACAD_XDICTIONARY
360
53E
102
}
102
{ACAD_REACTORS
330
2CE
102
}
330
2CE
100
AcDbVisualStyle
  2

 70
    21
 71
     2
 72
     2
 73
     0
 90
        0
 40
-0.6
 41
-30.0
 62
     5
 63
     7
 74
     1
 91
        4
 64
     7
 65
   257
 75
     1
175
     1
 42
1.0
 92
        9
 66
     7
 43
1.0
 76
     1
 77
     6
 78
     2
 67
     7
 79
     5
170
     0
171
     0
290
     0
174
     0
 93
        1
 44
0.0
173
     0
291
     1
 45
0.0
1001
ACAD
1000
AcDbSavedByObjectVersion
1070
     0
  0
VISUALSTYLE
  5
2D8
102
{ACAD_XDICTIONARY
360
52D
102
}
102
{ACAD_REACTORS
330
2CE
102
}
330
2CE
100
AcDbVisualStyle
  2

 70
     8
 71
     2
 72
     2
 73
     0
 90
        0
 40
-0.6
 41
-30.0
 62
     5
 63
     7
 74
     1
 91
        0
 64
     7
 65
   257
 75
     1
175
     1
 42
1.0
 92
        8
 66
     8
 43
1.0
 76
     1
 77
     6
 78
     2
 67
     7
 79
     5
170
     0
171
     0
290
     0
174
     0
 93
       13
 44
0.0
173
     0
291
     0
 45
0.0
1001
ACAD
1000
AcDbSavedByObjectVersion
1070
     0
  0
VISUALSTYLE
  5
2DB
102
{ACAD_XDICTIONARY
360
533
102
}
102
{ACAD_REACTORS
330
2CE
102
}
330
2CE
100
AcDbVisualStyle
  2

 70
    13
 71
     2
 72
     2
 73
     0
 90
        0
 40
-0.6
 41
-30.0
 62
     5
 63
     7
 74
     1
 91
        4
 64
     7
 65
   257
 75
     1
175
     1
 42
1.0
 92
       12
 66
     7
 43
1.0
 76
     1
 77
     6
 78
     2
 67
     7
 79
     5
170
     0
171
     0
290
     0
174
     0
 93
        1
 44
0.0
173
     0
291
     1
 45
0.0
1001
ACAD
1000
AcDbSavedByObjectVersion
1070
     0
  0
DICTIONARYVAR
  5
483
102
{ACAD_REACTORS
330
355
102
}
330
355
100
DictionaryVariables
280
     0
  1
1:1
  0
DICTIONARYVAR
  5
482
102
{ACAD_REACTORS
330
355
102
}
330
355
100
DictionaryVariables
280
     0
  1
STANDARD
  0
DICTIONARYVAR
  5
356
102
{ACAD_REACTORS
330
355
102
}
330
355
100
DictionaryVariables
280
     0
  1
STANDARD
  0
DICTIONARYVAR
  5
375
102
{ACAD_REACTORS
330
355
102
}
330
355
100
DictionaryVariables
280
     0
  1
1
  0
DICTIONARYVAR
  5
374
102
{ACAD_REACTORS
330
355
102
}
330
355
100
DictionaryVariables
280
     0
  1
0
  0
DICTIONARYVAR
  5
373
102
{ACAD_REACTORS
330
355
102
}
330
355
100
DictionaryVariables
280
     0
  1
127
  0
DICTIONARYVAR
  5
513
102
{ACAD_REACTORS
330
355
102
}
330
355
100
DictionaryVariables
280
     0
  1
2
  0
DICTIONARY
  5
517
330
15C
100
AcDbDictionary
280
     1
281
     1
  3
ACAD_XREC_ROUNDTRIP
360
518
  0
DICTIONARY
  5
519
330
160
100
AcDbDictionary
280
     1
281
     1
  3
ACAD_XREC_ROUNDTRIP
360
51A
  0
DICTIONARY
  5
37D
330
2CC
100
AcDbDictionary
280
     1
281
     1
  3
ACAD_XREC_ROUNDTRIP
360
37E
  0
DICTIONARY
  5
37B
330
2CB
100
AcDbDictionary
280
     1
281
     1
  3
ACAD_XREC_ROUNDTRIP
360
37C
  0
DICTIONARY
  5
37F
330
2CD
100
AcDbDictionary
280
     1
281
     1
  3
ACAD_XREC_ROUNDTRIP
360
380
  0
DICTIONARY
  5
485
330
2E1
100
AcDbDictionary
280
     1
281
     1
  3
ACAD_ROUNDTRIP_2008_TABLESTYLE_CELLSTYLEMAP
360
514
  3
ACAD_XREC_ROUNDTRIP
360
53B
  0
DICTIONARY
  5
525
330
2D4
100
AcDbDictionary
280
     1
281
     1
  3
ACAD_XREC_ROUNDTRIP
360
526
  0
DICTIONARY
  5
529
330
2D6
100
AcDbDictionary
280
     1
281
     1
  3
ACAD_XREC_ROUNDTRIP
360
52A
  0
DICTIONARY
  5
527
330
2D5
100
AcDbDictionary
280
     1
281
     1
  3
ACAD_XREC_ROUNDTRIP
360
528
  0
DICTIONARY
  5
523
330
2D3
100
AcDbDictionary
280
     1
281
     1
  3
ACAD_XREC_ROUNDTRIP
360
524
  0
DICTIONARY
  5
531
330
2DA
100
AcDbDictionary
280
     1
281
     1
  3
ACAD_XREC_ROUNDTRIP
360
532
  0
DICTIONARY
  5
539
330
2DE
100
AcDbDictionary
280
     1
281
     1
  3
ACAD_XREC_ROUNDTRIP
360
53A
  0
DICTIONARY
  5
52B
330
2D7
100
AcDbDictionary
280
     1
281
     1
  3
ACAD_XREC_ROUNDTRIP
360
52C
  0
DICTIONARY
  5
52F
330
2D9
100
AcDbDictionary
280
     1
281
     1
  3
ACAD_XREC_ROUNDTRIP
360
530
  0
DICTIONARY
  5
540
330
451
100
AcDbDictionary
280
     1
281
     1
  3
ACAD_XREC_ROUNDTRIP
360
541
  0
DICTIONARY
  5
537
330
2DD
100
AcDbDictionary
280
     1
281
     1
  3
ACAD_XREC_ROUNDTRIP
360
538
  0
DICTIONARY
  5
51B
330
2CF
100
AcDbDictionary
280
     1
281
     1
  3
ACAD_XREC_ROUNDTRIP
360
51C
  0
DICTIONARY
  5
51D
330
2D0
100
AcDbDictionary
280
     1
281
     1
  3
ACAD_XREC_ROUNDTRIP
360
51E
  0
DICTIONARY
  5
51F
330
2D1
100
AcDbDictionary
280
     1
281
     1
  3
ACAD_XREC_ROUNDTRIP
360
520
  0
DICTIONARY
  5
521
330
2D2
100
AcDbDictionary
280
     1
281
     1
  3
ACAD_XREC_ROUNDTRIP
360
522
  0
DICTIONARY
  5
53C
330
44F
100
AcDbDictionary
280
     1
281
     1
  3
ACAD_XREC_ROUNDTRIP
360
53D
  0
DICTIONARY
  5
535
330
2DC
100
AcDbDictionary
280
     1
281
     1
  3
ACAD_XREC_ROUNDTRIP
360
536
  0
DICTIONARY
  5
53E
330
450
100
AcDbDictionary
280
     1
281
     1
  3
ACAD_XREC_ROUNDTRIP
360
53F
  0
DICTIONARY
  5
52D
330
2D8
100
AcDbDictionary
280
     1
281
     1
  3
ACAD_XREC_ROUNDTRIP
360
52E
  0
DICTIONARY
  5
533
330
2DB
100
AcDbDictionary
280
     1
281
     1
  3
ACAD_XREC_ROUNDTRIP
360
534
  0
XRECORD
  5
518
102
{ACAD_REACTORS
330
517
102
}
330
517
100
AcDbXrecord
280
     1
102
SHADEPLOT
 70
     0
102
SHADEPLOTRESLEVEL
 70
     2
102
SHADEPLOTCUSTOMDPI
 70
   300
  0
XRECORD
  5
51A
102
{ACAD_REACTORS
330
519
102
}
330
519
100
AcDbXrecord
280
     1
102
SHADEPLOT
 70
     0
102
SHADEPLOTRESLEVEL
 70
     2
102
SHADEPLOTCUSTOMDPI
 70
   300
  0
XRECORD
  5
37E
102
{ACAD_REACTORS
330
37D
102
}
330
37D
100
AcDbXrecord
280
     1
102
MATERIAL
148
0.0
149
0.0
149
0.0
 93
        0
 94
      127
282
     0
 72
     1
 77
     1
171
     1
175
     1
179
     1
273
     0
  0
XRECORD
  5
37C
102
{ACAD_REACTORS
330
37B
102
}
330
37B
100
AcDbXrecord
280
     1
102
MATERIAL
148
0.0
149
0.0
149
0.0
 93
        0
 94
      127
282
     0
 72
     1
 77
     1
171
     1
175
     1
179
     1
273
     0
  0
XRECORD
  5
380
102
{ACAD_REACTORS
330
37F
102
}
330
37F
100
AcDbXrecord
280
     1
102
MATERIAL
148
0.0
149
0.0
149
0.0
 93
        0
 94
      127
282
     0
 72
     1
 77
     1
171
     1
175
     1
179
     1
273
     0
  0
CELLSTYLEMAP
  5
514
102
{ACAD_REACTORS
330
485
102
}
330
485
100
AcDbCellStyleMap
 90
        3
300
CELLSTYLE
  1
TABLEFORMAT_BEGIN
 90
        5
170
     1
 91
        0
 92
    32768
 62
   257
 93
        1
300
CONTENTFORMAT
  1
CONTENTFORMAT_BEGIN
 90
        0
 91
        0
 92
      512
 93
        0
300

 40
0.0
140
1.0
 94
        5
 62
     0
340
150
144
0.25
309
CONTENTFORMAT_END
171
     1
301
MARGIN
  1
CELLMARGIN_BEGIN
 40
0.06
 40
0.06
 40
0.06
 40
0.06
 40
0.18
 40
0.18
309
CELLMARGIN_END
 94
        6
 95
        1
302
GRIDFORMAT
  1
GRIDFORMAT_BEGIN
 90
        0
 91
        1
 62
     0
 92
       -2
340
0
 93
        0
 40
0.045
309
GRIDFORMAT_END
 95
        2
302
GRIDFORMAT
  1
GRIDFORMAT_BEGIN
 90
        0
 91
        1
 62
     0
 92
       -2
340
0
 93
        0
 40
0.045
309
GRIDFORMAT_END
 95
        4
302
GRIDFORMAT
  1
GRIDFORMAT_BEGIN
 90
        0
 91
        1
 62
     0
 92
       -2
340
0
 93
        0
 40
0.045
309
GRIDFORMAT_END
 95
        8
302
GRIDFORMAT
  1
GRIDFORMAT_BEGIN
 90
        0
 91
        1
 62
     0
 92
       -2
340
0
 93
        0
 40
0.045
309
GRIDFORMAT_END
 95
       16
302
GRIDFORMAT
  1
GRIDFORMAT_BEGIN
 90
        0
 91
        1
 62
     0
 92
       -2
340
0
 93
        0
 40
0.045
309
GRIDFORMAT_END
 95
       32
302
GRIDFORMAT
  1
GRIDFORMAT_BEGIN
 90
        0
 91
        1
 62
     0
 92
       -2
340
0
 93
        0
 40
0.045
309
GRIDFORMAT_END
309
TABLEFORMAT_END
  1
CELLSTYLE_BEGIN
 90
        1
 91
        1
300
_TITLE
309
CELLSTYLE_END
300
CELLSTYLE
  1
TABLEFORMAT_BEGIN
 90
        5
170
     1
 91
        0
 92
        0
 62
   257
 93
        1
300
CONTENTFORMAT
  1
CONTENTFORMAT_BEGIN
 90
        0
 91
        0
 92
      512
 93
        0
300

 40
0.0
140
1.0
 94
        5
 62
     0
340
150
144
0.18
309
CONTENTFORMAT_END
171
     1
301
MARGIN
  1
CELLMARGIN_BEGIN
 40
0.06
 40
0.06
 40
0.06
 40
0.06
 40
0.18
 40
0.18
309
CELLMARGIN_END
 94
        6
 95
        1
302
GRIDFORMAT
  1
GRIDFORMAT_BEGIN
 90
        0
 91
        1
 62
     0
 92
       -2
340
0
 93
        0
 40
0.045
309
GRIDFORMAT_END
 95
        2
302
GRIDFORMAT
  1
GRIDFORMAT_BEGIN
 90
        0
 91
        1
 62
     0
 92
       -2
340
0
 93
        0
 40
0.045
309
GRIDFORMAT_END
 95
        4
302
GRIDFORMAT
  1
GRIDFORMAT_BEGIN
 90
        0
 91
        1
 62
     0
 92
       -2
340
0
 93
        0
 40
0.045
309
GRIDFORMAT_END
 95
        8
302
GRIDFORMAT
  1
GRIDFORMAT_BEGIN
 90
        0
 91
        1
 62
     0
 92
       -2
340
0
 93
        0
 40
0.045
309
GRIDFORMAT_END
 95
       16
302
GRIDFORMAT
  1
GRIDFORMAT_BEGIN
 90
        0
 91
        1
 62
     0
 92
       -2
340
0
 93
        0
 40
0.045
309
GRIDFORMAT_END
 95
       32
302
GRIDFORMAT
  1
GRIDFORMAT_BEGIN
 90
        0
 91
        1
 62
     0
 92
       -2
340
0
 93
        0
 40
0.045
309
GRIDFORMAT_END
309
TABLEFORMAT_END
  1
CELLSTYLE_BEGIN
 90
        2
 91
        1
300
_HEADER
309
CELLSTYLE_END
300
CELLSTYLE
  1
TABLEFORMAT_BEGIN
 90
        5
170
     1
 91
        0
 92
        0
 62
   257
 93
        1
300
CONTENTFORMAT
  1
CONTENTFORMAT_BEGIN
 90
        0
 91
        0
 92
      512
 93
        0
300

 40
0.0
140
1.0
 94
        2
 62
     0
340
150
144
0.18
309
CONTENTFORMAT_END
171
     1
301
MARGIN
  1
CELLMARGIN_BEGIN
 40
0.06
 40
0.06
 40
0.06
 40
0.06
 40
0.18
 40
0.18
309
CELLMARGIN_END
 94
        6
 95
        1
302
GRIDFORMAT
  1
GRIDFORMAT_BEGIN
 90
        0
 91
        1
 62
     0
 92
       -2
340
0
 93
        0
 40
0.045
309
GRIDFORMAT_END
 95
        2
302
GRIDFORMAT
  1
GRIDFORMAT_BEGIN
 90
        0
 91
        1
 62
     0
 92
       -2
340
0
 93
        0
 40
0.045
309
GRIDFORMAT_END
 95
        4
302
GRIDFORMAT
  1
GRIDFORMAT_BEGIN
 90
        0
 91
        1
 62
     0
 92
       -2
340
0
 93
        0
 40
0.045
309
GRIDFORMAT_END
 95
        8
302
GRIDFORMAT
  1
GRIDFORMAT_BEGIN
 90
        0
 91
        1
 62
     0
 92
       -2
340
0
 93
        0
 40
0.045
309
GRIDFORMAT_END
 95
       16
302
GRIDFORMAT
  1
GRIDFORMAT_BEGIN
 90
        0
 91
        1
 62
     0
 92
       -2
340
0
 93
        0
 40
0.045
309
GRIDFORMAT_END
 95
       32
302
GRIDFORMAT
  1
GRIDFORMAT_BEGIN
 90
        0
 91
        1
 62
     0
 92
       -2
340
0
 93
        0
 40
0.045
309
GRIDFORMAT_END
309
TABLEFORMAT_END
  1
CELLSTYLE_BEGIN
 90
        3
 91
        2
300
_DATA
309
CELLSTYLE_END
  0
XRECORD
  5
53B
102
{ACAD_REACTORS
330
485
102
}
330
485
100
AcDbXrecord
280
     1
102
ACAD_ROUNDTRIP_PRE2007_TABLESTYLE
 90
      512
 91
        0
  1

 92
      512
 93
        0
  2

 94
      512
 95
        0
  3

  0
XRECORD
  5
526
102
{ACAD_REACTORS
330
525
102
}
330
525
100
AcDbXrecord
280
     1
102
RTVSPropertyOp0
 70
     1
102
RTVSPropertyOp1
 70
     1
102
RTVSPropertyOp2
 70
     1
102
RTVSPropertyOp3
 70
     1
102
RTVSPropertyOp4
 70
     1
102
RTVSPropertyOp5
 70
     1
102
RTVSPropertyOp6
 70
     1
102
RTVSPropertyOp7
 70
     1
102
RTVSPropertyOp8
 70
     1
102
RTVSPropertyOp9
 70
     1
102
RTVSPropertyOp10
 70
     1
102
RTVSPropertyOp11
 70
     1
102
RTVSPropertyOp12
 70
     1
102
RTVSPropertyOp13
 70
     1
102
RTVSPropertyOp14
 70
     1
102
RTVSPropertyOp15
 70
     1
102
RTVSPropertyOp16
 70
     1
102
RTVSPropertyOp17
 70
     1
102
RTVSPropertyOp18
 70
     1
102
RTVSPropertyOp19
 70
     1
102
RTVSPropertyOp20
 70
     1
102
RTVSPropertyOp21
 70
     1
102
RTVSPropertyOp22
 70
     1
102
RTVSPropertyOp23
 70
     1
102
RTVSPropertyOp24
 70
     1
102
RTVSPropertyOp25
 70
     1
102
RTVSPropertyOp26
 70
     1
102
RTVSPropertyOp27
 70
     1
  0
XRECORD
  5
52A
102
{ACAD_REACTORS
330
529
102
}
330
529
100
AcDbXrecord
280
     1
102
RTVSPropertyOp0
 70
     1
102
RTVSPropertyOp1
 70
     1
102
RTVSPropertyOp2
 70
     1
102
RTVSPropertyOp3
 70
     1
102
RTVSPropertyOp4
 70
     1
102
RTVSPropertyOp5
 70
     1
102
RTVSPropertyOp6
 70
     1
102
RTVSPropertyOp7
 70
     1
102
RTVSPropertyOp8
 70
     1
102
RTVSPropertyOp9
 70
     1
102
RTVSPropertyOp10
 70
     1
102
RTVSPropertyOp11
 70
     1
102
RTVSPropertyOp12
 70
     1
102
RTVSPropertyOp13
 70
     1
102
RTVSPropertyOp14
 70
     1
102
RTVSPropertyOp15
 70
     1
102
RTVSPropertyOp16
 70
     1
102
RTVSPropertyOp17
 70
     1
102
RTVSPropertyOp18
 70
     1
102
RTVSPropertyOp19
 70
     1
102
RTVSPropertyOp20
 70
     1
102
RTVSPropertyOp21
 70
     1
102
RTVSPropertyOp22
 70
     1
102
RTVSPropertyOp23
 70
     1
102
RTVSPropertyOp24
 70
     1
102
RTVSPropertyOp25
 70
     1
102
RTVSPropertyOp26
 70
     1
102
RTVSPropertyOp27
 70
     1
  0
XRECORD
  5
528
102
{ACAD_REACTORS
330
527
102
}
330
527
100
AcDbXrecord
280
     1
102
RTVSPropertyOp0
 70
     1
102
RTVSPropertyOp1
 70
     1
102
RTVSPropertyOp2
 70
     1
102
RTVSPropertyOp3
 70
     1
102
RTVSPropertyOp4
 70
     1
102
RTVSPropertyOp5
 70
     1
102
RTVSPropertyOp6
 70
     1
102
RTVSPropertyOp7
 70
     1
102
RTVSPropertyOp8
 70
     1
102
RTVSPropertyOp9
 70
     1
102
RTVSPropertyOp10
 70
     1
102
RTVSPropertyOp11
 70
     1
102
RTVSPropertyOp12
 70
     1
102
RTVSPropertyOp13
 70
     1
102
RTVSPropertyOp14
 70
     1
102
RTVSPropertyOp15
 70
     1
102
RTVSPropertyOp16
 70
     1
102
RTVSPropertyOp17
 70
     1
102
RTVSPropertyOp18
 70
     1
102
RTVSPropertyOp19
 70
     1
102
RTVSPropertyOp20
 70
     1
102
RTVSPropertyOp21
 70
     1
102
RTVSPropertyOp22
 70
     1
102
RTVSPropertyOp23
 70
     1
102
RTVSPropertyOp24
 70
     1
102
RTVSPropertyOp25
 70
     1
102
RTVSPropertyOp26
 70
     1
102
RTVSPropertyOp27
 70
     1
  0
XRECORD
  5
524
102
{ACAD_REACTORS
330
523
102
}
330
523
100
AcDbXrecord
280
     1
102
RTVSPropertyOp0
 70
     1
102
RTVSPropertyOp1
 70
     1
102
RTVSPropertyOp2
 70
     1
102
RTVSPropertyOp3
 70
     1
102
RTVSPropertyOp4
 70
     1
102
RTVSPropertyOp5
 70
     1
102
RTVSPropertyOp6
 70
     1
102
RTVSPropertyOp7
 70
     1
102
RTVSPropertyOp8
 70
     1
102
RTVSPropertyOp9
 70
     1
102
RTVSPropertyOp10
 70
     1
102
RTVSPropertyOp11
 70
     1
102
RTVSPropertyOp12
 70
     1
102
RTVSPropertyOp13
 70
     1
102
RTVSPropertyOp14
 70
     1
102
RTVSPropertyOp15
 70
     1
102
RTVSPropertyOp16
 70
     1
102
RTVSPropertyOp17
 70
     1
102
RTVSPropertyOp18
 70
     1
102
RTVSPropertyOp19
 70
     1
102
RTVSPropertyOp20
 70
     1
102
RTVSPropertyOp21
 70
     1
102
RTVSPropertyOp22
 70
     1
102
RTVSPropertyOp23
 70
     1
102
RTVSPropertyOp24
 70
     1
102
RTVSPropertyOp25
 70
     1
102
RTVSPropertyOp26
 70
     1
102
RTVSPropertyOp27
 70
     1
  0
XRECORD
  5
532
102
{ACAD_REACTORS
330
531
102
}
330
531
100
AcDbXrecord
280
     1
102
RTVSPropertyOp0
 70
     1
102
RTVSPropertyOp1
 70
     1
102
RTVSPropertyOp2
 70
     1
102
RTVSPropertyOp3
 70
     1
102
RTVSPropertyOp4
 70
     1
102
RTVSPropertyOp5
 70
     1
102
RTVSPropertyOp6
 70
     1
102
RTVSPropertyOp7
 70
     1
102
RTVSPropertyOp8
 70
     1
102
RTVSPropertyOp9
 70
     1
102
RTVSPropertyOp10
 70
     1
102
RTVSPropertyOp11
 70
     1
102
RTVSPropertyOp12
 70
     1
102
RTVSPropertyOp13
 70
     1
102
RTVSPropertyOp14
 70
     1
102
RTVSPropertyOp15
 70
     1
102
RTVSPropertyOp16
 70
     1
102
RTVSPropertyOp17
 70
     1
102
RTVSPropertyOp18
 70
     1
102
RTVSPropertyOp19
 70
     1
102
RTVSPropertyOp20
 70
     1
102
RTVSPropertyOp21
 70
     1
102
RTVSPropertyOp22
 70
     1
102
RTVSPropertyOp23
 70
     1
102
RTVSPropertyOp24
 70
     1
102
RTVSPropertyOp25
 70
     1
102
RTVSPropertyOp26
 70
     1
102
RTVSPropertyOp27
 70
     1
  0
XRECORD
  5
53A
102
{ACAD_REACTORS
330
539
102
}
330
539
100
AcDbXrecord
280
     1
102
RTVSPropertyOp0
 70
     1
102
RTVSPropertyOp1
 70
     1
102
RTVSPropertyOp2
 70
     1
102
RTVSPropertyOp3
 70
     1
102
RTVSPropertyOp4
 70
     1
102
RTVSPropertyOp5
 70
     1
102
RTVSPropertyOp6
 70
     1
102
RTVSPropertyOp7
 70
     1
102
RTVSPropertyOp8
 70
     1
102
RTVSPropertyOp9
 70
     1
102
RTVSPropertyOp10
 70
     1
102
RTVSPropertyOp11
 70
     1
102
RTVSPropertyOp12
 70
     1
102
RTVSPropertyOp13
 70
     1
102
RTVSPropertyOp14
 70
     1
102
RTVSPropertyOp15
 70
     1
102
RTVSPropertyOp16
 70
     1
102
RTVSPropertyOp17
 70
     1
102
RTVSPropertyOp18
 70
     1
102
RTVSPropertyOp19
 70
     1
102
RTVSPropertyOp20
 70
     1
102
RTVSPropertyOp21
 70
     1
102
RTVSPropertyOp22
 70
     1
102
RTVSPropertyOp23
 70
     1
102
RTVSPropertyOp24
 70
     1
102
RTVSPropertyOp25
 70
     1
102
RTVSPropertyOp26
 70
     1
102
RTVSPropertyOp27
 70
     1
  0
XRECORD
  5
52C
102
{ACAD_REACTORS
330
52B
102
}
330
52B
100
AcDbXrecord
280
     1
102
RTVSPropertyOp0
 70
     1
102
RTVSPropertyOp1
 70
     1
102
RTVSPropertyOp2
 70
     1
102
RTVSPropertyOp3
 70
     1
102
RTVSPropertyOp4
 70
     1
102
RTVSPropertyOp5
 70
     1
102
RTVSPropertyOp6
 70
     1
102
RTVSPropertyOp7
 70
     1
102
RTVSPropertyOp8
 70
     1
102
RTVSPropertyOp9
 70
     1
102
RTVSPropertyOp10
 70
     1
102
RTVSPropertyOp11
 70
     1
102
RTVSPropertyOp12
 70
     1
102
RTVSPropertyOp13
 70
     1
102
RTVSPropertyOp14
 70
     1
102
RTVSPropertyOp15
 70
     1
102
RTVSPropertyOp16
 70
     1
102
RTVSPropertyOp17
 70
     1
102
RTVSPropertyOp18
 70
     1
102
RTVSPropertyOp19
 70
     1
102
RTVSPropertyOp20
 70
     1
102
RTVSPropertyOp21
 70
     1
102
RTVSPropertyOp22
 70
     1
102
RTVSPropertyOp23
 70
     1
102
RTVSPropertyOp24
 70
     1
102
RTVSPropertyOp25
 70
     1
102
RTVSPropertyOp26
 70
     1
102
RTVSPropertyOp27
 70
     1
  0
XRECORD
  5
530
102
{ACAD_REACTORS
330
52F
102
}
330
52F
100
AcDbXrecord
280
     1
102
RTVSPropertyOp0
 70
     1
102
RTVSPropertyOp1
 70
     1
102
RTVSPropertyOp2
 70
     1
102
RTVSPropertyOp3
 70
     1
102
RTVSPropertyOp4
 70
     1
102
RTVSPropertyOp5
 70
     1
102
RTVSPropertyOp6
 70
     1
102
RTVSPropertyOp7
 70
     1
102
RTVSPropertyOp8
 70
     1
102
RTVSPropertyOp9
 70
     1
102
RTVSPropertyOp10
 70
     1
102
RTVSPropertyOp11
 70
     1
102
RTVSPropertyOp12
 70
     1
102
RTVSPropertyOp13
 70
     1
102
RTVSPropertyOp14
 70
     1
102
RTVSPropertyOp15
 70
     1
102
RTVSPropertyOp16
 70
     1
102
RTVSPropertyOp17
 70
     1
102
RTVSPropertyOp18
 70
     1
102
RTVSPropertyOp19
 70
     1
102
RTVSPropertyOp20
 70
     1
102
RTVSPropertyOp21
 70
     1
102
RTVSPropertyOp22
 70
     1
102
RTVSPropertyOp23
 70
     1
102
RTVSPropertyOp24
 70
     1
102
RTVSPropertyOp25
 70
     1
102
RTVSPropertyOp26
 70
     1
102
RTVSPropertyOp27
 70
     1
  0
XRECORD
  5
541
102
{ACAD_REACTORS
330
540
102
}
330
540
100
AcDbXrecord
280
     1
102
RTVSPropertyOp0
 70
     0
102
RTVSPropertyOp1
 70
     0
102
RTVSPropertyOp2
 70
     0
102
RTVSPropertyOp3
 70
     0
102
RTVSPropertyOp4
 70
     0
102
RTVSPropertyOp5
 70
     0
102
RTVSPropertyOp6
 70
     0
102
RTVSPropertyOp7
 70
     0
102
RTVSPropertyOp8
 70
     0
102
RTVSPropertyOp9
 70
     0
102
RTVSPropertyOp10
 70
     0
102
RTVSPropertyOp11
 70
     0
102
RTVSPropertyOp12
 70
     0
102
RTVSPropertyOp13
 70
     0
102
RTVSPropertyOp14
 70
     2
102
RTVSPropertyOp15
 70
     0
102
RTVSPropertyOp16
 70
     0
102
RTVSPropertyOp17
 70
     0
102
RTVSPropertyOp18
 70
     0
102
RTVSPropertyOp19
 70
     0
102
RTVSPropertyOp20
 70
     0
102
RTVSPropertyOp21
 70
     0
102
RTVSPropertyOp22
 70
     0
102
RTVSPropertyOp23
 70
     0
102
RTVSPropertyOp24
 70
     0
102
RTVSPropertyOp25
 70
     0
102
RTVSPropertyOp26
 70
     0
102
RTVSPropertyOp27
 70
     0
  0
XRECORD
  5
538
102
{ACAD_REACTORS
330
537
102
}
330
537
100
AcDbXrecord
280
     1
102
RTVSPropertyOp0
 70
     1
102
RTVSPropertyOp1
 70
     1
102
RTVSPropertyOp2
 70
     1
102
RTVSPropertyOp3
 70
     1
102
RTVSPropertyOp4
 70
     1
102
RTVSPropertyOp5
 70
     1
102
RTVSPropertyOp6
 70
     1
102
RTVSPropertyOp7
 70
     1
102
RTVSPropertyOp8
 70
     1
102
RTVSPropertyOp9
 70
     1
102
RTVSPropertyOp10
 70
     1
102
RTVSPropertyOp11
 70
     1
102
RTVSPropertyOp12
 70
     1
102
RTVSPropertyOp13
 70
     1
102
RTVSPropertyOp14
 70
     1
102
RTVSPropertyOp15
 70
     1
102
RTVSPropertyOp16
 70
     1
102
RTVSPropertyOp17
 70
     1
102
RTVSPropertyOp18
 70
     1
102
RTVSPropertyOp19
 70
     1
102
RTVSPropertyOp20
 70
     1
102
RTVSPropertyOp21
 70
     1
102
RTVSPropertyOp22
 70
     1
102
RTVSPropertyOp23
 70
     1
102
RTVSPropertyOp24
 70
     1
102
RTVSPropertyOp25
 70
     1
102
RTVSPropertyOp26
 70
     1
102
RTVSPropertyOp27
 70
     1
  0
XRECORD
  5
51C
102
{ACAD_REACTORS
330
51B
102
}
330
51B
100
AcDbXrecord
280
     1
102
RTVSPropertyOp0
 70
     1
102
RTVSPropertyOp1
 70
     1
102
RTVSPropertyOp2
 70
     1
102
RTVSPropertyOp3
 70
     1
102
RTVSPropertyOp4
 70
     1
102
RTVSPropertyOp5
 70
     1
102
RTVSPropertyOp6
 70
     1
102
RTVSPropertyOp7
 70
     1
102
RTVSPropertyOp8
 70
     1
102
RTVSPropertyOp9
 70
     1
102
RTVSPropertyOp10
 70
     1
102
RTVSPropertyOp11
 70
     1
102
RTVSPropertyOp12
 70
     1
102
RTVSPropertyOp13
 70
     1
102
RTVSPropertyOp14
 70
     1
102
RTVSPropertyOp15
 70
     1
102
RTVSPropertyOp16
 70
     1
102
RTVSPropertyOp17
 70
     1
102
RTVSPropertyOp18
 70
     1
102
RTVSPropertyOp19
 70
     1
102
RTVSPropertyOp20
 70
     1
102
RTVSPropertyOp21
 70
     1
102
RTVSPropertyOp22
 70
     1
102
RTVSPropertyOp23
 70
     1
102
RTVSPropertyOp24
 70
     1
102
RTVSPropertyOp25
 70
     1
102
RTVSPropertyOp26
 70
     1
102
RTVSPropertyOp27
 70
     1
  0
XRECORD
  5
51E
102
{ACAD_REACTORS
330
51D
102
}
330
51D
100
AcDbXrecord
280
     1
102
RTVSPropertyOp0
 70
     1
102
RTVSPropertyOp1
 70
     1
102
RTVSPropertyOp2
 70
     1
102
RTVSPropertyOp3
 70
     1
102
RTVSPropertyOp4
 70
     1
102
RTVSPropertyOp5
 70
     1
102
RTVSPropertyOp6
 70
     1
102
RTVSPropertyOp7
 70
     1
102
RTVSPropertyOp8
 70
     1
102
RTVSPropertyOp9
 70
     1
102
RTVSPropertyOp10
 70
     1
102
RTVSPropertyOp11
 70
     1
102
RTVSPropertyOp12
 70
     1
102
RTVSPropertyOp13
 70
     1
102
RTVSPropertyOp14
 70
     1
102
RTVSPropertyOp15
 70
     1
102
RTVSPropertyOp16
 70
     1
102
RTVSPropertyOp17
 70
     1
102
RTVSPropertyOp18
 70
     1
102
RTVSPropertyOp19
 70
     1
102
RTVSPropertyOp20
 70
     1
102
RTVSPropertyOp21
 70
     1
102
RTVSPropertyOp22
 70
     1
102
RTVSPropertyOp23
 70
     1
102
RTVSPropertyOp24
 70
     1
102
RTVSPropertyOp25
 70
     1
102
RTVSPropertyOp26
 70
     1
102
RTVSPropertyOp27
 70
     1
  0
XRECORD
  5
520
102
{ACAD_REACTORS
330
51F
102
}
330
51F
100
AcDbXrecord
280
     1
102
RTVSPropertyOp0
 70
     1
102
RTVSPropertyOp1
 70
     1
102
RTVSPropertyOp2
 70
     1
102
RTVSPropertyOp3
 70
     1
102
RTVSPropertyOp4
 70
     1
102
RTVSPropertyOp5
 70
     1
102
RTVSPropertyOp6
 70
     1
102
RTVSPropertyOp7
 70
     1
102
RTVSPropertyOp8
 70
     1
102
RTVSPropertyOp9
 70
     1
102
RTVSPropertyOp10
 70
     1
102
RTVSPropertyOp11
 70
     1
102
RTVSPropertyOp12
 70
     1
102
RTVSPropertyOp13
 70
     1
102
RTVSPropertyOp14
 70
     1
102
RTVSPropertyOp15
 70
     1
102
RTVSPropertyOp16
 70
     1
102
RTVSPropertyOp17
 70
     1
102
RTVSPropertyOp18
 70
     1
102
RTVSPropertyOp19
 70
     1
102
RTVSPropertyOp20
 70
     1
102
RTVSPropertyOp21
 70
     1
102
RTVSPropertyOp22
 70
     1
102
RTVSPropertyOp23
 70
     1
102
RTVSPropertyOp24
 70
     1
102
RTVSPropertyOp25
 70
     1
102
RTVSPropertyOp26
 70
     1
102
RTVSPropertyOp27
 70
     1
  0
XRECORD
  5
522
102
{ACAD_REACTORS
330
521
102
}
330
521
100
AcDbXrecord
280
     1
102
RTVSPropertyOp0
 70
     1
102
RTVSPropertyOp1
 70
     1
102
RTVSPropertyOp2
 70
     1
102
RTVSPropertyOp3
 70
     1
102
RTVSPropertyOp4
 70
     1
102
RTVSPropertyOp5
 70
     1
102
RTVSPropertyOp6
 70
     1
102
RTVSPropertyOp7
 70
     1
102
RTVSPropertyOp8
 70
     1
102
RTVSPropertyOp9
 70
     1
102
RTVSPropertyOp10
 70
     1
102
RTVSPropertyOp11
 70
     1
102
RTVSPropertyOp12
 70
     1
102
RTVSPropertyOp13
 70
     1
102
RTVSPropertyOp14
 70
     1
102
RTVSPropertyOp15
 70
     1
102
RTVSPropertyOp16
 70
     1
102
RTVSPropertyOp17
 70
     1
102
RTVSPropertyOp18
 70
     1
102
RTVSPropertyOp19
 70
     1
102
RTVSPropertyOp20
 70
     1
102
RTVSPropertyOp21
 70
     1
102
RTVSPropertyOp22
 70
     1
102
RTVSPropertyOp23
 70
     1
102
RTVSPropertyOp24
 70
     1
102
RTVSPropertyOp25
 70
     1
102
RTVSPropertyOp26
 70
     1
102
RTVSPropertyOp27
 70
     1
  0
XRECORD
  5
53D
102
{ACAD_REACTORS
330
53C
102
}
330
53C
100
AcDbXrecord
280
     1
102
RTVSPropertyOp0
 70
     0
102
RTVSPropertyOp1
 70
     0
102
RTVSPropertyOp2
 70
     0
102
RTVSPropertyOp3
 70
     0
102
RTVSPropertyOp4
 70
     0
102
RTVSPropertyOp5
 70
     0
102
RTVSPropertyOp6
 70
     0
102
RTVSPropertyOp7
 70
     0
102
RTVSPropertyOp8
 70
     0
102
RTVSPropertyOp9
 70
     0
102
RTVSPropertyOp10
 70
     0
102
RTVSPropertyOp11
 70
     0
102
RTVSPropertyOp12
 70
     0
102
RTVSPropertyOp13
 70
     0
102
RTVSPropertyOp14
 70
     2
102
RTVSPropertyOp15
 70
     0
102
RTVSPropertyOp16
 70
     0
102
RTVSPropertyOp17
 70
     0
102
RTVSPropertyOp18
 70
     0
102
RTVSPropertyOp19
 70
     0
102
RTVSPropertyOp20
 70
     0
102
RTVSPropertyOp21
 70
     0
102
RTVSPropertyOp22
 70
     0
102
RTVSPropertyOp23
 70
     0
102
RTVSPropertyOp24
 70
     0
102
RTVSPropertyOp25
 70
     0
102
RTVSPropertyOp26
 70
     0
102
RTVSPropertyOp27
 70
     0
  0
XRECORD
  5
536
102
{ACAD_REACTORS
330
535
102
}
330
535
100
AcDbXrecord
280
     1
102
RTVSPropertyOp0
 70
     1
102
RTVSPropertyOp1
 70
     1
102
RTVSPropertyOp2
 70
     1
102
RTVSPropertyOp3
 70
     1
102
RTVSPropertyOp4
 70
     1
102
RTVSPropertyOp5
 70
     1
102
RTVSPropertyOp6
 70
     1
102
RTVSPropertyOp7
 70
     1
102
RTVSPropertyOp8
 70
     1
102
RTVSPropertyOp9
 70
     1
102
RTVSPropertyOp10
 70
     1
102
RTVSPropertyOp11
 70
     1
102
RTVSPropertyOp12
 70
     1
102
RTVSPropertyOp13
 70
     1
102
RTVSPropertyOp14
 70
     1
102
RTVSPropertyOp15
 70
     1
102
RTVSPropertyOp16
 70
     1
102
RTVSPropertyOp17
 70
     1
102
RTVSPropertyOp18
 70
     1
102
RTVSPropertyOp19
 70
     1
102
RTVSPropertyOp20
 70
     1
102
RTVSPropertyOp21
 70
     1
102
RTVSPropertyOp22
 70
     1
102
RTVSPropertyOp23
 70
     1
102
RTVSPropertyOp24
 70
     1
102
RTVSPropertyOp25
 70
     1
102
RTVSPropertyOp26
 70
     1
102
RTVSPropertyOp27
 70
     1
  0
XRECORD
  5
53F
102
{ACAD_REACTORS
330
53E
102
}
330
53E
100
AcDbXrecord
280
     1
102
RTVSPropertyOp0
 70
     0
102
RTVSPropertyOp1
 70
     0
102
RTVSPropertyOp2
 70
     0
102
RTVSPropertyOp3
 70
     0
102
RTVSPropertyOp4
 70
     0
102
RTVSPropertyOp5
 70
     0
102
RTVSPropertyOp6
 70
     0
102
RTVSPropertyOp7
 70
     0
102
RTVSPropertyOp8
 70
     0
102
RTVSPropertyOp9
 70
     0
102
RTVSPropertyOp10
 70
     0
102
RTVSPropertyOp11
 70
     0
102
RTVSPropertyOp12
 70
     0
102
RTVSPropertyOp13
 70
     0
102
RTVSPropertyOp14
 70
     2
102
RTVSPropertyOp15
 70
     0
102
RTVSPropertyOp16
 70
     0
102
RTVSPropertyOp17
 70
     0
102
RTVSPropertyOp18
 70
     0
102
RTVSPropertyOp19
 70
     0
102
RTVSPropertyOp20
 70
     0
102
RTVSPropertyOp21
 70
     0
102
RTVSPropertyOp22
 70
     0
102
RTVSPropertyOp23
 70
     0
102
RTVSPropertyOp24
 70
     0
102
RTVSPropertyOp25
 70
     0
102
RTVSPropertyOp26
 70
     0
102
RTVSPropertyOp27
 70
     0
  0
XRECORD
  5
52E
102
{ACAD_REACTORS
330
52D
102
}
330
52D
100
AcDbXrecord
280
     1
102
RTVSPropertyOp0
 70
     1
102
RTVSPropertyOp1
 70
     1
102
RTVSPropertyOp2
 70
     1
102
RTVSPropertyOp3
 70
     1
102
RTVSPropertyOp4
 70
     1
102
RTVSPropertyOp5
 70
     1
102
RTVSPropertyOp6
 70
     1
102
RTVSPropertyOp7
 70
     1
102
RTVSPropertyOp8
 70
     1
102
RTVSPropertyOp9
 70
     1
102
RTVSPropertyOp10
 70
     1
102
RTVSPropertyOp11
 70
     1
102
RTVSPropertyOp12
 70
     1
102
RTVSPropertyOp13
 70
     1
102
RTVSPropertyOp14
 70
     1
102
RTVSPropertyOp15
 70
     1
102
RTVSPropertyOp16
 70
     1
102
RTVSPropertyOp17
 70
     1
102
RTVSPropertyOp18
 70
     1
102
RTVSPropertyOp19
 70
     1
102
RTVSPropertyOp20
 70
     1
102
RTVSPropertyOp21
 70
     1
102
RTVSPropertyOp22
 70
     1
102
RTVSPropertyOp23
 70
     1
102
RTVSPropertyOp24
 70
     1
102
RTVSPropertyOp25
 70
     1
102
RTVSPropertyOp26
 70
     1
102
RTVSPropertyOp27
 70
     1
  0
XRECORD
  5
534
102
{ACAD_REACTORS
330
533
102
}
330
533
100
AcDbXrecord
280
     1
102
RTVSPropertyOp0
 70
     1
102
RTVSPropertyOp1
 70
     1
102
RTVSPropertyOp2
 70
     1
102
RTVSPropertyOp3
 70
     1
102
RTVSPropertyOp4
 70
     1
102
RTVSPropertyOp5
 70
     1
102
RTVSPropertyOp6
 70
     1
102
RTVSPropertyOp7
 70
     1
102
RTVSPropertyOp8
 70
     1
102
RTVSPropertyOp9
 70
     1
102
RTVSPropertyOp10
 70
     1
102
RTVSPropertyOp11
 70
     1
102
RTVSPropertyOp12
 70
     1
102
RTVSPropertyOp13
 70
     1
102
RTVSPropertyOp14
 70
     1
102
RTVSPropertyOp15
 70
     1
102
RTVSPropertyOp16
 70
     1
102
RTVSPropertyOp17
 70
     1
102
RTVSPropertyOp18
 70
     1
102
RTVSPropertyOp19
 70
     1
102
RTVSPropertyOp20
 70
     1
102
RTVSPropertyOp21
 70
     1
102
RTVSPropertyOp22
 70
     1
102
RTVSPropertyOp23
 70
     1
102
RTVSPropertyOp24
 70
     1
102
RTVSPropertyOp25
 70
     1
102
RTVSPropertyOp26
 70
     1
102
RTVSPropertyOp27
 70
     1
  0
ENDSEC
  0
EOF
