  0
SECTION
  2
HEADER
  9
$ACADVER
  1
AC1015
  9
$ACADMAINTVER
 70
     6
  9
$DWGCODEPAGE
  3
ANSI_1252
  9
$INSBASE
 10
0.0
 20
0.0
 30
0.0
  9
$EXTMIN
 10
538.0187499999997
 20
321.95
 30
0.0
  9
$EXTMAX
 10
1287.0
 20
1009.425
 30
0.0
  9
$LIMMIN
 10
0.0
 20
0.0
  9
$LIMMAX
 10
12.0
 20
9.0
  9
$ORTHOMODE
 70
     0
  9
$REGENMODE
 70
     1
  9
$FILLMODE
 70
     1
  9
$QTEXTMODE
 70
     0
  9
$MIRRTEXT
 70
     1
  9
$LTSCALE
 40
1.0
  9
$ATTMODE
 70
     1
  9
$TEXTSIZE
 40
0.0
  9
$TRACEWID
 40
0.05
  9
$TEXTSTYLE
  7
STANDARD
  9
$CLAYER
  8
0
  9
$CELTYPE
  6
CONTINUOUS
  9
$CECOLOR
 62
     3
  9
$CELTSCALE
 40
1.0
  9
$DISPSILH
 70
     0
  9
$DIMSCALE
 40
1.0
  9
$DIMASZ
 40
0.18
  9
$DIMEXO
 40
0.0625
  9
$DIMDLI
 40
0.38
  9
$DIMRND
 40
0.0
  9
$DIMDLE
 40
0.0
  9
$DIMEXE
 40
0.18
  9
$DIMTP
 40
0.0
  9
$DIMTM
 40
0.0
  9
$DIMTXT
 40
0.18
  9
$DIMCEN
 40
0.09
  9
$DIMTSZ
 40
0.0
  9
$DIMTOL
 70
     0
  9
$DIMLIM
 70
     0
  9
$DIMTIH
 70
     1
  9
$DIMTOH
 70
     1
  9
$DIMSE1
 70
     0
  9
$DIMSE2
 70
     0
  9
$DIMTAD
 70
     0
  9
$DIMZIN
 70
     0
  9
$DIMBLK
  1

  9
$DIMASO
 70
     1
  9
$DIMSHO
 70
     1
  9
$DIMPOST
  1

  9
$DIMAPOST
  1

  9
$DIMALT
 70
     0
  9
$DIMALTD
 70
     2
  9
$DIMALTF
 40
25.4
  9
$DIMLFAC
 40
1.0
  9
$DIMTOFL
 70
     0
  9
$DIMTVP
 40
0.0
  9
$DIMTIX
 70
     0
  9
$DIMSOXD
 70
     0
  9
$DIMSAH
 70
     0
  9
$DIMBLK1
  1

  9
$DIMBLK2
  1

  9
$DIMSTYLE
  2
STANDARD
  9
$DIMCLRD
 70
     0
  9
$DIMCLRE
 70
     0
  9
$DIMCLRT
 70
     0
  9
$DIMTFAC
 40
1.0
  9
$DIMGAP
 40
0.09
  9
$DIMJUST
 70
     0
  9
$DIMSD1
 70
     0
  9
$DIMSD2
 70
     0
  9
$DIMTOLJ
 70
     1
  9
$DIMTZIN
 70
     0
  9
$DIMALTZ
 70
     0
  9
$DIMALTTZ
 70
     0
  9
$DIMUPT
 70
     0
  9
$DIMDEC
 70
     4
  9
$DIMTDEC
 70
     4
  9
$DIMALTU
 70
     2
  9
$DIMALTTD
 70
     2
  9
$DIMTXSTY
  7
STANDARD
  9
$DIMAUNIT
 70
     0
  9
$DIMADEC
 70
     0
  9
$DIMALTRND
 40
0.0
  9
$DIMAZIN
 70
     0
  9
$DIMDSEP
 70
    46
  9
$DIMATFIT
 70
     3
  9
$DIMFRAC
 70
     0
  9
$DIMLDRBLK
  1

  9
$DIMLUNIT
 70
     2
  9
$DIMLWD
 70
    -2
  9
$DIMLWE
 70
    -2
  9
$DIMTMOVE
 70
     0
  9
$LUNITS
 70
     2
  9
$LUPREC
 70
     4
  9
$SKETCHINC
 40
0.1
  9
$FILLETRAD
 40
0.0
  9
$AUNITS
 70
     0
  9
$AUPREC
 70
     0
  9
$MENU
  1
acad
  9
$ELEVATION
 40
0.0
  9
$PELEVATION
 40
0.0
  9
$THICKNESS
 40
0.0
  9
$LIMCHECK
 70
     0
  9
$CHAMFERA
 40
0.0
  9
$CHAMFERB
 40
0.0
  9
$CHAMFERC
 40
0.0
  9
$CHAMFERD
 40
0.0
  9
$SKPOLY
 70
     0
  9
$TDCREATE
 40
2453238.972453703
  9
$TDUCREATE
 40
2453238.930787037
  9
$TDUPDATE
 40
2456814.807538055
  9
$TDUUPDATE
 40
2456814.765871389
  9
$TDINDWG
 40
0.0215413542
  9
$TDUSRTIMER
 40
0.0215405324
  9
$USRTIMER
 70
     1
  9
$ANGBASE
 50
0.0
  9
$ANGDIR
 70
     0
  9
$PDMODE
 70
     0
  9
$PDSIZE
 40
0.0
  9
$PLINEWID
 40
0.0
  9
$SPLFRAME
 70
     0
  9
$SPLINETYPE
 70
     6
  9
$SPLINESEGS
 70
    10
  9
$HANDSEED
  5
B2A
  9
$SURFTAB1
 70
     6
  9
$SURFTAB2
 70
     6
  9
$SURFTYPE
 70
     6
  9
$SURFU
 70
     6
  9
$SURFV
 70
     6
  9
$UCSBASE
  2

  9
$UCSNAME
  2

  9
$UCSORG
 10
0.0
 20
0.0
 30
0.0
  9
$UCSXDIR
 10
1.0
 20
0.0
 30
0.0
  9
$UCSYDIR
 10
0.0
 20
1.0
 30
0.0
  9
$UCSORTHOREF
  2

  9
$UCSORTHOVIEW
 70
     0
  9
$UCSORGTOP
 10
0.0
 20
0.0
 30
0.0
  9
$UCSORGBOTTOM
 10
0.0
 20
0.0
 30
0.0
  9
$UCSORGLEFT
 10
0.0
 20
0.0
 30
0.0
  9
$UCSORGRIGHT
 10
0.0
 20
0.0
 30
0.0
  9
$UCSORGFRONT
 10
0.0
 20
0.0
 30
0.0
  9
$UCSORGBACK
 10
0.0
 20
0.0
 30
0.0
  9
$PUCSBASE
  2

  9
$PUCSNAME
  2

  9
$PUCSORG
 10
0.0
 20
0.0
 30
0.0
  9
$PUCSXDIR
 10
1.0
 20
0.0
 30
0.0
  9
$PUCSYDIR
 10
0.0
 20
1.0
 30
0.0
  9
$PUCSORTHOREF
  2

  9
$PUCSORTHOVIEW
 70
     0
  9
$PUCSORGTOP
 10
0.0
 20
0.0
 30
0.0
  9
$PUCSORGBOTTOM
 10
0.0
 20
0.0
 30
0.0
  9
$PUCSORGLEFT
 10
0.0
 20
0.0
 30
0.0
  9
$PUCSORGRIGHT
 10
0.0
 20
0.0
 30
0.0
  9
$PUCSORGFRONT
 10
0.0
 20
0.0
 30
0.0
  9
$PUCSORGBACK
 10
0.0
 20
0.0
 30
0.0
  9
$USERI1
 70
     0
  9
$USERI2
 70
     0
  9
$USERI3
 70
     0
  9
$USERI4
 70
     0
  9
$USERI5
 70
     0
  9
$USERR1
 40
0.0
  9
$USERR2
 40
0.0
  9
$USERR3
 40
0.0
  9
$USERR4
 40
0.0
  9
$USERR5
 40
0.0
  9
$WORLDVIEW
 70
     1
  9
$SHADEDGE
 70
     3
  9
$SHADEDIF
 70
    70
  9
$TILEMODE
 70
     1
  9
$MAXACTVP
 70
    16
  9
$PINSBASE
 10
0.0
 20
0.0
 30
0.0
  9
$PLIMCHECK
 70
     0
  9
$PEXTMIN
 10
-1.000000000000000E+20
 20
-1.000000000000000E+20
 30
-1.000000000000000E+20
  9
$PEXTMAX
 10
-1.000000000000000E+20
 20
-1.000000000000000E+20
 30
-1.000000000000000E+20
  9
$PLIMMIN
 10
0.0
 20
0.0
  9
$PLIMMAX
 10
12.0
 20
9.0
  9
$UNITMODE
 70
     0
  9
$VISRETAIN
 70
     0
  9
$PLINEGEN
 70
     1
  9
$PSLTSCALE
 70
     0
  9
$TREEDEPTH
 70
  3020
  9
$CMLSTYLE
  2
Standard
  9
$CMLJUST
 70
     0
  9
$CMLSCALE
 40
1.0
  9
$PROXYGRAPHICS
 70
     1
  9
$MEASUREMENT
 70
     0
  9
$CELWEIGHT
370
    -1
  9
$ENDCAPS
280
     0
  9
$JOINSTYLE
280
     0
  9
$LWDISPLAY
290
     0
  9
$INSUNITS
 70
     0
  9
$HYPERLINKBASE
  1

  9
$STYLESHEET
  1

  9
$XEDIT
290
     1
  9
$CEPSNTYPE
380
     0
  9
$PSTYLEMODE
290
     1
  9
$FINGERPRINTGUID
  2
{32A13D4B-7BED-437B-B386-971C45CAE358}
  9
$VERSIONGUID
  2
{7F49CDA7-FA7A-4851-86B8-50652B7C7253}
  9
$EXTNAMES
290
     1
  9
$PSVPSCALE
 40
0.0
  9
$OLESTARTUP
290
     0
  0
ENDSEC
  0
SECTION
  2
CLASSES
  0
CLASS
  1
ACDBDICTIONARYWDFLT
  2
AcDbDictionaryWithDefault
  3
AutoCAD 2000
 90
        0
280
     0
281
     0
  0
CLASS
  1
ACDBPLACEHOLDER
  2
AcDbPlaceHolder
  3
AutoCAD 2000
 90
        0
280
     0
281
     0
  0
CLASS
  1
LAYOUT
  2
AcDbLayout
  3
AutoCAD 2000
 90
        0
280
     0
281
     0
  0
ENDSEC
  0
SECTION
  2
TABLES
  0
TABLE
  2
VPORT
  5
847
330
0
100
AcDbSymbolTable
 70
     2
  0
VPORT
  5
B29
330
847
100
AcDbSymbolTableRecord
100
AcDbViewportTableRecord
  2
*Active
 70
     0
 10
0.0
 20
0.0
 11
1.0
 21
1.0
 12
12.36787176908336
 22
-28.06185536848443
 13
0.0
 23
0.0
 14
0.0
 24
0.0
 15
0.0
 25
0.0
 16
0.0
 26
0.0
 36
1.0
 17
874.9469189999999
 27
575.8718750000001
 37
0.0
 40
201.548719279256
 41
2.674922600619194
 42
50.0
 43
0.025
 44
0.0
 50
0.0
 51
0.0
 71
     0
 72
   100
 73
     1
 74
     0
 75
     0
 76
     0
 77
     0
 78
     0
281
     0
 65
     1
110
0.0
120
0.0
130
0.0
111
1.0
121
0.0
131
0.0
112
0.0
122
1.0
132
0.0
 79
     0
146
0.0
  0
ENDTAB
  0
TABLE
  2
LTYPE
  5
844
330
0
100
AcDbSymbolTable
 70
     7
  0
LTYPE
  5
852
330
844
100
AcDbSymbolTableRecord
100
AcDbLinetypeTableRecord
  2
ByBlock
 70
     0
  3

 72
    65
 73
     0
 40
0.0
  0
LTYPE
  5
853
330
844
100
AcDbSymbolTableRecord
100
AcDbLinetypeTableRecord
  2
ByLayer
 70
     0
  3

 72
    65
 73
     0
 40
0.0
  0
LTYPE
  5
854
330
844
100
AcDbSymbolTableRecord
100
AcDbLinetypeTableRecord
  2
CONTINUOUS
 70
     0
  3
Solid line
 72
    65
 73
     0
 40
0.0
  0
LTYPE
  5
862
330
844
100
AcDbSymbolTableRecord
100
AcDbLinetypeTableRecord
  2
DOT
 70
     0
  3
. . . . . . . . . . . . . . . . . . . . . . . . . . . . . . . . .
 72
    65
 73
     2
 40
0.25
 49
0.0
 74
     0
 49
-0.25
 74
     0
  0
LTYPE
  5
863
330
844
100
AcDbSymbolTableRecord
100
AcDbLinetypeTableRecord
  2
HIDDEN
 70
     0
  3
__ __ __ __ __ __ __ __ __ __ __ __ __ __ __ __ __ __ __ __ __ 
 72
    65
 73
     2
 40
0.375
 49
0.25
 74
     0
 49
-0.125
 74
     0
  0
LTYPE
  5
864
330
844
100
AcDbSymbolTableRecord
100
AcDbLinetypeTableRecord
  2
DASHED
 70
     0
  3
__ __ __ __ __ __ __ __ __ __ __ __ __ __ __ __ __ __ __ __ __
 72
    65
 73
     2
 40
0.75
 49
0.5
 74
     0
 49
-0.25
 74
     0
  0
LTYPE
  5
865
330
844
100
AcDbSymbolTableRecord
100
AcDbLinetypeTableRecord
  2
DASHDOT
 70
     0
  3
__ . __ . __ . __ . __ . __ . __ . __ . __ . __ . __ . __ . _
 72
    65
 73
     4
 40
1.0
 49
0.5
 74
     0
 49
-0.25
 74
     0
 49
0.0
 74
     0
 49
-0.25
 74
     0
  0
LTYPE
  5
866
330
844
100
AcDbSymbolTableRecord
100
AcDbLinetypeTableRecord
  2
DIVIDE
 70
     0
  3
____ . . ____ . . ____ . . ____ . . ____ . . ____ . . ____ . .
 72
    65
 73
     6
 40
1.25
 49
0.5
 74
     0
 49
-0.25
 74
     0
 49
0.0
 74
     0
 49
-0.25
 74
     0
 49
0.0
 74
     0
 49
-0.25
 74
     0
  0
LTYPE
  5
867
330
844
100
AcDbSymbolTableRecord
100
AcDbLinetypeTableRecord
  2
CENTER
 70
     0
  3
____ _ ____ _ ____ _ ____ _ ____ _ ____ _ ____ _ ____ _ ____ _
 72
    65
 73
     4
 40
2.0
 49
1.25
 74
     0
 49
-0.25
 74
     0
 49
0.25
 74
     0
 49
-0.25
 74
     0
  0
ENDTAB
  0
TABLE
  2
LAYER
  5
841
330
0
100
AcDbSymbolTable
 70
     7
  0
LAYER
  5
84F
330
841
100
AcDbSymbolTableRecord
100
AcDbLayerTableRecord
  2
0
 70
     0
 62
     7
  6
CONTINUOUS
370
    -3
390
84E
  0
LAYER
  5
868
330
841
100
AcDbSymbolTableRecord
100
AcDbLayerTableRecord
  2
CONSTRUCTION_CLASS
 70
     0
 62
     7
  6
CONTINUOUS
370
    -3
390
84E
  0
LAYER
  5
869
330
841
100
AcDbSymbolTableRecord
100
AcDbLayerTableRecord
  2
PATTERN_CLASS
 70
     0
 62
     7
  6
CONTINUOUS
370
    -3
390
84E
  0
LAYER
  5
86A
330
841
100
AcDbSymbolTableRecord
100
AcDbLayerTableRecord
  2
6
 70
     0
 62
     7
  6
CONTINUOUS
370
    -3
390
84E
  0
LAYER
  5
86B
330
841
100
AcDbSymbolTableRecord
100
AcDbLayerTableRecord
  2
1
 70
     0
 62
     7
  6
CONTINUOUS
370
    -3
390
84E
  0
LAYER
  5
86C
330
841
100
AcDbSymbolTableRecord
100
AcDbLayerTableRecord
  2
-1
 70
     0
 62
     7
  6
CONTINUOUS
370
    -3
390
84E
  0
LAYER
  5
86D
330
841
100
AcDbSymbolTableRecord
100
AcDbLayerTableRecord
  2
FLAN1$0$1
 70
     0
 62
     7
  6
CONTINUOUS
370
    -3
390
84E
  0
ENDTAB
  0
TABLE
  2
STYLE
  5
842
330
0
100
AcDbSymbolTable
 70
     2
  0
STYLE
  5
850
330
842
100
AcDbSymbolTableRecord
100
AcDbTextStyleTableRecord
  2
STANDARD
 70
     0
 40
0.0
 41
1.0
 50
0.0
 71
     0
 42
0.0
  3
txt
  4

  0
STYLE
  5
86E
330
842
100
AcDbSymbolTableRecord
100
AcDbTextStyleTableRecord
  2
ROMANS
 70
     0
 40
0.2
 41
1.0
 50
0.0
 71
     0
 42
0.2
  3
ROMANS
  4

  0
ENDTAB
  0
TABLE
  2
VIEW
  5
845
330
0
100
AcDbSymbolTable
 70
     0
  0
ENDTAB
  0
TABLE
  2
UCS
  5
846
330
0
100
AcDbSymbolTable
 70
     0
  0
ENDTAB
  0
TABLE
  2
APPID
  5
848
330
0
100
AcDbSymbolTable
 70
     2
  0
APPID
  5
851
330
848
100
AcDbSymbolTableRecord
100
AcDbRegAppTableRecord
  2
ACAD
 70
     0
  0
APPID
  5
86F
330
848
100
AcDbSymbolTableRecord
100
AcDbRegAppTableRecord
  2
ACAD_EXEMPT_FROM_CAD_STANDARDS
 70
     0
  0
ENDTAB
  0
TABLE
  2
DIMSTYLE
  5
849
330
0
100
AcDbSymbolTable
 70
     1
100
AcDbDimStyleTable
 71
     0
  0
DIMSTYLE
105
870
330
849
100
AcDbSymbolTableRecord
100
AcDbDimStyleTableRecord
  2
STANDARD
 70
     0
279
     2
340
850
  0
ENDTAB
  0
TABLE
  2
BLOCK_RECORD
  5
840
330
0
100
AcDbSymbolTable
 70
     2
  0
BLOCK_RECORD
  5
85D
330
840
100
AcDbSymbolTableRecord
100
AcDbBlockTableRecord
  2
*Model_Space
340
860
  0
BLOCK_RECORD
  5
859
330
840
100
AcDbSymbolTableRecord
100
AcDbBlockTableRecord
  2
*Paper_Space
340
85C
  0
BLOCK_RECORD
  5
873
330
840
100
AcDbSymbolTableRecord
100
AcDbBlockTableRecord
  2
$MODEL_SPACE
340
0
  0
BLOCK_RECORD
  5
876
330
840
100
AcDbSymbolTableRecord
100
AcDbBlockTableRecord
  2
$PAPER_SPACE
340
0
  0
ENDTAB
  0
ENDSEC
  0
SECTION
  2
BLOCKS
  0
BLOCK
  5
85E
330
85D
100
AcDbEntity
  8
0
100
AcDbBlockBegin
  2
*Model_Space
 70
     0
 10
0.0
 20
0.0
 30
0.0
  3
*Model_Space
  1

  0
ENDBLK
  5
85F
330
85D
100
AcDbEntity
  8
0
100
AcDbBlockEnd
  0
BLOCK
  5
85A
330
859
100
AcDbEntity
 67
     1
  8
0
100
AcDbBlockBegin
  2
*Paper_Space
 70
     0
 10
0.0
 20
0.0
 30
0.0
  3
*Paper_Space
  1

  0
ENDBLK
  5
85B
330
859
100
AcDbEntity
 67
     1
  8
0
100
AcDbBlockEnd
  0
BLOCK
  5
874
330
873
100
AcDbEntity
  8
0
100
AcDbBlockBegin
  2
$MODEL_SPACE
 70
     0
 10
0.0
 20
0.0
 30
0.0
  3
$MODEL_SPACE
  1

  0
ENDBLK
  5
875
330
873
100
AcDbEntity
  8
0
100
AcDbBlockEnd
  0
BLOCK
  5
877
330
876
100
AcDbEntity
  8
0
100
AcDbBlockBegin
  2
$PAPER_SPACE
 70
     0
 10
0.0
 20
0.0
 30
0.0
  3
$PAPER_SPACE
  1

  0
ENDBLK
  5
878
330
876
100
AcDbEntity
  8
0
100
AcDbBlockEnd
  0
ENDSEC
  0
SECTION
  2
ENTITIES
  0
LINE
  5
879
330
85D
100
AcDbEntity
  8
6
  6
Continuous
 62
     4
100
AcDbLine
 10
1068.01875
 20
351.9499999999998
 30
0.0
 11
1068.01875
 21
761.95
 31
0.0
  0
LINE
  5
87A
330
85D
100
AcDbEntity
  8
6
  6
Continuous
 62
     4
100
AcDbLine
 10
608.0187500000001
 20
351.9499999999998
 30
0.0
 11
608.0187500000001
 21
761.95
 31
0.0
  0
LINE
  5
87B
330
85D
100
AcDbEntity
  8
6
  6
Continuous
 62
     4
100
AcDbLine
 10
838.0187499999998
 20
321.95
 30
0.0
 11
838.0187499999998
 21
791.95
 31
0.0
  0
LINE
  5
87C
330
85D
100
AcDbEntity
  8
1
  6
Continuous
 62
     4
100
AcDbLine
 10
538.0187499999997
 20
548.373241411009
 30
0.0
 11
544.0955085889908
 21
554.45
 31
0.0
1001
ACAD
1010
0.0
1020
0.0
1030
0.0
  0
LINE
  5
87D
330
85D
100
AcDbEntity
  8
1
  6
Continuous
 62
     4
100
AcDbLine
 10
538.0187499999997
 20
537.7666396932105
 30
0.0
 11
554.7021103067894
 21
554.45
 31
0.0
1001
ACAD
1010
0.0
1020
0.0
1030
0.0
  0
LINE
  5
87E
330
85D
100
AcDbEntity
  8
1
  6
Continuous
 62
     4
100
AcDbLine
 10
538.0187499999997
 20
527.1600379754122
 30
0.0
 11
565.3087120245877
 21
554.45
 31
0.0
1001
ACAD
1010
0.0
1020
0.0
1030
0.0
  0
LINE
  5
87F
330
85D
100
AcDbEntity
  8
1
  6
Continuous
 62
     4
100
AcDbLine
 10
538.0187499999997
 20
516.5534362576139
 30
0.0
 11
573.0187499999995
 21
551.5534362576135
 31
0.0
1001
ACAD
1010
0.0
1020
0.0
1030
0.0
  0
LINE
  5
880
330
85D
100
AcDbEntity
  8
1
  6
Continuous
 62
     4
100
AcDbLine
 10
538.0187499999997
 20
505.9468345398157
 30
0.0
 11
573.0187499999995
 21
540.9468345398152
 31
0.0
1001
ACAD
1010
0.0
1020
0.0
1030
0.0
  0
LINE
  5
881
330
85D
100
AcDbEntity
  8
1
  6
Continuous
 62
     4
100
AcDbLine
 10
538.0187499999997
 20
495.3402328220173
 30
0.0
 11
573.0187499999995
 21
530.3402328220169
 31
0.0
1001
ACAD
1010
0.0
1020
0.0
1030
0.0
  0
LINE
  5
882
330
85D
100
AcDbEntity
  8
1
  6
Continuous
 62
     4
100
AcDbLine
 10
538.0187499999997
 20
484.733631104219
 30
0.0
 11
573.0187499999995
 21
519.7336311042183
 31
0.0
1001
ACAD
1010
0.0
1020
0.0
1030
0.0
  0
LINE
  5
883
330
85D
100
AcDbEntity
  8
1
  6
Continuous
 62
     4
100
AcDbLine
 10
538.0187499999997
 20
474.1270293864205
 30
0.0
 11
573.0187499999995
 21
509.1270293864202
 31
0.0
1001
ACAD
1010
0.0
1020
0.0
1030
0.0
  0
LINE
  5
884
330
85D
100
AcDbEntity
  8
1
  6
Continuous
 62
     4
100
AcDbLine
 10
538.0187499999997
 20
463.5204276686223
 30
0.0
 11
573.0187499999995
 21
498.520427668622
 31
0.0
1001
ACAD
1010
0.0
1020
0.0
1030
0.0
  0
LINE
  5
885
330
85D
100
AcDbEntity
  8
1
  6
Continuous
 62
     4
100
AcDbLine
 10
538.0187499999997
 20
452.9138259508242
 30
0.0
 11
573.0187499999995
 21
487.9138259508236
 31
0.0
1001
ACAD
1010
0.0
1020
0.0
1030
0.0
  0
LINE
  5
886
330
85D
100
AcDbEntity
  8
1
  6
Continuous
 62
     4
100
AcDbLine
 10
538.0187499999997
 20
442.3072242330255
 30
0.0
 11
573.0187499999995
 21
477.307224233025
 31
0.0
1001
ACAD
1010
0.0
1020
0.0
1030
0.0
  0
LINE
  5
887
330
85D
100
AcDbEntity
  8
1
  6
Continuous
 62
     4
100
AcDbLine
 10
538.0187499999997
 20
431.7006225152275
 30
0.0
 11
573.0187499999995
 21
466.7006225152269
 31
0.0
1001
ACAD
1010
0.0
1020
0.0
1030
0.0
  0
LINE
  5
888
330
85D
100
AcDbEntity
  8
1
  6
Continuous
 62
     4
100
AcDbLine
 10
548.8747292025704
 20
431.9499999999998
 30
0.0
 11
573.0187499999995
 21
456.0940207974288
 31
0.0
1001
ACAD
1010
0.0
1020
0.0
1030
0.0
  0
LINE
  5
889
330
85D
100
AcDbEntity
  8
1
  6
Continuous
 62
     4
100
AcDbLine
 10
559.4813309203686
 20
431.9499999999997
 30
0.0
 11
573.0187499999995
 21
445.4874190796306
 31
0.0
1001
ACAD
1010
0.0
1020
0.0
1030
0.0
  0
LINE
  5
88A
330
85D
100
AcDbEntity
  8
1
  6
Continuous
 62
     4
100
AcDbLine
 10
570.0879326381672
 20
431.9499999999997
 30
0.0
 11
573.0187499999995
 21
434.8808173618322
 31
0.0
1001
ACAD
1010
0.0
1020
0.0
1030
0.0
  0
LINE
  5
88B
330
85D
100
AcDbEntity
  8
1
  6
Continuous
 62
     4
100
AcDbLine
 10
643.0187499999996
 20
548.373241411009
 30
0.0
 11
649.0955085889908
 21
554.45
 31
0.0
1001
ACAD
1010
0.0
1020
0.0
1030
0.0
  0
LINE
  5
88C
330
85D
100
AcDbEntity
  8
1
  6
Continuous
 62
     4
100
AcDbLine
 10
643.0187499999996
 20
537.7666396932105
 30
0.0
 11
659.702110306789
 21
554.45
 31
0.0
1001
ACAD
1010
0.0
1020
0.0
1030
0.0
  0
LINE
  5
88D
330
85D
100
AcDbEntity
  8
1
  6
Continuous
 62
     4
100
AcDbLine
 10
643.0187499999996
 20
527.1600379754122
 30
0.0
 11
670.3087120245877
 21
554.4499999999998
 31
0.0
1001
ACAD
1010
0.0
1020
0.0
1030
0.0
  0
LINE
  5
88E
330
85D
100
AcDbEntity
  8
1
  6
Continuous
 62
     4
100
AcDbLine
 10
643.0187499999996
 20
516.5534362576137
 30
0.0
 11
680.9153137423862
 21
554.4499999999998
 31
0.0
1001
ACAD
1010
0.0
1020
0.0
1030
0.0
  0
LINE
  5
88F
330
85D
100
AcDbEntity
  8
1
  6
Continuous
 62
     4
100
AcDbLine
 10
643.0187499999996
 20
505.9468345398151
 30
0.0
 11
691.5219154601843
 21
554.4499999999998
 31
0.0
1001
ACAD
1010
0.0
1020
0.0
1030
0.0
  0
LINE
  5
890
330
85D
100
AcDbEntity
  8
1
  6
Continuous
 62
     4
100
AcDbLine
 10
643.0187499999996
 20
495.3402328220168
 30
0.0
 11
702.1285171779831
 21
554.4499999999998
 31
0.0
1001
ACAD
1010
0.0
1020
0.0
1030
0.0
  0
LINE
  5
891
330
85D
100
AcDbEntity
  8
1
  6
Continuous
 62
     4
100
AcDbLine
 10
643.0187499999996
 20
484.7336311042185
 30
0.0
 11
712.7351188957812
 21
554.4499999999998
 31
0.0
1001
ACAD
1010
0.0
1020
0.0
1030
0.0
  0
LINE
  5
892
330
85D
100
AcDbEntity
  8
1
  6
Continuous
 62
     4
100
AcDbLine
 10
643.0187499999996
 20
474.1270293864202
 30
0.0
 11
718.0187499999997
 21
549.1270293864196
 31
0.0
1001
ACAD
1010
0.0
1020
0.0
1030
0.0
  0
LINE
  5
893
330
85D
100
AcDbEntity
  8
1
  6
Continuous
 62
     4
100
AcDbLine
 10
643.0187499999996
 20
463.5204276686216
 30
0.0
 11
718.0187499999997
 21
538.5204276686213
 31
0.0
1001
ACAD
1010
0.0
1020
0.0
1030
0.0
  0
LINE
  5
894
330
85D
100
AcDbEntity
  8
1
  6
Continuous
 62
     4
100
AcDbLine
 10
643.0187499999996
 20
452.9138259508235
 30
0.0
 11
727.0549240491766
 21
536.95
 31
0.0
1001
ACAD
1010
0.0
1020
0.0
1030
0.0
  0
LINE
  5
895
330
85D
100
AcDbEntity
  8
1
  6
Continuous
 62
     4
100
AcDbLine
 10
643.0187499999996
 20
442.3072242330248
 30
0.0
 11
737.6615257669755
 21
536.95
 31
0.0
1001
ACAD
1010
0.0
1020
0.0
1030
0.0
  0
LINE
  5
896
330
85D
100
AcDbEntity
  8
1
  6
Continuous
 62
     4
100
AcDbLine
 10
643.2681274847728
 20
431.9499999999998
 30
0.0
 11
748.2681274847736
 21
536.95
 31
0.0
1001
ACAD
1010
0.0
1020
0.0
1030
0.0
  0
LINE
  5
897
330
85D
100
AcDbEntity
  8
1
  6
Continuous
 62
     4
100
AcDbLine
 10
653.8747292025714
 20
431.9499999999998
 30
0.0
 11
758.01875
 21
536.0940207974278
 31
0.0
1001
ACAD
1010
0.0
1020
0.0
1030
0.0
  0
LINE
  5
898
330
85D
100
AcDbEntity
  8
1
  6
Continuous
 62
     4
100
AcDbLine
 10
664.48133092037
 20
431.9499999999998
 30
0.0
 11
758.01875
 21
525.4874190796297
 31
0.0
1001
ACAD
1010
0.0
1020
0.0
1030
0.0
  0
LINE
  5
899
330
85D
100
AcDbEntity
  8
1
  6
Continuous
 62
     4
100
AcDbLine
 10
675.0879326381681
 20
431.9499999999998
 30
0.0
 11
758.01875
 21
514.8808173618313
 31
0.0
1001
ACAD
1010
0.0
1020
0.0
1030
0.0
  0
LINE
  5
89A
330
85D
100
AcDbEntity
  8
1
  6
Continuous
 62
     4
100
AcDbLine
 10
685.6945343559663
 20
431.9499999999998
 30
0.0
 11
758.01875
 21
504.2742156440328
 31
0.0
1001
ACAD
1010
0.0
1020
0.0
1030
0.0
  0
LINE
  5
89B
330
85D
100
AcDbEntity
  8
1
  6
Continuous
 62
     4
100
AcDbLine
 10
696.3011360737648
 20
431.9499999999997
 30
0.0
 11
758.01875
 21
493.6676139262345
 31
0.0
1001
ACAD
1010
0.0
1020
0.0
1030
0.0
  0
LINE
  5
89C
330
85D
100
AcDbEntity
  8
1
  6
Continuous
 62
     4
100
AcDbLine
 10
706.9077377915637
 20
431.9499999999998
 30
0.0
 11
762.7077377915639
 21
487.75
 31
0.0
1001
ACAD
1010
0.0
1020
0.0
1030
0.0
  0
LINE
  5
89D
330
85D
100
AcDbEntity
  8
1
  6
Continuous
 62
     4
100
AcDbLine
 10
717.5143395093619
 20
431.9499999999998
 30
0.0
 11
768.0187499999997
 21
482.4544104906371
 31
0.0
1001
ACAD
1010
0.0
1020
0.0
1030
0.0
  0
LINE
  5
89E
330
85D
100
AcDbEntity
  8
1
  6
Continuous
 62
     4
100
AcDbLine
 10
718.0187499999997
 20
421.847808772839
 30
0.0
 11
773.9209412271605
 21
477.7499999999998
 31
0.0
1001
ACAD
1010
0.0
1020
0.0
1030
0.0
  0
LINE
  5
89F
330
85D
100
AcDbEntity
  8
1
  6
Continuous
 62
     4
100
AcDbLine
 10
718.0187499999997
 20
411.2412070550409
 30
0.0
 11
784.5275429449594
 21
477.7499999999998
 31
0.0
1001
ACAD
1010
0.0
1020
0.0
1030
0.0
  0
LINE
  5
8A0
330
85D
100
AcDbEntity
  8
1
  6
Continuous
 62
     4
100
AcDbLine
 10
718.0187499999997
 20
400.6346053372426
 30
0.0
 11
794.5777467571944
 21
477.1936020944363
 31
0.0
1001
ACAD
1010
0.0
1020
0.0
1030
0.0
  0
LINE
  5
8A1
330
85D
100
AcDbEntity
  8
1
  6
Continuous
 62
     4
100
AcDbLine
 10
718.0187499999997
 20
390.0280036194443
 30
0.0
 11
798.0187499999997
 21
470.0280036194435
 31
0.0
1001
ACAD
1010
0.0
1020
0.0
1030
0.0
  0
LINE
  5
8A2
330
85D
100
AcDbEntity
  8
1
  6
Continuous
 62
     4
100
AcDbLine
 10
718.0187499999997
 20
379.4214019016456
 30
0.0
 11
778.0187499999997
 21
439.4214019016456
 31
0.0
1001
ACAD
1010
0.0
1020
0.0
1030
0.0
  0
LINE
  5
8A3
330
85D
100
AcDbEntity
  8
1
  6
Continuous
 62
     4
100
AcDbLine
 10
785.5473480983537
 20
446.95
 30
0.0
 11
798.0187499999997
 21
459.4214019016455
 31
0.0
1001
ACAD
1010
0.0
1020
0.0
1030
0.0
  0
LINE
  5
8A4
330
85D
100
AcDbEntity
  8
1
  6
Continuous
 62
     4
100
AcDbLine
 10
718.0187499999997
 20
368.8148001838471
 30
0.0
 11
778.0187499999997
 21
428.8148001838473
 31
0.0
1001
ACAD
1010
0.0
1020
0.0
1030
0.0
  0
LINE
  5
8A5
330
85D
100
AcDbEntity
  8
1
  6
Continuous
 62
     4
100
AcDbLine
 10
718.0187499999997
 20
358.2081984660488
 30
0.0
 11
778.0187499999997
 21
418.2081984660489
 31
0.0
1001
ACAD
1010
0.0
1020
0.0
1030
0.0
  0
LINE
  5
8A6
330
85D
100
AcDbEntity
  8
1
  6
Continuous
 62
     4
100
AcDbLine
 10
718.0187499999997
 20
347.6015967482505
 30
0.0
 11
778.0187499999997
 21
407.6015967482505
 31
0.0
1001
ACAD
1010
0.0
1020
0.0
1030
0.0
  0
LINE
  5
8A7
330
85D
100
AcDbEntity
  8
1
  6
Continuous
 62
     4
100
AcDbLine
 10
718.0187499999997
 20
336.994995030452
 30
0.0
 11
778.0187499999997
 21
396.9949950304521
 31
0.0
1001
ACAD
1010
0.0
1020
0.0
1030
0.0
  0
LINE
  5
8A8
330
85D
100
AcDbEntity
  8
1
  6
Continuous
 62
     4
100
AcDbLine
 10
723.2995533436726
 20
331.6691966563266
 30
0.0
 11
778.0187499999997
 21
386.3883933126538
 31
0.0
1001
ACAD
1010
0.0
1020
0.0
1030
0.0
  0
LINE
  5
8A9
330
85D
100
AcDbEntity
  8
1
  6
Continuous
 62
     4
100
AcDbLine
 10
728.6028542025717
 20
326.3658957974278
 30
0.0
 11
778.0187499999997
 21
375.7817915948556
 31
0.0
1001
ACAD
1010
0.0
1020
0.0
1030
0.0
  0
LINE
  5
8AA
330
85D
100
AcDbEntity
  8
1
  6
Continuous
 62
     4
100
AcDbLine
 10
734.7935601229428
 20
321.95
 30
0.0
 11
778.0187499999997
 21
365.1751898770571
 31
0.0
1001
ACAD
1010
0.0
1020
0.0
1030
0.0
  0
LINE
  5
8AB
330
85D
100
AcDbEntity
  8
1
  6
Continuous
 62
     4
100
AcDbLine
 10
745.400161840741
 20
321.95
 30
0.0
 11
778.0187499999997
 21
354.5685881592588
 31
0.0
1001
ACAD
1010
0.0
1020
0.0
1030
0.0
  0
LINE
  5
8AC
330
85D
100
AcDbEntity
  8
1
  6
Continuous
 62
     4
100
AcDbLine
 10
756.0067635585393
 20
321.95
 30
0.0
 11
778.0187499999997
 21
343.9619864414605
 31
0.0
1001
ACAD
1010
0.0
1020
0.0
1030
0.0
  0
LINE
  5
8AD
330
85D
100
AcDbEntity
  8
1
  6
Continuous
 62
     4
100
AcDbLine
 10
766.6133652763377
 20
321.95
 30
0.0
 11
778.0187499999997
 21
333.3553847236621
 31
0.0
1001
ACAD
1010
0.0
1020
0.0
1030
0.0
  0
LINE
  5
8AE
330
85D
100
AcDbEntity
  8
1
  6
Continuous
 62
     4
100
AcDbLine
 10
777.219966994136
 20
321.95
 30
0.0
 11
778.0187499999997
 21
322.7487830058636
 31
0.0
1001
ACAD
1010
0.0
1020
0.0
1030
0.0
  0
LINE
  5
8AF
330
85D
100
AcDbEntity
  8
1
  6
Continuous
 62
     4
100
AcDbLine
 10
918.01875
 20
530.8732414110089
 30
0.0
 11
924.0955085889908
 21
536.95
 31
0.0
1001
ACAD
1010
0.0
1020
0.0
1030
0.0
  0
LINE
  5
8B0
330
85D
100
AcDbEntity
  8
1
  6
Continuous
 62
     4
100
AcDbLine
 10
918.01875
 20
520.2666396932105
 30
0.0
 11
934.7021103067895
 21
536.95
 31
0.0
1001
ACAD
1010
0.0
1020
0.0
1030
0.0
  0
LINE
  5
8B1
330
85D
100
AcDbEntity
  8
1
  6
Continuous
 62
     4
100
AcDbLine
 10
918.01875
 20
509.6600379754121
 30
0.0
 11
945.3087120245882
 21
536.95
 31
0.0
1001
ACAD
1010
0.0
1020
0.0
1030
0.0
  0
LINE
  5
8B2
330
85D
100
AcDbEntity
  8
1
  6
Continuous
 62
     4
100
AcDbLine
 10
918.01875
 20
499.0534362576139
 30
0.0
 11
955.9153137423862
 21
536.95
 31
0.0
1001
ACAD
1010
0.0
1020
0.0
1030
0.0
  0
LINE
  5
8B3
330
85D
100
AcDbEntity
  8
1
  6
Continuous
 62
     4
100
AcDbLine
 10
880.1263166823151
 20
450.5544012221306
 30
0.0
 11
907.3219154601842
 21
477.7499999999998
 31
0.0
1001
ACAD
1010
0.0
1020
0.0
1030
0.0
  0
LINE
  5
8B4
330
85D
100
AcDbEntity
  8
1
  6
Continuous
 62
     4
100
AcDbLine
 10
887.1285171779822
 20
446.95
 30
0.0
 11
994.6285171779836
 21
554.45
 31
0.0
1001
ACAD
1010
0.0
1020
0.0
1030
0.0
  0
LINE
  5
8B5
330
85D
100
AcDbEntity
  8
1
  6
Continuous
 62
     4
100
AcDbLine
 10
897.7351188957809
 20
446.95
 30
0.0
 11
1005.235118895779
 21
554.45
 31
0.0
1001
ACAD
1010
0.0
1020
0.0
1030
0.0
  0
LINE
  5
8B6
330
85D
100
AcDbEntity
  8
1
  6
Continuous
 62
     4
100
AcDbLine
 10
898.0187499999997
 20
436.6270293864203
 30
0.0
 11
1015.84172061358
 21
554.45
 31
0.0
1001
ACAD
1010
0.0
1020
0.0
1030
0.0
  0
LINE
  5
8B7
330
85D
100
AcDbEntity
  8
1
  6
Continuous
 62
     4
100
AcDbLine
 10
898.0187499999997
 20
426.020427668622
 30
0.0
 11
1026.448322331378
 21
554.45
 31
0.0
1001
ACAD
1010
0.0
1020
0.0
1030
0.0
  0
LINE
  5
8B8
330
85D
100
AcDbEntity
  8
1
  6
Continuous
 62
     4
100
AcDbLine
 10
898.0187499999997
 20
415.4138259508235
 30
0.0
 11
1033.018749999998
 21
550.4138259508208
 31
0.0
1001
ACAD
1010
0.0
1020
0.0
1030
0.0
  0
LINE
  5
8B9
330
85D
100
AcDbEntity
  8
1
  6
Continuous
 62
     4
100
AcDbLine
 10
898.0187499999997
 20
404.8072242330253
 30
0.0
 11
1033.018749999998
 21
539.8072242330226
 31
0.0
1001
ACAD
1010
0.0
1020
0.0
1030
0.0
  0
LINE
  5
8BA
330
85D
100
AcDbEntity
  8
1
  6
Continuous
 62
     4
100
AcDbLine
 10
898.0187499999997
 20
394.2006225152269
 30
0.0
 11
1033.018749999998
 21
529.200622515224
 31
0.0
1001
ACAD
1010
0.0
1020
0.0
1030
0.0
  0
LINE
  5
8BB
330
85D
100
AcDbEntity
  8
1
  6
Continuous
 62
     4
100
AcDbLine
 10
898.0187499999997
 20
383.5940207974285
 30
0.0
 11
1033.018749999998
 21
518.5940207974256
 31
0.0
1001
ACAD
1010
0.0
1020
0.0
1030
0.0
  0
LINE
  5
8BC
330
85D
100
AcDbEntity
  8
1
  6
Continuous
 62
     4
100
AcDbLine
 10
898.0187499999997
 20
372.9874190796302
 30
0.0
 11
1033.018749999998
 21
507.9874190796271
 31
0.0
1001
ACAD
1010
0.0
1020
0.0
1030
0.0
  0
LINE
  5
8BD
330
85D
100
AcDbEntity
  8
1
  6
Continuous
 62
     4
100
AcDbLine
 10
898.0187499999997
 20
362.3808173618318
 30
0.0
 11
958.0187499999999
 21
422.3808173618313
 31
0.0
1001
ACAD
1010
0.0
1020
0.0
1030
0.0
  0
LINE
  5
8BE
330
85D
100
AcDbEntity
  8
1
  6
Continuous
 62
     4
100
AcDbLine
 10
978.1945343559668
 20
431.9499999999997
 30
0.0
 11
1033.018749999998
 21
486.7742156440304
 31
0.0
1001
ACAD
1010
0.0
1020
0.0
1030
0.0
  0
LINE
  5
8BF
330
85D
100
AcDbEntity
  8
1
  6
Continuous
 62
     4
100
AcDbLine
 10
988.8011360737655
 20
431.9499999999998
 30
0.0
 11
1033.018749999998
 21
476.1676139262322
 31
0.0
1001
ACAD
1010
0.0
1020
0.0
1030
0.0
  0
LINE
  5
8C0
330
85D
100
AcDbEntity
  8
1
  6
Continuous
 62
     4
100
AcDbLine
 10
999.4077377915635
 20
431.9499999999997
 30
0.0
 11
1033.018749999998
 21
465.5610122084336
 31
0.0
1001
ACAD
1010
0.0
1020
0.0
1030
0.0
  0
LINE
  5
8C1
330
85D
100
AcDbEntity
  8
1
  6
Continuous
 62
     4
100
AcDbLine
 10
1010.014339509362
 20
431.9499999999997
 30
0.0
 11
1033.018749999998
 21
454.9544104906352
 31
0.0
1001
ACAD
1010
0.0
1020
0.0
1030
0.0
  0
LINE
  5
8C2
330
85D
100
AcDbEntity
  8
1
  6
Continuous
 62
     4
100
AcDbLine
 10
958.0187499999997
 20
539.0534362576137
 30
0.0
 11
973.4153137423863
 21
554.45
 31
0.0
1001
ACAD
1010
0.0
1020
0.0
1030
0.0
  0
LINE
  5
8C3
330
85D
100
AcDbEntity
  8
1
  6
Continuous
 62
     4
100
AcDbLine
 10
958.0187499999999
 20
549.660037975412
 30
0.0
 11
962.8087120245879
 21
554.45
 31
0.0
1001
ACAD
1010
0.0
1020
0.0
1030
0.0
  0
LINE
  5
8C4
330
85D
100
AcDbEntity
  8
1
  6
Continuous
 62
     4
100
AcDbLine
 10
908.0187499999999
 20
478.4468345398154
 30
0.0
 11
917.3219154601847
 21
487.75
 31
0.0
1001
ACAD
1010
0.0
1020
0.0
1030
0.0
  0
LINE
  5
8C5
330
85D
100
AcDbEntity
  8
1
  6
Continuous
 62
     4
100
AcDbLine
 10
918.01875
 20
488.4468345398153
 30
0.0
 11
984.0219154601848
 21
554.45
 31
0.0
1001
ACAD
1010
0.0
1020
0.0
1030
0.0
  0
LINE
  5
8C6
330
85D
100
AcDbEntity
  8
1
  6
Continuous
 62
     4
100
AcDbLine
 10
878.0187500000003
 20
459.053436257614
 30
0.0
 11
896.7153137423855
 21
477.7499999999998
 31
0.0
1001
ACAD
1010
0.0
1020
0.0
1030
0.0
  0
LINE
  5
8C7
330
85D
100
AcDbEntity
  8
1
  6
Continuous
 62
     4
100
AcDbLine
 10
878.0187500000003
 20
469.6600379754125
 30
0.0
 11
886.1087120245873
 21
477.7499999999998
 31
0.0
1001
ACAD
1010
0.0
1020
0.0
1030
0.0
  0
LINE
  5
8C8
330
85D
100
AcDbEntity
  8
1
  6
Continuous
 62
     4
100
AcDbLine
 10
1020.62094122716
 20
431.9499999999997
 30
0.0
 11
1033.018749999997
 21
444.3478087728371
 31
0.0
1001
ACAD
1010
0.0
1020
0.0
1030
0.0
  0
LINE
  5
8C9
330
85D
100
AcDbEntity
  8
1
  6
Continuous
 62
     4
100
AcDbLine
 10
1031.227542944958
 20
431.9499999999998
 30
0.0
 11
1033.018749999998
 21
433.741207055039
 31
0.0
1001
ACAD
1010
0.0
1020
0.0
1030
0.0
  0
LINE
  5
8CA
330
85D
100
AcDbEntity
  8
1
  6
Continuous
 62
     4
100
AcDbLine
 10
967.5879326381688
 20
431.9499999999997
 30
0.0
 11
1033.018749999998
 21
497.3808173618286
 31
0.0
1001
ACAD
1010
0.0
1020
0.0
1030
0.0
  0
LINE
  5
8CB
330
85D
100
AcDbEntity
  8
1
  6
Continuous
 62
     4
100
AcDbLine
 10
898.0187499999997
 20
351.7742156440335
 30
0.0
 11
958.0187499999999
 21
411.7742156440328
 31
0.0
1001
ACAD
1010
0.0
1020
0.0
1030
0.0
  0
LINE
  5
8CC
330
85D
100
AcDbEntity
  8
1
  6
Continuous
 62
     4
100
AcDbLine
 10
898.0187499999997
 20
341.167613926235
 30
0.0
 11
958.0187499999999
 21
401.1676139262346
 31
0.0
1001
ACAD
1010
0.0
1020
0.0
1030
0.0
  0
LINE
  5
8CD
330
85D
100
AcDbEntity
  8
1
  6
Continuous
 62
     4
100
AcDbLine
 10
898.0187500000006
 20
330.5610122084368
 30
0.0
 11
958.0187500000006
 21
390.5610122084361
 31
0.0
1001
ACAD
1010
0.0
1020
0.0
1030
0.0
  0
LINE
  5
8CE
330
85D
100
AcDbEntity
  8
1
  6
Continuous
 62
     4
100
AcDbLine
 10
900.0143395093623
 20
321.95
 30
0.0
 11
958.0187500000011
 21
379.9544104906378
 31
0.0
1001
ACAD
1010
0.0
1020
0.0
1030
0.0
  0
LINE
  5
8CF
330
85D
100
AcDbEntity
  8
1
  6
Continuous
 62
     4
100
AcDbLine
 10
910.620941227161
 20
321.95
 30
0.0
 11
958.0187500000011
 21
369.3478087728395
 31
0.0
1001
ACAD
1010
0.0
1020
0.0
1030
0.0
  0
LINE
  5
8D0
330
85D
100
AcDbEntity
  8
1
  6
Continuous
 62
     4
100
AcDbLine
 10
921.2275429449601
 20
321.95
 30
0.0
 11
958.0187500000011
 21
358.7412070550411
 31
0.0
1001
ACAD
1010
0.0
1020
0.0
1030
0.0
  0
LINE
  5
8D1
330
85D
100
AcDbEntity
  8
1
  6
Continuous
 62
     4
100
AcDbLine
 10
931.8341446627586
 20
321.95
 30
0.0
 11
958.0187500000016
 21
348.1346053372428
 31
0.0
1001
ACAD
1010
0.0
1020
0.0
1030
0.0
  0
LINE
  5
8D2
330
85D
100
AcDbEntity
  8
1
  6
Continuous
 62
     4
100
AcDbLine
 10
1103.01875
 20
548.373241411009
 30
0.0
 11
1109.09550858899
 21
554.45
 31
0.0
1001
ACAD
1010
0.0
1020
0.0
1030
0.0
  0
LINE
  5
8D3
330
85D
100
AcDbEntity
  8
1
  6
Continuous
 62
     4
100
AcDbLine
 10
1103.01875
 20
537.7666396932103
 30
0.0
 11
1119.702110306789
 21
554.45
 31
0.0
1001
ACAD
1010
0.0
1020
0.0
1030
0.0
  0
LINE
  5
8D4
330
85D
100
AcDbEntity
  8
1
  6
Continuous
 62
     4
100
AcDbLine
 10
1103.01875
 20
527.1600379754119
 30
0.0
 11
1130.308712024588
 21
554.45
 31
0.0
1001
ACAD
1010
0.0
1020
0.0
1030
0.0
  0
LINE
  5
8D5
330
85D
100
AcDbEntity
  8
1
  6
Continuous
 62
     4
100
AcDbLine
 10
1103.018749999999
 20
516.5534362576137
 30
0.0
 11
1138.01875
 21
551.5534362576137
 31
0.0
1001
ACAD
1010
0.0
1020
0.0
1030
0.0
  0
LINE
  5
8D6
330
85D
100
AcDbEntity
  8
1
  6
Continuous
 62
     4
100
AcDbLine
 10
1103.01875
 20
505.9468345398156
 30
0.0
 11
1138.01875
 21
540.9468345398152
 31
0.0
1001
ACAD
1010
0.0
1020
0.0
1030
0.0
  0
LINE
  5
8D7
330
85D
100
AcDbEntity
  8
1
  6
Continuous
 62
     4
100
AcDbLine
 10
1103.01875
 20
495.3402328220176
 30
0.0
 11
1138.01875
 21
530.3402328220171
 31
0.0
1001
ACAD
1010
0.0
1020
0.0
1030
0.0
  0
LINE
  5
8D8
330
85D
100
AcDbEntity
  8
1
  6
Continuous
 62
     4
100
AcDbLine
 10
1103.01875
 20
484.7336311042193
 30
0.0
 11
1138.01875
 21
519.7336311042188
 31
0.0
1001
ACAD
1010
0.0
1020
0.0
1030
0.0
  0
LINE
  5
8D9
330
85D
100
AcDbEntity
  8
1
  6
Continuous
 62
     4
100
AcDbLine
 10
1103.01875
 20
474.1270293864213
 30
0.0
 11
1138.01875
 21
509.1270293864205
 31
0.0
1001
ACAD
1010
0.0
1020
0.0
1030
0.0
  0
LINE
  5
8DA
330
85D
100
AcDbEntity
  8
1
  6
Continuous
 62
     4
100
AcDbLine
 10
1103.01875
 20
463.5204276686231
 30
0.0
 11
1138.01875
 21
498.5204276686225
 31
0.0
1001
ACAD
1010
0.0
1020
0.0
1030
0.0
  0
LINE
  5
8DB
330
85D
100
AcDbEntity
  8
1
  6
Continuous
 62
     4
100
AcDbLine
 10
1103.01875
 20
452.913825950825
 30
0.0
 11
1138.01875
 21
487.9138259508242
 31
0.0
1001
ACAD
1010
0.0
1020
0.0
1030
0.0
  0
LINE
  5
8DC
330
85D
100
AcDbEntity
  8
1
  6
Continuous
 62
     4
100
AcDbLine
 10
1103.01875
 20
442.3072242330268
 30
0.0
 11
1138.01875
 21
477.3072242330262
 31
0.0
1001
ACAD
1010
0.0
1020
0.0
1030
0.0
  0
LINE
  5
8DD
330
85D
100
AcDbEntity
  8
1
  6
Continuous
 62
     4
100
AcDbLine
 10
1103.268127484769
 20
431.9499999999997
 30
0.0
 11
1138.01875
 21
466.7006225152277
 31
0.0
1001
ACAD
1010
0.0
1020
0.0
1030
0.0
  0
LINE
  5
8DE
330
85D
100
AcDbEntity
  8
1
  6
Continuous
 62
     4
100
AcDbLine
 10
1113.874729202569
 20
431.9499999999998
 30
0.0
 11
1138.01875
 21
456.0940207974296
 31
0.0
1001
ACAD
1010
0.0
1020
0.0
1030
0.0
  0
LINE
  5
8DF
330
85D
100
AcDbEntity
  8
1
  6
Continuous
 62
     4
100
AcDbLine
 10
1124.481330920368
 20
431.9499999999997
 30
0.0
 11
1138.01875
 21
445.4874190796312
 31
0.0
1001
ACAD
1010
0.0
1020
0.0
1030
0.0
  0
LINE
  5
8E0
330
85D
100
AcDbEntity
  8
1
  6
Continuous
 62
     4
100
AcDbLine
 10
1135.087932638165
 20
431.9499999999998
 30
0.0
 11
1138.01875
 21
434.8808173618329
 31
0.0
1001
ACAD
1010
0.0
1020
0.0
1030
0.0
  0
LINE
  5
8E1
330
85D
100
AcDbEntity
  8
1
  6
Continuous
 62
     4
100
AcDbLine
 10
573.0187499999995
 20
668.2208042341365
 30
0.0
 11
559.2895542341359
 21
681.9499999999997
 31
0.0
1001
ACAD
1010
0.0
1020
0.0
1030
0.0
  0
LINE
  5
8E2
330
85D
100
AcDbEntity
  8
1
  6
Continuous
 62
     4
100
AcDbLine
 10
573.0187499999995
 20
678.8274059519345
 30
0.0
 11
569.8961559519339
 21
681.9500000000001
 31
0.0
1001
ACAD
1010
0.0
1020
0.0
1030
0.0
  0
LINE
  5
8E3
330
85D
100
AcDbEntity
  8
1
  6
Continuous
 62
     4
100
AcDbLine
 10
573.0187499999995
 20
657.6142025163377
 30
0.0
 11
548.6829525163376
 21
681.9499999999997
 31
0.0
1001
ACAD
1010
0.0
1020
0.0
1030
0.0
  0
LINE
  5
8E4
330
85D
100
AcDbEntity
  8
1
  6
Continuous
 62
     4
100
AcDbLine
 10
573.0187499999995
 20
647.0076007985396
 30
0.0
 11
538.0763507985392
 21
681.9499999999997
 31
0.0
1001
ACAD
1010
0.0
1020
0.0
1030
0.0
  0
LINE
  5
8E5
330
85D
100
AcDbEntity
  8
1
  6
Continuous
 62
     4
100
AcDbLine
 10
573.0187499999995
 20
636.4009990807414
 30
0.0
 11
538.0187499999997
 21
671.4009990807406
 31
0.0
1001
ACAD
1010
0.0
1020
0.0
1030
0.0
  0
LINE
  5
8E6
330
85D
100
AcDbEntity
  8
1
  6
Continuous
 62
     4
100
AcDbLine
 10
573.0187499999995
 20
625.7943973629427
 30
0.0
 11
538.0187499999997
 21
660.7943973629427
 31
0.0
1001
ACAD
1010
0.0
1020
0.0
1030
0.0
  0
LINE
  5
8E7
330
85D
100
AcDbEntity
  8
1
  6
Continuous
 62
     4
100
AcDbLine
 10
573.0187499999995
 20
615.1877956451447
 30
0.0
 11
538.0187499999997
 21
650.1877956451441
 31
0.0
1001
ACAD
1010
0.0
1020
0.0
1030
0.0
  0
LINE
  5
8E8
330
85D
100
AcDbEntity
  8
1
  6
Continuous
 62
     4
100
AcDbLine
 10
573.0187499999995
 20
604.5811939273463
 30
0.0
 11
538.0187499999997
 21
639.5811939273462
 31
0.0
1001
ACAD
1010
0.0
1020
0.0
1030
0.0
  0
LINE
  5
8E9
330
85D
100
AcDbEntity
  8
1
  6
Continuous
 62
     4
100
AcDbLine
 10
573.0187499999995
 20
593.9745922095481
 30
0.0
 11
538.0187499999997
 21
628.9745922095476
 31
0.0
1001
ACAD
1010
0.0
1020
0.0
1030
0.0
  0
LINE
  5
8EA
330
85D
100
AcDbEntity
  8
1
  6
Continuous
 62
     4
100
AcDbLine
 10
573.0187499999995
 20
583.3679904917496
 30
0.0
 11
538.0187499999997
 21
618.3679904917497
 31
0.0
1001
ACAD
1010
0.0
1020
0.0
1030
0.0
  0
LINE
  5
8EB
330
85D
100
AcDbEntity
  8
1
  6
Continuous
 62
     4
100
AcDbLine
 10
573.0187499999995
 20
572.7613887739512
 30
0.0
 11
538.0187499999997
 21
607.7613887739508
 31
0.0
1001
ACAD
1010
0.0
1020
0.0
1030
0.0
  0
LINE
  5
8EC
330
85D
100
AcDbEntity
  8
1
  6
Continuous
 62
     4
100
AcDbLine
 10
573.0187499999995
 20
562.154787056153
 30
0.0
 11
538.0187499999997
 21
597.154787056153
 31
0.0
1001
ACAD
1010
0.0
1020
0.0
1030
0.0
  0
LINE
  5
8ED
330
85D
100
AcDbEntity
  8
1
  6
Continuous
 62
     4
100
AcDbLine
 10
565.1169353383542
 20
559.45
 30
0.0
 11
538.0187499999997
 21
586.5481853383545
 31
0.0
1001
ACAD
1010
0.0
1020
0.0
1030
0.0
  0
LINE
  5
8EE
330
85D
100
AcDbEntity
  8
1
  6
Continuous
 62
     4
100
AcDbLine
 10
562.4121482822012
 20
551.5481853383547
 30
0.0
 11
562.409522822572
 21
551.5508107979841
 31
0.0
1001
ACAD
1010
0.0
1020
0.0
1030
0.0
  0
LINE
  5
8EF
330
85D
100
AcDbEntity
  8
1
  6
Continuous
 62
     4
100
AcDbLine
 10
557.108847423302
 20
546.2448844794557
 30
0.0
 11
557.1062219636727
 21
546.2475099390847
 31
0.0
1001
ACAD
1010
0.0
1020
0.0
1030
0.0
  0
LINE
  5
8F0
330
85D
100
AcDbEntity
  8
1
  6
Continuous
 62
     4
100
AcDbLine
 10
543.9037319027574
 20
559.45
 30
0.0
 11
538.0187499999997
 21
565.3349819027575
 31
0.0
1001
ACAD
1010
0.0
1020
0.0
1030
0.0
  0
LINE
  5
8F1
330
85D
100
AcDbEntity
  8
1
  6
Continuous
 62
     4
100
AcDbLine
 10
554.5103336205556
 20
559.45
 30
0.0
 11
538.0187499999997
 21
575.9415836205561
 31
0.0
1001
ACAD
1010
0.0
1020
0.0
1030
0.0
  0
LINE
  5
8F2
330
85D
100
AcDbEntity
  8
1
  6
Continuous
 62
     4
100
AcDbLine
 10
1138.01875
 20
668.2208042341365
 30
0.0
 11
1124.289554234136
 21
681.9500000000001
 31
0.0
1001
ACAD
1010
0.0
1020
0.0
1030
0.0
  0
LINE
  5
8F3
330
85D
100
AcDbEntity
  8
1
  6
Continuous
 62
     4
100
AcDbLine
 10
1138.01875
 20
678.8274059519345
 30
0.0
 11
1134.896155951934
 21
681.9500000000001
 31
0.0
1001
ACAD
1010
0.0
1020
0.0
1030
0.0
  0
LINE
  5
8F4
330
85D
100
AcDbEntity
  8
1
  6
Continuous
 62
     4
100
AcDbLine
 10
1138.01875
 20
657.6142025163377
 30
0.0
 11
1113.682952516338
 21
681.9500000000001
 31
0.0
1001
ACAD
1010
0.0
1020
0.0
1030
0.0
  0
LINE
  5
8F5
330
85D
100
AcDbEntity
  8
1
  6
Continuous
 62
     4
100
AcDbLine
 10
1138.01875
 20
647.0076007985397
 30
0.0
 11
1103.076350798539
 21
681.9500000000001
 31
0.0
1001
ACAD
1010
0.0
1020
0.0
1030
0.0
  0
LINE
  5
8F6
330
85D
100
AcDbEntity
  8
1
  6
Continuous
 62
     4
100
AcDbLine
 10
1138.01875
 20
636.4009990807411
 30
0.0
 11
1103.01875
 21
671.4009990807412
 31
0.0
1001
ACAD
1010
0.0
1020
0.0
1030
0.0
  0
LINE
  5
8F7
330
85D
100
AcDbEntity
  8
1
  6
Continuous
 62
     4
100
AcDbLine
 10
1138.01875
 20
625.7943973629427
 30
0.0
 11
1103.01875
 21
660.794397362943
 31
0.0
1001
ACAD
1010
0.0
1020
0.0
1030
0.0
  0
LINE
  5
8F8
330
85D
100
AcDbEntity
  8
1
  6
Continuous
 62
     4
100
AcDbLine
 10
1138.01875
 20
615.1877956451443
 30
0.0
 11
1103.018749999999
 21
650.1877956451445
 31
0.0
1001
ACAD
1010
0.0
1020
0.0
1030
0.0
  0
LINE
  5
8F9
330
85D
100
AcDbEntity
  8
1
  6
Continuous
 62
     4
100
AcDbLine
 10
1138.01875
 20
604.5811939273463
 30
0.0
 11
1103.018749999999
 21
639.5811939273461
 31
0.0
1001
ACAD
1010
0.0
1020
0.0
1030
0.0
  0
LINE
  5
8FA
330
85D
100
AcDbEntity
  8
1
  6
Continuous
 62
     4
100
AcDbLine
 10
1138.01875
 20
593.9745922095473
 30
0.0
 11
1103.018749999999
 21
628.9745922095476
 31
0.0
1001
ACAD
1010
0.0
1020
0.0
1030
0.0
  0
LINE
  5
8FB
330
85D
100
AcDbEntity
  8
1
  6
Continuous
 62
     4
100
AcDbLine
 10
1138.01875
 20
583.3679904917492
 30
0.0
 11
1103.018749999999
 21
618.3679904917489
 31
0.0
1001
ACAD
1010
0.0
1020
0.0
1030
0.0
  0
LINE
  5
8FC
330
85D
100
AcDbEntity
  8
1
  6
Continuous
 62
     4
100
AcDbLine
 10
1138.018749999999
 20
572.7613887739502
 30
0.0
 11
1103.018749999999
 21
607.7613887739508
 31
0.0
1001
ACAD
1010
0.0
1020
0.0
1030
0.0
  0
LINE
  5
8FD
330
85D
100
AcDbEntity
  8
1
  6
Continuous
 62
     4
100
AcDbLine
 10
1138.018749999999
 20
562.1547870561521
 30
0.0
 11
1103.018749999999
 21
597.1547870561521
 31
0.0
1001
ACAD
1010
0.0
1020
0.0
1030
0.0
  0
LINE
  5
8FE
330
85D
100
AcDbEntity
  8
1
  6
Continuous
 62
     4
100
AcDbLine
 10
1130.116935338353
 20
559.45
 30
0.0
 11
1103.018749999999
 21
586.5481853383535
 31
0.0
1001
ACAD
1010
0.0
1020
0.0
1030
0.0
  0
LINE
  5
8FF
330
85D
100
AcDbEntity
  8
1
  6
Continuous
 62
     4
100
AcDbLine
 10
1119.510333620554
 20
559.45
 30
0.0
 11
1103.018749999999
 21
575.9415836205547
 31
0.0
1001
ACAD
1010
0.0
1020
0.0
1030
0.0
  0
LINE
  5
900
330
85D
100
AcDbEntity
  8
1
  6
Continuous
 62
     4
100
AcDbLine
 10
1108.903731902756
 20
559.4499999999998
 30
0.0
 11
1103.01875
 21
565.3349819027562
 31
0.0
1001
ACAD
1010
0.0
1020
0.0
1030
0.0
  0
LINE
  5
901
330
85D
100
AcDbEntity
  8
1
  6
Continuous
 62
     4
100
AcDbLine
 10
958.0187499999999
 20
763.2208042341361
 30
0.0
 11
929.2895542341366
 21
791.95
 31
0.0
1001
ACAD
1010
0.0
1020
0.0
1030
0.0
  0
LINE
  5
902
330
85D
100
AcDbEntity
  8
1
  6
Continuous
 62
     4
100
AcDbLine
 10
958.0187499999999
 20
773.8274059519364
 30
0.0
 11
939.8961559519321
 21
791.9499999999997
 31
0.0
1001
ACAD
1010
0.0
1020
0.0
1030
0.0
  0
LINE
  5
903
330
85D
100
AcDbEntity
  8
1
  6
Continuous
 62
     4
100
AcDbLine
 10
958.0187499999999
 20
752.6142025163372
 30
0.0
 11
918.6829525163384
 21
791.95
 31
0.0
1001
ACAD
1010
0.0
1020
0.0
1030
0.0
  0
LINE
  5
904
330
85D
100
AcDbEntity
  8
1
  6
Continuous
 62
     4
100
AcDbLine
 10
958.0187499999999
 20
742.0076007985393
 30
0.0
 11
908.0763507985395
 21
791.95
 31
0.0
1001
ACAD
1010
0.0
1020
0.0
1030
0.0
  0
LINE
  5
905
330
85D
100
AcDbEntity
  8
1
  6
Continuous
 62
     4
100
AcDbLine
 10
958.0187499999999
 20
731.4009990807408
 30
0.0
 11
898.0187499999997
 21
791.4009990807413
 31
0.0
1001
ACAD
1010
0.0
1020
0.0
1030
0.0
  0
LINE
  5
906
330
85D
100
AcDbEntity
  8
1
  6
Continuous
 62
     4
100
AcDbLine
 10
958.0187499999999
 20
720.7943973629425
 30
0.0
 11
898.0187499999997
 21
780.7943973629432
 31
0.0
1001
ACAD
1010
0.0
1020
0.0
1030
0.0
  0
LINE
  5
907
330
85D
100
AcDbEntity
  8
1
  6
Continuous
 62
     4
100
AcDbLine
 10
958.0187499999999
 20
710.1877956451438
 30
0.0
 11
898.0187499999997
 21
770.1877956451445
 31
0.0
1001
ACAD
1010
0.0
1020
0.0
1030
0.0
  0
LINE
  5
908
330
85D
100
AcDbEntity
  8
1
  6
Continuous
 62
     4
100
AcDbLine
 10
1033.018749999998
 20
624.5811939273461
 30
0.0
 11
975.6499439273447
 21
681.9500000000001
 31
0.0
1001
ACAD
1010
0.0
1020
0.0
1030
0.0
  0
LINE
  5
909
330
85D
100
AcDbEntity
  8
1
  6
Continuous
 62
     4
100
AcDbLine
 10
1033.018749999998
 20
613.9745922095487
 30
0.0
 11
965.0433422095474
 21
681.9500000000001
 31
0.0
1001
ACAD
1010
0.0
1020
0.0
1030
0.0
  0
LINE
  5
90A
330
85D
100
AcDbEntity
  8
1
  6
Continuous
 62
     4
100
AcDbLine
 10
1033.018749999998
 20
603.3679904917501
 30
0.0
 11
898.0187499999997
 21
738.3679904917491
 31
0.0
1001
ACAD
1010
0.0
1020
0.0
1030
0.0
  0
LINE
  5
90B
330
85D
100
AcDbEntity
  8
1
  6
Continuous
 62
     4
100
AcDbLine
 10
1033.018749999998
 20
592.7613887739512
 30
0.0
 11
898.0187499999997
 21
727.7613887739508
 31
0.0
1001
ACAD
1010
0.0
1020
0.0
1030
0.0
  0
LINE
  5
90C
330
85D
100
AcDbEntity
  8
1
  6
Continuous
 62
     4
100
AcDbLine
 10
1033.018749999998
 20
582.1547870561536
 30
0.0
 11
898.0187499999997
 21
717.1547870561525
 31
0.0
1001
ACAD
1010
0.0
1020
0.0
1030
0.0
  0
LINE
  5
90D
330
85D
100
AcDbEntity
  8
1
  6
Continuous
 62
     4
100
AcDbLine
 10
1033.018749999998
 20
571.5481853383547
 30
0.0
 11
898.0187499999997
 21
706.5481853383537
 31
0.0
1001
ACAD
1010
0.0
1020
0.0
1030
0.0
  0
LINE
  5
90E
330
85D
100
AcDbEntity
  8
1
  6
Continuous
 62
     4
100
AcDbLine
 10
1033.018749999998
 20
560.9415836205557
 30
0.0
 11
898.0187499999997
 21
695.9415836205555
 31
0.0
1001
ACAD
1010
0.0
1020
0.0
1030
0.0
  0
LINE
  5
90F
330
85D
100
AcDbEntity
  8
1
  6
Continuous
 62
     4
100
AcDbLine
 10
1023.903731902755
 20
559.45
 30
0.0
 11
898.0187499999997
 21
685.3349819027571
 31
0.0
1001
ACAD
1010
0.0
1020
0.0
1030
0.0
  0
LINE
  5
910
330
85D
100
AcDbEntity
  8
1
  6
Continuous
 62
     4
100
AcDbLine
 10
1013.297130184956
 20
559.4499999999998
 30
0.0
 11
898.0187499999997
 21
674.7283801849585
 31
0.0
1001
ACAD
1010
0.0
1020
0.0
1030
0.0
  0
LINE
  5
911
330
85D
100
AcDbEntity
  8
1
  6
Continuous
 62
     4
100
AcDbLine
 10
1002.690528467159
 20
559.45
 30
0.0
 11
895.2967784671599
 21
666.84375
 31
0.0
1001
ACAD
1010
0.0
1020
0.0
1030
0.0
  0
LINE
  5
912
330
85D
100
AcDbEntity
  8
1
  6
Continuous
 62
     4
100
AcDbLine
 10
958.0187499999999
 20
688.9745922095472
 30
0.0
 11
898.0187499999997
 21
748.9745922095477
 31
0.0
1001
ACAD
1010
0.0
1020
0.0
1030
0.0
  0
LINE
  5
913
330
85D
100
AcDbEntity
  8
1
  6
Continuous
 62
     4
100
AcDbLine
 10
958.0187499999999
 20
699.5811939273451
 30
0.0
 11
898.0187499999997
 21
759.5811939273461
 31
0.0
1001
ACAD
1010
0.0
1020
0.0
1030
0.0
  0
LINE
  5
914
330
85D
100
AcDbEntity
  8
1
  6
Continuous
 62
     4
100
AcDbLine
 10
1033.018749999998
 20
635.1877956451447
 30
0.0
 11
986.2565456451426
 21
681.9500000000001
 31
0.0
1001
ACAD
1010
0.0
1020
0.0
1030
0.0
  0
LINE
  5
915
330
85D
100
AcDbEntity
  8
1
  6
Continuous
 62
     4
100
AcDbLine
 10
1033.018749999998
 20
645.7943973629425
 30
0.0
 11
996.8631473629407
 21
681.9500000000001
 31
0.0
1001
ACAD
1010
0.0
1020
0.0
1030
0.0
  0
LINE
  5
916
330
85D
100
AcDbEntity
  8
1
  6
Continuous
 62
     4
100
AcDbLine
 10
1033.018749999998
 20
656.4009990807411
 30
0.0
 11
1007.469749080738
 21
681.9500000000001
 31
0.0
1001
ACAD
1010
0.0
1020
0.0
1030
0.0
  0
LINE
  5
917
330
85D
100
AcDbEntity
  8
1
  6
Continuous
 62
     4
100
AcDbLine
 10
1033.018749999998
 20
667.0076007985398
 30
0.0
 11
1018.076350798538
 21
681.9500000000001
 31
0.0
1001
ACAD
1010
0.0
1020
0.0
1030
0.0
  0
LINE
  5
918
330
85D
100
AcDbEntity
  8
1
  6
Continuous
 62
     4
100
AcDbLine
 10
1033.018749999998
 20
656.4009990807412
 30
0.0
 11
1007.469749080738
 21
681.9500000000001
 31
0.0
1001
ACAD
1010
0.0
1020
0.0
1030
0.0
  0
LINE
  5
919
330
85D
100
AcDbEntity
  8
1
  6
Continuous
 62
     4
100
AcDbLine
 10
1033.018749999998
 20
677.6142025163385
 30
0.0
 11
1028.682952516335
 21
681.9500000000001
 31
0.0
1001
ACAD
1010
0.0
1020
0.0
1030
0.0
  0
LINE
  5
91A
330
85D
100
AcDbEntity
  8
1
  6
Continuous
 62
     4
100
AcDbLine
 10
992.0839267493603
 20
559.45
 30
0.0
 11
886.2700883746807
 21
665.2638383746809
 31
0.0
1001
ACAD
1010
0.0
1020
0.0
1030
0.0
  0
LINE
  5
91B
330
85D
100
AcDbEntity
  8
1
  6
Continuous
 62
     4
100
AcDbLine
 10
981.4773250315621
 20
559.45
 30
0.0
 11
918.0187499999997
 21
622.9085750315625
 31
0.0
1001
ACAD
1010
0.0
1020
0.0
1030
0.0
  0
LINE
  5
91C
330
85D
100
AcDbEntity
  8
1
  6
Continuous
 62
     4
100
AcDbLine
 10
970.8707233137641
 20
559.45
 30
0.0
 11
918.0187499999997
 21
612.3019733137645
 31
0.0
1001
ACAD
1010
0.0
1020
0.0
1030
0.0
  0
LINE
  5
91D
330
85D
100
AcDbEntity
  8
1
  6
Continuous
 62
     4
100
AcDbLine
 10
909.6773250315628
 20
631.25
 30
0.0
 11
908.0187499999999
 21
632.9085750315627
 31
0.0
1001
ACAD
1010
0.0
1020
0.0
1030
0.0
  0
LINE
  5
91E
330
85D
100
AcDbEntity
  8
1
  6
Continuous
 62
     4
100
AcDbLine
 10
898.9773250315629
 20
641.9499999999998
 30
0.0
 11
883.0187499999997
 21
657.9085750315632
 31
0.0
1001
ACAD
1010
0.0
1020
0.0
1030
0.0
  0
LINE
  5
91F
330
85D
100
AcDbEntity
  8
1
  6
Continuous
 62
     4
100
AcDbLine
 10
946.5509181603689
 20
551.95
 30
0.0
 11
918.01875
 21
580.4821681603693
 31
0.0
1001
ACAD
1010
0.0
1020
0.0
1030
0.0
  0
LINE
  5
920
330
85D
100
AcDbEntity
  8
1
  6
Continuous
 62
     4
100
AcDbLine
 10
935.9443164425703
 20
551.95
 30
0.0
 11
918.01875
 21
569.8755664425711
 31
0.0
1001
ACAD
1010
0.0
1020
0.0
1030
0.0
  0
LINE
  5
921
330
85D
100
AcDbEntity
  8
1
  6
Continuous
 62
     4
100
AcDbLine
 10
925.3377147247729
 20
551.95
 30
0.0
 11
918.01875
 21
559.2689647247729
 31
0.0
1001
ACAD
1010
0.0
1020
0.0
1030
0.0
  0
LINE
  5
922
330
85D
100
AcDbEntity
  8
1
  6
Continuous
 62
     4
100
AcDbLine
 10
953.01875
 20
556.0887698781669
 30
0.0
 11
918.01875
 21
591.0887698781676
 31
0.0
1001
ACAD
1010
0.0
1020
0.0
1030
0.0
  0
LINE
  5
923
330
85D
100
AcDbEntity
  8
1
  6
Continuous
 62
     4
100
AcDbLine
 10
960.2641215959655
 20
559.45
 30
0.0
 11
918.01875
 21
601.6953715959662
 31
0.0
1001
ACAD
1010
0.0
1020
0.0
1030
0.0
  0
LINE
  5
924
330
85D
100
AcDbEntity
  8
1
  6
Continuous
 62
     4
100
AcDbLine
 10
778.0187499999997
 20
778.1145542341362
 30
0.0
 11
764.1833042341362
 21
791.95
 31
0.0
1001
ACAD
1010
0.0
1020
0.0
1030
0.0
  0
LINE
  5
925
330
85D
100
AcDbEntity
  8
1
  6
Continuous
 62
     4
100
AcDbLine
 10
778.0187499999997
 20
788.7211559519345
 30
0.0
 11
774.7899059519336
 21
791.95
 31
0.0
1001
ACAD
1010
0.0
1020
0.0
1030
0.0
  0
LINE
  5
926
330
85D
100
AcDbEntity
  8
1
  6
Continuous
 62
     4
100
AcDbLine
 10
778.0187499999997
 20
767.5079525163381
 30
0.0
 11
753.5767025163379
 21
791.9499999999997
 31
0.0
1001
ACAD
1010
0.0
1020
0.0
1030
0.0
  0
LINE
  5
927
330
85D
100
AcDbEntity
  8
1
  6
Continuous
 62
     4
100
AcDbLine
 10
778.0187499999997
 20
756.9013507985394
 30
0.0
 11
742.97010079854
 21
791.9499999999997
 31
0.0
1001
ACAD
1010
0.0
1020
0.0
1030
0.0
  0
LINE
  5
928
330
85D
100
AcDbEntity
  8
1
  6
Continuous
 62
     4
100
AcDbLine
 10
778.0187499999997
 20
746.2947490807413
 30
0.0
 11
732.6911245403705
 21
791.6223745403705
 31
0.0
1001
ACAD
1010
0.0
1020
0.0
1030
0.0
  0
LINE
  5
929
330
85D
100
AcDbEntity
  8
1
  6
Continuous
 62
     4
100
AcDbLine
 10
778.0187499999997
 20
735.6881473629428
 30
0.0
 11
727.3878236814712
 21
786.3190736814714
 31
0.0
1001
ACAD
1010
0.0
1020
0.0
1030
0.0
  0
LINE
  5
92A
330
85D
100
AcDbEntity
  8
1
  6
Continuous
 62
     4
100
AcDbLine
 10
778.0187499999997
 20
725.0815456451441
 30
0.0
 11
722.0845228225721
 21
781.0157728225722
 31
0.0
1001
ACAD
1010
0.0
1020
0.0
1030
0.0
  0
LINE
  5
92B
330
85D
100
AcDbEntity
  8
1
  6
Continuous
 62
     4
100
AcDbLine
 10
778.0187499999997
 20
714.4749439273456
 30
0.0
 11
718.0187499999997
 21
774.4749439273462
 31
0.0
1001
ACAD
1010
0.0
1020
0.0
1030
0.0
  0
LINE
  5
92C
330
85D
100
AcDbEntity
  8
1
  6
Continuous
 62
     4
100
AcDbLine
 10
778.0187499999997
 20
703.8683422095474
 30
0.0
 11
718.0187499999997
 21
763.8683422095477
 31
0.0
1001
ACAD
1010
0.0
1020
0.0
1030
0.0
  0
LINE
  5
92D
330
85D
100
AcDbEntity
  8
1
  6
Continuous
 62
     4
100
AcDbLine
 10
778.0187499999997
 20
693.2617404917492
 30
0.0
 11
718.0187499999997
 21
753.2617404917491
 31
0.0
1001
ACAD
1010
0.0
1020
0.0
1030
0.0
  0
LINE
  5
92E
330
85D
100
AcDbEntity
  8
1
  6
Continuous
 62
     4
100
AcDbLine
 10
778.0187499999997
 20
682.6551387739505
 30
0.0
 11
718.0187499999997
 21
742.6551387739508
 31
0.0
1001
ACAD
1010
0.0
1020
0.0
1030
0.0
  0
LINE
  5
92F
330
85D
100
AcDbEntity
  8
1
  6
Continuous
 62
     4
100
AcDbLine
 10
793.0187499999997
 20
657.0485370561518
 30
0.0
 11
783.01875
 21
667.048537056152
 31
0.0
1001
ACAD
1010
0.0
1020
0.0
1030
0.0
  0
LINE
  5
930
330
85D
100
AcDbEntity
  8
1
  6
Continuous
 62
     4
100
AcDbLine
 10
791.4821765549844
 20
647.9785087833686
 30
0.0
 11
718.0187499999997
 21
721.4419353383539
 31
0.0
1001
ACAD
1010
0.0
1020
0.0
1030
0.0
  0
LINE
  5
931
330
85D
100
AcDbEntity
  8
1
  6
Continuous
 62
     4
100
AcDbLine
 10
786.3009692696472
 20
642.5531143509076
 30
0.0
 11
718.0187499999997
 21
710.8353336205555
 31
0.0
1001
ACAD
1010
0.0
1020
0.0
1030
0.0
  0
LINE
  5
932
330
85D
100
AcDbEntity
  8
1
  6
Continuous
 62
     4
100
AcDbLine
 10
776.2974819027566
 20
641.9499999999998
 30
0.0
 11
718.0187499999997
 21
700.2287319027567
 31
0.0
1001
ACAD
1010
0.0
1020
0.0
1030
0.0
  0
LINE
  5
933
330
85D
100
AcDbEntity
  8
1
  6
Continuous
 62
     4
100
AcDbLine
 10
768.0187499999997
 20
639.6221301849582
 30
0.0
 11
718.0187499999997
 21
689.6221301849585
 31
0.0
1001
ACAD
1010
0.0
1020
0.0
1030
0.0
  0
LINE
  5
934
330
85D
100
AcDbEntity
  8
1
  6
Continuous
 62
     4
100
AcDbLine
 10
764.2842784671594
 20
632.75
 30
0.0
 11
715.08427846716
 21
681.9500000000001
 31
0.0
1001
ACAD
1010
0.0
1020
0.0
1030
0.0
  0
LINE
  5
935
330
85D
100
AcDbEntity
  8
1
  6
Continuous
 62
     4
100
AcDbLine
 10
758.01875
 20
628.4089267493607
 30
0.0
 11
704.4776767493613
 21
681.9500000000001
 31
0.0
1001
ACAD
1010
0.0
1020
0.0
1030
0.0
  0
LINE
  5
936
330
85D
100
AcDbEntity
  8
1
  6
Continuous
 62
     4
100
AcDbLine
 10
758.01875
 20
617.8023250315626
 30
0.0
 11
693.8710750315631
 21
681.9500000000001
 31
0.0
1001
ACAD
1010
0.0
1020
0.0
1030
0.0
  0
LINE
  5
937
330
85D
100
AcDbEntity
  8
1
  6
Continuous
 62
     4
100
AcDbLine
 10
758.01875
 20
607.1957233137641
 30
0.0
 11
683.264473313765
 21
681.9500000000001
 31
0.0
1001
ACAD
1010
0.0
1020
0.0
1030
0.0
  0
LINE
  5
938
330
85D
100
AcDbEntity
  8
1
  6
Continuous
 62
     4
100
AcDbLine
 10
778.0187499999997
 20
672.0485370561521
 30
0.0
 11
718.0187499999997
 21
732.0485370561522
 31
0.0
1001
ACAD
1010
0.0
1020
0.0
1030
0.0
  0
LINE
  5
939
330
85D
100
AcDbEntity
  8
1
  6
Continuous
 62
     4
100
AcDbLine
 10
758.01875
 20
596.5891215959657
 30
0.0
 11
672.6578715959667
 21
681.9500000000001
 31
0.0
1001
ACAD
1010
0.0
1020
0.0
1030
0.0
  0
LINE
  5
93A
330
85D
100
AcDbEntity
  8
1
  6
Continuous
 62
     4
100
AcDbLine
 10
758.01875
 20
585.9825198781672
 30
0.0
 11
662.0512698781684
 21
681.9500000000001
 31
0.0
1001
ACAD
1010
0.0
1020
0.0
1030
0.0
  0
LINE
  5
93B
330
85D
100
AcDbEntity
  8
1
  6
Continuous
 62
     4
100
AcDbLine
 10
758.01875
 20
575.3759181603689
 30
0.0
 11
651.4446681603699
 21
681.9500000000001
 31
0.0
1001
ACAD
1010
0.0
1020
0.0
1030
0.0
  0
LINE
  5
93C
330
85D
100
AcDbEntity
  8
1
  6
Continuous
 62
     4
100
AcDbLine
 10
758.01875
 20
564.7693164425702
 30
0.0
 11
643.0187499999996
 21
679.7693164425717
 31
0.0
1001
ACAD
1010
0.0
1020
0.0
1030
0.0
  0
LINE
  5
93D
330
85D
100
AcDbEntity
  8
1
  6
Continuous
 62
     4
100
AcDbLine
 10
758.01875
 20
554.162714724772
 30
0.0
 11
643.0187499999996
 21
669.1627147247733
 31
0.0
1001
ACAD
1010
0.0
1020
0.0
1030
0.0
  0
LINE
  5
93E
330
85D
100
AcDbEntity
  8
1
  6
Continuous
 62
     4
100
AcDbLine
 10
749.6248630069735
 20
551.95
 30
0.0
 11
643.0187499999996
 21
658.5561130069747
 31
0.0
1001
ACAD
1010
0.0
1020
0.0
1030
0.0
  0
LINE
  5
93F
330
85D
100
AcDbEntity
  8
1
  6
Continuous
 62
     4
100
AcDbLine
 10
739.0182612891748
 20
551.95
 30
0.0
 11
643.0187499999996
 21
647.9495112891762
 31
0.0
1001
ACAD
1010
0.0
1020
0.0
1030
0.0
  0
LINE
  5
940
330
85D
100
AcDbEntity
  8
1
  6
Continuous
 62
     4
100
AcDbLine
 10
728.4116595713766
 20
551.95
 30
0.0
 11
723.0187499999997
 21
557.3429095713768
 31
0.0
1001
ACAD
1010
0.0
1020
0.0
1030
0.0
  0
LINE
  5
941
330
85D
100
AcDbEntity
  8
1
  6
Continuous
 62
     4
100
AcDbLine
 10
710.3050578535786
 20
559.45
 30
0.0
 11
643.0187499999996
 21
626.7363078535792
 31
0.0
1001
ACAD
1010
0.0
1020
0.0
1030
0.0
  0
LINE
  5
942
330
85D
100
AcDbEntity
  8
1
  6
Continuous
 62
     4
100
AcDbLine
 10
699.6984561357797
 20
559.45
 30
0.0
 11
643.0187499999996
 21
616.1297061357807
 31
0.0
1001
ACAD
1010
0.0
1020
0.0
1030
0.0
  0
LINE
  5
943
330
85D
100
AcDbEntity
  8
1
  6
Continuous
 62
     4
100
AcDbLine
 10
720.9116595713766
 20
559.45
 30
0.0
 11
643.0187499999996
 21
637.3429095713777
 31
0.0
1001
ACAD
1010
0.0
1020
0.0
1030
0.0
  0
LINE
  5
944
330
85D
100
AcDbEntity
  8
1
  6
Continuous
 62
     4
100
AcDbLine
 10
646.6654475467881
 20
559.45
 30
0.0
 11
643.0187499999996
 21
563.0966975467884
 31
0.0
1001
ACAD
1010
0.0
1020
0.0
1030
0.0
  0
LINE
  5
945
330
85D
100
AcDbEntity
  8
1
  6
Continuous
 62
     4
100
AcDbLine
 10
657.2720492645867
 20
559.45
 30
0.0
 11
643.0187499999996
 21
573.7032992645869
 31
0.0
1001
ACAD
1010
0.0
1020
0.0
1030
0.0
  0
LINE
  5
946
330
85D
100
AcDbEntity
  8
1
  6
Continuous
 62
     4
100
AcDbLine
 10
667.8786509823849
 20
559.4499999999998
 30
0.0
 11
643.0187499999996
 21
584.3099009823854
 31
0.0
1001
ACAD
1010
0.0
1020
0.0
1030
0.0
  0
LINE
  5
947
330
85D
100
AcDbEntity
  8
1
  6
Continuous
 62
     4
100
AcDbLine
 10
678.4852527001831
 20
559.45
 30
0.0
 11
643.0187499999996
 21
594.9165027001837
 31
0.0
1001
ACAD
1010
0.0
1020
0.0
1030
0.0
  0
LINE
  5
948
330
85D
100
AcDbEntity
  8
1
  6
Continuous
 62
     4
100
AcDbLine
 10
689.0918544179815
 20
559.45
 30
0.0
 11
643.0187499999996
 21
605.5231044179824
 31
0.0
1001
ACAD
1010
0.0
1020
0.0
1030
0.0
  0
LINE
  5
949
330
85D
100
AcDbEntity
  8
1
  6
Continuous
 62
     4
100
AcDbLine
 10
865.8366735926703
 20
460.4028806414652
 30
0.0
 11
796.4716306414652
 21
529.7679235926708
 31
0.0
1001
ACAD
1010
0.0
1020
0.0
1030
0.0
  0
LINE
  5
94A
330
85D
100
AcDbEntity
  8
1
  6
Continuous
 62
     4
100
AcDbLine
 10
871.7783016577726
 20
465.0678542941689
 30
0.0
 11
801.1366042941611
 21
535.7095516577649
 31
0.0
1001
ACAD
1010
0.0
1020
0.0
1030
0.0
  0
LINE
  5
94B
330
85D
100
AcDbEntity
  8
1
  6
Continuous
 62
     4
100
AcDbLine
 10
859.0463666210691
 20
456.5865858952683
 30
0.0
 11
792.6553358952685
 21
522.9776166210695
 31
0.0
1001
ACAD
1010
0.0
1020
0.0
1030
0.0
  0
LINE
  5
94C
330
85D
100
AcDbEntity
  8
1
  6
Continuous
 62
     4
100
AcDbLine
 10
851.2844530492017
 20
453.7418977493365
 30
0.0
 11
789.8106477493366
 21
515.2157030492028
 31
0.0
1001
ACAD
1010
0.0
1020
0.0
1030
0.0
  0
LINE
  5
94D
330
85D
100
AcDbEntity
  8
1
  6
Continuous
 62
     4
100
AcDbLine
 10
842.2872177357135
 20
452.1325313450271
 30
0.0
 11
788.2012813450272
 21
506.218467735714
 31
0.0
1001
ACAD
1010
0.0
1020
0.0
1030
0.0
  0
LINE
  5
94E
330
85D
100
AcDbEntity
  8
1
  6
Continuous
 62
     4
100
AcDbLine
 10
831.4266898396731
 20
452.3864575232696
 30
0.0
 11
788.4552075232692
 21
495.3579398396732
 31
0.0
1001
ACAD
1010
0.0
1020
0.0
1030
0.0
  0
LINE
  5
94F
330
85D
100
AcDbEntity
  8
1
  6
Continuous
 62
     4
100
AcDbLine
 10
816.2867687087222
 20
456.9197769364222
 30
0.0
 11
792.9885269364222
 21
480.2180187087221
 31
0.0
1001
ACAD
1010
0.0
1020
0.0
1030
0.0
  0
LINE
  5
950
330
85D
100
AcDbEntity
  8
1
  6
Continuous
 62
     4
100
AcDbLine
 10
876.9175086239537
 20
470.5352490457851
 30
0.0
 11
806.6039990457776
 21
540.848758623948
 31
0.0
1001
ACAD
1010
0.0
1020
0.0
1030
0.0
  0
LINE
  5
951
330
85D
100
AcDbEntity
  8
1
  6
Continuous
 62
     4
100
AcDbLine
 10
881.2427390306018
 20
476.8166203569356
 30
0.0
 11
812.8853703569266
 21
545.1739890305966
 31
0.0
1001
ACAD
1010
0.0
1020
0.0
1030
0.0
  0
LINE
  5
952
330
85D
100
AcDbEntity
  8
1
  6
Continuous
 62
     4
100
AcDbLine
 10
884.6801629004351
 20
483.9857982049002
 30
0.0
 11
820.0545482048905
 21
548.6114129004318
 31
0.0
1001
ACAD
1010
0.0
1020
0.0
1030
0.0
  0
LINE
  5
953
330
85D
100
AcDbEntity
  8
1
  6
Continuous
 62
     4
100
AcDbLine
 10
887.0611748552928
 20
492.2113879678406
 30
0.0
 11
828.2801379678302
 21
550.992424855291
 31
0.0
1001
ACAD
1010
0.0
1020
0.0
1030
0.0
  0
LINE
  5
954
330
85D
100
AcDbEntity
  8
1
  6
Continuous
 62
     4
100
AcDbLine
 10
888.0186698878642
 20
501.860494653067
 30
0.0
 11
838.0187499999998
 21
551.8604145409207
 31
0.0
1001
ACAD
1010
0.0
1020
0.0
1030
0.0
  0
LINE
  5
955
330
85D
100
AcDbEntity
  8
1
  6
Continuous
 62
     4
100
AcDbLine
 10
886.5644855240566
 20
513.9212807346714
 30
0.0
 11
850.2459621585574
 21
550.2398041001627
 31
0.0
1001
ACAD
1010
0.0
1020
0.0
1030
0.0
  0
LINE
  5
956
330
85D
100
AcDbEntity
  8
1
  6
Continuous
 62
     4
100
AcDbLine
 10
768.0187499999997
 20
632.160037975412
 30
0.0
 11
772.8087120245874
 21
636.9499999999998
 31
0.0
1001
ACAD
1010
0.0
1020
0.0
1030
0.0
  0
LINE
  5
957
330
85D
100
AcDbEntity
  8
1
  6
Continuous
 62
     4
100
AcDbLine
 10
773.4153137423857
 20
626.9500000000001
 30
0.0
 11
783.4153137423863
 21
636.9500000000003
 31
0.0
1001
ACAD
1010
0.0
1020
0.0
1030
0.0
  0
LINE
  5
958
330
85D
100
AcDbEntity
  8
1
  6
Continuous
 62
     4
100
AcDbLine
 10
784.0219154601843
 20
626.9500000000001
 30
0.0
 11
794.0219154601843
 21
636.9500000000003
 31
0.0
1001
ACAD
1010
0.0
1020
0.0
1030
0.0
  0
LINE
  5
959
330
85D
100
AcDbEntity
  8
1
  6
Continuous
 62
     4
100
AcDbLine
 10
794.6285171779828
 20
626.9500000000001
 30
0.0
 11
798.0187499999997
 21
630.3402328220171
 31
0.0
1001
ACAD
1010
0.0
1020
0.0
1030
0.0
  0
LINE
  5
95A
330
85D
100
AcDbEntity
  8
1
  6
Continuous
 62
     4
100
AcDbLine
 10
878.0187500000003
 20
632.160037975412
 30
0.0
 11
882.8087120245882
 21
636.9499999999998
 31
0.0
1001
ACAD
1010
0.0
1020
0.0
1030
0.0
  0
LINE
  5
95B
330
85D
100
AcDbEntity
  8
1
  6
Continuous
 62
     4
100
AcDbLine
 10
883.4153137423863
 20
626.9500000000001
 30
0.0
 11
893.4153137423862
 21
636.9500000000003
 31
0.0
1001
ACAD
1010
0.0
1020
0.0
1030
0.0
  0
LINE
  5
95C
330
85D
100
AcDbEntity
  8
1
  6
Continuous
 62
     4
100
AcDbLine
 10
894.0219154601845
 20
626.9500000000001
 30
0.0
 11
904.0219154601842
 21
636.9500000000003
 31
0.0
1001
ACAD
1010
0.0
1020
0.0
1030
0.0
  0
LINE
  5
95D
330
85D
100
AcDbEntity
  8
1
  6
Continuous
 62
     4
100
AcDbLine
 10
904.6285171779823
 20
626.9500000000001
 30
0.0
 11
908.0187499999999
 21
630.3402328220177
 31
0.0
1001
ACAD
1010
0.0
1020
0.0
1030
0.0
  0
LINE
  5
95E
330
85D
100
AcDbEntity
  8
1
  6
Continuous
 62
     4
100
AcDbLine
 10
914.606221963672
 20
636.9277047856892
 30
0.0
 11
914.6285171779828
 21
636.9500000000003
 31
0.0
1001
ACAD
1010
0.0
1020
0.0
1030
0.0
  0
LINE
  5
95F
330
85D
100
AcDbEntity
  8
1
  6
Continuous
 62
     4
100
AcDbLine
 10
768.0187499999997
 20
577.1600379754118
 30
0.0
 11
772.8087120245882
 21
581.9500000000001
 31
0.0
1001
ACAD
1010
0.0
1020
0.0
1030
0.0
  0
LINE
  5
960
330
85D
100
AcDbEntity
  8
1
  6
Continuous
 62
     4
100
AcDbLine
 10
768.0187499999997
 20
566.5534362576136
 30
0.0
 11
783.4153137423863
 21
581.9499999999997
 31
0.0
1001
ACAD
1010
0.0
1020
0.0
1030
0.0
  0
LINE
  5
961
330
85D
100
AcDbEntity
  8
1
  6
Continuous
 62
     4
100
AcDbLine
 10
768.0187499999997
 20
555.9468345398155
 30
0.0
 11
794.0219154601843
 21
581.9499999999997
 31
0.0
1001
ACAD
1010
0.0
1020
0.0
1030
0.0
  0
LINE
  5
962
330
85D
100
AcDbEntity
  8
1
  6
Continuous
 62
     4
100
AcDbLine
 10
768.0187499999997
 20
545.3402328220172
 30
0.0
 11
779.0765439602713
 21
556.398026782289
 31
0.0
1001
ACAD
1010
0.0
1020
0.0
1030
0.0
  0
LINE
  5
963
330
85D
100
AcDbEntity
  8
1
  6
Continuous
 62
     4
100
AcDbLine
 10
775.2351188957809
 20
541.95
 30
0.0
 11
780.7739712574797
 21
547.4888523616987
 31
0.0
1001
ACAD
1010
0.0
1020
0.0
1030
0.0
  0
LINE
  5
964
330
85D
100
AcDbEntity
  8
1
  6
Continuous
 62
     4
100
AcDbLine
 10
787.9334007669744
 20
565.2548835889914
 30
0.0
 11
797.2758029435602
 21
574.5972857655772
 31
0.0
1001
ACAD
1010
0.0
1020
0.0
1030
0.0
  0
LINE
  5
965
330
85D
100
AcDbEntity
  8
1
  6
Continuous
 62
     4
100
AcDbLine
 10
877.9399785344867
 20
578.3187665098987
 30
0.0
 11
881.571212024588
 21
581.9500000000001
 31
0.0
1001
ACAD
1010
0.0
1020
0.0
1030
0.0
  0
LINE
  5
966
330
85D
100
AcDbEntity
  8
1
  6
Continuous
 62
     4
100
AcDbLine
 10
881.0337781056132
 20
570.8059643632272
 30
0.0
 11
892.1778137423864
 21
581.9499999999997
 31
0.0
1001
ACAD
1010
0.0
1020
0.0
1030
0.0
  0
LINE
  5
967
330
85D
100
AcDbEntity
  8
1
  6
Continuous
 62
     4
100
AcDbLine
 10
886.5929990951379
 20
565.7585836349538
 30
0.0
 11
902.7844154601847
 21
581.9500000000001
 31
0.0
1001
ACAD
1010
0.0
1020
0.0
1030
0.0
  0
LINE
  5
968
330
85D
100
AcDbEntity
  8
1
  6
Continuous
 62
     4
100
AcDbLine
 10
894.5479503834874
 20
563.1069332055042
 30
0.0
 11
908.0187499999999
 21
576.5777328220167
 31
0.0
1001
ACAD
1010
0.0
1020
0.0
1030
0.0
  0
LINE
  5
969
330
85D
100
AcDbEntity
  8
1
  6
Continuous
 62
     4
100
AcDbLine
 10
896.6115049737259
 20
554.5638860779446
 30
0.0
 11
908.0187499999999
 21
565.9711311042181
 31
0.0
1001
ACAD
1010
0.0
1020
0.0
1030
0.0
  0
LINE
  5
96A
330
85D
100
AcDbEntity
  8
1
  6
Continuous
 62
     4
100
AcDbLine
 10
894.6042206135789
 20
541.95
 30
0.0
 11
908.0187499999999
 21
555.3645293864206
 31
0.0
1001
ACAD
1010
0.0
1020
0.0
1030
0.0
  0
LINE
  5
96B
330
85D
100
AcDbEntity
  8
1
  6
Continuous
 62
     4
100
AcDbLine
 10
905.2108223313776
 20
541.95
 30
0.0
 11
908.0187499999999
 21
544.7579276686225
 31
0.0
1001
ACAD
1010
0.0
1020
0.0
1030
0.0
  0
LINE
  5
96C
330
85D
100
AcDbEntity
  8
1
  6
Continuous
 62
     4
100
AcDbLine
 10
768.0187499999997
 20
482.9600379754118
 30
0.0
 11
772.8087120245882
 21
487.75
 31
0.0
1001
ACAD
1010
0.0
1020
0.0
1030
0.0
  0
LINE
  5
96D
330
85D
100
AcDbEntity
  8
1
  6
Continuous
 62
     4
100
AcDbLine
 10
773.4153137423857
 20
477.7499999999998
 30
0.0
 11
783.4153137423863
 21
487.75
 31
0.0
1001
ACAD
1010
0.0
1020
0.0
1030
0.0
  0
LINE
  5
96E
330
85D
100
AcDbEntity
  8
1
  6
Continuous
 62
     4
100
AcDbLine
 10
892.0437499999996
 20
482.9600379754118
 30
0.0
 11
896.8337120245886
 21
487.75
 31
0.0
1001
ACAD
1010
0.0
1020
0.0
1030
0.0
  0
LINE
  5
96F
330
85D
100
AcDbEntity
  8
1
  6
Continuous
 62
     4
100
AcDbLine
 10
897.4403137423861
 20
477.7499999999998
 30
0.0
 11
907.4403137423864
 21
487.75
 31
0.0
1001
ACAD
1010
0.0
1020
0.0
1030
0.0
  0
LINE
  5
970
330
85D
100
AcDbEntity
  8
6
  6
Continuous
 62
     7
100
AcDbLine
 10
733.01875
 20
791.95
 30
0.0
 11
943.01875
 21
791.95
 31
0.0
  0
LINE
  5
971
330
85D
100
AcDbEntity
  8
6
  6
Continuous
 62
     7
100
AcDbLine
 10
733.01875
 20
321.95
 30
0.0
 11
943.01875
 21
321.95
 31
0.0
  0
LINE
  5
972
330
85D
100
AcDbEntity
  8
6
  6
Continuous
 62
     7
100
AcDbLine
 10
718.0187499999997
 20
681.9500000000001
 30
0.0
 11
538.0187499999997
 21
681.9500000000001
 31
0.0
  0
LINE
  5
973
330
85D
100
AcDbEntity
  8
6
  6
Continuous
 62
     7
100
AcDbLine
 10
718.0187499999997
 20
681.9500000000001
 30
0.0
 11
718.0187499999997
 21
776.95
 31
0.0
  0
LINE
  5
974
330
85D
100
AcDbEntity
  8
6
  6
Continuous
 62
     7
100
AcDbLine
 10
958.0187499999999
 20
681.9500000000001
 30
0.0
 11
958.0187499999999
 21
776.95
 31
0.0
  0
LINE
  5
975
330
85D
100
AcDbEntity
  8
6
  6
Continuous
 62
     7
100
AcDbLine
 10
1138.01875
 20
681.9500000000001
 30
0.0
 11
958.0187499999999
 21
681.9500000000001
 31
0.0
  0
LINE
  5
976
330
85D
100
AcDbEntity
  8
6
  6
Continuous
 62
     7
100
AcDbLine
 10
1138.01875
 20
431.9499999999998
 30
0.0
 11
958.0187499999999
 21
431.9499999999998
 31
0.0
  0
LINE
  5
977
330
85D
100
AcDbEntity
  8
6
  6
Continuous
 62
     7
100
AcDbLine
 10
958.0187499999999
 20
336.9499999999998
 30
0.0
 11
958.0187499999999
 21
431.9499999999998
 31
0.0
  0
LINE
  5
978
330
85D
100
AcDbEntity
  8
6
  6
Continuous
 62
     7
100
AcDbLine
 10
718.0187499999997
 20
431.9499999999998
 30
0.0
 11
538.0187499999997
 21
431.9499999999998
 31
0.0
  0
LINE
  5
979
330
85D
100
AcDbEntity
  8
6
  6
Continuous
 62
     7
100
AcDbLine
 10
718.0187499999997
 20
336.9499999999998
 30
0.0
 11
718.0187499999997
 21
431.9499999999998
 31
0.0
  0
LINE
  5
97A
330
85D
100
AcDbEntity
  8
6
  6
Continuous
 62
     7
100
AcDbLine
 10
1103.01875
 20
431.9499999999998
 30
0.0
 11
1103.01875
 21
681.9500000000001
 31
0.0
  0
LINE
  5
97B
330
85D
100
AcDbEntity
  8
6
  6
Continuous
 62
     7
100
AcDbLine
 10
1033.018749999998
 20
431.9499999999998
 30
0.0
 11
1033.018749999998
 21
681.9500000000001
 31
0.0
  0
LINE
  5
97C
330
85D
100
AcDbEntity
  8
6
  6
Continuous
 62
     7
100
AcDbLine
 10
793.0187499999997
 20
662.0125000000001
 30
0.0
 11
883.0187499999997
 21
662.0125000000001
 31
0.0
  0
LINE
  5
97D
330
85D
100
AcDbEntity
  8
6
  6
Continuous
 62
     7
100
AcDbLine
 10
793.0187499999997
 20
649.5874999999998
 30
0.0
 11
793.0187499999997
 21
662.0125000000001
 31
0.0
  0
LINE
  5
97E
330
85D
100
AcDbEntity
  8
6
  6
Continuous
 62
     7
100
AcDbLine
 10
883.0187499999997
 20
649.5874999999998
 30
0.0
 11
883.0187499999997
 21
662.0125000000001
 31
0.0
  0
LINE
  5
97F
330
85D
100
AcDbEntity
  8
6
  6
Continuous
 62
     7
100
AcDbLine
 10
793.0187499999997
 20
662.0125000000001
 30
0.0
 11
788.0187499999997
 21
667.0125000000001
 31
0.0
  0
LINE
  5
980
330
85D
100
AcDbEntity
  8
6
  6
Continuous
 62
     7
100
AcDbLine
 10
883.0187499999997
 20
662.0125000000001
 30
0.0
 11
888.0187499999998
 21
667.0125000000001
 31
0.0
  0
LINE
  5
981
330
85D
100
AcDbEntity
  8
6
  6
Continuous
 62
     7
100
AcDbLine
 10
793.0187499999997
 20
649.5874999999998
 30
0.0
 11
883.0187499999997
 21
649.5874999999998
 31
0.0
  0
LINE
  5
982
330
85D
100
AcDbEntity
  8
6
  6
Continuous
 62
     7
100
AcDbLine
 10
768.0187499999997
 20
641.9500000000001
 30
0.0
 11
908.0187499999999
 21
641.9500000000001
 31
0.0
  0
LINE
  5
983
330
85D
100
AcDbEntity
  8
6
  6
Continuous
 62
     3
100
AcDbLine
 10
768.0187499999997
 20
636.9500000000003
 30
0.0
 11
908.0187499999999
 21
636.9500000000003
 31
0.0
  0
LINE
  5
984
330
85D
100
AcDbEntity
  8
6
  6
Continuous
 62
     7
100
AcDbLine
 10
768.0187499999997
 20
626.9500000000001
 30
0.0
 11
768.0187499999997
 21
641.9500000000001
 31
0.0
  0
LINE
  5
985
330
85D
100
AcDbEntity
  8
6
  6
Continuous
 62
     7
100
AcDbLine
 10
908.0187499999999
 20
626.9500000000001
 30
0.0
 11
908.0187499999999
 21
641.9500000000001
 31
0.0
  0
LINE
  5
986
330
85D
100
AcDbEntity
  8
6
  6
Continuous
 62
     3
100
AcDbLine
 10
768.0187499999997
 20
626.9500000000001
 30
0.0
 11
798.0187499999997
 21
626.9500000000001
 31
0.0
  0
LINE
  5
987
330
85D
100
AcDbEntity
  8
6
  6
Continuous
 62
     3
100
AcDbLine
 10
878.0187500000003
 20
626.9500000000001
 30
0.0
 11
908.0187499999999
 21
626.9500000000001
 31
0.0
  0
LINE
  5
988
330
85D
100
AcDbEntity
  8
6
  6
Continuous
 62
     3
100
AcDbLine
 10
798.0187499999997
 20
626.9500000000001
 30
0.0
 11
798.0187499999997
 21
636.9500000000003
 31
0.0
  0
LINE
  5
989
330
85D
100
AcDbEntity
  8
6
  6
Continuous
 62
     3
100
AcDbLine
 10
878.0187500000003
 20
626.9500000000001
 30
0.0
 11
878.0187500000003
 21
636.9500000000003
 31
0.0
  0
LINE
  5
98A
330
85D
100
AcDbEntity
  8
6
  6
Continuous
 62
     3
100
AcDbLine
 10
793.0187499999997
 20
566.9500000000001
 30
0.0
 11
883.0187499999997
 21
566.9500000000001
 31
0.0
  0
LINE
  5
98B
330
85D
100
AcDbEntity
  8
6
  6
Continuous
 62
     3
100
AcDbLine
 10
778.0187499999997
 20
561.95
 30
0.0
 11
898.0187499999997
 21
561.95
 31
0.0
  0
LINE
  5
98C
330
85D
100
AcDbEntity
  8
6
  6
Continuous
 62
     3
100
AcDbLine
 10
793.0187499999997
 20
566.9500000000001
 30
0.0
 11
778.0187499999997
 21
561.95
 31
0.0
  0
LINE
  5
98D
330
85D
100
AcDbEntity
  8
6
  6
Continuous
 62
     3
100
AcDbLine
 10
883.0187499999997
 20
566.9500000000001
 30
0.0
 11
898.0187499999997
 21
561.95
 31
0.0
  0
LINE
  5
98E
330
85D
100
AcDbEntity
  8
6
  6
Continuous
 62
     7
100
AcDbLine
 10
798.0187499999997
 20
451.9499999999998
 30
0.0
 11
878.0187500000003
 21
451.9499999999998
 31
0.0
  0
LINE
  5
98F
330
85D
100
AcDbEntity
  8
6
  6
Continuous
 62
     7
100
AcDbLine
 10
778.0187499999997
 20
446.95
 30
0.0
 11
898.0187499999997
 21
446.95
 31
0.0
  0
LINE
  5
990
330
85D
100
AcDbEntity
  8
6
  6
Continuous
 62
     3
100
AcDbLine
 10
768.0187499999997
 20
581.9500000000001
 30
0.0
 11
800.09375
 21
581.9500000000001
 31
0.0
  0
LINE
  5
991
330
85D
100
AcDbEntity
  8
6
  6
Continuous
 62
     3
100
AcDbLine
 10
876.7812499999999
 20
581.9500000000001
 30
0.0
 11
908.0187499999999
 21
581.9500000000001
 31
0.0
  0
LINE
  5
992
330
85D
100
AcDbEntity
  8
6
  6
Continuous
 62
     7
100
AcDbLine
 10
778.0187499999997
 20
321.95
 30
0.0
 11
778.0187499999997
 21
446.95
 31
0.0
  0
LINE
  5
993
330
85D
100
AcDbEntity
  8
6
  6
Continuous
 62
     7
100
AcDbLine
 10
898.0187499999997
 20
321.95
 30
0.0
 11
898.0187499999997
 21
446.95
 31
0.0
  0
LINE
  5
994
330
85D
100
AcDbEntity
  8
6
  6
Continuous
 62
     7
100
AcDbLine
 10
783.01875
 20
326.9499999999998
 30
0.0
 11
783.01875
 21
446.95
 31
0.0
  0
LINE
  5
995
330
85D
100
AcDbEntity
  8
6
  6
Continuous
 62
     7
100
AcDbLine
 10
893.0187500000002
 20
326.9499999999998
 30
0.0
 11
893.0187500000002
 21
446.95
 31
0.0
  0
LINE
  5
996
330
85D
100
AcDbEntity
  8
6
  6
Continuous
 62
     7
100
AcDbLine
 10
783.01875
 20
326.9499999999998
 30
0.0
 11
893.0187500000002
 21
326.9499999999998
 31
0.0
  0
LINE
  5
997
330
85D
100
AcDbEntity
  8
6
  6
Continuous
 62
     7
100
AcDbLine
 10
778.0187499999997
 20
321.95
 30
0.0
 11
783.01875
 21
326.9499999999998
 31
0.0
  0
LINE
  5
998
330
85D
100
AcDbEntity
  8
6
  6
Continuous
 62
     7
100
AcDbLine
 10
898.0187499999997
 20
321.95
 30
0.0
 11
893.0187500000002
 21
326.9499999999998
 31
0.0
  0
LINE
  5
999
330
85D
100
AcDbEntity
  8
6
  6
Continuous
 62
     7
100
AcDbLine
 10
718.0187499999997
 20
336.9499999999998
 30
0.0
 11
733.01875
 21
321.95
 31
0.0
  0
LINE
  5
99A
330
85D
100
AcDbEntity
  8
6
  6
Continuous
 62
     7
100
AcDbLine
 10
943.01875
 20
321.95
 30
0.0
 11
958.0187499999999
 21
336.9499999999998
 31
0.0
  0
LINE
  5
99B
330
85D
100
AcDbEntity
  8
6
  6
Continuous
 62
     7
100
AcDbLine
 10
718.0187499999997
 20
776.95
 30
0.0
 11
733.01875
 21
791.95
 31
0.0
  0
LINE
  5
99C
330
85D
100
AcDbEntity
  8
6
  6
Continuous
 62
     7
100
AcDbLine
 10
943.01875
 20
791.95
 30
0.0
 11
958.0187499999999
 21
776.95
 31
0.0
  0
LINE
  5
99D
330
85D
100
AcDbEntity
  8
6
  6
Continuous
 62
     7
100
AcDbLine
 10
548.0187499999997
 20
688.9500000000001
 30
0.0
 11
548.0187499999997
 21
744.95
 31
0.0
  0
LINE
  5
99E
330
85D
100
AcDbEntity
  8
6
  6
Continuous
 62
     7
100
AcDbLine
 10
668.0187499999996
 20
688.9500000000001
 30
0.0
 11
668.0187499999996
 21
744.95
 31
0.0
  0
LINE
  5
99F
330
85D
100
AcDbEntity
  8
6
  6
Continuous
 62
     7
100
AcDbLine
 10
653.0187499999996
 20
751.95
 30
0.0
 11
563.0187499999996
 21
751.95
 31
0.0
  0
LINE
  5
9A0
330
85D
100
AcDbEntity
  8
6
  6
Continuous
 62
     7
100
AcDbLine
 10
578.0187499999994
 20
688.9500000000001
 30
0.0
 11
578.0187499999994
 21
744.95
 31
0.0
  0
LINE
  5
9A1
330
85D
100
AcDbEntity
  8
6
  6
Continuous
 62
     7
100
AcDbLine
 10
638.0187499999996
 20
688.9500000000001
 30
0.0
 11
638.0187499999996
 21
744.95
 31
0.0
  0
LINE
  5
9A2
330
85D
100
AcDbEntity
  8
6
  6
Continuous
 62
     7
100
AcDbLine
 10
638.0187499999996
 20
761.95
 30
0.0
 11
578.0187499999994
 21
761.95
 31
0.0
  0
LINE
  5
9A3
330
85D
100
AcDbEntity
  8
6
  6
Continuous
 62
     7
100
AcDbLine
 10
573.0187499999995
 20
431.9499999999998
 30
0.0
 11
573.0187499999995
 21
681.9500000000001
 31
0.0
  0
LINE
  5
9A4
330
85D
100
AcDbEntity
  8
6
  6
Continuous
 62
     7
100
AcDbLine
 10
573.0187499999995
 20
751.95
 30
0.0
 11
573.0187499999995
 21
756.95
 31
0.0
  0
LINE
  5
9A5
330
85D
100
AcDbEntity
  8
6
  6
Continuous
 62
     7
100
AcDbLine
 10
643.0187499999996
 20
751.95
 30
0.0
 11
643.0187499999996
 21
756.95
 31
0.0
  0
LINE
  5
9A6
330
85D
100
AcDbEntity
  8
6
  6
Continuous
 62
     7
100
AcDbLine
 10
643.0187499999996
 20
431.9499999999998
 30
0.0
 11
643.0187499999996
 21
681.9500000000001
 31
0.0
  0
LINE
  5
9A7
330
85D
100
AcDbEntity
  8
6
  6
Continuous
 62
     7
100
AcDbLine
 10
643.0187499999996
 20
756.95
 30
0.0
 11
573.0187499999995
 21
756.95
 31
0.0
  0
LINE
  5
9A8
330
85D
100
AcDbEntity
  8
6
  6
Continuous
 62
     7
100
AcDbLine
 10
573.0187499999995
 20
756.95
 30
0.0
 11
578.0187499999994
 21
761.95
 31
0.0
  0
LINE
  5
9A9
330
85D
100
AcDbEntity
  8
6
  6
Continuous
 62
     7
100
AcDbLine
 10
643.0187499999996
 20
756.95
 30
0.0
 11
638.0187499999996
 21
761.95
 31
0.0
  0
LINE
  5
9AA
330
85D
100
AcDbEntity
  8
6
  6
Continuous
 62
     7
100
AcDbLine
 10
578.0187499999994
 20
761.95
 30
0.0
 11
578.0187499999994
 21
751.95
 31
0.0
  0
LINE
  5
9AB
330
85D
100
AcDbEntity
  8
6
  6
Continuous
 62
     7
100
AcDbLine
 10
578.0187499999994
 20
681.9500000000001
 30
0.0
 11
578.0187499999994
 21
431.9499999999998
 31
0.0
  0
LINE
  5
9AC
330
85D
100
AcDbEntity
  8
6
  6
Continuous
 62
     7
100
AcDbLine
 10
638.0187499999996
 20
681.9500000000001
 30
0.0
 11
638.0187499999996
 21
431.9499999999998
 31
0.0
  0
LINE
  5
9AD
330
85D
100
AcDbEntity
  8
6
  6
Continuous
 62
     7
100
AcDbLine
 10
638.0187499999996
 20
761.95
 30
0.0
 11
638.0187499999996
 21
751.95
 31
0.0
  0
LINE
  5
9AE
330
85D
100
AcDbEntity
  8
6
  6
Continuous
 62
     7
100
AcDbLine
 10
578.0187499999994
 20
424.95
 30
0.0
 11
578.0187499999994
 21
368.9499999999998
 31
0.0
  0
LINE
  5
9AF
330
85D
100
AcDbEntity
  8
6
  6
Continuous
 62
     7
100
AcDbLine
 10
638.0187499999996
 20
424.95
 30
0.0
 11
638.0187499999996
 21
368.9499999999998
 31
0.0
  0
LINE
  5
9B0
330
85D
100
AcDbEntity
  8
6
  6
Continuous
 62
     7
100
AcDbLine
 10
638.0187499999996
 20
351.9499999999998
 30
0.0
 11
578.0187499999994
 21
351.9499999999998
 31
0.0
  0
LINE
  5
9B1
330
85D
100
AcDbEntity
  8
6
  6
Continuous
 62
     7
100
AcDbLine
 10
573.0187499999995
 20
361.9499999999998
 30
0.0
 11
573.0187499999995
 21
356.95
 31
0.0
  0
LINE
  5
9B2
330
85D
100
AcDbEntity
  8
6
  6
Continuous
 62
     7
100
AcDbLine
 10
643.0187499999996
 20
361.9499999999998
 30
0.0
 11
643.0187499999996
 21
356.95
 31
0.0
  0
LINE
  5
9B3
330
85D
100
AcDbEntity
  8
6
  6
Continuous
 62
     7
100
AcDbLine
 10
643.0187499999996
 20
356.95
 30
0.0
 11
573.0187499999995
 21
356.95
 31
0.0
  0
LINE
  5
9B4
330
85D
100
AcDbEntity
  8
6
  6
Continuous
 62
     7
100
AcDbLine
 10
573.0187499999995
 20
356.95
 30
0.0
 11
578.0187499999994
 21
351.9499999999998
 31
0.0
  0
LINE
  5
9B5
330
85D
100
AcDbEntity
  8
6
  6
Continuous
 62
     7
100
AcDbLine
 10
643.0187499999996
 20
356.95
 30
0.0
 11
638.0187499999996
 21
351.9499999999998
 31
0.0
  0
LINE
  5
9B6
330
85D
100
AcDbEntity
  8
6
  6
Continuous
 62
     7
100
AcDbLine
 10
578.0187499999994
 20
351.9499999999998
 30
0.0
 11
578.0187499999994
 21
361.9499999999998
 31
0.0
  0
LINE
  5
9B7
330
85D
100
AcDbEntity
  8
6
  6
Continuous
 62
     7
100
AcDbLine
 10
638.0187499999996
 20
351.9499999999998
 30
0.0
 11
638.0187499999996
 21
361.9499999999998
 31
0.0
  0
LINE
  5
9B8
330
85D
100
AcDbEntity
  8
6
  6
Continuous
 62
     7
100
AcDbLine
 10
1098.01875
 20
688.9500000000001
 30
0.0
 11
1098.01875
 21
744.95
 31
0.0
  0
LINE
  5
9B9
330
85D
100
AcDbEntity
  8
6
  6
Continuous
 62
     7
100
AcDbLine
 10
1038.018749999999
 20
688.9500000000001
 30
0.0
 11
1038.018749999999
 21
744.95
 31
0.0
  0
LINE
  5
9BA
330
85D
100
AcDbEntity
  8
6
  6
Continuous
 62
     7
100
AcDbLine
 10
1038.018749999999
 20
761.95
 30
0.0
 11
1098.01875
 21
761.95
 31
0.0
  0
LINE
  5
9BB
330
85D
100
AcDbEntity
  8
6
  6
Continuous
 62
     7
100
AcDbLine
 10
1103.01875
 20
751.95
 30
0.0
 11
1103.01875
 21
756.95
 31
0.0
  0
LINE
  5
9BC
330
85D
100
AcDbEntity
  8
6
  6
Continuous
 62
     7
100
AcDbLine
 10
1033.018749999998
 20
751.95
 30
0.0
 11
1033.018749999998
 21
756.95
 31
0.0
  0
LINE
  5
9BD
330
85D
100
AcDbEntity
  8
6
  6
Continuous
 62
     7
100
AcDbLine
 10
1033.018749999998
 20
756.95
 30
0.0
 11
1103.01875
 21
756.95
 31
0.0
  0
LINE
  5
9BE
330
85D
100
AcDbEntity
  8
6
  6
Continuous
 62
     7
100
AcDbLine
 10
1103.01875
 20
756.95
 30
0.0
 11
1098.01875
 21
761.95
 31
0.0
  0
LINE
  5
9BF
330
85D
100
AcDbEntity
  8
6
  6
Continuous
 62
     7
100
AcDbLine
 10
1033.018749999998
 20
756.95
 30
0.0
 11
1038.018749999999
 21
761.95
 31
0.0
  0
LINE
  5
9C0
330
85D
100
AcDbEntity
  8
6
  6
Continuous
 62
     7
100
AcDbLine
 10
1098.01875
 20
761.95
 30
0.0
 11
1098.01875
 21
751.95
 31
0.0
  0
LINE
  5
9C1
330
85D
100
AcDbEntity
  8
6
  6
Continuous
 62
     7
100
AcDbLine
 10
1038.018749999999
 20
761.95
 30
0.0
 11
1038.018749999999
 21
751.95
 31
0.0
  0
LINE
  5
9C2
330
85D
100
AcDbEntity
  8
6
  6
Continuous
 62
     7
100
AcDbLine
 10
1098.01875
 20
424.95
 30
0.0
 11
1098.01875
 21
368.9499999999998
 31
0.0
  0
LINE
  5
9C3
330
85D
100
AcDbEntity
  8
6
  6
Continuous
 62
     7
100
AcDbLine
 10
1038.018749999999
 20
424.95
 30
0.0
 11
1038.018749999999
 21
368.9499999999998
 31
0.0
  0
LINE
  5
9C4
330
85D
100
AcDbEntity
  8
6
  6
Continuous
 62
     7
100
AcDbLine
 10
1038.018749999999
 20
351.9499999999998
 30
0.0
 11
1098.01875
 21
351.9499999999998
 31
0.0
  0
LINE
  5
9C5
330
85D
100
AcDbEntity
  8
6
  6
Continuous
 62
     7
100
AcDbLine
 10
1103.01875
 20
361.9499999999998
 30
0.0
 11
1103.01875
 21
356.95
 31
0.0
  0
LINE
  5
9C6
330
85D
100
AcDbEntity
  8
6
  6
Continuous
 62
     7
100
AcDbLine
 10
1033.018749999998
 20
361.9499999999998
 30
0.0
 11
1033.018749999998
 21
356.95
 31
0.0
  0
LINE
  5
9C7
330
85D
100
AcDbEntity
  8
6
  6
Continuous
 62
     7
100
AcDbLine
 10
1033.018749999998
 20
356.95
 30
0.0
 11
1103.01875
 21
356.95
 31
0.0
  0
LINE
  5
9C8
330
85D
100
AcDbEntity
  8
6
  6
Continuous
 62
     7
100
AcDbLine
 10
1103.01875
 20
356.95
 30
0.0
 11
1098.01875
 21
351.9499999999998
 31
0.0
  0
LINE
  5
9C9
330
85D
100
AcDbEntity
  8
6
  6
Continuous
 62
     7
100
AcDbLine
 10
1033.018749999998
 20
356.95
 30
0.0
 11
1038.018749999999
 21
351.9499999999998
 31
0.0
  0
LINE
  5
9CA
330
85D
100
AcDbEntity
  8
6
  6
Continuous
 62
     7
100
AcDbLine
 10
1098.01875
 20
351.9499999999998
 30
0.0
 11
1098.01875
 21
361.9499999999998
 31
0.0
  0
LINE
  5
9CB
330
85D
100
AcDbEntity
  8
6
  6
Continuous
 62
     7
100
AcDbLine
 10
1038.018749999999
 20
351.9499999999998
 30
0.0
 11
1038.018749999999
 21
361.9499999999998
 31
0.0
  0
LINE
  5
9CC
330
85D
100
AcDbEntity
  8
6
  6
Continuous
 62
     7
100
AcDbLine
 10
1038.018749999999
 20
431.9499999999998
 30
0.0
 11
1038.018749999999
 21
681.9500000000001
 31
0.0
  0
LINE
  5
9CD
330
85D
100
AcDbEntity
  8
6
  6
Continuous
 62
     7
100
AcDbLine
 10
1098.01875
 20
431.9499999999998
 30
0.0
 11
1098.01875
 21
681.9500000000001
 31
0.0
  0
LINE
  5
9CE
330
85D
100
AcDbEntity
  8
6
  6
Continuous
 62
     7
100
AcDbLine
 10
538.0187499999997
 20
431.9499999999998
 30
0.0
 11
538.0187499999997
 21
554.45
 31
0.0
  0
LINE
  5
9CF
330
85D
100
AcDbEntity
  8
6
  6
Continuous
 62
     7
100
AcDbLine
 10
538.0187499999997
 20
559.45
 30
0.0
 11
538.0187499999997
 21
681.9500000000001
 31
0.0
  0
LINE
  5
9D0
330
85D
100
AcDbEntity
  8
6
  6
Continuous
 62
     7
100
AcDbLine
 10
1138.01875
 20
431.9499999999998
 30
0.0
 11
1138.01875
 21
554.45
 31
0.0
  0
LINE
  5
9D1
330
85D
100
AcDbEntity
  8
6
  6
Continuous
 62
     7
100
AcDbLine
 10
1138.01875
 20
559.45
 30
0.0
 11
1138.01875
 21
681.9500000000001
 31
0.0
  0
LINE
  5
9D2
330
85D
100
AcDbEntity
  8
6
  6
Continuous
 62
     7
100
AcDbLine
 10
718.0187499999997
 20
554.45
 30
0.0
 11
718.0187499999997
 21
536.95
 31
0.0
  0
LINE
  5
9D3
330
85D
100
AcDbEntity
  8
6
  6
Continuous
 62
     7
100
AcDbLine
 10
723.0187499999997
 20
559.45
 30
0.0
 11
723.0187499999997
 21
551.95
 31
0.0
  0
LINE
  5
9D4
330
85D
100
AcDbEntity
  8
6
  6
Continuous
 62
     7
100
AcDbLine
 10
953.01875
 20
559.45
 30
0.0
 11
953.01875
 21
551.95
 31
0.0
  0
LINE
  5
9D5
330
85D
100
AcDbEntity
  8
6
  6
Continuous
 62
     7
100
AcDbLine
 10
908.0187499999999
 20
551.95
 30
0.0
 11
953.01875
 21
551.95
 31
0.0
  0
LINE
  5
9D6
330
85D
100
AcDbEntity
  8
6
  6
Continuous
 62
     7
100
AcDbLine
 10
958.0187499999999
 20
554.45
 30
0.0
 11
958.0187499999999
 21
536.95
 31
0.0
  0
LINE
  5
9D7
330
85D
100
AcDbEntity
  8
6
  6
Continuous
 62
     7
100
AcDbLine
 10
771.9812499999997
 20
536.95
 30
0.0
 11
718.0187499999997
 21
536.95
 31
0.0
  0
LINE
  5
9D8
330
85D
100
AcDbEntity
  8
6
  6
Continuous
 62
     7
100
AcDbLine
 10
905.5124999999996
 20
536.95
 30
0.0
 11
958.0187499999999
 21
536.95
 31
0.0
  0
LINE
  5
9D9
330
85D
100
AcDbEntity
  8
6
  6
Continuous
 62
     7
100
AcDbLine
 10
767.5687499999996
 20
632.75
 30
0.0
 11
758.01875
 21
632.75
 31
0.0
  0
LINE
  5
9DA
330
85D
100
AcDbEntity
  8
6
  6
Continuous
 62
     7
100
AcDbLine
 10
908.0187499999999
 20
631.25
 30
0.0
 11
918.01875
 21
631.25
 31
0.0
  0
LINE
  5
9DB
330
85D
100
AcDbEntity
  8
6
  6
Continuous
 62
     3
100
AcDbLine
 10
768.0187499999997
 20
541.95
 30
0.0
 11
781.8312499999997
 21
541.95
 31
0.0
  0
LINE
  5
9DC
330
85D
100
AcDbEntity
  8
6
  6
Continuous
 62
     3
100
AcDbLine
 10
768.0187499999997
 20
541.95
 30
0.0
 11
768.0187499999997
 21
581.9500000000001
 31
0.0
  0
LINE
  5
9DD
330
85D
100
AcDbEntity
  8
6
  6
Continuous
 62
     3
100
AcDbLine
 10
908.0187499999999
 20
541.95
 30
0.0
 11
908.0187499999999
 21
581.9500000000001
 31
0.0
  0
LINE
  5
9DE
330
85D
100
AcDbEntity
  8
6
  6
Continuous
 62
     3
100
AcDbLine
 10
908.0187499999999
 20
541.95
 30
0.0
 11
894.2062500000004
 21
541.95
 31
0.0
  0
LINE
  5
9DF
330
85D
100
AcDbEntity
  8
6
  6
Continuous
 62
     7
100
AcDbLine
 10
798.0187499999997
 20
451.9499999999998
 30
0.0
 11
798.0187499999997
 21
471.95
 31
0.0
  0
LINE
  5
9E0
330
85D
100
AcDbEntity
  8
6
  6
Continuous
 62
     7
100
AcDbLine
 10
878.0187500000003
 20
451.9499999999998
 30
0.0
 11
878.0187500000003
 21
471.95
 31
0.0
  0
LINE
  5
9E1
330
85D
100
AcDbEntity
  8
6
  6
Continuous
 62
     3
100
AcDbLine
 10
778.0187499999997
 20
561.95
 30
0.0
 11
787.1687500000001
 21
513.9249999999998
 31
0.0
  0
LINE
  5
9E2
330
85D
100
AcDbEntity
  8
6
  6
Continuous
 62
     3
100
AcDbLine
 10
898.0187499999997
 20
561.95
 30
0.0
 11
888.8687499999997
 21
513.9249999999998
 31
0.0
  0
LINE
  5
9E3
330
85D
100
AcDbEntity
  8
6
  6
Continuous
 62
     3
100
AcDbLine
 10
783.9937499999997
 20
488.4999999999998
 30
0.0
 11
783.9937499999997
 21
477.7499999999998
 31
0.0
  0
LINE
  5
9E4
330
85D
100
AcDbEntity
  8
6
  6
Continuous
 62
     3
100
AcDbLine
 10
892.0437499999996
 20
488.4999999999998
 30
0.0
 11
892.0437499999996
 21
477.7499999999998
 31
0.0
  0
LINE
  5
9E5
330
85D
100
AcDbEntity
  8
6
  6
Continuous
 62
     3
100
AcDbLine
 10
794.2687499999997
 20
477.7499999999998
 30
0.0
 11
768.0187499999997
 21
477.7499999999998
 31
0.0
  0
LINE
  5
9E6
330
85D
100
AcDbEntity
  8
6
  6
Continuous
 62
     3
100
AcDbLine
 10
881.7687499999998
 20
477.7499999999998
 30
0.0
 11
908.0187499999999
 21
477.7499999999998
 31
0.0
  0
LINE
  5
9E7
330
85D
100
AcDbEntity
  8
6
  6
Continuous
 62
     3
100
AcDbLine
 10
768.0187499999997
 20
477.7499999999998
 30
0.0
 11
768.0187499999997
 21
487.75
 31
0.0
  0
LINE
  5
9E8
330
85D
100
AcDbEntity
  8
6
  6
Continuous
 62
     3
100
AcDbLine
 10
908.0187499999999
 20
477.7499999999998
 30
0.0
 11
908.0187499999999
 21
486.7124999999998
 31
0.0
  0
LINE
  5
9E9
330
85D
100
AcDbEntity
  8
6
  6
Continuous
 62
     7
100
AcDbLine
 10
758.01875
 20
487.75
 30
0.0
 11
758.01875
 21
536.95
 31
0.0
  0
LINE
  5
9EA
330
85D
100
AcDbEntity
  8
6
  6
Continuous
 62
     7
100
AcDbLine
 10
758.01875
 20
551.95
 30
0.0
 11
758.01875
 21
632.75
 31
0.0
  0
LINE
  5
9EB
330
85D
100
AcDbEntity
  8
6
  6
Continuous
 62
     7
100
AcDbLine
 10
918.01875
 20
487.75
 30
0.0
 11
918.01875
 21
536.95
 31
0.0
  0
LINE
  5
9EC
330
85D
100
AcDbEntity
  8
6
  6
Continuous
 62
     7
100
AcDbLine
 10
918.01875
 20
551.95
 30
0.0
 11
918.01875
 21
631.25
 31
0.0
  0
LINE
  5
9ED
330
85D
100
AcDbEntity
  8
6
  6
Continuous
 62
     7
100
AcDbLine
 10
748.0187499999997
 20
536.95
 30
0.0
 11
748.0187499999997
 21
551.95
 31
0.0
  0
LINE
  5
9EE
330
85D
100
AcDbEntity
  8
6
  6
Continuous
 62
     7
100
AcDbLine
 10
928.01875
 20
536.95
 30
0.0
 11
928.01875
 21
551.95
 31
0.0
  0
LINE
  5
9EF
330
85D
100
AcDbEntity
  8
6
  6
Continuous
 62
     7
100
AcDbLine
 10
573.0187499999995
 20
559.45
 30
0.0
 11
538.0187499999997
 21
559.45
 31
0.0
  0
LINE
  5
9F0
330
85D
100
AcDbEntity
  8
6
  6
Continuous
 62
     7
100
AcDbLine
 10
573.0187499999995
 20
554.45
 30
0.0
 11
538.0187499999997
 21
554.45
 31
0.0
  0
LINE
  5
9F1
330
85D
100
AcDbEntity
  8
6
  6
Continuous
 62
     7
100
AcDbLine
 10
723.0187499999997
 20
559.45
 30
0.0
 11
643.0187499999996
 21
559.45
 31
0.0
  0
LINE
  5
9F2
330
85D
100
AcDbEntity
  8
6
  6
Continuous
 62
     7
100
AcDbLine
 10
718.0187499999997
 20
554.45
 30
0.0
 11
643.0187499999996
 21
554.45
 31
0.0
  0
LINE
  5
9F3
330
85D
100
AcDbEntity
  8
6
  6
Continuous
 62
     7
100
AcDbLine
 10
1033.018749999998
 20
559.45
 30
0.0
 11
953.01875
 21
559.45
 31
0.0
  0
LINE
  5
9F4
330
85D
100
AcDbEntity
  8
6
  6
Continuous
 62
     7
100
AcDbLine
 10
1033.018749999998
 20
554.45
 30
0.0
 11
958.0187499999999
 21
554.45
 31
0.0
  0
LINE
  5
9F5
330
85D
100
AcDbEntity
  8
6
  6
Continuous
 62
     7
100
AcDbLine
 10
1138.01875
 20
559.45
 30
0.0
 11
1103.01875
 21
559.45
 31
0.0
  0
LINE
  5
9F6
330
85D
100
AcDbEntity
  8
6
  6
Continuous
 62
     7
100
AcDbLine
 10
1138.01875
 20
554.45
 30
0.0
 11
1103.01875
 21
554.45
 31
0.0
  0
LINE
  5
9F7
330
85D
100
AcDbEntity
  8
6
  6
Continuous
 62
     7
100
AcDbLine
 10
548.0187499999997
 20
424.95
 30
0.0
 11
548.0187499999997
 21
368.9499999999998
 31
0.0
  0
LINE
  5
9F8
330
85D
100
AcDbEntity
  8
6
  6
Continuous
 62
     7
100
AcDbLine
 10
653.0187499999996
 20
361.9499999999998
 30
0.0
 11
563.0187499999996
 21
361.9499999999998
 31
0.0
  0
LINE
  5
9F9
330
85D
100
AcDbEntity
  8
6
  6
Continuous
 62
     7
100
AcDbLine
 10
668.0187499999996
 20
424.95
 30
0.0
 11
668.0187499999996
 21
368.9499999999998
 31
0.0
  0
LINE
  5
9FA
330
85D
100
AcDbEntity
  8
6
  6
Continuous
 62
     7
100
AcDbLine
 10
1008.018749999999
 20
424.95
 30
0.0
 11
1008.018749999999
 21
368.9499999999998
 31
0.0
  0
LINE
  5
9FB
330
85D
100
AcDbEntity
  8
6
  6
Continuous
 62
     7
100
AcDbLine
 10
1023.01875
 20
361.9499999999998
 30
0.0
 11
1113.018749999999
 21
361.9499999999998
 31
0.0
  0
LINE
  5
9FC
330
85D
100
AcDbEntity
  8
6
  6
Continuous
 62
     7
100
AcDbLine
 10
1128.01875
 20
424.95
 30
0.0
 11
1128.01875
 21
368.9499999999998
 31
0.0
  0
LINE
  5
9FD
330
85D
100
AcDbEntity
  8
6
  6
Continuous
 62
     7
100
AcDbLine
 10
1023.01875
 20
751.95
 30
0.0
 11
1113.018749999999
 21
751.95
 31
0.0
  0
LINE
  5
9FE
330
85D
100
AcDbEntity
  8
6
  6
Continuous
 62
     7
100
AcDbLine
 10
1128.01875
 20
688.9500000000001
 30
0.0
 11
1128.01875
 21
744.95
 31
0.0
  0
LINE
  5
9FF
330
85D
100
AcDbEntity
  8
6
  6
Continuous
 62
     7
100
AcDbLine
 10
1008.018749999999
 20
688.9500000000001
 30
0.0
 11
1008.018749999999
 21
744.95
 31
0.0
  0
LINE
  5
A12
330
85D
100
AcDbEntity
  8
6
  6
Continuous
 62
     7
100
AcDbLine
 10
1038.018749999999
 20
424.95
 30
0.0
 11
1038.018749999999
 21
368.9499999999998
 31
0.0
  0
LINE
  5
A13
330
85D
100
AcDbEntity
  8
6
  6
Continuous
 62
     7
100
AcDbLine
 10
1098.01875
 20
424.95
 30
0.0
 11
1098.01875
 21
368.9499999999998
 31
0.0
  0
LINE
  5
A14
330
85D
100
AcDbEntity
  8
6
  6
Continuous
 62
     7
100
AcDbLine
 10
1033.018749999998
 20
361.9499999999998
 30
0.0
 11
1033.018749999998
 21
356.95
 31
0.0
  0
LINE
  5
A15
330
85D
100
AcDbEntity
  8
6
  6
Continuous
 62
     7
100
AcDbLine
 10
1103.01875
 20
361.9499999999998
 30
0.0
 11
1103.01875
 21
356.95
 31
0.0
  0
LINE
  5
A16
330
85D
100
AcDbEntity
  8
6
  6
Continuous
 62
     7
100
AcDbLine
 10
1103.01875
 20
356.95
 30
0.0
 11
1033.018749999998
 21
356.95
 31
0.0
  0
LINE
  5
A17
330
85D
100
AcDbEntity
  8
6
  6
Continuous
 62
     7
100
AcDbLine
 10
1008.018749999999
 20
424.95
 30
0.0
 11
1008.018749999999
 21
368.9499999999998
 31
0.0
  0
LINE
  5
A18
330
85D
100
AcDbEntity
  8
6
  6
Continuous
 62
     7
100
AcDbLine
 10
1113.018749999999
 20
361.9499999999998
 30
0.0
 11
1023.01875
 21
361.9499999999998
 31
0.0
  0
LINE
  5
A19
330
85D
100
AcDbEntity
  8
6
  6
Continuous
 62
     7
100
AcDbLine
 10
1128.01875
 20
424.95
 30
0.0
 11
1128.01875
 21
368.9499999999998
 31
0.0
  0
LINE
  5
A24
330
85D
100
AcDbEntity
  8
1
  6
Continuous
 62
     3
100
AcDbLine
 10
787.1687500000001
 20
513.9249999999998
 30
0.0
 11
783.9937499999997
 21
488.4999999999998
 31
0.0
  0
LINE
  5
A25
330
85D
100
AcDbEntity
  8
1
  6
Continuous
 62
     3
100
AcDbLine
 10
888.8687499999997
 20
513.9249999999998
 30
0.0
 11
892.0437499999996
 21
487.75
 31
0.0
  0
LINE
  5
A26
330
85D
100
AcDbEntity
  8
6
  6
Continuous
 62
     7
100
AcDbLine
 10
768.0187499999997
 20
551.95
 30
0.0
 11
763.0749999999997
 21
551.95
 31
0.0
  0
LINE
  5
A27
330
85D
100
AcDbEntity
  8
6
  6
Continuous
 62
     7
100
AcDbLine
 10
763.0749999999997
 20
551.95
 30
0.0
 11
723.0187499999997
 21
551.95
 31
0.0
  0
LINE
  5
A2C
330
85D
100
AcDbEntity
  8
6
  6
Continuous
 62
     3
100
AcDbLine
 10
892.0437499999996
 20
487.75
 30
0.0
 11
908.0187499999999
 21
487.75
 31
0.0
  0
LINE
  5
A2D
330
85D
100
AcDbEntity
  8
6
  6
Continuous
 62
     7
100
AcDbLine
 10
908.0187499999999
 20
487.75
 30
0.0
 11
918.01875
 21
487.75
 31
0.0
  0
LINE
  5
A2E
330
85D
100
AcDbEntity
  8
6
  6
Continuous
 62
     3
100
AcDbLine
 10
783.9937499999997
 20
487.75
 30
0.0
 11
768.0187499999997
 21
487.75
 31
0.0
  0
LINE
  5
A2F
330
85D
100
AcDbEntity
  8
6
  6
Continuous
 62
     7
100
AcDbLine
 10
768.0187499999997
 20
487.75
 30
0.0
 11
758.01875
 21
487.75
 31
0.0
  0
LINE
  5
A35
330
85D
100
AcDbEntity
  8
1
  6
Continuous
 62
     7
100
AcDbLine
 10
798.0187499999997
 20
451.9499999999998
 30
0.0
 11
791.1124999999997
 21
447.025
 31
0.0
  0
LINE
  5
A36
330
85D
100
AcDbEntity
  8
1
  6
Continuous
 62
     7
100
AcDbLine
 10
878.0187500000003
 20
451.9499999999998
 30
0.0
 11
885.45625
 21
447.025
 31
0.0
  0
LINE
  5
A37
330
85D
100
AcDbEntity
  8
1
  6
Continuous
 62
     7
100
AcDbLine
 10
883.0187499999997
 20
649.5874999999998
 30
0.0
 11
890.3125000000001
 21
641.9500000000001
 31
0.0
  0
LINE
  5
A38
330
85D
100
AcDbEntity
  8
1
  6
Continuous
 62
     7
100
AcDbLine
 10
793.0187499999997
 20
649.5874999999998
 30
0.0
 11
785.7249999999996
 21
641.9500000000001
 31
0.0
  0
LINE
  5
A39
330
85D
100
AcDbEntity
  8
1
  6
Continuous
 62
     3
100
AcDbLine
 10
538.0187499999997
 20
692.9124999999997
 30
0.0
 11
538.0187499999997
 21
996.1124999999999
 31
0.0
  0
LINE
  5
A3A
330
85D
100
AcDbEntity
  8
1
  6
Continuous
 62
     3
100
AcDbLine
 10
561.7312499999997
 20
989.4249999999999
 30
0.0
 11
1114.30625
 21
989.4249999999999
 31
0.0
  0
LINE
  5
A3B
330
85D
100
AcDbEntity
  8
1
  6
Continuous
 62
     3
100
AcDbLine
 10
1138.01875
 20
690.6875
 30
0.0
 11
1138.01875
 21
998.34375
 31
0.0
  0
LINE
  5
A3C
330
85D
100
AcDbEntity
  8
1
  6
Continuous
 62
     3
100
AcDbLine
 10
958.0187499999999
 20
786.5499999999997
 30
0.0
 11
958.0187499999999
 21
893.5624999999999
 31
0.0
  0
LINE
  5
A3D
330
85D
100
AcDbEntity
  8
1
  6
Continuous
 62
     3
100
AcDbLine
 10
934.30625
 20
886.875
 30
0.0
 11
742.2187499999995
 21
886.875
 31
0.0
  0
LINE
  5
A3E
330
85D
100
AcDbEntity
  8
1
  6
Continuous
 62
     3
100
AcDbLine
 10
718.5062499999997
 20
895.7937499999998
 30
0.0
 11
718.5062499999997
 21
786.5499999999997
 31
0.0
  0
LINE
  5
A3F
330
85D
100
AcDbEntity
  8
1
  6
Continuous
 62
     3
100
AcDbLine
 10
561.7312499999997
 20
995.9812499999999
 30
0.0
 11
561.7312499999997
 21
982.8687499999999
 31
0.0
  0
LINE
  5
A40
330
85D
100
AcDbEntity
  8
1
  6
Continuous
 62
     3
100
AcDbLine
 10
538.0187499999997
 20
989.4249999999999
 30
0.0
 11
561.7312499999997
 21
982.8687499999999
 31
0.0
  0
LINE
  5
A41
330
85D
100
AcDbEntity
  8
1
  6
Continuous
 62
     3
100
AcDbLine
 10
538.0187499999997
 20
989.4249999999999
 30
0.0
 11
561.7312499999997
 21
995.9812499999999
 31
0.0
  0
LINE
  5
A42
330
85D
100
AcDbEntity
  8
1
  6
Continuous
 62
     3
100
AcDbLine
 10
561.7312499999997
 20
995.9812499999999
 30
0.0
 11
561.7312499999997
 21
982.8687499999999
 31
0.0
  0
LINE
  5
A43
330
85D
100
AcDbEntity
  8
1
  6
Continuous
 62
     3
100
AcDbLine
 10
1114.30625
 20
982.8687499999999
 30
0.0
 11
1114.30625
 21
995.9812499999999
 31
0.0
  0
LINE
  5
A44
330
85D
100
AcDbEntity
  8
1
  6
Continuous
 62
     3
100
AcDbLine
 10
1138.01875
 20
989.4249999999999
 30
0.0
 11
1114.30625
 21
995.9812499999999
 31
0.0
  0
LINE
  5
A45
330
85D
100
AcDbEntity
  8
1
  6
Continuous
 62
     3
100
AcDbLine
 10
1138.01875
 20
989.4249999999999
 30
0.0
 11
1114.30625
 21
982.8687499999999
 31
0.0
  0
LINE
  5
A46
330
85D
100
AcDbEntity
  8
1
  6
Continuous
 62
     3
100
AcDbLine
 10
1114.30625
 20
982.8687499999999
 30
0.0
 11
1114.30625
 21
995.9812499999999
 31
0.0
  0
LINE
  5
A47
330
85D
100
AcDbEntity
  8
1
  6
Continuous
 62
     3
100
AcDbLine
 10
742.2187499999995
 20
893.43125
 30
0.0
 11
742.2187499999995
 21
880.3187499999996
 31
0.0
  0
LINE
  5
A48
330
85D
100
AcDbEntity
  8
1
  6
Continuous
 62
     3
100
AcDbLine
 10
718.5062499999997
 20
886.875
 30
0.0
 11
742.2187499999995
 21
880.3187499999996
 31
0.0
  0
LINE
  5
A49
330
85D
100
AcDbEntity
  8
1
  6
Continuous
 62
     3
100
AcDbLine
 10
718.5062499999997
 20
886.875
 30
0.0
 11
742.2187499999995
 21
893.43125
 31
0.0
  0
LINE
  5
A4A
330
85D
100
AcDbEntity
  8
1
  6
Continuous
 62
     3
100
AcDbLine
 10
742.2187499999995
 20
893.43125
 30
0.0
 11
742.2187499999995
 21
880.3187499999996
 31
0.0
  0
LINE
  5
A4B
330
85D
100
AcDbEntity
  8
1
  6
Continuous
 62
     3
100
AcDbLine
 10
934.30625
 20
880.3187499999996
 30
0.0
 11
934.30625
 21
893.43125
 31
0.0
  0
LINE
  5
A4C
330
85D
100
AcDbEntity
  8
1
  6
Continuous
 62
     3
100
AcDbLine
 10
958.0187499999999
 20
886.875
 30
0.0
 11
934.30625
 21
893.43125
 31
0.0
  0
LINE
  5
A4D
330
85D
100
AcDbEntity
  8
1
  6
Continuous
 62
     3
100
AcDbLine
 10
958.0187499999999
 20
886.875
 30
0.0
 11
934.30625
 21
880.3187499999996
 31
0.0
  0
LINE
  5
A4E
330
85D
100
AcDbEntity
  8
1
  6
Continuous
 62
     3
100
AcDbLine
 10
934.30625
 20
880.3187499999996
 30
0.0
 11
934.30625
 21
893.43125
 31
0.0
  0
LINE
  5
A4F
330
85D
100
AcDbEntity
  8
1
  6
Continuous
 62
     3
100
AcDbLine
 10
950.3624999999999
 20
791.95
 30
0.0
 11
955.0187499999999
 21
791.95
 31
0.0
  0
LINE
  5
A50
330
85D
100
AcDbEntity
  8
1
  6
Continuous
 62
     3
100
AcDbLine
 10
961.01875
 20
791.9499999999997
 30
0.0
 11
1135.01875
 21
791.95
 31
0.0
  0
LINE
  5
A51
330
85D
100
AcDbEntity
  8
1
  6
Continuous
 62
     3
100
AcDbLine
 10
1141.018749999999
 20
791.95
 30
0.0
 11
1287.0
 21
791.95
 31
0.0
  0
LINE
  5
A52
330
85D
100
AcDbEntity
  8
1
  6
Continuous
 62
     3
100
AcDbLine
 10
1284.76875
 20
322.8374999999997
 30
0.0
 11
957.0499999999999
 21
322.8374999999997
 31
0.0
  0
LINE
  5
A53
330
85D
100
AcDbEntity
  8
1
  6
Continuous
 62
     3
100
AcDbLine
 10
1282.412499999999
 20
768.2374999999997
 30
0.0
 11
1269.3
 21
768.2374999999997
 31
0.0
  0
LINE
  5
A54
330
85D
100
AcDbEntity
  8
1
  6
Continuous
 62
     3
100
AcDbLine
 10
1275.85625
 20
791.95
 30
0.0
 11
1269.3
 21
768.2374999999997
 31
0.0
  0
LINE
  5
A55
330
85D
100
AcDbEntity
  8
1
  6
Continuous
 62
     3
100
AcDbLine
 10
1275.85625
 20
791.95
 30
0.0
 11
1282.412499999999
 21
768.2374999999997
 31
0.0
  0
LINE
  5
A56
330
85D
100
AcDbEntity
  8
1
  6
Continuous
 62
     3
100
AcDbLine
 10
1282.412499999999
 20
768.2374999999997
 30
0.0
 11
1269.3
 21
768.2374999999997
 31
0.0
  0
LINE
  5
A57
330
85D
100
AcDbEntity
  8
1
  6
Continuous
 62
     3
100
AcDbLine
 10
1269.3
 20
346.55
 30
0.0
 11
1282.412499999999
 21
346.55
 31
0.0
  0
LINE
  5
A58
330
85D
100
AcDbEntity
  8
1
  6
Continuous
 62
     3
100
AcDbLine
 10
1275.85625
 20
322.8374999999997
 30
0.0
 11
1282.412499999999
 21
346.55
 31
0.0
  0
LINE
  5
A59
330
85D
100
AcDbEntity
  8
1
  6
Continuous
 62
     3
100
AcDbLine
 10
1275.85625
 20
322.8374999999997
 30
0.0
 11
1269.3
 21
346.55
 31
0.0
  0
LINE
  5
A5A
330
85D
100
AcDbEntity
  8
1
  6
Continuous
 62
     3
100
AcDbLine
 10
1269.3
 20
346.55
 30
0.0
 11
1282.412499999999
 21
346.55
 31
0.0
  0
LINE
  5
A5B
330
85D
100
AcDbEntity
  8
1
  6
Continuous
 62
     5
100
AcDbLine
 10
838.0187499999998
 20
1009.425
 30
0.0
 11
842.0187499999997
 21
1009.425
 31
0.0
  0
LINE
  5
A5C
330
85D
100
AcDbEntity
  8
1
  6
Continuous
 62
     5
100
AcDbLine
 10
838.2624999999999
 20
906.8749999999999
 30
0.0
 11
841.2624999999996
 21
906.8749999999999
 31
0.0
  0
LINE
  5
A5D
330
85D
100
AcDbEntity
  8
1
  6
Continuous
 62
     5
100
AcDbLine
 10
1275.85625
 20
557.3937499999998
 30
0.0
 11
1280.85625
 21
557.3937499999998
 31
0.0
  0
LINE
  5
A5E
330
85D
100
AcDbEntity
  8
1
  6
Continuous
 62
     3
100
AcDbLine
 10
1275.85625
 20
768.2374999999997
 30
0.0
 11
1275.85625
 21
577.3937499999996
 31
0.0
  0
LINE
  5
A5F
330
85D
100
AcDbEntity
  8
1
  6
Continuous
 62
     3
100
AcDbLine
 10
1275.85625
 20
537.3937499999998
 30
0.0
 11
1275.85625
 21
346.55
 31
0.0
  0
LINE
  5
A60
330
85D
100
AcDbEntity
  8
6
  6
Continuous
 62
     7
100
AcDbLine
 10
778.0187499999997
 20
666.84375
 30
0.0
 11
898.0187499999997
 21
666.84375
 31
0.0
  0
LINE
  5
A61
330
85D
100
AcDbEntity
  8
6
  6
Continuous
 62
     7
100
AcDbLine
 10
778.0187499999997
 20
791.84375
 30
0.0
 11
778.0187499999997
 21
666.84375
 31
0.0
  0
LINE
  5
A62
330
85D
100
AcDbEntity
  8
6
  6
Continuous
 62
     7
100
AcDbLine
 10
898.0187499999997
 20
791.84375
 30
0.0
 11
898.0187499999997
 21
666.84375
 31
0.0
  0
LINE
  5
A63
330
85D
100
AcDbEntity
  8
6
  6
Continuous
 62
     7
100
AcDbLine
 10
783.01875
 20
786.8437499999997
 30
0.0
 11
783.01875
 21
666.84375
 31
0.0
  0
LINE
  5
A64
330
85D
100
AcDbEntity
  8
6
  6
Continuous
 62
     7
100
AcDbLine
 10
893.0187500000002
 20
786.8437499999997
 30
0.0
 11
893.0187500000002
 21
666.84375
 31
0.0
  0
LINE
  5
A65
330
85D
100
AcDbEntity
  8
6
  6
Continuous
 62
     7
100
AcDbLine
 10
783.01875
 20
786.8437499999997
 30
0.0
 11
893.0187500000002
 21
786.8437499999997
 31
0.0
  0
LINE
  5
A66
330
85D
100
AcDbEntity
  8
6
  6
Continuous
 62
     7
100
AcDbLine
 10
778.0187499999997
 20
791.84375
 30
0.0
 11
783.01875
 21
786.8437499999997
 31
0.0
  0
LINE
  5
A67
330
85D
100
AcDbEntity
  8
6
  6
Continuous
 62
     7
100
AcDbLine
 10
898.0187499999997
 20
791.84375
 30
0.0
 11
893.0187500000002
 21
786.8437499999997
 31
0.0
  0
LINE
  5
A88
330
85D
100
AcDbEntity
  8
0
  6
Continuous
 62
     3
100
AcDbLine
 10
548.0187499999997
 20
744.95
 30
0.0
 11
563.0187499999996
 21
751.95
 31
0.0
  0
LINE
  5
A89
330
85D
100
AcDbEntity
  8
0
  6
Continuous
 62
     3
100
AcDbLine
 10
563.0187499999996
 20
751.95
 30
0.0
 11
578.0187499999994
 21
744.95
 31
0.0
  0
LINE
  5
A8A
330
85D
100
AcDbEntity
  8
0
  6
Continuous
 62
     3
100
AcDbLine
 10
578.0187499999994
 20
744.95
 30
0.0
 11
608.0187500000001
 21
751.95
 31
0.0
  0
LINE
  5
A8B
330
85D
100
AcDbEntity
  8
0
  6
Continuous
 62
     3
100
AcDbLine
 10
608.0187500000001
 20
751.95
 30
0.0
 11
638.0187499999996
 21
744.95
 31
0.0
  0
LINE
  5
A8C
330
85D
100
AcDbEntity
  8
0
  6
Continuous
 62
     3
100
AcDbLine
 10
638.0187499999996
 20
744.95
 30
0.0
 11
653.0187499999996
 21
751.95
 31
0.0
  0
LINE
  5
A8D
330
85D
100
AcDbEntity
  8
0
  6
Continuous
 62
     3
100
AcDbLine
 10
653.0187499999996
 20
751.95
 30
0.0
 11
668.0187499999996
 21
744.95
 31
0.0
  0
LINE
  5
A92
330
85D
100
AcDbEntity
  8
0
  6
Continuous
 62
     3
100
AcDbLine
 10
578.0187499999994
 20
688.9500000000001
 30
0.0
 11
608.0187500000001
 21
681.9500000000001
 31
0.0
  0
LINE
  5
A93
330
85D
100
AcDbEntity
  8
0
  6
Continuous
 62
     3
100
AcDbLine
 10
563.0187499999996
 20
681.9500000000001
 30
0.0
 11
578.0187499999994
 21
688.9500000000001
 31
0.0
  0
LINE
  5
A94
330
85D
100
AcDbEntity
  8
0
  6
Continuous
 62
     3
100
AcDbLine
 10
548.0187499999997
 20
688.9500000000001
 30
0.0
 11
563.0187499999996
 21
681.9500000000001
 31
0.0
  0
LINE
  5
A95
330
85D
100
AcDbEntity
  8
0
  6
Continuous
 62
     3
100
AcDbLine
 10
638.0187499999996
 20
688.9500000000001
 30
0.0
 11
653.0187499999996
 21
681.9500000000001
 31
0.0
  0
LINE
  5
A96
330
85D
100
AcDbEntity
  8
0
  6
Continuous
 62
     3
100
AcDbLine
 10
608.0187500000001
 20
681.9500000000001
 30
0.0
 11
638.0187499999996
 21
688.9500000000001
 31
0.0
  0
LINE
  5
A97
330
85D
100
AcDbEntity
  8
0
  6
Continuous
 62
     3
100
AcDbLine
 10
653.0187499999996
 20
681.9500000000001
 30
0.0
 11
668.0187499999996
 21
688.9500000000001
 31
0.0
  0
LINE
  5
AA4
330
85D
100
AcDbEntity
  8
0
  6
Continuous
 62
     3
100
AcDbLine
 10
1038.018749999997
 20
744.95
 30
0.0
 11
1068.018749999999
 21
751.95
 31
0.0
  0
LINE
  5
AA5
330
85D
100
AcDbEntity
  8
0
  6
Continuous
 62
     3
100
AcDbLine
 10
1023.018749999998
 20
751.95
 30
0.0
 11
1038.018749999997
 21
744.95
 31
0.0
  0
LINE
  5
AA6
330
85D
100
AcDbEntity
  8
0
  6
Continuous
 62
     3
100
AcDbLine
 10
1008.018749999999
 20
744.95
 30
0.0
 11
1023.018749999998
 21
751.95
 31
0.0
  0
LINE
  5
AA7
330
85D
100
AcDbEntity
  8
0
  6
Continuous
 62
     3
100
AcDbLine
 10
1098.018749999998
 20
744.95
 30
0.0
 11
1113.018749999999
 21
751.95
 31
0.0
  0
LINE
  5
AA8
330
85D
100
AcDbEntity
  8
0
  6
Continuous
 62
     3
100
AcDbLine
 10
1068.018749999999
 20
751.95
 30
0.0
 11
1098.018749999998
 21
744.95
 31
0.0
  0
LINE
  5
AA9
330
85D
100
AcDbEntity
  8
0
  6
Continuous
 62
     3
100
AcDbLine
 10
1113.018749999999
 20
751.95
 30
0.0
 11
1128.018749999997
 21
744.95
 31
0.0
  0
LINE
  5
AAA
330
85D
100
AcDbEntity
  8
0
  6
Continuous
 62
     3
100
AcDbLine
 10
1038.018749999997
 20
688.9500000000001
 30
0.0
 11
1068.018749999999
 21
681.9500000000001
 31
0.0
  0
LINE
  5
AAB
330
85D
100
AcDbEntity
  8
0
  6
Continuous
 62
     3
100
AcDbLine
 10
1023.018749999998
 20
681.9500000000001
 30
0.0
 11
1038.018749999997
 21
688.9500000000001
 31
0.0
  0
LINE
  5
AAC
330
85D
100
AcDbEntity
  8
0
  6
Continuous
 62
     3
100
AcDbLine
 10
1008.018749999999
 20
688.9500000000001
 30
0.0
 11
1023.018749999998
 21
681.9500000000001
 31
0.0
  0
LINE
  5
AAD
330
85D
100
AcDbEntity
  8
0
  6
Continuous
 62
     3
100
AcDbLine
 10
1068.018749999999
 20
681.9500000000001
 30
0.0
 11
1098.018749999998
 21
688.9500000000001
 31
0.0
  0
LINE
  5
AAE
330
85D
100
AcDbEntity
  8
0
  6
Continuous
 62
     3
100
AcDbLine
 10
1098.018749999998
 20
688.9500000000001
 30
0.0
 11
1113.018749999999
 21
681.9500000000001
 31
0.0
  0
LINE
  5
AAF
330
85D
100
AcDbEntity
  8
0
  6
Continuous
 62
     3
100
AcDbLine
 10
1113.018749999999
 20
681.9500000000001
 30
0.0
 11
1128.018749999997
 21
688.9500000000001
 31
0.0
  0
LINE
  5
AB0
330
85D
100
AcDbEntity
  8
0
  6
Continuous
 62
     3
100
AcDbLine
 10
1008.018749999999
 20
424.95
 30
0.0
 11
1023.018749999998
 21
431.9499999999998
 31
0.0
  0
LINE
  5
AB1
330
85D
100
AcDbEntity
  8
0
  6
Continuous
 62
     3
100
AcDbLine
 10
1023.018749999998
 20
431.9499999999998
 30
0.0
 11
1038.018749999997
 21
424.95
 31
0.0
  0
LINE
  5
AB2
330
85D
100
AcDbEntity
  8
0
  6
Continuous
 62
     3
100
AcDbLine
 10
1038.018749999997
 20
424.95
 30
0.0
 11
1068.018749999999
 21
431.9499999999998
 31
0.0
  0
LINE
  5
AB3
330
85D
100
AcDbEntity
  8
0
  6
Continuous
 62
     3
100
AcDbLine
 10
1068.018749999999
 20
431.9499999999998
 30
0.0
 11
1098.018749999998
 21
424.95
 31
0.0
  0
LINE
  5
AB4
330
85D
100
AcDbEntity
  8
0
  6
Continuous
 62
     3
100
AcDbLine
 10
1113.018749999999
 20
431.9499999999998
 30
0.0
 11
1128.018749999997
 21
424.95
 31
0.0
  0
LINE
  5
AB5
330
85D
100
AcDbEntity
  8
0
  6
Continuous
 62
     3
100
AcDbLine
 10
1113.018749999999
 20
361.9500000000001
 30
0.0
 11
1128.018749999997
 21
368.9500000000001
 31
0.0
  0
LINE
  5
AB6
330
85D
100
AcDbEntity
  8
0
  6
Continuous
 62
     3
100
AcDbLine
 10
1098.018749999998
 20
368.9500000000001
 30
0.0
 11
1113.018749999999
 21
361.9500000000001
 31
0.0
  0
LINE
  5
AB7
330
85D
100
AcDbEntity
  8
0
  6
Continuous
 62
     3
100
AcDbLine
 10
1068.018749999999
 20
361.9500000000001
 30
0.0
 11
1098.018749999998
 21
368.9500000000001
 31
0.0
  0
LINE
  5
AB8
330
85D
100
AcDbEntity
  8
0
  6
Continuous
 62
     3
100
AcDbLine
 10
1038.018749999997
 20
368.9500000000001
 30
0.0
 11
1068.018749999999
 21
361.9500000000001
 31
0.0
  0
LINE
  5
AB9
330
85D
100
AcDbEntity
  8
0
  6
Continuous
 62
     3
100
AcDbLine
 10
1023.018749999998
 20
361.9500000000001
 30
0.0
 11
1038.018749999997
 21
368.9500000000001
 31
0.0
  0
LINE
  5
ABA
330
85D
100
AcDbEntity
  8
0
  6
Continuous
 62
     3
100
AcDbLine
 10
1008.018749999999
 20
368.9500000000001
 30
0.0
 11
1023.018749999998
 21
361.9500000000001
 31
0.0
  0
LINE
  5
ABB
330
85D
100
AcDbEntity
  8
0
  6
Continuous
 62
     3
100
AcDbLine
 10
1113.018749999999
 20
431.9499999999998
 30
0.0
 11
1098.018749999998
 21
424.95
 31
0.0
  0
LINE
  5
ABC
330
85D
100
AcDbEntity
  8
0
  6
Continuous
 62
     3
100
AcDbLine
 10
578.0187499999994
 20
424.95
 30
0.0
 11
608.0187500000001
 21
431.9499999999998
 31
0.0
  0
LINE
  5
ABD
330
85D
100
AcDbEntity
  8
0
  6
Continuous
 62
     3
100
AcDbLine
 10
578.0187499999994
 20
368.9500000000001
 30
0.0
 11
608.0187500000001
 21
361.9500000000001
 31
0.0
  0
LINE
  5
ABE
330
85D
100
AcDbEntity
  8
0
  6
Continuous
 62
     3
100
AcDbLine
 10
548.0187499999997
 20
368.9500000000001
 30
0.0
 11
563.0187499999996
 21
361.9500000000001
 31
0.0
  0
LINE
  5
ABF
330
85D
100
AcDbEntity
  8
0
  6
Continuous
 62
     3
100
AcDbLine
 10
563.0187499999996
 20
361.9500000000001
 30
0.0
 11
578.0187499999994
 21
368.9500000000001
 31
0.0
  0
LINE
  5
AC0
330
85D
100
AcDbEntity
  8
0
  6
Continuous
 62
     3
100
AcDbLine
 10
548.0187499999997
 20
424.95
 30
0.0
 11
563.0187499999996
 21
431.9499999999998
 31
0.0
  0
LINE
  5
AC1
330
85D
100
AcDbEntity
  8
0
  6
Continuous
 62
     3
100
AcDbLine
 10
563.0187499999996
 20
431.9499999999998
 30
0.0
 11
578.0187499999994
 21
424.95
 31
0.0
  0
LINE
  5
AC2
330
85D
100
AcDbEntity
  8
0
  6
Continuous
 62
     3
100
AcDbLine
 10
608.0187500000001
 20
361.9500000000001
 30
0.0
 11
638.0187499999996
 21
368.9500000000001
 31
0.0
  0
LINE
  5
AC3
330
85D
100
AcDbEntity
  8
0
  6
Continuous
 62
     3
100
AcDbLine
 10
653.0187499999996
 20
361.9500000000001
 30
0.0
 11
668.0187499999996
 21
368.9500000000001
 31
0.0
  0
LINE
  5
AC4
330
85D
100
AcDbEntity
  8
0
  6
Continuous
 62
     3
100
AcDbLine
 10
638.0187499999996
 20
368.9500000000001
 30
0.0
 11
653.0187499999996
 21
361.9500000000001
 31
0.0
  0
LINE
  5
AC5
330
85D
100
AcDbEntity
  8
0
  6
Continuous
 62
     3
100
AcDbLine
 10
608.0187500000001
 20
431.9499999999998
 30
0.0
 11
638.0187499999996
 21
424.95
 31
0.0
  0
LINE
  5
AC6
330
85D
100
AcDbEntity
  8
0
  6
Continuous
 62
     3
100
AcDbLine
 10
653.0187499999996
 20
431.9499999999998
 30
0.0
 11
668.0187499999996
 21
424.95
 31
0.0
  0
LINE
  5
AC7
330
85D
100
AcDbEntity
  8
0
  6
Continuous
 62
     3
100
AcDbLine
 10
653.0187499999996
 20
431.9499999999998
 30
0.0
 11
638.0187499999996
 21
424.95
 31
0.0
  0
LINE
  5
ACB
330
85D
100
AcDbEntity
  8
0
  6
Continuous
 62
     3
100
AcDbLine
 10
838.0187499999998
 20
551.9499999999998
 30
0.0
 11
828.2642338991932
 21
550.9892640201614
 31
0.0
  0
LINE
  5
ACC
330
85D
100
AcDbEntity
  8
0
  6
Continuous
 62
     3
100
AcDbLine
 10
828.2642338991932
 20
550.9892640201614
 30
0.0
 11
818.8845783817452
 21
548.1439766255641
 31
0.0
  0
LINE
  5
ACD
330
85D
100
AcDbEntity
  8
0
  6
Continuous
 62
     3
100
AcDbLine
 10
818.8845783817452
 20
548.1439766255641
 30
0.0
 11
810.2402383490197
 21
543.5234806151271
 31
0.0
  0
LINE
  5
ACE
330
85D
100
AcDbEntity
  8
0
  6
Continuous
 62
     3
100
AcDbLine
 10
810.2402383490197
 20
543.5234806151271
 30
0.0
 11
802.6634109406725
 21
537.3053390593271
 31
0.0
  0
LINE
  5
ACF
330
85D
100
AcDbEntity
  8
0
  6
Continuous
 62
     3
100
AcDbLine
 10
802.6634109406725
 20
537.3053390593271
 30
0.0
 11
796.4452693848723
 21
529.7285116509798
 31
0.0
  0
LINE
  5
AD0
330
85D
100
AcDbEntity
  8
0
  6
Continuous
 62
     3
100
AcDbLine
 10
796.4452693848723
 20
529.7285116509798
 30
0.0
 11
791.8247733744354
 21
521.0841716182543
 31
0.0
  0
LINE
  5
AD1
330
85D
100
AcDbEntity
  8
0
  6
Continuous
 62
     3
100
AcDbLine
 10
791.8247733744354
 20
521.0841716182543
 30
0.0
 11
788.9794859798382
 21
511.7045161008062
 31
0.0
  0
LINE
  5
AD2
330
85D
100
AcDbEntity
  8
0
  6
Continuous
 62
     3
100
AcDbLine
 10
788.9794859798382
 20
511.7045161008062
 30
0.0
 11
788.0187499999997
 21
501.9499999999998
 31
0.0
  0
LINE
  5
AD3
330
85D
100
AcDbEntity
  8
0
  6
Continuous
 62
     3
100
AcDbLine
 10
788.0187499999997
 20
501.9499999999998
 30
0.0
 11
788.9794859798382
 21
492.1954838991933
 31
0.0
  0
LINE
  5
AD4
330
85D
100
AcDbEntity
  8
0
  6
Continuous
 62
     3
100
AcDbLine
 10
788.9794859798382
 20
492.1954838991933
 30
0.0
 11
791.8247733744354
 21
482.8158283817453
 31
0.0
  0
LINE
  5
AD5
330
85D
100
AcDbEntity
  8
0
  6
Continuous
 62
     3
100
AcDbLine
 10
791.8247733744354
 20
482.8158283817453
 30
0.0
 11
796.4452693848723
 21
474.1714883490196
 31
0.0
  0
LINE
  5
AD6
330
85D
100
AcDbEntity
  8
0
  6
Continuous
 62
     3
100
AcDbLine
 10
796.4452693848723
 20
474.1714883490196
 30
0.0
 11
802.6634109406725
 21
466.5946609406725
 31
0.0
  0
LINE
  5
AD7
330
85D
100
AcDbEntity
  8
0
  6
Continuous
 62
     3
100
AcDbLine
 10
802.6634109406725
 20
466.5946609406725
 30
0.0
 11
810.2402383490197
 21
460.3765193848726
 31
0.0
  0
LINE
  5
AD8
330
85D
100
AcDbEntity
  8
0
  6
Continuous
 62
     3
100
AcDbLine
 10
810.2402383490197
 20
460.3765193848726
 30
0.0
 11
818.8845783817452
 21
455.7560233744355
 31
0.0
  0
LINE
  5
AD9
330
85D
100
AcDbEntity
  8
0
  6
Continuous
 62
     3
100
AcDbLine
 10
818.8845783817452
 20
455.7560233744355
 30
0.0
 11
828.2642338991934
 21
452.9107359798382
 31
0.0
  0
LINE
  5
ADA
330
85D
100
AcDbEntity
  8
0
  6
Continuous
 62
     3
100
AcDbLine
 10
828.2642338991934
 20
452.9107359798382
 30
0.0
 11
838.0187499999998
 21
451.9499999999998
 31
0.0
  0
LINE
  5
ADB
330
85D
100
AcDbEntity
  8
0
  6
Continuous
 62
     3
100
AcDbLine
 10
838.0187499999998
 20
451.9499999999998
 30
0.0
 11
847.7732661008062
 21
452.9107359798384
 31
0.0
  0
LINE
  5
ADC
330
85D
100
AcDbEntity
  8
0
  6
Continuous
 62
     3
100
AcDbLine
 10
847.7732661008062
 20
452.9107359798384
 30
0.0
 11
857.1529216182542
 21
455.7560233744356
 31
0.0
  0
LINE
  5
ADD
330
85D
100
AcDbEntity
  8
0
  6
Continuous
 62
     3
100
AcDbLine
 10
857.1529216182542
 20
455.7560233744356
 30
0.0
 11
865.7972616509798
 21
460.3765193848726
 31
0.0
  0
LINE
  5
ADE
330
85D
100
AcDbEntity
  8
0
  6
Continuous
 62
     3
100
AcDbLine
 10
865.7972616509798
 20
460.3765193848726
 30
0.0
 11
873.3740890593271
 21
466.5946609406725
 31
0.0
  0
LINE
  5
ADF
330
85D
100
AcDbEntity
  8
0
  6
Continuous
 62
     3
100
AcDbLine
 10
873.3740890593271
 20
466.5946609406725
 30
0.0
 11
879.5922306151268
 21
474.17148834902
 31
0.0
  0
LINE
  5
AE0
330
85D
100
AcDbEntity
  8
0
  6
Continuous
 62
     3
100
AcDbLine
 10
879.5922306151268
 20
474.17148834902
 30
0.0
 11
884.2127266255641
 21
482.8158283817455
 31
0.0
  0
LINE
  5
AE1
330
85D
100
AcDbEntity
  8
0
  6
Continuous
 62
     3
100
AcDbLine
 10
884.2127266255641
 20
482.8158283817455
 30
0.0
 11
887.0580140201612
 21
492.1954838991936
 31
0.0
  0
LINE
  5
AE2
330
85D
100
AcDbEntity
  8
0
  6
Continuous
 62
     3
100
AcDbLine
 10
887.0580140201612
 20
492.1954838991936
 30
0.0
 11
888.0187499999998
 21
501.9499999999999
 31
0.0
  0
LINE
  5
AE3
330
85D
100
AcDbEntity
  8
0
  6
Continuous
 62
     3
100
AcDbLine
 10
888.0187499999998
 20
501.9499999999999
 30
0.0
 11
887.0580140201612
 21
511.7045161008063
 31
0.0
  0
LINE
  5
AE4
330
85D
100
AcDbEntity
  8
0
  6
Continuous
 62
     3
100
AcDbLine
 10
887.0580140201612
 20
511.7045161008063
 30
0.0
 11
884.2127266255639
 21
521.0841716182544
 31
0.0
  0
LINE
  5
AE5
330
85D
100
AcDbEntity
  8
0
  6
Continuous
 62
     3
100
AcDbLine
 10
884.2127266255639
 20
521.0841716182544
 30
0.0
 11
879.5922306151268
 21
529.7285116509802
 31
0.0
  0
LINE
  5
AE6
330
85D
100
AcDbEntity
  8
0
  6
Continuous
 62
     3
100
AcDbLine
 10
879.5922306151268
 20
529.7285116509802
 30
0.0
 11
873.3740890593269
 21
537.3053390593273
 31
0.0
  0
LINE
  5
AE7
330
85D
100
AcDbEntity
  8
0
  6
Continuous
 62
     3
100
AcDbLine
 10
873.3740890593269
 20
537.3053390593273
 30
0.0
 11
865.7972616509796
 21
543.5234806151271
 31
0.0
  0
LINE
  5
AE8
330
85D
100
AcDbEntity
  8
0
  6
Continuous
 62
     3
100
AcDbLine
 10
865.7972616509796
 20
543.5234806151271
 30
0.0
 11
857.1529216182538
 21
548.1439766255641
 31
0.0
  0
LINE
  5
AE9
330
85D
100
AcDbEntity
  8
0
  6
Continuous
 62
     3
100
AcDbLine
 10
857.1529216182538
 20
548.1439766255641
 30
0.0
 11
847.7732661008058
 21
550.9892640201614
 31
0.0
  0
LINE
  5
AEA
330
85D
100
AcDbEntity
  8
0
  6
Continuous
 62
     3
100
AcDbLine
 10
847.7732661008058
 20
550.9892640201614
 30
0.0
 11
838.0187499999998
 21
551.9499999999998
 31
0.0
  0
LINE
  5
AEC
330
85D
100
AcDbEntity
  8
0
  6
Continuous
 62
     3
100
AcDbLine
 10
768.0187499999997
 20
626.9500000000001
 30
0.0
 11
774.4702278463428
 21
612.0056662715131
 31
0.0
  0
LINE
  5
AED
330
85D
100
AcDbEntity
  8
0
  6
Continuous
 62
     3
100
AcDbLine
 10
774.4702278463428
 20
612.0056662715131
 30
0.0
 11
774.104197098173
 21
595.1794553298267
 31
0.0
  0
LINE
  5
AEE
330
85D
100
AcDbEntity
  8
0
  6
Continuous
 62
     3
100
AcDbLine
 10
774.104197098173
 20
595.1794553298267
 30
0.0
 11
768.0187499999997
 21
581.9500000000001
 31
0.0
  0
LINE
  5
AEF
330
85D
100
AcDbEntity
  8
0
  6
Continuous
 62
     3
100
AcDbLine
 10
778.0666970981731
 20
505.1794553298265
 30
0.0
 11
770.0492824945268
 21
487.75
 31
0.0
  0
LINE
  5
AF0
330
85D
100
AcDbEntity
  8
0
  6
Continuous
 62
     3
100
AcDbLine
 10
769.8227469969366
 20
541.95
 30
0.0
 11
778.4327278463425
 21
522.0056662715129
 31
0.0
  0
LINE
  5
AF1
330
85D
100
AcDbEntity
  8
0
  6
Continuous
 62
     3
100
AcDbLine
 10
778.4327278463425
 20
522.0056662715129
 30
0.0
 11
778.0666970981731
 21
505.1794553298265
 31
0.0
  0
LINE
  5
AF2
330
85D
100
AcDbEntity
  8
0
  6
Continuous
 62
     3
100
AcDbLine
 10
902.4709845409958
 20
594.8206190174037
 30
0.0
 11
908.4823739148747
 21
581.55734821024
 31
0.0
  0
LINE
  5
AF3
330
85D
100
AcDbEntity
  8
0
  6
Continuous
 62
     3
100
AcDbLine
 10
908.7339578050697
 20
626.5566449330356
 30
0.0
 11
902.1990307045385
 21
611.6486133801782
 31
0.0
  0
LINE
  5
AF4
330
85D
100
AcDbEntity
  8
0
  6
Continuous
 62
     3
100
AcDbLine
 10
902.1990307045385
 20
611.6486133801782
 30
0.0
 11
902.4709845409958
 21
594.8206190174037
 31
0.0
  0
LINE
  5
AF5
330
85D
100
AcDbEntity
  8
0
  6
Continuous
 62
     3
100
AcDbLine
 10
898.0053786880715
 20
504.8441789310325
 30
0.0
 11
905.9252242108113
 21
487.3701726097244
 31
0.0
  0
LINE
  5
AF6
330
85D
100
AcDbEntity
  8
0
  6
Continuous
 62
     3
100
AcDbLine
 10
906.4547749868747
 20
541.5680590473637
 30
0.0
 11
897.7334248516136
 21
521.6721732938068
 31
0.0
  0
LINE
  5
AF7
330
85D
100
AcDbEntity
  8
0
  6
Continuous
 62
     3
100
AcDbLine
 10
897.7334248516136
 20
521.6721732938068
 30
0.0
 11
898.0053786880715
 21
504.8441789310325
 31
0.0
  0
LINE
  5
AFB
330
85D
100
AcDbEntity
  8
0
  6
Continuous
 62
     3
100
AcDbLine
 10
822.8874999999996
 20
615.03125
 30
0.0
 11
820.5780918443545
 21
611.7665644987995
 31
0.0
  0
LINE
  5
AFC
330
85D
100
AcDbEntity
  8
0
  6
Continuous
 62
     3
100
AcDbLine
 10
820.5780918443545
 20
611.7665644987995
 30
0.0
 11
818.949966864565
 21
608.1140658333247
 31
0.0
  0
LINE
  5
AFD
330
85D
100
AcDbEntity
  8
0
  6
Continuous
 62
     3
100
AcDbLine
 10
818.949966864565
 20
608.1140658333247
 30
0.0
 11
818.0656929905417
 21
604.214117478945
 31
0.0
  0
LINE
  5
AFE
330
85D
100
AcDbEntity
  8
0
  6
Continuous
 62
     3
100
AcDbLine
 10
818.0656929905417
 20
604.214117478945
 30
0.0
 11
817.9592523713566
 21
600.2165922638027
 31
0.0
  0
LINE
  5
AFF
330
85D
100
AcDbEntity
  8
0
  6
Continuous
 62
     3
100
AcDbLine
 10
817.9592523713566
 20
600.2165922638027
 30
0.0
 11
818.6347354603126
 21
596.2751128400782
 31
0.0
  0
LINE
  5
B00
330
85D
100
AcDbEntity
  8
0
  6
Continuous
 62
     3
100
AcDbLine
 10
818.6347354603126
 20
596.2751128400782
 30
0.0
 11
820.0661838211162
 21
592.5411480516179
 31
0.0
  0
LINE
  5
B01
330
85D
100
AcDbEntity
  8
0
  6
Continuous
 62
     3
100
AcDbLine
 10
820.0661838211162
 20
592.5411480516179
 30
0.0
 11
822.1985876960276
 21
589.1581920712106
 31
0.0
  0
LINE
  5
B02
330
85D
100
AcDbEntity
  8
0
  6
Continuous
 62
     3
100
AcDbLine
 10
822.1985876960276
 20
589.1581920712106
 30
0.0
 11
824.9499999999994
 21
586.2562500000001
 31
0.0
  0
LINE
  5
B03
330
85D
100
AcDbEntity
  8
0
  6
Continuous
 62
     3
100
AcDbLine
 10
824.9499999999994
 20
586.2562500000001
 30
0.0
 11
828.2146855011999
 21
583.9468418443548
 31
0.0
  0
LINE
  5
B04
330
85D
100
AcDbEntity
  8
0
  6
Continuous
 62
     3
100
AcDbLine
 10
828.2146855011999
 20
583.9468418443548
 30
0.0
 11
831.8671841666748
 21
582.3187168645652
 31
0.0
  0
LINE
  5
B05
330
85D
100
AcDbEntity
  8
0
  6
Continuous
 62
     3
100
AcDbLine
 10
831.8671841666748
 20
582.3187168645652
 30
0.0
 11
835.7671325210546
 21
581.4344429905421
 31
0.0
  0
LINE
  5
B06
330
85D
100
AcDbEntity
  8
0
  6
Continuous
 62
     3
100
AcDbLine
 10
835.7671325210546
 20
581.4344429905421
 30
0.0
 11
839.7646577361966
 21
581.3280023713571
 31
0.0
  0
LINE
  5
B07
330
85D
100
AcDbEntity
  8
0
  6
Continuous
 62
     3
100
AcDbLine
 10
839.7646577361966
 20
581.3280023713571
 30
0.0
 11
843.7061371599211
 21
582.0034854603131
 31
0.0
  0
LINE
  5
B08
330
85D
100
AcDbEntity
  8
0
  6
Continuous
 62
     3
100
AcDbLine
 10
843.7061371599211
 20
582.0034854603131
 30
0.0
 11
847.4401019483815
 21
583.4349338211167
 31
0.0
  0
LINE
  5
B09
330
85D
100
AcDbEntity
  8
0
  6
Continuous
 62
     3
100
AcDbLine
 10
847.4401019483815
 20
583.4349338211167
 30
0.0
 11
850.8230579287888
 21
585.5673376960282
 31
0.0
  0
LINE
  5
B0A
330
85D
100
AcDbEntity
  8
0
  6
Continuous
 62
     3
100
AcDbLine
 10
850.8230579287888
 20
585.5673376960282
 30
0.0
 11
853.7249999999993
 21
588.3187499999998
 31
0.0
  0
LINE
  5
B0B
330
85D
100
AcDbEntity
  8
0
  6
Continuous
 62
     3
100
AcDbLine
 10
853.7249999999993
 20
588.3187499999998
 30
0.0
 11
856.0344081556447
 21
591.5834355012004
 31
0.0
  0
LINE
  5
B0C
330
85D
100
AcDbEntity
  8
0
  6
Continuous
 62
     3
100
AcDbLine
 10
856.0344081556447
 20
591.5834355012004
 30
0.0
 11
857.6625331354341
 21
595.2359341666753
 31
0.0
  0
LINE
  5
B0D
330
85D
100
AcDbEntity
  8
0
  6
Continuous
 62
     3
100
AcDbLine
 10
857.6625331354341
 20
595.2359341666753
 30
0.0
 11
858.5468070094574
 21
599.135882521055
 31
0.0
  0
LINE
  5
B0E
330
85D
100
AcDbEntity
  8
0
  6
Continuous
 62
     3
100
AcDbLine
 10
858.5468070094574
 20
599.135882521055
 30
0.0
 11
858.6532476286421
 21
603.1334077361971
 31
0.0
  0
LINE
  5
B0F
330
85D
100
AcDbEntity
  8
0
  6
Continuous
 62
     3
100
AcDbLine
 10
858.6532476286421
 20
603.1334077361971
 30
0.0
 11
857.9777645396863
 21
607.0748871599216
 31
0.0
  0
LINE
  5
B10
330
85D
100
AcDbEntity
  8
0
  6
Continuous
 62
     3
100
AcDbLine
 10
857.9777645396863
 20
607.0748871599216
 30
0.0
 11
856.5463161788825
 21
610.8088519483819
 31
0.0
  0
LINE
  5
B11
330
85D
100
AcDbEntity
  8
0
  6
Continuous
 62
     3
100
AcDbLine
 10
856.5463161788825
 20
610.8088519483819
 30
0.0
 11
854.4139123039713
 21
614.1918079287892
 31
0.0
  0
LINE
  5
B12
330
85D
100
AcDbEntity
  8
0
  6
Continuous
 62
     3
100
AcDbLine
 10
854.4139123039713
 20
614.1918079287892
 30
0.0
 11
851.6624999999994
 21
617.0937499999999
 31
0.0
  0
LINE
  5
B13
330
85D
100
AcDbEntity
  8
0
  6
Continuous
 62
     3
100
AcDbLine
 10
851.6624999999994
 20
617.0937499999999
 30
0.0
 11
848.397814498799
 21
619.4031581556449
 31
0.0
  0
LINE
  5
B14
330
85D
100
AcDbEntity
  8
0
  6
Continuous
 62
     3
100
AcDbLine
 10
848.397814498799
 20
619.4031581556449
 30
0.0
 11
844.7453158333242
 21
621.0312831354343
 31
0.0
  0
LINE
  5
B15
330
85D
100
AcDbEntity
  8
0
  6
Continuous
 62
     3
100
AcDbLine
 10
844.7453158333242
 20
621.0312831354343
 30
0.0
 11
840.8453674789445
 21
621.9155570094577
 31
0.0
  0
LINE
  5
B16
330
85D
100
AcDbEntity
  8
0
  6
Continuous
 62
     3
100
AcDbLine
 10
840.8453674789445
 20
621.9155570094577
 30
0.0
 11
836.8478422638021
 21
622.0219976286426
 31
0.0
  0
LINE
  5
B17
330
85D
100
AcDbEntity
  8
0
  6
Continuous
 62
     3
100
AcDbLine
 10
836.8478422638021
 20
622.0219976286426
 30
0.0
 11
832.9063628400778
 21
621.3465145396867
 31
0.0
  0
LINE
  5
B18
330
85D
100
AcDbEntity
  8
0
  6
Continuous
 62
     3
100
AcDbLine
 10
832.9063628400778
 20
621.3465145396867
 30
0.0
 11
829.1723980516174
 21
619.9150661788828
 31
0.0
  0
LINE
  5
B19
330
85D
100
AcDbEntity
  8
0
  6
Continuous
 62
     3
100
AcDbLine
 10
829.1723980516174
 20
619.9150661788828
 30
0.0
 11
825.7894420712101
 21
617.7826623039717
 31
0.0
  0
LINE
  5
B1A
330
85D
100
AcDbEntity
  8
0
  6
Continuous
 62
     3
100
AcDbLine
 10
825.7894420712101
 20
617.7826623039717
 30
0.0
 11
822.8874999999996
 21
615.03125
 31
0.0
  0
LINE
  5
B1C
330
85D
100
AcDbEntity
  8
0
  6
Continuous
 62
     3
100
AcDbLine
 10
798.0187508847242
 20
626.9499990484108
 30
0.0
 11
802.7681402267297
 21
606.4025919422578
 31
0.0
  0
LINE
  5
B1D
330
85D
100
AcDbEntity
  8
0
  6
Continuous
 62
     3
100
AcDbLine
 10
802.7681402267297
 20
606.4025919422578
 30
0.0
 11
801.3084397491056
 21
585.0077947467456
 31
0.0
  0
LINE
  5
B1E
330
85D
100
AcDbEntity
  8
0
  6
Continuous
 62
     3
100
AcDbLine
 10
801.3084397491056
 20
585.0077947467456
 30
0.0
 11
793.0187499999997
 21
566.9500000000001
 31
0.0
  0
LINE
  5
B20
330
85D
100
AcDbEntity
  8
0
  6
Continuous
 62
     3
100
AcDbLine
 10
874.7290602508936
 20
585.0077947467456
 30
0.0
 11
883.0187499999997
 21
566.9500000000001
 31
0.0
  0
LINE
  5
B21
330
85D
100
AcDbEntity
  8
0
  6
Continuous
 62
     3
100
AcDbLine
 10
878.0187491152751
 20
626.9499990484108
 30
0.0
 11
873.2693597732696
 21
606.4025919422578
 31
0.0
  0
LINE
  5
B22
330
85D
100
AcDbEntity
  8
0
  6
Continuous
 62
     3
100
AcDbLine
 10
873.2693597732696
 20
606.4025919422578
 30
0.0
 11
874.7290602508936
 21
585.0077947467456
 31
0.0
  0
ENDSEC
  0
SECTION
  2
OBJECTS
  0
DICTIONARY
  5
84B
330
0
100
AcDbDictionary
281
     1
  3
ACAD_GROUP
350
84C
  3
ACAD_PLOTSTYLENAME
350
84D
  3
ACAD_MLINESTYLE
350
855
  3
ACAD_PLOTSETTINGS
350
857
  3
ACAD_LAYOUT
350
858
  0
DICTIONARY
  5
84C
102
{ACAD_REACTORS
330
84B
102
}
330
84B
100
AcDbDictionary
281
     1
  0
ACDBDICTIONARYWDFLT
  5
84D
102
{ACAD_REACTORS
330
84B
102
}
330
84B
100
AcDbDictionary
281
     1
  3
Normal
350
84E
100
AcDbDictionaryWithDefault
340
84E
  0
DICTIONARY
  5
855
102
{ACAD_REACTORS
330
84B
102
}
330
84B
100
AcDbDictionary
281
     1
  3
Standard
350
856
  0
DICTIONARY
  5
857
102
{ACAD_REACTORS
330
84B
102
}
330
84B
100
AcDbDictionary
281
     1
  0
DICTIONARY
  5
858
102
{ACAD_REACTORS
330
84B
102
}
330
84B
100
AcDbDictionary
281
     1
  3
Layout1
350
85C
  3
Model
350
860
  0
ACDBPLACEHOLDER
  5
84E
102
{ACAD_REACTORS
330
84D
102
}
330
84D
  0
MLINESTYLE
  5
856
102
{ACAD_REACTORS
330
855
102
}
330
855
100
AcDbMlineStyle
  2
STANDARD
 70
     0
  3

 62
   256
 51
90.0
 52
90.0
 71
     2
 49
0.5
 62
   256
  6
BYLAYER
 49
-0.5
 62
   256
  6
BYLAYER
  0
LAYOUT
  5
85C
102
{ACAD_REACTORS
330
858
102
}
330
858
100
AcDbPlotSettings
  1

  2
Samsung ML-2160 Series
  4

  6

 40
0.0
 41
0.0
 42
0.0
 43
0.0
 44
0.0
 45
0.0
 46
0.0
 47
0.0
 48
0.0
 49
0.0
140
0.0
141
0.0
142
1.0
143
1.0
 70
   688
 72
     0
 73
     0
 74
     5
  7

 75
    16
147
1.0
148
0.0
149
0.0
100
AcDbLayout
  1
Layout1
 70
     0
 71
     1
 10
0.0
 20
0.0
 11
12.0
 21
9.0
 12
0.0
 22
0.0
 32
0.0
 14
-1.000000000000000E+20
 24
-1.000000000000000E+20
 34
-1.000000000000000E+20
 15
-1.000000000000000E+20
 25
-1.000000000000000E+20
 35
-1.000000000000000E+20
146
0.0
 13
0.0
 23
0.0
 33
0.0
 16
1.0
 26
0.0
 36
0.0
 17
0.0
 27
1.0
 37
0.0
 76
     0
330
859
  0
LAYOUT
  5
860
102
{ACAD_REACTORS
330
858
102
}
330
858
100
AcDbPlotSettings
  1

  2
Samsung ML-2160 Series
  4

  6

 40
0.0
 41
0.0
 42
0.0
 43
0.0
 44
0.0
 45
0.0
 46
0.0
 47
0.0
 48
0.0
 49
0.0
140
0.0
141
0.0
142
1.0
143
1.0
 70
  1712
 72
     0
 73
     0
 74
     0
  7

 75
     0
147
1.0
148
0.0
149
0.0
100
AcDbLayout
  1
Model
 70
     1
 71
     0
 10
0.0
 20
0.0
 11
12.0
 21
9.0
 12
0.0
 22
0.0
 32
0.0
 14
0.0
 24
0.0
 34
0.0
 15
0.0
 25
0.0
 35
0.0
146
0.0
 13
0.0
 23
0.0
 33
0.0
 16
1.0
 26
0.0
 36
0.0
 17
0.0
 27
1.0
 37
0.0
 76
     0
330
85D
  0
ENDSEC
  0
EOF
