  0
SECTION
  2
HEADER
  9
$ACADVER
  1
AC1015
  9
$ACADMAINTVER
 70
     6
  9
$DWGCODEPAGE
  3
ANSI_1252
  9
$INSBASE
 10
0.0
 20
0.0
 30
0.0
  9
$EXTMIN
 10
-179.7553558763869
 20
255.2572685847664
 30
0.0
  9
$EXTMAX
 10
1822.451013290232
 20
983.7065916235262
 30
0.0
  9
$LIMMIN
 10
0.0
 20
0.0
  9
$LIMMAX
 10
12.0
 20
9.0
  9
$ORTHOMODE
 70
     1
  9
$REGENMODE
 70
     1
  9
$FILLMODE
 70
     1
  9
$QTEXTMODE
 70
     0
  9
$MIRRTEXT
 70
     1
  9
$LTSCALE
 40
1.0
  9
$ATTMODE
 70
     1
  9
$TEXTSIZE
 40
0.0
  9
$TRACEWID
 40
0.05
  9
$TEXTSTYLE
  7
STANDARD
  9
$CLAYER
  8
0
  9
$CELTYPE
  6
CONTINUOUS
  9
$CECOLOR
 62
   256
  9
$CELTSCALE
 40
1.0
  9
$DISPSILH
 70
     0
  9
$DIMSCALE
 40
1.0
  9
$DIMASZ
 40
0.18
  9
$DIMEXO
 40
0.0625
  9
$DIMDLI
 40
0.38
  9
$DIMRND
 40
0.0
  9
$DIMDLE
 40
0.0
  9
$DIMEXE
 40
0.18
  9
$DIMTP
 40
0.0
  9
$DIMTM
 40
0.0
  9
$DIMTXT
 40
0.18
  9
$DIMCEN
 40
0.09
  9
$DIMTSZ
 40
0.0
  9
$DIMTOL
 70
     0
  9
$DIMLIM
 70
     0
  9
$DIMTIH
 70
     1
  9
$DIMTOH
 70
     1
  9
$DIMSE1
 70
     0
  9
$DIMSE2
 70
     0
  9
$DIMTAD
 70
     0
  9
$DIMZIN
 70
     0
  9
$DIMBLK
  1

  9
$DIMASO
 70
     1
  9
$DIMSHO
 70
     1
  9
$DIMPOST
  1

  9
$DIMAPOST
  1

  9
$DIMALT
 70
     0
  9
$DIMALTD
 70
     2
  9
$DIMALTF
 40
25.4
  9
$DIMLFAC
 40
1.0
  9
$DIMTOFL
 70
     0
  9
$DIMTVP
 40
0.0
  9
$DIMTIX
 70
     0
  9
$DIMSOXD
 70
     0
  9
$DIMSAH
 70
     0
  9
$DIMBLK1
  1

  9
$DIMBLK2
  1

  9
$DIMSTYLE
  2
STANDARD
  9
$DIMCLRD
 70
     0
  9
$DIMCLRE
 70
     0
  9
$DIMCLRT
 70
     0
  9
$DIMTFAC
 40
1.0
  9
$DIMGAP
 40
0.09
  9
$DIMJUST
 70
     0
  9
$DIMSD1
 70
     0
  9
$DIMSD2
 70
     0
  9
$DIMTOLJ
 70
     1
  9
$DIMTZIN
 70
     0
  9
$DIMALTZ
 70
     0
  9
$DIMALTTZ
 70
     0
  9
$DIMUPT
 70
     0
  9
$DIMDEC
 70
     4
  9
$DIMTDEC
 70
     4
  9
$DIMALTU
 70
     2
  9
$DIMALTTD
 70
     2
  9
$DIMTXSTY
  7
STANDARD
  9
$DIMAUNIT
 70
     0
  9
$DIMADEC
 70
     0
  9
$DIMALTRND
 40
0.0
  9
$DIMAZIN
 70
     0
  9
$DIMDSEP
 70
    46
  9
$DIMATFIT
 70
     3
  9
$DIMFRAC
 70
     0
  9
$DIMLDRBLK
  1

  9
$DIMLUNIT
 70
     2
  9
$DIMLWD
 70
    -2
  9
$DIMLWE
 70
    -2
  9
$DIMTMOVE
 70
     0
  9
$LUNITS
 70
     2
  9
$LUPREC
 70
     4
  9
$SKETCHINC
 40
0.1
  9
$FILLETRAD
 40
0.0
  9
$AUNITS
 70
     0
  9
$AUPREC
 70
     0
  9
$MENU
  1
acad
  9
$ELEVATION
 40
0.0
  9
$PELEVATION
 40
0.0
  9
$THICKNESS
 40
0.0
  9
$LIMCHECK
 70
     0
  9
$CHAMFERA
 40
0.0
  9
$CHAMFERB
 40
0.0
  9
$CHAMFERC
 40
0.0
  9
$CHAMFERD
 40
0.0
  9
$SKPOLY
 70
     0
  9
$TDCREATE
 40
2453238.660451389
  9
$TDUCREATE
 40
2453238.660451389
  9
$TDUPDATE
 40
2458135.806000602
  9
$TDUUPDATE
 40
2458135.806000602
  9
$TDINDWG
 40
0.5539435648
  9
$TDUSRTIMER
 40
0.5539393519
  9
$USRTIMER
 70
     1
  9
$ANGBASE
 50
0.0
  9
$ANGDIR
 70
     0
  9
$PDMODE
 70
     0
  9
$PDSIZE
 40
0.0
  9
$PLINEWID
 40
0.0
  9
$SPLFRAME
 70
     0
  9
$SPLINETYPE
 70
     6
  9
$SPLINESEGS
 70
    10
  9
$HANDSEED
  5
E9E
  9
$SURFTAB1
 70
     6
  9
$SURFTAB2
 70
     6
  9
$SURFTYPE
 70
     6
  9
$SURFU
 70
     6
  9
$SURFV
 70
     6
  9
$UCSBASE
  2

  9
$UCSNAME
  2

  9
$UCSORG
 10
0.0
 20
0.0
 30
0.0
  9
$UCSXDIR
 10
1.0
 20
0.0
 30
0.0
  9
$UCSYDIR
 10
0.0
 20
1.0
 30
0.0
  9
$UCSORTHOREF
  2

  9
$UCSORTHOVIEW
 70
     0
  9
$UCSORGTOP
 10
0.0
 20
0.0
 30
0.0
  9
$UCSORGBOTTOM
 10
0.0
 20
0.0
 30
0.0
  9
$UCSORGLEFT
 10
0.0
 20
0.0
 30
0.0
  9
$UCSORGRIGHT
 10
0.0
 20
0.0
 30
0.0
  9
$UCSORGFRONT
 10
0.0
 20
0.0
 30
0.0
  9
$UCSORGBACK
 10
0.0
 20
0.0
 30
0.0
  9
$PUCSBASE
  2

  9
$PUCSNAME
  2

  9
$PUCSORG
 10
0.0
 20
0.0
 30
0.0
  9
$PUCSXDIR
 10
1.0
 20
0.0
 30
0.0
  9
$PUCSYDIR
 10
0.0
 20
1.0
 30
0.0
  9
$PUCSORTHOREF
  2

  9
$PUCSORTHOVIEW
 70
     0
  9
$PUCSORGTOP
 10
0.0
 20
0.0
 30
0.0
  9
$PUCSORGBOTTOM
 10
0.0
 20
0.0
 30
0.0
  9
$PUCSORGLEFT
 10
0.0
 20
0.0
 30
0.0
  9
$PUCSORGRIGHT
 10
0.0
 20
0.0
 30
0.0
  9
$PUCSORGFRONT
 10
0.0
 20
0.0
 30
0.0
  9
$PUCSORGBACK
 10
0.0
 20
0.0
 30
0.0
  9
$USERI1
 70
     0
  9
$USERI2
 70
     0
  9
$USERI3
 70
     0
  9
$USERI4
 70
     0
  9
$USERI5
 70
     0
  9
$USERR1
 40
0.0
  9
$USERR2
 40
0.0
  9
$USERR3
 40
0.0
  9
$USERR4
 40
0.0
  9
$USERR5
 40
0.0
  9
$WORLDVIEW
 70
     1
  9
$SHADEDGE
 70
     3
  9
$SHADEDIF
 70
    70
  9
$TILEMODE
 70
     1
  9
$MAXACTVP
 70
    16
  9
$PINSBASE
 10
0.0
 20
0.0
 30
0.0
  9
$PLIMCHECK
 70
     0
  9
$PEXTMIN
 10
-1.000000000000000E+20
 20
-1.000000000000000E+20
 30
-1.000000000000000E+20
  9
$PEXTMAX
 10
-1.000000000000000E+20
 20
-1.000000000000000E+20
 30
-1.000000000000000E+20
  9
$PLIMMIN
 10
0.0
 20
0.0
  9
$PLIMMAX
 10
12.0
 20
9.0
  9
$UNITMODE
 70
     0
  9
$VISRETAIN
 70
     0
  9
$PLINEGEN
 70
     1
  9
$PSLTSCALE
 70
     0
  9
$TREEDEPTH
 70
  3020
  9
$CMLSTYLE
  2
Standard
  9
$CMLJUST
 70
     0
  9
$CMLSCALE
 40
1.0
  9
$PROXYGRAPHICS
 70
     1
  9
$MEASUREMENT
 70
     0
  9
$CELWEIGHT
370
    -1
  9
$ENDCAPS
280
     0
  9
$JOINSTYLE
280
     0
  9
$LWDISPLAY
290
     0
  9
$INSUNITS
 70
     0
  9
$HYPERLINKBASE
  1

  9
$STYLESHEET
  1

  9
$XEDIT
290
     1
  9
$CEPSNTYPE
380
     0
  9
$PSTYLEMODE
290
     1
  9
$FINGERPRINTGUID
  2
{FA43F54D-CC65-4596-B4E5-6D0DED095339}
  9
$VERSIONGUID
  2
{F7819D3A-C8F4-4217-88A5-0D173D09E064}
  9
$EXTNAMES
290
     1
  9
$PSVPSCALE
 40
0.0
  9
$OLESTARTUP
290
     0
  0
ENDSEC
  0
SECTION
  2
CLASSES
  0
CLASS
  1
ACDBDICTIONARYWDFLT
  2
AcDbDictionaryWithDefault
  3
AutoCAD 2000
 90
        0
280
     0
281
     0
  0
CLASS
  1
ACDBPLACEHOLDER
  2
AcDbPlaceHolder
  3
AutoCAD 2000
 90
        0
280
     0
281
     0
  0
CLASS
  1
LAYOUT
  2
AcDbLayout
  3
AutoCAD 2000
 90
        0
280
     0
281
     0
  0
CLASS
  1
MATERIAL
  2
AcDbMaterial
  3
ObjectDBX Classes
 90
     1024
280
     0
281
     0
  0
CLASS
  1
VISUALSTYLE
  2
AcDbVisualStyle
  3
ObjectDBX Classes
 90
     4095
280
     0
281
     0
  0
CLASS
  1
TABLESTYLE
  2
AcDbTableStyle
  3
ObjectDBX Classes
 90
     4095
280
     0
281
     0
  0
CLASS
  1
SORTENTSTABLE
  2
AcDbSortentsTable
  3
AutoCAD 2000
 90
        0
280
     0
281
     0
  0
CLASS
  1
DICTIONARYVAR
  2
AcDbDictionaryVar
  3
AutoCAD 2000
 90
        0
280
     0
281
     0
  0
ENDSEC
  0
SECTION
  2
TABLES
  0
TABLE
  2
VPORT
  5
C5
330
0
100
AcDbSymbolTable
 70
     2
  0
VPORT
  5
E9D
330
C5
100
AcDbSymbolTableRecord
100
AcDbViewportTableRecord
  2
*Active
 70
     0
 10
0.0
 20
0.0
 11
1.0
 21
1.0
 12
566.08367425091
 22
-241.1996766918739
 13
0.0
 23
0.0
 14
0.0
 24
0.0
 15
0.0
 25
0.0
 16
0.0
 26
0.0
 36
1.0
 17
812.779596
 27
593.365625
 37
0.0
 40
2418.25364980986
 41
2.032258064516129
 42
50.0
 43
6.3125
 44
0.0
 50
0.0
 51
0.0
 71
     0
 72
   100
 73
     1
 74
     0
 75
     0
 76
     0
 77
     0
 78
     0
281
     0
 65
     0
110
0.0
120
0.0
130
0.0
111
1.0
121
0.0
131
0.0
112
0.0
122
1.0
132
0.0
 79
     0
146
0.0
  0
ENDTAB
  0
TABLE
  2
LTYPE
  5
C2
330
0
100
AcDbSymbolTable
 70
     7
  0
LTYPE
  5
D0
330
C2
100
AcDbSymbolTableRecord
100
AcDbLinetypeTableRecord
  2
ByBlock
 70
     0
  3

 72
    65
 73
     0
 40
0.0
  0
LTYPE
  5
D1
330
C2
100
AcDbSymbolTableRecord
100
AcDbLinetypeTableRecord
  2
ByLayer
 70
     0
  3

 72
    65
 73
     0
 40
0.0
  0
LTYPE
  5
D2
330
C2
100
AcDbSymbolTableRecord
100
AcDbLinetypeTableRecord
  2
CONTINUOUS
 70
     0
  3
Solid line
 72
    65
 73
     0
 40
0.0
  0
ENDTAB
  0
TABLE
  2
LAYER
  5
BF
330
0
100
AcDbSymbolTable
 70
     7
  0
LAYER
  5
CD
330
BF
100
AcDbSymbolTableRecord
100
AcDbLayerTableRecord
  2
0
 70
     0
 62
     7
  6
CONTINUOUS
370
    -3
390
CC
  0
LAYER
  5
E8
330
BF
100
AcDbSymbolTableRecord
100
AcDbLayerTableRecord
  2
1
 70
     0
 62
     7
  6
CONTINUOUS
370
    -3
390
CC
  0
LAYER
  5
668
102
{ACAD_XDICTIONARY
360
669
102
}
330
BF
100
AcDbSymbolTableRecord
100
AcDbLayerTableRecord
  2
-1
 70
     0
 62
     7
  6
CONTINUOUS
370
    -3
390
CC
  0
LAYER
  5
66B
102
{ACAD_XDICTIONARY
360
66C
102
}
330
BF
100
AcDbSymbolTableRecord
100
AcDbLayerTableRecord
  2
FLAN1$0$1
 70
     0
 62
     7
  6
CONTINUOUS
370
    -3
390
CC
  0
ENDTAB
  0
TABLE
  2
STYLE
  5
C0
330
0
100
AcDbSymbolTable
 70
     1
  0
STYLE
  5
CE
330
C0
100
AcDbSymbolTableRecord
100
AcDbTextStyleTableRecord
  2
STANDARD
 70
     0
 40
0.0
 41
1.0
 50
0.0
 71
     0
 42
0.0
  3
txt
  4

  0
ENDTAB
  0
TABLE
  2
VIEW
  5
C3
330
0
100
AcDbSymbolTable
 70
     0
  0
ENDTAB
  0
TABLE
  2
UCS
  5
C4
330
0
100
AcDbSymbolTable
 70
     0
  0
ENDTAB
  0
TABLE
  2
APPID
  5
C6
330
0
100
AcDbSymbolTable
 70
     1
  0
APPID
  5
CF
330
C6
100
AcDbSymbolTableRecord
100
AcDbRegAppTableRecord
  2
ACAD
 70
     0
  0
ENDTAB
  0
TABLE
  2
DIMSTYLE
  5
C7
330
0
100
AcDbSymbolTable
 70
     1
100
AcDbDimStyleTable
 71
     1
340
E9
  0
DIMSTYLE
105
E9
330
C7
100
AcDbSymbolTableRecord
100
AcDbDimStyleTableRecord
  2
STANDARD
 70
     0
279
     2
340
CE
  0
ENDTAB
  0
TABLE
  2
BLOCK_RECORD
  5
BE
330
0
100
AcDbSymbolTable
 70
     1
  0
BLOCK_RECORD
  5
DB
102
{ACAD_XDICTIONARY
360
1FF
102
}
330
BE
100
AcDbSymbolTableRecord
100
AcDbBlockTableRecord
  2
*Model_Space
340
DE
  0
BLOCK_RECORD
  5
D7
330
BE
100
AcDbSymbolTableRecord
100
AcDbBlockTableRecord
  2
*Paper_Space
340
DA
  0
ENDTAB
  0
ENDSEC
  0
SECTION
  2
BLOCKS
  0
BLOCK
  5
DC
330
DB
100
AcDbEntity
  8
0
100
AcDbBlockBegin
  2
*Model_Space
 70
     0
 10
0.0
 20
0.0
 30
0.0
  3
*Model_Space
  1

  0
ENDBLK
  5
DD
330
DB
100
AcDbEntity
  8
0
100
AcDbBlockEnd
  0
BLOCK
  5
D8
330
D7
100
AcDbEntity
 67
     1
  8
0
100
AcDbBlockBegin
  2
*Paper_Space
 70
     0
 10
0.0
 20
0.0
 30
0.0
  3
*Paper_Space
  1

  0
ENDBLK
  5
D9
330
D7
100
AcDbEntity
 67
     1
  8
0
100
AcDbBlockEnd
  0
ENDSEC
  0
SECTION
  2
ENTITIES
  0
LINE
  5
8C2
330
DB
100
AcDbEntity
  8
1
  6
Continuous
 62
     4
100
AcDbLine
 10
1231.984310230951
 20
819.4647915611826
 30
0.0
 11
1228.384310230949
 21
898.6647915611824
 31
0.0
  0
LINE
  5
8C3
330
DB
100
AcDbEntity
  8
1
  6
Continuous
 62
     4
100
AcDbLine
 10
1246.384310230949
 20
819.4647915611826
 30
0.0
 11
1242.784310230949
 21
898.6647915611818
 31
0.0
  0
LINE
  5
8C4
330
DB
100
AcDbEntity
  8
1
  6
Continuous
 62
     4
100
AcDbLine
 10
1260.784310230949
 20
819.4647915611826
 30
0.0
 11
1257.184310230948
 21
898.6647915611824
 31
0.0
  0
LINE
  5
8C5
330
DB
100
AcDbEntity
  8
1
  6
Continuous
 62
     4
100
AcDbLine
 10
1275.184310230948
 20
819.4647915611826
 30
0.0
 11
1271.584310230948
 21
898.6647915611824
 31
0.0
  0
LINE
  5
8C6
330
DB
100
AcDbEntity
  8
1
  6
Continuous
 62
     4
100
AcDbLine
 10
1289.584310230946
 20
819.4647915611826
 30
0.0
 11
1285.98431023095
 21
898.6647915611818
 31
0.0
  0
LINE
  5
8C7
330
DB
100
AcDbEntity
  8
1
  6
Continuous
 62
     4
100
AcDbLine
 10
1303.984310230948
 20
819.4647915611826
 30
0.0
 11
1300.38431023095
 21
898.6647915611824
 31
0.0
  0
LINE
  5
8C8
330
DB
100
AcDbEntity
  8
1
  6
Continuous
 62
     4
100
AcDbLine
 10
1318.384310230949
 20
819.4647915611826
 30
0.0
 11
1314.784310230947
 21
898.6647915611818
 31
0.0
  0
LINE
  5
8C9
330
DB
100
AcDbEntity
  8
1
  6
Continuous
 62
     4
100
AcDbLine
 10
1332.784310230948
 20
819.4647915611826
 30
0.0
 11
1329.184310230949
 21
898.6647915611824
 31
0.0
  0
LINE
  5
8EC
330
DB
100
AcDbEntity
  8
0
  6
Continuous
 62
     4
100
AcDbLine
 10
1155.24929532372
 20
758.8556310018566
 30
0.0
 11
1136.658455883049
 21
740.2647915611821
 31
0.0
1001
ACAD
1010
0.0
1020
0.0
1030
0.0
  0
LINE
  5
8ED
330
DB
100
AcDbEntity
  8
0
  6
Continuous
 62
     4
100
AcDbLine
 10
1162.886048560532
 20
758.8556310018566
 30
0.0
 11
1144.295209119861
 21
740.2647915611821
 31
0.0
1001
ACAD
1010
0.0
1020
0.0
1030
0.0
  0
LINE
  5
8EE
330
DB
100
AcDbEntity
  8
0
  6
Continuous
 62
     4
100
AcDbLine
 10
1170.52280179735
 20
758.8556310018566
 30
0.0
 11
1151.931962356677
 21
740.2647915611821
 31
0.0
1001
ACAD
1010
0.0
1020
0.0
1030
0.0
  0
LINE
  5
8EF
330
DB
100
AcDbEntity
  8
0
  6
Continuous
 62
     4
100
AcDbLine
 10
1178.159555034167
 20
758.8556310018566
 30
0.0
 11
1159.568715593491
 21
740.2647915611821
 31
0.0
1001
ACAD
1010
0.0
1020
0.0
1030
0.0
  0
LINE
  5
8F0
330
DB
100
AcDbEntity
  8
0
  6
Continuous
 62
     4
100
AcDbLine
 10
1185.796308270977
 20
758.8556310018566
 30
0.0
 11
1167.205468830305
 21
740.2647915611821
 31
0.0
1001
ACAD
1010
0.0
1020
0.0
1030
0.0
  0
LINE
  5
8F1
330
DB
100
AcDbEntity
  8
0
  6
Continuous
 62
     4
100
AcDbLine
 10
1193.433061507797
 20
758.8556310018566
 30
0.0
 11
1174.842222067123
 21
740.2647915611821
 31
0.0
1001
ACAD
1010
0.0
1020
0.0
1030
0.0
  0
LINE
  5
8F2
330
DB
100
AcDbEntity
  8
0
  6
Continuous
 62
     4
100
AcDbLine
 10
1201.069814744611
 20
758.8556310018566
 30
0.0
 11
1182.478975303937
 21
740.2647915611821
 31
0.0
1001
ACAD
1010
0.0
1020
0.0
1030
0.0
  0
LINE
  5
8F3
330
DB
100
AcDbEntity
  8
0
  6
Continuous
 62
     4
100
AcDbLine
 10
1208.706567981423
 20
758.8556310018566
 30
0.0
 11
1190.115728540753
 21
740.2647915611821
 31
0.0
1001
ACAD
1010
0.0
1020
0.0
1030
0.0
  0
LINE
  5
8F4
330
DB
100
AcDbEntity
  8
0
  6
Continuous
 62
     4
100
AcDbLine
 10
1216.343321218241
 20
758.8556310018566
 30
0.0
 11
1197.752481777566
 21
740.2647915611821
 31
0.0
1001
ACAD
1010
0.0
1020
0.0
1030
0.0
  0
LINE
  5
8F5
330
DB
100
AcDbEntity
  8
0
  6
Continuous
 62
     4
100
AcDbLine
 10
1223.980074455057
 20
758.8556310018566
 30
0.0
 11
1205.389235014381
 21
740.2647915611821
 31
0.0
1001
ACAD
1010
0.0
1020
0.0
1030
0.0
  0
LINE
  5
8F6
330
DB
100
AcDbEntity
  8
0
  6
Continuous
 62
     4
100
AcDbLine
 10
1231.616827691871
 20
758.8556310018566
 30
0.0
 11
1213.025988251197
 21
740.2647915611821
 31
0.0
1001
ACAD
1010
0.0
1020
0.0
1030
0.0
  0
LINE
  5
8F7
330
DB
100
AcDbEntity
  8
0
  6
Continuous
 62
     4
100
AcDbLine
 10
1239.253580928683
 20
758.8556310018566
 30
0.0
 11
1220.662741488011
 21
740.2647915611821
 31
0.0
1001
ACAD
1010
0.0
1020
0.0
1030
0.0
  0
LINE
  5
8F8
330
DB
100
AcDbEntity
  8
0
  6
Continuous
 62
     4
100
AcDbLine
 10
1246.890334165497
 20
758.8556310018566
 30
0.0
 11
1231.941902477885
 21
743.9071993142444
 31
0.0
1001
ACAD
1010
0.0
1020
0.0
1030
0.0
  0
LINE
  5
8F9
330
DB
100
AcDbEntity
  8
0
  6
Continuous
 62
     4
100
AcDbLine
 10
1254.527087402314
 20
758.8556310018566
 30
0.0
 11
1242.960279096295
 21
747.2888226958369
 31
0.0
1001
ACAD
1010
0.0
1020
0.0
1030
0.0
  0
LINE
  5
8FA
330
DB
100
AcDbEntity
  8
0
  6
Continuous
 62
     4
100
AcDbLine
 10
1262.163840639132
 20
758.8556310018566
 30
0.0
 11
1246.778655714702
 21
743.4704460774287
 31
0.0
1001
ACAD
1010
0.0
1020
0.0
1030
0.0
  0
LINE
  5
8FB
330
DB
100
AcDbEntity
  8
0
  6
Continuous
 62
     4
100
AcDbLine
 10
1269.800593875947
 20
758.8556310018566
 30
0.0
 11
1257.797032333111
 21
746.852069459021
 31
0.0
1001
ACAD
1010
0.0
1020
0.0
1030
0.0
  0
LINE
  5
8FC
330
DB
100
AcDbEntity
  8
0
  6
Continuous
 62
     4
100
AcDbLine
 10
1277.437347112761
 20
758.8556310018566
 30
0.0
 11
1261.615408951518
 21
743.0336928406132
 31
0.0
1001
ACAD
1010
0.0
1020
0.0
1030
0.0
  0
LINE
  5
8FD
330
DB
100
AcDbEntity
  8
0
  6
Continuous
 62
     4
100
AcDbLine
 10
1285.074100349578
 20
758.8556310018566
 30
0.0
 11
1272.633785569926
 21
746.4153162222047
 31
0.0
1001
ACAD
1010
0.0
1020
0.0
1030
0.0
  0
LINE
  5
8FE
330
DB
100
AcDbEntity
  8
0
  6
Continuous
 62
     4
100
AcDbLine
 10
1292.710853586392
 20
758.8556310018566
 30
0.0
 11
1276.452162188331
 21
742.5969396037977
 31
0.0
1001
ACAD
1010
0.0
1020
0.0
1030
0.0
  0
LINE
  5
8FF
330
DB
100
AcDbEntity
  8
0
  6
Continuous
 62
     4
100
AcDbLine
 10
1300.347606823209
 20
758.8556310018566
 30
0.0
 11
1287.470538806741
 21
745.9785629853901
 31
0.0
1001
ACAD
1010
0.0
1020
0.0
1030
0.0
  0
LINE
  5
900
330
DB
100
AcDbEntity
  8
0
  6
Continuous
 62
     4
100
AcDbLine
 10
1307.984360060022
 20
758.8556310018566
 30
0.0
 11
1291.288915425151
 21
742.1601863669827
 31
0.0
1001
ACAD
1010
0.0
1020
0.0
1030
0.0
  0
LINE
  5
901
330
DB
100
AcDbEntity
  8
0
  6
Continuous
 62
     4
100
AcDbLine
 10
1315.621113296836
 20
758.8556310018566
 30
0.0
 11
1302.307292043556
 21
745.5418097485742
 31
0.0
1001
ACAD
1010
0.0
1020
0.0
1030
0.0
  0
LINE
  5
902
330
DB
100
AcDbEntity
  8
0
  6
Continuous
 62
     4
100
AcDbLine
 10
1323.257866533656
 20
758.8556310018566
 30
0.0
 11
1306.125668661965
 21
741.7234331301663
 31
0.0
1001
ACAD
1010
0.0
1020
0.0
1030
0.0
  0
LINE
  5
903
330
DB
100
AcDbEntity
  8
0
  6
Continuous
 62
     4
100
AcDbLine
 10
1330.894619770472
 20
758.8556310018566
 30
0.0
 11
1317.144045280369
 21
745.1050565117589
 31
0.0
1001
ACAD
1010
0.0
1020
0.0
1030
0.0
  0
LINE
  5
904
330
DB
100
AcDbEntity
  8
0
  6
Continuous
 62
     4
100
AcDbLine
 10
1336.384310230948
 20
756.7085682255187
 30
0.0
 11
1320.962421898782
 21
741.2866798933507
 31
0.0
1001
ACAD
1010
0.0
1020
0.0
1030
0.0
  0
LINE
  5
905
330
DB
100
AcDbEntity
  8
0
  6
Continuous
 62
     4
100
AcDbLine
 10
1336.384310230948
 20
749.071814988703
 30
0.0
 11
1331.980798517186
 21
744.6683032749432
 31
0.0
1001
ACAD
1010
0.0
1020
0.0
1030
0.0
  0
LINE
  5
998
330
DB
100
AcDbEntity
  8
0
  6
Continuous
 62
     4
100
AcDbLine
 10
1155.24929532372
 20
758.8556310018566
 30
0.0
 11
1136.658455883049
 21
740.2647915611821
 31
0.0
1001
ACAD
1010
0.0
1020
0.0
1030
0.0
  0
LINE
  5
999
330
DB
100
AcDbEntity
  8
1
  6
Continuous
 62
     4
100
AcDbLine
 10
690.9225882738325
 20
819.4647915611826
 30
0.0
 11
687.3225882738317
 21
898.6647915611824
 31
0.0
  0
LINE
  5
99A
330
DB
100
AcDbEntity
  8
1
  6
Continuous
 62
     4
100
AcDbLine
 10
705.3225882738312
 20
819.4647915611826
 30
0.0
 11
701.7225882738322
 21
898.6647915611818
 31
0.0
  0
LINE
  5
99B
330
DB
100
AcDbEntity
  8
1
  6
Continuous
 62
     4
100
AcDbLine
 10
719.7225882738325
 20
819.4647915611826
 30
0.0
 11
716.1225882738325
 21
898.6647915611824
 31
0.0
  0
LINE
  5
99C
330
DB
100
AcDbEntity
  8
1
  6
Continuous
 62
     4
100
AcDbLine
 10
734.1225882738317
 20
819.4647915611826
 30
0.0
 11
730.5225882738323
 21
898.6647915611824
 31
0.0
  0
LINE
  5
99D
330
DB
100
AcDbEntity
  8
1
  6
Continuous
 62
     4
100
AcDbLine
 10
748.5225882738318
 20
819.4647915611826
 30
0.0
 11
744.9225882738319
 21
898.6647915611818
 31
0.0
  0
LINE
  5
99E
330
DB
100
AcDbEntity
  8
1
  6
Continuous
 62
     4
100
AcDbLine
 10
762.9225882738325
 20
819.4647915611826
 30
0.0
 11
759.3225882738326
 21
898.6647915611824
 31
0.0
  0
LINE
  5
99F
330
DB
100
AcDbEntity
  8
1
  6
Continuous
 62
     4
100
AcDbLine
 10
777.3225882738318
 20
819.4647915611826
 30
0.0
 11
773.7225882738322
 21
898.6647915611818
 31
0.0
  0
LINE
  5
9A0
330
DB
100
AcDbEntity
  8
1
  6
Continuous
 62
     4
100
AcDbLine
 10
791.7225882738319
 20
819.4647915611826
 30
0.0
 11
788.1225882738331
 21
898.6647915611824
 31
0.0
  0
LINE
  5
9F6
330
DB
100
AcDbEntity
  8
0
  6
Continuous
 62
     4
100
AcDbLine
 10
987.240724113789
 20
758.8556310018566
 30
0.0
 11
968.649884673117
 21
740.2647915611822
 31
0.0
1001
ACAD
1010
0.0
1020
0.0
1030
0.0
  0
LINE
  5
9F7
330
DB
100
AcDbEntity
  8
0
  6
Continuous
 62
     4
100
AcDbLine
 10
994.8774773506043
 20
758.8556310018566
 30
0.0
 11
976.2866379099316
 21
740.2647915611822
 31
0.0
1001
ACAD
1010
0.0
1020
0.0
1030
0.0
  0
LINE
  5
9F8
330
DB
100
AcDbEntity
  8
0
  6
Continuous
 62
     4
100
AcDbLine
 10
1002.514230587413
 20
758.8556310018566
 30
0.0
 11
983.9233911467463
 21
740.2647915611822
 31
0.0
1001
ACAD
1010
0.0
1020
0.0
1030
0.0
  0
LINE
  5
9F9
330
DB
100
AcDbEntity
  8
0
  6
Continuous
 62
     4
100
AcDbLine
 10
1010.150983824229
 20
758.8556310018566
 30
0.0
 11
991.5601443835603
 21
740.2647915611822
 31
0.0
1001
ACAD
1010
0.0
1020
0.0
1030
0.0
  0
LINE
  5
9FA
330
DB
100
AcDbEntity
  8
0
  6
Continuous
 62
     4
100
AcDbLine
 10
1017.787737061043
 20
758.8556310018566
 30
0.0
 11
999.1968976203732
 21
740.2647915611822
 31
0.0
1001
ACAD
1010
0.0
1020
0.0
1030
0.0
  0
LINE
  5
9FB
330
DB
100
AcDbEntity
  8
0
  6
Continuous
 62
     4
100
AcDbLine
 10
1025.424490297864
 20
758.8556310018566
 30
0.0
 11
1006.833650857191
 21
740.2647915611822
 31
0.0
1001
ACAD
1010
0.0
1020
0.0
1030
0.0
  0
LINE
  5
9FC
330
DB
100
AcDbEntity
  8
0
  6
Continuous
 62
     4
100
AcDbLine
 10
1033.061243534677
 20
758.8556310018566
 30
0.0
 11
1014.470404094003
 21
740.2647915611822
 31
0.0
1001
ACAD
1010
0.0
1020
0.0
1030
0.0
  0
LINE
  5
9FD
330
DB
100
AcDbEntity
  8
0
  6
Continuous
 62
     4
100
AcDbLine
 10
1040.697996771491
 20
758.8556310018566
 30
0.0
 11
1022.107157330818
 21
740.2647915611822
 31
0.0
1001
ACAD
1010
0.0
1020
0.0
1030
0.0
  0
LINE
  5
9FE
330
DB
100
AcDbEntity
  8
0
  6
Continuous
 62
     4
100
AcDbLine
 10
1048.334750008307
 20
758.8556310018566
 30
0.0
 11
1029.743910567636
 21
740.2647915611822
 31
0.0
1001
ACAD
1010
0.0
1020
0.0
1030
0.0
  0
LINE
  5
9FF
330
DB
100
AcDbEntity
  8
0
  6
Continuous
 62
     4
100
AcDbLine
 10
1055.971503245123
 20
758.8556310018566
 30
0.0
 11
1037.380663804448
 21
740.2647915611822
 31
0.0
1001
ACAD
1010
0.0
1020
0.0
1030
0.0
  0
LINE
  5
A00
330
DB
100
AcDbEntity
  8
0
  6
Continuous
 62
     4
100
AcDbLine
 10
1063.608256481937
 20
758.8556310018566
 30
0.0
 11
1045.017417041264
 21
740.2647915611822
 31
0.0
1001
ACAD
1010
0.0
1020
0.0
1030
0.0
  0
LINE
  5
A01
330
DB
100
AcDbEntity
  8
0
  6
Continuous
 62
     4
100
AcDbLine
 10
1071.245009718751
 20
758.8556310018566
 30
0.0
 11
1052.654170278079
 21
740.2647915611822
 31
0.0
1001
ACAD
1010
0.0
1020
0.0
1030
0.0
  0
LINE
  5
A02
330
DB
100
AcDbEntity
  8
0
  6
Continuous
 62
     4
100
AcDbLine
 10
1078.881762955566
 20
758.8556310018566
 30
0.0
 11
1060.29092351489
 21
740.2647915611827
 31
0.0
1001
ACAD
1010
0.0
1020
0.0
1030
0.0
  0
LINE
  5
A03
330
DB
100
AcDbEntity
  8
0
  6
Continuous
 62
     4
100
AcDbLine
 10
1086.518516192378
 20
758.8556310018566
 30
0.0
 11
1067.927676751704
 21
740.2647915611827
 31
0.0
1001
ACAD
1010
0.0
1020
0.0
1030
0.0
  0
LINE
  5
A04
330
DB
100
AcDbEntity
  8
0
  6
Continuous
 62
     4
100
AcDbLine
 10
1094.155269429198
 20
758.8556310018566
 30
0.0
 11
1075.564429988522
 21
740.2647915611827
 31
0.0
1001
ACAD
1010
0.0
1020
0.0
1030
0.0
  0
LINE
  5
A05
330
DB
100
AcDbEntity
  8
0
  6
Continuous
 62
     4
100
AcDbLine
 10
1101.792022666014
 20
758.8556310018566
 30
0.0
 11
1083.201183225336
 21
740.2647915611827
 31
0.0
1001
ACAD
1010
0.0
1020
0.0
1030
0.0
  0
LINE
  5
A06
330
DB
100
AcDbEntity
  8
0
  6
Continuous
 62
     4
100
AcDbLine
 10
1109.428775902828
 20
758.8556310018566
 30
0.0
 11
1090.837936462154
 21
740.2647915611827
 31
0.0
1001
ACAD
1010
0.0
1020
0.0
1030
0.0
  0
LINE
  5
A07
330
DB
100
AcDbEntity
  8
0
  6
Continuous
 62
     4
100
AcDbLine
 10
1117.065529139644
 20
758.8556310018566
 30
0.0
 11
1098.474689698968
 21
740.2647915611827
 31
0.0
1001
ACAD
1010
0.0
1020
0.0
1030
0.0
  0
LINE
  5
A08
330
DB
100
AcDbEntity
  8
0
  6
Continuous
 62
     4
100
AcDbLine
 10
1124.702282376456
 20
758.8556310018566
 30
0.0
 11
1106.111442935782
 21
740.2647915611827
 31
0.0
1001
ACAD
1010
0.0
1020
0.0
1030
0.0
  0
LINE
  5
A09
330
DB
100
AcDbEntity
  8
0
  6
Continuous
 62
     4
100
AcDbLine
 10
1132.339035613272
 20
758.8556310018566
 30
0.0
 11
1113.7481961726
 21
740.2647915611827
 31
0.0
1001
ACAD
1010
0.0
1020
0.0
1030
0.0
  0
LINE
  5
A0A
330
DB
100
AcDbEntity
  8
0
  6
Continuous
 62
     4
100
AcDbLine
 10
1139.97578885009
 20
758.8556310018566
 30
0.0
 11
1121.384949409415
 21
740.2647915611827
 31
0.0
1001
ACAD
1010
0.0
1020
0.0
1030
0.0
  0
LINE
  5
A0B
330
DB
100
AcDbEntity
  8
0
  6
Continuous
 62
     4
100
AcDbLine
 10
1147.612542086906
 20
758.8556310018566
 30
0.0
 11
1129.021702646231
 21
740.2647915611827
 31
0.0
1001
ACAD
1010
0.0
1020
0.0
1030
0.0
  0
LINE
  5
A0C
330
DB
100
AcDbEntity
  8
0
  6
Continuous
 62
     4
100
AcDbLine
 10
1155.24929532372
 20
758.8556310018566
 30
0.0
 11
1138.117097452032
 21
741.7234331301663
 31
0.0
1001
ACAD
1010
0.0
1020
0.0
1030
0.0
  0
LINE
  5
A0F
330
DB
100
AcDbEntity
  8
0
  6
Continuous
 62
     4
100
AcDbLine
 10
987.240724113789
 20
758.8556310018566
 30
0.0
 11
968.649884673117
 21
740.2647915611822
 31
0.0
1001
ACAD
1010
0.0
1020
0.0
1030
0.0
  0
LINE
  5
A10
330
DB
100
AcDbEntity
  8
0
  6
Continuous
 62
     4
100
AcDbLine
 10
918.5099449824573
 20
758.8556310018573
 30
0.0
 11
899.9191055417842
 21
740.2647915611827
 31
0.0
1001
ACAD
1010
0.0
1020
0.0
1030
0.0
  0
LINE
  5
A11
330
DB
100
AcDbEntity
  8
0
  6
Continuous
 62
     4
100
AcDbLine
 10
926.1466982192727
 20
758.8556310018573
 30
0.0
 11
907.5558587785993
 21
740.2647915611827
 31
0.0
1001
ACAD
1010
0.0
1020
0.0
1030
0.0
  0
LINE
  5
A12
330
DB
100
AcDbEntity
  8
0
  6
Continuous
 62
     4
100
AcDbLine
 10
933.7834514560874
 20
758.8556310018573
 30
0.0
 11
915.1926120154133
 21
740.2647915611827
 31
0.0
1001
ACAD
1010
0.0
1020
0.0
1030
0.0
  0
LINE
  5
A13
330
DB
100
AcDbEntity
  8
0
  6
Continuous
 62
     4
100
AcDbLine
 10
941.4202046929002
 20
758.8556310018573
 30
0.0
 11
922.8293652522287
 21
740.2647915611827
 31
0.0
1001
ACAD
1010
0.0
1020
0.0
1030
0.0
  0
LINE
  5
A14
330
DB
100
AcDbEntity
  8
0
  6
Continuous
 62
     4
100
AcDbLine
 10
949.0569579297163
 20
758.8556310018573
 30
0.0
 11
930.4661184890429
 21
740.2647915611827
 31
0.0
1001
ACAD
1010
0.0
1020
0.0
1030
0.0
  0
LINE
  5
A15
330
DB
100
AcDbEntity
  8
0
  6
Continuous
 62
     4
100
AcDbLine
 10
956.6937111665325
 20
758.8556310018573
 30
0.0
 11
938.1028717258571
 21
740.2647915611827
 31
0.0
1001
ACAD
1010
0.0
1020
0.0
1030
0.0
  0
LINE
  5
A16
330
DB
100
AcDbEntity
  8
0
  6
Continuous
 62
     4
100
AcDbLine
 10
964.3304644033463
 20
758.8556310018573
 30
0.0
 11
945.7396249626711
 21
740.2647915611827
 31
0.0
1001
ACAD
1010
0.0
1020
0.0
1030
0.0
  0
LINE
  5
A17
330
DB
100
AcDbEntity
  8
0
  6
Continuous
 62
     4
100
AcDbLine
 10
971.9672176401616
 20
758.8556310018573
 30
0.0
 11
953.3763781994872
 21
740.2647915611827
 31
0.0
1001
ACAD
1010
0.0
1020
0.0
1030
0.0
  0
LINE
  5
A18
330
DB
100
AcDbEntity
  8
0
  6
Continuous
 62
     4
100
AcDbLine
 10
979.6039708769756
 20
758.8556310018573
 30
0.0
 11
961.0131314363014
 21
740.2647915611827
 31
0.0
1001
ACAD
1010
0.0
1020
0.0
1030
0.0
  0
LINE
  5
A19
330
DB
100
AcDbEntity
  8
0
  6
Continuous
 62
     4
100
AcDbLine
 10
918.5099449824573
 20
758.8556310018573
 30
0.0
 11
899.9191055417842
 21
740.2647915611827
 31
0.0
1001
ACAD
1010
0.0
1020
0.0
1030
0.0
  0
LINE
  5
A1A
330
DB
100
AcDbEntity
  8
0
  6
Continuous
 62
     4
100
AcDbLine
 10
750.5013737725247
 20
758.8556310018573
 30
0.0
 11
734.8165613028422
 21
743.1708185321735
 31
0.0
1001
ACAD
1010
0.0
1020
0.0
1030
0.0
  0
LINE
  5
A1B
330
DB
100
AcDbEntity
  8
0
  6
Continuous
 62
     4
100
AcDbLine
 10
758.1381270093394
 20
758.8556310018573
 30
0.0
 11
745.8349379212489
 21
746.552441913766
 31
0.0
1001
ACAD
1010
0.0
1020
0.0
1030
0.0
  0
LINE
  5
A1C
330
DB
100
AcDbEntity
  8
0
  6
Continuous
 62
     4
100
AcDbLine
 10
765.7748802461542
 20
758.8556310018573
 30
0.0
 11
749.6533145396567
 21
742.7340652953582
 31
0.0
1001
ACAD
1010
0.0
1020
0.0
1030
0.0
  0
LINE
  5
A1D
330
DB
100
AcDbEntity
  8
0
  6
Continuous
 62
     4
100
AcDbLine
 10
773.4116334829693
 20
758.8556310018573
 30
0.0
 11
760.6716911580642
 21
746.1156886769514
 31
0.0
1001
ACAD
1010
0.0
1020
0.0
1030
0.0
  0
LINE
  5
A1E
330
DB
100
AcDbEntity
  8
0
  6
Continuous
 62
     4
100
AcDbLine
 10
781.0483867197838
 20
758.8556310018573
 30
0.0
 11
764.4900677764717
 21
742.2973120585441
 31
0.0
1001
ACAD
1010
0.0
1020
0.0
1030
0.0
  0
LINE
  5
A1F
330
DB
100
AcDbEntity
  8
0
  6
Continuous
 62
     4
100
AcDbLine
 10
788.6851399565994
 20
758.8556310018573
 30
0.0
 11
775.5084443948787
 21
745.6789354401362
 31
0.0
1001
ACAD
1010
0.0
1020
0.0
1030
0.0
  0
LINE
  5
A20
330
DB
100
AcDbEntity
  8
0
  6
Continuous
 62
     4
100
AcDbLine
 10
796.3218931934136
 20
758.8556310018573
 30
0.0
 11
779.3268210132869
 21
741.860558821729
 31
0.0
1001
ACAD
1010
0.0
1020
0.0
1030
0.0
  0
LINE
  5
A21
330
DB
100
AcDbEntity
  8
0
  6
Continuous
 62
     4
100
AcDbLine
 10
803.9586464302278
 20
758.8556310018573
 30
0.0
 11
790.3451976316932
 21
745.2421822033215
 31
0.0
1001
ACAD
1010
0.0
1020
0.0
1030
0.0
  0
LINE
  5
A22
330
DB
100
AcDbEntity
  8
0
  6
Continuous
 62
     4
100
AcDbLine
 10
811.5953996670434
 20
758.8556310018573
 30
0.0
 11
794.1635742501013
 21
741.4238055849136
 31
0.0
1001
ACAD
1010
0.0
1020
0.0
1030
0.0
  0
LINE
  5
A23
330
DB
100
AcDbEntity
  8
0
  6
Continuous
 62
     4
100
AcDbLine
 10
819.2321529038574
 20
758.8556310018573
 30
0.0
 11
805.1819508685088
 21
744.8054289665066
 31
0.0
1001
ACAD
1010
0.0
1020
0.0
1030
0.0
  0
LINE
  5
A24
330
DB
100
AcDbEntity
  8
0
  6
Continuous
 62
     4
100
AcDbLine
 10
826.8689061406723
 20
758.8556310018573
 30
0.0
 11
809.0003274869166
 21
740.9870523480996
 31
0.0
1001
ACAD
1010
0.0
1020
0.0
1030
0.0
  0
LINE
  5
A25
330
DB
100
AcDbEntity
  8
0
  6
Continuous
 62
     4
100
AcDbLine
 10
834.5056593774867
 20
758.8556310018573
 30
0.0
 11
815.9148199368141
 21
740.2647915611827
 31
0.0
1001
ACAD
1010
0.0
1020
0.0
1030
0.0
  0
LINE
  5
A26
330
DB
100
AcDbEntity
  8
0
  6
Continuous
 62
     4
100
AcDbLine
 10
842.1424126143021
 20
758.8556310018573
 30
0.0
 11
823.5515731736272
 21
740.2647915611827
 31
0.0
1001
ACAD
1010
0.0
1020
0.0
1030
0.0
  0
LINE
  5
A27
330
DB
100
AcDbEntity
  8
0
  6
Continuous
 62
     4
100
AcDbLine
 10
849.779165851117
 20
758.8556310018573
 30
0.0
 11
831.1883264104416
 21
740.2647915611827
 31
0.0
1001
ACAD
1010
0.0
1020
0.0
1030
0.0
  0
LINE
  5
A28
330
DB
100
AcDbEntity
  8
0
  6
Continuous
 62
     4
100
AcDbLine
 10
857.4159190879326
 20
758.8556310018573
 30
0.0
 11
838.8250796472579
 21
740.2647915611827
 31
0.0
1001
ACAD
1010
0.0
1020
0.0
1030
0.0
  0
LINE
  5
A29
330
DB
100
AcDbEntity
  8
0
  6
Continuous
 62
     4
100
AcDbLine
 10
865.0526723247482
 20
758.8556310018573
 30
0.0
 11
846.4618328840735
 21
740.2647915611827
 31
0.0
1001
ACAD
1010
0.0
1020
0.0
1030
0.0
  0
LINE
  5
A2A
330
DB
100
AcDbEntity
  8
0
  6
Continuous
 62
     4
100
AcDbLine
 10
872.6894255615635
 20
758.8556310018573
 30
0.0
 11
854.0985861208891
 21
740.2647915611827
 31
0.0
1001
ACAD
1010
0.0
1020
0.0
1030
0.0
  0
LINE
  5
A2B
330
DB
100
AcDbEntity
  8
0
  6
Continuous
 62
     4
100
AcDbLine
 10
880.3261787983807
 20
758.8556310018573
 30
0.0
 11
861.7353393577044
 21
740.2647915611827
 31
0.0
1001
ACAD
1010
0.0
1020
0.0
1030
0.0
  0
LINE
  5
A2C
330
DB
100
AcDbEntity
  8
0
  6
Continuous
 62
     4
100
AcDbLine
 10
887.962932035195
 20
758.8556310018573
 30
0.0
 11
869.3720925945196
 21
740.2647915611827
 31
0.0
1001
ACAD
1010
0.0
1020
0.0
1030
0.0
  0
LINE
  5
A2D
330
DB
100
AcDbEntity
  8
0
  6
Continuous
 62
     4
100
AcDbLine
 10
895.5996852720108
 20
758.8556310018573
 30
0.0
 11
877.0088458313365
 21
740.2647915611827
 31
0.0
1001
ACAD
1010
0.0
1020
0.0
1030
0.0
  0
LINE
  5
A2E
330
DB
100
AcDbEntity
  8
0
  6
Continuous
 62
     4
100
AcDbLine
 10
903.2364385088278
 20
758.8556310018573
 30
0.0
 11
884.6455990681509
 21
740.2647915611827
 31
0.0
1001
ACAD
1010
0.0
1020
0.0
1030
0.0
  0
LINE
  5
A2F
330
DB
100
AcDbEntity
  8
0
  6
Continuous
 62
     4
100
AcDbLine
 10
910.8731917456417
 20
758.8556310018573
 30
0.0
 11
892.2823523049666
 21
740.2647915611827
 31
0.0
1001
ACAD
1010
0.0
1020
0.0
1030
0.0
  0
LINE
  5
A30
330
DB
100
AcDbEntity
  8
0
  6
Continuous
 62
     4
100
AcDbLine
 10
918.5099449824573
 20
758.8556310018573
 30
0.0
 11
901.3777471107673
 21
741.7234331301663
 31
0.0
1001
ACAD
1010
0.0
1020
0.0
1030
0.0
  0
LINE
  5
A31
330
DB
100
AcDbEntity
  8
0
  6
Continuous
 62
     4
100
AcDbLine
 10
750.5013737725247
 20
758.8556310018573
 30
0.0
 11
734.8165613028422
 21
743.1708185321735
 31
0.0
1001
ACAD
1010
0.0
1020
0.0
1030
0.0
  0
LINE
  5
A36
330
DB
100
AcDbEntity
  8
0
  6
Continuous
 62
     4
100
AcDbLine
 10
681.7705946411855
 20
758.8556310018573
 30
0.0
 11
680.1225882738326
 21
757.207624634504
 31
0.0
1001
ACAD
1010
0.0
1020
0.0
1030
0.0
  0
LINE
  5
A37
330
DB
100
AcDbEntity
  8
0
  6
Continuous
 62
     4
100
AcDbLine
 10
689.4073478780001
 20
758.8556310018573
 30
0.0
 11
680.1225882738326
 21
749.5708713976895
 31
0.0
1001
ACAD
1010
0.0
1020
0.0
1030
0.0
  0
LINE
  5
A38
330
DB
100
AcDbEntity
  8
0
  6
Continuous
 62
     4
100
AcDbLine
 10
697.0441011148157
 20
758.8556310018573
 30
0.0
 11
680.1225882738326
 21
741.9341181608749
 31
0.0
1001
ACAD
1010
0.0
1020
0.0
1030
0.0
  0
LINE
  5
A39
330
DB
100
AcDbEntity
  8
0
  6
Continuous
 62
     4
100
AcDbLine
 10
704.6808543516307
 20
758.8556310018573
 30
0.0
 11
690.3063015923942
 21
744.4810782426213
 31
0.0
1001
ACAD
1010
0.0
1020
0.0
1030
0.0
  0
LINE
  5
A3A
330
DB
100
AcDbEntity
  8
0
  6
Continuous
 62
     4
100
AcDbLine
 10
712.3176075884467
 20
758.8556310018573
 30
0.0
 11
693.726768147772
 21
740.2647915611827
 31
0.0
1001
ACAD
1010
0.0
1020
0.0
1030
0.0
  0
LINE
  5
A3B
330
DB
100
AcDbEntity
  8
0
  6
Continuous
 62
     4
100
AcDbLine
 10
719.9543608252625
 20
758.8556310018573
 30
0.0
 11
705.1430548292102
 21
744.0443250058052
 31
0.0
1001
ACAD
1010
0.0
1020
0.0
1030
0.0
  0
LINE
  5
A3C
330
DB
100
AcDbEntity
  8
0
  6
Continuous
 62
     4
100
AcDbLine
 10
727.5911140620779
 20
758.8556310018573
 30
0.0
 11
709.0002746214032
 21
740.2647915611827
 31
0.0
1001
ACAD
1010
0.0
1020
0.0
1030
0.0
  0
LINE
  5
A3D
330
DB
100
AcDbEntity
  8
0
  6
Continuous
 62
     4
100
AcDbLine
 10
735.2278672988934
 20
758.8556310018573
 30
0.0
 11
719.9798080660257
 21
743.6075717689902
 31
0.0
1001
ACAD
1010
0.0
1020
0.0
1030
0.0
  0
LINE
  5
A3E
330
DB
100
AcDbEntity
  8
0
  6
Continuous
 62
     4
100
AcDbLine
 10
742.864620535709
 20
758.8556310018573
 30
0.0
 11
730.9981846844342
 21
746.989195150581
 31
0.0
1001
ACAD
1010
0.0
1020
0.0
1030
0.0
  0
LINE
  5
A3F
330
DB
100
AcDbEntity
  8
1
  6
Continuous
 62
     4
100
AcDbLine
 10
1281.733882541996
 20
377.4427177154997
 30
0.0
 11
1278.133882541997
 21
456.6427177154997
 31
0.0
  0
LINE
  5
A40
330
DB
100
AcDbEntity
  8
1
  6
Continuous
 62
     4
100
AcDbLine
 10
1296.133882541997
 20
377.4427177154997
 30
0.0
 11
1292.533882541994
 21
456.6427177154988
 31
0.0
  0
LINE
  5
A41
330
DB
100
AcDbEntity
  8
1
  6
Continuous
 62
     4
100
AcDbLine
 10
1310.533882541998
 20
377.4427177154997
 30
0.0
 11
1306.933882541997
 21
456.6427177154997
 31
0.0
  0
LINE
  5
A42
330
DB
100
AcDbEntity
  8
1
  6
Continuous
 62
     4
100
AcDbLine
 10
1324.933882541997
 20
377.4427177154997
 30
0.0
 11
1321.333882541996
 21
456.6427177154997
 31
0.0
  0
LINE
  5
A43
330
DB
100
AcDbEntity
  8
1
  6
Continuous
 62
     4
100
AcDbLine
 10
1339.333882541993
 20
377.4427177154997
 30
0.0
 11
1335.733882541996
 21
456.6427177154988
 31
0.0
  0
LINE
  5
A44
330
DB
100
AcDbEntity
  8
1
  6
Continuous
 62
     4
100
AcDbLine
 10
1353.733882541998
 20
377.4427177154997
 30
0.0
 11
1350.133882541997
 21
456.6427177154997
 31
0.0
  0
LINE
  5
A45
330
DB
100
AcDbEntity
  8
1
  6
Continuous
 62
     4
100
AcDbLine
 10
1368.133882541997
 20
377.4427177154997
 30
0.0
 11
1364.533882541995
 21
456.6427177154988
 31
0.0
  0
LINE
  5
A46
330
DB
100
AcDbEntity
  8
1
  6
Continuous
 62
     4
100
AcDbLine
 10
1382.533882541995
 20
377.4427177154997
 30
0.0
 11
1378.933882541995
 21
456.6427177154997
 31
0.0
  0
LINE
  5
A4E
330
DB
100
AcDbEntity
  8
0
  6
Continuous
 62
     4
100
AcDbLine
 10
1258.456140292472
 20
316.8335571561732
 30
0.0
 11
1239.865300851799
 21
298.242717715499
 31
0.0
1001
ACAD
1010
0.0
1020
0.0
1030
0.0
  0
LINE
  5
A4F
330
DB
100
AcDbEntity
  8
0
  6
Continuous
 62
     4
100
AcDbLine
 10
1266.092893529287
 20
316.8335571561732
 30
0.0
 11
1247.502054088615
 21
298.242717715499
 31
0.0
1001
ACAD
1010
0.0
1020
0.0
1030
0.0
  0
LINE
  5
A50
330
DB
100
AcDbEntity
  8
0
  6
Continuous
 62
     4
100
AcDbLine
 10
1273.729646766103
 20
316.8335571561732
 30
0.0
 11
1255.138807325429
 21
298.242717715499
 31
0.0
1001
ACAD
1010
0.0
1020
0.0
1030
0.0
  0
LINE
  5
A51
330
DB
100
AcDbEntity
  8
0
  6
Continuous
 62
     4
100
AcDbLine
 10
1281.366400002917
 20
316.8335571561732
 30
0.0
 11
1262.775560562243
 21
298.242717715499
 31
0.0
1001
ACAD
1010
0.0
1020
0.0
1030
0.0
  0
LINE
  5
A52
330
DB
100
AcDbEntity
  8
0
  6
Continuous
 62
     4
100
AcDbLine
 10
1289.003153239731
 20
316.8335571561732
 30
0.0
 11
1270.412313799058
 21
298.242717715499
 31
0.0
1001
ACAD
1010
0.0
1020
0.0
1030
0.0
  0
LINE
  5
A53
330
DB
100
AcDbEntity
  8
0
  6
Continuous
 62
     4
100
AcDbLine
 10
1296.639906476547
 20
316.8335571561732
 30
0.0
 11
1281.691474788936
 21
301.8851254685613
 31
0.0
1001
ACAD
1010
0.0
1020
0.0
1030
0.0
  0
LINE
  5
A54
330
DB
100
AcDbEntity
  8
0
  6
Continuous
 62
     4
100
AcDbLine
 10
1304.276659713361
 20
316.8335571561732
 30
0.0
 11
1292.709851407342
 21
305.2667488501541
 31
0.0
1001
ACAD
1010
0.0
1020
0.0
1030
0.0
  0
LINE
  5
A55
330
DB
100
AcDbEntity
  8
0
  6
Continuous
 62
     4
100
AcDbLine
 10
1311.913412950178
 20
316.8335571561732
 30
0.0
 11
1296.528228025747
 21
301.4483722317458
 31
0.0
1001
ACAD
1010
0.0
1020
0.0
1030
0.0
  0
LINE
  5
A56
330
DB
100
AcDbEntity
  8
0
  6
Continuous
 62
     4
100
AcDbLine
 10
1319.550166186992
 20
316.8335571561732
 30
0.0
 11
1307.546604644156
 21
304.8299956133381
 31
0.0
1001
ACAD
1010
0.0
1020
0.0
1030
0.0
  0
LINE
  5
A57
330
DB
100
AcDbEntity
  8
0
  6
Continuous
 62
     4
100
AcDbLine
 10
1327.186919423809
 20
316.8335571561732
 30
0.0
 11
1311.364981262564
 21
301.0116189949301
 31
0.0
1001
ACAD
1010
0.0
1020
0.0
1030
0.0
  0
LINE
  5
A58
330
DB
100
AcDbEntity
  8
0
  6
Continuous
 62
     4
100
AcDbLine
 10
1334.823672660623
 20
316.8335571561732
 30
0.0
 11
1322.383357880974
 21
304.3932423765223
 31
0.0
1001
ACAD
1010
0.0
1020
0.0
1030
0.0
  0
LINE
  5
A59
330
DB
100
AcDbEntity
  8
0
  6
Continuous
 62
     4
100
AcDbLine
 10
1342.460425897441
 20
316.8335571561732
 30
0.0
 11
1326.20173449938
 21
300.574865758115
 31
0.0
1001
ACAD
1010
0.0
1020
0.0
1030
0.0
  0
LINE
  5
A5A
330
DB
100
AcDbEntity
  8
0
  6
Continuous
 62
     4
100
AcDbLine
 10
1350.097179134255
 20
316.8335571561732
 30
0.0
 11
1337.220111117787
 21
303.956489139707
 31
0.0
1001
ACAD
1010
0.0
1020
0.0
1030
0.0
  0
LINE
  5
A5B
330
DB
100
AcDbEntity
  8
0
  6
Continuous
 62
     4
100
AcDbLine
 10
1357.733932371067
 20
316.8335571561732
 30
0.0
 11
1341.038487736194
 21
300.1381125212996
 31
0.0
1001
ACAD
1010
0.0
1020
0.0
1030
0.0
  0
LINE
  5
A5C
330
DB
100
AcDbEntity
  8
0
  6
Continuous
 62
     4
100
AcDbLine
 10
1365.370685607884
 20
316.8335571561732
 30
0.0
 11
1352.056864354604
 21
303.5197359028908
 31
0.0
1001
ACAD
1010
0.0
1020
0.0
1030
0.0
  0
LINE
  5
A5D
330
DB
100
AcDbEntity
  8
0
  6
Continuous
 62
     4
100
AcDbLine
 10
1373.007438844703
 20
316.8335571561732
 30
0.0
 11
1355.875240973011
 21
299.7013592844833
 31
0.0
1001
ACAD
1010
0.0
1020
0.0
1030
0.0
  0
LINE
  5
A5E
330
DB
100
AcDbEntity
  8
0
  6
Continuous
 62
     4
100
AcDbLine
 10
1380.644192081518
 20
316.8335571561732
 30
0.0
 11
1366.89361759142
 21
303.082982666076
 31
0.0
1001
ACAD
1010
0.0
1020
0.0
1030
0.0
  0
LINE
  5
A5F
330
DB
100
AcDbEntity
  8
0
  6
Continuous
 62
     4
100
AcDbLine
 10
1386.133882541995
 20
314.6864943798354
 30
0.0
 11
1370.711994209828
 21
299.2646060476681
 31
0.0
1001
ACAD
1010
0.0
1020
0.0
1030
0.0
  0
LINE
  5
A60
330
DB
100
AcDbEntity
  8
0
  6
Continuous
 62
     4
100
AcDbLine
 10
1386.133882541995
 20
307.04974114302
 30
0.0
 11
1381.730370828236
 21
302.6462294292601
 31
0.0
1001
ACAD
1010
0.0
1020
0.0
1030
0.0
  0
LINE
  5
AA6
330
DB
100
AcDbEntity
  8
1
  6
Continuous
 62
     4
100
AcDbLine
 10
1069.052549767924
 20
377.4427177154993
 30
0.0
 11
1065.452549767923
 21
456.6427177154992
 31
0.0
  0
LINE
  5
AA7
330
DB
100
AcDbEntity
  8
1
  6
Continuous
 62
     4
100
AcDbLine
 10
1083.452549767925
 20
377.4427177154993
 30
0.0
 11
1079.852549767922
 21
456.6427177154988
 31
0.0
  0
LINE
  5
AA8
330
DB
100
AcDbEntity
  8
1
  6
Continuous
 62
     4
100
AcDbLine
 10
1097.852549767924
 20
377.4427177154993
 30
0.0
 11
1094.252549767923
 21
456.6427177154992
 31
0.0
  0
LINE
  5
AA9
330
DB
100
AcDbEntity
  8
1
  6
Continuous
 62
     4
100
AcDbLine
 10
1112.252549767924
 20
377.4427177154993
 30
0.0
 11
1108.652549767922
 21
456.6427177154992
 31
0.0
  0
LINE
  5
AAA
330
DB
100
AcDbEntity
  8
1
  6
Continuous
 62
     4
100
AcDbLine
 10
1126.652549767922
 20
377.4427177154993
 30
0.0
 11
1123.052549767925
 21
456.6427177154988
 31
0.0
  0
LINE
  5
AAB
330
DB
100
AcDbEntity
  8
1
  6
Continuous
 62
     4
100
AcDbLine
 10
1141.052549767926
 20
377.4427177154993
 30
0.0
 11
1137.452549767923
 21
456.6427177154992
 31
0.0
  0
LINE
  5
AAC
330
DB
100
AcDbEntity
  8
1
  6
Continuous
 62
     4
100
AcDbLine
 10
1155.452549767923
 20
377.4427177154993
 30
0.0
 11
1151.852549767924
 21
456.6427177154988
 31
0.0
  0
LINE
  5
AAD
330
DB
100
AcDbEntity
  8
1
  6
Continuous
 62
     4
100
AcDbLine
 10
1169.852549767922
 20
377.4427177154993
 30
0.0
 11
1166.252549767927
 21
456.6427177154992
 31
0.0
  0
LINE
  5
AFD
330
DB
100
AcDbEntity
  8
0
  6
Continuous
 62
     4
100
AcDbLine
 10
1128.631335266616
 20
316.8335571561728
 30
0.0
 11
1112.946522796935
 21
301.1487446864901
 31
0.0
1001
ACAD
1010
0.0
1020
0.0
1030
0.0
  0
LINE
  5
AFE
330
DB
100
AcDbEntity
  8
0
  6
Continuous
 62
     4
100
AcDbLine
 10
1136.268088503432
 20
316.8335571561728
 30
0.0
 11
1123.964899415341
 21
304.5303680680826
 31
0.0
1001
ACAD
1010
0.0
1020
0.0
1030
0.0
  0
LINE
  5
AFF
330
DB
100
AcDbEntity
  8
0
  6
Continuous
 62
     4
100
AcDbLine
 10
1143.904841740245
 20
316.8335571561728
 30
0.0
 11
1127.78327603375
 21
300.7119914496746
 31
0.0
1001
ACAD
1010
0.0
1020
0.0
1030
0.0
  0
LINE
  5
B00
330
DB
100
AcDbEntity
  8
0
  6
Continuous
 62
     4
100
AcDbLine
 10
1151.541594977061
 20
316.8335571561728
 30
0.0
 11
1138.801652652156
 21
304.0936148312675
 31
0.0
1001
ACAD
1010
0.0
1020
0.0
1030
0.0
  0
LINE
  5
B01
330
DB
100
AcDbEntity
  8
0
  6
Continuous
 62
     4
100
AcDbLine
 10
1159.178348213875
 20
316.8335571561728
 30
0.0
 11
1142.620029270563
 21
300.2752382128603
 31
0.0
1001
ACAD
1010
0.0
1020
0.0
1030
0.0
  0
LINE
  5
B02
330
DB
100
AcDbEntity
  8
0
  6
Continuous
 62
     4
100
AcDbLine
 10
1166.815101450691
 20
316.8335571561728
 30
0.0
 11
1153.638405888969
 21
303.6568615944528
 31
0.0
1001
ACAD
1010
0.0
1020
0.0
1030
0.0
  0
LINE
  5
B03
330
DB
100
AcDbEntity
  8
0
  6
Continuous
 62
     4
100
AcDbLine
 10
1174.451854687505
 20
316.8335571561728
 30
0.0
 11
1157.456782507378
 21
299.8384849760455
 31
0.0
1001
ACAD
1010
0.0
1020
0.0
1030
0.0
  0
LINE
  5
B04
330
DB
100
AcDbEntity
  8
0
  6
Continuous
 62
     4
100
AcDbLine
 10
1182.088607924318
 20
316.8335571561728
 30
0.0
 11
1168.475159125787
 21
303.2201083576381
 31
0.0
1001
ACAD
1010
0.0
1020
0.0
1030
0.0
  0
LINE
  5
B05
330
DB
100
AcDbEntity
  8
0
  6
Continuous
 62
     4
100
AcDbLine
 10
1189.725361161136
 20
316.8335571561728
 30
0.0
 11
1172.293535744194
 21
299.4017317392303
 31
0.0
1001
ACAD
1010
0.0
1020
0.0
1030
0.0
  0
LINE
  5
B06
330
DB
100
AcDbEntity
  8
0
  6
Continuous
 62
     4
100
AcDbLine
 10
1197.36211439795
 20
316.8335571561728
 30
0.0
 11
1183.311912362601
 21
302.7833551208233
 31
0.0
1001
ACAD
1010
0.0
1020
0.0
1030
0.0
  0
LINE
  5
B07
330
DB
100
AcDbEntity
  8
0
  6
Continuous
 62
     4
100
AcDbLine
 10
1204.998867634765
 20
316.8335571561728
 30
0.0
 11
1187.130288981008
 21
298.9649785024156
 31
0.0
1001
ACAD
1010
0.0
1020
0.0
1030
0.0
  0
LINE
  5
B08
330
DB
100
AcDbEntity
  8
0
  6
Continuous
 62
     4
100
AcDbLine
 10
1212.63562087158
 20
316.8335571561728
 30
0.0
 11
1194.044781430902
 21
298.242717715499
 31
0.0
1001
ACAD
1010
0.0
1020
0.0
1030
0.0
  0
LINE
  5
B09
330
DB
100
AcDbEntity
  8
0
  6
Continuous
 62
     4
100
AcDbLine
 10
1220.272374108393
 20
316.8335571561728
 30
0.0
 11
1201.681534667716
 21
298.2427177154994
 31
0.0
1001
ACAD
1010
0.0
1020
0.0
1030
0.0
  0
LINE
  5
B0A
330
DB
100
AcDbEntity
  8
0
  6
Continuous
 62
     4
100
AcDbLine
 10
1227.909127345211
 20
316.8335571561728
 30
0.0
 11
1209.318287904534
 21
298.2427177154994
 31
0.0
1001
ACAD
1010
0.0
1020
0.0
1030
0.0
  0
LINE
  5
B0B
330
DB
100
AcDbEntity
  8
0
  6
Continuous
 62
     4
100
AcDbLine
 10
1235.545880582026
 20
316.8335571561728
 30
0.0
 11
1216.955041141349
 21
298.2427177154994
 31
0.0
1001
ACAD
1010
0.0
1020
0.0
1030
0.0
  0
LINE
  5
B0C
330
DB
100
AcDbEntity
  8
0
  6
Continuous
 62
     4
100
AcDbLine
 10
1243.18263381884
 20
316.8335571561728
 30
0.0
 11
1224.591794378166
 21
298.2427177154994
 31
0.0
1001
ACAD
1010
0.0
1020
0.0
1030
0.0
  0
LINE
  5
B0D
330
DB
100
AcDbEntity
  8
0
  6
Continuous
 62
     4
100
AcDbLine
 10
1250.819387055656
 20
316.8335571561728
 30
0.0
 11
1232.228547614981
 21
298.2427177154994
 31
0.0
1001
ACAD
1010
0.0
1020
0.0
1030
0.0
  0
LINE
  5
B0E
330
DB
100
AcDbEntity
  8
0
  6
Continuous
 62
     4
100
AcDbLine
 10
1258.456140292472
 20
316.8335571561728
 30
0.0
 11
1239.865300851795
 21
298.2427177154994
 31
0.0
1001
ACAD
1010
0.0
1020
0.0
1030
0.0
  0
LINE
  5
B14
330
DB
100
AcDbEntity
  8
0
  6
Continuous
 62
     4
100
AcDbLine
 10
1128.631335266616
 20
316.8335571561728
 30
0.0
 11
1112.946522796935
 21
301.1487446864898
 31
0.0
1001
ACAD
1010
0.0
1020
0.0
1030
0.0
  0
LINE
  5
B15
330
DB
100
AcDbEntity
  8
0
  6
Continuous
 62
     4
100
AcDbLine
 10
1059.900556135278
 20
316.8335571561732
 30
0.0
 11
1058.252549767921
 21
315.1855507888203
 31
0.0
1001
ACAD
1010
0.0
1020
0.0
1030
0.0
  0
LINE
  5
B16
330
DB
100
AcDbEntity
  8
0
  6
Continuous
 62
     4
100
AcDbLine
 10
1067.537309372092
 20
316.8335571561732
 30
0.0
 11
1058.252549767921
 21
307.5487975520057
 31
0.0
1001
ACAD
1010
0.0
1020
0.0
1030
0.0
  0
LINE
  5
B17
330
DB
100
AcDbEntity
  8
0
  6
Continuous
 62
     4
100
AcDbLine
 10
1075.174062608905
 20
316.8335571561732
 30
0.0
 11
1058.252549767921
 21
299.9120443151911
 31
0.0
1001
ACAD
1010
0.0
1020
0.0
1030
0.0
  0
LINE
  5
B18
330
DB
100
AcDbEntity
  8
0
  6
Continuous
 62
     4
100
AcDbLine
 10
1082.810815845722
 20
316.8335571561732
 30
0.0
 11
1068.436263086484
 21
302.4590043969376
 31
0.0
1001
ACAD
1010
0.0
1020
0.0
1030
0.0
  0
LINE
  5
B19
330
DB
100
AcDbEntity
  8
0
  6
Continuous
 62
     4
100
AcDbLine
 10
1090.447569082539
 20
316.8335571561732
 30
0.0
 11
1071.856729641863
 21
298.2427177154996
 31
0.0
1001
ACAD
1010
0.0
1020
0.0
1030
0.0
  0
LINE
  5
B1A
330
DB
100
AcDbEntity
  8
0
  6
Continuous
 62
     4
100
AcDbLine
 10
1098.084322319355
 20
316.8335571561732
 30
0.0
 11
1083.273016323299
 21
302.0222511601216
 31
0.0
1001
ACAD
1010
0.0
1020
0.0
1030
0.0
  0
LINE
  5
B1B
330
DB
100
AcDbEntity
  8
0
  6
Continuous
 62
     4
100
AcDbLine
 10
1105.721075556169
 20
316.8335571561732
 30
0.0
 11
1087.130236115495
 21
298.2427177154994
 31
0.0
1001
ACAD
1010
0.0
1020
0.0
1030
0.0
  0
LINE
  5
B1C
330
DB
100
AcDbEntity
  8
0
  6
Continuous
 62
     4
100
AcDbLine
 10
1113.357828792986
 20
316.8335571561732
 30
0.0
 11
1098.109769560114
 21
301.5854979233064
 31
0.0
1001
ACAD
1010
0.0
1020
0.0
1030
0.0
  0
LINE
  5
B1D
330
DB
100
AcDbEntity
  8
0
  6
Continuous
 62
     4
100
AcDbLine
 10
1120.994582029797
 20
316.8335571561732
 30
0.0
 11
1109.128146178526
 21
304.9671213048981
 31
0.0
1001
ACAD
1010
0.0
1020
0.0
1030
0.0
  0
LINE
  5
B1E
330
DB
100
AcDbEntity
  8
1
  6
Continuous
 62
     4
100
AcDbLine
 10
789.8001159361604
 20
377.4427177154997
 30
0.0
 11
786.2001159361597
 21
456.6427177154997
 31
0.0
  0
LINE
  5
B1F
330
DB
100
AcDbEntity
  8
1
  6
Continuous
 62
     4
100
AcDbLine
 10
804.2001159361598
 20
377.4427177154997
 30
0.0
 11
800.6001159361606
 21
456.6427177154988
 31
0.0
  0
LINE
  5
B20
330
DB
100
AcDbEntity
  8
1
  6
Continuous
 62
     4
100
AcDbLine
 10
818.6001159361598
 20
377.4427177154997
 30
0.0
 11
815.00011593616
 21
456.6427177154997
 31
0.0
  0
LINE
  5
B21
330
DB
100
AcDbEntity
  8
1
  6
Continuous
 62
     4
100
AcDbLine
 10
833.00011593616
 20
377.4427177154997
 30
0.0
 11
829.4001159361599
 21
456.6427177154997
 31
0.0
  0
LINE
  5
B22
330
DB
100
AcDbEntity
  8
1
  6
Continuous
 62
     4
100
AcDbLine
 10
847.4001159361598
 20
377.4427177154997
 30
0.0
 11
843.8001159361599
 21
456.6427177154988
 31
0.0
  0
LINE
  5
B23
330
DB
100
AcDbEntity
  8
1
  6
Continuous
 62
     4
100
AcDbLine
 10
861.8001159361599
 20
377.4427177154997
 30
0.0
 11
858.2001159361597
 21
456.6427177154997
 31
0.0
  0
LINE
  5
B24
330
DB
100
AcDbEntity
  8
1
  6
Continuous
 62
     4
100
AcDbLine
 10
876.2001159361599
 20
377.4427177154997
 30
0.0
 11
872.6001159361597
 21
456.6427177154988
 31
0.0
  0
LINE
  5
B25
330
DB
100
AcDbEntity
  8
1
  6
Continuous
 62
     4
100
AcDbLine
 10
890.6001159361601
 20
377.4427177154997
 30
0.0
 11
887.0001159361597
 21
456.6427177154997
 31
0.0
  0
LINE
  5
B2B
330
DB
100
AcDbEntity
  8
0
  6
Continuous
 62
     4
100
AcDbLine
 10
804.7061398707104
 20
316.8335571561732
 30
0.0
 11
789.7577081830989
 21
301.8851254685613
 31
0.0
1001
ACAD
1010
0.0
1020
0.0
1030
0.0
  0
LINE
  5
B2C
330
DB
100
AcDbEntity
  8
0
  6
Continuous
 62
     4
100
AcDbLine
 10
812.3428931075263
 20
316.8335571561732
 30
0.0
 11
800.776084801506
 21
305.2667488501541
 31
0.0
1001
ACAD
1010
0.0
1020
0.0
1030
0.0
  0
LINE
  5
B2D
330
DB
100
AcDbEntity
  8
0
  6
Continuous
 62
     4
100
AcDbLine
 10
819.9796463443417
 20
316.8335571561732
 30
0.0
 11
804.5944614199138
 21
301.4483722317458
 31
0.0
1001
ACAD
1010
0.0
1020
0.0
1030
0.0
  0
LINE
  5
B2E
330
DB
100
AcDbEntity
  8
0
  6
Continuous
 62
     4
100
AcDbLine
 10
827.6163995811581
 20
316.8335571561732
 30
0.0
 11
815.6128380383215
 21
304.8299956133381
 31
0.0
1001
ACAD
1010
0.0
1020
0.0
1030
0.0
  0
LINE
  5
B2F
330
DB
100
AcDbEntity
  8
0
  6
Continuous
 62
     4
100
AcDbLine
 10
835.253152817973
 20
316.8335571561732
 30
0.0
 11
819.4312146567293
 21
301.0116189949301
 31
0.0
1001
ACAD
1010
0.0
1020
0.0
1030
0.0
  0
LINE
  5
B30
330
DB
100
AcDbEntity
  8
0
  6
Continuous
 62
     4
100
AcDbLine
 10
842.8899060547887
 20
316.8335571561732
 30
0.0
 11
830.4495912751367
 21
304.3932423765223
 31
0.0
1001
ACAD
1010
0.0
1020
0.0
1030
0.0
  0
LINE
  5
B31
330
DB
100
AcDbEntity
  8
0
  6
Continuous
 62
     4
100
AcDbLine
 10
850.526659291604
 20
316.8335571561732
 30
0.0
 11
834.267967893545
 21
300.574865758115
 31
0.0
1001
ACAD
1010
0.0
1020
0.0
1030
0.0
  0
LINE
  5
B32
330
DB
100
AcDbEntity
  8
0
  6
Continuous
 62
     4
100
AcDbLine
 10
858.1634125284203
 20
316.8335571561732
 30
0.0
 11
845.2863445119529
 21
303.956489139707
 31
0.0
1001
ACAD
1010
0.0
1020
0.0
1030
0.0
  0
LINE
  5
B33
330
DB
100
AcDbEntity
  8
0
  6
Continuous
 62
     4
100
AcDbLine
 10
865.8001657652356
 20
316.8335571561732
 30
0.0
 11
849.1047211303603
 21
300.1381125212996
 31
0.0
1001
ACAD
1010
0.0
1020
0.0
1030
0.0
  0
LINE
  5
B34
330
DB
100
AcDbEntity
  8
0
  6
Continuous
 62
     4
100
AcDbLine
 10
873.4369190020515
 20
316.8335571561732
 30
0.0
 11
860.1230977487681
 21
303.5197359028908
 31
0.0
1001
ACAD
1010
0.0
1020
0.0
1030
0.0
  0
LINE
  5
B35
330
DB
100
AcDbEntity
  8
0
  6
Continuous
 62
     4
100
AcDbLine
 10
881.0736722388664
 20
316.8335571561732
 30
0.0
 11
863.9414743671764
 21
299.7013592844833
 31
0.0
1001
ACAD
1010
0.0
1020
0.0
1030
0.0
  0
LINE
  5
B36
330
DB
100
AcDbEntity
  8
0
  6
Continuous
 62
     4
100
AcDbLine
 10
888.7104254756826
 20
316.8335571561732
 30
0.0
 11
874.9598509855841
 21
303.082982666076
 31
0.0
1001
ACAD
1010
0.0
1020
0.0
1030
0.0
  0
LINE
  5
B37
330
DB
100
AcDbEntity
  8
0
  6
Continuous
 62
     4
100
AcDbLine
 10
894.2001159361598
 20
314.6864943798354
 30
0.0
 11
878.7782276039926
 21
299.2646060476681
 31
0.0
1001
ACAD
1010
0.0
1020
0.0
1030
0.0
  0
LINE
  5
B38
330
DB
100
AcDbEntity
  8
0
  6
Continuous
 62
     4
100
AcDbLine
 10
894.2001159361598
 20
307.04974114302
 30
0.0
 11
889.7966042223997
 21
302.6462294292601
 31
0.0
1001
ACAD
1010
0.0
1020
0.0
1030
0.0
  0
LINE
  5
B67
330
DB
100
AcDbEntity
  8
1
  6
Continuous
 62
     4
100
AcDbLine
 10
660.2001159361602
 20
377.4427177154997
 30
0.0
 11
656.6001159361599
 21
456.6427177154997
 31
0.0
  0
LINE
  5
B68
330
DB
100
AcDbEntity
  8
1
  6
Continuous
 62
     4
100
AcDbLine
 10
674.6001159361599
 20
377.4427177154997
 30
0.0
 11
671.00011593616
 21
456.6427177154988
 31
0.0
  0
LINE
  5
B69
330
DB
100
AcDbEntity
  8
1
  6
Continuous
 62
     4
100
AcDbLine
 10
689.00011593616
 20
377.4427177154997
 30
0.0
 11
685.4001159361603
 21
456.6427177154997
 31
0.0
  0
LINE
  5
B6A
330
DB
100
AcDbEntity
  8
1
  6
Continuous
 62
     4
100
AcDbLine
 10
703.4001159361602
 20
377.4427177154997
 30
0.0
 11
699.8001159361604
 21
456.6427177154997
 31
0.0
  0
LINE
  5
B6B
330
DB
100
AcDbEntity
  8
1
  6
Continuous
 62
     4
100
AcDbLine
 10
717.8001159361603
 20
377.4427177154997
 30
0.0
 11
714.2001159361602
 21
456.6427177154988
 31
0.0
  0
LINE
  5
B6C
330
DB
100
AcDbEntity
  8
1
  6
Continuous
 62
     4
100
AcDbLine
 10
732.2001159361603
 20
377.4427177154997
 30
0.0
 11
728.6001159361607
 21
456.6427177154997
 31
0.0
  0
LINE
  5
B6D
330
DB
100
AcDbEntity
  8
1
  6
Continuous
 62
     4
100
AcDbLine
 10
746.6001159361598
 20
377.4427177154997
 30
0.0
 11
743.00011593616
 21
456.6427177154988
 31
0.0
  0
LINE
  5
B6E
330
DB
100
AcDbEntity
  8
1
  6
Continuous
 62
     4
100
AcDbLine
 10
761.0001159361598
 20
377.4427177154997
 30
0.0
 11
757.4001159361603
 21
456.6427177154997
 31
0.0
  0
LINE
  5
B9C
330
DB
100
AcDbEntity
  8
0
  6
Continuous
 62
     4
100
AcDbLine
 10
719.7789014348527
 20
316.8335571561736
 30
0.0
 11
704.0940889651704
 21
301.1487446864903
 31
0.0
1001
ACAD
1010
0.0
1020
0.0
1030
0.0
  0
LINE
  5
B9D
330
DB
100
AcDbEntity
  8
0
  6
Continuous
 62
     4
100
AcDbLine
 10
727.4156546716672
 20
316.8335571561736
 30
0.0
 11
715.1124655835774
 21
304.5303680680831
 31
0.0
1001
ACAD
1010
0.0
1020
0.0
1030
0.0
  0
LINE
  5
B9E
330
DB
100
AcDbEntity
  8
0
  6
Continuous
 62
     4
100
AcDbLine
 10
735.0524079084825
 20
316.8335571561736
 30
0.0
 11
718.9308422019847
 21
300.7119914496756
 31
0.0
1001
ACAD
1010
0.0
1020
0.0
1030
0.0
  0
LINE
  5
B9F
330
DB
100
AcDbEntity
  8
0
  6
Continuous
 62
     4
100
AcDbLine
 10
742.6891611452973
 20
316.8335571561736
 30
0.0
 11
729.9492188203926
 21
304.0936148312683
 31
0.0
1001
ACAD
1010
0.0
1020
0.0
1030
0.0
  0
LINE
  5
BA0
330
DB
100
AcDbEntity
  8
0
  6
Continuous
 62
     4
100
AcDbLine
 10
750.3259143821118
 20
316.8335571561736
 30
0.0
 11
733.7675954387996
 21
300.2752382128611
 31
0.0
1001
ACAD
1010
0.0
1020
0.0
1030
0.0
  0
LINE
  5
BA1
330
DB
100
AcDbEntity
  8
0
  6
Continuous
 62
     4
100
AcDbLine
 10
757.9626676189272
 20
316.8335571561736
 30
0.0
 11
744.7859720572068
 21
303.6568615944531
 31
0.0
1001
ACAD
1010
0.0
1020
0.0
1030
0.0
  0
LINE
  5
BA2
330
DB
100
AcDbEntity
  8
0
  6
Continuous
 62
     4
100
AcDbLine
 10
765.5994208557417
 20
316.8335571561736
 30
0.0
 11
748.6043486756137
 21
299.8384849760459
 31
0.0
1001
ACAD
1010
0.0
1020
0.0
1030
0.0
  0
LINE
  5
BA3
330
DB
100
AcDbEntity
  8
0
  6
Continuous
 62
     4
100
AcDbLine
 10
773.2361740925568
 20
316.8335571561736
 30
0.0
 11
759.622725294022
 21
303.2201083576386
 31
0.0
1001
ACAD
1010
0.0
1020
0.0
1030
0.0
  0
LINE
  5
BA4
330
DB
100
AcDbEntity
  8
0
  6
Continuous
 62
     4
100
AcDbLine
 10
780.8729273293717
 20
316.8335571561736
 30
0.0
 11
763.4411019124292
 21
299.4017317392307
 31
0.0
1001
ACAD
1010
0.0
1020
0.0
1030
0.0
  0
LINE
  5
BAE
330
DB
100
AcDbEntity
  8
0
  6
Continuous
 62
     4
100
AcDbLine
 10
719.7789014348536
 20
316.8335571561736
 30
0.0
 11
704.0940889651704
 21
301.1487446864903
 31
0.0
1001
ACAD
1010
0.0
1020
0.0
1030
0.0
  0
LINE
  5
BAF
330
DB
100
AcDbEntity
  8
0
  6
Continuous
 62
     4
100
AcDbLine
 10
651.0481223035135
 20
316.8335571561736
 30
0.0
 11
649.4001159361602
 21
315.185550788821
 31
0.0
1001
ACAD
1010
0.0
1020
0.0
1030
0.0
  0
LINE
  5
BB0
330
DB
100
AcDbEntity
  8
0
  6
Continuous
 62
     4
100
AcDbLine
 10
658.684875540328
 20
316.8335571561736
 30
0.0
 11
649.4001159361602
 21
307.5487975520065
 31
0.0
1001
ACAD
1010
0.0
1020
0.0
1030
0.0
  0
LINE
  5
BB1
330
DB
100
AcDbEntity
  8
0
  6
Continuous
 62
     4
100
AcDbLine
 10
666.321628777144
 20
316.8335571561736
 30
0.0
 11
649.4001159361602
 21
299.9120443151921
 31
0.0
1001
ACAD
1010
0.0
1020
0.0
1030
0.0
  0
LINE
  5
BB2
330
DB
100
AcDbEntity
  8
0
  6
Continuous
 62
     4
100
AcDbLine
 10
673.9583820139596
 20
316.8335571561736
 30
0.0
 11
659.5838292547222
 21
302.4590043969378
 31
0.0
1001
ACAD
1010
0.0
1020
0.0
1030
0.0
  0
LINE
  5
BB3
330
DB
100
AcDbEntity
  8
0
  6
Continuous
 62
     4
100
AcDbLine
 10
681.595135250775
 20
316.8335571561736
 30
0.0
 11
663.0042958100997
 21
298.2427177154996
 31
0.0
1001
ACAD
1010
0.0
1020
0.0
1030
0.0
  0
LINE
  5
BB4
330
DB
100
AcDbEntity
  8
0
  6
Continuous
 62
     4
100
AcDbLine
 10
689.2318884875908
 20
316.8335571561736
 30
0.0
 11
674.4205824915382
 21
302.022251160122
 31
0.0
1001
ACAD
1010
0.0
1020
0.0
1030
0.0
  0
LINE
  5
BB5
330
DB
100
AcDbEntity
  8
0
  6
Continuous
 62
     4
100
AcDbLine
 10
696.8686417244064
 20
316.8335571561736
 30
0.0
 11
678.2778022837312
 21
298.2427177154996
 31
0.0
1001
ACAD
1010
0.0
1020
0.0
1030
0.0
  0
LINE
  5
BB6
330
DB
100
AcDbEntity
  8
0
  6
Continuous
 62
     4
100
AcDbLine
 10
704.5053949612217
 20
316.8335571561736
 30
0.0
 11
689.2573357283531
 21
301.5854979233068
 31
0.0
1001
ACAD
1010
0.0
1020
0.0
1030
0.0
  0
LINE
  5
BB7
330
DB
100
AcDbEntity
  8
0
  6
Continuous
 62
     4
100
AcDbLine
 10
712.1421481980376
 20
316.8335571561736
 30
0.0
 11
700.2757123467618
 21
304.9671213048986
 31
0.0
1001
ACAD
1010
0.0
1020
0.0
1030
0.0
  0
LINE
  5
BBD
330
DB
100
AcDbEntity
  8
0
  6
Continuous
 62
     4
100
AcDbLine
 10
797.0693866338945
 20
316.8335571561732
 30
0.0
 11
778.7393315646903
 21
298.5035020869696
 31
0.0
1001
ACAD
1010
0.0
1020
0.0
1030
0.0
  0
LINE
  5
BBF
330
DB
100
AcDbEntity
  8
1
  6
Continuous
 62
     4
100
AcDbLine
 10
775.40011593616
 20
377.4427177155001
 30
0.0
 11
771.8001159361598
 21
456.6427177155
 31
0.0
  0
LINE
  5
BC1
330
DB
100
AcDbEntity
  8
0
  6
Continuous
 62
     4
100
AcDbLine
 10
788.7460828216575
 20
316.8335571561736
 30
0.0
 11
774.5776796585722
 21
302.6651539930881
 31
0.0
1001
ACAD
1010
0.0
1020
0.0
1030
0.0
  0
LINE
  5
C2E
330
DB
100
AcDbEntity
  8
0
  6
Continuous
 62
     4
100
AcDbLine
 10
482.6866433878056
 20
316.8335571561728
 30
0.0
 11
487.2729107515453
 21
312.2472897924328
 31
0.0
1001
ACAD
1010
0.0
1020
0.0
1030
0.0
  0
LINE
  5
C2F
330
DB
100
AcDbEntity
  8
0
  6
Continuous
 62
     4
100
AcDbLine
 10
475.0498901509913
 20
316.8335571561728
 30
0.0
 11
488.7824253593175
 21
303.1010219478472
 31
0.0
1001
ACAD
1010
0.0
1020
0.0
1030
0.0
  0
LINE
  5
C30
330
DB
100
AcDbEntity
  8
0
  6
Continuous
 62
     4
100
AcDbLine
 10
467.4131369141753
 20
316.8335571561728
 30
0.0
 11
486.0039763548508
 21
298.2427177154983
 31
0.0
1001
ACAD
1010
0.0
1020
0.0
1030
0.0
  0
LINE
  5
C31
330
DB
100
AcDbEntity
  8
0
  6
Continuous
 62
     4
100
AcDbLine
 10
459.7763836773597
 20
316.8335571561728
 30
0.0
 11
478.3672231180353
 21
298.242717715499
 31
0.0
1001
ACAD
1010
0.0
1020
0.0
1030
0.0
  0
LINE
  5
C32
330
DB
100
AcDbEntity
  8
0
  6
Continuous
 62
     4
100
AcDbLine
 10
452.1396304405438
 20
316.8335571561728
 30
0.0
 11
470.7304698812198
 21
298.242717715499
 31
0.0
1001
ACAD
1010
0.0
1020
0.0
1030
0.0
  0
LINE
  5
C33
330
DB
100
AcDbEntity
  8
0
  6
Continuous
 62
     4
100
AcDbLine
 10
444.5028772037288
 20
316.8335571561728
 30
0.0
 11
463.0937166444036
 21
298.2427177154983
 31
0.0
1001
ACAD
1010
0.0
1020
0.0
1030
0.0
  0
LINE
  5
C34
330
DB
100
AcDbEntity
  8
0
  6
Continuous
 62
     4
100
AcDbLine
 10
436.8661239669127
 20
316.8335571561728
 30
0.0
 11
455.4569634075881
 21
298.242717715499
 31
0.0
1001
ACAD
1010
0.0
1020
0.0
1030
0.0
  0
LINE
  5
C35
330
DB
100
AcDbEntity
  8
0
  6
Continuous
 62
     4
100
AcDbLine
 10
429.2293707300976
 20
316.8335571561728
 30
0.0
 11
447.8202101707734
 21
298.242717715499
 31
0.0
1001
ACAD
1010
0.0
1020
0.0
1030
0.0
  0
LINE
  5
C36
330
DB
100
AcDbEntity
  8
0
  6
Continuous
 62
     4
100
AcDbLine
 10
421.5926174932817
 20
316.8335571561728
 30
0.0
 11
440.1834569339569
 21
298.242717715499
 31
0.0
1001
ACAD
1010
0.0
1020
0.0
1030
0.0
  0
LINE
  5
C37
330
DB
100
AcDbEntity
  8
0
  6
Continuous
 62
     4
100
AcDbLine
 10
413.9558642564659
 20
316.8335571561728
 30
0.0
 11
432.5467036971416
 21
298.2427177154983
 31
0.0
1001
ACAD
1010
0.0
1020
0.0
1030
0.0
  0
LINE
  5
C38
330
DB
100
AcDbEntity
  8
0
  6
Continuous
 62
     4
100
AcDbLine
 10
406.3191110196506
 20
316.8335571561728
 30
0.0
 11
424.909950460325
 21
298.2427177154983
 31
0.0
1001
ACAD
1010
0.0
1020
0.0
1030
0.0
  0
LINE
  5
C39
330
DB
100
AcDbEntity
  8
0
  6
Continuous
 62
     4
100
AcDbLine
 10
398.6823577828348
 20
316.8335571561728
 30
0.0
 11
417.2731972235101
 21
298.2427177154983
 31
0.0
1001
ACAD
1010
0.0
1020
0.0
1030
0.0
  0
LINE
  5
C3A
330
DB
100
AcDbEntity
  8
0
  6
Continuous
 62
     4
100
AcDbLine
 10
391.0456045460189
 20
316.8335571561728
 30
0.0
 11
409.636443986695
 21
298.2427177154983
 31
0.0
1001
ACAD
1010
0.0
1020
0.0
1030
0.0
  0
LINE
  5
C3B
330
DB
100
AcDbEntity
  8
0
  6
Continuous
 62
     4
100
AcDbLine
 10
386.9839648288639
 20
313.2584436365131
 30
0.0
 11
401.9996907498788
 21
298.2427177154983
 31
0.0
1001
ACAD
1010
0.0
1020
0.0
1030
0.0
  0
LINE
  5
C68
330
DB
100
AcDbEntity
  8
0
  6
Continuous
 62
     4
100
AcDbLine
 10
475.7250468575267
 20
758.8556310018566
 30
0.0
 11
487.7194372094622
 21
746.8612406499212
 31
0.0
1001
ACAD
1010
0.0
1020
0.0
1030
0.0
  0
LINE
  5
C69
330
DB
100
AcDbEntity
  8
0
  6
Continuous
 62
     4
100
AcDbLine
 10
468.0882936207111
 20
758.8556310018566
 30
0.0
 11
486.6791330613865
 21
740.2647915611821
 31
0.0
1001
ACAD
1010
0.0
1020
0.0
1030
0.0
  0
LINE
  5
C6A
330
DB
100
AcDbEntity
  8
0
  6
Continuous
 62
     4
100
AcDbLine
 10
460.4515403838953
 20
758.8556310018566
 30
0.0
 11
479.0423798245706
 21
740.2647915611827
 31
0.0
1001
ACAD
1010
0.0
1020
0.0
1030
0.0
  0
LINE
  5
C6B
330
DB
100
AcDbEntity
  8
0
  6
Continuous
 62
     4
100
AcDbLine
 10
452.8147871470793
 20
758.8556310018566
 30
0.0
 11
471.4056265877553
 21
740.2647915611827
 31
0.0
1001
ACAD
1010
0.0
1020
0.0
1030
0.0
  0
LINE
  5
C6C
330
DB
100
AcDbEntity
  8
0
  6
Continuous
 62
     4
100
AcDbLine
 10
445.1780339102643
 20
758.8556310018566
 30
0.0
 11
463.7688733509393
 21
740.2647915611821
 31
0.0
1001
ACAD
1010
0.0
1020
0.0
1030
0.0
  0
LINE
  5
C6D
330
DB
100
AcDbEntity
  8
0
  6
Continuous
 62
     4
100
AcDbLine
 10
437.5412806734484
 20
758.8556310018566
 30
0.0
 11
456.1321201141236
 21
740.2647915611827
 31
0.0
1001
ACAD
1010
0.0
1020
0.0
1030
0.0
  0
LINE
  5
C6E
330
DB
100
AcDbEntity
  8
0
  6
Continuous
 62
     4
100
AcDbLine
 10
429.9045274366327
 20
758.8556310018566
 30
0.0
 11
448.4953668773086
 21
740.2647915611827
 31
0.0
1001
ACAD
1010
0.0
1020
0.0
1030
0.0
  0
LINE
  5
C6F
330
DB
100
AcDbEntity
  8
0
  6
Continuous
 62
     4
100
AcDbLine
 10
422.2677741998166
 20
758.8556310018566
 30
0.0
 11
440.8586136404923
 21
740.2647915611827
 31
0.0
1001
ACAD
1010
0.0
1020
0.0
1030
0.0
  0
LINE
  5
C70
330
DB
100
AcDbEntity
  8
0
  6
Continuous
 62
     4
100
AcDbLine
 10
414.6310209630017
 20
758.8556310018566
 30
0.0
 11
433.2218604036775
 21
740.2647915611821
 31
0.0
1001
ACAD
1010
0.0
1020
0.0
1030
0.0
  0
LINE
  5
C71
330
DB
100
AcDbEntity
  8
0
  6
Continuous
 62
     4
100
AcDbLine
 10
406.994267726186
 20
758.8556310018566
 30
0.0
 11
425.5851071668608
 21
740.2647915611821
 31
0.0
1001
ACAD
1010
0.0
1020
0.0
1030
0.0
  0
LINE
  5
C72
330
DB
100
AcDbEntity
  8
0
  6
Continuous
 62
     4
100
AcDbLine
 10
399.3575144893704
 20
758.8556310018566
 30
0.0
 11
417.9483539300454
 21
740.2647915611821
 31
0.0
1001
ACAD
1010
0.0
1020
0.0
1030
0.0
  0
LINE
  5
C73
330
DB
100
AcDbEntity
  8
0
  6
Continuous
 62
     4
100
AcDbLine
 10
391.7207612525544
 20
758.8556310018566
 30
0.0
 11
410.3116006932307
 21
740.2647915611821
 31
0.0
1001
ACAD
1010
0.0
1020
0.0
1030
0.0
  0
LINE
  5
C74
330
DB
100
AcDbEntity
  8
0
  6
Continuous
 62
     4
100
AcDbLine
 10
386.2310707920773
 20
756.7085682255187
 30
0.0
 11
402.6748474564146
 21
740.2647915611821
 31
0.0
1001
ACAD
1010
0.0
1020
0.0
1030
0.0
  0
LINE
  5
C94
330
DB
100
AcDbEntity
  8
0
  6
Continuous
 62
     4
100
AcDbLine
 10
386.2310707920773
 20
749.435054988975
 30
0.0
 11
395.4013342198712
 21
740.2647915611821
 31
0.0
1001
ACAD
1010
0.0
1020
0.0
1030
0.0
  0
LINE
  5
C95
330
DB
100
AcDbEntity
  8
0
  6
Continuous
 62
     4
100
AcDbLine
 10
386.2310707920773
 20
742.229626824417
 30
0.0
 11
388.1959060553132
 21
740.2647915611821
 31
0.0
1001
ACAD
1010
0.0
1020
0.0
1030
0.0
  0
LINE
  5
CC1
330
DB
100
AcDbEntity
  8
1
  6
Continuous
 62
     7
100
AcDbLine
 10
1336.384310230948
 20
891.4647915611825
 30
0.0
 11
1336.384310230948
 21
740.2647915611827
 31
0.0
  0
LINE
  5
CC2
330
DB
100
AcDbEntity
  8
1
  6
Continuous
 62
     7
100
AcDbLine
 10
1221.18431023095
 20
891.4647915611825
 30
0.0
 11
1224.78431023095
 21
819.4647915611826
 31
0.0
  0
LINE
  5
CC3
330
DB
100
AcDbEntity
  8
1
  6
Continuous
 62
     7
100
AcDbLine
 10
1221.18431023095
 20
740.2647915611827
 30
0.0
 11
1228.384310230949
 21
747.4647915611825
 31
0.0
  0
LINE
  5
CC4
330
DB
100
AcDbEntity
  8
1
  6
Continuous
 62
     7
100
AcDbLine
 10
1228.384310230949
 20
747.4647915611825
 30
0.0
 11
1235.58431023095
 21
740.2647915611827
 31
0.0
  0
LINE
  5
CC5
330
DB
100
AcDbEntity
  8
1
  6
Continuous
 62
     7
100
AcDbLine
 10
1235.58431023095
 20
740.2647915611827
 30
0.0
 11
1242.784310230949
 21
747.4647915611825
 31
0.0
  0
LINE
  5
CC6
330
DB
100
AcDbEntity
  8
1
  6
Continuous
 62
     7
100
AcDbLine
 10
1242.784310230949
 20
747.4647915611825
 30
0.0
 11
1249.984310230948
 21
740.2647915611827
 31
0.0
  0
LINE
  5
CC7
330
DB
100
AcDbEntity
  8
1
  6
Continuous
 62
     7
100
AcDbLine
 10
1249.984310230948
 20
740.2647915611827
 30
0.0
 11
1257.184310230948
 21
747.4647915611825
 31
0.0
  0
LINE
  5
CC8
330
DB
100
AcDbEntity
  8
1
  6
Continuous
 62
     7
100
AcDbLine
 10
1257.184310230948
 20
747.4647915611825
 30
0.0
 11
1264.384310230949
 21
740.2647915611827
 31
0.0
  0
LINE
  5
CC9
330
DB
100
AcDbEntity
  8
1
  6
Continuous
 62
     7
100
AcDbLine
 10
1264.384310230949
 20
740.2647915611827
 30
0.0
 11
1271.58431023095
 21
747.4647915611825
 31
0.0
  0
LINE
  5
CCA
330
DB
100
AcDbEntity
  8
1
  6
Continuous
 62
     7
100
AcDbLine
 10
1271.58431023095
 20
747.4647915611825
 30
0.0
 11
1278.784310230949
 21
740.2647915611827
 31
0.0
  0
LINE
  5
CCB
330
DB
100
AcDbEntity
  8
1
  6
Continuous
 62
     7
100
AcDbLine
 10
1278.784310230949
 20
740.2647915611827
 30
0.0
 11
1285.98431023095
 21
747.4647915611825
 31
0.0
  0
LINE
  5
CCC
330
DB
100
AcDbEntity
  8
1
  6
Continuous
 62
     7
100
AcDbLine
 10
1285.98431023095
 20
747.4647915611825
 30
0.0
 11
1293.18431023095
 21
740.2647915611827
 31
0.0
  0
LINE
  5
CCD
330
DB
100
AcDbEntity
  8
1
  6
Continuous
 62
     7
100
AcDbLine
 10
1293.18431023095
 20
740.2647915611827
 30
0.0
 11
1300.38431023095
 21
747.4647915611825
 31
0.0
  0
LINE
  5
CCE
330
DB
100
AcDbEntity
  8
1
  6
Continuous
 62
     7
100
AcDbLine
 10
1300.38431023095
 20
747.4647915611825
 30
0.0
 11
1307.58431023095
 21
740.2647915611827
 31
0.0
  0
LINE
  5
CCF
330
DB
100
AcDbEntity
  8
1
  6
Continuous
 62
     7
100
AcDbLine
 10
1307.58431023095
 20
740.2647915611827
 30
0.0
 11
1314.784310230947
 21
747.4647915611825
 31
0.0
  0
LINE
  5
CD0
330
DB
100
AcDbEntity
  8
1
  6
Continuous
 62
     7
100
AcDbLine
 10
1314.784310230947
 20
747.4647915611825
 30
0.0
 11
1321.984310230948
 21
740.2647915611827
 31
0.0
  0
LINE
  5
CD1
330
DB
100
AcDbEntity
  8
1
  6
Continuous
 62
     7
100
AcDbLine
 10
1321.984310230948
 20
740.2647915611827
 30
0.0
 11
1329.184310230949
 21
747.4647915611825
 31
0.0
  0
LINE
  5
CD2
330
DB
100
AcDbEntity
  8
1
  6
Continuous
 62
     7
100
AcDbLine
 10
1221.18431023095
 20
891.4647915611825
 30
0.0
 11
1228.384310230949
 21
898.6647915611824
 31
0.0
  0
LINE
  5
CD3
330
DB
100
AcDbEntity
  8
1
  6
Continuous
 62
     7
100
AcDbLine
 10
1228.384310230949
 20
898.6647915611824
 30
0.0
 11
1235.58431023095
 21
891.4647915611825
 31
0.0
  0
LINE
  5
CD4
330
DB
100
AcDbEntity
  8
1
  6
Continuous
 62
     7
100
AcDbLine
 10
1235.58431023095
 20
891.4647915611825
 30
0.0
 11
1242.784310230949
 21
898.6647915611824
 31
0.0
  0
LINE
  5
CD5
330
DB
100
AcDbEntity
  8
1
  6
Continuous
 62
     7
100
AcDbLine
 10
1242.784310230949
 20
898.6647915611824
 30
0.0
 11
1249.984310230948
 21
891.4647915611825
 31
0.0
  0
LINE
  5
CD6
330
DB
100
AcDbEntity
  8
1
  6
Continuous
 62
     7
100
AcDbLine
 10
1249.984310230948
 20
891.4647915611825
 30
0.0
 11
1257.184310230948
 21
898.6647915611824
 31
0.0
  0
LINE
  5
CD7
330
DB
100
AcDbEntity
  8
1
  6
Continuous
 62
     7
100
AcDbLine
 10
1257.184310230948
 20
898.6647915611824
 30
0.0
 11
1264.384310230949
 21
891.4647915611825
 31
0.0
  0
LINE
  5
CD8
330
DB
100
AcDbEntity
  8
1
  6
Continuous
 62
     7
100
AcDbLine
 10
1264.384310230949
 20
891.4647915611825
 30
0.0
 11
1271.58431023095
 21
898.6647915611824
 31
0.0
  0
LINE
  5
CD9
330
DB
100
AcDbEntity
  8
1
  6
Continuous
 62
     7
100
AcDbLine
 10
1271.58431023095
 20
898.6647915611824
 30
0.0
 11
1278.784310230949
 21
891.4647915611825
 31
0.0
  0
LINE
  5
CDA
330
DB
100
AcDbEntity
  8
1
  6
Continuous
 62
     7
100
AcDbLine
 10
1278.784310230949
 20
891.4647915611825
 30
0.0
 11
1285.98431023095
 21
898.6647915611824
 31
0.0
  0
LINE
  5
CDB
330
DB
100
AcDbEntity
  8
1
  6
Continuous
 62
     7
100
AcDbLine
 10
1285.98431023095
 20
898.6647915611824
 30
0.0
 11
1293.18431023095
 21
891.4647915611825
 31
0.0
  0
LINE
  5
CDC
330
DB
100
AcDbEntity
  8
1
  6
Continuous
 62
     7
100
AcDbLine
 10
1293.18431023095
 20
891.4647915611825
 30
0.0
 11
1300.38431023095
 21
898.6647915611824
 31
0.0
  0
LINE
  5
CDD
330
DB
100
AcDbEntity
  8
1
  6
Continuous
 62
     7
100
AcDbLine
 10
1300.38431023095
 20
898.6647915611824
 30
0.0
 11
1307.58431023095
 21
891.4647915611825
 31
0.0
  0
LINE
  5
CDE
330
DB
100
AcDbEntity
  8
1
  6
Continuous
 62
     7
100
AcDbLine
 10
1307.58431023095
 20
891.4647915611825
 30
0.0
 11
1314.784310230947
 21
898.6647915611824
 31
0.0
  0
LINE
  5
CDF
330
DB
100
AcDbEntity
  8
1
  6
Continuous
 62
     7
100
AcDbLine
 10
1314.784310230947
 20
898.6647915611824
 30
0.0
 11
1321.984310230948
 21
891.4647915611825
 31
0.0
  0
LINE
  5
CE0
330
DB
100
AcDbEntity
  8
1
  6
Continuous
 62
     7
100
AcDbLine
 10
1321.984310230948
 20
891.4647915611825
 30
0.0
 11
1329.184310230949
 21
898.6647915611824
 31
0.0
  0
LINE
  5
CE1
330
DB
100
AcDbEntity
  8
1
  6
Continuous
 62
     7
100
AcDbLine
 10
1329.184310230949
 20
898.6647915611824
 30
0.0
 11
1336.384310230948
 21
891.4647915611825
 31
0.0
  0
LINE
  5
CE2
330
DB
100
AcDbEntity
  8
1
  6
Continuous
 62
     7
100
AcDbLine
 10
1239.184310230948
 20
819.4647915611826
 30
0.0
 11
1235.58431023095
 21
891.4647915611825
 31
0.0
  0
LINE
  5
CE3
330
DB
100
AcDbEntity
  8
1
  6
Continuous
 62
     7
100
AcDbLine
 10
1249.984310230948
 20
891.4647915611825
 30
0.0
 11
1253.584310230948
 21
819.4647915611826
 31
0.0
  0
LINE
  5
CE4
330
DB
100
AcDbEntity
  8
1
  6
Continuous
 62
     7
100
AcDbLine
 10
1329.184310230949
 20
747.4647915611825
 30
0.0
 11
1336.384310230948
 21
740.2647915611827
 31
0.0
  0
LINE
  5
CE5
330
DB
100
AcDbEntity
  8
1
  6
Continuous
 62
     7
100
AcDbLine
 10
1213.984310230949
 20
898.6647915611824
 30
0.0
 11
802.5225882738316
 21
898.6647915611824
 31
0.0
  0
LINE
  5
CE6
330
DB
100
AcDbEntity
  8
1
  6
Continuous
 62
     7
100
AcDbLine
 10
1221.18431023095
 20
740.2647915611827
 30
0.0
 11
809.7225882738319
 21
740.2647915611827
 31
0.0
  0
LINE
  5
CE7
330
DB
100
AcDbEntity
  8
1
  6
Continuous
 62
     7
100
AcDbLine
 10
1213.984310230949
 20
898.6647915611824
 30
0.0
 11
1221.18431023095
 21
891.4647915611825
 31
0.0
  0
LINE
  5
CE8
330
DB
100
AcDbEntity
  8
1
  6
Continuous
 62
     7
100
AcDbLine
 10
1267.984310230948
 20
819.4647915611826
 30
0.0
 11
1264.384310230949
 21
891.4647915611821
 31
0.0
  0
LINE
  5
CE9
330
DB
100
AcDbEntity
  8
1
  6
Continuous
 62
     7
100
AcDbLine
 10
1278.784310230949
 20
891.4647915611825
 30
0.0
 11
1282.384310230949
 21
819.4647915611826
 31
0.0
  0
LINE
  5
CEA
330
DB
100
AcDbEntity
  8
1
  6
Continuous
 62
     7
100
AcDbLine
 10
1296.784310230948
 20
819.4647915611826
 30
0.0
 11
1293.18431023095
 21
891.4647915611821
 31
0.0
  0
LINE
  5
CEB
330
DB
100
AcDbEntity
  8
1
  6
Continuous
 62
     7
100
AcDbLine
 10
1307.58431023095
 20
891.4647915611825
 30
0.0
 11
1311.184310230949
 21
819.4647915611826
 31
0.0
  0
LINE
  5
CEC
330
DB
100
AcDbEntity
  8
1
  6
Continuous
 62
     7
100
AcDbLine
 10
1325.584310230948
 20
819.4647915611826
 30
0.0
 11
1321.984310230948
 21
891.4647915611825
 31
0.0
  0
LINE
  5
CED
330
DB
100
AcDbEntity
  8
1
  6
Continuous
 62
     7
100
AcDbLine
 10
1336.384310230948
 20
758.8556310018557
 30
0.0
 11
680.1225882738326
 21
758.8556310018573
 31
0.0
  0
LINE
  5
CF9
330
DB
100
AcDbEntity
  8
1
  6
Continuous
 62
     7
100
AcDbLine
 10
1336.384310230948
 20
819.4647915611826
 30
0.0
 11
680.1225882738326
 21
819.4647915611826
 31
0.0
  0
LINE
  5
CFA
330
DB
100
AcDbEntity
  8
1
  6
Continuous
 62
     7
100
AcDbLine
 10
680.1225882738326
 20
891.4647915611825
 30
0.0
 11
683.7225882738322
 21
819.4647915611826
 31
0.0
  0
LINE
  5
CFB
330
DB
100
AcDbEntity
  8
1
  6
Continuous
 62
     7
100
AcDbLine
 10
680.1225882738326
 20
891.4647915611825
 30
0.0
 11
687.3225882738317
 21
898.6647915611824
 31
0.0
  0
LINE
  5
CFC
330
DB
100
AcDbEntity
  8
1
  6
Continuous
 62
     7
100
AcDbLine
 10
687.3225882738317
 20
898.6647915611824
 30
0.0
 11
694.5225882738319
 21
891.4647915611825
 31
0.0
  0
LINE
  5
CFD
330
DB
100
AcDbEntity
  8
1
  6
Continuous
 62
     7
100
AcDbLine
 10
694.5225882738319
 20
891.4647915611825
 30
0.0
 11
701.7225882738322
 21
898.6647915611824
 31
0.0
  0
LINE
  5
CFE
330
DB
100
AcDbEntity
  8
1
  6
Continuous
 62
     7
100
AcDbLine
 10
701.7225882738322
 20
898.6647915611824
 30
0.0
 11
708.9225882738319
 21
891.4647915611825
 31
0.0
  0
LINE
  5
CFF
330
DB
100
AcDbEntity
  8
1
  6
Continuous
 62
     7
100
AcDbLine
 10
708.9225882738319
 20
891.4647915611825
 30
0.0
 11
716.1225882738325
 21
898.6647915611824
 31
0.0
  0
LINE
  5
D00
330
DB
100
AcDbEntity
  8
1
  6
Continuous
 62
     7
100
AcDbLine
 10
716.1225882738325
 20
898.6647915611824
 30
0.0
 11
723.3225882738318
 21
891.4647915611825
 31
0.0
  0
LINE
  5
D01
330
DB
100
AcDbEntity
  8
1
  6
Continuous
 62
     7
100
AcDbLine
 10
723.3225882738318
 20
891.4647915611825
 30
0.0
 11
730.5225882738323
 21
898.6647915611824
 31
0.0
  0
LINE
  5
D02
330
DB
100
AcDbEntity
  8
1
  6
Continuous
 62
     7
100
AcDbLine
 10
730.5225882738323
 20
898.6647915611824
 30
0.0
 11
737.7225882738322
 21
891.4647915611825
 31
0.0
  0
LINE
  5
D03
330
DB
100
AcDbEntity
  8
1
  6
Continuous
 62
     7
100
AcDbLine
 10
737.7225882738322
 20
891.4647915611825
 30
0.0
 11
744.9225882738325
 21
898.6647915611824
 31
0.0
  0
LINE
  5
D04
330
DB
100
AcDbEntity
  8
1
  6
Continuous
 62
     7
100
AcDbLine
 10
744.9225882738325
 20
898.6647915611824
 30
0.0
 11
752.1225882738317
 21
891.4647915611825
 31
0.0
  0
LINE
  5
D05
330
DB
100
AcDbEntity
  8
1
  6
Continuous
 62
     7
100
AcDbLine
 10
752.1225882738317
 20
891.4647915611825
 30
0.0
 11
759.3225882738319
 21
898.6647915611824
 31
0.0
  0
LINE
  5
D06
330
DB
100
AcDbEntity
  8
1
  6
Continuous
 62
     7
100
AcDbLine
 10
759.3225882738319
 20
898.6647915611824
 30
0.0
 11
766.5225882738318
 21
891.4647915611825
 31
0.0
  0
LINE
  5
D07
330
DB
100
AcDbEntity
  8
1
  6
Continuous
 62
     7
100
AcDbLine
 10
766.5225882738318
 20
891.4647915611825
 30
0.0
 11
773.7225882738322
 21
898.6647915611824
 31
0.0
  0
LINE
  5
D08
330
DB
100
AcDbEntity
  8
1
  6
Continuous
 62
     7
100
AcDbLine
 10
773.7225882738322
 20
898.6647915611824
 30
0.0
 11
780.9225882738319
 21
891.4647915611825
 31
0.0
  0
LINE
  5
D09
330
DB
100
AcDbEntity
  8
1
  6
Continuous
 62
     7
100
AcDbLine
 10
780.9225882738319
 20
891.4647915611825
 30
0.0
 11
788.122588273832
 21
898.6647915611824
 31
0.0
  0
LINE
  5
D0A
330
DB
100
AcDbEntity
  8
1
  6
Continuous
 62
     7
100
AcDbLine
 10
788.122588273832
 20
898.6647915611824
 30
0.0
 11
795.3225882738319
 21
891.4647915611825
 31
0.0
  0
LINE
  5
D0B
330
DB
100
AcDbEntity
  8
1
  6
Continuous
 62
     7
100
AcDbLine
 10
698.1225882738327
 20
819.4647915611826
 30
0.0
 11
694.5225882738327
 21
891.4647915611825
 31
0.0
  0
LINE
  5
D0C
330
DB
100
AcDbEntity
  8
1
  6
Continuous
 62
     7
100
AcDbLine
 10
708.9225882738319
 20
891.4647915611825
 30
0.0
 11
712.5225882738318
 21
819.4647915611826
 31
0.0
  0
LINE
  5
D0D
330
DB
100
AcDbEntity
  8
1
  6
Continuous
 62
     7
100
AcDbLine
 10
726.9225882738325
 20
819.4647915611826
 30
0.0
 11
723.3225882738326
 21
891.4647915611821
 31
0.0
  0
LINE
  5
D0E
330
DB
100
AcDbEntity
  8
1
  6
Continuous
 62
     7
100
AcDbLine
 10
737.7225882738322
 20
891.4647915611825
 30
0.0
 11
741.3225882738317
 21
819.4647915611826
 31
0.0
  0
LINE
  5
D0F
330
DB
100
AcDbEntity
  8
1
  6
Continuous
 62
     7
100
AcDbLine
 10
755.7225882738322
 20
819.4647915611826
 30
0.0
 11
752.1225882738327
 21
891.4647915611821
 31
0.0
  0
LINE
  5
D10
330
DB
100
AcDbEntity
  8
1
  6
Continuous
 62
     7
100
AcDbLine
 10
766.5225882738318
 20
891.4647915611825
 30
0.0
 11
770.1225882738322
 21
819.4647915611826
 31
0.0
  0
LINE
  5
D11
330
DB
100
AcDbEntity
  8
1
  6
Continuous
 62
     7
100
AcDbLine
 10
784.5225882738323
 20
819.4647915611826
 30
0.0
 11
780.9225882738319
 21
891.4647915611825
 31
0.0
  0
LINE
  5
D12
330
DB
100
AcDbEntity
  8
1
  6
Continuous
 62
     7
100
AcDbLine
 10
680.1225882738326
 20
891.4647915611825
 30
0.0
 11
680.1225882738326
 21
740.2647915611827
 31
0.0
  0
LINE
  5
D13
330
DB
100
AcDbEntity
  8
1
  6
Continuous
 62
     7
100
AcDbLine
 10
798.9225882738311
 20
819.4647915611831
 30
0.0
 11
795.3225882738319
 21
891.4647915611833
 31
0.0
  0
LINE
  5
D14
330
DB
100
AcDbEntity
  8
1
  6
Continuous
 62
     7
100
AcDbLine
 10
795.3225882738319
 20
891.4647915611833
 30
0.0
 11
802.5225882738316
 21
898.6647915611824
 31
0.0
  0
LINE
  5
D15
330
DB
100
AcDbEntity
  8
1
  6
Continuous
 62
     7
100
AcDbLine
 10
680.1225882738326
 20
740.2647915611827
 30
0.0
 11
687.3225882738327
 21
747.4647915611831
 31
0.0
  0
LINE
  5
D16
330
DB
100
AcDbEntity
  8
1
  6
Continuous
 62
     7
100
AcDbLine
 10
687.3225882738327
 20
747.4647915611831
 30
0.0
 11
694.5225882738327
 21
740.2647915611827
 31
0.0
  0
LINE
  5
D17
330
DB
100
AcDbEntity
  8
1
  6
Continuous
 62
     7
100
AcDbLine
 10
694.5225882738327
 20
740.2647915611827
 30
0.0
 11
701.7225882738322
 21
747.4647915611831
 31
0.0
  0
LINE
  5
D18
330
DB
100
AcDbEntity
  8
1
  6
Continuous
 62
     7
100
AcDbLine
 10
701.7225882738322
 20
747.4647915611831
 30
0.0
 11
708.9225882738319
 21
740.2647915611827
 31
0.0
  0
LINE
  5
D19
330
DB
100
AcDbEntity
  8
1
  6
Continuous
 62
     7
100
AcDbLine
 10
708.9225882738319
 20
740.2647915611827
 30
0.0
 11
716.1225882738325
 21
747.4647915611831
 31
0.0
  0
LINE
  5
D1A
330
DB
100
AcDbEntity
  8
1
  6
Continuous
 62
     7
100
AcDbLine
 10
716.1225882738325
 20
747.4647915611831
 30
0.0
 11
723.3225882738326
 21
740.2647915611827
 31
0.0
  0
LINE
  5
D1B
330
DB
100
AcDbEntity
  8
1
  6
Continuous
 62
     7
100
AcDbLine
 10
723.3225882738326
 20
740.2647915611827
 30
0.0
 11
730.5225882738327
 21
747.4647915611831
 31
0.0
  0
LINE
  5
D1C
330
DB
100
AcDbEntity
  8
1
  6
Continuous
 62
     7
100
AcDbLine
 10
730.5225882738327
 20
747.4647915611831
 30
0.0
 11
737.7225882738322
 21
740.2647915611827
 31
0.0
  0
LINE
  5
D1D
330
DB
100
AcDbEntity
  8
1
  6
Continuous
 62
     7
100
AcDbLine
 10
737.7225882738322
 20
740.2647915611827
 30
0.0
 11
744.9225882738325
 21
747.4647915611831
 31
0.0
  0
LINE
  5
D1E
330
DB
100
AcDbEntity
  8
1
  6
Continuous
 62
     7
100
AcDbLine
 10
744.9225882738325
 20
747.4647915611831
 30
0.0
 11
752.1225882738327
 21
740.2647915611827
 31
0.0
  0
LINE
  5
D1F
330
DB
100
AcDbEntity
  8
1
  6
Continuous
 62
     7
100
AcDbLine
 10
752.1225882738327
 20
740.2647915611827
 30
0.0
 11
759.3225882738326
 21
747.4647915611831
 31
0.0
  0
LINE
  5
D20
330
DB
100
AcDbEntity
  8
1
  6
Continuous
 62
     7
100
AcDbLine
 10
759.3225882738326
 20
747.4647915611831
 30
0.0
 11
766.5225882738318
 21
740.2647915611827
 31
0.0
  0
LINE
  5
D21
330
DB
100
AcDbEntity
  8
1
  6
Continuous
 62
     7
100
AcDbLine
 10
766.5225882738318
 20
740.2647915611827
 30
0.0
 11
773.7225882738322
 21
747.4647915611831
 31
0.0
  0
LINE
  5
D22
330
DB
100
AcDbEntity
  8
1
  6
Continuous
 62
     7
100
AcDbLine
 10
773.7225882738322
 20
747.4647915611831
 30
0.0
 11
780.9225882738319
 21
740.2647915611827
 31
0.0
  0
LINE
  5
D23
330
DB
100
AcDbEntity
  8
1
  6
Continuous
 62
     7
100
AcDbLine
 10
780.9225882738319
 20
740.2647915611827
 30
0.0
 11
788.1225882738331
 21
747.4647915611831
 31
0.0
  0
LINE
  5
D24
330
DB
100
AcDbEntity
  8
1
  6
Continuous
 62
     7
100
AcDbLine
 10
788.1225882738331
 20
747.4647915611831
 30
0.0
 11
795.3225882738319
 21
740.2647915611827
 31
0.0
  0
LINE
  5
D25
330
DB
100
AcDbEntity
  8
1
  6
Continuous
 62
     7
100
AcDbLine
 10
795.3225882738319
 20
740.2647915611827
 30
0.0
 11
802.522588273832
 21
747.4647915611831
 31
0.0
  0
LINE
  5
D26
330
DB
100
AcDbEntity
  8
1
  6
Continuous
 62
     7
100
AcDbLine
 10
802.522588273832
 20
747.4647915611831
 30
0.0
 11
809.7225882738319
 21
740.2647915611827
 31
0.0
  0
LINE
  5
D27
330
DB
100
AcDbEntity
  8
1
  6
Continuous
 62
     7
100
AcDbLine
 10
1386.133882541995
 20
449.4427177154993
 30
0.0
 11
1386.133882541995
 21
298.2427177154996
 31
0.0
  0
LINE
  5
D28
330
DB
100
AcDbEntity
  8
1
  6
Continuous
 62
     7
100
AcDbLine
 10
1270.933882541997
 20
449.4427177154993
 30
0.0
 11
1274.533882541994
 21
377.4427177154997
 31
0.0
  0
LINE
  5
D29
330
DB
100
AcDbEntity
  8
1
  6
Continuous
 62
     7
100
AcDbLine
 10
1270.933882541997
 20
298.2427177154996
 30
0.0
 11
1278.133882541997
 21
305.4427177154996
 31
0.0
  0
LINE
  5
D2A
330
DB
100
AcDbEntity
  8
1
  6
Continuous
 62
     7
100
AcDbLine
 10
1278.133882541997
 20
305.4427177154996
 30
0.0
 11
1285.333882541997
 21
298.2427177154996
 31
0.0
  0
LINE
  5
D2B
330
DB
100
AcDbEntity
  8
1
  6
Continuous
 62
     7
100
AcDbLine
 10
1285.333882541997
 20
298.2427177154996
 30
0.0
 11
1292.533882541994
 21
305.4427177154996
 31
0.0
  0
LINE
  5
D2C
330
DB
100
AcDbEntity
  8
1
  6
Continuous
 62
     7
100
AcDbLine
 10
1292.533882541994
 20
305.4427177154996
 30
0.0
 11
1299.733882541996
 21
298.2427177154996
 31
0.0
  0
LINE
  5
D2D
330
DB
100
AcDbEntity
  8
1
  6
Continuous
 62
     7
100
AcDbLine
 10
1299.733882541996
 20
298.2427177154996
 30
0.0
 11
1306.933882541997
 21
305.4427177154996
 31
0.0
  0
LINE
  5
D2E
330
DB
100
AcDbEntity
  8
1
  6
Continuous
 62
     7
100
AcDbLine
 10
1306.933882541997
 20
305.4427177154996
 30
0.0
 11
1314.133882541997
 21
298.2427177154996
 31
0.0
  0
LINE
  5
D2F
330
DB
100
AcDbEntity
  8
1
  6
Continuous
 62
     7
100
AcDbLine
 10
1314.133882541997
 20
298.2427177154996
 30
0.0
 11
1321.333882541996
 21
305.4427177154996
 31
0.0
  0
LINE
  5
D30
330
DB
100
AcDbEntity
  8
1
  6
Continuous
 62
     7
100
AcDbLine
 10
1321.333882541996
 20
305.4427177154996
 30
0.0
 11
1328.533882541997
 21
298.2427177154996
 31
0.0
  0
LINE
  5
D31
330
DB
100
AcDbEntity
  8
1
  6
Continuous
 62
     7
100
AcDbLine
 10
1328.533882541997
 20
298.2427177154996
 30
0.0
 11
1335.733882541997
 21
305.4427177154996
 31
0.0
  0
LINE
  5
D32
330
DB
100
AcDbEntity
  8
1
  6
Continuous
 62
     7
100
AcDbLine
 10
1335.733882541997
 20
305.4427177154996
 30
0.0
 11
1342.933882541997
 21
298.2427177154996
 31
0.0
  0
LINE
  5
D33
330
DB
100
AcDbEntity
  8
1
  6
Continuous
 62
     7
100
AcDbLine
 10
1342.933882541997
 20
298.2427177154996
 30
0.0
 11
1350.133882541997
 21
305.4427177154996
 31
0.0
  0
LINE
  5
D34
330
DB
100
AcDbEntity
  8
1
  6
Continuous
 62
     7
100
AcDbLine
 10
1350.133882541997
 20
305.4427177154996
 30
0.0
 11
1357.333882541993
 21
298.2427177154996
 31
0.0
  0
LINE
  5
D35
330
DB
100
AcDbEntity
  8
1
  6
Continuous
 62
     7
100
AcDbLine
 10
1357.333882541993
 20
298.2427177154996
 30
0.0
 11
1364.533882541995
 21
305.4427177154996
 31
0.0
  0
LINE
  5
D36
330
DB
100
AcDbEntity
  8
1
  6
Continuous
 62
     7
100
AcDbLine
 10
1364.533882541995
 20
305.4427177154996
 30
0.0
 11
1371.733882541998
 21
298.2427177154996
 31
0.0
  0
LINE
  5
D37
330
DB
100
AcDbEntity
  8
1
  6
Continuous
 62
     7
100
AcDbLine
 10
1371.733882541998
 20
298.2427177154996
 30
0.0
 11
1378.933882541995
 21
305.4427177154996
 31
0.0
  0
LINE
  5
D38
330
DB
100
AcDbEntity
  8
1
  6
Continuous
 62
     7
100
AcDbLine
 10
1270.933882541997
 20
449.4427177154993
 30
0.0
 11
1278.133882541997
 21
456.6427177154997
 31
0.0
  0
LINE
  5
D39
330
DB
100
AcDbEntity
  8
1
  6
Continuous
 62
     7
100
AcDbLine
 10
1278.133882541997
 20
456.6427177154997
 30
0.0
 11
1285.333882541997
 21
449.4427177154993
 31
0.0
  0
LINE
  5
D3A
330
DB
100
AcDbEntity
  8
1
  6
Continuous
 62
     7
100
AcDbLine
 10
1285.333882541997
 20
449.4427177154993
 30
0.0
 11
1292.533882541994
 21
456.6427177154997
 31
0.0
  0
LINE
  5
D3B
330
DB
100
AcDbEntity
  8
1
  6
Continuous
 62
     7
100
AcDbLine
 10
1292.533882541994
 20
456.6427177154997
 30
0.0
 11
1299.733882541996
 21
449.4427177154993
 31
0.0
  0
LINE
  5
D3C
330
DB
100
AcDbEntity
  8
1
  6
Continuous
 62
     7
100
AcDbLine
 10
1299.733882541996
 20
449.4427177154993
 30
0.0
 11
1306.933882541997
 21
456.6427177154997
 31
0.0
  0
LINE
  5
D3D
330
DB
100
AcDbEntity
  8
1
  6
Continuous
 62
     7
100
AcDbLine
 10
1306.933882541997
 20
456.6427177154997
 30
0.0
 11
1314.133882541997
 21
449.4427177154993
 31
0.0
  0
LINE
  5
D3E
330
DB
100
AcDbEntity
  8
1
  6
Continuous
 62
     7
100
AcDbLine
 10
1314.133882541997
 20
449.4427177154993
 30
0.0
 11
1321.333882541996
 21
456.6427177154997
 31
0.0
  0
LINE
  5
D3F
330
DB
100
AcDbEntity
  8
1
  6
Continuous
 62
     7
100
AcDbLine
 10
1321.333882541996
 20
456.6427177154997
 30
0.0
 11
1328.533882541997
 21
449.4427177154993
 31
0.0
  0
LINE
  5
D40
330
DB
100
AcDbEntity
  8
1
  6
Continuous
 62
     7
100
AcDbLine
 10
1328.533882541997
 20
449.4427177154993
 30
0.0
 11
1335.733882541997
 21
456.6427177154997
 31
0.0
  0
LINE
  5
D41
330
DB
100
AcDbEntity
  8
1
  6
Continuous
 62
     7
100
AcDbLine
 10
1335.733882541997
 20
456.6427177154997
 30
0.0
 11
1342.933882541997
 21
449.4427177154993
 31
0.0
  0
LINE
  5
D42
330
DB
100
AcDbEntity
  8
1
  6
Continuous
 62
     7
100
AcDbLine
 10
1342.933882541997
 20
449.4427177154993
 30
0.0
 11
1350.133882541997
 21
456.6427177154997
 31
0.0
  0
LINE
  5
D43
330
DB
100
AcDbEntity
  8
1
  6
Continuous
 62
     7
100
AcDbLine
 10
1350.133882541997
 20
456.6427177154997
 30
0.0
 11
1357.333882541993
 21
449.4427177154993
 31
0.0
  0
LINE
  5
D44
330
DB
100
AcDbEntity
  8
1
  6
Continuous
 62
     7
100
AcDbLine
 10
1357.333882541993
 20
449.4427177154993
 30
0.0
 11
1364.533882541995
 21
456.6427177154997
 31
0.0
  0
LINE
  5
D45
330
DB
100
AcDbEntity
  8
1
  6
Continuous
 62
     7
100
AcDbLine
 10
1364.533882541995
 20
456.6427177154997
 30
0.0
 11
1371.733882541998
 21
449.4427177154993
 31
0.0
  0
LINE
  5
D46
330
DB
100
AcDbEntity
  8
1
  6
Continuous
 62
     7
100
AcDbLine
 10
1371.733882541998
 20
449.4427177154993
 30
0.0
 11
1378.933882541995
 21
456.6427177154997
 31
0.0
  0
LINE
  5
D47
330
DB
100
AcDbEntity
  8
1
  6
Continuous
 62
     7
100
AcDbLine
 10
1378.933882541995
 20
456.6427177154997
 30
0.0
 11
1386.133882541995
 21
449.4427177154993
 31
0.0
  0
LINE
  5
D48
330
DB
100
AcDbEntity
  8
1
  6
Continuous
 62
     7
100
AcDbLine
 10
1288.933882541997
 20
377.4427177154997
 30
0.0
 11
1285.333882541997
 21
449.4427177154993
 31
0.0
  0
LINE
  5
D49
330
DB
100
AcDbEntity
  8
1
  6
Continuous
 62
     7
100
AcDbLine
 10
1299.733882541996
 20
449.4427177154993
 30
0.0
 11
1303.333882541998
 21
377.4427177154997
 31
0.0
  0
LINE
  5
D4A
330
DB
100
AcDbEntity
  8
1
  6
Continuous
 62
     7
100
AcDbLine
 10
1378.933882541995
 20
305.4427177154996
 30
0.0
 11
1386.133882541995
 21
298.2427177154996
 31
0.0
  0
LINE
  5
D4B
330
DB
100
AcDbEntity
  8
1
  6
Continuous
 62
     7
100
AcDbLine
 10
1263.733882541997
 20
456.6427177154997
 30
0.0
 11
1180.652549767924
 21
456.6427177154992
 31
0.0
  0
LINE
  5
D4C
330
DB
100
AcDbEntity
  8
1
  6
Continuous
 62
     7
100
AcDbLine
 10
1270.933882541997
 20
298.2427177154996
 30
0.0
 11
1187.852549767924
 21
298.2427177154994
 31
0.0
  0
LINE
  5
D4D
330
DB
100
AcDbEntity
  8
1
  6
Continuous
 62
     7
100
AcDbLine
 10
1263.733882541997
 20
456.6427177154997
 30
0.0
 11
1270.933882541997
 21
449.4427177154993
 31
0.0
  0
LINE
  5
D4E
330
DB
100
AcDbEntity
  8
1
  6
Continuous
 62
     7
100
AcDbLine
 10
1317.733882541996
 20
377.4427177154997
 30
0.0
 11
1314.133882541997
 21
449.4427177154991
 31
0.0
  0
LINE
  5
D4F
330
DB
100
AcDbEntity
  8
1
  6
Continuous
 62
     7
100
AcDbLine
 10
1328.533882541997
 20
449.4427177154993
 30
0.0
 11
1332.133882541993
 21
377.4427177154997
 31
0.0
  0
LINE
  5
D50
330
DB
100
AcDbEntity
  8
1
  6
Continuous
 62
     7
100
AcDbLine
 10
1346.533882541995
 20
377.4427177154997
 30
0.0
 11
1342.933882541997
 21
449.4427177154991
 31
0.0
  0
LINE
  5
D51
330
DB
100
AcDbEntity
  8
1
  6
Continuous
 62
     7
100
AcDbLine
 10
1357.333882541993
 20
449.4427177154993
 30
0.0
 11
1360.933882541996
 21
377.4427177154997
 31
0.0
  0
LINE
  5
D52
330
DB
100
AcDbEntity
  8
1
  6
Continuous
 62
     7
100
AcDbLine
 10
1375.333882541998
 20
377.4427177154997
 30
0.0
 11
1371.733882541998
 21
449.4427177154993
 31
0.0
  0
LINE
  5
D53
330
DB
100
AcDbEntity
  8
1
  6
Continuous
 62
     7
100
AcDbLine
 10
1386.133882541995
 20
316.8335571561728
 30
0.0
 11
1058.252549767921
 21
316.8335571561728
 31
0.0
  0
LINE
  5
D54
330
DB
100
AcDbEntity
  8
1
  6
Continuous
 62
     7
100
AcDbLine
 10
1386.133882541995
 20
377.4427177154997
 30
0.0
 11
1058.252549767921
 21
377.4427177154993
 31
0.0
  0
LINE
  5
D55
330
DB
100
AcDbEntity
  8
1
  6
Continuous
 62
     7
100
AcDbLine
 10
1058.252549767921
 20
449.4427177154993
 30
0.0
 11
1061.852549767925
 21
377.4427177154993
 31
0.0
  0
LINE
  5
D56
330
DB
100
AcDbEntity
  8
1
  6
Continuous
 62
     7
100
AcDbLine
 10
1058.252549767921
 20
449.4427177154993
 30
0.0
 11
1065.452549767923
 21
456.6427177154992
 31
0.0
  0
LINE
  5
D57
330
DB
100
AcDbEntity
  8
1
  6
Continuous
 62
     7
100
AcDbLine
 10
1065.452549767923
 20
456.6427177154992
 30
0.0
 11
1072.652549767924
 21
449.4427177154993
 31
0.0
  0
LINE
  5
D58
330
DB
100
AcDbEntity
  8
1
  6
Continuous
 62
     7
100
AcDbLine
 10
1072.652549767924
 20
449.4427177154993
 30
0.0
 11
1079.852549767922
 21
456.6427177154992
 31
0.0
  0
LINE
  5
D59
330
DB
100
AcDbEntity
  8
1
  6
Continuous
 62
     7
100
AcDbLine
 10
1079.852549767922
 20
456.6427177154992
 30
0.0
 11
1087.052549767923
 21
449.4427177154993
 31
0.0
  0
LINE
  5
D5A
330
DB
100
AcDbEntity
  8
1
  6
Continuous
 62
     7
100
AcDbLine
 10
1087.052549767923
 20
449.4427177154993
 30
0.0
 11
1094.252549767923
 21
456.6427177154992
 31
0.0
  0
LINE
  5
D5B
330
DB
100
AcDbEntity
  8
1
  6
Continuous
 62
     7
100
AcDbLine
 10
1094.252549767923
 20
456.6427177154992
 30
0.0
 11
1101.452549767922
 21
449.4427177154993
 31
0.0
  0
LINE
  5
D5C
330
DB
100
AcDbEntity
  8
1
  6
Continuous
 62
     7
100
AcDbLine
 10
1101.452549767922
 20
449.4427177154993
 30
0.0
 11
1108.652549767922
 21
456.6427177154992
 31
0.0
  0
LINE
  5
D5D
330
DB
100
AcDbEntity
  8
1
  6
Continuous
 62
     7
100
AcDbLine
 10
1108.652549767922
 20
456.6427177154992
 30
0.0
 11
1115.852549767924
 21
449.4427177154993
 31
0.0
  0
LINE
  5
D5E
330
DB
100
AcDbEntity
  8
1
  6
Continuous
 62
     7
100
AcDbLine
 10
1115.852549767924
 20
449.4427177154993
 30
0.0
 11
1123.052549767925
 21
456.6427177154992
 31
0.0
  0
LINE
  5
D5F
330
DB
100
AcDbEntity
  8
1
  6
Continuous
 62
     7
100
AcDbLine
 10
1123.052549767925
 20
456.6427177154992
 30
0.0
 11
1130.252549767922
 21
449.4427177154993
 31
0.0
  0
LINE
  5
D60
330
DB
100
AcDbEntity
  8
1
  6
Continuous
 62
     7
100
AcDbLine
 10
1130.252549767922
 20
449.4427177154993
 30
0.0
 11
1137.452549767923
 21
456.6427177154992
 31
0.0
  0
LINE
  5
D61
330
DB
100
AcDbEntity
  8
1
  6
Continuous
 62
     7
100
AcDbLine
 10
1137.452549767923
 20
456.6427177154992
 30
0.0
 11
1144.652549767922
 21
449.4427177154993
 31
0.0
  0
LINE
  5
D62
330
DB
100
AcDbEntity
  8
1
  6
Continuous
 62
     7
100
AcDbLine
 10
1144.652549767922
 20
449.4427177154993
 30
0.0
 11
1151.852549767924
 21
456.6427177154992
 31
0.0
  0
LINE
  5
D63
330
DB
100
AcDbEntity
  8
1
  6
Continuous
 62
     7
100
AcDbLine
 10
1151.852549767924
 20
456.6427177154992
 30
0.0
 11
1159.052549767925
 21
449.4427177154993
 31
0.0
  0
LINE
  5
D64
330
DB
100
AcDbEntity
  8
1
  6
Continuous
 62
     7
100
AcDbLine
 10
1159.052549767925
 20
449.4427177154993
 30
0.0
 11
1166.252549767925
 21
456.6427177154992
 31
0.0
  0
LINE
  5
D65
330
DB
100
AcDbEntity
  8
1
  6
Continuous
 62
     7
100
AcDbLine
 10
1166.252549767925
 20
456.6427177154992
 30
0.0
 11
1173.452549767924
 21
449.4427177154993
 31
0.0
  0
LINE
  5
D66
330
DB
100
AcDbEntity
  8
1
  6
Continuous
 62
     7
100
AcDbLine
 10
1076.252549767924
 20
377.4427177154993
 30
0.0
 11
1072.652549767924
 21
449.4427177154993
 31
0.0
  0
LINE
  5
D67
330
DB
100
AcDbEntity
  8
1
  6
Continuous
 62
     7
100
AcDbLine
 10
1087.052549767923
 20
449.4427177154993
 30
0.0
 11
1090.652549767922
 21
377.4427177154993
 31
0.0
  0
LINE
  5
D68
330
DB
100
AcDbEntity
  8
1
  6
Continuous
 62
     7
100
AcDbLine
 10
1105.052549767925
 20
377.4427177154993
 30
0.0
 11
1101.452549767922
 21
449.4427177154986
 31
0.0
  0
LINE
  5
D69
330
DB
100
AcDbEntity
  8
1
  6
Continuous
 62
     7
100
AcDbLine
 10
1115.852549767924
 20
449.4427177154993
 30
0.0
 11
1119.452549767925
 21
377.4427177154993
 31
0.0
  0
LINE
  5
D6A
330
DB
100
AcDbEntity
  8
1
  6
Continuous
 62
     7
100
AcDbLine
 10
1133.852549767927
 20
377.4427177154993
 30
0.0
 11
1130.252549767922
 21
449.4427177154986
 31
0.0
  0
LINE
  5
D6B
330
DB
100
AcDbEntity
  8
1
  6
Continuous
 62
     7
100
AcDbLine
 10
1144.652549767922
 20
449.4427177154993
 30
0.0
 11
1148.252549767923
 21
377.4427177154993
 31
0.0
  0
LINE
  5
D6C
330
DB
100
AcDbEntity
  8
1
  6
Continuous
 62
     7
100
AcDbLine
 10
1162.652549767924
 20
377.4427177154993
 30
0.0
 11
1159.052549767925
 21
449.4427177154993
 31
0.0
  0
LINE
  5
D6D
330
DB
100
AcDbEntity
  8
1
  6
Continuous
 62
     7
100
AcDbLine
 10
1058.252549767921
 20
449.4427177154993
 30
0.0
 11
1058.252549767921
 21
298.2427177154994
 31
0.0
  0
LINE
  5
D6E
330
DB
100
AcDbEntity
  8
1
  6
Continuous
 62
     7
100
AcDbLine
 10
1177.052549767923
 20
377.4427177154993
 30
0.0
 11
1173.452549767924
 21
449.4427177154993
 31
0.0
  0
LINE
  5
D6F
330
DB
100
AcDbEntity
  8
1
  6
Continuous
 62
     7
100
AcDbLine
 10
1173.452549767924
 20
449.4427177154993
 30
0.0
 11
1180.652549767924
 21
456.6427177154992
 31
0.0
  0
LINE
  5
D70
330
DB
100
AcDbEntity
  8
1
  6
Continuous
 62
     7
100
AcDbLine
 10
1058.252549767921
 20
298.2427177154996
 30
0.0
 11
1065.452549767923
 21
305.4427177154993
 31
0.0
  0
LINE
  5
D71
330
DB
100
AcDbEntity
  8
1
  6
Continuous
 62
     7
100
AcDbLine
 10
1065.452549767923
 20
305.4427177154993
 30
0.0
 11
1072.652549767924
 21
298.2427177154996
 31
0.0
  0
LINE
  5
D72
330
DB
100
AcDbEntity
  8
1
  6
Continuous
 62
     7
100
AcDbLine
 10
1072.652549767924
 20
298.2427177154996
 30
0.0
 11
1079.852549767922
 21
305.4427177154993
 31
0.0
  0
LINE
  5
D73
330
DB
100
AcDbEntity
  8
1
  6
Continuous
 62
     7
100
AcDbLine
 10
1079.852549767922
 20
305.4427177154993
 30
0.0
 11
1087.052549767923
 21
298.2427177154996
 31
0.0
  0
LINE
  5
D74
330
DB
100
AcDbEntity
  8
1
  6
Continuous
 62
     7
100
AcDbLine
 10
1087.052549767923
 20
298.2427177154996
 30
0.0
 11
1094.252549767923
 21
305.4427177154993
 31
0.0
  0
LINE
  5
D75
330
DB
100
AcDbEntity
  8
1
  6
Continuous
 62
     7
100
AcDbLine
 10
1094.252549767923
 20
305.4427177154993
 30
0.0
 11
1101.452549767922
 21
298.2427177154996
 31
0.0
  0
LINE
  5
D76
330
DB
100
AcDbEntity
  8
1
  6
Continuous
 62
     7
100
AcDbLine
 10
1101.452549767922
 20
298.2427177154996
 30
0.0
 11
1108.652549767922
 21
305.4427177154993
 31
0.0
  0
LINE
  5
D77
330
DB
100
AcDbEntity
  8
1
  6
Continuous
 62
     7
100
AcDbLine
 10
1108.652549767922
 20
305.4427177154993
 30
0.0
 11
1115.852549767924
 21
298.2427177154996
 31
0.0
  0
LINE
  5
D78
330
DB
100
AcDbEntity
  8
1
  6
Continuous
 62
     7
100
AcDbLine
 10
1115.852549767924
 20
298.2427177154996
 30
0.0
 11
1123.052549767925
 21
305.4427177154993
 31
0.0
  0
LINE
  5
D79
330
DB
100
AcDbEntity
  8
1
  6
Continuous
 62
     7
100
AcDbLine
 10
1123.052549767925
 20
305.4427177154993
 30
0.0
 11
1130.252549767922
 21
298.2427177154996
 31
0.0
  0
LINE
  5
D7A
330
DB
100
AcDbEntity
  8
1
  6
Continuous
 62
     7
100
AcDbLine
 10
1130.252549767922
 20
298.2427177154996
 30
0.0
 11
1137.452549767923
 21
305.4427177154993
 31
0.0
  0
LINE
  5
D7B
330
DB
100
AcDbEntity
  8
1
  6
Continuous
 62
     7
100
AcDbLine
 10
1137.452549767923
 20
305.4427177154993
 30
0.0
 11
1144.652549767922
 21
298.2427177154996
 31
0.0
  0
LINE
  5
D7C
330
DB
100
AcDbEntity
  8
1
  6
Continuous
 62
     7
100
AcDbLine
 10
1144.652549767922
 20
298.2427177154996
 30
0.0
 11
1151.852549767924
 21
305.4427177154993
 31
0.0
  0
LINE
  5
D7D
330
DB
100
AcDbEntity
  8
1
  6
Continuous
 62
     7
100
AcDbLine
 10
1151.852549767924
 20
305.4427177154993
 30
0.0
 11
1159.052549767925
 21
298.2427177154996
 31
0.0
  0
LINE
  5
D7E
330
DB
100
AcDbEntity
  8
1
  6
Continuous
 62
     7
100
AcDbLine
 10
1159.052549767925
 20
298.2427177154996
 30
0.0
 11
1166.252549767927
 21
305.4427177154993
 31
0.0
  0
LINE
  5
D7F
330
DB
100
AcDbEntity
  8
1
  6
Continuous
 62
     7
100
AcDbLine
 10
1166.252549767927
 20
305.4427177154993
 30
0.0
 11
1173.452549767924
 21
298.2427177154996
 31
0.0
  0
LINE
  5
D80
330
DB
100
AcDbEntity
  8
1
  6
Continuous
 62
     7
100
AcDbLine
 10
1173.452549767924
 20
298.2427177154996
 30
0.0
 11
1180.652549767924
 21
305.4427177154993
 31
0.0
  0
LINE
  5
D81
330
DB
100
AcDbEntity
  8
1
  6
Continuous
 62
     7
100
AcDbLine
 10
1180.652549767924
 20
305.4427177154993
 30
0.0
 11
1187.852549767924
 21
298.2427177154994
 31
0.0
  0
LINE
  5
D82
330
DB
100
AcDbEntity
  8
1
  6
Continuous
 62
     7
100
AcDbLine
 10
894.2001159361598
 20
449.4427177154993
 30
0.0
 11
894.2001159361598
 21
298.2427177154996
 31
0.0
  0
LINE
  5
D83
330
DB
100
AcDbEntity
  8
1
  6
Continuous
 62
     7
100
AcDbLine
 10
779.00011593616
 20
449.4427177154993
 30
0.0
 11
782.6001159361598
 21
377.4427177154997
 31
0.0
  0
LINE
  5
D84
330
DB
100
AcDbEntity
  8
1
  6
Continuous
 62
     7
100
AcDbLine
 10
786.2001159361597
 20
305.4427177154996
 30
0.0
 11
793.4001159361598
 21
298.2427177154996
 31
0.0
  0
LINE
  5
D85
330
DB
100
AcDbEntity
  8
1
  6
Continuous
 62
     7
100
AcDbLine
 10
793.4001159361598
 20
298.2427177154996
 30
0.0
 11
800.6001159361606
 21
305.4427177154996
 31
0.0
  0
LINE
  5
D86
330
DB
100
AcDbEntity
  8
1
  6
Continuous
 62
     7
100
AcDbLine
 10
800.6001159361606
 20
305.4427177154996
 30
0.0
 11
807.8001159361607
 21
298.2427177154996
 31
0.0
  0
LINE
  5
D87
330
DB
100
AcDbEntity
  8
1
  6
Continuous
 62
     7
100
AcDbLine
 10
807.8001159361607
 20
298.2427177154996
 30
0.0
 11
815.00011593616
 21
305.4427177154996
 31
0.0
  0
LINE
  5
D88
330
DB
100
AcDbEntity
  8
1
  6
Continuous
 62
     7
100
AcDbLine
 10
815.00011593616
 20
305.4427177154996
 30
0.0
 11
822.2001159361598
 21
298.2427177154996
 31
0.0
  0
LINE
  5
D89
330
DB
100
AcDbEntity
  8
1
  6
Continuous
 62
     7
100
AcDbLine
 10
822.2001159361598
 20
298.2427177154996
 30
0.0
 11
829.4001159361599
 21
305.4427177154996
 31
0.0
  0
LINE
  5
D8A
330
DB
100
AcDbEntity
  8
1
  6
Continuous
 62
     7
100
AcDbLine
 10
829.4001159361599
 20
305.4427177154996
 30
0.0
 11
836.6001159361598
 21
298.2427177154996
 31
0.0
  0
LINE
  5
D8B
330
DB
100
AcDbEntity
  8
1
  6
Continuous
 62
     7
100
AcDbLine
 10
836.6001159361598
 20
298.2427177154996
 30
0.0
 11
843.8001159361599
 21
305.4427177154996
 31
0.0
  0
LINE
  5
D8C
330
DB
100
AcDbEntity
  8
1
  6
Continuous
 62
     7
100
AcDbLine
 10
843.8001159361599
 20
305.4427177154996
 30
0.0
 11
851.0001159361602
 21
298.2427177154996
 31
0.0
  0
LINE
  5
D8D
330
DB
100
AcDbEntity
  8
1
  6
Continuous
 62
     7
100
AcDbLine
 10
851.0001159361602
 20
298.2427177154996
 30
0.0
 11
858.2001159361597
 21
305.4427177154996
 31
0.0
  0
LINE
  5
D8E
330
DB
100
AcDbEntity
  8
1
  6
Continuous
 62
     7
100
AcDbLine
 10
858.2001159361597
 20
305.4427177154996
 30
0.0
 11
865.4001159361598
 21
298.2427177154996
 31
0.0
  0
LINE
  5
D8F
330
DB
100
AcDbEntity
  8
1
  6
Continuous
 62
     7
100
AcDbLine
 10
865.4001159361598
 20
298.2427177154996
 30
0.0
 11
872.6001159361597
 21
305.4427177154996
 31
0.0
  0
LINE
  5
D90
330
DB
100
AcDbEntity
  8
1
  6
Continuous
 62
     7
100
AcDbLine
 10
872.6001159361597
 20
305.4427177154996
 30
0.0
 11
879.80011593616
 21
298.2427177154996
 31
0.0
  0
LINE
  5
D91
330
DB
100
AcDbEntity
  8
1
  6
Continuous
 62
     7
100
AcDbLine
 10
879.80011593616
 20
298.2427177154996
 30
0.0
 11
887.0001159361597
 21
305.4427177154996
 31
0.0
  0
LINE
  5
D92
330
DB
100
AcDbEntity
  8
1
  6
Continuous
 62
     7
100
AcDbLine
 10
779.00011593616
 20
449.4427177154993
 30
0.0
 11
786.2001159361597
 21
456.6427177154997
 31
0.0
  0
LINE
  5
D93
330
DB
100
AcDbEntity
  8
1
  6
Continuous
 62
     7
100
AcDbLine
 10
786.2001159361597
 20
456.6427177154997
 30
0.0
 11
793.4001159361598
 21
449.4427177154993
 31
0.0
  0
LINE
  5
D94
330
DB
100
AcDbEntity
  8
1
  6
Continuous
 62
     7
100
AcDbLine
 10
793.4001159361598
 20
449.4427177154993
 30
0.0
 11
800.6001159361606
 21
456.6427177154997
 31
0.0
  0
LINE
  5
D95
330
DB
100
AcDbEntity
  8
1
  6
Continuous
 62
     7
100
AcDbLine
 10
800.6001159361606
 20
456.6427177154997
 30
0.0
 11
807.8001159361607
 21
449.4427177154993
 31
0.0
  0
LINE
  5
D96
330
DB
100
AcDbEntity
  8
1
  6
Continuous
 62
     7
100
AcDbLine
 10
807.8001159361607
 20
449.4427177154993
 30
0.0
 11
815.00011593616
 21
456.6427177154997
 31
0.0
  0
LINE
  5
D97
330
DB
100
AcDbEntity
  8
1
  6
Continuous
 62
     7
100
AcDbLine
 10
815.00011593616
 20
456.6427177154997
 30
0.0
 11
822.2001159361598
 21
449.4427177154993
 31
0.0
  0
LINE
  5
D98
330
DB
100
AcDbEntity
  8
1
  6
Continuous
 62
     7
100
AcDbLine
 10
822.2001159361598
 20
449.4427177154993
 30
0.0
 11
829.4001159361599
 21
456.6427177154997
 31
0.0
  0
LINE
  5
D99
330
DB
100
AcDbEntity
  8
1
  6
Continuous
 62
     7
100
AcDbLine
 10
829.4001159361599
 20
456.6427177154997
 30
0.0
 11
836.6001159361598
 21
449.4427177154993
 31
0.0
  0
LINE
  5
D9A
330
DB
100
AcDbEntity
  8
1
  6
Continuous
 62
     7
100
AcDbLine
 10
836.6001159361598
 20
449.4427177154993
 30
0.0
 11
843.8001159361599
 21
456.6427177154997
 31
0.0
  0
LINE
  5
D9B
330
DB
100
AcDbEntity
  8
1
  6
Continuous
 62
     7
100
AcDbLine
 10
843.8001159361599
 20
456.6427177154997
 30
0.0
 11
851.0001159361602
 21
449.4427177154993
 31
0.0
  0
LINE
  5
D9C
330
DB
100
AcDbEntity
  8
1
  6
Continuous
 62
     7
100
AcDbLine
 10
851.0001159361602
 20
449.4427177154993
 30
0.0
 11
858.2001159361597
 21
456.6427177154997
 31
0.0
  0
LINE
  5
D9D
330
DB
100
AcDbEntity
  8
1
  6
Continuous
 62
     7
100
AcDbLine
 10
858.2001159361597
 20
456.6427177154997
 30
0.0
 11
865.4001159361598
 21
449.4427177154993
 31
0.0
  0
LINE
  5
D9E
330
DB
100
AcDbEntity
  8
1
  6
Continuous
 62
     7
100
AcDbLine
 10
865.4001159361598
 20
449.4427177154993
 30
0.0
 11
872.6001159361597
 21
456.6427177154997
 31
0.0
  0
LINE
  5
D9F
330
DB
100
AcDbEntity
  8
1
  6
Continuous
 62
     7
100
AcDbLine
 10
872.6001159361597
 20
456.6427177154997
 30
0.0
 11
879.80011593616
 21
449.4427177154993
 31
0.0
  0
LINE
  5
DA0
330
DB
100
AcDbEntity
  8
1
  6
Continuous
 62
     7
100
AcDbLine
 10
879.80011593616
 20
449.4427177154993
 30
0.0
 11
887.0001159361597
 21
456.6427177154997
 31
0.0
  0
LINE
  5
DA1
330
DB
100
AcDbEntity
  8
1
  6
Continuous
 62
     7
100
AcDbLine
 10
887.0001159361597
 20
456.6427177154997
 30
0.0
 11
894.2001159361598
 21
449.4427177154993
 31
0.0
  0
LINE
  5
DA2
330
DB
100
AcDbEntity
  8
1
  6
Continuous
 62
     7
100
AcDbLine
 10
797.00011593616
 20
377.4427177154997
 30
0.0
 11
793.4001159361598
 21
449.4427177154993
 31
0.0
  0
LINE
  5
DA3
330
DB
100
AcDbEntity
  8
1
  6
Continuous
 62
     7
100
AcDbLine
 10
807.8001159361598
 20
449.4427177154993
 30
0.0
 11
811.4001159361601
 21
377.4427177154997
 31
0.0
  0
LINE
  5
DA4
330
DB
100
AcDbEntity
  8
1
  6
Continuous
 62
     7
100
AcDbLine
 10
887.0001159361597
 20
305.4427177154996
 30
0.0
 11
894.2001159361598
 21
298.2427177154996
 31
0.0
  0
LINE
  5
DA5
330
DB
100
AcDbEntity
  8
1
  6
Continuous
 62
     7
100
AcDbLine
 10
771.8001159361598
 20
456.6427177154997
 30
0.0
 11
779.00011593616
 21
449.4427177154993
 31
0.0
  0
LINE
  5
DA6
330
DB
100
AcDbEntity
  8
1
  6
Continuous
 62
     7
100
AcDbLine
 10
825.8001159361597
 20
377.4427177154997
 30
0.0
 11
822.2001159361603
 21
449.4427177154991
 31
0.0
  0
LINE
  5
DA7
330
DB
100
AcDbEntity
  8
1
  6
Continuous
 62
     7
100
AcDbLine
 10
836.6001159361598
 20
449.4427177154993
 30
0.0
 11
840.2001159361597
 21
377.4427177154997
 31
0.0
  0
LINE
  5
DA8
330
DB
100
AcDbEntity
  8
1
  6
Continuous
 62
     7
100
AcDbLine
 10
854.6001159361598
 20
377.4427177154997
 30
0.0
 11
851.0001159361602
 21
449.4427177154991
 31
0.0
  0
LINE
  5
DA9
330
DB
100
AcDbEntity
  8
1
  6
Continuous
 62
     7
100
AcDbLine
 10
865.4001159361598
 20
449.4427177154993
 30
0.0
 11
869.00011593616
 21
377.4427177154997
 31
0.0
  0
LINE
  5
DAA
330
DB
100
AcDbEntity
  8
1
  6
Continuous
 62
     7
100
AcDbLine
 10
883.4001159361598
 20
377.4427177154997
 30
0.0
 11
879.80011593616
 21
449.4427177154993
 31
0.0
  0
LINE
  5
DAB
330
DB
100
AcDbEntity
  8
1
  6
Continuous
 62
     7
100
AcDbLine
 10
894.2001159361598
 20
316.8335571561728
 30
0.0
 11
649.4001159361602
 21
316.8335571561732
 31
0.0
  0
LINE
  5
DAC
330
DB
100
AcDbEntity
  8
1
  6
Continuous
 62
     7
100
AcDbLine
 10
894.2001159361598
 20
377.4427177154997
 30
0.0
 11
649.4001159361602
 21
377.4427177154993
 31
0.0
  0
LINE
  5
DAD
330
DB
100
AcDbEntity
  8
1
  6
Continuous
 62
     7
100
AcDbLine
 10
649.4001159361602
 20
449.4427177154993
 30
0.0
 11
653.0001159361598
 21
377.4427177154997
 31
0.0
  0
LINE
  5
DAE
330
DB
100
AcDbEntity
  8
1
  6
Continuous
 62
     7
100
AcDbLine
 10
649.4001159361602
 20
449.4427177154993
 30
0.0
 11
656.6001159361599
 21
456.6427177154997
 31
0.0
  0
LINE
  5
DAF
330
DB
100
AcDbEntity
  8
1
  6
Continuous
 62
     7
100
AcDbLine
 10
656.6001159361599
 20
456.6427177154997
 30
0.0
 11
663.8001159361603
 21
449.4427177154993
 31
0.0
  0
LINE
  5
DB0
330
DB
100
AcDbEntity
  8
1
  6
Continuous
 62
     7
100
AcDbLine
 10
663.8001159361603
 20
449.4427177154993
 30
0.0
 11
671.00011593616
 21
456.6427177154997
 31
0.0
  0
LINE
  5
DB1
330
DB
100
AcDbEntity
  8
1
  6
Continuous
 62
     7
100
AcDbLine
 10
671.00011593616
 20
456.6427177154997
 30
0.0
 11
678.2001159361603
 21
449.4427177154993
 31
0.0
  0
LINE
  5
DB2
330
DB
100
AcDbEntity
  8
1
  6
Continuous
 62
     7
100
AcDbLine
 10
678.2001159361603
 20
449.4427177154993
 30
0.0
 11
685.4001159361603
 21
456.6427177154997
 31
0.0
  0
LINE
  5
DB3
330
DB
100
AcDbEntity
  8
1
  6
Continuous
 62
     7
100
AcDbLine
 10
685.4001159361603
 20
456.6427177154997
 30
0.0
 11
692.6001159361605
 21
449.4427177154993
 31
0.0
  0
LINE
  5
DB4
330
DB
100
AcDbEntity
  8
1
  6
Continuous
 62
     7
100
AcDbLine
 10
692.6001159361605
 20
449.4427177154993
 30
0.0
 11
699.8001159361604
 21
456.6427177154997
 31
0.0
  0
LINE
  5
DB5
330
DB
100
AcDbEntity
  8
1
  6
Continuous
 62
     7
100
AcDbLine
 10
699.8001159361604
 20
456.6427177154997
 30
0.0
 11
707.0001159361598
 21
449.4427177154993
 31
0.0
  0
LINE
  5
DB6
330
DB
100
AcDbEntity
  8
1
  6
Continuous
 62
     7
100
AcDbLine
 10
707.0001159361598
 20
449.4427177154993
 30
0.0
 11
714.2001159361602
 21
456.6427177154997
 31
0.0
  0
LINE
  5
DB7
330
DB
100
AcDbEntity
  8
1
  6
Continuous
 62
     7
100
AcDbLine
 10
714.2001159361602
 20
456.6427177154997
 30
0.0
 11
721.4001159361604
 21
449.4427177154993
 31
0.0
  0
LINE
  5
DB8
330
DB
100
AcDbEntity
  8
1
  6
Continuous
 62
     7
100
AcDbLine
 10
721.4001159361604
 20
449.4427177154993
 30
0.0
 11
728.6001159361598
 21
456.6427177154997
 31
0.0
  0
LINE
  5
DB9
330
DB
100
AcDbEntity
  8
1
  6
Continuous
 62
     7
100
AcDbLine
 10
728.6001159361598
 20
456.6427177154997
 30
0.0
 11
735.8001159361604
 21
449.4427177154993
 31
0.0
  0
LINE
  5
DBA
330
DB
100
AcDbEntity
  8
1
  6
Continuous
 62
     7
100
AcDbLine
 10
735.8001159361604
 20
449.4427177154993
 30
0.0
 11
743.00011593616
 21
456.6427177154997
 31
0.0
  0
LINE
  5
DBB
330
DB
100
AcDbEntity
  8
1
  6
Continuous
 62
     7
100
AcDbLine
 10
743.00011593616
 20
456.6427177154997
 30
0.0
 11
750.2001159361602
 21
449.4427177154993
 31
0.0
  0
LINE
  5
DBC
330
DB
100
AcDbEntity
  8
1
  6
Continuous
 62
     7
100
AcDbLine
 10
750.2001159361602
 20
449.4427177154993
 30
0.0
 11
757.4001159361601
 21
456.6427177154997
 31
0.0
  0
LINE
  5
DBD
330
DB
100
AcDbEntity
  8
1
  6
Continuous
 62
     7
100
AcDbLine
 10
757.4001159361601
 20
456.6427177154997
 30
0.0
 11
764.6001159361597
 21
449.4427177154993
 31
0.0
  0
LINE
  5
DBE
330
DB
100
AcDbEntity
  8
1
  6
Continuous
 62
     7
100
AcDbLine
 10
667.4001159361603
 20
377.4427177154997
 30
0.0
 11
663.8001159361603
 21
449.4427177154993
 31
0.0
  0
LINE
  5
DBF
330
DB
100
AcDbEntity
  8
1
  6
Continuous
 62
     7
100
AcDbLine
 10
678.2001159361603
 20
449.4427177154993
 30
0.0
 11
681.8001159361604
 21
377.4427177154997
 31
0.0
  0
LINE
  5
DC0
330
DB
100
AcDbEntity
  8
1
  6
Continuous
 62
     7
100
AcDbLine
 10
696.2001159361598
 20
377.4427177154997
 30
0.0
 11
692.6001159361605
 21
449.4427177154991
 31
0.0
  0
LINE
  5
DC1
330
DB
100
AcDbEntity
  8
1
  6
Continuous
 62
     7
100
AcDbLine
 10
707.0001159361598
 20
449.4427177154993
 30
0.0
 11
710.6001159361603
 21
377.4427177154997
 31
0.0
  0
LINE
  5
DC2
330
DB
100
AcDbEntity
  8
1
  6
Continuous
 62
     7
100
AcDbLine
 10
725.0001159361604
 20
377.4427177154997
 30
0.0
 11
721.4001159361604
 21
449.4427177154991
 31
0.0
  0
LINE
  5
DC3
330
DB
100
AcDbEntity
  8
1
  6
Continuous
 62
     7
100
AcDbLine
 10
735.8001159361604
 20
449.4427177154993
 30
0.0
 11
739.4001159361598
 21
377.4427177154997
 31
0.0
  0
LINE
  5
DC4
330
DB
100
AcDbEntity
  8
1
  6
Continuous
 62
     7
100
AcDbLine
 10
753.8001159361598
 20
377.4427177154997
 30
0.0
 11
750.2001159361598
 21
449.4427177154993
 31
0.0
  0
LINE
  5
DC5
330
DB
100
AcDbEntity
  8
1
  6
Continuous
 62
     7
100
AcDbLine
 10
649.4001159361602
 20
449.4427177154993
 30
0.0
 11
649.4001159361602
 21
298.2427177154996
 31
0.0
  0
LINE
  5
DC6
330
DB
100
AcDbEntity
  8
1
  6
Continuous
 62
     7
100
AcDbLine
 10
768.2001159361598
 20
377.4427177154997
 30
0.0
 11
764.6001159361597
 21
449.4427177154998
 31
0.0
  0
LINE
  5
DC7
330
DB
100
AcDbEntity
  8
1
  6
Continuous
 62
     7
100
AcDbLine
 10
764.6001159361603
 20
449.4427177154998
 30
0.0
 11
771.8001159361598
 21
456.6427177154997
 31
0.0
  0
LINE
  5
DC8
330
DB
100
AcDbEntity
  8
1
  6
Continuous
 62
     7
100
AcDbLine
 10
649.4001159361602
 20
298.2427177154998
 30
0.0
 11
656.6001159361599
 21
305.4427177154996
 31
0.0
  0
LINE
  5
DC9
330
DB
100
AcDbEntity
  8
1
  6
Continuous
 62
     7
100
AcDbLine
 10
656.6001159361599
 20
305.4427177154996
 30
0.0
 11
663.8001159361603
 21
298.2427177154998
 31
0.0
  0
LINE
  5
DCA
330
DB
100
AcDbEntity
  8
1
  6
Continuous
 62
     7
100
AcDbLine
 10
663.8001159361603
 20
298.2427177154998
 30
0.0
 11
671.00011593616
 21
305.4427177154996
 31
0.0
  0
LINE
  5
DCB
330
DB
100
AcDbEntity
  8
1
  6
Continuous
 62
     7
100
AcDbLine
 10
671.00011593616
 20
305.4427177154996
 30
0.0
 11
678.2001159361603
 21
298.2427177154998
 31
0.0
  0
LINE
  5
DCC
330
DB
100
AcDbEntity
  8
1
  6
Continuous
 62
     7
100
AcDbLine
 10
678.2001159361603
 20
298.2427177154998
 30
0.0
 11
685.4001159361603
 21
305.4427177154996
 31
0.0
  0
LINE
  5
DCD
330
DB
100
AcDbEntity
  8
1
  6
Continuous
 62
     7
100
AcDbLine
 10
685.4001159361603
 20
305.4427177154996
 30
0.0
 11
692.6001159361605
 21
298.2427177154998
 31
0.0
  0
LINE
  5
DCE
330
DB
100
AcDbEntity
  8
1
  6
Continuous
 62
     7
100
AcDbLine
 10
692.6001159361605
 20
298.2427177154998
 30
0.0
 11
699.8001159361606
 21
305.4427177154996
 31
0.0
  0
LINE
  5
DCF
330
DB
100
AcDbEntity
  8
1
  6
Continuous
 62
     7
100
AcDbLine
 10
699.8001159361606
 20
305.4427177154996
 30
0.0
 11
707.0001159361598
 21
298.2427177154998
 31
0.0
  0
LINE
  5
DD0
330
DB
100
AcDbEntity
  8
1
  6
Continuous
 62
     7
100
AcDbLine
 10
707.0001159361598
 20
298.2427177154998
 30
0.0
 11
714.2001159361602
 21
305.4427177154996
 31
0.0
  0
LINE
  5
DD1
330
DB
100
AcDbEntity
  8
1
  6
Continuous
 62
     7
100
AcDbLine
 10
714.2001159361602
 20
305.4427177154996
 30
0.0
 11
721.4001159361604
 21
298.2427177154998
 31
0.0
  0
LINE
  5
DD2
330
DB
100
AcDbEntity
  8
1
  6
Continuous
 62
     7
100
AcDbLine
 10
721.4001159361604
 20
298.2427177154998
 30
0.0
 11
728.6001159361607
 21
305.4427177154996
 31
0.0
  0
LINE
  5
DD3
330
DB
100
AcDbEntity
  8
1
  6
Continuous
 62
     7
100
AcDbLine
 10
728.6001159361607
 20
305.4427177154996
 30
0.0
 11
735.8001159361609
 21
298.2427177154998
 31
0.0
  0
LINE
  5
DD4
330
DB
100
AcDbEntity
  8
1
  6
Continuous
 62
     7
100
AcDbLine
 10
735.8001159361609
 20
298.2427177154998
 30
0.0
 11
743.00011593616
 21
305.4427177154996
 31
0.0
  0
LINE
  5
DD5
330
DB
100
AcDbEntity
  8
1
  6
Continuous
 62
     7
100
AcDbLine
 10
743.00011593616
 20
305.4427177154996
 30
0.0
 11
750.2001159361602
 21
298.2427177154998
 31
0.0
  0
LINE
  5
DD6
330
DB
100
AcDbEntity
  8
1
  6
Continuous
 62
     7
100
AcDbLine
 10
750.2001159361602
 20
298.2427177154998
 30
0.0
 11
757.4001159361603
 21
305.4427177154996
 31
0.0
  0
LINE
  5
DD7
330
DB
100
AcDbEntity
  8
1
  6
Continuous
 62
     7
100
AcDbLine
 10
757.4001159361603
 20
305.4427177154996
 30
0.0
 11
764.6001159361603
 21
298.2427177154998
 31
0.0
  0
LINE
  5
DD8
330
DB
100
AcDbEntity
  8
1
  6
Continuous
 62
     7
100
AcDbLine
 10
764.6001159361603
 20
298.2427177154998
 30
0.0
 11
771.8001159361603
 21
305.4427177154996
 31
0.0
  0
LINE
  5
DD9
330
DB
100
AcDbEntity
  8
1
  6
Continuous
 62
     7
100
AcDbLine
 10
779.00011593616
 20
298.2427177154996
 30
0.0
 11
786.2001159361597
 21
305.4427177154993
 31
0.0
  0
LINE
  5
DDA
330
DB
100
AcDbEntity
  8
1
  6
Continuous
 62
     7
100
AcDbLine
 10
771.8001159361603
 20
305.4427177155001
 30
0.0
 11
779.00011593616
 21
298.2427177155003
 31
0.0
  0
LINE
  5
DDB
330
DB
100
AcDbEntity
  8
1
  6
Continuous
 62
     3
100
AcDbLine
 10
1336.611037921799
 20
903.7507545469322
 30
0.0
 11
1336.611037921799
 21
979.8989461981619
 31
0.0
  0
LINE
  5
DDC
330
DB
100
AcDbEntity
  8
1
  6
Continuous
 62
     3
100
AcDbLine
 10
680.3115957974577
 20
903.7507545469322
 30
0.0
 11
680.3115957974577
 21
979.8989461981619
 31
0.0
  0
LINE
  5
DDD
330
DB
100
AcDbEntity
  8
1
  6
Continuous
 62
     3
100
AcDbLine
 10
680.3115957974577
 20
963.500306293495
 30
0.0
 11
704.0240957974575
 21
956.9440562934952
 31
0.0
  0
LINE
  5
DDE
330
DB
100
AcDbEntity
  8
1
  6
Continuous
 62
     3
100
AcDbLine
 10
680.3115957974577
 20
963.500306293495
 30
0.0
 11
704.0240957974575
 21
970.0565562934952
 31
0.0
  0
LINE
  5
DDF
330
DB
100
AcDbEntity
  8
1
  6
Continuous
 62
     3
100
AcDbLine
 10
704.0240957974575
 20
970.0565562934952
 30
0.0
 11
704.0240957974575
 21
956.9440562934952
 31
0.0
  0
LINE
  5
DE0
330
DB
100
AcDbEntity
  8
1
  6
Continuous
 62
     3
100
AcDbLine
 10
1336.611037921799
 20
963.500306293495
 30
0.0
 11
1312.898537921794
 21
970.0565562934952
 31
0.0
  0
LINE
  5
DE1
330
DB
100
AcDbEntity
  8
1
  6
Continuous
 62
     3
100
AcDbLine
 10
1336.611037921799
 20
963.500306293495
 30
0.0
 11
1312.898537921794
 21
956.9440562934952
 31
0.0
  0
LINE
  5
DE2
330
DB
100
AcDbEntity
  8
1
  6
Continuous
 62
     3
100
AcDbLine
 10
1312.898537921794
 20
956.9440562934952
 30
0.0
 11
1312.898537921794
 21
970.0565562934952
 31
0.0
  0
LINE
  5
DE3
330
DB
100
AcDbEntity
  8
1
  6
Continuous
 62
     3
100
AcDbLine
 10
704.0240957974575
 20
963.500306293495
 30
0.0
 11
1312.898537921794
 21
963.500306293495
 31
0.0
  0
LINE
  5
DE5
330
DB
100
AcDbEntity
  8
1
  6
Continuous
 62
     3
100
AcDbLine
 10
894.209618673182
 20
457.5582242626297
 30
0.0
 11
894.209618673182
 21
517.2348745499248
 31
0.0
  0
LINE
  5
DE6
330
DB
100
AcDbEntity
  8
1
  6
Continuous
 62
     3
100
AcDbLine
 10
647.7136967248825
 20
457.5582242626297
 30
0.0
 11
647.7136967248825
 21
517.2348745499248
 31
0.0
  0
LINE
  5
DE7
330
DB
100
AcDbEntity
  8
1
  6
Continuous
 62
     3
100
AcDbLine
 10
647.7136967248825
 20
500.836234645257
 30
0.0
 11
671.4261967248826
 21
494.2799846452571
 31
0.0
  0
LINE
  5
DE8
330
DB
100
AcDbEntity
  8
1
  6
Continuous
 62
     3
100
AcDbLine
 10
647.7136967248825
 20
500.836234645257
 30
0.0
 11
671.4261967248826
 21
507.3924846452576
 31
0.0
  0
LINE
  5
DE9
330
DB
100
AcDbEntity
  8
1
  6
Continuous
 62
     3
100
AcDbLine
 10
671.4261967248826
 20
507.3924846452576
 30
0.0
 11
671.4261967248826
 21
494.2799846452571
 31
0.0
  0
LINE
  5
DEA
330
DB
100
AcDbEntity
  8
1
  6
Continuous
 62
     3
100
AcDbLine
 10
894.209618673182
 20
500.836234645257
 30
0.0
 11
870.497118673181
 21
507.3924846452576
 31
0.0
  0
LINE
  5
DEB
330
DB
100
AcDbEntity
  8
1
  6
Continuous
 62
     3
100
AcDbLine
 10
894.209618673182
 20
500.836234645257
 30
0.0
 11
870.497118673181
 21
494.2799846452571
 31
0.0
  0
LINE
  5
DEC
330
DB
100
AcDbEntity
  8
1
  6
Continuous
 62
     3
100
AcDbLine
 10
870.497118673181
 20
494.2799846452571
 30
0.0
 11
870.497118673181
 21
507.3924846452576
 31
0.0
  0
LINE
  5
DED
330
DB
100
AcDbEntity
  8
1
  6
Continuous
 62
     3
100
AcDbLine
 10
671.4261967248826
 20
500.836234645257
 30
0.0
 11
870.497118673181
 21
500.836234645257
 31
0.0
  0
LINE
  5
DEF
330
DB
100
AcDbEntity
  8
1
  6
Continuous
 62
     3
100
AcDbLine
 10
1386.179978884513
 20
458.8393519328816
 30
0.0
 11
1386.179978884513
 21
518.5160022201761
 31
0.0
  0
LINE
  5
DF0
330
DB
100
AcDbEntity
  8
1
  6
Continuous
 62
     3
100
AcDbLine
 10
1057.853370690643
 20
458.8393519328808
 30
0.0
 11
1057.853370690643
 21
518.5160022201754
 31
0.0
  0
LINE
  5
DF1
330
DB
100
AcDbEntity
  8
1
  6
Continuous
 62
     3
100
AcDbLine
 10
1057.853370690643
 20
502.1173623155083
 30
0.0
 11
1081.565870690637
 21
495.5611123155081
 31
0.0
  0
LINE
  5
DF2
330
DB
100
AcDbEntity
  8
1
  6
Continuous
 62
     3
100
AcDbLine
 10
1057.853370690643
 20
502.1173623155083
 30
0.0
 11
1081.565870690637
 21
508.673612315508
 31
0.0
  0
LINE
  5
DF3
330
DB
100
AcDbEntity
  8
1
  6
Continuous
 62
     3
100
AcDbLine
 10
1081.565870690637
 20
508.673612315508
 30
0.0
 11
1081.565870690637
 21
495.5611123155081
 31
0.0
  0
LINE
  5
DF4
330
DB
100
AcDbEntity
  8
1
  6
Continuous
 62
     3
100
AcDbLine
 10
1386.179978884513
 20
502.1173623155089
 30
0.0
 11
1362.467478884511
 21
508.673612315509
 31
0.0
  0
LINE
  5
DF5
330
DB
100
AcDbEntity
  8
1
  6
Continuous
 62
     3
100
AcDbLine
 10
1386.179978884513
 20
502.1173623155089
 30
0.0
 11
1362.467478884511
 21
495.5611123155089
 31
0.0
  0
LINE
  5
DF6
330
DB
100
AcDbEntity
  8
1
  6
Continuous
 62
     3
100
AcDbLine
 10
1362.467478884511
 20
495.5611123155089
 30
0.0
 11
1362.467478884511
 21
508.673612315509
 31
0.0
  0
LINE
  5
DF7
330
DB
100
AcDbEntity
  8
1
  6
Continuous
 62
     3
100
AcDbLine
 10
1081.565870690637
 20
502.1173623155083
 30
0.0
 11
1362.467478884511
 21
502.1173623155089
 31
0.0
  0
LINE
  5
DFC
330
DB
100
AcDbEntity
  8
1
  6
Continuous
 62
     7
100
AcDbLine
 10
385.5559140855421
 20
439.7659198320832
 30
0.0
 11
385.5559140855421
 21
315.1195155989151
 31
0.0
  0
LINE
  5
DFD
330
DB
100
AcDbEntity
  8
1
  6
Continuous
 62
     7
100
AcDbLine
 10
398.5059365721527
 20
456.6427177154992
 30
0.0
 11
492.3762022655867
 21
456.6427177154992
 31
0.0
  0
LINE
  5
DFE
330
DB
100
AcDbEntity
  8
1
  6
Continuous
 62
     7
100
AcDbLine
 10
398.5059365721537
 20
298.2427177154981
 30
0.0
 11
489.5842476252234
 21
298.2427177154992
 31
0.0
  0
LINE
  5
DFF
330
DB
100
AcDbEntity
  8
1
  6
Continuous
 62
     7
100
AcDbLine
 10
385.5559140855421
 20
316.8335571561724
 30
0.0
 11
486.5159858835717
 21
316.8335571561728
 31
0.0
  0
LINE
  5
E0A
330
DB
100
AcDbEntity
  8
1
  6
Continuous
 62
     7
100
AcDbLine
 10
385.5559140855421
 20
377.4427177154993
 30
0.0
 11
476.5129535228624
 21
377.4427177154993
 31
0.0
  0
LINE
  5
E0B
330
DB
100
AcDbEntity
  8
1
  6
Continuous
 62
     7
100
AcDbLine
 10
385.5559140855421
 20
439.7659198320832
 30
0.0
 11
398.5059365721527
 21
456.6427177154992
 31
0.0
  0
LINE
  5
E0C
330
DB
100
AcDbEntity
  8
1
  6
Continuous
 62
     3
100
AcDbLine
 10
390.1294133314586
 20
553.8690990433991
 30
0.0
 11
414.2606133314584
 21
558.6565990433979
 31
0.0
  0
LINE
  5
E0D
330
DB
100
AcDbEntity
  8
1
  6
Continuous
 62
     3
100
AcDbLine
 10
390.1294133314586
 20
553.8690990433991
 30
0.0
 11
413.2918133314579
 21
545.5815990433997
 31
0.0
  0
LINE
  5
E0E
330
DB
100
AcDbEntity
  8
1
  6
Continuous
 62
     3
100
AcDbLine
 10
455.8294133314582
 20
531.9003990433996
 30
0.0
 11
432.154413331458
 21
538.5877990433991
 31
0.0
  0
LINE
  5
E0F
330
DB
100
AcDbEntity
  8
1
  6
Continuous
 62
     3
100
AcDbLine
 10
455.8294133314582
 20
531.9003990433996
 30
0.0
 11
438.9544133314585
 21
549.7940990433995
 31
0.0
  0
LINE
  5
E10
330
DB
100
AcDbEntity
  8
1
  6
Continuous
 62
     3
100
AcDbLine
 10
432.154413331458
 20
538.5877990433991
 30
0.0
 11
438.9544133314585
 21
549.7940990433995
 31
0.0
  0
LINE
  5
E11
330
DB
100
AcDbEntity
  8
1
  6
Continuous
 62
     3
100
AcDbLine
 10
414.2606133314584
 20
558.6565990433979
 30
0.0
 11
413.2918133314579
 21
545.5815990433997
 31
0.0
  0
LINE
  5
E12
330
DB
100
AcDbEntity
  8
1
  6
Continuous
 62
     3
100
AcDbLine
 10
460.7524462694356
 20
538.4378998218708
 30
0.0
 11
405.736021230296
 21
465.3861474075201
 31
0.0
  0
LINE
  5
E13
330
DB
100
AcDbEntity
  8
1
  6
Continuous
 62
     3
100
AcDbLine
 10
413.7762133314581
 20
552.1190990433986
 30
0.0
 11
424.7750175036343
 21
548.2303047993196
 31
0.0
  0
LINE
  5
E14
330
DB
100
AcDbEntity
  8
1
  6
Continuous
 62
     3
100
AcDbLine
 10
424.7750175036343
 20
548.2303047993196
 30
0.0
 11
435.5544133314583
 21
544.1909490433991
 31
0.0
  0
LINE
  5
E15
330
DB
100
AcDbEntity
  8
FLAN1$0$1
  6
Continuous
 62
     3
100
AcDbLine
 10
389.0107126253558
 20
459.7027544349209
 30
0.0
 11
389.0107126253558
 21
564.5570797673922
 31
0.0
  0
LINE
  5
E16
330
DB
100
AcDbEntity
  8
1
  6
Continuous
 62
     7
100
AcDbLine
 10
385.5559140855421
 20
315.1195155989151
 30
0.0
 11
398.5059365721537
 21
298.2427177154981
 31
0.0
  0
LINE
  5
E17
330
DB
100
AcDbEntity
  8
1
  6
Continuous
 62
     7
100
AcDbLine
 10
386.2310707920773
 20
898.6647915611824
 30
0.0
 11
386.2310707920773
 21
740.2647915611821
 31
0.0
  0
LINE
  5
E18
330
DB
100
AcDbEntity
  8
1
  6
Continuous
 62
     7
100
AcDbLine
 10
386.2310707920773
 20
898.6647915611824
 30
0.0
 11
493.6594494319503
 21
898.6647915611824
 31
0.0
  0
LINE
  5
E19
330
DB
100
AcDbEntity
  8
1
  6
Continuous
 62
     7
100
AcDbLine
 10
386.2310707920773
 20
740.2647915611821
 30
0.0
 11
488.8081256699438
 21
740.2647915611825
 31
0.0
  0
LINE
  5
E1A
330
DB
100
AcDbEntity
  8
1
  6
Continuous
 62
     7
100
AcDbLine
 10
386.2310707920773
 20
758.8556310018557
 30
0.0
 11
485.7398639282923
 21
758.8556310018564
 31
0.0
  0
LINE
  5
E1B
330
DB
100
AcDbEntity
  8
1
  6
Continuous
 62
     7
100
AcDbLine
 10
386.2310707920773
 20
819.4647915611826
 30
0.0
 11
475.7368315675831
 21
819.4647915611826
 31
0.0
  0
LINE
  5
E1C
330
DB
100
AcDbEntity
  8
-1
  6
Continuous
 62
     2
100
AcDbLine
 10
438.4426609974673
 20
586.0417637236895
 30
0.0
 11
449.4426609974675
 21
586.0417637236895
 31
0.0
  0
LINE
  5
E32
330
DB
100
AcDbEntity
  8
1
  6
Continuous
 62
     7
100
AcDbLine
 10
398.5059365721527
 20
456.6427177154992
 30
0.0
 11
398.5059365721527
 21
377.4427177154993
 31
0.0
  0
LINE
  5
E57
330
DB
100
AcDbEntity
  8
-1
  6
Continuous
 62
     2
100
AcDbLine
 10
1022.586969374416
 20
983.7065916235262
 30
0.0
 11
1034.586969374415
 21
983.7065916235262
 31
0.0
  0
LINE
  5
E63
330
DB
100
AcDbEntity
  8
-1
  6
Continuous
 62
     2
100
AcDbLine
 10
437.4981258847056
 20
693.8262442120174
 30
0.0
 11
453.4981258847056
 21
693.8262442120174
 31
0.0
  0
LINE
  5
E64
330
DB
100
AcDbEntity
  8
-1
  6
Continuous
 62
     2
100
AcDbLine
 10
1022.586969374416
 20
693.8262442120174
 30
0.0
 11
1035.586969374415
 21
693.8262442120174
 31
0.0
  0
LINE
  5
E65
330
DB
100
AcDbEntity
  8
-1
  6
Continuous
 62
     2
100
AcDbLine
 10
446.2494545702611
 20
255.2572685847664
 30
0.0
 11
463.2494545702611
 21
255.2572685847664
 31
0.0
  0
LINE
  5
E66
330
DB
100
AcDbEntity
  8
-1
  6
Continuous
 62
     2
100
AcDbLine
 10
776.2995700467146
 20
255.2572685847664
 30
0.0
 11
790.2995700467146
 21
255.2572685847664
 31
0.0
  0
LINE
  5
E67
330
DB
100
AcDbEntity
  8
-1
  6
Continuous
 62
     2
100
AcDbLine
 10
1218.866775583287
 20
255.2572685847664
 30
0.0
 11
1233.866775583287
 21
255.2572685847664
 31
0.0
  0
LINE
  5
E7F
330
DB
100
AcDbEntity
  8
1
  6
Continuous
 62
     7
100
AcDbLine
 10
496.9470237843615
 20
910.7124274667985
 30
0.0
 11
484.0640777275445
 21
863.5016188746234
 31
0.0
  0
LINE
  5
E80
330
DB
100
AcDbEntity
  8
1
  6
Continuous
 62
     7
100
AcDbLine
 10
484.0640777275445
 20
863.5016188746234
 30
0.0
 11
502.8169267381032
 21
853.5057440585884
 31
0.0
  0
LINE
  5
E81
330
DB
100
AcDbEntity
  8
1
  6
Continuous
 62
     7
100
AcDbLine
 10
502.8169267381032
 20
853.5057440585884
 30
0.0
 11
471.5621766135085
 21
844.7593545764068
 31
0.0
  0
LINE
  5
E82
330
DB
100
AcDbEntity
  8
1
  6
Continuous
 62
     7
100
AcDbLine
 10
471.5621766135085
 20
844.7593545764068
 30
0.0
 11
490.9187082239423
 21
727.4766057115138
 31
0.0
  0
LINE
  5
E83
330
DB
100
AcDbEntity
  8
1
  6
Continuous
 62
     7
100
AcDbLine
 10
495.3157860696816
 20
467.4151084174183
 30
0.0
 11
484.0640777275445
 21
426.1821290559525
 31
0.0
  0
LINE
  5
E84
330
DB
100
AcDbEntity
  8
1
  6
Continuous
 62
     7
100
AcDbLine
 10
484.0640777275445
 20
426.1821290559525
 30
0.0
 11
502.8169267381032
 21
416.1862542399171
 31
0.0
  0
LINE
  5
E85
330
DB
100
AcDbEntity
  8
1
  6
Continuous
 62
     7
100
AcDbLine
 10
502.8169267381032
 20
416.1862542399171
 30
0.0
 11
471.5621766135085
 21
407.4398647577353
 31
0.0
  0
LINE
  5
E86
330
DB
100
AcDbEntity
  8
1
  6
Continuous
 62
     7
100
AcDbLine
 10
471.5621766135085
 20
407.4398647577353
 30
0.0
 11
491.5652130749773
 21
286.2398921045165
 31
0.0
  0
LINE
  5
E96
330
DB
100
AcDbEntity
  8
1
  6
Continuous
 62
     5
100
AcDbLine
 10
772.4255749704425
 20
523.2256023682032
 30
0.0
 11
775.4255749704425
 21
523.2256023682032
 31
0.0
  0
LINE
  5
E97
330
DB
100
AcDbEntity
  8
1
  6
Continuous
 62
     5
100
AcDbLine
 10
1227.89181424602
 20
526.1223540336986
 30
0.0
 11
1231.89181424602
 21
526.1223540336986
 31
0.0
  0
ENDSEC
  0
SECTION
  2
OBJECTS
  0
DICTIONARY
  5
C9
330
0
100
AcDbDictionary
281
     1
  3
ACAD_COLOR
350
196
  3
ACAD_GROUP
350
CA
  3
ACAD_LAYOUT
350
D6
  3
ACAD_MATERIAL
350
181
  3
ACAD_MLINESTYLE
350
D3
  3
ACAD_PLOTSETTINGS
350
D5
  3
ACAD_PLOTSTYLENAME
350
CB
  3
ACAD_TABLESTYLE
350
197
  3
ACAD_VISUALSTYLE
350
185
  3
AcDbVariableDictionary
350
21A
  3
DWGPROPS
350
2D6
  0
DICTIONARY
  5
669
330
668
100
AcDbDictionary
280
     1
281
     1
  3
ADSK_XREC_LAYER_RECONCILED
360
66A
  0
DICTIONARY
  5
66C
330
66B
100
AcDbDictionary
280
     1
281
     1
  0
DICTIONARY
  5
1FF
330
DB
100
AcDbDictionary
280
     1
281
     1
  3
ACAD_SORTENTS
360
200
  0
DICTIONARY
  5
196
102
{ACAD_REACTORS
330
C9
102
}
330
C9
100
AcDbDictionary
281
     1
  0
DICTIONARY
  5
CA
102
{ACAD_REACTORS
330
C9
102
}
330
C9
100
AcDbDictionary
281
     1
  0
DICTIONARY
  5
D6
102
{ACAD_REACTORS
330
C9
102
}
330
C9
100
AcDbDictionary
281
     1
  3
Layout1
350
DA
  3
Model
350
DE
  0
DICTIONARY
  5
181
102
{ACAD_REACTORS
330
C9
102
}
330
C9
100
AcDbDictionary
281
     1
  3
ByBlock
350
183
  3
ByLayer
350
182
  3
Global
350
184
  0
DICTIONARY
  5
D3
102
{ACAD_REACTORS
330
C9
102
}
330
C9
100
AcDbDictionary
281
     1
  3
Standard
350
D4
  0
DICTIONARY
  5
D5
102
{ACAD_REACTORS
330
C9
102
}
330
C9
100
AcDbDictionary
281
     1
  0
ACDBDICTIONARYWDFLT
  5
CB
102
{ACAD_REACTORS
330
C9
102
}
330
C9
100
AcDbDictionary
281
     1
  3
Normal
350
CC
100
AcDbDictionaryWithDefault
340
CC
  0
DICTIONARY
  5
197
102
{ACAD_REACTORS
330
C9
102
}
330
C9
100
AcDbDictionary
281
     1
  3
Standard
350
198
  0
DICTIONARY
  5
185
102
{ACAD_REACTORS
330
C9
102
}
330
C9
100
AcDbDictionary
281
     1
  3
2dWireframe
350
18B
  3
3D Hidden
350
18D
  3
3dWireframe
350
18C
  3
Basic
350
18A
  3
Brighten
350
191
  3
ColorChange
350
195
  3
Conceptual
350
18E
  3
Dim
350
190
  3
Facepattern
350
194
  3
Flat
350
186
  3
FlatWithEdges
350
187
  3
Gouraud
350
188
  3
GouraudWithEdges
350
189
  3
Linepattern
350
193
  3
Realistic
350
18F
  3
Thicken
350
192
  0
DICTIONARY
  5
21A
102
{ACAD_REACTORS
330
C9
102
}
330
C9
100
AcDbDictionary
281
     1
  3
CTABLESTYLE
350
21B
  3
DIMASSOC
350
2D5
  3
INDEXCTL
350
2D4
  3
SORTENTS
350
2D3
  0
XRECORD
  5
2D6
102
{ACAD_REACTORS
330
C9
102
}
330
C9
100
AcDbXrecord
280
     1
  1
DWGPROPS COOKIE
  2

  3

  4

  6

  7

  8
Horia
  9

300
=
301
=
302
=
303
=
304
=
305
=
306
=
307
=
308
=
309
=
 40
0.0086954050925926
 41
2453238.743784722
 42
2456329.495277003
  1

 90
        0
  0
XRECORD
  5
66A
102
{ACAD_REACTORS
330
669
102
}
330
669
100
AcDbXrecord
280
     1
290
     1
  0
SORTENTSTABLE
  5
200
102
{ACAD_REACTORS
330
1FF
102
}
330
1FF
100
AcDbSortentsTable
330
DB
331
23A
  5
23A
331
20C
  5
133
331
252
  5
252
331
244
  5
244
331
232
  5
232
331
212
  5
127
331
25C
  5
25C
331
24A
  5
24A
331
144
  5
174
331
23B
  5
23B
331
253
  5
253
331
245
  5
245
331
233
  5
233
331
25D
  5
25D
331
24B
  5
24B
331
23C
  5
23C
331
20E
  5
12F
331
254
  5
254
331
246
  5
246
331
13E
  5
14E
331
234
  5
234
331
214
  5
123
331
25E
  5
25E
331
24C
  5
24C
331
146
  5
176
331
23D
  5
23D
331
255
  5
255
331
247
  5
247
331
235
  5
235
331
25F
  5
25F
331
215
  5
115
331
24D
  5
24D
331
23E
  5
23E
331
256
  5
256
331
236
  5
236
331
216
  5
113
331
240
  5
240
331
22C
  5
22C
331
24E
  5
24E
331
258
  5
258
331
140
  5
170
331
23F
  5
23F
331
257
  5
257
331
237
  5
237
331
241
  5
241
331
22D
  5
22D
331
259
  5
259
331
24F
  5
24F
331
20A
  5
137
331
238
  5
238
331
250
  5
250
331
242
  5
242
331
22E
  5
22E
331
230
  5
230
331
25A
  5
25A
331
210
  5
12B
331
248
  5
248
331
142
  5
172
331
239
  5
239
331
251
  5
251
331
243
  5
243
331
231
  5
231
331
25B
  5
25B
331
22F
  5
22F
331
249
  5
249
  0
LAYOUT
  5
DA
102
{ACAD_XDICTIONARY
360
2D7
102
}
102
{ACAD_REACTORS
330
D6
102
}
330
D6
100
AcDbPlotSettings
  1

  2
HP DeskJet 840C/841C/842C/843C
  4

  6

 40
0.0
 41
0.0
 42
0.0
 43
0.0
 44
0.0
 45
0.0
 46
0.0
 47
0.0
 48
0.0
 49
0.0
140
0.0
141
0.0
142
1.0
143
1.0
 70
   688
 72
     0
 73
     0
 74
     5
  7

 75
    16
147
1.0
148
0.0
149
0.0
100
AcDbLayout
  1
Layout1
 70
     0
 71
     1
 10
0.0
 20
0.0
 11
12.0
 21
9.0
 12
0.0
 22
0.0
 32
0.0
 14
-1.000000000000000E+20
 24
-1.000000000000000E+20
 34
-1.000000000000000E+20
 15
-1.000000000000000E+20
 25
-1.000000000000000E+20
 35
-1.000000000000000E+20
146
0.0
 13
0.0
 23
0.0
 33
0.0
 16
1.0
 26
0.0
 36
0.0
 17
0.0
 27
1.0
 37
0.0
 76
     0
330
D7
  0
LAYOUT
  5
DE
102
{ACAD_XDICTIONARY
360
2D9
102
}
102
{ACAD_REACTORS
330
D6
102
}
330
D6
100
AcDbPlotSettings
  1

  2
HP DeskJet 840C/841C/842C/843C
  4

  6

 40
0.0
 41
0.0
 42
0.0
 43
0.0
 44
0.0
 45
0.0
 46
0.0
 47
0.0
 48
0.0
 49
0.0
140
0.0
141
0.0
142
1.0
143
1.0
 70
  1712
 72
     0
 73
     0
 74
     0
  7

 75
     0
147
1.0
148
0.0
149
0.0
100
AcDbLayout
  1
Model
 70
     1
 71
     0
 10
0.0
 20
0.0
 11
12.0
 21
9.0
 12
0.0
 22
0.0
 32
0.0
 14
0.0
 24
0.0
 34
0.0
 15
0.0
 25
0.0
 35
0.0
146
0.0
 13
0.0
 23
0.0
 33
0.0
 16
1.0
 26
0.0
 36
0.0
 17
0.0
 27
1.0
 37
0.0
 76
     0
330
DB
331
17E
  0
MATERIAL
  5
183
102
{ACAD_XDICTIONARY
360
2DD
102
}
102
{ACAD_REACTORS
330
181
102
}
330
181
100
AcDbMaterial
  1
ByBlock
  0
MATERIAL
  5
182
102
{ACAD_XDICTIONARY
360
2DB
102
}
102
{ACAD_REACTORS
330
181
102
}
330
181
100
AcDbMaterial
  1
ByLayer
  0
MATERIAL
  5
184
102
{ACAD_XDICTIONARY
360
2DF
102
}
102
{ACAD_REACTORS
330
181
102
}
330
181
100
AcDbMaterial
  1
Global
  0
MLINESTYLE
  5
D4
102
{ACAD_REACTORS
330
D3
102
}
330
D3
100
AcDbMlineStyle
  2
STANDARD
 70
     0
  3

 62
   256
 51
90.0
 52
90.0
 71
     2
 49
0.5
 62
   256
  6
BYLAYER
 49
-0.5
 62
   256
  6
BYLAYER
  0
ACDBPLACEHOLDER
  5
CC
102
{ACAD_REACTORS
330
CB
102
}
330
CB
  0
TABLESTYLE
  5
198
102
{ACAD_XDICTIONARY
360
2E1
102
}
102
{ACAD_REACTORS
330
197
102
}
330
197
100
AcDbTableStyle
  3
Standard
 70
     0
 71
     0
 40
0.06
 41
0.06
280
     0
281
     0
  7
STANDARD
140
0.18
170
     2
 62
     0
 63
     7
283
     0
274
    -2
284
     1
 64
     0
275
    -2
285
     1
 65
     0
276
    -2
286
     1
 66
     0
277
    -2
287
     1
 67
     0
278
    -2
288
     1
 68
     0
279
    -2
289
     1
 69
     0
  7
STANDARD
140
0.25
170
     5
 62
     0
 63
     7
283
     0
274
    -2
284
     1
 64
     0
275
    -2
285
     1
 65
     0
276
    -2
286
     1
 66
     0
277
    -2
287
     1
 67
     0
278
    -2
288
     1
 68
     0
279
    -2
289
     1
 69
     0
  7
STANDARD
140
0.18
170
     5
 62
     0
 63
     7
283
     0
274
    -2
284
     1
 64
     0
275
    -2
285
     1
 65
     0
276
    -2
286
     1
 66
     0
277
    -2
287
     1
 67
     0
278
    -2
288
     1
 68
     0
279
    -2
289
     1
 69
     0
  0
VISUALSTYLE
  5
18B
102
{ACAD_REACTORS
330
185
102
}
330
185
100
AcDbVisualStyle
  2
2dWireframe
 70
     4
 71
     0
 72
     2
 73
     0
 90
        0
 40
-0.6
 41
-30.0
 62
     5
 63
     7
 74
     1
 91
        4
 64
     7
 65
   257
 75
     1
175
     1
 42
1.0
 92
        0
 66
   257
 43
1.0
 76
     1
 77
     6
 78
     2
 67
     7
 79
     5
170
     0
171
     0
290
     0
174
     0
 93
        1
 44
0.0
173
     0
291
     0
 45
0.0
1001
ACAD
1000
AcDbSavedByObjectVersion
1070
     0
  0
VISUALSTYLE
  5
18D
102
{ACAD_REACTORS
330
185
102
}
330
185
100
AcDbVisualStyle
  2
3D Hidden
 70
     6
 71
     1
 72
     2
 73
     2
 90
        0
 40
-0.6
 41
-30.0
 62
     5
 63
     7
 74
     2
 91
        2
 64
     7
 65
   257
 75
     2
175
     1
 42
40.0
 92
        0
 66
   257
 43
1.0
 76
     1
 77
     6
 78
     2
 67
     7
 79
     3
170
     0
171
     0
290
     0
174
     0
 93
        1
 44
0.0
173
     0
291
     0
 45
0.0
1001
ACAD
1000
AcDbSavedByObjectVersion
1070
     0
  0
VISUALSTYLE
  5
18C
102
{ACAD_REACTORS
330
185
102
}
330
185
100
AcDbVisualStyle
  2
3dWireframe
 70
     5
 71
     0
 72
     2
 73
     0
 90
        0
 40
-0.6
 41
-30.0
 62
     5
 63
     7
 74
     1
 91
        4
 64
     7
 65
   257
 75
     1
175
     1
 42
1.0
 92
        0
 66
   257
 43
1.0
 76
     1
 77
     6
 78
     2
 67
     7
 79
     5
170
     0
171
     0
290
     0
174
     0
 93
        1
 44
0.0
173
     0
291
     0
 45
0.0
1001
ACAD
1000
AcDbSavedByObjectVersion
1070
     0
  0
VISUALSTYLE
  5
18A
102
{ACAD_REACTORS
330
185
102
}
330
185
100
AcDbVisualStyle
  2
Basic
 70
     7
 71
     1
 72
     0
 73
     1
 90
        0
 40
-0.6
 41
-30.0
 62
     5
 63
     7
 74
     0
 91
        4
 64
     7
 65
   257
 75
     1
175
     1
 42
1.0
 92
        8
 66
     7
 43
1.0
 76
     1
 77
     6
 78
     2
 67
     7
 79
     5
170
     0
171
     0
290
     0
174
     0
 93
        1
 44
0.0
173
     0
291
     1
 45
0.0
1001
ACAD
1000
AcDbSavedByObjectVersion
1070
     0
  0
VISUALSTYLE
  5
191
102
{ACAD_REACTORS
330
185
102
}
330
185
100
AcDbVisualStyle
  2
Brighten
 70
    12
 71
     2
 72
     2
 73
     0
 90
        0
 40
-0.6
 41
-30.0
 62
     5
 63
     7
 74
     1
 91
        4
 64
     7
 65
   257
 75
     1
175
     1
 42
1.0
 92
        8
 66
     7
 43
1.0
 76
     1
 77
     6
 78
     2
 67
     7
 79
     5
170
     0
171
     0
290
     0
174
     0
 93
        1
 44
50.0
173
     0
291
     1
 45
0.0
1001
ACAD
1000
AcDbSavedByObjectVersion
1070
     0
  0
VISUALSTYLE
  5
195
102
{ACAD_REACTORS
330
185
102
}
330
185
100
AcDbVisualStyle
  2
ColorChange
 70
    16
 71
     2
 72
     2
 73
     3
 90
        0
 40
-0.6
 41
-30.0
 62
     5
 63
     8
 74
     1
 91
        4
 64
     7
 65
   257
 75
     1
175
     1
 42
1.0
 92
        8
 66
     8
 43
1.0
 76
     1
 77
     6
 78
     2
 67
     7
 79
     5
170
     0
171
     0
290
     0
174
     0
 93
        1
 44
0.0
173
     0
291
     1
 45
0.0
1001
ACAD
1000
AcDbSavedByObjectVersion
1070
     0
  0
VISUALSTYLE
  5
18E
102
{ACAD_REACTORS
330
185
102
}
330
185
100
AcDbVisualStyle
  2
Conceptual
 70
     9
 71
     3
 72
     2
 73
     0
 90
        0
 40
-0.6
 41
-30.0
 62
     5
 63
     7
 74
     2
 91
        2
 64
     7
 65
   257
 75
     1
175
     1
 42
40.0
 92
        8
 66
     7
 43
1.0
 76
     1
 77
     6
 78
     2
 67
     7
 79
     3
170
     0
171
     0
290
     0
174
     0
 93
        1
 44
0.0
173
     0
291
     0
 45
0.0
1001
ACAD
1000
AcDbSavedByObjectVersion
1070
     0
  0
VISUALSTYLE
  5
190
102
{ACAD_REACTORS
330
185
102
}
330
185
100
AcDbVisualStyle
  2
Dim
 70
    11
 71
     2
 72
     2
 73
     0
 90
        0
 40
-0.6
 41
-30.0
 62
     5
 63
     7
 74
     1
 91
        4
 64
     7
 65
   257
 75
     1
175
     1
 42
1.0
 92
        8
 66
     7
 43
1.0
 76
     1
 77
     6
 78
     2
 67
     7
 79
     5
170
     0
171
     0
290
     0
174
     0
 93
        1
 44
-50.0
173
     0
291
     1
 45
0.0
1001
ACAD
1000
AcDbSavedByObjectVersion
1070
     0
  0
VISUALSTYLE
  5
194
102
{ACAD_REACTORS
330
185
102
}
330
185
100
AcDbVisualStyle
  2
Facepattern
 70
    15
 71
     2
 72
     2
 73
     0
 90
        0
 40
-0.6
 41
-30.0
 62
     5
 63
     7
 74
     1
 91
        4
 64
     7
 65
   257
 75
     1
175
     1
 42
1.0
 92
        8
 66
     7
 43
1.0
 76
     1
 77
     6
 78
     2
 67
     7
 79
     5
170
     0
171
     0
290
     0
174
     0
 93
        1
 44
0.0
173
     0
291
     1
 45
0.0
1001
ACAD
1000
AcDbSavedByObjectVersion
1070
     0
  0
VISUALSTYLE
  5
186
102
{ACAD_REACTORS
330
185
102
}
330
185
100
AcDbVisualStyle
  2
Flat
 70
     0
 71
     2
 72
     1
 73
     1
 90
        2
 40
-0.6
 41
30.0
 62
     5
 63
     7
 74
     0
 91
        4
 64
     7
 65
   257
 75
     1
175
     1
 42
1.0
 92
        8
 66
     7
 43
1.0
 76
     1
 77
     6
 78
     2
 67
     7
 79
     5
170
     0
171
     0
290
     0
174
     0
 93
       13
 44
0.0
173
     0
291
     1
 45
0.0
1001
ACAD
1000
AcDbSavedByObjectVersion
1070
     0
  0
VISUALSTYLE
  5
187
102
{ACAD_REACTORS
330
185
102
}
330
185
100
AcDbVisualStyle
  2
FlatWithEdges
 70
     1
 71
     2
 72
     1
 73
     1
 90
        2
 40
-0.6
 41
30.0
 62
     5
 63
     7
 74
     1
 91
        4
 64
     7
 65
   257
 75
     1
175
     1
 42
1.0
 92
        0
 66
   257
 43
1.0
 76
     1
 77
     6
 78
     2
 67
     7
 79
     5
170
     0
171
     0
290
     0
174
     0
 93
       13
 44
0.0
173
     0
291
     1
 45
0.0
1001
ACAD
1000
AcDbSavedByObjectVersion
1070
     0
  0
VISUALSTYLE
  5
188
102
{ACAD_REACTORS
330
185
102
}
330
185
100
AcDbVisualStyle
  2
Gouraud
 70
     2
 71
     2
 72
     2
 73
     1
 90
        2
 40
-0.6
 41
30.0
 62
     5
 63
     7
 74
     0
 91
        4
 64
     7
 65
   257
 75
     1
175
     1
 42
1.0
 92
        0
 66
     7
 43
1.0
 76
     1
 77
     6
 78
     2
 67
     7
 79
     5
170
     0
171
     0
290
     0
174
     0
 93
       13
 44
0.0
173
     0
291
     1
 45
0.0
1001
ACAD
1000
AcDbSavedByObjectVersion
1070
     0
  0
VISUALSTYLE
  5
189
102
{ACAD_REACTORS
330
185
102
}
330
185
100
AcDbVisualStyle
  2
GouraudWithEdges
 70
     3
 71
     2
 72
     2
 73
     1
 90
        2
 40
-0.6
 41
30.0
 62
     5
 63
     7
 74
     1
 91
        4
 64
     7
 65
   257
 75
     1
175
     1
 42
1.0
 92
        0
 66
   257
 43
1.0
 76
     1
 77
     6
 78
     2
 67
     7
 79
     5
170
     0
171
     0
290
     0
174
     0
 93
       13
 44
0.0
173
     0
291
     1
 45
0.0
1001
ACAD
1000
AcDbSavedByObjectVersion
1070
     0
  0
VISUALSTYLE
  5
193
102
{ACAD_REACTORS
330
185
102
}
330
185
100
AcDbVisualStyle
  2
Linepattern
 70
    14
 71
     2
 72
     2
 73
     0
 90
        0
 40
-0.6
 41
-30.0
 62
     5
 63
     7
 74
     1
 91
        4
 64
     7
 65
   257
 75
     7
175
     7
 42
1.0
 92
        8
 66
     7
 43
1.0
 76
     1
 77
     6
 78
     2
 67
     7
 79
     5
170
     0
171
     0
290
     0
174
     0
 93
        1
 44
0.0
173
     0
291
     1
 45
0.0
1001
ACAD
1000
AcDbSavedByObjectVersion
1070
     0
  0
VISUALSTYLE
  5
18F
102
{ACAD_REACTORS
330
185
102
}
330
185
100
AcDbVisualStyle
  2
Realistic
 70
     8
 71
     2
 72
     2
 73
     0
 90
        0
 40
-0.6
 41
-30.0
 62
     5
 63
     7
 74
     1
 91
        0
 64
     7
 65
   257
 75
     1
175
     1
 42
1.0
 92
        8
 66
     8
 43
1.0
 76
     1
 77
     6
 78
     2
 67
     7
 79
     5
170
     0
171
     0
290
     0
174
     0
 93
       13
 44
0.0
173
     0
291
     0
 45
0.0
1001
ACAD
1000
AcDbSavedByObjectVersion
1070
     0
  0
VISUALSTYLE
  5
192
102
{ACAD_REACTORS
330
185
102
}
330
185
100
AcDbVisualStyle
  2
Thicken
 70
    13
 71
     2
 72
     2
 73
     0
 90
        0
 40
-0.6
 41
-30.0
 62
     5
 63
     7
 74
     1
 91
        4
 64
     7
 65
   257
 75
     1
175
     1
 42
1.0
 92
       12
 66
     7
 43
1.0
 76
     1
 77
     6
 78
     2
 67
     7
 79
     5
170
     0
171
     0
290
     0
174
     0
 93
        1
 44
0.0
173
     0
291
     1
 45
0.0
1001
ACAD
1000
AcDbSavedByObjectVersion
1070
     0
  0
DICTIONARYVAR
  5
21B
102
{ACAD_REACTORS
330
21A
102
}
330
21A
100
DictionaryVariables
280
     0
  1
STANDARD
  0
DICTIONARYVAR
  5
2D5
102
{ACAD_REACTORS
330
21A
102
}
330
21A
100
DictionaryVariables
280
     0
  1
1
  0
DICTIONARYVAR
  5
2D4
102
{ACAD_REACTORS
330
21A
102
}
330
21A
100
DictionaryVariables
280
     0
  1
0
  0
DICTIONARYVAR
  5
2D3
102
{ACAD_REACTORS
330
21A
102
}
330
21A
100
DictionaryVariables
280
     0
  1
127
  0
DICTIONARY
  5
2D7
330
DA
100
AcDbDictionary
280
     1
281
     1
  3
ACAD_XREC_ROUNDTRIP
360
2D8
  0
DICTIONARY
  5
2D9
330
DE
100
AcDbDictionary
280
     1
281
     1
  3
ACAD_XREC_ROUNDTRIP
360
2DA
  0
DICTIONARY
  5
2DD
330
183
100
AcDbDictionary
280
     1
281
     1
  3
ACAD_XREC_ROUNDTRIP
360
2DE
  0
DICTIONARY
  5
2DB
330
182
100
AcDbDictionary
280
     1
281
     1
  3
ACAD_XREC_ROUNDTRIP
360
2DC
  0
DICTIONARY
  5
2DF
330
184
100
AcDbDictionary
280
     1
281
     1
  3
ACAD_XREC_ROUNDTRIP
360
2E0
  0
DICTIONARY
  5
2E1
330
198
100
AcDbDictionary
280
     1
281
     1
  3
ACAD_XREC_ROUNDTRIP
360
2E2
  0
XRECORD
  5
2D8
102
{ACAD_REACTORS
330
2D7
102
}
330
2D7
100
AcDbXrecord
280
     1
102
SHADEPLOT
 70
     0
102
SHADEPLOTRESLEVEL
 70
     2
102
SHADEPLOTCUSTOMDPI
 70
   300
  0
XRECORD
  5
2DA
102
{ACAD_REACTORS
330
2D9
102
}
330
2D9
100
AcDbXrecord
280
     1
102
SHADEPLOT
 70
     0
102
SHADEPLOTRESLEVEL
 70
     2
102
SHADEPLOTCUSTOMDPI
 70
   300
  0
XRECORD
  5
2DE
102
{ACAD_REACTORS
330
2DD
102
}
330
2DD
100
AcDbXrecord
280
     1
102
MATERIAL
148
0.0
149
0.0
149
0.0
 93
        0
 94
       63
282
     0
 72
     1
 77
     1
171
     1
175
     1
179
     1
273
     0
  0
XRECORD
  5
2DC
102
{ACAD_REACTORS
330
2DB
102
}
330
2DB
100
AcDbXrecord
280
     1
102
MATERIAL
148
0.0
149
0.0
149
0.0
 93
        0
 94
       63
282
     0
 72
     1
 77
     1
171
     1
175
     1
179
     1
273
     0
  0
XRECORD
  5
2E0
102
{ACAD_REACTORS
330
2DF
102
}
330
2DF
100
AcDbXrecord
280
     1
102
MATERIAL
148
0.0
149
0.0
149
0.0
 93
        0
 94
       63
282
     0
 72
     1
 77
     1
171
     1
175
     1
179
     1
273
     0
  0
XRECORD
  5
2E2
102
{ACAD_REACTORS
330
2E1
102
}
330
2E1
100
AcDbXrecord
280
     1
102
ACAD_ROUNDTRIP_PRE2007_TABLESTYLE
 90
      512
 91
        0
  1

 92
      512
 93
        0
  2

 94
      512
 95
        0
  3

  0
ENDSEC
  0
EOF
