  0
SECTION
  2
HEADER
  9
$ACADVER
  1
AC1015
  9
$ACADMAINTVER
 70
     6
  9
$DWGCODEPAGE
  3
ANSI_1252
  9
$INSBASE
 10
0.0
 20
0.0
 30
0.0
  9
$EXTMIN
 10
194.4182070858759
 20
168.348749737828
 30
0.0
  9
$EXTMAX
 10
1500.000031349483
 20
1039.44457010028
 30
0.0
  9
$LIMMIN
 10
0.0
 20
0.0
  9
$LIMMAX
 10
12.0
 20
9.0
  9
$ORTHOMODE
 70
     1
  9
$REGENMODE
 70
     1
  9
$FILLMODE
 70
     1
  9
$QTEXTMODE
 70
     0
  9
$MIRRTEXT
 70
     1
  9
$LTSCALE
 40
1.0
  9
$ATTMODE
 70
     1
  9
$TEXTSIZE
 40
0.2
  9
$TRACEWID
 40
0.05
  9
$TEXTSTYLE
  7
STANDARD
  9
$CLAYER
  8
0
  9
$CELTYPE
  6
CONTINUOUS
  9
$CECOLOR
 62
     7
  9
$CELTSCALE
 40
1.0
  9
$DISPSILH
 70
     0
  9
$DIMSCALE
 40
1.0
  9
$DIMASZ
 40
0.18
  9
$DIMEXO
 40
0.0625
  9
$DIMDLI
 40
0.38
  9
$DIMRND
 40
0.0
  9
$DIMDLE
 40
0.0
  9
$DIMEXE
 40
0.18
  9
$DIMTP
 40
0.0
  9
$DIMTM
 40
0.0
  9
$DIMTXT
 40
0.18
  9
$DIMCEN
 40
0.09
  9
$DIMTSZ
 40
0.0
  9
$DIMTOL
 70
     0
  9
$DIMLIM
 70
     0
  9
$DIMTIH
 70
     1
  9
$DIMTOH
 70
     1
  9
$DIMSE1
 70
     0
  9
$DIMSE2
 70
     0
  9
$DIMTAD
 70
     0
  9
$DIMZIN
 70
     0
  9
$DIMBLK
  1

  9
$DIMASO
 70
     1
  9
$DIMSHO
 70
     1
  9
$DIMPOST
  1

  9
$DIMAPOST
  1

  9
$DIMALT
 70
     0
  9
$DIMALTD
 70
     2
  9
$DIMALTF
 40
25.4
  9
$DIMLFAC
 40
1.0
  9
$DIMTOFL
 70
     0
  9
$DIMTVP
 40
0.0
  9
$DIMTIX
 70
     0
  9
$DIMSOXD
 70
     0
  9
$DIMSAH
 70
     0
  9
$DIMBLK1
  1

  9
$DIMBLK2
  1

  9
$DIMSTYLE
  2
STANDARD
  9
$DIMCLRD
 70
     0
  9
$DIMCLRE
 70
     0
  9
$DIMCLRT
 70
     0
  9
$DIMTFAC
 40
1.0
  9
$DIMGAP
 40
0.09
  9
$DIMJUST
 70
     0
  9
$DIMSD1
 70
     0
  9
$DIMSD2
 70
     0
  9
$DIMTOLJ
 70
     1
  9
$DIMTZIN
 70
     0
  9
$DIMALTZ
 70
     0
  9
$DIMALTTZ
 70
     0
  9
$DIMUPT
 70
     0
  9
$DIMDEC
 70
     4
  9
$DIMTDEC
 70
     4
  9
$DIMALTU
 70
     2
  9
$DIMALTTD
 70
     2
  9
$DIMTXSTY
  7
STANDARD
  9
$DIMAUNIT
 70
     0
  9
$DIMADEC
 70
     0
  9
$DIMALTRND
 40
0.0
  9
$DIMAZIN
 70
     0
  9
$DIMDSEP
 70
    46
  9
$DIMATFIT
 70
     3
  9
$DIMFRAC
 70
     0
  9
$DIMLDRBLK
  1

  9
$DIMLUNIT
 70
     2
  9
$DIMLWD
 70
    -2
  9
$DIMLWE
 70
    -2
  9
$DIMTMOVE
 70
     0
  9
$LUNITS
 70
     2
  9
$LUPREC
 70
     4
  9
$SKETCHINC
 40
0.1
  9
$FILLETRAD
 40
10.0
  9
$AUNITS
 70
     0
  9
$AUPREC
 70
     0
  9
$MENU
  1
acad
  9
$ELEVATION
 40
0.0
  9
$PELEVATION
 40
0.0
  9
$THICKNESS
 40
0.0
  9
$LIMCHECK
 70
     0
  9
$CHAMFERA
 40
0.0
  9
$CHAMFERB
 40
0.0
  9
$CHAMFERC
 40
0.0
  9
$CHAMFERD
 40
0.0
  9
$SKPOLY
 70
     0
  9
$TDCREATE
 40
2451288.347424652
  9
$TDUCREATE
 40
2451288.305757986
  9
$TDUPDATE
 40
2457641.442290393
  9
$TDUUPDATE
 40
2457641.400623726
  9
$TDINDWG
 40
1.5412767245
  9
$TDUSRTIMER
 40
1.5412583333
  9
$USRTIMER
 70
     1
  9
$ANGBASE
 50
0.0
  9
$ANGDIR
 70
     0
  9
$PDMODE
 70
     0
  9
$PDSIZE
 40
0.0
  9
$PLINEWID
 40
0.0
  9
$SPLFRAME
 70
     0
  9
$SPLINETYPE
 70
     6
  9
$SPLINESEGS
 70
    10
  9
$HANDSEED
  5
1768
  9
$SURFTAB1
 70
     6
  9
$SURFTAB2
 70
     6
  9
$SURFTYPE
 70
     6
  9
$SURFU
 70
    10
  9
$SURFV
 70
    10
  9
$UCSBASE
  2

  9
$UCSNAME
  2

  9
$UCSORG
 10
0.0
 20
0.0
 30
0.0
  9
$UCSXDIR
 10
1.0
 20
0.0
 30
0.0
  9
$UCSYDIR
 10
0.0
 20
1.0
 30
0.0
  9
$UCSORTHOREF
  2

  9
$UCSORTHOVIEW
 70
     0
  9
$UCSORGTOP
 10
0.0
 20
0.0
 30
0.0
  9
$UCSORGBOTTOM
 10
0.0
 20
0.0
 30
0.0
  9
$UCSORGLEFT
 10
0.0
 20
0.0
 30
0.0
  9
$UCSORGRIGHT
 10
0.0
 20
0.0
 30
0.0
  9
$UCSORGFRONT
 10
0.0
 20
0.0
 30
0.0
  9
$UCSORGBACK
 10
0.0
 20
0.0
 30
0.0
  9
$PUCSBASE
  2

  9
$PUCSNAME
  2

  9
$PUCSORG
 10
0.0
 20
0.0
 30
0.0
  9
$PUCSXDIR
 10
1.0
 20
0.0
 30
0.0
  9
$PUCSYDIR
 10
0.0
 20
1.0
 30
0.0
  9
$PUCSORTHOREF
  2

  9
$PUCSORTHOVIEW
 70
     0
  9
$PUCSORGTOP
 10
0.0
 20
0.0
 30
0.0
  9
$PUCSORGBOTTOM
 10
0.0
 20
0.0
 30
0.0
  9
$PUCSORGLEFT
 10
0.0
 20
0.0
 30
0.0
  9
$PUCSORGRIGHT
 10
0.0
 20
0.0
 30
0.0
  9
$PUCSORGFRONT
 10
0.0
 20
0.0
 30
0.0
  9
$PUCSORGBACK
 10
0.0
 20
0.0
 30
0.0
  9
$USERI1
 70
     0
  9
$USERI2
 70
     0
  9
$USERI3
 70
     0
  9
$USERI4
 70
     0
  9
$USERI5
 70
     0
  9
$USERR1
 40
0.0
  9
$USERR2
 40
0.0
  9
$USERR3
 40
0.0
  9
$USERR4
 40
0.0
  9
$USERR5
 40
0.0
  9
$WORLDVIEW
 70
     1
  9
$SHADEDGE
 70
     3
  9
$SHADEDIF
 70
    70
  9
$TILEMODE
 70
     1
  9
$MAXACTVP
 70
    16
  9
$PINSBASE
 10
0.0
 20
0.0
 30
0.0
  9
$PLIMCHECK
 70
     0
  9
$PEXTMIN
 10
-1.000000000000000E+20
 20
-1.000000000000000E+20
 30
-1.000000000000000E+20
  9
$PEXTMAX
 10
-1.000000000000000E+20
 20
-1.000000000000000E+20
 30
-1.000000000000000E+20
  9
$PLIMMIN
 10
0.0
 20
0.0
  9
$PLIMMAX
 10
12.0
 20
9.0
  9
$UNITMODE
 70
     0
  9
$VISRETAIN
 70
     0
  9
$PLINEGEN
 70
     0
  9
$PSLTSCALE
 70
     1
  9
$TREEDEPTH
 70
  3020
  9
$CMLSTYLE
  2
STANDARD
  9
$CMLJUST
 70
     0
  9
$CMLSCALE
 40
1.0
  9
$PROXYGRAPHICS
 70
     1
  9
$MEASUREMENT
 70
     0
  9
$CELWEIGHT
370
    -1
  9
$ENDCAPS
280
     0
  9
$JOINSTYLE
280
     0
  9
$LWDISPLAY
290
     0
  9
$INSUNITS
 70
     0
  9
$HYPERLINKBASE
  1

  9
$STYLESHEET
  1

  9
$XEDIT
290
     1
  9
$CEPSNTYPE
380
     0
  9
$PSTYLEMODE
290
     1
  9
$FINGERPRINTGUID
  2
{8FD7989F-64F4-4EDA-BB74-5C36BA8CB747}
  9
$VERSIONGUID
  2
{A526370A-8FFF-40C3-BE8D-1719BE89DD57}
  9
$EXTNAMES
290
     1
  9
$PSVPSCALE
 40
0.0
  9
$OLESTARTUP
290
     0
  0
ENDSEC
  0
SECTION
  2
CLASSES
  0
CLASS
  1
IDBUFFER
  2
AcDbIdBuffer
  3
AutoCAD 2000
 90
    32768
280
     0
281
     0
  0
CLASS
  1
LWPOLYLINE
  2
AcDbPolyline
  3
AutoCAD 2000
 90
    32768
280
     0
281
     1
  0
CLASS
  1
ACDBDICTIONARYWDFLT
  2
AcDbDictionaryWithDefault
  3
AutoCAD 2000
 90
        0
280
     0
281
     0
  0
CLASS
  1
ACDBPLACEHOLDER
  2
AcDbPlaceHolder
  3
AutoCAD 2000
 90
        0
280
     0
281
     0
  0
CLASS
  1
LAYOUT
  2
AcDbLayout
  3
AutoCAD 2000
 90
        0
280
     0
281
     0
  0
CLASS
  1
LONG_TRANSACTION
  2
AcDbLongTransaction
  3
AutoCAD 2000
 90
    32768
280
     0
281
     0
  0
CLASS
  1
LWPOLYLINE
  2
AcDbPolyline
  3
AutoCAD 2000
 90
    32768
280
     0
281
     1
  0
CLASS
  1
HATCH
  2
AcDbHatch
  3
AutoCAD 2000
 90
    32768
280
     0
281
     1
  0
CLASS
  1
XRECORD
  2
AcDbXrecord
  3
AutoCAD 2000
 90
    32768
280
     0
281
     0
  0
CLASS
  1
LONG_TRANSACTION
  2
AcDbLongTransaction
  3
AutoCAD 2000
 90
    32768
280
     0
281
     0
  0
CLASS
  1
LWPOLYLINE
  2
AcDbPolyline
  3
AutoCAD 2000
 90
    32768
280
     0
281
     1
  0
CLASS
  1
HATCH
  2
AcDbHatch
  3
AutoCAD 2000
 90
    32768
280
     0
281
     1
  0
CLASS
  1
XRECORD
  2
AcDbXrecord
  3
AutoCAD 2000
 90
    32768
280
     0
281
     0
  0
CLASS
  1
LONG_TRANSACTION
  2
AcDbLongTransaction
  3
AutoCAD 2000
 90
    32768
280
     0
281
     0
  0
CLASS
  1
LWPOLYLINE
  2
AcDbPolyline
  3
AutoCAD 2000
 90
    32768
280
     0
281
     1
  0
CLASS
  1
HATCH
  2
AcDbHatch
  3
AutoCAD 2000
 90
    32768
280
     0
281
     1
  0
CLASS
  1
XRECORD
  2
AcDbXrecord
  3
AutoCAD 2000
 90
    32768
280
     0
281
     0
  0
CLASS
  1
LONG_TRANSACTION
  2
AcDbLongTransaction
  3
AutoCAD 2000
 90
    32768
280
     0
281
     0
  0
CLASS
  1
LWPOLYLINE
  2
AcDbPolyline
  3
AutoCAD 2000
 90
    32768
280
     0
281
     1
  0
CLASS
  1
HATCH
  2
AcDbHatch
  3
AutoCAD 2000
 90
    32768
280
     0
281
     1
  0
CLASS
  1
XRECORD
  2
AcDbXrecord
  3
AutoCAD 2000
 90
    32768
280
     0
281
     0
  0
CLASS
  1
LONG_TRANSACTION
  2
AcDbLongTransaction
  3
AutoCAD 2000
 90
    32768
280
     0
281
     0
  0
CLASS
  1
LWPOLYLINE
  2
AcDbPolyline
  3
AutoCAD 2000
 90
    32768
280
     0
281
     1
  0
CLASS
  1
HATCH
  2
AcDbHatch
  3
AutoCAD 2000
 90
    32768
280
     0
281
     1
  0
CLASS
  1
XRECORD
  2
AcDbXrecord
  3
AutoCAD 2000
 90
    32768
280
     0
281
     0
  0
CLASS
  1
LONG_TRANSACTION
  2
AcDbLongTransaction
  3
AutoCAD 2000
 90
    32768
280
     0
281
     0
  0
CLASS
  1
LWPOLYLINE
  2
AcDbPolyline
  3
AutoCAD 2000
 90
    32768
280
     0
281
     1
  0
CLASS
  1
HATCH
  2
AcDbHatch
  3
AutoCAD 2000
 90
    32768
280
     0
281
     1
  0
CLASS
  1
XRECORD
  2
AcDbXrecord
  3
AutoCAD 2000
 90
    32768
280
     0
281
     0
  0
CLASS
  1
LONG_TRANSACTION
  2
AcDbLongTransaction
  3
AutoCAD 2000
 90
    32768
280
     0
281
     0
  0
CLASS
  1
LWPOLYLINE
  2
AcDbPolyline
  3
AutoCAD 2000
 90
    32768
280
     0
281
     1
  0
CLASS
  1
HATCH
  2
AcDbHatch
  3
AutoCAD 2000
 90
    32768
280
     0
281
     1
  0
CLASS
  1
XRECORD
  2
AcDbXrecord
  3
AutoCAD 2000
 90
    32768
280
     0
281
     0
  0
CLASS
  1
LONG_TRANSACTION
  2
AcDbLongTransaction
  3
AutoCAD 2000
 90
    32768
280
     0
281
     0
  0
CLASS
  1
LWPOLYLINE
  2
AcDbPolyline
  3
AutoCAD 2000
 90
    32768
280
     0
281
     1
  0
CLASS
  1
HATCH
  2
AcDbHatch
  3
AutoCAD 2000
 90
    32768
280
     0
281
     1
  0
CLASS
  1
XRECORD
  2
AcDbXrecord
  3
AutoCAD 2000
 90
    32768
280
     0
281
     0
  0
ENDSEC
  0
SECTION
  2
TABLES
  0
TABLE
  2
VPORT
  5
17B
330
0
100
AcDbSymbolTable
 70
     2
  0
VPORT
  5
1767
330
17B
100
AcDbSymbolTableRecord
100
AcDbViewportTableRecord
  2
*Active
 70
     0
 10
0.0
 20
0.0
 11
1.0
 21
1.0
 12
1001.05015164536
 22
70.86110987835559
 13
0.0
 23
0.0
 14
0.0
 24
0.0
 15
0.0
 25
0.0
 16
0.0
 26
0.0
 36
1.0
 17
662.702334
 27
588.79375
 37
0.0
 40
1672.222693795498
 41
2.092783505154639
 42
50.0
 43
0.0
 44
0.0
 50
0.0
 51
0.0
 71
     0
 72
  1000
 73
     1
 74
     0
 75
     0
 76
     0
 77
     0
 78
     0
281
     0
 65
     1
110
0.0
120
0.0
130
0.0
111
1.0
121
0.0
131
0.0
112
0.0
122
1.0
132
0.0
 79
     0
146
0.0
  0
ENDTAB
  0
TABLE
  2
LTYPE
  5
178
330
0
100
AcDbSymbolTable
 70
     2
  0
LTYPE
  5
185
330
178
100
AcDbSymbolTableRecord
100
AcDbLinetypeTableRecord
  2
BYBLOCK
 70
     0
  3

 72
    65
 73
     0
 40
0.0
  0
LTYPE
  5
186
330
178
100
AcDbSymbolTableRecord
100
AcDbLinetypeTableRecord
  2
BYLAYER
 70
     0
  3

 72
    65
 73
     0
 40
0.0
  0
LTYPE
  5
187
330
178
100
AcDbSymbolTableRecord
100
AcDbLinetypeTableRecord
  2
CONTINUOUS
 70
     0
  3
Solid line
 72
    65
 73
     0
 40
0.0
  0
LTYPE
  5
7E3
330
178
100
AcDbSymbolTableRecord
100
AcDbLinetypeTableRecord
  2
DASHED
 70
     0
  3
__ __ __ __ __ __ __ __ __ __ __ __ __ __ __ __ __ __ __ __ __
 72
    65
 73
     2
 40
0.75
 49
0.5
 74
     0
 49
-0.25
 74
     0
  0
ENDTAB
  0
TABLE
  2
LAYER
  5
175
330
0
100
AcDbSymbolTable
 70
     4
  0
LAYER
  5
181
330
175
100
AcDbSymbolTableRecord
100
AcDbLayerTableRecord
  2
0
 70
     0
 62
     7
  6
CONTINUOUS
370
    -3
390
96E
  0
LAYER
  5
19A
330
175
100
AcDbSymbolTableRecord
100
AcDbLayerTableRecord
  2
1
 70
     0
 62
     7
  6
CONTINUOUS
370
    -3
390
96E
  0
LAYER
  5
19B
330
175
100
AcDbSymbolTableRecord
100
AcDbLayerTableRecord
  2
-1
 70
     0
 62
     7
  6
CONTINUOUS
370
    -3
390
96E
  0
LAYER
  5
7D0
330
175
100
AcDbSymbolTableRecord
100
AcDbLayerTableRecord
  2
-10
 70
     0
 62
     7
  6
CONTINUOUS
370
    -3
390
96E
  0
ENDTAB
  0
TABLE
  2
STYLE
  5
176
330
0
100
AcDbSymbolTable
 70
     2
  0
STYLE
  5
182
330
176
100
AcDbSymbolTableRecord
100
AcDbTextStyleTableRecord
  2
STANDARD
 70
     0
 40
0.0
 41
1.0
 50
0.0
 71
     0
 42
0.2
  3
txt
  4

  0
STYLE
  5
F47
330
176
100
AcDbSymbolTableRecord
100
AcDbTextStyleTableRecord
  2
ROMANS
 70
     0
 40
0.2
 41
1.0
 50
0.0
 71
     0
 42
0.2
  3
ROMANS
  4

  0
ENDTAB
  0
TABLE
  2
VIEW
  5
179
330
0
100
AcDbSymbolTable
 70
     0
  0
ENDTAB
  0
TABLE
  2
UCS
  5
17A
330
0
100
AcDbSymbolTable
 70
     0
  0
ENDTAB
  0
TABLE
  2
APPID
  5
17C
330
0
100
AcDbSymbolTable
 70
     1
  0
APPID
  5
183
330
17C
100
AcDbSymbolTableRecord
100
AcDbRegAppTableRecord
  2
ACAD
 70
     0
  0
ENDTAB
  0
TABLE
  2
DIMSTYLE
  5
17D
330
0
100
AcDbSymbolTable
 70
     1
100
AcDbDimStyleTable
 71
     0
  0
DIMSTYLE
105
19E
330
17D
100
AcDbSymbolTableRecord
100
AcDbDimStyleTableRecord
  2
STANDARD
 70
     0
340
182
  0
ENDTAB
  0
TABLE
  2
BLOCK_RECORD
  5
174
330
0
100
AcDbSymbolTable
 70
     1
  0
BLOCK_RECORD
  5
18B
102
{ACAD_XDICTIONARY
360
BEF
102
}
330
174
100
AcDbSymbolTableRecord
100
AcDbBlockTableRecord
  2
*MODEL_SPACE
340
16BB
  0
BLOCK_RECORD
  5
188
102
{ACAD_XDICTIONARY
360
BED
102
}
330
174
100
AcDbSymbolTableRecord
100
AcDbBlockTableRecord
  2
*PAPER_SPACE
340
16BC
  0
ENDTAB
  0
ENDSEC
  0
SECTION
  2
BLOCKS
  0
BLOCK
  5
18C
330
18B
100
AcDbEntity
  8
0
100
AcDbBlockBegin
  2
*MODEL_SPACE
 70
     0
 10
0.0
 20
0.0
 30
0.0
  3
*MODEL_SPACE
  1

  0
ENDBLK
  5
18D
330
18B
100
AcDbEntity
  8
0
100
AcDbBlockEnd
  0
BLOCK
  5
189
330
188
100
AcDbEntity
 67
     1
  8
0
100
AcDbBlockBegin
  2
*PAPER_SPACE
 70
     0
 10
0.0
 20
0.0
 30
0.0
  3
*PAPER_SPACE
  1

  0
ENDBLK
  5
18A
330
188
100
AcDbEntity
 67
     1
  8
0
100
AcDbBlockEnd
  0
ENDSEC
  0
SECTION
  2
ENTITIES
  0
LINE
  5
13D9
330
18B
100
AcDbEntity
  8
0
  6
Continuous
 62
     7
100
AcDbLine
 10
400.0000313494836
 20
225.0000311177204
 30
0.0
 11
1400.000031349483
 21
225.0000311177203
 31
0.0
  0
LINE
  5
1682
330
18B
100
AcDbEntity
  8
0
  6
Continuous
 62
     7
100
AcDbLine
 10
400.0000313494838
 20
950.1887311177203
 30
0.0
 11
1400.000031349483
 21
950.1887311177201
 31
0.0
  0
LINE
  5
1683
330
18B
100
AcDbEntity
  8
1
  6
Continuous
 62
     4
100
AcDbLine
 10
400.0000313494838
 20
805.1509911177202
 30
0.0
 11
1400.000031349483
 21
805.1509911177202
 31
0.0
  0
LINE
  5
1684
330
18B
100
AcDbEntity
  8
1
  6
Continuous
 62
     4
100
AcDbLine
 10
400.0000313494836
 20
660.1132511177202
 30
0.0
 11
1400.000031349483
 21
660.1132511177202
 31
0.0
  0
LINE
  5
1685
330
18B
100
AcDbEntity
  8
1
  6
Continuous
 62
     4
100
AcDbLine
 10
400.0000313494836
 20
515.0755111177203
 30
0.0
 11
1400.000031349483
 21
515.07551111772
 31
0.0
  0
LINE
  5
1686
330
18B
100
AcDbEntity
  8
1
  6
Continuous
 62
     4
100
AcDbLine
 10
400.0000313494836
 20
370.0377711177203
 30
0.0
 11
1400.000031349483
 21
370.0377711177202
 31
0.0
  0
TEXT
  5
1688
330
18B
100
AcDbEntity
  8
-1
  6
Continuous
 62
     7
100
AcDbText
 10
342.561799009236
 20
359.6135482315235
 30
0.0
 40
15.8187
  1
100
  7
ROMANS
 11
342.561799009236
 21
375.4322482315235
 31
0.0
100
AcDbText
 73
     3
  0
TEXT
  5
1689
330
18B
100
AcDbEntity
  8
-1
  6
Continuous
 62
     7
100
AcDbText
 10
342.5617973168716
 20
504.9971395372734
 30
0.0
 40
15.8187
  1
200
  7
ROMANS
 11
342.5617973168716
 21
520.8158395372733
 31
0.0
100
AcDbText
 73
     3
  0
TEXT
  5
168A
330
18B
100
AcDbEntity
  8
-1
  6
Continuous
 62
     7
100
AcDbText
 10
344.9484576762777
 20
650.6212947615969
 30
0.0
 40
15.8187
  1
300
  7
ROMANS
 11
344.9484576762777
 21
666.4399947615969
 31
0.0
100
AcDbText
 73
     3
  0
TEXT
  5
168B
330
18B
100
AcDbEntity
  8
-1
  6
Continuous
 62
     7
100
AcDbText
 10
342.5007095939772
 20
795.3702861170913
 30
0.0
 40
15.8187
  1
400
  7
ROMANS
 11
342.5007095939772
 21
811.1889861170913
 31
0.0
100
AcDbText
 73
     3
  0
LINE
  5
16E3
330
18B
100
AcDbEntity
  8
1
  6
Continuous
 62
     4
100
AcDbLine
 10
702.0000313494835
 20
225.0000311177204
 30
0.0
 11
702.0000313494827
 21
950.1887311177203
 31
0.0
  0
LINE
  5
16E4
330
18B
100
AcDbEntity
  8
1
  6
Continuous
 62
     4
100
AcDbLine
 10
792.0000313494838
 20
225.0000311177204
 30
0.0
 11
792.0000313494838
 21
950.1887311177203
 31
0.0
  0
LINE
  5
16E5
330
18B
100
AcDbEntity
  8
1
  6
Continuous
 62
     4
100
AcDbLine
 10
882.0000313494835
 20
225.0000311177204
 30
0.0
 11
882.0000313494835
 21
950.1887311177203
 31
0.0
  0
LINE
  5
16E6
330
18B
100
AcDbEntity
  8
1
  6
Continuous
 62
     4
100
AcDbLine
 10
972.0000313494811
 20
225.0000311177204
 30
0.0
 11
972.0000313494811
 21
950.1887311177201
 31
0.0
  0
LINE
  5
16E7
330
18B
100
AcDbEntity
  8
0
  6
Continuous
 62
     7
100
AcDbLine
 10
400.0000313494836
 20
225.0000311177204
 30
0.0
 11
400.0000313494836
 21
950.1887311177203
 31
0.0
  0
LINE
  5
16E8
330
18B
100
AcDbEntity
  8
1
  6
Continuous
 62
     4
100
AcDbLine
 10
522.0000313494836
 20
225.0000311177204
 30
0.0
 11
522.0000313494834
 21
950.1887311177203
 31
0.0
  0
LINE
  5
16E9
330
18B
100
AcDbEntity
  8
1
  6
Continuous
 62
     4
100
AcDbLine
 10
612.0000313494836
 20
225.0000311177204
 30
0.0
 11
612.0000313494829
 21
950.1887311177203
 31
0.0
  0
LINE
  5
16EA
330
18B
100
AcDbEntity
  8
1
  6
Continuous
 62
     4
100
AcDbLine
 10
432.0000313494836
 20
225.0000311177204
 30
0.0
 11
432.0000313494836
 21
950.1887311177203
 31
0.0
  0
LINE
  5
16EB
330
18B
100
AcDbEntity
  8
1
  6
Continuous
 62
     4
100
AcDbLine
 10
1062.00003134948
 20
225.0000311177204
 30
0.0
 11
1062.00003134948
 21
950.1887311177201
 31
0.0
  0
LINE
  5
16EC
330
18B
100
AcDbEntity
  8
1
  6
Continuous
 62
     4
100
AcDbLine
 10
1152.000031349481
 20
225.0000311177204
 30
0.0
 11
1152.000031349481
 21
950.1887311177201
 31
0.0
  0
LINE
  5
16ED
330
18B
100
AcDbEntity
  8
1
  6
Continuous
 62
     4
100
AcDbLine
 10
1242.000031349481
 20
225.0000311177204
 30
0.0
 11
1242.000031349481
 21
950.1887311177201
 31
0.0
  0
LINE
  5
16EE
330
18B
100
AcDbEntity
  8
1
  6
Continuous
 62
     4
100
AcDbLine
 10
1332.00003134948
 20
225.0000311177204
 30
0.0
 11
1332.00003134948
 21
950.1887311177201
 31
0.0
  0
LINE
  5
16EF
330
18B
100
AcDbEntity
  8
0
  6
Continuous
 62
     7
100
AcDbLine
 10
1400.00003134948
 20
225.0000311177204
 30
0.0
 11
1400.00003134948
 21
950.1887311177201
 31
0.0
  0
TEXT
  5
16F0
330
18B
100
AcDbEntity
  8
-1
  6
Continuous
 62
     7
100
AcDbText
 10
948.6017044427319
 20
193.3487497378281
 30
0.0
 40
15.8187
  1
300
  7
ROMANS
 11
948.6017044427319
 21
209.1674497378281
 31
0.0
100
AcDbText
 73
     3
  0
TEXT
  5
16F1
330
18B
100
AcDbEntity
  8
-1
  6
Continuous
 62
     7
100
AcDbText
 10
422.3486343079883
 20
193.3487497378281
 30
0.0
 40
15.8187
  1
O
  7
ROMANS
 11
422.3486343079883
 21
209.1674497378281
 31
0.0
100
AcDbText
 73
     3
  0
TEXT
  5
16F2
330
18B
100
AcDbEntity
  8
-1
  6
Continuous
 62
     7
100
AcDbText
 10
508.209599182833
 20
193.3487497378281
 30
0.0
 40
15.8187
  1
50
  7
ROMANS
 11
508.209599182833
 21
209.1674497378281
 31
0.0
100
AcDbText
 73
     3
  0
TEXT
  5
16F3
330
18B
100
AcDbEntity
  8
-1
  6
Continuous
 62
     7
100
AcDbText
 10
588.9488035842198
 20
193.3487497378281
 30
0.0
 40
15.8187
  1
100
  7
ROMANS
 11
588.9488035842198
 21
209.1674497378281
 31
0.0
100
AcDbText
 73
     3
  0
TEXT
  5
16F4
330
18B
100
AcDbEntity
  8
-1
  6
Continuous
 62
     7
100
AcDbText
 10
676.5809204418988
 20
193.3487497378281
 30
0.0
 40
15.8187
  1
150
  7
ROMANS
 11
676.5809204418988
 21
209.1674497378281
 31
0.0
100
AcDbText
 73
     3
  0
TEXT
  5
16F5
330
18B
100
AcDbEntity
  8
-1
  6
Continuous
 62
     7
100
AcDbText
 10
768.8476405488038
 20
193.3487497378281
 30
0.0
 40
15.8187
  1
200
  7
ROMANS
 11
768.8476405488038
 21
209.1674497378281
 31
0.0
100
AcDbText
 73
     3
  0
TEXT
  5
16F6
330
18B
100
AcDbEntity
  8
-1
  6
Continuous
 62
     7
100
AcDbText
 10
860.7665835398311
 20
193.3487497378281
 30
0.0
 40
15.8187
  1
250
  7
ROMANS
 11
860.7665835398311
 21
209.1674497378281
 31
0.0
100
AcDbText
 73
     3
  0
TEXT
  5
16F7
330
18B
100
AcDbEntity
  8
-1
  6
Continuous
 62
     7
100
AcDbText
 10
1309.152309658197
 20
193.3487497378281
 30
0.0
 40
15.8187
  1
500
  7
ROMANS
 11
1309.152309658197
 21
209.1674497378281
 31
0.0
100
AcDbText
 73
     3
  0
TEXT
  5
16F8
330
18B
100
AcDbEntity
  8
-1
  6
Continuous
 62
     7
100
AcDbText
 10
1130.354390733887
 20
193.3487497378281
 30
0.0
 40
15.8187
  1
400
  7
ROMANS
 11
1130.354390733887
 21
209.1674497378281
 31
0.0
100
AcDbText
 73
     3
  0
TEXT
  5
16F9
330
18B
100
AcDbEntity
  8
-1
  6
Continuous
 62
     7
100
AcDbText
 10
1038.869807089213
 20
193.3487497378281
 30
0.0
 40
15.8187
  1
350
  7
ROMANS
 11
1038.869807089213
 21
209.1674497378281
 31
0.0
100
AcDbText
 73
     3
  0
TEXT
  5
16FA
330
18B
100
AcDbEntity
  8
-1
  6
Continuous
 62
     7
100
AcDbText
 10
1220.622488443569
 20
193.3487497378281
 30
0.0
 40
15.8187
  1
450
  7
ROMANS
 11
1220.622488443569
 21
209.1674497378281
 31
0.0
100
AcDbText
 73
     3
  0
LINE
  5
1725
330
18B
100
AcDbEntity
  8
0
  6
Continuous
 62
     7
100
AcDbLine
 10
1000.000031349483
 20
509.0000311177202
 30
0.0
 11
1100.000031349483
 21
490.5000311177202
 31
0.0
  0
LINE
  5
172B
330
18B
100
AcDbEntity
  8
0
  6
Continuous
 62
     7
100
AcDbLine
 10
600.0000313494831
 20
564.5000311177205
 30
0.0
 11
700.0000313494833
 21
552.0000311177203
 31
0.0
  0
LINE
  5
172C
330
18B
100
AcDbEntity
  8
0
  6
Continuous
 62
     7
100
AcDbLine
 10
400.0000313494838
 20
595.5000311177204
 30
0.0
 11
500.0000313494838
 21
595.5000311177204
 31
0.0
  0
LINE
  5
172D
330
18B
100
AcDbEntity
  8
0
  6
Continuous
 62
     7
100
AcDbLine
 10
500.0000313494838
 20
595.5000311177204
 30
0.0
 11
600.0000313494831
 21
564.5000311177205
 31
0.0
  0
LINE
  5
172E
330
18B
100
AcDbEntity
  8
0
  6
Continuous
 62
     7
100
AcDbLine
 10
700.0000313494833
 20
552.0000311177203
 30
0.0
 11
800.0000313494833
 21
542.0000311177203
 31
0.0
  0
LINE
  5
172F
330
18B
100
AcDbEntity
  8
0
  6
Continuous
 62
     7
100
AcDbLine
 10
800.0000313494833
 20
542.0000311177203
 30
0.0
 11
900.000031349483
 21
526.50003111772
 31
0.0
  0
LINE
  5
1730
330
18B
100
AcDbEntity
  8
0
  6
Continuous
 62
     7
100
AcDbLine
 10
1100.000031349483
 20
490.5000311177202
 30
0.0
 11
1200.000031349482
 21
430.5000311177201
 31
0.0
  0
LINE
  5
1731
330
18B
100
AcDbEntity
  8
0
  6
Continuous
 62
     7
100
AcDbLine
 10
900.000031349483
 20
526.50003111772
 30
0.0
 11
1000.000031349483
 21
509.0000311177202
 31
0.0
  0
LINE
  5
1732
330
18B
100
AcDbEntity
  8
0
  6
Continuous
 62
     7
100
AcDbLine
 10
1300.000031349482
 20
340.0000311177203
 30
0.0
 11
1400.000031349483
 21
268.0000311177203
 31
0.0
  0
LINE
  5
1733
330
18B
100
AcDbEntity
  8
0
  6
Continuous
 62
     7
100
AcDbLine
 10
1200.000031349482
 20
430.5000311177201
 30
0.0
 11
1300.000031349482
 21
340.0000311177203
 31
0.0
  0
LINE
  5
174D
330
18B
100
AcDbEntity
  8
-1
  6
Continuous
 62
     2
100
AcDbLine
 10
325.1717710013156
 20
377.2532643827458
 30
0.0
 11
335.1717710013156
 21
377.2532643827458
 31
0.0
  0
LINE
  5
174E
330
18B
100
AcDbEntity
  8
-1
  6
Continuous
 62
     2
100
AcDbLine
 10
325.1717710013156
 20
522.528261775149
 30
0.0
 11
336.1717710013156
 21
522.528261775149
 31
0.0
  0
LINE
  5
174F
330
18B
100
AcDbEntity
  8
-1
  6
Continuous
 62
     2
100
AcDbLine
 10
325.1717771333135
 20
666.5563586828985
 30
0.0
 11
337.1717771333135
 21
666.5563586828985
 31
0.0
  0
LINE
  5
1750
330
18B
100
AcDbEntity
  8
-1
  6
Continuous
 62
     2
100
AcDbLine
 10
325.1717710013156
 20
666.5563179938754
 30
0.0
 11
336.1717710013156
 21
666.5563179938754
 31
0.0
  0
LINE
  5
1751
330
18B
100
AcDbEntity
  8
-1
  6
Continuous
 62
     2
100
AcDbLine
 10
325.1717771333135
 20
810.613216252427
 30
0.0
 11
338.1717771333135
 21
810.613216252427
 31
0.0
  0
LINE
  5
1752
330
18B
100
AcDbEntity
  8
-1
  6
Continuous
 62
     2
100
AcDbLine
 10
325.1717710013156
 20
810.6131755634047
 30
0.0
 11
336.1717710013156
 21
810.6131755634047
 31
0.0
  0
LINE
  5
1754
330
18B
100
AcDbEntity
  8
-1
  6
Continuous
 62
     2
100
AcDbLine
 10
432.0000313494838
 20
205.0000311177204
 30
0.0
 11
452.0000313494834
 21
205.0000311177204
 31
0.0
  0
LINE
  5
1755
330
18B
100
AcDbEntity
  8
-1
  6
Continuous
 62
     2
100
AcDbLine
 10
622.4446682254729
 20
205.0000311177204
 30
0.0
 11
643.4446682254729
 21
205.0000311177204
 31
0.0
  0
LINE
  5
1756
330
18B
100
AcDbEntity
  8
-1
  6
Continuous
 62
     2
100
AcDbLine
 10
805.2553141729314
 20
205.0000311177204
 30
0.0
 11
827.2553141729304
 21
205.0000311177204
 31
0.0
  0
LINE
  5
1757
330
18B
100
AcDbEntity
  8
-1
  6
Continuous
 62
     2
100
AcDbLine
 10
982.5452658468389
 20
205.0000311177204
 30
0.0
 11
1005.54526584684
 21
205.0000311177204
 31
0.0
  0
LINE
  5
1758
330
18B
100
AcDbEntity
  8
-1
  6
Continuous
 62
     2
100
AcDbLine
 10
1343.434529938638
 20
205.0000311177204
 30
0.0
 11
1368.434529938638
 21
205.0000311177204
 31
0.0
  0
LINE
  5
1759
330
18B
100
AcDbEntity
  8
-1
  6
Continuous
 62
     2
100
AcDbLine
 10
1163.778559533084
 20
205.0000311177204
 30
0.0
 11
1187.778559533083
 21
205.0000311177204
 31
0.0
  0
ENDSEC
  0
SECTION
  2
OBJECTS
  0
DICTIONARY
  5
17F
330
0
100
AcDbDictionary
281
     1
  3
ACAD_GROUP
350
180
  3
ACAD_MLINESTYLE
350
18E
  3
ACAD_PLOTSTYLENAME
350
96D
  3
ACAD_LAYOUT
350
96F
  3
ACAD_PLOTSETTINGS
350
970
  0
DICTIONARY
  5
BEF
330
18B
100
AcDbDictionary
280
     1
281
     1
  3
ACAD_LAYOUTSELFREF
360
16B6
  0
DICTIONARY
  5
BED
330
188
100
AcDbDictionary
280
     1
281
     1
  3
ACAD_LAYOUTSELFREF
360
16B5
  0
DICTIONARY
  5
180
102
{ACAD_REACTORS
330
17F
102
}
330
17F
100
AcDbDictionary
281
     1
  0
DICTIONARY
  5
18E
102
{ACAD_REACTORS
330
17F
102
}
330
17F
100
AcDbDictionary
281
     1
  3
STANDARD
350
18F
  0
ACDBDICTIONARYWDFLT
  5
96D
102
{ACAD_REACTORS
330
17F
102
}
330
17F
100
AcDbDictionary
281
     1
  3
Normal
350
96E
100
AcDbDictionaryWithDefault
340
96E
  0
DICTIONARY
  5
96F
102
{ACAD_REACTORS
330
17F
102
}
330
17F
100
AcDbDictionary
281
     1
  3
Model
350
16BB
  3
Layout1
350
16BC
  0
DICTIONARY
  5
970
102
{ACAD_REACTORS
330
17F
102
}
330
17F
100
AcDbDictionary
281
     1
  0
XRECORD
  5
16B6
102
{ACAD_REACTORS
330
BEF
102
}
330
BEF
100
AcDbXrecord
280
     1
340
18B
  0
XRECORD
  5
16B5
102
{ACAD_REACTORS
330
BED
102
}
330
BED
100
AcDbXrecord
280
     1
340
188
  0
MLINESTYLE
  5
18F
102
{ACAD_REACTORS
330
18E
102
}
330
18E
100
AcDbMlineStyle
  2
STANDARD
 70
     0
  3

 62
   256
 51
90.0
 52
90.0
 71
     2
 49
0.5
 62
   256
  6
BYLAYER
 49
-0.5
 62
   256
  6
BYLAYER
  0
ACDBPLACEHOLDER
  5
96E
102
{ACAD_REACTORS
330
96D
102
}
330
96D
  0
LAYOUT
  5
16BB
102
{ACAD_REACTORS
330
96F
102
}
330
96F
100
AcDbPlotSettings
  1

  2
Samsung ML-2160 Series
  4

  6

 40
0.0
 41
0.0
 42
0.0
 43
0.0
 44
0.0
 45
0.0
 46
0.0
 47
0.0
 48
0.0
 49
0.0
140
0.0
141
0.0
142
1.0
143
1.0
 70
  1712
 72
     0
 73
     0
 74
     0
  7

 75
     0
147
1.0
148
0.0
149
0.0
100
AcDbLayout
  1
Model
 70
     1
 71
     0
 10
0.0
 20
0.0
 11
12.0
 21
9.0
 12
0.0
 22
0.0
 32
0.0
 14
0.0
 24
0.0
 34
0.0
 15
0.0
 25
0.0
 35
0.0
146
0.0
 13
0.0
 23
0.0
 33
0.0
 16
1.0
 26
0.0
 36
0.0
 17
0.0
 27
1.0
 37
0.0
 76
     0
330
18B
  0
LAYOUT
  5
16BC
102
{ACAD_REACTORS
330
96F
102
}
330
96F
100
AcDbPlotSettings
  1

  2
Samsung ML-2160 Series
  4

  6

 40
0.0
 41
0.0
 42
0.0
 43
0.0
 44
0.0
 45
0.0
 46
0.0
 47
0.0
 48
0.0
 49
0.0
140
0.0
141
0.0
142
1.0
143
1.0
 70
   688
 72
     0
 73
     0
 74
     5
  7

 75
    16
147
1.0
148
0.0
149
0.0
100
AcDbLayout
  1
Layout1
 70
     1
 71
     1
 10
0.0
 20
0.0
 11
12.0
 21
9.0
 12
0.0
 22
0.0
 32
0.0
 14
-1.000000000000000E+20
 24
-1.000000000000000E+20
 34
-1.000000000000000E+20
 15
-1.000000000000000E+20
 25
-1.000000000000000E+20
 35
-1.000000000000000E+20
146
0.0
 13
0.0
 23
0.0
 33
0.0
 16
1.0
 26
0.0
 36
0.0
 17
0.0
 27
1.0
 37
0.0
 76
     0
330
188
  0
ENDSEC
  0
EOF
