  0
SECTION
  2
HEADER
  9
$ACADVER
  1
AC1015
  9
$ACADMAINTVER
 70
    20
  9
$DWGCODEPAGE
  3
ANSI_1252
  9
$INSBASE
 10
0.0
 20
0.0
 30
0.0
  9
$EXTMIN
 10
477.2386071468725
 20
187.8112140789016
 30
0.0
  9
$EXTMAX
 10
1207.253844064255
 20
923.4726563023921
 30
0.0
  9
$LIMMIN
 10
0.0
 20
0.0
  9
$LIMMAX
 10
12.0
 20
9.0
  9
$ORTHOMODE
 70
     1
  9
$REGENMODE
 70
     1
  9
$FILLMODE
 70
     1
  9
$QTEXTMODE
 70
     0
  9
$MIRRTEXT
 70
     1
  9
$LTSCALE
 40
1.0
  9
$ATTMODE
 70
     1
  9
$TEXTSIZE
 40
0.0
  9
$TRACEWID
 40
0.05
  9
$TEXTSTYLE
  7
STANDARD
  9
$CLAYER
  8
0
  9
$CELTYPE
  6
CONTINUOUS
  9
$CECOLOR
 62
   256
  9
$CELTSCALE
 40
1.0
  9
$DISPSILH
 70
     0
  9
$DIMSCALE
 40
1.0
  9
$DIMASZ
 40
0.18
  9
$DIMEXO
 40
0.0625
  9
$DIMDLI
 40
0.38
  9
$DIMRND
 40
0.0
  9
$DIMDLE
 40
0.0
  9
$DIMEXE
 40
0.18
  9
$DIMTP
 40
0.0
  9
$DIMTM
 40
0.0
  9
$DIMTXT
 40
0.18
  9
$DIMCEN
 40
0.09
  9
$DIMTSZ
 40
0.0
  9
$DIMTOL
 70
     0
  9
$DIMLIM
 70
     0
  9
$DIMTIH
 70
     1
  9
$DIMTOH
 70
     1
  9
$DIMSE1
 70
     0
  9
$DIMSE2
 70
     0
  9
$DIMTAD
 70
     0
  9
$DIMZIN
 70
     0
  9
$DIMBLK
  1

  9
$DIMASO
 70
     1
  9
$DIMSHO
 70
     1
  9
$DIMPOST
  1

  9
$DIMAPOST
  1

  9
$DIMALT
 70
     0
  9
$DIMALTD
 70
     2
  9
$DIMALTF
 40
25.4
  9
$DIMLFAC
 40
1.0
  9
$DIMTOFL
 70
     0
  9
$DIMTVP
 40
0.0
  9
$DIMTIX
 70
     0
  9
$DIMSOXD
 70
     0
  9
$DIMSAH
 70
     0
  9
$DIMBLK1
  1

  9
$DIMBLK2
  1

  9
$DIMSTYLE
  2
STANDARD
  9
$DIMCLRD
 70
     0
  9
$DIMCLRE
 70
     0
  9
$DIMCLRT
 70
     0
  9
$DIMTFAC
 40
1.0
  9
$DIMGAP
 40
0.09
  9
$DIMJUST
 70
     0
  9
$DIMSD1
 70
     0
  9
$DIMSD2
 70
     0
  9
$DIMTOLJ
 70
     1
  9
$DIMTZIN
 70
     0
  9
$DIMALTZ
 70
     0
  9
$DIMALTTZ
 70
     0
  9
$DIMUPT
 70
     0
  9
$DIMDEC
 70
     4
  9
$DIMTDEC
 70
     4
  9
$DIMALTU
 70
     2
  9
$DIMALTTD
 70
     2
  9
$DIMTXSTY
  7
STANDARD
  9
$DIMAUNIT
 70
     0
  9
$DIMADEC
 70
     0
  9
$DIMALTRND
 40
0.0
  9
$DIMAZIN
 70
     0
  9
$DIMDSEP
 70
    46
  9
$DIMATFIT
 70
     3
  9
$DIMFRAC
 70
     0
  9
$DIMLDRBLK
  1

  9
$DIMLUNIT
 70
     2
  9
$DIMLWD
 70
    -2
  9
$DIMLWE
 70
    -2
  9
$DIMTMOVE
 70
     0
  9
$LUNITS
 70
     2
  9
$LUPREC
 70
     4
  9
$SKETCHINC
 40
0.1
  9
$FILLETRAD
 40
0.0
  9
$AUNITS
 70
     0
  9
$AUPREC
 70
     0
  9
$MENU
  1
acad
  9
$ELEVATION
 40
0.0
  9
$PELEVATION
 40
0.0
  9
$THICKNESS
 40
0.0
  9
$LIMCHECK
 70
     0
  9
$CHAMFERA
 40
0.0
  9
$CHAMFERB
 40
0.0
  9
$CHAMFERC
 40
0.0
  9
$CHAMFERD
 40
0.0
  9
$SKPOLY
 70
     0
  9
$TDCREATE
 40
2453238.928356481
  9
$TDUCREATE
 40
2453238.886689815
  9
$TDUPDATE
 40
2456107.867580185
  9
$TDUUPDATE
 40
2456107.825913519
  9
$TDINDWG
 40
0.0608953704
  9
$TDUSRTIMER
 40
0.0608949537
  9
$USRTIMER
 70
     1
  9
$ANGBASE
 50
0.0
  9
$ANGDIR
 70
     0
  9
$PDMODE
 70
     0
  9
$PDSIZE
 40
0.0
  9
$PLINEWID
 40
0.0
  9
$SPLFRAME
 70
     0
  9
$SPLINETYPE
 70
     6
  9
$SPLINESEGS
 70
    10
  9
$HANDSEED
  5
F9B
  9
$SURFTAB1
 70
     6
  9
$SURFTAB2
 70
     6
  9
$SURFTYPE
 70
     6
  9
$SURFU
 70
     6
  9
$SURFV
 70
     6
  9
$UCSBASE
  2

  9
$UCSNAME
  2

  9
$UCSORG
 10
0.0
 20
0.0
 30
0.0
  9
$UCSXDIR
 10
1.0
 20
0.0
 30
0.0
  9
$UCSYDIR
 10
0.0
 20
1.0
 30
0.0
  9
$UCSORTHOREF
  2

  9
$UCSORTHOVIEW
 70
     0
  9
$UCSORGTOP
 10
0.0
 20
0.0
 30
0.0
  9
$UCSORGBOTTOM
 10
0.0
 20
0.0
 30
0.0
  9
$UCSORGLEFT
 10
0.0
 20
0.0
 30
0.0
  9
$UCSORGRIGHT
 10
0.0
 20
0.0
 30
0.0
  9
$UCSORGFRONT
 10
0.0
 20
0.0
 30
0.0
  9
$UCSORGBACK
 10
0.0
 20
0.0
 30
0.0
  9
$PUCSBASE
  2

  9
$PUCSNAME
  2

  9
$PUCSORG
 10
0.0
 20
0.0
 30
0.0
  9
$PUCSXDIR
 10
1.0
 20
0.0
 30
0.0
  9
$PUCSYDIR
 10
0.0
 20
1.0
 30
0.0
  9
$PUCSORTHOREF
  2

  9
$PUCSORTHOVIEW
 70
     0
  9
$PUCSORGTOP
 10
0.0
 20
0.0
 30
0.0
  9
$PUCSORGBOTTOM
 10
0.0
 20
0.0
 30
0.0
  9
$PUCSORGLEFT
 10
0.0
 20
0.0
 30
0.0
  9
$PUCSORGRIGHT
 10
0.0
 20
0.0
 30
0.0
  9
$PUCSORGFRONT
 10
0.0
 20
0.0
 30
0.0
  9
$PUCSORGBACK
 10
0.0
 20
0.0
 30
0.0
  9
$USERI1
 70
     0
  9
$USERI2
 70
     0
  9
$USERI3
 70
     0
  9
$USERI4
 70
     0
  9
$USERI5
 70
     0
  9
$USERR1
 40
0.0
  9
$USERR2
 40
0.0
  9
$USERR3
 40
0.0
  9
$USERR4
 40
0.0
  9
$USERR5
 40
0.0
  9
$WORLDVIEW
 70
     1
  9
$SHADEDGE
 70
     3
  9
$SHADEDIF
 70
    70
  9
$TILEMODE
 70
     1
  9
$MAXACTVP
 70
    16
  9
$PINSBASE
 10
0.0
 20
0.0
 30
0.0
  9
$PLIMCHECK
 70
     0
  9
$PEXTMIN
 10
-1.000000000000000E+20
 20
-1.000000000000000E+20
 30
-1.000000000000000E+20
  9
$PEXTMAX
 10
-1.000000000000000E+20
 20
-1.000000000000000E+20
 30
-1.000000000000000E+20
  9
$PLIMMIN
 10
0.0
 20
0.0
  9
$PLIMMAX
 10
12.0
 20
9.0
  9
$UNITMODE
 70
     0
  9
$VISRETAIN
 70
     0
  9
$PLINEGEN
 70
     1
  9
$PSLTSCALE
 70
     0
  9
$TREEDEPTH
 70
  3020
  9
$CMLSTYLE
  2
Standard
  9
$CMLJUST
 70
     0
  9
$CMLSCALE
 40
1.0
  9
$PROXYGRAPHICS
 70
     1
  9
$MEASUREMENT
 70
     0
  9
$CELWEIGHT
370
    -1
  9
$ENDCAPS
280
     0
  9
$JOINSTYLE
280
     0
  9
$LWDISPLAY
290
     0
  9
$INSUNITS
 70
     0
  9
$HYPERLINKBASE
  1

  9
$STYLESHEET
  1

  9
$XEDIT
290
     1
  9
$CEPSNTYPE
380
     0
  9
$PSTYLEMODE
290
     1
  9
$FINGERPRINTGUID
  2
{7785CE37-03E3-401E-A247-AE1453CCA13D}
  9
$VERSIONGUID
  2
{4D8653F9-0406-4394-947A-F2E2F53E466D}
  9
$EXTNAMES
290
     1
  9
$PSVPSCALE
 40
0.0
  9
$OLESTARTUP
290
     0
  0
ENDSEC
  0
SECTION
  2
CLASSES
  0
CLASS
  1
ACDBDICTIONARYWDFLT
  2
AcDbDictionaryWithDefault
  3
ObjectDBX Classes
 90
        0
280
     0
281
     0
  0
CLASS
  1
ACDBPLACEHOLDER
  2
AcDbPlaceHolder
  3
ObjectDBX Classes
 90
        0
280
     0
281
     0
  0
CLASS
  1
LAYOUT
  2
AcDbLayout
  3
ObjectDBX Classes
 90
        0
280
     0
281
     0
  0
CLASS
  1
MATERIAL
  2
AcDbMaterial
  3
ObjectDBX Classes
 90
     1153
280
     0
281
     0
  0
CLASS
  1
VISUALSTYLE
  2
AcDbVisualStyle
  3
ObjectDBX Classes
 90
     4095
280
     0
281
     0
  0
CLASS
  1
TABLESTYLE
  2
AcDbTableStyle
  3
ObjectDBX Classes
 90
     4095
280
     0
281
     0
  0
CLASS
  1
SCALE
  2
AcDbScale
  3
ObjectDBX Classes
 90
     1153
280
     0
281
     0
  0
CLASS
  1
MLEADERSTYLE
  2
AcDbMLeaderStyle
  3
ACDB_MLEADERSTYLE_CLASS
 90
     4095
280
     0
281
     0
  0
CLASS
  1
DICTIONARYVAR
  2
AcDbDictionaryVar
  3
ObjectDBX Classes
 90
        0
280
     0
281
     0
  0
CLASS
  1
CELLSTYLEMAP
  2
AcDbCellStyleMap
  3
ObjectDBX Classes
 90
     1152
280
     0
281
     0
  0
CLASS
  1
EXACXREFPANELOBJECT
  2
ExAcXREFPanelObject
  3
EXAC_ESW
 90
    33793
280
     0
281
     0
  0
CLASS
  1
NPOCOLLECTION
  2
AcDbImpNonPersistentObjectsCollection
  3
ObjectDBX Classes
 90
    33921
280
     0
281
     0
  0
CLASS
  1
EXACTERMXREFMAP
  2
ExAcTermXrefMap
  3
EXAC_SERVICE
 90
    33793
280
     0
281
     0
  0
CLASS
  1
SORTENTSTABLE
  2
AcDbSortentsTable
  3
ObjectDBX Classes
 90
        0
280
     0
281
     0
  0
ENDSEC
  0
SECTION
  2
TABLES
  0
TABLE
  2
VPORT
  5
296
330
0
100
AcDbSymbolTable
 70
     1
  0
VPORT
  5
544
330
296
100
AcDbSymbolTableRecord
100
AcDbViewportTableRecord
  2
*Active
 70
     0
 10
0.0
 20
0.0
 11
1.0
 21
1.0
 12
344.7028647456646
 22
-65.26835934880364
 13
0.0
 23
0.0
 14
0.0
 24
0.0
 15
0.0
 25
0.0
 16
0.0
 26
0.0
 36
1.0
 17
726.9502909999999
 27
587.2124999999997
 37
0.0
 40
4015.285154642199
 41
2.027090694935218
 42
50.0
 43
0.025
 44
0.0
 50
0.0
 51
0.0
 71
     0
 72
   100
 73
     1
 74
     0
 75
     0
 76
     0
 77
     0
 78
     0
281
     0
 65
     0
110
0.0
120
0.0
130
0.0
111
1.0
121
0.0
131
0.0
112
0.0
122
1.0
132
0.0
 79
     0
146
0.0
  0
ENDTAB
  0
TABLE
  2
LTYPE
  5
293
330
0
100
AcDbSymbolTable
 70
     7
  0
LTYPE
  5
2A1
330
293
100
AcDbSymbolTableRecord
100
AcDbLinetypeTableRecord
  2
ByBlock
 70
     0
  3

 72
    65
 73
     0
 40
0.0
  0
LTYPE
  5
2A2
330
293
100
AcDbSymbolTableRecord
100
AcDbLinetypeTableRecord
  2
ByLayer
 70
     0
  3

 72
    65
 73
     0
 40
0.0
  0
LTYPE
  5
2A3
330
293
100
AcDbSymbolTableRecord
100
AcDbLinetypeTableRecord
  2
CONTINUOUS
 70
     0
  3
Solid line
 72
    65
 73
     0
 40
0.0
  0
LTYPE
  5
2B1
330
293
100
AcDbSymbolTableRecord
100
AcDbLinetypeTableRecord
  2
DOT
 70
     0
  3
. . . . . . . . . . . . . . . . . . . . . . . . . . . . . . . . .
 72
    65
 73
     2
 40
0.25
 49
0.0
 74
     0
 49
-0.25
 74
     0
  0
LTYPE
  5
2B2
330
293
100
AcDbSymbolTableRecord
100
AcDbLinetypeTableRecord
  2
HIDDEN
 70
     0
  3
__ __ __ __ __ __ __ __ __ __ __ __ __ __ __ __ __ __ __ __ __ 
 72
    65
 73
     2
 40
0.375
 49
0.25
 74
     0
 49
-0.125
 74
     0
  0
LTYPE
  5
2B3
330
293
100
AcDbSymbolTableRecord
100
AcDbLinetypeTableRecord
  2
DASHED
 70
     0
  3
__ __ __ __ __ __ __ __ __ __ __ __ __ __ __ __ __ __ __ __ __
 72
    65
 73
     2
 40
0.75
 49
0.5
 74
     0
 49
-0.25
 74
     0
  0
LTYPE
  5
2B4
330
293
100
AcDbSymbolTableRecord
100
AcDbLinetypeTableRecord
  2
DASHDOT
 70
     0
  3
__ . __ . __ . __ . __ . __ . __ . __ . __ . __ . __ . __ . _
 72
    65
 73
     4
 40
1.0
 49
0.5
 74
     0
 49
-0.25
 74
     0
 49
0.0
 74
     0
 49
-0.25
 74
     0
  0
LTYPE
  5
2B5
330
293
100
AcDbSymbolTableRecord
100
AcDbLinetypeTableRecord
  2
DIVIDE
 70
     0
  3
____ . . ____ . . ____ . . ____ . . ____ . . ____ . . ____ . .
 72
    65
 73
     6
 40
1.25
 49
0.5
 74
     0
 49
-0.25
 74
     0
 49
0.0
 74
     0
 49
-0.25
 74
     0
 49
0.0
 74
     0
 49
-0.25
 74
     0
  0
LTYPE
  5
2B6
330
293
100
AcDbSymbolTableRecord
100
AcDbLinetypeTableRecord
  2
CENTER
 70
     0
  3
____ _ ____ _ ____ _ ____ _ ____ _ ____ _ ____ _ ____ _ ____ _
 72
    65
 73
     4
 40
2.0
 49
1.25
 74
     0
 49
-0.25
 74
     0
 49
0.25
 74
     0
 49
-0.25
 74
     0
  0
ENDTAB
  0
TABLE
  2
LAYER
  5
290
330
0
100
AcDbSymbolTable
 70
     4
  0
LAYER
  5
29E
102
{ACAD_XDICTIONARY
360
5D4
102
}
330
290
100
AcDbSymbolTableRecord
100
AcDbLayerTableRecord
  2
0
 70
     0
 62
     7
  6
CONTINUOUS
370
    -3
390
29D
  0
LAYER
  5
2B7
102
{ACAD_XDICTIONARY
360
5D6
102
}
330
290
100
AcDbSymbolTableRecord
100
AcDbLayerTableRecord
  2
CONSTRUCTION_CLASS
 70
     0
 62
     7
  6
CONTINUOUS
370
    -3
390
29D
  0
LAYER
  5
2B8
102
{ACAD_XDICTIONARY
360
5D8
102
}
330
290
100
AcDbSymbolTableRecord
100
AcDbLayerTableRecord
  2
PATTERN_CLASS
 70
     0
 62
     7
  6
CONTINUOUS
370
    -3
390
29D
  0
LAYER
  5
2B9
102
{ACAD_XDICTIONARY
360
5DA
102
}
330
290
100
AcDbSymbolTableRecord
100
AcDbLayerTableRecord
  2
1
 70
     0
 62
     7
  6
CONTINUOUS
370
    -3
390
29D
  0
ENDTAB
  0
TABLE
  2
STYLE
  5
291
330
0
100
AcDbSymbolTable
 70
     2
  0
STYLE
  5
29F
330
291
100
AcDbSymbolTableRecord
100
AcDbTextStyleTableRecord
  2
STANDARD
 70
     0
 40
0.0
 41
1.0
 50
0.0
 71
     0
 42
0.0
  3
txt
  4

  0
STYLE
  5
2BA
330
291
100
AcDbSymbolTableRecord
100
AcDbTextStyleTableRecord
  2
ROMANS
 70
     0
 40
0.2
 41
1.0
 50
0.0
 71
     0
 42
0.2
  3
ROMANS
  4

  0
ENDTAB
  0
TABLE
  2
VIEW
  5
294
330
0
100
AcDbSymbolTable
 70
     0
  0
ENDTAB
  0
TABLE
  2
UCS
  5
295
330
0
100
AcDbSymbolTable
 70
     0
  0
ENDTAB
  0
TABLE
  2
APPID
  5
297
330
0
100
AcDbSymbolTable
 70
     3
  0
APPID
  5
2A0
330
297
100
AcDbSymbolTableRecord
100
AcDbRegAppTableRecord
  2
ACAD
 70
     0
  0
APPID
  5
5BF
330
297
100
AcDbSymbolTableRecord
100
AcDbRegAppTableRecord
  2
ACAD_EXEMPT_FROM_CAD_STANDARDS
 70
     0
  0
APPID
  5
616
330
297
100
AcDbSymbolTableRecord
100
AcDbRegAppTableRecord
  2
ACAD_MLEADERVER
 70
     0
  0
ENDTAB
  0
TABLE
  2
DIMSTYLE
  5
298
330
0
100
AcDbSymbolTable
 70
     1
100
AcDbDimStyleTable
 71
     1
340
2BB
  0
DIMSTYLE
105
2BB
330
298
100
AcDbSymbolTableRecord
100
AcDbDimStyleTableRecord
  2
STANDARD
 70
     0
279
     2
340
29F
  0
ENDTAB
  0
TABLE
  2
BLOCK_RECORD
  5
28F
330
0
100
AcDbSymbolTable
 70
     0
  0
BLOCK_RECORD
  5
2AC
102
{ACAD_XDICTIONARY
360
6CD
102
}
330
28F
100
AcDbSymbolTableRecord
100
AcDbBlockTableRecord
  2
*Model_Space
340
2AF
  0
BLOCK_RECORD
  5
2A8
330
28F
100
AcDbSymbolTableRecord
100
AcDbBlockTableRecord
  2
*Paper_Space
340
2AB
  0
ENDTAB
  0
ENDSEC
  0
SECTION
  2
BLOCKS
  0
BLOCK
  5
2AD
330
2AC
100
AcDbEntity
  8
0
100
AcDbBlockBegin
  2
*Model_Space
 70
     0
 10
0.0
 20
0.0
 30
0.0
  3
*Model_Space
  1

  0
ENDBLK
  5
2AE
330
2AC
100
AcDbEntity
  8
0
100
AcDbBlockEnd
  0
BLOCK
  5
2A9
330
2A8
100
AcDbEntity
 67
     1
  8
0
100
AcDbBlockBegin
  2
*Paper_Space
 70
     0
 10
0.0
 20
0.0
 30
0.0
  3
*Paper_Space
  1

  0
ENDBLK
  5
2AA
330
2A8
100
AcDbEntity
 67
     1
  8
0
100
AcDbBlockEnd
  0
ENDSEC
  0
SECTION
  2
ENTITIES
  0
LINE
  5
2CE
330
2AC
100
AcDbEntity
  8
1
  6
Continuous
 62
     6
100
AcDbLine
 10
883.3
 20
595.8937499999997
 30
0.0
 11
884.9437499999996
 21
603.54375
 31
0.0
  0
LINE
  5
2CF
330
2AC
100
AcDbEntity
  8
1
  6
Continuous
 62
     6
100
AcDbLine
 10
884.9437499999996
 20
603.54375
 30
0.0
 11
910.4437500000001
 21
603.54375
 31
0.0
  0
LINE
  5
2D0
330
2AC
100
AcDbEntity
  8
1
  6
Continuous
 62
     6
100
AcDbLine
 10
910.4437500000001
 20
603.54375
 30
0.0
 11
937.6437499999999
 21
620.54375
 31
0.0
  0
LINE
  5
2D1
330
2AC
100
AcDbEntity
  8
1
  6
Continuous
 62
     6
100
AcDbLine
 10
937.6437499999999
 20
620.54375
 30
0.0
 11
937.6437499999999
 21
626.49375
 31
0.0
  0
LINE
  5
2D2
330
2AC
100
AcDbEntity
  8
1
  6
Continuous
 62
     6
100
AcDbLine
 10
883.3
 20
493.89375
 30
0.0
 11
884.9437499999996
 21
486.2437499999998
 31
0.0
  0
LINE
  5
2D3
330
2AC
100
AcDbEntity
  8
1
  6
Continuous
 62
     6
100
AcDbLine
 10
884.9437499999996
 20
486.2437499999998
 30
0.0
 11
910.4437500000001
 21
486.2437499999998
 31
0.0
  0
LINE
  5
2D4
330
2AC
100
AcDbEntity
  8
1
  6
Continuous
 62
     6
100
AcDbLine
 10
910.4437500000001
 20
486.2437499999998
 30
0.0
 11
937.1437499999997
 21
469.55625
 31
0.0
  0
LINE
  5
2DD
330
2AC
100
AcDbEntity
  8
1
  6
Continuous
 62
     7
100
AcDbLine
 10
908.74375
 20
600.9937499999997
 30
0.0
 11
899.3937500000001
 21
600.9937499999997
 31
0.0
  0
LINE
  5
2DE
330
2AC
100
AcDbEntity
  8
1
  6
Continuous
 62
     7
100
AcDbLine
 10
899.3937500000001
 20
600.9937499999997
 30
0.0
 11
899.3937500000001
 21
597.59375
 31
0.0
  0
LINE
  5
2DF
330
2AC
100
AcDbEntity
  8
1
  6
Continuous
 62
     7
100
AcDbLine
 10
899.3937500000001
 20
597.59375
 30
0.0
 11
907.0437499999997
 21
597.59375
 31
0.0
  0
LINE
  5
2E0
330
2AC
100
AcDbEntity
  8
1
  6
Continuous
 62
     7
100
AcDbLine
 10
908.9749999999996
 20
603.54375
 30
0.0
 11
908.74375
 21
600.9937499999997
 31
0.0
  0
LINE
  5
2E1
330
2AC
100
AcDbEntity
  8
1
  6
Continuous
 62
     7
100
AcDbLine
 10
907.0437499999997
 20
597.59375
 30
0.0
 11
905.76875
 21
595.8937499999997
 31
0.0
  0
LINE
  5
2E2
330
2AC
100
AcDbEntity
  8
1
  6
Continuous
 62
     7
100
AcDbLine
 10
908.74375
 20
488.7937499999998
 30
0.0
 11
899.3937500000001
 21
488.7937499999998
 31
0.0
  0
LINE
  5
2E3
330
2AC
100
AcDbEntity
  8
1
  6
Continuous
 62
     7
100
AcDbLine
 10
899.3937500000001
 20
488.7937499999998
 30
0.0
 11
899.3937500000001
 21
492.19375
 31
0.0
  0
LINE
  5
2E4
330
2AC
100
AcDbEntity
  8
1
  6
Continuous
 62
     7
100
AcDbLine
 10
899.3937500000001
 20
492.19375
 30
0.0
 11
907.0437499999997
 21
492.19375
 31
0.0
  0
LINE
  5
2E5
330
2AC
100
AcDbEntity
  8
1
  6
Continuous
 62
     7
100
AcDbLine
 10
908.9749999999996
 20
486.2437499999998
 30
0.0
 11
908.74375
 21
488.7937499999998
 31
0.0
  0
LINE
  5
2E6
330
2AC
100
AcDbEntity
  8
1
  6
Continuous
 62
     7
100
AcDbLine
 10
907.0437499999997
 20
492.19375
 30
0.0
 11
905.76875
 21
493.89375
 31
0.0
  0
LINE
  5
2E7
330
2AC
100
AcDbEntity
  8
1
  6
Continuous
 62
     7
100
AcDbLine
 10
887.4937499999999
 20
486.2437499999998
 30
0.0
 11
887.4937499999999
 21
603.54375
 31
0.0
  0
LINE
  5
2E8
330
2AC
100
AcDbEntity
  8
1
  6
Continuous
 62
     7
100
AcDbLine
 10
883.3
 20
493.89375
 30
0.0
 11
883.225
 21
595.8937499999997
 31
0.0
  0
LINE
  5
2F1
330
2AC
100
AcDbEntity
  8
1
  6
Continuous
 62
     1
100
AcDbLine
 10
909.95
 20
595.8937499999997
 30
0.0
 11
909.95
 21
544.8937499999998
 31
0.0
  0
LINE
  5
2F2
330
2AC
100
AcDbEntity
  8
1
  6
Continuous
 62
     1
100
AcDbLine
 10
909.95
 20
493.89375
 30
0.0
 11
909.95
 21
544.8937499999998
 31
0.0
  0
LINE
  5
317
330
2AC
100
AcDbEntity
  8
1
  6
Continuous
 62
     6
100
AcDbLine
 10
813.54375
 20
468.3937499999998
 30
0.0
 11
805.0437500000001
 21
468.3937499999998
 31
0.0
  0
LINE
  5
31A
330
2AC
100
AcDbEntity
  8
1
  6
Continuous
 62
     6
100
AcDbLine
 10
805.0437500000001
 20
621.39375
 30
0.0
 11
813.54375
 21
621.39375
 31
0.0
  0
LINE
  5
321
330
2AC
100
AcDbEntity
  8
1
  6
Continuous
 62
     6
100
AcDbLine
 10
805.0437500000001
 20
621.39375
 30
0.0
 11
813.54375
 21
621.39375
 31
0.0
  0
LINE
  5
324
330
2AC
100
AcDbEntity
  8
1
  6
Continuous
 62
     7
100
AcDbLine
 10
843.25
 20
672.3937499999997
 30
0.0
 11
847.5437499999996
 21
667.34375
 31
0.0
  0
LINE
  5
326
330
2AC
100
AcDbEntity
  8
1
  6
Continuous
 62
     7
100
AcDbLine
 10
847.5437499999996
 20
624.3062499999997
 30
0.0
 11
850.4875
 21
621.60625
 31
0.0
  0
LINE
  5
32A
330
2AC
100
AcDbEntity
  8
1
  6
Continuous
 62
     7
100
AcDbLine
 10
915.38125
 20
664.9687499999997
 30
0.0
 11
918.3187499999997
 21
668.6437499999997
 31
0.0
  0
LINE
  5
32C
330
2AC
100
AcDbEntity
  8
1
  6
Continuous
 62
     6
100
AcDbLine
 10
805.0437500000001
 20
468.3937499999998
 30
0.0
 11
813.54375
 21
468.3937499999998
 31
0.0
  0
LINE
  5
330
330
2AC
100
AcDbEntity
  8
1
  6
Continuous
 62
     6
100
AcDbLine
 10
813.54375
 20
417.39375
 30
0.0
 11
843.25
 21
417.39375
 31
0.0
  0
LINE
  5
331
330
2AC
100
AcDbEntity
  8
1
  6
Continuous
 62
     7
100
AcDbLine
 10
915.38125
 20
460.9125
 30
0.0
 11
915.38125
 21
424.8312499999998
 31
0.0
  0
LINE
  5
333
330
2AC
100
AcDbEntity
  8
1
  6
Continuous
 62
     6
100
AcDbLine
 10
805.0437500000001
 20
468.3937499999998
 30
0.0
 11
813.54375
 21
468.3937499999998
 31
0.0
  0
LINE
  5
335
330
2AC
100
AcDbEntity
  8
1
  6
Continuous
 62
     6
100
AcDbLine
 10
813.54375
 20
417.39375
 30
0.0
 11
843.25
 21
417.39375
 31
0.0
  0
LINE
  5
336
330
2AC
100
AcDbEntity
  8
1
  6
Continuous
 62
     6
100
AcDbLine
 10
843.25
 20
417.39375
 30
0.0
 11
847.5437499999996
 21
422.4499999999999
 31
0.0
  0
LINE
  5
338
330
2AC
100
AcDbEntity
  8
1
  6
Continuous
 62
     7
100
AcDbLine
 10
847.5437499999996
 20
465.4937499999999
 30
0.0
 11
850.4875
 21
468.19375
 31
0.0
  0
LINE
  5
33A
330
2AC
100
AcDbEntity
  8
1
  6
Continuous
 62
     7
100
AcDbLine
 10
912.43125
 20
463.8562499999999
 30
0.0
 11
915.38125
 21
460.9125
 31
0.0
  0
LINE
  5
33B
330
2AC
100
AcDbEntity
  8
1
  6
Continuous
 62
     7
100
AcDbLine
 10
915.38125
 20
460.9125
 30
0.0
 11
915.38125
 21
424.8312499999998
 31
0.0
  0
LINE
  5
33C
330
2AC
100
AcDbEntity
  8
1
  6
Continuous
 62
     6
100
AcDbLine
 10
915.38125
 20
424.8312499999998
 30
0.0
 11
918.3187499999997
 21
421.15625
 31
0.0
  0
LINE
  5
33D
330
2AC
100
AcDbEntity
  8
1
  6
Continuous
 62
     6
100
AcDbLine
 10
937.6437499999999
 20
463.2937499999998
 30
0.0
 11
937.6437499999999
 21
418.2437499999998
 31
0.0
  0
LINE
  5
340
330
2AC
100
AcDbEntity
  8
1
  6
Continuous
 62
     7
100
AcDbLine
 10
934.7624999999997
 20
453.09375
 30
0.0
 11
937.6437499999999
 21
453.09375
 31
0.0
  0
LINE
  5
341
330
2AC
100
AcDbEntity
  8
1
  6
Continuous
 62
     7
100
AcDbLine
 10
934.7624999999997
 20
421.15625
 30
0.0
 11
934.7624999999997
 21
453.09375
 31
0.0
  0
LINE
  5
342
330
2AC
100
AcDbEntity
  8
1
  6
Continuous
 62
     6
100
AcDbLine
 10
918.3187499999997
 20
421.15625
 30
0.0
 11
934.7624999999997
 21
421.15625
 31
0.0
  0
LINE
  5
344
330
2AC
100
AcDbEntity
  8
1
  6
Continuous
 62
     7
100
AcDbLine
 10
958.5625
 20
447.99375
 30
0.0
 11
958.5625
 21
427.59375
 31
0.0
  0
LINE
  5
345
330
2AC
100
AcDbEntity
  8
1
  6
Continuous
 62
     7
100
AcDbLine
 10
961.1124999999999
 20
429.2937499999998
 30
0.0
 11
966.2124999999999
 21
436.94375
 31
0.0
  0
LINE
  5
346
330
2AC
100
AcDbEntity
  8
1
  6
Continuous
 62
     7
100
AcDbLine
 10
961.1124999999999
 20
446.2937499999998
 30
0.0
 11
966.3812499999997
 21
437.20625
 31
0.0
  0
LINE
  5
347
330
2AC
100
AcDbEntity
  8
1
  6
Continuous
 62
     7
100
AcDbLine
 10
915.38125
 20
446.2937499999998
 30
0.0
 11
961.1124999999999
 21
446.2937499999998
 31
0.0
  0
LINE
  5
348
330
2AC
100
AcDbEntity
  8
1
  6
Continuous
 62
     7
100
AcDbLine
 10
915.38125
 20
447.99375
 30
0.0
 11
958.5625
 21
447.99375
 31
0.0
  0
LINE
  5
349
330
2AC
100
AcDbEntity
  8
1
  6
Continuous
 62
     7
100
AcDbLine
 10
915.38125
 20
429.2937499999998
 30
0.0
 11
961.1124999999999
 21
429.2937499999998
 31
0.0
  0
LINE
  5
34A
330
2AC
100
AcDbEntity
  8
1
  6
Continuous
 62
     7
100
AcDbLine
 10
958.5625
 20
427.59375
 30
0.0
 11
915.38125
 21
427.59375
 31
0.0
  0
LINE
  5
34B
330
2AC
100
AcDbEntity
  8
1
  6
Continuous
 62
     7
100
AcDbLine
 10
915.38125
 20
420.7937499999998
 30
0.0
 11
915.38125
 21
454.7937499999998
 31
0.0
  0
LINE
  5
34C
330
2AC
100
AcDbEntity
  8
1
  6
Continuous
 62
     7
100
AcDbLine
 10
915.38125
 20
454.7937499999998
 30
0.0
 11
900.93125
 21
454.7937499999998
 31
0.0
  0
LINE
  5
34D
330
2AC
100
AcDbEntity
  8
1
  6
Continuous
 62
     7
100
AcDbLine
 10
900.93125
 20
454.7937499999998
 30
0.0
 11
900.93125
 21
420.7937499999998
 31
0.0
  0
LINE
  5
34E
330
2AC
100
AcDbEntity
  8
1
  6
Continuous
 62
     7
100
AcDbLine
 10
900.93125
 20
420.7937499999998
 30
0.0
 11
915.38125
 21
420.7937499999998
 31
0.0
  0
LINE
  5
34F
330
2AC
100
AcDbEntity
  8
1
  6
Continuous
 62
     7
100
AcDbLine
 10
900.93125
 20
447.99375
 30
0.0
 11
915.38125
 21
447.99375
 31
0.0
  0
LINE
  5
350
330
2AC
100
AcDbEntity
  8
1
  6
Continuous
 62
     7
100
AcDbLine
 10
900.93125
 20
427.59375
 30
0.0
 11
915.38125
 21
427.59375
 31
0.0
  0
LINE
  5
351
330
2AC
100
AcDbEntity
  8
1
  6
Continuous
 62
     7
100
AcDbLine
 10
908.74375
 20
600.9937499999997
 30
0.0
 11
913.78125
 21
600.9937499999997
 31
0.0
  0
LINE
  5
352
330
2AC
100
AcDbEntity
  8
1
  6
Continuous
 62
     7
100
AcDbLine
 10
907.0437499999997
 20
597.59375
 30
0.0
 11
910.3374999999997
 21
597.59375
 31
0.0
  0
LINE
  5
353
330
2AC
100
AcDbEntity
  8
1
  6
Continuous
 62
     7
100
AcDbLine
 10
907.0437499999997
 20
492.19375
 30
0.0
 11
910.3374999999997
 21
492.19375
 31
0.0
  0
LINE
  5
354
330
2AC
100
AcDbEntity
  8
1
  6
Continuous
 62
     7
100
AcDbLine
 10
908.74375
 20
488.7937499999998
 30
0.0
 11
913.78125
 21
488.7937499999998
 31
0.0
  0
LINE
  5
355
330
2AC
100
AcDbEntity
  8
1
  6
Continuous
 62
     7
100
AcDbLine
 10
952.9499999999996
 20
608.6437499999997
 30
0.0
 11
966.3812499999997
 21
608.6437499999997
 31
0.0
  0
ARC
  5
357
330
2AC
100
AcDbEntity
  8
1
  6
Continuous
 62
     7
100
AcDbCircle
 10
966.9718749999999
 20
544.896875
 30
0.0
 40
76.5
100
AcDbArc
 50
100.5642579999992
 51
138.1896719999994
  0
LINE
  5
36E
330
2AC
100
AcDbEntity
  8
1
  6
Continuous
 62
     7
100
AcDbLine
 10
945.6375000000001
 20
677.49375
 30
0.0
 11
988.6062499999997
 21
677.49375
 31
0.0
  0
LINE
  5
36F
330
2AC
100
AcDbEntity
  8
1
  6
Continuous
 62
     7
100
AcDbLine
 10
952.9499999999996
 20
620.1
 30
0.0
 11
966.3812499999997
 21
620.1
 31
0.0
  0
LINE
  5
371
330
2AC
100
AcDbEntity
  8
1
  6
Continuous
 62
     6
100
AcDbLine
 10
952.9437499999996
 20
620.1
 30
0.0
 11
942.9562499999999
 21
626.49375
 31
0.0
  0
LINE
  5
372
330
2AC
100
AcDbEntity
  8
1
  6
Continuous
 62
     6
100
AcDbLine
 10
937.6437499999999
 20
626.49375
 30
0.0
 11
942.9562499999999
 21
626.49375
 31
0.0
  0
LINE
  5
373
330
2AC
100
AcDbEntity
  8
1
  6
Continuous
 62
     7
100
AcDbLine
 10
942.9562499999999
 20
626.49375
 30
0.0
 11
942.9562499999999
 21
629.89375
 31
0.0
  0
LINE
  5
374
330
2AC
100
AcDbEntity
  8
1
  6
Continuous
 62
     7
100
AcDbLine
 10
952.9437499999996
 20
629.89375
 30
0.0
 11
952.9437499999996
 21
608.6437499999997
 31
0.0
  0
LINE
  5
375
330
2AC
100
AcDbEntity
  8
1
  6
Continuous
 62
     7
100
AcDbLine
 10
942.9562499999999
 20
629.89375
 30
0.0
 11
942.9562499999999
 21
637.54375
 31
0.0
  0
LINE
  5
376
330
2AC
100
AcDbEntity
  8
1
  6
Continuous
 62
     7
100
AcDbLine
 10
948.6937499999999
 20
645.19375
 30
0.0
 11
950.3937499999999
 21
645.19375
 31
0.0
  0
LINE
  5
377
330
2AC
100
AcDbEntity
  8
1
  6
Continuous
 62
     7
100
AcDbLine
 10
950.3937499999999
 20
645.19375
 30
0.0
 11
950.3937499999999
 21
651.1437499999997
 31
0.0
  0
LINE
  5
378
330
2AC
100
AcDbEntity
  8
1
  6
Continuous
 62
     7
100
AcDbLine
 10
950.3937499999999
 20
651.1437499999997
 30
0.0
 11
948.6937499999999
 21
651.1437499999997
 31
0.0
  0
LINE
  5
379
330
2AC
100
AcDbEntity
  8
1
  6
Continuous
 62
     7
100
AcDbLine
 10
948.6937499999999
 20
651.1437499999997
 30
0.0
 11
948.6937499999999
 21
677.49375
 31
0.0
  0
LINE
  5
37A
330
2AC
100
AcDbEntity
  8
1
  6
Continuous
 62
     7
100
AcDbLine
 10
950.3937499999999
 20
651.1437499999997
 30
0.0
 11
966.3812499999997
 21
651.1437499999997
 31
0.0
  0
LINE
  5
37B
330
2AC
100
AcDbEntity
  8
1
  6
Continuous
 62
     7
100
AcDbLine
 10
950.3937499999999
 20
645.19375
 30
0.0
 11
966.3812499999997
 21
645.19375
 31
0.0
  0
LINE
  5
37C
330
2AC
100
AcDbEntity
  8
1
  6
Continuous
 62
     7
100
AcDbLine
 10
942.9562499999999
 20
637.54375
 30
0.0
 11
966.3812499999997
 21
637.54375
 31
0.0
  0
LINE
  5
37D
330
2AC
100
AcDbEntity
  8
1
  6
Continuous
 62
     7
100
AcDbLine
 10
942.9562499999999
 20
629.89375
 30
0.0
 11
966.3812499999997
 21
629.89375
 31
0.0
  0
LINE
  5
37E
330
2AC
100
AcDbEntity
  8
1
  6
Continuous
 62
     7
100
AcDbLine
 10
948.6937499999999
 20
637.54375
 30
0.0
 11
948.6937499999999
 21
645.19375
 31
0.0
  0
LINE
  5
37F
330
2AC
100
AcDbEntity
  8
1
  6
Continuous
 62
     7
100
AcDbLine
 10
944.4437500000001
 20
659.6437499999997
 30
0.0
 11
944.4437500000001
 21
669.8437499999998
 31
0.0
  0
LINE
  5
380
330
2AC
100
AcDbEntity
  8
1
  6
Continuous
 62
     7
100
AcDbLine
 10
944.4437500000001
 20
669.8437499999998
 30
0.0
 11
946.14375
 21
669.8437499999998
 31
0.0
  0
LINE
  5
381
330
2AC
100
AcDbEntity
  8
1
  6
Continuous
 62
     7
100
AcDbLine
 10
946.14375
 20
669.8437499999998
 30
0.0
 11
946.14375
 21
673.2437499999997
 31
0.0
  0
LINE
  5
382
330
2AC
100
AcDbEntity
  8
1
  6
Continuous
 62
     7
100
AcDbLine
 10
946.14375
 20
673.2437499999997
 30
0.0
 11
944.4437500000001
 21
673.2437499999997
 31
0.0
  0
LINE
  5
383
330
2AC
100
AcDbEntity
  8
1
  6
Continuous
 62
     7
100
AcDbLine
 10
944.4437500000001
 20
673.2437499999997
 30
0.0
 11
944.4437500000001
 21
677.49375
 31
0.0
  0
LINE
  5
384
330
2AC
100
AcDbEntity
  8
1
  6
Continuous
 62
     7
100
AcDbLine
 10
946.14375
 20
673.2437499999997
 30
0.0
 11
948.6937499999999
 21
673.2437499999997
 31
0.0
  0
LINE
  5
385
330
2AC
100
AcDbEntity
  8
1
  6
Continuous
 62
     7
100
AcDbLine
 10
944.4437500000001
 20
663.8937499999997
 30
0.0
 11
948.6937499999999
 21
663.8937499999997
 31
0.0
  0
LINE
  5
386
330
2AC
100
AcDbEntity
  8
1
  6
Continuous
 62
     7
100
AcDbLine
 10
948.6937499999999
 20
659.6437499999997
 30
0.0
 11
944.4437500000001
 21
659.6437499999997
 31
0.0
  0
LINE
  5
389
330
2AC
100
AcDbEntity
  8
1
  6
Continuous
 62
     7
100
AcDbLine
 10
953.2874999999997
 20
677.49375
 30
0.0
 11
953.2874999999997
 21
679.19375
 31
0.0
  0
LINE
  5
38A
330
2AC
100
AcDbEntity
  8
1
  6
Continuous
 62
     7
100
AcDbLine
 10
953.2874999999997
 20
679.19375
 30
0.0
 11
940.5375000000001
 21
679.19375
 31
0.0
  0
LINE
  5
38B
330
2AC
100
AcDbEntity
  8
1
  6
Continuous
 62
     7
100
AcDbLine
 10
940.5375000000001
 20
679.19375
 30
0.0
 11
940.5375000000001
 21
680.8937499999997
 31
0.0
  0
LINE
  5
38C
330
2AC
100
AcDbEntity
  8
1
  6
Continuous
 62
     7
100
AcDbLine
 10
940.5375000000001
 20
680.8937499999997
 30
0.0
 11
953.2874999999997
 21
680.8937499999997
 31
0.0
  0
LINE
  5
38D
330
2AC
100
AcDbEntity
  8
1
  6
Continuous
 62
     7
100
AcDbLine
 10
953.2874999999997
 20
680.8937499999997
 30
0.0
 11
953.2874999999997
 21
682.59375
 31
0.0
  0
LINE
  5
38E
330
2AC
100
AcDbEntity
  8
1
  6
Continuous
 62
     7
100
AcDbLine
 10
940.5375000000001
 20
682.59375
 30
0.0
 11
932.8875
 21
682.59375
 31
0.0
  0
LINE
  5
38F
330
2AC
100
AcDbEntity
  8
1
  6
Continuous
 62
     7
100
AcDbLine
 10
932.8875
 20
682.59375
 30
0.0
 11
932.8875
 21
649.44375
 31
0.0
  0
LINE
  5
390
330
2AC
100
AcDbEntity
  8
1
  6
Continuous
 62
     7
100
AcDbLine
 10
940.5375000000001
 20
682.59375
 30
0.0
 11
940.5375000000001
 21
649.44375
 31
0.0
  0
LINE
  5
391
330
2AC
100
AcDbEntity
  8
1
  6
Continuous
 62
     7
100
AcDbLine
 10
932.8875
 20
649.44375
 30
0.0
 11
940.5375000000001
 21
649.44375
 31
0.0
  0
LINE
  5
392
330
2AC
100
AcDbEntity
  8
1
  6
Continuous
 62
     7
100
AcDbLine
 10
954.1375
 20
760.3976563023916
 30
0.0
 11
967.5687499999996
 21
760.3976563023916
 31
0.0
  0
LINE
  5
393
330
2AC
100
AcDbEntity
  8
1
  6
Continuous
 62
     7
100
AcDbLine
 10
954.1375
 20
677.49375
 30
0.0
 11
954.1375
 21
760.3976563023916
 31
0.0
  0
LINE
  5
395
330
2AC
100
AcDbEntity
  8
1
  6
Continuous
 62
     7
100
AcDbLine
 10
944.4437500000001
 20
667.29375
 30
0.0
 11
948.6937499999999
 21
667.29375
 31
0.0
  0
LINE
  5
398
330
2AC
100
AcDbEntity
  8
1
  6
Continuous
 62
     7
100
AcDbLine
 10
953.2874999999997
 20
682.59375
 30
0.0
 11
954.1375
 21
682.59375
 31
0.0
  0
LINE
  5
39E
330
2AC
100
AcDbEntity
  8
1
  6
Continuous
 62
     7
100
AcDbLine
 10
981.00625
 20
760.3976563023916
 30
0.0
 11
967.5687499999996
 21
760.3976563023916
 31
0.0
  0
LINE
  5
3A1
330
2AC
100
AcDbEntity
  8
1
  6
Continuous
 62
     7
100
AcDbLine
 10
981.00625
 20
760.3976563023916
 30
0.0
 11
992.3874999999997
 21
760.3976563023916
 31
0.0
  0
LINE
  5
3A2
330
2AC
100
AcDbEntity
  8
1
  6
Continuous
 62
     7
100
AcDbLine
 10
981.00625
 20
725.7793354130479
 30
0.0
 11
992.3874999999997
 21
725.7793354130479
 31
0.0
  0
LINE
  5
3A3
330
2AC
100
AcDbEntity
  8
1
  6
Continuous
 62
     7
100
AcDbLine
 10
954.1375
 20
726.9230854130479
 30
0.0
 11
891.2374999999999
 21
730.0293354130482
 31
0.0
  0
LINE
  5
3A4
330
2AC
100
AcDbEntity
  8
1
  6
Continuous
 62
     7
100
AcDbLine
 10
891.2374999999999
 20
730.0293354130482
 30
0.0
 11
891.2374999999999
 21
760.3976563023916
 31
0.0
  0
LINE
  5
3A5
330
2AC
100
AcDbEntity
  8
1
  6
Continuous
 62
     7
100
AcDbLine
 10
954.1375
 20
760.3976563023916
 30
0.0
 11
891.2374999999999
 21
760.3976563023916
 31
0.0
  0
LINE
  5
3A6
330
2AC
100
AcDbEntity
  8
1
  6
Continuous
 62
     7
100
AcDbLine
 10
891.2374999999999
 20
756.9976563023916
 30
0.0
 11
536.4823687007485
 21
756.9976563023916
 31
0.0
  0
LINE
  5
3A7
330
2AC
100
AcDbEntity
  8
1
  6
Continuous
 62
     7
100
AcDbLine
 10
891.2374999999999
 20
732.5793354130479
 30
0.0
 11
536.4823687007485
 21
732.5793354130478
 31
0.0
  0
LINE
  5
3A8
330
2AC
100
AcDbEntity
  8
1
  6
Continuous
 62
     7
100
AcDbLine
 10
984.7374999999999
 20
750.1976563023918
 30
0.0
 11
997.4874999999999
 21
750.1976563023918
 31
0.0
  0
LINE
  5
3A9
330
2AC
100
AcDbEntity
  8
1
  6
Continuous
 62
     7
100
AcDbLine
 10
997.4874999999999
 20
750.1976563023918
 30
0.0
 11
997.4874999999999
 21
735.9793354130479
 31
0.0
  0
LINE
  5
3AA
330
2AC
100
AcDbEntity
  8
1
  6
Continuous
 62
     7
100
AcDbLine
 10
997.4874999999999
 20
735.9793354130479
 30
0.0
 11
984.7374999999999
 21
735.9793354130479
 31
0.0
  0
LINE
  5
3AB
330
2AC
100
AcDbEntity
  8
1
  6
Continuous
 62
     7
100
AcDbLine
 10
984.7374999999999
 20
735.9793354130479
 30
0.0
 11
984.7374999999999
 21
750.1976563023918
 31
0.0
  0
LINE
  5
3AC
330
2AC
100
AcDbEntity
  8
1
  6
Continuous
 62
     7
100
AcDbLine
 10
984.7374999999999
 20
760.3976563023916
 30
0.0
 11
984.7374999999999
 21
725.7793354130479
 31
0.0
  0
LINE
  5
3AD
330
2AC
100
AcDbEntity
  8
1
  6
Continuous
 62
     7
100
AcDbLine
 10
988.1375
 20
750.1976563023918
 30
0.0
 11
988.1375
 21
760.3976563023916
 31
0.0
  0
LINE
  5
3AE
330
2AC
100
AcDbEntity
  8
1
  6
Continuous
 62
     7
100
AcDbLine
 10
990.6874999999999
 20
750.1976563023918
 30
0.0
 11
990.6874999999999
 21
760.3976563023916
 31
0.0
  0
LINE
  5
3AF
330
2AC
100
AcDbEntity
  8
1
  6
Continuous
 62
     7
100
AcDbLine
 10
992.3874999999997
 20
750.1976563023918
 30
0.0
 11
992.3874999999997
 21
760.3976563023916
 31
0.0
  0
LINE
  5
3B0
330
2AC
100
AcDbEntity
  8
1
  6
Continuous
 62
     7
100
AcDbLine
 10
992.3874999999997
 20
725.7793354130479
 30
0.0
 11
992.3874999999997
 21
735.9793354130479
 31
0.0
  0
LINE
  5
3B1
330
2AC
100
AcDbEntity
  8
1
  6
Continuous
 62
     7
100
AcDbLine
 10
990.6874999999999
 20
725.7793354130479
 30
0.0
 11
990.6874999999999
 21
735.9793354130479
 31
0.0
  0
LINE
  5
3B2
330
2AC
100
AcDbEntity
  8
1
  6
Continuous
 62
     7
100
AcDbLine
 10
988.1375
 20
725.7793354130479
 30
0.0
 11
988.1375
 21
735.9793354130479
 31
0.0
  0
LINE
  5
3B5
330
2AC
100
AcDbEntity
  8
1
  6
Continuous
 62
     7
100
AcDbLine
 10
536.4823687007485
 20
756.9976563023916
 30
0.0
 11
536.4823687007485
 21
732.5793354130478
 31
0.0
  0
LINE
  5
3D4
330
2AC
100
AcDbEntity
  8
1
  6
Continuous
 62
     4
100
AcDbLine
 10
940.5375000000001
 20
663.39375
 30
0.0
 11
948.6937499999999
 21
655.2374999999997
 31
0.0
  0
LINE
  5
3D5
330
2AC
100
AcDbEntity
  8
1
  6
Continuous
 62
     4
100
AcDbLine
 10
916.4312499999999
 20
666.28125
 30
0.0
 11
945.1624999999999
 21
637.54375
 31
0.0
  0
LINE
  5
3D6
330
2AC
100
AcDbEntity
  8
1
  6
Continuous
 62
     4
100
AcDbLine
 10
915.38125
 20
656.725
 30
0.0
 11
942.9562499999999
 21
629.15
 31
0.0
  0
LINE
  5
3D7
330
2AC
100
AcDbEntity
  8
1
  6
Continuous
 62
     4
100
AcDbLine
 10
915.38125
 20
646.11875
 30
0.0
 11
937.6437499999999
 21
623.85625
 31
0.0
  0
LINE
  5
3D8
330
2AC
100
AcDbEntity
  8
1
  6
Continuous
 62
     4
100
AcDbLine
 10
915.38125
 20
635.5125000000001
 30
0.0
 11
933.15
 21
617.7437499999999
 31
0.0
  0
LINE
  5
3D9
330
2AC
100
AcDbEntity
  8
1
  6
Continuous
 62
     4
100
AcDbLine
 10
913.39375
 20
626.8937499999997
 30
0.0
 11
926.6249999999999
 21
613.6625
 31
0.0
  0
LINE
  5
3DA
330
2AC
100
AcDbEntity
  8
1
  6
Continuous
 62
     4
100
AcDbLine
 10
904.3124999999999
 20
625.3687499999998
 30
0.0
 11
920.0999999999996
 21
609.58125
 31
0.0
  0
LINE
  5
3DB
330
2AC
100
AcDbEntity
  8
1
  6
Continuous
 62
     4
100
AcDbLine
 10
894.4
 20
624.6749999999997
 30
0.0
 11
913.5749999999998
 21
605.50625
 31
0.0
  0
LINE
  5
3DC
330
2AC
100
AcDbEntity
  8
1
  6
Continuous
 62
     4
100
AcDbLine
 10
884.4875
 20
623.98125
 30
0.0
 11
904.9249999999997
 21
603.54375
 31
0.0
  0
LINE
  5
3DD
330
2AC
100
AcDbEntity
  8
1
  6
Continuous
 62
     4
100
AcDbLine
 10
874.5750000000001
 20
623.2874999999998
 30
0.0
 11
894.3125
 21
603.54375
 31
0.0
  0
LINE
  5
3DE
330
2AC
100
AcDbEntity
  8
1
  6
Continuous
 62
     4
100
AcDbLine
 10
864.6624999999996
 20
622.59375
 30
0.0
 11
884.7249999999997
 21
602.53125
 31
0.0
  0
LINE
  5
3DF
330
2AC
100
AcDbEntity
  8
1
  6
Continuous
 62
     4
100
AcDbLine
 10
854.7499999999999
 20
621.9
 30
0.0
 11
880.75
 21
595.8937499999997
 31
0.0
  0
LINE
  5
3E0
330
2AC
100
AcDbEntity
  8
1
  6
Continuous
 62
     4
100
AcDbLine
 10
813.54375
 20
652.5
 30
0.0
 11
870.1499999999999
 21
595.8937499999997
 31
0.0
  0
LINE
  5
3E1
330
2AC
100
AcDbEntity
  8
1
  6
Continuous
 62
     4
100
AcDbLine
 10
813.54375
 20
641.8937499999997
 30
0.0
 11
859.5374999999997
 21
595.8937499999997
 31
0.0
  0
LINE
  5
3E2
330
2AC
100
AcDbEntity
  8
1
  6
Continuous
 62
     4
100
AcDbLine
 10
813.54375
 20
631.2875
 30
0.0
 11
848.9375
 21
595.8937499999997
 31
0.0
  0
LINE
  5
3E3
330
2AC
100
AcDbEntity
  8
1
  6
Continuous
 62
     4
100
AcDbLine
 10
812.8250000000001
 20
621.39375
 30
0.0
 11
838.3249999999996
 21
595.8937499999997
 31
0.0
  0
LINE
  5
3E4
330
2AC
100
AcDbEntity
  8
1
  6
Continuous
 62
     4
100
AcDbLine
 10
805.0437500000001
 20
618.575
 30
0.0
 11
827.7249999999996
 21
595.8937499999997
 31
0.0
  0
LINE
  5
3E5
330
2AC
100
AcDbEntity
  8
1
  6
Continuous
 62
     4
100
AcDbLine
 10
805.0437500000001
 20
607.9625
 30
0.0
 11
817.1124999999998
 21
595.8937499999997
 31
0.0
  0
LINE
  5
3E6
330
2AC
100
AcDbEntity
  8
1
  6
Continuous
 62
     7
100
AcDbLine
 10
805.0437500000001
 20
597.35625
 30
0.0
 11
806.4999999999999
 21
595.8937499999997
 31
0.0
  0
LINE
  5
3E8
330
2AC
100
AcDbEntity
  8
1
  6
Continuous
 62
     4
100
AcDbLine
 10
813.54375
 20
663.10625
 30
0.0
 11
847.5437499999996
 21
629.10625
 31
0.0
  0
LINE
  5
3E9
330
2AC
100
AcDbEntity
  8
1
  6
Continuous
 62
     4
100
AcDbLine
 10
814.8624999999999
 20
672.3937499999997
 30
0.0
 11
847.5437499999996
 21
639.71875
 31
0.0
  0
LINE
  5
3EA
330
2AC
100
AcDbEntity
  8
1
  6
Continuous
 62
     4
100
AcDbLine
 10
825.4687499999999
 20
672.3937499999997
 30
0.0
 11
847.5437499999996
 21
650.31875
 31
0.0
  0
LINE
  5
3EB
330
2AC
100
AcDbEntity
  8
1
  6
Continuous
 62
     4
100
AcDbLine
 10
836.0750000000001
 20
672.3937499999997
 30
0.0
 11
847.5437499999996
 21
660.9312499999997
 31
0.0
  0
LINE
  5
403
330
2AC
100
AcDbEntity
  8
1
  6
Continuous
 62
     4
100
AcDbLine
 10
952.275
 20
427.59375
 30
0.0
 11
961.625
 21
418.2437499999998
 31
0.0
  0
LINE
  5
404
330
2AC
100
AcDbEntity
  8
1
  6
Continuous
 62
     4
100
AcDbLine
 10
941.6624999999999
 20
427.59375
 30
0.0
 11
951.0125
 21
418.2437499999998
 31
0.0
  0
LINE
  5
405
330
2AC
100
AcDbEntity
  8
1
  6
Continuous
 62
     4
100
AcDbLine
 10
937.7875000000001
 20
463.2937499999998
 30
0.0
 11
953.0874999999999
 21
447.99375
 31
0.0
  0
LINE
  5
407
330
2AC
100
AcDbEntity
  8
1
  6
Continuous
 62
     4
100
AcDbLine
 10
937.6437499999999
 20
452.83125
 30
0.0
 11
942.4750000000001
 21
447.99375
 31
0.0
  0
LINE
  5
409
330
2AC
100
AcDbEntity
  8
1
  6
Continuous
 62
     4
100
AcDbLine
 10
937.6437499999999
 20
421.00625
 30
0.0
 11
940.40625
 21
418.2437499999998
 31
0.0
  0
LINE
  5
40A
330
2AC
100
AcDbEntity
  8
1
  6
Continuous
 62
     4
100
AcDbLine
 10
909.7624999999997
 20
486.2437499999998
 30
0.0
 11
937.1437499999997
 21
458.8625
 31
0.0
  0
LINE
  5
40B
330
2AC
100
AcDbEntity
  8
1
  6
Continuous
 62
     4
100
AcDbLine
 10
899.15
 20
486.2437499999998
 30
0.0
 11
934.7624999999997
 21
450.6312499999999
 31
0.0
  0
LINE
  5
40C
330
2AC
100
AcDbEntity
  8
1
  6
Continuous
 62
     4
100
AcDbLine
 10
870.2874999999997
 20
493.89375
 30
0.0
 11
899.4124999999996
 21
464.7687499999998
 31
0.0
  0
LINE
  5
40D
330
2AC
100
AcDbEntity
  8
1
  6
Continuous
 62
     6
100
AcDbLine
 10
925.9749999999996
 20
427.59375
 30
0.0
 11
932.4249999999999
 21
421.15625
 31
0.0
  0
LINE
  5
40E
330
2AC
100
AcDbEntity
  8
1
  6
Continuous
 62
     6
100
AcDbLine
 10
915.38125
 20
427.5875
 30
0.0
 11
921.8124999999997
 21
421.15625
 31
0.0
  0
LINE
  5
40F
330
2AC
100
AcDbEntity
  8
1
  6
Continuous
 62
     4
100
AcDbLine
 10
888.54375
 20
486.2437499999998
 30
0.0
 11
910.8187499999999
 21
463.9687499999998
 31
0.0
  0
LINE
  5
410
330
2AC
100
AcDbEntity
  8
1
  6
Continuous
 62
     6
100
AcDbLine
 10
915.38125
 20
459.4062499999998
 30
0.0
 11
926.79375
 21
447.99375
 31
0.0
  0
LINE
  5
411
330
2AC
100
AcDbEntity
  8
1
  6
Continuous
 62
     4
100
AcDbLine
 10
859.675
 20
493.89375
 30
0.0
 11
888.0
 21
465.5687499999998
 31
0.0
  0
LINE
  5
412
330
2AC
100
AcDbEntity
  8
1
  6
Continuous
 62
     4
100
AcDbLine
 10
849.0687499999996
 20
493.89375
 30
0.0
 11
876.6
 21
466.3687499999999
 31
0.0
  0
LINE
  5
413
330
2AC
100
AcDbEntity
  8
1
  6
Continuous
 62
     4
100
AcDbLine
 10
838.4624999999997
 20
493.89375
 30
0.0
 11
865.2000000000001
 21
467.1625
 31
0.0
  0
LINE
  5
414
330
2AC
100
AcDbEntity
  8
1
  6
Continuous
 62
     4
100
AcDbLine
 10
827.8562500000001
 20
493.89375
 30
0.0
 11
853.7937499999996
 21
467.95625
 31
0.0
  0
LINE
  5
415
330
2AC
100
AcDbEntity
  8
1
  6
Continuous
 62
     4
100
AcDbLine
 10
817.2499999999999
 20
493.89375
 30
0.0
 11
847.5437499999996
 21
463.60625
 31
0.0
  0
LINE
  5
416
330
2AC
100
AcDbEntity
  8
1
  6
Continuous
 62
     4
100
AcDbLine
 10
806.6437500000002
 20
493.89375
 30
0.0
 11
847.5437499999996
 21
452.9937499999999
 31
0.0
  0
LINE
  5
417
330
2AC
100
AcDbEntity
  8
1
  6
Continuous
 62
     4
100
AcDbLine
 10
805.0437500000001
 20
484.8937499999998
 30
0.0
 11
847.5437499999996
 21
442.39375
 31
0.0
  0
LINE
  5
418
330
2AC
100
AcDbEntity
  8
1
  6
Continuous
 62
     4
100
AcDbLine
 10
813.54375
 20
465.78125
 30
0.0
 11
847.5437499999996
 21
431.78125
 31
0.0
  0
LINE
  5
419
330
2AC
100
AcDbEntity
  8
1
  6
Continuous
 62
     4
100
AcDbLine
 10
813.54375
 20
455.1812499999998
 30
0.0
 11
846.9624999999997
 21
421.7624999999999
 31
0.0
  0
LINE
  5
41A
330
2AC
100
AcDbEntity
  8
1
  6
Continuous
 62
     4
100
AcDbLine
 10
813.54375
 20
444.56875
 30
0.0
 11
840.71875
 21
417.39375
 31
0.0
  0
LINE
  5
41B
330
2AC
100
AcDbEntity
  8
1
  6
Continuous
 62
     4
100
AcDbLine
 10
813.54375
 20
433.96875
 30
0.0
 11
830.1124999999997
 21
417.39375
 31
0.0
  0
LINE
  5
41C
330
2AC
100
AcDbEntity
  8
1
  6
Continuous
 62
     4
100
AcDbLine
 10
813.54375
 20
423.3562499999998
 30
0.0
 11
819.5062499999997
 21
417.39375
 31
0.0
  0
LINE
  5
41D
330
2AC
100
AcDbEntity
  8
1
  6
Continuous
 62
     6
100
AcDbLine
 10
937.1437499999997
 20
469.55625
 30
0.0
 11
937.1437499999997
 21
453.09375
 31
0.0
  0
LINE
  5
41E
330
2AC
100
AcDbEntity
  8
1
  6
Continuous
 62
     4
100
AcDbLine
 10
935.0749999999997
 20
614.4312499999998
 30
0.0
 11
916.5437500000001
 21
595.8937499999997
 31
0.0
  0
LINE
  5
41F
330
2AC
100
AcDbEntity
  8
1
  6
Continuous
 62
     4
100
AcDbLine
 10
950.9624999999997
 20
619.7062499999997
 30
0.0
 11
927.1499999999999
 21
595.8937499999997
 31
0.0
  0
LINE
  5
420
330
2AC
100
AcDbEntity
  8
1
  6
Continuous
 62
     4
100
AcDbLine
 10
952.9499999999996
 20
611.0812499999997
 30
0.0
 11
937.7625
 21
595.8937499999997
 31
0.0
  0
LINE
  5
421
330
2AC
100
AcDbEntity
  8
1
  6
Continuous
 62
     4
100
AcDbLine
 10
961.1124999999999
 20
608.6437499999997
 30
0.0
 11
948.3624999999999
 21
595.8937499999997
 31
0.0
  0
LINE
  5
42A
330
2AC
100
AcDbEntity
  8
1
  6
Continuous
 62
     6
100
AcDbLine
 10
966.9749999999996
 20
595.8937499999996
 30
0.0
 11
909.9500000000002
 21
595.8937499999996
 31
0.0
  0
LINE
  5
42D
330
2AC
100
AcDbEntity
  8
1
  6
Continuous
 62
     4
100
AcDbLine
 10
916.075
 20
493.89375
 30
0.0
 11
912.9312499999999
 21
490.7499999999997
 31
0.0
  0
LINE
  5
42E
330
2AC
100
AcDbEntity
  8
1
  6
Continuous
 62
     4
100
AcDbLine
 10
926.6874999999997
 20
493.89375
 30
0.0
 11
918.5
 21
485.7124999999999
 31
0.0
  0
LINE
  5
42F
330
2AC
100
AcDbEntity
  8
1
  6
Continuous
 62
     4
100
AcDbLine
 10
937.29375
 20
493.89375
 30
0.0
 11
924.5999999999996
 21
481.20625
 31
0.0
  0
LINE
  5
430
330
2AC
100
AcDbEntity
  8
1
  6
Continuous
 62
     4
100
AcDbLine
 10
947.8999999999999
 20
493.89375
 30
0.0
 11
931.25
 21
477.2499999999998
 31
0.0
  0
LINE
  5
431
330
2AC
100
AcDbEntity
  8
1
  6
Continuous
 62
     4
100
AcDbLine
 10
958.5062500000001
 20
493.89375
 30
0.0
 11
938.4999999999999
 21
473.89375
 31
0.0
  0
LINE
  5
438
330
2AC
100
AcDbEntity
  8
1
  6
Continuous
 62
     7
100
AcDbLine
 10
905.76875
 20
493.89375
 30
0.0
 11
887.4937499999999
 21
493.89375
 31
0.0
  0
LINE
  5
439
330
2AC
100
AcDbEntity
  8
1
  6
Continuous
 62
     6
100
AcDbLine
 10
883.3
 20
493.89375
 30
0.0
 11
805.0437500000001
 21
493.89375
 31
0.0
  0
LINE
  5
43A
330
2AC
100
AcDbEntity
  8
1
  6
Continuous
 62
     3
100
AcDbLine
 10
477.4073571468726
 20
760.3976563023916
 30
0.0
 11
884.9375
 21
760.3976563023916
 31
0.0
  0
LINE
  5
43B
330
2AC
100
AcDbEntity
  8
1
  6
Continuous
 62
     3
100
AcDbLine
 10
477.2386071468725
 20
544.8937499999998
 30
0.0
 11
771.4187612473576
 21
544.8937499999998
 31
0.0
  0
LINE
  5
43D
330
2AC
100
AcDbEntity
  8
1
  6
Continuous
 62
     7
100
AcDbLine
 10
966.9749999999996
 20
421.1562499999998
 30
0.0
 11
966.9749999999996
 21
665.7312499999996
 31
0.0
  0
LINE
  5
43E
330
2AC
100
AcDbEntity
  8
1
  6
Continuous
 62
     3
100
AcDbLine
 10
966.9749999999996
 20
783.7391450172588
 30
0.0
 11
966.9749999999996
 21
912.3664063023918
 31
0.0
  0
LINE
  5
43F
330
2AC
100
AcDbEntity
  8
1
  6
Continuous
 62
     3
100
AcDbLine
 10
536.4636187007488
 20
765.5289063023917
 30
0.0
 11
536.4636187007488
 21
912.3664063023918
 31
0.0
  0
LINE
  5
440
330
2AC
100
AcDbEntity
  8
1
  6
Continuous
 62
     3
100
AcDbLine
 10
943.2624999999998
 20
903.4726563023918
 30
0.0
 11
560.1761187007489
 21
903.4726563023918
 31
0.0
  0
LINE
  5
441
330
2AC
100
AcDbEntity
  8
1
  6
Continuous
 62
     3
100
AcDbLine
 10
943.2624999999998
 20
910.0289063023918
 30
0.0
 11
943.2624999999998
 21
896.9164063023917
 31
0.0
  0
LINE
  5
442
330
2AC
100
AcDbEntity
  8
1
  6
Continuous
 62
     3
100
AcDbLine
 10
966.9749999999996
 20
903.4726563023918
 30
0.0
 11
943.2624999999998
 21
896.9164063023917
 31
0.0
  0
LINE
  5
443
330
2AC
100
AcDbEntity
  8
1
  6
Continuous
 62
     3
100
AcDbLine
 10
966.9749999999996
 20
903.4726563023918
 30
0.0
 11
943.2624999999998
 21
910.0289063023918
 31
0.0
  0
LINE
  5
444
330
2AC
100
AcDbEntity
  8
1
  6
Continuous
 62
     3
100
AcDbLine
 10
943.2624999999998
 20
910.0289063023918
 30
0.0
 11
943.2624999999998
 21
896.9164063023917
 31
0.0
  0
LINE
  5
445
330
2AC
100
AcDbEntity
  8
1
  6
Continuous
 62
     3
100
AcDbLine
 10
560.1761187007489
 20
896.9164063023917
 30
0.0
 11
560.1761187007489
 21
910.0289063023918
 31
0.0
  0
LINE
  5
446
330
2AC
100
AcDbEntity
  8
1
  6
Continuous
 62
     3
100
AcDbLine
 10
536.4636187007488
 20
903.4726563023918
 30
0.0
 11
560.1761187007489
 21
910.0289063023918
 31
0.0
  0
LINE
  5
447
330
2AC
100
AcDbEntity
  8
1
  6
Continuous
 62
     3
100
AcDbLine
 10
536.4636187007488
 20
903.4726563023918
 30
0.0
 11
560.1761187007489
 21
896.9164063023917
 31
0.0
  0
LINE
  5
448
330
2AC
100
AcDbEntity
  8
1
  6
Continuous
 62
     3
100
AcDbLine
 10
560.1761187007489
 20
896.9164063023917
 30
0.0
 11
560.1761187007489
 21
910.0289063023918
 31
0.0
  0
LINE
  5
449
330
2AC
100
AcDbEntity
  8
1
  6
Continuous
 62
     3
100
AcDbLine
 10
804.9124999999996
 20
452.3
 30
0.0
 11
804.9124999999996
 21
306.375
 31
0.0
  0
LINE
  5
44B
330
2AC
100
AcDbEntity
  8
1
  6
Continuous
 62
     3
100
AcDbLine
 10
828.2625000000001
 20
314.08125
 30
0.0
 11
1104.350536576114
 21
314.1559862156308
 31
0.0
  0
LINE
  5
44C
330
2AC
100
AcDbEntity
  8
1
  6
Continuous
 62
     3
100
AcDbLine
 10
1104.350536576114
 20
320.7122362156307
 30
0.0
 11
1104.350536576114
 21
307.5997362156309
 31
0.0
  0
LINE
  5
44D
330
2AC
100
AcDbEntity
  8
1
  6
Continuous
 62
     3
100
AcDbLine
 10
1128.063036576114
 20
314.1559862156309
 30
0.0
 11
1104.350536576114
 21
307.5997362156309
 31
0.0
  0
LINE
  5
44E
330
2AC
100
AcDbEntity
  8
1
  6
Continuous
 62
     3
100
AcDbLine
 10
1128.063036576114
 20
314.1559862156309
 30
0.0
 11
1104.350536576114
 21
320.7122362156307
 31
0.0
  0
LINE
  5
44F
330
2AC
100
AcDbEntity
  8
1
  6
Continuous
 62
     3
100
AcDbLine
 10
1104.350536576114
 20
320.7122362156307
 30
0.0
 11
1104.350536576114
 21
307.5997362156309
 31
0.0
  0
LINE
  5
450
330
2AC
100
AcDbEntity
  8
1
  6
Continuous
 62
     3
100
AcDbLine
 10
828.2625000000001
 20
307.525
 30
0.0
 11
828.2625000000001
 21
320.6374999999998
 31
0.0
  0
LINE
  5
451
330
2AC
100
AcDbEntity
  8
1
  6
Continuous
 62
     3
100
AcDbLine
 10
804.55
 20
314.08125
 30
0.0
 11
828.2625000000001
 21
320.6374999999998
 31
0.0
  0
LINE
  5
452
330
2AC
100
AcDbEntity
  8
1
  6
Continuous
 62
     3
100
AcDbLine
 10
804.55
 20
314.08125
 30
0.0
 11
828.2625000000001
 21
307.525
 31
0.0
  0
LINE
  5
453
330
2AC
100
AcDbEntity
  8
1
  6
Continuous
 62
     3
100
AcDbLine
 10
828.2625000000001
 20
307.525
 30
0.0
 11
828.2625000000001
 21
320.6374999999998
 31
0.0
  0
LINE
  5
4D1
330
2AC
100
AcDbEntity
  8
1
  6
Continuous
 62
     3
100
AcDbLine
 10
483.6386071468724
 20
729.2668354130479
 30
0.0
 11
496.7511071468726
 21
729.2668354130479
 31
0.0
  0
LINE
  5
4D2
330
2AC
100
AcDbEntity
  8
1
  6
Continuous
 62
     3
100
AcDbLine
 10
490.1948571468722
 20
760.3976563023916
 30
0.0
 11
496.7511071468726
 21
729.2668354130479
 31
0.0
  0
LINE
  5
4D3
330
2AC
100
AcDbEntity
  8
1
  6
Continuous
 62
     3
100
AcDbLine
 10
490.1948571468722
 20
760.3976563023916
 30
0.0
 11
483.6386071468724
 21
729.2668354130479
 31
0.0
  0
LINE
  5
4D4
330
2AC
100
AcDbEntity
  8
1
  6
Continuous
 62
     3
100
AcDbLine
 10
483.6386071468724
 20
729.2668354130479
 30
0.0
 11
496.7511071468726
 21
729.2668354130479
 31
0.0
  0
LINE
  5
4D5
330
2AC
100
AcDbEntity
  8
1
  6
Continuous
 62
     3
100
AcDbLine
 10
496.7511071468726
 20
568.60625
 30
0.0
 11
483.6386071468724
 21
568.60625
 31
0.0
  0
LINE
  5
4D6
330
2AC
100
AcDbEntity
  8
1
  6
Continuous
 62
     3
100
AcDbLine
 10
490.1948571468722
 20
544.8937499999998
 30
0.0
 11
483.6386071468724
 21
568.60625
 31
0.0
  0
LINE
  5
4D7
330
2AC
100
AcDbEntity
  8
1
  6
Continuous
 62
     3
100
AcDbLine
 10
490.1948571468722
 20
544.8937499999998
 30
0.0
 11
496.7511071468726
 21
568.60625
 31
0.0
  0
LINE
  5
4D8
330
2AC
100
AcDbEntity
  8
1
  6
Continuous
 62
     3
100
AcDbLine
 10
496.7511071468726
 20
568.60625
 30
0.0
 11
483.6386071468724
 21
568.60625
 31
0.0
  0
LINE
  5
4D9
330
2AC
100
AcDbEntity
  8
1
  6
Continuous
 62
     3
100
AcDbLine
 10
490.1948571468722
 20
729.2668354130479
 30
0.0
 11
490.1948571468722
 21
669.4960178674753
 31
0.0
  0
LINE
  5
4DA
330
2AC
100
AcDbEntity
  8
1
  6
Continuous
 62
     3
100
AcDbLine
 10
490.1948571468722
 20
629.4960178674751
 30
0.0
 11
490.1948571468722
 21
568.60625
 31
0.0
  0
LINE
  5
507
330
2AC
100
AcDbEntity
  8
1
  6
Continuous
 62
     5
100
AcDbLine
 10
490.1948571468722
 20
649.4960178674751
 30
0.0
 11
496.1948571468725
 21
649.4960178674751
 31
0.0
  0
LINE
  5
508
330
2AC
100
AcDbEntity
  8
1
  6
Continuous
 62
     5
100
AcDbLine
 10
753.4463367023667
 20
923.4726563023921
 30
0.0
 11
760.4463367023664
 21
923.4726563023921
 31
0.0
  0
LINE
  5
50F
330
2AC
100
AcDbEntity
  8
1
  6
Continuous
 62
     4
100
AcDbLine
 10
924.675
 20
668.6437499999997
 30
0.0
 11
932.8875
 21
660.4312499999998
 31
0.0
  0
LINE
  5
510
330
2AC
100
AcDbEntity
  8
1
  6
Continuous
 62
     4
100
AcDbLine
 10
940.5375000000001
 20
652.78125
 30
0.0
 11
948.6937499999999
 21
644.625
 31
0.0
  0
LINE
  5
511
330
2AC
100
AcDbEntity
  8
1
  6
Continuous
 62
     7
100
AcDbLine
 10
918.3187499999997
 20
668.6437499999997
 30
0.0
 11
932.8875
 21
668.6437499999997
 31
0.0
  0
LINE
  5
512
330
2AC
100
AcDbEntity
  8
1
  6
Continuous
 62
     6
100
AcDbLine
 10
940.5375000000001
 20
668.6437499999997
 30
0.0
 11
944.4437500000001
 21
668.6437499999997
 31
0.0
  0
TEXT
  5
518
330
2AC
100
AcDbEntity
  8
1
  6
Continuous
 62
     7
100
AcDbText
 10
753.0297369213975
 20
187.8112140789016
 30
0.0
 40
15.81875
  1
SECTION THROUGH FULL BORE VALVE
  7
ROMANS
 11
753.0297369213975
 21
195.7205890789016
 31
0.0
100
AcDbText
 73
     2
  0
LINE
  5
51B
330
2AC
100
AcDbEntity
  8
1
  6
Continuous
 62
     3
100
AcDbLine
 10
780.8374999999998
 20
320.6374999999998
 30
0.0
 11
780.8374999999998
 21
307.525
 31
0.0
  0
LINE
  5
51C
330
2AC
100
AcDbEntity
  8
1
  6
Continuous
 62
     3
100
AcDbLine
 10
804.55
 20
314.08125
 30
0.0
 11
780.8374999999998
 21
307.525
 31
0.0
  0
LINE
  5
51D
330
2AC
100
AcDbEntity
  8
1
  6
Continuous
 62
     3
100
AcDbLine
 10
804.55
 20
314.08125
 30
0.0
 11
780.8374999999998
 21
320.6374999999998
 31
0.0
  0
LINE
  5
51E
330
2AC
100
AcDbEntity
  8
1
  6
Continuous
 62
     3
100
AcDbLine
 10
780.8374999999998
 20
320.6374999999998
 30
0.0
 11
780.8374999999998
 21
307.525
 31
0.0
  0
LINE
  5
51F
330
2AC
100
AcDbEntity
  8
1
  6
Continuous
 62
     3
100
AcDbLine
 10
780.8374999999998
 20
314.08125
 30
0.0
 11
525.9627146127302
 21
314.08125
 31
0.0
  0
LINE
  5
59E
330
2AC
100
AcDbEntity
  8
1
  6
Continuous
 62
     7
100
AcDbLine
 10
1119.80625
 20
669.4812499999994
 30
0.0
 11
1090.10625
 21
669.4812499999994
 31
0.0
  0
LINE
  5
5A0
330
2AC
100
AcDbEntity
  8
1
  6
Continuous
 62
     7
100
AcDbLine
 10
1119.80625
 20
669.4812499999994
 30
0.0
 11
1090.10625
 21
669.4812499999994
 31
0.0
  0
LINE
  5
5A1
330
2AC
100
AcDbEntity
  8
1
  6
Continuous
 62
     7
100
AcDbLine
 10
1090.10625
 20
669.4812499999994
 30
0.0
 11
1085.80625
 21
664.4312499999998
 31
0.0
  0
LINE
  5
5A3
330
2AC
100
AcDbEntity
  8
1
  6
Continuous
 62
     7
100
AcDbLine
 10
1085.80625
 20
621.3937499999993
 30
0.0
 11
1082.86875
 21
618.6937499999998
 31
0.0
  0
LINE
  5
5A4
330
2AC
100
AcDbEntity
  8
1
  6
Continuous
 62
     7
100
AcDbLine
 10
1020.918749999999
 20
623.0187499999997
 30
0.0
 11
1017.975
 21
625.9687499999998
 31
0.0
  0
LINE
  5
5A6
330
2AC
100
AcDbEntity
  8
1
  6
Continuous
 62
     7
100
AcDbLine
 10
1017.975
 20
662.0562499999997
 30
0.0
 11
1015.0375
 21
665.7312499999996
 31
0.0
  0
LINE
  5
5A7
330
2AC
100
AcDbEntity
  8
1
  6
Continuous
 62
     7
100
AcDbLine
 10
1128.30625
 20
465.4812499999997
 30
0.0
 11
1119.80625
 21
465.4812499999997
 31
0.0
  0
LINE
  5
5A8
330
2AC
100
AcDbEntity
  8
1
  6
Continuous
 62
     7
100
AcDbLine
 10
1082.86875
 20
465.2812499999998
 30
0.0
 11
1020.918749999999
 21
460.9437499999996
 31
0.0
  0
LINE
  5
5A9
330
2AC
100
AcDbEntity
  8
1
  6
Continuous
 62
     7
100
AcDbLine
 10
1119.80625
 20
414.4812499999998
 30
0.0
 11
1090.10625
 21
414.4812499999998
 31
0.0
  0
LINE
  5
5AA
330
2AC
100
AcDbEntity
  8
1
  6
Continuous
 62
     7
100
AcDbLine
 10
1128.30625
 20
541.9812499999996
 30
0.0
 11
1128.30625
 21
465.4812499999997
 31
0.0
  0
LINE
  5
5AB
330
2AC
100
AcDbEntity
  8
1
  6
Continuous
 62
     7
100
AcDbLine
 10
1128.30625
 20
465.4812499999997
 30
0.0
 11
1119.80625
 21
465.4812499999997
 31
0.0
  0
LINE
  5
5AC
330
2AC
100
AcDbEntity
  8
1
  6
Continuous
 62
     7
100
AcDbLine
 10
1119.80625
 20
414.4812499999998
 30
0.0
 11
1090.10625
 21
414.4812499999998
 31
0.0
  0
LINE
  5
5AD
330
2AC
100
AcDbEntity
  8
1
  6
Continuous
 62
     7
100
AcDbLine
 10
1090.10625
 20
414.4812499999998
 30
0.0
 11
1085.80625
 21
419.5374999999996
 31
0.0
  0
LINE
  5
5AE
330
2AC
100
AcDbEntity
  8
1
  6
Continuous
 62
     7
100
AcDbLine
 10
1085.80625
 20
462.5812499999994
 30
0.0
 11
1082.86875
 21
465.2812499999998
 31
0.0
  0
LINE
  5
5AF
330
2AC
100
AcDbEntity
  8
1
  6
Continuous
 62
     7
100
AcDbLine
 10
1082.86875
 20
465.2812499999998
 30
0.0
 11
1020.918749999999
 21
460.9437499999996
 31
0.0
  0
LINE
  5
5B0
330
2AC
100
AcDbEntity
  8
1
  6
Continuous
 62
     7
100
AcDbLine
 10
1020.918749999999
 20
460.9437499999996
 30
0.0
 11
1017.975
 21
457.9999999999998
 31
0.0
  0
LINE
  5
5B1
330
2AC
100
AcDbEntity
  8
1
  6
Continuous
 62
     7
100
AcDbLine
 10
1017.975
 20
457.9999999999998
 30
0.0
 11
1017.975
 21
421.9187499999994
 31
0.0
  0
LINE
  5
5B2
330
2AC
100
AcDbEntity
  8
1
  6
Continuous
 62
     7
100
AcDbLine
 10
1017.975
 20
421.9187499999994
 30
0.0
 11
1015.0375
 21
418.2437499999998
 31
0.0
  0
LINE
  5
5B4
330
2AC
100
AcDbEntity
  8
1
  6
Continuous
 62
     7
100
AcDbLine
 10
988.6062499999997
 20
677.49375
 30
0.0
 11
988.6062499999997
 21
665.7312499999996
 31
0.0
  0
LINE
  5
5B5
330
2AC
100
AcDbEntity
  8
1
  6
Continuous
 62
     7
100
AcDbLine
 10
1082.86875
 20
618.6937499999998
 30
0.0
 11
1020.918749999999
 21
623.0187499999997
 31
0.0
  0
LINE
  5
5B8
330
2AC
100
AcDbEntity
  8
1
  6
Continuous
 62
     7
100
AcDbLine
 10
1085.80625
 20
664.4312499999998
 30
0.0
 11
1085.80625
 21
419.5374999999996
 31
0.0
  0
LINE
  5
5B9
330
2AC
100
AcDbEntity
  8
1
  6
Continuous
 62
     7
100
AcDbLine
 10
1119.80625
 20
414.4812499999998
 30
0.0
 11
1119.80625
 21
669.4812499999994
 31
0.0
  0
LINE
  5
5BB
330
2AC
100
AcDbEntity
  8
1
  6
Continuous
 62
     7
100
AcDbLine
 10
1128.30625
 20
541.9812499999996
 30
0.0
 11
1128.30625
 21
621.3937500000001
 31
0.0
  0
LINE
  5
5BC
330
2AC
100
AcDbEntity
  8
1
  6
Continuous
 62
     7
100
AcDbLine
 10
966.9749999999996
 20
418.2437499999998
 30
0.0
 11
966.9749999999996
 21
593.4874999999997
 31
0.0
  0
LINE
  5
5BE
330
2AC
100
AcDbEntity
  8
1
  6
Continuous
 62
     7
100
AcDbLine
 10
1017.975
 20
662.0562499999997
 30
0.0
 11
1017.975
 21
421.9187499999994
 31
0.0
  0
LINE
  5
5C8
330
2AC
100
AcDbEntity
  8
1
  6
Continuous
 62
     7
100
AcDbLine
 10
1120.412996244033
 20
621.39375
 30
0.0
 11
1128.912996244033
 21
621.39375
 31
0.0
  0
LINE
  5
5C9
330
2AC
100
AcDbEntity
  8
1
  6
Continuous
 62
     7
100
AcDbLine
 10
1120.412996244033
 20
621.39375
 30
0.0
 11
1128.30625
 21
621.3937500000001
 31
0.0
  0
LINE
  5
5CA
330
2AC
100
AcDbEntity
  8
1
  6
Continuous
 62
     7
100
AcDbLine
 10
1015.0375
 20
665.7312499999996
 30
0.0
 11
966.9749999999996
 21
665.7312499999996
 31
0.0
  0
LINE
  5
5CB
330
2AC
100
AcDbEntity
  8
1
  6
Continuous
 62
     7
100
AcDbLine
 10
1015.0375
 20
418.2437499999998
 30
0.0
 11
937.6437499999999
 21
418.2437499999998
 31
0.0
  0
LINE
  5
665
330
2AC
100
AcDbEntity
  8
1
  6
Continuous
 62
     7
100
AcDbLine
 10
981.00625
 20
677.49375
 30
0.0
 11
981.00625
 21
760.3976563023916
 31
0.0
  0
LINE
  5
6CA
330
2AC
100
AcDbEntity
  8
1
  6
Continuous
 62
     4
100
AcDbLine
 10
781.6138891716215
 20
544.8937499999998
 30
0.0
 11
790.2405356038164
 21
544.8937499999998
 31
0.0
  0
ARC
  5
6CB
330
2AC
100
AcDbEntity
  8
1
  6
Continuous
 62
     7
100
AcDbCircle
 10
966.9718749999999
 20
544.8906249999996
 30
0.0
 40
76.5
100
AcDbArc
 50
221.810327999999
 51
270.0023405138694
  0
LINE
  5
6CC
330
2AC
100
AcDbEntity
  8
1
  6
Continuous
 62
     6
100
AcDbLine
 10
905.7687499999998
 20
595.8937499999997
 30
0.0
 11
887.4937499999999
 21
595.8937499999997
 31
0.0
  0
LINE
  5
6CF
330
2AC
100
AcDbEntity
  8
1
  6
Continuous
 62
     6
100
AcDbLine
 10
966.97284676194
 20
493.8906119589137
 30
0.0
 11
909.9478467619404
 21
493.8906119589137
 31
0.0
  0
LINE
  5
72C
330
2AC
100
AcDbEntity
  8
1
  6
Continuous
 62
     4
100
AcDbLine
 10
966.9749999999996
 20
604.388384237287
 30
0.0
 11
958.4803657627123
 21
595.8937499999997
 31
0.0
  0
LINE
  5
72D
330
2AC
100
AcDbEntity
  8
1
  6
Continuous
 62
     4
100
AcDbLine
 10
966.9749999999996
 20
491.9386449352308
 30
0.0
 11
946.2737927833588
 21
471.2439048248747
 31
0.0
  0
LINE
  5
72E
330
2AC
100
AcDbEntity
  8
1
  6
Continuous
 62
     4
100
AcDbLine
 10
966.9749999999996
 20
480.5979149643435
 30
0.0
 11
955.6122650020757
 21
469.2387297118109
 31
0.0
  0
LINE
  5
78B
330
2AC
100
AcDbEntity
  8
1
  6
Continuous
 62
     4
100
AcDbLine
 10
795.7302190518737
 20
544.8937499999998
 30
0.0
 11
944.7359146696353
 21
544.8937499999998
 31
0.0
  0
LINE
  5
78C
330
2AC
100
AcDbEntity
  8
1
  6
Continuous
 62
     4
100
AcDbLine
 10
1143.933000291761
 20
544.8937499999998
 30
0.0
 11
1152.559646723956
 21
544.8937499999998
 31
0.0
  0
LINE
  5
78D
330
2AC
100
AcDbEntity
  8
1
  6
Continuous
 62
     4
100
AcDbLine
 10
961.9892039856567
 20
544.8937499999998
 30
0.0
 11
1137.659077871853
 21
544.8937499999998
 31
0.0
  0
LINE
  5
78E
330
2AC
100
AcDbEntity
  8
1
  6
Continuous
 62
     4
100
AcDbLine
 10
950.2255981176924
 20
544.8937499999998
 30
0.0
 11
957.2837595094505
 21
544.8937499999998
 31
0.0
  0
LINE
  5
7BD
330
2AC
100
AcDbEntity
  8
1
  6
Continuous
 62
     3
100
AcDbLine
 10
1128.30625
 20
450.588179368873
 30
0.0
 11
1128.30625
 21
304.663179368873
 31
0.0
  0
LINE
  5
7EC
330
2AC
100
AcDbEntity
  8
1
  6
Continuous
 62
     4
100
AcDbLine
 10
966.9749999999996
 20
774.0078520441543
 30
0.0
 11
966.9749999999996
 21
778.4311668619507
 31
0.0
  0
LINE
  5
81B
330
2AC
100
AcDbEntity
  8
1
  6
Continuous
 62
     4
100
AcDbLine
 10
966.9749999999996
 20
669.6176081339673
 30
0.0
 11
966.9749999999996
 21
770.9115303628633
 31
0.0
  0
LINE
  5
902
330
2AC
100
AcDbEntity
  8
1
  6
Continuous
 62
     7
100
AcDbLine
 10
805.0437500000001
 20
621.39375
 30
0.0
 11
805.0437500000001
 21
468.3937499999998
 31
0.0
  0
LINE
  5
95F
330
2AC
100
AcDbEntity
  8
1
  6
Continuous
 62
     7
100
AcDbLine
 10
843.25
 20
672.3937499999997
 30
0.0
 11
813.54375
 21
672.3937499999997
 31
0.0
  0
LINE
  5
962
330
2AC
100
AcDbEntity
  8
1
  6
Continuous
 62
     7
100
AcDbLine
 10
813.54375
 20
621.39375
 30
0.0
 11
813.54375
 21
672.3937499999997
 31
0.0
  0
LINE
  5
991
330
2AC
100
AcDbEntity
  8
1
  6
Continuous
 62
     7
100
AcDbLine
 10
813.54375
 20
417.39375
 30
0.0
 11
813.54375
 21
468.3937499999998
 31
0.0
  0
LINE
  5
992
330
2AC
100
AcDbEntity
  8
1
  6
Continuous
 62
     7
100
AcDbLine
 10
847.5437499999996
 20
422.4499999999999
 30
0.0
 11
847.5437499999996
 21
465.4937499999999
 31
0.0
  0
LINE
  5
993
330
2AC
100
AcDbEntity
  8
1
  6
Continuous
 62
     7
100
AcDbLine
 10
847.5437499999996
 20
667.34375
 30
0.0
 11
847.5437499999996
 21
624.3062499999997
 31
0.0
  0
LINE
  5
994
330
2AC
100
AcDbEntity
  8
1
  6
Continuous
 62
     7
100
AcDbLine
 10
912.43125
 20
625.93125
 30
0.0
 11
850.4875
 21
621.60625
 31
0.0
  0
LINE
  5
9C3
330
2AC
100
AcDbEntity
  8
1
  6
Continuous
 62
     7
100
AcDbLine
 10
915.38125
 20
664.9687499999997
 30
0.0
 11
915.38125
 21
628.88125
 31
0.0
  0
LINE
  5
A4E
330
2AC
100
AcDbEntity
  8
1
  6
Continuous
 62
     7
100
AcDbLine
 10
915.38125
 20
628.88125
 30
0.0
 11
912.43125
 21
625.93125
 31
0.0
  0
LINE
  5
A7D
330
2AC
100
AcDbEntity
  8
1
  6
Continuous
 62
     7
100
AcDbLine
 10
850.4875
 20
468.19375
 30
0.0
 11
912.43125
 21
463.8562499999999
 31
0.0
  0
TEXT
  5
AAC
330
2AC
100
AcDbEntity
  8
1
  6
Continuous
 62
     7
100
AcDbText
 10
549.6077587325312
 20
322.6023866274164
 30
0.0
 40
15.81875
  1
LONG PATTERN
  7
ROMANS
 11
549.6077587325312
 21
330.5117616274164
 31
0.0
100
AcDbText
 73
     2
  0
TEXT
  5
AAE
330
2AC
100
AcDbEntity
  8
1
  6
Continuous
 62
     7
100
AcDbText
 10
535.2227961158778
 20
283.0636427047821
 30
0.0
 40
15.81875
  1
SHORT PATTERN
  7
ROMANS
 11
535.2227961158778
 21
290.9730177047821
 31
0.0
100
AcDbText
 73
     2
  0
LINE
  5
BC3
330
2AC
100
AcDbEntity
  8
1
  6
Continuous
 62
     5
100
AcDbLine
 10
966.306518288057
 20
339.1186181078154
 30
0.0
 11
969.3065182880573
 21
339.1186181078154
 31
0.0
  0
LINE
  5
BC4
330
2AC
100
AcDbEntity
  8
1
  6
Continuous
 62
     5
100
AcDbLine
 10
966.306518288057
 20
301.1186181078155
 30
0.0
 11
980.3065182880573
 21
301.1186181078155
 31
0.0
  0
LINE
  5
C4F
330
2AC
100
AcDbEntity
  8
1
  6
Continuous
 62
     4
100
AcDbLine
 10
948.1687058993871
 20
463.2937499999997
 30
0.0
 11
966.9749999999996
 21
444.4874558993872
 31
0.0
  0
LINE
  5
C51
330
2AC
100
AcDbEntity
  8
1
  6
Continuous
 62
     4
100
AcDbLine
 10
960.3559586450316
 20
429.2937499999998
 30
0.0
 11
966.9749999999996
 21
422.6747086450314
 31
0.0
  0
LINE
  5
C52
330
2AC
100
AcDbEntity
  8
1
  6
Continuous
 62
     4
100
AcDbLine
 10
965.7063482481254
 20
436.184522372188
 30
0.0
 11
966.9749999999996
 21
434.9158706203136
 31
0.0
  0
LINE
  5
C53
330
2AC
100
AcDbEntity
  8
1
  6
Continuous
 62
     4
100
AcDbLine
 10
958.0158315297223
 20
463.2937499999997
 30
0.0
 11
966.9749999999996
 21
454.334581529723
 31
0.0
  0
LINE
  5
CDE
330
2AC
100
AcDbEntity
  8
1
  6
Continuous
 62
     7
100
AcDbLine
 10
937.6437499999999
 20
463.2937499999998
 30
0.0
 11
966.9749999999996
 21
463.2937499999998
 31
0.0
  0
LINE
  5
EAE
330
2AC
100
AcDbEntity
  8
1
  6
Continuous
 62
     6
100
AcDbLine
 10
883.225
 20
595.8937499999997
 30
0.0
 11
805.0437500000001
 21
595.8937499999997
 31
0.0
  0
ENDSEC
  0
SECTION
  2
OBJECTS
  0
DICTIONARY
  5
29A
330
0
100
AcDbDictionary
281
     1
  3
ACAD_COLOR
350
575
  3
ACAD_GROUP
350
29B
  3
ACAD_LAYOUT
350
2A7
  3
ACAD_MATERIAL
350
548
  3
ACAD_MLEADERSTYLE
350
59A
  3
ACAD_MLINESTYLE
350
2A4
  3
ACAD_PLOTSETTINGS
350
2A6
  3
ACAD_PLOTSTYLENAME
350
29C
  3
ACAD_SCALELIST
350
578
  3
ACAD_TABLESTYLE
350
576
  3
ACAD_VISUALSTYLE
350
561
  3
ACDB_RECOMPOSE_DATA
350
F6E
  3
AcDbVariableDictionary
350
5DC
  3
DWGPROPS
350
F6F
  0
DICTIONARY
  5
5D4
330
29E
100
AcDbDictionary
280
     1
281
     1
  3
ADSK_XREC_LAYER_RECONCILED
360
5D5
  0
DICTIONARY
  5
5D6
330
2B7
100
AcDbDictionary
280
     1
281
     1
  3
ADSK_XREC_LAYER_RECONCILED
360
5D7
  0
DICTIONARY
  5
5D8
330
2B8
100
AcDbDictionary
280
     1
281
     1
  3
ADSK_XREC_LAYER_RECONCILED
360
5D9
  0
DICTIONARY
  5
5DA
330
2B9
100
AcDbDictionary
280
     1
281
     1
  3
ADSK_XREC_LAYER_RECONCILED
360
5DB
  0
DICTIONARY
  5
6CD
330
2AC
100
AcDbDictionary
280
     1
281
     1
  3
ACAD_SORTENTS
360
6CE
  0
DICTIONARY
  5
575
102
{ACAD_REACTORS
330
29A
102
}
330
29A
100
AcDbDictionary
281
     1
  0
DICTIONARY
  5
29B
102
{ACAD_REACTORS
330
29A
102
}
330
29A
100
AcDbDictionary
281
     1
  0
DICTIONARY
  5
2A7
102
{ACAD_REACTORS
330
29A
102
}
330
29A
100
AcDbDictionary
281
     1
  3
Layout1
350
2AB
  3
Model
350
2AF
  0
DICTIONARY
  5
548
102
{ACAD_REACTORS
330
29A
102
}
330
29A
100
AcDbDictionary
281
     1
  3
ByBlock
350
551
  3
ByLayer
350
549
  3
Global
350
559
  0
DICTIONARY
  5
59A
102
{ACAD_REACTORS
330
29A
102
}
330
29A
100
AcDbDictionary
281
     1
  3
Standard
350
59B
  0
DICTIONARY
  5
2A4
102
{ACAD_REACTORS
330
29A
102
}
330
29A
100
AcDbDictionary
281
     1
  3
Standard
350
2A5
  0
DICTIONARY
  5
2A6
102
{ACAD_REACTORS
330
29A
102
}
330
29A
100
AcDbDictionary
281
     1
  0
ACDBDICTIONARYWDFLT
  5
29C
102
{ACAD_REACTORS
330
29A
102
}
330
29A
100
AcDbDictionary
281
     1
  3
Normal
350
29D
100
AcDbDictionaryWithDefault
340
29D
  0
DICTIONARY
  5
578
102
{ACAD_REACTORS
330
29A
102
}
330
29A
100
AcDbDictionary
281
     1
  3
A0
350
579
  3
A1
350
57A
  3
A2
350
57B
  3
A3
350
57C
  3
A4
350
57D
  3
A5
350
57E
  3
A6
350
57F
  3
A7
350
580
  3
A8
350
581
  3
A9
350
582
  3
B0
350
583
  3
B1
350
584
  3
B2
350
585
  3
B3
350
586
  3
B4
350
587
  3
B5
350
588
  3
B6
350
589
  3
B7
350
58A
  3
B8
350
58B
  3
B9
350
58C
  3
C0
350
58D
  3
C1
350
58E
  3
C2
350
58F
  3
C3
350
590
  3
C4
350
591
  3
C5
350
592
  3
C6
350
593
  3
C7
350
594
  3
C8
350
595
  3
C9
350
596
  3
D0
350
597
  3
D1
350
598
  3
D2
350
599
  0
DICTIONARY
  5
576
102
{ACAD_REACTORS
330
29A
102
}
330
29A
100
AcDbDictionary
281
     1
  3
Standard
350
577
  0
DICTIONARY
  5
561
102
{ACAD_REACTORS
330
29A
102
}
330
29A
100
AcDbDictionary
281
     1
  3
2dWireframe
350
567
  3
3D Hidden
350
569
  3
3dWireframe
350
568
  3
Basic
350
566
  3
Brighten
350
56D
  3
ColorChange
350
571
  3
Conceptual
350
56A
  3
Dim
350
56C
  3
EdgeColorOff
350
574
  3
Facepattern
350
570
  3
Flat
350
562
  3
FlatWithEdges
350
563
  3
Gouraud
350
564
  3
GouraudWithEdges
350
565
  3
JitterOff
350
572
  3
Linepattern
350
56F
  3
OverhangOff
350
573
  3
Realistic
350
56B
  3
Thicken
350
56E
  0
XRECORD
  5
F6E
102
{ACAD_REACTORS
330
29A
102
}
330
29A
100
AcDbXrecord
280
     1
 90
        1
330
577
  0
DICTIONARY
  5
5DC
102
{ACAD_REACTORS
330
29A
102
}
330
29A
100
AcDbDictionary
281
     1
  3
CANNOSCALE
350
5DF
  3
CMLEADERSTYLE
350
5DE
  3
CTABLESTYLE
350
5DD
  3
DIMASSOC
350
5E2
  3
INDEXCTL
350
5E1
  3
SORTENTS
350
5E0
  3
XCLIPFRAME
350
F10
  0
XRECORD
  5
F6F
102
{ACAD_REACTORS
330
29A
102
}
330
29A
100
AcDbXrecord
280
     1
  1
DWGPROPS COOKIE
  2

  3

  4

  6

  7

  8
XPS
  9

300
=
301
=
302
=
303
=
304
=
305
=
306
=
307
=
308
=
309
=
 40
0.0608952546296296
 41
2453238.928356481
 42
2456107.867580185
  1

 90
        0
  0
XRECORD
  5
5D5
102
{ACAD_REACTORS
330
5D4
102
}
330
5D4
100
AcDbXrecord
280
     1
290
     1
  0
XRECORD
  5
5D7
102
{ACAD_REACTORS
330
5D6
102
}
330
5D6
100
AcDbXrecord
280
     1
290
     1
  0
XRECORD
  5
5D9
102
{ACAD_REACTORS
330
5D8
102
}
330
5D8
100
AcDbXrecord
280
     1
290
     1
  0
XRECORD
  5
5DB
102
{ACAD_REACTORS
330
5DA
102
}
330
5DA
100
AcDbXrecord
280
     1
290
     1
  0
SORTENTSTABLE
  5
6CE
102
{ACAD_REACTORS
330
6CD
102
}
330
6CD
100
AcDbSortentsTable
330
2AC
331
375
  5
375
331
3B2
  5
3B2
331
2E8
  5
2E8
331
2E4
  5
2E4
331
33B
  5
33B
331
3AE
  5
3AE
331
415
  5
415
331
450
  5
4D1
331
371
  5
371
331
2E0
  5
2E0
331
44C
  5
450
331
3AA
  5
3AA
331
411
  5
411
331
448
  5
44D
331
78E
  5
72E
331
5BE
  5
5CB
331
40D
  5
40D
331
333
  5
333
331
51F
  5
5A3
331
3A6
  5
3A6
331
3A2
  5
3A2
331
409
  5
409
331
355
  5
355
331
444
  5
448
331
51B
  5
51F
331
351
  5
351
331
39E
  5
39E
331
405
  5
405
331
72E
  5
81B
331
440
  5
444
331
2D4
  5
2D4
331
2D0
  5
2D0
331
991
  5
992
331
438
  5
43A
331
34D
  5
34D
331
349
  5
349
331
50F
  5
515
331
392
  5
392
331
3E9
  5
3E9
331
345
  5
345
331
507
  5
511
331
38E
  5
38E
331
3E5
  5
3E5
331
430
  5
438
331
341
  5
341
331
5CA
  5
6CB
331
38A
  5
38A
331
BC4
  5
C4F
331
3E1
  5
3E1
331
AAC
  5
AAE
331
5B2
  5
5B9
331
317
  5
317
331
3DD
  5
3DD
331
6CC
  5
42D
331
386
  5
386
331
382
  5
382
331
3D9
  5
3D9
331
37E
  5
37E
331
3D5
  5
3D5
331
420
  5
420
331
5AE
  5
5B2
331
4D7
  5
507
331
4D3
  5
4D7
331
37A
  5
37A
331
5AA
  5
5AE
331
41C
  5
41C
331
418
  5
418
331
5A6
  5
5AA
331
3B5
  5
3B5
331
374
  5
374
331
3B1
  5
3B1
331
453
  5
4D4
331
2E7
  5
2E7
331
2E3
  5
2E3
331
33A
  5
33A
331
59E
  5
5A4
331
3AD
  5
3AD
331
414
  5
414
331
7BD
  5
902
331
44F
  5
453
331
410
  5
410
331
44B
  5
44F
331
3A9
  5
3A9
331
78D
  5
78B
331
2DF
  5
2DF
331
336
  5
336
331
5B9
  5
5C8
331
40C
  5
40C
331
447
  5
44C
331
51E
  5
5A1
331
3A5
  5
3A5
331
3A1
  5
3A1
331
443
  5
447
331
354
  5
354
331
2D3
  5
2D3
331
32A
  5
32A
331
404
  5
404
331
72D
  5
7EC
331
994
  5
9C3
331
43F
  5
443
331
350
  5
350
331
43B
  5
43E
331
512
  5
51D
331
C53
  5
C52
331
665
  5
6CF
331
C4F
  5
C51
331
34C
  5
34C
331
2CF
  5
2CF
331
326
  5
326
331
348
  5
348
331
395
  5
395
331
391
  5
391
331
3E8
  5
3E8
331
344
  5
344
331
31A
  5
31A
331
38D
  5
38D
331
3E4
  5
3E4
331
42F
  5
431
331
340
  5
340
331
5C9
  5
6CA
331
389
  5
389
331
BC3
  5
BC4
331
3E0
  5
3E0
331
5B5
  5
5BC
331
5B1
  5
5B8
331
6CF
  5
78E
331
3DC
  5
3DC
331
6CB
  5
78D
331
385
  5
385
331
381
  5
381
331
3D8
  5
3D8
331
4DA
  5
510
331
2F2
  5
2F2
331
4D6
  5
4DA
331
37D
  5
37D
331
3D4
  5
3D4
331
41F
  5
41F
331
5AD
  5
5B1
331
4D2
  5
4D6
331
379
  5
379
331
5A9
  5
5AD
331
41B
  5
41B
331
7EC
  5
441
331
5A1
  5
5A7
331
377
  5
377
331
33D
  5
33D
331
373
  5
373
331
3B0
  5
3B0
331
417
  5
417
331
452
  5
4D3
331
2E6
  5
2E6
331
2E2
  5
2E2
331
3AC
  5
3AC
331
413
  5
413
331
EAE
  5
42E
331
44E
  5
452
331
3A8
  5
3A8
331
CDE
  5
EAE
331
9C3
  5
A4E
331
36F
  5
36F
331
40F
  5
40F
331
2DE
  5
2DE
331
335
  5
335
331
5BC
  5
5CA
331
5B8
  5
5BE
331
357
  5
357
331
3A4
  5
3A4
331
40B
  5
40B
331
446
  5
44B
331
51D
  5
5A0
331
331
  5
331
331
407
  5
407
331
442
  5
446
331
353
  5
353
331
2D2
  5
2D2
331
403
  5
403
331
72C
  5
7BD
331
993
  5
994
331
43E
  5
442
331
43A
  5
43D
331
511
  5
51B
331
398
  5
398
331
C52
  5
CDE
331
34F
  5
34F
331
34B
  5
34B
331
2CE
  5
2CE
331
347
  5
347
331
3EB
  5
3EB
331
321
  5
321
331
95F
  5
962
331
390
  5
390
331
38C
  5
38C
331
3E3
  5
3E3
331
42E
  5
430
331
42A
  5
42A
331
5C8
  5
665
331
5B4
  5
5BB
331
AAE
  5
BC3
331
5B0
  5
5B5
331
3DF
  5
3DF
331
3DB
  5
3DB
331
6CA
  5
72C
331
384
  5
384
331
380
  5
380
331
3D7
  5
3D7
331
4D9
  5
50F
331
2F1
  5
2F1
331
4D5
  5
4D9
331
37C
  5
37C
331
5AC
  5
5B0
331
81B
  5
440
331
41E
  5
41E
331
41A
  5
41A
331
5A8
  5
5AC
331
4D1
  5
4D5
331
378
  5
378
331
5A4
  5
5A9
331
A4E
  5
A7D
331
5A0
  5
5A6
331
376
  5
376
331
33C
  5
33C
331
372
  5
372
331
3AF
  5
3AF
331
416
  5
416
331
451
  5
4D2
331
2E5
  5
2E5
331
2E1
  5
2E1
331
338
  5
338
331
44D
  5
451
331
3AB
  5
3AB
331
412
  5
412
331
449
  5
44E
331
78B
  5
72D
331
36E
  5
36E
331
5BB
  5
5C9
331
40E
  5
40E
331
2DD
  5
2DD
331
3A7
  5
3A7
331
3A3
  5
3A3
331
40A
  5
40A
331
445
  5
449
331
51C
  5
59E
331
330
  5
330
331
518
  5
51E
331
32C
  5
32C
331
441
  5
445
331
352
  5
352
331
2D1
  5
2D1
331
992
  5
993
331
43D
  5
43F
331
439
  5
43B
331
510
  5
518
331
C51
  5
C53
331
962
  5
991
331
34E
  5
34E
331
34A
  5
34A
331
324
  5
324
331
393
  5
393
331
3EA
  5
3EA
331
346
  5
346
331
38F
  5
38F
331
3E6
  5
3E6
331
342
  5
342
331
431
  5
439
331
508
  5
512
331
38B
  5
38B
331
3E2
  5
3E2
331
5CB
  5
6CC
331
42D
  5
42F
331
902
  5
95F
331
3DE
  5
3DE
331
3DA
  5
3DA
331
383
  5
383
331
37F
  5
37F
331
3D6
  5
3D6
331
421
  5
421
331
5AF
  5
5B4
331
4D8
  5
508
331
4D4
  5
4D8
331
37B
  5
37B
331
5AB
  5
5AF
331
A7D
  5
AAC
331
41D
  5
41D
331
419
  5
419
331
5A7
  5
5AB
331
5A3
  5
5A8
  0
LAYOUT
  5
2AB
102
{ACAD_XDICTIONARY
360
F70
102
}
102
{ACAD_REACTORS
330
2A7
102
}
330
2A7
100
AcDbPlotSettings
  1

  2
HP DeskJet 840C/841C/842C/843C
  4

  6

 40
0.0
 41
0.0
 42
0.0
 43
0.0
 44
0.0
 45
0.0
 46
0.0
 47
0.0
 48
0.0
 49
0.0
140
0.0
141
0.0
142
1.0
143
1.0
 70
   688
 72
     0
 73
     0
 74
     5
  7

 75
    16
147
1.0
148
0.0
149
0.0
100
AcDbLayout
  1
Layout1
 70
     0
 71
     1
 10
0.0
 20
0.0
 11
12.0
 21
9.0
 12
0.0
 22
0.0
 32
0.0
 14
-1.000000000000000E+20
 24
-1.000000000000000E+20
 34
-1.000000000000000E+20
 15
-1.000000000000000E+20
 25
-1.000000000000000E+20
 35
-1.000000000000000E+20
146
0.0
 13
0.0
 23
0.0
 33
0.0
 16
1.0
 26
0.0
 36
0.0
 17
0.0
 27
1.0
 37
0.0
 76
     0
330
2A8
  0
LAYOUT
  5
2AF
102
{ACAD_XDICTIONARY
360
F72
102
}
102
{ACAD_REACTORS
330
2A7
102
}
330
2A7
100
AcDbPlotSettings
  1

  2
HP DeskJet 840C/841C/842C/843C
  4

  6

 40
0.0
 41
0.0
 42
0.0
 43
0.0
 44
0.0
 45
0.0
 46
0.0
 47
0.0
 48
0.0
 49
0.0
140
0.0
141
0.0
142
1.0
143
1.0
 70
  1712
 72
     0
 73
     0
 74
     0
  7

 75
     0
147
1.0
148
0.0
149
0.0
100
AcDbLayout
  1
Model
 70
     1
 71
     0
 10
0.0
 20
0.0
 11
12.0
 21
9.0
 12
0.0
 22
0.0
 32
0.0
 14
0.0
 24
0.0
 34
0.0
 15
0.0
 25
0.0
 35
0.0
146
0.0
 13
0.0
 23
0.0
 33
0.0
 16
1.0
 26
0.0
 36
0.0
 17
0.0
 27
1.0
 37
0.0
 76
     0
330
2AC
331
544
  0
MATERIAL
  5
551
102
{ACAD_XDICTIONARY
360
552
102
}
102
{ACAD_REACTORS
330
548
102
}
330
548
100
AcDbMaterial
  1
ByBlock
 72
     0
 43
0.0208333333333333
 43
0.0
 43
0.0
 43
0.0
 43
0.0
 43
0.0208333333333333
 43
0.0
 43
0.0
 43
0.0
 43
0.0
 43
1.0
 43
0.0
 43
0.0
 43
0.0
 43
0.0
 43
1.0
 77
     0
 47
0.0208333333333333
 47
0.0
 47
0.0
 47
0.0
 47
0.0
 47
0.0208333333333333
 47
0.0
 47
0.0
 47
0.0
 47
0.0
 47
1.0
 47
0.0
 47
0.0
 47
0.0
 47
0.0
 47
1.0
171
     0
 49
0.0208333333333333
 49
0.0
 49
0.0
 49
0.0
 49
0.0
 49
0.0208333333333333
 49
0.0
 49
0.0
 49
0.0
 49
0.0
 49
1.0
 49
0.0
 49
0.0
 49
0.0
 49
0.0
 49
1.0
175
     0
142
0.0208333333333333
142
0.0
142
0.0
142
0.0
142
0.0
142
0.0208333333333333
142
0.0
142
0.0
142
0.0
142
0.0
142
1.0
142
0.0
142
0.0
142
0.0
142
0.0
142
1.0
179
     0
144
0.0208333333333333
144
0.0
144
0.0
144
0.0
144
0.0
144
0.0208333333333333
144
0.0
144
0.0
144
0.0
144
0.0
144
1.0
144
0.0
144
0.0
144
0.0
144
0.0
144
1.0
147
0.0208333333333333
147
0.0
147
0.0
147
0.0
147
0.0
147
0.0208333333333333
147
0.0
147
0.0
147
0.0
147
0.0
147
1.0
147
0.0
147
0.0
147
0.0
147
0.0
147
1.0
  0
MATERIAL
  5
549
102
{ACAD_XDICTIONARY
360
54A
102
}
102
{ACAD_REACTORS
330
548
102
}
330
548
100
AcDbMaterial
  1
ByLayer
 72
     0
 43
0.0208333333333333
 43
0.0
 43
0.0
 43
0.0
 43
0.0
 43
0.0208333333333333
 43
0.0
 43
0.0
 43
0.0
 43
0.0
 43
1.0
 43
0.0
 43
0.0
 43
0.0
 43
0.0
 43
1.0
 77
     0
 47
0.0208333333333333
 47
0.0
 47
0.0
 47
0.0
 47
0.0
 47
0.0208333333333333
 47
0.0
 47
0.0
 47
0.0
 47
0.0
 47
1.0
 47
0.0
 47
0.0
 47
0.0
 47
0.0
 47
1.0
171
     0
 49
0.0208333333333333
 49
0.0
 49
0.0
 49
0.0
 49
0.0
 49
0.0208333333333333
 49
0.0
 49
0.0
 49
0.0
 49
0.0
 49
1.0
 49
0.0
 49
0.0
 49
0.0
 49
0.0
 49
1.0
175
     0
142
0.0208333333333333
142
0.0
142
0.0
142
0.0
142
0.0
142
0.0208333333333333
142
0.0
142
0.0
142
0.0
142
0.0
142
1.0
142
0.0
142
0.0
142
0.0
142
0.0
142
1.0
179
     0
144
0.0208333333333333
144
0.0
144
0.0
144
0.0
144
0.0
144
0.0208333333333333
144
0.0
144
0.0
144
0.0
144
0.0
144
1.0
144
0.0
144
0.0
144
0.0
144
0.0
144
1.0
147
0.0208333333333333
147
0.0
147
0.0
147
0.0
147
0.0
147
0.0208333333333333
147
0.0
147
0.0
147
0.0
147
0.0
147
1.0
147
0.0
147
0.0
147
0.0
147
0.0
147
1.0
  0
MATERIAL
  5
559
102
{ACAD_XDICTIONARY
360
55A
102
}
102
{ACAD_REACTORS
330
548
102
}
330
548
100
AcDbMaterial
  1
Global
 72
     0
 43
0.0208333333333333
 43
0.0
 43
0.0
 43
0.0
 43
0.0
 43
0.0208333333333333
 43
0.0
 43
0.0
 43
0.0
 43
0.0
 43
1.0
 43
0.0
 43
0.0
 43
0.0
 43
0.0
 43
1.0
 77
     0
 47
0.0208333333333333
 47
0.0
 47
0.0
 47
0.0
 47
0.0
 47
0.0208333333333333
 47
0.0
 47
0.0
 47
0.0
 47
0.0
 47
1.0
 47
0.0
 47
0.0
 47
0.0
 47
0.0
 47
1.0
171
     0
 49
0.0208333333333333
 49
0.0
 49
0.0
 49
0.0
 49
0.0
 49
0.0208333333333333
 49
0.0
 49
0.0
 49
0.0
 49
0.0
 49
1.0
 49
0.0
 49
0.0
 49
0.0
 49
0.0
 49
1.0
175
     0
142
0.0208333333333333
142
0.0
142
0.0
142
0.0
142
0.0
142
0.0208333333333333
142
0.0
142
0.0
142
0.0
142
0.0
142
1.0
142
0.0
142
0.0
142
0.0
142
0.0
142
1.0
179
     0
144
0.0208333333333333
144
0.0
144
0.0
144
0.0
144
0.0
144
0.0208333333333333
144
0.0
144
0.0
144
0.0
144
0.0
144
1.0
144
0.0
144
0.0
144
0.0
144
0.0
144
1.0
147
0.0208333333333333
147
0.0
147
0.0
147
0.0
147
0.0
147
0.0208333333333333
147
0.0
147
0.0
147
0.0
147
0.0
147
1.0
147
0.0
147
0.0
147
0.0
147
0.0
147
1.0
  0
MLEADERSTYLE
  5
59B
102
{ACAD_REACTORS
330
59A
102
}
330
59A
100
AcDbMLeaderStyle
170
     2
171
     1
172
     0
 90
        2
 40
0.0
 41
0.0
173
     1
 91
-1056964608
340
2A1
 92
       -2
290
     1
 42
0.09
291
     1
 43
0.36
  3
Standard
 44
0.18
300

342
29F
174
     1
178
     6
175
     1
176
     0
 93
-1056964608
 45
0.18
292
     0
297
     0
 46
0.18
 94
-1056964608
 47
1.0
 49
1.0
140
1.0
293
     1
141
0.0
294
     1
177
     0
142
1.0
295
     0
296
     0
143
0.125
1001
ACAD_MLEADERVER
1070
     2
  0
MLINESTYLE
  5
2A5
102
{ACAD_REACTORS
330
2A4
102
}
330
2A4
100
AcDbMlineStyle
  2
STANDARD
 70
     0
  3

 62
   256
 51
90.0
 52
90.0
 71
     2
 49
0.5
 62
   256
  6
BYLAYER
 49
-0.5
 62
   256
  6
BYLAYER
  0
ACDBPLACEHOLDER
  5
29D
102
{ACAD_REACTORS
330
29C
102
}
330
29C
  0
SCALE
  5
579
102
{ACAD_REACTORS
330
578
102
}
330
578
100
AcDbScale
 70
     0
300
1:1
140
1.0
141
1.0
290
     1
  0
SCALE
  5
57A
102
{ACAD_REACTORS
330
578
102
}
330
578
100
AcDbScale
 70
     0
300
1:2
140
1.0
141
2.0
290
     0
  0
SCALE
  5
57B
102
{ACAD_REACTORS
330
578
102
}
330
578
100
AcDbScale
 70
     0
300
1:4
140
1.0
141
4.0
290
     0
  0
SCALE
  5
57C
102
{ACAD_REACTORS
330
578
102
}
330
578
100
AcDbScale
 70
     0
300
1:5
140
1.0
141
5.0
290
     0
  0
SCALE
  5
57D
102
{ACAD_REACTORS
330
578
102
}
330
578
100
AcDbScale
 70
     0
300
1:8
140
1.0
141
8.0
290
     0
  0
SCALE
  5
57E
102
{ACAD_REACTORS
330
578
102
}
330
578
100
AcDbScale
 70
     0
300
1:10
140
1.0
141
10.0
290
     0
  0
SCALE
  5
57F
102
{ACAD_REACTORS
330
578
102
}
330
578
100
AcDbScale
 70
     0
300
1:16
140
1.0
141
16.0
290
     0
  0
SCALE
  5
580
102
{ACAD_REACTORS
330
578
102
}
330
578
100
AcDbScale
 70
     0
300
1:20
140
1.0
141
20.0
290
     0
  0
SCALE
  5
581
102
{ACAD_REACTORS
330
578
102
}
330
578
100
AcDbScale
 70
     0
300
1:30
140
1.0
141
30.0
290
     0
  0
SCALE
  5
582
102
{ACAD_REACTORS
330
578
102
}
330
578
100
AcDbScale
 70
     0
300
1:40
140
1.0
141
40.0
290
     0
  0
SCALE
  5
583
102
{ACAD_REACTORS
330
578
102
}
330
578
100
AcDbScale
 70
     0
300
1:50
140
1.0
141
50.0
290
     0
  0
SCALE
  5
584
102
{ACAD_REACTORS
330
578
102
}
330
578
100
AcDbScale
 70
     0
300
1:100
140
1.0
141
100.0
290
     0
  0
SCALE
  5
585
102
{ACAD_REACTORS
330
578
102
}
330
578
100
AcDbScale
 70
     0
300
2:1
140
2.0
141
1.0
290
     0
  0
SCALE
  5
586
102
{ACAD_REACTORS
330
578
102
}
330
578
100
AcDbScale
 70
     0
300
4:1
140
4.0
141
1.0
290
     0
  0
SCALE
  5
587
102
{ACAD_REACTORS
330
578
102
}
330
578
100
AcDbScale
 70
     0
300
8:1
140
8.0
141
1.0
290
     0
  0
SCALE
  5
588
102
{ACAD_REACTORS
330
578
102
}
330
578
100
AcDbScale
 70
     0
300
10:1
140
10.0
141
1.0
290
     0
  0
SCALE
  5
589
102
{ACAD_REACTORS
330
578
102
}
330
578
100
AcDbScale
 70
     0
300
100:1
140
100.0
141
1.0
290
     0
  0
SCALE
  5
58A
102
{ACAD_REACTORS
330
578
102
}
330
578
100
AcDbScale
 70
     0
300
1/128" = 1'-0"
140
0.0078125
141
12.0
290
     0
  0
SCALE
  5
58B
102
{ACAD_REACTORS
330
578
102
}
330
578
100
AcDbScale
 70
     0
300
1/64" = 1'-0"
140
0.015625
141
12.0
290
     0
  0
SCALE
  5
58C
102
{ACAD_REACTORS
330
578
102
}
330
578
100
AcDbScale
 70
     0
300
1/32" = 1'-0"
140
0.03125
141
12.0
290
     0
  0
SCALE
  5
58D
102
{ACAD_REACTORS
330
578
102
}
330
578
100
AcDbScale
 70
     0
300
1/16" = 1'-0"
140
0.0625
141
12.0
290
     0
  0
SCALE
  5
58E
102
{ACAD_REACTORS
330
578
102
}
330
578
100
AcDbScale
 70
     0
300
3/32" = 1'-0"
140
0.09375
141
12.0
290
     0
  0
SCALE
  5
58F
102
{ACAD_REACTORS
330
578
102
}
330
578
100
AcDbScale
 70
     0
300
1/8" = 1'-0"
140
0.125
141
12.0
290
     0
  0
SCALE
  5
590
102
{ACAD_REACTORS
330
578
102
}
330
578
100
AcDbScale
 70
     0
300
3/16" = 1'-0"
140
0.1875
141
12.0
290
     0
  0
SCALE
  5
591
102
{ACAD_REACTORS
330
578
102
}
330
578
100
AcDbScale
 70
     0
300
1/4" = 1'-0"
140
0.25
141
12.0
290
     0
  0
SCALE
  5
592
102
{ACAD_REACTORS
330
578
102
}
330
578
100
AcDbScale
 70
     0
300
3/8" = 1'-0"
140
0.375
141
12.0
290
     0
  0
SCALE
  5
593
102
{ACAD_REACTORS
330
578
102
}
330
578
100
AcDbScale
 70
     0
300
1/2" = 1'-0"
140
0.5
141
12.0
290
     0
  0
SCALE
  5
594
102
{ACAD_REACTORS
330
578
102
}
330
578
100
AcDbScale
 70
     0
300
3/4" = 1'-0"
140
0.75
141
12.0
290
     0
  0
SCALE
  5
595
102
{ACAD_REACTORS
330
578
102
}
330
578
100
AcDbScale
 70
     0
300
1" = 1'-0"
140
1.0
141
12.0
290
     0
  0
SCALE
  5
596
102
{ACAD_REACTORS
330
578
102
}
330
578
100
AcDbScale
 70
     0
300
1-1/2" = 1'-0"
140
1.5
141
12.0
290
     0
  0
SCALE
  5
597
102
{ACAD_REACTORS
330
578
102
}
330
578
100
AcDbScale
 70
     0
300
3" = 1'-0"
140
3.0
141
12.0
290
     0
  0
SCALE
  5
598
102
{ACAD_REACTORS
330
578
102
}
330
578
100
AcDbScale
 70
     0
300
6" = 1'-0"
140
6.0
141
12.0
290
     0
  0
SCALE
  5
599
102
{ACAD_REACTORS
330
578
102
}
330
578
100
AcDbScale
 70
     0
300
1'-0" = 1'-0"
140
12.0
141
12.0
290
     0
  0
TABLESTYLE
  5
577
102
{ACAD_XDICTIONARY
360
5E4
102
}
102
{ACAD_REACTORS
330
576
102
}
330
576
100
AcDbTableStyle
  3
Standard
 70
     0
 71
     0
 40
0.06
 41
0.06
280
     0
281
     0
  7
STANDARD
140
0.18
170
     2
 62
     0
 63
     7
283
     0
274
    -2
284
     1
 64
     0
275
    -2
285
     1
 65
     0
276
    -2
286
     1
 66
     0
277
    -2
287
     1
 67
     0
278
    -2
288
     1
 68
     0
279
    -2
289
     1
 69
     0
  7
STANDARD
140
0.25
170
     5
 62
     0
 63
     7
283
     0
274
    -2
284
     1
 64
     0
275
    -2
285
     1
 65
     0
276
    -2
286
     1
 66
     0
277
    -2
287
     1
 67
     0
278
    -2
288
     1
 68
     0
279
    -2
289
     1
 69
     0
  7
STANDARD
140
0.18
170
     5
 62
     0
 63
     7
283
     0
274
    -2
284
     1
 64
     0
275
    -2
285
     1
 65
     0
276
    -2
286
     1
 66
     0
277
    -2
287
     1
 67
     0
278
    -2
288
     1
 68
     0
279
    -2
289
     1
 69
     0
  0
VISUALSTYLE
  5
567
102
{ACAD_XDICTIONARY
360
F7E
102
}
102
{ACAD_REACTORS
330
561
102
}
330
561
100
AcDbVisualStyle
  2

 70
     4
 71
     0
 72
     2
 73
     0
 90
        0
 40
-0.6
 41
-30.0
 62
     5
 63
     7
 74
     1
 91
        4
 64
     7
 65
   257
 75
     1
175
     1
 42
1.0
 92
        0
 66
   257
 43
1.0
 76
     1
 77
     6
 78
     2
 67
     7
 79
     5
170
     0
171
     0
290
     0
174
     0
 93
        1
 44
0.0
173
     0
291
     0
 45
0.0
1001
ACAD
1000
AcDbSavedByObjectVersion
1070
     0
  0
VISUALSTYLE
  5
569
102
{ACAD_XDICTIONARY
360
F82
102
}
102
{ACAD_REACTORS
330
561
102
}
330
561
100
AcDbVisualStyle
  2

 70
     6
 71
     1
 72
     2
 73
     2
 90
        0
 40
-0.6
 41
-30.0
 62
     5
 63
     7
 74
     2
 91
        2
 64
     7
 65
   257
 75
     2
175
     1
 42
179.0
 92
        0
 66
   257
 43
1.0
 76
     1
 77
     6
 78
     2
 67
     7
 79
     3
170
     0
171
     0
290
     0
174
     0
 93
        1
 44
0.0
173
     0
291
     0
 45
0.0
1001
ACAD
1000
AcDbSavedByObjectVersion
1070
     0
  0
VISUALSTYLE
  5
568
102
{ACAD_XDICTIONARY
360
F80
102
}
102
{ACAD_REACTORS
330
561
102
}
330
561
100
AcDbVisualStyle
  2

 70
     5
 71
     0
 72
     2
 73
     0
 90
        0
 40
-0.6
 41
-30.0
 62
     5
 63
     7
 74
     1
 91
        4
 64
     7
 65
   257
 75
     1
175
     1
 42
1.0
 92
        0
 66
   257
 43
1.0
 76
     1
 77
     6
 78
     2
 67
     7
 79
     5
170
     0
171
     0
290
     0
174
     0
 93
        1
 44
0.0
173
     0
291
     0
 45
0.0
1001
ACAD
1000
AcDbSavedByObjectVersion
1070
     0
  0
VISUALSTYLE
  5
566
102
{ACAD_XDICTIONARY
360
F7C
102
}
102
{ACAD_REACTORS
330
561
102
}
330
561
100
AcDbVisualStyle
  2

 70
     7
 71
     1
 72
     0
 73
     1
 90
        0
 40
-0.6
 41
-30.0
 62
     5
 63
     7
 74
     0
 91
        4
 64
     7
 65
   257
 75
     1
175
     1
 42
1.0
 92
        8
 66
     7
 43
1.0
 76
     1
 77
     6
 78
     2
 67
     7
 79
     5
170
     0
171
     0
290
     0
174
     0
 93
        1
 44
0.0
173
     0
291
     1
 45
0.0
1001
ACAD
1000
AcDbSavedByObjectVersion
1070
     0
  0
VISUALSTYLE
  5
56D
102
{ACAD_XDICTIONARY
360
F8A
102
}
102
{ACAD_REACTORS
330
561
102
}
330
561
100
AcDbVisualStyle
  2

 70
    12
 71
     2
 72
     2
 73
     0
 90
        0
 40
-0.6
 41
-30.0
 62
     5
 63
     7
 74
     1
 91
        4
 64
     7
 65
   257
 75
     1
175
     1
 42
1.0
 92
        8
 66
     7
 43
1.0
 76
     1
 77
     6
 78
     2
 67
     7
 79
     5
170
     0
171
     0
290
     0
174
     0
 93
        1
 44
50.0
173
     0
291
     1
 45
0.0
1001
ACAD
1000
AcDbSavedByObjectVersion
1070
     0
  0
VISUALSTYLE
  5
571
102
{ACAD_XDICTIONARY
360
F92
102
}
102
{ACAD_REACTORS
330
561
102
}
330
561
100
AcDbVisualStyle
  2

 70
    16
 71
     2
 72
     2
 73
     3
 90
        0
 40
-0.6
 41
-30.0
 62
     5
 63
     8
 74
     1
 91
        4
 64
     7
 65
   257
 75
     1
175
     1
 42
1.0
 92
        8
 66
     8
 43
1.0
 76
     1
 77
     6
 78
     2
 67
     7
 79
     5
170
     0
171
     0
290
     0
174
     0
 93
        1
 44
0.0
173
     0
291
     1
 45
0.0
1001
ACAD
1000
AcDbSavedByObjectVersion
1070
     0
  0
VISUALSTYLE
  5
56A
102
{ACAD_XDICTIONARY
360
F84
102
}
102
{ACAD_REACTORS
330
561
102
}
330
561
100
AcDbVisualStyle
  2

 70
     9
 71
     3
 72
     2
 73
     0
 90
        0
 40
-0.6
 41
-30.0
 62
     5
 63
     7
 74
     2
 91
        2
 64
     7
 65
   257
 75
     1
175
     1
 42
179.0
 92
        8
 66
     7
 43
1.0
 76
     1
 77
     6
 78
     2
 67
     7
 79
     3
170
     0
171
     0
290
     0
174
     0
 93
        1
 44
0.0
173
     0
291
     0
 45
0.0
1001
ACAD
1000
AcDbSavedByObjectVersion
1070
     0
  0
VISUALSTYLE
  5
56C
102
{ACAD_XDICTIONARY
360
F88
102
}
102
{ACAD_REACTORS
330
561
102
}
330
561
100
AcDbVisualStyle
  2

 70
    11
 71
     2
 72
     2
 73
     0
 90
        0
 40
-0.6
 41
-30.0
 62
     5
 63
     7
 74
     1
 91
        4
 64
     7
 65
   257
 75
     1
175
     1
 42
1.0
 92
        8
 66
     7
 43
1.0
 76
     1
 77
     6
 78
     2
 67
     7
 79
     5
170
     0
171
     0
290
     0
174
     0
 93
        1
 44
-50.0
173
     0
291
     1
 45
0.0
1001
ACAD
1000
AcDbSavedByObjectVersion
1070
     0
  0
VISUALSTYLE
  5
574
102
{ACAD_XDICTIONARY
360
F98
102
}
102
{ACAD_REACTORS
330
561
102
}
330
561
100
AcDbVisualStyle
  2

 70
    22
 71
     2
 72
     2
 73
     0
 90
        0
 40
-0.6
 41
-30.0
 62
     5
 63
     7
 74
     1
 91
        4
 64
     7
 65
   257
 75
     1
175
     1
 42
1.0
 92
        8
 66
     7
 43
1.0
 76
     1
 77
     6
 78
     2
 67
     7
 79
     5
170
     0
171
     0
290
     0
174
     0
 93
        1
 44
0.0
173
     0
291
     1
 45
0.0
1001
ACAD
1000
AcDbSavedByObjectVersion
1070
     0
  0
VISUALSTYLE
  5
570
102
{ACAD_XDICTIONARY
360
F90
102
}
102
{ACAD_REACTORS
330
561
102
}
330
561
100
AcDbVisualStyle
  2

 70
    15
 71
     2
 72
     2
 73
     0
 90
        0
 40
-0.6
 41
-30.0
 62
     5
 63
     7
 74
     1
 91
        4
 64
     7
 65
   257
 75
     1
175
     1
 42
1.0
 92
        8
 66
     7
 43
1.0
 76
     1
 77
     6
 78
     2
 67
     7
 79
     5
170
     0
171
     0
290
     0
174
     0
 93
        1
 44
0.0
173
     0
291
     1
 45
0.0
1001
ACAD
1000
AcDbSavedByObjectVersion
1070
     0
  0
VISUALSTYLE
  5
562
102
{ACAD_XDICTIONARY
360
F74
102
}
102
{ACAD_REACTORS
330
561
102
}
330
561
100
AcDbVisualStyle
  2

 70
     0
 71
     2
 72
     1
 73
     1
 90
        2
 40
-0.6
 41
30.0
 62
     5
 63
     7
 74
     0
 91
        4
 64
     7
 65
   257
 75
     1
175
     1
 42
1.0
 92
        8
 66
     7
 43
1.0
 76
     1
 77
     6
 78
     2
 67
     7
 79
     5
170
     0
171
     0
290
     0
174
     0
 93
       13
 44
0.0
173
     0
291
     1
 45
0.0
1001
ACAD
1000
AcDbSavedByObjectVersion
1070
     0
  0
VISUALSTYLE
  5
563
102
{ACAD_XDICTIONARY
360
F76
102
}
102
{ACAD_REACTORS
330
561
102
}
330
561
100
AcDbVisualStyle
  2

 70
     1
 71
     2
 72
     1
 73
     1
 90
        2
 40
-0.6
 41
30.0
 62
     5
 63
     7
 74
     1
 91
        4
 64
     7
 65
   257
 75
     1
175
     1
 42
1.0
 92
        0
 66
   257
 43
1.0
 76
     1
 77
     6
 78
     2
 67
     7
 79
     5
170
     0
171
     0
290
     0
174
     0
 93
       13
 44
0.0
173
     0
291
     1
 45
0.0
1001
ACAD
1000
AcDbSavedByObjectVersion
1070
     0
  0
VISUALSTYLE
  5
564
102
{ACAD_XDICTIONARY
360
F78
102
}
102
{ACAD_REACTORS
330
561
102
}
330
561
100
AcDbVisualStyle
  2

 70
     2
 71
     2
 72
     2
 73
     1
 90
        2
 40
-0.6
 41
30.0
 62
     5
 63
     7
 74
     0
 91
        4
 64
     7
 65
   257
 75
     1
175
     1
 42
1.0
 92
        0
 66
     7
 43
1.0
 76
     1
 77
     6
 78
     2
 67
     7
 79
     5
170
     0
171
     0
290
     0
174
     0
 93
       13
 44
0.0
173
     0
291
     1
 45
0.0
1001
ACAD
1000
AcDbSavedByObjectVersion
1070
     0
  0
VISUALSTYLE
  5
565
102
{ACAD_XDICTIONARY
360
F7A
102
}
102
{ACAD_REACTORS
330
561
102
}
330
561
100
AcDbVisualStyle
  2

 70
     3
 71
     2
 72
     2
 73
     1
 90
        2
 40
-0.6
 41
30.0
 62
     5
 63
     7
 74
     1
 91
        4
 64
     7
 65
   257
 75
     1
175
     1
 42
1.0
 92
        0
 66
   257
 43
1.0
 76
     1
 77
     6
 78
     2
 67
     7
 79
     5
170
     0
171
     0
290
     0
174
     0
 93
       13
 44
0.0
173
     0
291
     1
 45
0.0
1001
ACAD
1000
AcDbSavedByObjectVersion
1070
     0
  0
VISUALSTYLE
  5
572
102
{ACAD_XDICTIONARY
360
F94
102
}
102
{ACAD_REACTORS
330
561
102
}
330
561
100
AcDbVisualStyle
  2

 70
    20
 71
     2
 72
     2
 73
     0
 90
        0
 40
-0.6
 41
-30.0
 62
     5
 63
     7
 74
     1
 91
        4
 64
     7
 65
   257
 75
     1
175
     1
 42
1.0
 92
       10
 66
     7
 43
1.0
 76
     1
 77
     6
 78
     2
 67
     7
 79
     5
170
     0
171
     0
290
     0
174
     0
 93
        1
 44
0.0
173
     0
291
     1
 45
0.0
1001
ACAD
1000
AcDbSavedByObjectVersion
1070
     0
  0
VISUALSTYLE
  5
56F
102
{ACAD_XDICTIONARY
360
F8E
102
}
102
{ACAD_REACTORS
330
561
102
}
330
561
100
AcDbVisualStyle
  2

 70
    14
 71
     2
 72
     2
 73
     0
 90
        0
 40
-0.6
 41
-30.0
 62
     5
 63
     7
 74
     1
 91
        4
 64
     7
 65
   257
 75
     7
175
     7
 42
1.0
 92
        8
 66
     7
 43
1.0
 76
     1
 77
     6
 78
     2
 67
     7
 79
     5
170
     0
171
     0
290
     0
174
     0
 93
        1
 44
0.0
173
     0
291
     1
 45
0.0
1001
ACAD
1000
AcDbSavedByObjectVersion
1070
     0
  0
VISUALSTYLE
  5
573
102
{ACAD_XDICTIONARY
360
F96
102
}
102
{ACAD_REACTORS
330
561
102
}
330
561
100
AcDbVisualStyle
  2

 70
    21
 71
     2
 72
     2
 73
     0
 90
        0
 40
-0.6
 41
-30.0
 62
     5
 63
     7
 74
     1
 91
        4
 64
     7
 65
   257
 75
     1
175
     1
 42
1.0
 92
        9
 66
     7
 43
1.0
 76
     1
 77
     6
 78
     2
 67
     7
 79
     5
170
     0
171
     0
290
     0
174
     0
 93
        1
 44
0.0
173
     0
291
     1
 45
0.0
1001
ACAD
1000
AcDbSavedByObjectVersion
1070
     0
  0
VISUALSTYLE
  5
56B
102
{ACAD_XDICTIONARY
360
F86
102
}
102
{ACAD_REACTORS
330
561
102
}
330
561
100
AcDbVisualStyle
  2

 70
     8
 71
     2
 72
     2
 73
     0
 90
        0
 40
-0.6
 41
-30.0
 62
     5
 63
     7
 74
     1
 91
        0
 64
     7
 65
   257
 75
     1
175
     1
 42
1.0
 92
        8
 66
     8
 43
1.0
 76
     1
 77
     6
 78
     2
 67
     7
 79
     5
170
     0
171
     0
290
     0
174
     0
 93
       13
 44
0.0
173
     0
291
     0
 45
0.0
1001
ACAD
1000
AcDbSavedByObjectVersion
1070
     0
  0
VISUALSTYLE
  5
56E
102
{ACAD_XDICTIONARY
360
F8C
102
}
102
{ACAD_REACTORS
330
561
102
}
330
561
100
AcDbVisualStyle
  2

 70
    13
 71
     2
 72
     2
 73
     0
 90
        0
 40
-0.6
 41
-30.0
 62
     5
 63
     7
 74
     1
 91
        4
 64
     7
 65
   257
 75
     1
175
     1
 42
1.0
 92
       12
 66
     7
 43
1.0
 76
     1
 77
     6
 78
     2
 67
     7
 79
     5
170
     0
171
     0
290
     0
174
     0
 93
        1
 44
0.0
173
     0
291
     1
 45
0.0
1001
ACAD
1000
AcDbSavedByObjectVersion
1070
     0
  0
DICTIONARYVAR
  5
5DF
102
{ACAD_REACTORS
330
5DC
102
}
330
5DC
100
DictionaryVariables
280
     0
  1
1:1
  0
DICTIONARYVAR
  5
5DE
102
{ACAD_REACTORS
330
5DC
102
}
330
5DC
100
DictionaryVariables
280
     0
  1
STANDARD
  0
DICTIONARYVAR
  5
5DD
102
{ACAD_REACTORS
330
5DC
102
}
330
5DC
100
DictionaryVariables
280
     0
  1
STANDARD
  0
DICTIONARYVAR
  5
5E2
102
{ACAD_REACTORS
330
5DC
102
}
330
5DC
100
DictionaryVariables
280
     0
  1
1
  0
DICTIONARYVAR
  5
5E1
102
{ACAD_REACTORS
330
5DC
102
}
330
5DC
100
DictionaryVariables
280
     0
  1
0
  0
DICTIONARYVAR
  5
5E0
102
{ACAD_REACTORS
330
5DC
102
}
330
5DC
100
DictionaryVariables
280
     0
  1
127
  0
DICTIONARYVAR
  5
F10
102
{ACAD_REACTORS
330
5DC
102
}
330
5DC
100
DictionaryVariables
280
     0
  1
2
  0
DICTIONARY
  5
F70
330
2AB
100
AcDbDictionary
280
     1
281
     1
  3
ACAD_XREC_ROUNDTRIP
360
F71
  0
DICTIONARY
  5
F72
330
2AF
100
AcDbDictionary
280
     1
281
     1
  3
ACAD_XREC_ROUNDTRIP
360
F73
  0
DICTIONARY
  5
552
330
551
100
AcDbDictionary
280
     1
281
     1
  3
ACAD_XREC_ROUNDTRIP
360
5ED
  3
BUMPTILE
360
554
  3
DIFFUSETILE
360
553
  3
OPACITYTILE
360
557
  3
REFLECTIONTILE
360
556
  3
REFRACTIONTILE
360
558
  3
SPECULARTILE
360
555
  0
DICTIONARY
  5
54A
330
549
100
AcDbDictionary
280
     1
281
     1
  3
ACAD_XREC_ROUNDTRIP
360
5EC
  3
BUMPTILE
360
54C
  3
DIFFUSETILE
360
54B
  3
OPACITYTILE
360
54F
  3
REFLECTIONTILE
360
54E
  3
REFRACTIONTILE
360
550
  3
SPECULARTILE
360
54D
  0
DICTIONARY
  5
55A
330
559
100
AcDbDictionary
280
     1
281
     1
  3
ACAD_XREC_ROUNDTRIP
360
5EE
  3
BUMPTILE
360
55C
  3
DIFFUSETILE
360
55B
  3
OPACITYTILE
360
55F
  3
REFLECTIONTILE
360
55E
  3
REFRACTIONTILE
360
560
  3
SPECULARTILE
360
55D
  0
DICTIONARY
  5
5E4
330
577
100
AcDbDictionary
280
     1
281
     1
  3
ACAD_ROUNDTRIP_2008_TABLESTYLE_CELLSTYLEMAP
360
F6D
  3
ACAD_XREC_ROUNDTRIP
360
F9A
  0
DICTIONARY
  5
F7E
330
567
100
AcDbDictionary
280
     1
281
     1
  3
ACAD_XREC_ROUNDTRIP
360
F7F
  0
DICTIONARY
  5
F82
330
569
100
AcDbDictionary
280
     1
281
     1
  3
ACAD_XREC_ROUNDTRIP
360
F83
  0
DICTIONARY
  5
F80
330
568
100
AcDbDictionary
280
     1
281
     1
  3
ACAD_XREC_ROUNDTRIP
360
F81
  0
DICTIONARY
  5
F7C
330
566
100
AcDbDictionary
280
     1
281
     1
  3
ACAD_XREC_ROUNDTRIP
360
F7D
  0
DICTIONARY
  5
F8A
330
56D
100
AcDbDictionary
280
     1
281
     1
  3
ACAD_XREC_ROUNDTRIP
360
F8B
  0
DICTIONARY
  5
F92
330
571
100
AcDbDictionary
280
     1
281
     1
  3
ACAD_XREC_ROUNDTRIP
360
F93
  0
DICTIONARY
  5
F84
330
56A
100
AcDbDictionary
280
     1
281
     1
  3
ACAD_XREC_ROUNDTRIP
360
F85
  0
DICTIONARY
  5
F88
330
56C
100
AcDbDictionary
280
     1
281
     1
  3
ACAD_XREC_ROUNDTRIP
360
F89
  0
DICTIONARY
  5
F98
330
574
100
AcDbDictionary
280
     1
281
     1
  3
ACAD_XREC_ROUNDTRIP
360
F99
  0
DICTIONARY
  5
F90
330
570
100
AcDbDictionary
280
     1
281
     1
  3
ACAD_XREC_ROUNDTRIP
360
F91
  0
DICTIONARY
  5
F74
330
562
100
AcDbDictionary
280
     1
281
     1
  3
ACAD_XREC_ROUNDTRIP
360
F75
  0
DICTIONARY
  5
F76
330
563
100
AcDbDictionary
280
     1
281
     1
  3
ACAD_XREC_ROUNDTRIP
360
F77
  0
DICTIONARY
  5
F78
330
564
100
AcDbDictionary
280
     1
281
     1
  3
ACAD_XREC_ROUNDTRIP
360
F79
  0
DICTIONARY
  5
F7A
330
565
100
AcDbDictionary
280
     1
281
     1
  3
ACAD_XREC_ROUNDTRIP
360
F7B
  0
DICTIONARY
  5
F94
330
572
100
AcDbDictionary
280
     1
281
     1
  3
ACAD_XREC_ROUNDTRIP
360
F95
  0
DICTIONARY
  5
F8E
330
56F
100
AcDbDictionary
280
     1
281
     1
  3
ACAD_XREC_ROUNDTRIP
360
F8F
  0
DICTIONARY
  5
F96
330
573
100
AcDbDictionary
280
     1
281
     1
  3
ACAD_XREC_ROUNDTRIP
360
F97
  0
DICTIONARY
  5
F86
330
56B
100
AcDbDictionary
280
     1
281
     1
  3
ACAD_XREC_ROUNDTRIP
360
F87
  0
DICTIONARY
  5
F8C
330
56E
100
AcDbDictionary
280
     1
281
     1
  3
ACAD_XREC_ROUNDTRIP
360
F8D
  0
XRECORD
  5
F71
102
{ACAD_REACTORS
330
F70
102
}
330
F70
100
AcDbXrecord
280
     1
102
SHADEPLOT
 70
     0
102
SHADEPLOTRESLEVEL
 70
     2
102
SHADEPLOTCUSTOMDPI
 70
   300
  0
XRECORD
  5
F73
102
{ACAD_REACTORS
330
F72
102
}
330
F72
100
AcDbXrecord
280
     1
102
SHADEPLOT
 70
     0
102
SHADEPLOTRESLEVEL
 70
     2
102
SHADEPLOTCUSTOMDPI
 70
   300
  0
XRECORD
  5
5ED
102
{ACAD_REACTORS
330
552
102
}
330
552
100
AcDbXrecord
280
     1
102
MATERIAL
148
0.0
149
0.0
149
0.0
 93
        0
 94
      127
282
     0
 72
     0
 77
     0
171
     0
175
     0
179
     0
273
     0
  0
XRECORD
  5
554
102
{ACAD_REACTORS
330
552
102
}
330
552
100
AcDbXrecord
280
     1
270
     1
271
     1
  0
XRECORD
  5
553
102
{ACAD_REACTORS
330
552
102
}
330
552
100
AcDbXrecord
280
     1
270
     1
271
     1
  0
XRECORD
  5
557
102
{ACAD_REACTORS
330
552
102
}
330
552
100
AcDbXrecord
280
     1
270
     1
271
     1
  0
XRECORD
  5
556
102
{ACAD_REACTORS
330
552
102
}
330
552
100
AcDbXrecord
280
     1
270
     1
271
     1
  0
XRECORD
  5
558
102
{ACAD_REACTORS
330
552
102
}
330
552
100
AcDbXrecord
280
     1
270
     1
271
     1
  0
XRECORD
  5
555
102
{ACAD_REACTORS
330
552
102
}
330
552
100
AcDbXrecord
280
     1
270
     1
271
     1
  0
XRECORD
  5
5EC
102
{ACAD_REACTORS
330
54A
102
}
330
54A
100
AcDbXrecord
280
     1
102
MATERIAL
148
0.0
149
0.0
149
0.0
 93
        0
 94
      127
282
     0
 72
     0
 77
     0
171
     0
175
     0
179
     0
273
     0
  0
XRECORD
  5
54C
102
{ACAD_REACTORS
330
54A
102
}
330
54A
100
AcDbXrecord
280
     1
270
     1
271
     1
  0
XRECORD
  5
54B
102
{ACAD_REACTORS
330
54A
102
}
330
54A
100
AcDbXrecord
280
     1
270
     1
271
     1
  0
XRECORD
  5
54F
102
{ACAD_REACTORS
330
54A
102
}
330
54A
100
AcDbXrecord
280
     1
270
     1
271
     1
  0
XRECORD
  5
54E
102
{ACAD_REACTORS
330
54A
102
}
330
54A
100
AcDbXrecord
280
     1
270
     1
271
     1
  0
XRECORD
  5
550
102
{ACAD_REACTORS
330
54A
102
}
330
54A
100
AcDbXrecord
280
     1
270
     1
271
     1
  0
XRECORD
  5
54D
102
{ACAD_REACTORS
330
54A
102
}
330
54A
100
AcDbXrecord
280
     1
270
     1
271
     1
  0
XRECORD
  5
5EE
102
{ACAD_REACTORS
330
55A
102
}
330
55A
100
AcDbXrecord
280
     1
102
MATERIAL
148
0.0
149
0.0
149
0.0
 93
        0
 94
      127
282
     0
 72
     0
 77
     0
171
     0
175
     0
179
     0
273
     0
  0
XRECORD
  5
55C
102
{ACAD_REACTORS
330
55A
102
}
330
55A
100
AcDbXrecord
280
     1
270
     1
271
     1
  0
XRECORD
  5
55B
102
{ACAD_REACTORS
330
55A
102
}
330
55A
100
AcDbXrecord
280
     1
270
     1
271
     1
  0
XRECORD
  5
55F
102
{ACAD_REACTORS
330
55A
102
}
330
55A
100
AcDbXrecord
280
     1
270
     1
271
     1
  0
XRECORD
  5
55E
102
{ACAD_REACTORS
330
55A
102
}
330
55A
100
AcDbXrecord
280
     1
270
     1
271
     1
  0
XRECORD
  5
560
102
{ACAD_REACTORS
330
55A
102
}
330
55A
100
AcDbXrecord
280
     1
270
     1
271
     1
  0
XRECORD
  5
55D
102
{ACAD_REACTORS
330
55A
102
}
330
55A
100
AcDbXrecord
280
     1
270
     1
271
     1
  0
CELLSTYLEMAP
  5
F6D
102
{ACAD_REACTORS
330
5E4
102
}
330
5E4
100
AcDbCellStyleMap
 90
        3
300
CELLSTYLE
  1
TABLEFORMAT_BEGIN
 90
        5
170
     1
 91
        0
 92
    32768
 62
   257
 93
        1
300
CONTENTFORMAT
  1
CONTENTFORMAT_BEGIN
 90
        0
 91
        0
 92
      512
 93
        0
300

 40
0.0
140
1.0
 94
        5
 62
     0
340
29F
144
0.25
309
CONTENTFORMAT_END
171
     1
301
MARGIN
  1
CELLMARGIN_BEGIN
 40
0.06
 40
0.06
 40
0.06
 40
0.06
 40
0.18
 40
0.18
309
CELLMARGIN_END
 94
        6
 95
        1
302
GRIDFORMAT
  1
GRIDFORMAT_BEGIN
 90
        0
 91
        1
 62
     0
 92
       -2
340
0
 93
        0
 40
0.045
309
GRIDFORMAT_END
 95
        2
302
GRIDFORMAT
  1
GRIDFORMAT_BEGIN
 90
        0
 91
        1
 62
     0
 92
       -2
340
0
 93
        0
 40
0.045
309
GRIDFORMAT_END
 95
        4
302
GRIDFORMAT
  1
GRIDFORMAT_BEGIN
 90
        0
 91
        1
 62
     0
 92
       -2
340
0
 93
        0
 40
0.045
309
GRIDFORMAT_END
 95
        8
302
GRIDFORMAT
  1
GRIDFORMAT_BEGIN
 90
        0
 91
        1
 62
     0
 92
       -2
340
0
 93
        0
 40
0.045
309
GRIDFORMAT_END
 95
       16
302
GRIDFORMAT
  1
GRIDFORMAT_BEGIN
 90
        0
 91
        1
 62
     0
 92
       -2
340
0
 93
        0
 40
0.045
309
GRIDFORMAT_END
 95
       32
302
GRIDFORMAT
  1
GRIDFORMAT_BEGIN
 90
        0
 91
        1
 62
     0
 92
       -2
340
0
 93
        0
 40
0.045
309
GRIDFORMAT_END
309
TABLEFORMAT_END
  1
CELLSTYLE_BEGIN
 90
        1
 91
        1
300
_TITLE
309
CELLSTYLE_END
300
CELLSTYLE
  1
TABLEFORMAT_BEGIN
 90
        5
170
     1
 91
        0
 92
        0
 62
   257
 93
        1
300
CONTENTFORMAT
  1
CONTENTFORMAT_BEGIN
 90
        0
 91
        0
 92
      512
 93
        0
300

 40
0.0
140
1.0
 94
        5
 62
     0
340
29F
144
0.18
309
CONTENTFORMAT_END
171
     1
301
MARGIN
  1
CELLMARGIN_BEGIN
 40
0.06
 40
0.06
 40
0.06
 40
0.06
 40
0.18
 40
0.18
309
CELLMARGIN_END
 94
        6
 95
        1
302
GRIDFORMAT
  1
GRIDFORMAT_BEGIN
 90
        0
 91
        1
 62
     0
 92
       -2
340
0
 93
        0
 40
0.045
309
GRIDFORMAT_END
 95
        2
302
GRIDFORMAT
  1
GRIDFORMAT_BEGIN
 90
        0
 91
        1
 62
     0
 92
       -2
340
0
 93
        0
 40
0.045
309
GRIDFORMAT_END
 95
        4
302
GRIDFORMAT
  1
GRIDFORMAT_BEGIN
 90
        0
 91
        1
 62
     0
 92
       -2
340
0
 93
        0
 40
0.045
309
GRIDFORMAT_END
 95
        8
302
GRIDFORMAT
  1
GRIDFORMAT_BEGIN
 90
        0
 91
        1
 62
     0
 92
       -2
340
0
 93
        0
 40
0.045
309
GRIDFORMAT_END
 95
       16
302
GRIDFORMAT
  1
GRIDFORMAT_BEGIN
 90
        0
 91
        1
 62
     0
 92
       -2
340
0
 93
        0
 40
0.045
309
GRIDFORMAT_END
 95
       32
302
GRIDFORMAT
  1
GRIDFORMAT_BEGIN
 90
        0
 91
        1
 62
     0
 92
       -2
340
0
 93
        0
 40
0.045
309
GRIDFORMAT_END
309
TABLEFORMAT_END
  1
CELLSTYLE_BEGIN
 90
        2
 91
        1
300
_HEADER
309
CELLSTYLE_END
300
CELLSTYLE
  1
TABLEFORMAT_BEGIN
 90
        5
170
     1
 91
        0
 92
        0
 62
   257
 93
        1
300
CONTENTFORMAT
  1
CONTENTFORMAT_BEGIN
 90
        0
 91
        0
 92
      512
 93
        0
300

 40
0.0
140
1.0
 94
        2
 62
     0
340
29F
144
0.18
309
CONTENTFORMAT_END
171
     1
301
MARGIN
  1
CELLMARGIN_BEGIN
 40
0.06
 40
0.06
 40
0.06
 40
0.06
 40
0.18
 40
0.18
309
CELLMARGIN_END
 94
        6
 95
        1
302
GRIDFORMAT
  1
GRIDFORMAT_BEGIN
 90
        0
 91
        1
 62
     0
 92
       -2
340
0
 93
        0
 40
0.045
309
GRIDFORMAT_END
 95
        2
302
GRIDFORMAT
  1
GRIDFORMAT_BEGIN
 90
        0
 91
        1
 62
     0
 92
       -2
340
0
 93
        0
 40
0.045
309
GRIDFORMAT_END
 95
        4
302
GRIDFORMAT
  1
GRIDFORMAT_BEGIN
 90
        0
 91
        1
 62
     0
 92
       -2
340
0
 93
        0
 40
0.045
309
GRIDFORMAT_END
 95
        8
302
GRIDFORMAT
  1
GRIDFORMAT_BEGIN
 90
        0
 91
        1
 62
     0
 92
       -2
340
0
 93
        0
 40
0.045
309
GRIDFORMAT_END
 95
       16
302
GRIDFORMAT
  1
GRIDFORMAT_BEGIN
 90
        0
 91
        1
 62
     0
 92
       -2
340
0
 93
        0
 40
0.045
309
GRIDFORMAT_END
 95
       32
302
GRIDFORMAT
  1
GRIDFORMAT_BEGIN
 90
        0
 91
        1
 62
     0
 92
       -2
340
0
 93
        0
 40
0.045
309
GRIDFORMAT_END
309
TABLEFORMAT_END
  1
CELLSTYLE_BEGIN
 90
        3
 91
        2
300
_DATA
309
CELLSTYLE_END
  0
XRECORD
  5
F9A
102
{ACAD_REACTORS
330
5E4
102
}
330
5E4
100
AcDbXrecord
280
     1
102
ACAD_ROUNDTRIP_PRE2007_TABLESTYLE
 90
      512
 91
        0
  1

 92
      512
 93
        0
  2

 94
      512
 95
        0
  3

  0
XRECORD
  5
F7F
102
{ACAD_REACTORS
330
F7E
102
}
330
F7E
100
AcDbXrecord
280
     1
102
RTVSPropertyOp0
 70
     1
102
RTVSPropertyOp1
 70
     1
102
RTVSPropertyOp2
 70
     1
102
RTVSPropertyOp3
 70
     1
102
RTVSPropertyOp4
 70
     1
102
RTVSPropertyOp5
 70
     1
102
RTVSPropertyOp6
 70
     1
102
RTVSPropertyOp7
 70
     1
102
RTVSPropertyOp8
 70
     1
102
RTVSPropertyOp9
 70
     1
102
RTVSPropertyOp10
 70
     1
102
RTVSPropertyOp11
 70
     1
102
RTVSPropertyOp12
 70
     1
102
RTVSPropertyOp13
 70
     1
102
RTVSPropertyOp14
 70
     1
102
RTVSPropertyOp15
 70
     1
102
RTVSPropertyOp16
 70
     1
102
RTVSPropertyOp17
 70
     1
102
RTVSPropertyOp18
 70
     1
102
RTVSPropertyOp19
 70
     1
102
RTVSPropertyOp20
 70
     1
102
RTVSPropertyOp21
 70
     1
102
RTVSPropertyOp22
 70
     1
102
RTVSPropertyOp23
 70
     1
102
RTVSPropertyOp24
 70
     1
102
RTVSPropertyOp25
 70
     1
102
RTVSPropertyOp26
 70
     1
102
RTVSPropertyOp27
 70
     1
  0
XRECORD
  5
F83
102
{ACAD_REACTORS
330
F82
102
}
330
F82
100
AcDbXrecord
280
     1
102
RTVSPropertyOp0
 70
     1
102
RTVSPropertyOp1
 70
     1
102
RTVSPropertyOp2
 70
     1
102
RTVSPropertyOp3
 70
     1
102
RTVSPropertyOp4
 70
     1
102
RTVSPropertyOp5
 70
     1
102
RTVSPropertyOp6
 70
     1
102
RTVSPropertyOp7
 70
     1
102
RTVSPropertyOp8
 70
     1
102
RTVSPropertyOp9
 70
     1
102
RTVSPropertyOp10
 70
     1
102
RTVSPropertyOp11
 70
     1
102
RTVSPropertyOp12
 70
     1
102
RTVSPropertyOp13
 70
     1
102
RTVSPropertyOp14
 70
     1
102
RTVSPropertyOp15
 70
     1
102
RTVSPropertyOp16
 70
     1
102
RTVSPropertyOp17
 70
     1
102
RTVSPropertyOp18
 70
     1
102
RTVSPropertyOp19
 70
     1
102
RTVSPropertyOp20
 70
     1
102
RTVSPropertyOp21
 70
     1
102
RTVSPropertyOp22
 70
     1
102
RTVSPropertyOp23
 70
     1
102
RTVSPropertyOp24
 70
     1
102
RTVSPropertyOp25
 70
     1
102
RTVSPropertyOp26
 70
     1
102
RTVSPropertyOp27
 70
     1
  0
XRECORD
  5
F81
102
{ACAD_REACTORS
330
F80
102
}
330
F80
100
AcDbXrecord
280
     1
102
RTVSPropertyOp0
 70
     1
102
RTVSPropertyOp1
 70
     1
102
RTVSPropertyOp2
 70
     1
102
RTVSPropertyOp3
 70
     1
102
RTVSPropertyOp4
 70
     1
102
RTVSPropertyOp5
 70
     1
102
RTVSPropertyOp6
 70
     1
102
RTVSPropertyOp7
 70
     1
102
RTVSPropertyOp8
 70
     1
102
RTVSPropertyOp9
 70
     1
102
RTVSPropertyOp10
 70
     1
102
RTVSPropertyOp11
 70
     1
102
RTVSPropertyOp12
 70
     1
102
RTVSPropertyOp13
 70
     1
102
RTVSPropertyOp14
 70
     1
102
RTVSPropertyOp15
 70
     1
102
RTVSPropertyOp16
 70
     1
102
RTVSPropertyOp17
 70
     1
102
RTVSPropertyOp18
 70
     1
102
RTVSPropertyOp19
 70
     1
102
RTVSPropertyOp20
 70
     1
102
RTVSPropertyOp21
 70
     1
102
RTVSPropertyOp22
 70
     1
102
RTVSPropertyOp23
 70
     1
102
RTVSPropertyOp24
 70
     1
102
RTVSPropertyOp25
 70
     1
102
RTVSPropertyOp26
 70
     1
102
RTVSPropertyOp27
 70
     1
  0
XRECORD
  5
F7D
102
{ACAD_REACTORS
330
F7C
102
}
330
F7C
100
AcDbXrecord
280
     1
102
RTVSPropertyOp0
 70
     1
102
RTVSPropertyOp1
 70
     1
102
RTVSPropertyOp2
 70
     1
102
RTVSPropertyOp3
 70
     1
102
RTVSPropertyOp4
 70
     1
102
RTVSPropertyOp5
 70
     1
102
RTVSPropertyOp6
 70
     1
102
RTVSPropertyOp7
 70
     1
102
RTVSPropertyOp8
 70
     1
102
RTVSPropertyOp9
 70
     1
102
RTVSPropertyOp10
 70
     1
102
RTVSPropertyOp11
 70
     1
102
RTVSPropertyOp12
 70
     1
102
RTVSPropertyOp13
 70
     1
102
RTVSPropertyOp14
 70
     1
102
RTVSPropertyOp15
 70
     1
102
RTVSPropertyOp16
 70
     1
102
RTVSPropertyOp17
 70
     1
102
RTVSPropertyOp18
 70
     1
102
RTVSPropertyOp19
 70
     1
102
RTVSPropertyOp20
 70
     1
102
RTVSPropertyOp21
 70
     1
102
RTVSPropertyOp22
 70
     1
102
RTVSPropertyOp23
 70
     1
102
RTVSPropertyOp24
 70
     1
102
RTVSPropertyOp25
 70
     1
102
RTVSPropertyOp26
 70
     1
102
RTVSPropertyOp27
 70
     1
  0
XRECORD
  5
F8B
102
{ACAD_REACTORS
330
F8A
102
}
330
F8A
100
AcDbXrecord
280
     1
102
RTVSPropertyOp0
 70
     1
102
RTVSPropertyOp1
 70
     1
102
RTVSPropertyOp2
 70
     1
102
RTVSPropertyOp3
 70
     1
102
RTVSPropertyOp4
 70
     1
102
RTVSPropertyOp5
 70
     1
102
RTVSPropertyOp6
 70
     1
102
RTVSPropertyOp7
 70
     1
102
RTVSPropertyOp8
 70
     1
102
RTVSPropertyOp9
 70
     1
102
RTVSPropertyOp10
 70
     1
102
RTVSPropertyOp11
 70
     1
102
RTVSPropertyOp12
 70
     1
102
RTVSPropertyOp13
 70
     1
102
RTVSPropertyOp14
 70
     1
102
RTVSPropertyOp15
 70
     1
102
RTVSPropertyOp16
 70
     1
102
RTVSPropertyOp17
 70
     1
102
RTVSPropertyOp18
 70
     1
102
RTVSPropertyOp19
 70
     1
102
RTVSPropertyOp20
 70
     1
102
RTVSPropertyOp21
 70
     1
102
RTVSPropertyOp22
 70
     1
102
RTVSPropertyOp23
 70
     1
102
RTVSPropertyOp24
 70
     1
102
RTVSPropertyOp25
 70
     1
102
RTVSPropertyOp26
 70
     1
102
RTVSPropertyOp27
 70
     1
  0
XRECORD
  5
F93
102
{ACAD_REACTORS
330
F92
102
}
330
F92
100
AcDbXrecord
280
     1
102
RTVSPropertyOp0
 70
     1
102
RTVSPropertyOp1
 70
     1
102
RTVSPropertyOp2
 70
     1
102
RTVSPropertyOp3
 70
     1
102
RTVSPropertyOp4
 70
     1
102
RTVSPropertyOp5
 70
     1
102
RTVSPropertyOp6
 70
     1
102
RTVSPropertyOp7
 70
     1
102
RTVSPropertyOp8
 70
     1
102
RTVSPropertyOp9
 70
     1
102
RTVSPropertyOp10
 70
     1
102
RTVSPropertyOp11
 70
     1
102
RTVSPropertyOp12
 70
     1
102
RTVSPropertyOp13
 70
     1
102
RTVSPropertyOp14
 70
     1
102
RTVSPropertyOp15
 70
     1
102
RTVSPropertyOp16
 70
     1
102
RTVSPropertyOp17
 70
     1
102
RTVSPropertyOp18
 70
     1
102
RTVSPropertyOp19
 70
     1
102
RTVSPropertyOp20
 70
     1
102
RTVSPropertyOp21
 70
     1
102
RTVSPropertyOp22
 70
     1
102
RTVSPropertyOp23
 70
     1
102
RTVSPropertyOp24
 70
     1
102
RTVSPropertyOp25
 70
     1
102
RTVSPropertyOp26
 70
     1
102
RTVSPropertyOp27
 70
     1
  0
XRECORD
  5
F85
102
{ACAD_REACTORS
330
F84
102
}
330
F84
100
AcDbXrecord
280
     1
102
RTVSPropertyOp0
 70
     1
102
RTVSPropertyOp1
 70
     1
102
RTVSPropertyOp2
 70
     1
102
RTVSPropertyOp3
 70
     1
102
RTVSPropertyOp4
 70
     1
102
RTVSPropertyOp5
 70
     1
102
RTVSPropertyOp6
 70
     1
102
RTVSPropertyOp7
 70
     1
102
RTVSPropertyOp8
 70
     1
102
RTVSPropertyOp9
 70
     1
102
RTVSPropertyOp10
 70
     1
102
RTVSPropertyOp11
 70
     1
102
RTVSPropertyOp12
 70
     1
102
RTVSPropertyOp13
 70
     1
102
RTVSPropertyOp14
 70
     1
102
RTVSPropertyOp15
 70
     1
102
RTVSPropertyOp16
 70
     1
102
RTVSPropertyOp17
 70
     1
102
RTVSPropertyOp18
 70
     1
102
RTVSPropertyOp19
 70
     1
102
RTVSPropertyOp20
 70
     1
102
RTVSPropertyOp21
 70
     1
102
RTVSPropertyOp22
 70
     1
102
RTVSPropertyOp23
 70
     1
102
RTVSPropertyOp24
 70
     1
102
RTVSPropertyOp25
 70
     1
102
RTVSPropertyOp26
 70
     1
102
RTVSPropertyOp27
 70
     1
  0
XRECORD
  5
F89
102
{ACAD_REACTORS
330
F88
102
}
330
F88
100
AcDbXrecord
280
     1
102
RTVSPropertyOp0
 70
     1
102
RTVSPropertyOp1
 70
     1
102
RTVSPropertyOp2
 70
     1
102
RTVSPropertyOp3
 70
     1
102
RTVSPropertyOp4
 70
     1
102
RTVSPropertyOp5
 70
     1
102
RTVSPropertyOp6
 70
     1
102
RTVSPropertyOp7
 70
     1
102
RTVSPropertyOp8
 70
     1
102
RTVSPropertyOp9
 70
     1
102
RTVSPropertyOp10
 70
     1
102
RTVSPropertyOp11
 70
     1
102
RTVSPropertyOp12
 70
     1
102
RTVSPropertyOp13
 70
     1
102
RTVSPropertyOp14
 70
     1
102
RTVSPropertyOp15
 70
     1
102
RTVSPropertyOp16
 70
     1
102
RTVSPropertyOp17
 70
     1
102
RTVSPropertyOp18
 70
     1
102
RTVSPropertyOp19
 70
     1
102
RTVSPropertyOp20
 70
     1
102
RTVSPropertyOp21
 70
     1
102
RTVSPropertyOp22
 70
     1
102
RTVSPropertyOp23
 70
     1
102
RTVSPropertyOp24
 70
     1
102
RTVSPropertyOp25
 70
     1
102
RTVSPropertyOp26
 70
     1
102
RTVSPropertyOp27
 70
     1
  0
XRECORD
  5
F99
102
{ACAD_REACTORS
330
F98
102
}
330
F98
100
AcDbXrecord
280
     1
102
RTVSPropertyOp0
 70
     0
102
RTVSPropertyOp1
 70
     0
102
RTVSPropertyOp2
 70
     0
102
RTVSPropertyOp3
 70
     0
102
RTVSPropertyOp4
 70
     0
102
RTVSPropertyOp5
 70
     0
102
RTVSPropertyOp6
 70
     0
102
RTVSPropertyOp7
 70
     0
102
RTVSPropertyOp8
 70
     0
102
RTVSPropertyOp9
 70
     0
102
RTVSPropertyOp10
 70
     0
102
RTVSPropertyOp11
 70
     0
102
RTVSPropertyOp12
 70
     0
102
RTVSPropertyOp13
 70
     0
102
RTVSPropertyOp14
 70
     2
102
RTVSPropertyOp15
 70
     0
102
RTVSPropertyOp16
 70
     0
102
RTVSPropertyOp17
 70
     0
102
RTVSPropertyOp18
 70
     0
102
RTVSPropertyOp19
 70
     0
102
RTVSPropertyOp20
 70
     0
102
RTVSPropertyOp21
 70
     0
102
RTVSPropertyOp22
 70
     0
102
RTVSPropertyOp23
 70
     0
102
RTVSPropertyOp24
 70
     0
102
RTVSPropertyOp25
 70
     0
102
RTVSPropertyOp26
 70
     0
102
RTVSPropertyOp27
 70
     0
  0
XRECORD
  5
F91
102
{ACAD_REACTORS
330
F90
102
}
330
F90
100
AcDbXrecord
280
     1
102
RTVSPropertyOp0
 70
     1
102
RTVSPropertyOp1
 70
     1
102
RTVSPropertyOp2
 70
     1
102
RTVSPropertyOp3
 70
     1
102
RTVSPropertyOp4
 70
     1
102
RTVSPropertyOp5
 70
     1
102
RTVSPropertyOp6
 70
     1
102
RTVSPropertyOp7
 70
     1
102
RTVSPropertyOp8
 70
     1
102
RTVSPropertyOp9
 70
     1
102
RTVSPropertyOp10
 70
     1
102
RTVSPropertyOp11
 70
     1
102
RTVSPropertyOp12
 70
     1
102
RTVSPropertyOp13
 70
     1
102
RTVSPropertyOp14
 70
     1
102
RTVSPropertyOp15
 70
     1
102
RTVSPropertyOp16
 70
     1
102
RTVSPropertyOp17
 70
     1
102
RTVSPropertyOp18
 70
     1
102
RTVSPropertyOp19
 70
     1
102
RTVSPropertyOp20
 70
     1
102
RTVSPropertyOp21
 70
     1
102
RTVSPropertyOp22
 70
     1
102
RTVSPropertyOp23
 70
     1
102
RTVSPropertyOp24
 70
     1
102
RTVSPropertyOp25
 70
     1
102
RTVSPropertyOp26
 70
     1
102
RTVSPropertyOp27
 70
     1
  0
XRECORD
  5
F75
102
{ACAD_REACTORS
330
F74
102
}
330
F74
100
AcDbXrecord
280
     1
102
RTVSPropertyOp0
 70
     1
102
RTVSPropertyOp1
 70
     1
102
RTVSPropertyOp2
 70
     1
102
RTVSPropertyOp3
 70
     1
102
RTVSPropertyOp4
 70
     1
102
RTVSPropertyOp5
 70
     1
102
RTVSPropertyOp6
 70
     1
102
RTVSPropertyOp7
 70
     1
102
RTVSPropertyOp8
 70
     1
102
RTVSPropertyOp9
 70
     1
102
RTVSPropertyOp10
 70
     1
102
RTVSPropertyOp11
 70
     1
102
RTVSPropertyOp12
 70
     1
102
RTVSPropertyOp13
 70
     1
102
RTVSPropertyOp14
 70
     1
102
RTVSPropertyOp15
 70
     1
102
RTVSPropertyOp16
 70
     1
102
RTVSPropertyOp17
 70
     1
102
RTVSPropertyOp18
 70
     1
102
RTVSPropertyOp19
 70
     1
102
RTVSPropertyOp20
 70
     1
102
RTVSPropertyOp21
 70
     1
102
RTVSPropertyOp22
 70
     1
102
RTVSPropertyOp23
 70
     1
102
RTVSPropertyOp24
 70
     1
102
RTVSPropertyOp25
 70
     1
102
RTVSPropertyOp26
 70
     1
102
RTVSPropertyOp27
 70
     1
  0
XRECORD
  5
F77
102
{ACAD_REACTORS
330
F76
102
}
330
F76
100
AcDbXrecord
280
     1
102
RTVSPropertyOp0
 70
     1
102
RTVSPropertyOp1
 70
     1
102
RTVSPropertyOp2
 70
     1
102
RTVSPropertyOp3
 70
     1
102
RTVSPropertyOp4
 70
     1
102
RTVSPropertyOp5
 70
     1
102
RTVSPropertyOp6
 70
     1
102
RTVSPropertyOp7
 70
     1
102
RTVSPropertyOp8
 70
     1
102
RTVSPropertyOp9
 70
     1
102
RTVSPropertyOp10
 70
     1
102
RTVSPropertyOp11
 70
     1
102
RTVSPropertyOp12
 70
     1
102
RTVSPropertyOp13
 70
     1
102
RTVSPropertyOp14
 70
     1
102
RTVSPropertyOp15
 70
     1
102
RTVSPropertyOp16
 70
     1
102
RTVSPropertyOp17
 70
     1
102
RTVSPropertyOp18
 70
     1
102
RTVSPropertyOp19
 70
     1
102
RTVSPropertyOp20
 70
     1
102
RTVSPropertyOp21
 70
     1
102
RTVSPropertyOp22
 70
     1
102
RTVSPropertyOp23
 70
     1
102
RTVSPropertyOp24
 70
     1
102
RTVSPropertyOp25
 70
     1
102
RTVSPropertyOp26
 70
     1
102
RTVSPropertyOp27
 70
     1
  0
XRECORD
  5
F79
102
{ACAD_REACTORS
330
F78
102
}
330
F78
100
AcDbXrecord
280
     1
102
RTVSPropertyOp0
 70
     1
102
RTVSPropertyOp1
 70
     1
102
RTVSPropertyOp2
 70
     1
102
RTVSPropertyOp3
 70
     1
102
RTVSPropertyOp4
 70
     1
102
RTVSPropertyOp5
 70
     1
102
RTVSPropertyOp6
 70
     1
102
RTVSPropertyOp7
 70
     1
102
RTVSPropertyOp8
 70
     1
102
RTVSPropertyOp9
 70
     1
102
RTVSPropertyOp10
 70
     1
102
RTVSPropertyOp11
 70
     1
102
RTVSPropertyOp12
 70
     1
102
RTVSPropertyOp13
 70
     1
102
RTVSPropertyOp14
 70
     1
102
RTVSPropertyOp15
 70
     1
102
RTVSPropertyOp16
 70
     1
102
RTVSPropertyOp17
 70
     1
102
RTVSPropertyOp18
 70
     1
102
RTVSPropertyOp19
 70
     1
102
RTVSPropertyOp20
 70
     1
102
RTVSPropertyOp21
 70
     1
102
RTVSPropertyOp22
 70
     1
102
RTVSPropertyOp23
 70
     1
102
RTVSPropertyOp24
 70
     1
102
RTVSPropertyOp25
 70
     1
102
RTVSPropertyOp26
 70
     1
102
RTVSPropertyOp27
 70
     1
  0
XRECORD
  5
F7B
102
{ACAD_REACTORS
330
F7A
102
}
330
F7A
100
AcDbXrecord
280
     1
102
RTVSPropertyOp0
 70
     1
102
RTVSPropertyOp1
 70
     1
102
RTVSPropertyOp2
 70
     1
102
RTVSPropertyOp3
 70
     1
102
RTVSPropertyOp4
 70
     1
102
RTVSPropertyOp5
 70
     1
102
RTVSPropertyOp6
 70
     1
102
RTVSPropertyOp7
 70
     1
102
RTVSPropertyOp8
 70
     1
102
RTVSPropertyOp9
 70
     1
102
RTVSPropertyOp10
 70
     1
102
RTVSPropertyOp11
 70
     1
102
RTVSPropertyOp12
 70
     1
102
RTVSPropertyOp13
 70
     1
102
RTVSPropertyOp14
 70
     1
102
RTVSPropertyOp15
 70
     1
102
RTVSPropertyOp16
 70
     1
102
RTVSPropertyOp17
 70
     1
102
RTVSPropertyOp18
 70
     1
102
RTVSPropertyOp19
 70
     1
102
RTVSPropertyOp20
 70
     1
102
RTVSPropertyOp21
 70
     1
102
RTVSPropertyOp22
 70
     1
102
RTVSPropertyOp23
 70
     1
102
RTVSPropertyOp24
 70
     1
102
RTVSPropertyOp25
 70
     1
102
RTVSPropertyOp26
 70
     1
102
RTVSPropertyOp27
 70
     1
  0
XRECORD
  5
F95
102
{ACAD_REACTORS
330
F94
102
}
330
F94
100
AcDbXrecord
280
     1
102
RTVSPropertyOp0
 70
     0
102
RTVSPropertyOp1
 70
     0
102
RTVSPropertyOp2
 70
     0
102
RTVSPropertyOp3
 70
     0
102
RTVSPropertyOp4
 70
     0
102
RTVSPropertyOp5
 70
     0
102
RTVSPropertyOp6
 70
     0
102
RTVSPropertyOp7
 70
     0
102
RTVSPropertyOp8
 70
     0
102
RTVSPropertyOp9
 70
     0
102
RTVSPropertyOp10
 70
     0
102
RTVSPropertyOp11
 70
     0
102
RTVSPropertyOp12
 70
     0
102
RTVSPropertyOp13
 70
     0
102
RTVSPropertyOp14
 70
     2
102
RTVSPropertyOp15
 70
     0
102
RTVSPropertyOp16
 70
     0
102
RTVSPropertyOp17
 70
     0
102
RTVSPropertyOp18
 70
     0
102
RTVSPropertyOp19
 70
     0
102
RTVSPropertyOp20
 70
     0
102
RTVSPropertyOp21
 70
     0
102
RTVSPropertyOp22
 70
     0
102
RTVSPropertyOp23
 70
     0
102
RTVSPropertyOp24
 70
     0
102
RTVSPropertyOp25
 70
     0
102
RTVSPropertyOp26
 70
     0
102
RTVSPropertyOp27
 70
     0
  0
XRECORD
  5
F8F
102
{ACAD_REACTORS
330
F8E
102
}
330
F8E
100
AcDbXrecord
280
     1
102
RTVSPropertyOp0
 70
     1
102
RTVSPropertyOp1
 70
     1
102
RTVSPropertyOp2
 70
     1
102
RTVSPropertyOp3
 70
     1
102
RTVSPropertyOp4
 70
     1
102
RTVSPropertyOp5
 70
     1
102
RTVSPropertyOp6
 70
     1
102
RTVSPropertyOp7
 70
     1
102
RTVSPropertyOp8
 70
     1
102
RTVSPropertyOp9
 70
     1
102
RTVSPropertyOp10
 70
     1
102
RTVSPropertyOp11
 70
     1
102
RTVSPropertyOp12
 70
     1
102
RTVSPropertyOp13
 70
     1
102
RTVSPropertyOp14
 70
     1
102
RTVSPropertyOp15
 70
     1
102
RTVSPropertyOp16
 70
     1
102
RTVSPropertyOp17
 70
     1
102
RTVSPropertyOp18
 70
     1
102
RTVSPropertyOp19
 70
     1
102
RTVSPropertyOp20
 70
     1
102
RTVSPropertyOp21
 70
     1
102
RTVSPropertyOp22
 70
     1
102
RTVSPropertyOp23
 70
     1
102
RTVSPropertyOp24
 70
     1
102
RTVSPropertyOp25
 70
     1
102
RTVSPropertyOp26
 70
     1
102
RTVSPropertyOp27
 70
     1
  0
XRECORD
  5
F97
102
{ACAD_REACTORS
330
F96
102
}
330
F96
100
AcDbXrecord
280
     1
102
RTVSPropertyOp0
 70
     0
102
RTVSPropertyOp1
 70
     0
102
RTVSPropertyOp2
 70
     0
102
RTVSPropertyOp3
 70
     0
102
RTVSPropertyOp4
 70
     0
102
RTVSPropertyOp5
 70
     0
102
RTVSPropertyOp6
 70
     0
102
RTVSPropertyOp7
 70
     0
102
RTVSPropertyOp8
 70
     0
102
RTVSPropertyOp9
 70
     0
102
RTVSPropertyOp10
 70
     0
102
RTVSPropertyOp11
 70
     0
102
RTVSPropertyOp12
 70
     0
102
RTVSPropertyOp13
 70
     0
102
RTVSPropertyOp14
 70
     2
102
RTVSPropertyOp15
 70
     0
102
RTVSPropertyOp16
 70
     0
102
RTVSPropertyOp17
 70
     0
102
RTVSPropertyOp18
 70
     0
102
RTVSPropertyOp19
 70
     0
102
RTVSPropertyOp20
 70
     0
102
RTVSPropertyOp21
 70
     0
102
RTVSPropertyOp22
 70
     0
102
RTVSPropertyOp23
 70
     0
102
RTVSPropertyOp24
 70
     0
102
RTVSPropertyOp25
 70
     0
102
RTVSPropertyOp26
 70
     0
102
RTVSPropertyOp27
 70
     0
  0
XRECORD
  5
F87
102
{ACAD_REACTORS
330
F86
102
}
330
F86
100
AcDbXrecord
280
     1
102
RTVSPropertyOp0
 70
     1
102
RTVSPropertyOp1
 70
     1
102
RTVSPropertyOp2
 70
     1
102
RTVSPropertyOp3
 70
     1
102
RTVSPropertyOp4
 70
     1
102
RTVSPropertyOp5
 70
     1
102
RTVSPropertyOp6
 70
     1
102
RTVSPropertyOp7
 70
     1
102
RTVSPropertyOp8
 70
     1
102
RTVSPropertyOp9
 70
     1
102
RTVSPropertyOp10
 70
     1
102
RTVSPropertyOp11
 70
     1
102
RTVSPropertyOp12
 70
     1
102
RTVSPropertyOp13
 70
     1
102
RTVSPropertyOp14
 70
     1
102
RTVSPropertyOp15
 70
     1
102
RTVSPropertyOp16
 70
     1
102
RTVSPropertyOp17
 70
     1
102
RTVSPropertyOp18
 70
     1
102
RTVSPropertyOp19
 70
     1
102
RTVSPropertyOp20
 70
     1
102
RTVSPropertyOp21
 70
     1
102
RTVSPropertyOp22
 70
     1
102
RTVSPropertyOp23
 70
     1
102
RTVSPropertyOp24
 70
     1
102
RTVSPropertyOp25
 70
     1
102
RTVSPropertyOp26
 70
     1
102
RTVSPropertyOp27
 70
     1
  0
XRECORD
  5
F8D
102
{ACAD_REACTORS
330
F8C
102
}
330
F8C
100
AcDbXrecord
280
     1
102
RTVSPropertyOp0
 70
     1
102
RTVSPropertyOp1
 70
     1
102
RTVSPropertyOp2
 70
     1
102
RTVSPropertyOp3
 70
     1
102
RTVSPropertyOp4
 70
     1
102
RTVSPropertyOp5
 70
     1
102
RTVSPropertyOp6
 70
     1
102
RTVSPropertyOp7
 70
     1
102
RTVSPropertyOp8
 70
     1
102
RTVSPropertyOp9
 70
     1
102
RTVSPropertyOp10
 70
     1
102
RTVSPropertyOp11
 70
     1
102
RTVSPropertyOp12
 70
     1
102
RTVSPropertyOp13
 70
     1
102
RTVSPropertyOp14
 70
     1
102
RTVSPropertyOp15
 70
     1
102
RTVSPropertyOp16
 70
     1
102
RTVSPropertyOp17
 70
     1
102
RTVSPropertyOp18
 70
     1
102
RTVSPropertyOp19
 70
     1
102
RTVSPropertyOp20
 70
     1
102
RTVSPropertyOp21
 70
     1
102
RTVSPropertyOp22
 70
     1
102
RTVSPropertyOp23
 70
     1
102
RTVSPropertyOp24
 70
     1
102
RTVSPropertyOp25
 70
     1
102
RTVSPropertyOp26
 70
     1
102
RTVSPropertyOp27
 70
     1
  0
ENDSEC
  0
EOF
