  0
SECTION
  2
HEADER
  9
$ACADVER
  1
AC1015
  9
$ACADMAINTVER
 70
    20
  9
$DWGCODEPAGE
  3
ANSI_1252
  9
$INSBASE
 10
0.0
 20
0.0
 30
0.0
  9
$EXTMIN
 10
544.993221775864
 20
79.61250000000053
 30
0.0
  9
$EXTMAX
 10
2805.422921737444
 20
1679.113494770789
 30
0.0
  9
$LIMMIN
 10
0.0
 20
0.0
  9
$LIMMAX
 10
12.0
 20
9.0
  9
$ORTHOMODE
 70
     1
  9
$REGENMODE
 70
     1
  9
$FILLMODE
 70
     1
  9
$QTEXTMODE
 70
     0
  9
$MIRRTEXT
 70
     1
  9
$LTSCALE
 40
1.0
  9
$ATTMODE
 70
     1
  9
$TEXTSIZE
 40
0.0
  9
$TRACEWID
 40
0.05
  9
$TEXTSTYLE
  7
STANDARD
  9
$CLAYER
  8
0
  9
$CELTYPE
  6
CONTINUOUS
  9
$CECOLOR
 62
   256
  9
$CELTSCALE
 40
1.0
  9
$DISPSILH
 70
     0
  9
$DIMSCALE
 40
1.0
  9
$DIMASZ
 40
0.18
  9
$DIMEXO
 40
0.0625
  9
$DIMDLI
 40
0.38
  9
$DIMRND
 40
0.0
  9
$DIMDLE
 40
0.0
  9
$DIMEXE
 40
0.18
  9
$DIMTP
 40
0.0
  9
$DIMTM
 40
0.0
  9
$DIMTXT
 40
0.18
  9
$DIMCEN
 40
0.09
  9
$DIMTSZ
 40
0.0
  9
$DIMTOL
 70
     0
  9
$DIMLIM
 70
     0
  9
$DIMTIH
 70
     1
  9
$DIMTOH
 70
     1
  9
$DIMSE1
 70
     0
  9
$DIMSE2
 70
     0
  9
$DIMTAD
 70
     0
  9
$DIMZIN
 70
     0
  9
$DIMBLK
  1

  9
$DIMASO
 70
     1
  9
$DIMSHO
 70
     1
  9
$DIMPOST
  1

  9
$DIMAPOST
  1

  9
$DIMALT
 70
     0
  9
$DIMALTD
 70
     2
  9
$DIMALTF
 40
25.4
  9
$DIMLFAC
 40
1.0
  9
$DIMTOFL
 70
     0
  9
$DIMTVP
 40
0.0
  9
$DIMTIX
 70
     0
  9
$DIMSOXD
 70
     0
  9
$DIMSAH
 70
     0
  9
$DIMBLK1
  1

  9
$DIMBLK2
  1

  9
$DIMSTYLE
  2
STANDARD
  9
$DIMCLRD
 70
     0
  9
$DIMCLRE
 70
     0
  9
$DIMCLRT
 70
     0
  9
$DIMTFAC
 40
1.0
  9
$DIMGAP
 40
0.09
  9
$DIMJUST
 70
     0
  9
$DIMSD1
 70
     0
  9
$DIMSD2
 70
     0
  9
$DIMTOLJ
 70
     1
  9
$DIMTZIN
 70
     0
  9
$DIMALTZ
 70
     0
  9
$DIMALTTZ
 70
     0
  9
$DIMUPT
 70
     0
  9
$DIMDEC
 70
     4
  9
$DIMTDEC
 70
     4
  9
$DIMALTU
 70
     2
  9
$DIMALTTD
 70
     2
  9
$DIMTXSTY
  7
STANDARD
  9
$DIMAUNIT
 70
     0
  9
$DIMADEC
 70
     0
  9
$DIMALTRND
 40
0.0
  9
$DIMAZIN
 70
     0
  9
$DIMDSEP
 70
    46
  9
$DIMATFIT
 70
     3
  9
$DIMFRAC
 70
     0
  9
$DIMLDRBLK
  1

  9
$DIMLUNIT
 70
     2
  9
$DIMLWD
 70
    -2
  9
$DIMLWE
 70
    -2
  9
$DIMTMOVE
 70
     0
  9
$LUNITS
 70
     2
  9
$LUPREC
 70
     4
  9
$SKETCHINC
 40
0.1
  9
$FILLETRAD
 40
0.0
  9
$AUNITS
 70
     0
  9
$AUPREC
 70
     0
  9
$MENU
  1
acad
  9
$ELEVATION
 40
0.0
  9
$PELEVATION
 40
0.0
  9
$THICKNESS
 40
0.0
  9
$LIMCHECK
 70
     0
  9
$CHAMFERA
 40
0.0
  9
$CHAMFERB
 40
0.0
  9
$CHAMFERC
 40
0.0
  9
$CHAMFERD
 40
0.0
  9
$SKPOLY
 70
     0
  9
$TDCREATE
 40
2453238.605775463
  9
$TDUCREATE
 40
2453238.605775463
  9
$TDUPDATE
 40
2456695.718464641
  9
$TDUUPDATE
 40
2456695.718464641
  9
$TDINDWG
 40
0.0162264931
  9
$TDUSRTIMER
 40
0.0162204282
  9
$USRTIMER
 70
     1
  9
$ANGBASE
 50
0.0
  9
$ANGDIR
 70
     0
  9
$PDMODE
 70
     0
  9
$PDSIZE
 40
0.0
  9
$PLINEWID
 40
0.0
  9
$SPLFRAME
 70
     0
  9
$SPLINETYPE
 70
     6
  9
$SPLINESEGS
 70
    10
  9
$HANDSEED
  5
8E9
  9
$SURFTAB1
 70
     6
  9
$SURFTAB2
 70
     6
  9
$SURFTYPE
 70
     6
  9
$SURFU
 70
     6
  9
$SURFV
 70
     6
  9
$UCSBASE
  2

  9
$UCSNAME
  2

  9
$UCSORG
 10
0.0
 20
0.0
 30
0.0
  9
$UCSXDIR
 10
1.0
 20
0.0
 30
0.0
  9
$UCSYDIR
 10
0.0
 20
1.0
 30
0.0
  9
$UCSORTHOREF
  2

  9
$UCSORTHOVIEW
 70
     0
  9
$UCSORGTOP
 10
0.0
 20
0.0
 30
0.0
  9
$UCSORGBOTTOM
 10
0.0
 20
0.0
 30
0.0
  9
$UCSORGLEFT
 10
0.0
 20
0.0
 30
0.0
  9
$UCSORGRIGHT
 10
0.0
 20
0.0
 30
0.0
  9
$UCSORGFRONT
 10
0.0
 20
0.0
 30
0.0
  9
$UCSORGBACK
 10
0.0
 20
0.0
 30
0.0
  9
$PUCSBASE
  2

  9
$PUCSNAME
  2

  9
$PUCSORG
 10
0.0
 20
0.0
 30
0.0
  9
$PUCSXDIR
 10
1.0
 20
0.0
 30
0.0
  9
$PUCSYDIR
 10
0.0
 20
1.0
 30
0.0
  9
$PUCSORTHOREF
  2

  9
$PUCSORTHOVIEW
 70
     0
  9
$PUCSORGTOP
 10
0.0
 20
0.0
 30
0.0
  9
$PUCSORGBOTTOM
 10
0.0
 20
0.0
 30
0.0
  9
$PUCSORGLEFT
 10
0.0
 20
0.0
 30
0.0
  9
$PUCSORGRIGHT
 10
0.0
 20
0.0
 30
0.0
  9
$PUCSORGFRONT
 10
0.0
 20
0.0
 30
0.0
  9
$PUCSORGBACK
 10
0.0
 20
0.0
 30
0.0
  9
$USERI1
 70
     0
  9
$USERI2
 70
     0
  9
$USERI3
 70
     0
  9
$USERI4
 70
     0
  9
$USERI5
 70
     0
  9
$USERR1
 40
0.0
  9
$USERR2
 40
0.0
  9
$USERR3
 40
0.0
  9
$USERR4
 40
0.0
  9
$USERR5
 40
0.0
  9
$WORLDVIEW
 70
     1
  9
$SHADEDGE
 70
     3
  9
$SHADEDIF
 70
    70
  9
$TILEMODE
 70
     1
  9
$MAXACTVP
 70
    16
  9
$PINSBASE
 10
0.0
 20
0.0
 30
0.0
  9
$PLIMCHECK
 70
     0
  9
$PEXTMIN
 10
-1.000000000000000E+20
 20
-1.000000000000000E+20
 30
-1.000000000000000E+20
  9
$PEXTMAX
 10
-1.000000000000000E+20
 20
-1.000000000000000E+20
 30
-1.000000000000000E+20
  9
$PLIMMIN
 10
0.0
 20
0.0
  9
$PLIMMAX
 10
12.0
 20
9.0
  9
$UNITMODE
 70
     0
  9
$VISRETAIN
 70
     0
  9
$PLINEGEN
 70
     1
  9
$PSLTSCALE
 70
     0
  9
$TREEDEPTH
 70
  3020
  9
$CMLSTYLE
  2
STANDARD
  9
$CMLJUST
 70
     0
  9
$CMLSCALE
 40
1.0
  9
$PROXYGRAPHICS
 70
     1
  9
$MEASUREMENT
 70
     0
  9
$CELWEIGHT
370
    -1
  9
$ENDCAPS
280
     0
  9
$JOINSTYLE
280
     0
  9
$LWDISPLAY
290
     0
  9
$INSUNITS
 70
     0
  9
$HYPERLINKBASE
  1

  9
$STYLESHEET
  1

  9
$XEDIT
290
     1
  9
$CEPSNTYPE
380
     0
  9
$PSTYLEMODE
290
     1
  9
$FINGERPRINTGUID
  2
{5F131A13-9B98-486C-B0CA-8238EC515D8E}
  9
$VERSIONGUID
  2
{600FAC54-4DFF-46CF-A5A9-AB157B1F949A}
  9
$EXTNAMES
290
     1
  9
$PSVPSCALE
 40
0.0
  9
$OLESTARTUP
290
     0
  0
ENDSEC
  0
SECTION
  2
CLASSES
  0
CLASS
  1
ACDBDICTIONARYWDFLT
  2
AcDbDictionaryWithDefault
  3
ObjectDBX Classes
 90
        0
280
     0
281
     0
  0
CLASS
  1
ACDBPLACEHOLDER
  2
AcDbPlaceHolder
  3
ObjectDBX Classes
 90
        0
280
     0
281
     0
  0
CLASS
  1
LAYOUT
  2
AcDbLayout
  3
ObjectDBX Classes
 90
        0
280
     0
281
     0
  0
CLASS
  1
MATERIAL
  2
AcDbMaterial
  3
ObjectDBX Classes
 90
     1153
280
     0
281
     0
  0
CLASS
  1
VISUALSTYLE
  2
AcDbVisualStyle
  3
ObjectDBX Classes
 90
     4095
280
     0
281
     0
  0
CLASS
  1
TABLESTYLE
  2
AcDbTableStyle
  3
ObjectDBX Classes
 90
     4095
280
     0
281
     0
  0
CLASS
  1
SCALE
  2
AcDbScale
  3
ObjectDBX Classes
 90
     1153
280
     0
281
     0
  0
CLASS
  1
MLEADERSTYLE
  2
AcDbMLeaderStyle
  3
ACDB_MLEADERSTYLE_CLASS
 90
     4095
280
     0
281
     0
  0
CLASS
  1
SORTENTSTABLE
  2
AcDbSortentsTable
  3
ObjectDBX Classes
 90
        0
280
     0
281
     0
  0
CLASS
  1
DICTIONARYVAR
  2
AcDbDictionaryVar
  3
ObjectDBX Classes
 90
        0
280
     0
281
     0
  0
CLASS
  1
CELLSTYLEMAP
  2
AcDbCellStyleMap
  3
ObjectDBX Classes
 90
     1152
280
     0
281
     0
  0
ENDSEC
  0
SECTION
  2
TABLES
  0
TABLE
  2
VPORT
  5
77
330
0
100
AcDbSymbolTable
 70
     1
  0
VPORT
  5
13C
330
77
100
AcDbSymbolTableRecord
100
AcDbViewportTableRecord
  2
*ACTIVE
 70
     0
 10
0.0
 20
0.0
 11
1.0
 21
1.0
 12
-40.60987952946973
 22
79.42037406386299
 13
0.0
 23
0.0
 14
0.0
 24
0.0
 15
0.0
 25
0.0
 16
0.0
 26
0.0
 36
1.0
 17
813.9567150000001
 27
573.36875
 37
0.0
 40
795.4403100348342
 41
1.897654584221748
 42
50.0
 43
0.025
 44
0.0
 50
0.0
 51
0.0
 71
     0
 72
   100
 73
     1
 74
     0
 75
     0
 76
     0
 77
     0
 78
     0
281
     0
 65
     1
110
0.0
120
0.0
130
0.0
111
1.0
121
0.0
131
0.0
112
0.0
122
1.0
132
0.0
 79
     0
146
0.0
  0
ENDTAB
  0
TABLE
  2
LTYPE
  5
74
330
0
100
AcDbSymbolTable
 70
     8
  0
LTYPE
  5
82
330
74
100
AcDbSymbolTableRecord
100
AcDbLinetypeTableRecord
  2
BYBLOCK
 70
     0
  3

 72
    65
 73
     0
 40
0.0
  0
LTYPE
  5
83
330
74
100
AcDbSymbolTableRecord
100
AcDbLinetypeTableRecord
  2
BYLAYER
 70
     0
  3

 72
    65
 73
     0
 40
0.0
  0
LTYPE
  5
84
330
74
100
AcDbSymbolTableRecord
100
AcDbLinetypeTableRecord
  2
CONTINUOUS
 70
     0
  3
Solid line
 72
    65
 73
     0
 40
0.0
  0
LTYPE
  5
92
330
74
100
AcDbSymbolTableRecord
100
AcDbLinetypeTableRecord
  2
DOT
 70
     0
  3
. . . . . . . . . . . . . . . . . . . . . . . . . . . . . . . . .
 72
    65
 73
     2
 40
0.25
 49
0.0
 74
     0
 49
-0.25
 74
     0
  0
LTYPE
  5
93
330
74
100
AcDbSymbolTableRecord
100
AcDbLinetypeTableRecord
  2
HIDDEN
 70
     0
  3
__ __ __ __ __ __ __ __ __ __ __ __ __ __ __ __ __ __ __ __ __ 
 72
    65
 73
     2
 40
0.375
 49
0.25
 74
     0
 49
-0.125
 74
     0
  0
LTYPE
  5
94
330
74
100
AcDbSymbolTableRecord
100
AcDbLinetypeTableRecord
  2
DASHED
 70
     0
  3
__ __ __ __ __ __ __ __ __ __ __ __ __ __ __ __ __ __ __ __ __
 72
    65
 73
     2
 40
0.75
 49
0.5
 74
     0
 49
-0.25
 74
     0
  0
LTYPE
  5
95
330
74
100
AcDbSymbolTableRecord
100
AcDbLinetypeTableRecord
  2
DASHDOT
 70
     0
  3
__ . __ . __ . __ . __ . __ . __ . __ . __ . __ . __ . __ . _
 72
    65
 73
     4
 40
1.0
 49
0.5
 74
     0
 49
-0.25
 74
     0
 49
0.0
 74
     0
 49
-0.25
 74
     0
  0
LTYPE
  5
96
330
74
100
AcDbSymbolTableRecord
100
AcDbLinetypeTableRecord
  2
DIVIDE
 70
     0
  3
____ . . ____ . . ____ . . ____ . . ____ . . ____ . . ____ . .
 72
    65
 73
     6
 40
1.25
 49
0.5
 74
     0
 49
-0.25
 74
     0
 49
0.0
 74
     0
 49
-0.25
 74
     0
 49
0.0
 74
     0
 49
-0.25
 74
     0
  0
LTYPE
  5
97
330
74
100
AcDbSymbolTableRecord
100
AcDbLinetypeTableRecord
  2
CENTER
 70
     0
  3
____ _ ____ _ ____ _ ____ _ ____ _ ____ _ ____ _ ____ _ ____ _
 72
    65
 73
     4
 40
2.0
 49
1.25
 74
     0
 49
-0.25
 74
     0
 49
0.25
 74
     0
 49
-0.25
 74
     0
  0
ENDTAB
  0
TABLE
  2
LAYER
  5
71
330
0
100
AcDbSymbolTable
 70
     4
  0
LAYER
  5
7F
102
{ACAD_XDICTIONARY
360
1D5
102
}
330
71
100
AcDbSymbolTableRecord
100
AcDbLayerTableRecord
  2
0
 70
     0
 62
     7
  6
CONTINUOUS
370
    -3
390
7E
  0
LAYER
  5
98
102
{ACAD_XDICTIONARY
360
1D7
102
}
330
71
100
AcDbSymbolTableRecord
100
AcDbLayerTableRecord
  2
CONSTRUCTION_CLASS
 70
     0
 62
     7
  6
CONTINUOUS
370
    -3
390
7E
  0
LAYER
  5
99
102
{ACAD_XDICTIONARY
360
1D9
102
}
330
71
100
AcDbSymbolTableRecord
100
AcDbLayerTableRecord
  2
PATTERN_CLASS
 70
     0
 62
     7
  6
CONTINUOUS
370
    -3
390
7E
  0
LAYER
  5
9A
102
{ACAD_XDICTIONARY
360
1DB
102
}
330
71
100
AcDbSymbolTableRecord
100
AcDbLayerTableRecord
  2
1
 70
     0
 62
     7
  6
CONTINUOUS
370
    -3
390
7E
  0
ENDTAB
  0
TABLE
  2
STYLE
  5
72
330
0
100
AcDbSymbolTable
 70
     2
  0
STYLE
  5
80
330
72
100
AcDbSymbolTableRecord
100
AcDbTextStyleTableRecord
  2
STANDARD
 70
     0
 40
0.0
 41
1.0
 50
0.0
 71
     0
 42
0.0
  3
txt
  4

  0
STYLE
  5
9B
330
72
100
AcDbSymbolTableRecord
100
AcDbTextStyleTableRecord
  2
ROMANS
 70
     0
 40
0.2
 41
1.0
 50
0.0
 71
     0
 42
0.2
  3
ROMANS
  4

  0
ENDTAB
  0
TABLE
  2
VIEW
  5
75
330
0
100
AcDbSymbolTable
 70
     0
  0
ENDTAB
  0
TABLE
  2
UCS
  5
76
330
0
100
AcDbSymbolTable
 70
     0
  0
ENDTAB
  0
TABLE
  2
APPID
  5
78
330
0
100
AcDbSymbolTable
 70
     3
  0
APPID
  5
81
330
78
100
AcDbSymbolTableRecord
100
AcDbRegAppTableRecord
  2
ACAD
 70
     0
  0
APPID
  5
1BF
330
78
100
AcDbSymbolTableRecord
100
AcDbRegAppTableRecord
  2
ACAD_EXEMPT_FROM_CAD_STANDARDS
 70
     0
  0
APPID
  5
28D
330
78
100
AcDbSymbolTableRecord
100
AcDbRegAppTableRecord
  2
ACAD_MLEADERVER
 70
     0
  0
ENDTAB
  0
TABLE
  2
DIMSTYLE
  5
79
330
0
100
AcDbSymbolTable
 70
     2
100
AcDbDimStyleTable
 71
     1
340
9C
  0
DIMSTYLE
105
9C
330
79
100
AcDbSymbolTableRecord
100
AcDbDimStyleTableRecord
  2
STANDARD
 70
     0
340
80
  0
ENDTAB
  0
TABLE
  2
BLOCK_RECORD
  5
70
330
0
100
AcDbSymbolTable
 70
     1
  0
BLOCK_RECORD
  5
8D
102
{ACAD_XDICTIONARY
360
15F
102
}
330
70
100
AcDbSymbolTableRecord
100
AcDbBlockTableRecord
  2
*MODEL_SPACE
340
1B7
  0
BLOCK_RECORD
  5
89
102
{ACAD_XDICTIONARY
360
15D
102
}
330
70
100
AcDbSymbolTableRecord
100
AcDbBlockTableRecord
  2
*PAPER_SPACE
340
1B8
  0
ENDTAB
  0
ENDSEC
  0
SECTION
  2
BLOCKS
  0
BLOCK
  5
8E
330
8D
100
AcDbEntity
  8
0
100
AcDbBlockBegin
  2
*MODEL_SPACE
 70
     0
 10
0.0
 20
0.0
 30
0.0
  3
*MODEL_SPACE
  1

  0
ENDBLK
  5
8F
330
8D
100
AcDbEntity
  8
0
100
AcDbBlockEnd
  0
BLOCK
  5
8A
330
89
100
AcDbEntity
 67
     1
  8
0
100
AcDbBlockBegin
  2
*PAPER_SPACE
 70
     0
 10
0.0
 20
0.0
 30
0.0
  3
*PAPER_SPACE
  1

  0
ENDBLK
  5
8B
330
89
100
AcDbEntity
 67
     1
  8
0
100
AcDbBlockEnd
  0
ENDSEC
  0
SECTION
  2
ENTITIES
  0
LINE
  5
9F
330
8D
100
AcDbEntity
  8
1
  6
Continuous
 62
     7
100
AcDbLine
 10
1066.75
 20
705.4124999999991
 30
0.0
 11
1066.749999999998
 21
481.8124999999998
 31
0.0
  0
LINE
  5
A0
330
8D
100
AcDbEntity
  8
1
  6
Continuous
 62
     7
100
AcDbLine
 10
1056.668749999999
 20
464.3562499999998
 30
0.0
 11
1066.749999999998
 21
481.8124999999998
 31
0.0
  0
LINE
  5
A1
330
8D
100
AcDbEntity
  8
1
  6
Continuous
 62
     7
100
AcDbLine
 10
809.7499999999996
 20
336.6125
 30
0.0
 11
697.9499999999997
 21
336.6125
 31
0.0
  0
LINE
  5
A2
330
8D
100
AcDbEntity
  8
1
  6
Continuous
 62
     7
100
AcDbLine
 10
921.5499999999996
 20
336.6125
 30
0.0
 11
739.95
 21
336.6125
 31
0.0
  0
LINE
  5
A3
330
8D
100
AcDbEntity
  8
1
  6
Continuous
 62
     7
100
AcDbLine
 10
921.5499999999996
 20
336.6125
 30
0.0
 11
939.0062499999997
 21
346.69375
 31
0.0
  0
LINE
  5
A4
330
8D
100
AcDbEntity
  8
1
  6
Continuous
 62
     7
100
AcDbLine
 10
939.0062499999997
 20
346.69375
 30
0.0
 11
809.9062499999996
 21
346.69375
 31
0.0
  0
LINE
  5
A6
330
8D
100
AcDbEntity
  8
1
  6
Continuous
 62
     3
100
AcDbLine
 10
1066.75
 20
730.5218504381752
 30
0.0
 11
1066.75
 21
858.94375
 31
0.0
  0
LINE
  5
A7
330
8D
100
AcDbEntity
  8
1
  6
Continuous
 62
     3
100
AcDbLine
 10
809.7499999999996
 20
407.1245533428153
 30
0.0
 11
809.7499999999996
 21
862.2045832971949
 31
0.0
  0
LINE
  5
A8
330
8D
100
AcDbEntity
  8
1
  6
Continuous
 62
     3
100
AcDbLine
 10
676.7585917611221
 20
336.6125
 30
0.0
 11
546.625
 21
336.6125
 31
0.0
  0
LINE
  5
A9
330
8D
100
AcDbEntity
  8
1
  6
Continuous
 62
     3
100
AcDbLine
 10
1000.358853581197
 20
593.4562499999997
 30
0.0
 11
544.993221775864
 21
593.4562499999997
 31
0.0
  0
LINE
  5
AC
330
8D
100
AcDbEntity
  8
1
  6
Continuous
 62
     7
100
AcDbLine
 10
1057.193595644688
 20
721.9652333196787
 30
0.0
 11
1066.699008323262
 21
705.5008231386169
 31
0.0
  0
LINE
  5
D0
330
8D
100
AcDbEntity
  8
1
  6
Continuous
 62
     5
100
AcDbLine
 10
940.1667949192047
 20
869.275
 30
0.0
 11
945.1667949192046
 21
869.275
 31
0.0
  0
LINE
  5
D1
330
8D
100
AcDbEntity
  8
1
  6
Continuous
 62
     5
100
AcDbLine
 10
560.85
 20
469.0928964041988
 30
0.0
 11
565.85
 21
469.0928964041988
 31
0.0
  0
LINE
  5
D2
330
8D
100
AcDbEntity
  8
1
  6
Continuous
 62
     3
100
AcDbLine
 10
1043.03125
 20
850.275
 30
0.0
 11
833.4656249999996
 21
850.2749999999997
 31
0.0
  0
LINE
  5
D3
330
8D
100
AcDbEntity
  8
1
  6
Continuous
 62
     3
100
AcDbLine
 10
560.85
 20
360.33125
 30
0.0
 11
560.85
 21
444.080396404199
 31
0.0
  0
LINE
  5
D4
330
8D
100
AcDbEntity
  8
1
  6
Continuous
 62
     3
100
AcDbLine
 10
560.85
 20
493.0803964041991
 30
0.0
 11
560.85
 21
569.7406249999998
 31
0.0
  0
LINE
  5
D5
330
8D
100
AcDbEntity
  8
1
  6
Continuous
 62
     3
100
AcDbLine
 10
1066.75
 20
850.275
 30
0.0
 11
1043.0375
 21
843.71875
 31
0.0
  0
LINE
  5
D6
330
8D
100
AcDbEntity
  8
1
  6
Continuous
 62
     3
100
AcDbLine
 10
1066.75
 20
850.275
 30
0.0
 11
1043.03125
 21
856.8312499999999
 31
0.0
  0
LINE
  5
D7
330
8D
100
AcDbEntity
  8
1
  6
Continuous
 62
     3
100
AcDbLine
 10
1043.03125
 20
856.8312499999999
 30
0.0
 11
1043.0375
 21
843.71875
 31
0.0
  0
LINE
  5
D8
330
8D
100
AcDbEntity
  8
1
  6
Continuous
 62
     3
100
AcDbLine
 10
809.7499999999996
 20
850.275
 30
0.0
 11
833.4624999999997
 21
856.8312499999999
 31
0.0
  0
LINE
  5
D9
330
8D
100
AcDbEntity
  8
1
  6
Continuous
 62
     3
100
AcDbLine
 10
809.7499999999996
 20
850.275
 30
0.0
 11
833.4687499999997
 21
843.71875
 31
0.0
  0
LINE
  5
DA
330
8D
100
AcDbEntity
  8
1
  6
Continuous
 62
     3
100
AcDbLine
 10
833.4687499999997
 20
843.71875
 30
0.0
 11
833.4624999999997
 21
856.8312499999999
 31
0.0
  0
LINE
  5
DB
330
8D
100
AcDbEntity
  8
1
  6
Continuous
 62
     3
100
AcDbLine
 10
560.85
 20
593.4562499999997
 30
0.0
 11
567.4062499999998
 21
569.7437499999997
 31
0.0
  0
LINE
  5
DC
330
8D
100
AcDbEntity
  8
1
  6
Continuous
 62
     3
100
AcDbLine
 10
560.85
 20
593.4562499999997
 30
0.0
 11
554.29375
 21
569.7374999999997
 31
0.0
  0
LINE
  5
DD
330
8D
100
AcDbEntity
  8
1
  6
Continuous
 62
     3
100
AcDbLine
 10
554.29375
 20
569.7374999999997
 30
0.0
 11
567.4062499999998
 21
569.7437499999997
 31
0.0
  0
LINE
  5
DE
330
8D
100
AcDbEntity
  8
1
  6
Continuous
 62
     3
100
AcDbLine
 10
560.85
 20
336.6125
 30
0.0
 11
554.29375
 21
360.325
 31
0.0
  0
LINE
  5
DF
330
8D
100
AcDbEntity
  8
1
  6
Continuous
 62
     3
100
AcDbLine
 10
560.85
 20
336.6125
 30
0.0
 11
567.4062499999998
 21
360.33125
 31
0.0
  0
LINE
  5
E0
330
8D
100
AcDbEntity
  8
1
  6
Continuous
 62
     3
100
AcDbLine
 10
567.4062499999998
 20
360.33125
 30
0.0
 11
554.29375
 21
360.325
 31
0.0
  0
LINE
  5
5A3
330
8D
100
AcDbEntity
  8
1
  6
Continuous
 62
     4
100
AcDbLine
 10
697.8405420739219
 20
339.4657608101156
 30
0.0
 11
681.7173466957195
 21
355.588956188318
 31
0.0
1001
ACAD
1010
0.0
1020
0.0
1030
0.0
  0
LINE
  5
5A4
330
8D
100
AcDbEntity
  8
1
  6
Continuous
 62
     4
100
AcDbLine
 10
698.0669322388287
 20
349.8459723630074
 30
0.0
 11
682.3393990080432
 21
365.573505593793
 31
0.0
1001
ACAD
1010
0.0
1020
0.0
1030
0.0
  0
LINE
  5
5A5
330
8D
100
AcDbEntity
  8
1
  6
Continuous
 62
     4
100
AcDbLine
 10
698.5684662532005
 20
359.9510400664337
 30
0.0
 11
683.1983242952332
 21
375.3211820244014
 31
0.0
1001
ACAD
1010
0.0
1020
0.0
1030
0.0
  0
LINE
  5
5A6
330
8D
100
AcDbEntity
  8
1
  6
Continuous
 62
     4
100
AcDbLine
 10
699.325355809344
 20
369.8007522280883
 30
0.0
 11
684.279456522893
 21
384.8466515145394
 31
0.0
1001
ACAD
1010
0.0
1020
0.0
1030
0.0
  0
LINE
  5
5A7
330
8D
100
AcDbEntity
  8
1
  6
Continuous
 62
     4
100
AcDbLine
 10
700.3205786610538
 20
379.4121310941766
 30
0.0
 11
685.5699647196309
 21
394.1627450355998
 31
0.0
1001
ACAD
1010
0.0
1020
0.0
1030
0.0
  0
LINE
  5
5A8
330
8D
100
AcDbEntity
  8
1
  6
Continuous
 62
     4
100
AcDbLine
 10
701.5393748729242
 20
388.7999366001045
 30
0.0
 11
687.0585548065919
 21
403.2807566664371
 31
0.0
1001
ACAD
1010
0.0
1020
0.0
1030
0.0
  0
LINE
  5
5A9
330
8D
100
AcDbEntity
  8
1
  6
Continuous
 62
     4
100
AcDbLine
 10
702.9688564287575
 20
397.9770567620694
 30
0.0
 11
688.7352318076047
 21
412.2106813832222
 31
0.0
1001
ACAD
1010
0.0
1020
0.0
1030
0.0
  0
LINE
  5
5AA
330
8D
100
AcDbEntity
  8
1
  6
Continuous
 62
     4
100
AcDbLine
 10
704.5977004825281
 20
406.9548144260973
 30
0.0
 11
690.5911081382679
 21
420.9614067703572
 31
0.0
1001
ACAD
1010
0.0
1020
0.0
1030
0.0
  0
LINE
  5
5AB
330
8D
100
AcDbEntity
  8
1
  6
Continuous
 62
     4
100
AcDbLine
 10
706.4159053383137
 20
415.7432112881093
 30
0.0
 11
692.6182475184315
 21
429.5408691079917
 31
0.0
1001
ACAD
1010
0.0
1020
0.0
1030
0.0
  0
LINE
  5
5AC
330
8D
100
AcDbEntity
  8
1
  6
Continuous
 62
     4
100
AcDbLine
 10
708.4145941685546
 20
424.3511241756668
 30
0.0
 11
694.8095367517908
 21
437.9561815924307
 31
0.0
1001
ACAD
1010
0.0
1020
0.0
1030
0.0
  0
LINE
  5
5AD
330
8D
100
AcDbEntity
  8
1
  6
Continuous
 62
     4
100
AcDbLine
 10
710.5858555468255
 20
432.7864645151944
 30
0.0
 11
697.1585795416753
 21
446.2137405203446
 31
0.0
1001
ACAD
1010
0.0
1020
0.0
1030
0.0
  0
LINE
  5
5AE
330
8D
100
AcDbEntity
  8
1
  6
Continuous
 62
     4
100
AcDbLine
 10
712.9226127152835
 20
441.0563090645346
 30
0.0
 11
699.6596079060533
 21
454.3193138737647
 31
0.0
1001
ACAD
1010
0.0
1020
0.0
1030
0.0
  0
LINE
  5
5AF
330
8D
100
AcDbEntity
  8
1
  6
Continuous
 62
     4
100
AcDbLine
 10
715.4185155290109
 20
449.1670079686055
 30
0.0
 11
702.3074077776746
 21
462.2781157199416
 31
0.0
1001
ACAD
1010
0.0
1020
0.0
1030
0.0
  0
LINE
  5
5B0
330
8D
100
AcDbEntity
  8
1
  6
Continuous
 62
     4
100
AcDbLine
 10
718.0678504790596
 20
457.1242747363551
 30
0.0
 11
705.0972561354073
 21
470.0948690800073
 31
0.0
1001
ACAD
1010
0.0
1020
0.0
1030
0.0
  0
LINE
  5
5B1
330
8D
100
AcDbEntity
  8
1
  6
Continuous
 62
     4
100
AcDbLine
 10
720.8654652642643
 20
464.9332616689481
 30
0.0
 11
708.0248675841942
 21
477.7738593490185
 31
0.0
1001
ACAD
1010
0.0
1020
0.0
1030
0.0
  0
LINE
  5
5B2
330
8D
100
AcDbEntity
  8
1
  6
Continuous
 62
     4
100
AcDbLine
 10
723.8067051737462
 20
472.5986234772647
 30
0.0
 11
711.0863487351609
 21
485.3189799158498
 31
0.0
1001
ACAD
1010
0.0
1020
0.0
1030
0.0
  0
LINE
  5
5B3
330
8D
100
AcDbEntity
  8
1
  6
Continuous
 62
     4
100
AcDbLine
 10
726.887359135914
 20
480.1245712328952
 30
0.0
 11
714.2781590705307
 21
492.7337712982787
 31
0.0
1001
ACAD
1010
0.0
1020
0.0
1030
0.0
  0
LINE
  5
5B4
330
8D
100
AcDbEntity
  8
1
  6
Continuous
 62
     4
100
AcDbLine
 10
730.1036137401023
 20
487.5149183465049
 30
0.0
 11
717.5970772360111
 21
500.021454850596
 31
0.0
1001
ACAD
1010
0.0
1020
0.0
1030
0.0
  0
LINE
  5
5B5
330
8D
100
AcDbEntity
  8
1
  6
Continuous
 62
     4
100
AcDbLine
 10
733.452013881875
 20
494.7731199225306
 30
0.0
 11
721.0401719049022
 21
507.1849618995037
 31
0.0
1001
ACAD
1010
0.0
1020
0.0
1030
0.0
  0
LINE
  5
5B6
330
8D
100
AcDbEntity
  8
1
  6
Continuous
 62
     4
100
AcDbLine
 10
736.92942894974
 20
501.9023065724641
 30
0.0
 11
724.6047765169457
 21
514.2269590052579
 31
0.0
1001
ACAD
1010
0.0
1020
0.0
1030
0.0
  0
LINE
  5
5B7
330
8D
100
AcDbEntity
  8
1
  6
Continuous
 62
     4
100
AcDbLine
 10
740.5330236790952
 20
508.9053135609072
 30
0.0
 11
728.2884673210388
 21
521.1498699189631
 31
0.0
1001
ACAD
1010
0.0
1020
0.0
1030
0.0
  0
LINE
  5
5B8
330
8D
100
AcDbEntity
  8
1
  6
Continuous
 62
     4
100
AcDbLine
 10
744.2602329629294
 20
515.7847059948708
 30
0.0
 11
732.0890442517195
 21
527.9558947060807
 31
0.0
1001
ACAD
1010
0.0
1020
0.0
1030
0.0
  0
LINE
  5
5B9
330
8D
100
AcDbEntity
  8
1
  6
Continuous
 62
     4
100
AcDbLine
 10
748.1087400386552
 20
522.5428006369432
 30
0.0
 11
736.0045142505818
 21
534.647026425017
 31
0.0
1001
ACAD
1010
0.0
1020
0.0
1030
0.0
  0
LINE
  5
5BA
330
8D
100
AcDbEntity
  8
1
  6
Continuous
 62
     4
100
AcDbLine
 10
752.0764575742288
 20
529.1816848191676
 30
0.0
 11
740.0330767096486
 21
541.2250656837478
 31
0.0
1001
ACAD
1010
0.0
1020
0.0
1030
0.0
  0
LINE
  5
5BB
330
8D
100
AcDbEntity
  8
1
  6
Continuous
 62
     4
100
AcDbLine
 10
756.1615112603099
 20
535.7032328508847
 30
0.0
 11
744.1731107675398
 21
547.6916333436552
 31
0.0
1001
ACAD
1010
0.0
1020
0.0
1030
0.0
  0
LINE
  5
5BC
330
8D
100
AcDbEntity
  8
1
  6
Continuous
 62
     4
100
AcDbLine
 10
760.3622255830162
 20
542.1091202459766
 30
0.0
 11
748.4231642335087
 21
554.0481815954843
 31
0.0
1001
ACAD
1010
0.0
1020
0.0
1030
0.0
  0
LINE
  5
5BD
330
8D
100
AcDbEntity
  8
1
  6
Continuous
 62
     4
100
AcDbLine
 10
764.6771115072838
 20
548.4008360395075
 30
0.0
 11
752.7819439510713
 21
560.2960035957196
 31
0.0
1001
ACAD
1010
0.0
1020
0.0
1030
0.0
  0
LINE
  5
5BE
330
8D
100
AcDbEntity
  8
1
  6
Continuous
 62
     4
100
AcDbLine
 10
769.1048558464959
 20
554.5796934180937
 30
0.0
 11
757.2483074434869
 21
566.4362418211027
 31
0.0
1001
ACAD
1010
0.0
1020
0.0
1030
0.0
  0
LINE
  5
5BF
330
8D
100
AcDbEntity
  8
1
  6
Continuous
 62
     4
100
AcDbLine
 10
773.6443121319791
 20
560.6468388504083
 30
0.0
 11
761.8212557090313
 21
572.4698952733562
 31
0.0
1001
ACAD
1010
0.0
1020
0.0
1030
0.0
  0
LINE
  5
5C0
330
8D
100
AcDbEntity
  8
1
  6
Continuous
 62
     4
100
AcDbLine
 10
778.294492827722
 20
566.6032598724642
 30
0.0
 11
766.4999270557632
 21
578.3978256444227
 31
0.0
1001
ACAD
1010
0.0
1020
0.0
1030
0.0
  0
LINE
  5
5C1
330
8D
100
AcDbEntity
  8
1
  6
Continuous
 62
     4
100
AcDbLine
 10
783.0545627625349
 20
572.4497916554494
 30
0.0
 11
771.2835918840648
 21
584.2207625339199
 31
0.0
1001
ACAD
1010
0.0
1020
0.0
1030
0.0
  0
LINE
  5
5C2
330
8D
100
AcDbEntity
  8
1
  6
Continuous
 62
     4
100
AcDbLine
 10
787.9238336748345
 20
578.1871224609479
 30
0.0
 11
776.1716483413282
 21
589.9393077944543
 31
0.0
1001
ACAD
1010
0.0
1020
0.0
1030
0.0
  0
LINE
  5
5C3
330
8D
100
AcDbEntity
  8
1
  6
Continuous
 62
     4
100
AcDbLine
 10
792.90175978509
 20
583.8157980684907
 30
0.0
 11
781.1636187871925
 21
595.5539390663878
 31
0.0
1001
ACAD
1010
0.0
1020
0.0
1030
0.0
  0
LINE
  5
5C4
330
8D
100
AcDbEntity
  8
1
  6
Continuous
 62
     4
100
AcDbLine
 10
797.9879343284076
 20
589.3362252429713
 30
0.0
 11
786.2591470201708
 21
601.0650125512081
 31
0.0
1001
ACAD
1010
0.0
1020
0.0
1030
0.0
  0
LINE
  5
5C5
330
8D
100
AcDbEntity
  8
1
  6
Continuous
 62
     4
100
AcDbLine
 10
803.1820869952824
 20
594.7486742938947
 30
0.0
 11
791.4579962277182
 21
606.4727650614587
 31
0.0
1001
ACAD
1010
0.0
1020
0.0
1030
0.0
  0
LINE
  5
5C6
330
8D
100
AcDbEntity
  8
1
  6
Continuous
 62
     4
100
AcDbLine
 10
808.484082242659
 20
600.0532807643163
 30
0.0
 11
796.7600476320187
 21
611.7773153749565
 31
0.0
1001
ACAD
1010
0.0
1020
0.0
1030
0.0
  0
LINE
  5
5C7
330
8D
100
AcDbEntity
  8
1
  6
Continuous
 62
     4
100
AcDbLine
 10
813.8939184505691
 20
605.2500462742046
 30
0.0
 11
802.1652998133502
 21
616.9786649114232
 31
0.0
1001
ACAD
1010
0.0
1020
0.0
1030
0.0
  0
LINE
  5
5C8
330
8D
100
AcDbEntity
  8
1
  6
Continuous
 62
     4
100
AcDbLine
 10
819.4117279120662
 20
610.3388385305054
 30
0.0
 11
807.6738687020078
 21
622.0766977405643
 31
0.0
1001
ACAD
1010
0.0
1020
0.0
1030
0.0
  0
LINE
  5
5C9
330
8D
100
AcDbEntity
  8
1
  6
Continuous
 62
     4
100
AcDbLine
 10
825.0377776563123
 20
615.3193905040577
 30
0.0
 11
813.285988238675
 21
627.0711799216947
 31
0.0
1001
ACAD
1010
0.0
1020
0.0
1030
0.0
  0
LINE
  5
5CA
330
8D
100
AcDbEntity
  8
1
  6
Continuous
 62
     4
100
AcDbLine
 10
830.7724711167931
 20
620.1912987613747
 30
0.0
 11
819.0020117120536
 21
631.9617581661142
 31
0.0
1001
ACAD
1010
0.0
1020
0.0
1030
0.0
  0
LINE
  5
5CB
330
8D
100
AcDbEntity
  8
1
  6
Continuous
 62
     4
100
AcDbLine
 10
836.6163506691039
 20
624.9540209268627
 30
0.0
 11
824.8224137916562
 21
636.7479578043099
 31
0.0
1001
ACAD
1010
0.0
1020
0.0
1030
0.0
  0
LINE
  5
5CC
330
8D
100
AcDbEntity
  8
1
  6
Continuous
 62
     4
100
AcDbLine
 10
842.5701010758077
 20
629.6068722379572
 30
0.0
 11
830.7477932832522
 21
641.4291800305123
 31
0.0
1001
ACAD
1010
0.0
1020
0.0
1030
0.0
  0
LINE
  5
5CD
330
8D
100
AcDbEntity
  8
1
  6
Continuous
 62
     4
100
AcDbLine
 10
848.6345538900089
 20
634.1490211415541
 30
0.0
 11
836.7788766446594
 21
646.0046983869035
 31
0.0
1001
ACAD
1010
0.0
1020
0.0
1030
0.0
  0
LINE
  5
5CE
330
8D
100
AcDbEntity
  8
1
  6
Continuous
 62
     4
100
AcDbLine
 10
854.8106928847502
 20
638.5794838646103
 30
0.0
 11
842.9165223107531
 21
650.473654438608
 31
0.0
1001
ACAD
1010
0.0
1020
0.0
1030
0.0
  0
LINE
  5
5CF
330
8D
100
AcDbEntity
  8
1
  6
Continuous
 62
     4
100
AcDbLine
 10
861.0996605927546
 20
642.8971178744047
 30
0.0
 11
849.1617258889673
 21
654.8350525781922
 31
0.0
1001
ACAD
1010
0.0
1020
0.0
1030
0.0
  0
LINE
  5
5D0
330
8D
100
AcDbEntity
  8
1
  6
Continuous
 62
     4
100
AcDbLine
 10
867.5027660608096
 20
647.100614124148
 30
0.0
 11
855.5156263005631
 21
659.0877538843945
 31
0.0
1001
ACAD
1010
0.0
1020
0.0
1030
0.0
  0
LINE
  5
5D1
330
8D
100
AcDbEntity
  8
1
  6
Continuous
 62
     4
100
AcDbLine
 10
874.0214939459844
 20
651.1884879567713
 30
0.0
 11
861.9795129589572
 21
663.2304689437985
 31
0.0
1001
ACAD
1010
0.0
1020
0.0
1030
0.0
  0
LINE
  5
5D2
330
8D
100
AcDbEntity
  8
1
  6
Continuous
 62
     4
100
AcDbLine
 10
880.6575151076119
 20
655.1590685129423
 30
0.0
 11
868.5548340949287
 21
667.2617495256251
 31
0.0
1001
ACAD
1010
0.0
1020
0.0
1030
0.0
  0
LINE
  5
5D3
330
8D
100
AcDbEntity
  8
1
  6
Continuous
 62
     4
100
AcDbLine
 10
887.4126988806063
 20
659.0104864577457
 30
0.0
 11
875.2432063601954
 21
671.1799789781563
 31
0.0
1001
ACAD
1010
0.0
1020
0.0
1030
0.0
  0
LINE
  5
5D4
330
8D
100
AcDbEntity
  8
1
  6
Continuous
 62
     4
100
AcDbLine
 10
894.2891272534472
 20
662.740659802703
 30
0.0
 11
882.0464258664207
 21
674.9833611897295
 31
0.0
1001
ACAD
1010
0.0
1020
0.0
1030
0.0
  0
LINE
  5
5D5
330
8D
100
AcDbEntity
  8
1
  6
Continuous
 62
     4
100
AcDbLine
 10
901.2891112196133
 20
666.3472775543352
 30
0.0
 11
888.9664808471252
 21
678.6699079268235
 31
0.0
1001
ACAD
1010
0.0
1020
0.0
1030
0.0
  0
LINE
  5
5D6
330
8D
100
AcDbEntity
  8
1
  6
Continuous
 62
     4
100
AcDbLine
 10
908.415209626419
 20
669.8277808653275
 30
0.0
 11
896.0055661664586
 21
682.2374243252881
 31
0.0
1001
ACAD
1010
0.0
1020
0.0
1030
0.0
  0
LINE
  5
5D7
330
8D
100
AcDbEntity
  8
1
  6
Continuous
 62
     4
100
AcDbLine
 10
915.67025091271
 20
673.1793412968352
 30
0.0
 11
903.1660999428154
 21
685.6834922667291
 31
0.0
1001
ACAD
1010
0.0
1020
0.0
1030
0.0
  0
LINE
  5
5D8
330
8D
100
AcDbEntity
  8
1
  6
Continuous
 62
     4
100
AcDbLine
 10
923.0573582099983
 20
676.3988357173449
 30
0.0
 11
910.4507426088357
 21
689.0054513185075
 31
0.0
1001
ACAD
1010
0.0
1020
0.0
1030
0.0
  0
LINE
  5
5D9
330
8D
100
AcDbEntity
  8
1
  6
Continuous
 62
     4
100
AcDbLine
 10
930.5799783848826
 20
679.4828172602584
 30
0.0
 11
917.8624187948699
 21
692.2003768502711
 31
0.0
1001
ACAD
1010
0.0
1020
0.0
1030
0.0
  0
LINE
  5
5DA
330
8D
100
AcDbEntity
  8
1
  6
Continuous
 62
     4
100
AcDbLine
 10
938.2419157297064
 20
682.4274816332327
 30
0.0
 11
925.4043425038236
 21
695.2650548591162
 31
0.0
1001
ACAD
1010
0.0
1020
0.0
1030
0.0
  0
LINE
  5
5DB
330
8D
100
AcDbEntity
  8
1
  6
Continuous
 62
     4
100
AcDbLine
 10
946.0473711712063
 20
685.2286279095312
 30
0.0
 11
933.0800461455362
 21
698.1959529352017
 31
0.0
1001
ACAD
1010
0.0
1020
0.0
1030
0.0
  0
LINE
  5
5DC
330
8D
100
AcDbEntity
  8
1
  6
Continuous
 62
     4
100
AcDbLine
 10
954.0009880737352
 20
687.8816127248011
 30
0.0
 11
940.8934141242836
 21
700.989186674252
 31
0.0
1001
ACAD
1010
0.0
1020
0.0
1030
0.0
  0
LINE
  5
5DD
330
8D
100
AcDbEntity
  8
1
  6
Continuous
 62
     4
100
AcDbLine
 10
962.1079059787314
 20
690.3812965376025
 30
0.0
 11
948.8487218308355
 21
703.6404806854988
 31
0.0
1001
ACAD
1010
0.0
1020
0.0
1030
0.0
  0
LINE
  5
5DE
330
8D
100
AcDbEntity
  8
1
  6
Continuous
 62
     4
100
AcDbLine
 10
970.3738239648444
 20
692.7219802692877
 30
0.0
 11
956.950681090924
 21
706.1451231432081
 31
0.0
1001
ACAD
1010
0.0
1020
0.0
1030
0.0
  0
LINE
  5
5DF
330
8D
100
AcDbEntity
  8
1
  6
Continuous
 62
     4
100
AcDbLine
 10
978.8050757604672
 20
694.8973301914636
 30
0.0
 11
965.2044933784264
 21
708.4979125735042
 31
0.0
1001
ACAD
1010
0.0
1020
0.0
1030
0.0
  0
LINE
  5
5E0
330
8D
100
AcDbEntity
  8
1
  6
Continuous
 62
     4
100
AcDbLine
 10
987.408719330301
 20
696.9002883394279
 30
0.0
 11
973.6159124325784
 21
710.6930952371506
 31
0.0
1001
ACAD
1010
0.0
1020
0.0
1030
0.0
  0
LINE
  5
5E1
330
8D
100
AcDbEntity
  8
1
  6
Continuous
 62
     4
100
AcDbLine
 10
996.1926444438232
 20
698.7229649437038
 30
0.0
 11
982.191318349832
 21
712.7242910376951
 31
0.0
1001
ACAD
1010
0.0
1020
0.0
1030
0.0
  0
LINE
  5
5E2
330
8D
100
AcDbEntity
  8
1
  6
Continuous
 62
     4
100
AcDbLine
 10
1005.165702793905
 20
700.3565083114201
 30
0.0
 11
990.9378057884957
 21
714.5844053168294
 31
0.0
1001
ACAD
1010
0.0
1020
0.0
1030
0.0
  0
LINE
  5
5E3
330
8D
100
AcDbEntity
  8
1
  6
Continuous
 62
     4
100
AcDbLine
 10
1014.337866682193
 20
701.7909461409304
 30
0.0
 11
999.8632896790452
 21
716.2655231440782
 31
0.0
1001
ACAD
1010
0.0
1020
0.0
1030
0.0
  0
LINE
  5
5E4
330
8D
100
AcDbEntity
  8
1
  6
Continuous
 62
     4
100
AcDbLine
 10
1023.720424293701
 20
703.014990247221
 30
0.0
 11
1008.976632848482
 21
717.7587816924401
 31
0.0
1001
ACAD
1010
0.0
1020
0.0
1030
0.0
  0
LINE
  5
5E5
330
8D
100
AcDbEntity
  8
1
  6
Continuous
 62
     4
100
AcDbLine
 10
1033.32622240307
 20
704.0157938556492
 30
0.0
 11
1018.287801350368
 21
719.0542149083515
 31
0.0
1001
ACAD
1010
0.0
1020
0.0
1030
0.0
  0
LINE
  5
5E6
330
8D
100
AcDbEntity
  8
1
  6
Continuous
 62
     4
100
AcDbLine
 10
1043.169971385895
 20
704.7786465906232
 30
0.0
 11
1027.80805520227
 21
720.1405627742482
 31
0.0
1001
ACAD
1010
0.0
1020
0.0
1030
0.0
  0
LINE
  5
5E7
330
8D
100
AcDbEntity
  8
1
  6
Continuous
 62
     4
100
AcDbLine
 10
1053.268633276388
 20
705.2865864179283
 30
0.0
 11
1037.550184909039
 21
721.0050347852773
 31
0.0
1001
ACAD
1010
0.0
1020
0.0
1030
0.0
  0
LINE
  5
5E8
330
8D
100
AcDbEntity
  8
1
  6
Continuous
 62
     4
100
AcDbLine
 10
1063.641922329331
 20
705.5198990827832
 30
0.0
 11
1047.662482774977
 21
721.4993386371375
 31
0.0
1001
ACAD
1010
0.0
1020
0.0
1030
0.0
  0
LINE
  5
607
330
8D
100
AcDbEntity
  8
1
  6
Continuous
 62
     7
100
AcDbLine
 10
697.9499999999989
 20
336.6125
 30
0.0
 11
681.3688749037204
 21
346.1852958051275
 31
0.0
  0
LINE
  5
608
330
8D
100
AcDbEntity
  8
1
  6
Continuous
 62
     7
100
AcDbLine
 10
681.3688749037204
 20
346.1852958051275
 30
0.0
 11
682.3393990080432
 21
365.573505593793
 31
0.0
  0
LINE
  5
609
330
8D
100
AcDbEntity
  8
1
  6
Continuous
 62
     7
100
AcDbLine
 10
682.3393990080432
 20
365.573505593793
 30
0.0
 11
684.279456522893
 21
384.8466515145394
 31
0.0
  0
LINE
  5
60A
330
8D
100
AcDbEntity
  8
1
  6
Continuous
 62
     7
100
AcDbLine
 10
684.279456522893
 20
384.8466515145394
 30
0.0
 11
687.0585548065917
 21
403.2807566664371
 31
0.0
  0
LINE
  5
60B
330
8D
100
AcDbEntity
  8
1
  6
Continuous
 62
     7
100
AcDbLine
 10
687.0585548065917
 20
403.2807566664371
 30
0.0
 11
688.7352318076047
 21
412.2106813832222
 31
0.0
  0
LINE
  5
60C
330
8D
100
AcDbEntity
  8
1
  6
Continuous
 62
     7
100
AcDbLine
 10
688.7352318076047
 20
412.2106813832222
 30
0.0
 11
690.5911081382678
 21
420.9614067703572
 31
0.0
  0
LINE
  5
60D
330
8D
100
AcDbEntity
  8
1
  6
Continuous
 62
     7
100
AcDbLine
 10
690.5911081382678
 20
420.9614067703572
 30
0.0
 11
692.6182475184315
 21
429.5408691079917
 31
0.0
  0
LINE
  5
60E
330
8D
100
AcDbEntity
  8
1
  6
Continuous
 62
     7
100
AcDbLine
 10
692.6182475184315
 20
429.5408691079917
 30
0.0
 11
694.8095367517906
 21
437.9561815924307
 31
0.0
  0
LINE
  5
60F
330
8D
100
AcDbEntity
  8
1
  6
Continuous
 62
     7
100
AcDbLine
 10
694.8095367517906
 20
437.9561815924307
 30
0.0
 11
697.1585795416753
 21
446.2137405203446
 31
0.0
  0
LINE
  5
610
330
8D
100
AcDbEntity
  8
1
  6
Continuous
 62
     7
100
AcDbLine
 10
697.1585795416753
 20
446.2137405203446
 30
0.0
 11
699.6596079060533
 21
454.3193138737647
 31
0.0
  0
LINE
  5
611
330
8D
100
AcDbEntity
  8
1
  6
Continuous
 62
     7
100
AcDbLine
 10
699.6596079060533
 20
454.3193138737647
 30
0.0
 11
702.3074077776746
 21
462.2781157199416
 31
0.0
  0
LINE
  5
612
330
8D
100
AcDbEntity
  8
1
  6
Continuous
 62
     7
100
AcDbLine
 10
702.3074077776746
 20
462.2781157199416
 30
0.0
 11
705.0972561354073
 21
470.0948690800073
 31
0.0
  0
LINE
  5
613
330
8D
100
AcDbEntity
  8
1
  6
Continuous
 62
     7
100
AcDbLine
 10
705.0972561354073
 20
470.0948690800073
 30
0.0
 11
708.0248675841942
 21
477.7738593490185
 31
0.0
  0
LINE
  5
614
330
8D
100
AcDbEntity
  8
1
  6
Continuous
 62
     7
100
AcDbLine
 10
708.0248675841942
 20
477.7738593490185
 30
0.0
 11
711.0863487351609
 21
485.3189799158498
 31
0.0
  0
LINE
  5
615
330
8D
100
AcDbEntity
  8
1
  6
Continuous
 62
     7
100
AcDbLine
 10
711.0863487351609
 20
485.3189799158498
 30
0.0
 11
714.2781590705307
 21
492.7337712982787
 31
0.0
  0
LINE
  5
616
330
8D
100
AcDbEntity
  8
1
  6
Continuous
 62
     7
100
AcDbLine
 10
714.2781590705307
 20
492.7337712982787
 30
0.0
 11
717.5970772360111
 21
500.021454850596
 31
0.0
  0
LINE
  5
617
330
8D
100
AcDbEntity
  8
1
  6
Continuous
 62
     7
100
AcDbLine
 10
717.5970772360111
 20
500.021454850596
 30
0.0
 11
721.0401719049017
 21
507.1849618995037
 31
0.0
  0
LINE
  5
618
330
8D
100
AcDbEntity
  8
1
  6
Continuous
 62
     7
100
AcDbLine
 10
721.0401719049017
 20
507.1849618995037
 30
0.0
 11
724.6047765169457
 21
514.2269590052579
 31
0.0
  0
LINE
  5
619
330
8D
100
AcDbEntity
  8
1
  6
Continuous
 62
     7
100
AcDbLine
 10
724.6047765169457
 20
514.2269590052579
 30
0.0
 11
728.2884673210388
 21
521.1498699189631
 31
0.0
  0
LINE
  5
61A
330
8D
100
AcDbEntity
  8
1
  6
Continuous
 62
     7
100
AcDbLine
 10
728.2884673210388
 20
521.1498699189631
 30
0.0
 11
732.0890442517192
 21
527.9558947060807
 31
0.0
  0
LINE
  5
61B
330
8D
100
AcDbEntity
  8
1
  6
Continuous
 62
     7
100
AcDbLine
 10
732.0890442517192
 20
527.9558947060807
 30
0.0
 11
736.0045142505813
 21
534.647026425017
 31
0.0
  0
LINE
  5
61C
330
8D
100
AcDbEntity
  8
1
  6
Continuous
 62
     7
100
AcDbLine
 10
736.0045142505813
 20
534.647026425017
 30
0.0
 11
740.0330767096486
 21
541.2250656837478
 31
0.0
  0
LINE
  5
61D
330
8D
100
AcDbEntity
  8
1
  6
Continuous
 62
     7
100
AcDbLine
 10
740.0330767096486
 20
541.2250656837478
 30
0.0
 11
744.1731107675398
 21
547.6916333436552
 31
0.0
  0
LINE
  5
61E
330
8D
100
AcDbEntity
  8
1
  6
Continuous
 62
     7
100
AcDbLine
 10
744.1731107675398
 20
547.6916333436552
 30
0.0
 11
748.4231642335087
 21
554.0481815954843
 31
0.0
  0
LINE
  5
61F
330
8D
100
AcDbEntity
  8
1
  6
Continuous
 62
     7
100
AcDbLine
 10
697.9499999999989
 20
336.6125
 30
0.0
 11
697.8405420739219
 21
339.4657608101156
 31
0.0
  0
LINE
  5
620
330
8D
100
AcDbEntity
  8
1
  6
Continuous
 62
     7
100
AcDbLine
 10
697.8405420739219
 20
339.4657608101156
 30
0.0
 11
698.0669322388287
 21
349.8459723630074
 31
0.0
  0
LINE
  5
621
330
8D
100
AcDbEntity
  8
1
  6
Continuous
 62
     7
100
AcDbLine
 10
698.0669322388287
 20
349.8459723630074
 30
0.0
 11
698.5684662532005
 21
359.9510400664337
 31
0.0
  0
LINE
  5
622
330
8D
100
AcDbEntity
  8
1
  6
Continuous
 62
     7
100
AcDbLine
 10
698.5684662532005
 20
359.9510400664337
 30
0.0
 11
699.3253558093437
 21
369.8007522280883
 31
0.0
  0
LINE
  5
623
330
8D
100
AcDbEntity
  8
1
  6
Continuous
 62
     7
100
AcDbLine
 10
699.3253558093437
 20
369.8007522280883
 30
0.0
 11
700.3205786610537
 21
379.4121310941766
 31
0.0
  0
LINE
  5
624
330
8D
100
AcDbEntity
  8
1
  6
Continuous
 62
     7
100
AcDbLine
 10
700.3205786610537
 20
379.4121310941766
 30
0.0
 11
701.5393748729242
 21
388.7999366001045
 31
0.0
  0
LINE
  5
625
330
8D
100
AcDbEntity
  8
1
  6
Continuous
 62
     7
100
AcDbLine
 10
701.5393748729242
 20
388.7999366001045
 30
0.0
 11
702.9688564287575
 21
397.9770567620694
 31
0.0
  0
LINE
  5
626
330
8D
100
AcDbEntity
  8
1
  6
Continuous
 62
     7
100
AcDbLine
 10
702.9688564287575
 20
397.9770567620694
 30
0.0
 11
704.5977004825279
 21
406.9548144260973
 31
0.0
  0
LINE
  5
627
330
8D
100
AcDbEntity
  8
1
  6
Continuous
 62
     7
100
AcDbLine
 10
704.5977004825279
 20
406.9548144260973
 30
0.0
 11
706.4159053383137
 21
415.7432112881093
 31
0.0
  0
LINE
  5
628
330
8D
100
AcDbEntity
  8
1
  6
Continuous
 62
     7
100
AcDbLine
 10
706.4159053383137
 20
415.7432112881093
 30
0.0
 11
708.4145941685546
 21
424.3511241756668
 31
0.0
  0
LINE
  5
629
330
8D
100
AcDbEntity
  8
1
  6
Continuous
 62
     7
100
AcDbLine
 10
708.4145941685546
 20
424.3511241756668
 30
0.0
 11
710.5858555468252
 21
432.7864645151944
 31
0.0
  0
LINE
  5
62A
330
8D
100
AcDbEntity
  8
1
  6
Continuous
 62
     7
100
AcDbLine
 10
710.5858555468252
 20
432.7864645151944
 30
0.0
 11
712.9226127152832
 21
441.0563090645346
 31
0.0
  0
LINE
  5
62B
330
8D
100
AcDbEntity
  8
1
  6
Continuous
 62
     7
100
AcDbLine
 10
712.9226127152832
 20
441.0563090645346
 30
0.0
 11
715.4185155290107
 21
449.1670079686055
 31
0.0
  0
LINE
  5
62C
330
8D
100
AcDbEntity
  8
1
  6
Continuous
 62
     7
100
AcDbLine
 10
715.4185155290107
 20
449.1670079686055
 30
0.0
 11
718.0678504790596
 21
457.1242747363551
 31
0.0
  0
LINE
  5
62D
330
8D
100
AcDbEntity
  8
1
  6
Continuous
 62
     7
100
AcDbLine
 10
718.0678504790596
 20
457.1242747363551
 30
0.0
 11
720.8654652642642
 21
464.9332616689481
 31
0.0
  0
LINE
  5
62E
330
8D
100
AcDbEntity
  8
1
  6
Continuous
 62
     7
100
AcDbLine
 10
720.8654652642642
 20
464.9332616689481
 30
0.0
 11
723.8067051737458
 21
472.5986234772647
 31
0.0
  0
LINE
  5
62F
330
8D
100
AcDbEntity
  8
1
  6
Continuous
 62
     7
100
AcDbLine
 10
723.8067051737458
 20
472.5986234772647
 30
0.0
 11
726.8873591359136
 21
480.1245712328952
 31
0.0
  0
LINE
  5
630
330
8D
100
AcDbEntity
  8
1
  6
Continuous
 62
     7
100
AcDbLine
 10
726.8873591359136
 20
480.1245712328952
 30
0.0
 11
730.1036137401021
 21
487.5149183465049
 31
0.0
  0
LINE
  5
631
330
8D
100
AcDbEntity
  8
1
  6
Continuous
 62
     7
100
AcDbLine
 10
730.1036137401021
 20
487.5149183465049
 30
0.0
 11
733.452013881875
 21
494.7731199225306
 31
0.0
  0
LINE
  5
632
330
8D
100
AcDbEntity
  8
1
  6
Continuous
 62
     7
100
AcDbLine
 10
733.452013881875
 20
494.7731199225306
 30
0.0
 11
736.92942894974
 21
501.9023065724641
 31
0.0
  0
LINE
  5
633
330
8D
100
AcDbEntity
  8
1
  6
Continuous
 62
     7
100
AcDbLine
 10
736.92942894974
 20
501.9023065724641
 30
0.0
 11
740.5330236790946
 21
508.9053135609072
 31
0.0
  0
LINE
  5
634
330
8D
100
AcDbEntity
  8
1
  6
Continuous
 62
     7
100
AcDbLine
 10
740.5330236790946
 20
508.9053135609072
 30
0.0
 11
744.260232962929
 21
515.7847059948708
 31
0.0
  0
LINE
  5
635
330
8D
100
AcDbEntity
  8
1
  6
Continuous
 62
     7
100
AcDbLine
 10
744.260232962929
 20
515.7847059948708
 30
0.0
 11
748.1087400386552
 21
522.5428006369432
 31
0.0
  0
LINE
  5
636
330
8D
100
AcDbEntity
  8
1
  6
Continuous
 62
     7
100
AcDbLine
 10
748.1087400386552
 20
522.5428006369432
 30
0.0
 11
752.0764575742288
 21
529.1816848191676
 31
0.0
  0
LINE
  5
637
330
8D
100
AcDbEntity
  8
1
  6
Continuous
 62
     7
100
AcDbLine
 10
752.0764575742288
 20
529.1816848191676
 30
0.0
 11
756.1615112603098
 21
535.7032328508847
 31
0.0
  0
LINE
  5
638
330
8D
100
AcDbEntity
  8
1
  6
Continuous
 62
     7
100
AcDbLine
 10
756.1615112603098
 20
535.7032328508847
 30
0.0
 11
760.3622255830162
 21
542.1091202459766
 31
0.0
  0
LINE
  5
639
330
8D
100
AcDbEntity
  8
1
  6
Continuous
 62
     7
100
AcDbLine
 10
760.3622255830162
 20
542.1091202459766
 30
0.0
 11
764.6771115072835
 21
548.4008360395075
 31
0.0
  0
LINE
  5
63A
330
8D
100
AcDbEntity
  8
1
  6
Continuous
 62
     7
100
AcDbLine
 10
748.4231642335087
 20
554.0481815954843
 30
0.0
 11
752.7819439510713
 21
560.2960035957196
 31
0.0
  0
LINE
  5
63B
330
8D
100
AcDbEntity
  8
1
  6
Continuous
 62
     7
100
AcDbLine
 10
752.7819439510713
 20
560.2960035957196
 30
0.0
 11
757.2483074434867
 21
566.4362418211027
 31
0.0
  0
LINE
  5
63C
330
8D
100
AcDbEntity
  8
1
  6
Continuous
 62
     7
100
AcDbLine
 10
757.2483074434867
 20
566.4362418211027
 30
0.0
 11
761.8212557090312
 21
572.4698952733562
 31
0.0
  0
LINE
  5
63D
330
8D
100
AcDbEntity
  8
1
  6
Continuous
 62
     7
100
AcDbLine
 10
761.8212557090312
 20
572.4698952733562
 30
0.0
 11
766.4999270557629
 21
578.3978256444227
 31
0.0
  0
LINE
  5
63E
330
8D
100
AcDbEntity
  8
1
  6
Continuous
 62
     7
100
AcDbLine
 10
766.4999270557629
 20
578.3978256444227
 30
0.0
 11
771.2835918840643
 21
584.2207625339199
 31
0.0
  0
LINE
  5
63F
330
8D
100
AcDbEntity
  8
1
  6
Continuous
 62
     7
100
AcDbLine
 10
771.2835918840643
 20
584.2207625339199
 30
0.0
 11
776.1716483413281
 21
589.9393077944543
 31
0.0
  0
LINE
  5
640
330
8D
100
AcDbEntity
  8
1
  6
Continuous
 62
     7
100
AcDbLine
 10
776.1716483413281
 20
589.9393077944543
 30
0.0
 11
781.1636187871925
 21
595.5539390663878
 31
0.0
  0
LINE
  5
641
330
8D
100
AcDbEntity
  8
1
  6
Continuous
 62
     7
100
AcDbLine
 10
781.1636187871925
 20
595.5539390663878
 30
0.0
 11
786.2591470201707
 21
601.0650125512081
 31
0.0
  0
LINE
  5
642
330
8D
100
AcDbEntity
  8
1
  6
Continuous
 62
     7
100
AcDbLine
 10
786.2591470201707
 20
601.0650125512081
 30
0.0
 11
791.4579962277182
 21
606.4727650614587
 31
0.0
  0
LINE
  5
643
330
8D
100
AcDbEntity
  8
1
  6
Continuous
 62
     7
100
AcDbLine
 10
791.4579962277182
 20
606.4727650614587
 30
0.0
 11
796.7600476320187
 21
611.7773153749565
 31
0.0
  0
LINE
  5
644
330
8D
100
AcDbEntity
  8
1
  6
Continuous
 62
     7
100
AcDbLine
 10
796.7600476320187
 20
611.7773153749565
 30
0.0
 11
802.1652998133502
 21
616.9786649114232
 31
0.0
  0
LINE
  5
645
330
8D
100
AcDbEntity
  8
1
  6
Continuous
 62
     7
100
AcDbLine
 10
802.1652998133502
 20
616.9786649114232
 30
0.0
 11
807.6738687020078
 21
622.0766977405643
 31
0.0
  0
LINE
  5
646
330
8D
100
AcDbEntity
  8
1
  6
Continuous
 62
     7
100
AcDbLine
 10
807.6738687020078
 20
622.0766977405643
 30
0.0
 11
813.285988238675
 21
627.0711799216947
 31
0.0
  0
LINE
  5
647
330
8D
100
AcDbEntity
  8
1
  6
Continuous
 62
     7
100
AcDbLine
 10
813.285988238675
 20
627.0711799216947
 30
0.0
 11
819.0020117120536
 21
631.9617581661142
 31
0.0
  0
LINE
  5
648
330
8D
100
AcDbEntity
  8
1
  6
Continuous
 62
     7
100
AcDbLine
 10
819.0020117120536
 20
631.9617581661142
 30
0.0
 11
824.8224137916562
 21
636.7479578043099
 31
0.0
  0
LINE
  5
649
330
8D
100
AcDbEntity
  8
1
  6
Continuous
 62
     7
100
AcDbLine
 10
824.8224137916562
 20
636.7479578043099
 30
0.0
 11
830.7477932832521
 21
641.4291800305123
 31
0.0
  0
LINE
  5
64A
330
8D
100
AcDbEntity
  8
1
  6
Continuous
 62
     7
100
AcDbLine
 10
830.7477932832521
 20
641.4291800305123
 30
0.0
 11
836.7788766446594
 21
646.0046983869035
 31
0.0
  0
LINE
  5
64B
330
8D
100
AcDbEntity
  8
1
  6
Continuous
 62
     7
100
AcDbLine
 10
836.7788766446594
 20
646.0046983869035
 30
0.0
 11
842.916522310753
 21
650.473654438608
 31
0.0
  0
LINE
  5
64C
330
8D
100
AcDbEntity
  8
1
  6
Continuous
 62
     7
100
AcDbLine
 10
842.916522310753
 20
650.473654438608
 30
0.0
 11
849.1617258889673
 21
654.8350525781922
 31
0.0
  0
LINE
  5
64D
330
8D
100
AcDbEntity
  8
1
  6
Continuous
 62
     7
100
AcDbLine
 10
855.5156263005628
 20
659.0877538843945
 30
0.0
 11
861.9795129589572
 21
663.2304689437985
 31
0.0
  0
LINE
  5
64E
330
8D
100
AcDbEntity
  8
1
  6
Continuous
 62
     7
100
AcDbLine
 10
861.9795129589572
 20
663.2304689437985
 30
0.0
 11
868.5548340949283
 21
667.2617495256251
 31
0.0
  0
LINE
  5
64F
330
8D
100
AcDbEntity
  8
1
  6
Continuous
 62
     7
100
AcDbLine
 10
868.5548340949283
 20
667.2617495256251
 30
0.0
 11
875.2432063601954
 21
671.1799789781563
 31
0.0
  0
LINE
  5
650
330
8D
100
AcDbEntity
  8
1
  6
Continuous
 62
     7
100
AcDbLine
 10
875.2432063601954
 20
671.1799789781563
 30
0.0
 11
882.0464258664207
 21
674.9833611897295
 31
0.0
  0
LINE
  5
651
330
8D
100
AcDbEntity
  8
1
  6
Continuous
 62
     7
100
AcDbLine
 10
882.0464258664207
 20
674.9833611897295
 30
0.0
 11
888.9664808471248
 21
678.6699079268235
 31
0.0
  0
LINE
  5
652
330
8D
100
AcDbEntity
  8
1
  6
Continuous
 62
     7
100
AcDbLine
 10
888.9664808471248
 20
678.6699079268235
 30
0.0
 11
896.0055661664583
 21
682.2374243252881
 31
0.0
  0
LINE
  5
653
330
8D
100
AcDbEntity
  8
1
  6
Continuous
 62
     7
100
AcDbLine
 10
896.0055661664583
 20
682.2374243252881
 30
0.0
 11
903.1660999428154
 21
685.6834922667291
 31
0.0
  0
LINE
  5
654
330
8D
100
AcDbEntity
  8
1
  6
Continuous
 62
     7
100
AcDbLine
 10
910.4507426088353
 20
689.0054513185075
 30
0.0
 11
917.8624187948699
 21
692.2003768502711
 31
0.0
  0
LINE
  5
655
330
8D
100
AcDbEntity
  8
1
  6
Continuous
 62
     7
100
AcDbLine
 10
917.8624187948699
 20
692.2003768502711
 30
0.0
 11
925.4043425038236
 21
695.2650548591162
 31
0.0
  0
LINE
  5
656
330
8D
100
AcDbEntity
  8
1
  6
Continuous
 62
     7
100
AcDbLine
 10
925.4043425038236
 20
695.2650548591162
 30
0.0
 11
933.0800461455362
 21
698.1959529352017
 31
0.0
  0
LINE
  5
657
330
8D
100
AcDbEntity
  8
1
  6
Continuous
 62
     7
100
AcDbLine
 10
933.0800461455362
 20
698.1959529352017
 30
0.0
 11
940.8934141242836
 21
700.989186674252
 31
0.0
  0
LINE
  5
658
330
8D
100
AcDbEntity
  8
1
  6
Continuous
 62
     7
100
AcDbLine
 10
940.8934141242836
 20
700.989186674252
 30
0.0
 11
948.8487218308353
 21
703.6404806854988
 31
0.0
  0
LINE
  5
659
330
8D
100
AcDbEntity
  8
1
  6
Continuous
 62
     7
100
AcDbLine
 10
948.8487218308353
 20
703.6404806854988
 30
0.0
 11
956.950681090924
 21
706.1451231432081
 31
0.0
  0
LINE
  5
65A
330
8D
100
AcDbEntity
  8
1
  6
Continuous
 62
     7
100
AcDbLine
 10
956.950681090924
 20
706.1451231432081
 30
0.0
 11
965.2044933784264
 21
708.4979125735042
 31
0.0
  0
LINE
  5
65B
330
8D
100
AcDbEntity
  8
1
  6
Continuous
 62
     7
100
AcDbLine
 10
965.2044933784264
 20
708.4979125735042
 30
0.0
 11
973.6159124325784
 21
710.6930952371506
 31
0.0
  0
LINE
  5
65C
330
8D
100
AcDbEntity
  8
1
  6
Continuous
 62
     7
100
AcDbLine
 10
973.6159124325784
 20
710.6930952371506
 30
0.0
 11
982.191318349832
 21
712.7242910376951
 31
0.0
  0
LINE
  5
65D
330
8D
100
AcDbEntity
  8
1
  6
Continuous
 62
     7
100
AcDbLine
 10
982.191318349832
 20
712.7242910376951
 30
0.0
 11
990.9378057884957
 21
714.5844053168294
 31
0.0
  0
LINE
  5
65E
330
8D
100
AcDbEntity
  8
1
  6
Continuous
 62
     7
100
AcDbLine
 10
990.9378057884957
 20
714.5844053168294
 30
0.0
 11
999.8632896790452
 21
716.2655231440782
 31
0.0
  0
LINE
  5
65F
330
8D
100
AcDbEntity
  8
1
  6
Continuous
 62
     7
100
AcDbLine
 10
999.8632896790452
 20
716.2655231440782
 30
0.0
 11
1008.976632848481
 21
717.7587816924401
 31
0.0
  0
LINE
  5
660
330
8D
100
AcDbEntity
  8
1
  6
Continuous
 62
     7
100
AcDbLine
 10
1008.976632848481
 20
717.7587816924401
 30
0.0
 11
1018.287801350368
 21
719.0542149083515
 31
0.0
  0
LINE
  5
661
330
8D
100
AcDbEntity
  8
1
  6
Continuous
 62
     7
100
AcDbLine
 10
849.1617258889673
 20
654.8350525781922
 30
0.0
 11
855.5156263005628
 21
659.0877538843945
 31
0.0
  0
LINE
  5
662
330
8D
100
AcDbEntity
  8
1
  6
Continuous
 62
     7
100
AcDbLine
 10
903.0446514857919
 20
685.8049407237529
 30
0.0
 11
910.4507426088353
 21
689.0054513185075
 31
0.0
  0
LINE
  5
663
330
8D
100
AcDbEntity
  8
1
  6
Continuous
 62
     7
100
AcDbLine
 10
1027.80805520227
 20
720.1405627742482
 30
0.0
 11
1037.550184909039
 21
721.0050347852773
 31
0.0
  0
LINE
  5
668
330
8D
100
AcDbEntity
  8
1
  6
Continuous
 62
     7
100
AcDbLine
 10
996.1926444438232
 20
698.7229649437038
 30
0.0
 11
1005.165702793905
 21
700.3565083114201
 31
0.0
  0
LINE
  5
669
330
8D
100
AcDbEntity
  8
1
  6
Continuous
 62
     7
100
AcDbLine
 10
1005.165702793905
 20
700.3565083114201
 30
0.0
 11
1014.337866682193
 21
701.7909461409304
 31
0.0
  0
LINE
  5
66A
330
8D
100
AcDbEntity
  8
1
  6
Continuous
 62
     7
100
AcDbLine
 10
1014.337866682193
 20
701.7909461409304
 30
0.0
 11
1023.720424293701
 21
703.014990247221
 31
0.0
  0
LINE
  5
66B
330
8D
100
AcDbEntity
  8
1
  6
Continuous
 62
     7
100
AcDbLine
 10
1023.720424293701
 20
703.014990247221
 30
0.0
 11
1033.32622240307
 21
704.0157938556492
 31
0.0
  0
LINE
  5
66C
330
8D
100
AcDbEntity
  8
1
  6
Continuous
 62
     7
100
AcDbLine
 10
1033.32622240307
 20
704.0157938556492
 30
0.0
 11
1043.169971385895
 21
704.7786465906232
 31
0.0
  0
LINE
  5
66D
330
8D
100
AcDbEntity
  8
1
  6
Continuous
 62
     7
100
AcDbLine
 10
1043.169971385895
 20
704.7786465906232
 30
0.0
 11
1053.268633276388
 21
705.2865864179283
 31
0.0
  0
LINE
  5
66E
330
8D
100
AcDbEntity
  8
1
  6
Continuous
 62
     7
100
AcDbLine
 10
1053.268633276388
 20
705.2865864179283
 30
0.0
 11
1063.641922329331
 21
705.5198990827832
 31
0.0
  0
LINE
  5
671
330
8D
100
AcDbEntity
  8
1
  6
Continuous
 62
     7
100
AcDbLine
 10
1018.287801350368
 20
719.0542149083515
 30
0.0
 11
1027.80805520227
 21
720.1405627742482
 31
0.0
  0
LINE
  5
672
330
8D
100
AcDbEntity
  8
1
  6
Continuous
 62
     7
100
AcDbLine
 10
764.6771115072835
 20
548.4008360395075
 30
0.0
 11
769.1048558464959
 21
554.5796934180937
 31
0.0
  0
LINE
  5
673
330
8D
100
AcDbEntity
  8
1
  6
Continuous
 62
     7
100
AcDbLine
 10
769.1048558464959
 20
554.5796934180937
 30
0.0
 11
773.6443121319791
 21
560.6468388504083
 31
0.0
  0
LINE
  5
674
330
8D
100
AcDbEntity
  8
1
  6
Continuous
 62
     7
100
AcDbLine
 10
773.6443121319791
 20
560.6468388504083
 30
0.0
 11
778.2944928277217
 21
566.6032598724642
 31
0.0
  0
LINE
  5
675
330
8D
100
AcDbEntity
  8
1
  6
Continuous
 62
     7
100
AcDbLine
 10
778.2944928277217
 20
566.6032598724642
 30
0.0
 11
783.0545627625349
 21
572.4497916554494
 31
0.0
  0
LINE
  5
676
330
8D
100
AcDbEntity
  8
1
  6
Continuous
 62
     7
100
AcDbLine
 10
783.0545627625349
 20
572.4497916554494
 30
0.0
 11
787.9238336748345
 21
578.1871224609479
 31
0.0
  0
LINE
  5
677
330
8D
100
AcDbEntity
  8
1
  6
Continuous
 62
     7
100
AcDbLine
 10
787.9238336748345
 20
578.1871224609479
 30
0.0
 11
792.9017597850896
 21
583.8157980684907
 31
0.0
  0
LINE
  5
678
330
8D
100
AcDbEntity
  8
1
  6
Continuous
 62
     7
100
AcDbLine
 10
792.9017597850896
 20
583.8157980684907
 30
0.0
 11
797.9879343284074
 21
589.3362252429713
 31
0.0
  0
LINE
  5
679
330
8D
100
AcDbEntity
  8
1
  6
Continuous
 62
     7
100
AcDbLine
 10
797.9879343284074
 20
589.3362252429713
 30
0.0
 11
803.1820869952824
 21
594.7486742938947
 31
0.0
  0
LINE
  5
67A
330
8D
100
AcDbEntity
  8
1
  6
Continuous
 62
     7
100
AcDbLine
 10
803.1820869952824
 20
594.7486742938947
 30
0.0
 11
808.4840822426587
 21
600.0532807643163
 31
0.0
  0
LINE
  5
67B
330
8D
100
AcDbEntity
  8
1
  6
Continuous
 62
     7
100
AcDbLine
 10
808.4840822426587
 20
600.0532807643163
 30
0.0
 11
813.8939184505689
 21
605.2500462742046
 31
0.0
  0
LINE
  5
67C
330
8D
100
AcDbEntity
  8
1
  6
Continuous
 62
     7
100
AcDbLine
 10
813.8939184505689
 20
605.2500462742046
 30
0.0
 11
819.4117279120662
 21
610.3388385305054
 31
0.0
  0
LINE
  5
67D
330
8D
100
AcDbEntity
  8
1
  6
Continuous
 62
     7
100
AcDbLine
 10
819.4117279120662
 20
610.3388385305054
 30
0.0
 11
825.0377776563121
 21
615.3193905040577
 31
0.0
  0
LINE
  5
67E
330
8D
100
AcDbEntity
  8
1
  6
Continuous
 62
     7
100
AcDbLine
 10
825.0377776563121
 20
615.3193905040577
 30
0.0
 11
830.7724711167931
 21
620.1912987613747
 31
0.0
  0
LINE
  5
67F
330
8D
100
AcDbEntity
  8
1
  6
Continuous
 62
     7
100
AcDbLine
 10
830.7724711167931
 20
620.1912987613747
 30
0.0
 11
836.6163506691036
 21
624.9540209268627
 31
0.0
  0
LINE
  5
680
330
8D
100
AcDbEntity
  8
1
  6
Continuous
 62
     7
100
AcDbLine
 10
836.6163506691036
 20
624.9540209268627
 30
0.0
 11
842.5701010758075
 21
629.6068722379572
 31
0.0
  0
LINE
  5
681
330
8D
100
AcDbEntity
  8
1
  6
Continuous
 62
     7
100
AcDbLine
 10
842.5701010758075
 20
629.6068722379572
 30
0.0
 11
848.6345538900087
 21
634.1490211415541
 31
0.0
  0
LINE
  5
682
330
8D
100
AcDbEntity
  8
1
  6
Continuous
 62
     7
100
AcDbLine
 10
848.6345538900087
 20
634.1490211415541
 30
0.0
 11
854.8106928847502
 21
638.5794838646103
 31
0.0
  0
LINE
  5
683
330
8D
100
AcDbEntity
  8
1
  6
Continuous
 62
     7
100
AcDbLine
 10
854.8106928847502
 20
638.5794838646103
 30
0.0
 11
861.0996605927544
 21
642.8971178744047
 31
0.0
  0
LINE
  5
684
330
8D
100
AcDbEntity
  8
1
  6
Continuous
 62
     7
100
AcDbLine
 10
861.0996605927544
 20
642.8971178744047
 30
0.0
 11
867.5027660608096
 21
647.100614124148
 31
0.0
  0
LINE
  5
685
330
8D
100
AcDbEntity
  8
1
  6
Continuous
 62
     7
100
AcDbLine
 10
867.5027660608096
 20
647.100614124148
 30
0.0
 11
874.0214939459844
 21
651.1884879567713
 31
0.0
  0
LINE
  5
686
330
8D
100
AcDbEntity
  8
1
  6
Continuous
 62
     7
100
AcDbLine
 10
874.0214939459844
 20
651.1884879567713
 30
0.0
 11
880.6575151076117
 21
655.1590685129423
 31
0.0
  0
LINE
  5
687
330
8D
100
AcDbEntity
  8
1
  6
Continuous
 62
     7
100
AcDbLine
 10
880.6575151076117
 20
655.1590685129423
 30
0.0
 11
887.4126988806061
 21
659.0104864577457
 31
0.0
  0
LINE
  5
688
330
8D
100
AcDbEntity
  8
1
  6
Continuous
 62
     7
100
AcDbLine
 10
887.4126988806061
 20
659.0104864577457
 30
0.0
 11
894.2891272534472
 21
662.740659802703
 31
0.0
  0
LINE
  5
689
330
8D
100
AcDbEntity
  8
1
  6
Continuous
 62
     7
100
AcDbLine
 10
894.2891272534472
 20
662.740659802703
 30
0.0
 11
901.2891112196133
 21
666.3472775543352
 31
0.0
  0
LINE
  5
68A
330
8D
100
AcDbEntity
  8
1
  6
Continuous
 62
     7
100
AcDbLine
 10
901.2891112196133
 20
666.3472775543352
 30
0.0
 11
908.415209626419
 21
669.8277808653275
 31
0.0
  0
LINE
  5
68B
330
8D
100
AcDbEntity
  8
1
  6
Continuous
 62
     7
100
AcDbLine
 10
908.415209626419
 20
669.8277808653275
 30
0.0
 11
915.67025091271
 21
673.1793412968352
 31
0.0
  0
LINE
  5
68C
330
8D
100
AcDbEntity
  8
1
  6
Continuous
 62
     7
100
AcDbLine
 10
915.67025091271
 20
673.1793412968352
 30
0.0
 11
923.0573582099983
 21
676.3988357173449
 31
0.0
  0
LINE
  5
68D
330
8D
100
AcDbEntity
  8
1
  6
Continuous
 62
     7
100
AcDbLine
 10
923.0573582099983
 20
676.3988357173449
 30
0.0
 11
930.5799783848826
 21
679.4828172602584
 31
0.0
  0
LINE
  5
68E
330
8D
100
AcDbEntity
  8
1
  6
Continuous
 62
     7
100
AcDbLine
 10
930.5799783848826
 20
679.4828172602584
 30
0.0
 11
938.2419157297064
 21
682.4274816332327
 31
0.0
  0
LINE
  5
68F
330
8D
100
AcDbEntity
  8
1
  6
Continuous
 62
     7
100
AcDbLine
 10
938.2419157297064
 20
682.4274816332327
 30
0.0
 11
946.0473711712063
 21
685.2286279095312
 31
0.0
  0
LINE
  5
690
330
8D
100
AcDbEntity
  8
1
  6
Continuous
 62
     7
100
AcDbLine
 10
946.0473711712063
 20
685.2286279095312
 30
0.0
 11
954.0009880737352
 21
687.8816127248011
 31
0.0
  0
LINE
  5
691
330
8D
100
AcDbEntity
  8
1
  6
Continuous
 62
     7
100
AcDbLine
 10
970.3738239648444
 20
692.7219802692877
 30
0.0
 11
978.8050757604672
 21
694.8973301914636
 31
0.0
  0
LINE
  5
692
330
8D
100
AcDbEntity
  8
1
  6
Continuous
 62
     7
100
AcDbLine
 10
978.8050757604672
 20
694.8973301914636
 30
0.0
 11
987.408719330301
 21
696.9002883394279
 31
0.0
  0
LINE
  5
693
330
8D
100
AcDbEntity
  8
1
  6
Continuous
 62
     7
100
AcDbLine
 10
987.408719330301
 20
696.9002883394279
 30
0.0
 11
996.1926444438232
 21
698.7229649437038
 31
0.0
  0
LINE
  5
694
330
8D
100
AcDbEntity
  8
1
  6
Continuous
 62
     7
100
AcDbLine
 10
954.0009880737352
 20
687.8816127248011
 30
0.0
 11
962.1079059787312
 21
690.3812965376025
 31
0.0
  0
LINE
  5
695
330
8D
100
AcDbEntity
  8
1
  6
Continuous
 62
     7
100
AcDbLine
 10
962.1079059787312
 20
690.3812965376025
 30
0.0
 11
970.3738239648444
 21
692.7219802692877
 31
0.0
  0
LINE
  5
6FE
330
8D
100
AcDbEntity
  8
1
  6
Continuous
 62
     7
100
AcDbLine
 10
1066.699008323262
 20
705.5008231386169
 30
0.0
 11
1059.187039211708
 21
705.4554623416248
 31
0.0
  0
LINE
  5
6FF
330
8D
100
AcDbEntity
  8
1
  6
Continuous
 62
     7
100
AcDbLine
 10
1059.187039211708
 20
705.4554623416248
 30
0.0
 11
1048.190846798228
 21
705.0658716459431
 31
0.0
  0
LINE
  5
83C
330
8D
100
AcDbEntity
  8
1
  6
Continuous
 62
     7
100
AcDbLine
 10
1037.550184909039
 20
721.0050347852773
 30
0.0
 11
1057.193595644688
 21
721.9652333196787
 31
0.0
  0
LINE
  5
8A9
330
8D
100
AcDbEntity
  8
1
  6
Continuous
 62
     7
100
AcDbLine
 10
1056.668749999999
 20
593.4562499999997
 30
0.0
 11
1056.668749999998
 21
463.9646401940305
 31
0.0
  0
LINE
  5
8AA
330
8D
100
AcDbEntity
  8
1
  6
Continuous
 62
     7
100
AcDbLine
 10
1056.668749999998
 20
463.9646401940305
 30
0.0
 11
1051.715972285015
 21
463.8684439723335
 31
0.0
  0
LINE
  5
8AB
330
8D
100
AcDbEntity
  8
1
  6
Continuous
 62
     7
100
AcDbLine
 10
1051.715972285015
 20
463.8684439723335
 30
0.0
 11
1027.178443823939
 21
458.4902633837674
 31
0.0
  0
LINE
  5
8AC
330
8D
100
AcDbEntity
  8
1
  6
Continuous
 62
     7
100
AcDbLine
 10
1027.178443823939
 20
458.4902633837674
 30
0.0
 11
1004.161628074725
 21
448.4283886982004
 31
0.0
  0
LINE
  5
8AD
330
8D
100
AcDbEntity
  8
1
  6
Continuous
 62
     7
100
AcDbLine
 10
1004.161628074725
 20
448.4283886982004
 30
0.0
 11
983.5500483586367
 21
434.0694921170343
 31
0.0
  0
LINE
  5
8AE
330
8D
100
AcDbEntity
  8
1
  6
Continuous
 62
     7
100
AcDbLine
 10
983.5500483586367
 20
434.0694921170343
 30
0.0
 11
966.1357961250548
 21
415.9653779833215
 31
0.0
  0
LINE
  5
8AF
330
8D
100
AcDbEntity
  8
1
  6
Continuous
 62
     7
100
AcDbLine
 10
966.1357961250548
 20
415.9653779833215
 30
0.0
 11
952.5880913212912
 21
394.8117772503164
 31
0.0
  0
LINE
  5
8B0
330
8D
100
AcDbEntity
  8
1
  6
Continuous
 62
     7
100
AcDbLine
 10
952.5880913212912
 20
394.8117772503164
 30
0.0
 11
943.4275646453144
 21
371.4216109311123
 31
0.0
  0
LINE
  5
8B1
330
8D
100
AcDbEntity
  8
1
  6
Continuous
 62
     7
100
AcDbLine
 10
943.4275646453144
 20
371.4216109311123
 30
0.0
 11
939.0062499999997
 21
346.69375
 31
0.0
  0
LINE
  5
8B2
330
8D
100
AcDbEntity
  8
1
  6
Continuous
 62
     7
100
AcDbLine
 10
1066.749999999999
 20
593.6124999999995
 30
0.0
 11
1016.611787241854
 21
588.6743170636299
 31
0.0
  0
LINE
  5
8B3
330
8D
100
AcDbEntity
  8
1
  6
Continuous
 62
     7
100
AcDbLine
 10
1016.611787241854
 20
588.6743170636299
 30
0.0
 11
968.4003578821712
 21
574.0495398554006
 31
0.0
  0
LINE
  5
8B4
330
8D
100
AcDbEntity
  8
1
  6
Continuous
 62
     7
100
AcDbLine
 10
968.4003578821712
 20
574.0495398554006
 30
0.0
 11
923.9684501139615
 21
550.3001903617543
 31
0.0
  0
LINE
  5
8B5
330
8D
100
AcDbEntity
  8
1
  6
Continuous
 62
     7
100
AcDbLine
 10
923.9684501139615
 20
550.3001903617543
 30
0.0
 11
885.0235572350564
 21
518.3389427649431
 31
0.0
  0
LINE
  5
8B6
330
8D
100
AcDbEntity
  8
1
  6
Continuous
 62
     7
100
AcDbLine
 10
885.0235572350564
 20
518.3389427649431
 30
0.0
 11
853.0623096382448
 21
479.3940498860384
 31
0.0
  0
LINE
  5
8B7
330
8D
100
AcDbEntity
  8
1
  6
Continuous
 62
     7
100
AcDbLine
 10
853.0623096382448
 20
479.3940498860384
 30
0.0
 11
829.3129601445981
 21
434.9621421178288
 31
0.0
  0
LINE
  5
8B8
330
8D
100
AcDbEntity
  8
1
  6
Continuous
 62
     7
100
AcDbLine
 10
829.3129601445981
 20
434.9621421178288
 30
0.0
 11
814.6881829363683
 21
386.7507127581459
 31
0.0
  0
LINE
  5
8B9
330
8D
100
AcDbEntity
  8
1
  6
Continuous
 62
     7
100
AcDbLine
 10
814.6881829363683
 20
386.7507127581459
 30
0.0
 11
809.7499999999984
 21
336.612500000001
 31
0.0
  0
ENDSEC
  0
SECTION
  2
OBJECTS
  0
DICTIONARY
  5
7B
330
0
100
AcDbDictionary
281
     1
  3
ACAD_COLOR
350
190
  3
ACAD_GROUP
350
7C
  3
ACAD_LAYOUT
350
88
  3
ACAD_MATERIAL
350
163
  3
ACAD_MLEADERSTYLE
350
1B5
  3
ACAD_MLINESTYLE
350
85
  3
ACAD_PLOTSETTINGS
350
87
  3
ACAD_PLOTSTYLENAME
350
7D
  3
ACAD_SCALELIST
350
193
  3
ACAD_TABLESTYLE
350
191
  3
ACAD_VISUALSTYLE
350
17C
  3
ACDB_RECOMPOSE_DATA
350
8BC
  3
AcDbVariableDictionary
350
1DD
  3
DWGPROPS
350
8BD
  0
DICTIONARY
  5
1D5
330
7F
100
AcDbDictionary
280
     1
281
     1
  3
ADSK_XREC_LAYER_RECONCILED
360
1D6
  0
DICTIONARY
  5
1D7
330
98
100
AcDbDictionary
280
     1
281
     1
  3
ADSK_XREC_LAYER_RECONCILED
360
1D8
  0
DICTIONARY
  5
1D9
330
99
100
AcDbDictionary
280
     1
281
     1
  3
ADSK_XREC_LAYER_RECONCILED
360
1DA
  0
DICTIONARY
  5
1DB
330
9A
100
AcDbDictionary
280
     1
281
     1
  3
ADSK_XREC_LAYER_RECONCILED
360
1DC
  0
DICTIONARY
  5
15F
330
8D
100
AcDbDictionary
280
     1
281
     1
  3
ACAD_LAYOUTSELFREF
360
160
  3
ACAD_SORTENTS
360
1BD
  0
DICTIONARY
  5
15D
330
89
100
AcDbDictionary
280
     1
281
     1
  3
ACAD_LAYOUTSELFREF
360
15E
  0
DICTIONARY
  5
190
102
{ACAD_REACTORS
330
7B
102
}
330
7B
100
AcDbDictionary
281
     1
  0
DICTIONARY
  5
7C
102
{ACAD_REACTORS
330
7B
102
}
330
7B
100
AcDbDictionary
281
     1
  0
DICTIONARY
  5
88
102
{ACAD_REACTORS
330
7B
102
}
330
7B
100
AcDbDictionary
281
     1
  3
Layout1
350
1B8
  3
Model
350
1B7
  0
DICTIONARY
  5
163
102
{ACAD_REACTORS
330
7B
102
}
330
7B
100
AcDbDictionary
281
     1
  3
ByBlock
350
16C
  3
ByLayer
350
164
  3
Global
350
174
  0
DICTIONARY
  5
1B5
102
{ACAD_REACTORS
330
7B
102
}
330
7B
100
AcDbDictionary
281
     1
  3
Standard
350
1B6
  0
DICTIONARY
  5
85
102
{ACAD_REACTORS
330
7B
102
}
330
7B
100
AcDbDictionary
281
     1
  3
STANDARD
350
86
  0
DICTIONARY
  5
87
102
{ACAD_REACTORS
330
7B
102
}
330
7B
100
AcDbDictionary
281
     1
  0
ACDBDICTIONARYWDFLT
  5
7D
102
{ACAD_REACTORS
330
7B
102
}
330
7B
100
AcDbDictionary
281
     1
  3
Normal
350
7E
100
AcDbDictionaryWithDefault
340
7E
  0
DICTIONARY
  5
193
102
{ACAD_REACTORS
330
7B
102
}
330
7B
100
AcDbDictionary
281
     1
  3
A0
350
194
  3
A1
350
195
  3
A2
350
196
  3
A3
350
197
  3
A4
350
198
  3
A5
350
199
  3
A6
350
19A
  3
A7
350
19B
  3
A8
350
19C
  3
A9
350
19D
  3
B0
350
19E
  3
B1
350
19F
  3
B2
350
1A0
  3
B3
350
1A1
  3
B4
350
1A2
  3
B5
350
1A3
  3
B6
350
1A4
  3
B7
350
1A5
  3
B8
350
1A6
  3
B9
350
1A7
  3
C0
350
1A8
  3
C1
350
1A9
  3
C2
350
1AA
  3
C3
350
1AB
  3
C4
350
1AC
  3
C5
350
1AD
  3
C6
350
1AE
  3
C7
350
1AF
  3
C8
350
1B0
  3
C9
350
1B1
  3
D0
350
1B2
  3
D1
350
1B3
  3
D2
350
1B4
  0
DICTIONARY
  5
191
102
{ACAD_REACTORS
330
7B
102
}
330
7B
100
AcDbDictionary
281
     1
  3
Standard
350
192
  0
DICTIONARY
  5
17C
102
{ACAD_REACTORS
330
7B
102
}
330
7B
100
AcDbDictionary
281
     1
  3
2dWireframe
350
182
  3
3D Hidden
350
184
  3
3dWireframe
350
183
  3
Basic
350
181
  3
Brighten
350
188
  3
ColorChange
350
18C
  3
Conceptual
350
185
  3
Dim
350
187
  3
EdgeColorOff
350
18F
  3
Facepattern
350
18B
  3
Flat
350
17D
  3
FlatWithEdges
350
17E
  3
Gouraud
350
17F
  3
GouraudWithEdges
350
180
  3
JitterOff
350
18D
  3
Linepattern
350
18A
  3
OverhangOff
350
18E
  3
Realistic
350
186
  3
Thicken
350
189
  0
XRECORD
  5
8BC
102
{ACAD_REACTORS
330
7B
102
}
330
7B
100
AcDbXrecord
280
     1
 90
        1
330
192
  0
DICTIONARY
  5
1DD
102
{ACAD_REACTORS
330
7B
102
}
330
7B
100
AcDbDictionary
281
     1
  3
CANNOSCALE
350
1E0
  3
CMLEADERSTYLE
350
1DF
  3
CTABLESTYLE
350
1DE
  3
DIMASSOC
350
1E3
  3
INDEXCTL
350
1E2
  3
SORTENTS
350
1E1
  3
XCLIPFRAME
350
8BA
  0
XRECORD
  5
8BD
102
{ACAD_REACTORS
330
7B
102
}
330
7B
100
AcDbXrecord
280
     1
  1
DWGPROPS COOKIE
  2

  3

  4

  6

  7

  8
John
  9

300
=
301
=
302
=
303
=
304
=
305
=
306
=
307
=
308
=
309
=
 40
0.0162263773148148
 41
2453238.605775463
 42
2456695.718464641
  1

 90
        0
  0
XRECORD
  5
1D6
102
{ACAD_REACTORS
330
1D5
102
}
330
1D5
100
AcDbXrecord
280
     1
290
     1
  0
XRECORD
  5
1D8
102
{ACAD_REACTORS
330
1D7
102
}
330
1D7
100
AcDbXrecord
280
     1
290
     1
  0
XRECORD
  5
1DA
102
{ACAD_REACTORS
330
1D9
102
}
330
1D9
100
AcDbXrecord
280
     1
290
     1
  0
XRECORD
  5
1DC
102
{ACAD_REACTORS
330
1DB
102
}
330
1DB
100
AcDbXrecord
280
     1
290
     1
  0
XRECORD
  5
160
102
{ACAD_REACTORS
330
15F
102
}
330
15F
100
AcDbXrecord
280
     1
340
8D
  0
SORTENTSTABLE
  5
1BD
102
{ACAD_REACTORS
330
15F
102
}
330
15F
100
AcDbSortentsTable
330
8D
331
66C
  5
66C
331
625
  5
625
331
5DA
  5
5DA
331
65C
  5
65C
331
8B5
  5
8AC
331
61D
  5
61D
331
5D2
  5
5D2
331
668
  5
668
331
660
  5
660
331
8B9
  5
8B0
331
621
  5
621
331
6FF
  5
6FF
331
658
  5
658
331
8B1
  5
8B9
331
619
  5
619
331
5CE
  5
5CE
331
5C6
  5
5C6
331
DD
  5
257
331
654
  5
654
331
8AD
  5
8B5
331
615
  5
615
331
5CA
  5
5CA
331
693
  5
693
331
64C
  5
64C
331
60D
  5
60D
331
5C2
  5
5C2
331
D9
  5
253
331
650
  5
650
331
8A9
  5
8B1
331
611
  5
611
331
68F
  5
68F
331
648
  5
648
331
609
  5
609
331
5BE
  5
5BE
331
687
  5
687
331
5B6
  5
5B6
331
D5
  5
24F
331
68B
  5
68B
331
644
  5
644
331
5BA
  5
5BA
331
683
  5
683
331
63C
  5
63C
331
5B2
  5
5B2
331
D1
  5
24B
331
640
  5
640
331
67F
  5
67F
331
638
  5
638
331
5AE
  5
5AE
331
677
  5
677
331
5A6
  5
5A6
331
A1
  5
A1
331
A9
  5
AC
331
67B
  5
67B
331
634
  5
634
331
673
  5
673
331
62C
  5
62C
331
5E5
  5
5E5
331
5AA
  5
5AA
331
630
  5
630
331
5E1
  5
5E1
331
628
  5
628
331
5DD
  5
5DD
331
65F
  5
65F
331
5D5
  5
5D5
331
66B
  5
66B
331
663
  5
663
331
624
  5
624
331
5D9
  5
5D9
331
65B
  5
65B
331
8B4
  5
8AB
331
61C
  5
61C
331
5D1
  5
5D1
331
8B8
  5
8AF
331
620
  5
620
331
6FE
  5
6FE
331
657
  5
657
331
8B0
  5
8B8
331
618
  5
618
331
5CD
  5
5CD
331
64F
  5
64F
331
5C5
  5
5C5
331
DC
  5
256
331
653
  5
653
331
8AC
  5
8B4
331
614
  5
614
331
5C9
  5
5C9
331
E0
  5
25A
331
692
  5
692
331
64B
  5
64B
331
60C
  5
60C
331
5C1
  5
5C1
331
D8
  5
252
331
610
  5
610
331
68E
  5
68E
331
647
  5
647
331
608
  5
608
331
5BD
  5
5BD
331
686
  5
686
331
63F
  5
63F
331
5B5
  5
5B5
331
D4
  5
24E
331
68A
  5
68A
331
643
  5
643
331
5B9
  5
5B9
331
D0
  5
24A
331
682
  5
682
331
63B
  5
63B
331
5B1
  5
5B1
331
A4
  5
A4
331
AC
  5
248
331
67E
  5
67E
331
637
  5
637
331
5AD
  5
5AD
331
5E8
  5
5E8
331
676
  5
676
331
62F
  5
62F
331
5A5
  5
5A5
331
A0
  5
A0
331
A8
  5
A9
331
67A
  5
67A
331
633
  5
633
331
672
  5
672
331
62B
  5
62B
331
5E4
  5
5E4
331
5A9
  5
5A9
331
5E0
  5
5E0
331
66E
  5
66E
331
627
  5
627
331
5DC
  5
5DC
331
65E
  5
65E
331
8B7
  5
8AE
331
61F
  5
61F
331
5D4
  5
5D4
331
66A
  5
66A
331
662
  5
662
331
623
  5
623
331
5D8
  5
5D8
331
65A
  5
65A
331
8B3
  5
8AA
331
61B
  5
61B
331
5D0
  5
5D0
331
DF
  5
259
331
656
  5
656
331
8AF
  5
8B7
331
617
  5
617
331
5CC
  5
5CC
331
695
  5
695
331
64E
  5
64E
331
60F
  5
60F
331
5C4
  5
5C4
331
DB
  5
255
331
652
  5
652
331
8AB
  5
8B3
331
613
  5
613
331
5C8
  5
5C8
331
691
  5
691
331
64A
  5
64A
331
60B
  5
60B
331
5C0
  5
5C0
331
D7
  5
251
331
68D
  5
68D
331
646
  5
646
331
607
  5
607
331
5BC
  5
5BC
331
685
  5
685
331
63E
  5
63E
331
5B4
  5
5B4
331
D3
  5
24D
331
A7
  5
A7
331
689
  5
689
331
642
  5
642
331
5B8
  5
5B8
331
681
  5
681
331
63A
  5
63A
331
5B0
  5
5B0
331
A3
  5
A3
331
67D
  5
67D
331
636
  5
636
331
5E7
  5
5E7
331
5AC
  5
5AC
331
675
  5
675
331
62E
  5
62E
331
5A4
  5
5A4
331
679
  5
679
331
632
  5
632
331
5E3
  5
5E3
331
671
  5
671
331
62A
  5
62A
331
5DF
  5
5DF
331
5D7
  5
5D7
331
5A8
  5
5A8
331
66D
  5
66D
331
626
  5
626
331
5DB
  5
5DB
331
83C
  5
83C
331
65D
  5
65D
331
8B6
  5
8AD
331
61E
  5
61E
331
5D3
  5
5D3
331
9F
  5
9F
331
669
  5
669
331
661
  5
661
331
622
  5
622
331
659
  5
659
331
8B2
  5
8A9
331
61A
  5
61A
331
5CF
  5
5CF
331
5C7
  5
5C7
331
DE
  5
258
331
655
  5
655
331
8AE
  5
8B6
331
616
  5
616
331
5CB
  5
5CB
331
694
  5
694
331
64D
  5
64D
331
60E
  5
60E
331
5C3
  5
5C3
331
DA
  5
254
331
651
  5
651
331
8AA
  5
8B2
331
612
  5
612
331
690
  5
690
331
649
  5
649
331
60A
  5
60A
331
5BF
  5
5BF
331
5B7
  5
5B7
331
D6
  5
250
331
68C
  5
68C
331
645
  5
645
331
5BB
  5
5BB
331
684
  5
684
331
63D
  5
63D
331
5B3
  5
5B3
331
A6
  5
A6
331
D2
  5
24C
331
688
  5
688
331
641
  5
641
331
680
  5
680
331
639
  5
639
331
5AF
  5
5AF
331
5A7
  5
5A7
331
A2
  5
A2
331
67C
  5
67C
331
635
  5
635
331
5E6
  5
5E6
331
5AB
  5
5AB
331
674
  5
674
331
62D
  5
62D
331
5A3
  5
5A3
331
678
  5
678
331
631
  5
631
331
5E2
  5
5E2
331
629
  5
629
331
5DE
  5
5DE
331
5D6
  5
5D6
  0
XRECORD
  5
15E
102
{ACAD_REACTORS
330
15D
102
}
330
15D
100
AcDbXrecord
280
     1
340
89
  0
LAYOUT
  5
1B8
102
{ACAD_XDICTIONARY
360
8E7
102
}
102
{ACAD_REACTORS
330
88
102
}
330
88
100
AcDbPlotSettings
  1

  2
Lexmark 3600-4600 Series
  4

  6

 40
0.0
 41
0.0
 42
0.0
 43
0.0
 44
0.0
 45
0.0
 46
0.0
 47
0.0
 48
0.0
 49
0.0
140
0.0
141
0.0
142
1.0
143
1.0
 70
   688
 72
     0
 73
     0
 74
     5
  7

 75
    16
147
1.0
148
0.0
149
0.0
100
AcDbLayout
  1
Layout1
 70
     0
 71
     1
 10
0.0
 20
0.0
 11
12.0
 21
9.0
 12
0.0
 22
0.0
 32
0.0
 14
-1.000000000000000E+20
 24
-1.000000000000000E+20
 34
-1.000000000000000E+20
 15
-1.000000000000000E+20
 25
-1.000000000000000E+20
 35
-1.000000000000000E+20
146
0.0
 13
0.0
 23
0.0
 33
0.0
 16
1.0
 26
0.0
 36
0.0
 17
0.0
 27
1.0
 37
0.0
 76
     0
330
89
  0
LAYOUT
  5
1B7
102
{ACAD_XDICTIONARY
360
8E5
102
}
102
{ACAD_REACTORS
330
88
102
}
330
88
100
AcDbPlotSettings
  1

  2
Lexmark 3600-4600 Series
  4

  6

 40
0.0
 41
0.0
 42
0.0
 43
0.0
 44
0.0
 45
0.0
 46
0.0
 47
0.0
 48
0.0
 49
0.0
140
0.0
141
0.0
142
1.0
143
1.0
 70
  1712
 72
     0
 73
     0
 74
     0
  7

 75
     0
147
1.0
148
0.0
149
0.0
100
AcDbLayout
  1
Model
 70
     1
 71
     0
 10
0.0
 20
0.0
 11
12.0
 21
9.0
 12
0.0
 22
0.0
 32
0.0
 14
0.0
 24
0.0
 34
0.0
 15
0.0
 25
0.0
 35
0.0
146
0.0
 13
0.0
 23
0.0
 33
0.0
 16
1.0
 26
0.0
 36
0.0
 17
0.0
 27
1.0
 37
0.0
 76
     0
330
8D
331
13C
  0
MATERIAL
  5
16C
102
{ACAD_XDICTIONARY
360
16D
102
}
102
{ACAD_REACTORS
330
163
102
}
330
163
100
AcDbMaterial
  1
ByBlock
 72
     0
 43
0.0208333333333333
 43
0.0
 43
0.0
 43
0.0
 43
0.0
 43
0.0208333333333333
 43
0.0
 43
0.0
 43
0.0
 43
0.0
 43
1.0
 43
0.0
 43
0.0
 43
0.0
 43
0.0
 43
1.0
 77
     0
 47
0.0208333333333333
 47
0.0
 47
0.0
 47
0.0
 47
0.0
 47
0.0208333333333333
 47
0.0
 47
0.0
 47
0.0
 47
0.0
 47
1.0
 47
0.0
 47
0.0
 47
0.0
 47
0.0
 47
1.0
171
     0
 49
0.0208333333333333
 49
0.0
 49
0.0
 49
0.0
 49
0.0
 49
0.0208333333333333
 49
0.0
 49
0.0
 49
0.0
 49
0.0
 49
1.0
 49
0.0
 49
0.0
 49
0.0
 49
0.0
 49
1.0
175
     0
142
0.0208333333333333
142
0.0
142
0.0
142
0.0
142
0.0
142
0.0208333333333333
142
0.0
142
0.0
142
0.0
142
0.0
142
1.0
142
0.0
142
0.0
142
0.0
142
0.0
142
1.0
179
     0
144
0.0208333333333333
144
0.0
144
0.0
144
0.0
144
0.0
144
0.0208333333333333
144
0.0
144
0.0
144
0.0
144
0.0
144
1.0
144
0.0
144
0.0
144
0.0
144
0.0
144
1.0
147
0.0208333333333333
147
0.0
147
0.0
147
0.0
147
0.0
147
0.0208333333333333
147
0.0
147
0.0
147
0.0
147
0.0
147
1.0
147
0.0
147
0.0
147
0.0
147
0.0
147
1.0
  0
MATERIAL
  5
164
102
{ACAD_XDICTIONARY
360
165
102
}
102
{ACAD_REACTORS
330
163
102
}
330
163
100
AcDbMaterial
  1
ByLayer
 72
     0
 43
0.0208333333333333
 43
0.0
 43
0.0
 43
0.0
 43
0.0
 43
0.0208333333333333
 43
0.0
 43
0.0
 43
0.0
 43
0.0
 43
1.0
 43
0.0
 43
0.0
 43
0.0
 43
0.0
 43
1.0
 77
     0
 47
0.0208333333333333
 47
0.0
 47
0.0
 47
0.0
 47
0.0
 47
0.0208333333333333
 47
0.0
 47
0.0
 47
0.0
 47
0.0
 47
1.0
 47
0.0
 47
0.0
 47
0.0
 47
0.0
 47
1.0
171
     0
 49
0.0208333333333333
 49
0.0
 49
0.0
 49
0.0
 49
0.0
 49
0.0208333333333333
 49
0.0
 49
0.0
 49
0.0
 49
0.0
 49
1.0
 49
0.0
 49
0.0
 49
0.0
 49
0.0
 49
1.0
175
     0
142
0.0208333333333333
142
0.0
142
0.0
142
0.0
142
0.0
142
0.0208333333333333
142
0.0
142
0.0
142
0.0
142
0.0
142
1.0
142
0.0
142
0.0
142
0.0
142
0.0
142
1.0
179
     0
144
0.0208333333333333
144
0.0
144
0.0
144
0.0
144
0.0
144
0.0208333333333333
144
0.0
144
0.0
144
0.0
144
0.0
144
1.0
144
0.0
144
0.0
144
0.0
144
0.0
144
1.0
147
0.0208333333333333
147
0.0
147
0.0
147
0.0
147
0.0
147
0.0208333333333333
147
0.0
147
0.0
147
0.0
147
0.0
147
1.0
147
0.0
147
0.0
147
0.0
147
0.0
147
1.0
  0
MATERIAL
  5
174
102
{ACAD_XDICTIONARY
360
175
102
}
102
{ACAD_REACTORS
330
163
102
}
330
163
100
AcDbMaterial
  1
Global
 72
     0
 43
0.0208333333333333
 43
0.0
 43
0.0
 43
0.0
 43
0.0
 43
0.0208333333333333
 43
0.0
 43
0.0
 43
0.0
 43
0.0
 43
1.0
 43
0.0
 43
0.0
 43
0.0
 43
0.0
 43
1.0
 77
     0
 47
0.0208333333333333
 47
0.0
 47
0.0
 47
0.0
 47
0.0
 47
0.0208333333333333
 47
0.0
 47
0.0
 47
0.0
 47
0.0
 47
1.0
 47
0.0
 47
0.0
 47
0.0
 47
0.0
 47
1.0
171
     0
 49
0.0208333333333333
 49
0.0
 49
0.0
 49
0.0
 49
0.0
 49
0.0208333333333333
 49
0.0
 49
0.0
 49
0.0
 49
0.0
 49
1.0
 49
0.0
 49
0.0
 49
0.0
 49
0.0
 49
1.0
175
     0
142
0.0208333333333333
142
0.0
142
0.0
142
0.0
142
0.0
142
0.0208333333333333
142
0.0
142
0.0
142
0.0
142
0.0
142
1.0
142
0.0
142
0.0
142
0.0
142
0.0
142
1.0
179
     0
144
0.0208333333333333
144
0.0
144
0.0
144
0.0
144
0.0
144
0.0208333333333333
144
0.0
144
0.0
144
0.0
144
0.0
144
1.0
144
0.0
144
0.0
144
0.0
144
0.0
144
1.0
147
0.0208333333333333
147
0.0
147
0.0
147
0.0
147
0.0
147
0.0208333333333333
147
0.0
147
0.0
147
0.0
147
0.0
147
1.0
147
0.0
147
0.0
147
0.0
147
0.0
147
1.0
  0
MLEADERSTYLE
  5
1B6
102
{ACAD_REACTORS
330
1B5
102
}
330
1B5
100
AcDbMLeaderStyle
170
     2
171
     1
172
     0
 90
        2
 40
0.0
 41
0.0
173
     1
 91
-1056964608
340
82
 92
       -2
290
     1
 42
0.09
291
     1
 43
0.36
  3
Standard
 44
0.18
300

342
80
174
     1
178
     6
175
     1
176
     0
 93
-1056964608
 45
0.18
292
     0
297
     0
 46
0.18
 94
-1056964608
 47
1.0
 49
1.0
140
1.0
293
     1
141
0.0
294
     1
177
     0
142
1.0
295
     0
296
     0
143
0.125
1001
ACAD_MLEADERVER
1070
     2
  0
MLINESTYLE
  5
86
102
{ACAD_REACTORS
330
85
102
}
330
85
100
AcDbMlineStyle
  2
STANDARD
 70
     0
  3

 62
   256
 51
90.0
 52
90.0
 71
     2
 49
0.5
 62
   256
  6
BYLAYER
 49
-0.5
 62
   256
  6
BYLAYER
  0
ACDBPLACEHOLDER
  5
7E
102
{ACAD_REACTORS
330
7D
102
}
330
7D
  0
SCALE
  5
194
102
{ACAD_REACTORS
330
193
102
}
330
193
100
AcDbScale
 70
     0
300
1:1
140
1.0
141
1.0
290
     1
  0
SCALE
  5
195
102
{ACAD_REACTORS
330
193
102
}
330
193
100
AcDbScale
 70
     0
300
1:2
140
1.0
141
2.0
290
     0
  0
SCALE
  5
196
102
{ACAD_REACTORS
330
193
102
}
330
193
100
AcDbScale
 70
     0
300
1:4
140
1.0
141
4.0
290
     0
  0
SCALE
  5
197
102
{ACAD_REACTORS
330
193
102
}
330
193
100
AcDbScale
 70
     0
300
1:5
140
1.0
141
5.0
290
     0
  0
SCALE
  5
198
102
{ACAD_REACTORS
330
193
102
}
330
193
100
AcDbScale
 70
     0
300
1:8
140
1.0
141
8.0
290
     0
  0
SCALE
  5
199
102
{ACAD_REACTORS
330
193
102
}
330
193
100
AcDbScale
 70
     0
300
1:10
140
1.0
141
10.0
290
     0
  0
SCALE
  5
19A
102
{ACAD_REACTORS
330
193
102
}
330
193
100
AcDbScale
 70
     0
300
1:16
140
1.0
141
16.0
290
     0
  0
SCALE
  5
19B
102
{ACAD_REACTORS
330
193
102
}
330
193
100
AcDbScale
 70
     0
300
1:20
140
1.0
141
20.0
290
     0
  0
SCALE
  5
19C
102
{ACAD_REACTORS
330
193
102
}
330
193
100
AcDbScale
 70
     0
300
1:30
140
1.0
141
30.0
290
     0
  0
SCALE
  5
19D
102
{ACAD_REACTORS
330
193
102
}
330
193
100
AcDbScale
 70
     0
300
1:40
140
1.0
141
40.0
290
     0
  0
SCALE
  5
19E
102
{ACAD_REACTORS
330
193
102
}
330
193
100
AcDbScale
 70
     0
300
1:50
140
1.0
141
50.0
290
     0
  0
SCALE
  5
19F
102
{ACAD_REACTORS
330
193
102
}
330
193
100
AcDbScale
 70
     0
300
1:100
140
1.0
141
100.0
290
     0
  0
SCALE
  5
1A0
102
{ACAD_REACTORS
330
193
102
}
330
193
100
AcDbScale
 70
     0
300
2:1
140
2.0
141
1.0
290
     0
  0
SCALE
  5
1A1
102
{ACAD_REACTORS
330
193
102
}
330
193
100
AcDbScale
 70
     0
300
4:1
140
4.0
141
1.0
290
     0
  0
SCALE
  5
1A2
102
{ACAD_REACTORS
330
193
102
}
330
193
100
AcDbScale
 70
     0
300
8:1
140
8.0
141
1.0
290
     0
  0
SCALE
  5
1A3
102
{ACAD_REACTORS
330
193
102
}
330
193
100
AcDbScale
 70
     0
300
10:1
140
10.0
141
1.0
290
     0
  0
SCALE
  5
1A4
102
{ACAD_REACTORS
330
193
102
}
330
193
100
AcDbScale
 70
     0
300
100:1
140
100.0
141
1.0
290
     0
  0
SCALE
  5
1A5
102
{ACAD_REACTORS
330
193
102
}
330
193
100
AcDbScale
 70
     0
300
1/128" = 1'-0"
140
0.0078125
141
12.0
290
     0
  0
SCALE
  5
1A6
102
{ACAD_REACTORS
330
193
102
}
330
193
100
AcDbScale
 70
     0
300
1/64" = 1'-0"
140
0.015625
141
12.0
290
     0
  0
SCALE
  5
1A7
102
{ACAD_REACTORS
330
193
102
}
330
193
100
AcDbScale
 70
     0
300
1/32" = 1'-0"
140
0.03125
141
12.0
290
     0
  0
SCALE
  5
1A8
102
{ACAD_REACTORS
330
193
102
}
330
193
100
AcDbScale
 70
     0
300
1/16" = 1'-0"
140
0.0625
141
12.0
290
     0
  0
SCALE
  5
1A9
102
{ACAD_REACTORS
330
193
102
}
330
193
100
AcDbScale
 70
     0
300
3/32" = 1'-0"
140
0.09375
141
12.0
290
     0
  0
SCALE
  5
1AA
102
{ACAD_REACTORS
330
193
102
}
330
193
100
AcDbScale
 70
     0
300
1/8" = 1'-0"
140
0.125
141
12.0
290
     0
  0
SCALE
  5
1AB
102
{ACAD_REACTORS
330
193
102
}
330
193
100
AcDbScale
 70
     0
300
3/16" = 1'-0"
140
0.1875
141
12.0
290
     0
  0
SCALE
  5
1AC
102
{ACAD_REACTORS
330
193
102
}
330
193
100
AcDbScale
 70
     0
300
1/4" = 1'-0"
140
0.25
141
12.0
290
     0
  0
SCALE
  5
1AD
102
{ACAD_REACTORS
330
193
102
}
330
193
100
AcDbScale
 70
     0
300
3/8" = 1'-0"
140
0.375
141
12.0
290
     0
  0
SCALE
  5
1AE
102
{ACAD_REACTORS
330
193
102
}
330
193
100
AcDbScale
 70
     0
300
1/2" = 1'-0"
140
0.5
141
12.0
290
     0
  0
SCALE
  5
1AF
102
{ACAD_REACTORS
330
193
102
}
330
193
100
AcDbScale
 70
     0
300
3/4" = 1'-0"
140
0.75
141
12.0
290
     0
  0
SCALE
  5
1B0
102
{ACAD_REACTORS
330
193
102
}
330
193
100
AcDbScale
 70
     0
300
1" = 1'-0"
140
1.0
141
12.0
290
     0
  0
SCALE
  5
1B1
102
{ACAD_REACTORS
330
193
102
}
330
193
100
AcDbScale
 70
     0
300
1-1/2" = 1'-0"
140
1.5
141
12.0
290
     0
  0
SCALE
  5
1B2
102
{ACAD_REACTORS
330
193
102
}
330
193
100
AcDbScale
 70
     0
300
3" = 1'-0"
140
3.0
141
12.0
290
     0
  0
SCALE
  5
1B3
102
{ACAD_REACTORS
330
193
102
}
330
193
100
AcDbScale
 70
     0
300
6" = 1'-0"
140
6.0
141
12.0
290
     0
  0
SCALE
  5
1B4
102
{ACAD_REACTORS
330
193
102
}
330
193
100
AcDbScale
 70
     0
300
1'-0" = 1'-0"
140
12.0
141
12.0
290
     0
  0
TABLESTYLE
  5
192
102
{ACAD_XDICTIONARY
360
25F
102
}
102
{ACAD_REACTORS
330
191
102
}
330
191
100
AcDbTableStyle
  3
Standard
 70
     0
 71
     0
 40
0.06
 41
0.06
280
     0
281
     0
  7
STANDARD
140
0.18
170
     2
 62
     0
 63
     7
283
     0
274
    -2
284
     1
 64
     0
275
    -2
285
     1
 65
     0
276
    -2
286
     1
 66
     0
277
    -2
287
     1
 67
     0
278
    -2
288
     1
 68
     0
279
    -2
289
     1
 69
     0
  7
STANDARD
140
0.25
170
     5
 62
     0
 63
     7
283
     0
274
    -2
284
     1
 64
     0
275
    -2
285
     1
 65
     0
276
    -2
286
     1
 66
     0
277
    -2
287
     1
 67
     0
278
    -2
288
     1
 68
     0
279
    -2
289
     1
 69
     0
  7
STANDARD
140
0.18
170
     5
 62
     0
 63
     7
283
     0
274
    -2
284
     1
 64
     0
275
    -2
285
     1
 65
     0
276
    -2
286
     1
 66
     0
277
    -2
287
     1
 67
     0
278
    -2
288
     1
 68
     0
279
    -2
289
     1
 69
     0
  0
VISUALSTYLE
  5
182
102
{ACAD_XDICTIONARY
360
8C8
102
}
102
{ACAD_REACTORS
330
17C
102
}
330
17C
100
AcDbVisualStyle
  2

 70
     4
 71
     0
 72
     2
 73
     0
 90
        0
 40
-0.6
 41
-30.0
 62
     5
 63
     7
 74
     1
 91
        4
 64
     7
 65
   257
 75
     1
175
     1
 42
1.0
 92
        0
 66
   257
 43
1.0
 76
     1
 77
     6
 78
     2
 67
     7
 79
     5
170
     0
171
     0
290
     0
174
     0
 93
        1
 44
0.0
173
     0
291
     0
 45
0.0
1001
ACAD
1000
AcDbSavedByObjectVersion
1070
     0
  0
VISUALSTYLE
  5
184
102
{ACAD_XDICTIONARY
360
8CC
102
}
102
{ACAD_REACTORS
330
17C
102
}
330
17C
100
AcDbVisualStyle
  2

 70
     6
 71
     1
 72
     2
 73
     2
 90
        0
 40
-0.6
 41
-30.0
 62
     5
 63
     7
 74
     2
 91
        2
 64
     7
 65
   257
 75
     2
175
     1
 42
179.0
 92
        0
 66
   257
 43
1.0
 76
     1
 77
     6
 78
     2
 67
     7
 79
     3
170
     0
171
     0
290
     0
174
     0
 93
        1
 44
0.0
173
     0
291
     0
 45
0.0
1001
ACAD
1000
AcDbSavedByObjectVersion
1070
     0
  0
VISUALSTYLE
  5
183
102
{ACAD_XDICTIONARY
360
8CA
102
}
102
{ACAD_REACTORS
330
17C
102
}
330
17C
100
AcDbVisualStyle
  2

 70
     5
 71
     0
 72
     2
 73
     0
 90
        0
 40
-0.6
 41
-30.0
 62
     5
 63
     7
 74
     1
 91
        4
 64
     7
 65
   257
 75
     1
175
     1
 42
1.0
 92
        0
 66
   257
 43
1.0
 76
     1
 77
     6
 78
     2
 67
     7
 79
     5
170
     0
171
     0
290
     0
174
     0
 93
        1
 44
0.0
173
     0
291
     0
 45
0.0
1001
ACAD
1000
AcDbSavedByObjectVersion
1070
     0
  0
VISUALSTYLE
  5
181
102
{ACAD_XDICTIONARY
360
8C6
102
}
102
{ACAD_REACTORS
330
17C
102
}
330
17C
100
AcDbVisualStyle
  2

 70
     7
 71
     1
 72
     0
 73
     1
 90
        0
 40
-0.6
 41
-30.0
 62
     5
 63
     7
 74
     0
 91
        4
 64
     7
 65
   257
 75
     1
175
     1
 42
1.0
 92
        8
 66
     7
 43
1.0
 76
     1
 77
     6
 78
     2
 67
     7
 79
     5
170
     0
171
     0
290
     0
174
     0
 93
        1
 44
0.0
173
     0
291
     1
 45
0.0
1001
ACAD
1000
AcDbSavedByObjectVersion
1070
     0
  0
VISUALSTYLE
  5
188
102
{ACAD_XDICTIONARY
360
8D4
102
}
102
{ACAD_REACTORS
330
17C
102
}
330
17C
100
AcDbVisualStyle
  2

 70
    12
 71
     2
 72
     2
 73
     0
 90
        0
 40
-0.6
 41
-30.0
 62
     5
 63
     7
 74
     1
 91
        4
 64
     7
 65
   257
 75
     1
175
     1
 42
1.0
 92
        8
 66
     7
 43
1.0
 76
     1
 77
     6
 78
     2
 67
     7
 79
     5
170
     0
171
     0
290
     0
174
     0
 93
        1
 44
50.0
173
     0
291
     1
 45
0.0
1001
ACAD
1000
AcDbSavedByObjectVersion
1070
     0
  0
VISUALSTYLE
  5
18C
102
{ACAD_XDICTIONARY
360
8DC
102
}
102
{ACAD_REACTORS
330
17C
102
}
330
17C
100
AcDbVisualStyle
  2

 70
    16
 71
     2
 72
     2
 73
     3
 90
        0
 40
-0.6
 41
-30.0
 62
     5
 63
     8
 74
     1
 91
        4
 64
     7
 65
   257
 75
     1
175
     1
 42
1.0
 92
        8
 66
     8
 43
1.0
 76
     1
 77
     6
 78
     2
 67
     7
 79
     5
170
     0
171
     0
290
     0
174
     0
 93
        1
 44
0.0
173
     0
291
     1
 45
0.0
1001
ACAD
1000
AcDbSavedByObjectVersion
1070
     0
  0
VISUALSTYLE
  5
185
102
{ACAD_XDICTIONARY
360
8CE
102
}
102
{ACAD_REACTORS
330
17C
102
}
330
17C
100
AcDbVisualStyle
  2

 70
     9
 71
     3
 72
     2
 73
     0
 90
        0
 40
-0.6
 41
-30.0
 62
     5
 63
     7
 74
     2
 91
        2
 64
     7
 65
   257
 75
     1
175
     1
 42
179.0
 92
        8
 66
     7
 43
1.0
 76
     1
 77
     6
 78
     2
 67
     7
 79
     3
170
     0
171
     0
290
     0
174
     0
 93
        1
 44
0.0
173
     0
291
     0
 45
0.0
1001
ACAD
1000
AcDbSavedByObjectVersion
1070
     0
  0
VISUALSTYLE
  5
187
102
{ACAD_XDICTIONARY
360
8D2
102
}
102
{ACAD_REACTORS
330
17C
102
}
330
17C
100
AcDbVisualStyle
  2

 70
    11
 71
     2
 72
     2
 73
     0
 90
        0
 40
-0.6
 41
-30.0
 62
     5
 63
     7
 74
     1
 91
        4
 64
     7
 65
   257
 75
     1
175
     1
 42
1.0
 92
        8
 66
     7
 43
1.0
 76
     1
 77
     6
 78
     2
 67
     7
 79
     5
170
     0
171
     0
290
     0
174
     0
 93
        1
 44
-50.0
173
     0
291
     1
 45
0.0
1001
ACAD
1000
AcDbSavedByObjectVersion
1070
     0
  0
VISUALSTYLE
  5
18F
102
{ACAD_XDICTIONARY
360
8E2
102
}
102
{ACAD_REACTORS
330
17C
102
}
330
17C
100
AcDbVisualStyle
  2

 70
    22
 71
     2
 72
     2
 73
     0
 90
        0
 40
-0.6
 41
-30.0
 62
     5
 63
     7
 74
     1
 91
        4
 64
     7
 65
   257
 75
     1
175
     1
 42
1.0
 92
        8
 66
     7
 43
1.0
 76
     1
 77
     6
 78
     2
 67
     7
 79
     5
170
     0
171
     0
290
     0
174
     0
 93
        1
 44
0.0
173
     0
291
     1
 45
0.0
1001
ACAD
1000
AcDbSavedByObjectVersion
1070
     0
  0
VISUALSTYLE
  5
18B
102
{ACAD_XDICTIONARY
360
8DA
102
}
102
{ACAD_REACTORS
330
17C
102
}
330
17C
100
AcDbVisualStyle
  2

 70
    15
 71
     2
 72
     2
 73
     0
 90
        0
 40
-0.6
 41
-30.0
 62
     5
 63
     7
 74
     1
 91
        4
 64
     7
 65
   257
 75
     1
175
     1
 42
1.0
 92
        8
 66
     7
 43
1.0
 76
     1
 77
     6
 78
     2
 67
     7
 79
     5
170
     0
171
     0
290
     0
174
     0
 93
        1
 44
0.0
173
     0
291
     1
 45
0.0
1001
ACAD
1000
AcDbSavedByObjectVersion
1070
     0
  0
VISUALSTYLE
  5
17D
102
{ACAD_XDICTIONARY
360
8BE
102
}
102
{ACAD_REACTORS
330
17C
102
}
330
17C
100
AcDbVisualStyle
  2

 70
     0
 71
     2
 72
     1
 73
     1
 90
        2
 40
-0.6
 41
30.0
 62
     5
 63
     7
 74
     0
 91
        4
 64
     7
 65
   257
 75
     1
175
     1
 42
1.0
 92
        8
 66
     7
 43
1.0
 76
     1
 77
     6
 78
     2
 67
     7
 79
     5
170
     0
171
     0
290
     0
174
     0
 93
       13
 44
0.0
173
     0
291
     1
 45
0.0
1001
ACAD
1000
AcDbSavedByObjectVersion
1070
     0
  0
VISUALSTYLE
  5
17E
102
{ACAD_XDICTIONARY
360
8C0
102
}
102
{ACAD_REACTORS
330
17C
102
}
330
17C
100
AcDbVisualStyle
  2

 70
     1
 71
     2
 72
     1
 73
     1
 90
        2
 40
-0.6
 41
30.0
 62
     5
 63
     7
 74
     1
 91
        4
 64
     7
 65
   257
 75
     1
175
     1
 42
1.0
 92
        0
 66
   257
 43
1.0
 76
     1
 77
     6
 78
     2
 67
     7
 79
     5
170
     0
171
     0
290
     0
174
     0
 93
       13
 44
0.0
173
     0
291
     1
 45
0.0
1001
ACAD
1000
AcDbSavedByObjectVersion
1070
     0
  0
VISUALSTYLE
  5
17F
102
{ACAD_XDICTIONARY
360
8C2
102
}
102
{ACAD_REACTORS
330
17C
102
}
330
17C
100
AcDbVisualStyle
  2

 70
     2
 71
     2
 72
     2
 73
     1
 90
        2
 40
-0.6
 41
30.0
 62
     5
 63
     7
 74
     0
 91
        4
 64
     7
 65
   257
 75
     1
175
     1
 42
1.0
 92
        0
 66
     7
 43
1.0
 76
     1
 77
     6
 78
     2
 67
     7
 79
     5
170
     0
171
     0
290
     0
174
     0
 93
       13
 44
0.0
173
     0
291
     1
 45
0.0
1001
ACAD
1000
AcDbSavedByObjectVersion
1070
     0
  0
VISUALSTYLE
  5
180
102
{ACAD_XDICTIONARY
360
8C4
102
}
102
{ACAD_REACTORS
330
17C
102
}
330
17C
100
AcDbVisualStyle
  2

 70
     3
 71
     2
 72
     2
 73
     1
 90
        2
 40
-0.6
 41
30.0
 62
     5
 63
     7
 74
     1
 91
        4
 64
     7
 65
   257
 75
     1
175
     1
 42
1.0
 92
        0
 66
   257
 43
1.0
 76
     1
 77
     6
 78
     2
 67
     7
 79
     5
170
     0
171
     0
290
     0
174
     0
 93
       13
 44
0.0
173
     0
291
     1
 45
0.0
1001
ACAD
1000
AcDbSavedByObjectVersion
1070
     0
  0
VISUALSTYLE
  5
18D
102
{ACAD_XDICTIONARY
360
8DE
102
}
102
{ACAD_REACTORS
330
17C
102
}
330
17C
100
AcDbVisualStyle
  2

 70
    20
 71
     2
 72
     2
 73
     0
 90
        0
 40
-0.6
 41
-30.0
 62
     5
 63
     7
 74
     1
 91
        4
 64
     7
 65
   257
 75
     1
175
     1
 42
1.0
 92
       10
 66
     7
 43
1.0
 76
     1
 77
     6
 78
     2
 67
     7
 79
     5
170
     0
171
     0
290
     0
174
     0
 93
        1
 44
0.0
173
     0
291
     1
 45
0.0
1001
ACAD
1000
AcDbSavedByObjectVersion
1070
     0
  0
VISUALSTYLE
  5
18A
102
{ACAD_XDICTIONARY
360
8D8
102
}
102
{ACAD_REACTORS
330
17C
102
}
330
17C
100
AcDbVisualStyle
  2

 70
    14
 71
     2
 72
     2
 73
     0
 90
        0
 40
-0.6
 41
-30.0
 62
     5
 63
     7
 74
     1
 91
        4
 64
     7
 65
   257
 75
     7
175
     7
 42
1.0
 92
        8
 66
     7
 43
1.0
 76
     1
 77
     6
 78
     2
 67
     7
 79
     5
170
     0
171
     0
290
     0
174
     0
 93
        1
 44
0.0
173
     0
291
     1
 45
0.0
1001
ACAD
1000
AcDbSavedByObjectVersion
1070
     0
  0
VISUALSTYLE
  5
18E
102
{ACAD_XDICTIONARY
360
8E0
102
}
102
{ACAD_REACTORS
330
17C
102
}
330
17C
100
AcDbVisualStyle
  2

 70
    21
 71
     2
 72
     2
 73
     0
 90
        0
 40
-0.6
 41
-30.0
 62
     5
 63
     7
 74
     1
 91
        4
 64
     7
 65
   257
 75
     1
175
     1
 42
1.0
 92
        9
 66
     7
 43
1.0
 76
     1
 77
     6
 78
     2
 67
     7
 79
     5
170
     0
171
     0
290
     0
174
     0
 93
        1
 44
0.0
173
     0
291
     1
 45
0.0
1001
ACAD
1000
AcDbSavedByObjectVersion
1070
     0
  0
VISUALSTYLE
  5
186
102
{ACAD_XDICTIONARY
360
8D0
102
}
102
{ACAD_REACTORS
330
17C
102
}
330
17C
100
AcDbVisualStyle
  2

 70
     8
 71
     2
 72
     2
 73
     0
 90
        0
 40
-0.6
 41
-30.0
 62
     5
 63
     7
 74
     1
 91
        0
 64
     7
 65
   257
 75
     1
175
     1
 42
1.0
 92
        8
 66
     8
 43
1.0
 76
     1
 77
     6
 78
     2
 67
     7
 79
     5
170
     0
171
     0
290
     0
174
     0
 93
       13
 44
0.0
173
     0
291
     0
 45
0.0
1001
ACAD
1000
AcDbSavedByObjectVersion
1070
     0
  0
VISUALSTYLE
  5
189
102
{ACAD_XDICTIONARY
360
8D6
102
}
102
{ACAD_REACTORS
330
17C
102
}
330
17C
100
AcDbVisualStyle
  2

 70
    13
 71
     2
 72
     2
 73
     0
 90
        0
 40
-0.6
 41
-30.0
 62
     5
 63
     7
 74
     1
 91
        4
 64
     7
 65
   257
 75
     1
175
     1
 42
1.0
 92
       12
 66
     7
 43
1.0
 76
     1
 77
     6
 78
     2
 67
     7
 79
     5
170
     0
171
     0
290
     0
174
     0
 93
        1
 44
0.0
173
     0
291
     1
 45
0.0
1001
ACAD
1000
AcDbSavedByObjectVersion
1070
     0
  0
DICTIONARYVAR
  5
1E0
102
{ACAD_REACTORS
330
1DD
102
}
330
1DD
100
DictionaryVariables
280
     0
  1
1:1
  0
DICTIONARYVAR
  5
1DF
102
{ACAD_REACTORS
330
1DD
102
}
330
1DD
100
DictionaryVariables
280
     0
  1
STANDARD
  0
DICTIONARYVAR
  5
1DE
102
{ACAD_REACTORS
330
1DD
102
}
330
1DD
100
DictionaryVariables
280
     0
  1
STANDARD
  0
DICTIONARYVAR
  5
1E3
102
{ACAD_REACTORS
330
1DD
102
}
330
1DD
100
DictionaryVariables
280
     0
  1
1
  0
DICTIONARYVAR
  5
1E2
102
{ACAD_REACTORS
330
1DD
102
}
330
1DD
100
DictionaryVariables
280
     0
  1
0
  0
DICTIONARYVAR
  5
1E1
102
{ACAD_REACTORS
330
1DD
102
}
330
1DD
100
DictionaryVariables
280
     0
  1
127
  0
DICTIONARYVAR
  5
8BA
102
{ACAD_REACTORS
330
1DD
102
}
330
1DD
100
DictionaryVariables
280
     0
  1
2
  0
DICTIONARY
  5
8E7
330
1B8
100
AcDbDictionary
280
     1
281
     1
  3
ACAD_XREC_ROUNDTRIP
360
8E8
  0
DICTIONARY
  5
8E5
330
1B7
100
AcDbDictionary
280
     1
281
     1
  3
ACAD_XREC_ROUNDTRIP
360
8E6
  0
DICTIONARY
  5
16D
330
16C
100
AcDbDictionary
280
     1
281
     1
  3
ACAD_XREC_ROUNDTRIP
360
264
  3
BUMPTILE
360
16F
  3
DIFFUSETILE
360
16E
  3
OPACITYTILE
360
172
  3
REFLECTIONTILE
360
171
  3
REFRACTIONTILE
360
173
  3
SPECULARTILE
360
170
  0
DICTIONARY
  5
165
330
164
100
AcDbDictionary
280
     1
281
     1
  3
ACAD_XREC_ROUNDTRIP
360
263
  3
BUMPTILE
360
167
  3
DIFFUSETILE
360
166
  3
OPACITYTILE
360
16A
  3
REFLECTIONTILE
360
169
  3
REFRACTIONTILE
360
16B
  3
SPECULARTILE
360
168
  0
DICTIONARY
  5
175
330
174
100
AcDbDictionary
280
     1
281
     1
  3
ACAD_XREC_ROUNDTRIP
360
265
  3
BUMPTILE
360
177
  3
DIFFUSETILE
360
176
  3
OPACITYTILE
360
17A
  3
REFLECTIONTILE
360
179
  3
REFRACTIONTILE
360
17B
  3
SPECULARTILE
360
178
  0
DICTIONARY
  5
25F
330
192
100
AcDbDictionary
280
     1
281
     1
  3
ACAD_ROUNDTRIP_2008_TABLESTYLE_CELLSTYLEMAP
360
8BB
  3
ACAD_XREC_ROUNDTRIP
360
8E4
  0
DICTIONARY
  5
8C8
330
182
100
AcDbDictionary
280
     1
281
     1
  3
ACAD_XREC_ROUNDTRIP
360
8C9
  0
DICTIONARY
  5
8CC
330
184
100
AcDbDictionary
280
     1
281
     1
  3
ACAD_XREC_ROUNDTRIP
360
8CD
  0
DICTIONARY
  5
8CA
330
183
100
AcDbDictionary
280
     1
281
     1
  3
ACAD_XREC_ROUNDTRIP
360
8CB
  0
DICTIONARY
  5
8C6
330
181
100
AcDbDictionary
280
     1
281
     1
  3
ACAD_XREC_ROUNDTRIP
360
8C7
  0
DICTIONARY
  5
8D4
330
188
100
AcDbDictionary
280
     1
281
     1
  3
ACAD_XREC_ROUNDTRIP
360
8D5
  0
DICTIONARY
  5
8DC
330
18C
100
AcDbDictionary
280
     1
281
     1
  3
ACAD_XREC_ROUNDTRIP
360
8DD
  0
DICTIONARY
  5
8CE
330
185
100
AcDbDictionary
280
     1
281
     1
  3
ACAD_XREC_ROUNDTRIP
360
8CF
  0
DICTIONARY
  5
8D2
330
187
100
AcDbDictionary
280
     1
281
     1
  3
ACAD_XREC_ROUNDTRIP
360
8D3
  0
DICTIONARY
  5
8E2
330
18F
100
AcDbDictionary
280
     1
281
     1
  3
ACAD_XREC_ROUNDTRIP
360
8E3
  0
DICTIONARY
  5
8DA
330
18B
100
AcDbDictionary
280
     1
281
     1
  3
ACAD_XREC_ROUNDTRIP
360
8DB
  0
DICTIONARY
  5
8BE
330
17D
100
AcDbDictionary
280
     1
281
     1
  3
ACAD_XREC_ROUNDTRIP
360
8BF
  0
DICTIONARY
  5
8C0
330
17E
100
AcDbDictionary
280
     1
281
     1
  3
ACAD_XREC_ROUNDTRIP
360
8C1
  0
DICTIONARY
  5
8C2
330
17F
100
AcDbDictionary
280
     1
281
     1
  3
ACAD_XREC_ROUNDTRIP
360
8C3
  0
DICTIONARY
  5
8C4
330
180
100
AcDbDictionary
280
     1
281
     1
  3
ACAD_XREC_ROUNDTRIP
360
8C5
  0
DICTIONARY
  5
8DE
330
18D
100
AcDbDictionary
280
     1
281
     1
  3
ACAD_XREC_ROUNDTRIP
360
8DF
  0
DICTIONARY
  5
8D8
330
18A
100
AcDbDictionary
280
     1
281
     1
  3
ACAD_XREC_ROUNDTRIP
360
8D9
  0
DICTIONARY
  5
8E0
330
18E
100
AcDbDictionary
280
     1
281
     1
  3
ACAD_XREC_ROUNDTRIP
360
8E1
  0
DICTIONARY
  5
8D0
330
186
100
AcDbDictionary
280
     1
281
     1
  3
ACAD_XREC_ROUNDTRIP
360
8D1
  0
DICTIONARY
  5
8D6
330
189
100
AcDbDictionary
280
     1
281
     1
  3
ACAD_XREC_ROUNDTRIP
360
8D7
  0
XRECORD
  5
8E8
102
{ACAD_REACTORS
330
8E7
102
}
330
8E7
100
AcDbXrecord
280
     1
102
SHADEPLOT
 70
     0
102
SHADEPLOTRESLEVEL
 70
     2
102
SHADEPLOTCUSTOMDPI
 70
   300
  0
XRECORD
  5
8E6
102
{ACAD_REACTORS
330
8E5
102
}
330
8E5
100
AcDbXrecord
280
     1
102
SHADEPLOT
 70
     0
102
SHADEPLOTRESLEVEL
 70
     2
102
SHADEPLOTCUSTOMDPI
 70
   300
  0
XRECORD
  5
264
102
{ACAD_REACTORS
330
16D
102
}
330
16D
100
AcDbXrecord
280
     1
102
MATERIAL
148
0.0
149
0.0
149
0.0
 93
        0
 94
      127
282
     0
 72
     0
 77
     0
171
     0
175
     0
179
     0
273
     0
  0
XRECORD
  5
16F
102
{ACAD_REACTORS
330
16D
102
}
330
16D
100
AcDbXrecord
280
     1
270
     1
271
     1
  0
XRECORD
  5
16E
102
{ACAD_REACTORS
330
16D
102
}
330
16D
100
AcDbXrecord
280
     1
270
     1
271
     1
  0
XRECORD
  5
172
102
{ACAD_REACTORS
330
16D
102
}
330
16D
100
AcDbXrecord
280
     1
270
     1
271
     1
  0
XRECORD
  5
171
102
{ACAD_REACTORS
330
16D
102
}
330
16D
100
AcDbXrecord
280
     1
270
     1
271
     1
  0
XRECORD
  5
173
102
{ACAD_REACTORS
330
16D
102
}
330
16D
100
AcDbXrecord
280
     1
270
     1
271
     1
  0
XRECORD
  5
170
102
{ACAD_REACTORS
330
16D
102
}
330
16D
100
AcDbXrecord
280
     1
270
     1
271
     1
  0
XRECORD
  5
263
102
{ACAD_REACTORS
330
165
102
}
330
165
100
AcDbXrecord
280
     1
102
MATERIAL
148
0.0
149
0.0
149
0.0
 93
        0
 94
      127
282
     0
 72
     0
 77
     0
171
     0
175
     0
179
     0
273
     0
  0
XRECORD
  5
167
102
{ACAD_REACTORS
330
165
102
}
330
165
100
AcDbXrecord
280
     1
270
     1
271
     1
  0
XRECORD
  5
166
102
{ACAD_REACTORS
330
165
102
}
330
165
100
AcDbXrecord
280
     1
270
     1
271
     1
  0
XRECORD
  5
16A
102
{ACAD_REACTORS
330
165
102
}
330
165
100
AcDbXrecord
280
     1
270
     1
271
     1
  0
XRECORD
  5
169
102
{ACAD_REACTORS
330
165
102
}
330
165
100
AcDbXrecord
280
     1
270
     1
271
     1
  0
XRECORD
  5
16B
102
{ACAD_REACTORS
330
165
102
}
330
165
100
AcDbXrecord
280
     1
270
     1
271
     1
  0
XRECORD
  5
168
102
{ACAD_REACTORS
330
165
102
}
330
165
100
AcDbXrecord
280
     1
270
     1
271
     1
  0
XRECORD
  5
265
102
{ACAD_REACTORS
330
175
102
}
330
175
100
AcDbXrecord
280
     1
102
MATERIAL
148
0.0
149
0.0
149
0.0
 93
        0
 94
      127
282
     0
 72
     0
 77
     0
171
     0
175
     0
179
     0
273
     0
  0
XRECORD
  5
177
102
{ACAD_REACTORS
330
175
102
}
330
175
100
AcDbXrecord
280
     1
270
     1
271
     1
  0
XRECORD
  5
176
102
{ACAD_REACTORS
330
175
102
}
330
175
100
AcDbXrecord
280
     1
270
     1
271
     1
  0
XRECORD
  5
17A
102
{ACAD_REACTORS
330
175
102
}
330
175
100
AcDbXrecord
280
     1
270
     1
271
     1
  0
XRECORD
  5
179
102
{ACAD_REACTORS
330
175
102
}
330
175
100
AcDbXrecord
280
     1
270
     1
271
     1
  0
XRECORD
  5
17B
102
{ACAD_REACTORS
330
175
102
}
330
175
100
AcDbXrecord
280
     1
270
     1
271
     1
  0
XRECORD
  5
178
102
{ACAD_REACTORS
330
175
102
}
330
175
100
AcDbXrecord
280
     1
270
     1
271
     1
  0
CELLSTYLEMAP
  5
8BB
102
{ACAD_REACTORS
330
25F
102
}
330
25F
100
AcDbCellStyleMap
 90
        3
300
CELLSTYLE
  1
TABLEFORMAT_BEGIN
 90
        5
170
     1
 91
        0
 92
    32768
 62
   257
 93
        1
300
CONTENTFORMAT
  1
CONTENTFORMAT_BEGIN
 90
        0
 91
        0
 92
      512
 93
        0
300

 40
0.0
140
1.0
 94
        5
 62
     0
340
80
144
0.25
309
CONTENTFORMAT_END
171
     1
301
MARGIN
  1
CELLMARGIN_BEGIN
 40
0.06
 40
0.06
 40
0.06
 40
0.06
 40
0.18
 40
0.18
309
CELLMARGIN_END
 94
        6
 95
        1
302
GRIDFORMAT
  1
GRIDFORMAT_BEGIN
 90
        0
 91
        1
 62
     0
 92
       -2
340
0
 93
        0
 40
0.045
309
GRIDFORMAT_END
 95
        2
302
GRIDFORMAT
  1
GRIDFORMAT_BEGIN
 90
        0
 91
        1
 62
     0
 92
       -2
340
0
 93
        0
 40
0.045
309
GRIDFORMAT_END
 95
        4
302
GRIDFORMAT
  1
GRIDFORMAT_BEGIN
 90
        0
 91
        1
 62
     0
 92
       -2
340
0
 93
        0
 40
0.045
309
GRIDFORMAT_END
 95
        8
302
GRIDFORMAT
  1
GRIDFORMAT_BEGIN
 90
        0
 91
        1
 62
     0
 92
       -2
340
0
 93
        0
 40
0.045
309
GRIDFORMAT_END
 95
       16
302
GRIDFORMAT
  1
GRIDFORMAT_BEGIN
 90
        0
 91
        1
 62
     0
 92
       -2
340
0
 93
        0
 40
0.045
309
GRIDFORMAT_END
 95
       32
302
GRIDFORMAT
  1
GRIDFORMAT_BEGIN
 90
        0
 91
        1
 62
     0
 92
       -2
340
0
 93
        0
 40
0.045
309
GRIDFORMAT_END
309
TABLEFORMAT_END
  1
CELLSTYLE_BEGIN
 90
        1
 91
        1
300
_TITLE
309
CELLSTYLE_END
300
CELLSTYLE
  1
TABLEFORMAT_BEGIN
 90
        5
170
     1
 91
        0
 92
        0
 62
   257
 93
        1
300
CONTENTFORMAT
  1
CONTENTFORMAT_BEGIN
 90
        0
 91
        0
 92
      512
 93
        0
300

 40
0.0
140
1.0
 94
        5
 62
     0
340
80
144
0.18
309
CONTENTFORMAT_END
171
     1
301
MARGIN
  1
CELLMARGIN_BEGIN
 40
0.06
 40
0.06
 40
0.06
 40
0.06
 40
0.18
 40
0.18
309
CELLMARGIN_END
 94
        6
 95
        1
302
GRIDFORMAT
  1
GRIDFORMAT_BEGIN
 90
        0
 91
        1
 62
     0
 92
       -2
340
0
 93
        0
 40
0.045
309
GRIDFORMAT_END
 95
        2
302
GRIDFORMAT
  1
GRIDFORMAT_BEGIN
 90
        0
 91
        1
 62
     0
 92
       -2
340
0
 93
        0
 40
0.045
309
GRIDFORMAT_END
 95
        4
302
GRIDFORMAT
  1
GRIDFORMAT_BEGIN
 90
        0
 91
        1
 62
     0
 92
       -2
340
0
 93
        0
 40
0.045
309
GRIDFORMAT_END
 95
        8
302
GRIDFORMAT
  1
GRIDFORMAT_BEGIN
 90
        0
 91
        1
 62
     0
 92
       -2
340
0
 93
        0
 40
0.045
309
GRIDFORMAT_END
 95
       16
302
GRIDFORMAT
  1
GRIDFORMAT_BEGIN
 90
        0
 91
        1
 62
     0
 92
       -2
340
0
 93
        0
 40
0.045
309
GRIDFORMAT_END
 95
       32
302
GRIDFORMAT
  1
GRIDFORMAT_BEGIN
 90
        0
 91
        1
 62
     0
 92
       -2
340
0
 93
        0
 40
0.045
309
GRIDFORMAT_END
309
TABLEFORMAT_END
  1
CELLSTYLE_BEGIN
 90
        2
 91
        1
300
_HEADER
309
CELLSTYLE_END
300
CELLSTYLE
  1
TABLEFORMAT_BEGIN
 90
        5
170
     1
 91
        0
 92
        0
 62
   257
 93
        1
300
CONTENTFORMAT
  1
CONTENTFORMAT_BEGIN
 90
        0
 91
        0
 92
      512
 93
        0
300

 40
0.0
140
1.0
 94
        2
 62
     0
340
80
144
0.18
309
CONTENTFORMAT_END
171
     1
301
MARGIN
  1
CELLMARGIN_BEGIN
 40
0.06
 40
0.06
 40
0.06
 40
0.06
 40
0.18
 40
0.18
309
CELLMARGIN_END
 94
        6
 95
        1
302
GRIDFORMAT
  1
GRIDFORMAT_BEGIN
 90
        0
 91
        1
 62
     0
 92
       -2
340
0
 93
        0
 40
0.045
309
GRIDFORMAT_END
 95
        2
302
GRIDFORMAT
  1
GRIDFORMAT_BEGIN
 90
        0
 91
        1
 62
     0
 92
       -2
340
0
 93
        0
 40
0.045
309
GRIDFORMAT_END
 95
        4
302
GRIDFORMAT
  1
GRIDFORMAT_BEGIN
 90
        0
 91
        1
 62
     0
 92
       -2
340
0
 93
        0
 40
0.045
309
GRIDFORMAT_END
 95
        8
302
GRIDFORMAT
  1
GRIDFORMAT_BEGIN
 90
        0
 91
        1
 62
     0
 92
       -2
340
0
 93
        0
 40
0.045
309
GRIDFORMAT_END
 95
       16
302
GRIDFORMAT
  1
GRIDFORMAT_BEGIN
 90
        0
 91
        1
 62
     0
 92
       -2
340
0
 93
        0
 40
0.045
309
GRIDFORMAT_END
 95
       32
302
GRIDFORMAT
  1
GRIDFORMAT_BEGIN
 90
        0
 91
        1
 62
     0
 92
       -2
340
0
 93
        0
 40
0.045
309
GRIDFORMAT_END
309
TABLEFORMAT_END
  1
CELLSTYLE_BEGIN
 90
        3
 91
        2
300
_DATA
309
CELLSTYLE_END
  0
XRECORD
  5
8E4
102
{ACAD_REACTORS
330
25F
102
}
330
25F
100
AcDbXrecord
280
     1
102
ACAD_ROUNDTRIP_PRE2007_TABLESTYLE
 90
      512
 91
        0
  1

 92
      512
 93
        0
  2

 94
      512
 95
        0
  3

  0
XRECORD
  5
8C9
102
{ACAD_REACTORS
330
8C8
102
}
330
8C8
100
AcDbXrecord
280
     1
102
RTVSPropertyOp0
 70
     1
102
RTVSPropertyOp1
 70
     1
102
RTVSPropertyOp2
 70
     1
102
RTVSPropertyOp3
 70
     1
102
RTVSPropertyOp4
 70
     1
102
RTVSPropertyOp5
 70
     1
102
RTVSPropertyOp6
 70
     1
102
RTVSPropertyOp7
 70
     1
102
RTVSPropertyOp8
 70
     1
102
RTVSPropertyOp9
 70
     1
102
RTVSPropertyOp10
 70
     1
102
RTVSPropertyOp11
 70
     1
102
RTVSPropertyOp12
 70
     1
102
RTVSPropertyOp13
 70
     1
102
RTVSPropertyOp14
 70
     1
102
RTVSPropertyOp15
 70
     1
102
RTVSPropertyOp16
 70
     1
102
RTVSPropertyOp17
 70
     1
102
RTVSPropertyOp18
 70
     1
102
RTVSPropertyOp19
 70
     1
102
RTVSPropertyOp20
 70
     1
102
RTVSPropertyOp21
 70
     1
102
RTVSPropertyOp22
 70
     1
102
RTVSPropertyOp23
 70
     1
102
RTVSPropertyOp24
 70
     1
102
RTVSPropertyOp25
 70
     1
102
RTVSPropertyOp26
 70
     1
102
RTVSPropertyOp27
 70
     1
  0
XRECORD
  5
8CD
102
{ACAD_REACTORS
330
8CC
102
}
330
8CC
100
AcDbXrecord
280
     1
102
RTVSPropertyOp0
 70
     1
102
RTVSPropertyOp1
 70
     1
102
RTVSPropertyOp2
 70
     1
102
RTVSPropertyOp3
 70
     1
102
RTVSPropertyOp4
 70
     1
102
RTVSPropertyOp5
 70
     1
102
RTVSPropertyOp6
 70
     1
102
RTVSPropertyOp7
 70
     1
102
RTVSPropertyOp8
 70
     1
102
RTVSPropertyOp9
 70
     1
102
RTVSPropertyOp10
 70
     1
102
RTVSPropertyOp11
 70
     1
102
RTVSPropertyOp12
 70
     1
102
RTVSPropertyOp13
 70
     1
102
RTVSPropertyOp14
 70
     1
102
RTVSPropertyOp15
 70
     1
102
RTVSPropertyOp16
 70
     1
102
RTVSPropertyOp17
 70
     1
102
RTVSPropertyOp18
 70
     1
102
RTVSPropertyOp19
 70
     1
102
RTVSPropertyOp20
 70
     1
102
RTVSPropertyOp21
 70
     1
102
RTVSPropertyOp22
 70
     1
102
RTVSPropertyOp23
 70
     1
102
RTVSPropertyOp24
 70
     1
102
RTVSPropertyOp25
 70
     1
102
RTVSPropertyOp26
 70
     1
102
RTVSPropertyOp27
 70
     1
  0
XRECORD
  5
8CB
102
{ACAD_REACTORS
330
8CA
102
}
330
8CA
100
AcDbXrecord
280
     1
102
RTVSPropertyOp0
 70
     1
102
RTVSPropertyOp1
 70
     1
102
RTVSPropertyOp2
 70
     1
102
RTVSPropertyOp3
 70
     1
102
RTVSPropertyOp4
 70
     1
102
RTVSPropertyOp5
 70
     1
102
RTVSPropertyOp6
 70
     1
102
RTVSPropertyOp7
 70
     1
102
RTVSPropertyOp8
 70
     1
102
RTVSPropertyOp9
 70
     1
102
RTVSPropertyOp10
 70
     1
102
RTVSPropertyOp11
 70
     1
102
RTVSPropertyOp12
 70
     1
102
RTVSPropertyOp13
 70
     1
102
RTVSPropertyOp14
 70
     1
102
RTVSPropertyOp15
 70
     1
102
RTVSPropertyOp16
 70
     1
102
RTVSPropertyOp17
 70
     1
102
RTVSPropertyOp18
 70
     1
102
RTVSPropertyOp19
 70
     1
102
RTVSPropertyOp20
 70
     1
102
RTVSPropertyOp21
 70
     1
102
RTVSPropertyOp22
 70
     1
102
RTVSPropertyOp23
 70
     1
102
RTVSPropertyOp24
 70
     1
102
RTVSPropertyOp25
 70
     1
102
RTVSPropertyOp26
 70
     1
102
RTVSPropertyOp27
 70
     1
  0
XRECORD
  5
8C7
102
{ACAD_REACTORS
330
8C6
102
}
330
8C6
100
AcDbXrecord
280
     1
102
RTVSPropertyOp0
 70
     1
102
RTVSPropertyOp1
 70
     1
102
RTVSPropertyOp2
 70
     1
102
RTVSPropertyOp3
 70
     1
102
RTVSPropertyOp4
 70
     1
102
RTVSPropertyOp5
 70
     1
102
RTVSPropertyOp6
 70
     1
102
RTVSPropertyOp7
 70
     1
102
RTVSPropertyOp8
 70
     1
102
RTVSPropertyOp9
 70
     1
102
RTVSPropertyOp10
 70
     1
102
RTVSPropertyOp11
 70
     1
102
RTVSPropertyOp12
 70
     1
102
RTVSPropertyOp13
 70
     1
102
RTVSPropertyOp14
 70
     1
102
RTVSPropertyOp15
 70
     1
102
RTVSPropertyOp16
 70
     1
102
RTVSPropertyOp17
 70
     1
102
RTVSPropertyOp18
 70
     1
102
RTVSPropertyOp19
 70
     1
102
RTVSPropertyOp20
 70
     1
102
RTVSPropertyOp21
 70
     1
102
RTVSPropertyOp22
 70
     1
102
RTVSPropertyOp23
 70
     1
102
RTVSPropertyOp24
 70
     1
102
RTVSPropertyOp25
 70
     1
102
RTVSPropertyOp26
 70
     1
102
RTVSPropertyOp27
 70
     1
  0
XRECORD
  5
8D5
102
{ACAD_REACTORS
330
8D4
102
}
330
8D4
100
AcDbXrecord
280
     1
102
RTVSPropertyOp0
 70
     1
102
RTVSPropertyOp1
 70
     1
102
RTVSPropertyOp2
 70
     1
102
RTVSPropertyOp3
 70
     1
102
RTVSPropertyOp4
 70
     1
102
RTVSPropertyOp5
 70
     1
102
RTVSPropertyOp6
 70
     1
102
RTVSPropertyOp7
 70
     1
102
RTVSPropertyOp8
 70
     1
102
RTVSPropertyOp9
 70
     1
102
RTVSPropertyOp10
 70
     1
102
RTVSPropertyOp11
 70
     1
102
RTVSPropertyOp12
 70
     1
102
RTVSPropertyOp13
 70
     1
102
RTVSPropertyOp14
 70
     1
102
RTVSPropertyOp15
 70
     1
102
RTVSPropertyOp16
 70
     1
102
RTVSPropertyOp17
 70
     1
102
RTVSPropertyOp18
 70
     1
102
RTVSPropertyOp19
 70
     1
102
RTVSPropertyOp20
 70
     1
102
RTVSPropertyOp21
 70
     1
102
RTVSPropertyOp22
 70
     1
102
RTVSPropertyOp23
 70
     1
102
RTVSPropertyOp24
 70
     1
102
RTVSPropertyOp25
 70
     1
102
RTVSPropertyOp26
 70
     1
102
RTVSPropertyOp27
 70
     1
  0
XRECORD
  5
8DD
102
{ACAD_REACTORS
330
8DC
102
}
330
8DC
100
AcDbXrecord
280
     1
102
RTVSPropertyOp0
 70
     1
102
RTVSPropertyOp1
 70
     1
102
RTVSPropertyOp2
 70
     1
102
RTVSPropertyOp3
 70
     1
102
RTVSPropertyOp4
 70
     1
102
RTVSPropertyOp5
 70
     1
102
RTVSPropertyOp6
 70
     1
102
RTVSPropertyOp7
 70
     1
102
RTVSPropertyOp8
 70
     1
102
RTVSPropertyOp9
 70
     1
102
RTVSPropertyOp10
 70
     1
102
RTVSPropertyOp11
 70
     1
102
RTVSPropertyOp12
 70
     1
102
RTVSPropertyOp13
 70
     1
102
RTVSPropertyOp14
 70
     1
102
RTVSPropertyOp15
 70
     1
102
RTVSPropertyOp16
 70
     1
102
RTVSPropertyOp17
 70
     1
102
RTVSPropertyOp18
 70
     1
102
RTVSPropertyOp19
 70
     1
102
RTVSPropertyOp20
 70
     1
102
RTVSPropertyOp21
 70
     1
102
RTVSPropertyOp22
 70
     1
102
RTVSPropertyOp23
 70
     1
102
RTVSPropertyOp24
 70
     1
102
RTVSPropertyOp25
 70
     1
102
RTVSPropertyOp26
 70
     1
102
RTVSPropertyOp27
 70
     1
  0
XRECORD
  5
8CF
102
{ACAD_REACTORS
330
8CE
102
}
330
8CE
100
AcDbXrecord
280
     1
102
RTVSPropertyOp0
 70
     1
102
RTVSPropertyOp1
 70
     1
102
RTVSPropertyOp2
 70
     1
102
RTVSPropertyOp3
 70
     1
102
RTVSPropertyOp4
 70
     1
102
RTVSPropertyOp5
 70
     1
102
RTVSPropertyOp6
 70
     1
102
RTVSPropertyOp7
 70
     1
102
RTVSPropertyOp8
 70
     1
102
RTVSPropertyOp9
 70
     1
102
RTVSPropertyOp10
 70
     1
102
RTVSPropertyOp11
 70
     1
102
RTVSPropertyOp12
 70
     1
102
RTVSPropertyOp13
 70
     1
102
RTVSPropertyOp14
 70
     1
102
RTVSPropertyOp15
 70
     1
102
RTVSPropertyOp16
 70
     1
102
RTVSPropertyOp17
 70
     1
102
RTVSPropertyOp18
 70
     1
102
RTVSPropertyOp19
 70
     1
102
RTVSPropertyOp20
 70
     1
102
RTVSPropertyOp21
 70
     1
102
RTVSPropertyOp22
 70
     1
102
RTVSPropertyOp23
 70
     1
102
RTVSPropertyOp24
 70
     1
102
RTVSPropertyOp25
 70
     1
102
RTVSPropertyOp26
 70
     1
102
RTVSPropertyOp27
 70
     1
  0
XRECORD
  5
8D3
102
{ACAD_REACTORS
330
8D2
102
}
330
8D2
100
AcDbXrecord
280
     1
102
RTVSPropertyOp0
 70
     1
102
RTVSPropertyOp1
 70
     1
102
RTVSPropertyOp2
 70
     1
102
RTVSPropertyOp3
 70
     1
102
RTVSPropertyOp4
 70
     1
102
RTVSPropertyOp5
 70
     1
102
RTVSPropertyOp6
 70
     1
102
RTVSPropertyOp7
 70
     1
102
RTVSPropertyOp8
 70
     1
102
RTVSPropertyOp9
 70
     1
102
RTVSPropertyOp10
 70
     1
102
RTVSPropertyOp11
 70
     1
102
RTVSPropertyOp12
 70
     1
102
RTVSPropertyOp13
 70
     1
102
RTVSPropertyOp14
 70
     1
102
RTVSPropertyOp15
 70
     1
102
RTVSPropertyOp16
 70
     1
102
RTVSPropertyOp17
 70
     1
102
RTVSPropertyOp18
 70
     1
102
RTVSPropertyOp19
 70
     1
102
RTVSPropertyOp20
 70
     1
102
RTVSPropertyOp21
 70
     1
102
RTVSPropertyOp22
 70
     1
102
RTVSPropertyOp23
 70
     1
102
RTVSPropertyOp24
 70
     1
102
RTVSPropertyOp25
 70
     1
102
RTVSPropertyOp26
 70
     1
102
RTVSPropertyOp27
 70
     1
  0
XRECORD
  5
8E3
102
{ACAD_REACTORS
330
8E2
102
}
330
8E2
100
AcDbXrecord
280
     1
102
RTVSPropertyOp0
 70
     0
102
RTVSPropertyOp1
 70
     0
102
RTVSPropertyOp2
 70
     0
102
RTVSPropertyOp3
 70
     0
102
RTVSPropertyOp4
 70
     0
102
RTVSPropertyOp5
 70
     0
102
RTVSPropertyOp6
 70
     0
102
RTVSPropertyOp7
 70
     0
102
RTVSPropertyOp8
 70
     0
102
RTVSPropertyOp9
 70
     0
102
RTVSPropertyOp10
 70
     0
102
RTVSPropertyOp11
 70
     0
102
RTVSPropertyOp12
 70
     0
102
RTVSPropertyOp13
 70
     0
102
RTVSPropertyOp14
 70
     2
102
RTVSPropertyOp15
 70
     0
102
RTVSPropertyOp16
 70
     0
102
RTVSPropertyOp17
 70
     0
102
RTVSPropertyOp18
 70
     0
102
RTVSPropertyOp19
 70
     0
102
RTVSPropertyOp20
 70
     0
102
RTVSPropertyOp21
 70
     0
102
RTVSPropertyOp22
 70
     0
102
RTVSPropertyOp23
 70
     0
102
RTVSPropertyOp24
 70
     0
102
RTVSPropertyOp25
 70
     0
102
RTVSPropertyOp26
 70
     0
102
RTVSPropertyOp27
 70
     0
  0
XRECORD
  5
8DB
102
{ACAD_REACTORS
330
8DA
102
}
330
8DA
100
AcDbXrecord
280
     1
102
RTVSPropertyOp0
 70
     1
102
RTVSPropertyOp1
 70
     1
102
RTVSPropertyOp2
 70
     1
102
RTVSPropertyOp3
 70
     1
102
RTVSPropertyOp4
 70
     1
102
RTVSPropertyOp5
 70
     1
102
RTVSPropertyOp6
 70
     1
102
RTVSPropertyOp7
 70
     1
102
RTVSPropertyOp8
 70
     1
102
RTVSPropertyOp9
 70
     1
102
RTVSPropertyOp10
 70
     1
102
RTVSPropertyOp11
 70
     1
102
RTVSPropertyOp12
 70
     1
102
RTVSPropertyOp13
 70
     1
102
RTVSPropertyOp14
 70
     1
102
RTVSPropertyOp15
 70
     1
102
RTVSPropertyOp16
 70
     1
102
RTVSPropertyOp17
 70
     1
102
RTVSPropertyOp18
 70
     1
102
RTVSPropertyOp19
 70
     1
102
RTVSPropertyOp20
 70
     1
102
RTVSPropertyOp21
 70
     1
102
RTVSPropertyOp22
 70
     1
102
RTVSPropertyOp23
 70
     1
102
RTVSPropertyOp24
 70
     1
102
RTVSPropertyOp25
 70
     1
102
RTVSPropertyOp26
 70
     1
102
RTVSPropertyOp27
 70
     1
  0
XRECORD
  5
8BF
102
{ACAD_REACTORS
330
8BE
102
}
330
8BE
100
AcDbXrecord
280
     1
102
RTVSPropertyOp0
 70
     1
102
RTVSPropertyOp1
 70
     1
102
RTVSPropertyOp2
 70
     1
102
RTVSPropertyOp3
 70
     1
102
RTVSPropertyOp4
 70
     1
102
RTVSPropertyOp5
 70
     1
102
RTVSPropertyOp6
 70
     1
102
RTVSPropertyOp7
 70
     1
102
RTVSPropertyOp8
 70
     1
102
RTVSPropertyOp9
 70
     1
102
RTVSPropertyOp10
 70
     1
102
RTVSPropertyOp11
 70
     1
102
RTVSPropertyOp12
 70
     1
102
RTVSPropertyOp13
 70
     1
102
RTVSPropertyOp14
 70
     1
102
RTVSPropertyOp15
 70
     1
102
RTVSPropertyOp16
 70
     1
102
RTVSPropertyOp17
 70
     1
102
RTVSPropertyOp18
 70
     1
102
RTVSPropertyOp19
 70
     1
102
RTVSPropertyOp20
 70
     1
102
RTVSPropertyOp21
 70
     1
102
RTVSPropertyOp22
 70
     1
102
RTVSPropertyOp23
 70
     1
102
RTVSPropertyOp24
 70
     1
102
RTVSPropertyOp25
 70
     1
102
RTVSPropertyOp26
 70
     1
102
RTVSPropertyOp27
 70
     1
  0
XRECORD
  5
8C1
102
{ACAD_REACTORS
330
8C0
102
}
330
8C0
100
AcDbXrecord
280
     1
102
RTVSPropertyOp0
 70
     1
102
RTVSPropertyOp1
 70
     1
102
RTVSPropertyOp2
 70
     1
102
RTVSPropertyOp3
 70
     1
102
RTVSPropertyOp4
 70
     1
102
RTVSPropertyOp5
 70
     1
102
RTVSPropertyOp6
 70
     1
102
RTVSPropertyOp7
 70
     1
102
RTVSPropertyOp8
 70
     1
102
RTVSPropertyOp9
 70
     1
102
RTVSPropertyOp10
 70
     1
102
RTVSPropertyOp11
 70
     1
102
RTVSPropertyOp12
 70
     1
102
RTVSPropertyOp13
 70
     1
102
RTVSPropertyOp14
 70
     1
102
RTVSPropertyOp15
 70
     1
102
RTVSPropertyOp16
 70
     1
102
RTVSPropertyOp17
 70
     1
102
RTVSPropertyOp18
 70
     1
102
RTVSPropertyOp19
 70
     1
102
RTVSPropertyOp20
 70
     1
102
RTVSPropertyOp21
 70
     1
102
RTVSPropertyOp22
 70
     1
102
RTVSPropertyOp23
 70
     1
102
RTVSPropertyOp24
 70
     1
102
RTVSPropertyOp25
 70
     1
102
RTVSPropertyOp26
 70
     1
102
RTVSPropertyOp27
 70
     1
  0
XRECORD
  5
8C3
102
{ACAD_REACTORS
330
8C2
102
}
330
8C2
100
AcDbXrecord
280
     1
102
RTVSPropertyOp0
 70
     1
102
RTVSPropertyOp1
 70
     1
102
RTVSPropertyOp2
 70
     1
102
RTVSPropertyOp3
 70
     1
102
RTVSPropertyOp4
 70
     1
102
RTVSPropertyOp5
 70
     1
102
RTVSPropertyOp6
 70
     1
102
RTVSPropertyOp7
 70
     1
102
RTVSPropertyOp8
 70
     1
102
RTVSPropertyOp9
 70
     1
102
RTVSPropertyOp10
 70
     1
102
RTVSPropertyOp11
 70
     1
102
RTVSPropertyOp12
 70
     1
102
RTVSPropertyOp13
 70
     1
102
RTVSPropertyOp14
 70
     1
102
RTVSPropertyOp15
 70
     1
102
RTVSPropertyOp16
 70
     1
102
RTVSPropertyOp17
 70
     1
102
RTVSPropertyOp18
 70
     1
102
RTVSPropertyOp19
 70
     1
102
RTVSPropertyOp20
 70
     1
102
RTVSPropertyOp21
 70
     1
102
RTVSPropertyOp22
 70
     1
102
RTVSPropertyOp23
 70
     1
102
RTVSPropertyOp24
 70
     1
102
RTVSPropertyOp25
 70
     1
102
RTVSPropertyOp26
 70
     1
102
RTVSPropertyOp27
 70
     1
  0
XRECORD
  5
8C5
102
{ACAD_REACTORS
330
8C4
102
}
330
8C4
100
AcDbXrecord
280
     1
102
RTVSPropertyOp0
 70
     1
102
RTVSPropertyOp1
 70
     1
102
RTVSPropertyOp2
 70
     1
102
RTVSPropertyOp3
 70
     1
102
RTVSPropertyOp4
 70
     1
102
RTVSPropertyOp5
 70
     1
102
RTVSPropertyOp6
 70
     1
102
RTVSPropertyOp7
 70
     1
102
RTVSPropertyOp8
 70
     1
102
RTVSPropertyOp9
 70
     1
102
RTVSPropertyOp10
 70
     1
102
RTVSPropertyOp11
 70
     1
102
RTVSPropertyOp12
 70
     1
102
RTVSPropertyOp13
 70
     1
102
RTVSPropertyOp14
 70
     1
102
RTVSPropertyOp15
 70
     1
102
RTVSPropertyOp16
 70
     1
102
RTVSPropertyOp17
 70
     1
102
RTVSPropertyOp18
 70
     1
102
RTVSPropertyOp19
 70
     1
102
RTVSPropertyOp20
 70
     1
102
RTVSPropertyOp21
 70
     1
102
RTVSPropertyOp22
 70
     1
102
RTVSPropertyOp23
 70
     1
102
RTVSPropertyOp24
 70
     1
102
RTVSPropertyOp25
 70
     1
102
RTVSPropertyOp26
 70
     1
102
RTVSPropertyOp27
 70
     1
  0
XRECORD
  5
8DF
102
{ACAD_REACTORS
330
8DE
102
}
330
8DE
100
AcDbXrecord
280
     1
102
RTVSPropertyOp0
 70
     0
102
RTVSPropertyOp1
 70
     0
102
RTVSPropertyOp2
 70
     0
102
RTVSPropertyOp3
 70
     0
102
RTVSPropertyOp4
 70
     0
102
RTVSPropertyOp5
 70
     0
102
RTVSPropertyOp6
 70
     0
102
RTVSPropertyOp7
 70
     0
102
RTVSPropertyOp8
 70
     0
102
RTVSPropertyOp9
 70
     0
102
RTVSPropertyOp10
 70
     0
102
RTVSPropertyOp11
 70
     0
102
RTVSPropertyOp12
 70
     0
102
RTVSPropertyOp13
 70
     0
102
RTVSPropertyOp14
 70
     2
102
RTVSPropertyOp15
 70
     0
102
RTVSPropertyOp16
 70
     0
102
RTVSPropertyOp17
 70
     0
102
RTVSPropertyOp18
 70
     0
102
RTVSPropertyOp19
 70
     0
102
RTVSPropertyOp20
 70
     0
102
RTVSPropertyOp21
 70
     0
102
RTVSPropertyOp22
 70
     0
102
RTVSPropertyOp23
 70
     0
102
RTVSPropertyOp24
 70
     0
102
RTVSPropertyOp25
 70
     0
102
RTVSPropertyOp26
 70
     0
102
RTVSPropertyOp27
 70
     0
  0
XRECORD
  5
8D9
102
{ACAD_REACTORS
330
8D8
102
}
330
8D8
100
AcDbXrecord
280
     1
102
RTVSPropertyOp0
 70
     1
102
RTVSPropertyOp1
 70
     1
102
RTVSPropertyOp2
 70
     1
102
RTVSPropertyOp3
 70
     1
102
RTVSPropertyOp4
 70
     1
102
RTVSPropertyOp5
 70
     1
102
RTVSPropertyOp6
 70
     1
102
RTVSPropertyOp7
 70
     1
102
RTVSPropertyOp8
 70
     1
102
RTVSPropertyOp9
 70
     1
102
RTVSPropertyOp10
 70
     1
102
RTVSPropertyOp11
 70
     1
102
RTVSPropertyOp12
 70
     1
102
RTVSPropertyOp13
 70
     1
102
RTVSPropertyOp14
 70
     1
102
RTVSPropertyOp15
 70
     1
102
RTVSPropertyOp16
 70
     1
102
RTVSPropertyOp17
 70
     1
102
RTVSPropertyOp18
 70
     1
102
RTVSPropertyOp19
 70
     1
102
RTVSPropertyOp20
 70
     1
102
RTVSPropertyOp21
 70
     1
102
RTVSPropertyOp22
 70
     1
102
RTVSPropertyOp23
 70
     1
102
RTVSPropertyOp24
 70
     1
102
RTVSPropertyOp25
 70
     1
102
RTVSPropertyOp26
 70
     1
102
RTVSPropertyOp27
 70
     1
  0
XRECORD
  5
8E1
102
{ACAD_REACTORS
330
8E0
102
}
330
8E0
100
AcDbXrecord
280
     1
102
RTVSPropertyOp0
 70
     0
102
RTVSPropertyOp1
 70
     0
102
RTVSPropertyOp2
 70
     0
102
RTVSPropertyOp3
 70
     0
102
RTVSPropertyOp4
 70
     0
102
RTVSPropertyOp5
 70
     0
102
RTVSPropertyOp6
 70
     0
102
RTVSPropertyOp7
 70
     0
102
RTVSPropertyOp8
 70
     0
102
RTVSPropertyOp9
 70
     0
102
RTVSPropertyOp10
 70
     0
102
RTVSPropertyOp11
 70
     0
102
RTVSPropertyOp12
 70
     0
102
RTVSPropertyOp13
 70
     0
102
RTVSPropertyOp14
 70
     2
102
RTVSPropertyOp15
 70
     0
102
RTVSPropertyOp16
 70
     0
102
RTVSPropertyOp17
 70
     0
102
RTVSPropertyOp18
 70
     0
102
RTVSPropertyOp19
 70
     0
102
RTVSPropertyOp20
 70
     0
102
RTVSPropertyOp21
 70
     0
102
RTVSPropertyOp22
 70
     0
102
RTVSPropertyOp23
 70
     0
102
RTVSPropertyOp24
 70
     0
102
RTVSPropertyOp25
 70
     0
102
RTVSPropertyOp26
 70
     0
102
RTVSPropertyOp27
 70
     0
  0
XRECORD
  5
8D1
102
{ACAD_REACTORS
330
8D0
102
}
330
8D0
100
AcDbXrecord
280
     1
102
RTVSPropertyOp0
 70
     1
102
RTVSPropertyOp1
 70
     1
102
RTVSPropertyOp2
 70
     1
102
RTVSPropertyOp3
 70
     1
102
RTVSPropertyOp4
 70
     1
102
RTVSPropertyOp5
 70
     1
102
RTVSPropertyOp6
 70
     1
102
RTVSPropertyOp7
 70
     1
102
RTVSPropertyOp8
 70
     1
102
RTVSPropertyOp9
 70
     1
102
RTVSPropertyOp10
 70
     1
102
RTVSPropertyOp11
 70
     1
102
RTVSPropertyOp12
 70
     1
102
RTVSPropertyOp13
 70
     1
102
RTVSPropertyOp14
 70
     1
102
RTVSPropertyOp15
 70
     1
102
RTVSPropertyOp16
 70
     1
102
RTVSPropertyOp17
 70
     1
102
RTVSPropertyOp18
 70
     1
102
RTVSPropertyOp19
 70
     1
102
RTVSPropertyOp20
 70
     1
102
RTVSPropertyOp21
 70
     1
102
RTVSPropertyOp22
 70
     1
102
RTVSPropertyOp23
 70
     1
102
RTVSPropertyOp24
 70
     1
102
RTVSPropertyOp25
 70
     1
102
RTVSPropertyOp26
 70
     1
102
RTVSPropertyOp27
 70
     1
  0
XRECORD
  5
8D7
102
{ACAD_REACTORS
330
8D6
102
}
330
8D6
100
AcDbXrecord
280
     1
102
RTVSPropertyOp0
 70
     1
102
RTVSPropertyOp1
 70
     1
102
RTVSPropertyOp2
 70
     1
102
RTVSPropertyOp3
 70
     1
102
RTVSPropertyOp4
 70
     1
102
RTVSPropertyOp5
 70
     1
102
RTVSPropertyOp6
 70
     1
102
RTVSPropertyOp7
 70
     1
102
RTVSPropertyOp8
 70
     1
102
RTVSPropertyOp9
 70
     1
102
RTVSPropertyOp10
 70
     1
102
RTVSPropertyOp11
 70
     1
102
RTVSPropertyOp12
 70
     1
102
RTVSPropertyOp13
 70
     1
102
RTVSPropertyOp14
 70
     1
102
RTVSPropertyOp15
 70
     1
102
RTVSPropertyOp16
 70
     1
102
RTVSPropertyOp17
 70
     1
102
RTVSPropertyOp18
 70
     1
102
RTVSPropertyOp19
 70
     1
102
RTVSPropertyOp20
 70
     1
102
RTVSPropertyOp21
 70
     1
102
RTVSPropertyOp22
 70
     1
102
RTVSPropertyOp23
 70
     1
102
RTVSPropertyOp24
 70
     1
102
RTVSPropertyOp25
 70
     1
102
RTVSPropertyOp26
 70
     1
102
RTVSPropertyOp27
 70
     1
  0
ENDSEC
  0
EOF
