  0
SECTION
  2
HEADER
  9
$ACADVER
  1
AC1015
  9
$ACADMAINTVER
 70
    20
  9
$DWGCODEPAGE
  3
ANSI_1252
  9
$INSBASE
 10
0.0
 20
0.0
 30
0.0
  9
$EXTMIN
 10
608.9062499999998
 20
145.417841649566
 30
0.0
  9
$EXTMAX
 10
2928.659237258969
 20
887.2374999999998
 30
0.0
  9
$LIMMIN
 10
0.0
 20
0.0
  9
$LIMMAX
 10
12.0
 20
9.0
  9
$ORTHOMODE
 70
     0
  9
$REGENMODE
 70
     1
  9
$FILLMODE
 70
     1
  9
$QTEXTMODE
 70
     0
  9
$MIRRTEXT
 70
     1
  9
$LTSCALE
 40
1.0
  9
$ATTMODE
 70
     1
  9
$TEXTSIZE
 40
0.0
  9
$TRACEWID
 40
0.05
  9
$TEXTSTYLE
  7
STANDARD
  9
$CLAYER
  8
0
  9
$CELTYPE
  6
CONTINUOUS
  9
$CECOLOR
 62
   256
  9
$CELTSCALE
 40
1.0
  9
$DISPSILH
 70
     0
  9
$DIMSCALE
 40
1.0
  9
$DIMASZ
 40
0.18
  9
$DIMEXO
 40
0.0625
  9
$DIMDLI
 40
0.38
  9
$DIMRND
 40
0.0
  9
$DIMDLE
 40
0.0
  9
$DIMEXE
 40
0.18
  9
$DIMTP
 40
0.0
  9
$DIMTM
 40
0.0
  9
$DIMTXT
 40
0.18
  9
$DIMCEN
 40
0.09
  9
$DIMTSZ
 40
0.0
  9
$DIMTOL
 70
     0
  9
$DIMLIM
 70
     0
  9
$DIMTIH
 70
     1
  9
$DIMTOH
 70
     1
  9
$DIMSE1
 70
     0
  9
$DIMSE2
 70
     0
  9
$DIMTAD
 70
     0
  9
$DIMZIN
 70
     0
  9
$DIMBLK
  1

  9
$DIMASO
 70
     1
  9
$DIMSHO
 70
     1
  9
$DIMPOST
  1

  9
$DIMAPOST
  1

  9
$DIMALT
 70
     0
  9
$DIMALTD
 70
     2
  9
$DIMALTF
 40
25.4
  9
$DIMLFAC
 40
1.0
  9
$DIMTOFL
 70
     0
  9
$DIMTVP
 40
0.0
  9
$DIMTIX
 70
     0
  9
$DIMSOXD
 70
     0
  9
$DIMSAH
 70
     0
  9
$DIMBLK1
  1

  9
$DIMBLK2
  1

  9
$DIMSTYLE
  2
STANDARD
  9
$DIMCLRD
 70
     0
  9
$DIMCLRE
 70
     0
  9
$DIMCLRT
 70
     0
  9
$DIMTFAC
 40
1.0
  9
$DIMGAP
 40
0.09
  9
$DIMJUST
 70
     0
  9
$DIMSD1
 70
     0
  9
$DIMSD2
 70
     0
  9
$DIMTOLJ
 70
     1
  9
$DIMTZIN
 70
     0
  9
$DIMALTZ
 70
     0
  9
$DIMALTTZ
 70
     0
  9
$DIMUPT
 70
     0
  9
$DIMDEC
 70
     4
  9
$DIMTDEC
 70
     4
  9
$DIMALTU
 70
     2
  9
$DIMALTTD
 70
     2
  9
$DIMTXSTY
  7
STANDARD
  9
$DIMAUNIT
 70
     0
  9
$DIMADEC
 70
     0
  9
$DIMALTRND
 40
0.0
  9
$DIMAZIN
 70
     0
  9
$DIMDSEP
 70
    46
  9
$DIMATFIT
 70
     3
  9
$DIMFRAC
 70
     0
  9
$DIMLDRBLK
  1

  9
$DIMLUNIT
 70
     2
  9
$DIMLWD
 70
    -2
  9
$DIMLWE
 70
    -2
  9
$DIMTMOVE
 70
     0
  9
$LUNITS
 70
     2
  9
$LUPREC
 70
     4
  9
$SKETCHINC
 40
0.1
  9
$FILLETRAD
 40
0.0
  9
$AUNITS
 70
     0
  9
$AUPREC
 70
     0
  9
$MENU
  1
acad
  9
$ELEVATION
 40
0.0
  9
$PELEVATION
 40
0.0
  9
$THICKNESS
 40
0.0
  9
$LIMCHECK
 70
     0
  9
$CHAMFERA
 40
0.0
  9
$CHAMFERB
 40
0.0
  9
$CHAMFERC
 40
0.0
  9
$CHAMFERD
 40
0.0
  9
$SKPOLY
 70
     0
  9
$TDCREATE
 40
2453238.647268519
  9
$TDUCREATE
 40
2453238.647268519
  9
$TDUPDATE
 40
2456695.705790799
  9
$TDUUPDATE
 40
2456695.705790799
  9
$TDINDWG
 40
0.0081582407
  9
$TDUSRTIMER
 40
0.0081566667
  9
$USRTIMER
 70
     1
  9
$ANGBASE
 50
0.0
  9
$ANGDIR
 70
     0
  9
$PDMODE
 70
     0
  9
$PDSIZE
 40
0.0
  9
$PLINEWID
 40
0.0
  9
$SPLFRAME
 70
     0
  9
$SPLINETYPE
 70
     6
  9
$SPLINESEGS
 70
    10
  9
$HANDSEED
  5
72C
  9
$SURFTAB1
 70
     6
  9
$SURFTAB2
 70
     6
  9
$SURFTYPE
 70
     6
  9
$SURFU
 70
     6
  9
$SURFV
 70
     6
  9
$UCSBASE
  2

  9
$UCSNAME
  2

  9
$UCSORG
 10
0.0
 20
0.0
 30
0.0
  9
$UCSXDIR
 10
1.0
 20
0.0
 30
0.0
  9
$UCSYDIR
 10
0.0
 20
1.0
 30
0.0
  9
$UCSORTHOREF
  2

  9
$UCSORTHOVIEW
 70
     0
  9
$UCSORGTOP
 10
0.0
 20
0.0
 30
0.0
  9
$UCSORGBOTTOM
 10
0.0
 20
0.0
 30
0.0
  9
$UCSORGLEFT
 10
0.0
 20
0.0
 30
0.0
  9
$UCSORGRIGHT
 10
0.0
 20
0.0
 30
0.0
  9
$UCSORGFRONT
 10
0.0
 20
0.0
 30
0.0
  9
$UCSORGBACK
 10
0.0
 20
0.0
 30
0.0
  9
$PUCSBASE
  2

  9
$PUCSNAME
  2

  9
$PUCSORG
 10
0.0
 20
0.0
 30
0.0
  9
$PUCSXDIR
 10
1.0
 20
0.0
 30
0.0
  9
$PUCSYDIR
 10
0.0
 20
1.0
 30
0.0
  9
$PUCSORTHOREF
  2

  9
$PUCSORTHOVIEW
 70
     0
  9
$PUCSORGTOP
 10
0.0
 20
0.0
 30
0.0
  9
$PUCSORGBOTTOM
 10
0.0
 20
0.0
 30
0.0
  9
$PUCSORGLEFT
 10
0.0
 20
0.0
 30
0.0
  9
$PUCSORGRIGHT
 10
0.0
 20
0.0
 30
0.0
  9
$PUCSORGFRONT
 10
0.0
 20
0.0
 30
0.0
  9
$PUCSORGBACK
 10
0.0
 20
0.0
 30
0.0
  9
$USERI1
 70
     0
  9
$USERI2
 70
     0
  9
$USERI3
 70
     0
  9
$USERI4
 70
     0
  9
$USERI5
 70
     0
  9
$USERR1
 40
0.0
  9
$USERR2
 40
0.0
  9
$USERR3
 40
0.0
  9
$USERR4
 40
0.0
  9
$USERR5
 40
0.0
  9
$WORLDVIEW
 70
     1
  9
$SHADEDGE
 70
     3
  9
$SHADEDIF
 70
    70
  9
$TILEMODE
 70
     1
  9
$MAXACTVP
 70
    16
  9
$PINSBASE
 10
0.0
 20
0.0
 30
0.0
  9
$PLIMCHECK
 70
     0
  9
$PEXTMIN
 10
-1.000000000000000E+20
 20
-1.000000000000000E+20
 30
-1.000000000000000E+20
  9
$PEXTMAX
 10
-1.000000000000000E+20
 20
-1.000000000000000E+20
 30
-1.000000000000000E+20
  9
$PLIMMIN
 10
0.0
 20
0.0
  9
$PLIMMAX
 10
12.0
 20
9.0
  9
$UNITMODE
 70
     0
  9
$VISRETAIN
 70
     0
  9
$PLINEGEN
 70
     1
  9
$PSLTSCALE
 70
     0
  9
$TREEDEPTH
 70
  3020
  9
$CMLSTYLE
  2
Standard
  9
$CMLJUST
 70
     0
  9
$CMLSCALE
 40
1.0
  9
$PROXYGRAPHICS
 70
     1
  9
$MEASUREMENT
 70
     0
  9
$CELWEIGHT
370
    -1
  9
$ENDCAPS
280
     0
  9
$JOINSTYLE
280
     0
  9
$LWDISPLAY
290
     0
  9
$INSUNITS
 70
     0
  9
$HYPERLINKBASE
  1

  9
$STYLESHEET
  1

  9
$XEDIT
290
     1
  9
$CEPSNTYPE
380
     0
  9
$PSTYLEMODE
290
     1
  9
$FINGERPRINTGUID
  2
{A9883519-6468-476B-82C6-517CAA7860E9}
  9
$VERSIONGUID
  2
{E80E5E41-F53F-4EEE-B55E-6F02A6252AF8}
  9
$EXTNAMES
290
     1
  9
$PSVPSCALE
 40
0.0
  9
$OLESTARTUP
290
     0
  0
ENDSEC
  0
SECTION
  2
CLASSES
  0
CLASS
  1
ACDBDICTIONARYWDFLT
  2
AcDbDictionaryWithDefault
  3
ObjectDBX Classes
 90
        0
280
     0
281
     0
  0
CLASS
  1
ACDBPLACEHOLDER
  2
AcDbPlaceHolder
  3
ObjectDBX Classes
 90
        0
280
     0
281
     0
  0
CLASS
  1
LAYOUT
  2
AcDbLayout
  3
ObjectDBX Classes
 90
        0
280
     0
281
     0
  0
CLASS
  1
MATERIAL
  2
AcDbMaterial
  3
ObjectDBX Classes
 90
     1153
280
     0
281
     0
  0
CLASS
  1
VISUALSTYLE
  2
AcDbVisualStyle
  3
ObjectDBX Classes
 90
     4095
280
     0
281
     0
  0
CLASS
  1
TABLESTYLE
  2
AcDbTableStyle
  3
ObjectDBX Classes
 90
     4095
280
     0
281
     0
  0
CLASS
  1
SCALE
  2
AcDbScale
  3
ObjectDBX Classes
 90
     1153
280
     0
281
     0
  0
CLASS
  1
MLEADERSTYLE
  2
AcDbMLeaderStyle
  3
ACDB_MLEADERSTYLE_CLASS
 90
     4095
280
     0
281
     0
  0
CLASS
  1
SORTENTSTABLE
  2
AcDbSortentsTable
  3
ObjectDBX Classes
 90
        0
280
     0
281
     0
  0
CLASS
  1
DICTIONARYVAR
  2
AcDbDictionaryVar
  3
ObjectDBX Classes
 90
        0
280
     0
281
     0
  0
CLASS
  1
CELLSTYLEMAP
  2
AcDbCellStyleMap
  3
ObjectDBX Classes
 90
     1152
280
     0
281
     0
  0
ENDSEC
  0
SECTION
  2
TABLES
  0
TABLE
  2
VPORT
  5
6A
330
0
100
AcDbSymbolTable
 70
     1
  0
VPORT
  5
C8
330
6A
100
AcDbSymbolTableRecord
100
AcDbViewportTableRecord
  2
*Active
 70
     0
 10
0.0
 20
0.0
 11
1.0
 21
1.0
 12
190.0623828323214
 22
-43.24989234467079
 13
0.0
 23
0.0
 14
0.0
 24
0.0
 15
0.0
 25
0.0
 16
0.0
 26
0.0
 36
1.0
 17
820.970523
 27
635.2999999999997
 37
0.0
 40
444.0628056627843
 41
1.897654584221748
 42
50.0
 43
0.0
 44
0.0
 50
0.0
 51
0.0
 71
     0
 72
   100
 73
     1
 74
     0
 75
     0
 76
     0
 77
     0
 78
     0
281
     0
 65
     0
110
0.0
120
0.0
130
0.0
111
1.0
121
0.0
131
0.0
112
0.0
122
1.0
132
0.0
 79
     0
146
0.0
  0
ENDTAB
  0
TABLE
  2
LTYPE
  5
67
330
0
100
AcDbSymbolTable
 70
     8
  0
LTYPE
  5
75
330
67
100
AcDbSymbolTableRecord
100
AcDbLinetypeTableRecord
  2
ByBlock
 70
     0
  3

 72
    65
 73
     0
 40
0.0
  0
LTYPE
  5
76
330
67
100
AcDbSymbolTableRecord
100
AcDbLinetypeTableRecord
  2
ByLayer
 70
     0
  3

 72
    65
 73
     0
 40
0.0
  0
LTYPE
  5
77
330
67
100
AcDbSymbolTableRecord
100
AcDbLinetypeTableRecord
  2
CONTINUOUS
 70
     0
  3
Solid line
 72
    65
 73
     0
 40
0.0
  0
LTYPE
  5
85
330
67
100
AcDbSymbolTableRecord
100
AcDbLinetypeTableRecord
  2
DOT
 70
     0
  3
. . . . . . . . . . . . . . . . . . . . . . . . . . . . . . . . .
 72
    65
 73
     2
 40
0.25
 49
0.0
 74
     0
 49
-0.25
 74
     0
  0
LTYPE
  5
86
330
67
100
AcDbSymbolTableRecord
100
AcDbLinetypeTableRecord
  2
HIDDEN
 70
     0
  3
__ __ __ __ __ __ __ __ __ __ __ __ __ __ __ __ __ __ __ __ __ 
 72
    65
 73
     2
 40
0.375
 49
0.25
 74
     0
 49
-0.125
 74
     0
  0
LTYPE
  5
87
330
67
100
AcDbSymbolTableRecord
100
AcDbLinetypeTableRecord
  2
DASHED
 70
     0
  3
__ __ __ __ __ __ __ __ __ __ __ __ __ __ __ __ __ __ __ __ __
 72
    65
 73
     2
 40
0.75
 49
0.5
 74
     0
 49
-0.25
 74
     0
  0
LTYPE
  5
88
330
67
100
AcDbSymbolTableRecord
100
AcDbLinetypeTableRecord
  2
DASHDOT
 70
     0
  3
__ . __ . __ . __ . __ . __ . __ . __ . __ . __ . __ . __ . _
 72
    65
 73
     4
 40
1.0
 49
0.5
 74
     0
 49
-0.25
 74
     0
 49
0.0
 74
     0
 49
-0.25
 74
     0
  0
LTYPE
  5
89
330
67
100
AcDbSymbolTableRecord
100
AcDbLinetypeTableRecord
  2
DIVIDE
 70
     0
  3
____ . . ____ . . ____ . . ____ . . ____ . . ____ . . ____ . .
 72
    65
 73
     6
 40
1.25
 49
0.5
 74
     0
 49
-0.25
 74
     0
 49
0.0
 74
     0
 49
-0.25
 74
     0
 49
0.0
 74
     0
 49
-0.25
 74
     0
  0
LTYPE
  5
8A
330
67
100
AcDbSymbolTableRecord
100
AcDbLinetypeTableRecord
  2
CENTER
 70
     0
  3
____ _ ____ _ ____ _ ____ _ ____ _ ____ _ ____ _ ____ _ ____ _
 72
    65
 73
     4
 40
2.0
 49
1.25
 74
     0
 49
-0.25
 74
     0
 49
0.25
 74
     0
 49
-0.25
 74
     0
  0
ENDTAB
  0
TABLE
  2
LAYER
  5
64
330
0
100
AcDbSymbolTable
 70
     4
  0
LAYER
  5
72
102
{ACAD_XDICTIONARY
360
1D9
102
}
330
64
100
AcDbSymbolTableRecord
100
AcDbLayerTableRecord
  2
0
 70
     0
 62
     7
  6
CONTINUOUS
370
    -3
390
71
  0
LAYER
  5
8B
102
{ACAD_XDICTIONARY
360
1DB
102
}
330
64
100
AcDbSymbolTableRecord
100
AcDbLayerTableRecord
  2
CONSTRUCTION_CLASS
 70
     0
 62
     7
  6
CONTINUOUS
370
    -3
390
71
  0
LAYER
  5
8C
102
{ACAD_XDICTIONARY
360
1DD
102
}
330
64
100
AcDbSymbolTableRecord
100
AcDbLayerTableRecord
  2
PATTERN_CLASS
 70
     0
 62
     7
  6
CONTINUOUS
370
    -3
390
71
  0
LAYER
  5
8D
102
{ACAD_XDICTIONARY
360
1DF
102
}
330
64
100
AcDbSymbolTableRecord
100
AcDbLayerTableRecord
  2
1
 70
     0
 62
     7
  6
CONTINUOUS
370
    -3
390
71
  0
ENDTAB
  0
TABLE
  2
STYLE
  5
65
330
0
100
AcDbSymbolTable
 70
     1
  0
STYLE
  5
73
330
65
100
AcDbSymbolTableRecord
100
AcDbTextStyleTableRecord
  2
STANDARD
 70
     0
 40
0.0
 41
1.0
 50
0.0
 71
     0
 42
0.0
  3
txt
  4

  0
ENDTAB
  0
TABLE
  2
VIEW
  5
68
330
0
100
AcDbSymbolTable
 70
     0
  0
ENDTAB
  0
TABLE
  2
UCS
  5
69
330
0
100
AcDbSymbolTable
 70
     0
  0
ENDTAB
  0
TABLE
  2
APPID
  5
6B
330
0
100
AcDbSymbolTable
 70
     3
  0
APPID
  5
74
330
6B
100
AcDbSymbolTableRecord
100
AcDbRegAppTableRecord
  2
ACAD
 70
     0
  0
APPID
  5
129
330
6B
100
AcDbSymbolTableRecord
100
AcDbRegAppTableRecord
  2
ACAD_EXEMPT_FROM_CAD_STANDARDS
 70
     0
  0
APPID
  5
2AC
330
6B
100
AcDbSymbolTableRecord
100
AcDbRegAppTableRecord
  2
ACAD_MLEADERVER
 70
     0
  0
ENDTAB
  0
TABLE
  2
DIMSTYLE
  5
6C
330
0
100
AcDbSymbolTable
 70
     2
100
AcDbDimStyleTable
 71
     1
340
8E
  0
DIMSTYLE
105
8E
330
6C
100
AcDbSymbolTableRecord
100
AcDbDimStyleTableRecord
  2
STANDARD
 70
     0
279
     2
340
73
  0
ENDTAB
  0
TABLE
  2
BLOCK_RECORD
  5
63
330
0
100
AcDbSymbolTable
 70
     1
  0
BLOCK_RECORD
  5
80
102
{ACAD_XDICTIONARY
360
126
102
}
330
63
100
AcDbSymbolTableRecord
100
AcDbBlockTableRecord
  2
*Model_Space
340
83
  0
BLOCK_RECORD
  5
7C
330
63
100
AcDbSymbolTableRecord
100
AcDbBlockTableRecord
  2
*Paper_Space
340
7F
  0
ENDTAB
  0
ENDSEC
  0
SECTION
  2
BLOCKS
  0
BLOCK
  5
81
330
80
100
AcDbEntity
  8
0
100
AcDbBlockBegin
  2
*Model_Space
 70
     0
 10
0.0
 20
0.0
 30
0.0
  3
*Model_Space
  1

  0
ENDBLK
  5
82
330
80
100
AcDbEntity
  8
0
100
AcDbBlockEnd
  0
BLOCK
  5
7D
330
7C
100
AcDbEntity
 67
     1
  8
0
100
AcDbBlockBegin
  2
*Paper_Space
 70
     0
 10
0.0
 20
0.0
 30
0.0
  3
*Paper_Space
  1

  0
ENDBLK
  5
7E
330
7C
100
AcDbEntity
 67
     1
  8
0
100
AcDbBlockEnd
  0
ENDSEC
  0
SECTION
  2
ENTITIES
  0
LINE
  5
91
330
80
100
AcDbEntity
  8
1
  6
Continuous
 62
     7
100
AcDbLine
 10
988.0437500000001
 20
471.85
 30
0.0
 11
875.0312499999999
 21
471.85
 31
0.0
  0
LINE
  5
93
330
80
100
AcDbEntity
  8
1
  6
Continuous
 62
     7
100
AcDbLine
 10
1055.268749999999
 20
604.725
 30
0.0
 11
964.0562499999999
 21
695.9437499999997
 31
0.0
  0
LINE
  5
94
330
80
100
AcDbEntity
  8
1
  6
Continuous
 62
     3
100
AcDbLine
 10
875.0312499999999
 20
383.3687499999999
 30
0.0
 11
875.0312499999999
 21
671.0812499999997
 31
0.0
  0
LINE
  5
95
330
80
100
AcDbEntity
  8
1
  6
Continuous
 62
     3
100
AcDbLine
 10
866.0937500000001
 20
616.0499999999997
 30
0.0
 11
692.5437500000002
 21
789.6062500000001
 31
0.0
  0
LINE
  5
96
330
80
100
AcDbEntity
  8
CONSTRUCTION_CLASS
  6
Continuous
 62
     3
100
AcDbLine
 10
877.575
 20
795.8687499999999
 30
0.0
 11
788.9375
 21
884.50625
 31
0.0
  0
LINE
  5
97
330
80
100
AcDbEntity
  8
1
  6
Continuous
 62
     3
100
AcDbLine
 10
716.0249999999997
 20
799.65625
 30
0.0
 11
778.14375
 21
861.7625
 31
0.0
  0
LINE
  5
98
330
80
100
AcDbEntity
  8
1
  6
Continuous
 62
     3
100
AcDbLine
 10
860.0812499999998
 20
607.1124999999997
 30
0.0
 11
608.9062499999998
 21
607.1124999999997
 31
0.0
  0
LINE
  5
99
330
80
100
AcDbEntity
  8
1
  6
Continuous
 62
     3
100
AcDbLine
 10
743.8749999999997
 20
471.85
 30
0.0
 11
608.9062499999998
 21
471.85
 31
0.0
  0
LINE
  5
9C
330
80
100
AcDbEntity
  8
1
  6
Continuous
 62
     3
100
AcDbLine
 10
841.35
 20
573.4312499999997
 30
0.0
 11
1018.44375
 21
750.525
 31
0.0
  0
LINE
  5
9F
330
80
100
AcDbEntity
  8
1
  6
Continuous
 62
     7
100
AcDbLine
 10
988.61875
 20
471.85
 30
0.0
 11
1003.7875
 21
483.69375
 31
0.0
  0
LINE
  5
A1
330
80
100
AcDbEntity
  8
1
  6
Continuous
 62
     7
100
AcDbLine
 10
1052.537499999999
 20
627.00625
 30
0.0
 11
973.63125
 21
705.90625
 31
0.0
  0
LINE
  5
A2
330
80
100
AcDbEntity
  8
1
  6
Continuous
 62
     7
100
AcDbLine
 10
893.3125
 20
786.225
 30
0.0
 11
873.9830020747122
 21
788.6102613127368
 31
0.0
  0
LINE
  5
A3
330
80
100
AcDbEntity
  8
1
  6
Continuous
 62
     7
100
AcDbLine
 10
1052.537499999999
 20
627.00625
 30
0.0
 11
1055.268749999999
 21
604.725
 31
0.0
  0
LINE
  5
A4
330
80
100
AcDbEntity
  8
1
  6
Continuous
 62
     7
100
AcDbLine
 10
875.1875
 20
481.9187499999999
 30
0.0
 11
875.1875
 21
471.8687499999998
 31
0.0
  0
LINE
  5
A5
330
80
100
AcDbEntity
  8
1
  6
Continuous
 62
     7
100
AcDbLine
 10
964.0562499999999
 20
695.9437499999997
 30
0.0
 11
973.7687499999999
 21
705.6375
 31
0.0
  0
LINE
  5
B4
330
80
100
AcDbEntity
  8
1
  6
Continuous
 62
     5
100
AcDbLine
 10
691.7124999999997
 20
887.2374999999998
 30
0.0
 11
696.7125
 21
887.2374999999998
 31
0.0
  0
LINE
  5
B5
330
80
100
AcDbEntity
  8
1
  6
Continuous
 62
     5
100
AcDbLine
 10
625.0
 20
538.91875
 30
0.0
 11
630.4375
 21
538.91875
 31
0.0
  0
LINE
  5
B6
330
80
100
AcDbEntity
  8
1
  6
Continuous
 62
     7
100
AcDbLine
 10
973.7312499999999
 20
705.80625
 30
0.0
 11
893.3125
 21
786.225
 31
0.0
  0
LINE
  5
B7
330
80
100
AcDbEntity
  8
1
  6
Continuous
 62
     7
100
AcDbLine
 10
875.0375
 20
471.85
 30
0.0
 11
761.44375
 21
471.85
 31
0.0
  0
LINE
  5
B8
330
80
100
AcDbEntity
  8
1
  6
Continuous
 62
     3
100
AcDbLine
 10
625.0
 20
471.85
 30
0.0
 11
618.44375
 21
495.5625
 31
0.0
  0
LINE
  5
B9
330
80
100
AcDbEntity
  8
1
  6
Continuous
 62
     3
100
AcDbLine
 10
625.0
 20
471.85
 30
0.0
 11
631.5562499999997
 21
495.5625
 31
0.0
  0
LINE
  5
BA
330
80
100
AcDbEntity
  8
1
  6
Continuous
 62
     3
100
AcDbLine
 10
631.5562499999997
 20
495.5625
 30
0.0
 11
618.44375
 21
495.5625
 31
0.0
  0
LINE
  5
BB
330
80
100
AcDbEntity
  8
1
  6
Continuous
 62
     3
100
AcDbLine
 10
699.25625
 20
782.8875
 30
0.0
 11
711.38125
 21
804.2999999999999
 31
0.0
  0
LINE
  5
BC
330
80
100
AcDbEntity
  8
1
  6
Continuous
 62
     3
100
AcDbLine
 10
699.25625
 20
782.8875
 30
0.0
 11
720.65625
 21
795.0312499999999
 31
0.0
  0
LINE
  5
BD
330
80
100
AcDbEntity
  8
1
  6
Continuous
 62
     3
100
AcDbLine
 10
720.65625
 20
795.0312499999999
 30
0.0
 11
711.38125
 21
804.2999999999999
 31
0.0
  0
LINE
  5
BE
330
80
100
AcDbEntity
  8
1
  6
Continuous
 62
     3
100
AcDbLine
 10
794.9125
 20
878.5312499999999
 30
0.0
 11
782.78125
 21
857.1312500000001
 31
0.0
  0
LINE
  5
BF
330
80
100
AcDbEntity
  8
1
  6
Continuous
 62
     3
100
AcDbLine
 10
794.9125
 20
878.5312499999999
 30
0.0
 11
773.50625
 21
866.3999999999999
 31
0.0
  0
LINE
  5
C0
330
80
100
AcDbEntity
  8
1
  6
Continuous
 62
     3
100
AcDbLine
 10
773.50625
 20
866.3999999999999
 30
0.0
 11
782.78125
 21
857.1312500000001
 31
0.0
  0
LINE
  5
C1
330
80
100
AcDbEntity
  8
1
  6
Continuous
 62
     3
100
AcDbLine
 10
625.0
 20
606.0
 30
0.0
 11
631.5562499999997
 21
582.2875
 31
0.0
  0
LINE
  5
C2
330
80
100
AcDbEntity
  8
1
  6
Continuous
 62
     3
100
AcDbLine
 10
625.0
 20
606.0
 30
0.0
 11
618.44375
 21
582.28125
 31
0.0
  0
LINE
  5
C3
330
80
100
AcDbEntity
  8
1
  6
Continuous
 62
     3
100
AcDbLine
 10
618.44375
 20
582.28125
 30
0.0
 11
631.5562499999997
 21
582.2875
 31
0.0
  0
LINE
  5
C4
330
80
100
AcDbEntity
  8
1
  6
Continuous
 62
     3
100
AcDbLine
 10
747.08125
 20
830.7062499999997
 30
0.0
 11
710.3937499999997
 21
867.3937499999999
 31
0.0
  0
LINE
  5
C5
330
80
100
AcDbEntity
  8
1
  6
Continuous
 62
     3
100
AcDbLine
 10
625.0
 20
582.28125
 30
0.0
 11
625.0
 21
558.0
 31
0.0
  0
LINE
  5
C6
330
80
100
AcDbEntity
  8
1
  6
Continuous
 62
     3
100
AcDbLine
 10
625.0
 20
518.0
 30
0.0
 11
625.0
 21
495.5625
 31
0.0
  0
LINE
  5
3A1
330
80
100
AcDbEntity
  8
1
  6
Continuous
 62
     4
100
AcDbLine
 10
2034.407884895134
 20
431.4072399312521
 30
0.0
 11
2017.706163798907
 21
448.1089610274791
 31
0.0
1001
ACAD
1010
0.0
1020
0.0
1030
0.0
  0
LINE
  5
3A2
330
80
100
AcDbEntity
  8
1
  6
Continuous
 62
     4
100
AcDbLine
 10
2034.731094579903
 20
441.6906319642819
 30
0.0
 11
2018.241325315781
 21
458.1804012284035
 31
0.0
1001
ACAD
1010
0.0
1020
0.0
1030
0.0
  0
LINE
  5
3A3
330
80
100
AcDbEntity
  8
1
  6
Continuous
 62
     4
100
AcDbLine
 10
2035.05430426467
 20
451.9740239973123
 30
0.0
 11
2018.776486832655
 21
468.2518414293276
 31
0.0
1001
ACAD
1010
0.0
1020
0.0
1030
0.0
  0
LINE
  5
3A4
330
80
100
AcDbEntity
  8
1
  6
Continuous
 62
     4
100
AcDbLine
 10
2035.646123789427
 20
461.9888061903542
 30
0.0
 11
2019.867108985191
 21
477.7678209945902
 31
0.0
1001
ACAD
1010
0.0
1020
0.0
1030
0.0
  0
LINE
  5
3A5
330
80
100
AcDbEntity
  8
1
  6
Continuous
 62
     4
100
AcDbLine
 10
2036.562188268028
 20
471.6793434295509
 30
0.0
 11
2020.973337043285
 21
487.2681946542943
 31
0.0
1001
ACAD
1010
0.0
1020
0.0
1030
0.0
  0
LINE
  5
3A6
330
80
100
AcDbEntity
  8
1
  6
Continuous
 62
     4
100
AcDbLine
 10
2037.478252746629
 20
481.3698806687478
 30
0.0
 11
2022.079565101378
 21
496.768568313999
 31
0.0
1001
ACAD
1010
0.0
1020
0.0
1030
0.0
  0
LINE
  5
3A7
330
80
100
AcDbEntity
  8
1
  6
Continuous
 62
     4
100
AcDbLine
 10
2038.726775835619
 20
490.7279592975566
 30
0.0
 11
2023.69178275505
 21
505.7629523781263
 31
0.0
1001
ACAD
1010
0.0
1020
0.0
1030
0.0
  0
LINE
  5
3A8
330
80
100
AcDbEntity
  8
1
  6
Continuous
 62
     4
100
AcDbLine
 10
2040.177035411214
 20
499.8843014397599
 30
0.0
 11
2025.31490646751
 21
514.7464303834632
 31
0.0
1001
ACAD
1010
0.0
1020
0.0
1030
0.0
  0
LINE
  5
3A9
330
80
100
AcDbEntity
  8
1
  6
Continuous
 62
     4
100
AcDbLine
 10
2041.627294986808
 20
509.0406435819637
 30
0.0
 11
2026.938030179971
 21
523.7299083888006
 31
0.0
1001
ACAD
1010
0.0
1020
0.0
1030
0.0
  0
LINE
  5
3AA
330
80
100
AcDbEntity
  8
1
  6
Continuous
 62
     4
100
AcDbLine
 10
2043.394511112872
 20
517.8800291736985
 30
0.0
 11
2028.960093472985
 21
532.3144468135859
 31
0.0
1001
ACAD
1010
0.0
1020
0.0
1030
0.0
  0
LINE
  5
3AB
330
80
100
AcDbEntity
  8
1
  6
Continuous
 62
     4
100
AcDbLine
 10
2045.332264587954
 20
526.5488774164141
 30
0.0
 11
2031.056866576089
 21
540.8242754282793
 31
0.0
1001
ACAD
1010
0.0
1020
0.0
1030
0.0
  0
LINE
  5
3AC
330
80
100
AcDbEntity
  8
1
  6
Continuous
 62
     4
100
AcDbLine
 10
2047.270018063037
 20
535.2177256591297
 30
0.0
 11
2033.153639679194
 21
549.3341040429732
 31
0.0
1001
ACAD
1010
0.0
1020
0.0
1030
0.0
  0
LINE
  5
3AD
330
80
100
AcDbEntity
  8
1
  6
Continuous
 62
     4
100
AcDbLine
 10
2049.454527108135
 20
543.63981833183
 30
0.0
 11
2035.502866830185
 21
557.5914786097806
 31
0.0
1001
ACAD
1010
0.0
1020
0.0
1030
0.0
  0
LINE
  5
3AE
330
80
100
AcDbEntity
  8
1
  6
Continuous
 62
     4
100
AcDbLine
 10
2051.842341202993
 20
551.8586059547705
 30
0.0
 11
2038.038574615125
 21
565.6623725426375
 31
0.0
1001
ACAD
1010
0.0
1020
0.0
1030
0.0
  0
LINE
  5
3AF
330
80
100
AcDbEntity
  8
1
  6
Continuous
 62
     4
100
AcDbLine
 10
2054.23015529785
 20
560.0773935777112
 30
0.0
 11
2040.574282400067
 21
573.7332664754945
 31
0.0
1001
ACAD
1010
0.0
1020
0.0
1030
0.0
  0
LINE
  5
3B0
330
80
100
AcDbEntity
  8
1
  6
Continuous
 62
     4
100
AcDbLine
 10
2056.756090946031
 20
568.1580596473287
 30
0.0
 11
2043.188269162754
 21
581.725881430606
 31
0.0
1001
ACAD
1010
0.0
1020
0.0
1030
0.0
  0
LINE
  5
3B1
330
80
100
AcDbEntity
  8
1
  6
Continuous
 62
     4
100
AcDbLine
 10
2059.563873693623
 20
575.956878617535
 30
0.0
 11
2046.135004976894
 21
589.3857473342641
 31
0.0
1001
ACAD
1010
0.0
1020
0.0
1030
0.0
  0
LINE
  5
3B2
330
80
100
AcDbEntity
  8
1
  6
Continuous
 62
     4
100
AcDbLine
 10
2062.371656441214
 20
583.7556975877418
 30
0.0
 11
2049.081740791034
 21
597.0456132379225
 31
0.0
1001
ACAD
1010
0.0
1020
0.0
1030
0.0
  0
LINE
  5
3B3
330
80
100
AcDbEntity
  8
1
  6
Continuous
 62
     4
100
AcDbLine
 10
2065.18130802867
 20
591.5526477180841
 30
0.0
 11
2052.028476605174
 21
604.7054791415806
 31
0.0
1001
ACAD
1010
0.0
1020
0.0
1030
0.0
  0
LINE
  5
3B4
330
80
100
AcDbEntity
  8
1
  6
Continuous
 62
     4
100
AcDbLine
 10
2068.384908015419
 20
598.9556494491332
 30
0.0
 11
2055.247869402675
 21
612.0926880618781
 31
0.0
1001
ACAD
1010
0.0
1020
0.0
1030
0.0
  0
LINE
  5
3B5
330
80
100
AcDbEntity
  8
1
  6
Continuous
 62
     4
100
AcDbLine
 10
2071.588508002168
 20
606.3586511801826
 30
0.0
 11
2058.583276339772
 21
619.3638828425783
 31
0.0
1001
ACAD
1010
0.0
1020
0.0
1030
0.0
  0
LINE
  5
3B6
330
80
100
AcDbEntity
  8
1
  6
Continuous
 62
     4
100
AcDbLine
 10
2074.792107988917
 20
613.7616529112316
 30
0.0
 11
2061.918683276871
 21
626.6350776232782
 31
0.0
1001
ACAD
1010
0.0
1020
0.0
1030
0.0
  0
LINE
  5
3B7
330
80
100
AcDbEntity
  8
1
  6
Continuous
 62
     4
100
AcDbLine
 10
2078.217474030176
 20
620.9428885877708
 30
0.0
 11
2065.299386465718
 21
633.8609761522286
 31
0.0
1001
ACAD
1010
0.0
1020
0.0
1030
0.0
  0
LINE
  5
3B8
330
80
100
AcDbEntity
  8
1
  6
Continuous
 62
     4
100
AcDbLine
 10
2081.797651378849
 20
627.9693129568967
 30
0.0
 11
2069.005730913255
 21
640.761233422491
 31
0.0
1001
ACAD
1010
0.0
1020
0.0
1030
0.0
  0
LINE
  5
3B9
330
80
100
AcDbEntity
  8
1
  6
Continuous
 62
     4
100
AcDbLine
 10
2085.377828727521
 20
634.9957373260227
 30
0.0
 11
2072.71207536079
 21
647.6614906927535
 31
0.0
1001
ACAD
1010
0.0
1020
0.0
1030
0.0
  0
LINE
  5
3BA
330
80
100
AcDbEntity
  8
1
  6
Continuous
 62
     4
100
AcDbLine
 10
2088.992311044051
 20
641.9878567272909
 30
0.0
 11
2076.418419808327
 21
654.5617479630161
 31
0.0
1001
ACAD
1010
0.0
1020
0.0
1030
0.0
  0
LINE
  5
3BB
330
80
100
AcDbEntity
  8
1
  6
Continuous
 62
     4
100
AcDbLine
 10
2092.933978231398
 20
648.6527912577424
 30
0.0
 11
2080.29132879909
 21
661.2954406900505
 31
0.0
1001
ACAD
1010
0.0
1020
0.0
1030
0.0
  0
LINE
  5
3BC
330
80
100
AcDbEntity
  8
1
  6
Continuous
 62
     4
100
AcDbLine
 10
2096.875645418744
 20
655.3177257881937
 30
0.0
 11
2084.354817125209
 21
667.8385540817294
 31
0.0
1001
ACAD
1010
0.0
1020
0.0
1030
0.0
  0
LINE
  5
3BD
330
80
100
AcDbEntity
  8
1
  6
Continuous
 62
     4
100
AcDbLine
 10
2100.817312606091
 20
661.9826603186452
 30
0.0
 11
2088.418305451329
 21
674.3816674734083
 31
0.0
1001
ACAD
1010
0.0
1020
0.0
1030
0.0
  0
LINE
  5
3BE
330
80
100
AcDbEntity
  8
1
  6
Continuous
 62
     4
100
AcDbLine
 10
2104.94675662349
 20
668.4598180190447
 30
0.0
 11
2092.481793777447
 21
680.9247808650873
 31
0.0
1001
ACAD
1010
0.0
1020
0.0
1030
0.0
  0
LINE
  5
3BF
330
80
100
AcDbEntity
  8
1
  6
Continuous
 62
     4
100
AcDbLine
 10
2109.238420668092
 20
674.7747556922405
 30
0.0
 11
2096.804937046342
 21
687.208239313991
 31
0.0
1001
ACAD
1010
0.0
1020
0.0
1030
0.0
  0
LINE
  5
3C0
330
80
100
AcDbEntity
  8
1
  6
Continuous
 62
     4
100
AcDbLine
 10
2113.530084712694
 20
681.0896933654362
 30
0.0
 11
2101.215215596603
 21
693.4045624815287
 31
0.0
1001
ACAD
1010
0.0
1020
0.0
1030
0.0
  0
LINE
  5
3C1
330
80
100
AcDbEntity
  8
1
  6
Continuous
 62
     4
100
AcDbLine
 10
2117.821748757298
 20
687.404631038632
 30
0.0
 11
2105.625494146863
 21
699.6008856490662
 31
0.0
1001
ACAD
1010
0.0
1020
0.0
1030
0.0
  0
LINE
  5
3C2
330
80
100
AcDbEntity
  8
1
  6
Continuous
 62
     4
100
AcDbLine
 10
2122.430429789274
 20
693.4025517244532
 30
0.0
 11
2110.035772697123
 21
705.7972088166036
 31
0.0
1001
ACAD
1010
0.0
1020
0.0
1030
0.0
  0
LINE
  5
3C3
330
80
100
AcDbEntity
  8
1
  6
Continuous
 62
     4
100
AcDbLine
 10
2127.063789444628
 20
699.3757937868967
 30
0.0
 11
2114.780090700151
 21
711.6594925313752
 31
0.0
1001
ACAD
1010
0.0
1020
0.0
1030
0.0
  0
LINE
  5
3C4
330
80
100
AcDbEntity
  8
1
  6
Continuous
 62
     4
100
AcDbLine
 10
2131.697149099984
 20
705.3490358493402
 30
0.0
 11
2119.5298885776
 21
717.5162963717241
 31
0.0
1001
ACAD
1010
0.0
1020
0.0
1030
0.0
  0
LINE
  5
3C5
330
80
100
AcDbEntity
  8
1
  6
Continuous
 62
     4
100
AcDbLine
 10
2136.425663042954
 20
711.2271236241683
 30
0.0
 11
2124.279686455049
 21
723.3731002120727
 31
0.0
1001
ACAD
1010
0.0
1020
0.0
1030
0.0
  0
LINE
  5
3C6
330
80
100
AcDbEntity
  8
1
  6
Continuous
 62
     4
100
AcDbLine
 10
2141.39532973671
 20
716.8640586482109
 30
0.0
 11
2129.092013394628
 21
729.1673749902919
 31
0.0
1001
ACAD
1010
0.0
1020
0.0
1030
0.0
  0
LINE
  5
3C7
330
80
100
AcDbEntity
  8
1
  6
Continuous
 62
     4
100
AcDbLine
 10
2146.364996430465
 20
722.5009936722528
 30
0.0
 11
2134.176900864917
 21
734.6890892378008
 31
0.0
1001
ACAD
1010
0.0
1020
0.0
1030
0.0
  0
LINE
  5
3C8
330
80
100
AcDbEntity
  8
1
  6
Continuous
 62
     4
100
AcDbLine
 10
2151.334663124221
 20
728.1379286962951
 30
0.0
 11
2139.261788335206
 21
740.2108034853097
 31
0.0
1001
ACAD
1010
0.0
1020
0.0
1030
0.0
  0
LINE
  5
3C9
330
80
100
AcDbEntity
  8
1
  6
Continuous
 62
     4
100
AcDbLine
 10
2156.509989205336
 20
733.5692043329782
 30
0.0
 11
2144.346675805496
 21
745.732517732819
 31
0.0
1001
ACAD
1010
0.0
1020
0.0
1030
0.0
  0
LINE
  5
3CA
330
80
100
AcDbEntity
  8
1
  6
Continuous
 62
     4
100
AcDbLine
 10
2161.813311224225
 20
738.8724840318882
 30
0.0
 11
2149.555557671655
 21
751.130237584458
 31
0.0
1001
ACAD
1010
0.0
1020
0.0
1030
0.0
  0
LINE
  5
3CB
330
80
100
AcDbEntity
  8
1
  6
Continuous
 62
     4
100
AcDbLine
 10
2167.116633243113
 20
744.1757637307978
 30
0.0
 11
2154.973802718448
 21
756.3185942554635
 31
0.0
1001
ACAD
1010
0.0
1020
0.0
1030
0.0
  0
LINE
  5
3CC
330
80
100
AcDbEntity
  8
1
  6
Continuous
 62
     4
100
AcDbLine
 10
2172.419955262002
 20
749.4790434297077
 30
0.0
 11
2160.392047765241
 21
761.5069509264685
 31
0.0
1001
ACAD
1010
0.0
1020
0.0
1030
0.0
  0
LINE
  5
3CD
330
80
100
AcDbEntity
  8
1
  6
Continuous
 62
     4
100
AcDbLine
 10
2178.037773699817
 20
754.4678267096903
 30
0.0
 11
2165.810292812034
 21
766.6953075974736
 31
0.0
1001
ACAD
1010
0.0
1020
0.0
1030
0.0
  0
LINE
  5
3CE
330
80
100
AcDbEntity
  8
1
  6
Continuous
 62
     4
100
AcDbLine
 10
2183.674751211352
 20
759.4374509159546
 30
0.0
 11
2171.414046867383
 21
771.698155259923
 31
0.0
1001
ACAD
1010
0.0
1020
0.0
1030
0.0
  0
LINE
  5
3CF
330
80
100
AcDbEntity
  8
1
  6
Continuous
 62
     4
100
AcDbLine
 10
2189.311728722885
 20
764.4070751222186
 30
0.0
 11
2177.166559876734
 21
776.55224396837
 31
0.0
1001
ACAD
1010
0.0
1020
0.0
1030
0.0
  0
LINE
  5
3D0
330
80
100
AcDbEntity
  8
1
  6
Continuous
 62
     4
100
AcDbLine
 10
2195.0415352337
 20
769.2838703292022
 30
0.0
 11
2182.919072886086
 21
781.4063326768165
 31
0.0
1001
ACAD
1010
0.0
1020
0.0
1030
0.0
  0
LINE
  5
3D1
330
80
100
AcDbEntity
  8
1
  6
Continuous
 62
     4
100
AcDbLine
 10
2201.014820291511
 20
773.9171869891891
 30
0.0
 11
2188.671585895437
 21
786.2604213852637
 31
0.0
1001
ACAD
1010
0.0
1020
0.0
1030
0.0
  0
LINE
  5
3D2
330
80
100
AcDbEntity
  8
1
  6
Continuous
 62
     4
100
AcDbLine
 10
2206.988105349322
 20
778.5505036491762
 30
0.0
 11
2194.677726901149
 21
790.8608820973499
 31
0.0
1001
ACAD
1010
0.0
1020
0.0
1030
0.0
  0
LINE
  5
3D3
330
80
100
AcDbEntity
  8
1
  6
Continuous
 62
     4
100
AcDbLine
 10
2212.961390407134
 20
783.183820309163
 30
0.0
 11
2200.768089682592
 21
795.3771210337048
 31
0.0
1001
ACAD
1010
0.0
1020
0.0
1030
0.0
  0
LINE
  5
3D4
330
80
100
AcDbEntity
  8
1
  6
Continuous
 62
     4
100
AcDbLine
 10
2219.150351048135
 20
787.6014613859597
 30
0.0
 11
2206.858452464036
 21
799.8933599700595
 31
0.0
1001
ACAD
1010
0.0
1020
0.0
1030
0.0
  0
LINE
  5
3D5
330
80
100
AcDbEntity
  8
1
  6
Continuous
 62
     4
100
AcDbLine
 10
2225.465332581311
 20
791.8930815705831
 30
0.0
 11
2212.948815245479
 21
804.4095989064148
 31
0.0
1001
ACAD
1010
0.0
1020
0.0
1030
0.0
  0
LINE
  5
3D6
330
80
100
AcDbEntity
  8
1
  6
Continuous
 62
     4
100
AcDbLine
 10
2231.780314114486
 20
796.1847017552063
 30
0.0
 11
2219.374513478365
 21
808.5905023913262
 31
0.0
1001
ACAD
1010
0.0
1020
0.0
1030
0.0
  0
LINE
  5
3D7
330
80
100
AcDbEntity
  8
1
  6
Continuous
 62
     4
100
AcDbLine
 10
2238.103157301491
 20
800.468460285999
 30
0.0
 11
2225.809094607246
 21
812.7625229802433
 31
0.0
1001
ACAD
1010
0.0
1020
0.0
1030
0.0
  0
LINE
  5
3D8
330
80
100
AcDbEntity
  8
1
  6
Continuous
 62
     4
100
AcDbLine
 10
2244.768136941816
 20
804.4100823634723
 30
0.0
 11
2232.243675736127
 21
816.9345435691607
 31
0.0
1001
ACAD
1010
0.0
1020
0.0
1030
0.0
  0
LINE
  5
3D9
330
80
100
AcDbEntity
  8
1
  6
Continuous
 62
     4
100
AcDbLine
 10
2251.43311658214
 20
808.3517044409457
 30
0.0
 11
2238.763230056314
 21
821.0215909667727
 31
0.0
1001
ACAD
1010
0.0
1020
0.0
1030
0.0
  0
LINE
  5
3DA
330
80
100
AcDbEntity
  8
1
  6
Continuous
 62
     4
100
AcDbLine
 10
2258.098096222465
 20
812.293326518419
 30
0.0
 11
2245.551394534591
 21
824.8400282062936
 31
0.0
1001
ACAD
1010
0.0
1020
0.0
1030
0.0
  0
LINE
  5
3DB
330
80
100
AcDbEntity
  8
1
  6
Continuous
 62
     4
100
AcDbLine
 10
2264.9308370202
 20
816.0671874384826
 30
0.0
 11
2252.339559012868
 21
828.6584654458145
 31
0.0
1001
ACAD
1010
0.0
1020
0.0
1030
0.0
  0
LINE
  5
3DC
330
80
100
AcDbEntity
  8
1
  6
Continuous
 62
     4
100
AcDbLine
 10
2271.957308177143
 20
819.6473179993377
 30
0.0
 11
2259.127723491145
 21
832.4769026853356
 31
0.0
1001
ACAD
1010
0.0
1020
0.0
1030
0.0
  0
LINE
  5
3DD
330
80
100
AcDbEntity
  8
1
  6
Continuous
 62
     4
100
AcDbLine
 10
2278.983779334087
 20
823.2274485601925
 30
0.0
 11
2266.122397193679
 21
836.0888307006003
 31
0.0
1001
ACAD
1010
0.0
1020
0.0
1030
0.0
  0
LINE
  5
3DE
330
80
100
AcDbEntity
  8
1
  6
Continuous
 62
     4
100
AcDbLine
 10
2286.01025049103
 20
826.8075791210474
 30
0.0
 11
2273.276825406801
 21
839.541004205277
 31
0.0
1001
ACAD
1010
0.0
1020
0.0
1030
0.0
  0
LINE
  5
3DF
330
80
100
AcDbEntity
  8
1
  6
Continuous
 62
     4
100
AcDbLine
 10
2293.402037428494
 20
830.0223939013827
 30
0.0
 11
2280.431253619922
 21
842.9931777099536
 31
0.0
1001
ACAD
1010
0.0
1020
0.0
1030
0.0
  0
LINE
  5
3E0
330
80
100
AcDbEntity
  8
1
  6
Continuous
 62
     4
100
AcDbLine
 10
2300.805088113558
 20
833.2259449341162
 30
0.0
 11
2287.585681833044
 21
846.4453512146302
 31
0.0
1001
ACAD
1010
0.0
1020
0.0
1030
0.0
  0
LINE
  5
3E1
330
80
100
AcDbEntity
  8
1
  6
Continuous
 62
     4
100
AcDbLine
 10
2308.208138798623
 20
836.4294959668495
 30
0.0
 11
2295.10721573688
 21
849.5304190285921
 31
0.0
1001
ACAD
1010
0.0
1020
0.0
1030
0.0
  0
LINE
  5
3E2
330
80
100
AcDbEntity
  8
1
  6
Continuous
 62
     4
100
AcDbLine
 10
2315.83058367219
 20
839.4136528110802
 30
0.0
 11
2302.644355546743
 21
852.5998809365264
 31
0.0
1001
ACAD
1010
0.0
1020
0.0
1030
0.0
  0
LINE
  5
3E3
330
80
100
AcDbEntity
  8
1
  6
Continuous
 62
     4
100
AcDbLine
 10
2323.629454333319
 20
842.2213838677492
 30
0.0
 11
2310.181495356608
 21
855.6693428444603
 31
0.0
1001
ACAD
1010
0.0
1020
0.0
1030
0.0
  0
LINE
  5
3E4
330
80
100
AcDbEntity
  8
1
  6
Continuous
 62
     4
100
AcDbLine
 10
2331.428324994448
 20
845.0291149244185
 30
0.0
 11
2317.896492727351
 21
858.5609471915162
 31
0.0
1001
ACAD
1010
0.0
1020
0.0
1030
0.0
  0
LINE
  5
3E5
330
80
100
AcDbEntity
  8
1
  6
Continuous
 62
     4
100
AcDbLine
 10
2339.32384226309
 20
847.7401993735746
 30
0.0
 11
2325.837180571869
 21
861.2268610647962
 31
0.0
1001
ACAD
1010
0.0
1020
0.0
1030
0.0
  0
LINE
  5
3E6
330
80
100
AcDbEntity
  8
1
  6
Continuous
 62
     4
100
AcDbLine
 10
2347.542684996384
 20
850.1279583580792
 30
0.0
 11
2333.777868416387
 21
863.8927749380759
 31
0.0
1001
ACAD
1010
0.0
1020
0.0
1030
0.0
  0
LINE
  5
3E7
330
80
100
AcDbEntity
  8
1
  6
Continuous
 62
     4
100
AcDbLine
 10
2355.761527729677
 20
852.5157173425837
 30
0.0
 11
2341.728114219139
 21
866.5491308531221
 31
0.0
1001
ACAD
1010
0.0
1020
0.0
1030
0.0
  0
LINE
  5
3E8
330
80
100
AcDbEntity
  8
1
  6
Continuous
 62
     4
100
AcDbLine
 10
2363.985210429499
 20
854.8986363605605
 30
0.0
 11
2350.098418241906
 21
868.7854285481543
 31
0.0
1001
ACAD
1010
0.0
1020
0.0
1030
0.0
  0
LINE
  5
3E9
330
80
100
AcDbEntity
  8
1
  6
Continuous
 62
     4
100
AcDbLine
 10
2372.654118036211
 20
856.8363304716463
 30
0.0
 11
2358.468722264672
 21
871.0217262431863
 31
0.0
1001
ACAD
1010
0.0
1020
0.0
1030
0.0
  0
LINE
  5
3EA
330
80
100
AcDbEntity
  8
1
  6
Continuous
 62
     4
100
AcDbLine
 10
2381.323025642923
 20
858.7740245827323
 30
0.0
 11
2366.839026287437
 21
873.2580239382185
 31
0.0
1001
ACAD
1010
0.0
1020
0.0
1030
0.0
  0
LINE
  5
3EB
330
80
100
AcDbEntity
  8
1
  6
Continuous
 62
     4
100
AcDbLine
 10
2389.991933249635
 20
860.7117186938184
 30
0.0
 11
2375.540744124774
 21
875.16290781868
 31
0.0
1001
ACAD
1010
0.0
1020
0.0
1030
0.0
  0
LINE
  5
3EC
330
80
100
AcDbEntity
  8
1
  6
Continuous
 62
     4
100
AcDbLine
 10
2399.103912335196
 20
862.2063413260562
 30
0.0
 11
2384.373107761472
 21
876.9371458997808
 31
0.0
1001
ACAD
1010
0.0
1020
0.0
1030
0.0
  0
LINE
  5
3ED
330
80
100
AcDbEntity
  8
1
  6
Continuous
 62
     4
100
AcDbLine
 10
2408.260319136573
 20
863.6565362424775
 30
0.0
 11
2393.205471398169
 21
878.7113839808814
 31
0.0
1001
ACAD
1010
0.0
1020
0.0
1030
0.0
  0
LINE
  5
3EE
330
80
100
AcDbEntity
  8
1
  6
Continuous
 62
     4
100
AcDbLine
 10
2417.41672593795
 20
865.1067311588986
 30
0.0
 11
2402.308546993465
 21
880.2149101033839
 31
0.0
1001
ACAD
1010
0.0
1020
0.0
1030
0.0
  0
LINE
  5
3EF
330
80
100
AcDbEntity
  8
1
  6
Continuous
 62
     4
100
AcDbLine
 10
2427.073521859981
 20
866.0565369546658
 30
0.0
 11
2411.643350301559
 21
881.4867085130885
 31
0.0
1001
ACAD
1010
0.0
1020
0.0
1030
0.0
  0
LINE
  5
3F0
330
80
100
AcDbEntity
  8
1
  6
Continuous
 62
     4
100
AcDbLine
 10
2436.764130382055
 20
866.9725301503895
 30
0.0
 11
2420.978153609652
 21
882.7585069227934
 31
0.0
1001
ACAD
1010
0.0
1020
0.0
1030
0.0
  0
LINE
  5
3F1
330
80
100
AcDbEntity
  8
1
  6
Continuous
 62
     4
100
AcDbLine
 10
2446.517581673595
 20
867.8256805766496
 30
0.0
 11
2430.589091207386
 21
883.7541710428574
 31
0.0
1001
ACAD
1010
0.0
1020
0.0
1030
0.0
  0
LINE
  5
3F2
330
80
100
AcDbEntity
  8
1
  6
Continuous
 62
     4
100
AcDbLine
 10
2456.801053345984
 20
868.1488106220578
 30
0.0
 11
2440.476808520481
 21
884.4730554475606
 31
0.0
1001
ACAD
1010
0.0
1020
0.0
1030
0.0
  0
LINE
  5
3F3
330
80
100
AcDbEntity
  8
1
  6
Continuous
 62
     4
100
AcDbLine
 10
2467.084525018374
 20
868.4719406674657
 30
0.0
 11
2450.364525833576
 21
885.1919398522642
 31
0.0
1001
ACAD
1010
0.0
1020
0.0
1030
0.0
  0
LINE
  5
3F4
330
80
100
AcDbEntity
  8
1
  6
Continuous
 62
     4
100
AcDbLine
 10
2914.442646053728
 20
431.7204213499096
 30
0.0
 11
2911.41862803093
 21
434.7444393727088
 31
0.0
1001
ACAD
1010
0.0
1020
0.0
1030
0.0
  0
LINE
  5
3F5
330
80
100
AcDbEntity
  8
1
  6
Continuous
 62
     4
100
AcDbLine
 10
2477.653555023663
 20
868.5095123799762
 30
0.0
 11
2460.629003183948
 21
885.5340642196901
 31
0.0
1001
ACAD
1010
0.0
1020
0.0
1030
0.0
  0
LINE
  5
3F6
330
80
100
AcDbEntity
  8
1
  6
Continuous
 62
     4
100
AcDbLine
 10
2921.165486308231
 20
435.6041828132055
 30
0.0
 11
2911.074532233511
 21
445.6951368879258
 31
0.0
1001
ACAD
1010
0.0
1020
0.0
1030
0.0
  0
LINE
  5
3F7
330
80
100
AcDbEntity
  8
1
  6
Continuous
 62
     4
100
AcDbLine
 10
2488.604342849485
 20
868.1653262719507
 30
0.0
 11
2471.133235443213
 21
885.6364336782233
 31
0.0
1001
ACAD
1010
0.0
1020
0.0
1030
0.0
  0
LINE
  5
3F8
330
80
100
AcDbEntity
  8
1
  6
Continuous
 62
     4
100
AcDbLine
 10
2927.888326562733
 20
439.4879442765015
 30
0.0
 11
2910.730436436092
 21
456.6458344031431
 31
0.0
1001
ACAD
1010
0.0
1020
0.0
1030
0.0
  0
LINE
  5
3F9
330
80
100
AcDbEntity
  8
1
  6
Continuous
 62
     4
100
AcDbLine
 10
2499.55513067531
 20
867.8211401639259
 30
0.0
 11
2481.637467702478
 21
885.7388031367564
 31
0.0
1001
ACAD
1010
0.0
1020
0.0
1030
0.0
  0
LINE
  5
3FA
330
80
100
AcDbEntity
  8
1
  6
Continuous
 62
     4
100
AcDbLine
 10
2928.318784560005
 20
449.6640879970273
 30
0.0
 11
2909.689327780112
 21
468.2935447769199
 31
0.0
1001
ACAD
1010
0.0
1020
0.0
1030
0.0
  0
LINE
  5
3FB
330
80
100
AcDbEntity
  8
1
  6
Continuous
 62
     4
100
AcDbLine
 10
2511.202708487469
 20
866.7801640695639
 30
0.0
 11
2492.759269369656
 21
885.223603187377
 31
0.0
1001
ACAD
1010
0.0
1020
0.0
1030
0.0
  0
LINE
  5
3FC
330
80
100
AcDbEntity
  8
1
  6
Continuous
 62
     4
100
AcDbLine
 10
2927.487171568689
 20
461.1023027061415
 30
0.0
 11
2908.582091207123
 21
480.0073830677076
 31
0.0
1001
ACAD
1010
0.0
1020
0.0
1030
0.0
  0
LINE
  5
3FD
330
80
100
AcDbEntity
  8
1
  6
Continuous
 62
     4
100
AcDbLine
 10
2522.916650935297
 20
865.6728233395337
 30
0.0
 11
2503.961097511958
 21
884.6283767628731
 31
0.0
1001
ACAD
1010
0.0
1020
0.0
1030
0.0
  0
LINE
  5
3FE
330
80
100
AcDbEntity
  8
1
  6
Continuous
 62
     4
100
AcDbLine
 10
2926.655558577373
 20
472.540517415256
 30
0.0
 11
2906.966865277382
 21
492.2292107152468
 31
0.0
1001
ACAD
1010
0.0
1020
0.0
1030
0.0
  0
LINE
  5
3FF
330
80
100
AcDbEntity
  8
1
  6
Continuous
 62
     4
100
AcDbLine
 10
2535.13833900575
 20
864.0577369868786
 30
0.0
 11
2515.429928102229
 21
883.7661478904001
 31
0.0
1001
ACAD
1010
0.0
1020
0.0
1030
0.0
  0
LINE
  5
400
330
80
100
AcDbEntity
  8
1
  6
Continuous
 62
     4
100
AcDbLine
 10
2925.337902368251
 20
484.4647753421766
 30
0.0
 11
2904.970859960986
 21
504.8318177494422
 31
0.0
1001
ACAD
1010
0.0
1020
0.0
1030
0.0
  0
LINE
  5
401
330
80
100
AcDbEntity
  8
1
  6
Continuous
 62
     4
100
AcDbLine
 10
2547.741068532042
 20
862.0616091783851
 30
0.0
 11
2527.434327878117
 21
882.3683498323108
 31
0.0
1001
ACAD
1010
0.0
1020
0.0
1030
0.0
  0
LINE
  5
402
330
80
100
AcDbEntity
  8
1
  6
Continuous
 62
     4
100
AcDbLine
 10
2923.664895918786
 20
496.7443835094396
 30
0.0
 11
2902.539099524547
 21
517.8701799036789
 31
0.0
1001
ACAD
1010
0.0
1020
0.0
1030
0.0
  0
LINE
  5
403
330
80
100
AcDbEntity
  8
1
  6
Continuous
 62
     4
100
AcDbLine
 10
2560.779286105612
 20
859.629993322614
 30
0.0
 11
2539.438727654005
 21
880.9705517742212
 31
0.0
1001
ACAD
1010
0.0
1020
0.0
1030
0.0
  0
LINE
  5
404
330
80
100
AcDbEntity
  8
1
  6
Continuous
 62
     4
100
AcDbLine
 10
2921.726530696906
 20
509.2893504491175
 30
0.0
 11
2899.48580910365
 21
531.530072042374
 31
0.0
1001
ACAD
1010
0.0
1020
0.0
1030
0.0
  0
LINE
  5
405
330
80
100
AcDbEntity
  8
1
  6
Continuous
 62
     4
100
AcDbLine
 10
2574.439325644002
 20
856.5765555020222
 30
0.0
 11
2552.349866484582
 21
878.6660146614424
 31
0.0
1001
ACAD
1010
0.0
1020
0.0
1030
0.0
  0
LINE
  5
406
330
80
100
AcDbEntity
  8
1
  6
Continuous
 62
     4
100
AcDbLine
 10
2919.060293530884
 20
522.5621893329381
 30
0.0
 11
2895.860267893865
 21
545.7622149699569
 31
0.0
1001
ACAD
1010
0.0
1020
0.0
1030
0.0
  0
LINE
  5
407
330
80
100
AcDbEntity
  8
1
  6
Continuous
 62
     4
100
AcDbLine
 10
2588.671325025739
 20
852.9511578380823
 30
0.0
 11
2565.295462505066
 21
876.3270203587564
 31
0.0
1001
ACAD
1010
0.0
1020
0.0
1030
0.0
  0
LINE
  5
408
330
80
100
AcDbEntity
  8
1
  6
Continuous
 62
     4
100
AcDbLine
 10
2916.211469217165
 20
536.0176153644551
 30
0.0
 11
2891.516991474281
 21
560.7120931073397
 31
0.0
1001
ACAD
1010
0.0
1020
0.0
1030
0.0
  0
LINE
  5
409
330
80
100
AcDbEntity
  8
1
  6
Continuous
 62
     4
100
AcDbLine
 10
2603.621385508754
 20
848.607699072866
 30
0.0
 11
2579.129203165043
 21
873.0998814165772
 31
0.0
1001
ACAD
1010
0.0
1020
0.0
1030
0.0
  0
LINE
  5
40A
330
80
100
AcDbEntity
  8
1
  6
Continuous
 62
     4
100
AcDbLine
 10
2912.344580644457
 20
550.4911056549616
 30
0.0
 11
2886.079988365343
 21
576.7556979340757
 31
0.0
1001
ACAD
1010
0.0
1020
0.0
1030
0.0
  0
LINE
  5
40B
330
80
100
AcDbEntity
  8
1
  6
Continuous
 62
     4
100
AcDbLine
 10
2619.664863158542
 20
843.1708231408769
 30
0.0
 11
2593.203674006542
 21
869.6320122928758
 31
0.0
1001
ACAD
1010
0.0
1020
0.0
1030
0.0
  0
LINE
  5
40C
330
80
100
AcDbEntity
  8
1
  6
Continuous
 62
     4
100
AcDbLine
 10
2908.118095384617
 20
565.324192632599
 30
0.0
 11
2879.880718448539
 21
593.5615695686781
 31
0.0
1001
ACAD
1010
0.0
1020
0.0
1030
0.0
  0
LINE
  5
40D
330
80
100
AcDbEntity
  8
1
  6
Continuous
 62
     4
100
AcDbLine
 10
2636.470583109557
 20
836.9717049076596
 30
0.0
 11
2608.406819702551
 21
865.0354683146662
 31
0.0
1001
ACAD
1010
0.0
1020
0.0
1030
0.0
  0
LINE
  5
40E
330
80
100
AcDbEntity
  8
1
  6
Continuous
 62
     4
100
AcDbLine
 10
2902.757432193737
 20
581.2914575412778
 30
0.0
 11
2871.789566478091
 21
612.2593232569232
 31
0.0
1001
ACAD
1010
0.0
1020
0.0
1030
0.0
  0
LINE
  5
40F
330
80
100
AcDbEntity
  8
1
  6
Continuous
 62
     4
100
AcDbLine
 10
2655.168649086212
 20
828.8802406488017
 30
0.0
 11
2623.952159988748
 21
860.0967297462657
 31
0.0
1001
ACAD
1010
0.0
1020
0.0
1030
0.0
  0
LINE
  5
410
330
80
100
AcDbEntity
  8
1
  6
Continuous
 62
     4
100
AcDbLine
 10
2896.355163881523
 20
598.3003275712897
 30
0.0
 11
2861.482360374605
 21
633.173131078208
 31
0.0
1001
ACAD
1010
0.0
1020
0.0
1030
0.0
  0
LINE
  5
411
330
80
100
AcDbEntity
  8
1
  6
Continuous
 62
     4
100
AcDbLine
 10
2676.08240554146
 20
818.5730859113531
 30
0.0
 11
2641.19020462336
 21
853.4652868294532
 31
0.0
1001
ACAD
1010
0.0
1020
0.0
1030
0.0
  0
LINE
  5
412
330
80
100
AcDbEntity
  8
1
  6
Continuous
 62
     4
100
AcDbLine
 10
2888.915404341625
 20
616.3466888289867
 30
0.0
 11
2847.769868342219
 21
657.4922248283934
 31
0.0
1001
ACAD
1010
0.0
1020
0.0
1030
0.0
  0
LINE
  5
413
330
80
100
AcDbEntity
  8
1
  6
Continuous
 62
     4
100
AcDbLine
 10
2700.401528207728
 20
804.8605649628839
 30
0.0
 11
2659.594284671499
 21
845.6678084991127
 31
0.0
1001
ACAD
1010
0.0
1020
0.0
1030
0.0
  0
LINE
  5
414
330
80
100
AcDbEntity
  8
1
  6
Continuous
 62
     4
100
AcDbLine
 10
2879.025261088833
 20
636.8434337995762
 30
0.0
 11
2827.079202830285
 21
688.7894920581246
 31
0.0
1001
ACAD
1010
0.0
1020
0.0
1030
0.0
  0
LINE
  5
415
330
80
100
AcDbEntity
  8
1
  6
Continuous
 62
     4
100
AcDbLine
 10
2731.698115345149
 20
784.1705795432608
 30
0.0
 11
2679.74213436643
 21
836.1265605219811
 31
0.0
1001
ACAD
1010
0.0
1020
0.0
1030
0.0
  0
LINE
  5
416
330
80
100
AcDbEntity
  8
1
  6
Continuous
 62
     4
100
AcDbLine
 10
2866.135313571026
 20
660.339983035182
 30
0.0
 11
2702.990041013741
 21
823.4852555924668
 31
0.0
1001
ACAD
1010
0.0
1020
0.0
1030
0.0
  0
LINE
  5
417
330
80
100
AcDbEntity
  8
1
  6
Continuous
 62
     4
100
AcDbLine
 10
2847.932715591042
 20
689.1491827329628
 30
0.0
 11
2732.709418022903
 21
804.3724803011036
 31
0.0
1001
ACAD
1010
0.0
1020
0.0
1030
0.0
  0
LINE
  5
41C
330
80
100
AcDbEntity
  8
1
  6
Continuous
 62
     7
100
AcDbLine
 10
2799.765487258969
 20
430.0582967079643
 30
0.0
 11
2911.565487258969
 21
430.0582967079643
 31
0.0
  0
LINE
  5
41D
330
80
100
AcDbEntity
  8
1
  6
Continuous
 62
     7
100
AcDbLine
 10
2670.509237258968
 20
440.1395467079644
 30
0.0
 11
2799.602987258968
 21
440.1395467079644
 31
0.0
  0
ARC
  5
41E
330
80
100
AcDbEntity
  8
1
  6
Continuous
 62
     7
100
AcDbCircle
 10
2472.965737258969
 20
430.0565467079644
 30
0.0
 40
197.7991879999999
100
AcDbArc
 50
2.922117000002281
 51
177.0778829999977
  0
LINE
  5
420
330
80
100
AcDbEntity
  8
1
  6
Continuous
 62
     7
100
AcDbLine
 10
2017.271737258969
 20
439.9332967079643
 30
0.0
 11
2034.365487258968
 21
430.0582967079643
 31
0.0
  0
LINE
  5
421
330
80
100
AcDbEntity
  8
1
  6
Continuous
 62
     7
100
AcDbLine
 10
2911.565487258969
 20
430.0582967079643
 30
0.0
 11
2928.468303604109
 21
439.822994998758
 31
0.0
  0
LINE
  5
422
330
80
100
AcDbEntity
  8
1
  6
Continuous
 62
     7
100
AcDbLine
 10
2928.659237258969
 20
439.9332967079643
 30
0.0
 11
2928.659237258969
 21
439.9457967079643
 31
0.0
  0
LINE
  5
423
330
80
100
AcDbEntity
  8
1
  6
Continuous
 62
     7
100
AcDbLine
 10
2017.315487258969
 20
441.4207967079644
 30
0.0
 11
2020.902987258969
 21
437.8332967079641
 31
0.0
  0
LINE
  5
424
330
80
100
AcDbEntity
  8
1
  6
Continuous
 62
     7
100
AcDbLine
 10
2687.965487258969
 20
430.0582967079643
 30
0.0
 11
2670.509237258968
 21
440.1395467079644
 31
0.0
  0
LINE
  5
426
330
80
100
AcDbEntity
  8
1
  6
Continuous
 62
     7
100
AcDbLine
 10
2687.965487258969
 20
430.0582967079643
 30
0.0
 11
2799.765487258969
 21
430.0582967079643
 31
0.0
  0
LINE
  5
427
330
80
100
AcDbEntity
  8
1
  6
Continuous
 62
     7
100
AcDbLine
 10
2928.468303604109
 20
439.822994998758
 30
0.0
 11
2928.380695507123
 21
448.8125492243458
 31
0.0
  0
LINE
  5
428
330
80
100
AcDbEntity
  8
1
  6
Continuous
 62
     7
100
AcDbLine
 10
2928.380695507123
 20
448.8125492243458
 30
0.0
 11
2926.304338974375
 21
477.3712803676032
 31
0.0
  0
LINE
  5
429
330
80
100
AcDbEntity
  8
1
  6
Continuous
 62
     7
100
AcDbLine
 10
2926.304338974375
 20
477.3712803676032
 30
0.0
 11
2922.438862091363
 21
505.7432818731514
 31
0.0
  0
LINE
  5
42A
330
80
100
AcDbEntity
  8
1
  6
Continuous
 62
     7
100
AcDbLine
 10
2922.438862091363
 20
505.7432818731514
 30
0.0
 11
2916.799520129377
 21
533.8165824129827
 31
0.0
  0
LINE
  5
42B
330
80
100
AcDbEntity
  8
1
  6
Continuous
 62
     7
100
AcDbLine
 10
2916.799520129377
 20
533.8165824129827
 30
0.0
 11
2909.408568994767
 21
561.4803894953377
 31
0.0
  0
LINE
  5
42C
330
80
100
AcDbEntity
  8
1
  6
Continuous
 62
     7
100
AcDbLine
 10
2909.408568994767
 20
561.4803894953377
 30
0.0
 11
2900.29517739506
 21
588.6255267120535
 31
0.0
  0
LINE
  5
42D
330
80
100
AcDbEntity
  8
1
  6
Continuous
 62
     7
100
AcDbLine
 10
2900.29517739506
 20
588.6255267120535
 30
0.0
 11
2889.495311723387
 21
615.1448646079691
 31
0.0
  0
LINE
  5
42E
330
80
100
AcDbEntity
  8
1
  6
Continuous
 62
     7
100
AcDbLine
 10
2889.495311723387
 20
615.1448646079691
 30
0.0
 11
2877.051594115564
 21
640.9337434719425
 31
0.0
  0
LINE
  5
42F
330
80
100
AcDbEntity
  8
1
  6
Continuous
 62
     7
100
AcDbLine
 10
2877.051594115564
 20
640.9337434719425
 30
0.0
 11
2863.013134239995
 21
665.8903863809156
 31
0.0
  0
LINE
  5
430
330
80
100
AcDbEntity
  8
1
  6
Continuous
 62
     7
100
AcDbLine
 10
2863.013134239995
 20
665.8903863809156
 30
0.0
 11
2847.43533548425
 21
689.9163008669325
 31
0.0
  0
LINE
  5
431
330
80
100
AcDbEntity
  8
1
  6
Continuous
 62
     7
100
AcDbLine
 10
2847.43533548425
 20
689.9163008669325
 30
0.0
 11
2830.379676303195
 21
712.9166676219126
 31
0.0
  0
LINE
  5
432
330
80
100
AcDbEntity
  8
1
  6
Continuous
 62
     7
100
AcDbLine
 10
2830.379676303195
 20
712.9166676219126
 30
0.0
 11
2811.913467591628
 21
734.8007147061426
 31
0.0
  0
LINE
  5
433
330
80
100
AcDbEntity
  8
1
  6
Continuous
 62
     7
100
AcDbLine
 10
2811.913467591628
 20
734.8007147061426
 30
0.0
 11
2792.109587038926
 21
755.4820757836507
 31
0.0
  0
LINE
  5
434
330
80
100
AcDbEntity
  8
1
  6
Continuous
 62
     7
100
AcDbLine
 10
2792.109587038926
 20
755.4820757836507
 30
0.0
 11
2771.0461915141
 21
774.8791309706797
 31
0.0
  0
LINE
  5
435
330
80
100
AcDbEntity
  8
1
  6
Continuous
 62
     7
100
AcDbLine
 10
2771.0461915141
 20
774.8791309706797
 30
0.0
 11
2748.806408616333
 21
792.9153289520775
 31
0.0
  0
LINE
  5
436
330
80
100
AcDbEntity
  8
1
  6
Continuous
 62
     7
100
AcDbLine
 10
2748.806408616333
 20
792.9153289520775
 30
0.0
 11
2725.478008608336
 21
809.5194890943666
 31
0.0
  0
LINE
  5
437
330
80
100
AcDbEntity
  8
1
  6
Continuous
 62
     7
100
AcDbLine
 10
2725.478008608336
 20
809.5194890943666
 30
0.0
 11
2701.153058027206
 21
824.6260823631843
 31
0.0
  0
LINE
  5
438
330
80
100
AcDbEntity
  8
1
  6
Continuous
 62
     7
100
AcDbLine
 10
2701.153058027206
 20
824.6260823631843
 30
0.0
 11
2675.927556339874
 21
838.1754899364457
 31
0.0
  0
LINE
  5
439
330
80
100
AcDbEntity
  8
1
  6
Continuous
 62
     7
100
AcDbLine
 10
2675.927556339874
 20
838.1754899364457
 30
0.0
 11
2649.901057077065
 21
850.1142384925937
 31
0.0
  0
LINE
  5
43A
330
80
100
AcDbEntity
  8
1
  6
Continuous
 62
     7
100
AcDbLine
 10
2649.901057077065
 20
850.1142384925937
 30
0.0
 11
2623.176274940993
 21
860.3952112453727
 31
0.0
  0
LINE
  5
43B
330
80
100
AcDbEntity
  8
1
  6
Continuous
 62
     7
100
AcDbLine
 10
2623.176274940993
 20
860.3952112453727
 30
0.0
 11
2595.858680437356
 21
868.9778338922572
 31
0.0
  0
LINE
  5
43C
330
80
100
AcDbEntity
  8
1
  6
Continuous
 62
     7
100
AcDbLine
 10
2595.858680437356
 20
868.9778338922572
 30
0.0
 11
2568.056083631439
 21
875.8282347426872
 31
0.0
  0
LINE
  5
43D
330
80
100
AcDbEntity
  8
1
  6
Continuous
 62
     7
100
AcDbLine
 10
2568.056083631439
 20
875.8282347426872
 30
0.0
 11
2539.878208671038
 21
880.9193783941568
 31
0.0
  0
LINE
  5
43E
330
80
100
AcDbEntity
  8
1
  6
Continuous
 62
     7
100
AcDbLine
 10
2539.878208671038
 20
880.9193783941568
 30
0.0
 11
2511.436260755373
 21
884.2311724285952
 31
0.0
  0
LINE
  5
43F
330
80
100
AcDbEntity
  8
1
  6
Continuous
 62
     7
100
AcDbLine
 10
2511.436260755373
 20
884.2311724285952
 30
0.0
 11
2482.842487258978
 21
885.7505467079644
 31
0.0
  0
LINE
  5
440
330
80
100
AcDbEntity
  8
1
  6
Continuous
 62
     7
100
AcDbLine
 10
2482.842487258978
 20
885.7505467079644
 30
0.0
 11
2454.209734742591
 21
885.4715049561189
 31
0.0
  0
LINE
  5
441
330
80
100
AcDbEntity
  8
1
  6
Continuous
 62
     7
100
AcDbLine
 10
2454.209734742591
 20
885.4715049561189
 30
0.0
 11
2425.651003599334
 21
883.3951484233711
 31
0.0
  0
LINE
  5
442
330
80
100
AcDbEntity
  8
1
  6
Continuous
 62
     7
100
AcDbLine
 10
2425.651003599334
 20
883.3951484233711
 30
0.0
 11
2397.279002093785
 21
879.5296715403596
 31
0.0
  0
LINE
  5
443
330
80
100
AcDbEntity
  8
1
  6
Continuous
 62
     7
100
AcDbLine
 10
2397.279002093785
 20
879.5296715403596
 30
0.0
 11
2369.205701553954
 21
873.8903295783726
 31
0.0
  0
LINE
  5
444
330
80
100
AcDbEntity
  8
1
  6
Continuous
 62
     7
100
AcDbLine
 10
2369.205701553954
 20
873.8903295783726
 30
0.0
 11
2341.5418944716
 21
866.4993784437637
 31
0.0
  0
LINE
  5
445
330
80
100
AcDbEntity
  8
1
  6
Continuous
 62
     7
100
AcDbLine
 10
2341.5418944716
 20
866.4993784437637
 30
0.0
 11
2314.396757254883
 21
857.3859868440571
 31
0.0
  0
LINE
  5
446
330
80
100
AcDbEntity
  8
1
  6
Continuous
 62
     7
100
AcDbLine
 10
2314.396757254883
 20
857.3859868440571
 30
0.0
 11
2287.877419358967
 21
846.586121172384
 31
0.0
  0
LINE
  5
447
330
80
100
AcDbEntity
  8
1
  6
Continuous
 62
     7
100
AcDbLine
 10
2287.877419358967
 20
846.586121172384
 30
0.0
 11
2262.088540494994
 21
834.1424035645617
 31
0.0
  0
LINE
  5
448
330
80
100
AcDbEntity
  8
1
  6
Continuous
 62
     7
100
AcDbLine
 10
2262.088540494994
 20
834.1424035645617
 30
0.0
 11
2237.131897586021
 21
820.1039436889939
 31
0.0
  0
LINE
  5
449
330
80
100
AcDbEntity
  8
1
  6
Continuous
 62
     7
100
AcDbLine
 10
2237.131897586021
 20
820.1039436889939
 30
0.0
 11
2213.105983100003
 21
804.5261449332471
 31
0.0
  0
LINE
  5
44A
330
80
100
AcDbEntity
  8
1
  6
Continuous
 62
     7
100
AcDbLine
 10
2213.105983100003
 20
804.5261449332471
 30
0.0
 11
2190.105616345023
 21
787.4704857521917
 31
0.0
  0
LINE
  5
44B
330
80
100
AcDbEntity
  8
1
  6
Continuous
 62
     7
100
AcDbLine
 10
2190.105616345023
 20
787.4704857521917
 30
0.0
 11
2168.221569260794
 21
769.0042770406257
 31
0.0
  0
LINE
  5
44C
330
80
100
AcDbEntity
  8
1
  6
Continuous
 62
     7
100
AcDbLine
 10
2168.221569260794
 20
769.0042770406257
 30
0.0
 11
2147.540208183285
 21
749.2003964879245
 31
0.0
  0
LINE
  5
44D
330
80
100
AcDbEntity
  8
1
  6
Continuous
 62
     7
100
AcDbLine
 10
2147.540208183285
 20
749.2003964879245
 30
0.0
 11
2128.143152996256
 21
728.1370009630981
 31
0.0
  0
LINE
  5
44E
330
80
100
AcDbEntity
  8
1
  6
Continuous
 62
     7
100
AcDbLine
 10
2128.143152996256
 20
728.1370009630981
 30
0.0
 11
2110.106955014858
 21
705.8972180653321
 31
0.0
  0
LINE
  5
44F
330
80
100
AcDbEntity
  8
1
  6
Continuous
 62
     7
100
AcDbLine
 10
2110.106955014858
 20
705.8972180653321
 30
0.0
 11
2093.502794872568
 21
682.5688180573348
 31
0.0
  0
LINE
  5
450
330
80
100
AcDbEntity
  8
1
  6
Continuous
 62
     7
100
AcDbLine
 10
2093.502794872568
 20
682.5688180573348
 30
0.0
 11
2078.39620160375
 21
658.2438674762048
 31
0.0
  0
LINE
  5
451
330
80
100
AcDbEntity
  8
1
  6
Continuous
 62
     7
100
AcDbLine
 10
2078.39620160375
 20
658.2438674762048
 30
0.0
 11
2064.846794030489
 21
633.0183657888726
 31
0.0
  0
LINE
  5
452
330
80
100
AcDbEntity
  8
1
  6
Continuous
 62
     7
100
AcDbLine
 10
2064.846794030489
 20
633.0183657888726
 30
0.0
 11
2052.908045474341
 21
606.9918665260636
 31
0.0
  0
LINE
  5
453
330
80
100
AcDbEntity
  8
1
  6
Continuous
 62
     7
100
AcDbLine
 10
2052.908045474341
 20
606.9918665260636
 30
0.0
 11
2042.627072721562
 21
580.2670843899911
 31
0.0
  0
LINE
  5
454
330
80
100
AcDbEntity
  8
1
  6
Continuous
 62
     7
100
AcDbLine
 10
2042.627072721562
 20
580.2670843899911
 30
0.0
 11
2034.044450074677
 21
552.9494898863545
 31
0.0
  0
LINE
  5
455
330
80
100
AcDbEntity
  8
1
  6
Continuous
 62
     7
100
AcDbLine
 10
2034.044450074677
 20
552.9494898863545
 30
0.0
 11
2027.194049224247
 21
525.1468930804384
 31
0.0
  0
LINE
  5
456
330
80
100
AcDbEntity
  8
1
  6
Continuous
 62
     7
100
AcDbLine
 10
2027.194049224247
 20
525.1468930804384
 30
0.0
 11
2022.102905572777
 21
496.9690181200367
 31
0.0
  0
LINE
  5
457
330
80
100
AcDbEntity
  8
1
  6
Continuous
 62
     7
100
AcDbLine
 10
2022.102905572777
 20
496.9690181200367
 30
0.0
 11
2018.791111538338
 21
468.5270702043717
 31
0.0
  0
LINE
  5
458
330
80
100
AcDbEntity
  8
1
  6
Continuous
 62
     7
100
AcDbLine
 10
2018.791111538338
 20
468.5270702043717
 30
0.0
 11
2017.271737258969
 21
439.9332967079643
 31
0.0
  0
LINE
  5
459
330
80
100
AcDbEntity
  8
1
  6
Continuous
 62
     7
100
AcDbLine
 10
2911.565987258969
 20
430.0547967079587
 30
0.0
 11
2910.7006197377
 21
457.5947377243706
 31
0.0
  0
LINE
  5
45A
330
80
100
AcDbEntity
  8
1
  6
Continuous
 62
     7
100
AcDbLine
 10
2910.7006197377
 20
457.5947377243706
 30
0.0
 11
2908.107712617334
 21
485.0259980818434
 31
0.0
  0
LINE
  5
45B
330
80
100
AcDbEntity
  8
1
  6
Continuous
 62
     7
100
AcDbLine
 10
2908.107712617334
 20
485.0259980818434
 30
0.0
 11
2903.797498917686
 21
512.2403191278972
 31
0.0
  0
LINE
  5
45C
330
80
100
AcDbEntity
  8
1
  6
Continuous
 62
     7
100
AcDbLine
 10
2903.797498917686
 20
512.2403191278972
 30
0.0
 11
2897.786989083082
 21
539.1302983704036
 31
0.0
  0
LINE
  5
45D
330
80
100
AcDbEntity
  8
1
  6
Continuous
 62
     7
100
AcDbLine
 10
2897.786989083082
 20
539.1302983704036
 30
0.0
 11
2890.099903849894
 21
565.5898133461554
 31
0.0
  0
LINE
  5
45E
330
80
100
AcDbEntity
  8
1
  6
Continuous
 62
     7
100
AcDbLine
 10
2890.099903849894
 20
565.5898133461554
 30
0.0
 11
2880.766580631647
 21
591.5144404377461
 31
0.0
  0
LINE
  5
45F
330
80
100
AcDbEntity
  8
1
  6
Continuous
 62
     7
100
AcDbLine
 10
2880.766580631647
 20
591.5144404377461
 30
0.0
 11
2869.823853791091
 21
616.8018669858806
 31
0.0
  0
LINE
  5
460
330
80
100
AcDbEntity
  8
1
  6
Continuous
 62
     7
100
AcDbLine
 10
2869.823853791091
 20
616.8018669858806
 30
0.0
 11
2857.31490927181
 21
641.3522950706992
 31
0.0
  0
LINE
  5
461
330
80
100
AcDbEntity
  8
1
  6
Continuous
 62
     7
100
AcDbLine
 10
2857.31490927181
 20
641.3522950706992
 30
0.0
 11
2843.28911416303
 21
665.0688353685757
 31
0.0
  0
LINE
  5
462
330
80
100
AcDbEntity
  8
1
  6
Continuous
 62
     7
100
AcDbLine
 10
2843.28911416303
 20
665.0688353685757
 30
0.0
 11
2827.801821870265
 21
687.8578895300104
 31
0.0
  0
LINE
  5
463
330
80
100
AcDbEntity
  8
1
  6
Continuous
 62
     7
100
AcDbLine
 10
2827.801821870265
 20
687.8578895300104
 30
0.0
 11
2810.914153660727
 21
709.6295195695569
 31
0.0
  0
LINE
  5
464
330
80
100
AcDbEntity
  8
1
  6
Continuous
 62
     7
100
AcDbLine
 10
2810.914153660727
 20
709.6295195695569
 30
0.0
 11
2792.692757445597
 21
730.2978028099606
 31
0.0
  0
LINE
  5
465
330
80
100
AcDbEntity
  8
1
  6
Continuous
 62
     7
100
AcDbLine
 10
2792.692757445597
 20
730.2978028099606
 30
0.0
 11
2773.209544751172
 21
749.7811709797119
 31
0.0
  0
LINE
  5
466
330
80
100
AcDbEntity
  8
1
  6
Continuous
 62
     7
100
AcDbLine
 10
2773.209544751172
 20
749.7811709797119
 30
0.0
 11
2752.541406916922
 21
768.0027321257496
 31
0.0
  0
LINE
  5
467
330
80
100
AcDbEntity
  8
1
  6
Continuous
 62
     7
100
AcDbLine
 10
2752.541406916922
 20
768.0027321257496
 30
0.0
 11
2730.769911640507
 21
784.8905740708691
 31
0.0
  0
LINE
  5
468
330
80
100
AcDbEntity
  8
1
  6
Continuous
 62
     7
100
AcDbLine
 10
2730.769911640507
 20
784.8905740708691
 30
0.0
 11
2707.980981067331
 21
800.3780482182342
 31
0.0
  0
LINE
  5
469
330
80
100
AcDbEntity
  8
1
  6
Continuous
 62
     7
100
AcDbLine
 10
2707.980981067331
 20
800.3780482182342
 30
0.0
 11
2684.264552695097
 21
814.4040325829392
 31
0.0
  0
LINE
  5
46A
330
80
100
AcDbEntity
  8
1
  6
Continuous
 62
     7
100
AcDbLine
 10
2684.264552695097
 20
814.4040325829392
 30
0.0
 11
2659.714224431582
 21
826.9131730125602
 31
0.0
  0
LINE
  5
46B
330
80
100
AcDbEntity
  8
1
  6
Continuous
 62
     7
100
AcDbLine
 10
2659.714224431582
 20
826.9131730125602
 30
0.0
 11
2634.426885206465
 21
837.8561016447028
 31
0.0
  0
LINE
  5
46C
330
80
100
AcDbEntity
  8
1
  6
Continuous
 62
     7
100
AcDbLine
 10
2634.426885206465
 20
837.8561016447028
 30
0.0
 11
2608.502332594981
 21
847.1896317394051
 31
0.0
  0
LINE
  5
46D
330
80
100
AcDbEntity
  8
1
  6
Continuous
 62
     7
100
AcDbLine
 10
2608.502332594981
 20
847.1896317394051
 30
0.0
 11
2582.042878962487
 21
854.8769281174676
 31
0.0
  0
LINE
  5
46E
330
80
100
AcDbEntity
  8
1
  6
Continuous
 62
     7
100
AcDbLine
 10
2582.042878962487
 20
854.8769281174676
 30
0.0
 11
2555.152947684295
 21
860.8876525320781
 31
0.0
  0
LINE
  5
46F
330
80
100
AcDbEntity
  8
1
  6
Continuous
 62
     7
100
AcDbLine
 10
2555.152947684295
 20
860.8876525320781
 30
0.0
 11
2527.938661034318
 21
865.1980834000102
 31
0.0
  0
LINE
  5
470
330
80
100
AcDbEntity
  8
1
  6
Continuous
 62
     7
100
AcDbLine
 10
2527.938661034318
 20
865.1980834000102
 30
0.0
 11
2500.50742136894
 21
867.791209419877
 31
0.0
  0
LINE
  5
471
330
80
100
AcDbEntity
  8
1
  6
Continuous
 62
     7
100
AcDbLine
 10
2500.50742136894
 20
867.791209419877
 30
0.0
 11
2472.967487258979
 21
868.6567967079648
 31
0.0
  0
LINE
  5
472
330
80
100
AcDbEntity
  8
1
  6
Continuous
 62
     7
100
AcDbLine
 10
2472.967487258979
 20
868.6567967079648
 30
0.0
 11
2445.427546242566
 21
867.7914291866963
 31
0.0
  0
LINE
  5
473
330
80
100
AcDbEntity
  8
1
  6
Continuous
 62
     7
100
AcDbLine
 10
2445.427546242566
 20
867.7914291866963
 30
0.0
 11
2417.996285885093
 21
865.1985220663299
 31
0.0
  0
LINE
  5
474
330
80
100
AcDbEntity
  8
1
  6
Continuous
 62
     7
100
AcDbLine
 10
2417.996285885093
 20
865.1985220663299
 30
0.0
 11
2390.78196483904
 21
860.8883083666823
 31
0.0
  0
LINE
  5
475
330
80
100
AcDbEntity
  8
1
  6
Continuous
 62
     7
100
AcDbLine
 10
2390.78196483904
 20
860.8883083666823
 30
0.0
 11
2363.891985596533
 21
854.8777985320775
 31
0.0
  0
LINE
  5
476
330
80
100
AcDbEntity
  8
1
  6
Continuous
 62
     7
100
AcDbLine
 10
2363.891985596533
 20
854.8777985320775
 30
0.0
 11
2337.432470620781
 21
847.1907132988913
 31
0.0
  0
LINE
  5
477
330
80
100
AcDbEntity
  8
1
  6
Continuous
 62
     7
100
AcDbLine
 10
2337.432470620781
 20
847.1907132988913
 30
0.0
 11
2311.50784352919
 21
837.857390080644
 31
0.0
  0
LINE
  5
478
330
80
100
AcDbEntity
  8
1
  6
Continuous
 62
     7
100
AcDbLine
 10
2311.50784352919
 20
837.857390080644
 30
0.0
 11
2286.220416981056
 21
826.9146632400886
 31
0.0
  0
LINE
  5
479
330
80
100
AcDbEntity
  8
1
  6
Continuous
 62
     7
100
AcDbLine
 10
2286.220416981056
 20
826.9146632400886
 30
0.0
 11
2261.669988896237
 21
814.4057187208076
 31
0.0
  0
LINE
  5
47A
330
80
100
AcDbEntity
  8
1
  6
Continuous
 62
     7
100
AcDbLine
 10
2261.669988896237
 20
814.4057187208076
 30
0.0
 11
2237.953448598361
 21
800.3799236120265
 31
0.0
  0
LINE
  5
47B
330
80
100
AcDbEntity
  8
1
  6
Continuous
 62
     7
100
AcDbLine
 10
2237.953448598361
 20
800.3799236120265
 30
0.0
 11
2215.164394436925
 21
784.8926313192627
 31
0.0
  0
LINE
  5
47C
330
80
100
AcDbEntity
  8
1
  6
Continuous
 62
     7
100
AcDbLine
 10
2215.164394436925
 20
784.8926313192627
 30
0.0
 11
2193.392764397378
 21
768.0049631097252
 31
0.0
  0
LINE
  5
47D
330
80
100
AcDbEntity
  8
1
  6
Continuous
 62
     7
100
AcDbLine
 10
2193.392764397378
 20
768.0049631097252
 30
0.0
 11
2172.724481156976
 21
749.7835668945952
 31
0.0
  0
LINE
  5
47E
330
80
100
AcDbEntity
  8
1
  6
Continuous
 62
     7
100
AcDbLine
 10
2172.724481156976
 20
749.7835668945952
 30
0.0
 11
2153.241112987223
 21
730.3003542001696
 31
0.0
  0
LINE
  5
47F
330
80
100
AcDbEntity
  8
1
  6
Continuous
 62
     7
100
AcDbLine
 10
2153.241112987223
 20
730.3003542001696
 30
0.0
 11
2135.019551841185
 21
709.6322163659205
 31
0.0
  0
LINE
  5
480
330
80
100
AcDbEntity
  8
1
  6
Continuous
 62
     7
100
AcDbLine
 10
2135.019551841185
 20
709.6322163659205
 30
0.0
 11
2118.131709896066
 21
687.8607210895056
 31
0.0
  0
LINE
  5
481
330
80
100
AcDbEntity
  8
1
  6
Continuous
 62
     7
100
AcDbLine
 10
2118.131709896066
 20
687.8607210895056
 30
0.0
 11
2102.6442357487
 21
665.0717905163303
 31
0.0
  0
LINE
  5
482
330
80
100
AcDbEntity
  8
1
  6
Continuous
 62
     7
100
AcDbLine
 10
2102.6442357487
 20
665.0717905163303
 30
0.0
 11
2088.618251383995
 21
641.3553621440955
 31
0.0
  0
LINE
  5
483
330
80
100
AcDbEntity
  8
1
  6
Continuous
 62
     7
100
AcDbLine
 10
2088.618251383995
 20
641.3553621440955
 30
0.0
 11
2076.109110954375
 21
616.8050338805807
 31
0.0
  0
LINE
  5
484
330
80
100
AcDbEntity
  8
1
  6
Continuous
 62
     7
100
AcDbLine
 10
2076.109110954375
 20
616.8050338805807
 30
0.0
 11
2065.166182322232
 21
591.5176946554636
 31
0.0
  0
LINE
  5
485
330
80
100
AcDbEntity
  8
1
  6
Continuous
 62
     7
100
AcDbLine
 10
2065.166182322232
 20
591.5176946554636
 30
0.0
 11
2055.832652227529
 21
565.5931420439799
 31
0.0
  0
LINE
  5
486
330
80
100
AcDbEntity
  8
1
  6
Continuous
 62
     7
100
AcDbLine
 10
2055.832652227529
 20
565.5931420439799
 30
0.0
 11
2048.145355849466
 21
539.1336884114854
 31
0.0
  0
LINE
  5
487
330
80
100
AcDbEntity
  8
1
  6
Continuous
 62
     7
100
AcDbLine
 10
2048.145355849466
 20
539.1336884114854
 30
0.0
 11
2042.134631434856
 21
512.2437571332926
 31
0.0
  0
LINE
  5
488
330
80
100
AcDbEntity
  8
1
  6
Continuous
 62
     7
100
AcDbLine
 10
2042.134631434856
 20
512.2437571332926
 30
0.0
 11
2037.824200566924
 21
485.0294704833161
 31
0.0
  0
LINE
  5
489
330
80
100
AcDbEntity
  8
1
  6
Continuous
 62
     7
100
AcDbLine
 10
2037.824200566924
 20
485.0294704833161
 30
0.0
 11
2035.231074547056
 21
457.5982308179387
 31
0.0
  0
LINE
  5
48A
330
80
100
AcDbEntity
  8
1
  6
Continuous
 62
     7
100
AcDbLine
 10
2035.231074547056
 20
457.5982308179387
 30
0.0
 11
2034.365487258968
 21
430.0582967079646
 31
0.0
  0
LINE
  5
575
330
80
100
AcDbEntity
  8
1
  6
Continuous
 62
     4
100
AcDbLine
 10
763.0433976361651
 20
473.1981932232876
 30
0.0
 11
746.3416765399378
 21
489.8999143195148
 31
0.0
1001
ACAD
1010
0.0
1020
0.0
1030
0.0
  0
LINE
  5
576
330
80
100
AcDbEntity
  8
1
  6
Continuous
 62
     4
100
AcDbLine
 10
763.3666073209335
 20
483.4815852563176
 30
0.0
 11
746.8768380568118
 21
499.9713545204389
 31
0.0
1001
ACAD
1010
0.0
1020
0.0
1030
0.0
  0
LINE
  5
577
330
80
100
AcDbEntity
  8
1
  6
Continuous
 62
     4
100
AcDbLine
 10
763.6898170057013
 20
493.764977289348
 30
0.0
 11
747.4119995736857
 21
510.0427947213632
 31
0.0
1001
ACAD
1010
0.0
1020
0.0
1030
0.0
  0
LINE
  5
578
330
80
100
AcDbEntity
  8
1
  6
Continuous
 62
     4
100
AcDbLine
 10
764.2816365304577
 20
503.7797594823897
 30
0.0
 11
748.5026217262217
 21
519.5587742866258
 31
0.0
1001
ACAD
1010
0.0
1020
0.0
1030
0.0
  0
LINE
  5
579
330
80
100
AcDbEntity
  8
1
  6
Continuous
 62
     4
100
AcDbLine
 10
765.1977010090591
 20
513.4702967215867
 30
0.0
 11
749.6088497843153
 21
529.0591479463301
 31
0.0
1001
ACAD
1010
0.0
1020
0.0
1030
0.0
  0
LINE
  5
57A
330
80
100
AcDbEntity
  8
1
  6
Continuous
 62
     4
100
AcDbLine
 10
766.1137654876601
 20
523.1608339607833
 30
0.0
 11
750.7150778424091
 21
538.5595216060346
 31
0.0
1001
ACAD
1010
0.0
1020
0.0
1030
0.0
  0
LINE
  5
57B
330
80
100
AcDbEntity
  8
1
  6
Continuous
 62
     4
100
AcDbLine
 10
767.3622885766499
 20
532.5189125895922
 30
0.0
 11
752.3272954960803
 21
547.5539056701618
 31
0.0
1001
ACAD
1010
0.0
1020
0.0
1030
0.0
  0
LINE
  5
57C
330
80
100
AcDbEntity
  8
1
  6
Continuous
 62
     4
100
AcDbLine
 10
768.8125481522445
 20
541.6752547317956
 30
0.0
 11
753.9504192085412
 21
556.5373836754988
 31
0.0
1001
ACAD
1010
0.0
1020
0.0
1030
0.0
  0
LINE
  5
57D
330
80
100
AcDbEntity
  8
1
  6
Continuous
 62
     4
100
AcDbLine
 10
770.262807727839
 20
550.8315968739992
 30
0.0
 11
755.5735429210024
 21
565.5208616808359
 31
0.0
1001
ACAD
1010
0.0
1020
0.0
1030
0.0
  0
LINE
  5
57E
330
80
100
AcDbEntity
  8
1
  6
Continuous
 62
     4
100
AcDbLine
 10
772.0300238539027
 20
559.6709824657341
 30
0.0
 11
757.5956062140152
 21
574.1054001056214
 31
0.0
1001
ACAD
1010
0.0
1020
0.0
1030
0.0
  0
LINE
  5
57F
330
80
100
AcDbEntity
  8
1
  6
Continuous
 62
     4
100
AcDbLine
 10
773.967777328985
 20
568.3398307084496
 30
0.0
 11
759.6923793171197
 21
582.6152287203151
 31
0.0
1001
ACAD
1010
0.0
1020
0.0
1030
0.0
  0
LINE
  5
580
330
80
100
AcDbEntity
  8
1
  6
Continuous
 62
     4
100
AcDbLine
 10
775.9055308040676
 20
577.0086789511654
 30
0.0
 11
761.7891524202243
 21
591.1250573350088
 31
0.0
1001
ACAD
1010
0.0
1020
0.0
1030
0.0
  0
LINE
  5
581
330
80
100
AcDbEntity
  8
1
  6
Continuous
 62
     4
100
AcDbLine
 10
778.0900398491659
 20
585.4307716238658
 30
0.0
 11
764.138379571215
 21
599.3824319018163
 31
0.0
1001
ACAD
1010
0.0
1020
0.0
1030
0.0
  0
LINE
  5
582
330
80
100
AcDbEntity
  8
1
  6
Continuous
 62
     4
100
AcDbLine
 10
780.4778539440233
 20
593.6495592468061
 30
0.0
 11
766.6740873561563
 21
607.453325834673
 31
0.0
1001
ACAD
1010
0.0
1020
0.0
1030
0.0
  0
LINE
  5
583
330
80
100
AcDbEntity
  8
1
  6
Continuous
 62
     4
100
AcDbLine
 10
782.8656680388806
 20
601.868346869747
 30
0.0
 11
769.2097951410975
 21
615.5242197675302
 31
0.0
1001
ACAD
1010
0.0
1020
0.0
1030
0.0
  0
LINE
  5
584
330
80
100
AcDbEntity
  8
1
  6
Continuous
 62
     4
100
AcDbLine
 10
785.3916036870616
 20
609.9490129393642
 30
0.0
 11
771.8237819037841
 21
623.5168347226415
 31
0.0
1001
ACAD
1010
0.0
1020
0.0
1030
0.0
  0
LINE
  5
585
330
80
100
AcDbEntity
  8
1
  6
Continuous
 62
     4
100
AcDbLine
 10
788.1993864346533
 20
617.7478319095707
 30
0.0
 11
774.7705177179242
 21
631.1767006262996
 31
0.0
1001
ACAD
1010
0.0
1020
0.0
1030
0.0
  0
LINE
  5
586
330
80
100
AcDbEntity
  8
1
  6
Continuous
 62
     4
100
AcDbLine
 10
791.0071691822452
 20
625.5466508797772
 30
0.0
 11
777.7172535320643
 21
638.8365665299581
 31
0.0
1001
ACAD
1010
0.0
1020
0.0
1030
0.0
  0
LINE
  5
587
330
80
100
AcDbEntity
  8
1
  6
Continuous
 62
     4
100
AcDbLine
 10
793.8168207697006
 20
633.3436010101197
 30
0.0
 11
780.6639893462045
 21
646.4964324336163
 31
0.0
1001
ACAD
1010
0.0
1020
0.0
1030
0.0
  0
LINE
  5
588
330
80
100
AcDbEntity
  8
1
  6
Continuous
 62
     4
100
AcDbLine
 10
797.0204207564494
 20
640.746602741169
 30
0.0
 11
783.8833821437052
 21
653.8836413539136
 31
0.0
1001
ACAD
1010
0.0
1020
0.0
1030
0.0
  0
LINE
  5
589
330
80
100
AcDbEntity
  8
1
  6
Continuous
 62
     4
100
AcDbLine
 10
800.224020743199
 20
648.1496044722182
 30
0.0
 11
787.2187890808032
 21
661.1548361346136
 31
0.0
1001
ACAD
1010
0.0
1020
0.0
1030
0.0
  0
LINE
  5
58A
330
80
100
AcDbEntity
  8
1
  6
Continuous
 62
     4
100
AcDbLine
 10
803.4276207299477
 20
655.5526062032672
 30
0.0
 11
790.5541960179013
 21
668.4260309153138
 31
0.0
1001
ACAD
1010
0.0
1020
0.0
1030
0.0
  0
LINE
  5
58B
330
80
100
AcDbEntity
  8
1
  6
Continuous
 62
     4
100
AcDbLine
 10
806.8529867712069
 20
662.7338418798065
 30
0.0
 11
793.9348992067492
 21
675.6519294442641
 31
0.0
1001
ACAD
1010
0.0
1020
0.0
1030
0.0
  0
LINE
  5
58C
330
80
100
AcDbEntity
  8
1
  6
Continuous
 62
     4
100
AcDbLine
 10
810.4331641198793
 20
669.7602662489322
 30
0.0
 11
797.6412436542853
 21
682.5521867145265
 31
0.0
1001
ACAD
1010
0.0
1020
0.0
1030
0.0
  0
LINE
  5
58D
330
80
100
AcDbEntity
  8
1
  6
Continuous
 62
     4
100
AcDbLine
 10
814.0133414685518
 20
676.7866906180584
 30
0.0
 11
801.3475881018205
 21
689.4524439847891
 31
0.0
1001
ACAD
1010
0.0
1020
0.0
1030
0.0
  0
LINE
  5
58E
330
80
100
AcDbEntity
  8
1
  6
Continuous
 62
     4
100
AcDbLine
 10
817.6278237850812
 20
683.7788100193264
 30
0.0
 11
805.0539325493566
 21
696.3527012550517
 31
0.0
1001
ACAD
1010
0.0
1020
0.0
1030
0.0
  0
LINE
  5
58F
330
80
100
AcDbEntity
  8
1
  6
Continuous
 62
     4
100
AcDbLine
 10
821.5694909724286
 20
690.4437445497777
 30
0.0
 11
808.9268415401202
 21
703.0863939820862
 31
0.0
1001
ACAD
1010
0.0
1020
0.0
1030
0.0
  0
LINE
  5
590
330
80
100
AcDbEntity
  8
1
  6
Continuous
 62
     4
100
AcDbLine
 10
825.5111581597748
 20
697.1086790802293
 30
0.0
 11
812.9903298662393
 21
709.6295073737648
 31
0.0
1001
ACAD
1010
0.0
1020
0.0
1030
0.0
  0
LINE
  5
591
330
80
100
AcDbEntity
  8
1
  6
Continuous
 62
     4
100
AcDbLine
 10
829.4528253471217
 20
703.7736136106807
 30
0.0
 11
817.0538181923591
 21
716.172620765444
 31
0.0
1001
ACAD
1010
0.0
1020
0.0
1030
0.0
  0
LINE
  5
592
330
80
100
AcDbEntity
  8
1
  6
Continuous
 62
     4
100
AcDbLine
 10
833.5822693645207
 20
710.2507713110803
 30
0.0
 11
821.1173065184777
 21
722.7157341571228
 31
0.0
1001
ACAD
1010
0.0
1020
0.0
1030
0.0
  0
LINE
  5
593
330
80
100
AcDbEntity
  8
1
  6
Continuous
 62
     4
100
AcDbLine
 10
837.873933409123
 20
716.5657089842762
 30
0.0
 11
825.4404497873727
 21
728.9991926060268
 31
0.0
1001
ACAD
1010
0.0
1020
0.0
1030
0.0
  0
LINE
  5
594
330
80
100
AcDbEntity
  8
1
  6
Continuous
 62
     4
100
AcDbLine
 10
842.1655974537255
 20
722.8806466574717
 30
0.0
 11
829.8507283376332
 21
735.1955157735643
 31
0.0
1001
ACAD
1010
0.0
1020
0.0
1030
0.0
  0
LINE
  5
595
330
80
100
AcDbEntity
  8
1
  6
Continuous
 62
     4
100
AcDbLine
 10
846.4572614983282
 20
729.1955843306675
 30
0.0
 11
834.2610068878936
 21
741.3918389411016
 31
0.0
1001
ACAD
1010
0.0
1020
0.0
1030
0.0
  0
LINE
  5
596
330
80
100
AcDbEntity
  8
1
  6
Continuous
 62
     4
100
AcDbLine
 10
851.065942530305
 20
735.1935050164887
 30
0.0
 11
838.6712854381542
 21
747.588162108639
 31
0.0
1001
ACAD
1010
0.0
1020
0.0
1030
0.0
  0
LINE
  5
597
330
80
100
AcDbEntity
  8
1
  6
Continuous
 62
     4
100
AcDbLine
 10
855.6993021856595
 20
741.1667470789325
 30
0.0
 11
843.415603441181
 21
753.450445823411
 31
0.0
1001
ACAD
1010
0.0
1020
0.0
1030
0.0
  0
LINE
  5
598
330
80
100
AcDbEntity
  8
1
  6
Continuous
 62
     4
100
AcDbLine
 10
860.3326618410145
 20
747.1399891413758
 30
0.0
 11
848.1654013186306
 21
759.3072496637596
 31
0.0
1001
ACAD
1010
0.0
1020
0.0
1030
0.0
  0
LINE
  5
599
330
80
100
AcDbEntity
  8
1
  6
Continuous
 62
     4
100
AcDbLine
 10
865.0611757839845
 20
753.0180769162041
 30
0.0
 11
852.91519919608
 21
765.1640535041082
 31
0.0
1001
ACAD
1010
0.0
1020
0.0
1030
0.0
  0
LINE
  5
59A
330
80
100
AcDbEntity
  8
1
  6
Continuous
 62
     4
100
AcDbLine
 10
870.0308424777402
 20
758.6550119402462
 30
0.0
 11
857.7275261356591
 21
770.9583282823275
 31
0.0
1001
ACAD
1010
0.0
1020
0.0
1030
0.0
  0
LINE
  5
59B
330
80
100
AcDbEntity
  8
1
  6
Continuous
 62
     4
100
AcDbLine
 10
875.0005091714964
 20
764.2919469642886
 30
0.0
 11
862.8124136059479
 21
776.4800425298363
 31
0.0
1001
ACAD
1010
0.0
1020
0.0
1030
0.0
  0
LINE
  5
59C
330
80
100
AcDbEntity
  8
1
  6
Continuous
 62
     4
100
AcDbLine
 10
879.9701758652521
 20
769.9288819883307
 30
0.0
 11
867.8973010762373
 21
782.0017567773454
 31
0.0
1001
ACAD
1010
0.0
1020
0.0
1030
0.0
  0
LINE
  5
59D
330
80
100
AcDbEntity
  8
1
  6
Continuous
 62
     4
100
AcDbLine
 10
885.1455019463671
 20
775.3601576250137
 30
0.0
 11
872.9821885465263
 21
787.5234710248545
 31
0.0
1001
ACAD
1010
0.0
1020
0.0
1030
0.0
  0
LINE
  5
59E
330
80
100
AcDbEntity
  8
1
  6
Continuous
 62
     4
100
AcDbLine
 10
890.4488239652557
 20
780.6634373239237
 30
0.0
 11
883.7012299319088
 21
787.4110313572701
 31
0.0
1001
ACAD
1010
0.0
1020
0.0
1030
0.0
  0
LINE
  5
5EF
330
80
100
AcDbEntity
  8
1
  6
Continuous
 62
     7
100
AcDbLine
 10
745.9072499999991
 20
481.7242499999998
 30
0.0
 11
763.0009999999991
 21
471.8492499999999
 31
0.0
  0
LINE
  5
5F2
330
80
100
AcDbEntity
  8
1
  6
Continuous
 62
     7
100
AcDbLine
 10
745.9509999999995
 20
483.2117499999998
 30
0.0
 11
749.5384999999997
 21
479.6242499999998
 31
0.0
  0
LINE
  5
61B
330
80
100
AcDbEntity
  8
1
  6
Continuous
 62
     7
100
AcDbLine
 10
873.9830020747122
 20
788.6102613127368
 30
0.0
 11
856.7786657372865
 21
769.9279542551338
 31
0.0
  0
LINE
  5
61C
330
80
100
AcDbEntity
  8
1
  6
Continuous
 62
     7
100
AcDbLine
 10
856.7786657372865
 20
769.9279542551338
 30
0.0
 11
838.7424677558886
 21
747.6881713573676
 31
0.0
  0
LINE
  5
61D
330
80
100
AcDbEntity
  8
1
  6
Continuous
 62
     7
100
AcDbLine
 10
838.7424677558886
 20
747.6881713573676
 30
0.0
 11
822.1383076135991
 21
724.3597713493706
 31
0.0
  0
LINE
  5
61E
330
80
100
AcDbEntity
  8
1
  6
Continuous
 62
     7
100
AcDbLine
 10
822.1383076135991
 20
724.3597713493706
 30
0.0
 11
807.0317143447812
 21
700.0348207682405
 31
0.0
  0
LINE
  5
61F
330
80
100
AcDbEntity
  8
1
  6
Continuous
 62
     7
100
AcDbLine
 10
807.0317143447812
 20
700.0348207682405
 30
0.0
 11
793.4823067715199
 21
674.8093190809081
 31
0.0
  0
LINE
  5
620
330
80
100
AcDbEntity
  8
1
  6
Continuous
 62
     7
100
AcDbLine
 10
793.4823067715199
 20
674.8093190809081
 30
0.0
 11
781.5435582153716
 21
648.7828198180991
 31
0.0
  0
LINE
  5
621
330
80
100
AcDbEntity
  8
1
  6
Continuous
 62
     7
100
AcDbLine
 10
781.5435582153716
 20
648.7828198180991
 30
0.0
 11
771.2625854625923
 21
622.0580376820265
 31
0.0
  0
LINE
  5
622
330
80
100
AcDbEntity
  8
1
  6
Continuous
 62
     7
100
AcDbLine
 10
771.2625854625923
 20
622.0580376820265
 30
0.0
 11
762.6799628157076
 21
594.7404431783902
 31
0.0
  0
LINE
  5
623
330
80
100
AcDbEntity
  8
1
  6
Continuous
 62
     7
100
AcDbLine
 10
762.6799628157076
 20
594.7404431783902
 30
0.0
 11
755.8295619652775
 21
566.9378463724739
 31
0.0
  0
LINE
  5
624
330
80
100
AcDbEntity
  8
1
  6
Continuous
 62
     7
100
AcDbLine
 10
755.8295619652775
 20
566.9378463724739
 30
0.0
 11
750.7384183138076
 21
538.7599714120722
 31
0.0
  0
LINE
  5
625
330
80
100
AcDbEntity
  8
1
  6
Continuous
 62
     7
100
AcDbLine
 10
750.7384183138076
 20
538.7599714120722
 30
0.0
 11
747.4266242793687
 21
510.3180234964073
 31
0.0
  0
LINE
  5
626
330
80
100
AcDbEntity
  8
1
  6
Continuous
 62
     7
100
AcDbLine
 10
747.4266242793687
 20
510.3180234964073
 30
0.0
 11
745.9072499999991
 21
481.7242499999998
 31
0.0
  0
LINE
  5
64C
330
80
100
AcDbEntity
  8
1
  6
Continuous
 62
     7
100
AcDbLine
 10
894.6614601288734
 20
784.8760398711265
 30
0.0
 11
881.8766257282542
 21
772.0913074922052
 31
0.0
  0
LINE
  5
64D
330
80
100
AcDbEntity
  8
1
  6
Continuous
 62
     7
100
AcDbLine
 10
881.8766257282542
 20
772.0913074922052
 30
0.0
 11
863.6550645822165
 21
751.4231696579561
 31
0.0
  0
LINE
  5
64E
330
80
100
AcDbEntity
  8
1
  6
Continuous
 62
     7
100
AcDbLine
 10
863.6550645822165
 20
751.4231696579561
 30
0.0
 11
846.7672226370973
 21
729.6516743815411
 31
0.0
  0
LINE
  5
64F
330
80
100
AcDbEntity
  8
1
  6
Continuous
 62
     7
100
AcDbLine
 10
846.7672226370973
 20
729.6516743815411
 30
0.0
 11
831.2797484897313
 21
706.8627438083661
 31
0.0
  0
LINE
  5
650
330
80
100
AcDbEntity
  8
1
  6
Continuous
 62
     7
100
AcDbLine
 10
831.2797484897313
 20
706.8627438083661
 30
0.0
 11
817.2537641250258
 21
683.1463154361313
 31
0.0
  0
LINE
  5
651
330
80
100
AcDbEntity
  8
1
  6
Continuous
 62
     7
100
AcDbLine
 10
817.2537641250258
 20
683.1463154361313
 30
0.0
 11
804.7446236954053
 21
658.5959871726162
 31
0.0
  0
LINE
  5
652
330
80
100
AcDbEntity
  8
1
  6
Continuous
 62
     7
100
AcDbLine
 10
804.7446236954053
 20
658.5959871726162
 30
0.0
 11
793.8016950632625
 21
633.3086479474991
 31
0.0
  0
LINE
  5
653
330
80
100
AcDbEntity
  8
1
  6
Continuous
 62
     7
100
AcDbLine
 10
793.8016950632625
 20
633.3086479474991
 30
0.0
 11
784.4681649685597
 21
607.3840953360156
 31
0.0
  0
LINE
  5
654
330
80
100
AcDbEntity
  8
1
  6
Continuous
 62
     7
100
AcDbLine
 10
784.4681649685597
 20
607.3840953360156
 30
0.0
 11
776.7808685904968
 21
580.9246417035209
 31
0.0
  0
LINE
  5
655
330
80
100
AcDbEntity
  8
1
  6
Continuous
 62
     7
100
AcDbLine
 10
776.7808685904968
 20
580.9246417035209
 30
0.0
 11
770.7701441758866
 21
554.0347104253283
 31
0.0
  0
LINE
  5
656
330
80
100
AcDbEntity
  8
1
  6
Continuous
 62
     7
100
AcDbLine
 10
770.7701441758866
 20
554.0347104253283
 30
0.0
 11
766.4597133079544
 21
526.8204237753517
 31
0.0
  0
LINE
  5
657
330
80
100
AcDbEntity
  8
1
  6
Continuous
 62
     7
100
AcDbLine
 10
766.4597133079544
 20
526.8204237753517
 30
0.0
 11
763.8665872880872
 21
499.3891841099743
 31
0.0
  0
LINE
  5
658
330
80
100
AcDbEntity
  8
1
  6
Continuous
 62
     7
100
AcDbLine
 10
763.8665872880872
 20
499.3891841099743
 30
0.0
 11
763.0009999999991
 21
471.8492500000001
 31
0.0
  0
LINE
  5
6F4
330
80
100
AcDbEntity
  8
1
  6
Continuous
 62
     7
100
AcDbLine
 10
1055.268749999999
 20
604.725
 30
0.0
 11
1032.157373691695
 21
573.623741550355
 31
0.0
  0
LINE
  5
6F5
330
80
100
AcDbEntity
  8
1
  6
Continuous
 62
     7
100
AcDbLine
 10
1032.157373691695
 20
573.623741550355
 30
0.0
 11
1015.557630524699
 21
538.6112792147037
 31
0.0
  0
LINE
  5
6F6
330
80
100
AcDbEntity
  8
1
  6
Continuous
 62
     7
100
AcDbLine
 10
1015.557630524699
 20
538.6112792147037
 30
0.0
 11
1006.107439319674
 21
501.0331222853899
 31
0.0
  0
LINE
  5
6F7
330
80
100
AcDbEntity
  8
1
  6
Continuous
 62
     7
100
AcDbLine
 10
1006.107439319674
 20
501.0331222853899
 30
0.0
 11
1005.26063394173
 21
484.1187499999999
 31
0.0
  0
LINE
  5
6F8
330
80
100
AcDbEntity
  8
1
  6
Continuous
 62
     7
100
AcDbLine
 10
1005.26063394173
 20
484.1187499999999
 30
0.0
 11
875.1812499999997
 21
484.11875
 31
0.0
  0
LINE
  5
6F9
330
80
100
AcDbEntity
  8
1
  6
Continuous
 62
     7
100
AcDbLine
 10
974.5006483595515
 20
705.0369205036848
 30
0.0
 11
964.0562500000001
 21
695.9437499999998
 31
0.0
  0
LINE
  5
6FA
330
80
100
AcDbEntity
  8
1
  6
Continuous
 62
     7
100
AcDbLine
 10
964.0562500000001
 20
695.9437499999998
 30
0.0
 11
924.9016009915079
 21
645.2950728502409
 31
0.0
  0
LINE
  5
6FB
330
80
100
AcDbEntity
  8
1
  6
Continuous
 62
     7
100
AcDbLine
 10
924.9016009915079
 20
645.2950728502409
 30
0.0
 11
896.3803643194612
 21
587.9809027463668
 31
0.0
  0
LINE
  5
6FC
330
80
100
AcDbEntity
  8
1
  6
Continuous
 62
     7
100
AcDbLine
 10
896.3803643194612
 20
587.9809027463668
 30
0.0
 11
879.588595114273
 21
526.2037911033124
 31
0.0
  0
LINE
  5
6FD
330
80
100
AcDbEntity
  8
1
  6
Continuous
 62
     7
100
AcDbLine
 10
879.588595114273
 20
526.2037911033124
 30
0.0
 11
875.8276948291678
 21
471.8244738112678
 31
0.0
  0
ENDSEC
  0
SECTION
  2
OBJECTS
  0
DICTIONARY
  5
6E
330
0
100
AcDbDictionary
281
     1
  3
ACAD_COLOR
350
F8
  3
ACAD_GROUP
350
6F
  3
ACAD_LAYOUT
350
7B
  3
ACAD_MATERIAL
350
CB
  3
ACAD_MLEADERSTYLE
350
11D
  3
ACAD_MLINESTYLE
350
78
  3
ACAD_PLOTSETTINGS
350
7A
  3
ACAD_PLOTSTYLENAME
350
70
  3
ACAD_SCALELIST
350
FB
  3
ACAD_TABLESTYLE
350
F9
  3
ACAD_VISUALSTYLE
350
E4
  3
ACDB_RECOMPOSE_DATA
350
6FF
  3
AcDbVariableDictionary
350
1E1
  3
DWGPROPS
350
700
  0
DICTIONARY
  5
1D9
330
72
100
AcDbDictionary
280
     1
281
     1
  3
ADSK_XREC_LAYER_RECONCILED
360
1DA
  0
DICTIONARY
  5
1DB
330
8B
100
AcDbDictionary
280
     1
281
     1
  3
ADSK_XREC_LAYER_RECONCILED
360
1DC
  0
DICTIONARY
  5
1DD
330
8C
100
AcDbDictionary
280
     1
281
     1
  3
ADSK_XREC_LAYER_RECONCILED
360
1DE
  0
DICTIONARY
  5
1DF
330
8D
100
AcDbDictionary
280
     1
281
     1
  3
ADSK_XREC_LAYER_RECONCILED
360
1E0
  0
DICTIONARY
  5
126
330
80
100
AcDbDictionary
280
     1
281
     1
  3
ACAD_SORTENTS
360
127
  0
DICTIONARY
  5
F8
102
{ACAD_REACTORS
330
6E
102
}
330
6E
100
AcDbDictionary
281
     1
  0
DICTIONARY
  5
6F
102
{ACAD_REACTORS
330
6E
102
}
330
6E
100
AcDbDictionary
281
     1
  0
DICTIONARY
  5
7B
102
{ACAD_REACTORS
330
6E
102
}
330
6E
100
AcDbDictionary
281
     1
  3
Layout1
350
7F
  3
Model
350
83
  0
DICTIONARY
  5
CB
102
{ACAD_REACTORS
330
6E
102
}
330
6E
100
AcDbDictionary
281
     1
  3
ByBlock
350
D4
  3
ByLayer
350
CC
  3
Global
350
DC
  0
DICTIONARY
  5
11D
102
{ACAD_REACTORS
330
6E
102
}
330
6E
100
AcDbDictionary
281
     1
  3
Standard
350
11E
  0
DICTIONARY
  5
78
102
{ACAD_REACTORS
330
6E
102
}
330
6E
100
AcDbDictionary
281
     1
  3
Standard
350
79
  0
DICTIONARY
  5
7A
102
{ACAD_REACTORS
330
6E
102
}
330
6E
100
AcDbDictionary
281
     1
  0
ACDBDICTIONARYWDFLT
  5
70
102
{ACAD_REACTORS
330
6E
102
}
330
6E
100
AcDbDictionary
281
     1
  3
Normal
350
71
100
AcDbDictionaryWithDefault
340
71
  0
DICTIONARY
  5
FB
102
{ACAD_REACTORS
330
6E
102
}
330
6E
100
AcDbDictionary
281
     1
  3
A0
350
FC
  3
A1
350
FD
  3
A2
350
FE
  3
A3
350
FF
  3
A4
350
100
  3
A5
350
101
  3
A6
350
102
  3
A7
350
103
  3
A8
350
104
  3
A9
350
105
  3
B0
350
106
  3
B1
350
107
  3
B2
350
108
  3
B3
350
109
  3
B4
350
10A
  3
B5
350
10B
  3
B6
350
10C
  3
B7
350
10D
  3
B8
350
10E
  3
B9
350
10F
  3
C0
350
110
  3
C1
350
111
  3
C2
350
112
  3
C3
350
113
  3
C4
350
114
  3
C5
350
115
  3
C6
350
116
  3
C7
350
117
  3
C8
350
118
  3
C9
350
119
  3
D0
350
11A
  3
D1
350
11B
  3
D2
350
11C
  0
DICTIONARY
  5
F9
102
{ACAD_REACTORS
330
6E
102
}
330
6E
100
AcDbDictionary
281
     1
  3
Standard
350
FA
  0
DICTIONARY
  5
E4
102
{ACAD_REACTORS
330
6E
102
}
330
6E
100
AcDbDictionary
281
     1
  3
2dWireframe
350
EA
  3
3D Hidden
350
EC
  3
3dWireframe
350
EB
  3
Basic
350
E9
  3
Brighten
350
F0
  3
ColorChange
350
F4
  3
Conceptual
350
ED
  3
Dim
350
EF
  3
EdgeColorOff
350
F7
  3
Facepattern
350
F3
  3
Flat
350
E5
  3
FlatWithEdges
350
E6
  3
Gouraud
350
E7
  3
GouraudWithEdges
350
E8
  3
JitterOff
350
F5
  3
Linepattern
350
F2
  3
OverhangOff
350
F6
  3
Realistic
350
EE
  3
Thicken
350
F1
  0
XRECORD
  5
6FF
102
{ACAD_REACTORS
330
6E
102
}
330
6E
100
AcDbXrecord
280
     1
 90
        1
330
FA
  0
DICTIONARY
  5
1E1
102
{ACAD_REACTORS
330
6E
102
}
330
6E
100
AcDbDictionary
281
     1
  3
CANNOSCALE
350
1E4
  3
CMLEADERSTYLE
350
1E3
  3
CTABLESTYLE
350
1E2
  3
DIMASSOC
350
1E7
  3
INDEXCTL
350
1E6
  3
SORTENTS
350
1E5
  3
XCLIPFRAME
350
697
  0
XRECORD
  5
700
102
{ACAD_REACTORS
330
6E
102
}
330
6E
100
AcDbXrecord
280
     1
  1
DWGPROPS COOKIE
  2

  3

  4

  6

  7

  8
John
  9

300
=
301
=
302
=
303
=
304
=
305
=
306
=
307
=
308
=
309
=
 40
0.008158125
 41
2453238.647268519
 42
2456695.705790799
  1

 90
        0
  0
XRECORD
  5
1DA
102
{ACAD_REACTORS
330
1D9
102
}
330
1D9
100
AcDbXrecord
280
     1
290
     1
  0
XRECORD
  5
1DC
102
{ACAD_REACTORS
330
1DB
102
}
330
1DB
100
AcDbXrecord
280
     1
290
     1
  0
XRECORD
  5
1DE
102
{ACAD_REACTORS
330
1DD
102
}
330
1DD
100
AcDbXrecord
280
     1
290
     1
  0
XRECORD
  5
1E0
102
{ACAD_REACTORS
330
1DF
102
}
330
1DF
100
AcDbXrecord
280
     1
290
     1
  0
SORTENTSTABLE
  5
127
102
{ACAD_REACTORS
330
126
102
}
330
126
100
AcDbSortentsTable
330
80
331
400
  5
400
331
6FD
  5
6F8
331
44D
  5
44D
331
3C3
  5
3C3
331
410
  5
410
331
3FA
  5
3FA
331
6F7
  5
6FC
331
447
  5
447
331
3BD
  5
3BD
331
BE
  5
23B
331
61C
  5
61C
331
403
  5
403
331
577
  5
577
331
450
  5
450
331
413
  5
413
331
3FD
  5
3FD
331
3C6
  5
3C6
331
580
  5
580
331
459
  5
459
331
41C
  5
41C
331
61F
  5
61F
331
406
  5
406
331
57A
  5
57A
331
453
  5
453
331
416
  5
416
331
3C9
  5
3C9
331
583
  5
583
331
622
  5
622
331
45C
  5
45C
331
3D2
  5
3D2
331
57D
  5
57D
331
456
  5
456
331
3CC
  5
3CC
331
428
  5
428
331
586
  5
586
331
45F
  5
45F
331
3D5
  5
3D5
331
625
  5
625
331
422
  5
422
331
3CF
  5
3CF
331
C0
  5
23D
331
91
  5
91
331
468
  5
468
331
42B
  5
42B
331
3A1
  5
3A1
331
64E
  5
64E
331
589
  5
589
331
462
  5
462
331
3D8
  5
3D8
331
94
  5
94
331
C3
  5
240
331
592
  5
592
331
46B
  5
46B
331
3E1
  5
3E1
331
42E
  5
42E
331
3A4
  5
3A4
331
651
  5
651
331
58C
  5
58C
331
465
  5
465
331
3DB
  5
3DB
331
C6
  5
243
331
97
  5
98
331
595
  5
595
331
46E
  5
46E
331
3E4
  5
3E4
331
654
  5
654
331
431
  5
431
331
58F
  5
58F
331
3DE
  5
3DE
331
3A7
  5
3A7
331
481
  5
481
331
43A
  5
43A
331
3B0
  5
3B0
331
598
  5
598
331
471
  5
471
331
3E7
  5
3E7
331
657
  5
657
331
434
  5
434
331
3AA
  5
3AA
331
A3
  5
22E
331
47A
  5
47A
331
3F0
  5
3F0
331
484
  5
484
331
43D
  5
43D
331
59B
  5
59B
331
474
  5
474
331
3EA
  5
3EA
331
3B3
  5
3B3
331
437
  5
437
331
3AD
  5
3AD
331
409
  5
409
331
47D
  5
47D
331
3F3
  5
3F3
331
487
  5
487
331
440
  5
440
331
59E
  5
59E
331
477
  5
477
331
3ED
  5
3ED
331
3B6
  5
3B6
331
6F9
  5
6F4
331
449
  5
449
331
40C
  5
40C
331
5EF
  5
5EF
331
3F6
  5
3F6
331
48A
  5
48A
331
443
  5
443
331
3B9
  5
3B9
331
BA
  5
237
331
B4
  5
231
331
6FC
  5
6F7
331
44C
  5
44C
331
3C2
  5
3C2
331
40F
  5
40F
331
5F2
  5
5F2
331
3F9
  5
3F9
331
6F6
  5
6FB
331
446
  5
446
331
3BC
  5
3BC
331
BD
  5
23A
331
B7
  5
234
331
61B
  5
61B
331
402
  5
402
331
576
  5
576
331
44F
  5
44F
331
412
  5
412
331
3FC
  5
3FC
331
3C5
  5
3C5
331
3BF
  5
3BF
331
458
  5
458
331
61E
  5
61E
331
405
  5
405
331
579
  5
579
331
452
  5
452
331
415
  5
415
331
3FF
  5
3FF
331
3C8
  5
3C8
331
582
  5
582
331
45B
  5
45B
331
621
  5
621
331
41E
  5
41E
331
3D1
  5
3D1
331
57C
  5
57C
331
455
  5
455
331
3CB
  5
3CB
331
585
  5
585
331
45E
  5
45E
331
624
  5
624
331
421
  5
421
331
3D4
  5
3D4
331
57F
  5
57F
331
3CE
  5
3CE
331
42A
  5
42A
331
64D
  5
64D
331
588
  5
588
331
461
  5
461
331
3D7
  5
3D7
331
93
  5
93
331
424
  5
424
331
C2
  5
23F
331
591
  5
591
331
46A
  5
46A
331
3E0
  5
3E0
331
42D
  5
42D
331
3A3
  5
3A3
331
650
  5
650
331
58B
  5
58B
331
464
  5
464
331
3DA
  5
3DA
331
427
  5
427
331
C5
  5
242
331
96
  5
97
331
594
  5
594
331
46D
  5
46D
331
3E3
  5
3E3
331
430
  5
430
331
3A6
  5
3A6
331
653
  5
653
331
58E
  5
58E
331
467
  5
467
331
3DD
  5
3DD
331
99
  5
9B
331
480
  5
480
331
439
  5
439
331
597
  5
597
331
470
  5
470
331
3E6
  5
3E6
331
433
  5
433
331
3A9
  5
3A9
331
A2
  5
22D
331
656
  5
656
331
9C
  5
227
331
479
  5
479
331
483
  5
483
331
43C
  5
43C
331
3B2
  5
3B2
331
59A
  5
59A
331
473
  5
473
331
3E9
  5
3E9
331
436
  5
436
331
3AC
  5
3AC
331
A5
  5
230
331
9F
  5
22A
331
408
  5
408
331
47C
  5
47C
331
3F2
  5
3F2
331
486
  5
486
331
43F
  5
43F
331
59D
  5
59D
331
476
  5
476
331
3EC
  5
3EC
331
3B5
  5
3B5
331
3AF
  5
3AF
331
6F8
  5
6FD
331
448
  5
448
331
40B
  5
40B
331
47F
  5
47F
331
3F5
  5
3F5
331
489
  5
489
331
442
  5
442
331
3EF
  5
3EF
331
3B8
  5
3B8
331
B9
  5
236
331
6FB
  5
6F6
331
44B
  5
44B
331
3C1
  5
3C1
331
40E
  5
40E
331
3F8
  5
3F8
331
6F5
  5
6FA
331
445
  5
445
331
3BB
  5
3BB
331
BC
  5
239
331
B6
  5
233
331
401
  5
401
331
575
  5
575
331
44E
  5
44E
331
3C4
  5
3C4
331
411
  5
411
331
3FB
  5
3FB
331
3BE
  5
3BE
331
BF
  5
23C
331
61D
  5
61D
331
404
  5
404
331
578
  5
578
331
451
  5
451
331
414
  5
414
331
3FE
  5
3FE
331
3C7
  5
3C7
331
581
  5
581
331
45A
  5
45A
331
41D
  5
41D
331
620
  5
620
331
407
  5
407
331
3D0
  5
3D0
331
57B
  5
57B
331
454
  5
454
331
417
  5
417
331
3CA
  5
3CA
331
584
  5
584
331
45D
  5
45D
331
623
  5
623
331
420
  5
420
331
3D3
  5
3D3
331
57E
  5
57E
331
457
  5
457
331
3CD
  5
3CD
331
429
  5
429
331
587
  5
587
331
460
  5
460
331
3D6
  5
3D6
331
64C
  5
64C
331
626
  5
626
331
423
  5
423
331
C1
  5
23E
331
590
  5
590
331
469
  5
469
331
42C
  5
42C
331
3A2
  5
3A2
331
64F
  5
64F
331
58A
  5
58A
331
463
  5
463
331
3D9
  5
3D9
331
95
  5
95
331
426
  5
426
331
C4
  5
241
331
658
  5
658
331
593
  5
593
331
46C
  5
46C
331
3E2
  5
3E2
331
42F
  5
42F
331
3A5
  5
3A5
331
652
  5
652
331
58D
  5
58D
331
466
  5
466
331
3DC
  5
3DC
331
98
  5
99
331
438
  5
438
331
596
  5
596
331
46F
  5
46F
331
3E5
  5
3E5
331
655
  5
655
331
432
  5
432
331
3DF
  5
3DF
331
3A8
  5
3A8
331
A1
  5
22C
331
478
  5
478
331
482
  5
482
331
43B
  5
43B
331
3B1
  5
3B1
331
599
  5
599
331
472
  5
472
331
3E8
  5
3E8
331
435
  5
435
331
3AB
  5
3AB
331
A4
  5
22F
331
47B
  5
47B
331
3F1
  5
3F1
331
485
  5
485
331
43E
  5
43E
331
59C
  5
59C
331
475
  5
475
331
3EB
  5
3EB
331
3B4
  5
3B4
331
3AE
  5
3AE
331
40A
  5
40A
331
47E
  5
47E
331
3F4
  5
3F4
331
488
  5
488
331
441
  5
441
331
3EE
  5
3EE
331
3B7
  5
3B7
331
B8
  5
235
331
6FA
  5
6F5
331
44A
  5
44A
331
3C0
  5
3C0
331
40D
  5
40D
331
3F7
  5
3F7
331
6F4
  5
6F9
331
444
  5
444
331
3BA
  5
3BA
331
BB
  5
238
331
B5
  5
232
  0
LAYOUT
  5
7F
102
{ACAD_XDICTIONARY
360
701
102
}
102
{ACAD_REACTORS
330
7B
102
}
330
7B
100
AcDbPlotSettings
  1

  2
HP DeskJet 840C/841C/842C/843C
  4

  6

 40
0.0
 41
0.0
 42
0.0
 43
0.0
 44
0.0
 45
0.0
 46
0.0
 47
0.0
 48
0.0
 49
0.0
140
0.0
141
0.0
142
1.0
143
1.0
 70
   688
 72
     0
 73
     0
 74
     5
  7

 75
    16
147
1.0
148
0.0
149
0.0
100
AcDbLayout
  1
Layout1
 70
     0
 71
     1
 10
0.0
 20
0.0
 11
12.0
 21
9.0
 12
0.0
 22
0.0
 32
0.0
 14
-1.000000000000000E+20
 24
-1.000000000000000E+20
 34
-1.000000000000000E+20
 15
-1.000000000000000E+20
 25
-1.000000000000000E+20
 35
-1.000000000000000E+20
146
0.0
 13
0.0
 23
0.0
 33
0.0
 16
1.0
 26
0.0
 36
0.0
 17
0.0
 27
1.0
 37
0.0
 76
     0
330
7C
  0
LAYOUT
  5
83
102
{ACAD_XDICTIONARY
360
703
102
}
102
{ACAD_REACTORS
330
7B
102
}
330
7B
100
AcDbPlotSettings
  1

  2
HP DeskJet 840C/841C/842C/843C
  4

  6

 40
0.0
 41
0.0
 42
0.0
 43
0.0
 44
0.0
 45
0.0
 46
0.0
 47
0.0
 48
0.0
 49
0.0
140
0.0
141
0.0
142
1.0
143
1.0
 70
  1712
 72
     0
 73
     0
 74
     0
  7

 75
     0
147
1.0
148
0.0
149
0.0
100
AcDbLayout
  1
Model
 70
     1
 71
     0
 10
0.0
 20
0.0
 11
12.0
 21
9.0
 12
0.0
 22
0.0
 32
0.0
 14
0.0
 24
0.0
 34
0.0
 15
0.0
 25
0.0
 35
0.0
146
0.0
 13
0.0
 23
0.0
 33
0.0
 16
1.0
 26
0.0
 36
0.0
 17
0.0
 27
1.0
 37
0.0
 76
     0
330
80
331
C8
  0
MATERIAL
  5
D4
102
{ACAD_XDICTIONARY
360
D5
102
}
102
{ACAD_REACTORS
330
CB
102
}
330
CB
100
AcDbMaterial
  1
ByBlock
 72
     0
 43
0.0208333333333333
 43
0.0
 43
0.0
 43
0.0
 43
0.0
 43
0.0208333333333333
 43
0.0
 43
0.0
 43
0.0
 43
0.0
 43
1.0
 43
0.0
 43
0.0
 43
0.0
 43
0.0
 43
1.0
 77
     0
 47
0.0208333333333333
 47
0.0
 47
0.0
 47
0.0
 47
0.0
 47
0.0208333333333333
 47
0.0
 47
0.0
 47
0.0
 47
0.0
 47
1.0
 47
0.0
 47
0.0
 47
0.0
 47
0.0
 47
1.0
171
     0
 49
0.0208333333333333
 49
0.0
 49
0.0
 49
0.0
 49
0.0
 49
0.0208333333333333
 49
0.0
 49
0.0
 49
0.0
 49
0.0
 49
1.0
 49
0.0
 49
0.0
 49
0.0
 49
0.0
 49
1.0
175
     0
142
0.0208333333333333
142
0.0
142
0.0
142
0.0
142
0.0
142
0.0208333333333333
142
0.0
142
0.0
142
0.0
142
0.0
142
1.0
142
0.0
142
0.0
142
0.0
142
0.0
142
1.0
179
     0
144
0.0208333333333333
144
0.0
144
0.0
144
0.0
144
0.0
144
0.0208333333333333
144
0.0
144
0.0
144
0.0
144
0.0
144
1.0
144
0.0
144
0.0
144
0.0
144
0.0
144
1.0
147
0.0208333333333333
147
0.0
147
0.0
147
0.0
147
0.0
147
0.0208333333333333
147
0.0
147
0.0
147
0.0
147
0.0
147
1.0
147
0.0
147
0.0
147
0.0
147
0.0
147
1.0
  0
MATERIAL
  5
CC
102
{ACAD_XDICTIONARY
360
CD
102
}
102
{ACAD_REACTORS
330
CB
102
}
330
CB
100
AcDbMaterial
  1
ByLayer
 72
     0
 43
0.0208333333333333
 43
0.0
 43
0.0
 43
0.0
 43
0.0
 43
0.0208333333333333
 43
0.0
 43
0.0
 43
0.0
 43
0.0
 43
1.0
 43
0.0
 43
0.0
 43
0.0
 43
0.0
 43
1.0
 77
     0
 47
0.0208333333333333
 47
0.0
 47
0.0
 47
0.0
 47
0.0
 47
0.0208333333333333
 47
0.0
 47
0.0
 47
0.0
 47
0.0
 47
1.0
 47
0.0
 47
0.0
 47
0.0
 47
0.0
 47
1.0
171
     0
 49
0.0208333333333333
 49
0.0
 49
0.0
 49
0.0
 49
0.0
 49
0.0208333333333333
 49
0.0
 49
0.0
 49
0.0
 49
0.0
 49
1.0
 49
0.0
 49
0.0
 49
0.0
 49
0.0
 49
1.0
175
     0
142
0.0208333333333333
142
0.0
142
0.0
142
0.0
142
0.0
142
0.0208333333333333
142
0.0
142
0.0
142
0.0
142
0.0
142
1.0
142
0.0
142
0.0
142
0.0
142
0.0
142
1.0
179
     0
144
0.0208333333333333
144
0.0
144
0.0
144
0.0
144
0.0
144
0.0208333333333333
144
0.0
144
0.0
144
0.0
144
0.0
144
1.0
144
0.0
144
0.0
144
0.0
144
0.0
144
1.0
147
0.0208333333333333
147
0.0
147
0.0
147
0.0
147
0.0
147
0.0208333333333333
147
0.0
147
0.0
147
0.0
147
0.0
147
1.0
147
0.0
147
0.0
147
0.0
147
0.0
147
1.0
  0
MATERIAL
  5
DC
102
{ACAD_XDICTIONARY
360
DD
102
}
102
{ACAD_REACTORS
330
CB
102
}
330
CB
100
AcDbMaterial
  1
Global
 72
     0
 43
0.0208333333333333
 43
0.0
 43
0.0
 43
0.0
 43
0.0
 43
0.0208333333333333
 43
0.0
 43
0.0
 43
0.0
 43
0.0
 43
1.0
 43
0.0
 43
0.0
 43
0.0
 43
0.0
 43
1.0
 77
     0
 47
0.0208333333333333
 47
0.0
 47
0.0
 47
0.0
 47
0.0
 47
0.0208333333333333
 47
0.0
 47
0.0
 47
0.0
 47
0.0
 47
1.0
 47
0.0
 47
0.0
 47
0.0
 47
0.0
 47
1.0
171
     0
 49
0.0208333333333333
 49
0.0
 49
0.0
 49
0.0
 49
0.0
 49
0.0208333333333333
 49
0.0
 49
0.0
 49
0.0
 49
0.0
 49
1.0
 49
0.0
 49
0.0
 49
0.0
 49
0.0
 49
1.0
175
     0
142
0.0208333333333333
142
0.0
142
0.0
142
0.0
142
0.0
142
0.0208333333333333
142
0.0
142
0.0
142
0.0
142
0.0
142
1.0
142
0.0
142
0.0
142
0.0
142
0.0
142
1.0
179
     0
144
0.0208333333333333
144
0.0
144
0.0
144
0.0
144
0.0
144
0.0208333333333333
144
0.0
144
0.0
144
0.0
144
0.0
144
1.0
144
0.0
144
0.0
144
0.0
144
0.0
144
1.0
147
0.0208333333333333
147
0.0
147
0.0
147
0.0
147
0.0
147
0.0208333333333333
147
0.0
147
0.0
147
0.0
147
0.0
147
1.0
147
0.0
147
0.0
147
0.0
147
0.0
147
1.0
  0
MLEADERSTYLE
  5
11E
102
{ACAD_REACTORS
330
11D
102
}
330
11D
100
AcDbMLeaderStyle
170
     2
171
     1
172
     0
 90
        2
 40
0.0
 41
0.0
173
     1
 91
-1056964608
340
75
 92
       -2
290
     1
 42
0.09
291
     1
 43
0.36
  3
Standard
 44
0.18
300

342
73
174
     1
178
     6
175
     1
176
     0
 93
-1056964608
 45
0.18
292
     0
297
     0
 46
0.18
 94
-1056964608
 47
1.0
 49
1.0
140
1.0
293
     1
141
0.0
294
     1
177
     0
142
1.0
295
     0
296
     0
143
0.125
1001
ACAD_MLEADERVER
1070
     2
  0
MLINESTYLE
  5
79
102
{ACAD_REACTORS
330
78
102
}
330
78
100
AcDbMlineStyle
  2
STANDARD
 70
     0
  3

 62
   256
 51
90.0
 52
90.0
 71
     2
 49
0.5
 62
   256
  6
BYLAYER
 49
-0.5
 62
   256
  6
BYLAYER
  0
ACDBPLACEHOLDER
  5
71
102
{ACAD_REACTORS
330
70
102
}
330
70
  0
SCALE
  5
FC
102
{ACAD_REACTORS
330
FB
102
}
330
FB
100
AcDbScale
 70
     0
300
1:1
140
1.0
141
1.0
290
     1
  0
SCALE
  5
FD
102
{ACAD_REACTORS
330
FB
102
}
330
FB
100
AcDbScale
 70
     0
300
1:2
140
1.0
141
2.0
290
     0
  0
SCALE
  5
FE
102
{ACAD_REACTORS
330
FB
102
}
330
FB
100
AcDbScale
 70
     0
300
1:4
140
1.0
141
4.0
290
     0
  0
SCALE
  5
FF
102
{ACAD_REACTORS
330
FB
102
}
330
FB
100
AcDbScale
 70
     0
300
1:5
140
1.0
141
5.0
290
     0
  0
SCALE
  5
100
102
{ACAD_REACTORS
330
FB
102
}
330
FB
100
AcDbScale
 70
     0
300
1:8
140
1.0
141
8.0
290
     0
  0
SCALE
  5
101
102
{ACAD_REACTORS
330
FB
102
}
330
FB
100
AcDbScale
 70
     0
300
1:10
140
1.0
141
10.0
290
     0
  0
SCALE
  5
102
102
{ACAD_REACTORS
330
FB
102
}
330
FB
100
AcDbScale
 70
     0
300
1:16
140
1.0
141
16.0
290
     0
  0
SCALE
  5
103
102
{ACAD_REACTORS
330
FB
102
}
330
FB
100
AcDbScale
 70
     0
300
1:20
140
1.0
141
20.0
290
     0
  0
SCALE
  5
104
102
{ACAD_REACTORS
330
FB
102
}
330
FB
100
AcDbScale
 70
     0
300
1:30
140
1.0
141
30.0
290
     0
  0
SCALE
  5
105
102
{ACAD_REACTORS
330
FB
102
}
330
FB
100
AcDbScale
 70
     0
300
1:40
140
1.0
141
40.0
290
     0
  0
SCALE
  5
106
102
{ACAD_REACTORS
330
FB
102
}
330
FB
100
AcDbScale
 70
     0
300
1:50
140
1.0
141
50.0
290
     0
  0
SCALE
  5
107
102
{ACAD_REACTORS
330
FB
102
}
330
FB
100
AcDbScale
 70
     0
300
1:100
140
1.0
141
100.0
290
     0
  0
SCALE
  5
108
102
{ACAD_REACTORS
330
FB
102
}
330
FB
100
AcDbScale
 70
     0
300
2:1
140
2.0
141
1.0
290
     0
  0
SCALE
  5
109
102
{ACAD_REACTORS
330
FB
102
}
330
FB
100
AcDbScale
 70
     0
300
4:1
140
4.0
141
1.0
290
     0
  0
SCALE
  5
10A
102
{ACAD_REACTORS
330
FB
102
}
330
FB
100
AcDbScale
 70
     0
300
8:1
140
8.0
141
1.0
290
     0
  0
SCALE
  5
10B
102
{ACAD_REACTORS
330
FB
102
}
330
FB
100
AcDbScale
 70
     0
300
10:1
140
10.0
141
1.0
290
     0
  0
SCALE
  5
10C
102
{ACAD_REACTORS
330
FB
102
}
330
FB
100
AcDbScale
 70
     0
300
100:1
140
100.0
141
1.0
290
     0
  0
SCALE
  5
10D
102
{ACAD_REACTORS
330
FB
102
}
330
FB
100
AcDbScale
 70
     0
300
1/128" = 1'-0"
140
0.0078125
141
12.0
290
     0
  0
SCALE
  5
10E
102
{ACAD_REACTORS
330
FB
102
}
330
FB
100
AcDbScale
 70
     0
300
1/64" = 1'-0"
140
0.015625
141
12.0
290
     0
  0
SCALE
  5
10F
102
{ACAD_REACTORS
330
FB
102
}
330
FB
100
AcDbScale
 70
     0
300
1/32" = 1'-0"
140
0.03125
141
12.0
290
     0
  0
SCALE
  5
110
102
{ACAD_REACTORS
330
FB
102
}
330
FB
100
AcDbScale
 70
     0
300
1/16" = 1'-0"
140
0.0625
141
12.0
290
     0
  0
SCALE
  5
111
102
{ACAD_REACTORS
330
FB
102
}
330
FB
100
AcDbScale
 70
     0
300
3/32" = 1'-0"
140
0.09375
141
12.0
290
     0
  0
SCALE
  5
112
102
{ACAD_REACTORS
330
FB
102
}
330
FB
100
AcDbScale
 70
     0
300
1/8" = 1'-0"
140
0.125
141
12.0
290
     0
  0
SCALE
  5
113
102
{ACAD_REACTORS
330
FB
102
}
330
FB
100
AcDbScale
 70
     0
300
3/16" = 1'-0"
140
0.1875
141
12.0
290
     0
  0
SCALE
  5
114
102
{ACAD_REACTORS
330
FB
102
}
330
FB
100
AcDbScale
 70
     0
300
1/4" = 1'-0"
140
0.25
141
12.0
290
     0
  0
SCALE
  5
115
102
{ACAD_REACTORS
330
FB
102
}
330
FB
100
AcDbScale
 70
     0
300
3/8" = 1'-0"
140
0.375
141
12.0
290
     0
  0
SCALE
  5
116
102
{ACAD_REACTORS
330
FB
102
}
330
FB
100
AcDbScale
 70
     0
300
1/2" = 1'-0"
140
0.5
141
12.0
290
     0
  0
SCALE
  5
117
102
{ACAD_REACTORS
330
FB
102
}
330
FB
100
AcDbScale
 70
     0
300
3/4" = 1'-0"
140
0.75
141
12.0
290
     0
  0
SCALE
  5
118
102
{ACAD_REACTORS
330
FB
102
}
330
FB
100
AcDbScale
 70
     0
300
1" = 1'-0"
140
1.0
141
12.0
290
     0
  0
SCALE
  5
119
102
{ACAD_REACTORS
330
FB
102
}
330
FB
100
AcDbScale
 70
     0
300
1-1/2" = 1'-0"
140
1.5
141
12.0
290
     0
  0
SCALE
  5
11A
102
{ACAD_REACTORS
330
FB
102
}
330
FB
100
AcDbScale
 70
     0
300
3" = 1'-0"
140
3.0
141
12.0
290
     0
  0
SCALE
  5
11B
102
{ACAD_REACTORS
330
FB
102
}
330
FB
100
AcDbScale
 70
     0
300
6" = 1'-0"
140
6.0
141
12.0
290
     0
  0
SCALE
  5
11C
102
{ACAD_REACTORS
330
FB
102
}
330
FB
100
AcDbScale
 70
     0
300
1'-0" = 1'-0"
140
12.0
141
12.0
290
     0
  0
TABLESTYLE
  5
FA
102
{ACAD_XDICTIONARY
360
27A
102
}
102
{ACAD_REACTORS
330
F9
102
}
330
F9
100
AcDbTableStyle
  3
Standard
 70
     0
 71
     0
 40
0.06
 41
0.06
280
     0
281
     0
  7
STANDARD
140
0.18
170
     2
 62
     0
 63
     7
283
     0
274
    -2
284
     1
 64
     0
275
    -2
285
     1
 65
     0
276
    -2
286
     1
 66
     0
277
    -2
287
     1
 67
     0
278
    -2
288
     1
 68
     0
279
    -2
289
     1
 69
     0
  7
STANDARD
140
0.25
170
     5
 62
     0
 63
     7
283
     0
274
    -2
284
     1
 64
     0
275
    -2
285
     1
 65
     0
276
    -2
286
     1
 66
     0
277
    -2
287
     1
 67
     0
278
    -2
288
     1
 68
     0
279
    -2
289
     1
 69
     0
  7
STANDARD
140
0.18
170
     5
 62
     0
 63
     7
283
     0
274
    -2
284
     1
 64
     0
275
    -2
285
     1
 65
     0
276
    -2
286
     1
 66
     0
277
    -2
287
     1
 67
     0
278
    -2
288
     1
 68
     0
279
    -2
289
     1
 69
     0
  0
VISUALSTYLE
  5
EA
102
{ACAD_XDICTIONARY
360
70F
102
}
102
{ACAD_REACTORS
330
E4
102
}
330
E4
100
AcDbVisualStyle
  2

 70
     4
 71
     0
 72
     2
 73
     0
 90
        0
 40
-0.6
 41
-30.0
 62
     5
 63
     7
 74
     1
 91
        4
 64
     7
 65
   257
 75
     1
175
     1
 42
1.0
 92
        0
 66
   257
 43
1.0
 76
     1
 77
     6
 78
     2
 67
     7
 79
     5
170
     0
171
     0
290
     0
174
     0
 93
        1
 44
0.0
173
     0
291
     0
 45
0.0
1001
ACAD
1000
AcDbSavedByObjectVersion
1070
     0
  0
VISUALSTYLE
  5
EC
102
{ACAD_XDICTIONARY
360
713
102
}
102
{ACAD_REACTORS
330
E4
102
}
330
E4
100
AcDbVisualStyle
  2

 70
     6
 71
     1
 72
     2
 73
     2
 90
        0
 40
-0.6
 41
-30.0
 62
     5
 63
     7
 74
     2
 91
        2
 64
     7
 65
   257
 75
     2
175
     1
 42
179.0
 92
        0
 66
   257
 43
1.0
 76
     1
 77
     6
 78
     2
 67
     7
 79
     3
170
     0
171
     0
290
     0
174
     0
 93
        1
 44
0.0
173
     0
291
     0
 45
0.0
1001
ACAD
1000
AcDbSavedByObjectVersion
1070
     0
  0
VISUALSTYLE
  5
EB
102
{ACAD_XDICTIONARY
360
711
102
}
102
{ACAD_REACTORS
330
E4
102
}
330
E4
100
AcDbVisualStyle
  2

 70
     5
 71
     0
 72
     2
 73
     0
 90
        0
 40
-0.6
 41
-30.0
 62
     5
 63
     7
 74
     1
 91
        4
 64
     7
 65
   257
 75
     1
175
     1
 42
1.0
 92
        0
 66
   257
 43
1.0
 76
     1
 77
     6
 78
     2
 67
     7
 79
     5
170
     0
171
     0
290
     0
174
     0
 93
        1
 44
0.0
173
     0
291
     0
 45
0.0
1001
ACAD
1000
AcDbSavedByObjectVersion
1070
     0
  0
VISUALSTYLE
  5
E9
102
{ACAD_XDICTIONARY
360
70D
102
}
102
{ACAD_REACTORS
330
E4
102
}
330
E4
100
AcDbVisualStyle
  2

 70
     7
 71
     1
 72
     0
 73
     1
 90
        0
 40
-0.6
 41
-30.0
 62
     5
 63
     7
 74
     0
 91
        4
 64
     7
 65
   257
 75
     1
175
     1
 42
1.0
 92
        8
 66
     7
 43
1.0
 76
     1
 77
     6
 78
     2
 67
     7
 79
     5
170
     0
171
     0
290
     0
174
     0
 93
        1
 44
0.0
173
     0
291
     1
 45
0.0
1001
ACAD
1000
AcDbSavedByObjectVersion
1070
     0
  0
VISUALSTYLE
  5
F0
102
{ACAD_XDICTIONARY
360
71B
102
}
102
{ACAD_REACTORS
330
E4
102
}
330
E4
100
AcDbVisualStyle
  2

 70
    12
 71
     2
 72
     2
 73
     0
 90
        0
 40
-0.6
 41
-30.0
 62
     5
 63
     7
 74
     1
 91
        4
 64
     7
 65
   257
 75
     1
175
     1
 42
1.0
 92
        8
 66
     7
 43
1.0
 76
     1
 77
     6
 78
     2
 67
     7
 79
     5
170
     0
171
     0
290
     0
174
     0
 93
        1
 44
50.0
173
     0
291
     1
 45
0.0
1001
ACAD
1000
AcDbSavedByObjectVersion
1070
     0
  0
VISUALSTYLE
  5
F4
102
{ACAD_XDICTIONARY
360
723
102
}
102
{ACAD_REACTORS
330
E4
102
}
330
E4
100
AcDbVisualStyle
  2

 70
    16
 71
     2
 72
     2
 73
     3
 90
        0
 40
-0.6
 41
-30.0
 62
     5
 63
     8
 74
     1
 91
        4
 64
     7
 65
   257
 75
     1
175
     1
 42
1.0
 92
        8
 66
     8
 43
1.0
 76
     1
 77
     6
 78
     2
 67
     7
 79
     5
170
     0
171
     0
290
     0
174
     0
 93
        1
 44
0.0
173
     0
291
     1
 45
0.0
1001
ACAD
1000
AcDbSavedByObjectVersion
1070
     0
  0
VISUALSTYLE
  5
ED
102
{ACAD_XDICTIONARY
360
715
102
}
102
{ACAD_REACTORS
330
E4
102
}
330
E4
100
AcDbVisualStyle
  2

 70
     9
 71
     3
 72
     2
 73
     0
 90
        0
 40
-0.6
 41
-30.0
 62
     5
 63
     7
 74
     2
 91
        2
 64
     7
 65
   257
 75
     1
175
     1
 42
179.0
 92
        8
 66
     7
 43
1.0
 76
     1
 77
     6
 78
     2
 67
     7
 79
     3
170
     0
171
     0
290
     0
174
     0
 93
        1
 44
0.0
173
     0
291
     0
 45
0.0
1001
ACAD
1000
AcDbSavedByObjectVersion
1070
     0
  0
VISUALSTYLE
  5
EF
102
{ACAD_XDICTIONARY
360
719
102
}
102
{ACAD_REACTORS
330
E4
102
}
330
E4
100
AcDbVisualStyle
  2

 70
    11
 71
     2
 72
     2
 73
     0
 90
        0
 40
-0.6
 41
-30.0
 62
     5
 63
     7
 74
     1
 91
        4
 64
     7
 65
   257
 75
     1
175
     1
 42
1.0
 92
        8
 66
     7
 43
1.0
 76
     1
 77
     6
 78
     2
 67
     7
 79
     5
170
     0
171
     0
290
     0
174
     0
 93
        1
 44
-50.0
173
     0
291
     1
 45
0.0
1001
ACAD
1000
AcDbSavedByObjectVersion
1070
     0
  0
VISUALSTYLE
  5
F7
102
{ACAD_XDICTIONARY
360
729
102
}
102
{ACAD_REACTORS
330
E4
102
}
330
E4
100
AcDbVisualStyle
  2

 70
    22
 71
     2
 72
     2
 73
     0
 90
        0
 40
-0.6
 41
-30.0
 62
     5
 63
     7
 74
     1
 91
        4
 64
     7
 65
   257
 75
     1
175
     1
 42
1.0
 92
        8
 66
     7
 43
1.0
 76
     1
 77
     6
 78
     2
 67
     7
 79
     5
170
     0
171
     0
290
     0
174
     0
 93
        1
 44
0.0
173
     0
291
     1
 45
0.0
1001
ACAD
1000
AcDbSavedByObjectVersion
1070
     0
  0
VISUALSTYLE
  5
F3
102
{ACAD_XDICTIONARY
360
721
102
}
102
{ACAD_REACTORS
330
E4
102
}
330
E4
100
AcDbVisualStyle
  2

 70
    15
 71
     2
 72
     2
 73
     0
 90
        0
 40
-0.6
 41
-30.0
 62
     5
 63
     7
 74
     1
 91
        4
 64
     7
 65
   257
 75
     1
175
     1
 42
1.0
 92
        8
 66
     7
 43
1.0
 76
     1
 77
     6
 78
     2
 67
     7
 79
     5
170
     0
171
     0
290
     0
174
     0
 93
        1
 44
0.0
173
     0
291
     1
 45
0.0
1001
ACAD
1000
AcDbSavedByObjectVersion
1070
     0
  0
VISUALSTYLE
  5
E5
102
{ACAD_XDICTIONARY
360
705
102
}
102
{ACAD_REACTORS
330
E4
102
}
330
E4
100
AcDbVisualStyle
  2

 70
     0
 71
     2
 72
     1
 73
     1
 90
        2
 40
-0.6
 41
30.0
 62
     5
 63
     7
 74
     0
 91
        4
 64
     7
 65
   257
 75
     1
175
     1
 42
1.0
 92
        8
 66
     7
 43
1.0
 76
     1
 77
     6
 78
     2
 67
     7
 79
     5
170
     0
171
     0
290
     0
174
     0
 93
       13
 44
0.0
173
     0
291
     1
 45
0.0
1001
ACAD
1000
AcDbSavedByObjectVersion
1070
     0
  0
VISUALSTYLE
  5
E6
102
{ACAD_XDICTIONARY
360
707
102
}
102
{ACAD_REACTORS
330
E4
102
}
330
E4
100
AcDbVisualStyle
  2

 70
     1
 71
     2
 72
     1
 73
     1
 90
        2
 40
-0.6
 41
30.0
 62
     5
 63
     7
 74
     1
 91
        4
 64
     7
 65
   257
 75
     1
175
     1
 42
1.0
 92
        0
 66
   257
 43
1.0
 76
     1
 77
     6
 78
     2
 67
     7
 79
     5
170
     0
171
     0
290
     0
174
     0
 93
       13
 44
0.0
173
     0
291
     1
 45
0.0
1001
ACAD
1000
AcDbSavedByObjectVersion
1070
     0
  0
VISUALSTYLE
  5
E7
102
{ACAD_XDICTIONARY
360
709
102
}
102
{ACAD_REACTORS
330
E4
102
}
330
E4
100
AcDbVisualStyle
  2

 70
     2
 71
     2
 72
     2
 73
     1
 90
        2
 40
-0.6
 41
30.0
 62
     5
 63
     7
 74
     0
 91
        4
 64
     7
 65
   257
 75
     1
175
     1
 42
1.0
 92
        0
 66
     7
 43
1.0
 76
     1
 77
     6
 78
     2
 67
     7
 79
     5
170
     0
171
     0
290
     0
174
     0
 93
       13
 44
0.0
173
     0
291
     1
 45
0.0
1001
ACAD
1000
AcDbSavedByObjectVersion
1070
     0
  0
VISUALSTYLE
  5
E8
102
{ACAD_XDICTIONARY
360
70B
102
}
102
{ACAD_REACTORS
330
E4
102
}
330
E4
100
AcDbVisualStyle
  2

 70
     3
 71
     2
 72
     2
 73
     1
 90
        2
 40
-0.6
 41
30.0
 62
     5
 63
     7
 74
     1
 91
        4
 64
     7
 65
   257
 75
     1
175
     1
 42
1.0
 92
        0
 66
   257
 43
1.0
 76
     1
 77
     6
 78
     2
 67
     7
 79
     5
170
     0
171
     0
290
     0
174
     0
 93
       13
 44
0.0
173
     0
291
     1
 45
0.0
1001
ACAD
1000
AcDbSavedByObjectVersion
1070
     0
  0
VISUALSTYLE
  5
F5
102
{ACAD_XDICTIONARY
360
725
102
}
102
{ACAD_REACTORS
330
E4
102
}
330
E4
100
AcDbVisualStyle
  2

 70
    20
 71
     2
 72
     2
 73
     0
 90
        0
 40
-0.6
 41
-30.0
 62
     5
 63
     7
 74
     1
 91
        4
 64
     7
 65
   257
 75
     1
175
     1
 42
1.0
 92
       10
 66
     7
 43
1.0
 76
     1
 77
     6
 78
     2
 67
     7
 79
     5
170
     0
171
     0
290
     0
174
     0
 93
        1
 44
0.0
173
     0
291
     1
 45
0.0
1001
ACAD
1000
AcDbSavedByObjectVersion
1070
     0
  0
VISUALSTYLE
  5
F2
102
{ACAD_XDICTIONARY
360
71F
102
}
102
{ACAD_REACTORS
330
E4
102
}
330
E4
100
AcDbVisualStyle
  2

 70
    14
 71
     2
 72
     2
 73
     0
 90
        0
 40
-0.6
 41
-30.0
 62
     5
 63
     7
 74
     1
 91
        4
 64
     7
 65
   257
 75
     7
175
     7
 42
1.0
 92
        8
 66
     7
 43
1.0
 76
     1
 77
     6
 78
     2
 67
     7
 79
     5
170
     0
171
     0
290
     0
174
     0
 93
        1
 44
0.0
173
     0
291
     1
 45
0.0
1001
ACAD
1000
AcDbSavedByObjectVersion
1070
     0
  0
VISUALSTYLE
  5
F6
102
{ACAD_XDICTIONARY
360
727
102
}
102
{ACAD_REACTORS
330
E4
102
}
330
E4
100
AcDbVisualStyle
  2

 70
    21
 71
     2
 72
     2
 73
     0
 90
        0
 40
-0.6
 41
-30.0
 62
     5
 63
     7
 74
     1
 91
        4
 64
     7
 65
   257
 75
     1
175
     1
 42
1.0
 92
        9
 66
     7
 43
1.0
 76
     1
 77
     6
 78
     2
 67
     7
 79
     5
170
     0
171
     0
290
     0
174
     0
 93
        1
 44
0.0
173
     0
291
     1
 45
0.0
1001
ACAD
1000
AcDbSavedByObjectVersion
1070
     0
  0
VISUALSTYLE
  5
EE
102
{ACAD_XDICTIONARY
360
717
102
}
102
{ACAD_REACTORS
330
E4
102
}
330
E4
100
AcDbVisualStyle
  2

 70
     8
 71
     2
 72
     2
 73
     0
 90
        0
 40
-0.6
 41
-30.0
 62
     5
 63
     7
 74
     1
 91
        0
 64
     7
 65
   257
 75
     1
175
     1
 42
1.0
 92
        8
 66
     8
 43
1.0
 76
     1
 77
     6
 78
     2
 67
     7
 79
     5
170
     0
171
     0
290
     0
174
     0
 93
       13
 44
0.0
173
     0
291
     0
 45
0.0
1001
ACAD
1000
AcDbSavedByObjectVersion
1070
     0
  0
VISUALSTYLE
  5
F1
102
{ACAD_XDICTIONARY
360
71D
102
}
102
{ACAD_REACTORS
330
E4
102
}
330
E4
100
AcDbVisualStyle
  2

 70
    13
 71
     2
 72
     2
 73
     0
 90
        0
 40
-0.6
 41
-30.0
 62
     5
 63
     7
 74
     1
 91
        4
 64
     7
 65
   257
 75
     1
175
     1
 42
1.0
 92
       12
 66
     7
 43
1.0
 76
     1
 77
     6
 78
     2
 67
     7
 79
     5
170
     0
171
     0
290
     0
174
     0
 93
        1
 44
0.0
173
     0
291
     1
 45
0.0
1001
ACAD
1000
AcDbSavedByObjectVersion
1070
     0
  0
DICTIONARYVAR
  5
1E4
102
{ACAD_REACTORS
330
1E1
102
}
330
1E1
100
DictionaryVariables
280
     0
  1
1:1
  0
DICTIONARYVAR
  5
1E3
102
{ACAD_REACTORS
330
1E1
102
}
330
1E1
100
DictionaryVariables
280
     0
  1
STANDARD
  0
DICTIONARYVAR
  5
1E2
102
{ACAD_REACTORS
330
1E1
102
}
330
1E1
100
DictionaryVariables
280
     0
  1
STANDARD
  0
DICTIONARYVAR
  5
1E7
102
{ACAD_REACTORS
330
1E1
102
}
330
1E1
100
DictionaryVariables
280
     0
  1
1
  0
DICTIONARYVAR
  5
1E6
102
{ACAD_REACTORS
330
1E1
102
}
330
1E1
100
DictionaryVariables
280
     0
  1
0
  0
DICTIONARYVAR
  5
1E5
102
{ACAD_REACTORS
330
1E1
102
}
330
1E1
100
DictionaryVariables
280
     0
  1
127
  0
DICTIONARYVAR
  5
697
102
{ACAD_REACTORS
330
1E1
102
}
330
1E1
100
DictionaryVariables
280
     0
  1
2
  0
DICTIONARY
  5
701
330
7F
100
AcDbDictionary
280
     1
281
     1
  3
ACAD_XREC_ROUNDTRIP
360
702
  0
DICTIONARY
  5
703
330
83
100
AcDbDictionary
280
     1
281
     1
  3
ACAD_XREC_ROUNDTRIP
360
704
  0
DICTIONARY
  5
D5
330
D4
100
AcDbDictionary
280
     1
281
     1
  3
ACAD_XREC_ROUNDTRIP
360
283
  3
BUMPTILE
360
D7
  3
DIFFUSETILE
360
D6
  3
OPACITYTILE
360
DA
  3
REFLECTIONTILE
360
D9
  3
REFRACTIONTILE
360
DB
  3
SPECULARTILE
360
D8
  0
DICTIONARY
  5
CD
330
CC
100
AcDbDictionary
280
     1
281
     1
  3
ACAD_XREC_ROUNDTRIP
360
282
  3
BUMPTILE
360
CF
  3
DIFFUSETILE
360
CE
  3
OPACITYTILE
360
D2
  3
REFLECTIONTILE
360
D1
  3
REFRACTIONTILE
360
D3
  3
SPECULARTILE
360
D0
  0
DICTIONARY
  5
DD
330
DC
100
AcDbDictionary
280
     1
281
     1
  3
ACAD_XREC_ROUNDTRIP
360
284
  3
BUMPTILE
360
DF
  3
DIFFUSETILE
360
DE
  3
OPACITYTILE
360
E2
  3
REFLECTIONTILE
360
E1
  3
REFRACTIONTILE
360
E3
  3
SPECULARTILE
360
E0
  0
DICTIONARY
  5
27A
330
FA
100
AcDbDictionary
280
     1
281
     1
  3
ACAD_ROUNDTRIP_2008_TABLESTYLE_CELLSTYLEMAP
360
6FE
  3
ACAD_XREC_ROUNDTRIP
360
72B
  0
DICTIONARY
  5
70F
330
EA
100
AcDbDictionary
280
     1
281
     1
  3
ACAD_XREC_ROUNDTRIP
360
710
  0
DICTIONARY
  5
713
330
EC
100
AcDbDictionary
280
     1
281
     1
  3
ACAD_XREC_ROUNDTRIP
360
714
  0
DICTIONARY
  5
711
330
EB
100
AcDbDictionary
280
     1
281
     1
  3
ACAD_XREC_ROUNDTRIP
360
712
  0
DICTIONARY
  5
70D
330
E9
100
AcDbDictionary
280
     1
281
     1
  3
ACAD_XREC_ROUNDTRIP
360
70E
  0
DICTIONARY
  5
71B
330
F0
100
AcDbDictionary
280
     1
281
     1
  3
ACAD_XREC_ROUNDTRIP
360
71C
  0
DICTIONARY
  5
723
330
F4
100
AcDbDictionary
280
     1
281
     1
  3
ACAD_XREC_ROUNDTRIP
360
724
  0
DICTIONARY
  5
715
330
ED
100
AcDbDictionary
280
     1
281
     1
  3
ACAD_XREC_ROUNDTRIP
360
716
  0
DICTIONARY
  5
719
330
EF
100
AcDbDictionary
280
     1
281
     1
  3
ACAD_XREC_ROUNDTRIP
360
71A
  0
DICTIONARY
  5
729
330
F7
100
AcDbDictionary
280
     1
281
     1
  3
ACAD_XREC_ROUNDTRIP
360
72A
  0
DICTIONARY
  5
721
330
F3
100
AcDbDictionary
280
     1
281
     1
  3
ACAD_XREC_ROUNDTRIP
360
722
  0
DICTIONARY
  5
705
330
E5
100
AcDbDictionary
280
     1
281
     1
  3
ACAD_XREC_ROUNDTRIP
360
706
  0
DICTIONARY
  5
707
330
E6
100
AcDbDictionary
280
     1
281
     1
  3
ACAD_XREC_ROUNDTRIP
360
708
  0
DICTIONARY
  5
709
330
E7
100
AcDbDictionary
280
     1
281
     1
  3
ACAD_XREC_ROUNDTRIP
360
70A
  0
DICTIONARY
  5
70B
330
E8
100
AcDbDictionary
280
     1
281
     1
  3
ACAD_XREC_ROUNDTRIP
360
70C
  0
DICTIONARY
  5
725
330
F5
100
AcDbDictionary
280
     1
281
     1
  3
ACAD_XREC_ROUNDTRIP
360
726
  0
DICTIONARY
  5
71F
330
F2
100
AcDbDictionary
280
     1
281
     1
  3
ACAD_XREC_ROUNDTRIP
360
720
  0
DICTIONARY
  5
727
330
F6
100
AcDbDictionary
280
     1
281
     1
  3
ACAD_XREC_ROUNDTRIP
360
728
  0
DICTIONARY
  5
717
330
EE
100
AcDbDictionary
280
     1
281
     1
  3
ACAD_XREC_ROUNDTRIP
360
718
  0
DICTIONARY
  5
71D
330
F1
100
AcDbDictionary
280
     1
281
     1
  3
ACAD_XREC_ROUNDTRIP
360
71E
  0
XRECORD
  5
702
102
{ACAD_REACTORS
330
701
102
}
330
701
100
AcDbXrecord
280
     1
102
SHADEPLOT
 70
     0
102
SHADEPLOTRESLEVEL
 70
     2
102
SHADEPLOTCUSTOMDPI
 70
   300
  0
XRECORD
  5
704
102
{ACAD_REACTORS
330
703
102
}
330
703
100
AcDbXrecord
280
     1
102
SHADEPLOT
 70
     0
102
SHADEPLOTRESLEVEL
 70
     2
102
SHADEPLOTCUSTOMDPI
 70
   300
  0
XRECORD
  5
283
102
{ACAD_REACTORS
330
D5
102
}
330
D5
100
AcDbXrecord
280
     1
102
MATERIAL
148
0.0
149
0.0
149
0.0
 93
        0
 94
      127
282
     0
 72
     0
 77
     0
171
     0
175
     0
179
     0
273
     0
  0
XRECORD
  5
D7
102
{ACAD_REACTORS
330
D5
102
}
330
D5
100
AcDbXrecord
280
     1
270
     1
271
     1
  0
XRECORD
  5
D6
102
{ACAD_REACTORS
330
D5
102
}
330
D5
100
AcDbXrecord
280
     1
270
     1
271
     1
  0
XRECORD
  5
DA
102
{ACAD_REACTORS
330
D5
102
}
330
D5
100
AcDbXrecord
280
     1
270
     1
271
     1
  0
XRECORD
  5
D9
102
{ACAD_REACTORS
330
D5
102
}
330
D5
100
AcDbXrecord
280
     1
270
     1
271
     1
  0
XRECORD
  5
DB
102
{ACAD_REACTORS
330
D5
102
}
330
D5
100
AcDbXrecord
280
     1
270
     1
271
     1
  0
XRECORD
  5
D8
102
{ACAD_REACTORS
330
D5
102
}
330
D5
100
AcDbXrecord
280
     1
270
     1
271
     1
  0
XRECORD
  5
282
102
{ACAD_REACTORS
330
CD
102
}
330
CD
100
AcDbXrecord
280
     1
102
MATERIAL
148
0.0
149
0.0
149
0.0
 93
        0
 94
      127
282
     0
 72
     0
 77
     0
171
     0
175
     0
179
     0
273
     0
  0
XRECORD
  5
CF
102
{ACAD_REACTORS
330
CD
102
}
330
CD
100
AcDbXrecord
280
     1
270
     1
271
     1
  0
XRECORD
  5
CE
102
{ACAD_REACTORS
330
CD
102
}
330
CD
100
AcDbXrecord
280
     1
270
     1
271
     1
  0
XRECORD
  5
D2
102
{ACAD_REACTORS
330
CD
102
}
330
CD
100
AcDbXrecord
280
     1
270
     1
271
     1
  0
XRECORD
  5
D1
102
{ACAD_REACTORS
330
CD
102
}
330
CD
100
AcDbXrecord
280
     1
270
     1
271
     1
  0
XRECORD
  5
D3
102
{ACAD_REACTORS
330
CD
102
}
330
CD
100
AcDbXrecord
280
     1
270
     1
271
     1
  0
XRECORD
  5
D0
102
{ACAD_REACTORS
330
CD
102
}
330
CD
100
AcDbXrecord
280
     1
270
     1
271
     1
  0
XRECORD
  5
284
102
{ACAD_REACTORS
330
DD
102
}
330
DD
100
AcDbXrecord
280
     1
102
MATERIAL
148
0.0
149
0.0
149
0.0
 93
        0
 94
      127
282
     0
 72
     0
 77
     0
171
     0
175
     0
179
     0
273
     0
  0
XRECORD
  5
DF
102
{ACAD_REACTORS
330
DD
102
}
330
DD
100
AcDbXrecord
280
     1
270
     1
271
     1
  0
XRECORD
  5
DE
102
{ACAD_REACTORS
330
DD
102
}
330
DD
100
AcDbXrecord
280
     1
270
     1
271
     1
  0
XRECORD
  5
E2
102
{ACAD_REACTORS
330
DD
102
}
330
DD
100
AcDbXrecord
280
     1
270
     1
271
     1
  0
XRECORD
  5
E1
102
{ACAD_REACTORS
330
DD
102
}
330
DD
100
AcDbXrecord
280
     1
270
     1
271
     1
  0
XRECORD
  5
E3
102
{ACAD_REACTORS
330
DD
102
}
330
DD
100
AcDbXrecord
280
     1
270
     1
271
     1
  0
XRECORD
  5
E0
102
{ACAD_REACTORS
330
DD
102
}
330
DD
100
AcDbXrecord
280
     1
270
     1
271
     1
  0
CELLSTYLEMAP
  5
6FE
102
{ACAD_REACTORS
330
27A
102
}
330
27A
100
AcDbCellStyleMap
 90
        3
300
CELLSTYLE
  1
TABLEFORMAT_BEGIN
 90
        5
170
     1
 91
        0
 92
    32768
 62
   257
 93
        1
300
CONTENTFORMAT
  1
CONTENTFORMAT_BEGIN
 90
        0
 91
        0
 92
      512
 93
        0
300

 40
0.0
140
1.0
 94
        5
 62
     0
340
73
144
0.25
309
CONTENTFORMAT_END
171
     1
301
MARGIN
  1
CELLMARGIN_BEGIN
 40
0.06
 40
0.06
 40
0.06
 40
0.06
 40
0.18
 40
0.18
309
CELLMARGIN_END
 94
        6
 95
        1
302
GRIDFORMAT
  1
GRIDFORMAT_BEGIN
 90
        0
 91
        1
 62
     0
 92
       -2
340
0
 93
        0
 40
0.045
309
GRIDFORMAT_END
 95
        2
302
GRIDFORMAT
  1
GRIDFORMAT_BEGIN
 90
        0
 91
        1
 62
     0
 92
       -2
340
0
 93
        0
 40
0.045
309
GRIDFORMAT_END
 95
        4
302
GRIDFORMAT
  1
GRIDFORMAT_BEGIN
 90
        0
 91
        1
 62
     0
 92
       -2
340
0
 93
        0
 40
0.045
309
GRIDFORMAT_END
 95
        8
302
GRIDFORMAT
  1
GRIDFORMAT_BEGIN
 90
        0
 91
        1
 62
     0
 92
       -2
340
0
 93
        0
 40
0.045
309
GRIDFORMAT_END
 95
       16
302
GRIDFORMAT
  1
GRIDFORMAT_BEGIN
 90
        0
 91
        1
 62
     0
 92
       -2
340
0
 93
        0
 40
0.045
309
GRIDFORMAT_END
 95
       32
302
GRIDFORMAT
  1
GRIDFORMAT_BEGIN
 90
        0
 91
        1
 62
     0
 92
       -2
340
0
 93
        0
 40
0.045
309
GRIDFORMAT_END
309
TABLEFORMAT_END
  1
CELLSTYLE_BEGIN
 90
        1
 91
        1
300
_TITLE
309
CELLSTYLE_END
300
CELLSTYLE
  1
TABLEFORMAT_BEGIN
 90
        5
170
     1
 91
        0
 92
        0
 62
   257
 93
        1
300
CONTENTFORMAT
  1
CONTENTFORMAT_BEGIN
 90
        0
 91
        0
 92
      512
 93
        0
300

 40
0.0
140
1.0
 94
        5
 62
     0
340
73
144
0.18
309
CONTENTFORMAT_END
171
     1
301
MARGIN
  1
CELLMARGIN_BEGIN
 40
0.06
 40
0.06
 40
0.06
 40
0.06
 40
0.18
 40
0.18
309
CELLMARGIN_END
 94
        6
 95
        1
302
GRIDFORMAT
  1
GRIDFORMAT_BEGIN
 90
        0
 91
        1
 62
     0
 92
       -2
340
0
 93
        0
 40
0.045
309
GRIDFORMAT_END
 95
        2
302
GRIDFORMAT
  1
GRIDFORMAT_BEGIN
 90
        0
 91
        1
 62
     0
 92
       -2
340
0
 93
        0
 40
0.045
309
GRIDFORMAT_END
 95
        4
302
GRIDFORMAT
  1
GRIDFORMAT_BEGIN
 90
        0
 91
        1
 62
     0
 92
       -2
340
0
 93
        0
 40
0.045
309
GRIDFORMAT_END
 95
        8
302
GRIDFORMAT
  1
GRIDFORMAT_BEGIN
 90
        0
 91
        1
 62
     0
 92
       -2
340
0
 93
        0
 40
0.045
309
GRIDFORMAT_END
 95
       16
302
GRIDFORMAT
  1
GRIDFORMAT_BEGIN
 90
        0
 91
        1
 62
     0
 92
       -2
340
0
 93
        0
 40
0.045
309
GRIDFORMAT_END
 95
       32
302
GRIDFORMAT
  1
GRIDFORMAT_BEGIN
 90
        0
 91
        1
 62
     0
 92
       -2
340
0
 93
        0
 40
0.045
309
GRIDFORMAT_END
309
TABLEFORMAT_END
  1
CELLSTYLE_BEGIN
 90
        2
 91
        1
300
_HEADER
309
CELLSTYLE_END
300
CELLSTYLE
  1
TABLEFORMAT_BEGIN
 90
        5
170
     1
 91
        0
 92
        0
 62
   257
 93
        1
300
CONTENTFORMAT
  1
CONTENTFORMAT_BEGIN
 90
        0
 91
        0
 92
      512
 93
        0
300

 40
0.0
140
1.0
 94
        2
 62
     0
340
73
144
0.18
309
CONTENTFORMAT_END
171
     1
301
MARGIN
  1
CELLMARGIN_BEGIN
 40
0.06
 40
0.06
 40
0.06
 40
0.06
 40
0.18
 40
0.18
309
CELLMARGIN_END
 94
        6
 95
        1
302
GRIDFORMAT
  1
GRIDFORMAT_BEGIN
 90
        0
 91
        1
 62
     0
 92
       -2
340
0
 93
        0
 40
0.045
309
GRIDFORMAT_END
 95
        2
302
GRIDFORMAT
  1
GRIDFORMAT_BEGIN
 90
        0
 91
        1
 62
     0
 92
       -2
340
0
 93
        0
 40
0.045
309
GRIDFORMAT_END
 95
        4
302
GRIDFORMAT
  1
GRIDFORMAT_BEGIN
 90
        0
 91
        1
 62
     0
 92
       -2
340
0
 93
        0
 40
0.045
309
GRIDFORMAT_END
 95
        8
302
GRIDFORMAT
  1
GRIDFORMAT_BEGIN
 90
        0
 91
        1
 62
     0
 92
       -2
340
0
 93
        0
 40
0.045
309
GRIDFORMAT_END
 95
       16
302
GRIDFORMAT
  1
GRIDFORMAT_BEGIN
 90
        0
 91
        1
 62
     0
 92
       -2
340
0
 93
        0
 40
0.045
309
GRIDFORMAT_END
 95
       32
302
GRIDFORMAT
  1
GRIDFORMAT_BEGIN
 90
        0
 91
        1
 62
     0
 92
       -2
340
0
 93
        0
 40
0.045
309
GRIDFORMAT_END
309
TABLEFORMAT_END
  1
CELLSTYLE_BEGIN
 90
        3
 91
        2
300
_DATA
309
CELLSTYLE_END
  0
XRECORD
  5
72B
102
{ACAD_REACTORS
330
27A
102
}
330
27A
100
AcDbXrecord
280
     1
102
ACAD_ROUNDTRIP_PRE2007_TABLESTYLE
 90
      512
 91
        0
  1

 92
      512
 93
        0
  2

 94
      512
 95
        0
  3

  0
XRECORD
  5
710
102
{ACAD_REACTORS
330
70F
102
}
330
70F
100
AcDbXrecord
280
     1
102
RTVSPropertyOp0
 70
     1
102
RTVSPropertyOp1
 70
     1
102
RTVSPropertyOp2
 70
     1
102
RTVSPropertyOp3
 70
     1
102
RTVSPropertyOp4
 70
     1
102
RTVSPropertyOp5
 70
     1
102
RTVSPropertyOp6
 70
     1
102
RTVSPropertyOp7
 70
     1
102
RTVSPropertyOp8
 70
     1
102
RTVSPropertyOp9
 70
     1
102
RTVSPropertyOp10
 70
     1
102
RTVSPropertyOp11
 70
     1
102
RTVSPropertyOp12
 70
     1
102
RTVSPropertyOp13
 70
     1
102
RTVSPropertyOp14
 70
     1
102
RTVSPropertyOp15
 70
     1
102
RTVSPropertyOp16
 70
     1
102
RTVSPropertyOp17
 70
     1
102
RTVSPropertyOp18
 70
     1
102
RTVSPropertyOp19
 70
     1
102
RTVSPropertyOp20
 70
     1
102
RTVSPropertyOp21
 70
     1
102
RTVSPropertyOp22
 70
     1
102
RTVSPropertyOp23
 70
     1
102
RTVSPropertyOp24
 70
     1
102
RTVSPropertyOp25
 70
     1
102
RTVSPropertyOp26
 70
     1
102
RTVSPropertyOp27
 70
     1
  0
XRECORD
  5
714
102
{ACAD_REACTORS
330
713
102
}
330
713
100
AcDbXrecord
280
     1
102
RTVSPropertyOp0
 70
     1
102
RTVSPropertyOp1
 70
     1
102
RTVSPropertyOp2
 70
     1
102
RTVSPropertyOp3
 70
     1
102
RTVSPropertyOp4
 70
     1
102
RTVSPropertyOp5
 70
     1
102
RTVSPropertyOp6
 70
     1
102
RTVSPropertyOp7
 70
     1
102
RTVSPropertyOp8
 70
     1
102
RTVSPropertyOp9
 70
     1
102
RTVSPropertyOp10
 70
     1
102
RTVSPropertyOp11
 70
     1
102
RTVSPropertyOp12
 70
     1
102
RTVSPropertyOp13
 70
     1
102
RTVSPropertyOp14
 70
     1
102
RTVSPropertyOp15
 70
     1
102
RTVSPropertyOp16
 70
     1
102
RTVSPropertyOp17
 70
     1
102
RTVSPropertyOp18
 70
     1
102
RTVSPropertyOp19
 70
     1
102
RTVSPropertyOp20
 70
     1
102
RTVSPropertyOp21
 70
     1
102
RTVSPropertyOp22
 70
     1
102
RTVSPropertyOp23
 70
     1
102
RTVSPropertyOp24
 70
     1
102
RTVSPropertyOp25
 70
     1
102
RTVSPropertyOp26
 70
     1
102
RTVSPropertyOp27
 70
     1
  0
XRECORD
  5
712
102
{ACAD_REACTORS
330
711
102
}
330
711
100
AcDbXrecord
280
     1
102
RTVSPropertyOp0
 70
     1
102
RTVSPropertyOp1
 70
     1
102
RTVSPropertyOp2
 70
     1
102
RTVSPropertyOp3
 70
     1
102
RTVSPropertyOp4
 70
     1
102
RTVSPropertyOp5
 70
     1
102
RTVSPropertyOp6
 70
     1
102
RTVSPropertyOp7
 70
     1
102
RTVSPropertyOp8
 70
     1
102
RTVSPropertyOp9
 70
     1
102
RTVSPropertyOp10
 70
     1
102
RTVSPropertyOp11
 70
     1
102
RTVSPropertyOp12
 70
     1
102
RTVSPropertyOp13
 70
     1
102
RTVSPropertyOp14
 70
     1
102
RTVSPropertyOp15
 70
     1
102
RTVSPropertyOp16
 70
     1
102
RTVSPropertyOp17
 70
     1
102
RTVSPropertyOp18
 70
     1
102
RTVSPropertyOp19
 70
     1
102
RTVSPropertyOp20
 70
     1
102
RTVSPropertyOp21
 70
     1
102
RTVSPropertyOp22
 70
     1
102
RTVSPropertyOp23
 70
     1
102
RTVSPropertyOp24
 70
     1
102
RTVSPropertyOp25
 70
     1
102
RTVSPropertyOp26
 70
     1
102
RTVSPropertyOp27
 70
     1
  0
XRECORD
  5
70E
102
{ACAD_REACTORS
330
70D
102
}
330
70D
100
AcDbXrecord
280
     1
102
RTVSPropertyOp0
 70
     1
102
RTVSPropertyOp1
 70
     1
102
RTVSPropertyOp2
 70
     1
102
RTVSPropertyOp3
 70
     1
102
RTVSPropertyOp4
 70
     1
102
RTVSPropertyOp5
 70
     1
102
RTVSPropertyOp6
 70
     1
102
RTVSPropertyOp7
 70
     1
102
RTVSPropertyOp8
 70
     1
102
RTVSPropertyOp9
 70
     1
102
RTVSPropertyOp10
 70
     1
102
RTVSPropertyOp11
 70
     1
102
RTVSPropertyOp12
 70
     1
102
RTVSPropertyOp13
 70
     1
102
RTVSPropertyOp14
 70
     1
102
RTVSPropertyOp15
 70
     1
102
RTVSPropertyOp16
 70
     1
102
RTVSPropertyOp17
 70
     1
102
RTVSPropertyOp18
 70
     1
102
RTVSPropertyOp19
 70
     1
102
RTVSPropertyOp20
 70
     1
102
RTVSPropertyOp21
 70
     1
102
RTVSPropertyOp22
 70
     1
102
RTVSPropertyOp23
 70
     1
102
RTVSPropertyOp24
 70
     1
102
RTVSPropertyOp25
 70
     1
102
RTVSPropertyOp26
 70
     1
102
RTVSPropertyOp27
 70
     1
  0
XRECORD
  5
71C
102
{ACAD_REACTORS
330
71B
102
}
330
71B
100
AcDbXrecord
280
     1
102
RTVSPropertyOp0
 70
     1
102
RTVSPropertyOp1
 70
     1
102
RTVSPropertyOp2
 70
     1
102
RTVSPropertyOp3
 70
     1
102
RTVSPropertyOp4
 70
     1
102
RTVSPropertyOp5
 70
     1
102
RTVSPropertyOp6
 70
     1
102
RTVSPropertyOp7
 70
     1
102
RTVSPropertyOp8
 70
     1
102
RTVSPropertyOp9
 70
     1
102
RTVSPropertyOp10
 70
     1
102
RTVSPropertyOp11
 70
     1
102
RTVSPropertyOp12
 70
     1
102
RTVSPropertyOp13
 70
     1
102
RTVSPropertyOp14
 70
     1
102
RTVSPropertyOp15
 70
     1
102
RTVSPropertyOp16
 70
     1
102
RTVSPropertyOp17
 70
     1
102
RTVSPropertyOp18
 70
     1
102
RTVSPropertyOp19
 70
     1
102
RTVSPropertyOp20
 70
     1
102
RTVSPropertyOp21
 70
     1
102
RTVSPropertyOp22
 70
     1
102
RTVSPropertyOp23
 70
     1
102
RTVSPropertyOp24
 70
     1
102
RTVSPropertyOp25
 70
     1
102
RTVSPropertyOp26
 70
     1
102
RTVSPropertyOp27
 70
     1
  0
XRECORD
  5
724
102
{ACAD_REACTORS
330
723
102
}
330
723
100
AcDbXrecord
280
     1
102
RTVSPropertyOp0
 70
     1
102
RTVSPropertyOp1
 70
     1
102
RTVSPropertyOp2
 70
     1
102
RTVSPropertyOp3
 70
     1
102
RTVSPropertyOp4
 70
     1
102
RTVSPropertyOp5
 70
     1
102
RTVSPropertyOp6
 70
     1
102
RTVSPropertyOp7
 70
     1
102
RTVSPropertyOp8
 70
     1
102
RTVSPropertyOp9
 70
     1
102
RTVSPropertyOp10
 70
     1
102
RTVSPropertyOp11
 70
     1
102
RTVSPropertyOp12
 70
     1
102
RTVSPropertyOp13
 70
     1
102
RTVSPropertyOp14
 70
     1
102
RTVSPropertyOp15
 70
     1
102
RTVSPropertyOp16
 70
     1
102
RTVSPropertyOp17
 70
     1
102
RTVSPropertyOp18
 70
     1
102
RTVSPropertyOp19
 70
     1
102
RTVSPropertyOp20
 70
     1
102
RTVSPropertyOp21
 70
     1
102
RTVSPropertyOp22
 70
     1
102
RTVSPropertyOp23
 70
     1
102
RTVSPropertyOp24
 70
     1
102
RTVSPropertyOp25
 70
     1
102
RTVSPropertyOp26
 70
     1
102
RTVSPropertyOp27
 70
     1
  0
XRECORD
  5
716
102
{ACAD_REACTORS
330
715
102
}
330
715
100
AcDbXrecord
280
     1
102
RTVSPropertyOp0
 70
     1
102
RTVSPropertyOp1
 70
     1
102
RTVSPropertyOp2
 70
     1
102
RTVSPropertyOp3
 70
     1
102
RTVSPropertyOp4
 70
     1
102
RTVSPropertyOp5
 70
     1
102
RTVSPropertyOp6
 70
     1
102
RTVSPropertyOp7
 70
     1
102
RTVSPropertyOp8
 70
     1
102
RTVSPropertyOp9
 70
     1
102
RTVSPropertyOp10
 70
     1
102
RTVSPropertyOp11
 70
     1
102
RTVSPropertyOp12
 70
     1
102
RTVSPropertyOp13
 70
     1
102
RTVSPropertyOp14
 70
     1
102
RTVSPropertyOp15
 70
     1
102
RTVSPropertyOp16
 70
     1
102
RTVSPropertyOp17
 70
     1
102
RTVSPropertyOp18
 70
     1
102
RTVSPropertyOp19
 70
     1
102
RTVSPropertyOp20
 70
     1
102
RTVSPropertyOp21
 70
     1
102
RTVSPropertyOp22
 70
     1
102
RTVSPropertyOp23
 70
     1
102
RTVSPropertyOp24
 70
     1
102
RTVSPropertyOp25
 70
     1
102
RTVSPropertyOp26
 70
     1
102
RTVSPropertyOp27
 70
     1
  0
XRECORD
  5
71A
102
{ACAD_REACTORS
330
719
102
}
330
719
100
AcDbXrecord
280
     1
102
RTVSPropertyOp0
 70
     1
102
RTVSPropertyOp1
 70
     1
102
RTVSPropertyOp2
 70
     1
102
RTVSPropertyOp3
 70
     1
102
RTVSPropertyOp4
 70
     1
102
RTVSPropertyOp5
 70
     1
102
RTVSPropertyOp6
 70
     1
102
RTVSPropertyOp7
 70
     1
102
RTVSPropertyOp8
 70
     1
102
RTVSPropertyOp9
 70
     1
102
RTVSPropertyOp10
 70
     1
102
RTVSPropertyOp11
 70
     1
102
RTVSPropertyOp12
 70
     1
102
RTVSPropertyOp13
 70
     1
102
RTVSPropertyOp14
 70
     1
102
RTVSPropertyOp15
 70
     1
102
RTVSPropertyOp16
 70
     1
102
RTVSPropertyOp17
 70
     1
102
RTVSPropertyOp18
 70
     1
102
RTVSPropertyOp19
 70
     1
102
RTVSPropertyOp20
 70
     1
102
RTVSPropertyOp21
 70
     1
102
RTVSPropertyOp22
 70
     1
102
RTVSPropertyOp23
 70
     1
102
RTVSPropertyOp24
 70
     1
102
RTVSPropertyOp25
 70
     1
102
RTVSPropertyOp26
 70
     1
102
RTVSPropertyOp27
 70
     1
  0
XRECORD
  5
72A
102
{ACAD_REACTORS
330
729
102
}
330
729
100
AcDbXrecord
280
     1
102
RTVSPropertyOp0
 70
     0
102
RTVSPropertyOp1
 70
     0
102
RTVSPropertyOp2
 70
     0
102
RTVSPropertyOp3
 70
     0
102
RTVSPropertyOp4
 70
     0
102
RTVSPropertyOp5
 70
     0
102
RTVSPropertyOp6
 70
     0
102
RTVSPropertyOp7
 70
     0
102
RTVSPropertyOp8
 70
     0
102
RTVSPropertyOp9
 70
     0
102
RTVSPropertyOp10
 70
     0
102
RTVSPropertyOp11
 70
     0
102
RTVSPropertyOp12
 70
     0
102
RTVSPropertyOp13
 70
     0
102
RTVSPropertyOp14
 70
     2
102
RTVSPropertyOp15
 70
     0
102
RTVSPropertyOp16
 70
     0
102
RTVSPropertyOp17
 70
     0
102
RTVSPropertyOp18
 70
     0
102
RTVSPropertyOp19
 70
     0
102
RTVSPropertyOp20
 70
     0
102
RTVSPropertyOp21
 70
     0
102
RTVSPropertyOp22
 70
     0
102
RTVSPropertyOp23
 70
     0
102
RTVSPropertyOp24
 70
     0
102
RTVSPropertyOp25
 70
     0
102
RTVSPropertyOp26
 70
     0
102
RTVSPropertyOp27
 70
     0
  0
XRECORD
  5
722
102
{ACAD_REACTORS
330
721
102
}
330
721
100
AcDbXrecord
280
     1
102
RTVSPropertyOp0
 70
     1
102
RTVSPropertyOp1
 70
     1
102
RTVSPropertyOp2
 70
     1
102
RTVSPropertyOp3
 70
     1
102
RTVSPropertyOp4
 70
     1
102
RTVSPropertyOp5
 70
     1
102
RTVSPropertyOp6
 70
     1
102
RTVSPropertyOp7
 70
     1
102
RTVSPropertyOp8
 70
     1
102
RTVSPropertyOp9
 70
     1
102
RTVSPropertyOp10
 70
     1
102
RTVSPropertyOp11
 70
     1
102
RTVSPropertyOp12
 70
     1
102
RTVSPropertyOp13
 70
     1
102
RTVSPropertyOp14
 70
     1
102
RTVSPropertyOp15
 70
     1
102
RTVSPropertyOp16
 70
     1
102
RTVSPropertyOp17
 70
     1
102
RTVSPropertyOp18
 70
     1
102
RTVSPropertyOp19
 70
     1
102
RTVSPropertyOp20
 70
     1
102
RTVSPropertyOp21
 70
     1
102
RTVSPropertyOp22
 70
     1
102
RTVSPropertyOp23
 70
     1
102
RTVSPropertyOp24
 70
     1
102
RTVSPropertyOp25
 70
     1
102
RTVSPropertyOp26
 70
     1
102
RTVSPropertyOp27
 70
     1
  0
XRECORD
  5
706
102
{ACAD_REACTORS
330
705
102
}
330
705
100
AcDbXrecord
280
     1
102
RTVSPropertyOp0
 70
     1
102
RTVSPropertyOp1
 70
     1
102
RTVSPropertyOp2
 70
     1
102
RTVSPropertyOp3
 70
     1
102
RTVSPropertyOp4
 70
     1
102
RTVSPropertyOp5
 70
     1
102
RTVSPropertyOp6
 70
     1
102
RTVSPropertyOp7
 70
     1
102
RTVSPropertyOp8
 70
     1
102
RTVSPropertyOp9
 70
     1
102
RTVSPropertyOp10
 70
     1
102
RTVSPropertyOp11
 70
     1
102
RTVSPropertyOp12
 70
     1
102
RTVSPropertyOp13
 70
     1
102
RTVSPropertyOp14
 70
     1
102
RTVSPropertyOp15
 70
     1
102
RTVSPropertyOp16
 70
     1
102
RTVSPropertyOp17
 70
     1
102
RTVSPropertyOp18
 70
     1
102
RTVSPropertyOp19
 70
     1
102
RTVSPropertyOp20
 70
     1
102
RTVSPropertyOp21
 70
     1
102
RTVSPropertyOp22
 70
     1
102
RTVSPropertyOp23
 70
     1
102
RTVSPropertyOp24
 70
     1
102
RTVSPropertyOp25
 70
     1
102
RTVSPropertyOp26
 70
     1
102
RTVSPropertyOp27
 70
     1
  0
XRECORD
  5
708
102
{ACAD_REACTORS
330
707
102
}
330
707
100
AcDbXrecord
280
     1
102
RTVSPropertyOp0
 70
     1
102
RTVSPropertyOp1
 70
     1
102
RTVSPropertyOp2
 70
     1
102
RTVSPropertyOp3
 70
     1
102
RTVSPropertyOp4
 70
     1
102
RTVSPropertyOp5
 70
     1
102
RTVSPropertyOp6
 70
     1
102
RTVSPropertyOp7
 70
     1
102
RTVSPropertyOp8
 70
     1
102
RTVSPropertyOp9
 70
     1
102
RTVSPropertyOp10
 70
     1
102
RTVSPropertyOp11
 70
     1
102
RTVSPropertyOp12
 70
     1
102
RTVSPropertyOp13
 70
     1
102
RTVSPropertyOp14
 70
     1
102
RTVSPropertyOp15
 70
     1
102
RTVSPropertyOp16
 70
     1
102
RTVSPropertyOp17
 70
     1
102
RTVSPropertyOp18
 70
     1
102
RTVSPropertyOp19
 70
     1
102
RTVSPropertyOp20
 70
     1
102
RTVSPropertyOp21
 70
     1
102
RTVSPropertyOp22
 70
     1
102
RTVSPropertyOp23
 70
     1
102
RTVSPropertyOp24
 70
     1
102
RTVSPropertyOp25
 70
     1
102
RTVSPropertyOp26
 70
     1
102
RTVSPropertyOp27
 70
     1
  0
XRECORD
  5
70A
102
{ACAD_REACTORS
330
709
102
}
330
709
100
AcDbXrecord
280
     1
102
RTVSPropertyOp0
 70
     1
102
RTVSPropertyOp1
 70
     1
102
RTVSPropertyOp2
 70
     1
102
RTVSPropertyOp3
 70
     1
102
RTVSPropertyOp4
 70
     1
102
RTVSPropertyOp5
 70
     1
102
RTVSPropertyOp6
 70
     1
102
RTVSPropertyOp7
 70
     1
102
RTVSPropertyOp8
 70
     1
102
RTVSPropertyOp9
 70
     1
102
RTVSPropertyOp10
 70
     1
102
RTVSPropertyOp11
 70
     1
102
RTVSPropertyOp12
 70
     1
102
RTVSPropertyOp13
 70
     1
102
RTVSPropertyOp14
 70
     1
102
RTVSPropertyOp15
 70
     1
102
RTVSPropertyOp16
 70
     1
102
RTVSPropertyOp17
 70
     1
102
RTVSPropertyOp18
 70
     1
102
RTVSPropertyOp19
 70
     1
102
RTVSPropertyOp20
 70
     1
102
RTVSPropertyOp21
 70
     1
102
RTVSPropertyOp22
 70
     1
102
RTVSPropertyOp23
 70
     1
102
RTVSPropertyOp24
 70
     1
102
RTVSPropertyOp25
 70
     1
102
RTVSPropertyOp26
 70
     1
102
RTVSPropertyOp27
 70
     1
  0
XRECORD
  5
70C
102
{ACAD_REACTORS
330
70B
102
}
330
70B
100
AcDbXrecord
280
     1
102
RTVSPropertyOp0
 70
     1
102
RTVSPropertyOp1
 70
     1
102
RTVSPropertyOp2
 70
     1
102
RTVSPropertyOp3
 70
     1
102
RTVSPropertyOp4
 70
     1
102
RTVSPropertyOp5
 70
     1
102
RTVSPropertyOp6
 70
     1
102
RTVSPropertyOp7
 70
     1
102
RTVSPropertyOp8
 70
     1
102
RTVSPropertyOp9
 70
     1
102
RTVSPropertyOp10
 70
     1
102
RTVSPropertyOp11
 70
     1
102
RTVSPropertyOp12
 70
     1
102
RTVSPropertyOp13
 70
     1
102
RTVSPropertyOp14
 70
     1
102
RTVSPropertyOp15
 70
     1
102
RTVSPropertyOp16
 70
     1
102
RTVSPropertyOp17
 70
     1
102
RTVSPropertyOp18
 70
     1
102
RTVSPropertyOp19
 70
     1
102
RTVSPropertyOp20
 70
     1
102
RTVSPropertyOp21
 70
     1
102
RTVSPropertyOp22
 70
     1
102
RTVSPropertyOp23
 70
     1
102
RTVSPropertyOp24
 70
     1
102
RTVSPropertyOp25
 70
     1
102
RTVSPropertyOp26
 70
     1
102
RTVSPropertyOp27
 70
     1
  0
XRECORD
  5
726
102
{ACAD_REACTORS
330
725
102
}
330
725
100
AcDbXrecord
280
     1
102
RTVSPropertyOp0
 70
     0
102
RTVSPropertyOp1
 70
     0
102
RTVSPropertyOp2
 70
     0
102
RTVSPropertyOp3
 70
     0
102
RTVSPropertyOp4
 70
     0
102
RTVSPropertyOp5
 70
     0
102
RTVSPropertyOp6
 70
     0
102
RTVSPropertyOp7
 70
     0
102
RTVSPropertyOp8
 70
     0
102
RTVSPropertyOp9
 70
     0
102
RTVSPropertyOp10
 70
     0
102
RTVSPropertyOp11
 70
     0
102
RTVSPropertyOp12
 70
     0
102
RTVSPropertyOp13
 70
     0
102
RTVSPropertyOp14
 70
     2
102
RTVSPropertyOp15
 70
     0
102
RTVSPropertyOp16
 70
     0
102
RTVSPropertyOp17
 70
     0
102
RTVSPropertyOp18
 70
     0
102
RTVSPropertyOp19
 70
     0
102
RTVSPropertyOp20
 70
     0
102
RTVSPropertyOp21
 70
     0
102
RTVSPropertyOp22
 70
     0
102
RTVSPropertyOp23
 70
     0
102
RTVSPropertyOp24
 70
     0
102
RTVSPropertyOp25
 70
     0
102
RTVSPropertyOp26
 70
     0
102
RTVSPropertyOp27
 70
     0
  0
XRECORD
  5
720
102
{ACAD_REACTORS
330
71F
102
}
330
71F
100
AcDbXrecord
280
     1
102
RTVSPropertyOp0
 70
     1
102
RTVSPropertyOp1
 70
     1
102
RTVSPropertyOp2
 70
     1
102
RTVSPropertyOp3
 70
     1
102
RTVSPropertyOp4
 70
     1
102
RTVSPropertyOp5
 70
     1
102
RTVSPropertyOp6
 70
     1
102
RTVSPropertyOp7
 70
     1
102
RTVSPropertyOp8
 70
     1
102
RTVSPropertyOp9
 70
     1
102
RTVSPropertyOp10
 70
     1
102
RTVSPropertyOp11
 70
     1
102
RTVSPropertyOp12
 70
     1
102
RTVSPropertyOp13
 70
     1
102
RTVSPropertyOp14
 70
     1
102
RTVSPropertyOp15
 70
     1
102
RTVSPropertyOp16
 70
     1
102
RTVSPropertyOp17
 70
     1
102
RTVSPropertyOp18
 70
     1
102
RTVSPropertyOp19
 70
     1
102
RTVSPropertyOp20
 70
     1
102
RTVSPropertyOp21
 70
     1
102
RTVSPropertyOp22
 70
     1
102
RTVSPropertyOp23
 70
     1
102
RTVSPropertyOp24
 70
     1
102
RTVSPropertyOp25
 70
     1
102
RTVSPropertyOp26
 70
     1
102
RTVSPropertyOp27
 70
     1
  0
XRECORD
  5
728
102
{ACAD_REACTORS
330
727
102
}
330
727
100
AcDbXrecord
280
     1
102
RTVSPropertyOp0
 70
     0
102
RTVSPropertyOp1
 70
     0
102
RTVSPropertyOp2
 70
     0
102
RTVSPropertyOp3
 70
     0
102
RTVSPropertyOp4
 70
     0
102
RTVSPropertyOp5
 70
     0
102
RTVSPropertyOp6
 70
     0
102
RTVSPropertyOp7
 70
     0
102
RTVSPropertyOp8
 70
     0
102
RTVSPropertyOp9
 70
     0
102
RTVSPropertyOp10
 70
     0
102
RTVSPropertyOp11
 70
     0
102
RTVSPropertyOp12
 70
     0
102
RTVSPropertyOp13
 70
     0
102
RTVSPropertyOp14
 70
     2
102
RTVSPropertyOp15
 70
     0
102
RTVSPropertyOp16
 70
     0
102
RTVSPropertyOp17
 70
     0
102
RTVSPropertyOp18
 70
     0
102
RTVSPropertyOp19
 70
     0
102
RTVSPropertyOp20
 70
     0
102
RTVSPropertyOp21
 70
     0
102
RTVSPropertyOp22
 70
     0
102
RTVSPropertyOp23
 70
     0
102
RTVSPropertyOp24
 70
     0
102
RTVSPropertyOp25
 70
     0
102
RTVSPropertyOp26
 70
     0
102
RTVSPropertyOp27
 70
     0
  0
XRECORD
  5
718
102
{ACAD_REACTORS
330
717
102
}
330
717
100
AcDbXrecord
280
     1
102
RTVSPropertyOp0
 70
     1
102
RTVSPropertyOp1
 70
     1
102
RTVSPropertyOp2
 70
     1
102
RTVSPropertyOp3
 70
     1
102
RTVSPropertyOp4
 70
     1
102
RTVSPropertyOp5
 70
     1
102
RTVSPropertyOp6
 70
     1
102
RTVSPropertyOp7
 70
     1
102
RTVSPropertyOp8
 70
     1
102
RTVSPropertyOp9
 70
     1
102
RTVSPropertyOp10
 70
     1
102
RTVSPropertyOp11
 70
     1
102
RTVSPropertyOp12
 70
     1
102
RTVSPropertyOp13
 70
     1
102
RTVSPropertyOp14
 70
     1
102
RTVSPropertyOp15
 70
     1
102
RTVSPropertyOp16
 70
     1
102
RTVSPropertyOp17
 70
     1
102
RTVSPropertyOp18
 70
     1
102
RTVSPropertyOp19
 70
     1
102
RTVSPropertyOp20
 70
     1
102
RTVSPropertyOp21
 70
     1
102
RTVSPropertyOp22
 70
     1
102
RTVSPropertyOp23
 70
     1
102
RTVSPropertyOp24
 70
     1
102
RTVSPropertyOp25
 70
     1
102
RTVSPropertyOp26
 70
     1
102
RTVSPropertyOp27
 70
     1
  0
XRECORD
  5
71E
102
{ACAD_REACTORS
330
71D
102
}
330
71D
100
AcDbXrecord
280
     1
102
RTVSPropertyOp0
 70
     1
102
RTVSPropertyOp1
 70
     1
102
RTVSPropertyOp2
 70
     1
102
RTVSPropertyOp3
 70
     1
102
RTVSPropertyOp4
 70
     1
102
RTVSPropertyOp5
 70
     1
102
RTVSPropertyOp6
 70
     1
102
RTVSPropertyOp7
 70
     1
102
RTVSPropertyOp8
 70
     1
102
RTVSPropertyOp9
 70
     1
102
RTVSPropertyOp10
 70
     1
102
RTVSPropertyOp11
 70
     1
102
RTVSPropertyOp12
 70
     1
102
RTVSPropertyOp13
 70
     1
102
RTVSPropertyOp14
 70
     1
102
RTVSPropertyOp15
 70
     1
102
RTVSPropertyOp16
 70
     1
102
RTVSPropertyOp17
 70
     1
102
RTVSPropertyOp18
 70
     1
102
RTVSPropertyOp19
 70
     1
102
RTVSPropertyOp20
 70
     1
102
RTVSPropertyOp21
 70
     1
102
RTVSPropertyOp22
 70
     1
102
RTVSPropertyOp23
 70
     1
102
RTVSPropertyOp24
 70
     1
102
RTVSPropertyOp25
 70
     1
102
RTVSPropertyOp26
 70
     1
102
RTVSPropertyOp27
 70
     1
  0
ENDSEC
  0
EOF
