  0
SECTION
  2
HEADER
  9
$ACADVER
  1
AC1015
  9
$ACADMAINTVER
 70
     6
  9
$DWGCODEPAGE
  3
ANSI_1252
  9
$INSBASE
 10
0.0
 20
0.0
 30
0.0
  9
$EXTMIN
 10
708.629750044939
 20
288.1633415038208
 30
0.0
  9
$EXTMAX
 10
1136.914495675767
 20
994.0316448168164
 30
0.0
  9
$LIMMIN
 10
0.0
 20
0.0
  9
$LIMMAX
 10
12.0
 20
9.0
  9
$ORTHOMODE
 70
     0
  9
$REGENMODE
 70
     1
  9
$FILLMODE
 70
     1
  9
$QTEXTMODE
 70
     0
  9
$MIRRTEXT
 70
     1
  9
$LTSCALE
 40
1.0
  9
$ATTMODE
 70
     1
  9
$TEXTSIZE
 40
0.2
  9
$TRACEWID
 40
0.05
  9
$TEXTSTYLE
  7
STANDARD
  9
$CLAYER
  8
0
  9
$CELTYPE
  6
CONTINUOUS
  9
$CECOLOR
 62
     7
  9
$CELTSCALE
 40
1.0
  9
$DISPSILH
 70
     0
  9
$DIMSCALE
 40
1.0
  9
$DIMASZ
 40
0.18
  9
$DIMEXO
 40
0.0625
  9
$DIMDLI
 40
0.38
  9
$DIMRND
 40
0.0
  9
$DIMDLE
 40
0.0
  9
$DIMEXE
 40
0.18
  9
$DIMTP
 40
0.0
  9
$DIMTM
 40
0.0
  9
$DIMTXT
 40
0.18
  9
$DIMCEN
 40
0.09
  9
$DIMTSZ
 40
0.0
  9
$DIMTOL
 70
     0
  9
$DIMLIM
 70
     0
  9
$DIMTIH
 70
     1
  9
$DIMTOH
 70
     1
  9
$DIMSE1
 70
     0
  9
$DIMSE2
 70
     0
  9
$DIMTAD
 70
     0
  9
$DIMZIN
 70
     0
  9
$DIMBLK
  1

  9
$DIMASO
 70
     1
  9
$DIMSHO
 70
     1
  9
$DIMPOST
  1

  9
$DIMAPOST
  1

  9
$DIMALT
 70
     0
  9
$DIMALTD
 70
     2
  9
$DIMALTF
 40
25.4
  9
$DIMLFAC
 40
1.0
  9
$DIMTOFL
 70
     0
  9
$DIMTVP
 40
0.0
  9
$DIMTIX
 70
     0
  9
$DIMSOXD
 70
     0
  9
$DIMSAH
 70
     0
  9
$DIMBLK1
  1

  9
$DIMBLK2
  1

  9
$DIMSTYLE
  2
STANDARD
  9
$DIMCLRD
 70
     0
  9
$DIMCLRE
 70
     0
  9
$DIMCLRT
 70
     0
  9
$DIMTFAC
 40
1.0
  9
$DIMGAP
 40
0.09
  9
$DIMJUST
 70
     0
  9
$DIMSD1
 70
     0
  9
$DIMSD2
 70
     0
  9
$DIMTOLJ
 70
     1
  9
$DIMTZIN
 70
     0
  9
$DIMALTZ
 70
     0
  9
$DIMALTTZ
 70
     0
  9
$DIMUPT
 70
     0
  9
$DIMDEC
 70
     4
  9
$DIMTDEC
 70
     4
  9
$DIMALTU
 70
     2
  9
$DIMALTTD
 70
     2
  9
$DIMTXSTY
  7
STANDARD
  9
$DIMAUNIT
 70
     0
  9
$DIMADEC
 70
     0
  9
$DIMALTRND
 40
0.0
  9
$DIMAZIN
 70
     0
  9
$DIMDSEP
 70
    46
  9
$DIMATFIT
 70
     3
  9
$DIMFRAC
 70
     0
  9
$DIMLDRBLK
  1

  9
$DIMLUNIT
 70
     2
  9
$DIMLWD
 70
    -2
  9
$DIMLWE
 70
    -2
  9
$DIMTMOVE
 70
     0
  9
$LUNITS
 70
     2
  9
$LUPREC
 70
     4
  9
$SKETCHINC
 40
0.1
  9
$FILLETRAD
 40
10.0
  9
$AUNITS
 70
     0
  9
$AUPREC
 70
     0
  9
$MENU
  1
acad
  9
$ELEVATION
 40
0.0
  9
$PELEVATION
 40
0.0
  9
$THICKNESS
 40
0.0
  9
$LIMCHECK
 70
     0
  9
$CHAMFERA
 40
0.0
  9
$CHAMFERB
 40
0.0
  9
$CHAMFERC
 40
0.0
  9
$CHAMFERD
 40
0.0
  9
$SKPOLY
 70
     0
  9
$TDCREATE
 40
2451288.305757986
  9
$TDUCREATE
 40
2451288.264091319
  9
$TDUPDATE
 40
2457636.266561227
  9
$TDUUPDATE
 40
2457636.224894560
  9
$TDINDWG
 40
1.2622119213
  9
$TDUSRTIMER
 40
1.2621972569
  9
$USRTIMER
 70
     1
  9
$ANGBASE
 50
0.0
  9
$ANGDIR
 70
     0
  9
$PDMODE
 70
     0
  9
$PDSIZE
 40
0.0
  9
$PLINEWID
 40
0.0
  9
$SPLFRAME
 70
     0
  9
$SPLINETYPE
 70
     6
  9
$SPLINESEGS
 70
    10
  9
$HANDSEED
  5
1AEB
  9
$SURFTAB1
 70
     6
  9
$SURFTAB2
 70
     6
  9
$SURFTYPE
 70
     6
  9
$SURFU
 70
    10
  9
$SURFV
 70
    10
  9
$UCSBASE
  2

  9
$UCSNAME
  2

  9
$UCSORG
 10
0.0
 20
0.0
 30
0.0
  9
$UCSXDIR
 10
1.0
 20
0.0
 30
0.0
  9
$UCSYDIR
 10
0.0
 20
1.0
 30
0.0
  9
$UCSORTHOREF
  2

  9
$UCSORTHOVIEW
 70
     0
  9
$UCSORGTOP
 10
0.0
 20
0.0
 30
0.0
  9
$UCSORGBOTTOM
 10
0.0
 20
0.0
 30
0.0
  9
$UCSORGLEFT
 10
0.0
 20
0.0
 30
0.0
  9
$UCSORGRIGHT
 10
0.0
 20
0.0
 30
0.0
  9
$UCSORGFRONT
 10
0.0
 20
0.0
 30
0.0
  9
$UCSORGBACK
 10
0.0
 20
0.0
 30
0.0
  9
$PUCSBASE
  2

  9
$PUCSNAME
  2

  9
$PUCSORG
 10
0.0
 20
0.0
 30
0.0
  9
$PUCSXDIR
 10
1.0
 20
0.0
 30
0.0
  9
$PUCSYDIR
 10
0.0
 20
1.0
 30
0.0
  9
$PUCSORTHOREF
  2

  9
$PUCSORTHOVIEW
 70
     0
  9
$PUCSORGTOP
 10
0.0
 20
0.0
 30
0.0
  9
$PUCSORGBOTTOM
 10
0.0
 20
0.0
 30
0.0
  9
$PUCSORGLEFT
 10
0.0
 20
0.0
 30
0.0
  9
$PUCSORGRIGHT
 10
0.0
 20
0.0
 30
0.0
  9
$PUCSORGFRONT
 10
0.0
 20
0.0
 30
0.0
  9
$PUCSORGBACK
 10
0.0
 20
0.0
 30
0.0
  9
$USERI1
 70
     0
  9
$USERI2
 70
     0
  9
$USERI3
 70
     0
  9
$USERI4
 70
     0
  9
$USERI5
 70
     0
  9
$USERR1
 40
0.0
  9
$USERR2
 40
0.0
  9
$USERR3
 40
0.0
  9
$USERR4
 40
0.0
  9
$USERR5
 40
0.0
  9
$WORLDVIEW
 70
     1
  9
$SHADEDGE
 70
     3
  9
$SHADEDIF
 70
    70
  9
$TILEMODE
 70
     1
  9
$MAXACTVP
 70
    16
  9
$PINSBASE
 10
0.0
 20
0.0
 30
0.0
  9
$PLIMCHECK
 70
     0
  9
$PEXTMIN
 10
-1.000000000000000E+20
 20
-1.000000000000000E+20
 30
-1.000000000000000E+20
  9
$PEXTMAX
 10
-1.000000000000000E+20
 20
-1.000000000000000E+20
 30
-1.000000000000000E+20
  9
$PLIMMIN
 10
0.0
 20
0.0
  9
$PLIMMAX
 10
12.0
 20
9.0
  9
$UNITMODE
 70
     0
  9
$VISRETAIN
 70
     0
  9
$PLINEGEN
 70
     0
  9
$PSLTSCALE
 70
     1
  9
$TREEDEPTH
 70
  3020
  9
$CMLSTYLE
  2
STANDARD
  9
$CMLJUST
 70
     0
  9
$CMLSCALE
 40
1.0
  9
$PROXYGRAPHICS
 70
     1
  9
$MEASUREMENT
 70
     0
  9
$CELWEIGHT
370
    -1
  9
$ENDCAPS
280
     0
  9
$JOINSTYLE
280
     0
  9
$LWDISPLAY
290
     0
  9
$INSUNITS
 70
     0
  9
$HYPERLINKBASE
  1

  9
$STYLESHEET
  1

  9
$XEDIT
290
     1
  9
$CEPSNTYPE
380
     0
  9
$PSTYLEMODE
290
     1
  9
$FINGERPRINTGUID
  2
{8FD7989F-64F4-4EDA-BB74-5C36BA8CB747}
  9
$VERSIONGUID
  2
{D8EBA09F-773F-4244-86B7-2F698C6BB1BD}
  9
$EXTNAMES
290
     1
  9
$PSVPSCALE
 40
0.0
  9
$OLESTARTUP
290
     0
  0
ENDSEC
  0
SECTION
  2
CLASSES
  0
CLASS
  1
IDBUFFER
  2
AcDbIdBuffer
  3
AutoCAD 2000
 90
    32768
280
     0
281
     0
  0
CLASS
  1
ACDBDICTIONARYWDFLT
  2
AcDbDictionaryWithDefault
  3
AutoCAD 2000
 90
        0
280
     0
281
     0
  0
CLASS
  1
ACDBPLACEHOLDER
  2
AcDbPlaceHolder
  3
AutoCAD 2000
 90
        0
280
     0
281
     0
  0
CLASS
  1
LAYOUT
  2
AcDbLayout
  3
AutoCAD 2000
 90
        0
280
     0
281
     0
  0
CLASS
  1
MATERIAL
  2
AcDbMaterial
  3
ObjectDBX Classes
 90
     1153
280
     0
281
     0
  0
CLASS
  1
VISUALSTYLE
  2
AcDbVisualStyle
  3
ObjectDBX Classes
 90
     4095
280
     0
281
     0
  0
CLASS
  1
TABLESTYLE
  2
AcDbTableStyle
  3
ObjectDBX Classes
 90
     4095
280
     0
281
     0
  0
CLASS
  1
SCALE
  2
AcDbScale
  3
ObjectDBX Classes
 90
     1153
280
     0
281
     0
  0
CLASS
  1
MLEADERSTYLE
  2
AcDbMLeaderStyle
  3
ACDB_MLEADERSTYLE_CLASS
 90
     4095
280
     0
281
     0
  0
CLASS
  1
DICTIONARYVAR
  2
AcDbDictionaryVar
  3
AutoCAD 2000
 90
        0
280
     0
281
     0
  0
CLASS
  1
CELLSTYLEMAP
  2
AcDbCellStyleMap
  3
ObjectDBX Classes
 90
     1152
280
     0
281
     0
  0
CLASS
  1
SORTENTSTABLE
  2
AcDbSortentsTable
  3
AutoCAD 2000
 90
        0
280
     0
281
     0
  0
ENDSEC
  0
SECTION
  2
TABLES
  0
TABLE
  2
VPORT
  5
17B
330
0
100
AcDbSymbolTable
 70
     2
  0
VPORT
  5
1AEA
330
17B
100
AcDbSymbolTableRecord
100
AcDbViewportTableRecord
  2
*Active
 70
     0
 10
0.0
 20
0.0
 11
1.0
 21
1.0
 12
181.792281010589
 22
77.03902202585061
 13
0.0
 23
0.0
 14
0.0
 24
0.0
 15
0.0
 25
0.0
 16
0.0
 26
0.0
 36
1.0
 17
662.702334
 27
588.79375
 37
0.0
 40
136.4238525539492
 41
3.068783068783068
 42
50.0
 43
0.0
 44
0.0
 50
0.0
 51
0.0
 71
     0
 72
  1000
 73
     1
 74
     0
 75
     0
 76
     0
 77
     0
 78
     0
281
     0
 65
     1
110
0.0
120
0.0
130
0.0
111
1.0
121
0.0
131
0.0
112
0.0
122
1.0
132
0.0
 79
     0
146
0.0
  0
ENDTAB
  0
TABLE
  2
LTYPE
  5
178
330
0
100
AcDbSymbolTable
 70
     2
  0
LTYPE
  5
185
330
178
100
AcDbSymbolTableRecord
100
AcDbLinetypeTableRecord
  2
BYBLOCK
 70
     0
  3

 72
    65
 73
     0
 40
0.0
  0
LTYPE
  5
186
330
178
100
AcDbSymbolTableRecord
100
AcDbLinetypeTableRecord
  2
BYLAYER
 70
     0
  3

 72
    65
 73
     0
 40
0.0
  0
LTYPE
  5
187
330
178
100
AcDbSymbolTableRecord
100
AcDbLinetypeTableRecord
  2
CONTINUOUS
 70
     0
  3
Solid line
 72
    65
 73
     0
 40
0.0
  0
LTYPE
  5
7E3
330
178
100
AcDbSymbolTableRecord
100
AcDbLinetypeTableRecord
  2
DASHED
 70
     0
  3
__ __ __ __ __ __ __ __ __ __ __ __ __ __ __ __ __ __ __ __ __
 72
    65
 73
     2
 40
0.75
 49
0.5
 74
     0
 49
-0.25
 74
     0
  0
ENDTAB
  0
TABLE
  2
LAYER
  5
175
330
0
100
AcDbSymbolTable
 70
     5
  0
LAYER
  5
181
102
{ACAD_XDICTIONARY
360
154B
102
}
330
175
100
AcDbSymbolTableRecord
100
AcDbLayerTableRecord
  2
0
 70
     0
 62
     7
  6
CONTINUOUS
370
    -3
390
96E
  0
LAYER
  5
19A
102
{ACAD_XDICTIONARY
360
154D
102
}
330
175
100
AcDbSymbolTableRecord
100
AcDbLayerTableRecord
  2
1
 70
     0
 62
     7
  6
CONTINUOUS
370
    -3
390
96E
  0
LAYER
  5
19B
102
{ACAD_XDICTIONARY
360
154F
102
}
330
175
100
AcDbSymbolTableRecord
100
AcDbLayerTableRecord
  2
-1
 70
     0
 62
     7
  6
CONTINUOUS
370
    -3
390
96E
  0
LAYER
  5
7D0
102
{ACAD_XDICTIONARY
360
1551
102
}
330
175
100
AcDbSymbolTableRecord
100
AcDbLayerTableRecord
  2
-10
 70
     0
 62
     7
  6
CONTINUOUS
370
    -3
390
96E
  0
LAYER
  5
1455
102
{ACAD_XDICTIONARY
360
1553
102
}
330
175
100
AcDbSymbolTableRecord
100
AcDbLayerTableRecord
  2
COMPONENT
 70
     0
 62
     7
  6
CONTINUOUS
370
    -3
390
96E
  0
ENDTAB
  0
TABLE
  2
STYLE
  5
176
330
0
100
AcDbSymbolTable
 70
     2
  0
STYLE
  5
182
330
176
100
AcDbSymbolTableRecord
100
AcDbTextStyleTableRecord
  2
STANDARD
 70
     0
 40
0.0
 41
1.0
 50
0.0
 71
     0
 42
0.2
  3
txt
  4

  0
STYLE
  5
F47
330
176
100
AcDbSymbolTableRecord
100
AcDbTextStyleTableRecord
  2
ROMANS
 70
     0
 40
0.2
 41
1.0
 50
0.0
 71
     0
 42
0.2
  3
ROMANS
  4

  0
ENDTAB
  0
TABLE
  2
VIEW
  5
179
330
0
100
AcDbSymbolTable
 70
     0
  0
ENDTAB
  0
TABLE
  2
UCS
  5
17A
330
0
100
AcDbSymbolTable
 70
     0
  0
ENDTAB
  0
TABLE
  2
APPID
  5
17C
330
0
100
AcDbSymbolTable
 70
     3
  0
APPID
  5
183
330
17C
100
AcDbSymbolTableRecord
100
AcDbRegAppTableRecord
  2
ACAD
 70
     0
  0
APPID
  5
158F
330
17C
100
AcDbSymbolTableRecord
100
AcDbRegAppTableRecord
  2
ACAD_MLEADERVER
 70
     0
  0
APPID
  5
1699
330
17C
100
AcDbSymbolTableRecord
100
AcDbRegAppTableRecord
  2
ACAD_EXEMPT_FROM_CAD_STANDARDS
 70
     0
  0
ENDTAB
  0
TABLE
  2
DIMSTYLE
  5
17D
330
0
100
AcDbSymbolTable
 70
     1
100
AcDbDimStyleTable
 71
     1
340
19E
  0
DIMSTYLE
105
19E
330
17D
100
AcDbSymbolTableRecord
100
AcDbDimStyleTableRecord
  2
STANDARD
 70
     0
340
182
  0
ENDTAB
  0
TABLE
  2
BLOCK_RECORD
  5
174
330
0
100
AcDbSymbolTable
 70
     0
  0
BLOCK_RECORD
  5
18B
102
{ACAD_XDICTIONARY
360
BEF
102
}
330
174
100
AcDbSymbolTableRecord
100
AcDbBlockTableRecord
  2
*MODEL_SPACE
340
1445
  0
BLOCK_RECORD
  5
188
102
{ACAD_XDICTIONARY
360
BED
102
}
330
174
100
AcDbSymbolTableRecord
100
AcDbBlockTableRecord
  2
*PAPER_SPACE
340
1446
  0
ENDTAB
  0
ENDSEC
  0
SECTION
  2
BLOCKS
  0
BLOCK
  5
18C
330
18B
100
AcDbEntity
  8
0
100
AcDbBlockBegin
  2
*MODEL_SPACE
 70
     0
 10
0.0
 20
0.0
 30
0.0
  3
*MODEL_SPACE
  1

  0
ENDBLK
  5
18D
330
18B
100
AcDbEntity
  8
0
100
AcDbBlockEnd
  0
BLOCK
  5
189
330
188
100
AcDbEntity
 67
     1
  8
0
100
AcDbBlockBegin
  2
*PAPER_SPACE
 70
     0
 10
0.0
 20
0.0
 30
0.0
  3
*PAPER_SPACE
  1

  0
ENDBLK
  5
18A
330
188
100
AcDbEntity
 67
     1
  8
0
100
AcDbBlockEnd
  0
ENDSEC
  0
SECTION
  2
ENTITIES
  0
LINE
  5
144B
330
18B
100
AcDbEntity
  8
0
  6
Continuous
 62
     7
100
AcDbLine
 10
708.629750044939
 20
647.4753550260293
 30
0.0
 11
852.1740644176082
 21
647.4753550260293
 31
0.0
  0
LINE
  5
14AA
330
18B
100
AcDbEntity
  8
0
  6
Continuous
 62
     7
100
AcDbLine
 10
960.6208193104505
 20
647.4753550260293
 30
0.0
 11
978.4786658207288
 21
647.4753550260293
 31
0.0
  0
LINE
  5
14AB
330
18B
100
AcDbEntity
  8
1
  6
Continuous
 62
     3
100
AcDbLine
 10
936.9083193104508
 20
647.4753550260293
 30
0.0
 11
960.6208193104505
 21
654.0316050260296
 31
0.0
  0
LINE
  5
14AC
330
18B
100
AcDbEntity
  8
1
  6
Continuous
 62
     3
100
AcDbLine
 10
936.9083193104508
 20
647.4753550260293
 30
0.0
 11
960.6208193104505
 21
640.9191050260297
 31
0.0
  0
LINE
  5
14AF
330
18B
100
AcDbEntity
  8
1
  6
Continuous
 62
     3
100
AcDbLine
 10
875.8865644176081
 20
647.4753550260293
 30
0.0
 11
852.1740644176082
 21
640.9191050260292
 31
0.0
  0
LINE
  5
14B0
330
18B
100
AcDbEntity
  8
1
  6
Continuous
 62
     3
100
AcDbLine
 10
875.8865644176081
 20
647.4753550260293
 30
0.0
 11
852.1740644176082
 21
654.0316050260294
 31
0.0
  0
LINE
  5
14B1
330
18B
100
AcDbEntity
  8
1
  6
Continuous
 62
     3
100
AcDbLine
 10
852.1740644176082
 20
640.9191050260292
 30
0.0
 11
852.1740644176082
 21
654.0316050260294
 31
0.0
  0
LINE
  5
165D
330
18B
100
AcDbEntity
  8
0
  6
Continuous
 62
     4
100
AcDbLine
 10
887.1702906326708
 20
737.4147441361159
 30
0.0
 11
899.0017157563961
 21
749.2461692598415
 31
0.0
1001
ACAD
1010
0.0
1020
0.0
1030
0.0
  0
LINE
  5
165E
330
18B
100
AcDbEntity
  8
0
  6
Continuous
 62
     4
100
AcDbLine
 10
884.1855142729226
 20
723.8233660585692
 30
0.0
 11
995.0478509044714
 21
834.6857026901194
 31
0.0
1001
ACAD
1010
0.0
1020
0.0
1030
0.0
  0
LINE
  5
165F
330
18B
100
AcDbEntity
  8
0
  6
Continuous
 62
     4
100
AcDbLine
 10
881.8021252857905
 20
710.8333753536387
 30
0.0
 11
977.7839197260153
 21
806.8151697938658
 31
0.0
1001
ACAD
1010
0.0
1020
0.0
1030
0.0
  0
LINE
  5
1660
330
18B
100
AcDbEntity
  8
0
  6
Continuous
 62
     4
100
AcDbLine
 10
879.9374851962506
 20
698.3621335463002
 30
0.0
 11
966.9116794986727
 21
785.3363278487249
 31
0.0
1001
ACAD
1010
0.0
1020
0.0
1030
0.0
  0
LINE
  5
1661
330
18B
100
AcDbEntity
  8
0
  6
Continuous
 62
     4
100
AcDbLine
 10
878.5276820031711
 20
686.3457286354222
 30
0.0
 11
959.072381940698
 21
766.890428572951
 31
0.0
1001
ACAD
1010
0.0
1020
0.0
1030
0.0
  0
LINE
  5
1662
330
18B
100
AcDbEntity
  8
0
  6
Continuous
 62
     4
100
AcDbLine
 10
877.5220664757009
 20
674.7335113901539
 30
0.0
 11
953.1239521539694
 21
750.335397068423
 31
0.0
1001
ACAD
1010
0.0
1020
0.0
1030
0.0
  0
LINE
  5
1663
330
18B
100
AcDbEntity
  8
0
  6
Continuous
 62
     4
100
AcDbLine
 10
876.8796868782628
 20
663.4845300749171
 30
0.0
 11
948.5109692344272
 21
735.115812431083
 31
0.0
1001
ACAD
1010
0.0
1020
0.0
1030
0.0
  0
LINE
  5
1664
330
18B
100
AcDbEntity
  8
0
  6
Continuous
 62
     4
100
AcDbLine
 10
876.5668724948216
 20
652.5651139736776
 30
0.0
 11
944.9128768469666
 21
720.9111183258238
 31
0.0
1001
ACAD
1010
0.0
1020
0.0
1030
0.0
  0
LINE
  5
1665
330
18B
100
AcDbEntity
  8
0
  6
Continuous
 62
     4
100
AcDbLine
 10
876.5555430772607
 20
641.9471828383187
 30
0.0
 11
942.1244886597463
 21
707.5161284208052
 31
0.0
1001
ACAD
1010
0.0
1020
0.0
1030
0.0
  0
LINE
  5
1666
330
18B
100
AcDbEntity
  8
0
  6
Continuous
 62
     4
100
AcDbLine
 10
876.8219939600053
 20
631.6070320032646
 30
0.0
 11
940.0049434724323
 21
694.7899815156926
 31
0.0
1001
ACAD
1010
0.0
1020
0.0
1030
0.0
  0
LINE
  5
1667
330
18B
100
AcDbEntity
  8
0
  6
Continuous
 62
     4
100
AcDbLine
 10
877.3460026408201
 20
621.5244389662813
 30
0.0
 11
938.4525151462947
 21
682.6309514717569
 31
0.0
1001
ACAD
1010
0.0
1020
0.0
1030
0.0
  0
LINE
  5
1668
330
18B
100
AcDbEntity
  8
0
  6
Continuous
 62
     4
100
AcDbLine
 10
878.1101584830741
 20
611.6819930907372
 30
0.0
 11
937.3908645588015
 21
670.9626991664655
 31
0.0
1001
ACAD
1010
0.0
1020
0.0
1030
0.0
  0
LINE
  5
1669
330
18B
100
AcDbEntity
  8
0
  6
Continuous
 62
     4
100
AcDbLine
 10
879.0993509199036
 20
602.0645838097678
 30
0.0
 11
936.7609536712942
 21
659.7261865611596
 31
0.0
1001
ACAD
1010
0.0
1020
0.0
1030
0.0
  0
LINE
  5
166A
330
18B
100
AcDbEntity
  8
0
  6
Continuous
 62
     4
100
AcDbLine
 10
880.3003725799166
 20
592.6590037519827
 30
0.0
 11
936.5160060728255
 21
648.874637244893
 31
0.0
1001
ACAD
1010
0.0
1020
0.0
1030
0.0
  0
LINE
  5
166B
330
18B
100
AcDbEntity
  8
0
  6
Continuous
 62
     4
100
AcDbLine
 10
881.7016072603891
 20
583.4536367146568
 30
0.0
 11
936.6182173161805
 21
638.3702467704494
 31
0.0
1001
ACAD
1010
0.0
1020
0.0
1030
0.0
  0
LINE
  5
166C
330
18B
100
AcDbEntity
  8
0
  6
Continuous
 62
     4
100
AcDbLine
 10
883.2927815664517
 20
574.4382093029209
 30
0.0
 11
937.0365245020792
 21
628.1819522385497
 31
0.0
1001
ACAD
1010
0.0
1020
0.0
1030
0.0
  0
LINE
  5
166D
330
18B
100
AcDbEntity
  8
0
  6
Continuous
 62
     4
100
AcDbLine
 10
885.0647650231046
 20
565.6035910417757
 30
0.0
 11
937.7450454399353
 21
618.2838714586072
 31
0.0
1001
ACAD
1010
0.0
1020
0.0
1030
0.0
  0
LINE
  5
166E
330
18B
100
AcDbEntity
  8
0
  6
Continuous
 62
     4
100
AcDbLine
 10
887.0094075816922
 20
556.9416318825643
 30
0.0
 11
938.7219567069465
 21
608.65418100782
 31
0.0
1001
ACAD
1010
0.0
1020
0.0
1030
0.0
  0
LINE
  5
166F
330
18B
100
AcDbEntity
  8
0
  6
Continuous
 62
     4
100
AcDbLine
 10
889.1194063219169
 20
548.4450289049913
 30
0.0
 11
939.9486684291103
 21
599.2742910121855
 31
0.0
1001
ACAD
1010
0.0
1020
0.0
1030
0.0
  0
LINE
  5
1670
330
18B
100
AcDbEntity
  8
0
  6
Continuous
 62
     4
100
AcDbLine
 10
891.3881951990013
 20
540.1072160642773
 30
0.0
 11
941.4092050834927
 21
590.1282259487692
 31
0.0
1001
ACAD
1010
0.0
1020
0.0
1030
0.0
  0
LINE
  5
1671
330
18B
100
AcDbEntity
  8
0
  6
Continuous
 62
     4
100
AcDbLine
 10
893.8098531650437
 20
531.9222723125212
 30
0.0
 11
943.0897327099016
 21
581.2021518573801
 31
0.0
1001
ACAD
1010
0.0
1020
0.0
1030
0.0
  0
LINE
  5
1672
330
18B
100
AcDbEntity
  8
0
  6
Continuous
 62
     4
100
AcDbLine
 10
896.3790270769482
 20
523.8848445066279
 30
0.0
 11
944.9781923196097
 21
572.4840097492897
 31
0.0
1001
ACAD
1010
0.0
1020
0.0
1030
0.0
  0
LINE
  5
1673
330
18B
100
AcDbEntity
  8
0
  6
Continuous
 62
     4
100
AcDbLine
 10
899.0908666066191
 20
515.9900823184996
 30
0.0
 11
947.0640117454651
 21
563.9632274573463
 31
0.0
1001
ACAD
1010
0.0
1020
0.0
1030
0.0
  0
LINE
  5
1675
330
18B
100
AcDbEntity
  8
0
  6
Continuous
 62
     4
100
AcDbLine
 10
901.9409689718328
 20
508.2335829659156
 30
0.0
 11
949.3378763813167
 21
555.6304903753995
 31
0.0
1001
ACAD
1010
0.0
1020
0.0
1030
0.0
  0
LINE
  5
1676
330
18B
100
AcDbEntity
  8
0
  6
Continuous
 62
     4
100
AcDbLine
 10
904.9253317633036
 20
500.6113440395878
 30
0.0
 11
951.791544784371
 21
547.4775570606557
 31
0.0
1001
ACAD
1010
0.0
1020
0.0
1030
0.0
  0
LINE
  5
1677
330
18B
100
AcDbEntity
  8
0
  6
Continuous
 62
     4
100
AcDbLine
 10
908.0403124936388
 20
493.1197230521248
 30
0.0
 11
954.4176989120495
 21
539.4971094705356
 31
0.0
1001
ACAD
1010
0.0
1020
0.0
1030
0.0
  0
LINE
  5
1678
330
18B
100
AcDbEntity
  8
0
  6
Continuous
 62
     4
100
AcDbLine
 10
945.1296104191538
 20
519.6024192598415
 30
0.0
 11
957.2098214233454
 21
531.6826302640333
 31
0.0
1001
ACAD
1010
0.0
1020
0.0
1030
0.0
  0
LINE
  5
1679
330
18B
100
AcDbEntity
  8
0
  6
Continuous
 62
     4
100
AcDbLine
 10
955.7362121369518
 20
519.6024192598415
 30
0.0
 11
960.1620943665873
 21
524.0283014894763
 31
0.0
1001
ACAD
1010
0.0
1020
0.0
1030
0.0
  0
LINE
  5
1691
330
18B
100
AcDbEntity
  8
0
  6
Continuous
 62
     4
100
AcDbLine
 10
948.9931663072592
 20
873.4838318352949
 30
0.0
 11
1040.529851973789
 21
965.0205175018276
 31
0.0
1001
ACAD
1010
0.0
1020
0.0
1030
0.0
  0
LINE
  5
1692
330
18B
100
AcDbEntity
  8
0
  6
Continuous
 62
     4
100
AcDbLine
 10
929.6660143973653
 20
843.5500782076022
 30
0.0
 11
1070.463605601481
 21
984.3476694117212
 31
0.0
1001
ACAD
1010
0.0
1020
0.0
1030
0.0
  0
LINE
  5
1693
330
18B
100
AcDbEntity
  8
0
  6
Continuous
 62
     4
100
AcDbLine
 10
917.2716317076927
 20
820.5490938001309
 30
0.0
 11
1088.97451689798
 21
992.2519789904244
 31
0.0
1001
ACAD
1010
0.0
1020
0.0
1030
0.0
  0
LINE
  5
1694
330
18B
100
AcDbEntity
  8
0
  6
Continuous
 62
     4
100
AcDbLine
 10
908.1543943237452
 20
800.8252546983849
 30
0.0
 11
1092.912348864314
 21
985.5832092389594
 31
0.0
1001
ACAD
1010
0.0
1020
0.0
1030
0.0
  0
LINE
  5
1695
330
18B
100
AcDbEntity
  8
0
  6
Continuous
 62
     4
100
AcDbLine
 10
901.073720100984
 20
783.1379787578247
 30
0.0
 11
1096.850180830647
 21
978.9144394874933
 31
0.0
1001
ACAD
1010
0.0
1020
0.0
1030
0.0
  0
LINE
  5
1696
330
18B
100
AcDbEntity
  8
0
  6
Continuous
 62
     4
100
AcDbLine
 10
895.4269614398599
 20
766.8846183789022
 30
0.0
 11
1092.719162304554
 21
964.1768192436039
 31
0.0
1001
ACAD
1010
0.0
1020
0.0
1030
0.0
  0
LINE
  5
1697
330
18B
100
AcDbEntity
  8
0
  6
Continuous
 62
     4
100
AcDbLine
 10
888.3951140385978
 20
749.2461692598415
 30
0.0
 11
1106.760583367469
 21
967.6116385887183
 31
0.0
1001
ACAD
1010
0.0
1020
0.0
1030
0.0
  0
LINE
  5
1698
330
18B
100
AcDbEntity
  8
0
  6
Continuous
 62
     4
100
AcDbLine
 10
899.0017157563961
 20
749.2461692598415
 30
0.0
 11
1107.830830530544
 21
958.075284033995
 31
0.0
1001
ACAD
1010
0.0
1020
0.0
1030
0.0
  0
LINE
  5
16A4
330
18B
100
AcDbEntity
  8
0
  6
Continuous
 62
     4
100
AcDbLine
 10
911.2825937646793
 20
485.7554026053668
 30
0.0
 11
957.5985458069771
 21
532.0713546476646
 31
0.0
1001
ACAD
1010
0.0
1020
0.0
1030
0.0
  0
LINE
  5
16A5
330
18B
100
AcDbEntity
  8
0
  6
Continuous
 62
     4
100
AcDbLine
 10
914.6491531609697
 20
478.5153602838579
 30
0.0
 11
960.1620943665873
 21
524.0283014894761
 31
0.0
1001
ACAD
1010
0.0
1020
0.0
1030
0.0
  0
LINE
  5
16A6
330
18B
100
AcDbEntity
  8
0
  6
Continuous
 62
     4
100
AcDbLine
 10
918.1372371432694
 20
471.3968425483596
 30
0.0
 11
963.2693149423483
 21
516.5289203474393
 31
0.0
1001
ACAD
1010
0.0
1020
0.0
1030
0.0
  0
LINE
  5
16A7
330
18B
100
AcDbEntity
  8
0
  6
Continuous
 62
     4
100
AcDbLine
 10
921.7443383477579
 20
464.3973420350498
 30
0.0
 11
966.5268250315435
 21
509.1798287188362
 31
0.0
1001
ACAD
1010
0.0
1020
0.0
1030
0.0
  0
LINE
  5
16A8
330
18B
100
AcDbEntity
  8
0
  6
Continuous
 62
     4
100
AcDbLine
 10
925.4681758017824
 20
457.5145777712759
 30
0.0
 11
969.9304519216772
 21
501.9768538911717
 31
0.0
1001
ACAD
1010
0.0
1020
0.0
1030
0.0
  0
LINE
  5
16A9
330
18B
100
AcDbEntity
  8
0
  6
Continuous
 62
     4
100
AcDbLine
 10
929.3066776516404
 20
450.746477903335
 30
0.0
 11
973.4764582220302
 21
494.9162584737258
 31
0.0
1001
ACAD
1010
0.0
1020
0.0
1030
0.0
  0
LINE
  5
16AA
330
18B
100
AcDbEntity
  8
0
  6
Continuous
 62
     4
100
AcDbLine
 10
933.2579660664199
 20
444.0911646003171
 30
0.0
 11
977.1614993820298
 21
487.9946979159274
 31
0.0
1001
ACAD
1010
0.0
1020
0.0
1030
0.0
  0
LINE
  5
16AB
330
18B
100
AcDbEntity
  8
0
  6
Continuous
 62
     4
100
AcDbLine
 10
937.4085792931536
 20
437.6351761092521
 30
0.0
 11
980.9825875519242
 21
481.2091843680232
 31
0.0
1001
ACAD
1010
0.0
1020
0.0
1030
0.0
  0
LINE
  5
16AC
330
18B
100
AcDbEntity
  8
0
  6
Continuous
 62
     4
100
AcDbLine
 10
941.4922838417153
 20
431.1122789400153
 30
0.0
 11
984.9370607765418
 21
474.5570558748428
 31
0.0
1001
ACAD
1010
0.0
1020
0.0
1030
0.0
  0
LINE
  5
16AD
330
18B
100
AcDbEntity
  8
0
  6
Continuous
 62
     4
100
AcDbLine
 10
945.7724169651852
 20
424.785810345687
 30
0.0
 11
989.0225567098104
 21
468.0359500903128
 31
0.0
1001
ACAD
1010
0.0
1020
0.0
1030
0.0
  0
LINE
  5
16AE
330
18B
100
AcDbEntity
  8
0
  6
Continuous
 62
     4
100
AcDbLine
 10
950.1595253341847
 20
418.5663169968885
 30
0.0
 11
993.2369901931119
 21
461.6437818558162
 31
0.0
1001
ACAD
1010
0.0
1020
0.0
1030
0.0
  0
LINE
  5
16AF
330
18B
100
AcDbEntity
  8
0
  6
Continuous
 62
     4
100
AcDbLine
 10
954.6525337035234
 20
412.4527236484286
 30
0.0
 11
997.5785341644176
 21
455.3787241093236
 31
0.0
1001
ACAD
1010
0.0
1020
0.0
1030
0.0
  0
LINE
  5
16B0
330
18B
100
AcDbEntity
  8
0
  6
Continuous
 62
     4
100
AcDbLine
 10
959.2505030930677
 20
406.444091320175
 30
0.0
 11
1002.045603464781
 21
449.2391916918903
 31
0.0
1001
ACAD
1010
0.0
1020
0.0
1030
0.0
  0
LINE
  5
16B1
330
18B
100
AcDbEntity
  8
0
  6
Continuous
 62
     4
100
AcDbLine
 10
963.9526251730993
 20
400.5396116824082
 30
0.0
 11
1006.636841189759
 21
443.2238276990688
 31
0.0
1001
ACAD
1010
0.0
1020
0.0
1030
0.0
  0
LINE
  5
16B2
330
18B
100
AcDbEntity
  8
0
  6
Continuous
 62
     4
100
AcDbLine
 10
968.7582175180388
 20
394.7386023095495
 30
0.0
 11
1011.351107299786
 21
437.3314920912978
 31
0.0
1001
ACAD
1010
0.0
1020
0.0
1030
0.0
  0
LINE
  5
16B3
330
18B
100
AcDbEntity
  8
0
  6
Continuous
 62
     4
100
AcDbLine
 10
973.6667196619274
 20
389.0405027356395
 30
0.0
 11
1016.187469258928
 21
431.5612523326413
 31
0.0
1001
ACAD
1010
0.0
1020
0.0
1030
0.0
  0
LINE
  5
16B4
330
18B
100
AcDbEntity
  8
0
  6
Continuous
 62
     4
100
AcDbLine
 10
978.6776899014586
 20
383.4448712573721
 30
0.0
 11
1021.145194517947
 21
425.9123758738611
 31
0.0
1001
ACAD
1010
0.0
1020
0.0
1030
0.0
  0
LINE
  5
16B5
330
18B
100
AcDbEntity
  8
0
  6
Continuous
 62
     4
100
AcDbLine
 10
983.7908028034391
 20
377.9513824415551
 30
0.0
 11
1026.22374469764
 21
420.3843243357573
 31
0.0
1001
ACAD
1010
0.0
1020
0.0
1030
0.0
  0
LINE
  5
16B6
330
18B
100
AcDbEntity
  8
0
  6
Continuous
 62
     4
100
AcDbLine
 10
989.0058473835464
 20
372.5598253038636
 30
0.0
 11
1031.422771363271
 21
414.9767492835904
 31
0.0
1001
ACAD
1010
0.0
1020
0.0
1030
0.0
  0
LINE
  5
16B7
330
18B
100
AcDbEntity
  8
0
  6
Continuous
 62
     4
100
AcDbLine
 10
994.3227259324466
 20
367.2701021349654
 30
0.0
 11
1036.742113312006
 21
409.6894895145263
 31
0.0
1001
ACAD
1010
0.0
1020
0.0
1030
0.0
  0
LINE
  5
16B8
330
18B
100
AcDbEntity
  8
0
  6
Continuous
 62
     4
100
AcDbLine
 10
999.7414534739903
 20
362.082227958711
 30
0.0
 11
1042.181795323853
 21
404.5225698085743
 31
0.0
1001
ACAD
1010
0.0
1020
0.0
1030
0.0
  0
LINE
  5
16B9
330
18B
100
AcDbEntity
  8
0
  6
Continuous
 62
     4
100
AcDbLine
 10
1005.262157848445
 20
356.9963306153676
 30
0.0
 11
1047.742028353425
 21
399.476201120348
 31
0.0
1001
ACAD
1010
0.0
1020
0.0
1030
0.0
  0
LINE
  5
16BA
330
18B
100
AcDbEntity
  8
0
  6
Continuous
 62
     4
100
AcDbLine
 10
1010.88508042185
 20
352.0126514709738
 30
0.0
 11
1053.423211166006
 21
394.5507822151307
 31
0.0
1001
ACAD
1010
0.0
1020
0.0
1030
0.0
  0
LINE
  5
16BB
330
18B
100
AcDbEntity
  8
0
  6
Continuous
 62
     4
100
AcDbLine
 10
1016.610577430693
 20
347.1315467620188
 30
0.0
 11
1059.225933447631
 21
389.7469027789575
 31
0.0
1001
ACAD
1010
0.0
1020
0.0
1030
0.0
  0
LINE
  5
16BD
330
18B
100
AcDbEntity
  8
0
  6
Continuous
 62
     4
100
AcDbLine
 10
1022.439121979487
 20
342.3534895930139
 30
0.0
 11
1065.15098044614
 21
385.0653480596676
 31
0.0
1001
ACAD
1010
0.0
1020
0.0
1030
0.0
  0
LINE
  5
16BE
330
18B
100
AcDbEntity
  8
0
  6
Continuous
 62
     4
100
AcDbLine
 10
1028.371306717531
 20
337.6790726132599
 30
0.0
 11
1071.199339229242
 21
380.5071051249721
 31
0.0
1001
ACAD
1010
0.0
1020
0.0
1030
0.0
  0
LINE
  5
16BF
330
18B
100
AcDbEntity
  8
0
  6
Continuous
 62
     4
100
AcDbLine
 10
1034.407847230599
 20
333.1090114085303
 30
0.0
 11
1077.372206677691
 21
376.0733708556218
 31
0.0
1001
ACAD
1010
0.0
1020
0.0
1030
0.0
  0
LINE
  5
16C0
330
18B
100
AcDbEntity
  8
0
  6
Continuous
 62
     4
100
AcDbLine
 10
1040.549586193499
 20
328.6441486536308
 30
0.0
 11
1083.670999367702
 21
371.7655618278358
 31
0.0
1001
ACAD
1010
0.0
1020
0.0
1030
0.0
  0
LINE
  5
1708
330
18B
100
AcDbEntity
  8
0
  6
Continuous
 62
     4
100
AcDbLine
 10
1046.797498340859
 20
324.2854590831945
 30
0.0
 11
1090.09736553837
 21
367.5853262807041
 31
0.0
1001
ACAD
1010
0.0
1020
0.0
1030
0.0
  0
LINE
  5
1709
330
18B
100
AcDbEntity
  8
0
  6
Continuous
 62
     4
100
AcDbLine
 10
1053.152696326397
 20
320.0340553509334
 30
0.0
 11
1096.653199388474
 21
363.5345584130108
 31
0.0
1001
ACAD
1010
0.0
1020
0.0
1030
0.0
  0
LINE
  5
170A
330
18B
100
AcDbEntity
  8
0
  6
Continuous
 62
     4
100
AcDbLine
 10
1059.616437555493
 20
315.8911948622318
 30
0.0
 11
1103.340658005188
 21
359.6154153119275
 31
0.0
1001
ACAD
1010
0.0
1020
0.0
1030
0.0
  0
LINE
  5
170B
330
18B
100
AcDbEntity
  8
0
  6
Continuous
 62
     4
100
AcDbLine
 10
1066.190132093005
 20
311.8582876819443
 30
0.0
 11
1110.16218129712
 21
355.8303368860616
 31
0.0
1001
ACAD
1010
0.0
1020
0.0
1030
0.0
  0
LINE
  5
170C
330
18B
100
AcDbEntity
  8
0
  6
Continuous
 62
     4
100
AcDbLine
 10
1072.875351767915
 20
307.9369056390563
 30
0.0
 11
1117.120515389665
 21
352.182069260808
 31
0.0
1001
ACAD
1010
0.0
1020
0.0
1030
0.0
  0
LINE
  5
170D
330
18B
100
AcDbEntity
  8
0
  6
Continuous
 62
     4
100
AcDbLine
 10
1079.673840619834
 20
304.1287927731767
 30
0.0
 11
1124.218740046132
 21
348.6736921994757
 31
0.0
1001
ACAD
1010
0.0
1020
0.0
1030
0.0
  0
LINE
  5
170E
330
18B
100
AcDbEntity
  8
0
  6
Continuous
 62
     4
100
AcDbLine
 10
1086.587526859968
 20
300.4358772955118
 30
0.0
 11
1113.079275711011
 21
326.9276261465551
 31
0.0
1001
ACAD
1010
0.0
1020
0.0
1030
0.0
  0
LINE
  5
170F
330
18B
100
AcDbEntity
  8
0
  6
Continuous
 62
     4
100
AcDbLine
 10
1093.61853655231
 20
296.8602852700556
 30
0.0
 11
1118.384034639666
 21
321.6257833574128
 31
0.0
1001
ACAD
1010
0.0
1020
0.0
1030
0.0
  0
LINE
  5
1710
330
18B
100
AcDbEntity
  8
0
  6
Continuous
 62
     4
100
AcDbLine
 10
1100.769209260646
 20
293.4043562605936
 30
0.0
 11
1123.688793568321
 21
316.3239405682698
 31
0.0
1001
ACAD
1010
0.0
1020
0.0
1030
0.0
  0
LINE
  5
1711
330
18B
100
AcDbEntity
  8
0
  6
Continuous
 62
     4
100
AcDbLine
 10
1108.042115955284
 20
290.0706612374335
 30
0.0
 11
1117.227805451783
 21
299.2563507339348
 31
0.0
1001
ACAD
1010
0.0
1020
0.0
1030
0.0
  0
LINE
  5
1747
330
18B
100
AcDbEntity
  8
0
  6
Continuous
 62
     4
100
AcDbLine
 10
1079.327981118969
 20
918.9658329046194
 30
0.0
 11
1112.031794765649
 21
951.6696465512996
 31
0.0
1001
ACAD
1010
0.0
1020
0.0
1030
0.0
  0
LINE
  5
1749
330
18B
100
AcDbEntity
  8
0
  6
Continuous
 62
     4
100
AcDbLine
 10
1107.198514015218
 20
936.2297640830735
 30
0.0
 11
1116.232759000753
 21
945.2640090686074
 31
0.0
1001
ACAD
1010
0.0
1020
0.0
1030
0.0
  0
LINE
  5
180E
330
18B
100
AcDbEntity
  8
0
  6
Continuous
 62
     4
100
AcDbLine
 10
1124.770419056549
 20
328.0121677742958
 30
0.0
 11
1134.677781148599
 21
337.9195298663461
 31
0.0
1001
ACAD
1010
0.0
1020
0.0
1030
0.0
  0
LINE
  5
180F
330
18B
100
AcDbEntity
  8
0
  6
Continuous
 62
     4
100
AcDbLine
 10
1115.456681749054
 20
329.3050321845989
 30
0.0
 11
1131.460300809558
 21
345.3086512451037
 31
0.0
1001
ACAD
1010
0.0
1020
0.0
1030
0.0
  0
LINE
  5
1810
330
18B
100
AcDbEntity
  8
0
  6
Continuous
 62
     4
100
AcDbLine
 10
1123.950985798325
 20
305.9795310804755
 30
0.0
 11
1128.993552496976
 21
311.0220977791271
 31
0.0
1001
ACAD
1010
0.0
1020
0.0
1030
0.0
  0
LINE
  5
1906
330
18B
100
AcDbEntity
  8
1
  6
Continuous
 62
     3
100
AcDbLine
 10
874.0103260092485
 20
646.956595381757
 30
0.0
 11
852.174064417608
 21
652.9940857374847
 31
0.0
  0
LINE
  5
1907
330
18B
100
AcDbEntity
  8
1
  6
Continuous
 62
     3
100
AcDbLine
 10
872.1340876008888
 20
646.4378357374847
 30
0.0
 11
852.1740644176082
 21
651.9565664489399
 31
0.0
  0
LINE
  5
1908
330
18B
100
AcDbEntity
  8
1
  6
Continuous
 62
     3
100
AcDbLine
 10
870.2578491925294
 20
645.9190760932123
 30
0.0
 11
852.1740644176082
 21
650.9190471603955
 31
0.0
  0
LINE
  5
1909
330
18B
100
AcDbEntity
  8
1
  6
Continuous
 62
     3
100
AcDbLine
 10
868.3816107841698
 20
645.40031644894
 30
0.0
 11
852.174064417608
 21
649.8815278718507
 31
0.0
  0
LINE
  5
190A
330
18B
100
AcDbEntity
  8
1
  6
Continuous
 62
     3
100
AcDbLine
 10
866.5053723758106
 20
644.8815568046677
 30
0.0
 11
852.1740644176082
 21
648.8440085833063
 31
0.0
  0
LINE
  5
190B
330
18B
100
AcDbEntity
  8
1
  6
Continuous
 62
     3
100
AcDbLine
 10
864.629133967451
 20
644.3627971603955
 30
0.0
 11
852.174064417608
 21
647.8064892947616
 31
0.0
  0
LINE
  5
190C
330
18B
100
AcDbEntity
  8
1
  6
Continuous
 62
     3
100
AcDbLine
 10
862.7528955590914
 20
643.844037516123
 30
0.0
 11
852.1740644176082
 21
646.7689700062171
 31
0.0
  0
LINE
  5
190D
330
18B
100
AcDbEntity
  8
1
  6
Continuous
 62
     3
100
AcDbLine
 10
860.8766571507318
 20
643.3252778718507
 30
0.0
 11
852.1740644176082
 21
645.7314507176723
 31
0.0
  0
LINE
  5
190E
330
18B
100
AcDbEntity
  8
1
  6
Continuous
 62
     3
100
AcDbLine
 10
859.0004187423723
 20
642.8065182275786
 30
0.0
 11
852.1740644176082
 21
644.6939314291279
 31
0.0
  0
LINE
  5
190F
330
18B
100
AcDbEntity
  8
1
  6
Continuous
 62
     3
100
AcDbLine
 10
857.1241803340127
 20
642.2877585833063
 30
0.0
 11
852.174064417608
 21
643.6564121405831
 31
0.0
  0
LINE
  5
1910
330
18B
100
AcDbEntity
  8
1
  6
Continuous
 62
     3
100
AcDbLine
 10
855.2479419256531
 20
641.7689989390337
 30
0.0
 11
852.174064417608
 21
642.6188928520387
 31
0.0
  0
LINE
  5
1911
330
18B
100
AcDbEntity
  8
1
  6
Continuous
 62
     3
100
AcDbLine
 10
853.3717035172937
 20
641.2502392947617
 30
0.0
 11
852.1740644176082
 21
641.581373563494
 31
0.0
  0
LINE
  5
1912
330
18B
100
AcDbEntity
  8
1
  6
Continuous
 62
     3
100
AcDbLine
 10
874.0103260092485
 20
647.9941146703017
 30
0.0
 11
852.174064417608
 21
641.956624314574
 31
0.0
  0
LINE
  5
1913
330
18B
100
AcDbEntity
  8
1
  6
Continuous
 62
     3
100
AcDbLine
 10
872.1340876008888
 20
648.512874314574
 30
0.0
 11
852.1740644176082
 21
642.9941436031182
 31
0.0
  0
LINE
  5
1914
330
18B
100
AcDbEntity
  8
1
  6
Continuous
 62
     3
100
AcDbLine
 10
870.2578491925292
 20
649.0316339588463
 30
0.0
 11
852.1740644176082
 21
644.0316628916632
 31
0.0
  0
LINE
  5
1915
330
18B
100
AcDbEntity
  8
1
  6
Continuous
 62
     3
100
AcDbLine
 10
868.3816107841698
 20
649.5503936031185
 30
0.0
 11
852.174064417608
 21
645.0691821802077
 31
0.0
  0
LINE
  5
1916
330
18B
100
AcDbEntity
  8
1
  6
Continuous
 62
     3
100
AcDbLine
 10
866.5053723758104
 20
650.0691532473908
 30
0.0
 11
852.1740644176082
 21
646.1067014687522
 31
0.0
  0
LINE
  5
1917
330
18B
100
AcDbEntity
  8
1
  6
Continuous
 62
     3
100
AcDbLine
 10
864.6291339674505
 20
650.5879128916631
 30
0.0
 11
852.1740644176082
 21
647.1442207572971
 31
0.0
  0
LINE
  5
1918
330
18B
100
AcDbEntity
  8
1
  6
Continuous
 62
     3
100
AcDbLine
 10
862.7528955590914
 20
651.1066725359353
 30
0.0
 11
852.174064417608
 21
648.1817400458416
 31
0.0
  0
LINE
  5
1919
330
18B
100
AcDbEntity
  8
1
  6
Continuous
 62
     3
100
AcDbLine
 10
860.8766571507318
 20
651.6254321802078
 30
0.0
 11
852.1740644176082
 21
649.2192593343863
 31
0.0
  0
LINE
  5
191A
330
18B
100
AcDbEntity
  8
1
  6
Continuous
 62
     3
100
AcDbLine
 10
859.0004187423723
 20
652.1441918244801
 30
0.0
 11
852.174064417608
 21
650.2567786229309
 31
0.0
  0
LINE
  5
191B
330
18B
100
AcDbEntity
  8
1
  6
Continuous
 62
     3
100
AcDbLine
 10
857.1241803340127
 20
652.6629514687522
 30
0.0
 11
852.1740644176082
 21
651.2942979114757
 31
0.0
  0
LINE
  5
191C
330
18B
100
AcDbEntity
  8
1
  6
Continuous
 62
     3
100
AcDbLine
 10
855.2479419256531
 20
653.1817111130248
 30
0.0
 11
852.1740644176082
 21
652.3318172000202
 31
0.0
  0
LINE
  5
191D
330
18B
100
AcDbEntity
  8
1
  6
Continuous
 62
     3
100
AcDbLine
 10
853.3717035172937
 20
653.700470757297
 30
0.0
 11
852.174064417608
 21
653.3693364885647
 31
0.0
  0
LINE
  5
194C
330
18B
100
AcDbEntity
  8
1
  6
Continuous
 62
     3
100
AcDbLine
 10
936.9083193104508
 20
647.4753550260293
 30
0.0
 11
960.6208193104507
 21
640.9191050260292
 31
0.0
  0
LINE
  5
194D
330
18B
100
AcDbEntity
  8
1
  6
Continuous
 62
     3
100
AcDbLine
 10
938.7845577188103
 20
647.9941146703017
 30
0.0
 11
960.6208193104507
 21
641.956624314574
 31
0.0
  0
LINE
  5
194E
330
18B
100
AcDbEntity
  8
1
  6
Continuous
 62
     3
100
AcDbLine
 10
940.6607961271699
 20
648.512874314574
 30
0.0
 11
960.6208193104507
 21
642.9941436031182
 31
0.0
  0
LINE
  5
194F
330
18B
100
AcDbEntity
  8
1
  6
Continuous
 62
     3
100
AcDbLine
 10
942.5370345355297
 20
649.0316339588463
 30
0.0
 11
960.6208193104507
 21
644.0316628916632
 31
0.0
  0
LINE
  5
1950
330
18B
100
AcDbEntity
  8
1
  6
Continuous
 62
     3
100
AcDbLine
 10
944.4132729438887
 20
649.5503936031185
 30
0.0
 11
960.6208193104507
 21
645.0691821802077
 31
0.0
  0
LINE
  5
1951
330
18B
100
AcDbEntity
  8
1
  6
Continuous
 62
     3
100
AcDbLine
 10
946.2895113522483
 20
650.0691532473908
 30
0.0
 11
960.6208193104507
 21
646.1067014687522
 31
0.0
  0
LINE
  5
1952
330
18B
100
AcDbEntity
  8
1
  6
Continuous
 62
     3
100
AcDbLine
 10
948.1657497606082
 20
650.5879128916631
 30
0.0
 11
960.6208193104507
 21
647.1442207572971
 31
0.0
  0
LINE
  5
1953
330
18B
100
AcDbEntity
  8
1
  6
Continuous
 62
     3
100
AcDbLine
 10
950.0419881689676
 20
651.1066725359353
 30
0.0
 11
960.6208193104507
 21
648.1817400458416
 31
0.0
  0
LINE
  5
1954
330
18B
100
AcDbEntity
  8
1
  6
Continuous
 62
     3
100
AcDbLine
 10
951.9182265773272
 20
651.6254321802078
 30
0.0
 11
960.6208193104507
 21
649.2192593343863
 31
0.0
  0
LINE
  5
1955
330
18B
100
AcDbEntity
  8
1
  6
Continuous
 62
     3
100
AcDbLine
 10
953.7944649856868
 20
652.1441918244801
 30
0.0
 11
960.6208193104507
 21
650.2567786229309
 31
0.0
  0
LINE
  5
1956
330
18B
100
AcDbEntity
  8
1
  6
Continuous
 62
     3
100
AcDbLine
 10
955.6707033940464
 20
652.6629514687522
 30
0.0
 11
960.6208193104507
 21
651.2942979114757
 31
0.0
  0
LINE
  5
1957
330
18B
100
AcDbEntity
  8
1
  6
Continuous
 62
     3
100
AcDbLine
 10
957.5469418024058
 20
653.1817111130248
 30
0.0
 11
960.6208193104507
 21
652.3318172000202
 31
0.0
  0
LINE
  5
1958
330
18B
100
AcDbEntity
  8
1
  6
Continuous
 62
     3
100
AcDbLine
 10
959.4231802107653
 20
653.700470757297
 30
0.0
 11
960.6208193104507
 21
653.3693364885647
 31
0.0
  0
LINE
  5
1959
330
18B
100
AcDbEntity
  8
1
  6
Continuous
 62
     3
100
AcDbLine
 10
936.9083193104508
 20
647.4753550260293
 30
0.0
 11
960.6208193104507
 21
654.0316050260294
 31
0.0
  0
LINE
  5
195A
330
18B
100
AcDbEntity
  8
1
  6
Continuous
 62
     3
100
AcDbLine
 10
938.7845577188103
 20
646.956595381757
 30
0.0
 11
960.6208193104507
 21
652.9940857374847
 31
0.0
  0
LINE
  5
195B
330
18B
100
AcDbEntity
  8
1
  6
Continuous
 62
     3
100
AcDbLine
 10
940.6607961271699
 20
646.4378357374847
 30
0.0
 11
960.6208193104507
 21
651.9565664489399
 31
0.0
  0
LINE
  5
195C
330
18B
100
AcDbEntity
  8
1
  6
Continuous
 62
     3
100
AcDbLine
 10
942.5370345355297
 20
645.9190760932123
 30
0.0
 11
960.6208193104507
 21
650.9190471603955
 31
0.0
  0
LINE
  5
195D
330
18B
100
AcDbEntity
  8
1
  6
Continuous
 62
     3
100
AcDbLine
 10
944.4132729438887
 20
645.40031644894
 30
0.0
 11
960.6208193104507
 21
649.8815278718507
 31
0.0
  0
LINE
  5
195E
330
18B
100
AcDbEntity
  8
1
  6
Continuous
 62
     3
100
AcDbLine
 10
946.2895113522483
 20
644.8815568046677
 30
0.0
 11
960.6208193104507
 21
648.8440085833063
 31
0.0
  0
LINE
  5
195F
330
18B
100
AcDbEntity
  8
1
  6
Continuous
 62
     3
100
AcDbLine
 10
948.1657497606081
 20
644.3627971603955
 30
0.0
 11
960.6208193104507
 21
647.8064892947616
 31
0.0
  0
LINE
  5
1960
330
18B
100
AcDbEntity
  8
1
  6
Continuous
 62
     3
100
AcDbLine
 10
950.0419881689676
 20
643.844037516123
 30
0.0
 11
960.6208193104507
 21
646.7689700062171
 31
0.0
  0
LINE
  5
1961
330
18B
100
AcDbEntity
  8
1
  6
Continuous
 62
     3
100
AcDbLine
 10
951.918226577327
 20
643.3252778718507
 30
0.0
 11
960.6208193104507
 21
645.7314507176723
 31
0.0
  0
LINE
  5
1962
330
18B
100
AcDbEntity
  8
1
  6
Continuous
 62
     3
100
AcDbLine
 10
953.7944649856868
 20
642.8065182275786
 30
0.0
 11
960.6208193104507
 21
644.6939314291279
 31
0.0
  0
LINE
  5
1963
330
18B
100
AcDbEntity
  8
1
  6
Continuous
 62
     3
100
AcDbLine
 10
955.6707033940464
 20
642.2877585833063
 30
0.0
 11
960.6208193104507
 21
643.6564121405831
 31
0.0
  0
LINE
  5
1964
330
18B
100
AcDbEntity
  8
1
  6
Continuous
 62
     3
100
AcDbLine
 10
957.5469418024058
 20
641.7689989390337
 30
0.0
 11
960.6208193104507
 21
642.6188928520387
 31
0.0
  0
LINE
  5
1965
330
18B
100
AcDbEntity
  8
1
  6
Continuous
 62
     3
100
AcDbLine
 10
959.4231802107653
 20
641.2502392947617
 30
0.0
 11
960.6208193104507
 21
641.581373563494
 31
0.0
  0
LINE
  5
1966
330
18B
100
AcDbEntity
  8
1
  6
Continuous
 62
     3
100
AcDbLine
 10
960.6208193104507
 20
640.9191050260292
 30
0.0
 11
960.6208193104507
 21
654.0316050260294
 31
0.0
  0
LINE
  5
1A75
330
18B
100
AcDbEntity
  8
0
  6
Continuous
 62
     7
100
AcDbLine
 10
1088.108741057596
 20
994.0316448168164
 30
0.0
 11
1071.288515485661
 21
984.8271048613201
 31
0.0
  0
LINE
  5
1A76
330
18B
100
AcDbEntity
  8
0
  6
Continuous
 62
     7
100
AcDbLine
 10
1071.288515485661
 20
984.8271048613201
 30
0.0
 11
1054.940195980939
 21
974.8083228268338
 31
0.0
  0
LINE
  5
1A77
330
18B
100
AcDbEntity
  8
0
  6
Continuous
 62
     7
100
AcDbLine
 10
1054.940195980939
 20
974.8083228268338
 30
0.0
 11
1039.103167077057
 21
963.9994348368203
 31
0.0
  0
LINE
  5
1A78
330
18B
100
AcDbEntity
  8
0
  6
Continuous
 62
     7
100
AcDbLine
 10
1039.103167077057
 20
963.9994348368203
 30
0.0
 11
1023.815581563805
 21
952.4264804491952
 31
0.0
  0
LINE
  5
1A79
330
18B
100
AcDbEntity
  8
0
  6
Continuous
 62
     7
100
AcDbLine
 10
1023.815581563805
 20
952.4264804491952
 30
0.0
 11
1009.114268573719
 21
940.1173399247484
 31
0.0
  0
LINE
  5
1A7A
330
18B
100
AcDbEntity
  8
0
  6
Continuous
 62
     7
100
AcDbLine
 10
1009.114268573719
 20
940.1173399247484
 30
0.0
 11
995.0346448574761
 21
927.1016670611571
 31
0.0
  0
LINE
  5
1A7B
330
18B
100
AcDbEntity
  8
0
  6
Continuous
 62
     7
100
AcDbLine
 10
995.0346448574761
 20
927.1016670611571
 30
0.0
 11
981.6106294618355
 21
913.4108177543875
 31
0.0
  0
LINE
  5
1A7C
330
18B
100
AcDbEntity
  8
0
  6
Continuous
 62
     7
100
AcDbLine
 10
981.6106294618355
 20
913.4108177543875
 30
0.0
 11
968.8745620156923
 21
899.0777744595973
 31
0.0
  0
LINE
  5
1A7D
330
18B
100
AcDbEntity
  8
0
  6
Continuous
 62
     7
100
AcDbLine
 10
968.8745620156923
 20
899.0777744595973
 30
0.0
 11
956.8571248210714
 21
884.1370667335091
 31
0.0
  0
LINE
  5
1A7E
330
18B
100
AcDbEntity
  8
0
  6
Continuous
 62
     7
100
AcDbLine
 10
956.8571248210714
 20
884.1370667335091
 30
0.0
 11
945.5872689367778
 21
868.6246880496872
 31
0.0
  0
LINE
  5
1A7F
330
18B
100
AcDbEntity
  8
0
  6
Continuous
 62
     7
100
AcDbLine
 10
945.5872689367778
 20
868.6246880496872
 30
0.0
 11
935.0921444327594
 21
852.5780090871041
 31
0.0
  0
LINE
  5
1A80
330
18B
100
AcDbEntity
  8
0
  6
Continuous
 62
     7
100
AcDbLine
 10
935.0921444327594
 20
852.5780090871041
 30
0.0
 11
925.397034983211
 21
836.0356877009044
 31
0.0
  0
LINE
  5
1A81
330
18B
100
AcDbEntity
  8
0
  6
Continuous
 62
     7
100
AcDbLine
 10
925.397034983211
 20
836.0356877009044
 30
0.0
 11
916.5252969559878
 21
819.0375757922431
 31
0.0
  0
LINE
  5
1A82
330
18B
100
AcDbEntity
  8
0
  6
Continuous
 62
     7
100
AcDbLine
 10
916.5252969559878
 20
819.0375757922431
 30
0.0
 11
908.4983031450695
 21
801.6246233015673
 31
0.0
  0
LINE
  5
1A83
330
18B
100
AcDbEntity
  8
0
  6
Continuous
 62
     7
100
AcDbLine
 10
908.4983031450695
 20
801.6246233015673
 30
0.0
 11
901.335391281629
 21
783.8387795566216
 31
0.0
  0
LINE
  5
1A84
330
18B
100
AcDbEntity
  8
0
  6
Continuous
 62
     7
100
AcDbLine
 10
901.335391281629
 20
783.8387795566216
 30
0.0
 11
895.0538174477417
 21
765.7228922128431
 31
0.0
  0
LINE
  5
1A85
330
18B
100
AcDbEntity
  8
0
  6
Continuous
 62
     7
100
AcDbLine
 10
895.0538174477417
 20
765.7228922128431
 30
0.0
 11
889.6687145049746
 21
747.3206040296076
 31
0.0
  0
LINE
  5
1A86
330
18B
100
AcDbEntity
  8
0
  6
Continuous
 62
     7
100
AcDbLine
 10
889.6687145049746
 20
747.3206040296076
 30
0.0
 11
885.1930556379956
 21
728.6762477309987
 31
0.0
  0
LINE
  5
1A87
330
18B
100
AcDbEntity
  8
0
  6
Continuous
 62
     7
100
AcDbLine
 10
885.1930556379956
 20
728.6762477309987
 30
0.0
 11
881.6376231010375
 21
709.8347392043922
 31
0.0
  0
LINE
  5
1A88
330
18B
100
AcDbEntity
  8
0
  6
Continuous
 62
     7
100
AcDbLine
 10
881.6376231010375
 20
709.8347392043922
 30
0.0
 11
879.0109822425003
 21
690.84146929415
 31
0.0
  0
LINE
  5
1A89
330
18B
100
AcDbEntity
  8
0
  6
Continuous
 62
     7
100
AcDbLine
 10
879.0109822425003
 20
690.84146929415
 30
0.0
 11
877.3194608702791
 21
671.7421944510999
 31
0.0
  0
LINE
  5
1A8A
330
18B
100
AcDbEntity
  8
0
  6
Continuous
 62
     7
100
AcDbLine
 10
877.3194608702791
 20
671.7421944510999
 30
0.0
 11
876.5671340075192
 21
652.5829265012377
 31
0.0
  0
LINE
  5
1A8B
330
18B
100
AcDbEntity
  8
0
  6
Continuous
 62
     7
100
AcDbLine
 10
876.5671340075192
 20
652.5829265012377
 30
0.0
 11
876.7558140755292
 21
633.4098217992082
 31
0.0
  0
LINE
  5
1A8C
330
18B
100
AcDbEntity
  8
0
  6
Continuous
 62
     7
100
AcDbLine
 10
876.7558140755292
 20
633.4098217992082
 30
0.0
 11
877.8850465274983
 21
614.2690700336044
 31
0.0
  0
LINE
  5
1A8D
330
18B
100
AcDbEntity
  8
0
  6
Continuous
 62
     7
100
AcDbLine
 10
877.8850465274983
 20
614.2690700336044
 30
0.0
 11
879.9521109435415
 21
595.2067829519612
 31
0.0
  0
LINE
  5
1A8E
330
18B
100
AcDbEntity
  8
0
  6
Continuous
 62
     7
100
AcDbLine
 10
879.9521109435415
 20
595.2067829519612
 30
0.0
 11
882.9520275844265
 21
576.2688832735177
 31
0.0
  0
LINE
  5
1A8F
330
18B
100
AcDbEntity
  8
0
  6
Continuous
 62
     7
100
AcDbLine
 10
882.9520275844265
 20
576.2688832735177
 30
0.0
 11
886.8775693882039
 21
557.5009940573634
 31
0.0
  0
LINE
  5
1A90
330
18B
100
AcDbEntity
  8
0
  6
Continuous
 62
     7
100
AcDbLine
 10
886.8775693882039
 20
557.5009940573634
 30
0.0
 11
891.7192793808316
 21
538.9483287924928
 31
0.0
  0
LINE
  5
1A91
330
18B
100
AcDbEntity
  8
0
  6
Continuous
 62
     7
100
AcDbLine
 10
891.7192793808316
 20
538.9483287924928
 30
0.0
 11
897.4654934588537
 21
520.6555824745504
 31
0.0
  0
LINE
  5
1A92
330
18B
100
AcDbEntity
  8
0
  6
Continuous
 62
     7
100
AcDbLine
 10
897.4654934588537
 20
520.6555824745504
 30
0.0
 11
904.1023684892468
 21
502.6668239316719
 31
0.0
  0
LINE
  5
1A93
330
18B
100
AcDbEntity
  8
0
  6
Continuous
 62
     7
100
AcDbLine
 10
904.1023684892468
 20
502.6668239316719
 30
0.0
 11
911.613915658742
 21
485.0253896588158
 31
0.0
  0
LINE
  5
1A94
330
18B
100
AcDbEntity
  8
0
  6
Continuous
 62
     7
100
AcDbLine
 10
911.613915658742
 20
485.0253896588158
 30
0.0
 11
919.9820389922736
 21
467.773779416353
 31
0.0
  0
LINE
  5
1A95
330
18B
100
AcDbEntity
  8
0
  6
Continuous
 62
     7
100
AcDbLine
 10
919.9820389922736
 20
467.773779416353
 30
0.0
 11
929.1865789477698
 21
450.9535538444197
 31
0.0
  0
LINE
  5
1A96
330
18B
100
AcDbEntity
  8
0
  6
Continuous
 62
     7
100
AcDbLine
 10
929.1865789477698
 20
450.9535538444197
 30
0.0
 11
939.2053609822564
 21
434.6052343396967
 31
0.0
  0
LINE
  5
1A97
330
18B
100
AcDbEntity
  8
0
  6
Continuous
 62
     7
100
AcDbLine
 10
939.2053609822564
 20
434.6052343396967
 30
0.0
 11
950.0142489722692
 21
418.7682054358146
 31
0.0
  0
LINE
  5
1A98
330
18B
100
AcDbEntity
  8
0
  6
Continuous
 62
     7
100
AcDbLine
 10
950.0142489722692
 20
418.7682054358146
 30
0.0
 11
961.5872033598943
 21
403.4806199225625
 31
0.0
  0
LINE
  5
1A99
330
18B
100
AcDbEntity
  8
0
  6
Continuous
 62
     7
100
AcDbLine
 10
961.5872033598943
 20
403.4806199225625
 30
0.0
 11
973.8963438843413
 21
388.7793069324766
 31
0.0
  0
LINE
  5
1A9A
330
18B
100
AcDbEntity
  8
0
  6
Continuous
 62
     7
100
AcDbLine
 10
973.8963438843413
 20
388.7793069324766
 30
0.0
 11
986.9120167479323
 21
374.6996832162325
 31
0.0
  0
LINE
  5
1A9B
330
18B
100
AcDbEntity
  8
0
  6
Continuous
 62
     7
100
AcDbLine
 10
986.9120167479323
 20
374.6996832162325
 30
0.0
 11
1000.602866054701
 21
361.2756678205923
 31
0.0
  0
LINE
  5
1A9C
330
18B
100
AcDbEntity
  8
0
  6
Continuous
 62
     7
100
AcDbLine
 10
1000.602866054701
 20
361.2756678205923
 30
0.0
 11
1014.935909349492
 21
348.5396003744487
 31
0.0
  0
LINE
  5
1A9D
330
18B
100
AcDbEntity
  8
0
  6
Continuous
 62
     7
100
AcDbLine
 10
1014.935909349492
 20
348.5396003744487
 30
0.0
 11
1029.87661707558
 21
336.5221631798278
 31
0.0
  0
LINE
  5
1A9E
330
18B
100
AcDbEntity
  8
0
  6
Continuous
 62
     7
100
AcDbLine
 10
1029.87661707558
 20
336.5221631798278
 30
0.0
 11
1045.388995759402
 21
325.2523072955338
 31
0.0
  0
LINE
  5
1A9F
330
18B
100
AcDbEntity
  8
0
  6
Continuous
 62
     7
100
AcDbLine
 10
1045.388995759402
 20
325.2523072955338
 30
0.0
 11
1061.435674721985
 21
314.7571827915156
 31
0.0
  0
LINE
  5
1AA0
330
18B
100
AcDbEntity
  8
0
  6
Continuous
 62
     7
100
AcDbLine
 10
1061.435674721985
 20
314.7571827915156
 30
0.0
 11
1077.977996108185
 21
305.0620733419672
 31
0.0
  0
LINE
  5
1AA1
330
18B
100
AcDbEntity
  8
0
  6
Continuous
 62
     7
100
AcDbLine
 10
1077.977996108185
 20
305.0620733419672
 30
0.0
 11
1094.976108016844
 21
296.1903353147436
 31
0.0
  0
LINE
  5
1AA2
330
18B
100
AcDbEntity
  8
0
  6
Continuous
 62
     7
100
AcDbLine
 10
1094.976108016844
 20
296.1903353147436
 30
0.0
 11
1112.389060507533
 21
288.1633415038208
 31
0.0
  0
LINE
  5
1AA3
330
18B
100
AcDbEntity
  8
0
  6
Continuous
 62
     7
100
AcDbLine
 10
1114.871761970306
 20
940.3406297488546
 30
0.0
 11
1100.653792409264
 21
932.5139621665593
 31
0.0
  0
LINE
  5
1AA4
330
18B
100
AcDbEntity
  8
0
  6
Continuous
 62
     7
100
AcDbLine
 10
1100.653792409264
 20
932.5139621665593
 30
0.0
 11
1086.83698539123
 21
923.9990794481157
 31
0.0
  0
LINE
  5
1AA5
330
18B
100
AcDbEntity
  8
0
  6
Continuous
 62
     7
100
AcDbLine
 10
1086.83698539123
 20
923.9990794481157
 30
0.0
 11
1073.454626814519
 21
914.8164946918083
 31
0.0
  0
LINE
  5
1AA6
330
18B
100
AcDbEntity
  8
0
  6
Continuous
 62
     7
100
AcDbLine
 10
1073.454626814519
 20
914.8164946918083
 30
0.0
 11
1060.538955953097
 21
904.9883295486154
 31
0.0
  0
LINE
  5
1AA7
330
18B
100
AcDbEntity
  8
0
  6
Continuous
 62
     7
100
AcDbLine
 10
1060.538955953097
 20
904.9883295486154
 30
0.0
 11
1048.12108778935
 21
894.5382609292114
 31
0.0
  0
LINE
  5
1AA8
330
18B
100
AcDbEntity
  8
0
  6
Continuous
 62
     7
100
AcDbLine
 10
1048.12108778935
 20
894.5382609292114
 30
0.0
 11
1036.23093805536
 21
883.4914639642191
 31
0.0
  0
LINE
  5
1AA9
330
18B
100
AcDbEntity
  8
0
  6
Continuous
 62
     7
100
AcDbLine
 10
1036.23093805536
 20
883.4914639642191
 30
0.0
 11
1024.897151163292
 21
871.8745513551121
 31
0.0
  0
LINE
  5
1AAA
330
18B
100
AcDbEntity
  8
0
  6
Continuous
 62
     7
100
AcDbLine
 10
1024.897151163292
 20
871.8745513551121
 30
0.0
 11
1014.14703119849
 21
859.7155092618871
 31
0.0
  0
LINE
  5
1AAB
330
18B
100
AcDbEntity
  8
0
  6
Continuous
 62
     7
100
AcDbLine
 10
1014.14703119849
 20
859.7155092618871
 30
0.0
 11
1004.006476141549
 21
847.043629881953
 31
0.0
  0
LINE
  5
1AAC
330
18B
100
AcDbEntity
  8
0
  6
Continuous
 62
     7
100
AcDbLine
 10
1004.006476141549
 20
847.043629881953
 30
0.0
 11
994.4999154778093
 21
833.8894408826615
 31
0.0
  0
LINE
  5
1AAD
330
18B
100
AcDbEntity
  8
0
  6
Continuous
 62
     7
100
AcDbLine
 10
994.4999154778093
 20
833.8894408826615
 30
0.0
 11
985.6502513445853
 21
820.2846318574827
 31
0.0
  0
LINE
  5
1AAE
330
18B
100
AcDbEntity
  8
0
  6
Continuous
 62
     7
100
AcDbLine
 10
985.6502513445853
 20
820.2846318574827
 30
0.0
 11
977.4788033579136
 21
806.2619779829988
 31
0.0
  0
LINE
  5
1AAF
330
18B
100
AcDbEntity
  8
0
  6
Continuous
 62
     7
100
AcDbLine
 10
977.4788033579136
 20
806.2619779829988
 30
0.0
 11
970.0052572517281
 21
791.8552610606335
 31
0.0
  0
LINE
  5
1AB0
330
18B
100
AcDbEntity
  8
0
  6
Continuous
 62
     7
100
AcDbLine
 10
970.0052572517281
 20
791.8552610606335
 30
0.0
 11
963.2476174532044
 21
777.0991881333312
 31
0.0
  0
LINE
  5
1AB1
330
18B
100
AcDbEntity
  8
0
  6
Continuous
 62
     7
100
AcDbLine
 10
963.2476174532044
 20
777.0991881333312
 30
0.0
 11
957.2221637085156
 21
762.0293078732537
 31
0.0
  0
LINE
  5
1AB2
330
18B
100
AcDbEntity
  8
0
  6
Continuous
 62
     7
100
AcDbLine
 10
957.2221637085156
 20
762.0293078732537
 30
0.0
 11
951.9434118635013
 21
746.6819249419131
 31
0.0
  0
LINE
  5
1AB3
330
18B
100
AcDbEntity
  8
0
  6
Continuous
 62
     7
100
AcDbLine
 10
951.9434118635013
 20
746.6819249419131
 30
0.0
 11
947.4240788937192
 21
731.0940125290628
 31
0.0
  0
LINE
  5
1AB4
330
18B
100
AcDbEntity
  8
0
  6
Continuous
 62
     7
100
AcDbLine
 10
947.4240788937192
 20
731.0940125290628
 30
0.0
 11
943.6750522681407
 21
715.3031232810453
 31
0.0
  0
LINE
  5
1AB5
330
18B
100
AcDbEntity
  8
0
  6
Continuous
 62
     7
100
AcDbLine
 10
943.6750522681407
 20
715.3031232810453
 30
0.0
 11
940.705363720283
 21
699.3472988331772
 31
0.0
  0
LINE
  5
1AB6
330
18B
100
AcDbEntity
  8
0
  6
Continuous
 62
     7
100
AcDbLine
 10
940.705363720283
 20
699.3472988331772
 30
0.0
 11
938.5221674899714
 21
683.2649781641196
 31
0.0
  0
LINE
  5
1AB7
330
18B
100
AcDbEntity
  8
0
  6
Continuous
 62
     7
100
AcDbLine
 10
938.5221674899714
 20
683.2649781641196
 30
0.0
 11
937.1307230881503
 21
667.0949049930083
 31
0.0
  0
LINE
  5
1AB8
330
18B
100
AcDbEntity
  8
0
  6
Continuous
 62
     7
100
AcDbLine
 10
937.1307230881503
 20
667.0949049930083
 30
0.0
 11
936.5343826262598
 21
650.8760344424437
 31
0.0
  0
LINE
  5
1AB9
330
18B
100
AcDbEntity
  8
0
  6
Continuous
 62
     7
100
AcDbLine
 10
936.5343826262598
 20
650.8760344424437
 30
0.0
 11
936.7345827407062
 21
634.647439192188
 31
0.0
  0
LINE
  5
1ABA
330
18B
100
AcDbEntity
  8
0
  6
Continuous
 62
     7
100
AcDbLine
 10
936.7345827407062
 20
634.647439192188
 30
0.0
 11
937.7308411318781
 21
618.4482153496555
 31
0.0
  0
LINE
  5
1ABB
330
18B
100
AcDbEntity
  8
0
  6
Continuous
 62
     7
100
AcDbLine
 10
937.7308411318781
 20
618.4482153496555
 30
0.0
 11
939.5207577260487
 21
602.3173882639675
 31
0.0
  0
LINE
  5
1ABC
330
18B
100
AcDbEntity
  8
0
  6
Continuous
 62
     7
100
AcDbLine
 10
939.5207577260487
 20
602.3173882639675
 30
0.0
 11
942.1000204573655
 21
586.293818510467
 31
0.0
  0
LINE
  5
1ABD
330
18B
100
AcDbEntity
  8
0
  6
Continuous
 62
     7
100
AcDbLine
 10
942.1000204573655
 20
586.293818510467
 30
0.0
 11
945.4624156559912
 21
570.4161082721892
 31
0.0
  0
LINE
  5
1ABE
330
18B
100
AcDbEntity
  8
0
  6
Continuous
 62
     7
100
AcDbLine
 10
945.4624156559912
 20
570.4161082721892
 30
0.0
 11
949.5998430173814
 21
554.7225083438213
 31
0.0
  0
LINE
  5
1ABF
330
18B
100
AcDbEntity
  8
0
  6
Continuous
 62
     7
100
AcDbLine
 10
949.5998430173814
 20
554.7225083438213
 30
0.0
 11
954.5023351166273
 21
539.2508259821876
 31
0.0
  0
LINE
  5
1AC0
330
18B
100
AcDbEntity
  8
0
  6
Continuous
 62
     7
100
AcDbLine
 10
954.5023351166273
 20
539.2508259821876
 30
0.0
 11
960.1580814208535
 21
524.0383338252566
 31
0.0
  0
LINE
  5
1AC1
330
18B
100
AcDbEntity
  8
0
  6
Continuous
 62
     7
100
AcDbLine
 10
960.1580814208535
 20
524.0383338252566
 30
0.0
 11
966.5534567418283
 21
509.1216800990913
 31
0.0
  0
LINE
  5
1AC2
330
18B
100
AcDbEntity
  8
0
  6
Continuous
 62
     7
100
AcDbLine
 10
966.5534567418283
 20
509.1216800990913
 30
0.0
 11
973.6730540602351
 21
494.5368003290631
 31
0.0
  0
LINE
  5
1AC3
330
18B
100
AcDbEntity
  8
0
  6
Continuous
 62
     7
100
AcDbLine
 10
973.6730540602351
 20
494.5368003290631
 30
0.0
 11
981.4997216425309
 21
480.3188307680218
 31
0.0
  0
LINE
  5
1AC4
330
18B
100
AcDbEntity
  8
0
  6
Continuous
 62
     7
100
AcDbLine
 10
981.4997216425309
 20
480.3188307680218
 30
0.0
 11
990.0146043609744
 21
466.5020237499873
 31
0.0
  0
LINE
  5
1AC5
330
18B
100
AcDbEntity
  8
0
  6
Continuous
 62
     7
100
AcDbLine
 10
990.0146043609744
 20
466.5020237499873
 30
0.0
 11
999.1971891172811
 21
453.1196651732756
 31
0.0
  0
LINE
  5
1AC6
330
18B
100
AcDbEntity
  8
0
  6
Continuous
 62
     7
100
AcDbLine
 10
999.1971891172811
 20
453.1196651732756
 30
0.0
 11
1009.025354260474
 21
440.2039943118539
 31
0.0
  0
LINE
  5
1AC7
330
18B
100
AcDbEntity
  8
0
  6
Continuous
 62
     7
100
AcDbLine
 10
1009.025354260474
 20
440.2039943118539
 30
0.0
 11
1019.475422879877
 21
427.7861261481066
 31
0.0
  0
LINE
  5
1AC8
330
18B
100
AcDbEntity
  8
0
  6
Continuous
 62
     7
100
AcDbLine
 10
1019.475422879877
 20
427.7861261481066
 30
0.0
 11
1030.52221984487
 21
415.8959764141171
 31
0.0
  0
LINE
  5
1AC9
330
18B
100
AcDbEntity
  8
0
  6
Continuous
 62
     7
100
AcDbLine
 10
1030.52221984487
 20
415.8959764141171
 30
0.0
 11
1042.139132453977
 21
404.5621895220486
 31
0.0
  0
LINE
  5
1ACA
330
18B
100
AcDbEntity
  8
0
  6
Continuous
 62
     7
100
AcDbLine
 10
1042.139132453977
 20
404.5621895220486
 30
0.0
 11
1054.298174547202
 21
393.8120695572466
 31
0.0
  0
LINE
  5
1ACB
330
18B
100
AcDbEntity
  8
0
  6
Continuous
 62
     7
100
AcDbLine
 10
1054.298174547202
 20
393.8120695572466
 30
0.0
 11
1066.970053927134
 21
383.6715145003056
 31
0.0
  0
LINE
  5
1ACC
330
18B
100
AcDbEntity
  8
0
  6
Continuous
 62
     7
100
AcDbLine
 10
1066.970053927134
 20
383.6715145003056
 30
0.0
 11
1080.124242926427
 21
374.1649538365654
 31
0.0
  0
LINE
  5
1ACD
330
18B
100
AcDbEntity
  8
0
  6
Continuous
 62
     7
100
AcDbLine
 10
1080.124242926427
 20
374.1649538365654
 30
0.0
 11
1093.729051951606
 21
365.3152897033413
 31
0.0
  0
LINE
  5
1ACE
330
18B
100
AcDbEntity
  8
0
  6
Continuous
 62
     7
100
AcDbLine
 10
1093.729051951606
 20
365.3152897033413
 30
0.0
 11
1107.75170582609
 21
357.1438417166696
 31
0.0
  0
LINE
  5
1ACF
330
18B
100
AcDbEntity
  8
0
  6
Continuous
 62
     7
100
AcDbLine
 10
1107.75170582609
 20
357.1438417166696
 30
0.0
 11
1122.158422748456
 21
349.6702956104841
 31
0.0
  0
LINE
  5
1AD0
330
18B
100
AcDbEntity
  8
0
  6
Continuous
 62
     7
100
AcDbLine
 10
1122.158422748456
 20
349.6702956104841
 30
0.0
 11
1136.914495675767
 21
342.9126558119558
 31
0.0
  0
LINE
  5
1ADC
330
18B
100
AcDbEntity
  8
-1
  6
Continuous
 62
     2
100
AcDbLine
 10
765.1400927045979
 20
667.6341421271409
 30
0.0
 11
775.1400927045978
 21
667.6341421271409
 31
0.0
  0
ENDSEC
  0
SECTION
  2
OBJECTS
  0
DICTIONARY
  5
17F
330
0
100
AcDbDictionary
281
     1
  3
ACAD_COLOR
350
1519
  3
ACAD_GROUP
350
180
  3
ACAD_LAYOUT
350
96F
  3
ACAD_MATERIAL
350
14EC
  3
ACAD_MLEADERSTYLE
350
153E
  3
ACAD_MLINESTYLE
350
18E
  3
ACAD_PLOTSETTINGS
350
970
  3
ACAD_PLOTSTYLENAME
350
96D
  3
ACAD_SCALELIST
350
151C
  3
ACAD_TABLESTYLE
350
151A
  3
ACAD_VISUALSTYLE
350
1505
  3
ACDB_RECOMPOSE_DATA
350
1A2C
  3
AcDbVariableDictionary
350
1555
  3
DWGPROPS
350
1A2D
  0
DICTIONARY
  5
154B
330
181
100
AcDbDictionary
280
     1
281
     1
  3
ADSK_XREC_LAYER_RECONCILED
360
154C
  0
DICTIONARY
  5
154D
330
19A
100
AcDbDictionary
280
     1
281
     1
  3
ADSK_XREC_LAYER_RECONCILED
360
154E
  0
DICTIONARY
  5
154F
330
19B
100
AcDbDictionary
280
     1
281
     1
  3
ADSK_XREC_LAYER_RECONCILED
360
1550
  0
DICTIONARY
  5
1551
330
7D0
100
AcDbDictionary
280
     1
281
     1
  3
ADSK_XREC_LAYER_RECONCILED
360
1552
  0
DICTIONARY
  5
1553
330
1455
100
AcDbDictionary
280
     1
281
     1
  3
ADSK_XREC_LAYER_RECONCILED
360
1554
  0
DICTIONARY
  5
BEF
330
18B
100
AcDbDictionary
280
     1
281
     1
  3
ACAD_LAYOUTSELFREF
360
1441
  3
ACAD_SORTENTS
360
1748
  0
DICTIONARY
  5
BED
330
188
100
AcDbDictionary
280
     1
281
     1
  3
ACAD_LAYOUTSELFREF
360
1440
  0
DICTIONARY
  5
1519
102
{ACAD_REACTORS
330
17F
102
}
330
17F
100
AcDbDictionary
281
     1
  0
DICTIONARY
  5
180
102
{ACAD_REACTORS
330
17F
102
}
330
17F
100
AcDbDictionary
281
     1
  0
DICTIONARY
  5
96F
102
{ACAD_REACTORS
330
17F
102
}
330
17F
100
AcDbDictionary
281
     1
  3
Layout1
350
1446
  3
Model
350
1445
  0
DICTIONARY
  5
14EC
102
{ACAD_REACTORS
330
17F
102
}
330
17F
100
AcDbDictionary
281
     1
  3
ByBlock
350
14F5
  3
ByLayer
350
14ED
  3
Global
350
14FD
  0
DICTIONARY
  5
153E
102
{ACAD_REACTORS
330
17F
102
}
330
17F
100
AcDbDictionary
281
     1
  3
Standard
350
153F
  0
DICTIONARY
  5
18E
102
{ACAD_REACTORS
330
17F
102
}
330
17F
100
AcDbDictionary
281
     1
  3
STANDARD
350
18F
  0
DICTIONARY
  5
970
102
{ACAD_REACTORS
330
17F
102
}
330
17F
100
AcDbDictionary
281
     1
  0
ACDBDICTIONARYWDFLT
  5
96D
102
{ACAD_REACTORS
330
17F
102
}
330
17F
100
AcDbDictionary
281
     1
  3
Normal
350
96E
100
AcDbDictionaryWithDefault
340
96E
  0
DICTIONARY
  5
151C
102
{ACAD_REACTORS
330
17F
102
}
330
17F
100
AcDbDictionary
281
     1
  3
A0
350
151D
  3
A1
350
151E
  3
A2
350
151F
  3
A3
350
1520
  3
A4
350
1521
  3
A5
350
1522
  3
A6
350
1523
  3
A7
350
1524
  3
A8
350
1525
  3
A9
350
1526
  3
B0
350
1527
  3
B1
350
1528
  3
B2
350
1529
  3
B3
350
152A
  3
B4
350
152B
  3
B5
350
152C
  3
B6
350
152D
  3
B7
350
152E
  3
B8
350
152F
  3
B9
350
1530
  3
C0
350
1531
  3
C1
350
1532
  3
C2
350
1533
  3
C3
350
1534
  3
C4
350
1535
  3
C5
350
1536
  3
C6
350
1537
  3
C7
350
1538
  3
C8
350
1539
  3
C9
350
153A
  3
D0
350
153B
  3
D1
350
153C
  3
D2
350
153D
  0
DICTIONARY
  5
151A
102
{ACAD_REACTORS
330
17F
102
}
330
17F
100
AcDbDictionary
281
     1
  3
Standard
350
151B
  0
DICTIONARY
  5
1505
102
{ACAD_REACTORS
330
17F
102
}
330
17F
100
AcDbDictionary
281
     1
  3
2dWireframe
350
150B
  3
3D Hidden
350
150D
  3
3dWireframe
350
150C
  3
Basic
350
150A
  3
Brighten
350
1511
  3
ColorChange
350
1515
  3
Conceptual
350
150E
  3
Dim
350
1510
  3
EdgeColorOff
350
1518
  3
Facepattern
350
1514
  3
Flat
350
1506
  3
FlatWithEdges
350
1507
  3
Gouraud
350
1508
  3
GouraudWithEdges
350
1509
  3
JitterOff
350
1516
  3
Linepattern
350
1513
  3
OverhangOff
350
1517
  3
Realistic
350
150F
  3
Thicken
350
1512
  0
XRECORD
  5
1A2C
102
{ACAD_REACTORS
330
17F
102
}
330
17F
100
AcDbXrecord
280
     1
 90
        1
330
151B
  0
DICTIONARY
  5
1555
102
{ACAD_REACTORS
330
17F
102
}
330
17F
100
AcDbDictionary
281
     1
  3
CANNOSCALE
350
1558
  3
CMLEADERSTYLE
350
1557
  3
CTABLESTYLE
350
1556
  3
DIMASSOC
350
155B
  3
INDEXCTL
350
155A
  3
SORTENTS
350
1559
  3
XCLIPFRAME
350
19CE
  0
XRECORD
  5
1A2D
102
{ACAD_REACTORS
330
17F
102
}
330
17F
100
AcDbXrecord
280
     1
  1
DWGPROPS COOKIE
  2

  3

  4

  6

  7

  8
John
  9

300
=
301
=
302
=
303
=
304
=
305
=
306
=
307
=
308
=
309
=
 40
1.256090300925924
 41
2451288.305757986
 42
2456751.516844051
  1

 90
        0
  0
XRECORD
  5
154C
102
{ACAD_REACTORS
330
154B
102
}
330
154B
100
AcDbXrecord
280
     1
290
     1
  0
XRECORD
  5
154E
102
{ACAD_REACTORS
330
154D
102
}
330
154D
100
AcDbXrecord
280
     1
290
     1
  0
XRECORD
  5
1550
102
{ACAD_REACTORS
330
154F
102
}
330
154F
100
AcDbXrecord
280
     1
290
     1
  0
XRECORD
  5
1552
102
{ACAD_REACTORS
330
1551
102
}
330
1551
100
AcDbXrecord
280
     1
290
     1
  0
XRECORD
  5
1554
102
{ACAD_REACTORS
330
1553
102
}
330
1553
100
AcDbXrecord
280
     1
290
     1
  0
XRECORD
  5
1441
102
{ACAD_REACTORS
330
BEF
102
}
330
BEF
100
AcDbXrecord
280
     1
340
18B
  0
SORTENTSTABLE
  5
1748
102
{ACAD_REACTORS
330
BEF
102
}
330
BEF
100
AcDbSortentsTable
330
18B
331
1666
  5
16AE
331
16A6
  5
180A
331
1668
  5
16B0
331
16A8
  5
18CA
331
166A
  5
16B2
331
16AA
  5
18CD
331
16AC
  5
18CF
331
166C
  5
16B4
331
16AE
  5
18D1
331
166E
  5
16B6
331
1670
  5
16B8
331
1672
  5
16BA
331
14AA
  5
14AA
331
14AC
  5
14AC
331
1676
  5
16BD
331
14B0
  5
1673
331
1911
  5
1697
331
1913
  5
1664
331
1915
  5
166A
331
1917
  5
166C
331
1919
  5
166E
331
191B
  5
1670
331
191D
  5
1672
331
180F
  5
1918
331
1709
  5
1912
331
170B
  5
1914
331
170D
  5
1916
331
170F
  5
1919
331
1711
  5
191C
331
1907
  5
1675
331
1909
  5
1678
331
190B
  5
167A
331
190D
  5
1693
331
1747
  5
16A5
331
190F
  5
1695
331
1749
  5
16A7
331
144B
  5
144B
331
16B1
  5
18D4
331
16B3
  5
18D6
331
16B5
  5
1906
331
16B7
  5
1908
331
1679
  5
16C1
331
16B9
  5
190A
331
16BB
  5
190C
331
16BD
  5
190D
331
16BF
  5
190F
331
1691
  5
16C2
331
1693
  5
170B
331
1695
  5
170D
331
165D
  5
16A1
331
1697
  5
170F
331
165F
  5
16A6
331
1661
  5
16A9
331
16A1
  5
1712
331
1663
  5
16AB
331
1665
  5
16AD
331
16A5
  5
1809
331
1667
  5
16AF
331
16A7
  5
180B
331
1669
  5
16B1
331
16A9
  5
18CC
331
166B
  5
16B3
331
16AB
  5
18CE
331
166D
  5
16B5
331
16AD
  5
18D0
331
166F
  5
16B7
331
16AF
  5
18D2
331
14E7
  5
16A0
331
1671
  5
16B9
331
14AB
  5
14AB
331
1673
  5
16BB
331
1675
  5
16BC
331
14AF
  5
14AF
331
1677
  5
16BF
331
14B1
  5
1698
331
1910
  5
1696
331
1912
  5
165F
331
1914
  5
1669
331
1916
  5
166B
331
1918
  5
166D
331
191A
  5
166F
331
191C
  5
1671
331
180E
  5
191A
331
1810
  5
191D
331
1708
  5
1911
331
170A
  5
1913
331
170C
  5
1915
331
170E
  5
1917
331
1710
  5
191B
331
1906
  5
1674
331
1908
  5
1677
331
190A
  5
1679
331
190C
  5
167B
331
190E
  5
1694
331
1698
  5
1710
331
16B0
  5
18D3
331
16B2
  5
18D5
331
16B4
  5
18D7
331
16B6
  5
1907
331
1678
  5
16C0
331
16B8
  5
1909
331
16BA
  5
190B
331
16BE
  5
190E
331
16C0
  5
1910
331
1692
  5
170A
331
1694
  5
170C
331
165E
  5
16A4
331
1696
  5
170E
331
1660
  5
16A8
331
16A0
  5
1711
331
1662
  5
16AA
331
1664
  5
16AC
331
16A4
  5
1713
  0
XRECORD
  5
1440
102
{ACAD_REACTORS
330
BED
102
}
330
BED
100
AcDbXrecord
280
     1
340
188
  0
LAYOUT
  5
1446
102
{ACAD_XDICTIONARY
360
1A30
102
}
102
{ACAD_REACTORS
330
96F
102
}
330
96F
100
AcDbPlotSettings
  1

  2
HP Deskjet 3740 Series
  4

  6

 40
0.0
 41
0.0
 42
0.0
 43
0.0
 44
0.0
 45
0.0
 46
0.0
 47
0.0
 48
0.0
 49
0.0
140
0.0
141
0.0
142
1.0
143
1.0
 70
   688
 72
     0
 73
     0
 74
     5
  7

 75
    16
147
1.0
148
0.0
149
0.0
100
AcDbLayout
  1
Layout1
 70
     1
 71
     1
 10
0.0
 20
0.0
 11
12.0
 21
9.0
 12
0.0
 22
0.0
 32
0.0
 14
-1.000000000000000E+20
 24
-1.000000000000000E+20
 34
-1.000000000000000E+20
 15
-1.000000000000000E+20
 25
-1.000000000000000E+20
 35
-1.000000000000000E+20
146
0.0
 13
0.0
 23
0.0
 33
0.0
 16
1.0
 26
0.0
 36
0.0
 17
0.0
 27
1.0
 37
0.0
 76
     0
330
188
  0
LAYOUT
  5
1445
102
{ACAD_XDICTIONARY
360
1A2E
102
}
102
{ACAD_REACTORS
330
96F
102
}
330
96F
100
AcDbPlotSettings
  1

  2
HP Deskjet 3740 Series
  4

  6

 40
0.0
 41
0.0
 42
0.0
 43
0.0
 44
0.0
 45
0.0
 46
0.0
 47
0.0
 48
0.0
 49
0.0
140
0.0
141
0.0
142
1.0
143
1.0
 70
  1712
 72
     0
 73
     0
 74
     0
  7

 75
     0
147
1.0
148
0.0
149
0.0
100
AcDbLayout
  1
Model
 70
     1
 71
     0
 10
0.0
 20
0.0
 11
12.0
 21
9.0
 12
0.0
 22
0.0
 32
0.0
 14
0.0
 24
0.0
 34
0.0
 15
0.0
 25
0.0
 35
0.0
146
0.0
 13
0.0
 23
0.0
 33
0.0
 16
1.0
 26
0.0
 36
0.0
 17
0.0
 27
1.0
 37
0.0
 76
     0
330
18B
331
14E8
  0
MATERIAL
  5
14F5
102
{ACAD_XDICTIONARY
360
14F6
102
}
102
{ACAD_REACTORS
330
14EC
102
}
330
14EC
100
AcDbMaterial
  1
ByBlock
 72
     0
 43
0.0208333333333333
 43
0.0
 43
0.0
 43
0.0
 43
0.0
 43
0.0208333333333333
 43
0.0
 43
0.0
 43
0.0
 43
0.0
 43
1.0
 43
0.0
 43
0.0
 43
0.0
 43
0.0
 43
1.0
 77
     0
 47
0.0208333333333333
 47
0.0
 47
0.0
 47
0.0
 47
0.0
 47
0.0208333333333333
 47
0.0
 47
0.0
 47
0.0
 47
0.0
 47
1.0
 47
0.0
 47
0.0
 47
0.0
 47
0.0
 47
1.0
171
     0
 49
0.0208333333333333
 49
0.0
 49
0.0
 49
0.0
 49
0.0
 49
0.0208333333333333
 49
0.0
 49
0.0
 49
0.0
 49
0.0
 49
1.0
 49
0.0
 49
0.0
 49
0.0
 49
0.0
 49
1.0
175
     0
142
0.0208333333333333
142
0.0
142
0.0
142
0.0
142
0.0
142
0.0208333333333333
142
0.0
142
0.0
142
0.0
142
0.0
142
1.0
142
0.0
142
0.0
142
0.0
142
0.0
142
1.0
179
     0
144
0.0208333333333333
144
0.0
144
0.0
144
0.0
144
0.0
144
0.0208333333333333
144
0.0
144
0.0
144
0.0
144
0.0
144
1.0
144
0.0
144
0.0
144
0.0
144
0.0
144
1.0
147
0.0208333333333333
147
0.0
147
0.0
147
0.0
147
0.0
147
0.0208333333333333
147
0.0
147
0.0
147
0.0
147
0.0
147
1.0
147
0.0
147
0.0
147
0.0
147
0.0
147
1.0
  0
MATERIAL
  5
14ED
102
{ACAD_XDICTIONARY
360
14EE
102
}
102
{ACAD_REACTORS
330
14EC
102
}
330
14EC
100
AcDbMaterial
  1
ByLayer
 72
     0
 43
0.0208333333333333
 43
0.0
 43
0.0
 43
0.0
 43
0.0
 43
0.0208333333333333
 43
0.0
 43
0.0
 43
0.0
 43
0.0
 43
1.0
 43
0.0
 43
0.0
 43
0.0
 43
0.0
 43
1.0
 77
     0
 47
0.0208333333333333
 47
0.0
 47
0.0
 47
0.0
 47
0.0
 47
0.0208333333333333
 47
0.0
 47
0.0
 47
0.0
 47
0.0
 47
1.0
 47
0.0
 47
0.0
 47
0.0
 47
0.0
 47
1.0
171
     0
 49
0.0208333333333333
 49
0.0
 49
0.0
 49
0.0
 49
0.0
 49
0.0208333333333333
 49
0.0
 49
0.0
 49
0.0
 49
0.0
 49
1.0
 49
0.0
 49
0.0
 49
0.0
 49
0.0
 49
1.0
175
     0
142
0.0208333333333333
142
0.0
142
0.0
142
0.0
142
0.0
142
0.0208333333333333
142
0.0
142
0.0
142
0.0
142
0.0
142
1.0
142
0.0
142
0.0
142
0.0
142
0.0
142
1.0
179
     0
144
0.0208333333333333
144
0.0
144
0.0
144
0.0
144
0.0
144
0.0208333333333333
144
0.0
144
0.0
144
0.0
144
0.0
144
1.0
144
0.0
144
0.0
144
0.0
144
0.0
144
1.0
147
0.0208333333333333
147
0.0
147
0.0
147
0.0
147
0.0
147
0.0208333333333333
147
0.0
147
0.0
147
0.0
147
0.0
147
1.0
147
0.0
147
0.0
147
0.0
147
0.0
147
1.0
  0
MATERIAL
  5
14FD
102
{ACAD_XDICTIONARY
360
14FE
102
}
102
{ACAD_REACTORS
330
14EC
102
}
330
14EC
100
AcDbMaterial
  1
Global
 72
     0
 43
0.0208333333333333
 43
0.0
 43
0.0
 43
0.0
 43
0.0
 43
0.0208333333333333
 43
0.0
 43
0.0
 43
0.0
 43
0.0
 43
1.0
 43
0.0
 43
0.0
 43
0.0
 43
0.0
 43
1.0
 77
     0
 47
0.0208333333333333
 47
0.0
 47
0.0
 47
0.0
 47
0.0
 47
0.0208333333333333
 47
0.0
 47
0.0
 47
0.0
 47
0.0
 47
1.0
 47
0.0
 47
0.0
 47
0.0
 47
0.0
 47
1.0
171
     0
 49
0.0208333333333333
 49
0.0
 49
0.0
 49
0.0
 49
0.0
 49
0.0208333333333333
 49
0.0
 49
0.0
 49
0.0
 49
0.0
 49
1.0
 49
0.0
 49
0.0
 49
0.0
 49
0.0
 49
1.0
175
     0
142
0.0208333333333333
142
0.0
142
0.0
142
0.0
142
0.0
142
0.0208333333333333
142
0.0
142
0.0
142
0.0
142
0.0
142
1.0
142
0.0
142
0.0
142
0.0
142
0.0
142
1.0
179
     0
144
0.0208333333333333
144
0.0
144
0.0
144
0.0
144
0.0
144
0.0208333333333333
144
0.0
144
0.0
144
0.0
144
0.0
144
1.0
144
0.0
144
0.0
144
0.0
144
0.0
144
1.0
147
0.0208333333333333
147
0.0
147
0.0
147
0.0
147
0.0
147
0.0208333333333333
147
0.0
147
0.0
147
0.0
147
0.0
147
1.0
147
0.0
147
0.0
147
0.0
147
0.0
147
1.0
  0
MLEADERSTYLE
  5
153F
102
{ACAD_REACTORS
330
153E
102
}
330
153E
100
AcDbMLeaderStyle
170
     2
171
     1
172
     0
 90
        2
 40
0.0
 41
0.0
173
     1
 91
-1056964608
340
185
 92
       -2
290
     1
 42
0.09
291
     1
 43
0.36
  3
Standard
 44
0.18
300

342
182
174
     1
178
     6
175
     1
176
     0
 93
-1056964608
 45
0.18
292
     0
297
     0
 46
0.18
 94
-1056964608
 47
1.0
 49
1.0
140
1.0
293
     1
141
0.0
294
     1
177
     0
142
1.0
295
     0
296
     0
143
0.125
1001
ACAD_MLEADERVER
1070
     2
  0
MLINESTYLE
  5
18F
102
{ACAD_REACTORS
330
18E
102
}
330
18E
100
AcDbMlineStyle
  2
STANDARD
 70
     0
  3

 62
   256
 51
90.0
 52
90.0
 71
     2
 49
0.5
 62
   256
  6
BYLAYER
 49
-0.5
 62
   256
  6
BYLAYER
  0
ACDBPLACEHOLDER
  5
96E
102
{ACAD_REACTORS
330
96D
102
}
330
96D
  0
SCALE
  5
151D
102
{ACAD_REACTORS
330
151C
102
}
330
151C
100
AcDbScale
 70
     0
300
1:1
140
1.0
141
1.0
290
     1
  0
SCALE
  5
151E
102
{ACAD_REACTORS
330
151C
102
}
330
151C
100
AcDbScale
 70
     0
300
1:2
140
1.0
141
2.0
290
     0
  0
SCALE
  5
151F
102
{ACAD_REACTORS
330
151C
102
}
330
151C
100
AcDbScale
 70
     0
300
1:4
140
1.0
141
4.0
290
     0
  0
SCALE
  5
1520
102
{ACAD_REACTORS
330
151C
102
}
330
151C
100
AcDbScale
 70
     0
300
1:5
140
1.0
141
5.0
290
     0
  0
SCALE
  5
1521
102
{ACAD_REACTORS
330
151C
102
}
330
151C
100
AcDbScale
 70
     0
300
1:8
140
1.0
141
8.0
290
     0
  0
SCALE
  5
1522
102
{ACAD_REACTORS
330
151C
102
}
330
151C
100
AcDbScale
 70
     0
300
1:10
140
1.0
141
10.0
290
     0
  0
SCALE
  5
1523
102
{ACAD_REACTORS
330
151C
102
}
330
151C
100
AcDbScale
 70
     0
300
1:16
140
1.0
141
16.0
290
     0
  0
SCALE
  5
1524
102
{ACAD_REACTORS
330
151C
102
}
330
151C
100
AcDbScale
 70
     0
300
1:20
140
1.0
141
20.0
290
     0
  0
SCALE
  5
1525
102
{ACAD_REACTORS
330
151C
102
}
330
151C
100
AcDbScale
 70
     0
300
1:30
140
1.0
141
30.0
290
     0
  0
SCALE
  5
1526
102
{ACAD_REACTORS
330
151C
102
}
330
151C
100
AcDbScale
 70
     0
300
1:40
140
1.0
141
40.0
290
     0
  0
SCALE
  5
1527
102
{ACAD_REACTORS
330
151C
102
}
330
151C
100
AcDbScale
 70
     0
300
1:50
140
1.0
141
50.0
290
     0
  0
SCALE
  5
1528
102
{ACAD_REACTORS
330
151C
102
}
330
151C
100
AcDbScale
 70
     0
300
1:100
140
1.0
141
100.0
290
     0
  0
SCALE
  5
1529
102
{ACAD_REACTORS
330
151C
102
}
330
151C
100
AcDbScale
 70
     0
300
2:1
140
2.0
141
1.0
290
     0
  0
SCALE
  5
152A
102
{ACAD_REACTORS
330
151C
102
}
330
151C
100
AcDbScale
 70
     0
300
4:1
140
4.0
141
1.0
290
     0
  0
SCALE
  5
152B
102
{ACAD_REACTORS
330
151C
102
}
330
151C
100
AcDbScale
 70
     0
300
8:1
140
8.0
141
1.0
290
     0
  0
SCALE
  5
152C
102
{ACAD_REACTORS
330
151C
102
}
330
151C
100
AcDbScale
 70
     0
300
10:1
140
10.0
141
1.0
290
     0
  0
SCALE
  5
152D
102
{ACAD_REACTORS
330
151C
102
}
330
151C
100
AcDbScale
 70
     0
300
100:1
140
100.0
141
1.0
290
     0
  0
SCALE
  5
152E
102
{ACAD_REACTORS
330
151C
102
}
330
151C
100
AcDbScale
 70
     0
300
1/128" = 1'-0"
140
0.0078125
141
12.0
290
     0
  0
SCALE
  5
152F
102
{ACAD_REACTORS
330
151C
102
}
330
151C
100
AcDbScale
 70
     0
300
1/64" = 1'-0"
140
0.015625
141
12.0
290
     0
  0
SCALE
  5
1530
102
{ACAD_REACTORS
330
151C
102
}
330
151C
100
AcDbScale
 70
     0
300
1/32" = 1'-0"
140
0.03125
141
12.0
290
     0
  0
SCALE
  5
1531
102
{ACAD_REACTORS
330
151C
102
}
330
151C
100
AcDbScale
 70
     0
300
1/16" = 1'-0"
140
0.0625
141
12.0
290
     0
  0
SCALE
  5
1532
102
{ACAD_REACTORS
330
151C
102
}
330
151C
100
AcDbScale
 70
     0
300
3/32" = 1'-0"
140
0.09375
141
12.0
290
     0
  0
SCALE
  5
1533
102
{ACAD_REACTORS
330
151C
102
}
330
151C
100
AcDbScale
 70
     0
300
1/8" = 1'-0"
140
0.125
141
12.0
290
     0
  0
SCALE
  5
1534
102
{ACAD_REACTORS
330
151C
102
}
330
151C
100
AcDbScale
 70
     0
300
3/16" = 1'-0"
140
0.1875
141
12.0
290
     0
  0
SCALE
  5
1535
102
{ACAD_REACTORS
330
151C
102
}
330
151C
100
AcDbScale
 70
     0
300
1/4" = 1'-0"
140
0.25
141
12.0
290
     0
  0
SCALE
  5
1536
102
{ACAD_REACTORS
330
151C
102
}
330
151C
100
AcDbScale
 70
     0
300
3/8" = 1'-0"
140
0.375
141
12.0
290
     0
  0
SCALE
  5
1537
102
{ACAD_REACTORS
330
151C
102
}
330
151C
100
AcDbScale
 70
     0
300
1/2" = 1'-0"
140
0.5
141
12.0
290
     0
  0
SCALE
  5
1538
102
{ACAD_REACTORS
330
151C
102
}
330
151C
100
AcDbScale
 70
     0
300
3/4" = 1'-0"
140
0.75
141
12.0
290
     0
  0
SCALE
  5
1539
102
{ACAD_REACTORS
330
151C
102
}
330
151C
100
AcDbScale
 70
     0
300
1" = 1'-0"
140
1.0
141
12.0
290
     0
  0
SCALE
  5
153A
102
{ACAD_REACTORS
330
151C
102
}
330
151C
100
AcDbScale
 70
     0
300
1-1/2" = 1'-0"
140
1.5
141
12.0
290
     0
  0
SCALE
  5
153B
102
{ACAD_REACTORS
330
151C
102
}
330
151C
100
AcDbScale
 70
     0
300
3" = 1'-0"
140
3.0
141
12.0
290
     0
  0
SCALE
  5
153C
102
{ACAD_REACTORS
330
151C
102
}
330
151C
100
AcDbScale
 70
     0
300
6" = 1'-0"
140
6.0
141
12.0
290
     0
  0
SCALE
  5
153D
102
{ACAD_REACTORS
330
151C
102
}
330
151C
100
AcDbScale
 70
     0
300
1'-0" = 1'-0"
140
12.0
141
12.0
290
     0
  0
TABLESTYLE
  5
151B
102
{ACAD_XDICTIONARY
360
155D
102
}
102
{ACAD_REACTORS
330
151A
102
}
330
151A
100
AcDbTableStyle
  3
Standard
 70
     0
 71
     0
 40
0.06
 41
0.06
280
     0
281
     0
  7
STANDARD
140
0.18
170
     2
 62
     0
 63
     7
283
     0
274
    -2
284
     1
 64
     0
275
    -2
285
     1
 65
     0
276
    -2
286
     1
 66
     0
277
    -2
287
     1
 67
     0
278
    -2
288
     1
 68
     0
279
    -2
289
     1
 69
     0
  7
STANDARD
140
0.25
170
     5
 62
     0
 63
     7
283
     0
274
    -2
284
     1
 64
     0
275
    -2
285
     1
 65
     0
276
    -2
286
     1
 66
     0
277
    -2
287
     1
 67
     0
278
    -2
288
     1
 68
     0
279
    -2
289
     1
 69
     0
  7
STANDARD
140
0.18
170
     5
 62
     0
 63
     7
283
     0
274
    -2
284
     1
 64
     0
275
    -2
285
     1
 65
     0
276
    -2
286
     1
 66
     0
277
    -2
287
     1
 67
     0
278
    -2
288
     1
 68
     0
279
    -2
289
     1
 69
     0
  0
VISUALSTYLE
  5
150B
102
{ACAD_XDICTIONARY
360
1A3C
102
}
102
{ACAD_REACTORS
330
1505
102
}
330
1505
100
AcDbVisualStyle
  2

 70
     4
 71
     0
 72
     2
 73
     0
 90
        0
 40
-0.6
 41
-30.0
 62
     5
 63
     7
 74
     1
 91
        4
 64
     7
 65
   257
 75
     1
175
     1
 42
1.0
 92
        0
 66
   257
 43
1.0
 76
     1
 77
     6
 78
     2
 67
     7
 79
     5
170
     0
171
     0
290
     0
174
     0
 93
        1
 44
0.0
173
     0
291
     0
 45
0.0
1001
ACAD
1000
AcDbSavedByObjectVersion
1070
     0
  0
VISUALSTYLE
  5
150D
102
{ACAD_XDICTIONARY
360
1A40
102
}
102
{ACAD_REACTORS
330
1505
102
}
330
1505
100
AcDbVisualStyle
  2

 70
     6
 71
     1
 72
     2
 73
     2
 90
        0
 40
-0.6
 41
-30.0
 62
     5
 63
     7
 74
     2
 91
        2
 64
     7
 65
   257
 75
     2
175
     1
 42
179.0
 92
        0
 66
   257
 43
1.0
 76
     1
 77
     6
 78
     2
 67
     7
 79
     3
170
     0
171
     0
290
     0
174
     0
 93
        1
 44
0.0
173
     0
291
     0
 45
0.0
1001
ACAD
1000
AcDbSavedByObjectVersion
1070
     0
  0
VISUALSTYLE
  5
150C
102
{ACAD_XDICTIONARY
360
1A3E
102
}
102
{ACAD_REACTORS
330
1505
102
}
330
1505
100
AcDbVisualStyle
  2

 70
     5
 71
     0
 72
     2
 73
     0
 90
        0
 40
-0.6
 41
-30.0
 62
     5
 63
     7
 74
     1
 91
        4
 64
     7
 65
   257
 75
     1
175
     1
 42
1.0
 92
        0
 66
   257
 43
1.0
 76
     1
 77
     6
 78
     2
 67
     7
 79
     5
170
     0
171
     0
290
     0
174
     0
 93
        1
 44
0.0
173
     0
291
     0
 45
0.0
1001
ACAD
1000
AcDbSavedByObjectVersion
1070
     0
  0
VISUALSTYLE
  5
150A
102
{ACAD_XDICTIONARY
360
1A3A
102
}
102
{ACAD_REACTORS
330
1505
102
}
330
1505
100
AcDbVisualStyle
  2

 70
     7
 71
     1
 72
     0
 73
     1
 90
        0
 40
-0.6
 41
-30.0
 62
     5
 63
     7
 74
     0
 91
        4
 64
     7
 65
   257
 75
     1
175
     1
 42
1.0
 92
        8
 66
     7
 43
1.0
 76
     1
 77
     6
 78
     2
 67
     7
 79
     5
170
     0
171
     0
290
     0
174
     0
 93
        1
 44
0.0
173
     0
291
     1
 45
0.0
1001
ACAD
1000
AcDbSavedByObjectVersion
1070
     0
  0
VISUALSTYLE
  5
1511
102
{ACAD_XDICTIONARY
360
1A48
102
}
102
{ACAD_REACTORS
330
1505
102
}
330
1505
100
AcDbVisualStyle
  2

 70
    12
 71
     2
 72
     2
 73
     0
 90
        0
 40
-0.6
 41
-30.0
 62
     5
 63
     7
 74
     1
 91
        4
 64
     7
 65
   257
 75
     1
175
     1
 42
1.0
 92
        8
 66
     7
 43
1.0
 76
     1
 77
     6
 78
     2
 67
     7
 79
     5
170
     0
171
     0
290
     0
174
     0
 93
        1
 44
50.0
173
     0
291
     1
 45
0.0
1001
ACAD
1000
AcDbSavedByObjectVersion
1070
     0
  0
VISUALSTYLE
  5
1515
102
{ACAD_XDICTIONARY
360
1A50
102
}
102
{ACAD_REACTORS
330
1505
102
}
330
1505
100
AcDbVisualStyle
  2

 70
    16
 71
     2
 72
     2
 73
     3
 90
        0
 40
-0.6
 41
-30.0
 62
     5
 63
     8
 74
     1
 91
        4
 64
     7
 65
   257
 75
     1
175
     1
 42
1.0
 92
        8
 66
     8
 43
1.0
 76
     1
 77
     6
 78
     2
 67
     7
 79
     5
170
     0
171
     0
290
     0
174
     0
 93
        1
 44
0.0
173
     0
291
     1
 45
0.0
1001
ACAD
1000
AcDbSavedByObjectVersion
1070
     0
  0
VISUALSTYLE
  5
150E
102
{ACAD_XDICTIONARY
360
1A42
102
}
102
{ACAD_REACTORS
330
1505
102
}
330
1505
100
AcDbVisualStyle
  2

 70
     9
 71
     3
 72
     2
 73
     0
 90
        0
 40
-0.6
 41
-30.0
 62
     5
 63
     7
 74
     2
 91
        2
 64
     7
 65
   257
 75
     1
175
     1
 42
179.0
 92
        8
 66
     7
 43
1.0
 76
     1
 77
     6
 78
     2
 67
     7
 79
     3
170
     0
171
     0
290
     0
174
     0
 93
        1
 44
0.0
173
     0
291
     0
 45
0.0
1001
ACAD
1000
AcDbSavedByObjectVersion
1070
     0
  0
VISUALSTYLE
  5
1510
102
{ACAD_XDICTIONARY
360
1A46
102
}
102
{ACAD_REACTORS
330
1505
102
}
330
1505
100
AcDbVisualStyle
  2

 70
    11
 71
     2
 72
     2
 73
     0
 90
        0
 40
-0.6
 41
-30.0
 62
     5
 63
     7
 74
     1
 91
        4
 64
     7
 65
   257
 75
     1
175
     1
 42
1.0
 92
        8
 66
     7
 43
1.0
 76
     1
 77
     6
 78
     2
 67
     7
 79
     5
170
     0
171
     0
290
     0
174
     0
 93
        1
 44
-50.0
173
     0
291
     1
 45
0.0
1001
ACAD
1000
AcDbSavedByObjectVersion
1070
     0
  0
VISUALSTYLE
  5
1518
102
{ACAD_XDICTIONARY
360
1A56
102
}
102
{ACAD_REACTORS
330
1505
102
}
330
1505
100
AcDbVisualStyle
  2

 70
    22
 71
     2
 72
     2
 73
     0
 90
        0
 40
-0.6
 41
-30.0
 62
     5
 63
     7
 74
     1
 91
        4
 64
     7
 65
   257
 75
     1
175
     1
 42
1.0
 92
        8
 66
     7
 43
1.0
 76
     1
 77
     6
 78
     2
 67
     7
 79
     5
170
     0
171
     0
290
     0
174
     0
 93
        1
 44
0.0
173
     0
291
     1
 45
0.0
1001
ACAD
1000
AcDbSavedByObjectVersion
1070
     0
  0
VISUALSTYLE
  5
1514
102
{ACAD_XDICTIONARY
360
1A4E
102
}
102
{ACAD_REACTORS
330
1505
102
}
330
1505
100
AcDbVisualStyle
  2

 70
    15
 71
     2
 72
     2
 73
     0
 90
        0
 40
-0.6
 41
-30.0
 62
     5
 63
     7
 74
     1
 91
        4
 64
     7
 65
   257
 75
     1
175
     1
 42
1.0
 92
        8
 66
     7
 43
1.0
 76
     1
 77
     6
 78
     2
 67
     7
 79
     5
170
     0
171
     0
290
     0
174
     0
 93
        1
 44
0.0
173
     0
291
     1
 45
0.0
1001
ACAD
1000
AcDbSavedByObjectVersion
1070
     0
  0
VISUALSTYLE
  5
1506
102
{ACAD_XDICTIONARY
360
1A32
102
}
102
{ACAD_REACTORS
330
1505
102
}
330
1505
100
AcDbVisualStyle
  2

 70
     0
 71
     2
 72
     1
 73
     1
 90
        2
 40
-0.6
 41
30.0
 62
     5
 63
     7
 74
     0
 91
        4
 64
     7
 65
   257
 75
     1
175
     1
 42
1.0
 92
        8
 66
     7
 43
1.0
 76
     1
 77
     6
 78
     2
 67
     7
 79
     5
170
     0
171
     0
290
     0
174
     0
 93
       13
 44
0.0
173
     0
291
     1
 45
0.0
1001
ACAD
1000
AcDbSavedByObjectVersion
1070
     0
  0
VISUALSTYLE
  5
1507
102
{ACAD_XDICTIONARY
360
1A34
102
}
102
{ACAD_REACTORS
330
1505
102
}
330
1505
100
AcDbVisualStyle
  2

 70
     1
 71
     2
 72
     1
 73
     1
 90
        2
 40
-0.6
 41
30.0
 62
     5
 63
     7
 74
     1
 91
        4
 64
     7
 65
   257
 75
     1
175
     1
 42
1.0
 92
        0
 66
   257
 43
1.0
 76
     1
 77
     6
 78
     2
 67
     7
 79
     5
170
     0
171
     0
290
     0
174
     0
 93
       13
 44
0.0
173
     0
291
     1
 45
0.0
1001
ACAD
1000
AcDbSavedByObjectVersion
1070
     0
  0
VISUALSTYLE
  5
1508
102
{ACAD_XDICTIONARY
360
1A36
102
}
102
{ACAD_REACTORS
330
1505
102
}
330
1505
100
AcDbVisualStyle
  2

 70
     2
 71
     2
 72
     2
 73
     1
 90
        2
 40
-0.6
 41
30.0
 62
     5
 63
     7
 74
     0
 91
        4
 64
     7
 65
   257
 75
     1
175
     1
 42
1.0
 92
        0
 66
     7
 43
1.0
 76
     1
 77
     6
 78
     2
 67
     7
 79
     5
170
     0
171
     0
290
     0
174
     0
 93
       13
 44
0.0
173
     0
291
     1
 45
0.0
1001
ACAD
1000
AcDbSavedByObjectVersion
1070
     0
  0
VISUALSTYLE
  5
1509
102
{ACAD_XDICTIONARY
360
1A38
102
}
102
{ACAD_REACTORS
330
1505
102
}
330
1505
100
AcDbVisualStyle
  2

 70
     3
 71
     2
 72
     2
 73
     1
 90
        2
 40
-0.6
 41
30.0
 62
     5
 63
     7
 74
     1
 91
        4
 64
     7
 65
   257
 75
     1
175
     1
 42
1.0
 92
        0
 66
   257
 43
1.0
 76
     1
 77
     6
 78
     2
 67
     7
 79
     5
170
     0
171
     0
290
     0
174
     0
 93
       13
 44
0.0
173
     0
291
     1
 45
0.0
1001
ACAD
1000
AcDbSavedByObjectVersion
1070
     0
  0
VISUALSTYLE
  5
1516
102
{ACAD_XDICTIONARY
360
1A52
102
}
102
{ACAD_REACTORS
330
1505
102
}
330
1505
100
AcDbVisualStyle
  2

 70
    20
 71
     2
 72
     2
 73
     0
 90
        0
 40
-0.6
 41
-30.0
 62
     5
 63
     7
 74
     1
 91
        4
 64
     7
 65
   257
 75
     1
175
     1
 42
1.0
 92
       10
 66
     7
 43
1.0
 76
     1
 77
     6
 78
     2
 67
     7
 79
     5
170
     0
171
     0
290
     0
174
     0
 93
        1
 44
0.0
173
     0
291
     1
 45
0.0
1001
ACAD
1000
AcDbSavedByObjectVersion
1070
     0
  0
VISUALSTYLE
  5
1513
102
{ACAD_XDICTIONARY
360
1A4C
102
}
102
{ACAD_REACTORS
330
1505
102
}
330
1505
100
AcDbVisualStyle
  2

 70
    14
 71
     2
 72
     2
 73
     0
 90
        0
 40
-0.6
 41
-30.0
 62
     5
 63
     7
 74
     1
 91
        4
 64
     7
 65
   257
 75
     7
175
     7
 42
1.0
 92
        8
 66
     7
 43
1.0
 76
     1
 77
     6
 78
     2
 67
     7
 79
     5
170
     0
171
     0
290
     0
174
     0
 93
        1
 44
0.0
173
     0
291
     1
 45
0.0
1001
ACAD
1000
AcDbSavedByObjectVersion
1070
     0
  0
VISUALSTYLE
  5
1517
102
{ACAD_XDICTIONARY
360
1A54
102
}
102
{ACAD_REACTORS
330
1505
102
}
330
1505
100
AcDbVisualStyle
  2

 70
    21
 71
     2
 72
     2
 73
     0
 90
        0
 40
-0.6
 41
-30.0
 62
     5
 63
     7
 74
     1
 91
        4
 64
     7
 65
   257
 75
     1
175
     1
 42
1.0
 92
        9
 66
     7
 43
1.0
 76
     1
 77
     6
 78
     2
 67
     7
 79
     5
170
     0
171
     0
290
     0
174
     0
 93
        1
 44
0.0
173
     0
291
     1
 45
0.0
1001
ACAD
1000
AcDbSavedByObjectVersion
1070
     0
  0
VISUALSTYLE
  5
150F
102
{ACAD_XDICTIONARY
360
1A44
102
}
102
{ACAD_REACTORS
330
1505
102
}
330
1505
100
AcDbVisualStyle
  2

 70
     8
 71
     2
 72
     2
 73
     0
 90
        0
 40
-0.6
 41
-30.0
 62
     5
 63
     7
 74
     1
 91
        0
 64
     7
 65
   257
 75
     1
175
     1
 42
1.0
 92
        8
 66
     8
 43
1.0
 76
     1
 77
     6
 78
     2
 67
     7
 79
     5
170
     0
171
     0
290
     0
174
     0
 93
       13
 44
0.0
173
     0
291
     0
 45
0.0
1001
ACAD
1000
AcDbSavedByObjectVersion
1070
     0
  0
VISUALSTYLE
  5
1512
102
{ACAD_XDICTIONARY
360
1A4A
102
}
102
{ACAD_REACTORS
330
1505
102
}
330
1505
100
AcDbVisualStyle
  2

 70
    13
 71
     2
 72
     2
 73
     0
 90
        0
 40
-0.6
 41
-30.0
 62
     5
 63
     7
 74
     1
 91
        4
 64
     7
 65
   257
 75
     1
175
     1
 42
1.0
 92
       12
 66
     7
 43
1.0
 76
     1
 77
     6
 78
     2
 67
     7
 79
     5
170
     0
171
     0
290
     0
174
     0
 93
        1
 44
0.0
173
     0
291
     1
 45
0.0
1001
ACAD
1000
AcDbSavedByObjectVersion
1070
     0
  0
DICTIONARYVAR
  5
1558
102
{ACAD_REACTORS
330
1555
102
}
330
1555
100
DictionaryVariables
280
     0
  1
1:1
  0
DICTIONARYVAR
  5
1557
102
{ACAD_REACTORS
330
1555
102
}
330
1555
100
DictionaryVariables
280
     0
  1
STANDARD
  0
DICTIONARYVAR
  5
1556
102
{ACAD_REACTORS
330
1555
102
}
330
1555
100
DictionaryVariables
280
     0
  1
STANDARD
  0
DICTIONARYVAR
  5
155B
102
{ACAD_REACTORS
330
1555
102
}
330
1555
100
DictionaryVariables
280
     0
  1
1
  0
DICTIONARYVAR
  5
155A
102
{ACAD_REACTORS
330
1555
102
}
330
1555
100
DictionaryVariables
280
     0
  1
0
  0
DICTIONARYVAR
  5
1559
102
{ACAD_REACTORS
330
1555
102
}
330
1555
100
DictionaryVariables
280
     0
  1
127
  0
DICTIONARYVAR
  5
19CE
102
{ACAD_REACTORS
330
1555
102
}
330
1555
100
DictionaryVariables
280
     0
  1
2
  0
DICTIONARY
  5
1A30
330
1446
100
AcDbDictionary
280
     1
281
     1
  3
ACAD_XREC_ROUNDTRIP
360
1A31
  0
DICTIONARY
  5
1A2E
330
1445
100
AcDbDictionary
280
     1
281
     1
  3
ACAD_XREC_ROUNDTRIP
360
1A2F
  0
DICTIONARY
  5
14F6
330
14F5
100
AcDbDictionary
280
     1
281
     1
  3
ACAD_XREC_ROUNDTRIP
360
1566
  3
BUMPTILE
360
14F8
  3
DIFFUSETILE
360
14F7
  3
OPACITYTILE
360
14FB
  3
REFLECTIONTILE
360
14FA
  3
REFRACTIONTILE
360
14FC
  3
SPECULARTILE
360
14F9
  0
DICTIONARY
  5
14EE
330
14ED
100
AcDbDictionary
280
     1
281
     1
  3
ACAD_XREC_ROUNDTRIP
360
1565
  3
BUMPTILE
360
14F0
  3
DIFFUSETILE
360
14EF
  3
OPACITYTILE
360
14F3
  3
REFLECTIONTILE
360
14F2
  3
REFRACTIONTILE
360
14F4
  3
SPECULARTILE
360
14F1
  0
DICTIONARY
  5
14FE
330
14FD
100
AcDbDictionary
280
     1
281
     1
  3
ACAD_XREC_ROUNDTRIP
360
1567
  3
BUMPTILE
360
1500
  3
DIFFUSETILE
360
14FF
  3
OPACITYTILE
360
1503
  3
REFLECTIONTILE
360
1502
  3
REFRACTIONTILE
360
1504
  3
SPECULARTILE
360
1501
  0
DICTIONARY
  5
155D
330
151B
100
AcDbDictionary
280
     1
281
     1
  3
ACAD_ROUNDTRIP_2008_TABLESTYLE_CELLSTYLEMAP
360
1A2B
  3
ACAD_XREC_ROUNDTRIP
360
1A58
  0
DICTIONARY
  5
1A3C
330
150B
100
AcDbDictionary
280
     1
281
     1
  3
ACAD_XREC_ROUNDTRIP
360
1A3D
  0
DICTIONARY
  5
1A40
330
150D
100
AcDbDictionary
280
     1
281
     1
  3
ACAD_XREC_ROUNDTRIP
360
1A41
  0
DICTIONARY
  5
1A3E
330
150C
100
AcDbDictionary
280
     1
281
     1
  3
ACAD_XREC_ROUNDTRIP
360
1A3F
  0
DICTIONARY
  5
1A3A
330
150A
100
AcDbDictionary
280
     1
281
     1
  3
ACAD_XREC_ROUNDTRIP
360
1A3B
  0
DICTIONARY
  5
1A48
330
1511
100
AcDbDictionary
280
     1
281
     1
  3
ACAD_XREC_ROUNDTRIP
360
1A49
  0
DICTIONARY
  5
1A50
330
1515
100
AcDbDictionary
280
     1
281
     1
  3
ACAD_XREC_ROUNDTRIP
360
1A51
  0
DICTIONARY
  5
1A42
330
150E
100
AcDbDictionary
280
     1
281
     1
  3
ACAD_XREC_ROUNDTRIP
360
1A43
  0
DICTIONARY
  5
1A46
330
1510
100
AcDbDictionary
280
     1
281
     1
  3
ACAD_XREC_ROUNDTRIP
360
1A47
  0
DICTIONARY
  5
1A56
330
1518
100
AcDbDictionary
280
     1
281
     1
  3
ACAD_XREC_ROUNDTRIP
360
1A57
  0
DICTIONARY
  5
1A4E
330
1514
100
AcDbDictionary
280
     1
281
     1
  3
ACAD_XREC_ROUNDTRIP
360
1A4F
  0
DICTIONARY
  5
1A32
330
1506
100
AcDbDictionary
280
     1
281
     1
  3
ACAD_XREC_ROUNDTRIP
360
1A33
  0
DICTIONARY
  5
1A34
330
1507
100
AcDbDictionary
280
     1
281
     1
  3
ACAD_XREC_ROUNDTRIP
360
1A35
  0
DICTIONARY
  5
1A36
330
1508
100
AcDbDictionary
280
     1
281
     1
  3
ACAD_XREC_ROUNDTRIP
360
1A37
  0
DICTIONARY
  5
1A38
330
1509
100
AcDbDictionary
280
     1
281
     1
  3
ACAD_XREC_ROUNDTRIP
360
1A39
  0
DICTIONARY
  5
1A52
330
1516
100
AcDbDictionary
280
     1
281
     1
  3
ACAD_XREC_ROUNDTRIP
360
1A53
  0
DICTIONARY
  5
1A4C
330
1513
100
AcDbDictionary
280
     1
281
     1
  3
ACAD_XREC_ROUNDTRIP
360
1A4D
  0
DICTIONARY
  5
1A54
330
1517
100
AcDbDictionary
280
     1
281
     1
  3
ACAD_XREC_ROUNDTRIP
360
1A55
  0
DICTIONARY
  5
1A44
330
150F
100
AcDbDictionary
280
     1
281
     1
  3
ACAD_XREC_ROUNDTRIP
360
1A45
  0
DICTIONARY
  5
1A4A
330
1512
100
AcDbDictionary
280
     1
281
     1
  3
ACAD_XREC_ROUNDTRIP
360
1A4B
  0
XRECORD
  5
1A31
102
{ACAD_REACTORS
330
1A30
102
}
330
1A30
100
AcDbXrecord
280
     1
102
SHADEPLOT
 70
     0
102
SHADEPLOTRESLEVEL
 70
     2
102
SHADEPLOTCUSTOMDPI
 70
   300
  0
XRECORD
  5
1A2F
102
{ACAD_REACTORS
330
1A2E
102
}
330
1A2E
100
AcDbXrecord
280
     1
102
SHADEPLOT
 70
     0
102
SHADEPLOTRESLEVEL
 70
     2
102
SHADEPLOTCUSTOMDPI
 70
   300
  0
XRECORD
  5
1566
102
{ACAD_REACTORS
330
14F6
102
}
330
14F6
100
AcDbXrecord
280
     1
102
MATERIAL
148
0.0
149
0.0
149
0.0
 93
        0
 94
      127
282
     0
 72
     0
 77
     0
171
     0
175
     0
179
     0
273
     0
  0
XRECORD
  5
14F8
102
{ACAD_REACTORS
330
14F6
102
}
330
14F6
100
AcDbXrecord
280
     1
270
     1
271
     1
  0
XRECORD
  5
14F7
102
{ACAD_REACTORS
330
14F6
102
}
330
14F6
100
AcDbXrecord
280
     1
270
     1
271
     1
  0
XRECORD
  5
14FB
102
{ACAD_REACTORS
330
14F6
102
}
330
14F6
100
AcDbXrecord
280
     1
270
     1
271
     1
  0
XRECORD
  5
14FA
102
{ACAD_REACTORS
330
14F6
102
}
330
14F6
100
AcDbXrecord
280
     1
270
     1
271
     1
  0
XRECORD
  5
14FC
102
{ACAD_REACTORS
330
14F6
102
}
330
14F6
100
AcDbXrecord
280
     1
270
     1
271
     1
  0
XRECORD
  5
14F9
102
{ACAD_REACTORS
330
14F6
102
}
330
14F6
100
AcDbXrecord
280
     1
270
     1
271
     1
  0
XRECORD
  5
1565
102
{ACAD_REACTORS
330
14EE
102
}
330
14EE
100
AcDbXrecord
280
     1
102
MATERIAL
148
0.0
149
0.0
149
0.0
 93
        0
 94
      127
282
     0
 72
     0
 77
     0
171
     0
175
     0
179
     0
273
     0
  0
XRECORD
  5
14F0
102
{ACAD_REACTORS
330
14EE
102
}
330
14EE
100
AcDbXrecord
280
     1
270
     1
271
     1
  0
XRECORD
  5
14EF
102
{ACAD_REACTORS
330
14EE
102
}
330
14EE
100
AcDbXrecord
280
     1
270
     1
271
     1
  0
XRECORD
  5
14F3
102
{ACAD_REACTORS
330
14EE
102
}
330
14EE
100
AcDbXrecord
280
     1
270
     1
271
     1
  0
XRECORD
  5
14F2
102
{ACAD_REACTORS
330
14EE
102
}
330
14EE
100
AcDbXrecord
280
     1
270
     1
271
     1
  0
XRECORD
  5
14F4
102
{ACAD_REACTORS
330
14EE
102
}
330
14EE
100
AcDbXrecord
280
     1
270
     1
271
     1
  0
XRECORD
  5
14F1
102
{ACAD_REACTORS
330
14EE
102
}
330
14EE
100
AcDbXrecord
280
     1
270
     1
271
     1
  0
XRECORD
  5
1567
102
{ACAD_REACTORS
330
14FE
102
}
330
14FE
100
AcDbXrecord
280
     1
102
MATERIAL
148
0.0
149
0.0
149
0.0
 93
        0
 94
      127
282
     0
 72
     0
 77
     0
171
     0
175
     0
179
     0
273
     0
  0
XRECORD
  5
1500
102
{ACAD_REACTORS
330
14FE
102
}
330
14FE
100
AcDbXrecord
280
     1
270
     1
271
     1
  0
XRECORD
  5
14FF
102
{ACAD_REACTORS
330
14FE
102
}
330
14FE
100
AcDbXrecord
280
     1
270
     1
271
     1
  0
XRECORD
  5
1503
102
{ACAD_REACTORS
330
14FE
102
}
330
14FE
100
AcDbXrecord
280
     1
270
     1
271
     1
  0
XRECORD
  5
1502
102
{ACAD_REACTORS
330
14FE
102
}
330
14FE
100
AcDbXrecord
280
     1
270
     1
271
     1
  0
XRECORD
  5
1504
102
{ACAD_REACTORS
330
14FE
102
}
330
14FE
100
AcDbXrecord
280
     1
270
     1
271
     1
  0
XRECORD
  5
1501
102
{ACAD_REACTORS
330
14FE
102
}
330
14FE
100
AcDbXrecord
280
     1
270
     1
271
     1
  0
CELLSTYLEMAP
  5
1A2B
102
{ACAD_REACTORS
330
155D
102
}
330
155D
100
AcDbCellStyleMap
 90
        3
300
CELLSTYLE
  1
TABLEFORMAT_BEGIN
 90
        5
170
     1
 91
        0
 92
    32768
 62
   257
 93
        1
300
CONTENTFORMAT
  1
CONTENTFORMAT_BEGIN
 90
        0
 91
        0
 92
      512
 93
        0
300

 40
0.0
140
1.0
 94
        5
 62
     0
340
182
144
0.25
309
CONTENTFORMAT_END
171
     1
301
MARGIN
  1
CELLMARGIN_BEGIN
 40
0.06
 40
0.06
 40
0.06
 40
0.06
 40
0.18
 40
0.18
309
CELLMARGIN_END
 94
        6
 95
        1
302
GRIDFORMAT
  1
GRIDFORMAT_BEGIN
 90
        0
 91
        1
 62
     0
 92
       -2
340
0
 93
        0
 40
0.045
309
GRIDFORMAT_END
 95
        2
302
GRIDFORMAT
  1
GRIDFORMAT_BEGIN
 90
        0
 91
        1
 62
     0
 92
       -2
340
0
 93
        0
 40
0.045
309
GRIDFORMAT_END
 95
        4
302
GRIDFORMAT
  1
GRIDFORMAT_BEGIN
 90
        0
 91
        1
 62
     0
 92
       -2
340
0
 93
        0
 40
0.045
309
GRIDFORMAT_END
 95
        8
302
GRIDFORMAT
  1
GRIDFORMAT_BEGIN
 90
        0
 91
        1
 62
     0
 92
       -2
340
0
 93
        0
 40
0.045
309
GRIDFORMAT_END
 95
       16
302
GRIDFORMAT
  1
GRIDFORMAT_BEGIN
 90
        0
 91
        1
 62
     0
 92
       -2
340
0
 93
        0
 40
0.045
309
GRIDFORMAT_END
 95
       32
302
GRIDFORMAT
  1
GRIDFORMAT_BEGIN
 90
        0
 91
        1
 62
     0
 92
       -2
340
0
 93
        0
 40
0.045
309
GRIDFORMAT_END
309
TABLEFORMAT_END
  1
CELLSTYLE_BEGIN
 90
        1
 91
        1
300
_TITLE
309
CELLSTYLE_END
300
CELLSTYLE
  1
TABLEFORMAT_BEGIN
 90
        5
170
     1
 91
        0
 92
        0
 62
   257
 93
        1
300
CONTENTFORMAT
  1
CONTENTFORMAT_BEGIN
 90
        0
 91
        0
 92
      512
 93
        0
300

 40
0.0
140
1.0
 94
        5
 62
     0
340
182
144
0.18
309
CONTENTFORMAT_END
171
     1
301
MARGIN
  1
CELLMARGIN_BEGIN
 40
0.06
 40
0.06
 40
0.06
 40
0.06
 40
0.18
 40
0.18
309
CELLMARGIN_END
 94
        6
 95
        1
302
GRIDFORMAT
  1
GRIDFORMAT_BEGIN
 90
        0
 91
        1
 62
     0
 92
       -2
340
0
 93
        0
 40
0.045
309
GRIDFORMAT_END
 95
        2
302
GRIDFORMAT
  1
GRIDFORMAT_BEGIN
 90
        0
 91
        1
 62
     0
 92
       -2
340
0
 93
        0
 40
0.045
309
GRIDFORMAT_END
 95
        4
302
GRIDFORMAT
  1
GRIDFORMAT_BEGIN
 90
        0
 91
        1
 62
     0
 92
       -2
340
0
 93
        0
 40
0.045
309
GRIDFORMAT_END
 95
        8
302
GRIDFORMAT
  1
GRIDFORMAT_BEGIN
 90
        0
 91
        1
 62
     0
 92
       -2
340
0
 93
        0
 40
0.045
309
GRIDFORMAT_END
 95
       16
302
GRIDFORMAT
  1
GRIDFORMAT_BEGIN
 90
        0
 91
        1
 62
     0
 92
       -2
340
0
 93
        0
 40
0.045
309
GRIDFORMAT_END
 95
       32
302
GRIDFORMAT
  1
GRIDFORMAT_BEGIN
 90
        0
 91
        1
 62
     0
 92
       -2
340
0
 93
        0
 40
0.045
309
GRIDFORMAT_END
309
TABLEFORMAT_END
  1
CELLSTYLE_BEGIN
 90
        2
 91
        1
300
_HEADER
309
CELLSTYLE_END
300
CELLSTYLE
  1
TABLEFORMAT_BEGIN
 90
        5
170
     1
 91
        0
 92
        0
 62
   257
 93
        1
300
CONTENTFORMAT
  1
CONTENTFORMAT_BEGIN
 90
        0
 91
        0
 92
      512
 93
        0
300

 40
0.0
140
1.0
 94
        2
 62
     0
340
182
144
0.18
309
CONTENTFORMAT_END
171
     1
301
MARGIN
  1
CELLMARGIN_BEGIN
 40
0.06
 40
0.06
 40
0.06
 40
0.06
 40
0.18
 40
0.18
309
CELLMARGIN_END
 94
        6
 95
        1
302
GRIDFORMAT
  1
GRIDFORMAT_BEGIN
 90
        0
 91
        1
 62
     0
 92
       -2
340
0
 93
        0
 40
0.045
309
GRIDFORMAT_END
 95
        2
302
GRIDFORMAT
  1
GRIDFORMAT_BEGIN
 90
        0
 91
        1
 62
     0
 92
       -2
340
0
 93
        0
 40
0.045
309
GRIDFORMAT_END
 95
        4
302
GRIDFORMAT
  1
GRIDFORMAT_BEGIN
 90
        0
 91
        1
 62
     0
 92
       -2
340
0
 93
        0
 40
0.045
309
GRIDFORMAT_END
 95
        8
302
GRIDFORMAT
  1
GRIDFORMAT_BEGIN
 90
        0
 91
        1
 62
     0
 92
       -2
340
0
 93
        0
 40
0.045
309
GRIDFORMAT_END
 95
       16
302
GRIDFORMAT
  1
GRIDFORMAT_BEGIN
 90
        0
 91
        1
 62
     0
 92
       -2
340
0
 93
        0
 40
0.045
309
GRIDFORMAT_END
 95
       32
302
GRIDFORMAT
  1
GRIDFORMAT_BEGIN
 90
        0
 91
        1
 62
     0
 92
       -2
340
0
 93
        0
 40
0.045
309
GRIDFORMAT_END
309
TABLEFORMAT_END
  1
CELLSTYLE_BEGIN
 90
        3
 91
        2
300
_DATA
309
CELLSTYLE_END
  0
XRECORD
  5
1A58
102
{ACAD_REACTORS
330
155D
102
}
330
155D
100
AcDbXrecord
280
     1
102
ACAD_ROUNDTRIP_PRE2007_TABLESTYLE
 90
      512
 91
        0
  1

 92
      512
 93
        0
  2

 94
      512
 95
        0
  3

  0
XRECORD
  5
1A3D
102
{ACAD_REACTORS
330
1A3C
102
}
330
1A3C
100
AcDbXrecord
280
     1
102
RTVSPropertyOp0
 70
     1
102
RTVSPropertyOp1
 70
     1
102
RTVSPropertyOp2
 70
     1
102
RTVSPropertyOp3
 70
     1
102
RTVSPropertyOp4
 70
     1
102
RTVSPropertyOp5
 70
     1
102
RTVSPropertyOp6
 70
     1
102
RTVSPropertyOp7
 70
     1
102
RTVSPropertyOp8
 70
     1
102
RTVSPropertyOp9
 70
     1
102
RTVSPropertyOp10
 70
     1
102
RTVSPropertyOp11
 70
     1
102
RTVSPropertyOp12
 70
     1
102
RTVSPropertyOp13
 70
     1
102
RTVSPropertyOp14
 70
     1
102
RTVSPropertyOp15
 70
     1
102
RTVSPropertyOp16
 70
     1
102
RTVSPropertyOp17
 70
     1
102
RTVSPropertyOp18
 70
     1
102
RTVSPropertyOp19
 70
     1
102
RTVSPropertyOp20
 70
     1
102
RTVSPropertyOp21
 70
     1
102
RTVSPropertyOp22
 70
     1
102
RTVSPropertyOp23
 70
     1
102
RTVSPropertyOp24
 70
     1
102
RTVSPropertyOp25
 70
     1
102
RTVSPropertyOp26
 70
     1
102
RTVSPropertyOp27
 70
     1
  0
XRECORD
  5
1A41
102
{ACAD_REACTORS
330
1A40
102
}
330
1A40
100
AcDbXrecord
280
     1
102
RTVSPropertyOp0
 70
     1
102
RTVSPropertyOp1
 70
     1
102
RTVSPropertyOp2
 70
     1
102
RTVSPropertyOp3
 70
     1
102
RTVSPropertyOp4
 70
     1
102
RTVSPropertyOp5
 70
     1
102
RTVSPropertyOp6
 70
     1
102
RTVSPropertyOp7
 70
     1
102
RTVSPropertyOp8
 70
     1
102
RTVSPropertyOp9
 70
     1
102
RTVSPropertyOp10
 70
     1
102
RTVSPropertyOp11
 70
     1
102
RTVSPropertyOp12
 70
     1
102
RTVSPropertyOp13
 70
     1
102
RTVSPropertyOp14
 70
     1
102
RTVSPropertyOp15
 70
     1
102
RTVSPropertyOp16
 70
     1
102
RTVSPropertyOp17
 70
     1
102
RTVSPropertyOp18
 70
     1
102
RTVSPropertyOp19
 70
     1
102
RTVSPropertyOp20
 70
     1
102
RTVSPropertyOp21
 70
     1
102
RTVSPropertyOp22
 70
     1
102
RTVSPropertyOp23
 70
     1
102
RTVSPropertyOp24
 70
     1
102
RTVSPropertyOp25
 70
     1
102
RTVSPropertyOp26
 70
     1
102
RTVSPropertyOp27
 70
     1
  0
XRECORD
  5
1A3F
102
{ACAD_REACTORS
330
1A3E
102
}
330
1A3E
100
AcDbXrecord
280
     1
102
RTVSPropertyOp0
 70
     1
102
RTVSPropertyOp1
 70
     1
102
RTVSPropertyOp2
 70
     1
102
RTVSPropertyOp3
 70
     1
102
RTVSPropertyOp4
 70
     1
102
RTVSPropertyOp5
 70
     1
102
RTVSPropertyOp6
 70
     1
102
RTVSPropertyOp7
 70
     1
102
RTVSPropertyOp8
 70
     1
102
RTVSPropertyOp9
 70
     1
102
RTVSPropertyOp10
 70
     1
102
RTVSPropertyOp11
 70
     1
102
RTVSPropertyOp12
 70
     1
102
RTVSPropertyOp13
 70
     1
102
RTVSPropertyOp14
 70
     1
102
RTVSPropertyOp15
 70
     1
102
RTVSPropertyOp16
 70
     1
102
RTVSPropertyOp17
 70
     1
102
RTVSPropertyOp18
 70
     1
102
RTVSPropertyOp19
 70
     1
102
RTVSPropertyOp20
 70
     1
102
RTVSPropertyOp21
 70
     1
102
RTVSPropertyOp22
 70
     1
102
RTVSPropertyOp23
 70
     1
102
RTVSPropertyOp24
 70
     1
102
RTVSPropertyOp25
 70
     1
102
RTVSPropertyOp26
 70
     1
102
RTVSPropertyOp27
 70
     1
  0
XRECORD
  5
1A3B
102
{ACAD_REACTORS
330
1A3A
102
}
330
1A3A
100
AcDbXrecord
280
     1
102
RTVSPropertyOp0
 70
     1
102
RTVSPropertyOp1
 70
     1
102
RTVSPropertyOp2
 70
     1
102
RTVSPropertyOp3
 70
     1
102
RTVSPropertyOp4
 70
     1
102
RTVSPropertyOp5
 70
     1
102
RTVSPropertyOp6
 70
     1
102
RTVSPropertyOp7
 70
     1
102
RTVSPropertyOp8
 70
     1
102
RTVSPropertyOp9
 70
     1
102
RTVSPropertyOp10
 70
     1
102
RTVSPropertyOp11
 70
     1
102
RTVSPropertyOp12
 70
     1
102
RTVSPropertyOp13
 70
     1
102
RTVSPropertyOp14
 70
     1
102
RTVSPropertyOp15
 70
     1
102
RTVSPropertyOp16
 70
     1
102
RTVSPropertyOp17
 70
     1
102
RTVSPropertyOp18
 70
     1
102
RTVSPropertyOp19
 70
     1
102
RTVSPropertyOp20
 70
     1
102
RTVSPropertyOp21
 70
     1
102
RTVSPropertyOp22
 70
     1
102
RTVSPropertyOp23
 70
     1
102
RTVSPropertyOp24
 70
     1
102
RTVSPropertyOp25
 70
     1
102
RTVSPropertyOp26
 70
     1
102
RTVSPropertyOp27
 70
     1
  0
XRECORD
  5
1A49
102
{ACAD_REACTORS
330
1A48
102
}
330
1A48
100
AcDbXrecord
280
     1
102
RTVSPropertyOp0
 70
     1
102
RTVSPropertyOp1
 70
     1
102
RTVSPropertyOp2
 70
     1
102
RTVSPropertyOp3
 70
     1
102
RTVSPropertyOp4
 70
     1
102
RTVSPropertyOp5
 70
     1
102
RTVSPropertyOp6
 70
     1
102
RTVSPropertyOp7
 70
     1
102
RTVSPropertyOp8
 70
     1
102
RTVSPropertyOp9
 70
     1
102
RTVSPropertyOp10
 70
     1
102
RTVSPropertyOp11
 70
     1
102
RTVSPropertyOp12
 70
     1
102
RTVSPropertyOp13
 70
     1
102
RTVSPropertyOp14
 70
     1
102
RTVSPropertyOp15
 70
     1
102
RTVSPropertyOp16
 70
     1
102
RTVSPropertyOp17
 70
     1
102
RTVSPropertyOp18
 70
     1
102
RTVSPropertyOp19
 70
     1
102
RTVSPropertyOp20
 70
     1
102
RTVSPropertyOp21
 70
     1
102
RTVSPropertyOp22
 70
     1
102
RTVSPropertyOp23
 70
     1
102
RTVSPropertyOp24
 70
     1
102
RTVSPropertyOp25
 70
     1
102
RTVSPropertyOp26
 70
     1
102
RTVSPropertyOp27
 70
     1
  0
XRECORD
  5
1A51
102
{ACAD_REACTORS
330
1A50
102
}
330
1A50
100
AcDbXrecord
280
     1
102
RTVSPropertyOp0
 70
     1
102
RTVSPropertyOp1
 70
     1
102
RTVSPropertyOp2
 70
     1
102
RTVSPropertyOp3
 70
     1
102
RTVSPropertyOp4
 70
     1
102
RTVSPropertyOp5
 70
     1
102
RTVSPropertyOp6
 70
     1
102
RTVSPropertyOp7
 70
     1
102
RTVSPropertyOp8
 70
     1
102
RTVSPropertyOp9
 70
     1
102
RTVSPropertyOp10
 70
     1
102
RTVSPropertyOp11
 70
     1
102
RTVSPropertyOp12
 70
     1
102
RTVSPropertyOp13
 70
     1
102
RTVSPropertyOp14
 70
     1
102
RTVSPropertyOp15
 70
     1
102
RTVSPropertyOp16
 70
     1
102
RTVSPropertyOp17
 70
     1
102
RTVSPropertyOp18
 70
     1
102
RTVSPropertyOp19
 70
     1
102
RTVSPropertyOp20
 70
     1
102
RTVSPropertyOp21
 70
     1
102
RTVSPropertyOp22
 70
     1
102
RTVSPropertyOp23
 70
     1
102
RTVSPropertyOp24
 70
     1
102
RTVSPropertyOp25
 70
     1
102
RTVSPropertyOp26
 70
     1
102
RTVSPropertyOp27
 70
     1
  0
XRECORD
  5
1A43
102
{ACAD_REACTORS
330
1A42
102
}
330
1A42
100
AcDbXrecord
280
     1
102
RTVSPropertyOp0
 70
     1
102
RTVSPropertyOp1
 70
     1
102
RTVSPropertyOp2
 70
     1
102
RTVSPropertyOp3
 70
     1
102
RTVSPropertyOp4
 70
     1
102
RTVSPropertyOp5
 70
     1
102
RTVSPropertyOp6
 70
     1
102
RTVSPropertyOp7
 70
     1
102
RTVSPropertyOp8
 70
     1
102
RTVSPropertyOp9
 70
     1
102
RTVSPropertyOp10
 70
     1
102
RTVSPropertyOp11
 70
     1
102
RTVSPropertyOp12
 70
     1
102
RTVSPropertyOp13
 70
     1
102
RTVSPropertyOp14
 70
     1
102
RTVSPropertyOp15
 70
     1
102
RTVSPropertyOp16
 70
     1
102
RTVSPropertyOp17
 70
     1
102
RTVSPropertyOp18
 70
     1
102
RTVSPropertyOp19
 70
     1
102
RTVSPropertyOp20
 70
     1
102
RTVSPropertyOp21
 70
     1
102
RTVSPropertyOp22
 70
     1
102
RTVSPropertyOp23
 70
     1
102
RTVSPropertyOp24
 70
     1
102
RTVSPropertyOp25
 70
     1
102
RTVSPropertyOp26
 70
     1
102
RTVSPropertyOp27
 70
     1
  0
XRECORD
  5
1A47
102
{ACAD_REACTORS
330
1A46
102
}
330
1A46
100
AcDbXrecord
280
     1
102
RTVSPropertyOp0
 70
     1
102
RTVSPropertyOp1
 70
     1
102
RTVSPropertyOp2
 70
     1
102
RTVSPropertyOp3
 70
     1
102
RTVSPropertyOp4
 70
     1
102
RTVSPropertyOp5
 70
     1
102
RTVSPropertyOp6
 70
     1
102
RTVSPropertyOp7
 70
     1
102
RTVSPropertyOp8
 70
     1
102
RTVSPropertyOp9
 70
     1
102
RTVSPropertyOp10
 70
     1
102
RTVSPropertyOp11
 70
     1
102
RTVSPropertyOp12
 70
     1
102
RTVSPropertyOp13
 70
     1
102
RTVSPropertyOp14
 70
     1
102
RTVSPropertyOp15
 70
     1
102
RTVSPropertyOp16
 70
     1
102
RTVSPropertyOp17
 70
     1
102
RTVSPropertyOp18
 70
     1
102
RTVSPropertyOp19
 70
     1
102
RTVSPropertyOp20
 70
     1
102
RTVSPropertyOp21
 70
     1
102
RTVSPropertyOp22
 70
     1
102
RTVSPropertyOp23
 70
     1
102
RTVSPropertyOp24
 70
     1
102
RTVSPropertyOp25
 70
     1
102
RTVSPropertyOp26
 70
     1
102
RTVSPropertyOp27
 70
     1
  0
XRECORD
  5
1A57
102
{ACAD_REACTORS
330
1A56
102
}
330
1A56
100
AcDbXrecord
280
     1
102
RTVSPropertyOp0
 70
     0
102
RTVSPropertyOp1
 70
     0
102
RTVSPropertyOp2
 70
     0
102
RTVSPropertyOp3
 70
     0
102
RTVSPropertyOp4
 70
     0
102
RTVSPropertyOp5
 70
     0
102
RTVSPropertyOp6
 70
     0
102
RTVSPropertyOp7
 70
     0
102
RTVSPropertyOp8
 70
     0
102
RTVSPropertyOp9
 70
     0
102
RTVSPropertyOp10
 70
     0
102
RTVSPropertyOp11
 70
     0
102
RTVSPropertyOp12
 70
     0
102
RTVSPropertyOp13
 70
     0
102
RTVSPropertyOp14
 70
     2
102
RTVSPropertyOp15
 70
     0
102
RTVSPropertyOp16
 70
     0
102
RTVSPropertyOp17
 70
     0
102
RTVSPropertyOp18
 70
     0
102
RTVSPropertyOp19
 70
     0
102
RTVSPropertyOp20
 70
     0
102
RTVSPropertyOp21
 70
     0
102
RTVSPropertyOp22
 70
     0
102
RTVSPropertyOp23
 70
     0
102
RTVSPropertyOp24
 70
     0
102
RTVSPropertyOp25
 70
     0
102
RTVSPropertyOp26
 70
     0
102
RTVSPropertyOp27
 70
     0
  0
XRECORD
  5
1A4F
102
{ACAD_REACTORS
330
1A4E
102
}
330
1A4E
100
AcDbXrecord
280
     1
102
RTVSPropertyOp0
 70
     1
102
RTVSPropertyOp1
 70
     1
102
RTVSPropertyOp2
 70
     1
102
RTVSPropertyOp3
 70
     1
102
RTVSPropertyOp4
 70
     1
102
RTVSPropertyOp5
 70
     1
102
RTVSPropertyOp6
 70
     1
102
RTVSPropertyOp7
 70
     1
102
RTVSPropertyOp8
 70
     1
102
RTVSPropertyOp9
 70
     1
102
RTVSPropertyOp10
 70
     1
102
RTVSPropertyOp11
 70
     1
102
RTVSPropertyOp12
 70
     1
102
RTVSPropertyOp13
 70
     1
102
RTVSPropertyOp14
 70
     1
102
RTVSPropertyOp15
 70
     1
102
RTVSPropertyOp16
 70
     1
102
RTVSPropertyOp17
 70
     1
102
RTVSPropertyOp18
 70
     1
102
RTVSPropertyOp19
 70
     1
102
RTVSPropertyOp20
 70
     1
102
RTVSPropertyOp21
 70
     1
102
RTVSPropertyOp22
 70
     1
102
RTVSPropertyOp23
 70
     1
102
RTVSPropertyOp24
 70
     1
102
RTVSPropertyOp25
 70
     1
102
RTVSPropertyOp26
 70
     1
102
RTVSPropertyOp27
 70
     1
  0
XRECORD
  5
1A33
102
{ACAD_REACTORS
330
1A32
102
}
330
1A32
100
AcDbXrecord
280
     1
102
RTVSPropertyOp0
 70
     1
102
RTVSPropertyOp1
 70
     1
102
RTVSPropertyOp2
 70
     1
102
RTVSPropertyOp3
 70
     1
102
RTVSPropertyOp4
 70
     1
102
RTVSPropertyOp5
 70
     1
102
RTVSPropertyOp6
 70
     1
102
RTVSPropertyOp7
 70
     1
102
RTVSPropertyOp8
 70
     1
102
RTVSPropertyOp9
 70
     1
102
RTVSPropertyOp10
 70
     1
102
RTVSPropertyOp11
 70
     1
102
RTVSPropertyOp12
 70
     1
102
RTVSPropertyOp13
 70
     1
102
RTVSPropertyOp14
 70
     1
102
RTVSPropertyOp15
 70
     1
102
RTVSPropertyOp16
 70
     1
102
RTVSPropertyOp17
 70
     1
102
RTVSPropertyOp18
 70
     1
102
RTVSPropertyOp19
 70
     1
102
RTVSPropertyOp20
 70
     1
102
RTVSPropertyOp21
 70
     1
102
RTVSPropertyOp22
 70
     1
102
RTVSPropertyOp23
 70
     1
102
RTVSPropertyOp24
 70
     1
102
RTVSPropertyOp25
 70
     1
102
RTVSPropertyOp26
 70
     1
102
RTVSPropertyOp27
 70
     1
  0
XRECORD
  5
1A35
102
{ACAD_REACTORS
330
1A34
102
}
330
1A34
100
AcDbXrecord
280
     1
102
RTVSPropertyOp0
 70
     1
102
RTVSPropertyOp1
 70
     1
102
RTVSPropertyOp2
 70
     1
102
RTVSPropertyOp3
 70
     1
102
RTVSPropertyOp4
 70
     1
102
RTVSPropertyOp5
 70
     1
102
RTVSPropertyOp6
 70
     1
102
RTVSPropertyOp7
 70
     1
102
RTVSPropertyOp8
 70
     1
102
RTVSPropertyOp9
 70
     1
102
RTVSPropertyOp10
 70
     1
102
RTVSPropertyOp11
 70
     1
102
RTVSPropertyOp12
 70
     1
102
RTVSPropertyOp13
 70
     1
102
RTVSPropertyOp14
 70
     1
102
RTVSPropertyOp15
 70
     1
102
RTVSPropertyOp16
 70
     1
102
RTVSPropertyOp17
 70
     1
102
RTVSPropertyOp18
 70
     1
102
RTVSPropertyOp19
 70
     1
102
RTVSPropertyOp20
 70
     1
102
RTVSPropertyOp21
 70
     1
102
RTVSPropertyOp22
 70
     1
102
RTVSPropertyOp23
 70
     1
102
RTVSPropertyOp24
 70
     1
102
RTVSPropertyOp25
 70
     1
102
RTVSPropertyOp26
 70
     1
102
RTVSPropertyOp27
 70
     1
  0
XRECORD
  5
1A37
102
{ACAD_REACTORS
330
1A36
102
}
330
1A36
100
AcDbXrecord
280
     1
102
RTVSPropertyOp0
 70
     1
102
RTVSPropertyOp1
 70
     1
102
RTVSPropertyOp2
 70
     1
102
RTVSPropertyOp3
 70
     1
102
RTVSPropertyOp4
 70
     1
102
RTVSPropertyOp5
 70
     1
102
RTVSPropertyOp6
 70
     1
102
RTVSPropertyOp7
 70
     1
102
RTVSPropertyOp8
 70
     1
102
RTVSPropertyOp9
 70
     1
102
RTVSPropertyOp10
 70
     1
102
RTVSPropertyOp11
 70
     1
102
RTVSPropertyOp12
 70
     1
102
RTVSPropertyOp13
 70
     1
102
RTVSPropertyOp14
 70
     1
102
RTVSPropertyOp15
 70
     1
102
RTVSPropertyOp16
 70
     1
102
RTVSPropertyOp17
 70
     1
102
RTVSPropertyOp18
 70
     1
102
RTVSPropertyOp19
 70
     1
102
RTVSPropertyOp20
 70
     1
102
RTVSPropertyOp21
 70
     1
102
RTVSPropertyOp22
 70
     1
102
RTVSPropertyOp23
 70
     1
102
RTVSPropertyOp24
 70
     1
102
RTVSPropertyOp25
 70
     1
102
RTVSPropertyOp26
 70
     1
102
RTVSPropertyOp27
 70
     1
  0
XRECORD
  5
1A39
102
{ACAD_REACTORS
330
1A38
102
}
330
1A38
100
AcDbXrecord
280
     1
102
RTVSPropertyOp0
 70
     1
102
RTVSPropertyOp1
 70
     1
102
RTVSPropertyOp2
 70
     1
102
RTVSPropertyOp3
 70
     1
102
RTVSPropertyOp4
 70
     1
102
RTVSPropertyOp5
 70
     1
102
RTVSPropertyOp6
 70
     1
102
RTVSPropertyOp7
 70
     1
102
RTVSPropertyOp8
 70
     1
102
RTVSPropertyOp9
 70
     1
102
RTVSPropertyOp10
 70
     1
102
RTVSPropertyOp11
 70
     1
102
RTVSPropertyOp12
 70
     1
102
RTVSPropertyOp13
 70
     1
102
RTVSPropertyOp14
 70
     1
102
RTVSPropertyOp15
 70
     1
102
RTVSPropertyOp16
 70
     1
102
RTVSPropertyOp17
 70
     1
102
RTVSPropertyOp18
 70
     1
102
RTVSPropertyOp19
 70
     1
102
RTVSPropertyOp20
 70
     1
102
RTVSPropertyOp21
 70
     1
102
RTVSPropertyOp22
 70
     1
102
RTVSPropertyOp23
 70
     1
102
RTVSPropertyOp24
 70
     1
102
RTVSPropertyOp25
 70
     1
102
RTVSPropertyOp26
 70
     1
102
RTVSPropertyOp27
 70
     1
  0
XRECORD
  5
1A53
102
{ACAD_REACTORS
330
1A52
102
}
330
1A52
100
AcDbXrecord
280
     1
102
RTVSPropertyOp0
 70
     0
102
RTVSPropertyOp1
 70
     0
102
RTVSPropertyOp2
 70
     0
102
RTVSPropertyOp3
 70
     0
102
RTVSPropertyOp4
 70
     0
102
RTVSPropertyOp5
 70
     0
102
RTVSPropertyOp6
 70
     0
102
RTVSPropertyOp7
 70
     0
102
RTVSPropertyOp8
 70
     0
102
RTVSPropertyOp9
 70
     0
102
RTVSPropertyOp10
 70
     0
102
RTVSPropertyOp11
 70
     0
102
RTVSPropertyOp12
 70
     0
102
RTVSPropertyOp13
 70
     0
102
RTVSPropertyOp14
 70
     2
102
RTVSPropertyOp15
 70
     0
102
RTVSPropertyOp16
 70
     0
102
RTVSPropertyOp17
 70
     0
102
RTVSPropertyOp18
 70
     0
102
RTVSPropertyOp19
 70
     0
102
RTVSPropertyOp20
 70
     0
102
RTVSPropertyOp21
 70
     0
102
RTVSPropertyOp22
 70
     0
102
RTVSPropertyOp23
 70
     0
102
RTVSPropertyOp24
 70
     0
102
RTVSPropertyOp25
 70
     0
102
RTVSPropertyOp26
 70
     0
102
RTVSPropertyOp27
 70
     0
  0
XRECORD
  5
1A4D
102
{ACAD_REACTORS
330
1A4C
102
}
330
1A4C
100
AcDbXrecord
280
     1
102
RTVSPropertyOp0
 70
     1
102
RTVSPropertyOp1
 70
     1
102
RTVSPropertyOp2
 70
     1
102
RTVSPropertyOp3
 70
     1
102
RTVSPropertyOp4
 70
     1
102
RTVSPropertyOp5
 70
     1
102
RTVSPropertyOp6
 70
     1
102
RTVSPropertyOp7
 70
     1
102
RTVSPropertyOp8
 70
     1
102
RTVSPropertyOp9
 70
     1
102
RTVSPropertyOp10
 70
     1
102
RTVSPropertyOp11
 70
     1
102
RTVSPropertyOp12
 70
     1
102
RTVSPropertyOp13
 70
     1
102
RTVSPropertyOp14
 70
     1
102
RTVSPropertyOp15
 70
     1
102
RTVSPropertyOp16
 70
     1
102
RTVSPropertyOp17
 70
     1
102
RTVSPropertyOp18
 70
     1
102
RTVSPropertyOp19
 70
     1
102
RTVSPropertyOp20
 70
     1
102
RTVSPropertyOp21
 70
     1
102
RTVSPropertyOp22
 70
     1
102
RTVSPropertyOp23
 70
     1
102
RTVSPropertyOp24
 70
     1
102
RTVSPropertyOp25
 70
     1
102
RTVSPropertyOp26
 70
     1
102
RTVSPropertyOp27
 70
     1
  0
XRECORD
  5
1A55
102
{ACAD_REACTORS
330
1A54
102
}
330
1A54
100
AcDbXrecord
280
     1
102
RTVSPropertyOp0
 70
     0
102
RTVSPropertyOp1
 70
     0
102
RTVSPropertyOp2
 70
     0
102
RTVSPropertyOp3
 70
     0
102
RTVSPropertyOp4
 70
     0
102
RTVSPropertyOp5
 70
     0
102
RTVSPropertyOp6
 70
     0
102
RTVSPropertyOp7
 70
     0
102
RTVSPropertyOp8
 70
     0
102
RTVSPropertyOp9
 70
     0
102
RTVSPropertyOp10
 70
     0
102
RTVSPropertyOp11
 70
     0
102
RTVSPropertyOp12
 70
     0
102
RTVSPropertyOp13
 70
     0
102
RTVSPropertyOp14
 70
     2
102
RTVSPropertyOp15
 70
     0
102
RTVSPropertyOp16
 70
     0
102
RTVSPropertyOp17
 70
     0
102
RTVSPropertyOp18
 70
     0
102
RTVSPropertyOp19
 70
     0
102
RTVSPropertyOp20
 70
     0
102
RTVSPropertyOp21
 70
     0
102
RTVSPropertyOp22
 70
     0
102
RTVSPropertyOp23
 70
     0
102
RTVSPropertyOp24
 70
     0
102
RTVSPropertyOp25
 70
     0
102
RTVSPropertyOp26
 70
     0
102
RTVSPropertyOp27
 70
     0
  0
XRECORD
  5
1A45
102
{ACAD_REACTORS
330
1A44
102
}
330
1A44
100
AcDbXrecord
280
     1
102
RTVSPropertyOp0
 70
     1
102
RTVSPropertyOp1
 70
     1
102
RTVSPropertyOp2
 70
     1
102
RTVSPropertyOp3
 70
     1
102
RTVSPropertyOp4
 70
     1
102
RTVSPropertyOp5
 70
     1
102
RTVSPropertyOp6
 70
     1
102
RTVSPropertyOp7
 70
     1
102
RTVSPropertyOp8
 70
     1
102
RTVSPropertyOp9
 70
     1
102
RTVSPropertyOp10
 70
     1
102
RTVSPropertyOp11
 70
     1
102
RTVSPropertyOp12
 70
     1
102
RTVSPropertyOp13
 70
     1
102
RTVSPropertyOp14
 70
     1
102
RTVSPropertyOp15
 70
     1
102
RTVSPropertyOp16
 70
     1
102
RTVSPropertyOp17
 70
     1
102
RTVSPropertyOp18
 70
     1
102
RTVSPropertyOp19
 70
     1
102
RTVSPropertyOp20
 70
     1
102
RTVSPropertyOp21
 70
     1
102
RTVSPropertyOp22
 70
     1
102
RTVSPropertyOp23
 70
     1
102
RTVSPropertyOp24
 70
     1
102
RTVSPropertyOp25
 70
     1
102
RTVSPropertyOp26
 70
     1
102
RTVSPropertyOp27
 70
     1
  0
XRECORD
  5
1A4B
102
{ACAD_REACTORS
330
1A4A
102
}
330
1A4A
100
AcDbXrecord
280
     1
102
RTVSPropertyOp0
 70
     1
102
RTVSPropertyOp1
 70
     1
102
RTVSPropertyOp2
 70
     1
102
RTVSPropertyOp3
 70
     1
102
RTVSPropertyOp4
 70
     1
102
RTVSPropertyOp5
 70
     1
102
RTVSPropertyOp6
 70
     1
102
RTVSPropertyOp7
 70
     1
102
RTVSPropertyOp8
 70
     1
102
RTVSPropertyOp9
 70
     1
102
RTVSPropertyOp10
 70
     1
102
RTVSPropertyOp11
 70
     1
102
RTVSPropertyOp12
 70
     1
102
RTVSPropertyOp13
 70
     1
102
RTVSPropertyOp14
 70
     1
102
RTVSPropertyOp15
 70
     1
102
RTVSPropertyOp16
 70
     1
102
RTVSPropertyOp17
 70
     1
102
RTVSPropertyOp18
 70
     1
102
RTVSPropertyOp19
 70
     1
102
RTVSPropertyOp20
 70
     1
102
RTVSPropertyOp21
 70
     1
102
RTVSPropertyOp22
 70
     1
102
RTVSPropertyOp23
 70
     1
102
RTVSPropertyOp24
 70
     1
102
RTVSPropertyOp25
 70
     1
102
RTVSPropertyOp26
 70
     1
102
RTVSPropertyOp27
 70
     1
  0
ENDSEC
  0
EOF
