  0
SECTION
  2
HEADER
  9
$ACADVER
  1
AC1015
  9
$ACADMAINTVER
 70
     6
  9
$DWGCODEPAGE
  3
ANSI_1252
  9
$INSBASE
 10
0.0
 20
0.0
 30
0.0
  9
$EXTMIN
 10
282.8562499999998
 20
234.6791279345199
 30
0.0
  9
$EXTMAX
 10
3412.594310955418
 20
949.7332151554942
 30
0.0
  9
$LIMMIN
 10
0.0
 20
0.0
  9
$LIMMAX
 10
12.0
 20
9.0
  9
$ORTHOMODE
 70
     1
  9
$REGENMODE
 70
     1
  9
$FILLMODE
 70
     1
  9
$QTEXTMODE
 70
     0
  9
$MIRRTEXT
 70
     1
  9
$LTSCALE
 40
1.0
  9
$ATTMODE
 70
     1
  9
$TEXTSIZE
 40
0.0
  9
$TRACEWID
 40
0.05
  9
$TEXTSTYLE
  7
STANDARD
  9
$CLAYER
  8
0
  9
$CELTYPE
  6
CONTINUOUS
  9
$CECOLOR
 62
   256
  9
$CELTSCALE
 40
1.0
  9
$DISPSILH
 70
     0
  9
$DIMSCALE
 40
1.0
  9
$DIMASZ
 40
0.18
  9
$DIMEXO
 40
0.0625
  9
$DIMDLI
 40
0.38
  9
$DIMRND
 40
0.0
  9
$DIMDLE
 40
0.0
  9
$DIMEXE
 40
0.18
  9
$DIMTP
 40
0.0
  9
$DIMTM
 40
0.0
  9
$DIMTXT
 40
0.18
  9
$DIMCEN
 40
0.09
  9
$DIMTSZ
 40
0.0
  9
$DIMTOL
 70
     0
  9
$DIMLIM
 70
     0
  9
$DIMTIH
 70
     1
  9
$DIMTOH
 70
     1
  9
$DIMSE1
 70
     0
  9
$DIMSE2
 70
     0
  9
$DIMTAD
 70
     0
  9
$DIMZIN
 70
     0
  9
$DIMBLK
  1

  9
$DIMASO
 70
     1
  9
$DIMSHO
 70
     1
  9
$DIMPOST
  1

  9
$DIMAPOST
  1

  9
$DIMALT
 70
     0
  9
$DIMALTD
 70
     2
  9
$DIMALTF
 40
25.4
  9
$DIMLFAC
 40
1.0
  9
$DIMTOFL
 70
     0
  9
$DIMTVP
 40
0.0
  9
$DIMTIX
 70
     0
  9
$DIMSOXD
 70
     0
  9
$DIMSAH
 70
     0
  9
$DIMBLK1
  1

  9
$DIMBLK2
  1

  9
$DIMSTYLE
  2
STANDARD
  9
$DIMCLRD
 70
     0
  9
$DIMCLRE
 70
     0
  9
$DIMCLRT
 70
     0
  9
$DIMTFAC
 40
1.0
  9
$DIMGAP
 40
0.09
  9
$DIMJUST
 70
     0
  9
$DIMSD1
 70
     0
  9
$DIMSD2
 70
     0
  9
$DIMTOLJ
 70
     1
  9
$DIMTZIN
 70
     0
  9
$DIMALTZ
 70
     0
  9
$DIMALTTZ
 70
     0
  9
$DIMUPT
 70
     0
  9
$DIMDEC
 70
     4
  9
$DIMTDEC
 70
     4
  9
$DIMALTU
 70
     2
  9
$DIMALTTD
 70
     2
  9
$DIMTXSTY
  7
STANDARD
  9
$DIMAUNIT
 70
     0
  9
$DIMADEC
 70
     0
  9
$DIMALTRND
 40
0.0
  9
$DIMAZIN
 70
     0
  9
$DIMDSEP
 70
    46
  9
$DIMATFIT
 70
     3
  9
$DIMFRAC
 70
     0
  9
$DIMLDRBLK
  1

  9
$DIMLUNIT
 70
     2
  9
$DIMLWD
 70
    -2
  9
$DIMLWE
 70
    -2
  9
$DIMTMOVE
 70
     0
  9
$LUNITS
 70
     2
  9
$LUPREC
 70
     4
  9
$SKETCHINC
 40
0.1
  9
$FILLETRAD
 40
0.0
  9
$AUNITS
 70
     0
  9
$AUPREC
 70
     0
  9
$MENU
  1
acad
  9
$ELEVATION
 40
0.0
  9
$PELEVATION
 40
0.0
  9
$THICKNESS
 40
0.0
  9
$LIMCHECK
 70
     0
  9
$CHAMFERA
 40
0.0
  9
$CHAMFERB
 40
0.0
  9
$CHAMFERC
 40
0.0
  9
$CHAMFERD
 40
0.0
  9
$SKPOLY
 70
     0
  9
$TDCREATE
 40
2453239.131689815
  9
$TDUCREATE
 40
2453239.090023148
  9
$TDUPDATE
 40
2457948.524585833
  9
$TDUUPDATE
 40
2457948.482919166
  9
$TDINDWG
 40
0.0369164931
  9
$TDUSRTIMER
 40
0.0369146875
  9
$USRTIMER
 70
     1
  9
$ANGBASE
 50
0.0
  9
$ANGDIR
 70
     0
  9
$PDMODE
 70
     0
  9
$PDSIZE
 40
0.0
  9
$PLINEWID
 40
0.0
  9
$SPLFRAME
 70
     0
  9
$SPLINETYPE
 70
     6
  9
$SPLINESEGS
 70
    10
  9
$HANDSEED
  5
305
  9
$SURFTAB1
 70
     6
  9
$SURFTAB2
 70
     6
  9
$SURFTYPE
 70
     6
  9
$SURFU
 70
     6
  9
$SURFV
 70
     6
  9
$UCSBASE
  2

  9
$UCSNAME
  2

  9
$UCSORG
 10
0.0
 20
0.0
 30
0.0
  9
$UCSXDIR
 10
1.0
 20
0.0
 30
0.0
  9
$UCSYDIR
 10
0.0
 20
1.0
 30
0.0
  9
$UCSORTHOREF
  2

  9
$UCSORTHOVIEW
 70
     0
  9
$UCSORGTOP
 10
0.0
 20
0.0
 30
0.0
  9
$UCSORGBOTTOM
 10
0.0
 20
0.0
 30
0.0
  9
$UCSORGLEFT
 10
0.0
 20
0.0
 30
0.0
  9
$UCSORGRIGHT
 10
0.0
 20
0.0
 30
0.0
  9
$UCSORGFRONT
 10
0.0
 20
0.0
 30
0.0
  9
$UCSORGBACK
 10
0.0
 20
0.0
 30
0.0
  9
$PUCSBASE
  2

  9
$PUCSNAME
  2

  9
$PUCSORG
 10
0.0
 20
0.0
 30
0.0
  9
$PUCSXDIR
 10
1.0
 20
0.0
 30
0.0
  9
$PUCSYDIR
 10
0.0
 20
1.0
 30
0.0
  9
$PUCSORTHOREF
  2

  9
$PUCSORTHOVIEW
 70
     0
  9
$PUCSORGTOP
 10
0.0
 20
0.0
 30
0.0
  9
$PUCSORGBOTTOM
 10
0.0
 20
0.0
 30
0.0
  9
$PUCSORGLEFT
 10
0.0
 20
0.0
 30
0.0
  9
$PUCSORGRIGHT
 10
0.0
 20
0.0
 30
0.0
  9
$PUCSORGFRONT
 10
0.0
 20
0.0
 30
0.0
  9
$PUCSORGBACK
 10
0.0
 20
0.0
 30
0.0
  9
$USERI1
 70
     0
  9
$USERI2
 70
     0
  9
$USERI3
 70
     0
  9
$USERI4
 70
     0
  9
$USERI5
 70
     0
  9
$USERR1
 40
0.0
  9
$USERR2
 40
0.0
  9
$USERR3
 40
0.0
  9
$USERR4
 40
0.0
  9
$USERR5
 40
0.0
  9
$WORLDVIEW
 70
     1
  9
$SHADEDGE
 70
     3
  9
$SHADEDIF
 70
    70
  9
$TILEMODE
 70
     1
  9
$MAXACTVP
 70
    16
  9
$PINSBASE
 10
0.0
 20
0.0
 30
0.0
  9
$PLIMCHECK
 70
     0
  9
$PEXTMIN
 10
-1.000000000000000E+20
 20
-1.000000000000000E+20
 30
-1.000000000000000E+20
  9
$PEXTMAX
 10
-1.000000000000000E+20
 20
-1.000000000000000E+20
 30
-1.000000000000000E+20
  9
$PLIMMIN
 10
0.0
 20
0.0
  9
$PLIMMAX
 10
12.0
 20
9.0
  9
$UNITMODE
 70
     0
  9
$VISRETAIN
 70
     0
  9
$PLINEGEN
 70
     1
  9
$PSLTSCALE
 70
     0
  9
$TREEDEPTH
 70
  3020
  9
$CMLSTYLE
  2
Standard
  9
$CMLJUST
 70
     0
  9
$CMLSCALE
 40
1.0
  9
$PROXYGRAPHICS
 70
     1
  9
$MEASUREMENT
 70
     0
  9
$CELWEIGHT
370
    -1
  9
$ENDCAPS
280
     0
  9
$JOINSTYLE
280
     0
  9
$LWDISPLAY
290
     0
  9
$INSUNITS
 70
     0
  9
$HYPERLINKBASE
  1

  9
$STYLESHEET
  1

  9
$XEDIT
290
     1
  9
$CEPSNTYPE
380
     0
  9
$PSTYLEMODE
290
     1
  9
$FINGERPRINTGUID
  2
{9EF33FD1-2D0C-4F2B-9559-3C49FD80FA7C}
  9
$VERSIONGUID
  2
{6E21B6F9-18AC-4BDC-8DF8-98D9E798F11D}
  9
$EXTNAMES
290
     1
  9
$PSVPSCALE
 40
0.0
  9
$OLESTARTUP
290
     0
  0
ENDSEC
  0
SECTION
  2
CLASSES
  0
CLASS
  1
ACDBDICTIONARYWDFLT
  2
AcDbDictionaryWithDefault
  3
AutoCAD 2000
 90
        0
280
     0
281
     0
  0
CLASS
  1
ACDBPLACEHOLDER
  2
AcDbPlaceHolder
  3
AutoCAD 2000
 90
        0
280
     0
281
     0
  0
CLASS
  1
LAYOUT
  2
AcDbLayout
  3
AutoCAD 2000
 90
        0
280
     0
281
     0
  0
ENDSEC
  0
SECTION
  2
TABLES
  0
TABLE
  2
VPORT
  5
10A
330
0
100
AcDbSymbolTable
 70
     2
  0
VPORT
  5
304
330
10A
100
AcDbSymbolTableRecord
100
AcDbViewportTableRecord
  2
*Active
 70
     0
 10
0.0
 20
0.0
 11
1.0
 21
1.0
 12
129.3119065035152
 22
114.9401827651802
 13
0.0
 23
0.0
 14
0.0
 24
0.0
 15
0.0
 25
0.0
 16
0.0
 26
0.0
 36
1.0
 17
851.662529
 27
615.05
 37
0.0
 40
1237.291304279092
 41
2.071428571428571
 42
50.0
 43
0.0
 44
0.0
 50
0.0
 51
0.0
 71
     0
 72
   100
 73
     1
 74
     0
 75
     0
 76
     0
 77
     0
 78
     0
281
     0
 65
     0
110
0.0
120
0.0
130
0.0
111
1.0
121
0.0
131
0.0
112
0.0
122
1.0
132
0.0
 79
     0
146
0.0
  0
ENDTAB
  0
TABLE
  2
LTYPE
  5
107
330
0
100
AcDbSymbolTable
 70
     7
  0
LTYPE
  5
115
330
107
100
AcDbSymbolTableRecord
100
AcDbLinetypeTableRecord
  2
ByBlock
 70
     0
  3

 72
    65
 73
     0
 40
0.0
  0
LTYPE
  5
116
330
107
100
AcDbSymbolTableRecord
100
AcDbLinetypeTableRecord
  2
ByLayer
 70
     0
  3

 72
    65
 73
     0
 40
0.0
  0
LTYPE
  5
117
330
107
100
AcDbSymbolTableRecord
100
AcDbLinetypeTableRecord
  2
CONTINUOUS
 70
     0
  3
Solid line
 72
    65
 73
     0
 40
0.0
  0
LTYPE
  5
125
330
107
100
AcDbSymbolTableRecord
100
AcDbLinetypeTableRecord
  2
DOT
 70
     0
  3
. . . . . . . . . . . . . . . . . . . . . . . . . . . . . . . . .
 72
    65
 73
     2
 40
0.25
 49
0.0
 74
     0
 49
-0.25
 74
     0
  0
LTYPE
  5
126
330
107
100
AcDbSymbolTableRecord
100
AcDbLinetypeTableRecord
  2
HIDDEN
 70
     0
  3
__ __ __ __ __ __ __ __ __ __ __ __ __ __ __ __ __ __ __ __ __ 
 72
    65
 73
     2
 40
0.375
 49
0.25
 74
     0
 49
-0.125
 74
     0
  0
LTYPE
  5
127
330
107
100
AcDbSymbolTableRecord
100
AcDbLinetypeTableRecord
  2
DASHED
 70
     0
  3
__ __ __ __ __ __ __ __ __ __ __ __ __ __ __ __ __ __ __ __ __
 72
    65
 73
     2
 40
0.75
 49
0.5
 74
     0
 49
-0.25
 74
     0
  0
LTYPE
  5
128
330
107
100
AcDbSymbolTableRecord
100
AcDbLinetypeTableRecord
  2
DASHDOT
 70
     0
  3
__ . __ . __ . __ . __ . __ . __ . __ . __ . __ . __ . __ . _
 72
    65
 73
     4
 40
1.0
 49
0.5
 74
     0
 49
-0.25
 74
     0
 49
0.0
 74
     0
 49
-0.25
 74
     0
  0
LTYPE
  5
129
330
107
100
AcDbSymbolTableRecord
100
AcDbLinetypeTableRecord
  2
DIVIDE
 70
     0
  3
____ . . ____ . . ____ . . ____ . . ____ . . ____ . . ____ . .
 72
    65
 73
     6
 40
1.25
 49
0.5
 74
     0
 49
-0.25
 74
     0
 49
0.0
 74
     0
 49
-0.25
 74
     0
 49
0.0
 74
     0
 49
-0.25
 74
     0
  0
LTYPE
  5
12A
330
107
100
AcDbSymbolTableRecord
100
AcDbLinetypeTableRecord
  2
CENTER
 70
     0
  3
____ _ ____ _ ____ _ ____ _ ____ _ ____ _ ____ _ ____ _ ____ _
 72
    65
 73
     4
 40
2.0
 49
1.25
 74
     0
 49
-0.25
 74
     0
 49
0.25
 74
     0
 49
-0.25
 74
     0
  0
ENDTAB
  0
TABLE
  2
LAYER
  5
104
330
0
100
AcDbSymbolTable
 70
     7
  0
LAYER
  5
112
330
104
100
AcDbSymbolTableRecord
100
AcDbLayerTableRecord
  2
0
 70
     0
 62
     7
  6
CONTINUOUS
370
    -3
390
111
  0
LAYER
  5
12B
330
104
100
AcDbSymbolTableRecord
100
AcDbLayerTableRecord
  2
CONSTRUCTION_CLASS
 70
     0
 62
     7
  6
CONTINUOUS
370
    -3
390
111
  0
LAYER
  5
12C
330
104
100
AcDbSymbolTableRecord
100
AcDbLayerTableRecord
  2
PATTERN_CLASS
 70
     0
 62
     7
  6
CONTINUOUS
370
    -3
390
111
  0
LAYER
  5
12D
330
104
100
AcDbSymbolTableRecord
100
AcDbLayerTableRecord
  2
21
 70
     0
 62
     7
  6
CONTINUOUS
370
    -3
390
111
  0
LAYER
  5
12E
330
104
100
AcDbSymbolTableRecord
100
AcDbLayerTableRecord
  2
1
 70
     0
 62
     7
  6
CONTINUOUS
370
    -3
390
111
  0
LAYER
  5
12F
330
104
100
AcDbSymbolTableRecord
100
AcDbLayerTableRecord
  2
2
 70
     0
 62
     7
  6
CONTINUOUS
370
    -3
390
111
  0
LAYER
  5
275
102
{ACAD_XDICTIONARY
360
276
102
}
330
104
100
AcDbSymbolTableRecord
100
AcDbLayerTableRecord
  2
-1
 70
     0
 62
     7
  6
CONTINUOUS
370
    -3
390
111
  0
ENDTAB
  0
TABLE
  2
STYLE
  5
105
330
0
100
AcDbSymbolTable
 70
     1
  0
STYLE
  5
113
330
105
100
AcDbSymbolTableRecord
100
AcDbTextStyleTableRecord
  2
STANDARD
 70
     0
 40
0.0
 41
1.0
 50
0.0
 71
     0
 42
0.0
  3
txt
  4

  0
ENDTAB
  0
TABLE
  2
VIEW
  5
108
330
0
100
AcDbSymbolTable
 70
     0
  0
ENDTAB
  0
TABLE
  2
UCS
  5
109
330
0
100
AcDbSymbolTable
 70
     0
  0
ENDTAB
  0
TABLE
  2
APPID
  5
10B
330
0
100
AcDbSymbolTable
 70
     1
  0
APPID
  5
114
330
10B
100
AcDbSymbolTableRecord
100
AcDbRegAppTableRecord
  2
ACAD
 70
     0
  0
ENDTAB
  0
TABLE
  2
DIMSTYLE
  5
10C
330
0
100
AcDbSymbolTable
 70
     1
100
AcDbDimStyleTable
 71
     0
  0
DIMSTYLE
105
130
330
10C
100
AcDbSymbolTableRecord
100
AcDbDimStyleTableRecord
  2
STANDARD
 70
     0
279
     2
340
113
  0
ENDTAB
  0
TABLE
  2
BLOCK_RECORD
  5
103
330
0
100
AcDbSymbolTable
 70
     0
  0
BLOCK_RECORD
  5
120
330
103
100
AcDbSymbolTableRecord
100
AcDbBlockTableRecord
  2
*Model_Space
340
123
  0
BLOCK_RECORD
  5
11C
330
103
100
AcDbSymbolTableRecord
100
AcDbBlockTableRecord
  2
*Paper_Space
340
11F
  0
ENDTAB
  0
ENDSEC
  0
SECTION
  2
BLOCKS
  0
BLOCK
  5
121
330
120
100
AcDbEntity
  8
0
100
AcDbBlockBegin
  2
*Model_Space
 70
     0
 10
0.0
 20
0.0
 30
0.0
  3
*Model_Space
  1

  0
ENDBLK
  5
122
330
120
100
AcDbEntity
  8
0
100
AcDbBlockEnd
  0
BLOCK
  5
11D
330
11C
100
AcDbEntity
 67
     1
  8
0
100
AcDbBlockBegin
  2
*Paper_Space
 70
     0
 10
0.0
 20
0.0
 30
0.0
  3
*Paper_Space
  1

  0
ENDBLK
  5
11E
330
11C
100
AcDbEntity
 67
     1
  8
0
100
AcDbBlockEnd
  0
ENDSEC
  0
SECTION
  2
ENTITIES
  0
LINE
  5
132
330
120
100
AcDbEntity
  8
21
  6
Continuous
 62
     7
100
AcDbLine
 10
594.5062499999997
 20
701.5375000000001
 30
0.0
 11
504.01875
 21
701.5375000000001
 31
0.0
  0
LINE
  5
133
330
120
100
AcDbEntity
  8
21
  6
Continuous
 62
     7
100
AcDbLine
 10
504.01875
 20
701.5375000000001
 30
0.0
 11
594.5062499999997
 21
701.5375000000001
 31
0.0
  0
LINE
  5
134
330
120
100
AcDbEntity
  8
1
  6
Continuous
 62
     7
100
AcDbLine
 10
663.5624999999995
 20
632.4812499999998
 30
0.0
 11
663.5624999999995
 21
541.9937500000002
 31
0.0
  0
LINE
  5
135
330
120
100
AcDbEntity
  8
1
  6
Continuous
 62
     4
100
AcDbLine
 10
759.5625
 20
587.2374999999997
 30
0.0
 11
759.5625
 21
491.2374999999999
 31
0.0
  0
LINE
  5
136
330
120
100
AcDbEntity
  8
1
  6
Continuous
 62
     7
100
AcDbLine
 10
855.5625
 20
632.4812499999998
 30
0.0
 11
855.5625
 21
541.9937500000002
 31
0.0
  0
LINE
  5
137
330
120
100
AcDbEntity
  8
1
  6
Continuous
 62
     7
100
AcDbLine
 10
1047.5625
 20
632.4812499999998
 30
0.0
 11
1047.5625
 21
541.9937500000002
 31
0.0
  0
LINE
  5
138
330
120
100
AcDbEntity
  8
1
  6
Continuous
 62
     7
100
AcDbLine
 10
663.5624999999995
 20
541.9937500000002
 30
0.0
 11
714.3187499999997
 21
541.9937500000002
 31
0.0
  0
LINE
  5
139
330
120
100
AcDbEntity
  8
1
  6
Continuous
 62
     7
100
AcDbLine
 10
804.8062499999995
 20
541.9937500000002
 30
0.0
 11
1047.5625
 21
541.9937500000002
 31
0.0
  0
LINE
  5
13A
330
120
100
AcDbEntity
  8
1
  6
Continuous
 62
     7
100
AcDbLine
 10
926.0625
 20
673.0281249999998
 30
0.0
 11
926.0625
 21
632.4812499999998
 31
0.0
  0
LINE
  5
13B
330
120
100
AcDbEntity
  8
1
  6
Continuous
 62
     7
100
AcDbLine
 10
977.0625
 20
673.0281249999998
 30
0.0
 11
977.0625
 21
632.4812499999998
 31
0.0
  0
LINE
  5
13C
330
120
100
AcDbEntity
  8
1
  6
Continuous
 62
     7
100
AcDbLine
 10
926.0625
 20
663.7374999999997
 30
0.0
 11
977.0625
 21
663.7374999999997
 31
0.0
  0
LINE
  5
13D
330
120
100
AcDbEntity
  8
1
  6
Continuous
 62
     7
100
AcDbLine
 10
663.5624999999995
 20
632.4812499999998
 30
0.0
 11
926.0625
 21
632.4812499999998
 31
0.0
  0
LINE
  5
13E
330
120
100
AcDbEntity
  8
1
  6
Continuous
 62
     7
100
AcDbLine
 10
977.0625
 20
632.4812499999998
 30
0.0
 11
1047.5625
 21
632.4812499999998
 31
0.0
  0
LINE
  5
13F
330
120
100
AcDbEntity
  8
1
  6
Continuous
 62
     7
100
AcDbLine
 10
926.0625
 20
632.4812499999998
 30
0.0
 11
951.5625
 21
613.7687499999997
 31
0.0
  0
LINE
  5
140
330
120
100
AcDbEntity
  8
1
  6
Continuous
 62
     7
100
AcDbLine
 10
951.5625
 20
613.7687499999997
 30
0.0
 11
977.0625
 21
632.4812499999998
 31
0.0
  0
LINE
  5
141
330
120
100
AcDbEntity
  8
1
  6
Continuous
 62
     7
100
AcDbLine
 10
714.3187499999997
 20
541.9937500000002
 30
0.0
 11
759.5625
 21
587.2374999999997
 31
0.0
  0
LINE
  5
142
330
120
100
AcDbEntity
  8
1
  6
Continuous
 62
     7
100
AcDbLine
 10
759.5625
 20
587.2374999999997
 30
0.0
 11
804.8062499999995
 21
541.9937500000002
 31
0.0
  0
LINE
  5
143
330
120
100
AcDbEntity
  8
1
  6
Continuous
 62
     7
100
AcDbLine
 10
1047.5625
 20
541.9937500000002
 30
0.0
 11
1047.5625
 21
632.4812499999998
 31
0.0
  0
ARC
  5
144
330
120
100
AcDbEntity
  8
1
  6
Continuous
 62
     4
100
AcDbCircle
 10
1047.5625
 20
472.9375000000001
 30
0.0
 40
114.2993925
100
AcDbArc
 50
45.0
 51
90.0
  0
LINE
  5
145
330
120
100
AcDbEntity
  8
1
  6
Continuous
 62
     7
100
AcDbLine
 10
1160.371874999998
 20
585.7562499999998
 30
0.0
 11
1096.387499999998
 21
521.7718750000001
 31
0.0
  0
ARC
  5
147
330
120
100
AcDbEntity
  8
1
  6
Continuous
 62
     4
100
AcDbCircle
 10
663.5624999999995
 20
701.5375000000001
 30
0.0
 40
114.3024599999999
100
AcDbArc
 50
180.3759499999999
 51
270.0
  0
LINE
  5
14B
330
120
100
AcDbEntity
  8
1
  6
Continuous
 62
     7
100
AcDbLine
 10
1096.396874999999
 20
521.7625
 30
0.0
 11
1160.38125
 21
585.7468749999996
 31
0.0
  0
LINE
  5
14C
330
120
100
AcDbEntity
  8
1
  6
Continuous
 62
     7
100
AcDbLine
 10
1160.38125
 20
585.7468749999996
 30
0.0
 11
1096.396874999999
 21
521.7625
 31
0.0
  0
ARC
  5
14E
330
120
100
AcDbEntity
  8
1
  6
Continuous
 62
     4
100
AcDbCircle
 10
1209.20625
 20
634.590625
 30
0.0
 40
114.306021
100
AcDbArc
 50
225.003322
 51
270.0
  0
LINE
  5
150
330
120
100
AcDbEntity
  8
1
  6
Continuous
 62
     3
100
AcDbLine
 10
2283.287499999999
 20
727.4375
 30
0.0
 11
2595.362499999999
 21
727.4375
 31
0.0
  0
LINE
  5
151
330
120
100
AcDbEntity
  8
1
  6
Continuous
 62
     3
100
AcDbLine
 10
2283.287499999999
 20
457.7374999999998
 30
0.0
 11
2735.562499999999
 21
457.7374999999998
 31
0.0
  0
LINE
  5
152
330
120
100
AcDbEntity
  8
1
  6
Continuous
 62
     4
100
AcDbLine
 10
663.5624999999995
 20
587.2374999999997
 30
0.0
 11
1047.5625
 21
587.2374999999997
 31
0.0
  0
LINE
  5
153
330
120
100
AcDbEntity
  8
1
  6
Continuous
 62
     4
100
AcDbLine
 10
549.2624999999995
 20
700.7875000000001
 30
0.0
 11
549.2624999999995
 21
797.5375000000001
 31
0.0
  0
LINE
  5
154
330
120
100
AcDbEntity
  8
1
  6
Continuous
 62
     7
100
AcDbLine
 10
435.2624999999996
 20
766.0375000000001
 30
0.0
 11
435.2624999999996
 21
791.5375000000001
 31
0.0
  0
LINE
  5
155
330
120
100
AcDbEntity
  8
1
  6
Continuous
 62
     7
100
AcDbLine
 10
663.2624999999999
 20
766.0375000000001
 30
0.0
 11
663.2624999999999
 21
791.5375000000001
 31
0.0
  0
LINE
  5
156
330
120
100
AcDbEntity
  8
21
  6
Continuous
 62
     7
100
AcDbLine
 10
618.2624999999996
 20
797.5375000000001
 30
0.0
 11
480.2624999999996
 21
797.5375000000001
 31
0.0
  0
LINE
  5
157
330
120
100
AcDbEntity
  8
21
  6
Continuous
 62
     7
100
AcDbLine
 10
663.2624999999999
 20
791.5375000000001
 30
0.0
 11
435.2624999999996
 21
791.5375000000001
 31
0.0
  0
LINE
  5
158
330
120
100
AcDbEntity
  8
1
  6
Continuous
 62
     7
100
AcDbLine
 10
480.2624999999996
 20
791.5375000000001
 30
0.0
 11
480.2624999999996
 21
797.5375000000001
 31
0.0
  0
LINE
  5
159
330
120
100
AcDbEntity
  8
1
  6
Continuous
 62
     7
100
AcDbLine
 10
618.2624999999996
 20
791.5375000000001
 30
0.0
 11
618.2624999999996
 21
797.5375000000001
 31
0.0
  0
LINE
  5
15A
330
120
100
AcDbEntity
  8
21
  6
Continuous
 62
     7
100
AcDbLine
 10
663.2624999999999
 20
766.0375000000001
 30
0.0
 11
435.2624999999996
 21
766.0375000000001
 31
0.0
  0
LINE
  5
15B
330
120
100
AcDbEntity
  8
1
  6
Continuous
 62
     7
100
AcDbLine
 10
504.01875
 20
718.4218750000002
 30
0.0
 11
490.7624999999992
 21
766.0375000000001
 31
0.0
  0
LINE
  5
15C
330
120
100
AcDbEntity
  8
1
  6
Continuous
 62
     7
100
AcDbLine
 10
594.5062499999997
 20
718.4218750000002
 30
0.0
 11
607.7624999999995
 21
766.0375000000001
 31
0.0
  0
LINE
  5
15D
330
120
100
AcDbEntity
  8
1
  6
Continuous
 62
     7
100
AcDbLine
 10
504.01875
 20
701.5375000000001
 30
0.0
 11
504.01875
 21
718.4218750000002
 31
0.0
  0
LINE
  5
15E
330
120
100
AcDbEntity
  8
1
  6
Continuous
 62
     7
100
AcDbLine
 10
594.5062499999997
 20
701.5375000000001
 30
0.0
 11
594.5062499999997
 21
718.4218750000002
 31
0.0
  0
LINE
  5
15F
330
120
100
AcDbEntity
  8
1
  6
Continuous
 62
     4
100
AcDbLine
 10
951.5625
 20
613.7687499999997
 30
0.0
 11
951.5625
 21
750.7374999999997
 31
0.0
  0
LINE
  5
160
330
120
100
AcDbEntity
  8
21
  6
Continuous
 62
     7
100
AcDbLine
 10
1209.95625
 20
475.0374999999996
 30
0.0
 11
1209.95625
 21
565.5250000000002
 31
0.0
  0
LINE
  5
161
330
120
100
AcDbEntity
  8
21
  6
Continuous
 62
     7
100
AcDbLine
 10
1209.95625
 20
565.5250000000002
 30
0.0
 11
1209.95625
 21
475.0374999999996
 31
0.0
  0
LINE
  5
162
330
120
100
AcDbEntity
  8
1
  6
Continuous
 62
     4
100
AcDbLine
 10
1209.20625
 20
520.2812500000002
 30
0.0
 11
1308.95625
 21
520.2812500000002
 31
0.0
  0
LINE
  5
163
330
120
100
AcDbEntity
  8
1
  6
Continuous
 62
     7
100
AcDbLine
 10
1274.456249999998
 20
634.2812499999998
 30
0.0
 11
1299.956249999997
 21
634.2812499999998
 31
0.0
  0
LINE
  5
164
330
120
100
AcDbEntity
  8
1
  6
Continuous
 62
     7
100
AcDbLine
 10
1274.456249999998
 20
406.2812500000001
 30
0.0
 11
1299.956249999997
 21
406.2812500000001
 31
0.0
  0
LINE
  5
165
330
120
100
AcDbEntity
  8
21
  6
Continuous
 62
     7
100
AcDbLine
 10
1308.95625
 20
451.2812500000001
 30
0.0
 11
1308.95625
 21
589.2812500000002
 31
0.0
  0
LINE
  5
166
330
120
100
AcDbEntity
  8
21
  6
Continuous
 62
     7
100
AcDbLine
 10
1299.956249999997
 20
406.2812500000001
 30
0.0
 11
1299.956249999997
 21
634.2812499999998
 31
0.0
  0
LINE
  5
167
330
120
100
AcDbEntity
  8
1
  6
Continuous
 62
     7
100
AcDbLine
 10
1299.956249999997
 20
589.2812500000002
 30
0.0
 11
1308.95625
 21
589.2812500000002
 31
0.0
  0
LINE
  5
168
330
120
100
AcDbEntity
  8
1
  6
Continuous
 62
     7
100
AcDbLine
 10
1299.956249999997
 20
451.2812500000001
 30
0.0
 11
1308.95625
 21
451.2812500000001
 31
0.0
  0
LINE
  5
169
330
120
100
AcDbEntity
  8
21
  6
Continuous
 62
     7
100
AcDbLine
 10
1274.456249999998
 20
406.2812500000001
 30
0.0
 11
1274.456249999998
 21
634.2812499999998
 31
0.0
  0
LINE
  5
16A
330
120
100
AcDbEntity
  8
1
  6
Continuous
 62
     7
100
AcDbLine
 10
1226.840624999998
 20
565.5250000000002
 30
0.0
 11
1274.456249999998
 21
578.7812500000002
 31
0.0
  0
LINE
  5
16B
330
120
100
AcDbEntity
  8
1
  6
Continuous
 62
     7
100
AcDbLine
 10
1226.840624999998
 20
475.0374999999996
 30
0.0
 11
1274.456249999998
 21
461.7812500000002
 31
0.0
  0
LINE
  5
16C
330
120
100
AcDbEntity
  8
1
  6
Continuous
 62
     7
100
AcDbLine
 10
1209.95625
 20
565.5250000000002
 30
0.0
 11
1226.840624999998
 21
565.5250000000002
 31
0.0
  0
LINE
  5
16D
330
120
100
AcDbEntity
  8
1
  6
Continuous
 62
     7
100
AcDbLine
 10
1209.95625
 20
475.0374999999996
 30
0.0
 11
1226.840624999998
 21
475.0374999999996
 31
0.0
  0
LINE
  5
16E
330
120
100
AcDbEntity
  8
21
  6
Continuous
 62
     7
100
AcDbLine
 10
804.8062499999995
 20
490.4874999999998
 30
0.0
 11
714.3187499999997
 21
490.4874999999998
 31
0.0
  0
LINE
  5
16F
330
120
100
AcDbEntity
  8
21
  6
Continuous
 62
     7
100
AcDbLine
 10
714.3187499999997
 20
490.4874999999998
 30
0.0
 11
804.8062499999995
 21
490.4874999999998
 31
0.0
  0
LINE
  5
170
330
120
100
AcDbEntity
  8
1
  6
Continuous
 62
     4
100
AcDbLine
 10
759.5625
 20
491.2374999999999
 30
0.0
 11
759.5625
 21
392.9874999999999
 31
0.0
  0
LINE
  5
171
330
120
100
AcDbEntity
  8
1
  6
Continuous
 62
     7
100
AcDbLine
 10
645.5625
 20
425.9875000000001
 30
0.0
 11
645.5625
 21
400.4874999999999
 31
0.0
  0
LINE
  5
172
330
120
100
AcDbEntity
  8
1
  6
Continuous
 62
     7
100
AcDbLine
 10
873.5625
 20
425.9875000000001
 30
0.0
 11
873.5625
 21
400.4874999999999
 31
0.0
  0
LINE
  5
173
330
120
100
AcDbEntity
  8
21
  6
Continuous
 62
     7
100
AcDbLine
 10
828.5624999999992
 20
392.9874999999999
 30
0.0
 11
690.5625
 21
392.9874999999999
 31
0.0
  0
LINE
  5
174
330
120
100
AcDbEntity
  8
21
  6
Continuous
 62
     7
100
AcDbLine
 10
873.5625
 20
400.4874999999999
 30
0.0
 11
645.5625
 21
400.4874999999999
 31
0.0
  0
LINE
  5
175
330
120
100
AcDbEntity
  8
1
  6
Continuous
 62
     7
100
AcDbLine
 10
690.5625
 20
400.4874999999999
 30
0.0
 11
690.5625
 21
392.9874999999999
 31
0.0
  0
LINE
  5
176
330
120
100
AcDbEntity
  8
1
  6
Continuous
 62
     7
100
AcDbLine
 10
828.5624999999992
 20
400.4874999999999
 30
0.0
 11
828.5624999999992
 21
392.9874999999999
 31
0.0
  0
LINE
  5
177
330
120
100
AcDbEntity
  8
21
  6
Continuous
 62
     7
100
AcDbLine
 10
873.5625
 20
425.9875000000001
 30
0.0
 11
645.5625
 21
425.9875000000001
 31
0.0
  0
LINE
  5
178
330
120
100
AcDbEntity
  8
1
  6
Continuous
 62
     7
100
AcDbLine
 10
714.3187499999997
 20
473.603125
 30
0.0
 11
701.0624999999995
 21
425.9875000000001
 31
0.0
  0
LINE
  5
179
330
120
100
AcDbEntity
  8
1
  6
Continuous
 62
     7
100
AcDbLine
 10
804.8062499999995
 20
473.603125
 30
0.0
 11
818.0625
 21
425.9875000000001
 31
0.0
  0
LINE
  5
17A
330
120
100
AcDbEntity
  8
1
  6
Continuous
 62
     7
100
AcDbLine
 10
714.3187499999997
 20
541.9937500000002
 30
0.0
 11
714.3187499999997
 21
473.603125
 31
0.0
  0
LINE
  5
17B
330
120
100
AcDbEntity
  8
1
  6
Continuous
 62
     7
100
AcDbLine
 10
804.8062499999995
 20
541.9937500000002
 30
0.0
 11
804.8062499999995
 21
473.603125
 31
0.0
  0
LINE
  5
17C
330
120
100
AcDbEntity
  8
1
  6
Continuous
 62
     7
100
AcDbLine
 10
870.5624999999999
 20
726.7374999999997
 30
0.0
 11
870.5624999999999
 21
744.7374999999997
 31
0.0
  0
LINE
  5
17D
330
120
100
AcDbEntity
  8
1
  6
Continuous
 62
     7
100
AcDbLine
 10
1032.5625
 20
726.7374999999997
 30
0.0
 11
1032.5625
 21
744.7374999999997
 31
0.0
  0
LINE
  5
17E
330
120
100
AcDbEntity
  8
1
  6
Continuous
 62
     7
100
AcDbLine
 10
914.0624999999998
 20
750.7374999999997
 30
0.0
 11
989.0625
 21
750.7374999999997
 31
0.0
  0
LINE
  5
17F
330
120
100
AcDbEntity
  8
1
  6
Continuous
 62
     7
100
AcDbLine
 10
914.0624999999998
 20
744.7374999999997
 30
0.0
 11
914.0624999999998
 21
750.7374999999997
 31
0.0
  0
LINE
  5
180
330
120
100
AcDbEntity
  8
1
  6
Continuous
 62
     7
100
AcDbLine
 10
989.0625
 20
744.7374999999997
 30
0.0
 11
989.0625
 21
750.7374999999997
 31
0.0
  0
LINE
  5
181
330
120
100
AcDbEntity
  8
1
  6
Continuous
 62
     7
100
AcDbLine
 10
870.5624999999999
 20
744.7374999999997
 30
0.0
 11
1032.5625
 21
744.7374999999997
 31
0.0
  0
LINE
  5
182
330
120
100
AcDbEntity
  8
1
  6
Continuous
 62
     7
100
AcDbLine
 10
870.5624999999999
 20
726.7374999999997
 30
0.0
 11
1032.5625
 21
726.7374999999997
 31
0.0
  0
LINE
  5
183
330
120
100
AcDbEntity
  8
1
  6
Continuous
 62
     7
100
AcDbLine
 10
926.0625
 20
673.0281249999998
 30
0.0
 11
914.0624999999998
 21
726.7374999999997
 31
0.0
  0
LINE
  5
184
330
120
100
AcDbEntity
  8
1
  6
Continuous
 62
     7
100
AcDbLine
 10
977.0625
 20
673.0281249999998
 30
0.0
 11
989.0625
 21
726.7374999999997
 31
0.0
  0
LINE
  5
185
330
120
100
AcDbEntity
  8
1
  6
Continuous
 62
     3
100
AcDbLine
 10
2705.043749999999
 20
587.2374999999997
 30
0.0
 11
2282.856249999999
 21
587.2374999999997
 31
0.0
  0
LINE
  5
186
330
120
100
AcDbEntity
  8
1
  6
Continuous
 62
     3
100
AcDbLine
 10
2855.562499999999
 20
627.4
 30
0.0
 11
2855.562499999999
 21
860.8187499999997
 31
0.0
  0
LINE
  5
187
330
120
100
AcDbEntity
  8
1
  6
Continuous
 62
     3
100
AcDbLine
 10
2767.849999999999
 20
850.81875
 30
0.0
 11
2751.274999999999
 21
850.81875
 31
0.0
  0
LINE
  5
188
330
120
100
AcDbEntity
  8
1
  6
Continuous
 62
     3
100
AcDbLine
 10
2954.562499999999
 20
696.2374999999997
 30
0.0
 11
3404.074999999999
 21
696.2374999999997
 31
0.0
  0
LINE
  5
189
330
120
100
AcDbEntity
  8
1
  6
Continuous
 62
     3
100
AcDbLine
 10
3164.262499999999
 20
542.6
 30
0.0
 11
3405.112499999998
 21
542.6
 31
0.0
  0
LINE
  5
18A
330
120
100
AcDbEntity
  8
1
  6
Continuous
 62
     3
100
AcDbLine
 10
2651.362499999999
 20
642.44375
 30
0.0
 11
2651.362499999999
 21
286.6687499999997
 31
0.0
  0
LINE
  5
18B
330
120
100
AcDbEntity
  8
1
  6
Continuous
 62
     3
100
AcDbLine
 10
3069.212499999999
 20
533.15625
 30
0.0
 11
3007.093749999998
 21
595.2749999999999
 31
0.0
  0
LINE
  5
18C
330
120
100
AcDbEntity
  8
1
  6
Continuous
 62
     3
100
AcDbLine
 10
3022.924999999997
 20
595.0312499999999
 30
0.0
 11
2907.337499999999
 21
479.4437499999999
 31
0.0
  0
LINE
  5
18D
330
120
100
AcDbEntity
  8
1
  6
Continuous
 62
     3
100
AcDbLine
 10
3067.9625
 20
550.79375
 30
0.0
 11
2950.706249999999
 21
433.5374999999999
 31
0.0
  0
LINE
  5
18E
330
120
100
AcDbEntity
  8
1
  6
Continuous
 62
     3
100
AcDbLine
 10
2941.343749999999
 20
457.7062499999999
 30
0.0
 11
2930.243749999999
 21
468.8124999999997
 31
0.0
  0
LINE
  5
18F
330
120
100
AcDbEntity
  8
1
  6
Continuous
 62
     3
100
AcDbLine
 10
2791.562499999999
 20
627.0812499999997
 30
0.0
 11
2791.562499999999
 21
860.7812499999996
 31
0.0
  0
LINE
  5
190
330
120
100
AcDbEntity
  8
1
  6
Continuous
 62
     3
100
AcDbLine
 10
2791.562499999999
 20
431.6187499999998
 30
0.0
 11
2791.562499999999
 21
286.6687499999997
 31
0.0
  0
LINE
  5
191
330
120
100
AcDbEntity
  8
1
  6
Continuous
 62
     3
100
AcDbLine
 10
3157.824999999999
 20
486.6
 30
0.0
 11
3157.824999999999
 21
287.66875
 31
0.0
  0
LINE
  5
192
330
120
100
AcDbEntity
  8
1
  6
Continuous
 62
     3
100
AcDbLine
 10
3134.112499999998
 20
297.66875
 30
0.0
 11
3083.481249999997
 21
297.66875
 31
0.0
  0
LINE
  5
193
330
120
100
AcDbEntity
  8
1
  6
Continuous
 62
     3
100
AcDbLine
 10
3091.324999999999
 20
502.4375
 30
0.0
 11
3091.324999999999
 21
418.0937499999997
 31
0.0
  0
LINE
  5
194
330
120
100
AcDbEntity
  8
1
  6
Continuous
 62
     3
100
AcDbLine
 10
2767.849999999999
 20
296.6687499999998
 30
0.0
 11
2675.074999999999
 21
296.6687499999998
 31
0.0
  0
LINE
  5
195
330
120
100
AcDbEntity
  8
1
  6
Continuous
 62
     3
100
AcDbLine
 10
3115.037499999997
 20
428.09375
 30
0.0
 11
3121.743749999999
 21
428.09375
 31
0.0
  0
LINE
  5
196
330
120
100
AcDbEntity
  8
1
  6
Continuous
 62
     3
100
AcDbLine
 10
3035.112499999995
 20
428.09375
 30
0.0
 11
2986.462499999999
 21
428.09375
 31
0.0
  0
LINE
  5
197
330
120
100
AcDbEntity
  8
1
  6
Continuous
 62
     3
100
AcDbLine
 10
3004.837499999999
 20
587.2374999999997
 30
0.0
 11
3404.593749999999
 21
587.2374999999997
 31
0.0
  0
LINE
  5
198
330
120
100
AcDbEntity
  8
1
  6
Continuous
 62
     3
100
AcDbLine
 10
2823.562499999999
 20
898.60625
 30
0.0
 11
2871.69375
 21
898.60625
 31
0.0
  0
LINE
  5
199
330
120
100
AcDbEntity
  8
1
  6
Continuous
 62
     3
100
AcDbLine
 10
2727.562499999999
 20
627.4
 30
0.0
 11
2727.562499999999
 21
696.4375
 31
0.0
  0
LINE
  5
19A
330
120
100
AcDbEntity
  8
1
  6
Continuous
 62
     3
100
AcDbLine
 10
2727.562499999999
 20
733.4375
 30
0.0
 11
2727.562499999999
 21
860.8187499999997
 31
0.0
  0
LINE
  5
19B
330
120
100
AcDbEntity
  8
1
  6
Continuous
 62
     3
100
AcDbLine
 10
3390.887499999999
 20
518.8875
 30
0.0
 11
3390.887499999999
 21
502.5375
 31
0.0
  0
LINE
  5
19C
330
120
100
AcDbEntity
  8
1
  6
Continuous
 62
     3
100
AcDbLine
 10
2751.249999999999
 20
522.7
 30
0.0
 11
2454.999999999999
 21
522.7
 31
0.0
  0
LINE
  5
19D
330
120
100
AcDbEntity
  8
1
  6
Continuous
 62
     3
100
AcDbLine
 10
2611.199999999999
 20
663.4375
 30
0.0
 11
2453.999999999999
 21
663.4375
 31
0.0
  0
LINE
  5
19E
330
120
100
AcDbEntity
  8
1
  6
Continuous
 62
     3
100
AcDbLine
 10
2721.462499999999
 20
296.6687499999998
 30
0.0
 11
2721.462499999999
 21
286.6687499999997
 31
0.0
  0
LINE
  5
19F
330
120
100
AcDbEntity
  8
1
  6
Continuous
 62
     3
100
AcDbLine
 10
3108.793749999999
 20
297.66875
 30
0.0
 11
3108.793749999999
 21
287.66875
 31
0.0
  0
LINE
  5
1A0
330
120
100
AcDbEntity
  8
1
  6
Continuous
 62
     3
100
AcDbLine
 10
2871.743749999999
 20
286.725
 30
0.0
 11
2871.743749999999
 21
399.2124999999996
 31
0.0
  0
LINE
  5
1A1
330
120
100
AcDbEntity
  8
1
  6
Continuous
 62
     3
100
AcDbLine
 10
2986.462499999999
 20
428.09375
 30
0.0
 11
2986.462499999999
 21
252.7249999999999
 31
0.0
  0
LINE
  5
1A2
330
120
100
AcDbEntity
  8
1
  6
Continuous
 62
     3
100
AcDbLine
 10
3058.824999999998
 20
532.0
 30
0.0
 11
3058.824999999998
 21
287.66875
 31
0.0
  0
LINE
  5
1A3
330
120
100
AcDbEntity
  8
1
  6
Continuous
 62
     3
100
AcDbLine
 10
2935.793749999999
 20
463.2624999999998
 30
0.0
 11
2871.743749999999
 21
399.2124999999996
 31
0.0
  0
LINE
  5
1A4
330
120
100
AcDbEntity
  8
1
  6
Continuous
 62
     3
100
AcDbLine
 10
2293.287499999999
 20
727.4375
 30
0.0
 11
2299.843749999999
 21
703.725
 31
0.0
  0
LINE
  5
1A5
330
120
100
AcDbEntity
  8
1
  6
Continuous
 62
     3
100
AcDbLine
 10
2293.287499999999
 20
727.4375
 30
0.0
 11
2286.731249999999
 21
703.725
 31
0.0
  0
LINE
  5
1A6
330
120
100
AcDbEntity
  8
1
  6
Continuous
 62
     3
100
AcDbLine
 10
2286.731249999999
 20
703.725
 30
0.0
 11
2299.843749999999
 21
703.725
 31
0.0
  0
LINE
  5
1A9
330
120
100
AcDbEntity
  8
1
  6
Continuous
 62
     3
100
AcDbLine
 10
3390.887499999999
 20
542.6
 30
0.0
 11
3397.443749999997
 21
518.8875
 31
0.0
  0
LINE
  5
1AA
330
120
100
AcDbEntity
  8
1
  6
Continuous
 62
     3
100
AcDbLine
 10
3390.887499999999
 20
542.6
 30
0.0
 11
3384.331249999999
 21
518.8875
 31
0.0
  0
LINE
  5
1AB
330
120
100
AcDbEntity
  8
1
  6
Continuous
 62
     3
100
AcDbLine
 10
3384.331249999999
 20
518.8875
 30
0.0
 11
3397.443749999997
 21
518.8875
 31
0.0
  0
LINE
  5
1AC
330
120
100
AcDbEntity
  8
1
  6
Continuous
 62
     3
100
AcDbLine
 10
3390.887499999999
 20
696.2374999999997
 30
0.0
 11
3397.443749999997
 21
672.5249999999999
 31
0.0
  0
LINE
  5
1AD
330
120
100
AcDbEntity
  8
1
  6
Continuous
 62
     3
100
AcDbLine
 10
3390.887499999999
 20
696.2374999999997
 30
0.0
 11
3384.331249999999
 21
672.5249999999999
 31
0.0
  0
LINE
  5
1AE
330
120
100
AcDbEntity
  8
1
  6
Continuous
 62
     3
100
AcDbLine
 10
3384.331249999999
 20
672.5249999999999
 30
0.0
 11
3397.443749999997
 21
672.5249999999999
 31
0.0
  0
LINE
  5
1AF
330
120
100
AcDbEntity
  8
1
  6
Continuous
 62
     3
100
AcDbLine
 10
3274.118749999999
 20
696.2374999999997
 30
0.0
 11
3277.631249999998
 21
683.525
 31
0.0
  0
LINE
  5
1B0
330
120
100
AcDbEntity
  8
1
  6
Continuous
 62
     3
100
AcDbLine
 10
3274.118749999999
 20
696.2374999999997
 30
0.0
 11
3270.606249999999
 21
683.525
 31
0.0
  0
LINE
  5
1B1
330
120
100
AcDbEntity
  8
1
  6
Continuous
 62
     3
100
AcDbLine
 10
2293.287499999999
 20
457.7374999999998
 30
0.0
 11
2286.731249999999
 21
481.4499999999998
 31
0.0
  0
LINE
  5
1B2
330
120
100
AcDbEntity
  8
1
  6
Continuous
 62
     3
100
AcDbLine
 10
2293.287499999999
 20
457.7374999999998
 30
0.0
 11
2299.843749999999
 21
481.4499999999998
 31
0.0
  0
LINE
  5
1B3
330
120
100
AcDbEntity
  8
1
  6
Continuous
 62
     3
100
AcDbLine
 10
2299.843749999999
 20
481.4499999999998
 30
0.0
 11
2286.731249999999
 21
481.4499999999998
 31
0.0
  0
LINE
  5
1B6
330
120
100
AcDbEntity
  8
1
  6
Continuous
 62
     3
100
AcDbLine
 10
3390.887499999999
 20
587.2374999999997
 30
0.0
 11
3384.331249999999
 21
610.95
 31
0.0
  0
LINE
  5
1B7
330
120
100
AcDbEntity
  8
1
  6
Continuous
 62
     3
100
AcDbLine
 10
3390.887499999999
 20
587.2374999999997
 30
0.0
 11
3397.443749999997
 21
610.95
 31
0.0
  0
LINE
  5
1B8
330
120
100
AcDbEntity
  8
1
  6
Continuous
 62
     3
100
AcDbLine
 10
3397.443749999997
 20
610.95
 30
0.0
 11
3384.331249999999
 21
610.95
 31
0.0
  0
LINE
  5
1BB
330
120
100
AcDbEntity
  8
1
  6
Continuous
 62
     3
100
AcDbLine
 10
2727.562499999999
 20
850.81875
 30
0.0
 11
2751.274999999999
 21
857.375
 31
0.0
  0
LINE
  5
1BC
330
120
100
AcDbEntity
  8
1
  6
Continuous
 62
     3
100
AcDbLine
 10
2727.562499999999
 20
850.81875
 30
0.0
 11
2751.274999999999
 21
844.2625000000001
 31
0.0
  0
LINE
  5
1BD
330
120
100
AcDbEntity
  8
1
  6
Continuous
 62
     3
100
AcDbLine
 10
2751.274999999999
 20
844.2625000000001
 30
0.0
 11
2751.274999999999
 21
857.375
 31
0.0
  0
LINE
  5
1BE
330
120
100
AcDbEntity
  8
1
  6
Continuous
 62
     3
100
AcDbLine
 10
2651.362499999999
 20
296.6687499999998
 30
0.0
 11
2675.074999999999
 21
303.225
 31
0.0
  0
LINE
  5
1BF
330
120
100
AcDbEntity
  8
1
  6
Continuous
 62
     3
100
AcDbLine
 10
2651.362499999999
 20
296.6687499999998
 30
0.0
 11
2675.074999999999
 21
290.1124999999996
 31
0.0
  0
LINE
  5
1C0
330
120
100
AcDbEntity
  8
1
  6
Continuous
 62
     3
100
AcDbLine
 10
2675.074999999999
 20
290.1124999999996
 30
0.0
 11
2675.074999999999
 21
303.225
 31
0.0
  0
LINE
  5
1C1
330
120
100
AcDbEntity
  8
1
  6
Continuous
 62
     3
100
AcDbLine
 10
3059.768749999998
 20
297.66875
 30
0.0
 11
3083.481249999997
 21
304.225
 31
0.0
  0
LINE
  5
1C2
330
120
100
AcDbEntity
  8
1
  6
Continuous
 62
     3
100
AcDbLine
 10
3059.768749999998
 20
297.66875
 30
0.0
 11
3083.481249999997
 21
291.1124999999999
 31
0.0
  0
LINE
  5
1C3
330
120
100
AcDbEntity
  8
1
  6
Continuous
 62
     3
100
AcDbLine
 10
3083.481249999997
 20
291.1124999999999
 30
0.0
 11
3083.481249999997
 21
304.225
 31
0.0
  0
LINE
  5
1C4
330
120
100
AcDbEntity
  8
1
  6
Continuous
 62
     3
100
AcDbLine
 10
3091.324999999999
 20
428.09375
 30
0.0
 11
3115.037499999997
 21
434.6499999999998
 31
0.0
  0
LINE
  5
1C5
330
120
100
AcDbEntity
  8
1
  6
Continuous
 62
     3
100
AcDbLine
 10
3091.324999999999
 20
428.09375
 30
0.0
 11
3115.037499999997
 21
421.5374999999998
 31
0.0
  0
LINE
  5
1C6
330
120
100
AcDbEntity
  8
1
  6
Continuous
 62
     3
100
AcDbLine
 10
3115.037499999997
 20
421.5374999999998
 30
0.0
 11
3115.037499999997
 21
434.6499999999998
 31
0.0
  0
LINE
  5
1C7
330
120
100
AcDbEntity
  8
1
  6
Continuous
 62
     3
100
AcDbLine
 10
2791.562499999999
 20
296.6687499999998
 30
0.0
 11
2767.849999999999
 21
290.1124999999996
 31
0.0
  0
LINE
  5
1C8
330
120
100
AcDbEntity
  8
1
  6
Continuous
 62
     3
100
AcDbLine
 10
2791.562499999999
 20
296.6687499999998
 30
0.0
 11
2767.849999999999
 21
303.225
 31
0.0
  0
LINE
  5
1C9
330
120
100
AcDbEntity
  8
1
  6
Continuous
 62
     3
100
AcDbLine
 10
2767.849999999999
 20
303.225
 30
0.0
 11
2767.849999999999
 21
290.1124999999996
 31
0.0
  0
LINE
  5
1CA
330
120
100
AcDbEntity
  8
1
  6
Continuous
 62
     3
100
AcDbLine
 10
3058.824999999998
 20
428.09375
 30
0.0
 11
3035.112499999995
 21
421.5374999999998
 31
0.0
  0
LINE
  5
1CB
330
120
100
AcDbEntity
  8
1
  6
Continuous
 62
     3
100
AcDbLine
 10
3058.824999999998
 20
428.09375
 30
0.0
 11
3035.112499999995
 21
434.6499999999998
 31
0.0
  0
LINE
  5
1CC
330
120
100
AcDbEntity
  8
1
  6
Continuous
 62
     3
100
AcDbLine
 10
3035.112499999995
 20
434.6499999999998
 30
0.0
 11
3035.112499999995
 21
421.5374999999998
 31
0.0
  0
LINE
  5
1CD
330
120
100
AcDbEntity
  8
1
  6
Continuous
 62
     3
100
AcDbLine
 10
2855.562499999999
 20
850.81875
 30
0.0
 11
2831.849999999999
 21
844.2625000000001
 31
0.0
  0
LINE
  5
1CE
330
120
100
AcDbEntity
  8
1
  6
Continuous
 62
     3
100
AcDbLine
 10
2855.562499999999
 20
850.81875
 30
0.0
 11
2831.849999999999
 21
857.375
 31
0.0
  0
LINE
  5
1CF
330
120
100
AcDbEntity
  8
1
  6
Continuous
 62
     3
100
AcDbLine
 10
2831.849999999999
 20
857.375
 30
0.0
 11
2831.849999999999
 21
844.2625000000001
 31
0.0
  0
LINE
  5
1D0
330
120
100
AcDbEntity
  8
1
  6
Continuous
 62
     3
100
AcDbLine
 10
2791.562499999999
 20
850.81875
 30
0.0
 11
2815.274999999999
 21
857.375
 31
0.0
  0
LINE
  5
1D1
330
120
100
AcDbEntity
  8
1
  6
Continuous
 62
     3
100
AcDbLine
 10
2791.562499999999
 20
850.81875
 30
0.0
 11
2815.274999999999
 21
844.2625000000001
 31
0.0
  0
LINE
  5
1D2
330
120
100
AcDbEntity
  8
1
  6
Continuous
 62
     3
100
AcDbLine
 10
2815.274999999999
 20
844.2625000000001
 30
0.0
 11
2815.274999999999
 21
857.375
 31
0.0
  0
LINE
  5
1D3
330
120
100
AcDbEntity
  8
1
  6
Continuous
 62
     3
100
AcDbLine
 10
2791.562499999999
 20
850.81875
 30
0.0
 11
2767.849999999999
 21
844.2625000000001
 31
0.0
  0
LINE
  5
1D4
330
120
100
AcDbEntity
  8
1
  6
Continuous
 62
     3
100
AcDbLine
 10
2791.562499999999
 20
850.81875
 30
0.0
 11
2767.849999999999
 21
857.375
 31
0.0
  0
LINE
  5
1D5
330
120
100
AcDbEntity
  8
1
  6
Continuous
 62
     3
100
AcDbLine
 10
2767.849999999999
 20
857.375
 30
0.0
 11
2767.849999999999
 21
844.2625000000001
 31
0.0
  0
LINE
  5
1D6
330
120
100
AcDbEntity
  8
1
  6
Continuous
 62
     3
100
AcDbLine
 10
3157.824999999999
 20
297.66875
 30
0.0
 11
3134.112499999998
 21
291.1124999999999
 31
0.0
  0
LINE
  5
1D7
330
120
100
AcDbEntity
  8
1
  6
Continuous
 62
     3
100
AcDbLine
 10
3157.824999999999
 20
297.66875
 30
0.0
 11
3134.112499999998
 21
304.225
 31
0.0
  0
LINE
  5
1D8
330
120
100
AcDbEntity
  8
1
  6
Continuous
 62
     3
100
AcDbLine
 10
3134.112499999998
 20
304.225
 30
0.0
 11
3134.112499999998
 21
291.1124999999999
 31
0.0
  0
LINE
  5
1DD
330
120
100
AcDbEntity
  8
1
  6
Continuous
 62
     3
100
AcDbLine
 10
2293.287499999999
 20
587.2374999999997
 30
0.0
 11
2286.731249999999
 21
610.95
 31
0.0
  0
LINE
  5
1DE
330
120
100
AcDbEntity
  8
1
  6
Continuous
 62
     3
100
AcDbLine
 10
2293.287499999999
 20
587.2374999999997
 30
0.0
 11
2299.843749999999
 21
610.95
 31
0.0
  0
LINE
  5
1DF
330
120
100
AcDbEntity
  8
1
  6
Continuous
 62
     3
100
AcDbLine
 10
2299.843749999999
 20
610.95
 30
0.0
 11
2286.731249999999
 21
610.95
 31
0.0
  0
LINE
  5
1E6
330
120
100
AcDbEntity
  8
1
  6
Continuous
 62
     3
100
AcDbLine
 10
2293.287499999999
 20
587.2374999999997
 30
0.0
 11
2299.843749999999
 21
563.525
 31
0.0
  0
LINE
  5
1E7
330
120
100
AcDbEntity
  8
1
  6
Continuous
 62
     3
100
AcDbLine
 10
2293.287499999999
 20
587.2374999999997
 30
0.0
 11
2286.731249999999
 21
563.525
 31
0.0
  0
LINE
  5
1E8
330
120
100
AcDbEntity
  8
1
  6
Continuous
 62
     3
100
AcDbLine
 10
2286.731249999999
 20
563.525
 30
0.0
 11
2299.843749999999
 21
563.525
 31
0.0
  0
LINE
  5
1EB
330
120
100
AcDbEntity
  8
1
  6
Continuous
 62
     3
100
AcDbLine
 10
2913.475
 20
485.5812499999998
 30
0.0
 11
2934.881249999999
 21
473.4499999999997
 31
0.0
  0
LINE
  5
1EC
330
120
100
AcDbEntity
  8
1
  6
Continuous
 62
     3
100
AcDbLine
 10
2913.475
 20
485.5812499999998
 30
0.0
 11
2925.606249999999
 21
464.1812499999998
 31
0.0
  0
LINE
  5
1ED
330
120
100
AcDbEntity
  8
1
  6
Continuous
 62
     3
100
AcDbLine
 10
2925.606249999999
 20
464.1812499999998
 30
0.0
 11
2934.881249999999
 21
473.4499999999997
 31
0.0
  0
LINE
  5
1EE
330
120
100
AcDbEntity
  8
1
  6
Continuous
 62
     3
100
AcDbLine
 10
2958.112499999999
 20
440.94375
 30
0.0
 11
2936.712499999999
 21
453.0749999999998
 31
0.0
  0
LINE
  5
1EF
330
120
100
AcDbEntity
  8
1
  6
Continuous
 62
     3
100
AcDbLine
 10
2958.112499999999
 20
440.94375
 30
0.0
 11
2945.981249999999
 21
462.34375
 31
0.0
  0
LINE
  5
1F0
330
120
100
AcDbEntity
  8
1
  6
Continuous
 62
     3
100
AcDbLine
 10
2945.981249999999
 20
462.34375
 30
0.0
 11
2936.712499999999
 21
453.0749999999998
 31
0.0
  0
LINE
  5
1F1
330
120
100
AcDbEntity
  8
2
  6
Continuous
 62
     3
100
AcDbLine
 10
2815.274999999999
 20
850.81875
 30
0.0
 11
2831.849999999999
 21
850.81875
 31
0.0
  0
LINE
  5
1F2
330
120
100
AcDbEntity
  8
1
  6
Continuous
 62
     3
100
AcDbLine
 10
2759.562499999999
 20
896.80625
 30
0.0
 11
2759.562499999999
 21
850.81875
 31
0.0
  0
LINE
  5
1F3
330
120
100
AcDbEntity
  8
1
  6
Continuous
 62
     3
100
AcDbLine
 10
2823.562499999999
 20
898.60625
 30
0.0
 11
2823.562499999999
 21
850.81875
 31
0.0
  0
LINE
  5
1F4
330
120
100
AcDbEntity
  8
1
  6
Continuous
 62
     3
100
AcDbLine
 10
2711.431249999999
 20
896.80625
 30
0.0
 11
2759.562499999999
 21
896.80625
 31
0.0
  0
LINE
  5
1F5
330
120
100
AcDbEntity
  8
1
  6
Continuous
 62
     3
100
AcDbLine
 10
2711.431249999999
 20
925.5812499999999
 30
0.0
 11
2711.431249999999
 21
896.80625
 31
0.0
  0
LINE
  5
1F6
330
120
100
AcDbEntity
  8
1
  6
Continuous
 62
     3
100
AcDbLine
 10
2871.69375
 20
927.38125
 30
0.0
 11
2871.69375
 21
898.60625
 31
0.0
  0
LINE
  5
1FB
330
120
100
AcDbEntity
  8
2
  6
Continuous
 62
     3
100
AcDbLine
 10
2944.199999999999
 20
638.2374999999997
 30
0.0
 11
3286.431249999999
 21
638.2374999999997
 31
0.0
  0
LINE
  5
200
330
120
100
AcDbEntity
  8
1
  6
Continuous
 62
     3
100
AcDbLine
 10
3390.887499999999
 20
672.5249999999999
 30
0.0
 11
3390.887499999999
 21
662.0
 31
0.0
  0
LINE
  5
201
330
120
100
AcDbEntity
  8
1
  6
Continuous
 62
     3
100
AcDbLine
 10
3390.887499999999
 20
626.0
 30
0.0
 11
3390.887499999999
 21
610.95
 31
0.0
  0
LINE
  5
203
330
120
100
AcDbEntity
  8
1
  6
Continuous
 62
     3
100
AcDbLine
 10
2293.287499999999
 20
703.725
 30
0.0
 11
2293.287499999999
 21
680.0
 31
0.0
  0
LINE
  5
204
330
120
100
AcDbEntity
  8
1
  6
Continuous
 62
     3
100
AcDbLine
 10
2293.287499999999
 20
641.0
 30
0.0
 11
2293.287499999999
 21
610.95
 31
0.0
  0
LINE
  5
205
330
120
100
AcDbEntity
  8
1
  6
Continuous
 62
     3
100
AcDbLine
 10
2293.287499999999
 20
563.525
 30
0.0
 11
2293.287499999999
 21
540.0
 31
0.0
  0
LINE
  5
206
330
120
100
AcDbEntity
  8
1
  6
Continuous
 62
     3
100
AcDbLine
 10
2293.287499999999
 20
509.0
 30
0.0
 11
2293.287499999999
 21
481.4499999999998
 31
0.0
  0
LINE
  5
222
330
120
100
AcDbEntity
  8
21
  6
Continuous
 62
     7
100
AcDbLine
 10
504.01875
 20
701.5374999999899
 30
0.0
 11
504.7869967639923
 21
685.8994778675459
 31
0.0
  0
LINE
  5
223
330
120
100
AcDbEntity
  8
21
  6
Continuous
 62
     7
100
AcDbLine
 10
504.7869967639923
 20
685.8994778675459
 30
0.0
 11
507.0843384196662
 21
670.4120584368394
 31
0.0
  0
LINE
  5
224
330
120
100
AcDbEntity
  8
21
  6
Continuous
 62
     7
100
AcDbLine
 10
507.0843384196662
 20
670.4120584368394
 30
0.0
 11
510.8886503110242
 21
655.2243940232831
 31
0.0
  0
LINE
  5
225
330
120
100
AcDbEntity
  8
21
  6
Continuous
 62
     7
100
AcDbLine
 10
510.8886503110242
 20
655.2243940232831
 30
0.0
 11
516.1632948349015
 21
640.4827501376023
 31
0.0
  0
LINE
  5
226
330
120
100
AcDbEntity
  8
21
  6
Continuous
 62
     7
100
AcDbLine
 10
516.1632948349015
 20
640.4827501376023
 30
0.0
 11
522.8574742811217
 21
626.3290968690171
 31
0.0
  0
LINE
  5
227
330
120
100
AcDbEntity
  8
21
  6
Continuous
 62
     7
100
AcDbLine
 10
522.8574742811217
 20
626.3290968690171
 30
0.0
 11
530.9067200422053
 21
612.8997416356789
 31
0.0
  0
LINE
  5
228
330
120
100
AcDbEntity
  8
21
  6
Continuous
 62
     7
100
AcDbLine
 10
530.9067200422053
 20
612.8997416356789
 30
0.0
 11
540.2335134813085
 21
600.3240164697164
 31
0.0
  0
LINE
  5
229
330
120
100
AcDbEntity
  8
21
  6
Continuous
 62
     7
100
AcDbLine
 10
540.2335134813085
 20
600.3240164697164
 30
0.0
 11
550.7480324790678
 21
588.7230324790687
 31
0.0
  0
LINE
  5
22A
330
120
100
AcDbEntity
  8
21
  6
Continuous
 62
     7
100
AcDbLine
 10
550.7480324790678
 20
588.7230324790687
 30
0.0
 11
562.3490164697155
 21
578.2085134813089
 31
0.0
  0
LINE
  5
22B
330
120
100
AcDbEntity
  8
21
  6
Continuous
 62
     7
100
AcDbLine
 10
562.3490164697155
 20
578.2085134813089
 30
0.0
 11
574.9247416356784
 21
568.8817200422062
 31
0.0
  0
LINE
  5
22C
330
120
100
AcDbEntity
  8
21
  6
Continuous
 62
     7
100
AcDbLine
 10
574.9247416356784
 20
568.8817200422062
 30
0.0
 11
588.354096869016
 21
560.8324742811223
 31
0.0
  0
LINE
  5
22D
330
120
100
AcDbEntity
  8
21
  6
Continuous
 62
     7
100
AcDbLine
 10
588.354096869016
 20
560.8324742811223
 30
0.0
 11
602.5077501376018
 21
554.1382948349025
 31
0.0
  0
LINE
  5
22E
330
120
100
AcDbEntity
  8
21
  6
Continuous
 62
     7
100
AcDbLine
 10
602.5077501376018
 20
554.1382948349025
 30
0.0
 11
617.2493940232826
 21
548.8636503110247
 31
0.0
  0
LINE
  5
22F
330
120
100
AcDbEntity
  8
21
  6
Continuous
 62
     7
100
AcDbLine
 10
617.2493940232826
 20
548.8636503110247
 30
0.0
 11
632.4370584368387
 21
545.0593384196667
 31
0.0
  0
LINE
  5
230
330
120
100
AcDbEntity
  8
21
  6
Continuous
 62
     7
100
AcDbLine
 10
632.4370584368387
 20
545.0593384196667
 30
0.0
 11
647.9244778675449
 21
542.7619967639929
 31
0.0
  0
LINE
  5
231
330
120
100
AcDbEntity
  8
21
  6
Continuous
 62
     7
100
AcDbLine
 10
647.9244778675449
 20
542.7619967639929
 30
0.0
 11
663.5624999999995
 21
541.9937500000002
 31
0.0
  0
LINE
  5
232
330
120
100
AcDbEntity
  8
21
  6
Continuous
 62
     7
100
AcDbLine
 10
594.5062499999997
 20
701.5375000000001
 30
0.0
 11
594.8387747187426
 21
694.7688038531168
 31
0.0
  0
LINE
  5
233
330
120
100
AcDbEntity
  8
21
  6
Continuous
 62
     7
100
AcDbLine
 10
594.8387747187426
 20
694.7688038531168
 30
0.0
 11
595.8331464801534
 21
688.0652939502739
 31
0.0
  0
LINE
  5
234
330
120
100
AcDbEntity
  8
21
  6
Continuous
 62
     7
100
AcDbLine
 10
595.8331464801534
 20
688.0652939502739
 30
0.0
 11
597.4797889405921
 21
681.4915287563467
 31
0.0
  0
LINE
  5
235
330
120
100
AcDbEntity
  8
21
  6
Continuous
 62
     7
100
AcDbLine
 10
597.4797889405921
 20
681.4915287563467
 30
0.0
 11
599.7628440330169
 21
675.1108172237384
 31
0.0
  0
LINE
  5
236
330
120
100
AcDbEntity
  8
21
  6
Continuous
 62
     7
100
AcDbLine
 10
599.7628440330169
 20
675.1108172237384
 30
0.0
 11
602.6603246888432
 21
668.98460909256
 31
0.0
  0
LINE
  5
237
330
120
100
AcDbEntity
  8
21
  6
Continuous
 62
     7
100
AcDbLine
 10
602.6603246888432
 20
668.98460909256
 30
0.0
 11
606.1443265854311
 21
663.1719030960399
 31
0.0
  0
LINE
  5
238
330
120
100
AcDbEntity
  8
21
  6
Continuous
 62
     7
100
AcDbLine
 10
606.1443265854311
 20
663.1719030960399
 30
0.0
 11
610.181296879969
 21
657.7286787704744
 31
0.0
  0
LINE
  5
239
330
120
100
AcDbEntity
  8
21
  6
Continuous
 62
     7
100
AcDbLine
 10
610.181296879969
 20
657.7286787704744
 30
0.0
 11
614.7323573416858
 21
652.7073573416865
 31
0.0
  0
LINE
  5
23A
330
120
100
AcDbEntity
  8
21
  6
Continuous
 62
     7
100
AcDbLine
 10
614.7323573416858
 20
652.7073573416865
 30
0.0
 11
619.7536787704737
 21
648.1562968799697
 31
0.0
  0
LINE
  5
23B
330
120
100
AcDbEntity
  8
21
  6
Continuous
 62
     7
100
AcDbLine
 10
619.7536787704737
 20
648.1562968799697
 30
0.0
 11
625.1969030960398
 21
644.1193265854326
 31
0.0
  0
LINE
  5
23C
330
120
100
AcDbEntity
  8
21
  6
Continuous
 62
     7
100
AcDbLine
 10
625.1969030960398
 20
644.1193265854326
 30
0.0
 11
631.0096090925592
 21
640.6353246888441
 31
0.0
  0
LINE
  5
23D
330
120
100
AcDbEntity
  8
21
  6
Continuous
 62
     7
100
AcDbLine
 10
631.0096090925592
 20
640.6353246888441
 30
0.0
 11
637.1358172237377
 21
637.7378440330176
 31
0.0
  0
LINE
  5
23E
330
120
100
AcDbEntity
  8
21
  6
Continuous
 62
     7
100
AcDbLine
 10
637.1358172237377
 20
637.7378440330176
 30
0.0
 11
643.5165287563461
 21
635.4547889405929
 31
0.0
  0
LINE
  5
23F
330
120
100
AcDbEntity
  8
21
  6
Continuous
 62
     7
100
AcDbLine
 10
643.5165287563461
 20
635.4547889405929
 30
0.0
 11
650.0902939502732
 21
633.8081464801546
 31
0.0
  0
LINE
  5
240
330
120
100
AcDbEntity
  8
21
  6
Continuous
 62
     7
100
AcDbLine
 10
650.0902939502732
 20
633.8081464801546
 30
0.0
 11
656.7938038531158
 21
632.8137747187433
 31
0.0
  0
LINE
  5
241
330
120
100
AcDbEntity
  8
21
  6
Continuous
 62
     7
100
AcDbLine
 10
656.7938038531158
 20
632.8137747187433
 30
0.0
 11
663.5624999999984
 21
632.4812500000005
 31
0.0
  0
LINE
  5
244
330
120
100
AcDbEntity
  8
21
  6
Continuous
 62
     7
100
AcDbLine
 10
1160.381250121075
 20
585.746875121079
 30
0.0
 11
1148.781664161049
 21
596.2618831069589
 31
0.0
  0
LINE
  5
245
330
120
100
AcDbEntity
  8
21
  6
Continuous
 62
     7
100
AcDbLine
 10
1148.781664161049
 20
596.2618831069589
 30
0.0
 11
1136.207281765237
 21
605.589300655118
 31
0.0
  0
LINE
  5
246
330
120
100
AcDbEntity
  8
21
  6
Continuous
 62
     7
100
AcDbLine
 10
1136.207281765237
 20
605.589300655118
 30
0.0
 11
1122.779201662869
 21
613.6392991344933
 31
0.0
  0
LINE
  5
247
330
120
100
AcDbEntity
  8
21
  6
Continuous
 62
     7
100
AcDbLine
 10
1122.779201662869
 20
613.6392991344933
 30
0.0
 11
1108.626743605846
 21
620.3343526591503
 31
0.0
  0
LINE
  5
248
330
120
100
AcDbEntity
  8
21
  6
Continuous
 62
     7
100
AcDbLine
 10
1108.626743605846
 20
620.3343526591503
 30
0.0
 11
1093.886203501789
 21
625.6099842037592
 31
0.0
  0
LINE
  5
249
330
120
100
AcDbEntity
  8
21
  6
Continuous
 62
     7
100
AcDbLine
 10
1093.886203501789
 20
625.6099842037592
 30
0.0
 11
1078.699540809906
 21
629.4153865525913
 31
0.0
  0
LINE
  5
24A
330
120
100
AcDbEntity
  8
21
  6
Continuous
 62
     7
100
AcDbLine
 10
1078.699540809906
 20
629.4153865525913
 30
0.0
 11
1063.213011393778
 21
631.7139116007831
 31
0.0
  0
LINE
  5
24B
330
120
100
AcDbEntity
  8
21
  6
Continuous
 62
     7
100
AcDbLine
 10
1063.213011393778
 20
631.7139116007831
 30
0.0
 11
1047.57575899749
 21
632.4834232956185
 31
0.0
  0
LINE
  5
24C
330
120
100
AcDbEntity
  8
21
  6
Continuous
 62
     7
100
AcDbLine
 10
1047.57575899749
 20
632.4834232956185
 30
0.0
 11
1047.531445401529
 21
632.4812499999998
 31
0.0
  0
LINE
  5
24D
330
120
100
AcDbEntity
  8
21
  6
Continuous
 62
     7
100
AcDbLine
 10
1096.396876485286
 20
521.7624983606055
 30
0.0
 11
1096.396874999999
 21
521.7625
 31
0.0
  0
LINE
  5
24E
330
120
100
AcDbEntity
  8
21
  6
Continuous
 62
     7
100
AcDbLine
 10
1096.396874999999
 20
521.7625
 30
0.0
 11
1091.376956170677
 21
526.3140452102383
 31
0.0
  0
LINE
  5
24F
330
120
100
AcDbEntity
  8
21
  6
Continuous
 62
     7
100
AcDbLine
 10
1091.376956170677
 20
526.3140452102383
 30
0.0
 11
1085.935080177022
 21
530.3516353978903
 31
0.0
  0
LINE
  5
250
330
120
100
AcDbEntity
  8
21
  6
Continuous
 62
     7
100
AcDbLine
 10
1085.935080177022
 20
530.3516353978903
 30
0.0
 11
1080.123655259671
 21
533.8363863622761
 31
0.0
  0
LINE
  5
251
330
120
100
AcDbEntity
  8
21
  6
Continuous
 62
     7
100
AcDbLine
 10
1080.123655259671
 20
533.8363863622761
 30
0.0
 11
1073.998648617433
 21
536.7347380466504
 31
0.0
  0
LINE
  5
252
330
120
100
AcDbEntity
  8
21
  6
Continuous
 62
     7
100
AcDbLine
 10
1073.998648617433
 20
536.7347380466504
 30
0.0
 11
1067.619047412538
 21
539.0187777398923
 31
0.0
  0
LINE
  5
253
330
120
100
AcDbEntity
  8
21
  6
Continuous
 62
     7
100
AcDbLine
 10
1067.619047412538
 20
539.0187777398923
 30
0.0
 11
1061.046290692037
 21
540.6665088911729
 31
0.0
  0
LINE
  5
254
330
120
100
AcDbEntity
  8
21
  6
Continuous
 62
     7
100
AcDbLine
 10
1061.046290692037
 20
540.6665088911729
 30
0.0
 11
1054.343677696185
 21
541.6620629487643
 31
0.0
  0
LINE
  5
255
330
120
100
AcDbEntity
  8
21
  6
Continuous
 62
     7
100
AcDbLine
 10
1054.343677696185
 20
541.6620629487643
 30
0.0
 11
1047.575758252148
 21
541.9958521828664
 31
0.0
  0
LINE
  5
256
330
120
100
AcDbEntity
  8
21
  6
Continuous
 62
     7
100
AcDbLine
 10
1047.575758252148
 20
541.9958521828664
 30
0.0
 11
1047.532799027095
 21
541.9937500000002
 31
0.0
  0
LINE
  5
257
330
120
100
AcDbEntity
  8
21
  6
Continuous
 62
     7
100
AcDbLine
 10
1096.387981174751
 20
521.7723111842238
 30
0.0
 11
1096.396876485286
 21
521.7624983606055
 31
0.0
  0
LINE
  5
258
330
120
100
AcDbEntity
  8
21
  6
Continuous
 62
     7
100
AcDbLine
 10
1096.396876485286
 20
521.7624983606055
 30
0.0
 11
1107.999174774629
 21
511.2485444351571
 31
0.0
  0
LINE
  5
259
330
120
100
AcDbEntity
  8
21
  6
Continuous
 62
     7
100
AcDbLine
 10
1107.999174774629
 20
511.2485444351571
 30
0.0
 11
1120.576152523813
 21
501.9224421711877
 31
0.0
  0
LINE
  5
25A
330
120
100
AcDbEntity
  8
21
  6
Continuous
 62
     7
100
AcDbLine
 10
1120.576152523813
 20
501.9224421711877
 30
0.0
 11
1134.00668656183
 21
493.8740070316653
 31
0.0
  0
LINE
  5
25B
330
120
100
AcDbEntity
  8
21
  6
Continuous
 62
     7
100
AcDbLine
 10
1134.00668656183
 20
493.8740070316653
 30
0.0
 11
1148.16143350402
 21
487.1807498467066
 31
0.0
  0
LINE
  5
25C
330
120
100
AcDbEntity
  8
21
  6
Continuous
 62
     7
100
AcDbLine
 10
1148.16143350402
 20
487.1807498467066
 30
0.0
 11
1162.904075399555
 21
481.9071303419083
 31
0.0
  0
LINE
  5
25D
330
120
100
AcDbEntity
  8
21
  6
Continuous
 62
     7
100
AcDbLine
 10
1162.904075399555
 20
481.9071303419083
 30
0.0
 11
1178.09263254784
 21
478.1039363559561
 31
0.0
  0
LINE
  5
25E
330
120
100
AcDbEntity
  8
21
  6
Continuous
 62
     7
100
AcDbLine
 10
1178.09263254784
 20
478.1039363559561
 30
0.0
 11
1193.580830840622
 21
475.8077947259714
 31
0.0
  0
LINE
  5
25F
330
120
100
AcDbEntity
  8
21
  6
Continuous
 62
     7
100
AcDbLine
 10
1193.580830840622
 20
475.8077947259714
 30
0.0
 11
1209.219510461628
 21
475.04081855105
 31
0.0
  0
LINE
  5
260
330
120
100
AcDbEntity
  8
21
  6
Continuous
 62
     7
100
AcDbLine
 10
1209.219510461628
 20
475.04081855105
 30
0.0
 11
1209.954307280131
 21
475.0769780218436
 31
0.0
  0
LINE
  5
261
330
120
100
AcDbEntity
  8
21
  6
Continuous
 62
     7
100
AcDbLine
 10
1160.372376581851
 20
585.7566618948381
 30
0.0
 11
1160.381250673958
 21
585.7468746198892
 31
0.0
  0
LINE
  5
262
330
120
100
AcDbEntity
  8
21
  6
Continuous
 62
     7
100
AcDbLine
 10
1160.381250673958
 20
585.7468746198892
 30
0.0
 11
1165.403881126177
 21
581.1963838177935
 31
0.0
  0
LINE
  5
263
330
120
100
AcDbEntity
  8
21
  6
Continuous
 62
     7
100
AcDbLine
 10
1165.403881126177
 20
581.1963838177935
 30
0.0
 11
1170.848352335455
 21
577.1601087465442
 31
0.0
  0
LINE
  5
264
330
120
100
AcDbEntity
  8
21
  6
Continuous
 62
     7
100
AcDbLine
 10
1170.848352335455
 20
577.1601087465442
 30
0.0
 11
1176.662231067804
 21
573.6769209415292
 31
0.0
  0
LINE
  5
265
330
120
100
AcDbEntity
  8
21
  6
Continuous
 62
     7
100
AcDbLine
 10
1176.662231067804
 20
573.6769209415292
 30
0.0
 11
1182.78952649284
 21
570.7803654054148
 31
0.0
  0
LINE
  5
266
330
120
100
AcDbEntity
  8
21
  6
Continuous
 62
     7
100
AcDbLine
 10
1182.78952649284
 20
570.7803654054148
 30
0.0
 11
1189.171229406102
 21
568.4983375514325
 31
0.0
  0
LINE
  5
267
330
120
100
AcDbEntity
  8
21
  6
Continuous
 62
     7
100
AcDbLine
 10
1189.171229406102
 20
568.4983375514325
 30
0.0
 11
1195.745880519933
 21
566.8528145552993
 31
0.0
  0
LINE
  5
268
330
120
100
AcDbEntity
  8
21
  6
Continuous
 62
     7
100
AcDbLine
 10
1195.745880519933
 20
566.8528145552993
 30
0.0
 11
1202.450162350053
 21
565.8596437030028
 31
0.0
  0
LINE
  5
269
330
120
100
AcDbEntity
  8
21
  6
Continuous
 62
     7
100
AcDbLine
 10
1202.450162350053
 20
565.8596437030028
 30
0.0
 11
1209.219508997487
 21
565.528389772772
 31
0.0
  0
LINE
  5
26A
330
120
100
AcDbEntity
  8
21
  6
Continuous
 62
     7
100
AcDbLine
 10
1209.219508997487
 20
565.528389772772
 30
0.0
 11
1209.954295528818
 21
565.5646289309946
 31
0.0
  0
LINE
  5
27D
330
120
100
AcDbEntity
  8
-1
  6
Continuous
 62
     5
100
AcDbLine
 10
2711.152640134322
 20
949.7332151554942
 30
0.0
 11
2721.152640134322
 21
949.7332151554942
 31
0.0
  0
LINE
  5
27E
330
120
100
AcDbEntity
  8
-1
  6
Continuous
 62
     5
100
AcDbLine
 10
2871.762566006631
 20
949.7332151554942
 30
0.0
 11
2881.762566006631
 21
949.7332151554942
 31
0.0
  0
LINE
  5
27F
330
120
100
AcDbEntity
  8
-1
  6
Continuous
 62
     5
100
AcDbLine
 10
2472.26777971959
 20
559.1284815610897
 30
0.0
 11
2482.26777971959
 21
559.1284815610897
 31
0.0
  0
LINE
  5
285
330
120
100
AcDbEntity
  8
1
  6
Continuous
 62
     3
100
AcDbLine
 10
3270.606249999999
 20
683.525
 30
0.0
 11
3277.631249999998
 21
683.525
 31
0.0
  0
LINE
  5
287
330
120
100
AcDbEntity
  8
1
  6
Continuous
 62
     3
100
AcDbLine
 10
3270.606249999999
 20
650.9499999999992
 30
0.0
 11
3277.631249999998
 21
650.9499999999992
 31
0.0
  0
LINE
  5
288
330
120
100
AcDbEntity
  8
1
  6
Continuous
 62
     3
100
AcDbLine
 10
3274.118749999999
 20
638.2374999999997
 30
0.0
 11
3277.631249999998
 21
650.9499999999992
 31
0.0
  0
LINE
  5
289
330
120
100
AcDbEntity
  8
1
  6
Continuous
 62
     3
100
AcDbLine
 10
3274.118749999999
 20
638.2374999999997
 30
0.0
 11
3270.606249999999
 21
650.9499999999992
 31
0.0
  0
LINE
  5
28C
330
120
100
AcDbEntity
  8
1
  6
Continuous
 62
     3
100
AcDbLine
 10
3270.606249999999
 20
599.9499999999994
 30
0.0
 11
3277.631249999998
 21
599.9499999999994
 31
0.0
  0
LINE
  5
28D
330
120
100
AcDbEntity
  8
1
  6
Continuous
 62
     3
100
AcDbLine
 10
3274.118749999999
 20
587.2374999999997
 30
0.0
 11
3277.631249999998
 21
599.9499999999994
 31
0.0
  0
LINE
  5
28E
330
120
100
AcDbEntity
  8
1
  6
Continuous
 62
     3
100
AcDbLine
 10
3274.118749999999
 20
587.2374999999997
 30
0.0
 11
3270.606249999999
 21
599.9499999999994
 31
0.0
  0
LINE
  5
28F
330
120
100
AcDbEntity
  8
1
  6
Continuous
 62
     3
100
AcDbLine
 10
3270.606249999999
 20
625.525
 30
0.0
 11
3277.631249999998
 21
625.525
 31
0.0
  0
LINE
  5
290
330
120
100
AcDbEntity
  8
1
  6
Continuous
 62
     3
100
AcDbLine
 10
3274.118749999999
 20
638.2374999999997
 30
0.0
 11
3277.631249999998
 21
625.525
 31
0.0
  0
LINE
  5
291
330
120
100
AcDbEntity
  8
1
  6
Continuous
 62
     3
100
AcDbLine
 10
3274.118749999999
 20
638.2374999999997
 30
0.0
 11
3270.606249999999
 21
625.525
 31
0.0
  0
LINE
  5
297
330
120
100
AcDbEntity
  8
1
  6
Continuous
 62
     3
100
AcDbLine
 10
2466.768749999999
 20
663.4375
 30
0.0
 11
2470.281249999999
 21
650.7250000000002
 31
0.0
  0
LINE
  5
298
330
120
100
AcDbEntity
  8
1
  6
Continuous
 62
     3
100
AcDbLine
 10
2463.256249999999
 20
650.7250000000002
 30
0.0
 11
2470.281249999999
 21
650.7250000000002
 31
0.0
  0
LINE
  5
299
330
120
100
AcDbEntity
  8
1
  6
Continuous
 62
     3
100
AcDbLine
 10
2463.256249999999
 20
676.1499999999998
 30
0.0
 11
2470.281249999999
 21
676.1499999999998
 31
0.0
  0
LINE
  5
29A
330
120
100
AcDbEntity
  8
1
  6
Continuous
 62
     3
100
AcDbLine
 10
2466.768749999999
 20
663.4375
 30
0.0
 11
2470.281249999999
 21
676.1499999999998
 31
0.0
  0
LINE
  5
29B
330
120
100
AcDbEntity
  8
1
  6
Continuous
 62
     3
100
AcDbLine
 10
2466.768749999999
 20
663.4375
 30
0.0
 11
2463.256249999999
 21
676.1499999999998
 31
0.0
  0
LINE
  5
29C
330
120
100
AcDbEntity
  8
1
  6
Continuous
 62
     3
100
AcDbLine
 10
2466.768749999999
 20
663.4375
 30
0.0
 11
2463.256249999999
 21
650.7250000000002
 31
0.0
  0
LINE
  5
29D
330
120
100
AcDbEntity
  8
1
  6
Continuous
 62
     3
100
AcDbLine
 10
2466.768749999999
 20
587.2374999999997
 30
0.0
 11
2463.256249999999
 21
574.5249999999996
 31
0.0
  0
LINE
  5
29E
330
120
100
AcDbEntity
  8
1
  6
Continuous
 62
     3
100
AcDbLine
 10
2466.768749999999
 20
587.2374999999997
 30
0.0
 11
2463.256249999999
 21
599.9499999999994
 31
0.0
  0
LINE
  5
29F
330
120
100
AcDbEntity
  8
1
  6
Continuous
 62
     3
100
AcDbLine
 10
2463.256249999999
 20
599.9499999999994
 30
0.0
 11
2470.281249999999
 21
599.9499999999994
 31
0.0
  0
LINE
  5
2A0
330
120
100
AcDbEntity
  8
1
  6
Continuous
 62
     3
100
AcDbLine
 10
2463.256249999999
 20
574.5249999999996
 30
0.0
 11
2470.281249999999
 21
574.5249999999996
 31
0.0
  0
LINE
  5
2A1
330
120
100
AcDbEntity
  8
1
  6
Continuous
 62
     3
100
AcDbLine
 10
2466.768749999999
 20
587.2374999999997
 30
0.0
 11
2470.281249999999
 21
574.5249999999996
 31
0.0
  0
LINE
  5
2A2
330
120
100
AcDbEntity
  8
1
  6
Continuous
 62
     3
100
AcDbLine
 10
2466.768749999999
 20
587.2374999999997
 30
0.0
 11
2470.281249999999
 21
599.9499999999994
 31
0.0
  0
LINE
  5
2A3
330
120
100
AcDbEntity
  8
1
  6
Continuous
 62
     3
100
AcDbLine
 10
2466.768749999999
 20
522.7
 30
0.0
 11
2463.256249999999
 21
509.9875000000003
 31
0.0
  0
LINE
  5
2A4
330
120
100
AcDbEntity
  8
1
  6
Continuous
 62
     3
100
AcDbLine
 10
2466.768749999999
 20
522.7
 30
0.0
 11
2463.256249999999
 21
535.4124999999998
 31
0.0
  0
LINE
  5
2A5
330
120
100
AcDbEntity
  8
1
  6
Continuous
 62
     3
100
AcDbLine
 10
2463.256249999999
 20
535.4124999999998
 30
0.0
 11
2470.281249999999
 21
535.4124999999998
 31
0.0
  0
LINE
  5
2A6
330
120
100
AcDbEntity
  8
1
  6
Continuous
 62
     3
100
AcDbLine
 10
2463.256249999999
 20
509.9875000000003
 30
0.0
 11
2470.281249999999
 21
509.9875000000003
 31
0.0
  0
LINE
  5
2A7
330
120
100
AcDbEntity
  8
1
  6
Continuous
 62
     3
100
AcDbLine
 10
2466.768749999999
 20
522.7
 30
0.0
 11
2470.281249999999
 21
509.9875000000003
 31
0.0
  0
LINE
  5
2A8
330
120
100
AcDbEntity
  8
1
  6
Continuous
 62
     3
100
AcDbLine
 10
2466.768749999999
 20
522.7
 30
0.0
 11
2470.281249999999
 21
535.4124999999998
 31
0.0
  0
LINE
  5
2AD
330
120
100
AcDbEntity
  8
1
  6
Continuous
 62
     3
100
AcDbLine
 10
2466.768749999999
 20
457.7374999999998
 30
0.0
 11
2470.281249999999
 21
470.4499999999995
 31
0.0
  0
LINE
  5
2AE
330
120
100
AcDbEntity
  8
1
  6
Continuous
 62
     3
100
AcDbLine
 10
2463.256249999999
 20
470.4499999999995
 30
0.0
 11
2470.281249999999
 21
470.4499999999995
 31
0.0
  0
LINE
  5
2AF
330
120
100
AcDbEntity
  8
1
  6
Continuous
 62
     3
100
AcDbLine
 10
2466.768749999999
 20
457.7374999999998
 30
0.0
 11
2463.256249999999
 21
470.4499999999995
 31
0.0
  0
LINE
  5
2B0
330
120
100
AcDbEntity
  8
1
  6
Continuous
 62
     3
100
AcDbLine
 10
2463.256249999999
 20
714.7250000000002
 30
0.0
 11
2470.281249999999
 21
714.7250000000002
 31
0.0
  0
LINE
  5
2B1
330
120
100
AcDbEntity
  8
1
  6
Continuous
 62
     3
100
AcDbLine
 10
2466.768749999999
 20
727.4375
 30
0.0
 11
2470.281249999999
 21
714.7250000000002
 31
0.0
  0
LINE
  5
2B2
330
120
100
AcDbEntity
  8
1
  6
Continuous
 62
     3
100
AcDbLine
 10
2466.768749999999
 20
727.4375
 30
0.0
 11
2463.256249999999
 21
714.7250000000002
 31
0.0
  0
LINE
  5
2BD
330
120
100
AcDbEntity
  8
-1
  6
Continuous
 62
     5
100
AcDbLine
 10
2473.862998938849
 20
633.3816291656058
 30
0.0
 11
2484.862998938849
 21
633.3816291656058
 31
0.0
  0
LINE
  5
2C9
330
120
100
AcDbEntity
  8
-1
  6
Continuous
 62
     5
100
AcDbLine
 10
2467.4539354568
 20
698.4245638444617
 30
0.0
 11
2480.4539354568
 21
698.4245638444617
 31
0.0
  0
LINE
  5
2CA
330
120
100
AcDbEntity
  8
-1
  6
Continuous
 62
     5
100
AcDbLine
 10
2467.4539354568
 20
494.9190149186646
 30
0.0
 11
2480.4539354568
 21
494.9190149186646
 31
0.0
  0
LINE
  5
2CC
330
120
100
AcDbEntity
  8
-1
  6
Continuous
 62
     5
100
AcDbLine
 10
3275.681854353702
 20
670.7624474455647
 30
0.0
 11
3296.681854353701
 21
670.7624474455647
 31
0.0
  0
LINE
  5
2CD
330
120
100
AcDbEntity
  8
-1
  6
Continuous
 62
     5
100
AcDbLine
 10
2292.479822227933
 20
663.0168265591802
 30
0.0
 11
2307.479822227934
 21
663.0168265591802
 31
0.0
  0
LINE
  5
2CE
330
120
100
AcDbEntity
  8
-1
  6
Continuous
 62
     5
100
AcDbLine
 10
2293.224791019367
 20
526.758135447621
 30
0.0
 11
2309.224791019367
 21
526.758135447621
 31
0.0
  0
LINE
  5
2CF
330
120
100
AcDbEntity
  8
-1
  6
Continuous
 62
     5
100
AcDbLine
 10
2721.553140441323
 20
259.5501134313515
 30
0.0
 11
2738.553140441323
 21
259.5501134313515
 31
0.0
  0
LINE
  5
2D0
330
120
100
AcDbEntity
  8
-1
  6
Continuous
 62
     5
100
AcDbLine
 10
2873.627662889882
 20
267.1926255561463
 30
0.0
 11
2892.627662889882
 21
267.1926255561463
 31
0.0
  0
LINE
  5
2D1
330
120
100
AcDbEntity
  8
-1
  6
Continuous
 62
     5
100
AcDbLine
 10
3109.831888734035
 20
264.8217398391243
 30
0.0
 11
3127.831888734034
 21
264.8217398391243
 31
0.0
  0
LINE
  5
2D2
330
120
100
AcDbEntity
  8
-1
  6
Continuous
 62
     5
100
AcDbLine
 10
3390.594310955417
 20
568.0170447747151
 30
0.0
 11
3410.594310955417
 21
568.0170447747151
 31
0.0
  0
LINE
  5
2D3
330
120
100
AcDbEntity
  8
-1
  6
Continuous
 62
     5
100
AcDbLine
 10
3390.594310955417
 20
647.0413537630848
 30
0.0
 11
3412.594310955418
 21
647.0413537630848
 31
0.0
  0
LINE
  5
2D4
330
120
100
AcDbEntity
  8
-1
  6
Continuous
 62
     5
100
AcDbLine
 10
3275.681854353702
 20
618.3234185535972
 30
0.0
 11
3289.6818543537
 21
618.3234185535972
 31
0.0
  0
LINE
  5
2FE
330
120
100
AcDbEntity
  8
-1
  6
Continuous
 62
     5
100
AcDbLine
 10
2987.27393477945
 20
234.6791279345199
 30
0.0
 11
2999.27393477945
 21
234.6791279345199
 31
0.0
  0
ENDSEC
  0
SECTION
  2
OBJECTS
  0
DICTIONARY
  5
10E
330
0
100
AcDbDictionary
281
     1
  3
ACAD_GROUP
350
10F
  3
ACAD_PLOTSTYLENAME
350
110
  3
ACAD_MLINESTYLE
350
118
  3
ACAD_PLOTSETTINGS
350
11A
  3
ACAD_LAYOUT
350
11B
  0
DICTIONARY
  5
276
330
275
100
AcDbDictionary
280
     1
281
     1
  3
ADSK_XREC_LAYER_RECONCILED
360
277
  0
DICTIONARY
  5
10F
102
{ACAD_REACTORS
330
10E
102
}
330
10E
100
AcDbDictionary
281
     1
  0
ACDBDICTIONARYWDFLT
  5
110
102
{ACAD_REACTORS
330
10E
102
}
330
10E
100
AcDbDictionary
281
     1
  3
Normal
350
111
100
AcDbDictionaryWithDefault
340
111
  0
DICTIONARY
  5
118
102
{ACAD_REACTORS
330
10E
102
}
330
10E
100
AcDbDictionary
281
     1
  3
Standard
350
119
  0
DICTIONARY
  5
11A
102
{ACAD_REACTORS
330
10E
102
}
330
10E
100
AcDbDictionary
281
     1
  0
DICTIONARY
  5
11B
102
{ACAD_REACTORS
330
10E
102
}
330
10E
100
AcDbDictionary
281
     1
  3
Layout1
350
11F
  3
Model
350
123
  0
XRECORD
  5
277
102
{ACAD_REACTORS
330
276
102
}
330
276
100
AcDbXrecord
280
     1
290
     1
  0
ACDBPLACEHOLDER
  5
111
102
{ACAD_REACTORS
330
110
102
}
330
110
  0
MLINESTYLE
  5
119
102
{ACAD_REACTORS
330
118
102
}
330
118
100
AcDbMlineStyle
  2
STANDARD
 70
     0
  3

 62
   256
 51
90.0
 52
90.0
 71
     2
 49
0.5
 62
   256
  6
BYLAYER
 49
-0.5
 62
   256
  6
BYLAYER
  0
LAYOUT
  5
11F
102
{ACAD_REACTORS
330
11B
102
}
330
11B
100
AcDbPlotSettings
  1

  2
HP DeskJet 840C/841C/842C/843C
  4

  6

 40
0.0
 41
0.0
 42
0.0
 43
0.0
 44
0.0
 45
0.0
 46
0.0
 47
0.0
 48
0.0
 49
0.0
140
0.0
141
0.0
142
1.0
143
1.0
 70
   688
 72
     0
 73
     0
 74
     5
  7

 75
    16
147
1.0
148
0.0
149
0.0
100
AcDbLayout
  1
Layout1
 70
     0
 71
     1
 10
0.0
 20
0.0
 11
12.0
 21
9.0
 12
0.0
 22
0.0
 32
0.0
 14
-1.000000000000000E+20
 24
-1.000000000000000E+20
 34
-1.000000000000000E+20
 15
-1.000000000000000E+20
 25
-1.000000000000000E+20
 35
-1.000000000000000E+20
146
0.0
 13
0.0
 23
0.0
 33
0.0
 16
1.0
 26
0.0
 36
0.0
 17
0.0
 27
1.0
 37
0.0
 76
     0
330
11C
  0
LAYOUT
  5
123
102
{ACAD_REACTORS
330
11B
102
}
330
11B
100
AcDbPlotSettings
  1

  2
HP DeskJet 840C/841C/842C/843C
  4

  6

 40
0.0
 41
0.0
 42
0.0
 43
0.0
 44
0.0
 45
0.0
 46
0.0
 47
0.0
 48
0.0
 49
0.0
140
0.0
141
0.0
142
1.0
143
1.0
 70
  1712
 72
     0
 73
     0
 74
     0
  7

 75
     0
147
1.0
148
0.0
149
0.0
100
AcDbLayout
  1
Model
 70
     1
 71
     0
 10
0.0
 20
0.0
 11
12.0
 21
9.0
 12
0.0
 22
0.0
 32
0.0
 14
0.0
 24
0.0
 34
0.0
 15
0.0
 25
0.0
 35
0.0
146
0.0
 13
0.0
 23
0.0
 33
0.0
 16
1.0
 26
0.0
 36
0.0
 17
0.0
 27
1.0
 37
0.0
 76
     0
330
120
  0
ENDSEC
  0
EOF
