  0
SECTION
  2
HEADER
  9
$ACADVER
  1
AC1015
  9
$ACADMAINTVER
 70
     6
  9
$DWGCODEPAGE
  3
ANSI_1252
  9
$INSBASE
 10
0.0
 20
0.0
 30
0.0
  9
$EXTMIN
 10
227.070812748595
 20
300.9505683757426
 30
-0.0015258207003583
  9
$EXTMAX
 10
1514.992030140699
 20
993.4870408288942
 30
0.0000000349246037
  9
$LIMMIN
 10
0.0
 20
0.0
  9
$LIMMAX
 10
12.0
 20
9.0
  9
$ORTHOMODE
 70
     1
  9
$REGENMODE
 70
     1
  9
$FILLMODE
 70
     1
  9
$QTEXTMODE
 70
     0
  9
$MIRRTEXT
 70
     1
  9
$LTSCALE
 40
1.0
  9
$ATTMODE
 70
     1
  9
$TEXTSIZE
 40
0.0
  9
$TRACEWID
 40
0.05
  9
$TEXTSTYLE
  7
STANDARD
  9
$CLAYER
  8
0
  9
$CELTYPE
  6
CONTINUOUS
  9
$CECOLOR
 62
   256
  9
$CELTSCALE
 40
1.0
  9
$DISPSILH
 70
     0
  9
$DIMSCALE
 40
1.0
  9
$DIMASZ
 40
0.18
  9
$DIMEXO
 40
0.0625
  9
$DIMDLI
 40
0.38
  9
$DIMRND
 40
0.0
  9
$DIMDLE
 40
0.0
  9
$DIMEXE
 40
0.18
  9
$DIMTP
 40
0.0
  9
$DIMTM
 40
0.0
  9
$DIMTXT
 40
0.18
  9
$DIMCEN
 40
0.09
  9
$DIMTSZ
 40
0.0
  9
$DIMTOL
 70
     0
  9
$DIMLIM
 70
     0
  9
$DIMTIH
 70
     1
  9
$DIMTOH
 70
     1
  9
$DIMSE1
 70
     0
  9
$DIMSE2
 70
     0
  9
$DIMTAD
 70
     0
  9
$DIMZIN
 70
     0
  9
$DIMBLK
  1

  9
$DIMASO
 70
     1
  9
$DIMSHO
 70
     1
  9
$DIMPOST
  1

  9
$DIMAPOST
  1

  9
$DIMALT
 70
     0
  9
$DIMALTD
 70
     2
  9
$DIMALTF
 40
25.4
  9
$DIMLFAC
 40
1.0
  9
$DIMTOFL
 70
     0
  9
$DIMTVP
 40
0.0
  9
$DIMTIX
 70
     0
  9
$DIMSOXD
 70
     0
  9
$DIMSAH
 70
     0
  9
$DIMBLK1
  1

  9
$DIMBLK2
  1

  9
$DIMSTYLE
  2
STANDARD
  9
$DIMCLRD
 70
     0
  9
$DIMCLRE
 70
     0
  9
$DIMCLRT
 70
     0
  9
$DIMTFAC
 40
1.0
  9
$DIMGAP
 40
0.09
  9
$DIMJUST
 70
     0
  9
$DIMSD1
 70
     0
  9
$DIMSD2
 70
     0
  9
$DIMTOLJ
 70
     1
  9
$DIMTZIN
 70
     0
  9
$DIMALTZ
 70
     0
  9
$DIMALTTZ
 70
     0
  9
$DIMUPT
 70
     0
  9
$DIMDEC
 70
     4
  9
$DIMTDEC
 70
     4
  9
$DIMALTU
 70
     2
  9
$DIMALTTD
 70
     2
  9
$DIMTXSTY
  7
STANDARD
  9
$DIMAUNIT
 70
     0
  9
$DIMADEC
 70
     0
  9
$DIMALTRND
 40
0.0
  9
$DIMAZIN
 70
     0
  9
$DIMDSEP
 70
    46
  9
$DIMATFIT
 70
     3
  9
$DIMFRAC
 70
     0
  9
$DIMLDRBLK
  1

  9
$DIMLUNIT
 70
     2
  9
$DIMLWD
 70
    -2
  9
$DIMLWE
 70
    -2
  9
$DIMTMOVE
 70
     0
  9
$LUNITS
 70
     2
  9
$LUPREC
 70
     4
  9
$SKETCHINC
 40
0.1
  9
$FILLETRAD
 40
0.0
  9
$AUNITS
 70
     0
  9
$AUPREC
 70
     0
  9
$MENU
  1
acad
  9
$ELEVATION
 40
0.0
  9
$PELEVATION
 40
0.0
  9
$THICKNESS
 40
0.0
  9
$LIMCHECK
 70
     0
  9
$CHAMFERA
 40
0.0
  9
$CHAMFERB
 40
0.0
  9
$CHAMFERC
 40
0.0
  9
$CHAMFERD
 40
0.0
  9
$SKPOLY
 70
     0
  9
$TDCREATE
 40
2453239.131689815
  9
$TDUCREATE
 40
2453239.090023148
  9
$TDUPDATE
 40
2458240.848054340
  9
$TDUUPDATE
 40
2458240.806387673
  9
$TDINDWG
 40
0.1197689236
  9
$TDUSRTIMER
 40
0.1197644444
  9
$USRTIMER
 70
     1
  9
$ANGBASE
 50
0.0
  9
$ANGDIR
 70
     0
  9
$PDMODE
 70
     0
  9
$PDSIZE
 40
0.0
  9
$PLINEWID
 40
0.0
  9
$SPLFRAME
 70
     0
  9
$SPLINETYPE
 70
     6
  9
$SPLINESEGS
 70
    10
  9
$HANDSEED
  5
41B
  9
$SURFTAB1
 70
     6
  9
$SURFTAB2
 70
     6
  9
$SURFTYPE
 70
     6
  9
$SURFU
 70
     6
  9
$SURFV
 70
     6
  9
$UCSBASE
  2

  9
$UCSNAME
  2

  9
$UCSORG
 10
0.0
 20
0.0
 30
0.0
  9
$UCSXDIR
 10
1.0
 20
0.0
 30
0.0
  9
$UCSYDIR
 10
0.0
 20
1.0
 30
0.0
  9
$UCSORTHOREF
  2

  9
$UCSORTHOVIEW
 70
     0
  9
$UCSORGTOP
 10
0.0
 20
0.0
 30
0.0
  9
$UCSORGBOTTOM
 10
0.0
 20
0.0
 30
0.0
  9
$UCSORGLEFT
 10
0.0
 20
0.0
 30
0.0
  9
$UCSORGRIGHT
 10
0.0
 20
0.0
 30
0.0
  9
$UCSORGFRONT
 10
0.0
 20
0.0
 30
0.0
  9
$UCSORGBACK
 10
0.0
 20
0.0
 30
0.0
  9
$PUCSBASE
  2

  9
$PUCSNAME
  2

  9
$PUCSORG
 10
0.0
 20
0.0
 30
0.0
  9
$PUCSXDIR
 10
1.0
 20
0.0
 30
0.0
  9
$PUCSYDIR
 10
0.0
 20
1.0
 30
0.0
  9
$PUCSORTHOREF
  2

  9
$PUCSORTHOVIEW
 70
     0
  9
$PUCSORGTOP
 10
0.0
 20
0.0
 30
0.0
  9
$PUCSORGBOTTOM
 10
0.0
 20
0.0
 30
0.0
  9
$PUCSORGLEFT
 10
0.0
 20
0.0
 30
0.0
  9
$PUCSORGRIGHT
 10
0.0
 20
0.0
 30
0.0
  9
$PUCSORGFRONT
 10
0.0
 20
0.0
 30
0.0
  9
$PUCSORGBACK
 10
0.0
 20
0.0
 30
0.0
  9
$USERI1
 70
     0
  9
$USERI2
 70
     0
  9
$USERI3
 70
     0
  9
$USERI4
 70
     0
  9
$USERI5
 70
     0
  9
$USERR1
 40
0.0
  9
$USERR2
 40
0.0
  9
$USERR3
 40
0.0
  9
$USERR4
 40
0.0
  9
$USERR5
 40
0.0
  9
$WORLDVIEW
 70
     1
  9
$SHADEDGE
 70
     3
  9
$SHADEDIF
 70
    70
  9
$TILEMODE
 70
     1
  9
$MAXACTVP
 70
    16
  9
$PINSBASE
 10
0.0
 20
0.0
 30
0.0
  9
$PLIMCHECK
 70
     0
  9
$PEXTMIN
 10
-1.000000000000000E+20
 20
-1.000000000000000E+20
 30
-1.000000000000000E+20
  9
$PEXTMAX
 10
-1.000000000000000E+20
 20
-1.000000000000000E+20
 30
-1.000000000000000E+20
  9
$PLIMMIN
 10
0.0
 20
0.0
  9
$PLIMMAX
 10
12.0
 20
9.0
  9
$UNITMODE
 70
     0
  9
$VISRETAIN
 70
     0
  9
$PLINEGEN
 70
     1
  9
$PSLTSCALE
 70
     0
  9
$TREEDEPTH
 70
  3020
  9
$CMLSTYLE
  2
Standard
  9
$CMLJUST
 70
     0
  9
$CMLSCALE
 40
1.0
  9
$PROXYGRAPHICS
 70
     1
  9
$MEASUREMENT
 70
     0
  9
$CELWEIGHT
370
    -1
  9
$ENDCAPS
280
     0
  9
$JOINSTYLE
280
     0
  9
$LWDISPLAY
290
     0
  9
$INSUNITS
 70
     0
  9
$HYPERLINKBASE
  1

  9
$STYLESHEET
  1

  9
$XEDIT
290
     1
  9
$CEPSNTYPE
380
     0
  9
$PSTYLEMODE
290
     1
  9
$FINGERPRINTGUID
  2
{9EF33FD1-2D0C-4F2B-9559-3C49FD80FA7C}
  9
$VERSIONGUID
  2
{4E0179AD-9ACA-485E-95F8-C07F6AF696D0}
  9
$EXTNAMES
290
     1
  9
$PSVPSCALE
 40
0.0
  9
$OLESTARTUP
290
     0
  0
ENDSEC
  0
SECTION
  2
CLASSES
  0
CLASS
  1
ACDBDICTIONARYWDFLT
  2
AcDbDictionaryWithDefault
  3
AutoCAD 2000
 90
        0
280
     0
281
     0
  0
CLASS
  1
ACDBPLACEHOLDER
  2
AcDbPlaceHolder
  3
AutoCAD 2000
 90
        0
280
     0
281
     0
  0
CLASS
  1
LAYOUT
  2
AcDbLayout
  3
AutoCAD 2000
 90
        0
280
     0
281
     0
  0
ENDSEC
  0
SECTION
  2
TABLES
  0
TABLE
  2
VPORT
  5
10A
330
0
100
AcDbSymbolTable
 70
     3
  0
VPORT
  5
41A
330
10A
100
AcDbSymbolTableRecord
100
AcDbViewportTableRecord
  2
*Active
 70
     0
 10
0.0
 20
0.0
 11
1.0
 21
1.0
 12
-130.2720416384543
 22
-183.44986017173
 13
0.0
 23
0.0
 14
0.0
 24
0.0
 15
0.0
 25
0.0
 16
0.0
 26
0.0
 36
1.0
 17
851.662529
 27
615.05
 37
0.0
 40
395.9004664786025
 41
2.084134615384615
 42
50.0
 43
0.0
 44
0.0
 50
0.0
 51
0.0
 71
     0
 72
   100
 73
     1
 74
     0
 75
     0
 76
     0
 77
     0
 78
     0
281
     0
 65
     0
110
0.0
120
0.0
130
0.0
111
1.0
121
0.0
131
0.0
112
0.0
122
1.0
132
0.0
 79
     0
146
0.0
  0
ENDTAB
  0
TABLE
  2
LTYPE
  5
107
330
0
100
AcDbSymbolTable
 70
     1
  0
LTYPE
  5
115
330
107
100
AcDbSymbolTableRecord
100
AcDbLinetypeTableRecord
  2
ByBlock
 70
     0
  3

 72
    65
 73
     0
 40
0.0
  0
LTYPE
  5
116
330
107
100
AcDbSymbolTableRecord
100
AcDbLinetypeTableRecord
  2
ByLayer
 70
     0
  3

 72
    65
 73
     0
 40
0.0
  0
LTYPE
  5
117
330
107
100
AcDbSymbolTableRecord
100
AcDbLinetypeTableRecord
  2
CONTINUOUS
 70
     0
  3
Solid line
 72
    65
 73
     0
 40
0.0
  0
ENDTAB
  0
TABLE
  2
LAYER
  5
104
330
0
100
AcDbSymbolTable
 70
     5
  0
LAYER
  5
112
330
104
100
AcDbSymbolTableRecord
100
AcDbLayerTableRecord
  2
0
 70
     0
 62
     7
  6
CONTINUOUS
370
    -3
390
111
  0
LAYER
  5
12D
330
104
100
AcDbSymbolTableRecord
100
AcDbLayerTableRecord
  2
21
 70
     0
 62
     7
  6
CONTINUOUS
370
    -3
390
111
  0
LAYER
  5
12E
330
104
100
AcDbSymbolTableRecord
100
AcDbLayerTableRecord
  2
1
 70
     0
 62
     7
  6
CONTINUOUS
370
    -3
390
111
  0
LAYER
  5
12F
330
104
100
AcDbSymbolTableRecord
100
AcDbLayerTableRecord
  2
2
 70
     0
 62
     7
  6
CONTINUOUS
370
    -3
390
111
  0
LAYER
  5
275
102
{ACAD_XDICTIONARY
360
276
102
}
330
104
100
AcDbSymbolTableRecord
100
AcDbLayerTableRecord
  2
-1
 70
     0
 62
     7
  6
CONTINUOUS
370
    -3
390
111
  0
ENDTAB
  0
TABLE
  2
STYLE
  5
105
330
0
100
AcDbSymbolTable
 70
     1
  0
STYLE
  5
113
330
105
100
AcDbSymbolTableRecord
100
AcDbTextStyleTableRecord
  2
STANDARD
 70
     0
 40
0.0
 41
1.0
 50
0.0
 71
     0
 42
0.0
  3
txt
  4

  0
ENDTAB
  0
TABLE
  2
VIEW
  5
108
330
0
100
AcDbSymbolTable
 70
     0
  0
ENDTAB
  0
TABLE
  2
UCS
  5
109
330
0
100
AcDbSymbolTable
 70
     0
  0
ENDTAB
  0
TABLE
  2
APPID
  5
10B
330
0
100
AcDbSymbolTable
 70
     1
  0
APPID
  5
114
330
10B
100
AcDbSymbolTableRecord
100
AcDbRegAppTableRecord
  2
ACAD
 70
     0
  0
ENDTAB
  0
TABLE
  2
DIMSTYLE
  5
10C
330
0
100
AcDbSymbolTable
 70
     1
100
AcDbDimStyleTable
 71
     0
  0
DIMSTYLE
105
130
330
10C
100
AcDbSymbolTableRecord
100
AcDbDimStyleTableRecord
  2
STANDARD
 70
     0
279
     2
340
113
  0
ENDTAB
  0
TABLE
  2
BLOCK_RECORD
  5
103
330
0
100
AcDbSymbolTable
 70
     0
  0
BLOCK_RECORD
  5
120
330
103
100
AcDbSymbolTableRecord
100
AcDbBlockTableRecord
  2
*Model_Space
340
123
  0
BLOCK_RECORD
  5
11C
330
103
100
AcDbSymbolTableRecord
100
AcDbBlockTableRecord
  2
*Paper_Space
340
11F
  0
ENDTAB
  0
ENDSEC
  0
SECTION
  2
BLOCKS
  0
BLOCK
  5
121
330
120
100
AcDbEntity
  8
0
100
AcDbBlockBegin
  2
*Model_Space
 70
     0
 10
0.0
 20
0.0
 30
0.0
  3
*Model_Space
  1

  0
ENDBLK
  5
122
330
120
100
AcDbEntity
  8
0
100
AcDbBlockEnd
  0
BLOCK
  5
11D
330
11C
100
AcDbEntity
 67
     1
  8
0
100
AcDbBlockBegin
  2
*Paper_Space
 70
     0
 10
0.0
 20
0.0
 30
0.0
  3
*Paper_Space
  1

  0
ENDBLK
  5
11E
330
11C
100
AcDbEntity
 67
     1
  8
0
100
AcDbBlockEnd
  0
ENDSEC
  0
SECTION
  2
ENTITIES
  0
LINE
  5
132
330
120
100
AcDbEntity
  8
21
  6
Continuous
 62
     7
100
AcDbLine
 10
655.0156730367922
 20
726.2110054672075
 30
0.0
 11
579.6094230367922
 21
726.2110054672075
 31
0.0
  0
LINE
  5
133
330
120
100
AcDbEntity
  8
21
  6
Continuous
 62
     7
100
AcDbLine
 10
579.6094230367922
 20
726.2110054672075
 30
0.0
 11
655.0156730367922
 21
726.2110054672075
 31
0.0
  0
LINE
  5
134
330
120
100
AcDbEntity
  8
1
  6
Continuous
 62
     7
100
AcDbLine
 10
712.5625480367921
 20
668.6641304672075
 30
0.0
 11
712.5625480367921
 21
593.2578804672077
 31
0.0
  0
LINE
  5
135
330
120
100
AcDbEntity
  8
1
  6
Continuous
 62
     4
100
AcDbLine
 10
792.5625480367923
 20
630.9610054672075
 30
0.0
 11
792.5625480367923
 21
550.9610054672076
 31
0.0
  0
LINE
  5
136
330
120
100
AcDbEntity
  8
1
  6
Continuous
 62
     7
100
AcDbLine
 10
872.5625480367924
 20
668.6641304672075
 30
0.0
 11
872.5625480367924
 21
593.2578804672077
 31
0.0
  0
LINE
  5
137
330
120
100
AcDbEntity
  8
1
  6
Continuous
 62
     7
100
AcDbLine
 10
1032.562548036791
 20
668.6641304672075
 30
0.0
 11
1032.562548036791
 21
593.2578804672077
 31
0.0
  0
LINE
  5
138
330
120
100
AcDbEntity
  8
1
  6
Continuous
 62
     7
100
AcDbLine
 10
712.5625480367921
 20
593.2578804672077
 30
0.0
 11
754.8594230367923
 21
593.2578804672077
 31
0.0
  0
LINE
  5
139
330
120
100
AcDbEntity
  8
1
  6
Continuous
 62
     7
100
AcDbLine
 10
830.2656730367921
 20
593.2578804672077
 30
0.0
 11
1032.562548036791
 21
593.2578804672077
 31
0.0
  0
LINE
  5
13A
330
120
100
AcDbEntity
  8
1
  6
Continuous
 62
     7
100
AcDbLine
 10
931.3125480367924
 20
709.5067109632622
 30
0.0
 11
931.3125480367924
 21
668.6641304672075
 31
0.0
  0
LINE
  5
13B
330
120
100
AcDbEntity
  8
1
  6
Continuous
 62
     7
100
AcDbLine
 10
973.8125480367925
 20
709.5067109632622
 30
0.0
 11
973.8125480367925
 21
668.6641304672075
 31
0.0
  0
LINE
  5
13C
330
120
100
AcDbEntity
  8
1
  6
Continuous
 62
     7
100
AcDbLine
 10
931.3125480367924
 20
701.7645234632627
 30
0.0
 11
973.8125480367925
 21
701.7645234632627
 31
0.0
  0
LINE
  5
13D
330
120
100
AcDbEntity
  8
1
  6
Continuous
 62
     7
100
AcDbLine
 10
712.5625480367921
 20
668.6641304672075
 30
0.0
 11
931.3125480367924
 21
668.6641304672075
 31
0.0
  0
LINE
  5
13E
330
120
100
AcDbEntity
  8
1
  6
Continuous
 62
     7
100
AcDbLine
 10
973.8125480367925
 20
668.6641304672075
 30
0.0
 11
1032.562548036791
 21
668.6641304672075
 31
0.0
  0
LINE
  5
13F
330
120
100
AcDbEntity
  8
1
  6
Continuous
 62
     7
100
AcDbLine
 10
931.3125480367924
 20
668.6641304672075
 30
0.0
 11
952.5625480367924
 21
653.0703804672074
 31
0.0
  0
LINE
  5
140
330
120
100
AcDbEntity
  8
1
  6
Continuous
 62
     7
100
AcDbLine
 10
952.5625480367924
 20
653.0703804672074
 30
0.0
 11
973.8125480367925
 21
668.6641304672075
 31
0.0
  0
LINE
  5
141
330
120
100
AcDbEntity
  8
1
  6
Continuous
 62
     7
100
AcDbLine
 10
754.8594230367923
 20
593.2578804672077
 30
0.0
 11
792.5625480367923
 21
630.9610054672075
 31
0.0
  0
LINE
  5
142
330
120
100
AcDbEntity
  8
1
  6
Continuous
 62
     7
100
AcDbLine
 10
792.5625480367923
 20
630.9610054672075
 30
0.0
 11
830.2656730367921
 21
593.2578804672077
 31
0.0
  0
LINE
  5
143
330
120
100
AcDbEntity
  8
1
  6
Continuous
 62
     7
100
AcDbLine
 10
1032.562548036791
 20
593.2578804672077
 30
0.0
 11
1032.562548036791
 21
668.6641304672075
 31
0.0
  0
LINE
  5
145
330
120
100
AcDbEntity
  8
1
  6
Continuous
 62
     7
100
AcDbLine
 10
1126.570360536788
 20
629.7266304672075
 30
0.0
 11
1073.250048036789
 21
576.4063179672075
 31
0.0
  0
LINE
  5
14B
330
120
100
AcDbEntity
  8
1
  6
Continuous
 62
     7
100
AcDbLine
 10
1073.257860536791
 20
576.3985054672075
 30
0.0
 11
1126.578173036791
 21
629.7188179672074
 31
0.0
  0
LINE
  5
14C
330
120
100
AcDbEntity
  8
1
  6
Continuous
 62
     7
100
AcDbLine
 10
1126.578173036791
 20
629.7188179672074
 30
0.0
 11
1073.257860536791
 21
576.3985054672075
 31
0.0
  0
LINE
  5
152
330
120
100
AcDbEntity
  8
1
  6
Continuous
 62
     4
100
AcDbLine
 10
712.5625480367921
 20
630.9610054672075
 30
0.0
 11
1032.562548036791
 21
630.9610054672075
 31
0.0
  0
LINE
  5
153
330
120
100
AcDbEntity
  8
1
  6
Continuous
 62
     4
100
AcDbLine
 10
617.3125480367919
 20
725.5860054672075
 30
0.0
 11
617.3125480367919
 21
806.211005467208
 31
0.0
  0
LINE
  5
154
330
120
100
AcDbEntity
  8
1
  6
Continuous
 62
     7
100
AcDbLine
 10
522.3125480367919
 20
779.9610054672077
 30
0.0
 11
522.3125480367919
 21
801.2110054672072
 31
0.0
  0
LINE
  5
155
330
120
100
AcDbEntity
  8
1
  6
Continuous
 62
     7
100
AcDbLine
 10
712.3125480367924
 20
779.9610054672077
 30
0.0
 11
712.3125480367924
 21
801.2110054672072
 31
0.0
  0
LINE
  5
156
330
120
100
AcDbEntity
  8
21
  6
Continuous
 62
     7
100
AcDbLine
 10
674.8125480367924
 20
806.211005467208
 30
0.0
 11
559.8125480367923
 21
806.211005467208
 31
0.0
  0
LINE
  5
157
330
120
100
AcDbEntity
  8
21
  6
Continuous
 62
     7
100
AcDbLine
 10
712.3125480367924
 20
801.2110054672072
 30
0.0
 11
522.3125480367919
 21
801.2110054672072
 31
0.0
  0
LINE
  5
158
330
120
100
AcDbEntity
  8
1
  6
Continuous
 62
     7
100
AcDbLine
 10
559.8125480367923
 20
801.2110054672072
 30
0.0
 11
559.8125480367923
 21
806.211005467208
 31
0.0
  0
LINE
  5
159
330
120
100
AcDbEntity
  8
1
  6
Continuous
 62
     7
100
AcDbLine
 10
674.8125480367924
 20
801.2110054672072
 30
0.0
 11
674.8125480367924
 21
806.211005467208
 31
0.0
  0
LINE
  5
15A
330
120
100
AcDbEntity
  8
21
  6
Continuous
 62
     7
100
AcDbLine
 10
712.3125480367924
 20
779.9610054672077
 30
0.0
 11
522.3125480367919
 21
779.9610054672077
 31
0.0
  0
LINE
  5
15B
330
120
100
AcDbEntity
  8
1
  6
Continuous
 62
     7
100
AcDbLine
 10
579.6094230367922
 20
740.2813179672071
 30
0.0
 11
568.5625480367917
 21
779.9610054672077
 31
0.0
  0
LINE
  5
15C
330
120
100
AcDbEntity
  8
1
  6
Continuous
 62
     7
100
AcDbLine
 10
655.0156730367922
 20
740.2813179672071
 30
0.0
 11
666.0625480367922
 21
779.9610054672077
 31
0.0
  0
LINE
  5
15D
330
120
100
AcDbEntity
  8
1
  6
Continuous
 62
     7
100
AcDbLine
 10
579.6094230367922
 20
726.2110054672075
 30
0.0
 11
579.6094230367922
 21
740.2813179672071
 31
0.0
  0
LINE
  5
15E
330
120
100
AcDbEntity
  8
1
  6
Continuous
 62
     7
100
AcDbLine
 10
655.0156730367922
 20
726.2110054672075
 30
0.0
 11
655.0156730367922
 21
740.2813179672071
 31
0.0
  0
LINE
  5
15F
330
120
100
AcDbEntity
  8
1
  6
Continuous
 62
     4
100
AcDbLine
 10
952.5625480367924
 20
653.0703804672074
 30
0.0
 11
952.5625480367924
 21
767.2110054672075
 31
0.0
  0
LINE
  5
160
330
120
100
AcDbEntity
  8
21
  6
Continuous
 62
     7
100
AcDbLine
 10
1167.890673036791
 20
537.461005467207
 30
0.0
 11
1167.890673036791
 21
612.8672554672077
 31
0.0
  0
LINE
  5
161
330
120
100
AcDbEntity
  8
21
  6
Continuous
 62
     7
100
AcDbLine
 10
1167.890673036791
 20
612.8672554672077
 30
0.0
 11
1167.890673036791
 21
537.461005467207
 31
0.0
  0
LINE
  5
162
330
120
100
AcDbEntity
  8
1
  6
Continuous
 62
     4
100
AcDbLine
 10
1167.890673036791
 20
575.1641304672078
 30
0.0
 11
1250.39067303679
 21
575.1641304672078
 31
0.0
  0
LINE
  5
163
330
120
100
AcDbEntity
  8
1
  6
Continuous
 62
     7
100
AcDbLine
 10
1221.640673036788
 20
670.1641304672074
 30
0.0
 11
1242.890673036787
 21
670.1641304672074
 31
0.0
  0
LINE
  5
164
330
120
100
AcDbEntity
  8
1
  6
Continuous
 62
     7
100
AcDbLine
 10
1221.640673036788
 20
480.1641304672076
 30
0.0
 11
1242.890673036787
 21
480.1641304672076
 31
0.0
  0
LINE
  5
165
330
120
100
AcDbEntity
  8
21
  6
Continuous
 62
     7
100
AcDbLine
 10
1250.39067303679
 20
517.6641304672077
 30
0.0
 11
1250.39067303679
 21
632.6641304672074
 31
0.0
  0
LINE
  5
166
330
120
100
AcDbEntity
  8
21
  6
Continuous
 62
     7
100
AcDbLine
 10
1242.890673036787
 20
480.1641304672076
 30
0.0
 11
1242.890673036787
 21
670.1641304672074
 31
0.0
  0
LINE
  5
167
330
120
100
AcDbEntity
  8
1
  6
Continuous
 62
     7
100
AcDbLine
 10
1242.890673036787
 20
632.6641304672074
 30
0.0
 11
1250.39067303679
 21
632.6641304672074
 31
0.0
  0
LINE
  5
168
330
120
100
AcDbEntity
  8
1
  6
Continuous
 62
     7
100
AcDbLine
 10
1242.890673036787
 20
517.6641304672077
 30
0.0
 11
1250.39067303679
 21
517.6641304672077
 31
0.0
  0
LINE
  5
169
330
120
100
AcDbEntity
  8
21
  6
Continuous
 62
     7
100
AcDbLine
 10
1221.640673036788
 20
480.1641304672076
 30
0.0
 11
1221.640673036788
 21
670.1641304672074
 31
0.0
  0
LINE
  5
16A
330
120
100
AcDbEntity
  8
1
  6
Continuous
 62
     7
100
AcDbLine
 10
1181.960985536788
 20
612.8672554672077
 30
0.0
 11
1221.640673036788
 21
623.9141304672077
 31
0.0
  0
LINE
  5
16B
330
120
100
AcDbEntity
  8
1
  6
Continuous
 62
     7
100
AcDbLine
 10
1181.960985536788
 20
537.461005467207
 30
0.0
 11
1221.640673036788
 21
526.4141304672078
 31
0.0
  0
LINE
  5
16C
330
120
100
AcDbEntity
  8
1
  6
Continuous
 62
     7
100
AcDbLine
 10
1167.890673036791
 20
612.8672554672077
 30
0.0
 11
1181.960985536788
 21
612.8672554672077
 31
0.0
  0
LINE
  5
16D
330
120
100
AcDbEntity
  8
1
  6
Continuous
 62
     7
100
AcDbLine
 10
1167.890673036791
 20
537.461005467207
 30
0.0
 11
1181.960985536788
 21
537.461005467207
 31
0.0
  0
LINE
  5
16E
330
120
100
AcDbEntity
  8
21
  6
Continuous
 62
     7
100
AcDbLine
 10
830.2656730367921
 20
550.3360054672075
 30
0.0
 11
754.8594230367923
 21
550.3360054672075
 31
0.0
  0
LINE
  5
16F
330
120
100
AcDbEntity
  8
21
  6
Continuous
 62
     7
100
AcDbLine
 10
754.8594230367923
 20
550.3360054672075
 30
0.0
 11
830.2656730367921
 21
550.3360054672075
 31
0.0
  0
LINE
  5
170
330
120
100
AcDbEntity
  8
1
  6
Continuous
 62
     4
100
AcDbLine
 10
792.5625480367923
 20
550.9610054672076
 30
0.0
 11
792.5625480367923
 21
469.0860054672074
 31
0.0
  0
LINE
  5
171
330
120
100
AcDbEntity
  8
1
  6
Continuous
 62
     7
100
AcDbLine
 10
697.5625480367924
 20
496.5860054672076
 30
0.0
 11
697.5625480367924
 21
475.3360054672074
 31
0.0
  0
LINE
  5
172
330
120
100
AcDbEntity
  8
1
  6
Continuous
 62
     7
100
AcDbLine
 10
887.5625480367924
 20
496.5860054672076
 30
0.0
 11
887.5625480367924
 21
475.3360054672074
 31
0.0
  0
LINE
  5
173
330
120
100
AcDbEntity
  8
21
  6
Continuous
 62
     7
100
AcDbLine
 10
850.0625480367917
 20
469.0860054672074
 30
0.0
 11
735.0625480367928
 21
469.0860054672074
 31
0.0
  0
LINE
  5
174
330
120
100
AcDbEntity
  8
21
  6
Continuous
 62
     7
100
AcDbLine
 10
887.5625480367924
 20
475.3360054672074
 30
0.0
 11
697.5625480367924
 21
475.3360054672074
 31
0.0
  0
LINE
  5
175
330
120
100
AcDbEntity
  8
1
  6
Continuous
 62
     7
100
AcDbLine
 10
735.0625480367928
 20
475.3360054672074
 30
0.0
 11
735.0625480367928
 21
469.0860054672074
 31
0.0
  0
LINE
  5
176
330
120
100
AcDbEntity
  8
1
  6
Continuous
 62
     7
100
AcDbLine
 10
850.0625480367917
 20
475.3360054672074
 30
0.0
 11
850.0625480367917
 21
469.0860054672074
 31
0.0
  0
LINE
  5
177
330
120
100
AcDbEntity
  8
21
  6
Continuous
 62
     7
100
AcDbLine
 10
887.5625480367924
 20
496.5860054672076
 30
0.0
 11
697.5625480367924
 21
496.5860054672076
 31
0.0
  0
LINE
  5
178
330
120
100
AcDbEntity
  8
1
  6
Continuous
 62
     7
100
AcDbLine
 10
754.8594230367923
 20
536.2656929672077
 30
0.0
 11
743.8125480367921
 21
496.5860054672076
 31
0.0
  0
LINE
  5
179
330
120
100
AcDbEntity
  8
1
  6
Continuous
 62
     7
100
AcDbLine
 10
830.2656730367921
 20
536.2656929672077
 30
0.0
 11
841.3125480367924
 21
496.5860054672076
 31
0.0
  0
LINE
  5
17A
330
120
100
AcDbEntity
  8
1
  6
Continuous
 62
     7
100
AcDbLine
 10
754.8594230367923
 20
593.2578804672077
 30
0.0
 11
754.8594230367923
 21
536.2656929672077
 31
0.0
  0
LINE
  5
17B
330
120
100
AcDbEntity
  8
1
  6
Continuous
 62
     7
100
AcDbLine
 10
830.2656730367921
 20
593.2578804672077
 30
0.0
 11
830.2656730367921
 21
536.2656929672077
 31
0.0
  0
LINE
  5
17C
330
120
100
AcDbEntity
  8
1
  6
Continuous
 62
     7
100
AcDbLine
 10
885.0625480367924
 20
747.2110054672072
 30
0.0
 11
885.0625480367924
 21
762.2110054672075
 31
0.0
  0
LINE
  5
17D
330
120
100
AcDbEntity
  8
1
  6
Continuous
 62
     7
100
AcDbLine
 10
1020.062548036791
 20
747.2110054672072
 30
0.0
 11
1020.062548036791
 21
762.2110054672075
 31
0.0
  0
LINE
  5
17E
330
120
100
AcDbEntity
  8
1
  6
Continuous
 62
     7
100
AcDbLine
 10
921.3125480367924
 20
767.2110054672075
 30
0.0
 11
983.8125480367924
 21
767.2110054672075
 31
0.0
  0
LINE
  5
17F
330
120
100
AcDbEntity
  8
1
  6
Continuous
 62
     7
100
AcDbLine
 10
921.3125480367924
 20
762.2110054672075
 30
0.0
 11
921.3125480367924
 21
767.2110054672075
 31
0.0
  0
LINE
  5
180
330
120
100
AcDbEntity
  8
1
  6
Continuous
 62
     7
100
AcDbLine
 10
983.8125480367924
 20
762.2110054672075
 30
0.0
 11
983.8125480367924
 21
767.2110054672075
 31
0.0
  0
LINE
  5
181
330
120
100
AcDbEntity
  8
1
  6
Continuous
 62
     7
100
AcDbLine
 10
885.0625480367924
 20
762.2110054672075
 30
0.0
 11
1020.062548036791
 21
762.2110054672075
 31
0.0
  0
LINE
  5
182
330
120
100
AcDbEntity
  8
1
  6
Continuous
 62
     7
100
AcDbLine
 10
885.0625480367924
 20
747.2110054672072
 30
0.0
 11
1020.062548036791
 21
747.2110054672072
 31
0.0
  0
LINE
  5
183
330
120
100
AcDbEntity
  8
1
  6
Continuous
 62
     7
100
AcDbLine
 10
931.3125480367924
 20
709.5067109632622
 30
0.0
 11
921.3125480367924
 21
747.2110054672072
 31
0.0
  0
LINE
  5
184
330
120
100
AcDbEntity
  8
1
  6
Continuous
 62
     7
100
AcDbLine
 10
973.8125480367925
 20
709.5067109632622
 30
0.0
 11
983.8125480367924
 21
747.2110054672072
 31
0.0
  0
LINE
  5
222
330
120
100
AcDbEntity
  8
21
  6
Continuous
 62
     7
100
AcDbLine
 10
579.6094230367922
 20
726.2110054671992
 30
0.0
 11
580.2496286734529
 21
713.1793203568292
 31
0.0
  0
LINE
  5
223
330
120
100
AcDbEntity
  8
21
  6
Continuous
 62
     7
100
AcDbLine
 10
580.2496286734529
 20
713.1793203568292
 30
0.0
 11
582.1640800531809
 21
700.2731374979072
 31
0.0
  0
LINE
  5
224
330
120
100
AcDbEntity
  8
21
  6
Continuous
 62
     7
100
AcDbLine
 10
582.1640800531809
 20
700.2731374979072
 30
0.0
 11
585.3343399626456
 21
687.6167504866097
 31
0.0
  0
LINE
  5
225
330
120
100
AcDbEntity
  8
21
  6
Continuous
 62
     7
100
AcDbLine
 10
585.3343399626456
 20
687.6167504866097
 30
0.0
 11
589.7298770658767
 21
675.332047248543
 31
0.0
  0
LINE
  5
226
330
120
100
AcDbEntity
  8
21
  6
Continuous
 62
     7
100
AcDbLine
 10
589.7298770658767
 20
675.332047248543
 30
0.0
 11
595.3083599377271
 21
663.5373361913888
 31
0.0
  0
LINE
  5
227
330
120
100
AcDbEntity
  8
21
  6
Continuous
 62
     7
100
AcDbLine
 10
595.3083599377271
 20
663.5373361913888
 30
0.0
 11
602.0160647386302
 21
652.3462068302735
 31
0.0
  0
LINE
  5
228
330
120
100
AcDbEntity
  8
21
  6
Continuous
 62
     7
100
AcDbLine
 10
602.0160647386302
 20
652.3462068302735
 30
0.0
 11
609.7883926045497
 21
641.866435858638
 31
0.0
  0
LINE
  5
229
330
120
100
AcDbEntity
  8
21
  6
Continuous
 62
     7
100
AcDbLine
 10
609.7883926045497
 20
641.866435858638
 30
0.0
 11
618.5504917693485
 21
632.198949199765
 31
0.0
  0
LINE
  5
22A
330
120
100
AcDbEntity
  8
21
  6
Continuous
 62
     7
100
AcDbLine
 10
618.5504917693485
 20
632.198949199765
 30
0.0
 11
628.2179784282223
 21
623.436850034965
 31
0.0
  0
LINE
  5
22B
330
120
100
AcDbEntity
  8
21
  6
Continuous
 62
     7
100
AcDbLine
 10
628.2179784282223
 20
623.436850034965
 30
0.0
 11
638.6977493998574
 21
615.6645221690459
 31
0.0
  0
LINE
  5
22C
330
120
100
AcDbEntity
  8
21
  6
Continuous
 62
     7
100
AcDbLine
 10
638.6977493998574
 20
615.6645221690459
 30
0.0
 11
649.8888787609727
 21
608.9568173681432
 31
0.0
  0
LINE
  5
22D
330
120
100
AcDbEntity
  8
21
  6
Continuous
 62
     7
100
AcDbLine
 10
649.8888787609727
 20
608.9568173681432
 30
0.0
 11
661.6835898181271
 21
603.378334496293
 31
0.0
  0
LINE
  5
22E
330
120
100
AcDbEntity
  8
21
  6
Continuous
 62
     7
100
AcDbLine
 10
661.6835898181271
 20
603.378334496293
 30
0.0
 11
673.9682930561946
 21
598.9827973930616
 31
0.0
  0
LINE
  5
22F
330
120
100
AcDbEntity
  8
21
  6
Continuous
 62
     7
100
AcDbLine
 10
673.9682930561946
 20
598.9827973930616
 30
0.0
 11
686.6246800674915
 21
595.8125374835965
 31
0.0
  0
LINE
  5
230
330
120
100
AcDbEntity
  8
21
  6
Continuous
 62
     7
100
AcDbLine
 10
686.6246800674915
 20
595.8125374835965
 30
0.0
 11
699.5308629264134
 21
593.8980861038684
 31
0.0
  0
LINE
  5
231
330
120
100
AcDbEntity
  8
21
  6
Continuous
 62
     7
100
AcDbLine
 10
699.5308629264134
 20
593.8980861038684
 30
0.0
 11
712.5625480367921
 21
593.2578804672077
 31
0.0
  0
LINE
  5
232
330
120
100
AcDbEntity
  8
21
  6
Continuous
 62
     7
100
AcDbLine
 10
655.0156730367922
 20
726.2110054672075
 30
0.0
 11
655.2927769690782
 21
720.5704253448051
 31
0.0
  0
LINE
  5
233
330
120
100
AcDbEntity
  8
21
  6
Continuous
 62
     7
100
AcDbLine
 10
655.2927769690782
 20
720.5704253448051
 30
0.0
 11
656.1214201035871
 21
714.984167092436
 31
0.0
  0
LINE
  5
234
330
120
100
AcDbEntity
  8
21
  6
Continuous
 62
     7
100
AcDbLine
 10
656.1214201035871
 20
714.984167092436
 30
0.0
 11
657.4936221539526
 21
709.5060294308299
 31
0.0
  0
LINE
  5
235
330
120
100
AcDbEntity
  8
21
  6
Continuous
 62
     7
100
AcDbLine
 10
657.4936221539526
 20
709.5060294308299
 30
0.0
 11
659.3961680643067
 21
704.1887698203229
 31
0.0
  0
LINE
  5
236
330
120
100
AcDbEntity
  8
21
  6
Continuous
 62
     7
100
AcDbLine
 10
659.3961680643067
 20
704.1887698203229
 30
0.0
 11
661.8107352774947
 21
699.0835963776746
 31
0.0
  0
LINE
  5
237
330
120
100
AcDbEntity
  8
21
  6
Continuous
 62
     7
100
AcDbLine
 10
661.8107352774947
 20
699.0835963776746
 30
0.0
 11
664.7140701913182
 21
694.2396747139073
 31
0.0
  0
LINE
  5
238
330
120
100
AcDbEntity
  8
21
  6
Continuous
 62
     7
100
AcDbLine
 10
664.7140701913182
 20
694.2396747139073
 30
0.0
 11
668.0782121034332
 21
689.7036544426031
 31
0.0
  0
LINE
  5
239
330
120
100
AcDbEntity
  8
21
  6
Continuous
 62
     7
100
AcDbLine
 10
668.0782121034332
 20
689.7036544426031
 30
0.0
 11
671.8707624881974
 21
685.5192199186133
 31
0.0
  0
LINE
  5
23A
330
120
100
AcDbEntity
  8
21
  6
Continuous
 62
     7
100
AcDbLine
 10
671.8707624881974
 20
685.5192199186133
 30
0.0
 11
676.0551970121871
 21
681.7266695338489
 31
0.0
  0
LINE
  5
23B
330
120
100
AcDbEntity
  8
21
  6
Continuous
 62
     7
100
AcDbLine
 10
676.0551970121871
 20
681.7266695338489
 30
0.0
 11
680.5912172834921
 21
678.3625276217344
 31
0.0
  0
LINE
  5
23C
330
120
100
AcDbEntity
  8
21
  6
Continuous
 62
     7
100
AcDbLine
 10
680.5912172834921
 20
678.3625276217344
 30
0.0
 11
685.4351389472587
 21
675.4591927079111
 31
0.0
  0
LINE
  5
23D
330
120
100
AcDbEntity
  8
21
  6
Continuous
 62
     7
100
AcDbLine
 10
685.4351389472587
 20
675.4591927079111
 30
0.0
 11
690.5403123899075
 21
673.0446254947227
 31
0.0
  0
LINE
  5
23E
330
120
100
AcDbEntity
  8
21
  6
Continuous
 62
     7
100
AcDbLine
 10
690.5403123899075
 20
673.0446254947227
 30
0.0
 11
695.8575720004144
 21
671.1420795843682
 31
0.0
  0
LINE
  5
23F
330
120
100
AcDbEntity
  8
21
  6
Continuous
 62
     7
100
AcDbLine
 10
695.8575720004144
 20
671.1420795843682
 30
0.0
 11
701.3357096620204
 21
669.7698775340032
 31
0.0
  0
LINE
  5
240
330
120
100
AcDbEntity
  8
21
  6
Continuous
 62
     7
100
AcDbLine
 10
701.3357096620204
 20
669.7698775340032
 30
0.0
 11
706.9219679143891
 21
668.941234399494
 31
0.0
  0
LINE
  5
241
330
120
100
AcDbEntity
  8
21
  6
Continuous
 62
     7
100
AcDbLine
 10
706.9219679143891
 20
668.941234399494
 30
0.0
 11
712.5625480367911
 21
668.6641304672079
 31
0.0
  0
LINE
  5
244
330
120
100
AcDbEntity
  8
21
  6
Continuous
 62
     7
100
AcDbLine
 10
1126.578173137687
 20
629.7188180681065
 30
0.0
 11
1116.911851504331
 21
638.4813247230067
 31
0.0
  0
LINE
  5
245
330
120
100
AcDbEntity
  8
21
  6
Continuous
 62
     7
100
AcDbLine
 10
1116.911851504331
 20
638.4813247230067
 30
0.0
 11
1106.43319950782
 21
646.2541726798059
 31
0.0
  0
LINE
  5
246
330
120
100
AcDbEntity
  8
21
  6
Continuous
 62
     7
100
AcDbLine
 10
1106.43319950782
 20
646.2541726798059
 30
0.0
 11
1095.243132755846
 21
652.9625047459521
 31
0.0
  0
LINE
  5
247
330
120
100
AcDbEntity
  8
21
  6
Continuous
 62
     7
100
AcDbLine
 10
1095.243132755846
 20
652.9625047459521
 30
0.0
 11
1083.449417708329
 21
658.5417160164994
 31
0.0
  0
LINE
  5
248
330
120
100
AcDbEntity
  8
21
  6
Continuous
 62
     7
100
AcDbLine
 10
1083.449417708329
 20
658.5417160164994
 30
0.0
 11
1071.165634288282
 21
662.9380756370069
 31
0.0
  0
LINE
  5
249
330
120
100
AcDbEntity
  8
21
  6
Continuous
 62
     7
100
AcDbLine
 10
1071.165634288282
 20
662.9380756370069
 30
0.0
 11
1058.510082045047
 21
666.1092442610338
 31
0.0
  0
LINE
  5
24A
330
120
100
AcDbEntity
  8
21
  6
Continuous
 62
     7
100
AcDbLine
 10
1058.510082045047
 20
666.1092442610338
 30
0.0
 11
1045.604640864935
 21
668.0246818011934
 31
0.0
  0
LINE
  5
24B
330
120
100
AcDbEntity
  8
21
  6
Continuous
 62
     7
100
AcDbLine
 10
1045.604640864935
 20
668.0246818011934
 30
0.0
 11
1032.573597201366
 21
668.6659415468897
 31
0.0
  0
LINE
  5
24C
330
120
100
AcDbEntity
  8
21
  6
Continuous
 62
     7
100
AcDbLine
 10
1032.573597201366
 20
668.6659415468897
 30
0.0
 11
1032.536669204732
 21
668.6641304672075
 31
0.0
  0
LINE
  5
24D
330
120
100
AcDbEntity
  8
21
  6
Continuous
 62
     7
100
AcDbLine
 10
1073.257861774526
 20
576.3985041010456
 30
0.0
 11
1073.257860536791
 21
576.3985054672075
 31
0.0
  0
LINE
  5
24E
330
120
100
AcDbEntity
  8
21
  6
Continuous
 62
     7
100
AcDbLine
 10
1073.257860536791
 20
576.3985054672075
 30
0.0
 11
1069.074594845688
 21
580.1914598090727
 31
0.0
  0
LINE
  5
24F
330
120
100
AcDbEntity
  8
21
  6
Continuous
 62
     7
100
AcDbLine
 10
1069.074594845688
 20
580.1914598090727
 30
0.0
 11
1064.53969818431
 21
583.5561182987827
 31
0.0
  0
LINE
  5
250
330
120
100
AcDbEntity
  8
21
  6
Continuous
 62
     7
100
AcDbLine
 10
1064.53969818431
 20
583.5561182987827
 30
0.0
 11
1059.696844086515
 21
586.460077435771
 31
0.0
  0
LINE
  5
251
330
120
100
AcDbEntity
  8
21
  6
Continuous
 62
     7
100
AcDbLine
 10
1059.696844086515
 20
586.460077435771
 30
0.0
 11
1054.592671884652
 21
588.8753705060827
 31
0.0
  0
LINE
  5
252
330
120
100
AcDbEntity
  8
21
  6
Continuous
 62
     7
100
AcDbLine
 10
1054.592671884652
 20
588.8753705060827
 30
0.0
 11
1049.276337547236
 21
590.7787369171177
 31
0.0
  0
LINE
  5
253
330
120
100
AcDbEntity
  8
21
  6
Continuous
 62
     7
100
AcDbLine
 10
1049.276337547236
 20
590.7787369171177
 30
0.0
 11
1043.799040280154
 21
592.1518462098515
 31
0.0
  0
LINE
  5
254
330
120
100
AcDbEntity
  8
21
  6
Continuous
 62
     7
100
AcDbLine
 10
1043.799040280154
 20
592.1518462098515
 30
0.0
 11
1038.213529450277
 21
592.9814745911777
 31
0.0
  0
LINE
  5
255
330
120
100
AcDbEntity
  8
21
  6
Continuous
 62
     7
100
AcDbLine
 10
1038.213529450277
 20
592.9814745911777
 30
0.0
 11
1032.573596580248
 21
593.2596322862631
 31
0.0
  0
LINE
  5
256
330
120
100
AcDbEntity
  8
21
  6
Continuous
 62
     7
100
AcDbLine
 10
1032.573596580248
 20
593.2596322862631
 30
0.0
 11
1032.537797226033
 21
593.2578804672077
 31
0.0
  0
LINE
  5
257
330
120
100
AcDbEntity
  8
21
  6
Continuous
 62
     7
100
AcDbLine
 10
1073.250449015751
 20
576.4066814540607
 30
0.0
 11
1073.257861774526
 21
576.3985041010456
 31
0.0
  0
LINE
  5
258
330
120
100
AcDbEntity
  8
21
  6
Continuous
 62
     7
100
AcDbLine
 10
1073.257861774526
 20
576.3985041010456
 30
0.0
 11
1082.926443682316
 21
567.6368758298386
 31
0.0
  0
LINE
  5
259
330
120
100
AcDbEntity
  8
21
  6
Continuous
 62
     7
100
AcDbLine
 10
1082.926443682316
 20
567.6368758298386
 30
0.0
 11
1093.407258473301
 21
559.8651239431974
 31
0.0
  0
LINE
  5
25A
330
120
100
AcDbEntity
  8
21
  6
Continuous
 62
     7
100
AcDbLine
 10
1093.407258473301
 20
559.8651239431974
 30
0.0
 11
1104.599370171648
 21
553.1580946602623
 31
0.0
  0
LINE
  5
25B
330
120
100
AcDbEntity
  8
21
  6
Continuous
 62
     7
100
AcDbLine
 10
1104.599370171648
 20
553.1580946602623
 30
0.0
 11
1116.394992623474
 21
547.5803803394629
 31
0.0
  0
LINE
  5
25C
330
120
100
AcDbEntity
  8
21
  6
Continuous
 62
     7
100
AcDbLine
 10
1116.394992623474
 20
547.5803803394629
 30
0.0
 11
1128.680527536418
 21
543.1856974187978
 31
0.0
  0
LINE
  5
25D
330
120
100
AcDbEntity
  8
21
  6
Continuous
 62
     7
100
AcDbLine
 10
1128.680527536418
 20
543.1856974187978
 30
0.0
 11
1141.337658493323
 21
540.0163690971711
 31
0.0
  0
LINE
  5
25E
330
120
100
AcDbEntity
  8
21
  6
Continuous
 62
     7
100
AcDbLine
 10
1141.337658493323
 20
540.0163690971711
 30
0.0
 11
1154.244490403976
 21
538.1029177388503
 31
0.0
  0
LINE
  5
25F
330
120
100
AcDbEntity
  8
21
  6
Continuous
 62
     7
100
AcDbLine
 10
1154.244490403976
 20
538.1029177388503
 30
0.0
 11
1167.27672342148
 21
537.4637709264161
 31
0.0
  0
LINE
  5
260
330
120
100
AcDbEntity
  8
21
  6
Continuous
 62
     7
100
AcDbLine
 10
1167.27672342148
 20
537.4637709264161
 30
0.0
 11
1167.889054103567
 21
537.4939038187442
 31
0.0
  0
LINE
  5
261
330
120
100
AcDbEntity
  8
21
  6
Continuous
 62
     7
100
AcDbLine
 10
1126.570778521662
 20
629.7269737129062
 30
0.0
 11
1126.578173598421
 21
629.7188176504487
 31
0.0
  0
LINE
  5
262
330
120
100
AcDbEntity
  8
21
  6
Continuous
 62
     7
100
AcDbLine
 10
1126.578173598421
 20
629.7188176504487
 30
0.0
 11
1130.763698975272
 21
625.9267419820355
 31
0.0
  0
LINE
  5
263
330
120
100
AcDbEntity
  8
21
  6
Continuous
 62
     7
100
AcDbLine
 10
1130.763698975272
 20
625.9267419820355
 30
0.0
 11
1135.300758316338
 21
622.5631794226609
 31
0.0
  0
LINE
  5
264
330
120
100
AcDbEntity
  8
21
  6
Continuous
 62
     7
100
AcDbLine
 10
1135.300758316338
 20
622.5631794226609
 30
0.0
 11
1140.145657259957
 21
619.6605229184817
 31
0.0
  0
LINE
  5
265
330
120
100
AcDbEntity
  8
21
  6
Continuous
 62
     7
100
AcDbLine
 10
1140.145657259957
 20
619.6605229184817
 30
0.0
 11
1145.251736780823
 21
617.2467266383868
 31
0.0
  0
LINE
  5
266
330
120
100
AcDbEntity
  8
21
  6
Continuous
 62
     7
100
AcDbLine
 10
1145.251736780823
 20
617.2467266383868
 30
0.0
 11
1150.569822541876
 21
615.3450367600679
 31
0.0
  0
LINE
  5
267
330
120
100
AcDbEntity
  8
21
  6
Continuous
 62
     7
100
AcDbLine
 10
1150.569822541876
 20
615.3450367600679
 30
0.0
 11
1156.048698470068
 21
613.9737675966237
 31
0.0
  0
LINE
  5
268
330
120
100
AcDbEntity
  8
21
  6
Continuous
 62
     7
100
AcDbLine
 10
1156.048698470068
 20
613.9737675966237
 30
0.0
 11
1161.635599995167
 21
613.1461252197098
 31
0.0
  0
LINE
  5
269
330
120
100
AcDbEntity
  8
21
  6
Continuous
 62
     7
100
AcDbLine
 10
1161.635599995167
 20
613.1461252197098
 30
0.0
 11
1167.27672220136
 21
612.870080277851
 31
0.0
  0
LINE
  5
26A
330
120
100
AcDbEntity
  8
21
  6
Continuous
 62
     7
100
AcDbLine
 10
1167.27672220136
 20
612.870080277851
 30
0.0
 11
1167.889044310806
 21
612.9002795763698
 31
0.0
  0
LINE
  5
27D
330
120
100
AcDbEntity
  8
-1
  6
Continuous
 62
     5
100
AcDbLine
 10
705.6972148019201
 20
993.4567206227013
 30
0.0
 11
715.6972148019206
 21
993.4567206227013
 31
0.0
  0
LINE
  5
27E
330
120
100
AcDbEntity
  8
-1
  6
Continuous
 62
     5
100
AcDbLine
 10
881.9579213624772
 20
993.4567206227013
 30
0.0
 11
891.9579213624771
 21
993.4567206227013
 31
0.0
  0
LINE
  5
27F
330
120
100
AcDbEntity
  8
-1
  6
Continuous
 62
     5
100
AcDbLine
 10
416.5092199239293
 20
590.5981941646967
 30
0.0
 11
426.5092199239295
 21
590.5981941646967
 31
0.0
  0
LINE
  5
2BD
330
120
100
AcDbEntity
  8
-1
  6
Continuous
 62
     5
100
AcDbLine
 10
418.1044391431885
 20
677.1051346328134
 30
0.0
 11
429.104439143188
 21
677.1051346328134
 31
0.0
  0
LINE
  5
2C9
330
120
100
AcDbEntity
  8
-1
  6
Continuous
 62
     5
100
AcDbLine
 10
411.6953756611397
 20
768.406196539523
 30
0.0
 11
424.6953756611398
 21
768.406196539523
 31
0.0
  0
LINE
  5
2CA
330
120
100
AcDbEntity
  8
-1
  6
Continuous
 62
     5
100
AcDbLine
 10
411.6953756611397
 20
508.0080417654158
 30
0.0
 11
424.6953756611398
 21
508.0080417654158
 31
0.0
  0
LINE
  5
2CC
330
120
100
AcDbEntity
  8
-1
  6
Continuous
 62
     5
100
AcDbLine
 10
1329.359761230654
 20
733.1522754423793
 30
0.0
 11
1350.359761230651
 21
733.1522754423793
 31
0.0
  0
LINE
  5
2CD
330
120
100
AcDbEntity
  8
-1
  6
Continuous
 62
     5
100
AcDbLine
 10
236.7212624322728
 20
725.9962908926
 30
0.0
 11
251.7212624322739
 21
725.9962908926
 31
0.0
  0
LINE
  5
2CE
330
120
100
AcDbEntity
  8
-1
  6
Continuous
 62
     5
100
AcDbLine
 10
237.4662312237064
 20
549.4751405479635
 30
0.0
 11
253.4662312237065
 21
549.4751405479635
 31
0.0
  0
LINE
  5
2CF
330
120
100
AcDbEntity
  8
-1
  6
Continuous
 62
     5
100
AcDbLine
 10
707.4702266869522
 20
303.2736188985591
 30
0.0
 11
724.4702266869522
 21
303.2736188985591
 31
0.0
  0
LINE
  5
2D0
330
120
100
AcDbEntity
  8
-1
  6
Continuous
 62
     5
100
AcDbLine
 10
884.4041453086411
 20
301.0175258137791
 30
0.0
 11
903.4041453086413
 21
301.0175258137791
 31
0.0
  0
LINE
  5
2D1
330
120
100
AcDbEntity
  8
-1
  6
Continuous
 62
     5
100
AcDbLine
 10
1193.069744946298
 20
303.463616789542
 30
0.0
 11
1211.069744946298
 21
303.463616789542
 31
0.0
  0
LINE
  5
2D2
330
120
100
AcDbEntity
  8
-1
  6
Continuous
 62
     5
100
AcDbLine
 10
1492.945794136758
 20
600.3966302755311
 30
0.0
 11
1512.94579413676
 21
600.3966302755311
 31
0.0
  0
LINE
  5
2D3
330
120
100
AcDbEntity
  8
-1
  6
Continuous
 62
     5
100
AcDbLine
 10
1492.945794136758
 20
702.5161127375047
 30
0.0
 11
1514.945794136759
 21
702.5161127375047
 31
0.0
  0
LINE
  5
2D4
330
120
100
AcDbEntity
  8
-1
  6
Continuous
 62
     5
100
AcDbLine
 10
1329.359761230654
 20
665.4740691792238
 30
0.0
 11
1343.359761230653
 21
665.4740691792238
 31
0.0
  0
LINE
  5
2FE
330
120
100
AcDbEntity
  8
-1
  6
Continuous
 62
     5
100
AcDbLine
 10
1033.410533332832
 20
304.012521351237
 30
0.0
 11
1045.410533332833
 21
304.012521351237
 31
0.0
  0
LINE
  5
334
330
120
100
AcDbEntity
  8
1
  6
Continuous
 62
     4
100
AcDbLine
 10
1032.562548036791
 20
630.9604992172077
 30
0.0
 11
1051.215832130134
 21
628.9721446746828
 31
0.0
  0
LINE
  5
335
330
120
100
AcDbEntity
  8
1
  6
Continuous
 62
     4
100
AcDbLine
 10
1051.215832130134
 20
628.9721446746828
 30
0.0
 11
1068.524782497796
 21
623.8677264983309
 31
0.0
  0
LINE
  5
336
330
120
100
AcDbEntity
  8
1
  6
Continuous
 62
     4
100
AcDbLine
 10
1068.524782497796
 20
623.8677264983309
 30
0.0
 11
1085.549981201405
 21
615.2185742004069
 31
0.0
  0
LINE
  5
337
330
120
100
AcDbEntity
  8
1
  6
Continuous
 62
     4
100
AcDbLine
 10
1085.549981201405
 20
615.2185742004069
 30
0.0
 11
1099.87951887506
 21
603.1664764515811
 31
0.0
  0
LINE
  5
338
330
120
100
AcDbEntity
  8
1
  6
Continuous
 62
     4
100
AcDbLine
 10
1099.87951887506
 20
603.1664764515811
 30
0.0
 11
1113.925309378317
 21
591.2561673734272
 31
0.0
  0
LINE
  5
339
330
120
100
AcDbEntity
  8
1
  6
Continuous
 62
     4
100
AcDbLine
 10
1113.925309378317
 20
591.2561673734272
 30
0.0
 11
1131.801763074083
 21
582.0398582234694
 31
0.0
  0
LINE
  5
33A
330
120
100
AcDbEntity
  8
1
  6
Continuous
 62
     4
100
AcDbLine
 10
1131.801763074083
 20
582.0398582234694
 30
0.0
 11
1149.394469599456
 21
576.6518605364258
 31
0.0
  0
LINE
  5
33B
330
120
100
AcDbEntity
  8
1
  6
Continuous
 62
     4
100
AcDbLine
 10
1149.394469599456
 20
576.6518605364258
 30
0.0
 11
1167.890673036791
 21
575.1641304672078
 31
0.0
  0
LINE
  5
342
330
120
100
AcDbEntity
  8
1
  6
Continuous
 62
     3
100
AcDbLine
 10
237.5289402043395
 20
531.7170051003427
 30
0.0
 11
237.5289402043395
 21
492.7884829870683
 31
0.0
  0
LINE
  5
343
330
120
100
AcDbEntity
  8
1
  6
Continuous
 62
     3
100
AcDbLine
 10
1014.014064125354
 20
494.8968959119055
 30
0.0
 11
1004.745314125357
 21
485.6281459119053
 31
0.0
  0
LINE
  5
344
330
120
100
AcDbEntity
  8
1
  6
Continuous
 62
     3
100
AcDbLine
 10
1026.145314125356
 20
473.4968959119052
 30
0.0
 11
1014.014064125354
 21
494.8968959119055
 31
0.0
  0
LINE
  5
345
330
120
100
AcDbEntity
  8
1
  6
Continuous
 62
     3
100
AcDbLine
 10
997.93456582483
 20
501.7235286427766
 30
0.0
 11
882.5202324187578
 21
389.5930348713143
 31
0.0
  0
LINE
  5
346
330
120
100
AcDbEntity
  8
1
  6
Continuous
 62
     3
100
AcDbLine
 10
1127.600179621871
 20
557.0351895524845
 30
0.0
 11
1127.600179621871
 21
329.5939711491886
 31
0.0
  0
LINE
  5
347
330
120
100
AcDbEntity
  8
1
  6
Continuous
 62
     3
100
AcDbLine
 10
1168.232885505548
 20
525.8447288982772
 30
0.0
 11
1168.232885505548
 21
412.7571406582076
 31
0.0
  0
LINE
  5
348
330
120
100
AcDbEntity
  8
1
  6
Continuous
 62
     3
100
AcDbLine
 10
1250.39067303679
 20
501.3981543289112
 30
0.0
 11
1250.39067303679
 21
329.5939711491886
 31
0.0
  0
LINE
  5
349
330
120
100
AcDbEntity
  8
1
  6
Continuous
 62
     3
100
AcDbLine
 10
1009.384407848969
 20
490.267239635518
 30
0.0
 11
987.1281736806595
 21
512.5360054672068
 31
0.0
  0
LINE
  5
34A
330
120
100
AcDbEntity
  8
1
  6
Continuous
 62
     3
100
AcDbLine
 10
1135.318443813225
 20
582.6700255997799
 30
0.0
 11
1017.639451975204
 21
464.9910337617526
 31
0.0
  0
LINE
  5
34B
330
120
100
AcDbEntity
  8
1
  6
Continuous
 62
     3
100
AcDbLine
 10
617.3125480367919
 20
691.2295230144691
 30
0.0
 11
617.3125480367917
 21
326.1956724048975
 31
0.0
  0
LINE
  5
34C
330
120
100
AcDbEntity
  8
1
  6
Continuous
 62
     3
100
AcDbLine
 10
227.5289402043394
 20
469.0759829870686
 30
0.0
 11
721.8711745447043
 21
469.0759829870686
 31
0.0
  0
LINE
  5
34D
330
120
100
AcDbEntity
  8
1
  6
Continuous
 62
     3
100
AcDbLine
 10
244.085190204339
 20
492.7884829870683
 30
0.0
 11
230.9726902043383
 21
492.7884829870683
 31
0.0
  0
LINE
  5
34E
330
120
100
AcDbEntity
  8
1
  6
Continuous
 62
     3
100
AcDbLine
 10
237.5289402043395
 20
469.0759829870686
 30
0.0
 11
244.085190204339
 21
492.7884829870683
 31
0.0
  0
LINE
  5
34F
330
120
100
AcDbEntity
  8
1
  6
Continuous
 62
     3
100
AcDbLine
 10
237.5289402043395
 20
469.0759829870686
 30
0.0
 11
230.9726902043383
 21
492.7884829870683
 31
0.0
  0
LINE
  5
353
330
120
100
AcDbEntity
  8
1
  6
Continuous
 62
     3
100
AcDbLine
 10
1127.600179621871
 20
422.7571406582076
 30
0.0
 11
1103.887679621868
 21
429.3133906582077
 31
0.0
  0
LINE
  5
354
330
120
100
AcDbEntity
  8
1
  6
Continuous
 62
     3
100
AcDbLine
 10
1127.600179621871
 20
422.7571406582076
 30
0.0
 11
1103.887679621868
 21
416.2008906582078
 31
0.0
  0
LINE
  5
355
330
120
100
AcDbEntity
  8
1
  6
Continuous
 62
     3
100
AcDbLine
 10
792.5625480367923
 20
340.3922554672071
 30
0.0
 11
768.8500480367922
 21
346.9485054672077
 31
0.0
  0
LINE
  5
356
330
120
100
AcDbEntity
  8
1
  6
Continuous
 62
     3
100
AcDbLine
 10
792.5625480367923
 20
340.3922554672071
 30
0.0
 11
768.8500480367922
 21
333.8360054672073
 31
0.0
  0
LINE
  5
357
330
120
100
AcDbEntity
  8
1
  6
Continuous
 62
     3
100
AcDbLine
 10
617.3125480367917
 20
340.3922554672071
 30
0.0
 11
641.0250480367925
 21
333.8360054672073
 31
0.0
  0
LINE
  5
358
330
120
100
AcDbEntity
  8
1
  6
Continuous
 62
     3
100
AcDbLine
 10
617.3125480367917
 20
340.3922554672071
 30
0.0
 11
641.0250480367925
 21
346.9485054672077
 31
0.0
  0
LINE
  5
359
330
120
100
AcDbEntity
  8
1
  6
Continuous
 62
     3
100
AcDbLine
 10
768.8500480367921
 20
340.3922554672071
 30
0.0
 11
641.0250480367925
 21
340.3922554672071
 31
0.0
  0
LINE
  5
35A
330
120
100
AcDbEntity
  8
1
  6
Continuous
 62
     3
100
AcDbLine
 10
641.0250480367925
 20
333.8360054672073
 30
0.0
 11
641.0250480367925
 21
346.9485054672077
 31
0.0
  0
LINE
  5
35B
330
120
100
AcDbEntity
  8
1
  6
Continuous
 62
     3
100
AcDbLine
 10
707.3795862456288
 20
340.3922554672071
 30
0.0
 11
707.3795862456288
 21
330.3922554672073
 31
0.0
  0
LINE
  5
35C
330
120
100
AcDbEntity
  8
1
  6
Continuous
 62
     3
100
AcDbLine
 10
768.8500480367922
 20
346.9485054672077
 30
0.0
 11
768.8500480367922
 21
333.8360054672073
 31
0.0
  0
LINE
  5
35D
330
120
100
AcDbEntity
  8
1
  6
Continuous
 62
     3
100
AcDbLine
 10
1032.599098553383
 20
422.7571406582076
 30
0.0
 11
1032.599098553383
 21
322.0583934167171
 31
0.0
  0
LINE
  5
35E
330
120
100
AcDbEntity
  8
1
  6
Continuous
 62
     3
100
AcDbLine
 10
882.5202324187578
 20
320.5499002576323
 30
0.0
 11
882.5202324187578
 21
389.5930348713143
 31
0.0
  0
LINE
  5
35F
330
120
100
AcDbEntity
  8
1
  6
Continuous
 62
     3
100
AcDbLine
 10
792.5625480367923
 20
453.3473774309134
 30
0.0
 11
792.5625480367923
 21
326.4150715659636
 31
0.0
  0
LINE
  5
360
330
120
100
AcDbEntity
  8
1
  6
Continuous
 62
     3
100
AcDbLine
 10
1103.887679621868
 20
422.7571406582076
 30
0.0
 11
1032.599098553383
 21
422.7571406582076
 31
0.0
  0
LINE
  5
361
330
120
100
AcDbEntity
  8
1
  6
Continuous
 62
     3
100
AcDbLine
 10
1103.887679621868
 20
429.3133906582077
 30
0.0
 11
1103.887679621868
 21
416.2008906582078
 31
0.0
  0
LINE
  5
362
330
120
100
AcDbEntity
  8
1
  6
Continuous
 62
     3
100
AcDbLine
 10
1026.145314125356
 20
473.4968959119052
 30
0.0
 11
1004.745314125357
 21
485.6281459119053
 31
0.0
  0
LINE
  5
363
330
120
100
AcDbEntity
  8
1
  6
Continuous
 62
     3
100
AcDbLine
 10
1226.678173036789
 20
339.5939711491884
 30
0.0
 11
1152.256429621872
 21
339.5939711491884
 31
0.0
  0
LINE
  5
364
330
120
100
AcDbEntity
  8
1
  6
Continuous
 62
     3
100
AcDbLine
 10
1128.543929621873
 20
339.5939711491884
 30
0.0
 11
1152.256429621872
 21
333.0377211491882
 31
0.0
  0
LINE
  5
365
330
120
100
AcDbEntity
  8
1
  6
Continuous
 62
     3
100
AcDbLine
 10
1128.543929621873
 20
339.5939711491884
 30
0.0
 11
1152.256429621872
 21
346.1502211491885
 31
0.0
  0
LINE
  5
366
330
120
100
AcDbEntity
  8
1
  6
Continuous
 62
     3
100
AcDbLine
 10
1152.256429621872
 20
333.0377211491882
 30
0.0
 11
1152.256429621872
 21
346.1502211491885
 31
0.0
  0
LINE
  5
367
330
120
100
AcDbEntity
  8
1
  6
Continuous
 62
     3
100
AcDbLine
 10
1192.031606212261
 20
339.5939711491884
 30
0.0
 11
1192.031606212261
 21
326.3106269504179
 31
0.0
  0
LINE
  5
36B
330
120
100
AcDbEntity
  8
1
  6
Continuous
 62
     3
100
AcDbLine
 10
1191.945385505545
 20
422.7571406582076
 30
0.0
 11
1211.33219271875
 21
422.7571406582076
 31
0.0
  0
LINE
  5
36F
330
120
100
AcDbEntity
  8
1
  6
Continuous
 62
     3
100
AcDbLine
 10
742.0147920996512
 20
550.668631961331
 30
0.0
 11
399.2414402043393
 21
550.668631961331
 31
0.0
  0
LINE
  5
370
330
120
100
AcDbEntity
  8
1
  6
Continuous
 62
     3
100
AcDbLine
 10
657.9370825570093
 20
630.9610054672075
 30
0.0
 11
227.0976902043392
 21
630.9610054672075
 31
0.0
  0
LINE
  5
371
330
120
100
AcDbEntity
  8
1
  6
Continuous
 62
     3
100
AcDbLine
 10
227.5289402043394
 20
807.0471109486526
 30
0.0
 11
539.6039402043395
 21
807.0471109486526
 31
0.0
  0
LINE
  5
372
330
120
100
AcDbEntity
  8
1
  6
Continuous
 62
     3
100
AcDbLine
 10
237.5289402043395
 20
703.9794643334198
 30
0.0
 11
237.5289402043395
 21
654.6735054672077
 31
0.0
  0
LINE
  5
373
330
120
100
AcDbEntity
  8
1
  6
Continuous
 62
     3
100
AcDbLine
 10
230.9726902043383
 20
607.2485054672076
 30
0.0
 11
244.085190204339
 21
607.2485054672076
 31
0.0
  0
LINE
  5
374
330
120
100
AcDbEntity
  8
1
  6
Continuous
 62
     3
100
AcDbLine
 10
237.5289402043395
 20
630.9610054672075
 30
0.0
 11
244.085190204339
 21
607.2485054672076
 31
0.0
  0
LINE
  5
375
330
120
100
AcDbEntity
  8
1
  6
Continuous
 62
     3
100
AcDbLine
 10
244.085190204339
 20
654.6735054672077
 30
0.0
 11
230.9726902043383
 21
654.6735054672077
 31
0.0
  0
LINE
  5
376
330
120
100
AcDbEntity
  8
1
  6
Continuous
 62
     3
100
AcDbLine
 10
237.5289402043395
 20
630.9610054672075
 30
0.0
 11
244.085190204339
 21
654.6735054672077
 31
0.0
  0
LINE
  5
377
330
120
100
AcDbEntity
  8
1
  6
Continuous
 62
     3
100
AcDbLine
 10
237.5289402043395
 20
607.2485054672076
 30
0.0
 11
237.5289402043395
 21
580.3222551763466
 31
0.0
  0
LINE
  5
378
330
120
100
AcDbEntity
  8
1
  6
Continuous
 62
     3
100
AcDbLine
 10
237.5289402043395
 20
630.9610054672075
 30
0.0
 11
230.9726902043383
 21
607.2485054672076
 31
0.0
  0
LINE
  5
379
330
120
100
AcDbEntity
  8
1
  6
Continuous
 62
     3
100
AcDbLine
 10
237.5289402043395
 20
630.9610054672075
 30
0.0
 11
230.9726902043383
 21
654.6735054672077
 31
0.0
  0
LINE
  5
37A
330
120
100
AcDbEntity
  8
1
  6
Continuous
 62
     3
100
AcDbLine
 10
230.9726902043383
 20
783.3346109486521
 30
0.0
 11
244.085190204339
 21
783.3346109486521
 31
0.0
  0
LINE
  5
37B
330
120
100
AcDbEntity
  8
1
  6
Continuous
 62
     3
100
AcDbLine
 10
237.5289402043395
 20
807.0471109486526
 30
0.0
 11
244.085190204339
 21
783.3346109486521
 31
0.0
  0
LINE
  5
37C
330
120
100
AcDbEntity
  8
1
  6
Continuous
 62
     3
100
AcDbLine
 10
237.5289402043395
 20
783.3346109486521
 30
0.0
 11
237.5289402043395
 21
753.6258849722563
 31
0.0
  0
LINE
  5
37D
330
120
100
AcDbEntity
  8
1
  6
Continuous
 62
     3
100
AcDbLine
 10
237.5289402043395
 20
807.0471109486526
 30
0.0
 11
230.9726902043383
 21
783.3346109486521
 31
0.0
  0
LINE
  5
38A
330
120
100
AcDbEntity
  8
1
  6
Continuous
 62
     3
100
AcDbLine
 10
565.1012722639441
 20
726.4169643334199
 30
0.0
 11
398.2414402043393
 21
726.4169643334199
 31
0.0
  0
LINE
  5
394
330
120
100
AcDbEntity
  8
1
  6
Continuous
 62
     3
100
AcDbLine
 10
1063.662989993975
 20
630.9610054672075
 30
0.0
 11
1506.945233181339
 21
630.9610054672075
 31
0.0
  0
LINE
  5
395
330
120
100
AcDbEntity
  8
1
  6
Continuous
 62
     3
100
AcDbLine
 10
1266.613983181341
 20
575.3067051567564
 30
0.0
 11
1507.463983181341
 21
575.3067051567564
 31
0.0
  0
LINE
  5
396
330
120
100
AcDbEntity
  8
1
  6
Continuous
 62
     3
100
AcDbLine
 10
999.1347605637882
 20
767.1357808244692
 30
0.0
 11
1506.42648318134
 21
767.1357808244692
 31
0.0
  0
LINE
  5
397
330
120
100
AcDbEntity
  8
2
  6
Continuous
 62
     3
100
AcDbLine
 10
986.725484733644
 20
702.2346857230278
 30
0.0
 11
1362.417877938308
 21
702.2346857230278
 31
0.0
  0
LINE
  5
398
330
120
100
AcDbEntity
  8
1
  6
Continuous
 62
     3
100
AcDbLine
 10
1079.809423680659
 20
638.754755467207
 30
0.0
 11
964.221923680661
 21
523.167255467207
 31
0.0
  0
LINE
  5
399
330
120
100
AcDbEntity
  8
1
  6
Continuous
 62
     3
100
AcDbLine
 10
712.5805026455557
 20
811.7491288844862
 30
0.0
 11
712.5805026455557
 21
904.5422554672075
 31
0.0
  0
LINE
  5
39A
330
120
100
AcDbEntity
  8
1
  6
Continuous
 62
     3
100
AcDbLine
 10
792.9117616767586
 20
678.4592363200593
 30
0.0
 11
792.9117616767586
 21
904.5047554672075
 31
0.0
  0
LINE
  5
39B
330
120
100
AcDbEntity
  8
1
  6
Continuous
 62
     3
100
AcDbLine
 10
872.5625480367911
 20
679.1392855629736
 30
0.0
 11
872.5625480367911
 21
904.5422554672075
 31
0.0
  0
LINE
  5
39C
330
120
100
AcDbEntity
  8
1
  6
Continuous
 62
     3
100
AcDbLine
 10
712.5805026455557
 20
677.0991350961259
 30
0.0
 11
712.5805026455557
 21
772.3062016047313
 31
0.0
  0
LINE
  5
39D
330
120
100
AcDbEntity
  8
1
  6
Continuous
 62
     3
100
AcDbLine
 10
970.3594236806607
 20
529.3047554672066
 30
0.0
 11
982.49067368066
 21
507.9047554672071
 31
0.0
  0
LINE
  5
39E
330
120
100
AcDbEntity
  8
1
  6
Continuous
 62
     3
100
AcDbLine
 10
970.3594236806607
 20
529.3047554672066
 30
0.0
 11
991.7656736806607
 21
517.1735054672065
 31
0.0
  0
LINE
  5
39F
330
120
100
AcDbEntity
  8
1
  6
Continuous
 62
     3
100
AcDbLine
 10
982.49067368066
 20
507.9047554672071
 30
0.0
 11
991.7656736806607
 21
517.1735054672065
 31
0.0
  0
LINE
  5
3A0
330
120
100
AcDbEntity
  8
1
  6
Continuous
 62
     3
100
AcDbLine
 10
792.9117616767586
 20
894.5422554672077
 30
0.0
 11
769.1992616767586
 21
901.0985054672076
 31
0.0
  0
LINE
  5
3A1
330
120
100
AcDbEntity
  8
1
  6
Continuous
 62
     3
100
AcDbLine
 10
792.9117616767586
 20
894.5422554672077
 30
0.0
 11
769.1992616767586
 21
887.9860054672082
 31
0.0
  0
LINE
  5
3A2
330
120
100
AcDbEntity
  8
1
  6
Continuous
 62
     3
100
AcDbLine
 10
705.9758246675981
 20
969.3047554672077
 30
0.0
 11
705.9758246675981
 21
940.5297554672076
 31
0.0
  0
LINE
  5
3A3
330
120
100
AcDbEntity
  8
1
  6
Continuous
 62
     3
100
AcDbLine
 10
769.1992616767586
 20
901.0985054672076
 30
0.0
 11
769.1992616767586
 21
887.9860054672082
 31
0.0
  0
LINE
  5
3A4
330
120
100
AcDbEntity
  8
1
  6
Continuous
 62
     3
100
AcDbLine
 10
736.293002645556
 20
887.9860054672082
 30
0.0
 11
736.293002645556
 21
901.0985054672076
 31
0.0
  0
LINE
  5
3A5
330
120
100
AcDbEntity
  8
1
  6
Continuous
 62
     3
100
AcDbLine
 10
712.5805026455557
 20
894.5422554672077
 30
0.0
 11
736.293002645556
 21
887.9860054672082
 31
0.0
  0
LINE
  5
3A6
330
120
100
AcDbEntity
  8
1
  6
Continuous
 62
     3
100
AcDbLine
 10
705.9758246675981
 20
940.5297554672076
 30
0.0
 11
754.1070746675987
 21
940.5297554672076
 31
0.0
  0
LINE
  5
3A7
330
120
100
AcDbEntity
  8
1
  6
Continuous
 62
     3
100
AcDbLine
 10
769.1992616767586
 20
894.5422554672077
 30
0.0
 11
736.293002645556
 21
894.5422554672077
 31
0.0
  0
LINE
  5
3A8
330
120
100
AcDbEntity
  8
1
  6
Continuous
 62
     3
100
AcDbLine
 10
712.5805026455557
 20
894.5422554672077
 30
0.0
 11
736.293002645556
 21
901.0985054672076
 31
0.0
  0
LINE
  5
3A9
330
120
100
AcDbEntity
  8
1
  6
Continuous
 62
     3
100
AcDbLine
 10
754.1070746675987
 20
940.5297554672076
 30
0.0
 11
754.1070746675987
 21
894.5422554672077
 31
0.0
  0
LINE
  5
3AA
330
120
100
AcDbEntity
  8
1
  6
Continuous
 62
     3
100
AcDbLine
 10
881.8891053558463
 20
971.1047554672076
 30
0.0
 11
881.8891053558463
 21
942.3297554672076
 31
0.0
  0
LINE
  5
3AB
330
120
100
AcDbEntity
  8
1
  6
Continuous
 62
     3
100
AcDbLine
 10
816.6242616767576
 20
887.9860054672082
 30
0.0
 11
816.6242616767576
 21
901.0985054672076
 31
0.0
  0
LINE
  5
3AC
330
120
100
AcDbEntity
  8
1
  6
Continuous
 62
     3
100
AcDbLine
 10
792.9117616767586
 20
894.5422554672077
 30
0.0
 11
816.6242616767576
 21
887.9860054672082
 31
0.0
  0
LINE
  5
3AD
330
120
100
AcDbEntity
  8
1
  6
Continuous
 62
     3
100
AcDbLine
 10
848.8500480367926
 20
901.0985054672076
 30
0.0
 11
848.8500480367926
 21
887.9860054672082
 31
0.0
  0
LINE
  5
3AE
330
120
100
AcDbEntity
  8
1
  6
Continuous
 62
     3
100
AcDbLine
 10
872.5625480367911
 20
894.5422554672077
 30
0.0
 11
848.8500480367926
 21
887.9860054672082
 31
0.0
  0
LINE
  5
3AF
330
120
100
AcDbEntity
  8
2
  6
Continuous
 62
     3
100
AcDbLine
 10
816.6242616767576
 20
894.5422554672077
 30
0.0
 11
848.8500480367926
 21
894.5422554672077
 31
0.0
  0
LINE
  5
3B0
330
120
100
AcDbEntity
  8
1
  6
Continuous
 62
     3
100
AcDbLine
 10
833.7578553558453
 20
942.3297554672076
 30
0.0
 11
881.8891053558463
 21
942.3297554672076
 31
0.0
  0
LINE
  5
3B1
330
120
100
AcDbEntity
  8
1
  6
Continuous
 62
     3
100
AcDbLine
 10
833.7578553558453
 20
942.3297554672076
 30
0.0
 11
833.7578553558453
 21
894.5422554672077
 31
0.0
  0
LINE
  5
3B2
330
120
100
AcDbEntity
  8
1
  6
Continuous
 62
     3
100
AcDbLine
 10
792.9117616767586
 20
894.5422554672077
 30
0.0
 11
816.6242616767576
 21
901.0985054672076
 31
0.0
  0
LINE
  5
3B3
330
120
100
AcDbEntity
  8
1
  6
Continuous
 62
     3
100
AcDbLine
 10
872.5625480367911
 20
894.5422554672077
 30
0.0
 11
848.8500480367926
 21
901.0985054672076
 31
0.0
  0
LINE
  5
3B4
330
120
100
AcDbEntity
  8
1
  6
Continuous
 62
     3
100
AcDbLine
 10
1135.340571195332
 20
567.6361079525324
 30
0.0
 11
1063.978173680659
 21
638.9985054672068
 31
0.0
  0
LINE
  5
3C1
330
120
100
AcDbEntity
  8
1
  6
Continuous
 62
     3
100
AcDbLine
 10
1493.238983181341
 20
669.7235054672077
 30
0.0
 11
1493.238983181341
 21
654.6735054672077
 31
0.0
  0
LINE
  5
3C2
330
120
100
AcDbEntity
  8
1
  6
Continuous
 62
     3
100
AcDbLine
 10
1493.238983181341
 20
575.3067051567564
 30
0.0
 11
1486.682733181343
 21
551.5942051567564
 31
0.0
  0
LINE
  5
3C3
330
120
100
AcDbEntity
  8
1
  6
Continuous
 62
     3
100
AcDbLine
 10
1493.238983181341
 20
575.3067051567564
 30
0.0
 11
1499.795233181338
 21
551.5942051567564
 31
0.0
  0
LINE
  5
3C4
330
120
100
AcDbEntity
  8
1
  6
Continuous
 62
     3
100
AcDbLine
 10
1493.238983181341
 20
551.5942051567564
 30
0.0
 11
1493.238983181341
 21
535.2442051567562
 31
0.0
  0
LINE
  5
3C5
330
120
100
AcDbEntity
  8
1
  6
Continuous
 62
     3
100
AcDbLine
 10
1486.682733181343
 20
551.5942051567564
 30
0.0
 11
1499.795233181338
 21
551.5942051567564
 31
0.0
  0
LINE
  5
3C6
330
120
100
AcDbEntity
  8
1
  6
Continuous
 62
     3
100
AcDbLine
 10
1493.238983181341
 20
630.9610054672075
 30
0.0
 11
1499.795233181338
 21
654.6735054672077
 31
0.0
  0
LINE
  5
3C7
330
120
100
AcDbEntity
  8
1
  6
Continuous
 62
     3
100
AcDbLine
 10
1493.238983181341
 20
630.9610054672075
 30
0.0
 11
1486.682733181343
 21
654.6735054672077
 31
0.0
  0
LINE
  5
3C8
330
120
100
AcDbEntity
  8
1
  6
Continuous
 62
     3
100
AcDbLine
 10
1499.795233181338
 20
654.6735054672077
 30
0.0
 11
1486.682733181343
 21
654.6735054672077
 31
0.0
  0
LINE
  5
3C9
330
120
100
AcDbEntity
  8
1
  6
Continuous
 62
     3
100
AcDbLine
 10
1493.238983181341
 20
743.4232808244693
 30
0.0
 11
1493.238983181341
 21
732.8982808244695
 31
0.0
  0
LINE
  5
3CA
330
120
100
AcDbEntity
  8
1
  6
Continuous
 62
     3
100
AcDbLine
 10
1493.238983181341
 20
767.1357808244692
 30
0.0
 11
1486.682733181343
 21
743.4232808244693
 31
0.0
  0
LINE
  5
3CB
330
120
100
AcDbEntity
  8
1
  6
Continuous
 62
     3
100
AcDbLine
 10
1493.238983181341
 20
767.1357808244692
 30
0.0
 11
1499.795233181338
 21
743.4232808244693
 31
0.0
  0
LINE
  5
3CC
330
120
100
AcDbEntity
  8
1
  6
Continuous
 62
     3
100
AcDbLine
 10
1486.682733181343
 20
743.4232808244693
 30
0.0
 11
1499.795233181338
 21
743.4232808244693
 31
0.0
  0
LINE
  5
3DA
330
120
100
AcDbEntity
  8
1
  6
Continuous
 62
     3
100
AcDbLine
 10
1250.39067303679
 20
339.5939711491884
 30
0.0
 11
1226.678173036789
 21
333.0377211491881
 31
0.0
  0
LINE
  5
3DB
330
120
100
AcDbEntity
  8
1
  6
Continuous
 62
     3
100
AcDbLine
 10
1250.39067303679
 20
339.5939711491884
 30
0.0
 11
1226.678173036789
 21
346.1502211491886
 31
0.0
  0
LINE
  5
3DC
330
120
100
AcDbEntity
  8
1
  6
Continuous
 62
     3
100
AcDbLine
 10
1226.678173036789
 20
346.1502211491886
 30
0.0
 11
1226.678173036789
 21
333.0377211491881
 31
0.0
  0
LINE
  5
3DF
330
120
100
AcDbEntity
  8
1
  6
Continuous
 62
     3
100
AcDbLine
 10
1168.232885505548
 20
422.7571406582076
 30
0.0
 11
1191.945385505545
 21
429.3133906582077
 31
0.0
  0
LINE
  5
3E0
330
120
100
AcDbEntity
  8
1
  6
Continuous
 62
     3
100
AcDbLine
 10
1168.232885505548
 20
422.7571406582076
 30
0.0
 11
1191.945385505545
 21
416.2008906582078
 31
0.0
  0
LINE
  5
3E1
330
120
100
AcDbEntity
  8
1
  6
Continuous
 62
     3
100
AcDbLine
 10
1191.945385505545
 20
416.2008906582078
 30
0.0
 11
1191.945385505545
 21
429.3133906582077
 31
0.0
  0
LINE
  5
3FB
330
120
100
AcDbEntity
  8
1
  6
Continuous
 62
     4
100
AcDbLine
 10
617.3125480367919
 20
726.2110054672075
 30
0.0
 11
621.9745613760592
 21
696.4734373650842
 31
0.0
  0
LINE
  5
3FC
330
120
100
AcDbEntity
  8
1
  6
Continuous
 62
     4
100
AcDbLine
 10
621.9745613760592
 20
696.4734373650842
 30
0.0
 11
635.3199081072005
 21
670.3398471725437
 31
0.0
  0
LINE
  5
3FD
330
120
100
AcDbEntity
  8
1
  6
Continuous
 62
     4
100
AcDbLine
 10
635.3199081072005
 20
670.3398471725437
 30
0.0
 11
657.321707145217
 21
648.892281662907
 31
0.0
  0
LINE
  5
3FE
330
120
100
AcDbEntity
  8
1
  6
Continuous
 62
     4
100
AcDbLine
 10
657.321707145217
 20
648.892281662907
 30
0.0
 11
683.4713775109072
 21
635.3749078190189
 31
0.0
  0
LINE
  5
3FF
330
120
100
AcDbEntity
  8
1
  6
Continuous
 62
     4
100
AcDbLine
 10
683.4713775109072
 20
635.3749078190189
 30
0.0
 11
712.5625480367921
 21
630.9610054672075
 31
0.0
  0
ENDSEC
  0
SECTION
  2
OBJECTS
  0
DICTIONARY
  5
10E
330
0
100
AcDbDictionary
281
     1
  3
ACAD_GROUP
350
10F
  3
ACAD_PLOTSTYLENAME
350
110
  3
ACAD_MLINESTYLE
350
118
  3
ACAD_PLOTSETTINGS
350
11A
  3
ACAD_LAYOUT
350
11B
  0
DICTIONARY
  5
276
330
275
100
AcDbDictionary
280
     1
281
     1
  3
ADSK_XREC_LAYER_RECONCILED
360
277
  0
DICTIONARY
  5
10F
102
{ACAD_REACTORS
330
10E
102
}
330
10E
100
AcDbDictionary
281
     1
  0
ACDBDICTIONARYWDFLT
  5
110
102
{ACAD_REACTORS
330
10E
102
}
330
10E
100
AcDbDictionary
281
     1
  3
Normal
350
111
100
AcDbDictionaryWithDefault
340
111
  0
DICTIONARY
  5
118
102
{ACAD_REACTORS
330
10E
102
}
330
10E
100
AcDbDictionary
281
     1
  3
Standard
350
119
  0
DICTIONARY
  5
11A
102
{ACAD_REACTORS
330
10E
102
}
330
10E
100
AcDbDictionary
281
     1
  0
DICTIONARY
  5
11B
102
{ACAD_REACTORS
330
10E
102
}
330
10E
100
AcDbDictionary
281
     1
  3
Layout1
350
11F
  3
Model
350
123
  0
XRECORD
  5
277
102
{ACAD_REACTORS
330
276
102
}
330
276
100
AcDbXrecord
280
     1
290
     1
  0
ACDBPLACEHOLDER
  5
111
102
{ACAD_REACTORS
330
110
102
}
330
110
  0
MLINESTYLE
  5
119
102
{ACAD_REACTORS
330
118
102
}
330
118
100
AcDbMlineStyle
  2
STANDARD
 70
     0
  3

 62
   256
 51
90.0
 52
90.0
 71
     2
 49
0.5
 62
   256
  6
BYLAYER
 49
-0.5
 62
   256
  6
BYLAYER
  0
LAYOUT
  5
11F
102
{ACAD_REACTORS
330
11B
102
}
330
11B
100
AcDbPlotSettings
  1

  2
HP DeskJet 840C/841C/842C/843C
  4

  6

 40
0.0
 41
0.0
 42
0.0
 43
0.0
 44
0.0
 45
0.0
 46
0.0
 47
0.0
 48
0.0
 49
0.0
140
0.0
141
0.0
142
1.0
143
1.0
 70
   688
 72
     0
 73
     0
 74
     5
  7

 75
    16
147
1.0
148
0.0
149
0.0
100
AcDbLayout
  1
Layout1
 70
     0
 71
     1
 10
0.0
 20
0.0
 11
12.0
 21
9.0
 12
0.0
 22
0.0
 32
0.0
 14
-1.000000000000000E+20
 24
-1.000000000000000E+20
 34
-1.000000000000000E+20
 15
-1.000000000000000E+20
 25
-1.000000000000000E+20
 35
-1.000000000000000E+20
146
0.0
 13
0.0
 23
0.0
 33
0.0
 16
1.0
 26
0.0
 36
0.0
 17
0.0
 27
1.0
 37
0.0
 76
     0
330
11C
  0
LAYOUT
  5
123
102
{ACAD_REACTORS
330
11B
102
}
330
11B
100
AcDbPlotSettings
  1

  2
HP DeskJet 840C/841C/842C/843C
  4

  6

 40
0.0
 41
0.0
 42
0.0
 43
0.0
 44
0.0
 45
0.0
 46
0.0
 47
0.0
 48
0.0
 49
0.0
140
0.0
141
0.0
142
1.0
143
1.0
 70
  1712
 72
     0
 73
     0
 74
     0
  7

 75
     0
147
1.0
148
0.0
149
0.0
100
AcDbLayout
  1
Model
 70
     1
 71
     0
 10
0.0
 20
0.0
 11
12.0
 21
9.0
 12
0.0
 22
0.0
 32
0.0
 14
0.0
 24
0.0
 34
0.0
 15
0.0
 25
0.0
 35
0.0
146
0.0
 13
0.0
 23
0.0
 33
0.0
 16
1.0
 26
0.0
 36
0.0
 17
0.0
 27
1.0
 37
0.0
 76
     0
330
120
  0
ENDSEC
  0
EOF
